<?xml version="1.0" standalone="no"?>
<!DOCTYPE svg PUBLIC "-//W3C//DTD SVG 20010904//EN"
 "http://www.w3.org/TR/2001/REC-SVG-20010904/DTD/svg10.dtd">
<svg version="1.0" xmlns="http://www.w3.org/2000/svg"
 width="192.000000pt" height="192.000000pt" viewBox="0 0 192.000000 192.000000"
 preserveAspectRatio="xMidYMid meet">
<metadata>
Created by potrace 1.16, written by Peter Selinger 2001-2019
</metadata>
<g transform="translate(0.000000,192.000000) scale(0.100000,-0.100000)"
fill="#000000" stroke="none">
811 c445 -92 729 -532 635 -987 -62 -301 -295 -546 -601 -630 -91 -26 -329
-26 -420 0 -291 80 -516 305 -596 596 -26 91 -26 329 0 420 120 433 542 692
982 601z"/>
<path d="M1270 1250 c0 -46 -3 -47 -36 -21 -13 10 -47 24 -74 31 -57 14 -80 4
-80 -35 0 -21 -6 -23 -72 -29 -129 -13 -198 -63 -198 -143 0 -27 4 -33 21 -33
12 0 34 -11 51 -25 16 -14 40 -25 53 -25 13 0 37 11 53 25 42 35 122 35 164 0
50 -42 101 -31 137 30 17 29 21 53 21 121 0 76 3 88 22 103 28 23 16 41 -28
41 -33 0 -34 -1 -34 -40z m-306 -185 c9 -25 -5 -45 -30 -45 -26 0 -40 20 -30
45 3 8 16 15 30 15 13 0 26 -7 30 -15z m271 -15 c0 -18 -6 -26 -23 -28 -24 -4
-38 18 -28 44 3 9 15 14 28 12 17 -2 23 -10 23 -28z"/>
<path d="M563 973 c-4 -11 1 -22 15 -31 20 -13 22 -23 22 -113 0 -103 -1 -100
54 -161 32 -36 74 -37 114 -3 26 22 40 25 101 25 39 0 71 -4 71 -10 0 -14 54
-40 83 -40 13 0 36 11 50 24 15 14 37 26 49 28 19 2 23 10 26 43 6 88 -53 130
-204 148 l-94 11 0 32 c0 18 -5 34 -12 36 -26 9 -113 -13 -149 -37 l-39 -25 0
45 0 45 -40 0 c-29 0 -43 -5 -47 -17z m182 -233 c8 -27 -12 -52 -39 -48 -21 3
-32 28 -22 54 8 22 54 18 61 -6z m302 4 c8 -22 -10 -49 -32 -49 -22 0 -40 27
-32 49 8 21 56 21 64 0z"/>
</g>
</svg>
