<?xml version="1.0" standalone="no"?>
<!DOCTYPE svg PUBLIC "-//W3C//DTD SVG 20010904//EN"
 "http://www.w3.org/TR/2001/REC-SVG-20010904/DTD/svg10.dtd">
<svg version="1.0" xmlns="http://www.w3.org/2000/svg"
 width="192.000000pt" height="192.000000pt" viewBox="0 0 192.000000 192.000000"
 preserveAspectRatio="xMidYMid meet">
<metadata>
Created by potrace 1.16, written by Peter Selinger 2001-2019
</metadata>
<g transform="translate(0.000000,192.000000) scale(0.100000,-0.100000)"
fill="#000000" stroke="none">
811 c445 -92 729 -532 635 -987 -62 -301 -295 -546 -601 -630 -91 -26 -329
-26 -420 0 -291 80 -516 305 -596 596 -26 91 -26 329 0 420 120 433 542 692
982 601z"/>
<path d="M890 1373 c-27 -10 -50 -36 -50 -55 0 -11 -14 -33 -30 -50 -30 -29
-34 -30 -89 -24 -57 7 -59 6 -85 -25 -34 -40 -66 -102 -66 -128 0 -11 11 -32
24 -48 13 -15 26 -38 30 -51 9 -28 -9 -84 -34 -107 -26 -24 -25 -56 4 -113 36
-72 56 -86 110 -78 59 9 101 -12 123 -62 31 -68 38 -72 128 -72 90 0 101 6
120 63 17 50 57 72 125 69 56 -2 60 -1 83 30 34 46 57 93 57 118 0 12 -11 36
-25 54 -36 47 -34 102 5 151 17 21 30 42 30 47 0 18 -52 111 -75 134 -20 20
-30 22 -74 17 -64 -7 -95 11 -121 73 -13 29 -29 48 -45 54 -28 11 -119 12
-145 3z m161 -312 c38 -38 44 -56 39 -121 -4 -58 -68 -110 -135 -110 -72 0
-135 62 -135 133 0 82 58 137 144 137 43 0 53 -4 87 -39z"/>
</g>
</svg>
