<?xml version="1.0" standalone="no"?>
<!DOCTYPE svg PUBLIC "-//W3C//DTD SVG 20010904//EN"
 "http://www.w3.org/TR/2001/REC-SVG-20010904/DTD/svg10.dtd">
<svg version="1.0" xmlns="http://www.w3.org/2000/svg"
 width="192.000000pt" height="192.000000pt" viewBox="0 0 192.000000 192.000000"
 preserveAspectRatio="xMidYMid meet">
<metadata>
Created by potrace 1.16, written by Peter Selinger 2001-2019
</metadata>
<g transform="translate(0.000000,192.000000) scale(0.100000,-0.100000)"
fill="#000000" stroke="none">
810 c245 -63 441 -223 549 -451 55 -116 75 -212 75 -354 0 -141 -20 -238 -75
-352 -86 -182 -215 -312 -396 -398 -116 -55 -212 -75 -354 -75 -142 0 -238 20
-354 75 -228 108 -388 304 -451 549 -28 110 -28 292 0 402 76 298 303 526 600
603 106 28 298 28 406 1z"/>
<path d="M876 1340 c-18 -17 -37 -42 -40 -55 -5 -21 -10 -24 -26 -15 -10 5
-37 10 -60 10 -35 0 -48 -6 -77 -35 -32 -32 -35 -39 -31 -82 2 -27 6 -55 9
-63 2 -9 -4 -16 -18 -18 -12 -2 -36 -19 -53 -38 -42 -49 -42 -109 0 -158 17
-18 42 -37 56 -40 20 -5 24 -11 18 -24 -4 -9 -9 -38 -12 -63 -3 -38 1 -51 22
-77 35 -40 86 -58 128 -43 41 14 48 14 48 -3 0 -8 16 -28 35 -45 50 -44 110
-44 160 0 19 17 35 37 35 44 0 21 19 28 36 14 22 -18 95 -15 125 4 14 10 32
29 40 43 16 32 16 98 -1 118 -13 17 -6 36 15 36 7 0 27 16 44 35 44 50 44 110
0 160 -17 19 -37 35 -45 35 -17 0 -17 7 -3 48 15 42 -3 93 -43 128 -26 21 -39
25 -77 22 -25 -3 -54 -8 -63 -12 -13 -6 -19 -2 -24 18 -3 14 -22 39 -40 56
-49 42 -109 42 -158 0z m108 -56 c23 -23 23 -225 0 -248 -8 -9 -22 -16 -29
-16 -36 0 -45 29 -45 140 0 111 9 140 45 140 7 0 21 -7 29 -16z m-185 -100
c24 -19 31 -34 31 -60 0 -32 -2 -34 -34 -34 -26 0 -41 7 -60 31 -30 36 -32 46
-9 71 22 24 36 23 72 -8z m395 10 c23 -23 20 -47 -12 -77 -20 -19 -39 -27 -65
-27 -34 0 -37 2 -37 29 0 21 10 38 35 60 40 35 57 38 79 15z m-310 -200 c9 -8
16 -22 16 -29 0 -36 -29 -45 -140 -45 -111 0 -140 9 -140 45 0 7 7 21 16 29
23 23 225 23 248 0z m390 0 c9 -8 16 -22 16 -29 0 -36 -29 -45 -140 -45 -111
0 -140 9 -140 45 0 7 7 21 16 29 23 23 225 23 248 0z m-290 -100 c23 -23 23
-225 0 -248 -8 -9 -22 -16 -29 -16 -36 0 -45 29 -45 140 0 111 9 140 45 140 7
0 21 -7 29 -16z m-154 -91 c0 -26 -8 -45 -27 -65 -30 -32 -54 -35 -77 -12 -23
22 -20 39 15 79 22 25 39 35 60 35 27 0 29 -3 29 -37z m349 3 c40 -41 38 -81
-5 -92 -37 -9 -94 47 -94 93 0 31 2 33 33 33 25 0 42 -9 66 -34z"/>
</g>
</svg>
