<?xml version="1.0" standalone="no"?>
<!DOCTYPE svg PUBLIC "-//W3C//DTD SVG 20010904//EN"
 "http://www.w3.org/TR/2001/REC-SVG-20010904/DTD/svg10.dtd">
<svg version="1.0" xmlns="http://www.w3.org/2000/svg"
 width="192.000000pt" height="192.000000pt" viewBox="0 0 192.000000 192.000000"
 preserveAspectRatio="xMidYMid meet">
<metadata>
Created by potrace 1.16, written by Peter Selinger 2001-2019
</metadata>
<g transform="translate(0.000000,192.000000) scale(0.100000,-0.100000)"
fill="#000000" stroke="none">
811 c445 -92 729 -532 635 -987 -62 -301 -295 -546 -601 -630 -91 -26 -329
-26 -420 0 -291 80 -516 305 -596 596 -26 91 -26 329 0 420 120 433 542 692
982 601z"/>
<path d="M709 1326 c-58 -20 -93 -51 -125 -108 -25 -45 -29 -64 -29 -128 0
-128 49 -200 268 -394 74 -67 115 -96 132 -96 17 0 58 29 132 96 219 194 268
266 268 394 0 65 -4 83 -30 129 -71 129 -225 157 -329 61 l-41 -38 -41 38
c-61 56 -132 72 -205 46z m522 -286 c12 -7 19 -21 19 -40 0 -25 -20 -47 -135
-150 -74 -66 -144 -120 -154 -120 -11 0 -49 26 -85 58 -49 42 -66 64 -66 83 0
58 43 64 99 14 21 -19 45 -35 52 -35 8 0 62 45 122 100 59 55 112 100 118 100
6 0 19 -5 30 -10z"/>
</g>
</svg>
