<?xml version="1.0" standalone="no"?>
<!DOCTYPE svg PUBLIC "-//W3C//DTD SVG 20010904//EN"
 "http://www.w3.org/TR/2001/REC-SVG-20010904/DTD/svg10.dtd">
<svg version="1.0" xmlns="http://www.w3.org/2000/svg"
 width="192.000000pt" height="192.000000pt" viewBox="0 0 192.000000 192.000000"
 preserveAspectRatio="xMidYMid meet">
<metadata>
Created by potrace 1.16, written by Peter Selinger 2001-2019
</metadata>
<g transform="translate(0.000000,192.000000) scale(0.100000,-0.100000)"
fill="#000000" stroke="none">
811 c445 -92 729 -532 635 -987 -62 -301 -295 -546 -601 -630 -91 -26 -329
-26 -420 0 -291 80 -516 305 -596 596 -26 91 -26 329 0 420 120 433 542 692
982 601z"/>
<path d="M721 1232 c-5 -10 -51 -132 -101 -271 -100 -273 -101 -281 -35 -281
18 0 37 6 43 13 18 21 194 515 190 534 -5 27 -83 31 -97 5z"/>
<path d="M871 1232 c-5 -9 -51 -131 -101 -270 -76 -207 -90 -255 -80 -267 15
-18 74 -20 88 -2 22 27 193 518 187 537 -9 27 -80 29 -94 2z"/>
<path d="M1031 1232 c-6 -10 -51 -132 -101 -271 -102 -279 -102 -281 -26 -281
55 0 73 15 99 80 l22 55 76 3 76 3 22 -61 c12 -33 31 -65 42 -70 11 -6 45 -10
77 -8 l57 3 0 49 c0 46 -7 58 -43 72 -1 1 -37 95 -78 210 -42 115 -81 215 -86
222 -6 7 -34 12 -69 12 -46 0 -60 -4 -68 -18z m108 -289 c1 -13 -60 -19 -72
-7 -5 5 8 51 29 104 4 10 13 -3 24 -35 10 -27 19 -56 19 -62z"/>
</g>
</svg>
