<?xml version="1.0" standalone="no"?>
<!DOCTYPE svg PUBLIC "-//W3C//DTD SVG 20010904//EN"
 "http://www.w3.org/TR/2001/REC-SVG-20010904/DTD/svg10.dtd">
<svg version="1.0" xmlns="http://www.w3.org/2000/svg"
 width="192.000000pt" height="192.000000pt" viewBox="0 0 192.000000 192.000000"
 preserveAspectRatio="xMidYMid meet">
<metadata>
Created by potrace 1.16, written by Peter Selinger 2001-2019
</metadata>
<g transform="translate(0.000000,192.000000) scale(0.100000,-0.100000)"
fill="#000000" stroke="none">
811 c445 -92 729 -532 635 -987 -62 -301 -295 -546 -601 -630 -91 -26 -329
-26 -420 0 -291 80 -516 305 -596 596 -26 91 -26 329 0 420 120 433 542 692
982 601z"/>
<path d="M925 1270 c-43 -10 -69 -26 -98 -60 l-25 -30 27 -72 c15 -40 31 -82
35 -93 6 -16 12 -9 30 39 25 67 46 87 73 70 10 -6 47 -90 85 -190 37 -98 75
-194 85 -212 49 -95 194 -78 223 26 12 44 13 369 1 431 -10 52 -36 80 -82 90
-48 11 -93 -4 -124 -41 -22 -25 -26 -39 -21 -66 3 -19 10 -40 17 -48 14 -17
61 -18 77 -2 9 9 12 -23 11 -148 l0 -159 -67 190 c-38 105 -74 200 -82 213
-30 48 -105 76 -165 62z"/>
<path d="M586 1245 c-14 -13 -31 -36 -36 -50 -15 -39 -13 -444 3 -474 20 -39
61 -63 105 -63 50 1 83 22 108 67 19 35 19 36 -1 73 -21 39 -55 53 -81 32 -12
-11 -14 7 -14 130 0 79 2 141 4 139 2 -2 32 -83 66 -179 34 -96 71 -187 82
-203 58 -82 198 -79 261 5 l20 27 -33 92 c-26 72 -35 88 -42 73 -50 -121 -47
-115 -75 -112 -26 3 -32 15 -104 208 -90 238 -106 260 -188 260 -37 0 -54 -6
-75 -25z"/>
</g>
</svg>
