<?xml version="1.0" standalone="no"?>
<!DOCTYPE svg PUBLIC "-//W3C//DTD SVG 20010904//EN"
 "http://www.w3.org/TR/2001/REC-SVG-20010904/DTD/svg10.dtd">
<svg version="1.0" xmlns="http://www.w3.org/2000/svg"
 width="192.000000pt" height="192.000000pt" viewBox="0 0 192.000000 192.000000"
 preserveAspectRatio="xMidYMid meet">
<metadata>
Created by potrace 1.16, written by Peter Selinger 2001-2019
</metadata>
<g transform="translate(0.000000,192.000000) scale(0.100000,-0.100000)"
fill="#000000" stroke="none">
810 c245 -63 441 -223 549 -451 55 -116 75 -212 75 -354 0 -141 -20 -238 -75
-352 -86 -182 -215 -312 -396 -398 -116 -55 -212 -75 -354 -75 -142 0 -238 20
-354 75 -228 108 -388 304 -451 549 -28 110 -28 292 0 402 76 298 303 526 600
603 106 28 298 28 406 1z"/>
<path d="M716 1315 c-57 -20 -87 -46 -113 -95 -22 -41 -23 -54 -21 -190 l3
-145 25 0 25 0 5 140 c8 233 11 235 315 235 251 0 264 -4 297 -77 18 -41 20
-63 17 -261 -3 -215 -3 -217 18 -220 40 -6 44 24 41 267 l-3 228 -28 41 c-15
23 -46 52 -70 64 -39 22 -55 23 -257 25 -167 2 -224 0 -254 -12z"/>
<path d="M891 1137 c-6 -8 -17 -49 -26 -92 -8 -45 -25 -94 -39 -116 l-25 -37
24 -20 c12 -11 27 -28 32 -37 9 -16 13 -16 39 -2 16 8 48 18 69 22 39 6 40 5
18 -11 -45 -32 -20 -78 39 -72 42 4 51 38 16 62 -29 21 -6 21 38 0 67 -32 95
-102 56 -137 -28 -26 -63 -20 -99 15 l-32 31 -40 -18 c-23 -10 -50 -15 -64
-11 -18 4 -28 -1 -45 -24 -12 -16 -22 -38 -22 -50 0 -16 6 -20 33 -20 17 0 41
7 51 15 25 19 77 19 102 0 12 -9 42 -14 82 -15 60 0 62 1 62 26 0 37 16 61 50
72 27 10 30 15 30 52 0 23 -5 61 -11 84 -8 34 -7 62 5 125 8 45 13 88 10 96
-12 31 -45 28 -99 -10 -77 -52 -106 -47 -163 28 -43 57 -69 69 -91 44z m29
-242 c0 -8 -7 -15 -15 -15 -8 0 -15 7 -15 15 0 8 7 15 15 15 8 0 15 -7 15 -15z
m240 -39 c0 -21 -21 -31 -30 -15 -5 7 -6 17 -4 21 9 14 34 9 34 -6z"/>
<path d="M708 875 c-8 -18 -16 -24 -27 -19 -34 14 -51 16 -51 6 0 -6 7 -15 16
-20 14 -8 11 -11 -14 -20 -38 -13 -49 -48 -33 -103 12 -41 52 -76 72 -64 7 5
2 15 -16 29 -18 15 -28 34 -32 63 l-5 41 67 21 c99 31 112 29 126 -20 10 -31
10 -45 1 -59 -16 -26 6 -39 25 -15 17 24 17 46 -3 95 -17 42 -45 57 -85 47
-16 -4 -19 -2 -14 13 9 29 -14 34 -27 5z"/>
<path d="M700 792 c-30 -10 -54 -21 -52 -25 1 -4 2 -16 2 -27 0 -30 26 -35 86
-16 55 17 63 30 48 70 -7 20 -15 19 -84 -2z"/>
<path d="M716 681 c-23 -25 -17 -52 15 -70 24 -13 29 -13 53 2 32 21 33 51 4
71 -30 21 -51 20 -72 -3z"/>
<path d="M1196 681 c-23 -25 -17 -52 15 -70 24 -13 29 -13 53 2 32 21 33 51 4
71 -30 21 -51 20 -72 -3z"/>
</g>
</svg>
