<?xml version="1.0" standalone="no"?>
<!DOCTYPE svg PUBLIC "-//W3C//DTD SVG 20010904//EN"
 "http://www.w3.org/TR/2001/REC-SVG-20010904/DTD/svg10.dtd">
<svg version="1.0" xmlns="http://www.w3.org/2000/svg"
 width="192.000000pt" height="192.000000pt" viewBox="0 0 192.000000 192.000000"
 preserveAspectRatio="xMidYMid meet">
<metadata>
Created by potrace 1.16, written by Peter Selinger 2001-2019
</metadata>
<g transform="translate(0.000000,192.000000) scale(0.100000,-0.100000)"
fill="#000000" stroke="none">
811 c445 -92 729 -532 635 -987 -62 -301 -295 -546 -601 -630 -91 -26 -329
-26 -420 0 -291 80 -516 305 -596 596 -26 91 -26 329 0 420 120 433 542 692
982 601z"/>
<path d="M864 1226 c-189 -30 -266 -59 -301 -113 -24 -36 -21 -150 6 -257 25
-95 35 -109 72 -101 23 5 33 1 57 -26 23 -26 38 -32 80 -37 49 -4 54 -2 87 31
30 30 35 42 35 82 0 40 -5 52 -34 81 -29 29 -41 34 -80 34 -36 0 -52 -6 -79
-30 -19 -16 -37 -30 -40 -30 -8 0 -27 121 -27 169 0 38 3 43 33 56 96 40 427
79 520 61 49 -9 69 -48 75 -148 4 -73 3 -78 -16 -78 -11 0 -33 7 -48 15 -52
27 -103 16 -152 -32 -7 -7 -30 -13 -50 -13 -74 0 -112 -41 -75 -82 15 -17 25
-19 65 -14 38 5 48 4 48 -8 0 -20 54 -63 90 -71 47 -10 101 21 125 73 16 34
25 42 46 42 35 0 47 17 61 84 21 101 -14 237 -77 296 -26 24 -31 25 -183 27
-90 1 -192 -4 -238 -11z"/>
</g>
</svg>
