<?xml version="1.0" standalone="no"?>
<!DOCTYPE svg PUBLIC "-//W3C//DTD SVG 20010904//EN"
 "http://www.w3.org/TR/2001/REC-SVG-20010904/DTD/svg10.dtd">
<svg version="1.0" xmlns="http://www.w3.org/2000/svg"
 width="192.000000pt" height="192.000000pt" viewBox="0 0 192.000000 192.000000"
 preserveAspectRatio="xMidYMid meet">
<metadata>
Created by potrace 1.16, written by Peter Selinger 2001-2019
</metadata>
<g transform="translate(0.000000,192.000000) scale(0.100000,-0.100000)"
fill="#000000" stroke="none">
811 c445 -92 729 -532 635 -987 -62 -301 -295 -546 -601 -630 -91 -26 -329
-26 -420 0 -291 80 -516 305 -596 596 -26 91 -26 329 0 420 120 433 542 692
982 601z"/>
<path d="M682 1355 c-56 -25 -62 -54 -62 -313 0 -139 4 -241 11 -260 9 -25 38
-49 147 -118 74 -48 144 -89 154 -92 17 -4 18 7 18 220 0 189 2 227 16 246 32
46 59 28 188 -120 80 -92 123 -133 128 -125 4 7 8 117 8 245 0 266 -5 293 -64
317 -50 21 -496 21 -544 0z"/>
<path d="M1006 964 c-9 -24 -7 -386 2 -382 25 10 231 144 232 150 0 11 -209
248 -219 248 -5 0 -12 -7 -15 -16z"/>
</g>
</svg>
