<?xml version="1.0" standalone="no"?>
<!DOCTYPE svg PUBLIC "-//W3C//DTD SVG 20010904//EN"
 "http://www.w3.org/TR/2001/REC-SVG-20010904/DTD/svg10.dtd">
<svg version="1.0" xmlns="http://www.w3.org/2000/svg"
 width="192.000000pt" height="192.000000pt" viewBox="0 0 192.000000 192.000000"
 preserveAspectRatio="xMidYMid meet">
<metadata>
Created by potrace 1.16, written by Peter Selinger 2001-2019
</metadata>
<g transform="translate(0.000000,192.000000) scale(0.100000,-0.100000)"
fill="#000000" stroke="none">
811 c445 -92 729 -532 635 -987 -62 -301 -295 -546 -601 -630 -91 -26 -329
-26 -420 0 -291 80 -516 305 -596 596 -26 91 -26 329 0 420 120 433 542 692
982 601z"/>
<path d="M680 1365 c-12 -14 -8 -83 7 -121 8 -21 528 -21 536 0 15 38 19 107
7 121 -19 22 -531 22 -550 0z"/>
<path d="M704 1183 c32 -110 44 -301 21 -355 -7 -17 8 -18 230 -18 222 0 237
1 230 18 -23 54 -11 245 21 355 5 16 -12 17 -251 17 -239 0 -256 -1 -251 -17z
m266 -293 c0 -10 -5 -22 -10 -25 -13 -8 -24 20 -16 41 8 20 26 9 26 -16z"/>
<path d="M665 728 c-27 -58 -34 -145 -13 -166 17 -17 589 -17 606 0 21 21 14
108 -13 166 l-24 52 -266 0 -266 0 -24 -52z"/>
</g>
</svg>
