<?xml version="1.0" standalone="no"?>
<!DOCTYPE svg PUBLIC "-//W3C//DTD SVG 20010904//EN"
 "http://www.w3.org/TR/2001/REC-SVG-20010904/DTD/svg10.dtd">
<svg version="1.0" xmlns="http://www.w3.org/2000/svg"
 width="192.000000pt" height="192.000000pt" viewBox="0 0 192.000000 192.000000"
 preserveAspectRatio="xMidYMid meet">
<metadata>
Created by potrace 1.16, written by Peter Selinger 2001-2019
</metadata>
<g transform="translate(0.000000,192.000000) scale(0.100000,-0.100000)"
fill="#000000" stroke="none">
811 c445 -92 729 -532 635 -987 -62 -301 -295 -546 -601 -630 -91 -26 -329
-26 -420 0 -291 80 -516 305 -596 596 -26 91 -26 329 0 420 120 433 542 692
982 601z"/>
<path d="M1186 1367 c-11 -8 -17 -23 -14 -38 2 -19 10 -25 35 -27 28 -3 33 0
39 24 5 20 2 31 -11 41 -23 16 -27 16 -49 0z"/>
<path d="M1181 1266 c-8 -9 -11 -97 -9 -301 3 -262 5 -289 21 -299 12 -8 22
-8 35 0 15 10 17 37 20 299 2 297 0 315 -38 315 -10 0 -23 -6 -29 -14z"/>
<path d="M1082 1198 c-16 -16 -17 -489 -2 -519 12 -22 43 -25 59 -5 8 9 11 90
9 272 l-3 259 -25 3 c-14 2 -31 -3 -38 -10z"/>
<path d="M771 1176 c-28 -33 22 -83 55 -55 8 7 14 24 12 38 -2 20 -9 27 -29
29 -14 2 -31 -4 -38 -12z"/>
<path d="M870 1169 c-9 -16 -8 -25 6 -40 22 -24 36 -24 58 0 23 25 6 61 -29
61 -14 0 -29 -8 -35 -21z"/>
<path d="M977 1183 c-12 -12 -7 -50 8 -63 32 -27 82 23 55 55 -13 15 -51 20
-63 8z"/>
<path d="M678 1089 c-16 -9 -18 -32 -18 -258 0 -268 2 -276 52 -269 l23 3 3
255 c2 231 1 256 -15 268 -20 14 -23 14 -45 1z"/>
<path d="M782 1084 c-21 -15 -22 -22 -22 -200 0 -189 6 -224 38 -224 39 0 42
17 42 222 0 182 -1 198 -18 207 -14 7 -25 6 -40 -5z"/>
<path d="M888 1089 c-16 -9 -18 -30 -18 -207 0 -205 3 -222 42 -222 33 0 39
34 36 226 -3 174 -4 187 -23 200 -14 9 -25 10 -37 3z"/>
<path d="M982 1078 c-14 -14 -17 -375 -3 -396 5 -8 21 -12 37 -10 l29 3 3 194
c2 134 -1 198 -9 207 -14 17 -41 18 -57 2z"/>
<path d="M1080 625 c-10 -12 -10 -21 -2 -40 21 -45 77 -23 70 27 -4 28 -48 37
-68 13z"/>
</g>
</svg>
