<?xml version="1.0" standalone="no"?>
<!DOCTYPE svg PUBLIC "-//W3C//DTD SVG 20010904//EN"
 "http://www.w3.org/TR/2001/REC-SVG-20010904/DTD/svg10.dtd">
<svg version="1.0" xmlns="http://www.w3.org/2000/svg"
 width="192.000000pt" height="192.000000pt" viewBox="0 0 192.000000 192.000000"
 preserveAspectRatio="xMidYMid meet">
<metadata>
Created by potrace 1.16, written by Peter Selinger 2001-2019
</metadata>
<g transform="translate(0.000000,192.000000) scale(0.100000,-0.100000)"
fill="#000000" stroke="none">
811 c445 -92 729 -532 635 -987 -62 -301 -295 -546 -601 -630 -91 -26 -329
-26 -420 0 -291 80 -516 305 -596 596 -26 91 -26 329 0 420 120 433 542 692
982 601z"/>
<path d="M896 1335 c-47 -17 -89 -56 -121 -113 l-25 -44 181 -294 181 -294 62
0 c50 0 70 5 103 27 63 40 100 120 87 188 -8 44 -243 451 -283 491 -18 18 -51
37 -76 43 -54 14 -61 13 -109 -4z"/>
<path d="M631 972 c-98 -170 -106 -243 -35 -321 52 -58 69 -62 255 -59 l165 3
-148 240 c-82 132 -152 246 -156 252 -5 9 -34 -33 -81 -115z"/>
</g>
</svg>
