<?xml version="1.0" standalone="no"?>
<!DOCTYPE svg PUBLIC "-//W3C//DTD SVG 20010904//EN"
 "http://www.w3.org/TR/2001/REC-SVG-20010904/DTD/svg10.dtd">
<svg version="1.0" xmlns="http://www.w3.org/2000/svg"
 width="192.000000pt" height="192.000000pt" viewBox="0 0 192.000000 192.000000"
 preserveAspectRatio="xMidYMid meet">
<metadata>
Created by potrace 1.16, written by Peter Selinger 2001-2019
</metadata>
<g transform="translate(0.000000,192.000000) scale(0.100000,-0.100000)"
fill="#000000" stroke="none">
811 c445 -92 729 -532 635 -987 -62 -301 -295 -546 -601 -630 -91 -26 -329
-26 -420 0 -291 80 -516 305 -596 596 -26 91 -26 329 0 420 120 433 542 692
982 601z"/>
<path d="M741 1368 c-19 -13 -44 -36 -55 -51 -20 -28 -21 -39 -21 -405 l0
-377 63 -3 c38 -2 69 2 78 9 11 9 14 42 14 146 l0 134 133 -3 132 -3 5 -140 5
-140 67 -3 c59 -3 68 -1 78 18 8 15 10 124 8 368 -3 385 -5 397 -72 445 -29
21 -43 22 -216 25 -180 3 -186 2 -219 -20z m334 -142 c12 -18 15 -48 13 -137
l-3 -114 -132 -3 -133 -3 0 130 c0 113 2 131 18 140 9 6 63 11 119 11 97 0
103 -1 118 -24z"/>
</g>
</svg>
