<?xml version="1.0" standalone="no"?>
<!DOCTYPE svg PUBLIC "-//W3C//DTD SVG 20010904//EN"
 "http://www.w3.org/TR/2001/REC-SVG-20010904/DTD/svg10.dtd">
<svg version="1.0" xmlns="http://www.w3.org/2000/svg"
 width="192.000000pt" height="192.000000pt" viewBox="0 0 192.000000 192.000000"
 preserveAspectRatio="xMidYMid meet">
<metadata>
Created by potrace 1.16, written by Peter Selinger 2001-2019
</metadata>
<g transform="translate(0.000000,192.000000) scale(0.100000,-0.100000)"
fill="#000000" stroke="none">
811 c445 -92 729 -532 635 -987 -62 -301 -295 -546 -601 -630 -91 -26 -329
-26 -420 0 -291 80 -516 305 -596 596 -26 91 -26 329 0 420 120 433 542 692
982 601z"/>
<path d="M926 1361 c-4 -5 -35 -86 -70 -179 -93 -246 -90 -242 -167 -242 l-40
0 8 -37 c8 -42 9 -66 2 -103 -3 -20 0 -26 21 -28 13 -2 38 -15 54 -29 42 -35
120 -72 158 -75 27 -3 34 1 36 18 2 14 -5 24 -23 32 -30 14 -65 68 -65 102 0
23 95 286 110 303 5 6 94 -209 115 -281 9 -30 -28 -105 -60 -122 -16 -9 -25
-22 -25 -38 0 -23 3 -24 37 -17 48 9 109 40 151 76 18 16 43 29 55 29 22 0 23
4 23 68 0 37 2 74 5 82 3 11 -8 16 -41 20 -75 9 -65 -6 -166 260 -56 149 -64
165 -87 168 -14 2 -28 -1 -31 -7z"/>
<path d="M663 695 c-14 -38 121 -119 230 -138 112 -19 246 21 325 96 60 58 33
64 -54 12 -91 -55 -152 -67 -192 -39 -20 14 -24 14 -39 -1 -29 -29 -134 1
-230 65 -30 20 -33 21 -40 5z"/>
</g>
</svg>
