<?xml version="1.0" standalone="no"?>
<!DOCTYPE svg PUBLIC "-//W3C//DTD SVG 20010904//EN"
 "http://www.w3.org/TR/2001/REC-SVG-20010904/DTD/svg10.dtd">
<svg version="1.0" xmlns="http://www.w3.org/2000/svg"
 width="192.000000pt" height="192.000000pt" viewBox="0 0 192.000000 192.000000"
 preserveAspectRatio="xMidYMid meet">
<metadata>
Created by potrace 1.16, written by Peter Selinger 2001-2019
</metadata>
<g transform="translate(0.000000,192.000000) scale(0.100000,-0.100000)"
fill="#000000" stroke="none">
810 c149 -35 263 -99 377 -209 169 -163 247 -351 247 -596 0 -245 -78 -433
-247 -596 -165 -159 -340 -229 -578 -229 -238 0 -413 70 -578 229 -169 163
-247 351 -247 596 0 238 70 413 229 578 111 115 239 190 390 227 107 26 298
26 407 0z"/>
<path d="M828 1365 c-77 -25 -167 -93 -215 -163 -58 -85 -76 -153 -71 -262 3
-74 9 -98 37 -154 42 -85 112 -156 198 -198 64 -31 73 -33 178 -33 105 0 114
2 178 33 86 43 156 113 199 199 31 64 33 73 33 178 0 105 -2 114 -33 178 -43
86 -113 156 -198 198 -60 30 -78 34 -163 36 -65 2 -111 -2 -143 -12z m32 -144
c32 -62 -15 -142 -58 -99 -16 16 -16 90 0 106 18 18 46 14 58 -7z m269 5 c18
-21 10 -97 -11 -110 -29 -18 -53 4 -56 53 -2 23 2 49 9 57 15 18 43 18 58 0z
m-194 -306 l0 -85 -57 -3 c-57 -3 -58 -4 -58 -32 0 -30 0 -30 60 -30 l60 0 0
-30 0 -30 -90 0 -91 0 3 88 3 87 58 3 c56 3 57 4 57 32 0 27 -3 30 -30 30 -16
0 -30 -4 -30 -10 0 -5 -13 -10 -30 -10 -27 0 -30 3 -30 33 0 19 3 37 7 41 4 4
43 5 88 4 l80 -3 0 -85z m240 -60 l0 -145 -85 0 -85 0 -3 43 c-3 41 -2 42 27
42 21 0 31 -5 31 -15 0 -10 10 -15 30 -15 27 0 30 3 30 30 0 28 -1 29 -57 32
l-58 3 -3 74 c-2 41 -1 80 2 88 4 11 25 13 88 11 l83 -3 0 -145z"/>
<path d="M1060 920 c0 -27 3 -30 30 -30 27 0 30 3 30 30 0 27 -3 30 -30 30
-27 0 -30 -3 -30 -30z"/>
</g>
</svg>
