<?xml version="1.0" standalone="no"?>
<!DOCTYPE svg PUBLIC "-//W3C//DTD SVG 20010904//EN"
 "http://www.w3.org/TR/2001/REC-SVG-20010904/DTD/svg10.dtd">
<svg version="1.0" xmlns="http://www.w3.org/2000/svg"
 width="192.000000pt" height="192.000000pt" viewBox="0 0 192.000000 192.000000"
 preserveAspectRatio="xMidYMid meet">
<metadata>
Created by potrace 1.16, written by Peter Selinger 2001-2019
</metadata>
<g transform="translate(0.000000,192.000000) scale(0.100000,-0.100000)"
fill="#000000" stroke="none">
810 c149 -35 263 -99 377 -209 169 -163 247 -351 247 -596 0 -245 -78 -433
-247 -596 -165 -159 -340 -229 -578 -229 -238 0 -413 70 -578 229 -169 163
-247 351 -247 596 0 238 70 413 229 578 111 115 239 190 390 227 107 26 298
26 407 0z"/>
<path d="M838 1365 c-77 -25 -167 -93 -215 -163 -58 -85 -76 -153 -71 -262 3
-74 9 -98 37 -154 42 -85 112 -156 198 -198 64 -31 73 -33 178 -33 105 0 114
2 178 33 86 43 156 113 199 199 31 64 33 73 33 178 0 105 -2 114 -33 178 -43
86 -113 156 -198 198 -60 30 -78 34 -163 36 -65 2 -111 -2 -143 -12z m32 -144
c32 -62 -15 -142 -58 -99 -16 16 -16 90 0 106 18 18 46 14 58 -7z m269 5 c7
-8 11 -34 9 -57 -3 -49 -27 -71 -55 -53 -22 13 -30 89 -12 110 15 18 43 18 58
0z m-261 -368 l3 -148 -31 0 -30 0 0 120 c0 100 -2 120 -15 120 -10 0 -15 10
-15 31 0 29 1 30 43 27 l42 -3 3 -147z m122 92 l0 -60 30 0 30 0 0 60 0 60 30
0 30 0 0 -150 0 -150 -30 0 c-30 0 -30 0 -30 60 l0 59 -57 3 -58 3 -3 88 -3
87 31 0 30 0 0 -60z"/>
</g>
</svg>
