<?xml version="1.0" standalone="no"?>
<!DOCTYPE svg PUBLIC "-//W3C//DTD SVG 20010904//EN"
 "http://www.w3.org/TR/2001/REC-SVG-20010904/DTD/svg10.dtd">
<svg version="1.0" xmlns="http://www.w3.org/2000/svg"
 width="192.000000pt" height="192.000000pt" viewBox="0 0 192.000000 192.000000"
 preserveAspectRatio="xMidYMid meet">
<metadata>
Created by potrace 1.16, written by Peter Selinger 2001-2019
</metadata>
<g transform="translate(0.000000,192.000000) scale(0.100000,-0.100000)"
fill="#000000" stroke="none">
811 c445 -92 729 -532 635 -987 -62 -301 -295 -546 -601 -630 -91 -26 -329
-26 -420 0 -291 80 -516 305 -596 596 -26 91 -26 329 0 420 120 433 542 692
982 601z"/>
<path d="M832 1358 c-7 -7 -12 -20 -12 -30 0 -14 -8 -18 -32 -18 -42 0 -93
-31 -118 -72 -19 -31 -20 -51 -20 -304 0 -265 1 -272 23 -304 49 -73 55 -75
282 -75 227 0 233 2 283 75 21 32 22 39 22 304 0 253 -1 273 -20 304 -25 41
-76 72 -117 72 -25 0 -33 4 -33 18 0 36 -20 42 -135 42 -73 0 -115 -4 -123
-12z m206 -264 l62 -17 0 -81 c0 -94 -20 -147 -69 -189 -57 -47 -105 -48 -159
-2 -51 43 -72 100 -72 193 0 81 0 82 28 88 15 3 45 12 67 19 43 15 47 15 143
-11z"/>
<path d="M928 973 c-37 -48 -37 -48 -17 -66 11 -11 18 -25 15 -33 -11 -30 15
-12 49 33 32 41 34 49 21 59 -9 6 -16 21 -16 33 0 32 -12 26 -52 -26z"/>
</g>
</svg>
