<?xml version="1.0" standalone="no"?>
<!DOCTYPE svg PUBLIC "-//W3C//DTD SVG 20010904//EN"
 "http://www.w3.org/TR/2001/REC-SVG-20010904/DTD/svg10.dtd">
<svg version="1.0" xmlns="http://www.w3.org/2000/svg"
 width="192.000000pt" height="192.000000pt" viewBox="0 0 192.000000 192.000000"
 preserveAspectRatio="xMidYMid meet">
<metadata>
Created by potrace 1.16, written by Peter Selinger 2001-2019
</metadata>
<g transform="translate(0.000000,192.000000) scale(0.100000,-0.100000)"
fill="#000000" stroke="none">
811 c445 -92 729 -532 635 -987 -62 -301 -295 -546 -601 -630 -91 -26 -329
-26 -420 0 -291 80 -516 305 -596 596 -26 91 -26 329 0 420 120 433 542 692
982 601z"/>
<path d="M906 1325 l-37 -45 -37 17 c-48 21 -82 22 -93 3 -4 -8 -11 -36 -14
-62 l-6 -48 -45 0 c-30 0 -50 -6 -64 -20 -19 -19 -19 -20 0 -66 11 -25 20 -49
20 -53 0 -5 -18 -21 -39 -35 -22 -15 -42 -34 -45 -42 -6 -15 20 -46 63 -76
l24 -17 -19 -48 c-10 -26 -20 -51 -22 -54 -7 -16 33 -39 66 -39 52 0 62 -10
70 -65 10 -65 27 -75 91 -48 l49 20 36 -43 c21 -24 45 -44 56 -44 11 0 32 19
50 44 l32 44 50 -21 c64 -26 80 -17 92 51 8 49 10 52 45 57 69 11 79 15 85 31
3 9 -3 37 -15 62 l-20 47 45 39 c25 21 46 44 46 51 0 10 -50 56 -88 81 -2 1 7
25 19 54 20 47 21 52 6 68 -9 9 -38 19 -64 22 l-48 5 -10 52 c-14 75 -23 80
-88 55 l-54 -20 -37 44 c-20 24 -43 44 -50 44 -8 0 -30 -20 -50 -45z m155
-178 c165 -87 135 -336 -46 -387 -122 -34 -250 49 -270 175 -14 83 34 173 114
215 53 28 145 27 202 -3z"/>
<path d="M882 1091 c-127 -81 -78 -271 71 -271 82 0 138 45 152 123 9 44 -21
112 -62 141 -40 29 -120 32 -161 7z"/>
</g>
</svg>
