<?xml version="1.0" standalone="no"?>
<!DOCTYPE svg PUBLIC "-//W3C//DTD SVG 20010904//EN"
 "http://www.w3.org/TR/2001/REC-SVG-20010904/DTD/svg10.dtd">
<svg version="1.0" xmlns="http://www.w3.org/2000/svg"
 width="192.000000pt" height="192.000000pt" viewBox="0 0 192.000000 192.000000"
 preserveAspectRatio="xMidYMid meet">
<metadata>
Created by potrace 1.16, written by Peter Selinger 2001-2019
</metadata>
<g transform="translate(0.000000,192.000000) scale(0.100000,-0.100000)"
fill="#000000" stroke="none">
811 c445 -92 729 -532 635 -987 -62 -301 -295 -546 -601 -630 -91 -26 -329
-26 -420 0 -291 80 -516 305 -596 596 -26 91 -26 329 0 420 120 433 542 692
982 601z"/>
<path d="M887 1369 c-76 -12 -172 -63 -226 -118 -158 -162 -156 -411 3 -573
74 -76 157 -111 271 -116 113 -5 169 11 173 49 2 14 -5 35 -15 47 -16 20 -22
21 -58 11 -57 -16 -162 -6 -213 20 -62 31 -114 82 -142 138 -32 63 -39 171
-16 241 22 65 85 136 150 169 59 30 159 41 219 25 33 -9 41 -8 58 9 31 31 25
68 -13 83 -45 18 -133 25 -191 15z"/>
<path d="M1167 1262 c-24 -27 -21 -55 9 -83 15 -13 40 -51 55 -84 54 -111 34
-241 -50 -337 -35 -41 -39 -68 -13 -91 28 -25 47 -21 88 21 48 49 90 134 104
212 21 116 -19 253 -100 340 -40 44 -68 50 -93 22z"/>
<path d="M842 1184 c-86 -43 -132 -121 -132 -221 0 -68 23 -125 70 -171 47
-47 86 -64 160 -70 82 -6 98 8 80 63 -11 33 -14 35 -53 35 -119 0 -196 121
-137 217 26 44 61 64 122 72 45 5 55 10 67 35 21 45 5 60 -65 64 -47 2 -69 -2
-112 -24z"/>
<path d="M1082 1117 c-27 -29 -27 -33 -2 -82 26 -50 25 -87 -2 -141 l-22 -44
24 -25 c28 -30 51 -32 73 -7 64 71 62 228 -5 299 -27 29 -39 29 -66 0z"/>
<path d="M889 1031 c-35 -36 -39 -86 -9 -124 42 -53 134 -41 160 22 40 96 -77
175 -151 102z"/>
</g>
</svg>
