<?xml version="1.0" standalone="no"?>
<!DOCTYPE svg PUBLIC "-//W3C//DTD SVG 20010904//EN"
 "http://www.w3.org/TR/2001/REC-SVG-20010904/DTD/svg10.dtd">
<svg version="1.0" xmlns="http://www.w3.org/2000/svg"
 width="192.000000pt" height="192.000000pt" viewBox="0 0 192.000000 192.000000"
 preserveAspectRatio="xMidYMid meet">
<metadata>
Created by potrace 1.16, written by Peter Selinger 2001-2019
</metadata>
<g transform="translate(0.000000,192.000000) scale(0.100000,-0.100000)"
fill="#000000" stroke="none">
811 c445 -92 729 -532 635 -987 -62 -301 -295 -546 -601 -630 -91 -26 -329
-26 -420 0 -291 80 -516 305 -596 596 -26 91 -26 329 0 420 120 433 542 692
982 601z"/>
<path d="M690 1317 l-45 -22 152 -3 c83 -1 223 -1 310 0 l158 3 -45 22 c-42
21 -58 23 -265 23 -207 0 -223 -2 -265 -23z"/>
<path d="M606 1245 c-5 -13 38 -15 349 -15 311 0 354 2 349 15 -9 23 -689 23
-698 0z"/>
<path d="M580 1160 c0 -20 7 -20 375 -20 368 0 375 0 375 20 0 20 -7 20 -375
20 -368 0 -375 0 -375 -20z"/>
<path d="M580 1065 l0 -25 375 0 375 0 0 25 0 25 -375 0 -375 0 0 -25z"/>
<path d="M580 910 l0 -40 375 0 375 0 0 40 0 40 -375 0 -375 0 0 -40z"/>
<path d="M585 753 c19 -79 69 -132 144 -153 47 -13 405 -13 452 0 75 21 125
74 144 153 l7 27 -377 0 -377 0 7 -27z"/>
</g>
</svg>
