<?xml version="1.0" standalone="no"?>
<!DOCTYPE svg PUBLIC "-//W3C//DTD SVG 20010904//EN"
 "http://www.w3.org/TR/2001/REC-SVG-20010904/DTD/svg10.dtd">
<svg version="1.0" xmlns="http://www.w3.org/2000/svg"
 width="192.000000pt" height="192.000000pt" viewBox="0 0 192.000000 192.000000"
 preserveAspectRatio="xMidYMid meet">
<metadata>
Created by potrace 1.16, written by Peter Selinger 2001-2019
</metadata>
<g transform="translate(0.000000,192.000000) scale(0.100000,-0.100000)"
fill="#000000" stroke="none">
811 c445 -92 729 -532 635 -987 -62 -301 -295 -546 -601 -630 -91 -26 -329
-26 -420 0 -291 80 -516 305 -596 596 -26 91 -26 329 0 420 120 433 542 692
982 601z"/>
<path d="M923 1367 c-5 -6 -10 -25 -11 -41 -1 -16 -4 -31 -5 -33 -2 -2 -30 -8
-63 -14 -73 -13 -168 -63 -200 -104 -55 -72 -73 -173 -34 -197 16 -10 20 -24
20 -70 0 -147 88 -259 240 -304 26 -8 53 -21 60 -29 17 -20 33 -19 54 4 10 11
32 23 50 27 122 26 222 139 233 265 l6 59 -254 2 c-218 3 -254 5 -254 18 0 13
37 15 264 18 175 1 269 6 278 13 19 16 16 87 -6 134 -36 79 -142 150 -241 162
-40 5 -49 10 -68 44 -26 45 -55 65 -69 46z"/>
</g>
</svg>
