<?xml version="1.0" standalone="no"?>
<!DOCTYPE svg PUBLIC "-//W3C//DTD SVG 20010904//EN"
 "http://www.w3.org/TR/2001/REC-SVG-20010904/DTD/svg10.dtd">
<svg version="1.0" xmlns="http://www.w3.org/2000/svg"
 width="192.000000pt" height="192.000000pt" viewBox="0 0 192.000000 192.000000"
 preserveAspectRatio="xMidYMid meet">
<metadata>
Created by potrace 1.16, written by Peter Selinger 2001-2019
</metadata>
<g transform="translate(0.000000,192.000000) scale(0.100000,-0.100000)"
fill="#000000" stroke="none">
811 c445 -92 729 -532 635 -987 -62 -301 -295 -546 -601 -630 -91 -26 -329
-26 -420 0 -291 80 -516 305 -596 596 -26 91 -26 329 0 420 120 433 542 692
982 601z"/>
<path d="M870 1366 c-126 -28 -229 -110 -284 -226 -29 -60 -31 -73 -31 -175 0
-99 3 -116 27 -168 38 -80 117 -161 197 -200 62 -30 73 -32 172 -32 101 0 108
1 181 38 134 66 215 186 225 335 15 211 -126 392 -337 432 -64 12 -80 12 -150
-4z m-10 -172 c29 -34 50 -73 50 -94 0 -5 -13 -25 -30 -43 -16 -19 -30 -41
-30 -49 0 -21 76 -106 112 -124 28 -15 30 -14 64 15 43 39 70 39 122 1 74 -53
75 -79 8 -138 -88 -77 -222 -40 -349 98 -94 101 -124 192 -93 275 19 48 66 95
96 95 10 0 32 -16 50 -36z"/>
</g>
</svg>
