<?xml version="1.0" standalone="no"?>
<!DOCTYPE svg PUBLIC "-//W3C//DTD SVG 20010904//EN"
 "http://www.w3.org/TR/2001/REC-SVG-20010904/DTD/svg10.dtd">
<svg version="1.0" xmlns="http://www.w3.org/2000/svg"
 width="192.000000pt" height="192.000000pt" viewBox="0 0 192.000000 192.000000"
 preserveAspectRatio="xMidYMid meet">
<metadata>
Created by potrace 1.16, written by Peter Selinger 2001-2019
</metadata>
<g transform="translate(0.000000,192.000000) scale(0.100000,-0.100000)"
fill="#000000" stroke="none">
811 c445 -92 729 -532 635 -987 -62 -301 -295 -546 -601 -630 -91 -26 -329
-26 -420 0 -291 80 -516 305 -596 596 -26 91 -26 329 0 420 120 433 542 692
982 601z"/>
<path d="M915 1361 c-11 -5 -27 -17 -36 -27 -34 -39 -329 -643 -329 -673 0
-20 10 -42 29 -63 47 -53 81 -47 235 41 71 41 134 74 140 74 7 0 68 -32 136
-72 69 -40 137 -75 151 -78 53 -10 119 49 119 107 0 12 -73 166 -162 342 -130
256 -169 325 -193 339 -32 20 -58 23 -90 10z m100 -422 c63 -124 64 -113 -20
-158 l-43 -23 -56 32 c-31 18 -56 34 -56 36 0 9 110 224 115 224 3 0 30 -50
60 -111z"/>
</g>
</svg>
