<?xml version="1.0" standalone="no"?>
<!DOCTYPE svg PUBLIC "-//W3C//DTD SVG 20010904//EN"
 "http://www.w3.org/TR/2001/REC-SVG-20010904/DTD/svg10.dtd">
<svg version="1.0" xmlns="http://www.w3.org/2000/svg"
 width="192.000000pt" height="192.000000pt" viewBox="0 0 192.000000 192.000000"
 preserveAspectRatio="xMidYMid meet">
<metadata>
Created by potrace 1.16, written by Peter Selinger 2001-2019
</metadata>
<g transform="translate(0.000000,192.000000) scale(0.100000,-0.100000)"
fill="#000000" stroke="none">
811 c445 -92 729 -532 635 -987 -62 -301 -295 -546 -601 -630 -91 -26 -329
-26 -420 0 -291 80 -516 305 -596 596 -26 91 -26 329 0 420 120 433 542 692
982 601z"/>
<path d="M572 1233 c-35 -14 -42 -58 -42 -268 0 -214 7 -254 45 -269 9 -3 132
-6 274 -6 216 0 260 2 279 16 43 30 29 55 -83 148 -79 66 -105 93 -105 111 0
18 26 45 105 111 112 93 126 118 83 148 -19 14 -62 16 -283 15 -143 0 -266 -3
-273 -6z m107 -42 c28 -18 4 -41 -43 -41 -45 0 -65 17 -43 39 13 13 66 14 86
2z m161 -6 c19 -22 3 -35 -45 -35 -24 0 -47 5 -50 10 -11 18 16 40 50 40 18 0
38 -7 45 -15z m158 -12 c3 -21 -1 -23 -43 -23 -33 0 -47 5 -52 16 -8 22 15 35
57 32 28 -2 36 -8 38 -25z m-311 -409 c8 -20 -13 -34 -52 -34 -35 0 -56 16
-48 36 8 21 92 19 100 -2z m158 6 c11 -18 -16 -40 -50 -40 -34 0 -61 22 -50
40 3 5 26 10 50 10 24 0 47 -5 50 -10z m153 -12 c-2 -18 -10 -24 -38 -26 -42
-3 -65 10 -57 32 5 11 19 16 52 16 42 0 46 -2 43 -22z"/>
<path d="M1180 1068 c-97 -58 -105 -66 -108 -96 -2 -22 3 -41 14 -53 22 -25
206 -129 228 -129 9 0 28 11 41 25 24 23 25 30 25 143 0 106 -2 122 -21 146
-31 39 -62 33 -179 -36z"/>
</g>
</svg>
