<?xml version="1.0" standalone="no"?>
<!DOCTYPE svg PUBLIC "-//W3C//DTD SVG 20010904//EN"
 "http://www.w3.org/TR/2001/REC-SVG-20010904/DTD/svg10.dtd">
<svg version="1.0" xmlns="http://www.w3.org/2000/svg"
 width="192.000000pt" height="192.000000pt" viewBox="0 0 192.000000 192.000000"
 preserveAspectRatio="xMidYMid meet">
<metadata>
Created by potrace 1.16, written by Peter Selinger 2001-2019
</metadata>
<g transform="translate(0.000000,192.000000) scale(0.100000,-0.100000)"
fill="#000000" stroke="none">
811 c445 -92 729 -532 635 -987 -62 -301 -295 -546 -601 -630 -91 -26 -329
-26 -420 0 -291 80 -516 305 -596 596 -26 91 -26 329 0 420 120 433 542 692
982 601z"/>
<path d="M861 1365 c-207 -45 -349 -255 -314 -462 24 -135 105 -243 230 -305
64 -31 73 -33 178 -33 97 0 116 3 165 26 79 37 163 118 200 192 120 246 -27
537 -295 586 -72 13 -83 13 -164 -4z m215 -189 c15 -12 19 -27 19 -75 0 -57
-2 -63 -37 -98 l-37 -37 39 -43 c34 -37 40 -49 40 -88 0 -35 -6 -52 -25 -70
-22 -23 -31 -25 -125 -25 -125 0 -140 10 -140 95 0 49 4 59 37 95 l36 41 -36
37 c-33 34 -37 43 -37 92 0 83 11 90 140 90 76 0 112 -4 126 -14z"/>
<path d="M890 1087 c0 -13 13 -36 30 -52 29 -28 30 -28 52 -9 36 29 48 46 48
66 0 16 -9 18 -65 18 -61 0 -65 -1 -65 -23z"/>
<path d="M922 897 c-18 -18 -32 -43 -32 -55 0 -20 5 -22 65 -22 61 0 65 1 65
23 0 13 -14 37 -33 55 l-33 32 -32 -33z"/>
</g>
</svg>
