<?xml version="1.0" standalone="no"?>
<!DOCTYPE svg PUBLIC "-//W3C//DTD SVG 20010904//EN"
 "http://www.w3.org/TR/2001/REC-SVG-20010904/DTD/svg10.dtd">
<svg version="1.0" xmlns="http://www.w3.org/2000/svg"
 width="192.000000pt" height="192.000000pt" viewBox="0 0 192.000000 192.000000"
 preserveAspectRatio="xMidYMid meet">
<metadata>
Created by potrace 1.16, written by Peter Selinger 2001-2019
</metadata>
<g transform="translate(0.000000,192.000000) scale(0.100000,-0.100000)"
fill="#000000" stroke="none">
811 c445 -92 729 -532 635 -987 -62 -301 -295 -546 -601 -630 -91 -26 -329
-26 -420 0 -291 80 -516 305 -596 596 -26 91 -26 329 0 420 120 433 542 692
982 601z"/>
<path d="M766 1369 c-53 -13 -102 -51 -126 -99 -18 -36 -20 -59 -20 -305 0
-246 2 -269 20 -305 47 -92 119 -114 349 -108 142 3 160 6 198 28 24 13 55 41
70 63 l28 40 0 282 0 282 -28 40 c-15 22 -46 50 -70 63 -39 23 -53 25 -212 27
-93 1 -188 -2 -209 -8z m222 -222 c4 -36 37 -54 61 -33 23 21 34 20 56 -4 17
-18 17 -21 1 -45 -21 -32 -7 -65 29 -65 22 0 25 -4 25 -35 0 -31 -3 -35 -25
-35 -36 0 -50 -33 -29 -65 16 -24 16 -27 -1 -45 -22 -24 -33 -25 -56 -4 -24
21 -57 3 -61 -33 -2 -23 -8 -29 -35 -31 -29 -3 -33 0 -33 20 0 47 -27 60 -73
38 -25 -12 -30 -12 -48 6 -19 20 -19 21 -1 45 27 34 13 69 -28 69 -28 0 -30 3
-30 35 0 32 2 35 30 35 41 0 55 35 28 69 -18 24 -18 25 1 45 18 18 23 18 48 6
46 -22 73 -9 73 38 0 20 4 23 33 20 27 -2 33 -8 35 -31z"/>
<path d="M902 1017 c-67 -72 34 -172 103 -102 14 13 25 36 25 50 0 35 -42 75
-78 75 -17 0 -37 -9 -50 -23z"/>
</g>
</svg>
