<?xml version="1.0" standalone="no"?>
<!DOCTYPE svg PUBLIC "-//W3C//DTD SVG 20010904//EN"
 "http://www.w3.org/TR/2001/REC-SVG-20010904/DTD/svg10.dtd">
<svg version="1.0" xmlns="http://www.w3.org/2000/svg"
 width="192.000000pt" height="192.000000pt" viewBox="0 0 192.000000 192.000000"
 preserveAspectRatio="xMidYMid meet">
<metadata>
Created by potrace 1.16, written by Peter Selinger 2001-2019
</metadata>
<g transform="translate(0.000000,192.000000) scale(0.100000,-0.100000)"
fill="#000000" stroke="none">
811 c445 -92 729 -532 635 -987 -62 -301 -295 -546 -601 -630 -91 -26 -329
-26 -420 0 -291 80 -516 305 -596 596 -26 91 -26 329 0 420 120 433 542 692
982 601z"/>
<path d="M870 1369 c-208 -41 -359 -260 -321 -467 24 -133 117 -253 238 -310
52 -24 69 -27 168 -27 101 0 115 2 170 29 77 38 163 124 201 201 27 55 29 69
29 170 0 104 -2 114 -32 175 -85 173 -268 265 -453 229z m121 -187 c14 -9 67
-53 117 -96 102 -89 115 -116 62 -135 l-30 -10 0 -85 c0 -94 -8 -106 -67 -106
-46 0 -57 14 -63 77 l-5 58 -49 3 c-58 4 -66 -4 -66 -70 0 -53 -16 -68 -69
-68 -50 0 -61 21 -61 116 0 77 -2 84 -20 84 -25 0 -41 30 -29 52 10 18 183
168 214 186 27 15 36 15 66 -6z"/>
<path d="M907 1082 c-23 -25 -21 -68 3 -92 27 -27 56 -25 85 5 29 28 31 51 9
83 -19 28 -74 30 -97 4z"/>
</g>
</svg>
