<?xml version="1.0" standalone="no"?>
<!DOCTYPE svg PUBLIC "-//W3C//DTD SVG 20010904//EN"
 "http://www.w3.org/TR/2001/REC-SVG-20010904/DTD/svg10.dtd">
<svg version="1.0" xmlns="http://www.w3.org/2000/svg"
 width="192.000000pt" height="192.000000pt" viewBox="0 0 192.000000 192.000000"
 preserveAspectRatio="xMidYMid meet">
<metadata>
Created by potrace 1.16, written by Peter Selinger 2001-2019
</metadata>
<g transform="translate(0.000000,192.000000) scale(0.100000,-0.100000)"
fill="#000000" stroke="none">
811 c445 -92 729 -532 635 -987 -62 -301 -295 -546 -601 -630 -91 -26 -329
-26 -420 0 -291 80 -516 305 -596 596 -26 91 -26 329 0 420 120 433 542 692
982 601z"/>
<path d="M798 1349 c-36 -20 -19 -79 23 -79 49 0 62 57 18 80 -21 12 -20 12
-41 -1z"/>
<path d="M912 1345 c-12 -9 -22 -24 -22 -34 0 -34 21 -41 121 -41 107 0 126 9
115 55 -6 24 -9 25 -85 25 -44 0 -85 2 -93 5 -7 3 -23 -2 -36 -10z"/>
<path d="M672 1228 c-15 -15 -15 -51 0 -66 7 -7 43 -12 93 -12 85 0 105 8 105
45 0 37 -20 45 -105 45 -50 0 -86 -5 -93 -12z"/>
<path d="M910 1225 c-8 -9 -10 -26 -6 -42 4 -16 7 -35 6 -43 0 -8 -1 -33 -3
-55 -2 -38 -1 -40 30 -43 42 -4 57 22 40 67 -8 23 -9 39 0 60 19 52 -34 96
-67 56z"/>
<path d="M1022 1228 c-31 -31 0 -78 53 -78 32 0 65 21 65 41 0 32 -22 49 -63
49 -24 0 -48 -5 -55 -12z"/>
<path d="M1176 1224 c-21 -20 -20 -37 2 -57 33 -30 72 -15 72 28 0 42 -44 59
-74 29z"/>
<path d="M612 1114 c-38 -26 -22 -74 25 -74 24 0 48 33 39 55 -10 26 -41 35
-64 19z"/>
<path d="M719 1111 c-21 -16 -22 -22 -11 -45 11 -24 16 -26 76 -26 71 0 92 14
82 54 -10 39 -106 51 -147 17z"/>
<path d="M1032 1114 c-24 -17 -29 -43 -10 -62 17 -17 269 -17 286 0 19 19 14
45 -10 62 -17 12 -49 16 -133 16 -84 0 -116 -4 -133 -16z"/>
<path d="M582 998 c-16 -16 -15 -53 2 -67 9 -8 70 -11 196 -9 171 3 183 4 196
23 12 18 11 24 -2 43 -15 21 -21 22 -198 22 -128 0 -186 -4 -194 -12z"/>
<path d="M1020 994 c-19 -21 -1 -68 26 -72 23 -3 54 21 54 43 0 19 -28 45 -49
45 -10 0 -24 -7 -31 -16z"/>
<path d="M1134 985 c-16 -24 -16 -27 1 -45 15 -17 31 -20 96 -20 79 0 109 12
109 45 0 33 -30 45 -110 45 -74 0 -81 -2 -96 -25z"/>
<path d="M875 891 c-48 -6 -50 -8 -53 -39 -4 -42 21 -52 131 -52 105 0 126 6
134 38 13 53 -60 71 -212 53z"/>
<path d="M602 878 c-19 -19 -14 -45 10 -62 19 -13 25 -14 43 -2 25 16 31 42
15 61 -15 18 -52 19 -68 3z"/>
<path d="M708 864 c-11 -23 -10 -29 11 -45 21 -17 26 -18 45 -6 41 27 27 77
-20 77 -17 0 -28 -9 -36 -26z"/>
<path d="M1127 883 c-4 -3 -7 -19 -7 -35 0 -35 31 -50 72 -34 20 7 36 7 57 -1
52 -19 96 34 55 68 -12 10 -25 10 -54 2 -21 -5 -45 -6 -52 -2 -16 10 -62 12
-71 2z"/>
<path d="M673 769 c-18 -18 -16 -54 3 -70 12 -10 22 -10 50 0 28 10 41 10 65
0 27 -11 33 -10 52 9 18 18 19 25 9 48 -11 23 -17 25 -45 20 -41 -9 -66 -9
-97 -1 -15 4 -30 1 -37 -6z"/>
<path d="M888 755 c-9 -21 -8 -28 7 -45 17 -18 31 -20 175 -20 164 0 180 4
180 45 0 41 -16 45 -187 45 l-163 0 -12 -25z"/>
<path d="M810 661 c-21 -6 -25 -13 -25 -41 l0 -35 80 -7 c96 -9 132 -3 145 23
12 22 0 53 -26 63 -21 8 -142 6 -174 -3z"/>
<path d="M1062 654 c-38 -26 -22 -74 24 -74 45 0 58 50 19 76 -18 12 -24 11
-43 -2z"/>
</g>
</svg>
