<?xml version="1.0" standalone="no"?>
<!DOCTYPE svg PUBLIC "-//W3C//DTD SVG 20010904//EN"
 "http://www.w3.org/TR/2001/REC-SVG-20010904/DTD/svg10.dtd">
<svg version="1.0" xmlns="http://www.w3.org/2000/svg"
 width="192.000000pt" height="192.000000pt" viewBox="0 0 192.000000 192.000000"
 preserveAspectRatio="xMidYMid meet">
<metadata>
Created by potrace 1.16, written by Peter Selinger 2001-2019
</metadata>
<g transform="translate(0.000000,192.000000) scale(0.100000,-0.100000)"
fill="#000000" stroke="none">
811 c445 -92 729 -532 635 -987 -62 -301 -295 -546 -601 -630 -91 -26 -329
-26 -420 0 -291 80 -516 305 -596 596 -26 91 -26 329 0 420 120 433 542 692
982 601z"/>
<path d="M900 1379 c-29 -10 -78 -23 -109 -29 -41 -7 -62 -17 -80 -37 -12 -16
-31 -37 -40 -48 -9 -11 -34 -34 -55 -50 -32 -26 -40 -40 -48 -85 -5 -30 -19
-81 -30 -112 l-21 -58 21 -52 c12 -29 24 -75 28 -102 6 -45 14 -57 94 -137 76
-75 93 -88 131 -94 24 -3 71 -16 105 -28 l61 -21 54 22 c30 11 76 24 104 28
49 7 78 27 115 79 8 11 34 35 57 53 32 25 44 42 48 70 3 20 15 65 26 100 24
78 24 94 -1 165 -11 31 -20 71 -20 88 0 25 -14 45 -75 106 -41 42 -75 79 -75
83 0 11 -47 28 -100 36 -25 3 -54 11 -64 16 -45 24 -73 26 -126 7z m-116 -360
c72 -57 -15 -167 -91 -114 -29 20 -37 59 -18 94 23 46 66 54 109 20z m221 -4
c14 -13 25 -36 25 -50 0 -34 -42 -75 -76 -75 -37 0 -74 36 -74 72 0 36 40 78
75 78 14 0 37 -11 50 -25z m209 4 c19 -15 26 -30 26 -54 0 -84 -107 -104 -139
-26 -10 24 -10 34 3 59 24 47 66 55 110 21z"/>
</g>
</svg>
