<?xml version="1.0" standalone="no"?>
<!DOCTYPE svg PUBLIC "-//W3C//DTD SVG 20010904//EN"
 "http://www.w3.org/TR/2001/REC-SVG-20010904/DTD/svg10.dtd">
<svg version="1.0" xmlns="http://www.w3.org/2000/svg"
 width="192.000000pt" height="192.000000pt" viewBox="0 0 192.000000 192.000000"
 preserveAspectRatio="xMidYMid meet">
<metadata>
Created by potrace 1.16, written by Peter Selinger 2001-2019
</metadata>
<g transform="translate(0.000000,192.000000) scale(0.100000,-0.100000)"
fill="#000000" stroke="none">
811 c445 -92 729 -532 635 -987 -62 -301 -295 -546 -601 -630 -91 -26 -329
-26 -420 0 -291 80 -516 305 -596 596 -26 91 -26 329 0 420 120 433 542 692
982 601z"/>
<path d="M916 1365 c-9 -9 -21 -34 -27 -55 -7 -22 -17 -40 -23 -40 -33 0 -136
-63 -179 -108 -71 -77 -90 -128 -91 -238 l-1 -92 -40 -18 c-30 -14 -41 -26
-43 -46 -5 -40 27 -54 83 -35 65 23 74 7 44 -78 -27 -75 -21 -100 27 -100 24
0 32 7 49 43 11 23 24 40 30 38 114 -52 140 -58 221 -54 62 3 94 11 135 31 29
14 56 24 60 22 4 -3 10 -17 14 -32 9 -38 23 -53 49 -53 48 0 57 36 28 114
l-19 48 30 55 c23 43 31 74 36 134 l6 79 45 22 c86 44 56 116 -35 85 l-39 -14
-30 45 c-38 58 -113 116 -175 137 -43 14 -51 21 -62 53 -21 67 -59 90 -93 57z
m78 -284 c20 -52 35 -95 34 -96 -6 -6 -181 -65 -184 -63 -1 2 21 63 49 136 27
73 54 129 58 125 4 -4 23 -50 43 -102z m-218 -67 c-35 -91 -59 -140 -70 -142
-11 -3 -16 4 -18 25 -5 98 18 159 84 218 28 25 52 44 54 42 2 -2 -21 -66 -50
-143z m359 91 c25 -24 45 -49 45 -55 0 -12 -48 -32 -60 -25 -4 3 -15 24 -23
48 -8 23 -18 50 -22 60 -13 31 14 19 60 -28z m75 -179 c0 -34 -11 -86 -19 -86
-4 0 -14 20 -23 44 -16 43 -16 44 5 54 33 16 37 14 37 -12z m-116 -110 c15
-41 25 -80 21 -86 -13 -22 -91 -52 -145 -57 -62 -6 -137 13 -178 45 -22 17
-23 20 -10 51 13 31 23 37 143 81 72 25 133 45 136 44 3 -2 18 -37 33 -78z"/>
</g>
</svg>
