<?xml version="1.0" standalone="no"?>
<!DOCTYPE svg PUBLIC "-//W3C//DTD SVG 20010904//EN"
 "http://www.w3.org/TR/2001/REC-SVG-20010904/DTD/svg10.dtd">
<svg version="1.0" xmlns="http://www.w3.org/2000/svg"
 width="192.000000pt" height="192.000000pt" viewBox="0 0 192.000000 192.000000"
 preserveAspectRatio="xMidYMid meet">
<metadata>
Created by potrace 1.16, written by Peter Selinger 2001-2019
</metadata>
<g transform="translate(0.000000,192.000000) scale(0.100000,-0.100000)"
fill="#000000" stroke="none">
811 c445 -92 729 -532 635 -987 -62 -301 -295 -546 -601 -630 -91 -26 -329
-26 -420 0 -291 80 -516 305 -596 596 -26 91 -26 329 0 420 120 433 542 692
982 601z"/>
<path d="M794 1351 c-11 -5 -64 -56 -117 -113 l-97 -103 0 -174 0 -174 107
-108 107 -109 161 0 c114 0 166 4 177 13 8 6 59 58 112 115 l97 102 -3 170 -3
170 -108 107 -107 108 -153 2 c-83 1 -161 -2 -173 -6z m54 -388 l3 -123 -31 0
c-27 0 -30 3 -30 30 0 20 -5 30 -15 30 -10 0 -15 -10 -15 -30 0 -27 -3 -30
-30 -30 l-30 0 0 125 0 126 73 -3 72 -3 3 -122z m182 2 l0 -125 -75 0 -75 0 0
125 0 125 75 0 75 0 0 -125z m184 109 c8 -20 8 -138 0 -158 -4 -11 -19 -16
-50 -16 -42 0 -44 -1 -44 -30 0 -27 -3 -30 -30 -30 l-30 0 0 125 0 125 74 0
c58 0 75 -3 80 -16z"/>
<path d="M760 995 c0 -24 5 -35 15 -35 10 0 15 11 15 35 0 24 -5 35 -15 35
-10 0 -15 -11 -15 -35z"/>
<path d="M942 1013 c5 -25 28 -28 28 -4 0 12 -6 21 -16 21 -9 0 -14 -7 -12
-17z"/>
<path d="M940 915 c0 -8 7 -15 15 -15 8 0 15 7 15 15 0 8 -7 15 -15 15 -8 0
-15 -7 -15 -15z"/>
<path d="M1120 995 c0 -29 3 -36 18 -33 11 2 17 13 17 33 0 20 -6 31 -17 33
-15 3 -18 -4 -18 -33z"/>
</g>
</svg>
