<?xml version="1.0" standalone="no"?>
<!DOCTYPE svg PUBLIC "-//W3C//DTD SVG 20010904//EN"
 "http://www.w3.org/TR/2001/REC-SVG-20010904/DTD/svg10.dtd">
<svg version="1.0" xmlns="http://www.w3.org/2000/svg"
 width="192.000000pt" height="192.000000pt" viewBox="0 0 192.000000 192.000000"
 preserveAspectRatio="xMidYMid meet">
<metadata>
Created by potrace 1.16, written by Peter Selinger 2001-2019
</metadata>
<g transform="translate(0.000000,192.000000) scale(0.100000,-0.100000)"
fill="#000000" stroke="none">
811 c445 -92 729 -532 635 -987 -62 -301 -295 -546 -601 -630 -91 -26 -329
-26 -420 0 -291 80 -516 305 -596 596 -26 91 -26 329 0 420 120 433 542 692
982 601z"/>
<path d="M900 1332 c-30 -16 -58 -60 -189 -293 -165 -293 -178 -328 -147 -388
30 -57 66 -71 192 -71 132 0 134 2 157 104 21 91 13 106 -53 106 -32 0 -50 4
-50 12 0 19 134 258 145 258 12 0 145 -236 145 -256 0 -10 -14 -14 -50 -14
-66 0 -73 -14 -53 -105 23 -103 26 -105 155 -105 123 0 157 11 188 63 41 66
33 88 -133 386 -84 151 -164 283 -178 293 -38 28 -88 32 -129 10z"/>
</g>
</svg>
