<?xml version="1.0" standalone="no"?>
<!DOCTYPE svg PUBLIC "-//W3C//DTD SVG 20010904//EN"
 "http://www.w3.org/TR/2001/REC-SVG-20010904/DTD/svg10.dtd">
<svg version="1.0" xmlns="http://www.w3.org/2000/svg"
 width="192.000000pt" height="192.000000pt" viewBox="0 0 192.000000 192.000000"
 preserveAspectRatio="xMidYMid meet">
<metadata>
Created by potrace 1.16, written by Peter Selinger 2001-2019
</metadata>
<g transform="translate(0.000000,192.000000) scale(0.100000,-0.100000)"
fill="#000000" stroke="none">
811 c445 -92 729 -532 635 -987 -62 -301 -295 -546 -601 -630 -91 -26 -329
-26 -420 0 -291 80 -516 305 -596 596 -26 91 -26 329 0 420 120 433 542 692
982 601z"/>
<path d="M893 1369 c-78 -10 -176 -60 -232 -118 -164 -168 -156 -423 18 -583
85 -79 147 -102 276 -103 92 0 105 3 167 32 90 42 160 110 201 192 30 62 32
72 32 176 0 99 -3 116 -27 168 -33 70 -111 155 -175 190 -76 41 -173 58 -260
46z m214 -264 c116 -35 177 -116 153 -204 -20 -75 -83 -96 -205 -66 -77 18
-144 18 -220 0 -110 -26 -171 -13 -194 42 -46 116 19 201 183 239 73 17 208
11 283 -11z"/>
<path d="M730 985 c-11 -28 1 -69 22 -77 41 -16 80 40 58 82 -16 30 -68 27
-80 -5z"/>
<path d="M1082 998 c-20 -20 -14 -65 10 -82 19 -13 25 -14 43 -2 23 16 32 61
14 82 -14 17 -51 18 -67 2z"/>
</g>
</svg>
