<?xml version="1.0" standalone="no"?>
<!DOCTYPE svg PUBLIC "-//W3C//DTD SVG 20010904//EN"
 "http://www.w3.org/TR/2001/REC-SVG-20010904/DTD/svg10.dtd">
<svg version="1.0" xmlns="http://www.w3.org/2000/svg"
 width="192.000000pt" height="192.000000pt" viewBox="0 0 192.000000 192.000000"
 preserveAspectRatio="xMidYMid meet">
<metadata>
Created by potrace 1.16, written by Peter Selinger 2001-2019
</metadata>
<g transform="translate(0.000000,192.000000) scale(0.100000,-0.100000)"
fill="#000000" stroke="none">
811 c445 -92 729 -532 635 -987 -62 -301 -295 -546 -601 -630 -91 -26 -329
-26 -420 0 -291 80 -516 305 -596 596 -26 91 -26 329 0 420 120 433 542 692
982 601z"/>
<path d="M865 1340 c-28 -16 -90 -39 -142 -50 -127 -29 -133 -37 -133 -184 0
-199 47 -334 150 -437 77 -78 128 -103 210 -104 82 0 142 28 214 99 97 98 143
217 153 402 9 177 -3 196 -147 228 -40 9 -98 30 -127 46 -68 39 -113 39 -178
0z m253 -252 c7 -7 12 -19 12 -27 0 -24 -201 -221 -225 -221 -31 0 -107 82
-103 111 5 35 47 37 78 4 l24 -25 87 85 c87 85 105 95 127 73z"/>
</g>
</svg>
