<?xml version="1.0" standalone="no"?>
<!DOCTYPE svg PUBLIC "-//W3C//DTD SVG 20010904//EN"
 "http://www.w3.org/TR/2001/REC-SVG-20010904/DTD/svg10.dtd">
<svg version="1.0" xmlns="http://www.w3.org/2000/svg"
 width="192.000000pt" height="192.000000pt" viewBox="0 0 192.000000 192.000000"
 preserveAspectRatio="xMidYMid meet">
<metadata>
Created by potrace 1.16, written by Peter Selinger 2001-2019
</metadata>
<g transform="translate(0.000000,192.000000) scale(0.100000,-0.100000)"
fill="#000000" stroke="none">
811 c445 -92 729 -532 635 -987 -62 -301 -295 -546 -601 -630 -91 -26 -329
-26 -420 0 -291 80 -516 305 -596 596 -26 91 -26 329 0 420 120 433 542 692
982 601z"/>
<path d="M552 1348 c-8 -8 -12 -47 -12 -110 l0 -98 -39 0 c-32 0 -41 -4 -46
-21 -6 -17 6 -34 56 -85 35 -35 71 -64 80 -64 9 0 44 29 78 65 54 56 61 67 51
85 -8 14 -21 20 -45 20 l-35 0 0 98 c0 106 -7 122 -50 122 -14 0 -31 -5 -38
-12z"/>
<path d="M880 1331 c-6 -12 -10 -93 -10 -195 l0 -176 -53 0 c-64 0 -97 -20
-97 -59 0 -21 22 -49 104 -129 136 -134 130 -134 264 2 107 109 118 130 82
166 -15 15 -33 20 -75 20 l-55 0 0 176 c0 102 -4 183 -10 195 -9 16 -22 19
-75 19 -53 0 -66 -3 -75 -19z"/>
<path d="M1287 964 c-4 -4 -7 -56 -7 -116 l0 -108 -33 0 c-34 0 -57 -15 -57
-36 0 -17 122 -134 140 -134 9 0 41 26 73 58 77 77 76 112 -3 112 l-29 0 -3
113 -3 112 -35 3 c-20 2 -39 0 -43 -4z"/>
</g>
</svg>
