<?xml version="1.0" standalone="no"?>
<!DOCTYPE svg PUBLIC "-//W3C//DTD SVG 20010904//EN"
 "http://www.w3.org/TR/2001/REC-SVG-20010904/DTD/svg10.dtd">
<svg version="1.0" xmlns="http://www.w3.org/2000/svg"
 width="192.000000pt" height="192.000000pt" viewBox="0 0 192.000000 192.000000"
 preserveAspectRatio="xMidYMid meet">
<metadata>
Created by potrace 1.16, written by Peter Selinger 2001-2019
</metadata>
<g transform="translate(0.000000,192.000000) scale(0.100000,-0.100000)"
fill="#000000" stroke="none">
811 c445 -92 729 -532 635 -987 -62 -301 -295 -546 -601 -630 -91 -26 -329
-26 -420 0 -291 80 -516 305 -596 596 -26 91 -26 329 0 420 120 433 542 692
982 601z"/>
<path d="M742 1354 c-62 -23 -154 -112 -183 -176 -33 -77 -32 -183 2 -258 36
-77 80 -124 150 -159 33 -16 68 -40 77 -52 16 -19 20 -20 33 -7 8 9 46 21 83
27 83 15 114 30 173 84 73 67 96 116 101 216 3 52 11 95 20 109 14 21 13 23
-15 32 -17 6 -37 25 -48 46 -23 44 -81 96 -137 125 -56 30 -192 36 -256 13z
m360 -251 c26 -26 48 -54 48 -62 0 -9 -23 8 -55 39 -52 51 -65 70 -48 70 4 0
29 -21 55 -47z m38 -133 c0 -8 -38 23 -84 69 -47 47 -82 89 -79 94 7 12 163
-143 163 -163z m0 160 c0 -5 -2 -10 -4 -10 -3 0 -8 5 -11 10 -3 6 -1 10 4 10
6 0 11 -4 11 -10z m-108 -107 c78 -78 103 -113 81 -113 -10 0 -193 183 -193
192 0 23 34 -1 112 -79z m-37 -43 c54 -54 96 -103 92 -107 -8 -7 -207 185
-207 199 0 19 22 2 115 -92z m-37 -43 c56 -57 99 -106 95 -110 -7 -8 -213 191
-213 205 0 19 22 2 118 -95z m-16 -66 c37 -35 64 -69 61 -74 -6 -10 -193 171
-193 187 0 11 31 -16 132 -113z m-57 -21 c44 -44 73 -80 65 -80 -15 0 -160
138 -160 152 0 19 20 3 95 -72z m-6 -89 c-14 -4 -89 69 -89 88 0 9 21 -5 50
-34 28 -28 46 -51 39 -54z"/>
<path d="M1220 1125 c-10 -13 -10 -19 5 -35 21 -23 36 -25 53 -8 9 9 7 17 -10
35 -25 27 -31 28 -48 8z"/>
<path d="M1293 1053 c-18 -7 -16 -24 5 -51 16 -20 20 -21 37 -8 18 13 18 15 2
40 -18 26 -22 28 -44 19z"/>
<path d="M1325 949 c-13 -19 4 -59 25 -59 16 0 20 7 20 35 0 28 -4 35 -19 35
-11 0 -23 -5 -26 -11z"/>
<path d="M1326 844 c-11 -28 -6 -52 11 -58 20 -8 33 10 33 47 0 20 -5 27 -19
27 -10 0 -22 -7 -25 -16z"/>
<path d="M1287 736 c-12 -17 -13 -26 -4 -35 17 -17 32 -13 46 13 24 45 -14 65
-42 22z"/>
<path d="M831 677 c-8 -11 -5 -19 14 -37 24 -23 26 -23 43 -6 16 16 16 18 -7
37 -28 23 -35 23 -50 6z"/>
<path d="M1217 662 c-15 -16 -15 -21 -2 -38 14 -19 15 -18 41 7 14 15 23 32
20 38 -11 17 -41 13 -59 -7z"/>
<path d="M917 623 c-14 -13 -6 -30 18 -41 35 -16 42 -15 48 8 7 28 -45 54 -66
33z"/>
<path d="M1133 620 c-25 -10 -27 -18 -14 -38 5 -9 17 -11 35 -6 31 7 38 17 30
38 -7 18 -18 19 -51 6z"/>
<path d="M1014 595 c-9 -23 9 -37 42 -33 21 2 29 8 29 23 0 26 -62 35 -71 10z"/>
</g>
</svg>
