<?xml version="1.0" standalone="no"?>
<!DOCTYPE svg PUBLIC "-//W3C//DTD SVG 20010904//EN"
 "http://www.w3.org/TR/2001/REC-SVG-20010904/DTD/svg10.dtd">
<svg version="1.0" xmlns="http://www.w3.org/2000/svg"
 width="192.000000pt" height="192.000000pt" viewBox="0 0 192.000000 192.000000"
 preserveAspectRatio="xMidYMid meet">
<metadata>
Created by potrace 1.16, written by Peter Selinger 2001-2019
</metadata>
<g transform="translate(0.000000,192.000000) scale(0.100000,-0.100000)"
fill="#000000" stroke="none">
811 c445 -92 729 -532 635 -987 -62 -301 -295 -546 -601 -630 -91 -26 -329
-26 -420 0 -291 80 -516 305 -596 596 -26 91 -26 329 0 420 120 433 542 692
982 601z"/>
<path d="M860 1345 c-11 -13 -5 -15 48 -15 50 0 63 -3 72 -19 15 -29 12 -132
-5 -181 -8 -23 -15 -48 -15 -56 0 -7 28 -47 63 -88 58 -71 64 -76 102 -76 41
0 145 -21 178 -35 16 -7 17 4 17 147 0 140 -2 158 -22 198 -14 26 -41 57 -66
75 -40 27 -51 30 -150 33 -69 3 -114 9 -127 18 -26 18 -79 18 -95 -1z"/>
<path d="M707 1320 c-46 -14 -98 -60 -118 -104 -16 -36 -19 -68 -19 -263 0
-123 3 -223 7 -223 4 0 19 11 33 25 14 14 61 44 105 67 l79 43 43 97 42 97
-25 54 c-25 57 -35 140 -21 190 l7 27 -52 -1 c-29 0 -66 -5 -81 -9z"/>
<path d="M899 1275 c-2 -39 0 -64 7 -95 6 -23 7 -24 14 -5 14 33 11 90 -5 111
-14 18 -14 18 -16 -11z"/>
<path d="M902 940 c-12 -29 -21 -55 -19 -57 4 -3 108 15 114 21 2 1 -14 22
-35 46 l-38 43 -22 -53z"/>
<path d="M1318 797 c-3 -68 3 -82 22 -48 14 28 12 74 -4 96 -13 18 -14 13 -18
-48z"/>
<path d="M1000 833 c-14 -2 -57 -10 -95 -18 l-71 -15 -33 -61 c-18 -33 -48
-80 -66 -104 -27 -35 -31 -45 -18 -49 8 -3 111 -6 229 -6 229 0 261 5 312 53
21 19 52 68 52 80 0 3 -22 5 -49 5 -58 0 -73 7 -147 72 -31 28 -64 49 -73 49
-9 -1 -27 -3 -41 -6z"/>
<path d="M1193 815 c15 -14 37 -25 48 -25 10 0 22 -1 26 -2 3 -2 8 3 11 10 4
14 -56 42 -90 42 -23 -1 -22 -1 5 -25z"/>
<path d="M660 702 l-49 -48 -18 33 c-17 33 -17 33 -30 10 -19 -34 -15 -63 13
-96 26 -31 60 -39 98 -25 23 9 20 17 -14 37 l-30 18 33 28 c36 33 74 91 58 91
-6 0 -33 -22 -61 -48z"/>
</g>
</svg>
