<?xml version="1.0" standalone="no"?>
<!DOCTYPE svg PUBLIC "-//W3C//DTD SVG 20010904//EN"
 "http://www.w3.org/TR/2001/REC-SVG-20010904/DTD/svg10.dtd">
<svg version="1.0" xmlns="http://www.w3.org/2000/svg"
 width="192.000000pt" height="192.000000pt" viewBox="0 0 192.000000 192.000000"
 preserveAspectRatio="xMidYMid meet">
<metadata>
Created by potrace 1.16, written by Peter Selinger 2001-2019
</metadata>
<g transform="translate(0.000000,192.000000) scale(0.100000,-0.100000)"
fill="#000000" stroke="none">
811 c445 -92 729 -532 635 -987 -62 -301 -295 -546 -601 -630 -91 -26 -329
-26 -420 0 -291 80 -516 305 -596 596 -26 91 -26 329 0 420 120 433 542 692
982 601z"/>
<path d="M985 1261 c-38 -10 -71 -27 -113 -58 -23 -17 -49 -26 -86 -28 -92 -6
-172 -59 -212 -142 -65 -131 -9 -285 126 -347 41 -19 63 -21 235 -21 178 0
193 2 243 24 69 31 145 114 167 182 47 141 -19 300 -151 365 -57 28 -154 40
-209 25z m148 -75 c155 -56 208 -250 101 -375 -47 -54 -122 -85 -195 -78 -30
3 -71 13 -90 22 -40 21 -179 153 -179 170 0 7 7 18 15 25 13 11 27 2 88 -57
86 -84 121 -103 184 -103 62 0 110 26 147 78 24 33 29 51 29 97 0 101 -76 175
-178 175 -27 -1 -61 -7 -75 -15 -37 -21 -70 -19 -70 4 0 54 134 88 223 57z
m-240 -90 c18 -8 59 -41 91 -74 51 -52 57 -63 46 -76 -20 -25 -32 -20 -90 39
-64 65 -102 81 -158 66 -43 -12 -75 -42 -91 -84 -15 -39 -14 -63 6 -104 22
-47 67 -73 124 -73 25 0 54 -6 64 -14 17 -12 17 -16 5 -31 -24 -29 -129 -17
-181 20 -98 70 -112 215 -27 291 58 53 143 69 211 40z"/>
</g>
</svg>
