<?xml version="1.0" standalone="no"?>
<!DOCTYPE svg PUBLIC "-//W3C//DTD SVG 20010904//EN"
 "http://www.w3.org/TR/2001/REC-SVG-20010904/DTD/svg10.dtd">
<svg version="1.0" xmlns="http://www.w3.org/2000/svg"
 width="192.000000pt" height="192.000000pt" viewBox="0 0 192.000000 192.000000"
 preserveAspectRatio="xMidYMid meet">
<metadata>
Created by potrace 1.16, written by Peter Selinger 2001-2019
</metadata>
<g transform="translate(0.000000,192.000000) scale(0.100000,-0.100000)"
fill="#000000" stroke="none">
811 c445 -92 729 -532 635 -987 -62 -301 -295 -546 -601 -630 -91 -26 -329
-26 -420 0 -291 80 -516 305 -596 596 -26 91 -26 329 0 420 120 433 542 692
982 601z"/>
<path d="M695 1321 c-49 -22 -91 -69 -106 -119 -7 -24 -9 -116 -7 -258 l3
-221 28 -40 c15 -22 46 -50 70 -64 41 -23 47 -24 273 -24 l231 0 48 30 c48 30
77 71 91 128 l7 29 -31 -16 c-36 -18 -62 -12 -62 15 0 19 -1 19 -27 0 -45 -32
-78 -36 -103 -11 -21 21 -23 21 -67 6 -33 -11 -84 -16 -170 -16 -140 0 -133
-5 -111 89 10 46 23 62 155 192 l143 143 55 -54 55 -55 -142 -143 c-79 -79
-152 -148 -163 -153 -37 -17 138 -2 182 16 36 14 42 21 48 55 9 55 40 92 74
88 46 -5 40 -43 -14 -95 -43 -40 -46 -46 -32 -60 21 -21 54 -11 103 31 46 40
57 38 41 -4 -15 -39 -3 -48 31 -23 l27 20 3 179 c3 195 -3 235 -45 285 -53 62
-83 69 -328 69 -192 0 -225 -3 -260 -19z"/>
<path d="M1141 911 c-21 -21 -38 -68 -28 -78 9 -8 67 53 67 71 0 25 -18 28
-39 7z"/>
</g>
</svg>
