<?xml version="1.0" standalone="no"?>
<!DOCTYPE svg PUBLIC "-//W3C//DTD SVG 20010904//EN"
 "http://www.w3.org/TR/2001/REC-SVG-20010904/DTD/svg10.dtd">
<svg version="1.0" xmlns="http://www.w3.org/2000/svg"
 width="192.000000pt" height="192.000000pt" viewBox="0 0 192.000000 192.000000"
 preserveAspectRatio="xMidYMid meet">
<metadata>
Created by potrace 1.16, written by Peter Selinger 2001-2019
</metadata>
<g transform="translate(0.000000,192.000000) scale(0.100000,-0.100000)"
fill="#000000" stroke="none">
811 c445 -92 729 -532 635 -987 -62 -301 -295 -546 -601 -630 -91 -26 -329
-26 -420 0 -291 80 -516 305 -596 596 -26 91 -26 329 0 420 120 433 542 692
982 601z"/>
<path d="M695 1321 c-49 -22 -91 -69 -106 -119 -7 -24 -9 -116 -7 -258 l3
-221 28 -40 c15 -22 46 -50 70 -64 41 -23 47 -24 272 -24 l230 0 47 27 c25 15
57 45 70 65 22 36 23 48 26 258 4 238 -1 273 -45 326 -53 62 -83 69 -328 69
-192 0 -225 -3 -260 -19z m192 -162 c15 -5 31 -16 35 -22 15 -24 9 -187 -8
-216 -15 -26 -15 -32 0 -83 9 -31 16 -59 16 -62 0 -3 -16 -6 -35 -6 -19 0 -35
5 -35 11 0 6 -7 35 -16 65 -22 76 -42 72 -46 -8 -3 -63 -3 -63 -35 -66 l-33
-3 0 200 0 201 64 0 c36 0 77 -5 93 -11z m163 -159 l5 -165 30 0 30 0 3 168 2
167 30 0 30 0 0 -182 c0 -218 0 -218 -95 -218 -100 0 -99 -1 -103 200 -2 95
-1 179 2 187 4 9 16 13 33 11 l28 -3 5 -165z"/>
<path d="M800 1035 l0 -65 30 0 30 0 0 65 0 65 -30 0 -30 0 0 -65z"/>
</g>
</svg>
