<?xml version="1.0" standalone="no"?>
<!DOCTYPE svg PUBLIC "-//W3C//DTD SVG 20010904//EN"
 "http://www.w3.org/TR/2001/REC-SVG-20010904/DTD/svg10.dtd">
<svg version="1.0" xmlns="http://www.w3.org/2000/svg"
 width="192.000000pt" height="192.000000pt" viewBox="0 0 192.000000 192.000000"
 preserveAspectRatio="xMidYMid meet">
<metadata>
Created by potrace 1.16, written by Peter Selinger 2001-2019
</metadata>
<g transform="translate(0.000000,192.000000) scale(0.100000,-0.100000)"
fill="#000000" stroke="none">
811 c445 -92 729 -532 635 -987 -62 -301 -295 -546 -601 -630 -91 -26 -329
-26 -420 0 -291 80 -516 305 -596 596 -26 91 -26 329 0 420 120 433 542 692
982 601z"/>
<path d="M717 1330 c-46 -14 -98 -60 -118 -104 -16 -36 -19 -68 -19 -252 0
-264 11 -302 103 -355 41 -23 48 -24 272 -24 224 0 231 1 272 24 92 53 103 91
103 355 0 200 -1 214 -22 256 -14 26 -41 57 -66 75 l-44 30 -226 2 c-125 1
-240 -2 -255 -7z m297 -99 c22 -23 38 -30 81 -33 72 -6 85 -19 85 -82 0 -46 4
-56 35 -86 24 -23 35 -43 35 -62 0 -18 -13 -42 -35 -67 -29 -31 -35 -46 -35
-81 0 -59 -21 -80 -78 -80 -37 0 -51 -6 -83 -35 -23 -20 -50 -35 -64 -35 -14
0 -41 15 -64 35 -31 29 -46 35 -81 35 -59 0 -80 21 -80 78 0 37 -6 51 -35 83
-22 25 -35 49 -35 67 0 19 11 39 35 62 31 30 35 40 35 86 0 63 13 76 85 82 43
3 59 10 81 33 19 20 38 29 59 29 21 0 40 -9 59 -29z"/>
<path d="M935 1210 c-4 -6 5 -10 20 -10 15 0 24 4 20 10 -3 6 -12 10 -20 10
-8 0 -17 -4 -20 -10z"/>
<path d="M822 1097 l-52 -53 0 -80 0 -80 53 -52 53 -52 80 0 80 0 52 53 52 53
0 80 0 80 -53 52 -53 52 -80 0 -80 0 -52 -53z m210 -54 c13 -12 18 -31 18 -75
0 -78 -19 -98 -95 -98 -75 0 -95 20 -95 97 0 78 15 93 93 93 42 0 66 -5 79
-17z"/>
<path d="M710 985 c-13 -16 -7 -45 10 -45 5 0 10 14 10 30 0 34 -3 36 -20 15z"/>
<path d="M1180 972 c0 -33 16 -43 27 -16 3 8 -2 23 -11 32 -15 15 -16 14 -16
-16z"/>
<path d="M930 725 c7 -8 18 -15 25 -15 7 0 18 7 25 15 11 13 7 15 -25 15 -32
0 -36 -2 -25 -15z"/>
</g>
</svg>
