<?xml version="1.0" standalone="no"?>
<!DOCTYPE svg PUBLIC "-//W3C//DTD SVG 20010904//EN"
 "http://www.w3.org/TR/2001/REC-SVG-20010904/DTD/svg10.dtd">
<svg version="1.0" xmlns="http://www.w3.org/2000/svg"
 width="192.000000pt" height="192.000000pt" viewBox="0 0 192.000000 192.000000"
 preserveAspectRatio="xMidYMid meet">
<metadata>
Created by potrace 1.16, written by Peter Selinger 2001-2019
</metadata>
<g transform="translate(0.000000,192.000000) scale(0.100000,-0.100000)"
fill="#000000" stroke="none">
811 c445 -92 729 -532 635 -987 -62 -301 -295 -546 -601 -630 -91 -26 -329
-26 -420 0 -291 80 -516 305 -596 596 -26 91 -26 329 0 420 120 433 542 692
982 601z"/>
<path d="M716 1328 c-49 -14 -112 -76 -125 -125 -6 -21 -11 -129 -11 -243 0
-226 7 -256 66 -312 48 -44 72 -48 310 -48 251 0 269 4 321 63 50 57 55 89 51
329 l-3 216 -30 43 c-55 77 -79 84 -325 86 -127 1 -231 -3 -254 -9z m366 -125
c15 -14 18 -33 18 -135 0 -114 -1 -118 -19 -108 -32 16 -73 11 -116 -15 -48
-30 -80 -31 -122 -5 l-33 20 0 112 c0 149 -1 148 143 148 89 0 114 -3 129 -17z
m3 -286 c17 -13 14 -20 -49 -110 -37 -54 -71 -97 -75 -97 -4 0 -35 39 -68 88
-80 116 -79 114 -46 97 41 -22 79 -18 121 10 40 28 88 32 117 12z"/>
</g>
</svg>
