<?xml version="1.0" standalone="no"?>
<!DOCTYPE svg PUBLIC "-//W3C//DTD SVG 20010904//EN"
 "http://www.w3.org/TR/2001/REC-SVG-20010904/DTD/svg10.dtd">
<svg version="1.0" xmlns="http://www.w3.org/2000/svg"
 width="192.000000pt" height="192.000000pt" viewBox="0 0 192.000000 192.000000"
 preserveAspectRatio="xMidYMid meet">
<metadata>
Created by potrace 1.16, written by Peter Selinger 2001-2019
</metadata>
<g transform="translate(0.000000,192.000000) scale(0.100000,-0.100000)"
fill="#000000" stroke="none">
811 c445 -92 729 -532 635 -987 -62 -301 -295 -546 -601 -630 -91 -26 -329
-26 -420 0 -291 80 -516 305 -596 596 -26 91 -26 329 0 420 120 433 542 692
982 601z"/>
<path d="M713 1329 c-47 -14 -109 -77 -122 -124 -15 -55 -15 -432 1 -476 17
-50 45 -83 91 -110 41 -23 48 -24 272 -24 224 0 231 1 272 24 92 53 103 91
103 355 0 200 -1 214 -22 256 -14 26 -41 57 -66 75 l-44 30 -226 2 c-125 1
-242 -2 -259 -8z m180 -170 c34 -18 37 -28 37 -126 0 -113 -13 -133 -85 -133
l-45 0 0 -65 0 -65 -35 0 -35 0 0 193 c0 107 3 197 7 200 11 12 133 8 156 -4z
m269 -19 c13 -16 18 -36 16 -64 -3 -38 -5 -41 -35 -44 -29 -3 -32 -1 -35 30
-2 28 -7 34 -30 36 -27 3 -28 2 -28 -42 l0 -44 53 -18 c78 -25 79 -27 75 -117
-4 -96 -15 -107 -102 -107 -78 0 -96 16 -96 82 l0 49 32 -3 c28 -3 34 -8 38
-33 4 -24 10 -30 30 -30 22 0 25 5 28 42 l3 41 -65 22 -66 22 0 81 c0 45 4 87
8 93 16 24 49 34 101 31 42 -3 59 -9 73 -27z"/>
<path d="M800 1035 l0 -65 30 0 30 0 0 65 0 65 -30 0 -30 0 0 -65z"/>
</g>
</svg>
