<?xml version="1.0" standalone="no"?>
<!DOCTYPE svg PUBLIC "-//W3C//DTD SVG 20010904//EN"
 "http://www.w3.org/TR/2001/REC-SVG-20010904/DTD/svg10.dtd">
<svg version="1.0" xmlns="http://www.w3.org/2000/svg"
 width="192.000000pt" height="192.000000pt" viewBox="0 0 192.000000 192.000000"
 preserveAspectRatio="xMidYMid meet">
<metadata>
Created by potrace 1.16, written by Peter Selinger 2001-2019
</metadata>
<g transform="translate(0.000000,192.000000) scale(0.100000,-0.100000)"
fill="#000000" stroke="none">
811 c445 -92 729 -532 635 -987 -62 -301 -295 -546 -601 -630 -91 -26 -329
-26 -420 0 -291 80 -516 305 -596 596 -26 91 -26 329 0 420 120 433 542 692
982 601z"/>
<path d="M717 1330 c-46 -14 -98 -60 -118 -104 -16 -36 -19 -68 -19 -260 0
-204 1 -223 21 -264 15 -29 37 -54 67 -73 l46 -29 241 0 241 0 46 29 c30 19
52 44 67 73 19 41 21 60 21 264 0 208 -1 222 -22 264 -14 26 -41 57 -66 75
l-44 30 -226 2 c-125 1 -240 -2 -255 -7z m349 -130 c105 -51 167 -170 145
-279 -45 -223 -328 -286 -467 -103 -57 73 -65 184 -19 271 18 35 88 99 129
117 49 21 162 18 212 -6z"/>
<path d="M920 1160 c-99 -18 -163 -94 -163 -195 0 -77 42 -140 120 -179 86
-43 211 4 260 99 32 60 15 161 -36 219 -37 42 -118 67 -181 56z m116 -114 c28
-28 34 -41 34 -78 0 -50 -18 -82 -60 -103 -37 -19 -73 -19 -110 0 -42 21 -60
53 -60 103 0 37 6 50 34 78 29 29 41 34 81 34 40 0 52 -5 81 -34z"/>
<path d="M914 1038 c-24 -11 -44 -48 -44 -78 0 -10 11 -31 24 -46 18 -21 32
-28 61 -28 29 0 43 7 61 28 62 71 -17 166 -102 124z"/>
</g>
</svg>
