<?xml version="1.0" standalone="no"?>
<!DOCTYPE svg PUBLIC "-//W3C//DTD SVG 20010904//EN"
 "http://www.w3.org/TR/2001/REC-SVG-20010904/DTD/svg10.dtd">
<svg version="1.0" xmlns="http://www.w3.org/2000/svg"
 width="192.000000pt" height="192.000000pt" viewBox="0 0 192.000000 192.000000"
 preserveAspectRatio="xMidYMid meet">
<metadata>
Created by potrace 1.16, written by Peter Selinger 2001-2019
</metadata>
<g transform="translate(0.000000,192.000000) scale(0.100000,-0.100000)"
fill="#000000" stroke="none">
811 c445 -92 729 -532 635 -987 -62 -301 -295 -546 -601 -630 -91 -26 -329
-26 -420 0 -291 80 -516 305 -596 596 -26 91 -26 329 0 420 120 433 542 692
982 601z"/>
<path d="M530 1310 c0 -6 31 -84 68 -174 l68 -163 -57 -137 c-31 -75 -64 -154
-73 -176 l-16 -40 64 0 64 0 42 106 c24 58 46 102 50 97 4 -4 24 -52 46 -105
l39 -98 63 0 c56 0 63 2 58 18 -3 9 -35 87 -71 172 -36 85 -65 158 -65 163 0
5 29 79 65 164 36 85 65 162 65 169 0 12 -13 14 -57 12 l-58 -3 -44 -108 -44
-109 -45 111 -44 111 -59 0 c-34 0 -59 -4 -59 -10z"/>
<path d="M1030 971 l0 -351 144 0 c163 0 186 9 206 78 5 21 10 140 9 272 0
343 -1 343 -220 348 l-139 4 0 -351z m234 213 c12 -31 7 -429 -6 -442 -7 -7
-34 -12 -60 -12 l-48 0 0 235 0 235 54 0 c40 0 55 -4 60 -16z"/>
</g>
</svg>
