<?xml version="1.0" standalone="no"?>
<!DOCTYPE svg PUBLIC "-//W3C//DTD SVG 20010904//EN"
 "http://www.w3.org/TR/2001/REC-SVG-20010904/DTD/svg10.dtd">
<svg version="1.0" xmlns="http://www.w3.org/2000/svg"
 width="192.000000pt" height="192.000000pt" viewBox="0 0 192.000000 192.000000"
 preserveAspectRatio="xMidYMid meet">
<metadata>
Created by potrace 1.16, written by Peter Selinger 2001-2019
</metadata>
<g transform="translate(0.000000,192.000000) scale(0.100000,-0.100000)"
fill="#000000" stroke="none">
811 c445 -92 729 -532 635 -987 -62 -301 -295 -546 -601 -630 -91 -26 -329
-26 -420 0 -291 80 -516 305 -596 596 -26 91 -26 329 0 420 120 433 542 692
982 601z"/>
<path d="M912 1358 c-7 -7 -12 -16 -12 -21 0 -19 161 -275 176 -281 9 -4 22
-2 29 4 22 19 115 181 115 201 0 24 -76 74 -144 94 -60 18 -148 19 -164 3z"/>
<path d="M720 1298 c-77 -52 -135 -130 -120 -159 10 -17 23 -19 164 -19 188 0
195 4 152 84 -81 150 -100 159 -196 94z"/>
<path d="M1236 1168 c-33 -52 -156 -262 -156 -267 0 -3 5 -13 10 -21 7 -12 33
-15 129 -15 66 0 122 3 126 7 4 3 11 25 16 48 12 53 -3 145 -35 216 -21 45
-29 54 -50 54 -15 0 -31 -9 -40 -22z"/>
<path d="M559 1053 c-9 -11 -14 -43 -14 -97 1 -70 5 -91 32 -148 27 -57 36
-68 56 -68 21 0 37 21 106 136 81 135 95 176 65 188 -9 3 -64 6 -124 6 -88 0
-110 -3 -121 -17z"/>
<path d="M745 786 c-36 -60 -55 -103 -53 -118 2 -17 21 -32 79 -62 66 -33 86
-38 149 -40 109 -2 110 5 20 156 -40 67 -80 131 -88 141 -30 34 -49 20 -107
-77z"/>
<path d="M979 794 c-11 -14 -10 -22 10 -58 60 -104 91 -146 110 -146 30 0 142
81 179 129 19 25 32 53 30 65 -3 20 -9 21 -159 24 -134 2 -158 0 -170 -14z"/>
</g>
</svg>
