<?xml version="1.0" standalone="no"?>
<!DOCTYPE svg PUBLIC "-//W3C//DTD SVG 20010904//EN"
 "http://www.w3.org/TR/2001/REC-SVG-20010904/DTD/svg10.dtd">
<svg version="1.0" xmlns="http://www.w3.org/2000/svg"
 width="192.000000pt" height="192.000000pt" viewBox="0 0 192.000000 192.000000"
 preserveAspectRatio="xMidYMid meet">
<metadata>
Created by potrace 1.16, written by Peter Selinger 2001-2019
</metadata>
<g transform="translate(0.000000,192.000000) scale(0.100000,-0.100000)"
fill="#000000" stroke="none">
811 c445 -92 729 -532 635 -987 -62 -301 -295 -546 -601 -630 -91 -26 -329
-26 -420 0 -291 80 -516 305 -596 596 -26 91 -26 329 0 420 120 433 542 692
982 601z"/>
<path d="M555 1308 c-3 -7 -4 -166 -3 -353 l3 -340 170 0 170 0 3 58 3 57
-115 0 -116 0 -2 293 -3 292 -53 3 c-36 2 -54 -1 -57 -10z"/>
<path d="M995 1308 c-3 -7 -4 -166 -3 -353 l3 -340 55 0 55 0 3 118 3 117 29
0 c27 0 31 -4 45 -57 9 -32 24 -85 33 -118 l17 -60 49 -3 c27 -2 53 1 58 6 5
5 -4 55 -22 121 l-30 113 30 34 30 35 0 154 c0 84 -4 165 -10 179 -19 50 -52
61 -202 64 -109 3 -139 1 -143 -10z m233 -218 c3 -121 -2 -130 -75 -130 l-43
0 0 120 0 121 58 -3 57 -3 3 -105z"/>
</g>
</svg>
