<?xml version="1.0" standalone="no"?>
<!DOCTYPE svg PUBLIC "-//W3C//DTD SVG 20010904//EN"
 "http://www.w3.org/TR/2001/REC-SVG-20010904/DTD/svg10.dtd">
<svg version="1.0" xmlns="http://www.w3.org/2000/svg"
 width="192.000000pt" height="192.000000pt" viewBox="0 0 192.000000 192.000000"
 preserveAspectRatio="xMidYMid meet">
<metadata>
Created by potrace 1.16, written by Peter Selinger 2001-2019
</metadata>
<g transform="translate(0.000000,192.000000) scale(0.100000,-0.100000)"
fill="#000000" stroke="none">
811 c445 -92 729 -532 635 -987 -62 -301 -295 -546 -601 -630 -91 -26 -329
-26 -420 0 -291 80 -516 305 -596 596 -26 91 -26 329 0 420 120 433 542 692
982 601z"/>
<path d="M717 1330 c-46 -14 -98 -60 -118 -104 -16 -36 -19 -68 -19 -260 0
-204 2 -223 21 -264 13 -26 38 -54 62 -70 l41 -27 251 0 251 0 41 27 c24 16
49 44 62 70 19 41 21 61 21 264 0 208 -1 222 -22 264 -14 26 -41 57 -66 75
l-44 30 -226 2 c-125 1 -240 -2 -255 -7z m59 -168 c6 -4 19 -29 29 -55 10 -26
21 -50 25 -52 4 -3 15 17 25 43 10 26 22 53 28 60 10 13 53 17 60 5 3 -5 -12
-50 -34 -101 l-38 -92 33 -78 c53 -124 53 -122 13 -122 -33 0 -36 3 -60 63
-24 58 -26 61 -35 37 -38 -99 -39 -100 -78 -100 -25 0 -35 4 -31 13 3 6 22 52
42 100 l37 88 -36 87 c-20 48 -36 93 -36 100 0 13 38 16 56 4z m406 -22 c16
-19 18 -42 18 -176 0 -193 -1 -194 -120 -194 l-80 0 0 193 c0 107 3 197 8 201
4 5 40 6 81 3 62 -3 78 -8 93 -27z"/>
<path d="M1070 964 l0 -135 28 3 27 3 3 133 3 132 -31 0 -30 0 0 -136z"/>
</g>
</svg>
