<?xml version="1.0" standalone="no"?>
<!DOCTYPE svg PUBLIC "-//W3C//DTD SVG 20010904//EN"
 "http://www.w3.org/TR/2001/REC-SVG-20010904/DTD/svg10.dtd">
<svg version="1.0" xmlns="http://www.w3.org/2000/svg"
 width="192.000000pt" height="192.000000pt" viewBox="0 0 192.000000 192.000000"
 preserveAspectRatio="xMidYMid meet">
<metadata>
Created by potrace 1.16, written by Peter Selinger 2001-2019
</metadata>
<g transform="translate(0.000000,192.000000) scale(0.100000,-0.100000)"
fill="#000000" stroke="none">
811 c445 -92 729 -532 635 -987 -62 -301 -295 -546 -601 -630 -91 -26 -329
-26 -420 0 -291 80 -516 305 -596 596 -26 91 -26 329 0 420 120 433 542 692
982 601z"/>
<path d="M850 1354 c-115 -31 -213 -112 -267 -223 -25 -51 -28 -66 -28 -166 0
-98 3 -116 27 -167 31 -67 92 -136 156 -177 114 -72 276 -81 394 -23 167 82
261 259 229 430 -44 238 -279 388 -511 326z m228 -158 c117 -60 169 -188 130
-318 -15 -50 -79 -123 -131 -150 -172 -87 -387 44 -387 237 0 194 213 320 388
231z"/>
<path d="M875 1146 c-70 -31 -116 -102 -117 -181 -2 -178 211 -267 338 -141
73 72 83 174 24 254 -51 71 -165 103 -245 68z m55 -131 c0 -32 -2 -35 -30 -35
-36 0 -40 20 -10 50 29 29 40 25 40 -15z m99 9 c29 -37 26 -44 -14 -44 -33 0
-35 2 -35 35 0 43 20 46 49 9z m-99 -120 c0 -35 -1 -36 -22 -22 -12 8 -28 24
-36 36 -14 21 -13 22 22 22 35 0 36 -1 36 -36z m120 28 c0 -9 -36 -44 -57 -56
-9 -5 -13 3 -13 28 0 34 2 36 35 36 19 0 35 -4 35 -8z"/>
</g>
</svg>
