<?xml version="1.0" standalone="no"?>
<!DOCTYPE svg PUBLIC "-//W3C//DTD SVG 20010904//EN"
 "http://www.w3.org/TR/2001/REC-SVG-20010904/DTD/svg10.dtd">
<svg version="1.0" xmlns="http://www.w3.org/2000/svg"
 width="192.000000pt" height="192.000000pt" viewBox="0 0 192.000000 192.000000"
 preserveAspectRatio="xMidYMid meet">
<metadata>
Created by potrace 1.16, written by Peter Selinger 2001-2019
</metadata>
<g transform="translate(0.000000,192.000000) scale(0.100000,-0.100000)"
fill="#000000" stroke="none">
811 c445 -92 729 -532 635 -987 -62 -301 -295 -546 -601 -630 -91 -26 -329
-26 -420 0 -291 80 -516 305 -596 596 -26 91 -26 329 0 420 120 433 542 692
982 601z"/>
<path d="M695 1321 c-49 -22 -91 -69 -106 -119 -7 -24 -9 -116 -7 -257 3 -210
4 -222 26 -258 13 -20 45 -50 70 -65 l47 -27 230 0 230 0 47 27 c25 15 57 45
70 65 22 36 23 48 26 258 4 238 -1 273 -45 326 -53 62 -83 69 -328 69 -192 0
-225 -3 -260 -19z m185 -248 c0 -85 4 -133 9 -128 5 6 40 67 76 138 l67 127
84 0 84 0 0 -82 0 -83 -138 -72 -137 -73 138 0 137 0 0 -90 0 -90 -77 0 -78 0
-80 72 -80 72 -3 -72 -3 -72 -84 0 -85 0 0 90 0 89 68 3 67 3 -67 71 -68 71 0
81 0 82 85 0 85 0 0 -137z"/>
<path d="M992 1052 c-24 -46 -42 -85 -40 -87 6 -6 168 79 168 88 0 4 -18 7
-39 7 -39 0 -40 1 -43 38 l-3 37 -43 -83z"/>
<path d="M779 1033 c5 -10 23 -31 40 -47 l31 -30 0 47 0 47 -40 0 c-36 0 -40
-2 -31 -17z"/>
<path d="M990 820 c25 -21 48 -39 53 -40 4 0 7 18 7 40 l0 40 -52 0 -53 0 45
-40z"/>
</g>
</svg>
