<?xml version="1.0" standalone="no"?>
<!DOCTYPE svg PUBLIC "-//W3C//DTD SVG 20010904//EN"
 "http://www.w3.org/TR/2001/REC-SVG-20010904/DTD/svg10.dtd">
<svg version="1.0" xmlns="http://www.w3.org/2000/svg"
 width="192.000000pt" height="192.000000pt" viewBox="0 0 192.000000 192.000000"
 preserveAspectRatio="xMidYMid meet">
<metadata>
Created by potrace 1.16, written by Peter Selinger 2001-2019
</metadata>
<g transform="translate(0.000000,192.000000) scale(0.100000,-0.100000)"
fill="#000000" stroke="none">
811 c445 -92 729 -532 635 -987 -62 -301 -295 -546 -601 -630 -91 -26 -329
-26 -420 0 -291 80 -516 305 -596 596 -26 91 -26 329 0 420 120 433 542 692
982 601z"/>
<path d="M716 1328 c-49 -14 -112 -76 -125 -125 -6 -21 -11 -129 -11 -243 0
-226 7 -256 66 -312 48 -44 72 -48 310 -48 251 0 269 4 321 63 50 57 55 89 51
329 l-3 216 -30 43 c-55 77 -79 84 -325 86 -127 1 -231 -3 -254 -9z m253 -124
c32 -13 141 -114 141 -131 0 -3 -15 -1 -32 2 l-33 7 19 -21 c15 -16 21 -18 28
-9 16 27 7 -78 -11 -118 -16 -35 -86 -106 -101 -103 -3 1 -32 31 -65 68 l-59
66 66 -64 c44 -42 68 -59 73 -51 7 11 -109 140 -126 140 -4 0 -11 -14 -14 -32
-7 -29 -3 -36 48 -85 30 -29 51 -53 47 -53 -5 0 -30 21 -55 48 l-46 47 5 -35
c3 -19 8 -45 12 -57 7 -25 0 -29 -19 -12 -7 6 -30 20 -52 32 -111 62 -133 210
-47 307 58 65 143 86 221 54z m180 -149 c3 -12 -13 -9 -17 4 -2 7 0 11 6 7 5
-3 10 -8 11 -11z m45 -51 c4 -10 1 -14 -6 -12 -15 5 -23 28 -10 28 5 0 13 -7
16 -16z m20 -59 c3 -8 1 -15 -4 -15 -6 0 -10 7 -10 15 0 8 2 15 4 15 2 0 6 -7
10 -15z m-4 -70 c0 -8 -4 -15 -10 -15 -5 0 -7 7 -4 15 4 8 8 15 10 15 2 0 4
-7 4 -15z m-311 -59 c-2 -2 -13 8 -23 22 l-19 27 24 -22 c12 -12 21 -24 18
-27z m283 -8 c-7 -7 -12 -8 -12 -2 0 14 12 26 19 19 2 -3 -1 -11 -7 -17z
m-282 -33 c10 -12 10 -15 -4 -15 -9 0 -16 7 -16 15 0 8 2 15 4 15 2 0 9 -7 16
-15z m242 -17 c-6 -6 -15 -8 -19 -4 -4 4 -1 11 7 16 19 12 27 3 12 -12z m-188
-14 c9 -3 14 -10 11 -15 -7 -10 -35 0 -35 12 0 11 3 11 24 3z m136 -14 c-19
-13 -30 -13 -30 0 0 6 10 10 23 10 18 0 19 -2 7 -10z m-60 -10 c0 -5 -7 -10
-15 -10 -8 0 -15 5 -15 10 0 6 7 10 15 10 8 0 15 -4 15 -10z"/>
<path d="M1000 1082 c0 -4 20 -28 45 -52 37 -36 45 -41 45 -24 0 11 -15 34
-33 52 -31 30 -57 41 -57 24z"/>
<path d="M960 1073 c0 -4 26 -35 57 -68 l58 -60 -66 63 -66 63 -24 -20 -24
-20 71 -72 c46 -45 76 -69 84 -64 8 5 -12 32 -61 84 l-74 76 72 -69 c40 -39
74 -68 76 -65 1 2 8 16 14 30 11 24 7 30 -41 78 -47 46 -76 63 -76 44z"/>
<path d="M876 1012 c-3 -5 28 -41 68 -81 49 -49 76 -69 81 -61 5 8 -18 38 -61
81 -69 69 -78 76 -88 61z"/>
</g>
</svg>
