<?xml version="1.0" standalone="no"?>
<!DOCTYPE svg PUBLIC "-//W3C//DTD SVG 20010904//EN"
 "http://www.w3.org/TR/2001/REC-SVG-20010904/DTD/svg10.dtd">
<svg version="1.0" xmlns="http://www.w3.org/2000/svg"
 width="192.000000pt" height="192.000000pt" viewBox="0 0 192.000000 192.000000"
 preserveAspectRatio="xMidYMid meet">
<metadata>
Created by potrace 1.16, written by Peter Selinger 2001-2019
</metadata>
<g transform="translate(0.000000,192.000000) scale(0.100000,-0.100000)"
fill="#000000" stroke="none">
811 c445 -92 729 -532 635 -987 -62 -301 -295 -546 -601 -630 -91 -26 -329
-26 -420 0 -291 80 -516 305 -596 596 -26 91 -26 329 0 420 120 433 542 692
982 601z"/>
<path d="M716 1328 c-49 -14 -112 -76 -125 -125 -6 -21 -11 -129 -11 -243 0
-226 7 -256 66 -312 48 -44 72 -48 310 -48 251 0 269 4 321 63 50 57 55 89 51
329 l-3 216 -30 43 c-55 77 -79 84 -325 86 -127 1 -231 -3 -254 -9z m408 -89
c28 -13 39 -34 31 -58 -3 -9 -34 -31 -69 -49 -34 -18 -71 -38 -81 -45 -15 -12
-13 -13 16 -9 19 2 47 -1 62 -7 48 -19 32 -48 -54 -100 -41 -25 -99 -63 -127
-84 -50 -37 -72 -41 -72 -12 0 13 64 70 135 119 39 27 39 28 10 21 -16 -3 -54
-17 -84 -31 -63 -28 -74 -29 -91 -9 -11 14 -7 23 31 61 24 25 68 61 97 82 30
20 49 38 43 40 -5 2 -49 -14 -97 -34 -92 -40 -116 -39 -122 4 -2 15 6 27 30
42 29 18 150 61 203 73 40 9 115 7 139 -4z m-60 -369 c11 -11 -80 -176 -101
-184 -21 -9 -42 14 -82 86 -35 62 -31 74 24 64 28 -6 36 -3 45 14 19 36 85 48
114 20z"/>
</g>
</svg>
