<?xml version="1.0" standalone="no"?>
<!DOCTYPE svg PUBLIC "-//W3C//DTD SVG 20010904//EN"
 "http://www.w3.org/TR/2001/REC-SVG-20010904/DTD/svg10.dtd">
<svg version="1.0" xmlns="http://www.w3.org/2000/svg"
 width="192.000000pt" height="192.000000pt" viewBox="0 0 192.000000 192.000000"
 preserveAspectRatio="xMidYMid meet">
<metadata>
Created by potrace 1.16, written by Peter Selinger 2001-2019
</metadata>
<g transform="translate(0.000000,192.000000) scale(0.100000,-0.100000)"
fill="#000000" stroke="none">
811 c445 -92 729 -532 635 -987 -62 -301 -295 -546 -601 -630 -91 -26 -329
-26 -420 0 -291 80 -516 305 -596 596 -26 91 -26 329 0 420 120 433 542 692
982 601z"/>
<path d="M720 1328 c-53 -15 -100 -56 -122 -105 -17 -39 -19 -64 -16 -272 l3
-228 29 -41 c52 -76 79 -82 341 -82 262 0 289 6 341 82 l29 41 3 228 c3 208 1
233 -16 272 -23 51 -70 90 -127 106 -50 14 -417 13 -465 -1z m78 -330 l2 -167
63 -3 c59 -3 62 -4 62 -28 0 -25 -1 -25 -97 -28 l-98 -3 0 201 0 201 33 -3 32
-3 3 -167z m339 161 c15 -5 31 -16 35 -22 15 -24 9 -187 -8 -216 -15 -26 -15
-32 0 -83 9 -31 16 -59 16 -62 0 -3 -15 -6 -34 -6 -32 0 -33 1 -51 65 -13 51
-21 65 -36 65 -17 0 -19 -8 -19 -65 l0 -65 -35 0 -35 0 0 193 c0 107 3 197 7
200 10 11 129 8 160 -4z"/>
<path d="M1040 1035 l0 -65 35 0 35 0 0 65 0 65 -35 0 -35 0 0 -65z"/>
</g>
</svg>
