<?xml version="1.0" standalone="no"?>
<!DOCTYPE svg PUBLIC "-//W3C//DTD SVG 20010904//EN"
 "http://www.w3.org/TR/2001/REC-SVG-20010904/DTD/svg10.dtd">
<svg version="1.0" xmlns="http://www.w3.org/2000/svg"
 width="192.000000pt" height="192.000000pt" viewBox="0 0 192.000000 192.000000"
 preserveAspectRatio="xMidYMid meet">
<metadata>
Created by potrace 1.16, written by Peter Selinger 2001-2019
</metadata>
<g transform="translate(0.000000,192.000000) scale(0.100000,-0.100000)"
fill="#000000" stroke="none">
811 c445 -92 729 -532 635 -987 -62 -301 -295 -546 -601 -630 -91 -26 -329
-26 -420 0 -291 80 -516 305 -596 596 -26 91 -26 329 0 420 120 433 542 692
982 601z"/>
<path d="M874 1365 c-11 -8 -42 -14 -75 -15 -80 0 -151 -38 -187 -98 -27 -46
-27 -49 -30 -251 -2 -112 -1 -214 2 -227 l6 -24 49 38 c26 21 73 49 104 63 56
24 57 25 102 122 25 53 45 100 45 104 0 4 -10 27 -21 51 -26 52 -37 168 -20
200 10 19 20 22 73 22 53 0 59 2 48 15 -16 19 -70 19 -96 0z"/>
<path d="M995 1333 c18 -45 17 -104 -4 -173 l-22 -72 56 -68 c31 -37 61 -73
68 -78 7 -5 44 -12 82 -15 39 -3 89 -13 113 -21 l42 -15 0 155 c0 175 -7 202
-63 251 -46 41 -91 53 -196 53 -75 0 -82 -2 -76 -17z"/>
<path d="M911 1263 c0 -26 4 -57 9 -68 7 -19 8 -18 15 6 9 37 2 102 -12 107
-9 2 -13 -10 -12 -45z"/>
<path d="M920 969 c-28 -63 -26 -69 18 -62 85 14 84 13 41 62 l-39 43 -20 -43z"/>
<path d="M1330 815 c0 -65 1 -68 17 -52 10 9 17 32 17 52 0 20 -7 43 -17 52
-16 16 -17 13 -17 -52z"/>
<path d="M955 844 c-98 -19 -108 -25 -145 -91 -18 -32 -46 -75 -63 -96 -16
-21 -26 -41 -22 -45 12 -13 420 -14 467 -2 29 8 57 27 86 56 56 59 55 74 -6
74 -53 0 -113 32 -166 89 -33 35 -45 36 -151 15z"/>
<path d="M1180 856 c0 -11 71 -46 93 -46 36 0 26 25 -15 39 -31 11 -78 15 -78
7z"/>
<path d="M682 734 c-23 -19 -42 -43 -42 -52 -1 -14 -5 -12 -20 7 -11 13 -20
30 -20 38 0 13 -3 13 -15 3 -9 -7 -15 -29 -15 -52 0 -68 63 -108 122 -77 19
10 19 12 -12 30 l-32 20 35 38 c40 44 62 81 49 81 -5 0 -27 -16 -50 -36z"/>
</g>
</svg>
