<?xml version="1.0" standalone="no"?>
<!DOCTYPE svg PUBLIC "-//W3C//DTD SVG 20010904//EN"
 "http://www.w3.org/TR/2001/REC-SVG-20010904/DTD/svg10.dtd">
<svg version="1.0" xmlns="http://www.w3.org/2000/svg"
 width="192.000000pt" height="192.000000pt" viewBox="0 0 192.000000 192.000000"
 preserveAspectRatio="xMidYMid meet">
<metadata>
Created by potrace 1.16, written by Peter Selinger 2001-2019
</metadata>
<g transform="translate(0.000000,192.000000) scale(0.100000,-0.100000)"
fill="#000000" stroke="none">
811 c445 -92 729 -532 635 -987 -62 -301 -295 -546 -601 -630 -91 -26 -329
-26 -420 0 -291 80 -516 305 -596 596 -26 91 -26 329 0 420 120 433 542 692
982 601z"/>
<path d="M580 1217 l0 -123 105 -114 105 -115 -105 -3 -106 -3 3 -132 3 -132
119 -3 c77 -2 123 1 132 9 9 7 14 41 16 106 l3 95 120 -106 120 -107 115 3
115 3 0 130 0 130 -215 3 -215 3 215 112 215 112 0 125 0 125 -127 3 -126 3
-109 -207 -108 -207 -5 204 -5 204 -132 3 -133 3 0 -124z m578 -117 l67 0
-140 -74 c-77 -41 -141 -73 -143 -71 -2 2 29 66 69 142 l74 138 3 -67 3 -68
67 0z m-368 -72 l0 -71 -26 24 c-14 13 -44 45 -66 72 l-40 47 66 0 66 0 0 -72z
m300 -288 c0 -71 2 -71 -86 8 l-58 52 72 0 72 0 0 -60z"/>
</g>
</svg>
