<?xml version="1.0" standalone="no"?>
<!DOCTYPE svg PUBLIC "-//W3C//DTD SVG 20010904//EN"
 "http://www.w3.org/TR/2001/REC-SVG-20010904/DTD/svg10.dtd">
<svg version="1.0" xmlns="http://www.w3.org/2000/svg"
 width="192.000000pt" height="192.000000pt" viewBox="0 0 192.000000 192.000000"
 preserveAspectRatio="xMidYMid meet">
<metadata>
Created by potrace 1.16, written by Peter Selinger 2001-2019
</metadata>
<g transform="translate(0.000000,192.000000) scale(0.100000,-0.100000)"
fill="#000000" stroke="none">
811 c445 -92 729 -532 635 -987 -62 -301 -295 -546 -601 -630 -91 -26 -329
-26 -420 0 -291 80 -516 305 -596 596 -26 91 -26 329 0 420 120 433 542 692
982 601z"/>
<path d="M871 1325 c-46 -43 -50 -45 -110 -45 -90 0 -121 -31 -121 -121 0 -60
-2 -64 -45 -110 -36 -39 -45 -55 -45 -84 0 -29 9 -45 45 -84 43 -46 45 -50 45
-110 0 -56 3 -66 29 -92 26 -26 36 -29 92 -29 60 0 64 -2 110 -45 66 -62 102
-62 168 0 46 43 50 45 110 45 56 0 66 3 92 29 26 26 29 36 29 92 0 60 2 64 45
110 36 39 45 55 45 84 0 29 -9 45 -45 84 -43 46 -45 50 -45 110 0 56 -3 66
-29 92 -26 26 -36 29 -92 29 -60 0 -64 2 -110 45 -39 36 -55 45 -84 45 -29 0
-45 -9 -84 -45z m124 -35 c4 -6 -12 -10 -42 -10 l-48 1 23 19 c24 20 51 15 67
-10z m143 -143 l72 -72 0 -110 0 -110 -72 -72 -72 -73 -111 0 -111 0 -72 73
-72 72 0 110 0 110 72 72 72 73 111 0 111 0 72 -73z m-498 -184 c0 -45 0 -46
-20 -28 -11 10 -20 23 -20 28 0 10 29 47 37 47 1 0 3 -21 3 -47z m670 2 c0 -7
-9 -20 -20 -30 -20 -18 -20 -17 -20 30 0 47 0 48 20 30 11 -10 20 -23 20 -30z
m-315 -325 c-16 -25 -43 -30 -67 -10 l-23 19 48 1 c30 0 46 -4 42 -10z"/>
<path d="M839 1073 c-10 -11 -14 -45 -14 -108 0 -124 1 -125 130 -125 129 0
130 1 130 125 0 124 -1 125 -130 125 -83 0 -105 -3 -116 -17z"/>
</g>
</svg>
