<?xml version="1.0" standalone="no"?>
<!DOCTYPE svg PUBLIC "-//W3C//DTD SVG 20010904//EN"
 "http://www.w3.org/TR/2001/REC-SVG-20010904/DTD/svg10.dtd">
<svg version="1.0" xmlns="http://www.w3.org/2000/svg"
 width="192.000000pt" height="192.000000pt" viewBox="0 0 192.000000 192.000000"
 preserveAspectRatio="xMidYMid meet">
<metadata>
Created by potrace 1.16, written by Peter Selinger 2001-2019
</metadata>
<g transform="translate(0.000000,192.000000) scale(0.100000,-0.100000)"
fill="#000000" stroke="none">
811 c445 -92 729 -532 635 -987 -62 -301 -295 -546 -601 -630 -91 -26 -329
-26 -420 0 -291 80 -516 305 -596 596 -26 91 -26 329 0 420 120 433 542 692
982 601z"/>
<path d="M717 1330 c-46 -14 -98 -60 -118 -104 -16 -36 -19 -68 -19 -260 0
-204 2 -223 21 -264 13 -26 38 -54 62 -70 l41 -27 251 0 251 0 41 27 c24 16
49 44 62 70 19 41 21 61 21 264 0 208 -1 222 -22 264 -14 26 -41 57 -66 75
l-44 30 -226 2 c-125 1 -240 -2 -255 -7z m338 -139 c69 -31 72 -42 30 -111
-20 -33 -43 -60 -50 -60 -15 0 -117 169 -109 182 9 14 88 8 129 -11z m-138
-53 c17 -29 29 -58 26 -65 -7 -17 -188 -19 -199 -2 -10 17 17 58 60 90 58 42
76 38 113 -23z m267 -78 c9 -22 16 -65 16 -95 l0 -55 -79 0 c-44 0 -82 4 -85
8 -3 5 18 48 45 95 58 100 78 109 103 47z m-311 -44 c8 -20 -95 -187 -113
-184 -25 5 -50 69 -50 129 0 31 3 59 7 62 3 4 39 7 79 7 51 0 73 -4 77 -14z
m70 -193 c27 -46 46 -87 42 -94 -16 -25 -168 15 -190 51 -10 16 65 132 83 128
9 -2 38 -40 65 -85z m227 29 c0 -30 -95 -112 -129 -112 -14 0 -71 90 -71 113
0 15 11 17 100 17 90 0 100 -2 100 -18z"/>
</g>
</svg>
