<?xml version="1.0" standalone="no"?>
<!DOCTYPE svg PUBLIC "-//W3C//DTD SVG 20010904//EN"
 "http://www.w3.org/TR/2001/REC-SVG-20010904/DTD/svg10.dtd">
<svg version="1.0" xmlns="http://www.w3.org/2000/svg"
 width="192.000000pt" height="192.000000pt" viewBox="0 0 192.000000 192.000000"
 preserveAspectRatio="xMidYMid meet">
<metadata>
Created by potrace 1.16, written by Peter Selinger 2001-2019
</metadata>
<g transform="translate(0.000000,192.000000) scale(0.100000,-0.100000)"
fill="#000000" stroke="none">
811 c445 -92 729 -532 635 -987 -62 -301 -295 -546 -601 -630 -91 -26 -329
-26 -420 0 -291 80 -516 305 -596 596 -26 91 -26 329 0 420 120 433 542 692
982 601z"/>
<path d="M717 1330 c-47 -15 -98 -60 -119 -107 -17 -39 -19 -64 -16 -272 l3
-228 28 -40 c15 -22 46 -50 70 -64 41 -23 47 -24 272 -24 225 0 231 1 272 24
24 14 55 42 70 64 l28 40 3 231 c3 224 2 232 -20 276 -13 26 -41 57 -66 75
l-44 30 -226 2 c-125 1 -240 -2 -255 -7z m228 -192 c21 -87 75 -343 75 -354 0
-9 -11 -14 -30 -14 -24 0 -31 5 -36 28 -11 51 -12 52 -58 52 -44 0 -44 0 -51
-40 -6 -37 -9 -40 -40 -40 -26 0 -32 4 -29 18 2 9 20 91 39 182 20 91 38 171
40 178 3 7 21 12 44 12 34 0 42 -4 46 -22z m195 -173 l0 -195 -35 0 -35 0 0
195 0 195 35 0 35 0 0 -195z"/>
<path d="M882 999 c-17 -98 -17 -99 18 -99 17 0 30 3 30 8 0 15 -28 153 -32
157 -2 3 -9 -27 -16 -66z"/>
</g>
</svg>
