<?xml version="1.0" standalone="no"?>
<!DOCTYPE svg PUBLIC "-//W3C//DTD SVG 20010904//EN"
 "http://www.w3.org/TR/2001/REC-SVG-20010904/DTD/svg10.dtd">
<svg version="1.0" xmlns="http://www.w3.org/2000/svg"
 width="192.000000pt" height="192.000000pt" viewBox="0 0 192.000000 192.000000"
 preserveAspectRatio="xMidYMid meet">
<metadata>
Created by potrace 1.16, written by Peter Selinger 2001-2019
</metadata>
<g transform="translate(0.000000,192.000000) scale(0.100000,-0.100000)"
fill="#000000" stroke="none">
811 c445 -92 729 -532 635 -987 -62 -301 -295 -546 -601 -630 -91 -26 -329
-26 -420 0 -291 80 -516 305 -596 596 -26 91 -26 329 0 420 120 433 542 692
982 601z"/>
<path d="M695 1321 c-48 -22 -79 -54 -100 -103 -12 -30 -15 -81 -15 -256 0
-210 1 -221 23 -263 16 -29 40 -54 72 -74 l48 -30 232 0 232 0 48 30 c32 20
56 45 72 74 22 42 23 53 23 263 0 233 -5 265 -53 317 -50 54 -83 61 -322 61
-193 0 -225 -3 -260 -19z m454 -178 c122 -76 135 -261 25 -352 -51 -41 -96
-51 -238 -51 -167 0 -215 19 -257 102 -58 114 19 251 148 266 27 3 61 15 78
28 68 51 168 54 244 7z"/>
<path d="M960 1113 c-38 -20 -48 -49 -15 -46 11 1 36 6 55 10 130 34 213 -129
112 -220 -23 -21 -80 -32 -118 -23 -14 4 -53 32 -85 63 -38 36 -64 53 -74 50
-24 -10 -18 -21 48 -85 74 -70 123 -89 187 -72 46 12 95 51 115 91 20 37 19
113 -2 156 -35 75 -150 114 -223 76z"/>
<path d="M814 1059 c-41 -12 -91 -69 -100 -113 -10 -55 26 -119 81 -146 55
-27 110 -24 110 5 0 17 -9 21 -49 26 -92 10 -128 98 -67 160 46 45 89 41 150
-16 49 -46 65 -53 77 -34 10 17 -86 108 -126 119 -40 11 -35 11 -76 -1z"/>
</g>
</svg>
