<?xml version="1.0" standalone="no"?>
<!DOCTYPE svg PUBLIC "-//W3C//DTD SVG 20010904//EN"
 "http://www.w3.org/TR/2001/REC-SVG-20010904/DTD/svg10.dtd">
<svg version="1.0" xmlns="http://www.w3.org/2000/svg"
 width="192.000000pt" height="192.000000pt" viewBox="0 0 192.000000 192.000000"
 preserveAspectRatio="xMidYMid meet">
<metadata>
Created by potrace 1.16, written by Peter Selinger 2001-2019
</metadata>
<g transform="translate(0.000000,192.000000) scale(0.100000,-0.100000)"
fill="#000000" stroke="none">
811 c445 -92 729 -532 635 -987 -62 -301 -295 -546 -601 -630 -91 -26 -329
-26 -420 0 -291 80 -516 305 -596 596 -26 91 -26 329 0 420 120 433 542 692
982 601z"/>
<path d="M753 1340 c-46 -28 -55 -69 -51 -255 l3 -159 49 -31 c40 -24 60 -30
105 -30 48 0 63 5 101 33 60 44 108 56 163 41 23 -6 48 -16 55 -21 9 -8 12 29
12 182 l0 192 -34 34 -34 34 -168 0 c-150 0 -173 -2 -201 -20z"/>
<path d="M1025 866 c-16 -7 -52 -27 -79 -45 -67 -42 -127 -39 -198 11 -16 11
-28 17 -28 13 0 -3 50 -78 111 -166 74 -107 116 -159 129 -159 12 0 52 51 126
160 118 174 116 169 44 190 -46 13 -68 12 -105 -4z"/>
</g>
</svg>
