<?xml version="1.0" standalone="no"?>
<!DOCTYPE svg PUBLIC "-//W3C//DTD SVG 20010904//EN"
 "http://www.w3.org/TR/2001/REC-SVG-20010904/DTD/svg10.dtd">
<svg version="1.0" xmlns="http://www.w3.org/2000/svg"
 width="192.000000pt" height="192.000000pt" viewBox="0 0 192.000000 192.000000"
 preserveAspectRatio="xMidYMid meet">
<metadata>
Created by potrace 1.16, written by Peter Selinger 2001-2019
</metadata>
<g transform="translate(0.000000,192.000000) scale(0.100000,-0.100000)"
fill="#000000" stroke="none">
811 c445 -92 729 -532 635 -987 -62 -301 -295 -546 -601 -630 -91 -26 -329
-26 -420 0 -291 80 -516 305 -596 596 -26 91 -26 329 0 420 120 433 542 692
982 601z"/>
<path d="M882 1369 c-119 -20 -243 -112 -295 -219 -82 -168 -46 -354 92 -482
85 -79 147 -102 277 -103 96 0 103 2 176 38 88 43 152 107 195 195 26 52 28
67 28 167 0 98 -3 116 -27 167 -79 170 -264 268 -446 237z m185 -173 c45 -23
95 -75 119 -122 26 -52 26 -165 0 -214 -58 -111 -182 -171 -293 -141 -238 64
-263 377 -38 483 49 23 163 20 212 -6z"/>
<path d="M870 1109 c-54 -32 -74 -65 -78 -134 -3 -50 0 -66 20 -94 52 -77 138
-102 215 -62 63 32 88 74 88 148 0 69 -17 101 -75 141 -43 29 -121 30 -170 1z
m150 -64 c56 -50 41 -143 -25 -171 -69 -28 -145 21 -145 93 0 27 8 43 35 70
32 32 40 35 76 30 22 -3 49 -13 59 -22z"/>
<path d="M916 1004 c-22 -21 -20 -57 4 -79 46 -41 116 29 75 75 -22 24 -58 26
-79 4z"/>
</g>
</svg>
