<?xml version="1.0" standalone="no"?>
<!DOCTYPE svg PUBLIC "-//W3C//DTD SVG 20010904//EN"
 "http://www.w3.org/TR/2001/REC-SVG-20010904/DTD/svg10.dtd">
<svg version="1.0" xmlns="http://www.w3.org/2000/svg"
 width="192.000000pt" height="192.000000pt" viewBox="0 0 192.000000 192.000000"
 preserveAspectRatio="xMidYMid meet">
<metadata>
Created by potrace 1.16, written by Peter Selinger 2001-2019
</metadata>
<g transform="translate(0.000000,192.000000) scale(0.100000,-0.100000)"
fill="#000000" stroke="none">
811 c445 -92 729 -532 635 -987 -62 -301 -295 -546 -601 -630 -91 -26 -329
-26 -420 0 -291 80 -516 305 -596 596 -26 91 -26 329 0 420 120 433 542 692
982 601z"/>
<path d="M695 1321 c-49 -22 -91 -69 -106 -119 -7 -24 -9 -116 -7 -258 l3
-221 28 -40 c15 -22 46 -50 70 -64 41 -23 47 -24 272 -24 l230 0 47 27 c25 15
57 45 70 65 22 36 23 48 26 258 4 238 -1 273 -45 326 -53 62 -83 69 -328 69
-192 0 -225 -3 -260 -19z m393 -141 c67 -40 125 -76 127 -81 3 -4 -17 -20 -45
-36 -27 -15 -50 -30 -50 -33 0 -3 20 -17 45 -32 25 -15 45 -31 45 -35 0 -5
-84 -56 -187 -115 -140 -80 -190 -104 -200 -96 -20 16 -16 22 27 47 22 12 43
27 46 33 4 6 -18 -3 -49 -21 -37 -21 -64 -30 -77 -26 -30 10 -25 18 30 50 28
16 47 31 41 33 -5 2 -32 -11 -60 -28 -41 -26 -54 -29 -71 -20 -11 6 -20 13
-20 15 0 3 23 18 52 34 l51 30 -46 28 c-26 15 -47 32 -47 38 0 6 20 21 45 35
25 14 45 27 45 30 0 3 -20 16 -45 30 -25 14 -45 29 -45 35 0 10 251 165 260
161 3 -2 60 -36 128 -76z m62 -304 c9 -12 5 -19 -27 -39 -173 -107 -264 -146
-251 -106 4 12 237 157 254 158 6 1 17 -5 24 -13z m60 -41 c0 -17 -237 -157
-259 -153 -36 7 -10 32 108 102 116 70 151 82 151 51z"/>
<path d="M872 1161 l-63 -36 61 -3 c34 -2 64 -1 67 1 2 3 3 21 1 40 l-3 35
-63 -37z"/>
<path d="M980 1160 l0 -40 62 0 c34 0 59 2 57 4 -2 2 -30 20 -61 40 l-58 37 0
-41z"/>
<path d="M810 1076 c0 -5 117 -76 126 -76 3 0 4 17 2 38 l-3 37 -62 3 c-35 2
-63 1 -63 -2z"/>
<path d="M980 1039 l0 -41 48 27 c83 48 85 55 14 55 l-62 0 0 -41z"/>
</g>
</svg>
