<?xml version="1.0" standalone="no"?>
<!DOCTYPE svg PUBLIC "-//W3C//DTD SVG 20010904//EN"
 "http://www.w3.org/TR/2001/REC-SVG-20010904/DTD/svg10.dtd">
<svg version="1.0" xmlns="http://www.w3.org/2000/svg"
 width="192.000000pt" height="192.000000pt" viewBox="0 0 192.000000 192.000000"
 preserveAspectRatio="xMidYMid meet">
<metadata>
Created by potrace 1.16, written by Peter Selinger 2001-2019
</metadata>
<g transform="translate(0.000000,192.000000) scale(0.100000,-0.100000)"
fill="#000000" stroke="none">
811 c445 -92 729 -532 635 -987 -62 -301 -295 -546 -601 -630 -91 -26 -329
-26 -420 0 -291 80 -516 305 -596 596 -26 91 -26 329 0 420 120 433 542 692
982 601z"/>
<path d="M562 963 l3 -348 58 -3 57 -3 0 121 0 120 75 0 c83 0 127 16 146 53
15 27 24 214 14 293 -5 44 -14 64 -35 86 l-28 28 -146 0 -146 0 2 -347z m228
218 c5 -11 10 -58 10 -105 0 -102 -11 -119 -74 -114 l-41 3 -3 118 -3 117 50
0 c39 0 53 -4 61 -19z"/>
<path d="M1035 1288 c-14 -13 -30 -41 -35 -63 -13 -54 -13 -232 0 -255 6 -12
50 -32 120 -55 l110 -37 0 -58 c0 -83 -4 -90 -56 -90 -50 0 -64 16 -64 75 l0
36 -57 -3 -58 -3 1 -73 c3 -124 45 -157 196 -150 96 5 120 17 144 75 14 33 20
236 8 267 -3 9 -53 31 -120 53 l-114 37 0 59 c0 79 11 97 58 97 50 0 62 -14
62 -72 l0 -49 58 3 57 3 3 40 c6 71 -8 126 -38 157 -28 27 -31 28 -139 28
-100 0 -112 -2 -136 -22z"/>
</g>
</svg>
