<?xml version="1.0" standalone="no"?>
<!DOCTYPE svg PUBLIC "-//W3C//DTD SVG 20010904//EN"
 "http://www.w3.org/TR/2001/REC-SVG-20010904/DTD/svg10.dtd">
<svg version="1.0" xmlns="http://www.w3.org/2000/svg"
 width="192.000000pt" height="192.000000pt" viewBox="0 0 192.000000 192.000000"
 preserveAspectRatio="xMidYMid meet">
<metadata>
Created by potrace 1.16, written by Peter Selinger 2001-2019
</metadata>
<g transform="translate(0.000000,192.000000) scale(0.100000,-0.100000)"
fill="#000000" stroke="none">
811 c445 -92 729 -532 635 -987 -62 -301 -295 -546 -601 -630 -91 -26 -329
-26 -420 0 -291 80 -516 305 -596 596 -26 91 -26 329 0 420 120 433 542 692
982 601z"/>
<path d="M713 1329 c-47 -14 -109 -77 -122 -124 -15 -55 -15 -432 1 -476 17
-50 45 -83 91 -110 41 -23 48 -24 272 -24 224 0 231 1 272 24 92 53 103 91
103 355 0 183 -3 216 -19 251 -22 50 -69 91 -119 105 -46 12 -435 12 -479 -1z
m330 -123 c90 -33 154 -115 164 -210 8 -75 -11 -137 -60 -192 -58 -66 -107
-88 -192 -88 -85 0 -134 22 -192 88 -143 163 -26 415 192 415 28 0 67 -6 88
-13z"/>
<path d="M869 1107 c-101 -68 -107 -201 -13 -273 32 -25 47 -29 99 -29 52 0
67 4 99 29 127 96 60 296 -99 296 -38 0 -61 -6 -86 -23z m151 -64 c86 -78 3
-214 -103 -169 -72 30 -86 120 -26 170 42 35 89 35 129 -1z"/>
<path d="M916 1004 c-21 -21 -20 -57 2 -77 24 -22 55 -21 75 1 34 37 11 92
-38 92 -13 0 -31 -7 -39 -16z"/>
</g>
</svg>
