<?xml version="1.0" standalone="no"?>
<!DOCTYPE svg PUBLIC "-//W3C//DTD SVG 20010904//EN"
 "http://www.w3.org/TR/2001/REC-SVG-20010904/DTD/svg10.dtd">
<svg version="1.0" xmlns="http://www.w3.org/2000/svg"
 width="192.000000pt" height="192.000000pt" viewBox="0 0 192.000000 192.000000"
 preserveAspectRatio="xMidYMid meet">
<metadata>
Created by potrace 1.16, written by Peter Selinger 2001-2019
</metadata>
<g transform="translate(0.000000,192.000000) scale(0.100000,-0.100000)"
fill="#000000" stroke="none">
811 c445 -92 729 -532 635 -987 -62 -301 -295 -546 -601 -630 -91 -26 -329
-26 -420 0 -291 80 -516 305 -596 596 -26 91 -26 329 0 420 120 433 542 692
982 601z"/>
<path d="M716 1328 c-49 -14 -112 -76 -125 -125 -6 -21 -11 -129 -11 -243 0
-226 7 -256 66 -312 48 -44 72 -48 310 -48 251 0 269 4 321 63 50 57 55 89 51
329 l-3 216 -30 43 c-55 77 -79 84 -325 86 -127 1 -231 -3 -254 -9z m340 -123
c47 -19 110 -81 135 -131 33 -68 30 -156 -7 -225 -127 -236 -487 -150 -486
116 0 70 17 117 61 168 77 87 191 115 297 72z"/>
<path d="M853 1134 c-104 -62 -126 -211 -45 -298 80 -85 214 -85 294 0 82 88
59 238 -46 299 -60 35 -144 35 -203 -1z m125 -102 c3 -28 7 -32 31 -32 59 0
67 -56 9 -62 -29 -3 -33 -7 -36 -35 -5 -54 -47 -52 -54 2 -3 26 -8 30 -36 33
-59 6 -50 62 9 62 25 0 29 4 29 28 0 33 8 44 30 40 9 -2 16 -16 18 -36z"/>
</g>
</svg>
