<?xml version="1.0" standalone="no"?>
<!DOCTYPE svg PUBLIC "-//W3C//DTD SVG 20010904//EN"
 "http://www.w3.org/TR/2001/REC-SVG-20010904/DTD/svg10.dtd">
<svg version="1.0" xmlns="http://www.w3.org/2000/svg"
 width="192.000000pt" height="192.000000pt" viewBox="0 0 192.000000 192.000000"
 preserveAspectRatio="xMidYMid meet">
<metadata>
Created by potrace 1.16, written by Peter Selinger 2001-2019
</metadata>
<g transform="translate(0.000000,192.000000) scale(0.100000,-0.100000)"
fill="#000000" stroke="none">
811 c445 -92 729 -532 635 -987 -62 -301 -295 -546 -601 -630 -91 -26 -329
-26 -420 0 -291 80 -516 305 -596 596 -26 91 -26 329 0 420 120 433 542 692
982 601z"/>
<path d="M775 1271 c-99 -59 -180 -113 -180 -121 0 -8 28 -30 62 -50 34 -19
64 -38 67 -41 3 -3 -26 -23 -64 -45 -39 -21 -70 -44 -70 -51 0 -6 29 -28 65
-48 36 -20 63 -40 60 -45 -3 -4 -29 -22 -59 -39 -63 -35 -72 -46 -56 -66 19
-23 38 -18 112 26 90 53 111 46 24 -9 -36 -23 -66 -46 -66 -52 0 -6 11 -15 24
-21 21 -10 34 -6 101 35 80 48 85 51 85 38 0 -4 -29 -25 -65 -46 -69 -40 -77
-54 -45 -74 18 -11 48 4 278 137 141 82 258 156 260 164 2 9 -22 29 -62 53
-36 21 -64 40 -61 42 2 2 32 21 67 41 35 20 63 43 63 51 0 12 -195 139 -315
204 l-45 24 -180 -107z m155 -36 l0 -55 -97 0 -98 0 90 54 c50 30 93 55 98 55
4 1 7 -24 7 -54z m200 -27 l45 -28 -92 0 -93 0 0 56 0 56 48 -28 c26 -15 67
-40 92 -56z m-200 -138 c0 -27 -3 -50 -7 -50 -7 0 -128 66 -158 87 -17 11 -8
13 73 13 l92 0 0 -50z m230 46 c0 -5 -156 -96 -165 -96 -3 0 -5 23 -5 50 l0
50 85 0 c47 0 85 -2 85 -4z"/>
<path d="M1007 752 c-97 -59 -176 -111 -174 -116 2 -5 12 -15 23 -22 17 -11
40 -1 199 91 99 57 181 109 184 116 4 13 -26 39 -43 38 -6 0 -91 -48 -189
-107z"/>
<path d="M1090 705 c-96 -57 -175 -109 -175 -116 0 -8 12 -18 26 -23 23 -8 47
3 190 89 197 117 201 121 175 141 -11 8 -25 14 -30 14 -6 -1 -90 -47 -186
-105z"/>
</g>
</svg>
