<?xml version="1.0" standalone="no"?>
<!DOCTYPE svg PUBLIC "-//W3C//DTD SVG 20010904//EN"
 "http://www.w3.org/TR/2001/REC-SVG-20010904/DTD/svg10.dtd">
<svg version="1.0" xmlns="http://www.w3.org/2000/svg"
 width="192.000000pt" height="192.000000pt" viewBox="0 0 192.000000 192.000000"
 preserveAspectRatio="xMidYMid meet">
<metadata>
Created by potrace 1.16, written by Peter Selinger 2001-2019
</metadata>
<g transform="translate(0.000000,192.000000) scale(0.100000,-0.100000)"
fill="#000000" stroke="none">
811 c445 -92 729 -532 635 -987 -62 -301 -295 -546 -601 -630 -91 -26 -329
-26 -420 0 -291 80 -516 305 -596 596 -26 91 -26 329 0 420 120 433 542 692
982 601z"/>
<path d="M702 1353 c-13 -3 -43 -23 -67 -46 -74 -71 -71 -152 8 -250 75 -92
82 -116 82 -277 0 -137 1 -147 24 -179 27 -37 90 -70 136 -71 17 0 51 10 75
23 40 20 50 33 95 120 60 118 99 161 174 194 31 13 70 30 88 38 46 20 83 74
89 131 7 61 -24 128 -75 161 -31 21 -43 23 -170 20 -155 -2 -191 8 -279 82
-68 57 -105 68 -180 54z m301 -247 c103 -44 117 -180 24 -236 -91 -56 -207 11
-207 118 0 39 38 93 80 114 42 22 61 22 103 4z"/>
</g>
</svg>
