<?xml version="1.0" standalone="no"?>
<!DOCTYPE svg PUBLIC "-//W3C//DTD SVG 20010904//EN"
 "http://www.w3.org/TR/2001/REC-SVG-20010904/DTD/svg10.dtd">
<svg version="1.0" xmlns="http://www.w3.org/2000/svg"
 width="192.000000pt" height="192.000000pt" viewBox="0 0 192.000000 192.000000"
 preserveAspectRatio="xMidYMid meet">
<metadata>
Created by potrace 1.16, written by Peter Selinger 2001-2019
</metadata>
<g transform="translate(0.000000,192.000000) scale(0.100000,-0.100000)"
fill="#000000" stroke="none">
811 c445 -92 729 -532 635 -987 -62 -301 -295 -546 -601 -630 -91 -26 -329
-26 -420 0 -291 80 -516 305 -596 596 -26 91 -26 329 0 420 120 433 542 692
982 601z"/>
<path d="M852 1355 c-139 -39 -242 -139 -284 -279 -57 -189 36 -393 219 -478
201 -95 447 -4 541 200 36 79 43 212 14 294 -56 160 -195 264 -367 274 -44 2
-90 -2 -123 -11z m233 -164 c226 -127 153 -465 -105 -488 -182 -17 -328 155
-280 328 46 165 236 244 385 160z"/>
<path d="M927 1123 c-4 -3 -7 -32 -7 -64 l0 -58 -62 -3 c-58 -3 -63 -5 -66
-27 -5 -34 22 -51 80 -51 l48 0 0 -55 c0 -44 4 -56 20 -65 31 -17 60 19 60 75
l0 45 44 0 c58 0 94 27 77 58 -10 19 -20 22 -66 22 l-55 0 0 46 c0 25 -5 54
-10 65 -10 18 -50 26 -63 12z"/>
</g>
</svg>
