<?xml version="1.0" standalone="no"?>
<!DOCTYPE svg PUBLIC "-//W3C//DTD SVG 20010904//EN"
 "http://www.w3.org/TR/2001/REC-SVG-20010904/DTD/svg10.dtd">
<svg version="1.0" xmlns="http://www.w3.org/2000/svg"
 width="192.000000pt" height="192.000000pt" viewBox="0 0 192.000000 192.000000"
 preserveAspectRatio="xMidYMid meet">
<metadata>
Created by potrace 1.16, written by Peter Selinger 2001-2019
</metadata>
<g transform="translate(0.000000,192.000000) scale(0.100000,-0.100000)"
fill="#000000" stroke="none">
811 c445 -92 729 -532 635 -987 -62 -301 -295 -546 -601 -630 -91 -26 -329
-26 -420 0 -291 80 -516 305 -596 596 -26 91 -26 329 0 420 120 433 542 692
982 601z"/>
<path d="M991 1355 c-144 -32 -292 -92 -317 -130 -15 -23 -15 -27 0 -51 25
-37 42 -40 100 -14 85 38 220 89 235 90 7 0 -20 -22 -60 -49 -82 -54 -183
-137 -205 -170 -22 -30 -14 -65 14 -69 13 -2 63 13 112 32 48 20 103 39 122
42 30 6 27 2 -34 -40 -99 -68 -183 -149 -175 -169 11 -28 34 -20 131 50 52 37
132 88 178 113 68 37 84 50 86 72 5 40 -29 58 -107 58 -39 0 -61 4 -55 9 5 5
57 35 116 67 117 62 132 80 101 123 -37 49 -121 62 -242 36z"/>
<path d="M959 808 c-36 -38 -41 -40 -64 -30 -35 16 -60 15 -75 -2 -9 -12 -1
-33 45 -109 83 -140 99 -137 194 33 33 61 61 113 61 115 0 18 -38 35 -77 35
-41 0 -50 -4 -84 -42z"/>
</g>
</svg>
