<?xml version="1.0" standalone="no"?>
<!DOCTYPE svg PUBLIC "-//W3C//DTD SVG 20010904//EN"
 "http://www.w3.org/TR/2001/REC-SVG-20010904/DTD/svg10.dtd">
<svg version="1.0" xmlns="http://www.w3.org/2000/svg"
 width="192.000000pt" height="192.000000pt" viewBox="0 0 192.000000 192.000000"
 preserveAspectRatio="xMidYMid meet">
<metadata>
Created by potrace 1.16, written by Peter Selinger 2001-2019
</metadata>
<g transform="translate(0.000000,192.000000) scale(0.100000,-0.100000)"
fill="#000000" stroke="none">
811 c445 -92 729 -532 635 -987 -62 -301 -295 -546 -601 -630 -91 -26 -329
-26 -420 0 -291 80 -516 305 -596 596 -26 91 -26 329 0 420 120 433 542 692
982 601z"/>
<path d="M856 1347 c-46 -46 -44 -154 3 -250 l20 -39 -42 -92 c-22 -50 -45
-96 -50 -103 -4 -6 -37 -25 -72 -42 -72 -33 -147 -97 -165 -141 -25 -61 16
-120 83 -120 33 0 46 6 77 39 20 21 57 72 81 114 l44 76 61 15 c34 9 86 18
116 22 l55 6 61 -55 c75 -66 132 -86 186 -63 57 24 73 81 36 129 -25 31 -92
54 -187 63 l-72 6 -65 78 -65 77 20 62 c41 132 14 233 -64 239 -28 2 -42 -2
-61 -21z m74 -112 c0 -50 -14 -77 -23 -43 -9 31 -9 93 0 101 12 12 23 -16 23
-58z m39 -292 c22 -27 27 -39 18 -44 -20 -11 -97 -21 -97 -13 0 18 33 94 41
94 4 0 21 -17 38 -37z m289 -124 c38 -13 51 -39 19 -39 -21 0 -87 34 -87 45 0
8 35 6 68 -6z m-555 -109 c-22 -38 -71 -86 -79 -78 -13 14 10 51 48 79 23 16
43 29 45 29 2 0 -4 -14 -14 -30z"/>
</g>
</svg>
