<?xml version="1.0" standalone="no"?>
<!DOCTYPE svg PUBLIC "-//W3C//DTD SVG 20010904//EN"
 "http://www.w3.org/TR/2001/REC-SVG-20010904/DTD/svg10.dtd">
<svg version="1.0" xmlns="http://www.w3.org/2000/svg"
 width="192.000000pt" height="192.000000pt" viewBox="0 0 192.000000 192.000000"
 preserveAspectRatio="xMidYMid meet">
<metadata>
Created by potrace 1.16, written by Peter Selinger 2001-2019
</metadata>
<g transform="translate(0.000000,192.000000) scale(0.100000,-0.100000)"
fill="#000000" stroke="none">
811 c445 -92 729 -532 635 -987 -62 -301 -295 -546 -601 -630 -91 -26 -329
-26 -420 0 -291 80 -516 305 -596 596 -26 91 -26 329 0 420 120 433 542 692
982 601z"/>
<path d="M599 1333 c-11 -13 -15 -84 -17 -342 -2 -179 0 -341 3 -359 8 -41 43
-61 80 -44 l25 12 0 363 c0 269 -3 366 -12 375 -17 17 -63 15 -79 -5z"/>
<path d="M760 1270 c-19 -19 -20 -33 -20 -299 0 -154 3 -287 6 -296 11 -27 53
-38 80 -20 l24 15 0 295 c0 292 0 294 -22 309 -30 21 -44 20 -68 -4z"/>
<path d="M916 1204 c-14 -13 -16 -49 -16 -238 0 -203 2 -224 18 -239 24 -22
55 -21 75 1 15 16 17 48 17 240 0 239 -3 252 -55 252 -13 0 -31 -7 -39 -16z"/>
<path d="M1077 1142 c-15 -16 -17 -41 -17 -180 0 -155 1 -161 22 -176 12 -9
27 -16 33 -16 17 0 268 154 278 171 23 38 0 62 -129 138 -142 84 -162 91 -187
63z"/>
</g>
</svg>
