<?xml version="1.0" standalone="no"?>
<!DOCTYPE svg PUBLIC "-//W3C//DTD SVG 20010904//EN"
 "http://www.w3.org/TR/2001/REC-SVG-20010904/DTD/svg10.dtd">
<svg version="1.0" xmlns="http://www.w3.org/2000/svg"
 width="192.000000pt" height="192.000000pt" viewBox="0 0 192.000000 192.000000"
 preserveAspectRatio="xMidYMid meet">
<metadata>
Created by potrace 1.16, written by Peter Selinger 2001-2019
</metadata>
<g transform="translate(0.000000,192.000000) scale(0.100000,-0.100000)"
fill="#000000" stroke="none">
811 c445 -92 729 -532 635 -987 -62 -301 -295 -546 -601 -630 -91 -26 -329
-26 -420 0 -291 80 -516 305 -596 596 -26 91 -26 329 0 420 120 433 542 692
982 601z"/>
<path d="M711 1329 c-44 -18 -82 -51 -104 -92 -21 -40 -22 -53 -22 -272 0
-220 1 -232 23 -272 12 -24 41 -55 64 -70 l41 -28 216 -3 c119 -2 231 0 249 3
40 7 110 68 129 112 19 47 19 470 -1 516 -17 39 -71 92 -109 106 -35 14 -452
14 -486 0z m307 -259 c32 -20 32 -20 32 0 0 18 7 20 63 20 73 0 102 -16 124
-67 11 -27 12 -42 3 -69 -13 -37 -53 -74 -81 -74 -14 0 -19 -7 -19 -30 0 -29
-2 -30 -45 -30 -38 0 -45 3 -45 20 l0 20 -37 -20 c-25 -13 -57 -20 -95 -20
-58 0 -58 0 -58 30 0 28 -3 30 -35 30 -28 0 -37 -5 -50 -30 -14 -27 -20 -30
-66 -30 -37 0 -50 4 -47 13 2 7 35 68 73 135 l70 122 90 0 c72 0 96 -4 123
-20z"/>
<path d="M807 1024 c-62 -100 -98 -174 -85 -174 8 0 22 14 31 30 17 28 22 30
78 30 56 0 59 -1 59 -25 0 -14 7 -28 15 -31 27 -11 86 7 112 32 35 35 63 32
63 -7 0 -38 24 -35 28 4 3 21 9 27 26 27 39 0 76 37 76 75 0 44 -38 75 -91 75
l-39 0 0 -45 c0 -34 -4 -45 -15 -45 -9 0 -19 10 -24 23 -18 47 -48 62 -131 65
l-78 4 -25 -38z m83 -39 l0 -45 -50 0 c-40 0 -48 3 -44 15 4 9 19 15 35 15 26
0 29 4 29 30 0 20 5 30 15 30 11 0 15 -12 15 -45z m110 25 c44 -44 9 -130 -52
-130 -38 0 -37 26 2 33 55 11 50 87 -6 87 -15 0 -24 6 -24 15 0 22 56 19 80
-5z m181 -1 c18 -34 -3 -69 -41 -69 -20 0 -30 5 -30 15 0 8 9 15 20 15 11 0
20 7 20 15 0 8 -9 15 -20 15 -11 0 -20 7 -20 15 0 24 57 19 71 -6z"/>
</g>
</svg>
