<?xml version="1.0" standalone="no"?>
<!DOCTYPE svg PUBLIC "-//W3C//DTD SVG 20010904//EN"
 "http://www.w3.org/TR/2001/REC-SVG-20010904/DTD/svg10.dtd">
<svg version="1.0" xmlns="http://www.w3.org/2000/svg"
 width="192.000000pt" height="192.000000pt" viewBox="0 0 192.000000 192.000000"
 preserveAspectRatio="xMidYMid meet">
<metadata>
Created by potrace 1.16, written by Peter Selinger 2001-2019
</metadata>
<g transform="translate(0.000000,192.000000) scale(0.100000,-0.100000)"
fill="#000000" stroke="none">
811 c445 -92 729 -532 635 -987 -62 -301 -295 -546 -601 -630 -91 -26 -329
-26 -420 0 -291 80 -516 305 -596 596 -26 91 -26 329 0 420 120 433 542 692
982 601z"/>
<path d="M933 1341 c-20 -5 -217 -161 -280 -221 -43 -40 -19 -110 38 -110 15
0 66 34 143 95 65 52 121 95 125 95 3 0 59 -43 125 -95 125 -100 151 -110 186
-75 31 31 25 59 -25 106 -44 40 -45 43 -45 100 0 76 -19 106 -63 102 -28 -3
-32 -7 -35 -35 -2 -18 -6 -33 -10 -33 -4 0 -27 16 -51 35 -24 19 -47 35 -52
35 -4 0 -13 2 -21 4 -7 2 -23 1 -35 -3z"/>
<path d="M575 998 c-63 -35 -51 -64 95 -240 121 -147 152 -178 180 -178 6 0
30 18 54 40 24 22 47 40 51 40 4 0 27 -18 51 -40 24 -22 48 -40 54 -40 28 0
59 31 180 178 127 153 145 184 122 218 -13 19 -52 35 -72 29 -10 -3 -65 -62
-121 -130 -56 -69 -105 -125 -109 -125 -3 0 -21 16 -40 35 -24 25 -43 35 -65
35 -22 0 -41 -10 -65 -35 -19 -19 -37 -35 -40 -35 -4 0 -53 56 -109 124 -115
140 -125 147 -166 124z"/>
</g>
</svg>
