<?xml version="1.0" standalone="no"?>
<!DOCTYPE svg PUBLIC "-//W3C//DTD SVG 20010904//EN"
 "http://www.w3.org/TR/2001/REC-SVG-20010904/DTD/svg10.dtd">
<svg version="1.0" xmlns="http://www.w3.org/2000/svg"
 width="192.000000pt" height="192.000000pt" viewBox="0 0 192.000000 192.000000"
 preserveAspectRatio="xMidYMid meet">
<metadata>
Created by potrace 1.16, written by Peter Selinger 2001-2019
</metadata>
<g transform="translate(0.000000,192.000000) scale(0.100000,-0.100000)"
fill="#000000" stroke="none">
811 c445 -92 729 -532 635 -987 -62 -301 -295 -546 -601 -630 -91 -26 -329
-26 -420 0 -291 80 -516 305 -596 596 -26 91 -26 329 0 420 120 433 542 692
982 601z"/>
<path d="M924 1339 c-30 -15 -394 -651 -394 -689 0 -49 56 -84 98 -61 11 6 86
126 167 268 82 142 151 262 155 266 4 5 76 -111 160 -257 83 -146 161 -271
172 -277 42 -23 98 12 98 61 0 20 -61 136 -182 347 -99 175 -186 323 -192 330
-16 17 -58 24 -82 12z"/>
<path d="M897 950 c-18 -14 -27 -31 -27 -50 0 -27 116 -247 153 -290 36 -42
117 -11 117 45 0 23 -127 265 -154 292 -23 24 -61 25 -89 3z"/>
<path d="M775 745 c-30 -29 -31 -47 -5 -102 13 -29 27 -44 44 -49 38 -9 71 2
86 31 27 50 -27 145 -82 145 -10 0 -30 -11 -43 -25z"/>
</g>
</svg>
