<?xml version="1.0" standalone="no"?>
<!DOCTYPE svg PUBLIC "-//W3C//DTD SVG 20010904//EN"
 "http://www.w3.org/TR/2001/REC-SVG-20010904/DTD/svg10.dtd">
<svg version="1.0" xmlns="http://www.w3.org/2000/svg"
 width="192.000000pt" height="192.000000pt" viewBox="0 0 192.000000 192.000000"
 preserveAspectRatio="xMidYMid meet">
<metadata>
Created by potrace 1.16, written by Peter Selinger 2001-2019
</metadata>
<g transform="translate(0.000000,192.000000) scale(0.100000,-0.100000)"
fill="#000000" stroke="none">
811 c445 -92 729 -532 635 -987 -62 -301 -295 -546 -601 -630 -91 -26 -329
-26 -420 0 -291 80 -516 305 -596 596 -26 91 -26 329 0 420 120 433 542 692
982 601z"/>
<path d="M870 1347 c-157 -86 -235 -136 -238 -153 -2 -15 31 -38 144 -104 81
-47 155 -89 164 -93 12 -6 58 19 173 94 86 56 157 105 157 109 0 13 -34 36
-145 100 -134 76 -184 86 -255 47z"/>
<path d="M1137 1044 l-157 -104 2 -187 c3 -158 5 -188 18 -191 27 -5 283 152
308 188 22 32 22 41 20 214 -3 152 -5 181 -18 183 -8 1 -86 -45 -173 -103z"/>
<path d="M587 1123 c-4 -3 -7 -81 -7 -173 0 -157 1 -169 23 -200 24 -36 281
-193 307 -188 13 3 15 32 15 192 l0 189 -160 93 c-167 98 -168 98 -178 87z"/>
</g>
</svg>
