<?xml version="1.0" standalone="no"?>
<!DOCTYPE svg PUBLIC "-//W3C//DTD SVG 20010904//EN"
 "http://www.w3.org/TR/2001/REC-SVG-20010904/DTD/svg10.dtd">
<svg version="1.0" xmlns="http://www.w3.org/2000/svg"
 width="192.000000pt" height="192.000000pt" viewBox="0 0 192.000000 192.000000"
 preserveAspectRatio="xMidYMid meet">
<metadata>
Created by potrace 1.16, written by Peter Selinger 2001-2019
</metadata>
<g transform="translate(0.000000,192.000000) scale(0.100000,-0.100000)"
fill="#000000" stroke="none">
811 c445 -92 729 -532 635 -987 -62 -301 -295 -546 -601 -630 -91 -26 -329
-26 -420 0 -291 80 -516 305 -596 596 -26 91 -26 329 0 420 120 433 542 692
982 601z"/>
<path d="M836 1354 c-24 -24 -19 -38 24 -67 24 -17 23 -17 -43 -17 -37 0 -82
-6 -100 -13 -31 -13 -107 -88 -107 -106 0 -4 18 -3 40 2 33 9 47 8 86 -9 63
-26 86 -59 86 -122 0 -104 -77 -179 -174 -170 l-50 5 4 -87 c3 -81 6 -91 34
-127 17 -21 48 -48 70 -60 37 -21 50 -23 250 -23 202 0 213 1 255 23 29 15 54
40 73 71 27 43 30 57 34 157 3 60 1 109 -3 109 -4 0 -35 -16 -69 -35 -117 -65
-149 -46 -160 97 -11 170 25 203 154 138 33 -16 62 -30 65 -30 15 0 1 52 -24
92 -36 57 -96 88 -172 89 l-54 0 43 22 c36 18 42 26 40 47 -5 38 -33 36 -113
-6 l-73 -38 -41 37 c-46 42 -53 44 -75 21z m192 -287 c17 -18 23 -40 28 -110
9 -116 1 -127 -103 -127 -61 0 -76 3 -94 21 -18 18 -21 29 -15 73 3 28 6 66 6
84 0 53 37 82 103 82 43 0 58 -5 75 -23z m-161 -323 c45 -22 62 -26 104 -21
28 4 67 16 86 27 42 25 73 19 73 -15 0 -18 -12 -31 -45 -50 -83 -49 -218 -43
-285 14 -29 24 -31 30 -21 49 15 28 22 28 88 -4z"/>
<path d="M658 1048 c-31 -24 -27 -74 7 -90 38 -17 75 3 75 41 0 51 -45 77 -82
49z"/>
<path d="M1170 1040 c-24 -24 -25 -38 -4 -68 18 -27 55 -29 77 -4 22 24 21 55
-1 75 -25 22 -48 21 -72 -3z"/>
</g>
</svg>
