<?xml version="1.0" standalone="no"?>
<!DOCTYPE svg PUBLIC "-//W3C//DTD SVG 20010904//EN"
 "http://www.w3.org/TR/2001/REC-SVG-20010904/DTD/svg10.dtd">
<svg version="1.0" xmlns="http://www.w3.org/2000/svg"
 width="192.000000pt" height="192.000000pt" viewBox="0 0 192.000000 192.000000"
 preserveAspectRatio="xMidYMid meet">
<metadata>
Created by potrace 1.16, written by Peter Selinger 2001-2019
</metadata>
<g transform="translate(0.000000,192.000000) scale(0.100000,-0.100000)"
fill="#000000" stroke="none">
811 c445 -92 729 -532 635 -987 -62 -301 -295 -546 -601 -630 -91 -26 -329
-26 -420 0 -291 80 -516 305 -596 596 -26 91 -26 329 0 420 120 433 542 692
982 601z"/>
<path d="M870 1369 c-70 -14 -151 -58 -208 -116 -198 -198 -140 -529 115 -655
64 -31 73 -33 178 -33 104 0 114 2 176 32 80 40 159 120 197 200 24 52 27 69
27 168 0 105 -2 114 -33 178 -85 171 -266 262 -452 226z m206 -186 c92 -121
105 -130 138 -97 26 25 19 54 -30 116 -49 63 -50 70 -3 36 79 -59 137 -201
125 -308 -9 -75 -56 -168 -112 -220 -125 -115 -303 -129 -441 -34 -29 20 -53
38 -53 39 0 1 11 0 25 -3 14 -2 32 1 40 8 28 23 16 60 -40 132 -30 38 -55 74
-55 80 0 26 23 48 49 48 24 0 39 -14 97 -90 72 -94 91 -108 122 -91 40 21 33
48 -30 132 -54 72 -59 83 -49 105 17 37 57 32 95 -13 27 -30 36 -35 59 -29 43
10 46 49 9 99 -85 114 -86 116 -74 142 8 18 19 25 40 25 25 0 39 -12 88 -77z"/>
</g>
</svg>
