<?xml version="1.0" standalone="no"?>
<!DOCTYPE svg PUBLIC "-//W3C//DTD SVG 20010904//EN"
 "http://www.w3.org/TR/2001/REC-SVG-20010904/DTD/svg10.dtd">
<svg version="1.0" xmlns="http://www.w3.org/2000/svg"
 width="192.000000pt" height="192.000000pt" viewBox="0 0 192.000000 192.000000"
 preserveAspectRatio="xMidYMid meet">
<metadata>
Created by potrace 1.16, written by Peter Selinger 2001-2019
</metadata>
<g transform="translate(0.000000,192.000000) scale(0.100000,-0.100000)"
fill="#000000" stroke="none">
811 c445 -92 729 -532 635 -987 -62 -301 -295 -546 -601 -630 -91 -26 -329
-26 -420 0 -291 80 -516 305 -596 596 -26 91 -26 329 0 420 120 433 542 692
982 601z"/>
<path d="M856 1365 c-52 -18 -88 -45 -104 -78 -7 -15 -27 -30 -48 -37 -47 -16
-100 -64 -126 -114 -27 -52 -30 -142 -6 -178 13 -20 16 -38 11 -76 -8 -72 17
-141 71 -190 46 -42 104 -67 134 -58 12 4 26 -2 38 -15 75 -85 272 -75 325 16
13 21 35 38 64 49 79 31 145 127 145 213 0 35 -19 93 -30 93 -4 0 -5 29 -3 64
7 78 -8 126 -55 178 -44 48 -80 68 -126 68 -23 0 -50 10 -79 31 -68 48 -140
59 -211 34z m156 -83 c41 -24 72 -93 66 -147 -7 -61 -68 -141 -68 -89 0 73
-67 165 -145 200 l-50 22 45 21 c51 24 104 22 152 -7z m189 -79 c88 -74 74
-204 -26 -253 -34 -16 -57 -21 -87 -17 -22 3 -42 8 -45 11 -3 2 11 19 32 37
63 55 96 149 76 217 -12 41 5 43 50 5z m-374 -24 c15 -5 40 -22 55 -36 26 -25
55 -79 46 -88 -2 -2 -24 3 -48 11 -74 26 -168 6 -227 -49 l-23 -20 0 45 c0
102 102 173 197 137z m31 -185 c21 -6 20 -8 -22 -45 -56 -49 -79 -107 -74
-183 4 -67 -8 -72 -57 -23 -37 37 -61 102 -51 140 9 35 54 87 91 103 32 14 77
17 113 8z m432 -97 c-1 -35 -35 -102 -65 -125 -80 -63 -215 -13 -240 91 -8 32
-8 32 38 12 53 -22 124 -19 183 9 28 13 55 29 58 35 11 17 26 3 26 -22z m-345
-123 c22 -35 45 -56 85 -77 30 -15 56 -30 58 -32 10 -9 -62 -35 -98 -35 -113
0 -182 88 -151 192 7 22 25 52 39 67 l27 26 5 -46 c3 -26 19 -68 35 -95z"/>
</g>
</svg>
