<?xml version="1.0" standalone="no"?>
<!DOCTYPE svg PUBLIC "-//W3C//DTD SVG 20010904//EN"
 "http://www.w3.org/TR/2001/REC-SVG-20010904/DTD/svg10.dtd">
<svg version="1.0" xmlns="http://www.w3.org/2000/svg"
 width="192.000000pt" height="192.000000pt" viewBox="0 0 192.000000 192.000000"
 preserveAspectRatio="xMidYMid meet">
<metadata>
Created by potrace 1.16, written by Peter Selinger 2001-2019
</metadata>
<g transform="translate(0.000000,192.000000) scale(0.100000,-0.100000)"
fill="#000000" stroke="none">
811 c445 -92 729 -532 635 -987 -62 -301 -295 -546 -601 -630 -91 -26 -329
-26 -420 0 -291 80 -516 305 -596 596 -26 91 -26 329 0 420 120 433 542 692
982 601z"/>
<path d="M955 1308 c-39 -21 -55 -51 -55 -104 0 -55 19 -84 57 -84 25 0 53 30
53 58 0 12 4 22 9 22 19 0 211 -114 208 -124 -4 -12 -187 -116 -204 -116 -8 0
-13 12 -13 29 0 62 -80 118 -142 100 -16 -4 -88 -42 -162 -83 -110 -63 -136
-82 -150 -111 -25 -51 -8 -107 42 -139 81 -52 257 -148 283 -153 36 -7 96 23
114 58 8 15 15 50 15 78 0 40 -4 53 -22 65 -42 30 -79 11 -93 -46 -4 -16 -10
-28 -12 -28 -10 0 -213 115 -213 120 0 7 210 123 214 119 2 -2 9 -24 17 -48
16 -50 49 -79 99 -87 30 -4 56 7 183 77 157 88 177 107 177 172 0 19 -9 46
-20 60 -11 14 -81 59 -155 101 -139 78 -182 91 -230 64z"/>
</g>
</svg>
