<?xml version="1.0" standalone="no"?>
<!DOCTYPE svg PUBLIC "-//W3C//DTD SVG 20010904//EN"
 "http://www.w3.org/TR/2001/REC-SVG-20010904/DTD/svg10.dtd">
<svg version="1.0" xmlns="http://www.w3.org/2000/svg"
 width="192.000000pt" height="192.000000pt" viewBox="0 0 192.000000 192.000000"
 preserveAspectRatio="xMidYMid meet">
<metadata>
Created by potrace 1.16, written by Peter Selinger 2001-2019
</metadata>
<g transform="translate(0.000000,192.000000) scale(0.100000,-0.100000)"
fill="#000000" stroke="none">
811 c445 -92 729 -532 635 -987 -62 -301 -295 -546 -601 -630 -91 -26 -329
-26 -420 0 -291 80 -516 305 -596 596 -26 91 -26 329 0 420 120 433 542 692
982 601z"/>
<path d="M735 1331 c-54 -14 -95 -41 -123 -83 l-27 -42 0 -241 0 -241 28 -42
c15 -23 46 -52 70 -64 40 -22 52 -23 272 -23 198 0 234 2 261 17 44 24 91 81
103 125 14 49 14 407 0 456 -12 43 -59 101 -99 122 -37 19 -95 22 -114 6 -13
-11 -16 -37 -16 -147 0 -85 -4 -135 -11 -140 -6 -3 -31 13 -55 37 l-44 43 -44
-43 c-24 -24 -49 -40 -55 -37 -7 5 -11 57 -11 147 l0 139 -26 10 c-29 11 -65
11 -109 1z"/>
</g>
</svg>
