<?xml version="1.0" standalone="no"?>
<!DOCTYPE svg PUBLIC "-//W3C//DTD SVG 20010904//EN"
 "http://www.w3.org/TR/2001/REC-SVG-20010904/DTD/svg10.dtd">
<svg version="1.0" xmlns="http://www.w3.org/2000/svg"
 width="192.000000pt" height="192.000000pt" viewBox="0 0 192.000000 192.000000"
 preserveAspectRatio="xMidYMid meet">
<metadata>
Created by potrace 1.16, written by Peter Selinger 2001-2019
</metadata>
<g transform="translate(0.000000,192.000000) scale(0.100000,-0.100000)"
fill="#000000" stroke="none">
811 c445 -92 729 -532 635 -987 -62 -301 -295 -546 -601 -630 -91 -26 -329
-26 -420 0 -291 80 -516 305 -596 596 -26 91 -26 329 0 420 120 433 542 692
982 601z"/>
<path d="M503 1050 c-47 -20 -57 -87 -18 -125 69 -70 180 29 118 104 -21 24
-68 35 -100 21z"/>
<path d="M695 1035 c-16 -15 -25 -36 -25 -55 0 -19 9 -40 25 -55 15 -16 36
-25 55 -25 36 0 80 38 80 69 0 77 -84 118 -135 66z"/>
<path d="M906 1039 c-20 -16 -26 -29 -26 -59 0 -83 108 -112 145 -39 21 40 19
57 -14 90 -35 34 -68 37 -105 8z"/>
<path d="M1114 1037 c-35 -31 -37 -77 -4 -112 48 -51 133 -15 133 57 0 37 -41
78 -78 78 -13 0 -36 -11 -51 -23z"/>
<path d="M1319 1031 c-31 -32 -35 -50 -17 -84 26 -50 77 -61 122 -26 20 16 26
29 26 59 0 30 -6 43 -26 59 -37 29 -70 26 -105 -8z"/>
</g>
</svg>
