<?xml version="1.0" standalone="no"?>
<!DOCTYPE svg PUBLIC "-//W3C//DTD SVG 20010904//EN"
 "http://www.w3.org/TR/2001/REC-SVG-20010904/DTD/svg10.dtd">
<svg version="1.0" xmlns="http://www.w3.org/2000/svg"
 width="192.000000pt" height="192.000000pt" viewBox="0 0 192.000000 192.000000"
 preserveAspectRatio="xMidYMid meet">
<metadata>
Created by potrace 1.16, written by Peter Selinger 2001-2019
</metadata>
<g transform="translate(0.000000,192.000000) scale(0.100000,-0.100000)"
fill="#000000" stroke="none">
811 c445 -92 729 -532 635 -987 -62 -301 -295 -546 -601 -630 -91 -26 -329
-26 -420 0 -291 80 -516 305 -596 596 -26 91 -26 329 0 420 120 433 542 692
982 601z"/>
<path d="M1103 1179 l-52 -52 -36 31 c-29 26 -39 30 -55 22 -34 -18 -24 -54
30 -104 27 -25 53 -46 57 -46 5 0 44 36 88 80 67 68 78 83 69 98 -21 32 -47
24 -101 -29z"/>
<path d="M827 1083 c-4 -3 -7 -91 -7 -195 l0 -188 50 0 50 0 0 100 c0 97 1
100 24 106 14 3 30 3 35 -1 7 -4 11 -47 11 -106 l0 -99 50 0 50 0 0 115 c0
110 -1 117 -25 140 -20 21 -34 25 -85 25 l-60 0 0 55 0 55 -43 0 c-24 0 -47
-3 -50 -7z"/>
<path d="M1225 1035 c-5 -2 -27 -6 -48 -10 -36 -6 -38 -8 -35 -38 3 -32 4 -32
51 -29 49 3 77 -9 77 -34 0 -10 -14 -14 -45 -14 -51 0 -99 -20 -109 -45 -14
-37 -6 -82 19 -105 31 -29 125 -39 193 -21 l42 12 0 99 c0 110 -8 142 -42 164
-24 15 -85 28 -103 21z m43 -208 c4 -31 -20 -47 -46 -30 -23 14 -25 29 -6 47
23 24 48 16 52 -17z"/>
<path d="M593 1020 c-25 -10 -26 -13 -17 -48 6 -21 11 -23 45 -17 49 8 79 -1
79 -26 0 -16 -7 -19 -51 -19 -43 0 -55 -5 -80 -29 -48 -48 -36 -111 26 -137
40 -17 115 -18 168 -3 l37 10 0 110 c0 109 0 111 -29 140 -27 26 -36 29 -93
28 -35 0 -73 -4 -85 -9z m105 -198 c3 -31 2 -33 -25 -30 -21 2 -29 9 -31 27
-4 25 13 43 38 38 9 -1 16 -15 18 -35z"/>
</g>
</svg>
