<?xml version="1.0" standalone="no"?>
<!DOCTYPE svg PUBLIC "-//W3C//DTD SVG 20010904//EN"
 "http://www.w3.org/TR/2001/REC-SVG-20010904/DTD/svg10.dtd">
<svg version="1.0" xmlns="http://www.w3.org/2000/svg"
 width="192.000000pt" height="192.000000pt" viewBox="0 0 192.000000 192.000000"
 preserveAspectRatio="xMidYMid meet">
<metadata>
Created by potrace 1.16, written by Peter Selinger 2001-2019
</metadata>
<g transform="translate(0.000000,192.000000) scale(0.100000,-0.100000)"
fill="#000000" stroke="none">
811 c445 -92 729 -532 635 -987 -62 -301 -295 -546 -601 -630 -91 -26 -329
-26 -420 0 -291 80 -516 305 -596 596 -26 91 -26 329 0 420 120 433 542 692
982 601z"/>
<path d="M1263 1290 c-27 -11 -49 -54 -93 -178 -18 -51 -34 -91 -35 -90 -2 2
-19 42 -40 91 -55 128 -127 179 -229 163 -82 -14 -126 -56 -169 -166 -128
-328 -156 -410 -148 -433 13 -34 36 -49 73 -45 43 4 64 37 112 178 l39 113 48
-101 c43 -90 54 -104 95 -128 104 -61 233 -17 281 96 59 138 163 421 163 441
0 44 -54 76 -97 59z m-302 -239 c41 -84 59 -101 106 -101 18 0 33 -4 33 -10 0
-5 -11 -34 -24 -64 -40 -90 -86 -86 -125 11 -33 80 -56 103 -103 103 -21 0
-38 4 -38 9 0 14 39 103 52 119 6 7 23 12 37 10 21 -2 32 -16 62 -77z"/>
</g>
</svg>
