<?xml version="1.0" standalone="no"?>
<!DOCTYPE svg PUBLIC "-//W3C//DTD SVG 20010904//EN"
 "http://www.w3.org/TR/2001/REC-SVG-20010904/DTD/svg10.dtd">
<svg version="1.0" xmlns="http://www.w3.org/2000/svg"
 width="192.000000pt" height="192.000000pt" viewBox="0 0 192.000000 192.000000"
 preserveAspectRatio="xMidYMid meet">
<metadata>
Created by potrace 1.16, written by Peter Selinger 2001-2019
</metadata>
<g transform="translate(0.000000,192.000000) scale(0.100000,-0.100000)"
fill="#000000" stroke="none">
811 c445 -92 729 -532 635 -987 -62 -301 -295 -546 -601 -630 -91 -26 -329
-26 -420 0 -291 80 -516 305 -596 596 -26 91 -26 329 0 420 120 433 542 692
982 601z"/>
<path d="M668 1311 c-30 -19 -52 -44 -67 -73 -20 -41 -21 -60 -21 -271 0 -239
4 -263 48 -311 56 -60 84 -66 327 -66 209 0 223 1 265 23 24 12 58 39 74 60
l31 39 3 240 c3 229 2 241 -19 285 -15 30 -37 55 -67 74 l-46 29 -241 0 -241
0 -46 -29z m548 -85 l34 -34 0 -173 0 -174 -55 83 c-48 71 -59 82 -84 82 -34
0 -58 -25 -127 -136 -47 -75 -48 -76 -63 -55 -73 111 -87 126 -118 129 -30 3
-35 -2 -87 -80 l-56 -83 0 204 0 203 34 34 34 34 227 0 227 0 34 -34z"/>
<path d="M739 1181 c-32 -33 -37 -67 -14 -110 29 -56 103 -64 151 -16 55 55 9
155 -71 155 -27 0 -44 -8 -66 -29z"/>
</g>
</svg>
