<?xml version="1.0" standalone="no"?>
<!DOCTYPE svg PUBLIC "-//W3C//DTD SVG 20010904//EN"
 "http://www.w3.org/TR/2001/REC-SVG-20010904/DTD/svg10.dtd">
<svg version="1.0" xmlns="http://www.w3.org/2000/svg"
 width="192.000000pt" height="192.000000pt" viewBox="0 0 192.000000 192.000000"
 preserveAspectRatio="xMidYMid meet">
<metadata>
Created by potrace 1.16, written by Peter Selinger 2001-2019
</metadata>
<g transform="translate(0.000000,192.000000) scale(0.100000,-0.100000)"
fill="#000000" stroke="none">
811 c445 -92 729 -532 635 -987 -62 -301 -295 -546 -601 -630 -91 -26 -329
-26 -420 0 -291 80 -516 305 -596 596 -26 91 -26 329 0 420 120 433 542 692
982 601z"/>
<path d="M884 1339 c-27 -10 -62 -31 -76 -47 -28 -29 -197 -316 -223 -378 -19
-47 -19 -82 1 -130 24 -59 61 -102 107 -127 39 -20 57 -22 243 -25 129 -2 217
1 244 8 55 15 124 79 146 136 31 81 19 123 -92 315 -108 188 -142 230 -212
253 -58 20 -75 20 -138 -5z m117 -141 c9 -7 22 -24 31 -39 16 -25 14 -29 -88
-195 -57 -93 -112 -175 -122 -182 -38 -28 -102 15 -102 68 0 32 158 314 192
343 24 20 68 22 89 5z m163 -267 c41 -67 45 -98 16 -129 -26 -28 -51 -34 -127
-30 l-62 3 66 108 c37 59 67 107 69 107 1 0 19 -26 38 -59z"/>
</g>
</svg>
