<?xml version="1.0" standalone="no"?>
<!DOCTYPE svg PUBLIC "-//W3C//DTD SVG 20010904//EN"
 "http://www.w3.org/TR/2001/REC-SVG-20010904/DTD/svg10.dtd">
<svg version="1.0" xmlns="http://www.w3.org/2000/svg"
 width="192.000000pt" height="192.000000pt" viewBox="0 0 192.000000 192.000000"
 preserveAspectRatio="xMidYMid meet">
<metadata>
Created by potrace 1.16, written by Peter Selinger 2001-2019
</metadata>
<g transform="translate(0.000000,192.000000) scale(0.100000,-0.100000)"
fill="#000000" stroke="none">
811 c445 -92 729 -532 635 -987 -62 -301 -295 -546 -601 -630 -91 -26 -329
-26 -420 0 -291 80 -516 305 -596 596 -26 91 -26 329 0 420 120 433 542 692
982 601z"/>
<path d="M581 1254 c-20 -25 -21 -39 -21 -289 0 -250 1 -264 21 -289 l20 -26
150 0 c199 0 189 -10 189 194 l0 155 -26 20 c-23 18 -41 21 -120 21 l-94 0 0
50 0 50 49 0 c46 0 49 -2 55 -30 l6 -31 62 3 63 3 3 77 c4 116 1 118 -187 118
l-150 0 -20 -26z m219 -414 l0 -50 -50 0 -50 0 0 50 0 50 50 0 50 0 0 -50z"/>
<path d="M982 1268 c-8 -8 -12 -61 -12 -170 0 -155 1 -159 25 -183 22 -23 32
-25 120 -25 l95 0 0 -108 c0 -71 4 -112 12 -120 16 -16 100 -16 116 0 17 17
17 589 0 606 -16 16 -100 16 -116 0 -8 -8 -12 -49 -12 -120 l0 -108 -50 0 -50
0 0 108 c0 71 -4 112 -12 120 -7 7 -33 12 -58 12 -25 0 -51 -5 -58 -12z"/>
</g>
</svg>
