<?xml version="1.0" standalone="no"?>
<!DOCTYPE svg PUBLIC "-//W3C//DTD SVG 20010904//EN"
 "http://www.w3.org/TR/2001/REC-SVG-20010904/DTD/svg10.dtd">
<svg version="1.0" xmlns="http://www.w3.org/2000/svg"
 width="192.000000pt" height="192.000000pt" viewBox="0 0 192.000000 192.000000"
 preserveAspectRatio="xMidYMid meet">
<metadata>
Created by potrace 1.16, written by Peter Selinger 2001-2019
</metadata>
<g transform="translate(0.000000,192.000000) scale(0.100000,-0.100000)"
fill="#000000" stroke="none">
811 c445 -92 729 -532 635 -987 -62 -301 -295 -546 -601 -630 -91 -26 -329
-26 -420 0 -291 80 -516 305 -596 596 -26 91 -26 329 0 420 120 433 542 692
982 601z"/>
<path d="M671 1317 c-46 -23 -61 -56 -67 -154 -7 -87 -9 -93 -40 -124 -48 -47
-48 -96 1 -140 32 -30 35 -37 35 -89 0 -92 17 -162 44 -186 32 -29 115 -40
153 -22 24 11 28 19 28 52 0 40 -3 43 -57 65 -27 10 -28 13 -28 86 0 80 -18
141 -45 151 -14 6 -13 8 4 21 27 18 41 73 41 156 0 56 3 69 18 73 48 14 67 31
70 61 4 45 -19 63 -81 63 -29 0 -63 -6 -76 -13z"/>
<path d="M1095 1314 c-10 -10 -15 -29 -13 -47 3 -30 22 -47 71 -61 14 -4 17
-17 17 -73 0 -83 14 -138 41 -156 17 -13 18 -15 4 -21 -27 -10 -45 -71 -45
-151 0 -73 -1 -76 -27 -86 -55 -22 -58 -25 -58 -65 0 -33 4 -41 28 -52 38 -18
121 -7 153 22 27 24 44 94 44 186 0 52 3 59 35 89 49 44 49 93 1 140 -31 31
-33 37 -40 124 -6 98 -21 131 -67 154 -36 19 -124 16 -144 -3z"/>
<path d="M901 1115 c-18 -8 -44 -12 -57 -9 -24 6 -34 -9 -14 -21 6 -4 4 -17
-5 -35 -10 -20 -15 -60 -15 -128 0 -90 2 -100 23 -120 21 -20 34 -22 128 -22
97 0 107 2 127 23 20 21 22 34 22 121 0 67 -5 106 -15 126 -9 18 -11 31 -5 35
20 12 10 27 -14 21 -13 -3 -40 1 -60 9 -44 19 -71 18 -115 0z m22 -90 c-4 -15
-26 -12 -31 3 -3 9 2 13 14 10 11 -2 18 -8 17 -13z m107 6 c0 -14 -18 -23 -30
-16 -6 4 -8 11 -5 16 8 12 35 12 35 0z"/>
</g>
</svg>
