<?xml version="1.0" standalone="no"?>
<!DOCTYPE svg PUBLIC "-//W3C//DTD SVG 20010904//EN"
 "http://www.w3.org/TR/2001/REC-SVG-20010904/DTD/svg10.dtd">
<svg version="1.0" xmlns="http://www.w3.org/2000/svg"
 width="192.000000pt" height="192.000000pt" viewBox="0 0 192.000000 192.000000"
 preserveAspectRatio="xMidYMid meet">
<metadata>
Created by potrace 1.16, written by Peter Selinger 2001-2019
</metadata>
<g transform="translate(0.000000,192.000000) scale(0.100000,-0.100000)"
fill="#000000" stroke="none">
811 c445 -92 729 -532 635 -987 -62 -301 -295 -546 -601 -630 -91 -26 -329
-26 -420 0 -291 80 -516 305 -596 596 -26 91 -26 329 0 420 120 433 542 692
982 601z"/>
<path d="M560 1310 c-24 -24 -25 -38 -4 -68 14 -20 23 -22 114 -22 107 0 130
10 130 55 0 41 -34 55 -132 55 -75 0 -91 -3 -108 -20z"/>
<path d="M840 1310 c-24 -24 -25 -38 -4 -68 14 -20 23 -22 114 -22 76 0 102 4
114 16 22 21 20 50 -4 74 -17 17 -33 20 -110 20 -77 0 -93 -3 -110 -20z"/>
<path d="M1127 1312 c-20 -22 -22 -63 -5 -80 16 -16 210 -16 226 0 18 18 14
63 -6 81 -28 26 -192 24 -215 -1z"/>
<path d="M556 1157 c-20 -29 -10 -66 21 -78 13 -5 60 -9 104 -9 66 0 82 3 99
20 22 22 25 42 10 71 -10 17 -22 19 -115 19 -98 0 -106 -1 -119 -23z"/>
<path d="M835 1160 c-23 -26 -13 -68 21 -80 14 -6 61 -10 105 -10 66 0 82 3
99 20 22 22 25 42 10 71 -10 17 -22 19 -114 19 -89 0 -105 -3 -121 -20z"/>
<path d="M1122 1168 c-7 -7 -12 -24 -12 -39 0 -44 32 -59 125 -59 93 0 125 15
125 59 0 15 -5 32 -12 39 -16 16 -210 16 -226 0z"/>
<path d="M560 1020 c-24 -24 -25 -38 -4 -68 14 -20 23 -22 113 -22 105 0 131
11 131 57 0 41 -30 53 -128 53 -79 0 -95 -3 -112 -20z"/>
<path d="M840 1020 c-24 -24 -25 -38 -4 -68 14 -20 23 -22 113 -22 105 0 131
11 131 57 0 41 -30 53 -128 53 -79 0 -95 -3 -112 -20z"/>
<path d="M833 864 c-15 -24 -15 -29 -2 -53 8 -14 25 -27 37 -29 18 -3 22 -10
22 -37 0 -20 -6 -35 -15 -39 -8 -3 -15 -10 -15 -16 0 -18 72 -90 90 -90 18 0
90 72 90 90 0 6 -7 13 -15 16 -9 4 -15 19 -15 40 0 26 4 34 18 34 24 0 52 31
52 57 0 41 -30 53 -133 53 -93 0 -97 -1 -114 -26z"/>
</g>
</svg>
