<?xml version="1.0" standalone="no"?>
<!DOCTYPE svg PUBLIC "-//W3C//DTD SVG 20010904//EN"
 "http://www.w3.org/TR/2001/REC-SVG-20010904/DTD/svg10.dtd">
<svg version="1.0" xmlns="http://www.w3.org/2000/svg"
 width="192.000000pt" height="192.000000pt" viewBox="0 0 192.000000 192.000000"
 preserveAspectRatio="xMidYMid meet">
<metadata>
Created by potrace 1.16, written by Peter Selinger 2001-2019
</metadata>
<g transform="translate(0.000000,192.000000) scale(0.100000,-0.100000)"
fill="#000000" stroke="none">
811 c445 -92 729 -532 635 -987 -62 -301 -295 -546 -601 -630 -91 -26 -329
-26 -420 0 -291 80 -516 305 -596 596 -26 91 -26 329 0 420 120 433 542 692
982 601z"/>
<path d="M927 1356 c-3 -7 -9 -66 -13 -130 -7 -115 -7 -117 -35 -131 -46 -24
-73 -72 -74 -131 0 -59 20 -94 75 -131 64 -44 150 -23 204 50 46 62 17 175
-53 212 -28 14 -29 17 -35 127 -4 62 -9 121 -12 131 -6 20 -49 23 -57 3z"/>
<path d="M708 1287 c-61 -47 -114 -122 -139 -196 -32 -96 -24 -215 20 -305 80
-163 256 -256 427 -227 137 24 245 104 305 227 65 131 49 303 -39 419 -46 60
-115 115 -147 115 -56 0 -73 -65 -28 -103 104 -85 138 -148 137 -257 0 -61 -5
-85 -27 -126 -89 -173 -309 -218 -452 -92 -69 61 -99 126 -99 218 -1 109 33
172 137 257 31 26 35 62 9 86 -28 25 -56 21 -104 -16z"/>
</g>
</svg>
