<?xml version="1.0" standalone="no"?>
<!DOCTYPE svg PUBLIC "-//W3C//DTD SVG 20010904//EN"
 "http://www.w3.org/TR/2001/REC-SVG-20010904/DTD/svg10.dtd">
<svg version="1.0" xmlns="http://www.w3.org/2000/svg"
 width="192.000000pt" height="192.000000pt" viewBox="0 0 192.000000 192.000000"
 preserveAspectRatio="xMidYMid meet">
<metadata>
Created by potrace 1.16, written by Peter Selinger 2001-2019
</metadata>
<g transform="translate(0.000000,192.000000) scale(0.100000,-0.100000)"
fill="#000000" stroke="none">
811 c445 -92 729 -532 635 -987 -62 -301 -295 -546 -601 -630 -91 -26 -329
-26 -420 0 -291 80 -516 305 -596 596 -26 91 -26 329 0 420 120 433 542 692
982 601z"/>
<path d="M903 1311 c-10 -11 -100 -150 -200 -309 -199 -314 -206 -332 -155
-373 26 -21 31 -21 247 -16 121 3 228 9 238 12 28 11 40 52 24 83 l-12 27
-165 3 c-90 1 -168 6 -173 11 -8 8 196 346 232 384 17 17 18 17 33 0 8 -10 84
-125 168 -257 98 -151 162 -242 178 -249 35 -16 76 9 80 50 3 25 -30 82 -189
329 -105 165 -199 305 -207 312 -24 19 -79 15 -99 -7z"/>
<path d="M890 914 c-23 -36 -39 -72 -36 -80 8 -21 184 -20 192 1 9 22 -74 145
-96 145 -11 0 -34 -25 -60 -66z"/>
</g>
</svg>
