<?xml version="1.0" standalone="no"?>
<!DOCTYPE svg PUBLIC "-//W3C//DTD SVG 20010904//EN"
 "http://www.w3.org/TR/2001/REC-SVG-20010904/DTD/svg10.dtd">
<svg version="1.0" xmlns="http://www.w3.org/2000/svg"
 width="192.000000pt" height="192.000000pt" viewBox="0 0 192.000000 192.000000"
 preserveAspectRatio="xMidYMid meet">
<metadata>
Created by potrace 1.16, written by Peter Selinger 2001-2019
</metadata>
<g transform="translate(0.000000,192.000000) scale(0.100000,-0.100000)"
fill="#000000" stroke="none">
811 c445 -92 729 -532 635 -987 -62 -301 -295 -546 -601 -630 -91 -26 -329
-26 -420 0 -291 80 -516 305 -596 596 -26 91 -26 329 0 420 120 433 542 692
982 601z"/>
<path d="M551 1214 c-27 -35 -26 -59 4 -89 23 -24 30 -25 148 -25 116 0 125 1
145 23 27 29 28 71 2 97 -18 18 -33 20 -149 20 -128 0 -130 0 -150 -26z"/>
<path d="M955 1220 c-26 -29 -24 -79 4 -102 21 -16 43 -18 198 -18 171 0 174
0 198 25 30 30 31 54 4 89 l-20 26 -183 0 c-171 0 -184 -1 -201 -20z"/>
<path d="M551 1014 c-27 -35 -26 -59 4 -89 24 -25 27 -25 200 -25 162 0 177 2
195 20 28 28 27 84 -2 104 -18 13 -55 16 -199 16 l-178 0 -20 -26z"/>
<path d="M1060 1020 c-11 -11 -20 -33 -20 -50 0 -17 9 -39 20 -50 18 -18 33
-20 148 -20 121 0 130 1 150 23 27 29 28 71 2 97 -18 18 -33 20 -150 20 -117
0 -132 -2 -150 -20z"/>
<path d="M555 805 c-30 -30 -31 -54 -4 -89 18 -23 27 -26 83 -26 78 0 106 17
106 66 0 53 -28 74 -100 74 -51 0 -65 -4 -85 -25z"/>
<path d="M825 805 c-30 -30 -31 -54 -4 -89 20 -25 25 -26 118 -26 110 0 131
11 131 68 0 57 -27 72 -130 72 -83 0 -93 -2 -115 -25z"/>
<path d="M1150 810 c-26 -26 -26 -81 -2 -103 14 -13 39 -17 105 -17 81 0 87 2
106 26 27 35 26 59 -4 89 -22 22 -32 25 -105 25 -67 0 -83 -3 -100 -20z"/>
</g>
</svg>
