<?xml version="1.0" standalone="no"?>
<!DOCTYPE svg PUBLIC "-//W3C//DTD SVG 20010904//EN"
 "http://www.w3.org/TR/2001/REC-SVG-20010904/DTD/svg10.dtd">
<svg version="1.0" xmlns="http://www.w3.org/2000/svg"
 width="192.000000pt" height="192.000000pt" viewBox="0 0 192.000000 192.000000"
 preserveAspectRatio="xMidYMid meet">
<metadata>
Created by potrace 1.16, written by Peter Selinger 2001-2019
</metadata>
<g transform="translate(0.000000,192.000000) scale(0.100000,-0.100000)"
fill="#000000" stroke="none">
811 c445 -92 729 -532 635 -987 -62 -301 -295 -546 -601 -630 -91 -26 -329
-26 -420 0 -291 80 -516 305 -596 596 -26 91 -26 329 0 420 120 433 542 692
982 601z"/>
<path d="M635 1197 c-24 -14 -41 -31 -43 -44 -3 -22 8 -31 187 -160 l43 -32
-59 -29 -58 -30 -61 16 c-57 15 -63 15 -88 -1 -14 -10 -26 -26 -26 -36 0 -22
93 -141 123 -158 12 -7 36 -12 52 -13 41 0 649 301 664 328 33 62 0 108 -81
115 -52 5 -65 2 -139 -34 l-82 -39 -186 70 c-103 38 -191 70 -197 70 -5 0 -27
-11 -49 -23z"/>
</g>
</svg>
