<?xml version="1.0" standalone="no"?>
<!DOCTYPE svg PUBLIC "-//W3C//DTD SVG 20010904//EN"
 "http://www.w3.org/TR/2001/REC-SVG-20010904/DTD/svg10.dtd">
<svg version="1.0" xmlns="http://www.w3.org/2000/svg"
 width="192.000000pt" height="192.000000pt" viewBox="0 0 192.000000 192.000000"
 preserveAspectRatio="xMidYMid meet">
<metadata>
Created by potrace 1.16, written by Peter Selinger 2001-2019
</metadata>
<g transform="translate(0.000000,192.000000) scale(0.100000,-0.100000)"
fill="#000000" stroke="none">
811 c445 -92 729 -532 635 -987 -62 -301 -295 -546 -601 -630 -91 -26 -329
-26 -420 0 -291 80 -516 305 -596 596 -26 91 -26 329 0 420 120 433 542 692
982 601z"/>
<path d="M885 1324 c-16 -8 -35 -21 -42 -27 -6 -7 -77 -124 -157 -262 -132
-225 -146 -254 -146 -296 0 -79 66 -139 152 -139 71 0 99 26 180 164 40 69 76
126 79 126 4 0 40 -58 82 -128 80 -137 106 -162 172 -170 89 -10 160 54 160
143 0 46 -11 69 -139 290 -77 132 -149 251 -160 264 -43 49 -124 65 -181 35z
m-17 -400 c12 -8 22 -20 22 -26 0 -23 -124 -220 -147 -235 -30 -20 -75 -21
-109 -2 -22 11 -25 19 -21 49 5 36 64 146 101 189 12 13 30 27 41 31 33 14 89
11 113 -6z"/>
</g>
</svg>
