<?xml version="1.0" standalone="no"?>
<!DOCTYPE svg PUBLIC "-//W3C//DTD SVG 20010904//EN"
 "http://www.w3.org/TR/2001/REC-SVG-20010904/DTD/svg10.dtd">
<svg version="1.0" xmlns="http://www.w3.org/2000/svg"
 width="192.000000pt" height="192.000000pt" viewBox="0 0 192.000000 192.000000"
 preserveAspectRatio="xMidYMid meet">
<metadata>
Created by potrace 1.16, written by Peter Selinger 2001-2019
</metadata>
<g transform="translate(0.000000,192.000000) scale(0.100000,-0.100000)"
fill="#000000" stroke="none">
811 c445 -92 729 -532 635 -987 -62 -301 -295 -546 -601 -630 -91 -26 -329
-26 -420 0 -291 80 -516 305 -596 596 -26 91 -26 329 0 420 120 433 542 692
982 601z"/>
<path d="M893 1364 c-43 -22 -75 -74 -188 -307 -147 -304 -152 -323 -116 -403
56 -123 220 -136 325 -25 36 38 46 38 77 5 38 -41 103 -74 155 -80 89 -10 173
55 190 144 11 57 -9 110 -141 378 -134 273 -149 293 -228 301 -26 2 -54 -2
-74 -13z m122 -369 c43 -42 24 -136 -43 -224 l-19 -23 -30 48 c-59 97 -68 160
-28 199 16 17 35 25 60 25 25 0 44 -8 60 -25z"/>
</g>
</svg>
