<?xml version="1.0" standalone="no"?>
<!DOCTYPE svg PUBLIC "-//W3C//DTD SVG 20010904//EN"
 "http://www.w3.org/TR/2001/REC-SVG-20010904/DTD/svg10.dtd">
<svg version="1.0" xmlns="http://www.w3.org/2000/svg"
 width="192.000000pt" height="192.000000pt" viewBox="0 0 192.000000 192.000000"
 preserveAspectRatio="xMidYMid meet">
<metadata>
Created by potrace 1.16, written by Peter Selinger 2001-2019
</metadata>
<g transform="translate(0.000000,192.000000) scale(0.100000,-0.100000)"
fill="#000000" stroke="none">
811 c445 -92 729 -532 635 -987 -62 -301 -295 -546 -601 -630 -91 -26 -329
-26 -420 0 -291 80 -516 305 -596 596 -26 91 -26 329 0 420 120 433 542 692
982 601z"/>
<path d="M883 1329 c-19 -24 -341 -576 -347 -596 -9 -27 29 -73 59 -73 21 0
36 32 164 332 129 302 156 376 124 337z"/>
<path d="M1007 1325 c3 -10 68 -162 143 -339 117 -275 140 -321 159 -324 30
-5 61 25 61 57 -1 28 -339 612 -358 619 -8 2 -10 -3 -5 -13z"/>
<path d="M928 1293 c-22 -26 -278 -635 -278 -661 0 -14 9 -27 25 -34 21 -9 40
-4 138 41 62 28 126 51 140 51 15 0 79 -23 143 -52 119 -53 133 -55 157 -16 8
11 -23 95 -122 329 -74 173 -140 324 -147 337 -17 27 -36 28 -56 5z"/>
</g>
</svg>
