<?xml version="1.0" standalone="no"?>
<!DOCTYPE svg PUBLIC "-//W3C//DTD SVG 20010904//EN"
 "http://www.w3.org/TR/2001/REC-SVG-20010904/DTD/svg10.dtd">
<svg version="1.0" xmlns="http://www.w3.org/2000/svg"
 width="192.000000pt" height="192.000000pt" viewBox="0 0 192.000000 192.000000"
 preserveAspectRatio="xMidYMid meet">
<metadata>
Created by potrace 1.16, written by Peter Selinger 2001-2019
</metadata>
<g transform="translate(0.000000,192.000000) scale(0.100000,-0.100000)"
fill="#000000" stroke="none">
811 c445 -92 729 -532 635 -987 -62 -301 -295 -546 -601 -630 -91 -26 -329
-26 -420 0 -291 80 -516 305 -596 596 -26 91 -26 329 0 420 120 433 542 692
982 601z"/>
<path d="M905 1369 c-119 -15 -229 -110 -266 -229 -18 -61 -20 -89 -17 -298 3
-252 5 -258 67 -280 68 -24 131 36 131 126 0 41 1 42 28 35 15 -5 68 -8 117
-8 73 1 98 5 132 23 91 48 149 117 177 212 21 71 20 114 -4 193 -47 153 -199
247 -365 226z m111 -205 c74 -35 99 -143 48 -204 -52 -62 -110 -75 -174 -39
-47 27 -70 66 -70 119 0 105 102 169 196 124z"/>
</g>
</svg>
