<?xml version="1.0" standalone="no"?>
<!DOCTYPE svg PUBLIC "-//W3C//DTD SVG 20010904//EN"
 "http://www.w3.org/TR/2001/REC-SVG-20010904/DTD/svg10.dtd">
<svg version="1.0" xmlns="http://www.w3.org/2000/svg"
 width="192.000000pt" height="192.000000pt" viewBox="0 0 192.000000 192.000000"
 preserveAspectRatio="xMidYMid meet">
<metadata>
Created by potrace 1.16, written by Peter Selinger 2001-2019
</metadata>
<g transform="translate(0.000000,192.000000) scale(0.100000,-0.100000)"
fill="#000000" stroke="none">
811 c445 -92 729 -532 635 -987 -62 -301 -295 -546 -601 -630 -91 -26 -329
-26 -420 0 -291 80 -516 305 -596 596 -26 91 -26 329 0 420 120 433 542 692
982 601z"/>
<path d="M960 1344 c-115 -31 -266 -117 -328 -188 -111 -127 -91 -246 41 -246
62 0 107 20 239 101 124 77 198 104 243 89 74 -24 72 -113 -6 -230 -88 -131
-339 -293 -339 -219 0 7 29 41 65 77 36 35 65 72 65 82 0 22 -45 60 -72 60
-45 0 -119 -63 -152 -127 -16 -32 -21 -98 -10 -128 9 -22 57 -45 96 -45 52 1
128 32 223 91 297 184 412 463 254 621 -74 74 -189 97 -319 62z"/>
</g>
</svg>
