<?xml version="1.0" standalone="no"?>
<!DOCTYPE svg PUBLIC "-//W3C//DTD SVG 20010904//EN"
 "http://www.w3.org/TR/2001/REC-SVG-20010904/DTD/svg10.dtd">
<svg version="1.0" xmlns="http://www.w3.org/2000/svg"
 width="192.000000pt" height="192.000000pt" viewBox="0 0 192.000000 192.000000"
 preserveAspectRatio="xMidYMid meet">
<metadata>
Created by potrace 1.16, written by Peter Selinger 2001-2019
</metadata>
<g transform="translate(0.000000,192.000000) scale(0.100000,-0.100000)"
fill="#000000" stroke="none">
811 c445 -92 729 -532 635 -987 -62 -301 -295 -546 -601 -630 -91 -26 -329
-26 -420 0 -291 80 -516 305 -596 596 -26 91 -26 329 0 420 120 433 542 692
982 601z"/>
<path d="M1082 1354 c-21 -14 -22 -22 -22 -146 0 -120 -1 -130 -17 -122 -31
14 -115 16 -154 5 -46 -14 -104 -77 -120 -131 -24 -78 16 -167 93 -210 86 -48
201 -20 255 62 l28 41 3 214 3 213 59 0 c50 0 61 3 70 21 9 16 8 26 -5 45 -14
22 -22 24 -93 24 -54 0 -84 -5 -100 -16z m-67 -360 c36 -23 49 -74 31 -117
-17 -42 -41 -57 -94 -57 -56 0 -92 37 -92 95 0 36 5 48 31 69 36 30 87 34 124
10z"/>
<path d="M859 1256 c-62 -17 -129 -57 -172 -105 -163 -181 -104 -454 121 -559
49 -23 70 -27 147 -27 78 0 98 4 150 28 79 37 147 104 181 181 23 50 28 75 29
141 0 71 -4 88 -33 147 -34 70 -57 85 -91 61 -27 -18 -26 -30 4 -95 29 -63 34
-155 10 -212 -39 -93 -148 -166 -249 -166 -145 0 -266 120 -266 265 1 144 103
248 258 262 73 6 92 15 92 44 0 48 -78 63 -181 35z"/>
</g>
</svg>
