<?xml version="1.0" standalone="no"?>
<!DOCTYPE svg PUBLIC "-//W3C//DTD SVG 20010904//EN"
 "http://www.w3.org/TR/2001/REC-SVG-20010904/DTD/svg10.dtd">
<svg version="1.0" xmlns="http://www.w3.org/2000/svg"
 width="192.000000pt" height="192.000000pt" viewBox="0 0 192.000000 192.000000"
 preserveAspectRatio="xMidYMid meet">
<metadata>
Created by potrace 1.16, written by Peter Selinger 2001-2019
</metadata>
<g transform="translate(0.000000,192.000000) scale(0.100000,-0.100000)"
fill="#000000" stroke="none">
811 c445 -92 729 -532 635 -987 -62 -301 -295 -546 -601 -630 -91 -26 -329
-26 -420 0 -291 80 -516 305 -596 596 -26 91 -26 329 0 420 120 433 542 692
982 601z"/>
<path d="M594 1291 c-49 -30 -54 -59 -54 -328 0 -279 5 -304 65 -329 30 -12
87 -14 337 -12 l300 3 29 33 c22 24 29 42 29 72 0 28 4 40 14 40 35 0 46 29
46 124 0 77 -3 96 -18 109 -10 10 -24 17 -30 17 -7 0 -12 16 -12 38 0 46 -19
75 -60 92 -27 11 -30 17 -30 57 0 36 -6 50 -29 74 l-29 29 -264 0 c-241 0
-266 -2 -294 -19z m544 -53 c7 -7 12 -27 12 -45 l0 -33 -258 0 c-187 0 -261 3
-270 12 -15 15 -15 51 0 66 17 17 499 17 516 0z m160 -345 l3 -63 -81 0 c-73
0 -83 3 -105 25 -32 31 -31 50 0 81 23 23 31 25 102 22 l78 -3 3 -62z"/>
<path d="M1152 933 c-22 -9 -34 -41 -22 -63 11 -20 35 -25 64 -14 23 9 21 61
-3 74 -11 5 -21 10 -23 9 -2 0 -9 -3 -16 -6z"/>
</g>
</svg>
