<?xml version="1.0" standalone="no"?>
<!DOCTYPE svg PUBLIC "-//W3C//DTD SVG 20010904//EN"
 "http://www.w3.org/TR/2001/REC-SVG-20010904/DTD/svg10.dtd">
<svg version="1.0" xmlns="http://www.w3.org/2000/svg"
 width="192.000000pt" height="192.000000pt" viewBox="0 0 192.000000 192.000000"
 preserveAspectRatio="xMidYMid meet">
<metadata>
Created by potrace 1.16, written by Peter Selinger 2001-2019
</metadata>
<g transform="translate(0.000000,192.000000) scale(0.100000,-0.100000)"
fill="#000000" stroke="none">
811 c445 -92 729 -532 635 -987 -62 -301 -295 -546 -601 -630 -91 -26 -329
-26 -420 0 -291 80 -516 305 -596 596 -26 91 -26 329 0 420 120 433 542 692
982 601z"/>
<path d="M715 1314 c-11 -3 -30 -7 -42 -10 -29 -6 -90 -59 -109 -95 -17 -34
-20 -321 -3 -366 27 -72 100 -112 202 -113 64 0 67 -1 67 -24 0 -19 -6 -25
-27 -28 -22 -2 -28 -8 -28 -28 l0 -25 176 -3 c148 -2 178 0 189 13 17 20 -3
45 -36 45 -19 0 -24 5 -24 25 0 24 2 25 68 25 83 0 139 24 178 76 29 37 29 39
32 197 2 88 1 170 -2 183 -8 31 -61 91 -100 112 -26 14 -68 17 -276 19 -135 1
-254 -1 -265 -3z m393 -158 c3 -12 -17 -40 -59 -82 l-63 -64 63 -64 c41 -42
62 -70 59 -82 -7 -39 -39 -27 -104 37 l-64 63 -38 -37 c-73 -72 -122 -33 -50
40 l42 43 -42 43 c-72 74 -23 112 50 40 l38 -37 63 62 c64 64 98 77 105 38z"/>
</g>
</svg>
