<?xml version="1.0" standalone="no"?>
<!DOCTYPE svg PUBLIC "-//W3C//DTD SVG 20010904//EN"
 "http://www.w3.org/TR/2001/REC-SVG-20010904/DTD/svg10.dtd">
<svg version="1.0" xmlns="http://www.w3.org/2000/svg"
 width="192.000000pt" height="192.000000pt" viewBox="0 0 192.000000 192.000000"
 preserveAspectRatio="xMidYMid meet">
<metadata>
Created by potrace 1.16, written by Peter Selinger 2001-2019
</metadata>
<g transform="translate(0.000000,192.000000) scale(0.100000,-0.100000)"
fill="#000000" stroke="none">
811 c445 -92 729 -532 635 -987 -62 -301 -295 -546 -601 -630 -91 -26 -329
-26 -420 0 -291 80 -516 305 -596 596 -26 91 -26 329 0 420 120 433 542 692
982 601z"/>
<path d="M867 1379 c-12 -17 -18 -18 -40 -8 -23 10 -29 7 -85 -48 -91 -90
-107 -126 -108 -253 -1 -58 -5 -113 -9 -123 -20 -47 19 -170 59 -189 12 -5 33
-30 46 -55 33 -62 107 -143 147 -159 44 -19 118 -18 159 2 41 19 114 100 146
160 12 24 32 47 44 53 38 17 82 169 57 195 -4 4 -8 53 -8 109 0 91 -3 108 -28
159 -45 92 -138 152 -253 163 -32 3 -71 8 -86 10 -19 3 -31 -2 -41 -16z m123
-84 c38 34 147 -21 190 -97 21 -37 25 -55 24 -128 0 -82 -36 -250 -53 -250 -4
0 -29 14 -56 31 -111 70 -163 72 -266 8 -35 -21 -67 -39 -70 -39 -4 0 -12 20
-19 43 -11 40 -9 51 15 123 17 50 38 89 56 107 29 27 31 27 149 26 105 -2 120
-4 125 -20 8 -24 74 -81 88 -76 22 7 19 39 -7 66 -14 15 -30 41 -36 58 -14 38
-29 45 -72 32 -19 -5 -71 -7 -120 -3 -77 6 -92 4 -132 -16 -38 -18 -50 -32
-76 -83 l-29 -62 -1 61 c0 79 36 154 92 192 33 21 43 24 59 14 27 -17 47 -15
59 8 10 19 12 19 36 4 23 -15 26 -15 44 1z"/>
<path d="M830 1006 c-18 -22 5 -48 39 -44 20 2 26 9 26 28 0 19 -6 26 -26 28
-14 2 -31 -4 -39 -12z"/>
<path d="M1034 1006 c-12 -30 4 -47 38 -44 28 2 33 7 33 28 0 21 -5 26 -33 28
-22 2 -34 -2 -38 -12z"/>
</g>
</svg>
