<?xml version="1.0" standalone="no"?>
<!DOCTYPE svg PUBLIC "-//W3C//DTD SVG 20010904//EN"
 "http://www.w3.org/TR/2001/REC-SVG-20010904/DTD/svg10.dtd">
<svg version="1.0" xmlns="http://www.w3.org/2000/svg"
 width="192.000000pt" height="192.000000pt" viewBox="0 0 192.000000 192.000000"
 preserveAspectRatio="xMidYMid meet">
<metadata>
Created by potrace 1.16, written by Peter Selinger 2001-2019
</metadata>
<g transform="translate(0.000000,192.000000) scale(0.100000,-0.100000)"
fill="#000000" stroke="none">
811 c445 -92 729 -532 635 -987 -62 -301 -295 -546 -601 -630 -91 -26 -329
-26 -420 0 -291 80 -516 305 -596 596 -26 91 -26 329 0 420 120 433 542 692
982 601z"/>
<path d="M866 1339 c-33 -39 -33 -46 3 -54 15 -3 37 -14 47 -23 12 -11 36 -17
68 -17 42 -1 52 -5 76 -33 17 -21 35 -32 52 -32 29 0 78 -35 78 -55 0 -20 28
-45 51 -45 21 0 49 51 49 89 0 26 -60 47 -98 33 l-27 -9 -1 61 c0 33 -5 73
-12 88 l-11 27 -43 -15 c-24 -8 -57 -29 -75 -46 l-32 -31 -10 25 c-10 28 -56
68 -76 68 -7 0 -25 -14 -39 -31z"/>
<path d="M790 1240 c-15 -16 -37 -30 -48 -30 -12 0 -33 -11 -48 -24 -21 -18
-28 -33 -28 -62 -1 -25 -9 -50 -23 -68 -26 -33 -28 -51 -9 -87 11 -22 11 -29
0 -44 -19 -25 -18 -65 2 -94 12 -17 13 -26 5 -34 -6 -6 -11 -28 -11 -49 0 -30
6 -42 29 -59 17 -12 27 -27 24 -35 -7 -20 16 -73 38 -84 26 -15 62 -12 88 6
17 12 26 13 34 5 26 -26 117 7 117 43 0 8 12 11 36 8 27 -3 41 1 60 19 13 12
24 28 24 35 0 7 8 10 19 7 31 -8 81 24 87 57 4 19 14 30 30 34 41 11 64 42 64
85 0 22 -5 43 -10 46 -7 4 -7 12 0 25 29 53 -9 130 -65 130 -20 0 -25 5 -25
23 0 35 -44 71 -85 70 -22 -1 -35 4 -35 11 0 7 -11 23 -24 35 -20 18 -33 22
-63 19 -30 -4 -44 0 -66 19 -40 33 -82 30 -117 -7z m87 -76 c3 -8 -2 -23 -11
-32 -15 -15 -17 -15 -32 0 -21 21 -11 48 16 48 11 0 23 -7 27 -16z m111 -42
c4 -28 -24 -40 -45 -19 -21 21 -9 49 19 45 15 -2 24 -11 26 -26z m-200 -20 c4
-28 -24 -40 -45 -19 -14 13 -14 19 -3 32 18 22 44 15 48 -13z m300 -41 c-4
-31 -35 -36 -52 -8 -9 14 -7 21 7 32 27 19 49 8 45 -24z m-193 -11 c0 -8 -8
-16 -17 -18 -13 -2 -18 3 -18 18 0 15 5 20 18 18 9 -2 17 -10 17 -18z m-145
-35 c10 -12 10 -18 0 -29 -14 -18 -40 -10 -40 13 0 32 20 40 40 16z m420 -29
c0 -25 -15 -36 -37 -29 -7 3 -13 16 -13 29 0 19 5 24 25 24 20 0 25 -5 25 -24z
m-314 -17 c10 -17 -13 -36 -27 -22 -12 12 -4 33 11 33 5 0 12 -5 16 -11z m202
-16 c-2 -10 -10 -18 -18 -18 -8 0 -16 8 -18 18 -2 12 3 17 18 17 15 0 20 -5
18 -17z m-310 -56 c4 -20 -25 -34 -40 -19 -15 15 -1 44 19 40 10 -2 19 -11 21
-21z m176 8 c-1 -18 -34 -18 -34 0 0 10 7 15 18 13 9 -2 17 -8 16 -13z m244
-21 c4 -26 -26 -40 -45 -21 -8 7 -11 21 -7 31 9 24 48 17 52 -10z m-168 -9 c0
-8 -7 -15 -15 -15 -8 0 -15 7 -15 15 0 8 7 15 15 15 8 0 15 -7 15 -15z m-157
-20 c-4 -15 -26 -12 -31 3 -3 9 2 13 14 10 11 -2 18 -8 17 -13z m77 -34 c0
-14 -18 -23 -30 -16 -6 4 -8 11 -5 16 8 12 35 12 35 0z m175 -16 c0 -30 -39
-27 -43 3 -3 20 0 23 20 20 15 -2 23 -10 23 -23z m-347 -18 c2 -12 -3 -17 -17
-17 -12 0 -21 6 -21 13 0 31 32 34 38 4z m92 -22 c0 -8 -7 -15 -15 -15 -8 0
-15 7 -15 15 0 8 7 15 15 15 8 0 15 -7 15 -15z m168 -18 c4 -20 -25 -34 -40
-19 -15 15 -1 44 19 40 10 -2 19 -11 21 -21z m-100 -44 c5 -17 -26 -29 -40
-15 -6 6 -7 15 -3 22 9 14 37 9 43 -7z m-118 -24 c0 -14 -5 -19 -17 -17 -26 5
-29 38 -4 38 15 0 21 -6 21 -21z"/>
</g>
</svg>
