<?xml version="1.0" standalone="no"?>
<!DOCTYPE svg PUBLIC "-//W3C//DTD SVG 20010904//EN"
 "http://www.w3.org/TR/2001/REC-SVG-20010904/DTD/svg10.dtd">
<svg version="1.0" xmlns="http://www.w3.org/2000/svg"
 width="192.000000pt" height="192.000000pt" viewBox="0 0 192.000000 192.000000"
 preserveAspectRatio="xMidYMid meet">
<metadata>
Created by potrace 1.16, written by Peter Selinger 2001-2019
</metadata>
<g transform="translate(0.000000,192.000000) scale(0.100000,-0.100000)"
fill="#000000" stroke="none">
811 c445 -92 729 -532 635 -987 -62 -301 -295 -546 -601 -630 -91 -26 -329
-26 -420 0 -291 80 -516 305 -596 596 -26 91 -26 329 0 420 120 433 542 692
982 601z"/>
<path d="M935 1367 c-4 -10 -3 -28 2 -40 13 -31 -7 -89 -27 -77 -17 11 -50 -5
-50 -24 0 -8 -7 -16 -15 -20 -17 -6 -21 -56 -5 -56 23 0 7 -20 -40 -50 -108
-69 -130 -126 -104 -264 9 -50 21 -103 27 -119 13 -36 62 -77 92 -77 16 0 30
-11 44 -33 21 -35 57 -57 91 -57 26 0 47 35 55 93 l7 47 35 -6 c46 -9 117 19
143 57 12 16 24 50 28 76 18 119 -27 234 -164 417 -45 61 -89 120 -98 131 -14
19 -15 19 -21 2z m164 -269 c78 -116 100 -210 65 -284 -21 -43 -37 -55 -28
-20 3 14 2 26 -2 26 -5 0 -15 4 -23 9 -11 7 -9 14 9 39 20 27 22 39 18 95 -6
75 -14 93 -32 78 -10 -8 -16 -2 -24 27 -7 21 -36 67 -67 102 -34 39 -55 73
-55 88 0 20 9 12 53 -44 29 -38 68 -90 86 -116z m-189 88 c0 -3 -4 -8 -10 -11
-5 -3 -10 -1 -10 4 0 6 5 11 10 11 6 0 10 -2 10 -4z m30 -66 l-11 -25 6 25 c2
14 5 36 6 50 l2 25 4 -25 c2 -14 -1 -37 -7 -50z m110 -85 c0 -17 -7 -40 -15
-51 -17 -22 -19 -52 -5 -74 8 -12 14 -10 38 13 71 68 38 4 -44 -86 l-52 -56
-22 24 c-22 23 -22 26 -7 43 16 17 24 92 11 92 -3 0 -14 -10 -25 -22 l-18 -23
-1 23 c0 13 14 54 30 92 17 38 30 79 30 93 0 40 13 41 48 1 21 -25 32 -48 32
-69z m-184 4 c-18 -41 -39 -98 -46 -128 l-13 -54 -14 27 c-12 23 -20 27 -45
24 -29 -5 -30 -4 -25 30 4 19 13 45 22 58 15 23 146 126 152 120 2 -2 -12 -36
-31 -77z m24 -69 c-5 -25 -13 -82 -19 -128 -15 -123 -33 -140 -28 -27 3 61 11
109 27 148 12 32 23 57 25 55 2 -2 0 -23 -5 -48z m-110 -130 c0 -12 -28 -25
-36 -17 -9 9 6 27 22 27 8 0 14 -5 14 -10z m305 -39 c-4 -14 0 -21 16 -26 29
-10 6 -25 -38 -25 -40 0 -41 6 -6 42 32 33 36 35 28 9z m-133 -63 c14 -14 16
-26 9 -64 -5 -25 -14 -51 -21 -57 -10 -10 -10 -7 0 12 8 16 9 26 1 34 -8 8 -6
16 6 29 15 17 16 20 0 35 -15 16 -18 15 -38 -3 l-22 -19 6 25 c4 14 7 36 7 50
l1 25 17 -25 c9 -13 25 -32 34 -42z m-157 32 c13 10 15 9 15 -6 0 -11 3 -29 6
-41 5 -19 2 -23 -19 -23 -27 0 -41 13 -56 52 -10 26 -9 27 14 16 19 -8 28 -8
40 2z m110 -80 c3 -5 0 -18 -7 -29 -10 -17 -9 -23 6 -40 11 -12 16 -21 12 -21
-4 0 -18 12 -31 26 -20 22 -22 29 -13 50 12 25 23 30 33 14z"/>
<path d="M987 1021 c-21 -23 -35 -47 -31 -52 10 -16 77 55 72 76 -2 14 -10 10
-41 -24z"/>
<path d="M980 891 c-14 -28 -13 -38 7 -45 11 -5 22 -1 30 10 18 24 16 31 -7
44 -15 8 -21 6 -30 -9z"/>
<path d="M787 1012 c-22 -24 -23 -72 -2 -72 20 0 32 30 16 39 -9 6 -8 11 4 21
16 14 20 30 7 30 -5 0 -16 -8 -25 -18z"/>
<path d="M1020 662 c0 -16 32 -52 46 -52 21 0 17 31 -6 37 -11 3 -20 9 -20 14
0 5 -4 9 -10 9 -5 0 -10 -3 -10 -8z"/>
</g>
</svg>
