<?xml version="1.0" standalone="no"?>
<!DOCTYPE svg PUBLIC "-//W3C//DTD SVG 20010904//EN"
 "http://www.w3.org/TR/2001/REC-SVG-20010904/DTD/svg10.dtd">
<svg version="1.0" xmlns="http://www.w3.org/2000/svg"
 width="192.000000pt" height="192.000000pt" viewBox="0 0 192.000000 192.000000"
 preserveAspectRatio="xMidYMid meet">
<metadata>
Created by potrace 1.16, written by Peter Selinger 2001-2019
</metadata>
<g transform="translate(0.000000,192.000000) scale(0.100000,-0.100000)"
fill="#000000" stroke="none">
811 c445 -92 729 -532 635 -987 -62 -301 -295 -546 -601 -630 -91 -26 -329
-26 -420 0 -291 80 -516 305 -596 596 -26 91 -26 329 0 420 120 433 542 692
982 601z"/>
<path d="M900 1355 c-19 -9 -43 -24 -53 -33 -25 -22 -57 -86 -57 -112 0 -14
-7 -20 -22 -20 -38 -1 -101 -35 -135 -73 -46 -53 -55 -99 -51 -266 3 -132 5
-150 27 -188 53 -93 90 -103 365 -103 240 0 273 7 323 61 45 49 53 88 53 256
0 134 -3 164 -19 200 -23 50 -86 99 -141 108 -33 6 -41 12 -46 33 -11 47 -44
97 -80 121 -44 30 -116 37 -164 16z m119 -58 c27 -14 56 -51 66 -84 6 -23 6
-23 -114 -23 -133 0 -136 2 -106 60 27 53 100 75 154 47z m-21 -274 c17 -16
132 -259 132 -281 0 -17 -27 -33 -44 -26 -9 3 -19 17 -22 30 -6 23 -10 24 -95
24 -86 0 -90 -1 -99 -25 -12 -32 -37 -42 -56 -23 -14 13 -8 31 46 154 75 167
93 186 138 147z"/>
<path d="M940 908 c-12 -29 -24 -59 -27 -65 -4 -10 10 -13 51 -13 31 0 56 4
56 9 0 11 -49 121 -54 121 -2 0 -13 -24 -26 -52z"/>
</g>
</svg>
