<?xml version="1.0" standalone="no"?>
<!DOCTYPE svg PUBLIC "-//W3C//DTD SVG 20010904//EN"
 "http://www.w3.org/TR/2001/REC-SVG-20010904/DTD/svg10.dtd">
<svg version="1.0" xmlns="http://www.w3.org/2000/svg"
 width="192.000000pt" height="192.000000pt" viewBox="0 0 192.000000 192.000000"
 preserveAspectRatio="xMidYMid meet">
<metadata>
Created by potrace 1.16, written by Peter Selinger 2001-2019
</metadata>
<g transform="translate(0.000000,192.000000) scale(0.100000,-0.100000)"
fill="#000000" stroke="none">
811 c445 -92 729 -532 635 -987 -62 -301 -295 -546 -601 -630 -91 -26 -329
-26 -420 0 -291 80 -516 305 -596 596 -26 91 -26 329 0 420 120 433 542 692
982 601z"/>
<path d="M485 1078 c-16 -39 -31 -75 -33 -80 -8 -18 38 -7 48 12 7 13 21 20
40 20 20 0 31 -6 35 -20 6 -19 45 -29 45 -11 0 4 -14 40 -31 80 -44 97 -63 97
-104 -1z m64 -10 c1 -5 -5 -8 -13 -8 -9 0 -12 8 -8 27 5 25 6 25 13 8 4 -11 8
-23 8 -27z"/>
<path d="M630 1070 c0 -73 2 -80 20 -80 16 0 20 7 20 31 l0 31 35 -31 c33 -29
75 -42 75 -23 0 4 -16 23 -35 42 l-35 34 37 38 c36 37 36 38 13 38 -14 0 -39
-14 -57 -32 l-33 -32 0 32 c0 25 -4 32 -20 32 -18 0 -20 -7 -20 -80z"/>
<path d="M792 1073 l3 -78 48 -3 c32 -2 57 2 73 13 24 16 32 49 14 60 -5 3 -7
19 -4 34 8 37 -16 51 -86 51 l-51 0 3 -77z m96 30 c2 -8 -6 -13 -22 -13 -17 0
-26 5 -26 16 0 19 41 16 48 -3z m7 -58 c0 -5 -12 -11 -27 -13 -21 -2 -28 1
-28 13 0 12 7 15 28 13 15 -2 27 -7 27 -13z"/>
<path d="M974 1078 c-16 -40 -30 -76 -32 -80 -8 -18 38 -6 48 12 7 13 21 20
39 20 20 0 30 -6 34 -20 3 -12 14 -20 26 -20 27 0 27 2 -11 88 -25 57 -36 72
-53 72 -18 0 -27 -14 -51 -72z m65 -10 c1 -5 -5 -8 -13 -8 -9 0 -12 8 -8 27 5
25 6 25 13 8 4 -11 8 -23 8 -27z"/>
<path d="M1120 1070 c0 -73 2 -80 20 -80 17 0 20 7 20 52 l0 53 35 -53 c23
-33 43 -52 55 -52 18 0 20 7 20 80 0 73 -2 80 -20 80 -17 0 -20 -7 -20 -47 l0
-47 -32 47 c-23 32 -40 47 -55 47 -22 0 -23 -4 -23 -80z"/>
<path d="M1300 1070 c0 -73 2 -80 20 -80 16 0 20 7 20 32 l0 32 33 -32 c30
-29 77 -44 77 -24 0 4 -17 21 -37 39 l-38 31 40 41 c37 39 38 41 15 41 -14 0
-39 -14 -57 -32 l-33 -32 0 32 c0 25 -4 32 -20 32 -18 0 -20 -7 -20 -80z"/>
<path d="M495 940 c-11 -17 5 -28 45 -32 33 -3 35 -5 38 -45 l3 -42 -43 -3
c-30 -2 -43 -7 -43 -18 0 -11 13 -16 47 -18 39 -3 49 1 62 20 19 27 21 97 3
122 -16 22 -101 34 -112 16z"/>
<path d="M660 865 c0 -69 3 -85 15 -85 12 0 15 16 15 85 0 69 -3 85 -15 85
-12 0 -15 -16 -15 -85z"/>
<path d="M740 865 c0 -78 2 -85 20 -85 16 0 20 7 20 32 l0 32 28 -33 c17 -21
34 -32 46 -30 17 4 17 6 -3 30 -18 23 -19 28 -6 39 8 7 15 25 15 41 0 36 -32
59 -82 59 l-38 0 0 -85z m86 34 c7 -12 -12 -29 -33 -29 -7 0 -13 9 -13 20 0
22 34 28 46 9z"/>
<path d="M907 943 c-4 -3 -7 -42 -7 -85 l0 -78 56 0 c47 0 55 3 52 18 -2 11
-14 18 -36 20 -41 4 -41 20 0 24 22 2 34 9 36 21 3 14 -4 17 -32 17 -25 0 -36
4 -36 15 0 10 11 15 35 15 28 0 35 4 35 20 0 17 -7 20 -48 20 -27 0 -52 -3
-55 -7z"/>
<path d="M1057 943 c-4 -3 -7 -42 -7 -85 0 -71 2 -78 20 -78 16 0 20 7 20 32
l0 32 28 -33 c17 -21 34 -32 46 -30 16 4 14 8 -13 43 l-31 38 21 29 c11 16 24
31 29 34 16 10 11 25 -7 25 -9 0 -29 -15 -44 -32 l-28 -33 -1 33 c0 30 -16 42
-33 25z"/>
<path d="M1207 943 c-16 -15 -6 -33 18 -33 24 0 25 -2 25 -66 0 -57 2 -65 18
-62 14 3 18 16 20 66 3 54 6 62 22 62 13 0 20 7 20 20 0 18 -7 20 -58 20 -32
0 -62 -3 -65 -7z"/>
<path d="M460 865 c0 -25 3 -45 8 -45 4 0 19 10 35 23 l27 22 -35 23 -35 22 0
-45z"/>
</g>
</svg>
