<?xml version="1.0" standalone="no"?>
<!DOCTYPE svg PUBLIC "-//W3C//DTD SVG 20010904//EN"
 "http://www.w3.org/TR/2001/REC-SVG-20010904/DTD/svg10.dtd">
<svg version="1.0" xmlns="http://www.w3.org/2000/svg"
 width="192.000000pt" height="192.000000pt" viewBox="0 0 192.000000 192.000000"
 preserveAspectRatio="xMidYMid meet">
<metadata>
Created by potrace 1.16, written by Peter Selinger 2001-2019
</metadata>
<g transform="translate(0.000000,192.000000) scale(0.100000,-0.100000)"
fill="#000000" stroke="none">
811 c445 -92 729 -532 635 -987 -62 -301 -295 -546 -601 -630 -91 -26 -329
-26 -420 0 -291 80 -516 305 -596 596 -26 91 -26 329 0 420 120 433 542 692
982 601z"/>
<path d="M1095 1320 c-17 -19 -17 -23 23 -122 48 -124 78 -249 93 -388 5 -57
14 -112 20 -122 22 -41 103 -33 126 12 25 48 -4 271 -54 414 -47 138 -73 179
-126 205 -53 26 -59 26 -82 1z"/>
<path d="M712 1169 c-108 -54 -166 -147 -166 -269 0 -125 61 -222 172 -277 47
-23 70 -28 132 -28 65 0 85 5 140 32 47 23 69 29 81 22 31 -16 78 -10 100 12
20 20 21 29 16 113 -8 109 -35 219 -71 280 -79 136 -260 187 -404 115z m208
-132 c109 -57 109 -221 0 -278 -158 -84 -307 124 -180 251 55 55 112 63 180
27z"/>
</g>
</svg>
