<?xml version="1.0" standalone="no"?>
<!DOCTYPE svg PUBLIC "-//W3C//DTD SVG 20010904//EN"
 "http://www.w3.org/TR/2001/REC-SVG-20010904/DTD/svg10.dtd">
<svg version="1.0" xmlns="http://www.w3.org/2000/svg"
 width="192.000000pt" height="192.000000pt" viewBox="0 0 192.000000 192.000000"
 preserveAspectRatio="xMidYMid meet">
<metadata>
Created by potrace 1.16, written by Peter Selinger 2001-2019
</metadata>
<g transform="translate(0.000000,192.000000) scale(0.100000,-0.100000)"
fill="#000000" stroke="none">
811 c445 -92 729 -532 635 -987 -62 -301 -295 -546 -601 -630 -91 -26 -329
-26 -420 0 -291 80 -516 305 -596 596 -26 91 -26 329 0 420 120 433 542 692
982 601z"/>
<path d="M890 1374 c-14 -3 -51 -14 -83 -25 -52 -18 -59 -19 -79 -5 -88 62
-214 -64 -152 -152 14 -20 14 -27 -4 -75 -77 -205 9 -422 205 -519 64 -31 73
-33 178 -33 104 0 114 2 176 32 80 40 159 120 197 200 24 52 27 69 27 168 0
92 -4 118 -22 157 -12 26 -18 50 -13 53 5 3 15 23 21 44 28 94 -72 172 -160
126 -26 -13 -34 -12 -86 6 -58 20 -158 31 -205 23z m176 -182 c60 -31 111 -92
130 -158 54 -187 -123 -364 -310 -310 -139 41 -217 188 -171 325 20 63 87 133
147 155 56 21 151 15 204 -12z"/>
<path d="M916 1124 c-3 -9 -6 -55 -6 -103 l0 -87 54 -53 c55 -54 79 -61 100
-29 9 14 3 25 -32 61 -42 42 -42 43 -42 116 0 40 -5 81 -10 92 -13 23 -55 25
-64 3z"/>
</g>
</svg>
