<?xml version="1.0" standalone="no"?>
<!DOCTYPE svg PUBLIC "-//W3C//DTD SVG 20010904//EN"
 "http://www.w3.org/TR/2001/REC-SVG-20010904/DTD/svg10.dtd">
<svg version="1.0" xmlns="http://www.w3.org/2000/svg"
 width="192.000000pt" height="192.000000pt" viewBox="0 0 192.000000 192.000000"
 preserveAspectRatio="xMidYMid meet">
<metadata>
Created by potrace 1.16, written by Peter Selinger 2001-2019
</metadata>
<g transform="translate(0.000000,192.000000) scale(0.100000,-0.100000)"
fill="#000000" stroke="none">
811 c445 -92 729 -532 635 -987 -62 -301 -295 -546 -601 -630 -91 -26 -329
-26 -420 0 -291 80 -516 305 -596 596 -26 91 -26 329 0 420 120 433 542 692
982 601z"/>
<path d="M630 1330 c-19 -19 -20 -33 -20 -260 l0 -240 105 0 105 0 0 240 c0
286 2 280 -105 280 -52 0 -69 -4 -85 -20z"/>
<path d="M870 1330 c-14 -14 -20 -33 -20 -65 l0 -45 105 0 105 0 0 45 c0 67
-23 85 -105 85 -52 0 -69 -4 -85 -20z"/>
<path d="M1117 1332 c-15 -16 -17 -49 -17 -260 l0 -242 100 0 100 0 0 243 c0
287 4 277 -102 277 -50 0 -69 -4 -81 -18z"/>
<path d="M850 1150 c0 -6 42 -10 105 -10 63 0 105 4 105 10 0 6 -42 10 -105
10 -63 0 -105 -4 -105 -10z"/>
<path d="M850 860 l0 -231 25 -24 c33 -33 119 -36 159 -4 l26 20 0 235 0 234
-105 0 -105 0 0 -230z"/>
<path d="M610 760 c0 -6 42 -10 105 -10 63 0 105 4 105 10 0 6 -42 10 -105 10
-63 0 -105 -4 -105 -10z"/>
<path d="M1100 760 c0 -6 40 -10 100 -10 60 0 100 4 100 10 0 6 -40 10 -100
10 -60 0 -100 -4 -100 -10z"/>
<path d="M610 663 c0 -21 4 -43 8 -49 14 -22 51 -34 102 -34 65 0 103 32 98
83 l-3 32 -102 3 -103 3 0 -38z"/>
<path d="M1100 656 c0 -58 24 -76 100 -76 76 0 100 18 100 76 l0 44 -100 0
-100 0 0 -44z"/>
</g>
</svg>
