<?xml version="1.0" standalone="no"?>
<!DOCTYPE svg PUBLIC "-//W3C//DTD SVG 20010904//EN"
 "http://www.w3.org/TR/2001/REC-SVG-20010904/DTD/svg10.dtd">
<svg version="1.0" xmlns="http://www.w3.org/2000/svg"
 width="192.000000pt" height="192.000000pt" viewBox="0 0 192.000000 192.000000"
 preserveAspectRatio="xMidYMid meet">
<metadata>
Created by potrace 1.16, written by Peter Selinger 2001-2019
</metadata>
<g transform="translate(0.000000,192.000000) scale(0.100000,-0.100000)"
fill="#000000" stroke="none">
811 c445 -92 729 -532 635 -987 -62 -301 -295 -546 -601 -630 -91 -26 -329
-26 -420 0 -291 80 -516 305 -596 596 -26 91 -26 329 0 420 120 433 542 692
982 601z"/>
<path d="M715 1328 c-50 -18 -96 -58 -116 -102 -16 -36 -19 -67 -19 -261 0
-247 7 -279 71 -328 58 -43 97 -49 324 -45 206 3 211 3 255 30 28 16 55 43 70
70 25 42 25 46 25 273 0 227 0 231 -25 273 -15 27 -42 54 -70 70 -45 27 -47
27 -265 29 -138 1 -231 -2 -250 -9z m99 -174 c3 -9 6 -51 6 -95 0 -72 -2 -79
-20 -79 -16 0 -20 7 -20 35 0 28 -4 35 -20 35 -16 0 -20 -7 -20 -35 0 -28 -4
-35 -20 -35 -18 0 -20 7 -20 88 0 49 3 92 7 95 3 4 28 7 54 7 33 0 49 -4 53
-16z m76 -59 l0 -75 40 0 c33 0 40 -3 40 -20 0 -18 -7 -20 -60 -20 l-60 0 0
95 c0 88 1 95 20 95 18 0 20 -7 20 -75z m235 -20 l0 -90 -57 -3 -58 -3 0 96 0
96 58 -3 57 -3 0 -90z m75 0 c0 -88 -1 -95 -20 -95 -19 0 -20 7 -20 95 0 88 1
95 20 95 19 0 20 -7 20 -95z m-400 -160 c0 -8 -7 -15 -15 -15 -12 0 -15 -14
-15 -70 0 -63 -2 -70 -20 -70 -18 0 -20 7 -20 70 0 56 -3 70 -15 70 -8 0 -15
7 -15 15 0 11 12 15 50 15 38 0 50 -4 50 -15z m130 -70 c0 -69 -3 -85 -15 -85
-10 0 -15 11 -15 35 0 24 -5 35 -15 35 -11 0 -15 -11 -15 -36 0 -28 -3 -35
-17 -32 -15 3 -19 16 -21 72 -4 92 -2 96 53 96 l45 0 0 -85z m70 21 l0 -65 32
-3 c22 -2 34 -9 36 -20 3 -15 -4 -18 -47 -18 l-51 0 0 85 c0 69 3 85 15 85 12
0 15 -14 15 -64z m141 32 l0 -33 16 33 c10 19 24 32 35 32 18 0 18 -2 2 -32
-11 -22 -13 -33 -5 -36 6 -2 11 -25 11 -53 0 -37 -4 -49 -15 -49 -10 0 -15 11
-15 35 0 24 -5 35 -15 35 -10 0 -15 -11 -15 -35 0 -28 -4 -35 -20 -35 -18 0
-20 7 -20 85 0 78 2 85 20 85 16 0 20 -7 21 -32z"/>
<path d="M740 1109 c0 -14 5 -19 17 -17 26 5 29 38 4 38 -15 0 -21 -6 -21 -21z"/>
<path d="M1050 1075 c0 -48 2 -55 20 -55 18 0 20 7 20 55 0 48 -2 55 -20 55
-18 0 -20 -7 -20 -55z"/>
<path d="M870 880 c0 -11 7 -20 15 -20 8 0 15 9 15 20 0 11 -7 20 -15 20 -8 0
-15 -9 -15 -20z"/>
</g>
</svg>
