<?xml version="1.0" standalone="no"?>
<!DOCTYPE svg PUBLIC "-//W3C//DTD SVG 20010904//EN"
 "http://www.w3.org/TR/2001/REC-SVG-20010904/DTD/svg10.dtd">
<svg version="1.0" xmlns="http://www.w3.org/2000/svg"
 width="192.000000pt" height="192.000000pt" viewBox="0 0 192.000000 192.000000"
 preserveAspectRatio="xMidYMid meet">
<metadata>
Created by potrace 1.16, written by Peter Selinger 2001-2019
</metadata>
<g transform="translate(0.000000,192.000000) scale(0.100000,-0.100000)"
fill="#000000" stroke="none">
811 c445 -92 729 -532 635 -987 -62 -301 -295 -546 -601 -630 -91 -26 -329
-26 -420 0 -291 80 -516 305 -596 596 -26 91 -26 329 0 420 120 433 542 692
982 601z"/>
<path d="M935 1370 c-11 -4 -44 -33 -72 -63 -51 -54 -53 -57 -53 -114 l0 -59
65 -64 65 -64 0 101 0 101 54 50 55 49 -32 30 c-38 36 -55 43 -82 33z"/>
<path d="M1012 1227 l-42 -43 0 -89 0 -89 68 67 68 67 77 0 77 0 0 49 c0 72
-13 81 -119 81 l-87 0 -42 -43z"/>
<path d="M608 1052 c-46 -45 -60 -65 -60 -87 0 -22 14 -42 60 -87 59 -57 61
-58 118 -58 l59 0 72 72 73 73 -72 72 -72 73 -59 0 c-58 0 -60 -1 -119 -58z"/>
<path d="M1052 1037 l-72 -72 73 -73 72 -72 59 0 c57 0 59 1 118 58 46 45 61
65 61 87 0 22 -15 42 -61 87 -59 57 -61 58 -119 58 l-59 0 -72 -73z"/>
<path d="M870 855 l-64 -65 -78 0 -78 0 0 -49 c0 -72 13 -81 119 -81 l87 0 42
43 43 44 -3 87 -3 87 -65 -66z"/>
<path d="M970 823 l0 -101 -54 -50 -55 -49 34 -33 c51 -49 77 -44 147 28 57
59 58 61 58 119 l0 59 -65 64 -65 64 0 -101z"/>
</g>
</svg>
