<?xml version="1.0" standalone="no"?>
<!DOCTYPE svg PUBLIC "-//W3C//DTD SVG 20010904//EN"
 "http://www.w3.org/TR/2001/REC-SVG-20010904/DTD/svg10.dtd">
<svg version="1.0" xmlns="http://www.w3.org/2000/svg"
 width="192.000000pt" height="192.000000pt" viewBox="0 0 192.000000 192.000000"
 preserveAspectRatio="xMidYMid meet">
<metadata>
Created by potrace 1.16, written by Peter Selinger 2001-2019
</metadata>
<g transform="translate(0.000000,192.000000) scale(0.100000,-0.100000)"
fill="#000000" stroke="none">
811 c445 -92 729 -532 635 -987 -62 -301 -295 -546 -601 -630 -91 -26 -329
-26 -420 0 -291 80 -516 305 -596 596 -26 91 -26 329 0 420 120 433 542 692
982 601z"/>
<path d="M707 1325 c-50 -17 -85 -50 -108 -100 -16 -35 -19 -68 -19 -259 0
-203 2 -223 21 -263 11 -23 34 -52 51 -64 l29 -21 30 28 c45 43 88 139 96 214
6 60 9 68 47 102 23 20 56 39 75 43 97 19 194 94 240 187 35 69 42 50 16 -40
-15 -50 -15 -54 10 -117 15 -36 23 -69 20 -75 -3 -6 -19 -17 -34 -25 -23 -11
-27 -19 -23 -40 3 -21 0 -27 -17 -32 -16 -4 -19 -11 -15 -28 4 -17 0 -26 -15
-35 -12 -6 -21 -21 -21 -34 0 -29 -29 -56 -61 -56 -13 0 -48 11 -77 25 -30 14
-63 25 -74 25 -12 0 -50 -31 -94 -77 -41 -43 -74 -79 -74 -80 0 -2 109 -3 243
-3 l243 0 46 29 c30 19 52 44 67 73 20 41 21 60 21 264 0 191 -3 224 -19 259
-22 50 -69 91 -119 105 -57 15 -438 12 -485 -5z"/>
</g>
</svg>
