<?xml version="1.0" standalone="no"?>
<!DOCTYPE svg PUBLIC "-//W3C//DTD SVG 20010904//EN"
 "http://www.w3.org/TR/2001/REC-SVG-20010904/DTD/svg10.dtd">
<svg version="1.0" xmlns="http://www.w3.org/2000/svg"
 width="192.000000pt" height="192.000000pt" viewBox="0 0 192.000000 192.000000"
 preserveAspectRatio="xMidYMid meet">
<metadata>
Created by potrace 1.16, written by Peter Selinger 2001-2019
</metadata>
<g transform="translate(0.000000,192.000000) scale(0.100000,-0.100000)"
fill="#000000" stroke="none">
811 c445 -92 729 -532 635 -987 -62 -301 -295 -546 -601 -630 -91 -26 -329
-26 -420 0 -291 80 -516 305 -596 596 -26 91 -26 329 0 420 120 433 542 692
982 601z"/>
<path d="M897 1369 c-75 -8 -193 -66 -240 -118 -254 -281 -54 -711 322 -689
84 5 197 47 188 70 -5 17 -31 14 -87 -8 -31 -13 -72 -18 -130 -18 -72 0 -94 4
-147 28 -74 34 -97 56 -88 85 10 34 40 44 93 32 26 -5 56 -9 67 -8 15 2 21 -5
23 -25 2 -15 17 -41 33 -58 54 -53 149 -37 149 26 0 16 -8 28 -25 36 -22 10
-28 9 -43 -7 -14 -15 -14 -17 -1 -7 19 14 45 7 53 -15 17 -42 -61 -60 -88 -21
-25 35 -20 76 13 109 35 34 47 36 56 9 10 -31 42 -43 96 -36 44 6 52 4 74 -18
14 -14 25 -33 25 -42 0 -30 48 24 80 91 145 294 -92 621 -423 584z m-147 -210
c0 -36 40 -99 80 -127 52 -37 63 -63 64 -157 1 -44 5 -88 10 -97 5 -12 4 -18
-3 -18 -6 0 -22 25 -36 56 l-25 57 -46 -7 c-58 -8 -88 7 -81 40 2 14 0 27 -5
30 -5 3 -7 12 -4 20 3 7 1 16 -5 19 -5 4 -6 11 -3 17 4 5 1 20 -6 33 -11 20
-9 28 14 58 17 22 26 46 26 71 0 22 4 35 10 31 6 -3 10 -15 10 -26z"/>
</g>
</svg>
