<?xml version="1.0" standalone="no"?>
<!DOCTYPE svg PUBLIC "-//W3C//DTD SVG 20010904//EN"
 "http://www.w3.org/TR/2001/REC-SVG-20010904/DTD/svg10.dtd">
<svg version="1.0" xmlns="http://www.w3.org/2000/svg"
 width="192.000000pt" height="192.000000pt" viewBox="0 0 192.000000 192.000000"
 preserveAspectRatio="xMidYMid meet">
<metadata>
Created by potrace 1.16, written by Peter Selinger 2001-2019
</metadata>
<g transform="translate(0.000000,192.000000) scale(0.100000,-0.100000)"
fill="#000000" stroke="none">
811 c445 -92 729 -532 635 -987 -62 -301 -295 -546 -601 -630 -91 -26 -329
-26 -420 0 -291 80 -516 305 -596 596 -26 91 -26 329 0 420 120 433 542 692
982 601z"/>
<path d="M910 1393 c-33 -17 -43 -37 -158 -295 -85 -192 -121 -284 -117 -298
4 -11 18 -28 31 -37 38 -24 69 -5 98 62 l25 55 166 0 166 0 25 -55 c29 -67 60
-86 98 -62 13 9 27 25 31 36 9 28 -229 567 -259 586 -37 24 -69 26 -106 8z
m108 -273 c27 -63 48 -118 45 -122 -5 -9 -207 -11 -216 -2 -5 5 17 63 79 203
15 33 28 51 34 45 5 -5 31 -61 58 -124z"/>
<path d="M646 624 c-24 -23 -20 -70 6 -88 19 -14 65 -16 303 -16 310 0 325 3
325 60 0 60 -3 60 -325 60 -254 0 -296 -2 -309 -16z"/>
</g>
</svg>
