<?xml version="1.0" standalone="no"?>
<!DOCTYPE svg PUBLIC "-//W3C//DTD SVG 20010904//EN"
 "http://www.w3.org/TR/2001/REC-SVG-20010904/DTD/svg10.dtd">
<svg version="1.0" xmlns="http://www.w3.org/2000/svg"
 width="192.000000pt" height="192.000000pt" viewBox="0 0 192.000000 192.000000"
 preserveAspectRatio="xMidYMid meet">
<metadata>
Created by potrace 1.16, written by Peter Selinger 2001-2019
</metadata>
<g transform="translate(0.000000,192.000000) scale(0.100000,-0.100000)"
fill="#000000" stroke="none">
811 c445 -92 729 -532 635 -987 -62 -301 -295 -546 -601 -630 -91 -26 -329
-26 -420 0 -291 80 -516 305 -596 596 -26 91 -26 329 0 420 120 433 542 692
982 601z"/>
<path d="M990 1250 c-41 -11 -121 -42 -176 -70 -119 -58 -227 -152 -294 -255
-122 -187 -9 -304 243 -254 61 13 81 27 71 53 -5 13 -22 16 -98 16 -142 0
-166 35 -68 100 40 26 52 40 52 60 0 26 1 26 63 22 46 -3 76 1 116 17 31 11
65 18 78 15 20 -5 23 -3 23 24 0 21 -8 36 -22 46 -29 21 -33 20 -46 -8 -11
-25 -72 -46 -133 -46 l-32 0 22 24 c16 16 21 31 16 45 -5 18 4 23 87 49 51 17
129 38 173 47 82 18 109 30 99 46 -7 13 -2 12 61 -12 94 -35 87 -62 -64 -239
-129 -152 -148 -213 -74 -248 29 -14 43 -14 104 -4 38 7 109 27 157 45 71 26
88 36 90 55 5 32 -17 36 -95 19 -103 -23 -173 -30 -173 -19 0 6 32 49 71 97
101 123 139 189 139 243 0 56 -23 94 -74 123 -58 33 -209 37 -316 9z"/>
</g>
</svg>
