<?xml version="1.0" standalone="no"?>
<!DOCTYPE svg PUBLIC "-//W3C//DTD SVG 20010904//EN"
 "http://www.w3.org/TR/2001/REC-SVG-20010904/DTD/svg10.dtd">
<svg version="1.0" xmlns="http://www.w3.org/2000/svg"
 width="192.000000pt" height="192.000000pt" viewBox="0 0 192.000000 192.000000"
 preserveAspectRatio="xMidYMid meet">
<metadata>
Created by potrace 1.16, written by Peter Selinger 2001-2019
</metadata>
<g transform="translate(0.000000,192.000000) scale(0.100000,-0.100000)"
fill="#000000" stroke="none">
811 c445 -92 729 -532 635 -987 -62 -301 -295 -546 -601 -630 -91 -26 -329
-26 -420 0 -291 80 -516 305 -596 596 -26 91 -26 329 0 420 120 433 542 692
982 601z"/>
<path d="M631 1076 c-8 -10 -8 -16 2 -24 17 -14 42 2 34 22 -8 20 -21 20 -36
2z"/>
<path d="M452 998 c-22 -56 -28 -86 -21 -93 6 -6 12 -2 15 13 9 32 75 32 97 0
8 -13 18 -20 22 -16 10 10 -56 178 -70 178 -7 0 -26 -37 -43 -82z m62 -5 c6
-20 4 -23 -18 -23 -30 0 -29 -2 -15 40 12 34 19 30 33 -17z"/>
<path d="M585 1068 c-10 -24 -1 -163 10 -163 13 0 19 155 6 168 -7 7 -12 5
-16 -5z"/>
<path d="M690 990 l0 -90 55 0 c42 0 55 3 55 15 0 11 -12 15 -46 15 -41 0 -45
2 -42 23 2 17 11 23 36 25 40 4 42 22 2 22 -25 0 -30 4 -30 25 0 22 4 25 35
25 24 0 35 5 35 15 0 11 -12 15 -50 15 l-50 0 0 -90z"/>
<path d="M637 1023 c-7 -15 5 -123 14 -123 5 0 9 29 9 65 0 56 -10 82 -23 58z"/>
<path d="M957 1012 c-13 -14 -17 -38 -17 -95 0 -42 5 -79 10 -82 6 -4 10 9 10
32 l0 39 39 -4 c31 -3 42 0 55 19 9 13 16 34 16 46 0 53 -78 84 -113 45z m64
-12 c32 -18 19 -80 -17 -80 -17 0 -44 28 -44 45 0 13 26 45 36 45 3 0 14 -5
25 -10z"/>
<path d="M1084 1016 c-9 -25 1 -109 14 -114 8 -2 12 10 12 42 0 35 5 48 20 56
11 6 20 15 20 20 0 15 -60 12 -66 -4z"/>
<path d="M1170 1010 c-43 -43 -9 -114 52 -108 17 2 33 9 36 17 3 10 -3 12 -25
7 -21 -5 -34 -2 -43 9 -11 13 -7 15 34 15 54 0 67 17 42 55 -20 31 -67 34 -96
5z m80 -25 c0 -3 -17 -5 -37 -5 -35 1 -37 2 -19 15 13 10 24 11 37 4 11 -5 19
-12 19 -14z"/>
<path d="M1303 1024 c-7 -3 -13 -16 -13 -30 0 -18 9 -27 36 -39 42 -17 37 -40
-8 -31 -21 4 -28 2 -26 -7 6 -17 56 -21 74 -6 25 21 16 49 -21 65 -40 16 -38
38 2 28 19 -5 24 -3 21 7 -5 14 -43 22 -65 13z"/>
<path d="M1401 1016 c-18 -22 -6 -45 29 -58 39 -13 33 -34 -9 -30 -32 2 -42
-11 -15 -22 27 -10 61 -7 74 9 18 22 3 53 -31 60 -37 8 -32 31 6 27 19 -2 26
1 23 10 -7 19 -62 22 -77 4z"/>
<path d="M820 1015 c0 -3 7 -17 16 -31 15 -23 15 -26 -1 -44 -9 -10 -14 -24
-10 -31 6 -8 13 -5 26 12 l18 24 16 -23 c23 -32 39 -17 19 17 -15 26 -15 30 1
54 15 24 15 27 2 27 -9 0 -20 -8 -26 -17 -9 -17 -10 -17 -28 0 -19 17 -33 22
-33 12z"/>
</g>
</svg>
