<?xml version="1.0" standalone="no"?>
<!DOCTYPE svg PUBLIC "-//W3C//DTD SVG 20010904//EN"
 "http://www.w3.org/TR/2001/REC-SVG-20010904/DTD/svg10.dtd">
<svg version="1.0" xmlns="http://www.w3.org/2000/svg"
 width="192.000000pt" height="192.000000pt" viewBox="0 0 192.000000 192.000000"
 preserveAspectRatio="xMidYMid meet">
<metadata>
Created by potrace 1.16, written by Peter Selinger 2001-2019
</metadata>
<g transform="translate(0.000000,192.000000) scale(0.100000,-0.100000)"
fill="#000000" stroke="none">
811 c445 -92 729 -532 635 -987 -62 -301 -295 -546 -601 -630 -91 -26 -329
-26 -420 0 -291 80 -516 305 -596 596 -26 91 -26 329 0 420 120 433 542 692
982 601z"/>
<path d="M803 1465 c-127 -35 -257 -130 -330 -242 -36 -56 -53 -113 -34 -113
6 0 29 29 52 65 81 128 212 214 361 236 147 22 307 -32 416 -140 88 -87 120
-158 149 -335 9 -57 36 -75 72 -50 26 19 28 81 6 169 -50 196 -210 358 -405
410 -69 18 -218 18 -287 0z"/>
<path d="M895 1354 c-77 -16 -146 -38 -156 -51 -22 -26 8 -31 64 -12 109 38
258 13 351 -58 96 -74 146 -178 146 -304 0 -99 -27 -168 -101 -261 -39 -47 -1
-106 50 -78 34 18 100 121 121 188 65 211 -35 440 -233 533 -86 40 -177 56
-242 43z"/>
<path d="M1010 1208 c1 -7 24 -26 52 -43 176 -102 181 -349 9 -452 -30 -18
-75 -35 -100 -38 -59 -8 -75 -17 -79 -44 -6 -36 15 -51 73 -51 38 0 68 8 113
30 198 100 248 353 101 514 -65 71 -170 123 -169 84z"/>
<path d="M1087 1024 c-3 -4 -4 -34 -1 -68 6 -71 -13 -112 -68 -147 -45 -28
-120 -22 -172 13 -48 33 -80 26 -84 -20 -3 -24 3 -35 30 -55 108 -82 262 -47
322 74 28 57 32 93 16 150 -11 38 -32 64 -43 53z"/>
</g>
</svg>
