<?xml version="1.0" standalone="no"?>
<!DOCTYPE svg PUBLIC "-//W3C//DTD SVG 20010904//EN"
 "http://www.w3.org/TR/2001/REC-SVG-20010904/DTD/svg10.dtd">
<svg version="1.0" xmlns="http://www.w3.org/2000/svg"
 width="192.000000pt" height="192.000000pt" viewBox="0 0 192.000000 192.000000"
 preserveAspectRatio="xMidYMid meet">
<metadata>
Created by potrace 1.16, written by Peter Selinger 2001-2019
</metadata>
<g transform="translate(0.000000,192.000000) scale(0.100000,-0.100000)"
fill="#000000" stroke="none">
811 c445 -92 729 -532 635 -987 -62 -301 -295 -546 -601 -630 -91 -26 -329
-26 -420 0 -291 80 -516 305 -596 596 -26 91 -26 329 0 420 120 433 542 692
982 601z"/>
<path d="M937 1330 c-16 -13 -27 -33 -29 -53 l-3 -32 -105 -3 c-116 -3 -140
-14 -140 -63 0 -47 30 -59 147 -59 l103 0 0 -30 0 -30 -87 0 c-99 0 -116 -7
-111 -41 l3 -24 188 -3 c103 -1 187 -5 187 -8 0 -2 -9 -22 -19 -43 l-20 -38
-88 24 c-125 35 -250 37 -316 4 -139 -68 -141 -253 -4 -323 120 -61 295 -18
411 100 l38 40 88 -39 c105 -47 140 -49 169 -13 12 15 21 35 21 45 0 32 -43
67 -112 89 -37 12 -70 25 -73 30 -3 4 8 37 25 72 33 70 38 113 14 122 -9 3
-51 6 -95 6 l-79 0 0 30 0 30 105 0 c92 0 108 3 125 20 25 25 26 62 2 83 -13
12 -43 17 -122 19 l-105 3 -3 32 c-3 35 -41 73 -72 73 -10 0 -29 -9 -43 -20z
m-102 -474 c28 -7 72 -23 99 -35 l49 -21 -23 -25 c-38 -41 -112 -84 -165 -96
-129 -29 -239 68 -165 146 41 44 116 55 205 31z"/>
</g>
</svg>
