<?xml version="1.0" standalone="no"?>
<!DOCTYPE svg PUBLIC "-//W3C//DTD SVG 20010904//EN"
 "http://www.w3.org/TR/2001/REC-SVG-20010904/DTD/svg10.dtd">
<svg version="1.0" xmlns="http://www.w3.org/2000/svg"
 width="192.000000pt" height="192.000000pt" viewBox="0 0 192.000000 192.000000"
 preserveAspectRatio="xMidYMid meet">
<metadata>
Created by potrace 1.16, written by Peter Selinger 2001-2019
</metadata>
<g transform="translate(0.000000,192.000000) scale(0.100000,-0.100000)"
fill="#000000" stroke="none">
811 c445 -92 729 -532 635 -987 -62 -301 -295 -546 -601 -630 -91 -26 -329
-26 -420 0 -291 80 -516 305 -596 596 -26 91 -26 329 0 420 120 433 542 692
982 601z"/>
<path d="M916 1304 c-10 -10 -16 -33 -16 -65 l0 -49 -78 0 c-82 0 -102 -9
-102 -45 0 -36 20 -45 102 -45 l78 0 0 -169 c0 -183 5 -201 54 -201 43 0 46
14 46 197 l0 173 85 0 c81 0 86 1 97 25 9 21 8 28 -7 45 -15 17 -31 20 -97 20
l-78 0 0 53 c0 29 -5 58 -12 65 -17 17 -54 15 -72 -4z"/>
<path d="M552 978 c-21 -21 -14 -47 16 -53 81 -18 170 -52 234 -92 91 -56 109
-45 42 27 -63 67 -141 107 -244 124 -22 4 -40 2 -48 -6z"/>
<path d="M1240 964 c-71 -19 -124 -51 -179 -107 -29 -31 -42 -51 -37 -62 5
-14 12 -12 48 13 78 53 158 86 261 107 24 5 28 10 25 33 -2 22 -8 27 -33 29
-16 1 -55 -5 -85 -13z"/>
<path d="M630 844 c-23 -27 7 -68 50 -71 19 -2 66 -8 103 -14 107 -17 109 1 6
50 -105 50 -141 58 -159 35z"/>
<path d="M1190 846 c-20 -8 -59 -25 -87 -40 -90 -45 -80 -63 23 -41 38 8 86
15 107 15 31 0 39 4 47 26 19 50 -18 66 -90 40z"/>
<path d="M560 755 c-16 -20 -4 -52 23 -58 12 -3 77 -13 145 -23 100 -14 128
-22 148 -41 36 -33 120 -33 156 0 21 20 49 27 159 43 146 20 179 36 159 74
-13 25 -23 25 -200 -1 -124 -19 -148 -25 -167 -45 -27 -29 -30 -29 -52 -2 -15
17 -43 25 -162 44 -170 28 -193 29 -209 9z"/>
</g>
</svg>
