<?xml version="1.0" standalone="no"?>
<!DOCTYPE svg PUBLIC "-//W3C//DTD SVG 20010904//EN"
 "http://www.w3.org/TR/2001/REC-SVG-20010904/DTD/svg10.dtd">
<svg version="1.0" xmlns="http://www.w3.org/2000/svg"
 width="192.000000pt" height="192.000000pt" viewBox="0 0 192.000000 192.000000"
 preserveAspectRatio="xMidYMid meet">
<metadata>
Created by potrace 1.16, written by Peter Selinger 2001-2019
</metadata>
<g transform="translate(0.000000,192.000000) scale(0.100000,-0.100000)"
fill="#000000" stroke="none">
811 c445 -92 729 -532 635 -987 -62 -301 -295 -546 -601 -630 -91 -26 -329
-26 -420 0 -291 80 -516 305 -596 596 -26 91 -26 329 0 420 120 433 542 692
982 601z"/>
<path d="M695 1325 c-40 -22 -73 -54 -93 -90 -15 -26 -17 -65 -17 -265 0 -225
1 -237 23 -277 12 -24 41 -55 64 -70 l42 -28 241 0 241 0 42 28 c23 15 52 46
64 70 22 40 23 52 23 277 0 264 -2 272 -78 334 l-39 31 -241 3 c-205 2 -247 0
-272 -13z m510 -65 c54 -33 65 -77 65 -255 l0 -155 -30 0 -30 0 0 115 c0 104
-11 165 -30 165 -19 0 -30 -61 -30 -165 0 -96 -3 -115 -15 -115 -13 0 -15 23
-15 145 l0 145 -45 0 -45 0 0 -145 0 -145 -25 0 c-19 0 -25 5 -25 21 0 12 8
28 18 35 15 12 15 13 1 14 -13 0 -18 15 -23 78 -8 81 -36 165 -44 127 -2 -11
-9 -23 -15 -27 -6 -4 -12 -49 -14 -105 -4 -112 -9 -143 -23 -143 -6 0 -10 55
-10 139 0 103 -3 140 -12 144 -34 11 -38 -4 -38 -144 0 -187 -19 -184 -22 4
l-3 142 -45 0 -45 0 -3 -142 -3 -143 -29 0 -30 0 0 155 c0 176 11 221 63 254
30 19 48 21 251 21 202 0 221 -2 251 -20z m-258 -196 c-9 -9 -28 6 -21 18 4 6
10 6 17 -1 6 -6 8 -13 4 -17z m2 -116 c1 -21 -3 -38 -9 -38 -6 0 -10 27 -9 63
1 46 3 56 9 37 4 -14 8 -42 9 -62z m1 -78 c0 -11 -7 -20 -15 -20 -17 0 -18 2
-9 24 9 23 24 20 24 -4z"/>
</g>
</svg>
