<?xml version="1.0" standalone="no"?>
<!DOCTYPE svg PUBLIC "-//W3C//DTD SVG 20010904//EN"
 "http://www.w3.org/TR/2001/REC-SVG-20010904/DTD/svg10.dtd">
<svg version="1.0" xmlns="http://www.w3.org/2000/svg"
 width="192.000000pt" height="192.000000pt" viewBox="0 0 192.000000 192.000000"
 preserveAspectRatio="xMidYMid meet">
<metadata>
Created by potrace 1.16, written by Peter Selinger 2001-2019
</metadata>
<g transform="translate(0.000000,192.000000) scale(0.100000,-0.100000)"
fill="#000000" stroke="none">
811 c445 -92 729 -532 635 -987 -62 -301 -295 -546 -601 -630 -91 -26 -329
-26 -420 0 -291 80 -516 305 -596 596 -26 91 -26 329 0 420 120 433 542 692
982 601z"/>
<path d="M745 1366 c-16 -8 -43 -28 -60 -45 l-30 -32 -3 -312 c-2 -298 -1
-314 18 -345 41 -67 62 -72 285 -72 223 0 244 5 285 72 19 31 20 51 20 288 l0
255 -103 103 -102 102 -140 0 c-95 -1 -150 -5 -170 -14z m305 -142 l0 -74 76
0 c72 0 75 -1 72 -22 -3 -21 -9 -23 -78 -26 -123 -5 -120 -8 -120 102 0 67 4
96 13 99 30 10 37 -6 37 -79z m-182 -306 c13 -13 16 -75 6 -102 -4 -11 -19
-16 -45 -16 -39 0 -39 0 -39 -40 0 -33 -3 -40 -20 -40 -19 0 -20 7 -20 98 0
54 3 102 7 105 11 12 98 8 111 -5z m150 4 c9 -6 12 -34 10 -103 l-3 -94 -62
-3 -63 -3 0 99 c0 54 3 102 7 105 9 10 95 8 111 -1z m160 -14 c3 -15 -4 -18
-37 -18 -37 0 -41 -2 -41 -25 0 -21 5 -25 30 -25 23 0 30 -4 30 -20 0 -16 -7
-20 -30 -20 -28 0 -30 -2 -30 -40 0 -33 -3 -40 -20 -40 -19 0 -20 7 -20 105
l0 106 57 -3 c46 -2 59 -7 61 -20z"/>
<path d="M797 883 c-15 -15 -7 -43 13 -43 15 0 20 7 20 25 0 24 -18 34 -33 18z"/>
<path d="M950 826 c0 -60 2 -66 20 -66 19 0 21 5 18 62 -2 50 -6 63 -20 66
-16 3 -18 -5 -18 -62z"/>
</g>
</svg>
