<?xml version="1.0" standalone="no"?>
<!DOCTYPE svg PUBLIC "-//W3C//DTD SVG 20010904//EN"
 "http://www.w3.org/TR/2001/REC-SVG-20010904/DTD/svg10.dtd">
<svg version="1.0" xmlns="http://www.w3.org/2000/svg"
 width="192.000000pt" height="192.000000pt" viewBox="0 0 192.000000 192.000000"
 preserveAspectRatio="xMidYMid meet">
<metadata>
Created by potrace 1.16, written by Peter Selinger 2001-2019
</metadata>
<g transform="translate(0.000000,192.000000) scale(0.100000,-0.100000)"
fill="#000000" stroke="none">
811 c445 -92 729 -532 635 -987 -62 -301 -295 -546 -601 -630 -91 -26 -329
-26 -420 0 -291 80 -516 305 -596 596 -26 91 -26 329 0 420 120 433 542 692
982 601z"/>
<path d="M1026 1373 c-11 -11 -6 -102 6 -109 13 -8 58 43 58 66 0 17 -53 53
-64 43z"/>
<path d="M941 1268 l-31 -33 2 -150 3 -150 40 0 40 0 3 171 c2 139 0 173 -12
183 -11 10 -20 6 -45 -21z"/>
<path d="M1046 1227 c-25 -32 -26 -39 -26 -165 l0 -132 40 0 40 0 -2 162 c-2
111 -7 163 -15 165 -6 2 -23 -11 -37 -30z"/>
<path d="M776 1064 c-43 -53 -79 -104 -80 -113 -1 -12 9 -17 41 -19 40 -3 43
-1 98 67 51 64 56 73 53 113 -2 28 -8 44 -18 46 -9 1 -47 -37 -94 -94z"/>
<path d="M659 894 c-11 -13 -11 -20 2 -42 l15 -27 157 -3 156 -3 7 27 c14 54
1 59 -168 62 -133 2 -157 0 -169 -14z"/>
<path d="M1065 884 c-14 -15 -25 -35 -25 -45 0 -17 9 -19 94 -19 73 0 98 4
110 16 21 20 20 30 -4 54 -16 16 -33 20 -85 20 -58 0 -69 -3 -90 -26z"/>
<path d="M914 787 c-2 -7 -3 -62 -2 -123 l3 -109 28 -3 c49 -6 57 10 57 118 0
54 -3 105 -6 114 -8 20 -72 22 -80 3z"/>
<path d="M1024 787 c-3 -8 -4 -39 -2 -68 l3 -54 35 0 35 0 0 65 0 65 -33 3
c-21 2 -34 -2 -38 -11z"/>
<path d="M796 625 c-21 -21 -20 -38 3 -59 12 -11 31 -16 53 -14 31 3 33 5 33
43 0 39 -1 40 -36 43 -24 2 -42 -3 -53 -13z"/>
<path d="M1024 626 c-3 -8 -4 -27 -2 -43 3 -27 5 -28 70 -31 37 -2 77 2 88 8
22 12 27 49 8 68 -18 18 -157 16 -164 -2z"/>
</g>
</svg>
