<?xml version="1.0" standalone="no"?>
<!DOCTYPE svg PUBLIC "-//W3C//DTD SVG 20010904//EN"
 "http://www.w3.org/TR/2001/REC-SVG-20010904/DTD/svg10.dtd">
<svg version="1.0" xmlns="http://www.w3.org/2000/svg"
 width="192.000000pt" height="192.000000pt" viewBox="0 0 192.000000 192.000000"
 preserveAspectRatio="xMidYMid meet">
<metadata>
Created by potrace 1.16, written by Peter Selinger 2001-2019
</metadata>
<g transform="translate(0.000000,192.000000) scale(0.100000,-0.100000)"
fill="#000000" stroke="none">
811 c445 -92 729 -532 635 -987 -62 -301 -295 -546 -601 -630 -91 -26 -329
-26 -420 0 -291 80 -516 305 -596 596 -26 91 -26 329 0 420 120 433 542 692
982 601z"/>
<path d="M707 1325 c-50 -17 -85 -50 -108 -100 -16 -35 -19 -67 -19 -260 0
-192 3 -225 19 -260 22 -50 69 -91 119 -105 53 -14 425 -13 476 2 52 16 108
72 124 124 16 56 16 422 0 478 -16 52 -72 108 -124 124 -60 17 -436 16 -487
-3z m61 -122 c3 -32 2 -33 -32 -33 -33 0 -36 3 -36 28 0 36 8 44 40 40 20 -2
26 -9 28 -35z m110 0 c3 -32 2 -33 -32 -33 -33 0 -36 3 -36 28 0 36 8 44 40
40 20 -2 26 -9 28 -35z m110 0 c3 -32 2 -33 -32 -33 -33 0 -36 3 -36 28 0 36
8 44 40 40 20 -2 26 -9 28 -35z m107 2 c0 -26 -4 -30 -32 -33 -25 -2 -33 1
-38 18 -9 28 12 52 44 48 22 -2 26 -8 26 -33z m113 -2 c3 -32 2 -33 -32 -33
-33 0 -36 3 -36 28 0 36 8 44 40 40 20 -2 26 -9 28 -35z m-208 -188 l0 -85 32
0 32 0 -49 -50 c-27 -27 -54 -50 -60 -50 -6 0 -33 23 -60 50 l-49 50 32 0 32
0 0 85 0 85 45 0 45 0 0 -85z m-232 -287 c-3 -29 -6 -33 -33 -33 -27 0 -30 4
-33 33 -3 31 -2 32 33 32 35 0 36 -1 33 -32z m110 0 c-3 -29 -6 -33 -33 -33
-27 0 -30 4 -33 33 -3 31 -2 32 33 32 35 0 36 -1 33 -32z m110 0 c-3 -29 -6
-33 -33 -33 -27 0 -30 4 -33 33 -3 31 -2 32 33 32 35 0 36 -1 33 -32z m107 -3
c0 -25 -4 -31 -26 -33 -32 -4 -53 20 -44 48 5 17 13 20 38 18 28 -3 32 -7 32
-33z m113 3 c-3 -29 -6 -33 -33 -33 -27 0 -30 4 -33 33 -3 31 -2 32 33 32 35
0 36 -1 33 -32z"/>
</g>
</svg>
