<?xml version="1.0" standalone="no"?>
<!DOCTYPE svg PUBLIC "-//W3C//DTD SVG 20010904//EN"
 "http://www.w3.org/TR/2001/REC-SVG-20010904/DTD/svg10.dtd">
<svg version="1.0" xmlns="http://www.w3.org/2000/svg"
 width="192.000000pt" height="192.000000pt" viewBox="0 0 192.000000 192.000000"
 preserveAspectRatio="xMidYMid meet">
<metadata>
Created by potrace 1.16, written by Peter Selinger 2001-2019
</metadata>
<g transform="translate(0.000000,192.000000) scale(0.100000,-0.100000)"
fill="#000000" stroke="none">
811 c445 -92 729 -532 635 -987 -62 -301 -295 -546 -601 -630 -91 -26 -329
-26 -420 0 -291 80 -516 305 -596 596 -26 91 -26 329 0 420 120 433 542 692
982 601z"/>
<path d="M446 976 c-14 -58 -26 -108 -26 -111 0 -15 40 -2 45 15 4 14 15 20
35 20 19 0 29 -6 33 -20 3 -12 14 -20 26 -20 24 0 25 -10 -13 135 -19 72 -23
80 -47 83 -25 3 -27 0 -53 -102z m66 -11 c4 -20 1 -25 -14 -25 -14 0 -18 5
-14 16 3 9 6 22 6 30 0 23 17 7 22 -21z"/>
<path d="M607 1074 c-4 -4 -7 -54 -7 -111 l0 -103 55 0 c48 0 55 2 55 20 0 15
-7 20 -30 20 l-29 0 -3 87 c-2 70 -6 88 -18 91 -9 1 -19 0 -23 -4z"/>
<path d="M747 1073 c-4 -3 -7 -53 -7 -110 l0 -103 55 0 c48 0 55 2 55 20 0 16
-7 20 -30 20 l-30 0 0 90 c0 81 -2 90 -18 90 -10 0 -22 -3 -25 -7z"/>
<path d="M880 970 l0 -110 65 0 c58 0 65 2 65 20 0 17 -7 20 -40 20 -36 0 -40
3 -40 25 0 21 5 25 30 25 23 0 30 4 30 20 0 16 -7 20 -30 20 -23 0 -30 5 -30
19 0 16 8 20 38 23 30 2 38 7 40 26 3 21 0 22 -62 22 l-66 0 0 -110z"/>
<path d="M1052 1068 c-16 -16 -16 -180 0 -196 13 -13 66 -16 92 -6 12 5 16 20
16 60 0 53 0 54 -30 54 -23 0 -30 -4 -30 -20 0 -11 5 -20 10 -20 6 0 10 -9 10
-20 0 -13 -7 -20 -20 -20 -18 0 -20 7 -20 64 0 71 15 93 38 58 8 -12 21 -22
28 -22 17 0 19 51 2 68 -16 16 -80 16 -96 0z"/>
<path d="M1197 1073 c-4 -3 -7 -53 -7 -110 l0 -103 25 0 c21 0 25 5 25 31 0
36 21 35 30 -2 4 -15 14 -25 28 -27 20 -3 22 0 16 25 -4 15 -6 32 -5 38 1 5 4
37 7 69 5 50 3 62 -12 73 -18 13 -96 18 -107 6z m81 -71 c3 -27 0 -32 -17 -32
-17 0 -21 6 -21 36 0 28 3 35 18 32 11 -2 18 -14 20 -36z"/>
<path d="M1368 1069 c-15 -8 -18 -25 -18 -97 0 -55 4 -92 12 -100 7 -7 31 -12
55 -12 54 0 63 16 63 114 0 54 -4 79 -16 90 -17 18 -70 21 -96 5z m67 -99 c0
-58 -2 -65 -20 -65 -17 0 -20 8 -23 54 -4 65 2 84 25 79 15 -3 18 -14 18 -68z"/>
</g>
</svg>
