<?xml version="1.0" standalone="no"?>
<!DOCTYPE svg PUBLIC "-//W3C//DTD SVG 20010904//EN"
 "http://www.w3.org/TR/2001/REC-SVG-20010904/DTD/svg10.dtd">
<svg version="1.0" xmlns="http://www.w3.org/2000/svg"
 width="192.000000pt" height="192.000000pt" viewBox="0 0 192.000000 192.000000"
 preserveAspectRatio="xMidYMid meet">
<metadata>
Created by potrace 1.16, written by Peter Selinger 2001-2019
</metadata>
<g transform="translate(0.000000,192.000000) scale(0.100000,-0.100000)"
fill="#000000" stroke="none">
811 c445 -92 729 -532 635 -987 -62 -301 -295 -546 -601 -630 -91 -26 -329
-26 -420 0 -291 80 -516 305 -596 596 -26 91 -26 329 0 420 120 433 542 692
982 601z"/>
<path d="M917 1267 c-27 -22 -387 -515 -387 -530 0 -8 7 -21 16 -28 13 -11 28
-9 92 14 175 61 282 57 423 -13 88 -45 166 -61 240 -49 89 14 100 40 42 95
-61 56 -185 113 -288 131 -74 13 -105 13 -174 4 -47 -6 -86 -10 -87 -8 -2 2
121 176 135 190 5 5 27 -21 50 -58 23 -36 48 -68 56 -71 8 -3 31 4 51 17 l36
22 55 -56 c56 -58 86 -70 97 -41 6 16 -87 190 -119 223 -14 15 -19 14 -76 -17
-3 -1 -31 38 -63 87 -59 93 -75 107 -99 88z"/>
</g>
</svg>
