<?xml version="1.0" standalone="no"?>
<!DOCTYPE svg PUBLIC "-//W3C//DTD SVG 20010904//EN"
 "http://www.w3.org/TR/2001/REC-SVG-20010904/DTD/svg10.dtd">
<svg version="1.0" xmlns="http://www.w3.org/2000/svg"
 width="192.000000pt" height="192.000000pt" viewBox="0 0 192.000000 192.000000"
 preserveAspectRatio="xMidYMid meet">
<metadata>
Created by potrace 1.16, written by Peter Selinger 2001-2019
</metadata>
<g transform="translate(0.000000,192.000000) scale(0.100000,-0.100000)"
fill="#000000" stroke="none">
811 c445 -92 729 -532 635 -987 -62 -301 -295 -546 -601 -630 -91 -26 -329
-26 -420 0 -291 80 -516 305 -596 596 -26 91 -26 329 0 420 120 433 542 692
982 601z"/>
<path d="M809 1346 c-69 -28 -104 -52 -156 -109 -150 -163 -146 -399 9 -564
61 -63 153 -113 212 -113 39 0 46 5 146 107 l104 108 -113 7 c-98 6 -119 11
-152 33 -76 50 -104 166 -56 236 46 69 121 99 194 80 54 -15 92 -46 114 -95
16 -35 19 -68 19 -238 0 -108 3 -203 6 -212 10 -26 143 -22 178 5 51 40 56 63
56 252 0 204 -14 267 -80 359 -46 65 -138 131 -213 153 -78 23 -200 19 -268
-9z"/>
</g>
</svg>
