<?xml version="1.0" standalone="no"?>
<!DOCTYPE svg PUBLIC "-//W3C//DTD SVG 20010904//EN"
 "http://www.w3.org/TR/2001/REC-SVG-20010904/DTD/svg10.dtd">
<svg version="1.0" xmlns="http://www.w3.org/2000/svg"
 width="192.000000pt" height="192.000000pt" viewBox="0 0 192.000000 192.000000"
 preserveAspectRatio="xMidYMid meet">
<metadata>
Created by potrace 1.16, written by Peter Selinger 2001-2019
</metadata>
<g transform="translate(0.000000,192.000000) scale(0.100000,-0.100000)"
fill="#000000" stroke="none">
811 c445 -92 729 -532 635 -987 -62 -301 -295 -546 -601 -630 -91 -26 -329
-26 -420 0 -291 80 -516 305 -596 596 -26 91 -26 329 0 420 120 433 542 692
982 601z"/>
<path d="M890 1366 c-29 -10 -36 -18 -38 -45 l-3 -31 -29 17 c-28 16 -31 16
-80 -7 -76 -35 -102 -71 -133 -181 -30 -106 -51 -233 -43 -254 3 -8 23 -18 46
-21 22 -4 40 -11 40 -17 0 -6 -15 -26 -32 -44 -32 -33 -32 -34 -10 -40 14 -3
22 -13 22 -27 0 -12 28 -51 68 -93 l67 -73 73 0 c106 0 262 19 299 37 18 8 53
39 78 69 l46 54 -18 30 c-16 27 -16 32 -3 40 8 5 23 10 32 10 13 0 16 9 15 43
-2 40 0 43 32 52 l33 10 -5 67 c-3 36 -13 108 -23 158 -20 110 -45 145 -138
192 -130 66 -218 82 -296 54z m178 -252 c47 -40 72 -104 72 -184 0 -40 -6 -54
-48 -105 -52 -65 -68 -73 -158 -74 -55 -1 -63 2 -92 32 -36 38 -62 94 -62 137
0 43 35 139 62 167 25 27 110 62 154 62 21 1 43 -10 72 -35z"/>
</g>
</svg>
