<?xml version="1.0" standalone="no"?>
<!DOCTYPE svg PUBLIC "-//W3C//DTD SVG 20010904//EN"
 "http://www.w3.org/TR/2001/REC-SVG-20010904/DTD/svg10.dtd">
<svg version="1.0" xmlns="http://www.w3.org/2000/svg"
 width="192.000000pt" height="192.000000pt" viewBox="0 0 192.000000 192.000000"
 preserveAspectRatio="xMidYMid meet">
<metadata>
Created by potrace 1.16, written by Peter Selinger 2001-2019
</metadata>
<g transform="translate(0.000000,192.000000) scale(0.100000,-0.100000)"
fill="#000000" stroke="none">
811 c445 -92 729 -532 635 -987 -62 -301 -295 -546 -601 -630 -91 -26 -329
-26 -420 0 -291 80 -516 305 -596 596 -26 91 -26 329 0 420 120 433 542 692
982 601z"/>
<path d="M906 1321 c-23 -25 -316 -619 -316 -640 0 -35 38 -80 75 -87 43 -8
77 12 107 62 l20 34 168 0 c157 0 169 -1 175 -19 11 -35 45 -69 74 -76 60 -13
123 51 106 107 -16 51 -297 614 -312 626 -25 18 -77 15 -97 -7z m90 -385 c19
-41 34 -79 34 -85 0 -7 -29 -11 -76 -11 -72 0 -75 1 -69 21 11 33 66 149 72
149 2 0 20 -33 39 -74z"/>
</g>
</svg>
