<?xml version="1.0" standalone="no"?>
<!DOCTYPE svg PUBLIC "-//W3C//DTD SVG 20010904//EN"
 "http://www.w3.org/TR/2001/REC-SVG-20010904/DTD/svg10.dtd">
<svg version="1.0" xmlns="http://www.w3.org/2000/svg"
 width="192.000000pt" height="192.000000pt" viewBox="0 0 192.000000 192.000000"
 preserveAspectRatio="xMidYMid meet">
<metadata>
Created by potrace 1.16, written by Peter Selinger 2001-2019
</metadata>
<g transform="translate(0.000000,192.000000) scale(0.100000,-0.100000)"
fill="#000000" stroke="none">
811 c445 -92 729 -532 635 -987 -62 -301 -295 -546 -601 -630 -91 -26 -329
-26 -420 0 -291 80 -516 305 -596 596 -26 91 -26 329 0 420 120 433 542 692
982 601z"/>
<path d="M860 1365 c-72 -20 -123 -55 -157 -107 -39 -58 -45 -167 -13 -232 37
-77 91 -107 293 -162 72 -19 96 -48 75 -91 -17 -35 -52 -53 -106 -53 -49 0
-86 17 -121 54 -29 31 -46 32 -118 9 -67 -21 -80 -41 -57 -88 73 -154 377
-193 523 -68 59 50 84 104 84 179 -1 128 -60 179 -286 245 -87 25 -117 48
-117 88 0 34 25 59 68 67 44 9 76 -1 117 -38 l36 -31 57 13 c75 16 92 26 92
53 0 50 -66 119 -144 152 -56 24 -160 28 -226 10z"/>
</g>
</svg>
