<?xml version="1.0" standalone="no"?>
<!DOCTYPE svg PUBLIC "-//W3C//DTD SVG 20010904//EN"
 "http://www.w3.org/TR/2001/REC-SVG-20010904/DTD/svg10.dtd">
<svg version="1.0" xmlns="http://www.w3.org/2000/svg"
 width="192.000000pt" height="192.000000pt" viewBox="0 0 192.000000 192.000000"
 preserveAspectRatio="xMidYMid meet">
<metadata>
Created by potrace 1.16, written by Peter Selinger 2001-2019
</metadata>
<g transform="translate(0.000000,192.000000) scale(0.100000,-0.100000)"
fill="#000000" stroke="none">
811 c445 -92 729 -532 635 -987 -62 -301 -295 -546 -601 -630 -91 -26 -329
-26 -420 0 -291 80 -516 305 -596 596 -26 91 -26 329 0 420 120 433 542 692
982 601z"/>
<path d="M642 1348 c-17 -17 -17 -749 0 -766 16 -16 160 -16 176 0 8 8 12 63
13 177 0 159 1 165 17 142 9 -14 64 -93 122 -175 l105 -151 100 0 c82 0 100 3
103 16 1 8 -56 97 -128 197 -71 101 -130 186 -130 191 0 4 54 84 120 176 67
93 119 176 118 185 -3 12 -21 15 -98 15 l-95 0 -115 -167 -115 -167 -3 156
c-1 95 -7 162 -13 170 -15 17 -160 18 -177 1z"/>
</g>
</svg>
