<?xml version="1.0" standalone="no"?>
<!DOCTYPE svg PUBLIC "-//W3C//DTD SVG 20010904//EN"
 "http://www.w3.org/TR/2001/REC-SVG-20010904/DTD/svg10.dtd">
<svg version="1.0" xmlns="http://www.w3.org/2000/svg"
 width="192.000000pt" height="192.000000pt" viewBox="0 0 192.000000 192.000000"
 preserveAspectRatio="xMidYMid meet">
<metadata>
Created by potrace 1.16, written by Peter Selinger 2001-2019
</metadata>
<g transform="translate(0.000000,192.000000) scale(0.100000,-0.100000)"
fill="#000000" stroke="none">
811 c445 -92 729 -532 635 -987 -62 -301 -295 -546 -601 -630 -91 -26 -329
-26 -420 0 -291 80 -516 305 -596 596 -26 91 -26 329 0 420 120 433 542 692
982 601z"/>
<path d="M630 1351 c-14 -26 -13 -470 1 -546 20 -107 70 -174 164 -217 42 -19
67 -23 160 -23 93 0 118 4 160 23 94 43 144 110 164 217 14 76 15 520 1 546
-9 16 -22 19 -90 19 -68 0 -81 -3 -90 -19 -6 -12 -10 -114 -10 -261 0 -267 -6
-297 -61 -325 -36 -19 -112 -19 -148 0 -55 28 -61 58 -61 325 0 147 -4 249
-10 261 -9 16 -22 19 -90 19 -68 0 -81 -3 -90 -19z"/>
</g>
</svg>
