<?xml version="1.0" standalone="no"?>
<!DOCTYPE svg PUBLIC "-//W3C//DTD SVG 20010904//EN"
 "http://www.w3.org/TR/2001/REC-SVG-20010904/DTD/svg10.dtd">
<svg version="1.0" xmlns="http://www.w3.org/2000/svg"
 width="192.000000pt" height="192.000000pt" viewBox="0 0 192.000000 192.000000"
 preserveAspectRatio="xMidYMid meet">
<metadata>
Created by potrace 1.16, written by Peter Selinger 2001-2019
</metadata>
<g transform="translate(0.000000,192.000000) scale(0.100000,-0.100000)"
fill="#000000" stroke="none">
811 c445 -92 729 -532 635 -987 -62 -301 -295 -546 -601 -630 -91 -26 -329
-26 -420 0 -291 80 -516 305 -596 596 -26 91 -26 329 0 420 120 433 542 692
982 601z"/>
<path d="M1002 1357 c-7 -8 -12 -110 -14 -284 l-3 -271 -24 -26 c-19 -20 -34
-26 -69 -26 -43 0 -60 11 -110 74 -13 16 -27 15 -121 -8 -56 -14 -68 -32 -53
-83 29 -97 131 -163 261 -171 146 -8 243 42 292 151 22 50 24 64 27 333 3 197
0 288 -7 303 -10 19 -21 21 -90 21 -52 0 -82 -4 -89 -13z"/>
</g>
</svg>
