<?xml version="1.0" standalone="no"?>
<!DOCTYPE svg PUBLIC "-//W3C//DTD SVG 20010904//EN"
 "http://www.w3.org/TR/2001/REC-SVG-20010904/DTD/svg10.dtd">
<svg version="1.0" xmlns="http://www.w3.org/2000/svg"
 width="192.000000pt" height="192.000000pt" viewBox="0 0 192.000000 192.000000"
 preserveAspectRatio="xMidYMid meet">
<metadata>
Created by potrace 1.16, written by Peter Selinger 2001-2019
</metadata>
<g transform="translate(0.000000,192.000000) scale(0.100000,-0.100000)"
fill="#000000" stroke="none">
811 c445 -92 729 -532 635 -987 -62 -301 -295 -546 -601 -630 -91 -26 -329
-26 -420 0 -291 80 -516 305 -596 596 -26 91 -26 329 0 420 120 433 542 692
982 601z"/>
<path d="M923 1350 c-116 -24 -220 -107 -269 -213 -26 -56 -29 -72 -29 -172 0
-100 3 -116 29 -173 88 -191 330 -274 524 -180 59 28 112 75 112 99 0 20 -79
85 -116 95 -13 3 -35 -4 -58 -20 -47 -32 -115 -42 -169 -26 -62 18 -122 85
-136 151 -41 192 145 336 303 233 45 -30 63 -28 129 22 61 44 59 65 -7 115
-81 61 -213 90 -313 69z"/>
</g>
</svg>
