<?xml version="1.0" standalone="no"?>
<!DOCTYPE svg PUBLIC "-//W3C//DTD SVG 20010904//EN"
 "http://www.w3.org/TR/2001/REC-SVG-20010904/DTD/svg10.dtd">
<svg version="1.0" xmlns="http://www.w3.org/2000/svg"
 width="192.000000pt" height="192.000000pt" viewBox="0 0 192.000000 192.000000"
 preserveAspectRatio="xMidYMid meet">
<metadata>
Created by potrace 1.16, written by Peter Selinger 2001-2019
</metadata>
<g transform="translate(0.000000,192.000000) scale(0.100000,-0.100000)"
fill="#000000" stroke="none">
811 c445 -92 729 -532 635 -987 -62 -301 -295 -546 -601 -630 -91 -26 -329
-26 -420 0 -291 80 -516 305 -596 596 -26 91 -26 329 0 420 120 433 542 692
982 601z"/>
<path d="M760 1327 c-19 -12 -43 -38 -54 -57 -20 -33 -21 -53 -24 -342 -2
-208 0 -314 8 -328 9 -17 21 -20 79 -20 54 0 70 4 75 16 3 9 6 65 6 125 l0
109 110 0 109 0 3 -122 3 -123 75 0 75 0 3 320 c2 316 2 321 -20 364 -37 72
-64 81 -254 81 -151 0 -163 -1 -194 -23z m291 -127 c17 -10 19 -22 19 -115 l0
-105 -110 0 -110 0 0 109 c0 78 4 111 13 114 23 10 168 7 188 -3z"/>
</g>
</svg>
