<?xml version="1.0" standalone="no"?>
<!DOCTYPE svg PUBLIC "-//W3C//DTD SVG 20010904//EN"
 "http://www.w3.org/TR/2001/REC-SVG-20010904/DTD/svg10.dtd">
<svg version="1.0" xmlns="http://www.w3.org/2000/svg"
 width="192.000000pt" height="192.000000pt" viewBox="0 0 192.000000 192.000000"
 preserveAspectRatio="xMidYMid meet">
<metadata>
Created by potrace 1.16, written by Peter Selinger 2001-2019
</metadata>
<g transform="translate(0.000000,192.000000) scale(0.100000,-0.100000)"
fill="#000000" stroke="none">
811 c445 -92 729 -532 635 -987 -62 -301 -295 -546 -601 -630 -91 -26 -329
-26 -420 0 -291 80 -516 305 -596 596 -26 91 -26 329 0 420 120 433 542 692
982 601z"/>
<path d="M622 1348 c-17 -17 -17 -749 0 -766 16 -16 160 -16 176 0 8 8 12 57
12 155 l0 144 143 -3 142 -3 5 -150 5 -150 90 0 90 0 0 390 0 390 -90 0 -90 0
-3 -147 -3 -148 -144 0 -145 0 0 138 c0 94 -4 142 -12 150 -7 7 -42 12 -88 12
-46 0 -81 -5 -88 -12z"/>
</g>
</svg>
