<?xml version="1.0" standalone="no"?>
<!DOCTYPE svg PUBLIC "-//W3C//DTD SVG 20010904//EN"
 "http://www.w3.org/TR/2001/REC-SVG-20010904/DTD/svg10.dtd">
<svg version="1.0" xmlns="http://www.w3.org/2000/svg"
 width="192.000000pt" height="192.000000pt" viewBox="0 0 192.000000 192.000000"
 preserveAspectRatio="xMidYMid meet">
<metadata>
Created by potrace 1.16, written by Peter Selinger 2001-2019
</metadata>
<g transform="translate(0.000000,192.000000) scale(0.100000,-0.100000)"
fill="#000000" stroke="none">
811 c445 -92 729 -532 635 -987 -62 -301 -295 -546 -601 -630 -91 -26 -329
-26 -420 0 -291 80 -516 305 -596 596 -26 91 -26 329 0 420 120 433 542 692
982 601z"/>
<path d="M663 1349 c-10 -10 -13 -101 -13 -385 0 -314 2 -373 15 -384 10 -9
68 -11 217 -8 190 3 206 5 248 27 59 31 78 48 102 94 25 50 33 121 19 173 -11
41 -77 114 -103 114 -6 0 5 15 24 34 76 74 72 202 -9 278 -57 54 -91 62 -298
66 -145 3 -193 0 -202 -9z m316 -150 c17 -6 36 -19 41 -29 16 -30 12 -76 -9
-101 -16 -20 -30 -24 -95 -27 l-76 -4 0 86 0 86 54 0 c29 0 67 -5 85 -11z m56
-324 c33 -32 33 -84 1 -122 -23 -26 -31 -28 -110 -32 l-86 -3 0 91 0 91 85 0
c78 0 88 -2 110 -25z"/>
</g>
</svg>
