<?xml version="1.0" standalone="no"?>
<!DOCTYPE svg PUBLIC "-//W3C//DTD SVG 20010904//EN"
 "http://www.w3.org/TR/2001/REC-SVG-20010904/DTD/svg10.dtd">
<svg version="1.0" xmlns="http://www.w3.org/2000/svg"
 width="192.000000pt" height="192.000000pt" viewBox="0 0 192.000000 192.000000"
 preserveAspectRatio="xMidYMid meet">
<metadata>
Created by potrace 1.16, written by Peter Selinger 2001-2019
</metadata>
<g transform="translate(0.000000,192.000000) scale(0.100000,-0.100000)"
fill="#000000" stroke="none">
811 c445 -92 729 -532 635 -987 -62 -301 -295 -546 -601 -630 -91 -26 -329
-26 -420 0 -291 80 -516 305 -596 596 -26 91 -26 329 0 420 120 433 542 692
982 601z"/>
<path d="M864 1370 c-114 -23 -215 -103 -270 -215 -30 -61 -37 -87 -41 -157
-9 -147 32 -255 133 -347 115 -105 302 -131 446 -61 l41 20 34 -30 c18 -17 39
-30 45 -30 16 0 88 75 88 92 0 8 -13 26 -28 41 l-28 27 28 58 c101 203 27 461
-159 559 -91 48 -188 63 -289 43z m171 -199 c51 -23 101 -79 114 -128 14 -49
14 -124 1 -159 l-11 -27 -42 41 c-24 23 -49 42 -57 42 -16 0 -90 -69 -90 -84
0 -6 19 -30 42 -54 50 -50 44 -62 -37 -62 -68 0 -131 33 -170 88 -25 37 -30
55 -33 118 -4 65 -1 81 23 129 14 30 38 63 53 73 63 44 142 53 207 23z"/>
</g>
</svg>
