<?xml version="1.0" standalone="no"?>
<!DOCTYPE svg PUBLIC "-//W3C//DTD SVG 20010904//EN"
 "http://www.w3.org/TR/2001/REC-SVG-20010904/DTD/svg10.dtd">
<svg version="1.0" xmlns="http://www.w3.org/2000/svg"
 width="192.000000pt" height="192.000000pt" viewBox="0 0 192.000000 192.000000"
 preserveAspectRatio="xMidYMid meet">
<metadata>
Created by potrace 1.16, written by Peter Selinger 2001-2019
</metadata>
<g transform="translate(0.000000,192.000000) scale(0.100000,-0.100000)"
fill="#000000" stroke="none">
811 c445 -92 729 -532 635 -987 -62 -301 -295 -546 -601 -630 -91 -26 -329
-26 -420 0 -291 80 -516 305 -596 596 -26 91 -26 329 0 420 120 433 542 692
982 601z"/>
<path d="M628 1350 c-17 -10 -18 -40 -18 -383 0 -277 3 -376 12 -385 18 -18
318 -16 391 3 191 50 287 175 287 375 0 193 -84 317 -250 371 -53 18 -96 22
-235 26 -112 2 -176 0 -187 -7z m360 -196 c86 -35 129 -113 119 -215 -11 -120
-83 -179 -229 -187 l-78 -5 0 210 c0 115 3 213 8 217 11 12 138 -2 180 -20z"/>
</g>
</svg>
