<?xml version="1.0" standalone="no"?>
<!DOCTYPE svg PUBLIC "-//W3C//DTD SVG 20010904//EN"
 "http://www.w3.org/TR/2001/REC-SVG-20010904/DTD/svg10.dtd">
<svg version="1.0" xmlns="http://www.w3.org/2000/svg"
 width="192.000000pt" height="192.000000pt" viewBox="0 0 192.000000 192.000000"
 preserveAspectRatio="xMidYMid meet">
<metadata>
Created by potrace 1.16, written by Peter Selinger 2001-2019
</metadata>
<g transform="translate(0.000000,192.000000) scale(0.100000,-0.100000)"
fill="#000000" stroke="none">
811 c445 -92 729 -532 635 -987 -62 -301 -295 -546 -601 -630 -91 -26 -329
-26 -420 0 -291 80 -516 305 -596 596 -26 91 -26 329 0 420 120 433 542 692
982 601z"/>
<path d="M682 1348 c-17 -17 -17 -749 0 -766 7 -7 43 -12 90 -12 95 0 98 3 98
133 l0 94 93 6 c113 7 152 18 213 60 34 22 57 49 77 87 27 51 29 62 25 140 -7
134 -56 205 -173 249 -49 18 -77 21 -233 21 -125 0 -182 -4 -190 -12z m372
-197 c33 -31 41 -70 22 -115 -19 -45 -46 -56 -137 -56 l-69 0 0 101 0 101 79
-3 c67 -4 83 -8 105 -28z"/>
</g>
</svg>
