<?xml version="1.0" standalone="no"?>
<!DOCTYPE svg PUBLIC "-//W3C//DTD SVG 20010904//EN"
 "http://www.w3.org/TR/2001/REC-SVG-20010904/DTD/svg10.dtd">
<svg version="1.0" xmlns="http://www.w3.org/2000/svg"
 width="192.000000pt" height="192.000000pt" viewBox="0 0 192.000000 192.000000"
 preserveAspectRatio="xMidYMid meet">
<metadata>
Created by potrace 1.16, written by Peter Selinger 2001-2019
</metadata>
<g transform="translate(0.000000,192.000000) scale(0.100000,-0.100000)"
fill="#000000" stroke="none">
811 c445 -92 729 -532 635 -987 -62 -301 -295 -546 -601 -630 -91 -26 -329
-26 -420 0 -291 80 -516 305 -596 596 -26 91 -26 329 0 420 120 433 542 692
982 601z"/>
<path d="M625 1347 c-3 -6 -4 -183 -3 -392 l3 -380 88 -3 c48 -1 88 -1 89 0 1
2 5 104 8 228 l5 225 149 -220 c82 -121 154 -223 160 -228 6 -4 45 -6 86 -5
l75 3 0 390 0 390 -81 3 c-59 2 -84 -1 -92 -11 -8 -9 -13 -87 -14 -228 l-3
-214 -144 215 c-79 118 -150 221 -159 228 -22 16 -161 16 -167 -1z"/>
</g>
</svg>
