<?xml version="1.0" standalone="no"?>
<!DOCTYPE svg PUBLIC "-//W3C//DTD SVG 20010904//EN"
 "http://www.w3.org/TR/2001/REC-SVG-20010904/DTD/svg10.dtd">
<svg version="1.0" xmlns="http://www.w3.org/2000/svg"
 width="192.000000pt" height="192.000000pt" viewBox="0 0 192.000000 192.000000"
 preserveAspectRatio="xMidYMid meet">
<metadata>
Created by potrace 1.16, written by Peter Selinger 2001-2019
</metadata>
<g transform="translate(0.000000,192.000000) scale(0.100000,-0.100000)"
fill="#000000" stroke="none">
811 c445 -92 729 -532 635 -987 -62 -301 -295 -546 -601 -630 -91 -26 -329
-26 -420 0 -291 80 -516 305 -596 596 -26 91 -26 329 0 420 120 433 542 692
982 601z"/>
<path d="M988 1353 c-32 -37 -258 -491 -252 -506 8 -23 42 -31 60 -16 9 7 42
65 74 128 32 64 78 154 103 199 l45 84 122 -224 c164 -298 165 -300 198 -296
19 2 28 10 30 24 3 21 -310 602 -332 616 -18 12 -32 9 -48 -9z"/>
<path d="M844 1332 c-11 -7 -281 -524 -297 -570 -19 -51 -8 -53 286 -50 244 3
271 5 281 21 8 12 8 22 0 35 -10 15 -35 17 -238 20 l-227 2 130 255 c72 140
131 256 131 259 0 2 -7 12 -16 20 -17 17 -33 20 -50 8z"/>
<path d="M1003 1104 c-28 -12 -9 -61 82 -224 52 -93 98 -176 101 -185 5 -13
-24 -15 -266 -15 -168 0 -279 -4 -291 -10 -27 -15 -25 -58 4 -68 12 -5 166 -6
341 -2 276 4 320 7 329 21 7 12 -20 69 -121 250 -128 231 -142 248 -179 233z"/>
</g>
</svg>
