<?xml version="1.0" standalone="no"?>
<!DOCTYPE svg PUBLIC "-//W3C//DTD SVG 20010904//EN"
 "http://www.w3.org/TR/2001/REC-SVG-20010904/DTD/svg10.dtd">
<svg version="1.0" xmlns="http://www.w3.org/2000/svg"
 width="192.000000pt" height="192.000000pt" viewBox="0 0 192.000000 192.000000"
 preserveAspectRatio="xMidYMid meet">
<metadata>
Created by potrace 1.16, written by Peter Selinger 2001-2019
</metadata>
<g transform="translate(0.000000,192.000000) scale(0.100000,-0.100000)"
fill="#000000" stroke="none">
811 c445 -92 729 -532 635 -987 -62 -301 -295 -546 -601 -630 -91 -26 -329
-26 -420 0 -291 80 -516 305 -596 596 -26 91 -26 329 0 420 120 433 542 692
982 601z"/>
<path d="M728 1349 c-17 -9 -18 -38 -18 -382 0 -277 3 -376 12 -385 16 -16
150 -16 166 0 8 8 12 53 12 135 l0 123 119 0 c146 0 151 3 151 94 0 91 -8 96
-153 96 l-117 0 0 70 0 70 131 0 c72 0 139 5 150 10 16 9 19 22 19 85 0 63 -3
76 -19 85 -26 13 -430 13 -453 -1z"/>
</g>
</svg>
