<?xml version="1.0" standalone="no"?>
<!DOCTYPE svg PUBLIC "-//W3C//DTD SVG 20010904//EN"
 "http://www.w3.org/TR/2001/REC-SVG-20010904/DTD/svg10.dtd">
<svg version="1.0" xmlns="http://www.w3.org/2000/svg"
 width="192.000000pt" height="192.000000pt" viewBox="0 0 192.000000 192.000000"
 preserveAspectRatio="xMidYMid meet">
<metadata>
Created by potrace 1.16, written by Peter Selinger 2001-2019
</metadata>
<g transform="translate(0.000000,192.000000) scale(0.100000,-0.100000)"
fill="#000000" stroke="none">
811 c445 -92 729 -532 635 -987 -62 -301 -295 -546 -601 -630 -91 -26 -329
-26 -420 0 -291 80 -516 305 -596 596 -26 91 -26 329 0 420 120 433 542 692
982 601z"/>
<path d="M556 1344 c-14 -13 -16 -62 -16 -379 0 -417 -5 -395 86 -395 99 0 94
-12 94 245 0 124 3 225 8 225 4 0 48 -68 97 -151 92 -153 115 -176 154 -152 9
5 57 76 106 157 l90 147 5 -226 c4 -186 8 -227 20 -235 8 -5 43 -10 77 -10 97
0 93 -18 93 395 0 414 5 395 -95 395 -35 0 -74 -4 -87 -9 -16 -6 -58 -65 -128
-179 -57 -94 -106 -169 -110 -167 -3 2 -51 78 -106 169 -60 100 -108 169 -122
175 -36 17 -148 14 -166 -5z"/>
</g>
</svg>
