<?xml version="1.0" standalone="no"?>
<!DOCTYPE svg PUBLIC "-//W3C//DTD SVG 20010904//EN"
 "http://www.w3.org/TR/2001/REC-SVG-20010904/DTD/svg10.dtd">
<svg version="1.0" xmlns="http://www.w3.org/2000/svg"
 width="192.000000pt" height="192.000000pt" viewBox="0 0 192.000000 192.000000"
 preserveAspectRatio="xMidYMid meet">
<metadata>
Created by potrace 1.16, written by Peter Selinger 2001-2019
</metadata>
<g transform="translate(0.000000,192.000000) scale(0.100000,-0.100000)"
fill="#000000" stroke="none">
811 c445 -92 729 -532 635 -987 -62 -301 -295 -546 -601 -630 -91 -26 -329
-26 -420 0 -291 80 -516 305 -596 596 -26 91 -26 329 0 420 120 433 542 692
982 601z"/>
<path d="M557 1342 c-15 -17 -17 -58 -17 -379 0 -422 -8 -393 108 -393 57 0
76 4 90 18 11 11 63 92 117 181 86 144 98 160 110 144 6 -10 54 -87 104 -171
51 -84 101 -157 111 -162 27 -14 153 -13 168 2 9 9 12 108 12 385 0 425 8 393
-92 393 -90 0 -87 7 -90 -250 l-3 -225 -90 149 c-49 82 -97 153 -106 159 -39
24 -62 1 -156 -155 l-93 -152 0 220 c0 259 2 254 -97 254 -45 0 -64 -4 -76
-18z"/>
</g>
</svg>
