<?xml version="1.0" standalone="no"?>
<!DOCTYPE svg PUBLIC "-//W3C//DTD SVG 20010904//EN"
 "http://www.w3.org/TR/2001/REC-SVG-20010904/DTD/svg10.dtd">
<svg version="1.0" xmlns="http://www.w3.org/2000/svg"
 width="192.000000pt" height="192.000000pt" viewBox="0 0 192.000000 192.000000"
 preserveAspectRatio="xMidYMid meet">
<metadata>
Created by potrace 1.16, written by Peter Selinger 2001-2019
</metadata>
<g transform="translate(0.000000,192.000000) scale(0.100000,-0.100000)"
fill="#000000" stroke="none">
811 c445 -92 729 -532 635 -987 -62 -301 -295 -546 -601 -630 -91 -26 -329
-26 -420 0 -291 80 -516 305 -596 596 -26 91 -26 329 0 420 120 433 542 692
982 601z"/>
<path d="M670 1341 c-13 -24 -13 -121 0 -141 7 -12 41 -16 161 -20 l151 -5
-147 -200 c-188 -254 -185 -249 -185 -313 0 -98 -20 -92 305 -92 324 0 305 -6
305 90 0 92 3 90 -185 90 -91 0 -165 2 -165 5 0 3 66 94 147 203 185 249 183
245 183 310 0 98 18 92 -290 92 -256 0 -270 -1 -280 -19z"/>
</g>
</svg>
