<?xml version="1.0" standalone="no"?>
<!DOCTYPE svg PUBLIC "-//W3C//DTD SVG 20010904//EN"
 "http://www.w3.org/TR/2001/REC-SVG-20010904/DTD/svg10.dtd">
<svg version="1.0" xmlns="http://www.w3.org/2000/svg"
 width="192.000000pt" height="192.000000pt" viewBox="0 0 192.000000 192.000000"
 preserveAspectRatio="xMidYMid meet">
<metadata>
Created by potrace 1.16, written by Peter Selinger 2001-2019
</metadata>
<g transform="translate(0.000000,192.000000) scale(0.100000,-0.100000)"
fill="#000000" stroke="none">
811 c445 -92 729 -532 635 -987 -62 -301 -295 -546 -601 -630 -91 -26 -329
-26 -420 0 -291 80 -516 305 -596 596 -26 91 -26 329 0 420 120 433 542 692
982 601z"/>
<path d="M887 1370 c-115 -20 -230 -107 -280 -212 -59 -124 -58 -266 0 -388
104 -214 402 -286 585 -139 l37 29 7 -35 c8 -44 24 -57 66 -53 l33 3 3 215 c2
193 1 216 -15 227 -21 16 -305 18 -334 3 -15 -9 -19 -22 -19 -70 0 -73 10 -80
114 -80 42 0 76 -3 76 -8 0 -23 -55 -83 -95 -102 -64 -31 -156 -25 -213 12
-106 71 -124 255 -34 352 37 39 98 66 152 66 45 0 121 -28 134 -49 13 -20 47
-11 107 29 34 24 59 48 59 58 0 46 -124 122 -230 142 -59 11 -84 11 -153 0z"/>
</g>
</svg>
