<?xml version="1.0" standalone="no"?>
<!DOCTYPE svg PUBLIC "-//W3C//DTD SVG 20010904//EN"
 "http://www.w3.org/TR/2001/REC-SVG-20010904/DTD/svg10.dtd">
<svg version="1.0" xmlns="http://www.w3.org/2000/svg"
 width="192.000000pt" height="192.000000pt" viewBox="0 0 192.000000 192.000000"
 preserveAspectRatio="xMidYMid meet">
<metadata>
Created by potrace 1.16, written by Peter Selinger 2001-2019
</metadata>
<g transform="translate(0.000000,192.000000) scale(0.100000,-0.100000)"
fill="#000000" stroke="none">
811 c445 -92 729 -532 635 -987 -62 -301 -295 -546 -601 -630 -91 -26 -329
-26 -420 0 -291 80 -516 305 -596 596 -26 91 -26 329 0 420 120 433 542 692
982 601z"/>
<path d="M666 1354 c-20 -19 -23 -153 -4 -172 8 -8 46 -12 105 -12 l93 0 0
-205 0 -205 -93 0 c-59 0 -97 -4 -105 -12 -19 -19 -16 -153 4 -172 13 -14 54
-16 289 -16 272 0 274 0 289 22 22 31 22 141 0 162 -12 12 -37 16 -105 16
l-89 0 0 205 0 205 89 0 c68 0 93 4 105 16 22 21 22 131 0 162 -15 22 -17 22
-289 22 -235 0 -276 -2 -289 -16z"/>
</g>
</svg>
