<?xml version="1.0" standalone="no"?>
<!DOCTYPE svg PUBLIC "-//W3C//DTD SVG 20010904//EN"
 "http://www.w3.org/TR/2001/REC-SVG-20010904/DTD/svg10.dtd">
<svg version="1.0" xmlns="http://www.w3.org/2000/svg"
 width="192.000000pt" height="192.000000pt" viewBox="0 0 192.000000 192.000000"
 preserveAspectRatio="xMidYMid meet">
<metadata>
Created by potrace 1.16, written by Peter Selinger 2001-2019
</metadata>
<g transform="translate(0.000000,192.000000) scale(0.100000,-0.100000)"
fill="#000000" stroke="none">
811 c445 -92 729 -532 635 -987 -62 -301 -295 -546 -601 -630 -91 -26 -329
-26 -420 0 -291 80 -516 305 -596 596 -26 91 -26 329 0 420 120 433 542 692
982 601z"/>
<path d="M630 1338 c0 -13 47 -99 103 -192 l104 -169 -114 -183 c-65 -103
-113 -191 -111 -201 3 -16 16 -18 94 -21 106 -3 93 -13 183 136 35 56 64 102
66 102 2 0 31 -46 66 -102 90 -149 77 -139 183 -136 78 3 91 5 94 21 2 10 -46
98 -111 201 l-114 183 103 169 c57 93 104 179 104 192 0 22 -2 23 -97 20 l-98
-3 -60 -100 c-33 -55 -65 -100 -70 -101 -6 0 -37 45 -70 100 l-60 101 -97 3
c-96 3 -98 2 -98 -20z"/>
</g>
</svg>
