<?xml version="1.0" standalone="no"?>
<!DOCTYPE svg PUBLIC "-//W3C//DTD SVG 20010904//EN"
 "http://www.w3.org/TR/2001/REC-SVG-20010904/DTD/svg10.dtd">
<svg version="1.0" xmlns="http://www.w3.org/2000/svg"
 width="192.000000pt" height="192.000000pt" viewBox="0 0 192.000000 192.000000"
 preserveAspectRatio="xMidYMid meet">
<metadata>
Created by potrace 1.16, written by Peter Selinger 2001-2019
</metadata>
<g transform="translate(0.000000,192.000000) scale(0.100000,-0.100000)"
fill="#000000" stroke="none">
811 c445 -92 729 -532 635 -987 -62 -301 -295 -546 -601 -630 -91 -26 -329
-26 -420 0 -291 80 -516 305 -596 596 -26 91 -26 329 0 420 120 433 542 692
982 601z"/>
<path d="M885 1349 c-142 -75 -165 -107 -165 -232 l0 -72 -67 -40 c-92 -55
-107 -78 -111 -172 -7 -132 16 -171 143 -238 83 -44 104 -42 202 15 l67 39 33
-20 c18 -10 49 -29 69 -41 58 -34 107 -29 191 20 106 62 113 74 113 196 0 125
-10 145 -105 201 l-70 41 -5 96 c-6 114 -14 127 -126 189 -81 44 -113 48 -169
18z m137 -110 c63 -37 68 -43 68 -91 0 -43 -6 -45 -52 -19 -59 35 -96 36 -161
3 l-58 -29 3 50 c3 50 4 51 58 84 30 18 63 33 72 33 9 0 41 -14 70 -31z m-299
-364 c7 -70 34 -114 88 -144 l42 -24 -23 -19 c-41 -33 -63 -32 -128 7 l-62 36
0 79 c0 77 0 78 33 98 17 11 35 21 38 21 3 1 9 -24 12 -54z m508 32 c31 -21
34 -27 37 -82 5 -88 0 -97 -70 -134 l-63 -34 -43 22 -44 22 46 29 c61 39 86
81 86 148 0 28 4 52 9 52 4 0 23 -10 42 -23z"/>
</g>
</svg>
