<?xml version="1.0" standalone="no"?>
<!DOCTYPE svg PUBLIC "-//W3C//DTD SVG 20010904//EN"
 "http://www.w3.org/TR/2001/REC-SVG-20010904/DTD/svg10.dtd">
<svg version="1.0" xmlns="http://www.w3.org/2000/svg"
 width="192.000000pt" height="192.000000pt" viewBox="0 0 192.000000 192.000000"
 preserveAspectRatio="xMidYMid meet">
<metadata>
Created by potrace 1.16, written by Peter Selinger 2001-2019
</metadata>
<g transform="translate(0.000000,192.000000) scale(0.100000,-0.100000)"
fill="#000000" stroke="none">
811 c445 -92 729 -532 635 -987 -62 -301 -295 -546 -601 -630 -91 -26 -329
-26 -420 0 -291 80 -516 305 -596 596 -26 91 -26 329 0 420 120 433 542 692
982 601z"/>
<path d="M718 1360 c-88 -47 -101 -99 -96 -406 3 -269 6 -281 78 -333 49 -36
107 -46 159 -27 22 7 130 67 242 132 220 130 247 155 256 238 7 57 -10 105
-50 144 -17 17 -124 85 -236 151 -197 116 -207 121 -260 121 -35 -1 -70 -8
-93 -20z m212 -380 l0 -120 -26 0 c-17 0 -28 6 -31 20 -4 16 -14 20 -44 20
-28 0 -41 -5 -49 -20 -11 -20 -63 -29 -74 -12 -2 4 35 58 82 120 73 95 91 112
114 112 l28 0 0 -120z m98 28 l3 -87 32 -3 c27 -2 32 -7 32 -28 0 -24 -2 -25
-65 -25 l-65 0 -3 104 c-1 58 0 111 3 118 3 9 16 13 32 11 28 -3 28 -3 31 -90z
m207 62 c0 -18 -6 -26 -22 -28 -21 -3 -22 -9 -25 -90 l-3 -87 -30 0 -30 0 -3
88 c-3 79 -5 87 -23 87 -22 0 -34 22 -25 45 5 13 21 15 83 13 76 -3 78 -4 78
-28z"/>
<path d="M852 978 c-16 -16 -15 -28 3 -28 8 0 15 9 15 20 0 23 -2 24 -18 8z"/>
</g>
</svg>
