<?xml version="1.0" standalone="no"?>
<!DOCTYPE svg PUBLIC "-//W3C//DTD SVG 20010904//EN"
 "http://www.w3.org/TR/2001/REC-SVG-20010904/DTD/svg10.dtd">
<svg version="1.0" xmlns="http://www.w3.org/2000/svg"
 width="192.000000pt" height="192.000000pt" viewBox="0 0 192.000000 192.000000"
 preserveAspectRatio="xMidYMid meet">
<metadata>
Created by potrace 1.16, written by Peter Selinger 2001-2019
</metadata>
<g transform="translate(0.000000,192.000000) scale(0.100000,-0.100000)"
fill="#000000" stroke="none">
811 c445 -92 729 -532 635 -987 -62 -301 -295 -546 -601 -630 -91 -26 -329
-26 -420 0 -291 80 -516 305 -596 596 -26 91 -26 329 0 420 120 433 542 692
982 601z"/>
<path d="M1000 1329 c-52 -23 -387 -352 -414 -407 -42 -82 -29 -192 31 -262
66 -77 152 -103 249 -75 55 16 69 28 243 198 202 200 231 242 231 332 0 93
-62 186 -147 222 -48 20 -140 16 -193 -8z m156 -105 c19 -9 41 -29 49 -45 18
-33 19 -92 4 -122 -15 -29 -140 -157 -154 -157 -6 0 -47 37 -93 83 l-82 82 77
77 c101 100 133 113 199 82z"/>
</g>
</svg>
