<?xml version="1.0" standalone="no"?>
<!DOCTYPE svg PUBLIC "-//W3C//DTD SVG 20010904//EN"
 "http://www.w3.org/TR/2001/REC-SVG-20010904/DTD/svg10.dtd">
<svg version="1.0" xmlns="http://www.w3.org/2000/svg"
 width="192.000000pt" height="192.000000pt" viewBox="0 0 192.000000 192.000000"
 preserveAspectRatio="xMidYMid meet">
<metadata>
Created by potrace 1.16, written by Peter Selinger 2001-2019
</metadata>
<g transform="translate(0.000000,192.000000) scale(0.100000,-0.100000)"
fill="#000000" stroke="none">
811 c445 -92 729 -532 635 -987 -62 -301 -295 -546 -601 -630 -91 -26 -329
-26 -420 0 -291 80 -516 305 -596 596 -26 91 -26 329 0 420 120 433 542 692
982 601z"/>
<path d="M786 1395 c-10 -28 -7 -45 9 -45 22 0 30 29 13 47 -14 13 -16 13 -22
-2z"/>
<path d="M1091 1391 c-13 -24 -7 -41 15 -41 16 0 19 27 5 49 -7 11 -11 9 -20
-8z"/>
<path d="M774 1307 c-40 -34 -45 -123 -12 -187 59 -116 158 -79 158 58 0 124
-75 190 -146 129z"/>
<path d="M1029 1303 c-36 -40 -49 -76 -49 -137 0 -69 26 -106 75 -106 46 0 91
52 101 116 17 117 -63 197 -127 127z"/>
<path d="M615 1167 c-9 -33 -4 -40 19 -31 20 8 20 15 2 40 -14 18 -15 18 -21
-9z"/>
<path d="M1260 1170 c-10 -18 -9 -24 1 -31 26 -16 41 -10 34 14 -11 35 -22 41
-35 17z"/>
<path d="M621 1096 c-67 -71 -16 -236 73 -236 96 0 105 184 12 241 -41 25 -58
24 -85 -5z"/>
<path d="M1178 1083 c-38 -41 -48 -66 -48 -121 0 -62 24 -95 67 -95 93 0 160
155 97 224 -27 30 -85 25 -116 -8z"/>
<path d="M916 1035 c-49 -17 -58 -26 -91 -87 -16 -29 -53 -82 -82 -118 -81
-98 -90 -161 -32 -219 38 -39 65 -42 170 -19 l90 20 81 -21 c72 -18 84 -19
114 -6 37 15 64 62 64 110 0 41 -28 97 -70 140 -22 22 -52 67 -68 100 -16 33
-39 68 -50 78 -30 28 -83 37 -126 22z"/>
</g>
</svg>
