<?xml version="1.0" standalone="no"?>
<!DOCTYPE svg PUBLIC "-//W3C//DTD SVG 20010904//EN"
 "http://www.w3.org/TR/2001/REC-SVG-20010904/DTD/svg10.dtd">
<svg version="1.0" xmlns="http://www.w3.org/2000/svg"
 width="192.000000pt" height="192.000000pt" viewBox="0 0 192.000000 192.000000"
 preserveAspectRatio="xMidYMid meet">
<metadata>
Created by potrace 1.16, written by Peter Selinger 2001-2019
</metadata>
<g transform="translate(0.000000,192.000000) scale(0.100000,-0.100000)"
fill="#000000" stroke="none">
811 c445 -92 729 -532 635 -987 -62 -301 -295 -546 -601 -630 -91 -26 -329
-26 -420 0 -291 80 -516 305 -596 596 -26 91 -26 329 0 420 120 433 542 692
982 601z"/>
<path d="M803 1381 c-91 -31 -160 -98 -184 -179 -8 -29 -9 -46 -2 -53 12 -12
149 -33 169 -25 7 3 20 21 28 40 26 62 119 96 178 65 26 -14 48 -68 48 -118 0
-45 15 -38 -141 -60 -208 -28 -313 -124 -313 -286 0 -91 30 -157 92 -200 39
-27 53 -30 132 -33 99 -4 148 11 219 68 l39 32 48 -52 c26 -28 53 -49 60 -48
22 5 144 111 144 125 0 7 -12 32 -27 55 l-28 41 -6 231 c-6 263 -13 292 -82
351 -23 20 -64 42 -91 50 -70 21 -217 19 -283 -4z m237 -495 c0 -116 -61 -206
-139 -206 -111 0 -125 181 -19 236 31 16 134 34 151 26 4 -2 7 -27 7 -56z"/>
</g>
</svg>
