<?xml version="1.0" standalone="no"?>
<!DOCTYPE svg PUBLIC "-//W3C//DTD SVG 20010904//EN"
 "http://www.w3.org/TR/2001/REC-SVG-20010904/DTD/svg10.dtd">
<svg version="1.0" xmlns="http://www.w3.org/2000/svg"
 width="192.000000pt" height="192.000000pt" viewBox="0 0 192.000000 192.000000"
 preserveAspectRatio="xMidYMid meet">
<metadata>
Created by potrace 1.16, written by Peter Selinger 2001-2019
</metadata>
<g transform="translate(0.000000,192.000000) scale(0.100000,-0.100000)"
fill="#000000" stroke="none">
811 c445 -92 729 -532 635 -987 -62 -301 -295 -546 -601 -630 -91 -26 -329
-26 -420 0 -291 80 -516 305 -596 596 -26 91 -26 329 0 420 120 433 542 692
982 601z"/>
<path d="M949 1350 c-29 -17 -399 -584 -399 -611 0 -15 9 -38 21 -53 27 -35
86 -36 116 -3 11 12 84 118 163 236 78 117 145 209 150 205 4 -5 33 -47 64
-94 l56 -85 -82 -6 c-73 -6 -84 -9 -106 -35 -19 -22 -23 -35 -18 -63 10 -66
26 -71 225 -71 173 0 178 1 199 23 43 46 33 72 -119 300 -78 117 -153 224
-167 240 -27 28 -71 36 -103 17z"/>
<path d="M1229 725 c-60 -33 -54 -128 10 -154 96 -40 163 106 70 154 -34 18
-47 18 -80 0z"/>
</g>
</svg>
