<?xml version="1.0" standalone="no"?>
<!DOCTYPE svg PUBLIC "-//W3C//DTD SVG 20010904//EN"
 "http://www.w3.org/TR/2001/REC-SVG-20010904/DTD/svg10.dtd">
<svg version="1.0" xmlns="http://www.w3.org/2000/svg"
 width="192.000000pt" height="192.000000pt" viewBox="0 0 192.000000 192.000000"
 preserveAspectRatio="xMidYMid meet">
<metadata>
Created by potrace 1.16, written by Peter Selinger 2001-2019
</metadata>
<g transform="translate(0.000000,192.000000) scale(0.100000,-0.100000)"
fill="#000000" stroke="none">
811 c445 -92 729 -532 635 -987 -62 -301 -295 -546 -601 -630 -91 -26 -329
-26 -420 0 -291 80 -516 305 -596 596 -26 91 -26 329 0 420 120 433 542 692
982 601z"/>
<path d="M882 1387 c-49 -15 -109 -78 -123 -129 -6 -24 -13 -49 -15 -55 -2 -7
-12 -13 -23 -13 -28 0 -78 -46 -90 -83 -18 -57 -52 -354 -45 -398 9 -52 52
-103 102 -121 27 -9 104 -13 272 -13 224 0 237 1 276 22 48 26 80 72 89 128 8
49 -29 341 -48 387 -17 40 -46 67 -82 77 -23 6 -30 16 -40 53 -31 122 -149
185 -273 145z m165 -79 c29 -27 38 -42 47 -80 l6 -28 -145 0 c-162 0 -161 0
-126 68 42 80 153 101 218 40z m-49 -294 c19 -13 22 -24 22 -75 0 -33 4 -68
10 -78 7 -14 5 -23 -9 -35 -16 -15 -20 -15 -31 -1 -11 13 -15 13 -33 0 -28
-20 -56 -19 -79 2 -18 16 -24 59 -10 79 11 18 49 34 77 34 22 0 26 4 23 22 -4
27 -37 37 -50 14 -13 -23 -48 -21 -48 3 0 26 37 51 75 51 17 0 41 -7 53 -16z
m107 -226 c-11 -37 -25 -45 -25 -15 0 15 -4 27 -9 27 -5 0 -8 -8 -7 -17 0 -11
-14 -24 -39 -36 -56 -27 -132 -20 -180 17 -46 36 -40 42 16 16 50 -22 104 -25
160 -9 25 8 36 16 32 25 -4 10 4 14 27 14 28 0 31 -2 25 -22z"/>
<path d="M938 913 c-19 -5 -33 -37 -23 -53 10 -16 42 -12 49 6 8 22 8 54 -1
53 -5 -1 -16 -3 -25 -6z"/>
</g>
</svg>
