<?xml version="1.0" standalone="no"?>
<!DOCTYPE svg PUBLIC "-//W3C//DTD SVG 20010904//EN"
 "http://www.w3.org/TR/2001/REC-SVG-20010904/DTD/svg10.dtd">
<svg version="1.0" xmlns="http://www.w3.org/2000/svg"
 width="192.000000pt" height="192.000000pt" viewBox="0 0 192.000000 192.000000"
 preserveAspectRatio="xMidYMid meet">
<metadata>
Created by potrace 1.16, written by Peter Selinger 2001-2019
</metadata>
<g transform="translate(0.000000,192.000000) scale(0.100000,-0.100000)"
fill="#000000" stroke="none">
811 c445 -92 729 -532 635 -987 -62 -301 -295 -546 -601 -630 -91 -26 -329
-26 -420 0 -291 80 -516 305 -596 596 -26 91 -26 329 0 420 120 433 542 692
982 601z"/>
<path d="M851 1364 c-258 -69 -383 -349 -264 -588 35 -69 112 -142 188 -177
159 -75 334 -48 459 71 237 224 137 613 -179 695 -72 18 -133 18 -204 -1z
m123 -57 c12 -9 17 -23 14 -47 -3 -32 -6 -35 -37 -38 -38 -4 -51 9 -51 50 0
41 40 60 74 35z m-60 -212 c58 -101 106 -189 106 -195 0 -8 -50 -40 -64 -40
-8 0 -216 368 -216 383 0 14 33 35 57 36 6 1 59 -82 117 -184z m230 169 c29
-28 -16 -81 -59 -70 -29 7 -32 31 -9 64 18 26 46 28 68 6z m-433 -115 c34 -24
35 -29 11 -59 -18 -22 -19 -22 -50 -6 -34 17 -43 51 -20 74 17 17 25 15 59 -9z
m537 -24 c13 -29 -3 -51 -45 -61 -44 -11 -60 43 -21 70 32 23 53 20 66 -9z
m-550 -158 l3 -38 -48 3 c-41 3 -48 6 -51 26 -5 35 16 53 57 50 34 -3 36 -5
39 -41z m602 28 c7 -8 10 -25 6 -40 -6 -22 -12 -25 -51 -25 -44 0 -45 1 -45
33 0 19 3 37 7 40 12 13 71 7 83 -8z m-572 -160 c12 -26 2 -44 -40 -66 -18 -9
-24 -8 -35 7 -19 26 -16 51 9 68 32 23 53 20 66 -9z m506 4 c31 -24 32 -30 8
-59 -19 -23 -19 -23 -50 -4 -31 18 -38 36 -26 68 8 22 36 20 68 -5z m-403 -99
c24 -13 24 -38 0 -69 -14 -18 -24 -22 -44 -18 -35 9 -41 34 -16 68 22 32 31
34 60 19z m310 -27 l20 -32 -26 -17 c-32 -21 -55 -11 -70 31 -8 22 -6 29 10
41 27 20 42 14 66 -23z m-167 -6 c12 -9 17 -23 14 -47 -3 -32 -6 -35 -37 -38
-38 -4 -51 9 -51 50 0 41 40 60 74 35z"/>
</g>
</svg>
