<?xml version="1.0" standalone="no"?>
<!DOCTYPE svg PUBLIC "-//W3C//DTD SVG 20010904//EN"
 "http://www.w3.org/TR/2001/REC-SVG-20010904/DTD/svg10.dtd">
<svg version="1.0" xmlns="http://www.w3.org/2000/svg"
 width="192.000000pt" height="192.000000pt" viewBox="0 0 192.000000 192.000000"
 preserveAspectRatio="xMidYMid meet">
<metadata>
Created by potrace 1.16, written by Peter Selinger 2001-2019
</metadata>
<g transform="translate(0.000000,192.000000) scale(0.100000,-0.100000)"
fill="#000000" stroke="none">
811 c445 -92 729 -532 635 -987 -62 -301 -295 -546 -601 -630 -91 -26 -329
-26 -420 0 -291 80 -516 305 -596 596 -26 91 -26 329 0 420 120 433 542 692
982 601z"/>
<path d="M753 1170 c-255 -263 -252 -230 -35 -450 157 -160 157 -160 202 -160
l44 0 199 198 198 199 -3 177 -3 178 -33 29 -32 29 -173 0 -172 0 -192 -200z
m336 -45 c67 -61 61 -103 -24 -185 -20 -19 -41 -45 -46 -58 -7 -18 -15 -23
-37 -20 -21 2 -28 9 -30 31 -3 21 -9 27 -28 27 -66 0 -100 98 -48 139 38 30
83 27 131 -8 30 -22 44 -26 52 -18 26 26 1 72 -37 65 -36 -6 -71 43 -39 55 35
15 69 5 106 -28z m-252 -232 c18 -22 58 -54 90 -72 l58 -32 -39 5 c-88 12
-163 94 -172 187 l-5 54 18 -51 c11 -28 33 -69 50 -91z m171 -100 c-2 -9 -14
-20 -28 -24 l-25 -9 23 17 c22 15 22 17 5 36 -18 19 -17 20 5 8 13 -7 22 -19
20 -28z"/>
<path d="M917 1022 c-20 -22 -22 -53 -5 -70 20 -20 72 -14 96 11 28 29 28 42
0 61 -30 21 -71 20 -91 -2z"/>
</g>
</svg>
