<?xml version="1.0" standalone="no"?>
<!DOCTYPE svg PUBLIC "-//W3C//DTD SVG 20010904//EN"
 "http://www.w3.org/TR/2001/REC-SVG-20010904/DTD/svg10.dtd">
<svg version="1.0" xmlns="http://www.w3.org/2000/svg"
 width="192.000000pt" height="192.000000pt" viewBox="0 0 192.000000 192.000000"
 preserveAspectRatio="xMidYMid meet">
<metadata>
Created by potrace 1.16, written by Peter Selinger 2001-2019
</metadata>
<g transform="translate(0.000000,192.000000) scale(0.100000,-0.100000)"
fill="#000000" stroke="none">
811 c445 -92 729 -532 635 -987 -62 -301 -295 -546 -601 -630 -91 -26 -329
-26 -420 0 -291 80 -516 305 -596 596 -26 91 -26 329 0 420 120 433 542 692
982 601z"/>
<path d="M825 1387 c-74 -25 -129 -59 -185 -116 -213 -213 -150 -567 125 -698
164 -78 355 -49 486 74 104 97 143 195 137 342 -3 86 -8 106 -37 165 -43 88
-120 165 -208 207 -62 30 -78 33 -173 36 -67 2 -119 -2 -145 -10z m199 -199
c26 -8 60 -31 92 -63 42 -42 54 -61 64 -106 30 -136 -54 -284 -207 -363 -53
-27 -73 -22 -73 18 0 50 -8 65 -50 86 -51 26 -105 91 -120 146 -49 174 118
334 294 282z"/>
</g>
</svg>
