<?xml version="1.0" standalone="no"?>
<!DOCTYPE svg PUBLIC "-//W3C//DTD SVG 20010904//EN"
 "http://www.w3.org/TR/2001/REC-SVG-20010904/DTD/svg10.dtd">
<svg version="1.0" xmlns="http://www.w3.org/2000/svg"
 width="192.000000pt" height="192.000000pt" viewBox="0 0 192.000000 192.000000"
 preserveAspectRatio="xMidYMid meet">
<metadata>
Created by potrace 1.16, written by Peter Selinger 2001-2019
</metadata>
<g transform="translate(0.000000,192.000000) scale(0.100000,-0.100000)"
fill="#000000" stroke="none">
815 c282 -82 495 -294 581 -580 24 -80 27 -106 27 -235 0 -128 -3 -155 -27
-233 -87 -289 -294 -496 -581 -583 -80 -24 -106 -27 -235 -27 -129 0 -155 3
-235 27 -287 87 -494 294 -581 583 -24 78 -27 105 -27 233 0 129 3 155 27 235
97 322 360 553 689 606 94 15 263 3 362 -26z"/>
<path d="M895 1316 c-37 -16 -92 -77 -101 -111 -6 -24 -10 -25 -78 -25 -45 0
-79 -5 -91 -14 -16 -11 -23 -50 -46 -257 -34 -296 -34 -284 -9 -309 19 -19 33
-20 393 -20 422 0 417 -1 417 70 0 21 -12 141 -26 267 -18 166 -30 233 -41
246 -13 13 -33 17 -95 17 -69 0 -78 2 -78 18 0 11 -13 37 -29 59 -47 65 -143
91 -216 59z m125 -61 c27 -14 60 -51 60 -67 0 -5 -52 -8 -115 -8 l-116 0 15
28 c16 31 67 61 104 62 13 0 36 -7 52 -15z m-122 -205 c4 -47 -15 -74 -44 -63
-9 3 -14 -2 -14 -16 0 -14 -6 -21 -20 -21 -18 0 -20 7 -20 76 l0 75 48 -3 47
-3 3 -45z m112 -5 c0 -48 -3 -55 -19 -55 -11 0 -26 -3 -34 -6 -14 -5 -47 20
-47 36 0 5 7 16 16 24 8 9 11 16 5 16 -6 0 -11 9 -11 20 0 17 7 20 45 20 l45
0 0 -55z m65 23 l8 -33 6 30 c4 22 13 31 30 33 17 3 22 0 18 -10 -2 -8 -13
-42 -22 -76 -24 -86 -45 -84 -68 6 -21 83 -21 82 2 82 13 0 21 -10 26 -32z
m184 -117 c12 -8 13 -16 3 -49 -7 -22 -19 -46 -28 -53 -14 -12 -15 -8 -9 35
l8 48 -34 -2 c-52 -3 -57 0 -24 15 35 16 64 18 84 6z m-528 -35 c143 -62 274
-65 467 -10 14 4 22 2 22 -5 0 -7 -30 -26 -67 -44 -65 -30 -74 -32 -188 -32
-104 0 -127 3 -170 23 -59 27 -125 71 -125 83 0 12 1 12 61 -15z m6 -148 c5
-7 9 -29 9 -48 -1 -33 -3 -35 -38 -38 l-38 -3 0 50 c0 49 1 51 29 51 16 0 33
-6 38 -12z m54 -44 l7 -29 1 33 c1 21 6 32 16 32 11 0 15 -11 15 -40 0 -39 -1
-40 -35 -40 -34 0 -35 1 -35 41 0 48 21 50 31 3z m107 17 c3 -10 -1 -12 -14
-7 -14 5 -13 1 5 -12 13 -11 21 -24 17 -31 -9 -14 -53 -15 -61 -1 -3 6 2 10
12 10 17 1 17 1 1 11 -10 5 -18 16 -18 24 0 26 50 31 58 6z m50 -24 c2 -28 -1
-37 -12 -37 -12 0 -16 11 -16 41 0 52 24 48 28 -4z m80 0 c2 -28 0 -37 -12
-37 -10 0 -17 10 -17 28 l-2 27 -4 -27 c-7 -44 -33 -35 -33 11 0 37 1 39 33
37 29 -1 32 -4 35 -39z m80 16 c3 -18 -2 -23 -17 -23 -12 0 -21 -4 -21 -9 0
-5 9 -7 20 -4 12 3 20 0 20 -6 0 -8 -12 -11 -32 -9 -26 2 -34 8 -36 26 -2 13
2 30 9 38 18 22 53 13 57 -13z m73 10 c13 -15 12 -16 -9 -11 -12 4 -20 2 -16
-3 3 -5 12 -9 20 -9 8 0 14 -9 14 -20 0 -16 -7 -20 -30 -20 -31 0 -43 20 -12
21 13 0 12 2 -5 9 -26 10 -29 20 -11 38 17 17 33 15 49 -5z m75 6 c3 -6 0 -15
-7 -20 -10 -6 -11 -9 -1 -9 6 0 12 -9 12 -20 0 -16 -7 -20 -30 -20 -31 0 -43
19 -12 21 16 1 16 2 0 6 -18 4 -24 33 -11 46 10 11 41 8 49 -4z"/>
<path d="M840 1045 c0 -15 4 -24 10 -20 6 3 10 12 10 20 0 8 -4 17 -10 20 -6
4 -10 -5 -10 -20z"/>
<path d="M700 710 c0 -5 5 -10 11 -10 5 0 7 5 4 10 -3 6 -8 10 -11 10 -2 0 -4
-4 -4 -10z"/>
</g>
</svg>
