<?xml version="1.0" standalone="no"?>
<!DOCTYPE svg PUBLIC "-//W3C//DTD SVG 20010904//EN"
 "http://www.w3.org/TR/2001/REC-SVG-20010904/DTD/svg10.dtd">
<svg version="1.0" xmlns="http://www.w3.org/2000/svg"
 width="192.000000pt" height="192.000000pt" viewBox="0 0 192.000000 192.000000"
 preserveAspectRatio="xMidYMid meet">
<metadata>
Created by potrace 1.16, written by Peter Selinger 2001-2019
</metadata>
<g transform="translate(0.000000,192.000000) scale(0.100000,-0.100000)"
fill="#000000" stroke="none">
811 c445 -92 729 -532 635 -987 -62 -301 -295 -546 -601 -630 -91 -26 -329
-26 -420 0 -291 80 -516 305 -596 596 -26 91 -26 329 0 420 120 433 542 692
982 601z"/>
<path d="M902 1249 c-325 -88 -318 -86 -336 -115 -38 -56 -25 -55 319 37 182
49 337 91 345 95 12 4 10 9 -9 25 -36 29 -84 23 -319 -42z"/>
<path d="M916 1080 c-181 -49 -335 -91 -342 -94 -9 -4 -4 -36 21 -131 19 -69
39 -141 45 -160 14 -43 63 -85 98 -85 55 1 564 145 588 167 41 37 41 65 -2
233 -34 130 -43 155 -60 157 -10 1 -167 -38 -348 -87z m-66 -100 c12 -6 26
-34 36 -68 9 -31 23 -64 30 -73 19 -21 -4 -56 -31 -45 -12 4 -26 -1 -40 -14
-33 -31 -85 -24 -104 14 -18 39 -3 70 49 96 43 22 48 31 26 49 -18 15 -43 5
-49 -20 -3 -11 -14 -19 -26 -19 -16 0 -21 6 -21 25 0 46 83 80 130 55z m129
-212 c0 -16 -2 -18 -6 -8 -3 8 -11 18 -17 22 -7 5 -4 8 7 8 11 0 17 -7 16 -22z
m-39 -23 c-34 -36 -88 -50 -170 -45 -24 2 -14 5 32 10 42 5 84 18 110 33 55
32 56 32 28 2z"/>
<path d="M812 867 c-27 -12 -27 -60 0 -65 21 -4 40 31 30 56 -6 16 -11 17 -30
9z"/>
</g>
</svg>
