<?xml version="1.0" standalone="no"?>
<!DOCTYPE svg PUBLIC "-//W3C//DTD SVG 20010904//EN"
 "http://www.w3.org/TR/2001/REC-SVG-20010904/DTD/svg10.dtd">
<svg version="1.0" xmlns="http://www.w3.org/2000/svg"
 width="192.000000pt" height="192.000000pt" viewBox="0 0 192.000000 192.000000"
 preserveAspectRatio="xMidYMid meet">
<metadata>
Created by potrace 1.16, written by Peter Selinger 2001-2019
</metadata>
<g transform="translate(0.000000,192.000000) scale(0.100000,-0.100000)"
fill="#000000" stroke="none">
811 c445 -92 729 -532 635 -987 -62 -301 -295 -546 -601 -630 -91 -26 -329
-26 -420 0 -291 80 -516 305 -596 596 -26 91 -26 329 0 420 120 433 542 692
982 601z"/>
<path d="M863 1385 c-238 -53 -388 -293 -329 -525 9 -36 29 -85 44 -110 l28
-45 60 4 c32 2 60 4 61 5 7 6 -11 46 -21 46 -22 0 -26 183 -6 244 14 43 90
134 107 129 8 -3 10 14 6 54 -5 53 -3 62 22 92 29 34 37 35 132 21 1 0 11 -15
22 -34 25 -39 27 -69 6 -86 -8 -7 -15 -20 -15 -29 -1 -9 -10 -27 -20 -40 -16
-18 -27 -22 -50 -18 l-29 6 25 -47 c14 -26 34 -56 44 -67 11 -12 20 -27 20
-33 0 -31 111 17 116 50 1 9 19 37 40 62 29 35 45 46 67 46 l29 0 -31 -39
c-18 -22 -36 -53 -42 -70 -7 -19 -27 -39 -55 -56 l-44 -26 30 -59 c16 -32 34
-61 40 -65 5 -3 10 -16 10 -27 0 -30 41 -80 83 -103 36 -19 36 -19 59 2 38 36
86 124 103 188 46 180 -23 362 -176 464 -102 68 -223 92 -336 66z"/>
<path d="M880 895 c0 -28 3 -30 29 -13 18 11 18 13 3 25 -25 18 -32 16 -32
-12z"/>
<path d="M978 782 c-67 -45 -98 -67 -98 -72 0 -10 231 -66 236 -58 8 13 -25
60 -47 65 -10 3 -19 8 -19 12 0 4 -10 21 -23 39 -23 30 -24 31 -49 14z"/>
</g>
</svg>
