<?xml version="1.0" standalone="no"?>
<!DOCTYPE svg PUBLIC "-//W3C//DTD SVG 20010904//EN"
 "http://www.w3.org/TR/2001/REC-SVG-20010904/DTD/svg10.dtd">
<svg version="1.0" xmlns="http://www.w3.org/2000/svg"
 width="192.000000pt" height="192.000000pt" viewBox="0 0 192.000000 192.000000"
 preserveAspectRatio="xMidYMid meet">
<metadata>
Created by potrace 1.16, written by Peter Selinger 2001-2019
</metadata>
<g transform="translate(0.000000,192.000000) scale(0.100000,-0.100000)"
fill="#000000" stroke="none">
811 c445 -92 729 -532 635 -987 -62 -301 -295 -546 -601 -630 -91 -26 -329
-26 -420 0 -291 80 -516 305 -596 596 -26 91 -26 329 0 420 120 433 542 692
982 601z"/>
<path d="M828 1371 c-117 -38 -210 -117 -262 -224 -64 -130 -56 -295 20 -410
l24 -37 58 6 c31 4 58 8 60 9 7 6 -12 35 -23 35 -8 0 -14 28 -19 88 -7 94 -2
140 22 187 17 36 81 105 97 105 8 0 10 20 7 60 -4 56 -3 61 27 91 29 28 36 31
74 25 45 -8 72 -27 93 -68 15 -29 11 -53 -12 -62 -8 -3 -14 -16 -14 -29 0 -33
-39 -68 -68 -60 -23 6 -23 6 -7 -33 14 -33 36 -67 56 -84 3 -3 8 -13 12 -22 6
-16 9 -16 44 -2 45 19 70 39 70 58 0 8 17 34 39 60 28 33 46 45 67 46 15 0 27
-3 27 -6 0 -4 -16 -24 -35 -45 -19 -22 -35 -48 -35 -59 0 -10 -11 -27 -25 -37
-14 -10 -36 -26 -49 -35 l-24 -18 30 -55 c16 -30 34 -57 39 -60 5 -4 9 -16 9
-28 0 -27 47 -86 88 -110 l30 -17 36 42 c142 165 137 404 -11 568 -109 121
-290 170 -445 121z"/>
<path d="M880 890 c0 -22 1 -23 24 -14 13 5 14 9 5 20 -16 20 -29 17 -29 -6z"/>
<path d="M935 748 c-52 -39 -55 -43 -33 -49 13 -4 58 -16 100 -28 42 -12 84
-24 92 -27 11 -4 16 0 16 12 -1 23 -27 59 -43 59 -6 0 -16 10 -22 21 -14 28
-35 54 -45 54 -4 0 -33 -19 -65 -42z"/>
</g>
</svg>
