<?xml version="1.0" standalone="no"?>
<!DOCTYPE svg PUBLIC "-//W3C//DTD SVG 20010904//EN"
 "http://www.w3.org/TR/2001/REC-SVG-20010904/DTD/svg10.dtd">
<svg version="1.0" xmlns="http://www.w3.org/2000/svg"
 width="192.000000pt" height="192.000000pt" viewBox="0 0 192.000000 192.000000"
 preserveAspectRatio="xMidYMid meet">
<metadata>
Created by potrace 1.16, written by Peter Selinger 2001-2019
</metadata>
<g transform="translate(0.000000,192.000000) scale(0.100000,-0.100000)"
fill="#000000" stroke="none">
811 c445 -92 729 -532 635 -987 -62 -301 -295 -546 -601 -630 -91 -26 -329
-26 -420 0 -291 80 -516 305 -596 596 -26 91 -26 329 0 420 120 433 542 692
982 601z"/>
<path d="M987 1246 c-37 -14 -70 -37 -93 -65 -9 -11 -17 -11 -47 -2 -28 10
-45 10 -72 1 -41 -14 -85 -62 -85 -95 0 -18 -8 -26 -36 -35 -82 -27 -143 -129
-127 -212 14 -73 71 -138 140 -157 50 -14 526 -14 576 0 44 12 102 60 124 103
22 42 21 122 -2 170 -10 21 -38 53 -62 69 -27 19 -43 39 -43 51 -1 36 -36 100
-73 133 -58 51 -128 64 -200 39z m-209 -333 c2 -60 0 -73 -13 -73 -9 0 -15 9
-15 25 0 18 -5 25 -20 25 -15 0 -20 -7 -20 -25 0 -16 -6 -25 -15 -25 -12 0
-15 14 -15 68 0 38 3 72 7 76 4 4 25 6 48 4 l40 -3 3 -72z m100 -76 c6 -7 14
-31 18 -54 7 -48 -10 -67 -27 -29 l-12 25 -29 -24 c-36 -31 -89 -41 -137 -26
-43 12 -91 53 -91 76 0 20 24 19 41 -1 36 -43 100 -55 152 -27 30 17 31 18 9
21 -36 6 -23 36 18 43 19 4 38 7 41 8 4 0 11 -5 17 -12z"/>
<path d="M710 940 c0 -13 7 -20 20 -20 13 0 20 7 20 20 0 13 -7 20 -20 20 -13
0 -20 -7 -20 -20z"/>
</g>
</svg>
