<?xml version="1.0" standalone="no"?>
<!DOCTYPE svg PUBLIC "-//W3C//DTD SVG 20010904//EN"
 "http://www.w3.org/TR/2001/REC-SVG-20010904/DTD/svg10.dtd">
<svg version="1.0" xmlns="http://www.w3.org/2000/svg"
 width="192.000000pt" height="192.000000pt" viewBox="0 0 192.000000 192.000000"
 preserveAspectRatio="xMidYMid meet">
<metadata>
Created by potrace 1.16, written by Peter Selinger 2001-2019
</metadata>
<g transform="translate(0.000000,192.000000) scale(0.100000,-0.100000)"
fill="#000000" stroke="none">
759 c272 -64 494 -285 566 -564 28 -110 28 -280 0 -390 -71 -278 -288 -495
-566 -566 -110 -28 -280 -28 -390 0 -277 71 -494 288 -566 566 -28 110 -28
280 0 390 108 421 524 667 956 564z"/>
<path d="M633 1295 c-60 -26 -64 -47 -61 -325 3 -277 3 -277 78 -327 32 -22
39 -23 310 -23 271 0 278 1 310 23 68 45 75 71 75 267 0 166 -1 177 -24 213
-40 65 -79 77 -240 77 l-140 0 -46 45 c-25 25 -57 50 -71 55 -37 14 -154 11
-191 -5z m303 -300 l-17 -26 -21 26 c-19 25 -20 27 -2 46 18 20 18 20 37 0 19
-19 19 -21 3 -46z m214 0 c41 -40 56 -97 37 -145 -14 -36 -14 -37 25 -79 32
-34 37 -45 28 -56 -18 -22 -31 -19 -70 20 -34 33 -38 35 -69 24 -70 -25 -147
12 -176 83 -20 52 -14 96 22 139 35 41 57 49 121 46 42 -3 59 -10 82 -32z
m-306 -20 l27 -35 -27 -34 -28 -34 -26 36 -27 37 26 32 c14 18 27 33 27 33 1
0 14 -16 28 -35z m55 -162 c-6 -7 -15 -13 -19 -13 -15 0 -20 33 -8 47 10 13
14 13 25 -3 9 -13 10 -21 2 -31z"/>
<path d="M1001 953 c-11 -10 -24 -32 -27 -50 -5 -27 -1 -37 24 -63 39 -39 74
-39 113 -1 33 33 35 50 14 90 -23 45 -84 56 -124 24z"/>
</g>
</svg>
