<?xml version="1.0" standalone="no"?>
<!DOCTYPE svg PUBLIC "-//W3C//DTD SVG 20010904//EN"
 "http://www.w3.org/TR/2001/REC-SVG-20010904/DTD/svg10.dtd">
<svg version="1.0" xmlns="http://www.w3.org/2000/svg"
 width="192.000000pt" height="192.000000pt" viewBox="0 0 192.000000 192.000000"
 preserveAspectRatio="xMidYMid meet">
<metadata>
Created by potrace 1.16, written by Peter Selinger 2001-2019
</metadata>
<g transform="translate(0.000000,192.000000) scale(0.100000,-0.100000)"
fill="#000000" stroke="none">
876 c346 -66 629 -347 702 -696 8 -39 15 -122 15 -185 0 -63 -7 -146 -15 -185
-73 -349 -356 -630 -702 -696 -96 -18 -260 -18 -356 0 -349 67 -636 354 -703
704 -18 95 -18 259 0 354 66 346 352 635 696 703 88 18 272 18 363 1z"/>
<path d="M690 1344 c-45 -20 -87 -60 -111 -106 -17 -34 -19 -61 -19 -286 0
-241 1 -250 23 -293 13 -24 43 -57 66 -74 l43 -30 258 -3 c291 -3 304 -1 368
72 50 57 54 87 50 352 l-3 241 -28 41 c-15 23 -46 54 -69 69 l-41 28 -251 2
c-209 2 -257 0 -286 -13z m155 -370 c0 -68 -2 -79 -18 -82 -16 -3 -18 4 -16
75 2 85 5 96 22 90 8 -2 12 -32 12 -83z m231 73 c49 6 94 -2 94 -18 0 -6 -9
-13 -20 -16 -16 -4 -20 -14 -20 -48 0 -53 -8 -75 -26 -75 -10 0 -14 15 -14 60
0 51 -3 60 -18 60 -10 0 -23 5 -30 12 -14 14 -15 11 -12 -69 1 -50 -1 -63 -13
-63 -8 0 -18 7 -21 16 -10 26 -7 79 6 92 8 8 8 15 0 25 -14 17 6 43 22 27 5
-5 28 -7 52 -3z m148 -50 c12 -47 22 -47 33 0 5 23 15 39 26 41 23 5 22 -24
-4 -93 -15 -39 -26 -55 -39 -55 -13 0 -24 16 -39 55 -26 70 -27 98 -3 93 10
-2 21 -18 26 -41z m-444 -2 c17 -20 9 -100 -10 -100 -10 0 -16 13 -18 43 -4
47 -22 58 -22 13 0 -71 -37 -87 -42 -18 -4 53 -21 55 -28 2 -7 -57 -34 -55
-38 4 -2 24 -1 49 1 55 7 17 143 18 157 1z m193 -22 c11 -38 2 -83 -18 -83 -9
0 -15 14 -17 43 -4 53 -21 55 -28 2 -3 -27 -10 -41 -22 -43 -15 -3 -18 5 -18
51 0 29 2 56 4 58 2 2 24 4 47 4 40 0 44 -2 52 -32z m239 -143 c-3 -30 -22
-70 -34 -70 -5 0 -6 16 -2 35 6 35 6 35 -30 35 -20 0 -36 4 -36 9 0 14 21 20
65 18 36 -2 40 -4 37 -27z m-425 -14 c85 -36 188 -44 273 -21 100 27 110 28
110 16 0 -16 -88 -57 -154 -71 -99 -20 -221 11 -292 76 -44 40 -34 40 63 0z"/>
</g>
</svg>
