<?xml version="1.0" standalone="no"?>
<!DOCTYPE svg PUBLIC "-//W3C//DTD SVG 20010904//EN"
 "http://www.w3.org/TR/2001/REC-SVG-20010904/DTD/svg10.dtd">
<svg version="1.0" xmlns="http://www.w3.org/2000/svg"
 width="192.000000pt" height="192.000000pt" viewBox="0 0 192.000000 192.000000"
 preserveAspectRatio="xMidYMid meet">
<metadata>
Created by potrace 1.16, written by Peter Selinger 2001-2019
</metadata>
<g transform="translate(0.000000,192.000000) scale(0.100000,-0.100000)"
fill="#000000" stroke="none">
811 c445 -92 729 -532 635 -987 -62 -301 -295 -546 -601 -630 -91 -26 -329
-26 -420 0 -291 80 -516 305 -596 596 -26 91 -26 329 0 420 120 433 542 692
982 601z"/>
<path d="M695 1321 c-50 -22 -91 -69 -105 -119 -14 -52 -13 -430 2 -473 17
-53 46 -87 91 -112 40 -21 53 -22 272 -22 219 0 232 1 272 22 89 48 103 94
103 347 0 217 -6 258 -47 307 -53 62 -83 69 -328 69 -192 0 -225 -3 -260 -19z
m315 -245 c147 -91 147 -128 0 -217 -52 -32 -105 -59 -116 -59 -12 0 -33 9
-48 21 -26 20 -26 22 -26 145 0 111 2 126 20 144 33 33 76 24 170 -34z"/>
</g>
</svg>
