<?xml version="1.0" standalone="no"?>
<!DOCTYPE svg PUBLIC "-//W3C//DTD SVG 20010904//EN"
 "http://www.w3.org/TR/2001/REC-SVG-20010904/DTD/svg10.dtd">
<svg version="1.0" xmlns="http://www.w3.org/2000/svg"
 width="192.000000pt" height="192.000000pt" viewBox="0 0 192.000000 192.000000"
 preserveAspectRatio="xMidYMid meet">
<metadata>
Created by potrace 1.16, written by Peter Selinger 2001-2019
</metadata>
<g transform="translate(0.000000,192.000000) scale(0.100000,-0.100000)"
fill="#000000" stroke="none">
811 c445 -92 729 -532 635 -987 -62 -301 -295 -546 -601 -630 -91 -26 -329
-26 -420 0 -291 80 -516 305 -596 596 -26 91 -26 329 0 420 120 433 542 692
982 601z"/>
<path d="M695 1321 c-49 -22 -91 -69 -106 -119 -7 -24 -9 -116 -7 -259 l3
-221 30 -43 c56 -79 77 -84 340 -84 263 0 284 5 340 84 l30 43 3 221 c4 240
-1 275 -45 328 -53 62 -83 69 -328 69 -192 0 -225 -3 -260 -19z m138 -111 c66
-52 27 -160 -58 -160 -39 0 -65 18 -81 56 -12 29 -12 39 0 68 8 19 22 39 33
45 29 17 78 13 106 -9z m389 -149 l48 -64 0 -116 c0 -129 -12 -168 -63 -205
-27 -20 -42 -21 -249 -21 l-220 0 -24 28 c-39 45 -32 80 34 175 58 83 89 105
121 85 9 -5 48 -55 86 -111 43 -63 77 -101 88 -102 34 0 29 30 -16 92 -24 35
-47 72 -51 83 -6 22 20 70 95 171 36 49 44 55 72 52 26 -2 41 -15 79 -67z"/>
</g>
</svg>
