<?xml version="1.0" standalone="no"?>
<!DOCTYPE svg PUBLIC "-//W3C//DTD SVG 20010904//EN"
 "http://www.w3.org/TR/2001/REC-SVG-20010904/DTD/svg10.dtd">
<svg version="1.0" xmlns="http://www.w3.org/2000/svg"
 width="192.000000pt" height="192.000000pt" viewBox="0 0 192.000000 192.000000"
 preserveAspectRatio="xMidYMid meet">
<metadata>
Created by potrace 1.16, written by Peter Selinger 2001-2019
</metadata>
<g transform="translate(0.000000,192.000000) scale(0.100000,-0.100000)"
fill="#000000" stroke="none">
811 c445 -92 729 -532 635 -987 -62 -301 -295 -546 -601 -630 -91 -26 -329
-26 -420 0 -291 80 -516 305 -596 596 -26 91 -26 329 0 420 120 433 542 692
982 601z"/>
<path d="M706 1334 c-33 -33 -19 -56 116 -191 l133 -133 132 132 c91 90 133
140 133 155 0 22 -33 53 -58 53 -7 0 -58 -44 -113 -97 l-99 -96 -99 96 c-54
53 -105 97 -114 97 -9 0 -23 -7 -31 -16z"/>
<path d="M586 1214 c-9 -8 -16 -23 -16 -32 0 -9 44 -60 97 -114 l97 -98 -97
-98 c-57 -58 -97 -107 -97 -119 0 -24 30 -53 55 -53 10 0 78 59 152 132 l133
132 -132 133 c-136 136 -159 150 -192 117z"/>
<path d="M1126 1100 l-131 -130 137 -137 c130 -129 139 -137 164 -128 15 6 31
21 36 34 7 21 -3 35 -92 125 l-100 102 91 89 c110 109 116 118 94 151 -32 49
-58 35 -199 -106z"/>
<path d="M817 792 c-129 -129 -147 -158 -115 -190 30 -30 62 -13 158 83 l95
95 96 -96 c83 -82 100 -95 125 -92 21 2 31 11 38 31 10 26 4 34 -124 162 -74
74 -137 135 -140 135 -3 0 -63 -57 -133 -128z"/>
</g>
</svg>
