<?xml version="1.0" standalone="no"?>
<!DOCTYPE svg PUBLIC "-//W3C//DTD SVG 20010904//EN"
 "http://www.w3.org/TR/2001/REC-SVG-20010904/DTD/svg10.dtd">
<svg version="1.0" xmlns="http://www.w3.org/2000/svg"
 width="192.000000pt" height="192.000000pt" viewBox="0 0 192.000000 192.000000"
 preserveAspectRatio="xMidYMid meet">
<metadata>
Created by potrace 1.16, written by Peter Selinger 2001-2019
</metadata>
<g transform="translate(0.000000,192.000000) scale(0.100000,-0.100000)"
fill="#000000" stroke="none">
811 c445 -92 729 -532 635 -987 -62 -301 -295 -546 -601 -630 -91 -26 -329
-26 -420 0 -291 80 -516 305 -596 596 -26 91 -26 329 0 420 120 433 542 692
982 601z"/>
<path d="M846 1389 c-111 -26 -235 -128 -289 -239 -31 -62 -32 -70 -32 -185 0
-115 1 -123 32 -185 18 -36 55 -88 85 -118 187 -188 485 -172 654 35 106 129
122 319 42 477 -27 52 -103 132 -156 163 -95 56 -230 77 -336 52z m215 -220
c88 -44 140 -155 119 -252 -16 -74 -44 -127 -96 -180 -45 -46 -159 -111 -175
-101 -5 3 -9 23 -9 45 0 38 -26 79 -50 79 -18 0 -81 64 -103 104 -27 53 -29
146 -3 196 64 122 199 169 317 109z"/>
</g>
</svg>
