<?xml version="1.0" standalone="no"?>
<!DOCTYPE svg PUBLIC "-//W3C//DTD SVG 20010904//EN"
 "http://www.w3.org/TR/2001/REC-SVG-20010904/DTD/svg10.dtd">
<svg version="1.0" xmlns="http://www.w3.org/2000/svg"
 width="192.000000pt" height="192.000000pt" viewBox="0 0 192.000000 192.000000"
 preserveAspectRatio="xMidYMid meet">
<metadata>
Created by potrace 1.16, written by Peter Selinger 2001-2019
</metadata>
<g transform="translate(0.000000,192.000000) scale(0.100000,-0.100000)"
fill="#000000" stroke="none">
811 c445 -92 729 -532 635 -987 -62 -301 -295 -546 -601 -630 -91 -26 -329
-26 -420 0 -291 80 -516 305 -596 596 -26 91 -26 329 0 420 120 433 542 692
982 601z"/>
<path d="M730 1350 c29 -29 25 -67 -15 -131 -19 -32 -38 -72 -41 -91 l-7 -33
37 42 c64 73 133 78 235 14 27 -16 52 -27 55 -24 3 4 6 19 6 35 0 31 -38 78
-63 78 -20 0 -47 33 -47 59 0 12 11 33 25 46 l24 25 -38 0 c-27 0 -46 -7 -65
-25 l-28 -25 -30 25 c-16 14 -38 25 -49 25 -18 0 -18 -1 1 -20z"/>
<path d="M787 1145 c-90 -31 -100 -62 -95 -310 3 -209 9 -229 69 -261 60 -30
95 -20 259 77 85 50 165 100 178 112 50 46 48 140 -5 188 -36 33 -310 194
-343 202 -14 3 -42 0 -63 -8z"/>
</g>
</svg>
