<?xml version="1.0" standalone="no"?>
<!DOCTYPE svg PUBLIC "-//W3C//DTD SVG 20010904//EN"
 "http://www.w3.org/TR/2001/REC-SVG-20010904/DTD/svg10.dtd">
<svg version="1.0" xmlns="http://www.w3.org/2000/svg"
 width="192.000000pt" height="192.000000pt" viewBox="0 0 192.000000 192.000000"
 preserveAspectRatio="xMidYMid meet">
<metadata>
Created by potrace 1.16, written by Peter Selinger 2001-2019
</metadata>
<g transform="translate(0.000000,192.000000) scale(0.100000,-0.100000)"
fill="#000000" stroke="none">
811 c445 -92 729 -532 635 -987 -62 -301 -295 -546 -601 -630 -91 -26 -329
-26 -420 0 -291 80 -516 305 -596 596 -26 91 -26 329 0 420 120 433 542 692
982 601z"/>
<path d="M880 1364 c-67 -29 -130 -111 -130 -169 0 -20 -5 -25 -24 -25 -31 0
-70 -32 -89 -72 -8 -18 -25 -110 -37 -203 -23 -189 -20 -238 22 -282 52 -56
63 -58 328 -58 236 0 247 1 288 23 48 25 78 67 87 122 8 48 -32 355 -52 397
-19 41 -58 73 -88 73 -19 0 -23 7 -28 41 -16 121 -163 202 -277 153z m164 -75
c30 -26 56 -78 56 -111 0 -5 -65 -8 -145 -8 -141 0 -145 1 -145 21 0 31 38 93
68 112 16 10 48 17 79 17 44 0 58 -5 87 -31z m-46 -295 c19 -13 22 -24 22 -75
0 -33 5 -69 11 -80 14 -28 -16 -53 -43 -36 -13 9 -21 8 -30 -1 -17 -17 -64
-15 -82 4 -41 40 2 114 65 114 22 0 29 5 29 20 0 28 -27 36 -49 16 -26 -24
-53 -21 -49 6 6 43 83 62 126 32z m107 -226 c-11 -37 -25 -45 -25 -15 0 19 -4
25 -15 21 -8 -4 -15 -1 -15 5 0 6 14 11 31 11 27 0 30 -3 24 -22z m-240 -9
c48 -21 122 -23 184 -3 37 11 16 -15 -25 -32 -58 -24 -124 -18 -177 17 -69 46
-61 53 18 18z"/>
<path d="M940 887 c-32 -16 -33 -51 -3 -55 17 -3 24 3 29 22 9 38 2 47 -26 33z"/>
</g>
</svg>
