<?xml version="1.0" standalone="no"?>
<!DOCTYPE svg PUBLIC "-//W3C//DTD SVG 20010904//EN"
 "http://www.w3.org/TR/2001/REC-SVG-20010904/DTD/svg10.dtd">
<svg version="1.0" xmlns="http://www.w3.org/2000/svg"
 width="192.000000pt" height="192.000000pt" viewBox="0 0 192.000000 192.000000"
 preserveAspectRatio="xMidYMid meet">
<metadata>
Created by potrace 1.16, written by Peter Selinger 2001-2019
</metadata>
<g transform="translate(0.000000,192.000000) scale(0.100000,-0.100000)"
fill="#000000" stroke="none">
811 c445 -92 729 -532 635 -987 -62 -301 -295 -546 -601 -630 -91 -26 -329
-26 -420 0 -291 80 -516 305 -596 596 -26 91 -26 329 0 420 120 433 542 692
982 601z"/>
<path d="M695 1321 c-48 -22 -79 -54 -100 -103 -12 -30 -15 -81 -15 -256 0
-210 1 -221 23 -263 13 -24 43 -57 66 -74 l43 -30 243 0 243 0 43 30 c23 17
53 50 66 74 22 42 23 53 23 263 0 233 -5 265 -53 317 -50 54 -83 61 -322 61
-193 0 -225 -3 -260 -19z m433 -310 c3 -165 -4 -192 -48 -206 -30 -9 -75 12
-88 40 -23 50 29 116 79 100 17 -6 19 -1 19 54 l0 60 -37 -6 c-21 -3 -69 -11
-108 -17 l-70 -11 -3 -110 c-3 -124 -13 -145 -69 -145 -68 0 -96 68 -47 117
19 19 33 24 55 21 l29 -5 0 114 c0 83 3 113 13 114 6 0 64 9 127 19 63 10 122
17 130 16 12 -1 15 -27 18 -155z"/>
</g>
</svg>
