<?xml version="1.0" standalone="no"?>
<!DOCTYPE svg PUBLIC "-//W3C//DTD SVG 20010904//EN"
 "http://www.w3.org/TR/2001/REC-SVG-20010904/DTD/svg10.dtd">
<svg version="1.0" xmlns="http://www.w3.org/2000/svg"
 width="192.000000pt" height="192.000000pt" viewBox="0 0 192.000000 192.000000"
 preserveAspectRatio="xMidYMid meet">
<metadata>
Created by potrace 1.16, written by Peter Selinger 2001-2019
</metadata>
<g transform="translate(0.000000,192.000000) scale(0.100000,-0.100000)"
fill="#000000" stroke="none">
811 c445 -92 729 -532 635 -987 -62 -301 -295 -546 -601 -630 -91 -26 -329
-26 -420 0 -291 80 -516 305 -596 596 -26 91 -26 329 0 420 120 433 542 692
982 601z"/>
<path d="M695 1321 c-49 -22 -91 -69 -105 -119 -7 -24 -10 -118 -8 -259 l3
-221 30 -43 c56 -79 77 -84 340 -84 263 0 284 5 340 84 l30 43 3 221 c4 240
-1 276 -45 328 -53 62 -83 69 -328 69 -192 0 -225 -3 -260 -19z m125 -151 c11
-7 15 -29 15 -87 0 -66 -3 -78 -17 -81 -14 -3 -18 3 -18 27 0 26 -4 31 -24 31
-19 0 -25 -6 -28 -27 -2 -17 -10 -29 -20 -31 -16 -3 -18 6 -18 75 0 48 5 84
12 91 14 14 77 16 98 2z m380 -2 c0 -7 -18 -40 -40 -73 l-40 -60 40 -3 c27 -2
40 -8 40 -18 0 -11 -14 -14 -60 -14 -74 0 -75 7 -19 87 l40 58 -40 3 c-28 2
-41 8 -41 18 0 11 14 14 60 14 41 0 60 -4 60 -12z m-262 -42 c-12 -9 -18 -27
-18 -55 0 -22 -4 -41 -10 -41 -5 0 -10 20 -10 45 0 33 -4 45 -15 45 -8 0 -15
5 -15 10 0 6 19 10 43 10 37 -1 40 -2 25 -14z m100 -38 c3 -44 1 -48 -22 -54
-43 -10 -56 1 -56 49 0 52 5 59 45 55 28 -3 30 -6 33 -50z m146 -191 c25 -19
47 -164 26 -177 -21 -13 -37 5 -45 50 l-7 39 -35 -36 c-83 -83 -216 -103 -325
-50 -60 29 -121 91 -116 117 6 30 39 21 87 -22 95 -86 211 -90 299 -11 l37 33
-43 -2 c-48 -2 -74 14 -54 35 11 10 99 33 143 36 8 1 23 -5 33 -12z"/>
<path d="M750 1120 c0 -25 4 -30 25 -30 21 0 25 5 25 30 0 25 -4 30 -25 30
-21 0 -25 -5 -25 -30z"/>
<path d="M990 1090 c0 -16 5 -30 10 -30 6 0 10 14 10 30 0 17 -4 30 -10 30 -5
0 -10 -13 -10 -30z"/>
</g>
</svg>
