<?xml version="1.0" standalone="no"?>
<!DOCTYPE svg PUBLIC "-//W3C//DTD SVG 20010904//EN"
 "http://www.w3.org/TR/2001/REC-SVG-20010904/DTD/svg10.dtd">
<svg version="1.0" xmlns="http://www.w3.org/2000/svg"
 width="192.000000pt" height="192.000000pt" viewBox="0 0 192.000000 192.000000"
 preserveAspectRatio="xMidYMid meet">
<metadata>
Created by potrace 1.16, written by Peter Selinger 2001-2019
</metadata>
<g transform="translate(0.000000,192.000000) scale(0.100000,-0.100000)"
fill="#000000" stroke="none">
811 c445 -92 729 -532 635 -987 -62 -301 -295 -546 -601 -630 -91 -26 -329
-26 -420 0 -291 80 -516 305 -596 596 -26 91 -26 329 0 420 120 433 542 692
982 601z"/>
<path d="M657 1312 c-34 -7 -15 -42 67 -126 l85 -86 140 0 141 0 0 -139 c0
-159 -9 -140 112 -250 44 -39 73 -59 83 -55 13 5 15 47 15 330 0 178 -3 324
-7 324 -5 0 -146 1 -314 3 -168 1 -313 1 -322 -1z"/>
<path d="M697 982 l-87 -87 0 -131 c0 -93 4 -134 13 -141 6 -6 69 -10 139 -9
l128 1 85 85 c96 95 109 129 53 131 -18 0 -70 1 -115 2 l-83 2 0 106 c0 102
-7 129 -35 129 -6 0 -50 -39 -98 -88z"/>
</g>
</svg>
