<?xml version="1.0" standalone="no"?>
<!DOCTYPE svg PUBLIC "-//W3C//DTD SVG 20010904//EN"
 "http://www.w3.org/TR/2001/REC-SVG-20010904/DTD/svg10.dtd">
<svg version="1.0" xmlns="http://www.w3.org/2000/svg"
 width="192.000000pt" height="192.000000pt" viewBox="0 0 192.000000 192.000000"
 preserveAspectRatio="xMidYMid meet">
<metadata>
Created by potrace 1.16, written by Peter Selinger 2001-2019
</metadata>
<g transform="translate(0.000000,192.000000) scale(0.100000,-0.100000)"
fill="#000000" stroke="none">
811 c445 -92 729 -532 635 -987 -62 -301 -295 -546 -601 -630 -91 -26 -329
-26 -420 0 -291 80 -516 305 -596 596 -26 91 -26 329 0 420 120 433 542 692
982 601z"/>
<path d="M555 1349 c-4 -6 10 -38 31 -72 21 -34 61 -101 90 -148 32 -51 63
-90 79 -97 32 -15 221 -16 230 -2 11 18 -222 300 -261 316 -39 16 -160 19
-169 3z"/>
<path d="M1044 1045 c-12 -29 20 -69 62 -78 69 -14 81 4 37 53 -34 37 -89 51
-99 25z"/>
<path d="M975 956 c-16 -8 -43 -28 -60 -45 -25 -27 -30 -41 -30 -79 1 -38 10
-61 48 -124 82 -132 104 -141 307 -136 83 2 115 6 115 15 0 7 -69 96 -153 198
-162 196 -165 198 -227 171z"/>
</g>
</svg>
