<?xml version="1.0" standalone="no"?>
<!DOCTYPE svg PUBLIC "-//W3C//DTD SVG 20010904//EN"
 "http://www.w3.org/TR/2001/REC-SVG-20010904/DTD/svg10.dtd">
<svg version="1.0" xmlns="http://www.w3.org/2000/svg"
 width="192.000000pt" height="192.000000pt" viewBox="0 0 192.000000 192.000000"
 preserveAspectRatio="xMidYMid meet">
<metadata>
Created by potrace 1.16, written by Peter Selinger 2001-2019
</metadata>
<g transform="translate(0.000000,192.000000) scale(0.100000,-0.100000)"
fill="#000000" stroke="none">
811 c445 -92 729 -532 635 -987 -62 -301 -295 -546 -601 -630 -91 -26 -329
-26 -420 0 -291 80 -516 305 -596 596 -26 91 -26 329 0 420 120 433 542 692
982 601z"/>
<path d="M734 1372 c-6 -4 -16 -17 -23 -30 -10 -19 -10 -28 4 -48 l15 -24 220
0 c237 0 250 3 250 55 0 49 -27 55 -250 55 -113 0 -210 -4 -216 -8z"/>
<path d="M883 1200 c-71 -15 -103 -36 -103 -70 0 -26 22 -60 39 -60 4 0 29 7
55 16 55 19 118 14 147 -12 10 -9 19 -20 19 -24 0 -4 -37 -7 -83 -7 -132 1
-204 -45 -222 -145 -9 -49 22 -114 71 -148 48 -32 151 -40 209 -16 26 11 42
13 49 6 14 -14 59 -13 74 2 8 8 12 60 12 167 0 137 -2 160 -21 198 -36 75
-140 114 -246 93z m141 -266 c9 -3 16 -17 16 -30 0 -74 -155 -109 -191 -43
-11 22 1 52 29 68 19 11 121 15 146 5z"/>
<path d="M738 659 c-32 -18 -41 -48 -23 -75 l15 -24 223 0 c240 0 247 2 247
51 0 54 -23 59 -245 59 -116 0 -207 -5 -217 -11z"/>
</g>
</svg>
