<?xml version="1.0" standalone="no"?>
<!DOCTYPE svg PUBLIC "-//W3C//DTD SVG 20010904//EN"
 "http://www.w3.org/TR/2001/REC-SVG-20010904/DTD/svg10.dtd">
<svg version="1.0" xmlns="http://www.w3.org/2000/svg"
 width="192.000000pt" height="192.000000pt" viewBox="0 0 192.000000 192.000000"
 preserveAspectRatio="xMidYMid meet">
<metadata>
Created by potrace 1.16, written by Peter Selinger 2001-2019
</metadata>
<g transform="translate(0.000000,192.000000) scale(0.100000,-0.100000)"
fill="#000000" stroke="none">
811 c445 -92 729 -532 635 -987 -62 -301 -295 -546 -601 -630 -91 -26 -329
-26 -420 0 -291 80 -516 305 -596 596 -26 91 -26 329 0 420 120 433 542 692
982 601z"/>
<path d="M705 1325 c-49 -17 -112 -85 -120 -128 -4 -18 -5 -134 -3 -259 l3
-226 31 -39 c62 -76 70 -78 334 -78 256 0 271 3 326 62 30 33 30 43 0 43 -16
0 -37 14 -60 42 l-36 42 -43 -42 c-32 -32 -51 -42 -75 -42 -18 0 -32 3 -32 7
0 4 25 32 55 63 l55 56 -60 59 c-51 50 -60 56 -60 37 0 -21 -4 -22 -70 -22
-68 0 -70 -1 -70 -25 0 -24 2 -25 70 -25 68 0 70 -1 70 -25 0 -24 -2 -25 -70
-25 -63 0 -70 -2 -70 -20 0 -18 7 -20 70 -20 l70 0 0 -30 0 -31 -102 3 -103 3
0 120 0 120 145 3 145 3 36 -42 36 -42 38 41 c32 36 43 42 76 42 32 0 39 3 39
20 0 13 -7 20 -20 20 -19 0 -20 7 -21 93 l0 92 -36 -93 c-35 -91 -37 -93 -66
-90 -27 3 -32 10 -61 85 -17 45 -34 85 -38 89 -5 4 -8 -34 -8 -84 l0 -92 -65
0 c-61 0 -66 2 -75 25 -9 23 -15 25 -70 25 -55 0 -61 -2 -72 -25 -9 -19 -19
-25 -45 -25 -18 0 -33 2 -33 4 0 2 24 58 53 123 l54 118 43 0 44 0 50 -115 51
-115 3 118 3 117 53 0 53 0 28 -76 c15 -41 31 -72 36 -67 4 4 19 37 32 73 21
55 29 66 52 70 l27 5 -25 27 c-55 59 -72 63 -312 65 -171 2 -229 0 -260 -12z"/>
<path d="M848 1135 l-17 -45 34 0 c19 0 35 5 35 10 0 12 -27 80 -32 80 -2 0
-11 -20 -20 -45z"/>
<path d="M1273 885 l-53 -58 43 -48 c23 -26 45 -47 49 -48 14 -2 19 43 16 128
l-3 85 -52 -59z"/>
<path d="M1310 710 c0 -5 5 -10 11 -10 5 0 7 5 4 10 -3 6 -8 10 -11 10 -2 0
-4 -4 -4 -10z"/>
</g>
</svg>
