<?xml version="1.0" standalone="no"?>
<!DOCTYPE svg PUBLIC "-//W3C//DTD SVG 20010904//EN"
 "http://www.w3.org/TR/2001/REC-SVG-20010904/DTD/svg10.dtd">
<svg version="1.0" xmlns="http://www.w3.org/2000/svg"
 width="192.000000pt" height="192.000000pt" viewBox="0 0 192.000000 192.000000"
 preserveAspectRatio="xMidYMid meet">
<metadata>
Created by potrace 1.16, written by Peter Selinger 2001-2019
</metadata>
<g transform="translate(0.000000,192.000000) scale(0.100000,-0.100000)"
fill="#000000" stroke="none">
811 c445 -92 729 -532 635 -987 -62 -301 -295 -546 -601 -630 -91 -26 -329
-26 -420 0 -291 80 -516 305 -596 596 -26 91 -26 329 0 420 120 433 542 692
982 601z"/>
<path d="M553 1253 c-7 -2 -13 -12 -13 -21 0 -16 290 -536 309 -555 17 -17 47
4 74 55 l29 51 20 -34 c12 -19 27 -44 35 -57 31 -51 48 -31 210 253 84 149
153 277 153 286 0 9 -7 20 -16 23 -22 9 -237 7 -250 -2 -6 -4 -36 -53 -68
-108 -49 -88 -55 -105 -47 -127 12 -31 54 -45 76 -27 8 7 33 46 56 86 33 61
45 74 65 74 14 0 23 -3 21 -7 -63 -116 -161 -283 -166 -283 -3 0 -37 55 -76
121 -73 126 -97 149 -134 130 -39 -22 -36 -53 14 -141 39 -66 46 -85 38 -103
-8 -19 -20 -4 -96 125 -48 81 -87 149 -87 152 0 3 66 7 146 8 l146 3 21 36
c39 68 36 69 -220 68 -125 0 -234 -3 -240 -6z"/>
</g>
</svg>
