<?xml version="1.0" standalone="no"?>
<!DOCTYPE svg PUBLIC "-//W3C//DTD SVG 20010904//EN"
 "http://www.w3.org/TR/2001/REC-SVG-20010904/DTD/svg10.dtd">
<svg version="1.0" xmlns="http://www.w3.org/2000/svg"
 width="192.000000pt" height="192.000000pt" viewBox="0 0 192.000000 192.000000"
 preserveAspectRatio="xMidYMid meet">
<metadata>
Created by potrace 1.16, written by Peter Selinger 2001-2019
</metadata>
<g transform="translate(0.000000,192.000000) scale(0.100000,-0.100000)"
fill="#000000" stroke="none">
811 c445 -92 729 -532 635 -987 -62 -301 -295 -546 -601 -630 -91 -26 -329
-26 -420 0 -291 80 -516 305 -596 596 -26 91 -26 329 0 420 120 433 542 692
982 601z"/>
<path d="M809 1344 c-13 -14 -45 -41 -71 -60 -87 -64 -158 -195 -158 -290 0
-28 -8 -46 -36 -76 -28 -31 -33 -42 -24 -54 13 -14 42 -6 56 17 3 6 17 -15 30
-47 21 -51 22 -60 9 -74 -19 -21 -19 -50 -1 -50 7 0 19 7 26 15 11 13 19 9 60
-29 26 -24 61 -51 79 -61 30 -15 31 -18 18 -33 -15 -18 -12 -42 6 -42 6 0 19
8 29 17 15 13 40 17 121 17 90 1 109 4 163 29 129 60 215 187 222 329 3 65 8
80 28 99 13 12 24 28 24 35 0 22 -20 27 -39 10 -17 -15 -20 -13 -51 50 l-32
66 21 22 c24 25 28 56 8 56 -8 0 -24 -11 -37 -25 l-23 -24 -30 25 c-75 63
-195 99 -292 88 -34 -4 -55 -3 -59 5 -11 17 -20 14 -47 -15z m226 -193 c47
-22 89 -64 104 -104 6 -16 11 -84 11 -151 0 -101 -3 -126 -16 -137 -20 -16
-48 -1 -52 30 -4 25 -8 26 -58 5 -83 -35 -183 1 -231 83 -94 161 74 352 242
274z"/>
<path d="M894 1071 c-67 -41 -67 -151 -1 -191 92 -56 203 23 176 125 -21 74
-108 107 -175 66z"/>
</g>
</svg>
