<?xml version="1.0" standalone="no"?>
<!DOCTYPE svg PUBLIC "-//W3C//DTD SVG 20010904//EN"
 "http://www.w3.org/TR/2001/REC-SVG-20010904/DTD/svg10.dtd">
<svg version="1.0" xmlns="http://www.w3.org/2000/svg"
 width="192.000000pt" height="192.000000pt" viewBox="0 0 192.000000 192.000000"
 preserveAspectRatio="xMidYMid meet">
<metadata>
Created by potrace 1.16, written by Peter Selinger 2001-2019
</metadata>
<g transform="translate(0.000000,192.000000) scale(0.100000,-0.100000)"
fill="#000000" stroke="none">
811 c445 -92 729 -532 635 -987 -62 -301 -295 -546 -601 -630 -91 -26 -329
-26 -420 0 -291 80 -516 305 -596 596 -26 91 -26 329 0 420 120 433 542 692
982 601z"/>
<path d="M917 1343 c-56 -110 -318 -738 -315 -756 2 -16 11 -23 34 -25 31 -3
31 -3 97 145 35 81 111 256 167 388 108 252 111 267 57 273 -20 3 -29 -3 -40
-25z"/>
<path d="M1016 1158 c-25 -39 -96 -208 -96 -228 0 -28 17 -34 99 -40 l73 -5
73 -160 73 -160 34 0 c26 0 34 4 36 22 3 23 -139 346 -166 376 -10 12 -30 17
-64 17 -26 0 -48 2 -48 5 0 3 14 35 30 72 33 72 36 93 18 111 -19 19 -46 14
-62 -10z"/>
<path d="M861 817 c-6 -7 -29 -58 -51 -112 -49 -116 -48 -148 2 -143 29 3 34
9 69 93 35 86 38 90 70 93 34 3 35 2 79 -90 42 -87 47 -93 75 -93 47 0 44 35
-14 158 l-50 107 -84 0 c-58 0 -88 -4 -96 -13z"/>
</g>
</svg>
