<?xml version="1.0" standalone="no"?>
<!DOCTYPE svg PUBLIC "-//W3C//DTD SVG 20010904//EN"
 "http://www.w3.org/TR/2001/REC-SVG-20010904/DTD/svg10.dtd">
<svg version="1.0" xmlns="http://www.w3.org/2000/svg"
 width="192.000000pt" height="192.000000pt" viewBox="0 0 192.000000 192.000000"
 preserveAspectRatio="xMidYMid meet">
<metadata>
Created by potrace 1.16, written by Peter Selinger 2001-2019
</metadata>
<g transform="translate(0.000000,192.000000) scale(0.100000,-0.100000)"
fill="#000000" stroke="none">
811 c445 -92 729 -532 635 -987 -62 -301 -295 -546 -601 -630 -91 -26 -329
-26 -420 0 -291 80 -516 305 -596 596 -26 91 -26 329 0 420 120 433 542 692
982 601z"/>
<path d="M898 1228 c-31 -24 -349 -432 -354 -455 -8 -30 19 -71 51 -79 33 -8
66 14 112 76 l37 50 88 0 88 0 0 -40 c0 -30 7 -47 25 -65 50 -51 115 -17 115
59 l0 43 81 7 c118 10 179 47 214 128 23 57 19 118 -13 179 -22 43 -38 59 -81
81 -51 27 -59 28 -200 28 -103 0 -152 -4 -163 -12z m314 -148 c24 -29 23 -75
-2 -100 -16 -16 -33 -20 -85 -20 l-65 0 0 68 c0 38 3 72 8 76 4 5 34 6 67 3
45 -4 64 -11 77 -27z m-292 -80 c0 -38 -2 -40 -30 -40 -16 0 -30 3 -30 6 0 7
51 74 56 74 2 0 4 -18 4 -40z"/>
</g>
</svg>
