<?xml version="1.0" standalone="no"?>
<!DOCTYPE svg PUBLIC "-//W3C//DTD SVG 20010904//EN"
 "http://www.w3.org/TR/2001/REC-SVG-20010904/DTD/svg10.dtd">
<svg version="1.0" xmlns="http://www.w3.org/2000/svg"
 width="192.000000pt" height="192.000000pt" viewBox="0 0 192.000000 192.000000"
 preserveAspectRatio="xMidYMid meet">
<metadata>
Created by potrace 1.16, written by Peter Selinger 2001-2019
</metadata>
<g transform="translate(0.000000,192.000000) scale(0.100000,-0.100000)"
fill="#000000" stroke="none">
811 c445 -92 729 -532 635 -987 -62 -301 -295 -546 -601 -630 -91 -26 -329
-26 -420 0 -291 80 -516 305 -596 596 -26 91 -26 329 0 420 120 433 542 692
982 601z"/>
<path d="M553 1253 c-7 -2 -13 -13 -13 -23 0 -10 69 -139 154 -286 112 -197
159 -270 173 -272 16 -2 28 10 53 54 l32 57 21 -34 c11 -19 26 -44 34 -57 31
-51 48 -31 209 252 85 147 154 276 154 286 0 10 -7 21 -16 24 -22 9 -237 7
-250 -2 -6 -4 -37 -53 -69 -110 -50 -90 -56 -106 -47 -127 13 -29 56 -43 77
-25 8 7 33 46 56 86 33 61 45 74 65 74 14 0 23 -3 21 -7 -63 -116 -161 -283
-166 -283 -3 0 -37 55 -76 121 -73 126 -97 149 -134 130 -39 -22 -36 -53 14
-141 38 -65 46 -85 38 -102 -8 -19 -20 -3 -96 125 -48 80 -87 148 -87 151 0 3
66 7 146 8 l146 3 21 36 c39 68 36 69 -220 68 -125 0 -234 -3 -240 -6z"/>
</g>
</svg>
