<?xml version="1.0" standalone="no"?>
<!DOCTYPE svg PUBLIC "-//W3C//DTD SVG 20010904//EN"
 "http://www.w3.org/TR/2001/REC-SVG-20010904/DTD/svg10.dtd">
<svg version="1.0" xmlns="http://www.w3.org/2000/svg"
 width="192.000000pt" height="192.000000pt" viewBox="0 0 192.000000 192.000000"
 preserveAspectRatio="xMidYMid meet">
<metadata>
Created by potrace 1.16, written by Peter Selinger 2001-2019
</metadata>
<g transform="translate(0.000000,192.000000) scale(0.100000,-0.100000)"
fill="#000000" stroke="none">
811 c445 -92 729 -532 635 -987 -62 -301 -295 -546 -601 -630 -91 -26 -329
-26 -420 0 -291 80 -516 305 -596 596 -26 91 -26 329 0 420 120 433 542 692
982 601z"/>
<path d="M825 1360 c-59 -23 -130 -88 -154 -140 -9 -20 -35 -54 -59 -76 -36
-36 -42 -46 -42 -83 0 -48 21 -96 50 -111 18 -10 20 -21 20 -136 0 -137 9
-172 56 -215 44 -40 86 -49 228 -49 153 0 198 10 242 54 50 50 56 92 52 335
-3 202 -5 220 -27 269 -62 138 -225 206 -366 152z m125 -262 c26 -28 26 -58
-1 -92 -20 -26 -22 -26 -155 -26 -121 0 -136 2 -154 20 -24 24 -26 77 -3 102
14 16 33 18 154 18 129 0 140 -1 159 -22z"/>
<path d="M1265 1118 c-3 -7 -4 -112 -3 -233 l3 -220 35 0 35 0 0 230 0 230
-33 3 c-20 2 -34 -2 -37 -10z"/>
</g>
</svg>
