<?xml version="1.0" standalone="no"?>
<!DOCTYPE svg PUBLIC "-//W3C//DTD SVG 20010904//EN"
 "http://www.w3.org/TR/2001/REC-SVG-20010904/DTD/svg10.dtd">
<svg version="1.0" xmlns="http://www.w3.org/2000/svg"
 width="192.000000pt" height="192.000000pt" viewBox="0 0 192.000000 192.000000"
 preserveAspectRatio="xMidYMid meet">
<metadata>
Created by potrace 1.16, written by Peter Selinger 2001-2019
</metadata>
<g transform="translate(0.000000,192.000000) scale(0.100000,-0.100000)"
fill="#000000" stroke="none">
811 c445 -92 729 -532 635 -987 -62 -301 -295 -546 -601 -630 -91 -26 -329
-26 -420 0 -291 80 -516 305 -596 596 -26 91 -26 329 0 420 120 433 542 692
982 601z"/>
<path d="M856 1364 c-86 -27 -168 -94 -199 -161 -6 -14 -28 -33 -49 -44 -42
-22 -68 -63 -68 -109 0 -38 24 -86 49 -100 17 -8 19 -24 23 -132 3 -107 6
-128 27 -165 51 -89 95 -103 318 -103 185 0 223 7 270 52 18 17 26 19 35 10
13 -13 57 -16 74 -4 29 19 34 56 34 232 0 179 0 181 -25 205 -13 14 -31 25
-38 25 -9 0 -18 15 -22 38 -11 58 -65 150 -110 188 -89 73 -218 100 -319 68z
m64 -264 c11 -11 20 -33 20 -50 0 -17 -9 -39 -20 -50 -18 -18 -33 -20 -159
-20 -133 0 -141 1 -155 22 -9 12 -16 34 -16 48 0 14 7 36 16 48 14 21 22 22
155 22 126 0 141 -2 159 -20z"/>
</g>
</svg>
