<?xml version="1.0" standalone="no"?>
<!DOCTYPE svg PUBLIC "-//W3C//DTD SVG 20010904//EN"
 "http://www.w3.org/TR/2001/REC-SVG-20010904/DTD/svg10.dtd">
<svg version="1.0" xmlns="http://www.w3.org/2000/svg"
 width="192.000000pt" height="192.000000pt" viewBox="0 0 192.000000 192.000000"
 preserveAspectRatio="xMidYMid meet">
<metadata>
Created by potrace 1.16, written by Peter Selinger 2001-2019
</metadata>
<g transform="translate(0.000000,192.000000) scale(0.100000,-0.100000)"
fill="#000000" stroke="none">
811 c445 -92 729 -532 635 -987 -62 -301 -295 -546 -601 -630 -91 -26 -329
-26 -420 0 -291 80 -516 305 -596 596 -26 91 -26 329 0 420 120 433 542 692
982 601z"/>
<path d="M833 1356 c-233 -76 -350 -341 -249 -562 21 -46 22 -55 10 -71 -20
-27 -17 -80 6 -103 30 -30 68 -36 104 -16 31 16 34 16 88 -9 120 -55 269 -41
386 35 170 109 230 331 141 517 -19 39 -19 44 -5 65 18 25 21 70 6 98 -5 10
-24 23 -42 29 -26 9 -38 8 -68 -8 l-37 -19 -54 26 c-44 21 -71 26 -149 29 -61
2 -110 -2 -137 -11z m236 -222 c19 -25 21 -40 21 -195 l0 -169 -35 0 -35 0 0
65 0 65 -65 0 -65 0 0 -65 0 -65 -35 0 -35 0 0 175 c0 220 -3 215 134 215 90
0 96 -1 115 -26z"/>
<path d="M903 1093 c-9 -3 -13 -26 -13 -64 l0 -60 63 3 62 3 3 48 c2 27 -2 55
-9 63 -11 13 -79 18 -106 7z"/>
</g>
</svg>
