<?xml version="1.0" standalone="no"?>
<!DOCTYPE svg PUBLIC "-//W3C//DTD SVG 20010904//EN"
 "http://www.w3.org/TR/2001/REC-SVG-20010904/DTD/svg10.dtd">
<svg version="1.0" xmlns="http://www.w3.org/2000/svg"
 width="192.000000pt" height="192.000000pt" viewBox="0 0 192.000000 192.000000"
 preserveAspectRatio="xMidYMid meet">
<metadata>
Created by potrace 1.16, written by Peter Selinger 2001-2019
</metadata>
<g transform="translate(0.000000,192.000000) scale(0.100000,-0.100000)"
fill="#000000" stroke="none">
811 c445 -92 729 -532 635 -987 -62 -301 -295 -546 -601 -630 -91 -26 -329
-26 -420 0 -291 80 -516 305 -596 596 -26 91 -26 329 0 420 120 433 542 692
982 601z"/>
<path d="M873 1370 c-121 -26 -232 -114 -286 -227 -30 -64 -32 -75 -32 -178 0
-104 2 -114 32 -176 40 -81 121 -160 200 -197 73 -33 234 -44 268 -18 16 12
18 18 9 33 -9 15 -25 18 -100 19 -74 0 -99 5 -145 26 -79 36 -133 89 -171 166
-29 59 -33 76 -33 147 1 65 5 91 27 137 35 75 95 138 165 173 51 26 69 29 152
30 77 1 97 4 105 18 18 28 -12 47 -85 52 -35 2 -83 0 -106 -5z"/>
<path d="M1147 1303 c-17 -16 -4 -46 38 -84 24 -23 57 -67 72 -98 25 -49 28
-67 28 -151 0 -81 -4 -103 -26 -150 -14 -30 -47 -75 -73 -100 -30 -29 -46 -52
-44 -65 5 -32 42 -30 83 6 132 116 173 320 98 482 -48 102 -146 191 -176 160z"/>
<path d="M1092 1208 c-18 -18 -15 -27 24 -70 47 -53 66 -100 66 -168 0 -70
-22 -123 -68 -166 -39 -38 -42 -67 -5 -72 55 -8 131 111 139 219 6 88 -16 154
-75 219 -46 52 -61 58 -81 38z"/>
<path d="M1030 1101 c-8 -16 -5 -26 15 -49 14 -17 25 -35 25 -41 0 -18 -205
-15 -220 4 -28 34 -90 3 -90 -45 0 -48 62 -79 90 -45 10 12 36 15 116 15 57 0
104 -4 104 -9 0 -5 -11 -23 -25 -39 -29 -34 -24 -62 9 -62 46 0 86 66 86 142
0 94 -79 187 -110 129z"/>
</g>
</svg>
