<?xml version="1.0" standalone="no"?>
<!DOCTYPE svg PUBLIC "-//W3C//DTD SVG 20010904//EN"
 "http://www.w3.org/TR/2001/REC-SVG-20010904/DTD/svg10.dtd">
<svg version="1.0" xmlns="http://www.w3.org/2000/svg"
 width="192.000000pt" height="192.000000pt" viewBox="0 0 192.000000 192.000000"
 preserveAspectRatio="xMidYMid meet">
<metadata>
Created by potrace 1.16, written by Peter Selinger 2001-2019
</metadata>
<g transform="translate(0.000000,192.000000) scale(0.100000,-0.100000)"
fill="#000000" stroke="none">
811 c445 -92 729 -532 635 -987 -62 -301 -295 -546 -601 -630 -91 -26 -329
-26 -420 0 -291 80 -516 305 -596 596 -26 91 -26 329 0 420 120 433 542 692
982 601z"/>
<path d="M695 1321 c-49 -22 -79 -54 -100 -103 -12 -30 -15 -81 -15 -255 0
-243 7 -273 68 -325 34 -29 92 -51 118 -46 14 3 13 7 -6 31 -27 33 -21 42 40
56 l45 11 -42 -5 c-23 -3 -48 -8 -57 -11 -26 -10 -18 19 10 40 14 10 38 22 52
27 l27 9 -27 -4 c-22 -2 -28 1 -28 15 0 9 -3 24 -6 33 -4 11 3 19 22 26 36 14
44 26 44 71 0 47 -32 83 -69 75 -25 -6 -25 -6 -6 10 17 13 43 15 170 11 83 -2
164 -9 181 -16 37 -14 41 -26 50 -133 6 -63 4 -78 -7 -79 -8 0 -4 -4 9 -9 15
-6 22 -18 22 -36 0 -32 -22 -28 -31 7 -7 24 -7 24 -8 -3 -1 -16 -8 -28 -18
-31 -10 -2 -6 -3 10 -2 24 1 27 -2 27 -30 0 -17 -5 -36 -12 -43 -18 -18 -5
-22 36 -11 51 14 109 75 125 130 8 30 11 109 9 254 -3 240 -10 266 -87 320
l-43 30 -231 3 c-210 2 -236 0 -272 -17z m179 -110 c-7 -7 -34 28 -34 43 1 6
10 0 21 -13 11 -13 17 -27 13 -30z m162 3 c-4 -9 -9 -15 -11 -12 -3 3 -3 13 1
22 4 9 9 15 11 12 3 -3 3 -13 -1 -22z m2 -33 c20 -10 46 -28 56 -40 19 -21 19
-21 -2 -21 -15 0 -22 -6 -22 -20 0 -24 42 -70 65 -70 9 0 15 -9 15 -23 l0 -23
-72 18 c-50 13 -113 20 -200 21 -119 2 -128 3 -128 21 0 41 41 106 83 131 54
32 149 35 205 6z m-230 -243 c7 -7 12 -29 12 -50 0 -42 -25 -63 -66 -55 l-23
4 19 -27 c23 -33 24 -48 6 -72 -14 -19 -66 -25 -66 -8 0 6 5 10 10 10 6 0 -7
17 -30 38 -52 51 -55 90 -7 126 57 44 120 59 145 34z m413 -41 c45 -30 50 -72
14 -116 -15 -17 -31 -31 -35 -31 -5 0 -11 26 -15 58 -3 31 -9 69 -11 85 -7 33
3 34 47 4z"/>
<path d="M892 1138 c-33 -33 2 -88 56 -88 36 0 94 44 86 65 -12 30 -118 47
-142 23z"/>
<path d="M924 792 c-5 -27 -11 -31 -43 -35 l-36 -4 36 -1 c33 -2 36 -4 31 -27
-3 -20 -11 -25 -36 -26 -30 -2 -30 -2 -3 -6 18 -3 27 -10 27 -23 0 -23 4 -25
52 -34 36 -7 37 -6 44 30 l7 36 51 -5 c28 -3 45 -3 39 0 -7 2 -13 20 -13 38 0
18 6 35 13 38 6 3 -7 2 -30 0 -35 -5 -43 -3 -43 10 0 20 -6 23 -53 32 -35 7
-37 6 -43 -23z m146 -57 c0 -22 -4 -25 -34 -25 -30 0 -33 2 -28 25 3 20 10 25
33 25 24 0 29 -4 29 -25z"/>
</g>
</svg>
