<?xml version="1.0" standalone="no"?>
<!DOCTYPE svg PUBLIC "-//W3C//DTD SVG 20010904//EN"
 "http://www.w3.org/TR/2001/REC-SVG-20010904/DTD/svg10.dtd">
<svg version="1.0" xmlns="http://www.w3.org/2000/svg"
 width="192.000000pt" height="192.000000pt" viewBox="0 0 192.000000 192.000000"
 preserveAspectRatio="xMidYMid meet">
<metadata>
Created by potrace 1.16, written by Peter Selinger 2001-2019
</metadata>
<g transform="translate(0.000000,192.000000) scale(0.100000,-0.100000)"
fill="#000000" stroke="none">
811 c445 -92 729 -532 635 -987 -62 -301 -295 -546 -601 -630 -91 -26 -329
-26 -420 0 -291 80 -516 305 -596 596 -26 91 -26 329 0 420 120 433 542 692
982 601z"/>
<path d="M886 1315 c-67 -24 -93 -60 -223 -319 -110 -220 -124 -254 -118 -284
9 -49 30 -78 72 -97 40 -19 91 -15 128 9 14 9 60 87 113 192 l89 177 20 -34
c11 -19 55 -96 98 -172 81 -146 111 -177 168 -177 40 0 93 27 113 58 38 59 28
90 -111 337 -71 127 -145 246 -165 266 -32 33 -91 60 -130 59 -8 -1 -32 -7
-54 -15z"/>
</g>
</svg>
