<?xml version="1.0" standalone="no"?>
<!DOCTYPE svg PUBLIC "-//W3C//DTD SVG 20010904//EN"
 "http://www.w3.org/TR/2001/REC-SVG-20010904/DTD/svg10.dtd">
<svg version="1.0" xmlns="http://www.w3.org/2000/svg"
 width="192.000000pt" height="192.000000pt" viewBox="0 0 192.000000 192.000000"
 preserveAspectRatio="xMidYMid meet">
<metadata>
Created by potrace 1.16, written by Peter Selinger 2001-2019
</metadata>
<g transform="translate(0.000000,192.000000) scale(0.100000,-0.100000)"
fill="#000000" stroke="none">
811 c445 -92 729 -532 635 -987 -62 -301 -295 -546 -601 -630 -91 -26 -329
-26 -420 0 -291 80 -516 305 -596 596 -26 91 -26 329 0 420 120 433 542 692
982 601z"/>
<path d="M813 1326 c-22 -20 -56 -39 -74 -42 -53 -10 -77 -30 -85 -70 -4 -22
-24 -56 -51 -86 -41 -47 -44 -53 -37 -87 9 -40 8 -74 -2 -139 -6 -41 -4 -47
29 -80 19 -21 38 -53 42 -72 11 -55 31 -78 77 -91 25 -6 62 -28 86 -51 39 -36
47 -39 75 -32 39 9 88 9 145 -1 41 -7 46 -6 80 28 24 23 51 38 77 42 51 9 81
37 90 82 4 22 21 49 46 74 41 40 46 59 29 120 -8 28 -7 45 5 72 21 52 19 62
-21 107 -21 23 -40 57 -46 82 -12 54 -32 76 -76 84 -20 4 -55 25 -84 51 -45
39 -53 43 -81 36 -38 -9 -86 -8 -143 2 -38 7 -44 5 -81 -29z m130 -275 c45
-47 67 -77 66 -93 0 -12 -17 -70 -37 -128 -30 -84 -41 -106 -58 -108 -43 -6
-46 18 -14 119 16 52 30 100 30 108 0 8 -25 40 -55 72 -48 51 -55 61 -45 79
18 34 44 23 113 -49z"/>
</g>
</svg>
