<?xml version="1.0" standalone="no"?>
<!DOCTYPE svg PUBLIC "-//W3C//DTD SVG 20010904//EN"
 "http://www.w3.org/TR/2001/REC-SVG-20010904/DTD/svg10.dtd">
<svg version="1.0" xmlns="http://www.w3.org/2000/svg"
 width="192.000000pt" height="192.000000pt" viewBox="0 0 192.000000 192.000000"
 preserveAspectRatio="xMidYMid meet">
<metadata>
Created by potrace 1.16, written by Peter Selinger 2001-2019
</metadata>
<g transform="translate(0.000000,192.000000) scale(0.100000,-0.100000)"
fill="#000000" stroke="none">
811 c445 -92 729 -532 635 -987 -62 -301 -295 -546 -601 -630 -91 -26 -329
-26 -420 0 -291 80 -516 305 -596 596 -26 91 -26 329 0 420 120 433 542 692
982 601z"/>
<path d="M890 1303 c-44 -70 -46 -86 -16 -137 14 -25 26 -47 26 -50 0 -3 -27
-6 -60 -6 -70 0 -74 -8 -34 -76 l26 -44 -59 0 c-33 0 -63 -3 -66 -7 -4 -3 7
-30 23 -60 l30 -53 -59 0 c-33 0 -63 -5 -66 -10 -4 -6 5 -31 19 -56 14 -26 26
-50 26 -55 0 -5 -27 -9 -60 -9 -41 0 -60 -4 -60 -12 0 -19 63 -121 78 -126 6
-2 26 19 44 48 l31 51 30 -51 c16 -27 35 -50 42 -50 7 0 27 23 43 51 l30 52
16 -27 c9 -14 23 -37 31 -51 9 -14 20 -25 26 -25 5 0 24 22 41 50 17 27 32 50
34 50 1 0 15 -22 30 -50 15 -27 33 -50 40 -50 7 0 27 23 44 52 l32 52 32 -52
31 -52 78 0 c56 0 79 4 83 13 6 17 -427 737 -443 737 -7 0 -26 -21 -43 -47z
m69 -278 l20 -35 -44 0 c-25 0 -45 2 -45 5 0 14 31 65 39 65 5 0 18 -16 30
-35z m-70 -120 l20 -35 -50 0 -50 0 23 39 c12 22 26 38 29 35 4 -2 16 -20 28
-39z m147 -7 l15 -28 -46 0 -46 0 22 40 c24 42 25 42 55 -12z m-206 -150 c0
-5 -20 -8 -45 -8 -25 0 -45 3 -45 6 0 4 10 24 22 45 l22 40 23 -38 c13 -21 23
-41 23 -45z m269 46 c12 -19 21 -39 21 -45 0 -5 -20 -9 -45 -9 -25 0 -45 3
-45 6 0 7 42 84 46 84 1 0 11 -16 23 -36z m-146 -5 c24 -44 22 -49 -23 -49
-22 0 -40 4 -40 9 0 12 33 71 40 71 3 0 13 -14 23 -31z"/>
</g>
</svg>
