<?xml version="1.0" standalone="no"?>
<!DOCTYPE svg PUBLIC "-//W3C//DTD SVG 20010904//EN"
 "http://www.w3.org/TR/2001/REC-SVG-20010904/DTD/svg10.dtd">
<svg version="1.0" xmlns="http://www.w3.org/2000/svg"
 width="192.000000pt" height="192.000000pt" viewBox="0 0 192.000000 192.000000"
 preserveAspectRatio="xMidYMid meet">
<metadata>
Created by potrace 1.16, written by Peter Selinger 2001-2019
</metadata>
<g transform="translate(0.000000,192.000000) scale(0.100000,-0.100000)"
fill="#000000" stroke="none">
810 c245 -63 441 -223 549 -451 55 -116 75 -212 75 -354 0 -141 -20 -238 -75
-352 -86 -182 -215 -312 -396 -398 -116 -55 -212 -75 -354 -75 -142 0 -238 20
-354 75 -228 108 -388 304 -451 549 -28 110 -28 292 0 402 76 298 303 526 600
603 106 28 298 28 406 1z"/>
<path d="M845 1347 c-114 -38 -200 -113 -249 -217 -28 -59 -31 -74 -31 -165 0
-88 3 -107 27 -158 37 -79 78 -129 141 -170 73 -48 137 -67 226 -67 82 0 124
15 129 45 6 31 -22 44 -71 33 -87 -20 -200 10 -272 73 -51 45 -83 98 -101 171
-19 72 -13 130 20 203 33 74 79 120 154 157 55 27 77 32 137 32 129 0 236 -70
294 -194 25 -53 26 -64 31 -285 l5 -230 30 0 30 0 0 245 0 245 -33 67 c-42 86
-110 153 -192 192 -53 25 -80 31 -150 33 -52 2 -101 -2 -125 -10z"/>
<path d="M856 1220 c-68 -27 -131 -92 -157 -160 -67 -177 64 -369 252 -370 60
0 83 14 77 47 -3 15 -16 19 -74 24 -84 6 -127 28 -168 87 -22 32 -31 56 -34
99 -11 164 157 272 304 196 21 -11 53 -39 69 -62 l30 -43 5 -199 c5 -212 10
-230 53 -208 17 10 18 23 15 212 -3 224 -6 236 -77 310 -52 55 -104 79 -181
84 -48 2 -78 -2 -114 -17z"/>
<path d="M894 1101 c-104 -48 -116 -194 -22 -264 37 -27 129 -35 147 -13 24
29 6 46 -47 46 -59 0 -97 25 -107 71 -14 61 35 119 99 119 14 0 40 -13 58 -29
l33 -29 5 -149 c5 -140 6 -148 25 -148 19 0 20 8 23 151 2 142 1 152 -20 184
-50 73 -121 96 -194 61z"/>
</g>
</svg>
