<?xml version="1.0" standalone="no"?>
<!DOCTYPE svg PUBLIC "-//W3C//DTD SVG 20010904//EN"
 "http://www.w3.org/TR/2001/REC-SVG-20010904/DTD/svg10.dtd">
<svg version="1.0" xmlns="http://www.w3.org/2000/svg"
 width="192.000000pt" height="192.000000pt" viewBox="0 0 192.000000 192.000000"
 preserveAspectRatio="xMidYMid meet">
<metadata>
Created by potrace 1.16, written by Peter Selinger 2001-2019
</metadata>
<g transform="translate(0.000000,192.000000) scale(0.100000,-0.100000)"
fill="#000000" stroke="none">
811 c445 -92 729 -532 635 -987 -62 -301 -295 -546 -601 -630 -91 -26 -329
-26 -420 0 -291 80 -516 305 -596 596 -26 91 -26 329 0 420 120 433 542 692
982 601z"/>
<path d="M950 1220 c0 -5 11 -10 25 -10 13 0 35 -5 49 -11 21 -10 29 -8 52 10
l27 21 -77 0 c-44 0 -76 -4 -76 -10z"/>
<path d="M1076 1186 l-30 -23 29 -66 c30 -72 30 -70 -11 -214 l-15 -53 -45 0
-44 0 -30 68 -31 67 -157 33 c-159 33 -182 36 -182 27 0 -3 22 -35 49 -70 49
-65 49 -65 35 -104 -27 -79 23 -152 106 -153 49 0 86 22 107 67 l17 35 123 0
c117 0 123 1 123 20 0 26 23 72 45 90 24 20 31 2 7 -23 -66 -70 -13 -187 86
-187 84 0 140 78 108 153 -17 43 -54 69 -110 78 -40 6 -39 7 16 8 31 0 59 4
62 9 6 10 -202 262 -217 262 -7 0 -25 -11 -41 -24z m222 -322 c28 -20 30 -74
3 -98 -41 -37 -119 9 -105 62 8 29 18 28 32 -3 14 -31 47 -35 38 -5 -3 11 -9
29 -12 40 -8 25 12 27 44 4z m-522 -64 c39 0 47 -23 15 -40 -49 -26 -101 1
-101 52 l0 29 26 -20 c15 -12 41 -21 60 -21z"/>
<path d="M540 1081 c0 -15 24 -23 168 -55 92 -20 172 -36 179 -36 11 0 14 8
29 61 3 9 -3 24 -11 33 -14 13 -44 16 -191 16 -163 0 -174 -1 -174 -19z"/>
</g>
</svg>
