<?xml version="1.0" standalone="no"?>
<!DOCTYPE svg PUBLIC "-//W3C//DTD SVG 20010904//EN"
 "http://www.w3.org/TR/2001/REC-SVG-20010904/DTD/svg10.dtd">
<svg version="1.0" xmlns="http://www.w3.org/2000/svg"
 width="192.000000pt" height="192.000000pt" viewBox="0 0 192.000000 192.000000"
 preserveAspectRatio="xMidYMid meet">
<metadata>
Created by potrace 1.16, written by Peter Selinger 2001-2019
</metadata>
<g transform="translate(0.000000,192.000000) scale(0.100000,-0.100000)"
fill="#000000" stroke="none">
811 c445 -92 729 -532 635 -987 -62 -301 -295 -546 -601 -630 -91 -26 -329
-26 -420 0 -291 80 -516 305 -596 596 -26 91 -26 329 0 420 120 433 542 692
982 601z"/>
<path d="M1065 1333 c24 -94 10 -165 -29 -150 -13 5 -16 14 -10 42 6 33 5 35
-22 36 -98 5 -150 -10 -208 -61 -55 -49 -86 -117 -96 -215 -9 -88 -17 -112
-46 -136 -31 -25 -74 -102 -74 -132 0 -47 28 -92 73 -118 38 -22 54 -24 157
-24 110 0 118 1 182 33 92 45 177 132 225 228 31 64 37 86 37 142 0 80 -28
153 -80 203 -19 18 -34 37 -34 41 0 4 27 8 61 8 56 0 64 3 96 35 23 23 33 42
31 57 -3 21 -8 23 -70 23 -59 0 -70 -3 -95 -28 l-29 -27 -17 35 c-11 24 -23
35 -38 35 -18 0 -20 -4 -14 -27z"/>
</g>
</svg>
