<?xml version="1.0" standalone="no"?>
<!DOCTYPE svg PUBLIC "-//W3C//DTD SVG 20010904//EN"
 "http://www.w3.org/TR/2001/REC-SVG-20010904/DTD/svg10.dtd">
<svg version="1.0" xmlns="http://www.w3.org/2000/svg"
 width="192.000000pt" height="192.000000pt" viewBox="0 0 192.000000 192.000000"
 preserveAspectRatio="xMidYMid meet">
<metadata>
Created by potrace 1.16, written by Peter Selinger 2001-2019
</metadata>
<g transform="translate(0.000000,192.000000) scale(0.100000,-0.100000)"
fill="#000000" stroke="none">
811 c445 -92 729 -532 635 -987 -62 -301 -295 -546 -601 -630 -91 -26 -329
-26 -420 0 -291 80 -516 305 -596 596 -26 91 -26 329 0 420 120 433 542 692
982 601z"/>
<path d="M870 1369 c-69 -14 -150 -58 -206 -113 -200 -200 -143 -532 114 -658
63 -31 72 -33 177 -33 98 0 116 3 168 27 79 37 157 114 198 196 32 64 34 72
34 177 0 105 -2 114 -33 177 -57 117 -164 200 -290 227 -60 13 -98 13 -162 0z
m332 -176 c15 -15 28 -33 28 -40 0 -14 -6 -16 -150 -43 -130 -25 -142 -25
-138 -3 2 11 41 35 108 64 58 26 109 48 114 48 6 1 23 -11 38 -26z m-335 -130
c5 -14 -205 -172 -230 -173 -15 0 -18 7 -15 47 l3 47 105 48 c106 47 130 53
137 31z m245 -10 c38 -34 15 -93 -36 -93 -39 0 -58 19 -58 57 0 47 57 70 94
36z m-229 -115 l21 -28 -21 -27 c-25 -35 -56 -40 -82 -14 -28 28 -27 66 2 86
30 21 56 16 80 -17z m189 -55 c38 -14 68 -30 68 -34 0 -22 -102 -80 -164 -93
-75 -15 -76 -14 -50 50 9 22 22 54 30 72 16 39 29 40 116 5z m56 -124 c-11
-30 -29 -63 -39 -73 -17 -19 -19 -19 -81 4 -35 13 -67 26 -71 30 -5 4 16 11
47 14 41 6 68 17 108 46 29 21 54 37 56 36 1 -2 -8 -27 -20 -57z"/>
</g>
</svg>
