<?xml version="1.0" standalone="no"?>
<!DOCTYPE svg PUBLIC "-//W3C//DTD SVG 20010904//EN"
 "http://www.w3.org/TR/2001/REC-SVG-20010904/DTD/svg10.dtd">
<svg version="1.0" xmlns="http://www.w3.org/2000/svg"
 width="192.000000pt" height="192.000000pt" viewBox="0 0 192.000000 192.000000"
 preserveAspectRatio="xMidYMid meet">
<metadata>
Created by potrace 1.16, written by Peter Selinger 2001-2019
</metadata>
<g transform="translate(0.000000,192.000000) scale(0.100000,-0.100000)"
fill="#000000" stroke="none">
811 c445 -92 729 -532 635 -987 -62 -301 -295 -546 -601 -630 -91 -26 -329
-26 -420 0 -291 80 -516 305 -596 596 -26 91 -26 329 0 420 120 433 542 692
982 601z"/>
<path d="M862 1368 c-7 -7 -12 -20 -12 -29 0 -9 -13 -22 -30 -29 -16 -7 -35
-18 -41 -26 -19 -23 -28 -16 -31 23 -4 52 -22 52 -90 -3 l-58 -46 0 -118 c0
-96 -3 -119 -15 -124 -12 -4 -15 -25 -15 -96 0 -73 3 -90 15 -90 12 0 15 -14
15 -62 0 -35 4 -68 8 -74 10 -16 198 -144 211 -144 5 0 15 9 21 20 10 18 21
20 119 20 100 0 109 -2 114 -20 3 -11 11 -20 19 -20 14 0 198 126 210 144 4 6
8 39 8 74 0 48 3 62 15 62 12 0 15 17 15 90 0 71 -3 92 -15 96 -12 5 -15 28
-15 124 l0 118 -57 46 c-69 55 -87 55 -91 3 -2 -21 -6 -37 -10 -35 -42 19 -92
56 -92 69 0 30 -23 39 -105 39 -50 0 -86 -5 -93 -12z m2 -185 c3 -42 4 -78 1
-81 -2 -3 -28 -1 -57 4 -48 8 -53 12 -56 37 -3 22 6 38 41 73 24 24 49 44 54
44 6 0 13 -34 17 -77z m252 33 c37 -35 45 -50 42 -73 -3 -25 -8 -29 -56 -37
-29 -5 -55 -7 -57 -4 -8 8 7 158 16 158 5 0 29 -20 55 -44z m-58 -175 l102 16
0 -50 c0 -42 -5 -55 -37 -91 l-38 -43 -54 18 c-65 23 -91 23 -156 0 l-49 -17
-38 43 c-33 38 -38 51 -38 92 l0 47 103 -16 c93 -14 111 -14 205 1z m-34 -207
c54 -19 56 -38 3 -42 -50 -4 -50 -30 0 -34 26 -2 39 -8 41 -20 2 -13 -5 -17
-35 -20 -52 -4 -53 -32 0 -36 24 -2 37 -8 37 -18 0 -11 -22 -14 -115 -14 -93
0 -115 3 -115 14 0 10 13 16 38 18 52 4 51 32 -1 36 -30 3 -37 7 -35 20 2 12
15 18 41 20 50 4 50 30 0 34 -51 4 -52 23 -1 41 56 20 85 20 142 1z"/>
<path d="M793 1003 c-7 -18 30 -53 56 -53 10 0 26 6 37 14 24 18 13 30 -44 44
-37 9 -44 8 -49 -5z"/>
<path d="M1063 1007 c-23 -7 -45 -16 -50 -20 -10 -11 25 -37 49 -37 23 0 71
46 63 60 -7 12 -7 12 -62 -3z"/>
</g>
</svg>
