<?xml version="1.0" standalone="no"?>
<!DOCTYPE svg PUBLIC "-//W3C//DTD SVG 20010904//EN"
 "http://www.w3.org/TR/2001/REC-SVG-20010904/DTD/svg10.dtd">
<svg version="1.0" xmlns="http://www.w3.org/2000/svg"
 width="192.000000pt" height="192.000000pt" viewBox="0 0 192.000000 192.000000"
 preserveAspectRatio="xMidYMid meet">
<metadata>
Created by potrace 1.16, written by Peter Selinger 2001-2019
</metadata>
<g transform="translate(0.000000,192.000000) scale(0.100000,-0.100000)"
fill="#000000" stroke="none">
811 c445 -92 729 -532 635 -987 -62 -301 -295 -546 -601 -630 -91 -26 -329
-26 -420 0 -291 80 -516 305 -596 596 -26 91 -26 329 0 420 120 433 542 692
982 601z"/>
<path d="M870 1369 c-158 -31 -292 -173 -319 -337 -29 -178 70 -362 236 -440
52 -24 69 -27 168 -27 100 0 115 2 167 28 88 43 152 107 195 195 36 73 38 80
38 176 -1 129 -24 192 -100 275 -104 112 -241 158 -385 130z m334 -180 c43
-51 49 -47 -124 -79 -130 -25 -142 -25 -138 -3 3 16 194 111 225 112 6 1 23
-13 37 -30z m-339 -129 c0 -20 -212 -173 -231 -166 -11 4 -14 17 -12 48 l3 42
105 47 c107 49 135 55 135 29z m247 -7 c38 -34 12 -93 -41 -93 -34 0 -53 21
-53 55 0 51 55 74 94 38z m-246 -91 c6 -4 17 -18 24 -31 10 -20 9 -27 -7 -50
-11 -14 -29 -27 -41 -29 -25 -4 -62 30 -62 58 0 40 55 73 86 52z m206 -79 c38
-14 68 -30 68 -34 0 -22 -102 -80 -164 -93 -75 -15 -76 -14 -50 50 9 22 22 54
30 72 16 39 29 40 116 5z m56 -124 c-11 -30 -29 -63 -39 -73 -17 -19 -19 -19
-81 4 -35 13 -67 26 -71 30 -5 4 16 11 47 14 41 6 68 17 108 46 29 21 54 37
56 36 1 -2 -8 -27 -20 -57z"/>
</g>
</svg>
