<?xml version="1.0" standalone="no"?>
<!DOCTYPE svg PUBLIC "-//W3C//DTD SVG 20010904//EN"
 "http://www.w3.org/TR/2001/REC-SVG-20010904/DTD/svg10.dtd">
<svg version="1.0" xmlns="http://www.w3.org/2000/svg"
 width="192.000000pt" height="192.000000pt" viewBox="0 0 192.000000 192.000000"
 preserveAspectRatio="xMidYMid meet">
<metadata>
Created by potrace 1.16, written by Peter Selinger 2001-2019
</metadata>
<g transform="translate(0.000000,192.000000) scale(0.100000,-0.100000)"
fill="#000000" stroke="none">
811 c445 -92 729 -532 635 -987 -62 -301 -295 -546 -601 -630 -91 -26 -329
-26 -420 0 -291 80 -516 305 -596 596 -26 91 -26 329 0 420 120 433 542 692
982 601z"/>
<path d="M897 1372 c-10 -10 -17 -26 -17 -34 0 -12 -14 -18 -52 -23 -69 -9
-88 -20 -88 -50 0 -17 10 -31 30 -43 l30 -19 -43 -31 c-46 -35 -90 -86 -109
-127 -7 -17 -17 -24 -28 -20 -9 3 -25 -3 -35 -15 -15 -16 -16 -22 -4 -36 11
-14 9 -15 -25 -9 l-37 7 3 -33 c2 -27 8 -35 26 -37 22 -3 22 -5 6 -16 -21 -16
-12 -46 15 -53 14 -3 20 -17 24 -55 20 -167 200 -270 446 -255 154 9 254 66
308 175 25 51 28 68 28 157 0 89 -3 106 -28 156 -33 69 -112 151 -176 183 -26
14 -52 36 -59 50 -29 64 -130 146 -180 146 -10 0 -26 -8 -35 -18z m436 -354
c21 -43 15 -48 -105 -87 l-97 -32 -93 39 c-51 21 -94 45 -96 53 -1 8 4 23 12
34 14 20 16 19 98 -24 l83 -44 80 46 c44 25 85 46 91 46 6 1 19 -14 27 -31z
m-296 -120 c19 -9 27 -19 25 -30 -4 -20 18 -24 34 -8 8 8 19 8 38 0 36 -13 46
-13 46 4 0 12 75 46 102 46 11 0 10 -48 -2 -71 -6 -10 -20 -19 -31 -19 -19 0
-19 -3 9 -34 30 -34 59 -102 48 -113 -3 -3 -32 2 -64 11 -36 10 -96 16 -155
16 -90 0 -97 1 -97 20 0 10 14 35 31 55 l31 35 -33 -2 c-28 -3 -34 1 -42 23
-12 32 -2 79 17 79 8 0 27 -6 43 -12z m127 -234 c25 -4 46 -9 46 -13 0 -3 -18
-19 -40 -34 l-40 -28 -44 31 c-25 16 -48 35 -51 40 -7 11 58 13 129 4z"/>
</g>
</svg>
