<?xml version="1.0" standalone="no"?>
<!DOCTYPE svg PUBLIC "-//W3C//DTD SVG 20010904//EN"
 "http://www.w3.org/TR/2001/REC-SVG-20010904/DTD/svg10.dtd">
<svg version="1.0" xmlns="http://www.w3.org/2000/svg"
 width="192.000000pt" height="192.000000pt" viewBox="0 0 192.000000 192.000000"
 preserveAspectRatio="xMidYMid meet">
<metadata>
Created by potrace 1.16, written by Peter Selinger 2001-2019
</metadata>
<g transform="translate(0.000000,192.000000) scale(0.100000,-0.100000)"
fill="#000000" stroke="none">
811 c445 -92 729 -532 635 -987 -62 -301 -295 -546 -601 -630 -91 -26 -329
-26 -420 0 -291 80 -516 305 -596 596 -26 91 -26 329 0 420 120 433 542 692
982 601z"/>
<path d="M833 1366 c-135 -44 -251 -170 -282 -306 -69 -299 211 -575 504 -495
311 84 415 467 188 694 -85 84 -154 114 -273 118 -61 2 -110 -2 -137 -11z m74
-261 c3 -9 3 -18 0 -22 -11 -10 -259 -64 -273 -59 -10 4 -11 12 -2 38 19 57
21 58 150 58 98 0 120 -3 125 -15z m363 -32 c8 -23 11 -45 7 -49 -9 -10 -254
46 -275 63 -32 24 7 33 133 31 l120 -3 15 -42z m-406 -72 c25 -27 17 -72 -15
-90 -24 -13 -29 -13 -53 2 -17 12 -26 26 -26 44 0 55 59 83 94 44z m262 -6
c35 -54 -18 -116 -71 -81 -17 11 -25 25 -25 46 0 58 65 82 96 35z m-103 -151
c31 -31 55 -59 52 -64 -7 -11 -130 -33 -152 -27 -10 3 -38 11 -62 17 l-44 12
59 59 c32 32 65 59 74 59 8 0 41 -25 73 -56z m-126 -108 c50 -13 82 -11 158
10 13 4 3 -11 -30 -45 -28 -29 -58 -51 -70 -51 -12 0 -42 22 -70 50 -27 28
-47 50 -45 50 3 0 28 -6 57 -14z"/>
</g>
</svg>
