<?xml version="1.0" standalone="no"?>
<!DOCTYPE svg PUBLIC "-//W3C//DTD SVG 20010904//EN"
 "http://www.w3.org/TR/2001/REC-SVG-20010904/DTD/svg10.dtd">
<svg version="1.0" xmlns="http://www.w3.org/2000/svg"
 width="192.000000pt" height="192.000000pt" viewBox="0 0 192.000000 192.000000"
 preserveAspectRatio="xMidYMid meet">
<metadata>
Created by potrace 1.16, written by Peter Selinger 2001-2019
</metadata>
<g transform="translate(0.000000,192.000000) scale(0.100000,-0.100000)"
fill="#000000" stroke="none">
811 c445 -92 729 -532 635 -987 -62 -301 -295 -546 -601 -630 -91 -26 -329
-26 -420 0 -291 80 -516 305 -596 596 -26 91 -26 329 0 420 120 433 542 692
982 601z"/>
<path d="M539 1244 c-26 -58 -29 -146 -6 -190 9 -18 35 -47 58 -66 33 -28 40
-39 35 -56 -4 -12 -15 -22 -25 -22 -31 0 -41 -22 -41 -92 0 -56 3 -69 19 -78
11 -5 81 -10 155 -10 105 0 136 -3 136 -13 0 -20 64 -77 86 -77 22 0 84 58 84
78 0 9 36 12 133 12 169 0 177 4 177 94 0 65 -8 81 -44 87 -10 2 -22 14 -27
25 -6 18 -1 26 29 45 77 50 101 146 64 254 -13 38 -22 50 -37 50 -17 0 -21 -9
-26 -52 -8 -66 -34 -110 -80 -136 l-37 -21 -73 37 c-40 21 -77 48 -84 60 -9
20 -18 22 -85 22 -70 0 -74 -1 -80 -24 -4 -17 -17 -28 -43 -37 -21 -7 -51 -22
-66 -34 -36 -25 -48 -25 -88 0 -45 27 -65 62 -72 128 -5 43 -10 58 -24 60 -13
3 -23 -9 -38 -44z m331 -264 l0 -70 -80 0 -81 0 15 28 c22 43 105 112 133 112
9 0 13 -20 13 -70z m231 41 c39 -24 89 -83 89 -105 0 -3 -34 -6 -75 -6 l-75 0
0 70 c0 39 4 70 8 70 4 0 29 -13 53 -29z m-105 -186 c16 -40 -48 -74 -76 -40
-16 19 -5 62 18 68 21 4 51 -10 58 -28z"/>
</g>
</svg>
