<?xml version="1.0" standalone="no"?>
<!DOCTYPE svg PUBLIC "-//W3C//DTD SVG 20010904//EN"
 "http://www.w3.org/TR/2001/REC-SVG-20010904/DTD/svg10.dtd">
<svg version="1.0" xmlns="http://www.w3.org/2000/svg"
 width="192.000000pt" height="192.000000pt" viewBox="0 0 192.000000 192.000000"
 preserveAspectRatio="xMidYMid meet">
<metadata>
Created by potrace 1.16, written by Peter Selinger 2001-2019
</metadata>
<g transform="translate(0.000000,192.000000) scale(0.100000,-0.100000)"
fill="#000000" stroke="none">
811 c445 -92 729 -532 635 -987 -62 -301 -295 -546 -601 -630 -91 -26 -329
-26 -420 0 -291 80 -516 305 -596 596 -26 91 -26 329 0 420 120 433 542 692
982 601z"/>
<path d="M1103 1264 c-24 -14 -43 -27 -43 -30 0 -3 7 -15 15 -28 15 -23 15
-24 -25 -40 -36 -14 -39 -18 -30 -36 6 -11 15 -18 21 -15 5 4 9 0 9 -8 0 -22
-31 -30 -48 -13 -20 20 -6 73 24 92 24 16 31 48 16 71 -12 19 -70 -21 -86 -58
-13 -31 -13 -31 -19 -8 -4 13 -7 34 -7 47 0 12 -6 22 -12 22 -21 -1 -49 -27
-44 -41 2 -8 7 -27 10 -44 l6 -30 -37 42 c-33 36 -41 40 -62 32 -18 -7 -22
-14 -17 -34 3 -14 9 -37 12 -51 5 -17 3 -25 -3 -21 -6 4 -13 21 -17 39 -14 69
-27 108 -38 108 -9 0 -126 -49 -138 -57 -2 -2 2 -8 10 -13 8 -6 11 -10 6 -10
-5 0 -2 -8 7 -18 12 -13 18 -47 23 -127 l6 -110 -51 -30 -51 -29 22 -23 c12
-13 27 -23 33 -23 7 0 22 -25 34 -56 23 -61 26 -81 12 -86 -5 -1 -3 -11 4 -21
20 -27 67 -14 116 32 45 44 54 92 19 111 -19 10 -19 12 -3 43 l17 32 14 -72
c13 -64 17 -73 36 -73 22 0 22 2 14 67 -4 37 -6 68 -5 69 10 10 26 -20 38 -70
16 -67 36 -83 45 -38 6 28 9 30 31 21 42 -16 73 -11 73 11 0 11 -4 20 -9 20
-5 0 -21 4 -36 10 -25 9 -25 11 -9 34 13 21 19 23 35 13 21 -13 44 -70 36 -91
-3 -7 -1 -19 3 -27 14 -21 89 37 114 88 18 34 24 40 39 32 23 -13 22 -35 -3
-52 -20 -14 -20 -14 0 -32 20 -18 21 -18 50 10 38 36 40 76 5 99 -30 20 -32
41 -5 56 26 14 25 31 -1 61 l-21 24 -37 -40 c-34 -37 -42 -40 -78 -37 -25 2
-53 -2 -72 -12 -29 -15 -32 -15 -51 4 -25 25 -65 26 -112 0 -23 -12 -38 -15
-40 -8 -2 6 -16 8 -34 4 -27 -6 -30 -11 -27 -34 4 -25 3 -26 -8 -7 -16 26 -29
35 -56 35 -17 0 -24 8 -29 34 -7 40 0 56 25 56 11 0 24 -12 31 -31 10 -24 18
-29 39 -27 18 2 25 8 23 20 -2 12 6 20 24 24 25 6 26 9 19 53 l-7 46 37 -42
c41 -48 54 -53 62 -23 5 19 7 20 24 4 12 -11 30 -15 52 -12 19 2 39 -2 46 -9
26 -28 36 -14 34 44 -1 32 1 47 4 33 5 -26 19 -40 42 -40 9 0 11 7 8 21 -6 23
1 23 65 -5 l37 -16 -3 27 c-2 18 -13 31 -35 42 -30 16 -31 18 -14 33 17 15 20
14 51 -11 31 -26 32 -29 23 -74 -8 -45 -7 -47 15 -47 25 0 32 16 60 144 16 76
16 80 -1 92 -12 9 -22 10 -30 4 -7 -5 -15 -7 -18 -3 -4 3 -7 -13 -7 -37 l0
-44 -47 47 c-55 56 -86 60 -150 21z m77 -42 c0 -5 -9 -17 -20 -27 -19 -18 -20
-17 -20 2 0 11 3 23 7 26 9 10 33 9 33 -1z m-467 -117 c1 -15 -4 -30 -10 -32
-9 -3 -13 8 -13 38 0 48 19 43 23 -6z m94 -77 c-3 -8 -6 -5 -6 6 -1 11 2 17 5
13 3 -3 4 -12 1 -19z m143 -127 c0 -17 -12 -41 -21 -41 -5 0 -9 11 -9 25 0 16
6 25 15 25 8 0 15 -4 15 -9z m180 -29 c0 -16 -6 -37 -14 -47 -13 -18 -15 -17
-25 19 -12 45 -8 56 20 56 14 0 19 -7 19 -28z m-410 -20 c0 -4 -8 -18 -17 -31
-16 -23 -17 -23 -24 -5 -13 34 -10 44 16 44 14 0 25 -3 25 -8z m14 -117 c-9
-22 -34 -27 -34 -6 0 19 18 32 32 24 4 -2 5 -10 2 -18z"/>
</g>
</svg>
