<?xml version="1.0" standalone="no"?>
<!DOCTYPE svg PUBLIC "-//W3C//DTD SVG 20010904//EN"
 "http://www.w3.org/TR/2001/REC-SVG-20010904/DTD/svg10.dtd">
<svg version="1.0" xmlns="http://www.w3.org/2000/svg"
 width="192.000000pt" height="192.000000pt" viewBox="0 0 192.000000 192.000000"
 preserveAspectRatio="xMidYMid meet">
<metadata>
Created by potrace 1.16, written by Peter Selinger 2001-2019
</metadata>
<g transform="translate(0.000000,192.000000) scale(0.100000,-0.100000)"
fill="#000000" stroke="none">
811 c445 -92 729 -532 635 -987 -62 -301 -295 -546 -601 -630 -91 -26 -329
-26 -420 0 -291 80 -516 305 -596 596 -26 91 -26 329 0 420 120 433 542 692
982 601z"/>
<path d="M849 1362 c-158 -42 -271 -167 -301 -332 -30 -171 66 -352 231 -433
62 -30 72 -32 176 -32 101 0 115 2 170 29 77 38 163 124 201 201 27 55 29 69
29 170 0 104 -2 114 -32 175 -59 120 -171 206 -298 229 -76 14 -97 13 -176 -7z
m60 -256 c8 -10 8 -16 -1 -24 -18 -14 -255 -65 -273 -59 -12 5 -12 12 -3 39 6
18 18 39 26 46 23 18 236 17 251 -2z m338 6 c13 -8 33 -55 33 -78 0 -20 -27
-17 -164 15 -115 26 -145 43 -115 62 17 11 229 12 246 1z m-383 -111 c25 -27
17 -72 -15 -90 -24 -13 -29 -13 -53 2 -17 12 -26 26 -26 44 0 55 59 83 94 44z
m258 2 c24 -21 23 -58 -2 -83 -26 -26 -46 -25 -75 5 -30 29 -31 49 -5 75 24
24 57 26 82 3z m-92 -158 c29 -30 51 -57 48 -60 -3 -4 -32 -13 -63 -21 -47
-13 -67 -13 -109 -4 -97 22 -94 16 -30 81 34 34 67 59 79 59 12 0 44 -24 75
-55z m-75 -110 c22 1 58 4 80 9 l40 8 -50 -51 c-28 -29 -58 -51 -70 -51 -12 0
-42 22 -70 51 l-50 50 40 -8 c22 -4 58 -8 80 -8z"/>
</g>
</svg>
