<?xml version="1.0" standalone="no"?>
<!DOCTYPE svg PUBLIC "-//W3C//DTD SVG 20010904//EN"
 "http://www.w3.org/TR/2001/REC-SVG-20010904/DTD/svg10.dtd">
<svg version="1.0" xmlns="http://www.w3.org/2000/svg"
 width="192.000000pt" height="192.000000pt" viewBox="0 0 192.000000 192.000000"
 preserveAspectRatio="xMidYMid meet">
<metadata>
Created by potrace 1.16, written by Peter Selinger 2001-2019
</metadata>
<g transform="translate(0.000000,192.000000) scale(0.100000,-0.100000)"
fill="#000000" stroke="none">
811 c445 -92 729 -532 635 -987 -62 -301 -295 -546 -601 -630 -91 -26 -329
-26 -420 0 -291 80 -516 305 -596 596 -26 91 -26 329 0 420 120 433 542 692
982 601z"/>
<path d="M810 1393 c0 -6 23 -33 50 -60 28 -28 50 -56 50 -64 0 -8 -9 0 -19
17 -14 23 -31 34 -65 43 -76 19 -88 -2 -26 -43 35 -23 54 -56 32 -56 -11 0
-92 -81 -92 -91 0 -5 11 -11 25 -15 14 -4 24 -8 21 -11 -2 -2 -21 0 -42 6 -21
6 -40 9 -42 7 -6 -7 38 -85 68 -119 16 -19 44 -40 60 -47 17 -7 29 -15 26 -17
-11 -11 -77 30 -113 71 -24 28 -44 42 -48 36 -4 -6 -9 -35 -12 -64 -8 -74 21
-134 85 -176 62 -41 112 -54 207 -54 68 -1 89 4 138 28 90 44 136 136 119 236
l-7 43 -28 -36 c-31 -41 -71 -72 -107 -81 -18 -5 -16 -1 10 13 19 10 45 30 57
43 22 24 74 120 68 126 -7 8 -201 -52 -227 -70 -29 -20 -44 -23 -53 -8 -3 5 0
7 9 4 8 -3 27 3 43 14 15 11 65 30 110 42 82 22 82 22 67 46 -9 12 -32 35 -52
50 -20 15 -56 49 -80 75 -26 29 -67 60 -105 78 -68 34 -127 49 -127 34z m71
-300 c16 -3 34 -12 41 -21 11 -13 10 -14 -7 -4 -11 6 -42 18 -70 26 -46 14
-38 14 36 -1z m43 -79 c20 -3 36 -11 36 -18 0 -8 3 -7 8 1 4 7 28 13 52 15 53
4 65 -18 29 -51 -17 -16 -19 -21 -8 -21 41 0 -4 -122 -58 -157 -23 -15 -25
-15 -54 13 -38 36 -69 98 -58 115 4 7 5 17 3 21 -3 4 3 8 13 9 16 0 15 2 -4
16 -27 18 -34 79 -9 70 8 -3 31 -9 50 -13z"/>
<path d="M945 968 c-31 -17 -65 -50 -65 -64 0 -17 64 -37 106 -32 36 4 41 -1
22 -20 -17 -17 -78 -15 -100 5 -32 29 -20 -5 16 -44 32 -35 34 -36 57 -21 13
8 30 28 38 44 7 16 18 37 23 47 20 39 -57 106 -97 85z"/>
<path d="M1219 1308 c-15 -21 -15 -23 4 -39 20 -15 22 -15 37 4 16 19 16 21
-2 39 -22 22 -19 22 -39 -4z"/>
<path d="M645 1270 c-4 -11 -18 -26 -33 -34 l-27 -14 27 -11 c15 -5 32 -19 38
-31 13 -23 30 -27 30 -5 0 8 9 23 20 32 24 21 26 33 5 33 -9 0 -21 11 -27 25
-14 30 -24 32 -33 5z"/>
<path d="M1311 896 c-10 -12 -10 -19 3 -38 12 -17 16 -19 16 -6 0 9 6 18 13
21 9 3 8 9 -4 21 -14 15 -17 15 -28 2z"/>
<path d="M562 823 c-11 -11 -10 -16 1 -28 13 -12 17 -12 30 3 15 16 15 19 -1
28 -13 9 -21 8 -30 -3z"/>
<path d="M639 755 c-61 -19 -83 -44 -70 -79 9 -23 16 -26 58 -27 l48 0 -45
-22 c-25 -12 -47 -22 -48 -24 -9 -5 21 -73 32 -73 7 0 38 13 69 28 54 27 57
28 63 9 4 -14 12 -17 27 -13 12 3 25 6 30 6 4 0 7 9 7 20 0 15 43 50 62 50 2
0 2 -18 0 -40 -4 -35 -1 -40 16 -40 36 0 52 11 52 36 0 37 39 33 46 -4 5 -24
10 -28 30 -24 18 3 24 11 24 30 l0 25 23 -20 c28 -27 108 -54 123 -42 6 5 15
4 22 -3 9 -9 21 -8 52 1 41 12 60 34 60 71 0 19 -4 20 -35 14 -23 -4 -35 -2
-35 5 0 6 9 11 19 11 20 0 51 25 51 40 0 5 -16 6 -35 3 -23 -4 -35 -2 -35 6 0
6 11 11 24 11 27 0 56 24 56 46 0 16 -19 17 -75 4 -52 -12 -75 -41 -75 -96 0
-24 -2 -44 -5 -44 -3 0 -22 7 -42 15 l-37 16 29 24 c17 13 33 24 38 25 10 0 9
70 -2 70 -13 0 -84 -49 -102 -70 -16 -19 -17 -18 -23 10 -5 29 -8 30 -60 30
-42 0 -57 -4 -65 -17 -10 -17 -10 -17 -11 -1 0 20 -55 38 -117 38 -45 0 -47
-3 -55 -66 -3 -20 -5 -20 -38 -8 l-35 12 33 7 c28 7 33 11 30 34 -4 31 -19 34
-79 16z m201 -64 c0 -5 -7 -11 -15 -15 -9 -3 -15 0 -15 9 0 8 7 15 15 15 8 0
15 -4 15 -9z m130 -27 c0 -8 -4 -14 -10 -14 -5 0 -10 9 -10 21 0 11 5 17 10
14 6 -3 10 -13 10 -21z"/>
</g>
</svg>
