<?xml version="1.0" standalone="no"?>
<!DOCTYPE svg PUBLIC "-//W3C//DTD SVG 20010904//EN"
 "http://www.w3.org/TR/2001/REC-SVG-20010904/DTD/svg10.dtd">
<svg version="1.0" xmlns="http://www.w3.org/2000/svg"
 width="192.000000pt" height="192.000000pt" viewBox="0 0 192.000000 192.000000"
 preserveAspectRatio="xMidYMid meet">
<metadata>
Created by potrace 1.16, written by Peter Selinger 2001-2019
</metadata>
<g transform="translate(0.000000,192.000000) scale(0.100000,-0.100000)"
fill="#000000" stroke="none">
811 c445 -92 729 -532 635 -987 -62 -301 -295 -546 -601 -630 -91 -26 -329
-26 -420 0 -291 80 -516 305 -596 596 -26 91 -26 329 0 420 120 433 542 692
982 601z"/>
<path d="M931 1371 c-6 -10 -43 -37 -83 -59 -135 -74 -193 -135 -222 -231 -22
-73 -20 -151 5 -248 l20 -82 -31 -61 c-17 -34 -30 -63 -28 -64 2 -2 64 -20
138 -41 74 -21 141 -40 148 -42 9 -4 12 25 12 126 l0 131 -47 28 c-116 66
-137 137 -55 181 47 25 79 6 123 -75 22 -41 42 -74 44 -74 2 0 22 34 44 75 31
56 48 76 68 81 56 14 114 -49 96 -104 -7 -18 -31 -40 -76 -67 l-66 -40 -1
-134 c0 -102 3 -132 13 -128 6 2 71 21 142 42 72 21 133 39 137 42 4 2 -6 32
-23 66 l-32 62 16 65 c26 103 29 151 17 220 -21 118 -87 195 -225 267 -43 22
-78 47 -84 60 -13 28 -37 30 -50 4z"/>
<path d="M782 968 c-39 -39 17 -100 58 -63 23 20 26 45 8 63 -15 15 -51 15
-66 0z"/>
<path d="M1040 959 c-9 -16 -8 -26 5 -45 17 -27 27 -29 56 -14 21 12 25 50 7
68 -19 19 -56 14 -68 -9z"/>
</g>
</svg>
