<?xml version="1.0" standalone="no"?>
<!DOCTYPE svg PUBLIC "-//W3C//DTD SVG 20010904//EN"
 "http://www.w3.org/TR/2001/REC-SVG-20010904/DTD/svg10.dtd">
<svg version="1.0" xmlns="http://www.w3.org/2000/svg"
 width="192.000000pt" height="192.000000pt" viewBox="0 0 192.000000 192.000000"
 preserveAspectRatio="xMidYMid meet">
<metadata>
Created by potrace 1.16, written by Peter Selinger 2001-2019
</metadata>
<g transform="translate(0.000000,192.000000) scale(0.100000,-0.100000)"
fill="#000000" stroke="none">
811 c445 -92 729 -532 635 -987 -62 -301 -295 -546 -601 -630 -91 -26 -329
-26 -420 0 -291 80 -516 305 -596 596 -26 91 -26 329 0 420 120 433 542 692
982 601z"/>
<path d="M860 1342 c-139 -75 -236 -139 -257 -171 -22 -32 -23 -44 -23 -202 0
-179 4 -200 43 -239 33 -33 259 -161 307 -174 35 -9 46 -6 112 27 40 20 113
60 162 90 124 74 126 78 126 290 0 186 -5 208 -62 250 -18 13 -82 52 -143 87
-138 80 -182 87 -265 42z m168 -197 c54 -30 103 -59 111 -64 7 -5 17 -33 22
-62 10 -61 -7 -99 -43 -99 -21 0 -210 100 -236 124 -7 7 -16 38 -19 69 -11
105 25 112 165 32z m-101 -201 c54 -31 104 -63 111 -72 6 -9 12 -39 12 -68 0
-54 -17 -84 -47 -84 -27 0 -235 124 -243 145 -4 11 -10 39 -14 62 -5 36 -3 46
15 64 27 27 44 22 166 -47z"/>
</g>
</svg>
