<?xml version="1.0" standalone="no"?>
<!DOCTYPE svg PUBLIC "-//W3C//DTD SVG 20010904//EN"
 "http://www.w3.org/TR/2001/REC-SVG-20010904/DTD/svg10.dtd">
<svg version="1.0" xmlns="http://www.w3.org/2000/svg"
 width="192.000000pt" height="192.000000pt" viewBox="0 0 192.000000 192.000000"
 preserveAspectRatio="xMidYMid meet">
<metadata>
Created by potrace 1.16, written by Peter Selinger 2001-2019
</metadata>
<g transform="translate(0.000000,192.000000) scale(0.100000,-0.100000)"
fill="#000000" stroke="none">
811 c445 -92 729 -532 635 -987 -62 -301 -295 -546 -601 -630 -91 -26 -329
-26 -420 0 -291 80 -516 305 -596 596 -26 91 -26 329 0 420 120 433 542 692
982 601z"/>
<path d="M695 1321 c-49 -22 -91 -69 -105 -119 -7 -23 -10 -117 -8 -258 l3
-221 28 -41 c15 -23 46 -52 70 -64 40 -22 52 -23 272 -23 220 0 232 1 272 23
24 12 55 41 70 64 l28 41 3 221 c4 239 -1 275 -45 327 -53 62 -83 69 -328 69
-192 0 -225 -3 -260 -19z m338 -175 c39 -17 92 -71 106 -109 47 -123 -53 -267
-184 -267 -131 0 -231 144 -184 267 14 37 66 92 104 109 39 17 117 18 158 0z"/>
<path d="M888 1074 c-36 -19 -58 -63 -58 -114 0 -32 7 -48 34 -78 32 -34 38
-37 91 -37 53 0 59 3 91 37 27 30 34 46 34 78 0 80 -49 130 -127 130 -21 -1
-50 -7 -65 -16z"/>
</g>
</svg>
