<?xml version="1.0" standalone="no"?>
<!DOCTYPE svg PUBLIC "-//W3C//DTD SVG 20010904//EN"
 "http://www.w3.org/TR/2001/REC-SVG-20010904/DTD/svg10.dtd">
<svg version="1.0" xmlns="http://www.w3.org/2000/svg"
 width="192.000000pt" height="192.000000pt" viewBox="0 0 192.000000 192.000000"
 preserveAspectRatio="xMidYMid meet">
<metadata>
Created by potrace 1.16, written by Peter Selinger 2001-2019
</metadata>
<g transform="translate(0.000000,192.000000) scale(0.100000,-0.100000)"
fill="#000000" stroke="none">
811 c445 -92 729 -532 635 -987 -62 -301 -295 -546 -601 -630 -91 -26 -329
-26 -420 0 -291 80 -516 305 -596 596 -26 91 -26 329 0 420 120 433 542 692
982 601z"/>
<path d="M697 1346 c-51 -19 -85 -52 -98 -95 -6 -23 -9 -138 -7 -308 3 -258 4
-273 24 -300 46 -61 72 -68 259 -68 161 0 172 1 208 23 53 34 70 72 75 175 2
48 2 87 -2 87 -3 0 -25 -13 -47 -30 -23 -16 -46 -27 -51 -23 -10 5 -5 72 7
104 4 11 -7 25 -35 44 -62 43 -51 65 34 65 41 0 42 1 60 50 10 28 22 50 27 50
5 0 9 -58 9 -130 l0 -130 40 -26 c58 -38 72 -29 55 37 -15 57 -17 54 43 95 43
31 19 54 -56 54 -26 0 -35 5 -43 27 -6 15 -16 41 -24 58 -7 16 -15 56 -18 88
-6 67 -32 114 -79 142 -29 17 -53 20 -188 23 -114 1 -165 -2 -193 -12z m287
-122 c3 -9 4 -20 0 -25 -7 -12 -271 -12 -278 0 -4 5 -3 16 0 25 9 24 269 24
278 0z m-156 -111 c3 -22 0 -23 -57 -23 -61 0 -77 9 -67 36 4 11 19 14 63 12
51 -3 58 -6 61 -25z m157 2 c0 -18 -8 -20 -62 -23 -56 -3 -63 -1 -63 16 0 29
10 33 70 30 47 -3 55 -6 55 -23z m-70 -100 c0 -18 -8 -20 -99 -23 -101 -3
-124 4 -113 33 6 13 23 15 109 13 95 -3 103 -4 103 -23z m70 -100 c0 -19 -8
-20 -134 -23 -136 -3 -159 3 -148 33 6 13 26 15 144 13 130 -3 138 -4 138 -23z
m-157 -97 c-3 -20 -10 -23 -57 -26 -57 -3 -78 7 -68 32 5 12 21 16 67 16 58 0
61 -1 58 -22z m157 -3 c0 -18 -7 -20 -60 -20 -55 0 -60 2 -63 23 -3 22 -1 23
60 20 55 -3 63 -5 63 -23z m-69 -87 c15 -24 -29 -38 -117 -38 -70 0 -88 3 -93
16 -3 9 -4 20 0 25 8 14 201 11 210 -3z"/>
</g>
</svg>
