<?xml version="1.0" standalone="no"?>
<!DOCTYPE svg PUBLIC "-//W3C//DTD SVG 20010904//EN"
 "http://www.w3.org/TR/2001/REC-SVG-20010904/DTD/svg10.dtd">
<svg version="1.0" xmlns="http://www.w3.org/2000/svg"
 width="192.000000pt" height="192.000000pt" viewBox="0 0 192.000000 192.000000"
 preserveAspectRatio="xMidYMid meet">
<metadata>
Created by potrace 1.16, written by Peter Selinger 2001-2019
</metadata>
<g transform="translate(0.000000,192.000000) scale(0.100000,-0.100000)"
fill="#000000" stroke="none">
811 c445 -92 729 -532 635 -987 -62 -301 -295 -546 -601 -630 -91 -26 -329
-26 -420 0 -291 80 -516 305 -596 596 -26 91 -26 329 0 420 120 433 542 692
982 601z"/>
<path d="M698 1153 c-14 -16 -55 -81 -92 -146 -77 -138 -83 -172 -37 -218 l29
-29 160 0 c180 0 194 5 232 81 11 21 24 39 29 39 5 0 21 -20 35 -45 32 -54 61
-75 101 -75 42 0 68 30 149 173 79 141 85 179 35 221 -57 48 -114 27 -160 -58
-13 -25 -26 -46 -29 -46 -3 0 -16 21 -29 46 -45 84 -103 106 -158 60 -16 -14
-38 -43 -48 -65 -10 -23 -21 -41 -25 -41 -4 0 -15 18 -25 40 -41 92 -114 119
-167 63z"/>
</g>
</svg>
