<?xml version="1.0" standalone="no"?>
<!DOCTYPE svg PUBLIC "-//W3C//DTD SVG 20010904//EN"
 "http://www.w3.org/TR/2001/REC-SVG-20010904/DTD/svg10.dtd">
<svg version="1.0" xmlns="http://www.w3.org/2000/svg"
 width="192.000000pt" height="192.000000pt" viewBox="0 0 192.000000 192.000000"
 preserveAspectRatio="xMidYMid meet">
<metadata>
Created by potrace 1.16, written by Peter Selinger 2001-2019
</metadata>
<g transform="translate(0.000000,192.000000) scale(0.100000,-0.100000)"
fill="#000000" stroke="none">
811 c445 -92 729 -532 635 -987 -62 -301 -295 -546 -601 -630 -91 -26 -329
-26 -420 0 -291 80 -516 305 -596 596 -26 91 -26 329 0 420 120 433 542 692
982 601z"/>
<path d="M829 1352 c-198 -66 -317 -270 -275 -471 33 -156 146 -276 296 -316
25 -6 51 -10 58 -8 9 4 12 46 12 167 0 150 -2 164 -20 181 -29 26 -27 85 3
113 76 71 185 -41 112 -114 -24 -24 -25 -28 -25 -177 0 -96 4 -157 11 -164 29
-29 183 42 253 117 158 168 151 417 -15 575 -82 78 -151 107 -264 112 -68 2
-104 -1 -146 -15z m-103 -256 c3 -8 -5 -29 -18 -46 -33 -45 -33 -132 0 -178
42 -58 5 -87 -41 -32 -31 36 -49 113 -38 162 18 79 80 139 97 94z m535 -22
c45 -74 40 -185 -11 -239 -50 -53 -73 -22 -35 47 32 59 31 122 -4 169 -28 38
-27 59 3 59 17 0 31 -11 47 -36z m-445 -29 c4 -8 -1 -26 -10 -40 -20 -31 -20
-50 1 -85 13 -23 14 -32 4 -44 -28 -33 -71 23 -71 92 0 62 59 121 76 77z m343
-11 c25 -32 28 -92 6 -133 -18 -35 -40 -45 -56 -25 -9 12 -8 21 6 48 18 33 18
36 1 74 -28 62 3 87 43 36z"/>
</g>
</svg>
