<?xml version="1.0" standalone="no"?>
<!DOCTYPE svg PUBLIC "-//W3C//DTD SVG 20010904//EN"
 "http://www.w3.org/TR/2001/REC-SVG-20010904/DTD/svg10.dtd">
<svg version="1.0" xmlns="http://www.w3.org/2000/svg"
 width="192.000000pt" height="192.000000pt" viewBox="0 0 192.000000 192.000000"
 preserveAspectRatio="xMidYMid meet">
<metadata>
Created by potrace 1.16, written by Peter Selinger 2001-2019
</metadata>
<g transform="translate(0.000000,192.000000) scale(0.100000,-0.100000)"
fill="#000000" stroke="none">
811 c445 -92 729 -532 635 -987 -62 -301 -295 -546 -601 -630 -91 -26 -329
-26 -420 0 -291 80 -516 305 -596 596 -26 91 -26 329 0 420 120 433 542 692
982 601z"/>
<path d="M893 1355 c-3 -9 2 -24 11 -34 24 -26 20 -39 -16 -46 -18 -4 -57 -20
-86 -35 -53 -28 -70 -26 -64 11 4 24 -23 42 -45 31 -65 -35 -80 -102 -24 -102
40 0 43 -8 16 -48 -13 -19 -30 -57 -36 -84 -14 -52 -22 -57 -51 -31 -15 13
-23 15 -36 7 -22 -14 -29 -96 -9 -113 15 -12 47 -5 47 10 0 5 9 9 19 9 14 0
21 -9 26 -32 4 -18 18 -54 32 -80 28 -51 25 -68 -13 -68 -39 0 -41 -27 -3 -66
39 -41 72 -42 77 -4 6 39 18 44 51 21 17 -12 53 -27 81 -34 51 -12 68 -38 34
-51 -9 -3 -14 -15 -12 -28 3 -20 10 -23 54 -26 35 -2 55 2 63 11 12 15 5 47
-10 47 -5 0 -9 9 -9 20 0 14 7 20 23 20 12 0 47 12 77 27 70 34 74 34 80 -2 8
-44 40 -45 78 -1 36 42 33 66 -8 66 -39 0 -45 15 -22 48 11 15 28 51 37 80 18
55 28 61 55 37 25 -22 48 -8 56 32 12 61 -25 106 -56 68 -22 -26 -39 -16 -50
28 -7 23 -22 61 -35 83 -26 44 -24 54 10 54 13 0 28 7 36 16 11 13 7 21 -27
55 -45 45 -74 45 -74 0 0 -40 -8 -43 -54 -16 -22 13 -60 28 -83 35 -46 12 -52
23 -28 50 9 10 13 25 9 34 -9 22 -112 23 -121 1z m11 -221 c30 -30 13 -74 -29
-74 -60 0 -59 88 2 90 6 0 19 -7 27 -16z m160 0 c19 -18 20 -28 6 -55 -20 -37
-80 -18 -80 26 0 42 44 59 74 29z m-236 -136 c36 -36 -11 -93 -57 -69 -23 13
-28 50 -9 69 15 15 51 15 66 0z m162 -3 c31 -38 -27 -96 -65 -65 -18 15 -20
51 -3 68 17 17 53 15 68 -3z m162 -10 c9 -21 8 -28 -7 -45 -33 -37 -75 -19
-75 31 0 29 10 37 48 38 15 1 26 -8 34 -24z m-248 -121 c22 -22 20 -50 -5 -68
-22 -15 -48 -11 -61 8 -32 46 27 99 66 60z m154 0 c43 -30 4 -93 -45 -73 -29
11 -32 63 -5 78 23 14 24 14 50 -5z"/>
</g>
</svg>
