<?xml version="1.0" standalone="no"?>
<!DOCTYPE svg PUBLIC "-//W3C//DTD SVG 20010904//EN"
 "http://www.w3.org/TR/2001/REC-SVG-20010904/DTD/svg10.dtd">
<svg version="1.0" xmlns="http://www.w3.org/2000/svg"
 width="192.000000pt" height="192.000000pt" viewBox="0 0 192.000000 192.000000"
 preserveAspectRatio="xMidYMid meet">
<metadata>
Created by potrace 1.16, written by Peter Selinger 2001-2019
</metadata>
<g transform="translate(0.000000,192.000000) scale(0.100000,-0.100000)"
fill="#000000" stroke="none">
811 c445 -92 729 -532 635 -987 -62 -301 -295 -546 -601 -630 -91 -26 -329
-26 -420 0 -291 80 -516 305 -596 596 -26 91 -26 329 0 420 120 433 542 692
982 601z"/>
<path d="M835 1357 c-118 -40 -207 -117 -258 -224 -26 -56 -32 -83 -34 -153
-4 -99 8 -135 47 -135 25 0 25 0 25 100 0 87 4 107 27 156 14 32 45 76 68 99
l43 43 19 -26 c11 -15 46 -41 79 -58 33 -18 64 -40 69 -49 5 -10 23 -20 40
-23 21 -5 30 -12 30 -25 0 -11 11 -31 25 -46 33 -36 52 -73 61 -121 4 -22 13
-50 21 -61 12 -19 12 -24 -2 -38 -24 -23 -56 -20 -120 14 -63 33 -99 37 -149
16 -66 -28 -99 -103 -77 -178 18 -60 74 -83 207 -83 96 0 103 2 176 38 169 83
262 257 230 428 -25 134 -106 240 -228 300 -60 30 -78 34 -163 36 -60 2 -111
-2 -136 -10z"/>
<path d="M1001 930 c-16 -9 -6 -30 15 -30 15 0 20 25 6 34 -4 2 -14 1 -21 -4z"/>
</g>
</svg>
