<?xml version="1.0" standalone="no"?>
<!DOCTYPE svg PUBLIC "-//W3C//DTD SVG 20010904//EN"
 "http://www.w3.org/TR/2001/REC-SVG-20010904/DTD/svg10.dtd">
<svg version="1.0" xmlns="http://www.w3.org/2000/svg"
 width="192.000000pt" height="192.000000pt" viewBox="0 0 192.000000 192.000000"
 preserveAspectRatio="xMidYMid meet">
<metadata>
Created by potrace 1.16, written by Peter Selinger 2001-2019
</metadata>
<g transform="translate(0.000000,192.000000) scale(0.100000,-0.100000)"
fill="#000000" stroke="none">
811 c445 -92 729 -532 635 -987 -62 -301 -295 -546 -601 -630 -91 -26 -329
-26 -420 0 -291 80 -516 305 -596 596 -26 91 -26 329 0 420 120 433 542 692
982 601z"/>
<path d="M963 1333 c-27 -77 -55 -123 -74 -123 -4 0 -16 16 -28 35 -12 21 -28
35 -40 35 -28 0 -69 -58 -84 -119 -12 -53 -25 -62 -51 -36 -20 20 -29 19 -54
-8 -35 -37 -71 -128 -78 -197 -10 -100 28 -227 86 -288 20 -22 23 -22 46 -8
13 9 37 16 53 16 25 0 30 -4 33 -27 3 -27 5 -28 76 -31 l72 -3 6 31 c7 34 44
44 44 11 0 -32 24 -42 92 -39 60 3 63 4 66 31 3 25 7 27 47 27 24 0 47 -4 50
-10 13 -21 35 -8 66 37 107 155 84 375 -54 526 -40 42 -49 45 -77 17 -25 -25
-30 -25 -30 -2 0 10 -12 36 -26 58 -45 70 -126 108 -141 67z m-119 -385 c11
-16 16 -46 16 -98 l0 -75 95 0 c108 0 104 -6 59 92 -13 28 -24 58 -24 65 0 22
22 38 51 38 56 0 76 -53 64 -164 -6 -58 -4 -65 13 -70 10 -4 30 -19 45 -34
l26 -27 -230 0 c-126 0 -229 3 -229 6 0 3 18 18 40 35 46 33 46 49 4 143 -24
53 -30 91 -17 104 16 16 72 6 87 -15z"/>
</g>
</svg>
