<?xml version="1.0" standalone="no"?>
<!DOCTYPE svg PUBLIC "-//W3C//DTD SVG 20010904//EN"
 "http://www.w3.org/TR/2001/REC-SVG-20010904/DTD/svg10.dtd">
<svg version="1.0" xmlns="http://www.w3.org/2000/svg"
 width="192.000000pt" height="192.000000pt" viewBox="0 0 192.000000 192.000000"
 preserveAspectRatio="xMidYMid meet">
<metadata>
Created by potrace 1.16, written by Peter Selinger 2001-2019
</metadata>
<g transform="translate(0.000000,192.000000) scale(0.100000,-0.100000)"
fill="#000000" stroke="none">
811 c445 -92 729 -532 635 -987 -62 -301 -295 -546 -601 -630 -91 -26 -329
-26 -420 0 -291 80 -516 305 -596 596 -26 91 -26 329 0 420 120 433 542 692
982 601z"/>
<path d="M964 1333 c-15 -49 -39 -94 -57 -110 -19 -17 -20 -17 -31 1 -32 53
-43 61 -69 49 -27 -13 -77 -103 -77 -140 0 -28 -25 -31 -52 -6 -17 15 -19 15
-38 -2 -11 -10 -33 -44 -49 -77 -55 -109 -51 -243 12 -361 47 -89 54 -90 137
-6 l70 72 -11 41 c-6 22 -20 58 -30 78 -34 67 -23 98 36 98 39 0 55 -35 55
-120 l0 -75 95 0 c108 0 104 -6 59 91 -30 64 -30 82 0 95 68 31 103 -24 92
-145 l-6 -71 30 -18 c16 -10 47 -38 67 -63 21 -24 43 -44 50 -44 6 0 23 15 37
33 72 94 95 242 56 357 -23 70 -62 136 -109 188 -35 37 -44 39 -71 12 -26 -26
-26 -26 -34 11 -9 44 -94 129 -130 129 -17 0 -29 -7 -32 -17z"/>
<path d="M830 635 c-22 -27 0 -50 46 -50 37 0 39 2 39 30 0 27 -3 30 -36 33
-24 2 -40 -2 -49 -13z"/>
<path d="M1022 641 c-8 -4 -12 -19 -10 -32 3 -21 9 -24 42 -24 46 0 68 23 47
49 -14 17 -58 21 -79 7z"/>
</g>
</svg>
