<?xml version="1.0" standalone="no"?>
<!DOCTYPE svg PUBLIC "-//W3C//DTD SVG 20010904//EN"
 "http://www.w3.org/TR/2001/REC-SVG-20010904/DTD/svg10.dtd">
<svg version="1.0" xmlns="http://www.w3.org/2000/svg"
 width="192.000000pt" height="192.000000pt" viewBox="0 0 192.000000 192.000000"
 preserveAspectRatio="xMidYMid meet">
<metadata>
Created by potrace 1.16, written by Peter Selinger 2001-2019
</metadata>
<g transform="translate(0.000000,192.000000) scale(0.100000,-0.100000)"
fill="#000000" stroke="none">
811 c445 -92 729 -532 635 -987 -62 -301 -295 -546 -601 -630 -91 -26 -329
-26 -420 0 -291 80 -516 305 -596 596 -26 91 -26 329 0 420 120 433 542 692
982 601z"/>
<path d="M675 1341 c-142 -64 -149 -262 -12 -333 34 -17 64 -22 155 -26 l112
-5 0 122 c0 160 -22 208 -113 246 -48 20 -93 19 -142 -4z"/>
<path d="M1085 1341 c-46 -20 -91 -69 -103 -109 -4 -15 -7 -76 -7 -137 l0
-110 115 1 c129 0 156 9 208 69 38 43 46 69 40 140 -10 125 -138 198 -253 146z"/>
<path d="M725 941 c-99 -17 -160 -85 -160 -180 0 -196 257 -263 345 -90 17 32
20 59 20 159 l0 120 -82 -1 c-46 -1 -101 -5 -123 -8z"/>
<path d="M988 944 c-16 -5 -18 -19 -18 -102 0 -114 11 -160 47 -203 106 -125
308 -64 321 96 6 71 -2 97 -40 140 -48 56 -79 67 -192 71 -56 2 -109 1 -118
-2z"/>
</g>
</svg>
