<?xml version="1.0" standalone="no"?>
<!DOCTYPE svg PUBLIC "-//W3C//DTD SVG 20010904//EN"
 "http://www.w3.org/TR/2001/REC-SVG-20010904/DTD/svg10.dtd">
<svg version="1.0" xmlns="http://www.w3.org/2000/svg"
 width="192.000000pt" height="192.000000pt" viewBox="0 0 192.000000 192.000000"
 preserveAspectRatio="xMidYMid meet">
<metadata>
Created by potrace 1.16, written by Peter Selinger 2001-2019
</metadata>
<g transform="translate(0.000000,192.000000) scale(0.100000,-0.100000)"
fill="#000000" stroke="none">
811 c445 -92 729 -532 635 -987 -62 -301 -295 -546 -601 -630 -91 -26 -329
-26 -420 0 -291 80 -516 305 -596 596 -26 91 -26 329 0 420 120 433 542 692
982 601z"/>
<path d="M815 1280 c-30 -13 -282 -272 -290 -297 -10 -36 16 -71 153 -205 174
-173 159 -174 343 10 187 185 187 169 2 354 -137 136 -167 156 -208 138z m123
-223 l92 -92 -93 -93 -92 -92 -95 95 -95 95 90 90 c49 49 92 90 95 90 3 0 47
-42 98 -93z"/>
<path d="M1054 1265 c-19 -19 -23 -31 -18 -47 4 -13 51 -71 105 -131 55 -60
99 -114 99 -120 0 -7 -45 -63 -100 -126 -103 -118 -116 -144 -82 -174 41 -37
64 -24 174 101 144 163 158 181 158 203 0 10 -50 74 -111 141 -177 196 -180
198 -225 153z"/>
</g>
</svg>
