<?xml version="1.0" standalone="no"?>
<!DOCTYPE svg PUBLIC "-//W3C//DTD SVG 20010904//EN"
 "http://www.w3.org/TR/2001/REC-SVG-20010904/DTD/svg10.dtd">
<svg version="1.0" xmlns="http://www.w3.org/2000/svg"
 width="192.000000pt" height="192.000000pt" viewBox="0 0 192.000000 192.000000"
 preserveAspectRatio="xMidYMid meet">
<metadata>
Created by potrace 1.16, written by Peter Selinger 2001-2019
</metadata>
<g transform="translate(0.000000,192.000000) scale(0.100000,-0.100000)"
fill="#000000" stroke="none">
811 c445 -92 729 -532 635 -987 -62 -301 -295 -546 -601 -630 -91 -26 -329
-26 -420 0 -291 80 -516 305 -596 596 -26 91 -26 329 0 420 120 433 542 692
982 601z"/>
<path d="M652 1288 c-9 -9 -12 -95 -12 -324 0 -264 2 -313 15 -324 12 -10 43
-9 155 4 131 16 150 16 287 0 141 -16 147 -16 160 2 19 26 19 612 0 638 -13
18 -19 18 -159 2 -132 -15 -156 -15 -274 -1 -156 18 -157 18 -172 3z m459
-198 c39 -21 23 -52 -78 -146 -108 -100 -130 -115 -155 -105 -16 5 -108 106
-108 117 0 3 5 14 10 25 15 27 42 24 75 -11 16 -16 35 -30 43 -30 8 0 52 36
99 80 47 44 88 80 90 80 2 0 13 -5 24 -10z"/>
<path d="M555 1198 c-3 -7 -4 -117 -3 -243 3 -222 4 -230 23 -230 19 0 20 7
20 240 0 221 -1 240 -18 243 -9 2 -19 -3 -22 -10z"/>
<path d="M1312 1198 c-9 -9 -12 -72 -12 -234 0 -184 3 -224 15 -234 8 -7 22
-10 30 -6 23 8 18 479 -5 484 -9 1 -21 -3 -28 -10z"/>
</g>
</svg>
