<?xml version="1.0" standalone="no"?>
<!DOCTYPE svg PUBLIC "-//W3C//DTD SVG 20010904//EN"
 "http://www.w3.org/TR/2001/REC-SVG-20010904/DTD/svg10.dtd">
<svg version="1.0" xmlns="http://www.w3.org/2000/svg"
 width="192.000000pt" height="192.000000pt" viewBox="0 0 192.000000 192.000000"
 preserveAspectRatio="xMidYMid meet">
<metadata>
Created by potrace 1.16, written by Peter Selinger 2001-2019
</metadata>
<g transform="translate(0.000000,192.000000) scale(0.100000,-0.100000)"
fill="#000000" stroke="none">
811 c445 -92 729 -532 635 -987 -62 -301 -295 -546 -601 -630 -91 -26 -329
-26 -420 0 -291 80 -516 305 -596 596 -26 91 -26 329 0 420 120 433 542 692
982 601z"/>
<path d="M892 1344 c-12 -8 -22 -19 -22 -24 0 -4 -68 -156 -151 -337 -83 -180
-153 -339 -156 -353 -3 -18 2 -31 16 -44 21 -19 23 -19 114 16 111 44 546 225
567 237 8 4 15 14 15 22 0 11 -38 14 -207 17 l-207 2 31 73 c16 39 33 76 38
80 4 5 23 -20 42 -55 l35 -63 72 -3 c99 -4 108 5 74 71 -39 79 -173 308 -200
345 -28 37 -31 38 -61 16z"/>
<path d="M1173 764 c-35 -15 -53 -30 -53 -41 0 -20 66 -134 84 -145 17 -11
105 -9 127 2 29 16 23 53 -22 135 -47 85 -53 88 -136 49z"/>
</g>
</svg>
