<?xml version="1.0" standalone="no"?>
<!DOCTYPE svg PUBLIC "-//W3C//DTD SVG 20010904//EN"
 "http://www.w3.org/TR/2001/REC-SVG-20010904/DTD/svg10.dtd">
<svg version="1.0" xmlns="http://www.w3.org/2000/svg"
 width="192.000000pt" height="192.000000pt" viewBox="0 0 192.000000 192.000000"
 preserveAspectRatio="xMidYMid meet">
<metadata>
Created by potrace 1.16, written by Peter Selinger 2001-2019
</metadata>
<g transform="translate(0.000000,192.000000) scale(0.100000,-0.100000)"
fill="#000000" stroke="none">
811 c445 -92 729 -532 635 -987 -62 -301 -295 -546 -601 -630 -91 -26 -329
-26 -420 0 -291 80 -516 305 -596 596 -26 91 -26 329 0 420 120 433 542 692
982 601z"/>
<path d="M596 1213 c-3 -16 -8 -59 -11 -98 -4 -38 -11 -97 -17 -130 -6 -33
-11 -79 -12 -102 -2 -41 -1 -43 26 -43 24 0 30 5 35 30 3 20 12 30 23 30 12 0
21 -10 25 -30 5 -23 12 -30 31 -30 20 0 24 5 24 33 0 17 -5 59 -10 92 -6 33
-13 101 -15 150 -7 122 -9 125 -55 125 -34 0 -39 -3 -44 -27z m54 -160 c0 -27
3 -58 6 -70 5 -19 2 -23 -16 -23 -21 0 -22 3 -16 38 3 20 6 52 6 70 0 17 5 32
10 32 6 0 10 -21 10 -47z"/>
<path d="M776 1228 c-2 -7 -7 -21 -10 -30 -3 -10 -1 -20 4 -23 6 -4 10 -77 10
-171 l0 -164 30 0 c30 0 30 0 30 58 l0 57 32 1 c49 2 58 24 58 141 0 128 -10
143 -95 143 -36 0 -57 -4 -59 -12z m84 -128 c0 -57 -4 -80 -12 -80 -10 0 -12
21 -10 80 2 44 8 80 13 80 5 0 9 -36 9 -80z"/>
<path d="M986 1218 c-9 -35 -8 -38 18 -38 14 0 31 -7 39 -14 13 -13 17 -13 33
-1 11 8 27 15 37 15 12 0 17 8 17 30 l0 30 -69 0 c-63 0 -69 -2 -75 -22z"/>
<path d="M1186 1223 c-4 -9 3 -54 15 -99 l22 -83 -22 -85 c-28 -112 -27 -116
9 -116 30 0 36 11 52 95 3 12 10 -3 18 -37 13 -57 14 -58 47 -58 28 0 33 3 29
18 -3 9 -14 54 -25 98 -19 81 -19 83 0 165 11 46 22 92 25 102 4 14 -1 17 -29
17 -33 0 -34 -1 -47 -57 l-13 -58 -15 58 c-12 49 -18 57 -37 57 -13 0 -26 -8
-29 -17z"/>
<path d="M1013 1121 c-22 -18 -23 -27 -23 -150 l0 -131 70 0 70 0 0 30 c0 28
-2 30 -40 30 l-40 0 0 55 c0 55 0 55 30 55 28 0 30 3 27 28 -3 21 -10 28 -30
30 -23 3 -27 8 -27 38 0 39 -6 41 -37 15z"/>
<path d="M752 748 c-2 -46 1 -58 13 -58 8 0 15 5 15 10 0 6 -4 10 -9 10 -6 0
-12 21 -14 48 -3 46 -3 46 -5 -10z"/>
<path d="M807 793 c-14 -14 -7 -94 8 -100 21 -7 33 6 15 17 -11 7 -11 11 -1
24 9 11 10 16 2 16 -6 0 -11 7 -11 15 0 8 5 15 11 15 5 0 7 5 4 10 -7 12 -19
13 -28 3z"/>
<path d="M877 794 c-4 -4 -7 -29 -7 -56 0 -42 3 -49 18 -46 23 4 30 58 8 58
-9 0 -16 7 -16 15 0 9 6 12 16 8 11 -4 15 -2 12 7 -5 16 -21 23 -31 14z"/>
<path d="M937 793 c-14 -14 -7 -94 8 -100 19 -7 34 5 20 15 -14 10 -17 72 -4
72 6 0 7 5 4 10 -7 12 -19 13 -28 3z"/>
<path d="M1064 787 c-3 -8 -4 -32 -2 -53 2 -28 8 -40 21 -42 16 -3 18 3 15 49
-3 51 -22 77 -34 46z m23 -59 c-2 -13 -4 -5 -4 17 -1 22 1 32 4 23 2 -10 2
-28 0 -40z"/>
<path d="M1137 793 c-11 -10 -8 -51 4 -59 8 -4 7 -9 -2 -15 -11 -6 -11 -11 -2
-20 6 -6 16 -8 22 -5 15 10 14 53 -1 59 -10 4 -10 8 1 15 7 5 10 15 7 21 -8
12 -19 14 -29 4z"/>
<path d="M990 746 c0 -25 5 -48 10 -51 6 -3 10 2 10 11 0 16 1 16 15 -2 13
-17 14 -15 15 34 0 48 -12 69 -23 40 -4 -10 -6 -10 -6 0 -1 6 -5 12 -11 12 -5
0 -10 -20 -10 -44z"/>
<path d="M554 765 c-14 -35 3 -45 74 -45 77 0 106 16 82 45 -9 11 -32 15 -82
15 -52 0 -70 -4 -74 -15z"/>
<path d="M1204 765 c-14 -35 3 -45 74 -45 50 0 73 4 82 15 24 29 -5 45 -82 45
-52 0 -70 -4 -74 -15z"/>
</g>
</svg>
