<?xml version="1.0" standalone="no"?>
<!DOCTYPE svg PUBLIC "-//W3C//DTD SVG 20010904//EN"
 "http://www.w3.org/TR/2001/REC-SVG-20010904/DTD/svg10.dtd">
<svg version="1.0" xmlns="http://www.w3.org/2000/svg"
 width="192.000000pt" height="192.000000pt" viewBox="0 0 192.000000 192.000000"
 preserveAspectRatio="xMidYMid meet">
<metadata>
Created by potrace 1.16, written by Peter Selinger 2001-2019
</metadata>
<g transform="translate(0.000000,192.000000) scale(0.100000,-0.100000)"
fill="#000000" stroke="none">
811 c445 -92 729 -532 635 -987 -62 -301 -295 -546 -601 -630 -91 -26 -329
-26 -420 0 -291 80 -516 305 -596 596 -26 91 -26 329 0 420 120 433 542 692
982 601z"/>
<path d="M740 1024 c-107 -185 -196 -339 -198 -343 -3 -8 123 -111 136 -111 5
0 58 34 118 75 125 86 137 108 62 113 -27 2 -48 5 -48 8 0 10 142 255 146 251
2 -2 35 -59 74 -128 l70 -124 -53 -5 c-37 -4 -52 -9 -52 -20 0 -14 210 -169
231 -170 19 0 133 94 133 110 0 8 -87 164 -192 345 -141 241 -198 331 -212
333 -17 2 -53 -54 -215 -334z"/>
</g>
</svg>
