<?xml version="1.0" standalone="no"?>
<!DOCTYPE svg PUBLIC "-//W3C//DTD SVG 20010904//EN"
 "http://www.w3.org/TR/2001/REC-SVG-20010904/DTD/svg10.dtd">
<svg version="1.0" xmlns="http://www.w3.org/2000/svg"
 width="192.000000pt" height="192.000000pt" viewBox="0 0 192.000000 192.000000"
 preserveAspectRatio="xMidYMid meet">
<metadata>
Created by potrace 1.16, written by Peter Selinger 2001-2019
</metadata>
<g transform="translate(0.000000,192.000000) scale(0.100000,-0.100000)"
fill="#000000" stroke="none">
811 c445 -92 729 -532 635 -987 -62 -301 -295 -546 -601 -630 -91 -26 -329
-26 -420 0 -291 80 -516 305 -596 596 -26 91 -26 329 0 420 120 433 542 692
982 601z"/>
<path d="M597 1208 c-3 -18 -9 -64 -12 -103 -3 -38 -11 -95 -17 -125 -6 -30
-11 -74 -12 -98 -1 -39 1 -42 26 -42 21 0 28 6 33 30 5 21 13 30 26 30 14 0
21 -9 26 -30 4 -23 11 -30 29 -30 28 0 30 19 13 115 -5 33 -12 98 -14 144 -6
133 -10 141 -55 141 -35 0 -38 -2 -43 -32z m56 -175 c5 -68 5 -73 -14 -73 -19
0 -20 5 -14 63 12 112 20 115 28 10z"/>
<path d="M778 1233 c-2 -5 -2 -95 0 -200 l4 -193 29 0 c29 0 29 0 29 60 l0 60
35 0 c47 0 55 19 55 139 0 125 -10 141 -94 141 -30 0 -56 -3 -58 -7z m82 -139
c0 -53 -4 -84 -10 -82 -5 2 -10 6 -10 11 0 4 0 41 0 82 0 43 4 75 10 75 6 0
10 -35 10 -86z"/>
<path d="M986 1218 c-9 -36 -8 -38 29 -38 26 0 35 -4 35 -16 0 -15 2 -15 25 0
13 9 32 16 40 16 12 0 15 8 13 28 -3 26 -5 27 -69 30 -62 3 -67 1 -73 -20z"/>
<path d="M1184 1216 c-3 -13 -1 -32 4 -43 5 -10 15 -45 21 -78 11 -54 10 -70
-8 -149 -12 -48 -21 -92 -21 -97 0 -5 13 -9 30 -9 24 0 31 5 36 28 3 15 9 41
14 57 l7 30 12 -45 c7 -25 14 -51 16 -57 2 -7 18 -13 35 -13 25 0 30 3 26 18
-3 9 -14 54 -26 99 l-20 83 24 96 c20 77 22 96 11 101 -32 12 -50 -3 -62 -51
-7 -27 -14 -50 -16 -52 -2 -2 -9 21 -16 51 -11 48 -15 55 -37 55 -17 0 -25 -7
-30 -24z"/>
<path d="M1012 1117 c-20 -21 -22 -34 -22 -150 l0 -127 70 0 70 0 0 30 c0 28
-2 30 -40 30 l-40 0 0 55 c0 55 0 55 31 55 28 0 31 3 25 23 -3 12 -6 25 -6 30
0 4 -11 7 -25 7 -22 0 -25 4 -25 35 0 41 -8 44 -38 12z"/>
<path d="M752 743 c-2 -41 1 -53 13 -53 8 0 15 5 15 10 0 6 -4 10 -9 10 -6 0
-12 19 -14 43 -3 40 -4 40 -5 -10z"/>
<path d="M810 740 c0 -38 4 -50 15 -50 8 0 15 5 15 10 0 6 -4 10 -9 10 -13 0
-11 63 3 72 7 5 4 8 -6 8 -15 0 -18 -9 -18 -50z"/>
<path d="M870 739 c0 -43 3 -50 18 -47 23 4 30 58 8 58 -9 0 -16 7 -16 15 0 9
6 12 15 9 8 -4 15 -1 15 5 0 6 -9 11 -20 11 -17 0 -20 -7 -20 -51z m17 -21
c-3 -8 -6 -5 -6 6 -1 11 2 17 5 13 3 -3 4 -12 1 -19z"/>
<path d="M930 746 c0 -47 14 -66 33 -47 8 8 8 11 0 11 -15 0 -14 63 1 72 6 5
1 8 -11 8 -20 0 -23 -5 -23 -44z"/>
<path d="M990 746 c0 -46 19 -76 21 -34 1 17 3 18 6 6 9 -34 23 -17 23 27 0
43 -12 60 -23 33 -4 -10 -6 -10 -6 0 -1 6 -5 12 -11 12 -5 0 -10 -20 -10 -44z"/>
<path d="M1062 743 c2 -36 7 -49 21 -51 14 -3 17 4 17 47 0 45 -3 51 -21 51
-18 0 -20 -5 -17 -47z m25 -15 c-2 -13 -4 -5 -4 17 -1 22 1 32 4 23 2 -10 2
-28 0 -40z"/>
<path d="M1130 766 c0 -13 6 -27 13 -29 9 -4 8 -8 -3 -16 -11 -8 -12 -13 -3
-22 6 -6 16 -8 22 -5 15 10 14 53 -1 60 -10 5 -10 7 0 12 19 9 14 24 -8 24
-14 0 -20 -7 -20 -24z"/>
<path d="M554 765 c-14 -35 3 -45 74 -45 74 0 97 12 81 42 -8 15 -22 18 -80
18 -53 0 -71 -4 -75 -15z"/>
<path d="M1204 765 c-14 -35 3 -45 74 -45 50 0 73 4 82 15 24 29 -5 45 -82 45
-52 0 -70 -4 -74 -15z"/>
</g>
</svg>
