<?xml version="1.0" standalone="no"?>
<!DOCTYPE svg PUBLIC "-//W3C//DTD SVG 20010904//EN"
 "http://www.w3.org/TR/2001/REC-SVG-20010904/DTD/svg10.dtd">
<svg version="1.0" xmlns="http://www.w3.org/2000/svg"
 width="192.000000pt" height="192.000000pt" viewBox="0 0 192.000000 192.000000"
 preserveAspectRatio="xMidYMid meet">
<metadata>
Created by potrace 1.16, written by Peter Selinger 2001-2019
</metadata>
<g transform="translate(0.000000,192.000000) scale(0.100000,-0.100000)"
fill="#000000" stroke="none">
811 c445 -92 729 -532 635 -987 -62 -301 -295 -546 -601 -630 -91 -26 -329
-26 -420 0 -291 80 -516 305 -596 596 -26 91 -26 329 0 420 120 433 542 692
982 601z"/>
<path d="M738 1143 c-109 -109 -201 -205 -204 -215 -9 -28 14 -58 43 -58 21 0
64 37 205 177 l178 178 178 -178 c175 -175 201 -194 230 -165 26 26 11 54 -68
133 l-80 80 0 77 c0 66 -3 79 -19 88 -11 5 -24 10 -30 10 -19 0 -41 -32 -41
-58 0 -24 -6 -20 -78 51 -43 42 -86 77 -97 77 -11 0 -97 -78 -217 -197z"/>
<path d="M682 908 c-17 -17 -17 -289 0 -306 9 -9 84 -12 275 -12 l263 0 16 24
c13 21 15 49 12 156 -3 139 -7 150 -55 150 -34 0 -43 -29 -43 -139 l0 -101
-50 0 -50 0 0 93 c0 124 -4 129 -100 125 l-75 -3 -5 -105 -5 -105 -50 0 -50 0
-3 104 c-1 58 -8 111 -14 118 -13 16 -50 17 -66 1z"/>
</g>
</svg>
