<?xml version="1.0" standalone="no"?>
<!DOCTYPE svg PUBLIC "-//W3C//DTD SVG 20010904//EN"
 "http://www.w3.org/TR/2001/REC-SVG-20010904/DTD/svg10.dtd">
<svg version="1.0" xmlns="http://www.w3.org/2000/svg"
 width="192.000000pt" height="192.000000pt" viewBox="0 0 192.000000 192.000000"
 preserveAspectRatio="xMidYMid meet">
<metadata>
Created by potrace 1.16, written by Peter Selinger 2001-2019
</metadata>
<g transform="translate(0.000000,192.000000) scale(0.100000,-0.100000)"
fill="#000000" stroke="none">
811 c445 -92 729 -532 635 -987 -62 -301 -295 -546 -601 -630 -91 -26 -329
-26 -420 0 -291 80 -516 305 -596 596 -26 91 -26 329 0 420 120 433 542 692
982 601z"/>
<path d="M872 1369 c-151 -29 -277 -150 -318 -303 -49 -185 46 -385 224 -469
63 -30 74 -32 177 -32 104 0 114 2 176 32 80 39 160 121 195 197 140 305 -125
640 -454 575z m197 -203 c8 -9 11 -74 9 -212 l-3 -199 -35 0 -35 0 -3 83 -3
82 -44 0 -44 0 -3 -82 -3 -83 -31 -3 c-53 -5 -56 7 -52 218 2 156 6 192 18
200 25 16 216 12 229 -4z"/>
<path d="M910 1056 l0 -46 46 0 45 0 -3 43 c-3 42 -3 42 -45 45 l-43 3 0 -45z"/>
</g>
</svg>
