<?xml version="1.0" standalone="no"?>
<!DOCTYPE svg PUBLIC "-//W3C//DTD SVG 20010904//EN"
 "http://www.w3.org/TR/2001/REC-SVG-20010904/DTD/svg10.dtd">
<svg version="1.0" xmlns="http://www.w3.org/2000/svg"
 width="192.000000pt" height="192.000000pt" viewBox="0 0 192.000000 192.000000"
 preserveAspectRatio="xMidYMid meet">
<metadata>
Created by potrace 1.16, written by Peter Selinger 2001-2019
</metadata>
<g transform="translate(0.000000,192.000000) scale(0.100000,-0.100000)"
fill="#000000" stroke="none">
811 c445 -92 729 -532 635 -987 -62 -301 -295 -546 -601 -630 -91 -26 -329
-26 -420 0 -291 80 -516 305 -596 596 -26 91 -26 329 0 420 120 433 542 692
982 601z"/>
<path d="M843 1336 c-23 -7 -62 -25 -86 -40 -44 -25 -45 -25 -62 -6 -20 22
-55 26 -73 8 -17 -17 -15 -39 8 -63 l20 -21 -37 -73 -38 -74 -4 -154 c-2 -101
1 -169 9 -198 13 -47 68 -107 113 -124 38 -15 486 -15 524 0 40 15 82 57 104
104 15 33 19 65 19 181 0 153 -12 215 -57 292 l-25 44 21 22 c24 25 27 46 9
64 -18 18 -53 15 -72 -7 -17 -18 -19 -18 -87 17 -61 32 -79 36 -157 39 -55 2
-103 -2 -129 -11z m19 -221 c8 -19 8 -28 -2 -40 -28 -34 -86 -6 -72 35 13 37
58 40 74 5z m252 3 c19 -27 5 -58 -27 -58 -41 0 -62 41 -35 68 18 18 45 14 62
-10z"/>
</g>
</svg>
