<?xml version="1.0" standalone="no"?>
<!DOCTYPE svg PUBLIC "-//W3C//DTD SVG 20010904//EN"
 "http://www.w3.org/TR/2001/REC-SVG-20010904/DTD/svg10.dtd">
<svg version="1.0" xmlns="http://www.w3.org/2000/svg"
 width="192.000000pt" height="192.000000pt" viewBox="0 0 192.000000 192.000000"
 preserveAspectRatio="xMidYMid meet">
<metadata>
Created by potrace 1.16, written by Peter Selinger 2001-2019
</metadata>
<g transform="translate(0.000000,192.000000) scale(0.100000,-0.100000)"
fill="#000000" stroke="none">
811 c445 -92 729 -532 635 -987 -62 -301 -295 -546 -601 -630 -91 -26 -329
-26 -420 0 -291 80 -516 305 -596 596 -26 91 -26 329 0 420 120 433 542 692
982 601z"/>
<path d="M760 1359 c0 -7 10 -27 21 -46 l22 -34 -31 -32 c-35 -36 -75 -118
-63 -130 4 -4 117 -6 252 -5 l244 3 -3 25 c-4 31 -43 99 -71 124 l-21 19 20
32 c11 18 20 37 20 44 0 18 -28 13 -35 -6 -3 -10 -12 -26 -19 -36 -12 -16 -16
-16 -49 -2 -47 19 -137 19 -184 0 -33 -14 -37 -14 -49 2 -7 10 -16 26 -19 36
-7 19 -35 24 -35 6z m97 -145 c8 -21 -13 -42 -28 -27 -13 13 -5 43 11 43 6 0
13 -7 17 -16z m230 0 c8 -21 -13 -42 -28 -27 -13 13 -5 43 11 43 6 0 13 -7 17
-16z"/>
<path d="M700 896 c0 -180 1 -185 22 -200 12 -9 35 -16 50 -16 26 0 28 -3 28
-41 0 -49 15 -79 38 -79 30 0 42 21 42 72 l0 48 74 0 75 0 3 -51 c6 -96 70
-96 76 0 3 49 4 51 31 51 16 0 38 8 50 18 21 16 22 23 19 197 l-3 180 -252 3
-253 2 0 -184z"/>
<path d="M600 1041 c-5 -11 -10 -47 -10 -80 0 -48 4 -65 20 -81 16 -16 25 -18
40 -10 17 9 20 21 20 88 0 47 -5 83 -12 90 -18 18 -46 14 -58 -7z"/>
<path d="M1252 1048 c-7 -7 -12 -43 -12 -90 0 -67 3 -79 20 -88 15 -8 24 -6
40 10 16 16 20 33 20 81 0 33 -5 69 -10 80 -12 21 -40 25 -58 7z"/>
</g>
</svg>
