<?xml version="1.0" standalone="no"?>
<!DOCTYPE svg PUBLIC "-//W3C//DTD SVG 20010904//EN"
 "http://www.w3.org/TR/2001/REC-SVG-20010904/DTD/svg10.dtd">
<svg version="1.0" xmlns="http://www.w3.org/2000/svg"
 width="192.000000pt" height="192.000000pt" viewBox="0 0 192.000000 192.000000"
 preserveAspectRatio="xMidYMid meet">
<metadata>
Created by potrace 1.16, written by Peter Selinger 2001-2019
</metadata>
<g transform="translate(0.000000,192.000000) scale(0.100000,-0.100000)"
fill="#000000" stroke="none">
811 c445 -92 729 -532 635 -987 -62 -301 -295 -546 -601 -630 -91 -26 -329
-26 -420 0 -291 80 -516 305 -596 596 -26 91 -26 329 0 420 120 433 542 692
982 601z"/>
<path d="M1149 1335 l-35 -36 -45 20 c-58 27 -168 28 -224 2 l-40 -18 -33 29
c-35 30 -61 35 -80 16 -19 -19 -14 -40 19 -74 l31 -32 -20 -29 c-27 -39 -44
-100 -40 -148 l3 -40 267 -3 c255 -2 268 -1 277 17 14 25 -1 106 -29 162 l-22
41 31 39 c33 41 38 58 19 77 -20 20 -42 14 -79 -23z m-265 -191 c9 -8 16 -22
16 -29 0 -7 -7 -21 -16 -29 -8 -9 -22 -16 -29 -16 -7 0 -21 7 -29 16 -9 8 -16
22 -16 29 0 7 7 21 16 29 8 9 22 16 29 16 7 0 21 -7 29 -16z m216 2 c28 -35
-11 -93 -47 -70 -36 22 -23 84 17 84 10 0 23 -7 30 -14z"/>
<path d="M562 998 c-8 -8 -12 -48 -12 -114 0 -95 2 -104 22 -118 29 -20 34
-20 58 4 17 17 20 33 20 113 0 78 -3 97 -18 110 -22 20 -53 22 -70 5z"/>
<path d="M1282 998 c-19 -19 -16 -212 4 -232 19 -20 35 -20 60 -2 16 12 19 29
22 103 2 58 -2 96 -10 113 -15 28 -56 38 -76 18z"/>
<path d="M692 968 c-15 -15 -16 -158 -2 -210 26 -92 120 -173 221 -190 186
-32 329 109 329 323 0 92 9 89 -284 89 -183 0 -255 -3 -264 -12z"/>
</g>
</svg>
