<?xml version="1.0" standalone="no"?>
<!DOCTYPE svg PUBLIC "-//W3C//DTD SVG 20010904//EN"
 "http://www.w3.org/TR/2001/REC-SVG-20010904/DTD/svg10.dtd">
<svg version="1.0" xmlns="http://www.w3.org/2000/svg"
 width="192.000000pt" height="192.000000pt" viewBox="0 0 192.000000 192.000000"
 preserveAspectRatio="xMidYMid meet">
<metadata>
Created by potrace 1.16, written by Peter Selinger 2001-2019
</metadata>
<g transform="translate(0.000000,192.000000) scale(0.100000,-0.100000)"
fill="#000000" stroke="none">
811 c445 -92 729 -532 635 -987 -62 -301 -295 -546 -601 -630 -91 -26 -329
-26 -420 0 -291 80 -516 305 -596 596 -26 91 -26 329 0 420 120 433 542 692
982 601z"/>
<path d="M742 1232 c-9 -9 -59 -126 -111 -259 -91 -236 -93 -243 -77 -268 20
-30 65 -34 88 -7 8 9 23 38 33 65 l18 47 84 0 84 0 26 -60 c27 -62 50 -79 91
-66 22 7 27 18 93 191 28 71 54 134 58 138 4 4 34 -61 66 -145 32 -84 65 -161
73 -170 23 -27 68 -23 88 7 16 25 14 32 -77 268 -52 133 -102 250 -111 259
-21 21 -48 23 -70 6 -9 -7 -45 -86 -79 -176 -34 -89 -63 -161 -65 -159 -2 2
-31 75 -64 163 -34 87 -69 165 -78 172 -22 17 -49 15 -70 -6z m58 -258 c11
-25 20 -48 20 -50 0 -2 -18 -4 -40 -4 -22 0 -40 3 -40 7 0 11 32 93 37 93 2 0
13 -21 23 -46z"/>
</g>
</svg>
