<?xml version="1.0" standalone="no"?>
<!DOCTYPE svg PUBLIC "-//W3C//DTD SVG 20010904//EN"
 "http://www.w3.org/TR/2001/REC-SVG-20010904/DTD/svg10.dtd">
<svg version="1.0" xmlns="http://www.w3.org/2000/svg"
 width="192.000000pt" height="192.000000pt" viewBox="0 0 192.000000 192.000000"
 preserveAspectRatio="xMidYMid meet">
<metadata>
Created by potrace 1.16, written by Peter Selinger 2001-2019
</metadata>
<g transform="translate(0.000000,192.000000) scale(0.100000,-0.100000)"
fill="#000000" stroke="none">
811 c445 -92 729 -532 635 -987 -62 -301 -295 -546 -601 -630 -91 -26 -329
-26 -420 0 -291 80 -516 305 -596 596 -26 91 -26 329 0 420 120 433 542 692
982 601z"/>
<path d="M846 1383 c-21 -22 -306 -620 -306 -644 0 -33 89 -189 108 -189 7 0
34 45 59 100 l46 100 207 0 206 0 53 116 53 115 -93 192 c-50 106 -96 198
-102 205 -10 13 -218 18 -231 5z m164 -323 c27 -55 50 -102 50 -105 0 -3 -45
-5 -101 -5 -55 0 -99 4 -97 8 11 30 93 202 95 202 2 0 25 -45 53 -100z"/>
<path d="M1190 707 c0 -25 69 -157 83 -157 13 0 97 137 97 159 0 7 -30 11 -90
11 -66 0 -90 -3 -90 -13z"/>
</g>
</svg>
