<?xml version="1.0" standalone="no"?>
<!DOCTYPE svg PUBLIC "-//W3C//DTD SVG 20010904//EN"
 "http://www.w3.org/TR/2001/REC-SVG-20010904/DTD/svg10.dtd">
<svg version="1.0" xmlns="http://www.w3.org/2000/svg"
 width="192.000000pt" height="192.000000pt" viewBox="0 0 192.000000 192.000000"
 preserveAspectRatio="xMidYMid meet">
<metadata>
Created by potrace 1.16, written by Peter Selinger 2001-2019
</metadata>
<g transform="translate(0.000000,192.000000) scale(0.100000,-0.100000)"
fill="#000000" stroke="none">
811 c445 -92 729 -532 635 -987 -62 -301 -295 -546 -601 -630 -91 -26 -329
-26 -420 0 -291 80 -516 305 -596 596 -26 91 -26 329 0 420 120 433 542 692
982 601z"/>
<path d="M603 1258 c-10 -13 -63 -148 -63 -161 0 -17 38 -5 43 13 4 15 14 20
40 20 26 0 36 -5 40 -20 6 -25 37 -27 37 -2 -1 9 -13 48 -28 87 -27 69 -49 89
-69 63z m36 -85 c1 -7 -8 -13 -19 -13 -23 0 -24 1 -8 35 11 24 13 25 19 8 4
-10 8 -24 8 -30z"/>
<path d="M1010 1180 c0 -73 3 -90 15 -90 12 0 15 17 15 90 0 73 -3 90 -15 90
-12 0 -15 -17 -15 -90z"/>
<path d="M1070 1180 c0 -73 3 -90 15 -90 12 0 15 17 15 90 0 73 -3 90 -15 90
-12 0 -15 -17 -15 -90z"/>
<path d="M720 1103 c0 -94 3 -113 15 -113 12 0 15 13 15 55 0 52 1 55 19 45
28 -14 38 -13 61 10 25 25 26 81 3 103 -12 10 -35 15 -65 15 l-48 -1 0 -114z
m93 65 c7 -26 -8 -58 -28 -58 -20 0 -38 36 -30 60 9 28 51 27 58 -2z"/>
<path d="M880 1200 c-27 -27 -25 -66 5 -95 31 -32 59 -32 92 1 45 45 15 114
-49 114 -15 0 -37 -9 -48 -20z m76 -25 c4 -8 3 -27 0 -41 -5 -19 -12 -25 -29
-22 -22 3 -34 35 -23 64 7 19 45 18 52 -1z"/>
<path d="M1136 1201 c-12 -13 -16 -32 -14 -57 7 -88 128 -78 128 10 0 19 -8
40 -18 49 -25 23 -75 21 -96 -2z m78 -33 c6 -25 -9 -58 -27 -58 -35 0 -48 47
-22 74 19 19 41 11 49 -16z"/>
<path d="M787 1032 c-14 -16 -17 -45 -17 -191 0 -191 1 -192 63 -166 29 12 83
15 270 15 168 0 236 3 245 12 8 8 12 60 12 170 0 145 -1 158 -19 168 -12 6
-119 10 -279 10 -238 0 -260 -1 -275 -18z m373 -167 c0 -83 -4 -135 -10 -135
-6 0 -10 52 -10 135 0 83 4 135 10 135 6 0 10 -52 10 -135z m-242 89 c15 -11
22 -25 22 -49 0 -30 -6 -39 -42 -62 l-43 -28 35 -3 c55 -4 64 -10 50 -27 -13
-16 -125 -22 -133 -7 -10 15 19 62 53 84 43 29 53 68 18 68 -13 0 -29 -9 -36
-20 -14 -24 -32 -18 -32 10 0 22 36 50 65 50 11 0 31 -7 43 -16z m156 0 c9 -9
16 -32 16 -56 0 -26 6 -45 16 -53 14 -10 13 -15 -15 -46 -31 -33 -32 -33 -37
-11 -4 14 -14 22 -28 22 -42 0 -66 12 -66 32 0 22 63 113 83 121 7 3 13 6 14
6 1 1 9 -6 17 -15z m240 10 c22 -8 21 -14 -19 -80 -19 -32 -35 -65 -35 -75 0
-25 -25 -42 -38 -27 -13 16 7 78 38 120 l21 28 -46 0 c-43 0 -58 14 -38 33 8
9 96 9 117 1z"/>
<path d="M1022 890 c-28 -37 -28 -40 3 -40 22 0 25 4 25 35 0 19 -1 35 -3 35
-2 0 -13 -13 -25 -30z"/>
</g>
</svg>
