<?xml version="1.0" standalone="no"?>
<!DOCTYPE svg PUBLIC "-//W3C//DTD SVG 20010904//EN"
 "http://www.w3.org/TR/2001/REC-SVG-20010904/DTD/svg10.dtd">
<svg version="1.0" xmlns="http://www.w3.org/2000/svg"
 width="192.000000pt" height="192.000000pt" viewBox="0 0 192.000000 192.000000"
 preserveAspectRatio="xMidYMid meet">
<metadata>
Created by potrace 1.16, written by Peter Selinger 2001-2019
</metadata>
<g transform="translate(0.000000,192.000000) scale(0.100000,-0.100000)"
fill="#000000" stroke="none">
811 c445 -92 729 -532 635 -987 -62 -301 -295 -546 -601 -630 -91 -26 -329
-26 -420 0 -291 80 -516 305 -596 596 -26 91 -26 329 0 420 120 433 542 692
982 601z"/>
<path d="M1083 1219 c-13 -5 -40 -43 -70 -98 -26 -50 -51 -91 -55 -91 -3 0
-25 35 -48 78 -24 42 -49 85 -58 95 -21 24 -64 21 -89 -5 -33 -37 -233 -407
-233 -432 0 -48 25 -56 177 -56 123 0 142 2 156 18 21 23 22 51 1 80 -13 19
-24 22 -90 22 -41 0 -74 2 -74 5 0 14 103 195 109 190 3 -4 42 -72 86 -153 53
-98 89 -151 105 -159 17 -9 76 -13 183 -13 154 0 158 1 182 25 14 13 25 31 25
40 0 19 -225 428 -243 442 -21 17 -41 21 -64 12z m82 -293 c25 -46 45 -86 45
-90 0 -3 -34 -6 -75 -6 -72 0 -75 1 -89 29 -14 27 -13 32 20 95 20 36 40 64
44 61 5 -3 30 -43 55 -89z"/>
</g>
</svg>
