<?xml version="1.0" standalone="no"?>
<!DOCTYPE svg PUBLIC "-//W3C//DTD SVG 20010904//EN"
 "http://www.w3.org/TR/2001/REC-SVG-20010904/DTD/svg10.dtd">
<svg version="1.0" xmlns="http://www.w3.org/2000/svg"
 width="192.000000pt" height="192.000000pt" viewBox="0 0 192.000000 192.000000"
 preserveAspectRatio="xMidYMid meet">
<metadata>
Created by potrace 1.16, written by Peter Selinger 2001-2019
</metadata>
<g transform="translate(0.000000,192.000000) scale(0.100000,-0.100000)"
fill="#000000" stroke="none">
811 c445 -92 729 -532 635 -987 -62 -301 -295 -546 -601 -630 -91 -26 -329
-26 -420 0 -291 80 -516 305 -596 596 -26 91 -26 329 0 420 120 433 542 692
982 601z"/>
<path d="M853 1365 c-80 -22 -131 -52 -190 -111 -200 -200 -141 -536 116 -658
61 -29 74 -31 176 -31 104 0 114 2 176 32 80 40 159 120 197 200 24 52 27 69
27 168 0 102 -2 115 -31 176 -85 179 -285 274 -471 224z m200 -125 c117 -44
189 -146 190 -268 2 -167 -128 -297 -295 -295 -113 0 -203 58 -260 166 -33 61
-32 184 1 247 73 141 223 203 364 150z"/>
<path d="M865 1132 c-40 -25 -83 -77 -91 -108 -4 -14 -4 -49 -2 -79 8 -101 96
-173 199 -163 168 16 228 231 94 334 -50 38 -153 46 -200 16z"/>
</g>
</svg>
