<?xml version="1.0" standalone="no"?>
<!DOCTYPE svg PUBLIC "-//W3C//DTD SVG 20010904//EN"
 "http://www.w3.org/TR/2001/REC-SVG-20010904/DTD/svg10.dtd">
<svg version="1.0" xmlns="http://www.w3.org/2000/svg"
 width="192.000000pt" height="192.000000pt" viewBox="0 0 192.000000 192.000000"
 preserveAspectRatio="xMidYMid meet">
<metadata>
Created by potrace 1.16, written by Peter Selinger 2001-2019
</metadata>
<g transform="translate(0.000000,192.000000) scale(0.100000,-0.100000)"
fill="#000000" stroke="none">
811 c445 -92 729 -532 635 -987 -62 -301 -295 -546 -601 -630 -91 -26 -329
-26 -420 0 -291 80 -516 305 -596 596 -26 91 -26 329 0 420 120 433 542 692
982 601z"/>
<path d="M923 1370 c-35 -8 -254 -131 -291 -164 -47 -42 -52 -64 -52 -241 0
-231 -9 -217 215 -346 150 -87 170 -87 320 0 224 129 215 115 215 346 0 223 3
217 -193 330 -125 72 -164 85 -214 75z m116 -236 c104 -58 101 -52 101 -170
l0 -103 -32 -24 c-60 -45 -125 -77 -153 -77 -28 0 -93 32 -152 77 l-33 24 0
103 c0 86 3 105 18 118 30 26 146 88 166 88 11 0 49 -16 85 -36z"/>
<path d="M888 1065 c-45 -30 -58 -52 -58 -99 0 -57 15 -80 71 -110 l53 -29 54
28 c57 30 72 53 72 111 0 47 -14 70 -60 99 -49 31 -84 31 -132 0z"/>
</g>
</svg>
