<?xml version="1.0" standalone="no"?>
<!DOCTYPE svg PUBLIC "-//W3C//DTD SVG 20010904//EN"
 "http://www.w3.org/TR/2001/REC-SVG-20010904/DTD/svg10.dtd">
<svg version="1.0" xmlns="http://www.w3.org/2000/svg"
 width="192.000000pt" height="192.000000pt" viewBox="0 0 192.000000 192.000000"
 preserveAspectRatio="xMidYMid meet">
<metadata>
Created by potrace 1.16, written by Peter Selinger 2001-2019
</metadata>
<g transform="translate(0.000000,192.000000) scale(0.100000,-0.100000)"
fill="#000000" stroke="none">
811 c445 -92 729 -532 635 -987 -62 -301 -295 -546 -601 -630 -91 -26 -329
-26 -420 0 -291 80 -516 305 -596 596 -26 91 -26 329 0 420 120 433 542 692
982 601z"/>
<path d="M873 1370 c-118 -24 -233 -115 -287 -229 -29 -61 -31 -74 -31 -176 0
-104 2 -114 32 -176 79 -160 258 -256 427 -229 179 29 315 163 346 342 48 276
-208 523 -487 468z m-85 -350 c32 -30 30 -82 -4 -109 -31 -24 -43 -26 -78 -10
-46 21 -51 94 -9 127 25 18 66 15 91 -8z m216 -1 c34 -27 35 -71 1 -104 -44
-45 -109 -22 -121 42 -5 26 -1 37 19 57 31 31 65 33 101 5z m213 6 c29 -20 37
-59 19 -94 -24 -46 -67 -54 -110 -20 -72 57 15 167 91 114z"/>
</g>
</svg>
