<?xml version="1.0" standalone="no"?>
<!DOCTYPE svg PUBLIC "-//W3C//DTD SVG 20010904//EN"
 "http://www.w3.org/TR/2001/REC-SVG-20010904/DTD/svg10.dtd">
<svg version="1.0" xmlns="http://www.w3.org/2000/svg"
 width="192.000000pt" height="192.000000pt" viewBox="0 0 192.000000 192.000000"
 preserveAspectRatio="xMidYMid meet">
<metadata>
Created by potrace 1.16, written by Peter Selinger 2001-2019
</metadata>
<g transform="translate(0.000000,192.000000) scale(0.100000,-0.100000)"
fill="#000000" stroke="none">
811 c445 -92 729 -532 635 -987 -62 -301 -295 -546 -601 -630 -91 -26 -329
-26 -420 0 -291 80 -516 305 -596 596 -26 91 -26 329 0 420 120 433 542 692
982 601z"/>
<path d="M662 1339 c-130 -65 -129 -248 1 -316 33 -17 179 -30 221 -19 l26 6
0 111 c0 120 -7 144 -57 192 -53 50 -123 59 -191 26z"/>
<path d="M1116 1350 c-34 -11 -82 -54 -102 -92 -10 -18 -14 -62 -14 -137 l0
-111 26 -6 c42 -11 188 2 221 19 66 35 111 118 98 185 -19 107 -125 173 -229
142z"/>
<path d="M655 901 c-125 -77 -121 -248 7 -310 72 -34 136 -25 191 27 50 47 57
72 57 192 l0 110 -112 0 c-93 0 -118 -3 -143 -19z"/>
<path d="M1000 810 c0 -120 7 -145 57 -192 55 -52 119 -61 191 -27 104 51 130
180 55 270 -43 50 -71 59 -193 59 l-110 0 0 -110z"/>
</g>
</svg>
