<?xml version="1.0" standalone="no"?>
<!DOCTYPE svg PUBLIC "-//W3C//DTD SVG 20010904//EN"
 "http://www.w3.org/TR/2001/REC-SVG-20010904/DTD/svg10.dtd">
<svg version="1.0" xmlns="http://www.w3.org/2000/svg"
 width="192.000000pt" height="192.000000pt" viewBox="0 0 192.000000 192.000000"
 preserveAspectRatio="xMidYMid meet">
<metadata>
Created by potrace 1.16, written by Peter Selinger 2001-2019
</metadata>
<g transform="translate(0.000000,192.000000) scale(0.100000,-0.100000)"
fill="#000000" stroke="none">
811 c445 -92 729 -532 635 -987 -62 -301 -295 -546 -601 -630 -91 -26 -329
-26 -420 0 -291 80 -516 305 -596 596 -26 91 -26 329 0 420 120 433 542 692
982 601z"/>
<path d="M600 1190 c-6 -12 -27 -28 -46 -36 -27 -12 -35 -20 -32 -37 2 -17 11
-23 38 -27 l35 -5 3 -122 3 -123 40 0 39 0 -2 183 -3 182 -32 3 c-24 2 -34 -2
-43 -18z"/>
<path d="M717 1203 c-14 -13 -7 -71 9 -77 24 -9 637 -7 652 3 8 5 12 22 10 42
l-3 34 -331 3 c-182 1 -333 -1 -337 -5z"/>
<path d="M836 1093 c-4 -4 -34 -6 -66 -5 l-60 3 0 -126 0 -125 40 0 40 0 0 85
c0 81 1 86 25 97 43 19 55 -2 55 -98 l0 -84 40 0 40 0 0 85 c0 81 1 86 25 97
43 19 55 -2 55 -98 l0 -84 41 0 41 0 -4 104 c-2 85 -6 108 -22 125 -27 30 -77
36 -120 16 -32 -15 -37 -15 -58 -1 -23 17 -60 21 -72 9z"/>
<path d="M1200 1083 c-72 -37 -89 -141 -33 -198 31 -30 62 -39 109 -32 28 5
34 3 34 -12 0 -23 -31 -51 -57 -51 -11 0 -28 9 -39 21 -13 14 -25 18 -44 14
-43 -11 -45 -22 -8 -59 60 -60 154 -57 202 7 19 25 21 44 24 173 l3 145 -48
-2 c-26 -1 -61 1 -78 5 -20 5 -41 1 -65 -11z m91 -63 c13 -7 19 -21 19 -43 0
-40 -15 -57 -52 -57 -44 0 -64 56 -31 92 18 20 36 23 64 8z"/>
<path d="M524 796 c-3 -8 -4 -25 -2 -38 l3 -23 290 0 290 0 0 35 0 35 -288 3
c-243 2 -288 0 -293 -12z"/>
</g>
</svg>
