<?xml version="1.0" standalone="no"?>
<!DOCTYPE svg PUBLIC "-//W3C//DTD SVG 20010904//EN"
 "http://www.w3.org/TR/2001/REC-SVG-20010904/DTD/svg10.dtd">
<svg version="1.0" xmlns="http://www.w3.org/2000/svg"
 width="192.000000pt" height="192.000000pt" viewBox="0 0 192.000000 192.000000"
 preserveAspectRatio="xMidYMid meet">
<metadata>
Created by potrace 1.16, written by Peter Selinger 2001-2019
</metadata>
<g transform="translate(0.000000,192.000000) scale(0.100000,-0.100000)"
fill="#000000" stroke="none">
811 c445 -92 729 -532 635 -987 -62 -301 -295 -546 -601 -630 -91 -26 -329
-26 -420 0 -291 80 -516 305 -596 596 -26 91 -26 329 0 420 120 433 542 692
982 601z"/>
<path d="M874 1336 c-36 -36 -44 -78 -24 -130 12 -33 66 -66 105 -66 39 0 93
33 105 66 20 52 12 94 -24 130 -29 29 -41 34 -81 34 -40 0 -52 -5 -81 -34z"/>
<path d="M898 1064 c-35 -18 -58 -62 -58 -110 0 -28 8 -44 34 -70 29 -29 41
-34 81 -34 40 0 52 5 81 34 26 26 34 42 34 70 0 97 -91 155 -172 110z"/>
<path d="M902 773 c-83 -41 -82 -167 2 -207 43 -20 59 -20 102 0 85 41 85 167
0 208 -42 20 -62 20 -104 -1z"/>
</g>
</svg>
