<?xml version="1.0" standalone="no"?>
<!DOCTYPE svg PUBLIC "-//W3C//DTD SVG 20010904//EN"
 "http://www.w3.org/TR/2001/REC-SVG-20010904/DTD/svg10.dtd">
<svg version="1.0" xmlns="http://www.w3.org/2000/svg"
 width="192.000000pt" height="192.000000pt" viewBox="0 0 192.000000 192.000000"
 preserveAspectRatio="xMidYMid meet">
<metadata>
Created by potrace 1.16, written by Peter Selinger 2001-2019
</metadata>
<g transform="translate(0.000000,192.000000) scale(0.100000,-0.100000)"
fill="#000000" stroke="none">
811 c445 -92 729 -532 635 -987 -62 -301 -295 -546 -601 -630 -91 -26 -329
-26 -420 0 -291 80 -516 305 -596 596 -26 91 -26 329 0 420 120 433 542 692
982 601z"/>
<path d="M598 1321 l-33 -29 0 -117 0 -117 33 -29 c32 -28 35 -29 145 -29 160
1 177 18 177 175 0 157 -17 174 -177 175 -110 0 -113 -1 -145 -29z"/>
<path d="M1019 1321 c-29 -29 -29 -31 -29 -146 0 -115 0 -117 29 -146 29 -29
31 -29 146 -29 115 0 117 0 146 29 29 29 29 31 29 146 0 115 0 117 -29 146
-29 29 -31 29 -146 29 -115 0 -117 0 -146 -29z"/>
<path d="M620 917 c-41 -21 -60 -71 -60 -165 0 -150 32 -182 182 -182 94 0
144 19 165 60 8 15 13 66 13 129 l0 103 -34 34 -34 34 -103 0 c-63 0 -114 -5
-129 -13z"/>
<path d="M1024 896 l-34 -34 0 -103 c0 -63 5 -114 13 -129 21 -41 71 -60 165
-60 104 0 147 17 167 64 22 51 20 191 -3 236 -25 50 -52 60 -170 60 l-104 0
-34 -34z"/>
</g>
</svg>
