<?xml version="1.0" standalone="no"?>
<!DOCTYPE svg PUBLIC "-//W3C//DTD SVG 20010904//EN"
 "http://www.w3.org/TR/2001/REC-SVG-20010904/DTD/svg10.dtd">
<svg version="1.0" xmlns="http://www.w3.org/2000/svg"
 width="192.000000pt" height="192.000000pt" viewBox="0 0 192.000000 192.000000"
 preserveAspectRatio="xMidYMid meet">
<metadata>
Created by potrace 1.16, written by Peter Selinger 2001-2019
</metadata>
<g transform="translate(0.000000,192.000000) scale(0.100000,-0.100000)"
fill="#000000" stroke="none">
811 c445 -92 729 -532 635 -987 -62 -301 -295 -546 -601 -630 -91 -26 -329
-26 -420 0 -291 80 -516 305 -596 596 -26 91 -26 329 0 420 120 433 542 692
982 601z"/>
<path d="M900 1363 c-37 -15 -257 -147 -278 -166 -36 -34 -44 -80 -40 -254 4
-209 -1 -203 235 -334 129 -71 147 -71 276 0 236 131 231 125 235 334 4 174
-4 220 -40 254 -13 12 -79 54 -148 94 -103 59 -134 73 -175 76 -27 1 -57 0
-65 -4z m155 -237 c39 -23 76 -53 82 -67 16 -30 17 -160 2 -193 -14 -29 -166
-119 -192 -112 -41 10 -166 90 -176 113 -15 32 -14 162 2 192 16 33 144 110
182 110 18 0 58 -17 100 -43z"/>
<path d="M887 1060 l-47 -30 0 -62 c0 -35 4 -68 8 -74 4 -6 29 -24 56 -39 l49
-29 45 24 c67 36 72 44 72 116 l0 64 -47 30 c-26 17 -56 30 -68 30 -12 0 -42
-13 -68 -30z"/>
</g>
</svg>
