<?xml version="1.0" standalone="no"?>
<!DOCTYPE svg PUBLIC "-//W3C//DTD SVG 20010904//EN"
 "http://www.w3.org/TR/2001/REC-SVG-20010904/DTD/svg10.dtd">
<svg version="1.0" xmlns="http://www.w3.org/2000/svg"
 width="192.000000pt" height="192.000000pt" viewBox="0 0 192.000000 192.000000"
 preserveAspectRatio="xMidYMid meet">
<metadata>
Created by potrace 1.16, written by Peter Selinger 2001-2019
</metadata>
<g transform="translate(0.000000,192.000000) scale(0.100000,-0.100000)"
fill="#000000" stroke="none">
811 c445 -92 729 -532 635 -987 -62 -301 -295 -546 -601 -630 -91 -26 -329
-26 -420 0 -291 80 -516 305 -596 596 -26 91 -26 329 0 420 120 433 542 692
982 601z"/>
<path d="M775 1329 c-160 -42 -155 -33 -155 -273 0 -275 12 -302 190 -422 89
-60 106 -68 148 -68 43 0 59 8 152 72 168 114 179 140 180 414 0 245 7 234
-160 278 -145 38 -210 38 -355 -1z m356 -159 c21 -12 25 -50 7 -68 -17 -17
-349 -17 -366 0 -18 18 -15 55 6 67 23 14 327 14 353 1z m-185 -144 c13 -19 9
-45 -10 -58 -18 -13 -151 -9 -164 4 -20 20 -14 58 11 68 37 16 147 7 163 -14z
m-122 -129 c22 -16 18 -55 -6 -71 -40 -24 -80 44 -42 71 10 7 21 13 24 13 3 0
14 -6 24 -13z"/>
</g>
</svg>
