<?xml version="1.0" standalone="no"?>
<!DOCTYPE svg PUBLIC "-//W3C//DTD SVG 20010904//EN"
 "http://www.w3.org/TR/2001/REC-SVG-20010904/DTD/svg10.dtd">
<svg version="1.0" xmlns="http://www.w3.org/2000/svg"
 width="192.000000pt" height="192.000000pt" viewBox="0 0 192.000000 192.000000"
 preserveAspectRatio="xMidYMid meet">
<metadata>
Created by potrace 1.16, written by Peter Selinger 2001-2019
</metadata>
<g transform="translate(0.000000,192.000000) scale(0.100000,-0.100000)"
fill="#000000" stroke="none">
811 c445 -92 729 -532 635 -987 -62 -301 -295 -546 -601 -630 -91 -26 -329
-26 -420 0 -291 80 -516 305 -596 596 -26 91 -26 329 0 420 120 433 542 692
982 601z"/>
<path d="M702 1328 c-43 -15 -98 -77 -112 -127 -14 -53 1 -110 41 -155 109
-124 304 -51 304 114 0 122 -117 207 -233 168z"/>
<path d="M1090 1325 c-74 -34 -110 -87 -110 -165 0 -82 46 -144 125 -170 103
-34 225 59 225 170 0 50 -37 118 -79 146 -48 31 -115 39 -161 19z"/>
<path d="M690 929 c-135 -54 -138 -260 -6 -320 111 -50 233 15 251 135 11 69
-31 148 -97 182 -31 16 -111 18 -148 3z"/>
<path d="M1072 923 c-86 -42 -119 -160 -68 -247 71 -121 249 -110 307 18 41
90 7 185 -83 232 -36 19 -115 17 -156 -3z"/>
</g>
</svg>
