<?xml version="1.0" standalone="no"?>
<!DOCTYPE svg PUBLIC "-//W3C//DTD SVG 20010904//EN"
 "http://www.w3.org/TR/2001/REC-SVG-20010904/DTD/svg10.dtd">
<svg version="1.0" xmlns="http://www.w3.org/2000/svg"
 width="192.000000pt" height="192.000000pt" viewBox="0 0 192.000000 192.000000"
 preserveAspectRatio="xMidYMid meet">
<metadata>
Created by potrace 1.16, written by Peter Selinger 2001-2019
</metadata>
<g transform="translate(0.000000,192.000000) scale(0.100000,-0.100000)"
fill="#000000" stroke="none">
811 c445 -92 729 -532 635 -987 -62 -301 -295 -546 -601 -630 -91 -26 -329
-26 -420 0 -291 80 -516 305 -596 596 -26 91 -26 329 0 420 120 433 542 692
982 601z"/>
<path d="M918 1370 c-15 -4 -83 -40 -152 -79 -124 -71 -171 -111 -182 -155 -3
-13 -4 -99 -2 -192 3 -154 5 -172 25 -199 12 -18 78 -63 160 -110 122 -71 144
-80 188 -80 44 0 66 9 188 80 82 47 148 92 160 110 20 27 22 45 25 199 2 93 1
179 -2 192 -12 45 -60 85 -189 158 -138 77 -174 90 -219 76z m121 -236 c104
-58 101 -52 101 -170 l0 -103 -32 -24 c-60 -43 -126 -77 -153 -77 -27 0 -93
34 -152 77 l-33 24 0 103 c0 86 3 105 18 118 30 26 146 88 166 88 11 0 49 -16
85 -36z"/>
<path d="M913 1077 c-77 -43 -76 -42 -81 -99 -5 -70 4 -87 68 -122 52 -28 52
-28 91 -10 66 29 89 57 89 106 0 67 -8 83 -53 109 -67 38 -72 39 -114 16z"/>
</g>
</svg>
