<?xml version="1.0" standalone="no"?>
<!DOCTYPE svg PUBLIC "-//W3C//DTD SVG 20010904//EN"
 "http://www.w3.org/TR/2001/REC-SVG-20010904/DTD/svg10.dtd">
<svg version="1.0" xmlns="http://www.w3.org/2000/svg"
 width="192.000000pt" height="192.000000pt" viewBox="0 0 192.000000 192.000000"
 preserveAspectRatio="xMidYMid meet">
<metadata>
Created by potrace 1.16, written by Peter Selinger 2001-2019
</metadata>
<g transform="translate(0.000000,192.000000) scale(0.100000,-0.100000)"
fill="#000000" stroke="none">
811 c445 -92 729 -532 635 -987 -62 -301 -295 -546 -601 -630 -91 -26 -329
-26 -420 0 -291 80 -516 305 -596 596 -26 91 -26 329 0 420 120 433 542 692
982 601z"/>
<path d="M683 1349 c-73 -21 -133 -119 -119 -194 9 -44 44 -94 85 -122 30 -21
46 -23 147 -23 l114 0 0 110 c0 121 -7 145 -57 193 -46 43 -104 55 -170 36z"/>
<path d="M1116 1350 c-34 -11 -82 -54 -102 -92 -10 -18 -14 -62 -14 -138 l0
-110 110 0 c122 0 150 9 193 59 93 110 29 271 -114 286 -24 2 -57 0 -73 -5z"/>
<path d="M649 897 c-99 -66 -114 -191 -34 -271 66 -66 164 -72 231 -14 56 49
64 74 64 198 l0 110 -114 0 c-101 0 -117 -2 -147 -23z"/>
<path d="M1000 810 c0 -124 8 -149 64 -198 67 -58 165 -52 231 14 80 80 65
205 -34 271 -30 21 -46 23 -147 23 l-114 0 0 -110z"/>
</g>
</svg>
