<?xml version="1.0" standalone="no"?>
<!DOCTYPE svg PUBLIC "-//W3C//DTD SVG 20010904//EN"
 "http://www.w3.org/TR/2001/REC-SVG-20010904/DTD/svg10.dtd">
<svg version="1.0" xmlns="http://www.w3.org/2000/svg"
 width="192.000000pt" height="192.000000pt" viewBox="0 0 192.000000 192.000000"
 preserveAspectRatio="xMidYMid meet">
<metadata>
Created by potrace 1.16, written by Peter Selinger 2001-2019
</metadata>
<g transform="translate(0.000000,192.000000) scale(0.100000,-0.100000)"
fill="#000000" stroke="none">
811 c445 -92 729 -532 635 -987 -62 -301 -295 -546 -601 -630 -91 -26 -329
-26 -420 0 -291 80 -516 305 -596 596 -26 91 -26 329 0 420 120 433 542 692
982 601z"/>
<path d="M853 1365 c-81 -22 -131 -52 -190 -111 -161 -160 -161 -416 0 -576
156 -156 408 -161 568 -12 91 86 130 177 130 305 0 169 -104 320 -261 380 -70
26 -181 33 -247 14z m231 -139 c140 -69 199 -235 135 -376 -107 -232 -427
-232 -533 -1 -30 67 -29 180 3 241 41 79 105 133 191 161 46 15 147 3 204 -25z"/>
<path d="M865 1132 c-40 -25 -83 -77 -91 -108 -4 -14 -4 -49 -2 -79 8 -101 96
-173 199 -163 168 16 228 231 94 334 -50 38 -153 46 -200 16z"/>
</g>
</svg>
