<?xml version="1.0" standalone="no"?>
<!DOCTYPE svg PUBLIC "-//W3C//DTD SVG 20010904//EN"
 "http://www.w3.org/TR/2001/REC-SVG-20010904/DTD/svg10.dtd">
<svg version="1.0" xmlns="http://www.w3.org/2000/svg"
 width="192.000000pt" height="192.000000pt" viewBox="0 0 192.000000 192.000000"
 preserveAspectRatio="xMidYMid meet">
<metadata>
Created by potrace 1.16, written by Peter Selinger 2001-2019
</metadata>
<g transform="translate(0.000000,192.000000) scale(0.100000,-0.100000)"
fill="#000000" stroke="none">
811 c445 -92 729 -532 635 -987 -62 -301 -295 -546 -601 -630 -91 -26 -329
-26 -420 0 -291 80 -516 305 -596 596 -26 91 -26 329 0 420 120 433 542 692
982 601z"/>
<path d="M851 1364 c-162 -43 -274 -167 -303 -333 -38 -222 117 -434 343 -470
268 -43 507 193 468 464 -34 241 -274 402 -508 339z m238 -141 c171 -88 206
-320 69 -460 -137 -140 -374 -103 -463 72 -26 50 -30 69 -29 134 0 59 5 86 23
121 78 153 249 210 400 133z"/>
<path d="M935 1155 c-5 -2 -22 -6 -37 -9 -31 -7 -93 -58 -110 -90 -34 -63 -23
-163 23 -212 118 -127 329 -47 329 125 0 71 -54 152 -114 170 -44 13 -79 19
-91 16z"/>
</g>
</svg>
