<?xml version="1.0" standalone="no"?>
<!DOCTYPE svg PUBLIC "-//W3C//DTD SVG 20010904//EN"
 "http://www.w3.org/TR/2001/REC-SVG-20010904/DTD/svg10.dtd">
<svg version="1.0" xmlns="http://www.w3.org/2000/svg"
 width="192.000000pt" height="192.000000pt" viewBox="0 0 192.000000 192.000000"
 preserveAspectRatio="xMidYMid meet">
<metadata>
Created by potrace 1.16, written by Peter Selinger 2001-2019
</metadata>
<g transform="translate(0.000000,192.000000) scale(0.100000,-0.100000)"
fill="#000000" stroke="none">
811 c445 -92 729 -532 635 -987 -62 -301 -295 -546 -601 -630 -91 -26 -329
-26 -420 0 -291 80 -516 305 -596 596 -26 91 -26 329 0 420 120 433 542 692
982 601z"/>
<path d="M707 1326 c-50 -18 -85 -51 -108 -101 -16 -35 -19 -67 -19 -260 0
-245 7 -275 69 -328 51 -42 93 -48 324 -45 248 4 270 10 322 93 l30 48 0 232
0 232 -30 48 c-52 84 -73 90 -330 92 -168 2 -229 -1 -258 -11z m141 -228 c15
-15 22 -33 22 -60 0 -98 -128 -124 -166 -33 -16 38 -8 70 22 96 39 34 83 33
122 -3z m340 -4 c31 -35 29 -84 -4 -118 -68 -67 -180 8 -143 96 25 60 103 72
147 22z m-138 -220 c0 -23 -64 -84 -89 -84 -34 0 -72 22 -87 51 -24 47 -20 49
81 49 80 0 95 -2 95 -16z"/>
</g>
</svg>
