<?xml version="1.0" standalone="no"?>
<!DOCTYPE svg PUBLIC "-//W3C//DTD SVG 20010904//EN"
 "http://www.w3.org/TR/2001/REC-SVG-20010904/DTD/svg10.dtd">
<svg version="1.0" xmlns="http://www.w3.org/2000/svg"
 width="192.000000pt" height="192.000000pt" viewBox="0 0 192.000000 192.000000"
 preserveAspectRatio="xMidYMid meet">
<metadata>
Created by potrace 1.16, written by Peter Selinger 2001-2019
</metadata>
<g transform="translate(0.000000,192.000000) scale(0.100000,-0.100000)"
fill="#000000" stroke="none">
811 c445 -92 729 -532 635 -987 -62 -301 -295 -546 -601 -630 -91 -26 -329
-26 -420 0 -291 80 -516 305 -596 596 -26 91 -26 329 0 420 120 433 542 692
982 601z"/>
<path d="M717 1330 c-46 -14 -98 -60 -118 -104 -16 -36 -19 -68 -19 -261 0
-209 1 -223 23 -265 12 -24 39 -58 60 -74 l39 -31 253 0 253 0 39 31 c21 16
48 50 61 74 21 42 22 56 22 265 0 209 -1 223 -22 265 -14 26 -41 57 -66 75
l-44 30 -226 2 c-125 1 -240 -2 -255 -7z m80 -368 l3 -133 -78 3 c-76 3 -77 3
-80 31 -4 30 21 48 41 28 6 -6 24 -11 39 -11 24 0 28 4 28 30 0 25 -4 30 -25
30 -20 0 -25 5 -25 25 0 20 5 25 25 25 21 0 25 5 25 30 0 27 -3 30 -30 30 -16
0 -30 -4 -30 -10 0 -5 -11 -10 -25 -10 -21 0 -25 5 -25 28 0 16 3 32 7 36 4 4
39 5 78 4 l70 -3 2 -133z m229 113 c3 -14 4 -32 0 -40 -7 -19 -42 -19 -50 0
-7 20 -52 19 -60 -1 -3 -9 -6 -40 -6 -69 0 -29 3 -60 6 -69 8 -21 43 -20 66 0
15 14 20 15 33 4 9 -8 15 -25 13 -39 -3 -26 -4 -26 -83 -26 l-80 0 -3 119 c-1
66 0 126 2 133 4 9 28 13 80 13 72 0 76 -1 82 -25z m131 -15 c9 -22 19 -40 23
-40 4 0 15 18 25 40 11 25 25 40 36 40 31 0 31 -17 0 -77 l-29 -58 29 -55 c35
-68 36 -80 4 -80 -19 0 -28 9 -43 43 l-19 42 -22 -42 c-16 -33 -27 -43 -46
-43 -32 0 -31 5 6 74 l31 57 -32 60 c-33 62 -32 79 1 79 15 0 25 -12 36 -40z"/>
</g>
</svg>
