<?xml version="1.0" standalone="no"?>
<!DOCTYPE svg PUBLIC "-//W3C//DTD SVG 20010904//EN"
 "http://www.w3.org/TR/2001/REC-SVG-20010904/DTD/svg10.dtd">
<svg version="1.0" xmlns="http://www.w3.org/2000/svg"
 width="192.000000pt" height="192.000000pt" viewBox="0 0 192.000000 192.000000"
 preserveAspectRatio="xMidYMid meet">
<metadata>
Created by potrace 1.16, written by Peter Selinger 2001-2019
</metadata>
<g transform="translate(0.000000,192.000000) scale(0.100000,-0.100000)"
fill="#000000" stroke="none">
811 c445 -92 729 -532 635 -987 -62 -301 -295 -546 -601 -630 -91 -26 -329
-26 -420 0 -291 80 -516 305 -596 596 -26 91 -26 329 0 420 120 433 542 692
982 601z"/>
<path d="M775 1294 c-71 -41 -138 -83 -149 -92 -38 -34 -46 -74 -46 -242 0
-218 -3 -213 200 -331 170 -99 180 -99 350 0 203 118 200 113 200 331 0 228 4
221 -211 344 -160 91 -171 91 -344 -10z m267 -160 c102 -59 98 -53 98 -170 0
-77 -4 -106 -15 -117 -25 -26 -147 -89 -170 -89 -23 0 -145 63 -170 89 -23 22
-21 215 1 234 40 34 141 87 166 88 15 1 55 -15 90 -35z"/>
<path d="M895 1067 c-45 -25 -65 -57 -65 -104 0 -55 16 -78 72 -108 l54 -28
53 29 c30 16 57 39 62 52 13 33 11 83 -4 112 -14 28 -81 70 -112 70 -11 0 -38
-10 -60 -23z"/>
</g>
</svg>
