<?xml version="1.0" standalone="no"?>
<!DOCTYPE svg PUBLIC "-//W3C//DTD SVG 20010904//EN"
 "http://www.w3.org/TR/2001/REC-SVG-20010904/DTD/svg10.dtd">
<svg version="1.0" xmlns="http://www.w3.org/2000/svg"
 width="192.000000pt" height="192.000000pt" viewBox="0 0 192.000000 192.000000"
 preserveAspectRatio="xMidYMid meet">
<metadata>
Created by potrace 1.16, written by Peter Selinger 2001-2019
</metadata>
<g transform="translate(0.000000,192.000000) scale(0.100000,-0.100000)"
fill="#000000" stroke="none">
811 c445 -92 729 -532 635 -987 -62 -301 -295 -546 -601 -630 -91 -26 -329
-26 -420 0 -291 80 -516 305 -596 596 -26 91 -26 329 0 420 120 433 542 692
982 601z"/>
<path d="M595 1058 c-64 -50 -65 -131 -4 -183 55 -46 142 -27 173 39 20 43 20
59 0 102 -30 63 -116 84 -169 42z"/>
<path d="M874 1046 c-29 -29 -34 -41 -34 -81 0 -40 5 -52 34 -81 39 -39 86
-45 136 -19 78 40 78 160 0 200 -50 26 -97 20 -136 -19z"/>
<path d="M1188 1064 c-76 -41 -74 -159 2 -199 50 -26 97 -20 136 19 29 29 34
41 34 81 0 40 -5 52 -34 81 -27 27 -42 34 -72 34 -22 -1 -51 -7 -66 -16z"/>
</g>
</svg>
