<?xml version="1.0" standalone="no"?>
<!DOCTYPE svg PUBLIC "-//W3C//DTD SVG 20010904//EN"
 "http://www.w3.org/TR/2001/REC-SVG-20010904/DTD/svg10.dtd">
<svg version="1.0" xmlns="http://www.w3.org/2000/svg"
 width="192.000000pt" height="192.000000pt" viewBox="0 0 192.000000 192.000000"
 preserveAspectRatio="xMidYMid meet">
<metadata>
Created by potrace 1.16, written by Peter Selinger 2001-2019
</metadata>
<g transform="translate(0.000000,192.000000) scale(0.100000,-0.100000)"
fill="#000000" stroke="none">
811 c445 -92 729 -532 635 -987 -62 -301 -295 -546 -601 -630 -91 -26 -329
-26 -420 0 -291 80 -516 305 -596 596 -26 91 -26 329 0 420 120 433 542 692
982 601z"/>
<path d="M655 1354 c-74 -18 -95 -58 -95 -179 0 -140 25 -172 140 -182 99 -8
158 3 192 37 27 28 28 31 28 135 0 114 -12 155 -52 176 -23 12 -178 22 -213
13z"/>
<path d="M1063 1349 c-60 -18 -73 -47 -73 -174 0 -129 12 -156 78 -175 48 -13
146 -13 194 0 66 19 78 46 78 176 0 103 -2 115 -22 139 -13 14 -41 30 -63 35
-50 12 -150 11 -192 -1z"/>
<path d="M598 901 c-33 -29 -33 -30 -36 -134 -3 -81 0 -111 12 -136 27 -51 63
-63 183 -59 104 3 105 3 134 36 28 32 29 35 29 143 l0 111 -34 34 -34 34 -111
0 c-108 0 -111 -1 -143 -29z"/>
<path d="M1024 896 l-34 -34 0 -111 c0 -108 1 -111 29 -143 29 -33 30 -33 134
-36 173 -6 201 22 195 195 -3 104 -3 105 -36 134 -32 28 -35 29 -143 29 l-111
0 -34 -34z"/>
</g>
</svg>
