<?xml version="1.0" standalone="no"?>
<!DOCTYPE svg PUBLIC "-//W3C//DTD SVG 20010904//EN"
 "http://www.w3.org/TR/2001/REC-SVG-20010904/DTD/svg10.dtd">
<svg version="1.0" xmlns="http://www.w3.org/2000/svg"
 width="192.000000pt" height="192.000000pt" viewBox="0 0 192.000000 192.000000"
 preserveAspectRatio="xMidYMid meet">
<metadata>
Created by potrace 1.16, written by Peter Selinger 2001-2019
</metadata>
<g transform="translate(0.000000,192.000000) scale(0.100000,-0.100000)"
fill="#000000" stroke="none">
811 c445 -92 729 -532 635 -987 -62 -301 -295 -546 -601 -630 -91 -26 -329
-26 -420 0 -291 80 -516 305 -596 596 -26 91 -26 329 0 420 120 433 542 692
982 601z"/>
<path d="M882 1326 c-24 -52 -59 -75 -147 -91 l-60 -11 0 -50 0 -49 90 -3 c56
-2 92 -7 97 -15 4 -7 8 -133 8 -280 l0 -268 78 3 77 3 0 400 0 400 -62 3 -62
3 -19 -45z"/>
<path d="M1132 1316 c-43 -73 -43 -96 3 -96 28 0 35 -4 35 -20 0 -13 7 -20 20
-20 13 0 20 7 20 20 0 11 7 20 15 20 8 0 15 9 15 20 0 11 -7 20 -15 20 -12 0
-15 13 -15 55 0 50 -2 55 -23 55 -16 0 -31 -14 -55 -54z"/>
</g>
</svg>
