<?xml version="1.0" standalone="no"?>
<!DOCTYPE svg PUBLIC "-//W3C//DTD SVG 20010904//EN"
 "http://www.w3.org/TR/2001/REC-SVG-20010904/DTD/svg10.dtd">
<svg version="1.0" xmlns="http://www.w3.org/2000/svg"
 width="192.000000pt" height="192.000000pt" viewBox="0 0 192.000000 192.000000"
 preserveAspectRatio="xMidYMid meet">
<metadata>
Created by potrace 1.16, written by Peter Selinger 2001-2019
</metadata>
<g transform="translate(0.000000,192.000000) scale(0.100000,-0.100000)"
fill="#000000" stroke="none">
811 c445 -92 729 -532 635 -987 -62 -301 -295 -546 -601 -630 -91 -26 -329
-26 -420 0 -291 80 -516 305 -596 596 -26 91 -26 329 0 420 120 433 542 692
982 601z"/>
<path d="M877 1370 c-98 -25 -182 -95 -225 -189 -24 -49 -27 -71 -30 -186 -5
-143 6 -210 42 -269 l23 -39 19 28 c16 25 20 56 24 210 5 148 9 186 24 214
l18 34 22 -24 c23 -24 23 -26 16 -209 -6 -172 -8 -190 -33 -244 -15 -32 -27
-62 -27 -67 0 -9 72 -49 88 -49 14 0 62 106 72 161 6 29 10 116 10 195 l0 144
35 0 35 0 0 -163 c0 -171 -11 -240 -50 -317 l-20 -40 50 0 c28 0 60 5 70 10
28 15 51 101 59 215 l6 100 39 3 39 3 -6 -88 c-3 -48 -9 -108 -13 -133 l-7
-45 37 35 c20 19 49 60 64 90 26 53 27 61 27 215 0 152 -1 163 -26 216 -53
113 -159 186 -281 194 -34 2 -80 0 -101 -5z m201 -142 c60 -40 94 -104 100
-189 l5 -70 -39 3 -39 3 -6 68 c-6 72 -26 104 -81 133 -31 16 -91 18 -117 4
-14 -7 -24 -3 -46 20 l-28 30 34 15 c23 10 57 14 105 13 57 -3 79 -8 112 -30z"/>
</g>
</svg>
