<?xml version="1.0" standalone="no"?>
<!DOCTYPE svg PUBLIC "-//W3C//DTD SVG 20010904//EN"
 "http://www.w3.org/TR/2001/REC-SVG-20010904/DTD/svg10.dtd">
<svg version="1.0" xmlns="http://www.w3.org/2000/svg"
 width="192.000000pt" height="192.000000pt" viewBox="0 0 192.000000 192.000000"
 preserveAspectRatio="xMidYMid meet">
<metadata>
Created by potrace 1.16, written by Peter Selinger 2001-2019
</metadata>
<g transform="translate(0.000000,192.000000) scale(0.100000,-0.100000)"
fill="#000000" stroke="none">
811 c445 -92 729 -532 635 -987 -62 -301 -295 -546 -601 -630 -91 -26 -329
-26 -420 0 -291 80 -516 305 -596 596 -26 91 -26 329 0 420 120 433 542 692
982 601z"/>
<path d="M849 1362 c-154 -40 -262 -155 -295 -313 -39 -183 53 -367 226 -452
61 -30 71 -32 175 -32 101 0 115 2 170 29 77 38 163 124 201 201 27 55 29 69
29 170 0 104 -2 114 -32 175 -59 120 -171 206 -298 229 -76 14 -97 13 -176 -7z
m237 -135 c101 -51 159 -147 158 -262 0 -86 -25 -146 -84 -205 -59 -59 -119
-84 -205 -84 -203 0 -343 194 -280 385 23 68 109 158 175 182 66 24 171 17
236 -16z"/>
<path d="M871 1132 c-90 -45 -127 -161 -82 -250 32 -64 90 -97 166 -97 71 0
115 24 156 83 35 52 34 143 -4 200 -49 75 -157 105 -236 64z"/>
</g>
</svg>
