<?xml version="1.0" standalone="no"?>
<!DOCTYPE svg PUBLIC "-//W3C//DTD SVG 20010904//EN"
 "http://www.w3.org/TR/2001/REC-SVG-20010904/DTD/svg10.dtd">
<svg version="1.0" xmlns="http://www.w3.org/2000/svg"
 width="192.000000pt" height="192.000000pt" viewBox="0 0 192.000000 192.000000"
 preserveAspectRatio="xMidYMid meet">
<metadata>
Created by potrace 1.16, written by Peter Selinger 2001-2019
</metadata>
<g transform="translate(0.000000,192.000000) scale(0.100000,-0.100000)"
fill="#000000" stroke="none">
811 c445 -92 729 -532 635 -987 -62 -301 -295 -546 -601 -630 -91 -26 -329
-26 -420 0 -291 80 -516 305 -596 596 -26 91 -26 329 0 420 120 433 542 692
982 601z"/>
<path d="M851 1364 c-207 -56 -341 -261 -303 -465 41 -222 244 -369 466 -338
171 23 322 174 346 347 40 290 -230 531 -509 456z m220 -131 c187 -83 231
-323 87 -470 -138 -141 -378 -103 -465 75 -38 77 -40 184 -4 252 41 79 105
133 191 161 40 13 142 3 191 -18z"/>
<path d="M920 1150 c-48 -9 -72 -23 -108 -65 -38 -43 -46 -69 -40 -140 15
-181 267 -227 347 -63 67 140 -48 295 -199 268z"/>
</g>
</svg>
