<?xml version="1.0" standalone="no"?>
<!DOCTYPE svg PUBLIC "-//W3C//DTD SVG 20010904//EN"
 "http://www.w3.org/TR/2001/REC-SVG-20010904/DTD/svg10.dtd">
<svg version="1.0" xmlns="http://www.w3.org/2000/svg"
 width="192.000000pt" height="192.000000pt" viewBox="0 0 192.000000 192.000000"
 preserveAspectRatio="xMidYMid meet">
<metadata>
Created by potrace 1.16, written by Peter Selinger 2001-2019
</metadata>
<g transform="translate(0.000000,192.000000) scale(0.100000,-0.100000)"
fill="#000000" stroke="none">
811 c445 -92 729 -532 635 -987 -62 -301 -295 -546 -601 -630 -91 -26 -329
-26 -420 0 -291 80 -516 305 -596 596 -26 91 -26 329 0 420 120 433 542 692
982 601z"/>
<path d="M575 1268 c-11 -6 -23 -16 -27 -22 -4 -6 -8 -132 -8 -281 0 -148 4
-275 8 -281 13 -21 51 -34 94 -34 l43 0 -31 19 c-39 24 -56 65 -52 127 l3 49
47 3 c45 3 48 2 53 -25 11 -49 20 -58 67 -61 58 -4 78 14 78 72 0 60 -17 78
-78 84 -45 4 -53 8 -58 28 -3 13 -3 35 0 49 6 22 12 25 49 25 66 0 79 14 75
85 l-3 60 -48 3 c-56 4 -77 -9 -77 -48 0 -36 -46 -53 -94 -34 -35 14 -13 136
31 171 l28 23 -40 0 c-22 0 -49 -6 -60 -12z"/>
<path d="M907 1256 c24 -20 35 -40 43 -81 14 -69 4 -157 -21 -184 -19 -20 -19
-21 0 -40 25 -25 34 -74 29 -156 -4 -70 -25 -109 -69 -133 -20 -11 8 -12 176
-10 168 3 205 6 232 21 47 25 67 69 67 153 1 77 -14 120 -47 130 -18 6 -17 8
10 36 26 27 28 35 28 112 0 93 -14 124 -68 153 -26 15 -65 18 -221 21 l-190 4
31 -26z m305 -103 c23 -21 25 -95 2 -117 -11 -12 -36 -16 -90 -16 l-74 0 0 75
0 75 72 0 c52 0 76 -4 90 -17z m6 -249 c17 -12 22 -25 22 -61 0 -71 -17 -83
-112 -83 l-78 0 0 80 0 80 73 0 c49 0 80 -5 95 -16z"/>
</g>
</svg>
