<?xml version="1.0" standalone="no"?>
<!DOCTYPE svg PUBLIC "-//W3C//DTD SVG 20010904//EN"
 "http://www.w3.org/TR/2001/REC-SVG-20010904/DTD/svg10.dtd">
<svg version="1.0" xmlns="http://www.w3.org/2000/svg"
 width="192.000000pt" height="192.000000pt" viewBox="0 0 192.000000 192.000000"
 preserveAspectRatio="xMidYMid meet">
<metadata>
Created by potrace 1.16, written by Peter Selinger 2001-2019
</metadata>
<g transform="translate(0.000000,192.000000) scale(0.100000,-0.100000)"
fill="#000000" stroke="none">
811 c445 -92 729 -532 635 -987 -62 -301 -295 -546 -601 -630 -91 -26 -329
-26 -420 0 -291 80 -516 305 -596 596 -26 91 -26 329 0 420 120 433 542 692
982 601z"/>
<path d="M1082 1368 c-27 -27 -13 -57 41 -92 61 -40 114 -94 151 -153 21 -35
32 -43 56 -43 94 0 6 171 -134 262 -61 39 -93 47 -114 26z"/>
<path d="M820 1294 c-109 -29 -199 -106 -248 -212 -23 -49 -27 -70 -27 -152 0
-87 3 -101 32 -161 39 -80 111 -150 191 -187 49 -23 70 -27 152 -27 87 0 101
3 161 32 80 39 150 111 187 191 23 49 27 70 27 152 0 81 -4 103 -27 151 -49
106 -142 185 -253 214 -72 18 -123 18 -195 -1z m215 -108 c105 -48 165 -143
164 -256 -1 -76 -12 -112 -55 -173 -43 -60 -135 -107 -211 -107 -29 0 -53 2
-53 4 0 2 50 86 110 186 61 100 110 188 110 196 0 8 -9 23 -20 34 -18 18 -33
20 -165 20 -132 0 -147 -2 -165 -20 -24 -24 -25 -47 -3 -72 13 -15 32 -18 108
-18 l93 0 -87 -145 c-47 -79 -89 -144 -93 -145 -18 0 -91 85 -109 128 -26 60
-23 177 6 236 64 133 237 194 370 132z"/>
</g>
</svg>
