<?xml version="1.0" standalone="no"?>
<!DOCTYPE svg PUBLIC "-//W3C//DTD SVG 20010904//EN"
 "http://www.w3.org/TR/2001/REC-SVG-20010904/DTD/svg10.dtd">
<svg version="1.0" xmlns="http://www.w3.org/2000/svg"
 width="192.000000pt" height="192.000000pt" viewBox="0 0 192.000000 192.000000"
 preserveAspectRatio="xMidYMid meet">
<metadata>
Created by potrace 1.16, written by Peter Selinger 2001-2019
</metadata>
<g transform="translate(0.000000,192.000000) scale(0.100000,-0.100000)"
fill="#000000" stroke="none">
811 c445 -92 729 -532 635 -987 -62 -301 -295 -546 -601 -630 -91 -26 -329
-26 -420 0 -291 80 -516 305 -596 596 -26 91 -26 329 0 420 120 433 542 692
982 601z"/>
<path d="M690 1347 c-123 -41 -164 -181 -83 -278 41 -48 78 -59 198 -59 l105
0 0 105 c0 67 -5 118 -14 138 -17 42 -66 83 -114 97 -44 12 -47 12 -92 -3z"/>
<path d="M1117 1345 c-91 -32 -117 -83 -117 -230 l0 -105 105 0 c120 0 157 11
198 59 83 99 35 249 -89 280 -52 13 -50 13 -97 -4z"/>
<path d="M665 906 c-64 -28 -114 -121 -99 -183 34 -141 179 -195 285 -106 48
41 59 78 59 198 l0 105 -107 0 c-67 -1 -120 -6 -138 -14z"/>
<path d="M1000 815 c0 -120 11 -157 59 -198 162 -136 380 82 244 244 -41 48
-78 59 -198 59 l-105 0 0 -105z"/>
</g>
</svg>
