<?xml version="1.0" standalone="no"?>
<!DOCTYPE svg PUBLIC "-//W3C//DTD SVG 20010904//EN"
 "http://www.w3.org/TR/2001/REC-SVG-20010904/DTD/svg10.dtd">
<svg version="1.0" xmlns="http://www.w3.org/2000/svg"
 width="192.000000pt" height="192.000000pt" viewBox="0 0 192.000000 192.000000"
 preserveAspectRatio="xMidYMid meet">
<metadata>
Created by potrace 1.16, written by Peter Selinger 2001-2019
</metadata>
<g transform="translate(0.000000,192.000000) scale(0.100000,-0.100000)"
fill="#000000" stroke="none">
811 c445 -92 729 -532 635 -987 -62 -301 -295 -546 -601 -630 -91 -26 -329
-26 -420 0 -291 80 -516 305 -596 596 -26 91 -26 329 0 420 120 433 542 692
982 601z"/>
<path d="M860 1342 c-124 -66 -235 -139 -254 -165 -19 -26 -21 -42 -21 -212 0
-235 -8 -223 232 -356 129 -71 147 -71 276 0 236 131 231 125 235 334 4 174
-4 220 -40 254 -13 12 -79 54 -148 94 -154 90 -194 97 -280 51z m195 -216 c38
-23 75 -53 82 -66 16 -31 17 -161 2 -194 -14 -29 -166 -119 -192 -112 -41 10
-166 90 -176 113 -15 32 -14 162 2 193 16 33 144 109 182 109 18 0 59 -18 100
-43z"/>
<path d="M887 1060 l-47 -30 0 -69 0 -70 57 -32 57 -33 55 31 56 31 3 71 3 71
-48 30 c-59 37 -77 37 -136 0z"/>
</g>
</svg>
