<?xml version="1.0" standalone="no"?>
<!DOCTYPE svg PUBLIC "-//W3C//DTD SVG 20010904//EN"
 "http://www.w3.org/TR/2001/REC-SVG-20010904/DTD/svg10.dtd">
<svg version="1.0" xmlns="http://www.w3.org/2000/svg"
 width="192.000000pt" height="192.000000pt" viewBox="0 0 192.000000 192.000000"
 preserveAspectRatio="xMidYMid meet">
<metadata>
Created by potrace 1.16, written by Peter Selinger 2001-2019
</metadata>
<g transform="translate(0.000000,192.000000) scale(0.100000,-0.100000)"
fill="#000000" stroke="none">
811 c445 -92 729 -532 635 -987 -62 -301 -295 -546 -601 -630 -91 -26 -329
-26 -420 0 -291 80 -516 305 -596 596 -26 91 -26 329 0 420 120 433 542 692
982 601z"/>
<path d="M870 1369 c-113 -22 -232 -114 -284 -220 -101 -207 -17 -448 191
-551 64 -31 73 -33 178 -33 104 0 114 2 176 32 80 40 159 120 197 200 24 52
27 69 27 168 0 105 -2 114 -33 178 -85 171 -266 262 -452 226z m207 -138 c65
-33 110 -77 140 -139 53 -109 30 -245 -57 -332 -87 -87 -223 -110 -332 -57
-133 65 -195 208 -154 352 23 76 108 166 182 189 66 21 166 16 221 -13z"/>
<path d="M875 1137 c-43 -20 -93 -80 -101 -122 -18 -98 22 -181 104 -217 158
-70 315 90 243 248 -29 64 -81 98 -155 101 -37 2 -73 -2 -91 -10z"/>
</g>
</svg>
