<?xml version="1.0" standalone="no"?>
<!DOCTYPE svg PUBLIC "-//W3C//DTD SVG 20010904//EN"
 "http://www.w3.org/TR/2001/REC-SVG-20010904/DTD/svg10.dtd">
<svg version="1.0" xmlns="http://www.w3.org/2000/svg"
 width="192.000000pt" height="192.000000pt" viewBox="0 0 192.000000 192.000000"
 preserveAspectRatio="xMidYMid meet">
<metadata>
Created by potrace 1.16, written by Peter Selinger 2001-2019
</metadata>
<g transform="translate(0.000000,192.000000) scale(0.100000,-0.100000)"
fill="#000000" stroke="none">
811 c445 -92 729 -532 635 -987 -62 -301 -295 -546 -601 -630 -91 -26 -329
-26 -420 0 -291 80 -516 305 -596 596 -26 91 -26 329 0 420 120 433 542 692
982 601z"/>
<path d="M870 1369 c-70 -14 -151 -58 -208 -116 -199 -198 -138 -536 117 -657
61 -29 74 -31 176 -31 104 0 114 2 176 32 80 40 159 120 197 200 24 52 27 69
27 168 0 102 -2 115 -31 176 -81 171 -267 265 -454 228z m207 -138 c109 -55
168 -148 167 -266 -1 -82 -26 -144 -83 -203 -86 -88 -223 -113 -333 -59 -133
65 -195 208 -154 352 23 76 108 166 182 189 66 21 166 16 221 -13z"/>
<path d="M875 1137 c-43 -20 -93 -80 -101 -122 -18 -98 22 -181 104 -217 158
-70 315 90 243 248 -29 64 -81 98 -155 101 -37 2 -73 -2 -91 -10z"/>
</g>
</svg>
