<?xml version="1.0" standalone="no"?>
<!DOCTYPE svg PUBLIC "-//W3C//DTD SVG 20010904//EN"
 "http://www.w3.org/TR/2001/REC-SVG-20010904/DTD/svg10.dtd">
<svg version="1.0" xmlns="http://www.w3.org/2000/svg"
 width="192.000000pt" height="192.000000pt" viewBox="0 0 192.000000 192.000000"
 preserveAspectRatio="xMidYMid meet">
<metadata>
Created by potrace 1.16, written by Peter Selinger 2001-2019
</metadata>
<g transform="translate(0.000000,192.000000) scale(0.100000,-0.100000)"
fill="#000000" stroke="none">
811 c445 -92 729 -532 635 -987 -62 -301 -295 -546 -601 -630 -91 -26 -329
-26 -420 0 -291 80 -516 305 -596 596 -26 91 -26 329 0 420 120 433 542 692
982 601z"/>
<path d="M906 1348 c-11 -15 -16 -46 -16 -96 0 -64 3 -76 25 -97 13 -14 31
-25 40 -25 9 0 27 11 40 25 22 21 25 33 25 97 0 90 -15 118 -65 118 -24 0 -39
-7 -49 -22z"/>
<path d="M667 1252 c-31 -34 -21 -64 42 -126 42 -41 67 -58 85 -58 36 0 56 19
56 56 0 25 -12 43 -58 89 -62 61 -95 72 -125 39z"/>
<path d="M1117 1212 c-60 -61 -74 -105 -42 -132 32 -26 65 -14 126 46 64 63
75 97 41 127 -34 31 -64 21 -125 -41z"/>
<path d="M572 1014 c-15 -10 -22 -25 -22 -49 0 -50 28 -65 118 -65 64 0 76 3
97 25 14 13 25 31 25 40 0 9 -11 27 -25 40 -21 22 -33 25 -97 25 -50 0 -81 -5
-96 -16z"/>
<path d="M1145 1005 c-14 -13 -25 -31 -25 -40 0 -9 11 -27 25 -40 21 -22 33
-25 97 -25 90 0 118 15 118 65 0 50 -28 65 -118 65 -64 0 -76 -3 -97 -25z"/>
<path d="M715 809 c-70 -67 -82 -101 -47 -132 35 -32 65 -21 131 48 51 53 61
69 56 87 -9 29 -24 44 -53 53 -18 5 -34 -5 -87 -56z"/>
<path d="M1072 848 c-7 -7 -12 -26 -12 -43 0 -24 12 -43 58 -88 62 -61 95 -72
125 -39 30 33 21 63 -40 124 -45 46 -64 58 -88 58 -17 0 -36 -5 -43 -12z"/>
<path d="M915 775 c-22 -21 -25 -33 -25 -97 0 -90 15 -118 65 -118 50 0 65 28
65 118 0 64 -3 76 -25 97 -13 14 -31 25 -40 25 -9 0 -27 -11 -40 -25z"/>
</g>
</svg>
