<?xml version="1.0" standalone="no"?>
<!DOCTYPE svg PUBLIC "-//W3C//DTD SVG 20010904//EN"
 "http://www.w3.org/TR/2001/REC-SVG-20010904/DTD/svg10.dtd">
<svg version="1.0" xmlns="http://www.w3.org/2000/svg"
 width="192.000000pt" height="192.000000pt" viewBox="0 0 192.000000 192.000000"
 preserveAspectRatio="xMidYMid meet">
<metadata>
Created by potrace 1.16, written by Peter Selinger 2001-2019
</metadata>
<g transform="translate(0.000000,192.000000) scale(0.100000,-0.100000)"
fill="#000000" stroke="none">
811 c445 -92 729 -532 635 -987 -62 -301 -295 -546 -601 -630 -91 -26 -329
-26 -420 0 -291 80 -516 305 -596 596 -26 91 -26 329 0 420 120 433 542 692
982 601z"/>
<path d="M583 1248 c-24 -29 -64 -121 -59 -134 4 -10 25 -14 76 -14 l70 0 0
-213 c0 -203 1 -215 20 -232 27 -24 83 -24 110 0 20 18 20 26 18 309 l-3 291
-111 3 c-81 2 -114 -1 -121 -10z"/>
<path d="M882 1248 c-12 -12 -17 -104 -6 -132 5 -14 28 -16 145 -16 76 0 139
-3 139 -6 0 -4 -38 -88 -85 -187 -47 -99 -85 -192 -85 -207 0 -50 74 -84 113
-52 19 16 257 525 257 548 0 25 -10 38 -37 53 -31 16 -425 15 -441 -1z"/>
<path d="M1312 863 c-15 -6 -102 -175 -102 -197 0 -9 9 -20 19 -26 27 -14 104
-13 119 2 8 8 12 47 12 108 0 107 -9 129 -48 113z"/>
</g>
</svg>
