<?xml version="1.0" standalone="no"?>
<!DOCTYPE svg PUBLIC "-//W3C//DTD SVG 20010904//EN"
 "http://www.w3.org/TR/2001/REC-SVG-20010904/DTD/svg10.dtd">
<svg version="1.0" xmlns="http://www.w3.org/2000/svg"
 width="192.000000pt" height="192.000000pt" viewBox="0 0 192.000000 192.000000"
 preserveAspectRatio="xMidYMid meet">
<metadata>
Created by potrace 1.16, written by Peter Selinger 2001-2019
</metadata>
<g transform="translate(0.000000,192.000000) scale(0.100000,-0.100000)"
fill="#000000" stroke="none">
811 c445 -92 729 -532 635 -987 -62 -301 -295 -546 -601 -630 -91 -26 -329
-26 -420 0 -291 80 -516 305 -596 596 -26 91 -26 329 0 420 120 433 542 692
982 601z"/>
<path d="M870 1364 c-98 -26 -173 -89 -219 -184 -25 -52 -26 -63 -26 -215 0
-151 1 -163 25 -209 52 -104 72 -62 80 174 5 142 9 181 24 209 l18 34 21 -22
c20 -20 21 -29 18 -187 -3 -168 -16 -255 -46 -297 -8 -12 -15 -26 -15 -32 0
-15 77 -58 90 -50 20 12 58 101 69 160 6 32 11 121 11 197 l0 138 35 0 35 0 0
-168 c0 -175 -9 -232 -51 -315 l-19 -37 53 0 c29 0 60 6 69 13 28 21 50 108
56 215 l5 102 40 0 40 0 -7 -97 c-3 -54 -9 -114 -12 -133 l-6 -35 36 35 c20
19 49 59 64 90 26 53 27 61 27 215 0 152 -1 163 -26 215 -47 97 -121 158 -224
185 -71 18 -94 18 -165 -1z m144 -108 c103 -31 166 -117 166 -228 l0 -58 -40
0 -40 0 0 58 c0 115 -91 188 -191 153 -30 -10 -36 -9 -57 13 -31 30 -23 42 36
60 60 19 69 19 126 2z"/>
</g>
</svg>
