<?xml version="1.0" standalone="no"?>
<!DOCTYPE svg PUBLIC "-//W3C//DTD SVG 20010904//EN"
 "http://www.w3.org/TR/2001/REC-SVG-20010904/DTD/svg10.dtd">
<svg version="1.0" xmlns="http://www.w3.org/2000/svg"
 width="192.000000pt" height="192.000000pt" viewBox="0 0 192.000000 192.000000"
 preserveAspectRatio="xMidYMid meet">
<metadata>
Created by potrace 1.16, written by Peter Selinger 2001-2019
</metadata>
<g transform="translate(0.000000,192.000000) scale(0.100000,-0.100000)"
fill="#000000" stroke="none">
811 c445 -92 729 -532 635 -987 -62 -301 -295 -546 -601 -630 -91 -26 -329
-26 -420 0 -291 80 -516 305 -596 596 -26 91 -26 329 0 420 120 433 542 692
982 601z"/>
<path d="M877 1370 c-98 -25 -182 -95 -225 -189 -24 -49 -27 -71 -30 -186 -5
-143 6 -210 42 -269 l23 -39 19 28 c16 25 20 56 24 210 5 148 9 186 24 214
l18 34 22 -24 c23 -24 23 -26 16 -209 -6 -172 -8 -190 -33 -244 -15 -32 -27
-62 -27 -65 0 -8 73 -51 87 -51 15 0 62 104 73 161 6 29 10 116 10 195 l0 144
35 0 35 0 0 -163 c0 -171 -11 -240 -50 -317 l-20 -40 50 0 c28 0 60 5 70 10
28 15 51 101 59 215 l6 100 39 3 39 3 -6 -93 c-3 -51 -9 -111 -13 -133 l-7
-40 37 35 c20 19 49 60 64 90 26 53 27 61 27 215 0 152 -1 163 -26 216 -53
113 -159 186 -281 194 -34 2 -80 0 -101 -5z m201 -142 c60 -40 94 -104 100
-189 l5 -69 -41 0 -40 0 -4 70 c-4 74 -23 106 -80 136 -30 16 -96 18 -117 5
-18 -12 -47 2 -61 30 -17 30 36 50 126 47 57 -3 79 -8 112 -30z"/>
</g>
</svg>
