<?xml version="1.0" standalone="no"?>
<!DOCTYPE svg PUBLIC "-//W3C//DTD SVG 20010904//EN"
 "http://www.w3.org/TR/2001/REC-SVG-20010904/DTD/svg10.dtd">
<svg version="1.0" xmlns="http://www.w3.org/2000/svg"
 width="192.000000pt" height="192.000000pt" viewBox="0 0 192.000000 192.000000"
 preserveAspectRatio="xMidYMid meet">
<metadata>
Created by potrace 1.16, written by Peter Selinger 2001-2019
</metadata>
<g transform="translate(0.000000,192.000000) scale(0.100000,-0.100000)"
fill="#000000" stroke="none">
811 c445 -92 729 -532 635 -987 -62 -301 -295 -546 -601 -630 -91 -26 -329
-26 -420 0 -291 80 -516 305 -596 596 -26 91 -26 329 0 420 120 433 542 692
982 601z"/>
<path d="M873 1370 c-114 -23 -230 -115 -285 -228 -41 -83 -51 -208 -23 -293
79 -245 345 -361 571 -249 168 82 258 267 220 449 -47 225 -259 365 -483 321z
m140 -142 c24 -28 21 -65 -8 -93 -39 -40 -97 -29 -116 22 -29 76 71 134 124
71z m-8 -213 c40 -39 29 -97 -22 -116 -58 -22 -116 36 -94 93 19 52 77 63 116
23z m2 -217 c47 -44 15 -118 -52 -118 -36 0 -75 36 -75 70 0 10 9 29 21 44 26
33 73 35 106 4z"/>
</g>
</svg>
