<?xml version="1.0" standalone="no"?>
<!DOCTYPE svg PUBLIC "-//W3C//DTD SVG 20010904//EN"
 "http://www.w3.org/TR/2001/REC-SVG-20010904/DTD/svg10.dtd">
<svg version="1.0" xmlns="http://www.w3.org/2000/svg"
 width="192.000000pt" height="192.000000pt" viewBox="0 0 192.000000 192.000000"
 preserveAspectRatio="xMidYMid meet">
<metadata>
Created by potrace 1.16, written by Peter Selinger 2001-2019
</metadata>
<g transform="translate(0.000000,192.000000) scale(0.100000,-0.100000)"
fill="#000000" stroke="none">
811 c445 -92 729 -532 635 -987 -62 -301 -295 -546 -601 -630 -91 -26 -329
-26 -420 0 -291 80 -516 305 -596 596 -26 91 -26 329 0 420 120 433 542 692
982 601z"/>
<path d="M940 1372 c-42 -13 -50 -33 -50 -119 0 -92 16 -123 65 -123 49 0 65
31 65 123 0 68 -3 87 -17 99 -23 19 -44 26 -63 20z"/>
<path d="M667 1252 c-32 -36 -21 -71 41 -134 66 -65 90 -71 128 -32 36 35 26
67 -40 132 -59 57 -99 67 -129 34z"/>
<path d="M1114 1218 c-66 -65 -76 -97 -40 -132 38 -39 62 -33 128 32 63 64 75
104 40 135 -34 31 -69 21 -128 -35z"/>
<path d="M565 1010 c-9 -10 -17 -31 -17 -45 0 -50 26 -65 119 -65 92 0 123 16
123 65 0 49 -31 65 -123 65 -71 0 -87 -3 -102 -20z"/>
<path d="M1140 1010 c-11 -11 -20 -31 -20 -45 0 -49 31 -65 123 -65 93 0 120
15 120 65 0 50 -27 65 -120 65 -70 0 -86 -3 -103 -20z"/>
<path d="M708 812 c-63 -64 -75 -104 -40 -135 36 -32 71 -21 134 41 65 66 71
90 33 127 -37 38 -61 32 -127 -33z"/>
<path d="M1075 845 c-37 -36 -28 -67 39 -132 59 -58 99 -68 129 -35 31 34 21
69 -35 128 -66 67 -97 76 -133 39z"/>
<path d="M910 780 c-17 -17 -20 -33 -20 -103 0 -93 15 -119 65 -119 50 0 65
26 65 119 0 92 -16 123 -65 123 -14 0 -34 -9 -45 -20z"/>
</g>
</svg>
