<?xml version="1.0" standalone="no"?>
<!DOCTYPE svg PUBLIC "-//W3C//DTD SVG 20010904//EN"
 "http://www.w3.org/TR/2001/REC-SVG-20010904/DTD/svg10.dtd">
<svg version="1.0" xmlns="http://www.w3.org/2000/svg"
 width="192.000000pt" height="192.000000pt" viewBox="0 0 192.000000 192.000000"
 preserveAspectRatio="xMidYMid meet">
<metadata>
Created by potrace 1.16, written by Peter Selinger 2001-2019
</metadata>
<g transform="translate(0.000000,192.000000) scale(0.100000,-0.100000)"
fill="#000000" stroke="none">
811 c445 -92 729 -532 635 -987 -62 -301 -295 -546 -601 -630 -91 -26 -329
-26 -420 0 -291 80 -516 305 -596 596 -26 91 -26 329 0 420 120 433 542 692
982 601z"/>
<path d="M834 1357 c-124 -60 -185 -180 -163 -320 5 -32 17 -75 27 -95 15 -32
23 -38 72 -49 86 -19 96 -37 105 -180 6 -99 10 -122 28 -140 29 -33 79 -31
106 3 18 23 21 41 21 125 0 54 4 109 9 122 15 39 49 64 96 71 23 4 50 15 58
24 28 31 50 130 45 201 -6 78 -31 131 -85 182 -58 56 -98 72 -188 76 -69 4
-87 1 -131 -20z"/>
</g>
</svg>
