<?xml version="1.0" standalone="no"?>
<!DOCTYPE svg PUBLIC "-//W3C//DTD SVG 20010904//EN"
 "http://www.w3.org/TR/2001/REC-SVG-20010904/DTD/svg10.dtd">
<svg version="1.0" xmlns="http://www.w3.org/2000/svg"
 width="192.000000pt" height="192.000000pt" viewBox="0 0 192.000000 192.000000"
 preserveAspectRatio="xMidYMid meet">
<metadata>
Created by potrace 1.16, written by Peter Selinger 2001-2019
</metadata>
<g transform="translate(0.000000,192.000000) scale(0.100000,-0.100000)"
fill="#000000" stroke="none">
811 c445 -92 729 -532 635 -987 -62 -301 -295 -546 -601 -630 -91 -26 -329
-26 -420 0 -291 80 -516 305 -596 596 -26 91 -26 329 0 420 120 433 542 692
982 601z"/>
<path d="M910 1361 c-14 -5 -83 -42 -155 -83 -175 -101 -175 -101 -175 -311 0
-225 -3 -220 215 -341 157 -87 163 -87 320 0 218 121 215 116 215 341 0 212 1
209 -182 314 -137 79 -189 96 -238 80z m180 -183 l125 -83 3 -125 c1 -69 1
-134 -2 -145 -6 -25 -235 -158 -263 -153 -38 7 -243 119 -253 139 -14 26 11
69 40 69 11 0 65 -22 120 -50 l99 -50 80 46 81 45 0 45 c0 29 -5 47 -14 50 -8
3 -41 -8 -75 -25 -33 -17 -68 -31 -76 -31 -9 0 -70 27 -135 61 -118 60 -138
78 -126 117 6 17 240 172 261 172 6 0 67 -37 135 -82z"/>
<path d="M903 1107 c-23 -12 -42 -26 -42 -32 1 -5 22 -22 47 -37 l47 -27 45
26 c25 14 49 29 54 34 8 7 -83 60 -101 59 -4 -1 -27 -11 -50 -23z"/>
</g>
</svg>
