<?xml version="1.0" standalone="no"?>
<!DOCTYPE svg PUBLIC "-//W3C//DTD SVG 20010904//EN"
 "http://www.w3.org/TR/2001/REC-SVG-20010904/DTD/svg10.dtd">
<svg version="1.0" xmlns="http://www.w3.org/2000/svg"
 width="192.000000pt" height="192.000000pt" viewBox="0 0 192.000000 192.000000"
 preserveAspectRatio="xMidYMid meet">
<metadata>
Created by potrace 1.16, written by Peter Selinger 2001-2019
</metadata>
<g transform="translate(0.000000,192.000000) scale(0.100000,-0.100000)"
fill="#000000" stroke="none">
811 c445 -92 729 -532 635 -987 -62 -301 -295 -546 -601 -630 -91 -26 -329
-26 -420 0 -291 80 -516 305 -596 596 -26 91 -26 329 0 420 120 433 542 692
982 601z"/>
<path d="M906 1348 c-11 -16 -16 -46 -16 -98 0 -67 3 -79 23 -98 30 -28 58
-28 85 1 19 20 22 35 22 98 0 91 -15 119 -65 119 -24 0 -39 -7 -49 -22z"/>
<path d="M667 1252 c-28 -31 -20 -65 24 -116 53 -60 89 -79 124 -66 14 5 30
21 35 35 13 35 -6 71 -66 124 -52 45 -90 53 -117 23z"/>
<path d="M1126 1229 c-60 -53 -79 -89 -66 -124 5 -14 21 -30 35 -35 35 -13 71
6 124 66 45 52 53 90 23 117 -31 28 -65 20 -116 -24z"/>
<path d="M572 1014 c-15 -10 -22 -25 -22 -49 0 -50 28 -65 120 -65 67 0 79 3
98 23 28 30 28 58 -1 85 -20 19 -35 22 -98 22 -51 0 -81 -5 -97 -16z"/>
<path d="M1142 1007 c-28 -30 -28 -58 1 -85 20 -19 35 -22 98 -22 91 0 119 15
119 65 0 50 -28 65 -120 65 -67 0 -79 -3 -98 -23z"/>
<path d="M754 851 c-47 -28 -104 -101 -104 -131 0 -33 28 -60 62 -60 32 0 120
77 138 120 10 25 10 34 -4 55 -9 14 -20 25 -25 25 -5 0 -15 2 -23 5 -7 3 -27
-3 -44 -14z"/>
<path d="M1092 859 c-29 -11 -42 -46 -30 -81 6 -15 32 -48 60 -73 55 -49 93
-58 121 -27 29 32 21 66 -28 120 -49 55 -88 74 -123 61z"/>
<path d="M912 777 c-19 -20 -22 -35 -22 -98 0 -91 15 -119 65 -119 50 0 65 28
65 120 0 67 -3 79 -23 98 -30 28 -58 28 -85 -1z"/>
</g>
</svg>
