<?xml version="1.0" standalone="no"?>
<!DOCTYPE svg PUBLIC "-//W3C//DTD SVG 20010904//EN"
 "http://www.w3.org/TR/2001/REC-SVG-20010904/DTD/svg10.dtd">
<svg version="1.0" xmlns="http://www.w3.org/2000/svg"
 width="192.000000pt" height="192.000000pt" viewBox="0 0 192.000000 192.000000"
 preserveAspectRatio="xMidYMid meet">
<metadata>
Created by potrace 1.16, written by Peter Selinger 2001-2019
</metadata>
<g transform="translate(0.000000,192.000000) scale(0.100000,-0.100000)"
fill="#000000" stroke="none">
811 c445 -92 729 -532 635 -987 -62 -301 -295 -546 -601 -630 -91 -26 -329
-26 -420 0 -291 80 -516 305 -596 596 -26 91 -26 329 0 420 120 433 542 692
982 601z"/>
<path d="M933 1369 c-33 -12 -43 -41 -43 -123 0 -85 18 -116 65 -116 48 0 65
31 65 118 0 104 -28 143 -87 121z"/>
<path d="M667 1252 c-31 -34 -21 -69 34 -127 57 -60 90 -73 124 -51 51 34 39
82 -39 154 -51 47 -91 55 -119 24z"/>
<path d="M1124 1228 c-78 -72 -90 -120 -39 -154 34 -22 67 -9 124 51 56 59 66
99 33 128 -32 29 -68 21 -118 -25z"/>
<path d="M565 1010 c-9 -10 -17 -31 -17 -45 0 -50 26 -65 119 -65 92 0 123 16
123 65 0 49 -31 65 -123 65 -71 0 -87 -3 -102 -20z"/>
<path d="M1140 1010 c-11 -11 -20 -31 -20 -45 0 -49 31 -65 123 -65 93 0 120
15 120 65 0 50 -27 65 -120 65 -70 0 -86 -3 -103 -20z"/>
<path d="M765 861 c-11 -5 -41 -31 -67 -59 -53 -56 -62 -96 -30 -125 36 -32
71 -21 134 41 65 66 71 90 33 127 -25 26 -37 29 -70 16z"/>
<path d="M1074 844 c-36 -35 -26 -67 40 -131 41 -40 62 -53 84 -53 35 0 62 27
62 64 0 43 -105 146 -150 146 -6 0 -22 -11 -36 -26z"/>
<path d="M910 780 c-17 -17 -20 -33 -20 -99 0 -91 17 -123 65 -123 48 0 65 32
65 123 0 88 -17 119 -65 119 -14 0 -34 -9 -45 -20z"/>
</g>
</svg>
