<?xml version="1.0" standalone="no"?>
<!DOCTYPE svg PUBLIC "-//W3C//DTD SVG 20010904//EN"
 "http://www.w3.org/TR/2001/REC-SVG-20010904/DTD/svg10.dtd">
<svg version="1.0" xmlns="http://www.w3.org/2000/svg"
 width="192.000000pt" height="192.000000pt" viewBox="0 0 192.000000 192.000000"
 preserveAspectRatio="xMidYMid meet">
<metadata>
Created by potrace 1.16, written by Peter Selinger 2001-2019
</metadata>
<g transform="translate(0.000000,192.000000) scale(0.100000,-0.100000)"
fill="#000000" stroke="none">
811 c445 -92 729 -532 635 -987 -62 -301 -295 -546 -601 -630 -91 -26 -329
-26 -420 0 -291 80 -516 305 -596 596 -26 91 -26 329 0 420 120 433 542 692
982 601z"/>
<path d="M915 1346 c-9 -13 -14 -29 -13 -36 2 -7 -12 -17 -32 -22 -89 -25
-129 -89 -130 -208 -1 -143 -41 -268 -100 -312 -36 -26 -45 -50 -30 -78 10
-18 20 -20 120 -20 l110 0 14 -33 c7 -19 26 -43 41 -55 55 -43 131 -17 161 55
l14 33 110 0 c100 0 110 2 120 20 15 28 6 52 -30 78 -59 44 -99 169 -100 312
-1 118 -45 190 -129 206 -24 5 -31 12 -31 30 0 52 -67 74 -95 30z"/>
</g>
</svg>
