<?xml version="1.0" standalone="no"?>
<!DOCTYPE svg PUBLIC "-//W3C//DTD SVG 20010904//EN"
 "http://www.w3.org/TR/2001/REC-SVG-20010904/DTD/svg10.dtd">
<svg version="1.0" xmlns="http://www.w3.org/2000/svg"
 width="192.000000pt" height="192.000000pt" viewBox="0 0 192.000000 192.000000"
 preserveAspectRatio="xMidYMid meet">
<metadata>
Created by potrace 1.16, written by Peter Selinger 2001-2019
</metadata>
<g transform="translate(0.000000,192.000000) scale(0.100000,-0.100000)"
fill="#000000" stroke="none">
811 c445 -92 729 -532 635 -987 -62 -301 -295 -546 -601 -630 -91 -26 -329
-26 -420 0 -291 80 -516 305 -596 596 -26 91 -26 329 0 420 120 433 542 692
982 601z"/>
<path d="M712 1313 c-59 -29 -77 -66 -80 -170 -4 -91 -5 -93 -28 -93 -13 0
-33 -9 -45 -21 -18 -18 -19 -23 -6 -42 14 -22 17 -22 391 -25 248 -1 384 1
396 8 43 23 15 80 -38 80 -18 0 -20 8 -24 89 -3 99 -16 127 -78 169 -32 21
-41 22 -244 22 -174 0 -217 -3 -244 -17z"/>
<path d="M664 895 c-50 -30 -74 -76 -74 -142 0 -77 53 -141 131 -158 76 -17
173 50 185 126 6 38 8 39 45 39 36 0 39 -2 49 -40 39 -147 233 -171 301 -37
54 105 -23 237 -138 237 -50 0 -117 -30 -133 -60 -9 -17 -21 -20 -74 -20 -54
0 -66 3 -87 26 -56 60 -135 71 -205 29z"/>
</g>
</svg>
