<?xml version="1.0" standalone="no"?>
<!DOCTYPE svg PUBLIC "-//W3C//DTD SVG 20010904//EN"
 "http://www.w3.org/TR/2001/REC-SVG-20010904/DTD/svg10.dtd">
<svg version="1.0" xmlns="http://www.w3.org/2000/svg"
 width="192.000000pt" height="192.000000pt" viewBox="0 0 192.000000 192.000000"
 preserveAspectRatio="xMidYMid meet">
<metadata>
Created by potrace 1.16, written by Peter Selinger 2001-2019
</metadata>
<g transform="translate(0.000000,192.000000) scale(0.100000,-0.100000)"
fill="#000000" stroke="none">
811 c445 -92 729 -532 635 -987 -62 -301 -295 -546 -601 -630 -91 -26 -329
-26 -420 0 -291 80 -516 305 -596 596 -26 91 -26 329 0 420 120 433 542 692
982 601z"/>
<path d="M598 1321 l-33 -29 0 -117 0 -117 33 -29 c32 -28 35 -29 145 -29 160
1 177 18 177 175 0 157 -17 174 -177 175 -110 0 -113 -1 -145 -29z"/>
<path d="M1019 1321 c-29 -29 -29 -31 -29 -146 0 -115 0 -117 29 -146 29 -29
31 -29 146 -29 115 0 117 0 146 29 29 29 29 31 29 146 0 115 0 117 -29 146
-29 29 -31 29 -146 29 -115 0 -117 0 -146 -29z"/>
<path d="M623 920 c-44 -18 -63 -67 -63 -163 0 -157 30 -187 185 -187 151 0
175 25 175 183 l0 109 -34 34 -34 34 -103 -1 c-57 0 -114 -4 -126 -9z"/>
<path d="M1024 896 l-34 -34 0 -109 c0 -158 24 -183 175 -183 155 0 185 30
185 187 0 70 -4 95 -20 121 -27 44 -54 52 -172 52 l-100 0 -34 -34z"/>
</g>
</svg>
