<?xml version="1.0" standalone="no"?>
<!DOCTYPE svg PUBLIC "-//W3C//DTD SVG 20010904//EN"
 "http://www.w3.org/TR/2001/REC-SVG-20010904/DTD/svg10.dtd">
<svg version="1.0" xmlns="http://www.w3.org/2000/svg"
 width="192.000000pt" height="192.000000pt" viewBox="0 0 192.000000 192.000000"
 preserveAspectRatio="xMidYMid meet">
<metadata>
Created by potrace 1.16, written by Peter Selinger 2001-2019
</metadata>
<g transform="translate(0.000000,192.000000) scale(0.100000,-0.100000)"
fill="#000000" stroke="none">
811 c445 -92 729 -532 635 -987 -62 -301 -295 -546 -601 -630 -91 -26 -329
-26 -420 0 -291 80 -516 305 -596 596 -26 91 -26 329 0 420 120 433 542 692
982 601z"/>
<path d="M855 1365 c-27 -8 -53 -14 -56 -15 -4 0 -34 -18 -68 -41 -185 -124
-237 -391 -111 -574 144 -210 438 -239 616 -61 203 204 142 545 -121 667 -78
37 -183 47 -260 24z m195 -176 c92 -41 140 -118 140 -221 -1 -111 -63 -201
-162 -234 -203 -67 -386 153 -288 346 23 46 93 107 135 119 53 16 128 12 175
-10z"/>
<path d="M887 1134 c-14 -14 -7 -48 16 -72 l22 -24 -22 -18 c-21 -17 -23 -27
-23 -120 l0 -101 72 3 c62 3 73 6 76 21 2 11 -8 31 -22 46 l-26 27 25 22 c25
22 26 26 23 120 l-3 97 -65 3 c-36 2 -69 0 -73 -4z"/>
</g>
</svg>
