<?xml version="1.0" standalone="no"?>
<!DOCTYPE svg PUBLIC "-//W3C//DTD SVG 20010904//EN"
 "http://www.w3.org/TR/2001/REC-SVG-20010904/DTD/svg10.dtd">
<svg version="1.0" xmlns="http://www.w3.org/2000/svg"
 width="192.000000pt" height="192.000000pt" viewBox="0 0 192.000000 192.000000"
 preserveAspectRatio="xMidYMid meet">
<metadata>
Created by potrace 1.16, written by Peter Selinger 2001-2019
</metadata>
<g transform="translate(0.000000,192.000000) scale(0.100000,-0.100000)"
fill="#000000" stroke="none">
811 c445 -92 729 -532 635 -987 -62 -301 -295 -546 -601 -630 -91 -26 -329
-26 -420 0 -291 80 -516 305 -596 596 -26 91 -26 329 0 420 120 433 542 692
982 601z"/>
<path d="M1106 1364 c-11 -10 -16 -34 -16 -73 l0 -58 -112 -5 c-148 -6 -203
-33 -251 -123 -17 -32 -22 -62 -25 -157 l-4 -118 -50 0 c-71 0 -108 -22 -108
-66 0 -37 31 -54 98 -54 l62 0 0 -58 c0 -69 19 -102 59 -102 44 0 61 27 61 98
l0 62 110 0 c127 0 160 10 213 65 49 51 67 114 67 237 l0 98 63 0 c49 0 68 4
80 18 44 49 -3 102 -89 102 l-54 0 0 53 c0 65 -20 97 -60 97 -16 0 -36 -7 -44
-16z m-88 -327 c58 -58 72 -78 72 -103 0 -17 -3 -34 -7 -38 -5 -5 -51 39 -105
95 -63 68 -92 106 -85 111 29 19 56 5 125 -65z m72 53 c0 -11 -2 -20 -3 -20
-2 0 -12 9 -22 20 -18 19 -17 20 3 20 15 0 22 -6 22 -20z m-89 -258 c-31 -3
-41 4 -108 70 -53 53 -73 79 -73 99 0 14 3 29 8 33 4 4 52 -39 107 -96 l100
-103 -34 -3z m-156 18 c18 -19 17 -20 -3 -20 -15 0 -22 6 -22 20 0 11 2 20 3
20 2 0 12 -9 22 -20z"/>
</g>
</svg>
