<?xml version="1.0" standalone="no"?>
<!DOCTYPE svg PUBLIC "-//W3C//DTD SVG 20010904//EN"
 "http://www.w3.org/TR/2001/REC-SVG-20010904/DTD/svg10.dtd">
<svg version="1.0" xmlns="http://www.w3.org/2000/svg"
 width="192.000000pt" height="192.000000pt" viewBox="0 0 192.000000 192.000000"
 preserveAspectRatio="xMidYMid meet">
<metadata>
Created by potrace 1.16, written by Peter Selinger 2001-2019
</metadata>
<g transform="translate(0.000000,192.000000) scale(0.100000,-0.100000)"
fill="#000000" stroke="none">
811 c445 -92 729 -532 635 -987 -62 -301 -295 -546 -601 -630 -91 -26 -329
-26 -420 0 -291 80 -516 305 -596 596 -26 91 -26 329 0 420 120 433 542 692
982 601z"/>
<path d="M870 1364 c-98 -26 -173 -89 -219 -184 -25 -52 -26 -63 -26 -215 0
-151 1 -163 25 -210 52 -103 72 -61 80 175 5 142 9 181 24 209 l18 34 21 -22
c20 -20 21 -29 18 -187 -3 -168 -16 -255 -46 -297 -8 -12 -15 -26 -15 -32 0
-11 70 -55 87 -55 13 0 61 106 73 160 5 25 10 111 10 193 l0 147 35 0 35 0 0
-168 c0 -175 -9 -232 -51 -315 l-19 -37 53 0 c29 0 60 6 69 13 29 22 51 108
56 215 l4 102 41 0 40 0 -6 -92 c-4 -51 -9 -111 -13 -133 l-7 -40 37 35 c20
19 49 60 64 90 25 50 27 67 30 192 4 155 -7 213 -58 290 -39 59 -119 113 -195
133 -71 18 -94 18 -165 -1z m188 -126 c74 -35 121 -117 122 -215 l0 -53 -40 0
-40 0 0 58 c0 115 -91 188 -191 153 -30 -10 -36 -9 -58 14 -31 31 -22 42 46
61 56 15 101 10 161 -18z"/>
</g>
</svg>
