<?xml version="1.0" standalone="no"?>
<!DOCTYPE svg PUBLIC "-//W3C//DTD SVG 20010904//EN"
 "http://www.w3.org/TR/2001/REC-SVG-20010904/DTD/svg10.dtd">
<svg version="1.0" xmlns="http://www.w3.org/2000/svg"
 width="192.000000pt" height="192.000000pt" viewBox="0 0 192.000000 192.000000"
 preserveAspectRatio="xMidYMid meet">
<metadata>
Created by potrace 1.16, written by Peter Selinger 2001-2019
</metadata>
<g transform="translate(0.000000,192.000000) scale(0.100000,-0.100000)"
fill="#000000" stroke="none">
811 c445 -92 729 -532 635 -987 -62 -301 -295 -546 -601 -630 -91 -26 -329
-26 -420 0 -291 80 -516 305 -596 596 -26 91 -26 329 0 420 120 433 542 692
982 601z"/>
<path d="M683 1349 c-49 -14 -98 -69 -112 -123 -14 -58 -2 -111 35 -156 44
-51 71 -60 194 -60 l110 0 0 110 c0 143 -22 187 -112 225 -42 17 -67 18 -115
4z"/>
<path d="M1110 1344 c-19 -8 -45 -25 -58 -37 -44 -41 -52 -69 -52 -187 l0
-110 110 0 c123 0 150 9 194 60 58 69 53 172 -10 236 -52 51 -121 66 -184 38z"/>
<path d="M665 906 c-42 -18 -82 -68 -96 -118 -30 -115 80 -235 196 -214 44 9
94 44 122 85 21 30 23 46 23 147 l0 114 -107 0 c-67 -1 -120 -6 -138 -14z"/>
<path d="M1000 806 c0 -101 2 -117 23 -147 66 -98 191 -114 270 -35 66 65 70
166 10 237 -41 48 -78 59 -198 59 l-105 0 0 -114z"/>
</g>
</svg>
