<?xml version="1.0" standalone="no"?>
<!DOCTYPE svg PUBLIC "-//W3C//DTD SVG 20010904//EN"
 "http://www.w3.org/TR/2001/REC-SVG-20010904/DTD/svg10.dtd">
<svg version="1.0" xmlns="http://www.w3.org/2000/svg"
 width="192.000000pt" height="192.000000pt" viewBox="0 0 192.000000 192.000000"
 preserveAspectRatio="xMidYMid meet">
<metadata>
Created by potrace 1.16, written by Peter Selinger 2001-2019
</metadata>
<g transform="translate(0.000000,192.000000) scale(0.100000,-0.100000)"
fill="#000000" stroke="none">
811 c445 -92 729 -532 635 -987 -62 -301 -295 -546 -601 -630 -91 -26 -329
-26 -420 0 -291 80 -516 305 -596 596 -26 91 -26 329 0 420 120 433 542 692
982 601z"/>
<path d="M598 1321 l-33 -29 0 -117 0 -117 33 -29 c32 -28 35 -29 145 -29 160
1 177 18 177 175 0 157 -19 175 -185 175 -102 0 -106 -1 -137 -29z"/>
<path d="M1019 1321 c-29 -29 -29 -31 -29 -146 0 -115 0 -117 29 -146 29 -29
31 -29 146 -29 115 0 117 0 146 29 29 29 29 31 29 146 0 115 0 117 -29 146
-29 29 -31 29 -146 29 -115 0 -117 0 -146 -29z"/>
<path d="M614 911 c-40 -25 -54 -65 -54 -161 0 -147 25 -172 170 -178 77 -2
102 0 130 15 50 26 60 53 60 172 l0 103 -34 34 -34 34 -103 0 c-85 0 -110 -4
-135 -19z"/>
<path d="M1024 896 l-34 -34 0 -103 c0 -119 10 -146 60 -172 28 -15 53 -17
130 -15 146 6 170 31 170 180 0 150 -30 178 -191 178 l-101 0 -34 -34z"/>
</g>
</svg>
