<?xml version="1.0" standalone="no"?>
<!DOCTYPE svg PUBLIC "-//W3C//DTD SVG 20010904//EN"
 "http://www.w3.org/TR/2001/REC-SVG-20010904/DTD/svg10.dtd">
<svg version="1.0" xmlns="http://www.w3.org/2000/svg"
 width="192.000000pt" height="192.000000pt" viewBox="0 0 192.000000 192.000000"
 preserveAspectRatio="xMidYMid meet">
<metadata>
Created by potrace 1.16, written by Peter Selinger 2001-2019
</metadata>
<g transform="translate(0.000000,192.000000) scale(0.100000,-0.100000)"
fill="#000000" stroke="none">
811 c445 -92 729 -532 635 -987 -62 -301 -295 -546 -601 -630 -91 -26 -329
-26 -420 0 -291 80 -516 305 -596 596 -26 91 -26 329 0 420 120 433 542 692
982 601z"/>
<path d="M877 1370 c-97 -25 -175 -87 -219 -178 l-33 -67 0 -160 c0 -155 1
-162 28 -218 16 -32 33 -54 39 -51 28 17 38 77 38 217 0 149 17 247 44 247 7
0 21 -8 30 -19 14 -15 15 -26 7 -62 -6 -24 -11 -110 -11 -190 0 -141 -1 -148
-29 -203 l-29 -57 22 -14 c11 -7 33 -19 49 -26 33 -15 45 -3 79 81 19 48 22
79 26 233 l4 177 34 0 34 0 0 -163 c0 -171 -11 -240 -50 -317 l-20 -40 60 0
c51 0 62 3 74 23 22 33 43 123 51 220 l7 87 36 0 35 0 -6 -87 c-4 -49 -10
-108 -13 -133 l-7 -45 37 35 c20 19 49 60 64 90 26 53 27 61 27 220 l0 165
-34 63 c-57 106 -155 169 -273 177 -35 2 -80 0 -101 -5z m201 -142 c59 -40 92
-101 99 -187 l6 -71 -35 0 -35 0 -7 63 c-7 68 -25 100 -76 135 -35 23 -97 30
-129 12 -14 -7 -24 -3 -46 20 l-28 30 34 15 c23 10 57 14 105 13 57 -3 79 -8
112 -30z"/>
</g>
</svg>
