<?xml version="1.0" standalone="no"?>
<!DOCTYPE svg PUBLIC "-//W3C//DTD SVG 20010904//EN"
 "http://www.w3.org/TR/2001/REC-SVG-20010904/DTD/svg10.dtd">
<svg version="1.0" xmlns="http://www.w3.org/2000/svg"
 width="192.000000pt" height="192.000000pt" viewBox="0 0 192.000000 192.000000"
 preserveAspectRatio="xMidYMid meet">
<metadata>
Created by potrace 1.16, written by Peter Selinger 2001-2019
</metadata>
<g transform="translate(0.000000,192.000000) scale(0.100000,-0.100000)"
fill="#000000" stroke="none">
811 c445 -92 729 -532 635 -987 -62 -301 -295 -546 -601 -630 -91 -26 -329
-26 -420 0 -291 80 -516 305 -596 596 -26 91 -26 329 0 420 120 433 542 692
982 601z"/>
<path d="M702 1327 c-42 -13 -98 -76 -111 -124 -19 -71 11 -145 79 -190 68
-47 152 -38 212 22 71 72 72 177 2 249 -49 51 -112 66 -182 43z"/>
<path d="M1090 1325 c-42 -19 -77 -51 -96 -87 -18 -34 -18 -109 0 -151 27 -66
120 -116 189 -102 79 17 147 97 147 175 0 50 -37 118 -79 146 -48 31 -115 39
-161 19z"/>
<path d="M690 929 c-135 -54 -138 -260 -6 -320 138 -63 285 57 246 200 -12 47
-51 96 -91 116 -32 17 -111 19 -149 4z"/>
<path d="M1072 923 c-86 -42 -119 -160 -68 -247 73 -124 253 -109 310 26 35
84 -2 181 -85 224 -37 19 -116 18 -157 -3z"/>
</g>
</svg>
