<?xml version="1.0" standalone="no"?>
<!DOCTYPE svg PUBLIC "-//W3C//DTD SVG 20010904//EN"
 "http://www.w3.org/TR/2001/REC-SVG-20010904/DTD/svg10.dtd">
<svg version="1.0" xmlns="http://www.w3.org/2000/svg"
 width="192.000000pt" height="192.000000pt" viewBox="0 0 192.000000 192.000000"
 preserveAspectRatio="xMidYMid meet">
<metadata>
Created by potrace 1.16, written by Peter Selinger 2001-2019
</metadata>
<g transform="translate(0.000000,192.000000) scale(0.100000,-0.100000)"
fill="#000000" stroke="none">
811 c445 -92 729 -532 635 -987 -62 -301 -295 -546 -601 -630 -91 -26 -329
-26 -420 0 -291 80 -516 305 -596 596 -26 91 -26 329 0 420 120 433 542 692
982 601z"/>
<path d="M634 1331 c-73 -33 -110 -111 -92 -194 10 -49 56 -104 100 -119 24
-9 27 -13 20 -36 -4 -15 -7 -61 -7 -102 1 -89 30 -155 94 -213 62 -56 97 -70
187 -75 72 -4 89 -1 136 20 73 34 122 79 152 141 32 67 41 132 27 199 -8 34
-8 54 -2 56 6 2 24 13 42 25 92 63 106 176 32 258 -64 71 -163 76 -234 12 -22
-20 -44 -52 -50 -72 l-11 -38 -74 0 -74 0 -10 33 c-16 48 -48 84 -94 105 -52
23 -90 23 -142 0z"/>
</g>
</svg>
