<?xml version="1.0" standalone="no"?>
<!DOCTYPE svg PUBLIC "-//W3C//DTD SVG 20010904//EN"
 "http://www.w3.org/TR/2001/REC-SVG-20010904/DTD/svg10.dtd">
<svg version="1.0" xmlns="http://www.w3.org/2000/svg"
 width="192.000000pt" height="192.000000pt" viewBox="0 0 192.000000 192.000000"
 preserveAspectRatio="xMidYMid meet">
<metadata>
Created by potrace 1.16, written by Peter Selinger 2001-2019
</metadata>
<g transform="translate(0.000000,192.000000) scale(0.100000,-0.100000)"
fill="#000000" stroke="none">
811 c445 -92 729 -532 635 -987 -62 -301 -295 -546 -601 -630 -91 -26 -329
-26 -420 0 -291 80 -516 305 -596 596 -26 91 -26 329 0 420 120 433 542 692
982 601z"/>
<path d="M658 1340 c-43 -13 -84 -47 -102 -84 -24 -50 -21 -126 7 -167 20 -30
71 -72 97 -81 6 -2 6 -16 0 -38 -40 -140 50 -317 184 -363 237 -81 456 117
403 364 -7 33 -5 36 27 51 106 51 128 201 41 277 -49 42 -104 57 -155 42 -55
-16 -107 -65 -121 -112 l-12 -38 -74 2 -75 2 -13 38 c-17 50 -41 76 -90 98
-43 20 -74 22 -117 9z"/>
</g>
</svg>
