<?xml version="1.0" standalone="no"?>
<!DOCTYPE svg PUBLIC "-//W3C//DTD SVG 20010904//EN"
 "http://www.w3.org/TR/2001/REC-SVG-20010904/DTD/svg10.dtd">
<svg version="1.0" xmlns="http://www.w3.org/2000/svg"
 width="192.000000pt" height="192.000000pt" viewBox="0 0 192.000000 192.000000"
 preserveAspectRatio="xMidYMid meet">
<metadata>
Created by potrace 1.16, written by Peter Selinger 2001-2019
</metadata>
<g transform="translate(0.000000,192.000000) scale(0.100000,-0.100000)"
fill="#000000" stroke="none">
811 c445 -92 729 -532 635 -987 -62 -301 -295 -546 -601 -630 -91 -26 -329
-26 -420 0 -291 80 -516 305 -596 596 -26 91 -26 329 0 420 120 433 542 692
982 601z"/>
<path d="M706 1306 c-58 -35 -75 -75 -76 -173 0 -77 -1 -83 -21 -83 -54 0 -82
-57 -40 -80 13 -6 153 -10 388 -10 398 0 408 1 401 51 -2 18 -12 26 -40 33
l-36 9 -4 88 c-3 97 -16 125 -78 167 -32 21 -42 22 -244 22 -204 0 -212 -1
-250 -24z"/>
<path d="M669 898 c-76 -43 -104 -158 -56 -228 69 -103 223 -97 277 11 11 21
20 48 20 59 0 19 5 21 42 18 39 -3 43 -6 49 -37 21 -104 150 -159 240 -103
134 82 86 285 -70 300 -41 4 -58 0 -94 -22 -25 -14 -47 -32 -51 -41 -4 -11
-21 -15 -69 -15 -56 0 -66 3 -88 26 -51 56 -137 69 -200 32z"/>
</g>
</svg>
