<?xml version="1.0" standalone="no"?>
<!DOCTYPE svg PUBLIC "-//W3C//DTD SVG 20010904//EN"
 "http://www.w3.org/TR/2001/REC-SVG-20010904/DTD/svg10.dtd">
<svg version="1.0" xmlns="http://www.w3.org/2000/svg"
 width="192.000000pt" height="192.000000pt" viewBox="0 0 192.000000 192.000000"
 preserveAspectRatio="xMidYMid meet">
<metadata>
Created by potrace 1.16, written by Peter Selinger 2001-2019
</metadata>
<g transform="translate(0.000000,192.000000) scale(0.100000,-0.100000)"
fill="#000000" stroke="none">
811 c445 -92 729 -532 635 -987 -62 -301 -295 -546 -601 -630 -91 -26 -329
-26 -420 0 -291 80 -516 305 -596 596 -26 91 -26 329 0 420 120 433 542 692
982 601z"/>
<path d="M877 1370 c-98 -25 -182 -95 -226 -189 -23 -50 -26 -70 -29 -186 -4
-144 6 -210 42 -269 l23 -39 19 28 c16 25 20 56 25 210 6 221 24 271 74 215
15 -17 16 -25 6 -64 -6 -25 -11 -109 -11 -188 0 -131 -2 -147 -25 -196 -14
-30 -25 -58 -25 -63 0 -5 20 -19 45 -31 44 -22 45 -22 60 -2 8 10 25 44 37 74
19 48 22 79 26 233 l4 177 34 0 34 0 0 -163 c0 -171 -11 -240 -50 -317 l-20
-40 53 0 c29 0 61 6 70 13 26 19 47 93 59 210 l12 107 34 0 35 0 -6 -87 c-4
-49 -10 -108 -13 -133 l-7 -45 37 35 c20 19 49 60 64 90 26 53 27 61 27 215 0
152 -1 163 -26 216 -53 113 -159 186 -281 194 -34 2 -80 0 -101 -5z m201 -142
c60 -40 94 -104 100 -189 l5 -69 -35 0 -35 0 -7 63 c-7 68 -25 100 -76 135
-35 23 -97 30 -129 12 -14 -7 -24 -3 -46 20 l-28 30 34 15 c23 10 57 14 105
13 57 -3 79 -8 112 -30z"/>
</g>
</svg>
