<?xml version="1.0" standalone="no"?>
<!DOCTYPE svg PUBLIC "-//W3C//DTD SVG 20010904//EN"
 "http://www.w3.org/TR/2001/REC-SVG-20010904/DTD/svg10.dtd">
<svg version="1.0" xmlns="http://www.w3.org/2000/svg"
 width="192.000000pt" height="192.000000pt" viewBox="0 0 192.000000 192.000000"
 preserveAspectRatio="xMidYMid meet">
<metadata>
Created by potrace 1.16, written by Peter Selinger 2001-2019
</metadata>
<g transform="translate(0.000000,192.000000) scale(0.100000,-0.100000)"
fill="#000000" stroke="none">
811 c445 -92 729 -532 635 -987 -62 -301 -295 -546 -601 -630 -91 -26 -329
-26 -420 0 -291 80 -516 305 -596 596 -26 91 -26 329 0 420 120 433 542 692
982 601z"/>
<path d="M601 1329 c-33 -31 -41 -61 -41 -154 0 -93 8 -123 41 -154 20 -19 35
-21 137 -21 124 0 144 6 167 50 21 40 21 210 0 250 -23 44 -43 50 -167 50
-102 0 -117 -2 -137 -21z"/>
<path d="M1019 1321 c-29 -29 -29 -31 -29 -146 0 -115 0 -117 29 -146 29 -29
31 -29 146 -29 115 0 117 0 146 29 29 29 29 31 29 146 0 115 0 117 -29 146
-29 29 -31 29 -146 29 -115 0 -117 0 -146 -29z"/>
<path d="M598 901 c-33 -29 -33 -30 -36 -134 -3 -81 0 -111 12 -136 27 -51 63
-63 183 -59 104 3 105 3 134 36 28 32 29 35 29 143 l0 111 -34 34 -34 34 -111
0 c-108 0 -111 -1 -143 -29z"/>
<path d="M1024 896 l-34 -34 0 -111 c0 -108 1 -111 29 -143 29 -33 30 -33 134
-36 173 -6 201 22 195 195 -3 104 -3 105 -36 134 -32 28 -35 29 -143 29 l-111
0 -34 -34z"/>
</g>
</svg>
