<?xml version="1.0" standalone="no"?>
<!DOCTYPE svg PUBLIC "-//W3C//DTD SVG 20010904//EN"
 "http://www.w3.org/TR/2001/REC-SVG-20010904/DTD/svg10.dtd">
<svg version="1.0" xmlns="http://www.w3.org/2000/svg"
 width="192.000000pt" height="192.000000pt" viewBox="0 0 192.000000 192.000000"
 preserveAspectRatio="xMidYMid meet">
<metadata>
Created by potrace 1.16, written by Peter Selinger 2001-2019
</metadata>
<g transform="translate(0.000000,192.000000) scale(0.100000,-0.100000)"
fill="#000000" stroke="none">
811 c445 -92 729 -532 635 -987 -62 -301 -295 -546 -601 -630 -91 -26 -329
-26 -420 0 -291 80 -516 305 -596 596 -26 91 -26 329 0 420 120 433 542 692
982 601z"/>
<path d="M598 1321 l-33 -29 0 -117 0 -117 33 -29 c32 -28 35 -29 145 -29 160
1 177 18 177 175 0 157 -17 174 -177 175 -110 0 -113 -1 -145 -29z"/>
<path d="M1019 1321 c-29 -29 -29 -31 -29 -146 0 -115 0 -117 29 -146 29 -29
31 -29 146 -29 115 0 117 0 146 29 29 29 29 31 29 146 0 115 0 117 -29 146
-29 29 -31 29 -146 29 -115 0 -117 0 -146 -29z"/>
<path d="M620 917 c-41 -21 -60 -71 -60 -165 0 -152 31 -182 187 -182 70 0 95
4 121 20 44 27 52 54 52 172 l0 100 -34 34 -34 34 -103 0 c-63 0 -114 -5 -129
-13z"/>
<path d="M1024 896 l-34 -34 0 -100 c0 -118 8 -145 52 -172 26 -16 51 -20 121
-20 109 0 152 16 172 64 23 55 20 203 -5 244 -27 44 -54 52 -172 52 l-100 0
-34 -34z"/>
</g>
</svg>
