<?xml version="1.0" standalone="no"?>
<!DOCTYPE svg PUBLIC "-//W3C//DTD SVG 20010904//EN"
 "http://www.w3.org/TR/2001/REC-SVG-20010904/DTD/svg10.dtd">
<svg version="1.0" xmlns="http://www.w3.org/2000/svg"
 width="192.000000pt" height="192.000000pt" viewBox="0 0 192.000000 192.000000"
 preserveAspectRatio="xMidYMid meet">
<metadata>
Created by potrace 1.16, written by Peter Selinger 2001-2019
</metadata>
<g transform="translate(0.000000,192.000000) scale(0.100000,-0.100000)"
fill="#000000" stroke="none">
811 c445 -92 729 -532 635 -987 -62 -301 -295 -546 -601 -630 -91 -26 -329
-26 -420 0 -291 80 -516 305 -596 596 -26 91 -26 329 0 420 120 433 542 692
982 601z"/>
<path d="M683 1349 c-18 -5 -48 -25 -68 -44 -80 -80 -64 -206 34 -272 30 -21
46 -23 147 -23 l114 0 0 110 c0 143 -22 187 -112 225 -42 17 -67 18 -115 4z"/>
<path d="M1110 1345 c-89 -40 -110 -83 -110 -225 l0 -110 110 0 c123 0 150 9
194 60 91 109 27 269 -115 285 -29 3 -56 0 -79 -10z"/>
<path d="M654 901 c-102 -62 -120 -195 -37 -277 79 -79 204 -63 270 35 21 30
23 46 23 147 l0 114 -112 0 c-93 0 -118 -3 -144 -19z"/>
<path d="M1000 806 c0 -101 2 -117 23 -147 66 -98 191 -114 270 -35 65 65 70
166 11 236 -44 51 -71 60 -194 60 l-110 0 0 -114z"/>
</g>
</svg>
