<?xml version="1.0" standalone="no"?>
<!DOCTYPE svg PUBLIC "-//W3C//DTD SVG 20010904//EN"
 "http://www.w3.org/TR/2001/REC-SVG-20010904/DTD/svg10.dtd">
<svg version="1.0" xmlns="http://www.w3.org/2000/svg"
 width="192.000000pt" height="192.000000pt" viewBox="0 0 192.000000 192.000000"
 preserveAspectRatio="xMidYMid meet">
<metadata>
Created by potrace 1.16, written by Peter Selinger 2001-2019
</metadata>
<g transform="translate(0.000000,192.000000) scale(0.100000,-0.100000)"
fill="#000000" stroke="none">
811 c445 -92 729 -532 635 -987 -62 -301 -295 -546 -601 -630 -91 -26 -329
-26 -420 0 -291 80 -516 305 -596 596 -26 91 -26 329 0 420 120 433 542 692
982 601z"/>
<path d="M906 1348 c-11 -16 -16 -46 -16 -100 0 -87 17 -118 65 -118 48 0 65
31 65 118 0 94 -15 122 -65 122 -24 0 -39 -7 -49 -22z"/>
<path d="M667 1252 c-30 -32 -21 -69 28 -121 59 -63 96 -79 129 -57 52 34 40
82 -38 154 -51 47 -91 55 -119 24z"/>
<path d="M1121 1225 c-63 -59 -79 -96 -57 -129 34 -52 82 -40 154 38 47 51 55
91 24 119 -32 30 -69 21 -121 -28z"/>
<path d="M570 1012 c-14 -11 -22 -29 -22 -47 0 -48 32 -65 123 -65 88 0 119
17 119 65 0 48 -31 65 -119 65 -61 0 -84 -4 -101 -18z"/>
<path d="M1140 1010 c-11 -11 -20 -31 -20 -45 0 -48 31 -65 119 -65 91 0 124
17 124 65 0 48 -33 65 -124 65 -66 0 -82 -3 -99 -20z"/>
<path d="M755 852 c-50 -31 -105 -99 -105 -130 0 -35 28 -62 64 -62 43 0 146
105 146 150 0 15 -46 60 -62 60 -7 0 -26 -8 -43 -18z"/>
<path d="M1092 860 c-12 -5 -27 -21 -32 -35 -13 -34 5 -68 64 -123 51 -47 91
-55 119 -24 29 32 21 68 -25 118 -35 38 -87 76 -100 73 -2 0 -13 -4 -26 -9z"/>
<path d="M910 780 c-17 -17 -20 -33 -20 -98 0 -94 15 -122 65 -122 50 0 65 28
65 122 0 87 -17 118 -65 118 -14 0 -34 -9 -45 -20z"/>
</g>
</svg>
