<?xml version="1.0" standalone="no"?>
<!DOCTYPE svg PUBLIC "-//W3C//DTD SVG 20010904//EN"
 "http://www.w3.org/TR/2001/REC-SVG-20010904/DTD/svg10.dtd">
<svg version="1.0" xmlns="http://www.w3.org/2000/svg"
 width="192.000000pt" height="192.000000pt" viewBox="0 0 192.000000 192.000000"
 preserveAspectRatio="xMidYMid meet">
<metadata>
Created by potrace 1.16, written by Peter Selinger 2001-2019
</metadata>
<g transform="translate(0.000000,192.000000) scale(0.100000,-0.100000)"
fill="#000000" stroke="none">
811 c445 -92 729 -532 635 -987 -62 -301 -295 -546 -601 -630 -91 -26 -329
-26 -420 0 -291 80 -516 305 -596 596 -26 91 -26 329 0 420 120 433 542 692
982 601z"/>
<path d="M682 1346 c-114 -41 -153 -184 -75 -277 41 -48 78 -59 198 -59 l105
0 0 110 c0 123 -9 150 -60 193 -29 25 -88 48 -120 46 -8 0 -30 -6 -48 -13z"/>
<path d="M1117 1345 c-22 -7 -50 -24 -64 -37 -45 -42 -53 -70 -53 -188 l0
-110 105 0 c120 0 157 11 198 59 59 70 55 171 -9 233 -55 54 -110 67 -177 43z"/>
<path d="M665 906 c-41 -18 -82 -68 -95 -116 -31 -114 81 -237 195 -216 44 9
94 44 122 85 21 30 23 46 23 147 l0 114 -107 0 c-67 -1 -120 -6 -138 -14z"/>
<path d="M1000 806 c0 -101 2 -117 23 -147 67 -99 188 -114 269 -33 66 66 71
164 11 235 -41 48 -78 59 -198 59 l-105 0 0 -114z"/>
</g>
</svg>
