<?xml version="1.0" standalone="no"?>
<!DOCTYPE svg PUBLIC "-//W3C//DTD SVG 20010904//EN"
 "http://www.w3.org/TR/2001/REC-SVG-20010904/DTD/svg10.dtd">
<svg version="1.0" xmlns="http://www.w3.org/2000/svg"
 width="192.000000pt" height="192.000000pt" viewBox="0 0 192.000000 192.000000"
 preserveAspectRatio="xMidYMid meet">
<metadata>
Created by potrace 1.16, written by Peter Selinger 2001-2019
</metadata>
<g transform="translate(0.000000,192.000000) scale(0.100000,-0.100000)"
fill="#000000" stroke="none">
811 c445 -92 729 -532 635 -987 -62 -301 -295 -546 -601 -630 -91 -26 -329
-26 -420 0 -291 80 -516 305 -596 596 -26 91 -26 329 0 420 120 433 542 692
982 601z"/>
<path d="M850 1364 c-114 -31 -206 -109 -262 -222 -31 -63 -33 -72 -33 -177 0
-104 2 -114 32 -176 78 -160 258 -256 427 -229 226 36 386 252 348 470 -43
243 -278 397 -512 334z m163 -136 c24 -28 21 -65 -8 -93 -39 -40 -97 -29 -116
22 -29 76 71 134 124 71z m-8 -213 c40 -39 29 -97 -22 -116 -58 -22 -116 36
-94 93 19 52 77 63 116 23z m4 -221 c12 -15 21 -34 21 -44 0 -10 -9 -29 -21
-44 -41 -52 -122 -23 -122 44 0 67 81 96 122 44z"/>
</g>
</svg>
