<?xml version="1.0" standalone="no"?>
<!DOCTYPE svg PUBLIC "-//W3C//DTD SVG 20010904//EN"
 "http://www.w3.org/TR/2001/REC-SVG-20010904/DTD/svg10.dtd">
<svg version="1.0" xmlns="http://www.w3.org/2000/svg"
 width="192.000000pt" height="192.000000pt" viewBox="0 0 192.000000 192.000000"
 preserveAspectRatio="xMidYMid meet">
<metadata>
Created by potrace 1.16, written by Peter Selinger 2001-2019
</metadata>
<g transform="translate(0.000000,192.000000) scale(0.100000,-0.100000)"
fill="#000000" stroke="none">
811 c445 -92 729 -532 635 -987 -62 -301 -295 -546 -601 -630 -91 -26 -329
-26 -420 0 -291 80 -516 305 -596 596 -26 91 -26 329 0 420 120 433 542 692
982 601z"/>
<path d="M598 1321 l-33 -29 0 -116 c0 -113 0 -115 29 -145 l30 -31 114 0 c62
0 122 5 133 10 36 20 49 63 49 165 0 102 -13 145 -49 165 -11 5 -69 10 -130
10 -108 0 -111 -1 -143 -29z"/>
<path d="M1019 1321 c-29 -29 -29 -31 -29 -146 0 -115 0 -117 29 -146 29 -29
31 -29 146 -29 115 0 117 0 146 29 29 29 29 31 29 146 0 115 0 117 -29 146
-29 29 -31 29 -146 29 -115 0 -117 0 -146 -29z"/>
<path d="M598 901 c-33 -29 -33 -30 -36 -134 -6 -167 23 -197 183 -197 151 0
175 25 175 183 l0 109 -34 34 -34 34 -111 0 c-108 0 -111 -1 -143 -29z"/>
<path d="M1024 896 l-34 -34 0 -109 c0 -158 24 -183 175 -183 160 0 189 30
183 197 -3 104 -3 105 -36 134 -32 28 -35 29 -143 29 l-111 0 -34 -34z"/>
</g>
</svg>
