<?xml version="1.0" standalone="no"?>
<!DOCTYPE svg PUBLIC "-//W3C//DTD SVG 20010904//EN"
 "http://www.w3.org/TR/2001/REC-SVG-20010904/DTD/svg10.dtd">
<svg version="1.0" xmlns="http://www.w3.org/2000/svg"
 width="192.000000pt" height="192.000000pt" viewBox="0 0 192.000000 192.000000"
 preserveAspectRatio="xMidYMid meet">
<metadata>
Created by potrace 1.16, written by Peter Selinger 2001-2019
</metadata>
<g transform="translate(0.000000,192.000000) scale(0.100000,-0.100000)"
fill="#000000" stroke="none">
811 c445 -92 729 -532 635 -987 -62 -301 -295 -546 -601 -630 -91 -26 -329
-26 -420 0 -291 80 -516 305 -596 596 -26 91 -26 329 0 420 120 433 542 692
982 601z"/>
<path d="M850 1185 l0 -155 130 0 130 0 0 155 0 155 -130 0 -130 0 0 -155z"/>
<path d="M674 1311 c-79 -48 -94 -103 -94 -346 0 -203 7 -251 47 -303 50 -66
76 -72 324 -72 206 0 226 2 267 21 26 13 54 38 70 62 23 35 27 53 30 129 l4
88 -36 0 c-36 0 -36 0 -36 -44 0 -61 -14 -94 -45 -102 -62 -15 -95 22 -95 107
l0 39 -161 0 c-161 0 -190 5 -216 39 -9 11 -12 73 -13 209 0 105 -3 192 -7
192 -5 0 -22 -9 -39 -19z"/>
<path d="M1250 1166 l0 -136 35 0 35 0 0 82 c0 83 -21 149 -56 178 -12 11 -14
-6 -14 -124z"/>
</g>
</svg>
