<?xml version="1.0" standalone="no"?>
<!DOCTYPE svg PUBLIC "-//W3C//DTD SVG 20010904//EN"
 "http://www.w3.org/TR/2001/REC-SVG-20010904/DTD/svg10.dtd">
<svg version="1.0" xmlns="http://www.w3.org/2000/svg"
 width="192.000000pt" height="192.000000pt" viewBox="0 0 192.000000 192.000000"
 preserveAspectRatio="xMidYMid meet">
<metadata>
Created by potrace 1.16, written by Peter Selinger 2001-2019
</metadata>
<g transform="translate(0.000000,192.000000) scale(0.100000,-0.100000)"
fill="#000000" stroke="none">
811 c445 -92 729 -532 635 -987 -62 -301 -295 -546 -601 -630 -91 -26 -329
-26 -420 0 -291 80 -516 305 -596 596 -26 91 -26 329 0 420 120 433 542 692
982 601z"/>
<path d="M906 1348 c-11 -16 -16 -46 -16 -98 0 -67 3 -79 23 -98 30 -28 61
-28 87 0 16 18 20 35 20 98 0 92 -15 120 -65 120 -24 0 -39 -7 -49 -22z"/>
<path d="M667 1252 c-30 -32 -21 -69 28 -121 59 -63 96 -79 129 -57 52 34 40
82 -38 154 -51 47 -91 55 -119 24z"/>
<path d="M1121 1225 c-63 -59 -79 -96 -57 -129 34 -52 82 -40 154 38 47 51 55
91 24 119 -32 30 -69 21 -121 -28z"/>
<path d="M572 1014 c-15 -10 -22 -25 -22 -49 0 -50 28 -65 120 -65 67 0 79 3
98 23 28 30 28 58 -1 85 -20 19 -35 22 -98 22 -51 0 -81 -5 -97 -16z"/>
<path d="M1142 1007 c-28 -30 -28 -58 1 -85 20 -19 35 -22 98 -22 91 0 119 15
119 65 0 50 -28 65 -120 65 -67 0 -79 -3 -98 -23z"/>
<path d="M755 852 c-50 -31 -105 -99 -105 -130 0 -35 28 -62 64 -62 43 0 146
105 146 150 0 15 -46 60 -62 60 -7 0 -26 -8 -43 -18z"/>
<path d="M1092 860 c-12 -5 -27 -21 -32 -35 -13 -34 5 -68 64 -123 51 -47 91
-55 119 -24 29 32 21 68 -25 118 -35 38 -87 76 -100 73 -2 0 -13 -4 -26 -9z"/>
<path d="M912 777 c-19 -20 -22 -35 -22 -98 0 -91 15 -119 65 -119 50 0 65 28
65 120 0 63 -4 80 -20 98 -27 28 -61 28 -88 -1z"/>
</g>
</svg>
