<?xml version="1.0" standalone="no"?>
<!DOCTYPE svg PUBLIC "-//W3C//DTD SVG 20010904//EN"
 "http://www.w3.org/TR/2001/REC-SVG-20010904/DTD/svg10.dtd">
<svg version="1.0" xmlns="http://www.w3.org/2000/svg"
 width="192.000000pt" height="192.000000pt" viewBox="0 0 192.000000 192.000000"
 preserveAspectRatio="xMidYMid meet">
<metadata>
Created by potrace 1.16, written by Peter Selinger 2001-2019
</metadata>
<g transform="translate(0.000000,192.000000) scale(0.100000,-0.100000)"
fill="#000000" stroke="none">
811 c445 -92 729 -532 635 -987 -62 -301 -295 -546 -601 -630 -91 -26 -329
-26 -420 0 -291 80 -516 305 -596 596 -26 91 -26 329 0 420 120 433 542 692
982 601z"/>
<path d="M775 1294 c-71 -42 -138 -83 -149 -92 -38 -34 -46 -74 -46 -242 0
-218 -3 -213 200 -331 110 -64 131 -73 175 -73 44 0 65 9 175 73 203 118 200
113 200 331 0 228 5 219 -211 343 -160 92 -171 92 -344 -9z m280 -168 c38 -23
75 -53 82 -66 15 -30 17 -146 3 -187 -8 -23 -30 -41 -94 -76 -45 -26 -86 -47
-91 -47 -5 0 -46 21 -91 47 -64 35 -86 53 -94 76 -14 41 -12 157 3 187 16 33
144 109 182 109 18 0 59 -18 100 -43z"/>
<path d="M905 1073 c-59 -31 -65 -41 -65 -114 l0 -68 57 -32 57 -33 55 31 56
31 3 67 c3 75 -3 87 -59 116 -46 23 -64 23 -104 2z"/>
</g>
</svg>
