<?xml version="1.0" standalone="no"?>
<!DOCTYPE svg PUBLIC "-//W3C//DTD SVG 20010904//EN"
 "http://www.w3.org/TR/2001/REC-SVG-20010904/DTD/svg10.dtd">
<svg version="1.0" xmlns="http://www.w3.org/2000/svg"
 width="192.000000pt" height="192.000000pt" viewBox="0 0 192.000000 192.000000"
 preserveAspectRatio="xMidYMid meet">
<metadata>
Created by potrace 1.16, written by Peter Selinger 2001-2019
</metadata>
<g transform="translate(0.000000,192.000000) scale(0.100000,-0.100000)"
fill="#000000" stroke="none">
811 c445 -92 729 -532 635 -987 -62 -301 -295 -546 -601 -630 -91 -26 -329
-26 -420 0 -291 80 -516 305 -596 596 -26 91 -26 329 0 420 120 433 542 692
982 601z"/>
<path d="M865 1367 c-95 -32 -160 -85 -206 -169 l-34 -63 0 -165 c0 -161 1
-166 28 -222 16 -32 32 -58 37 -58 4 0 15 18 24 40 12 31 16 75 16 183 0 149
17 247 44 247 7 0 21 -8 30 -19 14 -15 15 -26 7 -62 -6 -24 -11 -110 -11 -190
0 -141 -1 -148 -29 -203 l-29 -57 22 -14 c11 -7 33 -19 49 -26 33 -15 45 -3
79 81 19 48 22 79 26 233 l4 177 34 0 34 0 0 -163 c0 -171 -11 -240 -50 -317
-19 -37 -19 -40 -3 -41 45 -2 99 4 110 13 21 17 44 102 55 211 l12 107 34 0
35 0 -6 -92 c-4 -51 -11 -108 -16 -125 -5 -18 -6 -35 -1 -38 15 -9 89 86 110
144 19 50 21 73 18 206 -3 149 -3 150 -37 213 -58 108 -160 172 -281 178 -37
2 -82 -2 -105 -9z m217 -144 c58 -41 89 -101 96 -189 l5 -64 -35 0 -35 0 -7
63 c-7 68 -24 99 -77 135 -30 21 -42 23 -95 18 -56 -5 -64 -3 -84 19 l-23 25
34 15 c23 10 57 14 104 12 60 -2 77 -7 117 -34z"/>
</g>
</svg>
