<?xml version="1.0" standalone="no"?>
<!DOCTYPE svg PUBLIC "-//W3C//DTD SVG 20010904//EN"
 "http://www.w3.org/TR/2001/REC-SVG-20010904/DTD/svg10.dtd">
<svg version="1.0" xmlns="http://www.w3.org/2000/svg"
 width="192.000000pt" height="192.000000pt" viewBox="0 0 192.000000 192.000000"
 preserveAspectRatio="xMidYMid meet">
<metadata>
Created by potrace 1.16, written by Peter Selinger 2001-2019
</metadata>
<g transform="translate(0.000000,192.000000) scale(0.100000,-0.100000)"
fill="#000000" stroke="none">
811 c445 -92 729 -532 635 -987 -62 -301 -295 -546 -601 -630 -91 -26 -329
-26 -420 0 -291 80 -516 305 -596 596 -26 91 -26 329 0 420 120 433 542 692
982 601z"/>
<path d="M598 1321 l-33 -29 0 -117 0 -117 33 -29 c31 -28 35 -29 138 -29 165
0 184 18 184 176 0 155 -20 174 -185 174 -102 0 -106 -1 -137 -29z"/>
<path d="M1019 1321 c-29 -29 -29 -31 -29 -146 0 -115 0 -117 29 -146 29 -29
31 -29 146 -29 115 0 117 0 146 29 29 29 29 31 29 146 0 115 0 117 -29 146
-29 29 -31 29 -146 29 -115 0 -117 0 -146 -29z"/>
<path d="M614 911 c-41 -25 -54 -66 -54 -163 0 -88 16 -134 52 -158 35 -21
194 -26 240 -7 57 24 70 60 66 183 -3 98 -5 105 -31 131 -26 27 -33 28 -135
31 -92 2 -111 0 -138 -17z"/>
<path d="M1055 921 c-49 -20 -60 -47 -63 -156 -4 -122 9 -158 66 -182 46 -19
205 -14 240 7 37 24 52 70 52 159 0 151 -31 181 -182 180 -51 0 -102 -4 -113
-8z"/>
</g>
</svg>
