<?xml version="1.0" standalone="no"?>
<!DOCTYPE svg PUBLIC "-//W3C//DTD SVG 20010904//EN"
 "http://www.w3.org/TR/2001/REC-SVG-20010904/DTD/svg10.dtd">
<svg version="1.0" xmlns="http://www.w3.org/2000/svg"
 width="192.000000pt" height="192.000000pt" viewBox="0 0 192.000000 192.000000"
 preserveAspectRatio="xMidYMid meet">
<metadata>
Created by potrace 1.16, written by Peter Selinger 2001-2019
</metadata>
<g transform="translate(0.000000,192.000000) scale(0.100000,-0.100000)"
fill="#000000" stroke="none">
811 c445 -92 729 -532 635 -987 -62 -301 -295 -546 -601 -630 -91 -26 -329
-26 -420 0 -291 80 -516 305 -596 596 -26 91 -26 329 0 420 120 433 542 692
982 601z"/>
<path d="M924 1370 c-35 -8 -256 -131 -292 -164 -47 -42 -52 -64 -52 -242 0
-214 2 -218 144 -302 153 -91 196 -112 231 -112 35 0 78 21 231 112 142 84
144 88 144 302 0 224 4 217 -193 331 -126 72 -164 85 -213 75z m115 -236 c104
-58 101 -52 101 -169 0 -93 -2 -103 -22 -122 -39 -34 -134 -83 -163 -83 -29 0
-124 49 -162 83 -21 19 -23 29 -23 122 0 85 3 104 18 117 30 26 146 88 166 88
11 0 49 -16 85 -36z"/>
<path d="M888 1065 c-45 -30 -58 -52 -58 -99 0 -57 15 -80 71 -110 l53 -29 54
28 c57 30 72 53 72 111 0 47 -14 70 -60 99 -49 31 -84 31 -132 0z"/>
</g>
</svg>
