<?xml version="1.0" standalone="no"?>
<!DOCTYPE svg PUBLIC "-//W3C//DTD SVG 20010904//EN"
 "http://www.w3.org/TR/2001/REC-SVG-20010904/DTD/svg10.dtd">
<svg version="1.0" xmlns="http://www.w3.org/2000/svg"
 width="192.000000pt" height="192.000000pt" viewBox="0 0 192.000000 192.000000"
 preserveAspectRatio="xMidYMid meet">
<metadata>
Created by potrace 1.16, written by Peter Selinger 2001-2019
</metadata>
<g transform="translate(0.000000,192.000000) scale(0.100000,-0.100000)"
fill="#000000" stroke="none">
811 c445 -92 729 -532 635 -987 -62 -301 -295 -546 -601 -630 -91 -26 -329
-26 -420 0 -291 80 -516 305 -596 596 -26 91 -26 329 0 420 120 433 542 692
982 601z"/>
<path d="M850 1364 c-115 -31 -211 -112 -263 -222 -30 -63 -32 -74 -32 -177 0
-104 2 -114 32 -176 80 -162 262 -259 431 -229 133 23 243 102 301 217 120
239 -6 521 -264 588 -73 18 -133 18 -205 -1z m-63 -346 c33 -30 31 -80 -3
-107 -15 -12 -34 -21 -44 -21 -34 0 -70 39 -70 76 0 66 69 97 117 52z m218 -3
c14 -13 25 -36 25 -50 0 -33 -41 -75 -73 -75 -41 0 -71 32 -71 75 0 69 71 99
119 50z m206 14 c48 -25 43 -110 -8 -130 -37 -14 -52 -11 -78 16 -62 61 10
155 86 114z"/>
</g>
</svg>
