<?xml version="1.0" standalone="no"?>
<!DOCTYPE svg PUBLIC "-//W3C//DTD SVG 20010904//EN"
 "http://www.w3.org/TR/2001/REC-SVG-20010904/DTD/svg10.dtd">
<svg version="1.0" xmlns="http://www.w3.org/2000/svg"
 width="192.000000pt" height="192.000000pt" viewBox="0 0 192.000000 192.000000"
 preserveAspectRatio="xMidYMid meet">
<metadata>
Created by potrace 1.16, written by Peter Selinger 2001-2019
</metadata>
<g transform="translate(0.000000,192.000000) scale(0.100000,-0.100000)"
fill="#000000" stroke="none">
811 c445 -92 729 -532 635 -987 -62 -301 -295 -546 -601 -630 -91 -26 -329
-26 -420 0 -291 80 -516 305 -596 596 -26 91 -26 329 0 420 120 433 542 692
982 601z"/>
<path d="M870 1369 c-113 -22 -234 -116 -284 -223 -33 -70 -48 -170 -35 -244
20 -128 117 -254 236 -310 52 -24 69 -27 168 -27 100 0 115 3 166 28 161 79
247 224 237 401 -6 103 -38 176 -110 252 -100 106 -237 151 -378 123z m160
-409 l0 -221 -62 3 -63 3 -3 153 -3 152 -55 0 c-69 0 -75 13 -37 79 l28 51 98
0 97 0 0 -220z"/>
</g>
</svg>
