<?xml version="1.0" standalone="no"?>
<!DOCTYPE svg PUBLIC "-//W3C//DTD SVG 20010904//EN"
 "http://www.w3.org/TR/2001/REC-SVG-20010904/DTD/svg10.dtd">
<svg version="1.0" xmlns="http://www.w3.org/2000/svg"
 width="192.000000pt" height="192.000000pt" viewBox="0 0 192.000000 192.000000"
 preserveAspectRatio="xMidYMid meet">
<metadata>
Created by potrace 1.16, written by Peter Selinger 2001-2019
</metadata>
<g transform="translate(0.000000,192.000000) scale(0.100000,-0.100000)"
fill="#000000" stroke="none">
811 c445 -92 729 -532 635 -987 -62 -301 -295 -546 -601 -630 -91 -26 -329
-26 -420 0 -291 80 -516 305 -596 596 -26 91 -26 329 0 420 120 433 542 692
982 601z"/>
<path d="M853 1362 c-74 -26 -128 -65 -167 -120 -57 -77 -68 -129 -64 -294 3
-133 5 -147 31 -200 16 -32 32 -58 37 -58 4 0 15 18 24 40 12 31 16 75 16 183
0 149 17 247 44 247 7 0 21 -8 30 -19 14 -15 15 -26 7 -62 -6 -24 -11 -110
-11 -190 0 -141 -1 -148 -29 -203 l-29 -57 22 -14 c11 -7 33 -19 49 -26 33
-15 45 -3 79 81 19 48 22 79 26 233 l4 177 34 0 34 0 0 -162 c0 -169 -8 -221
-48 -310 -15 -36 -17 -48 -7 -51 18 -8 98 4 112 16 22 16 51 129 58 225 l8 92
35 0 35 0 -7 -93 c-3 -51 -10 -107 -15 -125 -5 -17 -6 -34 -1 -37 16 -10 88
83 109 141 21 53 22 73 19 209 -4 167 -14 202 -84 283 -78 92 -238 134 -351
94z m217 -134 c68 -41 100 -99 107 -193 l6 -65 -35 0 -35 0 -6 62 c-6 67 -24
99 -78 136 -29 21 -42 23 -94 19 -52 -5 -63 -3 -83 16 l-23 21 33 18 c21 11
56 17 93 18 51 0 69 -5 115 -32z"/>
</g>
</svg>
