<?xml version="1.0" standalone="no"?>
<!DOCTYPE svg PUBLIC "-//W3C//DTD SVG 20010904//EN"
 "http://www.w3.org/TR/2001/REC-SVG-20010904/DTD/svg10.dtd">
<svg version="1.0" xmlns="http://www.w3.org/2000/svg"
 width="192.000000pt" height="192.000000pt" viewBox="0 0 192.000000 192.000000"
 preserveAspectRatio="xMidYMid meet">
<metadata>
Created by potrace 1.16, written by Peter Selinger 2001-2019
</metadata>
<g transform="translate(0.000000,192.000000) scale(0.100000,-0.100000)"
fill="#000000" stroke="none">
811 c445 -92 729 -532 635 -987 -62 -301 -295 -546 -601 -630 -91 -26 -329
-26 -420 0 -291 80 -516 305 -596 596 -26 91 -26 329 0 420 120 433 542 692
982 601z"/>
<path d="M635 1350 c-11 -4 -31 -20 -45 -35 l-25 -27 -3 -311 c-4 -355 -3
-360 73 -397 38 -19 61 -20 316 -20 158 0 290 4 311 10 24 7 48 24 65 47 24
31 28 46 31 128 4 77 1 100 -16 138 -13 29 -31 52 -47 59 -25 11 -31 6 -191
-153 -110 -110 -162 -155 -154 -136 6 17 10 139 10 314 0 316 -4 337 -64 374
-25 15 -50 19 -136 18 -58 0 -114 -4 -125 -9z m167 -587 c41 -37 10 -103 -48
-103 -34 0 -64 28 -64 60 0 9 7 26 16 38 18 27 69 30 96 5z"/>
<path d="M1040 1224 l-40 -36 0 -219 c0 -121 3 -219 8 -219 4 0 70 62 146 139
131 132 138 141 143 185 l6 47 -70 69 c-64 64 -73 70 -111 70 -34 0 -49 -7
-82 -36z"/>
</g>
</svg>
