<?xml version="1.0" standalone="no"?>
<!DOCTYPE svg PUBLIC "-//W3C//DTD SVG 20010904//EN"
 "http://www.w3.org/TR/2001/REC-SVG-20010904/DTD/svg10.dtd">
<svg version="1.0" xmlns="http://www.w3.org/2000/svg"
 width="192.000000pt" height="192.000000pt" viewBox="0 0 192.000000 192.000000"
 preserveAspectRatio="xMidYMid meet">
<metadata>
Created by potrace 1.16, written by Peter Selinger 2001-2019
</metadata>
<g transform="translate(0.000000,192.000000) scale(0.100000,-0.100000)"
fill="#000000" stroke="none">
810 c245 -63 441 -223 549 -451 55 -116 75 -212 75 -354 0 -141 -20 -238 -75
-352 -86 -182 -215 -312 -396 -398 -116 -55 -212 -75 -354 -75 -142 0 -238 20
-354 75 -228 108 -388 304 -451 549 -28 110 -28 292 0 402 76 298 303 526 600
603 106 28 298 28 406 1z"/>
<path d="M830 1349 c-144 -57 -247 -182 -267 -324 -3 -28 -13 -55 -22 -62 -14
-10 -12 -16 18 -47 19 -20 40 -36 46 -36 6 0 27 16 46 36 31 33 33 36 17 48
-50 37 15 187 110 257 83 61 199 78 300 45 68 -23 144 -92 179 -164 37 -75 40
-191 6 -263 -62 -136 -209 -213 -353 -187 -63 11 -94 26 -157 74 -41 32 -47
34 -67 21 -45 -30 -25 -70 63 -126 76 -48 142 -64 240 -59 71 3 99 10 154 36
310 145 310 589 0 735 -59 27 -81 32 -163 34 -78 3 -105 -1 -150 -18z"/>
<path d="M875 1197 c-4 -9 -2 -24 5 -32 10 -12 7 -20 -14 -46 -14 -17 -26 -39
-26 -50 0 -18 8 -19 130 -19 146 0 152 4 105 66 -21 27 -24 38 -15 53 13 26
13 31 -5 31 -8 0 -19 -9 -25 -20 -8 -16 -21 -20 -57 -20 -39 0 -51 5 -69 28
-20 24 -23 25 -29 9z m45 -98 c0 -5 -4 -9 -10 -9 -5 0 -10 7 -10 16 0 8 5 12
10 9 6 -3 10 -10 10 -16z m120 0 c0 -5 -4 -9 -10 -9 -5 0 -10 7 -10 16 0 8 5
12 10 9 6 -3 10 -10 10 -16z"/>
<path d="M777 1034 c-4 -4 -7 -42 -7 -85 0 -77 10 -98 39 -80 19 12 11 165 -9
169 -9 1 -19 0 -23 -4z"/>
<path d="M1122 1028 c-18 -18 -16 -142 3 -158 12 -10 18 -10 30 0 22 18 17
163 -5 168 -9 1 -21 -3 -28 -10z"/>
<path d="M842 928 c3 -98 4 -103 26 -106 18 -3 22 -10 22 -41 0 -45 16 -64 42
-50 13 7 18 21 18 49 0 33 3 40 20 40 16 0 20 -7 20 -38 0 -46 15 -65 42 -51
13 7 18 21 18 49 0 32 4 39 23 42 21 3 22 8 25 106 l3 102 -131 0 -131 0 3
-102z"/>
</g>
</svg>
