<?xml version="1.0" standalone="no"?>
<!DOCTYPE svg PUBLIC "-//W3C//DTD SVG 20010904//EN"
 "http://www.w3.org/TR/2001/REC-SVG-20010904/DTD/svg10.dtd">
<svg version="1.0" xmlns="http://www.w3.org/2000/svg"
 width="192.000000pt" height="192.000000pt" viewBox="0 0 192.000000 192.000000"
 preserveAspectRatio="xMidYMid meet">
<metadata>
Created by potrace 1.16, written by Peter Selinger 2001-2019
</metadata>
<g transform="translate(0.000000,192.000000) scale(0.100000,-0.100000)"
fill="#000000" stroke="none">
811 c445 -92 729 -532 635 -987 -62 -301 -295 -546 -601 -630 -91 -26 -329
-26 -420 0 -291 80 -516 305 -596 596 -26 91 -26 329 0 420 120 433 542 692
982 601z"/>
<path d="M624 1296 c-29 -29 -34 -41 -34 -81 0 -47 2 -50 95 -144 52 -54 95
-101 95 -106 0 -5 -43 -52 -95 -106 -93 -94 -95 -97 -95 -144 0 -58 27 -99 75
-115 62 -20 92 -5 198 98 l97 96 98 -97 c77 -77 105 -99 133 -103 74 -12 144
56 135 130 -4 34 -19 53 -102 137 l-98 99 96 97 c103 105 120 140 99 196 -20
51 -58 77 -114 77 -49 0 -50 -1 -146 -95 -54 -52 -101 -95 -106 -95 -5 0 -52
43 -106 95 -94 93 -97 95 -144 95 -40 0 -52 -5 -81 -34z"/>
</g>
</svg>
