<?xml version="1.0" standalone="no"?>
<!DOCTYPE svg PUBLIC "-//W3C//DTD SVG 20010904//EN"
 "http://www.w3.org/TR/2001/REC-SVG-20010904/DTD/svg10.dtd">
<svg version="1.0" xmlns="http://www.w3.org/2000/svg"
 width="192.000000pt" height="192.000000pt" viewBox="0 0 192.000000 192.000000"
 preserveAspectRatio="xMidYMid meet">
<metadata>
Created by potrace 1.16, written by Peter Selinger 2001-2019
</metadata>
<g transform="translate(0.000000,192.000000) scale(0.100000,-0.100000)"
fill="#000000" stroke="none">
811 c445 -92 729 -532 635 -987 -62 -301 -295 -546 -601 -630 -91 -26 -329
-26 -420 0 -291 80 -516 305 -596 596 -26 91 -26 329 0 420 120 433 542 692
982 601z"/>
<path d="M716 1325 c-56 -20 -86 -45 -110 -91 -19 -35 -21 -60 -24 -249 -4
-271 9 -318 101 -368 39 -20 58 -22 248 -25 230 -4 271 2 325 50 63 55 64 62
64 323 0 187 -3 242 -14 264 -22 41 -80 88 -123 100 -58 17 -419 13 -467 -4z
m288 -150 c60 -29 83 -103 51 -165 -8 -16 -22 -33 -32 -38 -15 -9 -13 -18 17
-101 31 -88 32 -92 15 -111 -15 -17 -31 -20 -97 -20 -87 0 -118 11 -118 40 0
10 14 55 30 100 l30 82 -25 19 c-44 36 -51 120 -13 167 15 18 65 41 91 42 11
0 33 -7 51 -15z"/>
</g>
</svg>
