<?xml version="1.0" standalone="no"?>
<!DOCTYPE svg PUBLIC "-//W3C//DTD SVG 20010904//EN"
 "http://www.w3.org/TR/2001/REC-SVG-20010904/DTD/svg10.dtd">
<svg version="1.0" xmlns="http://www.w3.org/2000/svg"
 width="192.000000pt" height="192.000000pt" viewBox="0 0 192.000000 192.000000"
 preserveAspectRatio="xMidYMid meet">
<metadata>
Created by potrace 1.16, written by Peter Selinger 2001-2019
</metadata>
<g transform="translate(0.000000,192.000000) scale(0.100000,-0.100000)"
fill="#000000" stroke="none">
811 c445 -92 729 -532 635 -987 -62 -301 -295 -546 -601 -630 -91 -26 -329
-26 -420 0 -291 80 -516 305 -596 596 -26 91 -26 329 0 420 120 433 542 692
982 601z"/>
<path d="M1055 1333 c-133 -15 -229 -30 -242 -39 -22 -14 -23 -20 -25 -201
l-3 -187 -50 2 c-161 7 -235 -187 -112 -295 64 -56 159 -52 225 10 45 41 47
54 52 292 l5 230 150 17 c83 9 158 17 168 17 15 1 17 -11 17 -121 l0 -123 -59
0 c-66 0 -100 -18 -138 -74 -33 -48 -38 -101 -15 -154 54 -123 215 -142 293
-34 l29 40 0 308 c0 307 0 308 -22 323 -12 9 -29 15 -38 15 -8 -1 -114 -13
-235 -26z m188 -515 c24 -28 21 -65 -8 -93 -53 -54 -136 -8 -120 66 13 56 89
73 128 27z m-460 -26 c24 -21 22 -77 -3 -102 -45 -45 -120 -11 -120 53 0 66
71 95 123 49z"/>
</g>
</svg>
