<?xml version="1.0" standalone="no"?>
<!DOCTYPE svg PUBLIC "-//W3C//DTD SVG 20010904//EN"
 "http://www.w3.org/TR/2001/REC-SVG-20010904/DTD/svg10.dtd">
<svg version="1.0" xmlns="http://www.w3.org/2000/svg"
 width="192.000000pt" height="192.000000pt" viewBox="0 0 192.000000 192.000000"
 preserveAspectRatio="xMidYMid meet">
<metadata>
Created by potrace 1.16, written by Peter Selinger 2001-2019
</metadata>
<g transform="translate(0.000000,192.000000) scale(0.100000,-0.100000)"
fill="#000000" stroke="none">
811 c445 -92 729 -532 635 -987 -62 -301 -295 -546 -601 -630 -91 -26 -329
-26 -420 0 -291 80 -516 305 -596 596 -26 91 -26 329 0 420 120 433 542 692
982 601z"/>
<path d="M620 1272 c-19 -9 -45 -32 -57 -51 -22 -33 -23 -42 -23 -256 0 -214
1 -223 23 -256 44 -67 56 -69 403 -69 307 0 311 0 345 23 55 37 59 53 59 258
0 177 -1 188 -23 220 -32 49 -79 69 -160 69 -62 0 -75 4 -137 40 l-68 40 -164
0 c-135 0 -169 -3 -198 -18z m654 -158 c38 -38 10 -64 -69 -64 -59 0 -85 11
-85 36 0 28 32 44 85 44 35 0 59 -5 69 -16z m-466 -19 c29 -1 55 2 58 7 9 15
26 8 20 -7 -3 -9 3 -32 14 -53 33 -61 32 -62 -94 -62 l-113 0 5 28 c2 15 13
37 24 48 13 15 16 24 9 29 -6 3 -9 11 -5 16 3 5 11 6 17 2 7 -4 36 -8 65 -8z
m112 -170 c0 -101 -81 -161 -164 -123 -36 16 -54 47 -62 107 l-7 51 117 0 116
0 0 -35z m364 13 c8 -13 6 -22 -8 -37 -37 -40 -156 -23 -156 23 0 27 25 37 89
34 47 -2 67 -7 75 -20z m-6 -150 c16 -16 15 -33 -4 -52 -21 -22 -117 -22 -138
0 -38 38 -10 64 69 64 34 0 66 -5 73 -12z"/>
<path d="M747 1033 c-12 -11 -8 -23 8 -23 8 0 15 7 15 15 0 16 -12 20 -23 8z"/>
<path d="M846 1033 c-11 -11 -6 -23 9 -23 8 0 15 4 15 9 0 13 -16 22 -24 14z"/>
</g>
</svg>
