<?xml version="1.0" standalone="no"?>
<!DOCTYPE svg PUBLIC "-//W3C//DTD SVG 20010904//EN"
 "http://www.w3.org/TR/2001/REC-SVG-20010904/DTD/svg10.dtd">
<svg version="1.0" xmlns="http://www.w3.org/2000/svg"
 width="192.000000pt" height="192.000000pt" viewBox="0 0 192.000000 192.000000"
 preserveAspectRatio="xMidYMid meet">
<metadata>
Created by potrace 1.16, written by Peter Selinger 2001-2019
</metadata>
<g transform="translate(0.000000,192.000000) scale(0.100000,-0.100000)"
fill="#000000" stroke="none">
811 c445 -92 729 -532 635 -987 -62 -301 -295 -546 -601 -630 -91 -26 -329
-26 -420 0 -291 80 -516 305 -596 596 -26 91 -26 329 0 420 120 433 542 692
982 601z"/>
<path d="M628 1354 c-39 -21 -50 -70 -46 -203 3 -109 4 -114 31 -137 26 -22
37 -24 126 -24 92 0 99 1 122 26 23 25 24 31 24 166 l0 140 -28 24 c-25 21
-37 24 -115 24 -57 -1 -96 -6 -114 -16z"/>
<path d="M908 976 c-126 -216 -228 -399 -228 -405 0 -7 20 -11 49 -11 l49 0
226 390 c124 215 226 397 226 405 0 11 -12 15 -47 15 l-48 0 -227 -394z"/>
<path d="M1068 925 c-17 -10 -31 -29 -37 -53 -14 -48 -14 -196 -1 -244 16 -58
39 -68 151 -68 96 0 97 0 123 31 25 29 26 35 26 161 l0 130 -29 29 c-28 28
-33 29 -118 29 -58 -1 -97 -6 -115 -15z"/>
</g>
</svg>
