<?xml version="1.0" standalone="no"?>
<!DOCTYPE svg PUBLIC "-//W3C//DTD SVG 20010904//EN"
 "http://www.w3.org/TR/2001/REC-SVG-20010904/DTD/svg10.dtd">
<svg version="1.0" xmlns="http://www.w3.org/2000/svg"
 width="192.000000pt" height="192.000000pt" viewBox="0 0 192.000000 192.000000"
 preserveAspectRatio="xMidYMid meet">
<metadata>
Created by potrace 1.16, written by Peter Selinger 2001-2019
</metadata>
<g transform="translate(0.000000,192.000000) scale(0.100000,-0.100000)"
fill="#000000" stroke="none">
811 c445 -92 729 -532 635 -987 -62 -301 -295 -546 -601 -630 -91 -26 -329
-26 -420 0 -291 80 -516 305 -596 596 -26 91 -26 329 0 420 120 433 542 692
982 601z"/>
<path d="M980 1319 c-31 -12 -432 -598 -438 -641 -8 -50 40 -82 93 -62 9 4 39
40 66 80 l50 74 108 0 109 0 4 -60 c6 -89 50 -124 106 -84 21 14 22 22 22 135
l0 119 113 0 c131 0 157 10 157 64 0 57 -21 66 -153 66 l-117 0 0 95 0 95 118
0 c104 0 121 2 136 19 26 28 18 82 -14 98 -30 15 -321 17 -360 2z m-10 -329
l0 -90 -65 0 -66 0 61 90 c33 50 63 90 65 90 3 0 5 -40 5 -90z"/>
</g>
</svg>
