<?xml version="1.0" standalone="no"?>
<!DOCTYPE svg PUBLIC "-//W3C//DTD SVG 20010904//EN"
 "http://www.w3.org/TR/2001/REC-SVG-20010904/DTD/svg10.dtd">
<svg version="1.0" xmlns="http://www.w3.org/2000/svg"
 width="192.000000pt" height="192.000000pt" viewBox="0 0 192.000000 192.000000"
 preserveAspectRatio="xMidYMid meet">
<metadata>
Created by potrace 1.16, written by Peter Selinger 2001-2019
</metadata>
<g transform="translate(0.000000,192.000000) scale(0.100000,-0.100000)"
fill="#000000" stroke="none">
811 c445 -92 729 -532 635 -987 -62 -301 -295 -546 -601 -630 -91 -26 -329
-26 -420 0 -291 80 -516 305 -596 596 -26 91 -26 329 0 420 120 433 542 692
982 601z"/>
<path d="M934 1319 c-16 -5 -39 -19 -51 -31 -20 -23 -173 -263 -173 -273 0 -3
114 -5 254 -5 l254 0 16 -25 c9 -13 16 -27 16 -30 0 -3 -131 -5 -291 -5 l-291
0 16 25 c9 13 16 27 16 30 0 9 -124 5 -140 -5 -28 -18 2 -45 54 -48 25 -2 46
-6 46 -9 0 -4 -20 -39 -45 -79 -54 -86 -63 -120 -41 -162 32 -63 28 -62 389
-62 l329 0 35 35 c32 32 35 40 31 78 -4 26 -23 70 -52 117 l-47 75 53 5 c49 5
53 7 53 30 0 24 -3 25 -74 30 l-75 5 -82 134 c-46 74 -89 141 -97 148 -20 20
-69 31 -103 22z"/>
</g>
</svg>
