<?xml version="1.0" standalone="no"?>
<!DOCTYPE svg PUBLIC "-//W3C//DTD SVG 20010904//EN"
 "http://www.w3.org/TR/2001/REC-SVG-20010904/DTD/svg10.dtd">
<svg version="1.0" xmlns="http://www.w3.org/2000/svg"
 width="192.000000pt" height="192.000000pt" viewBox="0 0 192.000000 192.000000"
 preserveAspectRatio="xMidYMid meet">
<metadata>
Created by potrace 1.16, written by Peter Selinger 2001-2019
</metadata>
<g transform="translate(0.000000,192.000000) scale(0.100000,-0.100000)"
fill="#000000" stroke="none">
811 c445 -92 729 -532 635 -987 -62 -301 -295 -546 -601 -630 -91 -26 -329
-26 -420 0 -291 80 -516 305 -596 596 -26 91 -26 329 0 420 120 433 542 692
982 601z"/>
<path d="M851 1364 c-287 -77 -403 -413 -224 -648 45 -59 112 -107 191 -136
47 -18 73 -21 153 -18 83 3 104 8 161 36 253 125 311 459 112 658 -106 105
-253 146 -393 108z m-46 -510 c74 -97 224 -97 302 1 32 40 67 46 84 14 9 -18
6 -28 -18 -63 -16 -22 -51 -54 -78 -71 -44 -27 -56 -30 -134 -30 -100 0 -143
17 -203 78 -36 37 -50 82 -31 100 17 18 52 5 78 -29z"/>
</g>
</svg>
