<?xml version="1.0" standalone="no"?>
<!DOCTYPE svg PUBLIC "-//W3C//DTD SVG 20010904//EN"
 "http://www.w3.org/TR/2001/REC-SVG-20010904/DTD/svg10.dtd">
<svg version="1.0" xmlns="http://www.w3.org/2000/svg"
 width="192.000000pt" height="192.000000pt" viewBox="0 0 192.000000 192.000000"
 preserveAspectRatio="xMidYMid meet">
<metadata>
Created by potrace 1.16, written by Peter Selinger 2001-2019
</metadata>
<g transform="translate(0.000000,192.000000) scale(0.100000,-0.100000)"
fill="#000000" stroke="none">
811 c445 -92 729 -532 635 -987 -62 -301 -295 -546 -601 -630 -91 -26 -329
-26 -420 0 -291 80 -516 305 -596 596 -26 91 -26 329 0 420 120 433 542 692
982 601z"/>
<path d="M865 1366 c-202 -49 -338 -230 -322 -426 6 -73 42 -177 67 -192 11
-7 101 20 304 91 159 56 291 100 292 98 2 -1 -109 -65 -247 -142 -137 -77
-249 -145 -249 -152 0 -19 119 -72 185 -83 160 -26 337 59 418 200 38 67 60
163 54 235 -8 80 -25 135 -44 142 -10 4 -44 -8 -80 -27 l-63 -34 32 -33 c51
-52 21 -38 -48 23 -45 39 -64 63 -64 79 0 38 -56 94 -106 107 -44 12 -44 12
-44 58 0 41 -13 72 -29 69 -4 0 -29 -6 -56 -13z m126 -206 c11 -6 19 -21 19
-35 0 -20 -24 -45 -44 -45 -10 0 -36 32 -36 45 0 13 26 45 36 45 3 0 14 -5 25
-10z"/>
</g>
</svg>
