<?xml version="1.0" standalone="no"?>
<!DOCTYPE svg PUBLIC "-//W3C//DTD SVG 20010904//EN"
 "http://www.w3.org/TR/2001/REC-SVG-20010904/DTD/svg10.dtd">
<svg version="1.0" xmlns="http://www.w3.org/2000/svg"
 width="192.000000pt" height="192.000000pt" viewBox="0 0 192.000000 192.000000"
 preserveAspectRatio="xMidYMid meet">
<metadata>
Created by potrace 1.16, written by Peter Selinger 2001-2019
</metadata>
<g transform="translate(0.000000,192.000000) scale(0.100000,-0.100000)"
fill="#000000" stroke="none">
811 c445 -92 729 -532 635 -987 -62 -301 -295 -546 -601 -630 -91 -26 -329
-26 -420 0 -291 80 -516 305 -596 596 -26 91 -26 329 0 420 120 433 542 692
982 601z"/>
<path d="M784 1272 c-112 -82 -184 -218 -184 -348 0 -26 -9 -58 -25 -85 -30
-53 -32 -94 -6 -109 11 -5 42 -10 69 -10 36 0 70 -10 123 -35 144 -67 287 -68
426 -1 69 34 173 118 173 141 0 9 -35 14 -132 18 -136 5 -211 22 -257 56 l-23
18 196 144 c169 124 219 169 189 169 -4 0 -91 -29 -193 -64 -279 -96 -279 -96
-286 -84 -3 5 -5 55 -3 111 5 118 -2 126 -67 79z"/>
</g>
</svg>
