<?xml version="1.0" standalone="no"?>
<!DOCTYPE svg PUBLIC "-//W3C//DTD SVG 20010904//EN"
 "http://www.w3.org/TR/2001/REC-SVG-20010904/DTD/svg10.dtd">
<svg version="1.0" xmlns="http://www.w3.org/2000/svg"
 width="192.000000pt" height="192.000000pt" viewBox="0 0 192.000000 192.000000"
 preserveAspectRatio="xMidYMid meet">
<metadata>
Created by potrace 1.16, written by Peter Selinger 2001-2019
</metadata>
<g transform="translate(0.000000,192.000000) scale(0.100000,-0.100000)"
fill="#000000" stroke="none">
811 c445 -92 729 -532 635 -987 -62 -301 -295 -546 -601 -630 -91 -26 -329
-26 -420 0 -291 80 -516 305 -596 596 -26 91 -26 329 0 420 120 433 542 692
982 601z"/>
<path d="M779 1266 c-109 -80 -179 -219 -179 -354 0 -22 -10 -53 -25 -77 -27
-44 -32 -84 -13 -103 7 -7 36 -12 65 -12 40 0 72 -9 126 -34 200 -94 397 -67
561 78 73 65 63 76 -68 76 -58 0 -129 5 -158 11 -53 11 -122 41 -132 57 -2 4
83 73 190 151 107 79 194 147 194 151 0 15 -13 18 -39 8 -61 -24 -431 -148
-442 -148 -9 0 -10 29 -6 109 5 92 3 110 -10 115 -18 7 -11 11 -64 -28z"/>
</g>
</svg>
