<?xml version="1.0" standalone="no"?>
<!DOCTYPE svg PUBLIC "-//W3C//DTD SVG 20010904//EN"
 "http://www.w3.org/TR/2001/REC-SVG-20010904/DTD/svg10.dtd">
<svg version="1.0" xmlns="http://www.w3.org/2000/svg"
 width="192.000000pt" height="192.000000pt" viewBox="0 0 192.000000 192.000000"
 preserveAspectRatio="xMidYMid meet">
<metadata>
Created by potrace 1.16, written by Peter Selinger 2001-2019
</metadata>
<g transform="translate(0.000000,192.000000) scale(0.100000,-0.100000)"
fill="#000000" stroke="none">
811 c445 -92 729 -532 635 -987 -62 -301 -295 -546 -601 -630 -91 -26 -329
-26 -420 0 -291 80 -516 305 -596 596 -26 91 -26 329 0 420 120 433 542 692
982 601z"/>
<path d="M918 1380 c-45 -8 -61 -19 -221 -143 l-128 -100 3 -222 3 -222 30
-48 c20 -32 45 -56 75 -72 44 -24 49 -24 286 -21 l241 3 40 27 c26 17 50 45
67 79 26 52 26 56 26 266 l0 212 -136 106 c-178 138 -204 150 -286 135z m387
-265 c-16 -14 -144 -113 -283 -221 -208 -161 -257 -195 -276 -190 -26 6 -39
28 -30 50 3 8 41 42 85 76 44 34 77 65 74 70 -3 5 -65 55 -138 111 -72 56
-139 108 -147 115 -12 12 46 14 365 14 l380 -1 -30 -24z"/>
</g>
</svg>
