<?xml version="1.0" standalone="no"?>
<!DOCTYPE svg PUBLIC "-//W3C//DTD SVG 20010904//EN"
 "http://www.w3.org/TR/2001/REC-SVG-20010904/DTD/svg10.dtd">
<svg version="1.0" xmlns="http://www.w3.org/2000/svg"
 width="192.000000pt" height="192.000000pt" viewBox="0 0 192.000000 192.000000"
 preserveAspectRatio="xMidYMid meet">
<metadata>
Created by potrace 1.16, written by Peter Selinger 2001-2019
</metadata>
<g transform="translate(0.000000,192.000000) scale(0.100000,-0.100000)"
fill="#000000" stroke="none">
811 c445 -92 729 -532 635 -987 -62 -301 -295 -546 -601 -630 -91 -26 -329
-26 -420 0 -291 80 -516 305 -596 596 -26 91 -26 329 0 420 120 433 542 692
982 601z"/>
<path d="M901 1304 c-17 -14 -31 -29 -31 -34 0 -4 -25 -60 -56 -124 l-56 -117
-19 30 c-10 16 -29 37 -43 46 -52 34 -126 -13 -126 -79 0 -35 41 -106 83 -145
l26 -24 -24 -48 c-31 -60 -32 -100 -2 -134 16 -19 33 -27 59 -28 45 -1 63 13
94 75 25 48 25 49 62 41 47 -10 115 -10 169 0 l43 7 25 -51 c28 -53 76 -85
112 -72 64 22 80 87 41 167 l-21 44 41 50 c76 90 118 208 96 267 -8 19 -55 45
-83 45 -33 0 -75 -44 -88 -92 -7 -25 -21 -55 -32 -69 l-19 -24 -65 137 c-38
80 -73 141 -85 147 -34 18 -68 13 -101 -15z m82 -319 c24 -51 22 -55 -28 -55
-25 0 -45 2 -45 5 0 13 41 85 48 85 5 0 16 -16 25 -35z"/>
</g>
</svg>
