<?xml version="1.0" standalone="no"?>
<!DOCTYPE svg PUBLIC "-//W3C//DTD SVG 20010904//EN"
 "http://www.w3.org/TR/2001/REC-SVG-20010904/DTD/svg10.dtd">
<svg version="1.0" xmlns="http://www.w3.org/2000/svg"
 width="192.000000pt" height="192.000000pt" viewBox="0 0 192.000000 192.000000"
 preserveAspectRatio="xMidYMid meet">
<metadata>
Created by potrace 1.16, written by Peter Selinger 2001-2019
</metadata>
<g transform="translate(0.000000,192.000000) scale(0.100000,-0.100000)"
fill="#000000" stroke="none">
811 c445 -92 729 -532 635 -987 -62 -301 -295 -546 -601 -630 -91 -26 -329
-26 -420 0 -291 80 -516 305 -596 596 -26 91 -26 329 0 420 120 433 542 692
982 601z"/>
<path d="M872 1369 c-209 -41 -359 -254 -325 -462 23 -137 110 -253 232 -311
61 -29 74 -31 176 -31 104 0 114 2 176 32 80 40 159 120 197 200 24 52 27 69
27 168 0 102 -2 115 -31 176 -81 170 -267 265 -452 228z m216 -140 c133 -66
194 -221 145 -365 -23 -67 -110 -154 -177 -177 -195 -67 -396 72 -396 273 0
95 23 155 85 216 61 61 114 82 211 83 60 1 80 -4 132 -30z"/>
<path d="M849 1162 c-125 -65 -158 -234 -66 -338 73 -84 192 -105 283 -49 71
44 109 110 109 189 -2 175 -172 278 -326 198z m169 -138 c30 -35 30 -87 -3
-119 -52 -53 -149 -16 -149 58 0 85 96 123 152 61z"/>
<path d="M927 993 c-4 -3 -7 -17 -7 -29 0 -29 36 -42 57 -21 21 21 8 57 -21
57 -12 0 -26 -3 -29 -7z"/>
</g>
</svg>
