<?xml version="1.0" standalone="no"?>
<!DOCTYPE svg PUBLIC "-//W3C//DTD SVG 20010904//EN"
 "http://www.w3.org/TR/2001/REC-SVG-20010904/DTD/svg10.dtd">
<svg version="1.0" xmlns="http://www.w3.org/2000/svg"
 width="192.000000pt" height="192.000000pt" viewBox="0 0 192.000000 192.000000"
 preserveAspectRatio="xMidYMid meet">
<metadata>
Created by potrace 1.16, written by Peter Selinger 2001-2019
</metadata>
<g transform="translate(0.000000,192.000000) scale(0.100000,-0.100000)"
fill="#000000" stroke="none">
811 c445 -92 729 -532 635 -987 -62 -301 -295 -546 -601 -630 -91 -26 -329
-26 -420 0 -291 80 -516 305 -596 596 -26 91 -26 329 0 420 120 433 542 692
982 601z"/>
<path d="M1247 1365 c-63 -17 -77 -30 -77 -73 0 -28 -8 -45 -36 -73 l-35 -36
-57 23 c-31 12 -93 27 -137 33 -99 14 -145 28 -145 46 0 8 -11 26 -24 42 -19
22 -32 28 -65 28 -78 0 -112 -71 -67 -138 26 -37 26 -41 26 -220 l0 -183 -45
-44 c-25 -24 -45 -50 -45 -57 0 -8 14 -16 30 -20 23 -4 35 -15 45 -39 8 -21
21 -34 36 -36 16 -2 25 -13 31 -35 12 -45 35 -42 88 12 l44 45 179 0 c176 0
180 0 209 -25 36 -30 76 -32 111 -5 52 41 43 118 -18 147 -40 19 -48 38 -69
169 -8 51 -23 112 -34 137 l-20 45 37 36 c29 28 45 36 74 36 45 0 61 21 78
107 19 93 -3 109 -114 78z m-367 -240 c56 -8 108 -19 115 -23 9 -5 -28 -50
-115 -141 -122 -128 -128 -133 -158 -126 l-32 7 0 168 0 169 43 -19 c24 -11
90 -26 147 -35z m235 -236 c9 -57 25 -123 35 -146 l19 -43 -168 0 -169 0 -7
27 c-6 24 6 39 127 160 92 92 135 129 140 120 4 -8 14 -60 23 -118z"/>
</g>
</svg>
