<?xml version="1.0" standalone="no"?>
<!DOCTYPE svg PUBLIC "-//W3C//DTD SVG 20010904//EN"
 "http://www.w3.org/TR/2001/REC-SVG-20010904/DTD/svg10.dtd">
<svg version="1.0" xmlns="http://www.w3.org/2000/svg"
 width="192.000000pt" height="192.000000pt" viewBox="0 0 192.000000 192.000000"
 preserveAspectRatio="xMidYMid meet">
<metadata>
Created by potrace 1.16, written by Peter Selinger 2001-2019
</metadata>
<g transform="translate(0.000000,192.000000) scale(0.100000,-0.100000)"
fill="#000000" stroke="none">
811 c445 -92 729 -532 635 -987 -62 -301 -295 -546 -601 -630 -91 -26 -329
-26 -420 0 -291 80 -516 305 -596 596 -26 91 -26 329 0 420 120 433 542 692
982 601z"/>
<path d="M796 1359 l-26 -20 0 -258 c0 -283 3 -301 59 -301 50 0 61 25 61 138
l0 102 60 0 60 0 0 -103 c0 -114 10 -137 62 -137 56 0 58 12 58 303 0 324 16
297 -176 297 -118 0 -134 -2 -158 -21z m214 -159 l0 -60 -60 0 -60 0 0 53 c0
30 3 57 7 60 3 4 30 7 60 7 l53 0 0 -60z"/>
<path d="M607 822 c-31 -34 -21 -67 39 -131 170 -183 448 -183 618 0 61 65 71
102 38 132 -34 31 -65 21 -115 -37 -66 -76 -136 -109 -232 -109 -96 0 -166 33
-232 109 -51 59 -86 70 -116 36z"/>
</g>
</svg>
