<?xml version="1.0" standalone="no"?>
<!DOCTYPE svg PUBLIC "-//W3C//DTD SVG 20010904//EN"
 "http://www.w3.org/TR/2001/REC-SVG-20010904/DTD/svg10.dtd">
<svg version="1.0" xmlns="http://www.w3.org/2000/svg"
 width="192.000000pt" height="192.000000pt" viewBox="0 0 192.000000 192.000000"
 preserveAspectRatio="xMidYMid meet">
<metadata>
Created by potrace 1.16, written by Peter Selinger 2001-2019
</metadata>
<g transform="translate(0.000000,192.000000) scale(0.100000,-0.100000)"
fill="#000000" stroke="none">
811 c445 -92 729 -532 635 -987 -62 -301 -295 -546 -601 -630 -91 -26 -329
-26 -420 0 -291 80 -516 305 -596 596 -26 91 -26 329 0 420 120 433 542 692
982 601z"/>
<path d="M695 1321 c-47 -22 -89 -64 -104 -104 -6 -16 -11 -77 -11 -136 l0
-108 30 -7 c17 -3 42 -17 55 -30 21 -21 30 -24 51 -16 43 17 146 12 186 -9
l36 -18 7 61 c3 34 11 92 16 130 10 58 9 70 -4 84 -13 13 -19 13 -31 2 -19
-15 -46 2 -46 30 0 49 106 71 134 28 32 -49 68 -183 79 -295 13 -134 9 -145
-55 -154 -24 -4 -69 -17 -99 -30 -44 -20 -71 -24 -144 -24 -49 1 -99 6 -111
12 -17 10 -28 9 -57 -5 -20 -9 -36 -20 -37 -24 0 -17 68 -83 105 -99 35 -16
69 -19 260 -19 239 0 272 7 322 61 48 52 53 84 53 314 0 230 -5 262 -53 314
-50 54 -83 61 -322 61 -193 0 -225 -3 -260 -19z"/>
</g>
</svg>
