<?xml version="1.0" standalone="no"?>
<!DOCTYPE svg PUBLIC "-//W3C//DTD SVG 20010904//EN"
 "http://www.w3.org/TR/2001/REC-SVG-20010904/DTD/svg10.dtd">
<svg version="1.0" xmlns="http://www.w3.org/2000/svg"
 width="192.000000pt" height="192.000000pt" viewBox="0 0 192.000000 192.000000"
 preserveAspectRatio="xMidYMid meet">
<metadata>
Created by potrace 1.16, written by Peter Selinger 2001-2019
</metadata>
<g transform="translate(0.000000,192.000000) scale(0.100000,-0.100000)"
fill="#000000" stroke="none">
811 c445 -92 729 -532 635 -987 -62 -301 -295 -546 -601 -630 -91 -26 -329
-26 -420 0 -291 80 -516 305 -596 596 -26 91 -26 329 0 420 120 433 542 692
982 601z"/>
<path d="M910 1366 c-55 -20 -263 -144 -287 -172 -32 -35 -43 -86 -43 -199 l0
-100 23 40 c17 30 45 53 117 97 52 31 98 57 103 57 4 1 7 -109 7 -243 l0 -244
36 -23 c53 -32 110 -35 164 -7 l45 23 3 248 c1 136 5 247 9 247 10 0 142 -79
182 -108 18 -13 39 -39 47 -56 12 -29 13 -22 14 81 0 172 -5 180 -194 287
-144 82 -174 92 -226 72z"/>
<path d="M745 988 c-115 -64 -155 -108 -155 -168 0 -62 35 -103 143 -164 l47
-27 0 186 c0 102 -3 185 -7 185 -5 0 -17 -6 -28 -12z"/>
<path d="M1140 820 c0 -99 3 -180 7 -180 4 0 38 18 76 41 57 34 73 49 89 86
34 77 4 135 -103 198 -33 19 -62 35 -65 35 -2 0 -4 -81 -4 -180z"/>
</g>
</svg>
