<?xml version="1.0" standalone="no"?>
<!DOCTYPE svg PUBLIC "-//W3C//DTD SVG 20010904//EN"
 "http://www.w3.org/TR/2001/REC-SVG-20010904/DTD/svg10.dtd">
<svg version="1.0" xmlns="http://www.w3.org/2000/svg"
 width="192.000000pt" height="192.000000pt" viewBox="0 0 192.000000 192.000000"
 preserveAspectRatio="xMidYMid meet">
<metadata>
Created by potrace 1.16, written by Peter Selinger 2001-2019
</metadata>
<g transform="translate(0.000000,192.000000) scale(0.100000,-0.100000)"
fill="#000000" stroke="none">
811 c445 -92 729 -532 635 -987 -62 -301 -295 -546 -601 -630 -91 -26 -329
-26 -420 0 -291 80 -516 305 -596 596 -26 91 -26 329 0 420 120 433 542 692
982 601z"/>
<path d="M872 1354 c-187 -39 -312 -198 -312 -395 0 -230 165 -392 400 -393
68 0 93 4 126 21 50 27 59 45 38 84 -8 17 -14 42 -12 57 3 23 12 30 63 50 142
53 168 80 173 182 14 249 -226 448 -476 394z m278 -103 c0 -42 -13 -81 -27
-81 -8 0 -30 -15 -49 -34 -29 -29 -34 -41 -34 -80 l0 -45 -46 49 c-45 48 -46
51 -33 81 19 48 59 90 104 110 53 25 85 25 85 0z m-234 -160 c51 -23 99 -81
113 -137 6 -23 11 -93 11 -153 l0 -111 -50 0 -50 0 0 120 c0 135 -10 169 -60
195 -37 19 -64 19 -106 -1 -69 -33 -85 -119 -33 -178 41 -47 85 -55 139 -27
l40 21 0 -55 c0 -51 -2 -56 -27 -66 -50 -19 -138 -6 -185 27 -63 44 -90 103
-86 186 3 55 9 75 33 109 58 82 169 112 261 70z m369 -111 c40 -44 -13 -122
-68 -101 -37 14 -54 53 -39 86 20 44 74 52 107 15z m-175 -74 c0 -25 -6 -38
-25 -50 l-25 -16 0 44 c0 26 5 46 13 49 29 12 37 6 37 -27z"/>
</g>
</svg>
