<?xml version="1.0" standalone="no"?>
<!DOCTYPE svg PUBLIC "-//W3C//DTD SVG 20010904//EN"
 "http://www.w3.org/TR/2001/REC-SVG-20010904/DTD/svg10.dtd">
<svg version="1.0" xmlns="http://www.w3.org/2000/svg"
 width="192.000000pt" height="192.000000pt" viewBox="0 0 192.000000 192.000000"
 preserveAspectRatio="xMidYMid meet">
<metadata>
Created by potrace 1.16, written by Peter Selinger 2001-2019
</metadata>
<g transform="translate(0.000000,192.000000) scale(0.100000,-0.100000)"
fill="#000000" stroke="none">
811 c445 -92 729 -532 635 -987 -62 -301 -295 -546 -601 -630 -91 -26 -329
-26 -420 0 -291 80 -516 305 -596 596 -26 91 -26 329 0 420 120 433 542 692
982 601z"/>
<path d="M855 1331 c-7 -13 404 -732 422 -738 7 -3 32 31 58 74 35 61 45 85
41 110 -5 36 -265 495 -302 533 -22 23 -34 25 -118 28 -62 3 -96 0 -101 -7z"/>
<path d="M696 1054 c-53 -91 -94 -170 -90 -175 3 -5 93 -9 200 -9 161 0 194 2
194 14 0 22 -184 336 -197 336 -6 0 -54 -75 -107 -166z"/>
<path d="M540 774 c0 -25 69 -142 97 -164 24 -19 40 -20 274 -20 231 0 249 1
249 18 -1 9 -22 53 -48 97 l-48 80 -262 3 c-235 2 -262 1 -262 -14z"/>
</g>
</svg>
