<?xml version="1.0" standalone="no"?>
<!DOCTYPE svg PUBLIC "-//W3C//DTD SVG 20010904//EN"
 "http://www.w3.org/TR/2001/REC-SVG-20010904/DTD/svg10.dtd">
<svg version="1.0" xmlns="http://www.w3.org/2000/svg"
 width="192.000000pt" height="192.000000pt" viewBox="0 0 192.000000 192.000000"
 preserveAspectRatio="xMidYMid meet">
<metadata>
Created by potrace 1.16, written by Peter Selinger 2001-2019
</metadata>
<g transform="translate(0.000000,192.000000) scale(0.100000,-0.100000)"
fill="#000000" stroke="none">
811 c445 -92 729 -532 635 -987 -62 -301 -295 -546 -601 -630 -91 -26 -329
-26 -420 0 -291 80 -516 305 -596 596 -26 91 -26 329 0 420 120 433 542 692
982 601z"/>
<path d="M900 1338 c-101 -29 -161 -138 -130 -233 16 -47 66 -104 107 -121 63
-27 156 -11 207 34 29 26 56 92 56 140 0 122 -123 215 -240 180z"/>
<path d="M693 961 c-132 -33 -187 -197 -101 -306 45 -58 148 -82 221 -51 44
18 94 77 108 128 13 50 1 113 -32 160 -38 53 -130 85 -196 69z"/>
<path d="M1130 961 c-80 -25 -121 -66 -141 -142 -15 -57 1 -116 44 -166 96
-109 272 -73 318 64 37 112 -39 231 -156 246 -22 3 -51 2 -65 -2z"/>
</g>
</svg>
