<?xml version="1.0" standalone="no"?>
<!DOCTYPE svg PUBLIC "-//W3C//DTD SVG 20010904//EN"
 "http://www.w3.org/TR/2001/REC-SVG-20010904/DTD/svg10.dtd">
<svg version="1.0" xmlns="http://www.w3.org/2000/svg"
 width="192.000000pt" height="192.000000pt" viewBox="0 0 192.000000 192.000000"
 preserveAspectRatio="xMidYMid meet">
<metadata>
Created by potrace 1.16, written by Peter Selinger 2001-2019
</metadata>
<g transform="translate(0.000000,192.000000) scale(0.100000,-0.100000)"
fill="#000000" stroke="none">
811 c445 -92 729 -532 635 -987 -62 -301 -295 -546 -601 -630 -91 -26 -329
-26 -420 0 -291 80 -516 305 -596 596 -26 91 -26 329 0 420 120 433 542 692
982 601z"/>
<path d="M924 1265 c-155 -46 -291 -88 -303 -94 -29 -16 -51 -63 -51 -107 0
-30 7 -44 38 -73 48 -46 119 -81 163 -81 42 0 74 20 163 99 72 63 107 75 114
37 3 -12 -20 -43 -71 -95 -41 -42 -80 -86 -86 -98 -22 -42 -13 -101 25 -169
49 -87 76 -107 137 -101 80 7 85 17 192 336 52 157 95 299 95 314 0 61 -59
119 -117 116 -10 -1 -145 -38 -299 -84z"/>
</g>
</svg>
