<?xml version="1.0" standalone="no"?>
<!DOCTYPE svg PUBLIC "-//W3C//DTD SVG 20010904//EN"
 "http://www.w3.org/TR/2001/REC-SVG-20010904/DTD/svg10.dtd">
<svg version="1.0" xmlns="http://www.w3.org/2000/svg"
 width="192.000000pt" height="192.000000pt" viewBox="0 0 192.000000 192.000000"
 preserveAspectRatio="xMidYMid meet">
<metadata>
Created by potrace 1.16, written by Peter Selinger 2001-2019
</metadata>
<g transform="translate(0.000000,192.000000) scale(0.100000,-0.100000)"
fill="#000000" stroke="none">
811 c445 -92 729 -532 635 -987 -62 -301 -295 -546 -601 -630 -91 -26 -329
-26 -420 0 -291 80 -516 305 -596 596 -26 91 -26 329 0 420 120 433 542 692
982 601z"/>
<path d="M899 1369 c-128 -14 -256 -107 -312 -228 -132 -282 81 -597 393 -579
304 18 482 364 319 620 -87 136 -235 205 -400 187z m141 -199 c22 -11 41 -20
43 -20 3 0 7 9 10 20 7 27 53 27 67 1 6 -12 10 -100 10 -215 0 -183 -1 -197
-20 -216 -26 -26 -60 -12 -60 25 0 30 0 30 -52 4 -60 -30 -159 -24 -217 14
-62 41 -94 97 -99 171 -5 69 9 112 52 162 60 72 183 96 266 54z"/>
<path d="M868 1095 c-90 -49 -89 -203 2 -250 38 -19 103 -19 141 0 89 47 93
193 6 245 -38 24 -110 26 -149 5z"/>
</g>
</svg>
