<?xml version="1.0" standalone="no"?>
<!DOCTYPE svg PUBLIC "-//W3C//DTD SVG 20010904//EN"
 "http://www.w3.org/TR/2001/REC-SVG-20010904/DTD/svg10.dtd">
<svg version="1.0" xmlns="http://www.w3.org/2000/svg"
 width="192.000000pt" height="192.000000pt" viewBox="0 0 192.000000 192.000000"
 preserveAspectRatio="xMidYMid meet">
<metadata>
Created by potrace 1.16, written by Peter Selinger 2001-2019
</metadata>
<g transform="translate(0.000000,192.000000) scale(0.100000,-0.100000)"
fill="#000000" stroke="none">
811 c445 -92 729 -532 635 -987 -62 -301 -295 -546 -601 -630 -91 -26 -329
-26 -420 0 -291 80 -516 305 -596 596 -26 91 -26 329 0 420 120 433 542 692
982 601z"/>
<path d="M673 1365 c-63 -27 -64 -32 -61 -344 l3 -281 35 -34 c48 -47 261
-156 304 -156 35 0 220 90 285 138 57 43 61 63 61 348 0 364 20 344 -347 344
-188 -1 -256 -4 -280 -15z m492 -355 l0 -235 -105 -54 -106 -54 -104 54 -105
54 0 55 0 55 45 0 c39 0 45 -3 50 -25 4 -18 22 -34 61 -54 l55 -29 55 29 54
29 3 63 3 62 -154 0 c-106 0 -157 4 -165 12 -13 13 -18 259 -5 272 4 3 99 5
212 4 l206 -3 0 -235z"/>
<path d="M840 1110 l0 -40 115 0 115 0 0 40 0 40 -115 0 -115 0 0 -40z"/>
</g>
</svg>
