<?xml version="1.0" standalone="no"?>
<!DOCTYPE svg PUBLIC "-//W3C//DTD SVG 20010904//EN"
 "http://www.w3.org/TR/2001/REC-SVG-20010904/DTD/svg10.dtd">
<svg version="1.0" xmlns="http://www.w3.org/2000/svg"
 width="192.000000pt" height="192.000000pt" viewBox="0 0 192.000000 192.000000"
 preserveAspectRatio="xMidYMid meet">
<metadata>
Created by potrace 1.16, written by Peter Selinger 2001-2019
</metadata>
<g transform="translate(0.000000,192.000000) scale(0.100000,-0.100000)"
fill="#000000" stroke="none">
811 c445 -92 729 -532 635 -987 -62 -301 -295 -546 -601 -630 -91 -26 -329
-26 -420 0 -291 80 -516 305 -596 596 -26 91 -26 329 0 420 120 433 542 692
982 601z"/>
<path d="M928 1363 c-8 -10 -40 -85 -71 -168 -77 -207 -84 -222 -111 -241 -14
-8 -39 -14 -57 -12 l-33 3 -1 -87 c0 -49 2 -88 5 -89 3 0 15 -2 26 -3 12 -1
37 -15 54 -30 45 -37 100 -64 149 -72 38 -6 41 -5 41 18 0 16 -10 29 -29 41
-28 16 -61 70 -61 100 0 13 105 295 112 303 9 8 108 -277 108 -311 0 -33 -7
-45 -46 -82 -100 -93 12 -98 140 -6 28 20 60 37 71 38 17 2 20 9 20 56 1 30 4
69 9 87 8 33 4 37 -38 32 -65 -7 -76 10 -167 252 -33 89 -65 168 -71 175 -14
18 -32 16 -50 -4z"/>
<path d="M657 696 c-8 -21 55 -73 133 -110 59 -28 74 -31 165 -31 81 0 109 5
148 23 63 28 147 90 147 107 0 27 -19 24 -72 -10 -88 -59 -186 -78 -210 -41
-5 8 -13 8 -28 -1 -44 -28 -125 -10 -221 49 -53 32 -55 33 -62 14z"/>
</g>
</svg>
