<?xml version="1.0" standalone="no"?>
<!DOCTYPE svg PUBLIC "-//W3C//DTD SVG 20010904//EN"
 "http://www.w3.org/TR/2001/REC-SVG-20010904/DTD/svg10.dtd">
<svg version="1.0" xmlns="http://www.w3.org/2000/svg"
 width="192.000000pt" height="192.000000pt" viewBox="0 0 192.000000 192.000000"
 preserveAspectRatio="xMidYMid meet">
<metadata>
Created by potrace 1.16, written by Peter Selinger 2001-2019
</metadata>
<g transform="translate(0.000000,192.000000) scale(0.100000,-0.100000)"
fill="#000000" stroke="none">
811 c445 -92 729 -532 635 -987 -62 -301 -295 -546 -601 -630 -91 -26 -329
-26 -420 0 -291 80 -516 305 -596 596 -26 91 -26 329 0 420 120 433 542 692
982 601z"/>
<path d="M934 1372 c-7 -4 -40 -81 -74 -172 -67 -177 -93 -234 -111 -246 -7
-4 -31 -8 -53 -8 l-41 -1 1 -85 c1 -81 3 -85 25 -88 13 -2 40 -17 61 -33 44
-35 112 -66 153 -71 41 -4 47 32 10 56 -31 20 -65 73 -65 101 0 11 22 76 48
145 27 69 52 134 56 144 3 10 9 17 11 14 3 -2 29 -70 60 -150 64 -170 63 -193
-8 -252 -38 -31 -40 -37 -27 -50 13 -13 23 -14 55 -5 48 13 113 49 139 78 11
12 31 21 47 21 27 0 27 1 27 63 0 34 2 73 4 87 3 23 0 25 -41 26 -34 1 -49 7
-66 26 -12 13 -50 101 -84 194 -80 214 -90 230 -127 206z"/>
<path d="M660 693 c0 -40 132 -116 232 -133 81 -14 159 -2 243 39 72 36 124
86 108 102 -9 9 -19 6 -41 -10 -88 -62 -204 -90 -232 -56 -12 14 -15 14 -30 0
-9 -8 -32 -15 -51 -15 -39 1 -132 36 -177 68 -36 27 -52 28 -52 5z"/>
</g>
</svg>
