<?xml version="1.0" standalone="no"?>
<!DOCTYPE svg PUBLIC "-//W3C//DTD SVG 20010904//EN"
 "http://www.w3.org/TR/2001/REC-SVG-20010904/DTD/svg10.dtd">
<svg version="1.0" xmlns="http://www.w3.org/2000/svg"
 width="192.000000pt" height="192.000000pt" viewBox="0 0 192.000000 192.000000"
 preserveAspectRatio="xMidYMid meet">
<metadata>
Created by potrace 1.16, written by Peter Selinger 2001-2019
</metadata>
<g transform="translate(0.000000,192.000000) scale(0.100000,-0.100000)"
fill="#000000" stroke="none">
759 c272 -64 494 -285 566 -564 28 -110 28 -280 0 -390 -71 -278 -288 -495
-566 -566 -110 -28 -280 -28 -390 0 -277 71 -494 288 -566 566 -28 110 -28
280 0 390 108 421 524 667 956 564z"/>
<path d="M632 1295 c-56 -24 -62 -54 -62 -313 0 -217 1 -230 23 -272 45 -90
80 -99 369 -100 252 0 294 7 342 60 20 22 38 50 41 63 4 13 5 101 3 195 -3
154 -5 173 -24 198 -47 64 -62 69 -229 74 l-154 5 -43 41 c-24 23 -53 47 -65
53 -31 16 -162 13 -201 -4z m524 -285 c13 -36 24 -68 24 -72 0 -5 -16 -8 -36
-8 -30 0 -37 4 -45 30 -6 17 -14 30 -18 30 -4 0 -12 -13 -18 -30 -10 -26 -16
-30 -47 -30 -20 0 -36 2 -36 3 0 4 33 103 45 135 3 9 21 12 56 10 l51 -3 24
-65z m-137 -124 c11 -12 9 -26 -6 -73 -19 -56 -21 -58 -58 -61 -28 -3 -36 0
-33 10 3 7 16 45 28 85 25 75 35 81 69 39z m190 -45 c28 -86 27 -91 -12 -91
-32 0 -34 2 -54 64 l-21 64 27 20 c14 11 29 17 32 13 4 -3 16 -35 28 -70z
m-113 -39 c-9 -2 -25 -2 -36 0 -20 3 -20 4 -4 27 l17 24 20 -24 c17 -21 17
-24 3 -27z"/>
</g>
</svg>
