<?xml version="1.0" standalone="no"?>
<!DOCTYPE svg PUBLIC "-//W3C//DTD SVG 20010904//EN"
 "http://www.w3.org/TR/2001/REC-SVG-20010904/DTD/svg10.dtd">
<svg version="1.0" xmlns="http://www.w3.org/2000/svg"
 width="192.000000pt" height="192.000000pt" viewBox="0 0 192.000000 192.000000"
 preserveAspectRatio="xMidYMid meet">
<metadata>
Created by potrace 1.16, written by Peter Selinger 2001-2019
</metadata>
<g transform="translate(0.000000,192.000000) scale(0.100000,-0.100000)"
fill="#000000" stroke="none">
811 c445 -92 729 -532 635 -987 -62 -301 -295 -546 -601 -630 -91 -26 -329
-26 -420 0 -291 80 -516 305 -596 596 -26 91 -26 329 0 420 120 433 542 692
982 601z"/>
<path d="M870 1367 c-319 -72 -436 -449 -214 -687 71 -75 168 -121 276 -127
70 -5 87 -3 101 11 19 20 22 51 6 62 -6 4 -46 8 -88 9 -86 3 -116 13 -184 58
-103 68 -163 212 -138 328 23 104 89 192 183 240 30 16 66 24 123 27 149 8
253 -57 323 -198 39 -78 65 -97 92 -65 33 39 -52 195 -143 264 -96 73 -227
103 -337 78z"/>
<path d="M909 1201 c-120 -24 -210 -144 -196 -262 15 -128 110 -213 239 -214
83 0 109 18 89 61 -11 24 -15 26 -52 20 -56 -9 -109 8 -146 46 -99 104 -32
268 110 268 61 0 82 -11 133 -67 32 -36 45 -44 62 -39 35 11 36 41 4 89 -51
73 -156 115 -243 98z"/>
<path d="M1156 944 c-12 -11 -16 -36 -16 -90 0 -66 -2 -74 -19 -74 -33 0 -44
-25 -39 -94 4 -72 21 -100 75 -122 43 -18 94 -18 142 2 60 24 71 48 71 153 0
91 0 91 -27 97 -16 4 -34 11 -40 16 -7 6 -20 8 -28 4 -30 -11 -45 5 -45 49 0
44 -19 75 -45 75 -7 0 -21 -7 -29 -16z"/>
</g>
</svg>
