<?xml version="1.0" standalone="no"?>
<!DOCTYPE svg PUBLIC "-//W3C//DTD SVG 20010904//EN"
 "http://www.w3.org/TR/2001/REC-SVG-20010904/DTD/svg10.dtd">
<svg version="1.0" xmlns="http://www.w3.org/2000/svg"
 width="192.000000pt" height="192.000000pt" viewBox="0 0 192.000000 192.000000"
 preserveAspectRatio="xMidYMid meet">
<metadata>
Created by potrace 1.16, written by Peter Selinger 2001-2019
</metadata>
<g transform="translate(0.000000,192.000000) scale(0.100000,-0.100000)"
fill="#000000" stroke="none">
811 c445 -92 729 -532 635 -987 -62 -301 -295 -546 -601 -630 -91 -26 -329
-26 -420 0 -291 80 -516 305 -596 596 -26 91 -26 329 0 420 120 433 542 692
982 601z"/>
<path d="M868 1361 c-76 -25 -154 -99 -183 -174 -14 -36 -16 -62 -11 -124 8
-96 8 -100 0 -196 -5 -62 -3 -88 11 -124 22 -57 74 -116 134 -151 41 -24 56
-27 136 -27 80 0 95 3 136 27 60 35 112 94 134 151 14 36 16 62 11 124 -3 43
-6 87 -6 98 0 11 3 55 6 98 7 93 -9 149 -64 209 -59 66 -113 91 -201 94 -42 2
-88 -1 -103 -5z m187 -116 c46 -27 81 -82 91 -145 l7 -44 -31 22 c-96 69 -238
69 -334 0 l-31 -22 7 43 c24 150 164 221 291 146z m3 -242 c23 -13 42 -30 42
-38 0 -8 -21 -26 -46 -41 -34 -20 -59 -27 -99 -27 -40 0 -65 7 -99 27 -25 15
-46 33 -46 41 0 17 61 55 104 65 44 11 94 2 144 -27z m-237 -170 c45 -24 65
-28 134 -28 69 0 89 4 134 28 29 15 55 27 58 27 3 0 2 -17 -2 -37 -25 -141
-169 -210 -288 -140 -29 18 -54 42 -66 65 -19 38 -38 112 -28 112 3 0 29 -12
58 -27z"/>
</g>
</svg>
