<?xml version="1.0" standalone="no"?>
<!DOCTYPE svg PUBLIC "-//W3C//DTD SVG 20010904//EN"
 "http://www.w3.org/TR/2001/REC-SVG-20010904/DTD/svg10.dtd">
<svg version="1.0" xmlns="http://www.w3.org/2000/svg"
 width="192.000000pt" height="192.000000pt" viewBox="0 0 192.000000 192.000000"
 preserveAspectRatio="xMidYMid meet">
<metadata>
Created by potrace 1.16, written by Peter Selinger 2001-2019
</metadata>
<g transform="translate(0.000000,192.000000) scale(0.100000,-0.100000)"
fill="#000000" stroke="none">
811 c445 -92 729 -532 635 -987 -62 -301 -295 -546 -601 -630 -91 -26 -329
-26 -420 0 -291 80 -516 305 -596 596 -26 91 -26 329 0 420 120 433 542 692
982 601z"/>
<path d="M895 1351 c-52 -24 -375 -349 -375 -378 0 -11 8 -27 18 -36 41 -37
60 -25 237 153 93 94 174 170 180 170 6 0 87 -76 180 -170 179 -179 201 -193
238 -152 28 30 20 48 -48 121 l-65 68 0 90 c0 96 -7 113 -50 113 -36 0 -50
-17 -50 -64 l0 -39 -60 57 c-58 55 -111 86 -147 86 -10 0 -36 -9 -58 -19z"/>
<path d="M782 1057 l-162 -162 0 -135 c0 -185 15 -204 166 -198 l79 3 5 93 c5
87 7 95 33 118 31 26 57 30 90 12 39 -20 46 -40 47 -124 0 -104 4 -107 116
-103 79 4 87 6 110 32 23 27 24 35 24 165 l0 137 -163 163 c-89 89 -167 162
-172 162 -6 0 -83 -73 -173 -163z"/>
</g>
</svg>
