<?xml version="1.0" standalone="no"?>
<!DOCTYPE svg PUBLIC "-//W3C//DTD SVG 20010904//EN"
 "http://www.w3.org/TR/2001/REC-SVG-20010904/DTD/svg10.dtd">
<svg version="1.0" xmlns="http://www.w3.org/2000/svg"
 width="192.000000pt" height="192.000000pt" viewBox="0 0 192.000000 192.000000"
 preserveAspectRatio="xMidYMid meet">
<metadata>
Created by potrace 1.16, written by Peter Selinger 2001-2019
</metadata>
<g transform="translate(0.000000,192.000000) scale(0.100000,-0.100000)"
fill="#000000" stroke="none">
811 c445 -92 729 -532 635 -987 -62 -301 -295 -546 -601 -630 -91 -26 -329
-26 -420 0 -291 80 -516 305 -596 596 -26 91 -26 329 0 420 120 433 542 692
982 601z"/>
<path d="M852 1364 c-12 -8 -22 -21 -22 -29 0 -7 -15 -17 -32 -20 -55 -12 -87
-33 -116 -77 l-27 -42 0 -260 c0 -255 1 -262 23 -298 13 -20 40 -47 60 -60 34
-21 51 -23 193 -26 171 -4 221 4 268 44 57 48 63 82 59 361 l-3 251 -31 39
c-19 23 -51 46 -80 58 -27 11 -51 24 -53 29 -2 5 -12 17 -22 27 -16 16 -34 19
-107 19 -63 0 -94 -4 -110 -16z m153 -224 c6 -9 -7 -92 -21 -142 -4 -15 1 -18
33 -18 85 0 83 -43 -8 -171 -39 -54 -74 -99 -78 -99 -24 0 -28 25 -15 93 8 40
14 73 14 75 0 1 -12 2 -28 2 -35 0 -72 25 -72 49 0 24 139 221 156 221 7 0 16
-5 19 -10z"/>
</g>
</svg>
