<?xml version="1.0" standalone="no"?>
<!DOCTYPE svg PUBLIC "-//W3C//DTD SVG 20010904//EN"
 "http://www.w3.org/TR/2001/REC-SVG-20010904/DTD/svg10.dtd">
<svg version="1.0" xmlns="http://www.w3.org/2000/svg"
 width="192.000000pt" height="192.000000pt" viewBox="0 0 192.000000 192.000000"
 preserveAspectRatio="xMidYMid meet">
<metadata>
Created by potrace 1.16, written by Peter Selinger 2001-2019
</metadata>
<g transform="translate(0.000000,192.000000) scale(0.100000,-0.100000)"
fill="#000000" stroke="none">
811 c445 -92 729 -532 635 -987 -62 -301 -295 -546 -601 -630 -91 -26 -329
-26 -420 0 -291 80 -516 305 -596 596 -26 91 -26 329 0 420 120 433 542 692
982 601z"/>
<path d="M694 1231 c-100 -46 -173 -225 -162 -398 6 -92 21 -127 58 -143 37
-16 68 1 145 79 l59 61 161 0 161 0 59 -61 c77 -78 108 -95 145 -79 37 16 52
51 58 143 11 176 -63 354 -166 399 -54 24 -100 19 -172 -17 -62 -32 -108 -32
-170 0 -70 35 -125 40 -176 16z m427 -101 c23 -13 25 -52 4 -70 -20 -17 -61
-5 -68 19 -5 21 17 61 34 61 6 0 19 -5 30 -10z m-349 -58 c2 -21 10 -28 33
-32 42 -7 42 -43 0 -50 -24 -4 -31 -11 -35 -35 -4 -21 -11 -30 -25 -30 -14 0
-21 9 -25 30 -4 24 -11 31 -35 35 -22 4 -30 11 -30 25 0 15 8 21 33 23 28 3
32 7 32 32 0 47 46 49 52 2z m472 -18 c21 -21 20 -37 -4 -59 -41 -37 -97 24
-58 63 17 17 44 15 62 -4z m-116 -56 c21 -21 14 -57 -14 -70 -23 -11 -29 -10
-45 10 -35 44 20 99 59 60z"/>
</g>
</svg>
