<?xml version="1.0" standalone="no"?>
<!DOCTYPE svg PUBLIC "-//W3C//DTD SVG 20010904//EN"
 "http://www.w3.org/TR/2001/REC-SVG-20010904/DTD/svg10.dtd">
<svg version="1.0" xmlns="http://www.w3.org/2000/svg"
 width="192.000000pt" height="192.000000pt" viewBox="0 0 192.000000 192.000000"
 preserveAspectRatio="xMidYMid meet">
<metadata>
Created by potrace 1.16, written by Peter Selinger 2001-2019
</metadata>
<g transform="translate(0.000000,192.000000) scale(0.100000,-0.100000)"
fill="#000000" stroke="none">
811 c445 -92 729 -532 635 -987 -62 -301 -295 -546 -601 -630 -91 -26 -329
-26 -420 0 -291 80 -516 305 -596 596 -26 91 -26 329 0 420 120 433 542 692
982 601z"/>
<path d="M865 1344 c-44 -20 -120 -45 -170 -56 -109 -25 -125 -37 -125 -94 0
-74 29 -269 50 -338 20 -63 78 -149 135 -199 44 -40 126 -87 168 -99 41 -11
48 -9 111 20 84 39 183 132 224 210 36 69 57 159 73 314 15 153 13 157 -102
182 -46 10 -126 35 -176 57 -51 21 -96 39 -100 39 -5 0 -44 -17 -88 -36z m181
-193 c53 -24 111 -93 122 -145 12 -60 7 -67 -47 -64 -48 3 -63 21 -23 26 13 2
26 10 29 18 9 24 -42 98 -85 122 -58 32 -72 29 -72 -14 0 -28 -3 -35 -17 -32
-12 2 -19 14 -21 36 -4 38 -10 39 -62 12 -44 -22 -90 -83 -90 -117 0 -18 6
-23 25 -23 16 0 25 -6 25 -15 0 -11 -12 -15 -44 -15 -25 0 -48 5 -51 10 -4 6
1 34 9 63 36 125 182 192 302 138z m-36 -133 c0 -7 -7 -41 -15 -75 -13 -56
-13 -65 1 -90 33 -59 -25 -115 -81 -79 -36 24 -34 69 5 97 16 13 32 35 35 53
16 79 27 106 40 106 8 0 15 -6 15 -12z"/>
</g>
</svg>
