<?xml version="1.0" standalone="no"?>
<!DOCTYPE svg PUBLIC "-//W3C//DTD SVG 20010904//EN"
 "http://www.w3.org/TR/2001/REC-SVG-20010904/DTD/svg10.dtd">
<svg version="1.0" xmlns="http://www.w3.org/2000/svg"
 width="192.000000pt" height="192.000000pt" viewBox="0 0 192.000000 192.000000"
 preserveAspectRatio="xMidYMid meet">
<metadata>
Created by potrace 1.16, written by Peter Selinger 2001-2019
</metadata>
<g transform="translate(0.000000,192.000000) scale(0.100000,-0.100000)"
fill="#000000" stroke="none">
811 c445 -92 729 -532 635 -987 -62 -301 -295 -546 -601 -630 -91 -26 -329
-26 -420 0 -291 80 -516 305 -596 596 -26 91 -26 329 0 420 120 433 542 692
982 601z"/>
<path d="M858 1370 c-100 -25 -212 -110 -266 -200 -81 -138 -63 -343 43 -468
l27 -33 29 40 c29 39 114 101 139 101 9 0 7 7 -7 23 -72 79 -71 199 3 269 37
34 74 48 130 48 138 0 224 -141 163 -268 -12 -24 -28 -46 -35 -49 -23 -9 -16
-19 27 -38 22 -10 62 -43 89 -72 l48 -53 37 50 c157 214 81 509 -161 622 -52
24 -81 31 -147 34 -45 2 -99 -1 -119 -6z m42 -68 c0 -4 -11 -24 -26 -43 l-25
-34 25 -3 c41 -5 30 -22 -14 -22 -22 0 -40 2 -40 6 0 3 11 22 25 42 l25 37
-25 3 c-40 5 -29 22 15 22 22 0 40 -4 40 -8z m80 -2 c0 -5 -11 -10 -25 -10
-31 0 -33 -18 -3 -29 l22 -8 -22 -5 c-30 -8 -28 -28 3 -28 14 0 25 -5 25 -11
0 -6 -14 -9 -32 -7 -30 3 -33 6 -36 42 -2 21 -1 44 2 52 6 16 66 19 66 4z m59
-22 l21 -33 0 27 c0 15 5 30 10 33 6 4 10 -15 10 -49 0 -31 -4 -56 -8 -56 -4
0 -17 15 -27 33 l-20 32 -3 -32 c-5 -54 -22 -37 -22 22 0 30 4 55 9 55 5 0 18
-15 30 -32z"/>
<path d="M865 768 c-50 -18 -102 -55 -131 -94 l-28 -36 25 -19 c104 -80 305
-84 434 -7 l36 20 -20 32 c-24 38 -100 92 -149 106 -47 13 -128 12 -167 -2z"/>
</g>
</svg>
