<?xml version="1.0" standalone="no"?>
<!DOCTYPE svg PUBLIC "-//W3C//DTD SVG 20010904//EN"
 "http://www.w3.org/TR/2001/REC-SVG-20010904/DTD/svg10.dtd">
<svg version="1.0" xmlns="http://www.w3.org/2000/svg"
 width="192.000000pt" height="192.000000pt" viewBox="0 0 192.000000 192.000000"
 preserveAspectRatio="xMidYMid meet">
<metadata>
Created by potrace 1.16, written by Peter Selinger 2001-2019
</metadata>
<g transform="translate(0.000000,192.000000) scale(0.100000,-0.100000)"
fill="#000000" stroke="none">
811 c445 -92 729 -532 635 -987 -62 -301 -295 -546 -601 -630 -91 -26 -329
-26 -420 0 -291 80 -516 305 -596 596 -26 91 -26 329 0 420 120 433 542 692
982 601z"/>
<path d="M625 1326 c-54 -23 -69 -59 -73 -171 -4 -122 9 -170 57 -202 30 -20
46 -23 138 -23 l103 0 38 34 37 34 3 120 c4 136 -6 169 -61 202 -26 16 -50 20
-122 20 -52 -1 -103 -6 -120 -14z"/>
<path d="M1014 1306 l-34 -34 0 -296 c0 -326 2 -341 60 -371 42 -22 212 -21
250 1 58 35 60 45 60 359 0 380 2 375 -188 375 l-114 0 -34 -34z"/>
<path d="M609 847 c-41 -27 -64 -90 -54 -143 3 -20 21 -52 40 -72 33 -37 34
-37 127 -40 74 -2 100 1 127 15 54 28 75 65 75 126 -2 106 -43 137 -185 137
-83 0 -101 -3 -130 -23z"/>
</g>
</svg>
