<?xml version="1.0" standalone="no"?>
<!DOCTYPE svg PUBLIC "-//W3C//DTD SVG 20010904//EN"
 "http://www.w3.org/TR/2001/REC-SVG-20010904/DTD/svg10.dtd">
<svg version="1.0" xmlns="http://www.w3.org/2000/svg"
 width="192.000000pt" height="192.000000pt" viewBox="0 0 192.000000 192.000000"
 preserveAspectRatio="xMidYMid meet">
<metadata>
Created by potrace 1.16, written by Peter Selinger 2001-2019
</metadata>
<g transform="translate(0.000000,192.000000) scale(0.100000,-0.100000)"
fill="#000000" stroke="none">
811 c445 -92 729 -532 635 -987 -62 -301 -295 -546 -601 -630 -91 -26 -329
-26 -420 0 -291 80 -516 305 -596 596 -26 91 -26 329 0 420 120 433 542 692
982 601z"/>
<path d="M930 1370 c-38 -11 -291 -157 -320 -186 -25 -24 -25 -27 -28 -209 -3
-146 0 -189 11 -212 17 -33 300 -202 351 -210 39 -6 134 43 155 79 12 21 12
30 2 56 -18 42 -54 53 -109 33 l-44 -16 -71 39 c-133 72 -147 83 -147 116 l0
30 265 0 c351 0 340 -6 333 174 -4 118 -2 116 -187 222 -147 84 -174 94 -211
84z m127 -201 c98 -55 116 -70 127 -106 l7 -23 -230 0 -231 0 0 23 c0 13 8 31
18 40 22 20 193 117 206 117 6 0 52 -23 103 -51z"/>
</g>
</svg>
