<?xml version="1.0" standalone="no"?>
<!DOCTYPE svg PUBLIC "-//W3C//DTD SVG 20010904//EN"
 "http://www.w3.org/TR/2001/REC-SVG-20010904/DTD/svg10.dtd">
<svg version="1.0" xmlns="http://www.w3.org/2000/svg"
 width="192.000000pt" height="192.000000pt" viewBox="0 0 192.000000 192.000000"
 preserveAspectRatio="xMidYMid meet">
<metadata>
Created by potrace 1.16, written by Peter Selinger 2001-2019
</metadata>
<g transform="translate(0.000000,192.000000) scale(0.100000,-0.100000)"
fill="#000000" stroke="none">
811 c445 -92 729 -532 635 -987 -62 -301 -295 -546 -601 -630 -91 -26 -329
-26 -420 0 -291 80 -516 305 -596 596 -26 91 -26 329 0 420 120 433 542 692
982 601z"/>
<path d="M872 1362 c-106 -38 -178 -128 -189 -237 -5 -48 -11 -59 -59 -109
-40 -41 -57 -68 -70 -111 -60 -210 141 -407 346 -339 52 18 57 18 105 2 104
-36 201 -13 281 67 101 100 112 236 28 356 -15 22 -39 47 -54 56 -24 14 -28
24 -32 77 -3 34 -13 76 -22 94 -65 126 -210 188 -334 144z m52 -284 c25 -13
34 -12 84 5 90 30 212 9 212 -36 0 -37 -41 -106 -86 -146 -38 -33 -44 -44 -44
-78 0 -82 -66 -201 -121 -218 -51 -17 -133 99 -146 206 -5 46 -11 59 -44 87
-38 33 -89 121 -89 154 0 10 1 18 3 18 1 0 20 7 42 15 48 18 148 14 189 -7z"/>
<path d="M768 1044 c-25 -8 -22 -25 11 -72 35 -47 53 -61 59 -43 2 7 19 32 38
56 19 25 29 47 23 50 -13 9 -110 15 -131 9z"/>
<path d="M1033 1040 l-23 -9 32 -53 c18 -29 34 -55 35 -57 6 -9 62 52 74 81
10 25 10 31 -2 39 -18 11 -87 11 -116 -1z"/>
<path d="M921 963 c-38 -46 -40 -70 -5 -79 25 -6 101 0 111 9 7 8 -23 60 -50
85 l-25 23 -31 -38z"/>
<path d="M874 796 c8 -48 27 -84 60 -115 21 -19 28 -22 40 -12 23 19 66 111
66 140 0 26 0 26 -86 26 l-86 0 6 -39z"/>
</g>
</svg>
