<?xml version="1.0" standalone="no"?>
<!DOCTYPE svg PUBLIC "-//W3C//DTD SVG 20010904//EN"
 "http://www.w3.org/TR/2001/REC-SVG-20010904/DTD/svg10.dtd">
<svg version="1.0" xmlns="http://www.w3.org/2000/svg"
 width="192.000000pt" height="192.000000pt" viewBox="0 0 192.000000 192.000000"
 preserveAspectRatio="xMidYMid meet">
<metadata>
Created by potrace 1.16, written by Peter Selinger 2001-2019
</metadata>
<g transform="translate(0.000000,192.000000) scale(0.100000,-0.100000)"
fill="#000000" stroke="none">
811 c445 -92 729 -532 635 -987 -62 -301 -295 -546 -601 -630 -91 -26 -329
-26 -420 0 -291 80 -516 305 -596 596 -26 91 -26 329 0 420 120 433 542 692
982 601z"/>
<path d="M853 1365 c-80 -22 -131 -52 -190 -111 -92 -92 -136 -223 -116 -347
23 -138 108 -252 232 -311 61 -29 74 -31 176 -31 104 0 114 2 176 32 80 40
159 120 197 200 24 52 27 69 27 168 0 102 -2 115 -31 176 -85 178 -286 274
-471 224z m242 -107 c67 -35 122 -91 154 -158 37 -80 36 -192 -2 -271 -32 -66
-99 -132 -165 -162 -71 -32 -189 -30 -262 4 -227 107 -256 420 -53 561 66 45
116 58 203 55 56 -3 88 -10 125 -29z"/>
<path d="M835 1226 c-94 -43 -171 -156 -163 -239 l3 -36 112 71 c108 67 143
78 143 44 0 -8 -56 -49 -125 -92 -69 -42 -125 -81 -125 -86 0 -21 30 -78 60
-112 46 -51 121 -88 195 -93 111 -9 221 54 277 159 34 65 32 184 -4 254 -70
134 -239 193 -373 130z m243 -197 c2 -12 -41 -44 -143 -109 -125 -78 -149 -90
-161 -79 -7 8 -10 19 -6 25 13 20 277 184 292 181 8 -1 16 -9 18 -18z"/>
</g>
</svg>
