<?xml version="1.0" standalone="no"?>
<!DOCTYPE svg PUBLIC "-//W3C//DTD SVG 20010904//EN"
 "http://www.w3.org/TR/2001/REC-SVG-20010904/DTD/svg10.dtd">
<svg version="1.0" xmlns="http://www.w3.org/2000/svg"
 width="192.000000pt" height="192.000000pt" viewBox="0 0 192.000000 192.000000"
 preserveAspectRatio="xMidYMid meet">
<metadata>
Created by potrace 1.16, written by Peter Selinger 2001-2019
</metadata>
<g transform="translate(0.000000,192.000000) scale(0.100000,-0.100000)"
fill="#000000" stroke="none">
811 c445 -92 729 -532 635 -987 -62 -301 -295 -546 -601 -630 -91 -26 -329
-26 -420 0 -291 80 -516 305 -596 596 -26 91 -26 329 0 420 120 433 542 692
982 601z"/>
<path d="M915 1355 c-44 -13 -117 -33 -163 -45 -46 -13 -90 -29 -98 -37 -21
-21 -21 -431 0 -472 20 -37 58 -61 100 -63 36 -1 342 79 364 95 25 19 11 45
-49 87 -69 48 -92 46 -97 -7 -3 -30 -6 -32 -97 -57 -110 -30 -131 -32 -139
-10 -3 9 -6 93 -6 189 l0 172 95 27 c113 31 115 31 115 8 0 -39 45 -55 74 -26
23 22 23 149 0 158 -9 3 -16 6 -17 5 -1 -1 -38 -11 -82 -24z"/>
<path d="M1033 1190 c-100 -26 -186 -51 -192 -54 -7 -5 -11 -48 -11 -115 0
-92 3 -110 18 -124 49 -45 82 -6 82 95 l0 76 108 26 c59 15 115 29 125 32 16
5 17 -9 17 -199 0 -152 -3 -207 -12 -214 -13 -10 -203 -63 -226 -63 -7 0 -12
13 -12 28 0 33 -30 65 -56 60 -46 -9 -56 -99 -16 -147 33 -40 69 -42 205 -7
215 55 208 42 205 388 l-3 263 -25 2 c-14 0 -107 -20 -207 -47z"/>
</g>
</svg>
