<?xml version="1.0" standalone="no"?>
<!DOCTYPE svg PUBLIC "-//W3C//DTD SVG 20010904//EN"
 "http://www.w3.org/TR/2001/REC-SVG-20010904/DTD/svg10.dtd">
<svg version="1.0" xmlns="http://www.w3.org/2000/svg"
 width="192.000000pt" height="192.000000pt" viewBox="0 0 192.000000 192.000000"
 preserveAspectRatio="xMidYMid meet">
<metadata>
Created by potrace 1.16, written by Peter Selinger 2001-2019
</metadata>
<g transform="translate(0.000000,192.000000) scale(0.100000,-0.100000)"
fill="#000000" stroke="none">
811 c445 -92 729 -532 635 -987 -62 -301 -295 -546 -601 -630 -91 -26 -329
-26 -420 0 -291 80 -516 305 -596 596 -26 91 -26 329 0 420 120 433 542 692
982 601z"/>
<path d="M922 1368 c-7 -7 -12 -17 -12 -24 0 -6 -21 -17 -47 -24 -122 -30
-230 -119 -284 -233 -34 -74 -51 -154 -38 -179 12 -22 18 -22 56 -3 32 16 83
7 83 -14 0 -24 41 -22 71 4 35 29 59 27 97 -8 19 -18 26 -19 42 -9 19 12 20 9
20 -107 0 -130 -9 -153 -42 -108 -24 34 -53 34 -73 3 -15 -22 -15 -27 0 -55
34 -67 115 -80 173 -27 l37 34 3 131 c3 105 7 129 18 124 7 -3 28 7 45 21 38
33 50 33 89 -1 22 -18 36 -24 45 -17 66 49 63 48 104 29 47 -21 61 -14 61 30
0 94 -79 244 -163 308 -46 35 -135 77 -164 77 -20 0 -28 6 -61 45 -15 18 -43
20 -60 3z"/>
</g>
</svg>
