<?xml version="1.0" standalone="no"?>
<!DOCTYPE svg PUBLIC "-//W3C//DTD SVG 20010904//EN"
 "http://www.w3.org/TR/2001/REC-SVG-20010904/DTD/svg10.dtd">
<svg version="1.0" xmlns="http://www.w3.org/2000/svg"
 width="192.000000pt" height="192.000000pt" viewBox="0 0 192.000000 192.000000"
 preserveAspectRatio="xMidYMid meet">
<metadata>
Created by potrace 1.16, written by Peter Selinger 2001-2019
</metadata>
<g transform="translate(0.000000,192.000000) scale(0.100000,-0.100000)"
fill="#000000" stroke="none">
811 c445 -92 729 -532 635 -987 -62 -301 -295 -546 -601 -630 -91 -26 -329
-26 -420 0 -291 80 -516 305 -596 596 -26 91 -26 329 0 420 120 433 542 692
982 601z"/>
<path d="M870 1285 c0 -11 -11 -15 -40 -15 -99 0 -211 -75 -260 -175 -21 -41
-25 -65 -25 -135 0 -73 4 -92 27 -135 32 -60 87 -115 148 -146 36 -18 66 -24
148 -27 56 -2 102 -1 102 3 0 4 -17 29 -37 56 -30 38 -44 48 -68 49 -126 2
-230 115 -211 229 8 54 56 121 101 145 29 15 66 22 133 26 l94 5 -52 68 c-29
37 -54 67 -56 67 -2 0 -4 -7 -4 -15z"/>
<path d="M940 1276 c0 -4 19 -32 42 -62 40 -50 46 -54 86 -54 55 0 99 -19 139
-61 74 -79 72 -189 -6 -272 -41 -45 -59 -51 -169 -57 l-104 -5 53 -68 c29 -37
55 -64 58 -59 3 5 29 12 56 16 112 16 226 104 259 203 21 60 20 156 0 217 -22
65 -100 148 -166 176 -39 17 -79 24 -150 28 -54 3 -98 1 -98 -2z"/>
<path d="M802 1008 c-19 -19 -15 -66 7 -78 11 -5 80 -10 154 -10 117 0 136 2
150 18 21 23 22 46 1 66 -13 13 -42 16 -158 16 -97 0 -146 -4 -154 -12z"/>
</g>
</svg>
