<?xml version="1.0" standalone="no"?>
<!DOCTYPE svg PUBLIC "-//W3C//DTD SVG 20010904//EN"
 "http://www.w3.org/TR/2001/REC-SVG-20010904/DTD/svg10.dtd">
<svg version="1.0" xmlns="http://www.w3.org/2000/svg"
 width="192.000000pt" height="192.000000pt" viewBox="0 0 192.000000 192.000000"
 preserveAspectRatio="xMidYMid meet">
<metadata>
Created by potrace 1.16, written by Peter Selinger 2001-2019
</metadata>
<g transform="translate(0.000000,192.000000) scale(0.100000,-0.100000)"
fill="#000000" stroke="none">
811 c445 -92 729 -532 635 -987 -62 -301 -295 -546 -601 -630 -91 -26 -329
-26 -420 0 -291 80 -516 305 -596 596 -26 91 -26 329 0 420 120 433 542 692
982 601z"/>
<path d="M857 1369 c-95 -22 -211 -108 -261 -193 -69 -119 -74 -265 -13 -389
127 -258 468 -312 668 -106 220 225 112 603 -195 685 -57 15 -141 17 -199 3z
m156 -109 c60 -47 53 -141 -13 -175 -90 -46 -185 55 -136 144 28 51 104 67
149 31z m-207 -174 c45 -45 47 -92 5 -138 -25 -28 -36 -33 -75 -33 -64 0 -101
37 -101 101 0 39 5 50 33 75 46 42 93 40 138 -5z m434 9 c76 -69 14 -199 -86
-181 -91 18 -113 146 -33 193 30 17 94 10 119 -12z m-349 -264 c23 -24 29 -38
29 -74 0 -38 -5 -49 -31 -71 -69 -59 -169 -15 -169 74 0 91 106 135 171 71z
m270 0 c64 -65 20 -171 -71 -171 -58 0 -100 42 -100 100 0 91 106 135 171 71z"/>
</g>
</svg>
