<?xml version="1.0" standalone="no"?>
<!DOCTYPE svg PUBLIC "-//W3C//DTD SVG 20010904//EN"
 "http://www.w3.org/TR/2001/REC-SVG-20010904/DTD/svg10.dtd">
<svg version="1.0" xmlns="http://www.w3.org/2000/svg"
 width="192.000000pt" height="192.000000pt" viewBox="0 0 192.000000 192.000000"
 preserveAspectRatio="xMidYMid meet">
<metadata>
Created by potrace 1.16, written by Peter Selinger 2001-2019
</metadata>
<g transform="translate(0.000000,192.000000) scale(0.100000,-0.100000)"
fill="#000000" stroke="none">
811 c445 -92 729 -532 635 -987 -62 -301 -295 -546 -601 -630 -91 -26 -329
-26 -420 0 -291 80 -516 305 -596 596 -26 91 -26 329 0 420 120 433 542 692
982 601z"/>
<path d="M857 1369 c-95 -22 -211 -108 -261 -193 -69 -119 -74 -265 -13 -389
120 -242 425 -307 637 -135 97 77 161 232 146 354 -29 248 -269 420 -509 363z
m213 -101 c34 -16 31 -16 -114 -17 -82 -1 -147 2 -143 5 34 35 191 42 257 12z
m10 -132 c-22 -20 -336 -295 -382 -334 -15 -12 -19 -9 -39 29 -41 82 -36 218
13 297 l20 32 206 0 207 0 -25 -24z m173 -43 c34 -74 31 -189 -6 -266 l-28
-57 -212 0 -211 0 40 34 c21 18 116 101 209 184 94 83 174 151 178 151 4 1 18
-20 30 -46z m-188 -430 c-54 -21 -179 -21 -225 -1 -34 16 -30 16 115 16 147 1
149 0 110 -15z"/>
</g>
</svg>
