<?xml version="1.0" standalone="no"?>
<!DOCTYPE svg PUBLIC "-//W3C//DTD SVG 20010904//EN"
 "http://www.w3.org/TR/2001/REC-SVG-20010904/DTD/svg10.dtd">
<svg version="1.0" xmlns="http://www.w3.org/2000/svg"
 width="192.000000pt" height="192.000000pt" viewBox="0 0 192.000000 192.000000"
 preserveAspectRatio="xMidYMid meet">
<metadata>
Created by potrace 1.16, written by Peter Selinger 2001-2019
</metadata>
<g transform="translate(0.000000,192.000000) scale(0.100000,-0.100000)"
fill="#000000" stroke="none">
811 c445 -92 729 -532 635 -987 -62 -301 -295 -546 -601 -630 -91 -26 -329
-26 -420 0 -291 80 -516 305 -596 596 -26 91 -26 329 0 420 120 433 542 692
982 601z"/>
<path d="M702 1388 c-7 -7 -12 -25 -12 -40 0 -16 -10 -42 -22 -59 l-22 -30 22
-42 c12 -23 22 -59 22 -80 0 -31 -7 -44 -45 -80 -38 -37 -45 -50 -45 -81 0
-46 23 -88 61 -110 25 -15 29 -24 29 -59 0 -24 -9 -60 -22 -83 -22 -42 -22
-42 -2 -70 10 -16 21 -49 24 -74 4 -34 10 -46 24 -49 26 -4 46 25 46 66 0 19
7 45 17 59 15 23 15 28 0 60 -10 19 -17 59 -17 88 0 46 3 54 26 66 72 39 70
162 -3 201 -20 11 -23 20 -23 67 0 33 7 65 17 83 17 28 17 31 0 60 -9 17 -17
43 -17 59 0 26 -22 60 -39 60 -4 0 -12 -5 -19 -12z m50 -385 c22 -20 23 -41 1
-65 -20 -22 -41 -23 -65 -1 -22 20 -23 41 -1 65 20 22 41 23 65 1z"/>
<path d="M1037 1170 c-146 -44 -186 -253 -68 -353 70 -58 183 -63 249 -10 51
41 80 86 87 137 23 148 -122 270 -268 226z m73 -143 c0 -44 4 -58 25 -77 14
-13 25 -29 25 -37 0 -22 -25 -15 -52 15 -21 21 -27 38 -28 82 -3 70 -3 70 15
70 11 0 15 -13 15 -53z"/>
</g>
</svg>
