<?xml version="1.0" standalone="no"?>
<!DOCTYPE svg PUBLIC "-//W3C//DTD SVG 20010904//EN"
 "http://www.w3.org/TR/2001/REC-SVG-20010904/DTD/svg10.dtd">
<svg version="1.0" xmlns="http://www.w3.org/2000/svg"
 width="192.000000pt" height="192.000000pt" viewBox="0 0 192.000000 192.000000"
 preserveAspectRatio="xMidYMid meet">
<metadata>
Created by potrace 1.16, written by Peter Selinger 2001-2019
</metadata>
<g transform="translate(0.000000,192.000000) scale(0.100000,-0.100000)"
fill="#000000" stroke="none">
811 c445 -92 729 -532 635 -987 -62 -301 -295 -546 -601 -630 -91 -26 -329
-26 -420 0 -291 80 -516 305 -596 596 -26 91 -26 329 0 420 120 433 542 692
982 601z"/>
<path d="M788 1341 c-30 -27 -39 -43 -35 -56 5 -12 15 -16 32 -13 21 5 57 -26
250 -214 210 -205 224 -221 218 -248 -9 -49 21 -50 69 -2 47 47 47 78 0 69
-24 -5 -48 15 -249 215 -199 199 -221 224 -216 248 9 45 -22 46 -69 1z"/>
<path d="M566 1308 c-14 -19 -16 -71 -16 -364 0 -330 1 -342 21 -368 l20 -26
358 0 c334 0 359 1 374 18 26 28 21 55 -16 90 -30 29 -35 31 -47 17 -17 -21
-60 -20 -60 2 0 9 8 25 17 35 16 18 14 21 -32 68 l-49 50 -21 -20 c-40 -38
-75 1 -38 42 16 18 15 21 -30 65 -44 45 -47 46 -65 30 -42 -38 -82 -4 -43 37
l21 22 -50 49 c-47 46 -50 48 -68 32 -41 -37 -72 -6 -35 35 16 18 14 21 -32
68 l-49 50 -22 -21 c-41 -39 -75 1 -37 43 15 17 15 20 -7 43 -30 32 -73 33
-94 3z m296 -455 c76 -76 138 -146 138 -155 0 -16 -14 -18 -155 -18 l-155 0 0
155 c0 141 2 155 17 155 10 0 80 -62 155 -137z"/>
</g>
</svg>
