<?xml version="1.0" standalone="no"?>
<!DOCTYPE svg PUBLIC "-//W3C//DTD SVG 20010904//EN"
 "http://www.w3.org/TR/2001/REC-SVG-20010904/DTD/svg10.dtd">
<svg version="1.0" xmlns="http://www.w3.org/2000/svg"
 width="192.000000pt" height="192.000000pt" viewBox="0 0 192.000000 192.000000"
 preserveAspectRatio="xMidYMid meet">
<metadata>
Created by potrace 1.16, written by Peter Selinger 2001-2019
</metadata>
<g transform="translate(0.000000,192.000000) scale(0.100000,-0.100000)"
fill="#000000" stroke="none">
811 c445 -92 729 -532 635 -987 -62 -301 -295 -546 -601 -630 -91 -26 -329
-26 -420 0 -291 80 -516 305 -596 596 -26 91 -26 329 0 420 120 433 542 692
982 601z"/>
<path d="M853 1365 c-80 -22 -131 -52 -190 -111 -200 -200 -141 -536 116 -658
61 -29 74 -31 176 -31 104 0 114 2 176 32 80 40 159 120 197 200 24 52 27 69
27 168 0 102 -2 115 -31 176 -85 179 -285 274 -471 224z m206 -171 c111 -46
172 -178 137 -296 -50 -172 -261 -236 -396 -120 -52 44 -81 101 -87 173 l-6
58 -41 3 c-62 5 -59 27 16 104 44 45 68 63 79 59 28 -11 131 -135 125 -150 -3
-10 -20 -15 -47 -15 l-41 0 4 -53 c8 -94 67 -149 159 -149 60 0 107 27 137 80
56 100 -5 222 -118 237 -78 11 -87 14 -93 36 -4 13 2 28 15 41 17 17 28 19 71
14 28 -4 66 -14 86 -22z"/>
</g>
</svg>
