<?xml version="1.0" standalone="no"?>
<!DOCTYPE svg PUBLIC "-//W3C//DTD SVG 20010904//EN"
 "http://www.w3.org/TR/2001/REC-SVG-20010904/DTD/svg10.dtd">
<svg version="1.0" xmlns="http://www.w3.org/2000/svg"
 width="192.000000pt" height="192.000000pt" viewBox="0 0 192.000000 192.000000"
 preserveAspectRatio="xMidYMid meet">
<metadata>
Created by potrace 1.16, written by Peter Selinger 2001-2019
</metadata>
<g transform="translate(0.000000,192.000000) scale(0.100000,-0.100000)"
fill="#000000" stroke="none">
811 c445 -92 729 -532 635 -987 -62 -301 -295 -546 -601 -630 -91 -26 -329
-26 -420 0 -291 80 -516 305 -596 596 -26 91 -26 329 0 420 120 433 542 692
982 601z"/>
<path d="M870 1367 c-168 -40 -291 -170 -321 -341 -21 -121 20 -251 109 -344
121 -127 285 -162 457 -98 40 16 88 26 119 26 29 0 57 5 64 12 7 7 12 35 12
64 0 32 10 77 27 120 35 90 38 221 6 300 -77 193 -281 306 -473 261z m169
-165 c19 -10 43 -34 53 -53 33 -63 20 -115 -46 -179 -20 -19 -41 -51 -47 -72
-9 -36 -12 -38 -49 -38 -38 0 -40 2 -40 31 0 43 24 89 70 134 62 61 50 115
-25 115 -17 0 -37 -11 -55 -30 -51 -55 -108 -24 -75 41 32 61 146 88 214 51z
m-49 -402 c11 -11 20 -27 20 -35 0 -20 -36 -55 -57 -55 -44 0 -69 63 -37 94
21 22 50 20 74 -4z"/>
</g>
</svg>
