<?xml version="1.0" standalone="no"?>
<!DOCTYPE svg PUBLIC "-//W3C//DTD SVG 20010904//EN"
 "http://www.w3.org/TR/2001/REC-SVG-20010904/DTD/svg10.dtd">
<svg version="1.0" xmlns="http://www.w3.org/2000/svg"
 width="192.000000pt" height="192.000000pt" viewBox="0 0 192.000000 192.000000"
 preserveAspectRatio="xMidYMid meet">
<metadata>
Created by potrace 1.16, written by Peter Selinger 2001-2019
</metadata>
<g transform="translate(0.000000,192.000000) scale(0.100000,-0.100000)"
fill="#000000" stroke="none">
811 c445 -92 729 -532 635 -987 -62 -301 -295 -546 -601 -630 -91 -26 -329
-26 -420 0 -291 80 -516 305 -596 596 -26 91 -26 329 0 420 120 433 542 692
982 601z"/>
<path d="M615 1345 l-25 -24 0 -316 0 -315 80 0 80 0 0 314 c0 302 -1 314 -21
340 -28 35 -80 36 -114 1z"/>
<path d="M832 1138 c-19 -19 -14 -55 10 -72 19 -13 58 -16 230 -16 195 0 209
1 228 20 23 23 24 33 10 61 -10 18 -24 19 -238 19 -164 0 -231 -3 -240 -12z"/>
<path d="M832 998 c-17 -17 -15 -54 4 -72 14 -14 46 -16 237 -14 l221 3 15 27
c14 24 14 28 -3 47 -18 20 -29 21 -241 21 -158 0 -224 -3 -233 -12z"/>
<path d="M836 854 c-19 -18 -21 -55 -4 -72 9 -9 75 -12 233 -12 212 0 223 1
241 21 17 19 17 23 3 47 l-15 27 -221 3 c-191 2 -223 0 -237 -14z"/>
<path d="M623 608 c18 -29 40 -53 47 -53 7 0 29 24 47 53 l34 52 -81 0 -81 0
34 -52z"/>
</g>
</svg>
