<?xml version="1.0" standalone="no"?>
<!DOCTYPE svg PUBLIC "-//W3C//DTD SVG 20010904//EN"
 "http://www.w3.org/TR/2001/REC-SVG-20010904/DTD/svg10.dtd">
<svg version="1.0" xmlns="http://www.w3.org/2000/svg"
 width="192.000000pt" height="192.000000pt" viewBox="0 0 192.000000 192.000000"
 preserveAspectRatio="xMidYMid meet">
<metadata>
Created by potrace 1.16, written by Peter Selinger 2001-2019
</metadata>
<g transform="translate(0.000000,192.000000) scale(0.100000,-0.100000)"
fill="#000000" stroke="none">
811 c445 -92 729 -532 635 -987 -62 -301 -295 -546 -601 -630 -91 -26 -329
-26 -420 0 -291 80 -516 305 -596 596 -26 91 -26 329 0 420 120 433 542 692
982 601z"/>
<path d="M863 1366 c-69 -17 -147 -58 -151 -79 -8 -42 170 -75 302 -58 78 11
167 45 173 67 5 16 -94 61 -161 73 -73 13 -96 13 -163 -3z"/>
<path d="M1221 1253 c-14 -27 -97 -68 -180 -89 -47 -12 -97 -15 -186 -12 -135
3 -166 15 -189 70 l-13 30 -22 -31 c-27 -38 -23 -54 21 -81 120 -73 376 -99
530 -53 52 15 118 68 118 95 0 7 -15 31 -34 53 -32 38 -33 38 -45 18z"/>
<path d="M1302 1099 c-26 -32 -150 -83 -256 -105 -128 -27 -314 -16 -391 24
-16 8 -44 30 -61 49 l-32 34 -6 -36 c-9 -45 1 -58 67 -91 167 -85 507 -98 649
-25 29 14 61 38 71 53 18 24 19 31 7 73 -7 25 -16 47 -19 49 -3 2 -16 -9 -29
-25z"/>
<path d="M1345 949 c-29 -31 -171 -97 -259 -119 -213 -54 -406 -29 -503 63
l-33 31 0 -28 c0 -77 176 -154 375 -163 180 -9 369 38 410 101 13 19 38 136
30 136 -1 0 -10 -9 -20 -21z"/>
<path d="M1275 753 c-62 -33 -184 -72 -264 -84 -100 -15 -216 -2 -318 36 -77
29 -79 30 -62 9 20 -25 103 -63 171 -79 85 -20 259 -19 329 1 72 21 133 57
159 95 27 37 24 42 -15 22z"/>
<path d="M1105 604 c-56 -17 -193 -23 -275 -12 l-55 7 35 -17 c26 -13 62 -17
145 -17 98 0 116 3 165 27 62 30 58 33 -15 12z"/>
</g>
</svg>
