<?xml version="1.0" standalone="no"?>
<!DOCTYPE svg PUBLIC "-//W3C//DTD SVG 20010904//EN"
 "http://www.w3.org/TR/2001/REC-SVG-20010904/DTD/svg10.dtd">
<svg version="1.0" xmlns="http://www.w3.org/2000/svg"
 width="192.000000pt" height="192.000000pt" viewBox="0 0 192.000000 192.000000"
 preserveAspectRatio="xMidYMid meet">
<metadata>
Created by potrace 1.16, written by Peter Selinger 2001-2019
</metadata>
<g transform="translate(0.000000,192.000000) scale(0.100000,-0.100000)"
fill="#000000" stroke="none">
811 c445 -92 729 -532 635 -987 -62 -301 -295 -546 -601 -630 -91 -26 -329
-26 -420 0 -291 80 -516 305 -596 596 -26 91 -26 329 0 420 120 433 542 692
982 601z"/>
<path d="M770 1339 c-77 -42 -146 -113 -183 -189 -30 -61 -32 -72 -32 -175 0
-105 2 -114 33 -178 106 -215 362 -302 580 -196 70 34 168 124 178 164 10 40
-4 75 -33 86 -23 8 -38 4 -96 -25 -57 -30 -80 -36 -131 -36 -84 0 -147 23
-199 73 -61 60 -82 108 -81 192 0 79 20 128 79 194 38 42 43 65 19 99 -21 31
-67 28 -134 -9z"/>
<path d="M1075 1321 c-49 -22 -99 -77 -115 -126 -43 -131 61 -271 200 -269
119 2 203 90 202 212 -1 145 -155 243 -287 183z m103 -132 c2 -58 6 -69 32
-94 33 -32 38 -53 14 -62 -10 -4 -30 8 -55 33 -38 37 -39 40 -39 109 0 75 4
88 30 83 11 -2 16 -19 18 -69z"/>
</g>
</svg>
