<?xml version="1.0" standalone="no"?>
<!DOCTYPE svg PUBLIC "-//W3C//DTD SVG 20010904//EN"
 "http://www.w3.org/TR/2001/REC-SVG-20010904/DTD/svg10.dtd">
<svg version="1.0" xmlns="http://www.w3.org/2000/svg"
 width="192.000000pt" height="192.000000pt" viewBox="0 0 192.000000 192.000000"
 preserveAspectRatio="xMidYMid meet">
<metadata>
Created by potrace 1.16, written by Peter Selinger 2001-2019
</metadata>
<g transform="translate(0.000000,192.000000) scale(0.100000,-0.100000)"
fill="#000000" stroke="none">
811 c445 -92 729 -532 635 -987 -62 -301 -295 -546 -601 -630 -91 -26 -329
-26 -420 0 -291 80 -516 305 -596 596 -26 91 -26 329 0 420 120 433 542 692
982 601z"/>
<path d="M651 1343 c-20 -39 -43 -135 -33 -145 5 -5 31 -8 58 -6 48 3 49 4 45
33 -4 41 -40 135 -51 135 -5 0 -14 -8 -19 -17z"/>
<path d="M1212 1308 c-11 -29 -22 -67 -23 -83 -4 -30 -3 -30 49 -33 38 -2 54
1 58 11 7 19 -38 150 -53 154 -6 2 -20 -20 -31 -49z"/>
<path d="M967 1228 c-3 -11 1 -27 9 -35 20 -20 53 3 45 32 -8 28 -47 30 -54 3z"/>
<path d="M896 1218 c-9 -12 -16 -31 -16 -41 0 -23 19 -60 37 -70 10 -6 -4 -17
-46 -38 -63 -32 -96 -71 -107 -128 -4 -17 -13 -31 -20 -31 -11 0 -14 22 -14
99 0 56 4 103 10 106 16 10 12 42 -6 49 -28 11 -120 6 -138 -7 -17 -12 -14
-47 5 -47 5 0 9 -100 9 -225 0 -304 6 -315 167 -315 l93 0 0 63 c0 70 14 98
59 116 24 10 34 10 60 -3 41 -22 51 -44 51 -115 l0 -61 93 0 c161 0 167 11
167 315 0 125 4 225 9 225 19 0 22 35 5 47 -18 13 -110 18 -138 7 -18 -7 -22
-39 -6 -49 6 -3 10 -50 10 -106 0 -77 -3 -99 -14 -99 -7 0 -16 14 -20 31 -10
54 -44 95 -99 124 l-53 28 23 23 c13 13 23 31 23 40 0 16 -1 16 -18 1 -19 -18
-59 -22 -78 -9 -19 13 -33 48 -27 70 7 28 -2 28 -21 0z"/>
</g>
</svg>
