<?xml version="1.0" standalone="no"?>
<!DOCTYPE svg PUBLIC "-//W3C//DTD SVG 20010904//EN"
 "http://www.w3.org/TR/2001/REC-SVG-20010904/DTD/svg10.dtd">
<svg version="1.0" xmlns="http://www.w3.org/2000/svg"
 width="192.000000pt" height="192.000000pt" viewBox="0 0 192.000000 192.000000"
 preserveAspectRatio="xMidYMid meet">
<metadata>
Created by potrace 1.16, written by Peter Selinger 2001-2019
</metadata>
<g transform="translate(0.000000,192.000000) scale(0.100000,-0.100000)"
fill="#000000" stroke="none">
811 c445 -92 729 -532 635 -987 -62 -301 -295 -546 -601 -630 -91 -26 -329
-26 -420 0 -291 80 -516 305 -596 596 -26 91 -26 329 0 420 120 433 542 692
982 601z"/>
<path d="M905 1320 c-47 -14 -72 -47 -216 -280 -121 -197 -133 -220 -136 -270
-3 -43 0 -62 16 -88 29 -45 77 -72 129 -72 78 0 110 27 194 163 33 54 64 95
68 90 3 -4 36 -55 73 -113 74 -118 101 -140 174 -140 88 0 153 63 153 148 0
52 -5 62 -142 281 -60 96 -116 187 -124 202 -32 64 -120 100 -189 79z m348
-461 c38 -19 57 -51 57 -97 0 -37 -6 -50 -34 -78 -38 -38 -77 -44 -126 -19
-32 17 -60 61 -60 95 0 29 26 76 52 94 26 19 80 21 111 5z"/>
</g>
</svg>
