<?xml version="1.0" standalone="no"?>
<!DOCTYPE svg PUBLIC "-//W3C//DTD SVG 20010904//EN"
 "http://www.w3.org/TR/2001/REC-SVG-20010904/DTD/svg10.dtd">
<svg version="1.0" xmlns="http://www.w3.org/2000/svg"
 width="192.000000pt" height="192.000000pt" viewBox="0 0 192.000000 192.000000"
 preserveAspectRatio="xMidYMid meet">
<metadata>
Created by potrace 1.16, written by Peter Selinger 2001-2019
</metadata>
<g transform="translate(0.000000,192.000000) scale(0.100000,-0.100000)"
fill="#000000" stroke="none">
811 c445 -92 729 -532 635 -987 -62 -301 -295 -546 -601 -630 -91 -26 -329
-26 -420 0 -291 80 -516 305 -596 596 -26 91 -26 329 0 420 120 433 542 692
982 601z"/>
<path d="M665 1305 c-23 -22 -25 -31 -25 -121 l0 -96 -65 -67 c-36 -37 -65
-74 -65 -83 0 -17 31 -48 48 -48 6 0 24 12 41 26 l31 26 0 -151 c0 -198 -4
-193 158 -189 l117 3 3 91 3 92 -35 20 c-101 59 -82 215 31 253 97 32 199 -60
179 -163 -7 -36 -54 -93 -87 -103 -17 -6 -19 -16 -19 -85 0 -43 3 -85 6 -94 5
-13 26 -16 128 -16 171 0 166 -5 166 192 l0 151 23 -21 c43 -41 106 -20 93 31
-3 13 -84 99 -181 190 -188 178 -198 185 -291 174 -26 -3 -58 -15 -79 -31 -19
-15 -35 -22 -35 -16 0 6 -12 22 -26 35 -36 33 -87 33 -119 0z"/>
<path d="M898 1015 c-35 -20 -48 -44 -48 -93 0 -85 109 -124 171 -63 79 79
-25 211 -123 156z m86 -51 c40 -39 -4 -105 -56 -85 -32 12 -42 48 -22 78 17
27 55 30 78 7z"/>
</g>
</svg>
