<?xml version="1.0" standalone="no"?>
<!DOCTYPE svg PUBLIC "-//W3C//DTD SVG 20010904//EN"
 "http://www.w3.org/TR/2001/REC-SVG-20010904/DTD/svg10.dtd">
<svg version="1.0" xmlns="http://www.w3.org/2000/svg"
 width="192.000000pt" height="192.000000pt" viewBox="0 0 192.000000 192.000000"
 preserveAspectRatio="xMidYMid meet">
<metadata>
Created by potrace 1.16, written by Peter Selinger 2001-2019
</metadata>
<g transform="translate(0.000000,192.000000) scale(0.100000,-0.100000)"
fill="#000000" stroke="none">
811 c445 -92 729 -532 635 -987 -62 -301 -295 -546 -601 -630 -91 -26 -329
-26 -420 0 -291 80 -516 305 -596 596 -26 91 -26 329 0 420 120 433 542 692
982 601z"/>
<path d="M751 1351 c-49 -49 -18 -91 73 -102 95 -12 175 -51 236 -115 61 -64
88 -122 101 -212 5 -36 14 -71 20 -79 16 -18 64 -16 85 4 28 29 14 147 -30
239 -76 160 -221 262 -401 280 -55 6 -65 4 -84 -15z"/>
<path d="M757 1190 c-15 -12 -27 -30 -27 -41 0 -29 36 -59 70 -59 96 0 199
-101 200 -196 0 -61 74 -88 106 -39 34 52 -13 193 -88 260 -48 44 -125 81
-189 89 -37 6 -50 3 -72 -14z"/>
<path d="M710 1021 c-19 -10 -45 -36 -57 -57 -20 -34 -23 -53 -23 -157 0 -138
12 -175 69 -212 52 -33 91 -39 142 -20 54 20 54 20 108 0 50 -18 75 -13 98 21
21 33 5 71 -34 80 -57 14 -63 27 -63 148 0 125 -13 160 -72 196 -43 26 -121
26 -168 1z m109 -105 c8 -9 11 -49 9 -116 -3 -85 -6 -105 -20 -114 -13 -8 -23
-8 -35 0 -15 9 -18 29 -21 115 -2 89 0 106 15 116 22 17 38 16 52 -1z"/>
</g>
</svg>
