<?xml version="1.0" standalone="no"?>
<!DOCTYPE svg PUBLIC "-//W3C//DTD SVG 20010904//EN"
 "http://www.w3.org/TR/2001/REC-SVG-20010904/DTD/svg10.dtd">
<svg version="1.0" xmlns="http://www.w3.org/2000/svg"
 width="192.000000pt" height="192.000000pt" viewBox="0 0 192.000000 192.000000"
 preserveAspectRatio="xMidYMid meet">
<metadata>
Created by potrace 1.16, written by Peter Selinger 2001-2019
</metadata>
<g transform="translate(0.000000,192.000000) scale(0.100000,-0.100000)"
fill="#000000" stroke="none">
811 c445 -92 729 -532 635 -987 -62 -301 -295 -546 -601 -630 -91 -26 -329
-26 -420 0 -291 80 -516 305 -596 596 -26 91 -26 329 0 420 120 433 542 692
982 601z"/>
<path d="M866 1340 c-159 -41 -281 -180 -294 -338 l-5 -66 39 38 c53 52 144
110 225 143 44 18 72 36 78 51 16 33 56 46 92 28 24 -12 42 -13 96 -4 37 5 90
8 117 5 l51 -5 -57 53 c-37 34 -78 61 -115 75 -66 25 -170 34 -227 20z"/>
<path d="M1270 1182 c0 -5 7 -17 15 -28 21 -28 18 -35 -12 -23 -30 11 -157 14
-201 4 -16 -3 -34 -18 -44 -35 -19 -33 -56 -40 -101 -19 -21 9 -37 5 -108 -30
-103 -50 -170 -98 -208 -151 l-29 -40 -9 37 -9 38 -17 -32 c-27 -51 -22 -100
13 -133 16 -15 42 -31 57 -35 15 -3 49 -27 76 -51 102 -96 246 -128 377 -84
147 50 236 157 261 313 6 34 19 80 29 103 26 52 25 85 -1 118 -27 35 -89 68
-89 48z"/>
</g>
</svg>
