<?xml version="1.0" standalone="no"?>
<!DOCTYPE svg PUBLIC "-//W3C//DTD SVG 20010904//EN"
 "http://www.w3.org/TR/2001/REC-SVG-20010904/DTD/svg10.dtd">
<svg version="1.0" xmlns="http://www.w3.org/2000/svg"
 width="192.000000pt" height="192.000000pt" viewBox="0 0 192.000000 192.000000"
 preserveAspectRatio="xMidYMid meet">
<metadata>
Created by potrace 1.16, written by Peter Selinger 2001-2019
</metadata>
<g transform="translate(0.000000,192.000000) scale(0.100000,-0.100000)"
fill="#000000" stroke="none">
811 c445 -92 729 -532 635 -987 -62 -301 -295 -546 -601 -630 -91 -26 -329
-26 -420 0 -291 80 -516 305 -596 596 -26 91 -26 329 0 420 120 433 542 692
982 601z"/>
<path d="M872 1340 c-157 -33 -287 -179 -300 -336 l-5 -63 44 40 c51 48 151
108 230 140 35 15 61 33 71 49 20 35 62 46 93 26 20 -13 34 -14 82 -5 32 6 85
9 117 7 l60 -5 -57 53 c-87 81 -219 118 -335 94z"/>
<path d="M1270 1182 c0 -5 7 -17 15 -28 21 -28 18 -35 -11 -24 -27 11 -175 13
-209 4 -11 -3 -28 -18 -37 -35 -13 -22 -24 -29 -48 -29 -17 0 -40 5 -50 10
-43 23 -253 -95 -317 -178 l-31 -41 -9 37 -9 37 -17 -32 c-27 -50 -22 -96 13
-131 16 -16 42 -33 57 -37 15 -3 49 -27 76 -51 26 -25 73 -57 105 -72 49 -23
70 -27 152 -27 86 0 101 3 162 32 121 57 198 160 219 294 5 35 19 82 29 105
26 52 25 85 -1 118 -27 35 -89 68 -89 48z"/>
</g>
</svg>
