<?xml version="1.0" standalone="no"?>
<!DOCTYPE svg PUBLIC "-//W3C//DTD SVG 20010904//EN"
 "http://www.w3.org/TR/2001/REC-SVG-20010904/DTD/svg10.dtd">
<svg version="1.0" xmlns="http://www.w3.org/2000/svg"
 width="192.000000pt" height="192.000000pt" viewBox="0 0 192.000000 192.000000"
 preserveAspectRatio="xMidYMid meet">
<metadata>
Created by potrace 1.16, written by Peter Selinger 2001-2019
</metadata>
<g transform="translate(0.000000,192.000000) scale(0.100000,-0.100000)"
fill="#000000" stroke="none">
811 c445 -92 729 -532 635 -987 -62 -301 -295 -546 -601 -630 -91 -26 -329
-26 -420 0 -291 80 -516 305 -596 596 -26 91 -26 329 0 420 120 433 542 692
982 601z"/>
<path d="M860 1337 c-165 -48 -275 -176 -288 -334 l-5 -68 39 38 c50 49 163
120 235 147 38 15 60 30 68 46 15 35 56 48 91 30 23 -11 44 -11 113 -3 106 13
144 4 171 -42 l19 -33 -23 12 c-25 13 -155 17 -206 6 -19 -4 -36 -16 -42 -31
-14 -31 -55 -41 -99 -26 -31 12 -39 10 -116 -28 -101 -50 -168 -99 -206 -151
l-29 -40 -9 37 -9 38 -17 -32 c-27 -50 -22 -99 12 -133 16 -16 41 -32 57 -36
16 -4 51 -27 77 -51 26 -24 73 -56 105 -71 50 -24 69 -27 157 -27 90 0 106 3
160 29 117 58 194 164 216 298 6 35 19 79 30 99 10 20 19 50 19 67 0 38 -38
85 -82 103 -18 7 -59 36 -90 65 -93 85 -238 123 -348 91z"/>
</g>
</svg>
