<?xml version="1.0" standalone="no"?>
<!DOCTYPE svg PUBLIC "-//W3C//DTD SVG 20010904//EN"
 "http://www.w3.org/TR/2001/REC-SVG-20010904/DTD/svg10.dtd">
<svg version="1.0" xmlns="http://www.w3.org/2000/svg"
 width="192.000000pt" height="192.000000pt" viewBox="0 0 192.000000 192.000000"
 preserveAspectRatio="xMidYMid meet">
<metadata>
Created by potrace 1.16, written by Peter Selinger 2001-2019
</metadata>
<g transform="translate(0.000000,192.000000) scale(0.100000,-0.100000)"
fill="#000000" stroke="none">
811 c445 -92 729 -532 635 -987 -62 -301 -295 -546 -601 -630 -91 -26 -329
-26 -420 0 -291 80 -516 305 -596 596 -26 91 -26 329 0 420 120 433 542 692
982 601z"/>
<path d="M866 1340 c-159 -40 -281 -180 -294 -336 l-5 -64 44 40 c52 49 152
110 230 141 35 15 61 33 71 49 20 34 62 46 93 26 19 -12 34 -13 91 -4 37 5 91
8 118 5 l51 -5 -57 53 c-37 34 -78 61 -115 75 -66 25 -170 34 -227 20z"/>
<path d="M1270 1182 c0 -5 7 -17 15 -28 21 -28 18 -35 -11 -24 -27 11 -175 13
-209 4 -11 -3 -28 -18 -37 -35 -19 -32 -56 -39 -101 -18 -21 10 -37 5 -108
-30 -105 -52 -171 -99 -208 -151 l-29 -40 -9 37 -9 38 -17 -32 c-27 -51 -22
-100 13 -133 16 -15 42 -31 57 -35 15 -3 49 -27 76 -51 102 -96 246 -128 377
-84 147 50 236 157 261 313 6 34 19 80 29 103 26 52 25 85 -1 118 -27 35 -89
68 -89 48z"/>
</g>
</svg>
