<?xml version="1.0" standalone="no"?>
<!DOCTYPE svg PUBLIC "-//W3C//DTD SVG 20010904//EN"
 "http://www.w3.org/TR/2001/REC-SVG-20010904/DTD/svg10.dtd">
<svg version="1.0" xmlns="http://www.w3.org/2000/svg"
 width="192.000000pt" height="192.000000pt" viewBox="0 0 192.000000 192.000000"
 preserveAspectRatio="xMidYMid meet">
<metadata>
Created by potrace 1.16, written by Peter Selinger 2001-2019
</metadata>
<g transform="translate(0.000000,192.000000) scale(0.100000,-0.100000)"
fill="#000000" stroke="none">
811 c445 -92 729 -532 635 -987 -62 -301 -295 -546 -601 -630 -91 -26 -329
-26 -420 0 -291 80 -516 305 -596 596 -26 91 -26 329 0 420 120 433 542 692
982 601z"/>
<path d="M860 1337 c-164 -48 -275 -176 -288 -334 l-5 -68 42 40 c59 57 145
111 222 141 46 18 70 34 78 50 16 35 56 48 92 30 24 -12 42 -13 96 -4 37 6 90
8 118 5 l50 -6 -57 54 c-91 86 -237 124 -348 92z"/>
<path d="M1270 1182 c0 -5 7 -17 15 -28 21 -27 18 -37 -6 -24 -22 12 -161 16
-208 5 -16 -3 -33 -16 -39 -30 -14 -31 -55 -41 -98 -26 -30 11 -40 9 -116 -28
-102 -50 -169 -99 -207 -151 l-29 -40 -9 37 -9 38 -17 -32 c-37 -70 -11 -141
61 -164 20 -6 59 -32 85 -56 131 -122 327 -137 475 -35 93 62 150 159 167 279
4 29 15 69 26 90 25 48 24 84 -2 117 -27 35 -89 68 -89 48z"/>
</g>
</svg>
