<?xml version="1.0" standalone="no"?>
<!DOCTYPE svg PUBLIC "-//W3C//DTD SVG 20010904//EN"
 "http://www.w3.org/TR/2001/REC-SVG-20010904/DTD/svg10.dtd">
<svg version="1.0" xmlns="http://www.w3.org/2000/svg"
 width="192.000000pt" height="192.000000pt" viewBox="0 0 192.000000 192.000000"
 preserveAspectRatio="xMidYMid meet">
<metadata>
Created by potrace 1.16, written by Peter Selinger 2001-2019
</metadata>
<g transform="translate(0.000000,192.000000) scale(0.100000,-0.100000)"
fill="#000000" stroke="none">
811 c445 -92 729 -532 635 -987 -62 -301 -295 -546 -601 -630 -91 -26 -329
-26 -420 0 -291 80 -516 305 -596 596 -26 91 -26 329 0 420 120 433 542 692
982 601z"/>
<path d="M850 1335 c-153 -43 -266 -178 -278 -334 l-5 -66 49 45 c57 53 144
107 226 140 36 15 60 31 67 47 15 33 56 47 91 30 22 -11 46 -12 121 -4 110 11
140 3 164 -43 16 -31 16 -31 -6 -19 -25 13 -156 16 -205 5 -19 -4 -36 -16 -42
-31 -14 -31 -55 -41 -98 -26 -29 11 -40 9 -97 -17 -115 -52 -245 -154 -248
-195 -1 -7 -7 6 -13 28 l-13 40 -16 -32 c-26 -50 -22 -100 12 -133 16 -16 41
-32 57 -36 16 -3 49 -26 74 -50 25 -24 72 -56 105 -71 53 -25 71 -28 160 -28
90 0 106 3 160 29 116 57 194 162 216 292 6 38 20 85 30 105 37 71 17 134 -53
164 -24 11 -69 43 -100 71 -97 88 -236 123 -358 89z"/>
</g>
</svg>
