<?xml version="1.0" standalone="no"?>
<!DOCTYPE svg PUBLIC "-//W3C//DTD SVG 20010904//EN"
 "http://www.w3.org/TR/2001/REC-SVG-20010904/DTD/svg10.dtd">
<svg version="1.0" xmlns="http://www.w3.org/2000/svg"
 width="192.000000pt" height="192.000000pt" viewBox="0 0 192.000000 192.000000"
 preserveAspectRatio="xMidYMid meet">
<metadata>
Created by potrace 1.16, written by Peter Selinger 2001-2019
</metadata>
<g transform="translate(0.000000,192.000000) scale(0.100000,-0.100000)"
fill="#000000" stroke="none">
811 c445 -92 729 -532 635 -987 -62 -301 -295 -546 -601 -630 -91 -26 -329
-26 -420 0 -291 80 -516 305 -596 596 -26 91 -26 329 0 420 120 433 542 692
982 601z"/>
<path d="M865 1336 c-159 -39 -280 -176 -293 -333 l-5 -62 44 40 c51 48 172
121 239 145 30 11 52 27 62 45 21 35 60 47 91 26 18 -12 34 -13 82 -5 33 5 84
8 113 6 28 -2 52 0 52 3 0 14 -88 86 -130 107 -48 23 -134 43 -179 41 -14 0
-48 -6 -76 -13z"/>
<path d="M1270 1182 c0 -4 7 -16 15 -26 22 -29 18 -37 -11 -26 -28 11 -154 13
-201 4 -17 -3 -35 -17 -45 -35 -14 -24 -23 -29 -57 -29 -22 0 -43 5 -46 10 -8
14 -33 6 -120 -37 -91 -45 -160 -97 -195 -145 -29 -39 -40 -35 -40 15 0 20 0
20 -15 1 -50 -66 -19 -153 65 -179 14 -4 47 -28 73 -52 26 -24 73 -56 105 -71
49 -23 70 -27 152 -27 86 0 101 3 162 32 121 57 202 167 218 295 4 35 17 81
29 103 28 52 27 87 -4 123 -23 28 -85 60 -85 44z"/>
</g>
</svg>
