<?xml version="1.0" standalone="no"?>
<!DOCTYPE svg PUBLIC "-//W3C//DTD SVG 20010904//EN"
 "http://www.w3.org/TR/2001/REC-SVG-20010904/DTD/svg10.dtd">
<svg version="1.0" xmlns="http://www.w3.org/2000/svg"
 width="192.000000pt" height="192.000000pt" viewBox="0 0 192.000000 192.000000"
 preserveAspectRatio="xMidYMid meet">
<metadata>
Created by potrace 1.16, written by Peter Selinger 2001-2019
</metadata>
<g transform="translate(0.000000,192.000000) scale(0.100000,-0.100000)"
fill="#000000" stroke="none">
811 c445 -92 729 -532 635 -987 -62 -301 -295 -546 -601 -630 -91 -26 -329
-26 -420 0 -291 80 -516 305 -596 596 -26 91 -26 329 0 420 120 433 542 692
982 601z"/>
<path d="M695 1325 c-42 -23 -81 -62 -100 -100 -12 -27 -15 -75 -15 -257 0
-195 3 -228 19 -263 22 -50 69 -91 119 -105 48 -13 426 -13 475 1 51 14 102
61 122 112 13 36 16 80 13 273 l-3 231 -27 36 c-16 19 -43 46 -60 59 -32 22
-40 23 -273 26 -203 2 -245 0 -270 -13z m90 -125 c0 -21 -5 -26 -32 -28 -31
-3 -33 -1 -33 28 0 29 2 31 33 28 27 -2 32 -7 32 -28z m135 0 c0 -27 -3 -30
-29 -30 -21 0 -32 6 -36 20 -9 28 2 40 36 40 26 0 29 -3 29 -30z m135 20 c14
-22 -6 -50 -36 -50 -26 0 -29 3 -29 30 0 27 3 30 29 30 17 0 33 -5 36 -10z
m135 -20 c0 -27 -3 -30 -30 -30 -18 0 -33 6 -36 15 -11 27 4 45 36 45 27 0 30
-3 30 -30z m-405 -470 c0 -21 -5 -26 -32 -28 -31 -3 -33 -1 -33 28 0 29 2 31
33 28 27 -2 32 -7 32 -28z m135 0 c0 -27 -3 -30 -30 -30 -32 0 -47 18 -36 45
3 9 18 15 36 15 27 0 30 -3 30 -30z m135 0 c0 -21 -5 -26 -32 -28 -31 -3 -33
-1 -33 28 0 29 2 31 33 28 27 -2 32 -7 32 -28z m135 0 c0 -27 -3 -30 -30 -30
-18 0 -33 6 -36 15 -11 27 4 45 36 45 27 0 30 -3 30 -30z"/>
</g>
</svg>
