<?xml version="1.0" standalone="no"?>
<!DOCTYPE svg PUBLIC "-//W3C//DTD SVG 20010904//EN"
 "http://www.w3.org/TR/2001/REC-SVG-20010904/DTD/svg10.dtd">
<svg version="1.0" xmlns="http://www.w3.org/2000/svg"
 width="192.000000pt" height="192.000000pt" viewBox="0 0 192.000000 192.000000"
 preserveAspectRatio="xMidYMid meet">
<metadata>
Created by potrace 1.16, written by Peter Selinger 2001-2019
</metadata>
<g transform="translate(0.000000,192.000000) scale(0.100000,-0.100000)"
fill="#000000" stroke="none">
811 c445 -92 729 -532 635 -987 -62 -301 -295 -546 -601 -630 -91 -26 -329
-26 -420 0 -291 80 -516 305 -596 596 -26 91 -26 329 0 420 120 433 542 692
982 601z"/>
<path d="M830 1292 c-77 -26 -97 -38 -158 -96 -64 -60 -106 -138 -122 -225
-16 -90 7 -209 51 -265 39 -50 125 -42 154 15 19 35 19 58 0 102 -17 41 -20
123 -6 160 5 14 25 42 43 62 158 181 443 12 363 -215 -23 -65 -19 -97 14 -131
55 -54 124 -31 162 53 20 45 24 69 24 158 0 98 -2 109 -32 171 -41 82 -111
150 -201 192 -85 40 -205 48 -292 19z"/>
<path d="M870 1048 c-55 -37 -80 -83 -80 -143 0 -172 235 -224 311 -69 53 111
-14 223 -138 232 -49 3 -64 0 -93 -20z"/>
</g>
</svg>
