<?xml version="1.0" standalone="no"?>
<!DOCTYPE svg PUBLIC "-//W3C//DTD SVG 20010904//EN"
 "http://www.w3.org/TR/2001/REC-SVG-20010904/DTD/svg10.dtd">
<svg version="1.0" xmlns="http://www.w3.org/2000/svg"
 width="192.000000pt" height="192.000000pt" viewBox="0 0 192.000000 192.000000"
 preserveAspectRatio="xMidYMid meet">
<metadata>
Created by potrace 1.16, written by Peter Selinger 2001-2019
</metadata>
<g transform="translate(0.000000,192.000000) scale(0.100000,-0.100000)"
fill="#000000" stroke="none">
811 c445 -92 729 -532 635 -987 -62 -301 -295 -546 -601 -630 -91 -26 -329
-26 -420 0 -291 80 -516 305 -596 596 -26 91 -26 329 0 420 120 433 542 692
982 601z"/>
<path d="M695 1321 c-48 -22 -79 -54 -100 -103 -12 -30 -15 -81 -15 -255 0
-245 8 -277 71 -326 53 -40 100 -47 304 -47 204 0 251 7 304 47 63 49 71 81
71 326 0 232 -5 264 -53 316 -50 54 -83 61 -322 61 -193 0 -225 -3 -260 -19z
m125 -311 c72 -44 133 -80 136 -80 4 0 64 36 135 81 111 70 131 79 149 69 45
-24 21 -50 -125 -142 -77 -48 -149 -87 -160 -87 -30 0 -299 173 -304 194 -2
15 21 45 36 45 1 0 61 -36 133 -80z"/>
</g>
</svg>
