<?xml version="1.0" standalone="no"?>
<!DOCTYPE svg PUBLIC "-//W3C//DTD SVG 20010904//EN"
 "http://www.w3.org/TR/2001/REC-SVG-20010904/DTD/svg10.dtd">
<svg version="1.0" xmlns="http://www.w3.org/2000/svg"
 width="192.000000pt" height="192.000000pt" viewBox="0 0 192.000000 192.000000"
 preserveAspectRatio="xMidYMid meet">
<metadata>
Created by potrace 1.16, written by Peter Selinger 2001-2019
</metadata>
<g transform="translate(0.000000,192.000000) scale(0.100000,-0.100000)"
fill="#000000" stroke="none">
811 c445 -92 729 -532 635 -987 -62 -301 -295 -546 -601 -630 -91 -26 -329
-26 -420 0 -291 80 -516 305 -596 596 -26 91 -26 329 0 420 120 433 542 692
982 601z"/>
<path d="M882 1369 c-119 -20 -241 -111 -294 -221 -100 -204 -14 -451 191
-551 61 -29 73 -32 171 -32 97 0 110 2 172 32 93 44 151 100 196 191 36 74 37
79 36 182 0 92 -3 112 -26 162 -78 169 -264 268 -446 237z m118 -290 c165 -94
163 -131 -14 -228 -84 -46 -124 -51 -152 -20 -16 18 -19 37 -19 141 0 114 1
121 24 139 36 29 63 24 161 -32z"/>
</g>
</svg>
