<?xml version="1.0" standalone="no"?>
<!DOCTYPE svg PUBLIC "-//W3C//DTD SVG 20010904//EN"
 "http://www.w3.org/TR/2001/REC-SVG-20010904/DTD/svg10.dtd">
<svg version="1.0" xmlns="http://www.w3.org/2000/svg"
 width="192.000000pt" height="192.000000pt" viewBox="0 0 192.000000 192.000000"
 preserveAspectRatio="xMidYMid meet">
<metadata>
Created by potrace 1.16, written by Peter Selinger 2001-2019
</metadata>
<g transform="translate(0.000000,192.000000) scale(0.100000,-0.100000)"
fill="#000000" stroke="none">
811 c445 -92 729 -532 635 -987 -62 -301 -295 -546 -601 -630 -91 -26 -329
-26 -420 0 -291 80 -516 305 -596 596 -26 91 -26 329 0 420 120 433 542 692
982 601z"/>
<path d="M679 1317 c-49 -26 -84 -71 -100 -129 -11 -42 -14 -368 -3 -426 9
-49 26 -81 61 -114 55 -53 84 -58 310 -58 114 0 225 5 245 10 49 14 94 53 119
103 19 36 21 57 20 262 0 169 -3 231 -14 257 -15 37 -75 94 -114 109 -13 5
-127 9 -252 9 -219 0 -230 -1 -272 -23z m573 -235 l-4 -144 21 21 c12 12 30
21 42 21 30 0 23 -54 -8 -58 -12 -2 -26 -15 -33 -33 -14 -33 -30 -36 -72 -11
-24 14 -28 22 -24 45 3 15 2 27 -2 27 -4 0 -25 -53 -46 -117 -21 -65 -42 -122
-47 -127 -4 -5 -19 -2 -33 8 -25 16 -26 19 -26 136 0 65 -4 121 -8 124 -4 2
-26 -25 -48 -61 -21 -37 -45 -68 -51 -70 -7 -3 -17 13 -23 38 -6 23 -16 53
-21 67 l-10 26 -44 -48 c-24 -26 -48 -45 -54 -42 -6 4 -13 23 -17 42 -5 28
-10 34 -23 28 -9 -4 -34 -8 -56 -8 -34 -1 -40 2 -43 22 -3 22 -1 23 33 16 29
-5 41 -2 60 16 25 24 55 21 55 -5 0 -24 10 -18 52 30 22 25 46 45 53 45 7 0
19 -17 26 -37 27 -85 32 -83 90 21 44 80 57 96 77 96 l24 0 -4 -125 c-2 -68 0
-121 3 -117 4 4 29 78 55 165 l48 158 31 -3 30 -3 -3 -143z m-652 -86 c0 -8
-4 -18 -10 -21 -5 -3 -10 3 -10 14 0 12 5 21 10 21 6 0 10 -6 10 -14z"/>
</g>
</svg>
