<?xml version="1.0" standalone="no"?>
<!DOCTYPE svg PUBLIC "-//W3C//DTD SVG 20010904//EN"
 "http://www.w3.org/TR/2001/REC-SVG-20010904/DTD/svg10.dtd">
<svg version="1.0" xmlns="http://www.w3.org/2000/svg"
 width="192.000000pt" height="192.000000pt" viewBox="0 0 192.000000 192.000000"
 preserveAspectRatio="xMidYMid meet">
<metadata>
Created by potrace 1.16, written by Peter Selinger 2001-2019
</metadata>
<g transform="translate(0.000000,192.000000) scale(0.100000,-0.100000)"
fill="#000000" stroke="none">
811 c445 -92 729 -532 635 -987 -62 -301 -295 -546 -601 -630 -91 -26 -329
-26 -420 0 -291 80 -516 305 -596 596 -26 91 -26 329 0 420 120 433 542 692
982 601z"/>
<path d="M922 1378 c-9 -9 -12 -116 -12 -420 0 -392 1 -408 19 -418 29 -15 49
-12 71 10 19 19 20 33 20 408 0 335 -2 391 -16 410 -17 24 -62 30 -82 10z"/>
<path d="M756 1254 c-14 -13 -16 -55 -16 -305 0 -276 1 -290 20 -309 24 -24
38 -25 68 -4 22 15 22 17 22 313 0 218 -3 300 -12 309 -17 17 -64 15 -82 -4z"/>
<path d="M1082 1258 c-9 -9 -12 -91 -12 -309 0 -296 0 -298 22 -313 30 -21 44
-20 68 4 19 19 20 33 20 309 0 250 -2 292 -16 305 -18 19 -65 21 -82 4z"/>
<path d="M596 1054 c-12 -11 -16 -36 -16 -95 0 -99 9 -119 55 -119 46 0 55 20
55 119 0 87 -12 111 -55 111 -13 0 -31 -7 -39 -16z"/>
<path d="M1242 1058 c-16 -16 -16 -190 0 -206 18 -18 63 -14 81 6 23 25 24
158 1 190 -17 24 -62 30 -82 10z"/>
</g>
</svg>
