<?xml version="1.0" standalone="no"?>
<!DOCTYPE svg PUBLIC "-//W3C//DTD SVG 20010904//EN"
 "http://www.w3.org/TR/2001/REC-SVG-20010904/DTD/svg10.dtd">
<svg version="1.0" xmlns="http://www.w3.org/2000/svg"
 width="192.000000pt" height="192.000000pt" viewBox="0 0 192.000000 192.000000"
 preserveAspectRatio="xMidYMid meet">
<metadata>
Created by potrace 1.16, written by Peter Selinger 2001-2019
</metadata>
<g transform="translate(0.000000,192.000000) scale(0.100000,-0.100000)"
fill="#000000" stroke="none">
811 c445 -92 729 -532 635 -987 -62 -301 -295 -546 -601 -630 -91 -26 -329
-26 -420 0 -291 80 -516 305 -596 596 -26 91 -26 329 0 420 120 433 542 692
982 601z"/>
<path d="M938 1363 c-9 -2 -52 -65 -95 -139 l-77 -134 -78 0 c-83 0 -122 -10
-131 -34 -10 -27 77 -443 98 -466 17 -19 29 -20 300 -20 262 0 283 1 299 19
15 17 96 391 96 448 0 38 -36 53 -125 53 l-80 0 -70 122 c-68 119 -97 159
-112 157 -5 -1 -16 -3 -25 -6z m51 -207 c17 -29 31 -56 31 -60 0 -3 -29 -6
-65 -6 -36 0 -65 2 -65 5 0 7 61 115 65 115 2 0 17 -24 34 -54z m-7 -218 c24
-20 98 -157 98 -182 0 -39 -18 -46 -127 -46 -98 0 -103 1 -119 25 -15 24 -14
28 30 109 56 102 82 123 118 94z"/>
<path d="M912 820 l-33 -60 70 0 c39 0 71 3 71 8 0 13 -60 112 -68 112 -4 0
-22 -27 -40 -60z"/>
</g>
</svg>
