<?xml version="1.0" standalone="no"?>
<!DOCTYPE svg PUBLIC "-//W3C//DTD SVG 20010904//EN"
 "http://www.w3.org/TR/2001/REC-SVG-20010904/DTD/svg10.dtd">
<svg version="1.0" xmlns="http://www.w3.org/2000/svg"
 width="192.000000pt" height="192.000000pt" viewBox="0 0 192.000000 192.000000"
 preserveAspectRatio="xMidYMid meet">
<metadata>
Created by potrace 1.16, written by Peter Selinger 2001-2019
</metadata>
<g transform="translate(0.000000,192.000000) scale(0.100000,-0.100000)"
fill="#000000" stroke="none">
811 c445 -92 729 -532 635 -987 -62 -301 -295 -546 -601 -630 -91 -26 -329
-26 -420 0 -291 80 -516 305 -596 596 -26 91 -26 329 0 420 120 433 542 692
982 601z"/>
<path d="M709 1344 c-10 -13 -6 -22 29 -57 l41 -42 -34 -44 c-41 -52 -58 -101
-53 -156 l3 -40 257 -3 c247 -2 258 -2 268 17 20 38 -11 133 -64 196 l-25 30
42 43 c38 39 40 43 25 58 -15 15 -20 13 -65 -29 -48 -45 -48 -45 -82 -31 -43
18 -137 18 -189 0 -40 -14 -40 -14 -73 21 -47 48 -64 56 -80 37z m184 -196 c7
-21 -4 -38 -23 -38 -23 0 -34 16 -26 35 7 18 43 20 49 3z m172 -13 c0 -23 -34
-33 -45 -14 -13 20 1 40 24 37 13 -2 21 -10 21 -23z"/>
<path d="M723 950 c-35 -14 -45 -45 -38 -113 9 -80 33 -134 80 -182 55 -54
107 -75 190 -75 114 0 202 57 248 159 24 55 30 182 9 203 -16 16 -453 23 -489
8z"/>
</g>
</svg>
