<?xml version="1.0" standalone="no"?>
<!DOCTYPE svg PUBLIC "-//W3C//DTD SVG 20010904//EN"
 "http://www.w3.org/TR/2001/REC-SVG-20010904/DTD/svg10.dtd">
<svg version="1.0" xmlns="http://www.w3.org/2000/svg"
 width="192.000000pt" height="192.000000pt" viewBox="0 0 192.000000 192.000000"
 preserveAspectRatio="xMidYMid meet">
<metadata>
Created by potrace 1.16, written by Peter Selinger 2001-2019
</metadata>
<g transform="translate(0.000000,192.000000) scale(0.100000,-0.100000)"
fill="#000000" stroke="none">
811 c445 -92 729 -532 635 -987 -62 -301 -295 -546 -601 -630 -91 -26 -329
-26 -420 0 -291 80 -516 305 -596 596 -26 91 -26 329 0 420 120 433 542 692
982 601z"/>
<path d="M920 1358 c0 -11 15 -18 47 -23 135 -20 233 -127 233 -255 -1 -124
-98 -230 -229 -249 l-46 -6 -3 -129 -3 -129 68 5 c147 12 271 95 335 226 31
63 33 73 33 172 -1 94 -3 111 -28 162 -65 134 -192 223 -335 235 -61 5 -72 3
-72 -9z"/>
<path d="M732 1301 c-203 -132 -239 -411 -77 -599 32 -37 125 -102 148 -102 4
0 7 86 7 191 0 105 3 189 8 187 57 -30 91 -39 124 -35 98 13 157 121 113 206
-27 54 -71 81 -128 81 -29 -1 -63 -7 -77 -15 -14 -8 -28 -14 -32 -15 -5 0 -8
32 -8 70 0 39 -4 70 -8 70 -5 0 -36 -18 -70 -39z"/>
</g>
</svg>
