<?xml version="1.0" standalone="no"?>
<!DOCTYPE svg PUBLIC "-//W3C//DTD SVG 20010904//EN"
 "http://www.w3.org/TR/2001/REC-SVG-20010904/DTD/svg10.dtd">
<svg version="1.0" xmlns="http://www.w3.org/2000/svg"
 width="192.000000pt" height="192.000000pt" viewBox="0 0 192.000000 192.000000"
 preserveAspectRatio="xMidYMid meet">
<metadata>
Created by potrace 1.16, written by Peter Selinger 2001-2019
</metadata>
<g transform="translate(0.000000,192.000000) scale(0.100000,-0.100000)"
fill="#000000" stroke="none">
811 c445 -92 729 -532 635 -987 -62 -301 -295 -546 -601 -630 -91 -26 -329
-26 -420 0 -291 80 -516 305 -596 596 -26 91 -26 329 0 420 120 433 542 692
982 601z"/>
<path d="M1066 1278 c-34 -48 -22 -74 76 -174 89 -91 91 -95 96 -148 4 -50 2
-56 -29 -90 -36 -39 -85 -54 -134 -42 -14 4 -70 49 -125 101 -54 52 -104 95
-110 95 -20 0 -67 -29 -74 -45 -15 -40 -3 -61 87 -152 115 -119 165 -147 262
-147 59 0 79 4 125 29 66 36 114 97 136 172 33 115 1 198 -128 329 -84 86 -95
94 -129 94 -28 0 -42 -6 -53 -22z"/>
<path d="M690 1229 c-99 -44 -160 -138 -160 -245 0 -102 21 -144 127 -255 98
-102 118 -115 159 -105 30 8 58 59 48 89 -4 12 -44 60 -89 107 -45 47 -88 95
-94 107 -44 85 42 194 141 178 35 -6 57 -22 138 -101 105 -102 129 -112 168
-71 41 44 31 71 -70 175 -112 114 -162 142 -258 142 -44 0 -80 -7 -110 -21z"/>
</g>
</svg>
