<?xml version="1.0" standalone="no"?>
<!DOCTYPE svg PUBLIC "-//W3C//DTD SVG 20010904//EN"
 "http://www.w3.org/TR/2001/REC-SVG-20010904/DTD/svg10.dtd">
<svg version="1.0" xmlns="http://www.w3.org/2000/svg"
 width="192.000000pt" height="192.000000pt" viewBox="0 0 192.000000 192.000000"
 preserveAspectRatio="xMidYMid meet">
<metadata>
Created by potrace 1.16, written by Peter Selinger 2001-2019
</metadata>
<g transform="translate(0.000000,192.000000) scale(0.100000,-0.100000)"
fill="#000000" stroke="none">
811 c445 -92 729 -532 635 -987 -62 -301 -295 -546 -601 -630 -91 -26 -329
-26 -420 0 -291 80 -516 305 -596 596 -26 91 -26 329 0 420 120 433 542 692
982 601z"/>
<path d="M1064 1368 c-31 -15 -44 -50 -44 -123 l0 -65 -46 0 c-69 0 -120 -19
-170 -63 -82 -72 -109 -160 -80 -262 l17 -57 -75 -78 c-42 -43 -76 -83 -76
-90 0 -16 20 -53 34 -62 6 -4 24 -8 41 -8 23 0 44 15 100 70 l71 71 65 -18
c57 -15 74 -15 123 -4 115 26 199 128 198 244 0 62 -15 114 -46 152 -14 19
-15 13 -16 -82 0 -56 -5 -114 -11 -130 -22 -60 -109 -122 -169 -123 -85 0
-168 63 -189 144 -30 119 57 229 182 230 45 0 47 1 47 28 0 19 5 28 15 28 21
0 75 -28 103 -53 l22 -20 0 61 0 62 51 0 c43 0 55 5 80 29 16 16 29 39 29 51
0 12 -13 35 -29 51 -28 28 -33 29 -118 28 -48 0 -98 -5 -109 -11z"/>
<path d="M934 1006 c-59 -26 -68 -106 -17 -146 37 -29 79 -26 114 9 36 36 38
79 7 115 -29 32 -64 39 -104 22z"/>
</g>
</svg>
