<?xml version="1.0" standalone="no"?>
<!DOCTYPE svg PUBLIC "-//W3C//DTD SVG 20010904//EN"
 "http://www.w3.org/TR/2001/REC-SVG-20010904/DTD/svg10.dtd">
<svg version="1.0" xmlns="http://www.w3.org/2000/svg"
 width="192.000000pt" height="192.000000pt" viewBox="0 0 192.000000 192.000000"
 preserveAspectRatio="xMidYMid meet">
<metadata>
Created by potrace 1.16, written by Peter Selinger 2001-2019
</metadata>
<g transform="translate(0.000000,192.000000) scale(0.100000,-0.100000)"
fill="#000000" stroke="none">
811 c445 -92 729 -532 635 -987 -62 -301 -295 -546 -601 -630 -91 -26 -329
-26 -420 0 -291 80 -516 305 -596 596 -26 91 -26 329 0 420 120 433 542 692
982 601z"/>
<path d="M865 1196 c-130 -39 -140 -44 -140 -67 0 -17 6 -25 22 -27 16 -2 25
-13 31 -35 5 -18 8 -33 7 -34 -1 -2 -46 -16 -100 -32 l-98 -29 -17 21 c-21 25
-50 17 -50 -15 0 -13 8 -52 18 -88 17 -57 22 -65 43 -65 17 0 25 6 27 22 3 18
18 26 85 47 192 57 173 57 183 8 6 -27 3 -32 -19 -37 -16 -4 -34 -1 -49 9 -20
13 -31 14 -56 5 -42 -15 -50 -44 -20 -76 47 -50 106 -64 169 -39 12 5 19 -3
28 -34 10 -34 16 -41 34 -38 20 3 22 8 20 51 -3 56 19 66 33 15 6 -19 17 -34
28 -36 29 -6 39 11 28 51 l-10 36 51 24 c48 22 64 40 93 105 1 2 36 -6 79 -17
76 -19 77 -19 96 0 11 11 18 28 15 37 -62 214 -74 242 -106 242 -11 0 -43 -27
-75 -64 l-56 -63 -37 18 c-20 11 -46 19 -58 19 -34 0 -46 49 -19 76 19 19 3
55 -23 53 -9 -1 -80 -20 -157 -43z m105 -72 c6 -14 8 -30 4 -35 -8 -13 -34
-11 -34 4 0 6 -3 22 -6 35 -9 32 24 29 36 -4z m-97 -39 c3 -40 -19 -42 -32 -4
-9 25 -8 34 1 40 17 11 28 -2 31 -36z m215 -97 c27 -27 2 -68 -42 -68 -20 0
-33 60 -15 71 20 12 43 11 57 -3z m-123 -65 c4 -22 3 -33 -4 -33 -15 0 -33 49
-26 68 8 21 21 4 30 -35z"/>
</g>
</svg>
