<?xml version="1.0" standalone="no"?>
<!DOCTYPE svg PUBLIC "-//W3C//DTD SVG 20010904//EN"
 "http://www.w3.org/TR/2001/REC-SVG-20010904/DTD/svg10.dtd">
<svg version="1.0" xmlns="http://www.w3.org/2000/svg"
 width="192.000000pt" height="192.000000pt" viewBox="0 0 192.000000 192.000000"
 preserveAspectRatio="xMidYMid meet">
<metadata>
Created by potrace 1.16, written by Peter Selinger 2001-2019
</metadata>
<g transform="translate(0.000000,192.000000) scale(0.100000,-0.100000)"
fill="#000000" stroke="none">
811 c445 -92 729 -532 635 -987 -62 -301 -295 -546 -601 -630 -91 -26 -329
-26 -420 0 -291 80 -516 305 -596 596 -26 91 -26 329 0 420 120 433 542 692
982 601z"/>
<path d="M674 1314 c-22 -14 -51 -42 -64 -62 -24 -35 -25 -40 -28 -261 -4
-244 1 -279 45 -332 53 -62 83 -69 328 -69 245 0 275 7 328 69 44 53 49 88 45
332 -3 221 -4 226 -28 261 -13 20 -42 48 -64 62 l-40 26 -241 0 -241 0 -40
-26z m374 -140 c19 -13 22 -24 22 -90 0 -73 0 -74 25 -74 15 0 36 -11 49 -25
13 -14 34 -25 47 -25 13 0 36 -12 52 -25 25 -22 27 -29 27 -102 0 -89 -18
-130 -72 -163 -28 -17 -51 -20 -160 -20 l-126 0 -32 48 c-42 63 -37 99 25 162
l45 46 0 115 c0 103 2 119 21 143 23 30 45 33 77 10z"/>
</g>
</svg>
