<?xml version="1.0" standalone="no"?>
<!DOCTYPE svg PUBLIC "-//W3C//DTD SVG 20010904//EN"
 "http://www.w3.org/TR/2001/REC-SVG-20010904/DTD/svg10.dtd">
<svg version="1.0" xmlns="http://www.w3.org/2000/svg"
 width="192.000000pt" height="192.000000pt" viewBox="0 0 192.000000 192.000000"
 preserveAspectRatio="xMidYMid meet">
<metadata>
Created by potrace 1.16, written by Peter Selinger 2001-2019
</metadata>
<g transform="translate(0.000000,192.000000) scale(0.100000,-0.100000)"
fill="#000000" stroke="none">
811 c445 -92 729 -532 635 -987 -62 -301 -295 -546 -601 -630 -91 -26 -329
-26 -420 0 -291 80 -516 305 -596 596 -26 91 -26 329 0 420 120 433 542 692
982 601z"/>
<path d="M913 1365 c-56 -24 -63 -52 -63 -262 0 -154 3 -193 16 -211 15 -22
19 -22 227 -22 186 0 215 3 233 18 66 53 56 170 -16 207 -19 10 -57 15 -109
15 -100 0 -111 11 -111 113 0 83 -19 123 -65 143 -42 17 -71 17 -112 -1z"/>
<path d="M606 1055 c-44 -24 -55 -45 -56 -108 0 -52 4 -62 29 -88 27 -26 36
-29 99 -29 97 0 129 -13 142 -58 5 -21 10 -63 10 -95 0 -51 4 -62 29 -88 26
-25 37 -29 86 -29 49 0 60 4 86 29 29 29 29 31 29 140 l0 111 -89 0 c-125 0
-134 8 -141 132 l-5 93 -95 3 c-70 2 -103 -2 -124 -13z"/>
</g>
</svg>
