<?xml version="1.0" standalone="no"?>
<!DOCTYPE svg PUBLIC "-//W3C//DTD SVG 20010904//EN"
 "http://www.w3.org/TR/2001/REC-SVG-20010904/DTD/svg10.dtd">
<svg version="1.0" xmlns="http://www.w3.org/2000/svg"
 width="192.000000pt" height="192.000000pt" viewBox="0 0 192.000000 192.000000"
 preserveAspectRatio="xMidYMid meet">
<metadata>
Created by potrace 1.16, written by Peter Selinger 2001-2019
</metadata>
<g transform="translate(0.000000,192.000000) scale(0.100000,-0.100000)"
fill="#000000" stroke="none">
811 c445 -92 729 -532 635 -987 -62 -301 -295 -546 -601 -630 -91 -26 -329
-26 -420 0 -291 80 -516 305 -596 596 -26 91 -26 329 0 420 120 433 542 692
982 601z"/>
<path d="M880 1343 c-24 -22 -61 -99 -166 -352 -73 -178 -134 -334 -134 -346
0 -13 12 -37 26 -54 21 -25 34 -31 64 -31 52 0 83 29 113 105 l23 60 145 3
145 3 24 -67 c29 -78 57 -104 112 -104 49 0 98 43 98 86 0 24 -213 550 -261
646 -41 81 -129 105 -189 51z m108 -345 l30 -78 -64 0 c-35 0 -64 4 -64 9 0 5
7 26 16 47 9 22 22 54 30 73 8 19 16 32 18 30 2 -2 17 -39 34 -81z"/>
</g>
</svg>
