<?xml version="1.0" standalone="no"?>
<!DOCTYPE svg PUBLIC "-//W3C//DTD SVG 20010904//EN"
 "http://www.w3.org/TR/2001/REC-SVG-20010904/DTD/svg10.dtd">
<svg version="1.0" xmlns="http://www.w3.org/2000/svg"
 width="192.000000pt" height="192.000000pt" viewBox="0 0 192.000000 192.000000"
 preserveAspectRatio="xMidYMid meet">
<metadata>
Created by potrace 1.16, written by Peter Selinger 2001-2019
</metadata>
<g transform="translate(0.000000,192.000000) scale(0.100000,-0.100000)"
fill="#000000" stroke="none">
811 c445 -92 729 -532 635 -987 -62 -301 -295 -546 -601 -630 -91 -26 -329
-26 -420 0 -291 80 -516 305 -596 596 -26 91 -26 329 0 420 120 433 542 692
982 601z"/>
<path d="M692 1323 c-44 -21 -100 -88 -107 -127 -4 -17 -5 -132 -3 -256 3
-217 4 -226 26 -258 39 -54 87 -85 142 -90 l50 -5 0 184 1 184 67 120 c37 66
74 120 81 120 8 0 44 -54 82 -120 l68 -120 0 -182 1 -183 38 0 c80 1 160 62
182 138 13 48 13 426 0 474 -14 50 -55 97 -105 119 -35 16 -68 19 -265 19
-188 0 -230 -3 -258 -17z"/>
<path d="M863 991 c-22 -38 -22 -39 -3 -56 10 -9 29 -15 42 -13 l23 3 3 -167
c2 -159 4 -168 22 -168 18 0 20 9 22 168 l3 167 23 -3 c13 -2 32 4 42 13 19
17 19 18 -3 56 l-22 39 -65 0 -65 0 -22 -39z"/>
</g>
</svg>
