<?xml version="1.0" standalone="no"?>
<!DOCTYPE svg PUBLIC "-//W3C//DTD SVG 20010904//EN"
 "http://www.w3.org/TR/2001/REC-SVG-20010904/DTD/svg10.dtd">
<svg version="1.0" xmlns="http://www.w3.org/2000/svg"
 width="192.000000pt" height="192.000000pt" viewBox="0 0 192.000000 192.000000"
 preserveAspectRatio="xMidYMid meet">
<metadata>
Created by potrace 1.16, written by Peter Selinger 2001-2019
</metadata>
<g transform="translate(0.000000,192.000000) scale(0.100000,-0.100000)"
fill="#000000" stroke="none">
811 c445 -92 729 -532 635 -987 -62 -301 -295 -546 -601 -630 -91 -26 -329
-26 -420 0 -291 80 -516 305 -596 596 -26 91 -26 329 0 420 120 433 542 692
982 601z"/>
<path d="M1235 1288 c-41 -24 -44 -38 -45 -189 0 -170 6 -186 77 -196 55 -7
88 14 102 64 14 51 13 229 -2 273 -18 52 -83 76 -132 48z m70 -188 c0 -124 -2
-135 -19 -138 -30 -6 -36 16 -36 139 0 117 7 143 40 137 13 -3 15 -25 15 -138z"/>
<path d="M595 1278 c-2 -7 -16 -88 -31 -181 -21 -133 -24 -170 -14 -182 17
-21 50 -1 50 30 0 22 4 25 40 25 36 0 40 -3 40 -25 0 -32 33 -51 53 -30 9 8
14 23 11 32 -2 10 -13 81 -24 158 -28 182 -29 185 -80 185 -24 0 -42 -5 -45
-12z m61 -173 l10 -75 -29 0 c-21 0 -28 4 -24 14 3 8 9 42 13 75 3 34 10 61
14 61 4 0 11 -34 16 -75z"/>
<path d="M774 1277 c-3 -9 -4 -86 -2 -172 l3 -157 28 -24 c37 -32 87 -32 124
0 l28 24 0 169 0 168 -25 0 -25 0 -2 -140 c-3 -172 -6 -187 -36 -183 -21 3
-22 7 -27 163 l-5 160 -28 3 c-17 2 -29 -2 -33 -11z"/>
<path d="M983 1274 c-7 -18 20 -44 44 -44 10 0 13 -34 13 -155 0 -142 2 -155
19 -165 15 -7 23 -6 35 6 13 13 16 42 16 163 l0 147 31 11 c21 8 30 17 27 30
-3 15 -16 18 -91 21 -74 2 -88 0 -94 -14z"/>
<path d="M552 848 c-22 -22 -14 -75 18 -111 30 -35 39 -67 19 -67 -6 0 -13 9
-16 20 -5 21 -27 27 -37 11 -4 -5 -2 -21 4 -35 8 -21 16 -26 43 -26 67 0 77
54 22 120 -20 24 -34 47 -32 53 6 18 27 20 27 3 0 -9 8 -16 20 -16 22 0 25 12
10 41 -12 22 -59 26 -78 7z"/>
<path d="M670 850 c-10 -6 -16 -32 -18 -88 -5 -98 6 -122 53 -122 37 0 55 20
55 60 0 30 -34 22 -38 -8 -2 -13 -9 -21 -15 -19 -8 2 -12 30 -12 77 0 47 4 75
12 77 6 2 13 -6 15 -18 2 -12 9 -24 15 -27 19 -6 27 26 15 54 -12 25 -53 33
-82 14z"/>
<path d="M790 850 c-19 -12 -27 -158 -11 -189 13 -24 68 -30 89 -9 15 15 16
161 2 189 -11 20 -54 26 -80 9z m50 -106 c0 -56 -3 -75 -12 -72 -14 5 -24 118
-14 145 13 33 26 -4 26 -73z"/>
<path d="M900 762 c0 -106 7 -122 50 -122 43 0 50 16 50 122 0 80 -3 98 -15
98 -12 0 -15 -17 -15 -89 0 -55 -4 -92 -11 -97 -20 -12 -29 19 -29 104 0 66
-3 82 -15 82 -12 0 -15 -18 -15 -98z"/>
<path d="M1017 853 c-12 -11 -8 -21 13 -26 18 -5 20 -14 20 -97 0 -82 2 -91
18 -88 14 3 17 17 20 96 2 73 6 92 17 92 8 0 15 7 15 15 0 11 -12 15 -48 15
-27 0 -52 -3 -55 -7z"/>
<path d="M1138 836 c-11 -26 -5 -56 12 -56 6 0 15 12 20 26 10 26 30 24 30 -3
0 -9 -16 -40 -36 -69 -47 -68 -43 -88 19 -92 37 -2 47 0 47 12 0 11 -10 16
-30 16 -38 0 -38 8 0 55 37 47 46 79 31 111 -15 35 -77 35 -93 0z"/>
<path d="M1296 828 c-8 -18 -21 -50 -30 -72 -24 -58 -21 -76 13 -76 20 0 30
-6 34 -20 7 -26 37 -26 37 -1 0 11 5 23 10 26 8 5 8 11 1 19 -5 6 -11 43 -13
81 -2 57 -6 70 -21 73 -12 2 -22 -7 -31 -30z m10 -116 c-12 -11 -17 7 -9 34
l8 29 3 -28 c2 -16 1 -31 -2 -35z"/>
</g>
</svg>
