<?xml version="1.0" standalone="no"?>
<!DOCTYPE svg PUBLIC "-//W3C//DTD SVG 20010904//EN"
 "http://www.w3.org/TR/2001/REC-SVG-20010904/DTD/svg10.dtd">
<svg version="1.0" xmlns="http://www.w3.org/2000/svg"
 width="192.000000pt" height="192.000000pt" viewBox="0 0 192.000000 192.000000"
 preserveAspectRatio="xMidYMid meet">
<metadata>
Created by potrace 1.16, written by Peter Selinger 2001-2019
</metadata>
<g transform="translate(0.000000,192.000000) scale(0.100000,-0.100000)"
fill="#000000" stroke="none">
811 c445 -92 729 -532 635 -987 -62 -301 -295 -546 -601 -630 -91 -26 -329
-26 -420 0 -291 80 -516 305 -596 596 -26 91 -26 329 0 420 120 433 542 692
982 601z"/>
<path d="M767 1369 c-62 -15 -112 -46 -156 -95 -94 -107 -93 -254 4 -362 74
-82 170 -115 269 -92 49 11 50 11 86 -25 29 -29 43 -35 78 -35 41 0 42 -1 42
-34 0 -58 7 -66 61 -66 l49 0 0 -50 0 -51 83 3 82 3 3 69 3 70 -142 142 -142
142 12 32 c41 118 -39 282 -161 333 -48 20 -125 27 -171 16z m45 -143 c28 -21
39 -61 27 -96 -13 -36 -36 -50 -83 -50 -68 0 -101 86 -51 135 27 28 79 33 107
11z"/>
</g>
</svg>
