<?xml version="1.0" standalone="no"?>
<!DOCTYPE svg PUBLIC "-//W3C//DTD SVG 20010904//EN"
 "http://www.w3.org/TR/2001/REC-SVG-20010904/DTD/svg10.dtd">
<svg version="1.0" xmlns="http://www.w3.org/2000/svg"
 width="192.000000pt" height="192.000000pt" viewBox="0 0 192.000000 192.000000"
 preserveAspectRatio="xMidYMid meet">
<metadata>
Created by potrace 1.16, written by Peter Selinger 2001-2019
</metadata>
<g transform="translate(0.000000,192.000000) scale(0.100000,-0.100000)"
fill="#000000" stroke="none">
811 c445 -92 729 -532 635 -987 -62 -301 -295 -546 -601 -630 -91 -26 -329
-26 -420 0 -291 80 -516 305 -596 596 -26 91 -26 329 0 420 120 433 542 692
982 601z"/>
<path d="M775 1341 c-133 -37 -185 -73 -205 -141 -11 -38 1 -143 26 -229 42
-147 150 -294 283 -383 43 -30 119 -24 174 13 59 39 152 140 195 212 64 106
113 298 98 380 -18 99 -153 158 -371 164 -105 2 -143 -1 -200 -16z m242 -197
c20 -12 22 -12 28 7 4 12 14 19 23 17 15 -3 17 -21 20 -136 2 -126 2 -132 -17
-132 -11 0 -24 7 -29 15 -7 14 -11 14 -38 0 -92 -48 -203 28 -191 131 11 98
121 151 204 98z"/>
<path d="M914 1110 c-55 -22 -70 -95 -29 -135 74 -75 192 31 123 109 -26 29
-63 39 -94 26z"/>
</g>
</svg>
