<?xml version="1.0" standalone="no"?>
<!DOCTYPE svg PUBLIC "-//W3C//DTD SVG 20010904//EN"
 "http://www.w3.org/TR/2001/REC-SVG-20010904/DTD/svg10.dtd">
<svg version="1.0" xmlns="http://www.w3.org/2000/svg"
 width="192.000000pt" height="192.000000pt" viewBox="0 0 192.000000 192.000000"
 preserveAspectRatio="xMidYMid meet">
<metadata>
Created by potrace 1.16, written by Peter Selinger 2001-2019
</metadata>
<g transform="translate(0.000000,192.000000) scale(0.100000,-0.100000)"
fill="#000000" stroke="none">
811 c445 -92 729 -532 635 -987 -62 -301 -295 -546 -601 -630 -91 -26 -329
-26 -420 0 -291 80 -516 305 -596 596 -26 91 -26 329 0 420 120 433 542 692
982 601z"/>
<path d="M900 1348 c-81 -31 -163 -117 -185 -193 -34 -116 12 -239 77 -204 16
9 19 17 14 42 -17 88 -17 108 -6 142 25 75 92 128 196 155 46 11 60 31 44 61
-14 25 -68 24 -140 -3z"/>
<path d="M998 1257 c-90 -26 -163 -91 -156 -139 5 -36 59 -38 82 -3 36 54 140
79 228 55 20 -6 59 -31 86 -55 51 -46 78 -55 100 -33 22 22 12 46 -43 96 -82
75 -199 106 -297 79z"/>
<path d="M602 1193 c-12 -27 -17 -64 -17 -123 0 -73 4 -93 27 -136 35 -67 99
-121 166 -140 62 -18 98 -13 107 17 9 29 -12 48 -66 60 -118 27 -178 153 -138
290 14 45 1 69 -38 69 -18 0 -28 -9 -41 -37z"/>
<path d="M1032 1138 c-16 -16 -15 -43 1 -56 7 -6 34 -16 61 -23 98 -25 157
-121 141 -232 -13 -87 -11 -109 8 -121 26 -17 49 3 70 60 37 104 0 246 -85
318 -63 54 -167 83 -196 54z"/>
<path d="M1106 972 c-15 -17 -15 -22 0 -63 39 -111 -41 -227 -183 -263 -89
-23 -86 -82 5 -80 97 3 216 89 257 187 29 71 15 206 -25 227 -26 14 -35 13
-54 -8z"/>
<path d="M578 859 c-31 -17 -22 -59 21 -99 77 -74 187 -107 288 -89 70 13 84
20 139 71 47 43 54 67 28 92 -22 23 -29 21 -77 -24 -51 -46 -83 -60 -141 -60
-65 0 -129 27 -181 76 -51 48 -52 48 -77 33z"/>
</g>
</svg>
