<?xml version="1.0" standalone="no"?>
<!DOCTYPE svg PUBLIC "-//W3C//DTD SVG 20010904//EN"
 "http://www.w3.org/TR/2001/REC-SVG-20010904/DTD/svg10.dtd">
<svg version="1.0" xmlns="http://www.w3.org/2000/svg"
 width="192.000000pt" height="192.000000pt" viewBox="0 0 192.000000 192.000000"
 preserveAspectRatio="xMidYMid meet">
<metadata>
Created by potrace 1.16, written by Peter Selinger 2001-2019
</metadata>
<g transform="translate(0.000000,192.000000) scale(0.100000,-0.100000)"
fill="#000000" stroke="none">
811 c445 -92 729 -532 635 -987 -62 -301 -295 -546 -601 -630 -91 -26 -329
-26 -420 0 -291 80 -516 305 -596 596 -26 91 -26 329 0 420 120 433 542 692
982 601z"/>
<path d="M832 1358 c-7 -7 -12 -18 -12 -25 0 -7 -6 -13 -12 -13 -35 0 -92 -24
-124 -52 -64 -57 -68 -71 -72 -294 -5 -254 3 -300 63 -360 55 -55 77 -59 296
-59 l176 0 48 30 c32 20 56 45 72 74 22 43 23 52 23 275 0 257 -6 286 -69 339
-29 24 -86 47 -118 47 -7 0 -13 4 -13 9 0 5 -7 17 -16 25 -20 20 -223 23 -242
4z m257 -302 c8 -9 11 -54 9 -132 -3 -115 -4 -119 -25 -122 -18 -3 -23 2 -23
17 l0 20 -35 -21 c-27 -16 -47 -19 -81 -15 -127 14 -164 185 -53 243 36 18
110 18 135 -1 25 -19 31 -19 37 5 6 23 20 26 36 6z"/>
<path d="M914 1005 c-28 -12 -54 -50 -54 -80 0 -7 12 -27 26 -44 33 -40 83
-43 119 -6 65 64 -6 166 -91 130z"/>
</g>
</svg>
