<?xml version="1.0" standalone="no"?>
<!DOCTYPE svg PUBLIC "-//W3C//DTD SVG 20010904//EN"
 "http://www.w3.org/TR/2001/REC-SVG-20010904/DTD/svg10.dtd">
<svg version="1.0" xmlns="http://www.w3.org/2000/svg"
 width="192.000000pt" height="192.000000pt" viewBox="0 0 192.000000 192.000000"
 preserveAspectRatio="xMidYMid meet">
<metadata>
Created by potrace 1.16, written by Peter Selinger 2001-2019
</metadata>
<g transform="translate(0.000000,192.000000) scale(0.100000,-0.100000)"
fill="#000000" stroke="none">
811 c445 -92 729 -532 635 -987 -62 -301 -295 -546 -601 -630 -91 -26 -329
-26 -420 0 -291 80 -516 305 -596 596 -26 91 -26 329 0 420 120 433 542 692
982 601z"/>
<path d="M1140 1356 c-14 -8 -39 -32 -57 -54 -63 -78 -169 -95 -251 -39 -46
32 -82 34 -107 7 -17 -19 -18 -26 -7 -79 25 -122 10 -184 -64 -256 -28 -27
-63 -59 -78 -70 -38 -28 -45 -81 -16 -118 34 -43 62 -50 133 -31 42 11 89 15
143 12 98 -5 163 -33 247 -108 61 -53 102 -67 164 -55 48 9 98 60 113 115 15
55 -7 119 -52 152 -71 53 -106 94 -113 132 -12 62 8 109 70 161 76 66 91 125
47 193 -31 48 -118 67 -172 38z m-127 -266 l37 -20 0 21 c0 15 5 20 23 17 21
-3 22 -8 25 -113 2 -60 0 -120 -3 -132 -7 -29 -35 -30 -42 -3 -3 12 -8 19 -12
17 -82 -45 -137 -43 -188 8 -61 61 -49 152 26 202 42 28 85 29 134 3z"/>
<path d="M889 1031 c-35 -35 -37 -71 -6 -105 34 -40 77 -43 115 -11 42 35 44
85 6 120 -37 34 -78 33 -115 -4z"/>
</g>
</svg>
