<?xml version="1.0" standalone="no"?>
<!DOCTYPE svg PUBLIC "-//W3C//DTD SVG 20010904//EN"
 "http://www.w3.org/TR/2001/REC-SVG-20010904/DTD/svg10.dtd">
<svg version="1.0" xmlns="http://www.w3.org/2000/svg"
 width="192.000000pt" height="192.000000pt" viewBox="0 0 192.000000 192.000000"
 preserveAspectRatio="xMidYMid meet">
<metadata>
Created by potrace 1.16, written by Peter Selinger 2001-2019
</metadata>
<g transform="translate(0.000000,192.000000) scale(0.100000,-0.100000)"
fill="#000000" stroke="none">
811 c445 -92 729 -532 635 -987 -62 -301 -295 -546 -601 -630 -91 -26 -329
-26 -420 0 -291 80 -516 305 -596 596 -26 91 -26 329 0 420 120 433 542 692
982 601z"/>
<path d="M896 1368 c-128 -16 -250 -106 -309 -227 -30 -62 -32 -72 -32 -176 0
-105 2 -114 33 -178 62 -125 170 -206 305 -230 269 -46 514 201 467 470 -39
226 -235 370 -464 341z m169 -172 c93 -43 148 -128 148 -231 1 -223 -254 -342
-422 -198 -110 94 -122 257 -27 370 67 80 201 106 301 59z"/>
<path d="M896 1170 c-74 -23 -140 -99 -151 -175 -24 -155 131 -284 280 -235
84 28 144 113 145 204 0 142 -138 246 -274 206z m152 -67 c48 -35 72 -81 72
-135 0 -101 -53 -159 -150 -166 -68 -5 -107 12 -146 63 -58 77 -33 195 51 243
50 28 131 26 173 -5z"/>
<path d="M926 1075 c-20 -53 4 -103 44 -90 18 6 21 13 18 53 -3 42 -6 47 -29
50 -17 2 -29 -3 -33 -13z"/>
</g>
</svg>
