<?xml version="1.0" standalone="no"?>
<!DOCTYPE svg PUBLIC "-//W3C//DTD SVG 20010904//EN"
 "http://www.w3.org/TR/2001/REC-SVG-20010904/DTD/svg10.dtd">
<svg version="1.0" xmlns="http://www.w3.org/2000/svg"
 width="192.000000pt" height="192.000000pt" viewBox="0 0 192.000000 192.000000"
 preserveAspectRatio="xMidYMid meet">
<metadata>
Created by potrace 1.16, written by Peter Selinger 2001-2019
</metadata>
<g transform="translate(0.000000,192.000000) scale(0.100000,-0.100000)"
fill="#000000" stroke="none">
811 c445 -92 729 -532 635 -987 -62 -301 -295 -546 -601 -630 -91 -26 -329
-26 -420 0 -291 80 -516 305 -596 596 -26 91 -26 329 0 420 120 433 542 692
982 601z"/>
<path d="M880 1344 c-36 -19 -69 -35 -73 -37 -12 -4 154 -307 167 -307 6 0 89
25 184 55 95 30 175 55 178 55 2 0 4 29 4 63 0 79 -12 91 -100 107 -84 14
-151 36 -222 71 -32 16 -61 29 -65 28 -4 -1 -37 -16 -73 -35z"/>
<path d="M655 1278 c-86 -16 -89 -22 -81 -173 6 -123 17 -210 28 -221 8 -7
313 92 313 102 0 5 -36 75 -80 156 -89 164 -78 156 -180 136z"/>
<path d="M1155 1008 c-88 -28 -161 -52 -163 -54 -7 -5 162 -304 171 -304 19 0
87 84 113 138 38 81 71 262 49 268 -6 1 -82 -20 -170 -48z"/>
<path d="M778 887 c-119 -38 -158 -54 -158 -67 0 -25 52 -101 97 -141 49 -45
116 -84 184 -110 48 -18 55 -19 103 -5 28 9 65 24 83 35 l32 20 -87 160 c-48
89 -89 161 -92 160 -3 0 -76 -24 -162 -52z"/>
</g>
</svg>
