<?xml version="1.0" standalone="no"?>
<!DOCTYPE svg PUBLIC "-//W3C//DTD SVG 20010904//EN"
 "http://www.w3.org/TR/2001/REC-SVG-20010904/DTD/svg10.dtd">
<svg version="1.0" xmlns="http://www.w3.org/2000/svg"
 width="192.000000pt" height="192.000000pt" viewBox="0 0 192.000000 192.000000"
 preserveAspectRatio="xMidYMid meet">
<metadata>
Created by potrace 1.16, written by Peter Selinger 2001-2019
</metadata>
<g transform="translate(0.000000,192.000000) scale(0.100000,-0.100000)"
fill="#000000" stroke="none">
811 c445 -92 729 -532 635 -987 -62 -301 -295 -546 -601 -630 -91 -26 -329
-26 -420 0 -291 80 -516 305 -596 596 -26 91 -26 329 0 420 120 433 542 692
982 601z"/>
<path d="M695 1321 c-48 -22 -79 -54 -100 -103 -22 -54 -22 -452 0 -506 21
-49 52 -81 100 -103 35 -16 67 -19 260 -19 239 0 272 7 322 61 48 52 53 84 53
314 0 230 -5 262 -53 314 -50 54 -83 61 -322 61 -193 0 -225 -3 -260 -19z
m169 -101 c79 -50 176 -96 176 -85 0 2 -13 33 -30 70 -16 37 -30 69 -30 71 0
2 42 4 93 4 133 0 135 -3 84 -118 -37 -85 -40 -96 -29 -126 46 -127 -41 -256
-173 -256 -48 0 -109 25 -136 56 -74 85 -60 223 28 279 18 11 32 23 33 26 0 3
-43 25 -95 48 -52 24 -95 47 -95 52 0 10 49 38 67 39 7 0 55 -27 107 -60z"/>
<path d="M916 1090 c-122 -38 -119 -217 4 -250 99 -27 187 62 160 162 -10 36
-59 88 -83 88 -7 0 -21 2 -32 5 -11 2 -33 0 -49 -5z"/>
</g>
</svg>
