<?xml version="1.0" standalone="no"?>
<!DOCTYPE svg PUBLIC "-//W3C//DTD SVG 20010904//EN"
 "http://www.w3.org/TR/2001/REC-SVG-20010904/DTD/svg10.dtd">
<svg version="1.0" xmlns="http://www.w3.org/2000/svg"
 width="192.000000pt" height="192.000000pt" viewBox="0 0 192.000000 192.000000"
 preserveAspectRatio="xMidYMid meet">
<metadata>
Created by potrace 1.16, written by Peter Selinger 2001-2019
</metadata>
<g transform="translate(0.000000,192.000000) scale(0.100000,-0.100000)"
fill="#000000" stroke="none">
811 c445 -92 729 -532 635 -987 -62 -301 -295 -546 -601 -630 -91 -26 -329
-26 -420 0 -291 80 -516 305 -596 596 -26 91 -26 329 0 420 120 433 542 692
982 601z"/>
<path d="M814 1339 c-249 -84 -359 -390 -222 -616 47 -78 58 -74 200 59 l120
112 92 -93 c107 -108 125 -120 187 -121 86 0 159 74 159 162 0 39 -5 54 -25
73 -29 30 -45 31 -79 4 -20 -16 -26 -29 -26 -59 0 -67 -24 -61 -117 32 -46 45
-83 88 -83 95 0 6 49 58 110 114 60 56 112 109 115 117 12 31 -66 89 -164 122
-80 26 -185 26 -267 -1z"/>
</g>
</svg>
