<?xml version="1.0" standalone="no"?>
<!DOCTYPE svg PUBLIC "-//W3C//DTD SVG 20010904//EN"
 "http://www.w3.org/TR/2001/REC-SVG-20010904/DTD/svg10.dtd">
<svg version="1.0" xmlns="http://www.w3.org/2000/svg"
 width="192.000000pt" height="192.000000pt" viewBox="0 0 192.000000 192.000000"
 preserveAspectRatio="xMidYMid meet">
<metadata>
Created by potrace 1.16, written by Peter Selinger 2001-2019
</metadata>
<g transform="translate(0.000000,192.000000) scale(0.100000,-0.100000)"
fill="#000000" stroke="none">
811 c445 -92 729 -532 635 -987 -62 -301 -295 -546 -601 -630 -91 -26 -329
-26 -420 0 -291 80 -516 305 -596 596 -26 91 -26 329 0 420 120 433 542 692
982 601z"/>
<path d="M662 1343 c-67 -33 -111 -117 -98 -186 8 -41 41 -93 77 -120 29 -21
103 -33 143 -23 36 9 96 64 112 103 61 145 -94 295 -234 226z"/>
<path d="M1085 1311 c-90 -40 -106 -163 -30 -230 67 -59 166 -36 206 47 27 55
19 101 -25 149 -27 30 -40 36 -82 39 -27 2 -58 0 -69 -5z"/>
<path d="M1045 973 c-76 -40 -118 -108 -118 -193 0 -122 87 -210 208 -210 100
0 182 64 205 162 23 93 -24 194 -111 238 -47 25 -141 26 -184 3z"/>
<path d="M688 864 c-83 -45 -57 -168 39 -181 37 -5 45 -2 73 25 83 83 -10 212
-112 156z"/>
</g>
</svg>
