<?xml version="1.0" standalone="no"?>
<!DOCTYPE svg PUBLIC "-//W3C//DTD SVG 20010904//EN"
 "http://www.w3.org/TR/2001/REC-SVG-20010904/DTD/svg10.dtd">
<svg version="1.0" xmlns="http://www.w3.org/2000/svg"
 width="192.000000pt" height="192.000000pt" viewBox="0 0 192.000000 192.000000"
 preserveAspectRatio="xMidYMid meet">
<metadata>
Created by potrace 1.16, written by Peter Selinger 2001-2019
</metadata>
<g transform="translate(0.000000,192.000000) scale(0.100000,-0.100000)"
fill="#000000" stroke="none">
811 c445 -92 729 -532 635 -987 -62 -301 -295 -546 -601 -630 -91 -26 -329
-26 -420 0 -291 80 -516 305 -596 596 -26 91 -26 329 0 420 120 433 542 692
982 601z"/>
<path d="M767 1366 c-73 -27 -117 -86 -119 -159 0 -23 4 -128 9 -233 9 -178
12 -196 37 -248 85 -173 305 -221 464 -100 75 58 121 181 103 279 -15 78 -34
109 -126 205 -45 47 -103 113 -129 148 -79 104 -156 139 -239 108z m274 -321
c45 -29 69 -79 69 -143 0 -85 -61 -151 -149 -160 -62 -6 -101 9 -141 54 -132
151 53 360 221 249z"/>
<path d="M906 1030 c-57 -18 -105 -91 -89 -138 25 -81 62 -112 133 -112 36 0
48 6 81 39 33 33 39 45 39 82 0 94 -78 155 -164 129z m12 -122 c-2 -47 -7 -83
-13 -83 -6 0 -11 36 -13 83 -2 69 0 82 13 82 13 0 15 -13 13 -82z m82 54 c0
-15 -5 -33 -12 -40 -9 -9 -9 -15 0 -24 7 -7 12 -27 12 -45 0 -25 -4 -31 -15
-27 -8 4 -15 14 -15 24 0 10 -7 23 -15 30 -8 7 -15 18 -15 25 0 7 7 18 15 25
8 7 15 23 15 36 0 15 6 24 15 24 10 0 15 -10 15 -28z"/>
</g>
</svg>
