<?xml version="1.0" standalone="no"?>
<!DOCTYPE svg PUBLIC "-//W3C//DTD SVG 20010904//EN"
 "http://www.w3.org/TR/2001/REC-SVG-20010904/DTD/svg10.dtd">
<svg version="1.0" xmlns="http://www.w3.org/2000/svg"
 width="192.000000pt" height="192.000000pt" viewBox="0 0 192.000000 192.000000"
 preserveAspectRatio="xMidYMid meet">
<metadata>
Created by potrace 1.16, written by Peter Selinger 2001-2019
</metadata>
<g transform="translate(0.000000,192.000000) scale(0.100000,-0.100000)"
fill="#000000" stroke="none">
811 c445 -92 729 -532 635 -987 -62 -301 -295 -546 -601 -630 -91 -26 -329
-26 -420 0 -291 80 -516 305 -596 596 -26 91 -26 329 0 420 120 433 542 692
982 601z"/>
<path d="M938 1378 c-16 -13 -428 -714 -428 -729 0 -4 8 -15 17 -25 15 -15 32
-16 138 -10 96 5 123 10 133 23 7 10 44 75 83 145 39 70 75 126 79 123 5 -3
43 -68 85 -145 l77 -141 130 3 c106 2 133 6 141 19 7 11 -9 46 -66 145 l-75
129 -145 5 -146 5 69 124 69 124 -30 57 c-40 76 -92 153 -104 157 -6 2 -18 -2
-27 -9z"/>
</g>
</svg>
