<?xml version="1.0" standalone="no"?>
<!DOCTYPE svg PUBLIC "-//W3C//DTD SVG 20010904//EN"
 "http://www.w3.org/TR/2001/REC-SVG-20010904/DTD/svg10.dtd">
<svg version="1.0" xmlns="http://www.w3.org/2000/svg"
 width="192.000000pt" height="192.000000pt" viewBox="0 0 192.000000 192.000000"
 preserveAspectRatio="xMidYMid meet">
<metadata>
Created by potrace 1.16, written by Peter Selinger 2001-2019
</metadata>
<g transform="translate(0.000000,192.000000) scale(0.100000,-0.100000)"
fill="#000000" stroke="none">
811 c445 -92 729 -532 635 -987 -62 -301 -295 -546 -601 -630 -91 -26 -329
-26 -420 0 -291 80 -516 305 -596 596 -26 91 -26 329 0 420 120 433 542 692
982 601z"/>
<path d="M890 1359 c-19 -10 -61 -24 -92 -29 -74 -14 -117 -44 -148 -103 -14
-26 -31 -47 -37 -47 -7 0 -16 -12 -19 -27 -4 -16 -15 -41 -24 -58 -41 -68 -34
-205 14 -312 30 -65 115 -152 182 -186 171 -85 366 -49 497 93 79 85 101 146
102 280 0 99 -2 110 -32 170 -36 73 -86 129 -153 172 -48 31 -166 72 -181 62
-5 -3 -9 -25 -9 -48 0 -33 8 -53 33 -87 53 -72 67 -96 80 -147 6 -26 17 -48
22 -48 19 1 10 119 -13 163 -12 23 -22 45 -22 48 0 14 85 -43 117 -79 75 -83
105 -194 79 -294 -27 -108 -90 -181 -196 -231 -47 -22 -69 -26 -150 -26 -82 0
-103 4 -152 27 -80 37 -140 96 -174 171 -23 51 -29 78 -32 152 -1 50 1 96 7
104 16 24 41 5 41 -32 0 -31 4 -35 32 -41 38 -8 44 -2 53 45 6 33 5 37 -20 43
-23 6 -26 10 -20 36 5 23 3 32 -10 36 -14 6 -14 9 5 29 26 28 56 40 135 56 47
9 68 19 97 49 21 21 38 47 38 59 0 25 -4 25 -50 0z"/>
<path d="M945 1343 c-12 -66 -37 -127 -73 -181 l-35 -54 -20 46 c-11 25 -26
46 -33 46 -19 0 -29 -67 -15 -106 12 -32 11 -34 -29 -70 -53 -48 -80 -101 -80
-158 0 -65 7 -76 47 -76 29 0 44 9 79 43 l43 44 6 -26 c17 -78 96 -111 171
-73 21 11 72 54 113 96 40 42 77 76 82 76 5 0 9 -9 9 -20 0 -28 19 -25 30 6
14 35 12 88 -2 102 -24 24 -51 10 -124 -67 -79 -83 -122 -111 -172 -111 -41 0
-66 34 -81 110 -12 60 -12 61 17 98 58 73 101 195 102 285 0 41 -26 34 -35
-10z m-135 -371 c0 -30 -91 -104 -108 -88 -6 7 87 106 100 106 4 0 8 -8 8 -18z"/>
<path d="M1008 747 c-13 -18 -19 -20 -29 -9 -21 20 -33 14 -54 -24 l-19 -36
24 -19 c32 -24 47 -24 60 2 7 12 17 18 26 15 8 -3 21 -9 29 -12 10 -4 20 6 32
31 18 37 17 37 -6 56 -30 24 -42 24 -63 -4z"/>
</g>
</svg>
