<?xml version="1.0" standalone="no"?>
<!DOCTYPE svg PUBLIC "-//W3C//DTD SVG 20010904//EN"
 "http://www.w3.org/TR/2001/REC-SVG-20010904/DTD/svg10.dtd">
<svg version="1.0" xmlns="http://www.w3.org/2000/svg"
 width="192.000000pt" height="192.000000pt" viewBox="0 0 192.000000 192.000000"
 preserveAspectRatio="xMidYMid meet">
<metadata>
Created by potrace 1.16, written by Peter Selinger 2001-2019
</metadata>
<g transform="translate(0.000000,192.000000) scale(0.100000,-0.100000)"
fill="#000000" stroke="none">
811 c445 -92 729 -532 635 -987 -62 -301 -295 -546 -601 -630 -91 -26 -329
-26 -420 0 -291 80 -516 305 -596 596 -26 91 -26 329 0 420 120 433 542 692
982 601z"/>
<path d="M889 1307 c-95 -105 -102 -118 -97 -181 4 -54 4 -54 -20 -45 -49 19
-93 -5 -176 -96 l-78 -85 72 -78 c63 -67 117 -111 124 -100 1 2 14 19 28 39
l27 36 -50 49 c-27 27 -48 52 -47 56 2 4 28 32 58 64 49 51 57 56 90 51 l35
-4 -3 43 c-4 41 -1 47 52 101 l56 58 38 -43 c37 -43 38 -43 55 -24 10 11 20
35 23 54 5 30 0 41 -43 94 -78 93 -69 92 -144 11z"/>
<path d="M1205 1017 c-20 -29 -19 -40 3 -28 9 5 30 7 46 4 21 -4 33 -1 43 12
19 28 17 30 -32 31 -36 1 -49 -3 -60 -19z"/>
<path d="M1044 925 c-3 -8 -4 -60 -2 -116 3 -92 5 -103 27 -120 31 -25 91 -25
119 1 37 35 43 133 9 154 -24 15 -37 -7 -37 -66 0 -47 -1 -48 -30 -48 l-30 0
0 86 c0 47 -5 94 -10 105 -13 23 -38 25 -46 4z"/>
<path d="M1245 928 c-3 -8 -4 -68 -3 -134 3 -111 4 -119 23 -119 19 0 20 7 20
130 0 116 -2 130 -18 133 -9 2 -19 -3 -22 -10z"/>
<path d="M845 870 c-17 -19 -18 -22 -2 -37 13 -13 20 -14 29 -5 8 8 15 9 25 0
10 -8 18 -6 33 7 19 17 19 19 4 37 -13 14 -20 15 -31 7 -9 -9 -17 -9 -26 0
-11 8 -18 6 -32 -9z"/>
<path d="M973 823 c-8 -3 -13 -21 -13 -43 0 -30 -5 -42 -21 -51 -29 -15 -87
-4 -111 21 -22 24 -31 25 -48 5 -26 -31 48 -95 109 -95 41 0 102 32 117 62 26
51 5 114 -33 101z"/>
<path d="M1165 650 c-4 -6 -14 -9 -22 -5 -9 3 -24 -2 -35 -11 -17 -16 -17 -18
-2 -36 14 -15 20 -16 32 -5 12 9 16 9 19 0 7 -19 19 -16 36 11 15 22 15 25 -3
41 -13 11 -20 13 -25 5z"/>
</g>
</svg>
