<?xml version="1.0" standalone="no"?>
<!DOCTYPE svg PUBLIC "-//W3C//DTD SVG 20010904//EN"
 "http://www.w3.org/TR/2001/REC-SVG-20010904/DTD/svg10.dtd">
<svg version="1.0" xmlns="http://www.w3.org/2000/svg"
 width="192.000000pt" height="192.000000pt" viewBox="0 0 192.000000 192.000000"
 preserveAspectRatio="xMidYMid meet">
<metadata>
Created by potrace 1.16, written by Peter Selinger 2001-2019
</metadata>
<g transform="translate(0.000000,192.000000) scale(0.100000,-0.100000)"
fill="#000000" stroke="none">
811 c445 -92 729 -532 635 -987 -62 -301 -295 -546 -601 -630 -91 -26 -329
-26 -420 0 -291 80 -516 305 -596 596 -26 91 -26 329 0 420 120 433 542 692
982 601z"/>
<path d="M667 1314 c-13 -13 -7 -42 9 -48 9 -3 83 -6 165 -6 l149 0 0 -30 c0
-24 -4 -30 -21 -30 -13 0 -23 -8 -26 -20 -5 -20 -12 -21 -180 -19 -154 1 -176
-1 -193 -16 -19 -17 -20 -32 -20 -246 0 -224 0 -228 22 -243 19 -14 66 -16
309 -16 334 0 329 -1 339 89 l5 51 53 -35 c87 -59 87 -58 87 145 0 203 0 204
-87 145 l-53 -35 -3 42 c-5 91 -23 118 -77 118 -24 0 -38 6 -45 20 -6 11 -19
20 -30 20 -16 0 -19 9 -22 58 l-3 57 -186 3 c-102 1 -188 -1 -192 -4z m181
-250 c20 -14 22 -23 22 -109 0 -118 -7 -125 -122 -125 -107 0 -118 11 -118
123 0 116 9 125 125 126 49 1 77 -4 93 -15z m236 10 c9 -3 16 -15 16 -25 0
-17 -8 -19 -75 -19 -67 0 -75 2 -75 19 0 11 6 22 13 24 18 8 103 8 121 1z"/>
</g>
</svg>
