<?xml version="1.0" standalone="no"?>
<!DOCTYPE svg PUBLIC "-//W3C//DTD SVG 20010904//EN"
 "http://www.w3.org/TR/2001/REC-SVG-20010904/DTD/svg10.dtd">
<svg version="1.0" xmlns="http://www.w3.org/2000/svg"
 width="192.000000pt" height="192.000000pt" viewBox="0 0 192.000000 192.000000"
 preserveAspectRatio="xMidYMid meet">
<metadata>
Created by potrace 1.16, written by Peter Selinger 2001-2019
</metadata>
<g transform="translate(0.000000,192.000000) scale(0.100000,-0.100000)"
fill="#000000" stroke="none">
811 c445 -92 729 -532 635 -987 -62 -301 -295 -546 -601 -630 -91 -26 -329
-26 -420 0 -291 80 -516 305 -596 596 -26 91 -26 329 0 420 120 433 542 692
982 601z"/>
<path d="M861 1364 c-162 -43 -274 -167 -303 -333 -30 -178 63 -355 230 -434
85 -40 202 -49 292 -22 114 35 216 130 262 245 17 42 22 77 22 150 1 87 -2
101 -31 162 -57 121 -151 199 -278 233 -72 18 -123 18 -194 -1z m-5 -239 c21
-32 11 -90 -17 -106 -63 -33 -114 57 -66 119 17 22 65 14 83 -13z m292 13 c7
-7 12 -31 12 -54 0 -33 -5 -47 -22 -58 -30 -21 -44 -20 -68 4 -40 40 -14 120
39 120 15 0 32 -5 39 -12z m-319 -267 c58 -81 204 -81 262 1 14 20 28 28 43
26 31 -4 32 -43 2 -83 -77 -101 -274 -101 -351 -1 -37 49 -32 82 12 85 6 1 21
-12 32 -28z"/>
</g>
</svg>
