<?xml version="1.0" standalone="no"?>
<!DOCTYPE svg PUBLIC "-//W3C//DTD SVG 20010904//EN"
 "http://www.w3.org/TR/2001/REC-SVG-20010904/DTD/svg10.dtd">
<svg version="1.0" xmlns="http://www.w3.org/2000/svg"
 width="192.000000pt" height="192.000000pt" viewBox="0 0 192.000000 192.000000"
 preserveAspectRatio="xMidYMid meet">
<metadata>
Created by potrace 1.16, written by Peter Selinger 2001-2019
</metadata>
<g transform="translate(0.000000,192.000000) scale(0.100000,-0.100000)"
fill="#000000" stroke="none">
811 c445 -92 729 -532 635 -987 -62 -301 -295 -546 -601 -630 -91 -26 -329
-26 -420 0 -291 80 -516 305 -596 596 -26 91 -26 329 0 420 120 433 542 692
982 601z"/>
<path d="M672 1338 c-7 -7 -20 -13 -30 -13 -10 0 -15 -6 -13 -15 3 -8 5 -28 4
-43 0 -24 3 -28 20 -23 12 3 27 0 34 -5 16 -14 34 -3 27 16 -4 8 1 18 10 21
20 8 21 34 2 34 -8 0 -18 9 -21 20 -7 23 -16 25 -33 8z"/>
<path d="M1145 1278 c-4 -13 -19 -32 -32 -44 l-25 -20 26 -17 c16 -11 26 -27
26 -42 0 -29 12 -32 31 -9 8 10 22 14 41 10 33 -6 43 6 28 34 -9 16 -8 25 0
36 19 21 5 42 -23 37 -18 -4 -28 1 -36 16 -15 27 -28 27 -36 -1z"/>
<path d="M550 1121 c-11 -21 -14 -288 -4 -315 5 -13 22 -16 81 -16 72 0 76 1
109 34 27 27 34 42 34 74 0 24 -7 49 -19 63 -15 19 -18 34 -14 71 5 43 3 50
-25 77 -27 28 -37 31 -91 31 -49 0 -62 -3 -71 -19z m118 -70 c4 -25 -12 -41
-40 -41 -14 0 -18 8 -18 36 0 33 2 35 28 32 20 -2 28 -9 30 -27z m31 -133 c14
-24 14 -28 -3 -47 -12 -13 -31 -21 -53 -21 l-33 0 0 51 0 50 37 -3 c28 -2 41
-9 52 -30z"/>
<path d="M887 1088 c-82 -128 -100 -167 -94 -206 18 -113 185 -127 216 -18 5
19 6 45 4 60 -5 24 -56 79 -83 88 -9 3 -5 17 14 47 31 49 31 75 -1 79 -18 3
-30 -8 -56 -50z m58 -194 c0 -35 -43 -56 -69 -34 -25 20 -20 69 7 79 32 13 62
-9 62 -45z"/>
<path d="M1030 1127 c-31 -16 -32 -49 -3 -62 21 -9 23 -16 25 -140 l3 -130 25
0 25 0 0 170 0 170 -25 3 c-14 1 -36 -4 -50 -11z"/>
<path d="M1173 1105 c-28 -28 -34 -41 -31 -67 2 -28 7 -33 28 -33 17 0 26 6
28 20 6 28 32 55 53 55 10 0 26 -11 35 -26 16 -24 16 -26 -6 -57 -13 -18 -50
-62 -83 -99 -83 -95 -79 -103 53 -103 l105 0 0 25 c0 23 -4 25 -52 28 -29 2
-53 5 -53 8 0 2 25 34 55 69 47 56 55 71 55 106 0 33 -6 47 -34 75 -28 28 -42
34 -76 34 -35 0 -48 -6 -77 -35z"/>
<path d="M945 744 c-12 -19 -22 -24 -38 -20 -34 8 -49 -11 -31 -39 11 -16 13
-34 8 -60 l-6 -36 36 7 c28 5 41 2 56 -11 24 -22 40 -12 40 24 0 20 8 34 25
45 33 22 32 35 -4 47 -19 7 -33 21 -40 40 -12 36 -24 37 -46 3z"/>
</g>
</svg>
