<?xml version="1.0" standalone="no"?>
<!DOCTYPE svg PUBLIC "-//W3C//DTD SVG 20010904//EN"
 "http://www.w3.org/TR/2001/REC-SVG-20010904/DTD/svg10.dtd">
<svg version="1.0" xmlns="http://www.w3.org/2000/svg"
 width="192.000000pt" height="192.000000pt" viewBox="0 0 192.000000 192.000000"
 preserveAspectRatio="xMidYMid meet">
<metadata>
Created by potrace 1.16, written by Peter Selinger 2001-2019
</metadata>
<g transform="translate(0.000000,192.000000) scale(0.100000,-0.100000)"
fill="#000000" stroke="none">
811 c445 -92 729 -532 635 -987 -62 -301 -295 -546 -601 -630 -91 -26 -329
-26 -420 0 -291 80 -516 305 -596 596 -26 91 -26 329 0 420 120 433 542 692
982 601z"/>
<path d="M812 1357 c-32 -34 -31 -112 2 -142 l24 -22 13 24 c32 60 136 74 204
28 47 -33 65 -21 65 42 0 33 -6 50 -25 68 -23 24 -30 25 -143 25 -111 0 -120
-1 -140 -23z"/>
<path d="M917 1208 c-27 -22 -37 -65 -37 -171 0 -113 10 -162 37 -183 22 -16
77 -18 105 -3 28 15 50 72 39 102 -13 34 -58 67 -92 67 -24 0 -29 4 -29 25 0
20 5 25 24 25 13 0 35 9 50 21 35 27 37 90 4 113 -27 19 -78 21 -101 4z"/>
<path d="M703 919 c-133 -232 -140 -255 -103 -317 37 -60 60 -64 369 -60 308
3 313 4 346 75 29 61 30 59 -192 441 l-25 43 -23 -25 -23 -25 34 -36 c28 -30
34 -44 34 -81 0 -88 -57 -147 -141 -148 -37 -1 -53 4 -73 23 l-26 24 0 -91 c0
-91 0 -92 -25 -92 l-25 0 -2 242 -3 243 -122 -216z"/>
</g>
</svg>
