<?xml version="1.0" standalone="no"?>
<!DOCTYPE svg PUBLIC "-//W3C//DTD SVG 20010904//EN"
 "http://www.w3.org/TR/2001/REC-SVG-20010904/DTD/svg10.dtd">
<svg version="1.0" xmlns="http://www.w3.org/2000/svg"
 width="192.000000pt" height="192.000000pt" viewBox="0 0 192.000000 192.000000"
 preserveAspectRatio="xMidYMid meet">
<metadata>
Created by potrace 1.16, written by Peter Selinger 2001-2019
</metadata>
<g transform="translate(0.000000,192.000000) scale(0.100000,-0.100000)"
fill="#000000" stroke="none">
811 c445 -92 729 -532 635 -987 -62 -301 -295 -546 -601 -630 -91 -26 -329
-26 -420 0 -291 80 -516 305 -596 596 -26 91 -26 329 0 420 120 433 542 692
982 601z"/>
<path d="M717 1356 c-142 -39 -211 -200 -143 -334 25 -50 86 -108 96 -93 11
18 94 52 166 69 l77 18 24 85 c13 46 33 96 44 112 23 32 17 50 -32 91 -64 54
-153 74 -232 52z m141 -93 c2 -8 -5 -13 -18 -13 -12 0 -20 -5 -18 -13 5 -20
-14 -24 -25 -5 -8 12 -7 21 3 33 15 18 51 17 58 -2z m-58 -113 c0 -21 -44 -49
-57 -37 -6 7 35 54 50 56 4 1 7 -8 7 -19z m-102 -49 c3 -10 -1 -12 -17 -8 -17
4 -21 1 -21 -20 0 -22 -2 -24 -15 -13 -18 15 -19 32 -3 48 16 16 50 11 56 -7z"/>
<path d="M1006 1205 c-14 -15 -70 -174 -64 -181 2 -1 35 1 73 6 110 14 157 12
198 -10 l37 -20 0 22 c0 53 -77 130 -177 178 -51 24 -48 24 -67 5z"/>
<path d="M985 1003 c-73 -10 -204 -43 -247 -62 -38 -16 -48 -25 -48 -44 0 -30
65 -130 114 -177 35 -33 41 -35 99 -33 73 2 287 46 362 74 63 23 79 40 70 71
-13 44 -69 121 -108 149 -37 27 -46 29 -126 28 -47 -1 -99 -4 -116 -6z"/>
<path d="M1281 741 c-62 -26 -64 -28 -86 -86 -12 -33 -26 -68 -30 -77 -6 -15
-2 -18 31 -18 106 1 170 71 165 183 -1 32 1 32 -80 -2z"/>
<path d="M1070 687 c-52 -11 -97 -22 -100 -24 -3 -3 6 -13 20 -24 45 -35 101
-60 128 -57 23 3 30 12 49 66 15 42 19 62 10 61 -7 -1 -55 -11 -107 -22z"/>
</g>
</svg>
