<?xml version="1.0" standalone="no"?>
<!DOCTYPE svg PUBLIC "-//W3C//DTD SVG 20010904//EN"
 "http://www.w3.org/TR/2001/REC-SVG-20010904/DTD/svg10.dtd">
<svg version="1.0" xmlns="http://www.w3.org/2000/svg"
 width="192.000000pt" height="192.000000pt" viewBox="0 0 192.000000 192.000000"
 preserveAspectRatio="xMidYMid meet">
<metadata>
Created by potrace 1.16, written by Peter Selinger 2001-2019
</metadata>
<g transform="translate(0.000000,192.000000) scale(0.100000,-0.100000)"
fill="#000000" stroke="none">
811 c445 -92 729 -532 635 -987 -62 -301 -295 -546 -601 -630 -91 -26 -329
-26 -420 0 -291 80 -516 305 -596 596 -26 91 -26 329 0 420 120 433 542 692
982 601z"/>
<path d="M643 1365 c-3 -9 -2 -39 1 -67 l7 -51 -40 7 c-33 5 -41 3 -41 -9 0
-21 28 -75 52 -101 19 -21 19 -22 -3 -94 -65 -215 55 -431 271 -486 115 -29
246 3 328 82 53 51 51 66 -5 31 -58 -38 -108 -50 -182 -45 -251 18 -370 313
-202 500 48 53 128 99 171 97 20 -1 21 -2 5 -6 -118 -26 -201 -106 -231 -224
-33 -130 28 -263 150 -327 43 -22 64 -27 131 -27 70 0 87 4 134 30 99 55 152
146 152 262 0 86 -30 150 -100 215 -31 28 -47 46 -35 40 27 -14 73 -59 102
-97 14 -19 20 -23 15 -10 -23 67 -115 164 -188 196 -73 32 -141 41 -225 28
l-75 -11 -88 41 c-49 23 -91 41 -93 41 -3 0 -7 -7 -11 -15z m462 -135 c27 -7
27 -8 5 -8 -14 0 -38 4 -55 8 -27 7 -27 8 -5 8 14 0 39 -4 55 -8z m65 -20 c8
-5 11 -10 5 -10 -5 0 -17 5 -25 10 -8 5 -10 10 -5 10 6 0 17 -5 25 -10z m-80
-151 c9 -16 8 -26 -5 -45 -17 -27 -27 -29 -56 -14 -21 12 -25 50 -7 68 19 19
56 14 68 -9z m189 -40 c16 -46 14 -132 -5 -178 -17 -44 -80 -99 -121 -107 -38
-7 -90 27 -109 71 -19 47 -18 72 6 80 28 9 70 63 70 90 0 13 6 27 13 32 10 7
105 38 129 42 3 0 11 -13 17 -30z"/>
<path d="M1253 1351 c-3 -11 -13 -21 -24 -24 -25 -7 -25 -37 0 -44 11 -3 22
-16 25 -29 8 -31 34 -31 46 1 5 14 16 25 25 25 23 0 19 41 -5 47 -11 3 -20 14
-20 24 0 26 -40 26 -47 0z"/>
</g>
</svg>
