<?xml version="1.0" standalone="no"?>
<!DOCTYPE svg PUBLIC "-//W3C//DTD SVG 20010904//EN"
 "http://www.w3.org/TR/2001/REC-SVG-20010904/DTD/svg10.dtd">
<svg version="1.0" xmlns="http://www.w3.org/2000/svg"
 width="192.000000pt" height="192.000000pt" viewBox="0 0 192.000000 192.000000"
 preserveAspectRatio="xMidYMid meet">
<metadata>
Created by potrace 1.16, written by Peter Selinger 2001-2019
</metadata>
<g transform="translate(0.000000,192.000000) scale(0.100000,-0.100000)"
fill="#000000" stroke="none">
810 c245 -63 441 -223 549 -451 55 -116 75 -212 75 -354 0 -141 -20 -238 -75
-352 -86 -182 -215 -312 -396 -398 -116 -55 -212 -75 -354 -75 -142 0 -238 20
-354 75 -228 108 -388 304 -451 549 -28 110 -28 292 0 402 76 298 303 526 600
603 106 28 298 28 406 1z"/>
<path d="M884 1350 c-168 -35 -289 -165 -319 -342 l-6 -37 -59 -3 -60 -3 80
-108 c45 -60 86 -107 91 -105 6 2 46 51 89 108 l79 105 -60 3 -59 3 0 32 c0
45 41 127 85 172 110 109 293 115 409 14 130 -115 136 -317 13 -437 -49 -48
-117 -81 -187 -89 -57 -7 -75 -22 -66 -58 8 -33 45 -41 121 -26 83 17 147 55
210 123 221 239 67 624 -261 652 -33 3 -77 1 -100 -4z"/>
<path d="M907 1153 c-13 -12 -8 -240 6 -250 25 -21 180 -74 206 -71 18 2 27
10 29 26 5 34 -10 46 -93 77 l-75 27 0 87 c0 54 -5 92 -12 99 -13 13 -50 16
-61 5z"/>
</g>
</svg>
