<?xml version="1.0" standalone="no"?>
<!DOCTYPE svg PUBLIC "-//W3C//DTD SVG 20010904//EN"
 "http://www.w3.org/TR/2001/REC-SVG-20010904/DTD/svg10.dtd">
<svg version="1.0" xmlns="http://www.w3.org/2000/svg"
 width="192.000000pt" height="192.000000pt" viewBox="0 0 192.000000 192.000000"
 preserveAspectRatio="xMidYMid meet">
<metadata>
Created by potrace 1.16, written by Peter Selinger 2001-2019
</metadata>
<g transform="translate(0.000000,192.000000) scale(0.100000,-0.100000)"
fill="#000000" stroke="none">
811 c445 -92 729 -532 635 -987 -62 -301 -295 -546 -601 -630 -91 -26 -329
-26 -420 0 -291 80 -516 305 -596 596 -26 91 -26 329 0 420 120 433 542 692
982 601z"/>
<path d="M745 1356 c-37 -17 -80 -62 -94 -99 -7 -18 -11 -132 -11 -299 0 -261
1 -272 22 -310 14 -24 41 -51 68 -66 44 -27 48 -27 225 -27 177 0 181 0 225
27 27 15 54 42 68 66 21 38 22 49 22 311 0 295 -3 313 -56 363 -16 15 -42 32
-57 37 -43 16 -375 14 -412 -3z m170 -446 c33 -33 66 -60 73 -60 8 0 25 9 39
20 14 11 30 20 35 20 19 0 158 -143 158 -162 0 -28 -26 -74 -56 -97 -25 -20
-39 -21 -209 -21 -170 0 -184 1 -209 21 -41 32 -56 71 -56 146 l0 67 62 63
c36 37 71 63 83 63 12 0 46 -25 80 -60z"/>
<path d="M552 1178 c-9 -9 -12 -72 -12 -220 0 -184 2 -209 16 -215 9 -3 24 -2
33 4 14 9 16 39 19 211 2 172 0 202 -14 216 -19 19 -26 20 -42 4z"/>
<path d="M1316 1174 c-14 -14 -16 -44 -14 -216 3 -172 5 -202 19 -211 9 -6 24
-7 33 -4 14 6 16 31 16 215 0 148 -3 211 -12 220 -16 16 -23 15 -42 -4z"/>
</g>
</svg>
