<?xml version="1.0" standalone="no"?>
<!DOCTYPE svg PUBLIC "-//W3C//DTD SVG 20010904//EN"
 "http://www.w3.org/TR/2001/REC-SVG-20010904/DTD/svg10.dtd">
<svg version="1.0" xmlns="http://www.w3.org/2000/svg"
 width="192.000000pt" height="192.000000pt" viewBox="0 0 192.000000 192.000000"
 preserveAspectRatio="xMidYMid meet">
<metadata>
Created by potrace 1.16, written by Peter Selinger 2001-2019
</metadata>
<g transform="translate(0.000000,192.000000) scale(0.100000,-0.100000)"
fill="#000000" stroke="none">
810 c245 -63 441 -223 549 -451 55 -116 75 -212 75 -354 0 -141 -20 -238 -75
-352 -86 -182 -215 -312 -396 -398 -116 -55 -212 -75 -354 -75 -142 0 -238 20
-354 75 -228 108 -388 304 -451 549 -28 110 -28 292 0 402 76 298 303 526 600
603 106 28 298 28 406 1z"/>
<path d="M880 1349 c-154 -30 -279 -159 -311 -320 l-11 -58 -60 -3 -60 -3 82
-108 c45 -60 86 -107 92 -105 5 2 45 51 88 108 l79 105 -61 3 -61 3 7 45 c7
57 34 109 81 157 55 57 108 80 196 85 66 4 84 1 131 -20 119 -55 181 -148 181
-273 1 -157 -107 -278 -268 -300 -59 -9 -75 -19 -75 -50 0 -38 24 -49 93 -41
80 8 172 53 232 113 220 223 105 596 -203 662 -60 12 -88 13 -152 0z"/>
<path d="M899 1133 c-14 -36 -7 -206 9 -226 18 -22 177 -79 209 -75 20 2 29 9
31 26 5 34 -11 47 -94 78 l-74 27 0 83 c0 102 -4 114 -41 114 -23 0 -32 -6
-40 -27z"/>
</g>
</svg>
