<?xml version="1.0" standalone="no"?>
<!DOCTYPE svg PUBLIC "-//W3C//DTD SVG 20010904//EN"
 "http://www.w3.org/TR/2001/REC-SVG-20010904/DTD/svg10.dtd">
<svg version="1.0" xmlns="http://www.w3.org/2000/svg"
 width="192.000000pt" height="192.000000pt" viewBox="0 0 192.000000 192.000000"
 preserveAspectRatio="xMidYMid meet">
<metadata>
Created by potrace 1.16, written by Peter Selinger 2001-2019
</metadata>
<g transform="translate(0.000000,192.000000) scale(0.100000,-0.100000)"
fill="#000000" stroke="none">
810 c245 -63 441 -223 549 -451 55 -116 75 -212 75 -354 0 -141 -20 -238 -75
-352 -86 -182 -215 -312 -396 -398 -116 -55 -212 -75 -354 -75 -142 0 -238 20
-354 75 -228 108 -388 304 -451 549 -28 110 -28 292 0 402 76 298 303 526 600
603 106 28 298 28 406 1z"/>
<path d="M865 1346 c-73 -18 -131 -51 -186 -106 -57 -57 -93 -125 -109 -207
l-12 -62 -60 -3 -60 -3 81 -107 c45 -60 86 -108 91 -108 10 0 170 208 170 222
0 4 -27 8 -60 8 -70 0 -73 6 -40 92 26 70 99 142 168 168 84 32 166 27 243
-13 259 -133 197 -509 -92 -559 -73 -12 -89 -22 -89 -53 0 -37 24 -48 90 -42
131 12 254 101 314 227 28 59 31 74 31 165 0 92 -3 105 -33 167 -54 111 -164
196 -284 218 -64 13 -100 12 -163 -4z"/>
<path d="M901 1141 c-15 -27 -14 -190 2 -221 9 -18 38 -34 110 -62 110 -43
137 -40 137 11 0 26 -7 31 -82 62 l-83 34 -5 95 -5 95 -32 3 c-23 2 -34 -2
-42 -17z"/>
</g>
</svg>
