<?xml version="1.0" standalone="no"?>
<!DOCTYPE svg PUBLIC "-//W3C//DTD SVG 20010904//EN"
 "http://www.w3.org/TR/2001/REC-SVG-20010904/DTD/svg10.dtd">
<svg version="1.0" xmlns="http://www.w3.org/2000/svg"
 width="192.000000pt" height="192.000000pt" viewBox="0 0 192.000000 192.000000"
 preserveAspectRatio="xMidYMid meet">
<metadata>
Created by potrace 1.16, written by Peter Selinger 2001-2019
</metadata>
<g transform="translate(0.000000,192.000000) scale(0.100000,-0.100000)"
fill="#000000" stroke="none">
811 c445 -92 729 -532 635 -987 -62 -301 -295 -546 -601 -630 -91 -26 -329
-26 -420 0 -291 80 -516 305 -596 596 -26 91 -26 329 0 420 120 433 542 692
982 601z"/>
<path d="M1044 1351 c-11 -5 -33 -23 -47 -41 l-27 -32 0 -174 c0 -252 8 -264
187 -264 129 0 156 7 183 52 18 30 20 51 20 211 l0 177 -34 38 -34 37 -114 2
c-62 2 -122 -1 -134 -6z"/>
<path d="M845 1232 c-31 -10 -50 -25 -68 -52 -14 -21 -17 -52 -17 -203 0 -252
10 -267 190 -267 109 0 161 14 179 48 16 31 15 32 -39 32 -61 0 -106 18 -140
54 -25 27 -25 31 -28 212 l-3 184 -27 -1 c-15 -1 -36 -4 -47 -7z"/>
<path d="M602 1074 c-46 -32 -52 -61 -52 -244 0 -251 11 -264 212 -258 l120 3
31 35 31 35 -70 5 c-76 5 -112 23 -141 67 -15 23 -19 55 -21 200 l-4 173 -42
0 c-23 0 -52 -7 -64 -16z"/>
</g>
</svg>
