<?xml version="1.0" standalone="no"?>
<!DOCTYPE svg PUBLIC "-//W3C//DTD SVG 20010904//EN"
 "http://www.w3.org/TR/2001/REC-SVG-20010904/DTD/svg10.dtd">
<svg version="1.0" xmlns="http://www.w3.org/2000/svg"
 width="192.000000pt" height="192.000000pt" viewBox="0 0 192.000000 192.000000"
 preserveAspectRatio="xMidYMid meet">
<metadata>
Created by potrace 1.16, written by Peter Selinger 2001-2019
</metadata>
<g transform="translate(0.000000,192.000000) scale(0.100000,-0.100000)"
fill="#000000" stroke="none">
811 c445 -92 729 -532 635 -987 -62 -301 -295 -546 -601 -630 -91 -26 -329
-26 -420 0 -291 80 -516 305 -596 596 -26 91 -26 329 0 420 120 433 542 692
982 601z"/>
<path d="M882 1369 c-29 -5 -77 -21 -106 -35 l-53 -26 -26 26 c-31 31 -65 33
-101 5 -34 -27 -36 -80 -3 -112 l22 -22 -28 -55 c-122 -241 17 -530 284 -586
229 -48 448 103 489 338 14 79 0 168 -36 240 -29 58 -30 61 -2 73 28 12 51 59
43 85 -10 32 -46 60 -77 60 -28 0 -78 -38 -78 -59 0 -5 -19 1 -43 14 -92 52
-190 70 -285 54z m116 -111 c-3 -39 -6 -43 -30 -46 -39 -5 -37 -32 2 -32 20 0
30 -5 30 -15 0 -11 -12 -15 -45 -15 l-45 0 0 45 c0 43 1 45 30 45 21 0 30 5
30 16 0 12 -7 14 -30 9 -26 -6 -30 -4 -30 14 0 18 6 21 46 21 l45 0 -3 -42z
m-223 -183 c42 -41 30 -102 -24 -125 -60 -24 -123 36 -101 97 22 58 82 71 125
28z m462 3 c41 -38 28 -105 -26 -127 -75 -31 -136 66 -79 126 28 30 74 30 105
1z m-189 -139 c53 -26 82 -70 82 -124 0 -54 -29 -98 -82 -124 -89 -42 -206
-16 -255 58 -85 127 100 265 255 190z"/>
<path d="M876 854 c-20 -19 -20 -54 -2 -80 12 -15 18 -17 33 -8 21 13 29 69
12 90 -15 18 -24 18 -43 -2z"/>
<path d="M987 852 c-23 -25 -21 -55 4 -78 21 -19 21 -18 40 5 23 28 24 40 3
69 -18 27 -26 27 -47 4z"/>
</g>
</svg>
