<?xml version="1.0" standalone="no"?>
<!DOCTYPE svg PUBLIC "-//W3C//DTD SVG 20010904//EN"
 "http://www.w3.org/TR/2001/REC-SVG-20010904/DTD/svg10.dtd">
<svg version="1.0" xmlns="http://www.w3.org/2000/svg"
 width="192.000000pt" height="192.000000pt" viewBox="0 0 192.000000 192.000000"
 preserveAspectRatio="xMidYMid meet">
<metadata>
Created by potrace 1.16, written by Peter Selinger 2001-2019
</metadata>
<g transform="translate(0.000000,192.000000) scale(0.100000,-0.100000)"
fill="#000000" stroke="none">
811 c445 -92 729 -532 635 -987 -62 -301 -295 -546 -601 -630 -91 -26 -329
-26 -420 0 -291 80 -516 305 -596 596 -26 91 -26 329 0 420 120 433 542 692
982 601z"/>
<path d="M923 1372 c-18 -2 -33 -8 -33 -13 0 -6 -9 -7 -20 -4 -13 4 -22 1 -26
-9 -3 -9 -15 -16 -25 -16 -10 0 -19 -4 -19 -10 0 -5 -7 -10 -15 -10 -8 0 -19
-9 -25 -20 -6 -11 -17 -20 -25 -20 -8 0 -15 -9 -15 -20 0 -11 -4 -20 -9 -20
-12 0 -41 -57 -41 -81 0 -10 -3 -20 -7 -22 -13 -8 -9 -160 4 -164 6 -2 9 -13
6 -23 -3 -11 0 -20 6 -20 6 0 11 -9 11 -20 0 -11 7 -20 15 -20 9 0 12 -6 9
-15 -4 -10 0 -15 11 -15 12 0 15 -5 10 -17 -13 -32 -18 -63 -9 -63 9 0 11
-171 3 -200 -2 -8 2 -14 9 -13 15 4 15 -6 -3 -37 -27 -48 -9 -56 30 -14 19 21
25 23 25 10 0 -9 4 -16 10 -16 11 0 40 92 40 126 0 12 5 24 11 26 6 2 13 33
16 69 5 55 8 65 24 65 11 0 19 -4 19 -9 0 -4 5 -5 10 -2 9 6 16 -36 10 -60 -2
-5 -6 -27 -10 -48 -4 -21 -13 -44 -19 -50 -18 -18 -14 -50 5 -43 12 4 9 -4
-10 -28 -14 -19 -26 -37 -26 -40 0 -14 29 -4 54 19 25 23 26 24 26 3 0 -21 1
-21 20 -3 11 10 27 42 36 72 8 29 20 52 26 50 6 -1 15 14 20 33 9 35 34 63 49
54 10 -6 90 26 106 42 11 11 24 67 26 117 1 9 5 17 10 17 5 0 7 9 4 20 -3 11
-1 20 4 20 5 0 9 7 9 15 0 8 5 15 11 15 6 0 9 9 6 20 -3 10 0 21 6 23 25 8 10
187 -15 187 -5 0 -8 7 -8 15 0 8 -4 15 -10 15 -5 0 -10 9 -10 20 0 11 -7 20
-15 20 -8 0 -15 7 -15 16 0 14 -3 14 -15 4 -10 -9 -15 -9 -15 -1 0 18 -38 51
-58 51 -10 0 -22 3 -26 7 -3 4 -21 7 -39 8 -17 1 -41 6 -51 10 -13 6 -21 4
-24 -4 -2 -7 -9 -8 -15 -4 -7 5 -27 7 -44 5z m157 -381 c5 -11 10 -45 10 -75
0 -75 -24 -101 -82 -92 -51 8 -74 21 -94 50 -34 53 38 136 118 136 27 0 40 -6
48 -19z m137 -87 c-5 -74 -18 -95 -45 -77 -36 23 -8 143 35 143 13 0 15 -10
10 -66z"/>
<path d="M1022 924 c-30 -21 -30 -57 1 -52 17 2 22 10 23 36 1 17 0 32 0 32
-1 0 -12 -7 -24 -16z"/>
<path d="M1173 889 c-12 -12 -7 -39 7 -39 12 0 19 25 11 38 -5 9 -10 9 -18 1z"/>
</g>
</svg>
