<?xml version="1.0" standalone="no"?>
<!DOCTYPE svg PUBLIC "-//W3C//DTD SVG 20010904//EN"
 "http://www.w3.org/TR/2001/REC-SVG-20010904/DTD/svg10.dtd">
<svg version="1.0" xmlns="http://www.w3.org/2000/svg"
 width="192.000000pt" height="192.000000pt" viewBox="0 0 192.000000 192.000000"
 preserveAspectRatio="xMidYMid meet">
<metadata>
Created by potrace 1.16, written by Peter Selinger 2001-2019
</metadata>
<g transform="translate(0.000000,192.000000) scale(0.100000,-0.100000)"
fill="#000000" stroke="none">
811 c445 -92 729 -532 635 -987 -62 -301 -295 -546 -601 -630 -91 -26 -329
-26 -420 0 -291 80 -516 305 -596 596 -26 91 -26 329 0 420 120 433 542 692
982 601z"/>
<path d="M653 1279 c-80 -40 -125 -115 -125 -210 0 -165 108 -321 278 -402 60
-28 79 -32 150 -32 72 0 87 4 155 37 164 81 269 236 269 397 0 133 -95 231
-224 231 -71 0 -136 -28 -168 -71 -27 -35 -43 -37 -64 -4 -44 67 -187 96 -271
54z m127 -275 c72 -176 298 -172 352 7 13 44 39 62 72 49 74 -27 -13 -204
-127 -258 -156 -73 -343 8 -392 170 -16 55 -12 76 19 87 36 14 54 1 76 -55z"/>
</g>
</svg>
