<?xml version="1.0" standalone="no"?>
<!DOCTYPE svg PUBLIC "-//W3C//DTD SVG 20010904//EN"
 "http://www.w3.org/TR/2001/REC-SVG-20010904/DTD/svg10.dtd">
<svg version="1.0" xmlns="http://www.w3.org/2000/svg"
 width="192.000000pt" height="192.000000pt" viewBox="0 0 192.000000 192.000000"
 preserveAspectRatio="xMidYMid meet">
<metadata>
Created by potrace 1.16, written by Peter Selinger 2001-2019
</metadata>
<g transform="translate(0.000000,192.000000) scale(0.100000,-0.100000)"
fill="#000000" stroke="none">
811 c445 -92 729 -532 635 -987 -62 -301 -295 -546 -601 -630 -91 -26 -329
-26 -420 0 -291 80 -516 305 -596 596 -26 91 -26 329 0 420 120 433 542 692
982 601z"/>
<path d="M870 1370 c-24 -5 -68 -21 -97 -36 l-54 -26 -20 26 c-15 18 -30 26
-53 26 -68 0 -103 -88 -53 -132 l24 -21 -29 -56 c-81 -158 -51 -349 76 -477
163 -162 422 -162 581 1 123 126 156 316 79 467 -29 58 -30 61 -2 73 13 6 29
23 37 39 12 25 11 33 -3 62 -26 56 -103 59 -134 5 l-16 -29 -26 18 c-74 52
-215 80 -310 60z m-95 -295 c42 -41 30 -102 -24 -125 -61 -25 -126 40 -101
101 23 54 84 66 125 24z m462 3 c41 -38 28 -105 -26 -127 -75 -31 -136 66 -79
126 28 30 74 30 105 1z m-189 -139 c53 -26 82 -70 82 -124 0 -92 -80 -151
-196 -143 -71 4 -104 23 -141 78 -86 125 101 263 255 189z"/>
<path d="M875 854 c-35 -36 2 -116 39 -85 19 16 21 72 4 89 -16 16 -23 15 -43
-4z"/>
<path d="M987 852 c-21 -24 -22 -56 -1 -77 20 -20 35 -15 53 17 13 23 13 29
-2 52 -21 31 -28 32 -50 8z"/>
</g>
</svg>
