<?xml version="1.0" standalone="no"?>
<!DOCTYPE svg PUBLIC "-//W3C//DTD SVG 20010904//EN"
 "http://www.w3.org/TR/2001/REC-SVG-20010904/DTD/svg10.dtd">
<svg version="1.0" xmlns="http://www.w3.org/2000/svg"
 width="192.000000pt" height="192.000000pt" viewBox="0 0 192.000000 192.000000"
 preserveAspectRatio="xMidYMid meet">
<metadata>
Created by potrace 1.16, written by Peter Selinger 2001-2019
</metadata>
<g transform="translate(0.000000,192.000000) scale(0.100000,-0.100000)"
fill="#000000" stroke="none">
811 c445 -92 729 -532 635 -987 -62 -301 -295 -546 -601 -630 -91 -26 -329
-26 -420 0 -291 80 -516 305 -596 596 -26 91 -26 329 0 420 120 433 542 692
982 601z"/>
<path d="M696 1234 l-26 -27 0 -248 c0 -236 1 -250 20 -269 25 -25 61 -26 91
-1 24 19 24 23 27 225 l3 206 127 0 c70 0 133 -4 140 -9 8 -4 12 -19 10 -32
-3 -23 -7 -24 -89 -27 -71 -2 -90 -6 -104 -22 -20 -22 -31 -104 -20 -147 l7
-28 17 23 c15 21 24 23 86 20 l70 -3 0 -30 0 -30 -80 -5 c-76 -5 -81 -6 -93
-33 -19 -39 -8 -93 24 -113 20 -14 43 -16 117 -12 158 8 222 59 214 172 -3 53
-7 62 -41 93 l-37 34 29 24 c61 51 69 150 17 205 -48 50 -98 60 -300 60 l-182
0 -27 -26z"/>
</g>
</svg>
