<?xml version="1.0" standalone="no"?>
<!DOCTYPE svg PUBLIC "-//W3C//DTD SVG 20010904//EN"
 "http://www.w3.org/TR/2001/REC-SVG-20010904/DTD/svg10.dtd">
<svg version="1.0" xmlns="http://www.w3.org/2000/svg"
 width="192.000000pt" height="192.000000pt" viewBox="0 0 192.000000 192.000000"
 preserveAspectRatio="xMidYMid meet">
<metadata>
Created by potrace 1.16, written by Peter Selinger 2001-2019
</metadata>
<g transform="translate(0.000000,192.000000) scale(0.100000,-0.100000)"
fill="#000000" stroke="none">
811 c445 -92 729 -532 635 -987 -62 -301 -295 -546 -601 -630 -91 -26 -329
-26 -420 0 -291 80 -516 305 -596 596 -26 91 -26 329 0 420 120 433 542 692
982 601z"/>
<path d="M552 1258 c-17 -17 -17 -569 0 -586 8 -8 60 -12 168 -12 199 0 190
-7 190 153 0 103 -2 118 -20 135 -19 18 -19 18 0 35 18 15 20 30 20 135 0 159
9 152 -191 152 -107 0 -159 -4 -167 -12z m238 -168 l0 -60 -60 0 -60 0 0 60 0
60 60 0 60 0 0 -60z m0 -250 l0 -60 -60 0 -60 0 0 60 0 60 60 0 60 0 0 -60z"/>
<path d="M995 1247 c-3 -12 -5 -143 -3 -290 3 -253 4 -269 22 -283 30 -21 72
-17 90 8 12 17 16 48 16 120 l0 98 98 0 c146 0 142 -5 142 185 0 126 -3 156
-16 169 -13 13 -44 16 -180 16 -162 0 -164 0 -169 -23z m245 -157 l0 -60 -60
0 -60 0 0 60 0 60 60 0 60 0 0 -60z"/>
</g>
</svg>
