<?xml version="1.0" standalone="no"?>
<!DOCTYPE svg PUBLIC "-//W3C//DTD SVG 20010904//EN"
 "http://www.w3.org/TR/2001/REC-SVG-20010904/DTD/svg10.dtd">
<svg version="1.0" xmlns="http://www.w3.org/2000/svg"
 width="192.000000pt" height="192.000000pt" viewBox="0 0 192.000000 192.000000"
 preserveAspectRatio="xMidYMid meet">
<metadata>
Created by potrace 1.16, written by Peter Selinger 2001-2019
</metadata>
<g transform="translate(0.000000,192.000000) scale(0.100000,-0.100000)"
fill="#000000" stroke="none">
811 c445 -92 729 -532 635 -987 -62 -301 -295 -546 -601 -630 -91 -26 -329
-26 -420 0 -291 80 -516 305 -596 596 -26 91 -26 329 0 420 120 433 542 692
982 601z"/>
<path d="M695 1326 c-40 -18 -85 -63 -101 -103 -11 -24 -14 -90 -14 -258 0
-202 2 -230 19 -263 24 -47 56 -77 103 -97 54 -22 452 -22 506 0 47 20 79 50
103 98 19 35 20 56 17 276 -3 232 -4 238 -27 273 -13 19 -40 46 -59 59 -35 24
-40 24 -276 26 -185 2 -248 0 -271 -11z m466 -267 l99 -81 0 -110 c0 -123 -11
-157 -63 -188 -28 -18 -51 -20 -189 -20 l-158 0 0 25 c0 21 9 29 45 45 42 18
45 22 45 56 0 39 -1 39 -67 19 -21 -7 -23 -4 -23 27 0 31 4 37 43 54 37 17 42
23 45 57 4 42 0 43 -52 22 l-36 -15 0 39 c0 36 3 40 33 46 43 9 121 52 148 81
12 13 24 24 27 24 2 0 48 -37 103 -81z m-313 -155 c-3 -36 -5 -37 -101 -80
l-98 -43 3 40 c3 40 3 40 88 79 109 49 112 49 108 4z m2 -153 c0 -38 -1 -39
-56 -62 -51 -20 -59 -21 -82 -8 -14 8 -27 19 -29 24 -2 7 116 68 165 84 1 1 2
-16 2 -38z"/>
</g>
</svg>
