<?xml version="1.0" standalone="no"?>
<!DOCTYPE svg PUBLIC "-//W3C//DTD SVG 20010904//EN"
 "http://www.w3.org/TR/2001/REC-SVG-20010904/DTD/svg10.dtd">
<svg version="1.0" xmlns="http://www.w3.org/2000/svg"
 width="192.000000pt" height="192.000000pt" viewBox="0 0 192.000000 192.000000"
 preserveAspectRatio="xMidYMid meet">
<metadata>
Created by potrace 1.16, written by Peter Selinger 2001-2019
</metadata>
<g transform="translate(0.000000,192.000000) scale(0.100000,-0.100000)"
fill="#000000" stroke="none">
811 c445 -92 729 -532 635 -987 -62 -301 -295 -546 -601 -630 -91 -26 -329
-26 -420 0 -291 80 -516 305 -596 596 -26 91 -26 329 0 420 120 433 542 692
982 601z"/>
<path d="M695 1326 c-38 -17 -90 -72 -104 -109 -7 -17 -11 -117 -11 -248 0
-234 5 -266 53 -318 50 -54 83 -61 322 -61 193 0 225 3 260 19 48 22 79 54
100 103 21 51 22 462 1 511 -17 39 -71 92 -109 106 -44 17 -474 14 -512 -3z
m119 -212 c12 -5 15 -30 15 -150 l0 -145 -82 3 -82 3 -3 139 c-2 105 1 141 10
148 15 9 119 11 142 2z m210 0 c21 -8 22 -72 1 -81 -9 -3 -24 2 -35 12 -10 9
-29 15 -42 13 -22 -3 -23 -7 -26 -90 l-3 -88 31 0 c17 0 38 7 46 15 24 24 44
7 44 -36 l0 -39 -85 0 -85 0 0 144 c0 106 3 146 13 149 18 8 123 8 141 1z
m214 -3 c9 -5 12 -30 10 -87 l-3 -79 -55 -5 -55 -5 -5 -55 c-4 -48 -8 -55 -27
-58 -23 -3 -23 -3 -23 141 0 107 3 147 13 150 20 9 131 7 145 -2z"/>
<path d="M717 1054 c-4 -4 -7 -18 -7 -31 0 -20 5 -23 36 -23 33 0 35 2 32 28
-2 20 -9 28 -28 30 -14 2 -29 0 -33 -4z"/>
<path d="M717 934 c-4 -4 -7 -18 -7 -31 0 -20 5 -23 36 -23 33 0 35 2 32 28
-2 20 -9 28 -28 30 -14 2 -29 0 -33 -4z"/>
<path d="M1137 1054 c-4 -4 -7 -18 -7 -31 0 -20 5 -23 36 -23 33 0 35 2 32 28
-2 20 -9 28 -28 30 -14 2 -29 0 -33 -4z"/>
</g>
</svg>
