<?xml version="1.0" standalone="no"?>
<!DOCTYPE svg PUBLIC "-//W3C//DTD SVG 20010904//EN"
 "http://www.w3.org/TR/2001/REC-SVG-20010904/DTD/svg10.dtd">
<svg version="1.0" xmlns="http://www.w3.org/2000/svg"
 width="192.000000pt" height="192.000000pt" viewBox="0 0 192.000000 192.000000"
 preserveAspectRatio="xMidYMid meet">
<metadata>
Created by potrace 1.16, written by Peter Selinger 2001-2019
</metadata>
<g transform="translate(0.000000,192.000000) scale(0.100000,-0.100000)"
fill="#000000" stroke="none">
811 c445 -92 729 -532 635 -987 -62 -301 -295 -546 -601 -630 -91 -26 -329
-26 -420 0 -291 80 -516 305 -596 596 -26 91 -26 329 0 420 120 433 542 692
982 601z"/>
<path d="M873 1152 l-33 -16 0 -137 c0 -133 1 -138 26 -168 22 -27 32 -31 76
-31 40 0 77 10 96 25 1 1 -2 14 -7 28 -10 25 -13 26 -60 20 -47 -5 -50 -4 -56
19 -4 14 -5 42 -3 64 3 38 4 39 46 42 39 3 42 5 42 32 0 30 -14 40 -60 40 -27
0 -29 2 -32 49 l-3 48 -32 -15z"/>
<path d="M447 1064 c-4 -4 -7 -65 -7 -136 l0 -129 33 3 32 3 0 130 0 130 -25
3 c-14 2 -29 0 -33 -4z"/>
<path d="M588 1063 c-16 -4 -18 -19 -18 -124 0 -65 0 -122 0 -126 0 -5 15 -8
33 -8 l32 0 3 98 3 97 34 0 c46 0 55 -20 55 -120 l0 -81 33 3 32 3 0 103 0
104 -33 29 c-29 26 -39 29 -95 28 -34 -1 -70 -3 -79 -6z"/>
<path d="M1100 1057 c-53 -26 -75 -121 -46 -192 21 -49 64 -68 147 -63 37 2
70 6 74 9 3 3 1 19 -5 35 -10 28 -12 29 -65 26 -69 -5 -85 7 -85 62 0 49 13
66 51 66 42 0 44 -18 5 -37 -39 -18 -43 -29 -22 -58 13 -18 15 -18 70 4 49 21
56 27 56 52 0 41 -20 79 -51 95 -34 17 -95 18 -129 1z"/>
<path d="M1348 1063 c-16 -4 -18 -19 -18 -134 l0 -129 35 0 35 0 0 100 0 100
35 0 c29 0 37 5 45 26 6 14 10 30 10 35 0 9 -109 11 -142 2z"/>
</g>
</svg>
