<?xml version="1.0" standalone="no"?>
<!DOCTYPE svg PUBLIC "-//W3C//DTD SVG 20010904//EN"
 "http://www.w3.org/TR/2001/REC-SVG-20010904/DTD/svg10.dtd">
<svg version="1.0" xmlns="http://www.w3.org/2000/svg"
 width="192.000000pt" height="192.000000pt" viewBox="0 0 192.000000 192.000000"
 preserveAspectRatio="xMidYMid meet">
<metadata>
Created by potrace 1.16, written by Peter Selinger 2001-2019
</metadata>
<g transform="translate(0.000000,192.000000) scale(0.100000,-0.100000)"
fill="#000000" stroke="none">
811 c445 -92 729 -532 635 -987 -62 -301 -295 -546 -601 -630 -91 -26 -329
-26 -420 0 -291 80 -516 305 -596 596 -26 91 -26 329 0 420 120 433 542 692
982 601z"/>
<path d="M897 1416 c-10 -26 4 -47 27 -44 15 2 21 10 21 28 0 29 -38 41 -48
16z"/>
<path d="M1042 1314 c-44 -31 -16 -104 40 -104 24 0 58 35 58 60 0 25 -34 60
-58 60 -10 0 -28 -7 -40 -16z"/>
<path d="M960 1196 c0 -9 7 -16 16 -16 17 0 14 22 -4 28 -7 2 -12 -3 -12 -12z"/>
<path d="M876 1167 c-26 -19 -17 -52 14 -52 18 0 26 6 28 21 4 30 -20 47 -42
31z"/>
<path d="M800 1027 c0 -22 8 -41 21 -53 46 -42 45 -45 -45 -220 -47 -91 -86
-175 -86 -188 0 -13 9 -34 19 -47 19 -24 22 -24 239 -27 218 -3 220 -3 247 21
16 14 28 33 28 48 0 14 -34 90 -74 170 l-74 144 -54 3 c-30 2 -58 -1 -63 -6
-6 -6 15 -58 53 -135 55 -110 62 -128 52 -150 -7 -15 -26 -30 -47 -37 -31 -10
-42 -9 -74 7 -29 14 -38 24 -40 50 -4 35 25 63 66 63 12 0 25 7 28 15 3 8 -21
66 -55 128 -33 63 -58 117 -54 121 3 3 44 6 90 6 79 0 85 2 108 28 15 16 24
40 25 60 l0 32 -155 0 -155 0 0 -33z"/>
</g>
</svg>
