<?xml version="1.0" standalone="no"?>
<!DOCTYPE svg PUBLIC "-//W3C//DTD SVG 20010904//EN"
 "http://www.w3.org/TR/2001/REC-SVG-20010904/DTD/svg10.dtd">
<svg version="1.0" xmlns="http://www.w3.org/2000/svg"
 width="192.000000pt" height="192.000000pt" viewBox="0 0 192.000000 192.000000"
 preserveAspectRatio="xMidYMid meet">
<metadata>
Created by potrace 1.16, written by Peter Selinger 2001-2019
</metadata>
<g transform="translate(0.000000,192.000000) scale(0.100000,-0.100000)"
fill="#000000" stroke="none">
811 c445 -92 729 -532 635 -987 -62 -301 -295 -546 -601 -630 -91 -26 -329
-26 -420 0 -291 80 -516 305 -596 596 -26 91 -26 329 0 420 120 433 542 692
982 601z"/>
<path d="M695 1333 c-41 -21 -74 -53 -92 -87 -17 -33 -30 -179 -19 -220 l6
-26 365 0 365 0 6 26 c11 41 -2 187 -19 220 -18 35 -51 66 -94 88 -47 23 -473
23 -518 -1z"/>
<path d="M592 918 c-15 -15 -16 -149 -1 -201 12 -44 59 -101 103 -125 27 -15
63 -17 261 -17 198 0 234 2 261 17 44 24 91 81 103 125 15 52 14 186 -1 201
-17 17 -709 17 -726 0z"/>
</g>
</svg>
