<?xml version="1.0" standalone="no"?>
<!DOCTYPE svg PUBLIC "-//W3C//DTD SVG 20010904//EN"
 "http://www.w3.org/TR/2001/REC-SVG-20010904/DTD/svg10.dtd">
<svg version="1.0" xmlns="http://www.w3.org/2000/svg"
 width="192.000000pt" height="192.000000pt" viewBox="0 0 192.000000 192.000000"
 preserveAspectRatio="xMidYMid meet">
<metadata>
Created by potrace 1.16, written by Peter Selinger 2001-2019
</metadata>
<g transform="translate(0.000000,192.000000) scale(0.100000,-0.100000)"
fill="#000000" stroke="none">
811 c445 -92 729 -532 635 -987 -62 -301 -295 -546 -601 -630 -91 -26 -329
-26 -420 0 -291 80 -516 305 -596 596 -26 91 -26 329 0 420 120 433 542 692
982 601z"/>
<path d="M430 1085 l0 -85 49 0 c69 0 83 16 75 88 -8 67 -22 82 -81 82 l-43 0
0 -85z m88 33 c-7 -20 -48 -23 -48 -4 0 11 9 16 26 16 16 0 24 -5 22 -12z m2
-63 c0 -9 -9 -15 -25 -15 -16 0 -25 6 -25 15 0 9 9 15 25 15 16 0 25 -6 25
-15z"/>
<path d="M620 1166 c0 -3 -13 -41 -30 -85 -29 -79 -29 -81 -9 -81 12 0 23 8
26 20 3 13 14 20 29 20 13 0 28 -9 34 -20 10 -19 40 -28 40 -12 0 4 -12 42
-27 85 -20 58 -31 77 -45 77 -10 0 -18 -2 -18 -4z m30 -82 c0 -8 -4 -14 -10
-14 -5 0 -10 9 -10 21 0 11 5 17 10 14 6 -3 10 -13 10 -21z"/>
<path d="M727 1163 c-4 -3 -7 -42 -7 -85 0 -71 2 -78 20 -78 17 0 20 7 20 48
l0 47 30 -47 c20 -31 37 -48 50 -48 18 0 20 7 20 85 0 78 -2 85 -20 85 -17 0
-20 -7 -20 -52 l0 -53 -30 53 c-28 48 -47 62 -63 45z"/>
<path d="M902 1154 c-18 -12 -22 -25 -22 -68 0 -60 19 -86 64 -86 48 0 66 16
66 60 0 39 -1 40 -35 40 -28 0 -35 -4 -35 -20 0 -14 7 -20 22 -20 21 0 21 -1
6 -16 -28 -28 -48 -10 -48 41 0 50 18 67 46 45 21 -19 43 3 24 25 -16 19 -59
19 -88 -1z"/>
<path d="M1047 1152 c-24 -26 -23 -113 1 -135 25 -23 85 -22 105 1 24 26 23
113 -1 135 -25 23 -85 22 -105 -1z m71 -21 c9 -5 12 -24 10 -52 -3 -39 -6 -44
-28 -44 -22 0 -25 5 -28 44 -3 39 7 61 28 61 3 0 11 -4 18 -9z"/>
<path d="M1210 1150 c-25 -25 -27 -95 -4 -128 18 -27 84 -31 108 -6 23 23 22
116 -2 137 -25 23 -78 21 -102 -3z m80 -65 c0 -48 -10 -60 -40 -50 -27 9 -29
91 -2 97 32 8 42 -3 42 -47z"/>
<path d="M1350 1085 l0 -85 48 0 c64 0 82 19 82 88 0 61 -22 82 -87 82 l-43 0
0 -85z m90 0 c0 -41 -2 -45 -25 -45 -23 0 -25 4 -25 45 0 41 2 45 25 45 23 0
25 -4 25 -45z"/>
<path d="M452 898 c-33 -33 -6 -61 114 -121 258 -129 574 -120 817 24 72 43
87 61 70 88 -16 26 -48 24 -98 -8 -159 -101 -390 -137 -582 -91 -86 20 -193
64 -242 99 -33 24 -61 27 -79 9z"/>
</g>
</svg>
