<?xml version="1.0" standalone="no"?>
<!DOCTYPE svg PUBLIC "-//W3C//DTD SVG 20010904//EN"
 "http://www.w3.org/TR/2001/REC-SVG-20010904/DTD/svg10.dtd">
<svg version="1.0" xmlns="http://www.w3.org/2000/svg"
 width="192.000000pt" height="192.000000pt" viewBox="0 0 192.000000 192.000000"
 preserveAspectRatio="xMidYMid meet">
<metadata>
Created by potrace 1.16, written by Peter Selinger 2001-2019
</metadata>
<g transform="translate(0.000000,192.000000) scale(0.100000,-0.100000)"
fill="#000000" stroke="none">
811 c445 -92 729 -532 635 -987 -62 -301 -295 -546 -601 -630 -91 -26 -329
-26 -420 0 -291 80 -516 305 -596 596 -26 91 -26 329 0 420 120 433 542 692
982 601z"/>
<path d="M842 1259 c-5 -13 -13 -49 -16 -79 -4 -30 -10 -63 -12 -72 -4 -14 1
-18 21 -18 57 0 78 29 53 70 -26 41 36 85 87 62 31 -14 34 -56 5 -72 -24 -13
-26 -45 -4 -54 9 -3 43 -6 76 -6 53 0 63 -3 89 -29 65 -65 11 -189 -92 -210
l-33 -7 -14 -88 c-17 -110 -14 -114 71 -99 183 31 293 154 305 340 4 75 2 87
-23 138 -51 104 -125 135 -347 142 l-157 6 -9 -24z"/>
<path d="M677 1199 c-17 -10 -17 -13 -3 -34 9 -14 16 -31 16 -38 0 -21 -34
-47 -62 -47 -14 0 -30 -6 -36 -12 -5 -7 -22 -97 -38 -200 -23 -155 -25 -189
-15 -202 17 -21 185 -23 198 -3 10 15 71 406 64 412 -2 3 -17 5 -32 5 -26 0
-59 22 -59 40 0 5 12 22 26 39 14 17 23 35 19 41 -8 13 -55 12 -78 -1z"/>
</g>
</svg>
