<?xml version="1.0" standalone="no"?>
<!DOCTYPE svg PUBLIC "-//W3C//DTD SVG 20010904//EN"
 "http://www.w3.org/TR/2001/REC-SVG-20010904/DTD/svg10.dtd">
<svg version="1.0" xmlns="http://www.w3.org/2000/svg"
 width="192.000000pt" height="192.000000pt" viewBox="0 0 192.000000 192.000000"
 preserveAspectRatio="xMidYMid meet">
<metadata>
Created by potrace 1.16, written by Peter Selinger 2001-2019
</metadata>
<g transform="translate(0.000000,192.000000) scale(0.100000,-0.100000)"
fill="#000000" stroke="none">
811 c445 -92 729 -532 635 -987 -62 -301 -295 -546 -601 -630 -91 -26 -329
-26 -420 0 -291 80 -516 305 -596 596 -26 91 -26 329 0 420 120 433 542 692
982 601z"/>
<path d="M605 1349 c-32 -19 -45 -41 -45 -79 0 -43 30 -77 78 -86 l32 -6 0
-265 c0 -290 3 -310 59 -332 21 -9 87 -12 233 -9 186 3 207 5 253 26 27 13 61
33 74 45 79 73 81 229 4 309 -24 25 -25 29 -11 45 30 34 48 82 48 126 0 95
-45 166 -129 206 -55 26 -59 26 -316 29 -179 1 -266 -1 -280 -9z m497 -186
c22 -19 23 -52 4 -79 -13 -16 -29 -19 -130 -22 l-116 -4 0 61 0 61 112 0 c90
0 115 -3 130 -17z m-2 -293 c11 -11 20 -33 20 -50 0 -58 -26 -70 -150 -70
l-110 0 0 70 0 70 110 0 c97 0 112 -2 130 -20z"/>
</g>
</svg>
