<?xml version="1.0" standalone="no"?>
<!DOCTYPE svg PUBLIC "-//W3C//DTD SVG 20010904//EN"
 "http://www.w3.org/TR/2001/REC-SVG-20010904/DTD/svg10.dtd">
<svg version="1.0" xmlns="http://www.w3.org/2000/svg"
 width="192.000000pt" height="192.000000pt" viewBox="0 0 192.000000 192.000000"
 preserveAspectRatio="xMidYMid meet">
<metadata>
Created by potrace 1.16, written by Peter Selinger 2001-2019
</metadata>
<g transform="translate(0.000000,192.000000) scale(0.100000,-0.100000)"
fill="#000000" stroke="none">
811 c445 -92 729 -532 635 -987 -62 -301 -295 -546 -601 -630 -91 -26 -329
-26 -420 0 -291 80 -516 305 -596 596 -26 91 -26 329 0 420 120 433 542 692
982 601z"/>
<path d="M587 1232 c-15 -16 -17 -49 -17 -258 0 -131 4 -244 8 -251 27 -42
175 -57 247 -24 80 36 112 100 103 202 -6 56 -28 93 -79 127 -29 20 -44 23
-96 20 l-63 -4 0 83 c0 70 -3 86 -20 103 -25 25 -62 26 -83 2z m198 -312 c11
-12 19 -36 19 -55 0 -47 -28 -75 -76 -75 l-38 0 0 69 c0 46 4 71 13 74 28 12
65 6 82 -13z"/>
<path d="M997 1232 c-15 -16 -17 -50 -17 -265 l0 -247 26 -16 c33 -22 159 -31
208 -14 86 28 132 105 124 205 -5 62 -26 97 -79 133 -29 20 -44 23 -96 20
l-61 -4 -4 89 c-2 74 -6 91 -22 103 -27 19 -60 18 -79 -4z m197 -311 c10 -11
18 -36 18 -56 0 -49 -25 -75 -74 -75 l-38 0 0 69 c0 46 4 71 13 74 28 12 65 6
81 -12z"/>
</g>
</svg>
