<?xml version="1.0" standalone="no"?>
<!DOCTYPE svg PUBLIC "-//W3C//DTD SVG 20010904//EN"
 "http://www.w3.org/TR/2001/REC-SVG-20010904/DTD/svg10.dtd">
<svg version="1.0" xmlns="http://www.w3.org/2000/svg"
 width="192.000000pt" height="192.000000pt" viewBox="0 0 192.000000 192.000000"
 preserveAspectRatio="xMidYMid meet">
<metadata>
Created by potrace 1.16, written by Peter Selinger 2001-2019
</metadata>
<g transform="translate(0.000000,192.000000) scale(0.100000,-0.100000)"
fill="#000000" stroke="none">
811 c445 -92 729 -532 635 -987 -62 -301 -295 -546 -601 -630 -91 -26 -329
-26 -420 0 -291 80 -516 305 -596 596 -26 91 -26 329 0 420 120 433 542 692
982 601z"/>
<path d="M635 1265 c-47 -17 -82 -57 -91 -102 -11 -59 11 -97 105 -180 l88
-78 -23 -31 c-87 -113 28 -267 157 -209 78 36 103 128 53 200 l-26 38 29 29
29 28 28 -28 27 -29 -26 -39 c-79 -116 55 -266 173 -194 74 45 92 135 40 202
l-24 32 87 78 c109 98 128 141 92 215 -46 99 -188 99 -239 0 -23 -43 -14 -111
20 -145 l25 -27 -32 -27 -33 -26 -33 27 c-30 25 -31 28 -16 41 89 74 34 230
-82 232 -72 1 -126 -42 -139 -109 -8 -44 1 -75 31 -111 l25 -30 -32 -26 -33
-26 -29 29 -29 29 26 32 c40 47 38 117 -4 164 -27 32 -41 39 -89 51 -8 2 -33
-2 -55 -10z m72 -111 c8 -20 -8 -48 -30 -52 -22 -5 -42 35 -26 54 16 19 48 18
56 -2z m278 -13 c0 -34 -30 -51 -51 -29 -25 24 -10 60 24 56 21 -2 27 -8 27
-27z m274 15 c9 -11 10 -20 1 -36 -13 -24 -38 -23 -53 1 -23 37 25 68 52 35z
m-421 -338 c26 -26 2 -75 -31 -62 -24 9 -29 35 -11 55 20 22 26 23 42 7z m292
-34 c0 -7 -8 -18 -18 -23 -39 -21 -74 36 -35 58 20 11 53 -11 53 -35z"/>
</g>
</svg>
