<?xml version="1.0" standalone="no"?>
<!DOCTYPE svg PUBLIC "-//W3C//DTD SVG 20010904//EN"
 "http://www.w3.org/TR/2001/REC-SVG-20010904/DTD/svg10.dtd">
<svg version="1.0" xmlns="http://www.w3.org/2000/svg"
 width="192.000000pt" height="192.000000pt" viewBox="0 0 192.000000 192.000000"
 preserveAspectRatio="xMidYMid meet">
<metadata>
Created by potrace 1.16, written by Peter Selinger 2001-2019
</metadata>
<g transform="translate(0.000000,192.000000) scale(0.100000,-0.100000)"
fill="#000000" stroke="none">
811 c445 -92 729 -532 635 -987 -62 -301 -295 -546 -601 -630 -91 -26 -329
-26 -420 0 -291 80 -516 305 -596 596 -26 91 -26 329 0 420 120 433 542 692
982 601z"/>
<path d="M879 1347 c-37 -12 -83 -35 -103 -51 -81 -61 -115 -160 -83 -238 15
-36 15 -36 -13 -48 -38 -16 -103 -80 -123 -123 -40 -83 -8 -184 78 -249 67
-50 141 -73 245 -73 104 0 143 9 138 33 -3 15 -15 17 -99 13 -53 -2 -110 0
-127 4 l-30 6 90 270 c99 298 110 317 151 287 14 -11 21 -60 41 -281 13 -148
28 -273 34 -279 14 -14 41 2 89 55 59 64 75 127 49 199 l-13 37 47 29 c72 45
120 121 120 192 0 46 -49 129 -99 166 -100 74 -263 95 -392 51z"/>
</g>
</svg>
