<?xml version="1.0" standalone="no"?>
<!DOCTYPE svg PUBLIC "-//W3C//DTD SVG 20010904//EN"
 "http://www.w3.org/TR/2001/REC-SVG-20010904/DTD/svg10.dtd">
<svg version="1.0" xmlns="http://www.w3.org/2000/svg"
 width="192.000000pt" height="192.000000pt" viewBox="0 0 192.000000 192.000000"
 preserveAspectRatio="xMidYMid meet">
<metadata>
Created by potrace 1.16, written by Peter Selinger 2001-2019
</metadata>
<g transform="translate(0.000000,192.000000) scale(0.100000,-0.100000)"
fill="#000000" stroke="none">
810 c245 -63 441 -223 549 -451 55 -116 75 -212 75 -354 0 -141 -20 -238 -75
-352 -86 -182 -215 -312 -396 -398 -116 -55 -212 -75 -354 -75 -142 0 -238 20
-354 75 -228 108 -388 304 -451 549 -28 110 -28 292 0 402 76 298 303 526 600
603 106 28 298 28 406 1z"/>
<path d="M588 1088 c-2 -134 -2 -300 0 -370 l4 -128 64 0 64 0 0 115 0 115 35
0 35 0 0 -115 0 -115 30 0 29 0 4 118 3 117 2 -117 2 -118 30 0 30 0 0 115 0
115 30 0 30 0 0 -115 0 -115 40 0 40 0 0 115 c0 153 18 151 23 -2 l3 -118 2
118 2 117 50 0 50 0 0 -115 0 -115 65 0 65 0 0 115 c0 70 4 115 10 115 6 0 10
14 10 30 0 17 -4 30 -10 30 -6 0 -10 82 -10 225 l0 225 -65 0 -65 0 0 -225 0
-225 -50 0 -50 0 -3 228 -2 227 -3 -227 c-1 -144 -6 -228 -12 -228 -6 0 -10
82 -10 225 l0 225 -40 0 -40 0 0 -225 0 -225 -30 0 -30 0 0 225 0 225 -30 0
-30 0 -3 -227 -2 -228 -3 228 -2 227 -30 0 -30 0 0 -225 0 -225 -35 0 -35 0 0
225 0 225 -64 0 -64 0 -4 -242z"/>
</g>
</svg>
