<?xml version="1.0" standalone="no"?>
<!DOCTYPE svg PUBLIC "-//W3C//DTD SVG 20010904//EN"
 "http://www.w3.org/TR/2001/REC-SVG-20010904/DTD/svg10.dtd">
<svg version="1.0" xmlns="http://www.w3.org/2000/svg"
 width="192.000000pt" height="192.000000pt" viewBox="0 0 192.000000 192.000000"
 preserveAspectRatio="xMidYMid meet">
<metadata>
Created by potrace 1.16, written by Peter Selinger 2001-2019
</metadata>
<g transform="translate(0.000000,192.000000) scale(0.100000,-0.100000)"
fill="#000000" stroke="none">
811 c445 -92 729 -532 635 -987 -62 -301 -295 -546 -601 -630 -91 -26 -329
-26 -420 0 -291 80 -516 305 -596 596 -26 91 -26 329 0 420 120 433 542 692
982 601z"/>
<path d="M871 1365 c-64 -20 -83 -55 -31 -55 61 0 76 -88 22 -130 -28 -23 -40
-24 -77 -10 -25 10 -25 10 -8 36 17 26 16 27 -12 51 -35 30 -76 26 -117 -14
-44 -43 -61 -109 -56 -226 4 -88 9 -111 36 -171 35 -75 44 -77 83 -12 15 25
19 27 25 13 3 -10 -2 -39 -12 -65 -11 -26 -21 -51 -23 -57 -9 -24 72 64 97
105 26 43 27 44 30 18 3 -27 -23 -89 -61 -142 l-21 -29 30 -24 c45 -36 128
-82 162 -89 23 -5 46 2 100 31 38 20 80 47 93 61 21 22 22 27 9 47 -34 54 -59
105 -65 135 -9 44 10 41 34 -5 24 -47 77 -110 85 -102 4 3 -1 23 -9 43 -9 21
-15 50 -13 64 3 25 4 24 32 -16 16 -23 32 -42 36 -42 10 0 59 110 71 163 18
73 7 195 -22 253 -29 59 -82 91 -126 77 -37 -13 -51 -38 -35 -63 18 -29 7 -40
-38 -40 -50 0 -66 23 -76 107 -10 91 -52 117 -143 88z"/>
</g>
</svg>
