<?xml version="1.0" standalone="no"?>
<!DOCTYPE svg PUBLIC "-//W3C//DTD SVG 20010904//EN"
 "http://www.w3.org/TR/2001/REC-SVG-20010904/DTD/svg10.dtd">
<svg version="1.0" xmlns="http://www.w3.org/2000/svg"
 width="192.000000pt" height="192.000000pt" viewBox="0 0 192.000000 192.000000"
 preserveAspectRatio="xMidYMid meet">
<metadata>
Created by potrace 1.16, written by Peter Selinger 2001-2019
</metadata>
<g transform="translate(0.000000,192.000000) scale(0.100000,-0.100000)"
fill="#000000" stroke="none">
811 c445 -92 729 -532 635 -987 -62 -301 -295 -546 -601 -630 -91 -26 -329
-26 -420 0 -291 80 -516 305 -596 596 -26 91 -26 329 0 420 120 433 542 692
982 601z"/>
<path d="M1130 1320 c-24 -24 -25 -48 -4 -78 14 -20 23 -22 109 -22 86 0 95 2
109 22 21 30 20 54 -4 78 -17 17 -33 20 -105 20 -72 0 -88 -3 -105 -20z"/>
<path d="M1126 1158 c-21 -30 -20 -54 4 -78 17 -17 33 -20 105 -20 72 0 88 3
105 20 24 24 25 48 4 78 -14 20 -23 22 -109 22 -86 0 -95 -2 -109 -22z"/>
<path d="M862 1018 c-25 -13 -37 -46 -27 -77 9 -28 66 -44 142 -39 54 3 69 8
84 27 24 29 24 43 0 72 -17 21 -29 24 -98 26 -44 2 -88 -2 -101 -9z"/>
<path d="M1160 1023 c-51 -20 -65 -67 -29 -99 17 -16 37 -19 106 -19 77 0 87
2 104 24 24 29 24 43 0 72 -16 20 -29 24 -92 26 -41 1 -81 0 -89 -4z"/>
<path d="M570 850 c-24 -24 -25 -48 -4 -78 14 -20 23 -22 109 -22 86 0 95 2
109 22 21 30 20 54 -4 78 -17 17 -33 20 -105 20 -72 0 -88 -3 -105 -20z"/>
<path d="M850 850 c-25 -25 -26 -62 -2 -83 23 -21 179 -24 204 -4 27 21 30 52
7 80 -19 25 -25 27 -105 27 -71 0 -87 -3 -104 -20z"/>
<path d="M1130 850 c-24 -24 -25 -48 -4 -78 14 -20 23 -22 109 -22 86 0 95 2
109 22 21 30 20 54 -4 78 -17 17 -33 20 -105 20 -72 0 -88 -3 -105 -20z"/>
<path d="M566 688 c-21 -30 -20 -54 4 -78 17 -17 33 -20 105 -20 72 0 88 3
105 20 24 24 25 48 4 78 -14 20 -23 22 -109 22 -86 0 -95 -2 -109 -22z"/>
<path d="M847 692 c-23 -25 -21 -58 3 -82 17 -17 33 -20 104 -20 79 0 86 2
105 26 26 33 26 49 1 74 -17 17 -33 20 -108 20 -73 0 -92 -3 -105 -18z"/>
<path d="M1126 688 c-21 -30 -20 -54 4 -78 17 -17 33 -20 105 -20 72 0 88 3
105 20 24 24 25 48 4 78 -14 20 -23 22 -109 22 -86 0 -95 -2 -109 -22z"/>
</g>
</svg>
