<?xml version="1.0" standalone="no"?>
<!DOCTYPE svg PUBLIC "-//W3C//DTD SVG 20010904//EN"
 "http://www.w3.org/TR/2001/REC-SVG-20010904/DTD/svg10.dtd">
<svg version="1.0" xmlns="http://www.w3.org/2000/svg"
 width="192.000000pt" height="192.000000pt" viewBox="0 0 192.000000 192.000000"
 preserveAspectRatio="xMidYMid meet">
<metadata>
Created by potrace 1.16, written by Peter Selinger 2001-2019
</metadata>
<g transform="translate(0.000000,192.000000) scale(0.100000,-0.100000)"
fill="#000000" stroke="none">
811 c445 -92 729 -532 635 -987 -62 -301 -295 -546 -601 -630 -91 -26 -329
-26 -420 0 -291 80 -516 305 -596 596 -26 91 -26 329 0 420 120 433 542 692
982 601z"/>
<path d="M874 1356 c-158 -69 -234 -361 -155 -593 15 -43 16 -53 5 -38 -35 47
-59 156 -59 275 0 63 2 135 5 160 l5 45 -34 0 c-31 0 -37 -5 -57 -45 -35 -69
-49 -166 -36 -245 30 -185 162 -319 348 -355 54 -11 71 -10 145 9 137 35 226
108 286 237 26 54 28 69 28 174 0 104 -3 121 -27 173 -25 53 -29 57 -61 57
-18 0 -36 -2 -39 -5 -2 -3 1 -33 8 -67 18 -82 17 -177 -1 -261 -16 -75 -59
-180 -83 -199 -13 -11 -13 -9 1 13 57 87 82 278 53 402 -29 121 -92 219 -167
258 -45 22 -119 25 -165 5z m106 -296 l0 -60 40 0 c22 0 40 -4 40 -10 0 -5
-24 -53 -52 -107 l-53 -98 -3 68 -3 67 -39 0 c-21 0 -41 3 -43 8 -6 10 92 192
104 192 5 0 9 -27 9 -60z m-220 -380 c6 -11 8 -20 6 -20 -3 0 -10 9 -16 20 -6
11 -8 20 -6 20 3 0 10 -9 16 -20z"/>
</g>
</svg>
