<?xml version="1.0" standalone="no"?>
<!DOCTYPE svg PUBLIC "-//W3C//DTD SVG 20010904//EN"
 "http://www.w3.org/TR/2001/REC-SVG-20010904/DTD/svg10.dtd">
<svg version="1.0" xmlns="http://www.w3.org/2000/svg"
 width="192.000000pt" height="192.000000pt" viewBox="0 0 192.000000 192.000000"
 preserveAspectRatio="xMidYMid meet">
<metadata>
Created by potrace 1.16, written by Peter Selinger 2001-2019
</metadata>
<g transform="translate(0.000000,192.000000) scale(0.100000,-0.100000)"
fill="#000000" stroke="none">
811 c445 -92 729 -532 635 -987 -62 -301 -295 -546 -601 -630 -91 -26 -329
-26 -420 0 -291 80 -516 305 -596 596 -26 91 -26 329 0 420 120 433 542 692
982 601z"/>
<path d="M795 1285 c-77 -52 -150 -106 -162 -120 -40 -46 -27 -112 27 -140 46
-24 72 -18 146 33 80 55 94 88 49 118 -29 19 -30 18 55 67 l46 26 111 -74 c61
-41 114 -78 117 -83 3 -5 -65 -58 -152 -117 -86 -60 -167 -117 -179 -128 -37
-33 -25 -87 19 -87 10 0 120 68 243 150 255 170 259 175 184 229 l-40 30 40
27 c31 20 41 33 41 53 0 61 -39 65 -115 15 l-55 -37 -100 67 c-55 36 -108 66
-117 65 -10 0 -81 -43 -158 -94z"/>
<path d="M790 1002 c-182 -124 -215 -151 -218 -174 -3 -22 4 -32 37 -54 23
-15 41 -28 41 -29 0 -1 -18 -14 -40 -29 -32 -21 -40 -32 -40 -56 0 -23 6 -33
25 -42 22 -10 32 -7 80 25 30 21 59 37 65 37 6 0 55 -30 110 -66 58 -39 105
-64 114 -61 36 14 316 209 326 226 19 37 12 81 -19 112 -43 42 -81 39 -164
-13 -78 -50 -92 -76 -57 -114 27 -28 28 -25 -41 -69 l-53 -33 -119 80 c-75 51
-116 83 -110 89 6 6 86 63 179 128 172 120 192 142 164 177 -26 31 -66 12
-280 -134z"/>
</g>
</svg>
