<?xml version="1.0" standalone="no"?>
<!DOCTYPE svg PUBLIC "-//W3C//DTD SVG 20010904//EN"
 "http://www.w3.org/TR/2001/REC-SVG-20010904/DTD/svg10.dtd">
<svg version="1.0" xmlns="http://www.w3.org/2000/svg"
 width="192.000000pt" height="192.000000pt" viewBox="0 0 192.000000 192.000000"
 preserveAspectRatio="xMidYMid meet">
<metadata>
Created by potrace 1.16, written by Peter Selinger 2001-2019
</metadata>
<g transform="translate(0.000000,192.000000) scale(0.100000,-0.100000)"
fill="#000000" stroke="none">
811 c445 -92 729 -532 635 -987 -62 -301 -295 -546 -601 -630 -91 -26 -329
-26 -420 0 -291 80 -516 305 -596 596 -26 91 -26 329 0 420 120 433 542 692
982 601z"/>
<path d="M475 1118 c-46 -25 -55 -48 -55 -150 0 -94 1 -99 29 -130 27 -30 34
-33 105 -36 98 -5 142 3 172 33 22 22 24 32 24 130 0 104 -1 107 -29 136 -29
28 -32 29 -128 29 -54 0 -107 -6 -118 -12z m166 -69 c15 -15 19 -27 14 -42 -9
-28 -9 -46 0 -74 12 -36 -26 -65 -83 -61 l-47 3 -3 84 c-2 46 -1 90 2 98 9 22
92 17 117 -8z"/>
<path d="M567 1023 c-16 -15 -6 -33 18 -33 18 0 25 5 25 20 0 20 -28 28 -43
13z"/>
<path d="M562 933 c2 -10 13 -19 26 -21 17 -3 22 2 22 17 0 16 -6 21 -26 21
-19 0 -25 -5 -22 -17z"/>
<path d="M819 1101 c-28 -29 -29 -32 -29 -136 0 -98 2 -108 24 -130 30 -30 74
-38 172 -33 71 3 78 6 105 36 27 31 29 37 29 123 0 148 -22 169 -176 169 -92
0 -97 -1 -125 -29z m191 -51 c4 -7 8 -46 8 -87 0 -85 -7 -93 -82 -93 l-46 0 0
101 0 101 56 -4 c31 -3 59 -11 64 -18z"/>
<path d="M930 1011 c0 -16 6 -21 26 -21 33 0 30 33 -4 38 -17 3 -22 -2 -22
-17z"/>
<path d="M930 929 c0 -15 5 -20 22 -17 34 5 37 38 4 38 -20 0 -26 -5 -26 -21z"/>
<path d="M1188 1101 c-32 -28 -33 -32 -36 -119 -6 -148 26 -182 170 -182 65 0
90 4 116 20 44 27 54 59 50 163 -3 86 -4 90 -36 118 -31 28 -36 29 -132 29
-96 0 -101 -1 -132 -29z m194 -53 c24 -38 -10 -68 -37 -31 -7 9 -19 14 -29 10
-12 -5 -16 -20 -16 -62 0 -49 2 -55 20 -55 11 0 23 7 26 15 9 22 44 19 44 -4
0 -49 -81 -70 -120 -31 -15 15 -20 33 -20 78 0 81 22 105 89 97 19 -2 38 -10
43 -17z"/>
</g>
</svg>
