<?xml version="1.0" standalone="no"?>
<!DOCTYPE svg PUBLIC "-//W3C//DTD SVG 20010904//EN"
 "http://www.w3.org/TR/2001/REC-SVG-20010904/DTD/svg10.dtd">
<svg version="1.0" xmlns="http://www.w3.org/2000/svg"
 width="192.000000pt" height="192.000000pt" viewBox="0 0 192.000000 192.000000"
 preserveAspectRatio="xMidYMid meet">
<metadata>
Created by potrace 1.16, written by Peter Selinger 2001-2019
</metadata>
<g transform="translate(0.000000,192.000000) scale(0.100000,-0.100000)"
fill="#000000" stroke="none">
811 c445 -92 729 -532 635 -987 -62 -301 -295 -546 -601 -630 -91 -26 -329
-26 -420 0 -291 80 -516 305 -596 596 -26 91 -26 329 0 420 120 433 542 692
982 601z"/>
<path d="M463 1206 c-27 -23 -28 -29 -31 -124 -4 -99 -4 -100 26 -133 30 -33
32 -34 124 -37 80 -3 98 0 126 18 42 26 52 54 52 146 0 80 -16 126 -49 144
-11 5 -65 10 -120 10 -91 0 -102 -2 -128 -24z m185 -48 c13 -17 13 -149 0
-165 -6 -8 -33 -13 -64 -13 l-54 0 0 95 0 95 54 0 c31 0 58 -5 64 -12z"/>
<path d="M570 1115 c0 -9 9 -15 25 -15 16 0 25 6 25 15 0 9 -9 15 -25 15 -16
0 -25 -6 -25 -15z"/>
<path d="M577 1054 c-16 -16 -6 -34 19 -34 19 0 25 5 22 17 -3 19 -29 29 -41
17z"/>
<path d="M834 1215 c-35 -24 -46 -67 -43 -159 4 -78 7 -88 32 -113 26 -27 31
-28 132 -28 101 0 106 1 132 28 27 27 28 31 28 133 0 103 -1 106 -28 130 -26
22 -37 24 -130 24 -74 0 -108 -4 -123 -15z m174 -57 c13 -17 13 -149 0 -165
-6 -8 -33 -13 -64 -13 l-54 0 0 95 0 95 54 0 c31 0 58 -5 64 -12z"/>
<path d="M930 1115 c0 -9 9 -15 25 -15 16 0 25 6 25 15 0 9 -9 15 -25 15 -16
0 -25 -6 -25 -15z"/>
<path d="M937 1054 c-16 -16 -6 -34 19 -34 19 0 25 5 22 17 -3 19 -29 29 -41
17z"/>
<path d="M1197 1219 c-32 -19 -47 -65 -47 -143 0 -92 10 -120 52 -146 28 -18
46 -21 126 -18 92 3 94 4 124 37 30 33 30 34 26 133 -3 95 -4 101 -31 124 -26
22 -37 24 -130 24 -56 0 -110 -5 -120 -11z m183 -70 c21 -39 -17 -71 -38 -33
-5 9 -18 14 -28 12 -28 -5 -28 -101 -1 -106 10 -2 24 4 31 14 15 20 46 13 46
-10 0 -26 -30 -46 -70 -46 -57 0 -70 19 -70 99 0 39 5 72 12 79 7 7 33 12 60
12 38 0 50 -4 58 -21z"/>
<path d="M500 844 c0 -3 7 -36 16 -75 12 -55 19 -69 34 -69 14 0 21 11 28 43
l9 42 7 -30 c13 -52 15 -55 34 -55 15 0 21 12 31 58 7 31 15 65 17 75 4 11 0
17 -10 17 -10 0 -19 -19 -27 -57 l-13 -58 -10 55 c-8 37 -17 56 -28 58 -12 2
-18 -8 -23 -47 -8 -60 -20 -59 -29 4 -5 29 -12 45 -22 45 -8 0 -14 -2 -14 -6z"/>
<path d="M690 775 l0 -75 50 0 c28 0 50 5 50 10 0 6 -16 10 -35 10 -28 0 -35
4 -35 20 0 15 7 20 25 20 16 0 25 6 25 15 0 9 -10 15 -26 15 -40 0 -28 34 14
38 51 5 37 22 -18 22 l-50 0 0 -75z"/>
<path d="M817 844 c-11 -11 -8 -144 3 -144 6 0 10 11 10 25 0 20 5 25 25 25
20 0 25 -5 25 -25 0 -16 6 -25 15 -25 13 0 15 13 13 73 l-3 72 -40 3 c-23 2
-44 0 -48 -4z m61 -47 c3 -22 -1 -27 -18 -27 -23 0 -35 22 -26 46 10 25 41 12
44 -19z"/>
<path d="M930 841 c0 -5 9 -11 20 -14 17 -4 20 -14 20 -66 0 -48 3 -61 15 -61
12 0 15 14 15 65 0 59 2 65 21 65 11 0 17 5 14 10 -8 12 -105 13 -105 1z"/>
<path d="M1050 775 c0 -60 3 -75 15 -75 10 0 15 10 15 30 0 27 3 30 30 30 27
0 30 -3 30 -30 0 -20 5 -30 15 -30 13 0 15 12 13 72 -2 46 -7 73 -15 76 -9 2
-13 -7 -13 -27 0 -28 -3 -31 -30 -31 -27 0 -30 3 -30 30 0 20 -5 30 -15 30
-12 0 -15 -15 -15 -75z"/>
<path d="M1190 775 l0 -75 50 0 c28 0 50 5 50 10 0 6 -16 10 -35 10 -28 0 -35
4 -35 20 0 15 7 20 25 20 16 0 25 6 25 15 0 9 -9 15 -25 15 -18 0 -25 5 -25
20 0 16 7 20 35 20 19 0 35 5 35 10 0 6 -22 10 -50 10 l-50 0 0 -75z"/>
<path d="M1300 775 c0 -60 3 -75 15 -75 9 0 15 9 15 25 0 14 4 25 9 25 5 0 16
-11 25 -25 9 -14 24 -25 32 -25 15 0 15 2 0 25 -15 23 -15 27 -1 41 18 18 20
55 3 72 -7 7 -31 12 -55 12 l-43 0 0 -75z m78 27 c3 -18 -1 -22 -22 -22 -19 0
-26 5 -26 18 0 39 43 43 48 4z"/>
</g>
</svg>
