<?xml version="1.0" standalone="no"?>
<!DOCTYPE svg PUBLIC "-//W3C//DTD SVG 20010904//EN"
 "http://www.w3.org/TR/2001/REC-SVG-20010904/DTD/svg10.dtd">
<svg version="1.0" xmlns="http://www.w3.org/2000/svg"
 width="192.000000pt" height="192.000000pt" viewBox="0 0 192.000000 192.000000"
 preserveAspectRatio="xMidYMid meet">
<metadata>
Created by potrace 1.16, written by Peter Selinger 2001-2019
</metadata>
<g transform="translate(0.000000,192.000000) scale(0.100000,-0.100000)"
fill="#000000" stroke="none">
811 c445 -92 729 -532 635 -987 -62 -301 -295 -546 -601 -630 -91 -26 -329
-26 -420 0 -291 80 -516 305 -596 596 -26 91 -26 329 0 420 120 433 542 692
982 601z"/>
<path d="M449 1181 c-28 -29 -29 -32 -29 -131 0 -56 5 -110 10 -121 19 -35 63
-49 161 -49 90 0 91 0 125 34 34 34 34 35 34 125 0 150 -22 171 -176 171 -92
0 -97 -1 -125 -29z m181 -41 c16 -8 19 -22 18 -87 0 -43 -5 -84 -10 -90 -6 -8
-33 -13 -64 -13 l-54 0 0 100 0 100 46 0 c25 0 54 -4 64 -10z"/>
<path d="M567 1104 c-16 -16 -6 -34 19 -34 19 0 25 5 22 17 -3 19 -29 29 -41
17z"/>
<path d="M560 1010 c0 -15 7 -20 25 -20 18 0 25 5 25 20 0 15 -7 20 -25 20
-18 0 -25 -5 -25 -20z"/>
<path d="M818 1181 c-32 -28 -33 -32 -36 -118 -2 -69 1 -95 15 -123 27 -52 53
-61 166 -58 97 3 99 3 128 36 28 31 29 36 29 128 0 96 0 96 -34 130 l-34 34
-101 0 c-97 0 -102 -1 -133 -29z m170 -37 c27 -8 39 -46 24 -79 -7 -15 -8 -26
-2 -30 6 -4 10 -19 10 -35 0 -38 -26 -52 -88 -48 l-47 3 -3 84 c-2 46 -1 90 2
98 6 14 63 18 104 7z"/>
<path d="M930 1090 c0 -16 5 -21 23 -18 12 2 22 10 22 18 0 8 -10 16 -22 18
-18 3 -23 -2 -23 -18z"/>
<path d="M930 1010 c0 -16 5 -21 23 -18 12 2 22 10 22 18 0 8 -10 16 -22 18
-18 3 -23 -2 -23 -18z"/>
<path d="M1183 1175 l-35 -35 4 -100 c3 -93 5 -101 31 -127 27 -27 31 -28 137
-28 106 0 110 1 137 28 27 27 28 31 28 133 l0 106 -33 29 c-31 28 -36 29 -133
29 l-101 0 -35 -35z m198 -47 c25 -38 -9 -68 -36 -31 -7 9 -19 14 -29 10 -12
-5 -16 -20 -16 -62 0 -49 2 -55 20 -55 11 0 23 7 26 15 10 26 44 18 44 -10 0
-29 -26 -45 -74 -45 -48 0 -66 28 -66 102 0 76 23 103 83 95 22 -3 44 -11 48
-19z"/>
<path d="M896 813 c-8 -20 0 -29 59 -63 l47 -27 -46 -27 c-24 -14 -47 -26 -50
-26 -3 0 -6 19 -8 43 -3 37 -6 42 -28 42 -23 0 -25 -4 -28 -52 -2 -42 1 -56
17 -72 29 -29 55 -26 127 14 97 55 97 100 1 155 -59 34 -82 37 -91 13z"/>
</g>
</svg>
