<?xml version="1.0" standalone="no"?>
<!DOCTYPE svg PUBLIC "-//W3C//DTD SVG 20010904//EN"
 "http://www.w3.org/TR/2001/REC-SVG-20010904/DTD/svg10.dtd">
<svg version="1.0" xmlns="http://www.w3.org/2000/svg"
 width="192.000000pt" height="192.000000pt" viewBox="0 0 192.000000 192.000000"
 preserveAspectRatio="xMidYMid meet">
<metadata>
Created by potrace 1.16, written by Peter Selinger 2001-2019
</metadata>
<g transform="translate(0.000000,192.000000) scale(0.100000,-0.100000)"
fill="#000000" stroke="none">
811 c445 -92 729 -532 635 -987 -62 -301 -295 -546 -601 -630 -91 -26 -329
-26 -420 0 -291 80 -516 305 -596 596 -26 91 -26 329 0 420 120 433 542 692
982 601z"/>
<path d="M465 1176 c-29 -29 -38 -75 -33 -166 3 -60 8 -74 31 -98 25 -25 35
-27 118 -31 153 -5 179 19 179 169 0 88 -1 93 -29 121 -29 28 -32 29 -136 29
-98 0 -108 -2 -130 -24z m183 -48 c5 -7 10 -44 10 -83 0 -38 -5 -76 -10 -82
-6 -8 -33 -13 -64 -13 l-54 0 0 95 0 95 54 0 c31 0 58 -5 64 -12z"/>
<path d="M572 1083 c2 -10 12 -18 23 -18 11 0 21 8 23 18 3 13 -3 17 -23 17
-20 0 -26 -4 -23 -17z"/>
<path d="M577 1024 c-16 -16 -6 -34 19 -34 19 0 25 5 22 17 -3 19 -29 29 -41
17z"/>
<path d="M837 1189 c-33 -19 -47 -64 -47 -155 0 -85 1 -87 34 -120 34 -34 34
-34 131 -34 97 0 97 0 131 34 33 33 34 35 34 120 0 92 -14 137 -49 156 -25 13
-211 13 -234 -1z m171 -61 c15 -15 16 -65 1 -74 -8 -4 -8 -9 0 -17 15 -15 14
-60 -1 -75 -7 -7 -36 -12 -65 -12 l-53 0 0 95 0 95 53 0 c29 0 58 -5 65 -12z"/>
<path d="M932 1083 c2 -10 12 -18 23 -18 11 0 21 8 23 18 3 13 -3 17 -23 17
-20 0 -26 -4 -23 -17z"/>
<path d="M937 1024 c-16 -16 -6 -34 19 -34 19 0 25 5 22 17 -3 19 -29 29 -41
17z"/>
<path d="M1179 1171 c-28 -28 -29 -33 -29 -121 0 -150 26 -174 179 -169 83 4
93 6 118 31 23 24 28 38 31 98 5 91 -4 137 -33 166 -22 22 -32 24 -130 24
-104 0 -107 -1 -136 -29z m189 -43 c19 -19 15 -48 -8 -48 -11 0 -20 5 -20 10
0 6 -11 10 -25 10 -24 0 -25 -3 -25 -55 0 -50 2 -55 21 -55 12 0 27 7 34 17
14 19 35 10 35 -16 0 -26 -21 -41 -58 -41 -63 0 -72 12 -72 93 0 44 5 78 12
85 16 16 90 16 106 0z"/>
<path d="M597 814 c-4 -4 -7 -22 -7 -40 0 -33 13 -44 51 -44 10 0 19 -7 19
-15 0 -17 -35 -21 -45 -5 -11 18 -26 10 -23 -12 2 -19 10 -24 45 -26 33 -2 44
1 52 17 19 35 -4 71 -46 71 -14 0 -23 6 -23 15 0 17 35 21 45 5 11 -18 26 -10
23 13 -2 18 -10 23 -43 25 -23 2 -44 0 -48 -4z"/>
<path d="M720 746 c0 -61 3 -76 15 -76 10 0 15 10 15 29 0 26 4 30 33 33 30 3
32 5 32 43 l0 40 -47 3 -48 3 0 -75z m70 24 c0 -13 -7 -20 -20 -20 -13 0 -20
7 -20 20 0 13 7 20 20 20 13 0 20 -7 20 -20z"/>
<path d="M852 808 c-17 -17 -16 -113 2 -127 8 -7 32 -11 52 -9 34 3 40 7 48
36 6 20 6 48 0 70 -8 34 -12 37 -49 40 -23 2 -46 -3 -53 -10z m68 -63 c0 -41
-2 -45 -25 -45 -23 0 -25 4 -25 45 0 41 2 45 25 45 23 0 25 -4 25 -45z"/>
<path d="M980 746 c0 -61 3 -76 15 -76 10 0 15 10 15 28 l1 27 22 -27 c13 -16
28 -28 35 -28 15 0 15 6 1 31 -7 15 -7 24 1 34 6 8 10 29 8 47 -3 32 -5 33
-50 36 l-48 3 0 -75z m70 24 c0 -13 -7 -20 -20 -20 -13 0 -20 7 -20 20 0 13 7
20 20 20 13 0 20 -7 20 -20z"/>
<path d="M1090 809 c0 -6 9 -13 20 -16 17 -5 20 -14 20 -64 0 -46 3 -59 15
-59 12 0 15 13 15 60 0 53 2 60 20 60 11 0 20 7 20 15 0 12 -13 15 -55 15 -33
0 -55 -4 -55 -11z"/>
<path d="M1221 798 c-13 -36 2 -63 38 -66 19 -2 31 -9 31 -18 0 -17 -31 -19
-47 -3 -18 18 -35 1 -22 -22 8 -16 19 -19 52 -17 40 3 42 5 45 37 4 37 -9 51
-45 51 -14 0 -23 6 -23 15 0 17 35 21 45 5 11 -18 26 -10 23 13 -2 18 -10 23
-46 25 -36 3 -43 0 -51 -20z"/>
</g>
</svg>
