<?xml version="1.0" standalone="no"?>
<!DOCTYPE svg PUBLIC "-//W3C//DTD SVG 20010904//EN"
 "http://www.w3.org/TR/2001/REC-SVG-20010904/DTD/svg10.dtd">
<svg version="1.0" xmlns="http://www.w3.org/2000/svg"
 width="192.000000pt" height="192.000000pt" viewBox="0 0 192.000000 192.000000"
 preserveAspectRatio="xMidYMid meet">
<metadata>
Created by potrace 1.16, written by Peter Selinger 2001-2019
</metadata>
<g transform="translate(0.000000,192.000000) scale(0.100000,-0.100000)"
fill="#000000" stroke="none">
811 c445 -92 729 -532 635 -987 -62 -301 -295 -546 -601 -630 -91 -26 -329
-26 -420 0 -291 80 -516 305 -596 596 -26 91 -26 329 0 420 120 433 542 692
982 601z"/>
<path d="M845 1342 c-88 -41 -144 -127 -145 -220 0 -65 19 -104 100 -206 51
-64 65 -76 90 -76 35 0 65 36 53 66 -4 10 -28 46 -54 79 -58 76 -69 96 -69
135 0 70 53 120 127 120 54 0 100 -32 123 -85 25 -58 58 -75 96 -50 24 15 26
22 21 62 -6 59 -49 119 -111 158 -63 39 -168 46 -231 17z"/>
<path d="M973 1078 c-29 -37 -25 -50 53 -153 28 -38 55 -80 59 -93 10 -33 -12
-88 -46 -116 -71 -60 -156 -38 -200 53 -30 60 -49 76 -84 67 -83 -21 -34 -172
76 -235 69 -39 125 -47 197 -26 120 35 199 163 172 277 -12 47 -71 138 -138
211 -27 29 -72 36 -89 15z"/>
</g>
</svg>
