<?xml version="1.0" standalone="no"?>
<!DOCTYPE svg PUBLIC "-//W3C//DTD SVG 20010904//EN"
 "http://www.w3.org/TR/2001/REC-SVG-20010904/DTD/svg10.dtd">
<svg version="1.0" xmlns="http://www.w3.org/2000/svg"
 width="192.000000pt" height="192.000000pt" viewBox="0 0 192.000000 192.000000"
 preserveAspectRatio="xMidYMid meet">
<metadata>
Created by potrace 1.16, written by Peter Selinger 2001-2019
</metadata>
<g transform="translate(0.000000,192.000000) scale(0.100000,-0.100000)"
fill="#000000" stroke="none">
811 c445 -92 729 -532 635 -987 -62 -301 -295 -546 -601 -630 -91 -26 -329
-26 -420 0 -291 80 -516 305 -596 596 -26 91 -26 329 0 420 120 433 542 692
982 601z"/>
<path d="M464 1185 c-35 -24 -46 -67 -43 -159 4 -78 7 -88 32 -113 27 -27 31
-28 138 -28 109 0 111 0 135 28 22 26 24 37 24 132 0 103 0 103 -31 129 -28
24 -37 26 -133 26 -73 0 -107 -4 -122 -15z m181 -62 c11 -11 15 -25 10 -42 -7
-32 -7 -40 0 -72 10 -40 -16 -59 -81 -59 l-54 0 0 95 0 95 54 0 c38 0 60 -5
71 -17z"/>
<path d="M570 1080 c0 -13 7 -20 20 -20 13 0 20 7 20 20 0 13 -7 20 -20 20
-13 0 -20 -7 -20 -20z"/>
<path d="M570 1010 c0 -13 7 -20 20 -20 13 0 20 7 20 20 0 13 -7 20 -20 20
-13 0 -20 -7 -20 -20z"/>
<path d="M821 1174 c-31 -26 -31 -26 -31 -129 0 -95 2 -106 24 -132 23 -27 28
-28 129 -31 104 -4 105 -4 138 26 31 27 34 35 37 101 6 94 -4 138 -35 167 -24
22 -34 24 -129 24 -96 0 -105 -2 -133 -26z m187 -46 c15 -15 16 -65 1 -74 -8
-4 -8 -9 0 -17 16 -16 14 -62 -3 -76 -8 -7 -37 -11 -68 -9 l-53 3 -3 79 c-2
44 -1 85 2 93 7 17 107 18 124 1z"/>
<path d="M930 1080 c0 -16 5 -21 23 -18 12 2 22 10 22 18 0 8 -10 16 -22 18
-18 3 -23 -2 -23 -18z"/>
<path d="M930 1010 c0 -16 5 -21 23 -18 12 2 22 10 22 18 0 8 -10 16 -22 18
-18 3 -23 -2 -23 -18z"/>
<path d="M1179 1171 c-28 -28 -29 -33 -29 -120 0 -147 23 -171 165 -171 142 0
165 24 165 171 0 87 -1 92 -29 120 -29 28 -32 29 -136 29 -104 0 -107 -1 -136
-29z m197 -56 c8 -13 13 -29 9 -35 -9 -15 -33 -12 -43 6 -5 9 -18 14 -28 12
-16 -3 -19 -12 -19 -53 0 -41 3 -50 19 -53 10 -2 23 3 28 12 10 18 17 19 37 7
12 -8 12 -13 -3 -35 -12 -20 -25 -26 -52 -26 -65 0 -74 11 -74 95 0 84 8 94
72 95 29 0 41 -6 54 -25z"/>
<path d="M680 735 c0 -60 3 -75 15 -75 11 0 15 12 15 48 l0 47 30 -47 c45 -71
60 -64 60 27 0 59 -3 75 -14 75 -10 0 -16 -14 -18 -42 l-3 -43 -25 42 c-14 25
-33 43 -42 43 -16 0 -18 -10 -18 -75z"/>
<path d="M820 735 l0 -75 50 0 c38 0 50 4 50 15 0 10 -11 15 -35 15 -24 0 -35
5 -35 15 0 9 9 15 25 15 16 0 25 6 25 15 0 9 -9 15 -25 15 -18 0 -25 5 -25 20
0 17 7 20 38 20 l38 0 13 -66 c12 -57 16 -65 35 -62 14 2 22 11 24 28 5 33 22
51 22 23 0 -34 11 -53 30 -53 14 0 21 13 30 52 6 29 13 63 16 75 4 16 2 23 -9
23 -9 0 -19 -18 -27 -47 l-13 -48 -10 48 c-7 35 -14 47 -27 47 -14 0 -20 -11
-26 -52 -4 -29 -8 -48 -10 -43 -2 6 -8 29 -14 53 l-11 42 -64 0 -65 0 0 -75z"/>
<path d="M1116 795 c-15 -40 8 -75 50 -75 15 0 24 -6 24 -15 0 -9 -9 -15 -25
-15 -14 0 -25 5 -25 10 0 6 -7 10 -15 10 -18 0 -20 -21 -3 -38 17 -17 73 -15
87 2 7 8 11 27 9 43 -2 24 -9 29 -38 33 -40 6 -49 33 -12 38 12 2 22 -1 22 -7
0 -6 7 -11 16 -11 9 0 14 7 12 18 -5 24 -93 30 -102 7z"/>
</g>
</svg>
