<?xml version="1.0" standalone="no"?>
<!DOCTYPE svg PUBLIC "-//W3C//DTD SVG 20010904//EN"
 "http://www.w3.org/TR/2001/REC-SVG-20010904/DTD/svg10.dtd">
<svg version="1.0" xmlns="http://www.w3.org/2000/svg"
 width="192.000000pt" height="192.000000pt" viewBox="0 0 192.000000 192.000000"
 preserveAspectRatio="xMidYMid meet">
<metadata>
Created by potrace 1.16, written by Peter Selinger 2001-2019
</metadata>
<g transform="translate(0.000000,192.000000) scale(0.100000,-0.100000)"
fill="#000000" stroke="none">
811 c445 -92 729 -532 635 -987 -62 -301 -295 -546 -601 -630 -91 -26 -329
-26 -420 0 -291 80 -516 305 -596 596 -26 91 -26 329 0 420 120 433 542 692
982 601z"/>
<path d="M494 1200 c-42 -17 -54 -48 -54 -142 0 -144 19 -163 167 -163 94 0
95 0 124 33 27 30 29 38 29 118 0 95 -14 133 -55 152 -30 14 -179 15 -211 2z
m160 -66 c18 -17 20 -42 7 -63 -6 -9 -5 -23 2 -38 7 -16 7 -30 -1 -48 -11 -24
-16 -26 -70 -23 l-57 3 -3 79 c-2 44 -1 85 2 93 8 19 100 17 120 -3z"/>
<path d="M580 1089 c0 -14 5 -19 17 -17 26 5 29 38 4 38 -15 0 -21 -6 -21 -21z"/>
<path d="M580 1015 c0 -8 9 -15 20 -15 11 0 20 7 20 15 0 8 -9 15 -20 15 -11
0 -20 -7 -20 -15z"/>
<path d="M829 1182 c-30 -27 -32 -34 -37 -108 -8 -142 29 -184 163 -184 134 0
171 42 163 184 -5 74 -7 81 -37 108 -30 27 -36 28 -126 28 -90 0 -96 -1 -126
-28z m179 -44 c5 -7 10 -44 10 -83 0 -38 -5 -76 -10 -82 -6 -8 -33 -13 -64
-13 l-54 0 0 95 0 95 54 0 c31 0 58 -5 64 -12z"/>
<path d="M935 1100 c-4 -7 -3 -16 3 -22 14 -14 45 -2 40 15 -6 16 -34 21 -43
7z"/>
<path d="M930 1015 c0 -9 9 -15 25 -15 16 0 25 6 25 15 0 9 -9 15 -25 15 -16
0 -25 -6 -25 -15z"/>
<path d="M1201 1197 c-39 -23 -50 -55 -51 -149 0 -83 2 -89 29 -120 29 -33 30
-33 124 -33 148 0 167 19 167 165 0 80 -3 92 -24 117 -23 27 -29 28 -123 31
-69 1 -105 -2 -122 -11z m167 -59 c7 -7 12 -22 12 -35 0 -27 -27 -31 -45 -6
-23 31 -45 9 -45 -47 0 -43 3 -50 20 -50 10 0 23 7 28 17 12 21 42 10 42 -15
0 -29 -21 -42 -66 -42 -55 0 -74 25 -74 95 0 70 19 95 74 95 23 0 47 -5 54
-12z"/>
<path d="M876 814 c-3 -9 -6 -46 -6 -83 0 -103 25 -114 122 -55 50 31 59 40
56 62 -2 19 -17 34 -58 59 -60 36 -104 42 -114 17z"/>
</g>
</svg>
