<?xml version="1.0" standalone="no"?>
<!DOCTYPE svg PUBLIC "-//W3C//DTD SVG 20010904//EN"
 "http://www.w3.org/TR/2001/REC-SVG-20010904/DTD/svg10.dtd">
<svg version="1.0" xmlns="http://www.w3.org/2000/svg"
 width="192.000000pt" height="192.000000pt" viewBox="0 0 192.000000 192.000000"
 preserveAspectRatio="xMidYMid meet">
<metadata>
Created by potrace 1.16, written by Peter Selinger 2001-2019
</metadata>
<g transform="translate(0.000000,192.000000) scale(0.100000,-0.100000)"
fill="#000000" stroke="none">
811 c445 -92 729 -532 635 -987 -62 -301 -295 -546 -601 -630 -91 -26 -329
-26 -420 0 -291 80 -516 305 -596 596 -26 91 -26 329 0 420 120 433 542 692
982 601z"/>
<path d="M473 1182 c-30 -23 -43 -63 -43 -130 0 -75 16 -128 43 -147 25 -18
206 -22 238 -5 33 18 49 64 49 145 0 81 -16 127 -49 145 -11 5 -64 10 -118 10
-77 0 -103 -4 -120 -18z m173 -50 c18 -12 25 -42 14 -62 -7 -13 -6 -27 1 -44
10 -20 9 -30 -5 -51 -14 -22 -24 -25 -71 -25 l-55 0 0 95 0 95 53 0 c28 0 57
-4 63 -8z"/>
<path d="M580 1085 c0 -8 9 -15 20 -15 11 0 20 7 20 15 0 8 -9 15 -20 15 -11
0 -20 -7 -20 -15z"/>
<path d="M580 1010 c0 -13 7 -20 20 -20 13 0 20 7 20 20 0 13 -7 20 -20 20
-13 0 -20 -7 -20 -20z"/>
<path d="M823 1176 c-27 -24 -28 -26 -28 -131 0 -105 1 -107 28 -131 26 -22
37 -24 133 -24 98 0 107 2 129 25 23 22 25 31 25 127 -1 145 -14 158 -164 158
-86 0 -98 -2 -123 -24z m185 -48 c15 -15 16 -60 1 -75 -8 -8 -8 -13 0 -17 6
-4 11 -20 11 -36 0 -36 -23 -50 -84 -50 l-46 0 0 95 0 95 53 0 c29 0 58 -5 65
-12z"/>
<path d="M930 1085 c0 -9 9 -15 25 -15 16 0 25 6 25 15 0 9 -9 15 -25 15 -16
0 -25 -6 -25 -15z"/>
<path d="M930 1010 c0 -16 5 -21 23 -18 12 2 22 10 22 18 0 8 -10 16 -22 18
-18 3 -23 -2 -23 -18z"/>
<path d="M1179 1171 c-28 -29 -29 -33 -29 -126 0 -93 1 -97 29 -126 29 -28 32
-29 131 -29 99 0 102 1 131 29 28 29 29 33 29 126 0 93 -1 97 -29 126 -29 28
-32 29 -131 29 -99 0 -102 -1 -131 -29z m189 -43 c15 -15 16 -45 1 -53 -5 -4
-18 0 -28 9 -35 32 -51 21 -51 -34 0 -56 22 -78 45 -47 19 26 45 21 45 -8 0
-28 -25 -45 -69 -45 -48 0 -71 30 -71 93 0 72 19 97 74 97 23 0 47 -5 54 -12z"/>
<path d="M570 745 l0 -75 45 0 c33 0 45 4 45 15 0 11 -11 15 -36 15 -28 0 -35
3 -32 18 2 10 14 18 31 20 35 4 35 20 0 24 -40 4 -36 32 5 36 48 5 39 22 -13
22 l-45 0 0 -75z"/>
<path d="M680 744 c0 -56 3 -75 13 -72 6 3 14 22 17 44 l6 39 22 -42 c35 -68
52 -57 52 32 0 60 -3 75 -15 75 -11 0 -15 -12 -15 -47 l0 -48 -27 48 c-39 70
-53 62 -53 -29z"/>
<path d="M822 808 c-17 -17 -15 -103 3 -122 9 -8 32 -15 55 -14 40 0 40 1 40
39 0 35 -3 39 -25 39 -16 0 -25 -6 -25 -15 0 -8 5 -15 10 -15 6 0 10 -4 10
-10 0 -5 -11 -10 -26 -10 -24 0 -25 2 -22 48 3 40 6 47 26 50 12 2 22 -1 22
-7 0 -6 7 -11 16 -11 9 0 14 7 12 18 -4 21 -77 29 -96 10z"/>
<path d="M942 748 l3 -73 43 0 c50 0 62 19 15 23 l-33 3 0 60 c0 46 -3 59 -15
59 -13 0 -15 -13 -13 -72z"/>
<path d="M1050 745 c0 -43 4 -75 10 -75 6 0 10 32 10 75 0 43 -4 75 -10 75 -6
0 -10 -32 -10 -75z"/>
<path d="M1107 813 c-4 -3 -7 -19 -7 -34 0 -30 23 -49 60 -49 13 0 20 -5 18
-12 -6 -16 -48 -23 -48 -9 0 6 -7 11 -15 11 -18 0 -20 -21 -3 -38 14 -14 57
-16 76 -3 8 5 12 22 10 42 -3 30 -7 34 -35 37 -25 2 -33 8 -33 23 0 21 29 26
48 7 15 -15 26 -4 19 17 -6 15 -77 22 -90 8z"/>
<path d="M1230 744 c0 -56 3 -75 13 -72 6 3 13 17 15 31 3 21 9 27 28 27 20 0
24 -5 24 -30 0 -20 5 -30 15 -30 12 0 15 15 15 75 0 60 -3 75 -15 75 -10 0
-15 -10 -15 -30 0 -25 -4 -30 -25 -30 -21 0 -25 5 -25 30 0 20 -5 30 -15 30
-12 0 -15 -15 -15 -76z"/>
</g>
</svg>
