<?xml version="1.0" standalone="no"?>
<!DOCTYPE svg PUBLIC "-//W3C//DTD SVG 20010904//EN"
 "http://www.w3.org/TR/2001/REC-SVG-20010904/DTD/svg10.dtd">
<svg version="1.0" xmlns="http://www.w3.org/2000/svg"
 width="192.000000pt" height="192.000000pt" viewBox="0 0 192.000000 192.000000"
 preserveAspectRatio="xMidYMid meet">
<metadata>
Created by potrace 1.16, written by Peter Selinger 2001-2019
</metadata>
<g transform="translate(0.000000,192.000000) scale(0.100000,-0.100000)"
fill="#000000" stroke="none">
811 c445 -92 729 -532 635 -987 -62 -301 -295 -546 -601 -630 -91 -26 -329
-26 -420 0 -291 80 -516 305 -596 596 -26 91 -26 329 0 420 120 433 542 692
982 601z"/>
<path d="M652 1284 c-47 -23 -92 -73 -92 -103 0 -8 108 -11 395 -11 287 0 395
3 395 11 0 30 -45 80 -92 103 -52 26 -53 26 -303 26 -250 0 -251 0 -303 -26z"/>
<path d="M540 943 c0 -159 9 -200 53 -250 53 -61 67 -63 362 -63 295 0 309 2
362 63 44 50 53 91 53 250 l0 137 -415 0 -415 0 0 -137z m522 26 c37 -96 3
-318 -42 -273 -5 5 0 34 10 64 24 69 24 120 0 190 -10 30 -16 58 -13 63 10 17
28 -1 45 -44z m-61 -36 c16 -48 8 -153 -15 -188 -27 -42 -41 -18 -22 39 20 58
20 83 1 141 -9 25 -13 50 -10 56 10 16 32 -8 46 -48z m-73 -8 c24 -52 7 -165
-25 -165 -12 0 -14 7 -8 33 5 17 8 46 8 62 0 17 -3 45 -8 63 -6 25 -4 32 7 32
8 0 20 -11 26 -25z m-60 -37 c8 -29 1 -82 -12 -96 -3 -2 -12 -2 -21 2 -13 5
-14 10 -4 27 11 21 9 46 -6 82 -5 13 -2 17 14 17 15 0 23 -9 29 -32z"/>
</g>
</svg>
