<?xml version="1.0" standalone="no"?>
<!DOCTYPE svg PUBLIC "-//W3C//DTD SVG 20010904//EN"
 "http://www.w3.org/TR/2001/REC-SVG-20010904/DTD/svg10.dtd">
<svg version="1.0" xmlns="http://www.w3.org/2000/svg"
 width="192.000000pt" height="192.000000pt" viewBox="0 0 192.000000 192.000000"
 preserveAspectRatio="xMidYMid meet">
<metadata>
Created by potrace 1.16, written by Peter Selinger 2001-2019
</metadata>
<g transform="translate(0.000000,192.000000) scale(0.100000,-0.100000)"
fill="#000000" stroke="none">
811 c445 -92 729 -532 635 -987 -62 -301 -295 -546 -601 -630 -91 -26 -329
-26 -420 0 -291 80 -516 305 -596 596 -26 91 -26 329 0 420 120 433 542 692
982 601z"/>
<path d="M674 1351 c-55 -25 -101 -83 -115 -145 -7 -32 -9 -133 -7 -272 l3
-221 30 -49 c20 -31 47 -58 75 -74 44 -24 51 -25 271 -28 256 -4 291 2 349 54
68 62 70 72 70 351 0 242 -1 251 -23 294 -13 24 -43 58 -66 74 l-43 30 -251 3
c-228 2 -256 0 -293 -17z m77 -291 c21 -12 26 -59 9 -76 -8 -8 -7 -19 1 -37
19 -41 5 -75 -35 -82 -18 -4 -46 -5 -62 -3 l-29 3 -3 103 -3 102 51 0 c28 0
60 -5 71 -10z m173 -6 c20 -19 21 -58 1 -74 -13 -11 -13 -14 0 -27 22 -21 18
-60 -7 -77 -13 -9 -43 -16 -70 -16 l-48 0 0 105 0 105 54 0 c36 0 60 -5 70
-16z m87 -57 c9 -38 19 -71 22 -73 2 -3 12 27 22 66 16 64 35 93 52 76 6 -6
-33 -157 -49 -188 -16 -32 -46 -22 -57 20 -6 20 -20 68 -30 105 l-20 68 21 -3
c18 -2 25 -16 39 -71z m243 67 c23 -9 24 -204 1 -204 -10 0 -15 11 -15 35 0
33 -2 35 -35 35 -33 0 -35 -2 -35 -36 0 -28 -3 -35 -17 -32 -26 5 -32 168 -8
192 16 16 79 22 109 10z"/>
<path d="M670 1010 c0 -28 3 -31 28 -28 21 2 27 8 27 28 0 20 -6 26 -27 28
-25 3 -28 0 -28 -28z"/>
<path d="M670 925 c0 -21 5 -25 30 -25 25 0 30 4 30 25 0 21 -5 25 -30 25 -25
0 -30 -4 -30 -25z"/>
<path d="M840 1010 c0 -28 3 -31 28 -28 21 2 27 8 27 28 0 20 -6 26 -27 28
-25 3 -28 0 -28 -28z"/>
<path d="M840 925 c0 -21 5 -25 30 -25 25 0 30 4 30 25 0 21 -5 25 -30 25 -25
0 -30 -4 -30 -25z"/>
<path d="M1177 1034 c-4 -4 -7 -20 -7 -36 0 -25 3 -28 36 -28 34 0 35 1 32 33
-2 26 -8 33 -28 35 -14 2 -29 0 -33 -4z"/>
</g>
</svg>
