<?xml version="1.0" standalone="no"?>
<!DOCTYPE svg PUBLIC "-//W3C//DTD SVG 20010904//EN"
 "http://www.w3.org/TR/2001/REC-SVG-20010904/DTD/svg10.dtd">
<svg version="1.0" xmlns="http://www.w3.org/2000/svg"
 width="192.000000pt" height="192.000000pt" viewBox="0 0 192.000000 192.000000"
 preserveAspectRatio="xMidYMid meet">
<metadata>
Created by potrace 1.16, written by Peter Selinger 2001-2019
</metadata>
<g transform="translate(0.000000,192.000000) scale(0.100000,-0.100000)"
fill="#000000" stroke="none">
811 c445 -92 729 -532 635 -987 -62 -301 -295 -546 -601 -630 -91 -26 -329
-26 -420 0 -291 80 -516 305 -596 596 -26 91 -26 329 0 420 120 433 542 692
982 601z"/>
<path d="M534 1267 c-2 -7 -3 -91 -2 -187 l3 -175 98 0 c96 0 100 1 123 28 31
36 34 112 5 148 -17 22 -17 27 -5 44 30 41 11 124 -33 144 -35 16 -182 15
-189 -2z m152 -84 c9 -34 -7 -58 -37 -58 -21 0 -24 5 -27 43 -3 41 -2 42 27
42 25 0 32 -5 37 -27z m2 -162 c4 -37 -9 -51 -45 -51 -21 0 -23 5 -23 46 0 45
0 45 33 42 28 -3 32 -7 35 -37z"/>
<path d="M880 1273 c-8 -3 -25 -15 -37 -26 -22 -19 -23 -28 -23 -155 l0 -134
29 -29 c28 -28 34 -29 115 -29 l86 0 0 40 0 39 -67 3 -68 3 0 105 0 105 68 3
67 3 0 39 0 40 -77 -1 c-43 0 -85 -3 -93 -6z"/>
<path d="M1165 1270 c-5 -8 -58 -282 -68 -350 -1 -11 9 -15 43 -15 37 0 45 3
48 20 9 63 11 65 50 65 37 0 39 -2 48 -42 9 -42 10 -43 52 -46 31 -2 42 1 42
11 0 11 -47 260 -66 345 -4 20 -10 22 -74 22 -38 0 -72 -4 -75 -10z m82 -152
l10 -58 -27 0 c-26 0 -27 1 -19 48 4 26 8 56 8 67 2 36 19 1 28 -57z"/>
<path d="M540 770 c0 -72 3 -90 15 -90 11 0 15 17 17 72 2 60 6 73 21 76 15 3
17 -6 17 -72 0 -69 2 -76 20 -76 18 0 20 7 20 76 0 66 2 75 18 72 14 -3 18
-16 20 -76 2 -55 6 -72 17 -72 12 0 15 18 15 90 l0 90 -90 0 -90 0 0 -90z"/>
<path d="M762 773 l3 -88 41 -3 c57 -4 66 10 62 100 l-3 73 -53 3 -53 3 3 -88z
m68 2 c0 -48 -2 -55 -20 -55 -18 0 -20 7 -20 55 0 48 2 55 20 55 18 0 20 -7
20 -55z"/>
<path d="M902 773 l3 -88 50 0 50 0 2 88 3 87 -56 0 -55 0 3 -87z m73 37 c0
-8 -8 -16 -17 -18 -13 -2 -18 3 -18 18 0 15 5 20 18 18 9 -2 17 -10 17 -18z
m3 -73 c2 -12 -3 -17 -17 -17 -15 0 -21 6 -21 21 0 25 33 22 38 -4z"/>
<path d="M1050 770 c0 -73 3 -90 15 -90 12 0 15 17 15 90 0 73 -3 90 -15 90
-12 0 -15 -17 -15 -90z"/>
<path d="M1120 770 l0 -90 55 0 c48 0 55 2 55 20 0 16 -7 20 -35 20 l-35 0 0
70 c0 63 -2 70 -20 70 -19 0 -20 -7 -20 -90z"/>
<path d="M1270 770 l0 -90 50 0 c43 0 50 3 50 20 0 16 -7 20 -35 20 -28 0 -35
4 -35 20 0 16 7 20 30 20 20 0 30 5 30 15 0 10 -10 15 -30 15 -23 0 -30 4 -30
20 0 16 7 20 35 20 24 0 35 5 35 15 0 11 -12 15 -50 15 l-50 0 0 -90z"/>
</g>
</svg>
