<?xml version="1.0" standalone="no"?>
<!DOCTYPE svg PUBLIC "-//W3C//DTD SVG 20010904//EN"
 "http://www.w3.org/TR/2001/REC-SVG-20010904/DTD/svg10.dtd">
<svg version="1.0" xmlns="http://www.w3.org/2000/svg"
 width="192.000000pt" height="192.000000pt" viewBox="0 0 192.000000 192.000000"
 preserveAspectRatio="xMidYMid meet">
<metadata>
Created by potrace 1.16, written by Peter Selinger 2001-2019
</metadata>
<g transform="translate(0.000000,192.000000) scale(0.100000,-0.100000)"
fill="#000000" stroke="none">
811 c445 -92 729 -532 635 -987 -62 -301 -295 -546 -601 -630 -91 -26 -329
-26 -420 0 -291 80 -516 305 -596 596 -26 91 -26 329 0 420 120 433 542 692
982 601z"/>
<path d="M547 1163 c-4 -3 -7 -96 -7 -205 l0 -198 114 0 c80 0 117 4 124 13 7
8 11 79 11 192 0 113 -4 184 -11 192 -11 14 -218 19 -231 6z m151 -120 c-2
-22 -9 -29 -30 -31 -25 -3 -28 0 -28 27 0 28 3 31 31 31 27 0 30 -3 27 -27z
m0 -160 c-2 -22 -9 -29 -30 -31 -25 -3 -28 0 -28 27 0 28 3 31 31 31 27 0 30
-3 27 -27z"/>
<path d="M837 1163 c-4 -3 -7 -96 -7 -205 l0 -198 113 0 c75 0 117 4 125 12
17 17 17 369 0 386 -13 13 -219 18 -231 5z m151 -200 l-3 -108 -27 -3 -28 -3
0 110 0 111 30 0 31 0 -3 -107z"/>
<path d="M1136 1154 c-13 -13 -16 -45 -16 -193 0 -124 4 -181 12 -189 8 -8 49
-12 120 -12 96 0 108 2 118 19 6 11 10 90 10 183 0 213 3 208 -130 208 -76 0
-102 -4 -114 -16z m142 -191 l-3 -108 -27 -3 -28 -3 0 110 0 111 30 0 31 0 -3
-107z"/>
</g>
</svg>
