<?xml version="1.0" standalone="no"?>
<!DOCTYPE svg PUBLIC "-//W3C//DTD SVG 20010904//EN"
 "http://www.w3.org/TR/2001/REC-SVG-20010904/DTD/svg10.dtd">
<svg version="1.0" xmlns="http://www.w3.org/2000/svg"
 width="192.000000pt" height="192.000000pt" viewBox="0 0 192.000000 192.000000"
 preserveAspectRatio="xMidYMid meet">
<metadata>
Created by potrace 1.16, written by Peter Selinger 2001-2019
</metadata>
<g transform="translate(0.000000,192.000000) scale(0.100000,-0.100000)"
fill="#000000" stroke="none">
811 c445 -92 729 -532 635 -987 -62 -301 -295 -546 -601 -630 -91 -26 -329
-26 -420 0 -291 80 -516 305 -596 596 -26 91 -26 329 0 420 120 433 542 692
982 601z"/>
<path d="M394 1097 c-2 -7 -3 -69 -2 -138 l3 -124 78 -3 c71 -3 79 -1 102 22
29 29 33 80 9 107 -12 13 -13 22 -5 38 16 30 13 55 -10 85 -19 24 -26 26 -95
26 -52 0 -76 -4 -80 -13z m120 -43 c9 -3 16 -14 16 -24 0 -31 -75 -44 -86 -15
-14 36 23 57 70 39z m24 -131 c4 -26 -27 -46 -66 -41 -22 2 -28 9 -30 36 l-3
33 48 -3 c41 -3 48 -6 51 -25z"/>
<path d="M837 1103 c-10 -9 -8 -246 2 -261 5 -8 17 -12 27 -10 15 2 20 14 22
51 4 61 20 61 67 -3 37 -51 70 -65 81 -35 4 8 -6 31 -20 49 l-26 35 30 30 c18
18 30 40 30 56 0 33 -24 81 -45 89 -22 8 -160 8 -168 -1z m137 -56 c10 -7 17
-22 14 -33 -2 -15 -13 -20 -51 -22 -46 -3 -47 -2 -47 26 0 16 3 32 7 35 11 12
58 8 77 -6z"/>
<path d="M1474 1097 c-2 -7 -3 -71 -2 -143 3 -121 4 -129 23 -129 19 0 20 8
23 143 2 138 2 142 -18 142 -11 0 -23 -6 -26 -13z"/>
<path d="M665 1028 c-31 -17 -35 -28 -35 -99 0 -71 12 -92 60 -104 36 -9 82
11 78 33 -3 12 -12 16 -33 15 -29 -2 -55 11 -55 28 0 5 25 9 55 9 l55 0 0 44
c0 36 -5 48 -26 65 -29 23 -68 27 -99 9z m73 -60 c3 -14 -3 -18 -27 -18 -29 0
-41 17 -24 34 13 13 48 1 51 -16z"/>
<path d="M1096 1019 c-23 -18 -26 -28 -26 -80 0 -74 10 -94 55 -109 27 -9 40
-8 62 2 43 20 36 43 -12 43 -29 0 -40 4 -43 17 -3 14 6 17 50 20 l53 3 -1 44
c-1 33 -7 49 -24 63 -30 24 -81 23 -114 -3z m84 -49 c0 -15 -7 -20 -25 -20
-18 0 -25 5 -25 20 0 15 7 20 25 20 18 0 25 -5 25 -20z"/>
<path d="M1298 1029 c-10 -5 -18 -17 -18 -26 0 -12 7 -14 33 -11 39 6 57 1 57
-17 0 -9 -14 -15 -37 -17 -51 -4 -81 -44 -64 -86 19 -46 77 -65 124 -41 33 18
37 28 37 97 0 54 -4 67 -25 87 -26 27 -75 33 -107 14z m70 -136 c-4 -32 -20
-39 -42 -17 -20 19 -5 44 26 44 15 0 19 -6 16 -27z"/>
</g>
</svg>
