<?xml version="1.0" standalone="no"?>
<!DOCTYPE svg PUBLIC "-//W3C//DTD SVG 20010904//EN"
 "http://www.w3.org/TR/2001/REC-SVG-20010904/DTD/svg10.dtd">
<svg version="1.0" xmlns="http://www.w3.org/2000/svg"
 width="192.000000pt" height="192.000000pt" viewBox="0 0 192.000000 192.000000"
 preserveAspectRatio="xMidYMid meet">
<metadata>
Created by potrace 1.16, written by Peter Selinger 2001-2019
</metadata>
<g transform="translate(0.000000,192.000000) scale(0.100000,-0.100000)"
fill="#000000" stroke="none">
811 c445 -92 729 -532 635 -987 -62 -301 -295 -546 -601 -630 -91 -26 -329
-26 -420 0 -291 80 -516 305 -596 596 -26 91 -26 329 0 420 120 433 542 692
982 601z"/>
<path d="M800 1252 l0 -89 49 24 c120 60 267 10 326 -111 70 -143 -2 -308
-154 -353 -124 -36 -246 25 -302 152 -20 44 -23 73 -28 249 l-6 199 -34 -29
c-65 -54 -71 -82 -71 -329 0 -245 7 -275 69 -328 53 -44 88 -49 328 -45 l221
3 43 30 c79 56 84 77 84 340 0 263 -5 284 -84 340 l-43 30 -199 3 -199 4 0
-90z"/>
<path d="M923 1109 c-51 -10 -83 -37 -105 -86 -27 -62 -17 -116 31 -164 50
-51 104 -59 169 -27 158 78 77 314 -95 277z"/>
</g>
</svg>
