<?xml version="1.0" standalone="no"?>
<!DOCTYPE svg PUBLIC "-//W3C//DTD SVG 20010904//EN"
 "http://www.w3.org/TR/2001/REC-SVG-20010904/DTD/svg10.dtd">
<svg version="1.0" xmlns="http://www.w3.org/2000/svg"
 width="192.000000pt" height="192.000000pt" viewBox="0 0 192.000000 192.000000"
 preserveAspectRatio="xMidYMid meet">
<metadata>
Created by potrace 1.16, written by Peter Selinger 2001-2019
</metadata>
<g transform="translate(0.000000,192.000000) scale(0.100000,-0.100000)"
fill="#000000" stroke="none">
811 c445 -92 729 -532 635 -987 -62 -301 -295 -546 -601 -630 -91 -26 -329
-26 -420 0 -291 80 -516 305 -596 596 -26 91 -26 329 0 420 120 433 542 692
982 601z"/>
<path d="M791 1296 c-13 -7 -36 -31 -51 -52 -23 -35 -32 -40 -75 -44 -116 -13
-125 -33 -125 -287 0 -218 4 -233 59 -270 34 -23 37 -23 353 -23 445 0 418
-19 418 301 l0 211 -34 34 c-29 29 -41 34 -80 34 -31 0 -51 6 -61 18 -8 9 -28
33 -44 52 l-29 35 -154 3 c-115 1 -159 -1 -177 -12z m224 -172 c14 -6 13 -9
-6 -30 -16 -17 -33 -24 -59 -24 -71 0 -140 -72 -140 -146 0 -35 32 -88 71
-116 33 -25 103 -27 147 -4 37 19 72 70 72 104 0 26 35 82 52 82 6 0 9 -25 6
-69 -4 -77 -28 -122 -84 -160 -144 -99 -338 16 -322 190 10 99 99 179 199 179
26 0 55 -3 64 -6z m125 -84 c0 -3 -15 -22 -33 -43 l-32 -39 -33 41 -33 41 33
40 33 40 32 -37 c18 -21 33 -40 33 -43z"/>
</g>
</svg>
