<?xml version="1.0" standalone="no"?>
<!DOCTYPE svg PUBLIC "-//W3C//DTD SVG 20010904//EN"
 "http://www.w3.org/TR/2001/REC-SVG-20010904/DTD/svg10.dtd">
<svg version="1.0" xmlns="http://www.w3.org/2000/svg"
 width="192.000000pt" height="192.000000pt" viewBox="0 0 192.000000 192.000000"
 preserveAspectRatio="xMidYMid meet">
<metadata>
Created by potrace 1.16, written by Peter Selinger 2001-2019
</metadata>
<g transform="translate(0.000000,192.000000) scale(0.100000,-0.100000)"
fill="#000000" stroke="none">
811 c445 -92 729 -532 635 -987 -62 -301 -295 -546 -601 -630 -91 -26 -329
-26 -420 0 -291 80 -516 305 -596 596 -26 91 -26 329 0 420 120 433 542 692
982 601z"/>
<path d="M695 1323 c-44 -23 -74 -53 -96 -95 -17 -33 -19 -61 -19 -260 0 -212
1 -226 23 -268 13 -26 40 -57 65 -75 l44 -30 243 0 243 0 44 30 c25 18 53 49
66 75 22 44 23 52 20 282 l-3 236 -31 39 c-17 21 -48 48 -70 60 -37 22 -49 23
-269 22 -190 0 -235 -3 -260 -16z m145 -135 c-1 -81 -4 -98 -25 -133 -34 -55
-34 -129 0 -179 22 -33 25 -47 25 -131 l0 -95 -35 0 -35 0 0 315 0 315 35 0
35 0 0 -92z m150 19 l0 -73 -35 0 -35 0 0 73 0 73 35 0 35 0 0 -73z m150 -242
l0 -315 -35 0 -35 0 0 95 c0 84 3 98 25 131 34 50 34 124 0 179 -21 35 -24 52
-25 133 l0 92 35 0 35 0 0 -315z m-452 -137 l-3 -143 -20 30 c-18 26 -20 48
-23 245 -2 209 -2 216 20 250 l23 35 3 -137 c1 -75 1 -201 0 -280z m562 380
c18 -30 20 -51 20 -236 0 -151 -4 -211 -14 -236 -32 -77 -36 -54 -36 228 0
152 2 276 5 276 3 0 14 -15 25 -32z m-251 -163 c82 -42 50 -165 -44 -168 -30
-1 -43 5 -66 31 -43 48 -33 108 22 138 31 17 54 17 88 -1z m-9 -320 l0 -75
-35 0 -35 0 0 75 0 75 35 0 35 0 0 -75z"/>
<path d="M924 986 c-12 -31 0 -51 31 -51 27 0 30 3 30 30 0 25 -4 30 -28 33
-17 2 -29 -2 -33 -12z"/>
</g>
</svg>
