<?xml version="1.0" standalone="no"?>
<!DOCTYPE svg PUBLIC "-//W3C//DTD SVG 20010904//EN"
 "http://www.w3.org/TR/2001/REC-SVG-20010904/DTD/svg10.dtd">
<svg version="1.0" xmlns="http://www.w3.org/2000/svg"
 width="192.000000pt" height="192.000000pt" viewBox="0 0 192.000000 192.000000"
 preserveAspectRatio="xMidYMid meet">
<metadata>
Created by potrace 1.16, written by Peter Selinger 2001-2019
</metadata>
<g transform="translate(0.000000,192.000000) scale(0.100000,-0.100000)"
fill="#000000" stroke="none">
811 c445 -92 729 -532 635 -987 -62 -301 -295 -546 -601 -630 -91 -26 -329
-26 -420 0 -291 80 -516 305 -596 596 -26 91 -26 329 0 420 120 433 542 692
982 601z"/>
<path d="M563 1328 c-14 -17 -22 -331 -11 -383 12 -53 50 -100 100 -126 59
-30 152 -24 201 14 l35 27 11 -31 c10 -29 12 -30 62 -27 l52 3 30 90 30 89 31
-89 31 -90 54 0 54 0 58 150 c32 83 59 159 59 170 0 29 -19 45 -51 45 -37 0
-60 -31 -89 -124 -13 -42 -27 -76 -30 -76 -4 0 -17 35 -29 78 -29 99 -44 122
-79 122 -45 0 -60 -19 -91 -120 -16 -53 -32 -88 -35 -80 -3 8 -13 35 -21 60
-24 70 -60 116 -107 139 -47 22 -110 27 -152 11 l-25 -9 -3 82 -3 82 -36 3
c-21 2 -40 -2 -46 -10z m218 -248 c28 -16 51 -67 44 -100 -8 -37 -34 -60 -77
-66 -46 -8 -86 26 -95 78 -5 32 -1 41 25 68 32 31 68 38 103 20z"/>
</g>
</svg>
