<?xml version="1.0" standalone="no"?>
<!DOCTYPE svg PUBLIC "-//W3C//DTD SVG 20010904//EN"
 "http://www.w3.org/TR/2001/REC-SVG-20010904/DTD/svg10.dtd">
<svg version="1.0" xmlns="http://www.w3.org/2000/svg"
 width="192.000000pt" height="192.000000pt" viewBox="0 0 192.000000 192.000000"
 preserveAspectRatio="xMidYMid meet">
<metadata>
Created by potrace 1.16, written by Peter Selinger 2001-2019
</metadata>
<g transform="translate(0.000000,192.000000) scale(0.100000,-0.100000)"
fill="#000000" stroke="none">
811 c445 -92 729 -532 635 -987 -62 -301 -295 -546 -601 -630 -91 -26 -329
-26 -420 0 -291 80 -516 305 -596 596 -26 91 -26 329 0 420 120 433 542 692
982 601z"/>
<path d="M753 1359 c-17 -17 -18 -579 -2 -644 45 -178 295 -210 386 -50 43 76
25 192 -39 252 -54 50 -167 69 -227 38 -16 -8 -31 -11 -35 -8 -3 4 -6 76 -6
160 0 142 1 154 18 151 26 -5 52 -66 52 -123 0 -55 12 -75 45 -75 35 0 45 20
45 87 0 56 3 66 30 95 l29 33 1 -121 c0 -104 3 -123 18 -137 10 -10 26 -17 34
-17 34 0 39 24 36 196 l-3 169 -34 3 c-40 4 -112 -21 -136 -48 -16 -18 -18
-18 -60 12 -49 35 -131 49 -152 27z m258 -538 c38 -38 38 -74 0 -112 -31 -31
-55 -36 -94 -18 -42 19 -61 86 -34 120 36 46 88 50 128 10z"/>
</g>
</svg>
