<?xml version="1.0" standalone="no"?>
<!DOCTYPE svg PUBLIC "-//W3C//DTD SVG 20010904//EN"
 "http://www.w3.org/TR/2001/REC-SVG-20010904/DTD/svg10.dtd">
<svg version="1.0" xmlns="http://www.w3.org/2000/svg"
 width="192.000000pt" height="192.000000pt" viewBox="0 0 192.000000 192.000000"
 preserveAspectRatio="xMidYMid meet">
<metadata>
Created by potrace 1.16, written by Peter Selinger 2001-2019
</metadata>
<g transform="translate(0.000000,192.000000) scale(0.100000,-0.100000)"
fill="#000000" stroke="none">
811 c445 -92 729 -532 635 -987 -62 -301 -295 -546 -601 -630 -91 -26 -329
-26 -420 0 -291 80 -516 305 -596 596 -26 91 -26 329 0 420 120 433 542 692
982 601z"/>
<path d="M547 1163 c-13 -12 -8 -368 5 -381 8 -8 57 -12 155 -12 159 0 195 9
232 56 19 24 22 37 17 79 -8 65 -8 81 0 131 4 29 1 51 -10 73 -28 54 -57 61
-234 61 -87 0 -162 -3 -165 -7z m321 -110 l-3 -28 -122 -3 -123 -3 0 31 0 30
126 0 125 0 -3 -27z m1 -137 c9 -11 10 -20 1 -35 -10 -19 -20 -21 -130 -21
l-120 0 0 35 0 35 119 0 c91 0 121 -3 130 -14z"/>
<path d="M1002 1158 c-8 -8 -12 -57 -12 -152 0 -124 3 -145 20 -174 32 -52 74
-64 207 -60 l115 3 29 33 c27 30 29 38 29 110 -1 124 -25 142 -194 142 l-116
0 0 39 c0 58 -45 92 -78 59z m297 -192 c7 -8 11 -34 9 -58 l-3 -43 -110 0
-110 0 -3 45 c-5 61 10 70 119 70 63 0 90 -4 98 -14z"/>
</g>
</svg>
