<?xml version="1.0" standalone="no"?>
<!DOCTYPE svg PUBLIC "-//W3C//DTD SVG 20010904//EN"
 "http://www.w3.org/TR/2001/REC-SVG-20010904/DTD/svg10.dtd">
<svg version="1.0" xmlns="http://www.w3.org/2000/svg"
 width="192.000000pt" height="192.000000pt" viewBox="0 0 192.000000 192.000000"
 preserveAspectRatio="xMidYMid meet">
<metadata>
Created by potrace 1.16, written by Peter Selinger 2001-2019
</metadata>
<g transform="translate(0.000000,192.000000) scale(0.100000,-0.100000)"
fill="#000000" stroke="none">
811 c445 -92 729 -532 635 -987 -62 -301 -295 -546 -601 -630 -91 -26 -329
-26 -420 0 -291 80 -516 305 -596 596 -26 91 -26 329 0 420 120 433 542 692
982 601z"/>
<path d="M712 1358 c-20 -20 -14 -42 22 -78 34 -32 35 -34 20 -63 -9 -16 -18
-55 -21 -86 -5 -54 -8 -59 -88 -141 -115 -119 -133 -160 -101 -233 28 -66 94
-101 164 -86 25 5 35 3 42 -11 13 -25 162 -100 199 -100 36 0 177 68 204 98
15 16 24 19 48 12 60 -18 131 20 160 86 33 74 21 104 -86 214 -91 94 -92 96
-99 155 -4 32 -13 73 -22 89 -14 29 -13 31 21 66 38 39 43 61 20 80 -19 16
-45 6 -79 -29 l-28 -30 -37 20 c-48 25 -143 26 -193 0 l-37 -18 -32 33 c-35
36 -57 42 -77 22z m306 -108 c58 -26 81 -78 82 -177 l0 -73 -145 0 -145 0 0
75 c0 88 16 134 56 162 52 37 92 40 152 13z m-305 -497 c-24 -18 -46 -16 -77
8 -44 34 -36 70 32 141 l57 60 3 -98 c2 -84 0 -101 -15 -111z m584 69 c12 -49
-51 -97 -96 -72 -19 10 -21 20 -21 108 l0 96 55 -54 c31 -30 58 -65 62 -78z
m-197 63 l0 -35 -145 0 -145 0 0 35 0 35 145 0 145 0 0 -35z m-2 -147 c-3 -30
-10 -37 -72 -69 l-70 -37 -73 36 c-68 34 -73 38 -73 69 l0 33 146 0 145 0 -3
-32z"/>
</g>
</svg>
