<?xml version="1.0" standalone="no"?>
<!DOCTYPE svg PUBLIC "-//W3C//DTD SVG 20010904//EN"
 "http://www.w3.org/TR/2001/REC-SVG-20010904/DTD/svg10.dtd">
<svg version="1.0" xmlns="http://www.w3.org/2000/svg"
 width="192.000000pt" height="192.000000pt" viewBox="0 0 192.000000 192.000000"
 preserveAspectRatio="xMidYMid meet">
<metadata>
Created by potrace 1.16, written by Peter Selinger 2001-2019
</metadata>
<g transform="translate(0.000000,192.000000) scale(0.100000,-0.100000)"
fill="#000000" stroke="none">
811 c445 -92 729 -532 635 -987 -62 -301 -295 -546 -601 -630 -91 -26 -329
-26 -420 0 -291 80 -516 305 -596 596 -26 91 -26 329 0 420 120 433 542 692
982 601z"/>
<path d="M710 1355 c-16 -19 -6 -45 30 -80 28 -27 29 -29 14 -58 -9 -16 -18
-55 -21 -86 -6 -55 -8 -58 -99 -152 -102 -106 -116 -138 -95 -209 20 -68 97
-111 170 -97 21 5 34 1 47 -15 22 -24 169 -98 196 -98 27 0 198 88 205 106 4
11 14 13 39 8 80 -15 153 29 174 104 17 65 -2 104 -100 206 -83 86 -88 94 -95
146 -4 30 -13 69 -20 86 -13 30 -12 33 21 65 25 24 34 41 32 59 -5 40 -46 38
-87 -4 l-33 -34 -36 21 c-47 28 -132 29 -190 3 l-43 -19 -32 31 c-36 35 -58
40 -77 17z m321 -108 c51 -34 69 -78 69 -169 l0 -78 -145 0 -145 0 0 83 c0 64
4 89 20 115 43 70 135 93 201 49z m-313 -489 c-22 -13 -70 -9 -90 9 -35 31
-23 72 40 136 l57 58 3 -97 c2 -71 -1 -100 -10 -106z m582 60 c0 -13 -7 -34
-16 -46 -13 -19 -24 -22 -57 -20 l-42 3 -3 105 -2 105 60 -62 c39 -40 60 -69
60 -85z m-200 67 l0 -35 -145 0 -145 0 0 35 0 35 145 0 145 0 0 -35z m0 -145
c0 -28 -7 -33 -75 -67 l-76 -38 -67 35 c-60 31 -67 39 -70 68 l-3 32 145 0
146 0 0 -30z"/>
</g>
</svg>
