<?xml version="1.0" standalone="no"?>
<!DOCTYPE svg PUBLIC "-//W3C//DTD SVG 20010904//EN"
 "http://www.w3.org/TR/2001/REC-SVG-20010904/DTD/svg10.dtd">
<svg version="1.0" xmlns="http://www.w3.org/2000/svg"
 width="192.000000pt" height="192.000000pt" viewBox="0 0 192.000000 192.000000"
 preserveAspectRatio="xMidYMid meet">
<metadata>
Created by potrace 1.16, written by Peter Selinger 2001-2019
</metadata>
<g transform="translate(0.000000,192.000000) scale(0.100000,-0.100000)"
fill="#000000" stroke="none">
811 c445 -92 729 -532 635 -987 -62 -301 -295 -546 -601 -630 -91 -26 -329
-26 -420 0 -291 80 -516 305 -596 596 -26 91 -26 329 0 420 120 433 542 692
982 601z"/>
<path d="M712 1358 c-20 -20 -14 -42 22 -78 34 -32 35 -34 20 -63 -9 -16 -18
-55 -21 -86 -6 -54 -9 -59 -94 -148 -101 -106 -120 -147 -100 -212 6 -22 27
-53 47 -71 33 -29 41 -31 96 -29 45 2 64 -1 72 -13 17 -23 171 -98 201 -98 33
0 181 75 196 98 9 15 21 18 64 14 81 -7 132 28 155 107 16 57 -5 98 -106 202
-94 97 -94 97 -94 149 0 28 -7 65 -16 82 -16 30 -15 31 20 67 39 40 45 61 21
81 -19 16 -45 6 -80 -30 l-28 -29 -38 20 c-50 25 -142 26 -190 1 l-36 -18 -36
33 c-39 35 -56 40 -75 21z m308 -110 c61 -32 80 -72 80 -170 l0 -78 -145 0
-145 0 0 84 c0 96 20 138 80 168 46 24 77 23 130 -4z m-307 -495 c-42 -31
-103 3 -103 58 0 23 13 45 58 91 l57 60 3 -98 c2 -84 0 -101 -15 -111z m531
145 c62 -70 69 -96 31 -133 -28 -29 -51 -31 -83 -9 -20 14 -22 23 -22 110 0
52 4 94 9 94 5 0 34 -28 65 -62z m-144 -13 l0 -35 -145 0 -145 0 0 35 0 35
145 0 145 0 0 -35z m-2 -147 c-3 -30 -10 -37 -72 -69 l-70 -37 -73 36 c-68 34
-73 38 -73 69 l0 33 146 0 145 0 -3 -32z"/>
</g>
</svg>
