<?xml version="1.0" standalone="no"?>
<!DOCTYPE svg PUBLIC "-//W3C//DTD SVG 20010904//EN"
 "http://www.w3.org/TR/2001/REC-SVG-20010904/DTD/svg10.dtd">
<svg version="1.0" xmlns="http://www.w3.org/2000/svg"
 width="192.000000pt" height="192.000000pt" viewBox="0 0 192.000000 192.000000"
 preserveAspectRatio="xMidYMid meet">
<metadata>
Created by potrace 1.16, written by Peter Selinger 2001-2019
</metadata>
<g transform="translate(0.000000,192.000000) scale(0.100000,-0.100000)"
fill="#000000" stroke="none">
811 c445 -92 729 -532 635 -987 -62 -301 -295 -546 -601 -630 -91 -26 -329
-26 -420 0 -291 80 -516 305 -596 596 -26 91 -26 329 0 420 120 433 542 692
982 601z"/>
<path d="M712 1358 c-20 -20 -14 -42 22 -78 34 -32 35 -34 20 -63 -9 -16 -18
-55 -21 -86 -6 -54 -8 -59 -94 -147 -100 -105 -120 -147 -100 -213 6 -22 27
-53 47 -71 33 -29 41 -31 97 -29 41 2 62 -1 65 -10 6 -17 177 -101 207 -101
33 0 181 74 196 98 9 15 22 17 68 15 104 -7 159 54 153 171 -2 22 -25 52 -96
125 -92 95 -94 97 -101 156 -4 33 -14 73 -22 89 -14 27 -14 30 21 65 39 40 45
61 21 81 -19 16 -45 6 -80 -30 l-28 -29 -38 20 c-50 25 -142 26 -191 0 l-37
-18 -32 33 c-35 36 -57 42 -77 22z m305 -107 c59 -27 83 -77 83 -176 l0 -75
-145 0 -145 0 0 84 c0 96 20 138 80 168 45 23 75 22 127 -1z m-287 -391 c0
-91 -2 -100 -21 -110 -44 -24 -99 11 -99 61 0 23 14 45 57 90 31 32 58 59 60
59 1 0 3 -45 3 -100z m570 -50 c0 -25 -42 -70 -65 -70 -9 0 -25 5 -36 10 -17
10 -19 22 -19 110 l0 99 60 -64 c33 -36 60 -74 60 -85z m-200 75 l0 -35 -145
0 -145 0 0 35 0 35 145 0 145 0 0 -35z m-2 -147 c-3 -30 -10 -37 -72 -69 l-70
-37 -73 36 c-68 34 -73 38 -73 69 l0 33 146 0 145 0 -3 -32z"/>
</g>
</svg>
