<?xml version="1.0" standalone="no"?>
<!DOCTYPE svg PUBLIC "-//W3C//DTD SVG 20010904//EN"
 "http://www.w3.org/TR/2001/REC-SVG-20010904/DTD/svg10.dtd">
<svg version="1.0" xmlns="http://www.w3.org/2000/svg"
 width="192.000000pt" height="192.000000pt" viewBox="0 0 192.000000 192.000000"
 preserveAspectRatio="xMidYMid meet">
<metadata>
Created by potrace 1.16, written by Peter Selinger 2001-2019
</metadata>
<g transform="translate(0.000000,192.000000) scale(0.100000,-0.100000)"
fill="#000000" stroke="none">
811 c445 -92 729 -532 635 -987 -62 -301 -295 -546 -601 -630 -91 -26 -329
-26 -420 0 -291 80 -516 305 -596 596 -26 91 -26 329 0 420 120 433 542 692
982 601z"/>
<path d="M740 1351 c-13 -25 -13 -27 6 -45 8 -9 28 -16 43 -16 16 0 40 -11 55
-25 l26 -25 -39 -39 c-21 -21 -44 -55 -51 -76 -26 -79 13 -170 91 -214 l40
-23 -26 -43 c-14 -24 -25 -46 -25 -49 0 -3 45 -6 100 -6 l101 0 -26 37 c-33
50 -32 66 10 86 46 22 87 86 93 145 5 57 -20 115 -67 155 l-31 25 31 26 c17
14 41 26 54 26 42 0 69 42 43 68 -30 30 -131 -7 -174 -64 -15 -19 -31 -34 -38
-34 -6 0 -24 16 -40 36 -50 63 -154 95 -176 55z"/>
<path d="M674 1028 c-55 -37 -110 -112 -120 -164 -28 -152 150 -184 275 -49
23 25 41 51 41 58 0 7 -16 21 -35 30 -39 18 -70 62 -86 120 -5 20 -14 37 -18
37 -5 0 -31 -15 -57 -32z"/>
<path d="M1161 1023 c-16 -58 -47 -102 -86 -120 -19 -9 -35 -23 -35 -30 0 -23
79 -101 124 -123 60 -29 130 -27 161 4 48 48 45 114 -8 193 -28 42 -114 113
-138 113 -4 0 -13 -17 -18 -37z"/>
<path d="M822 738 l3 -33 129 0 130 0 7 27 c4 15 4 29 1 32 -3 3 -66 6 -139 6
l-134 0 3 -32z"/>
<path d="M840 675 c0 -16 33 -66 52 -79 29 -20 97 -20 126 0 19 13 52 63 52
79 0 3 -52 5 -115 5 -63 0 -115 -2 -115 -5z"/>
</g>
</svg>
