<?xml version="1.0" standalone="no"?>
<!DOCTYPE svg PUBLIC "-//W3C//DTD SVG 20010904//EN"
 "http://www.w3.org/TR/2001/REC-SVG-20010904/DTD/svg10.dtd">
<svg version="1.0" xmlns="http://www.w3.org/2000/svg"
 width="192.000000pt" height="192.000000pt" viewBox="0 0 192.000000 192.000000"
 preserveAspectRatio="xMidYMid meet">
<metadata>
Created by potrace 1.16, written by Peter Selinger 2001-2019
</metadata>
<g transform="translate(0.000000,192.000000) scale(0.100000,-0.100000)"
fill="#000000" stroke="none">
811 c445 -92 729 -532 635 -987 -62 -301 -295 -546 -601 -630 -91 -26 -329
-26 -420 0 -291 80 -516 305 -596 596 -26 91 -26 329 0 420 120 433 542 692
982 601z"/>
<path d="M710 1355 c-16 -19 -6 -45 30 -80 28 -26 28 -29 14 -56 -8 -16 -17
-57 -20 -91 l-7 -63 -92 -95 c-72 -74 -95 -104 -100 -132 -9 -48 8 -97 46
-134 27 -25 38 -29 96 -31 49 -1 70 -6 87 -21 32 -30 162 -92 191 -92 33 0
181 75 196 98 9 15 21 18 64 14 92 -8 155 47 155 136 0 59 -16 84 -114 182
l-86 85 0 53 c0 29 -7 67 -16 84 -16 30 -15 31 21 68 39 40 42 65 13 84 -14 9
-25 4 -56 -27 l-38 -38 -45 20 c-57 26 -142 27 -190 3 l-36 -18 -36 33 c-40
36 -58 41 -77 18z m328 -113 c45 -32 62 -78 62 -166 l0 -76 -145 0 -145 0 0
84 c0 70 4 88 23 117 46 69 139 87 205 41z m-325 -489 c-43 -32 -103 2 -103
58 0 24 13 44 58 91 l57 60 3 -98 c2 -84 0 -101 -15 -111z m531 146 c65 -70
73 -104 30 -138 -32 -25 -52 -26 -82 -5 -20 14 -22 23 -22 110 0 52 4 94 9 94
5 0 34 -27 65 -61z m-144 -14 l0 -35 -145 0 -145 0 0 35 0 35 145 0 145 0 0
-35z m0 -148 c0 -31 -4 -35 -75 -70 l-75 -37 -70 35 c-67 34 -70 37 -70 70 l0
35 145 0 145 0 0 -33z"/>
</g>
</svg>
