<?xml version="1.0" standalone="no"?>
<!DOCTYPE svg PUBLIC "-//W3C//DTD SVG 20010904//EN"
 "http://www.w3.org/TR/2001/REC-SVG-20010904/DTD/svg10.dtd">
<svg version="1.0" xmlns="http://www.w3.org/2000/svg"
 width="192.000000pt" height="192.000000pt" viewBox="0 0 192.000000 192.000000"
 preserveAspectRatio="xMidYMid meet">
<metadata>
Created by potrace 1.16, written by Peter Selinger 2001-2019
</metadata>
<g transform="translate(0.000000,192.000000) scale(0.100000,-0.100000)"
fill="#000000" stroke="none">
811 c445 -92 729 -532 635 -987 -62 -301 -295 -546 -601 -630 -91 -26 -329
-26 -420 0 -291 80 -516 305 -596 596 -26 91 -26 329 0 420 120 433 542 692
982 601z"/>
<path d="M707 1373 c-16 -16 -4 -52 27 -82 l34 -33 -19 -42 c-10 -22 -19 -64
-19 -91 0 -50 -1 -51 -86 -135 -100 -99 -114 -122 -114 -186 0 -92 67 -151
162 -142 39 4 51 2 58 -12 15 -28 163 -100 205 -100 42 0 190 72 205 100 7 14
19 16 61 12 94 -9 159 49 159 142 0 64 -14 87 -114 186 -83 82 -86 86 -86 130
0 26 -7 68 -16 94 l-16 48 38 39 c32 32 37 43 28 57 -19 29 -47 25 -83 -12
l-33 -34 -42 21 c-53 28 -145 30 -199 3 l-38 -19 -33 32 c-30 29 -64 40 -79
24z m311 -107 c15 -8 38 -26 52 -41 23 -24 25 -36 28 -126 l4 -99 -146 0 -146
0 0 88 c0 69 4 94 20 120 39 64 125 91 188 58z m-302 -514 c-23 -23 -76 -19
-98 7 -32 40 -23 67 45 138 l62 65 3 -98 c2 -76 -1 -101 -12 -112z m594 55 c0
-38 -32 -70 -68 -70 -55 0 -62 14 -62 127 l0 101 65 -66 c45 -46 65 -75 65
-92z m-210 -79 c0 -30 -6 -36 -71 -72 l-71 -38 -74 38 c-69 36 -74 41 -74 72
l0 32 145 0 145 0 0 -32z"/>
</g>
</svg>
