<?xml version="1.0" standalone="no"?>
<!DOCTYPE svg PUBLIC "-//W3C//DTD SVG 20010904//EN"
 "http://www.w3.org/TR/2001/REC-SVG-20010904/DTD/svg10.dtd">
<svg version="1.0" xmlns="http://www.w3.org/2000/svg"
 width="192.000000pt" height="192.000000pt" viewBox="0 0 192.000000 192.000000"
 preserveAspectRatio="xMidYMid meet">
<metadata>
Created by potrace 1.16, written by Peter Selinger 2001-2019
</metadata>
<g transform="translate(0.000000,192.000000) scale(0.100000,-0.100000)"
fill="#000000" stroke="none">
811 c445 -92 729 -532 635 -987 -62 -301 -295 -546 -601 -630 -91 -26 -329
-26 -420 0 -291 80 -516 305 -596 596 -26 91 -26 329 0 420 120 433 542 692
982 601z"/>
<path d="M707 1373 c-16 -16 -4 -52 27 -82 33 -32 33 -33 18 -64 -9 -18 -18
-59 -20 -92 l-4 -60 -98 -100 c-112 -115 -125 -143 -95 -220 24 -65 64 -90
144 -90 43 -1 66 -5 69 -13 6 -18 177 -102 207 -102 30 0 201 84 207 102 3 8
26 12 69 13 80 0 120 25 144 90 30 77 17 105 -96 220 -96 98 -99 102 -99 147
0 25 -7 65 -15 88 l-15 43 35 38 c37 42 42 58 23 77 -20 20 -42 14 -77 -22
l-34 -35 -41 21 c-54 28 -138 29 -194 4 l-43 -19 -32 31 c-31 30 -65 41 -80
25z m323 -115 c61 -42 73 -69 78 -168 l4 -90 -157 0 -157 0 4 90 c3 70 9 96
25 118 33 45 81 72 128 72 27 0 54 -8 75 -22z m-300 -397 c0 -110 -7 -124 -62
-124 -38 0 -68 33 -68 75 0 22 14 44 57 89 31 32 60 59 65 59 4 0 8 -44 8 -99z
m523 40 c47 -49 57 -66 57 -94 0 -41 -28 -70 -70 -70 -53 0 -60 15 -60 124 0
55 4 99 8 99 5 0 34 -27 65 -59z m-145 -18 l-3 -38 -150 0 -150 0 -3 38 -3 37
156 0 156 0 -3 -37z m0 -150 c3 -31 0 -34 -75 -71 l-78 -40 -73 37 c-73 36
-92 60 -78 96 5 13 28 15 153 13 l148 -3 3 -32z"/>
</g>
</svg>
