<?xml version="1.0" standalone="no"?>
<!DOCTYPE svg PUBLIC "-//W3C//DTD SVG 20010904//EN"
 "http://www.w3.org/TR/2001/REC-SVG-20010904/DTD/svg10.dtd">
<svg version="1.0" xmlns="http://www.w3.org/2000/svg"
 width="192.000000pt" height="192.000000pt" viewBox="0 0 192.000000 192.000000"
 preserveAspectRatio="xMidYMid meet">
<metadata>
Created by potrace 1.16, written by Peter Selinger 2001-2019
</metadata>
<g transform="translate(0.000000,192.000000) scale(0.100000,-0.100000)"
fill="#000000" stroke="none">
811 c445 -92 729 -532 635 -987 -62 -301 -295 -546 -601 -630 -91 -26 -329
-26 -420 0 -291 80 -516 305 -596 596 -26 91 -26 329 0 420 120 433 542 692
982 601z"/>
<path d="M840 1352 c0 -10 7 -27 15 -40 14 -19 14 -24 -1 -47 -19 -29 -21 -83
-5 -114 12 -21 11 -21 -91 -21 -87 0 -108 -3 -138 -21 -44 -27 -57 -44 -70
-91 -22 -79 34 -168 115 -184 70 -13 113 15 205 131 46 58 84 105 85 105 1 0
39 -47 85 -105 92 -116 135 -144 205 -131 81 16 137 105 115 184 -13 47 -26
64 -70 91 -29 18 -51 21 -134 21 -89 0 -98 2 -91 18 17 45 16 73 -3 110 -17
33 -18 41 -6 57 8 10 14 27 14 37 0 26 -34 22 -49 -6 -11 -20 -21 -23 -66 -24
-46 0 -54 3 -65 24 -16 28 -50 33 -50 6z"/>
<path d="M897 962 c-37 -41 -17 -62 58 -62 55 0 75 8 75 30 0 46 -99 70 -133
32z"/>
<path d="M812 857 c-42 -44 -33 -47 143 -47 178 0 189 4 142 48 -21 20 -34 22
-143 22 -113 0 -122 -1 -142 -23z"/>
<path d="M805 769 c-4 -5 -4 -21 -1 -35 l6 -24 145 0 145 0 6 24 c3 14 3 30
-1 35 -4 7 -60 11 -150 11 -90 0 -146 -4 -150 -11z"/>
<path d="M843 664 c-9 -24 77 -104 112 -104 35 0 121 80 112 104 -5 13 -23 16
-112 16 -89 0 -107 -3 -112 -16z"/>
</g>
</svg>
