<?xml version="1.0" standalone="no"?>
<!DOCTYPE svg PUBLIC "-//W3C//DTD SVG 20010904//EN"
 "http://www.w3.org/TR/2001/REC-SVG-20010904/DTD/svg10.dtd">
<svg version="1.0" xmlns="http://www.w3.org/2000/svg"
 width="192.000000pt" height="192.000000pt" viewBox="0 0 192.000000 192.000000"
 preserveAspectRatio="xMidYMid meet">
<metadata>
Created by potrace 1.16, written by Peter Selinger 2001-2019
</metadata>
<g transform="translate(0.000000,192.000000) scale(0.100000,-0.100000)"
fill="#000000" stroke="none">
811 c445 -92 729 -532 635 -987 -62 -301 -295 -546 -601 -630 -91 -26 -329
-26 -420 0 -291 80 -516 305 -596 596 -26 91 -26 329 0 420 120 433 542 692
982 601z"/>
<path d="M522 1248 c-17 -17 -17 -539 0 -556 8 -8 57 -12 158 -12 120 0 152 4
186 19 101 46 121 178 38 251 l-36 31 25 23 c32 29 51 88 42 132 -8 46 -58
101 -103 114 -53 14 -295 13 -310 -2z m280 -105 c18 -16 24 -68 10 -89 -15
-23 -53 -34 -116 -34 l-66 0 0 70 0 70 77 0 c57 0 81 -4 95 -17z m-13 -224
c53 -19 69 -81 31 -119 -17 -17 -33 -20 -105 -20 l-85 0 0 75 0 75 64 0 c34 0
77 -5 95 -11z"/>
<path d="M1057 1223 c-11 -11 -8 -48 5 -61 8 -8 55 -12 145 -12 122 0 133 2
143 20 8 14 8 26 0 40 -10 19 -21 20 -149 20 -76 0 -141 -3 -144 -7z"/>
<path d="M1114 1081 c-116 -53 -157 -210 -84 -324 53 -84 175 -113 270 -64 50
25 86 68 77 91 -9 22 -84 22 -108 0 -10 -9 -35 -18 -56 -21 -32 -4 -45 0 -71
22 -18 15 -32 35 -32 46 0 17 11 19 143 21 l142 3 -1 50 c-4 146 -148 236
-280 176z m149 -102 c34 -42 24 -49 -68 -49 -88 0 -100 7 -72 42 34 43 107 47
140 7z"/>
</g>
</svg>
