<?xml version="1.0" standalone="no"?>
<!DOCTYPE svg PUBLIC "-//W3C//DTD SVG 20010904//EN"
 "http://www.w3.org/TR/2001/REC-SVG-20010904/DTD/svg10.dtd">
<svg version="1.0" xmlns="http://www.w3.org/2000/svg"
 width="192.000000pt" height="192.000000pt" viewBox="0 0 192.000000 192.000000"
 preserveAspectRatio="xMidYMid meet">
<metadata>
Created by potrace 1.16, written by Peter Selinger 2001-2019
</metadata>
<g transform="translate(0.000000,192.000000) scale(0.100000,-0.100000)"
fill="#000000" stroke="none">
811 c445 -92 729 -532 635 -987 -62 -301 -295 -546 -601 -630 -91 -26 -329
-26 -420 0 -291 80 -516 305 -596 596 -26 91 -26 329 0 420 120 433 542 692
982 601z"/>
<path d="M432 1158 c-20 -20 -16 -232 5 -275 21 -46 67 -73 121 -73 139 0 195
180 79 250 -35 22 -106 26 -138 10 -17 -10 -19 -7 -19 33 0 38 -13 67 -30 67
-3 0 -11 -5 -18 -12z m167 -143 c73 -37 45 -145 -38 -145 -105 0 -109 154 -3
159 7 1 26 -6 41 -14z"/>
<path d="M784 1061 c-34 -21 -64 -75 -64 -116 0 -37 36 -98 70 -118 38 -23
107 -22 148 3 61 37 31 74 -38 46 -46 -18 -79 -10 -104 26 -47 67 26 152 101
116 15 -7 29 -21 31 -31 3 -14 -5 -17 -52 -17 -53 0 -56 -1 -56 -25 l0 -26 88
3 c86 3 87 3 90 30 4 37 -23 85 -61 108 -41 26 -112 26 -153 1z"/>
<path d="M1026 1065 c-3 -9 -6 -65 -6 -125 0 -116 7 -135 52 -128 23 3 23 5
23 133 l0 130 -31 3 c-22 2 -33 -2 -38 -13z"/>
<path d="M1154 1055 c-24 -24 -25 -29 -22 -132 3 -106 3 -108 27 -111 38 -6
51 22 51 110 0 43 4 78 9 78 5 0 28 -30 51 -67 63 -101 87 -123 131 -123 26 0
47 8 66 24 26 23 28 29 31 120 4 107 -4 129 -47 124 -25 -3 -26 -5 -31 -92 -3
-49 -10 -91 -15 -93 -6 -2 -35 36 -65 83 -30 47 -63 90 -72 95 -33 18 -88 10
-114 -16z"/>
</g>
</svg>
