<?xml version="1.0" standalone="no"?>
<!DOCTYPE svg PUBLIC "-//W3C//DTD SVG 20010904//EN"
 "http://www.w3.org/TR/2001/REC-SVG-20010904/DTD/svg10.dtd">
<svg version="1.0" xmlns="http://www.w3.org/2000/svg"
 width="192.000000pt" height="192.000000pt" viewBox="0 0 192.000000 192.000000"
 preserveAspectRatio="xMidYMid meet">
<metadata>
Created by potrace 1.16, written by Peter Selinger 2001-2019
</metadata>
<g transform="translate(0.000000,192.000000) scale(0.100000,-0.100000)"
fill="#000000" stroke="none">
811 c445 -92 729 -532 635 -987 -62 -301 -295 -546 -601 -630 -91 -26 -329
-26 -420 0 -291 80 -516 305 -596 596 -26 91 -26 329 0 420 120 433 542 692
982 601z"/>
<path d="M665 1355 c-44 -24 -76 -56 -91 -92 -16 -38 -18 -67 -3 -41 5 10 31
30 57 45 39 23 59 28 112 28 41 -1 76 -7 96 -17 40 -22 90 -73 105 -110 l12
-29 28 50 c69 121 237 145 336 49 27 -26 33 -29 33 -14 0 31 -39 90 -77 116
-36 25 -37 25 -307 28 -232 2 -275 0 -301 -13z"/>
<path d="M676 1236 c-81 -30 -122 -98 -114 -188 6 -55 28 -92 78 -125 85 -58
197 -33 258 57 34 50 28 142 -11 194 -49 64 -136 90 -211 62z m22 -196 c18
-29 82 -24 82 6 0 8 10 14 25 14 34 0 32 -24 -4 -61 -50 -50 -127 -34 -149 31
-10 27 -9 30 11 30 12 0 28 -9 35 -20z"/>
<path d="M1107 1236 c-75 -27 -117 -90 -117 -171 0 -74 38 -129 112 -160 87
-36 190 3 235 89 23 44 20 118 -7 161 -46 75 -144 110 -223 81z m31 -196 c7
-11 23 -20 37 -20 14 0 30 9 37 20 7 11 23 20 36 20 19 0 22 -4 17 -22 -11
-37 -52 -68 -91 -68 -38 0 -94 44 -94 74 0 23 43 20 58 -4z"/>
<path d="M941 975 c-13 -37 -63 -90 -105 -113 -20 -10 -55 -16 -96 -17 -53 0
-73 5 -112 28 -26 15 -52 35 -58 45 -22 35 0 -82 25 -134 40 -82 97 -139 181
-180 202 -100 438 -23 539 176 14 29 29 75 32 103 l6 52 -29 -28 c-47 -47 -83
-61 -155 -62 -88 0 -151 37 -190 111 l-26 51 -12 -32z m46 -117 c13 -12 23
-26 23 -32 0 -16 -42 -56 -60 -56 -24 0 -64 46 -55 62 30 52 56 60 92 26z"/>
</g>
</svg>
