<?xml version="1.0" standalone="no"?>
<!DOCTYPE svg PUBLIC "-//W3C//DTD SVG 20010904//EN"
 "http://www.w3.org/TR/2001/REC-SVG-20010904/DTD/svg10.dtd">
<svg version="1.0" xmlns="http://www.w3.org/2000/svg"
 width="192.000000pt" height="192.000000pt" viewBox="0 0 192.000000 192.000000"
 preserveAspectRatio="xMidYMid meet">
<metadata>
Created by potrace 1.16, written by Peter Selinger 2001-2019
</metadata>
<g transform="translate(0.000000,192.000000) scale(0.100000,-0.100000)"
fill="#000000" stroke="none">
811 c445 -92 729 -532 635 -987 -62 -301 -295 -546 -601 -630 -91 -26 -329
-26 -420 0 -291 80 -516 305 -596 596 -26 91 -26 329 0 420 120 433 542 692
982 601z"/>
<path d="M994 1113 c-94 -138 -110 -150 -100 -70 l7 55 -74 25 -74 25 -107
-126 -106 -126 0 -93 c0 -50 4 -94 9 -98 6 -3 47 39 92 92 45 54 87 98 93 98
11 0 12 -18 5 -93 l-4 -44 72 -23 c84 -26 67 -37 167 108 37 53 71 95 76 92 4
-3 11 -21 15 -41 9 -48 24 -71 62 -95 50 -31 121 -28 186 9 l52 29 3 83 c2 46
0 90 -2 97 -4 10 -23 -3 -60 -41 -92 -94 -124 -67 -92 79 33 147 37 130 -42
154 -39 11 -76 21 -84 21 -8 0 -50 -53 -94 -117z"/>
</g>
</svg>
