<?xml version="1.0" standalone="no"?>
<!DOCTYPE svg PUBLIC "-//W3C//DTD SVG 20010904//EN"
 "http://www.w3.org/TR/2001/REC-SVG-20010904/DTD/svg10.dtd">
<svg version="1.0" xmlns="http://www.w3.org/2000/svg"
 width="192.000000pt" height="192.000000pt" viewBox="0 0 192.000000 192.000000"
 preserveAspectRatio="xMidYMid meet">
<metadata>
Created by potrace 1.16, written by Peter Selinger 2001-2019
</metadata>
<g transform="translate(0.000000,192.000000) scale(0.100000,-0.100000)"
fill="#000000" stroke="none">
811 c445 -92 729 -532 635 -987 -62 -301 -295 -546 -601 -630 -91 -26 -329
-26 -420 0 -291 80 -516 305 -596 596 -26 91 -26 329 0 420 120 433 542 692
982 601z"/>
<path d="M873 1336 c-29 -18 -89 -45 -135 -60 -132 -44 -136 -46 -149 -77 -28
-68 11 -309 67 -420 61 -121 196 -223 298 -224 109 -1 235 95 301 227 50 101
65 165 72 298 7 143 2 151 -107 181 -41 11 -113 40 -159 65 -46 24 -95 44
-110 43 -14 0 -49 -15 -78 -33z m-38 -266 c10 -17 -5 -49 -26 -55 -26 -8 -49
11 -49 41 0 41 53 50 75 14z m315 0 c14 -27 -19 -65 -48 -56 -32 11 -39 46
-13 67 24 20 47 16 61 -11z m-117 -180 c-9 -34 -54 -62 -87 -56 -37 8 -66 33
-66 58 0 16 9 18 79 18 75 0 79 -1 74 -20z"/>
</g>
</svg>
