<?xml version="1.0" standalone="no"?>
<!DOCTYPE svg PUBLIC "-//W3C//DTD SVG 20010904//EN"
 "http://www.w3.org/TR/2001/REC-SVG-20010904/DTD/svg10.dtd">
<svg version="1.0" xmlns="http://www.w3.org/2000/svg"
 width="192.000000pt" height="192.000000pt" viewBox="0 0 192.000000 192.000000"
 preserveAspectRatio="xMidYMid meet">
<metadata>
Created by potrace 1.16, written by Peter Selinger 2001-2019
</metadata>
<g transform="translate(0.000000,192.000000) scale(0.100000,-0.100000)"
fill="#000000" stroke="none">
811 c445 -92 729 -532 635 -987 -62 -301 -295 -546 -601 -630 -91 -26 -329
-26 -420 0 -291 80 -516 305 -596 596 -26 91 -26 329 0 420 120 433 542 692
982 601z"/>
<path d="M704 1361 c-53 -23 -54 -29 -54 -399 l0 -344 29 -29 29 -29 164 0
c207 0 253 12 319 80 35 35 49 60 59 99 22 92 -6 185 -68 227 l-31 22 21 18
c71 64 62 221 -18 296 -56 52 -95 62 -269 65 -88 1 -170 -1 -181 -6z m330
-182 c25 -20 33 -50 20 -84 -12 -30 -60 -45 -149 -45 l-85 0 0 75 0 75 94 0
c79 0 97 -3 120 -21z m-4 -287 c70 -35 77 -101 17 -146 -23 -17 -46 -22 -128
-24 l-99 -4 0 96 0 96 88 0 c63 0 97 -5 122 -18z"/>
</g>
</svg>
