<?xml version="1.0" standalone="no"?>
<!DOCTYPE svg PUBLIC "-//W3C//DTD SVG 20010904//EN"
 "http://www.w3.org/TR/2001/REC-SVG-20010904/DTD/svg10.dtd">
<svg version="1.0" xmlns="http://www.w3.org/2000/svg"
 width="192.000000pt" height="192.000000pt" viewBox="0 0 192.000000 192.000000"
 preserveAspectRatio="xMidYMid meet">
<metadata>
Created by potrace 1.16, written by Peter Selinger 2001-2019
</metadata>
<g transform="translate(0.000000,192.000000) scale(0.100000,-0.100000)"
fill="#000000" stroke="none">
811 c445 -92 729 -532 635 -987 -62 -301 -295 -546 -601 -630 -91 -26 -329
-26 -420 0 -291 80 -516 305 -596 596 -26 91 -26 329 0 420 120 433 542 692
982 601z"/>
<path d="M744 1361 c-68 -31 -110 -104 -102 -181 l3 -35 95 0 c87 0 95 2 98
20 7 46 11 48 40 29 50 -32 162 -125 162 -133 0 -13 -170 -141 -186 -141 -9 0
-14 11 -14 30 l0 31 -97 -3 -98 -3 -3 -130 c-4 -182 16 -237 102 -276 35 -16
67 -19 210 -19 152 0 174 2 213 21 65 31 88 70 88 149 l0 65 -92 3 -93 3 0
-30 c0 -16 -5 -33 -10 -36 -13 -8 -190 125 -190 142 0 16 163 143 184 143 11
0 16 -9 16 -30 l0 -30 96 0 95 0 -3 163 c-3 186 -12 208 -91 246 -39 19 -61
21 -213 21 -143 0 -175 -3 -210 -19z"/>
</g>
</svg>
