<?xml version="1.0" standalone="no"?>
<!DOCTYPE svg PUBLIC "-//W3C//DTD SVG 20010904//EN"
 "http://www.w3.org/TR/2001/REC-SVG-20010904/DTD/svg10.dtd">
<svg version="1.0" xmlns="http://www.w3.org/2000/svg"
 width="192.000000pt" height="192.000000pt" viewBox="0 0 192.000000 192.000000"
 preserveAspectRatio="xMidYMid meet">
<metadata>
Created by potrace 1.16, written by Peter Selinger 2001-2019
</metadata>
<g transform="translate(0.000000,192.000000) scale(0.100000,-0.100000)"
fill="#000000" stroke="none">
811 c445 -92 729 -532 635 -987 -62 -301 -295 -546 -601 -630 -91 -26 -329
-26 -420 0 -291 80 -516 305 -596 596 -26 91 -26 329 0 420 120 433 542 692
982 601z"/>
<path d="M605 1321 c-11 -5 -29 -19 -40 -31 -19 -21 -20 -36 -20 -325 l0 -303
24 -26 c29 -31 80 -43 112 -25 59 31 417 264 439 285 19 19 25 35 25 68 0 53
-12 67 -100 124 -392 253 -391 252 -440 233z"/>
<path d="M839 1314 c-21 -25 -3 -42 149 -139 77 -50 152 -101 166 -114 53 -49
57 -125 10 -180 -13 -16 -89 -70 -168 -121 -79 -50 -150 -98 -157 -106 -16
-19 -1 -48 27 -52 21 -3 429 251 474 294 19 19 25 35 25 69 0 34 -6 50 -25 69
-37 36 -450 296 -470 296 -10 0 -23 -7 -31 -16z"/>
</g>
</svg>
