<?xml version="1.0" standalone="no"?>
<!DOCTYPE svg PUBLIC "-//W3C//DTD SVG 20010904//EN"
 "http://www.w3.org/TR/2001/REC-SVG-20010904/DTD/svg10.dtd">
<svg version="1.0" xmlns="http://www.w3.org/2000/svg"
 width="192.000000pt" height="192.000000pt" viewBox="0 0 192.000000 192.000000"
 preserveAspectRatio="xMidYMid meet">
<metadata>
Created by potrace 1.16, written by Peter Selinger 2001-2019
</metadata>
<g transform="translate(0.000000,192.000000) scale(0.100000,-0.100000)"
fill="#000000" stroke="none">
811 c445 -92 729 -532 635 -987 -62 -301 -295 -546 -601 -630 -91 -26 -329
-26 -420 0 -291 80 -516 305 -596 596 -26 91 -26 329 0 420 120 433 542 692
982 601z"/>
<path d="M597 1219 c-41 -24 -47 -59 -47 -260 l0 -191 34 -34 34 -34 336 0
336 0 32 29 33 29 0 206 0 205 -29 30 -30 31 -132 0 -133 0 -38 -45 -37 -45
-42 45 -41 45 -129 0 c-71 0 -137 -5 -147 -11z m231 -272 l3 -58 -58 3 c-58 3
-58 3 -61 37 -2 19 -1 45 3 58 5 22 10 24 58 21 l52 -3 3 -58z m360 0 l3 -58
-58 3 c-58 3 -58 3 -61 37 -2 19 -1 45 3 58 5 22 10 24 58 21 l52 -3 3 -58z"/>
</g>
</svg>
