<?xml version="1.0" standalone="no"?>
<!DOCTYPE svg PUBLIC "-//W3C//DTD SVG 20010904//EN"
 "http://www.w3.org/TR/2001/REC-SVG-20010904/DTD/svg10.dtd">
<svg version="1.0" xmlns="http://www.w3.org/2000/svg"
 width="192.000000pt" height="192.000000pt" viewBox="0 0 192.000000 192.000000"
 preserveAspectRatio="xMidYMid meet">
<metadata>
Created by potrace 1.16, written by Peter Selinger 2001-2019
</metadata>
<g transform="translate(0.000000,192.000000) scale(0.100000,-0.100000)"
fill="#000000" stroke="none">
811 c445 -92 729 -532 635 -987 -62 -301 -295 -546 -601 -630 -91 -26 -329
-26 -420 0 -291 80 -516 305 -596 596 -26 91 -26 329 0 420 120 433 542 692
982 601z"/>
<path d="M720 1348 c-25 -13 -55 -38 -67 -57 -23 -33 -23 -40 -23 -326 0 -286
0 -293 23 -326 12 -19 42 -44 67 -57 42 -21 56 -22 276 -22 242 0 263 4 248
44 -5 14 -30 16 -193 16 -197 0 -229 7 -215 43 5 15 25 17 186 17 195 0 224 6
246 55 8 18 12 107 12 290 0 183 -4 272 -12 290 -23 50 -48 55 -285 55 -207 0
-221 -1 -263 -22z m258 -160 c7 -7 12 -29 12 -49 l0 -38 48 -3 c40 -3 47 -6
50 -26 5 -34 -15 -52 -59 -52 l-39 0 0 -90 c0 -82 -2 -90 -22 -101 -18 -10
-24 -8 -40 11 -14 17 -18 40 -18 101 l0 79 -34 0 c-19 0 -42 7 -50 16 -33 33
-11 64 46 64 34 0 38 3 38 24 0 62 36 96 68 64z"/>
</g>
</svg>
