<?xml version="1.0" standalone="no"?>
<!DOCTYPE svg PUBLIC "-//W3C//DTD SVG 20010904//EN"
 "http://www.w3.org/TR/2001/REC-SVG-20010904/DTD/svg10.dtd">
<svg version="1.0" xmlns="http://www.w3.org/2000/svg"
 width="192.000000pt" height="192.000000pt" viewBox="0 0 192.000000 192.000000"
 preserveAspectRatio="xMidYMid meet">
<metadata>
Created by potrace 1.16, written by Peter Selinger 2001-2019
</metadata>
<g transform="translate(0.000000,192.000000) scale(0.100000,-0.100000)"
fill="#000000" stroke="none">
811 c445 -92 729 -532 635 -987 -62 -301 -295 -546 -601 -630 -91 -26 -329
-26 -420 0 -291 80 -516 305 -596 596 -26 91 -26 329 0 420 120 433 542 692
982 601z"/>
<path d="M554 1385 l-25 -25 3 -303 c3 -345 5 -355 93 -442 66 -66 122 -89
215 -88 76 1 130 0 255 -1 86 -1 163 33 220 96 62 68 80 119 80 223 -1 77 -5
97 -27 140 -31 60 -87 114 -148 146 -39 20 -63 24 -177 27 l-133 4 0 99 c0
112 -14 139 -70 139 -56 0 -70 -27 -70 -135 l0 -95 -44 0 -44 0 -4 101 c-3 92
-5 103 -27 120 -32 26 -67 24 -97 -6z m381 -388 c59 -34 87 -87 83 -163 -6
-104 -68 -164 -171 -164 -62 0 -108 25 -144 79 -21 31 -23 46 -23 152 l0 119
108 0 c92 0 112 -3 147 -23z m246 -11 c109 -74 85 -271 -38 -310 l-22 -7 20
47 c36 81 34 184 -6 277 -10 24 4 21 46 -7z"/>
</g>
</svg>
