<?xml version="1.0" standalone="no"?>
<!DOCTYPE svg PUBLIC "-//W3C//DTD SVG 20010904//EN"
 "http://www.w3.org/TR/2001/REC-SVG-20010904/DTD/svg10.dtd">
<svg version="1.0" xmlns="http://www.w3.org/2000/svg"
 width="192.000000pt" height="192.000000pt" viewBox="0 0 192.000000 192.000000"
 preserveAspectRatio="xMidYMid meet">
<metadata>
Created by potrace 1.16, written by Peter Selinger 2001-2019
</metadata>
<g transform="translate(0.000000,192.000000) scale(0.100000,-0.100000)"
fill="#000000" stroke="none">
811 c445 -92 729 -532 635 -987 -62 -301 -295 -546 -601 -630 -91 -26 -329
-26 -420 0 -291 80 -516 305 -596 596 -26 91 -26 329 0 420 120 433 542 692
982 601z"/>
<path d="M863 1375 c-17 -7 -36 -23 -43 -34 -6 -13 -21 -21 -36 -21 -73 0
-135 -71 -117 -133 7 -26 5 -35 -14 -53 -14 -14 -23 -35 -23 -53 0 -34 19 -81
32 -81 5 0 7 -13 3 -29 -4 -19 0 -41 9 -60 9 -16 16 -39 16 -50 0 -17 -5 -20
-29 -15 -23 5 -32 2 -40 -14 -28 -53 -2 -119 63 -157 23 -14 52 -35 62 -46 27
-30 68 -49 104 -49 17 0 44 -10 60 -21 36 -27 73 -20 114 24 48 50 104 79 137
72 40 -9 81 23 113 87 31 62 34 118 8 141 -21 19 -54 22 -80 8 -14 -7 -21 -3
-34 19 -15 27 -15 28 12 48 53 39 67 94 40 157 -4 11 -13 40 -20 65 -21 80
-78 133 -164 154 -16 4 -43 18 -59 32 -32 27 -67 30 -114 9z m182 -86 c56 -16
111 -76 120 -131 4 -24 14 -56 22 -72 14 -27 14 -33 -2 -62 -16 -29 -66 -63
-118 -78 -29 -9 -13 -31 22 -31 27 0 36 -6 52 -35 32 -61 22 -130 -29 -182
-14 -16 -29 -28 -32 -28 -3 0 -4 27 -2 59 4 54 2 62 -22 86 -23 23 -33 26 -69
22 -70 -9 -111 -19 -124 -29 -18 -14 -16 -38 2 -38 13 0 14 -4 4 -22 -7 -12
-12 -46 -13 -75 0 -41 -4 -53 -16 -53 -19 0 -80 37 -80 48 0 5 -18 19 -40 31
-47 26 -73 61 -68 91 3 19 6 18 39 -14 34 -34 37 -35 52 -18 9 10 21 41 27 70
11 47 9 59 -16 132 -21 64 -26 91 -21 132 11 87 74 158 174 194 47 16 86 17
138 3z"/>
<path d="M1063 1154 c-8 -22 10 -49 32 -49 22 0 40 27 32 49 -8 21 -56 21 -64
0z"/>
<path d="M916 1131 c-32 -35 13 -83 52 -55 26 18 28 37 6 58 -20 21 -37 20
-58 -3z"/>
<path d="M1113 1060 c-52 -47 -130 -62 -182 -35 -16 8 -31 11 -35 8 -25 -26
49 -58 116 -50 73 9 148 56 148 92 0 22 -11 18 -47 -15z"/>
<path d="M888 953 c-23 -23 -29 -24 -43 -13 -23 19 -42 -2 -20 -24 21 -20 43
-20 65 -1 12 11 24 13 39 7 22 -8 22 -8 2 -26 -11 -10 -26 -16 -33 -13 -17 6
-68 -30 -68 -49 0 -18 10 -17 34 1 11 8 30 15 42 15 30 0 87 52 82 76 -2 10
-12 20 -23 22 -11 3 -24 10 -28 18 -11 20 -19 18 -49 -13z"/>
</g>
</svg>
