<?xml version="1.0" standalone="no"?>
<!DOCTYPE svg PUBLIC "-//W3C//DTD SVG 20010904//EN"
 "http://www.w3.org/TR/2001/REC-SVG-20010904/DTD/svg10.dtd">
<svg version="1.0" xmlns="http://www.w3.org/2000/svg"
 width="192.000000pt" height="192.000000pt" viewBox="0 0 192.000000 192.000000"
 preserveAspectRatio="xMidYMid meet">
<metadata>
Created by potrace 1.16, written by Peter Selinger 2001-2019
</metadata>
<g transform="translate(0.000000,192.000000) scale(0.100000,-0.100000)"
fill="#000000" stroke="none">
811 c445 -92 729 -532 635 -987 -62 -301 -295 -546 -601 -630 -91 -26 -329
-26 -420 0 -291 80 -516 305 -596 596 -26 91 -26 329 0 420 120 433 542 692
982 601z"/>
<path d="M752 1360 c-46 -28 -57 -63 -37 -117 9 -23 25 -45 36 -48 25 -8 24
-16 -11 -72 -37 -59 -39 -95 -4 -122 l26 -20 -50 6 c-65 7 -94 -1 -137 -38
-41 -36 -38 -49 11 -49 19 0 58 -12 87 -27 29 -15 74 -29 101 -33 27 -3 51
-11 54 -18 3 -10 -7 -11 -45 -6 -99 13 -168 -47 -160 -139 5 -57 42 -102 98
-118 97 -30 186 65 157 167 -11 40 2 64 33 64 10 0 39 10 64 22 40 20 45 26
45 56 0 19 9 45 20 59 11 14 20 32 20 39 0 8 6 11 16 7 9 -3 20 0 24 8 17 27
22 -1 9 -50 -10 -41 -10 -55 2 -88 29 -75 124 -106 194 -63 41 25 69 90 60
137 -14 74 -93 124 -165 103 -23 -7 -38 -6 -47 1 -18 16 16 41 85 64 40 13 51
20 42 29 -18 18 -95 11 -136 -13 -33 -20 -38 -21 -46 -7 -5 9 -15 16 -23 16
-7 0 -15 12 -17 28 -2 20 -9 28 -28 30 -14 2 -29 8 -35 12 -11 9 -69 -12 -79
-29 -10 -15 -47 -13 -70 4 -19 15 -16 29 7 31 7 0 19 2 28 2 27 3 41 54 34
115 -7 52 -9 55 -39 60 -17 3 -44 8 -61 12 -21 4 -40 0 -63 -15z m296 -218 c6
-18 -15 -14 -22 4 -4 10 -1 14 6 12 6 -2 14 -10 16 -16z m-58 -27 c10 -12 10
-15 -1 -15 -7 0 -36 -22 -64 -49 l-50 -50 -28 23 c-23 18 -27 28 -22 49 6 22
11 25 38 21 21 -3 42 2 62 15 37 24 49 25 65 6z m90 -96 c0 -6 -4 -7 -10 -4
-5 3 -10 11 -10 16 0 6 5 7 10 4 6 -3 10 -11 10 -16z m172 -64 c-5 -29 -10
-30 -32 -10 -23 21 -17 37 13 33 16 -2 21 -9 19 -23z m68 -58 c0 -10 -5 -27
-11 -38 -10 -20 -11 -20 -30 -3 -23 21 -24 42 -2 73 15 23 17 23 30 6 7 -11
13 -27 13 -38z m-140 28 c10 -13 9 -15 -8 -15 -15 0 -20 5 -16 15 4 8 7 15 9
15 1 0 8 -7 15 -15z m64 -67 c24 -34 20 -48 -14 -48 -39 0 -91 47 -69 61 26
16 67 10 83 -13z m-466 -100 c-3 -7 -8 -13 -13 -13 -5 0 -10 6 -12 13 -3 6 3
12 12 12 9 0 15 -6 13 -12z m-53 -28 c8 -16 15 -31 15 -34 0 -11 -54 -55 -62
-50 -14 9 -9 68 8 92 19 28 20 28 39 -8z m110 -20 c3 -5 -1 -10 -10 -10 -9 0
-13 5 -10 10 3 6 8 10 10 10 2 0 7 -4 10 -10z m-15 -50 c13 -9 11 -14 -13 -35
-28 -25 -61 -32 -85 -17 -9 7 -7 15 12 35 26 28 60 34 86 17z"/>
</g>
</svg>
