<?xml version="1.0" standalone="no"?>
<!DOCTYPE svg PUBLIC "-//W3C//DTD SVG 20010904//EN"
 "http://www.w3.org/TR/2001/REC-SVG-20010904/DTD/svg10.dtd">
<svg version="1.0" xmlns="http://www.w3.org/2000/svg"
 width="192.000000pt" height="192.000000pt" viewBox="0 0 192.000000 192.000000"
 preserveAspectRatio="xMidYMid meet">
<metadata>
Created by potrace 1.16, written by Peter Selinger 2001-2019
</metadata>
<g transform="translate(0.000000,192.000000) scale(0.100000,-0.100000)"
fill="#000000" stroke="none">
811 c445 -92 729 -532 635 -987 -62 -301 -295 -546 -601 -630 -91 -26 -329
-26 -420 0 -291 80 -516 305 -596 596 -26 91 -26 329 0 420 120 433 542 692
982 601z"/>
<path d="M716 1325 c-44 -15 -90 -56 -114 -100 -25 -45 -25 -475 0 -521 24
-44 81 -91 125 -103 49 -14 407 -14 455 -1 48 14 94 53 118 101 18 35 20 60
20 264 0 204 -2 229 -20 264 -24 48 -70 87 -118 101 -57 15 -418 12 -466 -5z
m164 -281 c0 -16 -35 -35 -109 -59 -52 -17 -55 -17 -68 1 -19 26 0 42 84 70
68 23 93 20 93 -12z m265 3 c46 -17 61 -27 63 -45 5 -35 -21 -37 -103 -7 -80
29 -90 37 -81 60 8 21 50 18 121 -8z m-281 -131 c9 -36 33 -40 62 -9 l24 26
24 -26 c29 -31 53 -27 67 11 7 19 13 22 21 14 17 -17 -6 -60 -38 -72 -20 -8
-32 -7 -50 5 -22 14 -26 14 -48 0 -19 -13 -28 -13 -49 -4 -36 16 -57 79 -26
79 4 0 10 -11 13 -24z"/>
</g>
</svg>
