<?xml version="1.0" standalone="no"?>
<!DOCTYPE svg PUBLIC "-//W3C//DTD SVG 20010904//EN"
 "http://www.w3.org/TR/2001/REC-SVG-20010904/DTD/svg10.dtd">
<svg version="1.0" xmlns="http://www.w3.org/2000/svg"
 width="192.000000pt" height="192.000000pt" viewBox="0 0 192.000000 192.000000"
 preserveAspectRatio="xMidYMid meet">
<metadata>
Created by potrace 1.16, written by Peter Selinger 2001-2019
</metadata>
<g transform="translate(0.000000,192.000000) scale(0.100000,-0.100000)"
fill="#000000" stroke="none">
811 c445 -92 729 -532 635 -987 -62 -301 -295 -546 -601 -630 -91 -26 -329
-26 -420 0 -291 80 -516 305 -596 596 -26 91 -26 329 0 420 120 433 542 692
982 601z"/>
<path d="M773 1335 c-26 -18 -36 -50 -57 -175 -9 -52 -18 -104 -21 -115 -3
-13 -21 -26 -53 -38 -56 -19 -101 -51 -89 -63 4 -5 36 -10 70 -12 l62 -4 -3
-54 c-6 -81 21 -148 82 -209 98 -99 232 -113 344 -37 81 54 125 141 124 243
l-1 57 59 4 c33 2 63 8 67 12 12 11 -30 42 -85 62 -26 10 -48 18 -50 20 -2 1
-14 61 -27 135 -14 73 -32 143 -40 156 -20 31 -49 36 -131 25 -38 -5 -94 -6
-124 -1 -82 11 -103 11 -127 -6z m277 -574 c0 -29 -37 -69 -71 -76 -41 -9 -86
11 -104 46 -8 15 -15 33 -15 39 0 6 35 10 95 10 86 0 95 -2 95 -19z"/>
</g>
</svg>
