<?xml version="1.0" standalone="no"?>
<!DOCTYPE svg PUBLIC "-//W3C//DTD SVG 20010904//EN"
 "http://www.w3.org/TR/2001/REC-SVG-20010904/DTD/svg10.dtd">
<svg version="1.0" xmlns="http://www.w3.org/2000/svg"
 width="192.000000pt" height="192.000000pt" viewBox="0 0 192.000000 192.000000"
 preserveAspectRatio="xMidYMid meet">
<metadata>
Created by potrace 1.16, written by Peter Selinger 2001-2019
</metadata>
<g transform="translate(0.000000,192.000000) scale(0.100000,-0.100000)"
fill="#000000" stroke="none">
811 c445 -92 729 -532 635 -987 -62 -301 -295 -546 -601 -630 -91 -26 -329
-26 -420 0 -291 80 -516 305 -596 596 -26 91 -26 329 0 420 120 433 542 692
982 601z"/>
<path d="M817 1262 c-88 -88 -117 -124 -117 -143 0 -32 67 -99 99 -99 15 0 47
23 90 65 l67 64 64 -64 c46 -47 72 -65 90 -65 34 0 100 67 100 100 0 32 -224
260 -255 260 -13 0 -65 -45 -138 -118z"/>
<path d="M584 1026 c-24 -24 -44 -51 -44 -60 0 -23 79 -106 101 -106 23 0 95
63 102 89 9 36 -68 121 -109 121 -4 0 -26 -20 -50 -44z"/>
<path d="M905 1029 c-26 -24 -45 -51 -45 -62 0 -25 77 -107 100 -107 23 0 100
82 100 107 0 20 -80 103 -100 103 -6 0 -31 -19 -55 -41z"/>
<path d="M1234 1051 c-44 -27 -78 -85 -65 -109 16 -30 80 -82 100 -82 22 0
101 83 101 106 0 17 -80 104 -96 104 -5 0 -23 -9 -40 -19z"/>
<path d="M739 871 c-24 -23 -39 -48 -39 -62 0 -31 225 -259 255 -259 27 0 255
228 255 255 0 25 -79 105 -104 105 -10 0 -45 -29 -78 -65 -34 -36 -66 -65 -72
-65 -6 0 -41 29 -76 65 -35 36 -73 65 -83 65 -11 0 -37 -17 -58 -39z"/>
</g>
</svg>
