<?xml version="1.0" standalone="no"?>
<!DOCTYPE svg PUBLIC "-//W3C//DTD SVG 20010904//EN"
 "http://www.w3.org/TR/2001/REC-SVG-20010904/DTD/svg10.dtd">
<svg version="1.0" xmlns="http://www.w3.org/2000/svg"
 width="192.000000pt" height="192.000000pt" viewBox="0 0 192.000000 192.000000"
 preserveAspectRatio="xMidYMid meet">
<metadata>
Created by potrace 1.16, written by Peter Selinger 2001-2019
</metadata>
<g transform="translate(0.000000,192.000000) scale(0.100000,-0.100000)"
fill="#000000" stroke="none">
811 c445 -92 729 -532 635 -987 -62 -301 -295 -546 -601 -630 -91 -26 -329
-26 -420 0 -291 80 -516 305 -596 596 -26 91 -26 329 0 420 120 433 542 692
982 601z"/>
<path d="M532 1258 c-8 -8 -12 -60 -12 -167 0 -130 4 -163 19 -196 35 -76 91
-104 211 -105 84 0 143 13 178 40 22 18 24 18 59 -6 20 -13 40 -24 44 -24 5 0
9 -26 9 -58 0 -60 11 -82 41 -82 27 0 49 39 49 86 l0 41 70 6 c81 7 128 31
159 80 73 119 -9 267 -147 267 -97 0 -172 -82 -172 -187 0 -29 -4 -53 -10 -53
-19 0 -30 41 -30 118 0 63 -4 85 -19 103 -16 21 -22 22 -45 11 -25 -11 -26
-14 -26 -100 0 -75 -3 -93 -21 -116 -27 -35 -40 -33 -27 4 16 48 1 116 -35
157 -50 57 -126 78 -191 53 -26 -9 -26 -9 -26 46 0 30 -5 64 -10 75 -12 21
-50 25 -68 7z m223 -233 c78 -77 -38 -195 -119 -120 -56 52 -19 145 59 145 25
0 44 -8 60 -25z m520 0 c35 -34 33 -78 -4 -116 -26 -25 -37 -29 -85 -29 l-56
0 0 62 c0 50 4 66 22 85 30 32 90 32 123 -2z"/>
<path d="M918 1244 c-11 -23 -10 -29 11 -45 21 -17 26 -18 45 -6 41 27 27 77
-20 77 -17 0 -28 -9 -36 -26z"/>
</g>
</svg>
