<?xml version="1.0" standalone="no"?>
<!DOCTYPE svg PUBLIC "-//W3C//DTD SVG 20010904//EN"
 "http://www.w3.org/TR/2001/REC-SVG-20010904/DTD/svg10.dtd">
<svg version="1.0" xmlns="http://www.w3.org/2000/svg"
 width="192.000000pt" height="192.000000pt" viewBox="0 0 192.000000 192.000000"
 preserveAspectRatio="xMidYMid meet">
<metadata>
Created by potrace 1.16, written by Peter Selinger 2001-2019
</metadata>
<g transform="translate(0.000000,192.000000) scale(0.100000,-0.100000)"
fill="#000000" stroke="none">
811 c445 -92 729 -532 635 -987 -62 -301 -295 -546 -601 -630 -91 -26 -329
-26 -420 0 -291 80 -516 305 -596 596 -26 91 -26 329 0 420 120 433 542 692
982 601z"/>
<path d="M592 1344 c-12 -8 -22 -22 -22 -30 0 -8 28 -35 63 -60 34 -25 65 -51
69 -58 4 -6 8 -142 8 -303 0 -290 0 -292 22 -307 19 -13 59 -16 233 -16 304 0
307 2 303 221 -3 113 -6 140 -20 156 -17 18 -17 20 0 36 14 15 17 41 20 155 3
155 -3 177 -58 204 -31 16 -68 18 -315 18 -238 0 -284 -2 -303 -16z m478 -234
l0 -50 -85 0 -85 0 0 50 0 50 85 0 85 0 0 -50z m0 -290 l0 -50 -85 0 -85 0 0
50 0 50 85 0 85 0 0 -50z"/>
</g>
</svg>
