<?xml version="1.0" standalone="no"?>
<!DOCTYPE svg PUBLIC "-//W3C//DTD SVG 20010904//EN"
 "http://www.w3.org/TR/2001/REC-SVG-20010904/DTD/svg10.dtd">
<svg version="1.0" xmlns="http://www.w3.org/2000/svg"
 width="192.000000pt" height="192.000000pt" viewBox="0 0 192.000000 192.000000"
 preserveAspectRatio="xMidYMid meet">
<metadata>
Created by potrace 1.16, written by Peter Selinger 2001-2019
</metadata>
<g transform="translate(0.000000,192.000000) scale(0.100000,-0.100000)"
fill="#000000" stroke="none">
811 c445 -92 729 -532 635 -987 -62 -301 -295 -546 -601 -630 -91 -26 -329
-26 -420 0 -291 80 -516 305 -596 596 -26 91 -26 329 0 420 120 433 542 692
982 601z"/>
<path d="M793 1322 c-61 -27 -129 -58 -150 -68 l-38 -19 -3 -202 c-2 -197 -2
-204 22 -251 36 -72 157 -177 244 -212 42 -17 132 -17 174 0 86 35 208 140
244 212 23 45 24 56 24 246 0 148 -3 202 -12 210 -7 5 -71 36 -143 67 -181 81
-212 82 -362 17z m281 -176 c42 -17 76 -61 76 -97 0 -28 -51 -99 -71 -99 -23
0 -20 33 5 59 31 33 32 41 5 75 -29 37 -61 33 -114 -15 -40 -37 -44 -46 -47
-92 -2 -38 -7 -52 -18 -52 -11 0 -16 15 -18 59 -3 58 -2 60 40 104 34 35 83
68 106 72 1 0 17 -6 36 -14z m-56 -207 l3 -55 -60 -57 c-75 -72 -105 -75 -162
-18 -50 49 -52 89 -10 132 16 16 34 29 40 29 22 0 21 -22 -3 -51 -14 -17 -26
-36 -26 -42 0 -17 52 -67 69 -67 8 0 37 21 63 47 44 44 48 51 48 96 0 41 3 48
18 45 13 -2 18 -15 20 -59z"/>
</g>
</svg>
