<?xml version="1.0" standalone="no"?>
<!DOCTYPE svg PUBLIC "-//W3C//DTD SVG 20010904//EN"
 "http://www.w3.org/TR/2001/REC-SVG-20010904/DTD/svg10.dtd">
<svg version="1.0" xmlns="http://www.w3.org/2000/svg"
 width="192.000000pt" height="192.000000pt" viewBox="0 0 192.000000 192.000000"
 preserveAspectRatio="xMidYMid meet">
<metadata>
Created by potrace 1.16, written by Peter Selinger 2001-2019
</metadata>
<g transform="translate(0.000000,192.000000) scale(0.100000,-0.100000)"
fill="#000000" stroke="none">
811 c445 -92 729 -532 635 -987 -62 -301 -295 -546 -601 -630 -91 -26 -329
-26 -420 0 -291 80 -516 305 -596 596 -26 91 -26 329 0 420 120 433 542 692
982 601z"/>
<path d="M562 1348 c-21 -21 -13 -43 33 -88 l45 -44 0 -299 c0 -327 2 -342 60
-372 44 -23 437 -22 505 1 67 24 120 79 141 150 27 95 8 170 -62 238 l-36 35
24 31 c20 28 23 43 23 118 0 94 -18 144 -67 189 -53 49 -78 53 -376 53 -203 0
-281 -3 -290 -12z m551 -171 c39 -25 37 -78 -2 -118 l-29 -29 -136 0 -136 0 0
86 0 86 138 -4 c111 -3 144 -7 165 -21z m37 -330 c38 -19 53 -59 40 -105 -19
-72 -31 -77 -216 -80 l-164 -3 0 100 0 101 158 0 c106 0 165 -4 182 -13z"/>
</g>
</svg>
