<?xml version="1.0" standalone="no"?>
<!DOCTYPE svg PUBLIC "-//W3C//DTD SVG 20010904//EN"
 "http://www.w3.org/TR/2001/REC-SVG-20010904/DTD/svg10.dtd">
<svg version="1.0" xmlns="http://www.w3.org/2000/svg"
 width="192.000000pt" height="192.000000pt" viewBox="0 0 192.000000 192.000000"
 preserveAspectRatio="xMidYMid meet">
<metadata>
Created by potrace 1.16, written by Peter Selinger 2001-2019
</metadata>
<g transform="translate(0.000000,192.000000) scale(0.100000,-0.100000)"
fill="#000000" stroke="none">
811 c445 -92 729 -532 635 -987 -62 -301 -295 -546 -601 -630 -91 -26 -329
-26 -420 0 -291 80 -516 305 -596 596 -26 91 -26 329 0 420 120 433 542 692
982 601z"/>
<path d="M708 1232 c-115 -115 -138 -143 -138 -167 0 -24 19 -49 109 -137 107
-107 109 -108 156 -108 40 0 52 5 81 34 54 54 47 105 -24 179 l-37 38 63 62
c78 77 82 83 82 132 0 65 -45 105 -116 105 -36 0 -48 -9 -176 -138z"/>
<path d="M1001 1084 c-35 -29 -49 -83 -33 -119 6 -13 28 -42 48 -65 l37 -41
-72 -73 c-65 -68 -71 -77 -71 -116 0 -34 6 -48 34 -76 27 -27 42 -34 73 -34
52 0 90 28 221 163 137 141 137 136 -6 279 -106 106 -109 108 -154 108 -35 0
-54 -6 -77 -26z"/>
</g>
</svg>
