<?xml version="1.0" standalone="no"?>
<!DOCTYPE svg PUBLIC "-//W3C//DTD SVG 20010904//EN"
 "http://www.w3.org/TR/2001/REC-SVG-20010904/DTD/svg10.dtd">
<svg version="1.0" xmlns="http://www.w3.org/2000/svg"
 width="192.000000pt" height="192.000000pt" viewBox="0 0 192.000000 192.000000"
 preserveAspectRatio="xMidYMid meet">
<metadata>
Created by potrace 1.16, written by Peter Selinger 2001-2019
</metadata>
<g transform="translate(0.000000,192.000000) scale(0.100000,-0.100000)"
fill="#000000" stroke="none">
811 c445 -92 729 -532 635 -987 -62 -301 -295 -546 -601 -630 -91 -26 -329
-26 -420 0 -291 80 -516 305 -596 596 -26 91 -26 329 0 420 120 433 542 692
982 601z"/>
<path d="M673 1098 c-73 -72 -133 -134 -133 -137 0 -4 60 -66 134 -140 l133
-133 17 23 c33 48 22 75 -66 166 l-82 84 66 66 67 67 50 -47 c33 -31 59 -47
76 -47 33 0 65 17 65 33 0 11 -179 197 -190 197 -3 0 -65 -59 -137 -132z"/>
<path d="M1090 1215 c-6 -8 -12 -30 -13 -50 -1 -32 8 -45 81 -118 l82 -82 -68
-68 -68 -67 -39 40 c-22 23 -50 43 -62 46 -23 6 -93 -13 -93 -24 0 -11 184
-192 195 -192 13 0 265 252 265 265 0 11 -251 265 -261 265 -4 0 -12 -7 -19
-15z"/>
<path d="M772 1013 c-31 -28 -35 -56 -11 -86 25 -32 61 -35 89 -7 28 28 25 64
-6 89 -32 26 -46 26 -72 4z"/>
<path d="M1082 1019 c-12 -5 -27 -20 -34 -34 -10 -22 -8 -30 9 -53 25 -34 65
-40 92 -13 48 48 -3 124 -67 100z"/>
</g>
</svg>
