<?xml version="1.0" standalone="no"?>
<!DOCTYPE svg PUBLIC "-//W3C//DTD SVG 20010904//EN"
 "http://www.w3.org/TR/2001/REC-SVG-20010904/DTD/svg10.dtd">
<svg version="1.0" xmlns="http://www.w3.org/2000/svg"
 width="192.000000pt" height="192.000000pt" viewBox="0 0 192.000000 192.000000"
 preserveAspectRatio="xMidYMid meet">
<metadata>
Created by potrace 1.16, written by Peter Selinger 2001-2019
</metadata>
<g transform="translate(0.000000,192.000000) scale(0.100000,-0.100000)"
fill="#000000" stroke="none">
811 c445 -92 729 -532 635 -987 -62 -301 -295 -546 -601 -630 -91 -26 -329
-26 -420 0 -291 80 -516 305 -596 596 -26 91 -26 329 0 420 120 433 542 692
982 601z"/>
<path d="M867 1360 c-113 -29 -211 -109 -264 -218 -36 -73 -38 -80 -38 -177 0
-87 4 -107 27 -157 44 -94 89 -72 109 52 12 74 20 91 55 119 53 42 120 16 130
-49 7 -51 -24 -96 -85 -121 -35 -15 -52 -29 -64 -55 -9 -19 -35 -46 -58 -61
-53 -35 -119 -97 -119 -112 0 -6 20 0 45 13 73 39 116 42 178 12 252 -124 549
52 565 334 13 226 -147 411 -368 425 -41 2 -92 0 -113 -5z m279 -191 c80 -75
29 -199 -82 -199 -54 0 -104 53 -104 110 0 52 13 76 53 101 40 25 99 20 133
-12z"/>
</g>
</svg>
