<?xml version="1.0" standalone="no"?>
<!DOCTYPE svg PUBLIC "-//W3C//DTD SVG 20010904//EN"
 "http://www.w3.org/TR/2001/REC-SVG-20010904/DTD/svg10.dtd">
<svg version="1.0" xmlns="http://www.w3.org/2000/svg"
 width="192.000000pt" height="192.000000pt" viewBox="0 0 192.000000 192.000000"
 preserveAspectRatio="xMidYMid meet">
<metadata>
Created by potrace 1.16, written by Peter Selinger 2001-2019
</metadata>
<g transform="translate(0.000000,192.000000) scale(0.100000,-0.100000)"
fill="#000000" stroke="none">
811 c445 -92 729 -532 635 -987 -62 -301 -295 -546 -601 -630 -91 -26 -329
-26 -420 0 -291 80 -516 305 -596 596 -26 91 -26 329 0 420 120 433 542 692
982 601z"/>
<path d="M695 1325 c-47 -25 -83 -65 -101 -110 -13 -35 -15 -80 -12 -267 3
-224 3 -225 30 -265 15 -22 44 -51 65 -64 37 -24 43 -24 278 -24 235 0 241 0
278 24 21 13 50 42 65 64 l27 40 3 231 c3 224 2 232 -20 275 -13 25 -40 59
-61 75 l-39 31 -241 3 c-205 2 -247 0 -272 -13z m486 -173 c39 -43 39 -84 0
-123 l-29 -29 -197 0 -197 0 -29 29 c-19 20 -29 40 -29 59 0 36 41 89 73 95
12 3 102 4 200 4 l179 -2 29 -33z m-22 -227 c54 -27 65 -111 19 -151 -18 -17
-39 -19 -223 -19 -184 0 -205 2 -223 19 -45 40 -35 123 17 151 38 21 370 21
410 0z"/>
</g>
</svg>
