<?xml version="1.0" standalone="no"?>
<!DOCTYPE svg PUBLIC "-//W3C//DTD SVG 20010904//EN"
 "http://www.w3.org/TR/2001/REC-SVG-20010904/DTD/svg10.dtd">
<svg version="1.0" xmlns="http://www.w3.org/2000/svg"
 width="192.000000pt" height="192.000000pt" viewBox="0 0 192.000000 192.000000"
 preserveAspectRatio="xMidYMid meet">
<metadata>
Created by potrace 1.16, written by Peter Selinger 2001-2019
</metadata>
<g transform="translate(0.000000,192.000000) scale(0.100000,-0.100000)"
fill="#000000" stroke="none">
811 c445 -92 729 -532 635 -987 -62 -301 -295 -546 -601 -630 -91 -26 -329
-26 -420 0 -291 80 -516 305 -596 596 -26 91 -26 329 0 420 120 433 542 692
982 601z"/>
<path d="M695 1294 c-43 -22 -74 -53 -96 -97 -19 -35 -20 -56 -17 -272 l3
-233 30 -43 c42 -60 91 -82 191 -87 71 -4 86 -8 105 -28 29 -31 59 -30 89 1
20 21 32 25 84 25 89 0 135 16 182 64 60 60 66 91 62 341 l-3 213 -30 44 c-18
25 -49 52 -75 66 -42 21 -56 22 -270 22 -184 0 -230 -3 -255 -16z m430 -157
c18 -26 19 -60 4 -90 -36 -68 -119 -39 -119 41 0 72 76 104 115 49z m-246 -33
c12 -15 21 -35 21 -45 0 -16 -4 -17 -31 -7 -22 7 -41 8 -65 0 -31 -9 -34 -8
-34 12 0 63 71 89 109 40z m265 -180 c25 -10 19 -65 -13 -116 -33 -52 -113
-98 -170 -98 -97 0 -188 66 -211 152 -18 65 -9 68 201 68 98 0 184 -3 193 -6z"/>
</g>
</svg>
