<?xml version="1.0" standalone="no"?>
<!DOCTYPE svg PUBLIC "-//W3C//DTD SVG 20010904//EN"
 "http://www.w3.org/TR/2001/REC-SVG-20010904/DTD/svg10.dtd">
<svg version="1.0" xmlns="http://www.w3.org/2000/svg"
 width="192.000000pt" height="192.000000pt" viewBox="0 0 192.000000 192.000000"
 preserveAspectRatio="xMidYMid meet">
<metadata>
Created by potrace 1.16, written by Peter Selinger 2001-2019
</metadata>
<g transform="translate(0.000000,192.000000) scale(0.100000,-0.100000)"
fill="#000000" stroke="none">
811 c445 -92 729 -532 635 -987 -62 -301 -295 -546 -601 -630 -91 -26 -329
-26 -420 0 -291 80 -516 305 -596 596 -26 91 -26 329 0 420 120 433 542 692
982 601z"/>
<path d="M853 1365 c-80 -22 -131 -52 -190 -111 -92 -92 -136 -223 -116 -347
23 -138 108 -252 232 -311 61 -29 74 -31 176 -31 120 0 168 15 244 73 l36 27
-165 5 c-153 6 -169 8 -215 32 -97 50 -149 136 -148 244 1 76 27 139 83 192
55 54 109 74 190 70 57 -3 65 -5 65 -23 0 -18 -9 -21 -72 -26 -81 -8 -129 -31
-167 -82 -63 -85 -60 -191 7 -273 54 -65 87 -74 292 -74 175 0 205 5 205 32 0
4 -78 8 -172 8 -195 0 -238 8 -284 54 -81 81 -63 204 37 265 61 37 174 21 174
-24 0 -21 -16 -23 -81 -10 -85 18 -152 -83 -109 -165 30 -58 40 -60 263 -60
184 0 203 2 210 18 4 9 7 64 7 122 0 97 -2 110 -31 171 -85 178 -286 274 -471
224z m131 -51 c9 -3 16 -15 16 -25 0 -19 -7 -22 -84 -34 -93 -15 -186 -90
-229 -184 -16 -34 -22 -67 -23 -131 -1 -83 -1 -85 -25 -85 -54 0 -46 155 14
268 51 96 151 169 257 187 25 4 48 8 52 9 3 0 13 -2 22 -5z"/>
</g>
</svg>
