<?xml version="1.0" standalone="no"?>
<!DOCTYPE svg PUBLIC "-//W3C//DTD SVG 20010904//EN"
 "http://www.w3.org/TR/2001/REC-SVG-20010904/DTD/svg10.dtd">
<svg version="1.0" xmlns="http://www.w3.org/2000/svg"
 width="192.000000pt" height="192.000000pt" viewBox="0 0 192.000000 192.000000"
 preserveAspectRatio="xMidYMid meet">
<metadata>
Created by potrace 1.16, written by Peter Selinger 2001-2019
</metadata>
<g transform="translate(0.000000,192.000000) scale(0.100000,-0.100000)"
fill="#000000" stroke="none">
811 c445 -92 729 -532 635 -987 -62 -301 -295 -546 -601 -630 -91 -26 -329
-26 -420 0 -291 80 -516 305 -596 596 -26 91 -26 329 0 420 120 433 542 692
982 601z"/>
<path d="M905 1354 c-43 -37 -124 -73 -181 -80 -113 -15 -130 -47 -121 -229
10 -185 56 -306 149 -390 59 -53 159 -105 203 -105 44 0 144 52 203 105 93 84
139 205 149 390 9 182 -8 214 -120 229 -60 7 -127 36 -177 76 -46 36 -66 37
-105 4z m96 -149 c29 -24 86 -45 123 -45 44 0 56 -27 56 -125 0 -163 -44 -250
-157 -313 l-63 -34 0 271 c0 149 3 271 6 271 3 0 19 -11 35 -25z"/>
</g>
</svg>
