<?xml version="1.0" standalone="no"?>
<!DOCTYPE svg PUBLIC "-//W3C//DTD SVG 20010904//EN"
 "http://www.w3.org/TR/2001/REC-SVG-20010904/DTD/svg10.dtd">
<svg version="1.0" xmlns="http://www.w3.org/2000/svg"
 width="192.000000pt" height="192.000000pt" viewBox="0 0 192.000000 192.000000"
 preserveAspectRatio="xMidYMid meet">
<metadata>
Created by potrace 1.16, written by Peter Selinger 2001-2019
</metadata>
<g transform="translate(0.000000,192.000000) scale(0.100000,-0.100000)"
fill="#000000" stroke="none">
811 c445 -92 729 -532 635 -987 -62 -301 -295 -546 -601 -630 -91 -26 -329
-26 -420 0 -291 80 -516 305 -596 596 -26 91 -26 329 0 420 120 433 542 692
982 601z"/>
<path d="M612 1378 c-9 -9 -12 -71 -12 -217 l0 -206 75 -80 c41 -44 74 -83 75
-86 0 -3 -31 -48 -70 -99 -39 -51 -70 -99 -70 -106 0 -13 27 -44 38 -44 4 0
70 21 147 46 l140 46 118 117 117 117 0 97 0 97 28 -6 c15 -3 35 -8 45 -11 24
-6 54 5 61 24 8 19 -30 139 -47 150 -7 5 -34 18 -62 30 -54 23 -68 20 -112
-20 -13 -11 -24 -19 -26 -16 -2 2 -18 41 -36 86 -33 81 -48 98 -81 88 -16 -5
-29 -29 -77 -144 l-15 -34 -91 91 c-91 91 -119 106 -145 80z"/>
</g>
</svg>
