<?xml version="1.0" standalone="no"?>
<!DOCTYPE svg PUBLIC "-//W3C//DTD SVG 20010904//EN"
 "http://www.w3.org/TR/2001/REC-SVG-20010904/DTD/svg10.dtd">
<svg version="1.0" xmlns="http://www.w3.org/2000/svg"
 width="192.000000pt" height="192.000000pt" viewBox="0 0 192.000000 192.000000"
 preserveAspectRatio="xMidYMid meet">
<metadata>
Created by potrace 1.16, written by Peter Selinger 2001-2019
</metadata>
<g transform="translate(0.000000,192.000000) scale(0.100000,-0.100000)"
fill="#000000" stroke="none">
811 c445 -92 729 -532 635 -987 -62 -301 -295 -546 -601 -630 -91 -26 -329
-26 -420 0 -291 80 -516 305 -596 596 -26 91 -26 329 0 420 120 433 542 692
982 601z"/>
<path d="M643 1164 l-98 -147 0 -182 c0 -139 3 -186 14 -198 11 -15 37 -17
181 -17 144 0 170 2 181 17 20 23 20 333 1 356 -9 10 -33 17 -67 19 l-53 3 59
129 c32 71 59 138 59 148 0 16 -10 18 -90 18 l-90 0 -97 -146z"/>
<path d="M1076 1163 l-96 -148 0 -182 c0 -152 3 -184 16 -197 13 -13 44 -16
178 -16 145 0 165 2 179 18 14 16 17 44 17 180 0 187 -2 192 -81 192 -27 0
-49 3 -49 6 0 4 27 67 61 140 33 74 57 138 54 144 -3 5 -46 10 -95 10 l-88 0
-96 -147z"/>
</g>
</svg>
