<?xml version="1.0" standalone="no"?>
<!DOCTYPE svg PUBLIC "-//W3C//DTD SVG 20010904//EN"
 "http://www.w3.org/TR/2001/REC-SVG-20010904/DTD/svg10.dtd">
<svg version="1.0" xmlns="http://www.w3.org/2000/svg"
 width="192.000000pt" height="192.000000pt" viewBox="0 0 192.000000 192.000000"
 preserveAspectRatio="xMidYMid meet">
<metadata>
Created by potrace 1.16, written by Peter Selinger 2001-2019
</metadata>
<g transform="translate(0.000000,192.000000) scale(0.100000,-0.100000)"
fill="#000000" stroke="none">
811 c445 -92 729 -532 635 -987 -62 -301 -295 -546 -601 -630 -91 -26 -329
-26 -420 0 -291 80 -516 305 -596 596 -26 91 -26 329 0 420 120 433 542 692
982 601z"/>
<path d="M833 1356 c-104 -34 -204 -123 -251 -224 -24 -51 -27 -69 -27 -167 0
-104 2 -114 32 -176 177 -359 705 -281 775 114 30 169 -65 348 -228 428 -60
30 -78 34 -163 36 -61 2 -111 -2 -138 -11z m249 -105 c112 -48 188 -162 188
-281 0 -73 -12 -126 -35 -155 -14 -19 -15 -17 -8 20 23 116 -8 217 -88 289
-81 73 -197 96 -303 60 -68 -23 -141 -95 -171 -169 -22 -54 -25 -57 -25 -28 0
18 9 55 19 83 64 169 258 252 423 181z m-79 -172 c27 -14 67 -50 67 -60 0 -5
-12 3 -26 16 -29 27 -81 41 -118 31 -14 -3 -39 -18 -57 -33 -30 -25 -31 -26
-20 -5 27 50 105 76 154 51z m-235 -45 c-12 -20 -27 -60 -34 -88 l-12 -51 -1
43 c-1 46 9 74 42 110 29 31 30 28 5 -14z m411 -75 c26 -86 -21 -189 -103
-229 -62 -30 -148 -25 -199 10 -44 30 -42 35 6 15 138 -57 287 51 275 201 -4
55 5 57 21 3z m-191 9 c15 -15 15 -51 0 -66 -27 -27 -78 -7 -78 29 0 39 52 63
78 37z"/>
</g>
</svg>
