<?xml version="1.0" standalone="no"?>
<!DOCTYPE svg PUBLIC "-//W3C//DTD SVG 20010904//EN"
 "http://www.w3.org/TR/2001/REC-SVG-20010904/DTD/svg10.dtd">
<svg version="1.0" xmlns="http://www.w3.org/2000/svg"
 width="192.000000pt" height="192.000000pt" viewBox="0 0 192.000000 192.000000"
 preserveAspectRatio="xMidYMid meet">
<metadata>
Created by potrace 1.16, written by Peter Selinger 2001-2019
</metadata>
<g transform="translate(0.000000,192.000000) scale(0.100000,-0.100000)"
fill="#000000" stroke="none">
811 c445 -92 729 -532 635 -987 -62 -301 -295 -546 -601 -630 -91 -26 -329
-26 -420 0 -291 80 -516 305 -596 596 -26 91 -26 329 0 420 120 433 542 692
982 601z"/>
<path d="M700 1304 c-45 -20 -77 -50 -101 -96 -17 -33 -19 -61 -19 -263 0
-249 3 -267 61 -322 50 -47 76 -53 233 -53 139 0 143 -1 166 -25 30 -32 60
-32 90 0 13 14 30 25 37 25 26 0 90 39 116 70 44 52 49 88 45 327 l-3 221 -30
43 c-16 23 -50 53 -74 66 -42 22 -53 23 -265 23 -175 -1 -228 -4 -256 -16z
m129 -208 c66 -42 123 -76 125 -76 3 0 62 36 131 79 70 44 133 77 141 74 19
-7 34 -36 26 -50 -12 -19 -281 -183 -299 -183 -29 1 -298 175 -302 195 -4 21
27 48 45 41 7 -3 66 -39 133 -80z"/>
</g>
</svg>
