<?xml version="1.0" standalone="no"?>
<!DOCTYPE svg PUBLIC "-//W3C//DTD SVG 20010904//EN"
 "http://www.w3.org/TR/2001/REC-SVG-20010904/DTD/svg10.dtd">
<svg version="1.0" xmlns="http://www.w3.org/2000/svg"
 width="192.000000pt" height="192.000000pt" viewBox="0 0 192.000000 192.000000"
 preserveAspectRatio="xMidYMid meet">
<metadata>
Created by potrace 1.16, written by Peter Selinger 2001-2019
</metadata>
<g transform="translate(0.000000,192.000000) scale(0.100000,-0.100000)"
fill="#000000" stroke="none">
811 c445 -92 729 -532 635 -987 -62 -301 -295 -546 -601 -630 -91 -26 -329
-26 -420 0 -291 80 -516 305 -596 596 -26 91 -26 329 0 420 120 433 542 692
982 601z"/>
<path d="M689 1320 c-48 -25 -86 -72 -99 -121 -7 -25 -10 -122 -8 -252 3 -243
10 -268 87 -322 l43 -30 241 0 c237 0 243 0 280 24 21 13 50 42 65 64 27 40
27 41 30 258 4 235 -2 279 -45 329 -54 65 -77 70 -330 70 -205 -1 -232 -3
-264 -20z m516 -60 c53 -33 65 -71 65 -204 0 -64 -2 -116 -5 -116 -3 0 -38 34
-78 75 -49 51 -80 75 -96 75 -15 0 -46 -23 -89 -64 l-67 -64 -28 24 c-46 40
-63 32 -169 -73 l-98 -98 0 180 c0 200 7 227 65 265 28 18 48 20 249 20 202 0
221 -2 251 -20z"/>
<path d="M725 1195 c-14 -13 -25 -36 -25 -50 0 -33 41 -75 73 -75 39 0 77 36
77 74 0 68 -78 99 -125 51z"/>
</g>
</svg>
