<?xml version="1.0" standalone="no"?>
<!DOCTYPE svg PUBLIC "-//W3C//DTD SVG 20010904//EN"
 "http://www.w3.org/TR/2001/REC-SVG-20010904/DTD/svg10.dtd">
<svg version="1.0" xmlns="http://www.w3.org/2000/svg"
 width="192.000000pt" height="192.000000pt" viewBox="0 0 192.000000 192.000000"
 preserveAspectRatio="xMidYMid meet">
<metadata>
Created by potrace 1.16, written by Peter Selinger 2001-2019
</metadata>
<g transform="translate(0.000000,192.000000) scale(0.100000,-0.100000)"
fill="#000000" stroke="none">
811 c445 -92 729 -532 635 -987 -62 -301 -295 -546 -601 -630 -91 -26 -329
-26 -420 0 -291 80 -516 305 -596 596 -26 91 -26 329 0 420 120 433 542 692
982 601z"/>
<path d="M747 1366 c-50 -18 -85 -51 -108 -101 -17 -36 -19 -69 -19 -299 0
-245 1 -262 21 -304 15 -29 37 -54 68 -74 41 -26 53 -29 107 -26 57 4 73 11
270 127 115 68 217 131 228 140 68 59 75 192 13 260 -25 27 -91 71 -107 71 -6
0 -10 -34 -10 -84 0 -64 -4 -88 -16 -100 -20 -21 -37 -20 -57 2 -14 15 -17 40
-17 129 0 86 -3 113 -15 123 -12 10 -18 10 -30 0 -12 -10 -15 -37 -15 -126 0
-89 -3 -116 -16 -128 -20 -21 -37 -20 -57 2 -14 16 -17 43 -17 174 0 162 -6
187 -44 172 -14 -5 -16 -28 -16 -169 0 -144 -2 -164 -18 -178 -21 -19 -31 -21
-52 -7 -12 7 -16 46 -20 207 -6 220 -3 214 -73 189z"/>
</g>
</svg>
