<?xml version="1.0" standalone="no"?>
<!DOCTYPE svg PUBLIC "-//W3C//DTD SVG 20010904//EN"
 "http://www.w3.org/TR/2001/REC-SVG-20010904/DTD/svg10.dtd">
<svg version="1.0" xmlns="http://www.w3.org/2000/svg"
 width="192.000000pt" height="192.000000pt" viewBox="0 0 192.000000 192.000000"
 preserveAspectRatio="xMidYMid meet">
<metadata>
Created by potrace 1.16, written by Peter Selinger 2001-2019
</metadata>
<g transform="translate(0.000000,192.000000) scale(0.100000,-0.100000)"
fill="#000000" stroke="none">
811 c445 -92 729 -532 635 -987 -62 -301 -295 -546 -601 -630 -91 -26 -329
-26 -420 0 -291 80 -516 305 -596 596 -26 91 -26 329 0 420 120 433 542 692
982 601z"/>
<path d="M803 1329 c-17 -5 -43 -23 -57 -40 -26 -30 -26 -31 -26 -220 0 -289
-11 -279 322 -279 l232 0 33 -32 c27 -26 35 -29 48 -18 13 11 15 48 15 252 0
356 13 342 -310 345 -124 1 -239 -2 -257 -8z m155 -131 c33 -33 1 -68 -62 -68
-41 0 -50 10 -41 50 6 28 10 30 49 30 23 0 47 -5 54 -12z m166 -10 c20 -32 -4
-53 -60 -53 -49 0 -49 0 -45 30 1 17 5 34 8 38 9 15 85 3 97 -15z m146 -73 c6
-8 9 -23 5 -35 -5 -17 -15 -20 -61 -20 -56 0 -65 10 -48 54 8 21 87 22 104 1z
m-327 -46 c21 -33 1 -49 -58 -49 -57 0 -61 3 -49 48 6 20 12 23 52 20 28 -2
49 -9 55 -19z m155 12 c8 -4 12 -19 10 -32 -3 -22 -8 -24 -62 -27 -51 -3 -58
-1 -52 13 3 9 6 25 6 36 0 16 7 19 43 19 23 0 48 -4 55 -9z m155 -93 c18 -28
-9 -48 -64 -48 -51 0 -60 11 -43 55 9 22 93 17 107 -7z m-168 -53 c0 -30 -1
-30 -59 -33 -51 -3 -58 -1 -52 13 3 9 6 26 6 36 0 18 6 20 53 17 50 -3 52 -4
52 -33z"/>
<path d="M635 1193 c-34 -9 -63 -33 -79 -68 -23 -49 -24 -506 -1 -525 13 -11
21 -8 48 18 l33 32 232 0 c256 0 278 4 307 60 8 16 15 31 15 34 0 3 -92 6
-204 8 -188 3 -207 5 -232 24 -65 48 -69 60 -74 246 -3 102 -9 172 -15 173 -5
2 -19 0 -30 -2z"/>
</g>
</svg>
