<?xml version="1.0" standalone="no"?>
<!DOCTYPE svg PUBLIC "-//W3C//DTD SVG 20010904//EN"
 "http://www.w3.org/TR/2001/REC-SVG-20010904/DTD/svg10.dtd">
<svg version="1.0" xmlns="http://www.w3.org/2000/svg"
 width="192.000000pt" height="192.000000pt" viewBox="0 0 192.000000 192.000000"
 preserveAspectRatio="xMidYMid meet">
<metadata>
Created by potrace 1.16, written by Peter Selinger 2001-2019
</metadata>
<g transform="translate(0.000000,192.000000) scale(0.100000,-0.100000)"
fill="#000000" stroke="none">
811 c445 -92 729 -532 635 -987 -62 -301 -295 -546 -601 -630 -91 -26 -329
-26 -420 0 -291 80 -516 305 -596 596 -26 91 -26 329 0 420 120 433 542 692
982 601z"/>
<path d="M695 1326 c-38 -17 -90 -72 -104 -109 -7 -17 -11 -119 -11 -253 0
-249 5 -273 70 -327 48 -40 90 -47 305 -47 215 0 257 7 305 47 65 54 70 77 70
328 0 170 -3 234 -14 258 -17 39 -71 92 -109 106 -44 17 -474 14 -512 -3z
m362 -164 c145 -75 159 -282 24 -377 -39 -28 -50 -30 -126 -30 -76 0 -87 2
-126 30 -108 76 -125 235 -35 333 62 69 176 88 263 44z"/>
<path d="M895 1106 c-42 -18 -83 -69 -91 -112 -8 -44 18 -116 53 -144 84 -66
201 -34 238 65 21 55 14 103 -22 146 -47 55 -116 72 -178 45z m137 -53 c38
-34 11 -103 -40 -103 -53 0 -83 68 -46 104 20 21 63 20 86 -1z"/>
</g>
</svg>
