<?xml version="1.0" standalone="no"?>
<!DOCTYPE svg PUBLIC "-//W3C//DTD SVG 20010904//EN"
 "http://www.w3.org/TR/2001/REC-SVG-20010904/DTD/svg10.dtd">
<svg version="1.0" xmlns="http://www.w3.org/2000/svg"
 width="192.000000pt" height="192.000000pt" viewBox="0 0 192.000000 192.000000"
 preserveAspectRatio="xMidYMid meet">
<metadata>
Created by potrace 1.16, written by Peter Selinger 2001-2019
</metadata>
<g transform="translate(0.000000,192.000000) scale(0.100000,-0.100000)"
fill="#000000" stroke="none">
811 c445 -92 729 -532 635 -987 -62 -301 -295 -546 -601 -630 -91 -26 -329
-26 -420 0 -291 80 -516 305 -596 596 -26 91 -26 329 0 420 120 433 542 692
982 601z"/>
<path d="M900 1341 c-25 -17 -110 -81 -190 -143 -119 -94 -146 -119 -153 -147
-5 -19 -7 -125 -5 -237 4 -251 0 -244 129 -244 95 0 119 11 119 55 0 33 -36
55 -87 55 l-43 0 0 173 0 172 143 111 142 111 80 -60 c44 -34 110 -85 148
-114 l67 -54 0 -169 0 -170 -50 0 c-37 0 -55 -5 -70 -20 -24 -24 -25 -38 -4
-68 14 -20 24 -22 104 -22 84 0 90 1 110 27 20 26 21 35 18 256 l-3 229 -30
24 c-119 96 -336 254 -356 259 -17 4 -37 -3 -69 -24z"/>
<path d="M776 1005 c-3 -9 -6 -28 -6 -41 0 -21 4 -24 38 -24 49 0 75 19 70 51
-3 21 -9 24 -49 27 -36 2 -48 -1 -53 -13z"/>
<path d="M927 1013 c-3 -5 -7 -21 -8 -38 -4 -27 -1 -30 25 -33 63 -7 105 28
76 63 -13 15 -85 21 -93 8z"/>
<path d="M1059 933 c-14 -38 -7 -58 22 -61 43 -5 79 14 79 42 0 28 -25 46 -65
46 -18 0 -28 -7 -36 -27z"/>
<path d="M767 893 c-3 -5 -7 -21 -8 -38 -4 -27 -1 -30 25 -33 61 -7 94 17 81
59 -5 15 -16 19 -50 19 -24 0 -46 -3 -48 -7z"/>
<path d="M906 869 c-8 -42 -2 -49 43 -49 26 0 44 7 57 21 27 30 8 53 -48 57
-44 3 -46 2 -52 -29z"/>
<path d="M1036 828 c-18 -56 -16 -68 6 -69 41 -2 73 3 86 13 18 16 15 46 -7
58 -27 14 -81 13 -85 -2z"/>
<path d="M886 765 c-3 -9 -6 -28 -6 -41 0 -20 5 -24 29 -24 16 0 42 5 56 10
21 8 26 16 23 38 -3 25 -7 27 -49 30 -36 2 -48 -1 -53 -13z"/>
</g>
</svg>
