<?xml version="1.0" standalone="no"?>
<!DOCTYPE svg PUBLIC "-//W3C//DTD SVG 20010904//EN"
 "http://www.w3.org/TR/2001/REC-SVG-20010904/DTD/svg10.dtd">
<svg version="1.0" xmlns="http://www.w3.org/2000/svg"
 width="192.000000pt" height="192.000000pt" viewBox="0 0 192.000000 192.000000"
 preserveAspectRatio="xMidYMid meet">
<metadata>
Created by potrace 1.16, written by Peter Selinger 2001-2019
</metadata>
<g transform="translate(0.000000,192.000000) scale(0.100000,-0.100000)"
fill="#000000" stroke="none">
811 c445 -92 729 -532 635 -987 -62 -301 -295 -546 -601 -630 -91 -26 -329
-26 -420 0 -291 80 -516 305 -596 596 -26 91 -26 329 0 420 120 433 542 692
982 601z"/>
<path d="M824 1366 c-95 -18 -152 -45 -191 -90 -37 -41 -42 -79 -17 -114 15
-21 14 -29 -1 -94 -52 -209 53 -429 236 -493 23 -8 71 -15 108 -15 210 0 379
229 341 464 -6 36 -14 75 -18 87 -6 14 -2 34 10 59 52 105 -79 192 -307 205
-55 3 -118 -1 -161 -9z m259 -81 c80 -17 137 -48 137 -76 0 -50 -158 -95 -304
-86 -142 8 -259 62 -226 102 51 62 245 92 393 60z m-10 -287 c7 -21 -4 -38
-23 -38 -23 0 -34 16 -26 35 7 18 43 20 49 3z m-195 -32 c4 -21 -14 -37 -35
-29 -14 5 -18 35 -6 47 12 12 38 1 41 -18z m102 -71 c15 -18 5 -35 -20 -35
-23 0 -32 13 -24 34 8 20 28 21 44 1z m164 -26 c-8 -14 -34 -11 -34 4 0 8 3
17 7 20 9 9 34 -13 27 -24z m-348 0 c10 -17 -13 -36 -27 -22 -12 12 -4 33 11
33 5 0 12 -5 16 -11z m92 -47 c3 -16 -2 -22 -17 -22 -26 0 -36 17 -20 36 16
19 33 13 37 -14z m209 -38 c8 -22 -18 -37 -36 -20 -7 8 -10 19 -7 25 10 16 36
13 43 -5z m-127 -70 c0 -19 -28 -30 -42 -16 -8 8 -8 15 1 26 14 17 41 10 41
-10z"/>
</g>
</svg>
