<?xml version="1.0" standalone="no"?>
<!DOCTYPE svg PUBLIC "-//W3C//DTD SVG 20010904//EN"
 "http://www.w3.org/TR/2001/REC-SVG-20010904/DTD/svg10.dtd">
<svg version="1.0" xmlns="http://www.w3.org/2000/svg"
 width="192.000000pt" height="192.000000pt" viewBox="0 0 192.000000 192.000000"
 preserveAspectRatio="xMidYMid meet">
<metadata>
Created by potrace 1.16, written by Peter Selinger 2001-2019
</metadata>
<g transform="translate(0.000000,192.000000) scale(0.100000,-0.100000)"
fill="#000000" stroke="none">
811 c445 -92 729 -532 635 -987 -62 -301 -295 -546 -601 -630 -91 -26 -329
-26 -420 0 -291 80 -516 305 -596 596 -26 91 -26 329 0 420 120 433 542 692
982 601z"/>
<path d="M893 1370 c-65 -10 -166 -57 -218 -103 -78 -68 -135 -199 -135 -309
0 -26 2 -48 5 -48 2 0 61 25 131 55 116 51 144 58 144 36 0 -5 -53 -32 -117
-61 -158 -71 -157 -70 -146 -81 7 -7 55 10 136 45 134 60 147 64 147 42 0 -8
-54 -38 -131 -72 -71 -32 -132 -61 -135 -66 -16 -25 36 -12 145 37 67 30 129
55 137 55 33 0 10 -29 -38 -50 -143 -61 -208 -94 -208 -106 0 -8 2 -14 5 -14
2 0 60 25 129 55 68 30 132 55 141 55 41 0 0 -29 -113 -80 -67 -30 -122 -60
-122 -67 0 -21 15 -16 146 42 123 54 154 64 154 46 0 -14 -19 -25 -135 -76
-60 -26 -112 -49 -114 -51 -9 -8 25 -35 73 -58 251 -119 538 31 586 306 19
106 -15 232 -87 323 -81 103 -241 164 -380 145z m5 -246 c13 -27 26 -51 28
-53 2 -3 39 10 82 28 43 17 85 29 93 26 8 -3 29 -32 48 -66 56 -102 39 -189
-44 -229 -52 -25 -91 -25 -133 0 -39 24 -60 58 -109 173 -40 93 -37 91 -100
66 -39 -16 -66 1 -61 40 2 21 14 30 67 52 80 33 98 28 129 -37z m370 -291 c3
-28 -1 -33 -23 -39 -31 -8 -55 10 -55 41 0 30 9 36 45 33 26 -3 30 -7 33 -35z
m-213 -87 c19 -29 10 -54 -21 -62 -46 -12 -72 37 -38 70 22 22 41 20 59 -8z"/>
<path d="M1008 1007 l-47 -22 18 -41 c21 -46 51 -60 91 -41 29 14 36 44 20 92
-13 40 -18 41 -82 12z"/>
</g>
</svg>
