<?xml version="1.0" standalone="no"?>
<!DOCTYPE svg PUBLIC "-//W3C//DTD SVG 20010904//EN"
 "http://www.w3.org/TR/2001/REC-SVG-20010904/DTD/svg10.dtd">
<svg version="1.0" xmlns="http://www.w3.org/2000/svg"
 width="192.000000pt" height="192.000000pt" viewBox="0 0 192.000000 192.000000"
 preserveAspectRatio="xMidYMid meet">
<metadata>
Created by potrace 1.16, written by Peter Selinger 2001-2019
</metadata>
<g transform="translate(0.000000,192.000000) scale(0.100000,-0.100000)"
fill="#000000" stroke="none">
811 c445 -92 729 -532 635 -987 -62 -301 -295 -546 -601 -630 -91 -26 -329
-26 -420 0 -291 80 -516 305 -596 596 -26 91 -26 329 0 420 120 433 542 692
982 601z"/>
<path d="M863 1368 c-27 -31 -43 -62 -43 -88 0 -18 -3 -19 -20 -10 -42 23 -72
-6 -88 -85 l-8 -40 -66 -7 c-67 -6 -113 -23 -104 -37 3 -4 43 -5 90 -3 67 4
87 1 90 -9 2 -8 10 -38 19 -68 l16 -54 -35 -68 c-19 -38 -37 -89 -40 -113 -6
-39 -3 -48 21 -71 23 -24 33 -27 68 -22 23 2 50 8 60 12 14 6 17 2 17 -19 0
-42 39 -54 102 -32 27 9 51 16 52 14 1 -2 18 -24 36 -50 29 -42 68 -78 85 -78
12 0 3 19 -22 52 -16 19 -36 50 -47 69 l-19 35 49 51 c49 50 49 50 125 56 89
6 141 26 164 61 21 32 9 69 -36 112 -28 27 -28 28 -9 41 33 23 25 61 -20 103
l-40 37 25 57 c24 54 33 117 18 116 -5 -1 -25 -36 -45 -80 l-36 -79 -49 14
c-26 8 -60 17 -74 20 -18 3 -31 15 -39 36 -7 17 -39 58 -69 90 -63 66 -93 74
-128 37z m123 -125 l25 -27 -53 -13 c-29 -7 -54 -12 -55 -13 -7 -1 -2 32 9 55
15 33 43 32 74 -2z m-172 -59 c10 -26 7 -34 -14 -34 -13 0 -20 7 -20 18 0 33
23 44 34 16z m280 -61 c22 -28 25 -35 11 -30 -16 7 -76 22 -170 43 -27 6 -28
7 -10 14 11 5 47 9 80 9 57 1 61 -1 89 -36z m69 5 c9 -8 13 -18 9 -25 -5 -8
-14 -4 -29 13 -23 25 -9 33 20 12z m-364 -58 c-6 -16 -13 -30 -15 -30 -2 0 -4
14 -4 30 0 20 5 30 14 30 12 0 13 -6 5 -30z m449 8 c16 -16 15 -38 0 -38 -23
0 -41 18 -35 34 8 19 19 20 35 4z m-239 -23 c44 -14 83 -30 87 -36 7 -12 -123
-139 -142 -139 -11 0 -54 153 -54 189 0 16 20 14 109 -14z m-169 -23 c0 -10
11 -52 25 -92 14 -40 25 -78 25 -83 0 -19 -37 24 -65 75 -23 41 -26 55 -16 69
6 10 11 26 11 34 0 8 5 15 10 15 6 0 10 -8 10 -18z m310 -79 c-10 -43 -59
-115 -80 -119 -8 -1 -28 -5 -45 -10 -27 -7 -22 1 50 79 44 47 81 86 81 86 1 1
-2 -16 -6 -36z m84 -15 c9 -12 16 -31 16 -40 0 -19 -36 -38 -71 -38 -18 0 -19
2 -4 30 8 16 15 38 15 50 0 27 25 26 44 -2z m-384 -120 c0 -10 -44 -21 -67
-16 -22 4 -29 48 -13 78 11 21 12 21 45 -17 19 -21 34 -41 35 -45z m175 -38
c-21 -24 -35 -26 -35 -6 0 8 10 17 23 19 12 2 24 5 26 6 2 0 -4 -8 -14 -19z
m-83 -52 c-5 -5 -20 -8 -33 -6 l-24 3 24 24 c22 22 24 22 33 6 7 -11 7 -20 0
-27z"/>
</g>
</svg>
