<?xml version="1.0" standalone="no"?>
<!DOCTYPE svg PUBLIC "-//W3C//DTD SVG 20010904//EN"
 "http://www.w3.org/TR/2001/REC-SVG-20010904/DTD/svg10.dtd">
<svg version="1.0" xmlns="http://www.w3.org/2000/svg"
 width="192.000000pt" height="192.000000pt" viewBox="0 0 192.000000 192.000000"
 preserveAspectRatio="xMidYMid meet">
<metadata>
Created by potrace 1.16, written by Peter Selinger 2001-2019
</metadata>
<g transform="translate(0.000000,192.000000) scale(0.100000,-0.100000)"
fill="#000000" stroke="none">
811 c445 -92 729 -532 635 -987 -62 -301 -295 -546 -601 -630 -91 -26 -329
-26 -420 0 -291 80 -516 305 -596 596 -26 91 -26 329 0 420 120 433 542 692
982 601z"/>
<path d="M785 1329 c-186 -57 -175 -38 -175 -310 l0 -220 53 -56 c55 -59 159
-132 243 -171 l51 -24 64 32 c94 48 167 100 227 163 l52 56 0 220 c0 273 11
253 -181 311 -74 22 -151 40 -170 39 -19 0 -92 -18 -164 -40z m244 -194 c59
-50 62 -139 7 -183 -20 -15 -24 -29 -28 -90 -4 -78 -13 -94 -53 -94 -40 0 -49
16 -53 94 -4 61 -8 75 -28 90 -83 66 -28 208 81 208 32 0 51 -7 74 -25z"/>
</g>
</svg>
