<?xml version="1.0" standalone="no"?>
<!DOCTYPE svg PUBLIC "-//W3C//DTD SVG 20010904//EN"
 "http://www.w3.org/TR/2001/REC-SVG-20010904/DTD/svg10.dtd">
<svg version="1.0" xmlns="http://www.w3.org/2000/svg"
 width="192.000000pt" height="192.000000pt" viewBox="0 0 192.000000 192.000000"
 preserveAspectRatio="xMidYMid meet">
<metadata>
Created by potrace 1.16, written by Peter Selinger 2001-2019
</metadata>
<g transform="translate(0.000000,192.000000) scale(0.100000,-0.100000)"
fill="#000000" stroke="none">
811 c445 -92 729 -532 635 -987 -62 -301 -295 -546 -601 -630 -91 -26 -329
-26 -420 0 -291 80 -516 305 -596 596 -26 91 -26 329 0 420 120 433 542 692
982 601z"/>
<path d="M656 1361 c-55 -37 -55 -39 -56 -396 0 -309 1 -332 20 -362 10 -17
28 -37 40 -43 14 -7 96 -10 253 -8 227 3 234 4 282 29 70 36 106 96 113 188 4
58 1 77 -18 116 -12 25 -37 58 -55 72 l-32 26 22 33 c66 97 24 276 -77 334
-42 24 -50 25 -253 28 -195 2 -212 1 -239 -17z m379 -151 c69 -16 86 -73 39
-129 l-26 -31 -144 0 -144 0 0 78 c0 43 3 82 7 85 10 10 222 8 268 -3z m82
-349 c17 -11 33 -30 35 -43 6 -41 -10 -92 -37 -115 -25 -22 -34 -23 -191 -23
l-164 0 0 100 0 100 163 0 c143 0 166 -2 194 -19z"/>
</g>
</svg>
