<?xml version="1.0" standalone="no"?>
<!DOCTYPE svg PUBLIC "-//W3C//DTD SVG 20010904//EN"
 "http://www.w3.org/TR/2001/REC-SVG-20010904/DTD/svg10.dtd">
<svg version="1.0" xmlns="http://www.w3.org/2000/svg"
 width="192.000000pt" height="192.000000pt" viewBox="0 0 192.000000 192.000000"
 preserveAspectRatio="xMidYMid meet">
<metadata>
Created by potrace 1.16, written by Peter Selinger 2001-2019
</metadata>
<g transform="translate(0.000000,192.000000) scale(0.100000,-0.100000)"
fill="#000000" stroke="none">
811 c445 -92 729 -532 635 -987 -62 -301 -295 -546 -601 -630 -91 -26 -329
-26 -420 0 -291 80 -516 305 -596 596 -26 91 -26 329 0 420 120 433 542 692
982 601z"/>
<path d="M593 1345 c-20 -14 -23 -25 -23 -79 0 -35 5 -67 12 -74 7 -7 40 -12
80 -12 56 0 69 3 78 19 14 28 12 114 -4 136 -19 26 -113 33 -143 10z"/>
<path d="M793 1345 c-20 -14 -23 -25 -23 -79 0 -71 10 -86 57 -86 31 0 33 2
33 34 0 39 13 53 55 58 34 4 44 31 22 62 -20 27 -113 34 -144 11z"/>
<path d="M886 1244 c-11 -10 -16 -34 -16 -74 0 -77 13 -90 90 -90 77 0 90 13
90 89 0 75 -16 91 -93 91 -37 0 -61 -5 -71 -16z"/>
<path d="M1087 1242 c-23 -25 -23 -124 -1 -146 21 -22 127 -22 148 0 24 23 22
126 -2 147 -27 24 -123 23 -145 -1z"/>
<path d="M600 1148 c-22 -12 -25 -21 -28 -77 -4 -83 4 -91 89 -91 57 0 70 3
79 19 14 28 12 114 -3 135 -17 24 -102 32 -137 14z"/>
<path d="M1087 1042 c-24 -27 -23 -123 1 -145 25 -23 124 -23 146 -1 22 21 22
127 0 148 -23 24 -126 22 -147 -2z"/>
<path d="M603 950 c-12 -5 -26 -18 -32 -29 -16 -29 -13 -93 4 -118 32 -46 156
-38 169 10 11 42 6 95 -12 117 -20 25 -92 36 -129 20z"/>
<path d="M800 948 c-22 -12 -25 -21 -28 -79 -4 -82 8 -94 90 -94 47 0 63 4 74
19 18 25 18 116 1 140 -17 24 -102 32 -137 14z"/>
<path d="M1270 925 c0 -34 -33 -65 -71 -65 -28 0 -30 -2 -27 -32 4 -43 37 -60
102 -55 61 5 76 24 76 90 0 64 -13 87 -50 87 -25 0 -30 -4 -30 -25z"/>
<path d="M574 725 c-19 -29 -15 -118 5 -138 16 -16 136 -16 152 0 20 20 24
109 5 138 -15 22 -23 25 -81 25 -58 0 -66 -3 -81 -25z"/>
<path d="M782 738 c-7 -7 -12 -39 -12 -75 0 -56 3 -64 25 -79 34 -22 122 -15
142 12 15 21 17 107 3 135 -9 16 -22 19 -78 19 -40 0 -73 -5 -80 -12z"/>
<path d="M982 738 c-7 -7 -12 -39 -12 -75 0 -56 3 -64 25 -79 34 -22 122 -15
142 12 15 21 17 107 3 135 -9 16 -22 19 -78 19 -40 0 -73 -5 -80 -12z"/>
<path d="M1182 738 c-7 -7 -12 -39 -12 -74 0 -77 12 -89 92 -89 72 0 88 16 88
88 0 78 -9 87 -88 87 -40 0 -73 -5 -80 -12z"/>
</g>
</svg>
