<?xml version="1.0" standalone="no"?>
<!DOCTYPE svg PUBLIC "-//W3C//DTD SVG 20010904//EN"
 "http://www.w3.org/TR/2001/REC-SVG-20010904/DTD/svg10.dtd">
<svg version="1.0" xmlns="http://www.w3.org/2000/svg"
 width="192.000000pt" height="192.000000pt" viewBox="0 0 192.000000 192.000000"
 preserveAspectRatio="xMidYMid meet">
<metadata>
Created by potrace 1.16, written by Peter Selinger 2001-2019
</metadata>
<g transform="translate(0.000000,192.000000) scale(0.100000,-0.100000)"
fill="#000000" stroke="none">
811 c445 -92 729 -532 635 -987 -62 -301 -295 -546 -601 -630 -91 -26 -329
-26 -420 0 -291 80 -516 305 -596 596 -26 91 -26 329 0 420 120 433 542 692
982 601z"/>
<path d="M890 1354 c-40 -27 -210 -197 -210 -211 0 -14 249 -143 275 -143 18
0 271 125 279 138 6 10 -188 204 -221 221 -32 16 -95 13 -123 -5z"/>
<path d="M582 1057 c-43 -44 -57 -87 -43 -130 13 -39 338 -367 364 -367 15 0
17 19 17 193 l0 194 -150 71 c-82 40 -151 72 -153 72 -2 0 -17 -15 -35 -33z"/>
<path d="M1138 1018 l-148 -71 0 -194 c0 -174 2 -193 17 -193 9 0 92 75 185
167 180 179 199 207 179 266 -11 29 -67 97 -80 97 -4 0 -72 -33 -153 -72z"/>
</g>
</svg>
