<?xml version="1.0" standalone="no"?>
<!DOCTYPE svg PUBLIC "-//W3C//DTD SVG 20010904//EN"
 "http://www.w3.org/TR/2001/REC-SVG-20010904/DTD/svg10.dtd">
<svg version="1.0" xmlns="http://www.w3.org/2000/svg"
 width="192.000000pt" height="192.000000pt" viewBox="0 0 192.000000 192.000000"
 preserveAspectRatio="xMidYMid meet">
<metadata>
Created by potrace 1.16, written by Peter Selinger 2001-2019
</metadata>
<g transform="translate(0.000000,192.000000) scale(0.100000,-0.100000)"
fill="#000000" stroke="none">
811 c445 -92 729 -532 635 -987 -62 -301 -295 -546 -601 -630 -91 -26 -329
-26 -420 0 -291 80 -516 305 -596 596 -26 91 -26 329 0 420 120 433 542 692
982 601z"/>
<path d="M900 1356 c-65 -47 -113 -68 -174 -77 -52 -7 -66 -14 -93 -43 l-33
-36 0 -122 c0 -196 35 -302 132 -399 53 -53 175 -119 220 -119 46 0 151 55
211 110 101 92 147 223 147 418 0 80 -4 103 -20 130 -21 34 -72 62 -113 62
-39 0 -109 28 -149 61 -53 42 -85 46 -128 15z m192 -141 c29 -8 64 -15 79 -15
46 0 59 -23 59 -101 0 -38 -3 -69 -7 -69 -8 0 -198 138 -271 197 l-42 35 22
17 c21 18 23 17 65 -15 24 -18 67 -40 95 -49z m-147 -195 c127 -84 223 -150
215 -147 -8 3 -112 45 -230 94 -118 49 -223 93 -232 96 -14 5 -18 18 -18 63 0
49 2 56 18 52 9 -3 121 -74 247 -158z m-75 -177 c85 -72 161 -137 167 -145 11
-12 5 -18 -36 -38 l-49 -22 -55 25 c-107 49 -174 131 -201 247 -21 88 -21 97
2 78 9 -8 87 -73 172 -145z"/>
</g>
</svg>
