<?xml version="1.0" standalone="no"?>
<!DOCTYPE svg PUBLIC "-//W3C//DTD SVG 20010904//EN"
 "http://www.w3.org/TR/2001/REC-SVG-20010904/DTD/svg10.dtd">
<svg version="1.0" xmlns="http://www.w3.org/2000/svg"
 width="192.000000pt" height="192.000000pt" viewBox="0 0 192.000000 192.000000"
 preserveAspectRatio="xMidYMid meet">
<metadata>
Created by potrace 1.16, written by Peter Selinger 2001-2019
</metadata>
<g transform="translate(0.000000,192.000000) scale(0.100000,-0.100000)"
fill="#000000" stroke="none">
811 c445 -92 729 -532 635 -987 -62 -301 -295 -546 -601 -630 -91 -26 -329
-26 -420 0 -291 80 -516 305 -596 596 -26 91 -26 329 0 420 120 433 542 692
982 601z"/>
<path d="M966 1364 c-9 -8 -16 -31 -16 -50 0 -40 -15 -74 -32 -74 -9 0 -9 3 0
12 7 7 12 26 12 44 0 27 -5 34 -31 43 -74 26 -149 4 -149 -43 0 -20 -7 -25
-40 -30 -26 -4 -51 -18 -75 -41 -46 -46 -46 -76 0 -111 42 -32 46 -50 6 -26
-28 16 -31 16 -52 -3 -46 -42 -63 -121 -31 -152 13 -14 16 -31 14 -70 -5 -90
28 -123 92 -93 22 10 48 15 60 11 19 -5 19 -6 -5 -9 -15 -2 -35 -12 -44 -22
-23 -25 -7 -75 39 -119 28 -27 39 -32 63 -27 21 5 34 2 43 -9 20 -25 65 -45
99 -45 36 0 61 31 61 76 0 17 7 38 17 45 15 13 15 12 4 -9 -13 -24 -6 -62 13
-74 18 -12 99 -9 126 5 16 8 26 23 28 40 2 16 9 27 19 27 29 0 91 43 109 75
17 31 17 35 1 59 -10 14 -22 26 -27 26 -13 0 -40 30 -40 45 0 9 9 5 25 -10 31
-32 48 -31 74 1 29 37 44 96 31 128 -5 14 -13 26 -17 26 -5 0 -6 23 -5 50 7
95 -41 126 -108 72 -41 -34 -80 -56 -86 -49 -3 3 10 14 28 25 62 38 80 65 72
107 -7 40 -44 91 -74 100 -11 3 -28 2 -38 -4 -15 -8 -24 -5 -43 15 -27 29 -70
54 -93 54 -8 0 -22 -7 -30 -16z m49 -244 c3 -5 12 -7 19 -4 17 7 46 -22 46
-46 0 -10 8 -20 19 -23 24 -6 38 -96 19 -130 -7 -12 -11 -30 -10 -39 2 -9 -9
-25 -25 -35 -15 -10 -33 -24 -39 -32 -6 -8 -26 -14 -45 -13 -18 0 -40 -4 -47
-10 -10 -9 -21 -8 -45 4 -18 9 -40 19 -50 22 -9 3 -20 14 -24 23 -4 10 -17 28
-31 41 -15 15 -22 30 -19 42 3 11 1 23 -4 26 -14 8 -11 37 8 64 10 14 16 33
15 42 -2 10 9 25 25 35 15 10 33 24 39 32 7 9 23 12 46 9 20 -2 40 2 47 9 12
13 43 4 56 -17z"/>
<path d="M903 1064 c-31 -15 -63 -65 -63 -98 0 -38 30 -86 63 -102 76 -36 157
16 157 100 0 48 -19 80 -60 101 -36 19 -57 19 -97 -1z m81 -60 c33 -33 12 -94
-33 -94 -16 0 -51 38 -51 55 0 19 35 55 54 55 8 0 22 -7 30 -16z"/>
</g>
</svg>
