<?xml version="1.0" standalone="no"?>
<!DOCTYPE svg PUBLIC "-//W3C//DTD SVG 20010904//EN"
 "http://www.w3.org/TR/2001/REC-SVG-20010904/DTD/svg10.dtd">
<svg version="1.0" xmlns="http://www.w3.org/2000/svg"
 width="192.000000pt" height="192.000000pt" viewBox="0 0 192.000000 192.000000"
 preserveAspectRatio="xMidYMid meet">
<metadata>
Created by potrace 1.16, written by Peter Selinger 2001-2019
</metadata>
<g transform="translate(0.000000,192.000000) scale(0.100000,-0.100000)"
fill="#000000" stroke="none">
811 c445 -92 729 -532 635 -987 -62 -301 -295 -546 -601 -630 -91 -26 -329
-26 -420 0 -291 80 -516 305 -596 596 -26 91 -26 329 0 420 120 433 542 692
982 601z"/>
<path d="M569 1311 c-20 -16 -22 -27 -21 -82 2 -97 12 -200 23 -236 14 -44 71
-91 119 -99 48 -8 59 -20 27 -28 -12 -3 -36 -19 -52 -36 -53 -55 -31 -126 58
-191 78 -57 149 -31 197 70 13 28 28 51 35 51 6 0 17 -16 24 -35 7 -20 30 -54
52 -77 36 -38 41 -40 83 -36 75 9 156 89 156 155 0 37 -29 76 -70 93 -41 17
-38 26 12 33 48 6 86 32 111 74 20 35 36 145 37 251 0 59 -4 76 -20 92 -26 26
-44 25 -105 -4 -74 -34 -239 -218 -271 -300 -5 -12 -20 5 -57 60 -69 105 -167
207 -230 238 -61 31 -77 32 -108 7z"/>
</g>
</svg>
