<?xml version="1.0" standalone="no"?>
<!DOCTYPE svg PUBLIC "-//W3C//DTD SVG 20010904//EN"
 "http://www.w3.org/TR/2001/REC-SVG-20010904/DTD/svg10.dtd">
<svg version="1.0" xmlns="http://www.w3.org/2000/svg"
 width="192.000000pt" height="192.000000pt" viewBox="0 0 192.000000 192.000000"
 preserveAspectRatio="xMidYMid meet">
<metadata>
Created by potrace 1.16, written by Peter Selinger 2001-2019
</metadata>
<g transform="translate(0.000000,192.000000) scale(0.100000,-0.100000)"
fill="#000000" stroke="none">
810 c245 -63 441 -223 549 -451 55 -116 75 -212 75 -354 0 -141 -20 -238 -75
-352 -86 -182 -215 -312 -396 -398 -116 -55 -212 -75 -354 -75 -142 0 -238 20
-354 75 -228 108 -388 304 -451 549 -28 110 -28 292 0 402 76 298 303 526 600
603 106 28 298 28 406 1z"/>
<path d="M923 1398 c-4 -7 -10 -81 -13 -165 l-5 -152 -79 69 c-80 71 -112 84
-136 55 -22 -27 0 -59 100 -145 54 -47 99 -88 99 -92 1 -3 -46 -48 -104 -99
-113 -100 -129 -129 -80 -151 29 -13 46 -4 133 77 33 30 62 55 66 55 3 0 6
-64 6 -143 0 -150 10 -187 48 -187 27 0 266 216 270 243 2 18 -17 41 -90 107
-51 46 -97 87 -101 90 -4 4 37 47 93 95 70 62 100 95 100 110 0 32 -239 245
-274 245 -14 0 -28 -6 -33 -12z m186 -225 c6 -5 -81 -93 -91 -93 -4 0 -8 41
-8 91 l0 92 48 -43 c26 -24 49 -45 51 -47z m1 -403 c0 -8 -86 -90 -95 -90 -3
0 -5 41 -5 91 l0 90 50 -42 c28 -23 50 -45 50 -49z"/>
</g>
</svg>
