<?xml version="1.0" standalone="no"?>
<!DOCTYPE svg PUBLIC "-//W3C//DTD SVG 20010904//EN"
 "http://www.w3.org/TR/2001/REC-SVG-20010904/DTD/svg10.dtd">
<svg version="1.0" xmlns="http://www.w3.org/2000/svg"
 width="192.000000pt" height="192.000000pt" viewBox="0 0 192.000000 192.000000"
 preserveAspectRatio="xMidYMid meet">
<metadata>
Created by potrace 1.16, written by Peter Selinger 2001-2019
</metadata>
<g transform="translate(0.000000,192.000000) scale(0.100000,-0.100000)"
fill="#000000" stroke="none">
810 c245 -63 441 -223 549 -451 55 -116 75 -212 75 -354 0 -141 -20 -238 -75
-352 -86 -182 -215 -312 -396 -398 -116 -55 -212 -75 -354 -75 -142 0 -238 20
-354 75 -228 108 -388 304 -451 549 -28 110 -28 292 0 402 76 298 303 526 600
603 106 28 298 28 406 1z"/>
<path d="M923 1398 c-4 -7 -10 -81 -13 -165 l-5 -152 -79 69 c-78 69 -109 83
-134 58 -22 -22 -12 -47 40 -95 29 -26 77 -71 106 -98 l54 -51 -106 -94 c-114
-101 -130 -130 -81 -152 29 -13 41 -6 135 78 l65 58 3 -149 c3 -156 11 -185
52 -185 17 0 257 207 273 236 9 16 -35 64 -150 166 l-52 45 99 88 c100 88 110
101 103 122 -2 6 -60 61 -128 122 -123 111 -161 131 -182 99z m186 -225 c6 -5
-81 -93 -91 -93 -4 0 -8 41 -8 91 l0 92 48 -43 c26 -24 49 -45 51 -47z m1
-404 c0 -7 -87 -89 -95 -89 -3 0 -5 41 -5 91 l0 90 50 -43 c27 -24 50 -46 50
-49z"/>
</g>
</svg>
