<?xml version="1.0" standalone="no"?>
<!DOCTYPE svg PUBLIC "-//W3C//DTD SVG 20010904//EN"
 "http://www.w3.org/TR/2001/REC-SVG-20010904/DTD/svg10.dtd">
<svg version="1.0" xmlns="http://www.w3.org/2000/svg"
 width="192.000000pt" height="192.000000pt" viewBox="0 0 192.000000 192.000000"
 preserveAspectRatio="xMidYMid meet">
<metadata>
Created by potrace 1.16, written by Peter Selinger 2001-2019
</metadata>
<g transform="translate(0.000000,192.000000) scale(0.100000,-0.100000)"
fill="#000000" stroke="none">
810 c245 -63 441 -223 549 -451 55 -116 75 -212 75 -354 0 -141 -20 -238 -75
-352 -86 -182 -215 -312 -396 -398 -116 -55 -212 -75 -354 -75 -142 0 -238 20
-354 75 -228 108 -388 304 -451 549 -28 110 -28 292 0 402 76 298 303 526 600
603 106 28 298 28 406 1z"/>
<path d="M923 1398 c-4 -7 -10 -82 -13 -166 l-5 -153 -79 71 c-78 69 -109 83
-134 58 -29 -29 -15 -46 152 -197 l49 -44 -39 -36 c-21 -20 -70 -63 -108 -97
-60 -53 -68 -64 -62 -87 8 -32 40 -43 69 -24 12 8 50 40 84 71 33 31 64 56 67
56 3 0 6 -64 6 -143 0 -151 9 -187 49 -187 26 0 265 217 269 244 3 22 -13 38
-186 191 -10 9 8 30 87 100 71 61 101 95 101 110 0 16 -37 55 -125 134 -124
110 -161 130 -182 99z m186 -233 c-1 -5 -23 -30 -50 -54 l-49 -44 0 97 0 97
50 -43 c27 -24 50 -47 49 -53z m1 -394 c0 -9 -84 -91 -93 -91 -4 0 -7 41 -7
91 l0 90 50 -42 c28 -23 50 -45 50 -48z"/>
</g>
</svg>
