<?xml version="1.0" standalone="no"?>
<!DOCTYPE svg PUBLIC "-//W3C//DTD SVG 20010904//EN"
 "http://www.w3.org/TR/2001/REC-SVG-20010904/DTD/svg10.dtd">
<svg version="1.0" xmlns="http://www.w3.org/2000/svg"
 width="192.000000pt" height="192.000000pt" viewBox="0 0 192.000000 192.000000"
 preserveAspectRatio="xMidYMid meet">
<metadata>
Created by potrace 1.16, written by Peter Selinger 2001-2019
</metadata>
<g transform="translate(0.000000,192.000000) scale(0.100000,-0.100000)"
fill="#000000" stroke="none">
811 c445 -92 729 -532 635 -987 -62 -301 -295 -546 -601 -630 -91 -26 -329
-26 -420 0 -291 80 -516 305 -596 596 -26 91 -26 329 0 420 120 433 542 692
982 601z"/>
<path d="M887 1369 c-53 -8 -159 -57 -195 -88 -21 -19 -23 -26 -17 -71 9 -62
42 -128 78 -154 35 -26 139 -33 233 -17 36 7 68 11 70 9 1 -2 -6 -42 -16 -88
-21 -93 -24 -120 -12 -120 16 0 312 242 312 256 0 50 -101 176 -175 220 -84
49 -186 69 -278 53z"/>
<path d="M561 1079 c-20 -65 -15 -187 9 -252 53 -142 173 -241 322 -267 172
-30 355 66 430 225 27 58 54 180 38 173 -3 -2 -100 -77 -214 -168 -114 -91
-216 -166 -226 -168 -11 -2 -25 6 -34 20 -14 21 -13 33 9 133 13 61 24 115 25
120 0 6 -29 10 -68 10 -40 0 -86 7 -114 18 -60 23 -124 92 -140 152 -7 25 -15
45 -18 45 -4 0 -12 -18 -19 -41z"/>
</g>
</svg>
