<?xml version="1.0" standalone="no"?>
<!DOCTYPE svg PUBLIC "-//W3C//DTD SVG 20010904//EN"
 "http://www.w3.org/TR/2001/REC-SVG-20010904/DTD/svg10.dtd">
<svg version="1.0" xmlns="http://www.w3.org/2000/svg"
 width="192.000000pt" height="192.000000pt" viewBox="0 0 192.000000 192.000000"
 preserveAspectRatio="xMidYMid meet">
<metadata>
Created by potrace 1.16, written by Peter Selinger 2001-2019
</metadata>
<g transform="translate(0.000000,192.000000) scale(0.100000,-0.100000)"
fill="#000000" stroke="none">
810 c245 -63 441 -223 549 -451 55 -116 75 -212 75 -354 0 -141 -20 -238 -75
-352 -86 -182 -215 -312 -396 -398 -116 -55 -212 -75 -354 -75 -142 0 -238 20
-354 75 -228 108 -388 304 -451 549 -28 110 -28 292 0 402 76 298 303 526 600
603 106 28 298 28 406 1z"/>
<path d="M923 1398 c-4 -7 -10 -82 -13 -166 l-5 -153 -79 71 c-83 74 -116 85
-139 49 -16 -26 -5 -41 101 -135 55 -49 101 -92 101 -96 1 -3 -46 -48 -104
-99 -113 -100 -129 -129 -80 -151 29 -13 42 -6 132 76 33 31 64 56 67 56 3 0
6 -64 6 -143 0 -151 9 -187 49 -187 26 0 265 217 269 244 2 17 -18 41 -90 106
-51 46 -97 87 -101 90 -4 4 37 47 93 95 71 63 100 95 100 111 0 16 -35 53
-125 133 -124 110 -161 130 -182 99z m185 -230 c3 -7 -72 -80 -89 -86 -5 -2
-9 38 -9 88 l0 93 48 -44 c26 -24 48 -47 50 -51z m2 -398 c0 -8 -86 -90 -95
-90 -3 0 -5 41 -5 91 l0 90 50 -42 c28 -23 50 -45 50 -49z"/>
</g>
</svg>
