<?xml version="1.0" standalone="no"?>
<!DOCTYPE svg PUBLIC "-//W3C//DTD SVG 20010904//EN"
 "http://www.w3.org/TR/2001/REC-SVG-20010904/DTD/svg10.dtd">
<svg version="1.0" xmlns="http://www.w3.org/2000/svg"
 width="192.000000pt" height="192.000000pt" viewBox="0 0 192.000000 192.000000"
 preserveAspectRatio="xMidYMid meet">
<metadata>
Created by potrace 1.16, written by Peter Selinger 2001-2019
</metadata>
<g transform="translate(0.000000,192.000000) scale(0.100000,-0.100000)"
fill="#000000" stroke="none">
811 c445 -92 729 -532 635 -987 -62 -301 -295 -546 -601 -630 -91 -26 -329
-26 -420 0 -291 80 -516 305 -596 596 -26 91 -26 329 0 420 120 433 542 692
982 601z"/>
<path d="M879 1360 c-20 -10 -50 -35 -67 -54 -23 -27 -39 -36 -62 -36 -39 0
-98 -24 -128 -53 -57 -53 -78 -152 -48 -222 11 -25 10 -36 -2 -65 -20 -50 -12
-139 18 -182 31 -47 80 -79 130 -85 32 -5 47 -14 67 -40 47 -61 126 -89 207
-71 39 8 60 21 97 59 40 41 54 49 84 49 119 0 210 135 170 252 -14 44 -14 52
1 104 19 65 11 113 -28 170 -24 36 -106 84 -144 84 -13 0 -32 14 -48 34 -53
70 -170 97 -247 56z m147 -56 c43 -20 65 -45 46 -52 -26 -8 -83 -65 -100 -99
l-18 -34 -18 41 c-9 22 -33 52 -52 66 -38 30 -35 41 21 76 37 22 76 23 121 2z
m-256 -134 c0 -23 9 -59 20 -80 l20 -40 -50 0 c-28 0 -67 -7 -87 -15 -42 -18
-53 -10 -53 41 0 41 37 95 80 116 57 29 70 24 70 -22z m470 7 c32 -24 50 -62
50 -104 0 -51 -10 -59 -49 -38 -17 8 -50 15 -75 15 l-46 0 20 33 c11 17 23 53
26 79 6 45 7 46 33 37 14 -6 33 -15 41 -22z m-140 -17 c0 -29 -51 -100 -72
-100 -20 0 1 73 28 102 35 36 44 35 44 -2z m-235 -4 c23 -35 37 -88 22 -83
-18 5 -57 67 -57 88 0 26 16 24 35 -5z m-46 -180 c24 -13 24 -14 3 -25 -29
-16 -104 -14 -128 3 -18 14 -18 15 6 25 35 14 91 13 119 -3z m404 -5 c29 -29
-91 -44 -129 -17 -18 14 -18 15 6 25 30 13 107 8 123 -8z m-523 -87 c19 -7 47
-13 61 -14 l27 0 -19 -37 c-10 -21 -19 -55 -19 -76 0 -37 -1 -39 -26 -33 -41
11 -71 34 -88 71 -26 55 -18 123 13 109 9 -4 32 -13 51 -20z m590 -27 c0 -51
-28 -100 -69 -122 -52 -26 -68 -21 -75 28 -4 24 -15 59 -25 78 l-18 34 56 1
c31 0 69 7 86 16 16 9 33 14 37 11 5 -2 8 -23 8 -46z m-401 -34 c-7 -36 -64
-101 -76 -89 -13 13 10 77 39 105 38 37 49 33 37 -16z m177 -14 c8 -16 14 -38
14 -50 0 -18 -2 -20 -16 -8 -21 18 -44 64 -44 90 0 18 2 20 16 8 8 -7 22 -25
30 -40z m-38 -106 c31 -27 34 -33 22 -48 -47 -56 -142 -60 -202 -8 -16 14 -14
18 25 47 23 17 51 50 62 72 l20 41 18 -36 c10 -20 35 -50 55 -68z"/>
</g>
</svg>
