<?xml version="1.0" standalone="no"?>
<!DOCTYPE svg PUBLIC "-//W3C//DTD SVG 20010904//EN"
 "http://www.w3.org/TR/2001/REC-SVG-20010904/DTD/svg10.dtd">
<svg version="1.0" xmlns="http://www.w3.org/2000/svg"
 width="192.000000pt" height="192.000000pt" viewBox="0 0 192.000000 192.000000"
 preserveAspectRatio="xMidYMid meet">
<metadata>
Created by potrace 1.16, written by Peter Selinger 2001-2019
</metadata>
<g transform="translate(0.000000,192.000000) scale(0.100000,-0.100000)"
fill="#000000" stroke="none">
811 c445 -92 729 -532 635 -987 -62 -301 -295 -546 -601 -630 -91 -26 -329
-26 -420 0 -291 80 -516 305 -596 596 -26 91 -26 329 0 420 120 433 542 692
982 601z"/>
<path d="M898 1343 c-144 -118 -321 -280 -329 -300 -5 -13 -9 -93 -9 -176 1
-203 17 -248 105 -288 35 -16 69 -19 290 -19 221 0 255 3 290 19 88 40 104 85
105 288 0 83 -4 163 -9 176 -5 13 -74 80 -153 148 -200 174 -207 179 -233 179
-13 0 -38 -12 -57 -27z m-38 -333 c0 -115 29 -160 103 -160 82 0 120 110 56
164 -17 14 -41 26 -55 26 -21 0 -24 -5 -24 -34 0 -25 5 -35 20 -39 12 -3 20
-14 20 -27 0 -16 -5 -21 -22 -18 -21 3 -23 9 -26 81 l-3 77 134 0 c90 0 137
-4 145 -12 7 -7 12 -30 12 -51 0 -34 -8 -48 -55 -99 l-55 -60 76 -83 c77 -86
89 -117 48 -123 -15 -2 -42 19 -97 78 l-75 80 -108 0 -107 0 -75 -81 c-55 -59
-80 -79 -96 -77 -39 6 -24 43 52 127 l72 80 -55 59 c-47 51 -55 65 -55 99 0
21 5 44 12 51 7 7 42 12 85 12 l73 0 0 -70z"/>
</g>
</svg>
