<?xml version="1.0" standalone="no"?>
<!DOCTYPE svg PUBLIC "-//W3C//DTD SVG 20010904//EN"
 "http://www.w3.org/TR/2001/REC-SVG-20010904/DTD/svg10.dtd">
<svg version="1.0" xmlns="http://www.w3.org/2000/svg"
 width="192.000000pt" height="192.000000pt" viewBox="0 0 192.000000 192.000000"
 preserveAspectRatio="xMidYMid meet">
<metadata>
Created by potrace 1.16, written by Peter Selinger 2001-2019
</metadata>
<g transform="translate(0.000000,192.000000) scale(0.100000,-0.100000)"
fill="#000000" stroke="none">
811 c445 -92 729 -532 635 -987 -62 -301 -295 -546 -601 -630 -91 -26 -329
-26 -420 0 -291 80 -516 305 -596 596 -26 91 -26 329 0 420 120 433 542 692
982 601z"/>
<path d="M547 1174 c-13 -13 -8 -409 5 -422 14 -14 164 -16 222 -2 59 13 79
39 84 110 3 43 0 66 -11 83 -10 15 -12 29 -6 38 5 8 9 42 9 76 0 51 -4 67 -24
90 -24 27 -27 28 -148 31 -68 2 -126 0 -131 -4z m191 -126 c-3 -31 -6 -33 -45
-36 l-43 -3 0 35 c0 36 0 36 46 36 45 0 45 0 42 -32z m8 -153 c9 -36 -11 -55
-57 -55 -39 0 -39 0 -39 40 l0 40 45 0 c39 0 45 -3 51 -25z"/>
<path d="M897 1174 c-13 -13 -8 -409 5 -422 17 -17 74 -15 92 4 12 11 16 37
17 97 l0 82 44 -87 c46 -89 65 -108 109 -108 52 0 56 15 56 219 0 218 -2 224
-70 219 l-45 -3 -5 -95 -5 -95 -50 95 -50 95 -45 3 c-25 2 -49 0 -53 -4z"/>
<path d="M1267 1174 c-13 -13 -8 -409 5 -422 16 -16 73 -15 87 2 8 9 11 75 9
217 l-3 204 -45 3 c-25 2 -49 0 -53 -4z"/>
</g>
</svg>
