<?xml version="1.0" standalone="no"?>
<!DOCTYPE svg PUBLIC "-//W3C//DTD SVG 20010904//EN"
 "http://www.w3.org/TR/2001/REC-SVG-20010904/DTD/svg10.dtd">
<svg version="1.0" xmlns="http://www.w3.org/2000/svg"
 width="192.000000pt" height="192.000000pt" viewBox="0 0 192.000000 192.000000"
 preserveAspectRatio="xMidYMid meet">
<metadata>
Created by potrace 1.16, written by Peter Selinger 2001-2019
</metadata>
<g transform="translate(0.000000,192.000000) scale(0.100000,-0.100000)"
fill="#000000" stroke="none">
811 c445 -92 729 -532 635 -987 -62 -301 -295 -546 -601 -630 -91 -26 -329
-26 -420 0 -291 80 -516 305 -596 596 -26 91 -26 329 0 420 120 433 542 692
982 601z"/>
<path d="M687 1318 c-10 -8 -44 -116 -92 -286 -41 -150 -75 -278 -75 -285 0
-24 20 15 120 235 57 125 105 226 107 224 1 -1 -38 -103 -87 -226 -50 -124
-89 -228 -88 -232 2 -4 90 114 197 262 198 276 260 355 128 163 -103 -149
-294 -430 -302 -444 -19 -30 31 12 266 225 286 258 274 239 -33 -52 -114 -108
-205 -198 -203 -200 4 -5 273 129 393 195 34 19 62 32 62 30 0 -3 -99 -61
-220 -128 -121 -68 -220 -126 -220 -130 0 -3 71 11 157 32 87 22 161 38 166
36 5 -1 -61 -23 -147 -47 -86 -25 -156 -48 -156 -52 0 -11 86 -10 194 2 108
11 195 50 249 110 81 89 66 200 -31 244 l-40 18 50 27 c72 37 110 88 116 153
5 69 -19 101 -90 123 -67 20 -395 22 -421 3z m320 -574 c-3 -3 -12 -4 -19 -1
-8 3 -5 6 6 6 11 1 17 -2 13 -5z"/>
<path d="M1257 1284 c-4 -4 3 -20 14 -36 47 -65 4 -173 -87 -225 -21 -12 -39
-27 -39 -32 0 -5 16 -20 35 -33 88 -60 79 -176 -21 -262 -72 -61 -130 -76
-327 -85 -95 -5 -176 -11 -180 -15 -4 -4 94 -6 218 -4 253 5 291 12 376 77 64
48 97 111 91 172 -5 55 -35 102 -77 121 -38 16 -38 22 2 39 41 17 95 64 114
100 19 38 18 109 -4 135 -29 37 -98 65 -115 48z"/>
</g>
</svg>
