<?xml version="1.0" standalone="no"?>
<!DOCTYPE svg PUBLIC "-//W3C//DTD SVG 20010904//EN"
 "http://www.w3.org/TR/2001/REC-SVG-20010904/DTD/svg10.dtd">
<svg version="1.0" xmlns="http://www.w3.org/2000/svg"
 width="192.000000pt" height="192.000000pt" viewBox="0 0 192.000000 192.000000"
 preserveAspectRatio="xMidYMid meet">
<metadata>
Created by potrace 1.16, written by Peter Selinger 2001-2019
</metadata>
<g transform="translate(0.000000,192.000000) scale(0.100000,-0.100000)"
fill="#000000" stroke="none">
811 c445 -92 729 -532 635 -987 -62 -301 -295 -546 -601 -630 -91 -26 -329
-26 -420 0 -291 80 -516 305 -596 596 -26 91 -26 329 0 420 120 433 542 692
982 601z"/>
<path d="M730 1373 c-37 -14 -74 -49 -91 -87 -17 -37 -19 -70 -19 -319 0 -302
3 -319 56 -369 48 -45 71 -48 323 -48 249 0 271 4 255 44 -5 14 -30 16 -204
16 -206 0 -229 5 -214 44 5 14 29 16 184 16 187 0 215 5 249 41 20 22 21 32
21 317 l0 294 -29 29 -29 29 -244 -1 c-134 0 -250 -3 -258 -6z m333 -166 c39
-25 37 -75 -4 -116 -17 -17 -37 -31 -45 -31 -21 0 -17 -17 5 -23 29 -7 54 -52
47 -84 -10 -38 -66 -89 -111 -102 -22 -6 -67 -11 -100 -10 l-60 1 107 31 c60
16 106 32 104 34 -2 2 -50 -8 -106 -22 -56 -14 -104 -24 -106 -22 -2 2 43 30
101 61 58 32 105 60 105 62 0 2 -51 -21 -112 -51 l-113 -55 140 137 c147 145
140 140 -36 -20 -59 -53 -109 -97 -113 -97 -4 0 36 63 89 140 53 77 94 140 92
140 -3 0 -48 -61 -102 -135 -53 -74 -98 -135 -100 -135 -2 0 19 55 46 122 27
67 47 123 46 125 -2 2 -30 -55 -63 -126 -32 -71 -60 -129 -61 -127 -5 5 80
302 91 315 16 21 223 12 259 -12z m115 -23 c14 -9 22 -26 22 -44 0 -32 -40
-85 -70 -95 -23 -7 -27 -25 -6 -25 20 0 46 -39 46 -70 0 -39 -35 -87 -80 -110
-33 -17 -64 -22 -163 -25 l-122 -4 97 8 c77 7 107 14 141 34 76 45 97 124 43
164 l-23 18 40 35 c40 36 51 72 33 113 -10 22 11 23 42 1z"/>
</g>
</svg>
