<?xml version="1.0" standalone="no"?>
<!DOCTYPE svg PUBLIC "-//W3C//DTD SVG 20010904//EN"
 "http://www.w3.org/TR/2001/REC-SVG-20010904/DTD/svg10.dtd">
<svg version="1.0" xmlns="http://www.w3.org/2000/svg"
 width="192.000000pt" height="192.000000pt" viewBox="0 0 192.000000 192.000000"
 preserveAspectRatio="xMidYMid meet">
<metadata>
Created by potrace 1.16, written by Peter Selinger 2001-2019
</metadata>
<g transform="translate(0.000000,192.000000) scale(0.100000,-0.100000)"
fill="#000000" stroke="none">
811 c445 -92 729 -532 635 -987 -62 -301 -295 -546 -601 -630 -91 -26 -329
-26 -420 0 -291 80 -516 305 -596 596 -26 91 -26 329 0 420 120 433 542 692
982 601z"/>
<path d="M1015 1315 l-25 -24 0 -326 0 -326 25 -24 c13 -14 31 -25 40 -25 20
0 57 19 67 34 4 6 8 160 8 341 0 182 -4 335 -8 341 -10 15 -47 34 -67 34 -9 0
-27 -11 -40 -25z"/>
<path d="M1216 1319 l-26 -20 0 -334 0 -334 26 -20 c35 -27 59 -26 89 4 l25
24 0 326 0 326 -25 24 c-30 30 -54 31 -89 4z"/>
<path d="M600 1308 c-25 -27 -26 -59 -1 -89 18 -22 27 -24 141 -27 138 -4 176
5 187 47 9 33 5 51 -14 74 -14 15 -35 17 -154 17 -129 0 -140 -1 -159 -22z"/>
<path d="M602 1117 c-29 -30 -28 -62 3 -92 23 -24 30 -25 142 -25 142 0 160 4
178 41 18 33 7 72 -24 88 -11 6 -77 11 -149 11 -121 0 -130 -1 -150 -23z"/>
<path d="M602 917 c-20 -21 -22 -34 -22 -151 0 -121 1 -128 25 -151 30 -30 54
-31 89 -4 26 20 26 22 26 155 0 121 -2 136 -20 154 -27 27 -71 26 -98 -3z"/>
<path d="M810 920 c-18 -18 -20 -33 -20 -154 0 -133 0 -135 26 -155 35 -27 59
-26 89 4 24 23 25 30 25 148 0 111 -2 127 -21 151 -25 32 -70 35 -99 6z"/>
</g>
</svg>
