<?xml version="1.0" standalone="no"?>
<!DOCTYPE svg PUBLIC "-//W3C//DTD SVG 20010904//EN"
 "http://www.w3.org/TR/2001/REC-SVG-20010904/DTD/svg10.dtd">
<svg version="1.0" xmlns="http://www.w3.org/2000/svg"
 width="192.000000pt" height="192.000000pt" viewBox="0 0 192.000000 192.000000"
 preserveAspectRatio="xMidYMid meet">
<metadata>
Created by potrace 1.16, written by Peter Selinger 2001-2019
</metadata>
<g transform="translate(0.000000,192.000000) scale(0.100000,-0.100000)"
fill="#000000" stroke="none">
811 c445 -92 729 -532 635 -987 -62 -301 -295 -546 -601 -630 -91 -26 -329
-26 -420 0 -291 80 -516 305 -596 596 -26 91 -26 329 0 420 120 433 542 692
982 601z"/>
<path d="M933 1358 c-6 -7 -18 -37 -27 -65 l-18 -53 -58 0 c-40 0 -64 -5 -74
-16 -27 -26 -22 -35 63 -102 l25 -19 -19 -61 c-15 -50 -16 -64 -5 -77 19 -23
42 -18 94 19 l48 34 48 -34 c53 -38 71 -42 91 -18 13 15 11 26 -18 124 -2 9
15 29 46 53 80 59 66 97 -34 97 l-62 0 -12 43 c-23 78 -61 110 -88 75z"/>
<path d="M650 891 c-5 -11 -10 -81 -10 -156 0 -75 5 -145 10 -156 9 -16 22
-19 79 -19 78 0 127 14 141 40 15 28 12 101 -5 120 -14 15 -14 18 0 30 17 14
21 91 5 120 -14 26 -63 40 -141 40 -57 0 -70 -3 -79 -19z m145 -91 c0 -21 -5
-26 -32 -28 -31 -3 -33 -1 -33 28 0 29 2 31 33 28 27 -2 32 -7 32 -28z m0
-130 c0 -21 -5 -26 -32 -28 -31 -3 -33 -1 -33 28 0 29 2 31 33 28 27 -2 32 -7
32 -28z"/>
<path d="M955 896 c-17 -7 -36 -25 -43 -40 -17 -39 -16 -210 3 -245 38 -74
207 -67 234 9 17 50 14 196 -5 235 -24 52 -118 72 -189 41z m110 -161 l0 -90
-35 0 -35 0 -3 79 c-4 100 -1 108 40 104 l33 -3 0 -90z"/>
<path d="M1192 898 c-17 -17 -17 -309 0 -326 15 -15 51 -15 66 0 17 17 17 309
0 326 -15 15 -51 15 -66 0z"/>
</g>
</svg>
