<?xml version="1.0" standalone="no"?>
<!DOCTYPE svg PUBLIC "-//W3C//DTD SVG 20010904//EN"
 "http://www.w3.org/TR/2001/REC-SVG-20010904/DTD/svg10.dtd">
<svg version="1.0" xmlns="http://www.w3.org/2000/svg"
 width="192.000000pt" height="192.000000pt" viewBox="0 0 192.000000 192.000000"
 preserveAspectRatio="xMidYMid meet">
<metadata>
Created by potrace 1.16, written by Peter Selinger 2001-2019
</metadata>
<g transform="translate(0.000000,192.000000) scale(0.100000,-0.100000)"
fill="#000000" stroke="none">
811 c445 -92 729 -532 635 -987 -62 -301 -295 -546 -601 -630 -91 -26 -329
-26 -420 0 -291 80 -516 305 -596 596 -26 91 -26 329 0 420 120 433 542 692
982 601z"/>
<path d="M875 1342 c-49 -24 -79 -55 -100 -105 -13 -31 -20 -37 -46 -37 -45 0
-96 -28 -119 -65 -18 -30 -20 -49 -20 -251 0 -325 -13 -314 362 -314 283 0
302 4 345 69 22 33 23 42 23 246 0 204 -1 213 -23 246 -26 39 -78 69 -122 69
-26 0 -33 7 -51 49 -41 92 -158 136 -249 93z m160 -83 c60 -53 51 -59 -85 -59
l-121 0 16 30 c20 38 59 59 112 60 33 0 50 -7 78 -31z m-285 -298 c0 -25 3
-26 39 -23 32 3 42 -1 60 -23 11 -15 21 -36 21 -47 0 -22 -18 -60 -34 -70 -17
-11 -130 -6 -138 6 -4 6 -8 48 -8 93 0 62 4 85 16 98 21 21 44 3 44 -34z m388
-70 c-3 -85 -5 -96 -22 -99 -28 -6 -36 15 -36 105 0 62 4 85 16 98 13 12 19
13 30 4 11 -9 14 -34 12 -108z m-103 29 c11 -12 19 -36 19 -55 0 -49 -27 -75
-81 -75 -54 0 -83 26 -83 75 0 49 29 75 83 75 32 0 49 -6 62 -20z m190 -105
c0 -22 -31 -33 -47 -17 -17 17 -1 44 24 40 15 -2 23 -10 23 -23z"/>
<path d="M754 875 c-8 -31 6 -48 32 -43 29 5 26 62 -3 66 -17 3 -24 -3 -29
-23z"/>
<path d="M950 885 c-17 -21 -2 -50 26 -50 14 0 19 7 19 30 0 34 -24 45 -45 20z"/>
</g>
</svg>
