<?xml version="1.0" standalone="no"?>
<!DOCTYPE svg PUBLIC "-//W3C//DTD SVG 20010904//EN"
 "http://www.w3.org/TR/2001/REC-SVG-20010904/DTD/svg10.dtd">
<svg version="1.0" xmlns="http://www.w3.org/2000/svg"
 width="192.000000pt" height="192.000000pt" viewBox="0 0 192.000000 192.000000"
 preserveAspectRatio="xMidYMid meet">
<metadata>
Created by potrace 1.16, written by Peter Selinger 2001-2019
</metadata>
<g transform="translate(0.000000,192.000000) scale(0.100000,-0.100000)"
fill="#000000" stroke="none">
811 c445 -92 729 -532 635 -987 -62 -301 -295 -546 -601 -630 -91 -26 -329
-26 -420 0 -291 80 -516 305 -596 596 -26 91 -26 329 0 420 120 433 542 692
982 601z"/>
<path d="M857 1369 c-110 -26 -210 -108 -263 -214 -126 -255 20 -547 298 -595
229 -40 452 142 466 381 16 275 -236 491 -501 428z m-3 -157 c3 -5 -4 -62 -14
-127 -10 -65 -17 -122 -14 -127 3 -4 24 -8 46 -8 l41 0 -7 -95 c-5 -59 -4 -95
2 -95 11 0 182 271 182 288 0 7 -16 12 -40 12 -22 0 -40 3 -39 8 1 24 67 138
81 140 25 5 84 -53 112 -110 21 -41 26 -66 26 -122 -1 -120 -51 -205 -151
-255 -144 -72 -305 -17 -376 127 -37 75 -38 173 -4 244 38 79 134 153 155 120z"/>
</g>
</svg>
