<?xml version="1.0" standalone="no"?>
<!DOCTYPE svg PUBLIC "-//W3C//DTD SVG 20010904//EN"
 "http://www.w3.org/TR/2001/REC-SVG-20010904/DTD/svg10.dtd">
<svg version="1.0" xmlns="http://www.w3.org/2000/svg"
 width="192.000000pt" height="192.000000pt" viewBox="0 0 192.000000 192.000000"
 preserveAspectRatio="xMidYMid meet">
<metadata>
Created by potrace 1.16, written by Peter Selinger 2001-2019
</metadata>
<g transform="translate(0.000000,192.000000) scale(0.100000,-0.100000)"
fill="#000000" stroke="none">
811 c445 -92 729 -532 635 -987 -62 -301 -295 -546 -601 -630 -91 -26 -329
-26 -420 0 -291 80 -516 305 -596 596 -26 91 -26 329 0 420 120 433 542 692
982 601z"/>
<path d="M554 1247 c-2 -7 -3 -67 -2 -133 l3 -119 73 -3 c66 -3 74 -1 98 23
22 22 25 32 20 68 -3 23 -6 61 -5 84 0 33 -6 49 -25 68 -22 22 -34 25 -91 25
-45 0 -67 -4 -71 -13z m116 -72 c0 -8 -9 -15 -20 -15 -11 0 -20 7 -20 15 0 8
9 15 20 15 11 0 20 -7 20 -15z m10 -100 c0 -9 -9 -15 -25 -15 -16 0 -25 6 -25
15 0 9 9 15 25 15 16 0 25 -6 25 -15z"/>
<path d="M1018 1253 c-16 -4 -18 -19 -20 -109 -1 -57 -2 -114 -2 -126 -1 -19
5 -23 37 -26 l37 -3 0 135 c0 146 1 143 -52 129z"/>
<path d="M1113 1223 c-22 -4 -23 -9 -23 -102 0 -110 11 -131 68 -131 29 0 32
3 32 30 0 20 -5 30 -15 30 -10 0 -15 10 -15 30 0 20 5 30 15 30 10 0 15 11 15
35 0 24 -5 35 -15 35 -9 0 -15 9 -15 25 0 25 -4 26 -47 18z"/>
<path d="M840 1183 c-28 -10 -59 -46 -65 -75 -21 -94 97 -157 166 -89 51 51
33 137 -33 160 -33 12 -45 12 -68 4z m55 -98 c0 -30 -39 -27 -43 3 -3 20 0 23
20 20 15 -2 23 -10 23 -23z"/>
<path d="M847 963 c-13 -13 -7 -42 12 -52 27 -15 56 9 47 37 -7 21 -44 31 -59
15z"/>
<path d="M555 937 c-3 -7 -4 -69 -3 -138 l3 -124 35 0 c35 0 35 0 38 48 l3 47
40 0 c39 0 39 0 39 40 l0 40 -40 0 c-22 0 -40 5 -40 10 0 6 23 10 51 10 l50 0
-3 38 -3 37 -83 3 c-62 2 -84 -1 -87 -11z"/>
<path d="M1287 943 c-4 -3 -7 -23 -7 -44 0 -32 -3 -36 -20 -32 -66 17 -124
-64 -95 -133 18 -43 58 -60 135 -60 l55 1 3 115 c4 145 0 160 -37 160 -15 0
-31 -3 -34 -7z m-12 -168 c0 -13 -8 -21 -22 -23 -17 -3 -23 2 -23 16 0 10 3
22 7 26 13 13 38 1 38 -19z"/>
<path d="M759 841 c-49 -49 -38 -125 23 -157 66 -34 143 12 143 88 0 33 -6 45
-33 69 -44 40 -93 40 -133 0z m89 -69 c3 -16 -2 -22 -17 -22 -26 0 -36 17 -20
36 16 19 33 13 37 -14z"/>
<path d="M973 835 c-31 -31 -35 -40 -30 -72 12 -72 83 -111 145 -79 61 32 72
108 23 157 -43 43 -92 40 -138 -6z m87 -50 c15 -18 5 -35 -21 -35 -12 0 -19 7
-19 18 0 33 20 42 40 17z"/>
</g>
</svg>
