<?xml version="1.0" standalone="no"?>
<!DOCTYPE svg PUBLIC "-//W3C//DTD SVG 20010904//EN"
 "http://www.w3.org/TR/2001/REC-SVG-20010904/DTD/svg10.dtd">
<svg version="1.0" xmlns="http://www.w3.org/2000/svg"
 width="192.000000pt" height="192.000000pt" viewBox="0 0 192.000000 192.000000"
 preserveAspectRatio="xMidYMid meet">
<metadata>
Created by potrace 1.16, written by Peter Selinger 2001-2019
</metadata>
<g transform="translate(0.000000,192.000000) scale(0.100000,-0.100000)"
fill="#000000" stroke="none">
811 c445 -92 729 -532 635 -987 -62 -301 -295 -546 -601 -630 -91 -26 -329
-26 -420 0 -291 80 -516 305 -596 596 -26 91 -26 329 0 420 120 433 542 692
982 601z"/>
<path d="M547 1193 c-4 -3 -7 -82 -7 -174 l0 -169 26 -6 c14 -4 57 -4 96 -2
83 6 117 27 136 83 11 33 10 43 -6 76 -11 23 -16 43 -11 51 24 37 -4 109 -51
133 -29 15 -170 22 -183 8z m153 -102 c0 -20 -18 -31 -51 -31 -14 0 -19 7 -19
25 0 22 4 25 35 25 28 0 35 -4 35 -19z m15 -136 c0 -16 -8 -21 -42 -23 -40 -3
-43 -2 -43 23 0 25 3 26 43 23 34 -2 42 -7 42 -23z"/>
<path d="M1185 1195 c-5 -2 -22 -6 -38 -9 l-27 -7 2 -167 3 -167 40 0 40 0 3
169 c2 162 -1 187 -23 181z"/>
<path d="M1278 1147 l-38 -9 0 -123 c0 -148 9 -167 81 -169 42 -1 44 0 47 30
2 25 -1 33 -17 37 -17 4 -21 13 -21 51 0 39 3 46 20 46 17 0 20 7 20 40 0 33
-3 40 -20 40 -15 0 -20 7 -20 29 0 37 -6 40 -52 28z"/>
<path d="M901 1082 c-40 -21 -71 -73 -71 -117 0 -66 65 -125 138 -125 40 0 93
38 115 82 31 64 -3 140 -76 167 -40 16 -67 14 -106 -7z m87 -81 c8 -5 12 -21
10 -37 -3 -32 -38 -45 -64 -24 -40 34 9 90 54 61z"/>
<path d="M932 798 c-15 -15 -15 -41 0 -56 18 -18 56 -14 68 7 13 25 13 27 -6
45 -18 19 -45 21 -62 4z"/>
</g>
</svg>
