<?xml version="1.0" standalone="no"?>
<!DOCTYPE svg PUBLIC "-//W3C//DTD SVG 20010904//EN"
 "http://www.w3.org/TR/2001/REC-SVG-20010904/DTD/svg10.dtd">
<svg version="1.0" xmlns="http://www.w3.org/2000/svg"
 width="192.000000pt" height="192.000000pt" viewBox="0 0 192.000000 192.000000"
 preserveAspectRatio="xMidYMid meet">
<metadata>
Created by potrace 1.16, written by Peter Selinger 2001-2019
</metadata>
<g transform="translate(0.000000,192.000000) scale(0.100000,-0.100000)"
fill="#000000" stroke="none">
811 c445 -92 729 -532 635 -987 -62 -301 -295 -546 -601 -630 -91 -26 -329
-26 -420 0 -291 80 -516 305 -596 596 -26 91 -26 329 0 420 120 433 542 692
982 601z"/>
<path d="M884 1346 c-92 -29 -164 -123 -164 -211 0 -67 -37 -253 -58 -293 -11
-20 -31 -56 -43 -79 -22 -40 -23 -45 -9 -70 22 -40 90 -84 140 -90 24 -4 59
-17 78 -29 66 -45 184 -45 253 0 21 14 48 26 59 26 60 0 160 74 160 118 0 13
-15 50 -34 81 -47 79 -60 132 -81 326 -8 72 -23 109 -60 153 -55 65 -160 95
-241 68z m15 -220 c7 -8 11 -27 9 -43 -2 -23 -8 -28 -32 -28 -33 0 -48 27 -35
63 9 25 41 29 58 8z m161 0 c28 -35 -11 -93 -47 -70 -36 22 -23 84 17 84 10 0
23 -7 30 -14z"/>
</g>
</svg>
