<?xml version="1.0" standalone="no"?>
<!DOCTYPE svg PUBLIC "-//W3C//DTD SVG 20010904//EN"
 "http://www.w3.org/TR/2001/REC-SVG-20010904/DTD/svg10.dtd">
<svg version="1.0" xmlns="http://www.w3.org/2000/svg"
 width="192.000000pt" height="192.000000pt" viewBox="0 0 192.000000 192.000000"
 preserveAspectRatio="xMidYMid meet">
<metadata>
Created by potrace 1.16, written by Peter Selinger 2001-2019
</metadata>
<g transform="translate(0.000000,192.000000) scale(0.100000,-0.100000)"
fill="#000000" stroke="none">
811 c445 -92 729 -532 635 -987 -62 -301 -295 -546 -601 -630 -91 -26 -329
-26 -420 0 -291 80 -516 305 -596 596 -26 91 -26 329 0 420 120 433 542 692
982 601z"/>
<path d="M910 1310 c-19 -19 -20 -33 -20 -224 l0 -205 33 -24 c17 -13 40 -27
49 -30 26 -9 48 20 48 63 0 105 149 106 181 1 24 -80 -44 -152 -130 -136 -48
9 -82 27 -176 95 -87 62 -129 80 -184 80 -74 -1 -164 -63 -163 -115 0 -55 63
-77 106 -36 25 23 66 27 99 9 12 -6 52 -33 88 -60 102 -74 167 -100 248 -100
75 0 120 15 169 57 100 84 100 257 1 353 -54 53 -153 74 -221 47 -17 -7 -18 2
-18 99 0 93 -3 109 -20 126 -11 11 -31 20 -45 20 -14 0 -34 -9 -45 -20z"/>
</g>
</svg>
