<?xml version="1.0" standalone="no"?>
<!DOCTYPE svg PUBLIC "-//W3C//DTD SVG 20010904//EN"
 "http://www.w3.org/TR/2001/REC-SVG-20010904/DTD/svg10.dtd">
<svg version="1.0" xmlns="http://www.w3.org/2000/svg"
 width="192.000000pt" height="192.000000pt" viewBox="0 0 192.000000 192.000000"
 preserveAspectRatio="xMidYMid meet">
<metadata>
Created by potrace 1.16, written by Peter Selinger 2001-2019
</metadata>
<g transform="translate(0.000000,192.000000) scale(0.100000,-0.100000)"
fill="#000000" stroke="none">
811 c445 -92 729 -532 635 -987 -62 -301 -295 -546 -601 -630 -91 -26 -329
-26 -420 0 -291 80 -516 305 -596 596 -26 91 -26 329 0 420 120 433 542 692
982 601z"/>
<path d="M721 1341 l-35 -18 -73 -269 c-40 -148 -73 -283 -73 -300 0 -38 24
-61 84 -79 56 -17 68 -13 123 36 58 53 109 67 167 45 49 -19 93 -63 101 -102
3 -13 7 -35 10 -49 7 -34 44 -55 108 -62 78 -8 85 1 140 208 26 96 60 222 75
280 l29 106 -22 37 c-31 51 -30 51 -70 27 -20 -11 -40 -21 -44 -21 -4 0 -16
16 -27 35 -20 38 -35 42 -74 20 -37 -21 -43 -19 -64 20 -22 41 -27 42 -74 13
-34 -21 -36 -21 -46 -4 -6 10 -19 29 -29 42 l-18 24 -39 -20 c-22 -11 -41 -20
-44 -20 -2 0 -13 16 -25 35 -23 40 -32 42 -80 16z"/>
</g>
</svg>
