<?xml version="1.0" standalone="no"?>
<!DOCTYPE svg PUBLIC "-//W3C//DTD SVG 20010904//EN"
 "http://www.w3.org/TR/2001/REC-SVG-20010904/DTD/svg10.dtd">
<svg version="1.0" xmlns="http://www.w3.org/2000/svg"
 width="192.000000pt" height="192.000000pt" viewBox="0 0 192.000000 192.000000"
 preserveAspectRatio="xMidYMid meet">
<metadata>
Created by potrace 1.16, written by Peter Selinger 2001-2019
</metadata>
<g transform="translate(0.000000,192.000000) scale(0.100000,-0.100000)"
fill="#000000" stroke="none">
811 c445 -92 729 -532 635 -987 -62 -301 -295 -546 -601 -630 -91 -26 -329
-26 -420 0 -291 80 -516 305 -596 596 -26 91 -26 329 0 420 120 433 542 692
982 601z"/>
<path d="M456 1081 c-14 -15 -16 -37 -14 -132 l3 -114 42 -3 c55 -4 83 22 83
76 0 21 -5 43 -10 48 -8 8 -7 19 1 37 13 29 6 68 -17 91 -21 22 -67 20 -88 -3z
m62 -59 c3 -27 0 -32 -17 -32 -14 0 -21 6 -21 19 0 56 33 67 38 13z m0 -107
c3 -27 -14 -49 -30 -39 -10 6 -11 58 -1 68 13 13 28 -1 31 -29z"/>
<path d="M610 1080 c-17 -17 -20 -33 -20 -115 0 -107 14 -135 68 -135 52 0 67
30 67 135 0 77 -3 96 -19 114 -24 27 -70 27 -96 1z m65 -116 c0 -72 -3 -89
-15 -89 -12 0 -16 17 -18 79 -3 87 1 110 21 103 8 -2 12 -30 12 -93z"/>
<path d="M771 1074 c-17 -22 -21 -41 -21 -109 0 -97 20 -135 71 -135 55 0 69
28 69 135 0 82 -3 98 -20 115 -29 29 -74 26 -99 -6z m64 -110 c0 -72 -3 -89
-15 -89 -12 0 -16 17 -18 79 -3 87 1 110 21 103 8 -2 12 -30 12 -93z"/>
<path d="M924 1087 c-2 -7 -3 -67 -2 -133 3 -115 4 -119 26 -122 21 -3 22 0
22 53 0 48 3 56 18 53 13 -2 18 -15 20 -56 3 -48 5 -53 25 -50 20 3 22 8 21
60 -1 32 -7 64 -13 72 -9 11 -9 27 2 70 16 58 14 66 -13 66 -12 0 -20 -15 -29
-55 -7 -30 -17 -55 -22 -55 -5 0 -9 25 -9 55 0 49 -2 55 -20 55 -11 0 -23 -6
-26 -13z"/>
<path d="M1090 965 c0 -128 1 -135 20 -135 19 0 20 7 20 135 0 128 -1 135 -20
135 -19 0 -20 -7 -20 -135z"/>
<path d="M1190 1080 c-18 -18 -20 -33 -20 -135 0 -108 1 -115 20 -115 19 0 20
7 20 96 0 104 11 144 36 123 10 -8 14 -37 14 -115 0 -97 1 -104 20 -104 19 0
20 7 20 113 0 86 -4 118 -16 135 -19 28 -67 29 -94 2z"/>
<path d="M1364 1092 c-24 -16 -34 -54 -34 -130 0 -94 21 -132 71 -132 48 0 71
32 67 93 -3 51 -4 52 -35 55 -28 3 -33 0 -33 -17 0 -12 5 -21 11 -21 6 0 9
-14 7 -32 -2 -21 -8 -33 -18 -33 -21 0 -22 176 -2 183 7 2 16 -5 19 -17 8 -30
50 -25 45 4 -8 44 -63 71 -98 47z"/>
</g>
</svg>
