<?xml version="1.0" standalone="no"?>
<!DOCTYPE svg PUBLIC "-//W3C//DTD SVG 20010904//EN"
 "http://www.w3.org/TR/2001/REC-SVG-20010904/DTD/svg10.dtd">
<svg version="1.0" xmlns="http://www.w3.org/2000/svg"
 width="192.000000pt" height="192.000000pt" viewBox="0 0 192.000000 192.000000"
 preserveAspectRatio="xMidYMid meet">
<metadata>
Created by potrace 1.16, written by Peter Selinger 2001-2019
</metadata>
<g transform="translate(0.000000,192.000000) scale(0.100000,-0.100000)"
fill="#000000" stroke="none">
811 c445 -92 729 -532 635 -987 -62 -301 -295 -546 -601 -630 -91 -26 -329
-26 -420 0 -291 80 -516 305 -596 596 -26 91 -26 329 0 420 120 433 542 692
982 601z"/>
<path d="M676 1359 c-35 -27 -36 -86 -3 -117 22 -21 33 -22 181 -22 174 0 210
-9 222 -57 9 -36 -6 -75 -36 -90 -15 -8 -65 -13 -127 -13 -84 0 -103 3 -103
15 0 51 -53 92 -104 79 -44 -11 -56 -39 -56 -130 0 -77 2 -84 26 -103 25 -19
40 -21 200 -21 188 0 216 -6 240 -51 21 -41 17 -65 -15 -101 l-29 -33 -131 -3
-131 -4 0 42 c0 77 -74 116 -134 69 -25 -20 -26 -24 -26 -120 0 -93 2 -102 25
-124 24 -25 26 -25 213 -25 217 0 258 9 321 70 52 51 72 91 78 159 7 72 -9
129 -50 183 l-33 43 18 35 c26 53 23 154 -6 210 -26 52 -90 105 -144 120 -20
5 -112 10 -203 10 -153 0 -168 -2 -193 -21z"/>
</g>
</svg>
