<?xml version="1.0" standalone="no"?>
<!DOCTYPE svg PUBLIC "-//W3C//DTD SVG 20010904//EN"
 "http://www.w3.org/TR/2001/REC-SVG-20010904/DTD/svg10.dtd">
<svg version="1.0" xmlns="http://www.w3.org/2000/svg"
 width="192.000000pt" height="192.000000pt" viewBox="0 0 192.000000 192.000000"
 preserveAspectRatio="xMidYMid meet">
<metadata>
Created by potrace 1.16, written by Peter Selinger 2001-2019
</metadata>
<g transform="translate(0.000000,192.000000) scale(0.100000,-0.100000)"
fill="#000000" stroke="none">
811 c445 -92 729 -532 635 -987 -62 -301 -295 -546 -601 -630 -91 -26 -329
-26 -420 0 -291 80 -516 305 -596 596 -26 91 -26 329 0 420 120 433 542 692
982 601z"/>
<path d="M770 1361 c-81 -26 -148 -91 -174 -169 -19 -54 -23 -383 -6 -444 15
-53 68 -119 120 -148 44 -24 50 -25 250 -25 l205 0 53 30 c117 64 169 216 117
341 -30 74 -137 154 -207 154 -24 0 -28 5 -38 55 -25 120 -121 207 -234 212
-33 1 -72 -1 -86 -6z"/>
</g>
</svg>
