<?xml version="1.0" standalone="no"?>
<!DOCTYPE svg PUBLIC "-//W3C//DTD SVG 20010904//EN"
 "http://www.w3.org/TR/2001/REC-SVG-20010904/DTD/svg10.dtd">
<svg version="1.0" xmlns="http://www.w3.org/2000/svg"
 width="192.000000pt" height="192.000000pt" viewBox="0 0 192.000000 192.000000"
 preserveAspectRatio="xMidYMid meet">
<metadata>
Created by potrace 1.16, written by Peter Selinger 2001-2019
</metadata>
<g transform="translate(0.000000,192.000000) scale(0.100000,-0.100000)"
fill="#000000" stroke="none">
811 c445 -92 729 -532 635 -987 -62 -301 -295 -546 -601 -630 -91 -26 -329
-26 -420 0 -291 80 -516 305 -596 596 -26 91 -26 329 0 420 120 433 542 692
982 601z"/>
<path d="M755 1361 c-16 -4 -40 -13 -51 -19 -35 -19 -83 -80 -89 -114 -3 -18
-5 -156 -3 -305 l3 -273 38 -37 37 -38 228 -3 c220 -3 228 -2 272 20 65 33
101 90 107 170 3 39 1 80 -7 102 -15 46 -66 106 -89 106 -9 -1 -28 -18 -43
-40 -42 -61 -78 -75 -173 -70 -170 9 -232 4 -285 -22 -28 -14 -45 -19 -38 -11
36 44 148 78 287 88 98 7 144 27 194 86 94 109 56 273 -77 341 -33 17 -63 22
-161 24 -66 2 -133 0 -150 -5z"/>
</g>
</svg>
