<?xml version="1.0" standalone="no"?>
<!DOCTYPE svg PUBLIC "-//W3C//DTD SVG 20010904//EN"
 "http://www.w3.org/TR/2001/REC-SVG-20010904/DTD/svg10.dtd">
<svg version="1.0" xmlns="http://www.w3.org/2000/svg"
 width="192.000000pt" height="192.000000pt" viewBox="0 0 192.000000 192.000000"
 preserveAspectRatio="xMidYMid meet">
<metadata>
Created by potrace 1.16, written by Peter Selinger 2001-2019
</metadata>
<g transform="translate(0.000000,192.000000) scale(0.100000,-0.100000)"
fill="#000000" stroke="none">
811 c445 -92 729 -532 635 -987 -62 -301 -295 -546 -601 -630 -91 -26 -329
-26 -420 0 -291 80 -516 305 -596 596 -26 91 -26 329 0 420 120 433 542 692
982 601z"/>
<path d="M1123 1340 c-104 -37 -197 -94 -266 -162 -61 -61 -72 -68 -108 -68
-34 0 -48 -7 -89 -46 -28 -26 -50 -50 -50 -54 0 -4 20 -15 45 -24 25 -10 47
-21 49 -25 3 -4 -1 -27 -8 -51 -11 -36 -19 -46 -46 -55 -52 -18 -117 -108 -70
-97 7 2 20 0 28 -3 13 -5 13 -8 -1 -23 -38 -41 -58 -129 -38 -161 7 -11 13
-10 33 3 14 9 55 23 92 30 81 17 115 38 122 74 5 24 13 30 64 43 l58 15 22
-54 23 -54 43 43 c46 45 70 96 59 128 -4 14 5 27 34 50 85 68 170 207 207 339
20 71 14 104 -26 143 -24 24 -36 29 -77 28 -26 0 -71 -9 -100 -19z m36 -166
c24 -31 26 -43 10 -78 -16 -34 -57 -47 -96 -31 -73 31 -49 135 32 135 24 0 39
-7 54 -26z m-151 -130 c32 -22 27 -73 -9 -93 -24 -13 -29 -13 -53 2 -34 22
-36 69 -4 91 28 20 38 20 66 0z m-244 -294 c-5 -5 -25 -13 -43 -16 -33 -7 -34
-7 -27 22 13 51 26 58 55 30 17 -17 22 -29 15 -36z"/>
</g>
</svg>
