<?xml version="1.0" standalone="no"?>
<!DOCTYPE svg PUBLIC "-//W3C//DTD SVG 20010904//EN"
 "http://www.w3.org/TR/2001/REC-SVG-20010904/DTD/svg10.dtd">
<svg version="1.0" xmlns="http://www.w3.org/2000/svg"
 width="192.000000pt" height="192.000000pt" viewBox="0 0 192.000000 192.000000"
 preserveAspectRatio="xMidYMid meet">
<metadata>
Created by potrace 1.16, written by Peter Selinger 2001-2019
</metadata>
<g transform="translate(0.000000,192.000000) scale(0.100000,-0.100000)"
fill="#000000" stroke="none">
811 c445 -92 729 -532 635 -987 -62 -301 -295 -546 -601 -630 -91 -26 -329
-26 -420 0 -291 80 -516 305 -596 596 -26 91 -26 329 0 420 120 433 542 692
982 601z"/>
<path d="M1168 1323 c-36 -4 -37 -6 -47 -56 -12 -58 -71 -394 -71 -402 0 -3
30 -5 68 -5 l67 0 74 223 c41 122 76 228 78 235 5 12 -76 15 -169 5z"/>
<path d="M591 1176 c-7 -8 -13 -40 -14 -73 l-2 -58 33 -3 c25 -3 32 -7 28 -20
-2 -9 -17 -101 -32 -204 -21 -152 -24 -191 -14 -203 10 -12 36 -15 114 -15
117 0 159 10 212 48 l39 28 32 -34 c28 -30 37 -34 65 -28 46 9 73 29 92 69 39
84 4 155 -74 144 -37 -5 -40 -3 -40 18 0 33 -18 76 -41 101 -18 19 -18 23 -4
57 20 48 19 75 -3 116 -33 61 -67 71 -233 71 -114 0 -149 -3 -158 -14z m237
-135 c20 -12 11 -42 -15 -52 -20 -7 -23 -5 -23 20 0 39 12 49 38 32z m33 -181
c23 -13 25 -47 2 -72 -11 -12 -30 -18 -63 -18 l-46 0 4 38 c2 20 9 43 14 50
13 15 62 16 89 2z"/>
</g>
</svg>
