<?xml version="1.0" standalone="no"?>
<!DOCTYPE svg PUBLIC "-//W3C//DTD SVG 20010904//EN"
 "http://www.w3.org/TR/2001/REC-SVG-20010904/DTD/svg10.dtd">
<svg version="1.0" xmlns="http://www.w3.org/2000/svg"
 width="192.000000pt" height="192.000000pt" viewBox="0 0 192.000000 192.000000"
 preserveAspectRatio="xMidYMid meet">
<metadata>
Created by potrace 1.16, written by Peter Selinger 2001-2019
</metadata>
<g transform="translate(0.000000,192.000000) scale(0.100000,-0.100000)"
fill="#000000" stroke="none">
811 c445 -92 729 -532 635 -987 -62 -301 -295 -546 -601 -630 -91 -26 -329
-26 -420 0 -291 80 -516 305 -596 596 -26 91 -26 329 0 420 120 433 542 692
982 601z"/>
<path d="M657 1363 c-4 -3 -7 -170 -7 -370 0 -339 1 -363 18 -363 9 1 26 15
37 33 13 21 37 38 70 50 110 42 128 52 150 81 12 17 30 57 39 88 17 61 49 95
99 105 73 15 120 118 97 214 -15 62 -67 124 -125 150 -33 16 -67 19 -206 19
-91 0 -169 -3 -172 -7z"/>
<path d="M1073 944 c-38 -19 -66 -61 -82 -121 -18 -67 -53 -100 -131 -123 -83
-25 -130 -64 -130 -109 l0 -31 178 0 c175 0 180 1 233 28 34 17 64 42 83 69
66 95 34 237 -65 288 -35 19 -46 18 -86 -1z"/>
</g>
</svg>
