<?xml version="1.0" standalone="no"?>
<!DOCTYPE svg PUBLIC "-//W3C//DTD SVG 20010904//EN"
 "http://www.w3.org/TR/2001/REC-SVG-20010904/DTD/svg10.dtd">
<svg version="1.0" xmlns="http://www.w3.org/2000/svg"
 width="192.000000pt" height="192.000000pt" viewBox="0 0 192.000000 192.000000"
 preserveAspectRatio="xMidYMid meet">
<metadata>
Created by potrace 1.16, written by Peter Selinger 2001-2019
</metadata>
<g transform="translate(0.000000,192.000000) scale(0.100000,-0.100000)"
fill="#000000" stroke="none">
811 c445 -92 729 -532 635 -987 -62 -301 -295 -546 -601 -630 -91 -26 -329
-26 -420 0 -291 80 -516 305 -596 596 -26 91 -26 329 0 420 120 433 542 692
982 601z"/>
<path d="M675 1317 c-45 -25 -80 -72 -95 -126 -13 -47 -13 -405 0 -452 15 -54
50 -101 95 -126 39 -23 46 -23 286 -21 241 3 246 3 281 27 19 13 46 40 59 59
24 35 24 38 24 287 0 249 0 252 -24 287 -13 19 -40 46 -59 59 -35 24 -40 24
-281 27 -240 2 -247 2 -286 -21z m443 -89 c7 -7 12 -29 12 -50 0 -37 1 -38 38
-38 41 0 62 -14 62 -41 0 -20 -20 -29 -65 -29 -33 0 -34 -1 -37 -47 -3 -44 -5
-48 -28 -48 -22 0 -26 5 -30 45 -5 44 -6 45 -45 48 -39 3 -65 16 -65 33 0 20
35 39 71 39 l39 0 0 43 c0 24 3 47 7 50 10 11 28 8 41 -5z"/>
</g>
</svg>
