<?xml version="1.0" standalone="no"?>
<!DOCTYPE svg PUBLIC "-//W3C//DTD SVG 20010904//EN"
 "http://www.w3.org/TR/2001/REC-SVG-20010904/DTD/svg10.dtd">
<svg version="1.0" xmlns="http://www.w3.org/2000/svg"
 width="192.000000pt" height="192.000000pt" viewBox="0 0 192.000000 192.000000"
 preserveAspectRatio="xMidYMid meet">
<metadata>
Created by potrace 1.16, written by Peter Selinger 2001-2019
</metadata>
<g transform="translate(0.000000,192.000000) scale(0.100000,-0.100000)"
fill="#000000" stroke="none">
811 c445 -92 729 -532 635 -987 -62 -301 -295 -546 -601 -630 -91 -26 -329
-26 -420 0 -291 80 -516 305 -596 596 -26 91 -26 329 0 420 120 433 542 692
982 601z"/>
<path d="M569 1281 l-30 -30 3 -259 3 -259 28 -36 c54 -71 57 -72 383 -72
l290 0 41 27 c50 33 83 97 83 159 l0 44 -349 225 c-388 250 -398 255 -452 201z"/>
<path d="M1149 1250 c-120 -78 -128 -85 -108 -105 31 -32 294 -196 309 -193
12 3 15 27 18 151 l3 148 -30 29 c-46 47 -80 41 -192 -30z"/>
</g>
</svg>
