<?xml version="1.0" standalone="no"?>
<!DOCTYPE svg PUBLIC "-//W3C//DTD SVG 20010904//EN"
 "http://www.w3.org/TR/2001/REC-SVG-20010904/DTD/svg10.dtd">
<svg version="1.0" xmlns="http://www.w3.org/2000/svg"
 width="192.000000pt" height="192.000000pt" viewBox="0 0 192.000000 192.000000"
 preserveAspectRatio="xMidYMid meet">
<metadata>
Created by potrace 1.16, written by Peter Selinger 2001-2019
</metadata>
<g transform="translate(0.000000,192.000000) scale(0.100000,-0.100000)"
fill="#000000" stroke="none">
811 c445 -92 729 -532 635 -987 -62 -301 -295 -546 -601 -630 -91 -26 -329
-26 -420 0 -291 80 -516 305 -596 596 -26 91 -26 329 0 420 120 433 542 692
982 601z"/>
<path d="M823 1361 c-229 -84 -345 -352 -247 -571 30 -68 53 -87 84 -70 26 14
25 40 -2 93 -29 57 -36 175 -14 248 33 109 111 185 234 225 72 23 94 43 76 72
-15 24 -69 25 -131 3z"/>
<path d="M1027 1373 c-4 -3 -7 -61 -7 -127 l0 -121 -72 0 c-83 0 -113 -15
-147 -76 -59 -103 19 -233 138 -233 56 1 102 23 133 66 19 27 24 50 28 128 l6
95 23 -49 c30 -64 25 -128 -15 -193 -27 -43 -60 -68 -135 -98 -31 -13 -38 -59
-11 -74 24 -13 68 -1 127 33 110 65 163 192 131 317 -17 66 -61 137 -100 163
-16 10 -26 26 -26 41 0 31 8 31 50 0 51 -37 90 -29 90 20 0 49 -181 141 -213
108z m-43 -344 c52 -41 22 -129 -44 -129 -66 0 -96 88 -44 129 15 12 34 21 44
21 10 0 29 -9 44 -21z"/>
<path d="M1242 1208 c-18 -18 -15 -44 11 -91 19 -36 22 -57 22 -142 0 -90 -3
-105 -28 -153 -15 -29 -46 -71 -68 -93 -42 -42 -128 -89 -164 -89 -29 0 -65
-28 -65 -49 0 -51 69 -52 172 -3 163 77 259 239 245 417 -10 140 -78 250 -125
203z"/>
</g>
</svg>
