<?xml version="1.0" standalone="no"?>
<!DOCTYPE svg PUBLIC "-//W3C//DTD SVG 20010904//EN"
 "http://www.w3.org/TR/2001/REC-SVG-20010904/DTD/svg10.dtd">
<svg version="1.0" xmlns="http://www.w3.org/2000/svg"
 width="192.000000pt" height="192.000000pt" viewBox="0 0 192.000000 192.000000"
 preserveAspectRatio="xMidYMid meet">
<metadata>
Created by potrace 1.16, written by Peter Selinger 2001-2019
</metadata>
<g transform="translate(0.000000,192.000000) scale(0.100000,-0.100000)"
fill="#000000" stroke="none">
811 c445 -92 729 -532 635 -987 -62 -301 -295 -546 -601 -630 -91 -26 -329
-26 -420 0 -291 80 -516 305 -596 596 -26 91 -26 329 0 420 120 433 542 692
982 601z"/>
<path d="M720 1329 c-50 -15 -97 -54 -120 -99 -18 -36 -20 -59 -20 -265 0
-252 6 -278 72 -329 54 -41 107 -48 329 -44 188 3 207 5 246 25 90 48 103 94
103 348 0 254 -13 300 -103 348 -39 21 -56 22 -257 24 -124 1 -230 -2 -250 -8z
m129 -163 c30 -16 51 -53 51 -92 0 -35 -59 -94 -95 -94 -58 0 -104 45 -105
100 0 79 76 123 149 86z m301 -1 c92 -47 50 -185 -56 -185 -37 0 -94 60 -94
97 1 80 78 125 150 88z"/>
</g>
</svg>
