<?xml version="1.0" standalone="no"?>
<!DOCTYPE svg PUBLIC "-//W3C//DTD SVG 20010904//EN"
 "http://www.w3.org/TR/2001/REC-SVG-20010904/DTD/svg10.dtd">
<svg version="1.0" xmlns="http://www.w3.org/2000/svg"
 width="192.000000pt" height="192.000000pt" viewBox="0 0 192.000000 192.000000"
 preserveAspectRatio="xMidYMid meet">
<metadata>
Created by potrace 1.16, written by Peter Selinger 2001-2019
</metadata>
<g transform="translate(0.000000,192.000000) scale(0.100000,-0.100000)"
fill="#000000" stroke="none">
811 c445 -92 729 -532 635 -987 -62 -301 -295 -546 -601 -630 -91 -26 -329
-26 -420 0 -291 80 -516 305 -596 596 -26 91 -26 329 0 420 120 433 542 692
982 601z"/>
<path d="M861 1325 c-126 -36 -218 -114 -277 -240 -59 -122 -68 -243 -26 -337
58 -130 176 -167 475 -148 180 11 216 21 268 72 55 55 73 110 73 213 0 108
-23 175 -90 264 -110 147 -277 217 -423 176z m146 -153 c39 -21 63 -62 63
-108 0 -38 3 -44 20 -44 30 0 98 -37 110 -59 15 -28 12 -87 -5 -121 -17 -33
-66 -73 -109 -90 -48 -18 -167 -30 -231 -22 -58 7 -60 8 -60 37 0 25 4 30 28
33 15 2 28 4 28 5 4 6 25 303 21 307 -2 3 -16 -10 -30 -28 -29 -34 -68 -43
-78 -17 -8 19 29 78 61 99 51 34 127 37 182 8z"/>
<path d="M950 1094 c0 -16 -3 -39 -6 -51 -8 -29 6 -29 35 -2 26 25 24 46 -6
67 -22 14 -23 13 -23 -14z"/>
<path d="M936 927 c-3 -16 -6 -51 -6 -78 0 -48 1 -49 31 -49 117 0 207 73 160
131 -17 22 -27 24 -99 24 l-80 1 -6 -29z"/>
</g>
</svg>
