<?xml version="1.0" standalone="no"?>
<!DOCTYPE svg PUBLIC "-//W3C//DTD SVG 20010904//EN"
 "http://www.w3.org/TR/2001/REC-SVG-20010904/DTD/svg10.dtd">
<svg version="1.0" xmlns="http://www.w3.org/2000/svg"
 width="192.000000pt" height="192.000000pt" viewBox="0 0 192.000000 192.000000"
 preserveAspectRatio="xMidYMid meet">
<metadata>
Created by potrace 1.16, written by Peter Selinger 2001-2019
</metadata>
<g transform="translate(0.000000,192.000000) scale(0.100000,-0.100000)"
fill="#000000" stroke="none">
811 c445 -92 729 -532 635 -987 -62 -301 -295 -546 -601 -630 -91 -26 -329
-26 -420 0 -291 80 -516 305 -596 596 -26 91 -26 329 0 420 120 433 542 692
982 601z"/>
<path d="M878 1370 c-231 -41 -384 -281 -323 -505 33 -125 111 -216 232 -273
52 -24 69 -27 168 -27 104 0 114 2 176 32 161 79 259 262 230 429 -15 81 -34
127 -81 190 -88 117 -255 181 -402 154z m32 -245 c7 -8 27 -15 45 -15 18 0 38
7 45 15 10 11 35 15 110 15 115 0 125 -7 125 -82 0 -43 -4 -53 -33 -79 -28
-25 -40 -29 -93 -29 -76 0 -96 11 -120 66 -11 24 -26 44 -32 44 -18 0 -37 -21
-37 -41 0 -10 -14 -29 -31 -43 -26 -22 -40 -26 -94 -26 -86 0 -115 24 -123 98
-7 81 7 92 128 92 75 0 100 -4 110 -15z"/>
</g>
</svg>
