<?xml version="1.0" standalone="no"?>
<!DOCTYPE svg PUBLIC "-//W3C//DTD SVG 20010904//EN"
 "http://www.w3.org/TR/2001/REC-SVG-20010904/DTD/svg10.dtd">
<svg version="1.0" xmlns="http://www.w3.org/2000/svg"
 width="192.000000pt" height="192.000000pt" viewBox="0 0 192.000000 192.000000"
 preserveAspectRatio="xMidYMid meet">
<metadata>
Created by potrace 1.16, written by Peter Selinger 2001-2019
</metadata>
<g transform="translate(0.000000,192.000000) scale(0.100000,-0.100000)"
fill="#000000" stroke="none">
811 c445 -92 729 -532 635 -987 -62 -301 -295 -546 -601 -630 -91 -26 -329
-26 -420 0 -291 80 -516 305 -596 596 -26 91 -26 329 0 420 120 433 542 692
982 601z"/>
<path d="M856 1369 c-200 -47 -343 -264 -309 -466 39 -224 255 -383 469 -344
178 33 319 176 342 347 21 162 -49 321 -178 404 -95 61 -218 84 -324 59z m235
-97 c74 -36 125 -87 161 -160 29 -59 33 -76 33 -147 0 -67 -5 -89 -28 -137
-36 -74 -96 -134 -165 -166 -47 -22 -71 -27 -137 -27 -71 0 -89 4 -147 33 -73
36 -123 86 -160 161 -18 37 -23 63 -23 136 0 79 4 97 28 147 34 70 109 140
180 168 70 27 192 24 258 -8z"/>
<path d="M871 1196 c-54 -19 -112 -75 -139 -134 -61 -133 13 -286 158 -329
177 -52 348 121 296 299 -39 135 -185 211 -315 164z"/>
</g>
</svg>
