<?xml version="1.0" standalone="no"?>
<!DOCTYPE svg PUBLIC "-//W3C//DTD SVG 20010904//EN"
 "http://www.w3.org/TR/2001/REC-SVG-20010904/DTD/svg10.dtd">
<svg version="1.0" xmlns="http://www.w3.org/2000/svg"
 width="192.000000pt" height="192.000000pt" viewBox="0 0 192.000000 192.000000"
 preserveAspectRatio="xMidYMid meet">
<metadata>
Created by potrace 1.16, written by Peter Selinger 2001-2019
</metadata>
<g transform="translate(0.000000,192.000000) scale(0.100000,-0.100000)"
fill="#000000" stroke="none">
811 c445 -92 729 -532 635 -987 -62 -301 -295 -546 -601 -630 -91 -26 -329
-26 -420 0 -291 80 -516 305 -596 596 -26 91 -26 329 0 420 120 433 542 692
982 601z"/>
<path d="M550 1281 c-5 -11 -10 -81 -10 -158 0 -153 13 -200 65 -241 56 -44
143 -41 194 7 l31 29 31 -29 c73 -68 191 -43 239 51 38 75 17 161 -51 208 -28
20 -44 23 -92 20 -48 -4 -62 -9 -91 -37 -33 -32 -35 -32 -45 -13 -23 42 -133
68 -182 42 -18 -10 -19 -7 -19 49 0 33 -3 66 -6 75 -9 22 -51 20 -64 -3z m189
-196 c32 -16 41 -33 41 -75 0 -46 -31 -75 -80 -75 -50 0 -80 30 -80 79 1 34
14 56 45 74 27 15 41 15 74 -3z m260 0 c32 -16 41 -33 41 -75 0 -46 -31 -75
-80 -75 -50 0 -80 30 -80 79 1 34 14 56 45 74 27 15 41 15 74 -3z"/>
<path d="M1107 1163 c-16 -15 -4 -50 34 -99 l41 -54 -41 -51 c-43 -54 -52 -93
-25 -103 27 -10 33 -7 73 44 l40 51 33 -45 c37 -50 62 -64 83 -46 23 19 18 39
-26 96 -44 58 -44 56 9 121 41 51 41 86 1 91 -22 3 -33 -5 -60 -42 -18 -25
-36 -46 -40 -46 -4 0 -22 20 -40 45 -30 42 -63 57 -82 38z"/>
</g>
</svg>
