<?xml version="1.0" standalone="no"?>
<!DOCTYPE svg PUBLIC "-//W3C//DTD SVG 20010904//EN"
 "http://www.w3.org/TR/2001/REC-SVG-20010904/DTD/svg10.dtd">
<svg version="1.0" xmlns="http://www.w3.org/2000/svg"
 width="192.000000pt" height="192.000000pt" viewBox="0 0 192.000000 192.000000"
 preserveAspectRatio="xMidYMid meet">
<metadata>
Created by potrace 1.16, written by Peter Selinger 2001-2019
</metadata>
<g transform="translate(0.000000,192.000000) scale(0.100000,-0.100000)"
fill="#000000" stroke="none">
811 c445 -92 729 -532 635 -987 -62 -301 -295 -546 -601 -630 -91 -26 -329
-26 -420 0 -291 80 -516 305 -596 596 -26 91 -26 329 0 420 120 433 542 692
982 601z"/>
<path d="M922 1354 c-14 -10 -22 -25 -22 -45 0 -23 -4 -29 -20 -29 -12 0 -37
-8 -58 -19 -20 -10 -55 -22 -76 -25 -52 -10 -106 -63 -106 -104 0 -19 11 -43
27 -63 18 -21 26 -41 25 -59 -5 -44 22 -62 77 -53 25 4 132 7 236 6 123 -1
195 3 203 10 7 6 12 22 10 37 -1 18 7 38 25 59 16 20 27 44 27 63 0 41 -54 94
-106 104 -21 3 -56 15 -76 25 -21 11 -46 19 -58 19 -16 0 -20 6 -20 29 0 29
-29 61 -55 61 -6 0 -21 -7 -33 -16z m-17 -213 l0 -79 -28 15 c-56 28 -61 99
-9 127 15 9 29 15 32 16 3 0 5 -36 5 -79z m135 64 c54 -28 50 -99 -7 -128
l-28 -15 0 79 c0 43 1 79 3 79 2 0 16 -7 32 -15z m-296 -49 c-3 -14 1 -37 10
-55 19 -35 6 -41 -24 -11 -24 24 -25 38 -4 68 20 29 26 28 18 -2z m456 -28 c0
-19 -33 -58 -50 -58 -6 0 -3 14 6 31 10 19 13 41 9 57 -6 26 -6 26 14 8 12
-11 21 -27 21 -38z"/>
<path d="M580 735 l0 -175 115 0 c128 0 163 10 183 55 16 35 15 77 -3 101 -10
13 -13 33 -9 65 7 51 -12 101 -45 119 -11 5 -69 10 -130 10 l-111 0 0 -175z
m198 68 c-3 -14 -14 -18 -53 -18 -39 0 -50 4 -53 18 -3 14 5 17 53 17 48 0 56
-3 53 -17z m17 -138 c0 -18 -8 -20 -62 -23 -62 -3 -63 -2 -63 23 0 25 1 26 63
23 54 -3 62 -5 62 -23z"/>
<path d="M930 735 l0 -175 45 0 45 0 0 65 0 65 38 0 c101 0 154 40 154 116 0
42 -5 53 -31 76 -30 27 -35 28 -141 28 l-110 0 0 -175z m197 82 c3 -4 3 -13 0
-22 -5 -11 -21 -15 -57 -15 -42 0 -50 3 -50 18 0 10 3 22 8 26 8 8 89 2 99 -7z"/>
<path d="M1240 735 l0 -175 45 0 45 0 0 175 0 175 -45 0 -45 0 0 -175z"/>
</g>
</svg>
