<?xml version="1.0" standalone="no"?>
<!DOCTYPE svg PUBLIC "-//W3C//DTD SVG 20010904//EN"
 "http://www.w3.org/TR/2001/REC-SVG-20010904/DTD/svg10.dtd">
<svg version="1.0" xmlns="http://www.w3.org/2000/svg"
 width="192.000000pt" height="192.000000pt" viewBox="0 0 192.000000 192.000000"
 preserveAspectRatio="xMidYMid meet">
<metadata>
Created by potrace 1.16, written by Peter Selinger 2001-2019
</metadata>
<g transform="translate(0.000000,192.000000) scale(0.100000,-0.100000)"
fill="#000000" stroke="none">
811 c445 -92 729 -532 635 -987 -62 -301 -295 -546 -601 -630 -91 -26 -329
-26 -420 0 -291 80 -516 305 -596 596 -26 91 -26 329 0 420 120 433 542 692
982 601z"/>
<path d="M1097 1294 c-4 -4 -7 -38 -7 -75 0 -237 -128 -414 -365 -504 -95 -36
-107 -43 -99 -57 19 -31 232 37 337 108 158 108 242 273 235 457 l-3 72 -45 3
c-25 2 -49 0 -53 -4z"/>
<path d="M850 1243 c-79 -13 -180 -60 -228 -106 -97 -92 -97 -224 0 -313 82
-76 109 -78 205 -15 78 50 147 130 172 197 23 59 28 173 11 218 -9 24 -14 26
-72 25 -35 -1 -74 -4 -88 -6z"/>
<path d="M1245 1068 c-2 -7 -6 -31 -10 -53 -25 -146 -166 -287 -332 -329 -114
-29 -15 -66 125 -47 205 29 333 131 333 265 0 58 -14 94 -57 145 -27 32 -52
40 -59 19z"/>
</g>
</svg>
