<?xml version="1.0" standalone="no"?>
<!DOCTYPE svg PUBLIC "-//W3C//DTD SVG 20010904//EN"
 "http://www.w3.org/TR/2001/REC-SVG-20010904/DTD/svg10.dtd">
<svg version="1.0" xmlns="http://www.w3.org/2000/svg"
 width="192.000000pt" height="192.000000pt" viewBox="0 0 192.000000 192.000000"
 preserveAspectRatio="xMidYMid meet">
<metadata>
Created by potrace 1.16, written by Peter Selinger 2001-2019
</metadata>
<g transform="translate(0.000000,192.000000) scale(0.100000,-0.100000)"
fill="#000000" stroke="none">
811 c445 -92 729 -532 635 -987 -62 -301 -295 -546 -601 -630 -91 -26 -329
-26 -420 0 -291 80 -516 305 -596 596 -26 91 -26 329 0 420 120 433 542 692
982 601z"/>
<path d="M893 1340 c-87 -18 -181 -85 -219 -155 -14 -28 -34 -43 -81 -65 -94
-43 -84 -61 18 -35 23 6 24 4 24 -52 1 -93 52 -191 126 -240 39 -25 63 -25 44
1 -6 7 -24 32 -42 55 -42 56 -59 134 -43 202 15 61 25 64 169 56 114 -7 235
-34 299 -66 49 -25 92 -75 92 -106 0 -34 -41 -78 -105 -111 -58 -31 -76 -62
-29 -50 58 15 157 72 194 113 76 82 48 161 -80 226 -99 50 -215 71 -369 65
l-114 -4 33 27 c100 84 233 96 354 34 63 -33 79 -19 29 25 -77 68 -201 101
-300 80z"/>
<path d="M1000 987 l-55 -32 -1 -160 c-2 -223 -4 -215 61 -215 32 0 57 5 64
14 15 18 11 418 -4 423 -6 2 -35 -12 -65 -30z"/>
<path d="M872 880 c-22 -18 -22 -24 -20 -157 l3 -138 30 0 30 0 3 158 c3 169
0 176 -46 137z"/>
</g>
</svg>
