<?xml version="1.0" standalone="no"?>
<!DOCTYPE svg PUBLIC "-//W3C//DTD SVG 20010904//EN"
 "http://www.w3.org/TR/2001/REC-SVG-20010904/DTD/svg10.dtd">
<svg version="1.0" xmlns="http://www.w3.org/2000/svg"
 width="192.000000pt" height="192.000000pt" viewBox="0 0 192.000000 192.000000"
 preserveAspectRatio="xMidYMid meet">
<metadata>
Created by potrace 1.16, written by Peter Selinger 2001-2019
</metadata>
<g transform="translate(0.000000,192.000000) scale(0.100000,-0.100000)"
fill="#000000" stroke="none">
811 c445 -92 729 -532 635 -987 -62 -301 -295 -546 -601 -630 -91 -26 -329
-26 -420 0 -291 80 -516 305 -596 596 -26 91 -26 329 0 420 120 433 542 692
982 601z"/>
<path d="M695 1326 c-39 -18 -80 -62 -99 -108 -23 -54 -23 -452 -1 -506 21
-49 52 -81 100 -103 35 -16 67 -19 260 -19 239 0 272 7 322 61 48 52 53 84 53
316 0 191 -3 223 -19 258 -22 47 -64 89 -104 104 -43 17 -474 14 -512 -3z
m154 -171 c81 -41 50 -165 -41 -165 -53 0 -88 35 -88 87 1 75 63 113 129 78z
m312 -14 c60 -61 24 -151 -61 -151 -52 0 -90 36 -90 87 0 46 46 93 90 93 22 0
41 -9 61 -29z m-202 -286 c77 1 81 2 184 62 24 14 44 7 58 -18 16 -31 -6 -55
-87 -95 -69 -35 -83 -38 -158 -38 -70 0 -91 4 -148 31 -65 31 -108 63 -108 83
0 6 9 19 20 30 20 20 20 20 91 -18 65 -33 79 -37 148 -37z"/>
</g>
</svg>
