<?xml version="1.0" standalone="no"?>
<!DOCTYPE svg PUBLIC "-//W3C//DTD SVG 20010904//EN"
 "http://www.w3.org/TR/2001/REC-SVG-20010904/DTD/svg10.dtd">
<svg version="1.0" xmlns="http://www.w3.org/2000/svg"
 width="192.000000pt" height="192.000000pt" viewBox="0 0 192.000000 192.000000"
 preserveAspectRatio="xMidYMid meet">
<metadata>
Created by potrace 1.16, written by Peter Selinger 2001-2019
</metadata>
<g transform="translate(0.000000,192.000000) scale(0.100000,-0.100000)"
fill="#000000" stroke="none">
811 c445 -92 729 -532 635 -987 -62 -301 -295 -546 -601 -630 -91 -26 -329
-26 -420 0 -291 80 -516 305 -596 596 -26 91 -26 329 0 420 120 433 542 692
982 601z"/>
<path d="M910 1350 c-205 -36 -294 -58 -307 -76 -15 -21 -17 -82 -3 -118 7
-20 16 -26 40 -26 l30 0 0 -195 c0 -188 -1 -195 -20 -195 -37 0 -60 -35 -60
-90 0 -59 26 -94 63 -85 12 3 105 18 207 35 208 34 289 57 357 103 128 86 135
261 13 319 l-49 24 30 28 c45 43 63 84 63 146 1 136 -107 175 -364 130z m120
-185 c6 -8 10 -22 8 -32 -5 -24 -65 -63 -99 -63 -28 0 -29 2 -29 48 0 27 3 52
7 55 13 13 100 7 113 -8z m34 -267 c15 -25 -4 -70 -36 -86 -14 -6 -47 -15 -73
-18 l-46 -7 3 59 c3 52 6 59 28 65 44 13 112 6 124 -13z"/>
</g>
</svg>
