<?xml version="1.0" standalone="no"?>
<!DOCTYPE svg PUBLIC "-//W3C//DTD SVG 20010904//EN"
 "http://www.w3.org/TR/2001/REC-SVG-20010904/DTD/svg10.dtd">
<svg version="1.0" xmlns="http://www.w3.org/2000/svg"
 width="192.000000pt" height="192.000000pt" viewBox="0 0 192.000000 192.000000"
 preserveAspectRatio="xMidYMid meet">
<metadata>
Created by potrace 1.16, written by Peter Selinger 2001-2019
</metadata>
<g transform="translate(0.000000,192.000000) scale(0.100000,-0.100000)"
fill="#000000" stroke="none">
811 c445 -92 729 -532 635 -987 -62 -301 -295 -546 -601 -630 -91 -26 -329
-26 -420 0 -291 80 -516 305 -596 596 -26 91 -26 329 0 420 120 433 542 692
982 601z"/>
<path d="M825 1370 c-11 -4 -30 -22 -43 -39 -19 -26 -29 -31 -62 -31 -32 0
-48 -7 -81 -37 -36 -33 -40 -40 -34 -70 3 -19 1 -48 -5 -66 -10 -28 -6 -56 39
-222 27 -104 59 -201 69 -215 10 -14 53 -48 95 -77 123 -84 179 -82 315 9 89
60 96 74 157 304 38 147 43 176 34 203 -6 18 -9 46 -5 63 5 26 0 36 -33 69
-31 31 -46 39 -76 39 -30 0 -47 8 -81 40 l-44 40 -112 -1 c-62 0 -122 -4 -133
-9z m222 -185 c40 -2 80 -8 88 -15 18 -15 75 -100 75 -112 0 -5 -23 -33 -51
-63 -48 -51 -51 -56 -44 -93 5 -29 2 -44 -12 -61 -24 -29 -57 -22 -109 23
l-38 33 47 32 c26 17 47 34 47 36 0 2 -7 20 -16 39 -9 19 -14 41 -11 49 3 8
29 23 57 33 l52 19 -31 8 c-18 4 -48 3 -71 -3 -44 -12 -46 -19 -31 -98 7 -37
6 -44 -11 -53 -11 -6 -36 -8 -55 -4 -33 6 -35 8 -29 38 21 107 22 103 -25 116
-28 7 -55 8 -74 3 -30 -9 -30 -9 23 -26 29 -10 56 -25 59 -33 3 -8 -3 -30 -13
-49 -21 -39 -21 -40 47 -86 32 -21 19 -44 -44 -78 -45 -24 -46 -24 -67 -5 -18
17 -21 27 -16 63 6 41 4 46 -44 96 -28 29 -50 59 -50 65 0 7 18 39 41 71 l40
58 57 -5 c31 -3 68 0 82 5 14 6 32 8 40 5 8 -4 48 -7 87 -8z m-28 -379 l44
-23 -54 -41 c-59 -45 -60 -45 -124 11 l-40 35 45 21 c57 26 75 26 129 -3z"/>
</g>
</svg>
