<?xml version="1.0" standalone="no"?>
<!DOCTYPE svg PUBLIC "-//W3C//DTD SVG 20010904//EN"
 "http://www.w3.org/TR/2001/REC-SVG-20010904/DTD/svg10.dtd">
<svg version="1.0" xmlns="http://www.w3.org/2000/svg"
 width="192.000000pt" height="192.000000pt" viewBox="0 0 192.000000 192.000000"
 preserveAspectRatio="xMidYMid meet">
<metadata>
Created by potrace 1.16, written by Peter Selinger 2001-2019
</metadata>
<g transform="translate(0.000000,192.000000) scale(0.100000,-0.100000)"
fill="#000000" stroke="none">
811 c445 -92 729 -532 635 -987 -62 -301 -295 -546 -601 -630 -91 -26 -329
-26 -420 0 -291 80 -516 305 -596 596 -26 91 -26 329 0 420 120 433 542 692
982 601z"/>
<path d="M825 1368 c-11 -6 -31 -24 -45 -40 -19 -23 -35 -30 -68 -32 -33 -3
-51 -11 -78 -37 -29 -28 -33 -38 -28 -65 3 -18 1 -48 -5 -66 -10 -29 -4 -58
39 -223 28 -104 57 -199 64 -211 24 -35 145 -116 198 -131 40 -12 59 -13 95
-3 58 14 189 104 209 142 8 16 37 113 64 215 47 176 49 187 35 220 -11 25 -12
40 -5 54 21 38 -36 98 -102 106 -31 4 -54 16 -85 44 l-43 39 -112 0 c-65 0
-122 -5 -133 -12z m235 -183 c70 0 67 2 123 -78 15 -22 27 -44 27 -49 0 -5
-23 -33 -50 -62 -48 -51 -50 -55 -44 -97 5 -37 3 -47 -15 -63 -27 -24 -61 -15
-108 28 l-36 33 39 28 c21 16 43 32 47 35 4 4 0 23 -9 43 -9 19 -14 42 -11 50
3 9 29 24 57 34 l52 18 -34 5 c-33 6 -94 -3 -106 -14 -3 -3 0 -34 6 -68 6 -34
9 -64 6 -67 -8 -8 -91 -7 -99 0 -3 4 -1 35 5 69 6 34 9 65 5 68 -3 3 -36 8
-73 9 l-67 3 55 -23 c60 -25 71 -44 46 -82 -23 -35 -21 -42 24 -71 22 -15 40
-33 40 -40 0 -17 -57 -61 -90 -69 -39 -10 -64 23 -56 74 6 37 3 43 -44 94 -28
30 -50 61 -50 69 0 7 19 39 41 70 l42 57 46 -6 c25 -3 62 0 81 5 19 6 46 8 60
4 14 -4 54 -7 90 -7z m-42 -379 l44 -22 -44 -35 c-24 -20 -48 -39 -55 -43 -12
-7 -111 61 -112 77 -1 11 79 47 104 46 11 0 39 -10 63 -23z"/>
</g>
</svg>
