<?xml version="1.0" standalone="no"?>
<!DOCTYPE svg PUBLIC "-//W3C//DTD SVG 20010904//EN"
 "http://www.w3.org/TR/2001/REC-SVG-20010904/DTD/svg10.dtd">
<svg version="1.0" xmlns="http://www.w3.org/2000/svg"
 width="192.000000pt" height="192.000000pt" viewBox="0 0 192.000000 192.000000"
 preserveAspectRatio="xMidYMid meet">
<metadata>
Created by potrace 1.16, written by Peter Selinger 2001-2019
</metadata>
<g transform="translate(0.000000,192.000000) scale(0.100000,-0.100000)"
fill="#000000" stroke="none">
811 c445 -92 729 -532 635 -987 -62 -301 -295 -546 -601 -630 -91 -26 -329
-26 -420 0 -291 80 -516 305 -596 596 -26 91 -26 329 0 420 120 433 542 692
982 601z"/>
<path d="M785 1340 c-32 -33 -46 -40 -77 -40 -28 0 -47 -8 -74 -32 -32 -28
-35 -36 -30 -67 3 -20 1 -51 -5 -71 -9 -31 -4 -60 39 -223 27 -103 57 -198 66
-212 40 -60 186 -145 251 -145 65 0 211 85 251 145 9 14 39 109 66 212 43 163
48 192 39 223 -6 20 -8 51 -5 71 5 31 2 39 -30 67 -27 24 -46 32 -74 32 -31 0
-45 7 -77 40 l-39 40 -131 0 -131 0 -39 -40z m287 -151 c57 1 57 1 93 -46 56
-73 55 -85 -4 -148 -49 -51 -51 -55 -45 -97 5 -35 2 -46 -14 -61 -26 -23 -59
-15 -109 28 l-37 32 47 34 c26 18 47 37 47 42 0 5 -8 22 -17 38 -23 38 -11 58
45 77 23 7 42 18 42 23 0 13 -60 11 -99 -2 -35 -13 -34 -4 -16 -110 6 -33 5
-37 -20 -43 -15 -4 -41 -4 -57 -1 -32 8 -31 -1 -13 106 6 34 5 37 -26 48 -39
13 -99 15 -99 2 0 -5 19 -16 42 -23 57 -19 68 -39 44 -83 -12 -21 -16 -39 -10
-43 5 -5 27 -21 48 -37 l39 -29 -37 -32 c-49 -42 -82 -50 -108 -27 -16 14 -19
27 -15 62 5 42 2 47 -45 97 -59 62 -59 74 -2 148 37 48 37 48 84 42 26 -4 58
-2 71 4 13 5 44 7 69 4 25 -4 71 -6 102 -5z m-54 -379 c23 -10 42 -23 42 -27
-1 -7 -83 -73 -102 -81 -8 -4 -107 70 -107 81 -1 11 79 47 104 47 11 0 39 -9
63 -20z"/>
</g>
</svg>
