<?xml version="1.0" standalone="no"?>
<!DOCTYPE svg PUBLIC "-//W3C//DTD SVG 20010904//EN"
 "http://www.w3.org/TR/2001/REC-SVG-20010904/DTD/svg10.dtd">
<svg version="1.0" xmlns="http://www.w3.org/2000/svg"
 width="192.000000pt" height="192.000000pt" viewBox="0 0 192.000000 192.000000"
 preserveAspectRatio="xMidYMid meet">
<metadata>
Created by potrace 1.16, written by Peter Selinger 2001-2019
</metadata>
<g transform="translate(0.000000,192.000000) scale(0.100000,-0.100000)"
fill="#000000" stroke="none">
811 c445 -92 729 -532 635 -987 -62 -301 -295 -546 -601 -630 -91 -26 -329
-26 -420 0 -291 80 -516 305 -596 596 -26 91 -26 329 0 420 120 433 542 692
982 601z"/>
<path d="M863 1365 c-85 -19 -153 -58 -214 -122 -131 -139 -138 -312 -18 -455
34 -41 38 -50 29 -73 -16 -42 2 -62 78 -84 288 -85 291 -85 311 -67 11 10 22
28 25 40 4 16 18 26 48 35 103 30 194 113 224 204 24 72 22 177 -6 249 -77
206 -275 319 -477 273z m43 -213 c17 -11 52 -85 47 -99 -9 -25 -41 -13 -62 23
-33 56 -24 102 15 76z m-75 -49 c56 -33 75 -112 39 -171 -42 -68 -130 -79
-184 -23 -96 100 27 263 145 194z m283 -19 c8 -22 1 -31 -46 -55 -71 -36 -99
8 -30 48 44 26 68 29 76 7z m86 -93 c37 -27 51 -60 46 -111 -3 -35 -11 -51
-40 -77 -82 -76 -208 -11 -193 99 13 100 110 146 187 89z m-243 -197 c-2 -2
-28 3 -58 12 l-54 16 45 39 45 39 13 -51 c7 -28 11 -53 9 -55z"/>
<path d="M737 1032 c-24 -27 -21 -59 8 -78 23 -15 27 -15 50 0 30 20 33 56 7
79 -24 22 -45 21 -65 -1z"/>
<path d="M1100 930 c-11 -11 -20 -27 -20 -35 0 -18 35 -55 53 -55 18 0 43 21
51 43 4 12 -3 27 -19 43 -29 29 -39 30 -65 4z"/>
</g>
</svg>
