<?xml version="1.0" standalone="no"?>
<!DOCTYPE svg PUBLIC "-//W3C//DTD SVG 20010904//EN"
 "http://www.w3.org/TR/2001/REC-SVG-20010904/DTD/svg10.dtd">
<svg version="1.0" xmlns="http://www.w3.org/2000/svg"
 width="192.000000pt" height="192.000000pt" viewBox="0 0 192.000000 192.000000"
 preserveAspectRatio="xMidYMid meet">
<metadata>
Created by potrace 1.16, written by Peter Selinger 2001-2019
</metadata>
<g transform="translate(0.000000,192.000000) scale(0.100000,-0.100000)"
fill="#000000" stroke="none">
811 c445 -92 729 -532 635 -987 -62 -301 -295 -546 -601 -630 -91 -26 -329
-26 -420 0 -291 80 -516 305 -596 596 -26 91 -26 329 0 420 120 433 542 692
982 601z"/>
<path d="M1059 1339 c-17 -33 3 -65 58 -93 110 -56 157 -160 122 -267 -19 -55
-24 -52 -25 14 -2 115 -68 219 -176 278 -58 31 -70 34 -148 34 -102 0 -173
-28 -240 -95 -70 -70 -108 -185 -91 -276 10 -55 21 -66 57 -66 41 0 52 23 47
95 -4 54 -1 69 24 117 32 63 88 107 148 117 l40 6 -49 -35 c-209 -145 -180
-457 52 -569 97 -47 233 -34 328 32 48 32 60 58 44 89 -19 35 -51 34 -113 -3
-31 -19 -75 -37 -97 -41 -75 -12 -157 24 -209 93 l-26 35 42 -31 c120 -87 317
-64 418 49 121 133 117 327 -8 456 -76 78 -172 108 -198 61z m-14 -249 c114
-70 64 -250 -70 -250 -45 0 -96 27 -120 64 -22 34 -23 108 -1 141 41 62 129
83 191 45z"/>
</g>
</svg>
