<?xml version="1.0" standalone="no"?>
<!DOCTYPE svg PUBLIC "-//W3C//DTD SVG 20010904//EN"
 "http://www.w3.org/TR/2001/REC-SVG-20010904/DTD/svg10.dtd">
<svg version="1.0" xmlns="http://www.w3.org/2000/svg"
 width="192.000000pt" height="192.000000pt" viewBox="0 0 192.000000 192.000000"
 preserveAspectRatio="xMidYMid meet">
<metadata>
Created by potrace 1.16, written by Peter Selinger 2001-2019
</metadata>
<g transform="translate(0.000000,192.000000) scale(0.100000,-0.100000)"
fill="#000000" stroke="none">
811 c445 -92 729 -532 635 -987 -62 -301 -295 -546 -601 -630 -91 -26 -329
-26 -420 0 -291 80 -516 305 -596 596 -26 91 -26 329 0 420 120 433 542 692
982 601z"/>
<path d="M561 1291 c-20 -20 -21 -31 -21 -204 0 -234 -3 -227 123 -226 113 0
154 13 185 59 19 28 23 44 19 78 -5 44 -30 82 -54 82 -7 0 -13 5 -13 10 0 6 5
10 10 10 16 0 50 62 50 92 0 38 -19 75 -49 95 -19 13 -53 18 -127 21 -93 4
-104 2 -123 -17z m177 -83 c31 -31 -6 -78 -60 -78 -26 0 -28 2 -28 45 l0 45
38 0 c21 0 43 -5 50 -12z m0 -174 c24 -17 29 -53 10 -72 -7 -7 -31 -12 -55
-12 l-43 0 0 50 c0 50 0 50 33 50 18 0 43 -7 55 -16z"/>
<path d="M907 1293 c-15 -17 -17 -43 -17 -211 0 -203 4 -222 51 -222 40 0 59
35 59 110 0 50 4 70 13 70 28 0 56 -33 72 -83 10 -28 24 -62 31 -74 18 -29 55
-30 79 -3 18 20 18 23 -4 93 -13 40 -29 82 -37 94 -12 20 -12 22 7 28 39 13
61 98 37 149 -21 48 -54 60 -168 64 -94 4 -107 2 -123 -15z m174 -83 c45 -25
7 -90 -53 -90 -27 0 -28 2 -28 50 0 49 1 50 31 50 17 0 39 -5 50 -10z"/>
<path d="M1270 1290 c-19 -19 -20 -33 -20 -203 0 -198 7 -227 54 -227 51 0 56
21 56 227 0 171 -2 192 -18 206 -25 22 -48 21 -72 -3z"/>
<path d="M551 800 c-8 -4 -11 -35 -9 -91 2 -67 6 -84 18 -84 12 0 16 16 18 73
2 54 6 72 17 72 11 0 15 -18 17 -72 2 -57 6 -73 18 -73 12 0 16 16 18 73 2 54
6 72 17 72 11 0 15 -18 17 -72 2 -57 6 -73 18 -73 12 0 16 18 18 88 1 48 -1
88 -5 88 -31 6 -153 5 -162 -1z"/>
<path d="M772 801 c-9 -5 -12 -31 -10 -92 l3 -84 50 0 50 0 3 84 c3 92 -1 101
-53 101 -16 0 -36 -4 -43 -9z m56 -89 c2 -42 0 -52 -12 -52 -13 0 -16 12 -16
56 0 73 24 70 28 -4z"/>
<path d="M904 797 c-3 -8 -4 -49 -2 -93 l3 -79 49 -3 c31 -2 52 1 57 9 11 18
8 152 -3 167 -14 17 -97 16 -104 -1z m71 -48 c0 -7 -8 -15 -17 -17 -18 -3 -25
18 -11 32 10 10 28 1 28 -15z m3 -71 c-7 -19 -38 -22 -38 -4 0 10 9 16 21 16
12 0 19 -5 17 -12z"/>
<path d="M1272 801 c-9 -5 -12 -31 -10 -92 l3 -84 50 0 c38 0 50 4 50 15 0 10
-12 16 -32 18 -38 4 -45 29 -11 34 34 5 37 38 4 38 -19 0 -26 5 -26 20 0 16 7
20 35 20 37 0 49 22 19 34 -22 9 -67 7 -82 -3z"/>
<path d="M1052 713 c2 -70 6 -88 18 -88 12 0 16 18 18 88 3 82 2 87 -18 87
-20 0 -21 -5 -18 -87z"/>
<path d="M1122 713 l3 -88 50 0 c39 0 50 4 53 18 3 14 -4 17 -32 17 l-36 0 0
70 c0 64 -2 70 -20 70 -20 0 -21 -5 -18 -87z"/>
</g>
</svg>
