<?xml version="1.0" standalone="no"?>
<!DOCTYPE svg PUBLIC "-//W3C//DTD SVG 20010904//EN"
 "http://www.w3.org/TR/2001/REC-SVG-20010904/DTD/svg10.dtd">
<svg version="1.0" xmlns="http://www.w3.org/2000/svg"
 width="192.000000pt" height="192.000000pt" viewBox="0 0 192.000000 192.000000"
 preserveAspectRatio="xMidYMid meet">
<metadata>
Created by potrace 1.16, written by Peter Selinger 2001-2019
</metadata>
<g transform="translate(0.000000,192.000000) scale(0.100000,-0.100000)"
fill="#000000" stroke="none">
811 c445 -92 729 -532 635 -987 -62 -301 -295 -546 -601 -630 -91 -26 -329
-26 -420 0 -291 80 -516 305 -596 596 -26 91 -26 329 0 420 120 433 542 692
982 601z"/>
<path d="M640 1327 c-14 -7 -33 -29 -43 -50 -16 -31 -17 -43 -7 -71 33 -102
190 -78 190 29 0 47 -13 71 -50 90 -35 18 -57 19 -90 2z"/>
<path d="M834 1325 c-4 -8 -4 -22 0 -30 4 -12 33 -15 167 -15 190 0 217 -8
249 -74 17 -37 20 -61 20 -187 l-1 -144 -74 -80 c-65 -69 -77 -77 -88 -65 -8
8 -80 120 -162 248 l-147 233 -19 -31 c-11 -17 -37 -39 -59 -48 l-39 -17 206
-230 207 -230 -168 -3 c-186 -3 -219 5 -260 61 -19 26 -21 45 -24 202 -3 146
-6 174 -19 179 -9 4 -22 1 -30 -6 -12 -10 -14 -43 -11 -188 3 -172 4 -178 30
-217 15 -22 44 -51 65 -64 37 -24 43 -24 280 -24 l241 0 43 30 c77 54 84 79
87 322 3 230 -3 273 -45 323 -52 62 -83 70 -273 70 -142 0 -172 -2 -176 -15z
m419 -592 c-19 -39 -52 -67 -92 -78 -31 -9 -28 -2 45 110 l59 90 3 -43 c2 -27
-4 -57 -15 -79z"/>
</g>
</svg>
