<?xml version="1.0" standalone="no"?>
<!DOCTYPE svg PUBLIC "-//W3C//DTD SVG 20010904//EN"
 "http://www.w3.org/TR/2001/REC-SVG-20010904/DTD/svg10.dtd">
<svg version="1.0" xmlns="http://www.w3.org/2000/svg"
 width="192.000000pt" height="192.000000pt" viewBox="0 0 192.000000 192.000000"
 preserveAspectRatio="xMidYMid meet">
<metadata>
Created by potrace 1.16, written by Peter Selinger 2001-2019
</metadata>
<g transform="translate(0.000000,192.000000) scale(0.100000,-0.100000)"
fill="#000000" stroke="none">
811 c445 -92 729 -532 635 -987 -62 -301 -295 -546 -601 -630 -91 -26 -329
-26 -420 0 -291 80 -516 305 -596 596 -26 91 -26 329 0 420 120 433 542 692
982 601z"/>
<path d="M641 1327 c-14 -6 -34 -27 -44 -45 -17 -29 -18 -39 -8 -72 22 -73
108 -95 162 -41 48 49 38 125 -21 156 -35 18 -57 19 -89 2z"/>
<path d="M834 1325 c-16 -40 -2 -44 180 -47 170 -3 175 -4 202 -28 46 -43 54
-76 54 -232 l-1 -143 -74 -80 c-65 -69 -77 -77 -88 -65 -8 8 -65 96 -127 195
-63 99 -129 204 -148 234 l-34 53 -19 -31 c-11 -18 -37 -39 -59 -49 l-40 -17
207 -230 206 -230 -168 -3 c-185 -3 -218 5 -259 61 -19 26 -21 45 -24 203 -3
142 -6 176 -18 181 -8 3 -21 -1 -30 -8 -13 -11 -15 -39 -12 -189 3 -172 4
-178 30 -217 15 -22 44 -51 65 -64 37 -24 43 -24 280 -24 l241 0 43 30 c77 54
84 79 87 322 3 230 -3 273 -45 323 -52 62 -83 70 -273 70 -142 0 -172 -2 -176
-15z m432 -561 c-4 -17 -16 -44 -28 -59 -21 -27 -85 -61 -95 -51 -3 2 24 49
59 103 58 90 63 95 66 69 2 -16 1 -44 -2 -62z"/>
</g>
</svg>
