<?xml version="1.0" standalone="no"?>
<!DOCTYPE svg PUBLIC "-//W3C//DTD SVG 20010904//EN"
 "http://www.w3.org/TR/2001/REC-SVG-20010904/DTD/svg10.dtd">
<svg version="1.0" xmlns="http://www.w3.org/2000/svg"
 width="192.000000pt" height="192.000000pt" viewBox="0 0 192.000000 192.000000"
 preserveAspectRatio="xMidYMid meet">
<metadata>
Created by potrace 1.16, written by Peter Selinger 2001-2019
</metadata>
<g transform="translate(0.000000,192.000000) scale(0.100000,-0.100000)"
fill="#000000" stroke="none">
811 c445 -92 729 -532 635 -987 -62 -301 -295 -546 -601 -630 -91 -26 -329
-26 -420 0 -291 80 -516 305 -596 596 -26 91 -26 329 0 420 120 433 542 692
982 601z"/>
<path d="M645 1331 c-49 -20 -72 -74 -55 -126 15 -45 44 -65 95 -65 55 0 95
39 95 94 0 48 -13 72 -50 91 -32 16 -55 18 -85 6z"/>
<path d="M830 1326 c-10 -13 -10 -19 -1 -30 10 -12 50 -15 186 -18 l174 -3 30
-29 c43 -41 51 -80 51 -235 l0 -134 -72 -76 c-40 -42 -75 -77 -79 -79 -4 -2
-58 77 -120 175 -62 98 -132 209 -156 246 l-44 69 -22 -34 c-13 -18 -37 -38
-54 -43 -18 -6 -34 -13 -37 -16 -3 -3 87 -108 200 -234 l205 -230 -143 -3
c-175 -4 -219 2 -258 34 -41 35 -50 77 -50 252 0 127 -3 154 -15 158 -8 4 -22
1 -30 -6 -22 -18 -22 -325 0 -378 21 -49 52 -81 100 -103 35 -16 68 -19 261
-19 212 0 223 1 265 23 24 13 58 43 74 66 l30 43 3 231 c3 225 2 233 -20 276
-13 25 -40 59 -61 75 l-39 31 -182 3 c-156 3 -184 1 -196 -12z m431 -573 c-13
-46 -45 -80 -89 -93 -18 -5 -32 -7 -32 -4 0 2 28 48 63 101 59 93 62 96 65 66
2 -17 -2 -49 -7 -70z"/>
</g>
</svg>
