<?xml version="1.0" standalone="no"?>
<!DOCTYPE svg PUBLIC "-//W3C//DTD SVG 20010904//EN"
 "http://www.w3.org/TR/2001/REC-SVG-20010904/DTD/svg10.dtd">
<svg version="1.0" xmlns="http://www.w3.org/2000/svg"
 width="192.000000pt" height="192.000000pt" viewBox="0 0 192.000000 192.000000"
 preserveAspectRatio="xMidYMid meet">
<metadata>
Created by potrace 1.16, written by Peter Selinger 2001-2019
</metadata>
<g transform="translate(0.000000,192.000000) scale(0.100000,-0.100000)"
fill="#000000" stroke="none">
811 c445 -92 729 -532 635 -987 -62 -301 -295 -546 -601 -630 -91 -26 -329
-26 -420 0 -291 80 -516 305 -596 596 -26 91 -26 329 0 420 120 433 542 692
982 601z"/>
<path d="M726 1335 c-53 -19 -85 -44 -121 -94 l-30 -43 -3 -261 c-2 -182 1
-269 9 -289 15 -37 67 -68 113 -68 93 0 135 62 136 198 l0 82 55 0 c117 0 165
48 165 163 l0 67 90 0 c102 0 146 14 178 55 49 62 31 149 -38 187 -31 16 -60
18 -275 18 -180 -1 -250 -4 -279 -15z"/>
</g>
</svg>
