<?xml version="1.0" standalone="no"?>
<!DOCTYPE svg PUBLIC "-//W3C//DTD SVG 20010904//EN"
 "http://www.w3.org/TR/2001/REC-SVG-20010904/DTD/svg10.dtd">
<svg version="1.0" xmlns="http://www.w3.org/2000/svg"
 width="192.000000pt" height="192.000000pt" viewBox="0 0 192.000000 192.000000"
 preserveAspectRatio="xMidYMid meet">
<metadata>
Created by potrace 1.16, written by Peter Selinger 2001-2019
</metadata>
<g transform="translate(0.000000,192.000000) scale(0.100000,-0.100000)"
fill="#000000" stroke="none">
811 c445 -92 729 -532 635 -987 -62 -301 -295 -546 -601 -630 -91 -26 -329
-26 -420 0 -291 80 -516 305 -596 596 -26 91 -26 329 0 420 120 433 542 692
982 601z"/>
<path d="M822 1362 c-162 -58 -268 -198 -279 -368 -12 -179 78 -328 245 -407
61 -29 75 -32 167 -32 92 0 106 3 167 32 167 79 256 226 246 409 -3 67 -10 94
-36 147 -42 84 -115 157 -199 199 -59 29 -77 33 -162 35 -74 3 -108 -1 -149
-15z m68 -46 c0 -7 -72 -47 -77 -42 -9 9 37 46 57 46 11 0 20 -2 20 -4z m180
-6 c11 -6 24 -20 30 -31 10 -18 7 -17 -32 7 -24 15 -45 28 -47 30 -10 9 32 3
49 -6z m-320 -54 c0 -3 -4 -8 -10 -11 -5 -3 -10 -1 -10 4 0 6 5 11 10 11 6 0
10 -2 10 -4z m180 -77 c0 -28 -3 -31 -22 -25 -13 4 -35 9 -50 12 -37 9 -35 21
5 33 58 17 67 14 67 -20z m128 15 l37 -16 -50 -14 c-67 -18 -65 -18 -65 16 0
36 20 39 78 14z m-388 -49 c0 -9 -62 -115 -67 -115 -8 0 8 63 23 93 12 23 44
39 44 22z m613 -22 c19 -37 29 -83 19 -83 -6 0 -32 44 -60 103 -2 4 3 7 12 7
8 0 22 -12 29 -27z m-423 -9 l34 -7 -29 -23 c-17 -13 -33 -24 -36 -24 -3 0
-13 16 -22 36 -17 34 -17 35 0 30 10 -2 34 -8 53 -12z m260 10 c0 -10 -34 -64
-40 -64 -3 1 -18 11 -34 24 l-29 24 44 10 c58 13 59 13 59 6z m-340 -92 c0 -5
-11 -19 -25 -32 l-25 -23 0 24 c0 13 3 41 6 62 l7 38 18 -31 c11 -17 19 -34
19 -38z m399 -17 l1 -40 -26 26 -25 26 18 37 c17 36 18 37 24 15 4 -13 7 -42
8 -64z m-249 -32 l-1 -78 -24 29 c-13 16 -29 40 -36 54 -12 22 -11 26 16 48
17 13 33 24 38 24 4 0 7 -35 7 -77z m95 54 l34 -23 -39 -60 -40 -59 0 83 c0
45 2 82 6 82 3 0 20 -10 39 -23z m-350 -65 c-3 -3 -10 -1 -15 4 -7 7 -6 22 2
45 l13 34 3 -39 c2 -21 1 -41 -3 -44z m580 7 c-14 -21 -25 -6 -24 34 l1 42 14
-33 c8 -18 12 -37 9 -43z m-407 -49 c17 -27 32 -52 32 -54 0 -6 -60 15 -103
35 l-27 12 27 29 c15 15 29 28 32 28 3 0 21 -23 39 -50z m286 21 c19 -20 23
-30 14 -34 -7 -3 -37 -15 -67 -26 l-53 -22 21 33 c12 18 27 43 33 56 14 28 19
28 52 -7z m-474 -41 c0 -4 -7 -13 -15 -20 -13 -11 -15 -8 -15 13 0 19 4 25 15
21 8 -4 15 -10 15 -14z m620 -7 c0 -25 -1 -26 -16 -11 -9 9 -13 21 -10 27 13
20 26 11 26 -16z m-117 -54 c-7 -25 -21 -31 -65 -27 l-33 3 45 22 c57 27 59
27 53 2z m-460 -9 c4 -16 0 -20 -19 -20 -22 0 -23 3 -14 20 6 11 15 20 19 20
5 0 11 -9 14 -20z m94 8 c43 -16 42 -28 -2 -28 -19 0 -35 2 -35 4 0 2 -3 11
-6 20 -7 19 -1 20 43 4z m438 -26 c-22 -5 -29 3 -21 25 7 17 8 17 22 -2 13
-18 13 -20 -1 -23z m-381 -73 l-29 -30 -19 23 -18 23 33 6 c61 11 64 10 33
-22z m265 14 c3 -2 -4 -13 -15 -23 -20 -20 -20 -20 -49 10 l-30 31 45 -7 c25
-4 47 -9 49 -11z m-379 -14 c11 -20 11 -20 -19 -4 -36 18 -39 25 -11 25 10 0
24 -9 30 -21z m467 5 c-30 -16 -44 -14 -32 5 3 6 18 11 33 11 l27 -1 -28 -15z
m-277 -29 c0 -18 -5 -25 -20 -25 -24 0 -25 8 -3 32 21 23 23 23 23 -7z m80 0
l23 -25 -26 0 c-22 0 -27 5 -27 25 0 14 1 25 3 25 2 0 14 -11 27 -25z m-245
-55 c3 -5 2 -10 -4 -10 -5 0 -13 5 -16 10 -3 6 -2 10 4 10 5 0 13 -4 16 -10z
m405 6 c0 -3 -4 -8 -10 -11 -5 -3 -10 -1 -10 4 0 6 5 11 10 11 6 0 10 -2 10
-4z m-240 -36 c0 -5 -4 -10 -9 -10 -6 0 -13 5 -16 10 -3 6 1 10 9 10 9 0 16
-4 16 -10z m75 0 c-3 -5 -10 -10 -16 -10 -5 0 -9 5 -9 10 0 6 7 10 16 10 8 0
12 -4 9 -10z m-170 -10 c3 -6 -1 -7 -9 -4 -18 7 -21 14 -7 14 6 0 13 -4 16
-10z m265 6 c0 -2 -7 -7 -16 -10 -8 -3 -12 -2 -9 4 6 10 25 14 25 6z"/>
</g>
</svg>
