<?xml version="1.0" standalone="no"?>
<!DOCTYPE svg PUBLIC "-//W3C//DTD SVG 20010904//EN"
 "http://www.w3.org/TR/2001/REC-SVG-20010904/DTD/svg10.dtd">
<svg version="1.0" xmlns="http://www.w3.org/2000/svg"
 width="192.000000pt" height="192.000000pt" viewBox="0 0 192.000000 192.000000"
 preserveAspectRatio="xMidYMid meet">
<metadata>
Created by potrace 1.16, written by Peter Selinger 2001-2019
</metadata>
<g transform="translate(0.000000,192.000000) scale(0.100000,-0.100000)"
fill="#000000" stroke="none">
811 c445 -92 729 -532 635 -987 -62 -301 -295 -546 -601 -630 -91 -26 -329
-26 -420 0 -291 80 -516 305 -596 596 -26 91 -26 329 0 420 120 433 542 692
982 601z"/>
<path d="M868 1366 c-32 -7 -59 -14 -62 -17 -9 -10 -56 -109 -51 -109 3 0 26
15 52 34 27 18 67 43 91 55 23 12 42 28 42 36 0 17 3 17 -72 1z"/>
<path d="M965 1370 c-3 -5 25 -27 62 -49 38 -22 83 -50 101 -62 39 -25 40 -21
5 42 -21 40 -33 51 -62 58 -68 17 -100 20 -106 11z"/>
<path d="M723 1303 c-29 -27 -30 -30 -18 -58 l13 -30 11 28 c6 15 18 41 26 57
19 37 9 38 -32 3z"/>
<path d="M868 1287 c-37 -22 -66 -42 -64 -44 1 -2 22 4 46 12 23 8 53 15 66
15 20 0 24 5 24 30 0 17 -1 30 -2 29 -2 0 -33 -19 -70 -42z"/>
<path d="M962 1303 c3 -23 9 -29 43 -34 22 -4 53 -12 69 -18 53 -21 38 -3 -32
38 -39 23 -73 41 -77 41 -3 0 -5 -12 -3 -27z"/>
<path d="M1150 1319 c1 -8 11 -34 24 -58 l23 -44 11 31 c11 32 10 33 -40 71
-15 11 -18 11 -18 0z"/>
<path d="M640 1233 l-22 -28 39 -6 c21 -4 39 -6 41 -5 5 6 -21 66 -28 66 -5 0
-18 -12 -30 -27z"/>
<path d="M1222 1228 c-6 -17 -11 -33 -9 -34 1 -1 19 1 40 5 l39 6 -22 28 c-27
35 -33 34 -48 -5z"/>
<path d="M880 1243 c-8 -3 -39 -14 -67 -25 -29 -11 -53 -23 -53 -26 0 -4 35
-15 78 -25 42 -10 83 -21 90 -24 9 -3 12 10 12 51 0 52 -2 56 -22 55 -13 0
-30 -3 -38 -6z"/>
<path d="M960 1196 c0 -41 4 -56 13 -54 6 2 49 12 95 23 45 11 82 23 82 26 0
11 -103 50 -147 56 l-43 6 0 -57z"/>
<path d="M590 1159 c-30 -56 -41 -103 -29 -131 15 -37 22 -35 38 7 6 19 27 56
46 84 19 27 31 52 28 55 -4 3 -21 6 -39 6 -23 0 -37 -6 -44 -21z"/>
<path d="M1243 1173 c-9 -3 -6 -14 11 -36 14 -18 36 -56 49 -86 l25 -53 17 26
c14 22 15 31 5 63 -24 73 -39 93 -68 92 -15 0 -33 -3 -39 -6z"/>
<path d="M750 1153 c0 -5 14 -32 30 -60 l30 -53 55 37 c30 21 52 40 47 44 -8
9 -123 39 -146 39 -9 0 -16 -3 -16 -7z"/>
<path d="M1055 1142 c-33 -10 -60 -20 -60 -24 0 -7 106 -81 109 -76 1 2 17 29
34 61 l32 57 -27 -1 c-16 0 -55 -8 -88 -17z"/>
<path d="M711 1114 c-6 -21 -14 -70 -18 -109 l-6 -70 51 44 c29 23 52 45 52
47 0 2 -15 31 -34 65 l-34 62 -11 -39z"/>
<path d="M1152 1087 l-33 -62 48 -42 48 -42 3 39 c3 43 -14 150 -26 162 -4 4
-22 -21 -40 -55z"/>
<path d="M656 1098 c-14 -24 -32 -60 -40 -80 -16 -37 -16 -37 17 -62 l32 -26
6 68 c3 37 9 84 14 105 4 20 5 37 2 37 -4 0 -17 -19 -31 -42z"/>
<path d="M1225 1125 c4 -11 9 -57 12 -102 3 -46 9 -83 14 -83 4 0 19 10 34 23
l25 22 -29 60 c-16 33 -36 69 -46 80 l-17 20 7 -20z"/>
<path d="M877 1060 l-57 -41 57 -85 58 -84 3 65 c2 36 2 93 0 126 l-3 60 -58
-41z"/>
<path d="M960 968 l1 -133 28 34 c15 19 44 60 64 92 l37 58 -57 41 c-31 22
-60 40 -65 40 -4 0 -8 -60 -8 -132z"/>
<path d="M1348 994 c-14 -17 -15 -26 -4 -79 l13 -60 7 56 c4 30 6 66 4 78 -3
23 -4 23 -20 5z"/>
<path d="M541 969 c0 -19 3 -52 7 -74 l8 -40 10 57 c9 52 9 60 -8 75 -17 15
-18 14 -17 -18z"/>
<path d="M746 957 l-49 -43 59 -26 c66 -29 155 -60 160 -56 4 5 -105 162 -114
165 -4 2 -29 -17 -56 -40z"/>
<path d="M1048 914 c-65 -95 -68 -93 62 -43 110 43 109 40 52 88 -27 22 -51
41 -53 41 -2 0 -30 -39 -61 -86z"/>
<path d="M586 904 c-13 -98 -10 -102 34 -48 l41 49 -28 22 c-15 13 -31 23 -34
23 -4 0 -9 -21 -13 -46z"/>
<path d="M1278 932 c-16 -9 -28 -19 -28 -22 0 -3 18 -27 40 -54 l40 -48 0 33
c0 46 -11 109 -19 109 -3 0 -18 -8 -33 -18z"/>
<path d="M637 842 l-39 -47 54 -7 c29 -3 54 -5 55 -4 2 1 -5 26 -15 54 l-17
52 -38 -48z"/>
<path d="M700 887 c0 -2 7 -24 16 -50 16 -46 17 -47 57 -47 54 0 117 11 117
19 0 4 -26 15 -57 25 -32 10 -75 27 -95 37 -21 11 -38 18 -38 16z"/>
<path d="M1125 853 c-44 -17 -89 -35 -100 -38 -28 -10 56 -26 114 -23 42 3 45
5 58 42 7 22 12 43 11 46 -2 3 -39 -9 -83 -27z"/>
<path d="M1221 839 c-7 -23 -10 -43 -8 -46 3 -2 26 -3 52 -1 l48 3 -34 42
c-19 23 -37 42 -40 42 -3 1 -11 -17 -18 -40z"/>
<path d="M845 778 c-101 -16 -101 -16 -65 -67 l32 -43 54 53 c50 49 65 71 47
68 -5 -1 -35 -6 -68 -11z"/>
<path d="M1006 767 c37 -44 88 -97 95 -97 3 0 19 19 34 41 31 47 24 58 -35 59
-19 0 -52 4 -73 9 l-38 9 17 -21z"/>
<path d="M619 756 c15 -18 88 -58 129 -71 l24 -7 -24 41 c-20 35 -28 41 -58
41 -19 0 -46 3 -60 7 -23 6 -24 5 -11 -11z"/>
<path d="M960 716 c0 -30 4 -57 9 -60 5 -3 30 -3 55 0 l46 7 -47 51 c-26 28
-51 53 -55 54 -5 2 -8 -21 -8 -52z"/>
<path d="M1233 763 c-35 -4 -45 -10 -68 -44 l-26 -41 23 7 c65 21 169 89 127
83 -8 -1 -33 -3 -56 -5z"/>
<path d="M887 712 l-48 -49 47 -7 c26 -3 49 -4 51 -2 2 2 3 27 1 55 l-3 52
-48 -49z"/>
<path d="M657 679 c18 -19 45 -42 60 -51 26 -15 29 -15 50 1 23 19 34 13 -127
78 -8 3 -1 -9 17 -28z"/>
<path d="M1216 685 c-27 -13 -58 -26 -70 -29 l-21 -5 22 -22 21 -22 39 30 c45
37 80 73 67 72 -5 0 -31 -11 -58 -24z"/>
<path d="M860 621 c14 -12 37 -28 53 -37 27 -14 27 -14 27 16 0 23 -5 30 -19
30 -10 0 -34 3 -52 6 l-34 6 25 -21z"/>
<path d="M998 633 c-34 -4 -38 -7 -38 -34 0 -16 5 -29 11 -29 11 0 99 58 99
65 0 5 -4 5 -72 -2z"/>
<path d="M788 619 c-28 -16 -21 -26 29 -43 79 -27 92 -21 40 19 -52 40 -46 38
-69 24z"/>
<path d="M1052 594 c-50 -39 -36 -45 41 -18 50 17 54 23 35 42 -18 18 -28 14
-76 -24z"/>
</g>
</svg>
