<?xml version="1.0" standalone="no"?>
<!DOCTYPE svg PUBLIC "-//W3C//DTD SVG 20010904//EN"
 "http://www.w3.org/TR/2001/REC-SVG-20010904/DTD/svg10.dtd">
<svg version="1.0" xmlns="http://www.w3.org/2000/svg"
 width="192.000000pt" height="192.000000pt" viewBox="0 0 192.000000 192.000000"
 preserveAspectRatio="xMidYMid meet">
<metadata>
Created by potrace 1.16, written by Peter Selinger 2001-2019
</metadata>
<g transform="translate(0.000000,192.000000) scale(0.100000,-0.100000)"
fill="#000000" stroke="none">
811 c445 -92 729 -532 635 -987 -62 -301 -295 -546 -601 -630 -91 -26 -329
-26 -420 0 -291 80 -516 305 -596 596 -26 91 -26 329 0 420 120 433 542 692
982 601z"/>
<path d="M562 1298 c-8 -8 -12 -64 -12 -185 0 -167 1 -173 22 -184 32 -17 207
-7 239 15 55 35 65 111 21 156 l-28 28 23 20 c16 14 23 32 23 57 0 82 -39 105
-178 105 -63 0 -102 -4 -110 -12z m179 -84 c11 -14 10 -19 -10 -35 -13 -11
-36 -19 -52 -19 -26 0 -29 3 -29 35 0 34 1 35 39 35 23 0 44 -6 52 -16z m10
-150 c22 -26 -1 -49 -55 -52 l-46 -3 0 35 c0 36 0 36 44 36 28 0 48 -6 57 -16z"/>
<path d="M897 1295 c-14 -14 -17 -41 -17 -179 0 -145 2 -165 18 -179 24 -22
55 -21 75 1 12 13 17 37 17 81 0 60 1 62 23 56 34 -11 54 -35 74 -90 14 -38
25 -52 47 -60 24 -8 31 -6 47 14 21 26 19 47 -17 128 l-22 51 24 23 c31 29 34
105 5 140 -18 22 -27 24 -139 27 -100 3 -122 1 -135 -13z m184 -81 c21 -25 -1
-49 -50 -52 -41 -3 -41 -3 -41 32 0 35 1 36 39 36 23 0 44 -6 52 -16z"/>
<path d="M1262 1298 c-5 -7 -13 -83 -16 -168 -7 -172 -1 -203 45 -208 53 -6
59 13 59 197 0 116 -4 171 -12 179 -16 16 -63 15 -76 0z"/>
<path d="M742 853 c-48 -24 -63 -60 -60 -146 3 -69 4 -72 28 -72 24 0 25 3 28
60 4 68 21 95 62 95 39 0 50 -18 50 -79 0 -67 9 -84 41 -79 22 3 24 9 29 68 6
78 13 90 48 90 47 0 57 -14 62 -87 5 -62 7 -68 29 -71 30 -5 41 12 41 64 0 66
-11 103 -40 134 -36 39 -88 48 -137 24 -36 -18 -39 -18 -73 -2 -43 22 -66 22
-108 1z"/>
<path d="M1190 852 c-77 -38 -91 -140 -26 -199 80 -74 198 -20 198 90 0 54
-21 90 -67 111 -42 20 -62 20 -105 -2z m94 -78 c21 -21 20 -40 -4 -64 -24 -24
-38 -25 -68 -4 -24 17 -28 35 -12 65 13 23 62 26 84 3z"/>
</g>
</svg>
