<?xml version="1.0" standalone="no"?>
<!DOCTYPE svg PUBLIC "-//W3C//DTD SVG 20010904//EN"
 "http://www.w3.org/TR/2001/REC-SVG-20010904/DTD/svg10.dtd">
<svg version="1.0" xmlns="http://www.w3.org/2000/svg"
 width="192.000000pt" height="192.000000pt" viewBox="0 0 192.000000 192.000000"
 preserveAspectRatio="xMidYMid meet">
<metadata>
Created by potrace 1.16, written by Peter Selinger 2001-2019
</metadata>
<g transform="translate(0.000000,192.000000) scale(0.100000,-0.100000)"
fill="#000000" stroke="none">
811 c445 -92 729 -532 635 -987 -62 -301 -295 -546 -601 -630 -91 -26 -329
-26 -420 0 -291 80 -516 305 -596 596 -26 91 -26 329 0 420 120 433 542 692
982 601z"/>
<path d="M695 1324 c-45 -23 -76 -55 -96 -99 -16 -35 -19 -68 -19 -260 0 -209
1 -223 23 -265 12 -24 39 -58 60 -74 l39 -31 238 -3 c224 -3 241 -2 279 17 50
26 87 74 100 131 14 58 14 392 0 450 -13 57 -49 105 -99 130 -36 18 -59 20
-267 20 -187 0 -233 -3 -258 -16z m155 -124 c0 -96 61 -154 136 -130 45 15 64
46 71 115 5 44 9 55 22 53 12 -2 17 -17 19 -52 4 -61 -11 -98 -55 -136 -28
-25 -42 -30 -85 -30 -96 0 -148 58 -148 164 0 49 2 56 20 56 17 0 20 -7 20
-40z m264 -336 c7 -19 -168 -204 -194 -204 -24 0 -123 104 -118 126 6 34 36
27 78 -18 l40 -43 77 78 c78 77 105 91 117 61z"/>
</g>
</svg>
