<?xml version="1.0" standalone="no"?>
<!DOCTYPE svg PUBLIC "-//W3C//DTD SVG 20010904//EN"
 "http://www.w3.org/TR/2001/REC-SVG-20010904/DTD/svg10.dtd">
<svg version="1.0" xmlns="http://www.w3.org/2000/svg"
 width="192.000000pt" height="192.000000pt" viewBox="0 0 192.000000 192.000000"
 preserveAspectRatio="xMidYMid meet">
<metadata>
Created by potrace 1.16, written by Peter Selinger 2001-2019
</metadata>
<g transform="translate(0.000000,192.000000) scale(0.100000,-0.100000)"
fill="#000000" stroke="none">
810 c245 -63 441 -223 549 -451 55 -116 75 -212 75 -354 0 -141 -20 -238 -75
-352 -86 -182 -215 -312 -396 -398 -116 -55 -212 -75 -354 -75 -142 0 -238 20
-354 75 -228 108 -388 304 -451 549 -28 110 -28 292 0 402 76 298 303 526 600
603 106 28 298 28 406 1z"/>
<path d="M833 1356 c-104 -34 -204 -123 -251 -224 -24 -51 -27 -69 -27 -167 0
-98 3 -116 26 -165 51 -110 122 -161 149 -109 9 16 8 25 -5 42 -77 106 -102
179 -92 269 13 106 86 206 186 255 75 38 190 39 266 5 65 -30 138 -102 167
-166 47 -105 24 -262 -48 -337 -34 -36 -31 -83 7 -87 32 -4 81 48 116 124 92
202 7 437 -194 536 -59 29 -77 33 -162 35 -61 2 -111 -2 -138 -11z"/>
<path d="M850 1233 c-64 -23 -142 -105 -165 -172 -24 -72 -17 -162 16 -227 21
-41 30 -49 57 -52 40 -4 51 17 33 62 -42 101 -43 109 -31 165 9 41 22 63 54
96 82 82 199 82 281 1 69 -69 81 -153 34 -240 -13 -25 -18 -48 -14 -63 5 -20
11 -24 37 -21 27 3 36 11 57 53 22 42 26 63 26 135 0 75 -3 91 -27 132 -74
125 -221 179 -358 131z"/>
<path d="M875 1107 c-87 -48 -118 -207 -40 -207 28 0 45 26 45 69 0 42 31 71
75 71 35 0 74 -27 76 -52 4 -59 7 -70 19 -78 44 -28 75 7 67 76 -12 114 -140
178 -242 121z"/>
<path d="M840 756 c-68 -115 -90 -160 -85 -176 6 -20 12 -20 203 -18 192 3
197 4 200 24 2 13 -33 81 -88 173 -76 125 -95 151 -114 151 -20 0 -39 -26
-116 -154z"/>
</g>
</svg>
