<?xml version="1.0" standalone="no"?>
<!DOCTYPE svg PUBLIC "-//W3C//DTD SVG 20010904//EN"
 "http://www.w3.org/TR/2001/REC-SVG-20010904/DTD/svg10.dtd">
<svg version="1.0" xmlns="http://www.w3.org/2000/svg"
 width="192.000000pt" height="192.000000pt" viewBox="0 0 192.000000 192.000000"
 preserveAspectRatio="xMidYMid meet">
<metadata>
Created by potrace 1.16, written by Peter Selinger 2001-2019
</metadata>
<g transform="translate(0.000000,192.000000) scale(0.100000,-0.100000)"
fill="#000000" stroke="none">
811 c445 -92 729 -532 635 -987 -62 -301 -295 -546 -601 -630 -91 -26 -329
-26 -420 0 -291 80 -516 305 -596 596 -26 91 -26 329 0 420 120 433 542 692
982 601z"/>
<path d="M1061 1343 c-10 -21 -9 -29 2 -41 13 -12 13 -18 0 -41 -15 -25 -18
-26 -112 -26 -116 0 -166 -19 -239 -92 -74 -74 -96 -129 -97 -238 0 -82 3 -96
33 -157 60 -123 169 -191 307 -191 137 0 255 76 313 200 39 84 39 193 -1 278
-16 33 -38 70 -49 82 -18 20 -19 26 -8 53 10 24 17 29 35 24 18 -4 28 1 40 20
10 14 15 32 12 39 -7 18 -181 117 -205 117 -11 0 -24 -12 -31 -27z m4 -197
c102 -47 174 -169 162 -273 -2 -24 -7 -47 -10 -50 -4 -3 -38 -8 -76 -11 -84
-6 -136 10 -221 68 -81 55 -158 90 -197 90 -42 0 -43 22 -5 78 30 45 90 93
137 110 56 19 155 14 210 -12z"/>
</g>
</svg>
