<?xml version="1.0" standalone="no"?>
<!DOCTYPE svg PUBLIC "-//W3C//DTD SVG 20010904//EN"
 "http://www.w3.org/TR/2001/REC-SVG-20010904/DTD/svg10.dtd">
<svg version="1.0" xmlns="http://www.w3.org/2000/svg"
 width="192.000000pt" height="192.000000pt" viewBox="0 0 192.000000 192.000000"
 preserveAspectRatio="xMidYMid meet">
<metadata>
Created by potrace 1.16, written by Peter Selinger 2001-2019
</metadata>
<g transform="translate(0.000000,192.000000) scale(0.100000,-0.100000)"
fill="#000000" stroke="none">
810 c245 -63 441 -223 549 -451 55 -116 75 -212 75 -354 0 -141 -20 -238 -75
-352 -86 -182 -215 -312 -396 -398 -116 -55 -212 -75 -354 -75 -142 0 -238 20
-354 75 -228 108 -388 304 -451 549 -28 110 -28 292 0 402 76 298 303 526 600
603 106 28 298 28 406 1z"/>
<path d="M872 1350 c-35 -25 -102 -118 -102 -142 0 -5 38 -8 85 -8 l86 0 -3
87 c-2 50 -8 88 -14 90 -6 2 -29 -10 -52 -27z"/>
<path d="M977 1373 c-4 -3 -7 -44 -7 -90 l0 -83 85 0 c47 0 85 2 85 5 0 11
-34 71 -58 102 -13 18 -39 42 -57 53 -36 22 -39 23 -48 13z"/>
<path d="M760 1335 c-51 -26 -125 -87 -140 -116 -10 -18 -7 -19 49 -19 54 0
59 2 65 24 3 13 22 47 41 76 20 29 34 54 33 55 -2 2 -23 -7 -48 -20z"/>
<path d="M1100 1355 c0 -3 13 -23 29 -46 17 -22 35 -56 41 -75 11 -34 12 -34
71 -34 56 0 59 1 49 19 -15 29 -89 90 -142 117 -27 13 -48 22 -48 19z"/>
<path d="M569 1138 c-14 -26 -39 -115 -39 -140 0 -16 10 -18 79 -18 l78 0 7
68 c3 37 9 77 12 90 6 21 4 22 -59 22 -58 0 -68 -3 -78 -22z"/>
<path d="M741 1104 c-6 -32 -11 -72 -11 -91 l0 -33 105 0 106 0 -3 88 -3 87
-91 3 -91 3 -12 -57z"/>
<path d="M977 1153 c-4 -3 -7 -44 -7 -90 l0 -83 105 0 105 0 0 33 c0 19 -5 59
-11 90 l-12 57 -87 0 c-48 0 -90 -3 -93 -7z"/>
<path d="M1204 1138 c3 -13 9 -53 12 -90 l7 -68 78 0 c75 0 79 1 79 23 -1 12
-11 51 -23 87 l-22 65 -69 3 c-67 3 -68 3 -62 -20z"/>
<path d="M530 918 c1 -13 11 -52 23 -88 l22 -65 69 -3 c67 -3 68 -3 62 20 -4
13 -9 53 -13 91 l-6 67 -78 0 c-75 0 -79 -1 -79 -22z"/>
<path d="M730 907 c0 -19 5 -59 11 -90 l12 -57 93 0 94 0 0 90 0 90 -105 0
-105 0 0 -33z"/>
<path d="M970 850 l0 -90 94 0 93 0 12 57 c6 31 11 71 11 90 l0 33 -105 0
-105 0 0 -90z"/>
<path d="M1216 873 c-3 -38 -9 -78 -12 -91 -6 -23 -5 -23 62 -20 l69 3 22 65
c12 36 22 75 23 88 0 21 -4 22 -79 22 l-78 0 -7 -67z"/>
<path d="M620 701 c15 -29 89 -90 143 -117 26 -13 47 -22 47 -19 0 3 -13 23
-29 46 -17 22 -35 56 -41 75 -11 34 -12 34 -71 34 -56 0 -59 -1 -49 -19z"/>
<path d="M770 712 c0 -4 15 -32 33 -62 36 -60 110 -121 128 -103 5 5 9 43 7
89 l-3 79 -82 3 c-46 2 -83 -1 -83 -6z"/>
<path d="M977 713 c-11 -10 -8 -161 3 -168 15 -9 74 30 102 68 24 31 58 91 58
102 0 7 -155 6 -163 -2z"/>
<path d="M1176 696 c-3 -13 -21 -47 -40 -75 -19 -28 -30 -51 -25 -51 34 0 158
91 179 131 10 18 7 19 -49 19 -54 0 -59 -2 -65 -24z"/>
</g>
</svg>
