<?xml version="1.0" standalone="no"?>
<!DOCTYPE svg PUBLIC "-//W3C//DTD SVG 20010904//EN"
 "http://www.w3.org/TR/2001/REC-SVG-20010904/DTD/svg10.dtd">
<svg version="1.0" xmlns="http://www.w3.org/2000/svg"
 width="192.000000pt" height="192.000000pt" viewBox="0 0 192.000000 192.000000"
 preserveAspectRatio="xMidYMid meet">
<metadata>
Created by potrace 1.16, written by Peter Selinger 2001-2019
</metadata>
<g transform="translate(0.000000,192.000000) scale(0.100000,-0.100000)"
fill="#000000" stroke="none">
810 c245 -63 441 -223 549 -451 55 -116 75 -212 75 -354 0 -141 -20 -238 -75
-352 -86 -182 -215 -312 -396 -398 -116 -55 -212 -75 -354 -75 -142 0 -238 20
-354 75 -228 108 -388 304 -451 549 -28 110 -28 292 0 402 76 298 303 526 600
603 106 28 298 28 406 1z"/>
<path d="M890 1362 c-32 -17 -120 -129 -120 -153 0 -5 36 -9 80 -9 l80 0 0 90
c0 50 -1 90 -3 90 -1 0 -18 -8 -37 -18z"/>
<path d="M980 1290 l0 -90 80 0 c44 0 80 4 80 8 0 18 -78 128 -101 143 -58 37
-59 37 -59 -61z"/>
<path d="M734 1319 c-55 -35 -101 -75 -115 -101 -9 -16 -4 -18 49 -18 57 0 58
1 70 34 7 19 24 50 37 70 39 58 32 60 -41 15z"/>
<path d="M1136 1299 c19 -28 37 -62 40 -75 6 -22 11 -24 65 -24 54 0 59 2 50
18 -21 38 -147 132 -177 132 -7 0 2 -22 22 -51z"/>
<path d="M571 1143 c-13 -26 -41 -123 -41 -145 0 -16 9 -18 79 -18 l78 0 6 68
c4 37 9 77 13 90 6 21 4 22 -59 22 -53 0 -68 -4 -76 -17z"/>
<path d="M749 1133 c-6 -15 -13 -56 -16 -90 l-6 -63 102 0 101 0 0 90 0 90
-85 0 c-84 0 -86 -1 -96 -27z"/>
<path d="M980 1070 l0 -90 101 0 102 0 -7 65 c-12 115 -12 115 -111 115 l-85
0 0 -90z"/>
<path d="M1204 1138 c4 -13 9 -53 13 -90 l6 -68 79 0 80 0 -7 43 c-4 23 -15
62 -24 87 l-17 45 -68 3 c-67 3 -68 3 -62 -20z"/>
<path d="M530 918 c1 -13 11 -52 23 -88 l22 -65 69 -3 c67 -3 68 -3 62 20 -4
13 -9 53 -13 91 l-6 67 -78 0 c-75 0 -79 -1 -79 -22z"/>
<path d="M730 913 c0 -14 5 -55 11 -90 l11 -63 89 0 89 0 0 90 0 90 -100 0
-100 0 0 -27z"/>
<path d="M980 850 l0 -90 89 0 89 0 11 63 c6 35 11 76 11 90 l0 27 -100 0
-100 0 0 -90z"/>
<path d="M1217 873 c-4 -38 -9 -78 -13 -91 -6 -23 -5 -23 62 -20 l68 3 17 45
c9 25 20 64 24 88 l7 42 -80 0 -79 0 -6 -67z"/>
<path d="M619 701 c21 -38 163 -142 177 -128 3 2 -6 21 -20 42 -14 20 -31 52
-38 71 -12 33 -13 34 -70 34 -54 0 -58 -1 -49 -19z"/>
<path d="M770 712 c0 -18 78 -128 101 -143 58 -37 59 -37 59 61 l0 90 -80 0
c-44 0 -80 -4 -80 -8z"/>
<path d="M980 630 c0 -98 1 -98 59 -61 23 15 101 125 101 143 0 4 -36 8 -80 8
l-80 0 0 -90z"/>
<path d="M1176 696 c-3 -13 -21 -47 -40 -75 -20 -29 -29 -51 -22 -51 30 0 156
94 177 133 9 15 4 17 -50 17 -54 0 -59 -2 -65 -24z"/>
</g>
</svg>
