<?xml version="1.0" standalone="no"?>
<!DOCTYPE svg PUBLIC "-//W3C//DTD SVG 20010904//EN"
 "http://www.w3.org/TR/2001/REC-SVG-20010904/DTD/svg10.dtd">
<svg version="1.0" xmlns="http://www.w3.org/2000/svg"
 width="192.000000pt" height="192.000000pt" viewBox="0 0 192.000000 192.000000"
 preserveAspectRatio="xMidYMid meet">
<metadata>
Created by potrace 1.16, written by Peter Selinger 2001-2019
</metadata>
<g transform="translate(0.000000,192.000000) scale(0.100000,-0.100000)"
fill="#000000" stroke="none">
811 c445 -92 729 -532 635 -987 -62 -301 -295 -546 -601 -630 -91 -26 -329
-26 -420 0 -291 80 -516 305 -596 596 -26 91 -26 329 0 420 120 433 542 692
982 601z"/>
<path d="M780 1359 c-78 -14 -87 -26 -71 -91 48 -188 194 -458 248 -458 39 0
217 316 196 348 -15 24 -58 33 -180 35 -103 2 -112 4 -117 22 -3 11 -6 23 -6
28 0 21 366 -5 388 -28 6 -5 -31 -106 -70 -195 -32 -71 -116 -201 -176 -269
l-38 -44 -56 69 c-108 135 -167 245 -227 427 -35 103 -52 124 -97 113 -45 -12
-47 -45 -9 -164 51 -153 123 -296 209 -409 134 -175 173 -206 218 -170 30 24
138 157 189 233 94 140 209 427 190 477 -11 29 -20 33 -136 58 -105 23 -368
34 -455 18z m220 -285 c0 -4 -10 -24 -22 -45 l-22 -40 -23 38 c-13 21 -23 41
-23 46 0 4 20 7 45 7 25 0 45 -3 45 -6z"/>
</g>
</svg>
