<?xml version="1.0" standalone="no"?>
<!DOCTYPE svg PUBLIC "-//W3C//DTD SVG 20010904//EN"
 "http://www.w3.org/TR/2001/REC-SVG-20010904/DTD/svg10.dtd">
<svg version="1.0" xmlns="http://www.w3.org/2000/svg"
 width="192.000000pt" height="192.000000pt" viewBox="0 0 192.000000 192.000000"
 preserveAspectRatio="xMidYMid meet">
<metadata>
Created by potrace 1.16, written by Peter Selinger 2001-2019
</metadata>
<g transform="translate(0.000000,192.000000) scale(0.100000,-0.100000)"
fill="#000000" stroke="none">
810 c245 -63 441 -223 549 -451 55 -116 75 -212 75 -354 0 -141 -20 -238 -75
-352 -86 -182 -215 -312 -396 -398 -116 -55 -212 -75 -354 -75 -142 0 -238 20
-354 75 -228 108 -388 304 -451 549 -28 110 -28 292 0 402 76 298 303 526 600
603 106 28 298 28 406 1z"/>
<path d="M891 1363 c-35 -18 -94 -89 -110 -135 l-10 -28 80 0 79 0 0 90 c0 50
-1 90 -2 90 -2 0 -18 -8 -37 -17z"/>
<path d="M980 1290 l0 -90 80 0 80 0 -10 26 c-15 39 -66 109 -92 126 -57 36
-58 35 -58 -62z"/>
<path d="M734 1319 c-55 -35 -101 -75 -115 -101 -9 -16 -4 -18 49 -18 57 0 58
1 70 34 7 19 24 50 37 70 39 58 32 60 -41 15z"/>
<path d="M1110 1345 c0 -2 11 -20 25 -41 13 -20 30 -51 37 -70 12 -33 13 -34
70 -34 53 0 58 2 49 18 -24 45 -181 156 -181 127z"/>
<path d="M570 1141 c-11 -21 -40 -128 -40 -148 0 -10 21 -13 79 -13 l78 0 6
68 c4 37 9 77 13 90 6 21 4 22 -59 22 -55 0 -68 -3 -77 -19z"/>
<path d="M750 1135 c-5 -14 -12 -54 -16 -90 l-7 -65 102 0 101 0 0 90 0 90
-85 0 c-82 0 -86 -1 -95 -25z"/>
<path d="M980 1070 l0 -90 101 0 102 0 -7 65 c-12 115 -12 115 -111 115 l-85
0 0 -90z"/>
<path d="M1204 1138 c4 -13 9 -53 13 -90 l6 -68 79 0 80 0 -7 43 c-4 23 -15
62 -24 87 l-17 45 -68 3 c-67 3 -68 3 -62 -20z"/>
<path d="M535 898 c4 -24 15 -63 24 -88 l17 -45 68 -3 c67 -3 68 -3 62 20 -4
13 -9 53 -13 91 l-6 67 -79 0 -80 0 7 -42z"/>
<path d="M730 913 c0 -14 5 -55 11 -90 l11 -63 89 0 89 0 0 90 0 90 -100 0
-100 0 0 -27z"/>
<path d="M980 850 l0 -90 89 0 89 0 11 63 c6 35 11 76 11 90 l0 27 -100 0
-100 0 0 -90z"/>
<path d="M1217 873 c-4 -38 -9 -78 -13 -91 -6 -23 -5 -23 62 -20 l68 3 17 45
c9 25 20 64 24 88 l7 42 -80 0 -79 0 -6 -67z"/>
<path d="M619 701 c21 -38 163 -142 177 -128 3 2 -6 21 -20 42 -14 20 -31 52
-38 71 -12 33 -13 34 -70 34 -54 0 -58 -1 -49 -19z"/>
<path d="M780 694 c15 -39 66 -109 92 -126 57 -36 58 -35 58 62 l0 90 -80 0
-80 0 10 -26z"/>
<path d="M980 630 c0 -97 1 -98 58 -62 26 17 77 87 92 126 l10 26 -80 0 -80 0
0 -90z"/>
<path d="M1166 674 c-10 -25 -30 -59 -43 -75 -18 -21 -21 -29 -10 -29 24 0
138 81 165 118 l25 32 -59 0 -59 0 -19 -46z"/>
</g>
</svg>
