<?xml version="1.0" standalone="no"?>
<!DOCTYPE svg PUBLIC "-//W3C//DTD SVG 20010904//EN"
 "http://www.w3.org/TR/2001/REC-SVG-20010904/DTD/svg10.dtd">
<svg version="1.0" xmlns="http://www.w3.org/2000/svg"
 width="192.000000pt" height="192.000000pt" viewBox="0 0 192.000000 192.000000"
 preserveAspectRatio="xMidYMid meet">
<metadata>
Created by potrace 1.16, written by Peter Selinger 2001-2019
</metadata>
<g transform="translate(0.000000,192.000000) scale(0.100000,-0.100000)"
fill="#000000" stroke="none">
810 c245 -63 441 -223 549 -451 55 -116 75 -212 75 -354 0 -141 -20 -238 -75
-352 -86 -182 -215 -312 -396 -398 -116 -55 -212 -75 -354 -75 -142 0 -238 20
-354 75 -228 108 -388 304 -451 549 -28 110 -28 292 0 402 76 298 303 526 600
603 106 28 298 28 406 1z"/>
<path d="M884 1361 c-41 -25 -114 -125 -114 -156 0 -3 38 -5 85 -5 l85 0 0 90
c0 99 -3 103 -56 71z"/>
<path d="M970 1290 l0 -90 85 0 c47 0 85 2 85 5 0 14 -41 85 -66 114 -26 31
-72 61 -94 61 -6 0 -10 -34 -10 -90z"/>
<path d="M750 1329 c-52 -29 -140 -104 -140 -121 0 -4 27 -8 59 -8 59 0 60 0
71 34 6 19 25 53 41 76 17 23 29 43 27 45 -2 2 -28 -10 -58 -26z"/>
<path d="M1100 1355 c0 -3 13 -23 29 -46 17 -22 35 -56 41 -75 11 -34 12 -34
71 -34 55 0 59 2 50 18 -17 31 -87 90 -141 117 -27 14 -50 23 -50 20z"/>
<path d="M559 1116 c-10 -24 -22 -65 -25 -90 l-7 -46 80 0 80 0 7 63 c3 34 9
74 12 90 l6 27 -66 0 -67 0 -20 -44z"/>
<path d="M741 1110 c-6 -28 -11 -69 -11 -90 l0 -40 105 0 106 0 -3 88 -3 87
-92 3 -91 3 -11 -51z"/>
<path d="M977 1153 c-4 -3 -7 -44 -7 -90 l0 -83 105 0 105 0 0 40 c0 21 -5 62
-11 90 l-11 50 -87 0 c-48 0 -91 -3 -94 -7z"/>
<path d="M1204 1133 c3 -16 9 -56 12 -90 l7 -63 80 0 79 0 -7 48 c-4 26 -15
66 -25 90 l-19 42 -67 0 -66 0 6 -27z"/>
<path d="M534 894 c3 -25 15 -66 25 -90 l20 -44 67 0 66 0 -6 28 c-3 15 -9 55
-12 90 l-7 62 -80 0 -80 0 7 -46z"/>
<path d="M730 900 c0 -21 5 -62 11 -90 l11 -50 94 0 94 0 0 90 0 90 -105 0
-105 0 0 -40z"/>
<path d="M970 850 l0 -90 94 0 94 0 11 50 c6 28 11 69 11 90 l0 40 -105 0
-105 0 0 -90z"/>
<path d="M1216 878 c-3 -35 -9 -75 -12 -90 l-6 -28 66 0 67 0 19 43 c10 23 21
63 25 90 l7 47 -79 0 -80 0 -7 -62z"/>
<path d="M610 711 c0 -17 98 -100 149 -125 28 -15 51 -24 51 -21 0 3 -13 23
-29 46 -17 22 -35 56 -41 75 -11 34 -12 34 -71 34 -32 0 -59 -4 -59 -9z"/>
<path d="M770 715 c0 -14 41 -85 66 -114 26 -31 72 -61 94 -61 6 0 10 34 10
90 l0 90 -85 0 c-47 0 -85 -2 -85 -5z"/>
<path d="M970 630 c0 -56 4 -90 10 -90 22 0 68 30 94 61 25 29 66 100 66 114
0 3 -38 5 -85 5 l-85 0 0 -90z"/>
<path d="M1170 686 c-6 -19 -24 -53 -41 -75 -16 -23 -29 -43 -29 -46 0 -3 23
6 50 20 54 27 124 86 141 117 9 16 5 18 -50 18 -59 0 -60 0 -71 -34z"/>
</g>
</svg>
