<?xml version="1.0" standalone="no"?>
<!DOCTYPE svg PUBLIC "-//W3C//DTD SVG 20010904//EN"
 "http://www.w3.org/TR/2001/REC-SVG-20010904/DTD/svg10.dtd">
<svg version="1.0" xmlns="http://www.w3.org/2000/svg"
 width="192.000000pt" height="192.000000pt" viewBox="0 0 192.000000 192.000000"
 preserveAspectRatio="xMidYMid meet">
<metadata>
Created by potrace 1.16, written by Peter Selinger 2001-2019
</metadata>
<g transform="translate(0.000000,192.000000) scale(0.100000,-0.100000)"
fill="#000000" stroke="none">
810 c245 -63 441 -223 549 -451 55 -116 75 -212 75 -354 0 -141 -20 -238 -75
-352 -86 -182 -215 -312 -396 -398 -116 -55 -212 -75 -354 -75 -142 0 -238 20
-354 75 -228 108 -388 304 -451 549 -28 110 -28 292 0 402 76 298 303 526 600
603 106 28 298 28 406 1z"/>
<path d="M880 1356 c-19 -13 -44 -37 -56 -52 -22 -30 -54 -89 -54 -99 0 -3 36
-5 80 -5 l80 0 0 90 c0 50 -3 90 -8 90 -4 0 -23 -11 -42 -24z"/>
<path d="M980 1290 l0 -90 80 0 c44 0 80 2 80 5 0 11 -34 71 -58 102 -22 29
-79 73 -96 73 -3 0 -6 -40 -6 -90z"/>
<path d="M750 1330 c-44 -23 -117 -85 -130 -111 -10 -18 -7 -19 49 -19 54 0
59 2 65 24 3 13 21 47 40 75 37 54 32 61 -24 31z"/>
<path d="M1129 1309 c17 -22 35 -56 41 -75 11 -34 12 -34 71 -34 54 0 59 2 50
18 -14 26 -60 66 -115 101 -69 43 -82 40 -47 -10z"/>
<path d="M571 1143 c-13 -26 -41 -123 -41 -145 0 -16 9 -18 79 -18 l78 0 6 68
c4 37 9 77 13 90 6 21 4 22 -59 22 -53 0 -68 -4 -76 -17z"/>
<path d="M741 1103 c-6 -31 -11 -71 -11 -90 l0 -33 100 0 100 0 0 90 0 90 -89
0 -88 0 -12 -57z"/>
<path d="M980 1070 l0 -90 100 0 100 0 0 33 c0 19 -5 59 -11 90 l-12 57 -88 0
-89 0 0 -90z"/>
<path d="M1204 1138 c3 -13 9 -53 12 -90 l7 -68 78 0 c75 0 79 1 79 23 -1 12
-11 51 -23 87 l-22 65 -69 3 c-67 3 -68 3 -62 -20z"/>
<path d="M530 918 c1 -13 11 -52 23 -88 l22 -65 69 -3 c67 -3 68 -3 62 20 -4
13 -9 53 -13 91 l-6 67 -78 0 c-75 0 -79 -1 -79 -22z"/>
<path d="M730 907 c0 -19 5 -59 11 -90 l12 -57 88 0 89 0 0 90 0 90 -100 0
-100 0 0 -33z"/>
<path d="M980 850 l0 -90 89 0 88 0 12 57 c6 31 11 71 11 90 l0 33 -100 0
-100 0 0 -90z"/>
<path d="M1217 873 c-4 -38 -9 -78 -13 -91 -6 -23 -5 -23 62 -20 l69 3 22 65
c12 36 22 75 23 88 0 21 -4 22 -79 22 l-78 0 -6 -67z"/>
<path d="M620 701 c21 -40 145 -131 179 -131 5 0 -6 23 -25 51 -19 28 -37 62
-40 75 -6 22 -11 24 -65 24 -56 0 -59 -1 -49 -19z"/>
<path d="M770 715 c0 -11 34 -71 58 -102 22 -29 79 -73 96 -73 3 0 6 41 6 90
l0 90 -80 0 c-44 0 -80 -2 -80 -5z"/>
<path d="M980 631 c0 -86 1 -89 22 -83 29 7 93 73 118 121 11 22 20 43 20 46
0 3 -36 5 -80 5 l-80 0 0 -89z"/>
<path d="M1176 696 c-3 -13 -21 -47 -40 -75 -20 -29 -29 -51 -22 -51 30 0 156
94 177 133 9 15 4 17 -50 17 -54 0 -59 -2 -65 -24z"/>
</g>
</svg>
