<?xml version="1.0" standalone="no"?>
<!DOCTYPE svg PUBLIC "-//W3C//DTD SVG 20010904//EN"
 "http://www.w3.org/TR/2001/REC-SVG-20010904/DTD/svg10.dtd">
<svg version="1.0" xmlns="http://www.w3.org/2000/svg"
 width="192.000000pt" height="192.000000pt" viewBox="0 0 192.000000 192.000000"
 preserveAspectRatio="xMidYMid meet">
<metadata>
Created by potrace 1.16, written by Peter Selinger 2001-2019
</metadata>
<g transform="translate(0.000000,192.000000) scale(0.100000,-0.100000)"
fill="#000000" stroke="none">
810 c245 -63 441 -223 549 -451 55 -116 75 -212 75 -354 0 -141 -20 -238 -75
-352 -86 -182 -215 -312 -396 -398 -116 -55 -212 -75 -354 -75 -142 0 -238 20
-354 75 -228 108 -388 304 -451 549 -28 110 -28 292 0 402 76 298 303 526 600
603 106 28 298 28 406 1z"/>
<path d="M872 1350 c-35 -25 -102 -118 -102 -142 0 -5 38 -8 85 -8 l85 0 0 90
c0 103 -4 107 -68 60z"/>
<path d="M970 1290 l0 -90 85 0 c47 0 85 3 85 8 0 24 -67 117 -102 142 -64 47
-68 43 -68 -60z"/>
<path d="M760 1335 c-51 -26 -125 -87 -140 -116 -10 -18 -7 -19 49 -19 54 0
59 2 65 24 3 13 22 47 41 76 20 29 34 54 33 55 -2 2 -23 -7 -48 -20z"/>
<path d="M1100 1355 c0 -3 13 -23 29 -46 17 -22 35 -56 41 -75 11 -34 12 -34
71 -34 56 0 59 1 49 19 -15 29 -89 90 -142 117 -27 13 -48 22 -48 19z"/>
<path d="M560 1118 c-10 -24 -21 -64 -25 -90 l-7 -48 79 0 80 0 7 68 c3 37 9
77 12 90 6 21 4 22 -60 22 l-67 0 -19 -42z"/>
<path d="M741 1104 c-6 -32 -11 -72 -11 -91 l0 -33 105 0 106 0 -3 88 -3 87
-91 3 -91 3 -12 -57z"/>
<path d="M977 1153 c-4 -3 -7 -44 -7 -90 l0 -83 105 0 105 0 0 33 c0 19 -5 59
-11 90 l-12 57 -87 0 c-48 0 -90 -3 -93 -7z"/>
<path d="M1204 1138 c3 -13 9 -53 12 -90 l7 -68 78 0 c75 0 79 1 79 23 -1 12
-11 51 -23 87 l-22 65 -69 3 c-67 3 -68 3 -62 -20z"/>
<path d="M535 893 c4 -27 15 -67 25 -90 l19 -43 67 0 c64 0 66 1 60 23 -3 12
-9 52 -12 90 l-7 67 -80 0 -79 0 7 -47z"/>
<path d="M730 907 c0 -19 5 -59 11 -90 l12 -57 93 0 94 0 0 90 0 90 -105 0
-105 0 0 -33z"/>
<path d="M970 850 l0 -90 94 0 93 0 12 57 c6 31 11 71 11 90 l0 33 -105 0
-105 0 0 -90z"/>
<path d="M1216 873 c-3 -38 -9 -78 -12 -91 -6 -23 -5 -23 62 -20 l69 3 22 65
c12 36 22 75 23 88 0 21 -4 22 -79 22 l-78 0 -7 -67z"/>
<path d="M620 701 c15 -29 89 -90 143 -117 26 -13 47 -22 47 -19 0 3 -13 23
-29 46 -17 22 -35 56 -41 75 -11 34 -12 34 -71 34 -56 0 -59 -1 -49 -19z"/>
<path d="M770 713 c0 -25 67 -118 102 -143 65 -47 69 -43 66 58 l-3 87 -82 3
c-46 2 -83 -1 -83 -5z"/>
<path d="M977 713 c-4 -3 -7 -44 -7 -90 0 -96 5 -99 68 -53 35 25 102 118 102
143 0 9 -154 10 -163 0z"/>
<path d="M1170 686 c-6 -19 -24 -53 -41 -75 -16 -23 -29 -43 -29 -46 0 -3 21
6 48 19 53 27 127 88 142 117 10 18 7 19 -49 19 -59 0 -60 0 -71 -34z"/>
</g>
</svg>
