<?xml version="1.0" standalone="no"?>
<!DOCTYPE svg PUBLIC "-//W3C//DTD SVG 20010904//EN"
 "http://www.w3.org/TR/2001/REC-SVG-20010904/DTD/svg10.dtd">
<svg version="1.0" xmlns="http://www.w3.org/2000/svg"
 width="192.000000pt" height="192.000000pt" viewBox="0 0 192.000000 192.000000"
 preserveAspectRatio="xMidYMid meet">
<metadata>
Created by potrace 1.16, written by Peter Selinger 2001-2019
</metadata>
<g transform="translate(0.000000,192.000000) scale(0.100000,-0.100000)"
fill="#000000" stroke="none">
811 c445 -92 729 -532 635 -987 -62 -301 -295 -546 -601 -630 -91 -26 -329
-26 -420 0 -291 80 -516 305 -596 596 -26 91 -26 329 0 420 120 433 542 692
982 601z"/>
<path d="M567 1353 c-13 -12 -7 -93 19 -266 45 -305 62 -362 130 -436 20 -23
57 -54 82 -68 38 -22 55 -26 121 -25 106 2 362 46 376 66 17 23 59 291 59 376
0 91 -12 116 -88 188 -85 81 -125 93 -461 142 -232 33 -229 33 -238 23z m283
-163 c69 -11 133 -23 143 -26 30 -9 44 -61 52 -186 l7 -118 -23 0 c-13 0 -73
5 -134 10 -140 14 -142 16 -165 152 -31 185 -31 188 -18 188 7 0 69 -9 138
-20z m337 -102 c46 -51 52 -90 32 -205 -16 -90 -34 -69 -44 50 -4 50 -10 111
-15 135 -8 48 -3 52 27 20z m-239 -349 c152 -14 174 -32 63 -49 -95 -15 -132
-9 -178 26 -34 26 -45 51 -18 40 9 -3 69 -11 133 -17z"/>
</g>
</svg>
