<?xml version="1.0" standalone="no"?>
<!DOCTYPE svg PUBLIC "-//W3C//DTD SVG 20010904//EN"
 "http://www.w3.org/TR/2001/REC-SVG-20010904/DTD/svg10.dtd">
<svg version="1.0" xmlns="http://www.w3.org/2000/svg"
 width="192.000000pt" height="192.000000pt" viewBox="0 0 192.000000 192.000000"
 preserveAspectRatio="xMidYMid meet">
<metadata>
Created by potrace 1.16, written by Peter Selinger 2001-2019
</metadata>
<g transform="translate(0.000000,192.000000) scale(0.100000,-0.100000)"
fill="#000000" stroke="none">
811 c445 -92 729 -532 635 -987 -62 -301 -295 -546 -601 -630 -91 -26 -329
-26 -420 0 -291 80 -516 305 -596 596 -26 91 -26 329 0 420 120 433 542 692
982 601z"/>
<path d="M1192 1257 c-18 -18 -32 -36 -32 -40 0 -4 13 -25 29 -48 89 -122 86
-288 -6 -422 l-27 -38 37 -37 37 -37 25 30 c14 17 41 62 61 102 32 64 37 84
42 166 3 70 0 108 -13 153 -21 73 -59 144 -94 178 l-27 26 -32 -33z"/>
<path d="M563 1269 c-10 -10 -13 -86 -13 -311 0 -353 -15 -322 151 -316 103 3
110 5 136 31 27 26 28 33 31 135 3 94 1 111 -16 131 -19 24 -19 24 0 43 18 18
19 32 16 129 -3 103 -4 110 -31 136 -26 27 -32 28 -145 31 -85 2 -120 0 -129
-9z m197 -173 c0 -81 -4 -86 -66 -86 l-34 0 0 80 0 80 50 0 50 0 0 -74z m-5
-266 l0 -75 -47 -3 -48 -3 0 81 0 81 48 -3 47 -3 0 -75z"/>
<path d="M1070 1135 l-23 -25 24 -52 c33 -71 32 -142 -3 -196 l-27 -39 34 -33
33 -32 26 34 c72 95 74 242 6 339 -26 36 -40 36 -70 4z"/>
<path d="M953 1018 c-24 -24 -43 -48 -43 -54 0 -5 20 -30 45 -54 43 -43 45
-43 60 -25 32 44 31 113 -2 154 l-18 22 -42 -43z"/>
</g>
</svg>
