<?xml version="1.0" standalone="no"?>
<!DOCTYPE svg PUBLIC "-//W3C//DTD SVG 20010904//EN"
 "http://www.w3.org/TR/2001/REC-SVG-20010904/DTD/svg10.dtd">
<svg version="1.0" xmlns="http://www.w3.org/2000/svg"
 width="192.000000pt" height="192.000000pt" viewBox="0 0 192.000000 192.000000"
 preserveAspectRatio="xMidYMid meet">
<metadata>
Created by potrace 1.16, written by Peter Selinger 2001-2019
</metadata>
<g transform="translate(0.000000,192.000000) scale(0.100000,-0.100000)"
fill="#000000" stroke="none">
811 c445 -92 729 -532 635 -987 -62 -301 -295 -546 -601 -630 -91 -26 -329
-26 -420 0 -291 80 -516 305 -596 596 -26 91 -26 329 0 420 120 433 542 692
982 601z"/>
<path d="M754 1365 c-4 -10 4 -27 21 -45 l28 -29 -36 -42 c-34 -40 -47 -67
-61 -131 -5 -20 -13 -28 -29 -28 -32 0 -84 -35 -107 -72 -39 -64 -20 -144 44
-193 20 -15 36 -38 40 -56 14 -74 85 -129 166 -131 43 -1 57 -7 86 -34 69 -63
168 -68 244 -13 40 29 79 94 80 131 0 9 9 19 19 23 85 27 135 148 97 238 -17
41 -76 93 -114 102 -25 5 -31 13 -37 43 -9 48 -37 101 -69 131 l-25 24 29 35
c23 28 27 39 18 49 -9 11 -18 7 -48 -22 -34 -33 -39 -35 -66 -25 -36 14 -131
15 -166 1 -20 -8 -29 -6 -39 5 -7 8 -25 24 -41 35 -25 18 -29 19 -34 4z m131
-156 c0 -17 -6 -24 -20 -24 -23 0 -33 34 -13 46 20 13 33 5 33 -22z m173 -3
c-2 -13 -10 -21 -23 -21 -23 0 -33 34 -14 45 20 13 40 -1 37 -24z"/>
</g>
</svg>
