<?xml version="1.0" standalone="no"?>
<!DOCTYPE svg PUBLIC "-//W3C//DTD SVG 20010904//EN"
 "http://www.w3.org/TR/2001/REC-SVG-20010904/DTD/svg10.dtd">
<svg version="1.0" xmlns="http://www.w3.org/2000/svg"
 width="192.000000pt" height="192.000000pt" viewBox="0 0 192.000000 192.000000"
 preserveAspectRatio="xMidYMid meet">
<metadata>
Created by potrace 1.16, written by Peter Selinger 2001-2019
</metadata>
<g transform="translate(0.000000,192.000000) scale(0.100000,-0.100000)"
fill="#000000" stroke="none">
810 c245 -63 441 -223 549 -451 55 -116 75 -212 75 -354 0 -141 -20 -238 -75
-352 -86 -182 -215 -312 -396 -398 -116 -55 -212 -75 -354 -75 -142 0 -238 20
-354 75 -228 108 -388 304 -451 549 -28 110 -28 292 0 402 76 298 303 526 600
603 106 28 298 28 406 1z"/>
<path d="M870 1366 c-216 -48 -361 -265 -318 -476 9 -47 18 -66 30 -68 11 -2
118 82 290 229 266 227 288 246 288 261 0 14 -76 46 -135 57 -70 13 -84 13
-155 -3z"/>
<path d="M1005 1074 c-428 -361 -405 -340 -405 -378 0 -42 26 -74 67 -82 26
-5 37 -1 67 27 44 42 576 661 576 672 0 4 -3 7 -7 6 -5 0 -138 -110 -298 -245z"/>
<path d="M1050 889 c-149 -172 -235 -279 -235 -293 0 -18 9 -23 65 -34 193
-40 395 81 465 278 36 99 5 320 -43 320 -10 0 -119 -118 -252 -271z"/>
</g>
</svg>
