<?xml version="1.0" standalone="no"?>
<!DOCTYPE svg PUBLIC "-//W3C//DTD SVG 20010904//EN"
 "http://www.w3.org/TR/2001/REC-SVG-20010904/DTD/svg10.dtd">
<svg version="1.0" xmlns="http://www.w3.org/2000/svg"
 width="192.000000pt" height="192.000000pt" viewBox="0 0 192.000000 192.000000"
 preserveAspectRatio="xMidYMid meet">
<metadata>
Created by potrace 1.16, written by Peter Selinger 2001-2019
</metadata>
<g transform="translate(0.000000,192.000000) scale(0.100000,-0.100000)"
fill="#000000" stroke="none">
811 c445 -92 729 -532 635 -987 -62 -301 -295 -546 -601 -630 -91 -26 -329
-26 -420 0 -291 80 -516 305 -596 596 -26 91 -26 329 0 420 120 433 542 692
982 601z"/>
<path d="M641 1359 c-70 -24 -91 -44 -91 -84 0 -35 151 -409 177 -437 33 -36
136 -14 169 37 17 26 17 32 -35 244 -37 151 -59 223 -74 239 -26 27 -71 28
-146 1z"/>
<path d="M963 1230 c-12 -5 -29 -20 -38 -34 -15 -23 -15 -29 -1 -80 20 -67 37
-78 108 -71 65 7 96 -7 122 -57 18 -32 18 -40 7 -78 -8 -29 -21 -47 -43 -58
-84 -47 -92 -67 -59 -145 29 -67 66 -74 147 -27 62 35 99 77 132 149 21 46 24
64 20 130 -5 90 -27 137 -89 199 -56 55 -129 82 -217 81 -37 0 -77 -4 -89 -9z"/>
<path d="M845 761 c-27 -12 -61 -51 -70 -79 -9 -32 12 -88 42 -112 34 -27 102
-27 136 0 30 24 50 78 42 113 -15 57 -98 101 -150 78z"/>
</g>
</svg>
