<?xml version="1.0" standalone="no"?>
<!DOCTYPE svg PUBLIC "-//W3C//DTD SVG 20010904//EN"
 "http://www.w3.org/TR/2001/REC-SVG-20010904/DTD/svg10.dtd">
<svg version="1.0" xmlns="http://www.w3.org/2000/svg"
 width="192.000000pt" height="192.000000pt" viewBox="0 0 192.000000 192.000000"
 preserveAspectRatio="xMidYMid meet">
<metadata>
Created by potrace 1.16, written by Peter Selinger 2001-2019
</metadata>
<g transform="translate(0.000000,192.000000) scale(0.100000,-0.100000)"
fill="#000000" stroke="none">
811 c445 -92 729 -532 635 -987 -62 -301 -295 -546 -601 -630 -91 -26 -329
-26 -420 0 -291 80 -516 305 -596 596 -26 91 -26 329 0 420 120 433 542 692
982 601z"/>
<path d="M747 1363 c-20 -19 -4 -44 46 -69 28 -14 67 -40 85 -58 36 -33 75
-100 65 -110 -13 -13 -32 -5 -38 15 -21 66 -136 142 -217 143 -86 2 -122 -60
-93 -160 13 -44 28 -69 70 -110 50 -51 53 -55 42 -83 -22 -60 54 -156 169
-211 67 -31 78 -51 43 -73 -23 -14 -137 44 -192 99 -25 24 -51 44 -57 44 -19
0 -7 -99 17 -146 30 -59 74 -84 148 -84 135 0 265 112 265 228 0 21 7 32 25
40 18 8 29 25 37 57 11 42 14 45 46 45 123 0 144 135 38 239 -38 37 -52 45
-94 49 -53 5 -103 -14 -124 -48 -11 -17 -14 -15 -40 30 -35 62 -90 116 -150
146 -47 24 -79 30 -91 17z m12 -168 c58 -29 91 -71 98 -125 5 -36 3 -40 -22
-50 -45 -17 -103 7 -141 57 -31 41 -52 112 -39 133 11 17 53 11 104 -15z m476
-75 c10 -11 15 -31 13 -52 -3 -30 -6 -33 -36 -31 -44 2 -62 19 -62 59 0 52 47
66 85 24z m-336 -191 c13 -18 50 -44 87 -61 46 -22 64 -35 64 -49 0 -62 -148
-3 -211 84 l-31 42 29 6 c15 4 31 7 34 8 3 0 16 -13 28 -30z"/>
<path d="M1201 1310 c-47 -11 -63 -37 -36 -60 11 -9 29 -10 77 -1 67 12 92 28
82 54 -7 19 -61 22 -123 7z"/>
</g>
</svg>
