<?xml version="1.0" standalone="no"?>
<!DOCTYPE svg PUBLIC "-//W3C//DTD SVG 20010904//EN"
 "http://www.w3.org/TR/2001/REC-SVG-20010904/DTD/svg10.dtd">
<svg version="1.0" xmlns="http://www.w3.org/2000/svg"
 width="192.000000pt" height="192.000000pt" viewBox="0 0 192.000000 192.000000"
 preserveAspectRatio="xMidYMid meet">
<metadata>
Created by potrace 1.16, written by Peter Selinger 2001-2019
</metadata>
<g transform="translate(0.000000,192.000000) scale(0.100000,-0.100000)"
fill="#000000" stroke="none">
811 c445 -92 729 -532 635 -987 -62 -301 -295 -546 -601 -630 -91 -26 -329
-26 -420 0 -291 80 -516 305 -596 596 -26 91 -26 329 0 420 120 433 542 692
982 601z"/>
<path d="M917 1369 c-38 -9 -133 -60 -232 -125 -30 -20 -61 -51 -75 -76 -23
-39 -25 -56 -28 -179 -6 -223 9 -251 188 -359 118 -70 128 -74 185 -75 56 0
68 4 170 64 195 113 204 129 205 345 0 217 -10 233 -220 351 -104 58 -136 67
-193 54z m167 -205 c9 -4 16 -18 16 -34 0 -16 -7 -30 -16 -34 -30 -12 -249 -7
-262 6 -15 15 -15 41 0 56 13 13 232 18 262 6z m106 -184 c8 -15 6 -24 -10
-40 -19 -19 -33 -20 -214 -20 -212 0 -246 6 -246 43 0 13 3 27 7 30 3 4 107 7
229 7 212 0 224 -1 234 -20z m-100 -154 c6 -8 10 -25 8 -38 -3 -22 -6 -23
-132 -26 -133 -3 -156 3 -156 39 0 31 30 38 151 39 90 0 119 -3 129 -14z"/>
</g>
</svg>
