<?xml version="1.0" standalone="no"?>
<!DOCTYPE svg PUBLIC "-//W3C//DTD SVG 20010904//EN"
 "http://www.w3.org/TR/2001/REC-SVG-20010904/DTD/svg10.dtd">
<svg version="1.0" xmlns="http://www.w3.org/2000/svg"
 width="192.000000pt" height="192.000000pt" viewBox="0 0 192.000000 192.000000"
 preserveAspectRatio="xMidYMid meet">
<metadata>
Created by potrace 1.16, written by Peter Selinger 2001-2019
</metadata>
<g transform="translate(0.000000,192.000000) scale(0.100000,-0.100000)"
fill="#000000" stroke="none">
811 c445 -92 729 -532 635 -987 -62 -301 -295 -546 -601 -630 -91 -26 -329
-26 -420 0 -291 80 -516 305 -596 596 -26 91 -26 329 0 420 120 433 542 692
982 601z"/>
<path d="M634 1330 c-45 -18 -54 -46 -54 -173 0 -118 0 -119 30 -148 l29 -30
320 3 c398 4 366 -12 366 178 0 190 30 174 -358 177 -171 1 -322 -2 -333 -7z
m427 -70 c21 -12 25 -50 7 -68 -15 -15 -360 -17 -389 -2 -23 13 -25 43 -3 64
13 13 45 16 190 16 102 0 183 -4 195 -10z m-147 -142 c13 -19 14 -25 2 -43
-12 -18 -25 -20 -115 -23 -112 -3 -141 6 -141 43 0 36 25 44 137 45 94 0 103
-2 117 -22z"/>
<path d="M605 915 c-24 -23 -25 -30 -25 -148 0 -121 1 -125 26 -151 37 -36
114 -37 149 -1 24 23 25 29 25 153 0 121 -1 130 -23 150 -35 33 -119 31 -152
-3z"/>
<path d="M845 915 c-24 -23 -25 -30 -25 -150 0 -120 1 -127 25 -150 24 -25 25
-25 228 -25 l204 0 27 26 c25 26 26 30 26 151 0 118 -1 125 -25 148 -24 25
-25 25 -230 25 -205 0 -206 0 -230 -25z"/>
</g>
</svg>
