<?xml version="1.0" standalone="no"?>
<!DOCTYPE svg PUBLIC "-//W3C//DTD SVG 20010904//EN"
 "http://www.w3.org/TR/2001/REC-SVG-20010904/DTD/svg10.dtd">
<svg version="1.0" xmlns="http://www.w3.org/2000/svg"
 width="192.000000pt" height="192.000000pt" viewBox="0 0 192.000000 192.000000"
 preserveAspectRatio="xMidYMid meet">
<metadata>
Created by potrace 1.16, written by Peter Selinger 2001-2019
</metadata>
<g transform="translate(0.000000,192.000000) scale(0.100000,-0.100000)"
fill="#000000" stroke="none">
811 c445 -92 729 -532 635 -987 -62 -301 -295 -546 -601 -630 -91 -26 -329
-26 -420 0 -291 80 -516 305 -596 596 -26 91 -26 329 0 420 120 433 542 692
982 601z"/>
<path d="M840 1346 c-75 -16 -141 -50 -189 -96 -52 -50 -77 -101 -86 -171 -12
-94 -32 -89 394 -89 309 0 370 2 380 14 20 24 7 130 -23 180 -80 137 -280 205
-476 162z"/>
<path d="M620 901 c0 -49 12 -57 61 -41 63 21 43 80 -27 80 -33 0 -34 -1 -34
-39z"/>
<path d="M797 925 c-11 -11 -15 -37 -15 -97 0 -65 -4 -85 -17 -94 -28 -21 -44
-6 -47 44 l-3 47 -46 3 c-60 4 -97 -11 -105 -43 -8 -31 10 -75 29 -75 7 0 21
-18 31 -40 19 -43 51 -70 105 -88 43 -15 402 -16 453 -2 49 14 94 53 109 94 6
18 21 37 33 42 16 7 21 18 21 49 0 51 -25 65 -125 65 l-75 1 36 19 c30 16 42
17 66 8 46 -17 65 -5 61 39 l-3 38 -247 3 c-209 2 -249 0 -261 -13z m113 -70
c17 -9 30 -18 30 -20 0 -3 -30 -5 -67 -5 l-68 0 30 20 c36 24 38 24 75 5z
m180 -5 l35 -19 -74 -1 c-80 0 -81 1 -36 24 36 19 32 19 75 -4z"/>
</g>
</svg>
