<?xml version="1.0" standalone="no"?>
<!DOCTYPE svg PUBLIC "-//W3C//DTD SVG 20010904//EN"
 "http://www.w3.org/TR/2001/REC-SVG-20010904/DTD/svg10.dtd">
<svg version="1.0" xmlns="http://www.w3.org/2000/svg"
 width="192.000000pt" height="192.000000pt" viewBox="0 0 192.000000 192.000000"
 preserveAspectRatio="xMidYMid meet">
<metadata>
Created by potrace 1.16, written by Peter Selinger 2001-2019
</metadata>
<g transform="translate(0.000000,192.000000) scale(0.100000,-0.100000)"
fill="#000000" stroke="none">
810 c149 -35 263 -99 377 -209 169 -163 247 -351 247 -596 0 -245 -78 -433
-247 -596 -165 -159 -340 -229 -578 -229 -238 0 -413 70 -578 229 -169 163
-247 351 -247 596 0 238 70 413 229 578 111 115 239 190 390 227 107 26 298
26 407 0z"/>
<path d="M835 1359 c-217 -75 -336 -309 -264 -521 43 -129 138 -224 267 -267
262 -89 542 115 542 394 0 280 -283 484 -545 394z m43 -401 l3 -148 -31 0 -30
0 0 120 c0 100 -2 120 -15 120 -10 0 -15 10 -15 31 0 29 1 30 43 27 l42 -3 3
-147z m238 135 c-4 -10 -30 -78 -58 -150 l-51 -133 -33 0 c-19 0 -34 2 -34 4
0 3 20 55 44 118 l45 113 -45 3 c-41 3 -44 5 -44 33 l0 29 91 0 c83 0 91 -2
85 -17z"/>
</g>
</svg>
