<?xml version="1.0" standalone="no"?>
<!DOCTYPE svg PUBLIC "-//W3C//DTD SVG 20010904//EN"
 "http://www.w3.org/TR/2001/REC-SVG-20010904/DTD/svg10.dtd">
<svg version="1.0" xmlns="http://www.w3.org/2000/svg"
 width="192.000000pt" height="192.000000pt" viewBox="0 0 192.000000 192.000000"
 preserveAspectRatio="xMidYMid meet">
<metadata>
Created by potrace 1.16, written by Peter Selinger 2001-2019
</metadata>
<g transform="translate(0.000000,192.000000) scale(0.100000,-0.100000)"
fill="#000000" stroke="none">
810 c149 -35 263 -99 377 -209 169 -163 247 -351 247 -596 0 -245 -78 -433
-247 -596 -165 -159 -340 -229 -578 -229 -238 0 -413 70 -578 229 -169 163
-247 351 -247 596 0 238 70 413 229 578 111 115 239 190 390 227 107 26 298
26 407 0z"/>
<path d="M845 1359 c-217 -75 -336 -309 -264 -521 43 -129 138 -224 267 -267
262 -89 542 115 542 394 0 280 -283 484 -545 394z m33 -401 l3 -148 -31 0 -30
0 0 120 c0 100 -2 120 -15 120 -10 0 -15 10 -15 31 0 29 1 30 43 27 l42 -3 3
-147z m237 2 l0 -145 -85 0 -85 0 -3 38 c-3 35 -2 37 27 37 17 0 31 -4 31 -10
0 -5 14 -10 30 -10 27 0 30 3 30 30 0 27 -3 30 -30 30 -27 0 -30 3 -30 30 0
27 3 30 30 30 27 0 30 3 30 30 0 27 -3 30 -30 30 -16 0 -30 -4 -30 -10 0 -5
-13 -10 -30 -10 -27 0 -30 3 -30 33 0 19 3 37 7 41 4 4 43 5 88 4 l80 -3 0
-145z"/>
</g>
</svg>
