<?xml version="1.0" standalone="no"?>
<!DOCTYPE svg PUBLIC "-//W3C//DTD SVG 20010904//EN"
 "http://www.w3.org/TR/2001/REC-SVG-20010904/DTD/svg10.dtd">
<svg version="1.0" xmlns="http://www.w3.org/2000/svg"
 width="192.000000pt" height="192.000000pt" viewBox="0 0 192.000000 192.000000"
 preserveAspectRatio="xMidYMid meet">
<metadata>
Created by potrace 1.16, written by Peter Selinger 2001-2019
</metadata>
<g transform="translate(0.000000,192.000000) scale(0.100000,-0.100000)"
fill="#000000" stroke="none">
810 c149 -35 263 -99 377 -209 169 -163 247 -351 247 -596 0 -245 -78 -433
-247 -596 -165 -159 -340 -229 -578 -229 -238 0 -413 70 -578 229 -169 163
-247 351 -247 596 0 238 70 413 229 578 111 115 239 190 390 227 107 26 298
26 407 0z"/>
<path d="M835 1359 c-217 -75 -336 -309 -264 -521 43 -129 138 -224 267 -267
262 -89 542 115 542 394 0 280 -283 484 -545 394z m43 -401 l3 -148 -31 0 -30
0 0 120 c0 100 -2 120 -15 120 -10 0 -15 10 -15 31 0 29 1 30 43 27 l42 -3 3
-147z m242 122 l0 -30 -60 0 c-60 0 -60 0 -60 -30 0 -28 1 -29 58 -32 l57 -3
0 -85 0 -85 -85 0 -85 0 -3 43 c-3 41 -2 42 27 42 21 0 31 -5 31 -15 0 -10 10
-15 30 -15 27 0 30 3 30 30 l0 30 -60 0 -60 0 0 90 0 90 90 0 90 0 0 -30z"/>
</g>
</svg>
