<?xml version="1.0" standalone="no"?>
<!DOCTYPE svg PUBLIC "-//W3C//DTD SVG 20010904//EN"
 "http://www.w3.org/TR/2001/REC-SVG-20010904/DTD/svg10.dtd">
<svg version="1.0" xmlns="http://www.w3.org/2000/svg"
 width="192.000000pt" height="192.000000pt" viewBox="0 0 192.000000 192.000000"
 preserveAspectRatio="xMidYMid meet">
<metadata>
Created by potrace 1.16, written by Peter Selinger 2001-2019
</metadata>
<g transform="translate(0.000000,192.000000) scale(0.100000,-0.100000)"
fill="#000000" stroke="none">
811 c445 -92 729 -532 635 -987 -62 -301 -295 -546 -601 -630 -91 -26 -329
-26 -420 0 -291 80 -516 305 -596 596 -26 91 -26 329 0 420 120 433 542 692
982 601z"/>
<path d="M722 1369 c-45 -13 -108 -79 -121 -126 -6 -22 -11 -146 -11 -298 0
-251 1 -263 23 -305 16 -33 34 -51 67 -67 41 -22 57 -23 240 -23 225 0 277 10
327 62 50 53 67 95 67 168 0 76 -25 132 -76 175 -30 26 -33 26 -43 10 -24 -43
-79 -95 -112 -106 -24 -7 -75 -9 -161 -4 -145 8 -206 -2 -267 -42 -27 -18 -35
-20 -25 -8 47 57 152 94 297 104 118 9 167 27 215 78 84 88 80 242 -9 324 -59
56 -87 63 -238 66 -77 1 -155 -2 -173 -8z"/>
</g>
</svg>
