<?xml version="1.0" standalone="no"?>
<!DOCTYPE svg PUBLIC "-//W3C//DTD SVG 20010904//EN"
 "http://www.w3.org/TR/2001/REC-SVG-20010904/DTD/svg10.dtd">
<svg version="1.0" xmlns="http://www.w3.org/2000/svg"
 width="192.000000pt" height="192.000000pt" viewBox="0 0 192.000000 192.000000"
 preserveAspectRatio="xMidYMid meet">
<metadata>
Created by potrace 1.16, written by Peter Selinger 2001-2019
</metadata>
<g transform="translate(0.000000,192.000000) scale(0.100000,-0.100000)"
fill="#000000" stroke="none">
811 c445 -92 729 -532 635 -987 -62 -301 -295 -546 -601 -630 -91 -26 -329
-26 -420 0 -291 80 -516 305 -596 596 -26 91 -26 329 0 420 120 433 542 692
982 601z"/>
<path d="M831 1354 c-59 -21 -108 -53 -156 -103 l-39 -41 312 0 c172 0 312 4
312 9 0 18 -94 94 -148 119 -72 34 -211 42 -281 16z"/>
<path d="M565 1145 c-30 -29 -34 -97 -9 -133 l15 -22 384 0 384 0 15 22 c25
36 21 104 -9 133 l-24 25 -366 0 -366 0 -24 -25z"/>
<path d="M610 780 c0 -168 0 -171 25 -195 23 -24 28 -25 173 -25 127 0 151 2
156 16 10 27 7 44 -9 44 -8 0 -15 9 -15 20 0 11 6 20 14 20 17 0 29 27 16 35
-6 4 -6 14 1 26 8 16 13 18 24 9 16 -13 35 -5 35 14 0 19 37 27 44 10 3 -9 17
-13 38 -12 28 3 34 -1 36 -21 2 -13 12 -25 22 -28 26 -7 33 -32 14 -51 -14
-13 -14 -17 -2 -26 20 -15 11 -44 -15 -49 -12 -2 4 -5 35 -6 47 -1 62 3 85 23
l28 24 0 169 0 168 -46 3 -47 3 2 -32 c1 -18 7 -34 14 -37 17 -5 15 -29 -3
-36 -8 -3 -14 -15 -12 -28 1 -17 -3 -23 -21 -24 -13 -1 -29 -10 -37 -20 -13
-19 -14 -19 -30 1 -11 13 -18 16 -21 8 -8 -18 -34 -4 -34 18 0 10 -6 19 -14
19 -18 0 -27 25 -14 38 8 8 8 15 0 24 -13 16 -1 40 19 36 8 -2 14 4 14 12 0
11 -14 16 -52 18 -44 3 -53 0 -53 -14 0 -11 6 -15 19 -11 34 8 44 -48 11 -58
-24 -7 -26 -32 -5 -55 13 -14 13 -19 -1 -38 -12 -17 -19 -20 -33 -13 -22 12
-41 -4 -41 -35 0 -29 -38 -43 -55 -20 -16 21 -55 21 -55 0 0 -12 -6 -15 -22
-10 -13 3 -27 6 -31 6 -5 0 -7 8 -5 18 5 30 -20 54 -43 41 -16 -8 -21 -5 -31
17 -10 22 -9 27 4 35 21 12 12 46 -14 55 -12 3 -17 11 -14 21 3 8 6 20 6 27 0
7 10 12 21 12 12 -1 24 5 26 12 3 9 -11 12 -51 12 l-56 0 0 -170z"/>
<path d="M1185 940 c4 -6 11 -8 16 -5 14 9 11 15 -7 15 -8 0 -12 -5 -9 -10z"/>
<path d="M792 917 c-29 -31 -28 -72 3 -102 60 -61 153 2 120 81 -21 50 -86 61
-123 21z"/>
<path d="M1110 895 c-17 -20 -4 -62 21 -70 15 -5 28 -1 42 14 18 17 19 24 9
46 -13 29 -52 34 -72 10z"/>
<path d="M1024 665 c-19 -28 -11 -60 18 -76 51 -27 105 29 73 77 -21 33 -69
33 -91 -1z"/>
</g>
</svg>
