<?xml version="1.0" standalone="no"?>
<!DOCTYPE svg PUBLIC "-//W3C//DTD SVG 20010904//EN"
 "http://www.w3.org/TR/2001/REC-SVG-20010904/DTD/svg10.dtd">
<svg version="1.0" xmlns="http://www.w3.org/2000/svg"
 width="192.000000pt" height="192.000000pt" viewBox="0 0 192.000000 192.000000"
 preserveAspectRatio="xMidYMid meet">
<metadata>
Created by potrace 1.16, written by Peter Selinger 2001-2019
</metadata>
<g transform="translate(0.000000,192.000000) scale(0.100000,-0.100000)"
fill="#000000" stroke="none">
811 c445 -92 729 -532 635 -987 -62 -301 -295 -546 -601 -630 -91 -26 -329
-26 -420 0 -291 80 -516 305 -596 596 -26 91 -26 329 0 420 120 433 542 692
982 601z"/>
<path d="M825 1350 c-118 -39 -219 -143 -256 -263 -47 -153 -8 -309 106 -416
166 -157 411 -155 570 4 164 164 159 424 -10 584 -80 76 -149 104 -260 108
-69 2 -104 -2 -150 -17z m256 -107 c66 -29 114 -76 149 -145 24 -50 30 -74 30
-128 0 -97 -23 -155 -89 -221 -184 -184 -491 -73 -518 186 -15 139 76 277 211
321 55 18 160 12 217 -13z"/>
<path d="M886 1155 c-132 -47 -176 -215 -84 -321 123 -139 343 -69 356 114 5
70 -17 122 -72 170 -57 50 -128 63 -200 37z"/>
</g>
</svg>
