<?xml version="1.0" standalone="no"?>
<!DOCTYPE svg PUBLIC "-//W3C//DTD SVG 20010904//EN"
 "http://www.w3.org/TR/2001/REC-SVG-20010904/DTD/svg10.dtd">
<svg version="1.0" xmlns="http://www.w3.org/2000/svg"
 width="192.000000pt" height="192.000000pt" viewBox="0 0 192.000000 192.000000"
 preserveAspectRatio="xMidYMid meet">
<metadata>
Created by potrace 1.16, written by Peter Selinger 2001-2019
</metadata>
<g transform="translate(0.000000,192.000000) scale(0.100000,-0.100000)"
fill="#000000" stroke="none">
811 c445 -92 729 -532 635 -987 -62 -301 -295 -546 -601 -630 -91 -26 -329
-26 -420 0 -291 80 -516 305 -596 596 -26 91 -26 329 0 420 120 433 542 692
982 601z"/>
<path d="M865 1356 c-201 -49 -333 -243 -305 -448 30 -218 247 -378 459 -339
175 32 306 168 332 344 12 86 11 236 -2 298 -14 63 -76 132 -135 148 -52 14
-286 12 -349 -3z m343 -112 c12 -8 26 -23 32 -33 16 -30 -14 -112 -61 -165
l-41 -46 37 0 36 0 -7 -37 c-17 -96 -75 -177 -158 -221 -45 -24 -62 -27 -148
-27 -92 0 -98 1 -135 31 -21 17 -51 55 -68 85 -26 47 -30 64 -30 134 0 64 5
89 24 125 41 79 108 135 191 161 14 4 88 8 165 8 112 1 145 -2 163 -15z"/>
</g>
</svg>
