<?xml version="1.0" standalone="no"?>
<!DOCTYPE svg PUBLIC "-//W3C//DTD SVG 20010904//EN"
 "http://www.w3.org/TR/2001/REC-SVG-20010904/DTD/svg10.dtd">
<svg version="1.0" xmlns="http://www.w3.org/2000/svg"
 width="192.000000pt" height="192.000000pt" viewBox="0 0 192.000000 192.000000"
 preserveAspectRatio="xMidYMid meet">
<metadata>
Created by potrace 1.16, written by Peter Selinger 2001-2019
</metadata>
<g transform="translate(0.000000,192.000000) scale(0.100000,-0.100000)"
fill="#000000" stroke="none">
811 c445 -92 729 -532 635 -987 -62 -301 -295 -546 -601 -630 -91 -26 -329
-26 -420 0 -291 80 -516 305 -596 596 -26 91 -26 329 0 420 120 433 542 692
982 601z"/>
<path d="M739 1301 c-27 -27 -29 -35 -29 -105 l0 -76 60 0 c54 0 62 -3 71 -23
9 -19 7 -32 -10 -63 -12 -21 -21 -46 -21 -55 0 -38 -33 -120 -65 -162 -30 -39
-34 -50 -25 -67 15 -28 62 -50 109 -50 36 0 43 -5 76 -50 20 -27 41 -50 46
-50 4 0 27 24 49 54 33 43 48 55 78 60 43 7 100 39 109 62 3 8 -4 25 -15 37
-26 28 -58 100 -68 152 -3 22 -15 57 -26 78 -28 56 -13 75 60 79 l57 3 0 57
c0 49 -4 61 -30 88 -44 46 -106 60 -263 60 l-134 0 -29 -29z m262 -121 c13 -7
19 -21 19 -45 0 -42 -20 -55 -83 -55 -47 0 -57 9 -57 55 0 46 10 55 57 55 24
0 53 -5 64 -10z m17 -226 c26 -18 31 -74 8 -93 -22 -18 -113 -26 -131 -11 -18
15 -20 91 -3 108 17 17 100 15 126 -4z"/>
<path d="M701 1069 c-72 -21 -181 -167 -181 -245 0 -33 26 -64 54 -64 56 0
154 88 174 157 6 21 19 66 30 101 l19 62 -31 -1 c-17 0 -46 -5 -65 -10z"/>
<path d="M1124 1053 c7 -16 19 -52 25 -81 13 -63 41 -119 73 -148 128 -118
214 -59 137 94 -49 99 -135 162 -222 162 -27 0 -27 -1 -13 -27z"/>
</g>
</svg>
