<?xml version="1.0" standalone="no"?>
<!DOCTYPE svg PUBLIC "-//W3C//DTD SVG 20010904//EN"
 "http://www.w3.org/TR/2001/REC-SVG-20010904/DTD/svg10.dtd">
<svg version="1.0" xmlns="http://www.w3.org/2000/svg"
 width="192.000000pt" height="192.000000pt" viewBox="0 0 192.000000 192.000000"
 preserveAspectRatio="xMidYMid meet">
<metadata>
Created by potrace 1.16, written by Peter Selinger 2001-2019
</metadata>
<g transform="translate(0.000000,192.000000) scale(0.100000,-0.100000)"
fill="#000000" stroke="none">
811 c445 -92 729 -532 635 -987 -62 -301 -295 -546 -601 -630 -91 -26 -329
-26 -420 0 -291 80 -516 305 -596 596 -26 91 -26 329 0 420 120 433 542 692
982 601z"/>
<path d="M464 1087 c-2 -7 -3 -67 -2 -133 l3 -119 78 -3 c71 -3 79 -1 102 22
26 26 32 64 15 96 -7 13 -7 28 0 46 13 33 -3 79 -31 94 -28 15 -159 13 -165
-3z m126 -72 c0 -9 -9 -15 -25 -15 -16 0 -25 6 -25 15 0 9 9 15 25 15 16 0 25
-6 25 -15z m5 -100 c0 -5 -12 -11 -27 -13 -21 -2 -28 1 -28 13 0 12 7 15 28
13 15 -2 27 -7 27 -13z"/>
<path d="M680 1083 c0 -10 16 -47 35 -83 27 -50 35 -76 35 -117 l0 -53 35 0
35 0 0 53 c0 41 8 67 35 117 45 84 45 100 2 100 -29 0 -36 -5 -53 -41 l-20
-41 -18 41 c-17 36 -23 41 -53 41 -25 0 -33 -4 -33 -17z"/>
<path d="M910 965 l0 -135 79 0 c98 0 125 16 123 76 -1 21 -1 63 -2 93 0 83
-22 101 -122 101 l-78 0 0 -135z m128 53 c-7 -20 -58 -23 -58 -4 0 11 10 16
31 16 20 0 29 -4 27 -12z m2 -103 c0 -10 -10 -15 -30 -15 -20 0 -30 5 -30 15
0 10 10 15 30 15 20 0 30 -5 30 -15z"/>
<path d="M1150 965 l0 -135 35 0 35 0 0 135 0 135 -35 0 -35 0 0 -135z"/>
<path d="M1243 1084 c-9 -24 10 -48 41 -52 l26 -3 0 -100 0 -99 35 0 35 0 0
100 c0 97 1 100 23 100 33 0 49 15 45 41 -3 23 -6 24 -101 27 -83 2 -98 0
-104 -14z"/>
</g>
</svg>
