<?xml version="1.0" standalone="no"?>
<!DOCTYPE svg PUBLIC "-//W3C//DTD SVG 20010904//EN"
 "http://www.w3.org/TR/2001/REC-SVG-20010904/DTD/svg10.dtd">
<svg version="1.0" xmlns="http://www.w3.org/2000/svg"
 width="192.000000pt" height="192.000000pt" viewBox="0 0 192.000000 192.000000"
 preserveAspectRatio="xMidYMid meet">
<metadata>
Created by potrace 1.16, written by Peter Selinger 2001-2019
</metadata>
<g transform="translate(0.000000,192.000000) scale(0.100000,-0.100000)"
fill="#000000" stroke="none">
811 c445 -92 729 -532 635 -987 -62 -301 -295 -546 -601 -630 -91 -26 -329
-26 -420 0 -291 80 -516 305 -596 596 -26 91 -26 329 0 420 120 433 542 692
982 601z"/>
<path d="M900 1363 c-37 -15 -257 -147 -278 -166 -36 -34 -44 -80 -40 -254 4
-209 -1 -203 235 -334 129 -71 147 -71 276 0 236 131 231 125 235 334 4 174
-4 220 -40 254 -13 12 -79 54 -148 94 -103 59 -134 73 -175 76 -27 1 -57 0
-65 -4z m125 -111 c60 -33 79 -70 50 -102 -21 -24 -53 -26 -81 -5 -10 8 -27
15 -37 15 -20 0 -157 -76 -170 -94 -4 -6 -6 -56 -5 -110 l3 -99 73 -44 c81
-47 98 -51 144 -27 38 20 74 7 84 -31 8 -33 -13 -57 -79 -89 -58 -30 -63 -29
-204 54 -141 83 -133 69 -133 241 0 125 3 150 18 168 25 30 233 149 262 150
14 0 47 -12 75 -27z"/>
</g>
</svg>
