<?xml version="1.0" standalone="no"?>
<!DOCTYPE svg PUBLIC "-//W3C//DTD SVG 20010904//EN"
 "http://www.w3.org/TR/2001/REC-SVG-20010904/DTD/svg10.dtd">
<svg version="1.0" xmlns="http://www.w3.org/2000/svg"
 width="192.000000pt" height="192.000000pt" viewBox="0 0 192.000000 192.000000"
 preserveAspectRatio="xMidYMid meet">
<metadata>
Created by potrace 1.16, written by Peter Selinger 2001-2019
</metadata>
<g transform="translate(0.000000,192.000000) scale(0.100000,-0.100000)"
fill="#000000" stroke="none">
811 c445 -92 729 -532 635 -987 -62 -301 -295 -546 -601 -630 -91 -26 -329
-26 -420 0 -291 80 -516 305 -596 596 -26 91 -26 329 0 420 120 433 542 692
982 601z"/>
<path d="M675 1324 c-20 -20 -19 -23 65 -200 l69 -144 150 0 150 0 128 146
c70 80 132 152 136 160 4 7 3 23 -3 34 -10 18 -21 20 -130 20 l-118 0 -47 -55
-47 -54 26 -57 c28 -62 33 -88 14 -82 -7 3 -31 47 -54 99 -24 52 -49 106 -58
122 l-15 27 -125 0 c-101 0 -128 -3 -141 -16z"/>
<path d="M672 799 c-131 -150 -154 -189 -116 -203 9 -3 64 -6 123 -6 l108 0
47 50 c25 27 46 54 46 59 0 6 -11 36 -25 67 -29 65 -30 74 -12 74 7 0 35 -50
61 -110 27 -61 55 -117 63 -125 11 -12 42 -15 129 -15 116 0 154 9 154 35 0 8
-32 84 -72 170 l-72 155 -151 0 -152 0 -131 -151z"/>
</g>
</svg>
