<?xml version="1.0" standalone="no"?>
<!DOCTYPE svg PUBLIC "-//W3C//DTD SVG 20010904//EN"
 "http://www.w3.org/TR/2001/REC-SVG-20010904/DTD/svg10.dtd">
<svg version="1.0" xmlns="http://www.w3.org/2000/svg"
 width="192.000000pt" height="192.000000pt" viewBox="0 0 192.000000 192.000000"
 preserveAspectRatio="xMidYMid meet">
<metadata>
Created by potrace 1.16, written by Peter Selinger 2001-2019
</metadata>
<g transform="translate(0.000000,192.000000) scale(0.100000,-0.100000)"
fill="#000000" stroke="none">
811 c445 -92 729 -532 635 -987 -62 -301 -295 -546 -601 -630 -91 -26 -329
-26 -420 0 -291 80 -516 305 -596 596 -26 91 -26 329 0 420 120 433 542 692
982 601z"/>
<path d="M881 1332 c-5 -9 -15 -55 -22 -100 -18 -116 -30 -132 -130 -172 -104
-41 -111 -46 -107 -83 3 -27 13 -36 88 -76 102 -55 120 -82 120 -181 0 -80 16
-114 54 -118 24 -3 39 7 90 57 84 83 101 88 204 60 138 -37 169 -3 108 119
-49 96 -47 126 9 216 47 76 56 115 30 136 -12 10 -34 10 -109 0 -120 -17 -136
-10 -215 86 -64 77 -99 94 -120 56z"/>
<path d="M672 838 c-28 -28 -7 -78 33 -78 12 0 26 5 33 12 28 28 7 78 -33 78
-12 0 -26 -5 -33 -12z"/>
<path d="M592 707 c-31 -33 -29 -80 4 -106 50 -39 108 -16 120 46 13 67 -77
110 -124 60z"/>
</g>
</svg>
