<?xml version="1.0" standalone="no"?>
<!DOCTYPE svg PUBLIC "-//W3C//DTD SVG 20010904//EN"
 "http://www.w3.org/TR/2001/REC-SVG-20010904/DTD/svg10.dtd">
<svg version="1.0" xmlns="http://www.w3.org/2000/svg"
 width="192.000000pt" height="192.000000pt" viewBox="0 0 192.000000 192.000000"
 preserveAspectRatio="xMidYMid meet">
<metadata>
Created by potrace 1.16, written by Peter Selinger 2001-2019
</metadata>
<g transform="translate(0.000000,192.000000) scale(0.100000,-0.100000)"
fill="#000000" stroke="none">
811 c445 -92 729 -532 635 -987 -62 -301 -295 -546 -601 -630 -91 -26 -329
-26 -420 0 -291 80 -516 305 -596 596 -26 91 -26 329 0 420 120 433 542 692
982 601z"/>
<path d="M695 1326 c-39 -18 -80 -62 -99 -108 -23 -54 -23 -452 -1 -506 21
-49 52 -81 100 -103 35 -16 67 -19 260 -19 239 0 272 7 322 61 48 52 53 84 53
316 0 191 -3 223 -19 258 -22 47 -64 89 -104 104 -43 17 -474 14 -512 -3z m52
-218 c15 -20 15 -111 0 -120 -6 -4 -29 -8 -49 -8 l-38 0 0 70 0 70 39 0 c21 0
43 -6 48 -12z m163 -41 c0 -29 5 -58 12 -65 16 -16 1 -29 -20 -16 -24 15 -31
134 -7 134 12 0 15 -12 15 -53z m-69 13 c28 -15 27 -86 -1 -95 -11 -3 -29 -3
-40 0 -27 9 -29 79 -2 94 21 13 20 13 43 1z m143 4 c24 -9 19 -24 -6 -24 -22
0 -21 -1 7 -24 25 -20 28 -26 16 -40 -18 -21 -61 -21 -61 0 0 11 6 14 20 9 11
-3 20 -2 20 4 0 5 -9 13 -20 16 -22 7 -28 50 -7 58 6 3 13 6 14 6 1 1 8 -2 17
-5z m97 -4 c14 -8 19 -21 19 -56 l0 -45 -37 3 c-33 3 -38 6 -38 28 0 15 8 29
22 36 24 11 21 26 -3 17 -8 -3 -14 -1 -14 5 0 9 11 17 28 21 2 1 12 -4 23 -9z
m-331 -135 c0 -10 -10 -15 -30 -15 -38 0 -41 -27 -3 -32 38 -4 42 -28 4 -28
-25 0 -30 -4 -33 -27 -2 -14 -9 -28 -15 -31 -10 -3 -13 16 -13 72 l0 76 45 0
c33 0 45 -4 45 -15z m290 0 c0 -8 -4 -15 -9 -15 -13 0 -22 16 -14 24 11 11 23
6 23 -9z m50 -45 c0 -33 4 -60 10 -60 6 0 10 -7 10 -16 0 -11 -5 -14 -16 -10
-9 3 -18 6 -20 6 -2 0 -4 32 -4 70 0 40 4 70 10 70 6 0 10 -27 10 -60z m60 45
c0 -8 -4 -15 -9 -15 -13 0 -22 16 -14 24 11 11 23 6 23 -9z m-320 -44 c15 -29
12 -81 -5 -87 -8 -4 -27 -3 -41 0 -35 9 -31 57 6 67 14 4 21 8 15 10 -20 5
-30 7 -40 8 -15 2 18 21 37 21 10 0 22 -9 28 -19z m143 12 c13 -3 17 -15 17
-54 0 -27 -4 -49 -10 -49 -5 0 -10 13 -10 29 0 16 -3 36 -6 45 -10 27 -24 7
-24 -35 0 -55 -24 -47 -28 9 -2 23 -7 42 -12 42 -5 0 -10 -19 -12 -42 -4 -62
-28 -62 -28 0 0 27 3 52 7 55 7 8 79 8 106 0z m67 -48 c0 -30 -4 -55 -10 -55
-5 0 -10 25 -10 55 0 30 5 55 10 55 6 0 10 -25 10 -55z m110 -1 c0 -40 -4 -55
-12 -52 -14 5 -23 70 -14 94 12 32 26 11 26 -42z m88 47 c9 -5 12 -24 10 -52
-3 -39 -6 -44 -29 -47 -48 -6 -66 53 -19 65 11 3 20 10 20 15 0 6 -9 8 -20 5
-11 -3 -20 -2 -20 2 0 21 34 28 58 12z"/>
<path d="M690 1086 c0 -10 9 -16 21 -16 24 0 21 23 -4 28 -10 2 -17 -3 -17
-12z"/>
<path d="M690 1025 c0 -11 7 -15 23 -13 12 2 22 8 22 13 0 6 -10 11 -22 13
-16 2 -23 -2 -23 -13z"/>
<path d="M805 1050 c-8 -13 3 -50 15 -50 12 0 23 37 15 50 -3 5 -10 10 -15 10
-5 0 -12 -5 -15 -10z"/>
<path d="M1047 1024 c-8 -8 1 -24 14 -24 5 0 9 7 9 15 0 15 -12 20 -23 9z"/>
<path d="M782 848 c6 -18 28 -21 28 -4 0 9 -7 16 -16 16 -9 0 -14 -5 -12 -12z"/>
<path d="M1200 845 c0 -9 5 -15 10 -13 12 4 11 16 -1 24 -5 3 -9 -2 -9 -11z"/>
</g>
</svg>
