<?xml version="1.0" standalone="no"?>
<!DOCTYPE svg PUBLIC "-//W3C//DTD SVG 20010904//EN"
 "http://www.w3.org/TR/2001/REC-SVG-20010904/DTD/svg10.dtd">
<svg version="1.0" xmlns="http://www.w3.org/2000/svg"
 width="192.000000pt" height="192.000000pt" viewBox="0 0 192.000000 192.000000"
 preserveAspectRatio="xMidYMid meet">
<metadata>
Created by potrace 1.16, written by Peter Selinger 2001-2019
</metadata>
<g transform="translate(0.000000,192.000000) scale(0.100000,-0.100000)"
fill="#000000" stroke="none">
811 c445 -92 729 -532 635 -987 -62 -301 -295 -546 -601 -630 -91 -26 -329
-26 -420 0 -291 80 -516 305 -596 596 -26 91 -26 329 0 420 120 433 542 692
982 601z"/>
<path d="M885 1358 c-11 -6 -38 -28 -61 -48 -25 -23 -66 -46 -107 -59 -113
-38 -152 -107 -128 -225 10 -47 10 -72 0 -121 -7 -35 -9 -78 -5 -100 11 -56
66 -108 137 -128 34 -10 73 -31 100 -55 60 -53 80 -62 134 -62 54 0 70 7 140
65 31 25 71 47 100 54 63 16 120 72 131 126 4 22 2 65 -5 100 -10 49 -10 74 0
121 24 119 -15 187 -128 225 -42 14 -82 36 -107 59 -23 20 -51 42 -63 49 -28
14 -112 14 -138 -1z m122 -310 c76 -43 97 -73 76 -107 -15 -24 -144 -101 -170
-101 -47 0 -63 32 -63 125 0 72 3 88 20 105 29 29 55 25 137 -22z"/>
</g>
</svg>
