<?xml version="1.0" standalone="no"?>
<!DOCTYPE svg PUBLIC "-//W3C//DTD SVG 20010904//EN"
 "http://www.w3.org/TR/2001/REC-SVG-20010904/DTD/svg10.dtd">
<svg version="1.0" xmlns="http://www.w3.org/2000/svg"
 width="192.000000pt" height="192.000000pt" viewBox="0 0 192.000000 192.000000"
 preserveAspectRatio="xMidYMid meet">
<metadata>
Created by potrace 1.16, written by Peter Selinger 2001-2019
</metadata>
<g transform="translate(0.000000,192.000000) scale(0.100000,-0.100000)"
fill="#000000" stroke="none">
810 c245 -63 441 -223 549 -451 55 -116 75 -212 75 -354 0 -141 -20 -238 -75
-352 -86 -182 -215 -312 -396 -398 -116 -55 -212 -75 -354 -75 -142 0 -238 20
-354 75 -228 108 -388 304 -451 549 -28 110 -28 292 0 402 76 298 303 526 600
603 106 28 298 28 406 1z"/>
<path d="M604 1307 c-2 -7 -3 -78 -2 -157 l3 -145 158 -3 158 -3 -3 158 -3
158 -153 3 c-119 2 -154 0 -158 -11z m186 -82 c0 -33 2 -35 35 -35 32 0 35 -2
35 -29 0 -26 -4 -30 -32 -33 -29 -3 -33 -7 -36 -35 -3 -29 -7 -33 -33 -33 -27
0 -29 3 -29 35 0 33 -2 35 -35 35 -32 0 -35 2 -35 30 0 28 3 30 35 30 33 0 35
2 35 35 0 32 2 35 30 35 28 0 30 -3 30 -35z"/>
<path d="M997 1313 c-4 -3 -7 -75 -7 -160 l0 -153 159 0 c156 0 159 0 165 23
10 37 7 257 -4 278 -10 17 -23 19 -159 19 -81 0 -151 -3 -154 -7z m253 -153
l0 -30 -100 0 -100 0 0 30 0 30 100 0 100 0 0 -30z"/>
<path d="M607 923 c-4 -3 -7 -73 -7 -154 0 -136 2 -149 19 -159 21 -11 241
-14 279 -4 22 6 22 9 22 165 l0 159 -153 0 c-85 0 -157 -3 -160 -7z m130 -85
l23 -21 25 23 25 24 22 -22 22 -22 -24 -25 -23 -25 22 -24 c19 -20 21 -28 12
-45 -15 -27 -29 -26 -58 1 l-23 21 -25 -23 -25 -24 -22 22 -22 22 24 25 23 25
-23 25 c-23 24 -23 25 -5 45 23 25 24 25 52 -2z"/>
<path d="M990 775 c0 -146 1 -155 21 -165 24 -13 282 -10 296 3 13 14 16 272
3 296 -10 20 -19 21 -165 21 l-155 0 0 -155z m260 60 l0 -36 -97 3 c-85 3 -98
5 -101 21 -8 42 3 47 103 47 l95 0 0 -35z m0 -130 l0 -35 -100 0 -100 0 0 28
c0 16 3 32 7 35 3 4 48 7 100 7 l93 0 0 -35z"/>
</g>
</svg>
