<?xml version="1.0" standalone="no"?>
<!DOCTYPE svg PUBLIC "-//W3C//DTD SVG 20010904//EN"
 "http://www.w3.org/TR/2001/REC-SVG-20010904/DTD/svg10.dtd">
<svg version="1.0" xmlns="http://www.w3.org/2000/svg"
 width="192.000000pt" height="192.000000pt" viewBox="0 0 192.000000 192.000000"
 preserveAspectRatio="xMidYMid meet">
<metadata>
Created by potrace 1.16, written by Peter Selinger 2001-2019
</metadata>
<g transform="translate(0.000000,192.000000) scale(0.100000,-0.100000)"
fill="#000000" stroke="none">
811 c445 -92 729 -532 635 -987 -62 -301 -295 -546 -601 -630 -91 -26 -329
-26 -420 0 -291 80 -516 305 -596 596 -26 91 -26 329 0 420 120 433 542 692
982 601z"/>
<path d="M690 1318 c-24 -13 -58 -40 -74 -61 l-31 -39 -3 -234 c-3 -264 3
-297 69 -347 53 -40 100 -47 304 -47 204 0 251 7 304 47 66 50 72 83 69 347
l-3 234 -31 39 c-16 21 -50 48 -74 61 -42 21 -56 22 -265 22 -209 0 -223 -1
-265 -22z m580 -448 c0 -179 -30 -210 -202 -210 l-108 0 0 126 c0 69 5 134 11
145 16 31 45 38 177 38 l122 1 0 -100z"/>
<path d="M1025 879 c-11 -33 6 -40 91 -37 77 3 79 4 79 28 0 24 -2 25 -82 28
-76 3 -82 1 -88 -19z"/>
<path d="M1030 775 c-27 -32 -5 -45 78 -45 85 0 108 11 91 42 -8 15 -22 18
-83 18 -53 0 -77 -4 -86 -15z"/>
</g>
</svg>
