<?xml version="1.0" standalone="no"?>
<!DOCTYPE svg PUBLIC "-//W3C//DTD SVG 20010904//EN"
 "http://www.w3.org/TR/2001/REC-SVG-20010904/DTD/svg10.dtd">
<svg version="1.0" xmlns="http://www.w3.org/2000/svg"
 width="192.000000pt" height="192.000000pt" viewBox="0 0 192.000000 192.000000"
 preserveAspectRatio="xMidYMid meet">
<metadata>
Created by potrace 1.16, written by Peter Selinger 2001-2019
</metadata>
<g transform="translate(0.000000,192.000000) scale(0.100000,-0.100000)"
fill="#000000" stroke="none">
810 c245 -63 441 -223 549 -451 55 -116 75 -212 75 -354 0 -141 -20 -238 -75
-352 -86 -182 -215 -312 -396 -398 -116 -55 -212 -75 -354 -75 -142 0 -238 20
-354 75 -228 108 -388 304 -451 549 -28 110 -28 292 0 402 76 298 303 526 600
603 106 28 298 28 406 1z"/>
<path d="M607 1313 c-4 -3 -7 -73 -7 -153 0 -114 3 -150 14 -159 9 -8 61 -11
162 -9 l149 3 3 149 c2 101 -1 153 -9 162 -9 11 -45 14 -159 14 -80 0 -150 -3
-153 -7z m183 -93 c0 -28 3 -30 35 -30 32 0 35 -2 35 -30 0 -28 -3 -30 -35
-30 -33 0 -35 -2 -35 -35 0 -32 -2 -35 -30 -35 -28 0 -30 3 -30 35 0 32 -2 35
-30 35 -27 0 -30 3 -30 30 0 27 3 30 30 30 27 0 30 3 30 30 0 27 3 30 30 30
27 0 30 -3 30 -30z"/>
<path d="M997 1313 c-4 -3 -7 -78 -7 -165 l0 -158 149 0 c123 0 152 3 165 16
13 12 16 41 16 153 0 93 -4 141 -12 149 -13 13 -299 18 -311 5z m253 -153 l0
-30 -95 0 -95 0 0 30 0 30 95 0 95 0 0 -30z"/>
<path d="M607 923 c-13 -12 -8 -298 5 -311 8 -8 56 -12 149 -12 112 0 141 3
153 16 13 13 16 42 16 165 l0 149 -158 0 c-87 0 -162 -3 -165 -7z m130 -85
l23 -21 25 23 25 24 22 -22 22 -22 -24 -25 -23 -25 23 -25 24 -25 -22 -22 -22
-22 -25 24 -25 23 -25 -23 -25 -24 -22 22 -22 22 24 25 23 25 -23 25 c-23 24
-23 25 -5 45 23 25 24 25 52 -2z"/>
<path d="M990 777 c0 -106 4 -157 12 -165 8 -8 56 -12 149 -12 112 0 141 3
153 16 13 12 16 41 16 153 0 93 -4 141 -12 149 -8 8 -59 12 -165 12 l-153 0 0
-153z m260 53 l0 -30 -95 0 -95 0 0 30 0 30 95 0 95 0 0 -30z m0 -130 l0 -30
-95 0 -95 0 0 30 0 30 95 0 95 0 0 -30z"/>
</g>
</svg>
