<?xml version="1.0" standalone="no"?>
<!DOCTYPE svg PUBLIC "-//W3C//DTD SVG 20010904//EN"
 "http://www.w3.org/TR/2001/REC-SVG-20010904/DTD/svg10.dtd">
<svg version="1.0" xmlns="http://www.w3.org/2000/svg"
 width="192.000000pt" height="192.000000pt" viewBox="0 0 192.000000 192.000000"
 preserveAspectRatio="xMidYMid meet">
<metadata>
Created by potrace 1.16, written by Peter Selinger 2001-2019
</metadata>
<g transform="translate(0.000000,192.000000) scale(0.100000,-0.100000)"
fill="#000000" stroke="none">
810 c245 -63 441 -223 549 -451 55 -116 75 -212 75 -354 0 -141 -20 -238 -75
-352 -86 -182 -215 -312 -396 -398 -116 -55 -212 -75 -354 -75 -142 0 -238 20
-354 75 -228 108 -388 304 -451 549 -28 110 -28 292 0 402 76 298 303 526 600
603 106 28 298 28 406 1z"/>
<path d="M604 1307 c-2 -7 -3 -78 -2 -157 l3 -145 158 -3 158 -3 -3 158 -3
158 -153 3 c-119 2 -154 0 -158 -11z m188 -79 c3 -29 7 -33 36 -36 28 -3 32
-7 32 -32 0 -25 -4 -29 -32 -32 -29 -3 -33 -7 -36 -35 -3 -29 -7 -33 -32 -33
-25 0 -29 4 -32 33 -3 28 -7 32 -35 35 -29 3 -33 7 -33 33 0 27 3 29 35 29 33
0 35 2 35 35 0 32 2 35 29 35 26 0 30 -4 33 -32z"/>
<path d="M997 1314 c-4 -4 -7 -76 -7 -161 l0 -154 158 3 157 3 0 155 0 155
-151 3 c-82 1 -153 -1 -157 -4z m253 -154 l0 -30 -100 0 -100 0 0 30 0 30 100
0 100 0 0 -30z"/>
<path d="M604 917 c-2 -7 -3 -78 -2 -157 l3 -145 155 0 155 0 3 158 3 157
-156 0 c-118 0 -157 -3 -161 -13z m133 -79 l23 -21 25 23 25 24 22 -22 22 -22
-24 -25 -23 -25 21 -23 c26 -28 27 -35 5 -59 -16 -18 -17 -18 -45 9 l-28 27
-25 -24 -25 -24 -22 22 -22 22 24 25 23 25 -23 25 c-23 24 -23 25 -5 45 23 25
24 25 52 -2z"/>
<path d="M992 773 l3 -158 158 -3 158 -3 -3 158 -3 158 -158 3 -158 3 3 -158z
m258 62 l0 -35 -100 0 -100 0 0 28 c0 16 3 32 7 35 3 4 48 7 100 7 l93 0 0
-35z m0 -130 l0 -35 -100 0 -100 0 0 28 c0 16 3 32 7 35 3 4 48 7 100 7 l93 0
0 -35z"/>
</g>
</svg>
