<?xml version="1.0" standalone="no"?>
<!DOCTYPE svg PUBLIC "-//W3C//DTD SVG 20010904//EN"
 "http://www.w3.org/TR/2001/REC-SVG-20010904/DTD/svg10.dtd">
<svg version="1.0" xmlns="http://www.w3.org/2000/svg"
 width="192.000000pt" height="192.000000pt" viewBox="0 0 192.000000 192.000000"
 preserveAspectRatio="xMidYMid meet">
<metadata>
Created by potrace 1.16, written by Peter Selinger 2001-2019
</metadata>
<g transform="translate(0.000000,192.000000) scale(0.100000,-0.100000)"
fill="#000000" stroke="none">
810 c245 -63 441 -223 549 -451 55 -116 75 -212 75 -354 0 -141 -20 -238 -75
-352 -86 -182 -215 -312 -396 -398 -116 -55 -212 -75 -354 -75 -142 0 -238 20
-354 75 -228 108 -388 304 -451 549 -28 110 -28 292 0 402 76 298 303 526 600
603 106 28 298 28 406 1z"/>
<path d="M604 1307 c-2 -7 -3 -78 -2 -157 l3 -145 163 -3 162 -2 0 140 c0 78
-5 150 -10 161 -10 17 -23 19 -161 19 -113 0 -151 -3 -155 -13z m186 -82 c0
-33 2 -35 35 -35 32 0 35 -2 35 -29 0 -26 -4 -30 -32 -33 -29 -3 -33 -7 -36
-35 -3 -29 -7 -33 -33 -33 -27 0 -29 3 -29 35 0 33 -2 35 -35 35 -32 0 -35 2
-35 30 0 28 3 30 35 30 33 0 35 2 35 35 0 32 2 35 30 35 28 0 30 -3 30 -35z"/>
<path d="M997 1313 c-4 -3 -7 -75 -7 -160 l0 -153 159 0 c136 0 160 2 165 16
12 30 7 279 -6 292 -13 13 -299 18 -311 5z m253 -153 l0 -30 -95 0 -95 0 0 30
0 30 95 0 95 0 0 -30z"/>
<path d="M607 923 c-13 -12 -8 -298 5 -311 15 -15 275 -17 298 -2 12 7 16 40
18 165 l3 155 -159 0 c-87 0 -162 -3 -165 -7z m130 -85 l23 -21 25 23 25 24
22 -22 22 -22 -24 -25 -23 -25 23 -25 24 -25 -22 -22 -22 -22 -25 24 -25 23
-25 -23 -25 -24 -22 22 -22 22 24 25 23 25 -23 25 c-23 24 -23 25 -5 45 23 25
24 25 52 -2z"/>
<path d="M990 777 c0 -106 4 -157 12 -165 8 -8 56 -12 149 -12 112 0 141 3
153 16 13 12 16 41 16 153 0 93 -4 141 -12 149 -8 8 -59 12 -165 12 l-153 0 0
-153z m260 53 l0 -30 -95 0 -95 0 0 30 0 30 95 0 95 0 0 -30z m0 -130 l0 -30
-95 0 -95 0 0 30 0 30 95 0 95 0 0 -30z"/>
</g>
</svg>
