<?xml version="1.0" standalone="no"?>
<!DOCTYPE svg PUBLIC "-//W3C//DTD SVG 20010904//EN"
 "http://www.w3.org/TR/2001/REC-SVG-20010904/DTD/svg10.dtd">
<svg version="1.0" xmlns="http://www.w3.org/2000/svg"
 width="192.000000pt" height="192.000000pt" viewBox="0 0 192.000000 192.000000"
 preserveAspectRatio="xMidYMid meet">
<metadata>
Created by potrace 1.16, written by Peter Selinger 2001-2019
</metadata>
<g transform="translate(0.000000,192.000000) scale(0.100000,-0.100000)"
fill="#000000" stroke="none">
810 c149 -35 263 -99 377 -209 169 -163 247 -351 247 -596 0 -245 -78 -433
-247 -596 -165 -159 -340 -229 -578 -229 -238 0 -413 70 -578 229 -169 163
-247 351 -247 596 0 238 70 413 229 578 111 115 239 190 390 227 107 26 298
26 407 0z"/>
<path d="M855 1367 c-186 -62 -305 -219 -305 -402 0 -162 94 -305 249 -379 60
-28 75 -31 166 -31 91 0 106 3 166 31 155 74 249 217 249 379 0 163 -94 306
-249 378 -54 26 -80 32 -151 34 -52 2 -101 -2 -125 -10z m273 -129 c7 -7 12
-21 12 -33 0 -12 -5 -26 -12 -33 -17 -17 -309 -17 -326 0 -15 15 -15 51 0 66
17 17 309 17 326 0z m-240 -365 l3 -123 -31 0 -30 0 0 100 c0 60 -4 100 -10
100 -5 0 -10 12 -10 26 0 23 3 25 38 22 l37 -3 3 -122z m102 77 c0 -47 2 -50
25 -50 23 0 25 3 25 50 0 47 2 50 25 50 l25 0 0 -125 0 -125 -25 0 c-23 0 -25
3 -25 49 l0 50 -47 3 -48 3 -3 73 c-3 71 -3 72 23 72 23 0 25 -3 25 -50z"/>
</g>
</svg>
