<?xml version="1.0" standalone="no"?>
<!DOCTYPE svg PUBLIC "-//W3C//DTD SVG 20010904//EN"
 "http://www.w3.org/TR/2001/REC-SVG-20010904/DTD/svg10.dtd">
<svg version="1.0" xmlns="http://www.w3.org/2000/svg"
 width="192.000000pt" height="192.000000pt" viewBox="0 0 192.000000 192.000000"
 preserveAspectRatio="xMidYMid meet">
<metadata>
Created by potrace 1.16, written by Peter Selinger 2001-2019
</metadata>
<g transform="translate(0.000000,192.000000) scale(0.100000,-0.100000)"
fill="#000000" stroke="none">
810 c149 -35 263 -99 377 -209 169 -163 247 -351 247 -596 0 -245 -78 -433
-247 -596 -165 -159 -340 -229 -578 -229 -238 0 -413 70 -578 229 -169 163
-247 351 -247 596 0 238 70 413 229 578 111 115 239 190 390 227 107 26 298
26 407 0z"/>
<path d="M845 1367 c-186 -62 -305 -219 -305 -402 0 -162 94 -305 249 -379 60
-28 75 -31 166 -31 91 0 106 3 166 31 155 74 249 217 249 379 0 163 -94 306
-249 378 -54 26 -80 32 -151 34 -52 2 -101 -2 -125 -10z m273 -129 c7 -7 12
-21 12 -33 0 -12 -5 -26 -12 -33 -17 -17 -309 -17 -326 0 -15 15 -15 51 0 66
17 17 309 17 326 0z m-190 -360 l-3 -123 -70 0 -70 0 -3 109 c-1 61 0 116 2
123 4 9 27 13 76 13 l71 0 -3 -122z m202 97 c0 -23 -3 -25 -50 -25 -46 0 -50
-2 -50 -24 0 -23 5 -25 48 -28 l47 -3 0 -70 0 -70 -70 0 -70 0 -3 38 c-3 34
-1 37 22 37 16 0 26 -6 26 -15 0 -9 9 -15 25 -15 20 0 25 5 25 25 0 23 -3 25
-50 25 l-50 0 0 75 0 75 75 0 c73 0 75 -1 75 -25z"/>
<path d="M830 875 c0 -73 1 -75 25 -75 24 0 25 2 25 75 0 73 -1 75 -25 75 -24
0 -25 -2 -25 -75z"/>
</g>
</svg>
