<?xml version="1.0" standalone="no"?>
<!DOCTYPE svg PUBLIC "-//W3C//DTD SVG 20010904//EN"
 "http://www.w3.org/TR/2001/REC-SVG-20010904/DTD/svg10.dtd">
<svg version="1.0" xmlns="http://www.w3.org/2000/svg"
 width="192.000000pt" height="192.000000pt" viewBox="0 0 192.000000 192.000000"
 preserveAspectRatio="xMidYMid meet">
<metadata>
Created by potrace 1.16, written by Peter Selinger 2001-2019
</metadata>
<g transform="translate(0.000000,192.000000) scale(0.100000,-0.100000)"
fill="#000000" stroke="none">
810 c245 -63 441 -223 549 -451 55 -116 75 -212 75 -354 0 -141 -20 -238 -75
-352 -86 -182 -215 -312 -396 -398 -116 -55 -212 -75 -354 -75 -142 0 -238 20
-354 75 -228 108 -388 304 -451 549 -28 110 -28 292 0 402 76 298 303 526 600
603 106 28 298 28 406 1z"/>
<path d="M655 1375 c-50 -18 -100 -71 -114 -122 -15 -52 -14 -526 0 -578 14
-51 73 -110 124 -124 53 -15 527 -15 580 0 51 14 110 73 124 124 15 53 15 527
0 580 -14 51 -73 110 -124 124 -62 17 -539 14 -590 -4z m525 -114 c14 -27 13
-47 -6 -65 -23 -24 -415 -24 -438 0 -19 18 -20 38 -6 65 10 18 23 19 225 19
202 0 215 -1 225 -19z m-270 -412 l0 -160 -37 3 -38 3 -5 102 c-4 84 -7 101
-19 94 -10 -6 -22 0 -39 21 l-26 30 40 34 c31 26 48 33 82 34 l42 0 0 -161z
m198 4 l-3 -158 -37 -3 -38 -3 0 105 c0 102 -4 118 -26 96 -7 -7 -18 0 -33 21
l-24 32 39 33 c31 26 48 33 82 34 l43 0 -3 -157z"/>
</g>
</svg>
