<?xml version="1.0" standalone="no"?>
<!DOCTYPE svg PUBLIC "-//W3C//DTD SVG 20010904//EN"
 "http://www.w3.org/TR/2001/REC-SVG-20010904/DTD/svg10.dtd">
<svg version="1.0" xmlns="http://www.w3.org/2000/svg"
 width="192.000000pt" height="192.000000pt" viewBox="0 0 192.000000 192.000000"
 preserveAspectRatio="xMidYMid meet">
<metadata>
Created by potrace 1.16, written by Peter Selinger 2001-2019
</metadata>
<g transform="translate(0.000000,192.000000) scale(0.100000,-0.100000)"
fill="#000000" stroke="none">
811 c445 -92 729 -532 635 -987 -62 -301 -295 -546 -601 -630 -91 -26 -329
-26 -420 0 -291 80 -516 305 -596 596 -26 91 -26 329 0 420 120 433 542 692
982 601z"/>
<path d="M556 1324 c-11 -29 -7 -169 6 -182 7 -7 33 -12 58 -12 48 0 70 13 70
41 0 25 -28 45 -42 31 -26 -26 -38 -13 -38 38 0 47 11 63 25 40 10 -17 43 -11
50 9 12 39 -4 51 -65 51 -44 0 -59 -4 -64 -16z"/>
<path d="M717 1333 c-4 -3 -7 -46 -7 -93 0 -66 4 -91 15 -100 21 -18 45 4 45
41 0 16 5 29 10 29 6 0 10 -13 10 -29 0 -37 24 -59 45 -41 11 9 15 33 15 90 0
108 -1 110 -69 110 -32 0 -61 -3 -64 -7z m73 -53 c0 -5 -4 -10 -10 -10 -5 0
-10 5 -10 10 0 6 5 10 10 10 6 0 10 -4 10 -10z"/>
<path d="M877 1334 c-4 -4 -7 -47 -7 -94 0 -103 7 -113 77 -108 44 3 48 5 48
28 0 21 -5 26 -32 28 l-32 3 -3 72 c-3 64 -5 72 -23 75 -12 2 -24 0 -28 -4z"/>
<path d="M1037 1334 c-4 -4 -7 -47 -7 -94 0 -103 7 -113 77 -108 44 3 48 5 48
28 0 21 -5 26 -32 28 l-32 3 -3 72 c-3 64 -5 72 -23 75 -12 2 -24 0 -28 -4z"/>
<path d="M562 1088 c-8 -8 -12 -45 -12 -100 0 -75 3 -89 18 -97 25 -13 42 4
42 41 0 21 5 28 19 28 10 0 24 7 31 15 16 19 -3 45 -31 45 -11 0 -19 5 -19 10
0 6 13 10 29 10 37 0 59 24 41 45 -15 18 -101 20 -118 3z"/>
<path d="M711 1086 c-8 -9 -11 -46 -9 -103 3 -86 3 -88 28 -88 25 0 25 2 28
88 3 83 -5 117 -28 117 -4 0 -13 -6 -19 -14z"/>
<path d="M793 1093 c-9 -3 -13 -33 -13 -103 0 -109 1 -110 70 -110 40 0 66 20
56 45 -3 9 -18 15 -41 15 l-35 0 0 74 c0 73 -7 89 -37 79z"/>
<path d="M943 1093 c-18 -7 -16 -42 2 -49 11 -5 15 -22 15 -69 0 -45 5 -68 16
-80 28 -28 44 -1 44 76 0 55 3 69 15 69 21 0 30 27 15 45 -12 14 -80 20 -107
8z"/>
<path d="M1080 1081 c-17 -32 -13 -167 6 -185 19 -19 83 -21 108 -3 27 20 10
47 -30 47 -19 0 -34 5 -34 10 0 6 8 10 19 10 10 0 24 7 31 15 16 19 -3 45 -31
45 -11 0 -19 5 -19 10 0 6 13 10 29 10 37 0 59 24 41 45 -19 23 -106 20 -120
-4z"/>
<path d="M1232 1088 c-8 -8 -12 -45 -12 -100 0 -75 3 -89 18 -97 25 -13 42 4
42 41 0 15 5 28 10 28 6 0 10 -13 10 -28 0 -36 17 -54 41 -42 15 9 18 24 18
98 -1 48 -5 93 -11 100 -13 15 -100 16 -116 0z m68 -58 c0 -5 -4 -10 -10 -10
-5 0 -10 5 -10 10 0 6 5 10 10 10 6 0 10 -4 10 -10z"/>
<path d="M1220 765 l-74 -75 -26 24 c-37 34 -58 38 -80 16 -11 -11 -20 -25
-20 -32 0 -15 104 -118 120 -118 7 0 57 44 111 97 98 96 114 124 87 151 -23
23 -44 12 -118 -63z"/>
</g>
</svg>
