<?xml version="1.0" standalone="no"?>
<!DOCTYPE svg PUBLIC "-//W3C//DTD SVG 20010904//EN"
 "http://www.w3.org/TR/2001/REC-SVG-20010904/DTD/svg10.dtd">
<svg version="1.0" xmlns="http://www.w3.org/2000/svg"
 width="192.000000pt" height="192.000000pt" viewBox="0 0 192.000000 192.000000"
 preserveAspectRatio="xMidYMid meet">
<metadata>
Created by potrace 1.16, written by Peter Selinger 2001-2019
</metadata>
<g transform="translate(0.000000,192.000000) scale(0.100000,-0.100000)"
fill="#000000" stroke="none">
811 c445 -92 729 -532 635 -987 -62 -301 -295 -546 -601 -630 -91 -26 -329
-26 -420 0 -291 80 -516 305 -596 596 -26 91 -26 329 0 420 120 433 542 692
982 601z"/>
<path d="M970 1354 c-68 -25 -114 -61 -247 -196 -144 -145 -174 -198 -175
-302 0 -105 35 -182 121 -259 61 -55 88 -51 164 22 58 56 62 63 62 104 0 41
-5 50 -57 105 -35 36 -58 69 -58 83 0 14 33 56 97 120 119 122 134 125 218 49
30 -27 66 -52 79 -56 41 -10 91 14 140 66 64 68 63 102 0 170 -64 68 -136 102
-227 107 -49 2 -86 -2 -117 -13z"/>
</g>
</svg>
