<?xml version="1.0" standalone="no"?>
<!DOCTYPE svg PUBLIC "-//W3C//DTD SVG 20010904//EN"
 "http://www.w3.org/TR/2001/REC-SVG-20010904/DTD/svg10.dtd">
<svg version="1.0" xmlns="http://www.w3.org/2000/svg"
 width="192.000000pt" height="192.000000pt" viewBox="0 0 192.000000 192.000000"
 preserveAspectRatio="xMidYMid meet">
<metadata>
Created by potrace 1.16, written by Peter Selinger 2001-2019
</metadata>
<g transform="translate(0.000000,192.000000) scale(0.100000,-0.100000)"
fill="#000000" stroke="none">
811 c445 -92 729 -532 635 -987 -62 -301 -295 -546 -601 -630 -91 -26 -329
-26 -420 0 -291 80 -516 305 -596 596 -26 91 -26 329 0 420 120 433 542 692
982 601z"/>
<path d="M603 1340 c-35 -14 -43 -42 -43 -153 0 -90 3 -108 20 -130 26 -32 78
-44 130 -28 47 14 56 25 65 79 l7 42 -44 0 c-43 0 -45 -1 -54 -37 -17 -68 -29
-37 -29 74 0 73 4 108 12 110 7 3 14 -13 18 -41 l7 -46 45 0 46 0 -7 48 c-8
64 -40 92 -104 91 -26 0 -57 -4 -69 -9z"/>
<path d="M825 1328 c-2 -13 -12 -75 -20 -138 -9 -63 -19 -125 -22 -137 -5 -21
-2 -23 40 -23 l44 0 13 112 c9 74 16 106 21 93 11 -29 11 -93 -1 -100 -15 -9
-12 -45 4 -45 7 0 16 -13 20 -30 5 -27 9 -30 46 -30 25 0 40 5 40 13 0 6 -11
77 -25 157 -14 80 -25 146 -25 148 0 1 -29 2 -65 2 -59 0 -65 -2 -70 -22z"/>
<path d="M1030 1190 l0 -160 75 0 75 0 0 30 c0 27 -3 30 -30 30 l-30 0 0 130
0 130 -45 0 -45 0 0 -160z"/>
<path d="M1200 1190 l0 -160 75 0 75 0 0 30 c0 27 -3 30 -30 30 l-30 0 0 130
0 130 -45 0 -45 0 0 -160z"/>
<path d="M904 977 c-3 -8 -4 -30 -2 -49 2 -25 8 -33 23 -33 17 0 20 7 20 45 0
35 -4 45 -18 48 -9 2 -20 -3 -23 -11z m23 -54 c-3 -10 -5 -2 -5 17 0 19 2 27
5 18 2 -10 2 -26 0 -35z"/>
<path d="M960 940 c0 -27 5 -50 10 -50 10 0 15 27 12 63 -1 9 3 17 9 17 5 0 7
5 4 10 -3 6 -13 10 -21 10 -10 0 -14 -13 -14 -50z"/>
<path d="M560 721 l0 -141 79 0 c104 0 111 9 111 136 0 125 -10 137 -114 142
l-76 4 0 -141z m105 -1 c0 -58 -4 -85 -12 -87 -10 -4 -13 18 -13 87 0 69 3 91
13 88 8 -3 12 -30 12 -88z"/>
<path d="M770 744 c0 -63 4 -124 10 -134 13 -24 71 -43 106 -34 59 14 64 25
64 161 l0 123 -40 0 -40 0 0 -120 c0 -73 -4 -120 -10 -120 -6 0 -10 47 -10
120 l0 120 -40 0 -40 0 0 -116z"/>
<path d="M970 830 c0 -25 4 -30 25 -30 l25 0 0 -110 0 -110 40 0 40 0 0 109
c0 106 1 110 23 113 16 2 23 11 25 31 l3 27 -90 0 -91 0 0 -30z"/>
<path d="M1191 768 c16 -51 29 -114 29 -140 l0 -48 35 0 c34 0 35 1 35 43 0
23 14 85 30 137 16 52 30 96 30 98 0 1 -16 2 -35 2 -23 0 -37 -5 -40 -15 -16
-49 -18 -50 -28 -17 -9 29 -14 32 -47 32 l-38 0 29 -92z"/>
</g>
</svg>
