<?xml version="1.0" standalone="no"?>
<!DOCTYPE svg PUBLIC "-//W3C//DTD SVG 20010904//EN"
 "http://www.w3.org/TR/2001/REC-SVG-20010904/DTD/svg10.dtd">
<svg version="1.0" xmlns="http://www.w3.org/2000/svg"
 width="192.000000pt" height="192.000000pt" viewBox="0 0 192.000000 192.000000"
 preserveAspectRatio="xMidYMid meet">
<metadata>
Created by potrace 1.16, written by Peter Selinger 2001-2019
</metadata>
<g transform="translate(0.000000,192.000000) scale(0.100000,-0.100000)"
fill="#000000" stroke="none">
811 c445 -92 729 -532 635 -987 -62 -301 -295 -546 -601 -630 -91 -26 -329
-26 -420 0 -291 80 -516 305 -596 596 -26 91 -26 329 0 420 120 433 542 692
982 601z"/>
<path d="M653 1339 c-78 -24 -93 -49 -93 -146 1 -171 58 -302 190 -433 97 -98
169 -140 286 -170 92 -24 203 -26 243 -5 34 17 60 77 68 151 5 46 3 53 -21 71
-14 12 -72 37 -129 57 -122 44 -148 41 -175 -24 -9 -22 -22 -40 -29 -40 -41 0
-228 197 -202 213 2 1 22 11 43 22 62 31 64 54 17 182 -57 151 -74 161 -198
122z"/>
</g>
</svg>
