<?xml version="1.0" standalone="no"?>
<!DOCTYPE svg PUBLIC "-//W3C//DTD SVG 20010904//EN"
 "http://www.w3.org/TR/2001/REC-SVG-20010904/DTD/svg10.dtd">
<svg version="1.0" xmlns="http://www.w3.org/2000/svg"
 width="192.000000pt" height="192.000000pt" viewBox="0 0 192.000000 192.000000"
 preserveAspectRatio="xMidYMid meet">
<metadata>
Created by potrace 1.16, written by Peter Selinger 2001-2019
</metadata>
<g transform="translate(0.000000,192.000000) scale(0.100000,-0.100000)"
fill="#000000" stroke="none">
811 c445 -92 729 -532 635 -987 -62 -301 -295 -546 -601 -630 -91 -26 -329
-26 -420 0 -291 80 -516 305 -596 596 -26 91 -26 329 0 420 120 433 542 692
982 601z"/>
<path d="M785 1341 c-56 -16 -131 -50 -182 -82 -36 -22 -47 -61 -40 -152 12
-168 77 -308 196 -420 39 -37 99 -81 133 -98 l63 -32 65 34 c77 39 203 160
244 234 67 121 103 307 74 389 -11 35 -22 44 -85 77 -40 20 -102 44 -137 53
-87 21 -251 20 -331 -3z m134 -219 c19 -38 19 -39 1 -67 -21 -32 -14 -64 23
-103 16 -17 28 -21 53 -16 29 5 35 2 58 -32 29 -43 23 -64 -23 -84 -26 -11
-35 -9 -65 9 -80 50 -142 146 -153 239 -5 42 -2 52 18 70 36 34 65 28 88 -16z"/>
</g>
</svg>
