<?xml version="1.0" standalone="no"?>
<!DOCTYPE svg PUBLIC "-//W3C//DTD SVG 20010904//EN"
 "http://www.w3.org/TR/2001/REC-SVG-20010904/DTD/svg10.dtd">
<svg version="1.0" xmlns="http://www.w3.org/2000/svg"
 width="192.000000pt" height="192.000000pt" viewBox="0 0 192.000000 192.000000"
 preserveAspectRatio="xMidYMid meet">
<metadata>
Created by potrace 1.16, written by Peter Selinger 2001-2019
</metadata>
<g transform="translate(0.000000,192.000000) scale(0.100000,-0.100000)"
fill="#000000" stroke="none">
811 c445 -92 729 -532 635 -987 -62 -301 -295 -546 -601 -630 -91 -26 -329
-26 -420 0 -291 80 -516 305 -596 596 -26 91 -26 329 0 420 120 433 542 692
982 601z"/>
<path d="M1093 1358 c-33 -23 -44 -58 -19 -58 7 0 16 -9 19 -20 6 -25 -18 -27
-32 -2 -8 12 -13 14 -18 5 -5 -7 -52 -14 -122 -17 -112 -6 -165 -16 -83 -16
49 0 142 -44 142 -67 0 -9 11 -31 26 -50 18 -24 33 -33 53 -33 26 0 29 -4 34
-41 3 -23 11 -45 18 -50 21 -13 18 -53 -6 -79 -53 -58 -68 -113 -48 -170 3 -8
7 -38 8 -66 1 -28 5 -55 8 -60 8 -14 -4 -29 -40 -48 -18 -9 -33 -21 -33 -26 0
-12 127 -14 133 -2 2 4 1 62 -2 130 l-6 123 28 14 c25 12 27 12 27 -7 0 -11
12 -35 28 -53 77 -91 90 -114 71 -126 -8 -5 -22 -9 -32 -9 -10 0 -17 -6 -15
-12 5 -13 128 -25 128 -13 0 9 -46 112 -75 168 l-25 47 26 106 c14 59 23 113
19 122 -3 8 0 21 6 28 36 44 -38 236 -81 209 -16 -10 -40 14 -40 39 -1 29 -23
56 -46 56 -11 0 -34 -10 -51 -22z m-44 -157 c17 -24 18 -30 6 -35 -20 -7 -44
20 -38 44 7 26 8 25 32 -9z"/>
<path d="M562 1168 c-15 -15 -16 -112 -2 -139 12 -22 68 -27 88 -7 20 20 15
58 -8 58 -13 0 -20 -7 -20 -20 0 -11 -4 -20 -10 -20 -6 0 -10 27 -10 61 0 37
4 58 10 54 6 -3 10 -15 10 -26 0 -13 7 -19 21 -19 17 0 20 5 17 33 -3 30 -6
32 -43 35 -23 2 -46 -3 -53 -10z"/>
<path d="M681 1105 c-14 -97 -14 -95 8 -95 23 0 31 19 31 73 1 34 3 39 11 24
6 -9 7 -26 4 -37 -8 -27 11 -60 36 -60 17 0 19 5 14 33 -3 17 -9 55 -13 82 -7
49 -8 50 -43 53 l-36 3 -12 -76z"/>
<path d="M800 1095 l0 -85 40 0 c29 0 40 4 40 15 0 9 -7 18 -15 21 -11 5 -15
22 -15 70 0 62 -1 64 -25 64 -25 0 -25 -1 -25 -85z"/>
<path d="M890 1095 l0 -85 40 0 c29 0 40 4 40 15 0 9 -7 18 -15 21 -11 5 -15
22 -15 70 0 62 -1 64 -25 64 -25 0 -25 -1 -25 -85z"/>
<path d="M560 958 c0 -22 4 -28 18 -26 39 7 45 56 7 56 -21 0 -25 -5 -25 -30z"/>
<path d="M550 824 l0 -85 53 3 52 3 3 74 c3 85 -1 91 -65 91 l-43 0 0 -86z
m70 1 c0 -24 -4 -47 -10 -50 -6 -4 -10 15 -10 50 0 35 4 54 10 50 6 -3 10 -26
10 -50z"/>
<path d="M680 837 c0 -82 9 -97 57 -97 42 0 53 21 53 104 0 63 -1 66 -25 66
-23 0 -24 -3 -28 -72 l-3 -73 -2 73 c-2 70 -3 72 -27 72 -24 0 -25 -2 -25 -73z"/>
<path d="M800 895 c0 -8 7 -15 15 -15 12 0 15 -14 15 -70 0 -68 1 -70 25 -70
24 0 25 2 25 70 0 56 3 70 15 70 8 0 15 7 15 15 0 12 -13 15 -55 15 -42 0 -55
-3 -55 -15z"/>
<path d="M920 901 c0 -5 7 -28 15 -51 8 -23 15 -58 15 -76 0 -27 4 -34 20 -34
14 0 20 7 20 23 0 12 9 50 19 85 l19 62 -24 0 c-18 0 -24 -6 -25 -22 l0 -23
-11 23 c-11 21 -48 32 -48 13z"/>
</g>
</svg>
