<?xml version="1.0" standalone="no"?>
<!DOCTYPE svg PUBLIC "-//W3C//DTD SVG 20010904//EN"
 "http://www.w3.org/TR/2001/REC-SVG-20010904/DTD/svg10.dtd">
<svg version="1.0" xmlns="http://www.w3.org/2000/svg"
 width="192.000000pt" height="192.000000pt" viewBox="0 0 192.000000 192.000000"
 preserveAspectRatio="xMidYMid meet">
<metadata>
Created by potrace 1.16, written by Peter Selinger 2001-2019
</metadata>
<g transform="translate(0.000000,192.000000) scale(0.100000,-0.100000)"
fill="#000000" stroke="none">
811 c445 -92 729 -532 635 -987 -62 -301 -295 -546 -601 -630 -91 -26 -329
-26 -420 0 -291 80 -516 305 -596 596 -26 91 -26 329 0 420 120 433 542 692
982 601z"/>
<path d="M582 1149 c-88 -44 -152 -149 -152 -250 0 -65 13 -95 52 -119 40 -25
92 -20 153 14 39 22 41 22 58 4 21 -22 41 -23 61 -2 15 14 17 14 32 0 22 -22
29 -21 73 19 37 34 40 35 46 15 4 -11 18 -28 31 -37 24 -15 27 -15 70 15 24
18 46 32 49 32 2 0 5 -12 7 -27 5 -39 19 -37 53 10 38 51 68 56 73 12 6 -46
21 -59 43 -39 11 10 19 22 19 29 0 12 31 45 42 45 3 0 11 -14 18 -30 24 -58
80 -76 140 -45 17 9 30 17 30 20 0 2 -24 1 -54 -2 l-53 -5 -29 43 c-35 51 -65
61 -98 30 l-23 -21 -18 20 c-25 27 -54 25 -87 -7 -22 -21 -31 -24 -40 -15 -18
18 -40 15 -81 -13 -43 -30 -53 -27 -66 21 -8 28 -6 44 11 81 40 90 34 203 -11
203 -29 0 -43 -47 -50 -167 -5 -100 -9 -114 -30 -137 -32 -34 -47 -33 -55 6
-14 72 -53 76 -127 13 -81 -69 -160 -80 -188 -26 -17 31 -12 102 10 151 26 58
93 126 138 141 32 11 36 10 56 -15 22 -28 38 -26 28 2 -19 55 -62 65 -131 31z
m349 -149 c-8 -21 -10 -18 -10 27 -1 69 13 104 17 43 2 -25 -1 -57 -7 -70z
m-174 -137 c2 -5 -5 -21 -16 -34 -18 -20 -22 -22 -31 -9 -13 20 -13 26 6 45
17 17 35 16 41 -2z"/>
</g>
</svg>
