<?xml version="1.0" standalone="no"?>
<!DOCTYPE svg PUBLIC "-//W3C//DTD SVG 20010904//EN"
 "http://www.w3.org/TR/2001/REC-SVG-20010904/DTD/svg10.dtd">
<svg version="1.0" xmlns="http://www.w3.org/2000/svg"
 width="192.000000pt" height="192.000000pt" viewBox="0 0 192.000000 192.000000"
 preserveAspectRatio="xMidYMid meet">
<metadata>
Created by potrace 1.16, written by Peter Selinger 2001-2019
</metadata>
<g transform="translate(0.000000,192.000000) scale(0.100000,-0.100000)"
fill="#000000" stroke="none">
811 c445 -92 729 -532 635 -987 -62 -301 -295 -546 -601 -630 -91 -26 -329
-26 -420 0 -291 80 -516 305 -596 596 -26 91 -26 329 0 420 120 433 542 692
982 601z"/>
<path d="M823 1305 c-17 -7 -39 -27 -48 -44 -13 -27 -21 -31 -56 -31 -76 0
-144 -48 -168 -119 -15 -45 -15 -327 0 -372 7 -19 23 -47 38 -63 49 -54 65
-56 373 -56 274 0 284 1 323 23 26 14 48 37 63 67 20 41 22 58 22 215 0 157
-2 174 -22 215 -29 57 -84 90 -150 90 -43 0 -49 3 -63 31 -9 17 -31 37 -50 45
-45 19 -218 18 -262 -1z m218 -211 c36 -18 75 -66 89 -110 39 -119 -64 -244
-190 -232 -174 17 -230 239 -84 335 50 32 129 35 185 7z"/>
<path d="M903 1030 c-13 -5 -32 -24 -43 -42 -55 -87 39 -194 134 -154 44 18
66 52 66 99 0 31 -7 46 -34 73 -36 36 -75 43 -123 24z"/>
</g>
</svg>
