<?xml version="1.0" standalone="no"?>
<!DOCTYPE svg PUBLIC "-//W3C//DTD SVG 20010904//EN"
 "http://www.w3.org/TR/2001/REC-SVG-20010904/DTD/svg10.dtd">
<svg version="1.0" xmlns="http://www.w3.org/2000/svg"
 width="192.000000pt" height="192.000000pt" viewBox="0 0 192.000000 192.000000"
 preserveAspectRatio="xMidYMid meet">
<metadata>
Created by potrace 1.16, written by Peter Selinger 2001-2019
</metadata>
<g transform="translate(0.000000,192.000000) scale(0.100000,-0.100000)"
fill="#000000" stroke="none">
810 c245 -63 441 -223 549 -451 55 -116 75 -212 75 -354 0 -141 -20 -238 -75
-352 -86 -182 -215 -312 -396 -398 -116 -55 -212 -75 -354 -75 -142 0 -238 20
-354 75 -228 108 -388 304 -451 549 -28 110 -28 292 0 402 76 298 303 526 600
603 106 28 298 28 406 1z"/>
<path d="M850 1364 c-202 -54 -337 -260 -303 -461 39 -226 252 -383 470 -346
179 31 315 167 346 346 34 204 -102 408 -308 462 -73 18 -133 18 -205 -1z
m235 -139 c174 -85 211 -321 73 -462 -138 -141 -378 -103 -465 75 -37 76 -39
183 -4 252 41 81 112 139 196 161 53 14 143 3 200 -26z"/>
<path d="M879 1077 c-42 -28 -59 -60 -59 -112 0 -74 61 -135 135 -135 43 0 94
27 115 62 23 37 26 101 7 138 -19 39 -74 70 -122 70 -27 0 -54 -8 -76 -23z
m132 -56 c35 -36 37 -70 5 -107 -47 -56 -146 -20 -146 52 0 34 51 84 85 84 16
0 38 -12 56 -29z"/>
</g>
</svg>
