<?xml version="1.0" standalone="no"?>
<!DOCTYPE svg PUBLIC "-//W3C//DTD SVG 20010904//EN"
 "http://www.w3.org/TR/2001/REC-SVG-20010904/DTD/svg10.dtd">
<svg version="1.0" xmlns="http://www.w3.org/2000/svg"
 width="192.000000pt" height="192.000000pt" viewBox="0 0 192.000000 192.000000"
 preserveAspectRatio="xMidYMid meet">
<metadata>
Created by potrace 1.16, written by Peter Selinger 2001-2019
</metadata>
<g transform="translate(0.000000,192.000000) scale(0.100000,-0.100000)"
fill="#000000" stroke="none">
811 c445 -92 729 -532 635 -987 -62 -301 -295 -546 -601 -630 -91 -26 -329
-26 -420 0 -291 80 -516 305 -596 596 -26 91 -26 329 0 420 120 433 542 692
982 601z"/>
<path d="M887 1370 c-27 -5 -68 -16 -90 -25 -59 -24 -137 -83 -137 -105 0 -10
14 -30 32 -45 42 -36 76 -30 176 30 103 61 166 79 260 73 l75 -5 -39 23 c-78
48 -188 69 -277 54z"/>
<path d="M1004 1242 c-29 -10 -80 -37 -115 -59 -79 -51 -109 -63 -161 -63 -34
0 -47 6 -79 39 l-40 39 -18 -36 c-87 -171 -57 -360 78 -489 102 -98 261 -138
397 -98 247 71 369 346 254 574 -25 51 -35 61 -82 81 -72 31 -167 36 -234 12z
m36 -134 c58 -40 75 -72 75 -141 0 -49 -5 -69 -23 -95 -84 -117 -270 -81 -301
59 -9 38 5 103 29 136 46 63 157 84 220 41z"/>
<path d="M903 1065 c-20 -8 -39 -28 -49 -48 -36 -76 16 -157 101 -157 115 0
148 152 45 205 -35 18 -55 18 -97 0z"/>
</g>
</svg>
