<?xml version="1.0" standalone="no"?>
<!DOCTYPE svg PUBLIC "-//W3C//DTD SVG 20010904//EN"
 "http://www.w3.org/TR/2001/REC-SVG-20010904/DTD/svg10.dtd">
<svg version="1.0" xmlns="http://www.w3.org/2000/svg"
 width="192.000000pt" height="192.000000pt" viewBox="0 0 192.000000 192.000000"
 preserveAspectRatio="xMidYMid meet">
<metadata>
Created by potrace 1.16, written by Peter Selinger 2001-2019
</metadata>
<g transform="translate(0.000000,192.000000) scale(0.100000,-0.100000)"
fill="#000000" stroke="none">
811 c445 -92 729 -532 635 -987 -62 -301 -295 -546 -601 -630 -91 -26 -329
-26 -420 0 -291 80 -516 305 -596 596 -26 91 -26 329 0 420 120 433 542 692
982 601z"/>
<path d="M886 1370 c-122 -21 -249 -121 -304 -237 -24 -52 -27 -69 -27 -168 0
-99 3 -116 27 -168 77 -165 266 -268 434 -238 133 24 256 118 312 238 24 52
27 69 27 168 0 98 -3 116 -27 167 -79 168 -265 268 -442 238z m187 -90 c25
-12 27 -17 27 -78 l0 -64 -22 14 c-13 8 -57 34 -98 58 -41 23 -86 50 -100 58
l-25 16 25 8 c36 11 160 3 193 -12z m-248 -67 c25 -16 45 -30 45 -33 0 -9
-233 -141 -238 -135 -3 2 9 34 27 69 29 59 88 126 111 126 5 0 30 -12 55 -27z
m425 -97 c16 -34 32 -77 35 -96 6 -34 4 -36 -45 -62 -27 -16 -52 -28 -55 -28
-3 0 -5 64 -5 142 0 141 0 141 20 123 11 -10 34 -46 50 -79z m-215 -23 l65
-37 0 -88 0 -89 -62 -39 c-35 -22 -71 -40 -81 -40 -30 0 -145 72 -151 94 -7
27 -7 115 0 142 6 22 117 94 147 94 10 0 47 -17 82 -37z m-305 -235 c0 -141 0
-141 -20 -123 -26 24 -77 129 -85 175 -6 33 -4 36 42 62 26 15 51 28 56 28 4
0 7 -64 7 -142z m544 10 c-21 -68 -87 -161 -123 -173 -17 -5 -111 40 -111 53
0 7 219 139 233 141 5 1 5 -9 1 -21z m-334 -153 c36 -21 76 -45 90 -53 l25
-16 -25 -7 c-44 -12 -115 -10 -168 6 l-52 16 0 65 0 66 33 -20 c17 -10 61 -36
97 -57z"/>
<path d="M903 1039 c-30 -19 -33 -25 -33 -74 0 -50 2 -54 36 -74 19 -12 41
-21 49 -21 8 0 30 9 49 21 34 20 36 24 36 74 0 50 -2 55 -34 74 -42 26 -62 26
-103 0z"/>
</g>
</svg>
