<?xml version="1.0" standalone="no"?>
<!DOCTYPE svg PUBLIC "-//W3C//DTD SVG 20010904//EN"
 "http://www.w3.org/TR/2001/REC-SVG-20010904/DTD/svg10.dtd">
<svg version="1.0" xmlns="http://www.w3.org/2000/svg"
 width="192.000000pt" height="192.000000pt" viewBox="0 0 192.000000 192.000000"
 preserveAspectRatio="xMidYMid meet">
<metadata>
Created by potrace 1.16, written by Peter Selinger 2001-2019
</metadata>
<g transform="translate(0.000000,192.000000) scale(0.100000,-0.100000)"
fill="#000000" stroke="none">
810 c245 -63 441 -223 549 -451 55 -116 75 -212 75 -354 0 -141 -20 -238 -75
-352 -86 -182 -215 -312 -396 -398 -116 -55 -212 -75 -354 -75 -142 0 -238 20
-354 75 -228 108 -388 304 -451 549 -28 110 -28 292 0 402 76 298 303 526 600
603 106 28 298 28 406 1z"/>
<path d="M870 1369 c-113 -22 -232 -114 -284 -220 -122 -251 30 -545 306 -591
271 -45 515 199 470 470 -39 234 -259 387 -492 341z m216 -144 c174 -85 211
-320 72 -462 -52 -54 -125 -85 -197 -86 -119 -1 -217 58 -268 161 -38 77 -40
184 -4 252 41 79 105 133 191 161 47 16 147 3 206 -26z"/>
<path d="M879 1077 c-42 -28 -59 -60 -59 -112 0 -74 61 -135 135 -135 43 0 94
27 115 62 23 37 26 101 7 138 -19 39 -74 70 -122 70 -27 0 -54 -8 -76 -23z
m132 -56 c35 -36 37 -70 5 -107 -47 -56 -146 -20 -146 52 0 34 51 84 85 84 16
0 38 -12 56 -29z"/>
</g>
</svg>
