<?xml version="1.0" standalone="no"?>
<!DOCTYPE svg PUBLIC "-//W3C//DTD SVG 20010904//EN"
 "http://www.w3.org/TR/2001/REC-SVG-20010904/DTD/svg10.dtd">
<svg version="1.0" xmlns="http://www.w3.org/2000/svg"
 width="192.000000pt" height="192.000000pt" viewBox="0 0 192.000000 192.000000"
 preserveAspectRatio="xMidYMid meet">
<metadata>
Created by potrace 1.16, written by Peter Selinger 2001-2019
</metadata>
<g transform="translate(0.000000,192.000000) scale(0.100000,-0.100000)"
fill="#000000" stroke="none">
811 c445 -92 729 -532 635 -987 -62 -301 -295 -546 -601 -630 -91 -26 -329
-26 -420 0 -291 80 -516 305 -596 596 -26 91 -26 329 0 420 120 433 542 692
982 601z"/>
<path d="M695 1321 c-51 -23 -102 -81 -110 -123 -3 -18 -5 -135 -3 -260 l3
-226 31 -39 c58 -73 79 -78 339 -78 260 0 281 5 339 78 l31 39 3 226 c2 125 0
242 -3 260 -8 42 -59 100 -110 123 -35 16 -69 19 -260 19 -191 0 -225 -3 -260
-19z m382 -125 c159 -80 190 -288 62 -415 -98 -99 -270 -99 -368 0 -173 172
-43 461 200 445 33 -2 75 -14 106 -30z"/>
<path d="M879 1077 c-42 -28 -59 -60 -59 -112 0 -74 61 -135 135 -135 43 0 94
27 115 62 23 37 26 101 7 138 -19 39 -74 70 -122 70 -27 0 -54 -8 -76 -23z
m132 -56 c35 -36 37 -70 5 -107 -47 -56 -146 -20 -146 52 0 34 51 84 85 84 16
0 38 -12 56 -29z"/>
</g>
</svg>
