<?xml version="1.0" standalone="no"?>
<!DOCTYPE svg PUBLIC "-//W3C//DTD SVG 20010904//EN"
 "http://www.w3.org/TR/2001/REC-SVG-20010904/DTD/svg10.dtd">
<svg version="1.0" xmlns="http://www.w3.org/2000/svg"
 width="192.000000pt" height="192.000000pt" viewBox="0 0 192.000000 192.000000"
 preserveAspectRatio="xMidYMid meet">
<metadata>
Created by potrace 1.16, written by Peter Selinger 2001-2019
</metadata>
<g transform="translate(0.000000,192.000000) scale(0.100000,-0.100000)"
fill="#000000" stroke="none">
811 c445 -92 729 -532 635 -987 -62 -301 -295 -546 -601 -630 -91 -26 -329
-26 -420 0 -291 80 -516 305 -596 596 -26 91 -26 329 0 420 120 433 542 692
982 601z"/>
<path d="M856 1370 c-64 -17 -153 -70 -200 -120 -196 -209 -130 -539 132 -663
61 -29 75 -32 167 -32 92 0 106 3 167 32 326 154 327 603 2 755 -52 24 -81 31
-147 34 -45 2 -99 -1 -121 -6z m216 -148 c57 -25 115 -83 142 -141 23 -52 28
-167 8 -213 l-12 -28 -255 0 -255 0 -11 27 c-56 148 28 318 183 369 55 18 142
12 200 -14z"/>
</g>
</svg>
