<?xml version="1.0" standalone="no"?>
<!DOCTYPE svg PUBLIC "-//W3C//DTD SVG 20010904//EN"
 "http://www.w3.org/TR/2001/REC-SVG-20010904/DTD/svg10.dtd">
<svg version="1.0" xmlns="http://www.w3.org/2000/svg"
 width="192.000000pt" height="192.000000pt" viewBox="0 0 192.000000 192.000000"
 preserveAspectRatio="xMidYMid meet">
<metadata>
Created by potrace 1.16, written by Peter Selinger 2001-2019
</metadata>
<g transform="translate(0.000000,192.000000) scale(0.100000,-0.100000)"
fill="#000000" stroke="none">
811 c445 -92 729 -532 635 -987 -62 -301 -295 -546 -601 -630 -91 -26 -329
-26 -420 0 -291 80 -516 305 -596 596 -26 91 -26 329 0 420 120 433 542 692
982 601z"/>
<path d="M865 1293 c-84 -25 -115 -27 -128 -9 -10 13 -25 16 -67 14 -53 -3
-54 -4 -61 -36 -4 -18 -17 -45 -30 -58 -23 -25 -24 -31 -27 -227 -2 -188 -1
-204 18 -235 32 -52 75 -72 153 -72 44 0 79 -6 100 -17 48 -25 180 -29 237 -8
25 9 84 20 131 24 98 8 128 24 159 87 18 36 20 60 20 210 0 156 -2 173 -22
214 -31 60 -70 81 -171 90 -45 5 -107 15 -137 24 -66 19 -109 19 -175 -1z
m200 -92 c90 -40 149 -133 148 -236 -1 -278 -379 -354 -494 -100 -40 88 -13
223 57 286 51 44 64 52 112 65 55 16 120 10 177 -15z"/>
<path d="M949 1083 c-1 -5 0 -21 1 -36 1 -16 -6 -37 -16 -48 -18 -20 -59 -26
-69 -9 -12 20 -25 9 -25 -20 0 -99 115 -157 189 -94 79 66 50 183 -51 208 -16
3 -28 3 -29 -1z"/>
</g>
</svg>
