<?xml version="1.0" standalone="no"?>
<!DOCTYPE svg PUBLIC "-//W3C//DTD SVG 20010904//EN"
 "http://www.w3.org/TR/2001/REC-SVG-20010904/DTD/svg10.dtd">
<svg version="1.0" xmlns="http://www.w3.org/2000/svg"
 width="192.000000pt" height="192.000000pt" viewBox="0 0 192.000000 192.000000"
 preserveAspectRatio="xMidYMid meet">
<metadata>
Created by potrace 1.16, written by Peter Selinger 2001-2019
</metadata>
<g transform="translate(0.000000,192.000000) scale(0.100000,-0.100000)"
fill="#000000" stroke="none">
811 c445 -92 729 -532 635 -987 -62 -301 -295 -546 -601 -630 -91 -26 -329
-26 -420 0 -291 80 -516 305 -596 596 -26 91 -26 329 0 420 120 433 542 692
982 601z"/>
<path d="M605 1325 c-22 -21 -25 -33 -25 -99 0 -64 3 -77 19 -86 33 -17 51 12
51 80 l0 59 66 3 c74 3 100 22 75 52 -10 12 -32 16 -88 16 -65 0 -77 -3 -98
-25z"/>
<path d="M1119 1334 c-25 -30 1 -49 75 -52 l66 -3 0 -59 c0 -68 18 -97 51 -80
16 9 19 22 19 86 0 66 -3 78 -25 99 -21 22 -33 25 -98 25 -56 0 -78 -4 -88
-16z"/>
<path d="M755 1140 c-44 -17 -50 -37 -50 -156 0 -105 2 -114 24 -138 22 -23
32 -26 92 -26 78 0 108 18 112 65 2 27 -1 30 -30 33 -28 3 -33 0 -33 -17 0
-26 -42 -38 -76 -22 -24 11 -25 13 -22 108 l3 98 43 3 c37 3 43 0 52 -22 10
-27 52 -37 65 -16 12 19 -15 77 -41 89 -29 13 -109 14 -139 1z"/>
<path d="M1005 1125 c-28 -27 -34 -85 -14 -129 14 -30 28 -36 99 -45 51 -6 55
-8 58 -33 3 -22 -2 -30 -22 -39 -32 -15 -73 -4 -81 21 -4 14 -15 20 -36 20
-24 0 -29 -4 -29 -24 0 -13 9 -35 21 -50 19 -24 26 -26 95 -26 96 0 114 15
114 95 0 75 -20 95 -95 95 -44 0 -56 4 -65 20 -6 12 -8 30 -5 40 5 16 15 20
51 20 39 0 46 -3 54 -26 15 -38 54 -30 58 12 5 49 -34 74 -115 74 -55 0 -67
-4 -88 -25z"/>
<path d="M587 813 c-4 -3 -7 -40 -7 -80 0 -65 3 -77 25 -98 21 -22 33 -25 98
-25 56 0 78 4 88 16 25 30 -1 49 -75 52 l-66 3 0 57 c0 32 -5 63 -12 70 -13
13 -41 16 -51 5z"/>
<path d="M1272 808 c-7 -7 -12 -37 -12 -70 l0 -57 -66 -3 c-74 -3 -100 -22
-75 -52 10 -12 32 -16 88 -16 65 0 77 3 99 25 23 23 25 31 22 102 -3 69 -5 78
-23 81 -11 1 -26 -3 -33 -10z"/>
<path d="M866 684 c-25 -24 -24 -58 1 -86 21 -24 54 -23 86 2 14 11 28 20 31
20 3 0 6 -9 6 -20 0 -31 42 -26 58 7 24 52 17 63 -37 63 -31 0 -53 5 -61 15
-16 20 -64 19 -84 -1z"/>
</g>
</svg>
