<?xml version="1.0" standalone="no"?>
<!DOCTYPE svg PUBLIC "-//W3C//DTD SVG 20010904//EN"
 "http://www.w3.org/TR/2001/REC-SVG-20010904/DTD/svg10.dtd">
<svg version="1.0" xmlns="http://www.w3.org/2000/svg"
 width="192.000000pt" height="192.000000pt" viewBox="0 0 192.000000 192.000000"
 preserveAspectRatio="xMidYMid meet">
<metadata>
Created by potrace 1.16, written by Peter Selinger 2001-2019
</metadata>
<g transform="translate(0.000000,192.000000) scale(0.100000,-0.100000)"
fill="#000000" stroke="none">
811 c445 -92 729 -532 635 -987 -62 -301 -295 -546 -601 -630 -91 -26 -329
-26 -420 0 -291 80 -516 305 -596 596 -26 91 -26 329 0 420 120 433 542 692
982 601z"/>
<path d="M599 1355 c-36 -20 -51 -61 -47 -135 3 -70 22 -95 56 -74 13 8 18 27
20 78 l3 66 64 0 c44 0 68 5 79 16 21 21 20 41 -3 54 -28 15 -142 12 -172 -5z"/>
<path d="M1138 1359 c-22 -12 -23 -33 -2 -53 11 -11 35 -16 79 -16 l64 0 3
-66 c2 -51 7 -70 20 -78 34 -21 53 4 56 74 4 76 -11 116 -49 135 -32 17 -145
20 -171 4z"/>
<path d="M715 1125 c-24 -23 -25 -30 -25 -147 1 -159 15 -178 128 -178 76 0
112 25 112 76 0 30 -3 34 -28 34 -19 0 -30 -7 -37 -22 -11 -25 -42 -33 -81
-24 -24 6 -25 8 -22 114 l3 107 47 3 c44 3 48 1 54 -22 5 -20 12 -26 35 -26
26 0 29 3 29 35 0 58 -26 75 -115 75 -67 0 -79 -3 -100 -25z"/>
<path d="M1009 1131 c-21 -16 -24 -28 -24 -81 0 -78 21 -100 99 -100 66 0 78
-9 74 -51 -3 -34 -3 -34 -53 -34 -44 0 -50 3 -53 23 -3 18 -10 22 -38 22 -38
0 -44 -17 -23 -63 16 -34 49 -47 123 -47 86 0 107 17 114 92 4 47 1 58 -20 83
-20 23 -35 29 -89 34 l-64 6 0 35 c0 35 0 35 48 38 43 3 48 1 57 -23 8 -21 16
-26 38 -23 38 4 43 48 8 83 -22 22 -33 25 -99 25 -59 0 -80 -4 -98 -19z"/>
<path d="M565 793 c-14 -13 -16 -31 -13 -91 3 -66 6 -77 31 -98 25 -21 38 -24
106 -24 86 0 115 15 94 48 -7 13 -28 18 -82 20 l-71 3 0 64 c0 44 -5 68 -16
79 -20 20 -29 20 -49 -1z"/>
<path d="M1296 794 c-11 -11 -16 -35 -16 -79 l0 -64 -71 -3 c-54 -2 -75 -7
-82 -20 -21 -33 8 -48 94 -48 68 0 81 3 106 24 25 21 28 32 31 98 3 60 1 78
-13 91 -20 21 -29 21 -49 1z"/>
</g>
</svg>
