<?xml version="1.0" standalone="no"?>
<!DOCTYPE svg PUBLIC "-//W3C//DTD SVG 20010904//EN"
 "http://www.w3.org/TR/2001/REC-SVG-20010904/DTD/svg10.dtd">
<svg version="1.0" xmlns="http://www.w3.org/2000/svg"
 width="192.000000pt" height="192.000000pt" viewBox="0 0 192.000000 192.000000"
 preserveAspectRatio="xMidYMid meet">
<metadata>
Created by potrace 1.16, written by Peter Selinger 2001-2019
</metadata>
<g transform="translate(0.000000,192.000000) scale(0.100000,-0.100000)"
fill="#000000" stroke="none">
811 c445 -92 729 -532 635 -987 -62 -301 -295 -546 -601 -630 -91 -26 -329
-26 -420 0 -291 80 -516 305 -596 596 -26 91 -26 329 0 420 120 433 542 692
982 601z"/>
<path d="M1117 1356 c-7 -8 -56 -82 -108 -165 -60 -97 -101 -153 -114 -156
-11 -3 -114 -21 -230 -41 -115 -20 -216 -41 -222 -46 -34 -28 -13 -55 171
-232 111 -106 193 -176 205 -176 12 0 34 20 57 53 21 28 62 84 90 123 l52 70
204 -28 c111 -16 217 -27 233 -26 58 6 48 34 -121 339 -86 156 -161 287 -168
291 -17 12 -33 9 -49 -6z m142 -323 c61 -111 111 -204 111 -206 0 -4 -283 34
-289 39 -2 1 20 35 48 75 77 109 64 146 -42 127 -27 -5 -51 -8 -53 -6 -2 2 22
43 53 91 30 49 56 87 58 85 1 -2 52 -94 114 -205z m-255 -112 c-22 -30 -36
-41 -56 -41 -34 0 -34 1 -5 45 15 24 31 35 52 37 17 2 32 2 34 1 2 -1 -10 -20
-25 -42z m-164 5 c0 -3 -9 -20 -20 -39 -24 -41 -18 -65 19 -73 78 -17 77 -12
26 -84 -25 -36 -49 -66 -54 -68 -4 -1 -61 49 -126 111 l-119 113 115 21 c117
21 159 26 159 19z"/>
</g>
</svg>
