<?xml version="1.0" standalone="no"?>
<!DOCTYPE svg PUBLIC "-//W3C//DTD SVG 20010904//EN"
 "http://www.w3.org/TR/2001/REC-SVG-20010904/DTD/svg10.dtd">
<svg version="1.0" xmlns="http://www.w3.org/2000/svg"
 width="192.000000pt" height="192.000000pt" viewBox="0 0 192.000000 192.000000"
 preserveAspectRatio="xMidYMid meet">
<metadata>
Created by potrace 1.16, written by Peter Selinger 2001-2019
</metadata>
<g transform="translate(0.000000,192.000000) scale(0.100000,-0.100000)"
fill="#000000" stroke="none">
811 c445 -92 729 -532 635 -987 -62 -301 -295 -546 -601 -630 -91 -26 -329
-26 -420 0 -291 80 -516 305 -596 596 -26 91 -26 329 0 420 120 433 542 692
982 601z"/>
<path d="M627 1288 c-41 -24 -77 -86 -77 -132 0 -44 30 -96 70 -122 30 -20 48
-25 86 -22 41 3 49 6 49 23 0 17 -7 20 -49 20 -42 1 -52 5 -77 33 -62 69 -26
161 67 171 40 5 49 9 49 26 0 30 -68 32 -118 3z"/>
<path d="M1137 1264 c-4 -4 -7 -22 -7 -41 0 -30 -3 -33 -29 -33 -17 0 -38 -10
-55 -26 -58 -59 -18 -157 62 -154 20 1 60 2 88 1 50 -1 51 -1 46 -31 -7 -51
-84 -110 -142 -110 l-21 0 21 30 c38 53 8 122 -40 92 -16 -10 -24 -10 -40 0
-51 32 -80 -47 -36 -95 34 -36 12 -35 -64 3 -98 49 -172 35 -210 -40 -54 -106
14 -230 127 -230 30 0 45 5 50 15 8 22 0 27 -49 31 -61 5 -98 47 -98 110 0 37
5 51 29 75 37 37 74 38 138 3 44 -23 56 -25 148 -22 83 3 107 8 143 28 69 39
86 77 91 199 2 78 0 105 -10 112 -22 13 -29 0 -29 -56 0 -77 -18 -79 -22 -3
-2 48 -7 63 -18 63 -12 0 -16 -15 -18 -67 -5 -106 -21 -80 -24 39 -3 98 -11
127 -31 107z m-7 -164 c0 -46 -2 -50 -23 -50 -13 0 -28 5 -35 12 -29 29 -2 88
39 88 16 0 19 -7 19 -50z"/>
<path d="M796 1174 c-21 -21 -10 -37 20 -30 17 5 24 2 24 -8 0 -9 -6 -13 -15
-10 -23 9 -68 -42 -59 -69 12 -42 22 -46 102 -44 l77 2 3 60 c5 89 22 94 22 7
0 -58 3 -72 15 -72 13 0 15 14 13 88 l-3 87 -40 0 -40 0 -5 -70 c-6 -86 -24
-92 -28 -10 -2 42 -8 64 -19 73 -23 16 -48 15 -67 -4z m44 -110 c0 -14 -21
-19 -33 -7 -9 9 13 34 24 27 5 -3 9 -12 9 -20z"/>
<path d="M567 913 c-4 -3 -7 -17 -7 -30 0 -21 4 -23 56 -23 34 0 53 4 49 10
-3 6 -15 10 -26 10 -11 0 -17 5 -14 10 3 6 15 10 26 10 11 0 17 5 14 10 -7 11
-88 14 -98 3z m33 -23 c0 -5 -4 -10 -10 -10 -5 0 -10 5 -10 10 0 6 5 10 10 10
6 0 10 -4 10 -10z"/>
<path d="M1211 866 c-8 -9 -11 -51 -9 -122 2 -89 6 -109 18 -109 11 0 16 13
18 45 5 89 16 99 22 20 l5 -75 32 -3 c25 -3 35 2 49 23 21 33 8 47 -16 18 -10
-13 -21 -23 -24 -23 -3 0 -6 33 -6 74 0 77 -13 104 -45 92 -12 -4 -15 3 -15
34 0 42 -9 50 -29 26z"/>
<path d="M564 836 c-14 -37 0 -51 51 -51 49 0 50 1 50 30 0 29 -2 30 -48 33
-35 2 -49 -1 -53 -12z m81 -16 c4 -6 -8 -10 -30 -10 -22 0 -34 4 -30 10 3 6
17 10 30 10 13 0 27 -4 30 -10z"/>
<path d="M910 719 c0 -81 2 -90 18 -87 13 2 18 15 20 61 2 31 7 57 12 57 17 0
11 32 -7 46 -37 28 -43 18 -43 -77z"/>
<path d="M987 803 c-8 -8 -9 -120 -1 -149 5 -19 13 -21 86 -22 45 -1 89 3 100
9 24 13 23 54 -2 86 -24 30 -26 47 -5 39 11 -4 15 1 15 19 0 29 -29 34 -54 9
-22 -21 -20 -50 5 -86 24 -34 16 -52 -22 -46 -22 3 -24 8 -27 76 -2 63 -5 73
-20 70 -13 -2 -18 -16 -20 -63 -5 -89 -22 -94 -22 -7 0 53 -3 72 -13 72 -8 0
-17 -3 -20 -7z"/>
<path d="M562 743 c3 -26 6 -28 53 -28 47 0 50 2 53 28 3 27 3 27 -53 27 -56
0 -56 0 -53 -27z m83 -3 c-3 -5 -17 -10 -30 -10 -13 0 -27 5 -30 10 -4 6 8 10
30 10 22 0 34 -4 30 -10z"/>
<path d="M562 673 c2 -22 9 -29 31 -31 22 -3 27 1 27 17 0 13 6 21 16 21 13 0
14 -3 5 -14 -15 -17 5 -34 21 -18 20 20 4 47 -30 50 -27 3 -32 0 -32 -17 0
-12 -5 -21 -11 -21 -6 0 -8 9 -4 20 5 14 2 20 -10 20 -12 0 -15 -7 -13 -27z"/>
</g>
</svg>
