<?xml version="1.0" standalone="no"?>
<!DOCTYPE svg PUBLIC "-//W3C//DTD SVG 20010904//EN"
 "http://www.w3.org/TR/2001/REC-SVG-20010904/DTD/svg10.dtd">
<svg version="1.0" xmlns="http://www.w3.org/2000/svg"
 width="192.000000pt" height="192.000000pt" viewBox="0 0 192.000000 192.000000"
 preserveAspectRatio="xMidYMid meet">
<metadata>
Created by potrace 1.16, written by Peter Selinger 2001-2019
</metadata>
<g transform="translate(0.000000,192.000000) scale(0.100000,-0.100000)"
fill="#000000" stroke="none">
811 c445 -92 729 -532 635 -987 -62 -301 -295 -546 -601 -630 -91 -26 -329
-26 -420 0 -291 80 -516 305 -596 596 -26 91 -26 329 0 420 120 433 542 692
982 601z"/>
<path d="M640 1293 c-50 -19 -90 -83 -90 -145 0 -99 125 -186 195 -135 27 21
9 37 -40 37 -82 0 -132 70 -101 143 16 41 44 59 101 66 58 9 55 35 -5 38 -25
1 -52 -1 -60 -4z"/>
<path d="M1130 1227 c0 -31 -3 -35 -33 -41 -48 -9 -82 -48 -82 -96 0 -40 26
-80 52 -80 21 0 15 -14 -12 -27 -14 -6 -27 -7 -31 -2 -10 16 -53 9 -64 -10
-14 -28 -13 -34 15 -75 30 -44 19 -45 -52 -5 -63 36 -127 42 -168 15 -87 -57
-87 -205 -1 -261 34 -22 102 -31 120 -16 25 21 7 41 -34 41 -75 0 -124 71
-100 145 23 69 85 83 170 40 44 -22 58 -24 143 -21 57 3 106 10 123 19 l29 15
-3 -110 c-4 -121 0 -141 23 -132 11 5 15 21 15 64 0 33 5 62 10 65 6 4 10 -20
10 -65 0 -76 8 -88 53 -76 28 7 56 56 32 56 -8 0 -18 -8 -24 -18 -17 -30 -30
-1 -33 73 -3 65 -5 70 -25 69 -21 -1 -23 4 -23 43 0 33 -3 42 -12 37 -7 -4 -3
4 9 17 35 39 43 74 43 185 0 95 -2 105 -17 102 -14 -2 -19 -17 -24 -68 l-5
-65 -5 65 c-3 52 -8 65 -21 68 -16 3 -18 -5 -18 -62 0 -112 -19 -86 -22 31 -3
93 -5 108 -20 111 -14 3 -18 -4 -18 -31z m0 -132 c0 -50 -15 -64 -48 -46 -43
23 -26 91 24 91 22 0 24 -4 24 -45z m110 -107 c0 -56 -62 -113 -136 -125 l-39
-6 28 32 c31 37 35 72 11 92 -15 12 -14 14 7 19 13 4 48 6 76 6 43 -1 53 -4
53 -18z"/>
<path d="M789 1164 c-10 -13 -10 -17 2 -25 8 -4 22 -6 32 -3 9 3 17 1 17 -5 0
-6 -9 -11 -20 -11 -11 0 -29 -9 -40 -20 -25 -25 -26 -54 -1 -79 14 -14 32 -18
87 -17 l69 1 5 62 c7 81 20 92 20 16 0 -41 5 -64 15 -73 21 -18 27 2 23 91
l-3 74 -45 0 -45 0 -3 -67 c-3 -79 -22 -93 -22 -17 0 28 -5 59 -10 70 -13 23
-62 26 -81 3z m47 -95 c10 -17 -13 -36 -27 -22 -12 12 -4 33 11 33 5 0 12 -5
16 -11z"/>
<path d="M560 945 c0 -8 8 -15 18 -15 15 -1 15 -2 -2 -15 -24 -18 -15 -30 12
-16 12 6 32 11 46 11 14 0 26 5 26 10 0 6 -9 10 -20 10 -12 0 -34 7 -50 15
-27 14 -30 14 -30 0z"/>
<path d="M640 855 c0 -22 -4 -25 -40 -25 -22 0 -40 -4 -40 -10 0 -5 23 -10 50
-10 l50 0 0 35 c0 19 -4 35 -10 35 -5 0 -10 -11 -10 -25z"/>
<path d="M640 780 c0 -17 -7 -20 -40 -20 -22 0 -40 -4 -40 -10 0 -5 23 -10 50
-10 49 0 50 1 50 30 0 17 -4 30 -10 30 -5 0 -10 -9 -10 -20z"/>
<path d="M900 716 c0 -63 4 -85 14 -89 21 -8 26 2 26 55 0 34 5 50 15 54 8 4
15 15 15 25 0 10 -7 19 -15 19 -8 0 -15 5 -15 10 0 6 -9 10 -20 10 -18 0 -20
-7 -20 -84z"/>
<path d="M980 726 c0 -41 3 -81 6 -90 7 -18 39 -22 49 -6 4 7 13 6 26 -1 11
-5 39 -9 62 -7 33 2 44 8 56 30 14 25 14 29 -7 57 -25 35 -29 56 -7 47 11 -4
15 1 15 19 0 35 -43 35 -66 0 -15 -23 -15 -27 5 -61 25 -43 21 -67 -11 -62
-21 3 -23 9 -26 76 -3 64 -5 72 -22 72 -18 0 -20 -7 -20 -57 0 -32 -5 -65 -10
-73 -7 -10 -10 7 -10 58 0 65 -2 72 -20 72 -18 0 -20 -7 -20 -74z"/>
<path d="M560 700 c0 -29 1 -30 50 -30 49 0 50 1 50 30 0 17 -4 30 -10 30 -5
0 -10 -9 -10 -20 0 -11 -4 -20 -10 -20 -5 0 -10 7 -10 15 0 8 -4 15 -10 15 -5
0 -10 -7 -10 -15 0 -8 -4 -15 -10 -15 -5 0 -10 9 -10 20 0 11 -4 20 -10 20 -5
0 -10 -13 -10 -30z"/>
<path d="M560 650 c0 -5 18 -10 41 -10 36 0 40 -2 34 -20 -5 -14 -2 -20 9 -20
11 0 16 9 16 30 0 29 -1 30 -50 30 -27 0 -50 -4 -50 -10z"/>
</g>
</svg>
