<?xml version="1.0" standalone="no"?>
<!DOCTYPE svg PUBLIC "-//W3C//DTD SVG 20010904//EN"
 "http://www.w3.org/TR/2001/REC-SVG-20010904/DTD/svg10.dtd">
<svg version="1.0" xmlns="http://www.w3.org/2000/svg"
 width="192.000000pt" height="192.000000pt" viewBox="0 0 192.000000 192.000000"
 preserveAspectRatio="xMidYMid meet">
<metadata>
Created by potrace 1.16, written by Peter Selinger 2001-2019
</metadata>
<g transform="translate(0.000000,192.000000) scale(0.100000,-0.100000)"
fill="#000000" stroke="none">
811 c445 -92 729 -532 635 -987 -62 -301 -295 -546 -601 -630 -91 -26 -329
-26 -420 0 -291 80 -516 305 -596 596 -26 91 -26 329 0 420 120 433 542 692
982 601z"/>
<path d="M633 1279 c-111 -55 -113 -212 -3 -270 41 -22 89 -24 115 -6 26 20
10 37 -33 37 -52 0 -84 19 -105 63 -16 31 -17 42 -7 73 14 42 60 74 107 74 39
0 53 18 28 37 -26 18 -53 16 -102 -8z"/>
<path d="M1130 1216 c0 -30 -4 -36 -20 -36 -59 0 -109 -62 -95 -117 8 -34 33
-63 54 -63 12 0 10 -5 -8 -19 -21 -16 -27 -17 -39 -5 -7 8 -16 14 -20 14 -4 0
-6 40 -4 89 4 98 0 104 -59 92 l-34 -7 -3 -67 c-4 -83 -22 -89 -22 -7 0 53 -3
61 -25 76 -21 14 -31 15 -50 6 -41 -19 -22 -62 20 -46 8 4 15 1 15 -5 0 -6
-11 -11 -23 -11 -50 0 -74 -63 -38 -99 14 -14 32 -18 87 -17 l69 1 5 62 c7 84
20 91 20 11 0 -44 4 -68 13 -71 9 -3 7 -9 -5 -24 -24 -26 -23 -43 7 -87 13
-20 22 -36 19 -36 -3 0 -38 16 -77 35 -79 39 -104 42 -153 19 -97 -46 -104
-198 -13 -267 36 -26 110 -34 128 -14 19 23 5 37 -37 37 -95 0 -142 114 -76
185 30 33 79 33 144 0 44 -22 58 -24 143 -21 57 3 106 10 123 19 l29 15 -3
-110 c-4 -121 0 -141 23 -132 11 5 15 21 15 64 0 33 5 62 10 65 6 4 10 -20 10
-65 0 -76 8 -88 53 -76 28 7 56 56 31 56 -8 0 -17 -7 -20 -15 -14 -34 -24 -11
-24 54 0 73 -16 106 -45 95 -12 -5 -15 3 -15 36 0 30 -3 39 -12 34 -7 -5 -1 7
15 25 36 43 42 68 42 181 0 88 -1 95 -20 95 -17 0 -21 -9 -26 -60 l-5 -60 -5
60 c-3 47 -8 61 -21 63 -16 3 -18 -5 -18 -62 0 -107 -19 -76 -22 36 -3 89 -5
103 -20 106 -15 3 -18 -4 -18 -32z m0 -131 c0 -50 -15 -64 -49 -45 -14 7 -21
21 -21 38 0 34 16 52 47 52 21 0 23 -5 23 -45z m-294 -26 c10 -17 -13 -36 -27
-22 -12 12 -4 33 11 33 5 0 12 -5 16 -11z m404 -82 c0 -52 -62 -106 -139 -122
l-35 -7 27 32 c30 35 35 71 12 94 -13 13 -13 15 7 18 13 2 47 3 75 3 44 0 53
-3 53 -18z"/>
<path d="M570 948 c0 -23 4 -28 25 -28 18 0 25 5 25 20 0 11 5 20 11 20 6 0 8
-9 4 -20 -5 -14 -2 -20 9 -20 11 0 16 9 16 30 0 29 -1 30 -45 28 -42 -2 -45
-4 -45 -30z"/>
<path d="M570 885 c0 -23 4 -25 45 -25 41 0 45 2 45 25 0 23 -4 25 -45 25 -41
0 -45 -2 -45 -25z m63 -2 c-7 -2 -21 -2 -30 0 -10 3 -4 5 12 5 17 0 24 -2 18
-5z"/>
<path d="M570 790 l0 -60 45 0 45 0 0 40 c0 39 -1 40 -35 40 -19 0 -35 5 -35
10 0 6 16 10 35 10 19 0 35 5 35 10 0 6 -20 10 -45 10 l-45 0 0 -60z m70 -20
c0 -25 -20 -27 -20 -2 -1 16 -1 16 -14 -1 -13 -17 -14 -16 -19 3 -4 17 0 20
24 20 22 0 29 -5 29 -20z"/>
<path d="M1133 790 c-32 -13 -38 -45 -14 -86 28 -47 27 -54 -9 -54 l-30 0 0
70 c0 63 -2 70 -20 70 -18 0 -20 -7 -20 -59 0 -33 -4 -63 -10 -66 -6 -4 -10
18 -10 59 0 59 -2 66 -20 66 -18 0 -20 -7 -20 -74 0 -41 3 -81 6 -90 7 -18 39
-22 49 -6 4 7 12 7 25 0 31 -17 95 -12 113 8 22 24 21 40 -3 77 -24 36 -25 49
-4 41 12 -5 15 0 12 21 -3 30 -14 35 -45 23z"/>
<path d="M900 706 c0 -63 4 -85 14 -89 21 -8 26 2 26 55 0 34 5 50 15 54 24
10 19 51 -7 58 -47 12 -48 10 -48 -78z"/>
<path d="M570 710 c0 -5 20 -10 45 -10 25 0 45 5 45 10 0 6 -20 10 -45 10 -25
0 -45 -4 -45 -10z"/>
<path d="M570 665 c0 -23 4 -25 45 -25 47 0 62 15 23 23 l-23 4 23 2 c42 2 22
21 -23 21 -41 0 -45 -2 -45 -25z"/>
<path d="M570 600 c0 -29 2 -30 45 -30 25 0 45 5 45 10 0 6 -9 10 -20 10 -11
0 -20 7 -20 15 0 21 -18 19 -23 -2 -4 -14 -5 -12 -6 5 -2 33 -21 27 -21 -8z"/>
</g>
</svg>
