<?xml version="1.0" standalone="no"?>
<!DOCTYPE svg PUBLIC "-//W3C//DTD SVG 20010904//EN"
 "http://www.w3.org/TR/2001/REC-SVG-20010904/DTD/svg10.dtd">
<svg version="1.0" xmlns="http://www.w3.org/2000/svg"
 width="192.000000pt" height="192.000000pt" viewBox="0 0 192.000000 192.000000"
 preserveAspectRatio="xMidYMid meet">
<metadata>
Created by potrace 1.16, written by Peter Selinger 2001-2019
</metadata>
<g transform="translate(0.000000,192.000000) scale(0.100000,-0.100000)"
fill="#000000" stroke="none">
811 c445 -92 729 -532 635 -987 -62 -301 -295 -546 -601 -630 -91 -26 -329
-26 -420 0 -291 80 -516 305 -596 596 -26 91 -26 329 0 420 120 433 542 692
982 601z"/>
<path d="M695 1321 c-49 -22 -91 -69 -105 -119 -6 -20 -10 -89 -8 -152 l3
-115 93 -3 92 -3 0 29 c0 72 43 142 105 172 123 60 265 -32 265 -172 l0 -29
93 3 92 3 3 115 c4 128 -6 174 -45 221 -53 62 -83 69 -328 69 -192 0 -225 -3
-260 -19z"/>
<path d="M905 1015 c-49 -48 -19 -119 50 -119 43 0 75 30 75 71 0 32 -42 73
-75 73 -14 0 -37 -11 -50 -25z"/>
<path d="M583 854 c-3 -8 -3 -43 0 -76 7 -74 43 -131 102 -162 37 -20 56 -21
270 -21 263 0 284 5 339 83 26 37 30 51 30 114 l1 73 -103 3 -104 3 -38 -35
c-80 -72 -187 -69 -259 8 -23 25 -29 26 -128 26 -85 0 -105 -3 -110 -16z"/>
</g>
</svg>
