<?xml version="1.0" standalone="no"?>
<!DOCTYPE svg PUBLIC "-//W3C//DTD SVG 20010904//EN"
 "http://www.w3.org/TR/2001/REC-SVG-20010904/DTD/svg10.dtd">
<svg version="1.0" xmlns="http://www.w3.org/2000/svg"
 width="192.000000pt" height="192.000000pt" viewBox="0 0 192.000000 192.000000"
 preserveAspectRatio="xMidYMid meet">
<metadata>
Created by potrace 1.16, written by Peter Selinger 2001-2019
</metadata>
<g transform="translate(0.000000,192.000000) scale(0.100000,-0.100000)"
fill="#000000" stroke="none">
811 c445 -92 729 -532 635 -987 -62 -301 -295 -546 -601 -630 -91 -26 -329
-26 -420 0 -291 80 -516 305 -596 596 -26 91 -26 329 0 420 120 433 542 692
982 601z"/>
<path d="M1148 1363 c-9 -10 -19 -28 -23 -41 -4 -16 -12 -21 -22 -18 -93 36
-219 33 -304 -7 -68 -33 -151 -117 -180 -184 -38 -87 -36 -209 7 -310 3 -6 -8
-14 -24 -18 -17 -3 -38 -15 -47 -25 -39 -43 9 -141 91 -187 70 -40 123 -25
139 39 l7 26 41 -15 c63 -24 189 -21 257 5 75 30 149 97 190 174 44 82 53 191
23 280 l-20 57 28 6 c43 10 63 38 56 82 -16 98 -169 193 -219 136z m-321 -318
c26 -18 37 -59 23 -85 -9 -16 -21 -20 -63 -20 -29 0 -58 5 -65 12 -19 19 -14
57 13 83 27 28 61 32 92 10z m348 -10 c27 -26 32 -64 13 -83 -7 -7 -36 -12
-65 -12 -54 0 -73 14 -73 55 0 25 46 65 75 65 14 0 37 -11 50 -25z m-220 -135
c14 0 35 5 45 10 28 15 35 -6 8 -24 -12 -9 -35 -16 -50 -16 -29 0 -78 19 -78
30 0 15 14 19 31 10 10 -6 30 -10 44 -10z"/>
</g>
</svg>
