<?xml version="1.0" standalone="no"?>
<!DOCTYPE svg PUBLIC "-//W3C//DTD SVG 20010904//EN"
 "http://www.w3.org/TR/2001/REC-SVG-20010904/DTD/svg10.dtd">
<svg version="1.0" xmlns="http://www.w3.org/2000/svg"
 width="192.000000pt" height="192.000000pt" viewBox="0 0 192.000000 192.000000"
 preserveAspectRatio="xMidYMid meet">
<metadata>
Created by potrace 1.16, written by Peter Selinger 2001-2019
</metadata>
<g transform="translate(0.000000,192.000000) scale(0.100000,-0.100000)"
fill="#000000" stroke="none">
811 c445 -92 729 -532 635 -987 -62 -301 -295 -546 -601 -630 -91 -26 -329
-26 -420 0 -291 80 -516 305 -596 596 -26 91 -26 329 0 420 120 433 542 692
982 601z"/>
<path d="M852 1334 c-28 -14 -65 -42 -83 -61 -42 -49 -89 -150 -89 -193 0 -31
7 -40 55 -77 30 -24 57 -43 60 -43 3 0 5 8 5 18 0 32 60 140 93 168 47 40 127
73 180 75 54 2 57 11 24 60 -55 82 -146 102 -245 53z"/>
<path d="M1017 1176 c-55 -20 -104 -56 -133 -98 -28 -40 -53 -101 -54 -133 0
-25 73 -71 201 -124 115 -48 159 -81 159 -122 l0 -29 39 19 c146 75 177 296
58 419 -23 24 -40 32 -65 32 -26 0 -33 4 -29 15 12 31 -107 45 -176 21z m33
-60 c0 -14 -56 -33 -67 -22 -3 3 -3 12 0 21 8 20 67 21 67 1z m110 -40 c0 -15
-21 -26 -51 -26 -24 0 -25 16 -1 29 25 15 52 13 52 -3z m108 -43 c-4 -43 -25
-55 -34 -19 -8 33 1 56 21 56 13 0 15 -9 13 -37z m-253 -23 c25 -27 7 -46 -23
-24 -24 17 -30 44 -9 44 8 0 22 -9 32 -20z m170 -69 c-16 -16 -60 23 -51 45 6
16 9 15 34 -9 17 -17 23 -30 17 -36z m-265 13 c0 -45 -24 -42 -28 4 -2 24 1
32 12 32 12 0 16 -10 16 -36z m378 -31 c-4 -20 -45 -30 -60 -15 -16 16 1 32
33 32 24 0 30 -4 27 -17z m-228 -11 c0 -10 -6 -27 -14 -38 -21 -28 -40 -7 -27
29 12 30 41 37 41 9z m120 -37 c0 -16 -26 -55 -37 -55 -16 0 -17 14 -3 41 9
16 40 28 40 14z m110 -66 c0 -9 -42 -29 -61 -29 -20 0 -8 39 14 42 27 5 47 -1
47 -13z"/>
<path d="M580 1015 c-32 -34 -40 -127 -16 -186 61 -153 222 -259 390 -259 85
0 142 23 179 71 24 32 31 50 28 75 0 7 -45 31 -98 54 -162 71 -209 97 -295
166 -87 71 -136 104 -154 104 -6 0 -21 -11 -34 -25z m69 -114 c13 -53 76 -135
111 -146 23 -7 27 -35 5 -35 -22 0 -104 78 -124 120 -31 62 -37 110 -12 110 4
0 13 -22 20 -49z"/>
</g>
</svg>
