<?xml version="1.0" standalone="no"?>
<!DOCTYPE svg PUBLIC "-//W3C//DTD SVG 20010904//EN"
 "http://www.w3.org/TR/2001/REC-SVG-20010904/DTD/svg10.dtd">
<svg version="1.0" xmlns="http://www.w3.org/2000/svg"
 width="192.000000pt" height="192.000000pt" viewBox="0 0 192.000000 192.000000"
 preserveAspectRatio="xMidYMid meet">
<metadata>
Created by potrace 1.16, written by Peter Selinger 2001-2019
</metadata>
<g transform="translate(0.000000,192.000000) scale(0.100000,-0.100000)"
fill="#000000" stroke="none">
811 c445 -92 729 -532 635 -987 -62 -301 -295 -546 -601 -630 -91 -26 -329
-26 -420 0 -291 80 -516 305 -596 596 -26 91 -26 329 0 420 120 433 542 692
982 601z"/>
<path d="M707 1344 c-4 -4 -7 -45 -7 -91 l0 -83 -41 0 c-46 0 -76 -13 -101
-44 -24 -29 -26 -291 -3 -336 21 -40 53 -60 97 -60 l38 0 0 61 c0 105 -15 99
259 99 279 0 271 3 271 -98 l0 -62 38 0 c37 0 75 19 99 50 9 10 12 63 12 170
1 132 -2 158 -17 176 -24 31 -55 44 -101 44 l-40 0 -3 88 -3 87 -246 3 c-135
1 -248 -1 -252 -4z m531 -233 c19 -11 11 -45 -11 -49 -19 -4 -32 20 -23 43 6
17 15 19 34 6z"/>
<path d="M757 844 c-4 -4 -7 -65 -7 -136 l0 -128 203 2 202 3 0 130 0 130
-196 3 c-107 1 -198 -1 -202 -4z m337 -69 c15 -40 -1 -45 -135 -45 -135 0
-151 5 -135 45 8 22 261 22 270 0z m0 -101 c14 -36 -11 -44 -139 -44 -128 0
-153 8 -139 44 5 14 26 16 139 16 113 0 134 -2 139 -16z"/>
</g>
</svg>
