<?xml version="1.0" standalone="no"?>
<!DOCTYPE svg PUBLIC "-//W3C//DTD SVG 20010904//EN"
 "http://www.w3.org/TR/2001/REC-SVG-20010904/DTD/svg10.dtd">
<svg version="1.0" xmlns="http://www.w3.org/2000/svg"
 width="192.000000pt" height="192.000000pt" viewBox="0 0 192.000000 192.000000"
 preserveAspectRatio="xMidYMid meet">
<metadata>
Created by potrace 1.16, written by Peter Selinger 2001-2019
</metadata>
<g transform="translate(0.000000,192.000000) scale(0.100000,-0.100000)"
fill="#000000" stroke="none">
811 c445 -92 729 -532 635 -987 -62 -301 -295 -546 -601 -630 -91 -26 -329
-26 -420 0 -291 80 -516 305 -596 596 -26 91 -26 329 0 420 120 433 542 692
982 601z"/>
<path d="M822 1360 c-70 -32 -72 -42 -72 -395 0 -353 2 -363 72 -395 60 -27
206 -27 266 0 57 26 72 63 72 175 l0 85 -65 0 c-72 0 -72 0 -77 -90 l-3 -45
-48 -3 c-79 -5 -77 -13 -77 273 0 286 -2 278 77 273 l48 -3 3 -45 c5 -90 5
-90 77 -90 l65 0 0 85 c0 112 -15 149 -72 175 -60 27 -206 27 -266 0z"/>
</g>
</svg>
