<?xml version="1.0" standalone="no"?>
<!DOCTYPE svg PUBLIC "-//W3C//DTD SVG 20010904//EN"
 "http://www.w3.org/TR/2001/REC-SVG-20010904/DTD/svg10.dtd">
<svg version="1.0" xmlns="http://www.w3.org/2000/svg"
 width="192.000000pt" height="192.000000pt" viewBox="0 0 192.000000 192.000000"
 preserveAspectRatio="xMidYMid meet">
<metadata>
Created by potrace 1.16, written by Peter Selinger 2001-2019
</metadata>
<g transform="translate(0.000000,192.000000) scale(0.100000,-0.100000)"
fill="#000000" stroke="none">
811 c445 -92 729 -532 635 -987 -62 -301 -295 -546 -601 -630 -91 -26 -329
-26 -420 0 -291 80 -516 305 -596 596 -26 91 -26 329 0 420 120 433 542 692
982 601z"/>
<path d="M835 1357 c-201 -67 -322 -260 -286 -456 49 -266 335 -415 577 -302
81 38 161 116 200 196 27 55 29 69 29 170 0 99 -3 116 -27 168 -37 79 -117
160 -196 199 -58 29 -77 33 -161 35 -60 2 -111 -2 -136 -10z m209 -56 c9 -15
-27 -51 -59 -59 -53 -15 -140 26 -120 57 8 13 171 15 179 2z m-254 -72 c0 -57
-42 -99 -99 -99 -25 0 -41 5 -41 12 0 15 115 128 130 128 5 0 10 -18 10 -41z
m410 -15 c14 -13 33 -37 43 -54 l18 -30 -40 0 c-67 0 -123 65 -106 121 6 19 8
19 33 3 15 -9 38 -27 52 -40z m-216 -36 c15 -24 -13 -53 -43 -43 -23 7 -28 34
-9 53 16 16 38 12 52 -10z m-145 -52 c9 -11 10 -20 1 -36 -13 -24 -38 -23 -53
1 -23 37 25 68 52 35z m282 -2 c9 -11 10 -20 2 -32 -13 -22 -43 -22 -56 -1
-24 38 25 68 54 33z m-466 -89 c35 -34 34 -93 -1 -134 -14 -17 -29 -31 -34
-31 -13 0 -22 93 -15 144 4 25 11 46 17 46 5 0 20 -11 33 -25z m643 -51 c2
-38 0 -79 -3 -92 -5 -19 -8 -21 -26 -11 -32 17 -52 75 -39 112 12 37 40 69 54
64 6 -2 12 -35 14 -73z m-517 0 c9 -11 10 -20 2 -32 -13 -22 -43 -22 -56 -1
-24 38 25 68 54 33z m400 0 c9 -11 10 -20 2 -32 -13 -22 -43 -22 -56 -1 -24
38 25 68 54 33z m-342 -138 c9 -11 10 -20 1 -36 -13 -24 -38 -23 -53 1 -23 37
25 68 52 35z m282 -2 c9 -11 10 -20 2 -32 -13 -22 -43 -22 -56 -1 -24 38 25
68 54 33z m-358 -74 c28 -31 39 -100 15 -100 -33 0 -136 109 -123 131 13 20
78 2 108 -31z m485 32 c16 -11 -29 -71 -84 -112 l-42 -30 -6 24 c-17 70 75
154 132 118z m-262 -24 c9 -28 -20 -52 -47 -37 -19 10 -25 39 -12 52 15 16 52
6 59 -15z m43 -112 c14 -14 21 -29 17 -33 -10 -10 -172 -10 -182 -1 -9 10 24
47 51 59 32 14 87 2 114 -25z"/>
</g>
</svg>
