<?xml version="1.0" standalone="no"?>
<!DOCTYPE svg PUBLIC "-//W3C//DTD SVG 20010904//EN"
 "http://www.w3.org/TR/2001/REC-SVG-20010904/DTD/svg10.dtd">
<svg version="1.0" xmlns="http://www.w3.org/2000/svg"
 width="192.000000pt" height="192.000000pt" viewBox="0 0 192.000000 192.000000"
 preserveAspectRatio="xMidYMid meet">
<metadata>
Created by potrace 1.16, written by Peter Selinger 2001-2019
</metadata>
<g transform="translate(0.000000,192.000000) scale(0.100000,-0.100000)"
fill="#000000" stroke="none">
811 c445 -92 729 -532 635 -987 -62 -301 -295 -546 -601 -630 -91 -26 -329
-26 -420 0 -291 80 -516 305 -596 596 -26 91 -26 329 0 420 120 433 542 692
982 601z"/>
<path d="M807 1346 c-117 -49 -197 -129 -238 -235 -69 -183 6 -396 176 -495
206 -122 474 -38 582 182 26 52 28 67 28 167 0 99 -3 116 -27 168 -37 80 -117
160 -197 199 -58 29 -76 33 -165 36 -89 2 -108 0 -159 -22z m232 -45 c11 -7 9
-14 -14 -35 -38 -35 -102 -36 -141 -3 -16 14 -24 29 -20 35 9 14 154 16 175 3z
m-249 -72 c0 -57 -42 -99 -99 -99 -23 0 -41 5 -41 11 0 14 115 129 129 129 6
0 11 -18 11 -41z m410 -15 c14 -13 33 -37 43 -54 l18 -30 -40 0 c-67 0 -119
61 -104 121 5 19 7 19 32 3 14 -9 37 -27 51 -40z m-216 -36 c8 -14 7 -21 -6
-34 -30 -30 -75 9 -48 42 16 18 39 15 54 -8z m-145 -52 c23 -28 -17 -68 -45
-45 -15 12 -19 41 -7 52 11 12 40 8 52 -7z m285 -8 c8 -14 7 -21 -6 -34 -30
-30 -75 9 -48 42 16 18 39 15 54 -8z m-489 -64 c22 -9 45 -56 45 -93 0 -30
-45 -95 -60 -86 -13 8 -21 84 -14 136 4 27 8 49 9 49 2 0 11 -3 20 -6z m659
-10 c9 -23 7 -147 -2 -161 -13 -20 -50 12 -61 53 -11 39 -1 76 26 106 20 22
29 23 37 2z m-510 -66 c8 -14 7 -21 -6 -34 -30 -30 -75 9 -48 42 16 18 39 15
54 -8z m395 8 c23 -28 -17 -68 -45 -45 -15 12 -19 41 -7 52 11 12 40 8 52 -7z
m-340 -140 c23 -28 -17 -68 -45 -45 -15 12 -19 41 -7 52 11 12 40 8 52 -7z
m285 -8 c8 -14 7 -21 -6 -34 -30 -30 -75 9 -48 42 16 18 39 15 54 -8z m-361
-68 c28 -31 39 -100 16 -100 -19 0 -66 39 -100 81 -26 33 -30 43 -18 50 24 16
72 1 102 -31z m485 32 c16 -11 -25 -64 -82 -110 l-41 -31 -8 23 c-12 37 16 94
55 111 38 16 58 18 76 7z m-269 -16 c17 -20 2 -46 -25 -46 -26 0 -40 20 -30
45 7 19 40 20 55 1z m21 -101 c16 -8 34 -24 40 -35 9 -17 6 -20 -25 -26 -40
-7 -141 -1 -152 9 -8 9 26 47 52 58 30 12 53 10 85 -6z"/>
</g>
</svg>
