<?xml version="1.0" standalone="no"?>
<!DOCTYPE svg PUBLIC "-//W3C//DTD SVG 20010904//EN"
 "http://www.w3.org/TR/2001/REC-SVG-20010904/DTD/svg10.dtd">
<svg version="1.0" xmlns="http://www.w3.org/2000/svg"
 width="192.000000pt" height="192.000000pt" viewBox="0 0 192.000000 192.000000"
 preserveAspectRatio="xMidYMid meet">
<metadata>
Created by potrace 1.16, written by Peter Selinger 2001-2019
</metadata>
<g transform="translate(0.000000,192.000000) scale(0.100000,-0.100000)"
fill="#000000" stroke="none">
811 c445 -92 729 -532 635 -987 -62 -301 -295 -546 -601 -630 -91 -26 -329
-26 -420 0 -291 80 -516 305 -596 596 -26 91 -26 329 0 420 120 433 542 692
982 601z"/>
<path d="M822 1352 c-151 -54 -253 -180 -277 -343 -16 -106 39 -253 125 -333
221 -207 572 -122 671 162 29 83 23 215 -13 295 -37 79 -114 157 -196 198 -59
29 -78 34 -162 36 -74 3 -107 -1 -148 -15z m216 -48 c22 -7 -6 -44 -45 -60
-27 -12 -42 -13 -68 -4 -39 13 -73 46 -59 60 17 16 124 19 172 4z m-248 -75
c0 -57 -42 -99 -99 -99 -25 0 -41 5 -41 12 0 15 115 128 130 128 5 0 10 -18
10 -41z m411 -18 c32 -33 59 -64 59 -70 0 -6 -19 -11 -43 -11 -34 0 -49 6 -69
28 -14 15 -29 37 -33 50 -7 26 2 62 16 62 6 0 37 -27 70 -59z m-220 -27 c17
-21 0 -49 -32 -49 -18 0 -25 6 -27 24 -6 38 34 55 59 25z m-137 -66 c15 -24
-13 -53 -43 -43 -21 6 -29 43 -14 59 12 12 45 2 57 -16z m277 6 c9 -11 10 -20
2 -32 -13 -22 -43 -22 -56 -1 -24 38 25 68 54 33z m-466 -89 c35 -34 34 -93
-1 -134 -14 -17 -30 -31 -34 -31 -13 0 -23 102 -15 149 8 47 17 50 50 16z
m643 -51 c2 -38 0 -79 -3 -92 -5 -19 -8 -21 -26 -11 -28 14 -52 75 -44 108 8
31 44 73 59 68 6 -2 12 -35 14 -73z m-517 0 c9 -11 10 -20 2 -32 -13 -22 -43
-22 -56 -1 -24 38 25 68 54 33z m400 0 c9 -11 10 -20 2 -32 -13 -22 -43 -22
-56 -1 -24 38 25 68 54 33z m-337 -146 c15 -24 -13 -53 -43 -43 -21 6 -29 43
-14 59 12 12 45 2 57 -16z m277 6 c9 -11 10 -20 2 -32 -13 -22 -43 -22 -56 -1
-24 38 25 68 54 33z m-358 -74 c20 -23 27 -41 27 -71 l0 -41 -27 17 c-62 39
-119 107 -107 126 12 20 77 2 107 -31z m485 32 c16 -11 -30 -74 -84 -114 -34
-25 -39 -26 -47 -12 -6 10 -5 31 2 56 17 57 88 95 129 70z m-262 -24 c9 -28
-20 -52 -47 -37 -19 10 -25 39 -12 52 15 16 52 6 59 -15z m42 -112 c14 -14 22
-29 18 -33 -11 -11 -159 -15 -174 -5 -17 12 -7 34 26 55 37 24 97 16 130 -17z"/>
</g>
</svg>
