<?xml version="1.0" standalone="no"?>
<!DOCTYPE svg PUBLIC "-//W3C//DTD SVG 20010904//EN"
 "http://www.w3.org/TR/2001/REC-SVG-20010904/DTD/svg10.dtd">
<svg version="1.0" xmlns="http://www.w3.org/2000/svg"
 width="192.000000pt" height="192.000000pt" viewBox="0 0 192.000000 192.000000"
 preserveAspectRatio="xMidYMid meet">
<metadata>
Created by potrace 1.16, written by Peter Selinger 2001-2019
</metadata>
<g transform="translate(0.000000,192.000000) scale(0.100000,-0.100000)"
fill="#000000" stroke="none">
811 c445 -92 729 -532 635 -987 -62 -301 -295 -546 -601 -630 -91 -26 -329
-26 -420 0 -291 80 -516 305 -596 596 -26 91 -26 329 0 420 120 433 542 692
982 601z"/>
<path d="M600 1192 c-26 -13 -38 -27 -48 -59 -20 -63 -4 -88 83 -124 39 -16
79 -33 89 -37 16 -7 2 -15 -65 -42 -46 -18 -90 -38 -96 -43 -7 -5 -13 -30 -13
-54 0 -38 5 -50 34 -79 l34 -34 251 0 c262 0 296 5 319 46 8 14 14 13 63 -5
66 -26 81 -26 102 -3 42 47 20 65 -168 137 -82 32 -154 61 -158 65 -4 4 67 37
158 75 168 69 192 86 180 125 -10 31 -50 35 -112 11 -50 -19 -58 -20 -65 -6
-23 40 -57 45 -310 45 -211 0 -248 -2 -278 -18z m386 -128 l-108 -45 -104 41
c-57 23 -104 44 -104 46 0 2 96 4 213 4 l212 -1 -109 -45z m-1 -199 l110 -44
-215 0 c-118 0 -210 3 -205 5 29 14 191 82 195 83 3 1 55 -19 115 -44z"/>
</g>
</svg>
