<?xml version="1.0" standalone="no"?>
<!DOCTYPE svg PUBLIC "-//W3C//DTD SVG 20010904//EN"
 "http://www.w3.org/TR/2001/REC-SVG-20010904/DTD/svg10.dtd">
<svg version="1.0" xmlns="http://www.w3.org/2000/svg"
 width="192.000000pt" height="192.000000pt" viewBox="0 0 192.000000 192.000000"
 preserveAspectRatio="xMidYMid meet">
<metadata>
Created by potrace 1.16, written by Peter Selinger 2001-2019
</metadata>
<g transform="translate(0.000000,192.000000) scale(0.100000,-0.100000)"
fill="#000000" stroke="none">
811 c445 -92 729 -532 635 -987 -62 -301 -295 -546 -601 -630 -91 -26 -329
-26 -420 0 -291 80 -516 305 -596 596 -26 91 -26 329 0 420 120 433 542 692
982 601z"/>
<path d="M880 1370 c-121 -26 -245 -124 -298 -237 -24 -52 -27 -69 -27 -168 0
-99 3 -116 27 -168 38 -82 83 -134 150 -177 162 -105 366 -87 506 44 186 174
168 480 -38 631 -88 64 -220 95 -320 75z m195 -97 c37 -12 66 -32 112 -78 53
-53 64 -71 83 -134 49 -161 -18 -320 -168 -393 -57 -28 -77 -33 -142 -33 -121
0 -125 7 -39 66 178 123 285 226 315 304 16 43 16 49 1 80 -34 71 -155 105
-376 105 -140 0 -144 1 -127 19 27 30 113 72 164 81 56 9 109 4 177 -17z
m-297 -243 c26 -12 57 -31 69 -42 48 -45 19 -130 -76 -222 -40 -39 -41 -40
-62 -20 -12 10 -35 46 -50 79 -24 49 -29 73 -29 132 0 101 3 107 57 99 25 -3
66 -15 91 -26z"/>
</g>
</svg>
