<?xml version="1.0" standalone="no"?>
<!DOCTYPE svg PUBLIC "-//W3C//DTD SVG 20010904//EN"
 "http://www.w3.org/TR/2001/REC-SVG-20010904/DTD/svg10.dtd">
<svg version="1.0" xmlns="http://www.w3.org/2000/svg"
 width="192.000000pt" height="192.000000pt" viewBox="0 0 192.000000 192.000000"
 preserveAspectRatio="xMidYMid meet">
<metadata>
Created by potrace 1.16, written by Peter Selinger 2001-2019
</metadata>
<g transform="translate(0.000000,192.000000) scale(0.100000,-0.100000)"
fill="#000000" stroke="none">
811 c445 -92 729 -532 635 -987 -62 -301 -295 -546 -601 -630 -91 -26 -329
-26 -420 0 -291 80 -516 305 -596 596 -26 91 -26 329 0 420 120 433 542 692
982 601z"/>
<path d="M775 1336 c-266 -127 -316 -487 -94 -680 52 -45 133 -86 171 -86 31
0 37 15 60 154 12 74 11 80 -6 90 -10 6 -32 22 -48 35 -86 70 -75 185 25 250
43 28 44 34 19 166 -17 88 -18 90 -47 93 -17 1 -52 -8 -80 -22z"/>
<path d="M1025 1350 c-3 -5 -14 -55 -25 -112 l-19 -103 24 -20 c13 -11 35 -28
48 -37 14 -10 33 -38 43 -63 28 -75 6 -125 -90 -200 l-25 -20 19 -103 c11 -57
22 -107 25 -112 21 -34 145 21 221 96 162 162 162 416 0 578 -76 75 -200 130
-221 96z"/>
</g>
</svg>
