<?xml version="1.0" standalone="no"?>
<!DOCTYPE svg PUBLIC "-//W3C//DTD SVG 20010904//EN"
 "http://www.w3.org/TR/2001/REC-SVG-20010904/DTD/svg10.dtd">
<svg version="1.0" xmlns="http://www.w3.org/2000/svg"
 width="192.000000pt" height="192.000000pt" viewBox="0 0 192.000000 192.000000"
 preserveAspectRatio="xMidYMid meet">
<metadata>
Created by potrace 1.16, written by Peter Selinger 2001-2019
</metadata>
<g transform="translate(0.000000,192.000000) scale(0.100000,-0.100000)"
fill="#000000" stroke="none">
811 c445 -92 729 -532 635 -987 -62 -301 -295 -546 -601 -630 -91 -26 -329
-26 -420 0 -291 80 -516 305 -596 596 -26 91 -26 329 0 420 120 433 542 692
982 601z"/>
<path d="M870 1366 c-167 -36 -290 -164 -322 -333 -32 -171 65 -354 230 -435
118 -58 280 -49 394 23 64 41 125 110 156 177 24 51 27 69 27 167 0 104 -2
114 -32 175 -59 120 -171 205 -302 230 -65 12 -80 12 -151 -4z m252 -185 c65
-42 67 -49 23 -87 l-39 -32 -29 24 c-16 13 -35 24 -43 24 -17 0 -17 12 -3 63
12 46 29 47 91 8z m-236 -4 c65 -57 2 -159 -77 -127 -75 32 -50 146 33 149 9
1 29 -10 44 -22z m-106 -240 c27 -61 56 -94 101 -117 54 -28 120 -26 179 6 58
32 91 29 104 -8 12 -35 -10 -62 -79 -94 -69 -33 -170 -33 -240 0 -105 49 -199
198 -153 244 7 7 25 12 41 12 24 0 31 -7 47 -43z"/>
</g>
</svg>
