<?xml version="1.0" standalone="no"?>
<!DOCTYPE svg PUBLIC "-//W3C//DTD SVG 20010904//EN"
 "http://www.w3.org/TR/2001/REC-SVG-20010904/DTD/svg10.dtd">
<svg version="1.0" xmlns="http://www.w3.org/2000/svg"
 width="192.000000pt" height="192.000000pt" viewBox="0 0 192.000000 192.000000"
 preserveAspectRatio="xMidYMid meet">
<metadata>
Created by potrace 1.16, written by Peter Selinger 2001-2019
</metadata>
<g transform="translate(0.000000,192.000000) scale(0.100000,-0.100000)"
fill="#000000" stroke="none">
811 c445 -92 729 -532 635 -987 -62 -301 -295 -546 -601 -630 -91 -26 -329
-26 -420 0 -291 80 -516 305 -596 596 -26 91 -26 329 0 420 120 433 542 692
982 601z"/>
<path d="M745 1326 c-49 -22 -65 -49 -82 -137 -16 -90 -21 -105 -56 -159 -20
-32 -22 -49 -25 -217 -4 -214 -2 -223 63 -223 47 0 65 16 65 59 0 21 4 21 250
21 l250 0 0 -28 c0 -15 5 -33 12 -40 17 -17 83 -15 97 2 9 10 11 70 9 209 -3
193 -3 194 -31 236 -19 29 -33 69 -43 124 -26 153 -52 167 -299 167 -127 -1
-189 -5 -210 -14z m41 -411 c34 -52 -29 -115 -81 -81 -28 18 -35 72 -13 94 22
22 76 15 94 -13z m440 0 c19 -29 11 -60 -21 -81 -51 -33 -106 29 -75 86 16 30
74 28 96 -5z m-152 -117 c8 -13 6 -22 -8 -37 -16 -18 -31 -21 -103 -21 -46 0
-93 5 -104 10 -18 10 -26 50 -12 64 4 3 54 5 111 4 86 -2 107 -6 116 -20z"/>
</g>
</svg>
