<?xml version="1.0" standalone="no"?>
<!DOCTYPE svg PUBLIC "-//W3C//DTD SVG 20010904//EN"
 "http://www.w3.org/TR/2001/REC-SVG-20010904/DTD/svg10.dtd">
<svg version="1.0" xmlns="http://www.w3.org/2000/svg"
 width="192.000000pt" height="192.000000pt" viewBox="0 0 192.000000 192.000000"
 preserveAspectRatio="xMidYMid meet">
<metadata>
Created by potrace 1.16, written by Peter Selinger 2001-2019
</metadata>
<g transform="translate(0.000000,192.000000) scale(0.100000,-0.100000)"
fill="#000000" stroke="none">
811 c445 -92 729 -532 635 -987 -62 -301 -295 -546 -601 -630 -91 -26 -329
-26 -420 0 -291 80 -516 305 -596 596 -26 91 -26 329 0 420 120 433 542 692
982 601z"/>
<path d="M1220 1278 c-43 -29 -59 -72 -59 -163 -1 -83 11 -130 39 -160 25 -27
21 -69 -13 -130 -67 -120 -226 -155 -341 -76 -46 32 -96 113 -96 156 0 15 -7
43 -16 62 -14 28 -21 33 -40 29 -51 -13 -86 29 -59 70 13 20 23 25 48 22 26
-2 34 2 47 25 14 26 14 29 -4 43 -41 30 -114 10 -155 -42 -52 -65 0 -194 78
-194 14 0 21 -10 26 -37 17 -93 86 -182 173 -225 66 -32 208 -33 268 -1 88 47
146 119 170 212 9 38 16 46 43 53 35 10 38 23 15 56 -11 17 -21 21 -40 16 -17
-4 -31 -1 -44 11 -17 15 -20 31 -20 96 0 93 4 105 42 125 23 12 29 21 26 42
-4 36 -42 41 -88 10z"/>
<path d="M804 1132 c-91 -58 -52 -202 55 -202 30 0 42 -6 59 -30 19 -25 29
-30 67 -30 67 0 85 25 85 115 0 76 9 95 47 95 20 0 23 5 23 34 l0 34 -70 0
-69 0 -3 -101 c-3 -119 -21 -137 -28 -30 -4 61 -9 77 -31 99 -35 35 -94 42
-135 16z"/>
<path d="M827 903 c-13 -12 -7 -48 13 -77 73 -112 253 -95 300 28 8 21 7 32
-2 43 -10 12 -17 9 -44 -21 -37 -40 -70 -56 -117 -56 -38 0 -90 29 -113 65
-17 26 -26 30 -37 18z"/>
</g>
</svg>
