<?xml version="1.0" standalone="no"?>
<!DOCTYPE svg PUBLIC "-//W3C//DTD SVG 20010904//EN"
 "http://www.w3.org/TR/2001/REC-SVG-20010904/DTD/svg10.dtd">
<svg version="1.0" xmlns="http://www.w3.org/2000/svg"
 width="192.000000pt" height="192.000000pt" viewBox="0 0 192.000000 192.000000"
 preserveAspectRatio="xMidYMid meet">
<metadata>
Created by potrace 1.16, written by Peter Selinger 2001-2019
</metadata>
<g transform="translate(0.000000,192.000000) scale(0.100000,-0.100000)"
fill="#000000" stroke="none">
811 c445 -92 729 -532 635 -987 -62 -301 -295 -546 -601 -630 -91 -26 -329
-26 -420 0 -291 80 -516 305 -596 596 -26 91 -26 329 0 420 120 433 542 692
982 601z"/>
<path d="M835 1357 c-62 -21 -103 -45 -151 -89 -175 -161 -180 -435 -11 -595
115 -109 256 -145 396 -101 31 10 33 13 28 47 -2 20 -12 53 -21 74 l-16 39
-63 -7 c-78 -9 -133 5 -188 48 -197 150 -53 472 191 427 58 -11 66 -6 84 48
20 58 20 86 0 103 -23 19 -197 23 -249 6z"/>
<path d="M1146 1230 c-51 -54 -53 -61 -30 -84 20 -20 38 -11 87 44 39 43 44
59 25 78 -20 20 -33 14 -82 -38z"/>
<path d="M1231 1127 c-57 -28 -72 -51 -49 -73 15 -16 20 -15 72 6 66 26 84 45
69 68 -15 25 -42 24 -92 -1z"/>
<path d="M1201 983 c-6 -12 -6 -25 0 -36 14 -24 147 -25 156 -1 13 34 -11 49
-80 52 -55 2 -67 0 -76 -15z"/>
<path d="M1187 879 c-32 -19 -20 -47 33 -74 60 -31 96 -32 105 -5 8 24 0 39
-28 50 -12 4 -38 15 -57 23 -25 11 -41 12 -53 6z"/>
<path d="M1111 776 c-14 -17 -11 -24 38 -84 38 -45 65 -51 85 -20 8 14 2 26
-30 65 -44 51 -73 63 -93 39z"/>
</g>
</svg>
