<?xml version="1.0" standalone="no"?>
<!DOCTYPE svg PUBLIC "-//W3C//DTD SVG 20010904//EN"
 "http://www.w3.org/TR/2001/REC-SVG-20010904/DTD/svg10.dtd">
<svg version="1.0" xmlns="http://www.w3.org/2000/svg"
 width="192.000000pt" height="192.000000pt" viewBox="0 0 192.000000 192.000000"
 preserveAspectRatio="xMidYMid meet">
<metadata>
Created by potrace 1.16, written by Peter Selinger 2001-2019
</metadata>
<g transform="translate(0.000000,192.000000) scale(0.100000,-0.100000)"
fill="#000000" stroke="none">
811 c445 -92 729 -532 635 -987 -62 -301 -295 -546 -601 -630 -91 -26 -329
-26 -420 0 -291 80 -516 305 -596 596 -26 91 -26 329 0 420 120 433 542 692
982 601z"/>
<path d="M649 1365 c-30 -16 -79 -83 -79 -108 0 -10 14 -43 31 -75 35 -65 36
-109 5 -222 -44 -158 28 -278 224 -373 110 -54 139 -54 252 0 148 70 238 177
238 283 0 25 -9 77 -20 115 -27 95 -25 129 10 192 42 73 39 100 -12 150 -58
55 -74 58 -140 28 -51 -23 -61 -24 -104 -15 -27 6 -59 18 -72 26 -19 13 -25
13 -51 0 -16 -9 -50 -20 -75 -26 -41 -9 -53 -7 -106 15 -68 29 -67 29 -101 10z
m348 -245 l18 -60 56 0 c92 0 101 -31 24 -87 l-44 -33 19 -56 c15 -43 17 -60
9 -71 -17 -20 -32 -16 -79 21 l-43 34 -45 -34 c-73 -56 -95 -40 -70 49 l15 52
-51 46 c-44 41 -49 48 -37 63 10 11 30 16 71 16 l57 0 13 48 c16 57 26 72 51
72 14 0 23 -14 36 -60z"/>
</g>
</svg>
