<?xml version="1.0" standalone="no"?>
<!DOCTYPE svg PUBLIC "-//W3C//DTD SVG 20010904//EN"
 "http://www.w3.org/TR/2001/REC-SVG-20010904/DTD/svg10.dtd">
<svg version="1.0" xmlns="http://www.w3.org/2000/svg"
 width="192.000000pt" height="192.000000pt" viewBox="0 0 192.000000 192.000000"
 preserveAspectRatio="xMidYMid meet">
<metadata>
Created by potrace 1.16, written by Peter Selinger 2001-2019
</metadata>
<g transform="translate(0.000000,192.000000) scale(0.100000,-0.100000)"
fill="#000000" stroke="none">
811 c445 -92 729 -532 635 -987 -62 -301 -295 -546 -601 -630 -91 -26 -329
-26 -420 0 -291 80 -516 305 -596 596 -26 91 -26 329 0 420 120 433 542 692
982 601z"/>
<path d="M887 1370 c-141 -36 -235 -149 -245 -296 -7 -109 29 -211 121 -349
75 -111 116 -154 158 -165 82 -22 140 24 247 194 118 187 136 347 53 477 -67
106 -217 168 -334 139z m143 -185 c66 -34 91 -136 50 -203 -26 -43 -98 -76
-143 -67 -99 22 -155 122 -112 204 27 53 71 81 126 81 28 0 63 -7 79 -15z"/>
</g>
</svg>
