<?xml version="1.0" standalone="no"?>
<!DOCTYPE svg PUBLIC "-//W3C//DTD SVG 20010904//EN"
 "http://www.w3.org/TR/2001/REC-SVG-20010904/DTD/svg10.dtd">
<svg version="1.0" xmlns="http://www.w3.org/2000/svg"
 width="192.000000pt" height="192.000000pt" viewBox="0 0 192.000000 192.000000"
 preserveAspectRatio="xMidYMid meet">
<metadata>
Created by potrace 1.16, written by Peter Selinger 2001-2019
</metadata>
<g transform="translate(0.000000,192.000000) scale(0.100000,-0.100000)"
fill="#000000" stroke="none">
811 c445 -92 729 -532 635 -987 -62 -301 -295 -546 -601 -630 -91 -26 -329
-26 -420 0 -291 80 -516 305 -596 596 -26 91 -26 329 0 420 120 433 542 692
982 601z"/>
<path d="M795 1355 c-55 -16 -98 -55 -88 -83 3 -9 19 -51 35 -93 l31 -76 51
10 c45 8 261 5 294 -4 18 -5 85 165 76 193 -3 11 -27 29 -52 41 -61 27 -269
34 -347 12z"/>
<path d="M645 1198 c-3 -7 -4 -130 -3 -273 l3 -260 22 -3 c69 -10 119 255 78
413 -23 87 -46 129 -73 133 -12 2 -24 -3 -27 -10z"/>
<path d="M1189 1169 c-27 -53 -49 -158 -49 -234 0 -124 49 -275 90 -275 35 0
40 31 40 275 0 144 -4 244 -10 256 -18 32 -47 23 -71 -22z"/>
<path d="M753 703 c-36 -77 -26 -102 47 -126 63 -21 213 -25 281 -7 94 25 105
48 68 138 l-21 51 -62 -7 c-78 -9 -145 -9 -224 0 l-63 8 -26 -57z"/>
</g>
</svg>
