<?xml version="1.0" standalone="no"?>
<!DOCTYPE svg PUBLIC "-//W3C//DTD SVG 20010904//EN"
 "http://www.w3.org/TR/2001/REC-SVG-20010904/DTD/svg10.dtd">
<svg version="1.0" xmlns="http://www.w3.org/2000/svg"
 width="192.000000pt" height="192.000000pt" viewBox="0 0 192.000000 192.000000"
 preserveAspectRatio="xMidYMid meet">
<metadata>
Created by potrace 1.16, written by Peter Selinger 2001-2019
</metadata>
<g transform="translate(0.000000,192.000000) scale(0.100000,-0.100000)"
fill="#000000" stroke="none">
811 c445 -92 729 -532 635 -987 -62 -301 -295 -546 -601 -630 -91 -26 -329
-26 -420 0 -291 80 -516 305 -596 596 -26 91 -26 329 0 420 120 433 542 692
982 601z"/>
<path d="M623 1324 c-12 -3 -35 -20 -52 -39 -38 -43 -45 -114 -39 -388 3 -176
6 -206 23 -234 28 -48 69 -63 169 -63 156 0 189 31 184 178 l-3 87 -60 0 -60
0 -5 -70 -5 -70 -38 -3 c-67 -6 -67 -5 -67 243 0 248 0 249 67 243 l38 -3 5
-70 5 -70 59 -3 c36 -2 62 1 66 8 10 16 1 159 -12 192 -18 48 -53 62 -158 64
-52 1 -105 0 -117 -2z"/>
<path d="M957 1313 c-4 -3 -7 -163 -7 -354 0 -388 -6 -359 75 -359 34 0 47 5
55 19 5 11 10 79 10 152 0 73 3 130 6 126 4 -3 33 -64 66 -134 33 -70 67 -136
75 -145 22 -24 121 -26 130 -2 3 9 -28 87 -75 185 l-81 169 75 156 c41 86 74
163 72 173 -3 13 -15 16 -63 16 l-60 0 -30 -60 c-17 -33 -48 -98 -70 -145
l-40 -85 -5 135 c-3 74 -9 141 -13 148 -9 13 -108 17 -120 5z"/>
</g>
</svg>
