<?xml version="1.0" standalone="no"?>
<!DOCTYPE svg PUBLIC "-//W3C//DTD SVG 20010904//EN"
 "http://www.w3.org/TR/2001/REC-SVG-20010904/DTD/svg10.dtd">
<svg version="1.0" xmlns="http://www.w3.org/2000/svg"
 width="192.000000pt" height="192.000000pt" viewBox="0 0 192.000000 192.000000"
 preserveAspectRatio="xMidYMid meet">
<metadata>
Created by potrace 1.16, written by Peter Selinger 2001-2019
</metadata>
<g transform="translate(0.000000,192.000000) scale(0.100000,-0.100000)"
fill="#000000" stroke="none">
811 c445 -92 729 -532 635 -987 -62 -301 -295 -546 -601 -630 -91 -26 -329
-26 -420 0 -291 80 -516 305 -596 596 -26 91 -26 329 0 420 120 433 542 692
982 601z"/>
<path d="M923 1370 c-12 -5 -25 -21 -29 -35 -4 -17 -13 -25 -28 -25 -36 -1
-100 -35 -133 -73 -67 -76 -69 -179 -6 -265 42 -56 93 -75 221 -80 100 -4 114
-7 127 -25 20 -29 19 -53 -5 -77 -18 -18 -33 -20 -185 -20 -152 0 -167 -2
-185 -20 -30 -30 -27 -83 6 -109 22 -17 41 -21 105 -21 60 0 79 -3 79 -13 0
-24 36 -47 74 -47 31 0 40 5 54 30 10 17 28 33 42 36 14 2 45 15 70 28 133 69
140 261 12 351 -42 28 -49 30 -160 33 -129 4 -152 14 -152 63 0 54 16 59 186
59 170 0 207 9 218 54 8 32 -8 72 -33 85 -11 6 -54 11 -95 11 -59 0 -76 3 -76
14 0 18 -47 56 -69 55 -9 0 -26 -4 -38 -9z"/>
</g>
</svg>
