<?xml version="1.0" standalone="no"?>
<!DOCTYPE svg PUBLIC "-//W3C//DTD SVG 20010904//EN"
 "http://www.w3.org/TR/2001/REC-SVG-20010904/DTD/svg10.dtd">
<svg version="1.0" xmlns="http://www.w3.org/2000/svg"
 width="192.000000pt" height="192.000000pt" viewBox="0 0 192.000000 192.000000"
 preserveAspectRatio="xMidYMid meet">
<metadata>
Created by potrace 1.16, written by Peter Selinger 2001-2019
</metadata>
<g transform="translate(0.000000,192.000000) scale(0.100000,-0.100000)"
fill="#000000" stroke="none">
811 c445 -92 729 -532 635 -987 -62 -301 -295 -546 -601 -630 -91 -26 -329
-26 -420 0 -291 80 -516 305 -596 596 -26 91 -26 329 0 420 120 433 542 692
982 601z"/>
<path d="M865 1367 c-81 -21 -144 -56 -199 -111 -238 -239 -103 -642 233 -697
265 -42 509 206 463 471 -13 72 -36 113 -60 108 -9 -2 -77 -83 -150 -181 -73
-98 -144 -183 -157 -189 -43 -20 -67 8 -128 152 -57 131 -63 153 -51 185 10
24 49 36 79 25 24 -9 32 -22 81 -139 l14 -35 110 149 c61 82 110 157 110 167
0 21 -58 61 -119 83 -62 21 -166 27 -226 12z"/>
</g>
</svg>
