<?xml version="1.0" standalone="no"?>
<!DOCTYPE svg PUBLIC "-//W3C//DTD SVG 20010904//EN"
 "http://www.w3.org/TR/2001/REC-SVG-20010904/DTD/svg10.dtd">
<svg version="1.0" xmlns="http://www.w3.org/2000/svg"
 width="192.000000pt" height="192.000000pt" viewBox="0 0 192.000000 192.000000"
 preserveAspectRatio="xMidYMid meet">
<metadata>
Created by potrace 1.16, written by Peter Selinger 2001-2019
</metadata>
<g transform="translate(0.000000,192.000000) scale(0.100000,-0.100000)"
fill="#000000" stroke="none">
811 c445 -92 729 -532 635 -987 -62 -301 -295 -546 -601 -630 -91 -26 -329
-26 -420 0 -291 80 -516 305 -596 596 -26 91 -26 329 0 420 120 433 542 692
982 601z"/>
<path d="M870 1371 c-111 -36 -188 -119 -148 -159 18 -18 37 -15 72 15 98 83
214 84 317 2 44 -35 75 -32 85 7 8 32 -27 70 -99 110 -41 22 -67 28 -127 31
-41 1 -86 -1 -100 -6z"/>
<path d="M885 1238 c-58 -32 -81 -78 -53 -106 17 -17 36 -15 65 8 14 11 37 20
50 20 14 0 36 -9 50 -20 32 -25 45 -25 69 1 17 18 17 23 4 46 -30 52 -132 81
-185 51z"/>
<path d="M795 1089 c-53 -30 -55 -39 -55 -267 l0 -214 29 -29 29 -29 150 0
c147 0 151 1 181 26 l31 26 0 218 c0 217 0 219 -24 247 l-24 28 -149 3 c-97 1
-155 -2 -168 -9z m210 -469 c0 -23 -4 -25 -53 -28 -40 -2 -54 1 -58 12 -13 35
3 47 58 44 49 -3 53 -5 53 -28z"/>
</g>
</svg>
