<?xml version="1.0" standalone="no"?>
<!DOCTYPE svg PUBLIC "-//W3C//DTD SVG 20010904//EN"
 "http://www.w3.org/TR/2001/REC-SVG-20010904/DTD/svg10.dtd">
<svg version="1.0" xmlns="http://www.w3.org/2000/svg"
 width="192.000000pt" height="192.000000pt" viewBox="0 0 192.000000 192.000000"
 preserveAspectRatio="xMidYMid meet">
<metadata>
Created by potrace 1.16, written by Peter Selinger 2001-2019
</metadata>
<g transform="translate(0.000000,192.000000) scale(0.100000,-0.100000)"
fill="#000000" stroke="none">
811 c445 -92 729 -532 635 -987 -62 -301 -295 -546 -601 -630 -91 -26 -329
-26 -420 0 -291 80 -516 305 -596 596 -26 91 -26 329 0 420 120 433 542 692
982 601z"/>
<path d="M852 1365 c-64 -18 -95 -34 -147 -75 -146 -116 -196 -325 -117 -493
41 -89 109 -159 191 -200 62 -30 72 -32 176 -32 101 0 115 2 168 28 32 16 82
52 111 80 205 201 145 545 -117 668 -79 36 -186 46 -265 24z m208 -123 c28
-14 35 -23 35 -46 0 -43 -23 -52 -89 -36 -46 11 -64 11 -98 1 -121 -36 -181
-164 -129 -276 43 -92 145 -137 240 -104 44 15 81 -1 81 -35 0 -34 -21 -52
-81 -66 -133 -32 -274 40 -332 169 -25 56 -29 169 -8 221 66 160 241 239 381
172z"/>
</g>
</svg>
