<?xml version="1.0" standalone="no"?>
<!DOCTYPE svg PUBLIC "-//W3C//DTD SVG 20010904//EN"
 "http://www.w3.org/TR/2001/REC-SVG-20010904/DTD/svg10.dtd">
<svg version="1.0" xmlns="http://www.w3.org/2000/svg"
 width="192.000000pt" height="192.000000pt" viewBox="0 0 192.000000 192.000000"
 preserveAspectRatio="xMidYMid meet">
<metadata>
Created by potrace 1.16, written by Peter Selinger 2001-2019
</metadata>
<g transform="translate(0.000000,192.000000) scale(0.100000,-0.100000)"
fill="#000000" stroke="none">
811 c445 -92 729 -532 635 -987 -62 -301 -295 -546 -601 -630 -91 -26 -329
-26 -420 0 -291 80 -516 305 -596 596 -26 91 -26 329 0 420 120 433 542 692
982 601z"/>
<path d="M841 1236 c-6 -7 -13 -48 -16 -92 -3 -43 -11 -81 -17 -85 -22 -14
-38 3 -38 41 0 41 -24 70 -56 70 -34 0 -44 -21 -44 -91 0 -47 -4 -70 -15 -79
-21 -17 -45 -5 -45 23 0 37 -34 63 -68 51 -27 -9 -27 -11 -30 -110 -2 -90 -1
-102 18 -119 28 -26 68 -7 77 36 7 35 26 47 48 29 11 -9 15 -36 15 -109 0
-102 7 -121 45 -121 45 0 54 26 57 165 3 123 4 130 24 133 19 3 21 -3 27 -80
7 -82 19 -108 52 -108 32 0 50 30 55 92 4 55 8 63 25 63 17 0 21 -8 25 -61 5
-67 21 -94 54 -94 43 0 46 14 46 210 0 196 -3 210 -46 210 -37 0 -54 -36 -54
-111 0 -66 -8 -82 -37 -72 -9 3 -13 31 -13 92 0 62 -4 93 -16 109 -17 25 -56
29 -73 8z"/>
<path d="M1156 1064 c-13 -12 -16 -38 -16 -119 0 -86 3 -107 19 -126 16 -20
23 -22 47 -14 l29 10 3 119 c2 79 -1 123 -9 132 -15 19 -54 18 -73 -2z"/>
<path d="M1322 974 c-24 -17 -30 -70 -12 -105 12 -22 59 -26 78 -7 18 18 15
94 -4 112 -19 20 -34 20 -62 0z"/>
</g>
</svg>
