<?xml version="1.0" standalone="no"?>
<!DOCTYPE svg PUBLIC "-//W3C//DTD SVG 20010904//EN"
 "http://www.w3.org/TR/2001/REC-SVG-20010904/DTD/svg10.dtd">
<svg version="1.0" xmlns="http://www.w3.org/2000/svg"
 width="192.000000pt" height="192.000000pt" viewBox="0 0 192.000000 192.000000"
 preserveAspectRatio="xMidYMid meet">
<metadata>
Created by potrace 1.16, written by Peter Selinger 2001-2019
</metadata>
<g transform="translate(0.000000,192.000000) scale(0.100000,-0.100000)"
fill="#000000" stroke="none">
811 c445 -92 729 -532 635 -987 -62 -301 -295 -546 -601 -630 -91 -26 -329
-26 -420 0 -291 80 -516 305 -596 596 -26 91 -26 329 0 420 120 433 542 692
982 601z"/>
<path d="M739 1322 c-215 -138 -251 -442 -73 -632 180 -193 504 -163 646 59
33 53 36 93 7 120 -18 16 -39 20 -147 23 -105 3 -134 7 -167 25 -91 48 -118
104 -122 248 -4 129 -8 148 -29 169 -23 24 -65 19 -115 -12z"/>
<path d="M1070 1330 c-17 -17 -20 -33 -20 -120 0 -140 10 -150 150 -150 87 0
103 3 120 20 37 37 21 95 -48 172 -48 53 -118 98 -154 98 -15 0 -37 -9 -48
-20z"/>
</g>
</svg>
