<?xml version="1.0" standalone="no"?>
<!DOCTYPE svg PUBLIC "-//W3C//DTD SVG 20010904//EN"
 "http://www.w3.org/TR/2001/REC-SVG-20010904/DTD/svg10.dtd">
<svg version="1.0" xmlns="http://www.w3.org/2000/svg"
 width="192.000000pt" height="192.000000pt" viewBox="0 0 192.000000 192.000000"
 preserveAspectRatio="xMidYMid meet">
<metadata>
Created by potrace 1.16, written by Peter Selinger 2001-2019
</metadata>
<g transform="translate(0.000000,192.000000) scale(0.100000,-0.100000)"
fill="#000000" stroke="none">
811 c445 -92 729 -532 635 -987 -62 -301 -295 -546 -601 -630 -91 -26 -329
-26 -420 0 -291 80 -516 305 -596 596 -26 91 -26 329 0 420 120 433 542 692
982 601z"/>
<path d="M839 1335 c-183 -59 -297 -268 -244 -451 19 -68 60 -144 78 -144 7 0
47 56 90 124 94 151 121 176 185 176 72 0 98 -23 190 -169 46 -72 87 -131 91
-131 27 0 77 99 90 179 26 163 -59 325 -207 398 -68 33 -199 42 -273 18z"/>
<path d="M902 958 c-12 -6 -61 -71 -107 -145 -96 -151 -105 -186 -58 -223 26
-20 36 -21 226 -18 195 3 199 3 218 27 10 13 19 35 19 49 0 29 -138 253 -182
295 -30 29 -74 35 -116 15z"/>
</g>
</svg>
