<?xml version="1.0" standalone="no"?>
<!DOCTYPE svg PUBLIC "-//W3C//DTD SVG 20010904//EN"
 "http://www.w3.org/TR/2001/REC-SVG-20010904/DTD/svg10.dtd">
<svg version="1.0" xmlns="http://www.w3.org/2000/svg"
 width="192.000000pt" height="192.000000pt" viewBox="0 0 192.000000 192.000000"
 preserveAspectRatio="xMidYMid meet">
<metadata>
Created by potrace 1.16, written by Peter Selinger 2001-2019
</metadata>
<g transform="translate(0.000000,192.000000) scale(0.100000,-0.100000)"
fill="#000000" stroke="none">
811 c445 -92 729 -532 635 -987 -62 -301 -295 -546 -601 -630 -91 -26 -329
-26 -420 0 -291 80 -516 305 -596 596 -26 91 -26 329 0 420 120 433 542 692
982 601z"/>
<path d="M825 1342 c-153 -53 -251 -166 -275 -319 -36 -222 138 -436 365 -451
141 -9 245 45 245 126 0 79 -65 121 -150 96 -61 -18 -97 -17 -146 5 -61 28
-97 80 -102 150 -5 74 21 130 80 168 45 30 82 33 200 18 55 -7 58 -6 88 23 42
42 42 101 2 142 -57 56 -206 77 -307 42z"/>
<path d="M1235 1190 c-11 -5 -63 -51 -115 -104 l-95 -96 -97 0 c-98 0 -113 -5
-102 -34 5 -13 24 -16 109 -16 l102 0 83 -90 c126 -139 160 -146 208 -43 24
51 27 70 27 158 0 91 -3 105 -30 159 -31 62 -55 79 -90 66z"/>
</g>
</svg>
