<?xml version="1.0" standalone="no"?>
<!DOCTYPE svg PUBLIC "-//W3C//DTD SVG 20010904//EN"
 "http://www.w3.org/TR/2001/REC-SVG-20010904/DTD/svg10.dtd">
<svg version="1.0" xmlns="http://www.w3.org/2000/svg"
 width="192.000000pt" height="192.000000pt" viewBox="0 0 192.000000 192.000000"
 preserveAspectRatio="xMidYMid meet">
<metadata>
Created by potrace 1.16, written by Peter Selinger 2001-2019
</metadata>
<g transform="translate(0.000000,192.000000) scale(0.100000,-0.100000)"
fill="#000000" stroke="none">
811 c445 -92 729 -532 635 -987 -62 -301 -295 -546 -601 -630 -91 -26 -329
-26 -420 0 -291 80 -516 305 -596 596 -26 91 -26 329 0 420 120 433 542 692
982 601z"/>
<path d="M442 1098 c-17 -17 -17 -249 0 -266 7 -7 40 -12 78 -12 38 0 71 5 78
12 15 15 15 61 0 76 -17 17 -47 15 -54 -3 -4 -8 -15 -15 -25 -15 -17 0 -19 8
-19 75 0 63 3 75 17 75 9 0 25 -8 35 -17 15 -13 23 -15 36 -7 21 13 28 60 11
80 -15 18 -139 20 -157 2z"/>
<path d="M663 1103 c-18 -7 -18 -254 -1 -271 16 -16 130 -15 152 1 13 10 16
20 12 35 -6 19 -15 22 -57 22 -42 0 -49 3 -49 19 0 15 8 21 31 23 63 6 67 68
4 68 -28 0 -35 4 -35 19 0 16 8 20 46 23 54 3 77 26 55 52 -10 12 -31 16 -80
15 -36 0 -72 -3 -78 -6z"/>
<path d="M883 1103 c-10 -3 -13 -40 -13 -133 0 -139 8 -162 49 -140 19 10 21
20 21 111 0 90 2 100 18 97 15 -3 17 -17 20 -103 3 -92 9 -114 34 -115 4 0 14
7 22 16 13 12 16 39 16 133 0 78 -4 121 -12 129 -12 12 -130 16 -155 5z"/>
<path d="M1089 1083 c-16 -43 -8 -241 11 -253 26 -16 137 -12 154 6 31 31 9
54 -51 54 -36 0 -43 3 -43 19 0 15 8 21 31 23 63 6 61 68 -2 68 -22 0 -29 5
-29 20 0 17 7 20 44 20 52 0 73 18 56 49 -9 18 -20 21 -86 21 -72 0 -75 -1
-85 -27z"/>
<path d="M1310 1091 c-5 -11 -10 -69 -10 -130 0 -135 4 -141 95 -141 91 0 95
6 95 141 0 146 -2 149 -95 149 -63 0 -76 -3 -85 -19z m100 -126 c0 -60 -3 -75
-15 -75 -12 0 -15 15 -15 75 0 60 3 75 15 75 12 0 15 -15 15 -75z"/>
</g>
</svg>
