<?xml version="1.0" standalone="no"?>
<!DOCTYPE svg PUBLIC "-//W3C//DTD SVG 20010904//EN"
 "http://www.w3.org/TR/2001/REC-SVG-20010904/DTD/svg10.dtd">
<svg version="1.0" xmlns="http://www.w3.org/2000/svg"
 width="192.000000pt" height="192.000000pt" viewBox="0 0 192.000000 192.000000"
 preserveAspectRatio="xMidYMid meet">
<metadata>
Created by potrace 1.16, written by Peter Selinger 2001-2019
</metadata>
<g transform="translate(0.000000,192.000000) scale(0.100000,-0.100000)"
fill="#000000" stroke="none">
811 c445 -92 729 -532 635 -987 -62 -301 -295 -546 -601 -630 -91 -26 -329
-26 -420 0 -291 80 -516 305 -596 596 -26 91 -26 329 0 420 120 433 542 692
982 601z"/>
<path d="M820 1348 c-31 -11 -93 -23 -142 -27 -48 -3 -93 -12 -100 -18 -9 -10
-9 -25 3 -70 14 -55 14 -60 -8 -114 -64 -158 -26 -328 98 -443 31 -29 77 -62
102 -74 190 -89 409 -29 523 143 72 108 87 249 39 369 -25 63 -26 70 -14 117
19 74 10 83 -92 90 -49 3 -108 15 -141 27 -77 29 -191 30 -268 0z m-47 -266
c27 -24 22 -76 -9 -101 -35 -28 -69 -26 -99 4 -28 27 -37 87 -10 65 25 -21 65
-4 72 30 6 30 12 31 46 2z m464 8 c31 -28 36 -55 18 -89 -27 -53 -103 -54
-130 -1 -23 44 -20 53 15 45 37 -8 60 8 60 41 0 29 10 30 37 4z m-214 -201
c45 -12 53 -42 8 -33 -31 6 -46 -14 -36 -47 4 -12 -2 -23 -20 -35 -24 -16 -27
-16 -45 1 -10 9 -20 31 -22 49 -3 28 -6 31 -35 30 -46 -3 -42 21 5 34 50 13
100 14 145 1z"/>
</g>
</svg>
