<?xml version="1.0" standalone="no"?>
<!DOCTYPE svg PUBLIC "-//W3C//DTD SVG 20010904//EN"
 "http://www.w3.org/TR/2001/REC-SVG-20010904/DTD/svg10.dtd">
<svg version="1.0" xmlns="http://www.w3.org/2000/svg"
 width="192.000000pt" height="192.000000pt" viewBox="0 0 192.000000 192.000000"
 preserveAspectRatio="xMidYMid meet">
<metadata>
Created by potrace 1.16, written by Peter Selinger 2001-2019
</metadata>
<g transform="translate(0.000000,192.000000) scale(0.100000,-0.100000)"
fill="#000000" stroke="none">
811 c445 -92 729 -532 635 -987 -62 -301 -295 -546 -601 -630 -91 -26 -329
-26 -420 0 -291 80 -516 305 -596 596 -26 91 -26 329 0 420 120 433 542 692
982 601z"/>
<path d="M950 1352 c0 -11 16 -27 40 -41 36 -20 39 -24 29 -44 -7 -12 -13 -23
-14 -25 -2 -2 -22 6 -45 18 -69 35 -86 -10 -18 -47 18 -10 33 -25 33 -33 0
-17 109 -79 139 -80 11 0 27 7 37 16 16 14 19 12 43 -28 70 -119 50 -256 -50
-348 -62 -57 -105 -73 -189 -73 -83 0 -126 16 -185 70 -61 54 -90 121 -90 208
0 79 19 131 69 187 34 39 39 68 15 92 -25 25 -44 19 -89 -27 -175 -183 -113
-489 120 -598 90 -43 186 -49 274 -19 117 39 181 97 235 210 27 57 31 75 30
150 -1 103 -26 177 -84 243 -24 27 -40 55 -40 70 0 21 -12 32 -66 61 -40 23
-73 34 -84 31 -11 -3 -33 1 -49 9 -40 21 -61 20 -61 -2z"/>
<path d="M774 1043 c-41 -8 -69 -50 -69 -105 0 -42 4 -53 28 -74 50 -43 153
-23 145 29 -4 28 -34 34 -58 12 -31 -28 -52 -12 -48 37 2 33 7 44 22 47 11 2
25 -4 32 -14 17 -22 48 -15 52 12 5 33 -55 65 -104 56z"/>
<path d="M912 1028 c-18 -18 -16 -162 3 -178 22 -18 45 -5 51 30 5 25 11 30
34 30 16 0 30 6 33 13 8 23 -5 37 -34 37 -19 0 -29 5 -29 15 0 11 11 15 36 15
31 0 35 3 32 23 -3 19 -10 22 -58 25 -34 2 -60 -2 -68 -10z"/>
<path d="M1064 1027 c-2 -7 -4 -52 -2 -98 l3 -84 65 0 c58 0 65 2 65 20 0 16
-8 21 -37 23 -51 4 -53 32 -2 32 31 0 35 3 32 23 -2 17 -11 23 -35 25 -45 4
-42 20 5 24 29 2 37 7 37 23 0 18 -8 20 -63 23 -46 2 -64 -1 -68 -11z"/>
</g>
</svg>
