<?xml version="1.0" standalone="no"?>
<!DOCTYPE svg PUBLIC "-//W3C//DTD SVG 20010904//EN"
 "http://www.w3.org/TR/2001/REC-SVG-20010904/DTD/svg10.dtd">
<svg version="1.0" xmlns="http://www.w3.org/2000/svg"
 width="192.000000pt" height="192.000000pt" viewBox="0 0 192.000000 192.000000"
 preserveAspectRatio="xMidYMid meet">
<metadata>
Created by potrace 1.16, written by Peter Selinger 2001-2019
</metadata>
<g transform="translate(0.000000,192.000000) scale(0.100000,-0.100000)"
fill="#000000" stroke="none">
811 c445 -92 729 -532 635 -987 -62 -301 -295 -546 -601 -630 -91 -26 -329
-26 -420 0 -291 80 -516 305 -596 596 -26 91 -26 329 0 420 120 433 542 692
982 601z"/>
<path d="M1206 1372 c-3 -5 -3 -18 1 -28 5 -13 3 -16 -10 -11 -23 9 -32 -12
-11 -27 12 -9 14 -15 5 -20 -17 -11 -2 -28 20 -21 13 4 19 2 19 -9 0 -9 5 -16
10 -16 6 0 10 7 10 16 0 11 6 13 19 9 22 -7 37 10 20 21 -9 5 -7 11 5 20 21
15 13 36 -10 27 -13 -5 -15 -1 -10 15 9 26 -10 38 -23 15 -9 -17 -11 -17 -24
1 -9 12 -16 15 -21 8z"/>
<path d="M620 1189 c-81 -47 -111 -146 -68 -228 13 -25 35 -53 49 -64 58 -42
146 -41 202 4 l26 20 30 -22 c69 -51 189 -27 233 47 11 18 22 34 24 34 2 0 15
-22 29 -49 25 -49 49 -67 77 -56 9 4 48 67 88 142 63 119 70 139 61 160 -9 20
-17 24 -44 21 -29 -3 -36 -10 -78 -92 l-47 -90 -46 92 c-42 84 -49 92 -75 92
-16 0 -34 -7 -42 -16 -13 -16 -12 -20 16 -86 6 -16 1 -18 -43 -18 -55 0 -75
-15 -70 -52 2 -18 10 -24 36 -26 39 -4 38 -22 -1 -35 -35 -11 -79 10 -91 46
-15 41 3 79 47 100 30 14 37 23 37 46 0 58 -60 65 -121 14 -40 -34 -59 -73
-59 -123 0 -95 -128 -128 -159 -40 -18 53 21 110 76 110 31 0 50 39 34 69 -15
28 -73 28 -121 0z"/>
</g>
</svg>
