<?xml version="1.0" standalone="no"?>
<!DOCTYPE svg PUBLIC "-//W3C//DTD SVG 20010904//EN"
 "http://www.w3.org/TR/2001/REC-SVG-20010904/DTD/svg10.dtd">
<svg version="1.0" xmlns="http://www.w3.org/2000/svg"
 width="192.000000pt" height="192.000000pt" viewBox="0 0 192.000000 192.000000"
 preserveAspectRatio="xMidYMid meet">
<metadata>
Created by potrace 1.16, written by Peter Selinger 2001-2019
</metadata>
<g transform="translate(0.000000,192.000000) scale(0.100000,-0.100000)"
fill="#000000" stroke="none">
811 c445 -92 729 -532 635 -987 -62 -301 -295 -546 -601 -630 -91 -26 -329
-26 -420 0 -291 80 -516 305 -596 596 -26 91 -26 329 0 420 120 433 542 692
982 601z"/>
<path d="M1364 1225 c-15 -23 -15 -27 0 -50 19 -30 46 -32 69 -7 21 23 22 46
1 66 -23 23 -51 20 -70 -9z"/>
<path d="M546 1087 c-52 -29 -80 -77 -80 -137 0 -60 28 -108 80 -137 63 -36
154 -27 192 20 9 11 7 19 -13 37 -21 20 -28 22 -50 12 -60 -28 -112 -2 -121
60 -11 66 54 107 121 76 22 -10 29 -8 50 12 20 18 22 26 13 37 -38 47 -129 56
-192 20z"/>
<path d="M1051 1092 c-52 -26 -74 -63 -78 -129 -5 -70 16 -117 66 -150 40 -27
106 -31 138 -8 19 13 22 13 27 -1 4 -11 17 -14 43 -12 l38 3 3 153 3 152 -46
0 c-25 0 -45 -5 -45 -11 0 -5 -10 -3 -22 5 -30 21 -85 20 -127 -2z m130 -81
c33 -27 33 -95 0 -122 -44 -36 -102 -20 -120 31 -27 80 56 143 120 91z"/>
<path d="M1360 945 l0 -155 40 0 40 0 0 155 0 155 -40 0 -40 0 0 -155z"/>
<path d="M830 880 c-11 -11 -20 -26 -20 -33 0 -24 31 -57 54 -57 26 0 56 28
56 53 0 21 -35 57 -55 57 -8 0 -24 -9 -35 -20z"/>
</g>
</svg>
