<?xml version="1.0" standalone="no"?>
<!DOCTYPE svg PUBLIC "-//W3C//DTD SVG 20010904//EN"
 "http://www.w3.org/TR/2001/REC-SVG-20010904/DTD/svg10.dtd">
<svg version="1.0" xmlns="http://www.w3.org/2000/svg"
 width="192.000000pt" height="192.000000pt" viewBox="0 0 192.000000 192.000000"
 preserveAspectRatio="xMidYMid meet">
<metadata>
Created by potrace 1.16, written by Peter Selinger 2001-2019
</metadata>
<g transform="translate(0.000000,192.000000) scale(0.100000,-0.100000)"
fill="#000000" stroke="none">
811 c445 -92 729 -532 635 -987 -62 -301 -295 -546 -601 -630 -91 -26 -329
-26 -420 0 -291 80 -516 305 -596 596 -26 91 -26 329 0 420 120 433 542 692
982 601z"/>
<path d="M817 1363 c-12 -12 -8 -198 5 -211 17 -17 419 -17 436 0 26 26 11 55
-72 136 l-84 82 -139 0 c-77 0 -143 -3 -146 -7z"/>
<path d="M627 1196 l-77 -84 0 -146 0 -146 105 0 c93 0 105 2 115 19 6 12 10
99 10 214 0 175 -2 195 -18 210 -34 31 -56 20 -135 -67z"/>
<path d="M1150 1090 c-13 -8 -15 -44 -15 -220 0 -176 2 -212 15 -220 35 -22
59 -10 134 72 l76 83 0 147 0 148 -97 0 c-54 0 -105 -5 -113 -10z"/>
<path d="M657 772 c-10 -10 -17 -25 -17 -34 0 -8 37 -52 83 -96 l82 -82 148 0
147 0 0 105 c0 93 -2 105 -19 115 -12 6 -99 10 -214 10 -175 0 -195 -2 -210
-18z"/>
</g>
</svg>
