<?xml version="1.0" standalone="no"?>
<!DOCTYPE svg PUBLIC "-//W3C//DTD SVG 20010904//EN"
 "http://www.w3.org/TR/2001/REC-SVG-20010904/DTD/svg10.dtd">
<svg version="1.0" xmlns="http://www.w3.org/2000/svg"
 width="192.000000pt" height="192.000000pt" viewBox="0 0 192.000000 192.000000"
 preserveAspectRatio="xMidYMid meet">
<metadata>
Created by potrace 1.16, written by Peter Selinger 2001-2019
</metadata>
<g transform="translate(0.000000,192.000000) scale(0.100000,-0.100000)"
fill="#000000" stroke="none">
811 c445 -92 729 -532 635 -987 -62 -301 -295 -546 -601 -630 -91 -26 -329
-26 -420 0 -291 80 -516 305 -596 596 -26 91 -26 329 0 420 120 433 542 692
982 601z"/>
<path d="M911 1363 c-19 -10 -36 -23 -38 -29 -2 -7 48 -42 112 -79 l115 -67 0
-128 c0 -71 4 -131 8 -134 5 -3 27 6 50 20 l42 25 0 138 c0 99 -4 142 -12 149
-30 25 -194 114 -217 118 -14 3 -41 -3 -60 -13z"/>
<path d="M720 1258 c-105 -62 -118 -73 -129 -114 -10 -35 -5 -74 9 -74 4 0 55
27 113 60 57 33 110 60 116 60 7 0 42 -16 77 -36 l64 -36 0 -73 0 -74 42 -25
c24 -14 46 -22 51 -17 4 4 6 63 5 132 l-3 124 -105 62 c-58 34 -116 61 -130
61 -14 0 -63 -22 -110 -50z"/>
<path d="M1227 1223 c-4 -3 -7 -65 -7 -137 l0 -131 -67 -37 -68 -37 -65 36
-66 36 -42 -27 c-24 -15 -42 -32 -40 -38 6 -16 190 -120 213 -120 23 0 214
107 233 130 17 22 16 239 -2 270 -7 13 -26 32 -42 43 -32 21 -37 22 -47 12z"/>
<path d="M720 1110 c-58 -32 -113 -69 -122 -81 -15 -17 -18 -40 -17 -118 0
-53 5 -112 12 -131 12 -36 74 -87 88 -73 5 5 10 66 11 137 l3 128 110 64 c61
35 110 70 110 76 0 10 -70 58 -85 58 -3 0 -52 -27 -110 -60z"/>
<path d="M830 1028 c-128 -75 -120 -61 -120 -208 0 -148 -6 -138 130 -216 61
-35 95 -48 121 -48 40 1 90 30 83 47 -3 7 -53 39 -112 72 l-107 60 -3 82 -3
81 54 31 c30 17 60 38 66 45 17 21 10 100 -9 103 -8 1 -53 -21 -100 -49z"/>
<path d="M847 853 c-9 -9 -9 -85 1 -99 12 -18 217 -134 237 -134 31 0 211 110
228 140 19 32 22 85 6 95 -5 4 -58 -21 -116 -54 -57 -34 -111 -61 -117 -61 -7
0 -60 27 -117 60 -108 63 -112 64 -122 53z"/>
</g>
</svg>
