<?xml version="1.0" standalone="no"?>
<!DOCTYPE svg PUBLIC "-//W3C//DTD SVG 20010904//EN"
 "http://www.w3.org/TR/2001/REC-SVG-20010904/DTD/svg10.dtd">
<svg version="1.0" xmlns="http://www.w3.org/2000/svg"
 width="192.000000pt" height="192.000000pt" viewBox="0 0 192.000000 192.000000"
 preserveAspectRatio="xMidYMid meet">
<metadata>
Created by potrace 1.16, written by Peter Selinger 2001-2019
</metadata>
<g transform="translate(0.000000,192.000000) scale(0.100000,-0.100000)"
fill="#000000" stroke="none">
811 c445 -92 729 -532 635 -987 -62 -301 -295 -546 -601 -630 -91 -26 -329
-26 -420 0 -291 80 -516 305 -596 596 -26 91 -26 329 0 420 120 433 542 692
982 601z"/>
<path d="M464 1036 c-9 -15 -17 -48 -18 -78 l-1 -53 49 -3 c50 -3 86 15 86 45
0 18 -28 17 -47 -2 -25 -26 -48 -14 -46 23 0 18 7 39 13 47 14 17 50 20 50 5
0 -5 9 -10 21 -10 15 0 20 5 17 23 -3 19 -10 22 -55 25 -46 3 -54 0 -69 -22z"/>
<path d="M615 1048 c-2 -7 -10 -44 -18 -81 -15 -68 -15 -68 6 -65 14 2 24 14
29 36 8 29 13 33 36 30 24 -3 27 -7 24 -35 -3 -27 0 -33 16 -33 16 0 22 11 31
63 7 34 14 70 17 80 4 12 0 17 -16 17 -15 0 -22 -8 -26 -30 -6 -25 -11 -30
-36 -30 -28 0 -30 2 -26 30 4 24 1 30 -14 30 -10 0 -20 -6 -23 -12z"/>
<path d="M771 1023 c-6 -21 -13 -57 -17 -81 l-7 -43 58 3 c69 4 92 28 26 28
-44 0 -44 0 -35 24 4 10 18 16 39 16 20 0 35 6 39 15 4 12 -3 15 -29 15 -24 0
-35 5 -35 15 0 11 11 15 40 15 29 0 40 4 40 15 0 12 -13 15 -55 15 l-54 0 -10
-37z"/>
<path d="M918 1043 c-24 -26 -42 -111 -27 -129 18 -22 95 -18 119 6 11 11 20
25 20 30 0 16 -31 12 -51 -6 -37 -34 -61 3 -39 60 10 26 43 36 55 16 3 -5 15
-10 26 -10 15 0 20 6 17 23 -3 19 -10 22 -54 25 -38 2 -54 -1 -66 -15z"/>
<path d="M1051 998 c-7 -35 -14 -71 -17 -80 -4 -13 0 -18 14 -18 21 0 32 18
32 51 0 31 18 22 31 -16 10 -26 19 -35 36 -35 27 0 27 0 8 46 -14 35 -14 37
15 72 25 31 28 38 14 40 -9 2 -34 -13 -56 -35 l-40 -38 7 38 c6 33 5 37 -13
37 -16 0 -21 -11 -31 -62z"/>
<path d="M1226 1044 c-9 -8 -16 -22 -16 -30 0 -19 30 -18 45 3 14 19 47 11 39
-10 -3 -8 -23 -19 -44 -26 -39 -12 -60 -35 -60 -66 0 -13 10 -15 62 -13 76 4
92 25 21 30 -36 3 -43 6 -28 12 74 29 83 36 90 65 3 17 4 35 0 41 -10 16 -92
12 -109 -6z"/>
<path d="M1378 1028 c-68 -73 -72 -98 -12 -98 24 0 34 -5 34 -15 0 -8 9 -15
20 -15 11 0 20 7 20 15 0 8 4 15 8 15 5 0 9 19 10 43 1 23 3 51 4 62 2 15 -4
21 -25 23 -21 3 -35 -5 -59 -30z m38 -43 c-5 -19 -13 -25 -33 -25 l-27 0 29
30 c32 34 40 32 31 -5z"/>
<path d="M1186 882 c-2 -4 -1 -14 5 -22 5 -8 9 -12 9 -8 0 4 16 -4 36 -17 46
-31 89 -32 147 -1 25 14 48 22 51 19 3 -4 6 3 6 15 0 16 -6 22 -21 22 -11 0
-17 -5 -14 -10 9 -14 -56 -40 -99 -40 -45 0 -88 20 -82 37 6 14 -29 19 -38 5z"/>
</g>
</svg>
