<?xml version="1.0" standalone="no"?>
<!DOCTYPE svg PUBLIC "-//W3C//DTD SVG 20010904//EN"
 "http://www.w3.org/TR/2001/REC-SVG-20010904/DTD/svg10.dtd">
<svg version="1.0" xmlns="http://www.w3.org/2000/svg"
 width="192.000000pt" height="192.000000pt" viewBox="0 0 192.000000 192.000000"
 preserveAspectRatio="xMidYMid meet">
<metadata>
Created by potrace 1.16, written by Peter Selinger 2001-2019
</metadata>
<g transform="translate(0.000000,192.000000) scale(0.100000,-0.100000)"
fill="#000000" stroke="none">
811 c445 -92 729 -532 635 -987 -62 -301 -295 -546 -601 -630 -91 -26 -329
-26 -420 0 -291 80 -516 305 -596 596 -26 91 -26 329 0 420 120 433 542 692
982 601z"/>
<path d="M564 1228 c7 -39 31 -74 70 -102 24 -19 46 -22 195 -26 137 -4 172
-8 194 -23 36 -24 57 -57 63 -103 10 -74 14 -84 44 -99 41 -21 58 -19 91 14
75 76 5 260 -129 339 l-47 27 -244 3 -244 3 7 -33z"/>
<path d="M705 1058 c-33 -19 -44 -41 -45 -89 0 -107 60 -209 158 -267 l47 -27
243 -3 244 -3 -7 33 c-8 39 -31 74 -69 102 -24 19 -46 22 -201 26 -168 5 -174
6 -201 30 -32 30 -54 78 -54 119 0 43 -9 60 -41 76 -33 18 -47 18 -74 3z"/>
</g>
</svg>
