<?xml version="1.0" standalone="no"?>
<!DOCTYPE svg PUBLIC "-//W3C//DTD SVG 20010904//EN"
 "http://www.w3.org/TR/2001/REC-SVG-20010904/DTD/svg10.dtd">
<svg version="1.0" xmlns="http://www.w3.org/2000/svg"
 width="192.000000pt" height="192.000000pt" viewBox="0 0 192.000000 192.000000"
 preserveAspectRatio="xMidYMid meet">
<metadata>
Created by potrace 1.16, written by Peter Selinger 2001-2019
</metadata>
<g transform="translate(0.000000,192.000000) scale(0.100000,-0.100000)"
fill="#000000" stroke="none">
811 c445 -92 729 -532 635 -987 -62 -301 -295 -546 -601 -630 -91 -26 -329
-26 -420 0 -291 80 -516 305 -596 596 -26 91 -26 329 0 420 120 433 542 692
982 601z"/>
<path d="M890 1374 c-73 -31 -112 -90 -112 -165 0 -26 7 -62 16 -80 15 -31 15
-33 -4 -51 -23 -21 -17 -44 13 -54 12 -4 25 -11 28 -16 3 -5 -2 -62 -12 -126
-28 -174 -31 -162 50 -162 76 0 105 -16 81 -45 -9 -11 -34 -15 -100 -15 -107
0 -132 -14 -134 -76 l-1 -39 240 0 240 0 3 36 c2 30 -2 41 -23 57 -14 11 -30
22 -36 24 -9 3 -58 275 -59 325 0 15 10 28 30 38 34 18 39 40 11 55 -20 10
-20 11 1 57 65 146 -86 301 -232 237z"/>
</g>
</svg>
