<?xml version="1.0" standalone="no"?>
<!DOCTYPE svg PUBLIC "-//W3C//DTD SVG 20010904//EN"
 "http://www.w3.org/TR/2001/REC-SVG-20010904/DTD/svg10.dtd">
<svg version="1.0" xmlns="http://www.w3.org/2000/svg"
 width="192.000000pt" height="192.000000pt" viewBox="0 0 192.000000 192.000000"
 preserveAspectRatio="xMidYMid meet">
<metadata>
Created by potrace 1.16, written by Peter Selinger 2001-2019
</metadata>
<g transform="translate(0.000000,192.000000) scale(0.100000,-0.100000)"
fill="#000000" stroke="none">
811 c445 -92 729 -532 635 -987 -62 -301 -295 -546 -601 -630 -91 -26 -329
-26 -420 0 -291 80 -516 305 -596 596 -26 91 -26 329 0 420 120 433 542 692
982 601z"/>
<path d="M673 1314 c-25 -14 -54 -44 -68 -69 l-26 -43 3 -244 c3 -240 3 -245
27 -280 13 -19 40 -46 59 -59 35 -24 40 -24 280 -27 l244 -3 43 26 c27 15 55
43 70 69 25 42 25 44 25 281 0 237 0 239 -25 281 -15 26 -43 54 -69 69 -43 25
-44 25 -282 25 -238 0 -239 0 -281 -26z m87 -94 l0 -60 -60 0 -60 0 11 28 c17
44 66 88 102 91 4 1 7 -26 7 -59z m250 0 l0 -60 -55 0 -55 0 0 60 0 60 55 0
55 0 0 -60z m185 44 c35 -16 57 -42 69 -81 7 -22 5 -23 -58 -23 l-66 0 0 60
c0 66 4 69 55 44z m-435 -299 l0 -55 -60 0 -60 0 0 55 0 55 60 0 60 0 0 -55z
m250 0 l0 -55 -55 0 -55 0 0 55 0 55 55 0 55 0 0 -55z m260 0 l0 -55 -65 0
-65 0 0 55 0 55 65 0 65 0 0 -55z m-510 -250 l0 -65 -27 11 c-39 14 -63 38
-79 76 -8 18 -14 35 -14 38 0 3 27 5 60 5 l60 0 0 -65z m250 0 l0 -65 -55 0
-55 0 0 65 0 65 55 0 55 0 0 -65z m255 38 c-9 -36 -42 -72 -82 -89 -18 -8 -35
-14 -38 -14 -7 0 -6 115 2 123 3 4 33 7 66 7 l59 0 -7 -27z"/>
</g>
</svg>
