<?xml version="1.0" standalone="no"?>
<!DOCTYPE svg PUBLIC "-//W3C//DTD SVG 20010904//EN"
 "http://www.w3.org/TR/2001/REC-SVG-20010904/DTD/svg10.dtd">
<svg version="1.0" xmlns="http://www.w3.org/2000/svg"
 width="192.000000pt" height="192.000000pt" viewBox="0 0 192.000000 192.000000"
 preserveAspectRatio="xMidYMid meet">
<metadata>
Created by potrace 1.16, written by Peter Selinger 2001-2019
</metadata>
<g transform="translate(0.000000,192.000000) scale(0.100000,-0.100000)"
fill="#000000" stroke="none">
811 c445 -92 729 -532 635 -987 -62 -301 -295 -546 -601 -630 -91 -26 -329
-26 -420 0 -291 80 -516 305 -596 596 -26 91 -26 329 0 420 120 433 542 692
982 601z"/>
<path d="M701 1329 c-44 -17 -81 -51 -101 -89 -18 -36 -20 -60 -20 -262 l0
-222 40 83 c48 99 146 204 225 240 129 60 263 5 281 -115 15 -104 -15 -235
-76 -326 l-29 -43 67 -3 c95 -4 128 4 174 46 63 57 68 76 68 286 l0 185 -52
-24 c-61 -28 -114 -32 -146 -9 -52 36 -10 146 78 205 l43 29 -36 15 c-20 8
-50 15 -67 15 -26 0 -30 -3 -30 -29 0 -39 -18 -90 -47 -128 -19 -26 -31 -33
-58 -33 -49 0 -69 41 -62 127 l5 63 -60 0 -60 0 30 -25 c63 -53 65 -175 3
-175 -73 0 -135 145 -79 184 22 15 21 16 -22 15 -25 0 -56 -5 -69 -10z m59
-155 c25 -21 30 -33 28 -58 -3 -28 -6 -31 -36 -29 -42 2 -82 37 -82 73 0 15 3
30 7 33 14 15 53 6 83 -19z m473 -286 c15 -11 27 -24 27 -29 0 -9 -100 -62
-106 -56 -2 1 0 28 3 60 5 53 8 57 27 51 12 -4 33 -15 49 -26z"/>
<path d="M911 1038 c-78 -22 -153 -95 -215 -209 -29 -54 -66 -154 -66 -180 0
-10 60 -46 90 -54 25 -6 25 -5 26 57 1 89 48 178 95 178 26 0 24 -25 -6 -84
-26 -52 -32 -104 -15 -137 8 -15 21 -19 59 -19 43 0 52 4 80 35 103 117 136
340 59 402 -21 17 -70 22 -107 11z m109 -111 c0 -29 -34 -62 -55 -54 -19 8
-19 27 1 55 21 30 54 29 54 -1z"/>
</g>
</svg>
