<?xml version="1.0" standalone="no"?>
<!DOCTYPE svg PUBLIC "-//W3C//DTD SVG 20010904//EN"
 "http://www.w3.org/TR/2001/REC-SVG-20010904/DTD/svg10.dtd">
<svg version="1.0" xmlns="http://www.w3.org/2000/svg"
 width="192.000000pt" height="192.000000pt" viewBox="0 0 192.000000 192.000000"
 preserveAspectRatio="xMidYMid meet">
<metadata>
Created by potrace 1.16, written by Peter Selinger 2001-2019
</metadata>
<g transform="translate(0.000000,192.000000) scale(0.100000,-0.100000)"
fill="#000000" stroke="none">
811 c445 -92 729 -532 635 -987 -62 -301 -295 -546 -601 -630 -91 -26 -329
-26 -420 0 -291 80 -516 305 -596 596 -26 91 -26 329 0 420 120 433 542 692
982 601z"/>
<path d="M970 1366 c-72 -21 -118 -43 -190 -91 -134 -89 -194 -187 -194 -315
0 -122 52 -212 169 -295 94 -67 188 -107 266 -113 60 -4 68 -2 82 18 20 29 11
49 -73 145 -87 100 -115 162 -115 250 1 87 24 134 123 254 39 46 72 92 75 102
12 47 -59 70 -143 45z"/>
<path d="M1230 1211 c-44 -14 -108 -50 -145 -83 -84 -73 -104 -186 -49 -275
36 -57 134 -127 199 -141 55 -12 105 1 105 26 0 9 -21 48 -47 86 -46 65 -48
72 -48 136 0 64 2 71 48 137 26 39 47 77 47 86 0 32 -53 45 -110 28z"/>
</g>
</svg>
