<?xml version="1.0" standalone="no"?>
<!DOCTYPE svg PUBLIC "-//W3C//DTD SVG 20010904//EN"
 "http://www.w3.org/TR/2001/REC-SVG-20010904/DTD/svg10.dtd">
<svg version="1.0" xmlns="http://www.w3.org/2000/svg"
 width="192.000000pt" height="192.000000pt" viewBox="0 0 192.000000 192.000000"
 preserveAspectRatio="xMidYMid meet">
<metadata>
Created by potrace 1.16, written by Peter Selinger 2001-2019
</metadata>
<g transform="translate(0.000000,192.000000) scale(0.100000,-0.100000)"
fill="#000000" stroke="none">
811 c445 -92 729 -532 635 -987 -62 -301 -295 -546 -601 -630 -91 -26 -329
-26 -420 0 -291 80 -516 305 -596 596 -26 91 -26 329 0 420 120 433 542 692
982 601z"/>
<path d="M1094 1361 c-30 -5 -61 -24 -116 -69 -78 -64 -91 -69 -131 -51 -20 9
-30 8 -51 -6 -30 -20 -33 -32 -8 -38 11 -3 8 -5 -8 -6 -16 -1 -40 -16 -62 -38
-35 -36 -37 -43 -47 -134 -13 -121 -5 -168 43 -244 122 -190 145 -205 312
-208 l116 -2 34 39 c42 49 45 83 7 97 -16 5 -51 24 -80 41 -44 27 -52 36 -55
67 -4 34 14 81 48 121 7 8 18 36 25 61 11 42 10 48 -16 93 -24 40 -26 52 -16
68 15 24 6 38 -23 38 -32 0 -36 7 -25 43 11 41 45 66 86 67 42 0 63 -32 39
-59 -24 -26 -20 -31 23 -31 36 0 40 3 51 34 10 31 8 39 -15 74 -24 36 -52 54
-80 51 -5 -1 -28 -5 -51 -8z"/>
</g>
</svg>
