<?xml version="1.0" standalone="no"?>
<!DOCTYPE svg PUBLIC "-//W3C//DTD SVG 20010904//EN"
 "http://www.w3.org/TR/2001/REC-SVG-20010904/DTD/svg10.dtd">
<svg version="1.0" xmlns="http://www.w3.org/2000/svg"
 width="192.000000pt" height="192.000000pt" viewBox="0 0 192.000000 192.000000"
 preserveAspectRatio="xMidYMid meet">
<metadata>
Created by potrace 1.16, written by Peter Selinger 2001-2019
</metadata>
<g transform="translate(0.000000,192.000000) scale(0.100000,-0.100000)"
fill="#000000" stroke="none">
811 c445 -92 729 -532 635 -987 -62 -301 -295 -546 -601 -630 -91 -26 -329
-26 -420 0 -291 80 -516 305 -596 596 -26 91 -26 329 0 420 120 433 542 692
982 601z"/>
<path d="M904 1361 c-16 -10 -42 -34 -57 -54 -82 -108 -71 -238 32 -350 46
-50 61 -78 61 -109 0 -34 -18 -48 -61 -48 -51 0 -95 50 -104 117 -10 81 -14
90 -37 96 -32 9 -92 -57 -107 -118 -23 -93 24 -212 109 -274 98 -71 246 -86
356 -37 148 66 219 212 180 366 -23 89 -67 151 -185 260 -55 52 -105 106 -110
121 -14 41 -41 52 -77 30z"/>
</g>
</svg>
