<?xml version="1.0" standalone="no"?>
<!DOCTYPE svg PUBLIC "-//W3C//DTD SVG 20010904//EN"
 "http://www.w3.org/TR/2001/REC-SVG-20010904/DTD/svg10.dtd">
<svg version="1.0" xmlns="http://www.w3.org/2000/svg"
 width="192.000000pt" height="192.000000pt" viewBox="0 0 192.000000 192.000000"
 preserveAspectRatio="xMidYMid meet">
<metadata>
Created by potrace 1.16, written by Peter Selinger 2001-2019
</metadata>
<g transform="translate(0.000000,192.000000) scale(0.100000,-0.100000)"
fill="#000000" stroke="none">
811 c445 -92 729 -532 635 -987 -62 -301 -295 -546 -601 -630 -91 -26 -329
-26 -420 0 -291 80 -516 305 -596 596 -26 91 -26 329 0 420 120 433 542 692
982 601z"/>
<path d="M809 1355 c-182 -67 -297 -274 -259 -461 20 -99 49 -136 78 -101 8 9
7 25 -5 57 -25 67 -23 192 4 252 44 96 105 155 202 194 45 19 56 27 56 46 0
28 -25 33 -76 13z"/>
<path d="M1102 1337 c-12 -13 -22 -29 -22 -36 0 -8 -11 -24 -25 -37 -33 -31
-33 -77 0 -109 23 -24 30 -25 138 -25 100 0 117 3 141 21 20 16 26 29 26 58 0
36 -23 71 -46 71 -5 0 -14 10 -19 23 -6 14 -21 23 -40 25 -16 2 -38 10 -49 18
-31 22 -79 17 -104 -9z"/>
<path d="M927 1303 c-4 -3 -7 -59 -7 -123 0 -111 -1 -118 -25 -140 -17 -16
-25 -34 -25 -56 0 -28 -15 -45 -135 -153 -74 -67 -135 -126 -135 -130 0 -12
28 -33 39 -29 5 1 68 55 140 119 114 101 134 115 159 111 17 -2 38 0 48 6 15
8 37 -2 112 -50 90 -57 127 -68 127 -38 0 7 -44 41 -97 74 -85 53 -97 65 -98
89 0 16 -11 39 -25 53 -24 24 -25 31 -25 134 0 59 -3 115 -6 124 -6 16 -35 22
-47 9z"/>
<path d="M1299 1093 c-1 -5 -2 -53 -3 -108 -1 -92 -4 -106 -34 -167 -38 -77
-92 -130 -171 -167 -47 -22 -70 -26 -141 -26 -71 1 -95 5 -147 29 -64 29 -83
28 -83 -5 0 -15 17 -28 68 -52 61 -29 75 -32 162 -31 72 0 108 5 148 21 115
46 206 144 243 262 33 106 20 251 -21 251 -11 0 -21 -3 -21 -7z"/>
</g>
</svg>
