<?xml version="1.0" standalone="no"?>
<!DOCTYPE svg PUBLIC "-//W3C//DTD SVG 20010904//EN"
 "http://www.w3.org/TR/2001/REC-SVG-20010904/DTD/svg10.dtd">
<svg version="1.0" xmlns="http://www.w3.org/2000/svg"
 width="192.000000pt" height="192.000000pt" viewBox="0 0 192.000000 192.000000"
 preserveAspectRatio="xMidYMid meet">
<metadata>
Created by potrace 1.16, written by Peter Selinger 2001-2019
</metadata>
<g transform="translate(0.000000,192.000000) scale(0.100000,-0.100000)"
fill="#000000" stroke="none">
810 c245 -63 441 -223 549 -451 55 -116 75 -212 75 -354 0 -141 -20 -238 -75
-352 -86 -182 -215 -312 -396 -398 -116 -55 -212 -75 -354 -75 -142 0 -238 20
-354 75 -228 108 -388 304 -451 549 -28 110 -28 292 0 402 76 298 303 526 600
603 106 28 298 28 406 1z"/>
<path d="M773 1369 c-57 -17 -63 -37 -63 -199 l0 -146 33 -30 c83 -78 187
-154 210 -154 27 0 229 156 241 185 3 9 6 77 6 151 0 134 0 134 -29 166 l-29
33 -169 2 c-92 1 -182 -2 -200 -8z m277 -104 c24 -22 26 -48 5 -65 -13 -11
-23 -11 -54 0 -47 15 -79 6 -91 -26 -23 -60 34 -102 95 -70 43 23 69 18 73
-14 7 -64 -116 -105 -185 -61 -92 58 -94 178 -3 239 29 19 45 23 87 20 32 -3
61 -12 73 -23z"/>
<path d="M640 930 c-24 -24 -25 -43 -4 -64 22 -22 60 -20 78 5 16 23 12 47
-12 67 -22 17 -39 15 -62 -8z"/>
<path d="M1199 931 c-20 -16 -22 -23 -14 -47 18 -51 95 -42 95 12 0 25 -24 54
-45 54 -7 0 -23 -9 -36 -19z"/>
<path d="M644 792 c-18 -12 -25 -42 -14 -62 21 -39 82 -33 93 9 10 41 -43 78
-79 53z"/>
<path d="M776 779 c-21 -31 3 -79 41 -79 17 0 53 36 53 54 0 43 -68 61 -94 25z"/>
<path d="M910 780 c-24 -45 21 -92 66 -71 27 12 33 58 12 79 -20 20 -66 15
-78 -8z"/>
<path d="M1056 779 c-21 -31 3 -79 41 -79 17 0 53 36 53 54 0 43 -68 61 -94
25z"/>
<path d="M1191 781 c-17 -31 -13 -49 14 -67 31 -20 63 -10 71 23 9 35 -7 57
-44 61 -22 2 -34 -2 -41 -17z"/>
<path d="M758 649 c-21 -12 -24 -59 -6 -77 17 -17 389 -17 406 0 15 15 15 61
0 76 -15 15 -375 16 -400 1z"/>
</g>
</svg>
