<?xml version="1.0" standalone="no"?>
<!DOCTYPE svg PUBLIC "-//W3C//DTD SVG 20010904//EN"
 "http://www.w3.org/TR/2001/REC-SVG-20010904/DTD/svg10.dtd">
<svg version="1.0" xmlns="http://www.w3.org/2000/svg"
 width="192.000000pt" height="192.000000pt" viewBox="0 0 192.000000 192.000000"
 preserveAspectRatio="xMidYMid meet">
<metadata>
Created by potrace 1.16, written by Peter Selinger 2001-2019
</metadata>
<g transform="translate(0.000000,192.000000) scale(0.100000,-0.100000)"
fill="#000000" stroke="none">
811 c445 -92 729 -532 635 -987 -62 -301 -295 -546 -601 -630 -91 -26 -329
-26 -420 0 -291 80 -516 305 -596 596 -26 91 -26 329 0 420 120 433 542 692
982 601z"/>
<path d="M596 1048 c-10 -14 -16 -44 -16 -83 0 -89 15 -105 95 -105 55 0 66 3
75 21 19 34 9 64 -23 67 -22 3 -30 -1 -34 -18 -3 -12 -12 -20 -22 -18 -12 3
-16 15 -16 53 0 38 4 50 16 53 10 2 19 -6 22 -18 4 -17 12 -21 34 -18 32 3 42
33 23 67 -9 18 -20 21 -75 21 -55 0 -66 -3 -79 -22z"/>
<path d="M790 965 l0 -106 33 3 32 3 0 100 0 100 -32 3 -33 3 0 -106z"/>
<path d="M890 965 l0 -105 71 0 70 0 -3 28 c-2 22 -8 28 -35 30 -41 4 -43 22
-3 22 25 0 30 4 30 25 0 21 -5 25 -30 25 -40 0 -38 18 3 22 27 2 33 8 35 31
l3 27 -70 0 -71 0 0 -105z"/>
<path d="M1054 1057 c-3 -8 -4 -54 -2 -103 l3 -89 33 -3 32 -3 0 105 0 106
-30 0 c-17 0 -33 -6 -36 -13z"/>
<path d="M1154 1057 c-3 -8 -4 -54 -2 -103 l3 -89 65 -3 c94 -4 105 6 105 103
0 64 -3 79 -19 91 -26 19 -145 19 -152 1z m106 -92 c0 -38 -3 -45 -20 -45 -17
0 -20 7 -20 45 0 38 3 45 20 45 17 0 20 -7 20 -45z"/>
</g>
</svg>
