<?xml version="1.0" standalone="no"?>
<!DOCTYPE svg PUBLIC "-//W3C//DTD SVG 20010904//EN"
 "http://www.w3.org/TR/2001/REC-SVG-20010904/DTD/svg10.dtd">
<svg version="1.0" xmlns="http://www.w3.org/2000/svg"
 width="192.000000pt" height="192.000000pt" viewBox="0 0 192.000000 192.000000"
 preserveAspectRatio="xMidYMid meet">
<metadata>
Created by potrace 1.16, written by Peter Selinger 2001-2019
</metadata>
<g transform="translate(0.000000,192.000000) scale(0.100000,-0.100000)"
fill="#000000" stroke="none">
811 c445 -92 729 -532 635 -987 -62 -301 -295 -546 -601 -630 -91 -26 -329
-26 -420 0 -291 80 -516 305 -596 596 -26 91 -26 329 0 420 120 433 542 692
982 601z"/>
<path d="M865 1357 c-68 -23 -101 -44 -149 -98 -47 -52 -81 -135 -74 -181 l3
-23 330 -3 c182 -1 340 0 353 3 50 12 13 85 -44 85 -25 0 -32 6 -47 44 -44
107 -145 176 -265 182 -39 2 -84 -2 -107 -9z"/>
<path d="M610 988 c-27 -44 -25 -88 5 -132 14 -20 25 -43 25 -50 0 -7 -18 -25
-40 -40 -28 -19 -40 -33 -40 -51 0 -25 33 -55 60 -55 9 0 21 -15 29 -35 22
-61 41 -65 301 -65 251 0 275 4 298 55 8 17 12 85 12 194 0 231 33 211 -338
211 l-292 0 -20 -32z m148 -26 c18 -23 15 -66 -7 -86 -45 -41 -123 11 -102 67
18 46 79 57 109 19z m106 -201 c56 -12 21 -25 -59 -23 -73 3 -107 -3 -157 -23
-13 -5 -18 -2 -18 9 0 14 18 21 95 39 29 7 105 6 139 -2z"/>
<path d="M684 936 c-8 -21 3 -36 27 -36 15 0 20 6 17 22 -4 27 -35 37 -44 14z"/>
</g>
</svg>
