<?xml version="1.0" standalone="no"?>
<!DOCTYPE svg PUBLIC "-//W3C//DTD SVG 20010904//EN"
 "http://www.w3.org/TR/2001/REC-SVG-20010904/DTD/svg10.dtd">
<svg version="1.0" xmlns="http://www.w3.org/2000/svg"
 width="192.000000pt" height="192.000000pt" viewBox="0 0 192.000000 192.000000"
 preserveAspectRatio="xMidYMid meet">
<metadata>
Created by potrace 1.16, written by Peter Selinger 2001-2019
</metadata>
<g transform="translate(0.000000,192.000000) scale(0.100000,-0.100000)"
fill="#000000" stroke="none">
811 c445 -92 729 -532 635 -987 -62 -301 -295 -546 -601 -630 -91 -26 -329
-26 -420 0 -291 80 -516 305 -596 596 -26 91 -26 329 0 420 120 433 542 692
982 601z"/>
<path d="M590 1320 c-11 -11 -20 -30 -20 -43 0 -13 32 -67 73 -122 40 -55 88
-121 106 -147 l33 -47 -106 -147 c-58 -80 -106 -155 -106 -166 0 -10 11 -30
25 -44 l25 -25 243 3 c232 3 244 4 279 26 21 13 82 83 147 168 145 191 145
179 15 351 -121 160 -131 171 -176 194 -34 17 -61 19 -278 19 -227 0 -241 -1
-260 -20z"/>
</g>
</svg>
