<?xml version="1.0" standalone="no"?>
<!DOCTYPE svg PUBLIC "-//W3C//DTD SVG 20010904//EN"
 "http://www.w3.org/TR/2001/REC-SVG-20010904/DTD/svg10.dtd">
<svg version="1.0" xmlns="http://www.w3.org/2000/svg"
 width="192.000000pt" height="192.000000pt" viewBox="0 0 192.000000 192.000000"
 preserveAspectRatio="xMidYMid meet">
<metadata>
Created by potrace 1.16, written by Peter Selinger 2001-2019
</metadata>
<g transform="translate(0.000000,192.000000) scale(0.100000,-0.100000)"
fill="#000000" stroke="none">
811 c445 -92 729 -532 635 -987 -62 -301 -295 -546 -601 -630 -91 -26 -329
-26 -420 0 -291 80 -516 305 -596 596 -26 91 -26 329 0 420 120 433 542 692
982 601z"/>
<path d="M850 1352 c-109 -37 -201 -117 -248 -220 -35 -76 -42 -205 -17 -283
95 -289 435 -382 658 -181 28 27 37 42 37 67 0 47 -8 64 -42 81 -36 18 -78 11
-104 -18 -11 -11 -36 -29 -57 -40 -115 -58 -253 -13 -311 104 -108 216 156
439 344 289 60 -48 77 -54 116 -41 43 15 69 64 55 103 -15 38 -69 84 -140 119
-54 27 -77 32 -150 35 -63 2 -101 -2 -141 -15z"/>
</g>
</svg>
