<?xml version="1.0" standalone="no"?>
<!DOCTYPE svg PUBLIC "-//W3C//DTD SVG 20010904//EN"
 "http://www.w3.org/TR/2001/REC-SVG-20010904/DTD/svg10.dtd">
<svg version="1.0" xmlns="http://www.w3.org/2000/svg"
 width="192.000000pt" height="192.000000pt" viewBox="0 0 192.000000 192.000000"
 preserveAspectRatio="xMidYMid meet">
<metadata>
Created by potrace 1.16, written by Peter Selinger 2001-2019
</metadata>
<g transform="translate(0.000000,192.000000) scale(0.100000,-0.100000)"
fill="#000000" stroke="none">
811 c445 -92 729 -532 635 -987 -62 -301 -295 -546 -601 -630 -91 -26 -329
-26 -420 0 -291 80 -516 305 -596 596 -26 91 -26 329 0 420 120 433 542 692
982 601z"/>
<path d="M744 1331 c-36 -22 -200 -294 -210 -349 -7 -37 9 -72 119 -258 82
-137 92 -144 237 -144 130 0 140 5 140 73 0 29 -5 58 -12 65 -7 7 -45 12 -98
12 -77 0 -89 2 -107 23 -22 24 -123 199 -123 213 0 14 112 209 128 222 10 7
48 12 102 12 54 0 91 5 98 12 7 7 12 35 12 63 0 28 -5 56 -12 63 -8 8 -51 12
-128 12 -95 0 -120 -3 -146 -19z"/>
<path d="M1072 1338 c-7 -7 -12 -36 -12 -65 0 -44 5 -58 23 -76 25 -23 137
-211 137 -230 0 -19 -109 -203 -135 -227 -44 -41 -30 -161 18 -160 7 0 30 9
52 19 35 16 50 36 130 172 72 123 90 162 90 194 0 32 -17 69 -89 194 -92 158
-122 191 -176 191 -15 0 -31 -5 -38 -12z"/>
<path d="M882 1074 c-20 -14 -22 -24 -22 -100 0 -47 5 -94 10 -105 16 -30 57
-23 137 23 110 63 109 88 -10 156 -41 23 -79 42 -84 42 -5 0 -19 -7 -31 -16z"/>
</g>
</svg>
