<?xml version="1.0" standalone="no"?>
<!DOCTYPE svg PUBLIC "-//W3C//DTD SVG 20010904//EN"
 "http://www.w3.org/TR/2001/REC-SVG-20010904/DTD/svg10.dtd">
<svg version="1.0" xmlns="http://www.w3.org/2000/svg"
 width="192.000000pt" height="192.000000pt" viewBox="0 0 192.000000 192.000000"
 preserveAspectRatio="xMidYMid meet">
<metadata>
Created by potrace 1.16, written by Peter Selinger 2001-2019
</metadata>
<g transform="translate(0.000000,192.000000) scale(0.100000,-0.100000)"
fill="#000000" stroke="none">
811 c445 -92 729 -532 635 -987 -62 -301 -295 -546 -601 -630 -91 -26 -329
-26 -420 0 -291 80 -516 305 -596 596 -26 91 -26 329 0 420 120 433 542 692
982 601z"/>
<path d="M820 1350 c-70 -26 -95 -50 -86 -84 30 -120 458 -294 575 -233 41 21
43 49 11 114 -27 54 -140 180 -127 141 16 -44 -67 -44 -148 1 -57 31 -77 57
-55 71 29 19 -113 10 -170 -10z"/>
<path d="M648 1232 c-46 -51 -78 -112 -78 -150 0 -86 199 -217 435 -287 122
-36 260 -40 302 -9 34 26 51 78 52 162 l1 63 -29 -22 c-27 -20 -38 -21 -118
-16 -212 13 -500 160 -521 266 l-7 34 -37 -41z"/>
<path d="M552 940 c5 -107 42 -192 114 -263 164 -162 416 -162 575 0 51 51 52
54 24 46 -125 -34 -402 41 -578 157 -78 51 -97 69 -122 115 -16 29 -16 28 -13
-55z"/>
</g>
</svg>
