<?xml version="1.0" standalone="no"?>
<!DOCTYPE svg PUBLIC "-//W3C//DTD SVG 20010904//EN"
 "http://www.w3.org/TR/2001/REC-SVG-20010904/DTD/svg10.dtd">
<svg version="1.0" xmlns="http://www.w3.org/2000/svg"
 width="192.000000pt" height="192.000000pt" viewBox="0 0 192.000000 192.000000"
 preserveAspectRatio="xMidYMid meet">
<metadata>
Created by potrace 1.16, written by Peter Selinger 2001-2019
</metadata>
<g transform="translate(0.000000,192.000000) scale(0.100000,-0.100000)"
fill="#000000" stroke="none">
810 c245 -63 441 -223 549 -451 55 -116 75 -212 75 -354 0 -141 -20 -238 -75
-352 -86 -182 -215 -312 -396 -398 -116 -55 -212 -75 -354 -75 -142 0 -238 20
-354 75 -228 108 -388 304 -451 549 -28 110 -28 292 0 402 76 298 303 526 600
603 106 28 298 28 406 1z"/>
<path d="M813 1356 c-191 -62 -311 -251 -283 -447 38 -266 331 -425 573 -311
135 63 184 157 116 221 -46 43 -80 38 -169 -24 -54 -37 -148 -47 -201 -20 -86
44 -138 134 -125 218 20 124 142 207 258 177 24 -7 63 -27 87 -46 59 -45 110
-47 152 -5 46 46 41 93 -15 146 -24 23 -70 55 -102 71 -50 24 -72 29 -154 31
-60 2 -110 -2 -137 -11z"/>
</g>
</svg>
