<?xml version="1.0" standalone="no"?>
<!DOCTYPE svg PUBLIC "-//W3C//DTD SVG 20010904//EN"
 "http://www.w3.org/TR/2001/REC-SVG-20010904/DTD/svg10.dtd">
<svg version="1.0" xmlns="http://www.w3.org/2000/svg"
 width="192.000000pt" height="192.000000pt" viewBox="0 0 192.000000 192.000000"
 preserveAspectRatio="xMidYMid meet">
<metadata>
Created by potrace 1.16, written by Peter Selinger 2001-2019
</metadata>
<g transform="translate(0.000000,192.000000) scale(0.100000,-0.100000)"
fill="#000000" stroke="none">
811 c445 -92 729 -532 635 -987 -62 -301 -295 -546 -601 -630 -91 -26 -329
-26 -420 0 -291 80 -516 305 -596 596 -26 91 -26 329 0 420 120 433 542 692
982 601z"/>
<path d="M637 1236 c-199 -71 -260 -323 -113 -469 38 -38 92 -69 139 -81 l27
-6 0 78 c0 74 -1 79 -25 90 -35 16 -65 70 -65 117 0 47 30 101 65 117 24 11
25 16 25 90 0 43 -3 78 -7 78 -5 -1 -25 -7 -46 -14z"/>
<path d="M1210 1172 c0 -69 3 -81 18 -86 10 -4 32 -20 48 -37 25 -26 29 -38
29 -84 0 -46 -4 -58 -29 -84 -16 -17 -38 -33 -48 -37 -15 -5 -18 -17 -18 -86
l0 -80 28 7 c91 22 178 98 206 182 56 164 -40 338 -206 378 l-28 7 0 -80z"/>
<path d="M893 1084 c-92 -46 -97 -179 -10 -233 110 -68 249 55 190 169 -36 70
-112 97 -180 64z"/>
</g>
</svg>
