<?xml version="1.0" standalone="no"?>
<!DOCTYPE svg PUBLIC "-//W3C//DTD SVG 20010904//EN"
 "http://www.w3.org/TR/2001/REC-SVG-20010904/DTD/svg10.dtd">
<svg version="1.0" xmlns="http://www.w3.org/2000/svg"
 width="192.000000pt" height="192.000000pt" viewBox="0 0 192.000000 192.000000"
 preserveAspectRatio="xMidYMid meet">
<metadata>
Created by potrace 1.16, written by Peter Selinger 2001-2019
</metadata>
<g transform="translate(0.000000,192.000000) scale(0.100000,-0.100000)"
fill="#000000" stroke="none">
811 c445 -92 729 -532 635 -987 -62 -301 -295 -546 -601 -630 -91 -26 -329
-26 -420 0 -291 80 -516 305 -596 596 -26 91 -26 329 0 420 120 433 542 692
982 601z"/>
<path d="M953 1289 c-29 -11 -73 -39 -99 -63 -42 -38 -46 -44 -35 -64 16 -30
29 -28 89 18 115 86 246 82 364 -12 44 -34 70 -31 76 10 4 26 -70 83 -146 112
-70 27 -178 26 -249 -1z"/>
<path d="M1092 1168 c-7 -7 -12 -29 -12 -49 0 -34 -3 -38 -27 -41 -24 -3 -28
-8 -28 -33 0 -25 4 -30 28 -33 l27 -3 0 -120 c0 -139 12 -179 58 -198 24 -10
39 -10 66 -1 51 17 46 54 -10 69 l-29 7 -3 122 -3 121 33 3 c29 3 33 6 33 33
0 27 -4 30 -32 33 -31 3 -33 6 -33 41 0 40 -14 61 -40 61 -9 0 -21 -5 -28 -12z"/>
<path d="M620 1075 c-74 -34 -111 -95 -111 -186 -1 -104 46 -172 138 -199 94
-28 216 42 158 90 -13 11 -22 10 -51 -3 -41 -20 -73 -21 -108 -5 -78 35 -86
174 -12 219 38 23 94 25 124 4 28 -20 65 -4 60 27 -8 54 -125 85 -198 53z"/>
<path d="M887 1073 c-10 -17 -17 -221 -10 -298 7 -71 10 -80 29 -83 40 -6 45
15 42 204 l-3 179 -27 3 c-14 2 -28 0 -31 -5z"/>
<path d="M1315 1058 c-3 -13 -4 -97 -3 -187 3 -143 5 -165 21 -175 12 -8 22
-8 35 0 15 10 17 32 20 175 3 199 1 209 -38 209 -22 0 -31 -5 -35 -22z"/>
</g>
</svg>
