<?xml version="1.0" standalone="no"?>
<!DOCTYPE svg PUBLIC "-//W3C//DTD SVG 20010904//EN"
 "http://www.w3.org/TR/2001/REC-SVG-20010904/DTD/svg10.dtd">
<svg version="1.0" xmlns="http://www.w3.org/2000/svg"
 width="192.000000pt" height="192.000000pt" viewBox="0 0 192.000000 192.000000"
 preserveAspectRatio="xMidYMid meet">
<metadata>
Created by potrace 1.16, written by Peter Selinger 2001-2019
</metadata>
<g transform="translate(0.000000,192.000000) scale(0.100000,-0.100000)"
fill="#000000" stroke="none">
811 c445 -92 729 -532 635 -987 -62 -301 -295 -546 -601 -630 -91 -26 -329
-26 -420 0 -291 80 -516 305 -596 596 -26 91 -26 329 0 420 120 433 542 692
982 601z"/>
<path d="M928 1174 c-36 -19 -45 -57 -25 -100 l17 -34 -74 0 c-88 0 -126 -22
-126 -71 0 -65 39 -89 142 -89 59 0 59 0 44 -22 -23 -32 -20 -65 9 -93 46 -47
76 -36 182 67 51 51 96 102 99 114 8 33 -17 71 -98 150 -100 98 -119 106 -170
78z"/>
<path d="M572 1033 c-15 -6 -42 -56 -42 -78 0 -25 55 -75 83 -75 42 0 77 36
77 80 0 30 -6 43 -26 59 -25 20 -63 26 -92 14z"/>
<path d="M1245 1015 c-16 -15 -25 -36 -25 -55 0 -19 9 -40 25 -55 49 -50 135
-15 135 55 0 19 -9 40 -25 55 -15 16 -36 25 -55 25 -19 0 -40 -9 -55 -25z"/>
</g>
</svg>
