<?xml version="1.0" standalone="no"?>
<!DOCTYPE svg PUBLIC "-//W3C//DTD SVG 20010904//EN"
 "http://www.w3.org/TR/2001/REC-SVG-20010904/DTD/svg10.dtd">
<svg version="1.0" xmlns="http://www.w3.org/2000/svg"
 width="192.000000pt" height="192.000000pt" viewBox="0 0 192.000000 192.000000"
 preserveAspectRatio="xMidYMid meet">
<metadata>
Created by potrace 1.16, written by Peter Selinger 2001-2019
</metadata>
<g transform="translate(0.000000,192.000000) scale(0.100000,-0.100000)"
fill="#000000" stroke="none">
811 c445 -92 729 -532 635 -987 -62 -301 -295 -546 -601 -630 -91 -26 -329
-26 -420 0 -291 80 -516 305 -596 596 -26 91 -26 329 0 420 120 433 542 692
982 601z"/>
<path d="M880 1329 c-122 -20 -252 -114 -306 -221 -42 -83 -54 -136 -54 -245
0 -98 1 -103 25 -119 23 -15 27 -15 51 0 25 17 25 18 23 149 -2 120 0 136 20
175 104 203 379 253 546 100 31 -28 68 -74 82 -101 23 -47 25 -60 24 -178 -2
-119 0 -128 19 -142 28 -19 59 -10 71 20 5 13 9 61 9 107 0 91 -28 191 -72
262 -37 58 -121 132 -181 159 -45 21 -161 47 -192 44 -5 -1 -35 -5 -65 -10z"/>
<path d="M859 1187 c-83 -31 -141 -82 -181 -157 -32 -63 -33 -205 -1 -265 108
-204 382 -228 520 -47 114 150 58 369 -116 454 -56 27 -168 35 -222 15z m58
-123 c7 -20 -94 -125 -113 -117 -24 9 -16 26 38 80 56 57 65 62 75 37z m32
-153 c8 -5 11 -16 8 -25 -9 -23 -155 -23 -164 0 -3 9 0 20 8 25 18 11 130 11
148 0z m-77 -118 c49 -49 62 -83 30 -83 -26 0 -116 95 -109 114 10 26 29 19
79 -31z"/>
</g>
</svg>
