<?xml version="1.0" standalone="no"?>
<!DOCTYPE svg PUBLIC "-//W3C//DTD SVG 20010904//EN"
 "http://www.w3.org/TR/2001/REC-SVG-20010904/DTD/svg10.dtd">
<svg version="1.0" xmlns="http://www.w3.org/2000/svg"
 width="192.000000pt" height="192.000000pt" viewBox="0 0 192.000000 192.000000"
 preserveAspectRatio="xMidYMid meet">
<metadata>
Created by potrace 1.16, written by Peter Selinger 2001-2019
</metadata>
<g transform="translate(0.000000,192.000000) scale(0.100000,-0.100000)"
fill="#000000" stroke="none">
811 c445 -92 729 -532 635 -987 -62 -301 -295 -546 -601 -630 -91 -26 -329
-26 -420 0 -291 80 -516 305 -596 596 -26 91 -26 329 0 420 120 433 542 692
982 601z"/>
<path d="M707 1325 c-93 -33 -126 -97 -127 -242 l0 -103 375 0 375 0 0 91 c0
51 -6 110 -12 133 -16 52 -72 108 -124 124 -60 17 -436 16 -487 -3z m413 -84
c0 -17 -4 -33 -10 -36 -6 -4 -10 8 -10 29 0 20 5 36 10 36 6 0 10 -13 10 -29z
m100 1 c0 -14 -56 -63 -63 -55 -4 3 5 19 20 35 27 28 43 35 43 20z m-419 -51
c13 -11 21 -23 16 -27 -4 -4 -13 -2 -19 4 -28 28 -84 3 -76 -34 5 -29 33 -40
62 -24 30 16 45 7 26 -15 -16 -20 -74 -19 -94 1 -24 24 -20 80 6 98 30 21 51
20 79 -3z m59 -52 c0 -44 -4 -68 -10 -64 -5 3 -10 35 -10 71 0 36 4 64 10 64
6 0 10 -30 10 -71z m105 -14 c0 -46 -2 -50 -25 -50 -61 0 -82 39 -30 58 36 14
40 32 5 23 -14 -4 -25 -3 -25 2 0 16 14 23 45 20 29 -3 30 -5 30 -53z m85 46
c2 -1 -6 -8 -18 -17 -15 -11 -22 -25 -22 -50 0 -19 -4 -34 -10 -34 -5 0 -10
24 -10 54 0 59 -4 56 60 47z m95 -11 c37 -41 -14 -107 -64 -81 -30 16 -38 57
-16 81 23 25 57 25 80 0z m95 -20 c0 -5 -13 -10 -30 -10 -16 0 -30 5 -30 10 0
6 14 10 30 10 17 0 30 -4 30 -10z"/>
<path d="M910 1104 c0 -9 5 -14 12 -12 18 6 21 28 4 28 -9 0 -16 -7 -16 -16z"/>
<path d="M1092 1151 c-20 -12 -10 -46 13 -46 14 0 20 7 20 24 0 27 -13 35 -33
22z"/>
<path d="M580 848 c0 -118 16 -166 69 -211 49 -40 90 -47 305 -47 226 0 263 7
316 60 46 46 60 96 60 209 l0 91 -375 0 -375 0 0 -102z m260 17 c0 -8 -7 -15
-15 -15 -8 0 -15 7 -15 15 0 8 7 15 15 15 8 0 15 -7 15 -15z m130 -76 l0 -80
-47 3 -48 3 -3 43 c-4 51 12 75 45 69 18 -3 23 0 23 18 0 12 3 25 6 28 17 16
24 -10 24 -84z m-244 0 l12 -34 11 28 c6 16 11 33 11 38 0 5 7 9 16 9 12 0 15
-6 10 -23 -12 -48 -37 -97 -49 -97 -12 0 -47 80 -47 108 0 25 24 6 36 -29z
m114 -19 c0 -47 -3 -60 -15 -60 -12 0 -15 13 -15 60 0 47 3 60 15 60 12 0 15
-13 15 -60z m248 48 c7 -7 12 -22 12 -35 0 -20 -5 -23 -36 -23 -24 0 -34 -4
-31 -12 2 -7 16 -12 31 -11 30 2 36 -22 7 -30 -36 -9 -66 15 -69 56 -2 21 2
45 9 53 14 17 61 18 77 2z m126 -4 c19 -19 21 -64 4 -86 -31 -38 -83 -26 -93
22 -13 61 48 105 89 64z"/>
<path d="M902 768 c2 -21 8 -33 18 -33 10 0 16 12 18 33 3 27 0 32 -18 32 -18
0 -21 -5 -18 -32z"/>
<path d="M1037 804 c-13 -13 -7 -24 14 -24 11 0 19 5 17 12 -5 14 -22 21 -31
12z"/>
<path d="M1155 779 c-9 -27 19 -59 36 -42 15 15 7 57 -13 61 -10 2 -19 -6 -23
-19z"/>
</g>
</svg>
