<?xml version="1.0" standalone="no"?>
<!DOCTYPE svg PUBLIC "-//W3C//DTD SVG 20010904//EN"
 "http://www.w3.org/TR/2001/REC-SVG-20010904/DTD/svg10.dtd">
<svg version="1.0" xmlns="http://www.w3.org/2000/svg"
 width="192.000000pt" height="192.000000pt" viewBox="0 0 192.000000 192.000000"
 preserveAspectRatio="xMidYMid meet">
<metadata>
Created by potrace 1.16, written by Peter Selinger 2001-2019
</metadata>
<g transform="translate(0.000000,192.000000) scale(0.100000,-0.100000)"
fill="#000000" stroke="none">
811 c445 -92 729 -532 635 -987 -62 -301 -295 -546 -601 -630 -91 -26 -329
-26 -420 0 -291 80 -516 305 -596 596 -26 91 -26 329 0 420 120 433 542 692
982 601z"/>
<path d="M890 1371 c-31 -5 -35 -10 -35 -36 l0 -30 75 -6 c124 -9 197 -42 263
-120 94 -109 102 -299 18 -408 l-18 -24 -22 63 -21 64 20 41 c11 23 36 60 55
82 l35 41 -35 12 c-19 6 -35 16 -35 21 0 5 -16 -6 -35 -26 -20 -19 -40 -35
-45 -35 -4 0 -12 15 -15 33 -11 49 -22 57 -79 57 -95 0 -218 -44 -290 -103
l-29 -24 16 -48 17 -48 -50 5 c-36 4 -50 1 -50 -7 0 -7 -7 -18 -15 -25 -25
-21 -17 -37 22 -45 55 -10 133 -53 142 -78 5 -12 12 -32 16 -45 7 -23 7 -23
-25 -7 -17 9 -49 34 -71 56 -44 44 -84 52 -94 18 -11 -34 59 -103 150 -149 89
-45 167 -56 261 -36 309 63 436 418 237 663 -83 102 -242 166 -363 144z m110
-351 c0 -5 -4 -10 -10 -10 -5 0 -10 5 -10 10 0 6 5 10 10 10 6 0 10 -4 10 -10z
m-173 -66 c-9 -9 -28 6 -21 18 4 6 10 6 17 -1 6 -6 8 -13 4 -17z m223 -3 c17
-33 12 -51 -15 -51 -14 0 -25 -4 -25 -10 0 -18 -35 -45 -53 -42 -9 2 -17 -1
-17 -7 0 -11 -39 -9 -58 3 -7 4 -19 2 -27 -4 -20 -17 -45 4 -45 36 0 29 27 44
78 44 25 0 51 9 73 24 42 30 75 32 89 7z"/>
<path d="M712 1318 c-8 -11 -6 -21 8 -43 24 -36 26 -71 5 -79 -14 -5 -55 -63
-55 -78 0 -5 22 8 50 28 63 45 143 73 239 83 l76 8 -36 16 c-26 12 -51 15 -88
10 -47 -5 -56 -3 -95 25 -52 38 -88 48 -104 30z"/>
<path d="M865 1195 c-27 -8 -53 -14 -57 -15 -4 0 -35 -20 -70 -43 -60 -42 -67
-44 -120 -39 -31 2 -58 0 -62 -6 -7 -12 42 -62 62 -62 12 0 9 -7 -10 -27 -32
-36 -41 -60 -23 -67 28 -10 79 14 131 64 30 28 78 62 108 75 68 30 169 49 220
41 38 -7 38 -6 31 21 -15 62 -30 73 -98 72 -34 0 -84 -7 -112 -14z"/>
</g>
</svg>
