<?xml version="1.0" standalone="no"?>
<!DOCTYPE svg PUBLIC "-//W3C//DTD SVG 20010904//EN"
 "http://www.w3.org/TR/2001/REC-SVG-20010904/DTD/svg10.dtd">
<svg version="1.0" xmlns="http://www.w3.org/2000/svg"
 width="192.000000pt" height="192.000000pt" viewBox="0 0 192.000000 192.000000"
 preserveAspectRatio="xMidYMid meet">
<metadata>
Created by potrace 1.16, written by Peter Selinger 2001-2019
</metadata>
<g transform="translate(0.000000,192.000000) scale(0.100000,-0.100000)"
fill="#000000" stroke="none">
811 c445 -92 729 -532 635 -987 -62 -301 -295 -546 -601 -630 -91 -26 -329
-26 -420 0 -291 80 -516 305 -596 596 -26 91 -26 329 0 420 120 433 542 692
982 601z"/>
<path d="M645 1354 l-25 -27 0 -227 c0 -206 2 -230 18 -251 12 -14 25 -20 35
-16 14 5 17 23 17 116 0 78 4 110 13 114 6 2 54 -12 105 -31 80 -31 97 -34
123 -25 17 7 31 7 35 2 10 -16 48 -9 135 25 117 46 119 44 119 -94 0 -60 4
-111 9 -114 5 -3 18 2 30 12 21 16 22 26 24 255 l2 239 -28 24 -28 24 -280 0
-280 0 -24 -26z"/>
<path d="M753 900 c-18 -11 -35 -30 -38 -42 -3 -13 -4 -86 -3 -163 l3 -140 41
-3 c64 -5 78 18 82 139 l4 100 111 -3 112 -3 5 -103 c6 -116 15 -132 77 -132
46 0 53 20 53 157 0 131 -14 177 -60 200 -17 9 -78 13 -190 13 -147 0 -169 -2
-197 -20z"/>
<path d="M874 736 c-3 -8 -4 -27 -2 -43 3 -27 5 -28 66 -31 69 -3 92 7 92 42
0 36 -20 46 -87 46 -46 0 -65 -4 -69 -14z"/>
</g>
</svg>
