<?xml version="1.0" standalone="no"?>
<!DOCTYPE svg PUBLIC "-//W3C//DTD SVG 20010904//EN"
 "http://www.w3.org/TR/2001/REC-SVG-20010904/DTD/svg10.dtd">
<svg version="1.0" xmlns="http://www.w3.org/2000/svg"
 width="192.000000pt" height="192.000000pt" viewBox="0 0 192.000000 192.000000"
 preserveAspectRatio="xMidYMid meet">
<metadata>
Created by potrace 1.16, written by Peter Selinger 2001-2019
</metadata>
<g transform="translate(0.000000,192.000000) scale(0.100000,-0.100000)"
fill="#000000" stroke="none">
811 c445 -92 729 -532 635 -987 -62 -301 -295 -546 -601 -630 -91 -26 -329
-26 -420 0 -291 80 -516 305 -596 596 -26 91 -26 329 0 420 120 433 542 692
982 601z"/>
<path d="M900 1325 c-19 -21 -22 -31 -16 -71 5 -43 2 -52 -50 -140 -31 -52
-60 -97 -65 -100 -4 -2 -30 9 -57 26 -37 22 -51 38 -56 61 -7 39 -55 62 -99
47 -58 -21 -66 -115 -12 -140 19 -9 29 -32 56 -131 18 -67 41 -129 51 -139 16
-16 43 -18 306 -18 263 0 290 2 305 18 8 9 30 72 48 140 20 75 37 122 45 122
7 0 22 12 34 27 39 50 5 123 -59 125 -36 1 -78 -32 -83 -65 -3 -17 -76 -73
-100 -76 -4 -1 -34 44 -68 100 -54 90 -60 104 -52 132 10 38 6 54 -21 85 -28
30 -77 29 -107 -3z"/>
<path d="M639 649 c-8 -16 -8 -28 0 -45 l11 -24 303 0 c318 0 327 1 327 45 0
44 -9 45 -327 45 -298 0 -302 0 -314 -21z"/>
</g>
</svg>
