<?xml version="1.0" standalone="no"?>
<!DOCTYPE svg PUBLIC "-//W3C//DTD SVG 20010904//EN"
 "http://www.w3.org/TR/2001/REC-SVG-20010904/DTD/svg10.dtd">
<svg version="1.0" xmlns="http://www.w3.org/2000/svg"
 width="192.000000pt" height="192.000000pt" viewBox="0 0 192.000000 192.000000"
 preserveAspectRatio="xMidYMid meet">
<metadata>
Created by potrace 1.16, written by Peter Selinger 2001-2019
</metadata>
<g transform="translate(0.000000,192.000000) scale(0.100000,-0.100000)"
fill="#000000" stroke="none">
811 c445 -92 729 -532 635 -987 -62 -301 -295 -546 -601 -630 -91 -26 -329
-26 -420 0 -291 80 -516 305 -596 596 -26 91 -26 329 0 420 120 433 542 692
982 601z"/>
<path d="M695 1321 c-46 -21 -101 -79 -112 -119 -5 -15 -8 -126 -8 -248 l0
-221 30 -48 c20 -32 45 -56 74 -72 42 -22 53 -23 270 -23 198 0 231 3 266 19
50 22 91 69 105 119 15 57 13 327 -3 341 -18 14 -166 -116 -332 -292 -124
-132 -145 -145 -181 -109 -19 18 -119 225 -130 266 -11 44 4 76 41 92 75 31
101 15 125 -81 7 -27 16 -53 19 -57 4 -4 40 22 81 58 63 54 202 163 336 260
28 21 28 23 14 50 -9 16 -39 40 -69 56 l-53 28 -217 0 c-187 0 -221 -3 -256
-19z"/>
</g>
</svg>
