<?xml version="1.0" standalone="no"?>
<!DOCTYPE svg PUBLIC "-//W3C//DTD SVG 20010904//EN"
 "http://www.w3.org/TR/2001/REC-SVG-20010904/DTD/svg10.dtd">
<svg version="1.0" xmlns="http://www.w3.org/2000/svg"
 width="192.000000pt" height="192.000000pt" viewBox="0 0 192.000000 192.000000"
 preserveAspectRatio="xMidYMid meet">
<metadata>
Created by potrace 1.16, written by Peter Selinger 2001-2019
</metadata>
<g transform="translate(0.000000,192.000000) scale(0.100000,-0.100000)"
fill="#000000" stroke="none">
811 c445 -92 729 -532 635 -987 -62 -301 -295 -546 -601 -630 -91 -26 -329
-26 -420 0 -291 80 -516 305 -596 596 -26 91 -26 329 0 420 120 433 542 692
982 601z"/>
<path d="M784 1362 c-26 -18 -31 -44 -18 -115 19 -105 18 -117 -8 -117 -39 -1
-103 -36 -135 -75 -34 -40 -53 -100 -53 -164 0 -76 -19 -71 285 -71 150 0 280
-3 289 -6 9 -3 16 -15 16 -25 0 -18 -12 -19 -278 -19 -216 0 -282 -3 -296 -13
-16 -12 -18 -24 -14 -82 4 -59 8 -71 32 -91 l27 -24 343 0 c301 0 345 2 357
16 19 23 -1 48 -42 52 -57 6 -59 12 -59 158 0 162 -11 219 -52 269 -33 39 -96
74 -135 75 -27 0 -27 6 -9 110 14 79 9 113 -19 124 -23 8 -218 7 -231 -2z"/>
</g>
</svg>
