<?xml version="1.0" standalone="no"?>
<!DOCTYPE svg PUBLIC "-//W3C//DTD SVG 20010904//EN"
 "http://www.w3.org/TR/2001/REC-SVG-20010904/DTD/svg10.dtd">
<svg version="1.0" xmlns="http://www.w3.org/2000/svg"
 width="192.000000pt" height="192.000000pt" viewBox="0 0 192.000000 192.000000"
 preserveAspectRatio="xMidYMid meet">
<metadata>
Created by potrace 1.16, written by Peter Selinger 2001-2019
</metadata>
<g transform="translate(0.000000,192.000000) scale(0.100000,-0.100000)"
fill="#000000" stroke="none">
811 c445 -92 729 -532 635 -987 -62 -301 -295 -546 -601 -630 -91 -26 -329
-26 -420 0 -291 80 -516 305 -596 596 -26 91 -26 329 0 420 120 433 542 692
982 601z"/>
<path d="M1164 1340 c-11 -4 -43 -31 -70 -59 -27 -28 -56 -51 -64 -51 -8 0
-27 14 -41 31 l-25 31 -36 -31 c-44 -38 -60 -39 -88 -3 -36 46 -91 82 -126 82
-28 0 -37 -6 -58 -42 -35 -60 -57 -151 -56 -233 1 -38 -3 -86 -9 -105 -6 -19
-11 -56 -11 -82 0 -37 -5 -53 -25 -72 -22 -22 -23 -28 -13 -58 15 -42 25 -50
124 -99 114 -56 227 -76 351 -60 101 12 200 45 280 93 74 45 96 110 45 133
-16 7 -22 19 -23 45 0 19 -4 100 -7 180 -6 130 -10 151 -34 200 -27 53 -71
111 -86 109 -4 0 -16 -4 -28 -9z m-324 -280 c26 -26 25 -58 -2 -87 -27 -29
-65 -29 -95 -1 -44 41 -15 108 47 108 17 0 39 -9 50 -20z m322 3 c24 -21 23
-68 -2 -93 -41 -41 -112 -13 -112 45 0 56 72 87 114 48z"/>
</g>
</svg>
