<?xml version="1.0" standalone="no"?>
<!DOCTYPE svg PUBLIC "-//W3C//DTD SVG 20010904//EN"
 "http://www.w3.org/TR/2001/REC-SVG-20010904/DTD/svg10.dtd">
<svg version="1.0" xmlns="http://www.w3.org/2000/svg"
 width="192.000000pt" height="192.000000pt" viewBox="0 0 192.000000 192.000000"
 preserveAspectRatio="xMidYMid meet">
<metadata>
Created by potrace 1.16, written by Peter Selinger 2001-2019
</metadata>
<g transform="translate(0.000000,192.000000) scale(0.100000,-0.100000)"
fill="#000000" stroke="none">
811 c445 -92 729 -532 635 -987 -62 -301 -295 -546 -601 -630 -91 -26 -329
-26 -420 0 -291 80 -516 305 -596 596 -26 91 -26 329 0 420 120 433 542 692
982 601z"/>
<path d="M699 1297 c-29 -16 -54 -40 -74 -72 l-30 -48 0 -231 c0 -207 2 -235
19 -266 51 -97 85 -110 280 -110 l156 0 -10 26 c-38 99 33 234 137 263 51 14
73 14 123 -4 23 -8 44 -15 46 -15 9 0 3 298 -6 331 -15 54 -51 101 -95 126
-38 22 -50 23 -271 23 -223 0 -232 -1 -275 -23z m129 -140 c3 -35 5 -37 38
-37 27 0 34 -4 34 -20 0 -16 -7 -20 -35 -20 -33 0 -35 -2 -35 -35 0 -31 -3
-35 -25 -35 -22 0 -25 4 -25 35 0 33 -2 35 -35 35 -28 0 -35 4 -35 20 0 16 7
20 35 20 33 0 35 2 35 33 0 38 7 49 30 45 9 -2 16 -16 18 -41z m402 -57 c0
-19 -7 -20 -95 -20 -88 0 -95 1 -95 20 0 19 7 20 95 20 88 0 95 -1 95 -20z
m-455 -270 c10 -11 23 -20 30 -20 7 0 20 9 30 20 22 24 34 25 42 4 3 -8 -4
-25 -17 -40 l-23 -24 21 -23 c12 -13 22 -28 22 -34 0 -20 -28 -22 -46 -2 -22
24 -36 24 -58 0 -18 -20 -46 -18 -46 2 0 6 10 21 22 34 l21 23 -23 24 c-13 15
-20 32 -17 40 8 21 20 20 42 -4z"/>
<path d="M1171 798 c-58 -30 -83 -65 -88 -125 -10 -118 111 -199 217 -145 101
50 109 204 15 262 -51 31 -94 34 -144 8z m103 -84 c9 -3 16 -12 16 -20 0 -10
-15 -14 -55 -14 -41 0 -55 4 -55 14 0 8 6 17 13 19 18 8 63 8 81 1z m12 -75
c10 -17 -16 -29 -63 -29 -36 0 -43 3 -43 20 0 17 7 20 49 20 28 0 53 -5 57
-11z"/>
</g>
</svg>
