<?xml version="1.0" standalone="no"?>
<!DOCTYPE svg PUBLIC "-//W3C//DTD SVG 20010904//EN"
 "http://www.w3.org/TR/2001/REC-SVG-20010904/DTD/svg10.dtd">
<svg version="1.0" xmlns="http://www.w3.org/2000/svg"
 width="192.000000pt" height="192.000000pt" viewBox="0 0 192.000000 192.000000"
 preserveAspectRatio="xMidYMid meet">
<metadata>
Created by potrace 1.16, written by Peter Selinger 2001-2019
</metadata>
<g transform="translate(0.000000,192.000000) scale(0.100000,-0.100000)"
fill="#000000" stroke="none">
811 c445 -92 729 -532 635 -987 -62 -301 -295 -546 -601 -630 -91 -26 -329
-26 -420 0 -291 80 -516 305 -596 596 -26 91 -26 329 0 420 120 433 542 692
982 601z"/>
<path d="M703 1360 c-48 -19 -58 -87 -17 -119 47 -37 106 -17 119 40 12 48
-53 98 -102 79z"/>
<path d="M929 1359 c-26 -10 -49 -45 -49 -75 0 -23 46 -64 73 -64 13 0 36 9
51 21 63 50 3 146 -75 118z"/>
<path d="M1160 1363 c-77 -28 -60 -143 22 -143 61 0 94 78 50 121 -20 20 -51
29 -72 22z"/>
<path d="M685 1125 c-62 -61 10 -155 86 -114 48 25 44 105 -7 128 -37 16 -52
14 -79 -14z"/>
<path d="M924 1139 c-22 -11 -44 -48 -44 -75 0 -23 46 -64 73 -64 37 0 77 36
77 70 0 54 -59 92 -106 69z"/>
<path d="M1136 1129 c-19 -15 -26 -30 -26 -54 0 -24 7 -39 26 -54 31 -24 43
-26 78 -10 49 23 51 90 4 123 -30 21 -50 20 -82 -5z"/>
<path d="M685 905 c-34 -33 -33 -77 1 -104 32 -25 46 -26 83 -6 51 26 48 100
-6 124 -36 16 -51 14 -78 -14z"/>
<path d="M923 920 c-25 -10 -43 -39 -43 -70 0 -29 44 -70 75 -70 14 0 37 11
50 25 14 13 25 36 25 50 0 30 -41 75 -67 74 -10 0 -28 -4 -40 -9z"/>
<path d="M1136 909 c-19 -15 -26 -30 -26 -54 0 -36 37 -75 71 -75 30 0 72 43
72 75 0 32 -42 75 -72 75 -10 0 -30 -9 -45 -21z"/>
<path d="M905 685 c-27 -26 -32 -61 -12 -86 15 -20 51 -39 72 -39 25 0 65 46
65 75 0 14 -11 37 -25 50 -13 14 -36 25 -50 25 -14 0 -37 -11 -50 -25z"/>
</g>
</svg>
