<?xml version="1.0" standalone="no"?>
<!DOCTYPE svg PUBLIC "-//W3C//DTD SVG 20010904//EN"
 "http://www.w3.org/TR/2001/REC-SVG-20010904/DTD/svg10.dtd">
<svg version="1.0" xmlns="http://www.w3.org/2000/svg"
 width="192.000000pt" height="192.000000pt" viewBox="0 0 192.000000 192.000000"
 preserveAspectRatio="xMidYMid meet">
<metadata>
Created by potrace 1.16, written by Peter Selinger 2001-2019
</metadata>
<g transform="translate(0.000000,192.000000) scale(0.100000,-0.100000)"
fill="#000000" stroke="none">
811 c445 -92 729 -532 635 -987 -62 -301 -295 -546 -601 -630 -91 -26 -329
-26 -420 0 -291 80 -516 305 -596 596 -26 91 -26 329 0 420 120 433 542 692
982 601z"/>
<path d="M822 1350 c-73 -26 -111 -52 -166 -110 -221 -237 -89 -621 234 -680
76 -14 177 0 245 34 42 22 45 22 61 5 86 -95 221 12 138 111 l-26 31 27 60
c78 175 16 390 -146 498 -34 22 -84 48 -112 56 -71 21 -190 19 -255 -5z m257
-187 c88 -55 127 -149 107 -257 -7 -36 -7 -36 -32 -19 -59 38 -134 1 -134 -67
0 -19 7 -45 15 -57 14 -19 13 -21 -17 -27 -63 -13 -114 -6 -169 22 -123 62
-166 219 -90 331 72 108 213 140 320 74z"/>
<path d="M886 1031 c-47 -49 -35 -125 24 -156 46 -24 78 -19 116 19 26 26 34
42 34 71 0 87 -113 130 -174 66z"/>
</g>
</svg>
