<?xml version="1.0" standalone="no"?>
<!DOCTYPE svg PUBLIC "-//W3C//DTD SVG 20010904//EN"
 "http://www.w3.org/TR/2001/REC-SVG-20010904/DTD/svg10.dtd">
<svg version="1.0" xmlns="http://www.w3.org/2000/svg"
 width="192.000000pt" height="192.000000pt" viewBox="0 0 192.000000 192.000000"
 preserveAspectRatio="xMidYMid meet">
<metadata>
Created by potrace 1.16, written by Peter Selinger 2001-2019
</metadata>
<g transform="translate(0.000000,192.000000) scale(0.100000,-0.100000)"
fill="#000000" stroke="none">
810 c245 -63 441 -223 549 -451 55 -116 75 -212 75 -354 0 -141 -20 -238 -75
-352 -86 -182 -215 -312 -396 -398 -116 -55 -212 -75 -354 -75 -142 0 -238 20
-354 75 -228 108 -388 304 -451 549 -28 110 -28 292 0 402 76 298 303 526 600
603 106 28 298 28 406 1z"/>
<path d="M893 1355 c-18 -7 -54 -17 -80 -21 -56 -8 -75 -20 -108 -64 -13 -17
-38 -42 -55 -55 l-32 -23 24 -15 c114 -74 253 -146 262 -137 13 13 52 13 75 1
13 -8 49 9 157 71 76 45 140 82 141 83 2 1 -25 31 -60 67 -58 60 -67 65 -116
72 -30 4 -67 14 -82 22 -35 18 -84 17 -126 -1z"/>
<path d="M1165 1067 c-122 -71 -140 -86 -143 -110 -2 -16 -15 -36 -33 -49
l-29 -22 0 -168 c0 -92 2 -168 4 -168 2 0 24 8 48 18 24 11 65 22 91 25 45 6
56 14 133 91 73 73 84 89 89 127 4 24 16 68 27 97 l21 53 -22 55 c-11 31 -21
66 -21 79 0 28 -10 55 -19 54 -3 0 -69 -37 -146 -82z"/>
<path d="M585 1098 c-4 -23 -14 -56 -21 -74 -18 -43 -18 -88 0 -123 8 -15 18
-52 22 -81 6 -49 12 -58 90 -136 67 -67 91 -84 121 -89 33 -5 82 -18 121 -32
9 -4 12 32 12 160 0 157 -1 166 -20 172 -20 6 -50 52 -50 77 0 7 -61 47 -135
90 l-134 76 -6 -40z"/>
</g>
</svg>
