<?xml version="1.0" standalone="no"?>
<!DOCTYPE svg PUBLIC "-//W3C//DTD SVG 20010904//EN"
 "http://www.w3.org/TR/2001/REC-SVG-20010904/DTD/svg10.dtd">
<svg version="1.0" xmlns="http://www.w3.org/2000/svg"
 width="192.000000pt" height="192.000000pt" viewBox="0 0 192.000000 192.000000"
 preserveAspectRatio="xMidYMid meet">
<metadata>
Created by potrace 1.16, written by Peter Selinger 2001-2019
</metadata>
<g transform="translate(0.000000,192.000000) scale(0.100000,-0.100000)"
fill="#000000" stroke="none">
810 c245 -63 441 -223 549 -451 55 -116 75 -212 75 -354 0 -141 -20 -238 -75
-352 -86 -182 -215 -312 -396 -398 -116 -55 -212 -75 -354 -75 -142 0 -238 20
-354 75 -228 108 -388 304 -451 549 -28 110 -28 292 0 402 76 298 303 526 600
603 106 28 298 28 406 1z"/>
<path d="M880 1350 c-25 -11 -60 -19 -78 -19 -28 -1 -46 -13 -104 -72 -39 -38
-67 -73 -64 -76 3 -3 63 -39 133 -79 95 -55 130 -71 140 -62 11 9 47 8 80 -3
6 -2 74 32 151 76 l140 79 -57 63 c-42 47 -64 64 -91 68 -19 3 -62 15 -96 26
-72 23 -95 23 -154 -1z"/>
<path d="M1166 1067 c-113 -67 -140 -87 -143 -107 -1 -14 -17 -37 -33 -52
l-30 -28 0 -165 0 -165 48 19 c26 10 69 22 96 25 44 7 56 15 131 90 72 72 84
89 89 127 4 24 16 69 27 100 20 55 20 56 1 105 -11 27 -23 68 -27 92 -4 23
-10 42 -13 41 -4 0 -70 -38 -146 -82z"/>
<path d="M590 1114 c0 -13 -9 -47 -20 -76 -25 -66 -25 -80 0 -151 11 -31 20
-70 20 -86 0 -24 17 -46 86 -115 47 -47 93 -86 103 -86 18 0 105 -23 134 -35
16 -7 17 5 17 158 0 157 -1 166 -20 172 -20 6 -50 52 -50 77 -1 7 -61 47 -135
89 -128 73 -135 76 -135 53z"/>
</g>
</svg>
