<?xml version="1.0" standalone="no"?>
<!DOCTYPE svg PUBLIC "-//W3C//DTD SVG 20010904//EN"
 "http://www.w3.org/TR/2001/REC-SVG-20010904/DTD/svg10.dtd">
<svg version="1.0" xmlns="http://www.w3.org/2000/svg"
 width="192.000000pt" height="192.000000pt" viewBox="0 0 192.000000 192.000000"
 preserveAspectRatio="xMidYMid meet">
<metadata>
Created by potrace 1.16, written by Peter Selinger 2001-2019
</metadata>
<g transform="translate(0.000000,192.000000) scale(0.100000,-0.100000)"
fill="#000000" stroke="none">
810 c245 -63 441 -223 549 -451 55 -116 75 -212 75 -354 0 -141 -20 -238 -75
-352 -86 -182 -215 -312 -396 -398 -116 -55 -212 -75 -354 -75 -142 0 -238 20
-354 75 -228 108 -388 304 -451 549 -28 110 -28 292 0 402 76 298 303 526 600
603 106 28 298 28 406 1z"/>
<path d="M875 1350 c-27 -11 -60 -19 -73 -20 -32 0 -63 -18 -87 -49 -11 -14
-34 -39 -52 -55 -18 -16 -33 -33 -33 -37 0 -15 264 -159 274 -149 13 13 52 13
75 1 13 -8 49 9 157 71 76 45 140 82 141 83 2 1 -25 31 -60 67 -57 59 -67 65
-114 72 -29 3 -68 13 -87 21 -45 19 -79 18 -141 -5z"/>
<path d="M1165 1066 c-119 -70 -140 -86 -143 -109 -2 -14 -16 -37 -33 -51
l-29 -25 0 -165 c0 -91 2 -166 4 -166 2 0 24 8 48 18 24 11 65 22 91 25 45 6
56 14 133 91 73 73 84 89 89 127 4 24 16 68 27 97 l20 52 -20 58 c-11 31 -23
74 -27 95 -3 20 -9 37 -13 36 -4 0 -70 -38 -147 -83z"/>
<path d="M590 1119 c0 -11 -9 -45 -20 -76 -24 -68 -25 -104 -6 -142 8 -15 18
-52 22 -81 6 -49 12 -58 90 -136 75 -74 88 -83 131 -90 26 -3 63 -13 82 -20
18 -8 35 -14 37 -14 2 0 4 74 4 164 0 156 -1 165 -20 171 -20 6 -50 52 -50 77
-1 7 -61 48 -135 90 -115 65 -135 74 -135 57z"/>
</g>
</svg>
