<?xml version="1.0" standalone="no"?>
<!DOCTYPE svg PUBLIC "-//W3C//DTD SVG 20010904//EN"
 "http://www.w3.org/TR/2001/REC-SVG-20010904/DTD/svg10.dtd">
<svg version="1.0" xmlns="http://www.w3.org/2000/svg"
 width="192.000000pt" height="192.000000pt" viewBox="0 0 192.000000 192.000000"
 preserveAspectRatio="xMidYMid meet">
<metadata>
Created by potrace 1.16, written by Peter Selinger 2001-2019
</metadata>
<g transform="translate(0.000000,192.000000) scale(0.100000,-0.100000)"
fill="#000000" stroke="none">
810 c245 -63 441 -223 549 -451 55 -116 75 -212 75 -354 0 -141 -20 -238 -75
-352 -86 -182 -215 -312 -396 -398 -116 -55 -212 -75 -354 -75 -142 0 -238 20
-354 75 -228 108 -388 304 -451 549 -28 110 -28 292 0 402 76 298 303 526 600
603 106 28 298 28 406 1z"/>
<path d="M904 1359 c-27 -11 -71 -22 -99 -26 -49 -6 -59 -13 -115 -79 -14 -16
-36 -37 -49 -47 -14 -9 -23 -18 -20 -20 2 -2 64 -38 137 -79 122 -70 134 -75
161 -65 22 8 36 8 54 0 21 -10 40 -2 163 69 76 44 140 81 141 82 8 7 -129 136
-144 136 -18 0 -82 16 -149 38 -23 7 -41 5 -80 -9z"/>
<path d="M1165 1067 c-121 -71 -140 -86 -143 -110 -2 -16 -15 -36 -33 -49
l-29 -22 0 -168 c0 -92 2 -168 5 -168 2 0 26 8 52 19 26 10 68 21 93 25 38 6
55 18 126 89 67 67 83 89 89 122 4 22 16 67 28 101 l21 61 -22 53 c-12 29 -22
63 -22 76 0 27 -10 54 -19 53 -3 0 -69 -37 -146 -82z"/>
<path d="M585 1101 c-3 -20 -14 -59 -25 -86 -18 -50 -18 -52 0 -104 11 -29 22
-73 26 -97 6 -39 17 -56 89 -129 72 -74 88 -85 126 -91 24 -3 61 -12 82 -20
20 -8 40 -14 42 -14 3 0 5 73 5 163 0 162 0 164 -24 176 -23 13 -46 49 -46 74
0 7 -61 46 -134 88 l-134 77 -7 -37z"/>
</g>
</svg>
