<?xml version="1.0" standalone="no"?>
<!DOCTYPE svg PUBLIC "-//W3C//DTD SVG 20010904//EN"
 "http://www.w3.org/TR/2001/REC-SVG-20010904/DTD/svg10.dtd">
<svg version="1.0" xmlns="http://www.w3.org/2000/svg"
 width="192.000000pt" height="192.000000pt" viewBox="0 0 192.000000 192.000000"
 preserveAspectRatio="xMidYMid meet">
<metadata>
Created by potrace 1.16, written by Peter Selinger 2001-2019
</metadata>
<g transform="translate(0.000000,192.000000) scale(0.100000,-0.100000)"
fill="#000000" stroke="none">
810 c245 -63 441 -223 549 -451 55 -116 75 -212 75 -354 0 -141 -20 -238 -75
-352 -86 -182 -215 -312 -396 -398 -116 -55 -212 -75 -354 -75 -142 0 -238 20
-354 75 -228 108 -388 304 -451 549 -28 110 -28 292 0 402 76 298 303 526 600
603 106 28 298 28 406 1z"/>
<path d="M875 1349 c-27 -10 -60 -18 -72 -19 -36 0 -67 -19 -92 -56 -13 -19
-37 -44 -53 -55 -15 -11 -28 -24 -28 -29 0 -16 264 -160 274 -150 13 13 56 13
76 0 15 -9 24 -5 212 105 l86 50 -63 68 c-51 55 -68 67 -94 67 -17 0 -57 9
-88 20 -68 24 -91 23 -158 -1z"/>
<path d="M1165 1066 c-119 -70 -140 -86 -143 -109 -2 -14 -16 -37 -33 -51
l-29 -25 0 -165 0 -166 53 19 c28 11 72 23 97 26 39 7 55 18 126 89 71 71 82
87 89 126 3 25 15 69 26 99 20 54 20 55 0 110 -11 31 -22 73 -26 94 -3 20 -9
37 -13 36 -4 0 -70 -38 -147 -83z"/>
<path d="M577 1071 c-30 -110 -30 -117 -8 -180 12 -34 21 -74 21 -91 0 -24 16
-46 84 -114 77 -76 90 -85 133 -92 26 -3 63 -13 82 -20 18 -8 35 -14 37 -14 2
0 4 74 4 164 0 156 -1 165 -20 171 -20 6 -50 52 -50 77 -1 7 -60 47 -133 89
l-132 75 -18 -65z"/>
</g>
</svg>
