<?xml version="1.0" standalone="no"?>
<!DOCTYPE svg PUBLIC "-//W3C//DTD SVG 20010904//EN"
 "http://www.w3.org/TR/2001/REC-SVG-20010904/DTD/svg10.dtd">
<svg version="1.0" xmlns="http://www.w3.org/2000/svg"
 width="192.000000pt" height="192.000000pt" viewBox="0 0 192.000000 192.000000"
 preserveAspectRatio="xMidYMid meet">
<metadata>
Created by potrace 1.16, written by Peter Selinger 2001-2019
</metadata>
<g transform="translate(0.000000,192.000000) scale(0.100000,-0.100000)"
fill="#000000" stroke="none">
810 c245 -63 441 -223 549 -451 55 -116 75 -212 75 -354 0 -141 -20 -238 -75
-352 -86 -182 -215 -312 -396 -398 -116 -55 -212 -75 -354 -75 -142 0 -238 20
-354 75 -228 108 -388 304 -451 549 -28 110 -28 292 0 402 76 298 303 526 600
603 106 28 298 28 406 1z"/>
<path d="M894 1356 c-17 -8 -51 -17 -75 -21 -70 -11 -76 -14 -108 -56 -16 -22
-44 -51 -61 -64 l-32 -23 24 -15 c12 -9 74 -45 136 -81 102 -58 116 -64 138
-54 18 9 33 9 54 1 26 -10 40 -4 167 70 76 44 139 81 140 82 2 1 -25 31 -60
67 -58 60 -67 65 -116 72 -30 4 -67 14 -82 22 -35 17 -84 18 -125 0z"/>
<path d="M1165 1067 c-122 -71 -140 -86 -143 -110 -2 -16 -15 -36 -33 -49
l-29 -22 0 -168 c0 -92 2 -168 5 -168 2 0 26 8 52 19 26 10 68 21 92 25 38 6
55 18 127 89 67 67 83 89 89 122 4 22 16 67 28 101 l21 61 -22 53 c-12 29 -22
63 -22 76 0 27 -10 54 -19 53 -3 0 -69 -37 -146 -82z"/>
<path d="M585 1098 c-4 -23 -14 -56 -21 -74 -18 -42 -18 -83 0 -125 8 -19 17
-56 21 -82 7 -43 16 -57 90 -132 72 -74 88 -85 126 -91 24 -3 61 -12 82 -20
20 -8 40 -14 42 -14 3 0 5 74 5 164 0 156 -1 165 -20 171 -20 6 -50 52 -50 77
0 7 -61 47 -135 90 l-134 76 -6 -40z"/>
</g>
</svg>
