<?xml version="1.0" standalone="no"?>
<!DOCTYPE svg PUBLIC "-//W3C//DTD SVG 20010904//EN"
 "http://www.w3.org/TR/2001/REC-SVG-20010904/DTD/svg10.dtd">
<svg version="1.0" xmlns="http://www.w3.org/2000/svg"
 width="192.000000pt" height="192.000000pt" viewBox="0 0 192.000000 192.000000"
 preserveAspectRatio="xMidYMid meet">
<metadata>
Created by potrace 1.16, written by Peter Selinger 2001-2019
</metadata>
<g transform="translate(0.000000,192.000000) scale(0.100000,-0.100000)"
fill="#000000" stroke="none">
811 c445 -92 729 -532 635 -987 -62 -301 -295 -546 -601 -630 -91 -26 -329
-26 -420 0 -291 80 -516 305 -596 596 -26 91 -26 329 0 420 120 433 542 692
982 601z"/>
<path d="M960 1227 c-19 -6 -56 -32 -81 -58 -40 -39 -51 -45 -78 -41 -51 7
-116 -31 -141 -84 -12 -24 -26 -44 -30 -44 -22 0 -79 -69 -89 -107 -24 -88 37
-192 121 -208 18 -3 162 -5 320 -3 273 3 288 4 315 24 98 73 98 214 -1 282
-26 18 -35 32 -39 63 -18 134 -161 219 -297 176z"/>
</g>
</svg>
