<?xml version="1.0" standalone="no"?>
<!DOCTYPE svg PUBLIC "-//W3C//DTD SVG 20010904//EN"
 "http://www.w3.org/TR/2001/REC-SVG-20010904/DTD/svg10.dtd">
<svg version="1.0" xmlns="http://www.w3.org/2000/svg"
 width="192.000000pt" height="192.000000pt" viewBox="0 0 192.000000 192.000000"
 preserveAspectRatio="xMidYMid meet">
<metadata>
Created by potrace 1.16, written by Peter Selinger 2001-2019
</metadata>
<g transform="translate(0.000000,192.000000) scale(0.100000,-0.100000)"
fill="#000000" stroke="none">
811 c445 -92 729 -532 635 -987 -62 -301 -295 -546 -601 -630 -91 -26 -329
-26 -420 0 -291 80 -516 305 -596 596 -26 91 -26 329 0 420 120 433 542 692
982 601z"/>
<path d="M825 1373 c-116 -42 -216 -128 -260 -226 -100 -220 -8 -466 212 -570
64 -30 75 -32 178 -32 103 0 114 2 178 32 89 42 168 121 210 210 30 64 32 75
32 178 0 103 -2 114 -32 178 -42 89 -121 168 -210 210 -59 27 -81 32 -163 34
-72 3 -107 -1 -145 -14z m272 -116 c66 -34 115 -83 150 -150 24 -45 28 -63 28
-142 0 -79 -4 -96 -28 -142 l-27 -53 -48 37 c-26 19 -59 40 -74 45 l-27 10 20
39 c61 120 32 244 -67 285 -83 35 -183 0 -221 -76 -33 -64 -28 -121 21 -231 5
-11 -3 -20 -28 -31 -18 -9 -50 -31 -69 -48 l-36 -31 -17 26 c-42 64 -57 183
-34 267 14 49 66 125 112 161 90 72 241 87 345 34z"/>
</g>
</svg>
