<?xml version="1.0" standalone="no"?>
<!DOCTYPE svg PUBLIC "-//W3C//DTD SVG 20010904//EN"
 "http://www.w3.org/TR/2001/REC-SVG-20010904/DTD/svg10.dtd">
<svg version="1.0" xmlns="http://www.w3.org/2000/svg"
 width="192.000000pt" height="192.000000pt" viewBox="0 0 192.000000 192.000000"
 preserveAspectRatio="xMidYMid meet">
<metadata>
Created by potrace 1.16, written by Peter Selinger 2001-2019
</metadata>
<g transform="translate(0.000000,192.000000) scale(0.100000,-0.100000)"
fill="#000000" stroke="none">
811 c445 -92 729 -532 635 -987 -62 -301 -295 -546 -601 -630 -91 -26 -329
-26 -420 0 -291 80 -516 305 -596 596 -26 91 -26 329 0 420 120 433 542 692
982 601z"/>
<path d="M510 1222 c-19 -9 -40 -28 -47 -42 -19 -37 -17 -180 3 -208 36 -52
115 -67 172 -32 35 21 40 41 17 60 -12 10 -22 9 -49 -4 -26 -12 -41 -14 -60
-6 -25 9 -26 13 -26 90 0 74 2 81 23 89 23 9 37 7 75 -12 18 -8 26 -7 39 5 22
22 10 46 -32 63 -45 19 -72 19 -115 -3z"/>
<path d="M727 1228 c-15 -8 -17 -29 -17 -158 l0 -150 89 0 c69 0 92 4 102 16
24 29 -1 49 -70 52 l-61 3 0 118 c0 124 -6 140 -43 119z"/>
<path d="M957 1229 c-15 -9 -17 -26 -17 -125 l0 -116 35 -35 c34 -34 38 -35
92 -31 48 4 61 10 85 37 27 31 28 34 28 146 0 101 -2 115 -18 124 -33 18 -42
-6 -42 -111 0 -85 -3 -101 -20 -118 -11 -11 -29 -20 -40 -20 -11 0 -29 9 -40
20 -17 17 -20 33 -20 119 0 105 -9 128 -43 110z"/>
<path d="M1238 1229 c-16 -9 -18 -27 -18 -148 0 -168 -1 -166 106 -159 64 4
80 9 101 30 31 32 35 88 8 118 -14 16 -16 23 -7 32 15 15 15 63 1 90 -22 40
-145 64 -191 37z m139 -75 c8 -22 -22 -44 -59 -44 -24 0 -28 4 -28 30 0 28 2
30 40 30 28 0 43 -5 47 -16z m-1 -108 c30 -23 7 -50 -45 -54 -41 -3 -41 -3
-41 32 0 34 2 36 33 36 18 0 42 -6 53 -14z"/>
<path d="M751 874 l-32 -13 3 -68 c3 -61 5 -69 30 -82 32 -18 81 -6 86 22 3
15 -2 17 -37 11 -38 -6 -40 -5 -47 21 -14 58 13 88 65 74 8 -2 16 3 18 12 6
26 -46 40 -86 23z"/>
<path d="M1026 869 c-22 -18 -26 -28 -26 -75 0 -66 22 -94 75 -94 53 0 75 28
75 94 0 47 -4 57 -26 75 -15 12 -37 21 -49 21 -12 0 -34 -9 -49 -21z m79 -74
c0 -49 -1 -50 -30 -50 -28 0 -30 2 -33 44 -4 47 8 63 43 59 17 -3 20 -11 20
-53z"/>
<path d="M452 793 c2 -70 6 -88 18 -88 10 0 16 12 18 33 3 29 6 32 38 32 28 0
35 4 32 18 -2 11 -14 18 -36 20 -24 2 -32 8 -32 23 0 16 7 19 40 19 29 0 40 4
40 15 0 12 -13 15 -60 15 l-61 0 3 -87z"/>
<path d="M586 799 c-23 -63 -26 -83 -16 -92 9 -9 15 -7 27 11 9 12 26 22 38
22 12 0 29 -10 38 -22 11 -17 18 -20 27 -12 8 8 4 31 -17 93 -23 65 -32 81
-48 81 -16 0 -26 -16 -49 -81z m58 9 c5 -22 3 -28 -10 -28 -11 0 -14 5 -10 16
3 9 6 23 6 31 0 22 6 14 14 -19z"/>
<path d="M860 865 c0 -8 11 -17 25 -21 22 -5 24 -11 27 -72 2 -52 6 -67 18
-67 12 0 16 15 18 67 3 61 5 67 27 72 14 4 25 13 25 21 0 12 -15 15 -70 15
-55 0 -70 -3 -70 -15z"/>
<path d="M1174 867 c-3 -8 -4 -47 -2 -88 2 -58 6 -74 18 -74 10 0 16 12 18 33
2 17 5 32 7 32 3 0 20 -17 39 -37 30 -33 36 -36 42 -20 4 11 0 25 -10 35 -14
17 -14 19 4 35 25 21 26 59 2 80 -23 21 -110 23 -118 4z m96 -41 c0 -14 -21
-26 -46 -26 -8 0 -14 9 -14 20 0 16 7 20 30 20 19 0 30 -5 30 -14z"/>
<path d="M1320 868 c0 -7 11 -33 25 -57 14 -23 25 -56 25 -71 0 -33 18 -49 31
-29 5 8 9 27 9 42 0 16 11 48 25 71 14 24 22 46 18 49 -15 16 -34 5 -50 -28
l-17 -36 -18 36 c-18 34 -48 48 -48 23z"/>
</g>
</svg>
