<?xml version="1.0" standalone="no"?>
<!DOCTYPE svg PUBLIC "-//W3C//DTD SVG 20010904//EN"
 "http://www.w3.org/TR/2001/REC-SVG-20010904/DTD/svg10.dtd">
<svg version="1.0" xmlns="http://www.w3.org/2000/svg"
 width="192.000000pt" height="192.000000pt" viewBox="0 0 192.000000 192.000000"
 preserveAspectRatio="xMidYMid meet">
<metadata>
Created by potrace 1.16, written by Peter Selinger 2001-2019
</metadata>
<g transform="translate(0.000000,192.000000) scale(0.100000,-0.100000)"
fill="#000000" stroke="none">
811 c445 -92 729 -532 635 -987 -62 -301 -295 -546 -601 -630 -91 -26 -329
-26 -420 0 -291 80 -516 305 -596 596 -26 91 -26 329 0 420 120 433 542 692
982 601z"/>
<path d="M899 1381 c-41 -13 -72 -31 -104 -61 -16 -15 -48 -33 -70 -40 -63
-19 -110 -57 -140 -111 -25 -46 -27 -57 -21 -122 7 -87 7 -77 0 -164 -6 -65
-4 -76 22 -124 31 -57 90 -102 147 -113 19 -4 48 -21 67 -41 82 -85 220 -83
315 5 17 15 53 35 82 44 100 33 163 134 148 241 -8 64 -8 80 1 137 9 61 -9
125 -48 172 -30 36 -94 76 -122 76 -8 0 -33 16 -57 36 -23 19 -54 41 -69 49
-34 18 -118 27 -151 16z m102 -62 c19 -7 40 -18 48 -25 12 -11 10 -15 -15 -24
-16 -6 -39 -21 -52 -33 -19 -18 -26 -19 -40 -9 -9 7 -36 22 -59 34 -41 21 -42
22 -22 36 43 30 90 37 140 21z m-132 -116 l23 -15 -48 -28 -49 -28 -3 25 c-2
14 -1 36 3 50 6 26 27 25 74 -4z m245 5 c7 -30 8 -78 0 -78 -3 0 -19 9 -34 20
-15 11 -38 24 -51 29 -23 9 -22 10 21 30 56 26 56 26 64 -1z m-422 -135 c-24
-12 -50 -27 -58 -34 -12 -10 -14 -4 -14 32 0 53 27 102 72 129 l33 20 5 -63 5
-62 -43 -22z m524 127 c37 -24 74 -91 74 -138 0 -32 -13 -42 -26 -21 -3 6 -25
19 -47 29 l-41 18 0 66 c-1 36 1 66 3 66 2 0 18 -9 37 -20z m-316 -106 c0 -22
-3 -25 -22 -20 -13 3 -27 6 -33 6 -11 0 36 39 48 40 4 0 7 -12 7 -26z m135 14
c31 -14 32 -22 1 -36 -22 -10 -24 -8 -28 19 -5 33 -7 33 27 17z m-305 -143 c0
-30 -4 -55 -9 -55 -5 0 -24 12 -41 27 l-32 27 31 28 c17 15 36 28 41 28 6 0
10 -25 10 -55z m499 27 l34 -28 -32 -27 c-47 -40 -56 -35 -56 28 0 31 4 55 10
55 6 0 26 -13 44 -28z m-391 -28 c1 -1 -9 -9 -23 -18 l-25 -16 0 36 0 37 23
-19 c12 -10 23 -19 25 -20z m280 -14 c-3 -20 -4 -20 -27 -4 l-24 17 24 18 c26
20 34 11 27 -31z m-411 -100 c27 -10 28 -12 25 -75 -2 -36 -6 -65 -9 -65 -4 0
-21 11 -40 26 -43 32 -63 73 -63 124 l0 41 30 -21 c16 -11 42 -25 57 -30z
m563 -60 c-17 -33 -69 -80 -90 -80 -3 0 -5 29 -5 63 l0 64 55 30 55 30 3 -33
c2 -19 -6 -50 -18 -74z m-370 45 c0 -29 -8 -31 -36 -10 -16 13 -17 16 -4 25
25 17 40 11 40 -15z m159 9 c6 -6 -31 -33 -45 -34 -7 0 -9 10 -6 25 4 21 9 24
26 19 11 -4 23 -8 25 -10z m-176 -107 c-3 -5 -21 -16 -41 -24 -42 -17 -52 -8
-52 48 l0 37 49 -26 c27 -15 47 -31 44 -35z m237 36 c0 -56 -11 -75 -37 -68
-14 3 -36 13 -49 22 l-25 16 39 17 c22 10 43 23 46 29 13 20 26 11 26 -16z
m-139 -82 c13 -10 37 -25 53 -33 l29 -15 -26 -18 c-43 -28 -98 -30 -153 -5
l-49 21 40 20 c22 11 47 26 55 34 18 19 22 19 51 -4z"/>
</g>
</svg>
