<?xml version="1.0" standalone="no"?>
<!DOCTYPE svg PUBLIC "-//W3C//DTD SVG 20010904//EN"
 "http://www.w3.org/TR/2001/REC-SVG-20010904/DTD/svg10.dtd">
<svg version="1.0" xmlns="http://www.w3.org/2000/svg"
 width="192.000000pt" height="192.000000pt" viewBox="0 0 192.000000 192.000000"
 preserveAspectRatio="xMidYMid meet">
<metadata>
Created by potrace 1.16, written by Peter Selinger 2001-2019
</metadata>
<g transform="translate(0.000000,192.000000) scale(0.100000,-0.100000)"
fill="#000000" stroke="none">
811 c445 -92 729 -532 635 -987 -62 -301 -295 -546 -601 -630 -91 -26 -329
-26 -420 0 -291 80 -516 305 -596 596 -26 91 -26 329 0 420 120 433 542 692
982 601z"/>
<path d="M695 1321 c-49 -22 -91 -69 -105 -119 -7 -23 -10 -117 -8 -258 l3
-221 28 -41 c15 -23 46 -52 70 -64 40 -22 52 -23 272 -23 220 0 232 1 272 23
24 12 55 41 70 64 28 41 28 44 28 202 l0 161 -25 0 -25 0 -3 -123 -3 -123 -33
26 c-19 14 -50 29 -70 32 -26 4 -36 11 -36 24 0 20 -30 102 -36 96 -2 -2 1
-20 7 -41 21 -77 -27 -143 -122 -166 -41 -10 -64 -24 -103 -63 -45 -45 -51
-48 -62 -32 -16 21 -8 42 17 50 28 9 52 61 44 96 -8 35 -48 69 -82 69 -30 0
-62 -16 -83 -42 -17 -21 -45 -17 -54 9 -8 20 6 36 60 70 34 21 44 33 40 47
-13 52 73 140 198 203 l49 25 18 -23 18 -24 -6 23 c-7 30 -44 56 -55 39 -5 -8
-8 -4 -8 12 0 22 3 23 43 17 66 -10 68 -9 140 9 59 16 67 21 67 42 0 16 -8 27
-26 33 -14 6 -123 10 -242 10 -189 0 -222 -3 -257 -19z"/>
<path d="M850 1029 c-43 -31 -43 -32 -21 -41 13 -5 25 -7 26 -6 1 2 12 18 24
36 13 18 21 35 19 38 -3 2 -24 -10 -48 -27z"/>
</g>
</svg>
