<?xml version="1.0" standalone="no"?>
<!DOCTYPE svg PUBLIC "-//W3C//DTD SVG 20010904//EN"
 "http://www.w3.org/TR/2001/REC-SVG-20010904/DTD/svg10.dtd">
<svg version="1.0" xmlns="http://www.w3.org/2000/svg"
 width="192.000000pt" height="192.000000pt" viewBox="0 0 192.000000 192.000000"
 preserveAspectRatio="xMidYMid meet">
<metadata>
Created by potrace 1.16, written by Peter Selinger 2001-2019
</metadata>
<g transform="translate(0.000000,192.000000) scale(0.100000,-0.100000)"
fill="#000000" stroke="none">
811 c445 -92 729 -532 635 -987 -62 -301 -295 -546 -601 -630 -91 -26 -329
-26 -420 0 -291 80 -516 305 -596 596 -26 91 -26 329 0 420 120 433 542 692
982 601z"/>
<path d="M914 1355 c-39 -26 -128 -57 -224 -75 -63 -13 -99 -25 -108 -37 -18
-23 -9 -220 14 -332 30 -147 104 -240 241 -308 98 -49 143 -50 235 -6 130 61
210 166 243 318 23 103 31 305 13 328 -9 12 -47 24 -113 38 -56 11 -132 35
-174 54 -82 39 -97 41 -127 20z m135 -261 c57 -9 65 -22 57 -96 -12 -104 -42
-151 -117 -182 -33 -14 -39 -13 -78 6 -64 31 -89 71 -101 162 -13 87 -6 106
39 106 14 0 44 9 66 19 35 16 44 16 66 5 15 -7 45 -16 68 -20z"/>
</g>
</svg>
