<?xml version="1.0" standalone="no"?>
<!DOCTYPE svg PUBLIC "-//W3C//DTD SVG 20010904//EN"
 "http://www.w3.org/TR/2001/REC-SVG-20010904/DTD/svg10.dtd">
<svg version="1.0" xmlns="http://www.w3.org/2000/svg"
 width="192.000000pt" height="192.000000pt" viewBox="0 0 192.000000 192.000000"
 preserveAspectRatio="xMidYMid meet">
<metadata>
Created by potrace 1.16, written by Peter Selinger 2001-2019
</metadata>
<g transform="translate(0.000000,192.000000) scale(0.100000,-0.100000)"
fill="#000000" stroke="none">
811 c445 -92 729 -532 635 -987 -62 -301 -295 -546 -601 -630 -91 -26 -329
-26 -420 0 -291 80 -516 305 -596 596 -26 91 -26 329 0 420 120 433 542 692
982 601z"/>
<path d="M791 1174 c-12 -15 -21 -39 -21 -54 0 -30 103 -263 119 -268 5 -2 12
10 15 25 13 62 36 220 36 246 0 70 -106 106 -149 51z"/>
<path d="M992 1177 c-29 -30 -29 -57 0 -57 l22 0 -23 -21 c-12 -11 -20 -28
-17 -37 3 -9 10 -53 16 -97 13 -94 19 -115 29 -115 13 0 121 244 121 274 0 67
-101 103 -148 53z"/>
<path d="M629 1061 c-31 -31 -36 -55 -18 -94 12 -26 255 -194 266 -184 3 4
-22 68 -57 143 -49 104 -70 139 -91 150 -42 21 -67 17 -100 -15z"/>
<path d="M1169 1072 c-26 -21 -147 -277 -135 -289 8 -9 233 145 258 177 56 70
-51 168 -123 112z"/>
<path d="M562 867 c-31 -33 -29 -87 4 -118 24 -23 34 -24 161 -27 78 -2 139 0
145 6 6 6 -30 37 -100 86 -92 63 -117 76 -149 76 -28 0 -46 -7 -61 -23z"/>
<path d="M1140 817 c-58 -40 -103 -76 -100 -82 3 -6 61 -10 142 -10 131 0 138
1 162 24 32 30 34 78 5 115 -16 21 -29 26 -62 26 -35 -1 -59 -13 -147 -73z"/>
</g>
</svg>
