<?xml version="1.0" standalone="no"?>
<!DOCTYPE svg PUBLIC "-//W3C//DTD SVG 20010904//EN"
 "http://www.w3.org/TR/2001/REC-SVG-20010904/DTD/svg10.dtd">
<svg version="1.0" xmlns="http://www.w3.org/2000/svg"
 width="192.000000pt" height="192.000000pt" viewBox="0 0 192.000000 192.000000"
 preserveAspectRatio="xMidYMid meet">
<metadata>
Created by potrace 1.16, written by Peter Selinger 2001-2019
</metadata>
<g transform="translate(0.000000,192.000000) scale(0.100000,-0.100000)"
fill="#000000" stroke="none">
811 c445 -92 729 -532 635 -987 -62 -301 -295 -546 -601 -630 -91 -26 -329
-26 -420 0 -291 80 -516 305 -596 596 -26 91 -26 329 0 420 120 433 542 692
982 601z"/>
<path d="M629 1121 c-96 -60 -115 -185 -41 -273 42 -50 94 -68 198 -68 119 0
134 10 143 101 l6 64 39 -68 c42 -74 67 -97 107 -97 42 0 58 27 61 105 l3 70
44 -73 c48 -80 72 -102 112 -102 53 0 59 20 59 203 0 160 -1 167 -20 167 -19
0 -20 -7 -20 -154 0 -122 -3 -156 -15 -166 -8 -6 -19 -9 -25 -5 -6 4 -45 65
-87 136 -41 71 -79 129 -84 129 -5 0 -9 -56 -9 -124 0 -96 -3 -126 -15 -136
-8 -6 -19 -9 -24 -6 -6 4 -45 65 -87 136 -42 72 -80 130 -85 130 -4 0 -10 -57
-11 -127 l-3 -128 -93 -3 c-108 -3 -148 13 -176 72 -47 100 25 206 142 206 35
0 42 3 42 20 0 18 -7 20 -58 20 -47 0 -67 -6 -103 -29z"/>
<path d="M837 1132 c-12 -14 -17 -43 -19 -127 l-3 -110 -56 -3 c-72 -4 -103
18 -103 72 0 48 23 69 81 76 40 4 48 9 48 25 0 16 -8 21 -37 23 -78 7 -138
-49 -138 -127 0 -33 7 -49 34 -79 34 -37 35 -37 125 -40 l91 -4 0 125 c0 98 3
127 15 137 22 18 34 5 115 -135 40 -69 76 -125 81 -125 5 0 10 60 11 133 3
124 4 132 23 132 15 0 39 -32 97 -130 43 -71 82 -131 88 -133 6 -2 10 51 10
153 l0 156 -22 -3 c-21 -3 -23 -10 -28 -81 l-5 -78 -34 58 c-49 83 -69 103
-106 103 -46 0 -67 -29 -74 -102 l-6 -62 -28 52 c-45 83 -74 112 -111 112 -19
0 -40 -8 -49 -18z"/>
</g>
</svg>
