<?xml version="1.0" standalone="no"?>
<!DOCTYPE svg PUBLIC "-//W3C//DTD SVG 20010904//EN"
 "http://www.w3.org/TR/2001/REC-SVG-20010904/DTD/svg10.dtd">
<svg version="1.0" xmlns="http://www.w3.org/2000/svg"
 width="192.000000pt" height="192.000000pt" viewBox="0 0 192.000000 192.000000"
 preserveAspectRatio="xMidYMid meet">
<metadata>
Created by potrace 1.16, written by Peter Selinger 2001-2019
</metadata>
<g transform="translate(0.000000,192.000000) scale(0.100000,-0.100000)"
fill="#000000" stroke="none">
811 c445 -92 729 -532 635 -987 -62 -301 -295 -546 -601 -630 -91 -26 -329
-26 -420 0 -291 80 -516 305 -596 596 -26 91 -26 329 0 420 120 433 542 692
982 601z"/>
<path d="M1035 1233 c-35 -9 -45 -24 -45 -69 0 -35 5 -47 25 -60 23 -15 27
-15 50 0 14 9 25 21 25 27 0 19 111 5 126 -16 18 -25 2 -51 -36 -59 -26 -5
-29 -9 -21 -24 5 -10 11 -33 13 -52 4 -31 8 -35 36 -38 21 -2 38 -12 48 -27
35 -54 -27 -115 -116 -115 -69 0 -103 -37 -74 -79 12 -17 25 -21 71 -21 82 0
132 19 185 70 38 37 47 54 53 93 9 57 -6 97 -47 132 -28 24 -28 25 -12 50 12
18 15 38 11 66 -11 81 -87 129 -202 128 -38 -1 -79 -4 -90 -6z"/>
<path d="M682 1204 c-194 -97 -203 -371 -15 -481 53 -31 162 -42 229 -24 78
21 203 123 230 188 32 74 9 149 -53 178 -31 15 -44 16 -77 7 -25 -6 -47 -7
-58 -1 -51 27 -122 -2 -154 -63 -29 -55 3 -148 49 -148 34 0 47 19 47 67 0 49
25 72 60 53 14 -8 26 -8 40 0 27 15 60 -4 60 -34 0 -32 -29 -66 -93 -110 -94
-64 -205 -61 -266 9 -60 68 -61 158 -4 226 34 40 79 59 142 59 43 0 53 4 67
25 15 23 15 27 0 50 -15 23 -23 25 -84 25 -53 0 -80 -6 -120 -26z"/>
</g>
</svg>
