<?xml version="1.0" standalone="no"?>
<!DOCTYPE svg PUBLIC "-//W3C//DTD SVG 20010904//EN"
 "http://www.w3.org/TR/2001/REC-SVG-20010904/DTD/svg10.dtd">
<svg version="1.0" xmlns="http://www.w3.org/2000/svg"
 width="192.000000pt" height="192.000000pt" viewBox="0 0 192.000000 192.000000"
 preserveAspectRatio="xMidYMid meet">
<metadata>
Created by potrace 1.16, written by Peter Selinger 2001-2019
</metadata>
<g transform="translate(0.000000,192.000000) scale(0.100000,-0.100000)"
fill="#000000" stroke="none">
811 c445 -92 729 -532 635 -987 -62 -301 -295 -546 -601 -630 -91 -26 -329
-26 -420 0 -291 80 -516 305 -596 596 -26 91 -26 329 0 420 120 433 542 692
982 601z"/>
<path d="M604 1221 c-48 -29 -64 -59 -64 -118 0 -46 4 -58 33 -89 28 -30 42
-37 83 -41 41 -4 55 -1 87 21 l39 26 30 -25 c41 -35 88 -33 130 4 82 73 -1
201 -104 162 -35 -13 -62 -55 -62 -97 0 -31 -1 -32 -17 -18 -16 15 -20 15 -41
0 -34 -24 -73 -20 -97 10 -12 15 -21 35 -21 46 0 22 18 60 34 70 19 13 60 9
84 -8 21 -15 25 -15 43 2 22 20 13 36 -32 60 -39 19 -88 18 -125 -5z m307
-138 c12 -32 -22 -72 -48 -57 -19 12 -28 46 -19 70 9 23 57 13 67 -13z"/>
<path d="M990 1199 c0 -27 3 -30 28 -27 21 2 28 9 30 31 3 24 0 27 -27 27 -28
0 -31 -3 -31 -31z"/>
<path d="M1147 1164 c-4 -5 -26 -7 -48 -6 l-40 3 3 -93 c3 -92 3 -93 28 -93
23 0 25 4 28 57 3 58 20 85 46 75 11 -4 16 -25 18 -69 3 -60 4 -63 28 -63 24
0 25 3 28 71 2 56 -1 75 -15 92 -19 23 -64 38 -76 26z"/>
<path d="M992 1068 c3 -92 3 -93 28 -93 25 0 25 1 28 93 l3 92 -31 0 -31 0 3
-92z"/>
<path d="M991 939 c-29 -18 -34 -18 -61 -4 -18 9 -57 15 -105 15 l-76 0 3
-127 3 -128 71 1 c43 1 82 8 102 18 29 15 33 15 64 -4 26 -15 51 -19 113 -18
78 1 80 1 112 36 18 20 33 31 33 25 0 -5 11 -22 25 -37 17 -18 34 -26 59 -26
19 0 37 4 40 8 3 5 -15 37 -40 71 l-46 63 37 54 c19 30 33 59 30 64 -18 29
-105 -6 -105 -42 0 -7 -11 1 -25 19 -25 31 -26 31 -113 32 -71 0 -95 -4 -121
-20z m-99 -76 c10 -9 18 -23 18 -32 0 -28 -30 -61 -56 -61 -23 0 -24 3 -24 55
0 50 2 55 22 55 12 0 30 -7 40 -17z m218 2 c12 -14 15 -14 30 0 17 15 19 14
34 -7 19 -27 20 -37 2 -61 -11 -15 -18 -16 -34 -8 -15 8 -23 7 -32 -4 -27 -33
-100 -6 -100 37 0 38 19 58 54 58 19 0 39 -7 46 -15z"/>
</g>
</svg>
