<?xml version="1.0" standalone="no"?>
<!DOCTYPE svg PUBLIC "-//W3C//DTD SVG 20010904//EN"
 "http://www.w3.org/TR/2001/REC-SVG-20010904/DTD/svg10.dtd">
<svg version="1.0" xmlns="http://www.w3.org/2000/svg"
 width="192.000000pt" height="192.000000pt" viewBox="0 0 192.000000 192.000000"
 preserveAspectRatio="xMidYMid meet">
<metadata>
Created by potrace 1.16, written by Peter Selinger 2001-2019
</metadata>
<g transform="translate(0.000000,192.000000) scale(0.100000,-0.100000)"
fill="#000000" stroke="none">
811 c445 -92 729 -532 635 -987 -62 -301 -295 -546 -601 -630 -91 -26 -329
-26 -420 0 -291 80 -516 305 -596 596 -26 91 -26 329 0 420 120 433 542 692
982 601z"/>
<path d="M897 1369 c-75 -8 -193 -66 -240 -118 -209 -231 -118 -583 175 -672
240 -73 494 85 526 328 37 272 -184 493 -461 462z m83 -158 c0 -9 13 -22 30
-28 37 -14 71 -69 68 -108 -4 -42 -39 -42 -50 1 -4 17 -17 39 -28 49 -20 18
-20 18 -20 -57 0 -74 0 -76 30 -88 90 -37 93 -179 4 -226 -18 -10 -34 -27 -36
-39 -4 -28 -42 -27 -46 1 -2 12 -17 27 -37 37 -42 20 -67 56 -69 99 -1 29 2
33 24 33 19 0 26 -6 28 -25 4 -26 29 -60 44 -60 4 0 8 31 8 69 l0 69 -37 19
c-93 49 -92 169 3 225 19 11 34 28 34 38 0 10 6 20 13 23 16 6 37 -12 37 -32z"/>
<path d="M890 1111 c-14 -28 -12 -63 6 -89 25 -36 34 -25 34 43 0 50 -3 65
-15 65 -8 0 -19 -9 -25 -19z"/>
<path d="M980 865 c0 -36 4 -65 9 -65 15 0 41 42 41 65 0 23 -26 65 -41 65 -5
0 -9 -29 -9 -65z"/>
</g>
</svg>
