<?xml version="1.0" standalone="no"?>
<!DOCTYPE svg PUBLIC "-//W3C//DTD SVG 20010904//EN"
 "http://www.w3.org/TR/2001/REC-SVG-20010904/DTD/svg10.dtd">
<svg version="1.0" xmlns="http://www.w3.org/2000/svg"
 width="192.000000pt" height="192.000000pt" viewBox="0 0 192.000000 192.000000"
 preserveAspectRatio="xMidYMid meet">
<metadata>
Created by potrace 1.16, written by Peter Selinger 2001-2019
</metadata>
<g transform="translate(0.000000,192.000000) scale(0.100000,-0.100000)"
fill="#000000" stroke="none">
811 c445 -92 729 -532 635 -987 -62 -301 -295 -546 -601 -630 -91 -26 -329
-26 -420 0 -291 80 -516 305 -596 596 -26 91 -26 329 0 420 120 433 542 692
982 601z"/>
<path d="M1115 1353 c-11 -3 -27 -11 -35 -18 -10 -9 -56 -14 -147 -17 -143 -3
-161 -10 -207 -72 -18 -24 -21 -42 -21 -131 0 -115 9 -138 75 -182 29 -20 46
-23 129 -23 121 0 141 -11 141 -76 0 -77 -8 -84 -102 -84 -62 0 -92 5 -125 21
-37 18 -48 19 -78 9 -84 -28 -101 -126 -31 -182 26 -21 84 -23 112 -4 14 10
58 15 146 18 140 3 160 11 206 79 22 31 23 43 20 141 -2 89 -6 111 -24 134
-44 59 -65 67 -188 73 -63 3 -117 9 -121 12 -12 13 -16 75 -6 102 10 27 11 27
108 27 70 -1 103 -5 117 -15 34 -26 94 -19 127 14 71 71 2 196 -96 174z"/>
</g>
</svg>
