<?xml version="1.0" standalone="no"?>
<!DOCTYPE svg PUBLIC "-//W3C//DTD SVG 20010904//EN"
 "http://www.w3.org/TR/2001/REC-SVG-20010904/DTD/svg10.dtd">
<svg version="1.0" xmlns="http://www.w3.org/2000/svg"
 width="192.000000pt" height="192.000000pt" viewBox="0 0 192.000000 192.000000"
 preserveAspectRatio="xMidYMid meet">
<metadata>
Created by potrace 1.16, written by Peter Selinger 2001-2019
</metadata>
<g transform="translate(0.000000,192.000000) scale(0.100000,-0.100000)"
fill="#000000" stroke="none">
811 c445 -92 729 -532 635 -987 -62 -301 -295 -546 -601 -630 -91 -26 -329
-26 -420 0 -291 80 -516 305 -596 596 -26 91 -26 329 0 420 120 433 542 692
982 601z"/>
<path d="M890 1368 c-129 -20 -243 -108 -303 -236 -29 -61 -32 -75 -32 -167 0
-92 3 -106 32 -168 40 -84 118 -163 198 -202 83 -40 212 -47 299 -16 114 40
179 100 158 146 -19 41 -46 40 -112 -4 -106 -70 -223 -76 -325 -17 -70 41 -70
40 -2 150 l62 99 5 -62 c4 -50 10 -67 29 -82 46 -38 88 -15 148 83 l38 61 7
-44 c11 -64 62 -112 121 -113 116 -3 173 117 133 274 -52 203 -248 331 -456
298z m196 -133 c65 -32 127 -100 148 -162 21 -62 21 -146 0 -164 -28 -23 -44
14 -44 98 0 65 -3 77 -25 98 -45 46 -97 23 -152 -67 l-38 -62 -5 78 c-4 62 -9
81 -24 92 -50 36 -80 10 -181 -155 -44 -72 -83 -130 -87 -131 -12 0 -20 68
-16 133 13 209 234 335 424 242z"/>
</g>
</svg>
