<?xml version="1.0" standalone="no"?>
<!DOCTYPE svg PUBLIC "-//W3C//DTD SVG 20010904//EN"
 "http://www.w3.org/TR/2001/REC-SVG-20010904/DTD/svg10.dtd">
<svg version="1.0" xmlns="http://www.w3.org/2000/svg"
 width="192.000000pt" height="192.000000pt" viewBox="0 0 192.000000 192.000000"
 preserveAspectRatio="xMidYMid meet">
<metadata>
Created by potrace 1.16, written by Peter Selinger 2001-2019
</metadata>
<g transform="translate(0.000000,192.000000) scale(0.100000,-0.100000)"
fill="#000000" stroke="none">
811 c445 -92 729 -532 635 -987 -62 -301 -295 -546 -601 -630 -91 -26 -329
-26 -420 0 -291 80 -516 305 -596 596 -26 91 -26 329 0 420 120 433 542 692
982 601z"/>
<path d="M897 1369 c-115 -27 -224 -115 -278 -225 -44 -88 -51 -209 -19 -303
66 -196 246 -307 450 -279 136 18 280 126 280 208 0 59 -62 109 -117 96 -14
-4 -48 -26 -74 -50 -99 -89 -212 -88 -300 3 -77 80 -86 178 -25 269 74 110
238 124 326 27 79 -86 190 -59 190 47 0 32 -8 47 -45 87 -96 103 -254 152
-388 120z"/>
</g>
</svg>
