<?xml version="1.0" standalone="no"?>
<!DOCTYPE svg PUBLIC "-//W3C//DTD SVG 20010904//EN"
 "http://www.w3.org/TR/2001/REC-SVG-20010904/DTD/svg10.dtd">
<svg version="1.0" xmlns="http://www.w3.org/2000/svg"
 width="192.000000pt" height="192.000000pt" viewBox="0 0 192.000000 192.000000"
 preserveAspectRatio="xMidYMid meet">
<metadata>
Created by potrace 1.16, written by Peter Selinger 2001-2019
</metadata>
<g transform="translate(0.000000,192.000000) scale(0.100000,-0.100000)"
fill="#000000" stroke="none">
811 c445 -92 729 -532 635 -987 -62 -301 -295 -546 -601 -630 -91 -26 -329
-26 -420 0 -291 80 -516 305 -596 596 -26 91 -26 329 0 420 120 433 542 692
982 601z"/>
<path d="M857 1369 c-100 -24 -212 -109 -261 -200 -58 -106 -70 -212 -36 -321
76 -246 344 -362 575 -249 239 118 304 435 131 638 -95 110 -266 166 -409 132z
m193 -132 c104 -49 214 -211 177 -261 -24 -33 -59 -14 -80 41 -9 26 -28 60
-41 74 -35 40 -103 87 -137 94 -37 8 -52 51 -23 72 20 14 36 11 104 -20z"/>
</g>
</svg>
