<?xml version="1.0" standalone="no"?>
<!DOCTYPE svg PUBLIC "-//W3C//DTD SVG 20010904//EN"
 "http://www.w3.org/TR/2001/REC-SVG-20010904/DTD/svg10.dtd">
<svg version="1.0" xmlns="http://www.w3.org/2000/svg"
 width="192.000000pt" height="192.000000pt" viewBox="0 0 192.000000 192.000000"
 preserveAspectRatio="xMidYMid meet">
<metadata>
Created by potrace 1.16, written by Peter Selinger 2001-2019
</metadata>
<g transform="translate(0.000000,192.000000) scale(0.100000,-0.100000)"
fill="#000000" stroke="none">
811 c445 -92 729 -532 635 -987 -62 -301 -295 -546 -601 -630 -91 -26 -329
-26 -420 0 -291 80 -516 305 -596 596 -26 91 -26 329 0 420 120 433 542 692
982 601z"/>
<path d="M828 1361 c-75 -24 -116 -51 -171 -110 -156 -166 -153 -417 7 -577
162 -162 417 -162 578 -1 199 199 144 539 -109 664 -66 33 -85 37 -161 40 -65
2 -102 -2 -144 -16z m198 -132 c72 -19 95 -69 50 -114 -23 -23 -30 -24 -84
-19 -44 5 -66 2 -91 -10 -64 -34 -88 -112 -55 -181 25 -54 58 -70 143 -70 68
0 75 -2 94 -27 44 -59 -9 -108 -115 -108 -87 0 -126 16 -188 78 -62 63 -80
107 -80 193 1 99 45 178 126 225 73 43 126 51 200 33z"/>
</g>
</svg>
