<?xml version="1.0" standalone="no"?>
<!DOCTYPE svg PUBLIC "-//W3C//DTD SVG 20010904//EN"
 "http://www.w3.org/TR/2001/REC-SVG-20010904/DTD/svg10.dtd">
<svg version="1.0" xmlns="http://www.w3.org/2000/svg"
 width="192.000000pt" height="192.000000pt" viewBox="0 0 192.000000 192.000000"
 preserveAspectRatio="xMidYMid meet">
<metadata>
Created by potrace 1.16, written by Peter Selinger 2001-2019
</metadata>
<g transform="translate(0.000000,192.000000) scale(0.100000,-0.100000)"
fill="#000000" stroke="none">
811 c445 -92 729 -532 635 -987 -62 -301 -295 -546 -601 -630 -91 -26 -329
-26 -420 0 -291 80 -516 305 -596 596 -26 91 -26 329 0 420 120 433 542 692
982 601z"/>
<path d="M622 1331 c-18 -12 -37 -33 -42 -47 -17 -44 -13 -280 6 -315 27 -53
117 -75 188 -45 60 25 66 43 66 208 l0 148 -29 32 c-25 28 -35 32 -92 35 -51
3 -70 0 -97 -16z"/>
<path d="M944 1316 c-32 -32 -34 -38 -34 -101 0 -63 2 -69 34 -101 l34 -34
147 0 147 0 34 34 c32 32 34 38 34 101 0 63 -2 69 -34 101 l-34 34 -147 0
-147 0 -34 -34z"/>
<path d="M982 999 c-60 -18 -72 -54 -72 -213 l0 -138 34 -34 34 -34 147 0 147
0 34 34 34 34 0 138 c0 209 -16 225 -220 223 -58 0 -120 -5 -138 -10z"/>
<path d="M633 835 c-42 -18 -63 -61 -63 -131 0 -50 3 -59 34 -90 31 -31 39
-34 95 -34 71 0 112 17 129 55 18 39 15 136 -4 164 -33 47 -126 65 -191 36z"/>
</g>
</svg>
