<?xml version="1.0" standalone="no"?>
<!DOCTYPE svg PUBLIC "-//W3C//DTD SVG 20010904//EN"
 "http://www.w3.org/TR/2001/REC-SVG-20010904/DTD/svg10.dtd">
<svg version="1.0" xmlns="http://www.w3.org/2000/svg"
 width="192.000000pt" height="192.000000pt" viewBox="0 0 192.000000 192.000000"
 preserveAspectRatio="xMidYMid meet">
<metadata>
Created by potrace 1.16, written by Peter Selinger 2001-2019
</metadata>
<g transform="translate(0.000000,192.000000) scale(0.100000,-0.100000)"
fill="#000000" stroke="none">
811 c445 -92 729 -532 635 -987 -62 -301 -295 -546 -601 -630 -91 -26 -329
-26 -420 0 -291 80 -516 305 -596 596 -26 91 -26 329 0 420 120 433 542 692
982 601z"/>
<path d="M700 1342 c-60 -30 -80 -85 -80 -221 0 -95 3 -122 20 -157 25 -51 68
-74 140 -74 75 0 118 24 142 78 28 63 23 269 -7 322 -26 44 -76 70 -135 70
-25 0 -61 -8 -80 -18z"/>
<path d="M1030 1353 c-41 -13 -60 -28 -69 -56 -15 -41 8 -85 76 -148 148 -135
245 -117 246 46 1 114 -53 166 -173 164 -36 0 -72 -3 -80 -6z"/>
<path d="M1050 1033 c-70 -36 -108 -139 -96 -262 11 -125 74 -201 165 -201 90
0 142 55 161 172 20 116 -11 236 -73 280 -41 29 -112 34 -157 11z"/>
<path d="M703 851 c-103 -47 -104 -209 -1 -262 73 -37 171 -17 208 43 25 41
27 126 4 169 -18 36 -83 69 -134 69 -19 0 -54 -9 -77 -19z"/>
</g>
</svg>
