<?xml version="1.0" standalone="no"?>
<!DOCTYPE svg PUBLIC "-//W3C//DTD SVG 20010904//EN"
 "http://www.w3.org/TR/2001/REC-SVG-20010904/DTD/svg10.dtd">
<svg version="1.0" xmlns="http://www.w3.org/2000/svg"
 width="192.000000pt" height="192.000000pt" viewBox="0 0 192.000000 192.000000"
 preserveAspectRatio="xMidYMid meet">
<metadata>
Created by potrace 1.16, written by Peter Selinger 2001-2019
</metadata>
<g transform="translate(0.000000,192.000000) scale(0.100000,-0.100000)"
fill="#000000" stroke="none">
811 c445 -92 729 -532 635 -987 -62 -301 -295 -546 -601 -630 -91 -26 -329
-26 -420 0 -291 80 -516 305 -596 596 -26 91 -26 329 0 420 120 433 542 692
982 601z"/>
<path d="M612 1333 c-60 -29 -62 -40 -62 -374 l0 -301 34 -34 34 -34 331 0
c351 0 366 2 398 49 16 22 18 56 21 246 4 244 -2 279 -49 319 -30 26 -33 26
-195 26 l-165 0 -52 49 c-29 26 -62 53 -74 60 -34 17 -182 14 -221 -6z m653
-218 l0 -30 -117 -3 c-110 -2 -118 -1 -128 18 -9 16 -8 25 1 36 9 12 36 14
128 12 l116 -3 0 -30z m-538 -86 c8 -8 17 -7 32 3 17 11 25 11 42 0 15 -10 24
-11 32 -3 26 26 37 11 37 -53 0 -55 -3 -67 -26 -90 -15 -14 -31 -26 -35 -26
-5 0 -9 -11 -9 -25 l0 -26 28 20 c15 11 38 21 52 23 23 3 25 -1 28 -37 3 -51
-24 -96 -71 -118 -43 -21 -67 -21 -112 -3 -46 20 -76 70 -73 121 3 36 5 40 28
36 14 -1 37 -12 52 -23 l28 -19 0 24 c0 16 -8 28 -26 35 -30 14 -54 67 -54
120 0 51 20 68 47 41z"/>
</g>
</svg>
