<?xml version="1.0" standalone="no"?>
<!DOCTYPE svg PUBLIC "-//W3C//DTD SVG 20010904//EN"
 "http://www.w3.org/TR/2001/REC-SVG-20010904/DTD/svg10.dtd">
<svg version="1.0" xmlns="http://www.w3.org/2000/svg"
 width="192.000000pt" height="192.000000pt" viewBox="0 0 192.000000 192.000000"
 preserveAspectRatio="xMidYMid meet">
<metadata>
Created by potrace 1.16, written by Peter Selinger 2001-2019
</metadata>
<g transform="translate(0.000000,192.000000) scale(0.100000,-0.100000)"
fill="#000000" stroke="none">
811 c445 -92 729 -532 635 -987 -62 -301 -295 -546 -601 -630 -91 -26 -329
-26 -420 0 -291 80 -516 305 -596 596 -26 91 -26 329 0 420 120 433 542 692
982 601z"/>
<path d="M905 1367 c-161 -42 -283 -174 -309 -333 l-7 -41 78 -5 c82 -5 129
-22 175 -65 l26 -25 -10 40 c-8 33 -6 48 10 86 36 79 119 107 208 70 107 -45
217 49 185 157 -28 93 -213 153 -356 116z"/>
<path d="M592 907 c11 -130 95 -255 211 -312 72 -35 163 -51 219 -39 l43 10
-31 16 c-67 36 -118 113 -144 216 -13 52 -68 116 -124 144 -25 13 -69 23 -110
26 l-69 5 5 -66z m144 -26 c48 -22 77 -59 94 -121 7 -25 21 -62 31 -82 24 -47
11 -50 -52 -10 -71 46 -127 123 -144 200 -8 39 8 42 71 13z"/>
<path d="M915 795 c41 -116 85 -174 163 -214 34 -18 113 11 151 54 102 116
-19 261 -166 200 -48 -20 -81 -19 -128 5 -22 11 -40 20 -41 20 -1 0 9 -29 21
-65z"/>
</g>
</svg>
