<?xml version="1.0" standalone="no"?>
<!DOCTYPE svg PUBLIC "-//W3C//DTD SVG 20010904//EN"
 "http://www.w3.org/TR/2001/REC-SVG-20010904/DTD/svg10.dtd">
<svg version="1.0" xmlns="http://www.w3.org/2000/svg"
 width="192.000000pt" height="192.000000pt" viewBox="0 0 192.000000 192.000000"
 preserveAspectRatio="xMidYMid meet">
<metadata>
Created by potrace 1.16, written by Peter Selinger 2001-2019
</metadata>
<g transform="translate(0.000000,192.000000) scale(0.100000,-0.100000)"
fill="#000000" stroke="none">
811 c445 -92 729 -532 635 -987 -62 -301 -295 -546 -601 -630 -91 -26 -329
-26 -420 0 -291 80 -516 305 -596 596 -26 91 -26 329 0 420 120 433 542 692
982 601z"/>
<path d="M1200 1353 c-8 -3 -58 -48 -111 -100 -83 -82 -97 -92 -109 -79 -25
32 -100 10 -100 -28 0 -7 9 -25 21 -40 l21 -27 -145 -148 c-128 -131 -147
-154 -167 -209 -12 -34 -29 -67 -36 -73 -17 -14 -18 -51 -2 -67 16 -16 53 -15
67 2 6 7 37 23 69 34 49 19 76 40 202 167 80 80 148 145 153 145 4 0 21 -10
37 -21 28 -21 30 -21 54 -5 28 18 33 45 15 78 -10 18 0 31 85 118 92 93 96 99
96 141 0 25 -7 55 -16 67 -28 41 -89 61 -134 45z"/>
</g>
</svg>
