<?xml version="1.0" standalone="no"?>
<!DOCTYPE svg PUBLIC "-//W3C//DTD SVG 20010904//EN"
 "http://www.w3.org/TR/2001/REC-SVG-20010904/DTD/svg10.dtd">
<svg version="1.0" xmlns="http://www.w3.org/2000/svg"
 width="192.000000pt" height="192.000000pt" viewBox="0 0 192.000000 192.000000"
 preserveAspectRatio="xMidYMid meet">
<metadata>
Created by potrace 1.16, written by Peter Selinger 2001-2019
</metadata>
<g transform="translate(0.000000,192.000000) scale(0.100000,-0.100000)"
fill="#000000" stroke="none">
811 c445 -92 729 -532 635 -987 -62 -301 -295 -546 -601 -630 -91 -26 -329
-26 -420 0 -291 80 -516 305 -596 596 -26 91 -26 329 0 420 120 433 542 692
982 601z"/>
<path d="M833 1356 c-236 -77 -353 -349 -244 -570 38 -77 119 -157 198 -194
52 -24 69 -27 168 -27 95 0 117 3 163 24 49 22 72 45 72 71 0 13 -77 98 -102
111 -12 7 -33 4 -68 -7 -184 -60 -345 141 -247 308 50 86 152 125 247 94 35
-11 56 -14 68 -7 25 13 102 98 102 111 0 27 -23 49 -72 70 -66 29 -219 38
-285 16z"/>
<path d="M1192 1145 c-45 -45 -53 -59 -47 -77 25 -82 26 -108 10 -163 -11 -38
-13 -61 -6 -73 13 -25 98 -102 111 -102 27 0 49 24 71 77 20 48 24 76 24 158
0 82 -4 110 -24 158 -39 94 -63 98 -139 22z"/>
</g>
</svg>
