<?xml version="1.0" standalone="no"?>
<!DOCTYPE svg PUBLIC "-//W3C//DTD SVG 20010904//EN"
 "http://www.w3.org/TR/2001/REC-SVG-20010904/DTD/svg10.dtd">
<svg version="1.0" xmlns="http://www.w3.org/2000/svg"
 width="192.000000pt" height="192.000000pt" viewBox="0 0 192.000000 192.000000"
 preserveAspectRatio="xMidYMid meet">
<metadata>
Created by potrace 1.16, written by Peter Selinger 2001-2019
</metadata>
<g transform="translate(0.000000,192.000000) scale(0.100000,-0.100000)"
fill="#000000" stroke="none">
811 c445 -92 729 -532 635 -987 -62 -301 -295 -546 -601 -630 -91 -26 -329
-26 -420 0 -291 80 -516 305 -596 596 -26 91 -26 329 0 420 120 433 542 692
982 601z"/>
<path d="M1050 1392 c-46 -6 -412 -123 -436 -139 -14 -9 -36 -34 -49 -57 -43
-75 -42 -92 25 -316 34 -113 71 -220 82 -238 l20 -32 32 27 c18 16 97 85 175
155 156 140 130 126 368 195 35 10 63 22 63 27 0 5 -20 73 -45 151 -41 129
-49 146 -85 179 -22 20 -43 36 -48 36 -4 0 -23 4 -42 8 -19 4 -46 6 -60 4z"/>
<path d="M1199 906 c-75 -23 -147 -51 -160 -62 -60 -47 -299 -268 -299 -276 0
-14 48 -28 97 -28 53 0 386 100 446 133 43 24 81 82 91 137 6 36 -18 141 -32
139 -4 0 -68 -20 -143 -43z"/>
</g>
</svg>
