<?xml version="1.0" standalone="no"?>
<!DOCTYPE svg PUBLIC "-//W3C//DTD SVG 20010904//EN"
 "http://www.w3.org/TR/2001/REC-SVG-20010904/DTD/svg10.dtd">
<svg version="1.0" xmlns="http://www.w3.org/2000/svg"
 width="192.000000pt" height="192.000000pt" viewBox="0 0 192.000000 192.000000"
 preserveAspectRatio="xMidYMid meet">
<metadata>
Created by potrace 1.16, written by Peter Selinger 2001-2019
</metadata>
<g transform="translate(0.000000,192.000000) scale(0.100000,-0.100000)"
fill="#000000" stroke="none">
811 c445 -92 729 -532 635 -987 -62 -301 -295 -546 -601 -630 -91 -26 -329
-26 -420 0 -291 80 -516 305 -596 596 -26 91 -26 329 0 420 120 433 542 692
982 601z"/>
<path d="M904 1310 c-31 -12 -72 -66 -79 -103 -4 -18 -5 -140 -3 -272 3 -216
5 -243 22 -268 52 -77 180 -75 221 3 12 24 15 77 15 298 0 258 -1 270 -21 296
-38 49 -102 68 -155 46z"/>
<path d="M608 1214 c-36 -19 -58 -63 -58 -115 0 -33 6 -47 34 -75 28 -28 42
-34 75 -34 56 0 95 22 115 64 20 42 20 57 2 101 -27 64 -108 92 -168 59z"/>
<path d="M1126 1204 c-11 -29 -7 -199 6 -212 18 -18 202 -16 217 2 8 9 11 50
9 117 l-3 104 -111 3 c-95 2 -113 0 -118 -14z"/>
<path d="M554 927 c-2 -7 -3 -60 -2 -118 l3 -104 105 -3 c129 -3 130 -2 130
116 0 122 0 122 -126 122 -77 0 -106 -3 -110 -13z"/>
<path d="M1171 915 c-82 -70 -48 -198 56 -212 78 -10 133 40 133 120 0 42 -5
54 -34 83 -29 29 -41 34 -79 34 -34 0 -53 -6 -76 -25z"/>
</g>
</svg>
