<?xml version="1.0" standalone="no"?>
<!DOCTYPE svg PUBLIC "-//W3C//DTD SVG 20010904//EN"
 "http://www.w3.org/TR/2001/REC-SVG-20010904/DTD/svg10.dtd">
<svg version="1.0" xmlns="http://www.w3.org/2000/svg"
 width="192.000000pt" height="192.000000pt" viewBox="0 0 192.000000 192.000000"
 preserveAspectRatio="xMidYMid meet">
<metadata>
Created by potrace 1.16, written by Peter Selinger 2001-2019
</metadata>
<g transform="translate(0.000000,192.000000) scale(0.100000,-0.100000)"
fill="#000000" stroke="none">
810 c245 -63 441 -223 549 -451 55 -116 75 -212 75 -354 0 -141 -20 -238 -75
-352 -86 -182 -215 -312 -396 -398 -116 -55 -212 -75 -354 -75 -142 0 -238 20
-354 75 -228 108 -388 304 -451 549 -28 110 -28 292 0 402 76 298 303 526 600
603 106 28 298 28 406 1z"/>
<path d="M699 1172 c-20 -4 -52 -59 -45 -78 4 -11 36 -14 170 -14 l165 0 16
30 c20 38 19 60 -2 61 -49 3 -291 4 -304 1z"/>
<path d="M1073 1122 c-15 -21 -59 -89 -98 -150 l-70 -112 -97 0 c-54 0 -98 2
-98 5 0 3 7 17 16 30 15 23 23 25 88 25 69 0 72 1 89 29 35 60 33 61 -142 61
l-159 0 -20 -32 c-21 -33 -19 -58 3 -58 26 0 23 -16 -12 -73 -19 -32 -32 -64
-29 -72 4 -13 39 -15 211 -15 l206 0 76 117 76 116 18 -24 c25 -32 24 -39 -5
-39 -16 0 -31 -10 -44 -32 -31 -48 -21 -58 62 -58 l71 -1 27 -39 c24 -35 33
-40 67 -40 74 0 71 11 -57 211 -65 101 -125 185 -134 187 -10 2 -28 -12 -45
-36z"/>
</g>
</svg>
