<?xml version="1.0" standalone="no"?>
<!DOCTYPE svg PUBLIC "-//W3C//DTD SVG 20010904//EN"
 "http://www.w3.org/TR/2001/REC-SVG-20010904/DTD/svg10.dtd">
<svg version="1.0" xmlns="http://www.w3.org/2000/svg"
 width="192.000000pt" height="192.000000pt" viewBox="0 0 192.000000 192.000000"
 preserveAspectRatio="xMidYMid meet">
<metadata>
Created by potrace 1.16, written by Peter Selinger 2001-2019
</metadata>
<g transform="translate(0.000000,192.000000) scale(0.100000,-0.100000)"
fill="#000000" stroke="none">
811 c445 -92 729 -532 635 -987 -62 -301 -295 -546 -601 -630 -91 -26 -329
-26 -420 0 -291 80 -516 305 -596 596 -26 91 -26 329 0 420 120 433 542 692
982 601z"/>
<path d="M546 1248 c-14 -19 -16 -64 -16 -285 0 -330 -16 -303 185 -303 178 0
185 4 185 105 0 60 -2 65 -24 71 -13 3 -38 4 -57 2 -29 -2 -34 -7 -37 -30 -3
-27 -5 -28 -68 -28 l-64 0 0 185 0 185 65 0 c63 0 65 -1 65 -25 0 -25 2 -26
58 -23 l57 3 3 58 c2 41 -2 66 -13 83 -15 24 -18 24 -170 24 -148 0 -154 -1
-169 -22z"/>
<path d="M992 1213 l3 -58 58 -3 57 -3 0 -240 0 -240 58 3 57 3 3 237 2 237
53 3 52 3 3 58 3 57 -176 0 -176 0 3 -57z"/>
</g>
</svg>
