<?xml version="1.0" standalone="no"?>
<!DOCTYPE svg PUBLIC "-//W3C//DTD SVG 20010904//EN"
 "http://www.w3.org/TR/2001/REC-SVG-20010904/DTD/svg10.dtd">
<svg version="1.0" xmlns="http://www.w3.org/2000/svg"
 width="192.000000pt" height="192.000000pt" viewBox="0 0 192.000000 192.000000"
 preserveAspectRatio="xMidYMid meet">
<metadata>
Created by potrace 1.16, written by Peter Selinger 2001-2019
</metadata>
<g transform="translate(0.000000,192.000000) scale(0.100000,-0.100000)"
fill="#000000" stroke="none">
811 c445 -92 729 -532 635 -987 -62 -301 -295 -546 -601 -630 -91 -26 -329
-26 -420 0 -291 80 -516 305 -596 596 -26 91 -26 329 0 420 120 433 542 692
982 601z"/>
<path d="M930 1360 c-137 -9 -212 -42 -293 -130 -75 -81 -100 -147 -101 -266
-1 -85 1 -95 37 -166 60 -122 158 -195 297 -220 120 -23 270 30 354 124 51 56
65 90 46 113 -22 26 -46 16 -89 -36 -45 -53 -94 -88 -148 -107 l-33 -11 0 123
c0 86 -5 136 -16 170 -16 47 -17 47 -57 44 -38 -3 -41 -5 -53 -48 -8 -26 -14
-94 -14 -162 0 -132 -1 -133 -69 -98 -115 58 -173 155 -172 286 1 158 126 286
292 301 53 5 62 4 75 -16 18 -25 70 -29 99 -7 22 16 25 71 4 90 -22 21 -45 23
-159 16z"/>
<path d="M911 1083 c-15 -52 -15 -53 19 -53 34 0 34 -1 18 51 -14 49 -24 49
-37 2z"/>
</g>
</svg>
