<?xml version="1.0" standalone="no"?>
<!DOCTYPE svg PUBLIC "-//W3C//DTD SVG 20010904//EN"
 "http://www.w3.org/TR/2001/REC-SVG-20010904/DTD/svg10.dtd">
<svg version="1.0" xmlns="http://www.w3.org/2000/svg"
 width="192.000000pt" height="192.000000pt" viewBox="0 0 192.000000 192.000000"
 preserveAspectRatio="xMidYMid meet">
<metadata>
Created by potrace 1.16, written by Peter Selinger 2001-2019
</metadata>
<g transform="translate(0.000000,192.000000) scale(0.100000,-0.100000)"
fill="#000000" stroke="none">
811 c445 -92 729 -532 635 -987 -62 -301 -295 -546 -601 -630 -91 -26 -329
-26 -420 0 -291 80 -516 305 -596 596 -26 91 -26 329 0 420 120 433 542 692
982 601z"/>
<path d="M883 1350 c-87 -53 -82 -189 8 -236 22 -11 47 -15 81 -12 136 14 168
191 46 254 -38 20 -97 17 -135 -6z"/>
<path d="M615 1081 c-46 -28 -66 -56 -72 -99 -11 -81 45 -143 140 -156 52 -6
92 -28 109 -59 6 -11 17 -48 25 -81 21 -90 63 -126 147 -126 73 0 136 69 136
149 0 57 78 121 147 121 65 0 123 65 123 137 0 102 -119 167 -207 113 -43 -26
-59 -54 -72 -124 -6 -33 -19 -68 -28 -79 -45 -49 -124 -61 -180 -27 -39 23
-50 44 -63 112 -12 63 -31 93 -73 118 -40 25 -93 25 -132 1z"/>
</g>
</svg>
