<?xml version="1.0" standalone="no"?>
<!DOCTYPE svg PUBLIC "-//W3C//DTD SVG 20010904//EN"
 "http://www.w3.org/TR/2001/REC-SVG-20010904/DTD/svg10.dtd">
<svg version="1.0" xmlns="http://www.w3.org/2000/svg"
 width="192.000000pt" height="192.000000pt" viewBox="0 0 192.000000 192.000000"
 preserveAspectRatio="xMidYMid meet">
<metadata>
Created by potrace 1.16, written by Peter Selinger 2001-2019
</metadata>
<g transform="translate(0.000000,192.000000) scale(0.100000,-0.100000)"
fill="#000000" stroke="none">
811 c445 -92 729 -532 635 -987 -62 -301 -295 -546 -601 -630 -91 -26 -329
-26 -420 0 -291 80 -516 305 -596 596 -26 91 -26 329 0 420 120 433 542 692
982 601z"/>
<path d="M702 1362 c-16 -16 -40 -92 -94 -294 -10 -39 -10 -57 0 -95 76 -289
87 -313 138 -313 l25 0 -21 -30 c-25 -36 -23 -64 6 -68 15 -2 30 10 55 47 l34
50 107 1 107 0 33 -44 c39 -53 56 -62 76 -42 13 13 12 19 -7 50 l-23 36 24 0
c43 0 63 38 107 202 l42 158 -42 157 c-26 96 -50 167 -62 181 -20 22 -24 22
-254 22 -212 0 -235 -2 -251 -18z m473 -185 c32 -117 32 -117 11 -122 -12 -2
-68 -13 -126 -24 l-105 -19 -123 23 c-68 12 -124 24 -126 26 -3 3 45 187 59
227 4 10 47 12 191 10 l187 -3 32 -118z m-197 -348 c2 -83 0 -98 -14 -103 -33
-13 -44 12 -44 98 0 84 10 109 40 104 12 -3 16 -23 18 -99z"/>
<path d="M811 1151 c-19 -35 7 -42 150 -39 l134 3 0 25 0 25 -137 3 c-127 2
-138 1 -147 -17z"/>
</g>
</svg>
