<?xml version="1.0" standalone="no"?>
<!DOCTYPE svg PUBLIC "-//W3C//DTD SVG 20010904//EN"
 "http://www.w3.org/TR/2001/REC-SVG-20010904/DTD/svg10.dtd">
<svg version="1.0" xmlns="http://www.w3.org/2000/svg"
 width="192.000000pt" height="192.000000pt" viewBox="0 0 192.000000 192.000000"
 preserveAspectRatio="xMidYMid meet">
<metadata>
Created by potrace 1.16, written by Peter Selinger 2001-2019
</metadata>
<g transform="translate(0.000000,192.000000) scale(0.100000,-0.100000)"
fill="#000000" stroke="none">
811 c445 -92 729 -532 635 -987 -62 -301 -295 -546 -601 -630 -91 -26 -329
-26 -420 0 -291 80 -516 305 -596 596 -26 91 -26 329 0 420 120 433 542 692
982 601z"/>
<path d="M955 1277 c-63 -21 -97 -42 -142 -89 -62 -63 -87 -127 -87 -218 0
-92 23 -148 89 -219 63 -67 129 -95 225 -96 123 0 169 38 114 96 -25 26 -33
28 -95 27 -80 -1 -128 20 -172 75 -53 64 -50 180 5 243 43 49 83 67 148 67 64
0 106 -19 145 -65 38 -46 47 -74 46 -149 0 -60 2 -68 28 -93 58 -55 95 -10 95
114 0 56 -6 88 -23 126 -28 64 -101 136 -165 165 -61 26 -157 34 -211 16z"/>
<path d="M556 1244 c-14 -13 -16 -53 -16 -283 0 -194 3 -270 12 -279 7 -7 31
-12 55 -12 32 0 45 5 53 19 6 12 10 120 10 280 0 288 -1 291 -65 291 -18 0
-41 -7 -49 -16z"/>
<path d="M1107 902 c-15 -15 -27 -35 -27 -43 0 -20 201 -219 222 -219 24 0 68
57 61 78 -9 27 -196 212 -213 212 -9 0 -28 -13 -43 -28z"/>
</g>
</svg>
