<?xml version="1.0" standalone="no"?>
<!DOCTYPE svg PUBLIC "-//W3C//DTD SVG 20010904//EN"
 "http://www.w3.org/TR/2001/REC-SVG-20010904/DTD/svg10.dtd">
<svg version="1.0" xmlns="http://www.w3.org/2000/svg"
 width="192.000000pt" height="192.000000pt" viewBox="0 0 192.000000 192.000000"
 preserveAspectRatio="xMidYMid meet">
<metadata>
Created by potrace 1.16, written by Peter Selinger 2001-2019
</metadata>
<g transform="translate(0.000000,192.000000) scale(0.100000,-0.100000)"
fill="#000000" stroke="none">
810 c245 -63 441 -223 549 -451 55 -116 75 -212 75 -354 0 -141 -20 -238 -75
-352 -86 -182 -215 -312 -396 -398 -116 -55 -212 -75 -354 -75 -142 0 -238 20
-354 75 -228 108 -388 304 -451 549 -28 110 -28 292 0 402 76 298 303 526 600
603 106 28 298 28 406 1z"/>
<path d="M897 1386 c-99 -27 -157 -113 -157 -236 0 -85 20 -138 66 -182 107
-100 283 -66 345 67 24 51 25 170 4 223 -43 103 -152 157 -258 128z"/>
<path d="M826 824 c-83 -20 -199 -78 -230 -115 -40 -48 -32 -99 21 -127 31
-17 645 -17 676 0 53 28 61 79 21 127 -32 38 -147 95 -234 115 -80 19 -176 19
-254 0z"/>
</g>
</svg>
