<?xml version="1.0" standalone="no"?>
<!DOCTYPE svg PUBLIC "-//W3C//DTD SVG 20010904//EN"
 "http://www.w3.org/TR/2001/REC-SVG-20010904/DTD/svg10.dtd">
<svg version="1.0" xmlns="http://www.w3.org/2000/svg"
 width="192.000000pt" height="192.000000pt" viewBox="0 0 192.000000 192.000000"
 preserveAspectRatio="xMidYMid meet">
<metadata>
Created by potrace 1.16, written by Peter Selinger 2001-2019
</metadata>
<g transform="translate(0.000000,192.000000) scale(0.100000,-0.100000)"
fill="#000000" stroke="none">
811 c445 -92 729 -532 635 -987 -62 -301 -295 -546 -601 -630 -91 -26 -329
-26 -420 0 -291 80 -516 305 -596 596 -26 91 -26 329 0 420 120 433 542 692
982 601z"/>
<path d="M610 1334 c-29 -12 -40 -38 -40 -99 0 -82 14 -95 102 -95 84 0 98 14
98 96 0 82 -13 97 -86 101 -33 1 -66 0 -74 -3z"/>
<path d="M850 1334 c-29 -12 -40 -38 -40 -94 0 -85 15 -100 100 -100 90 0 100
10 100 99 0 50 -4 72 -16 82 -17 14 -118 23 -144 13z"/>
<path d="M1082 1328 c-17 -17 -17 -399 0 -416 7 -7 24 -12 38 -12 48 0 50 10
50 220 0 210 -2 220 -50 220 -14 0 -31 -5 -38 -12z"/>
<path d="M1242 1328 c-17 -17 -17 -399 0 -416 7 -7 24 -12 38 -12 48 0 50 10
50 220 0 210 -2 220 -50 220 -14 0 -31 -5 -38 -12z"/>
<path d="M580 1071 c-5 -11 -10 -46 -10 -79 0 -79 15 -92 103 -92 85 0 97 11
97 91 0 93 -6 99 -100 99 -68 0 -81 -3 -90 -19z"/>
<path d="M820 1071 c-16 -30 -12 -123 6 -149 13 -19 24 -22 84 -22 90 0 100
10 100 99 0 39 -5 72 -12 79 -7 7 -43 12 -90 12 -66 0 -79 -3 -88 -19z"/>
<path d="M590 821 c-14 -27 -13 -47 6 -65 13 -14 60 -16 359 -16 372 0 375 0
375 54 0 45 -4 46 -377 46 -338 0 -353 -1 -363 -19z"/>
<path d="M602 684 c-12 -8 -22 -26 -22 -39 0 -53 16 -55 375 -55 283 0 334 2
353 16 27 18 29 55 4 77 -17 15 -56 17 -353 17 -287 0 -338 -2 -357 -16z"/>
</g>
</svg>
