<?xml version="1.0" standalone="no"?>
<!DOCTYPE svg PUBLIC "-//W3C//DTD SVG 20010904//EN"
 "http://www.w3.org/TR/2001/REC-SVG-20010904/DTD/svg10.dtd">
<svg version="1.0" xmlns="http://www.w3.org/2000/svg"
 width="192.000000pt" height="192.000000pt" viewBox="0 0 192.000000 192.000000"
 preserveAspectRatio="xMidYMid meet">
<metadata>
Created by potrace 1.16, written by Peter Selinger 2001-2019
</metadata>
<g transform="translate(0.000000,192.000000) scale(0.100000,-0.100000)"
fill="#000000" stroke="none">
810 c245 -63 441 -223 549 -451 55 -116 75 -212 75 -354 0 -141 -20 -238 -75
-352 -86 -182 -215 -312 -396 -398 -116 -55 -212 -75 -354 -75 -142 0 -238 20
-354 75 -228 108 -388 304 -451 549 -28 110 -28 292 0 402 76 298 303 526 600
603 106 28 298 28 406 1z"/>
<path d="M865 1373 c-92 -48 -129 -120 -124 -241 5 -92 32 -144 101 -189 36
-24 52 -28 113 -28 61 0 77 4 113 28 68 44 96 97 101 185 2 41 -2 92 -8 114
-15 48 -63 103 -112 129 -47 24 -141 25 -184 2z"/>
<path d="M834 826 c-139 -40 -232 -93 -254 -147 -12 -27 -11 -36 1 -58 28 -49
42 -51 374 -51 332 0 346 2 374 51 33 60 -42 133 -189 185 -93 32 -230 41
-306 20z"/>
</g>
</svg>
