<?xml version="1.0" standalone="no"?>
<!DOCTYPE svg PUBLIC "-//W3C//DTD SVG 20010904//EN"
 "http://www.w3.org/TR/2001/REC-SVG-20010904/DTD/svg10.dtd">
<svg version="1.0" xmlns="http://www.w3.org/2000/svg"
 width="192.000000pt" height="192.000000pt" viewBox="0 0 192.000000 192.000000"
 preserveAspectRatio="xMidYMid meet">
<metadata>
Created by potrace 1.16, written by Peter Selinger 2001-2019
</metadata>
<g transform="translate(0.000000,192.000000) scale(0.100000,-0.100000)"
fill="#000000" stroke="none">
810 c245 -63 441 -223 549 -451 55 -116 75 -212 75 -354 0 -141 -20 -238 -75
-352 -86 -182 -215 -312 -396 -398 -116 -55 -212 -75 -354 -75 -142 0 -238 20
-354 75 -228 108 -388 304 -451 549 -28 110 -28 292 0 402 76 298 303 526 600
603 106 28 298 28 406 1z"/>
<path d="M865 1374 c-45 -23 -85 -65 -106 -109 -25 -55 -25 -175 0 -230 75
-166 316 -165 392 0 25 54 25 175 0 230 -19 43 -78 100 -118 116 -38 14 -135
11 -168 -7z"/>
<path d="M829 825 c-119 -30 -243 -103 -255 -150 -9 -34 12 -80 42 -94 35 -15
643 -15 678 0 33 15 52 62 40 97 -12 36 -112 102 -199 131 -88 29 -226 37
-306 16z"/>
</g>
</svg>
