<?xml version="1.0" standalone="no"?>
<!DOCTYPE svg PUBLIC "-//W3C//DTD SVG 20010904//EN"
 "http://www.w3.org/TR/2001/REC-SVG-20010904/DTD/svg10.dtd">
<svg version="1.0" xmlns="http://www.w3.org/2000/svg"
 width="192.000000pt" height="192.000000pt" viewBox="0 0 192.000000 192.000000"
 preserveAspectRatio="xMidYMid meet">
<metadata>
Created by potrace 1.16, written by Peter Selinger 2001-2019
</metadata>
<g transform="translate(0.000000,192.000000) scale(0.100000,-0.100000)"
fill="#000000" stroke="none">
810 c245 -63 441 -223 549 -451 55 -116 75 -212 75 -354 0 -141 -20 -238 -75
-352 -86 -182 -215 -312 -396 -398 -116 -55 -212 -75 -354 -75 -142 0 -238 20
-354 75 -228 108 -388 304 -451 549 -28 110 -28 292 0 402 76 298 303 526 600
603 106 28 298 28 406 1z"/>
<path d="M888 1384 c-54 -16 -113 -70 -134 -120 -21 -49 -18 -180 5 -229 77
-166 308 -167 393 -1 17 32 19 54 16 131 -3 86 -5 97 -34 137 -56 77 -157 111
-246 82z"/>
<path d="M800 817 c-135 -41 -230 -107 -230 -162 0 -82 14 -85 385 -85 331 0
363 4 379 45 21 55 -12 105 -101 153 -136 72 -294 90 -433 49z"/>
</g>
</svg>
