<?xml version="1.0" standalone="no"?>
<!DOCTYPE svg PUBLIC "-//W3C//DTD SVG 20010904//EN"
 "http://www.w3.org/TR/2001/REC-SVG-20010904/DTD/svg10.dtd">
<svg version="1.0" xmlns="http://www.w3.org/2000/svg"
 width="192.000000pt" height="192.000000pt" viewBox="0 0 192.000000 192.000000"
 preserveAspectRatio="xMidYMid meet">
<metadata>
Created by potrace 1.16, written by Peter Selinger 2001-2019
</metadata>
<g transform="translate(0.000000,192.000000) scale(0.100000,-0.100000)"
fill="#000000" stroke="none">
810 c245 -63 441 -223 549 -451 55 -116 75 -212 75 -354 0 -141 -20 -238 -75
-352 -86 -182 -215 -312 -396 -398 -116 -55 -212 -75 -354 -75 -142 0 -238 20
-354 75 -228 108 -388 304 -451 549 -28 110 -28 292 0 402 76 298 303 526 600
603 106 28 298 28 406 1z"/>
<path d="M945 1394 c-6 -1 -26 -5 -46 -8 -46 -8 -116 -68 -140 -120 -25 -56
-25 -176 0 -231 75 -166 316 -165 392 0 25 54 25 175 0 230 -16 36 -90 114
-109 115 -4 1 -25 4 -47 9 -22 4 -45 6 -50 5z"/>
<path d="M826 824 c-79 -19 -178 -67 -221 -108 -51 -48 -46 -103 12 -134 31
-17 645 -17 676 0 58 31 63 86 12 134 -105 99 -318 147 -479 108z"/>
</g>
</svg>
