<?xml version="1.0" standalone="no"?>
<!DOCTYPE svg PUBLIC "-//W3C//DTD SVG 20010904//EN"
 "http://www.w3.org/TR/2001/REC-SVG-20010904/DTD/svg10.dtd">
<svg version="1.0" xmlns="http://www.w3.org/2000/svg"
 width="192.000000pt" height="192.000000pt" viewBox="0 0 192.000000 192.000000"
 preserveAspectRatio="xMidYMid meet">
<metadata>
Created by potrace 1.16, written by Peter Selinger 2001-2019
</metadata>
<g transform="translate(0.000000,192.000000) scale(0.100000,-0.100000)"
fill="#000000" stroke="none">
811 c445 -92 729 -532 635 -987 -62 -301 -295 -546 -601 -630 -91 -26 -329
-26 -420 0 -291 80 -516 305 -596 596 -26 91 -26 329 0 420 120 433 542 692
982 601z"/>
<path d="M932 1368 c-6 -7 -18 -42 -27 -77 -44 -171 -100 -227 -275 -276 -67
-18 -75 -23 -78 -47 -3 -24 1 -28 40 -38 210 -54 280 -121 317 -302 7 -31 18
-61 25 -67 20 -16 45 -3 52 28 30 135 72 215 138 266 37 28 156 74 192 75 26
0 47 23 42 46 -2 11 -29 24 -86 40 -96 28 -126 42 -172 81 -39 32 -85 124
-101 202 -13 61 -24 81 -44 81 -7 0 -17 -6 -23 -12z"/>
</g>
</svg>
