<?xml version="1.0" standalone="no"?>
<!DOCTYPE svg PUBLIC "-//W3C//DTD SVG 20010904//EN"
 "http://www.w3.org/TR/2001/REC-SVG-20010904/DTD/svg10.dtd">
<svg version="1.0" xmlns="http://www.w3.org/2000/svg"
 width="192.000000pt" height="192.000000pt" viewBox="0 0 192.000000 192.000000"
 preserveAspectRatio="xMidYMid meet">
<metadata>
Created by potrace 1.16, written by Peter Selinger 2001-2019
</metadata>
<g transform="translate(0.000000,192.000000) scale(0.100000,-0.100000)"
fill="#000000" stroke="none">
811 c445 -92 729 -532 635 -987 -62 -301 -295 -546 -601 -630 -91 -26 -329
-26 -420 0 -291 80 -516 305 -596 596 -26 91 -26 329 0 420 120 433 542 692
982 601z"/>
<path d="M898 1354 c-35 -18 -48 -43 -48 -88 l0 -35 -36 24 c-52 35 -104 34
-146 -4 -28 -25 -33 -36 -33 -74 0 -33 6 -52 23 -69 30 -32 28 -38 -11 -38
-42 0 -75 -24 -94 -67 -27 -66 23 -143 93 -143 40 0 42 -6 12 -38 -17 -17 -23
-36 -23 -69 0 -38 5 -49 33 -74 43 -39 101 -40 149 -3 l33 25 0 -36 c0 -47 14
-71 50 -90 37 -19 73 -19 110 0 36 19 50 43 50 90 l0 36 33 -25 c48 -37 106
-36 149 3 28 25 33 36 33 74 0 33 -6 52 -22 69 -31 32 -29 38 11 38 70 0 120
77 93 143 -19 43 -52 67 -94 67 -39 0 -41 6 -10 38 16 17 22 36 22 69 0 38 -5
49 -33 74 -42 38 -94 39 -146 4 l-36 -24 0 35 c0 46 -14 70 -50 89 -36 19 -77
19 -112 -1z"/>
</g>
</svg>
