<?xml version="1.0" standalone="no"?>
<!DOCTYPE svg PUBLIC "-//W3C//DTD SVG 20010904//EN"
 "http://www.w3.org/TR/2001/REC-SVG-20010904/DTD/svg10.dtd">
<svg version="1.0" xmlns="http://www.w3.org/2000/svg"
 width="192.000000pt" height="192.000000pt" viewBox="0 0 192.000000 192.000000"
 preserveAspectRatio="xMidYMid meet">
<metadata>
Created by potrace 1.16, written by Peter Selinger 2001-2019
</metadata>
<g transform="translate(0.000000,192.000000) scale(0.100000,-0.100000)"
fill="#000000" stroke="none">
811 c445 -92 729 -532 635 -987 -62 -301 -295 -546 -601 -630 -91 -26 -329
-26 -420 0 -291 80 -516 305 -596 596 -26 91 -26 329 0 420 120 433 542 692
982 601z"/>
<path d="M898 1373 c-26 -6 -23 -50 3 -58 35 -11 17 -37 -36 -52 -27 -8 -62
-24 -78 -35 -23 -16 -30 -18 -43 -7 -10 8 -12 15 -4 23 16 16 12 43 -7 50 -12
5 -32 -8 -67 -43 -48 -48 -50 -52 -33 -68 14 -14 21 -15 36 -6 15 9 22 9 30 0
7 -9 2 -29 -19 -71 -17 -32 -30 -69 -30 -82 0 -17 -6 -24 -20 -24 -11 0 -20 4
-20 9 0 17 -30 40 -46 34 -12 -4 -14 -20 -12 -77 3 -63 5 -71 23 -71 11 0 24
10 30 23 15 34 37 22 49 -28 7 -26 22 -63 35 -83 19 -31 21 -40 10 -53 -8 -10
-15 -12 -23 -4 -15 15 -43 12 -50 -7 -8 -20 69 -103 96 -103 24 0 34 26 18 46
-10 11 -10 18 -2 26 9 9 25 5 64 -15 29 -15 68 -30 86 -33 37 -7 45 -38 11
-47 -15 -4 -20 -12 -17 -29 3 -22 7 -23 73 -23 65 0 70 2 73 22 3 17 -3 24
-22 29 -34 8 -36 44 -3 44 13 0 51 14 85 31 34 17 66 28 71 25 5 -4 7 -22 4
-41 -5 -32 -3 -35 19 -35 15 0 38 15 62 39 46 47 46 76 -1 76 -17 0 -35 3 -39
7 -4 5 4 29 19 55 14 27 28 65 32 86 8 43 41 53 47 15 2 -17 10 -23 28 -23 24
0 25 2 25 70 0 66 -1 70 -23 73 -17 3 -25 -2 -29 -17 -10 -40 -38 -24 -52 27
-6 27 -23 65 -36 84 -21 31 -22 38 -10 48 12 10 18 10 30 0 19 -16 45 -6 45
18 0 27 -85 106 -105 98 -13 -5 -16 -14 -11 -40 9 -45 -4 -51 -50 -24 -20 12
-58 27 -83 34 -52 13 -64 35 -26 52 30 14 33 37 6 52 -20 10 -80 12 -113 3z
m86 -239 c33 -32 13 -74 -35 -74 -27 0 -39 15 -39 49 0 38 46 54 74 25z m-123
-151 c12 -33 -19 -68 -54 -59 -31 7 -46 48 -26 72 18 22 70 14 80 -13z m270 0
c12 -33 -19 -68 -54 -59 -30 7 -43 37 -27 66 16 29 69 24 81 -7z m-147 -119
c23 -23 20 -51 -8 -69 -34 -23 -66 -5 -66 35 0 44 44 65 74 34z"/>
</g>
</svg>
