<?xml version="1.0" standalone="no"?>
<!DOCTYPE svg PUBLIC "-//W3C//DTD SVG 20010904//EN"
 "http://www.w3.org/TR/2001/REC-SVG-20010904/DTD/svg10.dtd">
<svg version="1.0" xmlns="http://www.w3.org/2000/svg"
 width="192.000000pt" height="192.000000pt" viewBox="0 0 192.000000 192.000000"
 preserveAspectRatio="xMidYMid meet">
<metadata>
Created by potrace 1.16, written by Peter Selinger 2001-2019
</metadata>
<g transform="translate(0.000000,192.000000) scale(0.100000,-0.100000)"
fill="#000000" stroke="none">
811 c445 -92 729 -532 635 -987 -62 -301 -295 -546 -601 -630 -91 -26 -329
-26 -420 0 -291 80 -516 305 -596 596 -26 91 -26 329 0 420 120 433 542 692
982 601z"/>
<path d="M808 1346 c-65 -27 -149 -85 -171 -120 -24 -36 -5 -44 93 -36 67 5
109 16 195 50 65 26 134 46 170 49 142 14 17 81 -149 81 -62 0 -95 -6 -138
-24z"/>
<path d="M1020 1216 c-19 -8 -66 -27 -105 -44 -38 -17 -78 -33 -87 -36 -27 -8
-21 -32 17 -71 60 -59 109 -80 195 -80 68 0 83 4 160 42 47 23 95 44 108 48
13 4 22 14 22 25 0 28 -59 90 -105 111 -48 22 -154 24 -205 5z"/>
<path d="M599 1107 c-38 -29 -51 -76 -47 -166 8 -160 81 -277 216 -343 63 -31
72 -33 177 -33 99 0 116 3 169 28 149 70 246 208 246 352 0 79 -11 82 -111 36
-106 -48 -176 -65 -249 -58 -82 7 -137 35 -216 109 -38 36 -79 70 -91 77 -28
14 -74 14 -94 -2z"/>
</g>
</svg>
