<?xml version="1.0" standalone="no"?>
<!DOCTYPE svg PUBLIC "-//W3C//DTD SVG 20010904//EN"
 "http://www.w3.org/TR/2001/REC-SVG-20010904/DTD/svg10.dtd">
<svg version="1.0" xmlns="http://www.w3.org/2000/svg"
 width="192.000000pt" height="192.000000pt" viewBox="0 0 192.000000 192.000000"
 preserveAspectRatio="xMidYMid meet">
<metadata>
Created by potrace 1.16, written by Peter Selinger 2001-2019
</metadata>
<g transform="translate(0.000000,192.000000) scale(0.100000,-0.100000)"
fill="#000000" stroke="none">
811 c445 -92 729 -532 635 -987 -62 -301 -295 -546 -601 -630 -91 -26 -329
-26 -420 0 -291 80 -516 305 -596 596 -26 91 -26 329 0 420 120 433 542 692
982 601z"/>
<path d="M956 1294 c-144 -35 -274 -130 -337 -246 -31 -57 -34 -71 -34 -144 0
-72 3 -86 30 -129 41 -66 102 -110 187 -136 61 -19 87 -21 198 -17 161 6 167
9 191 109 10 41 18 82 19 91 0 32 -34 39 -97 23 -109 -29 -206 9 -214 85 -6
59 29 111 96 141 49 23 133 24 182 4 47 -20 70 -19 81 3 13 24 35 178 29 196
-13 34 -219 47 -331 20z"/>
</g>
</svg>
