<?xml version="1.0" standalone="no"?>
<!DOCTYPE svg PUBLIC "-//W3C//DTD SVG 20010904//EN"
 "http://www.w3.org/TR/2001/REC-SVG-20010904/DTD/svg10.dtd">
<svg version="1.0" xmlns="http://www.w3.org/2000/svg"
 width="192.000000pt" height="192.000000pt" viewBox="0 0 192.000000 192.000000"
 preserveAspectRatio="xMidYMid meet">
<metadata>
Created by potrace 1.16, written by Peter Selinger 2001-2019
</metadata>
<g transform="translate(0.000000,192.000000) scale(0.100000,-0.100000)"
fill="#000000" stroke="none">
811 c445 -92 729 -532 635 -987 -62 -301 -295 -546 -601 -630 -91 -26 -329
-26 -420 0 -291 80 -516 305 -596 596 -26 91 -26 329 0 420 120 433 542 692
982 601z"/>
<path d="M695 1321 c-49 -22 -79 -54 -100 -103 -12 -30 -15 -81 -15 -255 0
-240 6 -269 66 -325 48 -44 72 -48 310 -48 251 0 277 6 328 72 41 54 48 107
44 329 -3 202 -3 205 -30 251 -15 25 -45 57 -65 70 -37 22 -47 23 -268 26
-208 2 -234 0 -270 -17z m13 -319 c2 -8 -5 -11 -20 -10 -18 3 -24 -2 -26 -24
-3 -24 0 -28 22 -28 14 0 26 -5 26 -11 0 -6 -14 -9 -32 -7 -29 3 -33 7 -36 36
-2 18 2 40 9 48 14 17 50 15 57 -4z m80 6 c14 -14 16 -57 3 -76 -5 -8 -21 -12
-37 -10 -25 3 -29 8 -32 36 -5 52 34 82 66 50z m44 -25 c2 -27 8 -39 21 -41
14 -3 17 4 17 37 0 23 5 41 10 41 6 0 10 -22 10 -50 l0 -50 -34 0 c-38 0 -46
12 -46 66 0 46 18 43 22 -3z m152 6 c11 -25 14 -28 20 -14 4 11 13 15 26 12
11 -3 20 -1 20 3 0 5 -12 10 -27 12 -25 4 -26 5 -9 13 30 13 51 -7 54 -54 3
-40 2 -41 -27 -41 -18 0 -34 7 -41 18 -10 16 -10 16 -20 0 -6 -10 -20 -18 -30
-18 -14 0 -20 -7 -20 -21 0 -28 -23 -19 -26 12 -2 13 -1 43 2 67 5 39 7 42 35
42 24 0 33 -6 43 -31z m176 12 c5 -11 10 -34 10 -51 0 -45 -24 -33 -28 13 -5
53 -32 50 -32 -3 0 -22 -4 -40 -10 -40 -5 0 -10 23 -10 50 0 49 1 50 30 50 19
0 33 -7 40 -19z m110 14 c0 -1 -5 -16 -11 -34 -7 -21 -18 -31 -32 -32 l-22 -2
22 -4 c28 -5 47 -29 39 -48 -8 -21 -28 -19 -24 3 2 13 -5 18 -28 20 -30 3 -32
6 -32 40 0 48 12 62 54 60 19 -1 34 -2 34 -3z"/>
<path d="M747 994 c-4 -4 -7 -18 -7 -31 0 -17 6 -23 21 -23 16 0 20 5 17 27
-3 26 -18 39 -31 27z"/>
<path d="M930 970 c0 -20 5 -30 15 -30 10 0 15 10 15 30 0 20 -5 30 -15 30
-10 0 -15 -10 -15 -30z"/>
<path d="M1020 955 c0 -8 7 -15 15 -15 8 0 15 7 15 15 0 8 -7 15 -15 15 -8 0
-15 -7 -15 -15z"/>
<path d="M1205 989 c-10 -15 1 -23 20 -15 9 3 13 10 10 16 -8 13 -22 13 -30
-1z"/>
</g>
</svg>
