<?xml version="1.0" standalone="no"?>
<!DOCTYPE svg PUBLIC "-//W3C//DTD SVG 20010904//EN"
 "http://www.w3.org/TR/2001/REC-SVG-20010904/DTD/svg10.dtd">
<svg version="1.0" xmlns="http://www.w3.org/2000/svg"
 width="192.000000pt" height="192.000000pt" viewBox="0 0 192.000000 192.000000"
 preserveAspectRatio="xMidYMid meet">
<metadata>
Created by potrace 1.16, written by Peter Selinger 2001-2019
</metadata>
<g transform="translate(0.000000,192.000000) scale(0.100000,-0.100000)"
fill="#000000" stroke="none">
811 c445 -92 729 -532 635 -987 -62 -301 -295 -546 -601 -630 -91 -26 -329
-26 -420 0 -291 80 -516 305 -596 596 -26 91 -26 329 0 420 120 433 542 692
982 601z"/>
<path d="M690 1195 c-46 -21 -96 -70 -123 -120 -34 -63 -30 -164 7 -233 32
-58 96 -107 153 -118 66 -12 141 1 186 32 l42 30 42 -30 c45 -31 120 -44 186
-32 57 11 121 60 153 118 38 69 41 170 7 234 -28 52 -90 108 -138 124 -60 20
-146 9 -202 -26 l-48 -30 -49 30 c-59 37 -158 46 -216 21z m142 -89 c19 -5 56
-40 121 -119 112 -134 116 -137 164 -144 50 -6 102 28 122 81 13 33 13 44 0
79 -27 78 -107 107 -171 63 -46 -31 -65 -14 -24 21 26 22 52 28 106 23 70 -6
120 -67 120 -147 0 -67 -30 -111 -93 -137 -44 -18 -51 -19 -90 -6 -34 12 -60
37 -137 128 -105 126 -134 147 -188 137 -75 -14 -118 -96 -88 -168 29 -69 125
-98 175 -53 19 18 41 21 41 7 0 -17 -51 -50 -85 -57 -46 -8 -119 25 -145 68
-40 66 -17 177 43 210 25 13 77 26 92 22 6 -1 22 -5 37 -8z m-28 -132 c7 -19
-1 -34 -19 -34 -18 0 -28 17 -21 35 7 20 32 19 40 -1z m344 -7 c4 -20 -25 -34
-39 -20 -14 14 1 45 20 41 9 -2 17 -11 19 -21z"/>
</g>
</svg>
