<?xml version="1.0" standalone="no"?>
<!DOCTYPE svg PUBLIC "-//W3C//DTD SVG 20010904//EN"
 "http://www.w3.org/TR/2001/REC-SVG-20010904/DTD/svg10.dtd">
<svg version="1.0" xmlns="http://www.w3.org/2000/svg"
 width="192.000000pt" height="192.000000pt" viewBox="0 0 192.000000 192.000000"
 preserveAspectRatio="xMidYMid meet">
<metadata>
Created by potrace 1.16, written by Peter Selinger 2001-2019
</metadata>
<g transform="translate(0.000000,192.000000) scale(0.100000,-0.100000)"
fill="#000000" stroke="none">
811 c445 -92 729 -532 635 -987 -62 -301 -295 -546 -601 -630 -91 -26 -329
-26 -420 0 -291 80 -516 305 -596 596 -26 91 -26 329 0 420 120 433 542 692
982 601z"/>
<path d="M992 1368 c-18 -18 -15 -36 8 -48 33 -17 13 -40 -34 -40 -24 0 -65
-7 -92 -15 -27 -8 -50 -15 -50 -15 -1 0 -5 7 -8 16 -4 10 1 25 11 36 16 17 16
20 0 36 -16 15 -20 15 -63 -8 -63 -35 -81 -55 -64 -75 9 -11 22 -14 37 -10 40
10 38 -20 -5 -64 -22 -23 -45 -54 -52 -71 -16 -39 -47 -41 -52 -2 -2 21 -8 27
-27 27 -20 0 -26 -8 -37 -45 -26 -87 -7 -134 35 -89 27 30 46 20 43 -22 -1
-19 4 -59 12 -89 16 -62 8 -82 -24 -62 -57 35 -72 0 -30 -73 25 -44 37 -55 54
-53 15 2 21 10 21 30 1 49 20 54 54 16 17 -19 50 -45 74 -58 34 -18 43 -28 39
-42 -2 -11 -10 -17 -17 -14 -20 7 -49 -19 -42 -37 7 -18 110 -52 133 -43 19 7
18 45 -1 52 -8 4 -15 15 -15 25 0 16 8 19 53 19 28 0 69 5 91 11 43 12 70 -1
48 -23 -7 -7 -12 -22 -12 -35 0 -17 6 -23 23 -23 29 0 117 56 117 74 0 21 -24
36 -47 30 -36 -10 -34 21 4 57 19 19 44 51 54 72 20 39 53 49 55 17 2 -38 5
-41 27 -38 17 2 26 15 39 58 10 30 15 62 12 72 -8 25 -45 23 -51 -3 -4 -12
-11 -18 -20 -15 -8 3 -17 6 -19 6 -2 0 -4 21 -4 46 0 25 -5 65 -11 90 -14 55
-1 78 29 51 22 -20 52 -13 52 12 0 25 -59 121 -74 121 -21 0 -36 -24 -30 -47
10 -38 -16 -36 -60 5 -24 22 -58 48 -75 56 -38 20 -40 44 -3 48 21 2 27 8 27
27 0 18 -8 27 -35 36 -64 22 -86 25 -98 13z m88 -341 c0 -16 -142 -157 -157
-157 -7 0 -28 14 -48 31 -57 50 -39 114 20 67 l26 -20 59 56 c52 49 62 56 80
46 11 -6 20 -16 20 -23z"/>
</g>
</svg>
