<?xml version="1.0" standalone="no"?>
<!DOCTYPE svg PUBLIC "-//W3C//DTD SVG 20010904//EN"
 "http://www.w3.org/TR/2001/REC-SVG-20010904/DTD/svg10.dtd">
<svg version="1.0" xmlns="http://www.w3.org/2000/svg"
 width="192.000000pt" height="192.000000pt" viewBox="0 0 192.000000 192.000000"
 preserveAspectRatio="xMidYMid meet">
<metadata>
Created by potrace 1.16, written by Peter Selinger 2001-2019
</metadata>
<g transform="translate(0.000000,192.000000) scale(0.100000,-0.100000)"
fill="#000000" stroke="none">
811 c445 -92 729 -532 635 -987 -62 -301 -295 -546 -601 -630 -91 -26 -329
-26 -420 0 -291 80 -516 305 -596 596 -26 91 -26 329 0 420 120 433 542 692
982 601z"/>
<path d="M820 1361 c-5 -11 -10 -31 -10 -44 0 -21 -6 -25 -41 -31 -77 -12
-129 -69 -129 -141 0 -33 -2 -35 -34 -35 -37 0 -66 -21 -66 -49 0 -27 21 -41
62 -41 l38 0 0 -55 0 -55 -38 0 c-41 0 -62 -14 -62 -41 0 -28 29 -49 66 -49
32 0 34 -2 34 -35 0 -72 52 -129 129 -141 35 -6 41 -10 41 -31 0 -40 18 -63
49 -63 31 0 41 14 41 61 0 29 1 29 55 29 54 0 55 0 55 -29 0 -47 10 -61 41
-61 31 0 49 23 49 63 0 21 6 25 41 31 77 12 129 69 129 141 0 33 2 35 34 35
37 0 66 21 66 49 0 27 -21 41 -62 41 l-38 0 0 55 0 55 38 0 c41 0 62 14 62 41
0 28 -29 49 -66 49 -32 0 -34 2 -34 35 0 72 -52 129 -129 141 -35 6 -41 10
-41 31 0 40 -18 63 -49 63 -31 0 -41 -14 -41 -61 0 -29 -1 -29 -55 -29 -54 0
-55 0 -55 29 0 16 -3 36 -6 45 -9 23 -61 21 -74 -3z m-10 -211 l0 -40 -40 0
c-37 0 -40 2 -40 28 0 36 16 52 52 52 26 0 28 -3 28 -40z m200 0 l0 -40 -55 0
-55 0 0 40 0 40 55 0 55 0 0 -40z m158 28 c7 -7 12 -25 12 -40 0 -26 -3 -28
-40 -28 l-40 0 0 40 c0 37 2 40 28 40 15 0 33 -5 40 -12z m-358 -213 l0 -55
-40 0 -40 0 0 55 0 55 40 0 40 0 0 -55z m200 0 l0 -55 -55 0 -55 0 0 55 0 55
55 0 55 0 0 -55z m170 0 l0 -55 -40 0 -40 0 0 55 0 55 40 0 40 0 0 -55z m-370
-185 c0 -37 -2 -40 -28 -40 -36 0 -52 16 -52 52 0 26 3 28 40 28 l40 0 0 -40z
m200 0 l0 -40 -55 0 -55 0 0 40 0 40 55 0 55 0 0 -40z m170 12 c0 -15 -5 -33
-12 -40 -7 -7 -25 -12 -40 -12 -26 0 -28 3 -28 40 l0 40 40 0 c37 0 40 -2 40
-28z"/>
</g>
</svg>
