<?xml version="1.0" standalone="no"?>
<!DOCTYPE svg PUBLIC "-//W3C//DTD SVG 20010904//EN"
 "http://www.w3.org/TR/2001/REC-SVG-20010904/DTD/svg10.dtd">
<svg version="1.0" xmlns="http://www.w3.org/2000/svg"
 width="192.000000pt" height="192.000000pt" viewBox="0 0 192.000000 192.000000"
 preserveAspectRatio="xMidYMid meet">
<metadata>
Created by potrace 1.16, written by Peter Selinger 2001-2019
</metadata>
<g transform="translate(0.000000,192.000000) scale(0.100000,-0.100000)"
fill="#000000" stroke="none">
811 c445 -92 729 -532 635 -987 -62 -301 -295 -546 -601 -630 -91 -26 -329
-26 -420 0 -291 80 -516 305 -596 596 -26 91 -26 329 0 420 120 433 542 692
982 601z"/>
<path d="M695 1321 c-78 -36 -115 -101 -115 -206 l0 -65 34 0 c21 0 36 6 40
15 9 25 63 19 81 -9 34 -51 -34 -100 -79 -57 -12 11 -34 21 -49 21 -26 0 -27
-2 -27 -50 0 -41 3 -50 18 -51 30 -2 46 2 63 17 20 18 44 18 63 -2 24 -24 20
-61 -10 -80 -24 -16 -26 -16 -54 5 -16 11 -41 21 -55 21 -24 0 -25 -2 -25 -67
0 -71 22 -136 53 -162 15 -12 17 -11 17 8 0 12 11 33 25 46 21 22 33 25 93 25
51 0 73 4 82 16 20 23 62 13 79 -18 14 -24 14 -28 -3 -47 -22 -25 -58 -27 -76
-6 -10 12 -30 15 -84 13 l-71 -3 -3 -38 c-3 -32 0 -38 23 -47 15 -6 124 -10
246 -10 l220 0 -3 48 -3 47 -51 3 c-36 2 -54 -1 -64 -13 -26 -32 -90 -8 -90
34 0 41 64 67 90 36 8 -9 30 -15 60 -15 63 0 91 -23 100 -81 l6 -44 40 41 c47
48 67 106 62 179 -3 43 -6 50 -25 53 -12 2 -36 -7 -52 -19 -26 -19 -34 -21
-56 -11 -29 14 -35 61 -9 86 21 21 36 20 67 -4 14 -11 37 -20 52 -20 25 0 26
2 23 53 -3 47 -5 52 -29 55 -15 2 -32 -5 -44 -18 -23 -25 -47 -26 -68 -2 -25
27 -21 59 9 78 24 16 26 16 54 -5 16 -11 41 -21 55 -21 24 0 25 3 25 59 0 150
-77 230 -222 231 l-68 0 0 -30 c0 -17 9 -44 21 -59 17 -23 19 -32 10 -50 -16
-30 -57 -38 -81 -16 -25 23 -25 50 0 75 11 11 20 33 20 50 0 30 -1 30 -55 30
-54 0 -55 0 -55 -30 0 -17 9 -39 20 -50 11 -11 20 -27 20 -35 0 -8 -9 -24 -20
-35 -11 -11 -27 -20 -35 -20 -8 0 -24 9 -35 20 -11 11 -20 27 -20 35 0 8 9 24
20 35 11 11 20 33 20 50 l0 30 -67 0 c-45 0 -82 -7 -108 -19z m341 -265 c16
-12 19 -27 19 -91 0 -95 -10 -105 -102 -105 -86 0 -103 17 -103 105 0 88 17
105 103 105 39 0 71 -5 83 -14z"/>
</g>
</svg>
