<?xml version="1.0" standalone="no"?>
<!DOCTYPE svg PUBLIC "-//W3C//DTD SVG 20010904//EN"
 "http://www.w3.org/TR/2001/REC-SVG-20010904/DTD/svg10.dtd">
<svg version="1.0" xmlns="http://www.w3.org/2000/svg"
 width="192.000000pt" height="192.000000pt" viewBox="0 0 192.000000 192.000000"
 preserveAspectRatio="xMidYMid meet">
<metadata>
Created by potrace 1.16, written by Peter Selinger 2001-2019
</metadata>
<g transform="translate(0.000000,192.000000) scale(0.100000,-0.100000)"
fill="#000000" stroke="none">
811 c445 -92 729 -532 635 -987 -62 -301 -295 -546 -601 -630 -91 -26 -329
-26 -420 0 -291 80 -516 305 -596 596 -26 91 -26 329 0 420 120 433 542 692
982 601z"/>
<path d="M870 1356 c-126 -27 -228 -108 -284 -225 -28 -60 -31 -75 -31 -166 0
-92 3 -105 32 -166 39 -80 120 -159 200 -197 52 -24 69 -27 168 -27 100 0 115
2 167 28 88 43 152 107 195 195 36 71 38 81 37 166 -1 118 -26 185 -99 265
-63 68 -146 115 -229 130 -71 13 -85 13 -156 -3z m20 -223 l-1 -108 -95 -78
c-53 -42 -99 -75 -104 -72 -5 3 -12 30 -15 59 -14 114 53 233 160 282 27 13
51 24 53 24 1 0 2 -48 2 -107z m219 65 c71 -53 106 -106 120 -186 9 -43 1
-125 -12 -138 -3 -3 -51 31 -106 76 l-101 83 0 97 c0 53 3 99 6 103 7 7 68
-16 93 -35z m-223 -495 c-8 -9 -70 16 -99 40 l-28 22 63 51 63 51 3 -80 c2
-44 1 -82 -2 -84z m195 116 c33 -28 59 -55 59 -59 0 -12 -69 -50 -102 -57
l-28 -5 0 86 c0 47 3 86 6 86 4 0 33 -23 65 -51z"/>
</g>
</svg>
