<?xml version="1.0" standalone="no"?>
<!DOCTYPE svg PUBLIC "-//W3C//DTD SVG 20010904//EN"
 "http://www.w3.org/TR/2001/REC-SVG-20010904/DTD/svg10.dtd">
<svg version="1.0" xmlns="http://www.w3.org/2000/svg"
 width="192.000000pt" height="192.000000pt" viewBox="0 0 192.000000 192.000000"
 preserveAspectRatio="xMidYMid meet">
<metadata>
Created by potrace 1.16, written by Peter Selinger 2001-2019
</metadata>
<g transform="translate(0.000000,192.000000) scale(0.100000,-0.100000)"
fill="#000000" stroke="none">
811 c445 -92 729 -532 635 -987 -62 -301 -295 -546 -601 -630 -91 -26 -329
-26 -420 0 -291 80 -516 305 -596 596 -26 91 -26 329 0 420 120 433 542 692
982 601z"/>
<path d="M902 1369 c-82 -16 -167 -91 -190 -168 -8 -25 -12 -135 -12 -320 0
-268 1 -282 20 -301 19 -19 33 -20 234 -20 l215 0 20 26 c20 26 21 39 21 299
0 217 -3 280 -15 316 -41 120 -168 192 -293 168z m-27 -193 c31 -46 -25 -97
-66 -60 -23 21 -24 47 -3 68 23 23 51 20 69 -8z m216 14 c29 -16 26 -67 -5
-81 -34 -16 -66 3 -66 39 0 46 30 64 71 42z m-54 -161 c18 -18 -10 -64 -46
-79 -37 -15 -78 -6 -108 22 -23 21 -30 48 -16 61 11 12 158 8 170 -4z"/>
<path d="M603 998 c-45 -47 -53 -76 -53 -194 0 -117 11 -153 59 -199 52 -49
56 -32 53 213 -3 233 -4 237 -59 180z"/>
<path d="M1246 1004 c-8 -20 -8 -388 0 -408 9 -23 27 -20 57 12 43 44 57 92
57 189 0 107 -12 152 -49 192 -32 34 -56 40 -65 15z"/>
</g>
</svg>
