<?xml version="1.0" standalone="no"?>
<!DOCTYPE svg PUBLIC "-//W3C//DTD SVG 20010904//EN"
 "http://www.w3.org/TR/2001/REC-SVG-20010904/DTD/svg10.dtd">
<svg version="1.0" xmlns="http://www.w3.org/2000/svg"
 width="192.000000pt" height="192.000000pt" viewBox="0 0 192.000000 192.000000"
 preserveAspectRatio="xMidYMid meet">
<metadata>
Created by potrace 1.16, written by Peter Selinger 2001-2019
</metadata>
<g transform="translate(0.000000,192.000000) scale(0.100000,-0.100000)"
fill="#000000" stroke="none">
811 c445 -92 729 -532 635 -987 -62 -301 -295 -546 -601 -630 -91 -26 -329
-26 -420 0 -291 80 -516 305 -596 596 -26 91 -26 329 0 420 120 433 542 692
982 601z"/>
<path d="M862 1375 c-74 -16 -141 -52 -197 -105 -22 -21 -51 -40 -65 -42 -32
-4 -60 -58 -60 -113 0 -145 176 -197 277 -82 18 20 38 55 44 77 16 52 32 46
35 -12 8 -141 127 -225 241 -171 65 30 119 135 94 181 -6 11 -34 26 -68 35
-66 19 -353 67 -396 67 -42 0 -30 20 34 55 50 28 62 30 154 30 92 0 104 -2
153 -30 71 -38 136 -112 162 -183 32 -83 25 -197 -15 -271 -38 -69 -112 -135
-183 -161 -79 -30 -195 -25 -267 13 -94 48 -154 122 -180 221 -18 72 -38 90
-74 67 -18 -12 -16 -63 4 -121 53 -149 180 -255 335 -279 278 -44 524 200 480
475 -39 244 -269 402 -508 349z m-92 -303 c0 -15 -44 -50 -72 -57 -33 -8 -68
2 -68 19 0 9 13 13 40 12 25 0 46 6 57 17 18 18 43 23 43 9z m370 -66 c0 -22
-40 -46 -76 -46 -41 0 -64 9 -64 25 0 9 12 11 43 8 28 -3 48 0 62 11 25 19 35
20 35 2z"/>
<path d="M774 917 c-36 -31 -27 -63 14 -52 15 4 49 8 77 9 57 1 72 23 33 50
-34 24 -92 20 -124 -7z"/>
</g>
</svg>
