<?xml version="1.0" standalone="no"?>
<!DOCTYPE svg PUBLIC "-//W3C//DTD SVG 20010904//EN"
 "http://www.w3.org/TR/2001/REC-SVG-20010904/DTD/svg10.dtd">
<svg version="1.0" xmlns="http://www.w3.org/2000/svg"
 width="192.000000pt" height="192.000000pt" viewBox="0 0 192.000000 192.000000"
 preserveAspectRatio="xMidYMid meet">
<metadata>
Created by potrace 1.16, written by Peter Selinger 2001-2019
</metadata>
<g transform="translate(0.000000,192.000000) scale(0.100000,-0.100000)"
fill="#000000" stroke="none">
811 c445 -92 729 -532 635 -987 -62 -301 -295 -546 -601 -630 -91 -26 -329
-26 -420 0 -291 80 -516 305 -596 596 -26 91 -26 329 0 420 120 433 542 692
982 601z"/>
<path d="M1128 1331 c-16 -13 -29 -17 -39 -10 -25 16 -108 10 -149 -11 -44
-22 -84 -77 -95 -127 -6 -31 -9 -33 -48 -33 -86 -1 -180 -73 -205 -159 -24
-77 -46 -71 286 -71 176 0 312 4 335 11 43 12 101 59 123 100 36 70 4 119 -76
119 -32 0 -52 5 -54 13 -2 6 -8 28 -14 47 -10 28 -9 36 3 43 23 13 19 63 -7
81 -28 20 -30 20 -60 -3z"/>
<path d="M1325 946 c-61 -63 -81 -66 -421 -66 l-299 0 -27 -43 c-15 -23 -32
-63 -39 -89 -11 -40 -10 -49 4 -72 23 -35 51 -38 313 -34 210 4 234 6 286 27
112 44 209 163 225 276 3 25 4 45 2 44 -2 0 -22 -20 -44 -43z"/>
</g>
</svg>
