<?xml version="1.0" standalone="no"?>
<!DOCTYPE svg PUBLIC "-//W3C//DTD SVG 20010904//EN"
 "http://www.w3.org/TR/2001/REC-SVG-20010904/DTD/svg10.dtd">
<svg version="1.0" xmlns="http://www.w3.org/2000/svg"
 width="192.000000pt" height="192.000000pt" viewBox="0 0 192.000000 192.000000"
 preserveAspectRatio="xMidYMid meet">
<metadata>
Created by potrace 1.16, written by Peter Selinger 2001-2019
</metadata>
<g transform="translate(0.000000,192.000000) scale(0.100000,-0.100000)"
fill="#000000" stroke="none">
811 c445 -92 729 -532 635 -987 -62 -301 -295 -546 -601 -630 -91 -26 -329
-26 -420 0 -291 80 -516 305 -596 596 -26 91 -26 329 0 420 120 433 542 692
982 601z"/>
<path d="M1125 1330 c-13 -15 -22 -17 -36 -10 -28 15 -107 12 -145 -6 -46 -22
-82 -67 -95 -120 -11 -43 -12 -44 -53 -44 -106 -1 -216 -108 -216 -212 0 -17
21 -18 308 -18 349 0 358 2 425 80 28 34 37 52 37 81 0 48 -27 69 -91 69 l-47
0 -11 46 c-9 33 -9 50 -2 57 17 17 13 62 -7 80 -24 22 -45 21 -67 -3z"/>
<path d="M1346 965 c-15 -19 -46 -45 -69 -58 -40 -21 -55 -22 -362 -27 l-319
-5 -28 -55 c-16 -30 -31 -72 -34 -92 -5 -31 -2 -41 20 -63 l27 -26 257 3 258
3 66 33 c113 56 192 162 211 285 3 20 4 37 3 37 -2 0 -16 -16 -30 -35z"/>
</g>
</svg>
