<?xml version="1.0" standalone="no"?>
<!DOCTYPE svg PUBLIC "-//W3C//DTD SVG 20010904//EN"
 "http://www.w3.org/TR/2001/REC-SVG-20010904/DTD/svg10.dtd">
<svg version="1.0" xmlns="http://www.w3.org/2000/svg"
 width="192.000000pt" height="192.000000pt" viewBox="0 0 192.000000 192.000000"
 preserveAspectRatio="xMidYMid meet">
<metadata>
Created by potrace 1.16, written by Peter Selinger 2001-2019
</metadata>
<g transform="translate(0.000000,192.000000) scale(0.100000,-0.100000)"
fill="#000000" stroke="none">
811 c445 -92 729 -532 635 -987 -62 -301 -295 -546 -601 -630 -91 -26 -329
-26 -420 0 -291 80 -516 305 -596 596 -26 91 -26 329 0 420 120 433 542 692
982 601z"/>
<path d="M775 1294 c-72 -41 -138 -83 -149 -92 -38 -34 -46 -75 -46 -237 0
-221 -2 -218 200 -337 170 -99 180 -99 350 0 69 41 137 86 153 100 33 31 50
82 45 137 l-3 40 -152 3 -153 3 0 -30 c0 -20 -9 -36 -26 -50 -34 -27 -50 -26
-79 4 -23 22 -25 31 -25 127 0 122 11 148 65 148 38 0 65 -28 65 -67 l0 -24
153 3 152 3 3 40 c5 52 -12 106 -40 132 -13 12 -81 56 -153 97 -176 103 -184
103 -360 0z"/>
</g>
</svg>
