<?xml version="1.0" standalone="no"?>
<!DOCTYPE svg PUBLIC "-//W3C//DTD SVG 20010904//EN"
 "http://www.w3.org/TR/2001/REC-SVG-20010904/DTD/svg10.dtd">
<svg version="1.0" xmlns="http://www.w3.org/2000/svg"
 width="192.000000pt" height="192.000000pt" viewBox="0 0 192.000000 192.000000"
 preserveAspectRatio="xMidYMid meet">
<metadata>
Created by potrace 1.16, written by Peter Selinger 2001-2019
</metadata>
<g transform="translate(0.000000,192.000000) scale(0.100000,-0.100000)"
fill="#000000" stroke="none">
811 c445 -92 729 -532 635 -987 -62 -301 -295 -546 -601 -630 -91 -26 -329
-26 -420 0 -291 80 -516 305 -596 596 -26 91 -26 329 0 420 120 433 542 692
982 601z"/>
<path d="M756 1357 c-12 -9 -17 -23 -14 -42 l3 -30 238 -3 237 -2 0 -93 c0
-98 7 -117 45 -117 39 0 45 18 45 146 0 98 -3 126 -16 138 -13 14 -52 16 -268
16 -191 0 -256 -3 -270 -13z"/>
<path d="M623 1223 c-10 -3 -13 -61 -13 -237 0 -209 2 -234 18 -248 24 -21
316 -178 331 -178 12 0 315 163 339 182 16 14 17 199 0 216 -15 15 -51 15 -66
0 -7 -7 -12 -41 -12 -85 l0 -72 -72 -41 c-40 -22 -100 -54 -133 -71 l-60 -31
-127 69 -128 68 0 173 0 172 186 0 c109 0 193 4 205 10 21 12 25 50 7 68 -9 9
-75 12 -237 11 -125 0 -232 -3 -238 -6z"/>
<path d="M756 1024 c-20 -20 -23 -172 -3 -196 6 -9 55 -40 107 -69 l95 -52 95
50 c98 52 117 75 90 109 -19 22 -48 17 -118 -21 l-64 -36 -64 36 -64 36 0 67
c0 40 -5 73 -12 80 -17 17 -44 15 -62 -4z"/>
</g>
</svg>
