<?xml version="1.0" standalone="no"?>
<!DOCTYPE svg PUBLIC "-//W3C//DTD SVG 20010904//EN"
 "http://www.w3.org/TR/2001/REC-SVG-20010904/DTD/svg10.dtd">
<svg version="1.0" xmlns="http://www.w3.org/2000/svg"
 width="192.000000pt" height="192.000000pt" viewBox="0 0 192.000000 192.000000"
 preserveAspectRatio="xMidYMid meet">
<metadata>
Created by potrace 1.16, written by Peter Selinger 2001-2019
</metadata>
<g transform="translate(0.000000,192.000000) scale(0.100000,-0.100000)"
fill="#000000" stroke="none">
811 c445 -92 729 -532 635 -987 -62 -301 -295 -546 -601 -630 -91 -26 -329
-26 -420 0 -291 80 -516 305 -596 596 -26 91 -26 329 0 420 120 433 542 692
982 601z"/>
<path d="M560 1253 c-20 -26 -21 -35 -18 -301 3 -257 4 -274 22 -288 15 -11
57 -14 173 -14 150 0 153 0 168 24 12 17 15 43 13 91 -3 61 -6 70 -31 89 -26
19 -30 19 -55 5 -18 -9 -30 -28 -36 -52 l-10 -37 -58 0 -58 0 0 190 0 190 59
0 59 0 6 -34 c8 -41 27 -58 63 -58 44 0 63 33 63 113 0 106 -5 109 -189 109
l-150 0 -21 -27z"/>
<path d="M1014 1259 c-18 -20 -19 -40 -19 -301 0 -265 1 -280 19 -294 30 -21
72 -18 90 8 12 17 16 48 16 125 l0 103 59 0 59 0 4 -111 c3 -122 12 -139 69
-139 51 0 59 27 59 191 0 147 0 148 -26 168 -15 12 -35 21 -46 21 -23 0 -19
17 24 103 36 73 35 115 -4 137 -49 27 -73 2 -125 -127 -59 -148 -73 -149 -73
-8 0 92 -3 108 -20 125 -26 26 -62 25 -86 -1z"/>
</g>
</svg>
