<?xml version="1.0" standalone="no"?>
<!DOCTYPE svg PUBLIC "-//W3C//DTD SVG 20010904//EN"
 "http://www.w3.org/TR/2001/REC-SVG-20010904/DTD/svg10.dtd">
<svg version="1.0" xmlns="http://www.w3.org/2000/svg"
 width="192.000000pt" height="192.000000pt" viewBox="0 0 192.000000 192.000000"
 preserveAspectRatio="xMidYMid meet">
<metadata>
Created by potrace 1.16, written by Peter Selinger 2001-2019
</metadata>
<g transform="translate(0.000000,192.000000) scale(0.100000,-0.100000)"
fill="#000000" stroke="none">
811 c445 -92 729 -532 635 -987 -62 -301 -295 -546 -601 -630 -91 -26 -329
-26 -420 0 -291 80 -516 305 -596 596 -26 91 -26 329 0 420 120 433 542 692
982 601z"/>
<path d="M967 1343 c-4 -3 -7 -25 -7 -48 0 -51 6 -49 -196 -67 -97 -9 -134
-16 -134 -25 0 -10 25 -13 104 -13 56 0 130 -3 164 -6 l61 -7 3 -231 c3 -203
5 -236 22 -269 29 -58 84 -90 154 -90 65 0 108 18 145 63 35 41 39 70 35 247
-3 135 -5 155 -24 180 -47 63 -115 87 -178 63 -24 -9 -26 -7 -26 19 0 28 2 28
68 35 78 8 112 16 112 25 0 3 -10 11 -22 16 -19 8 -23 17 -21 52 l2 42 -42
-18 c-23 -10 -54 -21 -69 -25 -27 -6 -28 -5 -28 29 l0 35 -58 0 c-32 0 -62 -3
-65 -7z m204 -323 c17 -10 19 -22 19 -148 0 -149 -4 -162 -52 -162 -41 0 -48
25 -48 161 0 100 3 126 17 141 18 20 36 23 64 8z"/>
<path d="M664 1131 c-23 -10 -52 -34 -65 -52 -23 -32 -24 -43 -27 -204 -3
-164 -2 -171 20 -205 47 -69 123 -100 197 -80 75 20 131 88 131 160 0 30 0 30
-58 30 -56 0 -59 -1 -73 -32 -11 -26 -21 -34 -47 -36 -45 -5 -54 25 -50 170 2
93 6 121 20 134 24 24 64 11 76 -26 11 -29 13 -30 71 -30 60 0 61 0 61 28 0
16 -10 48 -23 72 -43 81 -144 111 -233 71z"/>
</g>
</svg>
