<?xml version="1.0" standalone="no"?>
<!DOCTYPE svg PUBLIC "-//W3C//DTD SVG 20010904//EN"
 "http://www.w3.org/TR/2001/REC-SVG-20010904/DTD/svg10.dtd">
<svg version="1.0" xmlns="http://www.w3.org/2000/svg"
 width="192.000000pt" height="192.000000pt" viewBox="0 0 192.000000 192.000000"
 preserveAspectRatio="xMidYMid meet">
<metadata>
Created by potrace 1.16, written by Peter Selinger 2001-2019
</metadata>
<g transform="translate(0.000000,192.000000) scale(0.100000,-0.100000)"
fill="#000000" stroke="none">
811 c445 -92 729 -532 635 -987 -62 -301 -295 -546 -601 -630 -91 -26 -329
-26 -420 0 -291 80 -516 305 -596 596 -26 91 -26 329 0 420 120 433 542 692
982 601z"/>
<path d="M870 1370 c-100 -21 -202 -91 -259 -177 -147 -222 -50 -517 203 -616
71 -28 211 -28 282 0 113 45 202 132 245 240 32 82 32 214 0 296 -43 108 -133
197 -242 238 -59 23 -168 31 -229 19z m189 -136 c42 -17 57 -40 46 -75 -10
-30 -42 -38 -96 -22 -85 25 -172 -20 -200 -104 -16 -49 -7 -138 17 -170 40
-53 71 -68 137 -67 34 1 76 5 92 8 24 6 34 3 49 -12 75 -84 -139 -147 -269
-80 -102 53 -150 136 -149 258 1 170 105 280 266 280 39 0 85 -7 107 -16z"/>
</g>
</svg>
