<?xml version="1.0" standalone="no"?>
<!DOCTYPE svg PUBLIC "-//W3C//DTD SVG 20010904//EN"
 "http://www.w3.org/TR/2001/REC-SVG-20010904/DTD/svg10.dtd">
<svg version="1.0" xmlns="http://www.w3.org/2000/svg"
 width="192.000000pt" height="192.000000pt" viewBox="0 0 192.000000 192.000000"
 preserveAspectRatio="xMidYMid meet">
<metadata>
Created by potrace 1.16, written by Peter Selinger 2001-2019
</metadata>
<g transform="translate(0.000000,192.000000) scale(0.100000,-0.100000)"
fill="#000000" stroke="none">
811 c445 -92 729 -532 635 -987 -62 -301 -295 -546 -601 -630 -91 -26 -329
-26 -420 0 -291 80 -516 305 -596 596 -26 91 -26 329 0 420 120 433 542 692
982 601z"/>
<path d="M850 1335 c0 -34 -1 -35 -40 -35 l-40 0 0 -75 0 -75 -55 0 -55 0 0
-35 c0 -31 3 -35 25 -35 21 0 25 -5 25 -30 0 -27 3 -30 30 -30 l30 0 0 -175 0
-174 103 -3 102 -3 3 -27 c3 -27 2 -28 -42 -28 -44 0 -46 -1 -46 -30 l0 -30
90 0 90 0 0 26 c0 18 -6 28 -21 31 -15 4 -19 12 -17 32 l3 26 108 3 107 3 0
159 0 160 -85 0 -85 0 0 155 0 155 -40 0 c-39 0 -40 1 -40 35 l0 35 -75 0 -75
0 0 -35z m100 -140 c0 -21 -5 -25 -30 -25 -25 0 -30 4 -30 25 0 21 5 25 30 25
25 0 30 -4 30 -25z"/>
</g>
</svg>
