<?xml version="1.0" standalone="no"?>
<!DOCTYPE svg PUBLIC "-//W3C//DTD SVG 20010904//EN"
 "http://www.w3.org/TR/2001/REC-SVG-20010904/DTD/svg10.dtd">
<svg version="1.0" xmlns="http://www.w3.org/2000/svg"
 width="192.000000pt" height="192.000000pt" viewBox="0 0 192.000000 192.000000"
 preserveAspectRatio="xMidYMid meet">
<metadata>
Created by potrace 1.16, written by Peter Selinger 2001-2019
</metadata>
<g transform="translate(0.000000,192.000000) scale(0.100000,-0.100000)"
fill="#000000" stroke="none">
811 c445 -92 729 -532 635 -987 -62 -301 -295 -546 -601 -630 -91 -26 -329
-26 -420 0 -291 80 -516 305 -596 596 -26 91 -26 329 0 420 120 433 542 692
982 601z"/>
<path d="M870 1366 c-127 -28 -238 -117 -294 -236 -29 -61 -31 -72 -31 -180 0
-107 2 -119 29 -175 31 -63 143 -185 169 -185 31 0 27 21 -16 73 -63 78 -82
133 -82 242 0 77 4 98 27 147 35 76 95 138 170 179 55 29 74 34 153 37 108 5
176 -16 255 -79 50 -39 70 -43 70 -13 0 26 -112 129 -170 156 -100 47 -180 56
-280 34z"/>
<path d="M955 1166 c-98 -31 -171 -100 -201 -188 -20 -62 -15 -177 10 -226 28
-53 86 -112 140 -140 43 -22 64 -27 131 -27 67 0 88 5 130 27 86 45 164 148
165 215 0 36 -42 61 -97 56 -54 -5 -100 17 -128 61 -19 28 -22 104 -6 134 42
79 -31 124 -144 88z"/>
</g>
</svg>
