<?xml version="1.0" standalone="no"?>
<!DOCTYPE svg PUBLIC "-//W3C//DTD SVG 20010904//EN"
 "http://www.w3.org/TR/2001/REC-SVG-20010904/DTD/svg10.dtd">
<svg version="1.0" xmlns="http://www.w3.org/2000/svg"
 width="192.000000pt" height="192.000000pt" viewBox="0 0 192.000000 192.000000"
 preserveAspectRatio="xMidYMid meet">
<metadata>
Created by potrace 1.16, written by Peter Selinger 2001-2019
</metadata>
<g transform="translate(0.000000,192.000000) scale(0.100000,-0.100000)"
fill="#000000" stroke="none">
811 c445 -92 729 -532 635 -987 -62 -301 -295 -546 -601 -630 -91 -26 -329
-26 -420 0 -291 80 -516 305 -596 596 -26 91 -26 329 0 420 120 433 542 692
982 601z"/>
<path d="M768 1273 c-92 -54 -164 -100 -160 -104 4 -4 30 -21 58 -37 l51 -30
120 69 121 69 116 -67 c129 -75 127 -71 41 -115 l-40 -21 -60 32 -61 33 -57
-34 -57 -33 0 -70 0 -71 56 -32 c31 -18 59 -32 62 -32 4 1 32 16 62 34 l55 33
57 -31 c32 -17 58 -33 58 -36 0 -5 -48 -34 -180 -108 l-55 -31 -120 69 -120
69 -45 -26 c-80 -46 -84 -40 97 -143 92 -52 175 -96 184 -98 22 -4 316 162
347 195 21 23 22 31 22 212 0 182 -1 188 -22 208 -39 36 -316 193 -340 193
-13 0 -98 -44 -190 -97z"/>
</g>
</svg>
