<?xml version="1.0" standalone="no"?>
<!DOCTYPE svg PUBLIC "-//W3C//DTD SVG 20010904//EN"
 "http://www.w3.org/TR/2001/REC-SVG-20010904/DTD/svg10.dtd">
<svg version="1.0" xmlns="http://www.w3.org/2000/svg"
 width="192.000000pt" height="192.000000pt" viewBox="0 0 192.000000 192.000000"
 preserveAspectRatio="xMidYMid meet">
<metadata>
Created by potrace 1.16, written by Peter Selinger 2001-2019
</metadata>
<g transform="translate(0.000000,192.000000) scale(0.100000,-0.100000)"
fill="#000000" stroke="none">
811 c445 -92 729 -532 635 -987 -62 -301 -295 -546 -601 -630 -91 -26 -329
-26 -420 0 -291 80 -516 305 -596 596 -26 91 -26 329 0 420 120 433 542 692
982 601z"/>
<path d="M733 1342 c-14 -9 -57 -198 -49 -218 8 -20 524 -21 531 -1 3 7 -5 59
-18 117 l-24 105 -214 2 c-118 2 -219 -1 -226 -5z"/>
<path d="M823 1075 c-3 -9 3 -39 14 -68 16 -42 19 -64 13 -112 -4 -33 -4 -64
0 -68 4 -4 54 -6 111 -5 l104 3 -3 68 c-2 50 2 82 18 124 17 45 18 58 8 64 -7
5 -68 9 -136 9 -101 0 -124 -3 -129 -15z"/>
<path d="M605 989 c-39 -28 -70 -56 -70 -62 0 -7 44 -87 99 -179 l98 -168 40
0 c32 0 49 8 89 43 65 56 65 77 -1 142 l-50 49 0 73 0 72 -57 37 c-31 20 -61
38 -67 40 -6 2 -43 -19 -81 -47z"/>
<path d="M1163 998 l-63 -40 0 -78 0 -77 -50 -42 c-65 -55 -65 -74 0 -135 46
-43 54 -47 92 -44 l42 3 98 165 c54 91 98 170 98 176 0 11 -117 100 -141 108
-8 2 -42 -14 -76 -36z"/>
</g>
</svg>
