<?xml version="1.0" standalone="no"?>
<!DOCTYPE svg PUBLIC "-//W3C//DTD SVG 20010904//EN"
 "http://www.w3.org/TR/2001/REC-SVG-20010904/DTD/svg10.dtd">
<svg version="1.0" xmlns="http://www.w3.org/2000/svg"
 width="192.000000pt" height="192.000000pt" viewBox="0 0 192.000000 192.000000"
 preserveAspectRatio="xMidYMid meet">
<metadata>
Created by potrace 1.16, written by Peter Selinger 2001-2019
</metadata>
<g transform="translate(0.000000,192.000000) scale(0.100000,-0.100000)"
fill="#000000" stroke="none">
811 c445 -92 729 -532 635 -987 -62 -301 -295 -546 -601 -630 -91 -26 -329
-26 -420 0 -291 80 -516 305 -596 596 -26 91 -26 329 0 420 120 433 542 692
982 601z"/>
<path d="M958 1370 c-149 -25 -278 -142 -322 -289 -88 -297 182 -591 474 -517
107 28 149 61 136 109 -9 37 -38 42 -88 16 -59 -30 -168 -37 -236 -15 -67 23
-134 84 -169 154 -24 48 -28 70 -28 137 0 67 4 89 28 137 49 99 137 158 249
166 44 3 81 0 110 -10 49 -17 83 -10 92 20 15 46 -21 73 -119 91 -64 12 -60
12 -127 1z"/>
<path d="M954 1194 c-52 -19 -111 -75 -135 -128 -25 -54 -25 -148 0 -202 42
-92 145 -152 242 -141 72 9 109 31 109 66 0 46 -21 56 -84 41 -68 -16 -113 -3
-156 46 -25 30 -30 43 -30 89 0 46 5 59 30 89 43 49 88 62 156 46 63 -15 84
-5 84 41 0 22 -7 32 -32 45 -44 23 -134 27 -184 8z"/>
</g>
</svg>
