<?xml version="1.0" standalone="no"?>
<!DOCTYPE svg PUBLIC "-//W3C//DTD SVG 20010904//EN"
 "http://www.w3.org/TR/2001/REC-SVG-20010904/DTD/svg10.dtd">
<svg version="1.0" xmlns="http://www.w3.org/2000/svg"
 width="192.000000pt" height="192.000000pt" viewBox="0 0 192.000000 192.000000"
 preserveAspectRatio="xMidYMid meet">
<metadata>
Created by potrace 1.16, written by Peter Selinger 2001-2019
</metadata>
<g transform="translate(0.000000,192.000000) scale(0.100000,-0.100000)"
fill="#000000" stroke="none">
811 c445 -92 729 -532 635 -987 -62 -301 -295 -546 -601 -630 -91 -26 -329
-26 -420 0 -291 80 -516 305 -596 596 -26 91 -26 329 0 420 120 433 542 692
982 601z"/>
<path d="M720 1328 c-51 -14 -95 -52 -119 -101 -19 -40 -21 -60 -21 -250 0
-114 3 -207 7 -207 3 0 32 23 64 50 32 28 65 50 74 50 9 0 31 -11 49 -25 18
-14 36 -25 39 -25 3 0 39 29 79 65 40 36 82 65 93 65 11 -1 36 -14 55 -30 19
-17 38 -30 42 -30 5 0 62 46 128 103 131 111 133 115 109 202 -15 52 -82 119
-134 134 -50 14 -416 13 -465 -1z m79 -128 c6 0 11 7 11 15 0 8 5 15 10 15 6
0 10 -7 10 -15 0 -8 9 -19 20 -25 21 -11 28 -60 8 -60 -6 0 -4 -8 6 -19 23
-25 17 -63 -11 -76 -13 -5 -23 -15 -23 -22 0 -18 -17 -16 -24 2 -3 8 -10 15
-16 15 -5 0 -10 -7 -10 -15 0 -8 -7 -15 -15 -15 -8 0 -15 7 -15 15 0 8 -4 15
-10 15 -6 0 -10 33 -10 80 0 61 4 84 17 100 16 18 19 19 29 5 6 -8 16 -15 23
-15z"/>
<path d="M767 1174 c-4 -4 -7 -16 -7 -26 0 -23 58 -26 67 -3 3 9 4 18 2 20 -9
9 -55 15 -62 9z"/>
<path d="M767 1103 c-4 -3 -7 -17 -7 -30 0 -20 5 -23 34 -23 41 0 65 23 46 45
-13 15 -61 21 -73 8z"/>
<path d="M1213 917 c-61 -53 -120 -97 -130 -97 -10 0 -34 13 -53 30 -19 16
-39 29 -44 30 -5 0 -42 -29 -83 -65 -41 -36 -81 -65 -89 -65 -9 0 -30 11 -48
25 -18 14 -37 25 -42 25 -5 -1 -36 -25 -68 -54 l-59 -53 40 -40 c27 -27 55
-44 86 -51 59 -15 408 -16 462 -1 54 15 120 82 134 136 7 24 10 94 9 160 l-3
117 -112 -97z"/>
</g>
</svg>
