<?xml version="1.0" standalone="no"?>
<!DOCTYPE svg PUBLIC "-//W3C//DTD SVG 20010904//EN"
 "http://www.w3.org/TR/2001/REC-SVG-20010904/DTD/svg10.dtd">
<svg version="1.0" xmlns="http://www.w3.org/2000/svg"
 width="192.000000pt" height="192.000000pt" viewBox="0 0 192.000000 192.000000"
 preserveAspectRatio="xMidYMid meet">
<metadata>
Created by potrace 1.16, written by Peter Selinger 2001-2019
</metadata>
<g transform="translate(0.000000,192.000000) scale(0.100000,-0.100000)"
fill="#000000" stroke="none">
811 c445 -92 729 -532 635 -987 -62 -301 -295 -546 -601 -630 -91 -26 -329
-26 -420 0 -291 80 -516 305 -596 596 -26 91 -26 329 0 420 120 433 542 692
982 601z"/>
<path d="M872 1361 c-75 -35 -226 -128 -248 -152 -48 -53 -54 -79 -54 -241 1
-221 5 -228 204 -342 169 -97 193 -97 363 1 198 113 202 120 203 341 0 216
-10 232 -216 346 -125 70 -180 80 -252 47z m176 -208 c109 -61 112 -65 112
-181 0 -85 -3 -103 -20 -125 -23 -29 -158 -107 -185 -107 -27 0 -162 78 -185
107 -17 22 -20 40 -20 120 0 52 5 103 10 113 15 28 159 110 193 110 16 0 59
-17 95 -37z"/>
<path d="M910 1071 c-27 -27 -30 -35 -30 -96 0 -69 17 -118 45 -129 9 -3 32
-6 51 -6 31 0 34 3 34 28 0 34 -16 52 -48 52 -21 0 -23 3 -20 47 3 44 5 48 33
53 27 5 30 9 30 40 0 32 -3 35 -33 38 -25 3 -39 -3 -62 -27z"/>
</g>
</svg>
