<?xml version="1.0" standalone="no"?>
<!DOCTYPE svg PUBLIC "-//W3C//DTD SVG 20010904//EN"
 "http://www.w3.org/TR/2001/REC-SVG-20010904/DTD/svg10.dtd">
<svg version="1.0" xmlns="http://www.w3.org/2000/svg"
 width="192.000000pt" height="192.000000pt" viewBox="0 0 192.000000 192.000000"
 preserveAspectRatio="xMidYMid meet">
<metadata>
Created by potrace 1.16, written by Peter Selinger 2001-2019
</metadata>
<g transform="translate(0.000000,192.000000) scale(0.100000,-0.100000)"
fill="#000000" stroke="none">
811 c445 -92 729 -532 635 -987 -62 -301 -295 -546 -601 -630 -91 -26 -329
-26 -420 0 -291 80 -516 305 -596 596 -26 91 -26 329 0 420 120 433 542 692
982 601z"/>
<path d="M639 1317 c-55 -37 -80 -91 -77 -163 3 -49 10 -69 31 -98 45 -59 69
-66 217 -66 l130 0 0 175 0 175 -134 0 c-122 0 -136 -2 -167 -23z"/>
<path d="M997 1333 c-4 -3 -7 -53 -7 -110 0 -118 11 -156 59 -196 86 -72 214
-53 278 42 21 31 23 46 23 152 l0 119 -173 0 c-96 0 -177 -3 -180 -7z"/>
<path d="M1042 934 c-16 -11 -20 -22 -16 -39 3 -13 -1 -33 -9 -47 -52 -82 -15
-197 77 -239 54 -24 100 -24 153 2 81 39 118 152 76 232 -9 18 -16 44 -14 59
3 29 -30 55 -52 41 -16 -10 -158 -12 -178 -2 -10 5 -24 2 -37 -7z"/>
<path d="M592 768 l3 -173 173 -3 172 -2 0 175 c0 96 -4 175 -8 175 -5 0 -44
-25 -87 -55 l-78 -54 -79 54 c-44 30 -84 55 -89 55 -6 0 -8 -69 -7 -172z"/>
</g>
</svg>
