<?xml version="1.0" standalone="no"?>
<!DOCTYPE svg PUBLIC "-//W3C//DTD SVG 20010904//EN"
 "http://www.w3.org/TR/2001/REC-SVG-20010904/DTD/svg10.dtd">
<svg version="1.0" xmlns="http://www.w3.org/2000/svg"
 width="192.000000pt" height="192.000000pt" viewBox="0 0 192.000000 192.000000"
 preserveAspectRatio="xMidYMid meet">
<metadata>
Created by potrace 1.16, written by Peter Selinger 2001-2019
</metadata>
<g transform="translate(0.000000,192.000000) scale(0.100000,-0.100000)"
fill="#000000" stroke="none">
811 c445 -92 729 -532 635 -987 -62 -301 -295 -546 -601 -630 -91 -26 -329
-26 -420 0 -291 80 -516 305 -596 596 -26 91 -26 329 0 420 120 433 542 692
982 601z"/>
<path d="M922 1368 c-7 -7 -12 -28 -12 -48 0 -41 14 -60 45 -60 31 0 45 19 45
60 0 41 -14 60 -45 60 -12 0 -26 -5 -33 -12z"/>
<path d="M915 1231 c-91 -39 -76 -179 20 -197 66 -12 137 58 121 119 -15 62
-87 101 -141 78z"/>
<path d="M656 1168 c-20 -28 -11 -41 59 -89 65 -44 68 -45 89 -23 29 29 19 52
-43 94 -68 46 -84 49 -105 18z"/>
<path d="M1148 1149 c-59 -40 -66 -55 -48 -90 15 -27 25 -24 97 22 64 42 79
69 51 97 -19 19 -39 13 -100 -29z"/>
<path d="M598 985 c-8 -19 -8 -31 0 -50 l12 -25 346 2 c314 3 348 5 358 20 7
11 7 26 0 45 l-9 28 -348 3 -347 2 -12 -25z"/>
<path d="M715 856 c-74 -49 -81 -60 -61 -91 9 -14 22 -25 28 -25 21 0 138 82
138 97 0 25 -20 53 -38 53 -9 0 -40 -15 -67 -34z"/>
<path d="M817 785 c-48 -57 -90 -111 -93 -120 -8 -19 32 -65 56 -65 10 0 52
41 94 90 43 50 79 90 81 90 2 0 38 -40 80 -90 43 -50 84 -90 94 -90 10 0 28
11 41 25 30 32 27 39 -83 164 l-87 101 -48 0 -47 0 -88 -105z"/>
<path d="M1100 871 c-5 -11 -10 -26 -10 -34 0 -15 117 -97 138 -97 6 0 19 11
28 25 16 24 15 27 -1 45 -25 28 -109 80 -128 80 -9 0 -21 -9 -27 -19z"/>
<path d="M916 694 c-3 -9 -6 -40 -6 -69 0 -43 4 -56 19 -65 27 -14 37 -13 55
6 19 19 22 114 4 132 -17 17 -65 15 -72 -4z"/>
</g>
</svg>
