<?xml version="1.0" standalone="no"?>
<!DOCTYPE svg PUBLIC "-//W3C//DTD SVG 20010904//EN"
 "http://www.w3.org/TR/2001/REC-SVG-20010904/DTD/svg10.dtd">
<svg version="1.0" xmlns="http://www.w3.org/2000/svg"
 width="192.000000pt" height="192.000000pt" viewBox="0 0 192.000000 192.000000"
 preserveAspectRatio="xMidYMid meet">
<metadata>
Created by potrace 1.16, written by Peter Selinger 2001-2019
</metadata>
<g transform="translate(0.000000,192.000000) scale(0.100000,-0.100000)"
fill="#000000" stroke="none">
811 c445 -92 729 -532 635 -987 -62 -301 -295 -546 -601 -630 -91 -26 -329
-26 -420 0 -291 80 -516 305 -596 596 -26 91 -26 329 0 420 120 433 542 692
982 601z"/>
<path d="M777 1270 c-82 -21 -145 -67 -178 -132 l-19 -37 49 30 c103 64 229
62 346 -6 138 -81 184 -99 258 -99 65 -1 70 1 98 32 22 24 29 41 28 70 -1 21
-3 29 -6 17 -9 -35 -24 -45 -72 -45 -54 0 -106 22 -191 80 -123 84 -223 112
-313 90z"/>
<path d="M1152 1229 c-13 -5 -33 -15 -44 -23 -19 -14 -18 -15 26 -41 36 -21
49 -24 65 -16 29 16 93 13 119 -5 21 -14 22 -14 22 11 0 39 -16 62 -51 74 -38
13 -105 13 -137 0z"/>
<path d="M727 1158 c-44 -9 -89 -31 -134 -65 -54 -42 -68 -166 -25 -233 9 -14
15 -27 15 -30 -2 -14 39 -79 69 -107 41 -40 90 -61 161 -69 82 -10 143 10 248
78 115 75 165 98 218 100 45 1 68 -13 74 -45 2 -12 5 -4 5 18 3 90 -81 127
-202 91 -26 -8 -88 -39 -139 -70 -107 -64 -164 -81 -250 -74 -59 5 -157 43
-172 68 -10 16 5 12 32 -10 28 -22 131 -56 140 -46 4 3 -3 16 -15 29 -35 37
-65 117 -65 172 0 55 30 135 65 172 27 29 23 32 -25 21z"/>
<path d="M986 1059 c-21 -52 -20 -144 2 -192 l17 -37 45 30 45 30 0 75 1 76
-47 29 -47 29 -16 -40z"/>
<path d="M1310 784 c-30 -16 -69 -18 -106 -4 -22 9 -34 6 -72 -16 l-45 -27 48
-25 c41 -20 58 -23 103 -19 73 8 102 28 102 72 0 19 -1 35 -2 34 -2 -1 -14 -7
-28 -15z"/>
</g>
</svg>
