<?xml version="1.0" standalone="no"?>
<!DOCTYPE svg PUBLIC "-//W3C//DTD SVG 20010904//EN"
 "http://www.w3.org/TR/2001/REC-SVG-20010904/DTD/svg10.dtd">
<svg version="1.0" xmlns="http://www.w3.org/2000/svg"
 width="192.000000pt" height="192.000000pt" viewBox="0 0 192.000000 192.000000"
 preserveAspectRatio="xMidYMid meet">
<metadata>
Created by potrace 1.16, written by Peter Selinger 2001-2019
</metadata>
<g transform="translate(0.000000,192.000000) scale(0.100000,-0.100000)"
fill="#000000" stroke="none">
811 c445 -92 729 -532 635 -987 -62 -301 -295 -546 -601 -630 -91 -26 -329
-26 -420 0 -291 80 -516 305 -596 596 -26 91 -26 329 0 420 120 433 542 692
982 601z"/>
<path d="M686 1335 c-19 -20 -20 -26 -3 -49 27 -38 95 2 71 42 -15 23 -48 27
-68 7z"/>
<path d="M812 1338 c-15 -15 -15 -41 0 -56 18 -18 56 -14 68 7 13 25 13 27 -6
45 -18 19 -45 21 -62 4z"/>
<path d="M932 1274 c-63 -17 -99 -34 -141 -70 -34 -29 -39 -45 -16 -64 12 -10
22 -8 55 14 193 127 447 0 444 -223 -1 -108 -54 -190 -154 -242 -36 -19 -61
-24 -125 -24 -72 0 -86 3 -137 33 -64 36 -86 40 -95 17 -12 -33 70 -94 163
-121 200 -58 415 74 453 278 34 186 -89 363 -281 408 -58 13 -103 12 -166 -6z"/>
<path d="M552 1104 c-31 -22 -27 -56 13 -113 19 -26 35 -52 35 -56 0 -4 -15
-28 -34 -54 -46 -63 -51 -102 -15 -121 33 -18 66 -4 92 40 l23 40 32 -45 c34
-48 54 -55 90 -29 31 22 28 47 -18 113 l-39 58 25 34 c60 81 65 116 18 138
-32 14 -55 2 -85 -45 l-22 -36 -20 35 c-11 19 -31 40 -44 46 -29 13 -24 14
-51 -5z"/>
<path d="M927 1106 c-79 -29 -117 -88 -117 -178 1 -111 80 -183 193 -176 92 7
144 60 98 102 -18 17 -22 17 -68 0 -43 -15 -52 -15 -78 -3 -60 29 -43 39 70
39 126 0 145 7 145 56 0 114 -132 201 -243 160z m117 -102 c9 -8 16 -17 16
-20 0 -2 -32 -4 -72 -4 -70 0 -71 0 -53 20 22 25 86 27 109 4z"/>
</g>
</svg>
