<?xml version="1.0" standalone="no"?>
<!DOCTYPE svg PUBLIC "-//W3C//DTD SVG 20010904//EN"
 "http://www.w3.org/TR/2001/REC-SVG-20010904/DTD/svg10.dtd">
<svg version="1.0" xmlns="http://www.w3.org/2000/svg"
 width="192.000000pt" height="192.000000pt" viewBox="0 0 192.000000 192.000000"
 preserveAspectRatio="xMidYMid meet">
<metadata>
Created by potrace 1.16, written by Peter Selinger 2001-2019
</metadata>
<g transform="translate(0.000000,192.000000) scale(0.100000,-0.100000)"
fill="#000000" stroke="none">
811 c445 -92 729 -532 635 -987 -62 -301 -295 -546 -601 -630 -91 -26 -329
-26 -420 0 -291 80 -516 305 -596 596 -26 91 -26 329 0 420 120 433 542 692
982 601z"/>
<path d="M890 1369 c-77 -13 -151 -50 -209 -104 -86 -81 -131 -183 -131 -300
0 -295 307 -496 570 -373 l49 23 -34 54 c-18 29 -36 55 -38 57 -2 2 -20 -3
-40 -11 -87 -36 -214 -10 -285 58 -58 56 -77 102 -77 192 0 93 20 140 83 197
60 54 117 72 211 65 l80 -5 56 41 c64 47 62 52 -29 86 -66 24 -138 31 -206 20z"/>
<path d="M1065 1180 c-77 -55 -141 -106 -143 -114 -4 -18 59 -117 72 -113 23
7 305 213 306 223 0 12 -78 104 -88 104 -4 0 -70 -45 -147 -100z"/>
<path d="M1173 1017 c-78 -56 -143 -108 -143 -116 0 -20 60 -111 74 -111 6 1
65 40 131 89 l120 87 -3 45 c-3 49 -20 109 -30 108 -4 0 -71 -46 -149 -102z"/>
<path d="M1240 823 c-58 -41 -107 -77 -108 -78 -3 -3 47 -82 65 -104 6 -8 75
64 99 105 27 47 57 129 52 143 -1 6 -50 -24 -108 -66z"/>
</g>
</svg>
