<?xml version="1.0" standalone="no"?>
<!DOCTYPE svg PUBLIC "-//W3C//DTD SVG 20010904//EN"
 "http://www.w3.org/TR/2001/REC-SVG-20010904/DTD/svg10.dtd">
<svg version="1.0" xmlns="http://www.w3.org/2000/svg"
 width="192.000000pt" height="192.000000pt" viewBox="0 0 192.000000 192.000000"
 preserveAspectRatio="xMidYMid meet">
<metadata>
Created by potrace 1.16, written by Peter Selinger 2001-2019
</metadata>
<g transform="translate(0.000000,192.000000) scale(0.100000,-0.100000)"
fill="#000000" stroke="none">
811 c445 -92 729 -532 635 -987 -62 -301 -295 -546 -601 -630 -91 -26 -329
-26 -420 0 -291 80 -516 305 -596 596 -26 91 -26 329 0 420 120 433 542 692
982 601z"/>
<path d="M823 1352 c-28 -10 -70 -31 -93 -46 l-42 -28 -28 27 c-49 47 -82 14
-35 -34 l24 -26 -33 -50 c-88 -135 -97 -285 -25 -427 31 -60 120 -145 183
-174 256 -117 538 30 586 308 30 169 -67 351 -228 430 -58 29 -77 33 -161 35
-74 3 -108 -1 -148 -15z m229 -43 c47 -12 68 -49 75 -129 7 -79 -17 -146 -75
-211 -44 -49 -45 -52 -27 -65 12 -9 44 -14 84 -14 73 0 125 19 180 66 l34 28
-7 -49 c-13 -91 -23 -112 -67 -129 -93 -37 -226 -9 -293 63 -32 34 -60 40 -70
15 -3 -9 -6 -43 -6 -77 0 -68 20 -122 64 -174 l28 -33 -29 0 c-16 0 -52 7 -80
15 -45 13 -53 20 -67 55 -36 91 -12 209 59 288 27 30 41 53 36 61 -11 18 -109
25 -158 12 -22 -6 -65 -27 -94 -47 l-52 -36 7 51 c4 29 11 63 16 76 15 39 65
59 145 59 84 0 144 -23 199 -79 43 -43 62 -40 72 10 15 80 -11 170 -64 228
l-26 27 40 0 c21 0 56 -5 76 -11z"/>
</g>
</svg>
