<?xml version="1.0" standalone="no"?>
<!DOCTYPE svg PUBLIC "-//W3C//DTD SVG 20010904//EN"
 "http://www.w3.org/TR/2001/REC-SVG-20010904/DTD/svg10.dtd">
<svg version="1.0" xmlns="http://www.w3.org/2000/svg"
 width="192.000000pt" height="192.000000pt" viewBox="0 0 192.000000 192.000000"
 preserveAspectRatio="xMidYMid meet">
<metadata>
Created by potrace 1.16, written by Peter Selinger 2001-2019
</metadata>
<g transform="translate(0.000000,192.000000) scale(0.100000,-0.100000)"
fill="#000000" stroke="none">
811 c445 -92 729 -532 635 -987 -62 -301 -295 -546 -601 -630 -91 -26 -329
-26 -420 0 -291 80 -516 305 -596 596 -26 91 -26 329 0 420 120 433 542 692
982 601z"/>
<path d="M895 1368 c-172 -23 -320 -172 -343 -344 -23 -178 66 -348 222 -424
226 -111 500 7 572 248 33 108 12 248 -51 342 -19 29 -35 55 -35 58 0 3 12 18
26 33 14 15 23 32 20 38 -12 18 -41 12 -65 -13 l-23 -24 -45 29 c-84 52 -174
71 -278 57z m52 -75 c-42 -45 -67 -111 -67 -179 0 -36 6 -68 14 -79 13 -18 16
-16 67 28 65 57 137 82 215 74 97 -10 130 -44 134 -137 3 -54 2 -55 -27 -27
-45 42 -111 67 -179 67 -37 0 -68 -6 -80 -14 -18 -14 -18 -16 18 -53 50 -52
78 -111 85 -177 6 -63 -10 -137 -36 -160 -16 -15 -140 -39 -150 -30 -3 2 7 17
22 32 42 44 67 110 67 178 0 36 -6 68 -14 79 -13 18 -16 17 -66 -28 -77 -70
-177 -94 -272 -65 -22 6 -47 22 -55 34 -16 25 -34 132 -23 139 4 2 17 -6 30
-20 39 -42 115 -68 187 -63 87 5 97 18 51 66 -53 54 -80 113 -85 185 -9 122
35 177 141 177 l50 0 -27 -27z"/>
<path d="M571 1356 c-14 -17 0 -29 23 -20 9 3 16 1 16 -5 0 -6 -9 -11 -20 -11
-21 0 -37 -38 -26 -65 8 -21 76 -21 76 0 0 9 -9 15 -25 15 -14 0 -25 5 -25 10
0 6 12 10 26 10 23 0 25 3 22 38 -3 31 -7 37 -29 40 -14 2 -31 -4 -38 -12z"/>
</g>
</svg>
