<?xml version="1.0" standalone="no"?>
<!DOCTYPE svg PUBLIC "-//W3C//DTD SVG 20010904//EN"
 "http://www.w3.org/TR/2001/REC-SVG-20010904/DTD/svg10.dtd">
<svg version="1.0" xmlns="http://www.w3.org/2000/svg"
 width="192.000000pt" height="192.000000pt" viewBox="0 0 192.000000 192.000000"
 preserveAspectRatio="xMidYMid meet">
<metadata>
Created by potrace 1.16, written by Peter Selinger 2001-2019
</metadata>
<g transform="translate(0.000000,192.000000) scale(0.100000,-0.100000)"
fill="#000000" stroke="none">
811 c445 -92 729 -532 635 -987 -62 -301 -295 -546 -601 -630 -91 -26 -329
-26 -420 0 -291 80 -516 305 -596 596 -26 91 -26 329 0 420 120 433 542 692
982 601z"/>
<path d="M702 1368 c-102 -23 -180 -159 -143 -252 6 -15 12 -9 36 38 35 69
117 148 186 180 28 13 47 26 42 29 -20 11 -82 14 -121 5z"/>
<path d="M910 1374 c-77 -13 -76 -13 -37 -40 21 -14 47 -45 60 -70 l23 -46 19
43 c11 23 36 54 58 70 31 22 35 28 20 32 -30 9 -116 15 -143 11z"/>
<path d="M1125 1373 c-48 -10 -47 -15 3 -38 70 -32 152 -112 187 -181 24 -47
30 -53 36 -38 31 79 -22 199 -104 237 -37 17 -93 27 -122 20z"/>
<path d="M806 1208 c-9 -12 -16 -29 -16 -38 0 -49 63 -77 105 -46 21 15 25 67
5 90 -19 24 -76 20 -94 -6z"/>
<path d="M1010 1215 c-20 -24 -17 -75 6 -92 30 -22 76 -12 94 20 13 24 13 30
0 55 -19 33 -78 43 -100 17z"/>
<path d="M931 1076 c-63 -130 -245 -146 -339 -29 l-30 38 -7 -49 c-19 -122 17
-253 92 -336 41 -46 45 -53 34 -76 -16 -35 -14 -61 5 -68 20 -8 518 -8 538 0
19 7 21 33 5 68 -11 23 -7 30 34 76 75 83 111 214 92 336 l-7 49 -30 -38 c-43
-53 -94 -77 -166 -77 -78 0 -139 37 -173 106 l-24 49 -24 -49z"/>
</g>
</svg>
