<?xml version="1.0" standalone="no"?>
<!DOCTYPE svg PUBLIC "-//W3C//DTD SVG 20010904//EN"
 "http://www.w3.org/TR/2001/REC-SVG-20010904/DTD/svg10.dtd">
<svg version="1.0" xmlns="http://www.w3.org/2000/svg"
 width="192.000000pt" height="192.000000pt" viewBox="0 0 192.000000 192.000000"
 preserveAspectRatio="xMidYMid meet">
<metadata>
Created by potrace 1.16, written by Peter Selinger 2001-2019
</metadata>
<g transform="translate(0.000000,192.000000) scale(0.100000,-0.100000)"
fill="#000000" stroke="none">
811 c445 -92 729 -532 635 -987 -62 -301 -295 -546 -601 -630 -91 -26 -329
-26 -420 0 -291 80 -516 305 -596 596 -26 91 -26 329 0 420 120 433 542 692
982 601z"/>
<path d="M964 1335 c-130 -94 -124 -92 -242 -97 -60 -3 -118 -11 -130 -17 -31
-16 -28 -59 8 -164 l29 -85 -23 -79 c-38 -125 -40 -155 -17 -184 18 -23 25
-24 133 -24 62 0 120 -5 129 -10 8 -6 45 -31 81 -58 87 -62 118 -68 156 -31
22 22 34 52 52 122 l23 94 68 49 c149 109 146 154 -18 254 -61 37 -63 39 -88
116 -31 91 -63 143 -91 147 -11 2 -43 -13 -70 -33z m70 -147 c9 -12 23 -43 31
-68 12 -36 24 -51 55 -69 44 -25 70 -56 70 -84 0 -19 -50 -75 -83 -93 -10 -6
-24 -34 -32 -63 -28 -105 -79 -119 -168 -45 -23 19 -37 22 -91 21 -41 -1 -69
3 -80 12 -20 17 -21 64 0 123 14 42 14 49 0 83 -20 46 -21 99 -2 114 7 6 45
14 82 18 57 5 76 12 113 40 51 38 84 42 105 11z"/>
<path d="M945 1135 c-41 -29 -63 -36 -118 -42 -41 -3 -67 -10 -67 -18 0 -6 7
-33 16 -59 15 -43 15 -52 0 -105 -9 -31 -16 -63 -16 -69 0 -8 23 -12 69 -12
58 0 74 -4 98 -24 15 -12 39 -29 52 -36 21 -11 26 -10 38 6 7 10 13 23 13 28
0 46 24 87 70 120 28 20 50 41 50 46 0 6 -24 26 -53 44 -47 30 -57 42 -76 95
-12 34 -23 61 -24 61 -1 0 -25 -16 -52 -35z"/>
</g>
</svg>
