<?xml version="1.0" standalone="no"?>
<!DOCTYPE svg PUBLIC "-//W3C//DTD SVG 20010904//EN"
 "http://www.w3.org/TR/2001/REC-SVG-20010904/DTD/svg10.dtd">
<svg version="1.0" xmlns="http://www.w3.org/2000/svg"
 width="192.000000pt" height="192.000000pt" viewBox="0 0 192.000000 192.000000"
 preserveAspectRatio="xMidYMid meet">
<metadata>
Created by potrace 1.16, written by Peter Selinger 2001-2019
</metadata>
<g transform="translate(0.000000,192.000000) scale(0.100000,-0.100000)"
fill="#000000" stroke="none">
811 c445 -92 729 -532 635 -987 -62 -301 -295 -546 -601 -630 -91 -26 -329
-26 -420 0 -291 80 -516 305 -596 596 -26 91 -26 329 0 420 120 433 542 692
982 601z"/>
<path d="M865 1359 c-16 -5 -58 -11 -91 -12 -70 -4 -121 -30 -156 -80 -18 -25
-23 -47 -25 -104 -1 -40 -5 -97 -8 -127 -13 -103 27 -218 105 -298 46 -48 46
-48 25 -62 -27 -17 -59 -82 -51 -102 8 -21 574 -21 582 0 8 20 -24 85 -51 102
-21 14 -21 14 25 62 49 51 84 116 99 184 15 68 7 288 -12 323 -34 66 -105 106
-185 104 -26 0 -63 4 -82 10 -41 13 -133 13 -175 0z m112 -112 l-22 -43 -13
30 c-7 16 -17 36 -24 43 -8 10 -1 13 35 13 l46 0 -22 -43z m-91 -62 c15 -23
15 -27 0 -50 -27 -40 -96 -25 -96 21 0 55 66 75 96 29z m228 -7 c18 -52 -44
-89 -86 -51 -21 18 -23 36 -7 64 8 16 19 19 47 17 30 -2 38 -8 46 -30z m-90
-163 c62 -47 165 -53 215 -12 12 10 13 4 8 -40 -11 -99 -74 -186 -167 -234
-63 -32 -175 -33 -246 -1 -92 42 -159 132 -171 232 l-6 52 34 -18 c21 -11 54
-18 87 -17 67 0 128 39 157 99 l20 41 19 -39 c10 -21 33 -50 50 -63z"/>
</g>
</svg>
