<?xml version="1.0" standalone="no"?>
<!DOCTYPE svg PUBLIC "-//W3C//DTD SVG 20010904//EN"
 "http://www.w3.org/TR/2001/REC-SVG-20010904/DTD/svg10.dtd">
<svg version="1.0" xmlns="http://www.w3.org/2000/svg"
 width="192.000000pt" height="192.000000pt" viewBox="0 0 192.000000 192.000000"
 preserveAspectRatio="xMidYMid meet">
<metadata>
Created by potrace 1.16, written by Peter Selinger 2001-2019
</metadata>
<g transform="translate(0.000000,192.000000) scale(0.100000,-0.100000)"
fill="#000000" stroke="none">
811 c445 -92 729 -532 635 -987 -62 -301 -295 -546 -601 -630 -91 -26 -329
-26 -420 0 -291 80 -516 305 -596 596 -26 91 -26 329 0 420 120 433 542 692
982 601z"/>
<path d="M654 1326 c-17 -8 -40 -26 -52 -41 -21 -27 -22 -36 -22 -310 0 -403
-17 -385 375 -385 291 0 309 4 352 69 23 33 23 39 23 316 0 274 -1 283 -22
310 -18 24 -85 62 -93 53 -1 -2 -21 -36 -44 -75 l-42 -73 -44 0 -44 0 40 69
c21 37 39 71 39 75 0 3 -17 6 -38 6 -36 0 -39 -3 -82 -75 l-44 -75 -44 0 -44
0 28 48 c15 26 33 56 41 67 20 30 16 35 -26 35 -38 0 -40 -2 -83 -75 -43 -74
-43 -75 -85 -75 -24 0 -43 2 -43 5 0 3 11 22 23 43 13 20 32 52 41 70 l17 32
-48 0 c-27 -1 -62 -7 -79 -14z"/>
</g>
</svg>
