<?xml version="1.0" standalone="no"?>
<!DOCTYPE svg PUBLIC "-//W3C//DTD SVG 20010904//EN"
 "http://www.w3.org/TR/2001/REC-SVG-20010904/DTD/svg10.dtd">
<svg version="1.0" xmlns="http://www.w3.org/2000/svg"
 width="192.000000pt" height="192.000000pt" viewBox="0 0 192.000000 192.000000"
 preserveAspectRatio="xMidYMid meet">
<metadata>
Created by potrace 1.16, written by Peter Selinger 2001-2019
</metadata>
<g transform="translate(0.000000,192.000000) scale(0.100000,-0.100000)"
fill="#000000" stroke="none">
759 c272 -64 494 -285 566 -564 28 -110 28 -280 0 -390 -71 -278 -288 -495
-566 -566 -110 -28 -280 -28 -390 0 -277 71 -494 288 -566 566 -28 110 -28
280 0 390 108 421 524 667 956 564z"/>
<path d="M633 1294 c-60 -30 -65 -56 -61 -322 3 -265 8 -282 78 -329 32 -22
39 -23 310 -23 271 0 278 1 310 23 73 49 75 57 75 267 0 175 -1 191 -21 216
-47 64 -62 69 -229 74 l-154 5 -43 42 c-24 23 -56 47 -71 52 -43 16 -157 13
-194 -5z m245 -353 c8 -4 12 -19 10 -32 -3 -22 -8 -24 -66 -27 -54 -3 -64 -6
-79 -29 -15 -23 -15 -28 -2 -52 13 -23 22 -27 79 -31 59 -5 65 -7 68 -29 5
-30 -12 -41 -66 -41 -91 0 -152 50 -152 126 0 46 34 98 74 114 28 11 117 12
134 1z m104 -21 c26 -36 31 -37 48 -6 17 33 40 40 59 21 17 -17 16 -21 -29
-91 -11 -18 -9 -26 15 -62 15 -23 25 -48 21 -57 -9 -24 -42 -18 -66 12 l-21
27 -29 -32 c-53 -58 -84 -8 -35 58 13 18 21 38 18 44 -3 6 -15 23 -25 38 -28
41 -22 73 14 77 4 1 17 -12 30 -29z"/>
</g>
</svg>
