<?xml version="1.0" standalone="no"?>
<!DOCTYPE svg PUBLIC "-//W3C//DTD SVG 20010904//EN"
 "http://www.w3.org/TR/2001/REC-SVG-20010904/DTD/svg10.dtd">
<svg version="1.0" xmlns="http://www.w3.org/2000/svg"
 width="192.000000pt" height="192.000000pt" viewBox="0 0 192.000000 192.000000"
 preserveAspectRatio="xMidYMid meet">
<metadata>
Created by potrace 1.16, written by Peter Selinger 2001-2019
</metadata>
<g transform="translate(0.000000,192.000000) scale(0.100000,-0.100000)"
fill="#000000" stroke="none">
811 c445 -92 729 -532 635 -987 -62 -301 -295 -546 -601 -630 -91 -26 -329
-26 -420 0 -291 80 -516 305 -596 596 -26 91 -26 329 0 420 120 433 542 692
982 601z"/>
<path d="M862 1365 c-77 -22 -110 -41 -173 -104 -38 -39 -63 -75 -80 -116 -22
-57 -24 -72 -24 -272 0 -236 1 -240 75 -291 32 -21 40 -22 295 -22 255 0 263
1 295 22 74 51 75 55 75 291 0 261 -10 294 -110 393 -98 96 -231 133 -353 99z
m-6 -244 c43 -26 68 -83 68 -152 -2 -164 -166 -224 -234 -85 -68 142 48 309
166 237z m345 -8 c61 -52 77 -149 39 -229 -68 -140 -233 -77 -233 90 0 131
109 210 194 139z"/>
</g>
</svg>
