<?xml version="1.0" standalone="no"?>
<!DOCTYPE svg PUBLIC "-//W3C//DTD SVG 20010904//EN"
 "http://www.w3.org/TR/2001/REC-SVG-20010904/DTD/svg10.dtd">
<svg version="1.0" xmlns="http://www.w3.org/2000/svg"
 width="192.000000pt" height="192.000000pt" viewBox="0 0 192.000000 192.000000"
 preserveAspectRatio="xMidYMid meet">
<metadata>
Created by potrace 1.16, written by Peter Selinger 2001-2019
</metadata>
<g transform="translate(0.000000,192.000000) scale(0.100000,-0.100000)"
fill="#000000" stroke="none">
811 c445 -92 729 -532 635 -987 -62 -301 -295 -546 -601 -630 -91 -26 -329
-26 -420 0 -291 80 -516 305 -596 596 -26 91 -26 329 0 420 120 433 542 692
982 601z"/>
<path d="M662 1348 c-8 -8 -12 -47 -12 -110 0 -91 -2 -102 -27 -140 -28 -41
-28 -42 -28 -223 0 -180 0 -182 27 -222 16 -24 44 -49 70 -62 41 -19 60 -21
264 -21 249 0 278 7 330 76 l29 37 0 191 c0 182 -1 192 -22 223 -20 27 -23 43
-23 131 0 102 -10 132 -44 132 -27 0 -36 -26 -36 -105 l0 -80 -95 3 -95 3 0
62 c0 79 -7 105 -32 112 -36 12 -48 -12 -48 -96 l0 -79 -100 0 -100 0 0 78 c0
75 -9 102 -35 102 -6 0 -16 -5 -23 -12z m162 -580 c13 -21 -2 -51 -26 -56 -16
-3 -48 23 -48 38 0 15 32 41 48 38 8 -2 20 -11 26 -20z m100 16 c24 -9 21 -61
-4 -69 -39 -12 -66 35 -38 63 14 14 20 14 42 6z m130 -16 c23 -38 -36 -77 -64
-43 -10 12 -10 21 -1 41 13 29 47 30 65 2z m104 10 c28 -28 1 -75 -38 -63 -14
4 -20 15 -20 35 0 37 33 53 58 28z"/>
</g>
</svg>
