<?xml version="1.0" standalone="no"?>
<!DOCTYPE svg PUBLIC "-//W3C//DTD SVG 20010904//EN"
 "http://www.w3.org/TR/2001/REC-SVG-20010904/DTD/svg10.dtd">
<svg version="1.0" xmlns="http://www.w3.org/2000/svg"
 width="192.000000pt" height="192.000000pt" viewBox="0 0 192.000000 192.000000"
 preserveAspectRatio="xMidYMid meet">
<metadata>
Created by potrace 1.16, written by Peter Selinger 2001-2019
</metadata>
<g transform="translate(0.000000,192.000000) scale(0.100000,-0.100000)"
fill="#000000" stroke="none">
811 c445 -92 729 -532 635 -987 -62 -301 -295 -546 -601 -630 -91 -26 -329
-26 -420 0 -291 80 -516 305 -596 596 -26 91 -26 329 0 420 120 433 542 692
982 601z"/>
<path d="M1072 1337 c-19 -20 -22 -35 -22 -98 l0 -75 46 -44 c25 -25 54 -61
64 -80 l19 -35 1 158 c0 144 -2 159 -20 177 -27 27 -62 25 -88 -3z"/>
<path d="M755 1156 c-63 -29 -138 -111 -159 -173 -22 -64 -20 -151 4 -217 56
-147 236 -229 383 -173 l47 19 0 64 c0 72 -13 87 -52 60 -65 -46 -150 -40
-212 14 -45 40 -59 78 -54 145 5 62 26 97 79 133 45 32 138 28 187 -7 61 -43
72 -81 72 -251 0 -147 1 -152 25 -175 30 -31 44 -31 79 -4 l28 22 -4 176 c-3
168 -4 178 -30 227 -31 59 -93 118 -152 145 -61 28 -176 26 -241 -5z"/>
<path d="M823 995 c-68 -29 -97 -141 -52 -199 54 -68 149 -74 206 -13 42 46
51 94 27 144 -36 72 -109 100 -181 68z"/>
</g>
</svg>
