<?xml version="1.0" standalone="no"?>
<!DOCTYPE svg PUBLIC "-//W3C//DTD SVG 20010904//EN"
 "http://www.w3.org/TR/2001/REC-SVG-20010904/DTD/svg10.dtd">
<svg version="1.0" xmlns="http://www.w3.org/2000/svg"
 width="192.000000pt" height="192.000000pt" viewBox="0 0 192.000000 192.000000"
 preserveAspectRatio="xMidYMid meet">
<metadata>
Created by potrace 1.16, written by Peter Selinger 2001-2019
</metadata>
<g transform="translate(0.000000,192.000000) scale(0.100000,-0.100000)"
fill="#000000" stroke="none">
811 c445 -92 729 -532 635 -987 -62 -301 -295 -546 -601 -630 -91 -26 -329
-26 -420 0 -291 80 -516 305 -596 596 -26 91 -26 329 0 420 120 433 542 692
982 601z"/>
<path d="M891 1369 c-56 -11 -124 -51 -154 -92 -61 -80 -62 -85 -65 -328 l-4
-227 -39 -38 c-47 -46 -52 -83 -13 -113 25 -19 40 -21 191 -21 159 0 197 6
215 34 4 6 8 133 8 281 0 311 -2 319 -86 357 -74 32 -155 4 -187 -65 -20 -41
-24 -215 -6 -250 20 -38 61 -76 90 -82 26 -6 29 -11 28 -43 0 -20 -3 -31 -6
-24 -3 7 -21 19 -41 28 -91 38 -112 83 -112 244 0 134 14 180 67 218 103 74
249 24 282 -95 6 -22 11 -148 11 -300 l0 -262 26 -20 c22 -17 41 -21 101 -21
65 0 77 3 98 25 42 41 33 70 -36 121 l-49 36 0 222 c0 219 0 223 -26 274 -52
105 -174 164 -293 141z m-72 -288 c16 -10 6 -31 -15 -31 -9 0 -12 5 -8 11 5 9
-1 10 -20 5 -32 -8 -35 1 -3 14 28 11 29 11 46 1z m127 -5 c18 -14 18 -15 0
-22 -10 -4 -21 -2 -25 5 -4 6 -16 9 -27 6 -19 -6 -19 -6 0 9 24 20 27 20 52 2z
m-68 -122 c-11 -11 -23 -14 -35 -9 -15 7 -13 9 12 15 17 4 32 8 35 9 2 0 -3
-6 -12 -15z m22 -46 c0 -5 -20 -8 -45 -8 -25 0 -45 3 -45 8 0 4 20 7 45 7 25
0 45 -3 45 -7z"/>
</g>
</svg>
