<?xml version="1.0" standalone="no"?>
<!DOCTYPE svg PUBLIC "-//W3C//DTD SVG 20010904//EN"
 "http://www.w3.org/TR/2001/REC-SVG-20010904/DTD/svg10.dtd">
<svg version="1.0" xmlns="http://www.w3.org/2000/svg"
 width="192.000000pt" height="192.000000pt" viewBox="0 0 192.000000 192.000000"
 preserveAspectRatio="xMidYMid meet">
<metadata>
Created by potrace 1.16, written by Peter Selinger 2001-2019
</metadata>
<g transform="translate(0.000000,192.000000) scale(0.100000,-0.100000)"
fill="#000000" stroke="none">
811 c445 -92 729 -532 635 -987 -62 -301 -295 -546 -601 -630 -91 -26 -329
-26 -420 0 -291 80 -516 305 -596 596 -26 91 -26 329 0 420 120 433 542 692
982 601z"/>
<path d="M665 1355 c-143 -77 -153 -262 -19 -341 58 -34 188 -45 246 -21 46
19 51 37 46 160 -3 105 -21 143 -86 188 -45 30 -143 38 -187 14z"/>
<path d="M1101 1359 c-44 -18 -82 -51 -103 -92 -18 -35 -22 -59 -23 -139 0
-88 2 -100 23 -120 21 -21 32 -23 125 -23 115 1 144 11 195 69 28 33 52 89 52
126 0 34 -22 91 -47 121 -49 58 -153 86 -222 58z"/>
<path d="M686 936 c-57 -21 -87 -47 -113 -96 -29 -55 -29 -113 0 -170 60 -118
204 -148 299 -62 56 51 68 84 68 196 0 131 -8 140 -127 144 -58 1 -101 -3
-127 -12z"/>
<path d="M1025 940 c-42 -17 -50 -38 -50 -139 1 -80 5 -103 23 -138 80 -152
318 -127 362 38 27 99 -37 211 -137 238 -44 13 -169 13 -198 1z"/>
</g>
</svg>
