<?xml version="1.0" standalone="no"?>
<!DOCTYPE svg PUBLIC "-//W3C//DTD SVG 20010904//EN"
 "http://www.w3.org/TR/2001/REC-SVG-20010904/DTD/svg10.dtd">
<svg version="1.0" xmlns="http://www.w3.org/2000/svg"
 width="192.000000pt" height="192.000000pt" viewBox="0 0 192.000000 192.000000"
 preserveAspectRatio="xMidYMid meet">
<metadata>
Created by potrace 1.16, written by Peter Selinger 2001-2019
</metadata>
<g transform="translate(0.000000,192.000000) scale(0.100000,-0.100000)"
fill="#000000" stroke="none">
810 c245 -63 441 -223 549 -451 55 -116 75 -212 75 -354 0 -141 -20 -238 -75
-352 -86 -182 -215 -312 -396 -398 -116 -55 -212 -75 -354 -75 -142 0 -238 20
-354 75 -228 108 -388 304 -451 549 -28 110 -28 292 0 402 76 298 303 526 600
603 106 28 298 28 406 1z"/>
<path d="M840 1361 c-55 -17 -131 -63 -172 -103 l-43 -43 94 -5 c61 -3 96 -9
98 -17 3 -7 -21 -29 -53 -50 l-57 -38 37 -6 c60 -10 71 -28 71 -115 0 -103
-13 -114 -134 -114 -92 0 -103 3 -94 26 4 10 26 14 84 14 88 0 99 8 99 75 0
63 -13 75 -79 75 -54 0 -71 8 -71 34 0 2 25 20 55 40 30 20 55 38 55 41 0 3
-29 5 -65 5 l-66 0 -19 -45 c-31 -73 -43 -163 -31 -231 12 -67 65 -182 88
-191 10 -4 61 40 154 133 l139 139 0 192 0 193 -32 -1 c-18 0 -44 -4 -58 -8z"/>
<path d="M990 1186 l0 -186 186 0 187 0 -7 43 c-24 149 -180 305 -325 324
l-41 6 0 -187z"/>
<path d="M1034 929 c-7 -12 204 -229 223 -229 17 0 69 90 89 151 27 90 29 89
-150 89 -105 0 -157 -4 -162 -11z"/>
<path d="M818 785 c-71 -68 -128 -126 -128 -128 0 -12 86 -59 142 -78 86 -29
201 -23 284 15 111 51 113 42 -33 188 -70 70 -130 128 -133 128 -3 -1 -62 -57
-132 -125z"/>
</g>
</svg>
