<?xml version="1.0" standalone="no"?>
<!DOCTYPE svg PUBLIC "-//W3C//DTD SVG 20010904//EN"
 "http://www.w3.org/TR/2001/REC-SVG-20010904/DTD/svg10.dtd">
<svg version="1.0" xmlns="http://www.w3.org/2000/svg"
 width="192.000000pt" height="192.000000pt" viewBox="0 0 192.000000 192.000000"
 preserveAspectRatio="xMidYMid meet">
<metadata>
Created by potrace 1.16, written by Peter Selinger 2001-2019
</metadata>
<g transform="translate(0.000000,192.000000) scale(0.100000,-0.100000)"
fill="#000000" stroke="none">
811 c445 -92 729 -532 635 -987 -62 -301 -295 -546 -601 -630 -91 -26 -329
-26 -420 0 -291 80 -516 305 -596 596 -26 91 -26 329 0 420 120 433 542 692
982 601z"/>
<path d="M1258 1348 c-8 -7 -59 -77 -113 -155 -53 -78 -104 -148 -111 -154
-11 -9 -35 -10 -91 -3 -75 9 -77 10 -85 40 -16 62 -94 70 -126 13 -17 -29 -17
-29 -85 -23 -57 6 -71 4 -87 -11 -11 -10 -20 -28 -20 -40 0 -45 24 -53 240
-75 113 -12 208 -24 212 -26 5 -3 8 -88 8 -189 0 -172 1 -185 19 -195 31 -16
59 -12 75 12 13 18 16 57 16 211 l0 189 115 168 c71 104 115 178 115 193 0 47
-47 72 -82 45z"/>
</g>
</svg>
