<?xml version="1.0" standalone="no"?>
<!DOCTYPE svg PUBLIC "-//W3C//DTD SVG 20010904//EN"
 "http://www.w3.org/TR/2001/REC-SVG-20010904/DTD/svg10.dtd">
<svg version="1.0" xmlns="http://www.w3.org/2000/svg"
 width="192.000000pt" height="192.000000pt" viewBox="0 0 192.000000 192.000000"
 preserveAspectRatio="xMidYMid meet">
<metadata>
Created by potrace 1.16, written by Peter Selinger 2001-2019
</metadata>
<g transform="translate(0.000000,192.000000) scale(0.100000,-0.100000)"
fill="#000000" stroke="none">
811 c445 -92 729 -532 635 -987 -62 -301 -295 -546 -601 -630 -91 -26 -329
-26 -420 0 -291 80 -516 305 -596 596 -26 91 -26 329 0 420 120 433 542 692
982 601z"/>
<path d="M1148 1365 c-33 -18 -48 -66 -48 -149 0 -56 -1 -58 -22 -51 -71 21
-109 26 -157 21 -313 -36 -386 -459 -104 -598 95 -46 181 -46 276 0 76 38 128
94 158 172 17 45 19 78 19 309 l0 259 -31 26 c-35 29 -52 31 -91 11z m-130
-359 c53 -28 75 -62 80 -124 3 -47 0 -63 -20 -92 -27 -40 -79 -70 -123 -70
-44 0 -96 30 -123 70 -20 29 -23 45 -20 92 5 61 20 87 73 119 36 22 95 24 133
5z"/>
</g>
</svg>
