<?xml version="1.0" standalone="no"?>
<!DOCTYPE svg PUBLIC "-//W3C//DTD SVG 20010904//EN"
 "http://www.w3.org/TR/2001/REC-SVG-20010904/DTD/svg10.dtd">
<svg version="1.0" xmlns="http://www.w3.org/2000/svg"
 width="192.000000pt" height="192.000000pt" viewBox="0 0 192.000000 192.000000"
 preserveAspectRatio="xMidYMid meet">
<metadata>
Created by potrace 1.16, written by Peter Selinger 2001-2019
</metadata>
<g transform="translate(0.000000,192.000000) scale(0.100000,-0.100000)"
fill="#000000" stroke="none">
811 c445 -92 729 -532 635 -987 -62 -301 -295 -546 -601 -630 -91 -26 -329
-26 -420 0 -291 80 -516 305 -596 596 -26 91 -26 329 0 420 120 433 542 692
982 601z"/>
<path d="M652 1283 c-45 -22 -89 -75 -102 -124 -7 -26 -10 -107 -8 -213 4
-197 13 -229 87 -281 l43 -30 270 -3 c259 -3 272 -2 314 19 25 11 55 35 68 53
31 41 48 103 35 127 -12 23 -60 49 -89 49 -30 0 -80 53 -80 83 0 32 45 87 71
87 26 0 69 23 92 48 16 17 17 26 7 61 -13 50 -58 103 -104 125 -50 24 -555 23
-604 -1z m309 -213 c16 -9 19 -22 19 -90 l0 -80 -39 0 c-22 0 -52 -5 -68 -11
-69 -26 -134 -38 -159 -29 -24 9 -25 13 -22 87 l3 78 50 7 c28 3 75 15 105 26
64 24 84 26 111 12z"/>
<path d="M1247 994 c-15 -16 -7 -53 14 -59 30 -10 58 19 43 43 -12 18 -45 28
-57 16z"/>
</g>
</svg>
