<?xml version="1.0" standalone="no"?>
<!DOCTYPE svg PUBLIC "-//W3C//DTD SVG 20010904//EN"
 "http://www.w3.org/TR/2001/REC-SVG-20010904/DTD/svg10.dtd">
<svg version="1.0" xmlns="http://www.w3.org/2000/svg"
 width="192.000000pt" height="192.000000pt" viewBox="0 0 192.000000 192.000000"
 preserveAspectRatio="xMidYMid meet">
<metadata>
Created by potrace 1.16, written by Peter Selinger 2001-2019
</metadata>
<g transform="translate(0.000000,192.000000) scale(0.100000,-0.100000)"
fill="#000000" stroke="none">
811 c445 -92 729 -532 635 -987 -62 -301 -295 -546 -601 -630 -91 -26 -329
-26 -420 0 -291 80 -516 305 -596 596 -26 91 -26 329 0 420 120 433 542 692
982 601z"/>
<path d="M1153 1360 c-33 -14 -43 -42 -43 -123 l0 -75 -61 19 c-74 23 -106 24
-178 3 -102 -28 -194 -117 -221 -214 -29 -104 2 -229 76 -305 127 -132 331
-132 458 0 79 80 86 115 86 404 0 222 -2 251 -17 270 -21 24 -68 35 -100 21z
m-123 -349 c47 -25 83 -93 76 -145 -9 -78 -71 -131 -151 -131 -57 0 -91 18
-128 66 -67 91 10 229 128 229 22 0 56 -8 75 -19z"/>
</g>
</svg>
