<?xml version="1.0" standalone="no"?>
<!DOCTYPE svg PUBLIC "-//W3C//DTD SVG 20010904//EN"
 "http://www.w3.org/TR/2001/REC-SVG-20010904/DTD/svg10.dtd">
<svg version="1.0" xmlns="http://www.w3.org/2000/svg"
 width="192.000000pt" height="192.000000pt" viewBox="0 0 192.000000 192.000000"
 preserveAspectRatio="xMidYMid meet">
<metadata>
Created by potrace 1.16, written by Peter Selinger 2001-2019
</metadata>
<g transform="translate(0.000000,192.000000) scale(0.100000,-0.100000)"
fill="#000000" stroke="none">
811 c445 -92 729 -532 635 -987 -62 -301 -295 -546 -601 -630 -91 -26 -329
-26 -420 0 -291 80 -516 305 -596 596 -26 91 -26 329 0 420 120 433 542 692
982 601z"/>
<path d="M935 1370 c-11 -4 -28 -16 -37 -26 -22 -25 -82 -153 -75 -160 3 -3
15 0 27 6 12 6 23 10 25 8 3 -2 -2 -26 -10 -53 -8 -26 -15 -77 -15 -112 0 -61
1 -63 20 -53 19 10 20 8 20 -72 0 -52 7 -110 19 -153 11 -38 18 -71 17 -73
-12 -11 -106 154 -106 186 0 15 -12 16 -27 1 -9 -9 -17 6 -32 57 -11 38 -22
86 -26 107 -5 32 -8 36 -25 27 -16 -8 -19 -5 -27 28 l-9 37 -26 -45 c-105
-179 -27 -405 172 -499 45 -21 70 -25 135 -26 71 0 88 4 147 33 84 41 158 120
188 200 18 46 21 72 18 137 -7 121 -28 157 -184 311 -73 72 -141 133 -151 136
-10 3 -28 2 -38 -2z"/>
</g>
</svg>
