<?xml version="1.0" standalone="no"?>
<!DOCTYPE svg PUBLIC "-//W3C//DTD SVG 20010904//EN"
 "http://www.w3.org/TR/2001/REC-SVG-20010904/DTD/svg10.dtd">
<svg version="1.0" xmlns="http://www.w3.org/2000/svg"
 width="192.000000pt" height="192.000000pt" viewBox="0 0 192.000000 192.000000"
 preserveAspectRatio="xMidYMid meet">
<metadata>
Created by potrace 1.16, written by Peter Selinger 2001-2019
</metadata>
<g transform="translate(0.000000,192.000000) scale(0.100000,-0.100000)"
fill="#000000" stroke="none">
811 c445 -92 729 -532 635 -987 -62 -301 -295 -546 -601 -630 -91 -26 -329
-26 -420 0 -291 80 -516 305 -596 596 -26 91 -26 329 0 420 120 433 542 692
982 601z"/>
<path d="M649 1320 c-95 -95 -143 -252 -120 -391 24 -146 109 -262 239 -326
75 -37 78 -38 192 -38 114 0 117 1 194 38 122 61 223 177 229 264 2 25 -1 28
-28 27 -16 -1 -62 -9 -101 -17 -55 -13 -84 -14 -130 -7 -88 14 -193 70 -249
132 -72 81 -95 134 -108 257 -12 105 -12 106 -39 109 -22 3 -38 -7 -79 -48z"/>
</g>
</svg>
