<?xml version="1.0" standalone="no"?>
<!DOCTYPE svg PUBLIC "-//W3C//DTD SVG 20010904//EN"
 "http://www.w3.org/TR/2001/REC-SVG-20010904/DTD/svg10.dtd">
<svg version="1.0" xmlns="http://www.w3.org/2000/svg"
 width="192.000000pt" height="192.000000pt" viewBox="0 0 192.000000 192.000000"
 preserveAspectRatio="xMidYMid meet">
<metadata>
Created by potrace 1.16, written by Peter Selinger 2001-2019
</metadata>
<g transform="translate(0.000000,192.000000) scale(0.100000,-0.100000)"
fill="#000000" stroke="none">
811 c445 -92 729 -532 635 -987 -62 -301 -295 -546 -601 -630 -91 -26 -329
-26 -420 0 -291 80 -516 305 -596 596 -26 91 -26 329 0 420 120 433 542 692
982 601z"/>
<path d="M900 1366 c-14 -8 -35 -28 -48 -45 -19 -26 -29 -31 -65 -31 -60 0
-114 -17 -132 -43 -10 -14 -15 -44 -15 -85 0 -61 -2 -66 -44 -114 -24 -28 -46
-60 -48 -72 -8 -39 11 -82 52 -120 38 -35 40 -40 40 -96 0 -48 5 -64 24 -87
21 -24 32 -28 97 -31 71 -4 76 -6 121 -48 65 -61 101 -61 167 1 45 42 51 45
104 45 48 0 62 4 88 28 29 26 33 35 38 105 6 71 9 79 44 114 62 64 58 127 -13
186 -25 22 -30 33 -30 72 0 101 -45 145 -152 145 -48 0 -56 4 -93 40 -47 46
-95 59 -135 36z m168 -162 c166 -83 202 -303 70 -431 -48 -45 -66 -56 -121
-71 -66 -18 -67 -15 -67 267 0 136 3 251 7 254 14 14 61 6 111 -19z"/>
</g>
</svg>
