<?xml version="1.0" standalone="no"?>
<!DOCTYPE svg PUBLIC "-//W3C//DTD SVG 20010904//EN"
 "http://www.w3.org/TR/2001/REC-SVG-20010904/DTD/svg10.dtd">
<svg version="1.0" xmlns="http://www.w3.org/2000/svg"
 width="192.000000pt" height="192.000000pt" viewBox="0 0 192.000000 192.000000"
 preserveAspectRatio="xMidYMid meet">
<metadata>
Created by potrace 1.16, written by Peter Selinger 2001-2019
</metadata>
<g transform="translate(0.000000,192.000000) scale(0.100000,-0.100000)"
fill="#000000" stroke="none">
811 c445 -92 729 -532 635 -987 -62 -301 -295 -546 -601 -630 -91 -26 -329
-26 -420 0 -291 80 -516 305 -596 596 -26 91 -26 329 0 420 120 433 542 692
982 601z"/>
<path d="M800 1240 l0 -131 47 -20 c85 -36 88 -33 91 114 l3 127 -47 20 c-25
11 -57 20 -70 20 l-24 0 0 -130z"/>
<path d="M625 1349 c-3 -8 -4 -178 -3 -378 l3 -365 56 -20 c95 -34 89 -59 89
364 l0 371 -37 15 c-56 24 -102 29 -108 13z"/>
<path d="M978 1274 c-5 -4 -8 -60 -8 -125 l0 -118 58 -21 c83 -31 86 -27 90
113 l3 116 -38 17 c-47 20 -96 28 -105 18z"/>
<path d="M1148 1154 c-5 -4 -8 -90 -8 -191 l0 -184 38 -16 c20 -9 53 -16 72
-17 l35 -1 3 187 2 188 -37 16 c-47 20 -96 28 -105 18z"/>
<path d="M983 903 c-10 -3 -13 -38 -13 -124 l0 -120 47 -20 c26 -11 58 -19 72
-17 l26 3 3 116 c3 129 4 125 -68 152 -49 18 -48 18 -67 10z"/>
<path d="M811 861 c-8 -5 -11 -46 -9 -135 l3 -128 53 -20 c81 -30 82 -29 82
121 l0 129 -59 20 c-32 11 -64 17 -70 13z"/>
</g>
</svg>
