<?xml version="1.0" standalone="no"?>
<!DOCTYPE svg PUBLIC "-//W3C//DTD SVG 20010904//EN"
 "http://www.w3.org/TR/2001/REC-SVG-20010904/DTD/svg10.dtd">
<svg version="1.0" xmlns="http://www.w3.org/2000/svg"
 width="192.000000pt" height="192.000000pt" viewBox="0 0 192.000000 192.000000"
 preserveAspectRatio="xMidYMid meet">
<metadata>
Created by potrace 1.16, written by Peter Selinger 2001-2019
</metadata>
<g transform="translate(0.000000,192.000000) scale(0.100000,-0.100000)"
fill="#000000" stroke="none">
811 c445 -92 729 -532 635 -987 -62 -301 -295 -546 -601 -630 -91 -26 -329
-26 -420 0 -291 80 -516 305 -596 596 -26 91 -26 329 0 420 120 433 542 692
982 601z"/>
<path d="M895 1348 c-50 -18 -92 -55 -115 -103 -18 -36 -27 -45 -48 -45 -40 0
-105 -36 -125 -69 -15 -25 -17 -59 -17 -249 l0 -220 27 -33 c47 -56 67 -59
340 -59 277 0 297 4 340 69 22 33 23 42 23 246 0 204 -1 213 -23 246 -26 39
-78 69 -122 69 -26 1 -33 7 -53 50 -38 81 -147 128 -227 98z m145 -93 c52 -50
43 -55 -90 -55 l-121 0 14 26 c36 69 139 84 197 29z m73 -309 c35 -32 44 -84
22 -129 -20 -43 -66 -67 -127 -67 -38 0 -49 5 -81 38 -21 21 -34 41 -31 45 4
4 43 7 86 7 77 0 79 1 76 23 -3 21 -7 22 -118 25 -114 3 -115 3 -147 34 -18
18 -33 36 -33 40 0 4 74 8 164 8 158 0 164 -1 189 -24z"/>
</g>
</svg>
