<?xml version="1.0" standalone="no"?>
<!DOCTYPE svg PUBLIC "-//W3C//DTD SVG 20010904//EN"
 "http://www.w3.org/TR/2001/REC-SVG-20010904/DTD/svg10.dtd">
<svg version="1.0" xmlns="http://www.w3.org/2000/svg"
 width="192.000000pt" height="192.000000pt" viewBox="0 0 192.000000 192.000000"
 preserveAspectRatio="xMidYMid meet">
<metadata>
Created by potrace 1.16, written by Peter Selinger 2001-2019
</metadata>
<g transform="translate(0.000000,192.000000) scale(0.100000,-0.100000)"
fill="#000000" stroke="none">
811 c445 -92 729 -532 635 -987 -62 -301 -295 -546 -601 -630 -91 -26 -329
-26 -420 0 -291 80 -516 305 -596 596 -26 91 -26 329 0 420 120 433 542 692
982 601z"/>
<path d="M850 1364 c-149 -40 -277 -178 -297 -319 l-6 -45 101 0 100 0 12 35
c52 156 274 185 361 47 16 -25 29 -54 29 -64 0 -16 11 -18 106 -18 l107 0 -6
45 c-10 66 -52 148 -105 203 -110 113 -257 155 -402 116z"/>
<path d="M916 1100 c-39 -12 -83 -56 -96 -96 -27 -81 41 -174 126 -174 85 0
144 55 144 135 0 92 -88 161 -174 135z"/>
<path d="M553 889 c15 -110 120 -243 234 -297 52 -24 69 -27 168 -27 104 0
114 2 176 32 113 56 212 183 226 294 l6 39 -104 0 -104 -1 -24 -50 c-15 -33
-37 -59 -64 -77 -35 -23 -51 -27 -118 -27 -71 0 -80 2 -116 31 -21 17 -49 51
-63 77 l-25 47 -99 0 -99 0 6 -41z"/>
</g>
</svg>
