<?xml version="1.0" standalone="no"?>
<!DOCTYPE svg PUBLIC "-//W3C//DTD SVG 20010904//EN"
 "http://www.w3.org/TR/2001/REC-SVG-20010904/DTD/svg10.dtd">
<svg version="1.0" xmlns="http://www.w3.org/2000/svg"
 width="192.000000pt" height="192.000000pt" viewBox="0 0 192.000000 192.000000"
 preserveAspectRatio="xMidYMid meet">
<metadata>
Created by potrace 1.16, written by Peter Selinger 2001-2019
</metadata>
<g transform="translate(0.000000,192.000000) scale(0.100000,-0.100000)"
fill="#000000" stroke="none">
811 c445 -92 729 -532 635 -987 -62 -301 -295 -546 -601 -630 -91 -26 -329
-26 -420 0 -291 80 -516 305 -596 596 -26 91 -26 329 0 420 120 433 542 692
982 601z"/>
<path d="M870 1369 c-70 -14 -151 -58 -208 -116 -199 -198 -138 -536 117 -657
61 -29 74 -31 176 -31 104 0 114 2 176 32 80 40 159 120 197 200 24 52 27 69
27 168 0 102 -2 115 -31 176 -81 171 -267 265 -454 228z m233 -83 c137 -67
219 -212 202 -360 -12 -100 3 -96 -349 -96 -373 0 -351 -8 -351 132 0 79 4
101 26 148 66 140 186 213 340 207 59 -3 90 -10 132 -31z"/>
<path d="M850 1209 c-95 -43 -160 -138 -160 -236 l0 -53 99 0 99 0 -36 91
c-39 98 -37 121 10 127 32 4 38 -4 83 -120 l38 -98 119 0 118 0 0 38 c0 193
-199 328 -370 251z"/>
</g>
</svg>
