<?xml version="1.0" standalone="no"?>
<!DOCTYPE svg PUBLIC "-//W3C//DTD SVG 20010904//EN"
 "http://www.w3.org/TR/2001/REC-SVG-20010904/DTD/svg10.dtd">
<svg version="1.0" xmlns="http://www.w3.org/2000/svg"
 width="192.000000pt" height="192.000000pt" viewBox="0 0 192.000000 192.000000"
 preserveAspectRatio="xMidYMid meet">
<metadata>
Created by potrace 1.16, written by Peter Selinger 2001-2019
</metadata>
<g transform="translate(0.000000,192.000000) scale(0.100000,-0.100000)"
fill="#000000" stroke="none">
811 c445 -92 729 -532 635 -987 -62 -301 -295 -546 -601 -630 -91 -26 -329
-26 -420 0 -291 80 -516 305 -596 596 -26 91 -26 329 0 420 120 433 542 692
982 601z"/>
<path d="M835 1363 c-121 -44 -196 -110 -249 -222 -29 -62 -31 -73 -31 -176 0
-105 2 -114 33 -178 128 -260 463 -314 658 -105 196 210 129 543 -135 666 -73
34 -204 41 -276 15z m-71 -285 c32 -46 6 -118 -42 -118 -48 0 -75 98 -36 127
27 20 61 16 78 -9z m458 5 c23 -20 24 -80 1 -105 -37 -41 -93 -9 -93 53 0 62
50 90 92 52z m-40 -200 c30 -27 22 -62 -25 -108 -125 -120 -278 -122 -398 -6
-52 51 -63 86 -33 115 24 24 429 24 456 -1z"/>
</g>
</svg>
