<?xml version="1.0" standalone="no"?>
<!DOCTYPE svg PUBLIC "-//W3C//DTD SVG 20010904//EN"
 "http://www.w3.org/TR/2001/REC-SVG-20010904/DTD/svg10.dtd">
<svg version="1.0" xmlns="http://www.w3.org/2000/svg"
 width="192.000000pt" height="192.000000pt" viewBox="0 0 192.000000 192.000000"
 preserveAspectRatio="xMidYMid meet">
<metadata>
Created by potrace 1.16, written by Peter Selinger 2001-2019
</metadata>
<g transform="translate(0.000000,192.000000) scale(0.100000,-0.100000)"
fill="#000000" stroke="none">
811 c445 -92 729 -532 635 -987 -62 -301 -295 -546 -601 -630 -91 -26 -329
-26 -420 0 -291 80 -516 305 -596 596 -26 91 -26 329 0 420 120 433 542 692
982 601z"/>
<path d="M695 1321 c-95 -44 -115 -94 -115 -289 l0 -148 45 -22 c52 -25 48
-30 64 81 6 43 18 91 27 108 13 26 13 36 4 60 -7 16 -9 40 -6 54 4 14 2 25 -4
25 -5 0 -10 9 -10 20 0 13 7 20 20 20 11 0 20 -4 20 -10 0 -5 13 -10 28 -10
38 0 62 -28 62 -73 0 -28 -6 -40 -25 -53 -33 -21 -33 -64 -1 -124 13 -25 29
-64 35 -87 8 -28 29 -60 66 -97 30 -31 59 -56 64 -56 6 0 22 -16 37 -36 15
-19 54 -49 86 -65 53 -27 63 -29 99 -19 23 6 56 27 79 50 55 55 63 102 58 345
-3 229 -11 256 -87 310 l-43 30 -231 3 c-210 2 -236 0 -272 -17z m470 -95 c71
-30 84 -125 24 -182 -24 -23 -39 -29 -74 -29 -94 0 -147 113 -85 180 43 46 79
54 135 31z"/>
<path d="M580 785 c0 -74 46 -144 115 -176 33 -15 65 -19 178 -19 103 0 137 3
137 13 0 12 -394 217 -418 217 -7 0 -12 -14 -12 -35z"/>
</g>
</svg>
