<?xml version="1.0" standalone="no"?>
<!DOCTYPE svg PUBLIC "-//W3C//DTD SVG 20010904//EN"
 "http://www.w3.org/TR/2001/REC-SVG-20010904/DTD/svg10.dtd">
<svg version="1.0" xmlns="http://www.w3.org/2000/svg"
 width="192.000000pt" height="192.000000pt" viewBox="0 0 192.000000 192.000000"
 preserveAspectRatio="xMidYMid meet">
<metadata>
Created by potrace 1.16, written by Peter Selinger 2001-2019
</metadata>
<g transform="translate(0.000000,192.000000) scale(0.100000,-0.100000)"
fill="#000000" stroke="none">
811 c445 -92 729 -532 635 -987 -62 -301 -295 -546 -601 -630 -91 -26 -329
-26 -420 0 -291 80 -516 305 -596 596 -26 91 -26 329 0 420 120 433 542 692
982 601z"/>
<path d="M609 1311 l-29 -29 0 -145 c0 -117 3 -147 15 -157 14 -12 14 -15 0
-30 -12 -13 -15 -45 -15 -159 l0 -143 29 -29 29 -29 315 0 315 0 31 26 31 26
0 148 c0 120 -3 150 -15 160 -14 12 -14 15 0 30 12 13 15 46 15 162 l0 146
-31 26 -31 26 -315 0 -315 0 -29 -29z m631 -167 c0 -91 -3 -109 -20 -131 -25
-33 -25 -63 0 -96 17 -22 20 -40 20 -131 l0 -106 -285 0 -285 0 0 106 c0 91 3
109 20 131 11 14 20 36 20 48 0 12 -9 34 -20 48 -17 22 -20 40 -20 131 l0 106
285 0 285 0 0 -106z"/>
<path d="M762 1212 c-9 -6 -12 -36 -10 -113 l3 -104 57 -3 c51 -3 61 0 83 22
21 21 25 34 25 86 0 34 -4 70 -10 80 -17 32 -114 53 -148 32z m96 -104 c2 -38
-1 -49 -16 -57 -27 -14 -32 -5 -32 56 0 51 2 54 23 51 19 -3 22 -10 25 -50z"/>
<path d="M1034 1212 c-12 -8 -74 -179 -74 -205 0 -28 49 -22 60 8 7 18 17 25
35 25 17 0 29 -8 37 -25 8 -18 19 -25 40 -25 15 0 28 3 28 7 0 16 -63 199 -73
211 -11 13 -36 16 -53 4z m36 -114 c0 -5 -6 -8 -14 -8 -9 0 -12 7 -9 21 4 16
8 17 14 7 5 -7 9 -16 9 -20z"/>
<path d="M754 925 c-11 -28 4 -45 41 -45 19 0 35 -2 35 -5 0 -2 -18 -30 -40
-61 -64 -91 -53 -108 65 -102 57 3 60 4 63 31 3 26 1 27 -37 27 -23 0 -41 2
-41 5 0 4 18 32 41 64 58 83 53 95 -44 99 -62 2 -78 0 -83 -13z"/>
<path d="M974 927 c-2 -7 -3 -58 -2 -113 3 -98 3 -99 28 -99 23 0 25 4 28 50
l3 50 27 -50 c21 -39 32 -50 52 -50 l25 0 3 113 3 113 -28 -3 c-25 -3 -29 -8
-33 -46 l-5 -43 -25 45 c-18 34 -31 46 -48 46 -12 0 -25 -6 -28 -13z"/>
</g>
</svg>
