<?xml version="1.0" standalone="no"?>
<!DOCTYPE svg PUBLIC "-//W3C//DTD SVG 20010904//EN"
 "http://www.w3.org/TR/2001/REC-SVG-20010904/DTD/svg10.dtd">
<svg version="1.0" xmlns="http://www.w3.org/2000/svg"
 width="192.000000pt" height="192.000000pt" viewBox="0 0 192.000000 192.000000"
 preserveAspectRatio="xMidYMid meet">
<metadata>
Created by potrace 1.16, written by Peter Selinger 2001-2019
</metadata>
<g transform="translate(0.000000,192.000000) scale(0.100000,-0.100000)"
fill="#000000" stroke="none">
811 c445 -92 729 -532 635 -987 -62 -301 -295 -546 -601 -630 -91 -26 -329
-26 -420 0 -291 80 -516 305 -596 596 -26 91 -26 329 0 420 120 433 542 692
982 601z"/>
<path d="M877 1346 c-3 -8 3 -38 14 -66 20 -54 19 -71 -3 -52 -27 21 -139 52
-193 52 -60 0 -142 -17 -150 -31 -3 -4 26 -29 65 -54 38 -26 72 -51 75 -56 4
-5 -10 -16 -29 -26 -45 -21 -46 -47 -5 -72 l30 -18 -42 -17 c-57 -23 -101 -55
-93 -68 4 -5 22 -17 41 -24 l35 -15 -39 -30 c-21 -17 -38 -36 -38 -42 0 -6 45
-27 101 -46 120 -43 123 -45 150 -96 26 -49 116 -115 156 -115 16 0 39 5 51
11 45 24 105 79 117 110 11 26 29 39 97 70 87 41 97 54 72 101 -9 17 -5 26 30
62 23 23 41 47 41 53 0 6 -13 16 -30 23 -16 7 -30 15 -30 17 0 3 14 22 30 43
31 40 38 60 19 60 -7 0 -43 -9 -80 -20 l-69 -21 -44 30 c-34 24 -47 42 -65 89
-28 78 -50 105 -113 136 -58 29 -93 33 -101 12z m89 -439 c-10 -67 8 -75 77
-33 l57 35 0 -25 c0 -29 25 -42 51 -26 27 17 29 16 29 -28 0 -34 -4 -42 -25
-50 -14 -5 -31 -7 -39 -4 -11 4 -17 -5 -22 -33 -10 -54 -20 -70 -66 -103 -53
-39 -93 -39 -145 -1 -37 27 -73 89 -73 126 0 8 -13 15 -32 17 -31 3 -33 6 -36
43 -3 39 -3 39 17 21 28 -25 47 -15 55 30 7 36 8 37 19 14 18 -36 29 -34 77
15 24 25 48 45 53 45 5 0 6 -19 3 -43z"/>
<path d="M830 813 c0 -5 11 -20 25 -33 l25 -24 22 22 c12 12 19 24 16 28 -11
10 -88 17 -88 7z"/>
<path d="M1000 810 c-12 -7 -12 -12 4 -29 25 -28 31 -27 56 9 l21 30 -33 0
c-18 0 -40 -4 -48 -10z"/>
<path d="M910 745 c0 -11 12 -15 45 -15 33 0 45 4 45 15 0 11 -12 15 -45 15
-33 0 -45 -4 -45 -15z"/>
</g>
</svg>
