<?xml version="1.0" standalone="no"?>
<!DOCTYPE svg PUBLIC "-//W3C//DTD SVG 20010904//EN"
 "http://www.w3.org/TR/2001/REC-SVG-20010904/DTD/svg10.dtd">
<svg version="1.0" xmlns="http://www.w3.org/2000/svg"
 width="192.000000pt" height="192.000000pt" viewBox="0 0 192.000000 192.000000"
 preserveAspectRatio="xMidYMid meet">
<metadata>
Created by potrace 1.16, written by Peter Selinger 2001-2019
</metadata>
<g transform="translate(0.000000,192.000000) scale(0.100000,-0.100000)"
fill="#000000" stroke="none">
811 c445 -92 729 -532 635 -987 -62 -301 -295 -546 -601 -630 -91 -26 -329
-26 -420 0 -291 80 -516 305 -596 596 -26 91 -26 329 0 420 120 433 542 692
982 601z"/>
<path d="M552 1232 c-9 -7 -12 -68 -10 -273 l3 -264 140 -3 c160 -3 201 8 236
64 19 31 20 46 17 218 l-3 185 -29 30 c-17 17 -46 36 -65 41 -43 12 -271 13
-289 2z m256 -124 c8 -8 12 -55 12 -144 0 -161 -2 -164 -96 -164 l-64 0 0 160
0 160 68 0 c40 0 73 -5 80 -12z"/>
<path d="M1002 1232 c-9 -7 -12 -68 -10 -273 l3 -264 138 -3 c184 -4 220 13
241 115 9 42 -10 111 -38 136 l-22 19 27 29 c67 72 37 204 -54 238 -33 13
-266 15 -285 3z m243 -162 l0 -45 -67 -3 -68 -3 0 51 0 51 68 -3 67 -3 0 -45z
m-11 -166 c19 -7 22 -74 4 -92 -7 -7 -38 -12 -70 -12 l-58 0 0 55 0 55 54 0
c30 0 61 -3 70 -6z"/>
</g>
</svg>
