<?xml version="1.0" standalone="no"?>
<!DOCTYPE svg PUBLIC "-//W3C//DTD SVG 20010904//EN"
 "http://www.w3.org/TR/2001/REC-SVG-20010904/DTD/svg10.dtd">
<svg version="1.0" xmlns="http://www.w3.org/2000/svg"
 width="192.000000pt" height="192.000000pt" viewBox="0 0 192.000000 192.000000"
 preserveAspectRatio="xMidYMid meet">
<metadata>
Created by potrace 1.16, written by Peter Selinger 2001-2019
</metadata>
<g transform="translate(0.000000,192.000000) scale(0.100000,-0.100000)"
fill="#000000" stroke="none">
811 c445 -92 729 -532 635 -987 -62 -301 -295 -546 -601 -630 -91 -26 -329
-26 -420 0 -291 80 -516 305 -596 596 -26 91 -26 329 0 420 120 433 542 692
982 601z"/>
<path d="M675 1345 c-30 -29 -31 -35 -4 -110 25 -69 39 -202 20 -191 -6 4 -11
31 -12 59 0 29 -8 77 -17 107 -20 61 -47 76 -83 44 -26 -23 -24 -55 7 -133 36
-88 37 -208 4 -296 -34 -90 -36 -119 -10 -145 15 -15 31 -21 51 -18 26 4 28 2
23 -19 -7 -27 17 -69 45 -78 11 -3 48 6 88 22 59 24 82 28 168 28 88 0 110 -4
173 -29 l73 -29 27 20 c37 27 38 50 7 139 -16 47 -25 91 -23 117 3 41 3 41 15
-22 7 -35 20 -84 29 -108 15 -38 21 -44 42 -41 14 2 34 15 46 31 18 24 19 31
7 60 -49 123 -53 141 -49 232 4 69 11 105 33 158 l29 67 -21 28 c-13 17 -31
28 -51 30 -28 3 -32 7 -32 32 0 38 -36 73 -70 67 -14 -3 -59 -17 -100 -32 -98
-36 -204 -33 -294 8 -72 33 -90 34 -121 2z m446 -161 c-40 -45 -38 -52 18 -81
1 -1 -27 -37 -63 -80 -40 -47 -66 -87 -66 -102 0 -14 25 -54 66 -102 36 -43
61 -79 55 -79 -5 0 -38 24 -73 53 -96 81 -102 84 -148 52 -51 -35 -73 -61 -65
-75 4 -6 17 -9 30 -6 19 5 22 2 21 -22 -1 -24 -5 -29 -29 -29 -19 0 -26 5 -23
14 7 17 -3 43 -17 43 -6 0 -19 -7 -29 -17 -10 -9 -20 -14 -23 -11 -3 3 24 41
60 84 36 43 65 86 65 95 0 9 -29 52 -65 95 -62 75 -85 114 -47 82 94 -81 147
-118 166 -118 18 0 83 47 140 101 10 9 -10 39 -25 39 -5 0 -24 -13 -42 -30
-47 -41 -56 -38 -18 5 35 41 37 51 14 77 -21 24 -9 36 15 15 24 -22 31 -21 67
8 44 36 52 30 16 -11z"/>
</g>
</svg>
