<?xml version="1.0" standalone="no"?>
<!DOCTYPE svg PUBLIC "-//W3C//DTD SVG 20010904//EN"
 "http://www.w3.org/TR/2001/REC-SVG-20010904/DTD/svg10.dtd">
<svg version="1.0" xmlns="http://www.w3.org/2000/svg"
 width="192.000000pt" height="192.000000pt" viewBox="0 0 192.000000 192.000000"
 preserveAspectRatio="xMidYMid meet">
<metadata>
Created by potrace 1.16, written by Peter Selinger 2001-2019
</metadata>
<g transform="translate(0.000000,192.000000) scale(0.100000,-0.100000)"
fill="#000000" stroke="none">
811 c445 -92 729 -532 635 -987 -62 -301 -295 -546 -601 -630 -91 -26 -329
-26 -420 0 -291 80 -516 305 -596 596 -26 91 -26 329 0 420 120 433 542 692
982 601z"/>
<path d="M983 1363 c-29 -15 -53 -30 -53 -34 0 -6 183 -273 201 -293 5 -5 14
-4 23 3 8 7 20 10 26 6 5 -3 10 -1 10 6 0 7 12 25 26 40 23 24 25 31 16 58
-15 41 -139 219 -162 231 -26 14 -28 13 -87 -17z m133 -128 c64 -91 79 -129
47 -123 -15 3 -153 193 -153 211 0 5 10 7 22 5 14 -2 43 -34 84 -93z"/>
<path d="M839 1271 l-23 -19 67 -141 c37 -78 67 -143 67 -145 0 -1 -14 -12
-31 -25 l-30 -22 -20 25 c-11 15 -24 24 -27 22 -4 -2 -7 10 -7 27 0 17 6 32
13 35 16 5 15 22 -3 46 -14 18 -16 18 -33 2 -18 -16 -20 -15 -46 18 -32 43
-32 49 -1 66 28 15 32 32 12 48 -10 9 -26 3 -66 -24 -51 -34 -52 -36 -36 -57
8 -12 35 -51 59 -87 24 -36 60 -81 80 -99 20 -19 36 -42 36 -51 0 -9 5 -21 11
-27 11 -11 26 -3 121 62 l38 26 -40 80 c-48 94 -90 189 -85 189 11 0 85 -126
81 -139 -6 -19 55 -54 79 -45 8 4 22 1 30 -6 9 -7 18 -10 21 -8 3 3 -5 14 -18
24 -13 11 -41 42 -63 69 -22 28 -57 69 -79 92 -21 23 -45 52 -53 63 -17 25
-25 25 -54 1z"/>
<path d="M554 1074 c-27 -14 -51 -27 -52 -29 -4 -3 72 -119 129 -198 24 -34
29 -36 42 -22 10 9 18 11 22 5 3 -5 2 -10 -3 -10 -6 0 -13 -7 -16 -16 -4 -10
-2 -13 6 -8 8 5 9 2 5 -9 -3 -10 -2 -17 3 -17 6 0 10 -6 10 -14 0 -11 5 -12
25 -3 14 7 23 18 20 25 -3 7 0 10 6 6 15 -9 59 35 59 60 0 28 -140 232 -168
245 -31 15 -32 15 -88 -15z m56 2 c0 -3 -4 -8 -10 -11 -5 -3 -10 -1 -10 4 0 6
5 11 10 11 6 0 10 -2 10 -4z m46 -86 c20 -28 41 -47 46 -43 7 3 8 1 4 -5 -4
-7 5 -29 19 -49 21 -32 34 -83 21 -83 -14 0 -36 14 -36 22 0 6 -29 52 -65 104
-36 52 -65 96 -65 99 0 3 9 5 20 5 13 0 33 -19 56 -50z"/>
<path d="M1270 1055 c-7 -8 -15 -13 -19 -11 -4 3 -12 1 -19 -3 -8 -5 6 -33 43
-89 51 -75 75 -98 75 -71 0 6 -20 42 -46 81 -45 71 -51 97 -14 63 11 -10 20
-29 20 -42 0 -12 5 -23 11 -23 6 0 18 -9 27 -19 10 -11 28 -22 42 -26 23 -7
22 -4 -12 32 -21 21 -38 44 -38 51 0 18 -29 59 -45 66 -7 2 -19 -2 -25 -9z"/>
<path d="M1172 1000 c-22 -18 -22 -21 -8 -36 21 -20 39 -54 33 -60 -3 -3 5
-15 17 -27 11 -12 28 -32 36 -45 l15 -22 29 23 c18 15 26 28 22 36 -6 9 -11 9
-21 1 -10 -8 -19 -8 -35 2 -16 10 -20 19 -16 42 5 22 3 27 -9 22 -8 -3 -21 4
-30 17 -14 20 -14 23 1 34 9 6 13 16 9 22 -9 15 -16 13 -43 -9z"/>
<path d="M1082 933 c-12 -23 -7 -36 37 -103 49 -75 58 -81 86 -54 12 13 19 14
30 4 8 -7 15 -9 15 -6 0 6 -48 81 -66 105 -1 1 -7 0 -13 -4 -7 -4 -6 -14 5
-30 9 -13 14 -32 12 -42 -2 -12 -17 4 -45 50 -23 37 -37 67 -31 67 6 0 16 -7
22 -15 7 -10 16 -12 26 -5 12 7 12 12 -4 29 -23 26 -62 27 -74 4z"/>
<path d="M998 889 c-29 -16 -21 -47 28 -115 44 -63 68 -76 92 -52 9 9 15 9 24
0 32 -32 25 -6 -13 48 -44 63 -69 72 -42 15 16 -34 10 -65 -7 -35 -5 8 -25 37
-44 65 -24 34 -32 53 -25 60 9 9 21 -1 33 -30 2 -6 9 -5 17 2 10 10 9 16 -6
33 -20 22 -32 24 -57 9z"/>
<path d="M925 830 c-4 -6 -1 -18 6 -27 7 -8 18 -24 24 -36 5 -11 23 -28 39
-37 16 -9 32 -22 34 -29 3 -8 0 -11 -7 -7 -13 8 -14 -3 -2 -23 11 -18 45 -6
35 11 -30 50 -108 158 -115 158 -4 0 -11 -5 -14 -10z"/>
<path d="M868 788 c-2 -6 6 -21 19 -34 13 -13 23 -31 23 -42 0 -10 16 -33 35
-52 28 -27 38 -31 47 -22 10 10 5 20 -25 47 -20 19 -37 42 -37 53 0 10 -10 28
-23 40 -26 25 -34 27 -39 10z"/>
<path d="M825 771 c-4 -8 70 -133 102 -170 2 -3 8 0 14 6 7 7 -5 34 -41 89
-53 82 -64 92 -75 75z"/>
<path d="M763 726 c-36 -23 -45 -51 -14 -41 15 4 27 -5 52 -42 56 -82 65 -92
78 -83 10 6 0 27 -38 81 -39 57 -47 75 -36 77 17 4 16 24 -1 28 -5 1 -23 -8
-41 -20z"/>
</g>
</svg>
