<?xml version="1.0" standalone="no"?>
<!DOCTYPE svg PUBLIC "-//W3C//DTD SVG 20010904//EN"
 "http://www.w3.org/TR/2001/REC-SVG-20010904/DTD/svg10.dtd">
<svg version="1.0" xmlns="http://www.w3.org/2000/svg"
 width="192.000000pt" height="192.000000pt" viewBox="0 0 192.000000 192.000000"
 preserveAspectRatio="xMidYMid meet">
<metadata>
Created by potrace 1.16, written by Peter Selinger 2001-2019
</metadata>
<g transform="translate(0.000000,192.000000) scale(0.100000,-0.100000)"
fill="#000000" stroke="none">
811 c445 -92 729 -532 635 -987 -62 -301 -295 -546 -601 -630 -91 -26 -329
-26 -420 0 -291 80 -516 305 -596 596 -26 91 -26 329 0 420 120 433 542 692
982 601z"/>
<path d="M887 1406 c-9 -10 -17 -13 -17 -8 0 11 -25 10 -36 -1 -4 -3 -1 -15 7
-24 12 -16 12 -17 -1 -6 -10 7 -21 8 -30 3 -8 -5 -18 -6 -24 -3 -5 4 -7 -1 -3
-10 6 -17 -12 -20 -24 -3 -4 4 -7 -2 -7 -15 0 -39 -20 -79 -39 -79 -14 0 -15
-2 -4 -9 8 -5 10 -14 5 -22 -6 -10 -3 -10 11 1 19 15 19 14 2 -12 -17 -28 -17
-28 7 -28 14 0 27 -4 30 -9 9 -13 -4 -42 -15 -35 -5 3 -8 -8 -7 -25 2 -31 3
-31 43 -25 22 3 48 12 57 21 19 17 59 14 66 -4 2 -9 -7 -13 -26 -13 -16 0 -46
-7 -66 -15 -29 -12 -34 -19 -27 -33 5 -9 23 -46 40 -80 18 -35 31 -66 28 -68
-2 -2 -25 31 -52 74 -27 42 -49 78 -50 80 -1 1 -10 0 -19 -4 -21 -8 -20 -28 4
-105 24 -73 21 -95 -10 -79 -22 12 -26 40 -8 58 9 9 7 12 -10 12 -29 0 -51 39
-28 52 9 5 16 13 16 17 0 17 -37 18 -58 1 l-21 -17 31 -59 c17 -33 37 -70 44
-84 16 -29 19 -53 4 -30 -5 8 -10 10 -10 4 0 -20 12 -23 36 -7 13 8 24 12 24
9 0 -4 12 1 26 10 22 15 25 22 19 53 l-7 36 24 -21 c28 -26 80 -22 110 8 18
18 19 25 10 54 -11 38 -8 40 28 19 34 -20 64 -18 91 4 21 17 22 21 10 44 -13
25 -12 75 4 110 6 14 2 17 -23 17 -17 0 -34 -5 -38 -11 -5 -8 -9 -8 -14 1 -5
9 -14 5 -29 -12 l-22 -23 10 27 c8 20 7 27 -1 25 -6 -1 -15 9 -19 23 -4 14 -7
20 -8 13 -1 -14 -27 -11 -43 5 -8 8 1 10 37 6 50 -4 85 13 85 42 0 17 -51 27
-83 15 -27 -11 -37 -5 -34 20 4 26 17 37 47 44 17 4 28 11 24 16 -8 13 40 11
53 -2 6 -6 9 -19 5 -27 -5 -14 -4 -14 9 -2 25 23 18 39 -23 52 -24 7 -37 16
-34 24 7 19 -4 24 -29 14 -16 -6 -25 -5 -27 2 -2 6 -11 4 -21 -6z m23 -326 c0
-5 -7 -7 -15 -4 -8 4 -15 8 -15 10 0 2 7 4 15 4 8 0 15 -4 15 -10z m-36 -77
c15 -31 24 -58 21 -61 -7 -7 -9 -5 -38 61 -14 31 -22 57 -17 57 5 0 20 -25 34
-57z m133 5 c-3 -8 -6 -5 -6 6 -1 11 2 17 5 13 3 -3 4 -12 1 -19z m-217 -68
c0 -13 -1 -13 -10 0 -5 8 -10 22 -10 30 0 13 1 13 10 0 5 -8 10 -22 10 -30z"/>
<path d="M1012 1238 c-11 -18 -18 -36 -16 -40 9 -14 42 -9 48 8 3 8 9 13 14
10 4 -2 13 4 20 14 10 16 9 21 -7 30 -30 15 -37 13 -59 -22z"/>
<path d="M1133 1121 c-29 -51 -29 -67 3 -108 30 -40 37 -39 25 5 -13 43 13 77
50 67 47 -12 57 -64 25 -130 -8 -16 -18 -47 -21 -68 -5 -32 -9 -36 -21 -27 -7
7 -19 31 -25 54 -6 22 -16 47 -21 54 -14 16 -49 15 -72 -1 -17 -12 -16 -18 23
-95 23 -45 45 -82 49 -82 18 0 21 14 7 41 -23 43 -18 51 13 21 15 -15 26 -31
23 -36 -2 -5 -5 -25 -7 -45 -3 -39 9 -61 43 -80 21 -11 22 -10 17 18 -6 27 -3
30 45 46 29 9 59 18 68 19 9 2 19 8 21 14 2 7 15 12 30 12 15 0 22 4 17 9 -15
13 -89 20 -107 10 -24 -13 -29 11 -16 81 9 45 15 59 27 58 10 -2 15 3 13 15
-2 9 3 17 10 17 10 0 10 2 0 9 -8 4 -17 38 -22 75 -5 37 -11 71 -15 74 -4 4
-41 8 -83 10 l-77 3 -22 -40z m-8 -192 c10 -30 0 -33 -13 -4 -6 14 -7 25 -2
25 5 0 12 -9 15 -21z"/>
<path d="M548 963 c-23 -6 -23 -25 1 -65 11 -17 18 -35 15 -40 -3 -4 0 -8 5
-8 6 0 11 -4 11 -9 0 -5 7 -25 15 -44 l15 -36 35 20 c19 12 35 28 35 37 0 8
-14 46 -31 84 -33 71 -43 76 -101 61z m66 -73 c15 -28 26 -57 24 -66 -2 -9
-17 14 -35 50 -37 77 -29 89 11 16z"/>
<path d="M1004 951 c5 -8 4 -16 -3 -20 -8 -6 -7 -18 5 -46 15 -38 15 -40 -4
-55 -14 -12 -17 -21 -11 -31 5 -8 8 -23 8 -34 0 -12 -13 5 -29 39 -29 60 -32
86 -6 50 11 -14 18 -16 26 -8 20 20 -6 56 -37 52 -44 -5 -49 -28 -23 -94 33
-81 46 -95 77 -83 18 6 30 6 39 -2 19 -16 18 -9 -11 52 -13 29 -22 55 -19 58
7 8 34 -32 40 -61 5 -20 13 -28 28 -28 17 0 18 2 6 10 -10 6 -11 10 -2 10 6 0
15 -1 18 -2 3 -2 10 5 15 15 13 23 2 40 -19 28 -12 -7 -19 -3 -29 17 -9 17
-10 29 -3 36 16 16 12 25 -9 19 -24 -6 -36 33 -14 46 12 6 13 13 6 26 -7 12
-12 14 -18 6 -5 -9 -11 -9 -23 1 -13 11 -14 11 -8 -1z"/>
<path d="M850 861 c-36 -10 -37 -53 -2 -121 26 -51 31 -55 62 -55 19 0 41 -4
48 -8 18 -12 15 -2 -15 59 -14 30 -33 54 -41 54 -10 0 -12 -6 -7 -17 22 -53
12 -60 -14 -10 -33 61 -38 78 -19 59 29 -29 52 -3 26 30 -9 10 -21 13 -38 9z"/>
<path d="M767 819 c-15 -9 -12 -19 29 -100 37 -75 47 -89 59 -79 10 8 12 18 6
29 -5 9 -10 21 -12 26 -6 27 -30 74 -39 80 -5 3 -10 15 -10 25 0 24 -11 31
-33 19z"/>
<path d="M685 781 c-11 -5 -24 -6 -29 -3 -5 3 -6 -2 -3 -12 4 -9 3 -15 -2 -12
-5 3 -25 -1 -45 -9 -37 -16 -49 -45 -18 -45 11 0 27 -21 46 -61 27 -56 49 -79
62 -66 3 2 -9 33 -26 68 -33 69 -36 84 -17 92 8 3 25 -21 47 -64 31 -64 47
-79 63 -63 3 4 -1 21 -9 38 l-16 31 24 -28 c16 -20 28 -26 41 -22 15 6 14 12
-14 46 -25 32 -29 42 -19 54 7 8 8 15 3 15 -5 0 -15 11 -21 25 -12 25 -31 30
-67 16z m45 -61 c0 -11 -2 -20 -4 -20 -2 0 -6 9 -9 20 -3 11 -1 20 4 20 5 0 9
-9 9 -20z"/>
</g>
</svg>
