<?xml version="1.0" standalone="no"?>
<!DOCTYPE svg PUBLIC "-//W3C//DTD SVG 20010904//EN"
 "http://www.w3.org/TR/2001/REC-SVG-20010904/DTD/svg10.dtd">
<svg version="1.0" xmlns="http://www.w3.org/2000/svg"
 width="192.000000pt" height="192.000000pt" viewBox="0 0 192.000000 192.000000"
 preserveAspectRatio="xMidYMid meet">
<metadata>
Created by potrace 1.16, written by Peter Selinger 2001-2019
</metadata>
<g transform="translate(0.000000,192.000000) scale(0.100000,-0.100000)"
fill="#000000" stroke="none">
811 c445 -92 729 -532 635 -987 -62 -301 -295 -546 -601 -630 -91 -26 -329
-26 -420 0 -291 80 -516 305 -596 596 -26 91 -26 329 0 420 120 433 542 692
982 601z"/>
<path d="M695 1326 c-38 -17 -90 -72 -104 -109 -17 -44 -14 -470 3 -510 17
-39 71 -92 109 -106 17 -7 119 -11 253 -11 249 0 273 5 327 70 40 48 47 90 47
305 0 215 -7 257 -47 305 -54 65 -77 70 -330 70 -169 -1 -236 -4 -258 -14z
m150 -128 c2 -7 6 -34 10 -60 8 -63 43 -98 98 -98 60 0 97 38 97 99 0 54 12
76 34 68 22 -9 21 -81 -3 -134 -49 -107 -204 -107 -255 1 -16 34 -22 117 -9
129 10 11 23 8 28 -5z"/>
</g>
</svg>
