<?xml version="1.0" standalone="no"?>
<!DOCTYPE svg PUBLIC "-//W3C//DTD SVG 20010904//EN"
 "http://www.w3.org/TR/2001/REC-SVG-20010904/DTD/svg10.dtd">
<svg version="1.0" xmlns="http://www.w3.org/2000/svg"
 width="192.000000pt" height="192.000000pt" viewBox="0 0 192.000000 192.000000"
 preserveAspectRatio="xMidYMid meet">
<metadata>
Created by potrace 1.16, written by Peter Selinger 2001-2019
</metadata>
<g transform="translate(0.000000,192.000000) scale(0.100000,-0.100000)"
fill="#000000" stroke="none">
811 c445 -92 729 -532 635 -987 -62 -301 -295 -546 -601 -630 -91 -26 -329
-26 -420 0 -291 80 -516 305 -596 596 -26 91 -26 329 0 420 120 433 542 692
982 601z"/>
<path d="M973 1373 c-10 -3 -13 -46 -13 -164 0 -137 2 -159 15 -159 28 0 65
-47 65 -80 0 -40 -47 -90 -85 -90 -32 0 -85 49 -85 80 0 11 6 33 14 48 14 27
12 29 -86 145 -55 64 -106 117 -113 117 -21 0 -76 -70 -107 -136 -56 -119 -46
-264 25 -383 82 -137 257 -216 419 -190 191 31 335 188 346 378 12 207 -124
387 -326 430 -29 6 -54 11 -55 10 -1 0 -8 -3 -14 -6z"/>
</g>
</svg>
