<?xml version="1.0" standalone="no"?>
<!DOCTYPE svg PUBLIC "-//W3C//DTD SVG 20010904//EN"
 "http://www.w3.org/TR/2001/REC-SVG-20010904/DTD/svg10.dtd">
<svg version="1.0" xmlns="http://www.w3.org/2000/svg"
 width="192.000000pt" height="192.000000pt" viewBox="0 0 192.000000 192.000000"
 preserveAspectRatio="xMidYMid meet">
<metadata>
Created by potrace 1.16, written by Peter Selinger 2001-2019
</metadata>
<g transform="translate(0.000000,192.000000) scale(0.100000,-0.100000)"
fill="#000000" stroke="none">
811 c445 -92 729 -532 635 -987 -62 -301 -295 -546 -601 -630 -91 -26 -329
-26 -420 0 -291 80 -516 305 -596 596 -26 91 -26 329 0 420 120 433 542 692
982 601z"/>
<path d="M795 1365 c-40 -14 -115 -86 -115 -110 0 -7 -14 -18 -30 -25 -40 -17
-86 -71 -100 -117 -8 -25 -10 -108 -8 -235 l3 -196 30 -43 c55 -77 80 -84 315
-84 238 0 262 7 315 87 17 24 47 55 67 67 21 12 50 42 65 69 l28 47 0 205 c0
174 -3 210 -17 236 -24 44 -81 91 -125 103 -58 16 -379 13 -428 -4z m433 -85
c56 -35 64 -69 60 -271 -3 -170 -4 -180 -25 -201 l-23 -22 0 152 c0 163 -8
202 -53 251 -47 51 -89 61 -260 61 -163 0 -182 6 -113 36 22 9 81 13 206 14
158 0 178 -2 208 -20z m-198 -240 c18 -18 20 -33 20 -138 0 -163 6 -157 -160
-157 -166 0 -160 -6 -160 157 0 159 -1 158 160 158 107 0 122 -2 140 -20z"/>
</g>
</svg>
