<?xml version="1.0" standalone="no"?>
<!DOCTYPE svg PUBLIC "-//W3C//DTD SVG 20010904//EN"
 "http://www.w3.org/TR/2001/REC-SVG-20010904/DTD/svg10.dtd">
<svg version="1.0" xmlns="http://www.w3.org/2000/svg"
 width="192.000000pt" height="192.000000pt" viewBox="0 0 192.000000 192.000000"
 preserveAspectRatio="xMidYMid meet">
<metadata>
Created by potrace 1.16, written by Peter Selinger 2001-2019
</metadata>
<g transform="translate(0.000000,192.000000) scale(0.100000,-0.100000)"
fill="#000000" stroke="none">
811 c445 -92 729 -532 635 -987 -62 -301 -295 -546 -601 -630 -91 -26 -329
-26 -420 0 -291 80 -516 305 -596 596 -26 91 -26 329 0 420 120 433 542 692
982 601z"/>
<path d="M920 1373 c-15 -6 -246 -138 -286 -163 -48 -30 -54 -56 -54 -245 0
-189 6 -215 54 -245 90 -57 281 -162 304 -166 20 -4 46 4 93 28 l65 35 43 -21
c49 -24 61 -16 61 46 0 32 5 39 45 62 75 44 75 46 75 264 l0 194 -27 26 c-37
37 -291 180 -328 186 -17 3 -37 2 -45 -1z m172 -240 c24 -22 23 -75 -2 -98
-14 -12 -30 -16 -57 -13 -27 4 -53 -2 -90 -21 -29 -14 -53 -28 -53 -31 0 -3
25 -18 55 -33 45 -22 60 -25 76 -16 15 8 29 7 50 -1 48 -20 54 -93 8 -119 -37
-21 -78 -7 -93 31 -15 42 -109 89 -148 75 -33 -13 -75 11 -84 48 -12 50 54
104 95 78 23 -15 131 40 131 67 0 42 76 65 112 33z"/>
</g>
</svg>
