<?xml version="1.0" standalone="no"?>
<!DOCTYPE svg PUBLIC "-//W3C//DTD SVG 20010904//EN"
 "http://www.w3.org/TR/2001/REC-SVG-20010904/DTD/svg10.dtd">
<svg version="1.0" xmlns="http://www.w3.org/2000/svg"
 width="192.000000pt" height="192.000000pt" viewBox="0 0 192.000000 192.000000"
 preserveAspectRatio="xMidYMid meet">
<metadata>
Created by potrace 1.16, written by Peter Selinger 2001-2019
</metadata>
<g transform="translate(0.000000,192.000000) scale(0.100000,-0.100000)"
fill="#000000" stroke="none">
811 c445 -92 729 -532 635 -987 -62 -301 -295 -546 -601 -630 -91 -26 -329
-26 -420 0 -291 80 -516 305 -596 596 -26 91 -26 329 0 420 120 433 542 692
982 601z"/>
<path d="M835 1357 c-118 -39 -207 -117 -257 -224 -100 -212 6 -467 229 -554
45 -17 79 -22 148 -22 107 0 178 23 255 84 243 192 201 561 -78 692 -58 27
-79 32 -162 34 -59 2 -110 -2 -135 -10z m260 -107 c63 -31 124 -92 155 -155
35 -73 35 -190 0 -260 l-25 -50 -270 0 -270 0 -25 50 c-20 40 -25 65 -25 125
0 143 78 256 210 303 70 25 184 19 250 -13z"/>
<path d="M906 1198 c-11 -16 -16 -46 -16 -100 l0 -78 -45 0 c-78 0 -72 -22 36
-137 67 -73 80 -71 164 22 79 89 82 109 12 113 l-47 3 0 83 c0 68 -3 86 -18
99 -26 24 -68 21 -86 -5z"/>
</g>
</svg>
