<?xml version="1.0" standalone="no"?>
<!DOCTYPE svg PUBLIC "-//W3C//DTD SVG 20010904//EN"
 "http://www.w3.org/TR/2001/REC-SVG-20010904/DTD/svg10.dtd">
<svg version="1.0" xmlns="http://www.w3.org/2000/svg"
 width="192.000000pt" height="192.000000pt" viewBox="0 0 192.000000 192.000000"
 preserveAspectRatio="xMidYMid meet">
<metadata>
Created by potrace 1.16, written by Peter Selinger 2001-2019
</metadata>
<g transform="translate(0.000000,192.000000) scale(0.100000,-0.100000)"
fill="#000000" stroke="none">
811 c445 -92 729 -532 635 -987 -62 -301 -295 -546 -601 -630 -91 -26 -329
-26 -420 0 -291 80 -516 305 -596 596 -26 91 -26 329 0 420 120 433 542 692
982 601z"/>
<path d="M1172 1344 c-27 -18 -28 -45 -4 -67 22 -20 160 -24 193 -7 30 16 26
68 -7 80 -41 16 -156 12 -182 -6z"/>
<path d="M1162 1168 c-17 -17 -15 -44 4 -62 12 -12 37 -16 103 -16 92 0 111 8
111 45 0 37 -19 45 -115 45 -57 0 -95 -4 -103 -12z"/>
<path d="M849 989 c-8 -16 -8 -28 0 -45 10 -23 15 -24 104 -24 98 0 117 7 117
45 0 38 -19 45 -117 45 -84 0 -93 -2 -104 -21z"/>
<path d="M1159 989 c-8 -16 -8 -28 0 -45 10 -23 15 -24 104 -24 98 0 117 7
117 45 0 38 -19 45 -117 45 -84 0 -93 -2 -104 -21z"/>
<path d="M552 828 c-15 -15 -15 -51 0 -66 8 -8 46 -12 103 -12 93 0 115 8 115
41 0 38 -27 49 -119 49 -54 0 -91 -4 -99 -12z"/>
<path d="M856 824 c-19 -18 -21 -45 -4 -62 13 -13 173 -17 202 -6 19 7 21 55
4 72 -19 19 -183 16 -202 -4z"/>
<path d="M1166 824 c-9 -8 -16 -23 -16 -33 0 -33 22 -41 115 -41 96 0 115 8
115 45 0 37 -19 45 -111 45 -66 0 -91 -4 -103 -16z"/>
<path d="M558 659 c-11 -6 -18 -22 -18 -40 0 -38 27 -49 118 -49 97 0 141 39
96 84 -18 19 -167 22 -196 5z"/>
<path d="M857 652 c-43 -47 -3 -82 95 -82 91 0 118 11 118 49 0 41 -23 51
-118 51 -64 0 -82 -4 -95 -18z"/>
<path d="M1167 652 c-43 -47 -3 -82 95 -82 91 0 118 11 118 49 0 41 -23 51
-118 51 -64 0 -82 -4 -95 -18z"/>
</g>
</svg>
