<?xml version="1.0" standalone="no"?>
<!DOCTYPE svg PUBLIC "-//W3C//DTD SVG 20010904//EN"
 "http://www.w3.org/TR/2001/REC-SVG-20010904/DTD/svg10.dtd">
<svg version="1.0" xmlns="http://www.w3.org/2000/svg"
 width="192.000000pt" height="192.000000pt" viewBox="0 0 192.000000 192.000000"
 preserveAspectRatio="xMidYMid meet">
<metadata>
Created by potrace 1.16, written by Peter Selinger 2001-2019
</metadata>
<g transform="translate(0.000000,192.000000) scale(0.100000,-0.100000)"
fill="#000000" stroke="none">
811 c445 -92 729 -532 635 -987 -62 -301 -295 -546 -601 -630 -91 -26 -329
-26 -420 0 -291 80 -516 305 -596 596 -26 91 -26 329 0 420 120 433 542 692
982 601z"/>
<path d="M680 1071 c0 -334 -3 -321 86 -321 98 0 94 -9 94 220 l0 200 95 0 95
0 0 -205 0 -205 -73 0 c-102 0 -117 -12 -117 -94 0 -91 8 -96 156 -96 l120 0
47 48 47 48 0 300 0 300 -48 47 -48 47 -227 0 -227 0 0 -289z"/>
<path d="M698 729 c-14 -8 -18 -24 -18 -72 0 -36 5 -68 12 -75 7 -7 38 -12 69
-12 68 0 89 20 89 85 0 64 -21 85 -83 85 -29 0 -60 -5 -69 -11z"/>
</g>
</svg>
