<?xml version="1.0" standalone="no"?>
<!DOCTYPE svg PUBLIC "-//W3C//DTD SVG 20010904//EN"
 "http://www.w3.org/TR/2001/REC-SVG-20010904/DTD/svg10.dtd">
<svg version="1.0" xmlns="http://www.w3.org/2000/svg"
 width="192.000000pt" height="192.000000pt" viewBox="0 0 192.000000 192.000000"
 preserveAspectRatio="xMidYMid meet">
<metadata>
Created by potrace 1.16, written by Peter Selinger 2001-2019
</metadata>
<g transform="translate(0.000000,192.000000) scale(0.100000,-0.100000)"
fill="#000000" stroke="none">
811 c445 -92 729 -532 635 -987 -62 -301 -295 -546 -601 -630 -91 -26 -329
-26 -420 0 -291 80 -516 305 -596 596 -26 91 -26 329 0 420 120 433 542 692
982 601z"/>
<path d="M668 1317 c-7 -8 -37 -51 -67 -95 -73 -112 -72 -113 118 -110 l146 3
45 66 45 66 45 -66 45 -66 146 -3 c186 -3 188 -2 123 100 -84 130 -46 118
-360 118 -215 0 -275 -3 -286 -13z"/>
<path d="M913 1123 c-20 -32 -41 -61 -47 -65 -6 -4 -66 -8 -133 -8 l-123 0 0
-158 c0 -144 2 -162 22 -202 15 -30 37 -53 63 -67 38 -22 51 -23 265 -23 214
0 227 1 265 23 26 14 48 37 63 67 20 40 22 58 22 202 l0 158 -129 0 c-145 0
-138 -3 -190 79 -18 28 -35 51 -37 51 -2 0 -21 -26 -41 -57z"/>
</g>
</svg>
