<?xml version="1.0" standalone="no"?>
<!DOCTYPE svg PUBLIC "-//W3C//DTD SVG 20010904//EN"
 "http://www.w3.org/TR/2001/REC-SVG-20010904/DTD/svg10.dtd">
<svg version="1.0" xmlns="http://www.w3.org/2000/svg"
 width="192.000000pt" height="192.000000pt" viewBox="0 0 192.000000 192.000000"
 preserveAspectRatio="xMidYMid meet">
<metadata>
Created by potrace 1.16, written by Peter Selinger 2001-2019
</metadata>
<g transform="translate(0.000000,192.000000) scale(0.100000,-0.100000)"
fill="#000000" stroke="none">
811 c445 -92 729 -532 635 -987 -62 -301 -295 -546 -601 -630 -91 -26 -329
-26 -420 0 -291 80 -516 305 -596 596 -26 91 -26 329 0 420 120 433 542 692
982 601z"/>
<path d="M1136 1382 c-3 -6 -14 -82 -22 -169 -9 -87 -20 -161 -23 -165 -4 -4
-19 53 -35 127 -16 74 -34 140 -42 146 -9 8 -29 7 -71 -1 -111 -22 -133 -30
-133 -48 0 -9 14 -80 30 -156 17 -76 29 -141 26 -143 -3 -3 -47 -14 -98 -24
-51 -11 -116 -24 -145 -30 -28 -5 -54 -16 -56 -23 -9 -22 40 -229 56 -241 8
-5 130 -34 272 -63 224 -47 259 -52 272 -39 8 8 39 68 70 133 l55 119 29 260
c34 309 33 292 12 304 -28 14 -189 25 -197 13z m-138 -484 c17 -17 15 -53 -3
-68 -20 -17 -62 -5 -70 20 -14 44 41 80 73 48z m143 -18 c21 -12 25 -50 7 -68
-39 -39 -100 17 -63 58 21 23 29 24 56 10z"/>
</g>
</svg>
