<?xml version="1.0" standalone="no"?>
<!DOCTYPE svg PUBLIC "-//W3C//DTD SVG 20010904//EN"
 "http://www.w3.org/TR/2001/REC-SVG-20010904/DTD/svg10.dtd">
<svg version="1.0" xmlns="http://www.w3.org/2000/svg"
 width="192.000000pt" height="192.000000pt" viewBox="0 0 192.000000 192.000000"
 preserveAspectRatio="xMidYMid meet">
<metadata>
Created by potrace 1.16, written by Peter Selinger 2001-2019
</metadata>
<g transform="translate(0.000000,192.000000) scale(0.100000,-0.100000)"
fill="#000000" stroke="none">
811 c445 -92 729 -532 635 -987 -62 -301 -295 -546 -601 -630 -91 -26 -329
-26 -420 0 -291 80 -516 305 -596 596 -26 91 -26 329 0 420 120 433 542 692
982 601z"/>
<path d="M1173 1355 c-38 -27 -39 -73 -3 -154 44 -101 33 -128 -41 -97 -91 38
-195 28 -289 -26 -36 -21 -66 -31 -86 -29 -103 8 -176 -58 -160 -144 8 -39 28
-49 73 -36 28 8 33 7 38 -10 4 -10 15 -19 26 -19 15 0 19 -5 15 -17 -3 -10
-10 -48 -17 -86 -8 -48 -17 -70 -30 -78 -10 -5 -19 -14 -19 -20 0 -6 -7 -17
-15 -26 -22 -21 -15 -47 13 -51 32 -5 111 44 116 71 20 97 30 134 40 146 17
22 87 51 123 51 32 0 32 0 35 -57 l3 -57 83 -51 c45 -28 90 -61 98 -74 14 -19
23 -22 77 -19 53 3 62 6 62 22 0 13 -12 23 -38 32 -20 7 -58 31 -85 53 -26 22
-60 50 -76 64 -23 19 -28 29 -23 49 5 20 15 27 48 32 59 9 99 52 99 106 0 29
8 51 27 76 42 55 43 116 3 193 -18 34 -29 65 -26 69 4 3 21 11 39 17 42 13 47
42 10 55 -15 5 -36 15 -45 20 -25 14 -50 12 -75 -5z"/>
</g>
</svg>
