<?xml version="1.0" standalone="no"?>
<!DOCTYPE svg PUBLIC "-//W3C//DTD SVG 20010904//EN"
 "http://www.w3.org/TR/2001/REC-SVG-20010904/DTD/svg10.dtd">
<svg version="1.0" xmlns="http://www.w3.org/2000/svg"
 width="192.000000pt" height="192.000000pt" viewBox="0 0 192.000000 192.000000"
 preserveAspectRatio="xMidYMid meet">
<metadata>
Created by potrace 1.16, written by Peter Selinger 2001-2019
</metadata>
<g transform="translate(0.000000,192.000000) scale(0.100000,-0.100000)"
fill="#000000" stroke="none">
811 c445 -92 729 -532 635 -987 -62 -301 -295 -546 -601 -630 -91 -26 -329
-26 -420 0 -291 80 -516 305 -596 596 -26 91 -26 329 0 420 120 433 542 692
982 601z"/>
<path d="M904 1346 c-58 -50 -24 -140 52 -140 63 0 107 78 71 125 -33 43 -84
49 -123 15z"/>
<path d="M739 1181 c-38 -39 -38 -74 1 -113 26 -25 36 -29 63 -24 73 15 97 96
43 142 -37 32 -71 30 -107 -5z"/>
<path d="M1100 1203 c-61 -22 -79 -95 -35 -138 30 -30 73 -32 107 -5 50 39 37
118 -22 139 -18 6 -33 11 -34 10 -1 0 -8 -3 -16 -6z"/>
<path d="M594 1036 c-76 -34 -48 -156 36 -156 67 0 107 93 60 140 -11 11 -24
20 -29 20 -5 0 -15 2 -23 5 -7 2 -27 -2 -44 -9z"/>
<path d="M1254 1040 c-52 -21 -70 -89 -34 -128 43 -46 111 -36 138 20 18 37 5
76 -32 99 -34 21 -41 22 -72 9z"/>
<path d="M900 1020 c-31 -31 -27 -93 6 -119 56 -44 134 -8 134 62 0 67 -92
105 -140 57z"/>
<path d="M752 873 c-22 -9 -44 -63 -37 -94 20 -89 165 -71 165 21 0 58 -68 97
-128 73z"/>
<path d="M1062 857 c-32 -34 -30 -89 4 -116 56 -44 134 -8 134 62 0 69 -90
105 -138 54z"/>
<path d="M902 700 c-30 -28 -36 -62 -18 -98 26 -50 90 -59 131 -17 73 72 -38
185 -113 115z"/>
</g>
</svg>
