<?xml version="1.0" standalone="no"?>
<!DOCTYPE svg PUBLIC "-//W3C//DTD SVG 20010904//EN"
 "http://www.w3.org/TR/2001/REC-SVG-20010904/DTD/svg10.dtd">
<svg version="1.0" xmlns="http://www.w3.org/2000/svg"
 width="192.000000pt" height="192.000000pt" viewBox="0 0 192.000000 192.000000"
 preserveAspectRatio="xMidYMid meet">
<metadata>
Created by potrace 1.16, written by Peter Selinger 2001-2019
</metadata>
<g transform="translate(0.000000,192.000000) scale(0.100000,-0.100000)"
fill="#000000" stroke="none">
811 c445 -92 729 -532 635 -987 -62 -301 -295 -546 -601 -630 -91 -26 -329
-26 -420 0 -291 80 -516 305 -596 596 -26 91 -26 329 0 420 120 433 542 692
982 601z"/>
<path d="M870 1341 c-19 -11 -42 -27 -52 -37 -9 -11 -76 -122 -149 -249 -114
-197 -133 -237 -137 -282 -6 -69 25 -134 81 -171 l40 -27 289 -3 c267 -3 291
-2 331 16 52 23 91 70 106 129 19 70 14 81 -152 368 -118 204 -144 240 -194
261 -45 19 -121 17 -163 -5z"/>
</g>
</svg>
