<?xml version="1.0" standalone="no"?>
<!DOCTYPE svg PUBLIC "-//W3C//DTD SVG 20010904//EN"
 "http://www.w3.org/TR/2001/REC-SVG-20010904/DTD/svg10.dtd">
<svg version="1.0" xmlns="http://www.w3.org/2000/svg"
 width="192.000000pt" height="192.000000pt" viewBox="0 0 192.000000 192.000000"
 preserveAspectRatio="xMidYMid meet">
<metadata>
Created by potrace 1.16, written by Peter Selinger 2001-2019
</metadata>
<g transform="translate(0.000000,192.000000) scale(0.100000,-0.100000)"
fill="#000000" stroke="none">
811 c445 -92 729 -532 635 -987 -62 -301 -295 -546 -601 -630 -91 -26 -329
-26 -420 0 -291 80 -516 305 -596 596 -26 91 -26 329 0 420 120 433 542 692
982 601z"/>
<path d="M827 1348 c-8 -18 -40 -91 -71 -162 -50 -115 -57 -136 -54 -185 l3
-56 37 3 c20 2 50 -3 66 -12 l29 -15 18 39 c10 22 18 54 19 72 2 73 -16 338
-25 343 -4 3 -15 -9 -22 -27z"/>
<path d="M1181 1126 l-34 -35 31 -30 c17 -17 33 -31 35 -31 3 0 20 14 37 32
l32 31 -34 34 -34 33 -33 -34z"/>
<path d="M1040 1131 c0 -5 -20 -29 -45 -53 -24 -24 -45 -46 -45 -51 0 -4 25
-32 55 -63 l54 -56 56 57 c30 31 55 59 55 61 0 2 -24 29 -54 59 -51 52 -76 67
-76 46z"/>
<path d="M1105 916 c-15 -20 -35 -36 -44 -36 -10 0 -25 -20 -38 -50 -39 -90
-137 -120 -193 -60 -35 38 -42 29 -45 -57 -2 -56 1 -68 22 -94 36 -42 80 -62
138 -62 75 0 120 19 163 69 36 40 72 129 72 177 0 32 -21 115 -34 132 -12 16
-15 15 -41 -19z"/>
<path d="M724 896 c-3 -7 -4 -33 -2 -57 2 -36 7 -45 24 -47 17 -2 25 7 41 46
15 37 18 53 10 61 -16 16 -67 14 -73 -3z"/>
<path d="M698 749 c-10 -5 -18 -17 -18 -25 0 -8 -11 -26 -24 -39 -28 -28 -21
-37 29 -38 59 -2 103 57 69 94 -19 21 -31 23 -56 8z"/>
</g>
</svg>
