<?xml version="1.0" standalone="no"?>
<!DOCTYPE svg PUBLIC "-//W3C//DTD SVG 20010904//EN"
 "http://www.w3.org/TR/2001/REC-SVG-20010904/DTD/svg10.dtd">
<svg version="1.0" xmlns="http://www.w3.org/2000/svg"
 width="192.000000pt" height="192.000000pt" viewBox="0 0 192.000000 192.000000"
 preserveAspectRatio="xMidYMid meet">
<metadata>
Created by potrace 1.16, written by Peter Selinger 2001-2019
</metadata>
<g transform="translate(0.000000,192.000000) scale(0.100000,-0.100000)"
fill="#000000" stroke="none">
811 c445 -92 729 -532 635 -987 -62 -301 -295 -546 -601 -630 -91 -26 -329
-26 -420 0 -291 80 -516 305 -596 596 -26 91 -26 329 0 420 120 433 542 692
982 601z"/>
<path d="M1146 1338 c-79 -76 -337 -372 -342 -394 -9 -34 3 -72 31 -100 18
-18 35 -24 70 -24 51 0 30 -16 278 209 165 149 182 169 173 206 -8 32 -70 101
-107 121 -42 21 -66 17 -103 -18z"/>
<path d="M648 843 c-32 -20 -60 -68 -83 -144 -15 -49 -16 -59 -4 -85 8 -16 27
-35 43 -43 26 -12 37 -11 100 9 50 16 82 34 109 60 33 34 37 43 37 90 0 47 -4
56 -39 91 -34 35 -44 39 -87 39 -28 0 -61 -8 -76 -17z m106 -79 c20 -19 20
-29 0 -48 -12 -12 -20 -13 -35 -6 -21 12 -25 40 -7 58 16 16 23 15 42 -4z"/>
</g>
</svg>
