<?xml version="1.0" standalone="no"?>
<!DOCTYPE svg PUBLIC "-//W3C//DTD SVG 20010904//EN"
 "http://www.w3.org/TR/2001/REC-SVG-20010904/DTD/svg10.dtd">
<svg version="1.0" xmlns="http://www.w3.org/2000/svg"
 width="192.000000pt" height="192.000000pt" viewBox="0 0 192.000000 192.000000"
 preserveAspectRatio="xMidYMid meet">
<metadata>
Created by potrace 1.16, written by Peter Selinger 2001-2019
</metadata>
<g transform="translate(0.000000,192.000000) scale(0.100000,-0.100000)"
fill="#000000" stroke="none">
811 c445 -92 729 -532 635 -987 -62 -301 -295 -546 -601 -630 -91 -26 -329
-26 -420 0 -291 80 -516 305 -596 596 -26 91 -26 329 0 420 120 433 542 692
982 601z"/>
<path d="M680 1208 c-44 -16 -61 -50 -58 -113 l3 -50 47 -3 47 -3 3 38 c2 31
7 39 26 41 20 3 22 -1 22 -45 l0 -48 -72 -40 -73 -40 0 -105 0 -105 123 -3
122 -3 0 66 0 65 -45 0 c-31 0 -47 -5 -51 -15 -4 -8 -17 -15 -31 -15 -21 0
-24 4 -21 27 2 22 16 34 76 66 l72 39 0 102 c0 95 -2 104 -24 125 -29 27 -115
37 -166 19z"/>
<path d="M1100 1208 c-44 -16 -61 -50 -58 -113 l3 -50 47 -3 47 -3 3 38 c2 31
7 39 26 41 20 3 22 -1 22 -45 l0 -48 -72 -40 -73 -40 0 -105 0 -105 123 -3
122 -3 0 66 0 65 -45 0 c-31 0 -47 -5 -51 -15 -4 -8 -17 -15 -31 -15 -21 0
-24 4 -21 27 2 22 16 34 76 66 l72 39 0 102 c0 95 -2 104 -24 125 -29 27 -115
37 -166 19z"/>
<path d="M460 1201 c-22 -6 -25 -12 -25 -51 0 -39 3 -45 22 -48 22 -3 23 -6
25 -185 l3 -182 45 0 45 0 3 238 2 237 -47 -1 c-27 -1 -59 -4 -73 -8z"/>
<path d="M1360 1201 c-22 -6 -25 -13 -25 -51 0 -39 3 -45 23 -48 22 -3 22 -4
22 -188 l0 -185 48 3 47 3 0 235 0 235 -45 2 c-25 1 -56 -2 -70 -6z"/>
<path d="M912 973 c3 -47 4 -48 39 -51 44 -4 62 15 57 60 -3 32 -5 33 -51 36
l-48 3 3 -48z"/>
<path d="M914 816 c-3 -8 -4 -29 -2 -48 3 -31 5 -33 45 -36 38 -3 43 -1 49 22
3 14 3 37 0 51 -5 21 -12 25 -47 25 -25 0 -42 -5 -45 -14z"/>
</g>
</svg>
