<?xml version="1.0" standalone="no"?>
<!DOCTYPE svg PUBLIC "-//W3C//DTD SVG 20010904//EN"
 "http://www.w3.org/TR/2001/REC-SVG-20010904/DTD/svg10.dtd">
<svg version="1.0" xmlns="http://www.w3.org/2000/svg"
 width="192.000000pt" height="192.000000pt" viewBox="0 0 192.000000 192.000000"
 preserveAspectRatio="xMidYMid meet">
<metadata>
Created by potrace 1.16, written by Peter Selinger 2001-2019
</metadata>
<g transform="translate(0.000000,192.000000) scale(0.100000,-0.100000)"
fill="#000000" stroke="none">
811 c445 -92 729 -532 635 -987 -62 -301 -295 -546 -601 -630 -91 -26 -329
-26 -420 0 -291 80 -516 305 -596 596 -26 91 -26 329 0 420 120 433 542 692
982 601z"/>
<path d="M703 1330 c-13 -5 -23 -12 -23 -15 0 -13 90 -275 109 -318 l22 -47
29 15 c58 30 97 18 172 -53 l38 -36 45 96 c25 53 63 152 86 220 37 114 38 124
22 135 -20 15 -464 17 -500 3z"/>
<path d="M617 1263 c-29 -33 -37 -74 -37 -202 l0 -128 45 -42 c53 -48 74 -51
116 -13 l31 28 -32 73 c-17 41 -49 125 -69 187 -35 107 -39 113 -54 97z"/>
<path d="M1236 1188 c-15 -51 -50 -142 -78 -203 -27 -60 -52 -116 -55 -124
-10 -23 48 13 87 54 42 44 79 65 116 65 l26 0 -3 113 c-3 90 -8 119 -24 146
-11 19 -25 36 -31 38 -6 2 -23 -38 -38 -89z"/>
<path d="M860 912 l-22 -18 41 -42 c43 -44 69 -51 109 -29 23 13 23 13 -27 60
-55 52 -68 56 -101 29z"/>
<path d="M1275 918 c-11 -6 -46 -35 -78 -65 -51 -47 -63 -53 -100 -53 -24 0
-53 -7 -65 -16 -65 -45 -130 -35 -190 30 l-41 45 -37 -30 c-48 -38 -95 -39
-148 -3 l-38 26 4 -69 c4 -80 27 -123 86 -164 35 -24 38 -24 288 -24 l252 0
39 31 c66 53 78 85 78 199 0 106 -6 118 -50 93z"/>
</g>
</svg>
