<?xml version="1.0" standalone="no"?>
<!DOCTYPE svg PUBLIC "-//W3C//DTD SVG 20010904//EN"
 "http://www.w3.org/TR/2001/REC-SVG-20010904/DTD/svg10.dtd">
<svg version="1.0" xmlns="http://www.w3.org/2000/svg"
 width="192.000000pt" height="192.000000pt" viewBox="0 0 192.000000 192.000000"
 preserveAspectRatio="xMidYMid meet">
<metadata>
Created by potrace 1.16, written by Peter Selinger 2001-2019
</metadata>
<g transform="translate(0.000000,192.000000) scale(0.100000,-0.100000)"
fill="#000000" stroke="none">
811 c445 -92 729 -532 635 -987 -62 -301 -295 -546 -601 -630 -91 -26 -329
-26 -420 0 -291 80 -516 305 -596 596 -26 91 -26 329 0 420 120 433 542 692
982 601z"/>
<path d="M829 1356 c-115 -43 -195 -115 -242 -215 -34 -73 -46 -151 -35 -235
35 -264 328 -422 571 -308 252 118 316 437 129 645 -58 64 -62 57 -62 -118 0
-182 -11 -241 -53 -297 -42 -54 -97 -81 -172 -86 -51 -3 -68 1 -115 25 -159
84 -160 322 -1 402 50 26 102 33 150 22 l42 -9 -3 91 -3 92 -85 2 c-51 1 -99
-3 -121 -11z"/>
<path d="M912 1103 c-13 -3 -38 -19 -56 -38 -61 -60 -56 -146 10 -205 60 -53
162 -37 204 33 30 49 27 117 -7 158 -41 48 -87 64 -151 52z"/>
</g>
</svg>
