<?xml version="1.0" standalone="no"?>
<!DOCTYPE svg PUBLIC "-//W3C//DTD SVG 20010904//EN"
 "http://www.w3.org/TR/2001/REC-SVG-20010904/DTD/svg10.dtd">
<svg version="1.0" xmlns="http://www.w3.org/2000/svg"
 width="192.000000pt" height="192.000000pt" viewBox="0 0 192.000000 192.000000"
 preserveAspectRatio="xMidYMid meet">
<metadata>
Created by potrace 1.16, written by Peter Selinger 2001-2019
</metadata>
<g transform="translate(0.000000,192.000000) scale(0.100000,-0.100000)"
fill="#000000" stroke="none">
811 c445 -92 729 -532 635 -987 -62 -301 -295 -546 -601 -630 -91 -26 -329
-26 -420 0 -291 80 -516 305 -596 596 -26 91 -26 329 0 420 120 433 542 692
982 601z"/>
<path d="M979 1369 c-73 -43 -92 -127 -40 -180 24 -24 38 -29 76 -29 42 0 52
5 86 39 31 30 39 46 39 74 0 51 -18 84 -55 102 -43 20 -63 19 -106 -6z"/>
<path d="M966 1114 c-46 -17 -93 -45 -163 -97 -42 -32 -53 -45 -53 -68 0 -38
39 -50 82 -24 16 9 31 15 33 13 1 -1 -10 -68 -25 -146 -30 -153 -30 -200 2
-229 43 -39 154 -4 258 82 59 48 72 71 59 96 -14 28 -39 30 -76 8 -19 -12 -36
-19 -38 -17 -3 2 9 65 25 139 34 152 37 205 14 237 -18 26 -58 28 -118 6z"/>
</g>
</svg>
