<?xml version="1.0" standalone="no"?>
<!DOCTYPE svg PUBLIC "-//W3C//DTD SVG 20010904//EN"
 "http://www.w3.org/TR/2001/REC-SVG-20010904/DTD/svg10.dtd">
<svg version="1.0" xmlns="http://www.w3.org/2000/svg"
 width="192.000000pt" height="192.000000pt" viewBox="0 0 192.000000 192.000000"
 preserveAspectRatio="xMidYMid meet">
<metadata>
Created by potrace 1.16, written by Peter Selinger 2001-2019
</metadata>
<g transform="translate(0.000000,192.000000) scale(0.100000,-0.100000)"
fill="#000000" stroke="none">
811 c445 -92 729 -532 635 -987 -62 -301 -295 -546 -601 -630 -91 -26 -329
-26 -420 0 -291 80 -516 305 -596 596 -26 91 -26 329 0 420 120 433 542 692
982 601z"/>
<path d="M1047 1369 c-9 -6 -33 -41 -52 -80 l-35 -69 -118 0 c-78 0 -122 -4
-130 -12 -16 -16 -16 -190 0 -206 7 -7 36 -12 65 -12 29 0 53 -2 53 -5 0 -2
-29 -60 -65 -128 -60 -115 -65 -128 -65 -188 0 -95 13 -109 100 -109 l69 0 42
75 41 75 110 0 c60 0 118 5 129 10 17 9 19 22 19 103 0 59 -4 97 -12 105 -7 7
-36 12 -65 12 -29 0 -53 4 -53 10 0 5 29 63 65 129 62 114 65 122 65 189 0 64
-2 72 -26 91 -29 23 -105 28 -137 10z"/>
</g>
</svg>
