<?xml version="1.0" standalone="no"?>
<!DOCTYPE svg PUBLIC "-//W3C//DTD SVG 20010904//EN"
 "http://www.w3.org/TR/2001/REC-SVG-20010904/DTD/svg10.dtd">
<svg version="1.0" xmlns="http://www.w3.org/2000/svg"
 width="192.000000pt" height="192.000000pt" viewBox="0 0 192.000000 192.000000"
 preserveAspectRatio="xMidYMid meet">
<metadata>
Created by potrace 1.16, written by Peter Selinger 2001-2019
</metadata>
<g transform="translate(0.000000,192.000000) scale(0.100000,-0.100000)"
fill="#000000" stroke="none">
811 c445 -92 729 -532 635 -987 -62 -301 -295 -546 -601 -630 -91 -26 -329
-26 -420 0 -291 80 -516 305 -596 596 -26 91 -26 329 0 420 120 433 542 692
982 601z"/>
<path d="M705 1286 c-48 -18 -93 -68 -101 -113 -11 -61 4 -105 55 -154 45 -43
46 -46 34 -75 -39 -93 16 -197 120 -225 53 -14 153 -7 195 15 l32 17 0 -54 c0
-31 6 -61 16 -75 18 -25 60 -29 90 -8 18 14 19 31 22 290 l3 276 42 0 c50 0
67 13 67 51 0 53 -17 59 -176 59 -131 0 -146 -2 -164 -20 -43 -43 -12 -90 59
-90 l42 0 -3 -147 -3 -147 -42 -32 c-84 -64 -184 -52 -191 23 -3 34 21 57 91
86 33 14 37 20 37 52 0 50 -31 63 -95 41 -50 -16 -56 -15 -92 17 -46 41 -21
147 33 147 33 0 41 -26 19 -66 -32 -59 0 -82 61 -45 62 38 68 122 12 164 -34
26 -111 32 -163 13z"/>
</g>
</svg>
