<?xml version="1.0" standalone="no"?>
<!DOCTYPE svg PUBLIC "-//W3C//DTD SVG 20010904//EN"
 "http://www.w3.org/TR/2001/REC-SVG-20010904/DTD/svg10.dtd">
<svg version="1.0" xmlns="http://www.w3.org/2000/svg"
 width="192.000000pt" height="192.000000pt" viewBox="0 0 192.000000 192.000000"
 preserveAspectRatio="xMidYMid meet">
<metadata>
Created by potrace 1.16, written by Peter Selinger 2001-2019
</metadata>
<g transform="translate(0.000000,192.000000) scale(0.100000,-0.100000)"
fill="#000000" stroke="none">
811 c445 -92 729 -532 635 -987 -62 -301 -295 -546 -601 -630 -91 -26 -329
-26 -420 0 -291 80 -516 305 -596 596 -26 91 -26 329 0 420 120 433 542 692
982 601z"/>
<path d="M880 1362 c-21 -17 -22 -22 -12 -53 11 -30 10 -32 -3 -15 -8 10 -16
23 -17 27 -4 13 -78 -12 -78 -26 0 -7 19 -37 43 -67 l42 -54 35 13 c47 16 84
16 126 -2 l34 -14 45 57 c25 31 45 61 45 65 0 4 -14 14 -32 21 -28 12 -34 12
-45 -3 -12 -14 -13 -12 -11 13 2 23 -3 33 -22 43 -38 19 -123 17 -150 -5z"/>
<path d="M883 1164 c-18 -9 -33 -23 -33 -30 0 -17 5 -17 56 0 39 14 58 13 132
-9 34 -11 27 12 -10 35 -40 24 -101 25 -145 4z"/>
<path d="M883 1110 c-59 -30 -141 -122 -188 -211 -35 -66 -40 -82 -40 -145 0
-62 3 -75 28 -107 32 -42 55 -59 112 -82 l40 -17 -43 37 c-23 20 -47 46 -54
58 -7 15 3 9 31 -16 113 -102 264 -101 375 1 25 23 27 24 18 6 -13 -26 -69
-74 -84 -74 -6 0 -9 -3 -6 -6 12 -11 109 40 138 72 36 41 53 103 45 158 -15
95 -114 247 -201 307 -61 41 -115 47 -171 19z"/>
</g>
</svg>
