<?xml version="1.0" standalone="no"?>
<!DOCTYPE svg PUBLIC "-//W3C//DTD SVG 20010904//EN"
 "http://www.w3.org/TR/2001/REC-SVG-20010904/DTD/svg10.dtd">
<svg version="1.0" xmlns="http://www.w3.org/2000/svg"
 width="192.000000pt" height="192.000000pt" viewBox="0 0 192.000000 192.000000"
 preserveAspectRatio="xMidYMid meet">
<metadata>
Created by potrace 1.16, written by Peter Selinger 2001-2019
</metadata>
<g transform="translate(0.000000,192.000000) scale(0.100000,-0.100000)"
fill="#000000" stroke="none">
811 c445 -92 729 -532 635 -987 -62 -301 -295 -546 -601 -630 -91 -26 -329
-26 -420 0 -291 80 -516 305 -596 596 -26 91 -26 329 0 420 120 433 542 692
982 601z"/>
<path d="M588 1359 c-16 -9 -18 -27 -18 -152 0 -98 4 -147 12 -155 17 -17 121
-15 163 2 18 8 42 27 52 42 l18 28 5 -33 c6 -41 32 -61 58 -45 12 8 18 27 20
68 l3 56 44 0 45 0 0 -44 c0 -28 7 -52 19 -67 16 -21 22 -22 45 -11 l26 12 0
139 c0 114 -3 143 -16 155 -35 36 -74 -1 -74 -71 l0 -43 -45 0 -45 0 0 55 c0
44 -4 56 -20 65 -33 18 -60 -4 -60 -48 l0 -37 -20 33 c-11 18 -36 40 -55 48
-39 16 -132 18 -157 3z m126 -75 c21 -21 30 -58 23 -101 -8 -46 -33 -73 -69
-73 l-28 0 0 95 0 95 29 0 c16 0 37 -7 45 -16z"/>
<path d="M712 1010 c-31 -19 -62 -71 -62 -103 0 -8 11 -31 25 -50 24 -36 24
-37 5 -47 -24 -13 -35 -52 -22 -77 8 -14 5 -24 -9 -42 -38 -46 -16 -111 47
-137 43 -18 135 -18 178 0 44 18 76 61 76 101 0 27 4 33 28 38 15 3 39 3 53 0
16 -3 32 1 41 11 14 14 18 14 28 1 16 -19 54 -19 70 0 11 13 15 13 33 0 32
-23 80 -19 105 8 38 40 22 78 -18 42 -18 -16 -56 -10 -64 11 -4 11 7 14 50 14
65 0 75 14 50 66 -22 47 -58 60 -105 37 -34 -17 -37 -17 -53 -1 -10 10 -18 29
-18 43 0 35 -26 32 -45 -5 -21 -40 -42 -50 -74 -34 -28 15 -67 9 -93 -14 -22
-19 -23 -48 -3 -60 14 -7 13 -11 -5 -27 -11 -10 -20 -24 -20 -32 0 -9 -5 -11
-12 -6 -7 4 -51 10 -98 13 -95 6 -110 21 -31 32 105 16 156 70 133 145 -13 44
-9 52 16 29 21 -18 47 -13 56 10 14 37 -28 63 -82 50 -32 -8 -33 -8 -97 -1
-40 5 -57 2 -83 -15z m108 -55 c6 -19 8 -50 5 -69 -19 -100 -102 -50 -87 52 5
35 35 64 58 55 7 -2 18 -20 24 -38z m185 -116 c0 -7 -8 -15 -17 -17 -18 -3
-25 18 -11 32 10 10 28 1 28 -15z m85 -45 c0 -24 -4 -44 -10 -44 -5 0 -10 23
-10 51 0 31 4 48 10 44 6 -3 10 -26 10 -51z m82 9 c-6 -71 -22 -78 -22 -10 0
39 4 57 13 57 8 0 11 -14 9 -47z m103 37 c4 -6 -7 -10 -25 -10 -18 0 -29 4
-25 10 3 6 15 10 25 10 10 0 22 -4 25 -10z m-265 -75 c0 -18 -5 -25 -20 -25
-25 0 -26 25 -2 39 23 14 22 14 22 -14z m-151 -94 c57 -57 -65 -119 -149 -76
-22 11 -30 23 -30 41 0 25 2 26 35 20 31 -6 35 -4 35 14 0 17 6 20 45 20 31 0
51 -6 64 -19z"/>
</g>
</svg>
