<?xml version="1.0" standalone="no"?>
<!DOCTYPE svg PUBLIC "-//W3C//DTD SVG 20010904//EN"
 "http://www.w3.org/TR/2001/REC-SVG-20010904/DTD/svg10.dtd">
<svg version="1.0" xmlns="http://www.w3.org/2000/svg"
 width="192.000000pt" height="192.000000pt" viewBox="0 0 192.000000 192.000000"
 preserveAspectRatio="xMidYMid meet">
<metadata>
Created by potrace 1.16, written by Peter Selinger 2001-2019
</metadata>
<g transform="translate(0.000000,192.000000) scale(0.100000,-0.100000)"
fill="#000000" stroke="none">
811 c445 -92 729 -532 635 -987 -62 -301 -295 -546 -601 -630 -91 -26 -329
-26 -420 0 -291 80 -516 305 -596 596 -26 91 -26 329 0 420 120 433 542 692
982 601z"/>
<path d="M627 1308 c-68 -93 -115 -170 -110 -183 4 -12 35 -15 173 -15 l168 0
32 50 c54 85 81 84 136 -5 l29 -45 168 0 c135 0 169 3 173 14 3 8 -25 60 -62
115 l-67 101 -308 0 -308 0 -24 -32z"/>
<path d="M904 1115 c-21 -31 -47 -58 -58 -60 -12 -3 -64 -6 -116 -8 l-95 -2 0
-176 c0 -175 0 -176 27 -211 48 -63 71 -68 299 -68 185 0 207 2 245 21 78 37
85 60 82 261 l-3 173 -118 5 c-91 4 -120 8 -127 20 -25 45 -72 100 -85 100 -8
0 -31 -25 -51 -55z m-26 -284 c3 -105 0 -111 -60 -111 l-38 0 0 106 0 105 48
-3 47 -3 3 -94z m72 54 c0 -33 4 -45 15 -45 11 0 15 12 15 45 0 39 3 45 20 45
20 0 21 -5 18 -102 -3 -89 -5 -103 -20 -106 -15 -3 -18 4 -18 42 0 33 -4 46
-14 46 -10 0 -16 -14 -18 -42 -2 -31 -8 -44 -20 -46 -16 -3 -18 7 -18 102 0
99 1 106 20 106 17 0 20 -7 20 -45z m130 -39 l0 -85 32 -3 c22 -2 34 -9 36
-20 3 -15 -5 -18 -52 -18 l-56 0 0 105 c0 98 1 105 20 105 18 0 20 -7 20 -84z"/>
<path d="M810 831 c0 -65 2 -71 20 -71 19 0 21 5 18 67 -2 55 -6 68 -20 71
-16 3 -18 -5 -18 -67z"/>
</g>
</svg>
