<?xml version="1.0" standalone="no"?>
<!DOCTYPE svg PUBLIC "-//W3C//DTD SVG 20010904//EN"
 "http://www.w3.org/TR/2001/REC-SVG-20010904/DTD/svg10.dtd">
<svg version="1.0" xmlns="http://www.w3.org/2000/svg"
 width="192.000000pt" height="192.000000pt" viewBox="0 0 192.000000 192.000000"
 preserveAspectRatio="xMidYMid meet">
<metadata>
Created by potrace 1.16, written by Peter Selinger 2001-2019
</metadata>
<g transform="translate(0.000000,192.000000) scale(0.100000,-0.100000)"
fill="#000000" stroke="none">
810 c245 -63 441 -223 549 -451 55 -116 75 -212 75 -354 0 -141 -20 -238 -75
-352 -86 -182 -215 -312 -396 -398 -116 -55 -212 -75 -354 -75 -142 0 -238 20
-354 75 -228 108 -388 304 -451 549 -28 110 -28 292 0 402 76 298 303 526 600
603 106 28 298 28 406 1z"/>
<path d="M668 1347 c-78 -64 -103 -119 -103 -232 0 -77 4 -98 27 -147 41 -88
105 -176 188 -258 194 -193 380 -220 528 -77 34 33 42 48 42 76 0 30 -9 44
-64 97 -97 95 -144 101 -233 28 -40 -33 -44 -34 -70 -20 -36 18 -135 122 -157
163 -24 48 -20 65 28 111 24 23 47 53 50 68 9 36 -9 88 -56 156 -63 94 -99
101 -180 35z"/>
</g>
</svg>
