<?xml version="1.0" standalone="no"?>
<!DOCTYPE svg PUBLIC "-//W3C//DTD SVG 20010904//EN"
 "http://www.w3.org/TR/2001/REC-SVG-20010904/DTD/svg10.dtd">
<svg version="1.0" xmlns="http://www.w3.org/2000/svg"
 width="192.000000pt" height="192.000000pt" viewBox="0 0 192.000000 192.000000"
 preserveAspectRatio="xMidYMid meet">
<metadata>
Created by potrace 1.16, written by Peter Selinger 2001-2019
</metadata>
<g transform="translate(0.000000,192.000000) scale(0.100000,-0.100000)"
fill="#000000" stroke="none">
810 c245 -63 441 -223 549 -451 55 -116 75 -212 75 -354 0 -141 -20 -238 -75
-352 -86 -182 -215 -312 -396 -398 -116 -55 -212 -75 -354 -75 -142 0 -238 20
-354 75 -228 108 -388 304 -451 549 -28 110 -28 292 0 402 76 298 303 526 600
603 106 28 298 28 406 1z"/>
<path d="M682 1360 c-49 -35 -96 -97 -113 -147 -7 -21 -10 -68 -7 -115 4 -68
11 -90 47 -161 75 -149 222 -300 346 -358 129 -61 243 -46 341 44 44 40 54 55
54 81 0 50 -58 117 -143 164 -53 29 -86 22 -150 -29 -46 -36 -51 -38 -75 -25
-35 18 -135 123 -156 163 -24 48 -20 69 23 104 73 58 77 109 15 210 -63 104
-109 122 -182 69z"/>
</g>
</svg>
