<?xml version="1.0" standalone="no"?>
<!DOCTYPE svg PUBLIC "-//W3C//DTD SVG 20010904//EN"
 "http://www.w3.org/TR/2001/REC-SVG-20010904/DTD/svg10.dtd">
<svg version="1.0" xmlns="http://www.w3.org/2000/svg"
 width="192.000000pt" height="192.000000pt" viewBox="0 0 192.000000 192.000000"
 preserveAspectRatio="xMidYMid meet">
<metadata>
Created by potrace 1.16, written by Peter Selinger 2001-2019
</metadata>
<g transform="translate(0.000000,192.000000) scale(0.100000,-0.100000)"
fill="#000000" stroke="none">
810 c245 -63 441 -223 549 -451 55 -116 75 -212 75 -354 0 -141 -20 -238 -75
-352 -86 -182 -215 -312 -396 -398 -116 -55 -212 -75 -354 -75 -142 0 -238 20
-354 75 -228 108 -388 304 -451 549 -28 110 -28 292 0 402 76 298 303 526 600
603 106 28 298 28 406 1z"/>
<path d="M671 1350 c-27 -22 -63 -61 -78 -87 -25 -44 -28 -57 -28 -144 0 -94
1 -99 43 -180 78 -153 222 -302 352 -363 55 -26 77 -30 140 -30 88 0 140 22
208 87 34 33 42 48 42 76 0 30 -9 44 -64 97 -98 96 -151 101 -239 25 -34 -30
-37 -31 -64 -18 -36 19 -135 123 -157 164 -24 48 -20 69 20 100 40 31 64 71
64 105 0 33 -48 122 -90 168 -49 53 -81 53 -149 0z"/>
</g>
</svg>
