<?xml version="1.0" standalone="no"?>
<!DOCTYPE svg PUBLIC "-//W3C//DTD SVG 20010904//EN"
 "http://www.w3.org/TR/2001/REC-SVG-20010904/DTD/svg10.dtd">
<svg version="1.0" xmlns="http://www.w3.org/2000/svg"
 width="192.000000pt" height="192.000000pt" viewBox="0 0 192.000000 192.000000"
 preserveAspectRatio="xMidYMid meet">
<metadata>
Created by potrace 1.16, written by Peter Selinger 2001-2019
</metadata>
<g transform="translate(0.000000,192.000000) scale(0.100000,-0.100000)"
fill="#000000" stroke="none">
810 c245 -63 441 -223 549 -451 55 -116 75 -212 75 -354 0 -141 -20 -238 -75
-352 -86 -182 -215 -312 -396 -398 -116 -55 -212 -75 -354 -75 -142 0 -238 20
-354 75 -228 108 -388 304 -451 549 -28 110 -28 292 0 402 76 298 303 526 600
603 106 28 298 28 406 1z"/>
<path d="M657 1340 c-76 -70 -100 -128 -95 -234 3 -66 9 -94 36 -150 71 -150
218 -308 346 -372 137 -67 249 -55 350 37 50 45 56 55 56 90 0 35 -7 46 -52
90 -66 62 -127 93 -167 84 -16 -3 -47 -22 -69 -41 -22 -18 -50 -34 -62 -34
-26 0 -119 86 -160 148 -40 60 -38 85 6 118 39 30 64 71 64 107 0 34 -48 124
-90 168 -54 57 -91 55 -163 -11z"/>
</g>
</svg>
