<?xml version="1.0" standalone="no"?>
<!DOCTYPE svg PUBLIC "-//W3C//DTD SVG 20010904//EN"
 "http://www.w3.org/TR/2001/REC-SVG-20010904/DTD/svg10.dtd">
<svg version="1.0" xmlns="http://www.w3.org/2000/svg"
 width="192.000000pt" height="192.000000pt" viewBox="0 0 192.000000 192.000000"
 preserveAspectRatio="xMidYMid meet">
<metadata>
Created by potrace 1.16, written by Peter Selinger 2001-2019
</metadata>
<g transform="translate(0.000000,192.000000) scale(0.100000,-0.100000)"
fill="#000000" stroke="none">
811 c445 -92 729 -532 635 -987 -62 -301 -295 -546 -601 -630 -91 -26 -329
-26 -420 0 -291 80 -516 305 -596 596 -26 91 -26 329 0 420 120 433 542 692
982 601z"/>
<path d="M668 1354 c-55 -29 -58 -47 -58 -354 0 -243 2 -287 17 -317 19 -41
66 -73 106 -73 24 0 27 -3 27 -35 0 -48 20 -53 73 -17 l44 31 44 -30 c59 -39
69 -37 69 11 l0 40 143 0 c98 0 147 4 155 12 17 17 17 719 0 736 -19 19 -584
16 -620 -4z m167 -139 c0 -26 -4 -30 -31 -33 -34 -3 -49 16 -38 50 4 15 13 18
37 16 28 -3 32 -7 32 -33z m3 -112 c3 -28 -1 -33 -23 -39 -29 -7 -55 10 -55
35 0 25 22 42 50 39 20 -2 26 -9 28 -35z m-3 -118 c0 -26 -4 -30 -31 -33 -34
-3 -49 16 -38 50 4 15 13 18 37 16 28 -3 32 -7 32 -33z m385 -240 l0 -55 -115
0 -115 0 0 35 0 36 -112 -3 -113 -3 -3 -32 c-3 -27 -7 -33 -27 -33 -42 0 -59
58 -28 92 15 16 37 18 265 18 l248 0 0 -55z"/>
</g>
</svg>
