<?xml version="1.0" standalone="no"?>
<!DOCTYPE svg PUBLIC "-//W3C//DTD SVG 20010904//EN"
 "http://www.w3.org/TR/2001/REC-SVG-20010904/DTD/svg10.dtd">
<svg version="1.0" xmlns="http://www.w3.org/2000/svg"
 width="192.000000pt" height="192.000000pt" viewBox="0 0 192.000000 192.000000"
 preserveAspectRatio="xMidYMid meet">
<metadata>
Created by potrace 1.16, written by Peter Selinger 2001-2019
</metadata>
<g transform="translate(0.000000,192.000000) scale(0.100000,-0.100000)"
fill="#000000" stroke="none">
811 c445 -92 729 -532 635 -987 -62 -301 -295 -546 -601 -630 -91 -26 -329
-26 -420 0 -291 80 -516 305 -596 596 -26 91 -26 329 0 420 120 433 542 692
982 601z"/>
<path d="M1205 1358 c-22 -12 -94 -45 -159 -75 -129 -57 -158 -78 -177 -126
-17 -42 -16 -42 -34 -23 -26 26 -50 19 -92 -26 -68 -75 -88 -128 -89 -243 -1
-88 -4 -105 -27 -145 -54 -94 -54 -174 1 -168 23 3 29 10 39 50 6 26 21 65 34
87 l22 40 81 -1 c169 -1 288 62 379 200 92 138 166 399 125 440 -18 18 -58 14
-103 -10z"/>
</g>
</svg>
