<?xml version="1.0" standalone="no"?>
<!DOCTYPE svg PUBLIC "-//W3C//DTD SVG 20010904//EN"
 "http://www.w3.org/TR/2001/REC-SVG-20010904/DTD/svg10.dtd">
<svg version="1.0" xmlns="http://www.w3.org/2000/svg"
 width="192.000000pt" height="192.000000pt" viewBox="0 0 192.000000 192.000000"
 preserveAspectRatio="xMidYMid meet">
<metadata>
Created by potrace 1.16, written by Peter Selinger 2001-2019
</metadata>
<g transform="translate(0.000000,192.000000) scale(0.100000,-0.100000)"
fill="#000000" stroke="none">
811 c445 -92 729 -532 635 -987 -62 -301 -295 -546 -601 -630 -91 -26 -329
-26 -420 0 -291 80 -516 305 -596 596 -26 91 -26 329 0 420 120 433 542 692
982 601z"/>
<path d="M735 1355 c-47 -17 -93 -66 -100 -110 -4 -16 -5 -154 -3 -305 3 -270
3 -276 26 -308 46 -63 62 -67 323 -70 210 -3 238 -1 253 13 13 13 14 20 5 31
-9 11 -51 14 -199 14 -154 0 -190 3 -200 15 -7 8 -10 21 -7 29 5 12 41 15 197
18 l192 3 29 33 29 32 0 275 0 275 -29 32 -29 33 -224 2 c-173 2 -232 -1 -263
-12z m252 -207 c10 -13 83 -248 83 -267 0 -6 -13 -11 -29 -11 -22 0 -30 6 -35
25 -6 22 -12 25 -51 25 -39 0 -45 -3 -51 -25 -5 -19 -13 -25 -33 -25 -15 0
-30 2 -33 5 -8 8 73 269 86 277 17 12 53 9 63 -4z"/>
<path d="M939 1027 l-16 -57 28 0 c33 0 35 10 15 75 l-11 39 -16 -57z"/>
</g>
</svg>
