<?xml version="1.0" standalone="no"?>
<!DOCTYPE svg PUBLIC "-//W3C//DTD SVG 20010904//EN"
 "http://www.w3.org/TR/2001/REC-SVG-20010904/DTD/svg10.dtd">
<svg version="1.0" xmlns="http://www.w3.org/2000/svg"
 width="192.000000pt" height="192.000000pt" viewBox="0 0 192.000000 192.000000"
 preserveAspectRatio="xMidYMid meet">
<metadata>
Created by potrace 1.16, written by Peter Selinger 2001-2019
</metadata>
<g transform="translate(0.000000,192.000000) scale(0.100000,-0.100000)"
fill="#000000" stroke="none">
811 c445 -92 729 -532 635 -987 -62 -301 -295 -546 -601 -630 -91 -26 -329
-26 -420 0 -291 80 -516 305 -596 596 -26 91 -26 329 0 420 120 433 542 692
982 601z"/>
<path d="M615 1301 c-11 -5 -29 -19 -40 -31 -17 -19 -20 -39 -23 -150 -4 -149
11 -227 59 -302 41 -63 111 -124 179 -157 48 -23 68 -26 160 -26 97 0 110 2
172 32 134 63 223 190 235 332 9 110 -20 156 -103 163 -39 3 -39 4 -44 51 -4
30 -14 55 -28 70 -22 22 -28 22 -285 24 -144 1 -271 -2 -282 -6z m555 -251 c0
-39 -6 -85 -13 -103 -59 -141 -242 -182 -350 -79 -50 47 -67 93 -67 177 l0 75
215 0 215 0 0 -70z"/>
</g>
</svg>
