<?xml version="1.0" standalone="no"?>
<!DOCTYPE svg PUBLIC "-//W3C//DTD SVG 20010904//EN"
 "http://www.w3.org/TR/2001/REC-SVG-20010904/DTD/svg10.dtd">
<svg version="1.0" xmlns="http://www.w3.org/2000/svg"
 width="192.000000pt" height="192.000000pt" viewBox="0 0 192.000000 192.000000"
 preserveAspectRatio="xMidYMid meet">
<metadata>
Created by potrace 1.16, written by Peter Selinger 2001-2019
</metadata>
<g transform="translate(0.000000,192.000000) scale(0.100000,-0.100000)"
fill="#000000" stroke="none">
811 c445 -92 729 -532 635 -987 -62 -301 -295 -546 -601 -630 -91 -26 -329
-26 -420 0 -291 80 -516 305 -596 596 -26 91 -26 329 0 420 120 433 542 692
982 601z"/>
<path d="M545 1117 c-3 -7 -4 -74 -3 -148 l3 -134 85 0 85 0 0 145 0 145 -83
3 c-62 2 -84 -1 -87 -11z m115 -137 l0 -90 -30 0 -30 0 0 90 0 90 30 0 30 0 0
-90z"/>
<path d="M767 1124 c-4 -4 -7 -67 -7 -139 0 -105 3 -135 15 -145 8 -7 22 -10
30 -6 13 5 15 27 13 148 -3 135 -4 143 -23 146 -12 2 -24 0 -28 -4z"/>
<path d="M867 1123 c-13 -12 -8 -268 5 -281 7 -7 41 -12 85 -12 85 0 93 8 93
90 0 70 -12 90 -56 90 -41 0 -54 -22 -30 -49 9 -10 16 -30 16 -45 0 -24 -3
-27 -27 -24 -28 3 -28 3 -31 91 l-3 87 29 0 c16 0 35 -7 42 -15 7 -8 18 -15
26 -15 19 0 37 38 30 66 -6 23 -10 24 -90 24 -45 0 -86 -3 -89 -7z"/>
<path d="M1086 1114 c-3 -9 -6 -71 -6 -139 0 -100 3 -125 16 -136 11 -9 20
-10 32 -2 14 8 18 31 20 129 3 145 0 164 -32 164 -13 0 -27 -7 -30 -16z"/>
<path d="M1186 1115 c-8 -21 -8 -248 0 -269 8 -22 156 -23 173 -2 8 9 11 57 9
147 l-3 134 -86 3 c-72 2 -88 0 -93 -13z m122 -132 c-3 -88 -3 -88 -30 -91
l-28 -3 0 90 0 91 30 0 31 0 -3 -87z"/>
</g>
</svg>
