<?xml version="1.0" standalone="no"?>
<!DOCTYPE svg PUBLIC "-//W3C//DTD SVG 20010904//EN"
 "http://www.w3.org/TR/2001/REC-SVG-20010904/DTD/svg10.dtd">
<svg version="1.0" xmlns="http://www.w3.org/2000/svg"
 width="192.000000pt" height="192.000000pt" viewBox="0 0 192.000000 192.000000"
 preserveAspectRatio="xMidYMid meet">
<metadata>
Created by potrace 1.16, written by Peter Selinger 2001-2019
</metadata>
<g transform="translate(0.000000,192.000000) scale(0.100000,-0.100000)"
fill="#000000" stroke="none">
811 c445 -92 729 -532 635 -987 -62 -301 -295 -546 -601 -630 -91 -26 -329
-26 -420 0 -291 80 -516 305 -596 596 -26 91 -26 329 0 420 120 433 542 692
982 601z"/>
<path d="M695 1324 c-43 -22 -74 -53 -96 -96 -17 -33 -19 -61 -19 -265 0 -217
1 -230 23 -267 12 -22 39 -53 60 -70 l39 -31 236 -3 c230 -3 238 -2 282 20 26
13 57 41 75 66 l30 44 0 243 0 243 -30 44 c-18 25 -49 52 -75 66 -42 21 -56
22 -270 22 -184 0 -230 -3 -255 -16z m116 -461 c22 -26 90 -53 134 -53 44 0
112 27 134 53 16 20 40 21 64 2 27 -20 18 -45 -31 -82 -98 -74 -249 -71 -345
8 -41 33 -46 55 -19 75 23 18 47 17 63 -3z"/>
</g>
</svg>
