<?xml version="1.0" standalone="no"?>
<!DOCTYPE svg PUBLIC "-//W3C//DTD SVG 20010904//EN"
 "http://www.w3.org/TR/2001/REC-SVG-20010904/DTD/svg10.dtd">
<svg version="1.0" xmlns="http://www.w3.org/2000/svg"
 width="192.000000pt" height="192.000000pt" viewBox="0 0 192.000000 192.000000"
 preserveAspectRatio="xMidYMid meet">
<metadata>
Created by potrace 1.16, written by Peter Selinger 2001-2019
</metadata>
<g transform="translate(0.000000,192.000000) scale(0.100000,-0.100000)"
fill="#000000" stroke="none">
811 c445 -92 729 -532 635 -987 -62 -301 -295 -546 -601 -630 -91 -26 -329
-26 -420 0 -291 80 -516 305 -596 596 -26 91 -26 329 0 420 120 433 542 692
982 601z"/>
<path d="M730 1363 c-35 -13 -72 -47 -90 -83 -19 -36 -20 -60 -20 -315 0 -255
1 -279 20 -315 11 -21 34 -49 52 -62 32 -22 38 -23 263 -23 225 0 231 1 263
23 66 47 72 75 72 318 l0 217 -122 124 -122 123 -150 -1 c-83 0 -158 -3 -166
-6z m490 -276 c0 -5 -41 -7 -91 -5 -121 4 -129 13 -129 141 l0 92 110 -110
c61 -60 110 -114 110 -118z m-249 -148 c15 -10 32 -32 39 -49 7 -18 20 -30 30
-30 10 0 32 -12 49 -26 26 -22 31 -33 31 -71 0 -36 -6 -50 -30 -75 l-30 -29
-146 3 c-146 3 -146 3 -170 31 -32 37 -32 95 -1 134 13 15 29 42 36 60 16 39
30 52 77 68 42 14 79 9 115 -16z"/>
<path d="M856 865 c-20 -20 -20 -35 -2 -61 8 -11 16 -36 18 -55 2 -26 8 -34
23 -34 16 0 21 8 23 35 2 19 11 43 20 53 12 13 13 24 6 45 -11 33 -62 43 -88
17z"/>
</g>
</svg>
