<?xml version="1.0" standalone="no"?>
<!DOCTYPE svg PUBLIC "-//W3C//DTD SVG 20010904//EN"
 "http://www.w3.org/TR/2001/REC-SVG-20010904/DTD/svg10.dtd">
<svg version="1.0" xmlns="http://www.w3.org/2000/svg"
 width="192.000000pt" height="192.000000pt" viewBox="0 0 192.000000 192.000000"
 preserveAspectRatio="xMidYMid meet">
<metadata>
Created by potrace 1.16, written by Peter Selinger 2001-2019
</metadata>
<g transform="translate(0.000000,192.000000) scale(0.100000,-0.100000)"
fill="#000000" stroke="none">
811 c445 -92 729 -532 635 -987 -62 -301 -295 -546 -601 -630 -91 -26 -329
-26 -420 0 -291 80 -516 305 -596 596 -26 91 -26 329 0 420 120 433 542 692
982 601z"/>
<path d="M694 1090 c-6 -28 -10 -30 -51 -30 -63 0 -103 -40 -103 -103 0 -75
62 -126 131 -106 15 4 32 3 39 -1 34 -21 40 -1 40 136 l0 134 -25 0 c-20 0
-27 -6 -31 -30z m-16 -102 c7 -7 12 -21 12 -33 0 -12 -5 -26 -12 -33 -28 -28
-78 -7 -78 33 0 40 50 61 78 33z"/>
<path d="M780 1085 c-18 -22 -1 -50 31 -50 20 0 24 5 24 30 0 23 -5 31 -21 33
-11 2 -27 -4 -34 -13z"/>
<path d="M1090 1085 c-18 -22 -1 -50 31 -50 20 0 24 5 24 30 0 23 -5 31 -21
33 -11 2 -27 -4 -34 -13z"/>
<path d="M892 1035 c-40 -33 -50 -81 -27 -128 20 -42 54 -62 106 -60 46 2 53
-17 15 -42 -30 -20 -62 -7 -76 31 -11 27 -32 31 -50 9 -29 -35 40 -115 98
-115 35 0 80 27 96 58 9 19 13 62 12 147 l-1 120 -71 3 c-65 3 -74 0 -102 -23z
m109 -56 c18 -34 -3 -69 -41 -69 -22 0 -33 6 -41 24 -16 35 3 66 41 66 20 0
33 -7 41 -21z"/>
<path d="M1214 1049 c-11 -6 -28 -23 -37 -39 -65 -110 77 -221 167 -131 26 26
31 39 31 77 0 39 -5 50 -33 75 -34 31 -86 38 -128 18z m97 -70 c8 -16 8 -28 0
-46 -9 -19 -17 -24 -43 -21 -40 4 -56 28 -40 62 15 34 66 37 83 5z"/>
<path d="M784 996 c-3 -7 -4 -42 -2 -77 3 -61 4 -64 28 -64 23 0 25 4 28 54 4
74 -4 101 -29 101 -11 0 -22 -6 -25 -14z"/>
<path d="M1097 1003 c-4 -3 -7 -39 -7 -79 0 -75 8 -90 43 -72 13 7 17 22 17
71 0 61 -11 87 -35 87 -7 0 -15 -3 -18 -7z"/>
</g>
</svg>
