<?xml version="1.0" standalone="no"?>
<!DOCTYPE svg PUBLIC "-//W3C//DTD SVG 20010904//EN"
 "http://www.w3.org/TR/2001/REC-SVG-20010904/DTD/svg10.dtd">
<svg version="1.0" xmlns="http://www.w3.org/2000/svg"
 width="192.000000pt" height="192.000000pt" viewBox="0 0 192.000000 192.000000"
 preserveAspectRatio="xMidYMid meet">
<metadata>
Created by potrace 1.16, written by Peter Selinger 2001-2019
</metadata>
<g transform="translate(0.000000,192.000000) scale(0.100000,-0.100000)"
fill="#000000" stroke="none">
810 c149 -35 263 -99 377 -209 169 -163 247 -351 247 -596 0 -245 -78 -433
-247 -596 -165 -159 -340 -229 -578 -229 -238 0 -413 70 -578 229 -169 163
-247 351 -247 596 0 238 70 413 229 578 111 115 239 190 390 227 107 26 298
26 407 0z"/>
<path d="M755 1345 c-5 -2 -22 -6 -37 -9 -39 -9 -98 -64 -119 -111 -16 -35
-19 -69 -19 -263 0 -179 3 -230 15 -260 20 -47 50 -79 98 -103 35 -19 56 -20
281 -17 l243 3 41 28 c23 15 52 46 64 70 21 39 23 57 26 247 5 253 -3 295 -62
355 -58 58 -96 65 -328 64 -106 0 -197 -2 -203 -4z m153 -252 l3 -123 -31 0
-30 0 0 100 c0 60 -4 100 -10 100 -5 0 -10 12 -10 26 0 23 3 25 38 22 l37 -3
3 -122z m202 102 c0 -23 -3 -25 -50 -25 -46 0 -50 -2 -50 -24 0 -23 5 -25 48
-28 l47 -3 0 -70 0 -70 -70 0 -70 0 -3 38 c-3 34 -1 37 22 37 16 0 26 -6 26
-15 0 -9 9 -15 25 -15 20 0 25 5 25 25 0 23 -3 25 -50 25 l-50 0 0 75 0 75 75
0 c73 0 75 -1 75 -25z m-330 -320 c29 -35 -18 -75 -72 -62 -31 8 -42 31 -28
58 13 23 81 27 100 4z m144 9 c26 -10 20 -53 -9 -66 -51 -23 -106 20 -75 57
13 15 56 20 84 9z m166 -9 c29 -35 -18 -75 -73 -61 -30 7 -44 40 -27 61 16 19
84 19 100 0z m144 9 c9 -3 16 -17 16 -30 0 -53 -101 -57 -108 -5 -2 13 2 28
10 32 15 10 60 12 82 3z m-447 -120 c10 -28 -11 -49 -54 -52 -45 -3 -68 15
-58 48 5 17 15 20 56 20 37 0 51 -4 56 -16z m152 -2 c15 -28 -5 -52 -44 -52
-48 0 -65 9 -65 34 0 31 7 36 56 36 31 0 46 -5 53 -18z m158 2 c10 -28 -11
-49 -54 -52 -45 -3 -68 15 -58 48 5 17 15 20 56 20 37 0 51 -4 56 -16z m151
-13 c4 -27 -12 -41 -50 -41 -41 0 -58 10 -58 34 0 32 9 37 60 34 39 -3 45 -6
48 -27z"/>
</g>
</svg>
