<?xml version="1.0" standalone="no"?>
<!DOCTYPE svg PUBLIC "-//W3C//DTD SVG 20010904//EN"
 "http://www.w3.org/TR/2001/REC-SVG-20010904/DTD/svg10.dtd">
<svg version="1.0" xmlns="http://www.w3.org/2000/svg"
 width="192.000000pt" height="192.000000pt" viewBox="0 0 192.000000 192.000000"
 preserveAspectRatio="xMidYMid meet">
<metadata>
Created by potrace 1.16, written by Peter Selinger 2001-2019
</metadata>
<g transform="translate(0.000000,192.000000) scale(0.100000,-0.100000)"
fill="#000000" stroke="none">
811 c445 -92 729 -532 635 -987 -62 -301 -295 -546 -601 -630 -91 -26 -329
-26 -420 0 -291 80 -516 305 -596 596 -26 91 -26 329 0 420 120 433 542 692
982 601z"/>
<path d="M540 1281 c-5 -11 -10 -47 -10 -81 0 -88 9 -100 76 -100 52 0 55 -1
52 -22 -4 -28 -39 -36 -58 -13 -27 32 -70 11 -70 -35 0 -42 17 -50 107 -50 97
0 96 -1 91 115 l-3 70 -57 3 c-54 3 -58 5 -58 27 0 30 33 34 61 9 27 -24 59
-3 59 39 0 49 -14 57 -102 57 -66 0 -79 -3 -88 -19z"/>
<path d="M761 1286 c-8 -9 -11 -60 -9 -157 l3 -144 30 0 c30 0 30 1 33 58 3
53 5 57 27 57 22 0 24 -5 27 -51 3 -55 21 -78 52 -66 14 6 16 27 16 156 0 126
-2 150 -16 155 -32 12 -151 6 -163 -8z m109 -92 c0 -21 -4 -25 -22 -22 -15 2
-24 11 -26 26 -3 18 1 22 22 22 21 0 26 -5 26 -26z"/>
<path d="M972 1288 c-17 -17 -17 -279 0 -296 34 -34 68 -1 68 67 0 40 1 41 34
41 39 0 60 20 51 50 -5 16 -15 20 -46 20 -35 0 -39 3 -39 25 0 23 4 25 41 25
49 0 79 15 79 38 0 33 -22 42 -100 42 -46 0 -81 -5 -88 -12z"/>
<path d="M1191 1286 c-8 -9 -11 -60 -9 -157 l3 -144 90 0 90 0 0 30 c0 30 -1
30 -57 33 -54 3 -58 5 -58 27 0 21 5 25 33 25 43 0 59 12 55 41 -2 20 -10 25
-43 29 -32 4 -41 9 -43 28 -3 20 1 22 38 22 53 0 80 15 80 44 0 30 -16 36
-100 36 -45 0 -71 -5 -79 -14z"/>
<path d="M1151 846 l-85 -85 -33 30 c-50 43 -88 38 -106 -14 -9 -24 106 -147
136 -147 25 0 235 205 244 238 7 28 -21 62 -51 62 -14 0 -53 -32 -105 -84z"/>
</g>
</svg>
