<?xml version="1.0" standalone="no"?>
<!DOCTYPE svg PUBLIC "-//W3C//DTD SVG 20010904//EN"
 "http://www.w3.org/TR/2001/REC-SVG-20010904/DTD/svg10.dtd">
<svg version="1.0" xmlns="http://www.w3.org/2000/svg"
 width="192.000000pt" height="192.000000pt" viewBox="0 0 192.000000 192.000000"
 preserveAspectRatio="xMidYMid meet">
<metadata>
Created by potrace 1.16, written by Peter Selinger 2001-2019
</metadata>
<g transform="translate(0.000000,192.000000) scale(0.100000,-0.100000)"
fill="#000000" stroke="none">
811 c445 -92 729 -532 635 -987 -62 -301 -295 -546 -601 -630 -91 -26 -329
-26 -420 0 -291 80 -516 305 -596 596 -26 91 -26 329 0 420 120 433 542 692
982 601z"/>
<path d="M857 1369 c-95 -22 -211 -108 -261 -193 -41 -70 -59 -150 -54 -237
20 -349 455 -511 704 -262 123 124 156 312 80 468 -85 173 -284 268 -469 224z
m240 -119 c64 -32 114 -82 148 -150 27 -51 32 -174 11 -238 -39 -117 -171
-212 -294 -212 -104 0 -121 22 -82 107 22 48 97 134 145 163 27 17 36 18 68 8
46 -14 84 1 93 37 22 88 -78 131 -125 54 -13 -21 -37 -39 -74 -54 -76 -30
-151 -88 -199 -151 -22 -30 -48 -54 -57 -54 -73 0 -44 158 48 261 l48 54 36
-13 c31 -11 41 -11 66 3 53 27 53 93 0 121 -25 12 -34 13 -57 2 -15 -7 -33
-26 -40 -41 -7 -15 -31 -36 -54 -48 -22 -11 -60 -38 -84 -61 -65 -60 -83 -35
-40 57 80 172 271 239 443 155z"/>
</g>
</svg>
