<?xml version="1.0" standalone="no"?>
<!DOCTYPE svg PUBLIC "-//W3C//DTD SVG 20010904//EN"
 "http://www.w3.org/TR/2001/REC-SVG-20010904/DTD/svg10.dtd">
<svg version="1.0" xmlns="http://www.w3.org/2000/svg"
 width="192.000000pt" height="192.000000pt" viewBox="0 0 192.000000 192.000000"
 preserveAspectRatio="xMidYMid meet">
<metadata>
Created by potrace 1.16, written by Peter Selinger 2001-2019
</metadata>
<g transform="translate(0.000000,192.000000) scale(0.100000,-0.100000)"
fill="#000000" stroke="none">
811 c445 -92 729 -532 635 -987 -62 -301 -295 -546 -601 -630 -91 -26 -329
-26 -420 0 -291 80 -516 305 -596 596 -26 91 -26 329 0 420 120 433 542 692
982 601z"/>
<path d="M580 1330 c-6 -12 -9 -78 -8 -170 l3 -150 170 170 170 170 -162 0
c-152 0 -163 -1 -173 -20z"/>
<path d="M896 1256 l-88 -96 54 0 53 0 84 84 c46 46 79 86 75 89 -5 2 -27 8
-50 11 l-40 7 -88 -95z"/>
<path d="M1063 1228 l-72 -73 38 -16 39 -17 68 69 c37 38 66 70 63 72 -15 12
-54 37 -59 37 -3 0 -38 -33 -77 -72z"/>
<path d="M1177 1152 l-68 -69 17 -36 c10 -21 21 -37 25 -37 4 0 37 32 72 72
67 74 68 77 35 121 -12 16 -19 12 -81 -51z"/>
<path d="M667 1022 l-97 -97 0 -53 c0 -28 4 -52 9 -52 5 0 50 44 100 97 l91
97 0 53 c0 29 -1 53 -3 53 -1 0 -46 -44 -100 -98z"/>
<path d="M1223 1008 c-44 -46 -84 -94 -88 -108 -12 -43 -56 -92 -99 -111 -23
-10 -82 -59 -136 -114 l-95 -95 112 0 c89 0 124 4 168 21 104 39 192 127 230
232 28 74 25 257 -3 257 -4 0 -44 -37 -89 -82z"/>
<path d="M662 826 l-92 -93 0 -59 0 -59 100 100 100 100 0 52 c0 29 -4 53 -8
53 -5 0 -50 -42 -100 -94z"/>
<path d="M707 675 l-89 -95 54 0 53 0 95 95 95 95 -60 0 -60 0 -88 -95z"/>
</g>
</svg>
