<?xml version="1.0" standalone="no"?>
<!DOCTYPE svg PUBLIC "-//W3C//DTD SVG 20010904//EN"
 "http://www.w3.org/TR/2001/REC-SVG-20010904/DTD/svg10.dtd">
<svg version="1.0" xmlns="http://www.w3.org/2000/svg"
 width="192.000000pt" height="192.000000pt" viewBox="0 0 192.000000 192.000000"
 preserveAspectRatio="xMidYMid meet">
<metadata>
Created by potrace 1.16, written by Peter Selinger 2001-2019
</metadata>
<g transform="translate(0.000000,192.000000) scale(0.100000,-0.100000)"
fill="#000000" stroke="none">
811 c445 -92 729 -532 635 -987 -62 -301 -295 -546 -601 -630 -91 -26 -329
-26 -420 0 -291 80 -516 305 -596 596 -26 91 -26 329 0 420 120 433 542 692
982 601z"/>
<path d="M844 1351 c-85 -38 -144 -144 -144 -256 0 -165 102 -276 255 -276
148 0 243 93 253 247 8 132 -46 241 -143 285 -54 25 -166 25 -221 0z m168
-130 c29 -25 32 -35 36 -94 8 -127 -22 -187 -93 -187 -71 0 -101 60 -93 187 4
59 7 69 36 94 18 16 43 29 57 29 14 0 39 -13 57 -29z"/>
<path d="M761 786 c-8 -9 -11 -50 -9 -117 3 -101 4 -104 26 -107 16 -2 49 13
95 44 40 26 76 47 82 47 6 0 42 -21 82 -47 46 -31 79 -46 95 -44 22 3 23 6 26
107 3 103 -4 131 -34 131 -7 0 -48 -20 -90 -45 -41 -25 -77 -45 -79 -45 -3 0
-38 20 -78 45 -80 48 -98 53 -116 31z"/>
</g>
</svg>
