<?xml version="1.0" standalone="no"?>
<!DOCTYPE svg PUBLIC "-//W3C//DTD SVG 20010904//EN"
 "http://www.w3.org/TR/2001/REC-SVG-20010904/DTD/svg10.dtd">
<svg version="1.0" xmlns="http://www.w3.org/2000/svg"
 width="192.000000pt" height="192.000000pt" viewBox="0 0 192.000000 192.000000"
 preserveAspectRatio="xMidYMid meet">
<metadata>
Created by potrace 1.16, written by Peter Selinger 2001-2019
</metadata>
<g transform="translate(0.000000,192.000000) scale(0.100000,-0.100000)"
fill="#000000" stroke="none">
811 c445 -92 729 -532 635 -987 -62 -301 -295 -546 -601 -630 -91 -26 -329
-26 -420 0 -291 80 -516 305 -596 596 -26 91 -26 329 0 420 120 433 542 692
982 601z"/>
<path d="M1084 1254 c-5 -17 -16 -19 -135 -19 -96 0 -129 3 -129 13 0 22 -55
13 -121 -20 -64 -33 -64 -33 -96 -114 -64 -160 -80 -305 -40 -364 25 -39 93
-77 153 -86 35 -5 45 -3 64 16 15 15 20 29 16 44 l-6 23 53 -14 c51 -14 184
-12 251 3 25 6 28 5 22 -14 -5 -14 0 -28 15 -43 17 -17 28 -20 63 -15 60 9
128 47 154 86 39 59 23 204 -41 364 l-32 81 -65 32 c-89 44 -120 51 -126 27z
m-218 -277 c64 -56 -2 -168 -72 -122 -51 33 -52 109 -1 133 33 16 43 14 73
-11z m259 -2 c49 -48 20 -128 -45 -128 -65 0 -94 80 -45 128 13 14 34 25 45
25 12 0 32 -11 45 -25z"/>
</g>
</svg>
