<?xml version="1.0" standalone="no"?>
<!DOCTYPE svg PUBLIC "-//W3C//DTD SVG 20010904//EN"
 "http://www.w3.org/TR/2001/REC-SVG-20010904/DTD/svg10.dtd">
<svg version="1.0" xmlns="http://www.w3.org/2000/svg"
 width="192.000000pt" height="192.000000pt" viewBox="0 0 192.000000 192.000000"
 preserveAspectRatio="xMidYMid meet">
<metadata>
Created by potrace 1.16, written by Peter Selinger 2001-2019
</metadata>
<g transform="translate(0.000000,192.000000) scale(0.100000,-0.100000)"
fill="#000000" stroke="none">
811 c445 -92 729 -532 635 -987 -62 -301 -295 -546 -601 -630 -91 -26 -329
-26 -420 0 -291 80 -516 305 -596 596 -26 91 -26 329 0 420 120 433 542 692
982 601z"/>
<path d="M622 1365 c-38 -17 -67 -74 -57 -113 3 -13 19 -37 35 -53 l28 -29
154 0 c128 0 160 -4 193 -19 136 -63 165 -226 60 -327 -55 -53 -102 -64 -279
-64 l-132 0 -29 -30 c-43 -45 -42 -101 4 -142 l33 -30 187 4 186 3 66 32 c162
79 259 262 229 431 -31 177 -160 309 -334 341 -87 16 -303 14 -344 -4z"/>
<path d="M1272 1368 c-7 -7 -12 -18 -12 -25 0 -7 -6 -13 -14 -13 -30 0 -27
-23 9 -58 36 -37 37 -37 53 -17 10 12 25 24 35 28 22 8 22 38 -1 44 -10 2 -22
14 -27 25 -12 27 -27 32 -43 16z"/>
<path d="M620 1090 c-126 -66 -80 -260 62 -262 153 -3 203 195 67 264 -43 23
-85 22 -129 -2z"/>
</g>
</svg>
