<?xml version="1.0" standalone="no"?>
<!DOCTYPE svg PUBLIC "-//W3C//DTD SVG 20010904//EN"
 "http://www.w3.org/TR/2001/REC-SVG-20010904/DTD/svg10.dtd">
<svg version="1.0" xmlns="http://www.w3.org/2000/svg"
 width="192.000000pt" height="192.000000pt" viewBox="0 0 192.000000 192.000000"
 preserveAspectRatio="xMidYMid meet">
<metadata>
Created by potrace 1.16, written by Peter Selinger 2001-2019
</metadata>
<g transform="translate(0.000000,192.000000) scale(0.100000,-0.100000)"
fill="#000000" stroke="none">
811 c445 -92 729 -532 635 -987 -62 -301 -295 -546 -601 -630 -91 -26 -329
-26 -420 0 -291 80 -516 305 -596 596 -26 91 -26 329 0 420 120 433 542 692
982 601z"/>
<path d="M797 1304 c-4 -4 -7 -48 -7 -99 l0 -91 48 -13 c64 -17 143 -97 161
-164 33 -115 -16 -226 -129 -297 l-35 -21 145 3 c135 4 149 6 202 32 69 35
128 94 165 166 24 48 27 67 28 145 0 79 -4 97 -28 147 -34 69 -94 131 -162
166 -47 25 -59 27 -215 30 -91 2 -168 0 -173 -4z"/>
<path d="M670 1069 c-49 -20 -93 -63 -116 -113 -41 -87 -28 -171 37 -241 82
-88 203 -98 294 -23 114 94 106 269 -16 353 -34 24 -54 30 -108 32 -36 2 -77
-2 -91 -8z"/>
</g>
</svg>
