<?xml version="1.0" standalone="no"?>
<!DOCTYPE svg PUBLIC "-//W3C//DTD SVG 20010904//EN"
 "http://www.w3.org/TR/2001/REC-SVG-20010904/DTD/svg10.dtd">
<svg version="1.0" xmlns="http://www.w3.org/2000/svg"
 width="192.000000pt" height="192.000000pt" viewBox="0 0 192.000000 192.000000"
 preserveAspectRatio="xMidYMid meet">
<metadata>
Created by potrace 1.16, written by Peter Selinger 2001-2019
</metadata>
<g transform="translate(0.000000,192.000000) scale(0.100000,-0.100000)"
fill="#000000" stroke="none">
811 c445 -92 729 -532 635 -987 -62 -301 -295 -546 -601 -630 -91 -26 -329
-26 -420 0 -291 80 -516 305 -596 596 -26 91 -26 329 0 420 120 433 542 692
982 601z"/>
<path d="M679 1317 c-67 -35 -98 -93 -106 -195 l-6 -82 382 0 381 0 0 75 c0
107 -33 167 -117 209 -27 13 -70 16 -261 16 -220 0 -231 -1 -273 -23z m31
-147 c0 -49 -1 -50 -30 -50 -29 0 -30 1 -30 50 0 49 1 50 30 50 29 0 30 -1 30
-50z m40 0 c0 -27 -4 -50 -10 -50 -5 0 -10 23 -10 50 0 28 5 50 10 50 6 0 10
-22 10 -50z m80 34 c0 -11 -6 -14 -20 -9 -11 4 -20 2 -20 -4 0 -6 9 -11 20
-11 16 0 20 -7 20 -30 0 -27 -3 -30 -30 -30 -21 0 -30 5 -30 16 0 11 6 14 20
9 11 -4 20 -2 20 4 0 6 -9 11 -20 11 -14 0 -20 7 -20 23 0 13 3 27 7 30 13 14
53 7 53 -9z m80 0 c0 -11 -6 -14 -20 -9 -17 5 -20 2 -20 -25 0 -27 3 -30 20
-25 14 5 20 2 20 -9 0 -11 -9 -16 -30 -16 -29 0 -30 1 -30 50 0 49 1 50 30 50
21 0 30 -5 30 -16z m88 0 c24 -17 29 -53 10 -72 -19 -19 -55 -14 -72 10 -20
29 -20 34 4 58 24 24 29 24 58 4z m57 -16 l8 -33 6 29 c3 16 12 31 19 34 15 5
15 7 -2 -47 -7 -25 -17 -46 -23 -48 -9 -3 -33 59 -33 86 0 24 18 9 25 -21z
m120 22 c3 -5 -3 -10 -14 -10 -12 0 -21 -4 -21 -10 0 -5 7 -10 15 -10 8 0 15
-4 15 -10 0 -5 -7 -10 -15 -10 -8 0 -15 -4 -15 -10 0 -5 9 -10 20 -10 11 0 20
-4 20 -10 0 -5 -13 -10 -30 -10 -29 0 -30 1 -30 50 0 46 2 50 24 50 14 0 28
-4 31 -10z m75 -40 c0 -50 -15 -69 -23 -27 -4 22 -4 22 -15 -3 -10 -22 -11
-20 -11 28 -1 49 0 52 24 52 23 0 25 -3 25 -50z"/>
<path d="M670 1170 c0 -16 5 -30 10 -30 6 0 10 14 10 30 0 17 -4 30 -10 30 -5
0 -10 -13 -10 -30z"/>
<path d="M1215 1190 c-3 -5 -1 -10 4 -10 6 0 11 5 11 10 0 6 -2 10 -4 10 -3 0
-8 -4 -11 -10z"/>
<path d="M573 984 c-3 -8 -3 -69 -1 -135 5 -109 7 -123 34 -166 19 -30 45 -55
73 -70 42 -22 53 -23 273 -23 244 0 260 3 316 54 51 46 62 85 62 226 l0 130
-375 0 c-332 0 -376 -2 -382 -16z"/>
</g>
</svg>
