<?xml version="1.0" standalone="no"?>
<!DOCTYPE svg PUBLIC "-//W3C//DTD SVG 20010904//EN"
 "http://www.w3.org/TR/2001/REC-SVG-20010904/DTD/svg10.dtd">
<svg version="1.0" xmlns="http://www.w3.org/2000/svg"
 width="192.000000pt" height="192.000000pt" viewBox="0 0 192.000000 192.000000"
 preserveAspectRatio="xMidYMid meet">
<metadata>
Created by potrace 1.16, written by Peter Selinger 2001-2019
</metadata>
<g transform="translate(0.000000,192.000000) scale(0.100000,-0.100000)"
fill="#000000" stroke="none">
811 c445 -92 729 -532 635 -987 -62 -301 -295 -546 -601 -630 -91 -26 -329
-26 -420 0 -291 80 -516 305 -596 596 -26 91 -26 329 0 420 120 433 542 692
982 601z"/>
<path d="M853 1361 c-58 -7 -68 -13 -60 -36 4 -9 19 -15 40 -15 93 0 259 -52
350 -110 52 -33 57 -35 57 -21 0 5 -11 12 -24 15 -43 11 -44 61 -1 72 22 5 41
49 26 58 -3 2 -40 11 -81 19 -92 19 -237 28 -307 18z"/>
<path d="M1257 1304 c-4 -4 -7 -16 -7 -26 0 -11 -7 -18 -19 -18 -28 0 -47 -26
-31 -45 7 -8 21 -15 31 -15 11 0 19 -9 21 -22 2 -15 10 -23 23 -23 13 0 21 8
23 23 2 13 10 22 21 22 28 0 46 26 31 45 -7 8 -21 15 -31 15 -11 0 -19 9 -21
22 -3 23 -27 35 -41 22z"/>
<path d="M643 1250 c-55 -11 -79 -25 -100 -57 -16 -24 -16 -26 2 -39 10 -8 26
-14 36 -14 21 0 43 26 34 40 -4 7 24 10 83 10 254 0 527 -152 572 -319 10 -38
9 -48 -12 -89 -17 -35 -34 -52 -69 -70 -52 -26 -131 -40 -201 -34 l-48 4 0 84
0 84 59 0 c33 0 72 -5 87 -10 25 -10 26 -11 9 -30 -22 -24 -12 -40 25 -40 33
0 70 40 70 75 0 49 -93 95 -195 95 l-52 0 -7 49 c-4 27 -15 60 -26 73 -19 22
-21 22 -34 5 -7 -9 -17 -44 -20 -77 -5 -43 -11 -60 -22 -60 -29 0 -128 -40
-151 -62 -40 -37 -31 -74 31 -134 30 -29 73 -62 95 -74 27 -13 41 -27 41 -40
0 -30 34 -60 60 -53 12 3 24 11 26 18 3 8 30 10 89 7 113 -6 202 21 270 80 26
23 54 57 61 75 21 50 18 136 -8 191 -28 61 -137 169 -211 210 -84 47 -220 90
-322 102 -101 11 -113 11 -172 0z m207 -469 l0 -70 -27 10 c-41 14 -123 77
-123 94 0 15 60 32 118 34 l32 1 0 -69z"/>
</g>
</svg>
