<?xml version="1.0" standalone="no"?>
<!DOCTYPE svg PUBLIC "-//W3C//DTD SVG 20010904//EN"
 "http://www.w3.org/TR/2001/REC-SVG-20010904/DTD/svg10.dtd">
<svg version="1.0" xmlns="http://www.w3.org/2000/svg"
 width="192.000000pt" height="192.000000pt" viewBox="0 0 192.000000 192.000000"
 preserveAspectRatio="xMidYMid meet">
<metadata>
Created by potrace 1.16, written by Peter Selinger 2001-2019
</metadata>
<g transform="translate(0.000000,192.000000) scale(0.100000,-0.100000)"
fill="#000000" stroke="none">
811 c445 -92 729 -532 635 -987 -62 -301 -295 -546 -601 -630 -91 -26 -329
-26 -420 0 -291 80 -516 305 -596 596 -26 91 -26 329 0 420 120 433 542 692
982 601z"/>
<path d="M947 1403 c-2 -4 -28 -79 -57 -165 l-52 -158 -180 0 c-105 0 -178 -4
-176 -9 4 -12 283 -211 295 -211 6 0 48 18 94 39 46 22 98 43 114 47 26 6 23
1 -30 -43 -33 -28 -106 -97 -161 -154 -87 -89 -104 -112 -118 -158 -9 -30 -16
-56 -16 -58 0 -14 40 9 149 85 69 49 132 92 139 96 8 5 66 -31 155 -94 100
-71 143 -97 145 -86 2 8 -20 85 -48 172 -28 86 -49 158 -48 158 38 23 278 200
278 207 0 5 -80 10 -177 11 l-176 3 -51 152 c-49 145 -68 185 -79 166z"/>
</g>
</svg>
