<?xml version="1.0" standalone="no"?>
<!DOCTYPE svg PUBLIC "-//W3C//DTD SVG 20010904//EN"
 "http://www.w3.org/TR/2001/REC-SVG-20010904/DTD/svg10.dtd">
<svg version="1.0" xmlns="http://www.w3.org/2000/svg"
 width="192.000000pt" height="192.000000pt" viewBox="0 0 192.000000 192.000000"
 preserveAspectRatio="xMidYMid meet">
<metadata>
Created by potrace 1.16, written by Peter Selinger 2001-2019
</metadata>
<g transform="translate(0.000000,192.000000) scale(0.100000,-0.100000)"
fill="#000000" stroke="none">
811 c445 -92 729 -532 635 -987 -62 -301 -295 -546 -601 -630 -91 -26 -329
-26 -420 0 -291 80 -516 305 -596 596 -26 91 -26 329 0 420 120 433 542 692
982 601z"/>
<path d="M710 1327 c-49 -16 -104 -75 -119 -128 -8 -31 -11 -127 -9 -324 l3
-280 250 0 c249 0 250 0 306 26 71 33 125 87 158 158 24 51 26 67 26 181 0
152 -15 201 -87 276 -80 85 -121 98 -323 101 -108 1 -183 -2 -205 -10z m369
-185 c53 -29 71 -72 71 -172 0 -156 -40 -193 -215 -199 -94 -3 -119 -7 -172
-31 l-62 -28 30 48 29 47 0 170 c0 93 3 173 7 176 3 4 68 7 142 7 113 0 142
-3 170 -18z"/>
</g>
</svg>
