<?xml version="1.0" standalone="no"?>
<!DOCTYPE svg PUBLIC "-//W3C//DTD SVG 20010904//EN"
 "http://www.w3.org/TR/2001/REC-SVG-20010904/DTD/svg10.dtd">
<svg version="1.0" xmlns="http://www.w3.org/2000/svg"
 width="192.000000pt" height="192.000000pt" viewBox="0 0 192.000000 192.000000"
 preserveAspectRatio="xMidYMid meet">
<metadata>
Created by potrace 1.16, written by Peter Selinger 2001-2019
</metadata>
<g transform="translate(0.000000,192.000000) scale(0.100000,-0.100000)"
fill="#000000" stroke="none">
811 c445 -92 729 -532 635 -987 -62 -301 -295 -546 -601 -630 -91 -26 -329
-26 -420 0 -291 80 -516 305 -596 596 -26 91 -26 329 0 420 120 433 542 692
982 601z"/>
<path d="M822 1218 c-9 -13 -26 -200 -27 -307 0 -40 4 -56 17 -65 33 -20 46
11 57 139 6 66 13 141 16 167 4 34 1 50 -10 62 -20 19 -39 20 -53 4z"/>
<path d="M1286 1072 c-15 -18 -15 -22 5 -66 25 -58 19 -68 -69 -108 -52 -24
-63 -33 -60 -50 5 -36 30 -43 81 -23 61 23 124 78 132 114 8 38 -11 107 -36
132 -24 24 -32 24 -53 1z"/>
<path d="M722 1061 c-8 -4 -18 -27 -23 -50 -13 -58 -67 -140 -123 -187 -51
-42 -60 -76 -26 -94 80 -43 297 274 224 327 -21 15 -34 16 -52 4z"/>
<path d="M974 1050 c-57 -23 -101 -125 -70 -159 17 -18 15 -22 -43 -78 -63
-60 -72 -81 -46 -103 23 -19 54 1 131 82 57 61 68 68 102 68 48 0 109 41 128
86 19 46 18 103 -2 111 -26 10 -46 -9 -60 -58 -10 -32 -21 -49 -39 -57 -14 -7
-27 -12 -29 -12 -2 0 -1 22 2 49 4 42 1 50 -19 65 -26 18 -26 18 -55 6z"/>
<path d="M1057 811 c-57 -8 -87 -33 -70 -59 8 -13 22 -16 64 -14 30 1 69 7 87
13 28 9 33 15 30 37 -3 31 -26 35 -111 23z"/>
</g>
</svg>
