<?xml version="1.0" standalone="no"?>
<!DOCTYPE svg PUBLIC "-//W3C//DTD SVG 20010904//EN"
 "http://www.w3.org/TR/2001/REC-SVG-20010904/DTD/svg10.dtd">
<svg version="1.0" xmlns="http://www.w3.org/2000/svg"
 width="192.000000pt" height="192.000000pt" viewBox="0 0 192.000000 192.000000"
 preserveAspectRatio="xMidYMid meet">
<metadata>
Created by potrace 1.16, written by Peter Selinger 2001-2019
</metadata>
<g transform="translate(0.000000,192.000000) scale(0.100000,-0.100000)"
fill="#000000" stroke="none">
811 c445 -92 729 -532 635 -987 -62 -301 -295 -546 -601 -630 -91 -26 -329
-26 -420 0 -291 80 -516 305 -596 596 -26 91 -26 329 0 420 120 433 542 692
982 601z"/>
<path d="M905 1108 c-14 -62 -31 -130 -36 -150 l-10 -38 -79 0 c-89 0 -88 -1
-69 75 l11 44 71 3 c69 3 71 4 78 32 5 16 6 33 3 38 -3 4 -63 8 -133 8 -163 0
-169 -4 -201 -143 -33 -145 -44 -137 209 -137 202 0 208 1 228 23 20 21 93
288 93 338 0 17 -8 19 -69 19 l-69 0 -27 -112z"/>
<path d="M1074 1093 c-58 -257 -64 -266 -162 -273 -39 -3 -74 -8 -77 -12 -4
-4 -10 -27 -12 -53 l-6 -45 99 0 c182 1 216 33 269 252 19 80 35 149 35 152 0
3 -31 6 -70 6 -68 0 -70 -1 -76 -27z"/>
<path d="M1245 1108 c-2 -7 -17 -68 -33 -136 -22 -93 -26 -125 -17 -128 7 -3
39 -4 71 -2 l59 3 31 132 c17 73 29 135 26 138 -12 11 -133 5 -137 -7z"/>
</g>
</svg>
