<?xml version="1.0" standalone="no"?>
<!DOCTYPE svg PUBLIC "-//W3C//DTD SVG 20010904//EN"
 "http://www.w3.org/TR/2001/REC-SVG-20010904/DTD/svg10.dtd">
<svg version="1.0" xmlns="http://www.w3.org/2000/svg"
 width="192.000000pt" height="192.000000pt" viewBox="0 0 192.000000 192.000000"
 preserveAspectRatio="xMidYMid meet">
<metadata>
Created by potrace 1.16, written by Peter Selinger 2001-2019
</metadata>
<g transform="translate(0.000000,192.000000) scale(0.100000,-0.100000)"
fill="#000000" stroke="none">
811 c445 -92 729 -532 635 -987 -62 -301 -295 -546 -601 -630 -91 -26 -329
-26 -420 0 -291 80 -516 305 -596 596 -26 91 -26 329 0 420 120 433 542 692
982 601z"/>
<path d="M931 1198 c-5 -13 -21 -76 -36 -141 -15 -65 -34 -124 -42 -133 -11
-11 -33 -14 -87 -12 -79 3 -79 3 -55 91 l10 37 63 0 c68 0 82 8 88 50 l3 25
-128 3 -128 3 -28 -29 c-44 -43 -78 -211 -49 -240 9 -9 69 -12 209 -12 175 0
199 2 219 18 17 14 31 54 61 172 21 85 39 163 39 173 0 14 -10 17 -65 17 -59
0 -66 -2 -74 -22z"/>
<path d="M1054 998 c-24 -105 -33 -128 -60 -155 -29 -30 -37 -33 -93 -33 -57
0 -62 -2 -71 -26 -24 -62 -21 -64 103 -64 123 0 158 12 194 66 19 29 94 313
86 327 -2 4 -33 7 -67 7 l-63 0 -29 -122z"/>
<path d="M1246 1103 c-13 -46 -56 -236 -56 -249 0 -11 15 -14 65 -14 l64 0 10
38 c20 73 51 213 51 227 0 12 -15 15 -64 15 -53 0 -66 -3 -70 -17z"/>
</g>
</svg>
