<?xml version="1.0" standalone="no"?>
<!DOCTYPE svg PUBLIC "-//W3C//DTD SVG 20010904//EN"
 "http://www.w3.org/TR/2001/REC-SVG-20010904/DTD/svg10.dtd">
<svg version="1.0" xmlns="http://www.w3.org/2000/svg"
 width="192.000000pt" height="192.000000pt" viewBox="0 0 192.000000 192.000000"
 preserveAspectRatio="xMidYMid meet">
<metadata>
Created by potrace 1.16, written by Peter Selinger 2001-2019
</metadata>
<g transform="translate(0.000000,192.000000) scale(0.100000,-0.100000)"
fill="#000000" stroke="none">
811 c445 -92 729 -532 635 -987 -62 -301 -295 -546 -601 -630 -91 -26 -329
-26 -420 0 -291 80 -516 305 -596 596 -26 91 -26 329 0 420 120 433 542 692
982 601z"/>
<path d="M934 1209 c-3 -6 -21 -71 -39 -145 -18 -74 -35 -138 -39 -141 -4 -4
-38 -9 -76 -11 -82 -5 -88 2 -70 77 l12 50 71 3 71 3 7 32 c3 18 4 35 1 38 -3
3 -62 5 -132 5 -122 0 -128 -1 -152 -25 -17 -17 -31 -51 -45 -116 -21 -89 -21
-116 1 -131 6 -4 100 -8 209 -8 248 0 230 -13 281 198 20 83 36 158 36 166 0
13 -12 16 -64 16 -36 0 -68 -5 -72 -11z"/>
<path d="M1051 993 c-40 -162 -51 -176 -150 -181 l-70 -4 -6 -39 c-4 -21 -4
-43 0 -49 9 -15 173 -12 218 4 46 17 74 40 95 81 18 35 82 296 76 307 -3 5
-34 8 -68 8 l-64 0 -31 -127z"/>
<path d="M1241 1083 c-68 -258 -68 -245 16 -241 l66 3 32 132 c18 73 30 135
27 138 -3 3 -34 5 -68 5 l-63 0 -10 -37z"/>
</g>
</svg>
