<?xml version="1.0" standalone="no"?>
<!DOCTYPE svg PUBLIC "-//W3C//DTD SVG 20010904//EN"
 "http://www.w3.org/TR/2001/REC-SVG-20010904/DTD/svg10.dtd">
<svg version="1.0" xmlns="http://www.w3.org/2000/svg"
 width="192.000000pt" height="192.000000pt" viewBox="0 0 192.000000 192.000000"
 preserveAspectRatio="xMidYMid meet">
<metadata>
Created by potrace 1.16, written by Peter Selinger 2001-2019
</metadata>
<g transform="translate(0.000000,192.000000) scale(0.100000,-0.100000)"
fill="#000000" stroke="none">
811 c445 -92 729 -532 635 -987 -62 -301 -295 -546 -601 -630 -91 -26 -329
-26 -420 0 -291 80 -516 305 -596 596 -26 91 -26 329 0 420 120 433 542 692
982 601z"/>
<path d="M872 1354 c-38 -19 -87 -63 -175 -155 -67 -71 -127 -142 -134 -157
-18 -39 -16 -128 3 -165 25 -50 263 -287 309 -308 49 -23 116 -24 159 -4 18 9
96 80 173 158 119 119 143 149 153 187 26 99 1 146 -168 313 -107 104 -147
137 -177 146 -60 16 -86 14 -143 -15z m184 -170 c19 -8 52 -33 74 -56 79 -81
88 -209 22 -303 -130 -186 -416 -106 -430 120 -5 78 10 126 56 177 75 83 174
105 278 62z"/>
<path d="M872 1129 c-120 -60 -135 -232 -28 -314 66 -50 171 -47 233 8 44 39
63 82 63 142 0 140 -142 226 -268 164z m68 -106 c0 -16 4 -33 8 -39 13 -19 48
-33 70 -27 31 8 29 -27 -3 -57 -81 -76 -199 47 -120 125 31 32 45 31 45 -2z"/>
</g>
</svg>
