<?xml version="1.0" standalone="no"?>
<!DOCTYPE svg PUBLIC "-//W3C//DTD SVG 20010904//EN"
 "http://www.w3.org/TR/2001/REC-SVG-20010904/DTD/svg10.dtd">
<svg version="1.0" xmlns="http://www.w3.org/2000/svg"
 width="192.000000pt" height="192.000000pt" viewBox="0 0 192.000000 192.000000"
 preserveAspectRatio="xMidYMid meet">
<metadata>
Created by potrace 1.16, written by Peter Selinger 2001-2019
</metadata>
<g transform="translate(0.000000,192.000000) scale(0.100000,-0.100000)"
fill="#000000" stroke="none">
811 c445 -92 729 -532 635 -987 -62 -301 -295 -546 -601 -630 -91 -26 -329
-26 -420 0 -291 80 -516 305 -596 596 -26 91 -26 329 0 420 120 433 542 692
982 601z"/>
<path d="M835 1363 c-147 -53 -243 -155 -281 -298 -49 -181 47 -385 220 -470
293 -143 631 106 585 430 -19 138 -108 257 -235 317 -85 40 -211 49 -289 21z
m-27 -279 c20 -14 22 -23 22 -111 0 -124 -7 -133 -102 -133 l-68 0 0 123 c0
68 3 127 7 130 13 14 118 7 141 -9z m147 -36 c26 -78 35 -80 35 -10 l0 62 30
0 30 0 0 -130 0 -130 -43 0 -43 0 -20 58 -19 57 -3 -57 -3 -58 -34 0 -35 0 0
130 0 130 44 0 44 0 17 -52z m275 22 c0 -29 -2 -30 -46 -30 -38 0 -45 -3 -42
-17 2 -10 19 -22 38 -28 54 -16 60 -23 60 -72 0 -67 -18 -83 -97 -83 -60 0
-63 1 -63 24 0 22 5 25 43 28 34 2 43 7 45 24 3 18 -4 23 -32 28 -47 9 -66 30
-66 72 0 55 36 84 105 84 54 0 55 0 55 -30z"/>
<path d="M730 965 c0 -67 2 -76 18 -73 14 3 17 15 17 73 0 58 -3 70 -17 73
-16 3 -18 -6 -18 -73z"/>
</g>
</svg>
