<?xml version="1.0" standalone="no"?>
<!DOCTYPE svg PUBLIC "-//W3C//DTD SVG 20010904//EN"
 "http://www.w3.org/TR/2001/REC-SVG-20010904/DTD/svg10.dtd">
<svg version="1.0" xmlns="http://www.w3.org/2000/svg"
 width="192.000000pt" height="192.000000pt" viewBox="0 0 192.000000 192.000000"
 preserveAspectRatio="xMidYMid meet">
<metadata>
Created by potrace 1.16, written by Peter Selinger 2001-2019
</metadata>
<g transform="translate(0.000000,192.000000) scale(0.100000,-0.100000)"
fill="#000000" stroke="none">
811 c445 -92 729 -532 635 -987 -62 -301 -295 -546 -601 -630 -91 -26 -329
-26 -420 0 -291 80 -516 305 -596 596 -26 91 -26 329 0 420 120 433 542 692
982 601z"/>
<path d="M897 1369 c-33 -4 -84 -20 -120 -37 -304 -150 -305 -583 -2 -733 201
-99 447 -15 546 187 99 201 15 446 -187 545 -70 35 -150 47 -237 38z m31 -130
l-3 -54 -52 -3 c-60 -3 -64 3 -32 54 24 39 71 76 82 65 5 -5 7 -32 5 -62z
m141 -3 c32 -51 28 -57 -31 -54 l-53 3 -3 49 c-5 72 2 82 37 57 16 -12 39 -36
50 -55z m-301 -11 c-20 -41 -25 -45 -57 -45 l-36 1 48 44 c27 25 53 45 58 45
5 0 -1 -20 -13 -45z m419 0 l48 -44 -36 -1 c-32 0 -37 4 -57 45 -12 25 -18 45
-13 45 5 0 31 -20 58 -45z m-474 -112 c-13 -2 -35 -2 -50 0 -16 2 -5 4 22 4
28 0 40 -2 28 -4z m174 0 c-20 -2 -52 -2 -70 0 -17 2 0 4 38 4 39 0 53 -2 32
-4z m200 0 c-20 -2 -52 -2 -70 0 -17 2 0 4 38 4 39 0 53 -2 32 -4z m166 0
c-13 -2 -35 -2 -50 0 -16 2 -5 4 22 4 28 0 40 -2 28 -4z m-412 -63 c16 -9 19
-22 19 -85 0 -87 -10 -98 -88 -93 l-47 3 -3 79 c-2 44 -1 85 2 93 6 16 88 18
117 3z m110 -42 l24 -52 5 50 c4 41 8 49 25 49 19 0 20 -7 20 -90 0 -76 -3
-90 -17 -93 -11 -2 -25 14 -45 49 l-28 53 -3 -52 c-3 -44 -6 -52 -23 -52 -17
0 -19 8 -19 95 0 85 2 95 18 95 13 0 27 -17 43 -52z m217 40 c19 -19 15 -48
-8 -48 -12 0 -20 7 -20 16 0 10 -7 14 -22 12 -34 -5 -27 -32 11 -44 43 -14 64
-41 56 -74 -8 -31 -21 -40 -62 -40 -46 0 -63 9 -63 36 0 17 6 24 20 24 11 0
20 -7 20 -15 0 -9 9 -15 21 -15 32 0 21 42 -14 51 -54 15 -70 45 -47 90 8 14
21 19 53 19 24 0 48 -5 55 -12z m-438 -238 c0 -5 -18 -10 -39 -10 -22 0 -43 5
-46 10 -4 6 12 10 39 10 25 0 46 -4 46 -10z m190 0 c0 -6 -26 -10 -59 -10 -33
0 -63 5 -66 10 -4 6 18 10 59 10 37 0 66 -4 66 -10z m195 0 c-3 -5 -33 -10
-66 -10 -33 0 -59 4 -59 10 0 6 29 10 66 10 41 0 63 -4 59 -10z m150 0 c-3 -5
-24 -10 -46 -10 -21 0 -39 5 -39 10 0 6 21 10 46 10 27 0 43 -4 39 -10z m-497
-105 c12 -25 18 -45 14 -45 -12 0 -92 70 -92 81 0 5 13 9 28 9 23 0 32 -8 50
-45z m160 -9 c5 -72 -2 -82 -37 -57 -30 22 -71 79 -71 100 0 8 17 11 53 9 l52
-3 3 -49z m162 43 c0 -35 -87 -129 -104 -112 -8 8 -8 108 1 116 11 12 103 8
103 -4z m130 2 c0 -11 -80 -81 -92 -81 -4 0 2 20 14 45 18 37 27 45 50 45 15
0 28 -4 28 -9z"/>
<path d="M770 965 c0 -52 1 -55 25 -55 24 0 25 3 25 55 0 52 -1 55 -25 55 -24
0 -25 -3 -25 -55z"/>
</g>
</svg>
