<?xml version="1.0" standalone="no"?>
<!DOCTYPE svg PUBLIC "-//W3C//DTD SVG 20010904//EN"
 "http://www.w3.org/TR/2001/REC-SVG-20010904/DTD/svg10.dtd">
<svg version="1.0" xmlns="http://www.w3.org/2000/svg"
 width="192.000000pt" height="192.000000pt" viewBox="0 0 192.000000 192.000000"
 preserveAspectRatio="xMidYMid meet">
<metadata>
Created by potrace 1.16, written by Peter Selinger 2001-2019
</metadata>
<g transform="translate(0.000000,192.000000) scale(0.100000,-0.100000)"
fill="#000000" stroke="none">
811 c445 -92 729 -532 635 -987 -62 -301 -295 -546 -601 -630 -91 -26 -329
-26 -420 0 -291 80 -516 305 -596 596 -26 91 -26 329 0 420 120 433 542 692
982 601z"/>
<path d="M665 1351 c-88 -54 -95 -81 -95 -388 0 -292 5 -315 76 -369 l37 -29
177 0 177 0 37 29 c71 54 76 77 76 369 0 276 -4 303 -53 355 -44 47 -66 52
-239 52 -141 0 -167 -3 -193 -19z m75 -296 c0 -54 0 -55 -30 -55 -30 0 -30 1
-30 55 0 54 0 55 30 55 30 0 30 -1 30 -55z m100 0 l0 -55 -35 0 -35 0 0 55 0
55 35 0 35 0 0 -55z m100 40 c0 -11 -7 -14 -25 -9 -23 6 -25 4 -25 -31 0 -35
2 -37 25 -31 18 5 25 2 25 -9 0 -11 -10 -15 -35 -15 l-35 0 0 55 0 55 35 0
c25 0 35 -4 35 -15z m-200 -151 c0 -11 -6 -14 -20 -9 -14 5 -20 2 -20 -9 0 -9
9 -16 20 -16 16 0 20 -7 20 -36 0 -33 -2 -35 -27 -32 -19 2 -29 10 -31 23 -3
16 -1 18 9 8 17 -17 29 -16 29 2 0 8 -9 15 -20 15 -16 0 -20 7 -20 35 0 32 2
35 30 35 21 0 30 -5 30 -16z m100 1 c0 -11 -7 -14 -25 -9 -23 6 -25 4 -25 -29
0 -38 17 -58 31 -36 11 18 23 5 15 -16 -4 -11 -15 -15 -33 -13 -25 3 -28 7
-31 47 -2 24 -1 50 2 57 8 20 66 18 66 -1z m100 -45 c0 -33 -4 -60 -10 -60 -5
0 -10 11 -10 25 0 16 -6 25 -15 25 -9 0 -15 -9 -15 -25 0 -14 -4 -25 -10 -25
-6 0 -10 27 -10 60 l0 60 35 0 35 0 0 -60z m98 6 c2 -27 -2 -54 -7 -59 -8 -8
-11 4 -11 41 0 40 -4 52 -15 52 -11 0 -15 -12 -15 -44 0 -25 -4 -48 -10 -51
-6 -4 -10 17 -10 55 l0 61 33 -3 c31 -3 32 -5 35 -52z m92 -6 c0 -33 -4 -60
-10 -60 -5 0 -10 23 -10 50 0 38 -4 50 -15 50 -11 0 -15 -12 -15 -51 0 -31 -4
-48 -10 -44 -5 3 -10 31 -10 61 l0 54 35 0 35 0 0 -60z"/>
<path d="M700 1055 c0 -19 5 -35 10 -35 6 0 10 16 10 35 0 19 -4 35 -10 35 -5
0 -10 -16 -10 -35z"/>
<path d="M790 1055 c0 -24 5 -35 15 -35 10 0 15 11 15 35 0 24 -5 35 -15 35
-10 0 -15 -11 -15 -35z"/>
<path d="M890 925 c0 -8 7 -15 15 -15 8 0 15 7 15 15 0 8 -7 15 -15 15 -8 0
-15 -7 -15 -15z"/>
<path d="M1160 900 l0 -60 40 0 c29 0 40 4 40 15 0 9 -9 15 -25 15 -14 0 -25
5 -25 10 0 6 9 10 20 10 27 0 25 20 -2 28 l-23 6 24 6 c43 10 37 30 -8 30
l-41 0 0 -60z"/>
<path d="M1260 900 c0 -47 3 -60 15 -60 9 0 15 9 15 25 0 14 5 25 10 25 6 0
10 -11 10 -25 0 -15 6 -25 14 -25 12 0 15 14 15 60 l-1 60 -39 0 -39 0 0 -60z"/>
</g>
</svg>
