<?xml version="1.0" standalone="no"?>
<!DOCTYPE svg PUBLIC "-//W3C//DTD SVG 20010904//EN"
 "http://www.w3.org/TR/2001/REC-SVG-20010904/DTD/svg10.dtd">
<svg version="1.0" xmlns="http://www.w3.org/2000/svg"
 width="192.000000pt" height="192.000000pt" viewBox="0 0 192.000000 192.000000"
 preserveAspectRatio="xMidYMid meet">
<metadata>
Created by potrace 1.16, written by Peter Selinger 2001-2019
</metadata>
<g transform="translate(0.000000,192.000000) scale(0.100000,-0.100000)"
fill="#000000" stroke="none">
811 c445 -92 729 -532 635 -987 -62 -301 -295 -546 -601 -630 -91 -26 -329
-26 -420 0 -291 80 -516 305 -596 596 -26 91 -26 329 0 420 120 433 542 692
982 601z"/>
<path d="M580 1077 c-16 -8 -28 -26 -34 -49 -12 -49 10 -85 59 -94 35 -6 53
-20 41 -31 -4 -4 -12 -1 -18 5 -7 7 -27 12 -45 12 -28 0 -33 -4 -33 -23 0 -38
30 -57 88 -57 39 0 57 5 72 20 39 39 16 129 -33 131 -16 1 -14 3 8 8 25 5 30
11 30 36 0 21 -7 33 -25 42 -32 16 -78 16 -110 0z m68 -65 c2 -7 -3 -12 -12
-12 -9 0 -16 7 -16 16 0 17 22 14 28 -4z"/>
<path d="M780 1078 c-24 -13 -25 -19 -28 -108 -3 -87 -1 -96 19 -112 27 -23
116 -24 147 -2 15 11 22 25 22 50 0 32 -2 34 -36 34 -28 0 -37 -5 -41 -20 -3
-13 -12 -20 -22 -18 -12 3 -16 15 -16 58 0 43 4 55 16 58 10 2 19 -6 22 -18 4
-17 12 -21 39 -18 29 3 33 7 36 33 5 48 -17 68 -79 72 -33 2 -64 -1 -79 -9z"/>
<path d="M1007 1073 c-7 -11 -57 -208 -57 -222 0 -6 16 -11 36 -11 27 0 37 5
41 20 3 13 14 20 28 20 14 0 25 -7 28 -20 4 -15 14 -20 41 -20 44 0 44 0 8
135 l-27 100 -47 3 c-25 2 -49 -1 -51 -5z m50 -125 c-3 -7 -5 -2 -5 12 0 14 2
19 5 13 2 -7 2 -19 0 -25z"/>
<path d="M1182 963 l3 -118 29 -3 c33 -4 45 10 47 53 l1 30 10 -30 c16 -44 27
-55 59 -55 36 0 41 16 37 140 l-3 95 -37 3 -38 3 -1 -48 0 -48 -17 45 c-16 41
-21 45 -55 48 l-38 3 3 -118z"/>
</g>
</svg>
