<?xml version="1.0" standalone="no"?>
<!DOCTYPE svg PUBLIC "-//W3C//DTD SVG 20010904//EN"
 "http://www.w3.org/TR/2001/REC-SVG-20010904/DTD/svg10.dtd">
<svg version="1.0" xmlns="http://www.w3.org/2000/svg"
 width="192.000000pt" height="192.000000pt" viewBox="0 0 192.000000 192.000000"
 preserveAspectRatio="xMidYMid meet">
<metadata>
Created by potrace 1.16, written by Peter Selinger 2001-2019
</metadata>
<g transform="translate(0.000000,192.000000) scale(0.100000,-0.100000)"
fill="#000000" stroke="none">
811 c445 -92 729 -532 635 -987 -62 -301 -295 -546 -601 -630 -91 -26 -329
-26 -420 0 -291 80 -516 305 -596 596 -26 91 -26 329 0 420 120 433 542 692
982 601z"/>
<path d="M835 1353 c-104 -10 -211 -34 -222 -50 -19 -25 -16 -49 11 -80 l24
-28 149 -1 c128 -1 156 -4 205 -23 80 -31 108 -67 108 -139 0 -69 -41 -164
-88 -204 -40 -34 -111 -60 -148 -56 l-30 3 30 167 c24 136 27 172 18 193 -26
57 -112 52 -137 -10 -18 -41 -125 -441 -125 -465 0 -64 43 -84 185 -84 86 0
125 4 180 21 188 59 309 233 309 443 0 72 -4 93 -26 136 -49 93 -127 143 -266
170 -72 14 -95 15 -177 7z"/>
</g>
</svg>
