<?xml version="1.0" standalone="no"?>
<!DOCTYPE svg PUBLIC "-//W3C//DTD SVG 20010904//EN"
 "http://www.w3.org/TR/2001/REC-SVG-20010904/DTD/svg10.dtd">
<svg version="1.0" xmlns="http://www.w3.org/2000/svg"
 width="192.000000pt" height="192.000000pt" viewBox="0 0 192.000000 192.000000"
 preserveAspectRatio="xMidYMid meet">
<metadata>
Created by potrace 1.16, written by Peter Selinger 2001-2019
</metadata>
<g transform="translate(0.000000,192.000000) scale(0.100000,-0.100000)"
fill="#000000" stroke="none">
811 c445 -92 729 -532 635 -987 -62 -301 -295 -546 -601 -630 -91 -26 -329
-26 -420 0 -291 80 -516 305 -596 596 -26 91 -26 329 0 420 120 433 542 692
982 601z"/>
<path d="M715 1328 c-50 -17 -96 -58 -116 -102 -16 -36 -19 -67 -19 -261 0
-247 7 -280 71 -327 58 -43 90 -48 304 -48 214 0 246 5 304 48 64 47 71 80 71
327 0 194 -3 225 -19 261 -21 45 -67 85 -120 103 -43 14 -434 14 -476 -1z
m283 -185 l3 -83 29 0 c18 0 33 -7 39 -19 9 -16 1 -28 -49 -75 -32 -31 -61
-56 -65 -56 -4 0 -33 25 -65 56 -50 47 -58 59 -49 75 5 11 20 19 34 19 24 0
25 2 25 69 0 96 4 103 54 99 l41 -3 3 -82z m269 -369 c-7 -44 -29 -78 -64
-101 -24 -16 -54 -18 -248 -18 -194 0 -224 2 -248 18 -35 23 -57 57 -64 101
l-6 36 318 0 318 0 -6 -36z"/>
</g>
</svg>
