<?xml version="1.0" standalone="no"?>
<!DOCTYPE svg PUBLIC "-//W3C//DTD SVG 20010904//EN"
 "http://www.w3.org/TR/2001/REC-SVG-20010904/DTD/svg10.dtd">
<svg version="1.0" xmlns="http://www.w3.org/2000/svg"
 width="192.000000pt" height="192.000000pt" viewBox="0 0 192.000000 192.000000"
 preserveAspectRatio="xMidYMid meet">
<metadata>
Created by potrace 1.16, written by Peter Selinger 2001-2019
</metadata>
<g transform="translate(0.000000,192.000000) scale(0.100000,-0.100000)"
fill="#000000" stroke="none">
811 c445 -92 729 -532 635 -987 -62 -301 -295 -546 -601 -630 -91 -26 -329
-26 -420 0 -291 80 -516 305 -596 596 -26 91 -26 329 0 420 120 433 542 692
982 601z"/>
<path d="M613 1313 c-7 -2 -13 -16 -13 -29 0 -33 32 -44 128 -44 89 0 115 -12
132 -64 12 -39 3 -71 -30 -101 -18 -16 -41 -21 -124 -25 -101 -5 -101 -5 -104
-32 -5 -40 26 -52 123 -46 48 3 98 13 119 23 69 33 110 128 86 200 -16 47 -57
95 -97 111 -31 13 -193 19 -220 7z"/>
<path d="M1049 1297 c-143 -76 -104 -287 57 -313 78 -12 160 33 190 103 63
148 -101 287 -247 210z"/>
<path d="M612 948 c-8 -8 -12 -59 -12 -165 l0 -153 25 -12 c35 -16 55 4 55 57
0 38 21 75 42 75 4 0 30 -29 58 -66 44 -54 57 -65 79 -62 46 5 39 41 -24 119
l-57 71 52 53 c53 54 60 78 24 92 -11 4 -38 -16 -88 -66 -39 -39 -75 -71 -79
-71 -4 0 -7 26 -7 58 0 59 -11 82 -40 82 -9 0 -21 -5 -28 -12z"/>
<path d="M966 944 c-26 -26 -22 -178 7 -234 62 -124 225 -132 311 -17 18 24
22 46 24 135 3 93 2 107 -14 119 -23 17 -29 16 -48 -3 -12 -12 -16 -37 -16
-101 0 -62 -5 -93 -17 -114 -33 -56 -108 -62 -154 -13 -21 23 -24 37 -27 122
-3 75 -7 100 -20 110 -21 16 -27 15 -46 -4z"/>
</g>
</svg>
