<?xml version="1.0" standalone="no"?>
<!DOCTYPE svg PUBLIC "-//W3C//DTD SVG 20010904//EN"
 "http://www.w3.org/TR/2001/REC-SVG-20010904/DTD/svg10.dtd">
<svg version="1.0" xmlns="http://www.w3.org/2000/svg"
 width="192.000000pt" height="192.000000pt" viewBox="0 0 192.000000 192.000000"
 preserveAspectRatio="xMidYMid meet">
<metadata>
Created by potrace 1.16, written by Peter Selinger 2001-2019
</metadata>
<g transform="translate(0.000000,192.000000) scale(0.100000,-0.100000)"
fill="#000000" stroke="none">
811 c445 -92 729 -532 635 -987 -62 -301 -295 -546 -601 -630 -91 -26 -329
-26 -420 0 -291 80 -516 305 -596 596 -26 91 -26 329 0 420 120 433 542 692
982 601z"/>
<path d="M576 1319 l-26 -31 0 -325 0 -325 30 -30 c27 -26 36 -30 70 -25 21 3
64 22 95 42 139 93 208 267 170 430 -26 114 -82 194 -179 257 -77 49 -123 52
-160 7z"/>
<path d="M1191 1327 c-65 -33 -135 -108 -173 -184 -31 -64 -33 -73 -33 -178 0
-98 3 -116 27 -167 50 -106 180 -218 255 -218 19 0 43 9 60 24 l28 24 0 337 0
337 -28 24 c-35 30 -78 31 -136 1z"/>
</g>
</svg>
