<?xml version="1.0" standalone="no"?>
<!DOCTYPE svg PUBLIC "-//W3C//DTD SVG 20010904//EN"
 "http://www.w3.org/TR/2001/REC-SVG-20010904/DTD/svg10.dtd">
<svg version="1.0" xmlns="http://www.w3.org/2000/svg"
 width="192.000000pt" height="192.000000pt" viewBox="0 0 192.000000 192.000000"
 preserveAspectRatio="xMidYMid meet">
<metadata>
Created by potrace 1.16, written by Peter Selinger 2001-2019
</metadata>
<g transform="translate(0.000000,192.000000) scale(0.100000,-0.100000)"
fill="#000000" stroke="none">
811 c445 -92 729 -532 635 -987 -62 -301 -295 -546 -601 -630 -91 -26 -329
-26 -420 0 -291 80 -516 305 -596 596 -26 91 -26 329 0 420 120 433 542 692
982 601z"/>
<path d="M560 1190 c-19 -19 -20 -33 -20 -225 0 -199 1 -205 23 -226 20 -19
31 -20 102 -17 50 3 95 11 120 23 188 90 188 354 0 441 -68 32 -195 34 -225 4z"/>
<path d="M1124 1186 c-100 -47 -158 -159 -136 -265 27 -128 127 -201 278 -201
47 0 65 5 82 20 21 20 22 28 22 225 0 250 3 245 -117 245 -61 0 -89 -5 -129
-24z"/>
</g>
</svg>
