<?xml version="1.0" standalone="no"?>
<!DOCTYPE svg PUBLIC "-//W3C//DTD SVG 20010904//EN"
 "http://www.w3.org/TR/2001/REC-SVG-20010904/DTD/svg10.dtd">
<svg version="1.0" xmlns="http://www.w3.org/2000/svg"
 width="192.000000pt" height="192.000000pt" viewBox="0 0 192.000000 192.000000"
 preserveAspectRatio="xMidYMid meet">
<metadata>
Created by potrace 1.16, written by Peter Selinger 2001-2019
</metadata>
<g transform="translate(0.000000,192.000000) scale(0.100000,-0.100000)"
fill="#000000" stroke="none">
811 c445 -92 729 -532 635 -987 -62 -301 -295 -546 -601 -630 -91 -26 -329
-26 -420 0 -291 80 -516 305 -596 596 -26 91 -26 329 0 420 120 433 542 692
982 601z"/>
<path d="M840 1359 c-32 -10 -33 -12 -15 -22 11 -6 57 -12 104 -13 137 -5 184
-24 268 -109 40 -40 73 -78 73 -84 0 -23 -44 -31 -169 -31 -122 0 -131 -1
-148 -22 -24 -31 -82 -78 -95 -78 -10 0 -6 27 8 64 11 27 -32 19 -70 -14 -36
-32 -63 -89 -75 -154 -3 -22 -12 -41 -20 -44 -10 -3 -12 3 -6 29 16 77 30 111
64 151 l36 42 -33 -19 c-61 -36 -102 -121 -102 -211 0 -66 -15 -77 -36 -27
-56 133 -22 306 81 409 36 36 45 51 41 69 -5 18 0 25 26 36 l32 13 -30 8 c-16
5 -40 6 -53 3 -23 -6 -23 -7 -5 -26 17 -19 17 -20 -7 -36 -113 -78 -182 -246
-159 -388 21 -127 112 -251 224 -304 209 -98 451 -11 549 197 30 62 32 74 31
172 0 91 -3 113 -25 160 -38 81 -118 163 -196 202 -59 29 -77 33 -162 35 -53
1 -112 -2 -131 -8z"/>
</g>
</svg>
