<?xml version="1.0" standalone="no"?>
<!DOCTYPE svg PUBLIC "-//W3C//DTD SVG 20010904//EN"
 "http://www.w3.org/TR/2001/REC-SVG-20010904/DTD/svg10.dtd">
<svg version="1.0" xmlns="http://www.w3.org/2000/svg"
 width="192.000000pt" height="192.000000pt" viewBox="0 0 192.000000 192.000000"
 preserveAspectRatio="xMidYMid meet">
<metadata>
Created by potrace 1.16, written by Peter Selinger 2001-2019
</metadata>
<g transform="translate(0.000000,192.000000) scale(0.100000,-0.100000)"
fill="#000000" stroke="none">
811 c445 -92 729 -532 635 -987 -62 -301 -295 -546 -601 -630 -91 -26 -329
-26 -420 0 -291 80 -516 305 -596 596 -26 91 -26 329 0 420 120 433 542 692
982 601z"/>
<path d="M867 1320 c-111 -28 -214 -122 -252 -229 l-14 -40 39 39 c25 25 57
44 91 54 58 18 163 20 222 7 30 -7 48 -5 80 10 48 21 95 24 132 7 23 -10 35
-38 16 -38 -4 0 -20 -9 -35 -21 l-27 -21 60 -55 c33 -29 75 -76 92 -104 28
-42 34 -47 42 -33 5 9 7 50 5 90 -12 186 -159 333 -342 340 -39 2 -88 -1 -109
-6z"/>
<path d="M805 1051 c-17 -4 -40 -13 -50 -19 -16 -9 -6 -11 55 -12 89 0 159
-17 229 -56 61 -33 131 -105 131 -135 0 -11 -3 -19 -7 -17 -5 2 -46 22 -93 45
-47 24 -101 45 -120 48 l-35 6 33 -29 c48 -42 43 -56 -19 -49 -55 7 -132 46
-152 78 -15 24 -43 24 -114 -1 -31 -11 -58 -18 -61 -16 -2 3 -7 28 -11 57 l-6
53 -18 -27 c-24 -37 -19 -81 10 -85 16 -2 26 -16 37 -50 34 -102 136 -197 244
-228 146 -43 324 25 403 153 l22 35 29 -47 c28 -45 56 -56 50 -19 -7 35 -44
124 -52 124 -4 0 -11 -11 -14 -25 -9 -34 -16 -31 -51 17 -104 142 -302 232
-440 199z"/>
</g>
</svg>
