<?xml version="1.0" standalone="no"?>
<!DOCTYPE svg PUBLIC "-//W3C//DTD SVG 20010904//EN"
 "http://www.w3.org/TR/2001/REC-SVG-20010904/DTD/svg10.dtd">
<svg version="1.0" xmlns="http://www.w3.org/2000/svg"
 width="192.000000pt" height="192.000000pt" viewBox="0 0 192.000000 192.000000"
 preserveAspectRatio="xMidYMid meet">
<metadata>
Created by potrace 1.16, written by Peter Selinger 2001-2019
</metadata>
<g transform="translate(0.000000,192.000000) scale(0.100000,-0.100000)"
fill="#000000" stroke="none">
811 c445 -92 729 -532 635 -987 -62 -301 -295 -546 -601 -630 -91 -26 -329
-26 -420 0 -291 80 -516 305 -596 596 -26 91 -26 329 0 420 120 433 542 692
982 601z"/>
<path d="M1030 1364 c-21 -9 -220 -206 -220 -219 0 -6 74 -84 164 -174 l165
-164 82 79 c136 132 159 177 125 242 -8 15 -61 73 -119 130 -91 90 -109 104
-143 107 -21 3 -46 2 -54 -1z m91 -124 c22 -12 26 -59 7 -78 -7 -7 -21 -12
-33 -12 -29 0 -45 19 -45 52 0 39 34 57 71 38z m0 -190 c22 -12 26 -59 7 -78
-7 -7 -21 -12 -33 -12 -29 0 -45 19 -45 52 0 39 34 57 71 38z"/>
<path d="M660 1005 c-102 -103 -105 -107 -105 -150 0 -45 2 -47 126 -170 168
-167 176 -167 332 -7 48 49 87 93 87 98 0 9 -321 334 -330 334 -3 0 -53 -47
-110 -105z m180 -153 c30 -24 21 -69 -15 -78 -35 -9 -53 1 -61 32 -6 21 -2 31
16 46 12 10 26 18 30 18 4 0 18 -8 30 -18z"/>
</g>
</svg>
