<?xml version="1.0" standalone="no"?>
<!DOCTYPE svg PUBLIC "-//W3C//DTD SVG 20010904//EN"
 "http://www.w3.org/TR/2001/REC-SVG-20010904/DTD/svg10.dtd">
<svg version="1.0" xmlns="http://www.w3.org/2000/svg"
 width="192.000000pt" height="192.000000pt" viewBox="0 0 192.000000 192.000000"
 preserveAspectRatio="xMidYMid meet">
<metadata>
Created by potrace 1.16, written by Peter Selinger 2001-2019
</metadata>
<g transform="translate(0.000000,192.000000) scale(0.100000,-0.100000)"
fill="#000000" stroke="none">
811 c445 -92 729 -532 635 -987 -62 -301 -295 -546 -601 -630 -91 -26 -329
-26 -420 0 -291 80 -516 305 -596 596 -26 91 -26 329 0 420 120 433 542 692
982 601z"/>
<path d="M855 1366 c-310 -75 -418 -464 -191 -691 234 -234 639 -101 697 229
49 284 -221 531 -506 462z m398 -234 c44 -81 42 -87 -30 -87 -34 0 -65 -3 -69
-7 -4 -5 -7 -27 -6 -50 4 -94 -42 -179 -117 -218 -13 -7 -66 -13 -121 -14 -87
-1 -100 -4 -138 -28 l-41 -28 -35 41 c-48 57 -77 123 -83 189 -5 53 -4 57 22
74 15 10 53 21 85 26 75 11 110 30 157 86 52 64 86 77 182 69 68 -6 79 -5 101
13 25 20 25 20 46 1 12 -11 33 -41 47 -67z"/>
<path d="M864 1057 c-2 -7 -3 -67 -2 -133 l3 -119 30 0 c29 0 30 1 33 54 3 52
4 53 23 35 10 -9 19 -24 19 -33 0 -26 29 -61 51 -61 16 0 19 7 19 53 0 29 -5
58 -12 65 -8 8 -8 15 1 26 15 18 11 118 -6 123 -18 6 -53 -34 -53 -60 0 -13
-9 -32 -20 -42 -20 -18 -20 -17 -20 37 0 42 -4 57 -16 62 -25 10 -44 7 -50 -7z"/>
</g>
</svg>
