<?xml version="1.0" standalone="no"?>
<!DOCTYPE svg PUBLIC "-//W3C//DTD SVG 20010904//EN"
 "http://www.w3.org/TR/2001/REC-SVG-20010904/DTD/svg10.dtd">
<svg version="1.0" xmlns="http://www.w3.org/2000/svg"
 width="192.000000pt" height="192.000000pt" viewBox="0 0 192.000000 192.000000"
 preserveAspectRatio="xMidYMid meet">
<metadata>
Created by potrace 1.16, written by Peter Selinger 2001-2019
</metadata>
<g transform="translate(0.000000,192.000000) scale(0.100000,-0.100000)"
fill="#000000" stroke="none">
811 c445 -92 729 -532 635 -987 -62 -301 -295 -546 -601 -630 -91 -26 -329
-26 -420 0 -291 80 -516 305 -596 596 -26 91 -26 329 0 420 120 433 542 692
982 601z"/>
<path d="M1073 1356 c-37 -31 -48 -67 -33 -111 34 -104 190 -76 190 34 0 54
-32 90 -86 98 -33 4 -45 1 -71 -21z m83 -91 c-3 -9 -14 -15 -23 -13 -22 4 -30
38 -11 49 18 11 43 -15 34 -36z"/>
<path d="M664 1286 c-74 -34 -107 -82 -112 -162 -4 -62 -3 -66 93 -273 67
-145 105 -215 122 -226 48 -32 85 -30 171 9 44 20 84 36 89 36 6 0 18 -19 28
-42 25 -58 44 -78 71 -78 68 0 85 40 49 117 -14 31 -25 57 -25 59 0 2 39 23
86 47 97 47 129 86 120 144 -6 39 -82 204 -99 215 -22 14 -64 8 -80 -10 -24
-27 -21 -52 18 -137 l35 -76 -67 -30 c-36 -17 -69 -27 -72 -22 -4 4 -43 85
-86 178 -90 197 -113 230 -169 256 -55 25 -111 24 -172 -5z m135 -120 c6 -7
49 -94 95 -192 l84 -179 -65 -33 c-36 -19 -69 -30 -73 -25 -14 15 -170 363
-170 379 0 8 11 26 25 39 27 28 85 34 104 11z"/>
</g>
</svg>
