<?xml version="1.0" standalone="no"?>
<!DOCTYPE svg PUBLIC "-//W3C//DTD SVG 20010904//EN"
 "http://www.w3.org/TR/2001/REC-SVG-20010904/DTD/svg10.dtd">
<svg version="1.0" xmlns="http://www.w3.org/2000/svg"
 width="192.000000pt" height="192.000000pt" viewBox="0 0 192.000000 192.000000"
 preserveAspectRatio="xMidYMid meet">
<metadata>
Created by potrace 1.16, written by Peter Selinger 2001-2019
</metadata>
<g transform="translate(0.000000,192.000000) scale(0.100000,-0.100000)"
fill="#000000" stroke="none">
811 c445 -92 729 -532 635 -987 -62 -301 -295 -546 -601 -630 -91 -26 -329
-26 -420 0 -291 80 -516 305 -596 596 -26 91 -26 329 0 420 120 433 542 692
982 601z"/>
<path d="M538 1209 c-10 -5 -18 -18 -18 -27 0 -19 131 -153 167 -171 14 -7
102 -11 248 -11 200 0 226 -2 232 -16 3 -9 2 -24 -4 -33 -9 -13 -36 -16 -171
-19 -221 -4 -231 -19 -88 -146 l76 -68 117 3 c107 4 122 7 164 31 193 114 153
411 -62 457 -65 14 -637 14 -661 0z"/>
</g>
</svg>
