<?xml version="1.0" standalone="no"?>
<!DOCTYPE svg PUBLIC "-//W3C//DTD SVG 20010904//EN"
 "http://www.w3.org/TR/2001/REC-SVG-20010904/DTD/svg10.dtd">
<svg version="1.0" xmlns="http://www.w3.org/2000/svg"
 width="192.000000pt" height="192.000000pt" viewBox="0 0 192.000000 192.000000"
 preserveAspectRatio="xMidYMid meet">
<metadata>
Created by potrace 1.16, written by Peter Selinger 2001-2019
</metadata>
<g transform="translate(0.000000,192.000000) scale(0.100000,-0.100000)"
fill="#000000" stroke="none">
811 c445 -92 729 -532 635 -987 -62 -301 -295 -546 -601 -630 -91 -26 -329
-26 -420 0 -291 80 -516 305 -596 596 -26 91 -26 329 0 420 120 433 542 692
982 601z"/>
<path d="M680 1351 c-5 -11 -10 -36 -10 -55 0 -38 -15 -48 -25 -17 -12 38 -59
36 -69 -2 -12 -45 -6 -115 12 -137 22 -28 51 -18 59 21 8 41 23 36 23 -7 0
-77 -12 -74 289 -74 299 0 281 -5 281 71 0 21 5 39 10 39 7 0 10 -24 8 -62
l-3 -62 -155 -39 c-85 -21 -160 -43 -167 -49 -7 -6 -13 -28 -13 -49 0 -26 -4
-39 -14 -39 -27 0 -35 -28 -42 -146 -7 -116 -6 -120 17 -147 17 -20 37 -30 66
-34 37 -5 45 -2 73 25 29 29 30 34 29 114 0 46 -4 106 -7 133 -6 42 -11 51
-30 53 -15 2 -22 9 -20 19 2 12 47 28 166 58 91 23 168 48 173 56 5 8 9 58 9
111 0 110 -9 128 -66 128 -33 0 -34 1 -34 43 0 24 -5 48 -12 55 -9 9 -84 12
-275 12 -249 0 -263 -1 -273 -19z"/>
</g>
</svg>
