<?xml version="1.0" standalone="no"?>
<!DOCTYPE svg PUBLIC "-//W3C//DTD SVG 20010904//EN"
 "http://www.w3.org/TR/2001/REC-SVG-20010904/DTD/svg10.dtd">
<svg version="1.0" xmlns="http://www.w3.org/2000/svg"
 width="192.000000pt" height="192.000000pt" viewBox="0 0 192.000000 192.000000"
 preserveAspectRatio="xMidYMid meet">
<metadata>
Created by potrace 1.16, written by Peter Selinger 2001-2019
</metadata>
<g transform="translate(0.000000,192.000000) scale(0.100000,-0.100000)"
fill="#000000" stroke="none">
811 c445 -92 729 -532 635 -987 -62 -301 -295 -546 -601 -630 -91 -26 -329
-26 -420 0 -291 80 -516 305 -596 596 -26 91 -26 329 0 420 120 433 542 692
982 601z"/>
<path d="M577 1343 c-14 -14 -6 -53 13 -63 28 -15 65 22 50 50 -10 19 -49 27
-63 13z"/>
<path d="M677 1344 c-14 -14 -7 -53 12 -63 26 -14 54 8 49 40 -2 17 -10 25
-28 27 -14 2 -29 0 -33 -4z"/>
<path d="M1177 1343 c-14 -14 -6 -53 13 -63 15 -8 24 -6 40 10 16 16 18 25 10
40 -10 19 -49 27 -63 13z"/>
<path d="M1277 1343 c-14 -14 -6 -53 13 -63 28 -15 65 22 50 50 -10 19 -49 27
-63 13z"/>
<path d="M574 1236 c-10 -27 1 -51 26 -54 31 -5 53 23 39 49 -12 22 -57 25
-65 5z"/>
<path d="M674 1236 c-12 -31 0 -51 31 -51 27 0 30 3 30 30 0 25 -4 30 -28 33
-17 2 -29 -2 -33 -12z"/>
<path d="M774 1236 c-10 -27 1 -51 26 -54 31 -5 53 23 39 49 -12 22 -57 25
-65 5z"/>
<path d="M1174 1236 c-10 -27 1 -51 26 -54 31 -5 53 23 39 49 -12 22 -57 25
-65 5z"/>
<path d="M1274 1236 c-10 -27 1 -51 26 -54 31 -5 53 23 39 49 -12 22 -57 25
-65 5z"/>
<path d="M577 1143 c-14 -14 -6 -53 13 -63 28 -15 65 22 50 50 -10 19 -49 27
-63 13z"/>
<path d="M677 1144 c-14 -14 -7 -53 12 -63 26 -14 54 8 49 40 -2 17 -10 25
-28 27 -14 2 -29 0 -33 -4z"/>
<path d="M777 1143 c-14 -14 -6 -53 13 -63 15 -8 24 -6 40 10 16 16 18 25 10
40 -10 19 -49 27 -63 13z"/>
<path d="M877 1143 c-14 -14 -6 -53 13 -63 15 -8 24 -6 40 10 16 16 18 25 10
40 -10 19 -49 27 -63 13z"/>
<path d="M1177 1143 c-14 -14 -6 -53 13 -63 15 -8 24 -6 40 10 16 16 18 25 10
40 -10 19 -49 27 -63 13z"/>
<path d="M1277 1143 c-14 -14 -6 -53 13 -63 28 -15 65 22 50 50 -10 19 -49 27
-63 13z"/>
<path d="M577 1043 c-14 -14 -6 -53 13 -63 28 -15 65 22 50 50 -10 19 -49 27
-63 13z"/>
<path d="M677 1044 c-14 -14 -7 -53 12 -63 26 -14 54 8 49 40 -2 17 -10 25
-28 27 -14 2 -29 0 -33 -4z"/>
<path d="M877 1043 c-14 -14 -6 -53 13 -63 15 -8 24 -6 40 10 16 16 18 25 10
40 -10 19 -49 27 -63 13z"/>
<path d="M977 1043 c-14 -14 -6 -53 13 -63 15 -8 24 -6 40 10 16 16 18 25 10
40 -10 19 -49 27 -63 13z"/>
<path d="M1177 1043 c-14 -14 -6 -53 13 -63 15 -8 24 -6 40 10 16 16 18 25 10
40 -10 19 -49 27 -63 13z"/>
<path d="M1277 1043 c-14 -14 -6 -53 13 -63 28 -15 65 22 50 50 -10 19 -49 27
-63 13z"/>
<path d="M577 943 c-14 -14 -6 -53 13 -63 28 -15 65 22 50 50 -10 19 -49 27
-63 13z"/>
<path d="M677 944 c-14 -14 -7 -53 12 -63 26 -14 54 8 49 40 -2 17 -10 25 -28
27 -14 2 -29 0 -33 -4z"/>
<path d="M977 943 c-14 -14 -6 -53 13 -63 15 -8 24 -6 40 10 16 16 18 25 10
40 -10 19 -49 27 -63 13z"/>
<path d="M1077 943 c-14 -14 -6 -53 13 -63 15 -8 24 -6 40 10 16 16 18 25 10
40 -10 19 -49 27 -63 13z"/>
<path d="M1177 943 c-14 -14 -6 -53 13 -63 15 -8 24 -6 40 10 16 16 18 25 10
40 -10 19 -49 27 -63 13z"/>
<path d="M1277 943 c-14 -14 -6 -53 13 -63 28 -15 65 22 50 50 -10 19 -49 27
-63 13z"/>
<path d="M577 843 c-14 -14 -6 -53 13 -63 28 -15 65 22 50 50 -10 19 -49 27
-63 13z"/>
<path d="M677 844 c-14 -14 -7 -53 12 -63 26 -14 54 8 49 40 -2 17 -10 25 -28
27 -14 2 -29 0 -33 -4z"/>
<path d="M1077 843 c-14 -14 -6 -53 13 -63 15 -8 24 -6 40 10 16 16 18 25 10
40 -10 19 -49 27 -63 13z"/>
<path d="M1177 843 c-14 -14 -6 -53 13 -63 15 -8 24 -6 40 10 16 16 18 25 10
40 -10 19 -49 27 -63 13z"/>
<path d="M1277 843 c-14 -14 -6 -53 13 -63 28 -15 65 22 50 50 -10 19 -49 27
-63 13z"/>
<path d="M577 743 c-14 -14 -6 -53 13 -63 28 -15 65 22 50 50 -10 19 -49 27
-63 13z"/>
<path d="M677 744 c-14 -14 -7 -53 12 -63 26 -14 54 8 49 40 -2 17 -10 25 -28
27 -14 2 -29 0 -33 -4z"/>
<path d="M1177 743 c-14 -14 -6 -53 13 -63 15 -8 24 -6 40 10 16 16 18 25 10
40 -10 19 -49 27 -63 13z"/>
<path d="M1277 743 c-14 -14 -6 -53 13 -63 28 -15 65 22 50 50 -10 19 -49 27
-63 13z"/>
<path d="M577 643 c-14 -14 -6 -53 13 -63 28 -15 65 22 50 50 -10 19 -49 27
-63 13z"/>
<path d="M677 644 c-14 -14 -7 -53 12 -63 26 -14 54 8 49 40 -2 17 -10 25 -28
27 -14 2 -29 0 -33 -4z"/>
<path d="M1177 643 c-14 -14 -6 -53 13 -63 28 -15 65 22 50 50 -10 19 -49 27
-63 13z"/>
<path d="M1277 643 c-14 -14 -6 -53 13 -63 28 -15 65 22 50 50 -10 19 -49 27
-63 13z"/>
</g>
</svg>
