<?xml version="1.0" standalone="no"?>
<!DOCTYPE svg PUBLIC "-//W3C//DTD SVG 20010904//EN"
 "http://www.w3.org/TR/2001/REC-SVG-20010904/DTD/svg10.dtd">
<svg version="1.0" xmlns="http://www.w3.org/2000/svg"
 width="192.000000pt" height="192.000000pt" viewBox="0 0 192.000000 192.000000"
 preserveAspectRatio="xMidYMid meet">
<metadata>
Created by potrace 1.16, written by Peter Selinger 2001-2019
</metadata>
<g transform="translate(0.000000,192.000000) scale(0.100000,-0.100000)"
fill="#000000" stroke="none">
811 c445 -92 729 -532 635 -987 -62 -301 -295 -546 -601 -630 -91 -26 -329
-26 -420 0 -291 80 -516 305 -596 596 -26 91 -26 329 0 420 120 433 542 692
982 601z"/>
<path d="M605 1315 c-47 -47 -38 -66 110 -215 l136 -137 -136 -129 c-126 -120
-135 -132 -135 -166 0 -28 6 -42 26 -57 26 -20 38 -21 345 -21 212 0 326 4
342 11 30 14 50 54 41 83 -3 11 -65 81 -137 153 l-131 133 132 133 c144 146
154 166 107 212 l-24 25 -326 0 -326 0 -24 -25z m413 -181 l-56 -57 -56 48
c-31 27 -56 52 -56 57 0 4 51 8 112 8 l113 0 -57 -56z m-2 -325 c30 -29 54
-56 54 -60 0 -5 -53 -9 -117 -9 l-117 0 59 60 c33 33 61 60 63 60 2 0 28 -23
58 -51z"/>
</g>
</svg>
