<?xml version="1.0" standalone="no"?>
<!DOCTYPE svg PUBLIC "-//W3C//DTD SVG 20010904//EN"
 "http://www.w3.org/TR/2001/REC-SVG-20010904/DTD/svg10.dtd">
<svg version="1.0" xmlns="http://www.w3.org/2000/svg"
 width="192.000000pt" height="192.000000pt" viewBox="0 0 192.000000 192.000000"
 preserveAspectRatio="xMidYMid meet">
<metadata>
Created by potrace 1.16, written by Peter Selinger 2001-2019
</metadata>
<g transform="translate(0.000000,192.000000) scale(0.100000,-0.100000)"
fill="#000000" stroke="none">
811 c445 -92 729 -532 635 -987 -62 -301 -295 -546 -601 -630 -91 -26 -329
-26 -420 0 -291 80 -516 305 -596 596 -26 91 -26 329 0 420 120 433 542 692
982 601z"/>
<path d="M755 1351 c-112 -51 -186 -202 -186 -381 0 -191 69 -333 187 -391 51
-24 118 -23 170 2 27 14 33 13 69 -3 226 -101 425 243 326 562 -56 178 -194
269 -329 215 -34 -14 -42 -14 -75 0 -48 20 -113 19 -162 -4z m123 -69 c10 -7
6 -19 -14 -56 -40 -71 -55 -130 -40 -151 7 -10 22 -15 36 -13 18 2 29 17 51
72 70 174 194 206 289 75 29 -41 60 -123 60 -162 0 -17 -5 -15 -35 12 -30 26
-39 29 -56 20 -16 -8 -20 -18 -17 -40 4 -24 1 -29 -17 -29 -19 0 -23 7 -29 48
-9 67 -34 137 -56 157 -14 13 -23 14 -39 5 -26 -13 -26 -28 -1 -108 34 -108
41 -102 -114 -102 l-135 0 2 26 c1 17 -6 31 -20 41 -19 13 -24 12 -59 -19
l-37 -33 7 40 c10 51 40 120 71 160 38 51 116 80 153 57z m-69 -417 c14 -80
43 -150 67 -159 11 -4 25 0 37 13 19 19 19 19 -1 74 -12 30 -22 72 -24 93 l-3
39 136 3 136 3 -1 -38 c-1 -33 2 -38 23 -41 15 -3 33 6 52 24 27 25 29 26 29
8 0 -11 -7 -43 -17 -70 -36 -109 -97 -169 -170 -169 -54 0 -60 7 -33 45 12 17
30 54 40 82 22 63 13 91 -28 86 -22 -2 -30 -12 -46 -56 -24 -69 -86 -138 -136
-153 -33 -10 -44 -9 -83 10 -54 26 -92 78 -118 161 -25 82 -24 89 9 57 15 -15
38 -27 50 -27 26 0 43 29 35 58 -4 17 -1 22 15 22 17 0 22 -10 31 -65z"/>
</g>
</svg>
