<?xml version="1.0" standalone="no"?>
<!DOCTYPE svg PUBLIC "-//W3C//DTD SVG 20010904//EN"
 "http://www.w3.org/TR/2001/REC-SVG-20010904/DTD/svg10.dtd">
<svg version="1.0" xmlns="http://www.w3.org/2000/svg"
 width="192.000000pt" height="192.000000pt" viewBox="0 0 192.000000 192.000000"
 preserveAspectRatio="xMidYMid meet">
<metadata>
Created by potrace 1.16, written by Peter Selinger 2001-2019
</metadata>
<g transform="translate(0.000000,192.000000) scale(0.100000,-0.100000)"
fill="#000000" stroke="none">
811 c445 -92 729 -532 635 -987 -62 -301 -295 -546 -601 -630 -91 -26 -329
-26 -420 0 -291 80 -516 305 -596 596 -26 91 -26 329 0 420 120 433 542 692
982 601z"/>
<path d="M1055 1344 c-46 -23 -83 -63 -96 -102 -11 -32 -8 -98 6 -134 5 -13
-1 -14 -45 -7 -83 13 -121 29 -167 72 -47 43 -54 42 -72 -12 -28 -84 -4 -209
55 -287 19 -25 34 -48 31 -50 -2 -2 -23 3 -47 11 -23 8 -64 15 -91 15 -59 0
-79 -23 -79 -89 0 -60 34 -126 83 -162 63 -46 128 -37 178 26 16 19 19 19 65
5 30 -9 88 -15 149 -15 89 0 106 3 151 27 125 66 192 195 181 352 -3 44 -13
102 -22 129 -16 44 -16 50 -1 88 19 46 15 59 -20 59 -13 0 -41 15 -61 34 -21
18 -48 38 -60 45 -31 16 -103 14 -138 -5z"/>
</g>
</svg>
