<?xml version="1.0" standalone="no"?>
<!DOCTYPE svg PUBLIC "-//W3C//DTD SVG 20010904//EN"
 "http://www.w3.org/TR/2001/REC-SVG-20010904/DTD/svg10.dtd">
<svg version="1.0" xmlns="http://www.w3.org/2000/svg"
 width="192.000000pt" height="192.000000pt" viewBox="0 0 192.000000 192.000000"
 preserveAspectRatio="xMidYMid meet">
<metadata>
Created by potrace 1.16, written by Peter Selinger 2001-2019
</metadata>
<g transform="translate(0.000000,192.000000) scale(0.100000,-0.100000)"
fill="#000000" stroke="none">
811 c445 -92 729 -532 635 -987 -62 -301 -295 -546 -601 -630 -91 -26 -329
-26 -420 0 -291 80 -516 305 -596 596 -26 91 -26 329 0 420 120 433 542 692
982 601z"/>
<path d="M1055 1346 c-75 -32 -118 -123 -96 -203 6 -21 11 -41 11 -44 0 -8
-92 7 -138 22 -19 6 -55 30 -79 52 -47 43 -54 42 -72 -12 -27 -81 1 -221 59
-293 18 -22 30 -41 28 -44 -3 -2 -24 3 -48 11 -54 19 -120 19 -146 1 -15 -12
-19 -27 -19 -78 0 -54 5 -72 28 -107 49 -74 121 -100 187 -66 16 8 34 24 40
35 13 24 31 25 90 4 73 -26 188 -21 257 11 76 34 135 93 170 169 24 53 28 73
28 156 0 64 -6 115 -18 155 -18 57 -18 64 -3 99 18 44 14 56 -20 56 -13 0 -41
15 -61 34 -21 18 -48 38 -60 45 -29 15 -101 13 -138 -3z m-291 -247 c43 -25
113 -44 198 -54 55 -7 68 -12 100 -45 32 -31 38 -44 38 -79 0 -78 -56 -141
-125 -141 -86 0 -211 106 -240 203 -14 47 -21 137 -11 137 3 0 21 -9 40 -21z"/>
</g>
</svg>
