<?xml version="1.0" standalone="no"?>
<!DOCTYPE svg PUBLIC "-//W3C//DTD SVG 20010904//EN"
 "http://www.w3.org/TR/2001/REC-SVG-20010904/DTD/svg10.dtd">
<svg version="1.0" xmlns="http://www.w3.org/2000/svg"
 width="192.000000pt" height="192.000000pt" viewBox="0 0 192.000000 192.000000"
 preserveAspectRatio="xMidYMid meet">
<metadata>
Created by potrace 1.16, written by Peter Selinger 2001-2019
</metadata>
<g transform="translate(0.000000,192.000000) scale(0.100000,-0.100000)"
fill="#000000" stroke="none">
811 c445 -92 729 -532 635 -987 -62 -301 -295 -546 -601 -630 -91 -26 -329
-26 -420 0 -291 80 -516 305 -596 596 -26 91 -26 329 0 420 120 433 542 692
982 601z"/>
<path d="M1055 1346 c-40 -17 -91 -77 -100 -116 -9 -41 3 -120 18 -125 7 -2
24 -6 39 -9 37 -8 98 -63 114 -103 28 -66 7 -171 -42 -215 -30 -26 -89 -48
-131 -48 -41 0 -136 40 -168 70 -29 28 -100 50 -156 50 -58 0 -79 -23 -79 -88
0 -160 165 -253 257 -144 l21 25 64 -18 c82 -24 178 -24 248 0 41 14 70 34
117 80 53 53 64 71 84 134 18 60 21 88 16 155 -3 44 -13 103 -22 129 -16 45
-16 52 -1 89 8 22 13 44 11 48 -3 4 -20 11 -38 14 -19 3 -45 18 -58 32 -50 53
-127 69 -194 40z"/>
<path d="M704 1114 c-21 -115 49 -255 156 -309 72 -37 108 -40 160 -13 118 60
93 242 -36 263 -123 20 -185 38 -223 66 -23 16 -43 29 -45 29 -3 0 -8 -16 -12
-36z"/>
</g>
</svg>
