<?xml version="1.0" standalone="no"?>
<!DOCTYPE svg PUBLIC "-//W3C//DTD SVG 20010904//EN"
 "http://www.w3.org/TR/2001/REC-SVG-20010904/DTD/svg10.dtd">
<svg version="1.0" xmlns="http://www.w3.org/2000/svg"
 width="192.000000pt" height="192.000000pt" viewBox="0 0 192.000000 192.000000"
 preserveAspectRatio="xMidYMid meet">
<metadata>
Created by potrace 1.16, written by Peter Selinger 2001-2019
</metadata>
<g transform="translate(0.000000,192.000000) scale(0.100000,-0.100000)"
fill="#000000" stroke="none">
811 c445 -92 729 -532 635 -987 -62 -301 -295 -546 -601 -630 -91 -26 -329
-26 -420 0 -291 80 -516 305 -596 596 -26 91 -26 329 0 420 120 433 542 692
982 601z"/>
<path d="M716 1325 c-57 -20 -87 -46 -113 -95 -22 -41 -23 -53 -23 -259 0
-238 6 -267 66 -323 48 -44 72 -48 310 -48 251 0 269 4 321 63 50 57 55 89 51
328 l-3 216 -28 41 c-15 23 -46 52 -70 64 -39 22 -55 23 -257 25 -167 2 -224
0 -254 -12z m308 -191 c13 -5 16 -22 16 -85 l0 -79 30 0 c56 0 49 -27 -27
-101 -39 -38 -78 -69 -88 -69 -10 0 -49 31 -88 69 -76 74 -83 101 -27 101 l30
0 0 79 c0 54 4 81 13 84 18 8 123 8 141 1z"/>
</g>
</svg>
