<?xml version="1.0" standalone="no"?>
<!DOCTYPE svg PUBLIC "-//W3C//DTD SVG 20010904//EN"
 "http://www.w3.org/TR/2001/REC-SVG-20010904/DTD/svg10.dtd">
<svg version="1.0" xmlns="http://www.w3.org/2000/svg"
 width="192.000000pt" height="192.000000pt" viewBox="0 0 192.000000 192.000000"
 preserveAspectRatio="xMidYMid meet">
<metadata>
Created by potrace 1.16, written by Peter Selinger 2001-2019
</metadata>
<g transform="translate(0.000000,192.000000) scale(0.100000,-0.100000)"
fill="#000000" stroke="none">
811 c445 -92 729 -532 635 -987 -62 -301 -295 -546 -601 -630 -91 -26 -329
-26 -420 0 -291 80 -516 305 -596 596 -26 91 -26 329 0 420 120 433 542 692
982 601z"/>
<path d="M800 1281 c-80 -44 -145 -85 -145 -91 0 -7 72 -55 160 -106 88 -51
163 -101 167 -111 8 -23 10 -215 2 -265 -6 -31 -11 -38 -30 -38 -23 0 -23 1
-26 141 l-3 140 -144 85 c-80 46 -148 84 -153 84 -4 0 -8 -78 -8 -174 0 -143
3 -176 15 -186 17 -14 315 -190 322 -190 10 0 329 193 335 203 12 19 10 335
-2 342 -6 4 -51 -19 -100 -50 -90 -57 -122 -65 -128 -33 -2 13 26 36 98 83 56
36 100 71 98 77 -5 13 -284 168 -302 168 -6 0 -76 -36 -156 -79z"/>
</g>
</svg>
