<?xml version="1.0" standalone="no"?>
<!DOCTYPE svg PUBLIC "-//W3C//DTD SVG 20010904//EN"
 "http://www.w3.org/TR/2001/REC-SVG-20010904/DTD/svg10.dtd">
<svg version="1.0" xmlns="http://www.w3.org/2000/svg"
 width="900.000000pt" height="500.000000pt" viewBox="0 0 900.000000 500.000000"
 preserveAspectRatio="xMidYMid meet">
<metadata>
Created by potrace 1.16, written by Peter Selinger 2001-2019
</metadata>
<g transform="translate(0.000000,500.000000) scale(0.100000,-0.100000)"
fill="#000000" stroke="none">
-33 24 -69 29 -80 5 -11 20 -54 34 -95 25 -78 174 -510 221 -640 14 -41 39
-113 55 -160 45 -132 207 -601 305 -880 21 -58 61 -175 90 -260 30 -85 81
-234 115 -330 34 -96 74 -213 90 -260 16 -47 52 -150 80 -230 119 -342 122
-354 100 -376 -6 -6 -6 -15 0 -24 8 -12 10 -10 10 8 0 12 3 22 8 22 12 0 45
-89 38 -106 -3 -8 -2 -12 4 -9 6 3 10 0 11 -7 0 -7 3 -22 6 -33 2 -11 5 -28 6
-37 1 -9 5 -14 10 -11 5 3 7 0 5 -8 -3 -8 -11 -13 -17 -11 -7 1 -9 -2 -6 -8 4
-6 13 -9 20 -6 17 6 59 -107 50 -135 -5 -13 -3 -19 3 -15 12 7 84 -184 86
-229 1 -5 7 -16 14 -24 7 -7 11 -19 8 -27 -3 -7 -1 -14 4 -16 5 -2 16 -28 23
-58 l14 -55 74 -3 c70 -3 73 -2 54 13 -11 9 -13 14 -5 10 9 -4 7 0 -4 9 -10 8
-15 19 -11 25 3 6 1 11 -4 11 -6 0 -10 3 -10 8 5 28 -2 52 -13 46 -8 -5 -7 0
2 11 8 10 10 16 3 11 -9 -5 -15 5 -19 34 -4 22 -11 43 -15 46 -5 3 -7 10 -4
15 4 5 1 9 -5 9 -7 0 -9 7 -6 16 4 10 2 13 -6 8 -8 -5 -9 -2 -5 9 3 10 2 17
-3 17 -5 0 -7 7 -4 15 4 8 2 15 -4 15 -5 0 -12 18 -16 40 -3 22 -11 40 -16 40
-12 0 -9 22 5 32 6 5 3 8 -6 8 -19 0 -45 50 -26 50 6 1 3 8 -9 18 -11 10 -20
28 -19 41 1 12 -4 29 -12 36 -7 7 -10 20 -7 28 3 8 -2 17 -11 21 -13 5 -15 13
-11 34 5 21 4 24 -4 12 -9 -12 -11 -10 -7 12 2 15 0 29 -5 30 -6 2 -12 25 -15
51 -3 25 -9 44 -14 42 -11 -8 -23 15 -25 50 -2 45 -3 47 -15 39 -9 -5 -10 1
-5 20 4 18 3 25 -4 21 -6 -4 -13 6 -16 24 -4 17 -10 31 -14 31 -4 0 -5 11 -2
25 3 16 0 25 -8 25 -7 0 -10 7 -6 16 3 8 2 13 -3 10 -5 -3 -12 11 -16 32 -4
20 -11 43 -17 49 -6 7 -8 20 -4 28 3 8 1 15 -4 15 -6 0 -10 7 -10 15 0 8 -5
15 -11 15 -8 0 -8 4 0 14 8 10 9 16 1 21 -5 3 -10 17 -10 31 0 14 -4 22 -10
19 -10 -6 -11 -1 -15 60 -1 16 -7 31 -14 33 -6 2 -11 12 -11 21 0 10 -3 21 -7
25 -11 11 -12 36 -1 36 6 0 -2 12 -18 27 -18 17 -24 28 -16 31 20 6 13 22 -10
23 -19 0 -20 2 -5 7 16 7 16 9 -3 25 -11 9 -20 26 -20 36 0 11 -5 32 -12 48
-6 15 -10 32 -9 36 1 5 -3 6 -8 3 -14 -9 -24 13 -12 28 7 9 5 16 -9 26 -13 10
-16 17 -9 26 7 8 5 17 -6 28 -11 10 -14 24 -9 38 3 13 3 20 -1 16 -5 -4 -14 5
-22 20 -16 31 -44 142 -36 142 4 0 -2 9 -11 19 -10 11 -15 24 -12 30 3 5 2 11
-4 13 -5 1 -11 15 -12 31 -1 15 -5 27 -8 27 -11 0 -29 62 -23 77 4 10 2 14 -4
10 -7 -5 -9 0 -6 11 2 11 -1 25 -9 33 -7 8 -15 28 -17 44 -1 17 -8 33 -13 36
-6 4 -7 12 -4 18 4 6 2 10 -5 9 -6 -2 -14 3 -17 11 -3 10 0 12 12 8 10 -4 15
-3 11 3 -3 6 -13 10 -21 10 -8 0 -12 5 -9 10 3 6 1 10 -4 10 -15 0 -14 27 2
33 6 3 3 6 -8 6 -17 1 -17 3 -5 11 10 6 11 10 3 10 -7 0 -13 8 -13 18 0 9 -7
30 -15 46 -9 16 -14 35 -11 42 3 7 0 14 -5 16 -5 2 -11 13 -12 26 0 12 -5 22
-10 22 -4 0 -5 5 -1 12 5 8 2 9 -11 4 -15 -5 -16 -4 -6 8 9 11 9 17 -2 27 -8
8 -12 22 -9 33 3 13 1 17 -6 12 -16 -10 -15 7 1 23 10 11 9 13 -1 7 -7 -4 -14
0 -18 11 -3 10 -10 26 -15 36 -6 11 -6 17 2 17 5 0 7 5 4 10 -4 6 -10 8 -14 6
-4 -3 -8 0 -8 7 -1 30 -13 71 -22 76 -5 4 -9 24 -8 46 1 26 -2 40 -11 40 -6 0
-12 2 -11 5 0 3 -4 17 -10 32 -7 19 -7 28 2 32 9 3 8 5 -1 5 -7 1 -10 6 -7 11
3 6 1 10 -4 10 -6 0 -11 6 -11 14 0 8 -6 16 -14 19 -9 4 -12 14 -9 28 4 14 0
25 -10 30 -9 5 -13 17 -10 28 3 10 -3 31 -12 45 -10 14 -14 26 -10 26 4 0 1
10 -7 23 -20 30 -31 77 -18 77 5 0 10 5 10 11 0 6 -7 9 -15 5 -8 -3 -15 -2
-16 2 -3 27 -9 44 -23 58 -18 17 -21 28 -6 19 19 -12 10 14 -12 35 -19 18 -21
22 -8 30 13 9 13 11 0 20 -8 5 -12 10 -7 10 4 0 1 13 -8 29 -10 20 -11 31 -4
33 8 3 6 10 -5 21 -10 9 -18 27 -18 39 -1 13 -10 35 -20 49 -9 14 -15 29 -11
33 3 3 1 6 -5 6 -7 0 -12 7 -12 15 0 8 -5 15 -11 15 -7 0 -9 10 -7 25 3 14 1
25 -3 25 -5 0 -9 16 -9 35 0 19 -4 35 -10 35 -5 0 -7 6 -4 14 3 7 -2 16 -11
20 -10 3 -15 12 -12 20 3 8 -1 22 -8 33 -18 22 -19 37 -3 27 8 -5 9 -2 5 10
-4 10 -7 20 -7 22 0 2 -7 4 -16 4 -10 0 -14 6 -11 14 3 7 -5 35 -19 62 -19 37
-21 50 -12 56 10 6 9 8 -2 8 -15 0 -40 78 -40 123 0 10 -6 20 -13 23 -16 6
-18 34 -3 34 6 0 0 9 -14 20 -14 11 -21 20 -16 20 5 0 3 7 -4 15 -7 9 -14 26
-15 38 -1 12 -7 35 -13 50 -7 16 -12 35 -12 43 0 8 -7 26 -16 39 -9 13 -13 28
-10 34 3 5 1 11 -5 13 -6 2 -11 16 -11 31 0 15 -5 27 -10 27 -6 0 -8 11 -6 25
3 13 1 22 -3 19 -8 -5 -13 18 -6 32 1 3 -5 10 -14 15 -15 8 -35 70 -31 92 1 4
-22 7 -52 7 l-53 0 72 -212z"/>
<path d="M2998 4990 c13 -6 20 -15 16 -21 -4 -8 -1 -8 12 -1 23 12 44 5 44
-14 0 -19 19 -18 26 1 5 11 10 13 19 5 6 -5 15 -7 18 -3 4 3 7 -2 7 -11 0 -12
-5 -16 -14 -13 -11 4 -13 1 -9 -10 5 -12 3 -14 -7 -8 -8 5 -11 4 -7 -2 4 -6
18 -8 32 -6 13 3 22 9 19 14 -3 5 0 17 6 26 9 15 10 12 6 -14 -2 -17 -7 -37
-11 -43 -3 -6 -3 -10 2 -9 21 4 31 -3 36 -21 3 -11 1 -20 -4 -20 -5 0 -9 -5
-9 -10 0 -18 37 12 48 39 10 23 11 23 6 2 -5 -18 -3 -22 7 -17 9 5 9 3 -1 -6
-18 -16 -25 -48 -10 -48 5 0 10 8 10 18 0 14 2 15 10 2 9 -13 10 -13 10 0 0
13 1 13 10 0 15 -23 13 -63 -2 -54 -7 4 -3 -4 10 -18 12 -13 22 -29 22 -36 0
-6 6 -14 13 -18 6 -4 9 -4 5 0 -8 10 14 36 24 29 4 -2 17 1 29 8 17 9 20 8 14
-2 -6 -9 -3 -11 9 -6 10 4 15 3 11 -3 -3 -6 0 -10 7 -10 7 0 5 -5 -6 -11 -15
-9 -16 -13 -5 -20 11 -7 10 -9 -3 -9 -10 0 -18 3 -18 8 0 4 -9 13 -20 19 -17
11 -21 10 -31 -10 -9 -18 -9 -20 1 -10 9 8 19 9 32 2 15 -8 16 -13 7 -32 -12
-22 -12 -22 9 -4 11 11 25 16 31 13 5 -4 13 -1 16 4 5 8 13 6 26 -6 24 -21 24
-40 2 -53 -11 -6 -13 -11 -5 -11 7 0 11 -4 8 -8 -2 -4 0 -14 6 -22 8 -12 9
-12 4 3 -3 11 0 17 9 17 7 0 17 4 20 10 4 6 -1 7 -12 4 -10 -3 -4 3 12 15 32
22 50 27 40 11 -3 -5 -2 -10 4 -10 5 0 15 8 20 18 10 16 10 16 11 -1 0 -19
-41 -503 -60 -702 -6 -60 -26 -294 -45 -520 -19 -225 -42 -484 -50 -575 -8
-91 -24 -271 -35 -400 -19 -227 -29 -333 -50 -565 -5 -60 -17 -193 -25 -295
-15 -183 -50 -586 -80 -915 -63 -706 -60 -655 -38 -655 14 0 18 8 19 38 0 35
7 118 20 242 12 110 14 127 20 215 3 50 10 91 15 93 5 2 4 13 -2 24 -6 11 -7
23 -3 27 9 6 11 19 15 121 1 30 4 59 6 63 3 5 7 46 9 92 1 47 8 94 14 105 6
11 8 25 5 30 -3 5 -1 57 4 117 6 59 13 137 16 173 3 36 8 83 11 105 3 22 7 63
10 90 2 28 6 70 9 95 7 73 17 203 17 225 1 11 4 54 9 95 4 41 11 126 14 189 3
63 8 117 10 120 1 3 6 51 9 106 4 55 9 111 11 125 3 14 7 70 10 125 7 134 15
242 22 290 2 22 5 47 5 55 0 8 4 56 8 105 5 50 12 122 15 160 3 39 8 90 10
115 3 25 8 81 11 125 3 44 9 82 13 85 3 3 7 32 7 65 2 61 10 165 18 220 2 17
7 64 10 105 6 81 13 120 20 128 3 2 1 13 -5 23 -7 14 -6 19 4 19 9 0 13 10 12
30 -1 19 4 34 14 40 14 8 14 9 -2 10 -15 0 -18 7 -16 43 3 51 9 64 20 46 6
-10 9 -8 9 9 0 16 -4 21 -12 15 -7 -4 -5 6 6 21 13 20 15 31 7 36 -9 5 -7 10
4 20 13 11 15 10 9 -4 -10 -26 2 -19 23 14 14 22 22 27 33 20 13 -8 12 -10 -2
-10 -11 0 -18 -8 -18 -21 0 -11 4 -18 8 -15 4 2 9 -4 9 -15 1 -10 -4 -19 -11
-19 -15 0 -39 -47 -31 -61 3 -5 1 -19 -5 -31 -10 -21 -10 -22 3 -5 11 14 16
15 20 5 3 -7 6 -3 6 10 1 12 5 22 9 22 5 0 9 7 9 15 0 11 -4 12 -14 4 -10 -9
-13 -8 -13 4 0 8 9 17 20 20 11 3 18 1 14 -4 -3 -5 1 -9 8 -9 10 0 10 -2 1 -8
-9 -6 -7 -12 7 -25 21 -18 26 -37 10 -37 -5 0 -10 6 -10 14 0 8 -5 18 -12 22
-6 4 -8 3 -4 -4 3 -6 2 -13 -4 -17 -5 -3 -10 -12 -10 -18 0 -7 4 -6 10 3 6 10
10 11 10 3 0 -23 37 -13 48 13 7 14 8 23 3 20 -5 -3 -14 1 -20 8 -10 12 -8 13
9 9 16 -4 19 -2 14 13 -5 13 -4 16 4 9 18 -17 20 -69 3 -82 -14 -10 -14 -13 2
-30 9 -11 14 -23 10 -26 -10 -10 6 -8 28 4 11 5 17 15 13 21 -4 7 -9 6 -15 -3
-4 -7 -11 -10 -15 -6 -4 4 5 18 21 33 16 15 25 19 22 10 -4 -11 -1 -16 10 -16
13 0 14 -2 2 -17 -12 -15 -12 -16 4 -10 10 4 21 7 23 7 3 0 2 6 -2 13 -6 9 -4
9 7 0 10 -10 10 -16 1 -25 -7 -7 -12 -21 -12 -31 0 -13 -5 -17 -15 -13 -8 3
-15 0 -15 -7 0 -8 -4 -6 -10 3 -8 12 -10 11 -10 -7 0 -24 14 -31 25 -13 3 6
11 10 17 10 7 0 7 -4 -1 -13 -6 -8 -8 -17 -4 -20 3 -4 1 -7 -6 -7 -7 0 -9 -5
-6 -10 5 -8 11 -7 21 1 7 6 11 15 8 20 -3 5 1 9 9 9 8 0 22 10 31 23 16 22 16
22 6 -6 -6 -17 -6 -26 -1 -22 22 13 20 -17 -1 -37 -13 -13 -16 -17 -7 -10 15
11 17 11 15 -5 0 -10 -5 -21 -11 -25 -5 -4 2 -7 18 -6 28 2 36 13 15 21 -7 3
-2 6 11 6 22 1 23 4 18 41 -3 23 -1 40 5 40 5 0 6 -5 2 -12 -4 -6 -3 -8 4 -4
6 3 9 18 6 32 -3 16 -1 23 6 19 5 -3 10 -16 11 -28 1 -15 4 -10 10 13 4 19 6
58 4 85 -3 35 -2 41 3 20 6 -24 13 1 35 120 15 83 27 160 27 170 0 13 -83 103
-223 243 l-222 222 -258 0 c-170 0 -256 -3 -252 -10 3 -5 1 -10 -4 -10 -6 0
-11 4 -11 8 0 4 -9 8 -20 9 -13 1 -18 -2 -13 -10 5 -9 3 -9 -8 -1 -8 6 -30 11
-49 12 -31 1 -32 0 -12 -8z m202 -91 c0 -6 -4 -7 -10 -4 -5 3 -10 11 -10 16 0
6 5 7 10 4 6 -3 10 -11 10 -16z m110 -103 c0 -3 -4 -8 -10 -11 -5 -3 -10 -1
-10 4 0 6 5 11 10 11 6 0 10 -2 10 -4z m4 -42 c11 -28 6 -34 -12 -16 -11 9
-17 20 -15 25 7 12 21 8 27 -9z m186 -105 c0 -15 -18 -19 -23 -6 -3 8 1 14 9
14 8 0 14 -4 14 -8z m225 -229 c3 -5 1 -10 -4 -10 -6 0 -11 5 -11 10 0 6 2 10
4 10 3 0 8 -4 11 -10z m25 -30 c0 -5 -4 -10 -9 -10 -6 0 -13 5 -16 10 -3 6 1
10 9 10 9 0 16 -4 16 -10z m-40 -41 c0 -28 -15 -23 -16 6 -1 14 2 22 7 19 5
-3 9 -14 9 -25z m30 1 c0 -5 -5 -10 -11 -10 -5 0 -7 5 -4 10 3 6 8 10 11 10 2
0 4 -4 4 -10z m30 -140 c0 -5 -4 -10 -10 -10 -5 0 -10 5 -10 10 0 6 5 10 10
10 6 0 10 -4 10 -10z m150 -10 c0 -5 -8 -10 -17 -10 -15 0 -16 2 -3 10 19 12
20 12 20 0z m77 -32 c-3 -7 -5 -2 -5 12 0 14 2 19 5 13 2 -7 2 -19 0 -25z
m-107 -6 c0 -13 -12 -22 -22 -16 -10 6 -1 24 13 24 5 0 9 -4 9 -8z"/>
<path d="M8922 4991 c-11 -7 -10 -9 3 -14 9 -4 14 -3 10 2 -3 5 1 12 7 14 7 3
9 6 3 6 -5 0 -16 -3 -23 -8z"/>
<path d="M3024 4948 c-4 -6 -3 -8 4 -4 6 3 15 -2 21 -11 9 -16 10 -16 11 5 0
23 -24 31 -36 10z"/>
<path d="M8821 4934 c0 -11 3 -14 6 -6 3 7 2 16 -1 19 -3 4 -6 -2 -5 -13z"/>
<path d="M3120 4890 c-9 -6 -10 -10 -3 -10 6 0 15 5 18 10 8 12 4 12 -15 0z"/>
<path d="M8701 4874 c0 -11 3 -14 6 -6 3 7 2 16 -1 19 -3 4 -6 -2 -5 -13z"/>
<path d="M8877 4875 c3 -8 9 -12 14 -9 12 7 11 11 -5 17 -10 4 -13 1 -9 -8z"/>
<path d="M8922 4871 c-11 -7 -11 -9 0 -14 9 -3 15 1 15 9 0 8 -1 14 -1 14 -1
0 -7 -4 -14 -9z"/>
<path d="M8675 4850 c3 -5 8 -10 11 -10 2 0 4 5 4 10 0 6 -5 10 -11 10 -5 0
-7 -4 -4 -10z"/>
<path d="M8625 4839 c-4 -6 -4 -13 -1 -16 3 -4 6 -1 6 6 0 8 6 11 16 7 8 -3
12 -2 9 4 -8 13 -22 13 -30 -1z"/>
<path d="M8802 4810 c7 -11 17 -20 22 -20 4 0 3 6 -3 13 -6 8 -8 17 -4 20 3 4
-1 7 -10 7 -15 0 -15 -3 -5 -20z"/>
<path d="M3161 4704 c0 -11 3 -14 6 -6 3 7 2 16 -1 19 -3 4 -6 -2 -5 -13z"/>
<path d="M3263 4705 c0 -8 4 -15 9 -15 4 0 8 7 8 15 0 8 -4 15 -8 15 -5 0 -9
-7 -9 -15z"/>
<path d="M3360 4712 c0 -5 7 -13 16 -16 10 -4 14 -1 12 6 -5 15 -28 23 -28 10z"/>
<path d="M8625 4710 c-3 -5 -1 -10 4 -10 6 0 11 5 11 10 0 6 -2 10 -4 10 -3 0
-8 -4 -11 -10z"/>
<path d="M8826 4708 c3 -5 10 -6 15 -3 13 9 11 12 -6 12 -8 0 -12 -4 -9 -9z"/>
<path d="M8920 4711 c0 -5 7 -11 15 -15 8 -3 15 -1 15 3 0 5 -7 11 -15 15 -8
3 -15 1 -15 -3z"/>
<path d="M8860 4691 c0 -6 5 -13 10 -16 6 -3 10 1 10 9 0 9 -4 16 -10 16 -5 0
-10 -4 -10 -9z"/>
<path d="M8940 4664 c0 -8 5 -12 10 -9 6 3 10 10 10 16 0 5 -4 9 -10 9 -5 0
-10 -7 -10 -16z"/>
<path d="M3390 4642 c0 -6 9 -12 20 -15 11 -3 20 -3 20 -1 0 2 -9 8 -20 14
-11 6 -20 7 -20 2z"/>
<path d="M3443 4632 c1 -14 5 -18 11 -12 7 7 6 14 -1 21 -9 9 -12 7 -10 -9z"/>
<path d="M8770 4611 c0 -5 5 -13 10 -16 6 -3 10 -2 10 4 0 5 -4 13 -10 16 -5
3 -10 2 -10 -4z"/>
<path d="M3501 4583 c-7 -16 -6 -25 5 -34 12 -10 13 -9 8 5 -7 19 6 21 25 4
10 -9 12 -9 7 -1 -3 6 -2 14 4 18 19 12 10 30 -15 30 -15 0 -28 -8 -34 -22z"/>
<path d="M8598 4593 c7 -3 16 -2 19 1 4 3 -2 6 -13 5 -11 0 -14 -3 -6 -6z"/>
<path d="M8870 4591 c0 -6 4 -13 10 -16 6 -3 7 1 4 9 -7 18 -14 21 -14 7z"/>
<path d="M3417 4565 c3 -8 9 -12 14 -9 12 7 11 11 -5 17 -10 4 -13 1 -9 -8z"/>
<path d="M8570 4560 c0 -5 5 -10 11 -10 5 0 7 5 4 10 -3 6 -8 10 -11 10 -2 0
-4 -4 -4 -10z"/>
<path d="M3443 4523 c-15 -5 -17 -23 -4 -23 5 0 11 7 15 15 3 8 4 15 3 14 -1
0 -8 -3 -14 -6z"/>
<path d="M8410 4501 c0 -10 19 -25 25 -20 1 2 -3 10 -11 17 -8 7 -14 8 -14 3z"/>
<path d="M8972 4364 c10 -10 20 -15 24 -12 3 4 -5 12 -18 18 -22 12 -22 12 -6
-6z"/>
<path d="M3636 4361 c-4 -5 -2 -12 3 -15 5 -4 12 -2 15 3 4 5 2 12 -3 15 -5 4
-12 2 -15 -3z"/>
<path d="M8916 4307 c3 -10 9 -15 12 -12 3 3 0 11 -7 18 -10 9 -11 8 -5 -6z"/>
<path d="M8955 4290 c3 -5 8 -10 11 -10 2 0 4 5 4 10 0 6 -5 10 -11 10 -5 0
-7 -4 -4 -10z"/>
<path d="M8307 4269 c7 -7 15 -10 18 -7 3 3 -2 9 -12 12 -14 6 -15 5 -6 -5z"/>
<path d="M8788 4227 c-3 -15 -2 -27 3 -27 13 0 17 14 9 35 -6 17 -7 16 -12 -8z"/>
<path d="M8660 4225 c7 -9 15 -13 17 -11 7 7 -7 26 -19 26 -6 0 -6 -6 2 -15z"/>
<path d="M8720 4216 c0 -28 14 -35 23 -12 3 8 -1 20 -9 26 -12 10 -14 8 -14
-14z"/>
<path d="M8960 4226 c0 -8 4 -17 9 -20 5 -4 7 3 4 14 -6 23 -13 26 -13 6z"/>
<path d="M8911 4211 c-11 -7 -9 -12 10 -22 21 -11 22 -10 12 3 -7 8 -10 18 -6
21 9 10 1 8 -16 -2z"/>
<path d="M3696 4201 c-4 -5 3 -7 14 -4 23 6 26 13 6 13 -8 0 -17 -4 -20 -9z"/>
<path d="M8386 4193 c-6 -14 -5 -15 5 -6 7 7 10 15 7 18 -3 3 -9 -2 -12 -12z"/>
<path d="M8701 4192 c-1 -8 -6 -10 -13 -6 -10 5 -10 4 -1 -6 15 -16 28 -8 20
12 -4 11 -6 11 -6 0z"/>
<path d="M8957 4169 c4 -13 8 -18 11 -10 2 7 -1 18 -6 23 -8 8 -9 4 -5 -13z"/>
<path d="M8784 4151 c4 -5 0 -12 -6 -14 -8 -3 -6 -6 5 -6 9 -1 17 6 17 14 0 8
-5 15 -11 15 -5 0 -8 -4 -5 -9z"/>
<path d="M8846 4145 c-3 -8 -1 -15 4 -15 6 0 10 7 10 15 0 8 -2 15 -4 15 -2 0
-6 -7 -10 -15z"/>
<path d="M8278 4113 c7 -3 16 -2 19 1 4 3 -2 6 -13 5 -11 0 -14 -3 -6 -6z"/>
<path d="M8915 4110 c-3 -5 -1 -10 4 -10 6 0 11 5 11 10 0 6 -2 10 -4 10 -3 0
-8 -4 -11 -10z"/>
<path d="M3982 4060 c0 -14 2 -19 5 -12 2 6 2 18 0 25 -3 6 -5 1 -5 -13z"/>
<path d="M8565 4050 c3 -5 11 -10 16 -10 6 0 7 5 4 10 -3 6 -11 10 -16 10 -6
0 -7 -4 -4 -10z"/>
<path d="M8860 4050 c0 -5 5 -10 11 -10 5 0 7 5 4 10 -3 6 -8 10 -11 10 -2 0
-4 -4 -4 -10z"/>
<path d="M3801 4031 c-10 -6 -10 -10 -1 -16 13 -8 24 -1 19 14 -3 6 -10 7 -18
2z"/>
<path d="M3971 4014 c0 -11 3 -14 6 -6 3 7 2 16 -1 19 -3 4 -6 -2 -5 -13z"/>
<path d="M3893 3976 c0 -8 6 -12 14 -9 7 3 13 9 13 14 0 5 -6 9 -13 9 -8 0
-14 -6 -14 -14z"/>
<path d="M8610 3980 c-9 -6 -10 -10 -3 -10 6 0 15 5 18 10 8 12 4 12 -15 0z"/>
<path d="M8683 3965 c0 -8 4 -12 9 -9 5 3 6 10 3 15 -9 13 -12 11 -12 -6z"/>
<path d="M8430 3961 c0 -6 4 -13 10 -16 6 -3 7 1 4 9 -7 18 -14 21 -14 7z"/>
<path d="M8356 3941 c-3 -4 6 -8 20 -9 13 -1 24 0 24 2 0 7 -40 14 -44 7z"/>
<path d="M8966 3927 c3 -9 -4 -22 -18 -31 -12 -9 -18 -16 -13 -16 15 1 45 26
45 38 0 6 -4 14 -10 17 -5 3 -7 0 -4 -8z"/>
<path d="M3951 3894 c0 -11 3 -14 6 -6 3 7 2 16 -1 19 -3 4 -6 -2 -5 -13z"/>
<path d="M8837 3870 c3 -11 7 -20 9 -20 2 0 4 9 4 20 0 11 -4 20 -9 20 -5 0
-7 -9 -4 -20z"/>
<path d="M8706 3858 c4 -18 2 -28 -6 -28 -6 0 -9 -4 -5 -10 3 -5 14 -2 25 8
23 19 26 32 6 32 -8 0 -17 6 -20 13 -3 6 -3 0 0 -15z"/>
<path d="M8665 3809 c9 -17 19 -29 22 -26 2 3 0 14 -6 25 -6 11 -7 22 -4 26 3
3 -1 6 -11 6 -15 0 -15 -2 -1 -31z"/>
<path d="M8900 3831 c0 -6 5 -13 10 -16 6 -3 10 1 10 9 0 9 -4 16 -10 16 -5 0
-10 -4 -10 -9z"/>
<path d="M8758 3813 c7 -3 16 -2 19 1 4 3 -2 6 -13 5 -11 0 -14 -3 -6 -6z"/>
<path d="M8806 3805 c-9 -26 -7 -32 5 -12 6 10 9 21 6 23 -2 3 -7 -2 -11 -11z"/>
<path d="M8965 3800 c-6 -18 -9 -19 -23 -8 -15 12 -16 11 -3 -5 13 -17 16 -17
26 -3 9 12 15 13 25 3 11 -9 11 -8 0 8 -8 11 -15 21 -16 23 -1 2 -5 -6 -9 -18z"/>
<path d="M8410 3800 c0 -5 5 -10 11 -10 5 0 7 5 4 10 -3 6 -8 10 -11 10 -2 0
-4 -4 -4 -10z"/>
<path d="M8880 3801 c0 -6 4 -13 10 -16 6 -3 7 1 4 9 -7 18 -14 21 -14 7z"/>
<path d="M8445 3780 c-3 -6 1 -7 9 -4 18 7 21 14 7 14 -6 0 -13 -4 -16 -10z"/>
<path d="M8593 3755 c0 -8 4 -12 9 -9 5 3 6 10 3 15 -9 13 -12 11 -12 -6z"/>
<path d="M8865 3760 c-4 -6 -11 -7 -17 -4 -7 4 -8 2 -4 -4 7 -12 36 -5 36 9 0
12 -7 11 -15 -1z"/>
<path d="M8896 3754 c-20 -19 -20 -25 -2 -18 8 3 17 12 20 20 7 18 1 18 -18
-2z"/>
<path d="M8121 3734 c0 -11 3 -14 6 -6 3 7 2 16 -1 19 -3 4 -6 -2 -5 -13z"/>
<path d="M8801 3706 c-8 -10 -6 -12 9 -11 26 2 34 11 16 18 -8 3 -19 0 -25 -7z"/>
<path d="M8199 3663 c-13 -17 -13 -17 6 -3 11 8 22 16 24 17 2 2 0 3 -6 3 -6
0 -17 -8 -24 -17z"/>
<path d="M8701 3664 c0 -11 3 -14 6 -6 3 7 2 16 -1 19 -3 4 -6 -2 -5 -13z"/>
<path d="M8800 3670 c0 -5 5 -10 10 -10 6 0 10 5 10 10 0 6 -4 10 -10 10 -5 0
-10 -4 -10 -10z"/>
<path d="M8545 3650 c-3 -5 -1 -10 4 -10 6 0 11 5 11 10 0 6 -2 10 -4 10 -3 0
-8 -4 -11 -10z"/>
<path d="M8795 3640 c-3 -5 -1 -10 4 -10 6 0 11 5 11 10 0 6 -2 10 -4 10 -3 0
-8 -4 -11 -10z"/>
<path d="M8836 3637 c3 -10 9 -15 12 -12 3 3 0 11 -7 18 -10 9 -11 8 -5 -6z"/>
<path d="M8460 3599 c0 -5 5 -7 10 -4 6 3 10 8 10 11 0 2 -4 4 -10 4 -5 0 -10
-5 -10 -11z"/>
<path d="M8840 3601 c0 -10 19 -25 25 -20 1 2 -3 10 -11 17 -8 7 -14 8 -14 3z"/>
<path d="M8894 3586 c-3 -8 -4 -23 -1 -33 3 -12 5 -9 6 9 0 14 7 29 14 31 9 4
9 6 -1 6 -7 1 -15 -5 -18 -13z"/>
<path d="M8987 3593 c-10 -9 -9 -23 1 -23 5 0 9 7 9 15 0 17 -1 18 -10 8z"/>
<path d="M8420 3571 c0 -10 19 -25 25 -20 1 2 -3 10 -11 17 -8 7 -14 8 -14 3z"/>
<path d="M8610 3576 c0 -2 7 -7 16 -10 8 -3 12 -2 9 4 -6 10 -25 14 -25 6z"/>
<path d="M8890 3520 c0 -6 5 -20 11 -31 8 -16 13 -18 25 -8 15 13 20 34 5 24
-5 -3 -17 2 -25 11 -9 9 -16 11 -16 4z"/>
<path d="M8820 3501 c0 -10 29 -36 34 -30 1 2 -6 12 -16 22 -10 9 -18 13 -18
8z"/>
<path d="M8787 3453 c-10 -9 -9 -23 1 -23 5 0 9 7 9 15 0 17 -1 18 -10 8z"/>
<path d="M8828 3443 c6 -2 12 -11 12 -19 0 -8 4 -14 9 -14 5 0 7 9 4 20 -3 11
-13 20 -22 19 -10 0 -11 -2 -3 -6z"/>
<path d="M8872 3400 c0 -19 2 -27 5 -17 2 9 2 25 0 35 -3 9 -5 1 -5 -18z"/>
<path d="M8240 3390 c0 -5 5 -10 11 -10 5 0 7 5 4 10 -3 6 -8 10 -11 10 -2 0
-4 -4 -4 -10z"/>
<path d="M8816 3392 c-9 -15 11 -34 30 -29 17 4 17 6 -3 12 -13 4 -20 11 -17
16 3 5 3 9 0 9 -3 0 -7 -4 -10 -8z"/>
<path d="M8696 3371 c-4 -6 -1 -11 6 -12 7 0 4 -4 -7 -9 -16 -7 -17 -9 -3 -9
21 -1 29 11 19 28 -6 9 -11 10 -15 2z"/>
<path d="M8920 3352 c0 -5 7 -9 15 -9 8 0 15 4 15 9 0 4 -7 8 -15 8 -8 0 -15
-4 -15 -8z"/>
<path d="M8616 3335 c4 -8 11 -15 16 -15 6 0 5 6 -2 15 -7 8 -14 15 -16 15 -2
0 -1 -7 2 -15z"/>
<path d="M8505 3330 c-3 -5 -1 -10 4 -10 6 0 11 5 11 10 0 6 -2 10 -4 10 -3 0
-8 -4 -11 -10z"/>
<path d="M8590 3330 c0 -5 5 -10 11 -10 5 0 7 5 4 10 -3 6 -8 10 -11 10 -2 0
-4 -4 -4 -10z"/>
<path d="M8780 3324 c0 -8 5 -12 10 -9 6 4 8 11 5 16 -9 14 -15 11 -15 -7z"/>
<path d="M8881 3314 c0 -11 3 -14 6 -6 3 7 2 16 -1 19 -3 4 -6 -2 -5 -13z"/>
<path d="M8940 3319 c0 -5 9 -9 20 -9 11 0 20 2 20 4 0 2 -9 6 -20 9 -11 3
-20 1 -20 -4z"/>
<path d="M8966 3292 c-2 -4 2 -15 9 -25 8 -12 15 -14 20 -8 3 6 0 11 -7 11
-11 0 -10 2 0 9 11 7 11 9 -2 14 -8 3 -17 3 -20 -1z"/>
<path d="M8610 3275 c0 -8 2 -15 4 -15 2 0 6 7 10 15 3 8 1 15 -4 15 -6 0 -10
-7 -10 -15z"/>
<path d="M8710 3265 c0 -8 4 -15 10 -15 5 0 7 7 4 15 -4 8 -8 15 -10 15 -2 0
-4 -7 -4 -15z"/>
<path d="M8075 3259 c-4 -6 -5 -12 -2 -15 2 -3 7 2 10 11 7 17 1 20 -8 4z"/>
<path d="M8939 3256 c9 -11 9 -15 -1 -20 -9 -4 -9 -5 1 -3 22 5 24 24 5 31
-14 5 -15 4 -5 -8z"/>
<path d="M8670 3229 c0 -5 5 -7 10 -4 6 3 10 8 10 11 0 2 -4 4 -10 4 -5 0 -10
-5 -10 -11z"/>
<path d="M8758 3233 c7 -3 16 -2 19 1 4 3 -2 6 -13 5 -11 0 -14 -3 -6 -6z"/>
<path d="M8740 3210 c0 -5 5 -10 11 -10 5 0 7 5 4 10 -3 6 -8 10 -11 10 -2 0
-4 -4 -4 -10z"/>
<path d="M8770 3206 c0 -19 37 -27 44 -9 3 8 1 11 -4 8 -6 -3 -10 -1 -10 4 0
6 -7 11 -15 11 -8 0 -15 -6 -15 -14z"/>
<path d="M8965 3200 c-3 -5 -2 -10 4 -10 5 0 13 5 16 10 3 6 2 10 -4 10 -5 0
-13 -4 -16 -10z"/>
<path d="M8655 3181 c-3 -5 -1 -12 5 -16 5 -3 10 1 10 9 0 18 -6 21 -15 7z"/>
<path d="M8774 3169 c-3 -6 -2 -15 3 -20 5 -5 9 -1 9 11 0 23 -2 24 -12 9z"/>
<path d="M8920 3170 c-13 -8 -12 -10 3 -10 9 0 17 5 17 10 0 12 -1 12 -20 0z"/>
<path d="M8875 3160 c-3 -5 0 -10 9 -10 8 0 17 -6 19 -12 4 -8 6 -9 6 -2 1 18
-26 37 -34 24z"/>
<path d="M8928 3124 c-8 -7 2 -44 12 -44 4 0 5 11 2 25 -5 27 -6 28 -14 19z"/>
<path d="M8975 3120 c-3 -5 -1 -10 4 -10 6 0 11 5 11 10 0 6 -2 10 -4 10 -3 0
-8 -4 -11 -10z"/>
<path d="M8983 3075 c0 -8 4 -15 9 -15 4 0 8 4 8 9 0 6 -4 12 -8 15 -5 3 -9
-1 -9 -9z"/>
<path d="M8908 3073 c6 -2 9 -10 6 -15 -4 -7 -2 -8 5 -4 13 9 5 26 -12 25 -9
0 -8 -2 1 -6z"/>
<path d="M8688 3063 c7 -3 16 -2 19 1 4 3 -2 6 -13 5 -11 0 -14 -3 -6 -6z"/>
<path d="M8840 3050 c0 -5 5 -10 10 -10 6 0 10 5 10 10 0 6 -4 10 -10 10 -5 0
-10 -4 -10 -10z"/>
<path d="M8940 3039 c0 -5 5 -7 10 -4 6 3 10 8 10 11 0 2 -4 4 -10 4 -5 0 -10
-5 -10 -11z"/>
<path d="M8888 3023 c-11 -15 -11 -16 4 -10 9 3 19 1 21 -6 2 -7 8 -9 12 -5 4
4 1 14 -8 22 -13 14 -16 14 -29 -1z"/>
<path d="M8470 3011 c0 -5 7 -11 15 -15 8 -3 15 -1 15 3 0 5 -7 11 -15 15 -8
3 -15 1 -15 -3z"/>
<path d="M8960 2993 c0 -5 4 -14 9 -21 6 -10 10 -9 14 7 3 14 0 21 -9 21 -8 0
-14 -3 -14 -7z"/>
<path d="M8910 2980 c0 -6 7 -10 15 -10 8 0 15 2 15 4 0 2 -7 6 -15 10 -8 3
-15 1 -15 -4z"/>
<path d="M8520 2976 c0 -9 30 -14 35 -6 4 6 -3 10 -14 10 -12 0 -21 -2 -21 -4z"/>
<path d="M8847 2955 c3 -8 9 -12 14 -9 12 7 11 11 -5 17 -10 4 -13 1 -9 -8z"/>
<path d="M8751 2943 c-1 -16 5 -23 17 -23 10 0 13 3 6 8 -6 4 -14 14 -17 22
-4 10 -6 8 -6 -7z"/>
<path d="M8533 2941 c4 -18 27 -27 27 -11 0 6 -4 9 -9 6 -5 -4 -12 0 -15 6 -4
9 -5 8 -3 -1z"/>
<path d="M8830 2915 c0 -14 4 -25 9 -25 4 0 6 11 3 25 -2 14 -6 25 -8 25 -2 0
-4 -11 -4 -25z"/>
<path d="M8546 2898 c3 -5 10 -6 15 -3 13 9 11 12 -6 12 -8 0 -12 -4 -9 -9z"/>
<path d="M8940 2900 c-9 -6 -10 -10 -3 -10 6 0 15 5 18 10 8 12 4 12 -15 0z"/>
<path d="M8522 2886 c7 -8 15 -12 17 -11 5 6 -10 25 -20 25 -5 0 -4 -6 3 -14z"/>
<path d="M8586 2875 c-3 -8 0 -17 6 -21 6 -4 8 -3 4 4 -3 5 -1 12 6 14 8 3 9
6 1 11 -6 4 -13 0 -17 -8z"/>
<path d="M8784 2871 c4 -5 0 -12 -6 -14 -7 -3 -2 -6 11 -6 20 -1 21 1 11 14
-14 16 -25 21 -16 6z"/>
<path d="M8823 2861 c0 -11 5 -18 9 -15 4 3 5 11 1 19 -7 21 -12 19 -10 -4z"/>
<path d="M8547 2863 c-4 -3 -7 -13 -7 -22 1 -13 3 -13 11 2 11 19 8 33 -4 20z"/>
<path d="M8874 2859 c-3 -6 -1 -16 5 -22 8 -8 11 -5 11 11 0 24 -5 28 -16 11z"/>
<path d="M8960 2861 c0 -5 5 -13 10 -16 6 -3 10 -2 10 4 0 5 -4 13 -10 16 -5
3 -10 2 -10 -4z"/>
<path d="M8335 2840 c3 -5 8 -10 11 -10 2 0 4 5 4 10 0 6 -5 10 -11 10 -5 0
-7 -4 -4 -10z"/>
<path d="M8785 2804 c0 -29 1 -29 14 -5 8 14 7 20 -2 24 -7 3 -12 -5 -12 -19z"/>
<path d="M7975 2810 c3 -5 8 -10 11 -10 2 0 4 5 4 10 0 6 -5 10 -11 10 -5 0
-7 -4 -4 -10z"/>
<path d="M8691 2804 c0 -11 3 -14 6 -6 3 7 2 16 -1 19 -3 4 -6 -2 -5 -13z"/>
<path d="M8560 2800 c0 -6 7 -10 15 -10 8 0 15 2 15 4 0 2 -7 6 -15 10 -8 3
-15 1 -15 -4z"/>
<path d="M8610 2791 c0 -5 11 -8 25 -8 13 0 22 3 19 8 -3 5 -14 9 -25 9 -10 0
-19 -4 -19 -9z"/>
<path d="M8401 2781 c-8 -5 -9 -11 -3 -15 5 -3 12 1 16 9 6 17 6 18 -13 6z"/>
<path d="M8488 2783 c7 -3 16 -2 19 1 4 3 -2 6 -13 5 -11 0 -14 -3 -6 -6z"/>
<path d="M8883 2783 c9 -2 23 -2 30 0 6 3 -1 5 -18 5 -16 0 -22 -2 -12 -5z"/>
<path d="M8681 2766 c-9 -11 -9 -16 0 -22 7 -4 9 -3 5 4 -3 5 0 12 6 15 7 2
10 7 7 11 -3 4 -12 0 -18 -8z"/>
<path d="M8955 2768 c-4 -10 -4 -22 0 -28 4 -6 -1 -18 -11 -25 -11 -8 -14 -15
-8 -15 24 0 47 49 34 71 -7 11 -10 10 -15 -3z"/>
<path d="M8714 2738 l-19 -23 23 19 c12 11 22 21 22 23 0 8 -8 2 -26 -19z"/>
<path d="M8510 2734 c0 -8 5 -12 10 -9 6 4 8 11 5 16 -9 14 -15 11 -15 -7z"/>
<path d="M8798 2743 c7 -3 16 -2 19 1 4 3 -2 6 -13 5 -11 0 -14 -3 -6 -6z"/>
<path d="M8560 2729 c0 -4 7 -9 15 -13 9 -3 15 0 15 8 0 7 -7 13 -15 13 -8 0
-15 -4 -15 -8z"/>
<path d="M8662 2714 c-7 -8 -8 -14 -3 -14 10 0 25 19 20 25 -2 1 -10 -3 -17
-11z"/>
<path d="M8470 2690 c0 -5 5 -10 11 -10 5 0 7 5 4 10 -3 6 -8 10 -11 10 -2 0
-4 -4 -4 -10z"/>
<path d="M8515 2689 c-4 -6 -5 -12 -2 -15 2 -3 7 2 10 11 7 17 1 20 -8 4z"/>
<path d="M8600 2679 c0 -5 5 -7 10 -4 6 3 10 8 10 11 0 2 -4 4 -10 4 -5 0 -10
-5 -10 -11z"/>
<path d="M8835 2680 c-3 -5 -1 -10 4 -10 6 0 11 5 11 10 0 6 -2 10 -4 10 -3 0
-8 -4 -11 -10z"/>
<path d="M8740 2671 c0 -6 5 -13 10 -16 6 -3 10 1 10 9 0 9 -4 16 -10 16 -5 0
-10 -4 -10 -9z"/>
<path d="M8990 2665 c0 -18 -16 -20 -23 -2 -3 7 -6 7 -6 1 -1 -6 7 -18 17 -27
16 -14 17 -13 19 14 1 16 0 29 -2 29 -3 0 -5 -7 -5 -15z"/>
<path d="M8456 2661 c-3 -5 1 -11 9 -15 8 -3 15 -1 15 4 0 13 -18 22 -24 11z"/>
<path d="M8016 2631 c-3 -5 3 -11 15 -14 16 -4 18 -3 8 9 -13 16 -16 17 -23 5z"/>
<path d="M8130 2620 c-9 -6 -10 -10 -3 -10 6 0 15 5 18 10 8 12 4 12 -15 0z"/>
<path d="M8766 2593 c-6 -14 -5 -15 5 -6 7 7 10 15 7 18 -3 3 -9 -2 -12 -12z"/>
<path d="M8410 2585 c-7 -9 -8 -15 -2 -15 5 0 12 7 16 15 3 8 4 15 2 15 -2 0
-9 -7 -16 -15z"/>
<path d="M5988 2546 c-42 -55 -338 -437 -483 -622 -60 -77 -168 -216 -240
-308 -71 -92 -159 -205 -195 -250 -36 -46 -91 -116 -122 -157 -194 -250 -346
-445 -461 -592 -73 -93 -143 -184 -157 -202 -52 -68 -111 -143 -187 -240 -43
-55 -91 -117 -107 -137 l-28 -38 2305 0 2305 0 -14 30 c-9 16 -18 30 -20 30
-3 0 -2 -6 2 -13 3 -6 -120 114 -274 268 -154 153 -278 284 -275 290 4 5 2 6
-2 2 -11 -10 -586 563 -578 576 3 6 2 7 -4 4 -5 -3 -326 311 -714 699 -387
387 -707 704 -711 704 -4 0 -22 -20 -40 -44z"/>
<path d="M8730 2570 c0 -5 5 -10 11 -10 5 0 7 5 4 10 -3 6 -8 10 -11 10 -2 0
-4 -4 -4 -10z"/>
<path d="M8520 2536 c0 -2 7 -7 16 -10 8 -3 12 -2 9 4 -6 10 -25 14 -25 6z"/>
<path d="M8295 2520 c3 -5 8 -10 11 -10 2 0 4 5 4 10 0 6 -5 10 -11 10 -5 0
-7 -4 -4 -10z"/>
<path d="M8690 2505 c-7 -9 -8 -15 -2 -15 5 0 12 7 16 15 3 8 4 15 2 15 -2 0
-9 -7 -16 -15z"/>
<path d="M8633 2503 c-14 -3 -23 -11 -22 -21 0 -11 3 -12 6 -4 2 6 11 12 18
12 8 0 17 5 20 10 3 6 5 9 3 9 -2 -1 -13 -4 -25 -6z"/>
<path d="M8750 2499 c0 -5 5 -7 10 -4 6 3 10 8 10 11 0 2 -4 4 -10 4 -5 0 -10
-5 -10 -11z"/>
<path d="M8575 2480 c-3 -5 1 -10 10 -10 9 0 13 5 10 10 -3 6 -8 10 -10 10 -2
0 -7 -4 -10 -10z"/>
<path d="M7774 2469 c-4 -7 -3 -9 4 -5 5 3 13 0 15 -6 4 -9 6 -10 6 -1 1 17
-16 25 -25 12z"/>
<path d="M8140 2476 c0 -2 7 -7 16 -10 8 -3 12 -2 9 4 -6 10 -25 14 -25 6z"/>
<path d="M8420 2469 c0 -5 5 -7 10 -4 6 3 10 8 10 11 0 2 -4 4 -10 4 -5 0 -10
-5 -10 -11z"/>
<path d="M8795 2469 c-4 -6 -5 -12 -2 -15 2 -3 7 2 10 11 7 17 1 20 -8 4z"/>
<path d="M8305 2450 c3 -5 8 -10 11 -10 2 0 4 5 4 10 0 6 -5 10 -11 10 -5 0
-7 -4 -4 -10z"/>
<path d="M8914 2430 c0 -13 4 -16 10 -10 7 7 7 13 0 20 -6 6 -10 3 -10 -10z"/>
<path d="M8716 2403 c-6 -14 -5 -15 5 -6 7 7 10 15 7 18 -3 3 -9 -2 -12 -12z"/>
<path d="M8935 2400 c-3 -5 -1 -10 4 -10 6 0 11 5 11 10 0 6 -2 10 -4 10 -3 0
-8 -4 -11 -10z"/>
<path d="M7845 2390 c-3 -5 -1 -10 4 -10 6 0 11 5 11 10 0 6 -2 10 -4 10 -3 0
-8 -4 -11 -10z"/>
<path d="M8595 2370 c3 -5 8 -10 11 -10 2 0 4 5 4 10 0 6 -5 10 -11 10 -5 0
-7 -4 -4 -10z"/>
<path d="M8892 2333 c0 -33 1 -35 9 -15 5 13 5 30 1 39 -6 10 -9 2 -10 -24z"/>
<path d="M8968 2348 c5 -5 16 -8 23 -6 8 3 3 7 -10 11 -17 4 -21 3 -13 -5z"/>
<path d="M8470 2336 c0 -3 9 -10 20 -16 11 -6 20 -8 20 -6 0 3 -9 10 -20 16
-11 6 -20 8 -20 6z"/>
<path d="M8805 2330 c3 -5 1 -10 -5 -10 -6 0 -8 -5 -5 -10 5 -8 11 -7 21 1 19
15 18 29 -2 29 -8 0 -12 -4 -9 -10z"/>
<path d="M8965 2320 c-16 -7 -17 -9 -3 -9 9 -1 20 4 23 9 7 11 7 11 -20 0z"/>
<path d="M8745 2310 c-3 -5 -1 -10 4 -10 6 0 11 5 11 10 0 6 -2 10 -4 10 -3 0
-8 -4 -11 -10z"/>
<path d="M8927 2293 c-10 -9 -9 -23 1 -23 5 0 9 7 9 15 0 17 -1 18 -10 8z"/>
<path d="M8980 2291 c0 -6 4 -13 10 -16 6 -3 7 1 4 9 -7 18 -14 21 -14 7z"/>
<path d="M8240 2281 c0 -6 4 -13 10 -16 6 -3 7 1 4 9 -7 18 -14 21 -14 7z"/>
<path d="M8690 2269 c0 -5 5 -7 10 -4 6 3 10 8 10 11 0 2 -4 4 -10 4 -5 0 -10
-5 -10 -11z"/>
<path d="M8752 2260 c0 -14 2 -19 5 -12 2 6 2 18 0 25 -3 6 -5 1 -5 -13z"/>
<path d="M8950 2270 c0 -6 7 -10 15 -10 8 0 15 2 15 4 0 2 -7 6 -15 10 -8 3
-15 1 -15 -4z"/>
<path d="M8619 2268 c-5 -9 -5 -48 -1 -43 6 6 11 45 5 45 -2 0 -4 -1 -4 -2z"/>
<path d="M8921 2244 c0 -11 3 -14 6 -6 3 7 2 16 -1 19 -3 4 -6 -2 -5 -13z"/>
<path d="M8120 2240 c0 -5 5 -10 11 -10 5 0 7 5 4 10 -3 6 -8 10 -11 10 -2 0
-4 -4 -4 -10z"/>
<path d="M8525 2230 c-3 -5 -1 -10 4 -10 6 0 11 5 11 10 0 6 -2 10 -4 10 -3 0
-8 -4 -11 -10z"/>
<path d="M8551 2216 c-7 -8 -8 -17 -3 -20 6 -3 13 1 16 10 9 23 2 28 -13 10z"/>
<path d="M8703 2223 c9 -2 23 -2 30 0 6 3 -1 5 -18 5 -16 0 -22 -2 -12 -5z"/>
<path d="M8750 2214 c0 -8 5 -12 10 -9 6 4 8 11 5 16 -9 14 -15 11 -15 -7z"/>
<path d="M7926 2202 c-3 -5 1 -9 9 -9 8 0 15 4 15 9 0 4 -4 8 -9 8 -6 0 -12
-4 -15 -8z"/>
<path d="M8101 2194 c0 -11 3 -14 6 -6 3 7 2 16 -1 19 -3 4 -6 -2 -5 -13z"/>
<path d="M8636 2193 c-6 -14 -5 -15 5 -6 7 7 10 15 7 18 -3 3 -9 -2 -12 -12z"/>
<path d="M8820 2204 c0 -3 7 -12 15 -20 13 -13 15 -13 15 -1 0 8 -7 17 -15 21
-8 3 -15 3 -15 0z"/>
<path d="M8928 2203 c-10 -2 -18 -11 -18 -18 0 -17 42 -5 48 13 4 12 0 13 -30
5z"/>
<path d="M8980 2201 c0 -6 4 -13 10 -16 6 -3 7 1 4 9 -7 18 -14 21 -14 7z"/>
<path d="M8746 2176 c3 -9 11 -16 16 -16 13 0 5 23 -10 28 -7 2 -10 -2 -6 -12z"/>
<path d="M8880 2174 c0 -8 5 -12 10 -9 6 3 10 10 10 16 0 5 -4 9 -10 9 -5 0
-10 -7 -10 -16z"/>
<path d="M8003 2165 c-3 -9 -3 -18 -1 -21 3 -3 8 4 11 16 6 23 -1 27 -10 5z"/>
<path d="M8700 2166 c0 -12 -5 -16 -16 -12 -9 3 -25 -1 -37 -9 -12 -8 -16 -15
-10 -15 7 0 15 5 18 10 4 6 15 8 26 5 19 -6 39 19 25 32 -3 4 -6 -2 -6 -11z"/>
<path d="M8940 2164 c-25 -13 -25 -14 -2 -14 12 0 22 6 22 13 0 9 3 8 9 -2 5
-7 14 -10 21 -6 9 6 9 9 -1 16 -17 11 -18 10 -49 -7z"/>
<path d="M8140 2160 c0 -5 5 -10 11 -10 5 0 7 5 4 10 -3 6 -8 10 -11 10 -2 0
-4 -4 -4 -10z"/>
<path d="M7500 2140 c0 -5 5 -10 11 -10 5 0 7 5 4 10 -3 6 -8 10 -11 10 -2 0
-4 -4 -4 -10z"/>
<path d="M8075 2140 c-3 -5 -1 -10 4 -10 6 0 11 5 11 10 0 6 -2 10 -4 10 -3 0
-8 -4 -11 -10z"/>
<path d="M8805 2141 c-3 -5 2 -12 11 -15 8 -3 12 -10 9 -16 -3 -5 -1 -10 4
-10 17 0 13 37 -4 43 -8 4 -17 2 -20 -2z"/>
<path d="M8862 2127 c-8 -10 -6 -13 7 -13 11 0 17 6 14 13 -3 7 -6 13 -8 13
-1 0 -7 -6 -13 -13z"/>
<path d="M8980 2130 c0 -5 5 -10 11 -10 5 0 7 5 4 10 -3 6 -8 10 -11 10 -2 0
-4 -4 -4 -10z"/>
<path d="M8910 2104 c0 -9 -5 -12 -12 -8 -9 5 -9 3 1 -9 16 -20 30 -14 28 13
-2 23 -17 27 -17 4z"/>
<path d="M8540 2089 c0 -5 4 -8 9 -4 5 3 12 1 16 -5 3 -5 13 -10 21 -10 8 0
12 5 9 10 -4 6 -10 8 -15 5 -5 -3 -11 -1 -15 5 -8 13 -25 13 -25 -1z"/>
<path d="M8840 2090 c-9 -6 -10 -10 -3 -10 6 0 15 5 18 10 8 12 4 12 -15 0z"/>
<path d="M8415 2070 c-24 -27 -16 -33 13 -10 12 10 18 21 14 24 -5 3 -17 -3
-27 -14z"/>
<path d="M8717 2083 c-5 -8 9 -53 16 -53 6 0 0 51 -6 57 -3 2 -7 1 -10 -4z"/>
<path d="M8804 2034 c-1 -32 3 -44 13 -44 8 0 11 -5 7 -12 -4 -7 -3 -8 4 -4
11 7 6 36 -7 36 -4 0 -6 13 -3 29 2 16 0 31 -5 34 -4 3 -8 -15 -9 -39z"/>
<path d="M8855 2071 c-3 -5 -1 -12 5 -16 5 -3 10 -13 10 -21 0 -8 -4 -12 -10
-9 -5 3 -10 2 -10 -4 0 -17 14 -20 39 -7 15 9 20 16 12 20 -6 4 -11 4 -11 0 0
-4 -6 1 -14 12 -11 14 -11 21 -3 26 9 6 9 8 0 8 -6 0 -14 -4 -18 -9z"/>
<path d="M8346 2057 c3 -10 9 -15 12 -12 3 3 0 11 -7 18 -10 9 -11 8 -5 -6z"/>
<path d="M8630 2060 c0 -5 5 -10 11 -10 5 0 7 5 4 10 -3 6 -8 10 -11 10 -2 0
-4 -4 -4 -10z"/>
<path d="M8989 2063 c-1 -5 -1 -11 0 -15 0 -5 -11 -8 -27 -8 -16 0 -32 -8 -40
-20 -7 -11 -19 -20 -27 -20 -8 0 -15 -4 -15 -10 0 -6 10 -5 25 2 14 6 25 15
25 20 0 15 29 8 40 -9 10 -16 11 -16 6 -1 -2 9 1 19 9 22 8 3 13 14 12 25 -1
21 -6 28 -8 14z"/>
<path d="M8466 2027 c3 -10 9 -15 12 -12 3 3 0 11 -7 18 -10 9 -11 8 -5 -6z"/>
<path d="M8680 2022 c0 -12 19 -26 26 -19 2 2 -2 10 -11 17 -9 8 -15 8 -15 2z"/>
<path d="M8580 2016 c0 -2 7 -7 16 -10 8 -3 12 -2 9 4 -6 10 -25 14 -25 6z"/>
<path d="M8316 1982 c5 -4 12 -11 15 -15 3 -5 9 -2 12 5 3 9 -3 14 -15 15 -11
1 -16 -1 -12 -5z"/>
<path d="M8851 1974 c0 -11 3 -14 6 -6 3 7 2 16 -1 19 -3 4 -6 -2 -5 -13z"/>
<path d="M8916 1974 c-3 -8 -2 -12 4 -9 6 3 10 0 10 -8 0 -10 7 -13 20 -10 11
3 20 9 20 14 0 5 -7 6 -15 3 -9 -4 -15 0 -15 10 0 20 -16 21 -24 0z"/>
<path d="M8689 1962 c-17 -15 -19 -21 -9 -27 8 -5 11 -4 6 3 -8 13 23 31 43
24 8 -3 11 0 7 7 -10 15 -20 14 -47 -7z"/>
<path d="M8766 1965 c-4 -10 1 -15 16 -15 17 0 18 2 8 15 -7 8 -14 15 -15 15
-2 0 -5 -7 -9 -15z"/>
<path d="M7715 1950 c-3 -5 -1 -10 4 -10 6 0 11 5 11 10 0 6 -2 10 -4 10 -3 0
-8 -4 -11 -10z"/>
<path d="M8645 1950 c3 -5 8 -10 11 -10 2 0 4 5 4 10 0 6 -5 10 -11 10 -5 0
-7 -4 -4 -10z"/>
<path d="M8813 1944 c0 -16 6 -17 25 -5 11 6 9 9 -5 13 -12 3 -20 0 -20 -8z"/>
<path d="M8985 1940 c3 -5 8 -10 11 -10 2 0 4 5 4 10 0 6 -5 10 -11 10 -5 0
-7 -4 -4 -10z"/>
<path d="M8786 1923 c-6 -14 -5 -15 5 -6 7 7 10 15 7 18 -3 3 -9 -2 -12 -12z"/>
<path d="M8702 1910 c-10 -16 -8 -20 9 -25 11 -4 23 -4 26 -1 4 3 -1 6 -10 6
-19 0 -23 16 -5 22 7 3 8 7 2 11 -5 3 -15 -3 -22 -13z"/>
<path d="M8910 1920 c0 -5 5 -10 10 -10 6 0 10 5 10 10 0 6 -4 10 -10 10 -5 0
-10 -4 -10 -10z"/>
<path d="M8160 1911 c0 -6 4 -13 10 -16 6 -3 7 1 4 9 -7 18 -14 21 -14 7z"/>
<path d="M8571 1899 c-1 -16 4 -26 14 -26 9 0 11 4 6 11 -4 6 -11 18 -14 26
-3 9 -6 5 -6 -11z"/>
<path d="M8974 1900 c0 -13 4 -16 10 -10 7 7 7 13 0 20 -6 6 -10 3 -10 -10z"/>
<path d="M8621 1873 c-7 -8 -11 -16 -8 -19 2 -2 10 2 17 11 17 20 9 27 -9 8z"/>
<path d="M8918 1873 c7 -3 16 -2 19 1 4 3 -2 6 -13 5 -11 0 -14 -3 -6 -6z"/>
<path d="M8072 1865 c4 -4 3 -16 -3 -26 -5 -11 -7 -19 -5 -19 3 0 10 9 16 19
7 15 7 22 -2 27 -7 4 -10 4 -6 -1z"/>
<path d="M8420 1858 c0 -4 6 -8 14 -8 8 0 17 4 20 8 2 4 -4 8 -15 8 -10 0 -19
-4 -19 -8z"/>
<path d="M8470 1860 c0 -5 5 -10 11 -10 5 0 7 5 4 10 -3 6 -8 10 -11 10 -2 0
-4 -4 -4 -10z"/>
<path d="M8804 1859 c-9 -15 3 -24 18 -12 15 11 28 11 45 0 6 -4 14 -3 18 3 3
5 3 11 -2 11 -53 7 -73 7 -79 -2z"/>
<path d="M7870 1856 c0 -2 7 -7 16 -10 8 -3 12 -2 9 4 -6 10 -25 14 -25 6z"/>
<path d="M8000 1851 c0 -10 19 -25 25 -20 1 2 -3 10 -11 17 -8 7 -14 8 -14 3z"/>
<path d="M8944 1846 c-3 -8 -4 -25 -2 -38 3 -17 5 -13 9 15 5 38 2 47 -7 23z"/>
<path d="M8654 1829 c-3 -6 -1 -16 4 -21 8 -8 11 -5 9 11 -1 24 -3 25 -13 10z"/>
<path d="M8500 1815 c-8 -9 -8 -15 -2 -15 12 0 26 19 19 26 -2 2 -10 -2 -17
-11z"/>
<path d="M8824 1823 c3 -3 0 -13 -6 -22 -7 -9 -8 -13 -4 -9 5 4 15 3 22 -3 10
-8 16 -5 26 10 7 12 16 21 21 21 4 0 6 -4 2 -9 -3 -5 0 -13 6 -16 7 -5 10 0 7
11 -2 14 -13 20 -42 21 -21 1 -36 -1 -32 -4z"/>
<path d="M8983 1810 c-11 -16 -10 -18 2 -14 8 4 15 12 15 20 0 19 -3 18 -17
-6z"/>
<path d="M8340 1810 c-15 -10 -15 -10 25 -10 6 0 4 9 -4 15 -3 2 -13 0 -21 -5z"/>
<path d="M8540 1809 c0 -5 5 -7 10 -4 6 3 10 8 10 11 0 2 -4 4 -10 4 -5 0 -10
-5 -10 -11z"/>
<path d="M8774 1805 c3 -9 0 -15 -10 -15 -8 0 -12 5 -9 10 3 6 1 10 -5 10 -7
0 -9 -7 -6 -16 5 -13 2 -15 -16 -11 -22 6 -22 5 -4 -8 16 -12 17 -17 6 -30
-11 -13 -10 -15 2 -10 9 4 18 -1 21 -9 4 -9 12 -16 19 -16 9 0 8 3 -2 10 -13
8 -13 10 2 10 9 0 20 5 24 12 4 6 3 8 -3 5 -6 -4 -19 3 -29 16 -13 15 -14 18
-3 9 14 -10 18 -10 23 4 9 24 7 44 -5 44 -6 0 -9 -7 -5 -15z"/>
<path d="M8916 1807 c3 -10 9 -15 12 -12 3 3 0 11 -7 18 -10 9 -11 8 -5 -6z"/>
<path d="M8297 1784 c6 -15 23 -19 23 -5 0 5 -7 11 -14 14 -10 4 -13 1 -9 -9z"/>
<path d="M8419 1793 c-1 -4 0 -17 1 -28 l2 -20 -23 20 c-12 11 -19 15 -16 8 4
-6 3 -14 -3 -18 -5 -3 -10 -12 -10 -18 0 -8 3 -8 8 -2 4 6 15 11 26 10 20 0
41 41 26 50 -6 4 -11 3 -11 -2z"/>
<path d="M8565 1781 c-3 -5 -1 -12 4 -15 5 -3 11 1 15 9 6 16 -9 21 -19 6z"/>
<path d="M8980 1782 c-19 -9 -25 -33 -6 -26 11 4 33 37 23 33 -1 0 -9 -3 -17
-7z"/>
<path d="M8870 1770 c0 -5 -7 -10 -17 -10 -19 0 -9 -13 12 -16 9 -1 15 6 15
17 0 10 -2 19 -5 19 -3 0 -5 -4 -5 -10z"/>
<path d="M8230 1760 c0 -5 5 -10 10 -10 6 0 10 5 10 10 0 6 -4 10 -10 10 -5 0
-10 -4 -10 -10z"/>
<path d="M8665 1750 c-19 -7 -19 -8 -2 -15 19 -8 31 -2 26 13 -2 5 -13 6 -24
2z"/>
<path d="M8975 1740 c-3 -5 -1 -10 4 -10 6 0 11 5 11 10 0 6 -2 10 -4 10 -3 0
-8 -4 -11 -10z"/>
<path d="M8215 1730 c3 -5 8 -10 11 -10 2 0 4 5 4 10 0 6 -5 10 -11 10 -5 0
-7 -4 -4 -10z"/>
<path d="M8454 1724 c3 -9 6 -18 6 -20 0 -2 5 -4 11 -4 8 0 9 4 0 13 -6 8 -8
17 -4 20 3 4 1 7 -6 7 -8 0 -11 -6 -7 -16z"/>
<path d="M8901 1731 c-8 -5 -10 -14 -6 -21 6 -9 10 -8 17 4 12 21 7 28 -11 17z"/>
<path d="M8540 1720 c0 -5 5 -10 11 -10 5 0 7 5 4 10 -3 6 -8 10 -11 10 -2 0
-4 -4 -4 -10z"/>
<path d="M8935 1721 c9 -16 -24 -40 -45 -34 -12 4 -12 3 -1 -5 18 -13 69 7 66
27 -1 8 -8 17 -15 19 -8 3 -10 0 -5 -7z"/>
<path d="M8410 1705 c-7 -9 -10 -18 -6 -22 3 -3 6 0 6 8 0 12 2 11 10 -1 7
-12 9 -10 7 8 -2 26 -1 26 -17 7z"/>
<path d="M8490 1698 c0 -17 2 -18 15 -4 8 8 15 16 15 19 0 2 -7 4 -15 4 -8 0
-15 -9 -15 -19z"/>
<path d="M8724 1689 c-1 -27 0 -29 14 -16 8 9 12 23 9 31 -10 26 -22 18 -23
-15z"/>
<path d="M8857 1709 c7 -7 15 -10 18 -7 3 3 -2 9 -12 12 -14 6 -15 5 -6 -5z"/>
<path d="M8985 1711 c-3 -5 -2 -12 3 -15 5 -3 9 1 9 9 0 17 -3 19 -12 6z"/>
<path d="M8810 1695 c0 -9 6 -12 15 -9 8 4 12 10 9 15 -8 14 -24 10 -24 -6z"/>
<path d="M8375 1690 c-3 -5 -1 -10 4 -10 6 0 11 5 11 10 0 6 -2 10 -4 10 -3 0
-8 -4 -11 -10z"/>
<path d="M8760 1689 c0 -5 5 -7 10 -4 6 3 10 8 10 11 0 2 -4 4 -10 4 -5 0 -10
-5 -10 -11z"/>
<path d="M8846 1671 c-14 -16 -16 -29 -11 -62 5 -29 10 -37 16 -28 5 8 4 18
-1 23 -13 13 -13 56 -1 56 5 0 11 7 15 15 7 20 3 19 -18 -4z"/>
<path d="M8660 1670 c-8 -5 -12 -11 -9 -14 2 -3 11 -1 19 4 8 5 12 11 9 14 -2
3 -11 1 -19 -4z"/>
<path d="M8990 1662 c0 -7 -6 -12 -14 -12 -8 0 -17 -8 -20 -17 -6 -15 -8 -15
-16 -3 -7 10 -10 11 -10 3 0 -7 -7 -13 -16 -13 -11 0 -14 -5 -10 -16 3 -9 6
-17 6 -20 0 -2 6 -1 14 2 8 3 17 0 21 -6 5 -8 11 -8 21 1 10 8 14 8 14 0 0 -6
5 -11 10 -11 14 0 8 23 -10 37 -13 10 -12 14 4 32 11 12 16 24 13 28 -4 3 -7
1 -7 -5z m-30 -74 c0 -6 -6 -5 -15 2 -8 7 -15 14 -15 16 0 2 7 1 15 -2 8 -4
15 -11 15 -16z"/>
<path d="M8350 1645 c0 -8 4 -15 10 -15 5 0 7 7 4 15 -4 8 -8 15 -10 15 -2 0
-4 -7 -4 -15z"/>
<path d="M8774 1633 c-1 -13 2 -20 7 -17 5 3 9 11 9 19 0 7 6 15 13 18 6 3 3
5 -8 4 -13 -1 -20 -8 -21 -24z"/>
<path d="M8427 1639 c7 -7 15 -10 18 -7 3 3 -2 9 -12 12 -14 6 -15 5 -6 -5z"/>
<path d="M8406 1622 c-3 -5 1 -9 9 -9 8 0 12 4 9 9 -3 4 -7 8 -9 8 -2 0 -6 -4
-9 -8z"/>
<path d="M8690 1619 c0 -5 -5 -7 -12 -3 -7 4 -8 3 -4 -4 4 -6 13 -9 21 -5 17
6 20 23 5 23 -5 0 -10 -5 -10 -11z"/>
<path d="M8801 1614 c0 -11 3 -14 6 -6 3 7 2 16 -1 19 -3 4 -6 -2 -5 -13z"/>
<path d="M8860 1619 c0 -5 5 -7 10 -4 6 3 10 8 10 11 0 2 -4 4 -10 4 -5 0 -10
-5 -10 -11z"/>
<path d="M7415 1610 c-3 -5 -1 -10 4 -10 6 0 11 5 11 10 0 6 -2 10 -4 10 -3 0
-8 -4 -11 -10z"/>
<path d="M8362 1609 c2 -7 10 -15 17 -17 8 -3 12 1 9 9 -2 7 -10 15 -17 17 -8
3 -12 -1 -9 -9z"/>
<path d="M8480 1604 c0 -8 6 -11 15 -8 8 4 15 9 15 13 0 4 -7 8 -15 8 -8 0
-15 -6 -15 -13z"/>
<path d="M8440 1600 c0 -5 5 -10 10 -10 6 0 10 5 10 10 0 6 -4 10 -10 10 -5 0
-10 -4 -10 -10z"/>
<path d="M8653 1585 c-10 -10 -9 -14 2 -19 8 -3 17 -1 20 5 4 5 11 6 17 3 7
-4 8 -2 4 5 -4 6 -11 9 -16 6 -4 -3 -10 -1 -12 4 -1 5 -8 3 -15 -4z"/>
<path d="M8720 1579 c0 -16 17 -18 35 -5 17 13 17 14 -8 14 -15 0 -27 -4 -27
-9z"/>
<path d="M8418 1553 c7 -3 16 -2 19 1 4 3 -2 6 -13 5 -11 0 -14 -3 -6 -6z"/>
<path d="M8645 1550 c-8 -12 35 -39 51 -33 8 3 14 0 14 -7 0 -6 -4 -8 -10 -5
-5 3 -10 1 -10 -4 0 -6 5 -11 11 -11 6 0 8 -9 4 -22 -7 -22 -7 -23 8 -3 8 11
13 31 11 45 -1 14 -3 29 -3 33 -1 4 -11 3 -22 -4 -12 -6 -19 -7 -15 -1 3 5 -3
12 -14 15 -11 3 -22 1 -25 -3z"/>
<path d="M8750 1530 c-12 -8 -11 -10 8 -10 12 0 22 5 22 10 0 13 -11 13 -30 0z"/>
<path d="M8924 1528 c-9 -14 -2 -16 26 -8 25 6 25 6 3 12 -13 3 -26 2 -29 -4z"/>
<path d="M8985 1530 c-3 -5 -1 -10 4 -10 6 0 11 5 11 10 0 6 -2 10 -4 10 -3 0
-8 -4 -11 -10z"/>
<path d="M8540 1520 c0 -5 7 -10 15 -10 8 0 15 5 15 10 0 6 -7 10 -15 10 -8 0
-15 -4 -15 -10z"/>
<path d="M8836 1503 c-6 -14 -5 -15 5 -6 7 7 10 15 7 18 -3 3 -9 -2 -12 -12z"/>
<path d="M8660 1499 c0 -6 -6 -9 -14 -6 -8 3 -16 -2 -19 -15 -3 -11 -3 -17 0
-14 4 3 11 2 17 -4 7 -5 17 -5 26 2 12 8 12 9 -2 4 -22 -7 -24 12 -3 20 17 7
20 24 5 24 -5 0 -10 -5 -10 -11z"/>
<path d="M8875 1500 c-3 -5 -1 -10 4 -10 6 0 11 5 11 10 0 6 -2 10 -4 10 -3 0
-8 -4 -11 -10z"/>
<path d="M8976 1501 c-3 -5 2 -15 12 -22 15 -12 16 -12 5 2 -7 9 -10 19 -6 22
3 4 4 7 0 7 -3 0 -8 -4 -11 -9z"/>
<path d="M8477 1493 c-4 -3 -7 -15 -7 -26 0 -25 13 -14 15 13 2 22 1 23 -8 13z"/>
<path d="M8545 1478 c-6 -13 -21 -28 -35 -35 -20 -10 -21 -13 -6 -13 21 0 56
35 56 57 0 19 -4 16 -15 -9z"/>
<path d="M8741 1483 c0 -11 3 -13 6 -5 2 6 10 9 15 6 7 -4 8 -2 4 4 -11 18
-26 14 -25 -5z"/>
<path d="M8958 1456 c-4 -21 -3 -23 13 -13 10 6 15 14 11 17 -4 3 -10 9 -13
13 -4 4 -9 -3 -11 -17z"/>
<path d="M8371 1467 c2 -1 13 -9 24 -17 19 -14 19 -14 6 3 -7 9 -18 17 -24 17
-6 0 -8 -1 -6 -3z"/>
<path d="M8580 1455 c0 -8 4 -15 10 -15 5 0 7 7 4 15 -4 8 -8 15 -10 15 -2 0
-4 -7 -4 -15z"/>
<path d="M8864 1458 c-3 -5 -11 -5 -17 -1 -7 4 -4 -5 6 -20 10 -15 13 -27 7
-27 -6 0 -8 -5 -4 -12 5 -8 1 -9 -12 -5 -18 7 -18 7 -1 -7 30 -23 49 -9 41 30
-4 22 -2 34 5 34 6 0 11 4 11 8 0 11 -29 11 -36 0z"/>
<path d="M8910 1425 c7 -8 16 -15 21 -15 5 0 6 7 3 15 -4 8 -13 15 -21 15 -13
0 -13 -3 -3 -15z"/>
<path d="M8380 1421 c0 -5 7 -14 15 -21 12 -10 15 -10 15 3 0 8 -7 17 -15 21
-8 3 -15 2 -15 -3z"/>
<path d="M8617 1405 c3 -8 9 -12 14 -9 12 7 11 11 -5 17 -10 4 -13 1 -9 -8z"/>
<path d="M8963 1410 c2 -8 12 -16 23 -17 13 -2 15 -1 4 4 -8 3 -19 11 -23 17
-6 7 -7 6 -4 -4z"/>
<path d="M8516 1377 c-9 -19 -16 -40 -16 -47 0 -6 -4 -8 -10 -5 -5 3 -10 1
-10 -4 0 -18 11 -13 38 17 29 30 34 43 22 61 -4 8 -13 0 -24 -22z"/>
<path d="M8720 1386 c0 -2 7 -7 16 -10 8 -3 12 -2 9 4 -6 10 -25 14 -25 6z"/>
<path d="M8400 1361 c0 -7 -5 -9 -12 -5 -7 5 -8 3 -3 -5 5 -9 10 -10 18 -2 6
6 8 14 4 18 -4 3 -7 1 -7 -6z"/>
<path d="M8835 1360 c3 -5 8 -10 11 -10 2 0 4 5 4 10 0 6 -5 10 -11 10 -5 0
-7 -4 -4 -10z"/>
<path d="M8976 1361 c-19 -7 -19 -8 2 -13 15 -4 22 -2 22 8 0 8 -1 14 -2 13
-2 0 -12 -4 -22 -8z"/>
<path d="M8561 1344 c0 -11 3 -14 6 -6 3 7 2 16 -1 19 -3 4 -6 -2 -5 -13z"/>
<path d="M8679 1333 c4 -14 14 -27 24 -29 14 -2 13 2 -5 27 -27 36 -28 36 -19
2z"/>
<path d="M8592 1330 c0 -14 2 -19 5 -12 2 6 2 18 0 25 -3 6 -5 1 -5 -13z"/>
<path d="M8732 1335 c-17 -19 -1 -19 24 0 14 11 15 14 4 14 -8 0 -21 -6 -28
-14z"/>
<path d="M8842 1320 c-7 -11 -8 -20 -3 -20 9 0 24 30 18 36 -1 2 -8 -6 -15
-16z"/>
<path d="M8910 1331 c0 -8 -7 -11 -15 -7 -16 6 -21 -9 -6 -18 11 -7 36 22 27
31 -3 3 -6 1 -6 -6z"/>
<path d="M8956 1332 c-8 -14 12 -38 23 -27 6 6 4 14 -4 22 -8 7 -16 9 -19 5z"/>
<path d="M8395 1320 c3 -5 8 -10 11 -10 2 0 4 5 4 10 0 6 -5 10 -11 10 -5 0
-7 -4 -4 -10z"/>
<path d="M8442 1323 c-10 -4 -10 -8 0 -20 11 -14 9 -15 -20 -9 -22 5 -32 4
-32 -4 0 -7 6 -10 14 -7 7 3 23 -1 35 -10 21 -14 21 -14 17 13 -3 17 0 31 7
36 13 9 -1 9 -21 1z"/>
<path d="M8730 1299 c0 -5 10 -14 23 -20 19 -11 20 -10 10 3 -7 8 -11 17 -8
20 3 2 -2 5 -10 5 -8 0 -15 -4 -15 -8z"/>
<path d="M8530 1290 c-12 -7 -10 -9 7 -7 12 0 19 5 17 9 -6 10 -6 10 -24 -2z"/>
<path d="M8480 1281 c0 -5 5 -13 10 -16 6 -3 10 -2 10 4 0 5 -4 13 -10 16 -5
3 -10 2 -10 -4z"/>
<path d="M8623 1279 c14 -8 22 -8 30 0 8 8 3 11 -18 11 -26 -1 -28 -2 -12 -11z"/>
<path d="M8815 1270 c-3 -5 -1 -10 4 -10 6 0 11 5 11 10 0 6 -2 10 -4 10 -3 0
-8 -4 -11 -10z"/>
<path d="M8864 1255 c1 -19 -4 -29 -11 -27 -15 2 -17 -24 -3 -33 6 -4 9 -1 8
7 -2 9 8 13 29 12 17 0 32 2 31 5 -2 20 4 31 17 31 8 0 15 -6 15 -12 0 -9 2
-10 8 -2 4 7 15 13 24 15 15 3 14 6 -6 15 -19 9 -23 9 -19 -2 4 -10 -2 -11
-26 -4 -27 7 -31 6 -31 -11 0 -28 -14 -23 -27 9 l-11 27 2 -30z"/>
<path d="M8407 1256 c-4 -10 -1 -13 8 -9 8 3 12 9 9 14 -7 12 -11 11 -17 -5z"/>
<path d="M8571 1244 c0 -11 3 -14 6 -6 3 7 2 16 -1 19 -3 4 -6 -2 -5 -13z"/>
<path d="M8620 1250 l-25 -6 24 -6 c12 -4 20 -11 17 -16 -4 -6 3 -8 16 -4 21
6 21 7 4 10 -14 3 -15 6 -6 12 18 11 -1 18 -30 10z"/>
<path d="M8703 1246 c1 -11 9 -21 17 -23 10 -3 11 -2 4 4 -6 4 -14 15 -17 23
-5 11 -6 9 -4 -4z"/>
<path d="M8338 1243 c7 -3 16 -2 19 1 4 3 -2 6 -13 5 -11 0 -14 -3 -6 -6z"/>
<path d="M385 1230 c-3 -5 1 -10 10 -10 9 0 13 5 10 10 -3 6 -8 10 -10 10 -2
0 -7 -4 -10 -10z"/>
<path d="M635 1230 c3 -5 8 -10 11 -10 2 0 4 5 4 10 0 6 -5 10 -11 10 -5 0 -7
-4 -4 -10z"/>
<path d="M8426 1215 c-3 -8 -1 -17 4 -20 5 -3 7 -11 4 -19 -3 -7 1 -13 8 -13
8 0 14 8 14 18 0 10 -3 17 -6 17 -18 -1 -23 3 -11 11 8 5 9 11 3 15 -5 3 -12
-1 -16 -9z"/>
<path d="M315 1210 c3 -5 10 -10 16 -10 5 0 9 5 9 10 0 6 -7 10 -16 10 -8 0
-12 -4 -9 -10z"/>
<path d="M8725 1210 c-16 -7 -17 -9 -3 -9 9 -1 20 4 23 9 7 11 7 11 -20 0z"/>
<path d="M8798 1213 c7 -3 16 -2 19 1 4 3 -2 6 -13 5 -11 0 -14 -3 -6 -6z"/>
<path d="M8945 1210 c3 -5 8 -10 11 -10 2 0 4 5 4 10 0 6 -5 10 -11 10 -5 0
-7 -4 -4 -10z"/>
<path d="M8985 1209 c-4 -6 -5 -12 -2 -15 2 -3 7 2 10 11 7 17 1 20 -8 4z"/>
<path d="M8260 1195 c0 -8 4 -15 10 -15 5 0 7 7 4 15 -4 8 -8 15 -10 15 -2 0
-4 -7 -4 -15z"/>
<path d="M8870 1183 c0 -7 4 -13 9 -13 5 0 13 6 19 13 8 10 6 13 -9 13 -10 0
-19 -6 -19 -13z"/>
<path d="M8785 1180 c-3 -5 1 -10 10 -10 9 0 13 5 10 10 -3 6 -8 10 -10 10 -2
0 -7 -4 -10 -10z"/>
<path d="M8560 1175 c0 -3 7 -14 16 -23 15 -14 16 -14 13 3 -4 17 -29 35 -29
20z"/>
<path d="M8630 1170 c-13 -8 -12 -10 3 -10 9 0 17 5 17 10 0 12 -1 12 -20 0z"/>
<path d="M8832 1175 c4 -4 -2 -16 -14 -27 l-22 -18 24 3 c25 4 36 33 17 44 -7
3 -9 3 -5 -2z"/>
<path d="M8926 1171 c-4 -5 -1 -13 6 -17 8 -5 6 -10 -8 -15 -16 -6 -16 -8 -2
-8 11 -1 16 -8 13 -20 -2 -11 4 -26 13 -33 15 -12 16 -11 2 5 -13 17 -12 19
10 15 14 -2 25 3 28 12 3 8 1 12 -3 8 -14 -13 -44 11 -40 32 4 21 -10 36 -19
21z"/>
<path d="M8745 1160 c-4 -6 -11 -8 -16 -5 -5 4 -6 -2 -2 -11 4 -11 8 -13 11
-6 2 7 8 12 13 12 6 0 7 -6 3 -12 -4 -7 -3 -9 1 -5 12 10 15 37 5 37 -5 0 -12
-5 -15 -10z"/>
<path d="M8485 1150 c3 -5 8 -10 11 -10 2 0 4 5 4 10 0 6 -5 10 -11 10 -5 0
-7 -4 -4 -10z"/>
<path d="M8518 1153 c7 -3 16 -2 19 1 4 3 -2 6 -13 5 -11 0 -14 -3 -6 -6z"/>
<path d="M8973 1153 c9 -2 14 -9 11 -15 -4 -7 -2 -8 4 -4 20 12 13 26 -10 25
-18 -1 -19 -2 -5 -6z"/>
<path d="M8450 1136 c0 -8 4 -17 9 -20 5 -4 7 3 4 14 -6 23 -13 26 -13 6z"/>
<path d="M8868 1136 c-21 -16 -24 -28 -4 -20 16 6 20 -44 4 -63 -6 -7 -5 -14
2 -18 5 -3 10 -1 10 5 0 6 5 8 10 5 6 -3 7 -18 3 -33 -6 -25 -5 -26 11 -13 15
13 19 13 27 0 5 -8 9 -10 9 -5 0 6 -10 21 -22 34 -16 17 -19 26 -10 29 6 3 12
12 12 21 0 13 -3 12 -15 -4 -13 -17 -14 -17 -15 -2 0 9 5 20 10 23 15 9 12 25
-5 25 -9 0 -12 6 -9 15 7 18 4 18 -18 1z"/>
<path d="M8186 1127 c3 -10 9 -15 12 -12 3 3 0 11 -7 18 -10 9 -11 8 -5 -6z"/>
<path d="M635 1120 c-3 -5 -1 -10 4 -10 6 0 11 5 11 10 0 6 -2 10 -4 10 -3 0
-8 -4 -11 -10z"/>
<path d="M8686 1114 c-9 -24 -7 -34 6 -34 6 0 8 3 5 7 -4 3 -2 12 4 19 6 7 6
14 1 18 -6 3 -13 -1 -16 -10z"/>
<path d="M8310 1110 c0 -5 5 -10 11 -10 5 0 7 5 4 10 -3 6 -8 10 -11 10 -2 0
-4 -4 -4 -10z"/>
<path d="M8425 1100 c-3 -6 1 -7 9 -4 18 7 21 14 7 14 -6 0 -13 -4 -16 -10z"/>
<path d="M8776 1102 c-3 -5 1 -9 9 -9 8 0 12 4 9 9 -3 4 -7 8 -9 8 -2 0 -6 -4
-9 -8z"/>
<path d="M8533 1073 c-14 -28 -9 -29 17 -3 24 24 24 27 7 27 -7 0 -18 -11 -24
-24z"/>
<path d="M8640 1075 c-9 -10 -17 -12 -30 -5 -15 8 -17 6 -13 -9 3 -12 11 -17
19 -14 8 3 14 0 14 -6 0 -6 -5 -11 -11 -11 -6 0 -9 -7 -6 -14 4 -9 -2 -17 -14
-21 -10 -4 -16 -11 -13 -17 4 -7 9 -6 14 3 7 10 11 10 23 0 12 -10 15 -10 13
1 -1 7 -5 18 -9 24 -4 7 1 18 10 25 14 12 16 12 11 -2 -4 -9 -1 -16 7 -16 11
0 11 5 0 28 -11 21 -12 28 -2 32 6 2 9 7 6 11 -3 4 -12 0 -19 -9z"/>
<path d="M8981 1081 c-7 -5 -12 -14 -10 -20 2 -6 10 -2 17 9 14 22 13 23 -7
11z"/>
<path d="M8813 1064 c-4 -10 -14 -24 -22 -31 -11 -8 -12 -12 -4 -13 15 0 48
48 40 57 -4 3 -10 -3 -14 -13z"/>
<path d="M8852 1071 c-8 -5 -12 -17 -10 -27 2 -15 5 -13 15 9 14 30 14 30 -5
18z"/>
<path d="M8440 1066 c0 -10 28 -13 41 -5 10 6 7 9 -13 9 -16 0 -28 -2 -28 -4z"/>
<path d="M8765 1061 c-3 -5 -2 -12 3 -15 5 -3 9 1 9 9 0 17 -3 19 -12 6z"/>
<path d="M8503 1035 c0 -8 4 -12 9 -9 5 3 6 10 3 15 -9 13 -12 11 -12 -6z"/>
<path d="M8985 1040 c-3 -5 -3 -16 1 -22 6 -10 4 -10 -8 0 -21 17 -30 2 -13
-21 12 -17 13 -17 20 0 17 38 16 69 0 43z"/>
<path d="M1101 1024 c0 -11 3 -14 6 -6 3 7 2 16 -1 19 -3 4 -6 -2 -5 -13z"/>
<path d="M8706 1013 c-6 -14 -9 -15 -15 -4 -6 10 -10 9 -15 -4 -5 -14 -2 -16
18 -13 23 5 25 2 22 -28 -1 -18 2 -30 7 -27 5 3 7 14 4 24 -3 10 -1 22 4 25 8
5 13 -9 10 -29 -3 -17 48 -60 63 -54 11 5 16 1 16 -14 0 -11 -4 -18 -9 -14 -6
3 -6 -7 -1 -26 8 -28 7 -31 -10 -26 -11 3 -18 1 -14 -4 3 -5 12 -9 20 -9 20 0
13 -32 -14 -60 -19 -21 -22 -21 -22 -6 0 15 -3 16 -15 6 -8 -7 -24 -10 -35 -7
-11 3 -23 1 -26 -4 -3 -5 9 -9 25 -9 17 0 30 -3 30 -7 -4 -24 4 -30 33 -29 17
1 33 7 36 14 5 16 -15 16 -22 0 -3 -7 -4 -4 -3 7 2 12 10 19 20 19 10 -1 17 3
16 10 -4 31 3 54 21 74 12 12 16 22 10 22 -5 0 -10 7 -10 16 0 8 -4 13 -10 9
-5 -3 -7 -13 -4 -23 4 -12 3 -13 -3 -4 -5 7 -8 26 -5 42 3 21 8 27 21 23 9 -2
2 9 -16 25 -17 17 -29 33 -25 37 4 3 -1 3 -11 -1 -19 -7 -13 -24 9 -24 8 0 14
-5 14 -11 0 -5 -4 -7 -10 -4 -5 3 -10 1 -10 -4 0 -21 -20 -11 -32 15 -11 23
-9 28 12 45 l25 19 -27 -10 c-19 -6 -28 -6 -28 1 0 10 -24 39 -33 39 -3 0 -8
-8 -11 -17z"/>
<path d="M8580 1010 c0 -5 5 -10 10 -10 6 0 10 5 10 10 0 6 -4 10 -10 10 -5 0
-10 -4 -10 -10z"/>
<path d="M8392 997 c-8 -9 -8 -17 0 -27 8 -13 9 -12 5 1 -3 9 0 22 6 28 6 6 8
11 5 11 -3 0 -10 -6 -16 -13z"/>
<path d="M8439 1008 c-7 -24 -5 -38 7 -38 8 0 14 5 14 10 0 6 -5 10 -11 10 -5
0 -7 5 -4 10 3 6 4 10 1 10 -3 0 -6 -1 -7 -2z"/>
<path d="M8530 991 c0 -6 6 -11 13 -11 8 0 7 -4 -3 -10 -9 -6 -10 -10 -3 -10
19 0 24 17 8 30 -10 9 -15 9 -15 1z"/>
<path d="M8853 979 c3 -9 0 -22 -6 -28 -8 -8 -8 -11 0 -11 16 0 23 25 11 41
-8 11 -9 11 -5 -2z"/>
<path d="M8310 969 c0 -5 5 -7 10 -4 6 3 10 8 10 11 0 2 -4 4 -10 4 -5 0 -10
-5 -10 -11z"/>
<path d="M8348 963 c7 -3 16 -2 19 1 4 3 -2 6 -13 5 -11 0 -14 -3 -6 -6z"/>
<path d="M8511 954 c0 -11 3 -14 6 -6 3 7 2 16 -1 19 -3 4 -6 -2 -5 -13z"/>
<path d="M8670 960 c-13 -8 -12 -10 3 -10 9 0 17 5 17 10 0 12 -1 12 -20 0z"/>
<path d="M8922 958 c5 -15 28 -23 28 -10 0 5 -7 13 -16 16 -10 4 -14 1 -12 -6z"/>
<path d="M8449 949 c-11 -7 -11 -9 -1 -9 7 0 10 -4 7 -10 -3 -5 -5 -10 -3 -10
2 0 18 -4 36 -9 25 -8 32 -7 32 5 0 8 -7 14 -15 14 -8 0 -15 4 -15 9 0 14 -25
20 -41 10z"/>
<path d="M8555 944 c-20 -15 -20 -16 9 -39 17 -13 33 -22 38 -19 4 3 8 -13 8
-35 0 -23 3 -41 8 -41 4 0 7 20 7 45 0 25 -4 45 -8 45 -4 0 -19 7 -33 16 -19
13 -22 20 -13 30 15 18 9 17 -16 -2z"/>
<path d="M750 940 c0 -5 5 -10 11 -10 5 0 7 5 4 10 -3 6 -8 10 -11 10 -2 0 -4
-4 -4 -10z"/>
<path d="M8296 938 c3 -5 10 -6 15 -3 13 9 11 12 -6 12 -8 0 -12 -4 -9 -9z"/>
<path d="M8590 942 c0 -5 7 -9 15 -9 8 0 12 4 9 9 -3 4 -9 8 -15 8 -5 0 -9 -4
-9 -8z"/>
<path d="M470 916 c0 -14 4 -27 8 -30 5 -3 6 8 4 25 -5 35 -12 38 -12 5z"/>
<path d="M1760 926 c0 -9 5 -16 10 -16 6 0 10 4 10 9 0 6 -4 13 -10 16 -5 3
-10 -1 -10 -9z"/>
<path d="M8877 933 c-9 -2 -15 -9 -12 -14 9 -14 22 -11 29 6 3 8 4 14 3 14 -1
-1 -10 -3 -20 -6z"/>
<path d="M8408 923 c7 -3 16 -2 19 1 4 3 -2 6 -13 5 -11 0 -14 -3 -6 -6z"/>
<path d="M8652 922 c-9 -7 -10 -16 -1 -41 9 -27 9 -35 -2 -42 -9 -6 -10 -9 -2
-9 7 0 16 7 21 16 8 15 10 15 15 0 3 -8 -1 -22 -9 -31 -9 -8 -11 -15 -6 -15 4
0 19 11 31 24 22 23 22 25 4 35 -10 6 -14 11 -10 11 4 0 -1 10 -12 22 -11 11
-18 25 -15 30 6 10 3 10 -14 0z"/>
<path d="M8721 921 c-7 -5 -12 -14 -10 -20 2 -6 10 -2 17 9 14 22 13 23 -7 11z"/>
<path d="M8166 903 c-6 -14 -5 -15 5 -6 7 7 10 15 7 18 -3 3 -9 -2 -12 -12z"/>
<path d="M8386 907 c3 -10 9 -15 12 -12 3 3 0 11 -7 18 -10 9 -11 8 -5 -6z"/>
<path d="M8907 913 c-4 -3 -7 -11 -7 -17 0 -6 5 -5 12 2 6 6 9 14 7 17 -3 3
-9 2 -12 -2z"/>
<path d="M8980 907 c0 -8 -10 -19 -22 -26 l-23 -11 24 6 c16 4 21 3 17 -5 -5
-7 -1 -8 10 -4 12 4 14 8 6 11 -10 3 -10 7 -2 17 8 9 8 15 0 20 -5 3 -10 0
-10 -8z"/>
<path d="M245 890 c3 -5 8 -10 11 -10 2 0 4 5 4 10 0 6 -5 10 -11 10 -5 0 -7
-4 -4 -10z"/>
<path d="M8371 884 c0 -11 3 -14 6 -6 3 7 2 16 -1 19 -3 4 -6 -2 -5 -13z"/>
<path d="M8740 880 c0 -13 26 -19 41 -9 8 5 10 9 4 10 -5 0 -18 2 -27 4 -10 2
-18 0 -18 -5z"/>
<path d="M8473 865 c0 -8 4 -12 9 -9 4 3 8 9 8 15 0 5 -4 9 -8 9 -5 0 -9 -7
-9 -15z"/>
<path d="M8543 858 c-2 -18 0 -20 7 -8 12 18 13 30 2 30 -4 0 -9 -10 -9 -22z"/>
<path d="M8892 863 c-17 -31 -15 -34 14 -27 19 5 25 4 20 -5 -4 -6 -11 -9 -16
-6 -5 3 -11 1 -15 -5 -9 -15 12 -12 45 5 31 16 41 29 15 19 -8 -4 -15 -1 -15
6 0 7 -6 10 -14 7 -9 -4 -16 1 -18 11 -3 14 -6 14 -16 -5z"/>
<path d="M8505 850 c-3 -5 -2 -10 4 -10 5 0 13 5 16 10 3 6 2 10 -4 10 -5 0
-13 -4 -16 -10z"/>
<path d="M8747 839 c4 -13 9 -17 15 -11 11 11 3 32 -12 32 -4 0 -6 -9 -3 -21z"/>
<path d="M8298 836 c-10 -7 -18 -18 -18 -25 0 -19 15 -12 27 14 6 14 10 25 10
25 -1 0 -10 -7 -19 -14z"/>
<path d="M8980 835 c0 -8 4 -15 8 -15 5 0 9 7 9 15 0 8 -4 15 -9 15 -4 0 -8
-7 -8 -15z"/>
<path d="M8455 829 c-4 -6 -5 -12 -2 -15 2 -3 7 2 10 11 7 17 1 20 -8 4z"/>
<path d="M1385 820 c3 -5 8 -10 11 -10 2 0 4 5 4 10 0 6 -5 10 -11 10 -5 0 -7
-4 -4 -10z"/>
<path d="M2295 820 c3 -5 8 -10 11 -10 2 0 4 5 4 10 0 6 -5 10 -11 10 -5 0 -7
-4 -4 -10z"/>
<path d="M8413 811 c10 -12 9 -14 -5 -8 -12 4 -15 2 -11 -8 3 -8 9 -13 13 -10
5 3 10 0 12 -5 2 -7 11 -5 23 5 19 14 19 15 1 8 -16 -5 -18 -3 -14 15 4 16 1
20 -13 19 -15 -1 -16 -4 -6 -16z"/>
<path d="M8477 811 c-3 -15 0 -19 14 -18 20 1 27 17 8 17 -5 0 -7 5 -4 10 3 6
2 10 -3 10 -5 0 -12 -9 -15 -19z"/>
<path d="M8530 810 c0 -18 -10 -25 -32 -21 -12 2 -9 -14 4 -27 9 -9 15 -7 25
6 12 15 13 14 3 -6 -10 -20 -8 -26 7 -38 21 -15 43 -18 43 -5 0 5 -8 8 -17 7
-22 -1 -24 34 -3 52 13 10 12 11 -4 5 -16 -5 -18 -3 -12 20 4 16 2 27 -4 27
-5 0 -10 -9 -10 -20z"/>
<path d="M1040 809 c0 -5 5 -7 10 -4 6 3 10 8 10 11 0 2 -4 4 -10 4 -5 0 -10
-5 -10 -11z"/>
<path d="M8705 801 c-4 -13 -13 -18 -28 -15 -21 4 -21 4 -2 -5 12 -6 15 -10 6
-10 -8 -1 -12 -4 -9 -7 4 -3 19 1 35 9 18 10 36 12 51 6 13 -5 22 -5 22 1 0 6
-9 10 -20 10 -11 0 -20 4 -20 9 0 18 -29 20 -35 2z"/>
<path d="M8906 784 c-9 -24 -7 -31 9 -31 8 0 11 5 8 10 -3 5 0 13 7 17 9 5 8
9 -3 13 -9 3 -18 -1 -21 -9z"/>
<path d="M2227 764 c6 -15 23 -19 23 -5 0 5 -7 11 -14 14 -10 4 -13 1 -9 -9z"/>
<path d="M8360 770 c0 -5 5 -10 10 -10 6 0 10 5 10 10 0 6 -4 10 -10 10 -5 0
-10 -4 -10 -10z"/>
<path d="M8306 757 c3 -10 9 -15 12 -12 3 3 0 11 -7 18 -10 9 -11 8 -5 -6z"/>
<path d="M8397 753 c-4 -3 -7 -11 -7 -17 0 -6 5 -5 12 2 6 6 9 14 7 17 -3 3
-9 2 -12 -2z"/>
<path d="M8440 749 c0 -5 5 -7 10 -4 6 3 10 8 10 11 0 2 -4 4 -10 4 -5 0 -10
-5 -10 -11z"/>
<path d="M8090 740 c-9 -6 -10 -10 -3 -10 6 0 15 5 18 10 8 12 4 12 -15 0z"/>
<path d="M8655 743 c-27 -7 -39 -19 -26 -27 6 -4 11 -3 11 3 0 5 8 8 18 6 11
-2 19 3 19 11 0 8 -1 13 -1 13 -1 -1 -10 -3 -21 -6z"/>
<path d="M1116 731 c-3 -5 1 -11 9 -14 9 -4 12 -1 8 9 -6 16 -10 17 -17 5z"/>
<path d="M8913 733 c-15 -5 -17 -23 -4 -23 5 0 11 7 15 15 3 8 4 15 3 14 -1 0
-8 -3 -14 -6z"/>
<path d="M8943 730 c5 -21 37 -26 37 -6 0 9 -4 16 -10 16 -5 0 -10 -6 -10 -12
0 -9 -4 -8 -11 2 -9 13 -10 13 -6 0z"/>
<path d="M765 719 c-4 -6 -5 -12 -2 -15 2 -3 7 2 10 11 7 17 1 20 -8 4z"/>
<path d="M1207 723 c-4 -3 -7 -22 -7 -40 0 -23 -4 -32 -12 -27 -7 4 -8 3 -4
-5 12 -19 24 -3 28 39 2 22 3 40 2 40 0 0 -4 -3 -7 -7z"/>
<path d="M8860 720 c-11 -7 -12 -10 -2 -10 7 0 10 -5 7 -10 -4 -6 -11 -8 -16
-5 -5 4 -9 1 -9 -4 0 -20 29 -11 35 10 8 25 4 31 -15 19z"/>
<path d="M8486 706 c3 -9 13 -16 22 -16 8 0 13 1 11 3 -2 1 -12 9 -22 16 -15
12 -17 12 -11 -3z"/>
<path d="M8704 695 c-3 -14 -13 -25 -23 -25 -14 0 -14 2 -1 10 9 6 10 10 3 10
-6 0 -20 3 -30 6 -13 4 -15 3 -5 -4 12 -8 12 -13 1 -31 -16 -25 -29 -27 -29
-6 0 19 -17 19 -36 1 -16 -17 -19 -30 -4 -21 6 3 10 1 10 -5 0 -6 4 -9 10 -5
5 3 7 13 4 23 -2 9 1 7 7 -5 15 -28 29 -29 36 -3 3 12 14 20 27 20 11 0 31 11
44 24 18 20 19 25 7 30 -10 3 -17 -3 -21 -19z"/>
<path d="M790 696 c0 -9 5 -16 10 -16 6 0 10 4 10 9 0 6 -4 13 -10 16 -5 3
-10 -1 -10 -9z"/>
<path d="M8300 700 c-13 -8 -12 -10 3 -10 9 0 17 5 17 10 0 12 -1 12 -20 0z"/>
<path d="M420 691 c0 -4 11 -6 25 -3 14 2 25 6 25 8 0 2 -11 4 -25 4 -14 0
-25 -4 -25 -9z"/>
<path d="M8075 680 c3 -5 8 -10 11 -10 2 0 4 5 4 10 0 6 -5 10 -11 10 -5 0 -7
-4 -4 -10z"/>
<path d="M8925 680 c-3 -5 -1 -10 4 -10 6 0 11 5 11 10 0 6 -2 10 -4 10 -3 0
-8 -4 -11 -10z"/>
<path d="M1250 670 c0 -5 5 -10 11 -10 5 0 7 5 4 10 -3 6 -8 10 -11 10 -2 0
-4 -4 -4 -10z"/>
<path d="M8722 673 c1 -5 -4 -19 -12 -33 -11 -22 -11 -23 1 -13 19 15 44 0 36
-21 -4 -9 -2 -16 3 -16 14 0 12 31 -2 63 -12 24 -31 39 -26 20z"/>
<path d="M8799 665 c6 -13 6 -27 0 -37 -6 -11 -6 -19 1 -23 6 -4 9 -1 8 7 -2
7 2 12 7 11 6 -1 11 7 11 17 0 11 -2 17 -5 15 -2 -3 -10 3 -18 13 -13 16 -13
15 -4 -3z"/>
<path d="M351 654 c0 -11 3 -14 6 -6 3 7 2 16 -1 19 -3 4 -6 -2 -5 -13z"/>
<path d="M830 651 c0 -25 6 -27 13 -6 4 8 2 17 -3 20 -6 4 -10 -3 -10 -14z"/>
<path d="M8380 660 c0 -6 7 -10 15 -10 8 0 15 2 15 4 0 2 -7 6 -15 10 -8 3
-15 1 -15 -4z"/>
<path d="M100 650 c0 -5 5 -10 10 -10 6 0 10 5 10 10 0 6 -4 10 -10 10 -5 0
-10 -4 -10 -10z"/>
<path d="M148 648 c6 -6 8 -16 6 -23 -3 -7 0 -16 7 -21 8 -5 11 -2 6 8 -3 9
-1 20 4 25 7 7 3 12 -12 16 -15 4 -19 3 -11 -5z"/>
<path d="M260 649 c0 -5 5 -7 10 -4 6 3 10 8 10 11 0 2 -4 4 -10 4 -5 0 -10
-5 -10 -11z"/>
<path d="M450 650 c-12 -8 -11 -10 8 -10 12 0 22 5 22 10 0 13 -11 13 -30 0z"/>
<path d="M2162 630 c0 -14 2 -19 5 -12 2 6 2 18 0 25 -3 6 -5 1 -5 -13z"/>
<path d="M740 631 c0 -6 4 -13 10 -16 6 -3 7 1 4 9 -7 18 -14 21 -14 7z"/>
<path d="M8875 630 c4 -6 11 -8 16 -5 14 9 11 15 -7 15 -8 0 -12 -5 -9 -10z"/>
<path d="M465 620 c-3 -5 -1 -10 4 -10 6 0 11 5 11 10 0 6 -2 10 -4 10 -3 0
-8 -4 -11 -10z"/>
<path d="M1230 620 c0 -5 9 -8 20 -7 21 1 18 10 -5 13 -8 1 -15 -2 -15 -6z"/>
<path d="M8170 619 c0 -5 5 -7 10 -4 6 3 10 8 10 11 0 2 -4 4 -10 4 -5 0 -10
-5 -10 -11z"/>
<path d="M84 606 c-3 -8 -4 -27 -2 -43 3 -23 5 -20 9 15 5 43 2 53 -7 28z"/>
<path d="M8278 613 c7 -3 16 -2 19 1 4 3 -2 6 -13 5 -11 0 -14 -3 -6 -6z"/>
<path d="M8490 612 c0 -5 7 -9 15 -9 8 0 12 4 9 9 -3 4 -9 8 -15 8 -5 0 -9 -4
-9 -8z"/>
<path d="M8903 613 c-7 -3 -13 -9 -13 -15 0 -6 6 -6 15 2 18 15 20 -1 3 -18
-9 -9 -8 -12 5 -12 10 0 17 8 17 19 0 22 -9 30 -27 24z"/>
<path d="M8945 609 c-4 -6 -4 -13 -1 -16 3 -4 6 -1 6 6 0 7 8 3 18 -10 13 -15
21 -19 26 -11 4 8 0 12 -11 13 -10 0 -13 3 -5 6 6 2 12 9 12 14 0 13 -37 11
-45 -2z"/>
<path d="M2126 603 c-9 -9 -7 -33 3 -33 12 0 22 28 12 34 -5 3 -11 3 -15 -1z"/>
<path d="M8430 601 c0 -6 4 -13 10 -16 6 -3 7 1 4 9 -7 18 -14 21 -14 7z"/>
<path d="M8706 594 c-5 -14 -4 -15 9 -4 17 14 19 20 6 20 -5 0 -12 -7 -15 -16z"/>
<path d="M8640 591 c0 -9 30 -24 36 -18 2 1 -6 8 -16 15 -11 7 -20 8 -20 3z"/>
<path d="M382 570 c0 -14 2 -19 5 -12 2 6 2 18 0 25 -3 6 -5 1 -5 -13z"/>
<path d="M455 580 c-3 -5 -1 -10 4 -10 6 0 11 5 11 10 0 6 -2 10 -4 10 -3 0
-8 -4 -11 -10z"/>
<path d="M787 570 c-6 -23 3 -26 21 -8 9 9 12 9 12 -2 0 -7 2 -11 5 -8 9 9 -6
38 -20 38 -7 0 -15 -9 -18 -20z"/>
<path d="M8785 580 c-3 -5 -1 -10 4 -10 6 0 11 5 11 10 0 6 -2 10 -4 10 -3 0
-8 -4 -11 -10z"/>
<path d="M151 545 c-7 -19 -9 -39 -6 -45 13 -21 22 -8 23 35 1 25 1 45 -1 45
-2 0 -9 -16 -16 -35z"/>
<path d="M8340 570 c-13 -8 -12 -10 3 -10 9 0 17 5 17 10 0 12 -1 12 -20 0z"/>
<path d="M8550 570 c0 -5 4 -10 9 -10 6 0 13 5 16 10 3 6 -1 10 -9 10 -9 0
-16 -4 -16 -10z"/>
<path d="M8 563 c7 -3 16 -2 19 1 4 3 -2 6 -13 5 -11 0 -14 -3 -6 -6z"/>
<path d="M1197 538 c8 -44 18 -54 18 -19 0 16 -6 34 -12 40 -10 9 -11 4 -6
-21z"/>
<path d="M208 553 c6 -2 12 -11 12 -19 0 -8 5 -14 10 -14 6 0 10 6 10 14 0 8
6 17 13 19 6 3 -4 5 -23 5 -19 0 -29 -2 -22 -5z"/>
<path d="M8725 550 c3 -5 11 -10 16 -10 6 0 7 5 4 10 -3 6 -11 10 -16 10 -6 0
-7 -4 -4 -10z"/>
<path d="M8855 549 c-11 -17 0 -20 21 -4 17 13 17 14 2 15 -9 0 -20 -5 -23
-11z"/>
<path d="M312 525 c6 -15 20 -25 31 -25 11 0 17 3 14 7 -4 3 1 11 10 18 11 8
13 14 5 19 -7 4 -12 2 -12 -3 0 -6 -7 -11 -15 -11 -8 0 -15 5 -15 10 0 6 -7
10 -15 10 -12 0 -13 -4 -3 -25z"/>
<path d="M695 540 c3 -5 8 -10 11 -10 2 0 4 5 4 10 0 6 -5 10 -11 10 -5 0 -7
-4 -4 -10z"/>
<path d="M845 540 c-19 -7 -19 -8 5 -18 17 -6 27 -6 32 2 17 26 3 33 -37 16z"/>
<path d="M8261 541 c-7 -5 -12 -14 -10 -20 2 -6 10 -2 17 9 14 22 13 23 -7 11z"/>
<path d="M8546 539 c5 -9 31 -6 40 4 4 4 -4 6 -19 5 -14 -1 -24 -5 -21 -9z"/>
<path d="M8624 534 c9 -8 13 -20 10 -26 -3 -5 3 -4 14 3 20 13 20 13 -5 26
-33 17 -38 16 -19 -3z"/>
<path d="M8955 540 c11 -18 -6 -32 -23 -18 -13 11 -14 11 -10 -2 3 -9 15 -14
28 -12 19 2 21 0 11 -12 -10 -12 -9 -13 8 -9 11 3 22 12 25 20 3 8 1 11 -4 8
-6 -3 -10 3 -10 14 0 12 -7 21 -16 21 -8 0 -12 -4 -9 -10z"/>
<path d="M285 510 c20 -39 36 -47 22 -10 -6 16 -17 32 -24 34 -10 4 -10 -2 2
-24z"/>
<path d="M1260 530 c0 -5 7 -7 15 -4 8 4 15 8 15 10 0 2 -7 4 -15 4 -8 0 -15
-4 -15 -10z"/>
<path d="M2410 530 c0 -5 5 -10 11 -10 5 0 7 5 4 10 -3 6 -8 10 -11 10 -2 0
-4 -4 -4 -10z"/>
<path d="M8697 518 c-25 -26 -16 -33 12 -9 12 11 18 21 14 24 -4 2 -16 -5 -26
-15z"/>
<path d="M0 521 c0 -15 49 -26 62 -13 8 8 6 13 -7 18 -12 5 -20 3 -23 -5 -3
-9 -7 -9 -18 0 -10 8 -14 8 -14 0z"/>
<path d="M8427 524 c-3 -5 1 -15 9 -22 16 -14 18 -5 5 17 -5 7 -11 9 -14 5z"/>
<path d="M551 504 c0 -11 3 -14 6 -6 3 7 2 16 -1 19 -3 4 -6 -2 -5 -13z"/>
<path d="M1370 508 c0 -9 5 -20 11 -23 17 -11 18 -2 3 19 -12 17 -14 17 -14 4z"/>
<path d="M8840 505 c0 -8 4 -15 10 -15 5 0 7 7 4 15 -4 8 -8 15 -10 15 -2 0
-4 -7 -4 -15z"/>
<path d="M8656 483 c9 -36 12 -39 26 -25 9 9 9 12 0 12 -7 0 -12 6 -12 14 0 8
-5 18 -10 21 -7 4 -8 -3 -4 -22z"/>
<path d="M1155 490 c-19 -8 -19 -9 3 -9 12 -1 22 4 22 9 0 6 -1 10 -2 9 -2 0
-12 -4 -23 -9z"/>
<path d="M8230 490 c-9 -6 -10 -10 -3 -10 6 0 15 5 18 10 8 12 4 12 -15 0z"/>
<path d="M8557 493 c-13 -13 -7 -32 8 -27 8 4 15 12 15 20 0 15 -12 19 -23 7z"/>
<path d="M250 475 c0 -8 2 -15 4 -15 2 0 6 7 10 15 3 8 1 15 -4 15 -6 0 -10
-7 -10 -15z"/>
<path d="M1820 480 c0 -5 5 -10 10 -10 6 0 10 5 10 10 0 6 -4 10 -10 10 -5 0
-10 -4 -10 -10z"/>
<path d="M2116 472 c-4 -13 -5 -26 -2 -29 10 -11 18 4 14 29 l-4 23 -8 -23z"/>
<path d="M2247 467 c-10 -15 -12 -29 -6 -38 6 -10 9 -8 9 11 0 18 3 21 9 11 7
-10 9 -7 8 12 -1 15 -3 27 -3 27 -1 0 -9 -10 -17 -23z"/>
<path d="M2425 481 c-3 -5 -1 -12 5 -16 5 -3 10 1 10 9 0 18 -6 21 -15 7z"/>
<path d="M8478 483 c7 -3 16 -2 19 1 4 3 -2 6 -13 5 -11 0 -14 -3 -6 -6z"/>
<path d="M1870 465 c0 -9 6 -12 15 -9 8 4 12 10 9 15 -8 14 -24 10 -24 -6z"/>
<path d="M8965 470 c-4 -6 -12 -8 -18 -4 -7 3 -4 -1 5 -9 10 -8 15 -17 11 -21
-4 -4 0 -4 10 0 20 7 23 24 5 24 -9 0 -8 4 2 10 9 6 10 10 3 10 -6 0 -15 -5
-18 -10z"/>
<path d="M11 461 c-8 -5 -11 -16 -8 -25 10 -25 27 -19 27 9 0 28 0 28 -19 16z"/>
<path d="M200 456 c0 -8 6 -16 14 -19 10 -4 14 0 13 14 -1 21 -27 27 -27 5z"/>
<path d="M368 448 c-15 -15 -16 -18 -3 -18 9 0 18 7 22 15 8 23 0 24 -19 3z"/>
<path d="M1040 460 c0 -5 5 -10 11 -10 8 0 7 -5 -1 -15 -10 -13 -10 -19 4 -34
9 -10 14 -25 10 -34 -11 -28 5 -38 31 -20 28 21 31 36 10 53 -9 7 -13 21 -10
31 5 14 1 19 -14 19 -12 0 -21 5 -21 10 0 6 -4 10 -10 10 -5 0 -10 -4 -10 -10z
m41 -29 c-12 -8 -12 -12 2 -26 19 -18 23 -50 6 -40 -6 4 -8 9 -5 12 3 4 -4 15
-16 25 -19 16 -20 21 -8 28 8 6 20 10 25 10 6 0 4 -4 -4 -9z"/>
<path d="M8620 466 c0 -2 6 -9 13 -15 10 -8 14 -7 14 4 0 8 -6 15 -14 15 -7 0
-13 -2 -13 -4z"/>
<path d="M8906 457 c3 -10 9 -15 12 -12 3 3 0 11 -7 18 -10 9 -11 8 -5 -6z"/>
<path d="M148 450 c-2 -8 -13 -15 -24 -15 -20 0 -28 -35 -8 -42 20 -7 52 31
44 52 -5 15 -8 16 -12 5z"/>
<path d="M516 452 c-2 -4 1 -18 8 -31 12 -22 13 -22 13 8 0 29 -10 40 -21 23z"/>
<path d="M677 453 c-11 -10 -8 -45 2 -38 6 3 9 14 8 25 -1 23 -1 22 -10 13z"/>
<path d="M790 450 c0 -5 5 -10 10 -10 6 0 10 5 10 10 0 6 -4 10 -10 10 -5 0
-10 -4 -10 -10z"/>
<path d="M2198 453 c7 -3 16 -2 19 1 4 3 -2 6 -13 5 -11 0 -14 -3 -6 -6z"/>
<path d="M2335 450 c3 -5 8 -10 11 -10 2 0 4 5 4 10 0 6 -5 10 -11 10 -5 0 -7
-4 -4 -10z"/>
<path d="M715 440 c3 -5 8 -10 11 -10 2 0 4 5 4 10 0 6 -5 10 -11 10 -5 0 -7
-4 -4 -10z"/>
<path d="M8587 429 c-4 -16 -11 -20 -26 -16 -18 4 -19 2 -10 -14 5 -11 13 -18
17 -16 4 3 15 2 24 -2 15 -5 16 -9 4 -31 -7 -14 -18 -24 -24 -23 -6 2 -9 -4
-6 -12 9 -22 18 -18 32 15 8 17 18 28 23 25 5 -4 6 2 2 11 -4 12 -3 15 5 10 7
-4 19 -1 27 7 12 13 12 16 -8 21 -12 3 -26 1 -31 -4 -15 -15 -26 -12 -26 5 0
8 4 15 9 15 5 0 11 7 15 15 3 9 0 15 -8 15 -8 0 -16 -10 -19 -21z m53 -33 c0
-2 -7 -7 -16 -10 -8 -3 -12 -2 -9 4 6 10 25 14 25 6z"/>
<path d="M62 413 c-6 -16 -11 -22 -11 -15 -1 17 -18 15 -18 -3 0 -8 9 -15 19
-15 10 0 18 -7 18 -15 0 -8 4 -15 9 -15 5 0 8 20 8 45 -2 51 -11 57 -25 18z"/>
<path d="M280 430 c0 -5 5 -10 10 -10 6 0 10 5 10 10 0 6 -4 10 -10 10 -5 0
-10 -4 -10 -10z"/>
<path d="M420 430 c0 -5 5 -10 10 -10 6 0 10 5 10 10 0 6 -4 10 -10 10 -5 0
-10 -4 -10 -10z"/>
<path d="M1478 433 c7 -3 16 -2 19 1 4 3 -2 6 -13 5 -11 0 -14 -3 -6 -6z"/>
<path d="M1921 424 c0 -11 3 -14 6 -6 3 7 2 16 -1 19 -3 4 -6 -2 -5 -13z"/>
<path d="M8430 420 c0 -11 4 -20 9 -20 5 0 7 9 4 20 -3 11 -7 20 -9 20 -2 0
-4 -9 -4 -20z"/>
<path d="M8486 432 c-3 -5 1 -9 9 -9 8 0 15 4 15 9 0 4 -4 8 -9 8 -6 0 -12 -4
-15 -8z"/>
<path d="M8944 415 c2 -16 4 -33 5 -37 0 -5 6 -8 12 -8 8 0 9 4 0 13 -6 8 -8
16 -5 20 3 3 1 14 -5 24 -8 15 -9 13 -7 -12z"/>
<path d="M186 404 c1 -15 8 -30 15 -34 7 -5 9 -16 5 -26 -5 -14 -4 -16 4 -8 8
8 8 22 -2 53 -15 46 -27 54 -22 15z"/>
<path d="M390 420 c0 -5 5 -10 11 -10 5 0 7 5 4 10 -3 6 -8 10 -11 10 -2 0 -4
-4 -4 -10z"/>
<path d="M2377 417 c4 -6 8 -15 8 -19 0 -18 15 -19 15 -1 0 12 -7 24 -16 27
-10 4 -13 2 -7 -7z"/>
<path d="M870 409 c0 -8 26 -19 46 -19 8 0 14 6 14 13 0 7 -13 12 -30 12 -16
1 -30 -2 -30 -6z"/>
<path d="M2070 415 c0 -12 40 -48 47 -42 3 4 1 7 -6 7 -8 0 -10 7 -6 20 5 16
2 20 -14 20 -12 0 -21 -2 -21 -5z"/>
<path d="M8684 400 c0 -13 7 -20 20 -20 18 0 19 1 1 20 -10 11 -19 20 -19 20
-1 0 -2 -9 -2 -20z"/>
<path d="M8756 411 c-3 -5 1 -12 10 -15 22 -8 25 -4 9 11 -8 7 -16 9 -19 4z"/>
<path d="M253 395 c0 -8 4 -15 9 -15 4 0 8 4 8 9 0 6 -4 12 -8 15 -5 3 -9 -1
-9 -9z"/>
<path d="M1305 400 c-3 -4 -1 -19 4 -32 8 -19 10 -20 10 -4 1 15 4 16 15 7 11
-9 15 -9 20 1 3 7 3 1 0 -13 -3 -15 0 -30 8 -36 10 -9 13 -4 13 24 0 30 -5 37
-32 48 -18 8 -35 10 -38 5z"/>
<path d="M1435 400 c3 -5 8 -10 11 -10 2 0 4 5 4 10 0 6 -5 10 -11 10 -5 0 -7
-4 -4 -10z"/>
<path d="M1500 402 c0 -12 19 -26 26 -19 2 2 -2 10 -11 17 -9 8 -15 8 -15 2z"/>
<path d="M8810 400 c0 -5 5 -10 11 -10 5 0 7 5 4 10 -3 6 -8 10 -11 10 -2 0
-4 -4 -4 -10z"/>
<path d="M8867 399 c-14 -8 -15 -14 -6 -32 12 -21 11 -21 -8 -4 -11 9 -23 17
-26 17 -4 0 -7 -8 -7 -17 0 -15 2 -16 10 -3 8 13 10 12 10 -2 0 -10 -9 -27
-19 -37 -17 -17 -18 -20 -4 -26 9 -3 21 -1 26 4 5 5 17 7 26 3 14 -5 14 -4 1
13 -11 14 -12 19 -2 22 6 3 12 11 12 18 0 8 4 17 10 20 5 3 7 0 4 -9 -4 -11 0
-13 15 -9 20 5 26 -5 22 -30 -1 -5 3 -6 8 -2 7 4 6 14 -1 30 -6 13 -15 22 -19
19 -5 -3 -9 0 -9 5 0 6 -7 11 -16 11 -8 0 -12 5 -9 10 8 12 5 12 -18 -1z"/>
<path d="M440 390 c0 -5 5 -10 11 -10 5 0 7 5 4 10 -3 6 -8 10 -11 10 -2 0 -4
-4 -4 -10z"/>
<path d="M962 383 c-15 -6 -6 -23 14 -23 8 0 14 7 14 15 0 15 -6 17 -28 8z"/>
<path d="M1829 381 c7 -5 11 -13 7 -19 -3 -6 -2 -13 4 -17 5 -3 10 1 10 9 0 9
5 16 11 16 7 0 9 -12 5 -35 -4 -19 -3 -35 2 -35 8 0 26 71 19 76 -1 0 -18 4
-37 8 -22 4 -30 3 -21 -3z"/>
<path d="M8415 380 c3 -5 11 -10 16 -10 6 0 7 5 4 10 -3 6 -11 10 -16 10 -6 0
-7 -4 -4 -10z"/>
<path d="M410 369 c0 -5 5 -7 10 -4 6 3 10 8 10 11 0 2 -4 4 -10 4 -5 0 -10
-5 -10 -11z"/>
<path d="M620 355 c0 -14 2 -25 4 -25 2 0 6 11 8 25 3 14 1 25 -3 25 -5 0 -9
-11 -9 -25z"/>
<path d="M1672 355 c1 -14 6 -25 10 -25 4 0 8 11 8 25 0 14 -4 25 -10 25 -5 0
-9 -11 -8 -25z"/>
<path d="M2050 370 c0 -5 5 -10 10 -10 6 0 10 5 10 10 0 6 -4 10 -10 10 -5 0
-10 -4 -10 -10z"/>
<path d="M8990 370 c-1 -8 -1 -22 0 -29 1 -13 -1 -13 -14 -2 -11 9 -16 10 -16
2 0 -6 5 -11 10 -11 6 0 10 -7 10 -15 0 -18 -20 -20 -20 -2 0 6 -7 -2 -16 -19
-11 -23 -21 -30 -35 -27 -10 3 -16 9 -13 14 3 5 8 7 12 5 4 -2 13 3 21 11 11
12 10 14 -5 11 -11 -2 -26 -14 -35 -26 -11 -15 -19 -20 -23 -13 -4 6 -15 11
-24 10 -12 0 -11 -3 6 -9 12 -5 27 -20 32 -32 5 -13 9 -17 9 -10 1 7 5 10 11
7 6 -3 7 1 4 10 -5 11 -2 14 10 9 10 -4 18 0 22 11 5 13 9 14 15 3 7 -10 9 -9
9 5 0 11 5 15 11 11 6 -3 9 -17 6 -30 -2 -13 0 -21 5 -18 6 4 8 18 5 33 -3 14
-1 34 5 44 5 10 7 30 5 45 -2 15 -5 20 -7 12z"/>
<path d="M150 355 c0 -9 5 -15 10 -13 12 4 11 16 -1 24 -5 3 -9 -2 -9 -11z"/>
<path d="M250 354 c0 -9 7 -14 17 -12 25 5 28 28 4 28 -12 0 -21 -6 -21 -16z"/>
<path d="M8375 360 c-3 -5 -1 -10 4 -10 6 0 11 5 11 10 0 6 -2 10 -4 10 -3 0
-8 -4 -11 -10z"/>
<path d="M8570 355 c-7 -9 -8 -15 -2 -15 5 0 12 7 16 15 3 8 4 15 2 15 -2 0
-9 -7 -16 -15z"/>
<path d="M348 353 c-35 -5 -47 -39 -21 -58 10 -8 14 -15 10 -15 -4 0 -3 -8 2
-19 9 -16 6 -21 -18 -31 -16 -6 -38 -10 -48 -7 -12 3 -9 5 10 6 37 1 35 21 -3
21 -22 0 -33 -6 -39 -22 -9 -25 8 -106 19 -88 5 8 12 7 23 -4 8 -9 20 -16 26
-16 10 0 31 61 31 93 0 19 15 23 26 6 4 -8 9 -7 15 2 12 20 11 37 -2 19 -8
-11 -9 -7 -4 18 4 21 3 32 -5 32 -6 0 -8 -5 -4 -12 4 -7 3 -8 -5 -4 -9 6 -9
11 1 23 8 10 14 11 16 4 4 -13 32 -15 32 -2 0 5 -7 12 -16 15 -10 4 -13 13 -9
26 3 11 3 19 -2 19 -4 -1 -20 -4 -35 -6z m2 -45 c0 -6 -6 -5 -15 2 -8 7 -15
14 -15 16 0 2 7 1 15 -2 8 -4 15 -11 15 -16z m-40 -108 c0 -5 -7 -7 -15 -4 -8
4 -15 1 -15 -7 0 -7 -3 -10 -6 -6 -9 9 5 27 22 27 8 0 14 -4 14 -10z m0 -34
c0 -23 -15 -27 -36 -10 -10 9 -14 13 -7 10 6 -4 14 -2 18 4 9 15 25 12 25 -4z"/>
<path d="M746 335 c-10 -13 -22 -22 -27 -20 -14 9 -20 -14 -9 -35 11 -21 40
-28 40 -9 0 5 5 7 10 4 6 -3 10 0 10 9 0 8 -5 16 -11 18 -14 5 0 38 15 38 7 0
18 -12 24 -26 11 -23 13 -24 29 -9 14 14 14 18 2 26 -8 5 -20 9 -26 9 -7 0
-13 5 -13 10 0 19 -25 10 -44 -15z m-6 -55 c0 -5 -2 -10 -4 -10 -3 0 -8 5 -11
10 -3 6 -1 10 4 10 6 0 11 -4 11 -10z"/>
<path d="M1250 296 c0 -43 5 -67 14 -75 12 -10 13 -8 9 8 -3 14 -1 21 8 21 9
0 10 3 3 8 -18 12 -24 63 -8 69 11 4 12 9 3 19 -22 26 -29 14 -29 -50z"/>
<path d="M1740 343 c0 -11 7 -23 15 -27 19 -7 19 3 0 28 -15 19 -15 19 -15 -1z"/>
<path d="M2397 340 c3 -11 7 -20 9 -20 2 0 4 9 4 20 0 11 -4 20 -9 20 -5 0 -7
-9 -4 -20z"/>
<path d="M8695 350 c-3 -5 -1 -10 4 -10 6 0 11 5 11 10 0 6 -2 10 -4 10 -3 0
-8 -4 -11 -10z"/>
<path d="M426 341 c-4 -6 -1 -11 6 -11 10 0 10 -2 0 -8 -9 -7 -8 -13 8 -27 11
-10 20 -13 20 -7 0 6 -6 12 -12 15 -7 2 -10 8 -5 12 4 5 13 3 19 -3 7 -7 19
-12 28 -11 10 0 11 2 3 6 -7 2 -13 12 -13 20 0 9 -6 13 -14 10 -7 -3 -18 -1
-24 5 -6 6 -12 6 -16 -1z"/>
<path d="M548 343 c7 -3 16 -2 19 1 4 3 -2 6 -13 5 -11 0 -14 -3 -6 -6z"/>
<path d="M1200 336 c0 -9 -4 -16 -10 -16 -5 0 -10 -22 -10 -50 0 -27 5 -50 10
-50 6 0 10 11 10 25 0 14 4 25 8 25 12 0 13 68 2 75 -6 3 -10 -1 -10 -9z"/>
<path d="M1910 343 c0 -22 23 -63 35 -63 15 0 26 36 18 56 -7 20 -23 7 -17
-14 4 -11 -2 -8 -15 8 -11 14 -21 20 -21 13z"/>
<path d="M1983 343 c-13 -5 -7 -33 7 -33 11 0 21 28 12 33 -4 3 -12 2 -19 0z"/>
<path d="M2050 334 c0 -8 5 -12 10 -9 6 3 10 10 10 16 0 5 -4 9 -10 9 -5 0
-10 -7 -10 -16z"/>
<path d="M8311 334 c0 -11 3 -14 6 -6 3 7 2 16 -1 19 -3 4 -6 -2 -5 -13z"/>
<path d="M0 330 c0 -6 7 -10 15 -10 19 0 19 6 0 14 -8 3 -15 1 -15 -4z"/>
<path d="M221 321 c-8 -5 -12 -18 -9 -29 4 -14 -1 -23 -18 -31 -15 -6 -25 -7
-29 -1 -4 6 -1 10 4 10 6 0 11 5 11 11 0 8 -5 7 -15 -1 -9 -7 -14 -19 -11 -26
3 -7 1 -16 -5 -19 -5 -4 -7 -10 -4 -15 3 -5 1 -12 -5 -15 -8 -5 -7 -11 1 -21
11 -13 5 -14 -40 -8 -40 5 -55 4 -62 -7 -11 -18 -12 -32 -1 -25 5 3 9 -1 9 -9
0 -8 -4 -12 -9 -9 -4 3 -8 -3 -8 -12 0 -10 -3 -14 -8 -10 -10 11 -9 50 2 57 5
4 5 13 1 20 -6 9 -10 8 -16 -7 -12 -30 -10 -72 4 -77 9 -4 9 -8 -2 -15 -9 -6
-11 -17 -7 -28 7 -16 10 -13 20 16 8 25 17 34 30 32 12 -2 16 1 10 9 -4 7 -3
10 3 6 5 -3 10 0 10 8 0 8 -4 12 -9 9 -4 -3 -8 2 -8 11 0 9 4 14 9 10 5 -3 12
-1 16 5 9 15 22 12 29 -6 5 -14 4 -15 -9 -4 -13 11 -14 8 -11 -19 2 -18 -1
-31 -8 -31 -14 0 -41 -39 -41 -60 0 -9 -8 -14 -18 -12 -10 2 -17 -3 -17 -13 0
-25 50 -18 75 11 18 21 23 23 28 10 4 -10 1 -16 -8 -16 -8 0 -15 -4 -15 -10 0
-5 14 -10 30 -10 17 0 30 4 30 10 0 17 33 49 43 43 6 -4 8 1 4 10 -3 10 -3 17
1 17 5 0 8 16 8 36 0 21 -2 32 -4 26 -9 -27 -23 -10 -17 19 5 22 4 29 -4 25
-7 -5 -11 2 -11 18 l0 26 20 -20 c11 -11 20 -27 20 -35 0 -8 5 -15 10 -15 18
0 11 42 -9 47 -17 4 -17 7 6 54 26 52 28 74 4 60z m-81 -196 c-7 -9 -15 -13
-17 -11 -6 6 20 36 26 30 2 -2 -2 -10 -9 -19z m21 -68 c-10 -9 -11 -8 -5 6 3
10 9 15 12 12 3 -3 0 -11 -7 -18z"/>
<path d="M525 320 c-3 -5 -1 -10 4 -10 6 0 11 5 11 10 0 6 -2 10 -4 10 -3 0
-8 -4 -11 -10z"/>
<path d="M1010 319 c0 -5 5 -7 10 -4 6 3 10 8 10 11 0 2 -4 4 -10 4 -5 0 -10
-5 -10 -11z"/>
<path d="M1510 310 c0 -19 3 -21 12 -12 9 9 9 15 0 24 -9 9 -12 7 -12 -12z"/>
<path d="M1640 315 c-11 -13 -10 -14 4 -9 9 3 16 10 16 15 0 13 -6 11 -20 -6z"/>
<path d="M2155 320 c3 -5 8 -10 11 -10 2 0 4 5 4 10 0 6 -5 10 -11 10 -5 0 -7
-4 -4 -10z"/>
<path d="M2486 313 c-6 -14 -5 -15 5 -6 7 7 10 15 7 18 -3 3 -9 -2 -12 -12z"/>
<path d="M8384 319 c-3 -6 -2 -15 3 -20 5 -5 9 -1 9 11 0 23 -2 24 -12 9z"/>
<path d="M8416 315 c4 -8 7 -15 9 -15 2 0 5 7 9 15 3 9 0 15 -9 15 -9 0 -12
-6 -9 -15z"/>
<path d="M8519 308 c-19 -16 -20 -20 -5 -14 10 3 26 1 35 -6 14 -12 14 -11 3
4 -8 9 -11 22 -7 28 10 16 0 12 -26 -12z"/>
<path d="M8654 319 c-3 -6 -1 -16 6 -22 10 -9 11 -9 5 2 -4 8 -2 17 6 22 9 6
10 9 2 9 -6 0 -15 -5 -19 -11z"/>
<path d="M8770 320 c0 -5 5 -10 10 -10 6 0 10 5 10 10 0 6 -4 10 -10 10 -5 0
-10 -4 -10 -10z"/>
<path d="M280 293 c0 -22 2 -25 10 -13 13 20 13 40 0 40 -5 0 -10 -12 -10 -27z"/>
<path d="M590 309 c0 -5 5 -7 10 -4 6 3 10 8 10 11 0 2 -4 4 -10 4 -5 0 -10
-5 -10 -11z"/>
<path d="M651 299 c5 -11 15 -17 20 -13 14 9 6 27 -14 30 -14 2 -15 -1 -6 -17z"/>
<path d="M1398 313 c7 -3 16 -2 19 1 4 3 -2 6 -13 5 -11 0 -14 -3 -6 -6z"/>
<path d="M1771 306 c-9 -10 -8 -15 3 -19 8 -3 17 1 20 8 7 20 -9 28 -23 11z"/>
<path d="M2260 300 c-14 -11 -31 -20 -37 -20 -7 0 -13 -5 -13 -11 0 -5 5 -7
11 -4 6 4 16 -1 23 -11 13 -18 38 -12 35 9 -3 22 1 37 9 35 9 -4 12 10 3 17
-3 2 -17 -4 -31 -15z"/>
<path d="M1030 299 c0 -7 -10 -20 -22 -31 -17 -14 -23 -16 -30 -6 -6 10 -10
10 -17 -1 -5 -8 -14 -10 -21 -6 -8 5 -11 3 -8 -6 5 -16 45 -21 54 -8 3 5 12 9
20 9 8 0 12 -4 9 -10 -3 -5 -1 -15 5 -22 48 -57 51 -63 38 -67 -18 -6 -38 -27
-38 -40 0 -6 10 -11 23 -11 18 0 19 2 7 11 -11 8 -7 9 18 4 28 -6 32 -4 32 14
0 12 -9 30 -20 41 -23 23 -25 36 -7 43 7 4 6 6 -4 6 -17 1 -34 42 -30 74 1 9
0 17 -3 17 -3 0 -6 -5 -6 -11z"/>
<path d="M1125 300 c-3 -5 1 -10 9 -10 9 0 16 5 16 10 0 6 -4 10 -9 10 -6 0
-13 -4 -16 -10z"/>
<path d="M2320 286 c0 -8 -6 -16 -12 -19 -7 -2 -10 -8 -5 -12 4 -5 13 -1 20 9
7 9 22 15 36 14 13 -2 26 2 28 8 2 6 -11 11 -32 12 -24 1 -35 -3 -35 -12z"/>
<path d="M2446 274 c-18 -25 -18 -25 3 -12 12 7 21 18 21 25 0 18 -2 16 -24
-13z"/>
<path d="M8776 283 c-6 -14 -5 -15 5 -6 7 7 10 15 7 18 -3 3 -9 -2 -12 -12z"/>
<path d="M60 285 c0 -5 5 -17 10 -25 5 -8 10 -10 10 -5 0 6 -5 17 -10 25 -5 8
-10 11 -10 5z"/>
<path d="M1576 281 c-3 -5 1 -11 9 -14 9 -4 12 -1 8 9 -6 16 -10 17 -17 5z"/>
<path d="M1825 280 c-3 -5 -1 -10 4 -10 6 0 11 5 11 10 0 6 -2 10 -4 10 -3 0
-8 -4 -11 -10z"/>
<path d="M8566 274 c-5 -14 -9 -14 -24 -3 -15 13 -16 12 -3 -3 17 -23 23 -23
39 2 7 11 8 20 3 20 -5 0 -12 -7 -15 -16z"/>
<path d="M8630 280 c0 -5 5 -10 11 -10 8 0 7 -5 -2 -16 -10 -13 -10 -17 1 -24
8 -5 17 -7 19 -4 3 3 -1 9 -9 14 -12 8 -12 10 3 16 9 3 17 10 17 16 0 5 -4 6
-10 3 -5 -3 -10 -1 -10 4 0 6 -4 11 -10 11 -5 0 -10 -4 -10 -10z"/>
<path d="M16 249 c12 -13 20 -16 22 -9 3 7 -2 16 -9 21 -25 16 -32 9 -13 -12z"/>
<path d="M109 258 c0 -7 -2 -21 -4 -30 -2 -10 2 -15 9 -12 13 5 17 54 4 54 -4
0 -8 -6 -9 -12z"/>
<path d="M570 254 c0 -14 3 -14 15 -4 8 7 15 14 15 16 0 2 -7 4 -15 4 -8 0
-15 -7 -15 -16z"/>
<path d="M789 262 c16 -5 13 -32 -4 -32 -11 0 -13 -8 -8 -31 4 -21 1 -34 -8
-41 -11 -7 -9 -8 6 -6 13 2 21 12 23 28 2 14 8 29 13 35 5 5 9 17 9 26 0 12 6
16 20 12 11 -3 20 -1 20 5 0 6 -18 10 -41 9 -23 -1 -36 -3 -30 -5z"/>
<path d="M1140 260 c0 -5 5 -10 11 -10 5 0 7 5 4 10 -3 6 -8 10 -11 10 -2 0
-4 -4 -4 -10z"/>
<path d="M1548 258 c5 -8 6 -22 1 -33 -11 -27 -11 -35 0 -35 5 0 14 14 20 32
9 24 8 34 -1 40 -20 12 -32 9 -20 -4z"/>
<path d="M2013 255 c-6 -7 -10 -15 -7 -18 3 -2 1 -23 -5 -46 -6 -29 -6 -41 3
-41 6 0 4 -4 -4 -10 -8 -5 -11 -12 -7 -17 4 -4 17 -1 28 6 12 7 24 10 27 6 4
-3 0 -10 -8 -15 -12 -8 -12 -10 -2 -10 8 0 16 9 19 20 5 21 27 27 37 11 9 -14
-5 -42 -18 -34 -6 3 -5 0 3 -8 10 -11 15 -11 18 -1 3 6 9 10 14 6 12 -7 11 0
-3 31 -10 22 -31 31 -60 26 -15 -2 -8 52 8 64 13 9 14 16 6 31 -11 18 -11 18
-12 -3 0 -23 -14 -31 -24 -14 -4 5 -1 11 6 13 7 3 8 7 3 10 -6 3 -15 0 -22 -7z
m4 -82 c-3 -10 -5 -4 -5 12 0 17 2 24 5 18 2 -7 2 -21 0 -30z"/>
<path d="M8411 247 c-13 -21 -12 -21 5 -5 10 10 16 20 13 22 -3 3 -11 -5 -18
-17z"/>
<path d="M8708 263 c7 -3 16 -2 19 1 4 3 -2 6 -13 5 -11 0 -14 -3 -6 -6z"/>
<path d="M1090 234 c0 -14 4 -23 9 -20 5 3 7 15 4 26 -7 28 -13 25 -13 -6z"/>
<path d="M1683 249 c-14 -5 -23 -17 -23 -30 0 -17 -4 -20 -22 -15 -13 3 -26 6
-30 6 -5 0 -8 8 -9 18 0 14 -2 14 -9 -3 -10 -25 13 -46 43 -38 12 3 35 7 52
11 26 4 28 6 10 13 -19 8 -19 8 3 15 22 6 29 19 15 27 -5 3 -18 1 -30 -4z"/>
<path d="M2095 250 c-3 -5 -1 -10 4 -10 6 0 11 5 11 10 0 6 -2 10 -4 10 -3 0
-8 -4 -11 -10z"/>
<path d="M610 240 c0 -5 7 -10 16 -10 8 0 12 5 9 10 -3 6 -10 10 -16 10 -5 0
-9 -4 -9 -10z"/>
<path d="M1740 240 c0 -5 7 -10 15 -10 8 0 15 5 15 10 0 6 -7 10 -15 10 -8 0
-15 -4 -15 -10z"/>
<path d="M8943 235 c0 -8 4 -15 9 -15 4 0 8 4 8 9 0 6 -4 12 -8 15 -5 3 -9 -1
-9 -9z"/>
<path d="M705 230 c-3 -5 -1 -10 4 -10 6 0 11 5 11 10 0 6 -2 10 -4 10 -3 0
-8 -4 -11 -10z"/>
<path d="M861 224 c0 -11 3 -14 6 -6 3 7 2 16 -1 19 -3 4 -6 -2 -5 -13z"/>
<path d="M1125 231 c3 -5 1 -12 -4 -16 -12 -7 -3 -35 10 -35 5 0 9 14 9 30 0
17 -5 30 -11 30 -5 0 -8 -4 -4 -9z"/>
<path d="M2497 233 c-4 -3 -7 -11 -7 -17 0 -6 5 -5 12 2 6 6 9 14 7 17 -3 3
-9 2 -12 -2z"/>
<path d="M470 211 c0 -11 5 -23 10 -26 6 -3 10 3 10 14 0 11 -4 23 -10 26 -5
3 -10 -3 -10 -14z"/>
<path d="M570 220 c0 -5 5 -10 10 -10 6 0 10 5 10 10 0 6 -4 10 -10 10 -5 0
-10 -4 -10 -10z"/>
<path d="M8525 219 c-4 -6 -5 -12 -2 -15 2 -3 7 2 10 11 7 17 1 20 -8 4z"/>
<path d="M8800 213 c0 -10 4 -14 8 -8 4 6 11 13 16 18 5 4 2 7 -7 7 -10 0 -17
-8 -17 -17z"/>
<path d="M993 196 c7 -14 16 -21 20 -17 11 11 -2 41 -18 41 -10 0 -11 -5 -2
-24z"/>
<path d="M1825 210 c-3 -5 1 -10 10 -10 9 0 13 5 10 10 -3 6 -8 10 -10 10 -2
0 -7 -4 -10 -10z"/>
<path d="M2215 209 c-4 -6 -5 -12 -2 -15 2 -3 7 2 10 11 7 17 1 20 -8 4z"/>
<path d="M2430 209 c0 -5 5 -7 10 -4 6 3 10 8 10 11 0 2 -4 4 -10 4 -5 0 -10
-5 -10 -11z"/>
<path d="M8455 210 c3 -5 11 -10 16 -10 6 0 7 5 4 10 -3 6 -11 10 -16 10 -6 0
-7 -4 -4 -10z"/>
<path d="M8744 208 c3 -10 1 -20 -4 -23 -12 -8 -13 -25 -1 -25 13 0 20 36 9
51 -8 11 -9 10 -4 -3z"/>
<path d="M820 195 c0 -8 5 -15 10 -15 6 0 10 7 10 15 0 8 -4 15 -10 15 -5 0
-10 -7 -10 -15z"/>
<path d="M919 208 c0 -2 -2 -12 -4 -22 -2 -10 -9 -22 -15 -26 -8 -5 -8 -10 -2
-14 14 -8 31 16 29 42 -1 19 -5 28 -8 20z"/>
<path d="M1460 195 c0 -8 5 -15 10 -15 6 0 10 7 10 15 0 8 -4 15 -10 15 -5 0
-10 -7 -10 -15z"/>
<path d="M2050 200 c0 -12 17 -12 45 0 17 7 15 9 -12 9 -18 1 -33 -3 -33 -9z"/>
<path d="M2350 200 c0 -12 8 -12 35 0 18 8 17 9 -7 9 -16 1 -28 -3 -28 -9z"/>
<path d="M8670 194 c0 -8 5 -12 10 -9 6 4 8 11 5 16 -9 14 -15 11 -15 -7z"/>
<path d="M8855 199 c-9 -14 -2 -20 14 -10 8 6 9 11 3 15 -6 3 -14 1 -17 -5z"/>
<path d="M8917 195 c3 -8 9 -12 14 -9 12 7 11 11 -5 17 -10 4 -13 1 -9 -8z"/>
<path d="M660 190 c-8 -5 -11 -12 -7 -16 3 -4 13 -2 20 4 8 7 17 9 20 5 4 -3
7 -1 7 5 0 14 -19 15 -40 2z"/>
<path d="M720 190 c0 -5 6 -10 14 -10 8 0 18 5 21 10 3 6 -3 10 -14 10 -12 0
-21 -4 -21 -10z"/>
<path d="M1156 192 c-3 -5 8 -9 25 -10 16 0 27 4 24 9 -8 11 -42 12 -49 1z"/>
<path d="M8951 188 c0 -9 -6 -18 -13 -20 -16 -6 -18 -48 -2 -48 7 0 15 6 17
13 4 10 6 10 6 0 1 -18 21 -16 21 2 0 8 -4 15 -9 15 -5 0 -12 12 -14 28 -2 15
-5 20 -6 10z"/>
<path d="M943 170 c-13 -13 -23 -31 -23 -39 0 -12 2 -13 8 -4 6 10 14 10 34 1
20 -10 25 -19 24 -46 -1 -19 4 -36 9 -38 15 -5 41 14 32 23 -5 4 -12 1 -16 -6
-7 -10 -11 -8 -16 9 -5 15 -2 26 6 32 11 7 11 11 2 15 -7 2 -13 11 -13 19 0 8
-4 14 -9 14 -5 0 -11 10 -13 22 l-3 23 -22 -25z"/>
<path d="M1512 170 c0 -14 2 -19 5 -12 2 6 2 18 0 25 -3 6 -5 1 -5 -13z"/>
<path d="M1863 171 c4 -26 17 -40 17 -18 0 10 7 17 15 17 13 0 14 -4 5 -21 -8
-15 -8 -24 0 -34 8 -10 8 -14 -2 -18 -8 -2 -9 -8 -4 -13 5 -5 11 -4 13 4 6 15
23 16 23 1 0 -6 -7 -18 -16 -26 -13 -14 -17 -14 -26 -2 -8 11 -9 10 -4 -4 3
-10 6 -25 6 -33 0 -8 5 -14 10 -14 6 0 10 9 10 19 0 10 6 21 13 24 10 4 12 -3
9 -24 -4 -27 -2 -29 27 -29 20 0 34 7 41 19 14 27 13 31 -6 24 -10 -4 -15 -1
-14 8 4 26 0 39 -11 39 -6 0 -9 -7 -6 -15 4 -8 2 -17 -2 -20 -5 -2 -11 4 -14
15 -3 11 -1 23 4 26 5 3 8 13 8 22 -1 15 -2 15 -6 -1 -6 -24 -27 -16 -31 10
-2 14 3 23 15 26 15 3 14 5 -7 14 -61 25 -70 26 -67 4z"/>
<path d="M2080 180 c0 -5 5 -10 10 -10 6 0 10 5 10 10 0 6 -4 10 -10 10 -5 0
-10 -4 -10 -10z"/>
<path d="M8536 178 c3 -5 10 -6 15 -3 13 9 11 12 -6 12 -8 0 -12 -4 -9 -9z"/>
<path d="M8800 173 c0 -13 -3 -14 -12 -5 -7 7 -16 12 -22 12 -6 0 -5 -5 2 -12
7 -7 12 -20 12 -30 0 -23 19 -23 50 2 21 16 23 21 11 32 -12 11 -13 10 -8 -3
6 -17 -28 -44 -38 -30 -3 5 0 11 7 13 14 5 20 38 7 38 -5 0 -9 -8 -9 -17z"/>
<path d="M450 173 c0 -5 -4 -25 -9 -45 -7 -29 -6 -38 4 -38 8 0 13 8 13 18 -1
9 2 29 5 45 5 16 3 27 -3 27 -5 0 -10 -3 -10 -7z"/>
<path d="M1565 170 c4 -6 11 -8 16 -5 14 9 11 15 -7 15 -8 0 -12 -5 -9 -10z"/>
<path d="M2120 172 c0 -4 9 -13 19 -19 16 -10 20 -9 25 3 9 24 7 31 -5 14 -8
-11 -12 -12 -16 -2 -5 13 -23 17 -23 4z"/>
<path d="M2366 172 c-3 -5 9 -9 26 -10 24 -1 28 2 18 8 -19 12 -37 13 -44 2z"/>
<path d="M8495 170 c-3 -5 -1 -10 4 -10 6 0 11 5 11 10 0 6 -2 10 -4 10 -3 0
-8 -4 -11 -10z"/>
<path d="M8866 171 c-3 -5 -4 -16 0 -24 7 -20 46 -9 42 12 -4 18 -33 27 -42
12z m34 -11 c0 -5 -4 -10 -10 -10 -5 0 -10 5 -10 10 0 6 5 10 10 10 6 0 10 -4
10 -10z"/>
<path d="M1661 154 c0 -11 3 -14 6 -6 3 7 2 16 -1 19 -3 4 -6 -2 -5 -13z"/>
<path d="M8985 150 c10 -31 -13 -52 -47 -45 -18 4 -28 3 -28 -5 0 -6 -3 -9 -7
-7 -5 3 -14 -1 -20 -9 -8 -8 -9 -15 -3 -19 6 -3 10 -1 10 4 0 6 5 11 11 11 8
0 8 -5 -1 -15 -7 -8 -16 -12 -21 -9 -5 3 -9 0 -9 -6 0 -7 -7 -9 -16 -6 -8 3
-12 2 -9 -4 3 -6 1 -10 -4 -10 -6 0 -11 5 -11 10 0 6 -4 10 -9 10 -18 0 1 -36
20 -37 11 -1 17 2 14 6 -2 5 8 11 25 13 16 2 27 1 24 -4 -3 -4 3 -8 13 -8 15
0 16 -2 3 -10 -12 -8 -9 -9 11 -8 21 2 26 7 25 25 -1 14 -5 18 -10 12 -6 -5
-14 -9 -19 -9 -5 0 -1 7 7 16 9 8 13 21 9 27 -3 7 -2 9 2 4 5 -4 16 0 26 9 16
15 16 13 4 -22 -13 -38 -11 -64 6 -64 5 0 9 3 9 8 8 139 8 162 -1 162 -6 0 -8
-9 -4 -20z"/>
<path d="M540 150 c0 -5 5 -10 10 -10 6 0 10 5 10 10 0 6 -4 10 -10 10 -5 0
-10 -4 -10 -10z"/>
<path d="M2251 144 c0 -11 3 -14 6 -6 3 7 2 16 -1 19 -3 4 -6 -2 -5 -13z"/>
<path d="M2470 139 c0 -5 5 -7 10 -4 6 3 10 8 10 11 0 2 -4 4 -10 4 -5 0 -10
-5 -10 -11z"/>
<path d="M8745 140 c3 -5 11 -10 16 -10 6 0 7 5 4 10 -3 6 -11 10 -16 10 -6 0
-7 -4 -4 -10z"/>
<path d="M1700 114 c-6 -14 -8 -30 -4 -35 3 -5 -2 -9 -10 -9 -20 0 -20 -14 0
-31 13 -11 15 -11 13 2 -2 7 3 25 10 38 10 19 15 21 22 10 7 -12 9 -11 9 1 0
13 1 13 10 0 6 -9 10 -10 10 -3 0 8 7 8 30 0 25 -9 33 -9 47 5 13 14 14 20 3
33 -9 11 -16 12 -25 5 -9 -8 -14 -7 -18 2 -3 10 -9 8 -19 -5 -16 -21 -65 -20
-60 1 4 22 -8 13 -18 -14z"/>
<path d="M2370 130 c0 -5 9 -10 20 -10 11 0 20 5 20 10 0 6 -9 10 -20 10 -11
0 -20 -4 -20 -10z"/>
<path d="M2506 132 c-3 -5 1 -9 9 -9 8 0 15 4 15 9 0 4 -4 8 -9 8 -6 0 -12 -4
-15 -8z"/>
<path d="M220 120 c0 -5 5 -10 10 -10 6 0 10 5 10 10 0 6 -4 10 -10 10 -5 0
-10 -4 -10 -10z"/>
<path d="M361 90 c-12 -42 -31 -54 -31 -21 0 31 -17 34 -23 3 -3 -15 -1 -28 4
-30 5 -2 9 -11 9 -20 0 -15 -2 -15 -10 -2 -8 12 -10 12 -10 1 0 -10 -3 -11
-14 -2 -10 9 -15 8 -20 -4 -4 -12 4 -15 44 -15 45 0 49 2 53 28 l4 27 2 -27
c1 -23 6 -28 26 -28 30 0 34 26 6 35 -15 4 -18 13 -15 45 5 53 -10 59 -25 10z"/>
<path d="M2441 118 c-1 -11 8 -18 26 -20 25 -3 26 -4 10 -19 -9 -9 -13 -20 -9
-25 4 -5 0 -3 -8 3 -13 10 -16 8 -18 -13 -2 -24 -2 -24 29 -8 26 13 33 14 40
2 5 -8 9 -8 9 -2 0 6 -7 17 -15 24 -9 7 -14 19 -11 26 6 15 -19 38 -33 30 -5
-3 -12 0 -14 6 -4 8 -6 7 -6 -4z"/>
<path d="M8596 121 c-3 -5 1 -14 9 -21 8 -7 12 -16 9 -21 -3 -5 -1 -9 5 -9 19
0 19 15 1 38 -10 12 -21 18 -24 13z"/>
<path d="M795 110 c-3 -5 1 -10 9 -10 9 0 16 5 16 10 0 6 -4 10 -9 10 -6 0
-13 -4 -16 -10z"/>
<path d="M1193 113 c-32 -6 -31 -52 3 -76 l24 -18 -4 43 c-3 24 -3 35 0 26 6
-19 24 -25 24 -9 0 16 -12 41 -19 40 -3 -1 -16 -4 -28 -6z"/>
<path d="M1577 113 c-8 -12 3 -53 13 -53 5 0 11 -8 14 -17 2 -10 2 0 -1 22 -6
42 -17 63 -26 48z"/>
<path d="M1617 101 c3 -12 9 -21 14 -21 14 0 11 16 -5 29 -12 10 -13 8 -9 -8z"/>
<path d="M2307 113 c-7 -11 19 -33 29 -25 4 4 4 -1 1 -10 -4 -12 -2 -15 8 -12
23 9 55 -15 55 -41 0 -14 5 -25 10 -25 15 0 12 42 -5 64 -7 10 -18 15 -24 11
-6 -3 -11 -2 -11 4 0 5 6 12 13 15 6 4 2 4 -11 2 -14 -3 -25 1 -29 10 -5 15
-29 19 -36 7z"/>
<path d="M8665 110 c4 -6 11 -8 16 -5 14 9 11 15 -7 15 -8 0 -12 -5 -9 -10z"/>
<path d="M1097 103 c-30 -5 -32 -26 -2 -31 10 -3 15 0 11 7 -4 6 0 11 8 11 9
0 16 5 16 10 0 6 -1 9 -2 9 -2 -1 -16 -4 -31 -6z"/>
<path d="M8840 102 c-23 -11 -21 -28 3 -29 12 0 16 1 9 4 -10 4 -10 8 -1 19
13 15 11 16 -11 6z"/>
<path d="M962 75 c0 -16 2 -22 5 -12 2 9 2 23 0 30 -3 6 -5 -1 -5 -18z"/>
<path d="M1255 90 c-3 -5 -1 -10 4 -10 6 0 11 5 11 10 0 6 -2 10 -4 10 -3 0
-8 -4 -11 -10z"/>
<path d="M1400 89 c0 -5 -4 -7 -10 -4 -5 3 -10 -1 -10 -9 0 -9 6 -15 13 -13 6
1 11 -4 9 -11 -1 -7 7 -23 19 -35 17 -18 19 -19 13 -3 -4 11 -2 22 7 28 11 8
10 9 -3 4 -15 -4 -18 1 -18 24 0 17 -4 30 -10 30 -5 0 -10 -5 -10 -11z"/>
<path d="M8655 80 c-3 -5 -1 -10 4 -10 6 0 11 -7 11 -15 0 -8 5 -15 11 -15 6
0 9 7 5 15 -3 8 -1 15 4 15 6 0 10 5 10 10 0 6 -9 10 -19 10 -11 0 -23 -4 -26
-10z"/>
<path d="M810 65 c7 -8 17 -15 22 -15 6 0 5 7 -2 15 -7 8 -17 15 -22 15 -6 0
-5 -7 2 -15z"/>
<path d="M1837 66 c-4 -10 -1 -13 9 -9 7 3 14 9 14 14 0 14 -17 10 -23 -5z"/>
<path d="M2536 71 c-5 -7 -2 -20 7 -29 8 -9 17 -24 19 -32 3 -8 7 0 10 18 3
21 0 32 -8 32 -7 0 -14 5 -16 12 -3 9 -6 9 -12 -1z"/>
<path d="M8725 69 c-4 -6 -5 -12 -2 -15 2 -3 7 2 10 11 7 17 1 20 -8 4z"/>
<path d="M234 54 c3 -9 6 -21 6 -27 1 -13 30 22 30 35 0 4 -9 8 -21 8 -15 0
-19 -4 -15 -16z"/>
<path d="M430 61 c0 -6 5 -13 10 -16 6 -3 10 1 10 9 0 9 -4 16 -10 16 -5 0
-10 -4 -10 -9z"/>
<path d="M523 58 c-14 -19 -14 -58 1 -58 7 0 12 14 13 35 1 39 0 41 -14 23z"/>
<path d="M1127 64 c-3 -4 1 -13 9 -21 13 -14 13 -17 -3 -28 -15 -11 -13 -13
20 -13 43 0 45 4 13 41 -25 28 -29 31 -39 21z"/>
<path d="M1770 57 c0 -7 9 -13 20 -13 11 0 20 1 20 3 0 1 -9 7 -20 13 -15 8
-20 8 -20 -3z"/>
<path d="M2068 63 c7 -3 16 -2 19 1 4 3 -2 6 -13 5 -11 0 -14 -3 -6 -6z"/>
<path d="M8790 60 c-9 -6 -10 -10 -3 -10 6 0 15 5 18 10 8 12 4 12 -15 0z"/>
<path d="M1233 35 c10 -20 13 -22 18 -7 8 21 2 32 -16 32 -10 0 -11 -5 -2 -25z"/>
<path d="M747 43 c-11 -10 -8 -43 3 -43 6 0 10 11 10 25 0 26 -2 29 -13 18z"/>
<path d="M770 40 c0 -5 5 -10 10 -10 6 0 10 5 10 10 0 6 -4 10 -10 10 -5 0
-10 -4 -10 -10z"/>
<path d="M922 25 c0 -17 2 -22 5 -12 2 9 2 23 0 30 -3 6 -5 -1 -5 -18z"/>
<path d="M1333 43 c9 -2 23 -2 30 0 6 3 -1 5 -18 5 -16 0 -22 -2 -12 -5z"/>
<path d="M2276 41 c-4 -5 -2 -12 3 -15 5 -4 12 -2 15 3 4 5 2 12 -3 15 -5 4
-12 2 -15 -3z"/>
<path d="M8697 37 c-3 -9 -14 -17 -22 -17 -9 0 -13 -5 -10 -10 5 -8 11 -8 20
0 10 8 14 8 17 -2 3 -7 7 -8 10 -3 3 6 2 19 -2 29 -6 17 -7 18 -13 3z"/>
<path d="M582 20 c0 -14 2 -19 5 -12 2 6 2 18 0 25 -3 6 -5 1 -5 -13z"/>
<path d="M674 26 c-4 -9 -4 -20 0 -23 3 -4 12 -1 18 5 9 9 9 15 0 24 -9 9 -13
7 -18 -6z"/>
<path d="M811 23 c0 -10 3 -13 5 -6 4 9 13 9 30 2 33 -12 34 -12 34 6 0 10
-11 15 -35 15 -27 0 -35 -4 -34 -17z"/>
<path d="M2050 29 c0 -5 5 -7 10 -4 6 3 10 8 10 11 0 2 -4 4 -10 4 -5 0 -10
-5 -10 -11z"/>
<path d="M177 24 c-14 -14 -6 -24 19 -24 16 0 24 5 22 13 -5 14 -31 21 -41 11z"/>
<path d="M651 14 c0 -11 3 -14 6 -6 3 7 2 16 -1 19 -3 4 -6 -2 -5 -13z"/>
<path d="M1498 23 c7 -3 16 -2 19 1 4 3 -2 6 -13 5 -11 0 -14 -3 -6 -6z"/>
<path d="M1780 15 c0 -8 5 -15 10 -15 6 0 10 7 10 15 0 8 -4 15 -10 15 -5 0
-10 -7 -10 -15z"/>
<path d="M1315 10 c-4 -6 12 -10 40 -10 28 0 44 4 40 10 -8 13 -72 13 -80 0z"/>
<path d="M8880 10 c0 -5 5 -10 10 -10 6 0 10 5 10 10 0 6 -4 10 -10 10 -5 0
-10 -4 -10 -10z"/>
<path d="M958 3 c6 -2 18 -2 25 0 6 3 1 5 -13 5 -14 0 -19 -2 -12 -5z"/>
<path d="M1048 3 c7 -3 16 -2 19 1 4 3 -2 6 -13 5 -11 0 -14 -3 -6 -6z"/>
<path d="M2028 3 c7 -3 16 -2 19 1 4 3 -2 6 -13 5 -11 0 -14 -3 -6 -6z"/>
</g>
</svg>
