<?xml version="1.0" standalone="no"?>
<!DOCTYPE svg PUBLIC "-//W3C//DTD SVG 20010904//EN"
 "http://www.w3.org/TR/2001/REC-SVG-20010904/DTD/svg10.dtd">
<svg version="1.0" xmlns="http://www.w3.org/2000/svg"
 width="192.000000pt" height="192.000000pt" viewBox="0 0 192.000000 192.000000"
 preserveAspectRatio="xMidYMid meet">
<metadata>
Created by potrace 1.16, written by Peter Selinger 2001-2019
</metadata>
<g transform="translate(0.000000,192.000000) scale(0.100000,-0.100000)"
fill="#000000" stroke="none">
811 c445 -92 729 -532 635 -987 -62 -301 -295 -546 -601 -630 -91 -26 -329
-26 -420 0 -291 80 -516 305 -596 596 -26 91 -26 329 0 420 120 433 542 692
982 601z"/>
<path d="M795 1215 c-45 -23 -95 -84 -101 -125 -5 -31 -12 -40 -45 -54 -127
-56 -141 -225 -26 -310 27 -20 42 -21 338 -24 298 -3 312 -2 344 18 44 27 69
81 62 133 -7 50 -32 85 -80 110 -26 13 -37 26 -37 42 0 59 -82 125 -155 125
-33 0 -44 6 -67 33 -14 19 -42 41 -61 50 -44 21 -132 22 -172 2z"/>
</g>
</svg>
