<?xml version="1.0" standalone="no"?>
<!DOCTYPE svg PUBLIC "-//W3C//DTD SVG 20010904//EN"
 "http://www.w3.org/TR/2001/REC-SVG-20010904/DTD/svg10.dtd">
<svg version="1.0" xmlns="http://www.w3.org/2000/svg"
 width="192.000000pt" height="192.000000pt" viewBox="0 0 192.000000 192.000000"
 preserveAspectRatio="xMidYMid meet">
<metadata>
Created by potrace 1.16, written by Peter Selinger 2001-2019
</metadata>
<g transform="translate(0.000000,192.000000) scale(0.100000,-0.100000)"
fill="#000000" stroke="none">
811 c445 -92 729 -532 635 -987 -62 -301 -295 -546 -601 -630 -91 -26 -329
-26 -420 0 -291 80 -516 305 -596 596 -26 91 -26 329 0 420 120 433 542 692
982 601z"/>
<path d="M828 1370 c-36 -6 -88 -18 -115 -28 l-48 -18 0 -164 c0 -160 1 -167
27 -217 24 -45 75 -101 183 -198 39 -36 19 -22 -83 54 -156 117 -185 160 -196
290 -6 69 -5 75 19 97 46 43 5 78 -51 43 -34 -21 -34 -21 -34 -98 0 -164 34
-213 248 -361 67 -46 122 -87 122 -90 0 -3 -21 -23 -46 -44 -32 -27 -44 -44
-42 -59 3 -21 7 -22 143 -22 l140 0 0 24 c0 15 -13 34 -38 54 l-38 31 -54 -27
c-30 -15 -55 -25 -55 -22 0 2 75 55 168 117 266 180 302 227 302 399 0 77 0
77 -34 98 -54 34 -96 1 -53 -42 19 -19 22 -31 19 -97 -5 -125 -39 -173 -227
-312 -44 -33 -64 -45 -45 -28 108 99 155 150 178 195 25 47 27 60 30 212 4
153 3 162 -16 172 -67 36 -282 57 -404 41z m219 -162 c21 -20 23 -30 23 -120
0 -92 -2 -101 -25 -123 -22 -23 -32 -25 -107 -25 -64 0 -79 3 -70 12 17 17 17
249 0 266 -9 9 7 12 72 12 72 0 87 -3 107 -22z"/>
<path d="M940 1085 l0 -96 28 3 27 3 0 90 0 90 -27 3 -28 3 0 -96z"/>
</g>
</svg>
