<?xml version="1.0" standalone="no"?>
<!DOCTYPE svg PUBLIC "-//W3C//DTD SVG 20010904//EN"
 "http://www.w3.org/TR/2001/REC-SVG-20010904/DTD/svg10.dtd">
<svg version="1.0" xmlns="http://www.w3.org/2000/svg"
 width="192.000000pt" height="192.000000pt" viewBox="0 0 192.000000 192.000000"
 preserveAspectRatio="xMidYMid meet">
<metadata>
Created by potrace 1.16, written by Peter Selinger 2001-2019
</metadata>
<g transform="translate(0.000000,192.000000) scale(0.100000,-0.100000)"
fill="#000000" stroke="none">
811 c445 -92 729 -532 635 -987 -62 -301 -295 -546 -601 -630 -91 -26 -329
-26 -420 0 -291 80 -516 305 -596 596 -26 91 -26 329 0 420 120 433 542 692
982 601z"/>
<path d="M893 1370 c-78 -11 -172 -60 -229 -118 -224 -227 -119 -607 191 -687
135 -35 273 -1 376 92 166 150 185 397 43 570 -88 108 -238 164 -381 143z
m203 -125 c30 -14 54 -30 54 -35 0 -9 -117 -90 -130 -90 -8 0 -100 142 -100
155 0 17 123 -4 176 -30z m-241 -74 c25 -38 45 -74 45 -79 0 -10 -77 -25 -188
-37 l-63 -7 15 36 c21 50 63 104 105 132 20 13 37 24 39 24 1 0 23 -31 47 -69z
m399 -98 c28 -82 29 -81 -76 -76 -51 2 -99 6 -105 8 -22 7 -14 32 15 44 15 6
50 29 77 50 57 45 66 42 89 -26z m-294 -87 c0 -8 -10 -18 -22 -22 -44 -13
-130 -75 -181 -129 -28 -30 -54 -55 -58 -55 -9 0 -45 86 -54 129 -9 43 2 50
80 52 33 0 96 9 140 18 44 10 83 19 88 20 4 0 7 -5 7 -13z m269 -82 c36 -8 40
-28 15 -77 -19 -37 -75 -110 -80 -104 -4 3 -54 173 -54 182 0 7 82 6 119 -1z
m-199 -95 c12 -40 25 -89 27 -110 5 -37 5 -38 -32 -45 -84 -16 -245 21 -245
57 0 30 177 169 216 169 6 0 21 -32 34 -71z"/>
</g>
</svg>
