<?xml version="1.0" standalone="no"?>
<!DOCTYPE svg PUBLIC "-//W3C//DTD SVG 20010904//EN"
 "http://www.w3.org/TR/2001/REC-SVG-20010904/DTD/svg10.dtd">
<svg version="1.0" xmlns="http://www.w3.org/2000/svg"
 width="192.000000pt" height="192.000000pt" viewBox="0 0 192.000000 192.000000"
 preserveAspectRatio="xMidYMid meet">
<metadata>
Created by potrace 1.16, written by Peter Selinger 2001-2019
</metadata>
<g transform="translate(0.000000,192.000000) scale(0.100000,-0.100000)"
fill="#000000" stroke="none">
811 c445 -92 729 -532 635 -987 -62 -301 -295 -546 -601 -630 -91 -26 -329
-26 -420 0 -291 80 -516 305 -596 596 -26 91 -26 329 0 420 120 433 542 692
982 601z"/>
<path d="M878 1308 c-94 -100 -216 -268 -235 -323 -27 -77 -22 -181 11 -249
33 -68 101 -129 169 -153 69 -24 195 -24 263 0 182 63 258 294 152 463 -77
123 -252 324 -283 324 -10 0 -45 -28 -77 -62z m-28 -283 c26 -32 -13 -81 -47
-59 -35 22 -23 74 17 74 10 0 23 -7 30 -15z m264 -1 c19 -19 20 -25 3 -49 -20
-26 -67 -13 -67 18 0 43 35 60 64 31z m-44 -177 c0 -31 -6 -61 -15 -73 -8 -10
-15 -13 -15 -7 0 18 -54 43 -94 43 -22 0 -45 -9 -65 -26 l-31 -26 -10 27 c-5
14 -10 46 -10 71 l0 44 120 0 120 0 0 -53z"/>
</g>
</svg>
