<?xml version="1.0" standalone="no"?>
<!DOCTYPE svg PUBLIC "-//W3C//DTD SVG 20010904//EN"
 "http://www.w3.org/TR/2001/REC-SVG-20010904/DTD/svg10.dtd">
<svg version="1.0" xmlns="http://www.w3.org/2000/svg"
 width="192.000000pt" height="192.000000pt" viewBox="0 0 192.000000 192.000000"
 preserveAspectRatio="xMidYMid meet">
<metadata>
Created by potrace 1.16, written by Peter Selinger 2001-2019
</metadata>
<g transform="translate(0.000000,192.000000) scale(0.100000,-0.100000)"
fill="#000000" stroke="none">
811 c445 -92 729 -532 635 -987 -62 -301 -295 -546 -601 -630 -91 -26 -329
-26 -420 0 -291 80 -516 305 -596 596 -26 91 -26 329 0 420 120 433 542 692
982 601z"/>
<path d="M920 1370 c-97 -17 -164 -93 -177 -201 -5 -40 -9 -49 -25 -49 -11 0
-33 -13 -49 -29 l-29 -29 0 -221 0 -221 29 -32 29 -33 257 0 257 0 29 33 29
32 0 221 0 221 -29 29 c-16 16 -38 29 -49 29 -16 0 -20 9 -25 49 -16 135 -124
222 -247 201z m99 -176 c6 -14 11 -36 11 -49 0 -24 -2 -25 -75 -25 l-75 0 0
33 c0 17 7 40 14 49 32 43 103 38 125 -8z m1 -281 c86 -78 3 -214 -103 -169
-72 30 -86 120 -26 170 42 35 89 35 129 -1z"/>
</g>
</svg>
