<?xml version="1.0" standalone="no"?>
<!DOCTYPE svg PUBLIC "-//W3C//DTD SVG 20010904//EN"
 "http://www.w3.org/TR/2001/REC-SVG-20010904/DTD/svg10.dtd">
<svg version="1.0" xmlns="http://www.w3.org/2000/svg"
 width="192.000000pt" height="192.000000pt" viewBox="0 0 192.000000 192.000000"
 preserveAspectRatio="xMidYMid meet">
<metadata>
Created by potrace 1.16, written by Peter Selinger 2001-2019
</metadata>
<g transform="translate(0.000000,192.000000) scale(0.100000,-0.100000)"
fill="#000000" stroke="none">
811 c445 -92 729 -532 635 -987 -62 -301 -295 -546 -601 -630 -91 -26 -329
-26 -420 0 -291 80 -516 305 -596 596 -26 91 -26 329 0 420 120 433 542 692
982 601z"/>
<path d="M870 1379 c-24 -5 -68 -20 -98 -35 l-54 -26 -27 26 c-56 54 -110 12
-56 -44 l28 -29 -32 -40 c-117 -148 -121 -364 -9 -515 50 -67 138 -130 216
-152 83 -25 210 -16 284 20 172 82 271 267 240 447 -13 75 -56 172 -91 203
-27 25 -27 37 4 66 32 30 30 64 -4 68 -15 3 -33 -6 -52 -24 l-29 -28 -57 27
c-96 45 -168 55 -263 36z m153 -163 c170 -51 234 -265 123 -411 -30 -39 -111
-83 -168 -91 -62 -9 -144 17 -195 61 -118 100 -118 289 -1 390 71 60 153 78
241 51z"/>
<path d="M932 1092 c25 -66 -31 -127 -93 -102 -16 7 -29 17 -29 22 0 5 -5 6
-11 2 -17 -10 -5 -102 18 -132 47 -63 147 -85 202 -44 117 86 80 261 -59 279
l-39 6 11 -31z"/>
</g>
</svg>
