<?xml version="1.0" standalone="no"?>
<!DOCTYPE svg PUBLIC "-//W3C//DTD SVG 20010904//EN"
 "http://www.w3.org/TR/2001/REC-SVG-20010904/DTD/svg10.dtd">
<svg version="1.0" xmlns="http://www.w3.org/2000/svg"
 width="192.000000pt" height="192.000000pt" viewBox="0 0 192.000000 192.000000"
 preserveAspectRatio="xMidYMid meet">
<metadata>
Created by potrace 1.16, written by Peter Selinger 2001-2019
</metadata>
<g transform="translate(0.000000,192.000000) scale(0.100000,-0.100000)"
fill="#000000" stroke="none">
811 c445 -92 729 -532 635 -987 -62 -301 -295 -546 -601 -630 -91 -26 -329
-26 -420 0 -291 80 -516 305 -596 596 -26 91 -26 329 0 420 120 433 542 692
982 601z"/>
<path d="M912 1370 c-12 -5 -75 -62 -141 -127 -152 -151 -176 -196 -176 -328
0 -82 3 -97 33 -157 133 -271 521 -271 654 0 30 60 33 75 33 157 0 79 -4 97
-29 148 -30 63 -107 150 -217 247 -71 64 -112 79 -157 60z m126 -314 c29 -30
57 -67 62 -81 38 -100 -33 -205 -138 -205 -82 0 -140 47 -156 125 -11 52 10
96 81 167 76 77 73 77 151 -6z"/>
</g>
</svg>
