<?xml version="1.0" standalone="no"?>
<!DOCTYPE svg PUBLIC "-//W3C//DTD SVG 20010904//EN"
 "http://www.w3.org/TR/2001/REC-SVG-20010904/DTD/svg10.dtd">
<svg version="1.0" xmlns="http://www.w3.org/2000/svg"
 width="192.000000pt" height="192.000000pt" viewBox="0 0 192.000000 192.000000"
 preserveAspectRatio="xMidYMid meet">
<metadata>
Created by potrace 1.16, written by Peter Selinger 2001-2019
</metadata>
<g transform="translate(0.000000,192.000000) scale(0.100000,-0.100000)"
fill="#000000" stroke="none">
811 c445 -92 729 -532 635 -987 -62 -301 -295 -546 -601 -630 -91 -26 -329
-26 -420 0 -291 80 -516 305 -596 596 -26 91 -26 329 0 420 120 433 542 692
982 601z"/>
<path d="M667 1244 c-98 -61 -137 -91 -135 -103 2 -9 27 -32 55 -50 l53 -35
-51 -29 c-28 -16 -53 -36 -56 -45 -7 -17 21 -44 90 -84 45 -26 46 -28 49 -83
l3 -57 135 -79 c74 -43 140 -79 145 -79 6 0 71 35 145 78 l135 78 3 57 3 57
69 41 c86 51 89 68 20 111 -27 17 -50 33 -50 35 0 2 23 17 51 34 74 46 68 57
-86 155 -71 46 -137 83 -145 83 -9 1 -24 -5 -35 -12 -11 -8 -40 -26 -65 -40
l-45 -26 -65 40 c-36 21 -70 39 -75 39 -6 0 -73 -39 -148 -86z m387 -126 c47
-29 86 -56 86 -60 0 -9 -178 -120 -188 -116 -24 10 -182 112 -182 117 1 8 172
110 186 111 7 0 50 -24 98 -52z m-124 -353 c0 -41 -3 -75 -7 -74 -5 0 -48 24
-98 53 -55 31 -91 59 -93 70 -4 17 1 16 43 -8 l46 -28 47 31 c26 17 50 31 55
31 4 0 7 -34 7 -75z m208 41 c39 23 42 24 42 6 0 -11 -13 -25 -32 -35 -18 -9
-61 -32 -95 -52 l-63 -36 0 76 0 76 53 -30 53 -30 42 25z"/>
</g>
</svg>
