<?xml version="1.0" standalone="no"?>
<!DOCTYPE svg PUBLIC "-//W3C//DTD SVG 20010904//EN"
 "http://www.w3.org/TR/2001/REC-SVG-20010904/DTD/svg10.dtd">
<svg version="1.0" xmlns="http://www.w3.org/2000/svg"
 width="192.000000pt" height="192.000000pt" viewBox="0 0 192.000000 192.000000"
 preserveAspectRatio="xMidYMid meet">
<metadata>
Created by potrace 1.16, written by Peter Selinger 2001-2019
</metadata>
<g transform="translate(0.000000,192.000000) scale(0.100000,-0.100000)"
fill="#000000" stroke="none">
811 c445 -92 729 -532 635 -987 -62 -301 -295 -546 -601 -630 -91 -26 -329
-26 -420 0 -291 80 -516 305 -596 596 -26 91 -26 329 0 420 120 433 542 692
982 601z"/>
<path d="M741 1320 c-95 -26 -177 -54 -182 -61 -15 -24 -11 -47 54 -287 72
-274 71 -272 161 -249 l56 15 0 -34 c0 -46 16 -54 199 -103 170 -46 183 -47
201 -26 12 14 130 436 130 466 0 30 -35 47 -170 83 -74 21 -138 42 -142 49 -4
6 -14 43 -24 82 -22 94 -36 115 -77 114 -17 0 -110 -22 -206 -49z m224 -248
c26 -96 45 -175 43 -176 -6 -6 -241 -66 -244 -64 -8 9 -94 351 -89 356 11 11
230 69 237 63 3 -3 27 -84 53 -179z m205 -51 c53 -15 64 -22 62 -37 -7 -42
-75 -290 -82 -297 -6 -7 -196 37 -208 48 -1 1 0 9 4 18 3 9 31 23 62 32 87 24
111 36 117 56 3 10 -5 59 -19 108 -17 62 -21 91 -13 91 7 -1 41 -9 77 -19z"/>
</g>
</svg>
