<?xml version="1.0" standalone="no"?>
<!DOCTYPE svg PUBLIC "-//W3C//DTD SVG 20010904//EN"
 "http://www.w3.org/TR/2001/REC-SVG-20010904/DTD/svg10.dtd">
<svg version="1.0" xmlns="http://www.w3.org/2000/svg"
 width="192.000000pt" height="192.000000pt" viewBox="0 0 192.000000 192.000000"
 preserveAspectRatio="xMidYMid meet">
<metadata>
Created by potrace 1.16, written by Peter Selinger 2001-2019
</metadata>
<g transform="translate(0.000000,192.000000) scale(0.100000,-0.100000)"
fill="#000000" stroke="none">
811 c445 -92 729 -532 635 -987 -62 -301 -295 -546 -601 -630 -91 -26 -329
-26 -420 0 -291 80 -516 305 -596 596 -26 91 -26 329 0 420 120 433 542 692
982 601z"/>
<path d="M747 1314 c-130 -66 -170 -92 -182 -114 -23 -45 -22 -440 2 -476 23
-36 340 -194 388 -194 44 0 366 159 389 192 24 34 24 447 -1 484 -24 38 -340
194 -390 194 -27 -1 -86 -25 -206 -86z m343 -68 l125 -63 -123 -62 c-67 -33
-129 -61 -137 -61 -8 0 -70 28 -137 61 l-123 62 125 63 c69 35 130 63 135 63
6 0 66 -28 135 -63z m-310 -211 l130 -65 0 -165 0 -166 -132 68 -133 68 -3
163 c-1 89 0 162 3 162 3 0 64 -29 135 -65z m488 -97 l-3 -163 -132 -68 -133
-68 0 166 0 165 128 64 c70 36 130 65 135 65 4 1 6 -72 5 -161z"/>
</g>
</svg>
