<?xml version="1.0" standalone="no"?>
<!DOCTYPE svg PUBLIC "-//W3C//DTD SVG 20010904//EN"
 "http://www.w3.org/TR/2001/REC-SVG-20010904/DTD/svg10.dtd">
<svg version="1.0" xmlns="http://www.w3.org/2000/svg"
 width="192.000000pt" height="192.000000pt" viewBox="0 0 192.000000 192.000000"
 preserveAspectRatio="xMidYMid meet">
<metadata>
Created by potrace 1.16, written by Peter Selinger 2001-2019
</metadata>
<g transform="translate(0.000000,192.000000) scale(0.100000,-0.100000)"
fill="#000000" stroke="none">
811 c445 -92 729 -532 635 -987 -62 -301 -295 -546 -601 -630 -91 -26 -329
-26 -420 0 -291 80 -516 305 -596 596 -26 91 -26 329 0 420 120 433 542 692
982 601z"/>
<path d="M852 1344 c-21 -14 -22 -22 -22 -150 l0 -134 -59 0 c-58 0 -91 -15
-91 -42 0 -12 225 -247 257 -268 22 -14 27 -11 153 115 128 128 146 155 118
183 -7 7 -38 12 -70 12 l-58 0 0 130 c0 166 -3 170 -123 170 -59 0 -89 -5
-105 -16z"/>
<path d="M666 668 c-21 -30 -20 -54 4 -78 19 -19 33 -20 283 -20 243 0 265 1
280 18 21 23 22 66 1 86 -13 14 -53 16 -284 16 -266 0 -269 0 -284 -22z"/>
</g>
</svg>
