<?xml version="1.0" standalone="no"?>
<!DOCTYPE svg PUBLIC "-//W3C//DTD SVG 20010904//EN"
 "http://www.w3.org/TR/2001/REC-SVG-20010904/DTD/svg10.dtd">
<svg version="1.0" xmlns="http://www.w3.org/2000/svg"
 width="192.000000pt" height="192.000000pt" viewBox="0 0 192.000000 192.000000"
 preserveAspectRatio="xMidYMid meet">
<metadata>
Created by potrace 1.16, written by Peter Selinger 2001-2019
</metadata>
<g transform="translate(0.000000,192.000000) scale(0.100000,-0.100000)"
fill="#000000" stroke="none">
811 c445 -92 729 -532 635 -987 -62 -301 -295 -546 -601 -630 -91 -26 -329
-26 -420 0 -291 80 -516 305 -596 596 -26 91 -26 329 0 420 120 433 542 692
982 601z"/>
<path d="M870 1369 c-113 -22 -234 -116 -284 -223 -33 -70 -48 -170 -35 -244
20 -128 117 -254 236 -310 52 -24 69 -27 168 -27 99 0 115 3 165 27 159 78
247 224 237 393 -6 110 -35 181 -105 256 -102 111 -238 156 -382 128z m335
-169 c0 -22 -5 -25 -41 -28 -45 -3 -69 14 -58 42 5 13 17 16 53 14 42 -3 46
-5 46 -28z m-155 -50 c188 -96 118 -390 -93 -390 -121 0 -208 87 -208 205 0
159 159 257 301 185z"/>
<path d="M920 1063 c-56 -20 -83 -89 -56 -141 20 -39 44 -52 93 -52 72 0 118
84 83 151 -19 35 -80 57 -120 42z"/>
</g>
</svg>
