<?xml version="1.0" standalone="no"?>
<!DOCTYPE svg PUBLIC "-//W3C//DTD SVG 20010904//EN"
 "http://www.w3.org/TR/2001/REC-SVG-20010904/DTD/svg10.dtd">
<svg version="1.0" xmlns="http://www.w3.org/2000/svg"
 width="192.000000pt" height="192.000000pt" viewBox="0 0 192.000000 192.000000"
 preserveAspectRatio="xMidYMid meet">
<metadata>
Created by potrace 1.16, written by Peter Selinger 2001-2019
</metadata>
<g transform="translate(0.000000,192.000000) scale(0.100000,-0.100000)"
fill="#000000" stroke="none">
811 c445 -92 729 -532 635 -987 -62 -301 -295 -546 -601 -630 -91 -26 -329
-26 -420 0 -291 80 -516 305 -596 596 -26 91 -26 329 0 420 120 433 542 692
982 601z"/>
<path d="M1094 1326 c-81 -25 -151 -90 -174 -161 -10 -31 -14 -33 -70 -39
-121 -14 -239 -71 -305 -149 -29 -34 -35 -49 -35 -87 0 -55 20 -87 62 -98 59
-15 89 -3 148 60 127 137 158 168 168 168 8 0 12 -19 12 -48 0 -60 31 -186 60
-242 26 -51 85 -117 121 -136 36 -18 99 -18 126 1 50 35 55 146 10 245 -34 77
-107 172 -166 217 -27 21 -50 41 -50 44 -1 3 45 18 101 33 184 48 233 82 213
146 -16 49 -133 73 -221 46z"/>
</g>
</svg>
