<?xml version="1.0" standalone="no"?>
<!DOCTYPE svg PUBLIC "-//W3C//DTD SVG 20010904//EN"
 "http://www.w3.org/TR/2001/REC-SVG-20010904/DTD/svg10.dtd">
<svg version="1.0" xmlns="http://www.w3.org/2000/svg"
 width="192.000000pt" height="192.000000pt" viewBox="0 0 192.000000 192.000000"
 preserveAspectRatio="xMidYMid meet">
<metadata>
Created by potrace 1.16, written by Peter Selinger 2001-2019
</metadata>
<g transform="translate(0.000000,192.000000) scale(0.100000,-0.100000)"
fill="#000000" stroke="none">
811 c445 -92 729 -532 635 -987 -62 -301 -295 -546 -601 -630 -91 -26 -329
-26 -420 0 -291 80 -516 305 -596 596 -26 91 -26 329 0 420 120 433 542 692
982 601z"/>
<path d="M670 1082 l0 -77 -57 -1 c-123 -2 -196 -88 -145 -170 34 -53 69 -62
237 -61 l150 2 3 93 c3 90 3 92 27 92 24 0 25 -2 25 -75 0 -69 2 -76 26 -92
17 -11 46 -17 83 -16 31 0 85 0 121 0 36 1 103 1 150 0 96 -1 143 16 162 59
11 24 8 29 -35 71 -51 49 -52 63 -6 63 49 0 29 24 -28 34 -103 17 -223 -17
-223 -65 0 -12 19 -39 45 -63 58 -53 50 -66 -40 -62 l-70 3 -3 72 c-3 66 -1
71 18 71 13 0 20 7 20 20 0 13 -7 20 -20 20 -18 0 -20 7 -20 66 0 49 -3 65
-12 61 -7 -2 -48 -20 -90 -38 -71 -30 -78 -36 -78 -61 0 -23 -4 -28 -25 -28
-25 0 -25 1 -25 80 l0 80 -95 0 -95 0 0 -78z m-10 -192 c0 -58 -1 -60 -20 -50
-33 18 -23 110 12 110 4 0 8 -27 8 -60z"/>
</g>
</svg>
