<?xml version="1.0" standalone="no"?>
<!DOCTYPE svg PUBLIC "-//W3C//DTD SVG 20010904//EN"
 "http://www.w3.org/TR/2001/REC-SVG-20010904/DTD/svg10.dtd">
<svg version="1.0" xmlns="http://www.w3.org/2000/svg"
 width="192.000000pt" height="192.000000pt" viewBox="0 0 192.000000 192.000000"
 preserveAspectRatio="xMidYMid meet">
<metadata>
Created by potrace 1.16, written by Peter Selinger 2001-2019
</metadata>
<g transform="translate(0.000000,192.000000) scale(0.100000,-0.100000)"
fill="#000000" stroke="none">
811 c445 -92 729 -532 635 -987 -62 -301 -295 -546 -601 -630 -91 -26 -329
-26 -420 0 -291 80 -516 305 -596 596 -26 91 -26 329 0 420 120 433 542 692
982 601z"/>
<path d="M822 1351 c-144 -50 -244 -168 -273 -322 -48 -264 194 -510 463 -468
269 42 427 328 315 572 -49 108 -116 155 -151 106 -17 -25 -12 -41 25 -89 59
-73 76 -197 42 -296 -23 -69 -110 -155 -182 -179 -70 -23 -189 -17 -246 12
-147 76 -212 263 -141 407 50 102 137 161 268 181 30 5 39 11 44 32 4 14 2 33
-3 42 -15 23 -97 25 -161 2z"/>
<path d="M746 1109 c-26 -20 -26 -23 -26 -143 0 -162 -7 -156 177 -156 123 0
142 2 156 18 10 10 17 26 17 35 0 21 1 21 54 -4 72 -36 77 -28 74 108 -3 112
-4 118 -25 121 -12 2 -39 -6 -61 -17 l-40 -20 -5 28 c-9 41 -42 51 -176 51
-105 0 -121 -2 -145 -21z m191 -101 c13 -12 23 -30 23 -40 0 -23 -43 -68 -65
-68 -20 0 -65 44 -65 63 0 24 40 67 63 67 11 0 31 -10 44 -22z"/>
</g>
</svg>
