<?xml version="1.0" standalone="no"?>
<!DOCTYPE svg PUBLIC "-//W3C//DTD SVG 20010904//EN"
 "http://www.w3.org/TR/2001/REC-SVG-20010904/DTD/svg10.dtd">
<svg version="1.0" xmlns="http://www.w3.org/2000/svg"
 width="192.000000pt" height="192.000000pt" viewBox="0 0 192.000000 192.000000"
 preserveAspectRatio="xMidYMid meet">
<metadata>
Created by potrace 1.16, written by Peter Selinger 2001-2019
</metadata>
<g transform="translate(0.000000,192.000000) scale(0.100000,-0.100000)"
fill="#000000" stroke="none">
811 c445 -92 729 -532 635 -987 -62 -301 -295 -546 -601 -630 -91 -26 -329
-26 -420 0 -291 80 -516 305 -596 596 -26 91 -26 329 0 420 120 433 542 692
982 601z"/>
<path d="M855 1261 c-48 -21 -98 -76 -116 -125 -10 -27 -22 -39 -47 -47 -79
-26 -151 -123 -152 -203 -1 -131 96 -230 225 -230 92 0 105 11 105 89 0 62 -1
65 -24 65 -76 0 -73 30 11 127 72 84 82 93 99 93 6 0 45 -41 87 -91 65 -76 75
-93 67 -110 -8 -13 -21 -19 -45 -19 l-35 0 0 -58 c0 -78 13 -94 82 -100 70 -6
120 11 170 56 55 50 80 103 80 172 0 93 -53 173 -140 212 -28 12 -47 29 -53
46 -44 116 -197 176 -314 123z"/>
</g>
</svg>
