<?xml version="1.0" standalone="no"?>
<!DOCTYPE svg PUBLIC "-//W3C//DTD SVG 20010904//EN"
 "http://www.w3.org/TR/2001/REC-SVG-20010904/DTD/svg10.dtd">
<svg version="1.0" xmlns="http://www.w3.org/2000/svg"
 width="192.000000pt" height="192.000000pt" viewBox="0 0 192.000000 192.000000"
 preserveAspectRatio="xMidYMid meet">
<metadata>
Created by potrace 1.16, written by Peter Selinger 2001-2019
</metadata>
<g transform="translate(0.000000,192.000000) scale(0.100000,-0.100000)"
fill="#000000" stroke="none">
811 c445 -92 729 -532 635 -987 -62 -301 -295 -546 -601 -630 -91 -26 -329
-26 -420 0 -291 80 -516 305 -596 596 -26 91 -26 329 0 420 120 433 542 692
982 601z"/>
<path d="M870 1366 c-213 -46 -346 -240 -318 -460 17 -129 106 -250 227 -308
125 -60 291 -47 406 32 173 119 226 363 119 546 -55 94 -169 172 -284 194 -64
12 -79 12 -150 -4z m233 -91 c116 -57 189 -171 190 -298 0 -40 -5 -90 -12
-112 -34 -102 -117 -189 -212 -220 -59 -20 -79 -15 -79 19 0 28 25 40 76 34
28 -3 29 -2 28 40 -1 59 -16 72 -54 44 -28 -21 -80 -30 -80 -14 0 4 -3 17 -6
29 -5 18 0 22 28 28 18 4 53 18 77 31 32 18 59 24 103 24 51 0 59 2 56 18 -3
14 -17 17 -86 20 -79 3 -83 4 -80 25 3 20 9 22 86 25 64 2 82 6 82 17 0 10
-11 15 -35 15 -27 0 -35 4 -35 18 0 52 -25 95 -94 167 -56 58 -83 79 -113 86
-52 12 -65 11 -61 -3 3 -7 -14 -22 -36 -32 l-41 -20 55 -6 c47 -4 51 -6 30
-14 -41 -15 -76 -46 -101 -89 -23 -39 -24 -54 -27 -229 -2 -104 -7 -188 -12
-188 -17 0 -84 85 -109 139 -34 74 -36 200 -3 273 24 54 89 128 139 159 93 58
226 63 326 14z"/>
</g>
</svg>
