<?xml version="1.0" standalone="no"?>
<!DOCTYPE svg PUBLIC "-//W3C//DTD SVG 20010904//EN"
 "http://www.w3.org/TR/2001/REC-SVG-20010904/DTD/svg10.dtd">
<svg version="1.0" xmlns="http://www.w3.org/2000/svg"
 width="192.000000pt" height="192.000000pt" viewBox="0 0 192.000000 192.000000"
 preserveAspectRatio="xMidYMid meet">
<metadata>
Created by potrace 1.16, written by Peter Selinger 2001-2019
</metadata>
<g transform="translate(0.000000,192.000000) scale(0.100000,-0.100000)"
fill="#000000" stroke="none">
811 c445 -92 729 -532 635 -987 -62 -301 -295 -546 -601 -630 -91 -26 -329
-26 -420 0 -291 80 -516 305 -596 596 -26 91 -26 329 0 420 120 433 542 692
982 601z"/>
<path d="M853 1341 c-18 -12 -37 -35 -44 -55 l-13 -36 -96 0 c-105 0 -132 -9
-114 -37 6 -10 23 -19 37 -21 l26 -3 3 -249 3 -249 29 -30 30 -31 128 0 c70 0
128 3 128 6 0 4 -13 21 -29 40 -28 31 -51 88 -51 124 0 36 23 93 50 124 25 28
29 42 32 102 3 61 5 69 23 69 17 0 20 -8 23 -56 l3 -57 46 14 c25 8 59 14 75
14 l28 0 0 90 c0 87 1 90 23 90 32 0 50 14 45 36 -3 17 -15 19 -109 22 l-105
3 -13 35 c-14 39 -62 74 -101 74 -14 0 -39 -9 -57 -19z m95 -53 c26 -26 13
-38 -38 -38 -34 0 -50 4 -50 13 0 21 22 37 50 37 14 0 31 -5 38 -12z m-94
-204 c3 -9 6 -75 6 -148 0 -97 -4 -137 -14 -151 -12 -16 -16 -17 -30 -6 -13
11 -16 38 -16 161 0 80 3 150 7 153 12 13 41 7 47 -9z"/>
<path d="M1030 943 c-68 -35 -100 -79 -100 -140 0 -48 11 -75 44 -111 11 -13
28 -44 36 -70 11 -35 20 -47 35 -47 19 0 20 6 17 80 -4 85 6 126 40 163 19 20
58 31 58 16 0 -3 -11 -19 -25 -36 -33 -39 -51 -101 -39 -136 8 -24 15 -27 57
-30 44 -3 51 0 82 33 35 37 55 87 55 140 0 17 9 45 20 63 11 18 20 39 20 46 0
26 -71 50 -160 54 -77 3 -90 1 -140 -25z"/>
</g>
</svg>
