<?xml version="1.0" standalone="no"?>
<!DOCTYPE svg PUBLIC "-//W3C//DTD SVG 20010904//EN"
 "http://www.w3.org/TR/2001/REC-SVG-20010904/DTD/svg10.dtd">
<svg version="1.0" xmlns="http://www.w3.org/2000/svg"
 width="192.000000pt" height="192.000000pt" viewBox="0 0 192.000000 192.000000"
 preserveAspectRatio="xMidYMid meet">
<metadata>
Created by potrace 1.16, written by Peter Selinger 2001-2019
</metadata>
<g transform="translate(0.000000,192.000000) scale(0.100000,-0.100000)"
fill="#000000" stroke="none">
811 c445 -92 729 -532 635 -987 -62 -301 -295 -546 -601 -630 -91 -26 -329
-26 -420 0 -291 80 -516 305 -596 596 -26 91 -26 329 0 420 120 433 542 692
982 601z"/>
<path d="M687 1351 c-54 -11 -107 -66 -118 -122 -11 -60 -11 -490 1 -509 13
-22 22 -8 70 105 59 140 88 195 103 195 6 -1 50 -34 97 -75 65 -57 87 -72 95
-62 24 27 207 416 201 426 -4 6 -30 18 -59 27 -59 18 -327 28 -390 15z"/>
<path d="M1257 1118 c-13 -18 -86 -122 -162 -231 l-137 -199 -27 24 c-101 93
-156 138 -165 138 -17 -1 -158 -210 -152 -225 3 -8 17 -22 33 -32 23 -16 50
-18 193 -18 194 0 246 11 331 67 110 74 172 192 171 328 -1 69 -29 171 -49
177 -6 2 -22 -11 -36 -29z"/>
</g>
</svg>
