<?xml version="1.0" standalone="no"?>
<!DOCTYPE svg PUBLIC "-//W3C//DTD SVG 20010904//EN"
 "http://www.w3.org/TR/2001/REC-SVG-20010904/DTD/svg10.dtd">
<svg version="1.0" xmlns="http://www.w3.org/2000/svg"
 width="192.000000pt" height="192.000000pt" viewBox="0 0 192.000000 192.000000"
 preserveAspectRatio="xMidYMid meet">
<metadata>
Created by potrace 1.16, written by Peter Selinger 2001-2019
</metadata>
<g transform="translate(0.000000,192.000000) scale(0.100000,-0.100000)"
fill="#000000" stroke="none">
811 c445 -92 729 -532 635 -987 -62 -301 -295 -546 -601 -630 -91 -26 -329
-26 -420 0 -291 80 -516 305 -596 596 -26 91 -26 329 0 420 120 433 542 692
982 601z"/>
<path d="M870 1367 c-82 -19 -149 -55 -206 -112 -164 -164 -161 -420 7 -580
80 -76 151 -107 259 -113 69 -3 97 0 149 18 114 38 201 114 250 219 23 50 26
68 26 166 0 105 -2 114 -33 175 -37 75 -61 104 -125 153 -89 68 -220 98 -327
74z m-59 -335 c40 -44 39 -93 0 -133 -27 -27 -35 -29 -100 -29 l-71 0 0 93 c0
52 3 97 8 101 4 4 36 6 71 4 57 -4 67 -8 92 -36z m257 -64 l3 -98 -60 0 c-72
0 -108 14 -127 51 -14 29 -20 130 -7 143 4 4 48 5 98 4 l90 -3 3 -97z m203 63
c17 -17 29 -40 29 -55 0 -109 -139 -146 -185 -49 -47 99 78 182 156 104z"/>
</g>
</svg>
