<?xml version="1.0" standalone="no"?>
<!DOCTYPE svg PUBLIC "-//W3C//DTD SVG 20010904//EN"
 "http://www.w3.org/TR/2001/REC-SVG-20010904/DTD/svg10.dtd">
<svg version="1.0" xmlns="http://www.w3.org/2000/svg"
 width="192.000000pt" height="192.000000pt" viewBox="0 0 192.000000 192.000000"
 preserveAspectRatio="xMidYMid meet">
<metadata>
Created by potrace 1.16, written by Peter Selinger 2001-2019
</metadata>
<g transform="translate(0.000000,192.000000) scale(0.100000,-0.100000)"
fill="#000000" stroke="none">
811 c445 -92 729 -532 635 -987 -62 -301 -295 -546 -601 -630 -91 -26 -329
-26 -420 0 -291 80 -516 305 -596 596 -26 91 -26 329 0 420 120 433 542 692
982 601z"/>
<path d="M679 1321 l-29 -29 0 -152 0 -152 -61 -109 c-36 -65 -59 -117 -57
-131 4 -30 56 -41 125 -27 51 10 54 9 92 -21 35 -28 38 -35 29 -55 -7 -16 -7
-29 1 -44 10 -18 21 -21 71 -21 49 0 62 4 72 20 16 25 40 25 63 0 14 -16 31
-20 77 -20 53 0 59 2 70 26 9 19 9 30 1 43 -10 15 -6 24 22 51 l34 33 58 -11
c74 -14 127 -4 131 25 2 13 -22 68 -57 131 l-61 109 0 152 0 153 -29 29 c-37
37 -75 38 -165 4 -37 -14 -87 -25 -111 -25 -24 0 -74 11 -111 25 -90 34 -128
33 -165 -4z m185 -106 c45 -48 57 -55 90 -55 32 0 46 8 96 56 56 53 80 61 80
27 0 -12 3 -13 15 -3 16 13 35 6 35 -15 0 -8 11 -31 25 -51 21 -31 25 -48 25
-110 0 -63 -3 -76 -26 -103 -31 -37 -81 -53 -128 -40 -36 10 -71 42 -62 57 8
14 -32 62 -53 62 -27 0 -63 -30 -58 -50 7 -27 -10 -47 -56 -65 -57 -22 -111
-5 -145 45 -21 30 -23 44 -20 107 3 56 8 77 24 95 12 13 24 35 28 51 7 28 20
35 31 17 10 -17 25 -11 25 10 0 32 18 24 74 -35z"/>
<path d="M770 1167 c-48 -24 -66 -108 -35 -166 25 -49 90 -57 130 -16 35 34
36 122 3 159 -28 31 -65 40 -98 23z m82 -72 c22 -48 -22 -114 -56 -86 -21 18
-21 67 0 75 9 4 14 13 10 21 -10 27 33 17 46 -10z"/>
<path d="M1074 1170 c-36 -15 -54 -50 -54 -108 0 -43 5 -58 25 -77 24 -25 65
-32 100 -19 25 10 45 58 45 108 0 72 -59 120 -116 96z m44 -62 c17 -17 15 -74
-4 -92 -18 -19 -20 -19 -45 -6 -23 13 -25 55 -4 77 8 8 13 19 10 24 -9 13 29
11 43 -3z"/>
</g>
</svg>
