<?xml version="1.0" standalone="no"?>
<!DOCTYPE svg PUBLIC "-//W3C//DTD SVG 20010904//EN"
 "http://www.w3.org/TR/2001/REC-SVG-20010904/DTD/svg10.dtd">
<svg version="1.0" xmlns="http://www.w3.org/2000/svg"
 width="192.000000pt" height="192.000000pt" viewBox="0 0 192.000000 192.000000"
 preserveAspectRatio="xMidYMid meet">
<metadata>
Created by potrace 1.16, written by Peter Selinger 2001-2019
</metadata>
<g transform="translate(0.000000,192.000000) scale(0.100000,-0.100000)"
fill="#000000" stroke="none">
811 c445 -92 729 -532 635 -987 -62 -301 -295 -546 -601 -630 -91 -26 -329
-26 -420 0 -291 80 -516 305 -596 596 -26 91 -26 329 0 420 120 433 542 692
982 601z"/>
<path d="M650 1311 l-30 -29 0 -316 0 -316 29 -32 29 -33 204 0 203 0 65 31
c115 54 182 132 215 248 49 170 -40 363 -204 444 -55 26 -60 27 -269 30 l-212
3 -30 -30z m424 -241 c66 -58 71 -145 11 -204 -18 -18 -47 -36 -65 -40 -53
-10 -145 -7 -158 6 -13 13 -18 249 -5 261 3 4 46 7 94 7 84 0 90 -1 123 -30z"/>
</g>
</svg>
