<?xml version="1.0" standalone="no"?>
<!DOCTYPE svg PUBLIC "-//W3C//DTD SVG 20010904//EN"
 "http://www.w3.org/TR/2001/REC-SVG-20010904/DTD/svg10.dtd">
<svg version="1.0" xmlns="http://www.w3.org/2000/svg"
 width="192.000000pt" height="192.000000pt" viewBox="0 0 192.000000 192.000000"
 preserveAspectRatio="xMidYMid meet">
<metadata>
Created by potrace 1.16, written by Peter Selinger 2001-2019
</metadata>
<g transform="translate(0.000000,192.000000) scale(0.100000,-0.100000)"
fill="#000000" stroke="none">
811 c445 -92 729 -532 635 -987 -62 -301 -295 -546 -601 -630 -91 -26 -329
-26 -420 0 -291 80 -516 305 -596 596 -26 91 -26 329 0 420 120 433 542 692
982 601z"/>
<path d="M1083 1353 c-62 -31 -56 -1 -54 -298 2 -212 -5 -254 -45 -296 -51
-53 -124 -51 -181 6 -27 27 -33 40 -33 78 0 64 32 108 95 129 l50 16 0 79 0
78 -48 -2 c-102 -3 -217 -91 -251 -190 -21 -60 -20 -147 1 -209 25 -74 113
-157 188 -180 151 -43 298 23 364 165 23 51 26 70 29 201 1 80 -1 213 -5 295
l-8 150 -25 2 c-14 1 -49 -10 -77 -24z"/>
</g>
</svg>
