<?xml version="1.0" standalone="no"?>
<!DOCTYPE svg PUBLIC "-//W3C//DTD SVG 20010904//EN"
 "http://www.w3.org/TR/2001/REC-SVG-20010904/DTD/svg10.dtd">
<svg version="1.0" xmlns="http://www.w3.org/2000/svg"
 width="192.000000pt" height="192.000000pt" viewBox="0 0 192.000000 192.000000"
 preserveAspectRatio="xMidYMid meet">
<metadata>
Created by potrace 1.16, written by Peter Selinger 2001-2019
</metadata>
<g transform="translate(0.000000,192.000000) scale(0.100000,-0.100000)"
fill="#000000" stroke="none">
811 c445 -92 729 -532 635 -987 -62 -301 -295 -546 -601 -630 -91 -26 -329
-26 -420 0 -291 80 -516 305 -596 596 -26 91 -26 329 0 420 120 433 542 692
982 601z"/>
<path d="M775 1371 c-54 -14 -95 -41 -123 -83 l-27 -42 0 -281 0 -281 28 -42
c48 -73 87 -86 272 -90 203 -5 252 4 310 62 28 29 45 57 53 88 16 63 16 463 0
526 -17 66 -79 126 -147 141 -57 12 -318 13 -366 2z m250 -86 c0 -19 -8 -20
-107 -23 -100 -2 -108 -1 -108 16 0 10 3 22 7 26 4 4 52 5 107 4 93 -3 101 -5
101 -23z m75 10 c15 -18 5 -35 -21 -35 -12 0 -19 7 -19 18 0 33 20 42 40 17z
m-98 -570 c9 -19 8 -29 -6 -50 -18 -27 -36 -31 -67 -15 -22 12 -26 59 -7 78
22 22 67 14 80 -13z"/>
</g>
</svg>
