<?xml version="1.0" standalone="no"?>
<!DOCTYPE svg PUBLIC "-//W3C//DTD SVG 20010904//EN"
 "http://www.w3.org/TR/2001/REC-SVG-20010904/DTD/svg10.dtd">
<svg version="1.0" xmlns="http://www.w3.org/2000/svg"
 width="192.000000pt" height="192.000000pt" viewBox="0 0 192.000000 192.000000"
 preserveAspectRatio="xMidYMid meet">
<metadata>
Created by potrace 1.16, written by Peter Selinger 2001-2019
</metadata>
<g transform="translate(0.000000,192.000000) scale(0.100000,-0.100000)"
fill="#000000" stroke="none">
811 c445 -92 729 -532 635 -987 -62 -301 -295 -546 -601 -630 -91 -26 -329
-26 -420 0 -291 80 -516 305 -596 596 -26 91 -26 329 0 420 120 433 542 692
982 601z"/>
<path d="M1115 1266 c-593 -245 -604 -250 -590 -305 9 -37 21 -46 104 -79 l75
-29 28 -84 c41 -123 74 -138 154 -68 l47 40 56 -55 c68 -67 105 -79 144 -44
25 21 32 46 82 297 30 151 55 283 55 292 0 22 -30 56 -55 63 -11 3 -55 -9
-100 -28z m10 -306 c-25 -123 -45 -226 -45 -228 0 -2 -26 19 -57 47 -62 56
-99 65 -141 35 -28 -19 -32 -17 -25 17 3 16 51 75 119 147 63 66 114 123 114
126 0 18 -45 -3 -185 -84 l-155 -89 -46 20 c-26 11 -45 22 -42 24 7 8 502 214
505 211 2 -1 -17 -103 -42 -226z"/>
</g>
</svg>
