<?xml version="1.0" standalone="no"?>
<!DOCTYPE svg PUBLIC "-//W3C//DTD SVG 20010904//EN"
 "http://www.w3.org/TR/2001/REC-SVG-20010904/DTD/svg10.dtd">
<svg version="1.0" xmlns="http://www.w3.org/2000/svg"
 width="192.000000pt" height="192.000000pt" viewBox="0 0 192.000000 192.000000"
 preserveAspectRatio="xMidYMid meet">
<metadata>
Created by potrace 1.16, written by Peter Selinger 2001-2019
</metadata>
<g transform="translate(0.000000,192.000000) scale(0.100000,-0.100000)"
fill="#000000" stroke="none">
811 c445 -92 729 -532 635 -987 -62 -301 -295 -546 -601 -630 -91 -26 -329
-26 -420 0 -291 80 -516 305 -596 596 -26 91 -26 329 0 420 120 433 542 692
982 601z"/>
<path d="M1035 1264 c-140 -34 -316 -147 -403 -259 -113 -144 -117 -268 -11
-330 73 -43 339 -15 339 35 0 23 2 23 -75 5 -111 -27 -216 -13 -251 33 -7 9
-14 37 -14 61 0 92 109 236 245 323 113 72 167 91 272 96 88 4 93 3 117 -21
95 -95 -101 -317 -293 -334 -70 -7 -101 7 -101 44 0 34 83 116 134 133 26 8
36 17 34 28 -8 36 -120 -1 -207 -67 -49 -37 -91 -107 -91 -151 0 -108 149
-116 343 -20 234 117 348 298 248 394 -15 14 -43 31 -62 36 -48 14 -153 11
-224 -6z"/>
<path d="M1180 1160 c-16 -12 -41 -20 -67 -20 -46 0 -59 -11 -45 -36 7 -13 3
-23 -16 -39 -33 -29 -23 -48 19 -33 26 9 33 7 54 -12 l24 -23 17 36 c13 28 28
40 58 50 44 15 55 40 18 45 -18 3 -21 8 -16 28 8 30 -11 32 -46 4z"/>
</g>
</svg>
