<?xml version="1.0" standalone="no"?>
<!DOCTYPE svg PUBLIC "-//W3C//DTD SVG 20010904//EN"
 "http://www.w3.org/TR/2001/REC-SVG-20010904/DTD/svg10.dtd">
<svg version="1.0" xmlns="http://www.w3.org/2000/svg"
 width="192.000000pt" height="192.000000pt" viewBox="0 0 192.000000 192.000000"
 preserveAspectRatio="xMidYMid meet">
<metadata>
Created by potrace 1.16, written by Peter Selinger 2001-2019
</metadata>
<g transform="translate(0.000000,192.000000) scale(0.100000,-0.100000)"
fill="#000000" stroke="none">
811 c445 -92 729 -532 635 -987 -62 -301 -295 -546 -601 -630 -91 -26 -329
-26 -420 0 -291 80 -516 305 -596 596 -26 91 -26 329 0 420 120 433 542 692
982 601z"/>
<path d="M716 1325 c-57 -20 -87 -46 -113 -95 -22 -41 -23 -53 -23 -259 0
-238 6 -267 66 -323 48 -44 72 -48 310 -48 251 0 269 4 321 63 50 57 55 89 51
328 l-3 216 -28 41 c-15 23 -46 52 -70 64 -39 22 -55 23 -257 25 -167 2 -224
0 -254 -12z m480 -77 c57 -31 64 -63 64 -281 0 -108 -5 -208 -10 -222 -9 -23
-14 -26 -38 -20 -61 14 -97 39 -100 68 -2 16 3 36 11 45 31 36 47 83 47 138 0
50 -3 59 -34 90 -30 30 -40 34 -84 34 -39 0 -57 -6 -81 -25 -58 -49 -64 -138
-15 -211 18 -26 24 -47 22 -73 -3 -35 -5 -37 -68 -59 -36 -13 -74 -32 -86 -43
-27 -26 -84 -25 -118 2 -52 41 -56 62 -56 274 0 306 0 305 320 302 162 -2 200
-5 226 -19z"/>
<path d="M700 1155 l0 -25 105 0 105 0 0 25 0 25 -105 0 -105 0 0 -25z"/>
<path d="M704 1085 c-4 -8 -3 -22 0 -30 5 -13 23 -15 103 -13 l98 3 3 28 3 27
-101 0 c-80 0 -102 -3 -106 -15z"/>
<path d="M707 1014 c-16 -16 -6 -44 17 -50 45 -11 71 -1 71 26 0 22 -5 25 -40
28 -23 2 -44 0 -48 -4z"/>
</g>
</svg>
