<?xml version="1.0" standalone="no"?>
<!DOCTYPE svg PUBLIC "-//W3C//DTD SVG 20010904//EN"
 "http://www.w3.org/TR/2001/REC-SVG-20010904/DTD/svg10.dtd">
<svg version="1.0" xmlns="http://www.w3.org/2000/svg"
 width="192.000000pt" height="192.000000pt" viewBox="0 0 192.000000 192.000000"
 preserveAspectRatio="xMidYMid meet">
<metadata>
Created by potrace 1.16, written by Peter Selinger 2001-2019
</metadata>
<g transform="translate(0.000000,192.000000) scale(0.100000,-0.100000)"
fill="#000000" stroke="none">
811 c445 -92 729 -532 635 -987 -62 -301 -295 -546 -601 -630 -91 -26 -329
-26 -420 0 -291 80 -516 305 -596 596 -26 91 -26 329 0 420 120 433 542 692
982 601z"/>
<path d="M1260 1264 c-14 -3 -44 -7 -67 -10 -45 -6 -53 -17 -28 -44 13 -14 1
-29 -115 -145 l-130 -129 -133 132 c-74 73 -137 132 -141 132 -24 0 -46 -24
-46 -49 0 -22 30 -60 152 -190 84 -88 159 -161 169 -161 9 0 38 24 65 53 26
28 95 101 151 161 101 106 104 108 123 91 11 -10 23 -16 26 -13 8 9 32 167 26
173 -5 5 -9 5 -52 -1z"/>
<path d="M600 894 c0 -182 2 -202 18 -217 25 -22 48 -21 72 3 18 18 20 33 20
158 l0 137 -55 60 -54 60 -1 -201z"/>
<path d="M1183 1034 l-53 -59 0 -127 c0 -70 4 -138 10 -152 13 -35 56 -45 81
-19 18 18 19 33 17 218 l-3 199 -52 -60z"/>
</g>
</svg>
