<?xml version="1.0" standalone="no"?>
<!DOCTYPE svg PUBLIC "-//W3C//DTD SVG 20010904//EN"
 "http://www.w3.org/TR/2001/REC-SVG-20010904/DTD/svg10.dtd">
<svg version="1.0" xmlns="http://www.w3.org/2000/svg"
 width="192.000000pt" height="192.000000pt" viewBox="0 0 192.000000 192.000000"
 preserveAspectRatio="xMidYMid meet">
<metadata>
Created by potrace 1.16, written by Peter Selinger 2001-2019
</metadata>
<g transform="translate(0.000000,192.000000) scale(0.100000,-0.100000)"
fill="#000000" stroke="none">
811 c445 -92 729 -532 635 -987 -62 -301 -295 -546 -601 -630 -91 -26 -329
-26 -420 0 -291 80 -516 305 -596 596 -26 91 -26 329 0 420 120 433 542 692
982 601z"/>
<path d="M637 1296 c-98 -36 -109 -73 -105 -354 3 -242 4 -246 72 -296 26 -20
40 -21 351 -21 311 0 325 1 351 21 68 50 69 53 72 302 3 220 2 228 -20 272
-43 83 -50 85 -388 87 -231 2 -303 0 -333 -11z m618 -112 c9 -9 15 -24 13 -33
-5 -27 -293 -271 -320 -271 -14 0 -306 240 -312 256 -9 24 12 54 39 54 15 0
68 -36 149 -101 69 -55 130 -98 135 -95 5 3 62 51 127 106 65 55 126 100 135
100 10 0 25 -7 34 -16z"/>
</g>
</svg>
