<?xml version="1.0" standalone="no"?>
<!DOCTYPE svg PUBLIC "-//W3C//DTD SVG 20010904//EN"
 "http://www.w3.org/TR/2001/REC-SVG-20010904/DTD/svg10.dtd">
<svg version="1.0" xmlns="http://www.w3.org/2000/svg"
 width="192.000000pt" height="192.000000pt" viewBox="0 0 192.000000 192.000000"
 preserveAspectRatio="xMidYMid meet">
<metadata>
Created by potrace 1.16, written by Peter Selinger 2001-2019
</metadata>
<g transform="translate(0.000000,192.000000) scale(0.100000,-0.100000)"
fill="#000000" stroke="none">
811 c445 -92 729 -532 635 -987 -62 -301 -295 -546 -601 -630 -91 -26 -329
-26 -420 0 -291 80 -516 305 -596 596 -26 91 -26 329 0 420 120 433 542 692
982 601z"/>
<path d="M779 1317 c-18 -12 -47 -46 -64 -75 -25 -44 -33 -52 -52 -47 -35 8
-53 -18 -42 -61 10 -32 7 -42 -31 -106 -65 -108 -64 -120 18 -278 85 -164 103
-180 203 -180 61 0 69 -2 69 -19 0 -37 48 -35 80 3 10 13 34 16 110 16 131 0
143 9 232 168 80 142 85 170 44 250 -24 47 -25 54 -11 68 30 30 14 56 -40 68
-25 6 -39 22 -80 93 -70 120 -76 123 -256 123 -135 0 -149 -2 -180 -23z m353
-24 c10 -9 39 -50 64 -91 l45 -74 -43 8 c-94 17 -101 15 -120 -45 -10 -30 -19
-56 -22 -58 -6 -6 -94 150 -98 174 -2 15 11 36 42 68 40 41 49 46 79 41 18 -3
42 -13 53 -23z m-134 -222 c35 -60 39 -75 35 -114 -5 -39 -3 -46 16 -52 11 -3
25 -4 30 -1 8 5 51 -52 51 -68 0 -3 -38 -6 -83 -6 -71 0 -87 3 -102 20 -23 26
-55 26 -62 0 -4 -17 -14 -20 -55 -20 -27 0 -48 3 -46 8 2 4 19 35 38 69 28 49
41 64 65 69 54 12 70 38 40 68 -14 14 -14 19 7 56 13 22 24 40 25 40 1 0 19
-31 41 -69z m-328 -56 c7 -30 18 -60 25 -65 7 -6 31 -4 66 5 29 8 57 15 61 15
4 0 -13 -34 -37 -75 -25 -42 -45 -79 -45 -83 0 -4 -13 -15 -29 -25 -28 -16
-32 -16 -66 0 -42 20 -75 75 -75 124 0 32 63 159 79 159 4 0 14 -25 21 -55z
m537 -241 c26 -20 33 -32 33 -59 0 -86 -41 -117 -162 -123 -49 -3 -88 -1 -88
4 0 5 21 29 46 55 l46 47 -47 51 -48 51 93 0 c84 0 96 -2 127 -26z"/>
</g>
</svg>
