<?xml version="1.0" standalone="no"?>
<!DOCTYPE svg PUBLIC "-//W3C//DTD SVG 20010904//EN"
 "http://www.w3.org/TR/2001/REC-SVG-20010904/DTD/svg10.dtd">
<svg version="1.0" xmlns="http://www.w3.org/2000/svg"
 width="192.000000pt" height="192.000000pt" viewBox="0 0 192.000000 192.000000"
 preserveAspectRatio="xMidYMid meet">
<metadata>
Created by potrace 1.16, written by Peter Selinger 2001-2019
</metadata>
<g transform="translate(0.000000,192.000000) scale(0.100000,-0.100000)"
fill="#000000" stroke="none">
811 c445 -92 729 -532 635 -987 -62 -301 -295 -546 -601 -630 -91 -26 -329
-26 -420 0 -291 80 -516 305 -596 596 -26 91 -26 329 0 420 120 433 542 692
982 601z"/>
<path d="M798 1351 c-75 -24 -112 -53 -145 -109 l-28 -47 0 -230 c0 -218 1
-232 22 -272 29 -54 82 -96 145 -117 100 -32 373 -15 418 26 43 40 35 107 -16
130 -19 9 -44 9 -108 0 -150 -22 -262 -10 -288 31 -10 15 -10 57 0 57 29 0
324 70 353 84 44 21 95 69 116 110 21 41 28 144 13 191 -18 54 -72 109 -133
136 -73 32 -265 38 -349 10z m285 -162 c30 -16 37 -28 37 -70 0 -22 -7 -42
-18 -53 -17 -15 -158 -52 -270 -71 l-42 -7 0 85 c0 95 8 110 76 126 48 13 186
6 217 -10z"/>
</g>
</svg>
