<?xml version="1.0" standalone="no"?>
<!DOCTYPE svg PUBLIC "-//W3C//DTD SVG 20010904//EN"
 "http://www.w3.org/TR/2001/REC-SVG-20010904/DTD/svg10.dtd">
<svg version="1.0" xmlns="http://www.w3.org/2000/svg"
 width="192.000000pt" height="192.000000pt" viewBox="0 0 192.000000 192.000000"
 preserveAspectRatio="xMidYMid meet">
<metadata>
Created by potrace 1.16, written by Peter Selinger 2001-2019
</metadata>
<g transform="translate(0.000000,192.000000) scale(0.100000,-0.100000)"
fill="#000000" stroke="none">
811 c445 -92 729 -532 635 -987 -62 -301 -295 -546 -601 -630 -91 -26 -329
-26 -420 0 -291 80 -516 305 -596 596 -26 91 -26 329 0 420 120 433 542 692
982 601z"/>
<path d="M906 1350 c-38 -12 -75 -47 -92 -87 -22 -51 -19 -288 4 -333 51 -103
201 -108 262 -8 17 29 20 51 20 176 0 112 -4 152 -16 178 -28 58 -113 94 -178
74z"/>
<path d="M674 1025 c-12 -18 -14 -35 -9 -62 20 -109 90 -196 184 -230 41 -14
51 -22 51 -40 0 -19 -5 -23 -34 -23 -59 0 -86 -49 -48 -83 15 -14 40 -17 131
-17 126 0 151 8 151 48 0 38 -17 52 -62 52 -33 0 -38 3 -38 23 0 18 9 25 48
37 64 19 152 106 175 174 30 87 16 146 -33 146 -25 0 -50 -37 -50 -73 0 -44
-37 -105 -82 -134 -35 -24 -52 -28 -108 -28 -54 0 -73 5 -102 24 -47 33 -76
77 -84 131 -11 77 -57 105 -90 55z"/>
</g>
</svg>
