<?xml version="1.0" standalone="no"?>
<!DOCTYPE svg PUBLIC "-//W3C//DTD SVG 20010904//EN"
 "http://www.w3.org/TR/2001/REC-SVG-20010904/DTD/svg10.dtd">
<svg version="1.0" xmlns="http://www.w3.org/2000/svg"
 width="192.000000pt" height="192.000000pt" viewBox="0 0 192.000000 192.000000"
 preserveAspectRatio="xMidYMid meet">
<metadata>
Created by potrace 1.16, written by Peter Selinger 2001-2019
</metadata>
<g transform="translate(0.000000,192.000000) scale(0.100000,-0.100000)"
fill="#000000" stroke="none">
811 c445 -92 729 -532 635 -987 -62 -301 -295 -546 -601 -630 -91 -26 -329
-26 -420 0 -291 80 -516 305 -596 596 -26 91 -26 329 0 420 120 433 542 692
982 601z"/>
<path d="M890 1359 c-54 -22 -110 -94 -110 -142 0 -21 -6 -25 -42 -30 -55 -7
-116 -52 -145 -106 -21 -41 -23 -56 -23 -203 0 -204 18 -250 112 -299 33 -17
61 -19 273 -19 265 0 278 3 337 68 47 52 53 83 53 262 -1 157 -11 195 -67 247
-27 25 -88 53 -117 53 -14 0 -21 9 -26 33 -23 109 -144 176 -245 136z m119
-62 c27 -14 56 -51 66 -84 6 -23 6 -23 -114 -23 -133 0 -136 2 -106 60 27 53
100 75 154 47z m-181 -203 c4 -48 -18 -75 -43 -54 -30 25 -15 103 19 98 17 -2
22 -11 24 -44z m306 30 c20 -51 -8 -110 -39 -84 -15 12 -21 81 -8 93 12 13 41
7 47 -9z m-25 -276 l18 -43 22 43 c16 32 27 42 46 42 14 0 25 -2 25 -4 0 -2
-16 -32 -35 -66 -19 -34 -35 -75 -35 -91 0 -24 -4 -29 -25 -29 -23 0 -25 4
-26 43 -1 34 -2 37 -8 17 -7 -25 -41 -42 -41 -20 0 18 -57 -17 -63 -39 -4 -17
-13 -20 -56 -19 -32 0 -51 4 -51 12 0 8 -20 11 -67 8 -88 -4 -118 11 -118 58
0 47 30 62 118 58 l67 -4 0 33 c0 26 4 33 20 33 16 0 20 -7 20 -32 0 -36 -8
-33 93 -29 17 1 27 7 27 16 0 13 -7 15 -36 9 -29 -5 -36 -4 -32 7 3 8 15 16
29 17 13 2 28 8 34 13 5 5 20 9 32 9 18 0 28 -10 42 -42z"/>
<path d="M777 793 c-15 -14 -6 -23 23 -23 20 0 30 5 30 15 0 15 -40 21 -53 8z"/>
<path d="M924 787 c-9 -24 0 -80 14 -85 8 -2 12 10 12 42 0 45 -15 70 -26 43z"/>
<path d="M1010 780 c0 -11 7 -20 15 -20 8 0 15 9 15 20 0 11 -7 20 -15 20 -8
0 -15 -9 -15 -20z"/>
<path d="M770 745 c0 -21 29 -31 51 -17 10 7 28 12 39 12 12 0 18 5 15 10 -3
6 -28 10 -56 10 -37 0 -49 -4 -49 -15z"/>
</g>
</svg>
