<?xml version="1.0" standalone="no"?>
<!DOCTYPE svg PUBLIC "-//W3C//DTD SVG 20010904//EN"
 "http://www.w3.org/TR/2001/REC-SVG-20010904/DTD/svg10.dtd">
<svg version="1.0" xmlns="http://www.w3.org/2000/svg"
 width="192.000000pt" height="192.000000pt" viewBox="0 0 192.000000 192.000000"
 preserveAspectRatio="xMidYMid meet">
<metadata>
Created by potrace 1.16, written by Peter Selinger 2001-2019
</metadata>
<g transform="translate(0.000000,192.000000) scale(0.100000,-0.100000)"
fill="#000000" stroke="none">
811 c445 -92 729 -532 635 -987 -62 -301 -295 -546 -601 -630 -91 -26 -329
-26 -420 0 -291 80 -516 305 -596 596 -26 91 -26 329 0 420 120 433 542 692
982 601z"/>
<path d="M649 1331 c-38 -38 -40 -91 -4 -126 13 -14 33 -25 45 -25 20 0 20 -5
20 -210 l0 -210 -25 -6 c-53 -13 -81 -85 -54 -136 23 -42 63 -48 327 -48 257
0 304 6 322 40 6 10 10 64 10 120 0 94 -2 103 -25 125 -37 38 -95 35 -129 -6
-15 -18 -26 -43 -26 -60 l0 -29 -100 0 -100 0 0 60 0 60 53 0 c110 0 157 31
157 101 0 29 -7 43 -31 63 -27 23 -39 26 -105 26 l-75 0 3 53 3 52 98 3 97 3
0 -26 c0 -93 113 -137 164 -63 12 17 16 47 16 124 0 152 18 144 -332 144
l-280 0 -29 -29z"/>
</g>
</svg>
