<?xml version="1.0" standalone="no"?>
<!DOCTYPE svg PUBLIC "-//W3C//DTD SVG 20010904//EN"
 "http://www.w3.org/TR/2001/REC-SVG-20010904/DTD/svg10.dtd">
<svg version="1.0" xmlns="http://www.w3.org/2000/svg"
 width="192.000000pt" height="192.000000pt" viewBox="0 0 192.000000 192.000000"
 preserveAspectRatio="xMidYMid meet">
<metadata>
Created by potrace 1.16, written by Peter Selinger 2001-2019
</metadata>
<g transform="translate(0.000000,192.000000) scale(0.100000,-0.100000)"
fill="#000000" stroke="none">
811 c445 -92 729 -532 635 -987 -62 -301 -295 -546 -601 -630 -91 -26 -329
-26 -420 0 -291 80 -516 305 -596 596 -26 91 -26 329 0 420 120 433 542 692
982 601z"/>
<path d="M855 1346 c-156 -39 -272 -168 -293 -321 -23 -180 57 -334 216 -412
l76 -38 174 0 174 0 24 28 c45 52 25 134 -38 156 -17 6 -89 11 -160 11 -108 0
-135 3 -167 20 -109 55 -142 191 -70 290 48 66 90 80 247 80 140 0 181 10 202
49 18 35 12 88 -14 118 l-24 28 -149 2 c-94 1 -166 -3 -198 -11z"/>
<path d="M835 1036 c-32 -32 -40 -69 -25 -107 22 -52 42 -59 170 -59 128 0
148 7 170 59 15 38 7 75 -25 107 -23 23 -31 24 -145 24 -114 0 -122 -1 -145
-24z"/>
</g>
</svg>
