<?xml version="1.0" standalone="no"?>
<!DOCTYPE svg PUBLIC "-//W3C//DTD SVG 20010904//EN"
 "http://www.w3.org/TR/2001/REC-SVG-20010904/DTD/svg10.dtd">
<svg version="1.0" xmlns="http://www.w3.org/2000/svg"
 width="192.000000pt" height="192.000000pt" viewBox="0 0 192.000000 192.000000"
 preserveAspectRatio="xMidYMid meet">
<metadata>
Created by potrace 1.16, written by Peter Selinger 2001-2019
</metadata>
<g transform="translate(0.000000,192.000000) scale(0.100000,-0.100000)"
fill="#000000" stroke="none">
811 c445 -92 729 -532 635 -987 -62 -301 -295 -546 -601 -630 -91 -26 -329
-26 -420 0 -291 80 -516 305 -596 596 -26 91 -26 329 0 420 120 433 542 692
982 601z"/>
<path d="M870 1359 c-117 -23 -229 -112 -283 -226 -29 -62 -32 -76 -32 -168 0
-92 3 -106 32 -168 78 -163 257 -259 430 -230 136 24 248 108 306 230 l32 68
3 208 c4 231 2 239 -61 277 -29 18 -50 20 -207 19 -96 -1 -195 -5 -220 -10z
m217 -124 c59 -27 103 -66 103 -91 0 -10 -74 -92 -165 -184 -91 -91 -165 -169
-165 -172 0 -4 19 -12 42 -18 105 -29 215 31 252 137 18 52 60 68 87 34 20
-25 18 -52 -9 -106 -31 -63 -74 -105 -140 -137 -57 -28 -77 -33 -137 -32 -172
1 -299 129 -299 299 -1 224 224 365 431 270z"/>
<path d="M885 1155 c-84 -30 -144 -130 -131 -219 13 -80 14 -80 165 63 77 74
138 137 135 142 -6 11 -72 29 -104 29 -14 -1 -43 -7 -65 -15z"/>
</g>
</svg>
