<?xml version="1.0" standalone="no"?>
<!DOCTYPE svg PUBLIC "-//W3C//DTD SVG 20010904//EN"
 "http://www.w3.org/TR/2001/REC-SVG-20010904/DTD/svg10.dtd">
<svg version="1.0" xmlns="http://www.w3.org/2000/svg"
 width="192.000000pt" height="192.000000pt" viewBox="0 0 192.000000 192.000000"
 preserveAspectRatio="xMidYMid meet">
<metadata>
Created by potrace 1.16, written by Peter Selinger 2001-2019
</metadata>
<g transform="translate(0.000000,192.000000) scale(0.100000,-0.100000)"
fill="#000000" stroke="none">
811 c445 -92 729 -532 635 -987 -62 -301 -295 -546 -601 -630 -91 -26 -329
-26 -420 0 -291 80 -516 305 -596 596 -26 91 -26 329 0 420 120 433 542 692
982 601z"/>
<path d="M706 1344 c-14 -13 -16 -62 -16 -383 0 -272 3 -370 12 -379 17 -17
489 -17 506 0 7 7 12 42 12 88 0 46 -5 81 -12 88 -8 8 -54 12 -140 12 l-128 0
0 45 0 45 96 0 c132 0 134 1 134 105 0 104 -2 105 -134 105 l-96 0 0 40 0 40
116 0 c63 0 124 5 135 10 16 9 19 22 19 95 0 73 -3 86 -19 95 -12 6 -109 10
-245 10 -191 0 -227 -2 -240 -16z"/>
</g>
</svg>
