<?xml version="1.0" standalone="no"?>
<!DOCTYPE svg PUBLIC "-//W3C//DTD SVG 20010904//EN"
 "http://www.w3.org/TR/2001/REC-SVG-20010904/DTD/svg10.dtd">
<svg version="1.0" xmlns="http://www.w3.org/2000/svg"
 width="192.000000pt" height="192.000000pt" viewBox="0 0 192.000000 192.000000"
 preserveAspectRatio="xMidYMid meet">
<metadata>
Created by potrace 1.16, written by Peter Selinger 2001-2019
</metadata>
<g transform="translate(0.000000,192.000000) scale(0.100000,-0.100000)"
fill="#000000" stroke="none">
811 c445 -92 729 -532 635 -987 -62 -301 -295 -546 -601 -630 -91 -26 -329
-26 -420 0 -291 80 -516 305 -596 596 -26 91 -26 329 0 420 120 433 542 692
982 601z"/>
<path d="M937 1134 c-13 -13 -7 -52 8 -58 32 -12 12 -21 -49 -21 -47 0 -69 -5
-84 -18 -19 -17 -21 -17 -61 4 -146 76 -280 -102 -162 -215 41 -39 105 -46
160 -17 40 20 41 20 73 2 28 -16 56 -19 194 -20 136 -1 163 1 168 14 7 18 -2
45 -16 45 -5 0 1 14 13 31 l22 32 24 -27 c21 -24 22 -29 8 -42 -34 -35 -5 -56
72 -52 79 4 80 21 4 105 l-60 66 19 27 c10 15 38 45 60 68 58 57 52 76 -25 80
-67 4 -93 -14 -74 -49 6 -13 6 -25 -3 -39 -16 -25 -20 -25 -42 -1 -14 16 -15
23 -6 41 20 37 -3 51 -74 48 -51 -3 -61 -6 -65 -23 -2 -12 7 -27 22 -40 14
-11 41 -40 61 -64 l36 -43 -29 -37 c-95 -118 -100 -115 -103 62 l-3 142 -40 3
c-23 2 -44 0 -48 -4z m-209 -156 c24 -20 11 -28 -49 -28 -65 0 -75 13 -28 37
24 13 53 9 77 -9z m206 1 c45 -35 31 -102 -25 -121 -8 -3 -29 0 -47 7 -69 30
-44 130 34 134 6 1 23 -8 38 -20z m-174 -87 c0 -4 -18 -15 -41 -25 -34 -15
-44 -16 -66 -5 -52 25 -39 38 36 38 39 0 71 -3 71 -8z"/>
</g>
</svg>
