<?xml version="1.0" standalone="no"?>
<!DOCTYPE svg PUBLIC "-//W3C//DTD SVG 20010904//EN"
 "http://www.w3.org/TR/2001/REC-SVG-20010904/DTD/svg10.dtd">
<svg version="1.0" xmlns="http://www.w3.org/2000/svg"
 width="192.000000pt" height="192.000000pt" viewBox="0 0 192.000000 192.000000"
 preserveAspectRatio="xMidYMid meet">
<metadata>
Created by potrace 1.16, written by Peter Selinger 2001-2019
</metadata>
<g transform="translate(0.000000,192.000000) scale(0.100000,-0.100000)"
fill="#000000" stroke="none">
811 c445 -92 729 -532 635 -987 -62 -301 -295 -546 -601 -630 -91 -26 -329
-26 -420 0 -291 80 -516 305 -596 596 -26 91 -26 329 0 420 120 433 542 692
982 601z"/>
<path d="M882 1307 c-29 -29 -52 -57 -52 -63 0 -6 14 -28 30 -49 67 -84 21
-195 -81 -195 -25 0 -48 9 -74 30 -21 17 -45 30 -54 30 -21 0 -121 -100 -121
-120 0 -17 323 -342 357 -359 30 -15 109 -14 141 3 15 8 100 88 190 179 129
130 161 168 156 183 -4 10 -32 45 -62 76 l-56 58 31 32 c37 39 56 82 48 112
-19 66 -56 96 -120 96 -27 0 -45 -9 -78 -40 l-43 -39 -59 59 c-35 35 -68 60
-80 60 -12 0 -43 -23 -73 -53z"/>
</g>
</svg>
