<?xml version="1.0" standalone="no"?>
<!DOCTYPE svg PUBLIC "-//W3C//DTD SVG 20010904//EN"
 "http://www.w3.org/TR/2001/REC-SVG-20010904/DTD/svg10.dtd">
<svg version="1.0" xmlns="http://www.w3.org/2000/svg"
 width="192.000000pt" height="192.000000pt" viewBox="0 0 192.000000 192.000000"
 preserveAspectRatio="xMidYMid meet">
<metadata>
Created by potrace 1.16, written by Peter Selinger 2001-2019
</metadata>
<g transform="translate(0.000000,192.000000) scale(0.100000,-0.100000)"
fill="#000000" stroke="none">
811 c445 -92 729 -532 635 -987 -62 -301 -295 -546 -601 -630 -91 -26 -329
-26 -420 0 -291 80 -516 305 -596 596 -26 91 -26 329 0 420 120 433 542 692
982 601z"/>
<path d="M845 1357 c-155 -52 -258 -168 -287 -326 -32 -173 65 -356 229 -434
62 -29 76 -32 168 -32 89 0 107 3 163 29 72 33 96 59 81 88 -13 24 -21 23 -98
-14 -58 -29 -75 -33 -146 -32 -162 1 -280 95 -321 254 -39 153 38 310 185 379
80 37 192 37 272 0 96 -45 170 -139 186 -233 9 -55 -21 -48 -37 9 -36 129
-150 214 -285 215 -204 0 -345 -199 -279 -393 19 -57 92 -140 148 -170 59 -32
203 -32 262 0 46 24 60 48 43 69 -15 18 -39 18 -78 -2 -85 -42 -181 -25 -251
45 -93 94 -93 217 0 312 62 64 134 83 223 58 66 -18 147 -108 147 -163 0 -26
-27 -18 -38 12 -14 41 -62 93 -99 108 -45 19 -121 17 -162 -4 -19 -9 -48 -34
-65 -55 -25 -31 -31 -49 -34 -100 -4 -73 15 -115 72 -162 35 -27 44 -30 112
-30 62 0 77 3 95 21 18 18 19 25 9 44 -9 17 -17 21 -38 15 -91 -23 -139 -10
-167 45 -53 102 53 208 155 155 26 -13 50 -42 50 -59 0 -3 -20 -6 -45 -6 -49
0 -71 -21 -54 -53 9 -15 30 -17 193 -17 220 0 216 -2 199 97 -24 137 -107 248
-230 306 -56 26 -82 32 -153 34 -52 2 -101 -2 -125 -10z"/>
</g>
</svg>
