<?xml version="1.0" standalone="no"?>
<!DOCTYPE svg PUBLIC "-//W3C//DTD SVG 20010904//EN"
 "http://www.w3.org/TR/2001/REC-SVG-20010904/DTD/svg10.dtd">
<svg version="1.0" xmlns="http://www.w3.org/2000/svg"
 width="192.000000pt" height="192.000000pt" viewBox="0 0 192.000000 192.000000"
 preserveAspectRatio="xMidYMid meet">
<metadata>
Created by potrace 1.16, written by Peter Selinger 2001-2019
</metadata>
<g transform="translate(0.000000,192.000000) scale(0.100000,-0.100000)"
fill="#000000" stroke="none">
811 c445 -92 729 -532 635 -987 -62 -301 -295 -546 -601 -630 -91 -26 -329
-26 -420 0 -291 80 -516 305 -596 596 -26 91 -26 329 0 420 120 433 542 692
982 601z"/>
<path d="M831 1352 c-85 -27 -87 -41 -13 -115 l63 -64 53 5 c30 2 71 -1 91 -8
48 -16 121 -88 130 -129 9 -41 30 -51 112 -51 92 0 99 6 84 65 -32 126 -103
215 -218 272 -66 33 -85 37 -161 40 -62 2 -102 -2 -141 -15z"/>
<path d="M658 1243 c-100 -110 -133 -260 -88 -405 24 -79 74 -152 95 -141 33
19 124 99 125 110 0 6 -10 29 -22 50 -18 30 -23 53 -23 109 0 72 3 80 70 170
7 10 -6 29 -50 74 -33 33 -64 60 -70 60 -6 0 -23 -12 -37 -27z"/>
<path d="M1173 928 c-6 -7 -13 -25 -17 -41 -10 -41 -71 -104 -121 -123 -43
-16 -116 -16 -170 0 -15 5 -37 -8 -85 -49 -36 -31 -65 -61 -65 -67 0 -19 64
-57 123 -74 82 -24 210 -16 284 18 67 31 147 102 182 162 29 49 60 151 52 172
-7 19 -169 20 -183 2z"/>
</g>
</svg>
