<?xml version="1.0" standalone="no"?>
<!DOCTYPE svg PUBLIC "-//W3C//DTD SVG 20010904//EN"
 "http://www.w3.org/TR/2001/REC-SVG-20010904/DTD/svg10.dtd">
<svg version="1.0" xmlns="http://www.w3.org/2000/svg"
 width="192.000000pt" height="192.000000pt" viewBox="0 0 192.000000 192.000000"
 preserveAspectRatio="xMidYMid meet">
<metadata>
Created by potrace 1.16, written by Peter Selinger 2001-2019
</metadata>
<g transform="translate(0.000000,192.000000) scale(0.100000,-0.100000)"
fill="#000000" stroke="none">
811 c445 -92 729 -532 635 -987 -62 -301 -295 -546 -601 -630 -91 -26 -329
-26 -420 0 -291 80 -516 305 -596 596 -26 91 -26 329 0 420 120 433 542 692
982 601z"/>
<path d="M858 1363 c-10 -11 -18 -26 -18 -35 0 -23 34 -48 66 -48 36 0 111
-34 142 -63 34 -31 61 -89 69 -143 9 -71 50 -96 88 -54 14 15 16 29 10 67 -22
153 -142 275 -286 290 -45 4 -57 2 -71 -14z"/>
<path d="M774 1216 c-126 -40 -224 -170 -224 -297 0 -38 4 -51 20 -59 43 -23
80 13 80 78 0 15 14 50 30 79 34 60 96 102 163 110 23 3 50 10 60 15 20 10 23
58 5 76 -15 15 -81 14 -134 -2z"/>
<path d="M893 1101 c-99 -46 -113 -172 -28 -251 23 -21 36 -25 92 -25 63 0 65
1 104 42 35 38 39 48 39 93 0 60 -18 100 -58 129 -44 31 -99 35 -149 12z"/>
<path d="M1282 1068 c-5 -7 -13 -33 -17 -58 -17 -104 -88 -181 -184 -200 -31
-7 -63 -15 -71 -19 -22 -12 -24 -50 -3 -73 15 -17 25 -19 68 -13 110 14 207
87 256 190 31 64 39 151 17 173 -16 16 -53 15 -66 0z"/>
<path d="M700 910 c-14 -26 2 -116 30 -176 25 -50 107 -129 156 -150 67 -28
135 -36 161 -19 25 17 31 56 11 73 -7 5 -33 13 -58 17 -104 17 -181 88 -200
184 -16 76 -22 85 -58 89 -23 2 -34 -2 -42 -18z"/>
</g>
</svg>
