<?xml version="1.0" standalone="no"?>
<!DOCTYPE svg PUBLIC "-//W3C//DTD SVG 20010904//EN"
 "http://www.w3.org/TR/2001/REC-SVG-20010904/DTD/svg10.dtd">
<svg version="1.0" xmlns="http://www.w3.org/2000/svg"
 width="192.000000pt" height="192.000000pt" viewBox="0 0 192.000000 192.000000"
 preserveAspectRatio="xMidYMid meet">
<metadata>
Created by potrace 1.16, written by Peter Selinger 2001-2019
</metadata>
<g transform="translate(0.000000,192.000000) scale(0.100000,-0.100000)"
fill="#000000" stroke="none">
811 c445 -92 729 -532 635 -987 -62 -301 -295 -546 -601 -630 -91 -26 -329
-26 -420 0 -291 80 -516 305 -596 596 -26 91 -26 329 0 420 120 433 542 692
982 601z"/>
<path d="M888 1380 c-149 -26 -273 -138 -323 -289 -28 -85 -18 -217 22 -302
75 -160 215 -246 387 -237 178 9 325 130 370 303 77 294 -168 576 -456 525z
m-160 -356 c12 -8 22 -26 22 -40 0 -21 -4 -24 -41 -24 -26 0 -38 -4 -33 -11 3
-6 16 -8 27 -5 12 3 27 0 34 -6 11 -9 10 -13 -4 -24 -26 -19 -57 -17 -87 7
-32 25 -34 66 -6 97 24 26 57 28 88 6z m157 6 c3 -5 18 -3 34 3 45 17 61 -3
61 -74 0 -56 -1 -59 -25 -59 -23 0 -25 4 -25 45 0 33 -4 45 -15 45 -11 0 -15
-12 -15 -45 0 -41 -2 -45 -25 -45 -23 0 -25 4 -25 45 0 33 -4 45 -15 45 -11 0
-15 -12 -15 -45 0 -41 -2 -45 -25 -45 -24 0 -25 2 -25 69 l0 69 55 0 c31 0 58
-4 60 -8z m226 -11 c16 -16 19 -30 17 -67 l-3 -47 -40 -2 c-74 -2 -87 4 -83
40 3 28 7 32 36 35 40 4 42 22 2 22 -28 0 -40 17 -23 33 14 15 74 6 94 -14z
m174 -51 c0 -84 -14 -101 -80 -100 -53 1 -66 7 -59 27 4 9 18 13 41 12 20 -1
38 3 40 9 2 7 -7 9 -25 6 -35 -5 -62 19 -62 55 0 45 25 62 89 60 l56 -2 0 -67z"/>
<path d="M670 990 c0 -5 7 -10 15 -10 8 0 15 5 15 10 0 6 -7 10 -15 10 -8 0
-15 -4 -15 -10z"/>
<path d="M1050 945 c0 -8 5 -15 10 -15 6 0 10 7 10 15 0 8 -4 15 -10 15 -5 0
-10 -7 -10 -15z"/>
<path d="M1195 990 c-8 -14 3 -30 21 -30 8 0 14 9 14 20 0 21 -24 28 -35 10z"/>
</g>
</svg>
