<?xml version="1.0" standalone="no"?>
<!DOCTYPE svg PUBLIC "-//W3C//DTD SVG 20010904//EN"
 "http://www.w3.org/TR/2001/REC-SVG-20010904/DTD/svg10.dtd">
<svg version="1.0" xmlns="http://www.w3.org/2000/svg"
 width="192.000000pt" height="192.000000pt" viewBox="0 0 192.000000 192.000000"
 preserveAspectRatio="xMidYMid meet">
<metadata>
Created by potrace 1.16, written by Peter Selinger 2001-2019
</metadata>
<g transform="translate(0.000000,192.000000) scale(0.100000,-0.100000)"
fill="#000000" stroke="none">
810 c245 -63 441 -223 549 -451 55 -116 75 -212 75 -354 0 -141 -20 -238 -75
-352 -86 -182 -215 -312 -396 -398 -116 -55 -212 -75 -354 -75 -142 0 -238 20
-354 75 -228 108 -388 304 -451 549 -28 110 -28 292 0 402 76 298 303 526 600
603 106 28 298 28 406 1z"/>
<path d="M592 1260 c-12 -12 -22 -26 -22 -33 1 -20 378 -250 397 -243 22 9
354 215 372 232 11 10 9 16 -12 38 l-26 26 -344 0 c-332 0 -344 -1 -365 -20z"/>
<path d="M560 924 c0 -208 4 -234 39 -261 12 -9 105 -12 359 -13 l343 0 24 25
25 24 0 216 c0 170 -3 215 -12 209 -7 -4 -95 -59 -196 -121 -100 -62 -184
-113 -186 -113 -3 0 -90 54 -195 120 -104 66 -193 120 -196 120 -3 0 -5 -93
-5 -206z"/>
</g>
</svg>
