<?xml version="1.0" standalone="no"?>
<!DOCTYPE svg PUBLIC "-//W3C//DTD SVG 20010904//EN"
 "http://www.w3.org/TR/2001/REC-SVG-20010904/DTD/svg10.dtd">
<svg version="1.0" xmlns="http://www.w3.org/2000/svg"
 width="192.000000pt" height="192.000000pt" viewBox="0 0 192.000000 192.000000"
 preserveAspectRatio="xMidYMid meet">
<metadata>
Created by potrace 1.16, written by Peter Selinger 2001-2019
</metadata>
<g transform="translate(0.000000,192.000000) scale(0.100000,-0.100000)"
fill="#000000" stroke="none">
810 c245 -63 441 -223 549 -451 55 -116 75 -212 75 -354 0 -141 -20 -238 -75
-352 -86 -182 -215 -312 -396 -398 -116 -55 -212 -75 -354 -75 -142 0 -238 20
-354 75 -228 108 -388 304 -451 549 -28 110 -28 292 0 402 76 298 303 526 600
603 106 28 298 28 406 1z"/>
<path d="M590 1260 c-11 -11 -20 -26 -20 -32 0 -20 378 -251 397 -243 22 8
354 214 372 231 11 10 9 16 -12 38 l-26 26 -346 0 c-332 0 -346 -1 -365 -20z"/>
<path d="M560 925 c0 -214 7 -254 45 -269 9 -3 169 -6 356 -6 l340 0 24 25
c25 24 25 24 25 240 0 208 -1 215 -19 206 -10 -6 -98 -60 -195 -121 -144 -90
-180 -109 -195 -101 -10 6 -98 60 -195 121 -96 60 -178 110 -181 110 -3 0 -5
-92 -5 -205z"/>
</g>
</svg>
