<?xml version="1.0" standalone="no"?>
<!DOCTYPE svg PUBLIC "-//W3C//DTD SVG 20010904//EN"
 "http://www.w3.org/TR/2001/REC-SVG-20010904/DTD/svg10.dtd">
<svg version="1.0" xmlns="http://www.w3.org/2000/svg"
 width="192.000000pt" height="192.000000pt" viewBox="0 0 192.000000 192.000000"
 preserveAspectRatio="xMidYMid meet">
<metadata>
Created by potrace 1.16, written by Peter Selinger 2001-2019
</metadata>
<g transform="translate(0.000000,192.000000) scale(0.100000,-0.100000)"
fill="#000000" stroke="none">
810 c245 -63 441 -223 549 -451 55 -116 75 -212 75 -354 0 -141 -20 -238 -75
-352 -86 -182 -215 -312 -396 -398 -116 -55 -212 -75 -354 -75 -142 0 -238 20
-354 75 -228 108 -388 304 -451 549 -28 110 -28 292 0 402 76 298 303 526 600
603 106 28 298 28 406 1z"/>
<path d="M593 1256 c-25 -22 -26 -26 -13 -39 16 -16 368 -237 377 -237 3 0 92
54 199 121 172 108 192 123 184 140 -6 10 -19 23 -30 29 -12 6 -145 10 -354
10 l-335 0 -28 -24z"/>
<path d="M562 915 l3 -217 28 -24 28 -24 329 0 c184 0 340 4 354 10 43 16 47
36 44 259 l-3 209 -190 -119 c-104 -65 -193 -119 -198 -119 -4 0 -87 50 -183
110 -97 61 -185 115 -196 121 -19 10 -19 5 -16 -206z"/>
</g>
</svg>
