<?xml version="1.0" standalone="no"?>
<!DOCTYPE svg PUBLIC "-//W3C//DTD SVG 20010904//EN"
 "http://www.w3.org/TR/2001/REC-SVG-20010904/DTD/svg10.dtd">
<svg version="1.0" xmlns="http://www.w3.org/2000/svg"
 width="192.000000pt" height="192.000000pt" viewBox="0 0 192.000000 192.000000"
 preserveAspectRatio="xMidYMid meet">
<metadata>
Created by potrace 1.16, written by Peter Selinger 2001-2019
</metadata>
<g transform="translate(0.000000,192.000000) scale(0.100000,-0.100000)"
fill="#000000" stroke="none">
810 c245 -63 441 -223 549 -451 55 -116 75 -212 75 -354 0 -141 -20 -238 -75
-352 -86 -182 -215 -312 -396 -398 -116 -55 -212 -75 -354 -75 -142 0 -238 20
-354 75 -228 108 -388 304 -451 549 -28 110 -28 292 0 402 76 298 303 526 600
603 106 28 298 28 406 1z"/>
<path d="M596 1259 c-14 -11 -26 -26 -26 -32 1 -10 347 -233 381 -245 6 -2 97
51 204 118 175 109 194 123 185 140 -6 11 -19 24 -30 30 -12 6 -144 10 -353
10 -323 0 -335 -1 -361 -21z"/>
<path d="M560 925 c0 -217 5 -245 47 -264 16 -7 135 -11 359 -11 l335 0 24 25
25 24 0 216 c0 170 -3 215 -12 209 -7 -4 -95 -59 -194 -121 -100 -62 -184
-113 -187 -113 -3 0 -92 54 -197 120 -105 66 -193 120 -196 120 -2 0 -4 -92
-4 -205z"/>
</g>
</svg>
