<?xml version="1.0" standalone="no"?>
<!DOCTYPE svg PUBLIC "-//W3C//DTD SVG 20010904//EN"
 "http://www.w3.org/TR/2001/REC-SVG-20010904/DTD/svg10.dtd">
<svg version="1.0" xmlns="http://www.w3.org/2000/svg"
 width="192.000000pt" height="192.000000pt" viewBox="0 0 192.000000 192.000000"
 preserveAspectRatio="xMidYMid meet">
<metadata>
Created by potrace 1.16, written by Peter Selinger 2001-2019
</metadata>
<g transform="translate(0.000000,192.000000) scale(0.100000,-0.100000)"
fill="#000000" stroke="none">
810 c245 -63 441 -223 549 -451 55 -116 75 -212 75 -354 0 -141 -20 -238 -75
-352 -86 -182 -215 -312 -396 -398 -116 -55 -212 -75 -354 -75 -142 0 -238 20
-354 75 -228 108 -388 304 -451 549 -28 110 -28 292 0 402 76 298 303 526 600
603 106 28 298 28 406 1z"/>
<path d="M593 1256 c-25 -22 -26 -26 -13 -39 34 -33 373 -238 385 -233 7 2 97
57 199 121 166 104 185 118 176 135 -6 11 -19 24 -30 30 -12 6 -145 10 -354
10 l-335 0 -28 -24z"/>
<path d="M562 914 l3 -216 28 -24 28 -24 340 0 340 0 24 25 25 24 0 217 0 216
-22 -14 c-77 -50 -353 -220 -363 -225 -8 -2 -100 50 -205 116 -105 67 -194
121 -196 121 -3 0 -4 -97 -2 -216z"/>
</g>
</svg>
