<?xml version="1.0" standalone="no"?>
<!DOCTYPE svg PUBLIC "-//W3C//DTD SVG 20010904//EN"
 "http://www.w3.org/TR/2001/REC-SVG-20010904/DTD/svg10.dtd">
<svg version="1.0" xmlns="http://www.w3.org/2000/svg"
 width="192.000000pt" height="192.000000pt" viewBox="0 0 192.000000 192.000000"
 preserveAspectRatio="xMidYMid meet">
<metadata>
Created by potrace 1.16, written by Peter Selinger 2001-2019
</metadata>
<g transform="translate(0.000000,192.000000) scale(0.100000,-0.100000)"
fill="#000000" stroke="none">
811 c445 -92 729 -532 635 -987 -62 -301 -295 -546 -601 -630 -91 -26 -329
-26 -420 0 -291 80 -516 305 -596 596 -26 91 -26 329 0 420 120 433 542 692
982 601z"/>
<path d="M733 1197 c-231 -231 -233 -192 20 -444 213 -214 222 -219 278 -164
53 54 46 68 -121 236 -82 83 -150 155 -150 160 0 5 59 68 130 140 112 114 130
136 130 164 0 43 -38 81 -82 81 -29 0 -52 -20 -205 -173z"/>
<path d="M987 1111 c-81 -80 -91 -93 -91 -125 0 -48 31 -80 79 -80 31 0 46 10
121 85 46 46 87 94 90 107 8 28 -13 80 -37 92 -45 24 -70 12 -162 -79z"/>
<path d="M1201 993 c-68 -58 -141 -151 -141 -179 0 -34 51 -84 86 -84 20 0 48
21 116 87 109 107 121 142 65 193 -33 31 -77 26 -126 -17z"/>
</g>
</svg>
