<?xml version="1.0" standalone="no"?>
<!DOCTYPE svg PUBLIC "-//W3C//DTD SVG 20010904//EN"
 "http://www.w3.org/TR/2001/REC-SVG-20010904/DTD/svg10.dtd">
<svg version="1.0" xmlns="http://www.w3.org/2000/svg"
 width="192.000000pt" height="192.000000pt" viewBox="0 0 192.000000 192.000000"
 preserveAspectRatio="xMidYMid meet">
<metadata>
Created by potrace 1.16, written by Peter Selinger 2001-2019
</metadata>
<g transform="translate(0.000000,192.000000) scale(0.100000,-0.100000)"
fill="#000000" stroke="none">
811 c445 -92 729 -532 635 -987 -62 -301 -295 -546 -601 -630 -91 -26 -329
-26 -420 0 -291 80 -516 305 -596 596 -26 91 -26 329 0 420 120 433 542 692
982 601z"/>
<path d="M537 1224 c-4 -4 -7 -88 -7 -186 l0 -178 120 0 120 0 0 45 0 45 -65
0 c-58 0 -65 2 -65 20 0 17 7 20 43 20 58 0 69 10 65 56 l-3 39 -52 3 c-44 3
-53 6 -53 22 0 16 9 19 63 22 l62 3 0 45 0 45 -111 3 c-60 1 -113 -1 -117 -4z"/>
<path d="M817 1224 c-4 -4 -7 -88 -7 -186 l0 -179 58 3 57 3 5 69 5 68 27 -56
c37 -75 55 -74 95 7 l32 62 0 -77 1 -78 55 0 55 0 -2 183 -3 182 -34 3 c-64 6
-76 -2 -115 -89 l-38 -82 -41 84 -42 84 -50 3 c-28 2 -54 0 -58 -4z"/>
<path d="M1267 1224 c-4 -4 -7 -88 -7 -186 l0 -178 55 0 55 0 -2 183 -3 182
-45 3 c-25 2 -49 0 -53 -4z"/>
<path d="M537 803 c-4 -3 -7 -26 -7 -49 l0 -43 86 2 c80 2 85 3 79 22 -3 11
-8 33 -12 48 -9 43 -43 33 -58 -18 -7 -25 -13 -34 -17 -25 -4 12 -9 13 -27 2
-19 -11 -21 -10 -21 13 0 22 3 25 27 19 22 -6 25 -4 20 10 -4 10 -7 20 -7 22
0 7 -56 5 -63 -3z"/>
<path d="M710 761 l0 -50 75 0 c68 0 75 2 75 20 0 10 -7 19 -15 19 -8 0 -15
-5 -15 -11 0 -5 -4 -7 -10 -4 -5 3 -10 15 -10 26 0 16 5 18 26 13 22 -6 25 -4
22 12 -2 14 -12 19 -38 19 -33 0 -35 -2 -38 -37 -3 -30 -7 -38 -23 -38 -16 0
-19 7 -19 40 0 29 -4 40 -15 40 -11 0 -15 -12 -15 -49z"/>
<path d="M880 760 l0 -51 38 3 c37 3 37 3 37 47 0 27 -5 46 -12 49 -9 2 -13
-8 -13 -32 0 -47 -18 -56 -22 -9 -5 59 -28 54 -28 -7z"/>
<path d="M970 760 l0 -50 80 1 c44 2 80 4 80 6 0 2 -5 24 -11 49 -10 37 -15
45 -32 42 -15 -2 -24 -14 -32 -44 -9 -37 -12 -41 -32 -33 -18 6 -23 16 -23 44
0 24 -4 35 -15 35 -11 0 -15 -12 -15 -50z"/>
<path d="M1130 795 c0 -8 5 -15 10 -15 6 0 10 -16 10 -35 0 -24 5 -35 15 -35
10 0 15 11 15 35 0 19 5 35 10 35 6 0 10 7 10 15 0 10 -11 15 -35 15 -24 0
-35 -5 -35 -15z"/>
<path d="M1214 797 c-3 -8 -4 -30 -2 -49 3 -31 6 -33 38 -33 35 0 35 0 35 45
0 43 -1 45 -33 48 -21 2 -34 -2 -38 -11z m46 -42 c0 -14 -4 -25 -10 -25 -5 0
-10 11 -10 25 0 14 5 25 10 25 6 0 10 -11 10 -25z"/>
<path d="M1307 804 c-4 -4 -7 -27 -7 -50 l0 -43 38 1 38 0 -1 47 c0 44 -1 46
-30 49 -17 2 -34 0 -38 -4z"/>
</g>
</svg>
