<?xml version="1.0" standalone="no"?>
<!DOCTYPE svg PUBLIC "-//W3C//DTD SVG 20010904//EN"
 "http://www.w3.org/TR/2001/REC-SVG-20010904/DTD/svg10.dtd">
<svg version="1.0" xmlns="http://www.w3.org/2000/svg"
 width="192.000000pt" height="192.000000pt" viewBox="0 0 192.000000 192.000000"
 preserveAspectRatio="xMidYMid meet">
<metadata>
Created by potrace 1.16, written by Peter Selinger 2001-2019
</metadata>
<g transform="translate(0.000000,192.000000) scale(0.100000,-0.100000)"
fill="#000000" stroke="none">
811 c445 -92 729 -532 635 -987 -62 -301 -295 -546 -601 -630 -91 -26 -329
-26 -420 0 -291 80 -516 305 -596 596 -26 91 -26 329 0 420 120 433 542 692
982 601z"/>
<path d="M685 1315 c-22 -13 -51 -41 -65 -61 -25 -37 -25 -42 -28 -263 -4
-244 1 -279 45 -332 52 -62 84 -69 318 -69 234 0 266 7 318 69 44 53 49 88 45
332 l-3 226 -28 40 c-44 64 -89 83 -196 83 l-91 0 0 -100 0 -100 35 0 c25 0
44 -8 60 -25 24 -23 25 -30 25 -145 0 -115 -1 -122 -25 -145 -23 -24 -30 -25
-140 -25 -110 0 -117 1 -140 25 -24 23 -25 30 -25 145 0 115 1 122 25 145 16
17 35 25 60 25 l35 0 0 100 0 100 -92 0 c-81 0 -98 -3 -133 -25z"/>
<path d="M902 1028 c-16 -16 -16 -90 0 -106 7 -7 30 -12 53 -12 52 0 65 13 65
65 0 23 -5 46 -12 53 -16 16 -90 16 -106 0z"/>
</g>
</svg>
