<?xml version="1.0" standalone="no"?>
<!DOCTYPE svg PUBLIC "-//W3C//DTD SVG 20010904//EN"
 "http://www.w3.org/TR/2001/REC-SVG-20010904/DTD/svg10.dtd">
<svg version="1.0" xmlns="http://www.w3.org/2000/svg"
 width="192.000000pt" height="192.000000pt" viewBox="0 0 192.000000 192.000000"
 preserveAspectRatio="xMidYMid meet">
<metadata>
Created by potrace 1.16, written by Peter Selinger 2001-2019
</metadata>
<g transform="translate(0.000000,192.000000) scale(0.100000,-0.100000)"
fill="#000000" stroke="none">
811 c445 -92 729 -532 635 -987 -62 -301 -295 -546 -601 -630 -91 -26 -329
-26 -420 0 -291 80 -516 305 -596 596 -26 91 -26 329 0 420 120 433 542 692
982 601z"/>
<path d="M649 1246 c-81 -33 -119 -62 -119 -92 0 -51 57 -129 127 -176 22 -14
22 -15 -22 -46 -54 -38 -95 -98 -102 -150 -5 -39 -5 -40 49 -70 29 -17 75 -37
102 -44 67 -18 76 -4 76 122 0 128 6 136 89 119 59 -11 196 -8 262 7 36 8 41
-9 48 -141 l6 -110 27 -3 c35 -4 173 60 187 87 18 34 -21 113 -85 170 l-54 47
38 29 c69 52 121 140 106 179 -7 19 -83 62 -146 83 -70 23 -78 12 -78 -99 0
-54 -6 -102 -14 -123 -14 -32 -16 -33 -46 -25 -63 18 -165 21 -243 7 l-79 -14
-9 24 c-5 14 -9 66 -9 118 0 72 -4 97 -16 109 -20 21 -28 20 -95 -8z"/>
</g>
</svg>
