<?xml version="1.0" standalone="no"?>
<!DOCTYPE svg PUBLIC "-//W3C//DTD SVG 20010904//EN"
 "http://www.w3.org/TR/2001/REC-SVG-20010904/DTD/svg10.dtd">
<svg version="1.0" xmlns="http://www.w3.org/2000/svg"
 width="192.000000pt" height="192.000000pt" viewBox="0 0 192.000000 192.000000"
 preserveAspectRatio="xMidYMid meet">
<metadata>
Created by potrace 1.16, written by Peter Selinger 2001-2019
</metadata>
<g transform="translate(0.000000,192.000000) scale(0.100000,-0.100000)"
fill="#000000" stroke="none">
811 c445 -92 729 -532 635 -987 -62 -301 -295 -546 -601 -630 -91 -26 -329
-26 -420 0 -291 80 -516 305 -596 596 -26 91 -26 329 0 420 120 433 542 692
982 601z"/>
<path d="M870 1360 c-120 -26 -229 -113 -283 -228 -41 -86 -49 -200 -21 -288
35 -112 131 -211 248 -257 102 -41 277 -23 350 34 50 39 23 129 -38 129 -13 0
-43 -9 -67 -20 -127 -57 -292 9 -346 139 -20 46 -20 146 0 192 56 134 220 197
352 135 75 -35 145 -124 145 -186 0 -19 -6 -20 -113 -20 -135 0 -157 -10 -157
-70 0 -65 17 -70 212 -70 208 0 208 0 208 115 0 170 -101 316 -260 376 -64 24
-165 32 -230 19z"/>
</g>
</svg>
