<?xml version="1.0" standalone="no"?>
<!DOCTYPE svg PUBLIC "-//W3C//DTD SVG 20010904//EN"
 "http://www.w3.org/TR/2001/REC-SVG-20010904/DTD/svg10.dtd">
<svg version="1.0" xmlns="http://www.w3.org/2000/svg"
 width="192.000000pt" height="192.000000pt" viewBox="0 0 192.000000 192.000000"
 preserveAspectRatio="xMidYMid meet">
<metadata>
Created by potrace 1.16, written by Peter Selinger 2001-2019
</metadata>
<g transform="translate(0.000000,192.000000) scale(0.100000,-0.100000)"
fill="#000000" stroke="none">
810 c245 -63 441 -223 549 -451 55 -116 75 -212 75 -354 0 -141 -20 -238 -75
-352 -86 -182 -215 -312 -396 -398 -116 -55 -212 -75 -354 -75 -142 0 -238 20
-354 75 -228 108 -388 304 -451 549 -28 110 -28 292 0 402 76 298 303 526 600
603 106 28 298 28 406 1z"/>
<path d="M765 1334 c-16 -9 -52 -20 -79 -25 -26 -4 -59 -15 -73 -24 -61 -41
-82 -138 -43 -203 21 -34 87 -72 125 -72 38 0 104 38 125 72 24 40 26 107 5
148 l-16 30 36 0 c47 0 71 -14 90 -50 33 -65 7 -119 -73 -151 -112 -46 -168
-134 -143 -227 16 -60 38 -91 90 -123 24 -16 52 -42 62 -59 61 -99 212 -92
259 13 24 53 24 71 0 124 -46 101 -181 113 -253 22 l-24 -31 -26 32 c-32 37
-34 73 -7 117 36 59 115 61 174 4 40 -38 75 -51 138 -51 74 0 129 35 162 102
14 28 26 67 26 85 0 18 9 47 20 65 78 128 -79 276 -208 196 -35 -21 -72 -85
-72 -123 0 -68 74 -145 139 -145 29 0 32 -2 25 -22 -26 -87 -148 -98 -189 -17
-15 28 -15 40 -5 88 20 97 -21 185 -104 225 -44 21 -123 20 -161 0z"/>
</g>
</svg>
