<?xml version="1.0" standalone="no"?>
<!DOCTYPE svg PUBLIC "-//W3C//DTD SVG 20010904//EN"
 "http://www.w3.org/TR/2001/REC-SVG-20010904/DTD/svg10.dtd">
<svg version="1.0" xmlns="http://www.w3.org/2000/svg"
 width="192.000000pt" height="192.000000pt" viewBox="0 0 192.000000 192.000000"
 preserveAspectRatio="xMidYMid meet">
<metadata>
Created by potrace 1.16, written by Peter Selinger 2001-2019
</metadata>
<g transform="translate(0.000000,192.000000) scale(0.100000,-0.100000)"
fill="#000000" stroke="none">
811 c445 -92 729 -532 635 -987 -62 -301 -295 -546 -601 -630 -91 -26 -329
-26 -420 0 -291 80 -516 305 -596 596 -26 91 -26 329 0 420 120 433 542 692
982 601z"/>
<path d="M807 1346 c-117 -49 -197 -129 -238 -235 -69 -183 6 -396 176 -495
206 -122 474 -38 582 182 26 52 28 67 28 167 0 99 -3 116 -27 168 -37 80 -117
160 -197 199 -58 29 -76 33 -165 36 -89 2 -108 0 -159 -22z m70 -176 c76 -46
82 -119 18 -236 -53 -97 -56 -131 -17 -174 35 -39 82 -47 154 -26 153 44 228
182 194 354 -8 42 -7 44 15 40 37 -5 62 -83 57 -178 -6 -134 -74 -237 -194
-296 -52 -25 -70 -29 -149 -29 -76 0 -99 4 -145 26 -67 31 -126 89 -165 160
-23 44 -30 69 -33 136 -4 74 -2 88 22 138 20 39 39 62 69 80 53 31 127 34 174
5z"/>
</g>
</svg>
