<?xml version="1.0" standalone="no"?>
<!DOCTYPE svg PUBLIC "-//W3C//DTD SVG 20010904//EN"
 "http://www.w3.org/TR/2001/REC-SVG-20010904/DTD/svg10.dtd">
<svg version="1.0" xmlns="http://www.w3.org/2000/svg"
 width="192.000000pt" height="192.000000pt" viewBox="0 0 192.000000 192.000000"
 preserveAspectRatio="xMidYMid meet">
<metadata>
Created by potrace 1.16, written by Peter Selinger 2001-2019
</metadata>
<g transform="translate(0.000000,192.000000) scale(0.100000,-0.100000)"
fill="#000000" stroke="none">
811 c445 -92 729 -532 635 -987 -62 -301 -295 -546 -601 -630 -91 -26 -329
-26 -420 0 -291 80 -516 305 -596 596 -26 91 -26 329 0 420 120 433 542 692
982 601z"/>
<path d="M825 1359 c-73 -23 -141 -72 -194 -139 -43 -54 -81 -144 -81 -190 l0
-30 70 0 c59 0 72 3 76 18 28 97 104 181 184 202 l40 11 0 74 c0 87 1 86 -95
54z"/>
<path d="M990 1305 l0 -74 40 -11 c80 -21 156 -105 184 -202 4 -15 17 -18 76
-18 l70 0 0 30 c0 81 -78 209 -168 275 -42 31 -152 75 -188 75 -11 0 -14 -17
-14 -75z"/>
<path d="M855 1191 c-54 -24 -119 -100 -135 -156 -24 -85 4 -188 67 -247 146
-139 386 -50 410 152 8 69 -12 132 -60 187 -53 59 -105 83 -182 83 -37 0 -76
-8 -100 -19z m75 -131 c0 -17 -7 -20 -40 -20 -36 0 -40 -2 -40 -25 0 -21 5
-25 30 -25 23 0 30 -4 30 -20 0 -16 -7 -20 -30 -20 -25 0 -30 -4 -30 -25 0
-22 4 -25 40 -25 33 0 40 -3 40 -20 0 -18 -7 -20 -60 -20 l-60 0 0 110 0 110
60 0 c53 0 60 -2 60 -20z m96 -42 l29 -61 5 59 c4 46 9 60 23 62 15 3 17 -7
17 -107 0 -102 -2 -111 -19 -111 -13 0 -25 16 -41 55 -12 30 -26 55 -31 55 -5
0 -9 -25 -9 -55 0 -42 -3 -55 -15 -55 -12 0 -15 19 -15 110 0 131 11 141 56
48z"/>
<path d="M554 884 c21 -154 165 -296 334 -327 l33 -7 -3 76 -3 76 -38 13 c-84
29 -159 107 -173 181 l-6 34 -75 0 -76 0 7 -46z"/>
<path d="M1206 896 c-14 -74 -89 -152 -173 -181 -38 -13 -38 -13 -41 -75 -4
-87 -2 -90 50 -79 155 34 294 178 315 324 l6 45 -76 0 -75 0 -6 -34z"/>
</g>
</svg>
