<?xml version="1.0" standalone="no"?>
<!DOCTYPE svg PUBLIC "-//W3C//DTD SVG 20010904//EN"
 "http://www.w3.org/TR/2001/REC-SVG-20010904/DTD/svg10.dtd">
<svg version="1.0" xmlns="http://www.w3.org/2000/svg"
 width="192.000000pt" height="192.000000pt" viewBox="0 0 192.000000 192.000000"
 preserveAspectRatio="xMidYMid meet">
<metadata>
Created by potrace 1.16, written by Peter Selinger 2001-2019
</metadata>
<g transform="translate(0.000000,192.000000) scale(0.100000,-0.100000)"
fill="#000000" stroke="none">
811 c445 -92 729 -532 635 -987 -62 -301 -295 -546 -601 -630 -91 -26 -329
-26 -420 0 -291 80 -516 305 -596 596 -26 91 -26 329 0 420 120 433 542 692
982 601z"/>
<path d="M726 1329 c-53 -13 -102 -51 -126 -99 -18 -36 -20 -59 -20 -265 0
-252 4 -270 63 -322 57 -50 89 -55 327 -51 251 4 273 10 325 93 l30 48 0 221
c0 122 -3 233 -8 248 -9 35 -61 94 -101 116 -26 14 -65 17 -241 19 -115 1
-228 -3 -249 -8z m154 -227 c22 -17 25 -26 25 -88 l0 -69 -82 -3 -83 -3 0 -34
c0 -25 5 -35 21 -40 32 -11 64 2 77 30 10 21 18 26 40 23 39 -4 43 -54 8 -87
-31 -29 -115 -40 -170 -21 -55 18 -69 53 -64 165 3 103 16 127 72 145 44 13
126 4 156 -18z m348 -8 c21 -24 22 -33 20 -157 l-3 -132 -35 0 -35 0 -5 118
c-5 129 -11 141 -61 127 -48 -14 -49 -16 -49 -130 0 -108 0 -110 -24 -116 -60
-15 -61 -13 -64 159 l-3 157 40 0 c22 0 41 -4 43 -10 2 -6 19 -3 43 5 54 20
104 12 133 -21z"/>
<path d="M740 1040 c-16 -30 -4 -40 45 -40 49 0 61 10 45 40 -8 14 -21 20 -45
20 -24 0 -37 -6 -45 -20z"/>
</g>
</svg>
