<?xml version="1.0" standalone="no"?>
<!DOCTYPE svg PUBLIC "-//W3C//DTD SVG 20010904//EN"
 "http://www.w3.org/TR/2001/REC-SVG-20010904/DTD/svg10.dtd">
<svg version="1.0" xmlns="http://www.w3.org/2000/svg"
 width="192.000000pt" height="192.000000pt" viewBox="0 0 192.000000 192.000000"
 preserveAspectRatio="xMidYMid meet">
<metadata>
Created by potrace 1.16, written by Peter Selinger 2001-2019
</metadata>
<g transform="translate(0.000000,192.000000) scale(0.100000,-0.100000)"
fill="#000000" stroke="none">
811 c445 -92 729 -532 635 -987 -62 -301 -295 -546 -601 -630 -91 -26 -329
-26 -420 0 -291 80 -516 305 -596 596 -26 91 -26 329 0 420 120 433 542 692
982 601z"/>
<path d="M893 1370 c-127 -19 -246 -107 -305 -228 -31 -63 -33 -72 -33 -177 0
-101 2 -115 29 -170 154 -313 590 -312 739 3 29 61 32 75 32 167 0 92 -3 106
-32 167 -38 81 -105 155 -172 192 -44 23 -167 58 -196 55 -5 -1 -33 -5 -62 -9z
m127 -246 c37 -23 60 -64 60 -111 0 -40 -30 -100 -55 -109 -11 -5 -15 -23 -15
-75 0 -73 -19 -109 -57 -109 -37 0 -53 30 -53 102 0 65 -2 71 -30 94 -90 77
-36 224 82 224 22 0 52 -7 68 -16z"/>
</g>
</svg>
