<?xml version="1.0" standalone="no"?>
<!DOCTYPE svg PUBLIC "-//W3C//DTD SVG 20010904//EN"
 "http://www.w3.org/TR/2001/REC-SVG-20010904/DTD/svg10.dtd">
<svg version="1.0" xmlns="http://www.w3.org/2000/svg"
 width="192.000000pt" height="192.000000pt" viewBox="0 0 192.000000 192.000000"
 preserveAspectRatio="xMidYMid meet">
<metadata>
Created by potrace 1.16, written by Peter Selinger 2001-2019
</metadata>
<g transform="translate(0.000000,192.000000) scale(0.100000,-0.100000)"
fill="#000000" stroke="none">
811 c445 -92 729 -532 635 -987 -62 -301 -295 -546 -601 -630 -91 -26 -329
-26 -420 0 -291 80 -516 305 -596 596 -26 91 -26 329 0 420 120 433 542 692
982 601z"/>
<path d="M669 1347 c-36 -28 -39 -51 -39 -329 0 -238 2 -277 16 -297 19 -27
273 -151 309 -151 36 0 290 124 309 151 14 20 16 59 16 297 0 278 -3 301 -39
329 -12 9 -89 12 -286 12 -197 0 -274 -3 -286 -12z m131 -96 c0 -13 -8 -21
-22 -23 -19 -2 -24 -10 -26 -40 -3 -35 -1 -38 22 -38 21 0 26 -5 26 -25 0 -20
-5 -25 -26 -25 -23 0 -25 -3 -22 -37 2 -31 7 -39 26 -41 14 -2 22 -10 22 -23
0 -16 -7 -19 -45 -19 l-45 0 0 145 0 145 45 0 c38 0 45 -3 45 -19z m139 5 c8
-9 11 -43 9 -93 l-3 -78 -32 -10 c-31 -8 -33 -12 -33 -52 0 -39 -2 -43 -25
-43 l-25 0 0 145 0 145 49 0 c29 0 53 -5 60 -14z m91 -131 c0 -138 -1 -145
-20 -145 -19 0 -20 7 -20 145 0 138 1 145 20 145 19 0 20 -7 20 -145z m154
129 c9 -8 16 -31 16 -50 0 -27 -4 -34 -19 -34 -14 0 -21 8 -23 28 -2 19 -9 27
-23 27 -19 0 -20 -7 -20 -100 0 -93 1 -100 20 -100 14 0 21 8 23 28 2 19 9 27
23 27 15 0 19 -7 19 -34 0 -48 -23 -68 -73 -64 -59 4 -68 27 -65 154 2 67 8
106 17 117 17 22 84 22 105 1z m-394 -364 c0 -5 -11 -10 -24 -10 -24 0 -41
-23 -30 -41 3 -5 14 -9 26 -9 17 0 18 2 8 15 -10 13 -9 15 9 15 17 0 22 -5 19
-22 -2 -18 -11 -24 -35 -26 -27 -3 -35 1 -44 21 -16 36 3 67 41 67 17 0 30 -4
30 -10z m101 -38 c15 -35 16 -42 4 -42 -8 0 -15 5 -15 10 0 14 -37 13 -42 -1
-2 -7 -9 -10 -15 -8 -15 6 24 92 39 87 6 -2 20 -23 29 -46z m69 31 c10 -17 10
-17 20 0 21 33 40 20 40 -28 0 -25 -4 -45 -10 -45 -5 0 -10 12 -10 26 0 22 -2
25 -15 14 -12 -10 -18 -10 -30 0 -13 11 -15 8 -15 -14 0 -14 -4 -26 -10 -26
-5 0 -10 20 -10 45 0 48 19 61 40 28z m150 7 c0 -5 -11 -10 -25 -10 -31 0 -33
-19 -2 -21 l22 -2 -22 -4 c-31 -6 -29 -23 2 -23 14 0 25 -4 25 -10 0 -5 -16
-10 -35 -10 -35 0 -35 0 -35 45 0 45 0 45 35 45 19 0 35 -4 35 -10z m80 1 c0
-5 -10 -11 -22 -14 -22 -3 -22 -4 5 -15 39 -16 33 -46 -11 -50 -18 -2 -32 1
-32 7 0 6 12 11 28 12 l27 1 -27 11 c-26 10 -37 35 -21 50 10 10 53 8 53 -2z
m-180 -207 l-56 -25 -54 25 -55 25 110 0 110 1 -55 -26z"/>
<path d="M880 1176 c0 -44 3 -56 16 -56 12 0 14 10 12 52 -4 74 -28 77 -28 4z"/>
<path d="M850 850 c0 -5 5 -10 10 -10 6 0 10 5 10 10 0 6 -4 10 -10 10 -5 0
-10 -4 -10 -10z"/>
</g>
</svg>
