<?xml version="1.0" standalone="no"?>
<!DOCTYPE svg PUBLIC "-//W3C//DTD SVG 20010904//EN"
 "http://www.w3.org/TR/2001/REC-SVG-20010904/DTD/svg10.dtd">
<svg version="1.0" xmlns="http://www.w3.org/2000/svg"
 width="192.000000pt" height="192.000000pt" viewBox="0 0 192.000000 192.000000"
 preserveAspectRatio="xMidYMid meet">
<metadata>
Created by potrace 1.16, written by Peter Selinger 2001-2019
</metadata>
<g transform="translate(0.000000,192.000000) scale(0.100000,-0.100000)"
fill="#000000" stroke="none">
811 c445 -92 729 -532 635 -987 -62 -301 -295 -546 -601 -630 -91 -26 -329
-26 -420 0 -291 80 -516 305 -596 596 -26 91 -26 329 0 420 120 433 542 692
982 601z"/>
<path d="M773 1340 c-17 -10 -37 -28 -42 -39 -7 -13 -11 -132 -11 -338 0 -349
0 -347 60 -378 22 -11 67 -15 189 -15 88 0 167 3 176 6 19 8 45 55 45 82 0 11
-9 30 -19 43 -18 23 -27 24 -153 29 l-133 5 0 230 0 230 133 5 c126 5 135 6
153 29 10 13 19 32 19 43 0 27 -26 74 -45 82 -9 3 -89 6 -178 6 -143 0 -166
-2 -194 -20z"/>
<path d="M968 1020 c-25 -26 -29 -36 -24 -63 10 -47 37 -69 94 -75 95 -9 162
38 146 103 -11 45 -49 65 -121 65 -59 0 -67 -3 -95 -30z"/>
</g>
</svg>
