<?xml version="1.0" standalone="no"?>
<!DOCTYPE svg PUBLIC "-//W3C//DTD SVG 20010904//EN"
 "http://www.w3.org/TR/2001/REC-SVG-20010904/DTD/svg10.dtd">
<svg version="1.0" xmlns="http://www.w3.org/2000/svg"
 width="192.000000pt" height="192.000000pt" viewBox="0 0 192.000000 192.000000"
 preserveAspectRatio="xMidYMid meet">
<metadata>
Created by potrace 1.16, written by Peter Selinger 2001-2019
</metadata>
<g transform="translate(0.000000,192.000000) scale(0.100000,-0.100000)"
fill="#000000" stroke="none">
811 c445 -92 729 -532 635 -987 -62 -301 -295 -546 -601 -630 -91 -26 -329
-26 -420 0 -291 80 -516 305 -596 596 -26 91 -26 329 0 420 120 433 542 692
982 601z"/>
<path d="M793 1335 c-37 -16 -53 -42 -53 -84 l0 -31 221 0 222 0 -7 32 c-10
49 -32 76 -73 87 -56 16 -271 13 -310 -4z"/>
<path d="M613 1165 c-52 -22 -63 -57 -63 -200 0 -93 4 -134 15 -155 17 -33 61
-60 100 -60 24 0 25 2 25 61 0 52 -3 62 -20 66 -24 6 -27 38 -4 47 20 8 558 8
578 0 20 -8 21 -44 1 -44 -12 0 -15 -14 -15 -66 l0 -67 36 6 c79 13 104 65
104 212 0 123 -13 165 -62 195 -31 19 -49 20 -348 20 -246 -1 -322 -4 -347
-15z m152 -110 c0 -17 -8 -20 -49 -23 -52 -3 -72 7 -62 33 4 13 17 15 58 13
45 -3 53 -6 53 -23z"/>
<path d="M740 741 c0 -117 2 -140 16 -145 9 -3 103 -6 209 -6 184 0 195 1 205
20 6 12 9 69 8 142 l-3 123 -217 3 -218 2 0 -139z m298 42 c3 -22 1 -23 -77
-23 -80 0 -98 7 -87 36 5 12 22 14 83 12 72 -3 78 -5 81 -25z m-14 -79 c9 -3
16 -15 16 -25 0 -17 -8 -19 -85 -19 -77 0 -85 2 -85 19 0 11 6 22 13 24 18 8
123 8 141 1z"/>
</g>
</svg>
