<?xml version="1.0" standalone="no"?>
<!DOCTYPE svg PUBLIC "-//W3C//DTD SVG 20010904//EN"
 "http://www.w3.org/TR/2001/REC-SVG-20010904/DTD/svg10.dtd">
<svg version="1.0" xmlns="http://www.w3.org/2000/svg"
 width="192.000000pt" height="192.000000pt" viewBox="0 0 192.000000 192.000000"
 preserveAspectRatio="xMidYMid meet">
<metadata>
Created by potrace 1.16, written by Peter Selinger 2001-2019
</metadata>
<g transform="translate(0.000000,192.000000) scale(0.100000,-0.100000)"
fill="#000000" stroke="none">
811 c445 -92 729 -532 635 -987 -62 -301 -295 -546 -601 -630 -91 -26 -329
-26 -420 0 -291 80 -516 305 -596 596 -26 91 -26 329 0 420 120 433 542 692
982 601z"/>
<path d="M706 1324 c-3 -9 -6 -47 -6 -85 0 -67 -1 -69 -25 -69 -35 0 -86 -23
-110 -49 -16 -19 -20 -41 -23 -127 -6 -146 2 -190 43 -231 25 -25 42 -33 69
-33 l36 0 0 63 c0 99 -7 97 268 97 227 0 231 0 246 -22 10 -14 16 -44 16 -80
l0 -58 33 0 c17 0 46 9 64 20 44 27 56 76 51 226 -3 105 -6 125 -23 144 -24
27 -75 50 -110 50 -24 0 -25 2 -25 69 0 110 23 101 -255 101 -212 0 -244 -2
-249 -16z m541 -230 c3 -8 -2 -23 -11 -32 -15 -15 -17 -15 -32 0 -21 21 -11
48 16 48 11 0 23 -7 27 -16z"/>
<path d="M752 838 c-17 -17 -17 -229 0 -246 17 -17 389 -17 406 0 17 17 17
229 0 246 -17 17 -389 17 -406 0z m343 -78 l0 -25 -138 -3 c-116 -2 -138 0
-143 13 -4 8 -4 22 0 30 5 13 27 15 143 13 l138 -3 0 -25z m-11 -66 c21 -8 21
-50 0 -58 -20 -8 -238 -8 -258 0 -19 7 -21 50 -3 57 18 8 242 8 261 1z"/>
</g>
</svg>
