<?xml version="1.0" standalone="no"?>
<!DOCTYPE svg PUBLIC "-//W3C//DTD SVG 20010904//EN"
 "http://www.w3.org/TR/2001/REC-SVG-20010904/DTD/svg10.dtd">
<svg version="1.0" xmlns="http://www.w3.org/2000/svg"
 width="192.000000pt" height="192.000000pt" viewBox="0 0 192.000000 192.000000"
 preserveAspectRatio="xMidYMid meet">
<metadata>
Created by potrace 1.16, written by Peter Selinger 2001-2019
</metadata>
<g transform="translate(0.000000,192.000000) scale(0.100000,-0.100000)"
fill="#000000" stroke="none">
810 c245 -63 441 -223 549 -451 55 -116 75 -212 75 -354 0 -141 -20 -238 -75
-352 -86 -182 -215 -312 -396 -398 -116 -55 -212 -75 -354 -75 -142 0 -238 20
-354 75 -228 108 -388 304 -451 549 -28 110 -28 292 0 402 76 298 303 526 600
603 106 28 298 28 406 1z"/>
<path d="M647 1296 c-50 -18 -76 -42 -98 -91 -16 -34 -19 -67 -19 -235 0 -222
8 -255 76 -306 33 -25 46 -29 104 -29 58 0 71 4 104 29 42 32 75 94 76 142 0
38 27 64 67 64 37 0 63 -27 63 -66 1 -64 54 -141 113 -163 40 -15 113 -14 145
3 36 19 78 65 91 99 7 17 11 110 11 225 0 170 -3 203 -19 237 -44 97 -73 104
-406 104 -202 0 -280 -3 -308 -13z m141 -148 c2 -19 -2 -28 -18 -33 -24 -8
-50 10 -50 35 0 24 10 31 40 28 19 -2 26 -10 28 -30z m386 16 c3 -9 6 -24 6
-35 0 -13 7 -19 24 -19 24 0 56 -23 56 -40 0 -17 -32 -40 -56 -40 -18 0 -24
-5 -24 -22 0 -34 -15 -50 -41 -46 -19 2 -25 10 -27 36 -3 24 -8 32 -23 32 -31
0 -59 19 -59 38 0 26 20 42 52 42 24 0 28 4 28 28 0 16 3 32 7 35 12 13 51 7
57 -9z m-470 -70 c9 -8 16 -19 16 -24 0 -5 -7 -16 -16 -24 -8 -9 -19 -16 -24
-16 -5 0 -16 7 -24 16 -9 8 -16 19 -16 24 0 5 7 16 16 24 8 9 19 16 24 16 5 0
16 -7 24 -16z m154 4 c30 -30 -11 -85 -44 -57 -25 21 -11 69 21 69 6 0 16 -5
23 -12z m-73 -103 c0 -27 -3 -30 -30 -30 -21 0 -31 5 -33 18 -5 25 17 49 42
45 16 -2 21 -10 21 -33z"/>
</g>
</svg>
