<?xml version="1.0" standalone="no"?>
<!DOCTYPE svg PUBLIC "-//W3C//DTD SVG 20010904//EN"
 "http://www.w3.org/TR/2001/REC-SVG-20010904/DTD/svg10.dtd">
<svg version="1.0" xmlns="http://www.w3.org/2000/svg"
 width="192.000000pt" height="192.000000pt" viewBox="0 0 192.000000 192.000000"
 preserveAspectRatio="xMidYMid meet">
<metadata>
Created by potrace 1.16, written by Peter Selinger 2001-2019
</metadata>
<g transform="translate(0.000000,192.000000) scale(0.100000,-0.100000)"
fill="#000000" stroke="none">
810 c245 -63 441 -223 549 -451 55 -116 75 -212 75 -354 0 -141 -20 -238 -75
-352 -86 -182 -215 -312 -396 -398 -116 -55 -212 -75 -354 -75 -142 0 -238 20
-354 75 -228 108 -388 304 -451 549 -28 110 -28 292 0 402 76 298 303 526 600
603 106 28 298 28 406 1z"/>
<path d="M652 1278 c-8 -8 -12 -49 -12 -117 0 -94 -2 -107 -22 -128 -14 -15
-22 -36 -22 -58 0 -22 8 -43 22 -58 20 -21 22 -34 22 -139 0 -99 3 -117 18
-131 23 -21 36 -21 56 -1 13 12 16 39 16 133 0 103 2 120 19 135 11 10 22 28
25 42 7 27 -17 94 -33 94 -7 0 -11 39 -11 108 0 71 -4 112 -12 120 -15 15 -51
15 -66 0z"/>
<path d="M916 1275 c-3 -9 -6 -89 -6 -178 0 -151 -1 -162 -22 -184 -27 -29
-27 -75 0 -113 17 -22 22 -43 22 -90 0 -55 2 -62 25 -72 40 -18 55 3 55 76 0
52 4 65 25 85 33 31 33 80 0 119 -24 28 -25 35 -27 198 l-3 169 -31 3 c-22 2
-33 -2 -38 -13z"/>
<path d="M1180 1271 c-5 -11 -10 -42 -10 -70 0 -28 -4 -51 -9 -51 -5 0 -16
-16 -25 -35 -19 -39 -14 -75 15 -101 17 -16 19 -32 19 -184 0 -149 2 -169 18
-183 23 -21 36 -21 56 -1 13 13 16 44 16 179 0 162 0 164 25 189 17 17 25 36
25 60 0 22 -9 45 -25 64 -19 23 -25 41 -25 79 0 27 -5 54 -12 61 -18 18 -56
14 -68 -7z"/>
</g>
</svg>
