<?xml version="1.0" standalone="no"?>
<!DOCTYPE svg PUBLIC "-//W3C//DTD SVG 20010904//EN"
 "http://www.w3.org/TR/2001/REC-SVG-20010904/DTD/svg10.dtd">
<svg version="1.0" xmlns="http://www.w3.org/2000/svg"
 width="192.000000pt" height="192.000000pt" viewBox="0 0 192.000000 192.000000"
 preserveAspectRatio="xMidYMid meet">
<metadata>
Created by potrace 1.16, written by Peter Selinger 2001-2019
</metadata>
<g transform="translate(0.000000,192.000000) scale(0.100000,-0.100000)"
fill="#000000" stroke="none">
811 c445 -92 729 -532 635 -987 -62 -301 -295 -546 -601 -630 -91 -26 -329
-26 -420 0 -291 80 -516 305 -596 596 -26 91 -26 329 0 420 120 433 542 692
982 601z"/>
<path d="M610 1255 c0 -33 -2 -35 -35 -35 -33 0 -35 -2 -35 -35 0 -33 2 -35
35 -35 33 0 35 -2 35 -35 0 -33 2 -35 35 -35 33 0 35 2 35 35 0 33 2 35 35 35
33 0 35 2 35 35 0 33 2 35 35 35 33 0 35 -2 35 -35 0 -33 2 -35 35 -35 33 0
35 2 35 35 0 33 2 35 35 35 33 0 35 2 35 35 0 33 -2 35 -35 35 -33 0 -35 -2
-35 -35 0 -33 -2 -35 -35 -35 -33 0 -35 2 -35 35 0 33 -2 35 -35 35 -33 0 -35
-2 -35 -35 0 -33 -2 -35 -35 -35 -33 0 -35 2 -35 35 0 33 -2 35 -35 35 -33 0
-35 -2 -35 -35z m70 -70 c0 -33 -2 -35 -35 -35 -33 0 -35 2 -35 35 0 33 2 35
35 35 33 0 35 -2 35 -35z"/>
<path d="M1034 1206 c-13 -33 0 -51 39 -54 36 -3 37 -3 37 32 0 34 -2 36 -35
36 -22 0 -38 -6 -41 -14z"/>
<path d="M1037 1083 c-4 -3 -7 -28 -7 -55 l0 -48 -85 0 c-84 0 -85 0 -85 25
l0 25 -141 0 -140 0 3 -27 c2 -22 9 -29 30 -31 l27 -3 3 -137 c3 -132 4 -137
25 -140 14 -2 23 -11 25 -25 3 -20 9 -22 58 -22 49 0 55 2 58 23 2 16 10 22
27 22 17 0 25 -6 27 -22 3 -21 9 -23 58 -23 49 0 55 2 58 23 2 16 10 22 27 22
17 0 25 -6 27 -22 3 -20 10 -23 55 -26 49 -3 53 -1 59 22 8 34 51 37 56 4 3
-20 10 -23 55 -26 49 -3 53 -1 59 22 3 15 14 26 27 28 16 2 23 11 25 31 3 23
0 27 -21 27 -19 0 -26 6 -30 30 -5 24 -12 30 -31 30 -25 0 -25 2 -28 83 l-3
82 -52 3 -53 3 0 39 c0 62 -6 70 -59 70 -26 0 -51 -3 -54 -7z"/>
</g>
</svg>
