<?xml version="1.0" standalone="no"?>
<!DOCTYPE svg PUBLIC "-//W3C//DTD SVG 20010904//EN"
 "http://www.w3.org/TR/2001/REC-SVG-20010904/DTD/svg10.dtd">
<svg version="1.0" xmlns="http://www.w3.org/2000/svg"
 width="192.000000pt" height="192.000000pt" viewBox="0 0 192.000000 192.000000"
 preserveAspectRatio="xMidYMid meet">
<metadata>
Created by potrace 1.16, written by Peter Selinger 2001-2019
</metadata>
<g transform="translate(0.000000,192.000000) scale(0.100000,-0.100000)"
fill="#000000" stroke="none">
811 c445 -92 729 -532 635 -987 -62 -301 -295 -546 -601 -630 -91 -26 -329
-26 -420 0 -291 80 -516 305 -596 596 -26 91 -26 329 0 420 120 433 542 692
982 601z"/>
<path d="M790 1290 l0 -50 -54 0 -55 0 -3 38 -3 37 -35 -35 -35 -35 38 -3 37
-3 0 -55 0 -54 -45 0 -45 0 0 -55 0 -55 45 0 45 0 0 -55 0 -55 -45 0 -45 0 0
-90 c0 -126 28 -179 113 -215 29 -12 80 -15 254 -15 191 0 223 3 259 19 77 35
114 110 114 234 l0 67 -55 0 -55 0 0 55 0 55 56 0 55 0 -3 53 -3 52 -52 3 -53
3 0 54 0 54 43 3 42 3 -40 40 -40 40 -3 -42 -3 -43 -55 0 -54 0 0 50 0 50 -50
0 -50 0 0 -50 0 -50 -55 0 -55 0 0 50 0 50 -55 0 -55 0 0 -50z m110 -105 l0
-55 55 0 55 0 0 55 0 55 50 0 50 0 0 -55 0 -55 55 0 55 0 0 -55 0 -55 -55 0
-55 0 0 -55 0 -55 -50 0 -50 0 0 55 0 55 -55 0 -55 0 0 -55 0 -55 -55 0 -55 0
0 55 0 55 -55 0 -55 0 0 55 0 55 55 0 55 0 0 55 0 55 55 0 55 0 0 -55z m-125
-374 c3 -5 -5 -11 -17 -13 -28 -4 -36 -28 -9 -28 12 0 21 -4 21 -10 0 -5 -9
-10 -20 -10 -11 0 -20 -7 -20 -15 0 -9 10 -15 26 -15 14 0 23 -4 19 -10 -3 -5
-19 -10 -36 -10 -29 0 -29 0 -29 60 0 60 0 60 29 60 17 0 32 -4 36 -9z m81
-53 c1 -63 -5 -70 -29 -35 l-16 22 0 -22 c-1 -13 -5 -23 -11 -23 -6 0 -10 27
-10 61 l0 60 33 -3 c32 -3 32 -3 33 -60z m83 18 c6 -24 13 -51 17 -60 4 -10 1
-16 -9 -16 -8 0 -17 6 -20 13 -3 9 -9 9 -27 -1 -12 -7 -24 -11 -27 -9 -4 4 9
66 22 105 9 27 33 10 44 -32z m91 40 c0 -2 3 -11 6 -20 4 -11 1 -16 -10 -16
-9 0 -16 5 -16 10 0 6 -4 10 -10 10 -21 0 -9 -28 16 -34 20 -5 25 -12 22 -34
-2 -22 -9 -28 -35 -30 -28 -3 -33 0 -33 17 0 23 16 28 23 9 4 -10 7 -10 17 -1
11 10 8 14 -12 22 -32 12 -41 26 -33 51 4 14 15 20 36 20 16 0 29 -2 29 -4z
m90 -6 c0 -5 -9 -10 -20 -10 -11 0 -20 -7 -20 -15 0 -8 7 -15 15 -15 8 0 15
-4 15 -10 0 -5 -7 -10 -15 -10 -8 0 -15 -7 -15 -15 0 -8 9 -15 20 -15 11 0 20
-4 20 -10 0 -5 -16 -10 -35 -10 l-35 0 0 60 0 60 35 0 c19 0 35 -4 35 -10z
m80 -5 c8 -9 9 -25 5 -42 -5 -16 -7 -36 -6 -45 3 -25 -14 -22 -27 5 l-11 22
-7 -22 c-12 -42 -24 -24 -24 37 0 59 0 60 29 60 16 0 34 -7 41 -15z"/>
<path d="M790 1075 l0 -55 55 0 55 0 0 55 0 55 -55 0 -55 0 0 -55z"/>
<path d="M1010 1075 l0 -55 50 0 50 0 0 55 0 55 -50 0 -50 0 0 -55z"/>
<path d="M810 781 c0 -12 6 -21 16 -21 9 0 14 7 12 17 -5 25 -28 28 -28 4z"/>
<path d="M907 760 c-3 -11 -1 -20 4 -20 5 0 9 9 9 20 0 11 -2 20 -4 20 -2 0
-6 -9 -9 -20z"/>
<path d="M1157 793 c-13 -12 -7 -33 8 -33 8 0 15 9 15 20 0 20 -11 26 -23 13z"/>
</g>
</svg>
