<?xml version="1.0" standalone="no"?>
<!DOCTYPE svg PUBLIC "-//W3C//DTD SVG 20010904//EN"
 "http://www.w3.org/TR/2001/REC-SVG-20010904/DTD/svg10.dtd">
<svg version="1.0" xmlns="http://www.w3.org/2000/svg"
 width="192.000000pt" height="192.000000pt" viewBox="0 0 192.000000 192.000000"
 preserveAspectRatio="xMidYMid meet">
<metadata>
Created by potrace 1.16, written by Peter Selinger 2001-2019
</metadata>
<g transform="translate(0.000000,192.000000) scale(0.100000,-0.100000)"
fill="#000000" stroke="none">
811 c445 -92 729 -532 635 -987 -62 -301 -295 -546 -601 -630 -91 -26 -329
-26 -420 0 -291 80 -516 305 -596 596 -26 91 -26 329 0 420 120 433 542 692
982 601z"/>
<path d="M666 1304 c-14 -13 -16 -50 -16 -247 0 -128 4 -238 8 -245 5 -7 73
-30 153 -51 l144 -38 140 32 c77 17 146 34 153 38 9 6 12 69 12 256 0 215 -2
250 -16 262 -13 11 -33 10 -117 -5 -160 -29 -185 -29 -300 -7 -129 25 -141 26
-161 5z m312 -297 c-2 -90 -7 -132 -15 -134 -7 -3 -32 14 -56 36 -28 26 -54
41 -71 41 -25 0 -26 2 -26 60 0 59 1 60 28 60 17 0 43 14 72 39 25 21 51 36
58 34 9 -4 12 -37 10 -136z m106 81 c34 -48 28 -137 -10 -169 -22 -18 -29 -3
-10 25 20 31 21 96 1 122 -16 22 -19 44 -6 44 6 0 17 -10 25 -22z m-34 -47 c8
-20 9 -39 3 -57 -16 -48 -28 -37 -28 26 0 67 6 75 25 31z"/>
<path d="M557 1212 c-15 -16 -17 -49 -17 -250 0 -185 3 -233 14 -245 8 -7 102
-35 210 -61 l195 -47 183 36 c101 20 193 40 206 45 22 10 22 10 22 254 0 232
-1 246 -19 256 -26 13 -48 4 -55 -23 -3 -12 -6 -113 -6 -224 l0 -201 -47 -10
c-27 -6 -101 -21 -166 -33 l-117 -23 -138 33 c-75 19 -152 38 -169 43 l-33 9
0 214 c0 181 -2 216 -16 229 -20 20 -27 20 -47 -2z"/>
</g>
</svg>
