<?xml version="1.0" standalone="no"?>
<!DOCTYPE svg PUBLIC "-//W3C//DTD SVG 20010904//EN"
 "http://www.w3.org/TR/2001/REC-SVG-20010904/DTD/svg10.dtd">
<svg version="1.0" xmlns="http://www.w3.org/2000/svg"
 width="192.000000pt" height="192.000000pt" viewBox="0 0 192.000000 192.000000"
 preserveAspectRatio="xMidYMid meet">
<metadata>
Created by potrace 1.16, written by Peter Selinger 2001-2019
</metadata>
<g transform="translate(0.000000,192.000000) scale(0.100000,-0.100000)"
fill="#000000" stroke="none">
811 c445 -92 729 -532 635 -987 -62 -301 -295 -546 -601 -630 -91 -26 -329
-26 -420 0 -291 80 -516 305 -596 596 -26 91 -26 329 0 420 120 433 542 692
982 601z"/>
<path d="M833 1356 c-145 -47 -258 -180 -283 -332 -8 -47 -7 -63 5 -81 l15
-23 308 0 c226 0 311 3 320 12 32 32 0 152 -56 212 -70 74 -200 98 -297 52
-91 -42 -144 -130 -95 -156 27 -14 54 -5 74 25 21 32 86 65 128 65 50 -1 115
-34 138 -72 11 -18 20 -36 20 -40 0 -5 -106 -8 -235 -8 l-235 0 6 28 c22 88
95 175 183 215 72 34 188 31 263 -6 106 -52 178 -166 178 -282 0 -116 -72
-230 -178 -282 -48 -24 -70 -28 -137 -28 -104 0 -174 32 -242 111 -47 54 -76
67 -101 42 -24 -24 -12 -57 44 -117 38 -41 77 -71 122 -93 63 -31 73 -33 177
-33 104 0 114 2 176 32 121 59 210 181 227 309 23 179 -67 348 -226 426 -58
29 -77 33 -161 35 -61 2 -111 -2 -138 -11z"/>
<path d="M742 888 c-35 -35 18 -115 103 -154 97 -46 229 -22 296 52 35 39 40
58 23 83 -21 29 -49 26 -80 -8 -29 -33 -90 -61 -132 -61 -42 1 -107 34 -131
69 -23 32 -57 41 -79 19z"/>
</g>
</svg>
