<?xml version="1.0" standalone="no"?>
<!DOCTYPE svg PUBLIC "-//W3C//DTD SVG 20010904//EN"
 "http://www.w3.org/TR/2001/REC-SVG-20010904/DTD/svg10.dtd">
<svg version="1.0" xmlns="http://www.w3.org/2000/svg"
 width="192.000000pt" height="192.000000pt" viewBox="0 0 192.000000 192.000000"
 preserveAspectRatio="xMidYMid meet">
<metadata>
Created by potrace 1.16, written by Peter Selinger 2001-2019
</metadata>
<g transform="translate(0.000000,192.000000) scale(0.100000,-0.100000)"
fill="#000000" stroke="none">
811 c445 -92 729 -532 635 -987 -62 -301 -295 -546 -601 -630 -91 -26 -329
-26 -420 0 -291 80 -516 305 -596 596 -26 91 -26 329 0 420 120 433 542 692
982 601z"/>
<path d="M845 1326 c-55 -28 -127 -58 -160 -66 -35 -8 -70 -24 -84 -38 -23
-23 -24 -27 -18 -135 13 -252 109 -431 269 -507 82 -39 127 -39 207 1 160 80
252 252 268 499 7 121 -6 154 -70 170 -74 19 -130 41 -214 86 -46 24 -86 44
-90 43 -5 -1 -53 -24 -108 -53z m85 -249 l0 -114 -77 -55 c-43 -31 -81 -54
-85 -52 -11 7 -38 140 -38 192 0 58 7 65 82 91 31 11 68 26 84 35 16 8 30 15
32 16 1 0 2 -51 2 -113z m190 53 c36 0 60 -30 60 -74 0 -54 -18 -154 -34 -183
-11 -23 -12 -22 -89 33 l-77 56 0 114 0 113 63 -29 c34 -17 69 -30 77 -30z
m-85 -265 c87 -65 87 -75 7 -126 -53 -33 -105 -38 -155 -13 -38 20 -87 64 -86
78 0 11 137 115 152 116 4 0 41 -25 82 -55z"/>
</g>
</svg>
