<?xml version="1.0" standalone="no"?>
<!DOCTYPE svg PUBLIC "-//W3C//DTD SVG 20010904//EN"
 "http://www.w3.org/TR/2001/REC-SVG-20010904/DTD/svg10.dtd">
<svg version="1.0" xmlns="http://www.w3.org/2000/svg"
 width="192.000000pt" height="192.000000pt" viewBox="0 0 192.000000 192.000000"
 preserveAspectRatio="xMidYMid meet">
<metadata>
Created by potrace 1.16, written by Peter Selinger 2001-2019
</metadata>
<g transform="translate(0.000000,192.000000) scale(0.100000,-0.100000)"
fill="#000000" stroke="none">
759 c272 -64 494 -285 566 -564 28 -110 28 -280 0 -390 -71 -278 -288 -495
-566 -566 -110 -28 -280 -28 -390 0 -277 71 -494 288 -566 566 -28 110 -28
280 0 390 108 421 524 667 956 564z"/>
<path d="M633 1295 c-60 -26 -64 -47 -61 -325 3 -277 3 -277 79 -328 33 -23
35 -23 315 -20 269 3 284 4 311 24 61 46 68 71 68 264 0 166 -1 177 -24 213
-40 65 -79 77 -240 77 l-140 0 -48 46 c-26 25 -58 50 -71 55 -35 14 -153 10
-189 -6z m255 -189 c7 -33 -25 -46 -111 -46 -43 0 -87 5 -98 10 -19 11 -26 40
-12 54 4 3 54 5 112 4 95 -3 106 -5 109 -22z m264 -198 c20 -18 48 -41 62 -51
50 -34 46 -105 -7 -137 -27 -17 -50 -20 -154 -20 -113 0 -124 2 -149 23 -40
34 -36 74 11 131 21 26 46 46 57 46 10 0 28 9 40 20 35 33 96 27 140 -12z"/>
<path d="M1025 840 c-3 -6 5 -10 19 -10 14 0 28 5 31 10 3 6 -5 10 -19 10 -14
0 -28 -4 -31 -10z"/>
<path d="M1092 838 c-7 -7 -12 -24 -12 -39 0 -15 -6 -30 -12 -33 -7 -3 -2 -4
12 -3 20 2 26 8 28 32 2 17 11 36 20 43 14 11 14 12 -4 12 -11 0 -25 -5 -32
-12z"/>
<path d="M995 790 c-15 -29 -15 -30 9 -30 25 0 48 19 24 21 -7 0 -3 4 10 9 29
12 28 30 -3 30 -17 0 -29 -9 -40 -30z"/>
</g>
</svg>
