<?xml version="1.0" standalone="no"?>
<!DOCTYPE svg PUBLIC "-//W3C//DTD SVG 20010904//EN"
 "http://www.w3.org/TR/2001/REC-SVG-20010904/DTD/svg10.dtd">
<svg version="1.0" xmlns="http://www.w3.org/2000/svg"
 width="192.000000pt" height="192.000000pt" viewBox="0 0 192.000000 192.000000"
 preserveAspectRatio="xMidYMid meet">
<metadata>
Created by potrace 1.16, written by Peter Selinger 2001-2019
</metadata>
<g transform="translate(0.000000,192.000000) scale(0.100000,-0.100000)"
fill="#000000" stroke="none">
759 c272 -64 494 -285 566 -564 28 -110 28 -280 0 -390 -71 -278 -288 -495
-566 -566 -110 -28 -280 -28 -390 0 -277 71 -494 288 -566 566 -28 110 -28
280 0 390 108 421 524 667 956 564z"/>
<path d="M632 1295 c-56 -24 -62 -54 -62 -313 0 -216 1 -230 23 -272 12 -25
37 -55 56 -67 33 -22 40 -23 311 -23 271 0 278 1 310 23 73 49 75 57 75 267 0
175 -1 191 -21 216 -47 64 -62 69 -229 74 l-154 5 -43 42 c-24 23 -56 47 -71
52 -40 15 -156 13 -195 -4z m253 -195 c0 -25 0 -25 -104 -28 -57 -1 -108 1
-114 7 -5 5 -6 19 -2 30 6 21 12 22 113 19 107 -3 107 -3 107 -28z m269 -195
c21 -19 41 -35 46 -35 5 0 18 -10 30 -22 28 -30 26 -80 -4 -115 l-24 -28 -142
0 c-137 0 -142 1 -161 24 -26 32 -24 77 4 104 13 12 26 30 30 39 3 10 19 20
34 24 15 4 39 15 52 26 39 30 92 24 135 -17z"/>
<path d="M1025 840 c-4 -6 7 -10 24 -10 17 0 31 5 31 10 0 6 -11 10 -24 10
-14 0 -28 -4 -31 -10z"/>
<path d="M1090 831 c-5 -11 -10 -29 -10 -40 0 -13 -7 -21 -17 -21 -15 0 -15
-2 -4 -9 23 -15 48 5 55 43 4 21 14 36 24 39 10 3 6 5 -10 6 -18 1 -31 -6 -38
-18z"/>
<path d="M997 790 l-18 -30 32 0 c23 0 30 4 26 14 -3 8 1 17 9 20 22 8 16 26
-9 26 -15 0 -29 -11 -40 -30z"/>
</g>
</svg>
