<?xml version="1.0" standalone="no"?>
<!DOCTYPE svg PUBLIC "-//W3C//DTD SVG 20010904//EN"
 "http://www.w3.org/TR/2001/REC-SVG-20010904/DTD/svg10.dtd">
<svg version="1.0" xmlns="http://www.w3.org/2000/svg"
 width="192.000000pt" height="192.000000pt" viewBox="0 0 192.000000 192.000000"
 preserveAspectRatio="xMidYMid meet">
<metadata>
Created by potrace 1.16, written by Peter Selinger 2001-2019
</metadata>
<g transform="translate(0.000000,192.000000) scale(0.100000,-0.100000)"
fill="#000000" stroke="none">
811 c445 -92 729 -532 635 -987 -62 -301 -295 -546 -601 -630 -91 -26 -329
-26 -420 0 -291 80 -516 305 -596 596 -26 91 -26 329 0 420 120 433 542 692
982 601z"/>
<path d="M819 1355 c-106 -18 -183 -42 -201 -62 -10 -12 -20 -56 -27 -128 -6
-60 -18 -135 -26 -165 -21 -78 -19 -112 11 -156 68 -102 224 -229 329 -270 38
-14 52 -15 83 -6 100 30 275 168 342 270 34 51 37 81 15 162 -8 30 -20 105
-26 165 -7 71 -17 116 -27 128 -19 22 -91 43 -207 62 -106 18 -163 18 -266 0z
m301 -161 l55 -19 11 -85 c6 -47 16 -101 22 -121 13 -49 -3 -84 -71 -151 -55
-54 -146 -108 -182 -108 -60 0 -221 124 -250 193 -10 24 -10 39 0 78 7 26 16
80 20 119 8 80 10 82 102 105 76 19 220 14 293 -11z"/>
<path d="M930 1023 c-6 -15 -13 -34 -15 -40 -3 -8 -22 -13 -45 -13 -56 0 -63
-23 -19 -59 32 -27 33 -30 22 -64 -15 -51 0 -63 45 -35 l35 22 37 -22 c47 -27
62 -15 47 35 -11 34 -10 37 22 64 43 36 36 57 -20 61 -38 3 -43 6 -54 38 -15
45 -41 51 -55 13z"/>
</g>
</svg>
