<?xml version="1.0" standalone="no"?>
<!DOCTYPE svg PUBLIC "-//W3C//DTD SVG 20010904//EN"
 "http://www.w3.org/TR/2001/REC-SVG-20010904/DTD/svg10.dtd">
<svg version="1.0" xmlns="http://www.w3.org/2000/svg"
 width="192.000000pt" height="192.000000pt" viewBox="0 0 192.000000 192.000000"
 preserveAspectRatio="xMidYMid meet">
<metadata>
Created by potrace 1.16, written by Peter Selinger 2001-2019
</metadata>
<g transform="translate(0.000000,192.000000) scale(0.100000,-0.100000)"
fill="#000000" stroke="none">
811 c445 -92 729 -532 635 -987 -62 -301 -295 -546 -601 -630 -91 -26 -329
-26 -420 0 -291 80 -516 305 -596 596 -26 91 -26 329 0 420 120 433 542 692
982 601z"/>
<path d="M661 1341 c-14 -14 -21 -41 -26 -102 -7 -73 -5 -84 11 -96 26 -19
642 -19 668 0 19 14 34 80 35 154 1 32 -4 45 -18 53 -13 6 -137 10 -335 10
-296 0 -317 -1 -335 -19z"/>
<path d="M620 1035 c-7 -9 -24 -108 -38 -224 -22 -175 -24 -212 -13 -225 12
-14 53 -16 342 -16 l329 0 14 23 c20 31 31 154 16 172 -10 12 -50 15 -217 15
l-204 0 3 43 3 42 211 3 c178 2 214 5 225 18 8 9 13 44 13 87 l1 72 -336 3
c-292 2 -338 0 -349 -13z"/>
</g>
</svg>
