<?xml version="1.0" standalone="no"?>
<!DOCTYPE svg PUBLIC "-//W3C//DTD SVG 20010904//EN"
 "http://www.w3.org/TR/2001/REC-SVG-20010904/DTD/svg10.dtd">
<svg version="1.0" xmlns="http://www.w3.org/2000/svg"
 width="192.000000pt" height="192.000000pt" viewBox="0 0 192.000000 192.000000"
 preserveAspectRatio="xMidYMid meet">
<metadata>
Created by potrace 1.16, written by Peter Selinger 2001-2019
</metadata>
<g transform="translate(0.000000,192.000000) scale(0.100000,-0.100000)"
fill="#000000" stroke="none">
811 c445 -92 729 -532 635 -987 -62 -301 -295 -546 -601 -630 -91 -26 -329
-26 -420 0 -291 80 -516 305 -596 596 -26 91 -26 329 0 420 120 433 542 692
982 601z"/>
<path d="M587 1182 c-15 -16 -17 -47 -17 -220 0 -249 -13 -232 180 -232 152 0
180 9 180 59 0 50 -25 61 -133 61 l-97 0 0 30 0 30 83 0 c93 0 117 13 117 63
0 42 -33 57 -122 57 -77 0 -78 0 -78 25 0 25 0 25 95 25 82 0 98 3 115 20 24
24 25 48 4 78 -14 21 -22 22 -163 22 -131 0 -150 -2 -164 -18z"/>
<path d="M966 1178 c-9 -12 -16 -29 -16 -38 0 -9 7 -26 16 -38 12 -18 25 -22
65 -22 l49 0 0 -150 c0 -147 1 -152 25 -175 29 -30 55 -32 86 -6 23 18 24 25
27 175 l3 156 45 0 c49 0 84 25 84 60 0 11 -9 29 -20 40 -18 18 -33 20 -184
20 -159 0 -165 -1 -180 -22z"/>
</g>
</svg>
