<?xml version="1.0" standalone="no"?>
<!DOCTYPE svg PUBLIC "-//W3C//DTD SVG 20010904//EN"
 "http://www.w3.org/TR/2001/REC-SVG-20010904/DTD/svg10.dtd">
<svg version="1.0" xmlns="http://www.w3.org/2000/svg"
 width="192.000000pt" height="192.000000pt" viewBox="0 0 192.000000 192.000000"
 preserveAspectRatio="xMidYMid meet">
<metadata>
Created by potrace 1.16, written by Peter Selinger 2001-2019
</metadata>
<g transform="translate(0.000000,192.000000) scale(0.100000,-0.100000)"
fill="#000000" stroke="none">
811 c445 -92 729 -532 635 -987 -62 -301 -295 -546 -601 -630 -91 -26 -329
-26 -420 0 -291 80 -516 305 -596 596 -26 91 -26 329 0 420 120 433 542 692
982 601z"/>
<path d="M787 1348 c-42 -11 -140 -95 -162 -139 -21 -40 -22 -447 -1 -487 19
-37 93 -106 136 -127 40 -21 210 -32 313 -21 134 15 225 117 161 181 -25 25
-73 18 -111 -15 l-34 -30 -129 0 -130 0 -37 34 c-35 32 -37 38 -38 92 l0 59
258 5 c241 5 260 6 273 24 17 25 20 246 3 279 -6 12 -34 46 -63 75 -68 70
-110 82 -275 81 -69 -1 -143 -6 -164 -11z m334 -166 c37 -40 40 -46 37 -95
l-3 -52 -197 -3 -198 -2 0 63 c0 56 3 66 28 90 42 41 69 47 185 44 l109 -2 39
-43z"/>
</g>
</svg>
