<?xml version="1.0" standalone="no"?>
<!DOCTYPE svg PUBLIC "-//W3C//DTD SVG 20010904//EN"
 "http://www.w3.org/TR/2001/REC-SVG-20010904/DTD/svg10.dtd">
<svg version="1.0" xmlns="http://www.w3.org/2000/svg"
 width="192.000000pt" height="192.000000pt" viewBox="0 0 192.000000 192.000000"
 preserveAspectRatio="xMidYMid meet">
<metadata>
Created by potrace 1.16, written by Peter Selinger 2001-2019
</metadata>
<g transform="translate(0.000000,192.000000) scale(0.100000,-0.100000)"
fill="#000000" stroke="none">
811 c445 -92 729 -532 635 -987 -62 -301 -295 -546 -601 -630 -91 -26 -329
-26 -420 0 -291 80 -516 305 -596 596 -26 91 -26 329 0 420 120 433 542 692
982 601z"/>
<path d="M705 1283 c-37 -43 -87 -107 -113 -141 -95 -134 -58 -235 106 -283
l42 -12 0 -56 c0 -78 15 -122 52 -158 72 -70 192 -85 288 -35 71 36 83 56 50
82 -38 30 -68 35 -90 15 -28 -25 -100 -31 -138 -11 -37 19 -52 44 -52 85 l0
30 158 3 c150 3 157 4 160 24 2 15 17 25 59 38 80 25 133 78 140 137 8 66 -9
96 -160 277 -38 45 -75 82 -82 82 -9 0 -3 -25 20 -82 48 -116 53 -160 25 -188
-25 -25 -52 -24 -153 5 -53 15 -61 15 -115 0 -93 -27 -129 -29 -158 -10 -24
16 -26 21 -21 66 3 27 20 81 36 121 49 116 39 118 -54 11z m304 -294 c35 -12
51 -35 51 -73 l0 -26 -105 0 c-99 0 -105 1 -105 21 0 67 78 106 159 78z"/>
</g>
</svg>
