<?xml version="1.0" standalone="no"?>
<!DOCTYPE svg PUBLIC "-//W3C//DTD SVG 20010904//EN"
 "http://www.w3.org/TR/2001/REC-SVG-20010904/DTD/svg10.dtd">
<svg version="1.0" xmlns="http://www.w3.org/2000/svg"
 width="192.000000pt" height="192.000000pt" viewBox="0 0 192.000000 192.000000"
 preserveAspectRatio="xMidYMid meet">
<metadata>
Created by potrace 1.16, written by Peter Selinger 2001-2019
</metadata>
<g transform="translate(0.000000,192.000000) scale(0.100000,-0.100000)"
fill="#000000" stroke="none">
811 c445 -92 729 -532 635 -987 -62 -301 -295 -546 -601 -630 -91 -26 -329
-26 -420 0 -291 80 -516 305 -596 596 -26 91 -26 329 0 420 120 433 542 692
982 601z"/>
<path d="M482 1172 c-9 -7 -12 -51 -10 -188 l3 -179 112 -3 c102 -2 112 -1
117 16 14 42 -2 52 -80 52 l-74 0 0 40 0 40 49 0 c67 0 81 7 81 41 l0 29 -65
0 -65 0 0 45 0 45 76 0 75 0 -3 33 -3 32 -100 3 c-55 1 -106 -2 -113 -6z"/>
<path d="M767 1154 c-4 -4 -7 -17 -7 -30 0 -13 -8 -24 -20 -27 -13 -3 -20 -14
-20 -30 0 -17 7 -28 20 -32 18 -6 20 -15 20 -98 0 -121 11 -139 83 -135 48 3
52 5 55 31 3 24 0 27 -27 27 l-31 0 0 84 0 84 31 6 c26 5 30 10 27 33 -2 22
-9 29 -30 31 -21 3 -27 9 -30 30 -2 22 -9 28 -33 30 -17 2 -34 0 -38 -4z"/>
<path d="M955 1075 c-29 -28 -34 -94 -10 -119 16 -15 21 -17 93 -36 35 -9 42
-15 42 -35 0 -22 -5 -25 -34 -25 -25 0 -35 5 -39 20 -4 15 -14 20 -36 20 -18
0 -32 -5 -32 -12 -6 -64 23 -88 106 -88 84 0 110 20 110 85 0 55 -25 82 -86
91 -49 8 -74 26 -66 48 10 24 64 21 72 -5 5 -16 14 -19 38 -17 42 4 48 38 13
73 -21 21 -34 25 -86 25 -51 0 -65 -4 -85 -25z"/>
<path d="M1177 1093 c-5 -9 66 -244 84 -280 9 -16 9 -30 0 -54 -16 -47 -15
-51 26 -47 l37 3 58 184 c33 106 54 189 49 194 -5 5 -21 7 -37 5 -26 -3 -30
-10 -60 -102 l-32 -99 -16 59 c-39 136 -40 139 -73 142 -17 2 -33 -1 -36 -5z"/>
</g>
</svg>
