<?xml version="1.0" standalone="no"?>
<!DOCTYPE svg PUBLIC "-//W3C//DTD SVG 20010904//EN"
 "http://www.w3.org/TR/2001/REC-SVG-20010904/DTD/svg10.dtd">
<svg version="1.0" xmlns="http://www.w3.org/2000/svg"
 width="192.000000pt" height="192.000000pt" viewBox="0 0 192.000000 192.000000"
 preserveAspectRatio="xMidYMid meet">
<metadata>
Created by potrace 1.16, written by Peter Selinger 2001-2019
</metadata>
<g transform="translate(0.000000,192.000000) scale(0.100000,-0.100000)"
fill="#000000" stroke="none">
811 c445 -92 729 -532 635 -987 -62 -301 -295 -546 -601 -630 -91 -26 -329
-26 -420 0 -291 80 -516 305 -596 596 -26 91 -26 329 0 420 120 433 542 692
982 601z"/>
<path d="M798 1346 c-95 -20 -154 -39 -168 -51 -21 -19 -21 -26 -18 -240 4
-255 6 -265 107 -365 53 -54 201 -140 238 -140 34 0 177 86 233 140 98 94 104
116 108 367 4 265 15 247 -178 287 -74 15 -144 29 -155 31 -11 2 -86 -11 -167
-29z m262 -166 c52 -27 93 -74 86 -98 -10 -30 -141 -152 -164 -152 -19 0 -52
33 -52 53 0 4 21 30 46 57 45 48 45 49 23 60 -38 21 -98 6 -138 -34 -32 -33
-36 -42 -36 -91 0 -48 4 -58 34 -89 37 -38 83 -53 128 -42 41 11 90 67 99 112
9 51 20 64 55 64 37 0 50 -30 40 -86 -33 -174 -238 -250 -370 -137 -59 50 -85
105 -85 178 0 173 181 284 334 205z"/>
</g>
</svg>
