<?xml version="1.0" standalone="no"?>
<!DOCTYPE svg PUBLIC "-//W3C//DTD SVG 20010904//EN"
 "http://www.w3.org/TR/2001/REC-SVG-20010904/DTD/svg10.dtd">
<svg version="1.0" xmlns="http://www.w3.org/2000/svg"
 width="192.000000pt" height="192.000000pt" viewBox="0 0 192.000000 192.000000"
 preserveAspectRatio="xMidYMid meet">
<metadata>
Created by potrace 1.16, written by Peter Selinger 2001-2019
</metadata>
<g transform="translate(0.000000,192.000000) scale(0.100000,-0.100000)"
fill="#000000" stroke="none">
811 c445 -92 729 -532 635 -987 -62 -301 -295 -546 -601 -630 -91 -26 -329
-26 -420 0 -291 80 -516 305 -596 596 -26 91 -26 329 0 420 120 433 542 692
982 601z"/>
<path d="M772 1358 c-14 -14 -17 -215 -3 -237 5 -8 32 -16 65 -19 l55 -4 -36
-44 -35 -44 -85 0 c-95 0 -123 -10 -123 -44 0 -18 12 -32 45 -53 25 -15 45
-31 45 -35 0 -3 -16 -25 -35 -48 -38 -45 -42 -59 -23 -78 18 -18 40 -15 113
18 l67 30 44 -30 44 -31 -65 -61 c-66 -61 -83 -99 -49 -112 9 -3 121 -6 249
-6 271 0 255 -7 255 108 0 100 -3 102 -178 102 l-142 0 0 49 0 48 83 35 c66
28 83 39 85 58 6 36 -22 50 -100 50 l-68 0 0 75 0 75 138 0 c179 0 182 2 182
109 0 46 -5 82 -12 89 -17 17 -499 17 -516 0z"/>
</g>
</svg>
