<?xml version="1.0" standalone="no"?>
<!DOCTYPE svg PUBLIC "-//W3C//DTD SVG 20010904//EN"
 "http://www.w3.org/TR/2001/REC-SVG-20010904/DTD/svg10.dtd">
<svg version="1.0" xmlns="http://www.w3.org/2000/svg"
 width="192.000000pt" height="192.000000pt" viewBox="0 0 192.000000 192.000000"
 preserveAspectRatio="xMidYMid meet">
<metadata>
Created by potrace 1.16, written by Peter Selinger 2001-2019
</metadata>
<g transform="translate(0.000000,192.000000) scale(0.100000,-0.100000)"
fill="#000000" stroke="none">
811 c445 -92 729 -532 635 -987 -62 -301 -295 -546 -601 -630 -91 -26 -329
-26 -420 0 -291 80 -516 305 -596 596 -26 91 -26 329 0 420 120 433 542 692
982 601z"/>
<path d="M782 1364 c-21 -14 -22 -23 -22 -129 0 -131 3 -135 85 -135 l46 0
-38 -45 -37 -45 -91 0 c-96 0 -115 -7 -115 -46 0 -15 14 -31 45 -51 25 -15 45
-30 45 -33 0 -3 -16 -25 -35 -49 -38 -47 -42 -60 -23 -79 18 -18 39 -15 114
17 l68 29 38 -25 c21 -14 38 -29 38 -33 0 -4 -27 -33 -61 -64 -50 -46 -60 -61
-57 -84 l3 -27 244 -3 c171 -2 248 1 257 9 10 8 14 35 14 90 0 110 1 109 -176
109 l-144 0 0 48 0 48 83 35 c65 27 83 39 85 57 6 41 -14 52 -94 52 l-74 0 0
75 0 75 143 0 c177 0 177 0 177 113 0 110 8 107 -270 107 -188 0 -229 -3 -248
-16z"/>
</g>
</svg>
