<?xml version="1.0" standalone="no"?>
<!DOCTYPE svg PUBLIC "-//W3C//DTD SVG 20010904//EN"
 "http://www.w3.org/TR/2001/REC-SVG-20010904/DTD/svg10.dtd">
<svg version="1.0" xmlns="http://www.w3.org/2000/svg"
 width="192.000000pt" height="192.000000pt" viewBox="0 0 192.000000 192.000000"
 preserveAspectRatio="xMidYMid meet">
<metadata>
Created by potrace 1.16, written by Peter Selinger 2001-2019
</metadata>
<g transform="translate(0.000000,192.000000) scale(0.100000,-0.100000)"
fill="#000000" stroke="none">
811 c445 -92 729 -532 635 -987 -62 -301 -295 -546 -601 -630 -91 -26 -329
-26 -420 0 -291 80 -516 305 -596 596 -26 91 -26 329 0 420 120 433 542 692
982 601z"/>
<path d="M872 1369 c-209 -41 -359 -254 -325 -462 23 -137 110 -253 232 -311
61 -29 74 -31 176 -31 104 0 114 2 176 32 80 40 159 120 197 200 24 52 27 69
27 168 0 102 -2 115 -31 176 -81 170 -267 265 -452 228z m-67 -259 c25 0 76
-52 73 -74 -4 -28 -33 -32 -75 -9 -33 18 -34 18 -71 -4 -41 -23 -72 -17 -72
16 0 35 81 87 118 75 8 -2 20 -4 27 -4z m403 -18 c33 -21 46 -50 31 -68 -15
-18 -53 -18 -69 1 -17 21 -47 19 -77 -5 -49 -39 -87 17 -41 60 41 38 107 44
156 12z"/>
</g>
</svg>
