<?xml version="1.0" standalone="no"?>
<!DOCTYPE svg PUBLIC "-//W3C//DTD SVG 20010904//EN"
 "http://www.w3.org/TR/2001/REC-SVG-20010904/DTD/svg10.dtd">
<svg version="1.0" xmlns="http://www.w3.org/2000/svg"
 width="192.000000pt" height="192.000000pt" viewBox="0 0 192.000000 192.000000"
 preserveAspectRatio="xMidYMid meet">
<metadata>
Created by potrace 1.16, written by Peter Selinger 2001-2019
</metadata>
<g transform="translate(0.000000,192.000000) scale(0.100000,-0.100000)"
fill="#000000" stroke="none">
811 c445 -92 729 -532 635 -987 -62 -301 -295 -546 -601 -630 -91 -26 -329
-26 -420 0 -291 80 -516 305 -596 596 -26 91 -26 329 0 420 120 433 542 692
982 601z"/>
<path d="M831 1334 c-98 -35 -179 -108 -227 -202 -26 -52 -29 -66 -29 -162 0
-99 2 -109 33 -172 41 -83 119 -158 200 -189 44 -18 78 -23 148 -24 84 0 95 2
166 38 76 37 135 91 168 151 18 34 13 38 -87 60 l-75 16 -24 -25 c-57 -62
-163 -82 -240 -45 -42 21 -81 56 -72 65 3 3 128 33 277 68 l273 62 -6 41 c-17
127 -98 239 -214 296 -58 29 -78 33 -157 35 -63 2 -103 -2 -134 -13z m217
-183 c49 -25 80 -59 61 -66 -32 -11 -354 -83 -358 -79 -2 2 4 22 14 43 19 44
55 81 100 104 42 23 137 22 183 -2z"/>
</g>
</svg>
