<?xml version="1.0" standalone="no"?>
<!DOCTYPE svg PUBLIC "-//W3C//DTD SVG 20010904//EN"
 "http://www.w3.org/TR/2001/REC-SVG-20010904/DTD/svg10.dtd">
<svg version="1.0" xmlns="http://www.w3.org/2000/svg"
 width="192.000000pt" height="192.000000pt" viewBox="0 0 192.000000 192.000000"
 preserveAspectRatio="xMidYMid meet">
<metadata>
Created by potrace 1.16, written by Peter Selinger 2001-2019
</metadata>
<g transform="translate(0.000000,192.000000) scale(0.100000,-0.100000)"
fill="#000000" stroke="none">
811 c445 -92 729 -532 635 -987 -62 -301 -295 -546 -601 -630 -91 -26 -329
-26 -420 0 -291 80 -516 305 -596 596 -26 91 -26 329 0 420 120 433 542 692
982 601z"/>
<path d="M632 1306 l-62 -64 0 -207 0 -207 29 -29 c28 -28 33 -29 121 -29 104
0 124 7 139 50 l10 31 158 -3 158 -3 0 -72 c0 -42 -5 -77 -12 -84 -6 -6 -35
-14 -62 -17 -49 -4 -51 -4 -51 21 0 16 7 26 20 30 23 6 28 45 8 65 -20 20
-105 15 -128 -8 -40 -40 -21 -196 25 -214 9 -3 71 -6 138 -6 134 0 160 9 198
66 17 27 19 52 19 342 l0 313 -25 24 c-23 24 -29 25 -160 25 -128 0 -135 1
-135 20 0 19 -7 20 -163 20 l-164 0 -61 -64z m538 -156 c16 -16 18 -25 10 -40
-9 -16 -21 -20 -63 -20 -52 0 -77 12 -77 36 0 44 93 61 130 24z"/>
</g>
</svg>
