<?xml version="1.0" standalone="no"?>
<!DOCTYPE svg PUBLIC "-//W3C//DTD SVG 20010904//EN"
 "http://www.w3.org/TR/2001/REC-SVG-20010904/DTD/svg10.dtd">
<svg version="1.0" xmlns="http://www.w3.org/2000/svg"
 width="192.000000pt" height="192.000000pt" viewBox="0 0 192.000000 192.000000"
 preserveAspectRatio="xMidYMid meet">
<metadata>
Created by potrace 1.16, written by Peter Selinger 2001-2019
</metadata>
<g transform="translate(0.000000,192.000000) scale(0.100000,-0.100000)"
fill="#000000" stroke="none">
811 c445 -92 729 -532 635 -987 -62 -301 -295 -546 -601 -630 -91 -26 -329
-26 -420 0 -291 80 -516 305 -596 596 -26 91 -26 329 0 420 120 433 542 692
982 601z"/>
<path d="M617 1353 c-10 -9 -8 -746 2 -761 6 -10 89 50 317 228 170 133 321
254 337 268 21 20 27 35 27 69 0 49 -21 97 -45 107 -9 3 -103 6 -209 6 l-192
0 -39 40 c-47 48 -77 50 -85 7 l-5 -28 -34 35 c-33 34 -59 44 -74 29z m471
-179 c26 -18 28 -50 5 -76 -20 -22 -41 -23 -65 -1 -25 22 -23 59 4 77 12 9 25
16 28 16 3 0 16 -7 28 -16z"/>
<path d="M903 716 c-87 -67 -158 -127 -158 -132 0 -5 106 -10 238 -12 l238 -2
24 24 c44 44 34 70 -58 163 -52 52 -91 83 -105 83 -12 0 -90 -54 -179 -124z"/>
</g>
</svg>
