<?xml version="1.0" standalone="no"?>
<!DOCTYPE svg PUBLIC "-//W3C//DTD SVG 20010904//EN"
 "http://www.w3.org/TR/2001/REC-SVG-20010904/DTD/svg10.dtd">
<svg version="1.0" xmlns="http://www.w3.org/2000/svg"
 width="192.000000pt" height="192.000000pt" viewBox="0 0 192.000000 192.000000"
 preserveAspectRatio="xMidYMid meet">
<metadata>
Created by potrace 1.16, written by Peter Selinger 2001-2019
</metadata>
<g transform="translate(0.000000,192.000000) scale(0.100000,-0.100000)"
fill="#000000" stroke="none">
811 c445 -92 729 -532 635 -987 -62 -301 -295 -546 -601 -630 -91 -26 -329
-26 -420 0 -291 80 -516 305 -596 596 -26 91 -26 329 0 420 120 433 542 692
982 601z"/>
<path d="M695 1321 c-50 -22 -91 -69 -105 -119 -14 -53 -13 -425 2 -476 16
-52 72 -108 124 -124 56 -16 422 -16 478 0 52 16 108 72 124 124 15 51 16 423
2 476 -14 50 -55 97 -105 119 -35 16 -68 19 -260 19 -192 0 -225 -3 -260 -19z
m95 -38 c0 -5 -12 -26 -25 -48 -14 -22 -25 -43 -25 -46 0 -3 25 -9 55 -13 45
-5 63 -2 98 15 23 12 44 23 46 25 3 3 -11 20 -29 39 -28 29 -31 35 -15 35 11
0 33 -14 51 -31 l31 -30 99 26 c79 21 103 24 123 15 20 -9 21 -13 10 -23 -11
-9 -13 -34 -11 -100 l3 -88 35 -16 c20 -10 34 -24 34 -35 0 -16 -2 -16 -34 3
l-33 19 -7 -37 c-9 -60 -7 -77 15 -128 20 -45 21 -46 40 -29 18 16 19 16 19
-4 0 -11 -5 -24 -11 -28 -7 -4 -9 -21 -5 -43 3 -20 1 -43 -4 -51 -9 -15 -8
-17 -25 36 -4 13 -12 10 -46 -17 -22 -18 -45 -42 -51 -54 -8 -18 -19 -23 -59
-24 -27 0 -49 1 -49 3 0 2 20 16 44 30 41 24 45 30 64 103 11 43 22 87 25 98
5 24 -56 145 -92 184 -20 22 -47 33 -115 49 l-89 21 -41 -21 c-22 -11 -64 -35
-92 -53 -47 -30 -53 -38 -67 -92 l-15 -58 -1 66 c-1 36 2 69 6 73 4 4 15 27
24 51 l17 45 -24 0 c-15 0 -24 6 -24 15 0 10 10 15 29 15 25 0 34 8 61 55 17
30 38 55 46 55 8 0 14 -3 14 -7z m191 -269 c35 -17 67 -63 76 -105 10 -49 -12
-59 -134 -59 -114 0 -127 -9 -75 -50 27 -22 58 -23 117 -5 11 3 29 -1 40 -9
20 -15 20 -15 -2 -37 -31 -31 -125 -38 -178 -13 -119 56 -106 244 20 289 43
16 93 12 136 -11z"/>
<path d="M1070 1223 c-30 -8 -57 -16 -59 -19 -10 -10 56 -87 84 -98 78 -33 75
-34 75 38 0 104 -2 106 -100 79z"/>
<path d="M930 1175 c-27 -15 -26 -16 43 -34 43 -11 47 -4 14 27 -27 26 -25 25
-57 7z"/>
<path d="M709 1124 c-5 -15 -8 -29 -5 -31 4 -4 86 46 86 53 0 2 -16 4 -35 4
-29 0 -37 -5 -46 -26z"/>
<path d="M1131 1020 c17 -27 33 -50 35 -50 2 0 4 16 4 35 0 28 -5 37 -30 50
-42 22 -43 20 -9 -35z"/>
<path d="M1166 814 c-4 -19 -10 -43 -13 -52 -5 -12 0 -11 25 6 28 21 30 25 20
52 -13 40 -24 38 -32 -6z"/>
<path d="M846 949 c-14 -11 -26 -25 -26 -30 0 -5 36 -9 80 -9 45 0 80 4 80 10
0 5 -10 18 -22 30 -28 26 -78 26 -112 -1z"/>
</g>
</svg>
