<?xml version="1.0" standalone="no"?>
<!DOCTYPE svg PUBLIC "-//W3C//DTD SVG 20010904//EN"
 "http://www.w3.org/TR/2001/REC-SVG-20010904/DTD/svg10.dtd">
<svg version="1.0" xmlns="http://www.w3.org/2000/svg"
 width="192.000000pt" height="192.000000pt" viewBox="0 0 192.000000 192.000000"
 preserveAspectRatio="xMidYMid meet">
<metadata>
Created by potrace 1.16, written by Peter Selinger 2001-2019
</metadata>
<g transform="translate(0.000000,192.000000) scale(0.100000,-0.100000)"
fill="#000000" stroke="none">
811 c445 -92 729 -532 635 -987 -62 -301 -295 -546 -601 -630 -91 -26 -329
-26 -420 0 -291 80 -516 305 -596 596 -26 91 -26 329 0 420 120 433 542 692
982 601z"/>
<path d="M802 1388 c-7 -7 -12 -24 -12 -39 0 -23 -5 -28 -37 -34 -78 -14 -153
-94 -153 -163 0 -18 -6 -22 -30 -22 -18 0 -33 -7 -39 -18 -14 -27 5 -52 39
-52 l30 0 0 -95 0 -95 -28 0 c-27 0 -52 -15 -52 -31 0 -16 33 -39 54 -39 19 0
25 -7 30 -37 12 -78 71 -137 148 -149 32 -6 37 -10 40 -38 2 -26 7 -31 28 -31
21 0 26 5 28 33 l3 32 99 0 99 0 3 -32 c2 -28 7 -33 28 -33 21 0 26 5 28 31 3
28 7 32 43 37 22 3 56 16 75 29 34 23 84 106 84 140 0 12 8 18 23 18 27 0 47
17 47 41 0 18 -19 29 -51 29 -17 0 -19 8 -19 95 0 92 1 95 23 95 27 0 47 17
47 41 0 18 -19 29 -50 29 -13 0 -21 12 -29 44 -6 24 -23 59 -38 77 -29 34 -94
68 -130 69 -19 0 -23 6 -23 29 0 16 -7 34 -15 41 -21 18 -45 -4 -45 -41 l0
-29 -100 0 -100 0 0 28 c0 26 -15 52 -30 52 -3 0 -11 -5 -18 -12z m97 -302 c6
-7 9 -21 5 -30 -9 -24 -189 -24 -198 0 -13 33 13 44 99 44 58 0 86 -4 94 -14z
m116 -26 c21 -22 44 -40 50 -40 6 0 29 18 50 40 25 26 47 40 60 38 35 -5 29
-40 -15 -83 -22 -21 -40 -44 -40 -50 0 -6 18 -29 40 -50 26 -25 40 -47 38 -60
-5 -35 -36 -28 -86 19 l-48 45 -44 -44 c-48 -49 -75 -57 -85 -24 -6 17 3 32
39 68 l46 47 -40 39 c-41 40 -56 68 -45 85 12 20 42 9 80 -30z m-111 -82 c16
-26 -5 -41 -68 -46 -100 -8 -156 16 -125 55 18 21 178 14 193 -9z m-8 -92 c15
-12 17 -18 8 -33 -9 -15 -25 -18 -99 -18 -74 0 -90 3 -99 18 -18 30 17 47 99
47 46 0 78 -5 91 -14z"/>
</g>
</svg>
