<?xml version="1.0" standalone="no"?>
<!DOCTYPE svg PUBLIC "-//W3C//DTD SVG 20010904//EN"
 "http://www.w3.org/TR/2001/REC-SVG-20010904/DTD/svg10.dtd">
<svg version="1.0" xmlns="http://www.w3.org/2000/svg"
 width="192.000000pt" height="192.000000pt" viewBox="0 0 192.000000 192.000000"
 preserveAspectRatio="xMidYMid meet">
<metadata>
Created by potrace 1.16, written by Peter Selinger 2001-2019
</metadata>
<g transform="translate(0.000000,192.000000) scale(0.100000,-0.100000)"
fill="#000000" stroke="none">
811 c445 -92 729 -532 635 -987 -62 -301 -295 -546 -601 -630 -91 -26 -329
-26 -420 0 -291 80 -516 305 -596 596 -26 91 -26 329 0 420 120 433 542 692
982 601z"/>
<path d="M707 1363 c-11 -10 -8 -102 4 -126 15 -29 231 -247 244 -247 19 0
243 234 250 261 3 14 5 45 3 70 -5 75 -29 65 -141 -56 -54 -58 -105 -105 -112
-105 -7 0 -57 47 -111 105 -89 96 -119 117 -137 98z"/>
<path d="M553 1204 c-4 -11 26 -48 101 -123 58 -58 106 -111 106 -116 0 -5
-48 -58 -106 -116 -125 -126 -128 -139 -32 -139 l63 0 124 124 c106 106 122
126 113 142 -6 11 -62 70 -125 132 l-114 112 -62 0 c-47 0 -63 -4 -68 -16z"/>
<path d="M1113 1108 c-63 -62 -119 -121 -125 -132 -9 -16 7 -36 113 -142 l124
-124 63 0 c96 0 93 13 -32 139 -58 58 -106 111 -106 116 0 5 48 58 106 116
125 125 128 139 33 139 l-62 0 -114 -112z"/>
<path d="M822 807 l-122 -124 0 -55 c0 -38 5 -60 16 -69 13 -11 31 3 127 99
l112 112 112 -112 c96 -96 114 -110 127 -99 11 9 16 31 16 69 l0 55 -122 124
c-67 67 -127 123 -133 123 -6 0 -66 -56 -133 -123z"/>
</g>
</svg>
