<?xml version="1.0" standalone="no"?>
<!DOCTYPE svg PUBLIC "-//W3C//DTD SVG 20010904//EN"
 "http://www.w3.org/TR/2001/REC-SVG-20010904/DTD/svg10.dtd">
<svg version="1.0" xmlns="http://www.w3.org/2000/svg"
 width="192.000000pt" height="192.000000pt" viewBox="0 0 192.000000 192.000000"
 preserveAspectRatio="xMidYMid meet">
<metadata>
Created by potrace 1.16, written by Peter Selinger 2001-2019
</metadata>
<g transform="translate(0.000000,192.000000) scale(0.100000,-0.100000)"
fill="#000000" stroke="none">
811 c445 -92 729 -532 635 -987 -62 -301 -295 -546 -601 -630 -91 -26 -329
-26 -420 0 -291 80 -516 305 -596 596 -26 91 -26 329 0 420 120 433 542 692
982 601z"/>
<path d="M816 1316 c-150 -63 -236 -192 -236 -351 0 -41 3 -75 6 -75 3 0 93
29 199 65 105 36 199 65 209 65 29 0 17 25 -59 126 -41 54 -75 104 -75 110 0
6 7 17 15 24 19 16 35 5 182 -123 l102 -88 72 20 c40 11 75 18 80 16 4 -3 10
-23 14 -45 7 -43 23 -50 48 -22 32 35 14 72 -34 72 -21 0 -32 9 -52 43 -34 58
-117 133 -174 159 -35 15 -74 22 -143 25 -84 3 -102 1 -154 -21z"/>
<path d="M1246 991 l-59 -17 -50 -162 c-28 -88 -56 -163 -64 -166 -7 -3 -20
-3 -29 1 -14 5 -15 19 -10 107 4 56 9 112 11 126 9 48 -4 51 -95 26 -47 -13
-142 -36 -212 -51 -71 -16 -128 -34 -128 -40 0 -21 56 -100 95 -134 22 -19 64
-46 95 -60 48 -23 68 -26 160 -26 94 0 111 3 160 27 120 59 204 182 216 316 8
83 10 82 -90 53z"/>
<path d="M536 864 c-25 -24 -3 -58 32 -49 34 9 34 8 26 39 -7 30 -34 35 -58
10z"/>
</g>
</svg>
