<?xml version="1.0" standalone="no"?>
<!DOCTYPE svg PUBLIC "-//W3C//DTD SVG 20010904//EN"
 "http://www.w3.org/TR/2001/REC-SVG-20010904/DTD/svg10.dtd">
<svg version="1.0" xmlns="http://www.w3.org/2000/svg"
 width="192.000000pt" height="192.000000pt" viewBox="0 0 192.000000 192.000000"
 preserveAspectRatio="xMidYMid meet">
<metadata>
Created by potrace 1.16, written by Peter Selinger 2001-2019
</metadata>
<g transform="translate(0.000000,192.000000) scale(0.100000,-0.100000)"
fill="#000000" stroke="none">
811 c445 -92 729 -532 635 -987 -62 -301 -295 -546 -601 -630 -91 -26 -329
-26 -420 0 -291 80 -516 305 -596 596 -26 91 -26 329 0 420 120 433 542 692
982 601z"/>
<path d="M912 1368 c-7 -7 -12 -41 -12 -83 0 -42 5 -76 12 -83 16 -16 150 -16
166 0 7 7 12 41 12 83 0 42 -5 76 -12 83 -7 7 -41 12 -83 12 -42 0 -76 -5 -83
-12z"/>
<path d="M1171 1241 c-15 -28 -14 -66 3 -80 8 -7 32 -11 53 -9 l38 3 0 50 0
50 -42 3 c-33 2 -44 -1 -52 -17z"/>
<path d="M680 1193 c-30 -11 -40 -37 -40 -108 0 -97 13 -109 116 -110 95 0
104 9 104 112 0 97 -15 113 -102 112 -35 0 -70 -3 -78 -6z"/>
<path d="M1010 1058 c-108 -74 -109 -212 -1 -285 79 -53 229 -4 206 67 -8 24
-51 26 -79 5 -11 -8 -31 -15 -46 -15 -27 0 -70 25 -70 41 0 5 46 9 104 9 139
0 158 17 117 106 -26 57 -72 87 -140 92 -46 3 -62 0 -91 -20z m131 -78 l24
-19 -75 0 -75 0 24 19 c13 11 36 20 51 20 15 0 38 -9 51 -20z"/>
<path d="M700 871 c-5 -11 -10 -32 -10 -46 0 -50 16 -65 70 -65 54 0 70 15 70
65 0 50 -16 65 -70 65 -39 0 -52 -4 -60 -19z"/>
<path d="M862 698 c-7 -7 -12 -37 -12 -68 0 -31 5 -61 12 -68 7 -7 36 -12 65
-12 45 0 55 4 69 25 19 30 15 112 -7 126 -21 13 -113 11 -127 -3z"/>
</g>
</svg>
