<?xml version="1.0" standalone="no"?>
<!DOCTYPE svg PUBLIC "-//W3C//DTD SVG 20010904//EN"
 "http://www.w3.org/TR/2001/REC-SVG-20010904/DTD/svg10.dtd">
<svg version="1.0" xmlns="http://www.w3.org/2000/svg"
 width="192.000000pt" height="192.000000pt" viewBox="0 0 192.000000 192.000000"
 preserveAspectRatio="xMidYMid meet">
<metadata>
Created by potrace 1.16, written by Peter Selinger 2001-2019
</metadata>
<g transform="translate(0.000000,192.000000) scale(0.100000,-0.100000)"
fill="#000000" stroke="none">
759 c272 -64 494 -285 566 -564 28 -110 28 -280 0 -390 -71 -278 -288 -495
-566 -566 -110 -28 -280 -28 -390 0 -277 71 -494 288 -566 566 -28 110 -28
280 0 390 108 421 524 667 956 564z"/>
<path d="M656 1264 c-9 -9 -16 -32 -16 -55 l0 -39 305 0 c271 0 306 2 312 16
10 28 -18 34 -158 34 l-135 0 -29 30 c-29 30 -29 30 -146 30 -94 0 -121 -3
-133 -16z"/>
<path d="M602 1130 c-46 -19 -48 -45 -20 -256 19 -145 31 -200 44 -215 16 -18
33 -19 326 -19 181 0 317 4 327 10 27 14 29 24 57 229 27 202 25 228 -22 250
-31 14 -677 14 -712 1z m322 -66 c19 -19 20 -36 4 -52 -17 -17 -249 -17 -266
0 -17 17 -15 45 6 57 9 6 67 11 129 11 88 0 115 -3 127 -16z"/>
</g>
</svg>
