<?xml version="1.0" standalone="no"?>
<!DOCTYPE svg PUBLIC "-//W3C//DTD SVG 20010904//EN"
 "http://www.w3.org/TR/2001/REC-SVG-20010904/DTD/svg10.dtd">
<svg version="1.0" xmlns="http://www.w3.org/2000/svg"
 width="192.000000pt" height="192.000000pt" viewBox="0 0 192.000000 192.000000"
 preserveAspectRatio="xMidYMid meet">
<metadata>
Created by potrace 1.16, written by Peter Selinger 2001-2019
</metadata>
<g transform="translate(0.000000,192.000000) scale(0.100000,-0.100000)"
fill="#000000" stroke="none">
811 c445 -92 729 -532 635 -987 -62 -301 -295 -546 -601 -630 -91 -26 -329
-26 -420 0 -291 80 -516 305 -596 596 -26 91 -26 329 0 420 120 433 542 692
982 601z"/>
<path d="M1280 1328 c-21 -11 -37 -50 -111 -268 l-86 -255 -57 173 c-44 132
-64 176 -83 192 -24 18 -41 20 -212 20 -197 0 -211 -3 -211 -46 0 -44 33 -54
173 -54 l128 0 14 -32 13 -33 -96 -2 c-119 -4 -138 -8 -152 -34 -9 -16 -8 -26
5 -45 15 -23 19 -24 149 -24 130 0 134 -1 140 -22 3 -13 6 -26 6 -30 0 -5 -79
-8 -175 -8 -162 0 -177 -2 -195 -20 -24 -24 -25 -32 -2 -59 16 -20 27 -21 215
-23 l198 -3 27 -65 c31 -74 73 -105 127 -94 60 12 77 44 189 353 58 161 106
303 106 316 0 51 -62 87 -110 63z"/>
</g>
</svg>
