<?xml version="1.0" standalone="no"?>
<!DOCTYPE svg PUBLIC "-//W3C//DTD SVG 20010904//EN"
 "http://www.w3.org/TR/2001/REC-SVG-20010904/DTD/svg10.dtd">
<svg version="1.0" xmlns="http://www.w3.org/2000/svg"
 width="192.000000pt" height="192.000000pt" viewBox="0 0 192.000000 192.000000"
 preserveAspectRatio="xMidYMid meet">
<metadata>
Created by potrace 1.16, written by Peter Selinger 2001-2019
</metadata>
<g transform="translate(0.000000,192.000000) scale(0.100000,-0.100000)"
fill="#000000" stroke="none">
811 c445 -92 729 -532 635 -987 -62 -301 -295 -546 -601 -630 -91 -26 -329
-26 -420 0 -291 80 -516 305 -596 596 -26 91 -26 329 0 420 120 433 542 692
982 601z"/>
<path d="M725 1346 c-38 -17 -91 -72 -104 -109 -27 -72 0 -168 68 -238 75 -78
135 -76 175 6 24 49 33 175 17 243 -21 85 -90 129 -156 98z"/>
<path d="M1093 1300 c-62 -28 -141 -105 -155 -152 -10 -34 -9 -42 9 -66 30
-40 84 -55 178 -48 104 7 167 29 204 72 60 67 46 156 -30 194 -51 27 -149 26
-206 0z"/>
<path d="M1072 968 c-32 -35 -43 -75 -48 -168 -5 -101 15 -172 59 -204 84 -62
217 36 217 161 0 144 -155 288 -228 211z"/>
<path d="M725 893 c-122 -27 -175 -73 -175 -152 0 -138 183 -178 334 -73 48
33 96 105 96 144 0 35 -38 73 -81 82 -35 7 -142 6 -174 -1z"/>
</g>
</svg>
