<?xml version="1.0" standalone="no"?>
<!DOCTYPE svg PUBLIC "-//W3C//DTD SVG 20010904//EN"
 "http://www.w3.org/TR/2001/REC-SVG-20010904/DTD/svg10.dtd">
<svg version="1.0" xmlns="http://www.w3.org/2000/svg"
 width="192.000000pt" height="192.000000pt" viewBox="0 0 192.000000 192.000000"
 preserveAspectRatio="xMidYMid meet">
<metadata>
Created by potrace 1.16, written by Peter Selinger 2001-2019
</metadata>
<g transform="translate(0.000000,192.000000) scale(0.100000,-0.100000)"
fill="#000000" stroke="none">
811 c445 -92 729 -532 635 -987 -62 -301 -295 -546 -601 -630 -91 -26 -329
-26 -420 0 -291 80 -516 305 -596 596 -26 91 -26 329 0 420 120 433 542 692
982 601z"/>
<path d="M710 1074 c-33 -14 -240 -209 -240 -226 0 -5 28 -8 63 -8 62 0 64 1
107 46 25 26 63 59 84 75 l39 29 208 0 209 0 40 36 c71 64 70 64 -217 64 -207
-1 -265 -4 -293 -16z"/>
<path d="M1183 971 c-62 -66 -113 -122 -113 -125 0 -3 33 -6 73 -6 l73 0 112
119 c61 65 108 121 105 125 -4 3 -36 6 -72 6 l-66 0 -112 -119z"/>
<path d="M750 964 c-41 -28 -110 -97 -110 -111 0 -9 17 -13 56 -13 45 0 62 5
86 25 28 24 35 25 167 25 l137 0 32 33 c18 18 32 38 32 45 0 9 -48 12 -188 12
-158 0 -192 -3 -212 -16z"/>
</g>
</svg>
