<?xml version="1.0" standalone="no"?>
<!DOCTYPE svg PUBLIC "-//W3C//DTD SVG 20010904//EN"
 "http://www.w3.org/TR/2001/REC-SVG-20010904/DTD/svg10.dtd">
<svg version="1.0" xmlns="http://www.w3.org/2000/svg"
 width="192.000000pt" height="192.000000pt" viewBox="0 0 192.000000 192.000000"
 preserveAspectRatio="xMidYMid meet">
<metadata>
Created by potrace 1.16, written by Peter Selinger 2001-2019
</metadata>
<g transform="translate(0.000000,192.000000) scale(0.100000,-0.100000)"
fill="#000000" stroke="none">
811 c445 -92 729 -532 635 -987 -62 -301 -295 -546 -601 -630 -91 -26 -329
-26 -420 0 -291 80 -516 305 -596 596 -26 91 -26 329 0 420 120 433 542 692
982 601z"/>
<path d="M597 1353 c-12 -11 -8 -36 8 -53 14 -16 13 -22 -12 -71 l-28 -53 0
-221 c0 -206 1 -222 22 -260 27 -51 68 -90 115 -109 54 -23 452 -23 506 0 47
19 88 58 115 109 21 38 22 54 22 260 0 211 -1 222 -24 268 l-23 48 22 24 c42
45 -3 86 -46 43 l-25 -25 -52 18 c-70 24 -397 27 -473 4 -45 -13 -50 -13 -69
5 -21 20 -46 26 -58 13z m603 -100 c53 -33 70 -69 70 -152 l0 -71 -315 0 -315
0 0 73 c0 77 15 113 60 144 39 28 79 32 275 30 176 -2 193 -4 225 -24z"/>
<path d="M769 1169 c-8 -16 -8 -28 0 -45 9 -21 18 -24 60 -24 32 0 55 6 65 16
38 37 5 74 -64 74 -40 0 -51 -4 -61 -21z"/>
<path d="M1019 1169 c-8 -16 -8 -28 0 -45 9 -21 17 -24 65 -24 46 0 57 4 67
21 8 16 8 28 0 45 -9 21 -17 24 -65 24 -46 0 -57 -4 -67 -21z"/>
</g>
</svg>
