<?xml version="1.0" standalone="no"?>
<!DOCTYPE svg PUBLIC "-//W3C//DTD SVG 20010904//EN"
 "http://www.w3.org/TR/2001/REC-SVG-20010904/DTD/svg10.dtd">
<svg version="1.0" xmlns="http://www.w3.org/2000/svg"
 width="192.000000pt" height="192.000000pt" viewBox="0 0 192.000000 192.000000"
 preserveAspectRatio="xMidYMid meet">
<metadata>
Created by potrace 1.16, written by Peter Selinger 2001-2019
</metadata>
<g transform="translate(0.000000,192.000000) scale(0.100000,-0.100000)"
fill="#000000" stroke="none">
811 c445 -92 729 -532 635 -987 -62 -301 -295 -546 -601 -630 -91 -26 -329
-26 -420 0 -291 80 -516 305 -596 596 -26 91 -26 329 0 420 120 433 542 692
982 601z"/>
<path d="M870 1369 c-113 -22 -226 -112 -282 -227 -58 -118 -49 -280 23 -394
62 -97 170 -170 272 -184 l47 -7 0 90 0 89 -44 12 c-94 25 -160 117 -159 223
2 132 123 243 249 225 163 -22 251 -188 178 -334 -30 -60 -75 -98 -136 -117
l-43 -12 -3 -88 -3 -88 50 6 c73 9 158 53 219 114 157 157 160 409 6 573 -94
101 -236 146 -374 119z"/>
</g>
</svg>
