<?xml version="1.0" standalone="no"?>
<!DOCTYPE svg PUBLIC "-//W3C//DTD SVG 20010904//EN"
 "http://www.w3.org/TR/2001/REC-SVG-20010904/DTD/svg10.dtd">
<svg version="1.0" xmlns="http://www.w3.org/2000/svg"
 width="192.000000pt" height="192.000000pt" viewBox="0 0 192.000000 192.000000"
 preserveAspectRatio="xMidYMid meet">
<metadata>
Created by potrace 1.16, written by Peter Selinger 2001-2019
</metadata>
<g transform="translate(0.000000,192.000000) scale(0.100000,-0.100000)"
fill="#000000" stroke="none">
811 c445 -92 729 -532 635 -987 -62 -301 -295 -546 -601 -630 -91 -26 -329
-26 -420 0 -291 80 -516 305 -596 596 -26 91 -26 329 0 420 120 433 542 692
982 601z"/>
<path d="M642 1378 c-7 -7 -12 -17 -12 -23 0 -5 -10 -15 -22 -20 -31 -14 -37
-55 -9 -62 20 -5 21 -12 21 -178 0 -164 -1 -173 -20 -178 -26 -7 -26 -43 0
-59 18 -12 20 -24 20 -138 0 -134 10 -173 47 -178 45 -7 53 19 53 169 l0 139
293 0 c160 0 298 4 306 9 17 11 15 19 -36 156 l-30 80 39 104 c43 117 44 126
22 135 -9 3 -146 6 -305 6 -171 0 -289 4 -289 9 0 16 -30 41 -49 41 -9 0 -22
-5 -29 -12z m108 -283 c0 -149 -2 -175 -15 -175 -13 0 -15 26 -15 175 0 149 2
175 15 175 13 0 15 -26 15 -175z"/>
</g>
</svg>
