<?xml version="1.0" standalone="no"?>
<!DOCTYPE svg PUBLIC "-//W3C//DTD SVG 20010904//EN"
 "http://www.w3.org/TR/2001/REC-SVG-20010904/DTD/svg10.dtd">
<svg version="1.0" xmlns="http://www.w3.org/2000/svg"
 width="192.000000pt" height="192.000000pt" viewBox="0 0 192.000000 192.000000"
 preserveAspectRatio="xMidYMid meet">
<metadata>
Created by potrace 1.16, written by Peter Selinger 2001-2019
</metadata>
<g transform="translate(0.000000,192.000000) scale(0.100000,-0.100000)"
fill="#000000" stroke="none">
811 c445 -92 729 -532 635 -987 -62 -301 -295 -546 -601 -630 -91 -26 -329
-26 -420 0 -291 80 -516 305 -596 596 -26 91 -26 329 0 420 120 433 542 692
982 601z"/>
<path d="M829 1337 c-116 -40 -193 -108 -247 -217 -25 -50 -27 -65 -27 -170 0
-108 2 -119 30 -175 36 -71 70 -94 115 -75 16 6 33 24 40 39 9 23 7 36 -15 82
-34 77 -41 134 -22 200 54 183 281 251 423 126 67 -59 89 -107 89 -197 0 -58
-5 -84 -23 -117 -30 -57 -29 -96 4 -122 36 -28 60 -26 93 7 56 56 90 197 72
297 -25 135 -105 241 -226 301 -62 31 -86 37 -157 40 -69 4 -94 1 -149 -19z"/>
<path d="M880 1149 c-117 -47 -170 -190 -110 -299 74 -132 258 -148 351 -30
83 105 50 253 -71 317 -46 25 -124 30 -170 12z m158 -33 c36 -19 78 -65 91
-99 14 -35 14 -107 1 -127 -7 -11 -10 -7 -10 18 0 30 -24 92 -35 92 -3 0 -18
-14 -33 -30 -23 -26 -39 -33 -107 -44 -91 -14 -123 -28 -135 -59 -8 -21 -9
-20 -24 15 -19 43 -20 69 -6 120 13 47 49 90 92 111 41 20 130 22 166 3z m51
-212 c-15 -18 -28 -18 -36 2 -8 20 17 36 34 22 10 -8 10 -14 2 -24z"/>
</g>
</svg>
