<?xml version="1.0" standalone="no"?>
<!DOCTYPE svg PUBLIC "-//W3C//DTD SVG 20010904//EN"
 "http://www.w3.org/TR/2001/REC-SVG-20010904/DTD/svg10.dtd">
<svg version="1.0" xmlns="http://www.w3.org/2000/svg"
 width="192.000000pt" height="192.000000pt" viewBox="0 0 192.000000 192.000000"
 preserveAspectRatio="xMidYMid meet">
<metadata>
Created by potrace 1.16, written by Peter Selinger 2001-2019
</metadata>
<g transform="translate(0.000000,192.000000) scale(0.100000,-0.100000)"
fill="#000000" stroke="none">
811 c445 -92 729 -532 635 -987 -62 -301 -295 -546 -601 -630 -91 -26 -329
-26 -420 0 -291 80 -516 305 -596 596 -26 91 -26 329 0 420 120 433 542 692
982 601z"/>
<path d="M887 1370 c-80 -20 -149 -70 -203 -146 -99 -139 -99 -379 0 -518 130
-182 353 -204 499 -47 76 82 117 188 117 306 0 213 -142 394 -320 409 -30 3
-72 1 -93 -4z m234 -540 c34 -19 25 -67 -24 -115 -91 -92 -234 -80 -312 24
-30 42 -31 55 -5 81 18 18 33 20 171 20 84 0 159 -5 170 -10z"/>
</g>
</svg>
