<?xml version="1.0" standalone="no"?>
<!DOCTYPE svg PUBLIC "-//W3C//DTD SVG 20010904//EN"
 "http://www.w3.org/TR/2001/REC-SVG-20010904/DTD/svg10.dtd">
<svg version="1.0" xmlns="http://www.w3.org/2000/svg"
 width="192.000000pt" height="192.000000pt" viewBox="0 0 192.000000 192.000000"
 preserveAspectRatio="xMidYMid meet">
<metadata>
Created by potrace 1.16, written by Peter Selinger 2001-2019
</metadata>
<g transform="translate(0.000000,192.000000) scale(0.100000,-0.100000)"
fill="#000000" stroke="none">
811 c445 -92 729 -532 635 -987 -62 -301 -295 -546 -601 -630 -91 -26 -329
-26 -420 0 -291 80 -516 305 -596 596 -26 91 -26 329 0 420 120 433 542 692
982 601z"/>
<path d="M653 1330 c-12 -5 -26 -18 -32 -29 -15 -27 -15 -645 0 -672 23 -45
96 -40 118 7 7 17 11 114 11 294 l0 270 253 0 c252 0 254 0 275 23 27 29 28
57 3 88 l-19 24 -294 2 c-161 1 -303 -2 -315 -7z"/>
<path d="M835 1125 c-14 -13 -25 -33 -25 -45 0 -11 11 -32 25 -45 24 -25 27
-25 189 -25 91 0 176 4 190 10 47 17 47 97 1 118 -17 8 -86 12 -191 12 -162 0
-165 0 -189 -25z"/>
<path d="M839 921 c-22 -18 -24 -28 -27 -126 -2 -59 -1 -122 3 -141 11 -63 95
-80 124 -25 6 11 11 54 11 95 l0 76 79 0 c94 0 124 17 124 70 0 59 -26 70
-168 70 -106 0 -126 -3 -146 -19z"/>
</g>
</svg>
