<?xml version="1.0" standalone="no"?>
<!DOCTYPE svg PUBLIC "-//W3C//DTD SVG 20010904//EN"
 "http://www.w3.org/TR/2001/REC-SVG-20010904/DTD/svg10.dtd">
<svg version="1.0" xmlns="http://www.w3.org/2000/svg"
 width="192.000000pt" height="192.000000pt" viewBox="0 0 192.000000 192.000000"
 preserveAspectRatio="xMidYMid meet">
<metadata>
Created by potrace 1.16, written by Peter Selinger 2001-2019
</metadata>
<g transform="translate(0.000000,192.000000) scale(0.100000,-0.100000)"
fill="#000000" stroke="none">
811 c445 -92 729 -532 635 -987 -62 -301 -295 -546 -601 -630 -91 -26 -329
-26 -420 0 -291 80 -516 305 -596 596 -26 91 -26 329 0 420 120 433 542 692
982 601z"/>
<path d="M720 1347 c-49 -16 -133 -102 -148 -153 -8 -27 -12 -120 -12 -271 0
-216 1 -231 20 -248 12 -11 27 -15 42 -11 13 3 78 70 147 150 l124 145 52 -44
c50 -43 78 -53 101 -37 5 4 51 56 102 115 l92 108 0 -166 c0 -253 5 -248 -278
-255 -187 -5 -205 -7 -218 -24 -18 -25 -18 -37 0 -62 13 -18 28 -19 218 -19
220 0 240 4 305 59 17 14 42 48 55 74 22 45 23 59 26 290 3 213 2 246 -13 268
-36 55 -75 22 -295 -244 l-28 -34 -51 46 c-79 70 -76 71 -216 -93 l-80 -94 -3
148 c-3 163 6 199 61 239 26 19 45 21 247 24 204 3 219 4 236 23 17 19 17 23
3 47 l-15 27 -219 2 c-138 1 -233 -3 -255 -10z"/>
</g>
</svg>
