<?xml version="1.0" standalone="no"?>
<!DOCTYPE svg PUBLIC "-//W3C//DTD SVG 20010904//EN"
 "http://www.w3.org/TR/2001/REC-SVG-20010904/DTD/svg10.dtd">
<svg version="1.0" xmlns="http://www.w3.org/2000/svg"
 width="192.000000pt" height="192.000000pt" viewBox="0 0 192.000000 192.000000"
 preserveAspectRatio="xMidYMid meet">
<metadata>
Created by potrace 1.16, written by Peter Selinger 2001-2019
</metadata>
<g transform="translate(0.000000,192.000000) scale(0.100000,-0.100000)"
fill="#000000" stroke="none">
811 c445 -92 729 -532 635 -987 -62 -301 -295 -546 -601 -630 -91 -26 -329
-26 -420 0 -291 80 -516 305 -596 596 -26 91 -26 329 0 420 120 433 542 692
982 601z"/>
<path d="M606 1298 c-14 -19 -16 -68 -16 -330 0 -175 4 -318 10 -332 l10 -26
214 0 c203 0 216 1 226 19 13 24 13 141 0 161 -7 11 -37 16 -127 20 l-118 5 0
150 0 150 240 5 c132 3 246 9 253 13 16 11 17 158 0 175 -9 9 -99 12 -344 12
-333 0 -333 0 -348 -22z"/>
<path d="M863 1063 c-18 -7 -18 -177 0 -191 7 -6 64 -13 128 -14 l114 -3 5
-112 c3 -62 10 -117 16 -123 7 -7 44 -10 95 -8 l84 3 3 215 c2 193 1 216 -15
227 -12 10 -72 13 -217 12 -111 0 -207 -3 -213 -6z"/>
</g>
</svg>
