<?xml version="1.0" standalone="no"?>
<!DOCTYPE svg PUBLIC "-//W3C//DTD SVG 20010904//EN"
 "http://www.w3.org/TR/2001/REC-SVG-20010904/DTD/svg10.dtd">
<svg version="1.0" xmlns="http://www.w3.org/2000/svg"
 width="192.000000pt" height="192.000000pt" viewBox="0 0 192.000000 192.000000"
 preserveAspectRatio="xMidYMid meet">
<metadata>
Created by potrace 1.16, written by Peter Selinger 2001-2019
</metadata>
<g transform="translate(0.000000,192.000000) scale(0.100000,-0.100000)"
fill="#000000" stroke="none">
811 c445 -92 729 -532 635 -987 -62 -301 -295 -546 -601 -630 -91 -26 -329
-26 -420 0 -291 80 -516 305 -596 596 -26 91 -26 329 0 420 120 433 542 692
982 601z"/>
<path d="M893 1369 c-120 -16 -247 -107 -303 -218 -57 -114 -62 -227 -14 -347
15 -38 24 -81 24 -115 0 -30 5 -60 12 -67 7 -7 37 -12 67 -12 34 0 77 -9 115
-24 161 -64 328 -31 448 88 158 157 162 408 9 569 -95 100 -222 145 -358 126z
m75 -331 l53 -39 64 45 c65 47 95 57 95 31 0 -20 -122 -225 -134 -225 -5 0
-40 18 -78 40 -39 22 -74 40 -80 40 -5 0 -36 -20 -68 -45 -59 -45 -90 -56 -90
-31 0 11 60 102 137 204 27 36 24 36 101 -20z"/>
</g>
</svg>
