<?xml version="1.0" standalone="no"?>
<!DOCTYPE svg PUBLIC "-//W3C//DTD SVG 20010904//EN"
 "http://www.w3.org/TR/2001/REC-SVG-20010904/DTD/svg10.dtd">
<svg version="1.0" xmlns="http://www.w3.org/2000/svg"
 width="192.000000pt" height="192.000000pt" viewBox="0 0 192.000000 192.000000"
 preserveAspectRatio="xMidYMid meet">
<metadata>
Created by potrace 1.16, written by Peter Selinger 2001-2019
</metadata>
<g transform="translate(0.000000,192.000000) scale(0.100000,-0.100000)"
fill="#000000" stroke="none">
811 c445 -92 729 -532 635 -987 -62 -301 -295 -546 -601 -630 -91 -26 -329
-26 -420 0 -291 80 -516 305 -596 596 -26 91 -26 329 0 420 120 433 542 692
982 601z"/>
<path d="M851 1364 c-221 -59 -355 -284 -296 -499 33 -125 111 -216 232 -273
52 -24 69 -27 168 -27 104 0 114 2 176 32 162 80 259 262 229 431 -30 175
-161 310 -329 342 -71 13 -114 12 -180 -6z m150 -164 c19 -5 48 -24 64 -40 25
-26 29 -38 30 -90 0 -32 4 -62 8 -66 15 -15 6 -49 -33 -130 -39 -80 -40 -84
-26 -118 12 -28 23 -37 55 -46 22 -6 43 -15 46 -20 10 -16 -93 -58 -155 -66
-80 -9 -230 33 -230 64 0 4 22 15 50 25 42 15 50 22 55 50 6 31 -13 89 -50
158 -11 19 -13 47 -8 113 5 75 10 93 32 118 43 52 94 67 162 48z"/>
</g>
</svg>
