<?xml version="1.0" standalone="no"?>
<!DOCTYPE svg PUBLIC "-//W3C//DTD SVG 20010904//EN"
 "http://www.w3.org/TR/2001/REC-SVG-20010904/DTD/svg10.dtd">
<svg version="1.0" xmlns="http://www.w3.org/2000/svg"
 width="192.000000pt" height="192.000000pt" viewBox="0 0 192.000000 192.000000"
 preserveAspectRatio="xMidYMid meet">
<metadata>
Created by potrace 1.16, written by Peter Selinger 2001-2019
</metadata>
<g transform="translate(0.000000,192.000000) scale(0.100000,-0.100000)"
fill="#000000" stroke="none">
810 c245 -63 441 -223 549 -451 55 -116 75 -212 75 -354 0 -141 -20 -238 -75
-352 -86 -182 -215 -312 -396 -398 -116 -55 -212 -75 -354 -75 -142 0 -238 20
-354 75 -228 108 -388 304 -451 549 -28 110 -28 292 0 402 76 298 303 526 600
603 106 28 298 28 406 1z"/>
<path d="M652 1284 c-45 -23 -89 -76 -102 -125 -7 -25 -10 -108 -8 -212 3
-198 13 -230 87 -282 l43 -30 283 0 283 0 43 30 c77 54 84 81 84 305 0 220 -4
234 -78 294 l-39 31 -281 3 c-244 2 -286 0 -315 -14z m179 -179 c66 -36 122
-65 124 -65 2 0 58 29 124 65 67 36 130 65 141 65 25 0 44 -34 31 -57 -10 -20
-271 -163 -296 -163 -25 0 -286 143 -296 163 -13 23 6 57 31 57 11 0 74 -29
141 -65z"/>
</g>
</svg>
