<?xml version="1.0" standalone="no"?>
<!DOCTYPE svg PUBLIC "-//W3C//DTD SVG 20010904//EN"
 "http://www.w3.org/TR/2001/REC-SVG-20010904/DTD/svg10.dtd">
<svg version="1.0" xmlns="http://www.w3.org/2000/svg"
 width="192.000000pt" height="192.000000pt" viewBox="0 0 192.000000 192.000000"
 preserveAspectRatio="xMidYMid meet">
<metadata>
Created by potrace 1.16, written by Peter Selinger 2001-2019
</metadata>
<g transform="translate(0.000000,192.000000) scale(0.100000,-0.100000)"
fill="#000000" stroke="none">
811 c445 -92 729 -532 635 -987 -62 -301 -295 -546 -601 -630 -91 -26 -329
-26 -420 0 -291 80 -516 305 -596 596 -26 91 -26 329 0 420 120 433 542 692
982 601z"/>
<path d="M891 1369 c-107 -21 -202 -102 -241 -207 -45 -118 -12 -235 106 -373
29 -35 68 -91 86 -123 47 -84 70 -106 113 -106 41 0 57 15 103 97 18 32 62 95
98 138 92 114 119 172 119 260 -1 125 -68 231 -178 284 -69 33 -140 43 -206
30z m142 -249 c77 -87 -20 -216 -126 -165 -41 19 -61 53 -60 100 3 97 120 139
186 65z"/>
</g>
</svg>
