<?xml version="1.0" standalone="no"?>
<!DOCTYPE svg PUBLIC "-//W3C//DTD SVG 20010904//EN"
 "http://www.w3.org/TR/2001/REC-SVG-20010904/DTD/svg10.dtd">
<svg version="1.0" xmlns="http://www.w3.org/2000/svg"
 width="192.000000pt" height="192.000000pt" viewBox="0 0 192.000000 192.000000"
 preserveAspectRatio="xMidYMid meet">
<metadata>
Created by potrace 1.16, written by Peter Selinger 2001-2019
</metadata>
<g transform="translate(0.000000,192.000000) scale(0.100000,-0.100000)"
fill="#000000" stroke="none">
811 c445 -92 729 -532 635 -987 -62 -301 -295 -546 -601 -630 -91 -26 -329
-26 -420 0 -291 80 -516 305 -596 596 -26 91 -26 329 0 420 120 433 542 692
982 601z"/>
<path d="M695 1321 c-49 -22 -91 -69 -105 -119 -7 -24 -10 -118 -8 -259 l3
-221 30 -43 c56 -79 77 -84 340 -84 263 0 284 5 340 84 l30 43 3 221 c4 240
-1 276 -45 328 -53 62 -83 69 -328 69 -192 0 -225 -3 -260 -19z m504 -59 c65
-35 71 -61 71 -295 0 -213 -5 -244 -43 -276 -13 -10 -15 12 -19 166 -4 160 -7
183 -27 225 -43 90 -125 140 -226 140 -101 0 -183 -50 -226 -140 -20 -42 -23
-65 -27 -225 -4 -154 -6 -176 -19 -166 -38 32 -43 63 -43 276 0 316 -3 313
315 313 185 0 214 -2 244 -18z m-175 -136 c18 -8 45 -29 60 -48 50 -67 47
-145 -10 -207 -137 -152 -373 43 -249 205 46 60 127 80 199 50z"/>
<path d="M864 1017 c-3 -8 -4 -30 -2 -49 2 -28 7 -33 28 -33 23 0 25 4 25 45
0 39 -3 45 -23 48 -13 2 -24 -3 -28 -11z"/>
<path d="M994 1017 c-3 -8 -4 -30 -2 -49 2 -28 7 -33 28 -33 23 0 25 4 25 45
0 39 -3 45 -23 48 -13 2 -24 -3 -28 -11z"/>
</g>
</svg>
