<?xml version="1.0" standalone="no"?>
<!DOCTYPE svg PUBLIC "-//W3C//DTD SVG 20010904//EN"
 "http://www.w3.org/TR/2001/REC-SVG-20010904/DTD/svg10.dtd">
<svg version="1.0" xmlns="http://www.w3.org/2000/svg"
 width="192.000000pt" height="192.000000pt" viewBox="0 0 192.000000 192.000000"
 preserveAspectRatio="xMidYMid meet">
<metadata>
Created by potrace 1.16, written by Peter Selinger 2001-2019
</metadata>
<g transform="translate(0.000000,192.000000) scale(0.100000,-0.100000)"
fill="#000000" stroke="none">
811 c445 -92 729 -532 635 -987 -62 -301 -295 -546 -601 -630 -91 -26 -329
-26 -420 0 -291 80 -516 305 -596 596 -26 91 -26 329 0 420 120 433 542 692
982 601z"/>
<path d="M727 1363 c-14 -25 -99 -374 -94 -387 4 -9 17 -16 31 -16 26 0 27 2
61 123 15 57 16 57 54 57 46 0 70 22 51 45 -7 8 -25 15 -41 15 -33 0 -33 3
-18 66 l11 44 53 0 c56 0 80 15 69 44 -5 13 -22 16 -89 16 -46 0 -86 -3 -88
-7z"/>
<path d="M1123 1358 c-6 -7 -32 -96 -59 -197 -45 -175 -47 -184 -29 -197 37
-27 50 -3 100 190 26 101 45 192 42 200 -8 19 -41 21 -54 4z"/>
<path d="M1211 1347 c-16 -43 -91 -335 -91 -357 0 -24 26 -37 48 -23 23 14
115 373 100 390 -17 20 -48 15 -57 -10z"/>
<path d="M896 1238 c-14 -13 -26 -32 -28 -43 -2 -16 3 -21 30 -23 27 -3 34 1
42 22 5 14 17 26 26 26 12 0 14 -6 9 -32 -10 -45 -9 -45 -56 -51 -23 -3 -51
-14 -62 -25 -22 -22 -49 -115 -40 -137 8 -24 50 -29 78 -11 14 9 25 12 25 6 0
-5 15 -10 34 -10 l33 0 32 118 c36 138 38 158 12 172 -36 19 -107 12 -135 -12z
m50 -155 c-3 -10 -8 -30 -12 -45 -9 -38 -34 -37 -34 1 0 29 22 61 41 61 6 0 8
-8 5 -17z"/>
<path d="M1206 964 c-9 -8 -16 -24 -16 -34 0 -11 -9 -28 -21 -38 -14 -14 -18
-27 -14 -44 4 -15 -5 -66 -20 -122 -33 -120 -29 -136 31 -136 50 0 68 20 41
47 -13 14 -13 24 9 105 13 49 24 91 24 94 0 2 7 4 15 4 21 0 30 27 16 44 -7 8
-9 25 -6 39 4 16 1 30 -10 41 -20 20 -29 20 -49 0z"/>
<path d="M836 839 l-37 -69 50 0 50 0 6 45 c6 35 3 49 -12 68 l-19 25 -38 -69z"/>
<path d="M783 889 c-18 -5 -38 -19 -44 -31 -17 -31 -39 -120 -30 -116 12 4
131 142 131 151 0 9 -16 8 -57 -4z"/>
<path d="M1067 877 c-9 -7 -21 -32 -27 -57 -32 -125 -52 -180 -65 -180 -20 0
-19 10 10 117 28 104 25 126 -14 121 -24 -3 -28 -11 -59 -123 -18 -66 -30
-130 -27 -141 6 -28 37 -35 69 -18 14 7 26 9 26 3 0 -5 15 -9 34 -9 30 0 36 4
45 33 17 57 61 224 61 235 0 20 -36 32 -53 19z"/>
<path d="M809 655 c-40 -53 -70 -98 -67 -100 3 -3 13 4 23 15 10 11 26 20 35
20 27 0 56 41 73 103 8 31 14 57 11 57 -2 0 -36 -43 -75 -95z"/>
<path d="M690 694 c-14 -35 -13 -77 2 -92 16 -16 45 -15 51 1 3 6 14 36 26 65
l21 52 -45 0 c-40 0 -47 -3 -55 -26z"/>
</g>
</svg>
