<?xml version="1.0" standalone="no"?>
<!DOCTYPE svg PUBLIC "-//W3C//DTD SVG 20010904//EN"
 "http://www.w3.org/TR/2001/REC-SVG-20010904/DTD/svg10.dtd">
<svg version="1.0" xmlns="http://www.w3.org/2000/svg"
 width="192.000000pt" height="192.000000pt" viewBox="0 0 192.000000 192.000000"
 preserveAspectRatio="xMidYMid meet">
<metadata>
Created by potrace 1.16, written by Peter Selinger 2001-2019
</metadata>
<g transform="translate(0.000000,192.000000) scale(0.100000,-0.100000)"
fill="#000000" stroke="none">
811 c445 -92 729 -532 635 -987 -62 -301 -295 -546 -601 -630 -91 -26 -329
-26 -420 0 -291 80 -516 305 -596 596 -26 91 -26 329 0 420 120 433 542 692
982 601z"/>
<path d="M1080 1291 c-215 -89 -244 -105 -304 -172 -79 -88 -99 -218 -46 -303
l23 -38 13 24 c12 22 42 46 115 91 14 8 77 38 139 66 63 28 125 61 138 74 27
24 67 105 58 115 -4 3 -52 -14 -109 -37 -175 -73 -197 -81 -197 -72 0 4 68 43
151 86 155 80 183 103 214 178 18 44 19 67 3 66 -7 -1 -96 -36 -198 -78z"/>
<path d="M548 1265 c-42 -39 -45 -45 -23 -45 18 0 82 -55 97 -84 7 -11 22 -55
34 -96 13 -41 23 -70 23 -63 2 37 49 132 83 169 l39 42 -43 37 c-97 83 -153
93 -210 40z"/>
<path d="M869 870 c-51 -27 -99 -77 -99 -104 0 -36 199 -216 239 -216 21 0 21
21 1 50 -32 46 -61 137 -69 215 -7 79 -15 86 -72 55z"/>
</g>
</svg>
