<?xml version="1.0" standalone="no"?>
<!DOCTYPE svg PUBLIC "-//W3C//DTD SVG 20010904//EN"
 "http://www.w3.org/TR/2001/REC-SVG-20010904/DTD/svg10.dtd">
<svg version="1.0" xmlns="http://www.w3.org/2000/svg"
 width="192.000000pt" height="192.000000pt" viewBox="0 0 192.000000 192.000000"
 preserveAspectRatio="xMidYMid meet">
<metadata>
Created by potrace 1.16, written by Peter Selinger 2001-2019
</metadata>
<g transform="translate(0.000000,192.000000) scale(0.100000,-0.100000)"
fill="#000000" stroke="none">
811 c445 -92 729 -532 635 -987 -62 -301 -295 -546 -601 -630 -91 -26 -329
-26 -420 0 -291 80 -516 305 -596 596 -26 91 -26 329 0 420 120 433 542 692
982 601z"/>
<path d="M694 1321 c-48 -22 -87 -69 -104 -126 -8 -27 -10 -109 -8 -250 3
-202 4 -212 28 -253 15 -27 42 -54 70 -70 l45 -27 230 0 230 0 45 27 c28 16
55 43 70 70 24 41 25 51 28 253 4 227 -2 266 -45 324 -49 64 -81 71 -328 71
-194 0 -225 -3 -261 -19z m492 -67 c60 -29 64 -47 64 -295 l0 -221 -34 -34
-34 -34 -186 0 -186 0 0 70 0 70 120 0 120 0 0 80 0 80 -120 0 -120 0 0 80 0
80 120 0 120 0 0 70 0 70 51 0 c28 0 66 -7 85 -16z"/>
</g>
</svg>
