<?xml version="1.0" standalone="no"?>
<!DOCTYPE svg PUBLIC "-//W3C//DTD SVG 20010904//EN"
 "http://www.w3.org/TR/2001/REC-SVG-20010904/DTD/svg10.dtd">
<svg version="1.0" xmlns="http://www.w3.org/2000/svg"
 width="192.000000pt" height="192.000000pt" viewBox="0 0 192.000000 192.000000"
 preserveAspectRatio="xMidYMid meet">
<metadata>
Created by potrace 1.16, written by Peter Selinger 2001-2019
</metadata>
<g transform="translate(0.000000,192.000000) scale(0.100000,-0.100000)"
fill="#000000" stroke="none">
811 c445 -92 729 -532 635 -987 -62 -301 -295 -546 -601 -630 -91 -26 -329
-26 -420 0 -291 80 -516 305 -596 596 -26 91 -26 329 0 420 120 433 542 692
982 601z"/>
<path d="M1077 1340 c-81 -64 1 -193 93 -145 56 29 65 91 21 136 -35 35 -77
38 -114 9z"/>
<path d="M870 1293 c-35 -13 -60 -47 -60 -80 0 -46 13 -68 49 -83 61 -25 121
15 121 80 0 55 -62 101 -110 83z"/>
<path d="M595 1205 c-53 -52 -14 -144 62 -145 76 0 115 89 63 145 -32 34 -91
35 -125 0z"/>
<path d="M1164 1120 c-28 -11 -64 -58 -64 -82 0 -47 50 -98 96 -98 52 0 101
62 89 113 -13 51 -76 86 -121 67z m69 -61 c30 -42 -16 -94 -60 -70 -44 23 -27
91 22 91 13 0 30 -9 38 -21z"/>
<path d="M924 1050 c-58 -23 -70 -95 -25 -141 46 -46 109 -34 138 25 14 29 14
39 3 66 -12 30 -55 61 -82 59 -7 0 -23 -4 -34 -9z"/>
<path d="M660 965 c-53 -56 -13 -145 64 -145 46 0 86 41 86 87 0 75 -98 113
-150 58z"/>
<path d="M1204 846 c-60 -51 -21 -146 58 -146 87 0 119 103 49 157 -26 20 -77
15 -107 -11z"/>
<path d="M985 798 c-52 -30 -62 -99 -20 -138 54 -50 145 -15 145 56 0 46 -9
63 -41 79 -33 18 -57 18 -84 3z"/>
<path d="M747 734 c-53 -29 -61 -91 -18 -135 35 -35 77 -38 114 -9 53 42 39
127 -24 149 -39 14 -38 14 -72 -5z"/>
</g>
</svg>
