<?xml version="1.0" standalone="no"?>
<!DOCTYPE svg PUBLIC "-//W3C//DTD SVG 20010904//EN"
 "http://www.w3.org/TR/2001/REC-SVG-20010904/DTD/svg10.dtd">
<svg version="1.0" xmlns="http://www.w3.org/2000/svg"
 width="192.000000pt" height="192.000000pt" viewBox="0 0 192.000000 192.000000"
 preserveAspectRatio="xMidYMid meet">
<metadata>
Created by potrace 1.16, written by Peter Selinger 2001-2019
</metadata>
<g transform="translate(0.000000,192.000000) scale(0.100000,-0.100000)"
fill="#000000" stroke="none">
811 c445 -92 729 -532 635 -987 -62 -301 -295 -546 -601 -630 -91 -26 -329
-26 -420 0 -291 80 -516 305 -596 596 -26 91 -26 329 0 420 120 433 542 692
982 601z"/>
<path d="M870 1367 c-121 -29 -226 -112 -276 -220 -47 -105 -43 -167 12 -167
26 0 31 8 58 102 28 95 148 198 232 198 24 0 24 -1 24 -104 0 -103 -1 -105
-30 -134 -65 -66 -22 -172 70 -172 33 0 48 6 71 29 16 17 29 40 29 54 0 13 3
38 6 55 5 26 1 36 -25 62 -18 18 -31 42 -31 56 0 22 2 24 23 13 39 -20 76 -61
88 -98 16 -48 27 -61 55 -61 34 0 48 32 33 78 -26 80 -89 146 -167 173 -21 7
-32 18 -32 30 0 25 14 24 75 -5 71 -32 140 -112 161 -184 22 -78 27 -87 56
-90 45 -5 55 21 35 94 -54 206 -265 337 -467 291z"/>
<path d="M564 925 c-9 -36 2 -85 36 -153 75 -148 257 -242 415 -213 163 30
281 138 322 293 19 74 11 98 -32 98 -29 0 -38 -13 -53 -75 -23 -91 -82 -160
-172 -203 -44 -21 -69 -26 -130 -26 -83 0 -136 20 -202 74 -37 31 -98 138 -98
172 0 36 -19 58 -50 58 -23 0 -31 -5 -36 -25z"/>
</g>
</svg>
