<?xml version="1.0" standalone="no"?>
<!DOCTYPE svg PUBLIC "-//W3C//DTD SVG 20010904//EN"
 "http://www.w3.org/TR/2001/REC-SVG-20010904/DTD/svg10.dtd">
<svg version="1.0" xmlns="http://www.w3.org/2000/svg"
 width="192.000000pt" height="192.000000pt" viewBox="0 0 192.000000 192.000000"
 preserveAspectRatio="xMidYMid meet">
<metadata>
Created by potrace 1.16, written by Peter Selinger 2001-2019
</metadata>
<g transform="translate(0.000000,192.000000) scale(0.100000,-0.100000)"
fill="#000000" stroke="none">
811 c445 -92 729 -532 635 -987 -62 -301 -295 -546 -601 -630 -91 -26 -329
-26 -420 0 -291 80 -516 305 -596 596 -26 91 -26 329 0 420 120 433 542 692
982 601z"/>
<path d="M833 1355 c-145 -45 -256 -173 -283 -327 -50 -287 238 -536 519 -449
121 37 204 110 258 227 25 53 28 70 28 164 0 92 -4 112 -26 160 -51 107 -149
192 -258 224 -65 19 -180 20 -238 1z m261 -109 c63 -31 120 -89 149 -155 33
-71 30 -189 -6 -258 -15 -29 -43 -69 -63 -89 -40 -39 -125 -84 -161 -84 -20 0
-23 5 -23 44 0 59 6 72 45 96 56 35 67 72 60 207 -8 156 -10 163 -40 163 l-25
0 0 -119 c0 -66 -4 -122 -9 -125 -5 -4 -16 -3 -25 0 -12 5 -16 28 -18 122 -3
111 -4 117 -24 120 -21 3 -22 -2 -26 -113 -4 -118 -15 -152 -40 -126 -9 8 -13
48 -13 124 l0 112 -25 0 c-24 0 -25 -4 -31 -70 -12 -127 -10 -215 5 -243 8
-15 32 -42 55 -60 38 -31 41 -37 41 -82 0 -46 -2 -50 -23 -50 -37 0 -143 57
-176 96 -61 69 -76 110 -76 209 0 102 18 150 84 218 92 97 242 123 365 63z"/>
</g>
</svg>
