<?xml version="1.0" standalone="no"?>
<!DOCTYPE svg PUBLIC "-//W3C//DTD SVG 20010904//EN"
 "http://www.w3.org/TR/2001/REC-SVG-20010904/DTD/svg10.dtd">
<svg version="1.0" xmlns="http://www.w3.org/2000/svg"
 width="192.000000pt" height="192.000000pt" viewBox="0 0 192.000000 192.000000"
 preserveAspectRatio="xMidYMid meet">
<metadata>
Created by potrace 1.16, written by Peter Selinger 2001-2019
</metadata>
<g transform="translate(0.000000,192.000000) scale(0.100000,-0.100000)"
fill="#000000" stroke="none">
811 c445 -92 729 -532 635 -987 -62 -301 -295 -546 -601 -630 -91 -26 -329
-26 -420 0 -291 80 -516 305 -596 596 -26 91 -26 329 0 420 120 433 542 692
982 601z"/>
<path d="M874 1355 c-4 -8 -3 -22 0 -31 4 -10 -7 -31 -29 -57 -40 -46 -65
-118 -65 -187 0 -51 -13 -70 -46 -70 -25 0 -39 15 -48 52 -7 30 -40 44 -75 33
-27 -8 -34 -36 -21 -84 18 -69 108 -126 169 -106 21 6 21 3 21 -114 0 -118 1
-121 25 -137 21 -14 31 -15 50 -6 22 10 25 18 25 66 0 35 5 58 15 66 27 22 35
0 35 -99 0 -62 4 -101 12 -109 16 -16 63 -15 76 1 6 7 13 58 14 113 3 91 5 99
23 99 18 0 20 -8 23 -99 1 -55 8 -106 14 -113 13 -16 60 -17 76 -1 8 8 12 47
12 110 0 80 3 100 15 105 23 8 27 0 30 -64 5 -79 42 -106 85 -63 19 19 20 33
20 243 0 255 -8 297 -66 365 -28 33 -33 46 -25 56 26 31 -26 65 -56 35 -7 -7
-28 -7 -71 2 -48 10 -71 10 -117 0 -41 -9 -60 -10 -68 -2 -16 16 -47 14 -53
-4z m303 -197 c28 -26 30 -71 4 -97 -24 -24 -93 -35 -179 -28 -56 4 -70 9 -90
32 -27 32 -24 69 10 98 16 14 40 17 126 17 95 0 108 -2 129 -22z"/>
<path d="M960 1105 c0 -18 5 -25 20 -25 15 0 20 7 20 25 0 18 -5 25 -20 25
-15 0 -20 -7 -20 -25z"/>
<path d="M1100 1105 c0 -20 4 -26 18 -23 9 2 17 12 17 23 0 11 -8 21 -17 23
-14 3 -18 -3 -18 -23z"/>
</g>
</svg>
