<?xml version="1.0" standalone="no"?>
<!DOCTYPE svg PUBLIC "-//W3C//DTD SVG 20010904//EN"
 "http://www.w3.org/TR/2001/REC-SVG-20010904/DTD/svg10.dtd">
<svg version="1.0" xmlns="http://www.w3.org/2000/svg"
 width="192.000000pt" height="192.000000pt" viewBox="0 0 192.000000 192.000000"
 preserveAspectRatio="xMidYMid meet">
<metadata>
Created by potrace 1.16, written by Peter Selinger 2001-2019
</metadata>
<g transform="translate(0.000000,192.000000) scale(0.100000,-0.100000)"
fill="#000000" stroke="none">
811 c445 -92 729 -532 635 -987 -62 -301 -295 -546 -601 -630 -91 -26 -329
-26 -420 0 -291 80 -516 305 -596 596 -26 91 -26 329 0 420 120 433 542 692
982 601z"/>
<path d="M685 1321 c-47 -22 -89 -64 -104 -104 -6 -16 -11 -105 -11 -208 l0
-180 21 12 c30 16 101 6 137 -20 60 -43 75 -139 30 -196 -17 -21 -17 -26 -5
-31 9 -3 105 -4 214 -2 224 3 251 10 307 81 l31 39 3 246 3 247 -29 46 c-20
31 -44 53 -74 68 -41 20 -60 21 -264 21 -192 0 -224 -3 -259 -19z m255 -91
c-7 -14 -7 -26 -1 -39 23 -42 61 -34 113 25 24 27 38 34 67 34 21 0 45 -6 54
-12 15 -12 13 -17 -19 -58 -72 -94 -80 -140 -24 -140 21 0 37 11 64 43 l36 42
0 -178 c0 -197 -6 -224 -60 -252 -73 -38 -79 -4 -15 89 50 74 55 98 24 120
-30 20 -50 10 -103 -56 -68 -84 -111 -100 -142 -53 -21 32 -14 50 56 144 32
43 61 88 64 99 9 26 -7 58 -35 73 -33 17 -70 -5 -133 -82 -31 -38 -67 -75 -81
-81 -35 -16 -71 -3 -85 32 -12 28 -10 35 22 88 46 75 50 87 36 117 -14 31 -50
42 -86 26 l-27 -11 28 25 c27 24 34 25 143 25 112 0 114 -1 104 -20z m230
-125 c0 -8 -7 -15 -15 -15 -8 0 -15 7 -15 15 0 8 7 15 15 15 8 0 15 -7 15 -15z"/>
<path d="M564 786 c-28 -28 -34 -41 -34 -78 0 -50 18 -82 60 -103 59 -31 126
-10 154 49 20 42 20 69 2 105 -21 39 -58 61 -107 61 -33 0 -47 -6 -75 -34z
m64 -50 c3 -22 6 -25 18 -15 8 6 14 20 14 30 0 11 7 19 15 19 18 0 21 -45 4
-56 -8 -4 -8 -9 0 -17 14 -14 14 -57 1 -57 -6 0 -13 8 -17 18 -3 9 -11 23 -17
31 -9 11 -12 9 -16 -14 -3 -16 -11 -30 -17 -33 -10 -3 -13 14 -13 63 0 49 3
66 13 63 6 -3 13 -17 15 -32z"/>
</g>
</svg>
