<?xml version="1.0" standalone="no"?>
<!DOCTYPE svg PUBLIC "-//W3C//DTD SVG 20010904//EN"
 "http://www.w3.org/TR/2001/REC-SVG-20010904/DTD/svg10.dtd">
<svg version="1.0" xmlns="http://www.w3.org/2000/svg"
 width="192.000000pt" height="192.000000pt" viewBox="0 0 192.000000 192.000000"
 preserveAspectRatio="xMidYMid meet">
<metadata>
Created by potrace 1.16, written by Peter Selinger 2001-2019
</metadata>
<g transform="translate(0.000000,192.000000) scale(0.100000,-0.100000)"
fill="#000000" stroke="none">
811 c445 -92 729 -532 635 -987 -62 -301 -295 -546 -601 -630 -91 -26 -329
-26 -420 0 -291 80 -516 305 -596 596 -26 91 -26 329 0 420 120 433 542 692
982 601z"/>
<path d="M557 1083 c-4 -3 -7 -58 -7 -120 l0 -114 33 3 c30 3 32 6 35 46 3 39
5 42 33 42 24 0 29 -4 29 -25 0 -65 97 -100 147 -53 l23 21 23 -21 c20 -19 34
-21 194 -22 165 0 173 0 183 21 l12 21 22 -21 c22 -21 56 -28 69 -14 4 3 -4
21 -18 39 -31 40 -31 45 0 74 13 12 22 27 19 31 -9 15 -46 10 -66 -8 -17 -15
-19 -15 -36 0 -12 11 -41 17 -92 19 -59 2 -75 6 -75 18 0 10 12 16 38 18 32 3
37 7 37 28 l0 25 -92 -3 -93 -3 -3 -42 c-3 -41 -4 -41 -36 -36 -25 4 -39 -1
-61 -19 l-28 -24 -23 23 c-27 27 -79 31 -111 8 -14 -10 -24 -12 -28 -5 -3 5
-19 10 -36 10 -22 0 -29 5 -29 20 0 16 7 20 34 20 38 0 49 10 40 34 -5 12 -21
16 -68 16 -35 0 -66 -3 -69 -7z m646 -128 l28 -34 -35 -38 -35 -38 -1 27 c0
24 -4 27 -37 30 -30 2 -38 7 -38 23 0 16 8 21 38 23 29 3 37 7 37 23 0 27 11
23 43 -16z m-413 5 c0 -5 -12 -10 -26 -10 -14 0 -23 4 -19 10 3 6 15 10 26 10
10 0 19 -4 19 -10z m180 -34 c0 -28 -22 -49 -43 -40 -22 8 -27 39 -10 63 11
17 18 19 34 11 10 -6 19 -21 19 -34z m-120 -25 c0 -4 -21 -11 -47 -15 -35 -5
-51 -2 -62 9 -14 13 -9 15 47 15 34 0 62 -4 62 -9z"/>
</g>
</svg>
