<?xml version="1.0" standalone="no"?>
<!DOCTYPE svg PUBLIC "-//W3C//DTD SVG 20010904//EN"
 "http://www.w3.org/TR/2001/REC-SVG-20010904/DTD/svg10.dtd">
<svg version="1.0" xmlns="http://www.w3.org/2000/svg"
 width="192.000000pt" height="192.000000pt" viewBox="0 0 192.000000 192.000000"
 preserveAspectRatio="xMidYMid meet">
<metadata>
Created by potrace 1.16, written by Peter Selinger 2001-2019
</metadata>
<g transform="translate(0.000000,192.000000) scale(0.100000,-0.100000)"
fill="#000000" stroke="none">
811 c445 -92 729 -532 635 -987 -62 -301 -295 -546 -601 -630 -91 -26 -329
-26 -420 0 -291 80 -516 305 -596 596 -26 91 -26 329 0 420 120 433 542 692
982 601z"/>
<path d="M629 1315 c-42 -23 -61 -71 -57 -145 l3 -65 335 -3 c296 -3 339 -1
366 14 48 24 66 67 62 144 l-3 65 -340 2 c-275 2 -345 0 -366 -12z"/>
<path d="M582 1062 c-9 -6 -12 -35 -10 -108 l3 -99 238 0 239 0 34 38 c34 36
35 40 32 105 l-3 67 -260 2 c-143 2 -266 -1 -273 -5z"/>
<path d="M574 807 c-3 -8 -4 -54 -2 -103 l3 -89 117 -3 c171 -4 208 22 208
148 l0 60 -160 0 c-124 0 -162 -3 -166 -13z"/>
</g>
</svg>
