<?xml version="1.0" standalone="no"?>
<!DOCTYPE svg PUBLIC "-//W3C//DTD SVG 20010904//EN"
 "http://www.w3.org/TR/2001/REC-SVG-20010904/DTD/svg10.dtd">
<svg version="1.0" xmlns="http://www.w3.org/2000/svg"
 width="192.000000pt" height="192.000000pt" viewBox="0 0 192.000000 192.000000"
 preserveAspectRatio="xMidYMid meet">
<metadata>
Created by potrace 1.16, written by Peter Selinger 2001-2019
</metadata>
<g transform="translate(0.000000,192.000000) scale(0.100000,-0.100000)"
fill="#000000" stroke="none">
811 c445 -92 729 -532 635 -987 -62 -301 -295 -546 -601 -630 -91 -26 -329
-26 -420 0 -291 80 -516 305 -596 596 -26 91 -26 329 0 420 120 433 542 692
982 601z"/>
<path d="M870 1366 c-123 -27 -226 -109 -282 -224 -31 -63 -33 -73 -33 -177 0
-104 2 -114 32 -176 39 -79 121 -160 196 -194 198 -91 440 -8 537 184 56 113
56 222 -2 236 -13 3 -86 6 -163 8 l-140 2 -2 140 c-3 175 -5 183 -48 201 -19
8 -36 14 -37 13 -2 0 -28 -6 -58 -13z"/>
</g>
</svg>
