<?xml version="1.0" standalone="no"?>
<!DOCTYPE svg PUBLIC "-//W3C//DTD SVG 20010904//EN"
 "http://www.w3.org/TR/2001/REC-SVG-20010904/DTD/svg10.dtd">
<svg version="1.0" xmlns="http://www.w3.org/2000/svg"
 width="192.000000pt" height="192.000000pt" viewBox="0 0 192.000000 192.000000"
 preserveAspectRatio="xMidYMid meet">
<metadata>
Created by potrace 1.16, written by Peter Selinger 2001-2019
</metadata>
<g transform="translate(0.000000,192.000000) scale(0.100000,-0.100000)"
fill="#000000" stroke="none">
811 c445 -92 729 -532 635 -987 -62 -301 -295 -546 -601 -630 -91 -26 -329
-26 -420 0 -291 80 -516 305 -596 596 -26 91 -26 329 0 420 120 433 542 692
982 601z"/>
<path d="M718 1152 c-194 -194 -198 -198 -198 -239 0 -38 6 -49 63 -109 34
-37 101 -102 149 -146 l88 -78 133 0 c131 0 135 1 173 28 63 47 260 257 268
285 4 17 1 38 -8 55 -8 15 -99 111 -203 215 -181 179 -191 187 -228 187 -38 0
-48 -8 -237 -198z m145 -144 c-82 -82 -135 -128 -149 -128 -11 0 -31 11 -45
26 l-23 25 137 136 137 137 35 -34 35 -34 -127 -128z m95 -51 l32 -33 -79 -77
c-43 -42 -83 -77 -89 -77 -15 0 -62 40 -62 53 0 11 149 167 160 167 3 0 21
-15 38 -33z m-1 -199 c29 -27 29 -52 1 -72 -31 -22 -51 -20 -78 9 l-24 25 29
30 c34 36 42 37 72 8z"/>
</g>
</svg>
