<?xml version="1.0" standalone="no"?>
<!DOCTYPE svg PUBLIC "-//W3C//DTD SVG 20010904//EN"
 "http://www.w3.org/TR/2001/REC-SVG-20010904/DTD/svg10.dtd">
<svg version="1.0" xmlns="http://www.w3.org/2000/svg"
 width="192.000000pt" height="192.000000pt" viewBox="0 0 192.000000 192.000000"
 preserveAspectRatio="xMidYMid meet">
<metadata>
Created by potrace 1.16, written by Peter Selinger 2001-2019
</metadata>
<g transform="translate(0.000000,192.000000) scale(0.100000,-0.100000)"
fill="#000000" stroke="none">
811 c445 -92 729 -532 635 -987 -62 -301 -295 -546 -601 -630 -91 -26 -329
-26 -420 0 -291 80 -516 305 -596 596 -26 91 -26 329 0 420 120 433 542 692
982 601z"/>
<path d="M1270 1365 c-20 -11 -76 -14 -260 -15 -169 -1 -246 -5 -273 -14 -59
-22 -107 -64 -133 -120 -23 -50 -24 -58 -24 -309 0 -284 3 -303 60 -332 37
-19 185 -20 218 -1 43 23 62 65 62 138 l0 67 40 11 c82 22 150 110 150 195 0
42 2 45 27 45 41 0 110 38 143 78 54 66 81 220 44 256 -19 19 -22 19 -54 1z
m-211 -417 c-10 -36 -51 -83 -91 -104 -20 -10 -69 -14 -189 -14 l-162 0 7 67
c4 36 9 70 12 75 3 4 101 8 219 8 l214 0 -10 -32z"/>
</g>
</svg>
