<?xml version="1.0" standalone="no"?>
<!DOCTYPE svg PUBLIC "-//W3C//DTD SVG 20010904//EN"
 "http://www.w3.org/TR/2001/REC-SVG-20010904/DTD/svg10.dtd">
<svg version="1.0" xmlns="http://www.w3.org/2000/svg"
 width="192.000000pt" height="192.000000pt" viewBox="0 0 192.000000 192.000000"
 preserveAspectRatio="xMidYMid meet">
<metadata>
Created by potrace 1.16, written by Peter Selinger 2001-2019
</metadata>
<g transform="translate(0.000000,192.000000) scale(0.100000,-0.100000)"
fill="#000000" stroke="none">
811 c445 -92 729 -532 635 -987 -62 -301 -295 -546 -601 -630 -91 -26 -329
-26 -420 0 -291 80 -516 305 -596 596 -26 91 -26 329 0 420 120 433 542 692
982 601z"/>
<path d="M917 1323 c-13 -21 -49 -82 -81 -135 -31 -54 -61 -100 -65 -103 -5
-3 -46 16 -91 41 -84 47 -121 52 -134 18 -9 -22 33 -355 47 -376 7 -10 77 -57
157 -104 205 -123 199 -122 400 -4 85 51 159 95 163 100 5 4 19 88 31 186 32
245 24 257 -120 179 -69 -38 -88 -45 -95 -34 -5 8 -43 71 -85 142 -41 70 -82
127 -89 127 -8 0 -25 -17 -38 -37z"/>
</g>
</svg>
