<?xml version="1.0" standalone="no"?>
<!DOCTYPE svg PUBLIC "-//W3C//DTD SVG 20010904//EN"
 "http://www.w3.org/TR/2001/REC-SVG-20010904/DTD/svg10.dtd">
<svg version="1.0" xmlns="http://www.w3.org/2000/svg"
 width="192.000000pt" height="192.000000pt" viewBox="0 0 192.000000 192.000000"
 preserveAspectRatio="xMidYMid meet">
<metadata>
Created by potrace 1.16, written by Peter Selinger 2001-2019
</metadata>
<g transform="translate(0.000000,192.000000) scale(0.100000,-0.100000)"
fill="#000000" stroke="none">
811 c445 -92 729 -532 635 -987 -62 -301 -295 -546 -601 -630 -91 -26 -329
-26 -420 0 -291 80 -516 305 -596 596 -26 91 -26 329 0 420 120 433 542 692
982 601z"/>
<path d="M475 1058 c-3 -13 -5 -63 -3 -113 3 -89 3 -90 28 -90 24 0 25 2 28
83 l3 82 72 0 c80 0 101 8 95 36 -3 17 -15 19 -110 22 -105 3 -108 2 -113 -20z"/>
<path d="M727 1073 c-4 -3 -7 -55 -7 -115 l0 -109 113 3 112 3 0 65 0 65 -65
0 c-55 0 -65 -3 -68 -19 -5 -23 14 -36 51 -36 17 0 27 -5 27 -15 0 -12 -13
-15 -60 -15 l-60 0 0 60 0 60 79 0 c82 0 110 13 97 45 -4 12 -26 15 -109 15
-57 0 -107 -3 -110 -7z"/>
<path d="M964 1065 c-9 -24 15 -45 52 -45 l33 0 3 -82 c3 -72 6 -83 22 -86 28
-6 36 15 36 96 0 72 0 72 28 72 36 0 55 13 50 36 -3 17 -15 19 -111 22 -89 2
-108 0 -113 -13z"/>
<path d="M1212 1068 c-18 -18 -15 -103 4 -122 11 -12 36 -16 90 -16 59 0 74
-3 74 -15 0 -12 -16 -15 -84 -15 -61 0 -85 -4 -89 -13 -12 -32 8 -38 119 -35
l109 3 3 44 c6 88 3 91 -93 91 -69 0 -85 3 -85 15 0 12 15 15 79 15 58 0 82 4
91 15 10 12 10 18 0 30 -16 19 -199 22 -218 3z"/>
<path d="M557 992 c-19 -21 -22 -59 -7 -82 8 -12 18 -7 56 31 26 26 44 52 40
58 -11 18 -71 13 -89 -7z"/>
</g>
</svg>
