<?xml version="1.0" standalone="no"?>
<!DOCTYPE svg PUBLIC "-//W3C//DTD SVG 20010904//EN"
 "http://www.w3.org/TR/2001/REC-SVG-20010904/DTD/svg10.dtd">
<svg version="1.0" xmlns="http://www.w3.org/2000/svg"
 width="192.000000pt" height="192.000000pt" viewBox="0 0 192.000000 192.000000"
 preserveAspectRatio="xMidYMid meet">
<metadata>
Created by potrace 1.16, written by Peter Selinger 2001-2019
</metadata>
<g transform="translate(0.000000,192.000000) scale(0.100000,-0.100000)"
fill="#000000" stroke="none">
811 c445 -92 729 -532 635 -987 -62 -301 -295 -546 -601 -630 -91 -26 -329
-26 -420 0 -291 80 -516 305 -596 596 -26 91 -26 329 0 420 120 433 542 692
982 601z"/>
<path d="M700 1297 c-49 -16 -104 -75 -119 -128 -8 -31 -11 -121 -9 -299 l3
-255 73 -3 c46 -2 79 2 88 9 10 8 14 35 14 89 0 100 5 104 129 110 l96 5 0 80
0 80 -112 3 -113 3 0 54 c0 76 25 95 126 95 106 0 104 -1 104 91 l0 79 -122
-1 c-68 -1 -139 -6 -158 -12z"/>
<path d="M1079 1281 c-55 -56 -26 -159 50 -176 41 -9 96 17 115 54 25 47 20
79 -18 117 -46 46 -104 48 -147 5z"/>
<path d="M1063 974 c-12 -33 4 -199 24 -245 32 -72 110 -119 199 -119 45 0 54
16 54 97 l0 73 -37 17 c-48 23 -63 53 -63 131 l0 62 -85 0 c-69 0 -87 -3 -92
-16z"/>
</g>
</svg>
