<?xml version="1.0" standalone="no"?>
<!DOCTYPE svg PUBLIC "-//W3C//DTD SVG 20010904//EN"
 "http://www.w3.org/TR/2001/REC-SVG-20010904/DTD/svg10.dtd">
<svg version="1.0" xmlns="http://www.w3.org/2000/svg"
 width="192.000000pt" height="192.000000pt" viewBox="0 0 192.000000 192.000000"
 preserveAspectRatio="xMidYMid meet">
<metadata>
Created by potrace 1.16, written by Peter Selinger 2001-2019
</metadata>
<g transform="translate(0.000000,192.000000) scale(0.100000,-0.100000)"
fill="#000000" stroke="none">
810 c245 -63 441 -223 549 -451 55 -116 75 -212 75 -354 0 -141 -20 -238 -75
-352 -86 -182 -215 -312 -396 -398 -116 -55 -212 -75 -354 -75 -142 0 -238 20
-354 75 -228 108 -388 304 -451 549 -28 110 -28 292 0 402 76 298 303 526 600
603 106 28 298 28 406 1z"/>
<path d="M870 1369 c-120 -23 -230 -110 -287 -227 -36 -73 -38 -80 -38 -176 0
-89 3 -108 27 -159 40 -85 66 -119 91 -115 29 4 45 34 29 56 -7 9 -26 45 -43
80 -29 59 -31 69 -27 150 5 105 33 166 103 231 73 67 124 86 230 86 80 0 97
-3 149 -30 65 -33 123 -93 158 -163 19 -39 23 -63 23 -137 0 -80 -3 -97 -30
-149 -30 -60 -96 -127 -152 -154 -23 -11 -33 -23 -33 -39 0 -62 85 -37 176 54
234 233 107 631 -221 692 -67 12 -91 12 -155 0z"/>
<path d="M962 1251 c-6 -16 -8 -38 -5 -49 4 -16 -2 -21 -25 -26 -44 -10 -112
-91 -97 -116 3 -6 3 -10 -2 -10 -15 0 -55 -101 -47 -118 7 -16 7 -16 11 1 3 9
9 15 14 12 4 -3 18 14 29 39 12 24 29 51 39 61 18 15 19 14 23 -20 4 -32 -2
-44 -60 -110 -35 -41 -61 -79 -58 -83 3 -5 -10 -33 -30 -63 -19 -30 -41 -77
-50 -106 -8 -28 -21 -57 -29 -63 -24 -20 -17 -30 19 -30 30 0 34 3 40 33 3 18
17 49 31 67 14 19 25 40 25 47 0 14 50 63 64 63 5 0 20 10 33 22 39 36 38 11
-1 -32 -20 -22 -36 -44 -36 -49 0 -19 22 -22 45 -7 14 9 25 12 25 6 0 -20 37
-9 61 18 36 41 60 89 70 144 5 26 13 70 18 97 15 78 27 94 64 87 17 -3 32 -8
33 -9 10 -10 -21 -78 -41 -91 -14 -9 -25 -23 -25 -32 0 -23 29 -29 45 -8 24
33 65 122 65 142 0 33 -85 93 -152 107 -24 5 -26 8 -21 40 7 41 -9 65 -42 65
-16 0 -26 -8 -33 -29z"/>
<path d="M947 642 c-24 -27 -21 -59 8 -78 33 -21 72 -6 81 31 13 52 -53 86
-89 47z"/>
</g>
</svg>
