<?xml version="1.0" standalone="no"?>
<!DOCTYPE svg PUBLIC "-//W3C//DTD SVG 20010904//EN"
 "http://www.w3.org/TR/2001/REC-SVG-20010904/DTD/svg10.dtd">
<svg version="1.0" xmlns="http://www.w3.org/2000/svg"
 width="192.000000pt" height="192.000000pt" viewBox="0 0 192.000000 192.000000"
 preserveAspectRatio="xMidYMid meet">
<metadata>
Created by potrace 1.16, written by Peter Selinger 2001-2019
</metadata>
<g transform="translate(0.000000,192.000000) scale(0.100000,-0.100000)"
fill="#000000" stroke="none">
811 c445 -92 729 -532 635 -987 -62 -301 -295 -546 -601 -630 -91 -26 -329
-26 -420 0 -291 80 -516 305 -596 596 -26 91 -26 329 0 420 120 433 542 692
982 601z"/>
<path d="M870 1361 c-105 -7 -132 -17 -160 -64 -38 -62 -14 -162 45 -189 14
-6 25 -14 25 -18 0 -4 -11 -12 -25 -18 -87 -40 -84 -191 6 -238 l32 -16 -31
-15 c-108 -52 -89 -222 28 -253 48 -13 99 2 136 41 29 30 29 31 34 175 5 144
5 145 22 116 35 -58 125 -79 185 -42 41 25 63 68 63 124 0 36 -6 52 -31 80
-16 19 -39 38 -50 41 -18 6 -17 9 12 23 94 48 102 173 16 234 -26 19 -46 23
-122 24 -49 1 -133 -1 -185 -5z m165 -282 c-11 -6 -32 -25 -47 -42 l-28 -31 0
42 0 42 48 0 c39 -1 44 -2 27 -11z"/>
</g>
</svg>
