<?xml version="1.0" standalone="no"?>
<!DOCTYPE svg PUBLIC "-//W3C//DTD SVG 20010904//EN"
 "http://www.w3.org/TR/2001/REC-SVG-20010904/DTD/svg10.dtd">
<svg version="1.0" xmlns="http://www.w3.org/2000/svg"
 width="192.000000pt" height="192.000000pt" viewBox="0 0 192.000000 192.000000"
 preserveAspectRatio="xMidYMid meet">
<metadata>
Created by potrace 1.16, written by Peter Selinger 2001-2019
</metadata>
<g transform="translate(0.000000,192.000000) scale(0.100000,-0.100000)"
fill="#000000" stroke="none">
811 c445 -92 729 -532 635 -987 -62 -301 -295 -546 -601 -630 -91 -26 -329
-26 -420 0 -291 80 -516 305 -596 596 -26 91 -26 329 0 420 120 433 542 692
982 601z"/>
<path d="M602 1317 c-54 -30 -57 -45 -60 -290 -4 -248 4 -311 43 -363 46 -60
77 -65 391 -62 l281 3 37 29 c68 52 78 91 74 296 l-3 178 -31 39 c-52 65 -79
73 -247 73 l-147 0 -60 55 -60 55 -97 0 c-59 -1 -107 -6 -121 -13z m285 -383
c9 -24 -15 -34 -89 -34 -61 0 -68 -2 -68 -19 0 -15 8 -21 33 -23 20 -2 32 -8
32 -18 0 -10 -12 -16 -32 -18 -32 -3 -33 -5 -33 -48 0 -51 -23 -70 -46 -39
-18 24 -19 186 -2 203 8 8 46 12 105 12 77 0 95 -3 100 -16z m119 1 c4 -10
-10 -33 -36 -61 l-42 -46 37 -38 c37 -38 43 -70 13 -70 -15 0 -118 94 -118
107 0 4 24 34 54 66 53 57 82 70 92 42z"/>
</g>
</svg>
