<?xml version="1.0" standalone="no"?>
<!DOCTYPE svg PUBLIC "-//W3C//DTD SVG 20010904//EN"
 "http://www.w3.org/TR/2001/REC-SVG-20010904/DTD/svg10.dtd">
<svg version="1.0" xmlns="http://www.w3.org/2000/svg"
 width="192.000000pt" height="192.000000pt" viewBox="0 0 192.000000 192.000000"
 preserveAspectRatio="xMidYMid meet">
<metadata>
Created by potrace 1.16, written by Peter Selinger 2001-2019
</metadata>
<g transform="translate(0.000000,192.000000) scale(0.100000,-0.100000)"
fill="#000000" stroke="none">
810 c245 -63 441 -223 549 -451 55 -116 75 -212 75 -354 0 -141 -20 -238 -75
-352 -86 -182 -215 -312 -396 -398 -116 -55 -212 -75 -354 -75 -142 0 -238 20
-354 75 -228 108 -388 304 -451 549 -28 110 -28 292 0 402 76 298 303 526 600
603 106 28 298 28 406 1z"/>
<path d="M596 1269 l-26 -20 0 -290 0 -290 25 -24 24 -25 331 0 c347 0 378 4
394 45 3 9 6 115 6 234 0 206 -1 220 -21 245 l-20 26 -174 0 -174 0 -32 48
c-48 72 -49 72 -185 72 -108 0 -124 -2 -148 -21z m662 -181 c16 -16 15 -33 -4
-52 -11 -12 -35 -16 -88 -16 -86 0 -112 14 -102 53 6 27 7 27 94 27 55 0 92
-4 100 -12z"/>
</g>
</svg>
