<?xml version="1.0" standalone="no"?>
<!DOCTYPE svg PUBLIC "-//W3C//DTD SVG 20010904//EN"
 "http://www.w3.org/TR/2001/REC-SVG-20010904/DTD/svg10.dtd">
<svg version="1.0" xmlns="http://www.w3.org/2000/svg"
 width="192.000000pt" height="192.000000pt" viewBox="0 0 192.000000 192.000000"
 preserveAspectRatio="xMidYMid meet">
<metadata>
Created by potrace 1.16, written by Peter Selinger 2001-2019
</metadata>
<g transform="translate(0.000000,192.000000) scale(0.100000,-0.100000)"
fill="#000000" stroke="none">
810 c245 -63 441 -223 549 -451 55 -116 75 -212 75 -354 0 -141 -20 -238 -75
-352 -86 -182 -215 -312 -396 -398 -116 -55 -212 -75 -354 -75 -142 0 -238 20
-354 75 -228 108 -388 304 -451 549 -28 110 -28 292 0 402 76 298 303 526 600
603 106 28 298 28 406 1z"/>
<path d="M592 1267 c-22 -23 -22 -28 -22 -314 l0 -292 26 -20 c26 -20 38 -21
366 -21 l339 0 24 25 25 24 0 229 c0 295 18 272 -218 272 l-171 0 -38 58 -39
57 -135 3 c-130 2 -136 2 -157 -21z m666 -179 c16 -16 15 -33 -4 -52 -11 -12
-35 -16 -85 -16 -77 0 -109 11 -109 38 0 33 22 42 105 42 50 0 86 -5 93 -12z"/>
</g>
</svg>
