<?xml version="1.0" standalone="no"?>
<!DOCTYPE svg PUBLIC "-//W3C//DTD SVG 20010904//EN"
 "http://www.w3.org/TR/2001/REC-SVG-20010904/DTD/svg10.dtd">
<svg version="1.0" xmlns="http://www.w3.org/2000/svg"
 width="192.000000pt" height="192.000000pt" viewBox="0 0 192.000000 192.000000"
 preserveAspectRatio="xMidYMid meet">
<metadata>
Created by potrace 1.16, written by Peter Selinger 2001-2019
</metadata>
<g transform="translate(0.000000,192.000000) scale(0.100000,-0.100000)"
fill="#000000" stroke="none">
811 c445 -92 729 -532 635 -987 -62 -301 -295 -546 -601 -630 -91 -26 -329
-26 -420 0 -291 80 -516 305 -596 596 -26 91 -26 329 0 420 120 433 542 692
982 601z"/>
<path d="M797 1349 c-113 -59 -102 -229 17 -274 56 -21 104 -14 146 22 88 74
78 198 -20 250 -53 28 -93 28 -143 2z"/>
<path d="M1048 1338 c-7 -21 15 -100 30 -105 17 -7 72 45 72 68 0 10 -15 23
-40 33 -48 19 -57 20 -62 4z"/>
<path d="M1229 1303 c-9 -2 -59 -52 -111 -111 l-95 -107 -134 -39 c-132 -38
-135 -40 -196 -100 l-63 -60 -2 29 c-3 65 5 122 25 169 23 55 16 81 -24 81
-51 0 -97 -157 -79 -269 44 -273 333 -426 582 -309 159 76 256 256 228 426
-11 70 -15 77 -44 77 -38 0 -47 -20 -37 -81 17 -103 -15 -206 -88 -282 -33
-35 -98 -77 -119 -77 -4 0 -6 68 -4 152 l5 151 61 56 c137 124 206 198 206
220 0 12 -13 36 -29 52 -28 27 -45 32 -82 22z m-475 -602 c-3 -3 -19 9 -36 27
l-32 32 29 31 30 30 7 -58 c3 -32 4 -60 2 -62z"/>
</g>
</svg>
