<?xml version="1.0" standalone="no"?>
<!DOCTYPE svg PUBLIC "-//W3C//DTD SVG 20010904//EN"
 "http://www.w3.org/TR/2001/REC-SVG-20010904/DTD/svg10.dtd">
<svg version="1.0" xmlns="http://www.w3.org/2000/svg"
 width="192.000000pt" height="192.000000pt" viewBox="0 0 192.000000 192.000000"
 preserveAspectRatio="xMidYMid meet">
<metadata>
Created by potrace 1.16, written by Peter Selinger 2001-2019
</metadata>
<g transform="translate(0.000000,192.000000) scale(0.100000,-0.100000)"
fill="#000000" stroke="none">
811 c445 -92 729 -532 635 -987 -62 -301 -295 -546 -601 -630 -91 -26 -329
-26 -420 0 -291 80 -516 305 -596 596 -26 91 -26 329 0 420 120 433 542 692
982 601z"/>
<path d="M681 1319 c-28 -15 -54 -38 -72 -68 l-29 -45 0 -233 c0 -174 3 -242
14 -266 17 -43 76 -93 123 -106 49 -14 427 -14 476 0 47 13 106 63 123 106 11
24 14 92 14 264 0 219 -1 233 -22 270 -12 21 -39 51 -61 66 l-40 28 -241 3
c-231 2 -243 2 -285 -19z m279 -73 c0 -23 -4 -25 -39 -23 -66 2 -110 -54 -90
-113 14 -38 60 -64 100 -55 29 7 29 6 29 -39 l0 -46 45 0 c43 0 45 1 39 24 -8
34 20 82 56 94 62 22 131 -34 116 -94 -6 -21 -3 -24 19 -24 l25 0 0 -114 c0
-101 -2 -116 -22 -141 -33 -42 -76 -55 -183 -55 -95 0 -95 0 -95 25 0 22 4 25
34 25 83 0 122 95 61 147 -21 18 -37 24 -62 21 l-33 -4 0 48 0 48 -50 0 -51 0
6 -33 c5 -27 1 -40 -20 -65 -38 -45 -92 -45 -130 0 -21 25 -25 38 -20 65 5 30
4 33 -20 33 l-25 0 0 106 c0 169 25 193 203 194 107 0 107 0 107 -24z"/>
</g>
</svg>
