<?xml version="1.0" standalone="no"?>
<!DOCTYPE svg PUBLIC "-//W3C//DTD SVG 20010904//EN"
 "http://www.w3.org/TR/2001/REC-SVG-20010904/DTD/svg10.dtd">
<svg version="1.0" xmlns="http://www.w3.org/2000/svg"
 width="192.000000pt" height="192.000000pt" viewBox="0 0 192.000000 192.000000"
 preserveAspectRatio="xMidYMid meet">
<metadata>
Created by potrace 1.16, written by Peter Selinger 2001-2019
</metadata>
<g transform="translate(0.000000,192.000000) scale(0.100000,-0.100000)"
fill="#000000" stroke="none">
811 c445 -92 729 -532 635 -987 -62 -301 -295 -546 -601 -630 -91 -26 -329
-26 -420 0 -291 80 -516 305 -596 596 -26 91 -26 329 0 420 120 433 542 692
982 601z"/>
<path d="M936 1349 c-15 -12 -26 -30 -26 -45 0 -31 33 -64 65 -64 14 0 34 9
45 20 11 11 20 31 20 45 0 29 -32 65 -59 65 -10 0 -30 -9 -45 -21z"/>
<path d="M822 1291 c-20 -12 -10 -45 14 -49 25 -4 49 22 40 43 -6 16 -33 20
-54 6z"/>
<path d="M1077 1293 c-16 -16 -3 -33 46 -61 29 -16 59 -37 66 -46 12 -14 11
-16 -9 -16 -13 0 -20 -5 -17 -12 2 -8 23 -13 58 -13 l54 0 3 53 c2 42 0 52
-12 52 -10 0 -16 -9 -16 -22 0 -21 0 -21 -27 4 -51 48 -128 80 -146 61z"/>
<path d="M690 1250 c-11 -11 -20 -31 -20 -45 0 -30 36 -65 67 -65 30 0 63 34
63 65 0 14 -9 34 -20 45 -11 11 -31 20 -45 20 -14 0 -34 -9 -45 -20z"/>
<path d="M657 1127 c-23 -19 -27 -45 -10 -63 16 -15 18 -15 35 6 32 40 12 87
-25 57z"/>
<path d="M874 1057 c-86 -79 -32 -217 86 -217 47 0 80 18 108 60 35 52 26 113
-22 157 -30 28 -43 33 -86 33 -43 0 -56 -5 -86 -33z"/>
<path d="M589 1009 c-27 -27 -21 -66 12 -92 62 -46 134 38 79 93 -26 26 -64
26 -91 -1z"/>
<path d="M1293 998 c-9 -11 -18 -67 -26 -158 -3 -38 28 -38 48 1 24 45 26 162
4 167 -9 1 -20 -3 -26 -10z"/>
<path d="M637 868 c-8 -23 11 -58 32 -58 27 0 33 13 21 44 -10 27 -44 36 -53
14z"/>
<path d="M692 784 c-15 -10 -22 -25 -22 -49 0 -62 71 -87 109 -39 27 34 26 50
-4 79 -28 29 -51 31 -83 9z"/>
<path d="M1190 787 c-18 -9 -26 -22 -28 -46 -7 -67 66 -97 107 -44 43 54 -16
121 -79 90z"/>
<path d="M811 687 c-18 -18 -13 -37 13 -49 31 -14 56 -4 56 21 0 24 -52 45
-69 28z"/>
<path d="M1092 679 c-21 -12 -30 -24 -26 -34 12 -30 84 -10 84 24 0 28 -23 32
-58 10z"/>
<path d="M944 682 c-13 -9 -34 -46 -34 -62 0 -19 48 -60 70 -60 50 0 80 79 42
113 -19 18 -59 22 -78 9z"/>
</g>
</svg>
