<?xml version="1.0" standalone="no"?>
<!DOCTYPE svg PUBLIC "-//W3C//DTD SVG 20010904//EN"
 "http://www.w3.org/TR/2001/REC-SVG-20010904/DTD/svg10.dtd">
<svg version="1.0" xmlns="http://www.w3.org/2000/svg"
 width="192.000000pt" height="192.000000pt" viewBox="0 0 192.000000 192.000000"
 preserveAspectRatio="xMidYMid meet">
<metadata>
Created by potrace 1.16, written by Peter Selinger 2001-2019
</metadata>
<g transform="translate(0.000000,192.000000) scale(0.100000,-0.100000)"
fill="#000000" stroke="none">
811 c445 -92 729 -532 635 -987 -62 -301 -295 -546 -601 -630 -91 -26 -329
-26 -420 0 -291 80 -516 305 -596 596 -26 91 -26 329 0 420 120 433 542 692
982 601z"/>
<path d="M672 1338 c-9 -9 -12 -88 -12 -294 0 -298 2 -311 47 -302 17 3 18 22
21 271 l2 267 139 0 c113 0 141 -3 151 -15 23 -28 -5 -40 -108 -45 l-97 -5 0
-95 0 -95 97 -5 c106 -6 139 -20 104 -46 -14 -9 -46 -14 -103 -14 -71 0 -84
-3 -93 -19 -12 -24 -13 -330 -1 -349 4 -8 19 -12 32 -10 24 3 24 4 29 153 l5
150 72 5 c106 7 162 59 137 126 -16 47 -57 68 -140 72 l-74 4 0 29 c0 29 0 29
60 29 141 0 206 86 126 166 l-34 34 -174 0 c-122 0 -178 -4 -186 -12z"/>
<path d="M1122 1148 c-16 -16 -15 -33 4 -49 33 -27 56 -90 50 -133 -13 -86
-58 -128 -151 -141 -28 -4 -56 -12 -62 -17 -9 -7 -13 -42 -13 -108 0 -103 9
-125 47 -118 15 3 18 16 21 85 l3 81 36 7 c107 20 177 96 190 205 7 60 -15
125 -57 170 -30 32 -49 37 -68 18z"/>
</g>
</svg>
