<?xml version="1.0" standalone="no"?>
<!DOCTYPE svg PUBLIC "-//W3C//DTD SVG 20010904//EN"
 "http://www.w3.org/TR/2001/REC-SVG-20010904/DTD/svg10.dtd">
<svg version="1.0" xmlns="http://www.w3.org/2000/svg"
 width="192.000000pt" height="192.000000pt" viewBox="0 0 192.000000 192.000000"
 preserveAspectRatio="xMidYMid meet">
<metadata>
Created by potrace 1.16, written by Peter Selinger 2001-2019
</metadata>
<g transform="translate(0.000000,192.000000) scale(0.100000,-0.100000)"
fill="#000000" stroke="none">
811 c445 -92 729 -532 635 -987 -62 -301 -295 -546 -601 -630 -91 -26 -329
-26 -420 0 -291 80 -516 305 -596 596 -26 91 -26 329 0 420 120 433 542 692
982 601z"/>
<path d="M813 1355 c-90 -39 -97 -179 -13 -229 35 -20 109 -21 157 -1 19 8 59
15 88 15 29 0 72 -7 95 -15 118 -42 213 8 213 113 0 51 -24 89 -74 115 -37 20
-84 17 -154 -8 -55 -19 -99 -18 -173 5 -75 23 -96 24 -139 5z"/>
<path d="M655 1093 c-80 -21 -119 -117 -80 -193 30 -57 116 -76 205 -45 23 8
62 15 85 15 23 0 62 -7 85 -15 67 -24 137 -20 176 10 84 64 55 198 -49 226
-32 8 -51 7 -107 -10 -85 -26 -117 -26 -205 -1 -72 21 -76 21 -110 13z"/>
<path d="M839 820 c-66 -18 -99 -60 -99 -125 0 -150 211 -180 250 -35 25 93
-60 184 -151 160z"/>
</g>
</svg>
