<?xml version="1.0" standalone="no"?>
<!DOCTYPE svg PUBLIC "-//W3C//DTD SVG 20010904//EN"
 "http://www.w3.org/TR/2001/REC-SVG-20010904/DTD/svg10.dtd">
<svg version="1.0" xmlns="http://www.w3.org/2000/svg"
 width="192.000000pt" height="192.000000pt" viewBox="0 0 192.000000 192.000000"
 preserveAspectRatio="xMidYMid meet">
<metadata>
Created by potrace 1.16, written by Peter Selinger 2001-2019
</metadata>
<g transform="translate(0.000000,192.000000) scale(0.100000,-0.100000)"
fill="#000000" stroke="none">
811 c445 -92 729 -532 635 -987 -62 -301 -295 -546 -601 -630 -91 -26 -329
-26 -420 0 -291 80 -516 305 -596 596 -26 91 -26 329 0 420 120 433 542 692
982 601z"/>
<path d="M823 1352 c-46 -17 -75 -34 -150 -88 -22 -16 -23 -15 -23 4 0 11 -7
25 -15 32 -12 10 -18 6 -35 -22 -16 -26 -20 -44 -17 -83 3 -30 -1 -60 -9 -76
-7 -14 -18 -55 -25 -91 -48 -262 192 -506 462 -468 220 31 380 241 349 459
-19 132 -107 254 -228 313 -58 29 -77 33 -161 35 -74 3 -108 -1 -148 -15z
m235 -27 c77 -23 129 -104 147 -229 l8 -50 -33 37 c-30 35 -60 49 -60 28 0 -5
9 -28 20 -52 25 -55 25 -102 1 -155 -33 -72 -130 -125 -197 -108 -25 6 -24 8
23 35 26 16 56 29 65 29 28 0 31 20 7 46 -25 27 -64 31 -93 9 -39 -30 -144
-10 -159 30 -10 25 4 46 34 52 20 4 31 13 35 29 3 13 25 36 50 51 58 37 54 56
-13 63 -76 8 -77 11 -23 97 8 12 11 25 8 28 -12 13 -67 -6 -95 -33 -19 -18
-40 -27 -65 -29 -52 -2 -55 10 -11 45 108 84 233 112 351 77z"/>
</g>
</svg>
