<?xml version="1.0" standalone="no"?>
<!DOCTYPE svg PUBLIC "-//W3C//DTD SVG 20010904//EN"
 "http://www.w3.org/TR/2001/REC-SVG-20010904/DTD/svg10.dtd">
<svg version="1.0" xmlns="http://www.w3.org/2000/svg"
 width="192.000000pt" height="192.000000pt" viewBox="0 0 192.000000 192.000000"
 preserveAspectRatio="xMidYMid meet">
<metadata>
Created by potrace 1.16, written by Peter Selinger 2001-2019
</metadata>
<g transform="translate(0.000000,192.000000) scale(0.100000,-0.100000)"
fill="#000000" stroke="none">
811 c445 -92 729 -532 635 -987 -62 -301 -295 -546 -601 -630 -91 -26 -329
-26 -420 0 -291 80 -516 305 -596 596 -26 91 -26 329 0 420 120 433 542 692
982 601z"/>
<path d="M556 1338 c-10 -37 -7 -378 4 -443 22 -136 126 -268 247 -316 78 -31
223 -33 299 -5 l52 19 27 -21 c78 -61 195 10 182 109 -3 23 -13 49 -22 59 -16
18 -16 22 -1 67 79 229 -40 472 -261 536 -45 13 -53 14 -64 1 -9 -11 0 -27 51
-81 88 -94 132 -189 138 -297 3 -73 1 -85 -20 -116 -58 -85 -159 -105 -268
-54 l-55 26 40 15 c22 9 67 18 100 20 33 3 66 10 73 16 23 18 9 58 -32 91 -36
29 -43 31 -130 32 -119 1 -119 1 -64 30 94 48 100 106 14 139 l-46 18 0 73 c0
122 -11 129 -85 54 l-50 -51 -47 51 c-50 55 -72 62 -82 28z m736 -620 c3 -7 4
-33 4 -58 l-1 -45 -40 -3 -40 -3 0 61 0 60 36 0 c21 0 39 -6 41 -12z"/>
<path d="M1250 694 c0 -8 5 -12 10 -9 6 3 10 10 10 16 0 5 -4 9 -10 9 -5 0
-10 -7 -10 -16z"/>
<path d="M1250 645 c0 -8 7 -15 15 -15 8 0 15 7 15 15 0 8 -7 15 -15 15 -8 0
-15 -7 -15 -15z"/>
</g>
</svg>
