<?xml version="1.0" standalone="no"?>
<!DOCTYPE svg PUBLIC "-//W3C//DTD SVG 20010904//EN"
 "http://www.w3.org/TR/2001/REC-SVG-20010904/DTD/svg10.dtd">
<svg version="1.0" xmlns="http://www.w3.org/2000/svg"
 width="192.000000pt" height="192.000000pt" viewBox="0 0 192.000000 192.000000"
 preserveAspectRatio="xMidYMid meet">
<metadata>
Created by potrace 1.16, written by Peter Selinger 2001-2019
</metadata>
<g transform="translate(0.000000,192.000000) scale(0.100000,-0.100000)"
fill="#000000" stroke="none">
811 c445 -92 729 -532 635 -987 -62 -301 -295 -546 -601 -630 -91 -26 -329
-26 -420 0 -291 80 -516 305 -596 596 -26 91 -26 329 0 420 120 433 542 692
982 601z"/>
<path d="M856 1359 c-162 -38 -295 -192 -304 -353 -6 -96 -6 -96 190 -96 l158
0 0 -82 0 -82 -48 47 c-26 26 -55 47 -65 47 -22 0 -57 -35 -57 -56 0 -25 200
-224 225 -224 28 0 225 198 225 226 0 25 -29 54 -54 54 -9 0 -39 -21 -66 -46
l-50 -47 0 82 0 81 160 0 c149 0 161 1 181 21 18 18 20 28 14 77 -31 246 -266
408 -509 351z m207 -119 c29 -11 72 -36 94 -55 38 -33 93 -122 93 -152 0 -10
-59 -13 -296 -13 l-295 0 7 23 c52 170 231 259 397 197z"/>
</g>
</svg>
