<?xml version="1.0" standalone="no"?>
<!DOCTYPE svg PUBLIC "-//W3C//DTD SVG 20010904//EN"
 "http://www.w3.org/TR/2001/REC-SVG-20010904/DTD/svg10.dtd">
<svg version="1.0" xmlns="http://www.w3.org/2000/svg"
 width="192.000000pt" height="192.000000pt" viewBox="0 0 192.000000 192.000000"
 preserveAspectRatio="xMidYMid meet">
<metadata>
Created by potrace 1.16, written by Peter Selinger 2001-2019
</metadata>
<g transform="translate(0.000000,192.000000) scale(0.100000,-0.100000)"
fill="#000000" stroke="none">
811 c445 -92 729 -532 635 -987 -62 -301 -295 -546 -601 -630 -91 -26 -329
-26 -420 0 -291 80 -516 305 -596 596 -26 91 -26 329 0 420 120 433 542 692
982 601z"/>
<path d="M701 1351 c-11 -11 -25 -37 -31 -58 -16 -52 -4 -78 103 -231 48 -67
87 -126 87 -129 0 -4 -10 -21 -21 -38 -21 -30 -24 -31 -78 -27 -46 3 -62 0
-90 -20 -47 -31 -74 -81 -74 -133 0 -152 195 -210 281 -84 19 27 23 45 21 91
-2 47 2 64 24 97 15 23 29 41 32 41 3 0 17 -18 32 -41 22 -33 26 -50 24 -97
-2 -46 2 -64 21 -91 34 -50 83 -73 141 -68 149 13 192 200 66 285 -28 20 -44
23 -90 20 -54 -4 -57 -3 -78 27 -11 17 -21 34 -21 38 0 3 39 62 87 129 47 68
93 140 101 160 13 34 13 42 -2 83 -19 48 -51 74 -68 57 -6 -6 -54 -73 -108
-149 -53 -76 -101 -137 -106 -136 -5 0 -54 65 -110 144 -55 78 -105 144 -112
147 -6 2 -20 -6 -31 -17z m80 -591 c38 -21 13 -100 -32 -100 -26 0 -49 28 -49
60 0 42 39 62 81 40z m410 0 c38 -21 15 -100 -28 -100 -45 0 -73 78 -35 99 22
13 39 13 63 1z"/>
</g>
</svg>
