<?xml version="1.0" standalone="no"?>
<!DOCTYPE svg PUBLIC "-//W3C//DTD SVG 20010904//EN"
 "http://www.w3.org/TR/2001/REC-SVG-20010904/DTD/svg10.dtd">
<svg version="1.0" xmlns="http://www.w3.org/2000/svg"
 width="192.000000pt" height="192.000000pt" viewBox="0 0 192.000000 192.000000"
 preserveAspectRatio="xMidYMid meet">
<metadata>
Created by potrace 1.16, written by Peter Selinger 2001-2019
</metadata>
<g transform="translate(0.000000,192.000000) scale(0.100000,-0.100000)"
fill="#000000" stroke="none">
811 c445 -92 729 -532 635 -987 -62 -301 -295 -546 -601 -630 -91 -26 -329
-26 -420 0 -291 80 -516 305 -596 596 -26 91 -26 329 0 420 120 433 542 692
982 601z"/>
<path d="M875 1352 c-42 -26 -187 -164 -256 -244 -70 -81 -86 -125 -69 -188
10 -37 36 -68 153 -187 177 -180 224 -205 313 -168 49 20 194 162 194 190 0
12 -27 48 -69 89 l-69 69 19 31 c12 20 19 50 19 82 0 124 -130 202 -235 142
-79 -46 -107 -159 -57 -228 l21 -27 -30 -29 c-34 -32 -37 -54 -10 -78 27 -24
51 -14 101 40 36 40 41 50 36 77 -4 17 -15 40 -25 52 -23 24 -27 42 -18 76 13
51 91 58 116 10 17 -31 13 -57 -14 -89 -16 -19 -25 -42 -25 -63 0 -28 10 -43
66 -94 l66 -62 -59 -51 c-93 -82 -98 -81 -265 86 -170 171 -170 169 -71 279
98 110 219 213 248 213 46 0 315 -269 315 -315 0 -14 -16 -46 -35 -71 -33 -42
-34 -48 -22 -68 8 -11 26 -22 40 -24 21 -3 34 7 66 48 50 63 58 129 24 194
-19 37 -259 278 -304 305 -44 27 -123 28 -164 3z"/>
</g>
</svg>
