<?xml version="1.0" standalone="no"?>
<!DOCTYPE svg PUBLIC "-//W3C//DTD SVG 20010904//EN"
 "http://www.w3.org/TR/2001/REC-SVG-20010904/DTD/svg10.dtd">
<svg version="1.0" xmlns="http://www.w3.org/2000/svg"
 width="192.000000pt" height="192.000000pt" viewBox="0 0 192.000000 192.000000"
 preserveAspectRatio="xMidYMid meet">
<metadata>
Created by potrace 1.16, written by Peter Selinger 2001-2019
</metadata>
<g transform="translate(0.000000,192.000000) scale(0.100000,-0.100000)"
fill="#000000" stroke="none">
811 c445 -92 729 -532 635 -987 -62 -301 -295 -546 -601 -630 -91 -26 -329
-26 -420 0 -291 80 -516 305 -596 596 -26 91 -26 329 0 420 120 433 542 692
982 601z"/>
<path d="M552 1112 l3 -258 32 -64 c41 -83 110 -152 193 -193 61 -30 71 -32
175 -32 103 0 114 2 177 32 89 42 151 101 191 182 30 63 32 72 32 181 0 104
-3 121 -27 173 -52 110 -176 211 -280 225 -56 7 -50 -17 21 -94 133 -142 176
-337 95 -433 -34 -40 -102 -65 -155 -57 -45 7 -139 44 -139 55 0 13 78 34 134
36 44 1 62 6 72 20 18 25 18 27 -8 60 -38 49 -91 65 -188 58 -91 -6 -94 -2
-23 37 55 30 68 48 59 83 -4 18 -20 32 -56 48 l-50 23 0 83 c0 110 -14 118
-83 43 l-49 -53 -49 51 c-82 86 -81 90 -77 -206z"/>
</g>
</svg>
