<?xml version="1.0" standalone="no"?>
<!DOCTYPE svg PUBLIC "-//W3C//DTD SVG 20010904//EN"
 "http://www.w3.org/TR/2001/REC-SVG-20010904/DTD/svg10.dtd">
<svg version="1.0" xmlns="http://www.w3.org/2000/svg"
 width="192.000000pt" height="192.000000pt" viewBox="0 0 192.000000 192.000000"
 preserveAspectRatio="xMidYMid meet">
<metadata>
Created by potrace 1.16, written by Peter Selinger 2001-2019
</metadata>
<g transform="translate(0.000000,192.000000) scale(0.100000,-0.100000)"
fill="#000000" stroke="none">
811 c445 -92 729 -532 635 -987 -62 -301 -295 -546 -601 -630 -91 -26 -329
-26 -420 0 -291 80 -516 305 -596 596 -26 91 -26 329 0 420 120 433 542 692
982 601z"/>
<path d="M554 1356 c-3 -8 -4 -121 -2 -252 4 -279 12 -313 100 -409 85 -93
178 -136 301 -136 166 -1 308 86 376 230 23 50 26 68 26 171 0 109 -2 118 -32
181 -56 114 -194 219 -288 219 -33 0 -33 -32 -1 -54 32 -20 110 -129 135 -189
31 -72 45 -166 32 -215 -23 -86 -108 -142 -192 -128 -45 7 -139 44 -139 55 0
13 78 34 134 36 44 1 62 6 72 20 19 25 18 29 -11 63 -42 51 -83 63 -175 56
-45 -4 -80 -3 -80 2 0 5 21 20 47 34 56 30 68 48 59 85 -5 20 -19 32 -56 48
l-49 21 -3 85 c-2 70 -6 86 -19 89 -15 3 -93 -78 -167 -172 -12 -16 -25 -26
-28 -23 -4 3 10 26 31 51 43 53 41 70 -11 115 -38 34 -52 38 -60 17z"/>
</g>
</svg>
