<?xml version="1.0" standalone="no"?>
<!DOCTYPE svg PUBLIC "-//W3C//DTD SVG 20010904//EN"
 "http://www.w3.org/TR/2001/REC-SVG-20010904/DTD/svg10.dtd">
<svg version="1.0" xmlns="http://www.w3.org/2000/svg"
 width="192.000000pt" height="192.000000pt" viewBox="0 0 192.000000 192.000000"
 preserveAspectRatio="xMidYMid meet">
<metadata>
Created by potrace 1.16, written by Peter Selinger 2001-2019
</metadata>
<g transform="translate(0.000000,192.000000) scale(0.100000,-0.100000)"
fill="#000000" stroke="none">
811 c445 -92 729 -532 635 -987 -62 -301 -295 -546 -601 -630 -91 -26 -329
-26 -420 0 -291 80 -516 305 -596 596 -26 91 -26 329 0 420 120 433 542 692
982 601z"/>
<path d="M557 1363 c-4 -3 -7 -108 -7 -233 0 -286 14 -342 109 -443 86 -91
195 -133 328 -124 174 10 305 111 358 276 26 78 17 216 -18 294 -48 107 -171
208 -273 224 -59 10 -54 -18 14 -92 139 -148 179 -350 88 -441 -60 -60 -169
-65 -256 -13 l-34 21 39 16 c22 8 67 16 99 17 44 1 62 6 72 20 19 25 18 29
-11 63 -39 47 -92 63 -180 55 -42 -3 -75 -2 -75 3 0 5 21 20 47 34 56 30 68
48 59 84 -5 21 -19 32 -56 48 l-50 21 0 83 c0 124 -14 123 -126 -9 -43 -51
-79 -94 -81 -96 -2 -2 -6 -2 -9 2 -4 3 10 25 30 48 20 24 36 48 36 55 0 16
-73 94 -87 94 -5 0 -13 -3 -16 -7z"/>
</g>
</svg>
