<?xml version="1.0" standalone="no"?>
<!DOCTYPE svg PUBLIC "-//W3C//DTD SVG 20010904//EN"
 "http://www.w3.org/TR/2001/REC-SVG-20010904/DTD/svg10.dtd">
<svg version="1.0" xmlns="http://www.w3.org/2000/svg"
 width="192.000000pt" height="192.000000pt" viewBox="0 0 192.000000 192.000000"
 preserveAspectRatio="xMidYMid meet">
<metadata>
Created by potrace 1.16, written by Peter Selinger 2001-2019
</metadata>
<g transform="translate(0.000000,192.000000) scale(0.100000,-0.100000)"
fill="#000000" stroke="none">
811 c445 -92 729 -532 635 -987 -62 -301 -295 -546 -601 -630 -91 -26 -329
-26 -420 0 -291 80 -516 305 -596 596 -26 91 -26 329 0 420 120 433 542 692
982 601z"/>
<path d="M557 1363 c-4 -3 -7 -108 -7 -233 0 -177 3 -238 16 -281 32 -109 118
-209 222 -257 51 -24 69 -27 167 -27 102 0 114 2 175 31 114 54 182 132 215
248 23 79 16 199 -15 281 -32 83 -132 183 -213 213 -114 43 -133 21 -52 -63
72 -75 124 -179 138 -277 9 -66 8 -78 -10 -119 -12 -26 -37 -59 -59 -75 -50
-39 -136 -41 -212 -5 -29 14 -52 27 -52 31 0 13 107 41 149 39 94 -6 85 77
-14 122 -32 15 -56 17 -125 13 -93 -5 -93 -7 -4 48 67 42 59 92 -21 122 l-45
18 0 83 c0 125 -14 124 -126 -8 -43 -51 -79 -94 -81 -96 -2 -2 -6 -2 -9 2 -3
3 11 27 31 52 36 43 37 47 24 71 -14 26 -64 74 -78 74 -4 0 -11 -3 -14 -7z"/>
</g>
</svg>
