<?xml version="1.0" standalone="no"?>
<!DOCTYPE svg PUBLIC "-//W3C//DTD SVG 20010904//EN"
 "http://www.w3.org/TR/2001/REC-SVG-20010904/DTD/svg10.dtd">
<svg version="1.0" xmlns="http://www.w3.org/2000/svg"
 width="192.000000pt" height="192.000000pt" viewBox="0 0 192.000000 192.000000"
 preserveAspectRatio="xMidYMid meet">
<metadata>
Created by potrace 1.16, written by Peter Selinger 2001-2019
</metadata>
<g transform="translate(0.000000,192.000000) scale(0.100000,-0.100000)"
fill="#000000" stroke="none">
811 c445 -92 729 -532 635 -987 -62 -301 -295 -546 -601 -630 -91 -26 -329
-26 -420 0 -291 80 -516 305 -596 596 -26 91 -26 329 0 420 120 433 542 692
982 601z"/>
<path d="M557 1363 c-4 -3 -7 -108 -7 -233 0 -244 7 -292 56 -376 35 -59 115
-131 182 -162 51 -24 69 -27 167 -27 102 0 115 2 175 31 114 54 182 132 215
248 23 79 16 199 -15 281 -32 83 -132 183 -213 213 -114 43 -133 21 -52 -63
100 -105 164 -281 136 -375 -26 -87 -108 -139 -197 -125 -46 6 -134 43 -134
55 0 14 111 43 145 37 28 -5 41 -1 55 13 32 32 4 80 -65 111 -32 15 -56 17
-125 13 -93 -5 -93 -7 -4 48 67 42 59 92 -21 122 l-45 18 0 83 c0 125 -14 124
-126 -8 -43 -51 -79 -94 -81 -96 -2 -2 -6 -2 -9 2 -3 3 11 27 31 52 36 43 37
47 24 71 -14 26 -64 74 -78 74 -4 0 -11 -3 -14 -7z"/>
</g>
</svg>
