<?xml version="1.0" standalone="no"?>
<!DOCTYPE svg PUBLIC "-//W3C//DTD SVG 20010904//EN"
 "http://www.w3.org/TR/2001/REC-SVG-20010904/DTD/svg10.dtd">
<svg version="1.0" xmlns="http://www.w3.org/2000/svg"
 width="192.000000pt" height="192.000000pt" viewBox="0 0 192.000000 192.000000"
 preserveAspectRatio="xMidYMid meet">
<metadata>
Created by potrace 1.16, written by Peter Selinger 2001-2019
</metadata>
<g transform="translate(0.000000,192.000000) scale(0.100000,-0.100000)"
fill="#000000" stroke="none">
811 c445 -92 729 -532 635 -987 -62 -301 -295 -546 -601 -630 -91 -26 -329
-26 -420 0 -291 80 -516 305 -596 596 -26 91 -26 329 0 420 120 433 542 692
982 601z"/>
<path d="M591 1274 l-31 -26 0 -279 0 -280 25 -24 c24 -25 65 -32 100 -19 30
12 45 60 45 149 l0 85 56 0 c48 0 59 4 85 29 32 33 36 58 14 100 -18 35 -32
41 -101 41 l-54 0 0 34 0 33 61 6 c77 7 109 33 109 88 0 29 -7 43 -31 63 -29
24 -37 26 -139 26 -102 0 -110 -2 -139 -26z"/>
<path d="M971 1274 l-31 -26 0 -279 0 -280 25 -24 c24 -24 28 -25 184 -25
l160 0 20 26 c16 21 21 41 21 91 0 55 -4 67 -25 88 -34 35 -78 33 -117 -5 -21
-22 -39 -30 -64 -30 l-34 0 0 155 0 155 35 0 c27 0 42 -7 59 -27 31 -36 85
-37 121 -3 22 20 25 32 25 86 0 34 -3 70 -6 79 -14 35 -58 45 -203 45 -135 0
-140 -1 -170 -26z"/>
</g>
</svg>
