<?xml version="1.0" standalone="no"?>
<!DOCTYPE svg PUBLIC "-//W3C//DTD SVG 20010904//EN"
 "http://www.w3.org/TR/2001/REC-SVG-20010904/DTD/svg10.dtd">
<svg version="1.0" xmlns="http://www.w3.org/2000/svg"
 width="192.000000pt" height="192.000000pt" viewBox="0 0 192.000000 192.000000"
 preserveAspectRatio="xMidYMid meet">
<metadata>
Created by potrace 1.16, written by Peter Selinger 2001-2019
</metadata>
<g transform="translate(0.000000,192.000000) scale(0.100000,-0.100000)"
fill="#000000" stroke="none">
811 c445 -92 729 -532 635 -987 -62 -301 -295 -546 -601 -630 -91 -26 -329
-26 -420 0 -291 80 -516 305 -596 596 -26 91 -26 329 0 420 120 433 542 692
982 601z"/>
<path d="M896 1364 c-20 -20 -20 -68 0 -88 36 -36 104 -6 104 46 0 46 -72 75
-104 42z"/>
<path d="M912 1199 c-31 -12 -46 -54 -29 -87 10 -23 19 -27 52 -27 32 0 42 5
55 28 13 24 13 30 0 53 -18 32 -47 44 -78 33z"/>
<path d="M1055 1190 c-41 -46 -10 -120 50 -120 39 0 68 30 68 70 0 40 -29 70
-68 70 -19 0 -39 -8 -50 -20z"/>
<path d="M730 1180 c-32 -32 -24 -75 18 -91 58 -22 101 60 50 95 -30 21 -44
20 -68 -4z"/>
<path d="M1245 1038 c-75 -43 -49 -158 35 -158 74 0 105 87 51 141 -31 31 -54
35 -86 17z"/>
<path d="M1073 1030 c-70 -29 -45 -140 32 -140 86 0 99 126 15 144 -14 3 -35
1 -47 -4z"/>
<path d="M891 1004 c-27 -35 -26 -59 4 -89 29 -30 45 -31 79 -4 32 25 35 70 6
99 -28 28 -64 25 -89 -6z"/>
<path d="M727 1002 c-23 -25 -21 -58 3 -82 24 -24 38 -25 68 -4 26 18 30 65 6
88 -21 21 -57 20 -77 -2z"/>
<path d="M562 998 c-28 -28 -2 -88 38 -88 19 0 50 35 50 57 0 34 -62 57 -88
31z"/>
<path d="M1073 848 c-48 -23 -51 -103 -4 -127 78 -42 144 58 77 116 -30 25
-40 27 -73 11z"/>
<path d="M907 839 c-39 -23 -41 -86 -3 -111 23 -16 65 -8 80 14 23 33 19 64
-10 87 -30 23 -41 25 -67 10z"/>
<path d="M726 818 c-9 -12 -16 -30 -16 -39 0 -23 33 -49 63 -49 44 0 64 62 29
93 -26 23 -58 21 -76 -5z"/>
<path d="M910 657 c-37 -19 -41 -80 -6 -102 35 -23 70 -13 86 24 13 33 2 64
-30 81 -23 12 -20 12 -50 -3z"/>
</g>
</svg>
