<?xml version="1.0" standalone="no"?>
<!DOCTYPE svg PUBLIC "-//W3C//DTD SVG 20010904//EN"
 "http://www.w3.org/TR/2001/REC-SVG-20010904/DTD/svg10.dtd">
<svg version="1.0" xmlns="http://www.w3.org/2000/svg"
 width="192.000000pt" height="192.000000pt" viewBox="0 0 192.000000 192.000000"
 preserveAspectRatio="xMidYMid meet">
<metadata>
Created by potrace 1.16, written by Peter Selinger 2001-2019
</metadata>
<g transform="translate(0.000000,192.000000) scale(0.100000,-0.100000)"
fill="#000000" stroke="none">
811 c445 -92 729 -532 635 -987 -62 -301 -295 -546 -601 -630 -91 -26 -329
-26 -420 0 -291 80 -516 305 -596 596 -26 91 -26 329 0 420 120 433 542 692
982 601z"/>
<path d="M935 1319 c-19 -29 -233 -692 -228 -705 10 -28 48 -13 151 61 l104
76 104 -76 c103 -74 139 -89 150 -60 3 8 -12 69 -35 136 -22 67 -38 125 -36
129 3 5 50 41 106 81 55 40 103 78 106 86 13 34 -16 42 -155 45 l-135 3 -40
118 c-35 105 -41 117 -62 117 -13 0 -27 -5 -30 -11z"/>
<path d="M557 1073 c-20 -20 0 -46 81 -105 48 -35 92 -67 99 -71 8 -5 20 20
39 75 15 46 29 89 32 96 3 9 -25 12 -120 12 -69 0 -128 -3 -131 -7z"/>
</g>
</svg>
