<?xml version="1.0" standalone="no"?>
<!DOCTYPE svg PUBLIC "-//W3C//DTD SVG 20010904//EN"
 "http://www.w3.org/TR/2001/REC-SVG-20010904/DTD/svg10.dtd">
<svg version="1.0" xmlns="http://www.w3.org/2000/svg"
 width="192.000000pt" height="192.000000pt" viewBox="0 0 192.000000 192.000000"
 preserveAspectRatio="xMidYMid meet">
<metadata>
Created by potrace 1.16, written by Peter Selinger 2001-2019
</metadata>
<g transform="translate(0.000000,192.000000) scale(0.100000,-0.100000)"
fill="#000000" stroke="none">
811 c445 -92 729 -532 635 -987 -62 -301 -295 -546 -601 -630 -91 -26 -329
-26 -420 0 -291 80 -516 305 -596 596 -26 91 -26 329 0 420 120 433 542 692
982 601z"/>
<path d="M849 1366 c-65 -17 -128 -57 -183 -115 -221 -237 -96 -630 221 -691
167 -33 343 61 425 227 31 64 33 73 33 178 0 103 -2 114 -31 176 -87 184 -277
276 -465 225z m68 -123 c12 -18 18 -46 18 -86 l0 -60 -42 -12 c-36 -11 -44
-10 -55 2 -17 21 -23 135 -9 162 17 32 66 28 88 -6z m148 -73 c23 -25 25 -101
6 -149 -13 -29 -17 -31 -45 -25 -54 11 -66 22 -66 58 0 54 11 93 32 115 24 27
50 27 73 1z m-117 -133 c4 -31 -12 -57 -36 -57 -24 0 -52 30 -52 56 0 24 18
33 60 31 20 -2 26 -8 28 -30z m69 -57 c25 -9 29 -15 25 -36 -2 -14 -15 -32
-29 -41 -22 -14 -25 -14 -43 2 -20 18 -25 41 -14 69 7 19 20 20 61 6z m47
-126 c9 -8 16 -23 16 -33 0 -34 -21 -41 -132 -41 -96 0 -108 2 -118 19 -14 27
-13 37 6 55 12 12 38 16 114 16 76 0 102 -4 114 -16z m-34 -124 c8 -14 8 -26
0 -40 -9 -17 -21 -20 -78 -20 -69 0 -92 10 -92 40 0 30 23 40 92 40 57 0 69
-3 78 -20z"/>
</g>
</svg>
