<?xml version="1.0" standalone="no"?>
<!DOCTYPE svg PUBLIC "-//W3C//DTD SVG 20010904//EN"
 "http://www.w3.org/TR/2001/REC-SVG-20010904/DTD/svg10.dtd">
<svg version="1.0" xmlns="http://www.w3.org/2000/svg"
 width="192.000000pt" height="192.000000pt" viewBox="0 0 192.000000 192.000000"
 preserveAspectRatio="xMidYMid meet">
<metadata>
Created by potrace 1.16, written by Peter Selinger 2001-2019
</metadata>
<g transform="translate(0.000000,192.000000) scale(0.100000,-0.100000)"
fill="#000000" stroke="none">
811 c445 -92 729 -532 635 -987 -62 -301 -295 -546 -601 -630 -91 -26 -329
-26 -420 0 -291 80 -516 305 -596 596 -26 91 -26 329 0 420 120 433 542 692
982 601z"/>
<path d="M784 1342 c-22 -9 -50 -24 -61 -32 -30 -22 -60 -79 -68 -128 -5 -32
-13 -45 -30 -52 -28 -11 -35 -29 -35 -90 0 -50 17 -80 46 -80 11 0 14 -23 14
-125 0 -114 -2 -125 -18 -125 -30 0 -42 -21 -42 -71 0 -71 16 -79 165 -79 145
0 165 9 165 71 0 50 -15 79 -40 79 -19 0 -20 7 -20 125 l0 125 100 0 100 0 0
-120 c0 -120 0 -121 -25 -130 -49 -19 -56 -104 -12 -135 16 -11 50 -15 137
-15 143 0 160 8 160 79 0 50 -12 71 -42 71 -17 0 -18 13 -18 175 0 197 -7 225
-61 244 -18 6 -99 11 -185 11 -146 0 -154 1 -154 20 0 21 27 40 59 40 27 0 51
37 51 80 0 20 -7 46 -16 58 -13 18 -24 22 -72 21 -31 0 -75 -8 -98 -17z"/>
<path d="M1097 1340 c-70 -55 -25 -170 66 -170 30 0 75 35 88 68 12 32 -5 87
-34 107 -31 21 -89 19 -120 -5z"/>
</g>
</svg>
