<?xml version="1.0" standalone="no"?>
<!DOCTYPE svg PUBLIC "-//W3C//DTD SVG 20010904//EN"
 "http://www.w3.org/TR/2001/REC-SVG-20010904/DTD/svg10.dtd">
<svg version="1.0" xmlns="http://www.w3.org/2000/svg"
 width="192.000000pt" height="192.000000pt" viewBox="0 0 192.000000 192.000000"
 preserveAspectRatio="xMidYMid meet">
<metadata>
Created by potrace 1.16, written by Peter Selinger 2001-2019
</metadata>
<g transform="translate(0.000000,192.000000) scale(0.100000,-0.100000)"
fill="#000000" stroke="none">
759 c272 -64 494 -285 566 -564 28 -110 28 -280 0 -390 -71 -278 -288 -495
-566 -566 -110 -28 -280 -28 -390 0 -277 71 -494 288 -566 566 -28 110 -28
280 0 390 108 421 524 667 956 564z"/>
<path d="M732 1337 c-9 -10 -9 -22 0 -48 6 -19 12 -40 14 -46 2 -8 20 -13 44
-13 33 0 40 -3 40 -20 0 -12 -7 -20 -16 -20 -21 0 -84 -63 -84 -84 0 -9 -8
-16 -20 -16 -17 0 -20 7 -20 40 0 24 -5 42 -12 44 -7 2 -29 8 -48 14 -28 10
-37 9 -49 -2 -7 -8 -11 -22 -7 -31 5 -13 14 -15 45 -10 l40 7 3 -39 c3 -35 6
-38 36 -41 28 -3 32 -7 32 -33 0 -28 -2 -29 -45 -29 -25 0 -54 5 -64 12 -24
15 -51 4 -51 -22 0 -26 27 -37 51 -22 10 7 39 12 64 12 43 0 45 -1 45 -30 0
-29 -2 -30 -45 -30 -25 0 -54 5 -64 12 -24 15 -51 4 -51 -22 0 -26 27 -37 51
-22 10 7 39 12 64 12 43 0 45 -1 45 -29 0 -26 -4 -30 -32 -33 -30 -3 -33 -6
-36 -41 l-3 -39 -40 7 c-31 5 -40 3 -45 -10 -4 -9 0 -23 7 -31 12 -11 21 -12
49 -2 19 6 41 12 48 14 7 2 12 20 12 44 0 33 3 40 20 40 12 0 20 -7 20 -16 0
-21 63 -84 84 -84 9 0 16 -8 16 -20 0 -17 -7 -20 -40 -20 -24 0 -42 -5 -44
-12 -2 -7 -8 -29 -14 -48 -10 -28 -9 -37 2 -49 8 -7 22 -11 31 -7 13 5 15 14
10 45 l-7 40 39 3 c35 3 38 6 41 36 3 28 7 32 33 32 28 0 29 -2 29 -45 0 -25
-5 -54 -12 -64 -15 -24 -4 -51 22 -51 26 0 37 27 22 51 -7 10 -12 39 -12 64 0
43 1 45 30 45 29 0 30 -2 30 -45 0 -25 -5 -54 -12 -64 -15 -24 -4 -51 22 -51
26 0 37 27 22 51 -7 10 -12 39 -12 64 0 43 1 45 29 45 26 0 30 -4 33 -32 3
-30 6 -33 41 -36 l39 -3 -7 -40 c-5 -31 -3 -40 10 -45 9 -4 23 0 31 7 11 12
12 21 2 49 -6 19 -12 41 -14 48 -2 7 -20 12 -44 12 -33 0 -40 3 -40 20 0 12 7
20 16 20 9 0 31 15 50 34 19 19 34 41 34 50 0 9 8 16 20 16 17 0 20 -7 20 -40
0 -24 5 -42 13 -44 6 -2 28 -8 47 -14 28 -10 37 -9 49 2 7 8 11 22 7 31 -5 13
-14 15 -45 10 l-40 -7 -3 39 c-3 35 -6 38 -35 41 -29 3 -33 7 -33 33 0 28 2
29 45 29 25 0 54 -5 64 -12 24 -15 51 -4 51 22 0 26 -27 37 -51 22 -10 -7 -39
-12 -64 -12 -43 0 -45 1 -45 30 0 29 2 30 45 30 25 0 54 -5 64 -12 24 -15 51
-4 51 22 0 26 -27 37 -51 22 -10 -7 -39 -12 -64 -12 -43 0 -45 1 -45 29 0 26
4 30 33 33 29 3 32 6 35 41 l3 39 40 -7 c31 -5 40 -3 45 10 4 9 0 23 -7 31
-12 11 -21 12 -49 2 -19 -6 -41 -12 -47 -14 -8 -2 -13 -20 -13 -44 0 -33 -3
-40 -20 -40 -12 0 -20 7 -20 16 0 21 -63 84 -84 84 -9 0 -16 8 -16 20 0 17 7
20 40 20 24 0 42 5 44 13 2 6 8 28 14 47 10 28 9 37 -2 49 -8 7 -22 11 -31 7
-13 -5 -15 -14 -10 -45 l7 -40 -39 -3 c-35 -3 -38 -6 -41 -35 -3 -29 -7 -33
-33 -33 -28 0 -29 2 -29 45 0 25 5 54 12 64 15 24 4 51 -22 51 -26 0 -37 -27
-22 -51 7 -10 12 -39 12 -64 0 -43 -1 -45 -30 -45 -29 0 -30 2 -30 45 0 25 5
54 12 64 15 24 4 51 -22 51 -26 0 -37 -27 -22 -51 7 -10 12 -39 12 -64 0 -43
-1 -45 -29 -45 -26 0 -30 4 -33 33 -3 29 -6 32 -41 35 -37 3 -37 3 -35 45 3
44 -17 62 -40 34z m218 -307 c0 -16 -7 -20 -35 -20 -24 0 -35 -5 -35 -15 0 -9
9 -15 25 -15 18 0 25 -5 25 -20 0 -15 -7 -20 -24 -20 -21 0 -25 -6 -28 -32 -2
-25 -8 -33 -23 -33 -18 0 -20 8 -23 74 -2 41 -1 80 2 88 4 9 24 13 61 13 48 0
55 -2 55 -20z m58 -1 l8 -20 18 20 c18 20 56 29 56 14 0 -3 -11 -21 -25 -39
-14 -18 -25 -36 -25 -40 0 -4 11 -22 25 -40 14 -18 25 -37 25 -43 0 -18 -36
-12 -56 10 l-18 20 -8 -20 c-4 -12 -16 -21 -28 -21 -19 0 -20 6 -20 90 0 84 1
90 20 90 12 0 24 -9 28 -21z"/>
</g>
</svg>
