<?xml version="1.0" standalone="no"?>
<!DOCTYPE svg PUBLIC "-//W3C//DTD SVG 20010904//EN"
 "http://www.w3.org/TR/2001/REC-SVG-20010904/DTD/svg10.dtd">
<svg version="1.0" xmlns="http://www.w3.org/2000/svg"
 width="192.000000pt" height="192.000000pt" viewBox="0 0 192.000000 192.000000"
 preserveAspectRatio="xMidYMid meet">
<metadata>
Created by potrace 1.16, written by Peter Selinger 2001-2019
</metadata>
<g transform="translate(0.000000,192.000000) scale(0.100000,-0.100000)"
fill="#000000" stroke="none">
811 c445 -92 729 -532 635 -987 -62 -301 -295 -546 -601 -630 -91 -26 -329
-26 -420 0 -291 80 -516 305 -596 596 -26 91 -26 329 0 420 120 433 542 692
982 601z"/>
<path d="M778 1296 c-204 -116 -198 -107 -198 -331 0 -232 -12 -213 225 -351
137 -80 163 -80 300 0 237 138 225 119 225 351 0 224 4 217 -201 333 -171 97
-179 97 -351 -2z m280 -187 c28 -17 57 -39 62 -49 6 -10 10 -56 10 -103 0 -74
-3 -86 -22 -104 -33 -29 -132 -83 -153 -83 -21 0 -120 54 -152 83 -21 18 -23
30 -23 108 0 104 6 114 103 163 75 40 79 39 175 -15z"/>
<path d="M895 1057 c-46 -30 -50 -36 -53 -76 -5 -70 3 -85 60 -116 l52 -28 53
28 c58 30 66 45 61 116 -3 40 -7 46 -53 76 -27 18 -54 33 -60 33 -6 0 -33 -15
-60 -33z"/>
</g>
</svg>
