<?xml version="1.0" standalone="no"?>
<!DOCTYPE svg PUBLIC "-//W3C//DTD SVG 20010904//EN"
 "http://www.w3.org/TR/2001/REC-SVG-20010904/DTD/svg10.dtd">
<svg version="1.0" xmlns="http://www.w3.org/2000/svg"
 width="192.000000pt" height="192.000000pt" viewBox="0 0 192.000000 192.000000"
 preserveAspectRatio="xMidYMid meet">
<metadata>
Created by potrace 1.16, written by Peter Selinger 2001-2019
</metadata>
<g transform="translate(0.000000,192.000000) scale(0.100000,-0.100000)"
fill="#000000" stroke="none">
810 c245 -63 441 -223 549 -451 55 -116 75 -212 75 -354 0 -141 -20 -238 -75
-352 -86 -182 -215 -312 -396 -398 -116 -55 -212 -75 -354 -75 -142 0 -238 20
-354 75 -228 108 -388 304 -451 549 -28 110 -28 292 0 402 76 298 303 526 600
603 106 28 298 28 406 1z"/>
<path d="M914 1367 c-3 -8 -4 -36 -2 -63 l3 -49 40 0 40 0 0 60 0 60 -38 3
c-25 2 -39 -1 -43 -11z"/>
<path d="M632 1247 c-29 -31 -28 -37 16 -80 l38 -37 29 30 29 30 -39 40 c-22
22 -42 40 -45 40 -4 0 -16 -10 -28 -23z"/>
<path d="M1205 1230 l-39 -40 29 -30 29 -30 38 37 c21 20 38 42 38 48 0 11
-41 55 -51 55 -3 0 -22 -18 -44 -40z"/>
<path d="M710 1071 c-5 -11 -10 -55 -10 -98 l0 -79 65 -64 65 -64 0 -103 0
-103 125 0 125 0 0 103 0 103 65 63 65 63 0 80 c0 127 18 118 -255 118 -221 0
-235 -1 -245 -19z m278 -347 c3 -78 -10 -101 -48 -89 -18 6 -20 15 -20 79 0
40 3 76 7 80 4 4 19 6 33 4 24 -3 25 -6 28 -74z"/>
</g>
</svg>
