<?xml version="1.0" standalone="no"?>
<!DOCTYPE svg PUBLIC "-//W3C//DTD SVG 20010904//EN"
 "http://www.w3.org/TR/2001/REC-SVG-20010904/DTD/svg10.dtd">
<svg version="1.0" xmlns="http://www.w3.org/2000/svg"
 width="192.000000pt" height="192.000000pt" viewBox="0 0 192.000000 192.000000"
 preserveAspectRatio="xMidYMid meet">
<metadata>
Created by potrace 1.16, written by Peter Selinger 2001-2019
</metadata>
<g transform="translate(0.000000,192.000000) scale(0.100000,-0.100000)"
fill="#000000" stroke="none">
811 c445 -92 729 -532 635 -987 -62 -301 -295 -546 -601 -630 -91 -26 -329
-26 -420 0 -291 80 -516 305 -596 596 -26 91 -26 329 0 420 120 433 542 692
982 601z"/>
<path d="M1210 1384 c-14 -10 -40 -28 -58 -42 l-33 -24 35 -24 c20 -14 36 -27
36 -29 0 -2 -20 -36 -45 -74 -25 -38 -45 -72 -45 -75 0 -3 16 -8 36 -12 19 -4
38 -13 41 -20 3 -8 -27 -49 -72 -99 -49 -54 -72 -86 -63 -89 7 -3 27 -9 43
-14 17 -5 31 -15 33 -23 2 -10 -55 -55 -152 -122 -85 -59 -161 -110 -170 -113
-8 -3 -29 4 -45 15 -16 12 -33 21 -38 21 -4 0 -23 -23 -41 -51 -29 -44 -32
-53 -20 -66 13 -12 23 -8 76 27 l61 41 57 -17 c84 -24 191 -16 269 21 115 55
193 161 217 295 19 108 -20 233 -98 320 l-36 39 32 46 c44 64 33 104 -20 69z"/>
<path d="M831 1334 c-197 -69 -303 -281 -242 -483 20 -66 87 -168 116 -178 6
-1 31 30 57 70 l48 72 -38 11 c-20 6 -38 17 -40 26 -1 8 29 50 68 93 38 44 70
82 70 86 0 4 -18 10 -39 14 -22 4 -42 12 -44 20 -7 18 15 37 181 150 79 53
140 101 135 105 -35 32 -197 40 -272 14z"/>
</g>
</svg>
