<?xml version="1.0" standalone="no"?>
<!DOCTYPE svg PUBLIC "-//W3C//DTD SVG 20010904//EN"
 "http://www.w3.org/TR/2001/REC-SVG-20010904/DTD/svg10.dtd">
<svg version="1.0" xmlns="http://www.w3.org/2000/svg"
 width="192.000000pt" height="192.000000pt" viewBox="0 0 192.000000 192.000000"
 preserveAspectRatio="xMidYMid meet">
<metadata>
Created by potrace 1.16, written by Peter Selinger 2001-2019
</metadata>
<g transform="translate(0.000000,192.000000) scale(0.100000,-0.100000)"
fill="#000000" stroke="none">
811 c445 -92 729 -532 635 -987 -62 -301 -295 -546 -601 -630 -91 -26 -329
-26 -420 0 -291 80 -516 305 -596 596 -26 91 -26 329 0 420 120 433 542 692
982 601z"/>
<path d="M870 1327 c-40 -14 -51 -48 -26 -82 12 -17 27 -20 136 -20 116 -1
123 0 137 21 39 61 -8 93 -137 93 -41 0 -91 -5 -110 -12z"/>
<path d="M1258 1263 c-31 -36 -88 -145 -88 -167 0 -32 15 -36 124 -36 135 0
141 13 68 135 -51 84 -75 101 -104 68z"/>
<path d="M697 1220 c-42 -46 -83 -121 -92 -171 -8 -45 10 -61 61 -57 36 3 39
6 59 56 11 30 35 71 53 92 36 44 39 60 16 95 -24 37 -56 32 -97 -15z"/>
<path d="M611 926 c-25 -30 15 -136 81 -211 45 -51 78 -58 102 -23 23 33 20
55 -16 98 -18 21 -42 62 -53 92 -20 51 -22 53 -61 56 -27 2 -45 -2 -53 -12z"/>
<path d="M1252 923 c-5 -10 -15 -34 -21 -54 -6 -20 -27 -54 -46 -77 -19 -22
-35 -49 -35 -59 0 -29 29 -63 54 -63 62 0 183 211 146 255 -18 22 -87 20 -98
-2z"/>
<path d="M844 686 c-17 -25 -18 -60 -1 -74 37 -31 210 -33 267 -2 23 12 26 48
6 75 -12 17 -28 20 -136 20 -111 0 -123 -1 -136 -19z"/>
</g>
</svg>
