<?xml version="1.0" standalone="no"?>
<!DOCTYPE svg PUBLIC "-//W3C//DTD SVG 20010904//EN"
 "http://www.w3.org/TR/2001/REC-SVG-20010904/DTD/svg10.dtd">
<svg version="1.0" xmlns="http://www.w3.org/2000/svg"
 width="192.000000pt" height="192.000000pt" viewBox="0 0 192.000000 192.000000"
 preserveAspectRatio="xMidYMid meet">
<metadata>
Created by potrace 1.16, written by Peter Selinger 2001-2019
</metadata>
<g transform="translate(0.000000,192.000000) scale(0.100000,-0.100000)"
fill="#000000" stroke="none">
810 c245 -63 441 -223 549 -451 55 -116 75 -212 75 -354 0 -141 -20 -238 -75
-352 -86 -182 -215 -312 -396 -398 -116 -55 -212 -75 -354 -75 -142 0 -238 20
-354 75 -228 108 -388 304 -451 549 -28 110 -28 292 0 402 76 298 303 526 600
603 106 28 298 28 406 1z"/>
<path d="M921 1366 c-7 -8 -11 -36 -9 -63 l3 -48 40 0 c39 0 40 1 43 39 5 64
-4 86 -37 86 -16 0 -34 -6 -40 -14z"/>
<path d="M632 1247 c-29 -31 -28 -37 11 -75 40 -39 47 -39 77 -7 l24 25 -39
40 c-22 22 -42 40 -45 40 -4 0 -16 -10 -28 -23z"/>
<path d="M1205 1230 l-39 -40 24 -25 c13 -14 29 -25 35 -25 14 0 75 62 75 76
0 10 -42 54 -51 54 -3 0 -22 -18 -44 -40z"/>
<path d="M710 1071 c-5 -11 -10 -55 -10 -98 l0 -79 65 -64 65 -64 0 -103 0
-103 125 0 125 0 0 103 0 103 65 64 65 64 0 79 c0 125 18 117 -255 117 -221 0
-235 -1 -245 -19z m278 -347 c3 -78 -10 -101 -48 -89 -18 6 -20 15 -20 79 0
40 3 76 7 80 4 4 19 6 33 4 24 -3 25 -6 28 -74z"/>
</g>
</svg>
