<?xml version="1.0" standalone="no"?>
<!DOCTYPE svg PUBLIC "-//W3C//DTD SVG 20010904//EN"
 "http://www.w3.org/TR/2001/REC-SVG-20010904/DTD/svg10.dtd">
<svg version="1.0" xmlns="http://www.w3.org/2000/svg"
 width="192.000000pt" height="192.000000pt" viewBox="0 0 192.000000 192.000000"
 preserveAspectRatio="xMidYMid meet">
<metadata>
Created by potrace 1.16, written by Peter Selinger 2001-2019
</metadata>
<g transform="translate(0.000000,192.000000) scale(0.100000,-0.100000)"
fill="#000000" stroke="none">
810 c245 -63 441 -223 549 -451 55 -116 75 -212 75 -354 0 -141 -20 -238 -75
-352 -86 -182 -215 -312 -396 -398 -116 -55 -212 -75 -354 -75 -142 0 -238 20
-354 75 -228 108 -388 304 -451 549 -28 110 -28 292 0 402 76 298 303 526 600
603 106 28 298 28 406 1z"/>
<path d="M922 1368 c-7 -7 -12 -34 -12 -60 l0 -48 45 0 45 0 0 48 c0 52 -12
72 -45 72 -12 0 -26 -5 -33 -12z"/>
<path d="M631 1246 c-26 -28 -22 -40 27 -81 l34 -28 26 26 26 27 -39 40 c-21
22 -42 40 -45 40 -4 0 -17 -11 -29 -24z"/>
<path d="M1205 1230 l-39 -40 26 -27 26 -26 34 28 c49 41 53 53 27 81 -12 13
-25 24 -29 24 -3 0 -24 -18 -45 -40z"/>
<path d="M710 1064 c-6 -14 -10 -58 -10 -97 l0 -73 65 -64 65 -64 0 -103 0
-103 125 0 125 0 0 103 0 103 65 64 65 64 0 79 c0 125 18 117 -256 117 l-234
0 -10 -26z m278 -337 c3 -69 -7 -97 -34 -97 -27 0 -44 31 -44 81 0 66 14 91
48 87 26 -3 27 -6 30 -71z"/>
</g>
</svg>
