<?xml version="1.0" standalone="no"?>
<!DOCTYPE svg PUBLIC "-//W3C//DTD SVG 20010904//EN"
 "http://www.w3.org/TR/2001/REC-SVG-20010904/DTD/svg10.dtd">
<svg version="1.0" xmlns="http://www.w3.org/2000/svg"
 width="192.000000pt" height="192.000000pt" viewBox="0 0 192.000000 192.000000"
 preserveAspectRatio="xMidYMid meet">
<metadata>
Created by potrace 1.16, written by Peter Selinger 2001-2019
</metadata>
<g transform="translate(0.000000,192.000000) scale(0.100000,-0.100000)"
fill="#000000" stroke="none">
811 c445 -92 729 -532 635 -987 -62 -301 -295 -546 -601 -630 -91 -26 -329
-26 -420 0 -291 80 -516 305 -596 596 -26 91 -26 329 0 420 120 433 542 692
982 601z"/>
<path d="M731 1356 c-45 -25 -50 -48 -51 -246 0 -222 3 -230 81 -230 80 0 89
-15 89 -158 0 -127 6 -146 51 -157 19 -5 33 0 51 17 37 35 270 416 266 436 -3
14 -18 18 -93 22 -71 4 -90 8 -93 21 -1 8 20 59 48 112 27 54 50 106 50 118 0
11 -13 34 -29 50 l-29 29 -159 0 c-112 -1 -165 -5 -182 -14z"/>
</g>
</svg>
