<?xml version="1.0" standalone="no"?>
<!DOCTYPE svg PUBLIC "-//W3C//DTD SVG 20010904//EN"
 "http://www.w3.org/TR/2001/REC-SVG-20010904/DTD/svg10.dtd">
<svg version="1.0" xmlns="http://www.w3.org/2000/svg"
 width="192.000000pt" height="192.000000pt" viewBox="0 0 192.000000 192.000000"
 preserveAspectRatio="xMidYMid meet">
<metadata>
Created by potrace 1.16, written by Peter Selinger 2001-2019
</metadata>
<g transform="translate(0.000000,192.000000) scale(0.100000,-0.100000)"
fill="#000000" stroke="none">
811 c445 -92 729 -532 635 -987 -62 -301 -295 -546 -601 -630 -91 -26 -329
-26 -420 0 -291 80 -516 305 -596 596 -26 91 -26 329 0 420 120 433 542 692
982 601z"/>
<path d="M895 1360 c-11 -4 -33 -22 -49 -38 -32 -35 -45 -102 -28 -150 9 -26
7 -33 -16 -56 -20 -18 -31 -23 -42 -16 -27 17 -113 11 -147 -10 -91 -55 -84
-209 11 -254 36 -17 98 -20 131 -6 15 6 27 1 47 -17 23 -22 25 -29 16 -55 -19
-53 -4 -116 35 -156 32 -31 43 -36 94 -39 75 -5 116 19 145 84 19 42 19 52 8
96 -12 47 -11 50 13 74 20 21 28 23 45 14 62 -33 157 1 193 69 52 97 -19 210
-133 210 -27 0 -57 -4 -67 -10 -14 -7 -23 -4 -41 15 -21 23 -22 27 -10 70 26
94 -43 186 -140 184 -25 0 -54 -4 -65 -9z m97 -97 c36 -33 13 -93 -37 -93 -24
0 -55 33 -55 57 0 19 37 53 57 53 9 0 25 -7 35 -17z m-2 -182 c29 6 39 4 60
-16 23 -22 25 -31 24 -96 -1 -61 -5 -74 -27 -96 -21 -22 -33 -25 -92 -25 -59
0 -70 3 -95 27 -23 22 -26 32 -21 58 4 18 4 46 1 62 -5 24 -1 36 23 61 24 27
33 31 60 25 18 -4 48 -4 67 0z m-258 -78 c34 -31 11 -93 -35 -93 -27 0 -57 28
-57 53 0 48 56 73 92 40z m519 7 c23 -13 26 -62 3 -84 -21 -22 -50 -20 -74 4
-24 24 -25 38 -4 68 16 24 44 28 75 12z m-257 -266 c37 -37 1 -103 -49 -90
-14 4 -31 17 -37 31 -23 52 46 100 86 59z"/>
</g>
</svg>
