<?xml version="1.0" standalone="no"?>
<!DOCTYPE svg PUBLIC "-//W3C//DTD SVG 20010904//EN"
 "http://www.w3.org/TR/2001/REC-SVG-20010904/DTD/svg10.dtd">
<svg version="1.0" xmlns="http://www.w3.org/2000/svg"
 width="192.000000pt" height="192.000000pt" viewBox="0 0 192.000000 192.000000"
 preserveAspectRatio="xMidYMid meet">
<metadata>
Created by potrace 1.16, written by Peter Selinger 2001-2019
</metadata>
<g transform="translate(0.000000,192.000000) scale(0.100000,-0.100000)"
fill="#000000" stroke="none">
811 c445 -92 729 -532 635 -987 -62 -301 -295 -546 -601 -630 -91 -26 -329
-26 -420 0 -291 80 -516 305 -596 596 -26 91 -26 329 0 420 120 433 542 692
982 601z"/>
<path d="M850 1354 c-119 -32 -208 -107 -264 -224 -28 -59 -31 -74 -31 -165 0
-92 3 -106 32 -167 78 -165 256 -260 430 -231 137 24 248 107 306 231 29 61
32 75 32 167 0 91 -3 106 -31 165 -40 82 -87 136 -155 177 -100 59 -211 76
-319 47z m241 -96 c65 -30 122 -85 157 -153 23 -43 27 -62 27 -140 0 -78 -4
-97 -27 -140 -35 -68 -92 -122 -158 -154 -78 -37 -192 -37 -270 0 -66 32 -123
86 -158 154 -23 43 -27 62 -27 140 0 78 4 97 27 140 85 162 269 227 429 153z"/>
<path d="M880 1251 c-133 -43 -220 -157 -220 -286 0 -107 65 -211 164 -263 43
-22 64 -27 131 -27 67 0 88 5 131 27 28 15 70 48 93 74 159 181 34 468 -209
480 -36 2 -76 0 -90 -5z m191 -105 c21 -14 51 -45 66 -68 24 -36 28 -52 28
-113 0 -61 -4 -77 -28 -113 -15 -23 -46 -54 -69 -69 -36 -24 -52 -28 -113 -28
-61 0 -77 4 -113 28 -84 55 -122 160 -92 252 16 48 88 121 132 134 55 17 144
6 189 -23z"/>
<path d="M872 1129 c-123 -62 -135 -241 -21 -316 118 -78 273 -4 287 137 13
141 -139 244 -266 179z m137 -73 c91 -48 51 -196 -53 -196 -60 0 -106 47 -106
107 1 80 85 127 159 89z"/>
<path d="M920 1000 c-11 -11 -20 -27 -20 -35 0 -18 35 -55 53 -55 24 0 57 31
57 54 0 26 -28 56 -53 56 -9 0 -26 -9 -37 -20z"/>
</g>
</svg>
