<?xml version="1.0" standalone="no"?>
<!DOCTYPE svg PUBLIC "-//W3C//DTD SVG 20010904//EN"
 "http://www.w3.org/TR/2001/REC-SVG-20010904/DTD/svg10.dtd">
<svg version="1.0" xmlns="http://www.w3.org/2000/svg"
 width="192.000000pt" height="192.000000pt" viewBox="0 0 192.000000 192.000000"
 preserveAspectRatio="xMidYMid meet">
<metadata>
Created by potrace 1.16, written by Peter Selinger 2001-2019
</metadata>
<g transform="translate(0.000000,192.000000) scale(0.100000,-0.100000)"
fill="#000000" stroke="none">
811 c445 -92 729 -532 635 -987 -62 -301 -295 -546 -601 -630 -91 -26 -329
-26 -420 0 -291 80 -516 305 -596 596 -26 91 -26 329 0 420 120 433 542 692
982 601z"/>
<path d="M660 1374 c-46 -20 -77 -50 -103 -99 -21 -38 -22 -52 -22 -347 0
-294 1 -308 21 -335 32 -44 81 -65 136 -59 98 10 128 57 128 195 l0 91 88 0
c69 0 94 4 119 20 54 32 66 61 71 171 l5 99 94 0 c63 0 103 5 122 15 42 21 64
76 59 143 -4 48 -10 60 -41 89 l-37 33 -302 0 c-248 -1 -309 -4 -338 -16z"/>
</g>
</svg>
