<?xml version="1.0" standalone="no"?>
<!DOCTYPE svg PUBLIC "-//W3C//DTD SVG 20010904//EN"
 "http://www.w3.org/TR/2001/REC-SVG-20010904/DTD/svg10.dtd">
<svg version="1.0" xmlns="http://www.w3.org/2000/svg"
 width="192.000000pt" height="192.000000pt" viewBox="0 0 192.000000 192.000000"
 preserveAspectRatio="xMidYMid meet">
<metadata>
Created by potrace 1.16, written by Peter Selinger 2001-2019
</metadata>
<g transform="translate(0.000000,192.000000) scale(0.100000,-0.100000)"
fill="#000000" stroke="none">
811 c445 -92 729 -532 635 -987 -62 -301 -295 -546 -601 -630 -91 -26 -329
-26 -420 0 -291 80 -516 305 -596 596 -26 91 -26 329 0 420 120 433 542 692
982 601z"/>
<path d="M759 1341 c-16 -16 -29 -40 -29 -53 0 -13 24 -65 53 -114 l54 -91
-24 -27 c-12 -15 -26 -39 -29 -54 -3 -15 -7 -32 -9 -38 -3 -11 -28 -16 -149
-30 -72 -8 -106 -36 -106 -85 0 -33 54 -114 157 -236 38 -45 50 -53 79 -53 56
0 73 16 119 116 44 93 44 94 80 94 36 0 36 -1 80 -94 46 -100 63 -116 118
-116 40 0 50 10 165 161 77 102 88 137 55 178 -20 24 -62 36 -170 46 l-71 7
-6 34 c-4 18 -18 47 -31 63 -14 16 -25 32 -25 36 0 4 23 44 50 90 58 96 63
130 24 169 -27 26 -27 26 -191 26 l-165 0 -29 -29z m240 -316 c80 -41 56 -160
-35 -172 -33 -4 -45 -1 -72 22 -27 22 -32 34 -32 70 0 36 5 48 31 69 34 29 67
33 108 11z"/>
</g>
</svg>
