<?xml version="1.0" standalone="no"?>
<!DOCTYPE svg PUBLIC "-//W3C//DTD SVG 20010904//EN"
 "http://www.w3.org/TR/2001/REC-SVG-20010904/DTD/svg10.dtd">
<svg version="1.0" xmlns="http://www.w3.org/2000/svg"
 width="192.000000pt" height="192.000000pt" viewBox="0 0 192.000000 192.000000"
 preserveAspectRatio="xMidYMid meet">
<metadata>
Created by potrace 1.16, written by Peter Selinger 2001-2019
</metadata>
<g transform="translate(0.000000,192.000000) scale(0.100000,-0.100000)"
fill="#000000" stroke="none">
811 c445 -92 729 -532 635 -987 -62 -301 -295 -546 -601 -630 -91 -26 -329
-26 -420 0 -291 80 -516 305 -596 596 -26 91 -26 329 0 420 120 433 542 692
982 601z"/>
<path d="M892 1349 c-42 -13 -111 -81 -119 -119 -5 -25 -10 -30 -36 -30 -44 0
-110 -35 -130 -69 -15 -25 -17 -58 -17 -246 0 -200 2 -220 20 -250 33 -54 76
-66 225 -63 l130 3 0 60 0 60 -92 3 c-111 3 -126 22 -18 22 43 0 75 4 75 10 0
6 -9 10 -20 10 -11 0 -20 5 -20 10 0 6 14 10 30 10 17 0 30 5 30 10 0 6 -23
10 -51 10 -31 0 -48 4 -44 10 3 6 30 10 60 10 l54 0 3 83 3 82 135 3 c118 2
136 0 147 -15 36 -49 2 -73 -103 -73 l-84 0 0 -45 c0 -44 1 -45 33 -45 47 0
72 -20 64 -52 -7 -26 -30 -38 -74 -38 -22 0 -23 -4 -23 -65 l0 -65 68 0 c80 0
127 20 159 69 22 33 23 42 23 246 0 204 -1 213 -23 246 -26 39 -79 69 -122 69
-26 0 -33 5 -44 35 -33 93 -138 143 -239 114z m128 -75 c15 -9 35 -30 44 -45
l17 -29 -126 0 -126 0 16 30 c29 56 116 78 175 44z"/>
</g>
</svg>
