<?xml version="1.0" standalone="no"?>
<!DOCTYPE svg PUBLIC "-//W3C//DTD SVG 20010904//EN"
 "http://www.w3.org/TR/2001/REC-SVG-20010904/DTD/svg10.dtd">
<svg version="1.0" xmlns="http://www.w3.org/2000/svg"
 width="192.000000pt" height="192.000000pt" viewBox="0 0 192.000000 192.000000"
 preserveAspectRatio="xMidYMid meet">
<metadata>
Created by potrace 1.16, written by Peter Selinger 2001-2019
</metadata>
<g transform="translate(0.000000,192.000000) scale(0.100000,-0.100000)"
fill="#000000" stroke="none">
811 c445 -92 729 -532 635 -987 -62 -301 -295 -546 -601 -630 -91 -26 -329
-26 -420 0 -291 80 -516 305 -596 596 -26 91 -26 329 0 420 120 433 542 692
982 601z"/>
<path d="M947 1189 c-32 -25 -35 -61 -7 -89 41 -41 100 -13 100 47 0 52 -51
76 -93 42z"/>
<path d="M599 1137 c-19 -13 -39 -38 -46 -57 -14 -40 -17 -348 -4 -368 5 -9
24 -12 52 -10 l44 3 3 92 c3 92 3 92 30 95 25 3 27 6 27 53 0 47 -2 50 -27 53
-40 5 -38 40 2 55 28 10 30 15 30 59 l0 48 -39 0 c-23 0 -51 -9 -72 -23z"/>
<path d="M752 1148 c-18 -18 -16 -338 2 -383 22 -52 103 -84 134 -53 21 21 14
66 -13 84 -25 16 -25 17 -25 171 0 87 -4 163 -10 174 -12 22 -68 27 -88 7z"/>
<path d="M953 1040 c-22 -9 -23 -13 -23 -163 0 -106 4 -157 12 -165 20 -20 76
-15 88 7 15 29 13 296 -2 309 -21 16 -52 21 -75 12z"/>
<path d="M1137 1040 c-57 -17 -57 -16 -57 -231 0 -216 3 -229 59 -229 39 0 51
17 51 72 l0 48 40 0 c23 0 54 7 70 15 51 26 60 50 60 153 0 109 -15 147 -65
168 -37 15 -114 17 -158 4z m115 -94 c12 -18 9 -131 -4 -144 -7 -7 -22 -12
-35 -12 -22 0 -23 3 -23 84 0 86 6 100 40 88 8 -3 18 -10 22 -16z"/>
</g>
</svg>
