<?xml version="1.0" standalone="no"?>
<!DOCTYPE svg PUBLIC "-//W3C//DTD SVG 20010904//EN"
 "http://www.w3.org/TR/2001/REC-SVG-20010904/DTD/svg10.dtd">
<svg version="1.0" xmlns="http://www.w3.org/2000/svg"
 width="192.000000pt" height="192.000000pt" viewBox="0 0 192.000000 192.000000"
 preserveAspectRatio="xMidYMid meet">
<metadata>
Created by potrace 1.16, written by Peter Selinger 2001-2019
</metadata>
<g transform="translate(0.000000,192.000000) scale(0.100000,-0.100000)"
fill="#000000" stroke="none">
811 c445 -92 729 -532 635 -987 -62 -301 -295 -546 -601 -630 -91 -26 -329
-26 -420 0 -291 80 -516 305 -596 596 -26 91 -26 329 0 420 120 433 542 692
982 601z"/>
<path d="M566 1284 c-9 -24 -7 -257 3 -272 5 -8 21 -12 37 -10 27 3 29 6 32
56 l3 52 50 0 c48 0 49 1 49 30 0 29 -1 30 -50 30 -49 0 -50 1 -50 30 0 30 1
30 54 30 57 0 75 15 60 54 -9 23 -179 24 -188 0z"/>
<path d="M785 1288 c-3 -8 -4 -75 -3 -149 l3 -134 90 0 90 0 3 33 3 32 -55 0
-55 0 -3 113 -3 112 -33 3 c-20 2 -34 -2 -37 -10z"/>
<path d="M1002 1153 l3 -148 33 -3 32 -3 0 150 0 151 -35 0 -36 0 3 -147z"/>
<path d="M1110 1290 c0 -5 12 -39 27 -74 l26 -65 -26 -63 c-35 -81 -34 -88 7
-88 32 0 35 4 56 56 l23 56 22 -53 c19 -48 25 -54 53 -57 44 -4 48 13 17 79
-31 67 -31 75 0 145 14 31 22 60 19 65 -3 5 -19 9 -35 9 -27 0 -33 -6 -53 -51
l-22 -51 -22 51 c-20 48 -23 51 -56 51 -20 0 -36 -4 -36 -10z"/>
<path d="M564 937 c-2 -7 -3 -76 -2 -152 l3 -140 89 -3 c118 -4 136 7 136 84
0 39 -4 56 -15 60 -13 5 -13 8 0 21 24 24 19 90 -10 118 -22 23 -32 25 -110
25 -61 0 -87 -4 -91 -13z m146 -82 c0 -18 -7 -26 -24 -31 -32 -8 -46 2 -46 32
0 21 5 24 35 24 31 0 35 -3 35 -25z m-5 -120 c0 -27 -3 -30 -30 -30 -21 0 -31
5 -33 18 -6 33 6 49 35 45 24 -3 28 -8 28 -33z"/>
<path d="M837 943 c-12 -11 -8 -240 4 -267 16 -34 68 -50 136 -43 89 9 93 16
93 179 l0 139 -37 -3 -38 -3 -5 -120 c-5 -116 -6 -120 -28 -123 -45 -7 -52 12
-52 134 l0 114 -33 0 c-19 0 -37 -3 -40 -7z"/>
<path d="M1135 930 c-23 -25 -26 -110 -5 -135 7 -8 39 -23 72 -32 49 -14 58
-20 58 -40 0 -19 -5 -23 -30 -23 -24 0 -30 4 -30 21 0 17 -5 20 -37 17 -32 -3
-38 -7 -41 -29 -2 -14 6 -36 17 -50 17 -21 27 -24 89 -24 92 0 112 16 112 92
0 54 -22 93 -52 93 -7 0 -30 5 -50 11 -31 8 -38 15 -38 34 0 20 5 25 24 25 16
0 26 -7 29 -21 5 -17 12 -20 44 -17 36 3 38 5 35 33 -6 53 -26 65 -107 65 -60
0 -75 -3 -90 -20z"/>
</g>
</svg>
