<?xml version="1.0" standalone="no"?>
<!DOCTYPE svg PUBLIC "-//W3C//DTD SVG 20010904//EN"
 "http://www.w3.org/TR/2001/REC-SVG-20010904/DTD/svg10.dtd">
<svg version="1.0" xmlns="http://www.w3.org/2000/svg"
 width="192.000000pt" height="192.000000pt" viewBox="0 0 192.000000 192.000000"
 preserveAspectRatio="xMidYMid meet">
<metadata>
Created by potrace 1.16, written by Peter Selinger 2001-2019
</metadata>
<g transform="translate(0.000000,192.000000) scale(0.100000,-0.100000)"
fill="#000000" stroke="none">
811 c445 -92 729 -532 635 -987 -62 -301 -295 -546 -601 -630 -91 -26 -329
-26 -420 0 -291 80 -516 305 -596 596 -26 91 -26 329 0 420 120 433 542 692
982 601z"/>
<path d="M991 1370 c-48 -21 -99 -71 -130 -129 -34 -65 -71 -193 -71 -249 0
-20 -3 -33 -6 -29 -3 3 -6 36 -6 72 1 65 0 66 -19 49 -35 -32 -72 -125 -77
-196 -3 -38 -7 -68 -11 -68 -3 0 -15 7 -25 15 -29 22 -39 18 -22 -7 44 -62 -6
-168 -79 -168 -8 0 -15 -4 -15 -8 0 -13 115 5 189 29 103 33 187 81 276 158
35 30 33 28 -10 -18 -62 -66 -172 -140 -255 -171 l-63 -24 38 -13 c22 -7 49
-23 62 -35 22 -20 23 -21 23 -2 0 18 8 19 113 19 100 0 118 3 167 26 30 15 64
34 75 43 19 14 16 15 -45 11 -45 -4 -59 -2 -45 4 11 5 28 10 37 10 44 2 132
46 182 92 79 72 100 127 101 259 0 87 -4 113 -22 153 -56 120 -138 178 -263
184 -41 2 -86 -2 -99 -7z"/>
</g>
</svg>
