<?xml version="1.0" standalone="no"?>
<!DOCTYPE svg PUBLIC "-//W3C//DTD SVG 20010904//EN"
 "http://www.w3.org/TR/2001/REC-SVG-20010904/DTD/svg10.dtd">
<svg version="1.0" xmlns="http://www.w3.org/2000/svg"
 width="192.000000pt" height="192.000000pt" viewBox="0 0 192.000000 192.000000"
 preserveAspectRatio="xMidYMid meet">
<metadata>
Created by potrace 1.16, written by Peter Selinger 2001-2019
</metadata>
<g transform="translate(0.000000,192.000000) scale(0.100000,-0.100000)"
fill="#000000" stroke="none">
811 c445 -92 729 -532 635 -987 -62 -301 -295 -546 -601 -630 -91 -26 -329
-26 -420 0 -291 80 -516 305 -596 596 -26 91 -26 329 0 420 120 433 542 692
982 601z"/>
<path d="M895 1358 c-40 -31 -72 -68 -85 -98 -9 -23 -15 -25 -58 -22 -109 8
-178 -37 -175 -112 1 -44 34 -126 58 -146 10 -9 7 -22 -20 -66 -87 -143 -42
-227 122 -229 72 -1 73 -1 101 -41 49 -65 77 -86 117 -86 40 0 89 38 125 96
17 27 22 28 97 30 91 2 134 20 153 65 17 41 -2 117 -42 173 -25 33 -28 45 -19
57 30 40 54 110 55 154 1 41 -3 52 -26 72 -30 26 -93 39 -161 34 -43 -4 -45
-3 -67 37 -49 93 -119 126 -175 82z m93 -82 c45 -51 48 -71 18 -107 -14 -17
-26 -35 -26 -40 0 -5 -10 -9 -23 -9 -15 0 -36 15 -59 44 -35 42 -36 44 -22 72
20 37 54 74 70 74 6 0 25 -15 42 -34z m-151 -149 c33 -37 41 -57 23 -57 -5 0
-19 -9 -30 -20 -16 -16 -18 -25 -10 -45 9 -24 8 -25 -31 -25 -23 0 -54 7 -69
17 -34 20 -69 78 -72 123 -3 28 1 35 22 41 14 5 49 7 79 5 48 -3 58 -7 88 -39z
m405 32 c16 -9 19 -17 14 -41 -16 -81 -71 -138 -134 -138 -27 0 -30 3 -28 33
1 27 -4 34 -31 46 -18 8 -33 19 -33 24 0 5 17 27 39 48 36 36 43 39 95 39 32
0 66 -5 78 -11z m-443 -255 c20 -4 22 -9 17 -37 -3 -18 -9 -48 -12 -69 -5 -26
-13 -38 -28 -42 -58 -16 -136 4 -136 35 0 26 27 89 47 111 16 18 33 18 112 2z
m425 -14 c14 -17 31 -49 37 -71 17 -54 5 -64 -79 -64 l-67 0 -7 45 c-19 114
-22 109 74 118 9 1 28 -12 42 -28z m-265 -90 c6 0 23 12 36 26 l24 25 12 -23
c21 -39 14 -105 -17 -149 -49 -71 -75 -70 -119 5 -27 45 -32 96 -15 142 l11
27 27 -26 c16 -15 34 -27 41 -27z"/>
</g>
</svg>
