<?xml version="1.0" standalone="no"?>
<!DOCTYPE svg PUBLIC "-//W3C//DTD SVG 20010904//EN"
 "http://www.w3.org/TR/2001/REC-SVG-20010904/DTD/svg10.dtd">
<svg version="1.0" xmlns="http://www.w3.org/2000/svg"
 width="192.000000pt" height="192.000000pt" viewBox="0 0 192.000000 192.000000"
 preserveAspectRatio="xMidYMid meet">
<metadata>
Created by potrace 1.16, written by Peter Selinger 2001-2019
</metadata>
<g transform="translate(0.000000,192.000000) scale(0.100000,-0.100000)"
fill="#000000" stroke="none">
811 c445 -92 729 -532 635 -987 -62 -301 -295 -546 -601 -630 -91 -26 -329
-26 -420 0 -291 80 -516 305 -596 596 -26 91 -26 329 0 420 120 433 542 692
982 601z"/>
<path d="M1099 1304 c-25 -29 -30 -52 -17 -79 11 -25 24 -32 75 -41 39 -7 53
-22 53 -55 0 -57 -12 -59 -355 -59 l-312 0 -21 -23 c-27 -29 -28 -57 -3 -88
l19 -24 297 -3 c355 -4 391 1 451 62 89 89 80 215 -21 292 -48 37 -141 46
-166 18z"/>
<path d="M799 879 c-48 -18 -58 -89 -17 -116 7 -4 99 -10 203 -13 l190 -5 0
-24 c0 -19 -7 -26 -30 -33 -36 -9 -55 -33 -55 -68 0 -60 86 -81 150 -37 121
81 87 264 -56 297 -51 12 -352 11 -385 -1z"/>
</g>
</svg>
