<?xml version="1.0" standalone="no"?>
<!DOCTYPE svg PUBLIC "-//W3C//DTD SVG 20010904//EN"
 "http://www.w3.org/TR/2001/REC-SVG-20010904/DTD/svg10.dtd">
<svg version="1.0" xmlns="http://www.w3.org/2000/svg"
 width="192.000000pt" height="192.000000pt" viewBox="0 0 192.000000 192.000000"
 preserveAspectRatio="xMidYMid meet">
<metadata>
Created by potrace 1.16, written by Peter Selinger 2001-2019
</metadata>
<g transform="translate(0.000000,192.000000) scale(0.100000,-0.100000)"
fill="#000000" stroke="none">
811 c445 -92 729 -532 635 -987 -62 -301 -295 -546 -601 -630 -91 -26 -329
-26 -420 0 -291 80 -516 305 -596 596 -26 91 -26 329 0 420 120 433 542 692
982 601z"/>
<path d="M695 1321 c-49 -22 -91 -69 -106 -119 -7 -24 -9 -116 -7 -259 l3
-221 30 -43 c56 -79 77 -84 340 -84 263 0 284 5 340 84 l30 43 3 221 c4 240
-1 275 -45 328 -53 62 -83 69 -328 69 -192 0 -225 -3 -260 -19z m118 -292 c10
-13 17 -38 17 -64 0 -36 -5 -48 -31 -69 -43 -36 -91 -35 -130 3 -21 21 -29 39
-29 64 0 41 39 94 73 99 34 6 80 -10 100 -33z m431 0 c36 -43 35 -91 -3 -130
-39 -38 -87 -39 -130 -3 -26 22 -31 33 -31 70 0 34 6 51 25 69 18 19 35 25 69
25 37 0 48 -5 70 -31z m-328 -94 c29 -32 49 -32 79 1 24 25 55 28 55 4 0 -18
-46 -59 -74 -66 -33 -8 -83 12 -103 42 -29 44 5 59 43 19z"/>
</g>
</svg>
