<?xml version="1.0" standalone="no"?>
<!DOCTYPE svg PUBLIC "-//W3C//DTD SVG 20010904//EN"
 "http://www.w3.org/TR/2001/REC-SVG-20010904/DTD/svg10.dtd">
<svg version="1.0" xmlns="http://www.w3.org/2000/svg"
 width="192.000000pt" height="192.000000pt" viewBox="0 0 192.000000 192.000000"
 preserveAspectRatio="xMidYMid meet">
<metadata>
Created by potrace 1.16, written by Peter Selinger 2001-2019
</metadata>
<g transform="translate(0.000000,192.000000) scale(0.100000,-0.100000)"
fill="#000000" stroke="none">
811 c445 -92 729 -532 635 -987 -62 -301 -295 -546 -601 -630 -91 -26 -329
-26 -420 0 -291 80 -516 305 -596 596 -26 91 -26 329 0 420 120 433 542 692
982 601z"/>
<path d="M688 1320 c-48 -26 -84 -73 -98 -131 -7 -29 -10 -118 -8 -251 l3
-205 30 -48 c52 -83 74 -89 320 -93 270 -4 312 7 366 101 23 40 24 52 27 252
4 226 -2 266 -45 323 -50 67 -75 72 -330 72 -206 -1 -232 -3 -265 -20z m502
-58 c66 -33 71 -52 68 -298 l-3 -218 -37 60 c-47 77 -68 95 -116 101 -35 5
-44 1 -78 -30 l-38 -35 -46 67 c-91 133 -169 129 -264 -14 l-26 -40 0 165 c0
256 3 259 305 260 171 0 205 -3 235 -18z"/>
<path d="M1044 1206 c-28 -28 -34 -42 -34 -76 0 -34 6 -48 34 -76 28 -28 42
-34 76 -34 34 0 48 6 76 34 28 28 34 42 34 76 0 34 -6 48 -34 76 -28 28 -42
34 -76 34 -34 0 -48 -6 -76 -34z"/>
</g>
</svg>
