<?xml version="1.0" standalone="no"?>
<!DOCTYPE svg PUBLIC "-//W3C//DTD SVG 20010904//EN"
 "http://www.w3.org/TR/2001/REC-SVG-20010904/DTD/svg10.dtd">
<svg version="1.0" xmlns="http://www.w3.org/2000/svg"
 width="192.000000pt" height="192.000000pt" viewBox="0 0 192.000000 192.000000"
 preserveAspectRatio="xMidYMid meet">
<metadata>
Created by potrace 1.16, written by Peter Selinger 2001-2019
</metadata>
<g transform="translate(0.000000,192.000000) scale(0.100000,-0.100000)"
fill="#000000" stroke="none">
811 c445 -92 729 -532 635 -987 -62 -301 -295 -546 -601 -630 -91 -26 -329
-26 -420 0 -291 80 -516 305 -596 596 -26 91 -26 329 0 420 120 433 542 692
982 601z"/>
<path d="M707 1325 c-48 -16 -83 -48 -108 -97 -17 -33 -19 -61 -19 -263 0
-170 3 -234 14 -258 17 -39 71 -92 109 -106 38 -15 466 -15 504 0 38 14 92 67
109 106 11 24 14 87 14 255 0 195 -3 228 -19 263 -22 50 -69 91 -119 105 -57
15 -438 12 -485 -5z m431 -267 c23 -23 12 -64 -65 -236 l-77 -173 -75 3 -76 3
-10 87 c-6 48 -14 91 -19 95 -4 4 -44 31 -89 58 l-82 51 -3 62 -3 62 244 0
c176 0 246 -3 255 -12z m-378 -335 c6 -36 9 -68 6 -70 -9 -10 -80 32 -100 59
-13 18 -21 49 -24 89 l-5 61 56 -37 c54 -36 55 -38 67 -102z"/>
</g>
</svg>
