<?xml version="1.0" standalone="no"?>
<!DOCTYPE svg PUBLIC "-//W3C//DTD SVG 20010904//EN"
 "http://www.w3.org/TR/2001/REC-SVG-20010904/DTD/svg10.dtd">
<svg version="1.0" xmlns="http://www.w3.org/2000/svg"
 width="192.000000pt" height="192.000000pt" viewBox="0 0 192.000000 192.000000"
 preserveAspectRatio="xMidYMid meet">
<metadata>
Created by potrace 1.16, written by Peter Selinger 2001-2019
</metadata>
<g transform="translate(0.000000,192.000000) scale(0.100000,-0.100000)"
fill="#000000" stroke="none">
810 c245 -63 441 -223 549 -451 55 -116 75 -212 75 -354 0 -141 -20 -238 -75
-352 -86 -182 -215 -312 -396 -398 -116 -55 -212 -75 -354 -75 -142 0 -238 20
-354 75 -228 108 -388 304 -451 549 -28 110 -28 292 0 402 76 298 303 526 600
603 106 28 298 28 406 1z"/>
<path d="M850 1364 c-114 -31 -206 -109 -262 -222 -31 -62 -33 -73 -33 -172 0
-86 4 -115 23 -161 29 -72 97 -151 126 -147 34 5 30 34 -13 91 -53 70 -73 127
-73 212 0 98 30 175 96 240 79 79 131 100 246 100 84 0 102 -3 151 -28 164
-80 238 -279 166 -449 -8 -18 -31 -55 -51 -81 -40 -52 -43 -80 -10 -85 28 -4
88 64 123 137 23 50 26 68 26 166 0 94 -3 117 -23 160 -36 80 -73 125 -135
172 -103 76 -233 100 -357 67z"/>
<path d="M864 1224 c-104 -38 -175 -143 -175 -258 0 -97 47 -191 93 -184 30 4
34 31 9 67 -55 77 -48 181 17 253 45 50 85 68 152 68 67 0 107 -18 152 -68 65
-72 73 -167 22 -245 -32 -49 -28 -72 11 -72 26 0 33 7 58 57 68 133 21 287
-112 365 -54 33 -164 41 -227 17z"/>
<path d="M887 1082 c-40 -25 -72 -95 -61 -134 19 -65 70 -61 66 6 -3 46 25 79
68 79 43 0 70 -32 70 -83 0 -24 5 -40 15 -44 76 -29 63 139 -14 178 -39 21
-109 20 -144 -2z"/>
<path d="M830 765 c-60 -90 -110 -171 -110 -178 0 -34 22 -37 240 -37 218 0
240 3 240 37 0 7 -50 88 -110 178 -80 120 -116 165 -130 165 -14 0 -50 -45
-130 -165z"/>
</g>
</svg>
