<?xml version="1.0" standalone="no"?>
<!DOCTYPE svg PUBLIC "-//W3C//DTD SVG 20010904//EN"
 "http://www.w3.org/TR/2001/REC-SVG-20010904/DTD/svg10.dtd">
<svg version="1.0" xmlns="http://www.w3.org/2000/svg"
 width="192.000000pt" height="192.000000pt" viewBox="0 0 192.000000 192.000000"
 preserveAspectRatio="xMidYMid meet">
<metadata>
Created by potrace 1.16, written by Peter Selinger 2001-2019
</metadata>
<g transform="translate(0.000000,192.000000) scale(0.100000,-0.100000)"
fill="#000000" stroke="none">
810 c245 -63 441 -223 549 -451 55 -116 75 -212 75 -354 0 -141 -20 -238 -75
-352 -86 -182 -215 -312 -396 -398 -116 -55 -212 -75 -354 -75 -142 0 -238 20
-354 75 -228 108 -388 304 -451 549 -28 110 -28 292 0 402 76 298 303 526 600
603 106 28 298 28 406 1z"/>
<path d="M830 1357 c-87 -29 -160 -85 -210 -159 -56 -84 -73 -150 -68 -257 6
-101 34 -175 93 -240 65 -72 115 -37 56 38 -57 72 -81 137 -81 223 0 106 27
177 94 243 79 79 131 100 246 100 115 0 167 -21 246 -100 66 -65 96 -141 96
-240 0 -85 -20 -142 -73 -212 -43 -57 -47 -86 -13 -91 28 -4 88 64 123 137 23
50 26 68 26 166 0 99 -3 116 -28 169 -54 117 -137 190 -258 227 -81 25 -168
24 -249 -4z"/>
<path d="M869 1227 c-157 -59 -228 -238 -152 -385 25 -50 32 -57 58 -57 37 0
44 24 17 63 -46 64 -50 163 -8 224 41 61 91 91 155 96 78 6 121 -10 169 -62
73 -79 80 -172 20 -259 -27 -38 -20 -62 17 -62 26 0 33 7 59 58 68 133 20 286
-113 364 -52 32 -164 41 -222 20z"/>
<path d="M883 1079 c-60 -38 -82 -158 -32 -174 29 -9 44 9 41 49 -3 45 25 79
67 79 43 0 64 -23 71 -80 8 -71 55 -71 66 -1 8 46 -19 104 -60 129 -41 25
-112 25 -153 -2z"/>
<path d="M830 765 c-60 -90 -110 -171 -110 -178 0 -34 22 -37 240 -37 218 0
240 3 240 37 0 7 -50 88 -110 178 -80 120 -116 165 -130 165 -14 0 -50 -45
-130 -165z"/>
</g>
</svg>
