<?xml version="1.0" standalone="no"?>
<!DOCTYPE svg PUBLIC "-//W3C//DTD SVG 20010904//EN"
 "http://www.w3.org/TR/2001/REC-SVG-20010904/DTD/svg10.dtd">
<svg version="1.0" xmlns="http://www.w3.org/2000/svg"
 width="192.000000pt" height="192.000000pt" viewBox="0 0 192.000000 192.000000"
 preserveAspectRatio="xMidYMid meet">
<metadata>
Created by potrace 1.16, written by Peter Selinger 2001-2019
</metadata>
<g transform="translate(0.000000,192.000000) scale(0.100000,-0.100000)"
fill="#000000" stroke="none">
810 c245 -63 441 -223 549 -451 55 -116 75 -212 75 -354 0 -141 -20 -238 -75
-352 -86 -182 -215 -312 -396 -398 -116 -55 -212 -75 -354 -75 -142 0 -238 20
-354 75 -228 108 -388 304 -451 549 -28 110 -28 292 0 402 76 298 303 526 600
603 106 28 298 28 406 1z"/>
<path d="M845 1367 c-118 -40 -207 -117 -258 -225 -30 -63 -32 -74 -32 -177 0
-98 3 -116 26 -166 35 -74 95 -141 123 -137 32 5 31 41 -2 80 -62 71 -77 114
-77 223 0 84 4 107 23 146 37 75 87 125 160 161 60 30 76 33 152 33 76 0 92
-3 152 -33 73 -36 124 -87 160 -161 19 -39 23 -62 23 -146 0 -109 -13 -146
-77 -226 -60 -74 -7 -109 57 -38 178 197 105 526 -143 642 -57 27 -80 32 -157
34 -55 2 -105 -2 -130 -10z"/>
<path d="M850 1219 c-100 -45 -164 -142 -164 -249 0 -105 60 -214 104 -190 25
14 25 30 -1 75 -48 80 -43 172 13 240 105 127 308 85 354 -73 18 -60 13 -97
-22 -161 -29 -53 -30 -67 -4 -81 45 -24 105 86 104 190 -1 77 -19 123 -71 180
-77 86 -210 116 -313 69z"/>
<path d="M915 1095 c-67 -23 -105 -89 -90 -155 14 -61 81 -42 68 20 -12 62 88
99 123 45 9 -14 14 -35 11 -47 -14 -53 45 -81 64 -30 39 102 -69 204 -176 167z"/>
<path d="M830 765 c-60 -90 -110 -171 -110 -178 0 -34 22 -37 240 -37 218 0
240 3 240 37 0 7 -50 88 -110 178 -80 120 -116 165 -130 165 -14 0 -50 -45
-130 -165z"/>
</g>
</svg>
