<?xml version="1.0" standalone="no"?>
<!DOCTYPE svg PUBLIC "-//W3C//DTD SVG 20010904//EN"
 "http://www.w3.org/TR/2001/REC-SVG-20010904/DTD/svg10.dtd">
<svg version="1.0" xmlns="http://www.w3.org/2000/svg"
 width="192.000000pt" height="192.000000pt" viewBox="0 0 192.000000 192.000000"
 preserveAspectRatio="xMidYMid meet">
<metadata>
Created by potrace 1.16, written by Peter Selinger 2001-2019
</metadata>
<g transform="translate(0.000000,192.000000) scale(0.100000,-0.100000)"
fill="#000000" stroke="none">
810 c245 -63 441 -223 549 -451 55 -116 75 -212 75 -354 0 -141 -20 -238 -75
-352 -86 -182 -215 -312 -396 -398 -116 -55 -212 -75 -354 -75 -142 0 -238 20
-354 75 -228 108 -388 304 -451 549 -28 110 -28 292 0 402 76 298 303 526 600
603 106 28 298 28 406 1z"/>
<path d="M830 1357 c-127 -43 -230 -150 -266 -275 -24 -80 -15 -209 18 -283
33 -73 94 -141 122 -137 34 5 30 34 -12 90 -54 74 -73 129 -74 212 0 100 30
176 96 241 79 78 131 100 246 100 86 0 101 -3 153 -30 116 -58 189 -175 190
-305 1 -82 -22 -150 -74 -218 -43 -57 -47 -85 -13 -90 28 -4 88 64 123 137 23
50 26 68 26 166 0 94 -3 117 -23 160 -36 80 -73 125 -135 172 -111 81 -251
103 -377 60z"/>
<path d="M863 1224 c-104 -38 -174 -142 -174 -259 0 -96 47 -190 93 -183 30 4
34 31 9 67 -54 76 -48 181 15 251 45 49 90 70 153 70 68 0 108 -18 153 -68 65
-72 73 -167 22 -245 -32 -49 -28 -72 11 -72 26 0 33 7 59 58 68 133 20 286
-113 364 -54 33 -164 41 -228 17z"/>
<path d="M887 1082 c-40 -25 -72 -95 -61 -134 19 -65 70 -61 66 6 -3 46 25 79
68 79 43 0 70 -32 70 -83 0 -24 5 -40 15 -44 76 -29 63 139 -14 178 -39 21
-109 20 -144 -2z"/>
<path d="M830 765 c-60 -90 -110 -171 -110 -178 0 -34 22 -37 240 -37 218 0
240 3 240 37 0 7 -50 88 -110 178 -80 120 -116 165 -130 165 -14 0 -50 -45
-130 -165z"/>
</g>
</svg>
