<?xml version="1.0" standalone="no"?>
<!DOCTYPE svg PUBLIC "-//W3C//DTD SVG 20010904//EN"
 "http://www.w3.org/TR/2001/REC-SVG-20010904/DTD/svg10.dtd">
<svg version="1.0" xmlns="http://www.w3.org/2000/svg"
 width="192.000000pt" height="192.000000pt" viewBox="0 0 192.000000 192.000000"
 preserveAspectRatio="xMidYMid meet">
<metadata>
Created by potrace 1.16, written by Peter Selinger 2001-2019
</metadata>
<g transform="translate(0.000000,192.000000) scale(0.100000,-0.100000)"
fill="#000000" stroke="none">
810 c245 -63 441 -223 549 -451 55 -116 75 -212 75 -354 0 -141 -20 -238 -75
-352 -86 -182 -215 -312 -396 -398 -116 -55 -212 -75 -354 -75 -142 0 -238 20
-354 75 -228 108 -388 304 -451 549 -28 110 -28 292 0 402 76 298 303 526 600
603 106 28 298 28 406 1z"/>
<path d="M830 1362 c-143 -48 -251 -167 -281 -310 -25 -121 12 -265 91 -355
34 -39 60 -46 80 -22 14 16 16 11 -48 95 -123 164 -55 419 137 509 48 22 69
26 146 26 105 0 156 -19 225 -81 144 -130 157 -343 31 -487 -38 -42 -36 -77 4
-77 18 0 36 15 65 54 159 211 91 505 -145 622 -64 32 -85 37 -162 40 -67 3
-101 0 -143 -14z"/>
<path d="M852 1223 c-60 -21 -135 -97 -155 -157 -23 -67 -21 -150 4 -206 25
-56 47 -80 71 -80 31 0 32 28 4 83 -79 158 26 319 200 305 101 -9 173 -85 182
-192 3 -42 -1 -61 -27 -109 -33 -63 -32 -87 4 -87 29 0 62 44 81 107 40 132
-23 270 -151 329 -59 28 -146 31 -213 7z"/>
<path d="M859 1061 c-35 -35 -39 -44 -39 -89 0 -33 5 -54 16 -63 21 -17 49 0
50 32 1 52 14 79 42 86 58 15 92 -11 92 -73 0 -35 4 -44 22 -50 28 -8 48 18
48 63 0 78 -60 133 -144 133 -43 0 -53 -4 -87 -39z"/>
<path d="M820 760 c-92 -139 -112 -175 -103 -188 9 -15 37 -17 219 -20 115 -1
219 0 232 3 15 4 22 13 22 28 0 34 -210 341 -236 345 -17 2 -42 -29 -134 -168z"/>
</g>
</svg>
