<?xml version="1.0" standalone="no"?>
<!DOCTYPE svg PUBLIC "-//W3C//DTD SVG 20010904//EN"
 "http://www.w3.org/TR/2001/REC-SVG-20010904/DTD/svg10.dtd">
<svg version="1.0" xmlns="http://www.w3.org/2000/svg"
 width="192.000000pt" height="192.000000pt" viewBox="0 0 192.000000 192.000000"
 preserveAspectRatio="xMidYMid meet">
<metadata>
Created by potrace 1.16, written by Peter Selinger 2001-2019
</metadata>
<g transform="translate(0.000000,192.000000) scale(0.100000,-0.100000)"
fill="#000000" stroke="none">
811 c445 -92 729 -532 635 -987 -62 -301 -295 -546 -601 -630 -91 -26 -329
-26 -420 0 -291 80 -516 305 -596 596 -26 91 -26 329 0 420 120 433 542 692
982 601z"/>
<path d="M740 1373 c-81 -26 -100 -71 -100 -235 0 -102 3 -130 16 -142 13 -14
54 -16 298 -16 206 0 285 3 294 12 8 8 12 58 12 159 0 135 -2 148 -22 174 -39
49 -69 55 -285 54 -109 0 -205 -3 -213 -6z m370 -193 l0 -40 -155 0 -155 0 0
40 0 40 155 0 155 0 0 -40z"/>
<path d="M656 931 c-16 -17 -17 -38 -14 -165 l3 -146 33 -32 32 -33 218 -3
c236 -4 278 2 311 45 23 28 28 82 9 101 -9 9 -74 12 -230 12 l-218 0 0 40 0
40 211 0 c126 0 218 4 230 10 15 9 19 22 19 68 0 32 -5 63 -12 70 -9 9 -88 12
-293 12 -266 0 -283 -1 -299 -19z"/>
</g>
</svg>
