<?xml version="1.0" standalone="no"?>
<!DOCTYPE svg PUBLIC "-//W3C//DTD SVG 20010904//EN"
 "http://www.w3.org/TR/2001/REC-SVG-20010904/DTD/svg10.dtd">
<svg version="1.0" xmlns="http://www.w3.org/2000/svg"
 width="192.000000pt" height="192.000000pt" viewBox="0 0 192.000000 192.000000"
 preserveAspectRatio="xMidYMid meet">
<metadata>
Created by potrace 1.16, written by Peter Selinger 2001-2019
</metadata>
<g transform="translate(0.000000,192.000000) scale(0.100000,-0.100000)"
fill="#000000" stroke="none">
811 c445 -92 729 -532 635 -987 -62 -301 -295 -546 -601 -630 -91 -26 -329
-26 -420 0 -291 80 -516 305 -596 596 -26 91 -26 329 0 420 120 433 542 692
982 601z"/>
<path d="M902 1347 c-27 -29 -28 -57 -2 -107 36 -71 74 -71 110 0 26 51 25 82
-3 108 -31 29 -77 29 -105 -1z"/>
<path d="M690 1267 c-14 -7 -31 -24 -38 -39 -25 -52 19 -105 96 -115 55 -7 70
13 53 75 -19 73 -62 103 -111 79z"/>
<path d="M1160 1267 c-47 -24 -74 -127 -39 -150 41 -26 149 32 149 82 0 24
-37 67 -65 75 -11 3 -31 0 -45 -7z"/>
<path d="M978 1033 l-68 -67 -33 32 c-39 38 -46 39 -81 11 -44 -35 -36 -67 38
-137 35 -34 70 -62 78 -62 22 0 218 203 218 226 0 25 -40 64 -66 64 -10 0 -49
-30 -86 -67z"/>
<path d="M577 1020 c-34 -27 -37 -80 -6 -111 26 -26 83 -22 129 11 41 29 40
62 -4 89 -53 33 -87 36 -119 11z"/>
<path d="M1229 1017 c-57 -31 -64 -65 -19 -97 46 -33 102 -38 129 -11 31 31
28 84 -5 110 -34 27 -51 26 -105 -2z"/>
<path d="M729 811 c-72 -22 -99 -62 -78 -113 34 -83 137 -49 154 52 6 36 4 46
-11 57 -20 14 -27 15 -65 4z"/>
<path d="M1116 807 c-42 -31 17 -157 74 -157 79 0 104 107 33 143 -46 24 -86
29 -107 14z"/>
<path d="M905 697 c-45 -78 -22 -141 50 -141 72 0 95 63 50 141 -19 32 -32 43
-50 43 -18 0 -31 -11 -50 -43z"/>
</g>
</svg>
