<?xml version="1.0" standalone="no"?>
<!DOCTYPE svg PUBLIC "-//W3C//DTD SVG 20010904//EN"
 "http://www.w3.org/TR/2001/REC-SVG-20010904/DTD/svg10.dtd">
<svg version="1.0" xmlns="http://www.w3.org/2000/svg"
 width="192.000000pt" height="192.000000pt" viewBox="0 0 192.000000 192.000000"
 preserveAspectRatio="xMidYMid meet">
<metadata>
Created by potrace 1.16, written by Peter Selinger 2001-2019
</metadata>
<g transform="translate(0.000000,192.000000) scale(0.100000,-0.100000)"
fill="#000000" stroke="none">
811 c445 -92 729 -532 635 -987 -62 -301 -295 -546 -601 -630 -91 -26 -329
-26 -420 0 -291 80 -516 305 -596 596 -26 91 -26 329 0 420 120 433 542 692
982 601z"/>
<path d="M624 1336 c-17 -8 -40 -26 -52 -41 -21 -27 -22 -35 -22 -322 0 -241
3 -299 15 -323 31 -61 28 -60 393 -60 l334 0 34 34 34 34 0 249 c0 272 -1 278
-60 308 -22 11 -66 15 -185 15 l-156 0 -52 49 c-29 28 -65 55 -81 60 -38 15
-165 13 -202 -3z m641 -221 l0 -30 -117 -3 c-110 -2 -118 -1 -128 18 -9 16 -8
25 1 36 9 12 36 14 128 12 l116 -3 0 -30z m-366 -105 c132 -67 131 -255 -1
-319 -52 -25 -95 -27 -145 -6 -48 20 -71 41 -94 87 -78 152 88 316 240 238z"/>
<path d="M776 948 c-34 -48 -7 -128 43 -128 33 0 64 49 57 90 -9 59 -70 82
-100 38z"/>
<path d="M738 777 c-36 -21 -33 -34 12 -59 45 -23 97 -23 138 2 38 23 39 30
12 55 -29 26 -121 27 -162 2z"/>
</g>
</svg>
