<?xml version="1.0" standalone="no"?>
<!DOCTYPE svg PUBLIC "-//W3C//DTD SVG 20010904//EN"
 "http://www.w3.org/TR/2001/REC-SVG-20010904/DTD/svg10.dtd">
<svg version="1.0" xmlns="http://www.w3.org/2000/svg"
 width="192.000000pt" height="192.000000pt" viewBox="0 0 192.000000 192.000000"
 preserveAspectRatio="xMidYMid meet">
<metadata>
Created by potrace 1.16, written by Peter Selinger 2001-2019
</metadata>
<g transform="translate(0.000000,192.000000) scale(0.100000,-0.100000)"
fill="#000000" stroke="none">
811 c445 -92 729 -532 635 -987 -62 -301 -295 -546 -601 -630 -91 -26 -329
-26 -420 0 -291 80 -516 305 -596 596 -26 91 -26 329 0 420 120 433 542 692
982 601z"/>
<path d="M640 1343 c-90 -29 -90 -31 -90 -384 l0 -301 34 -34 34 -34 334 0
c365 0 362 -1 393 60 12 23 15 75 15 260 0 325 4 320 -246 320 l-156 0 -58 54
c-35 31 -71 56 -90 60 -37 7 -148 7 -170 -1z m625 -213 c13 -42 -9 -51 -128
-48 -88 2 -112 6 -120 19 -6 9 -7 24 -4 33 5 14 24 16 126 16 112 0 120 -1
126 -20z m-375 -165 c22 -20 28 -83 10 -101 -8 -8 -6 -15 5 -24 25 -20 19 -86
-10 -115 -20 -21 -34 -25 -80 -25 -46 0 -60 4 -80 25 -29 28 -35 95 -10 115
11 9 12 17 5 30 -24 45 -6 95 40 113 27 11 100 0 120 -18z"/>
<path d="M784 915 c-10 -25 22 -53 44 -39 9 6 17 20 17 30 0 25 -52 33 -61 9z"/>
<path d="M795 816 c-27 -20 -15 -51 20 -51 23 0 31 5 33 22 4 29 -28 47 -53
29z"/>
</g>
</svg>
