<?xml version="1.0" standalone="no"?>
<!DOCTYPE svg PUBLIC "-//W3C//DTD SVG 20010904//EN"
 "http://www.w3.org/TR/2001/REC-SVG-20010904/DTD/svg10.dtd">
<svg version="1.0" xmlns="http://www.w3.org/2000/svg"
 width="192.000000pt" height="192.000000pt" viewBox="0 0 192.000000 192.000000"
 preserveAspectRatio="xMidYMid meet">
<metadata>
Created by potrace 1.16, written by Peter Selinger 2001-2019
</metadata>
<g transform="translate(0.000000,192.000000) scale(0.100000,-0.100000)"
fill="#000000" stroke="none">
811 c445 -92 729 -532 635 -987 -62 -301 -295 -546 -601 -630 -91 -26 -329
-26 -420 0 -291 80 -516 305 -596 596 -26 91 -26 329 0 420 120 433 542 692
982 601z"/>
<path d="M640 1343 c-90 -29 -90 -31 -90 -384 l0 -301 34 -34 34 -34 325 0
c188 0 337 4 351 10 14 5 35 24 46 42 18 31 20 51 20 266 0 328 5 322 -247
322 l-158 0 -56 53 c-35 33 -69 56 -89 60 -37 8 -147 8 -170 0z m625 -213 c13
-42 -9 -51 -128 -48 -88 2 -112 6 -120 19 -6 9 -7 24 -4 33 5 14 24 16 126 16
112 0 120 -1 126 -20z m-401 -160 c37 -14 53 -53 38 -93 -10 -25 -9 -34 3 -47
22 -24 18 -65 -8 -96 -21 -24 -30 -26 -103 -28 l-79 -1 -3 138 -3 137 65 0
c36 0 76 -4 90 -10z"/>
<path d="M780 900 c0 -25 4 -30 25 -30 14 0 28 7 31 15 8 20 -13 45 -37 45
-14 0 -19 -7 -19 -30z"/>
<path d="M780 790 c0 -29 2 -31 33 -28 27 2 32 7 32 28 0 21 -5 26 -32 28 -31
3 -33 1 -33 -28z"/>
</g>
</svg>
