<?xml version="1.0" standalone="no"?>
<!DOCTYPE svg PUBLIC "-//W3C//DTD SVG 20010904//EN"
 "http://www.w3.org/TR/2001/REC-SVG-20010904/DTD/svg10.dtd">
<svg version="1.0" xmlns="http://www.w3.org/2000/svg"
 width="192.000000pt" height="192.000000pt" viewBox="0 0 192.000000 192.000000"
 preserveAspectRatio="xMidYMid meet">
<metadata>
Created by potrace 1.16, written by Peter Selinger 2001-2019
</metadata>
<g transform="translate(0.000000,192.000000) scale(0.100000,-0.100000)"
fill="#000000" stroke="none">
811 c445 -92 729 -532 635 -987 -62 -301 -295 -546 -601 -630 -91 -26 -329
-26 -420 0 -291 80 -516 305 -596 596 -26 91 -26 329 0 420 120 433 542 692
982 601z"/>
<path d="M625 1336 c-16 -7 -39 -23 -50 -36 -19 -21 -20 -38 -23 -324 -2 -287
-1 -303 18 -334 11 -18 32 -37 46 -42 14 -6 163 -10 351 -10 l325 0 34 34 34
34 0 249 c0 272 -1 278 -60 308 -22 11 -66 15 -185 15 l-156 0 -52 49 c-29 28
-65 55 -81 60 -38 15 -165 13 -201 -3z m640 -221 l0 -30 -119 0 c-100 0 -120
3 -129 17 -8 12 -7 21 3 32 11 14 32 16 129 14 l116 -3 0 -30z m-372 -86 c45
-23 86 -47 90 -53 4 -6 6 -50 4 -98 -3 -80 -6 -91 -34 -125 -37 -47 -98 -83
-141 -83 -70 0 -151 65 -172 138 -11 43 -13 152 -2 168 5 9 155 91 170 94 1 0
39 -19 85 -41z"/>
<path d="M758 954 c-47 -24 -48 -25 -48 -72 0 -89 65 -149 131 -122 43 18 69
64 69 122 0 47 -1 48 -50 73 -27 14 -51 25 -52 25 -2 -1 -24 -12 -50 -26z m82
-49 c10 -12 10 -21 2 -38 -6 -12 -12 -31 -14 -42 -2 -11 -10 -20 -18 -20 -8 0
-16 9 -18 20 -2 11 -8 30 -14 42 -13 26 3 53 32 53 10 0 23 -7 30 -15z"/>
</g>
</svg>
