<?xml version="1.0" standalone="no"?>
<!DOCTYPE svg PUBLIC "-//W3C//DTD SVG 20010904//EN"
 "http://www.w3.org/TR/2001/REC-SVG-20010904/DTD/svg10.dtd">
<svg version="1.0" xmlns="http://www.w3.org/2000/svg"
 width="192.000000pt" height="192.000000pt" viewBox="0 0 192.000000 192.000000"
 preserveAspectRatio="xMidYMid meet">
<metadata>
Created by potrace 1.16, written by Peter Selinger 2001-2019
</metadata>
<g transform="translate(0.000000,192.000000) scale(0.100000,-0.100000)"
fill="#000000" stroke="none">
811 c445 -92 729 -532 635 -987 -62 -301 -295 -546 -601 -630 -91 -26 -329
-26 -420 0 -291 80 -516 305 -596 596 -26 91 -26 329 0 420 120 433 542 692
982 601z"/>
<path d="M613 1330 c-65 -39 -64 -36 -61 -375 l3 -307 33 -29 32 -29 334 0
334 0 31 26 c17 14 35 42 41 62 14 52 12 428 -3 472 -7 19 -27 44 -46 57 -32
22 -44 23 -193 23 l-159 0 -52 49 c-66 62 -89 71 -185 71 -59 0 -85 -5 -109
-20z m655 -209 c2 -13 -2 -28 -10 -32 -7 -5 -61 -9 -120 -9 -98 0 -108 2 -118
21 -9 15 -8 24 1 35 9 12 36 14 128 12 114 -3 116 -3 119 -27z m-364 -119 c3
-5 -8 -22 -24 -37 -17 -16 -30 -36 -30 -44 0 -10 11 -4 33 17 18 18 38 32 45
32 21 0 13 -25 -18 -55 -16 -15 -27 -32 -24 -37 4 -6 21 4 38 21 18 17 37 31
44 31 42 0 -36 -88 -87 -99 l-31 -6 46 -53 c27 -31 44 -58 40 -67 -8 -23 -27
-18 -63 17 -27 26 -35 29 -48 18 -13 -11 -19 -10 -35 5 -20 18 -21 18 -58 -18
-42 -41 -57 -45 -66 -20 -5 11 5 28 28 52 l35 36 -29 60 c-35 72 -49 135 -29
135 7 0 39 -26 71 -57 50 -49 58 -54 58 -35 0 12 19 43 41 67 42 45 53 52 63
37z"/>
</g>
</svg>
