<?xml version="1.0" standalone="no"?>
<!DOCTYPE svg PUBLIC "-//W3C//DTD SVG 20010904//EN"
 "http://www.w3.org/TR/2001/REC-SVG-20010904/DTD/svg10.dtd">
<svg version="1.0" xmlns="http://www.w3.org/2000/svg"
 width="192.000000pt" height="192.000000pt" viewBox="0 0 192.000000 192.000000"
 preserveAspectRatio="xMidYMid meet">
<metadata>
Created by potrace 1.16, written by Peter Selinger 2001-2019
</metadata>
<g transform="translate(0.000000,192.000000) scale(0.100000,-0.100000)"
fill="#000000" stroke="none">
811 c445 -92 729 -532 635 -987 -62 -301 -295 -546 -601 -630 -91 -26 -329
-26 -420 0 -291 80 -516 305 -596 596 -26 91 -26 329 0 420 120 433 542 692
982 601z"/>
<path d="M625 1336 c-16 -7 -39 -23 -50 -36 -19 -21 -20 -38 -23 -324 -2 -287
-1 -303 18 -334 11 -18 32 -37 46 -42 14 -6 163 -10 351 -10 l325 0 34 34 34
34 0 249 c0 272 -1 278 -60 308 -22 11 -66 15 -185 15 l-156 0 -52 49 c-29 28
-65 55 -81 60 -38 15 -165 13 -201 -3z m640 -221 l0 -30 -119 0 c-100 0 -120
3 -129 17 -8 12 -7 21 3 32 11 14 32 16 129 14 l116 -3 0 -30z m-545 -133 c0
-78 6 -89 32 -65 17 15 19 15 36 0 26 -24 32 -13 32 65 l0 68 48 0 c81 0 83
-5 80 -160 l-3 -135 -127 -3 c-104 -2 -128 -5 -128 -17 0 -12 24 -15 128 -17
105 -3 127 -6 127 -18 0 -12 -22 -16 -125 -18 -187 -4 -170 -22 -170 178 0
150 2 170 18 179 43 25 52 15 52 -57z"/>
</g>
</svg>
