<?xml version="1.0" standalone="no"?>
<!DOCTYPE svg PUBLIC "-//W3C//DTD SVG 20010904//EN"
 "http://www.w3.org/TR/2001/REC-SVG-20010904/DTD/svg10.dtd">
<svg version="1.0" xmlns="http://www.w3.org/2000/svg"
 width="192.000000pt" height="192.000000pt" viewBox="0 0 192.000000 192.000000"
 preserveAspectRatio="xMidYMid meet">
<metadata>
Created by potrace 1.16, written by Peter Selinger 2001-2019
</metadata>
<g transform="translate(0.000000,192.000000) scale(0.100000,-0.100000)"
fill="#000000" stroke="none">
811 c445 -92 729 -532 635 -987 -62 -301 -295 -546 -601 -630 -91 -26 -329
-26 -420 0 -291 80 -516 305 -596 596 -26 91 -26 329 0 420 120 433 542 692
982 601z"/>
<path d="M624 1340 c-11 -4 -33 -22 -47 -40 l-27 -32 0 -305 0 -305 34 -34 34
-34 335 0 335 0 31 26 c17 14 35 42 41 62 13 47 13 416 0 463 -6 19 -22 46
-36 60 -25 23 -32 24 -199 29 l-174 5 -48 47 c-26 26 -61 52 -76 57 -33 13
-173 13 -203 1z m643 -206 c3 -9 2 -24 -4 -33 -15 -25 -222 -29 -240 -5 -9 12
-9 22 -2 35 9 17 23 19 125 19 97 0 116 -3 121 -16z m-434 -108 c4 -10 24 -16
54 -18 44 -3 48 -5 48 -28 l0 -25 -145 0 -145 0 0 25 c0 23 4 25 48 28 30 2
50 8 54 18 3 9 19 14 43 14 24 0 40 -5 43 -14z m73 -143 c-3 -21 -8 -63 -11
-93 -3 -30 -8 -67 -11 -82 l-6 -28 -89 0 c-84 0 -89 1 -93 23 -6 27 -26 185
-26 204 0 10 26 13 121 13 l121 0 -6 -37z"/>
</g>
</svg>
