<?xml version="1.0" standalone="no"?>
<!DOCTYPE svg PUBLIC "-//W3C//DTD SVG 20010904//EN"
 "http://www.w3.org/TR/2001/REC-SVG-20010904/DTD/svg10.dtd">
<svg version="1.0" xmlns="http://www.w3.org/2000/svg"
 width="192.000000pt" height="192.000000pt" viewBox="0 0 192.000000 192.000000"
 preserveAspectRatio="xMidYMid meet">
<metadata>
Created by potrace 1.16, written by Peter Selinger 2001-2019
</metadata>
<g transform="translate(0.000000,192.000000) scale(0.100000,-0.100000)"
fill="#000000" stroke="none">
811 c445 -92 729 -532 635 -987 -62 -301 -295 -546 -601 -630 -91 -26 -329
-26 -420 0 -291 80 -516 305 -596 596 -26 91 -26 329 0 420 120 433 542 692
982 601z"/>
<path d="M625 1336 c-16 -7 -39 -23 -50 -36 -19 -21 -20 -38 -23 -324 -2 -287
-1 -303 18 -334 11 -18 32 -37 46 -42 14 -6 163 -10 351 -10 l325 0 34 34 34
34 0 249 c0 272 -1 278 -60 308 -22 11 -66 15 -185 15 l-156 0 -52 49 c-29 28
-65 55 -81 60 -38 15 -165 13 -201 -3z m640 -221 l0 -30 -119 0 c-100 0 -120
3 -129 17 -8 12 -7 21 3 32 11 14 32 16 129 14 l116 -3 0 -30z m-266 -159 c8
-9 11 -52 9 -127 l-3 -114 -169 -3 c-129 -2 -171 1 -178 10 -13 21 -10 222 4
236 18 18 322 17 337 -2z"/>
<path d="M690 917 c0 -7 16 -28 35 -47 l35 -34 -35 -36 c-19 -20 -35 -39 -35
-43 0 -16 26 -5 55 23 32 31 32 31 63 13 29 -17 31 -17 51 2 21 18 22 18 54
-13 31 -31 57 -41 57 -24 0 4 -16 23 -35 42 l-35 34 35 36 c33 34 45 60 27 60
-4 0 -32 -25 -62 -55 -30 -30 -59 -55 -65 -55 -6 0 -35 25 -65 55 -53 54 -80
68 -80 42z"/>
</g>
</svg>
