<?xml version="1.0" standalone="no"?>
<!DOCTYPE svg PUBLIC "-//W3C//DTD SVG 20010904//EN"
 "http://www.w3.org/TR/2001/REC-SVG-20010904/DTD/svg10.dtd">
<svg version="1.0" xmlns="http://www.w3.org/2000/svg"
 width="192.000000pt" height="192.000000pt" viewBox="0 0 192.000000 192.000000"
 preserveAspectRatio="xMidYMid meet">
<metadata>
Created by potrace 1.16, written by Peter Selinger 2001-2019
</metadata>
<g transform="translate(0.000000,192.000000) scale(0.100000,-0.100000)"
fill="#000000" stroke="none">
811 c445 -92 729 -532 635 -987 -62 -301 -295 -546 -601 -630 -91 -26 -329
-26 -420 0 -291 80 -516 305 -596 596 -26 91 -26 329 0 420 120 433 542 692
982 601z"/>
<path d="M592 1306 l-37 -34 -3 -291 c-3 -321 0 -340 57 -374 26 -15 65 -17
346 -17 347 0 360 2 390 60 12 23 15 73 15 257 0 245 -3 260 -53 297 -26 19
-46 22 -198 26 l-170 5 -27 33 c-51 62 -77 72 -185 72 -97 0 -97 0 -135 -34z
m663 -211 l0 -30 -109 0 c-89 0 -111 3 -119 16 -6 9 -7 24 -4 33 6 14 22 16
119 14 l113 -3 0 -30z"/>
</g>
</svg>
