<?xml version="1.0" standalone="no"?>
<!DOCTYPE svg PUBLIC "-//W3C//DTD SVG 20010904//EN"
 "http://www.w3.org/TR/2001/REC-SVG-20010904/DTD/svg10.dtd">
<svg version="1.0" xmlns="http://www.w3.org/2000/svg"
 width="192.000000pt" height="192.000000pt" viewBox="0 0 192.000000 192.000000"
 preserveAspectRatio="xMidYMid meet">
<metadata>
Created by potrace 1.16, written by Peter Selinger 2001-2019
</metadata>
<g transform="translate(0.000000,192.000000) scale(0.100000,-0.100000)"
fill="#000000" stroke="none">
811 c445 -92 729 -532 635 -987 -62 -301 -295 -546 -601 -630 -91 -26 -329
-26 -420 0 -291 80 -516 305 -596 596 -26 91 -26 329 0 420 120 433 542 692
982 601z"/>
<path d="M640 1343 c-90 -29 -90 -31 -90 -384 l0 -301 34 -34 34 -34 326 0
c359 0 371 2 401 60 12 23 15 73 15 260 0 323 2 320 -253 320 l-155 0 -55 54
c-34 33 -67 56 -87 60 -37 7 -148 7 -170 -1z m625 -213 c13 -42 -9 -51 -128
-48 -88 2 -112 6 -120 19 -6 9 -7 24 -4 33 5 14 24 16 126 16 112 0 120 -1
126 -20z m-495 -205 c17 -30 35 -57 40 -60 4 -3 23 21 42 53 31 51 37 57 71
60 l38 3 -3 -138 -3 -138 -30 0 -30 0 -5 78 -5 79 -30 -51 c-16 -28 -35 -51
-41 -51 -7 0 -27 24 -46 53 l-33 52 -5 -80 c-5 -77 -6 -80 -30 -80 l-25 0 -3
138 -3 137 35 0 c31 0 37 -5 66 -55z"/>
</g>
</svg>
