<?xml version="1.0" standalone="no"?>
<!DOCTYPE svg PUBLIC "-//W3C//DTD SVG 20010904//EN"
 "http://www.w3.org/TR/2001/REC-SVG-20010904/DTD/svg10.dtd">
<svg version="1.0" xmlns="http://www.w3.org/2000/svg"
 width="192.000000pt" height="192.000000pt" viewBox="0 0 192.000000 192.000000"
 preserveAspectRatio="xMidYMid meet">
<metadata>
Created by potrace 1.16, written by Peter Selinger 2001-2019
</metadata>
<g transform="translate(0.000000,192.000000) scale(0.100000,-0.100000)"
fill="#000000" stroke="none">
811 c445 -92 729 -532 635 -987 -62 -301 -295 -546 -601 -630 -91 -26 -329
-26 -420 0 -291 80 -516 305 -596 596 -26 91 -26 329 0 420 120 433 542 692
982 601z"/>
<path d="M875 1288 c-73 -27 -141 -103 -151 -169 -5 -31 -11 -39 -35 -44 -82
-18 -159 -124 -159 -217 0 -169 176 -278 326 -203 28 14 61 36 74 50 l23 25
43 -39 c116 -108 307 -64 364 84 19 48 15 137 -8 182 -25 49 -79 97 -124 112
-30 10 -37 19 -51 65 -18 57 -67 115 -120 142 -39 21 -142 27 -182 12z"/>
</g>
</svg>
