<?xml version="1.0" standalone="no"?>
<!DOCTYPE svg PUBLIC "-//W3C//DTD SVG 20010904//EN"
 "http://www.w3.org/TR/2001/REC-SVG-20010904/DTD/svg10.dtd">
<svg version="1.0" xmlns="http://www.w3.org/2000/svg"
 width="192.000000pt" height="192.000000pt" viewBox="0 0 192.000000 192.000000"
 preserveAspectRatio="xMidYMid meet">
<metadata>
Created by potrace 1.16, written by Peter Selinger 2001-2019
</metadata>
<g transform="translate(0.000000,192.000000) scale(0.100000,-0.100000)"
fill="#000000" stroke="none">
811 c445 -92 729 -532 635 -987 -62 -301 -295 -546 -601 -630 -91 -26 -329
-26 -420 0 -291 80 -516 305 -596 596 -26 91 -26 329 0 420 120 433 542 692
982 601z"/>
<path d="M624 1336 c-17 -8 -40 -26 -52 -41 -21 -27 -22 -35 -22 -322 0 -241
3 -299 15 -323 31 -61 28 -60 393 -60 l334 0 34 34 34 34 0 249 c0 272 -1 278
-60 308 -22 11 -66 15 -185 15 l-156 0 -52 49 c-29 28 -65 55 -81 60 -38 15
-165 13 -202 -3z m641 -221 l0 -30 -119 0 c-100 0 -120 3 -129 17 -8 12 -7 21
3 32 11 14 32 16 129 14 l116 -3 0 -30z m-377 -77 c46 -28 72 -86 72 -166 0
-66 -16 -118 -43 -140 -14 -12 -16 -8 -14 45 2 46 -1 58 -13 58 -11 0 -17 -17
-22 -63 -8 -72 -20 -92 -54 -92 -28 0 -28 -2 -9 43 9 22 15 68 15 117 0 73 -2
80 -20 80 -18 0 -20 -7 -20 -85 0 -83 -17 -145 -39 -145 -19 0 -32 29 -23 47
6 10 12 63 13 118 3 84 2 100 -11 100 -12 0 -16 -19 -20 -95 -6 -109 -16 -136
-36 -99 -8 15 -13 58 -14 109 0 97 17 136 72 170 45 27 120 27 166 -2z"/>
<path d="M755 1000 c-11 -18 6 -31 34 -25 41 9 81 -26 81 -71 0 -28 4 -34 21
-34 20 0 21 4 16 43 -8 57 -52 97 -107 97 -21 0 -42 -4 -45 -10z"/>
</g>
</svg>
