<?xml version="1.0" standalone="no"?>
<!DOCTYPE svg PUBLIC "-//W3C//DTD SVG 20010904//EN"
 "http://www.w3.org/TR/2001/REC-SVG-20010904/DTD/svg10.dtd">
<svg version="1.0" xmlns="http://www.w3.org/2000/svg"
 width="192.000000pt" height="192.000000pt" viewBox="0 0 192.000000 192.000000"
 preserveAspectRatio="xMidYMid meet">
<metadata>
Created by potrace 1.16, written by Peter Selinger 2001-2019
</metadata>
<g transform="translate(0.000000,192.000000) scale(0.100000,-0.100000)"
fill="#000000" stroke="none">
811 c445 -92 729 -532 635 -987 -62 -301 -295 -546 -601 -630 -91 -26 -329
-26 -420 0 -291 80 -516 305 -596 596 -26 91 -26 329 0 420 120 433 542 692
982 601z"/>
<path d="M624 1336 c-17 -8 -40 -26 -52 -41 -21 -27 -22 -35 -22 -322 0 -241
3 -299 15 -323 31 -61 28 -60 393 -60 l334 0 34 34 34 34 0 249 c0 272 -1 278
-60 308 -22 11 -66 15 -185 15 l-156 0 -52 49 c-29 28 -65 55 -81 60 -38 15
-165 13 -202 -3z m641 -221 l0 -30 -119 0 c-100 0 -120 3 -129 17 -8 12 -7 21
3 32 11 14 32 16 129 14 l116 -3 0 -30z m-296 -113 c7 -14 6 -25 -5 -40 -14
-21 -23 -22 -154 -22 -131 0 -140 1 -154 22 -11 15 -12 26 -5 40 9 16 24 18
159 18 135 0 150 -2 159 -18z m83 -127 c8 -19 8 -28 -2 -40 -11 -13 -41 -15
-204 -13 l-191 3 -3 29 c-2 16 2 32 10 37 7 5 95 9 196 9 l182 0 12 -25z m-83
-123 c7 -14 6 -25 -5 -40 -14 -21 -23 -22 -154 -22 -131 0 -140 1 -154 22 -11
15 -12 26 -5 40 9 16 24 18 159 18 135 0 150 -2 159 -18z"/>
</g>
</svg>
