<?xml version="1.0" standalone="no"?>
<!DOCTYPE svg PUBLIC "-//W3C//DTD SVG 20010904//EN"
 "http://www.w3.org/TR/2001/REC-SVG-20010904/DTD/svg10.dtd">
<svg version="1.0" xmlns="http://www.w3.org/2000/svg"
 width="192.000000pt" height="192.000000pt" viewBox="0 0 192.000000 192.000000"
 preserveAspectRatio="xMidYMid meet">
<metadata>
Created by potrace 1.16, written by Peter Selinger 2001-2019
</metadata>
<g transform="translate(0.000000,192.000000) scale(0.100000,-0.100000)"
fill="#000000" stroke="none">
811 c445 -92 729 -532 635 -987 -62 -301 -295 -546 -601 -630 -91 -26 -329
-26 -420 0 -291 80 -516 305 -596 596 -26 91 -26 329 0 420 120 433 542 692
982 601z"/>
<path d="M615 1336 c-17 -7 -40 -26 -50 -42 -18 -27 -20 -51 -23 -289 -4 -312
-1 -338 43 -382 l33 -33 336 0 336 0 32 29 33 29 3 246 c4 343 9 336 -243 336
l-156 0 -52 49 c-29 28 -65 55 -81 60 -38 15 -175 13 -211 -3z m646 -202 c9
-11 10 -20 2 -32 -8 -14 -30 -18 -120 -20 -119 -3 -141 6 -128 48 6 19 14 20
119 20 91 0 116 -3 127 -16z m-361 -183 c0 -29 -2 -30 -52 -33 -45 -3 -53 -6
-53 -23 0 -16 8 -21 45 -25 40 -4 45 -8 45 -30 0 -23 -4 -25 -47 -28 -40 -3
-48 -6 -48 -23 0 -16 7 -19 56 -19 l55 0 -3 -32 -3 -33 -73 -3 c-46 -2 -79 2
-88 9 -11 9 -14 41 -14 134 0 67 3 125 7 128 3 4 44 7 90 7 l83 0 0 -29z"/>
</g>
</svg>
