<?xml version="1.0" standalone="no"?>
<!DOCTYPE svg PUBLIC "-//W3C//DTD SVG 20010904//EN"
 "http://www.w3.org/TR/2001/REC-SVG-20010904/DTD/svg10.dtd">
<svg version="1.0" xmlns="http://www.w3.org/2000/svg"
 width="192.000000pt" height="192.000000pt" viewBox="0 0 192.000000 192.000000"
 preserveAspectRatio="xMidYMid meet">
<metadata>
Created by potrace 1.16, written by Peter Selinger 2001-2019
</metadata>
<g transform="translate(0.000000,192.000000) scale(0.100000,-0.100000)"
fill="#000000" stroke="none">
811 c445 -92 729 -532 635 -987 -62 -301 -295 -546 -601 -630 -91 -26 -329
-26 -420 0 -291 80 -516 305 -596 596 -26 91 -26 329 0 420 120 433 542 692
982 601z"/>
<path d="M624 1336 c-17 -8 -40 -26 -52 -41 -21 -27 -22 -35 -22 -322 0 -241
3 -299 15 -323 31 -61 28 -60 393 -60 l334 0 34 34 34 34 0 249 c0 272 -1 278
-60 308 -22 11 -66 15 -185 15 l-156 0 -52 49 c-29 28 -65 55 -81 60 -38 15
-165 13 -202 -3z m641 -221 l0 -30 -119 0 c-100 0 -120 3 -129 17 -8 12 -7 21
3 32 11 14 32 16 129 14 l116 -3 0 -30z m-490 -110 c62 -61 -3 -162 -85 -134
-36 13 -50 36 -50 83 0 68 86 101 135 51z m112 3 l23 -21 23 21 c28 26 45 28
54 6 7 -20 -123 -155 -143 -147 -20 8 -17 34 8 60 l21 23 -23 24 c-23 25 -22
56 2 56 6 0 22 -10 35 -22z m101 -116 c3 -16 -2 -22 -17 -22 -24 0 -35 15 -27
36 9 23 40 13 44 -14z m-218 -78 c23 -20 30 -34 28 -53 -4 -35 -35 -40 -47 -8
-12 31 -24 39 -45 31 -27 -10 -20 -53 10 -60 18 -5 24 -12 22 -28 -8 -57 -98
-7 -98 54 0 81 69 115 130 64z m179 11 c50 -25 57 -90 15 -132 -21 -21 -32
-24 -62 -19 -83 13 -100 114 -27 154 27 15 41 15 74 -3z"/>
<path d="M694 966 c-10 -26 4 -48 28 -44 17 2 23 10 23 28 0 18 -6 26 -23 28
-13 2 -25 -3 -28 -12z"/>
<path d="M892 778 c-25 -25 0 -64 32 -52 21 8 21 50 0 58 -20 8 -18 8 -32 -6z"/>
</g>
</svg>
