<?xml version="1.0" standalone="no"?>
<!DOCTYPE svg PUBLIC "-//W3C//DTD SVG 20010904//EN"
 "http://www.w3.org/TR/2001/REC-SVG-20010904/DTD/svg10.dtd">
<svg version="1.0" xmlns="http://www.w3.org/2000/svg"
 width="192.000000pt" height="192.000000pt" viewBox="0 0 192.000000 192.000000"
 preserveAspectRatio="xMidYMid meet">
<metadata>
Created by potrace 1.16, written by Peter Selinger 2001-2019
</metadata>
<g transform="translate(0.000000,192.000000) scale(0.100000,-0.100000)"
fill="#000000" stroke="none">
811 c445 -92 729 -532 635 -987 -62 -301 -295 -546 -601 -630 -91 -26 -329
-26 -420 0 -291 80 -516 305 -596 596 -26 91 -26 329 0 420 120 433 542 692
982 601z"/>
<path d="M625 1336 c-16 -7 -39 -23 -50 -36 -19 -21 -20 -38 -23 -324 -2 -287
-1 -303 18 -334 11 -18 32 -37 46 -42 14 -6 163 -10 351 -10 l325 0 34 34 34
34 0 249 c0 272 -1 278 -60 308 -22 11 -66 15 -185 15 l-156 0 -52 49 c-29 28
-65 55 -81 60 -38 15 -165 13 -201 -3z m640 -221 l0 -30 -119 0 c-100 0 -120
3 -129 17 -8 12 -7 21 3 32 11 14 32 16 129 14 l116 -3 0 -30z m-331 -81 c3
-9 6 -79 6 -156 l0 -140 -34 -34 -34 -34 -104 0 c-68 0 -108 4 -116 12 -13 13
-18 349 -5 361 3 4 68 7 144 7 116 0 138 -2 143 -16z"/>
<path d="M680 956 c0 -65 2 -66 110 -66 108 0 110 1 110 66 l0 54 -110 0 -110
0 0 -54z"/>
<path d="M713 832 c-2 -11 -13 -22 -24 -25 -25 -7 -24 -27 1 -27 13 0 20 -7
20 -20 0 -11 7 -20 15 -20 8 0 15 9 15 20 0 13 7 20 20 20 11 0 20 5 20 11 0
6 -9 13 -20 16 -11 3 -20 11 -20 19 0 22 -21 27 -27 6z"/>
<path d="M864 829 c-10 -17 13 -36 27 -22 12 12 4 33 -11 33 -5 0 -12 -5 -16
-11z"/>
<path d="M824 779 c-10 -17 13 -36 27 -22 12 12 4 33 -11 33 -5 0 -12 -5 -16
-11z"/>
</g>
</svg>
