<?xml version="1.0" standalone="no"?>
<!DOCTYPE svg PUBLIC "-//W3C//DTD SVG 20010904//EN"
 "http://www.w3.org/TR/2001/REC-SVG-20010904/DTD/svg10.dtd">
<svg version="1.0" xmlns="http://www.w3.org/2000/svg"
 width="192.000000pt" height="192.000000pt" viewBox="0 0 192.000000 192.000000"
 preserveAspectRatio="xMidYMid meet">
<metadata>
Created by potrace 1.16, written by Peter Selinger 2001-2019
</metadata>
<g transform="translate(0.000000,192.000000) scale(0.100000,-0.100000)"
fill="#000000" stroke="none">
811 c445 -92 729 -532 635 -987 -62 -301 -295 -546 -601 -630 -91 -26 -329
-26 -420 0 -291 80 -516 305 -596 596 -26 91 -26 329 0 420 120 433 542 692
982 601z"/>
<path d="M640 1343 c-90 -29 -90 -31 -90 -384 l0 -301 34 -34 34 -34 325 0
c188 0 337 4 351 10 14 5 35 24 46 42 18 31 20 51 20 266 0 328 5 322 -247
322 l-158 0 -56 53 c-35 33 -69 56 -89 60 -37 8 -147 8 -170 0z m625 -213 c13
-42 -9 -51 -128 -48 -88 2 -112 6 -120 19 -6 9 -7 24 -4 33 5 14 24 16 126 16
112 0 120 -1 126 -20z m-382 -170 c39 -31 46 -83 17 -123 l-23 -30 26 -47 c29
-52 27 -60 -14 -60 -24 0 -33 8 -54 51 -33 64 -58 64 -65 -1 -5 -42 -7 -45
-35 -45 l-30 0 -3 124 c-1 69 0 131 2 138 4 9 28 13 79 13 60 0 79 -4 100 -20z"/>
<path d="M772 888 c3 -38 30 -48 63 -24 28 20 9 50 -34 54 -31 3 -32 2 -29
-30z"/>
</g>
</svg>
