<?xml version="1.0" standalone="no"?>
<!DOCTYPE svg PUBLIC "-//W3C//DTD SVG 20010904//EN"
 "http://www.w3.org/TR/2001/REC-SVG-20010904/DTD/svg10.dtd">
<svg version="1.0" xmlns="http://www.w3.org/2000/svg"
 width="192.000000pt" height="192.000000pt" viewBox="0 0 192.000000 192.000000"
 preserveAspectRatio="xMidYMid meet">
<metadata>
Created by potrace 1.16, written by Peter Selinger 2001-2019
</metadata>
<g transform="translate(0.000000,192.000000) scale(0.100000,-0.100000)"
fill="#000000" stroke="none">
811 c445 -92 729 -532 635 -987 -62 -301 -295 -546 -601 -630 -91 -26 -329
-26 -420 0 -291 80 -516 305 -596 596 -26 91 -26 329 0 420 120 433 542 692
982 601z"/>
<path d="M640 1343 c-90 -29 -90 -31 -90 -384 l0 -301 34 -34 34 -34 326 0
c359 0 371 2 401 60 12 23 15 73 15 260 0 323 3 320 -254 320 l-156 0 -49 49
c-30 30 -65 54 -88 60 -38 11 -145 14 -173 4z m627 -209 c3 -9 2 -24 -4 -33
-15 -24 -231 -24 -246 0 -6 9 -7 24 -4 33 5 14 25 16 127 16 102 0 122 -2 127
-16z m-366 -182 c52 -58 48 -176 -8 -228 -20 -18 -37 -24 -72 -24 -81 0 -121
48 -121 145 0 100 45 149 130 141 34 -3 51 -11 71 -34z"/>
<path d="M780 901 c-5 -11 -10 -40 -10 -65 0 -37 5 -49 24 -61 13 -8 30 -13
39 -10 36 14 46 105 16 142 -17 19 -57 16 -69 -6z"/>
</g>
</svg>
