<?xml version="1.0" standalone="no"?>
<!DOCTYPE svg PUBLIC "-//W3C//DTD SVG 20010904//EN"
 "http://www.w3.org/TR/2001/REC-SVG-20010904/DTD/svg10.dtd">
<svg version="1.0" xmlns="http://www.w3.org/2000/svg"
 width="192.000000pt" height="192.000000pt" viewBox="0 0 192.000000 192.000000"
 preserveAspectRatio="xMidYMid meet">
<metadata>
Created by potrace 1.16, written by Peter Selinger 2001-2019
</metadata>
<g transform="translate(0.000000,192.000000) scale(0.100000,-0.100000)"
fill="#000000" stroke="none">
811 c445 -92 729 -532 635 -987 -62 -301 -295 -546 -601 -630 -91 -26 -329
-26 -420 0 -291 80 -516 305 -596 596 -26 91 -26 329 0 420 120 433 542 692
982 601z"/>
<path d="M624 1336 c-17 -8 -40 -26 -52 -41 -21 -27 -22 -35 -22 -322 0 -241
3 -299 15 -323 31 -61 28 -60 393 -60 l334 0 34 34 34 34 0 249 c0 272 -1 278
-60 308 -22 11 -66 15 -185 15 l-156 0 -52 49 c-29 28 -65 55 -81 60 -38 15
-165 13 -202 -3z m641 -221 l0 -30 -119 0 c-100 0 -120 3 -129 17 -8 12 -7 21
3 32 11 14 32 16 129 14 l116 -3 0 -30z m-406 -82 c49 -54 55 -73 25 -73 -22
0 -17 -13 16 -45 35 -34 39 -55 8 -55 -20 0 -18 -4 16 -39 21 -22 35 -44 32
-50 -4 -6 -34 -11 -67 -11 -41 0 -59 -4 -59 -12 0 -24 15 -36 45 -40 19 -2 31
-10 33 -20 3 -16 -7 -18 -113 -18 -106 0 -116 2 -113 18 2 12 14 18 41 20 32
3 37 7 37 28 0 23 -3 24 -59 24 -33 0 -63 5 -67 11 -3 6 11 28 32 50 34 35 36
39 16 39 -32 0 -27 19 15 62 34 35 35 38 15 38 -12 0 -22 6 -22 13 0 18 89
117 105 117 7 0 36 -25 64 -57z"/>
</g>
</svg>
