<?xml version="1.0" standalone="no"?>
<!DOCTYPE svg PUBLIC "-//W3C//DTD SVG 20010904//EN"
 "http://www.w3.org/TR/2001/REC-SVG-20010904/DTD/svg10.dtd">
<svg version="1.0" xmlns="http://www.w3.org/2000/svg"
 width="192.000000pt" height="192.000000pt" viewBox="0 0 192.000000 192.000000"
 preserveAspectRatio="xMidYMid meet">
<metadata>
Created by potrace 1.16, written by Peter Selinger 2001-2019
</metadata>
<g transform="translate(0.000000,192.000000) scale(0.100000,-0.100000)"
fill="#000000" stroke="none">
811 c445 -92 729 -532 635 -987 -62 -301 -295 -546 -601 -630 -91 -26 -329
-26 -420 0 -291 80 -516 305 -596 596 -26 91 -26 329 0 420 120 433 542 692
982 601z"/>
<path d="M615 1334 c-66 -33 -65 -27 -65 -367 l0 -309 34 -34 34 -34 336 0
336 0 32 29 33 29 3 246 c4 342 9 336 -242 336 l-156 0 -56 50 c-30 28 -67 55
-80 60 -41 16 -175 12 -209 -6z m646 -200 c9 -11 10 -20 2 -32 -8 -14 -30 -18
-120 -20 -119 -3 -141 6 -128 48 6 19 14 20 119 20 91 0 116 -3 127 -16z
m-403 -241 c5 -150 -28 -202 -122 -190 -41 6 -86 43 -86 71 0 20 52 27 71 10
21 -19 55 -18 63 2 3 9 6 56 6 105 l0 90 33 -3 32 -3 3 -82z"/>
</g>
</svg>
