<?xml version="1.0" standalone="no"?>
<!DOCTYPE svg PUBLIC "-//W3C//DTD SVG 20010904//EN"
 "http://www.w3.org/TR/2001/REC-SVG-20010904/DTD/svg10.dtd">
<svg version="1.0" xmlns="http://www.w3.org/2000/svg"
 width="192.000000pt" height="192.000000pt" viewBox="0 0 192.000000 192.000000"
 preserveAspectRatio="xMidYMid meet">
<metadata>
Created by potrace 1.16, written by Peter Selinger 2001-2019
</metadata>
<g transform="translate(0.000000,192.000000) scale(0.100000,-0.100000)"
fill="#000000" stroke="none">
811 c445 -92 729 -532 635 -987 -62 -301 -295 -546 -601 -630 -91 -26 -329
-26 -420 0 -291 80 -516 305 -596 596 -26 91 -26 329 0 420 120 433 542 692
982 601z"/>
<path d="M624 1336 c-17 -8 -40 -26 -52 -41 -21 -27 -22 -35 -22 -322 0 -241
3 -299 15 -323 31 -61 28 -60 393 -60 l334 0 34 34 34 34 0 249 c0 272 -1 278
-60 308 -22 11 -66 15 -185 15 l-156 0 -52 49 c-29 28 -65 55 -81 60 -38 15
-165 13 -202 -3z m641 -221 l0 -30 -119 0 c-100 0 -120 3 -129 17 -8 12 -7 21
3 32 11 14 32 16 129 14 l116 -3 0 -30z m-461 -110 c3 -8 1 -27 -4 -41 -15
-39 -13 -44 25 -44 37 0 44 14 25 50 -14 27 -2 50 27 50 20 0 28 -9 45 -49 17
-43 24 -50 52 -53 26 -2 32 -8 34 -30 l3 -28 -185 0 c-154 0 -186 2 -186 14 0
32 13 46 41 46 23 0 32 6 40 28 6 15 15 37 20 50 10 26 54 31 63 7z m169 -172
c2 -5 -3 -37 -12 -73 l-16 -65 -118 -3 c-134 -3 -129 -6 -143 98 l-7 50 146 0
c80 0 148 -3 150 -7z"/>
<path d="M781 796 c-15 -18 -5 -59 12 -53 15 5 22 46 9 59 -5 5 -14 3 -21 -6z"/>
<path d="M844 797 c-9 -24 0 -52 16 -52 21 0 24 39 6 55 -13 10 -17 9 -22 -3z"/>
</g>
</svg>
