<?xml version="1.0" standalone="no"?>
<!DOCTYPE svg PUBLIC "-//W3C//DTD SVG 20010904//EN"
 "http://www.w3.org/TR/2001/REC-SVG-20010904/DTD/svg10.dtd">
<svg version="1.0" xmlns="http://www.w3.org/2000/svg"
 width="192.000000pt" height="192.000000pt" viewBox="0 0 192.000000 192.000000"
 preserveAspectRatio="xMidYMid meet">
<metadata>
Created by potrace 1.16, written by Peter Selinger 2001-2019
</metadata>
<g transform="translate(0.000000,192.000000) scale(0.100000,-0.100000)"
fill="#000000" stroke="none">
811 c445 -92 729 -532 635 -987 -62 -301 -295 -546 -601 -630 -91 -26 -329
-26 -420 0 -291 80 -516 305 -596 596 -26 91 -26 329 0 420 120 433 542 692
982 601z"/>
<path d="M615 1334 c-66 -33 -65 -27 -65 -367 l0 -309 34 -34 34 -34 334 0
c365 0 362 -1 393 60 12 23 15 75 15 260 0 325 4 320 -246 320 l-156 0 -58 54
c-35 31 -71 56 -90 60 -59 11 -164 6 -195 -10z m650 -204 c13 -42 -9 -51 -128
-48 -88 2 -112 6 -120 19 -6 9 -7 24 -4 33 5 14 24 16 126 16 112 0 120 -1
126 -20z m-505 -200 l0 -50 49 0 50 0 3 48 c3 45 4 47 36 50 l33 3 -3 -138 -3
-138 -30 0 c-29 0 -30 2 -33 53 l-3 52 -49 0 -49 0 -3 -52 c-2 -41 -7 -54 -21
-56 -40 -8 -47 14 -47 143 0 67 3 125 7 128 3 4 19 7 35 7 27 0 28 -2 28 -50z"/>
</g>
</svg>
