<?xml version="1.0" standalone="no"?>
<!DOCTYPE svg PUBLIC "-//W3C//DTD SVG 20010904//EN"
 "http://www.w3.org/TR/2001/REC-SVG-20010904/DTD/svg10.dtd">
<svg version="1.0" xmlns="http://www.w3.org/2000/svg"
 width="192.000000pt" height="192.000000pt" viewBox="0 0 192.000000 192.000000"
 preserveAspectRatio="xMidYMid meet">
<metadata>
Created by potrace 1.16, written by Peter Selinger 2001-2019
</metadata>
<g transform="translate(0.000000,192.000000) scale(0.100000,-0.100000)"
fill="#000000" stroke="none">
811 c445 -92 729 -532 635 -987 -62 -301 -295 -546 -601 -630 -91 -26 -329
-26 -420 0 -291 80 -516 305 -596 596 -26 91 -26 329 0 420 120 433 542 692
982 601z"/>
<path d="M640 1343 c-90 -29 -90 -31 -90 -384 l0 -301 34 -34 34 -34 326 0
c359 0 371 2 401 60 12 23 15 73 15 260 0 323 3 320 -254 320 l-156 0 -49 49
c-30 30 -65 54 -88 60 -38 11 -145 14 -173 4z m627 -209 c3 -9 2 -24 -4 -33
-15 -24 -231 -24 -246 0 -6 9 -7 24 -4 33 5 14 25 16 127 16 102 0 122 -2 127
-16z m-460 -226 l48 -71 5 69 5 69 33 3 32 3 0 -141 0 -141 -27 3 c-22 2 -39
19 -78 77 l-50 73 -5 -73 -5 -74 -32 -3 -33 -3 0 140 0 141 30 0 c26 0 36 -9
77 -72z"/>
</g>
</svg>
