<?xml version="1.0" standalone="no"?>
<!DOCTYPE svg PUBLIC "-//W3C//DTD SVG 20010904//EN"
 "http://www.w3.org/TR/2001/REC-SVG-20010904/DTD/svg10.dtd">
<svg version="1.0" xmlns="http://www.w3.org/2000/svg"
 width="192.000000pt" height="192.000000pt" viewBox="0 0 192.000000 192.000000"
 preserveAspectRatio="xMidYMid meet">
<metadata>
Created by potrace 1.16, written by Peter Selinger 2001-2019
</metadata>
<g transform="translate(0.000000,192.000000) scale(0.100000,-0.100000)"
fill="#000000" stroke="none">
811 c445 -92 729 -532 635 -987 -62 -301 -295 -546 -601 -630 -91 -26 -329
-26 -420 0 -291 80 -516 305 -596 596 -26 91 -26 329 0 420 120 433 542 692
982 601z"/>
<path d="M624 1336 c-17 -8 -40 -26 -52 -41 -21 -27 -22 -35 -22 -322 0 -241
3 -299 15 -323 31 -61 28 -60 393 -60 l334 0 34 34 34 34 0 249 c0 272 -1 278
-60 308 -22 11 -66 15 -185 15 l-156 0 -52 49 c-29 28 -65 55 -81 60 -38 15
-165 13 -202 -3z m641 -221 l0 -30 -119 0 c-100 0 -120 3 -129 17 -8 12 -7 21
3 32 11 14 32 16 129 14 l116 -3 0 -30z m-394 -76 c10 -5 24 -3 36 6 25 18 38
7 18 -15 -13 -14 -13 -21 5 -55 25 -50 27 -161 4 -211 -22 -45 -66 -76 -118
-81 -51 -6 -92 12 -130 57 -24 29 -26 39 -26 121 0 62 5 99 16 120 12 24 13
34 3 45 -16 20 -3 31 20 17 14 -9 28 -8 57 2 38 13 82 11 115 -6z"/>
<path d="M742 1010 c-36 -22 -68 -79 -59 -104 5 -13 25 -16 122 -16 l115 0 0
25 c0 41 -26 81 -64 99 -45 21 -74 20 -114 -4z m26 -67 c-2 -10 -8 -18 -13
-18 -5 0 -11 8 -13 18 -2 10 3 17 13 17 10 0 15 -7 13 -17z m98 6 c10 -17 -13
-36 -27 -22 -12 12 -4 33 11 33 5 0 12 -5 16 -11z"/>
</g>
</svg>
