<?xml version="1.0" standalone="no"?>
<!DOCTYPE svg PUBLIC "-//W3C//DTD SVG 20010904//EN"
 "http://www.w3.org/TR/2001/REC-SVG-20010904/DTD/svg10.dtd">
<svg version="1.0" xmlns="http://www.w3.org/2000/svg"
 width="192.000000pt" height="192.000000pt" viewBox="0 0 192.000000 192.000000"
 preserveAspectRatio="xMidYMid meet">
<metadata>
Created by potrace 1.16, written by Peter Selinger 2001-2019
</metadata>
<g transform="translate(0.000000,192.000000) scale(0.100000,-0.100000)"
fill="#000000" stroke="none">
811 c445 -92 729 -532 635 -987 -62 -301 -295 -546 -601 -630 -91 -26 -329
-26 -420 0 -291 80 -516 305 -596 596 -26 91 -26 329 0 420 120 433 542 692
982 601z"/>
<path d="M625 1336 c-16 -7 -39 -23 -50 -36 -19 -21 -20 -38 -23 -324 -2 -287
-1 -303 18 -334 11 -18 32 -37 46 -42 14 -6 163 -10 351 -10 l325 0 34 34 34
34 0 249 c0 272 -1 278 -60 308 -22 11 -66 15 -185 15 l-156 0 -52 49 c-29 28
-65 55 -81 60 -38 15 -165 13 -201 -3z m640 -221 l0 -30 -119 0 c-100 0 -120
3 -129 17 -8 12 -7 21 3 32 11 14 32 16 129 14 l116 -3 0 -30z m-403 -82 c15
-15 28 -35 28 -45 0 -9 13 -24 30 -33 45 -23 60 -62 60 -156 0 -79 -1 -82 -34
-115 -38 -38 -70 -43 -116 -19 -43 22 -50 43 -50 146 l0 92 35 33 c19 18 35
36 35 40 0 18 -35 44 -59 44 -55 0 -71 -33 -71 -145 0 -78 -2 -88 -25 -111
-17 -17 -34 -24 -53 -22 -32 4 -37 31 -7 36 40 8 45 21 45 114 0 103 15 142
63 164 42 18 85 10 119 -23z"/>
<path d="M867 914 c-11 -12 -8 -72 4 -80 16 -10 30 16 27 50 -3 29 -18 43 -31
30z"/>
</g>
</svg>
