<?xml version="1.0" standalone="no"?>
<!DOCTYPE svg PUBLIC "-//W3C//DTD SVG 20010904//EN"
 "http://www.w3.org/TR/2001/REC-SVG-20010904/DTD/svg10.dtd">
<svg version="1.0" xmlns="http://www.w3.org/2000/svg"
 width="192.000000pt" height="192.000000pt" viewBox="0 0 192.000000 192.000000"
 preserveAspectRatio="xMidYMid meet">
<metadata>
Created by potrace 1.16, written by Peter Selinger 2001-2019
</metadata>
<g transform="translate(0.000000,192.000000) scale(0.100000,-0.100000)"
fill="#000000" stroke="none">
811 c445 -92 729 -532 635 -987 -62 -301 -295 -546 -601 -630 -91 -26 -329
-26 -420 0 -291 80 -516 305 -596 596 -26 91 -26 329 0 420 120 433 542 692
982 601z"/>
<path d="M625 1336 c-16 -7 -39 -23 -50 -36 -19 -21 -20 -38 -23 -324 -2 -287
-1 -303 18 -334 11 -18 32 -37 46 -42 14 -6 163 -10 351 -10 l325 0 34 34 34
34 0 249 c0 272 -1 278 -60 308 -22 11 -66 15 -185 15 l-156 0 -52 49 c-29 28
-65 54 -79 60 -26 10 -27 9 -30 -27 -3 -35 -5 -37 -40 -40 -36 -3 -37 -2 -40
35 -3 34 -6 38 -33 40 -16 2 -43 -3 -60 -11z m95 -106 l0 -40 41 0 40 0 -3
-37 c-3 -36 -5 -38 -40 -41 -37 -3 -38 -4 -38 -43 l0 -39 41 0 41 0 -4 -80
c-4 -89 -14 -107 -69 -116 -51 -9 -89 24 -89 77 0 39 0 39 40 39 l40 0 0 40 0
40 -40 0 -40 0 0 40 0 40 40 0 40 0 0 40 0 40 -40 0 -40 0 0 40 0 40 40 0 40
0 0 -40z m545 -115 l0 -30 -119 0 c-100 0 -120 3 -129 17 -8 12 -7 21 3 32 11
14 32 16 129 14 l116 -3 0 -30z"/>
</g>
</svg>
