<?xml version="1.0" standalone="no"?>
<!DOCTYPE svg PUBLIC "-//W3C//DTD SVG 20010904//EN"
 "http://www.w3.org/TR/2001/REC-SVG-20010904/DTD/svg10.dtd">
<svg version="1.0" xmlns="http://www.w3.org/2000/svg"
 width="192.000000pt" height="192.000000pt" viewBox="0 0 192.000000 192.000000"
 preserveAspectRatio="xMidYMid meet">
<metadata>
Created by potrace 1.16, written by Peter Selinger 2001-2019
</metadata>
<g transform="translate(0.000000,192.000000) scale(0.100000,-0.100000)"
fill="#000000" stroke="none">
811 c445 -92 729 -532 635 -987 -62 -301 -295 -546 -601 -630 -91 -26 -329
-26 -420 0 -291 80 -516 305 -596 596 -26 91 -26 329 0 420 120 433 542 692
982 601z"/>
<path d="M615 1334 c-66 -33 -65 -27 -65 -367 l0 -309 34 -34 34 -34 336 0
336 0 32 29 33 29 3 246 c4 342 9 336 -242 336 l-156 0 -56 50 c-30 28 -67 55
-80 60 -41 16 -175 12 -209 -6z m646 -200 c9 -11 10 -20 2 -32 -8 -14 -30 -18
-120 -20 -119 -3 -141 6 -128 48 6 19 14 20 119 20 91 0 116 -3 127 -16z
m-381 -163 c19 -10 43 -32 53 -50 21 -34 25 -117 8 -149 -7 -13 -7 -22 1 -30
24 -24 -9 -38 -92 -40 -102 -3 -140 16 -166 83 -29 78 -3 152 67 187 44 23 86
23 129 -1z"/>
<path d="M761 894 c-38 -48 -20 -115 34 -128 36 -9 50 2 30 24 -14 16 -14 18
1 30 12 11 20 11 34 2 16 -9 20 -8 25 7 8 25 -10 68 -34 80 -34 19 -68 13 -90
-15z"/>
</g>
</svg>
