<?xml version="1.0" standalone="no"?>
<!DOCTYPE svg PUBLIC "-//W3C//DTD SVG 20010904//EN"
 "http://www.w3.org/TR/2001/REC-SVG-20010904/DTD/svg10.dtd">
<svg version="1.0" xmlns="http://www.w3.org/2000/svg"
 width="192.000000pt" height="192.000000pt" viewBox="0 0 192.000000 192.000000"
 preserveAspectRatio="xMidYMid meet">
<metadata>
Created by potrace 1.16, written by Peter Selinger 2001-2019
</metadata>
<g transform="translate(0.000000,192.000000) scale(0.100000,-0.100000)"
fill="#000000" stroke="none">
811 c445 -92 729 -532 635 -987 -62 -301 -295 -546 -601 -630 -91 -26 -329
-26 -420 0 -291 80 -516 305 -596 596 -26 91 -26 329 0 420 120 433 542 692
982 601z"/>
<path d="M588 1321 l-33 -29 -3 -309 c-4 -424 -36 -393 409 -393 430 0 404
-21 404 325 0 329 3 325 -258 325 l-153 0 -39 41 c-60 62 -81 69 -194 69 -97
0 -102 -1 -133 -29z m675 -182 c6 -9 7 -24 4 -33 -5 -13 -24 -16 -120 -16
-126 0 -149 9 -127 50 10 19 18 20 122 18 89 -2 113 -6 121 -19z m-496 -201
l43 -42 44 43 c31 31 50 42 67 39 42 -6 37 -44 -12 -94 l-43 -44 42 -43 c43
-44 51 -64 30 -85 -21 -21 -41 -13 -85 30 l-43 42 -43 -42 c-44 -43 -64 -51
-85 -30 -21 21 -13 41 30 85 l42 43 -42 43 c-39 39 -52 74 -35 90 16 17 51 4
90 -35z"/>
</g>
</svg>
