<?xml version="1.0" standalone="no"?>
<!DOCTYPE svg PUBLIC "-//W3C//DTD SVG 20010904//EN"
 "http://www.w3.org/TR/2001/REC-SVG-20010904/DTD/svg10.dtd">
<svg version="1.0" xmlns="http://www.w3.org/2000/svg"
 width="192.000000pt" height="192.000000pt" viewBox="0 0 192.000000 192.000000"
 preserveAspectRatio="xMidYMid meet">
<metadata>
Created by potrace 1.16, written by Peter Selinger 2001-2019
</metadata>
<g transform="translate(0.000000,192.000000) scale(0.100000,-0.100000)"
fill="#000000" stroke="none">
811 c445 -92 729 -532 635 -987 -62 -301 -295 -546 -601 -630 -91 -26 -329
-26 -420 0 -291 80 -516 305 -596 596 -26 91 -26 329 0 420 120 433 542 692
982 601z"/>
<path d="M624 1336 c-17 -8 -41 -26 -53 -42 -22 -27 -22 -31 -19 -337 l3 -309
33 -29 32 -29 336 0 336 0 34 34 34 34 0 249 c0 272 -1 278 -60 308 -22 11
-66 15 -185 15 l-156 0 -52 49 c-29 28 -65 55 -81 60 -38 15 -165 13 -202 -3z
m644 -215 c2 -13 -2 -28 -10 -32 -7 -5 -61 -9 -120 -9 -98 0 -108 2 -118 21
-9 15 -8 24 1 35 9 12 36 14 128 12 114 -3 116 -3 119 -27z m-478 -121 c0 -11
7 -20 15 -20 8 0 15 9 15 20 0 11 4 20 8 20 16 0 32 -25 32 -49 0 -33 14 -56
29 -47 6 4 11 18 11 32 0 15 6 24 15 24 21 0 20 -58 -1 -81 -20 -22 -11 -39
20 -39 29 0 49 -22 44 -51 -5 -33 -26 -35 -39 -2 l-12 28 -8 -30 c-6 -21 -4
-34 7 -46 17 -18 16 -75 -1 -72 -5 1 -12 12 -15 24 -7 28 -23 34 -40 14 -7 -8
-21 -15 -31 -15 -16 0 -19 10 -21 73 -2 39 -7 72 -13 72 -5 0 -11 -33 -13 -72
-2 -63 -5 -73 -21 -73 -10 0 -24 7 -31 15 -17 20 -33 14 -40 -14 -3 -12 -9
-23 -15 -24 -17 -3 -18 54 -1 72 11 12 13 25 7 46 l-8 30 -12 -28 c-13 -33
-34 -31 -39 2 -5 29 15 51 44 51 31 0 40 17 20 39 -21 23 -22 81 -1 81 9 0 15
-9 15 -24 0 -14 5 -28 11 -32 15 -9 29 14 29 47 0 24 16 49 32 49 4 0 8 -9 8
-20z"/>
</g>
</svg>
