<?xml version="1.0" standalone="no"?>
<!DOCTYPE svg PUBLIC "-//W3C//DTD SVG 20010904//EN"
 "http://www.w3.org/TR/2001/REC-SVG-20010904/DTD/svg10.dtd">
<svg version="1.0" xmlns="http://www.w3.org/2000/svg"
 width="192.000000pt" height="192.000000pt" viewBox="0 0 192.000000 192.000000"
 preserveAspectRatio="xMidYMid meet">
<metadata>
Created by potrace 1.16, written by Peter Selinger 2001-2019
</metadata>
<g transform="translate(0.000000,192.000000) scale(0.100000,-0.100000)"
fill="#000000" stroke="none">
811 c445 -92 729 -532 635 -987 -62 -301 -295 -546 -601 -630 -91 -26 -329
-26 -420 0 -291 80 -516 305 -596 596 -26 91 -26 329 0 420 120 433 542 692
982 601z"/>
<path d="M613 1330 c-65 -39 -64 -36 -61 -375 l3 -307 33 -29 32 -29 334 0
334 0 31 26 c17 14 35 42 41 62 14 52 12 428 -3 472 -7 19 -27 44 -46 57 -32
22 -44 23 -193 23 l-159 0 -52 49 c-66 62 -89 71 -185 71 -59 0 -85 -5 -109
-20z m655 -209 c2 -13 -2 -28 -10 -32 -7 -5 -61 -9 -120 -9 -98 0 -108 2 -118
21 -9 15 -8 24 1 35 9 12 36 14 128 12 114 -3 116 -3 119 -27z m-282 -105 c18
-14 17 -16 -25 -60 l-44 -45 59 -3 c51 -3 59 -6 62 -24 2 -14 -7 -29 -24 -43
-22 -18 -40 -21 -112 -21 l-85 0 27 -25 c35 -32 35 -77 0 -112 -20 -20 -31
-24 -57 -19 -38 7 -67 39 -67 72 0 13 16 42 36 64 48 53 41 70 -27 70 -65 0
-89 19 -89 70 0 41 19 65 61 75 37 9 82 -31 82 -73 0 -18 5 -32 10 -32 6 0 38
27 73 60 64 62 86 70 120 46z"/>
<path d="M690 965 c-17 -21 -8 -50 17 -53 30 -4 49 31 27 52 -19 20 -28 20
-44 1z"/>
<path d="M771 756 c-15 -18 -8 -44 14 -52 21 -9 47 15 43 40 -4 26 -40 33 -57
12z"/>
</g>
</svg>
