<?xml version="1.0" standalone="no"?>
<!DOCTYPE svg PUBLIC "-//W3C//DTD SVG 20010904//EN"
 "http://www.w3.org/TR/2001/REC-SVG-20010904/DTD/svg10.dtd">
<svg version="1.0" xmlns="http://www.w3.org/2000/svg"
 width="192.000000pt" height="192.000000pt" viewBox="0 0 192.000000 192.000000"
 preserveAspectRatio="xMidYMid meet">
<metadata>
Created by potrace 1.16, written by Peter Selinger 2001-2019
</metadata>
<g transform="translate(0.000000,192.000000) scale(0.100000,-0.100000)"
fill="#000000" stroke="none">
811 c445 -92 729 -532 635 -987 -62 -301 -295 -546 -601 -630 -91 -26 -329
-26 -420 0 -291 80 -516 305 -596 596 -26 91 -26 329 0 420 120 433 542 692
982 601z"/>
<path d="M634 1339 c-16 -5 -41 -20 -55 -35 l-24 -26 -3 -298 c-2 -256 -1
-304 13 -330 30 -58 41 -60 401 -60 l326 0 34 34 34 34 0 249 c0 272 -1 278
-60 308 -22 11 -66 15 -185 15 l-156 0 -53 50 c-30 28 -69 55 -87 60 -41 12
-143 11 -185 -1z m631 -224 l0 -30 -119 0 c-100 0 -120 3 -129 17 -8 12 -7 21
3 32 11 14 32 16 129 14 l116 -3 0 -30z m-346 -126 c18 -11 38 -33 44 -49 6
-16 21 -33 34 -39 27 -12 31 -61 8 -101 -7 -14 -20 -39 -29 -57 -27 -58 -80
-66 -112 -17 -22 33 -52 30 -85 -8 -24 -29 -29 -32 -55 -23 -16 6 -33 20 -39
33 -6 13 -19 22 -32 22 -13 0 -23 6 -23 14 0 23 36 100 53 114 9 8 25 32 36
55 11 23 33 50 48 59 39 24 110 23 152 -3z"/>
<path d="M775 945 c-36 -35 -33 -55 10 -55 34 0 35 1 35 40 0 46 -11 50 -45
15z"/>
<path d="M860 930 c0 -39 1 -40 35 -40 28 0 35 4 35 19 0 19 -43 61 -61 61 -5
0 -9 -18 -9 -40z"/>
<path d="M720 756 c0 -8 4 -17 9 -20 11 -7 33 18 24 27 -12 12 -33 7 -33 -7z"/>
<path d="M902 753 c2 -10 8 -18 13 -18 5 0 11 8 13 18 2 10 -3 17 -13 17 -10
0 -15 -7 -13 -17z"/>
</g>
</svg>
