<?xml version="1.0" standalone="no"?>
<!DOCTYPE svg PUBLIC "-//W3C//DTD SVG 20010904//EN"
 "http://www.w3.org/TR/2001/REC-SVG-20010904/DTD/svg10.dtd">
<svg version="1.0" xmlns="http://www.w3.org/2000/svg"
 width="192.000000pt" height="192.000000pt" viewBox="0 0 192.000000 192.000000"
 preserveAspectRatio="xMidYMid meet">
<metadata>
Created by potrace 1.16, written by Peter Selinger 2001-2019
</metadata>
<g transform="translate(0.000000,192.000000) scale(0.100000,-0.100000)"
fill="#000000" stroke="none">
811 c445 -92 729 -532 635 -987 -62 -301 -295 -546 -601 -630 -91 -26 -329
-26 -420 0 -291 80 -516 305 -596 596 -26 91 -26 329 0 420 120 433 542 692
982 601z"/>
<path d="M624 1336 c-17 -8 -41 -26 -53 -42 -22 -27 -22 -31 -19 -337 l3 -309
33 -29 32 -29 336 0 336 0 33 33 c43 43 48 76 43 323 -3 217 -7 231 -61 264
-28 18 -51 20 -190 20 l-158 0 -52 49 c-29 28 -65 55 -81 60 -38 15 -165 13
-202 -3z m644 -215 c2 -13 -2 -28 -10 -32 -7 -5 -61 -9 -120 -9 -98 0 -108 2
-118 21 -9 15 -8 24 1 35 9 12 36 14 128 12 114 -3 116 -3 119 -27z m-508
-112 c0 -28 38 -25 42 4 2 12 10 22 18 22 8 0 16 -10 18 -22 4 -29 42 -32 42
-4 0 27 19 36 27 14 10 -27 59 -73 77 -73 25 0 19 -28 -6 -32 -33 -4 -35 -34
-3 -42 31 -8 28 -30 -3 -34 -30 -5 -29 -40 1 -44 12 -2 22 -10 22 -18 0 -8
-10 -16 -22 -18 -13 -2 -23 -10 -23 -17 0 -8 -9 -17 -20 -20 -11 -3 -20 -15
-20 -26 0 -10 -7 -19 -15 -19 -8 0 -15 9 -15 20 0 13 -7 20 -19 20 -10 0 -21
-9 -24 -20 -3 -11 -10 -20 -17 -20 -7 0 -14 9 -17 20 -3 11 -14 20 -24 20 -12
0 -19 -7 -19 -20 0 -11 -7 -20 -15 -20 -8 0 -15 9 -15 19 0 11 -9 23 -20 26
-11 3 -20 12 -20 20 0 7 -10 15 -22 17 -13 2 -23 10 -23 18 0 8 10 16 23 18
29 4 30 39 0 44 -31 4 -34 26 -3 34 32 8 30 38 -3 42 -25 4 -31 32 -6 32 18 0
67 46 77 73 8 22 27 13 27 -14z"/>
<path d="M772 911 c-9 -5 -12 -25 -10 -57 l3 -49 55 0 55 0 3 49 c4 56 -5 66
-58 66 -19 0 -41 -4 -48 -9z"/>
</g>
</svg>
