<?xml version="1.0" standalone="no"?>
<!DOCTYPE svg PUBLIC "-//W3C//DTD SVG 20010904//EN"
 "http://www.w3.org/TR/2001/REC-SVG-20010904/DTD/svg10.dtd">
<svg version="1.0" xmlns="http://www.w3.org/2000/svg"
 width="192.000000pt" height="192.000000pt" viewBox="0 0 192.000000 192.000000"
 preserveAspectRatio="xMidYMid meet">
<metadata>
Created by potrace 1.16, written by Peter Selinger 2001-2019
</metadata>
<g transform="translate(0.000000,192.000000) scale(0.100000,-0.100000)"
fill="#000000" stroke="none">
811 c445 -92 729 -532 635 -987 -62 -301 -295 -546 -601 -630 -91 -26 -329
-26 -420 0 -291 80 -516 305 -596 596 -26 91 -26 329 0 420 120 433 542 692
982 601z"/>
<path d="M624 1340 c-11 -4 -33 -22 -47 -40 l-27 -32 0 -305 0 -305 34 -34 34
-34 335 0 335 0 31 26 c17 14 35 42 41 62 13 47 13 416 0 463 -6 19 -22 46
-36 60 -25 23 -32 24 -199 29 l-174 5 -48 47 c-26 26 -61 52 -76 57 -33 13
-173 13 -203 1z m643 -206 c3 -9 2 -24 -4 -33 -15 -25 -222 -29 -240 -5 -9 12
-9 22 -2 35 9 17 23 19 125 19 97 0 116 -3 121 -16z m-405 -114 c80 -22 131
-91 131 -175 0 -105 -73 -178 -178 -178 -105 0 -178 73 -178 178 0 81 44 143
120 170 47 17 58 18 105 5z"/>
<path d="M743 960 c-115 -70 -63 -250 72 -250 76 0 135 59 135 135 0 106 -116
171 -207 115z m153 -125 c-6 -16 -8 -16 -31 -1 l-24 16 -3 -43 c-2 -34 -7 -42
-23 -42 -16 0 -21 8 -25 45 -3 28 -8 40 -13 33 -5 -7 -17 -13 -28 -13 -32 0
-22 35 22 75 l42 37 45 -45 c31 -32 43 -50 38 -62z"/>
</g>
</svg>
