<?xml version="1.0" standalone="no"?>
<!DOCTYPE svg PUBLIC "-//W3C//DTD SVG 20010904//EN"
 "http://www.w3.org/TR/2001/REC-SVG-20010904/DTD/svg10.dtd">
<svg version="1.0" xmlns="http://www.w3.org/2000/svg"
 width="192.000000pt" height="192.000000pt" viewBox="0 0 192.000000 192.000000"
 preserveAspectRatio="xMidYMid meet">
<metadata>
Created by potrace 1.16, written by Peter Selinger 2001-2019
</metadata>
<g transform="translate(0.000000,192.000000) scale(0.100000,-0.100000)"
fill="#000000" stroke="none">
811 c445 -92 729 -532 635 -987 -62 -301 -295 -546 -601 -630 -91 -26 -329
-26 -420 0 -291 80 -516 305 -596 596 -26 91 -26 329 0 420 120 433 542 692
982 601z"/>
<path d="M640 1343 c-90 -29 -90 -31 -90 -384 l0 -301 34 -34 34 -34 325 0
c188 0 337 4 351 10 14 5 35 24 46 42 18 31 20 51 20 266 0 328 5 322 -247
322 l-158 0 -56 53 c-35 33 -69 56 -89 60 -37 8 -147 8 -170 0z m625 -213 c13
-42 -9 -51 -128 -48 -88 2 -112 6 -120 19 -6 9 -7 24 -4 33 5 14 24 16 126 16
112 0 120 -1 126 -20z m-388 -165 c47 -33 37 -110 -21 -164 -35 -33 -33 -41
14 -41 38 0 40 -2 40 -30 l0 -30 -95 0 -95 0 0 26 c0 18 18 46 60 91 33 35 60
68 60 72 0 5 -7 14 -15 21 -13 10 -19 10 -34 -4 -13 -12 -27 -15 -45 -10 -33
8 -33 28 -1 59 29 30 97 34 132 10z"/>
</g>
</svg>
