<?xml version="1.0" standalone="no"?>
<!DOCTYPE svg PUBLIC "-//W3C//DTD SVG 20010904//EN"
 "http://www.w3.org/TR/2001/REC-SVG-20010904/DTD/svg10.dtd">
<svg version="1.0" xmlns="http://www.w3.org/2000/svg"
 width="192.000000pt" height="192.000000pt" viewBox="0 0 192.000000 192.000000"
 preserveAspectRatio="xMidYMid meet">
<metadata>
Created by potrace 1.16, written by Peter Selinger 2001-2019
</metadata>
<g transform="translate(0.000000,192.000000) scale(0.100000,-0.100000)"
fill="#000000" stroke="none">
811 c445 -92 729 -532 635 -987 -62 -301 -295 -546 -601 -630 -91 -26 -329
-26 -420 0 -291 80 -516 305 -596 596 -26 91 -26 329 0 420 120 433 542 692
982 601z"/>
<path d="M875 1289 c-68 -19 -154 -122 -155 -185 0 -16 -10 -24 -41 -33 -23
-7 -59 -30 -83 -54 -141 -142 -41 -387 159 -387 58 0 116 24 167 68 l35 31 29
-31 c117 -124 331 -70 379 96 33 114 -29 237 -139 277 -29 10 -36 20 -45 54
-32 128 -173 203 -306 164z"/>
</g>
</svg>
