<?xml version="1.0" standalone="no"?>
<!DOCTYPE svg PUBLIC "-//W3C//DTD SVG 20010904//EN"
 "http://www.w3.org/TR/2001/REC-SVG-20010904/DTD/svg10.dtd">
<svg version="1.0" xmlns="http://www.w3.org/2000/svg"
 width="192.000000pt" height="192.000000pt" viewBox="0 0 192.000000 192.000000"
 preserveAspectRatio="xMidYMid meet">
<metadata>
Created by potrace 1.16, written by Peter Selinger 2001-2019
</metadata>
<g transform="translate(0.000000,192.000000) scale(0.100000,-0.100000)"
fill="#000000" stroke="none">
811 c445 -92 729 -532 635 -987 -62 -301 -295 -546 -601 -630 -91 -26 -329
-26 -420 0 -291 80 -516 305 -596 596 -26 91 -26 329 0 420 120 433 542 692
982 601z"/>
<path d="M634 1339 c-16 -5 -41 -20 -55 -35 l-24 -26 -3 -298 c-2 -256 -1
-304 13 -330 30 -58 41 -60 401 -60 l326 0 34 34 34 34 0 249 c0 272 -1 278
-60 308 -22 11 -66 15 -185 15 l-156 0 -53 50 c-30 28 -69 55 -87 60 -41 12
-143 11 -185 -1z m631 -224 l0 -30 -119 0 c-100 0 -120 3 -129 17 -8 12 -7 21
3 32 11 14 32 16 129 14 l116 -3 0 -30z"/>
</g>
</svg>
