<?xml version="1.0" standalone="no"?>
<!DOCTYPE svg PUBLIC "-//W3C//DTD SVG 20010904//EN"
 "http://www.w3.org/TR/2001/REC-SVG-20010904/DTD/svg10.dtd">
<svg version="1.0" xmlns="http://www.w3.org/2000/svg"
 width="192.000000pt" height="192.000000pt" viewBox="0 0 192.000000 192.000000"
 preserveAspectRatio="xMidYMid meet">
<metadata>
Created by potrace 1.16, written by Peter Selinger 2001-2019
</metadata>
<g transform="translate(0.000000,192.000000) scale(0.100000,-0.100000)"
fill="#000000" stroke="none">
811 c445 -92 729 -532 635 -987 -62 -301 -295 -546 -601 -630 -91 -26 -329
-26 -420 0 -291 80 -516 305 -596 596 -26 91 -26 329 0 420 120 433 542 692
982 601z"/>
<path d="M615 1334 c-66 -33 -65 -27 -65 -367 l0 -309 34 -34 34 -34 334 0
c365 0 362 -1 393 60 12 23 15 75 15 260 0 325 4 320 -246 320 l-156 0 -58 54
c-35 31 -71 56 -90 60 -59 11 -164 6 -195 -10z m650 -204 c13 -42 -9 -51 -128
-48 -88 2 -112 6 -120 19 -6 9 -7 24 -4 33 5 14 24 16 126 16 112 0 120 -1
126 -20z m-485 -245 c17 -52 33 -95 35 -95 1 0 18 43 36 95 32 94 32 95 66 95
20 0 33 -5 33 -12 -1 -7 -22 -69 -48 -138 l-47 -125 -40 0 -40 0 -47 125 c-26
69 -47 131 -48 138 0 7 13 12 34 12 l34 0 32 -95z"/>
</g>
</svg>
