<?xml version="1.0" standalone="no"?>
<!DOCTYPE svg PUBLIC "-//W3C//DTD SVG 20010904//EN"
 "http://www.w3.org/TR/2001/REC-SVG-20010904/DTD/svg10.dtd">
<svg version="1.0" xmlns="http://www.w3.org/2000/svg"
 width="192.000000pt" height="192.000000pt" viewBox="0 0 192.000000 192.000000"
 preserveAspectRatio="xMidYMid meet">
<metadata>
Created by potrace 1.16, written by Peter Selinger 2001-2019
</metadata>
<g transform="translate(0.000000,192.000000) scale(0.100000,-0.100000)"
fill="#000000" stroke="none">
811 c445 -92 729 -532 635 -987 -62 -301 -295 -546 -601 -630 -91 -26 -329
-26 -420 0 -291 80 -516 305 -596 596 -26 91 -26 329 0 420 120 433 542 692
982 601z"/>
<path d="M602 1324 c-50 -34 -52 -52 -52 -367 0 -406 -31 -377 409 -377 174 0
311 4 326 10 14 5 37 22 50 36 l25 27 0 253 0 252 -29 30 c-38 37 -63 42 -235
42 l-142 0 -39 41 c-60 62 -81 69 -192 69 -73 0 -104 -4 -121 -16z m661 -195
c6 -9 7 -24 4 -33 -5 -13 -24 -16 -120 -16 -126 0 -149 9 -127 50 10 19 18 20
122 18 89 -2 113 -6 121 -19z m-347 -80 c3 -6 -8 -25 -25 -43 -17 -18 -31 -35
-31 -39 0 -3 35 -7 78 -9 l77 -3 3 -134 c2 -101 -1 -136 -10 -143 -7 -4 -88
-8 -179 -8 -130 0 -169 3 -178 14 -8 9 -11 56 -9 142 l3 129 43 3 c44 3 52 12
27 32 -18 15 -20 40 -3 40 7 0 28 -16 48 -35 l36 -35 49 50 c52 52 60 57 71
39z"/>
<path d="M687 914 c-4 -4 -7 -52 -7 -106 l0 -98 115 0 116 0 -3 103 -3 102
-106 3 c-58 1 -108 -1 -112 -4z"/>
<path d="M945 911 c-8 -15 3 -31 21 -31 9 0 14 7 12 17 -4 20 -24 28 -33 14z"/>
<path d="M946 841 c-7 -11 18 -33 27 -24 4 3 7 12 7 20 0 15 -26 18 -34 4z"/>
</g>
</svg>
