<?xml version="1.0" standalone="no"?>
<!DOCTYPE svg PUBLIC "-//W3C//DTD SVG 20010904//EN"
 "http://www.w3.org/TR/2001/REC-SVG-20010904/DTD/svg10.dtd">
<svg version="1.0" xmlns="http://www.w3.org/2000/svg"
 width="192.000000pt" height="192.000000pt" viewBox="0 0 192.000000 192.000000"
 preserveAspectRatio="xMidYMid meet">
<metadata>
Created by potrace 1.16, written by Peter Selinger 2001-2019
</metadata>
<g transform="translate(0.000000,192.000000) scale(0.100000,-0.100000)"
fill="#000000" stroke="none">
811 c445 -92 729 -532 635 -987 -62 -301 -295 -546 -601 -630 -91 -26 -329
-26 -420 0 -291 80 -516 305 -596 596 -26 91 -26 329 0 420 120 433 542 692
982 601z"/>
<path d="M613 1330 c-13 -5 -32 -24 -43 -42 -19 -31 -20 -50 -20 -323 0 -312
2 -321 53 -359 28 -20 39 -21 351 -21 352 0 363 2 392 57 18 35 20 483 2 522
-24 54 -49 61 -228 64 l-165 3 -45 44 c-25 23 -55 48 -67 54 -26 13 -198 14
-230 1z m645 -189 c8 -4 12 -19 10 -32 -3 -24 -5 -24 -119 -27 -92 -2 -119 0
-128 12 -9 11 -10 20 -1 35 10 19 20 21 118 21 59 0 113 -4 120 -9z m-285
-119 c14 -15 25 -37 24 -49 0 -12 -4 -20 -8 -17 -9 5 -31 -21 -24 -28 3 -3 -5
-3 -17 -1 -16 3 -31 -4 -46 -20 -19 -21 -21 -28 -12 -52 13 -35 -3 -81 -31
-90 -11 -4 -19 -16 -19 -29 0 -13 -9 -35 -21 -50 -16 -21 -29 -26 -64 -26
-105 0 -187 152 -112 205 12 8 31 15 42 15 12 0 31 13 43 30 16 22 31 30 52
30 32 0 37 -9 18 -28 -6 -6 -8 -15 -5 -19 11 -10 96 77 91 92 -3 7 0 16 5 20
6 3 8 11 5 17 -4 6 -2 8 3 5 6 -4 16 0 23 8 17 20 22 19 53 -13z"/>
<path d="M690 790 c-16 -31 4 -62 38 -58 19 2 28 10 30 26 7 47 -47 72 -68 32z"/>
</g>
</svg>
