<?xml version="1.0" standalone="no"?>
<!DOCTYPE svg PUBLIC "-//W3C//DTD SVG 20010904//EN"
 "http://www.w3.org/TR/2001/REC-SVG-20010904/DTD/svg10.dtd">
<svg version="1.0" xmlns="http://www.w3.org/2000/svg"
 width="192.000000pt" height="192.000000pt" viewBox="0 0 192.000000 192.000000"
 preserveAspectRatio="xMidYMid meet">
<metadata>
Created by potrace 1.16, written by Peter Selinger 2001-2019
</metadata>
<g transform="translate(0.000000,192.000000) scale(0.100000,-0.100000)"
fill="#000000" stroke="none">
811 c445 -92 729 -532 635 -987 -62 -301 -295 -546 -601 -630 -91 -26 -329
-26 -420 0 -291 80 -516 305 -596 596 -26 91 -26 329 0 420 120 433 542 692
982 601z"/>
<path d="M624 1336 c-17 -8 -41 -26 -53 -42 -22 -27 -22 -31 -19 -337 l3 -309
33 -29 32 -29 336 0 336 0 33 33 c43 43 48 76 43 323 -3 217 -7 231 -61 264
-28 18 -51 20 -190 20 l-158 0 -52 49 c-29 28 -65 55 -81 60 -38 15 -165 13
-202 -3z m644 -215 c2 -13 -2 -28 -10 -32 -7 -5 -61 -9 -120 -9 -98 0 -108 2
-118 21 -9 15 -8 24 1 35 9 12 36 14 128 12 114 -3 116 -3 119 -27z m-442
-109 c6 -4 19 -21 28 -39 18 -36 43 -53 78 -53 52 0 62 -40 21 -83 -24 -24
-28 -37 -28 -85 0 -67 -13 -75 -77 -46 -36 16 -41 16 -74 1 -68 -33 -88 -19
-78 56 5 38 3 45 -25 71 -45 43 -37 86 17 86 35 0 60 17 78 53 15 29 32 47 44
47 3 0 10 -4 16 -8z"/>
</g>
</svg>
