<?xml version="1.0" standalone="no"?>
<!DOCTYPE svg PUBLIC "-//W3C//DTD SVG 20010904//EN"
 "http://www.w3.org/TR/2001/REC-SVG-20010904/DTD/svg10.dtd">
<svg version="1.0" xmlns="http://www.w3.org/2000/svg"
 width="192.000000pt" height="192.000000pt" viewBox="0 0 192.000000 192.000000"
 preserveAspectRatio="xMidYMid meet">
<metadata>
Created by potrace 1.16, written by Peter Selinger 2001-2019
</metadata>
<g transform="translate(0.000000,192.000000) scale(0.100000,-0.100000)"
fill="#000000" stroke="none">
811 c445 -92 729 -532 635 -987 -62 -301 -295 -546 -601 -630 -91 -26 -329
-26 -420 0 -291 80 -516 305 -596 596 -26 91 -26 329 0 420 120 433 542 692
982 601z"/>
<path d="M615 1334 c-66 -33 -65 -27 -65 -367 l0 -309 34 -34 34 -34 334 0
c365 0 362 -1 393 60 12 23 15 75 15 260 0 326 4 320 -247 320 l-159 0 -44 45
c-24 24 -58 51 -76 60 -43 20 -179 20 -219 -1z m646 -200 c9 -11 10 -20 2 -32
-8 -14 -30 -18 -120 -20 -119 -3 -141 6 -128 48 6 19 14 20 119 20 91 0 116
-3 127 -16z m-343 -180 c2 -13 -20 -51 -57 -102 l-61 -82 61 0 60 0 -3 -32 -3
-33 -100 0 -100 0 -3 28 c-3 22 10 46 52 102 31 41 56 77 56 80 0 3 -25 5 -55
5 -55 0 -55 0 -55 30 l0 31 103 -3 c95 -3 102 -4 105 -24z"/>
</g>
</svg>
