<?xml version="1.0" standalone="no"?>
<!DOCTYPE svg PUBLIC "-//W3C//DTD SVG 20010904//EN"
 "http://www.w3.org/TR/2001/REC-SVG-20010904/DTD/svg10.dtd">
<svg version="1.0" xmlns="http://www.w3.org/2000/svg"
 width="192.000000pt" height="192.000000pt" viewBox="0 0 192.000000 192.000000"
 preserveAspectRatio="xMidYMid meet">
<metadata>
Created by potrace 1.16, written by Peter Selinger 2001-2019
</metadata>
<g transform="translate(0.000000,192.000000) scale(0.100000,-0.100000)"
fill="#000000" stroke="none">
811 c445 -92 729 -532 635 -987 -62 -301 -295 -546 -601 -630 -91 -26 -329
-26 -420 0 -291 80 -516 305 -596 596 -26 91 -26 329 0 420 120 433 542 692
982 601z"/>
<path d="M624 1336 c-17 -8 -40 -26 -52 -41 -21 -27 -22 -35 -22 -322 0 -241
3 -299 15 -323 31 -61 28 -60 393 -60 l334 0 34 34 34 34 0 249 c0 272 -1 278
-60 308 -22 11 -66 15 -185 15 l-156 0 -52 49 c-29 28 -65 55 -81 60 -38 15
-165 13 -202 -3z m641 -221 l0 -30 -119 0 c-100 0 -120 3 -129 17 -8 12 -7 21
3 32 11 14 32 16 129 14 l116 -3 0 -30z m-377 -106 c105 -51 132 -188 54 -281
-72 -86 -217 -76 -282 19 -20 30 -25 49 -25 103 0 58 4 71 29 104 33 43 95 75
145 76 19 0 54 -10 79 -21z"/>
<path d="M734 961 c-17 -10 -39 -36 -48 -56 -54 -113 66 -233 179 -179 50 23
75 66 75 128 0 43 -4 53 -39 87 -34 35 -44 39 -87 39 -30 0 -61 -7 -80 -19z
m94 -75 c3 -47 4 -47 22 -31 19 17 50 15 50 -3 0 -17 -72 -92 -89 -92 -25 0
-95 75 -88 94 8 20 21 20 37 1 21 -25 30 -17 30 28 0 24 3 47 7 51 16 15 28
-4 31 -48z"/>
</g>
</svg>
