<?xml version="1.0" standalone="no"?>
<!DOCTYPE svg PUBLIC "-//W3C//DTD SVG 20010904//EN"
 "http://www.w3.org/TR/2001/REC-SVG-20010904/DTD/svg10.dtd">
<svg version="1.0" xmlns="http://www.w3.org/2000/svg"
 width="192.000000pt" height="192.000000pt" viewBox="0 0 192.000000 192.000000"
 preserveAspectRatio="xMidYMid meet">
<metadata>
Created by potrace 1.16, written by Peter Selinger 2001-2019
</metadata>
<g transform="translate(0.000000,192.000000) scale(0.100000,-0.100000)"
fill="#000000" stroke="none">
811 c445 -92 729 -532 635 -987 -62 -301 -295 -546 -601 -630 -91 -26 -329
-26 -420 0 -291 80 -516 305 -596 596 -26 91 -26 329 0 420 120 433 542 692
982 601z"/>
<path d="M625 1336 c-16 -7 -39 -23 -50 -36 -19 -21 -20 -38 -23 -324 -2 -287
-1 -303 18 -334 11 -18 32 -37 46 -42 14 -6 163 -10 351 -10 l325 0 34 34 34
34 0 249 c0 272 -1 278 -60 308 -22 11 -66 15 -185 15 l-156 0 -52 49 c-29 28
-65 55 -81 60 -38 15 -165 13 -201 -3z m640 -221 l0 -30 -119 0 c-100 0 -120
3 -129 17 -8 12 -7 21 3 32 11 14 32 16 129 14 l116 -3 0 -30z m-327 -99 c41
-21 58 -61 54 -123 -3 -29 -49 -83 -72 -83 -28 0 -30 22 -4 53 28 33 31 73 7
99 -23 25 -56 22 -92 -8 -32 -26 -61 -27 -61 0 0 8 16 28 35 45 40 35 87 41
133 17z m-61 -121 c5 -15 -81 -105 -99 -105 -33 0 -27 31 14 76 40 43 76 55
85 29z m-148 -9 c9 -11 6 -20 -14 -44 -34 -40 -34 -86 1 -108 23 -16 27 -16
57 -1 18 9 40 22 49 29 14 10 20 10 30 0 16 -16 2 -39 -43 -70 -110 -76 -227
71 -138 173 34 39 41 41 58 21z"/>
</g>
</svg>
