<?xml version="1.0" standalone="no"?>
<!DOCTYPE svg PUBLIC "-//W3C//DTD SVG 20010904//EN"
 "http://www.w3.org/TR/2001/REC-SVG-20010904/DTD/svg10.dtd">
<svg version="1.0" xmlns="http://www.w3.org/2000/svg"
 width="192.000000pt" height="192.000000pt" viewBox="0 0 192.000000 192.000000"
 preserveAspectRatio="xMidYMid meet">
<metadata>
Created by potrace 1.16, written by Peter Selinger 2001-2019
</metadata>
<g transform="translate(0.000000,192.000000) scale(0.100000,-0.100000)"
fill="#000000" stroke="none">
811 c445 -92 729 -532 635 -987 -62 -301 -295 -546 -601 -630 -91 -26 -329
-26 -420 0 -291 80 -516 305 -596 596 -26 91 -26 329 0 420 120 433 542 692
982 601z"/>
<path d="M624 1336 c-17 -8 -40 -26 -52 -41 -21 -27 -22 -35 -22 -322 0 -241
3 -299 15 -323 31 -61 28 -60 393 -60 l334 0 34 34 34 34 0 249 c0 272 -1 278
-60 308 -22 11 -66 15 -185 15 l-156 0 -52 49 c-29 28 -65 55 -81 60 -38 15
-165 13 -202 -3z m641 -221 l0 -30 -117 -3 c-110 -2 -118 -1 -128 18 -9 16 -8
25 1 36 9 12 36 14 128 12 l116 -3 0 -30z m-345 -135 c6 -11 21 -20 33 -20 13
0 28 -5 35 -12 17 -17 17 -239 0 -256 -17 -17 -319 -17 -336 0 -17 17 -17 239
0 256 7 7 22 12 33 12 12 0 30 9 40 20 15 17 31 20 101 20 73 0 85 -2 94 -20z"/>
<path d="M774 877 c-55 -48 -25 -127 47 -127 29 0 42 6 58 26 24 30 26 43 10
77 -11 24 -47 47 -74 47 -8 0 -26 -11 -41 -23z m76 -32 c14 -17 5 -51 -15 -59
-35 -13 -63 21 -45 55 13 23 43 25 60 4z"/>
</g>
</svg>
