<?xml version="1.0" standalone="no"?>
<!DOCTYPE svg PUBLIC "-//W3C//DTD SVG 20010904//EN"
 "http://www.w3.org/TR/2001/REC-SVG-20010904/DTD/svg10.dtd">
<svg version="1.0" xmlns="http://www.w3.org/2000/svg"
 width="192.000000pt" height="192.000000pt" viewBox="0 0 192.000000 192.000000"
 preserveAspectRatio="xMidYMid meet">
<metadata>
Created by potrace 1.16, written by Peter Selinger 2001-2019
</metadata>
<g transform="translate(0.000000,192.000000) scale(0.100000,-0.100000)"
fill="#000000" stroke="none">
811 c445 -92 729 -532 635 -987 -62 -301 -295 -546 -601 -630 -91 -26 -329
-26 -420 0 -291 80 -516 305 -596 596 -26 91 -26 329 0 420 120 433 542 692
982 601z"/>
<path d="M640 1343 c-90 -29 -90 -31 -90 -384 l0 -301 34 -34 34 -34 325 0
c188 0 337 4 351 10 14 5 35 24 46 42 18 31 20 51 20 266 0 328 5 322 -247
322 l-158 0 -56 53 c-35 33 -69 56 -89 60 -37 8 -147 8 -170 0z m625 -213 c13
-42 -9 -51 -128 -48 -88 2 -112 6 -120 19 -6 9 -7 24 -4 33 5 14 24 16 126 16
112 0 120 -1 126 -20z m-373 -167 c15 -14 18 -33 18 -135 l0 -119 -27 3 c-25
3 -28 7 -31 46 -3 41 -4 42 -38 42 -34 0 -34 0 -34 -45 0 -43 -1 -45 -30 -45
l-30 0 0 115 c0 102 2 117 20 135 26 26 124 28 152 3z"/>
<path d="M787 923 c-4 -3 -7 -21 -7 -40 0 -31 2 -33 35 -33 34 0 35 1 35 40 0
37 -2 40 -28 40 -16 0 -32 -3 -35 -7z"/>
</g>
</svg>
