<?xml version="1.0" standalone="no"?>
<!DOCTYPE svg PUBLIC "-//W3C//DTD SVG 20010904//EN"
 "http://www.w3.org/TR/2001/REC-SVG-20010904/DTD/svg10.dtd">
<svg version="1.0" xmlns="http://www.w3.org/2000/svg"
 width="192.000000pt" height="192.000000pt" viewBox="0 0 192.000000 192.000000"
 preserveAspectRatio="xMidYMid meet">
<metadata>
Created by potrace 1.16, written by Peter Selinger 2001-2019
</metadata>
<g transform="translate(0.000000,192.000000) scale(0.100000,-0.100000)"
fill="#000000" stroke="none">
811 c445 -92 729 -532 635 -987 -62 -301 -295 -546 -601 -630 -91 -26 -329
-26 -420 0 -291 80 -516 305 -596 596 -26 91 -26 329 0 420 120 433 542 692
982 601z"/>
<path d="M615 1336 c-17 -7 -40 -26 -50 -42 -18 -27 -20 -51 -23 -289 -4 -312
-1 -338 43 -382 l33 -33 336 0 336 0 32 29 33 29 3 246 c4 343 9 336 -243 336
l-156 0 -52 49 c-29 28 -65 55 -81 60 -38 15 -175 13 -211 -3z m646 -202 c9
-11 10 -20 2 -32 -8 -14 -30 -18 -120 -20 -119 -3 -141 6 -128 48 6 19 14 20
119 20 91 0 116 -3 127 -16z m-366 -179 c0 -29 -2 -30 -52 -33 -42 -2 -53 -7
-53 -20 0 -14 9 -17 41 -17 33 0 46 -6 65 -28 61 -71 -5 -169 -104 -154 -37 6
-88 50 -77 67 9 15 55 17 66 4 25 -30 75 -5 67 33 -3 14 -14 18 -56 19 -29 0
-57 5 -61 10 -9 9 3 127 15 145 3 6 38 9 77 7 l72 -3 0 -30z"/>
</g>
</svg>
