<?xml version="1.0" standalone="no"?>
<!DOCTYPE svg PUBLIC "-//W3C//DTD SVG 20010904//EN"
 "http://www.w3.org/TR/2001/REC-SVG-20010904/DTD/svg10.dtd">
<svg version="1.0" xmlns="http://www.w3.org/2000/svg"
 width="192.000000pt" height="192.000000pt" viewBox="0 0 192.000000 192.000000"
 preserveAspectRatio="xMidYMid meet">
<metadata>
Created by potrace 1.16, written by Peter Selinger 2001-2019
</metadata>
<g transform="translate(0.000000,192.000000) scale(0.100000,-0.100000)"
fill="#000000" stroke="none">
811 c445 -92 729 -532 635 -987 -62 -301 -295 -546 -601 -630 -91 -26 -329
-26 -420 0 -291 80 -516 305 -596 596 -26 91 -26 329 0 420 120 433 542 692
982 601z"/>
<path d="M624 1336 c-17 -8 -40 -26 -52 -41 -21 -27 -22 -35 -22 -322 0 -241
3 -299 15 -323 31 -61 28 -60 393 -60 l334 0 34 34 34 34 0 249 c0 272 -1 278
-60 308 -22 11 -66 15 -185 15 l-156 0 -52 49 c-29 28 -65 55 -81 60 -38 15
-165 13 -202 -3z m641 -221 l0 -30 -117 -3 c-110 -2 -118 -1 -128 18 -9 16 -8
25 1 36 9 12 36 14 128 12 l116 -3 0 -30z m-378 -97 c12 -13 25 -38 29 -55 6
-29 4 -33 -15 -33 -14 0 -25 9 -32 27 -13 34 -26 43 -61 43 -34 0 -61 -37 -56
-77 l3 -28 100 -3 c64 -2 102 -7 107 -15 13 -21 9 -127 -7 -156 -19 -38 -30
-41 -146 -41 -93 0 -102 2 -124 25 -22 21 -25 33 -25 100 0 71 1 76 25 85 20
8 25 16 25 44 0 49 18 82 54 101 40 20 93 13 123 -17z"/>
<path d="M783 814 c-3 -8 -1 -20 6 -27 6 -6 11 -19 11 -30 0 -10 5 -17 12 -15
15 5 32 54 24 73 -7 20 -45 19 -53 -1z"/>
</g>
</svg>
