<?xml version="1.0" standalone="no"?>
<!DOCTYPE svg PUBLIC "-//W3C//DTD SVG 20010904//EN"
 "http://www.w3.org/TR/2001/REC-SVG-20010904/DTD/svg10.dtd">
<svg version="1.0" xmlns="http://www.w3.org/2000/svg"
 width="192.000000pt" height="192.000000pt" viewBox="0 0 192.000000 192.000000"
 preserveAspectRatio="xMidYMid meet">
<metadata>
Created by potrace 1.16, written by Peter Selinger 2001-2019
</metadata>
<g transform="translate(0.000000,192.000000) scale(0.100000,-0.100000)"
fill="#000000" stroke="none">
811 c445 -92 729 -532 635 -987 -62 -301 -295 -546 -601 -630 -91 -26 -329
-26 -420 0 -291 80 -516 305 -596 596 -26 91 -26 329 0 420 120 433 542 692
982 601z"/>
<path d="M615 1336 c-17 -7 -40 -26 -50 -42 -18 -27 -20 -51 -23 -289 -4 -312
-1 -338 43 -382 l33 -33 336 0 336 0 32 29 33 29 3 246 c4 343 9 336 -243 336
l-156 0 -52 49 c-29 28 -65 55 -81 60 -38 15 -175 13 -211 -3z m646 -202 c9
-11 10 -20 2 -32 -8 -14 -30 -18 -120 -20 -119 -3 -141 6 -128 48 6 19 14 20
119 20 91 0 116 -3 127 -16z m-402 -155 c27 -10 51 -34 51 -54 0 -16 -46 -21
-67 -8 -27 18 -65 8 -61 -15 2 -10 22 -23 50 -32 62 -20 88 -43 88 -79 0 -43
-9 -60 -41 -76 -61 -32 -169 -6 -169 41 0 23 42 35 62 17 9 -8 29 -13 45 -11
35 4 43 34 11 43 -97 27 -132 68 -108 126 8 18 26 37 44 45 38 16 55 17 95 3z"/>
</g>
</svg>
