<?xml version="1.0" standalone="no"?>
<!DOCTYPE svg PUBLIC "-//W3C//DTD SVG 20010904//EN"
 "http://www.w3.org/TR/2001/REC-SVG-20010904/DTD/svg10.dtd">
<svg version="1.0" xmlns="http://www.w3.org/2000/svg"
 width="192.000000pt" height="192.000000pt" viewBox="0 0 192.000000 192.000000"
 preserveAspectRatio="xMidYMid meet">
<metadata>
Created by potrace 1.16, written by Peter Selinger 2001-2019
</metadata>
<g transform="translate(0.000000,192.000000) scale(0.100000,-0.100000)"
fill="#000000" stroke="none">
811 c445 -92 729 -532 635 -987 -62 -301 -295 -546 -601 -630 -91 -26 -329
-26 -420 0 -291 80 -516 305 -596 596 -26 91 -26 329 0 420 120 433 542 692
982 601z"/>
<path d="M625 1336 c-16 -7 -39 -23 -50 -36 -19 -21 -20 -38 -23 -324 -2 -287
-1 -303 18 -334 11 -18 32 -37 46 -42 14 -6 163 -10 351 -10 l325 0 34 34 34
34 0 249 c0 272 -1 278 -60 308 -22 11 -66 15 -185 15 l-156 0 -52 49 c-29 28
-65 55 -81 60 -38 15 -165 13 -201 -3z m640 -221 l0 -30 -119 0 c-100 0 -120
3 -129 17 -8 12 -7 21 3 32 11 14 32 16 129 14 l116 -3 0 -30z m-374 -91 c22
-11 29 -21 27 -37 -3 -20 -8 -22 -66 -19 -57 3 -64 1 -92 -26 -36 -36 -46 -73
-30 -111 17 -42 43 -62 89 -68 36 -5 44 -2 73 28 l33 34 -44 5 c-51 6 -73 29
-51 55 10 12 28 15 84 13 l71 -3 3 -45 c2 -34 -3 -54 -20 -80 -27 -40 -98 -80
-143 -80 -107 1 -193 114 -166 218 28 103 144 162 232 116z"/>
</g>
</svg>
