<?xml version="1.0" standalone="no"?>
<!DOCTYPE svg PUBLIC "-//W3C//DTD SVG 20010904//EN"
 "http://www.w3.org/TR/2001/REC-SVG-20010904/DTD/svg10.dtd">
<svg version="1.0" xmlns="http://www.w3.org/2000/svg"
 width="192.000000pt" height="192.000000pt" viewBox="0 0 192.000000 192.000000"
 preserveAspectRatio="xMidYMid meet">
<metadata>
Created by potrace 1.16, written by Peter Selinger 2001-2019
</metadata>
<g transform="translate(0.000000,192.000000) scale(0.100000,-0.100000)"
fill="#000000" stroke="none">
811 c445 -92 729 -532 635 -987 -62 -301 -295 -546 -601 -630 -91 -26 -329
-26 -420 0 -291 80 -516 305 -596 596 -26 91 -26 329 0 420 120 433 542 692
982 601z"/>
<path d="M588 1311 l-33 -29 -3 -309 c-4 -424 -36 -393 407 -393 174 0 311 4
326 10 14 5 37 22 50 36 l25 27 0 249 c0 336 6 328 -253 328 l-153 0 -39 41
c-60 62 -81 69 -194 69 -97 0 -102 -1 -133 -29z m675 -182 c6 -9 7 -24 4 -33
-5 -13 -24 -16 -120 -16 -126 0 -149 9 -127 50 10 19 18 20 122 18 89 -2 113
-6 121 -19z m-533 -98 c5 -11 10 -31 10 -45 l0 -26 111 0 c61 0 119 -5 131
-11 23 -13 21 -37 -11 -111 l-20 -48 -120 0 c-66 0 -122 4 -125 9 -4 5 -13 44
-22 88 -12 60 -22 83 -41 99 -22 17 -24 23 -14 42 16 30 85 31 101 3z m61
-291 c23 -13 25 -43 3 -61 -31 -26 -70 25 -44 56 15 18 16 18 41 5z m117 -2
c19 -19 14 -56 -8 -63 -41 -13 -69 43 -32 64 22 13 26 13 40 -1z"/>
</g>
</svg>
