<?xml version="1.0" standalone="no"?>
<!DOCTYPE svg PUBLIC "-//W3C//DTD SVG 20010904//EN"
 "http://www.w3.org/TR/2001/REC-SVG-20010904/DTD/svg10.dtd">
<svg version="1.0" xmlns="http://www.w3.org/2000/svg"
 width="192.000000pt" height="192.000000pt" viewBox="0 0 192.000000 192.000000"
 preserveAspectRatio="xMidYMid meet">
<metadata>
Created by potrace 1.16, written by Peter Selinger 2001-2019
</metadata>
<g transform="translate(0.000000,192.000000) scale(0.100000,-0.100000)"
fill="#000000" stroke="none">
811 c445 -92 729 -532 635 -987 -62 -301 -295 -546 -601 -630 -91 -26 -329
-26 -420 0 -291 80 -516 305 -596 596 -26 91 -26 329 0 420 120 433 542 692
982 601z"/>
<path d="M625 1336 c-16 -7 -39 -23 -50 -36 -19 -21 -20 -38 -23 -324 -2 -287
-1 -303 18 -334 11 -18 32 -37 46 -42 14 -6 163 -10 351 -10 l325 0 34 34 34
34 0 249 c0 272 -1 278 -60 308 -22 11 -66 15 -185 15 l-156 0 -52 49 c-29 28
-65 55 -81 60 -38 15 -165 13 -201 -3z m640 -221 l0 -30 -119 0 c-100 0 -120
3 -129 17 -8 12 -7 21 3 32 11 14 32 16 129 14 l116 -3 0 -30z m-451 -111 c8
-20 8 -88 0 -108 -5 -13 -22 -16 -85 -16 l-79 0 0 63 c0 35 3 67 7 70 3 4 39
7 79 7 56 0 73 -3 78 -16z m181 6 c13 -21 -17 -40 -64 -40 -50 0 -73 13 -64
36 6 17 118 20 128 4z m-10 -93 c30 -23 8 -37 -55 -37 -42 0 -59 4 -64 15 -12
32 81 49 119 22z m2 -98 c6 -6 9 -18 6 -25 -4 -11 -39 -14 -168 -14 -164 0
-183 4 -171 35 4 12 35 15 164 15 103 0 162 -4 169 -11z m8 -99 c4 -6 1 -18
-6 -26 -10 -12 -41 -14 -173 -12 -158 3 -161 3 -164 26 l-3 22 170 0 c107 0
172 -4 176 -10z"/>
</g>
</svg>
