<?xml version="1.0" standalone="no"?>
<!DOCTYPE svg PUBLIC "-//W3C//DTD SVG 20010904//EN"
 "http://www.w3.org/TR/2001/REC-SVG-20010904/DTD/svg10.dtd">
<svg version="1.0" xmlns="http://www.w3.org/2000/svg"
 width="192.000000pt" height="192.000000pt" viewBox="0 0 192.000000 192.000000"
 preserveAspectRatio="xMidYMid meet">
<metadata>
Created by potrace 1.16, written by Peter Selinger 2001-2019
</metadata>
<g transform="translate(0.000000,192.000000) scale(0.100000,-0.100000)"
fill="#000000" stroke="none">
811 c445 -92 729 -532 635 -987 -62 -301 -295 -546 -601 -630 -91 -26 -329
-26 -420 0 -291 80 -516 305 -596 596 -26 91 -26 329 0 420 120 433 542 692
982 601z"/>
<path d="M613 1335 c-65 -28 -68 -40 -71 -330 -4 -313 -1 -338 43 -382 l33
-33 337 0 337 0 34 34 34 34 0 241 c0 338 5 331 -245 331 l-156 0 -52 49 c-29
28 -65 55 -81 60 -39 15 -175 13 -213 -4z m648 -201 c9 -11 10 -20 2 -32 -8
-14 -30 -18 -120 -20 -119 -3 -141 6 -128 48 6 19 14 20 119 20 91 0 116 -3
127 -16z m-366 -189 c0 -29 -2 -30 -47 -33 -43 -3 -48 -5 -48 -28 0 -22 4 -24
45 -24 43 0 45 -1 45 -30 0 -29 -2 -30 -45 -30 l-45 0 0 -44 c0 -47 -18 -64
-54 -50 -14 5 -16 25 -16 133 0 70 3 131 7 135 4 4 41 5 83 4 l75 -3 0 -30z"/>
</g>
</svg>
