<?xml version="1.0" standalone="no"?>
<!DOCTYPE svg PUBLIC "-//W3C//DTD SVG 20010904//EN"
 "http://www.w3.org/TR/2001/REC-SVG-20010904/DTD/svg10.dtd">
<svg version="1.0" xmlns="http://www.w3.org/2000/svg"
 width="192.000000pt" height="192.000000pt" viewBox="0 0 192.000000 192.000000"
 preserveAspectRatio="xMidYMid meet">
<metadata>
Created by potrace 1.16, written by Peter Selinger 2001-2019
</metadata>
<g transform="translate(0.000000,192.000000) scale(0.100000,-0.100000)"
fill="#000000" stroke="none">
811 c445 -92 729 -532 635 -987 -62 -301 -295 -546 -601 -630 -91 -26 -329
-26 -420 0 -291 80 -516 305 -596 596 -26 91 -26 329 0 420 120 433 542 692
982 601z"/>
<path d="M625 1336 c-16 -7 -39 -23 -50 -36 -19 -21 -20 -38 -23 -324 -2 -287
-1 -303 18 -334 11 -18 32 -37 46 -42 14 -6 163 -10 351 -10 l325 0 34 34 34
34 0 249 c0 272 -1 278 -60 308 -22 11 -66 15 -185 15 l-156 0 -52 49 c-29 28
-65 55 -81 60 -38 15 -165 13 -201 -3z m640 -221 l0 -30 -119 0 c-100 0 -120
3 -129 17 -8 12 -7 21 3 32 11 14 32 16 129 14 l116 -3 0 -30z m-388 -96 c64
-24 113 -93 115 -162 2 -119 -76 -193 -194 -185 -182 13 -231 253 -68 336 48
24 102 28 147 11z"/>
<path d="M832 955 c2 -29 8 -41 21 -43 16 -3 18 0 12 20 -4 12 -14 32 -22 43
-13 18 -14 17 -11 -20z"/>
<path d="M772 955 c-16 -34 -15 -45 3 -45 10 0 15 11 15 35 0 42 -3 43 -18 10z"/>
<path d="M705 940 c-18 -20 -16 -38 3 -26 8 5 24 46 18 46 -2 0 -11 -9 -21
-20z"/>
<path d="M900 952 c0 -18 12 -42 21 -42 14 0 10 26 -6 40 -9 8 -15 8 -15 2z"/>
<path d="M670 855 c0 -18 5 -25 20 -25 15 0 20 7 20 25 0 18 -5 25 -20 25 -15
0 -20 -7 -20 -25z"/>
<path d="M750 855 c0 -18 5 -25 20 -25 15 0 20 7 20 25 0 18 -5 25 -20 25 -15
0 -20 -7 -20 -25z"/>
<path d="M837 874 c-4 -4 -7 -16 -7 -26 0 -13 7 -18 26 -18 21 0 25 4 22 22
-3 23 -27 35 -41 22z"/>
<path d="M920 856 c0 -20 5 -26 21 -26 15 0 20 5 17 22 -5 34 -38 37 -38 4z"/>
<path d="M700 759 c25 -35 34 -33 24 5 -4 17 -13 26 -26 26 -19 0 -19 -1 2
-31z"/>
<path d="M760 778 c1 -7 7 -24 15 -38 l14 -25 1 38 c0 26 -4 37 -15 37 -8 0
-15 -6 -15 -12z"/>
<path d="M830 755 c0 -43 5 -44 25 -5 19 37 19 40 -5 40 -16 0 -20 -7 -20 -35z"/>
<path d="M901 758 l-11 -32 25 24 c28 26 32 40 11 40 -8 0 -19 -14 -25 -32z"/>
</g>
</svg>
