<?xml version="1.0" standalone="no"?>
<!DOCTYPE svg PUBLIC "-//W3C//DTD SVG 20010904//EN"
 "http://www.w3.org/TR/2001/REC-SVG-20010904/DTD/svg10.dtd">
<svg version="1.0" xmlns="http://www.w3.org/2000/svg"
 width="192.000000pt" height="192.000000pt" viewBox="0 0 192.000000 192.000000"
 preserveAspectRatio="xMidYMid meet">
<metadata>
Created by potrace 1.16, written by Peter Selinger 2001-2019
</metadata>
<g transform="translate(0.000000,192.000000) scale(0.100000,-0.100000)"
fill="#000000" stroke="none">
811 c445 -92 729 -532 635 -987 -62 -301 -295 -546 -601 -630 -91 -26 -329
-26 -420 0 -291 80 -516 305 -596 596 -26 91 -26 329 0 420 120 433 542 692
982 601z"/>
<path d="M640 1343 c-90 -29 -90 -31 -90 -384 l0 -301 34 -34 34 -34 326 0
c359 0 371 2 401 60 12 23 15 73 15 260 0 323 2 320 -253 320 l-155 0 -55 54
c-34 33 -67 56 -87 60 -37 7 -148 7 -170 -1z m625 -213 c13 -42 -9 -51 -128
-48 -88 2 -112 6 -120 19 -6 9 -7 24 -4 33 5 14 24 16 126 16 112 0 120 -1
126 -20z m-367 -166 c29 -19 28 -42 -3 -56 -19 -9 -28 -9 -37 0 -19 19 -66 14
-88 -8 -25 -25 -27 -86 -3 -112 27 -30 113 -20 113 14 0 4 -13 8 -30 8 -25 0
-30 4 -30 25 0 24 2 25 65 25 l65 0 0 -74 c0 -76 -13 -103 -34 -74 -10 14 -15
14 -36 2 -33 -18 -94 -17 -131 1 -44 23 -69 71 -69 132 0 44 5 58 31 88 48 54
128 67 187 29z"/>
</g>
</svg>
