<?xml version="1.0" standalone="no"?>
<!DOCTYPE svg PUBLIC "-//W3C//DTD SVG 20010904//EN"
 "http://www.w3.org/TR/2001/REC-SVG-20010904/DTD/svg10.dtd">
<svg version="1.0" xmlns="http://www.w3.org/2000/svg"
 width="192.000000pt" height="192.000000pt" viewBox="0 0 192.000000 192.000000"
 preserveAspectRatio="xMidYMid meet">
<metadata>
Created by potrace 1.16, written by Peter Selinger 2001-2019
</metadata>
<g transform="translate(0.000000,192.000000) scale(0.100000,-0.100000)"
fill="#000000" stroke="none">
811 c445 -92 729 -532 635 -987 -62 -301 -295 -546 -601 -630 -91 -26 -329
-26 -420 0 -291 80 -516 305 -596 596 -26 91 -26 329 0 420 120 433 542 692
982 601z"/>
<path d="M830 1362 c-150 -50 -255 -173 -282 -331 -50 -290 226 -543 507 -466
369 100 420 603 78 772 -66 33 -85 37 -161 40 -64 2 -102 -2 -142 -15z m265
-92 c67 -32 131 -99 163 -168 21 -47 26 -71 25 -137 0 -82 -15 -131 -55 -188
l-20 -28 -18 28 c-23 39 -83 90 -128 109 -21 9 -67 17 -107 17 -58 1 -81 -3
-128 -26 -54 -27 -117 -88 -117 -114 0 -42 -51 29 -76 107 -21 64 -15 167 13
231 36 82 114 153 202 186 58 21 186 13 246 -17z"/>
<path d="M874 1241 c-94 -57 -111 -170 -37 -252 67 -74 160 -74 234 0 52 51
61 112 28 178 -32 64 -77 93 -143 93 -32 0 -62 -7 -82 -19z"/>
</g>
</svg>
