<?xml version="1.0" standalone="no"?>
<!DOCTYPE svg PUBLIC "-//W3C//DTD SVG 20010904//EN"
 "http://www.w3.org/TR/2001/REC-SVG-20010904/DTD/svg10.dtd">
<svg version="1.0" xmlns="http://www.w3.org/2000/svg"
 width="192.000000pt" height="192.000000pt" viewBox="0 0 192.000000 192.000000"
 preserveAspectRatio="xMidYMid meet">
<metadata>
Created by potrace 1.16, written by Peter Selinger 2001-2019
</metadata>
<g transform="translate(0.000000,192.000000) scale(0.100000,-0.100000)"
fill="#000000" stroke="none">
811 c445 -92 729 -532 635 -987 -62 -301 -295 -546 -601 -630 -91 -26 -329
-26 -420 0 -291 80 -516 305 -596 596 -26 91 -26 329 0 420 120 433 542 692
982 601z"/>
<path d="M768 1363 c-8 -10 -50 -118 -93 -240 -66 -186 -82 -223 -99 -225 -15
-2 -21 -10 -21 -28 0 -24 2 -25 81 -28 60 -2 84 1 93 11 14 17 4 47 -15 47
-17 0 -17 -1 -3 39 l11 31 77 0 c77 0 77 0 92 -31 l15 -32 24 70 23 70 -57
161 c-33 90 -64 163 -73 166 -25 10 -39 7 -55 -11z m64 -258 l26 -75 -54 0
c-30 0 -54 3 -54 7 0 15 44 143 49 143 4 0 18 -34 33 -75z"/>
<path d="M1079 1208 c-6 -7 -46 -114 -88 -238 -66 -192 -80 -225 -98 -228 -26
-4 -38 -29 -22 -48 17 -21 165 -20 173 1 6 18 -2 45 -15 45 -10 0 -12 31 -3
54 5 13 22 16 84 16 l78 0 11 -31 c14 -40 14 -39 -3 -39 -19 0 -29 -30 -15
-47 9 -10 33 -13 93 -11 75 3 81 5 84 25 2 17 -3 26 -21 32 -28 11 -24 3 -117
266 -39 109 -76 203 -83 207 -18 12 -45 10 -58 -4z m59 -256 c12 -38 22 -71
22 -75 0 -4 -24 -7 -54 -7 l-54 0 26 75 c15 41 29 75 33 75 3 0 15 -31 27 -68z"/>
<path d="M876 604 c-12 -12 -13 -20 -6 -35 10 -18 24 -19 235 -19 123 0 230 3
239 6 9 3 16 16 16 29 0 13 -7 26 -16 29 -9 3 -114 6 -234 6 -185 0 -221 -2
-234 -16z"/>
</g>
</svg>
