<?xml version="1.0" standalone="no"?>
<!DOCTYPE svg PUBLIC "-//W3C//DTD SVG 20010904//EN"
 "http://www.w3.org/TR/2001/REC-SVG-20010904/DTD/svg10.dtd">
<svg version="1.0" xmlns="http://www.w3.org/2000/svg"
 width="192.000000pt" height="192.000000pt" viewBox="0 0 192.000000 192.000000"
 preserveAspectRatio="xMidYMid meet">
<metadata>
Created by potrace 1.16, written by Peter Selinger 2001-2019
</metadata>
<g transform="translate(0.000000,192.000000) scale(0.100000,-0.100000)"
fill="#000000" stroke="none">
811 c445 -92 729 -532 635 -987 -62 -301 -295 -546 -601 -630 -91 -26 -329
-26 -420 0 -291 80 -516 305 -596 596 -26 91 -26 329 0 420 120 433 542 692
982 601z"/>
<path d="M894 1380 c-150 -22 -286 -143 -329 -294 -24 -84 -17 -212 17 -286
33 -74 75 -122 102 -118 32 5 32 43 -3 96 -16 26 -36 68 -42 95 l-13 47 49 50
c27 28 57 52 67 56 14 4 15 10 7 32 -6 16 -7 47 -2 77 4 27 7 56 6 63 -1 15
31 16 60 1 12 -6 39 -27 60 -47 20 -20 37 -32 37 -26 0 5 -5 15 -11 21 -8 8
-8 13 0 17 6 4 11 19 11 33 0 26 0 26 21 8 11 -11 27 -44 36 -75 14 -51 19
-57 57 -73 24 -10 72 -42 107 -72 53 -45 88 -67 177 -112 14 -6 -25 -44 -60
-57 -23 -10 -47 -25 -54 -34 -10 -14 -20 -14 -75 -5 -80 15 -112 8 -149 -29
-25 -25 -30 -38 -30 -79 0 -27 7 -66 15 -86 15 -35 15 -36 63 -29 26 3 79 22
119 41 85 42 142 101 187 195 29 61 31 72 31 180 0 105 -2 120 -28 171 -85
174 -252 266 -433 239z"/>
</g>
</svg>
