<?xml version="1.0" standalone="no"?>
<!DOCTYPE svg PUBLIC "-//W3C//DTD SVG 20010904//EN"
 "http://www.w3.org/TR/2001/REC-SVG-20010904/DTD/svg10.dtd">
<svg version="1.0" xmlns="http://www.w3.org/2000/svg"
 width="192.000000pt" height="192.000000pt" viewBox="0 0 192.000000 192.000000"
 preserveAspectRatio="xMidYMid meet">
<metadata>
Created by potrace 1.16, written by Peter Selinger 2001-2019
</metadata>
<g transform="translate(0.000000,192.000000) scale(0.100000,-0.100000)"
fill="#000000" stroke="none">
811 c445 -92 729 -532 635 -987 -62 -301 -295 -546 -601 -630 -91 -26 -329
-26 -420 0 -291 80 -516 305 -596 596 -26 91 -26 329 0 420 120 433 542 692
982 601z"/>
<path d="M652 1346 c-60 -33 -81 -118 -39 -160 l24 -24 -23 -44 c-38 -75 -64
-165 -64 -220 0 -111 82 -218 217 -285 75 -37 80 -38 187 -38 107 0 114 1 186
36 137 65 220 174 220 290 0 58 -20 129 -60 211 l-23 46 21 27 c55 69 -2 175
-93 175 -26 0 -43 -7 -60 -26 -23 -25 -24 -25 -76 -10 -67 20 -161 20 -227 1
-50 -15 -51 -15 -76 10 -28 28 -76 33 -114 11z m208 -221 c19 -10 33 -27 38
-48 8 -27 4 -42 -25 -97 -57 -106 -91 -123 -144 -71 -58 58 -30 173 51 213 42
22 44 22 80 3z m303 -23 c34 -31 57 -79 57 -117 0 -62 -53 -112 -104 -99 -26
6 -106 138 -106 174 0 12 14 35 30 52 26 25 36 29 63 24 17 -3 44 -19 60 -34z
m-165 -158 c29 -20 28 -35 -3 -64 -17 -16 -25 -33 -23 -50 3 -21 9 -25 41 -28
40 -3 77 18 77 45 0 7 5 13 10 13 15 0 12 -67 -4 -98 -51 -99 -166 -119 -245
-44 -40 38 -60 94 -46 129 6 17 7 16 17 -2 21 -41 67 -56 112 -39 24 9 19 44
-9 66 -62 49 8 118 73 72z"/>
<path d="M775 1046 c-18 -26 -11 -52 16 -67 41 -22 80 27 54 67 -20 31 -50 31
-70 0z"/>
<path d="M1078 1059 c-25 -14 -22 -55 4 -73 19 -13 25 -14 43 -2 26 17 31 49
10 70 -19 18 -33 20 -57 5z"/>
<path d="M923 763 c-37 -5 -42 -17 -14 -33 32 -17 86 -12 106 9 16 19 16 20
-1 19 -11 -1 -28 1 -39 4 -11 2 -35 3 -52 1z"/>
</g>
</svg>
