<?xml version="1.0" standalone="no"?>
<!DOCTYPE svg PUBLIC "-//W3C//DTD SVG 20010904//EN"
 "http://www.w3.org/TR/2001/REC-SVG-20010904/DTD/svg10.dtd">
<svg version="1.0" xmlns="http://www.w3.org/2000/svg"
 width="192.000000pt" height="192.000000pt" viewBox="0 0 192.000000 192.000000"
 preserveAspectRatio="xMidYMid meet">
<metadata>
Created by potrace 1.16, written by Peter Selinger 2001-2019
</metadata>
<g transform="translate(0.000000,192.000000) scale(0.100000,-0.100000)"
fill="#000000" stroke="none">
811 c445 -92 729 -532 635 -987 -62 -301 -295 -546 -601 -630 -91 -26 -329
-26 -420 0 -291 80 -516 305 -596 596 -26 91 -26 329 0 420 120 433 542 692
982 601z"/>
<path d="M863 1365 c-126 -28 -237 -117 -291 -232 -24 -52 -27 -69 -27 -168 0
-101 2 -115 29 -170 40 -81 119 -158 203 -198 64 -30 75 -32 178 -32 97 0 116
3 165 26 254 121 328 424 154 636 -95 116 -261 172 -411 138z m222 -133 c96
-46 159 -134 172 -240 7 -62 -8 -92 -45 -92 -15 0 -38 7 -50 16 -41 29 -19
114 30 114 26 0 22 21 -14 76 -40 59 -119 110 -188 119 -86 12 -186 -29 -241
-98 -21 -28 -49 -36 -49 -15 0 6 11 26 25 44 76 99 238 134 360 76z m-320
-217 c0 -5 -15 -12 -34 -15 -46 -7 -52 -28 -9 -32 41 -4 46 -32 6 -36 -33 -4
-35 -20 -9 -77 41 -92 145 -150 253 -143 78 5 124 27 181 85 50 51 79 51 50 1
-25 -43 -98 -96 -156 -113 -109 -32 -209 -9 -292 67 -74 68 -100 132 -96 246
l1 33 53 -3 c28 -2 52 -7 52 -13z"/>
<path d="M1180 985 c-16 -20 -5 -45 20 -45 16 0 20 7 20 30 0 33 -19 40 -40
15z"/>
</g>
</svg>
