<?xml version="1.0" standalone="no"?>
<!DOCTYPE svg PUBLIC "-//W3C//DTD SVG 20010904//EN"
 "http://www.w3.org/TR/2001/REC-SVG-20010904/DTD/svg10.dtd">
<svg version="1.0" xmlns="http://www.w3.org/2000/svg"
 width="192.000000pt" height="192.000000pt" viewBox="0 0 192.000000 192.000000"
 preserveAspectRatio="xMidYMid meet">
<metadata>
Created by potrace 1.16, written by Peter Selinger 2001-2019
</metadata>
<g transform="translate(0.000000,192.000000) scale(0.100000,-0.100000)"
fill="#000000" stroke="none">
811 c445 -92 729 -532 635 -987 -62 -301 -295 -546 -601 -630 -91 -26 -329
-26 -420 0 -291 80 -516 305 -596 596 -26 91 -26 329 0 420 120 433 542 692
982 601z"/>
<path d="M716 1325 c-57 -20 -87 -46 -113 -95 -22 -41 -23 -53 -23 -259 0
-238 6 -267 66 -323 41 -38 75 -48 157 -48 117 0 147 35 147 172 l0 83 -26
-28 c-51 -55 -113 -61 -195 -19 -30 15 -55 34 -57 43 -4 21 52 89 96 116 46
28 87 29 130 3 41 -25 45 -25 32 -1 -5 11 -10 36 -10 56 0 90 82 145 213 145
l80 0 -5 -63 c-11 -132 -92 -218 -190 -202 l-38 7 0 -122 0 -122 34 -34 c32
-32 38 -34 100 -34 81 0 121 16 163 63 50 57 55 89 51 328 l-3 216 -28 41
c-15 23 -46 52 -70 64 -39 22 -55 23 -257 25 -167 2 -224 0 -254 -12z"/>
</g>
</svg>
