<?xml version="1.0" standalone="no"?>
<!DOCTYPE svg PUBLIC "-//W3C//DTD SVG 20010904//EN"
 "http://www.w3.org/TR/2001/REC-SVG-20010904/DTD/svg10.dtd">
<svg version="1.0" xmlns="http://www.w3.org/2000/svg"
 width="192.000000pt" height="192.000000pt" viewBox="0 0 192.000000 192.000000"
 preserveAspectRatio="xMidYMid meet">
<metadata>
Created by potrace 1.16, written by Peter Selinger 2001-2019
</metadata>
<g transform="translate(0.000000,192.000000) scale(0.100000,-0.100000)"
fill="#000000" stroke="none">
811 c445 -92 729 -532 635 -987 -62 -301 -295 -546 -601 -630 -91 -26 -329
-26 -420 0 -291 80 -516 305 -596 596 -26 91 -26 329 0 420 120 433 542 692
982 601z"/>
<path d="M708 1100 c-51 -15 -96 -50 -188 -146 -54 -57 -90 -103 -88 -112 2
-13 17 -18 62 -20 l59 -3 81 79 c45 44 91 85 103 91 14 7 101 11 245 11 l224
0 54 55 54 55 -289 -1 c-160 0 -302 -4 -317 -9z"/>
<path d="M1205 968 l-140 -143 81 -3 81 -3 124 126 c68 70 124 134 124 143 0
14 -12 18 -65 20 l-66 3 -139 -143z"/>
<path d="M767 980 c-29 -5 -56 -24 -108 -76 -38 -38 -69 -72 -69 -76 0 -5 31
-8 68 -8 63 0 71 2 97 30 l29 30 151 0 c165 0 159 -2 220 68 l37 42 -193 -1
c-107 -1 -211 -5 -232 -9z"/>
</g>
</svg>
