<?xml version="1.0" standalone="no"?>
<!DOCTYPE svg PUBLIC "-//W3C//DTD SVG 20010904//EN"
 "http://www.w3.org/TR/2001/REC-SVG-20010904/DTD/svg10.dtd">
<svg version="1.0" xmlns="http://www.w3.org/2000/svg"
 width="192.000000pt" height="192.000000pt" viewBox="0 0 192.000000 192.000000"
 preserveAspectRatio="xMidYMid meet">
<metadata>
Created by potrace 1.16, written by Peter Selinger 2001-2019
</metadata>
<g transform="translate(0.000000,192.000000) scale(0.100000,-0.100000)"
fill="#000000" stroke="none">
811 c445 -92 729 -532 635 -987 -62 -301 -295 -546 -601 -630 -91 -26 -329
-26 -420 0 -291 80 -516 305 -596 596 -26 91 -26 329 0 420 120 433 542 692
982 601z"/>
<path d="M450 970 c0 -157 1 -160 44 -144 12 5 16 20 16 60 0 47 2 54 20 54
16 0 20 7 20 30 0 23 -4 30 -20 30 -15 0 -20 7 -20 25 0 20 5 25 25 25 22 0
25 4 25 35 l0 35 -55 0 -55 0 0 -150z"/>
<path d="M1363 1103 c-10 -3 -13 -41 -13 -139 l0 -134 50 0 c49 0 50 1 50 30
0 23 -4 30 -20 30 -15 0 -20 7 -20 25 0 18 5 25 20 25 16 0 20 7 20 30 0 23
-4 30 -20 30 -13 0 -20 7 -20 20 0 13 7 20 20 20 16 0 20 7 20 35 0 34 -1 35
-37 34 -21 0 -44 -3 -50 -6z"/>
<path d="M589 1081 c-22 -18 -24 -26 -24 -104 0 -99 15 -127 71 -127 49 0 69
36 69 121 0 53 -5 74 -21 96 -26 35 -63 40 -95 14z"/>
<path d="M720 974 l0 -125 27 3 c19 2 29 10 33 28 6 24 7 23 13 -9 6 -30 9
-33 34 -26 16 4 29 8 31 9 1 2 -4 21 -12 44 -13 37 -13 45 1 73 13 26 14 38 4
71 -13 43 -38 58 -97 58 l-34 0 0 -126z"/>
<path d="M860 1066 c0 -25 4 -36 15 -36 12 0 15 -17 15 -90 l0 -90 30 0 30 0
0 85 c0 69 3 85 15 85 10 0 15 11 15 35 0 34 -1 35 -37 35 -21 0 -48 3 -60 6
-21 6 -23 3 -23 -30z"/>
<path d="M1008 1093 c-16 -4 -18 -18 -18 -119 l0 -114 30 0 c28 0 30 3 31 38
l0 37 17 -42 c12 -33 21 -43 39 -43 23 0 23 1 23 125 l0 125 -25 0 c-23 0 -25
-4 -26 -47 l0 -48 -18 45 c-19 46 -25 51 -53 43z"/>
<path d="M1150 970 l0 -120 30 0 30 0 0 120 0 120 -30 0 -30 0 0 -120z"/>
<path d="M1220 1051 c0 -16 6 -31 15 -35 12 -4 15 -24 15 -91 l0 -85 30 0 30
0 0 90 c0 73 3 90 15 90 10 0 15 10 15 30 l0 30 -60 0 c-60 0 -60 0 -60 -29z"/>
</g>
</svg>
