<?xml version="1.0" standalone="no"?>
<!DOCTYPE svg PUBLIC "-//W3C//DTD SVG 20010904//EN"
 "http://www.w3.org/TR/2001/REC-SVG-20010904/DTD/svg10.dtd">
<svg version="1.0" xmlns="http://www.w3.org/2000/svg"
 width="192.000000pt" height="192.000000pt" viewBox="0 0 192.000000 192.000000"
 preserveAspectRatio="xMidYMid meet">
<metadata>
Created by potrace 1.16, written by Peter Selinger 2001-2019
</metadata>
<g transform="translate(0.000000,192.000000) scale(0.100000,-0.100000)"
fill="#000000" stroke="none">
810 c245 -63 441 -223 549 -451 55 -116 75 -212 75 -354 0 -141 -20 -238 -75
-352 -86 -182 -215 -312 -396 -398 -116 -55 -212 -75 -354 -75 -142 0 -238 20
-354 75 -228 108 -388 304 -451 549 -28 110 -28 292 0 402 76 298 303 526 600
603 106 28 298 28 406 1z"/>
<path d="M870 1370 c-233 -49 -380 -293 -311 -518 36 -121 115 -208 236 -264
43 -20 66 -23 160 -23 104 0 114 2 176 32 118 58 206 174 229 303 35 192 -84
390 -272 453 -60 21 -161 28 -218 17z m185 -90 c16 -6 11 -11 -30 -29 -28 -13
-59 -23 -70 -23 -25 0 -120 40 -112 48 19 20 160 22 212 4z m-386 -281 c-32
-39 -45 -48 -47 -36 -6 32 18 121 46 167 l27 45 9 -62 9 -62 -44 -52z m580
109 c21 -42 31 -75 31 -107 l-1 -46 -39 42 c-38 40 -40 45 -40 108 0 36 4 65
9 65 5 0 23 -28 40 -62z m-211 -56 c35 -25 62 -51 62 -61 0 -22 -40 -142 -53
-158 -14 -19 -171 -18 -186 1 -6 7 -22 46 -36 86 -23 67 -24 75 -9 91 29 32
136 99 148 92 6 -4 39 -26 74 -51z m-268 -282 c27 -7 42 -21 67 -62 17 -29 30
-54 28 -56 -2 -2 -23 5 -47 16 -48 21 -113 73 -129 105 -12 21 -14 22 81 -3z
m440 -10 c-11 -16 -33 -38 -48 -48 -35 -25 -113 -64 -118 -60 -2 2 10 27 26
56 26 44 36 53 72 62 24 6 48 13 53 15 31 11 35 3 15 -25z"/>
</g>
</svg>
