<?xml version="1.0" standalone="no"?>
<!DOCTYPE svg PUBLIC "-//W3C//DTD SVG 20010904//EN"
 "http://www.w3.org/TR/2001/REC-SVG-20010904/DTD/svg10.dtd">
<svg version="1.0" xmlns="http://www.w3.org/2000/svg"
 width="192.000000pt" height="192.000000pt" viewBox="0 0 192.000000 192.000000"
 preserveAspectRatio="xMidYMid meet">
<metadata>
Created by potrace 1.16, written by Peter Selinger 2001-2019
</metadata>
<g transform="translate(0.000000,192.000000) scale(0.100000,-0.100000)"
fill="#000000" stroke="none">
811 c445 -92 729 -532 635 -987 -62 -301 -295 -546 -601 -630 -91 -26 -329
-26 -420 0 -291 80 -516 305 -596 596 -26 91 -26 329 0 420 120 433 542 692
982 601z"/>
<path d="M822 1351 c-125 -47 -209 -133 -251 -259 -66 -194 29 -412 218 -501
50 -23 68 -26 166 -26 104 0 114 2 176 32 80 40 159 120 197 200 24 52 27 69
27 168 0 99 -3 116 -27 168 -37 79 -117 160 -196 199 -58 29 -77 33 -161 35
-76 3 -107 -1 -149 -16z m236 -95 c17 -30 32 -57 32 -61 0 -3 -14 -24 -32 -46
l-31 -39 -76 0 -76 0 -31 48 -31 47 20 47 c21 52 26 55 127 57 l65 1 33 -54z
m-247 -163 c15 -27 15 -31 -12 -90 -26 -57 -32 -63 -70 -73 -41 -11 -42 -11
-81 27 -35 34 -39 42 -33 73 4 19 15 53 24 76 16 36 23 41 67 50 45 10 51 9
69 -13 11 -12 28 -35 36 -50z m471 -14 c23 -60 23 -128 1 -146 -58 -46 -58
-46 -117 -27 l-55 17 -17 72 -17 72 32 46 33 45 61 -17 c59 -17 63 -20 79 -62z
m-423 -255 c56 -43 61 -50 61 -86 0 -38 -2 -40 -55 -64 -51 -22 -58 -23 -83
-10 -57 30 -82 64 -82 109 0 65 9 84 43 95 41 13 44 12 116 -44z m294 20 l47
-16 0 -57 c0 -62 -10 -74 -87 -115 -32 -16 -34 -16 -83 9 -49 25 -50 26 -50
70 0 42 3 47 51 85 58 45 59 46 122 24z"/>
</g>
</svg>
