<?xml version="1.0" standalone="no"?>
<!DOCTYPE svg PUBLIC "-//W3C//DTD SVG 20010904//EN"
 "http://www.w3.org/TR/2001/REC-SVG-20010904/DTD/svg10.dtd">
<svg version="1.0" xmlns="http://www.w3.org/2000/svg"
 width="192.000000pt" height="192.000000pt" viewBox="0 0 192.000000 192.000000"
 preserveAspectRatio="xMidYMid meet">
<metadata>
Created by potrace 1.16, written by Peter Selinger 2001-2019
</metadata>
<g transform="translate(0.000000,192.000000) scale(0.100000,-0.100000)"
fill="#000000" stroke="none">
811 c445 -92 729 -532 635 -987 -62 -301 -295 -546 -601 -630 -91 -26 -329
-26 -420 0 -291 80 -516 305 -596 596 -26 91 -26 329 0 420 120 433 542 692
982 601z"/>
<path d="M811 1350 c-51 -19 -121 -63 -121 -78 0 -13 215 -222 228 -222 9 0
12 40 12 160 l0 160 -32 0 c-18 -1 -57 -9 -87 -20z"/>
<path d="M980 1211 c0 -123 3 -161 13 -161 7 0 62 49 122 110 107 108 109 109
90 130 -27 30 -119 70 -176 77 l-49 6 0 -162z"/>
<path d="M615 1196 c-31 -40 -65 -133 -65 -176 l0 -30 160 0 c122 0 160 3 160
13 0 13 -210 227 -222 227 -4 0 -19 -15 -33 -34z"/>
<path d="M1147 1122 c-59 -59 -107 -113 -107 -120 0 -9 40 -12 160 -12 l160 0
0 30 c0 61 -70 210 -98 210 -4 0 -56 -48 -115 -108z"/>
<path d="M553 891 c7 -57 47 -149 77 -176 21 -19 22 -17 130 90 61 60 110 115
110 122 0 10 -38 13 -161 13 l-162 0 6 -49z"/>
<path d="M1040 927 c0 -7 49 -62 110 -122 108 -107 109 -109 130 -90 30 27 70
119 77 176 l6 49 -162 0 c-123 0 -161 -3 -161 -13z"/>
<path d="M795 770 c-107 -108 -109 -109 -90 -130 27 -30 119 -70 176 -77 l49
-6 0 162 c0 123 -3 161 -13 161 -7 0 -62 -49 -122 -110z"/>
<path d="M980 719 l0 -162 49 6 c57 7 149 47 176 77 19 21 17 22 -90 130 -60
61 -115 110 -122 110 -10 0 -13 -38 -13 -161z"/>
</g>
</svg>
