<?xml version="1.0" standalone="no"?>
<!DOCTYPE svg PUBLIC "-//W3C//DTD SVG 20010904//EN"
 "http://www.w3.org/TR/2001/REC-SVG-20010904/DTD/svg10.dtd">
<svg version="1.0" xmlns="http://www.w3.org/2000/svg"
 width="192.000000pt" height="192.000000pt" viewBox="0 0 192.000000 192.000000"
 preserveAspectRatio="xMidYMid meet">
<metadata>
Created by potrace 1.16, written by Peter Selinger 2001-2019
</metadata>
<g transform="translate(0.000000,192.000000) scale(0.100000,-0.100000)"
fill="#000000" stroke="none">
811 c445 -92 729 -532 635 -987 -62 -301 -295 -546 -601 -630 -91 -26 -329
-26 -420 0 -291 80 -516 305 -596 596 -26 91 -26 329 0 420 120 433 542 692
982 601z"/>
<path d="M682 1358 c-17 -17 -17 -769 0 -786 7 -7 22 -12 34 -12 17 0 39 29
108 144 l86 144 114 4 c63 1 118 7 122 11 14 13 17 143 5 166 -11 19 -20 21
-109 21 -53 0 -103 4 -110 9 -9 5 -12 25 -10 62 l3 54 150 3 c104 2 152 6 157
15 13 20 9 152 -4 165 -17 17 -529 17 -546 0z"/>
</g>
</svg>
