<?xml version="1.0" standalone="no"?>
<!DOCTYPE svg PUBLIC "-//W3C//DTD SVG 20010904//EN"
 "http://www.w3.org/TR/2001/REC-SVG-20010904/DTD/svg10.dtd">
<svg version="1.0" xmlns="http://www.w3.org/2000/svg"
 width="192.000000pt" height="192.000000pt" viewBox="0 0 192.000000 192.000000"
 preserveAspectRatio="xMidYMid meet">
<metadata>
Created by potrace 1.16, written by Peter Selinger 2001-2019
</metadata>
<g transform="translate(0.000000,192.000000) scale(0.100000,-0.100000)"
fill="#000000" stroke="none">
811 c445 -92 729 -532 635 -987 -62 -301 -295 -546 -601 -630 -91 -26 -329
-26 -420 0 -291 80 -516 305 -596 596 -26 91 -26 329 0 420 120 433 542 692
982 601z"/>
<path d="M590 1261 c0 -65 6 -109 20 -150 l19 -58 -35 -84 c-20 -46 -38 -89
-40 -94 -3 -6 41 -42 96 -79 55 -37 108 -79 118 -93 38 -55 84 -101 112 -113
17 -7 55 -11 89 -8 70 5 120 37 151 98 14 28 47 57 129 112 106 72 108 74 96
98 -7 14 -25 56 -40 93 -26 66 -26 69 -10 115 18 54 31 187 21 226 -6 23 -11
26 -54 26 -53 0 -112 -24 -160 -65 -32 -27 -37 -28 -152 -29 -117 -1 -119 -1
-147 27 -42 43 -80 59 -150 65 l-63 5 0 -92z m477 -86 c71 -36 128 -102 175
-202 32 -68 37 -87 27 -94 -67 -37 -189 -135 -199 -160 -42 -101 -180 -107
-230 -10 -20 40 -56 72 -153 136 -66 44 -65 39 -11 151 84 176 247 250 391
179z"/>
<path d="M770 953 c0 -5 9 -23 20 -40 17 -28 25 -33 60 -33 46 0 51 13 19 54
-16 20 -29 26 -60 26 -21 0 -39 -3 -39 -7z"/>
<path d="M1036 938 c-28 -40 -21 -58 23 -58 30 0 42 5 55 25 27 41 21 55 -23
55 -30 0 -44 -6 -55 -22z"/>
<path d="M900 775 c-11 -13 -9 -20 15 -45 16 -17 34 -30 40 -30 19 0 57 47 53
67 -4 25 -89 31 -108 8z"/>
</g>
</svg>
