<?xml version="1.0" standalone="no"?>
<!DOCTYPE svg PUBLIC "-//W3C//DTD SVG 20010904//EN"
 "http://www.w3.org/TR/2001/REC-SVG-20010904/DTD/svg10.dtd">
<svg version="1.0" xmlns="http://www.w3.org/2000/svg"
 width="192.000000pt" height="192.000000pt" viewBox="0 0 192.000000 192.000000"
 preserveAspectRatio="xMidYMid meet">
<metadata>
Created by potrace 1.16, written by Peter Selinger 2001-2019
</metadata>
<g transform="translate(0.000000,192.000000) scale(0.100000,-0.100000)"
fill="#000000" stroke="none">
811 c445 -92 729 -532 635 -987 -62 -301 -295 -546 -601 -630 -91 -26 -329
-26 -420 0 -291 80 -516 305 -596 596 -26 91 -26 329 0 420 120 433 542 692
982 601z"/>
<path d="M610 1344 c-6 -14 -10 -54 -10 -88 0 -50 6 -75 30 -122 l29 -59 -24
-60 c-28 -71 -49 -185 -36 -198 5 -5 30 -13 56 -18 86 -16 110 -34 140 -104
43 -101 102 -143 185 -132 61 8 96 40 135 122 38 81 61 99 134 111 71 11 76
20 63 102 -7 40 -23 97 -37 127 l-24 55 24 36 c30 44 37 79 33 168 -4 99 -12
101 -137 26 l-104 -62 -56 10 c-34 6 -74 7 -101 2 -25 -5 -50 -9 -56 -10 -5 0
-56 27 -112 60 -55 33 -106 60 -112 60 -6 0 -15 -12 -20 -26z m249 -363 c22
-6 22 -7 -13 -26 l-36 -20 -43 43 -42 42 55 -16 c30 -9 66 -20 79 -23z m281
-1 c-36 -45 -45 -47 -89 -23 l-30 18 72 22 c40 12 74 22 75 22 2 1 -11 -17
-28 -39z m-130 -350 c0 -40 -40 -68 -75 -52 -20 9 -25 19 -25 47 l0 35 50 0
c49 0 50 -1 50 -30z"/>
</g>
</svg>
