<?xml version="1.0" standalone="no"?>
<!DOCTYPE svg PUBLIC "-//W3C//DTD SVG 20010904//EN"
 "http://www.w3.org/TR/2001/REC-SVG-20010904/DTD/svg10.dtd">
<svg version="1.0" xmlns="http://www.w3.org/2000/svg"
 width="192.000000pt" height="192.000000pt" viewBox="0 0 192.000000 192.000000"
 preserveAspectRatio="xMidYMid meet">
<metadata>
Created by potrace 1.16, written by Peter Selinger 2001-2019
</metadata>
<g transform="translate(0.000000,192.000000) scale(0.100000,-0.100000)"
fill="#000000" stroke="none">
811 c445 -92 729 -532 635 -987 -62 -301 -295 -546 -601 -630 -91 -26 -329
-26 -420 0 -291 80 -516 305 -596 596 -26 91 -26 329 0 420 120 433 542 692
982 601z"/>
<path d="M560 1140 c-18 -18 -20 -33 -20 -147 0 -103 4 -136 19 -168 49 -108
182 -147 281 -81 38 25 80 88 80 121 0 25 17 17 30 -14 10 -24 8 -48 -10 -135
-12 -58 -18 -115 -15 -127 9 -28 49 -41 80 -27 22 10 45 57 45 93 0 6 5 26 10
46 l10 37 38 -14 c145 -52 284 55 270 208 -10 101 -93 173 -199 173 -65 -1
-125 -33 -155 -85 -10 -16 -23 -29 -29 -27 -5 2 -24 36 -40 76 -32 77 -45 91
-86 91 -48 0 -59 -25 -59 -142 0 -58 -5 -119 -11 -137 -19 -55 -73 -68 -114
-26 -24 23 -25 30 -25 145 0 107 -2 122 -20 140 -11 11 -29 20 -40 20 -11 0
-29 -9 -40 -20z m683 -182 c25 -29 22 -74 -8 -103 -28 -29 -63 -32 -105 -10
-34 17 -37 38 -15 90 23 57 89 69 128 23z"/>
</g>
</svg>
