<?xml version="1.0" standalone="no"?>
<!DOCTYPE svg PUBLIC "-//W3C//DTD SVG 20010904//EN"
 "http://www.w3.org/TR/2001/REC-SVG-20010904/DTD/svg10.dtd">
<svg version="1.0" xmlns="http://www.w3.org/2000/svg"
 width="192.000000pt" height="192.000000pt" viewBox="0 0 192.000000 192.000000"
 preserveAspectRatio="xMidYMid meet">
<metadata>
Created by potrace 1.16, written by Peter Selinger 2001-2019
</metadata>
<g transform="translate(0.000000,192.000000) scale(0.100000,-0.100000)"
fill="#000000" stroke="none">
811 c445 -92 729 -532 635 -987 -62 -301 -295 -546 -601 -630 -91 -26 -329
-26 -420 0 -291 80 -516 305 -596 596 -26 91 -26 329 0 420 120 433 542 692
982 601z"/>
<path d="M1039 1380 c-99 -17 -152 -67 -183 -173 -9 -33 -17 -42 -43 -49 -41
-11 -49 -23 -57 -89 -7 -59 6 -89 40 -89 8 0 14 -2 14 -4 0 -2 -21 -47 -46
-100 -44 -93 -45 -98 -28 -117 9 -10 23 -19 31 -19 18 0 18 0 -24 -84 -31 -63
-35 -77 -24 -90 8 -9 22 -16 32 -16 23 0 299 296 299 321 0 10 -9 24 -20 32
-19 13 -18 15 26 58 52 50 74 92 74 143 0 39 -20 56 -64 56 -15 0 -26 6 -26
13 0 24 24 37 71 37 26 0 51 6 56 13 13 16 32 117 26 134 -9 22 -87 34 -154
23z"/>
</g>
</svg>
