<?xml version="1.0" standalone="no"?>
<!DOCTYPE svg PUBLIC "-//W3C//DTD SVG 20010904//EN"
 "http://www.w3.org/TR/2001/REC-SVG-20010904/DTD/svg10.dtd">
<svg version="1.0" xmlns="http://www.w3.org/2000/svg"
 width="192.000000pt" height="192.000000pt" viewBox="0 0 192.000000 192.000000"
 preserveAspectRatio="xMidYMid meet">
<metadata>
Created by potrace 1.16, written by Peter Selinger 2001-2019
</metadata>
<g transform="translate(0.000000,192.000000) scale(0.100000,-0.100000)"
fill="#000000" stroke="none">
811 c445 -92 729 -532 635 -987 -62 -301 -295 -546 -601 -630 -91 -26 -329
-26 -420 0 -291 80 -516 305 -596 596 -26 91 -26 329 0 420 120 433 542 692
982 601z"/>
<path d="M1184 1355 c-15 -12 -62 -14 -246 -15 -240 0 -264 -4 -312 -48 -60
-56 -66 -84 -66 -327 0 -209 1 -223 23 -265 13 -26 40 -57 65 -75 l44 -30 216
-3 c285 -5 330 9 378 112 23 48 24 61 24 256 0 220 -4 250 -28 250 -9 0 -52
-38 -97 -85 -52 -54 -97 -92 -127 -105 -25 -11 -51 -27 -58 -35 -8 -9 -23 -21
-34 -27 -31 -16 -146 -36 -152 -26 -7 11 -81 10 -104 -2 -14 -7 -24 -4 -44 17
-42 42 -30 93 21 93 29 0 56 15 112 63 24 20 49 37 55 37 25 0 96 -26 90 -33
-15 -15 8 -6 60 23 37 21 64 47 92 88 21 31 42 59 45 62 3 3 9 15 13 28 8 24
18 27 44 13 21 -11 69 20 58 38 -10 16 -48 14 -72 -4z m-466 -532 c2 -7 -5
-13 -15 -14 -10 0 -13 -3 -5 -6 14 -6 16 -33 2 -33 -5 0 -10 -7 -10 -15 0 -8
-7 -15 -15 -15 -11 0 -15 11 -15 43 0 24 3 47 7 51 11 10 46 3 51 -11z m80
-35 c2 -38 0 -48 -12 -48 -9 0 -17 8 -17 18 -1 16 -2 16 -6 0 -2 -10 -11 -18
-19 -18 -10 0 -14 12 -14 43 0 51 6 59 40 55 22 -3 25 -8 28 -50z m70 35 c2
-8 -6 -13 -20 -14 -17 -1 -18 -3 -5 -6 20 -5 23 -29 5 -36 -8 -3 -6 -6 5 -6
30 -2 18 -21 -13 -21 -29 0 -30 2 -30 43 0 24 3 47 7 51 11 10 46 3 51 -11z
m70 0 c2 -7 -5 -13 -15 -14 -10 0 -13 -3 -5 -6 6 -2 12 -11 12 -18 0 -7 -6
-16 -12 -18 -8 -3 -6 -6 5 -6 30 -2 18 -21 -13 -21 -29 0 -30 2 -30 43 0 24 3
47 7 51 11 10 46 3 51 -11z m80 0 c2 -8 -6 -13 -20 -14 -17 -1 -18 -3 -5 -6
21 -5 22 -22 2 -29 -8 -4 -15 -12 -15 -20 0 -8 -4 -14 -10 -14 -5 0 -10 23
-10 51 0 49 1 50 27 47 14 -2 28 -9 31 -15z m42 -39 c0 -32 -4 -44 -15 -44
-11 0 -15 11 -15 43 0 24 3 47 6 50 14 14 24 -6 24 -49z m68 4 c2 -29 -1 -48
-7 -48 -6 0 -11 8 -11 18 -1 16 -1 16 -11 0 -17 -30 -29 -20 -29 25 0 50 6 59
35 55 16 -2 21 -12 23 -50z m77 42 c3 -6 -4 -14 -16 -18 -21 -8 -21 -9 -3 -16
19 -7 19 -8 0 -22 -19 -14 -19 -14 3 -14 14 0 21 -5 19 -12 -6 -18 -36 -22
-53 -8 -15 12 -21 81 -8 93 10 11 51 8 58 -3z"/>
<path d="M1198 1287 c-27 -22 -66 -103 -55 -114 3 -3 26 8 51 23 31 20 45 36
46 51 0 12 5 23 11 25 6 2 3 11 -8 20 -18 16 -20 16 -45 -5z"/>
<path d="M1282 1245 c8 -18 17 -24 27 -19 9 3 21 7 28 8 39 7 0 36 -47 36 -17
0 -18 -3 -8 -25z"/>
</g>
</svg>
