<?xml version="1.0" standalone="no"?>
<!DOCTYPE svg PUBLIC "-//W3C//DTD SVG 20010904//EN"
 "http://www.w3.org/TR/2001/REC-SVG-20010904/DTD/svg10.dtd">
<svg version="1.0" xmlns="http://www.w3.org/2000/svg"
 width="192.000000pt" height="192.000000pt" viewBox="0 0 192.000000 192.000000"
 preserveAspectRatio="xMidYMid meet">
<metadata>
Created by potrace 1.16, written by Peter Selinger 2001-2019
</metadata>
<g transform="translate(0.000000,192.000000) scale(0.100000,-0.100000)"
fill="#000000" stroke="none">
811 c445 -92 729 -532 635 -987 -62 -301 -295 -546 -601 -630 -91 -26 -329
-26 -420 0 -291 80 -516 305 -596 596 -26 91 -26 329 0 420 120 433 542 692
982 601z"/>
<path d="M554 1277 c-2 -7 -3 -69 -2 -138 l3 -124 30 0 c29 0 30 2 33 47 3 44
5 47 34 50 64 6 63 70 -1 76 -46 5 -34 26 16 30 47 3 68 22 58 52 -6 18 -15
20 -86 20 -56 0 -81 -4 -85 -13z"/>
<path d="M765 1277 c-3 -7 -4 -69 -3 -138 l3 -124 27 -3 c22 -3 30 2 38 23 5
14 10 37 10 51 0 13 5 24 10 24 6 0 10 -14 10 -31 0 -43 17 -69 45 -69 32 0
35 17 32 160 l-2 115 -83 3 c-62 2 -84 -1 -87 -11z m95 -72 c0 -8 -4 -15 -10
-15 -5 0 -10 7 -10 15 0 8 5 15 10 15 6 0 10 -7 10 -15z"/>
<path d="M977 1283 c-10 -9 -8 -246 2 -261 5 -9 30 -12 87 -10 l79 3 0 30 c0
29 -2 30 -47 33 -34 2 -48 7 -48 18 0 8 10 14 23 14 29 0 47 18 47 46 0 22
-17 34 -51 34 -10 0 -19 6 -19 14 0 10 13 16 41 18 45 3 67 24 56 52 -5 13
-21 16 -85 16 -43 0 -82 -3 -85 -7z"/>
<path d="M1186 1274 c-3 -9 -6 -66 -6 -129 0 -85 3 -115 14 -124 9 -7 42 -11
88 -9 l73 3 0 30 c0 29 -2 30 -47 33 -34 2 -48 7 -48 18 0 8 10 14 23 14 27 0
41 10 50 32 8 23 -18 48 -49 48 -44 0 -28 29 17 32 45 3 67 24 56 52 -9 23
-162 24 -171 0z"/>
<path d="M561 956 c-8 -9 -11 -60 -9 -156 3 -123 5 -144 21 -154 30 -19 52 4
55 63 3 51 3 51 36 51 39 0 59 19 54 52 -2 18 -12 25 -45 32 -56 13 -57 36 -2
36 22 0 49 5 60 10 21 12 25 50 7 68 -18 18 -162 16 -177 -2z"/>
<path d="M806 954 c-13 -12 -16 -41 -16 -153 0 -145 5 -161 47 -161 34 0 43
34 43 168 0 90 -4 123 -16 140 -18 26 -37 28 -58 6z"/>
<path d="M927 952 c-14 -15 -17 -41 -17 -146 0 -138 8 -166 45 -166 30 0 45
26 45 79 0 30 4 41 15 41 10 0 15 -10 15 -34 0 -55 16 -86 44 -86 13 0 28 6
34 13 6 7 11 68 11 150 0 167 0 167 -103 167 -58 0 -76 -4 -89 -18z m103 -87
c0 -8 -7 -15 -15 -15 -8 0 -15 7 -15 15 0 8 7 15 15 15 8 0 15 -7 15 -15z"/>
<path d="M1172 958 c-18 -18 -17 -292 2 -307 9 -8 43 -11 92 -9 60 2 79 7 88
21 19 30 -4 52 -63 55 -43 3 -51 6 -51 23 0 15 7 19 34 19 39 0 59 19 54 52
-2 18 -12 25 -45 32 -56 13 -57 36 -2 36 53 0 79 15 79 45 0 14 -8 29 -19 35
-27 14 -154 13 -169 -2z"/>
</g>
</svg>
