<?xml version="1.0" standalone="no"?>
<!DOCTYPE svg PUBLIC "-//W3C//DTD SVG 20010904//EN"
 "http://www.w3.org/TR/2001/REC-SVG-20010904/DTD/svg10.dtd">
<svg version="1.0" xmlns="http://www.w3.org/2000/svg"
 width="192.000000pt" height="192.000000pt" viewBox="0 0 192.000000 192.000000"
 preserveAspectRatio="xMidYMid meet">
<metadata>
Created by potrace 1.16, written by Peter Selinger 2001-2019
</metadata>
<g transform="translate(0.000000,192.000000) scale(0.100000,-0.100000)"
fill="#000000" stroke="none">
811 c445 -92 729 -532 635 -987 -62 -301 -295 -546 -601 -630 -91 -26 -329
-26 -420 0 -291 80 -516 305 -596 596 -26 91 -26 329 0 420 120 433 542 692
982 601z"/>
<path d="M567 1287 c-15 -11 -17 -29 -15 -142 3 -129 3 -130 27 -133 31 -5 51
21 51 65 0 28 4 33 23 33 35 0 49 15 45 46 -2 25 -8 29 -35 32 -53 5 -43 32
12 32 40 0 45 3 51 27 5 19 2 30 -11 40 -24 17 -126 17 -148 0z"/>
<path d="M777 1287 c-15 -11 -17 -29 -15 -142 3 -127 4 -130 26 -133 34 -5 52
15 52 59 0 22 5 39 10 39 6 0 10 -17 10 -39 0 -44 18 -64 52 -59 22 3 23 6 26
133 3 152 1 155 -88 155 -31 0 -64 -6 -73 -13z m83 -82 c0 -8 -4 -15 -10 -15
-5 0 -10 7 -10 15 0 8 5 15 10 15 6 0 10 -7 10 -15z"/>
<path d="M988 1289 c-16 -9 -18 -27 -18 -140 l0 -129 26 -10 c14 -6 43 -10 64
-10 60 0 90 15 90 45 0 27 -30 45 -76 45 -13 0 -24 5 -24 10 0 6 11 10 24 10
22 0 56 22 56 36 0 23 -25 44 -50 44 -20 0 -30 5 -30 14 0 11 14 16 48 18 41
3 47 6 50 27 3 15 -3 30 -14 38 -21 15 -121 17 -146 2z"/>
<path d="M1198 1289 c-16 -9 -18 -27 -18 -140 l0 -129 26 -10 c14 -6 43 -10
64 -10 60 0 90 15 90 45 0 27 -30 45 -76 45 -13 0 -24 5 -24 10 0 6 11 10 24
10 22 0 56 22 56 36 0 23 -25 44 -50 44 -20 0 -30 5 -30 14 0 11 14 16 48 18
41 3 47 6 50 27 3 15 -3 30 -14 38 -21 15 -121 17 -146 2z"/>
<path d="M562 958 c-8 -8 -12 -57 -12 -154 0 -155 6 -172 55 -160 23 6 25 11
25 61 l0 54 36 3 c24 2 42 10 51 25 13 19 12 24 -6 42 -12 12 -34 21 -51 21
-20 0 -30 5 -30 14 0 11 15 16 51 18 39 2 55 8 65 23 12 18 11 24 -2 43 -13
19 -24 22 -93 22 -46 0 -82 -5 -89 -12z"/>
<path d="M808 959 c-16 -9 -18 -27 -18 -152 0 -151 4 -167 47 -167 35 0 43 30
43 168 0 112 -2 131 -18 145 -21 19 -30 20 -54 6z"/>
<path d="M926 954 c-13 -12 -16 -41 -16 -153 0 -144 5 -161 45 -161 33 0 45
20 45 72 0 36 4 48 15 48 11 0 15 -11 15 -41 0 -52 15 -79 44 -79 40 0 45 18
45 168 0 166 3 162 -108 162 -50 0 -74 -4 -85 -16z m104 -89 c0 -8 -7 -15 -15
-15 -8 0 -15 7 -15 15 0 8 7 15 15 15 8 0 15 -7 15 -15z"/>
<path d="M1166 948 c-12 -17 -16 -50 -16 -140 0 -64 4 -128 10 -142 9 -25 13
-26 93 -26 89 0 107 8 107 47 0 27 -32 43 -86 43 -24 0 -34 5 -34 15 0 10 10
15 33 15 39 0 57 15 57 47 0 25 -26 43 -64 43 -16 0 -26 6 -26 15 0 11 12 15
48 15 52 0 72 12 72 45 0 36 -20 45 -101 45 -69 0 -80 -3 -93 -22z"/>
</g>
</svg>
