<?xml version="1.0" standalone="no"?>
<!DOCTYPE svg PUBLIC "-//W3C//DTD SVG 20010904//EN"
 "http://www.w3.org/TR/2001/REC-SVG-20010904/DTD/svg10.dtd">
<svg version="1.0" xmlns="http://www.w3.org/2000/svg"
 width="192.000000pt" height="192.000000pt" viewBox="0 0 192.000000 192.000000"
 preserveAspectRatio="xMidYMid meet">
<metadata>
Created by potrace 1.16, written by Peter Selinger 2001-2019
</metadata>
<g transform="translate(0.000000,192.000000) scale(0.100000,-0.100000)"
fill="#000000" stroke="none">
811 c445 -92 729 -532 635 -987 -62 -301 -295 -546 -601 -630 -91 -26 -329
-26 -420 0 -291 80 -516 305 -596 596 -26 91 -26 329 0 420 120 433 542 692
982 601z"/>
<path d="M725 1356 c-74 -33 -115 -110 -115 -216 l0 -70 343 2 342 3 -2 76
c-2 109 -32 163 -110 203 -43 21 -411 23 -458 2z m-7 -191 c4 -41 -13 -61 -35
-43 -17 13 -17 75 0 81 23 10 32 0 35 -38z"/>
<path d="M610 893 c0 -150 13 -188 79 -245 22 -19 41 -44 41 -54 0 -29 20 -44
58 -44 44 0 72 16 72 40 0 18 7 20 89 20 88 0 90 -1 103 -27 11 -23 21 -29 56
-31 51 -4 72 10 72 47 1 18 10 32 33 46 17 11 43 40 56 65 23 41 25 56 26 175
l0 130 -342 3 -343 2 0 -127z m114 51 c11 -28 6 -61 -10 -75 -14 -11 -18 -10
-30 6 -8 10 -14 28 -14 40 0 39 42 61 54 29z"/>
</g>
</svg>
