<?xml version="1.0" standalone="no"?>
<!DOCTYPE svg PUBLIC "-//W3C//DTD SVG 20010904//EN"
 "http://www.w3.org/TR/2001/REC-SVG-20010904/DTD/svg10.dtd">
<svg version="1.0" xmlns="http://www.w3.org/2000/svg"
 width="192.000000pt" height="192.000000pt" viewBox="0 0 192.000000 192.000000"
 preserveAspectRatio="xMidYMid meet">
<metadata>
Created by potrace 1.16, written by Peter Selinger 2001-2019
</metadata>
<g transform="translate(0.000000,192.000000) scale(0.100000,-0.100000)"
fill="#000000" stroke="none">
811 c445 -92 729 -532 635 -987 -62 -301 -295 -546 -601 -630 -91 -26 -329
-26 -420 0 -291 80 -516 305 -596 596 -26 91 -26 329 0 420 120 433 542 692
982 601z"/>
<path d="M940 1380 c0 -27 5 -50 10 -50 6 0 10 9 10 20 0 11 7 20 15 20 8 0
15 5 15 10 0 6 -7 10 -15 10 -8 0 -15 5 -15 10 0 6 11 10 25 10 14 0 25 5 25
10 0 6 -16 10 -35 10 l-35 0 0 -50z"/>
<path d="M1020 1386 c0 -50 16 -69 29 -35 l8 23 12 -22 c18 -34 27 -26 26 26
l0 47 -37 3 -38 3 0 -45z m60 14 c0 -5 -7 -10 -15 -10 -8 0 -15 5 -15 10 0 6
7 10 15 10 8 0 15 -4 15 -10z"/>
<path d="M1122 1383 c3 -46 4 -48 36 -51 18 -2 32 1 32 7 0 6 -9 11 -19 11
-11 0 -23 5 -26 10 -3 6 1 10 9 10 21 0 20 10 -1 26 -16 12 -15 13 10 14 15 0
27 5 27 10 0 6 -16 10 -36 10 l-35 0 3 -47z"/>
<path d="M1217 1424 c-14 -15 -6 -35 18 -46 29 -13 33 -31 7 -26 -11 2 -20 -1
-20 -7 -1 -5 10 -10 26 -10 38 0 44 41 8 55 -30 11 -35 23 -8 18 9 -1 19 2 22
7 6 12 -42 19 -53 9z"/>
<path d="M1300 1386 c0 -25 5 -48 10 -51 6 -3 10 3 10 14 0 14 6 21 20 21 11
0 20 -6 20 -14 0 -8 5 -18 10 -21 6 -4 10 13 10 44 0 28 -4 51 -10 51 -5 0
-10 -9 -10 -20 0 -12 -7 -20 -16 -20 -9 0 -18 9 -21 20 -9 36 -23 21 -23 -24z"/>
<path d="M940 1230 l0 -91 63 3 c47 2 62 7 62 18 0 10 -13 16 -42 18 -35 3
-43 7 -43 23 0 14 7 19 25 19 16 0 25 6 25 15 0 9 -9 15 -25 15 -16 0 -25 6
-25 15 0 11 11 15 40 15 33 0 40 3 40 20 0 18 -7 20 -60 20 l-60 0 0 -90z"/>
<path d="M1097 1313 c-4 -3 -7 -44 -7 -90 l0 -83 51 0 c28 0 59 5 70 10 21 12
26 59 8 77 -8 8 -8 13 0 17 18 12 12 44 -11 60 -22 16 -99 22 -111 9z m93 -48
c0 -10 -10 -15 -30 -15 -20 0 -30 5 -30 15 0 10 10 15 30 15 20 0 30 -5 30
-15z m5 -65 c0 -10 -12 -16 -32 -18 -28 -3 -33 0 -33 18 0 18 5 21 33 18 20
-2 32 -8 32 -18z"/>
<path d="M1250 1300 c0 -15 6 -20 25 -20 24 0 25 -2 25 -71 0 -62 2 -70 18
-67 14 3 18 16 20 70 3 60 5 67 25 70 12 2 22 10 22 18 0 12 -15 16 -67 18
-63 3 -68 1 -68 -18z"/>
<path d="M650 1142 c0 -43 41 -129 77 -164 44 -42 79 -58 131 -58 56 0 66 11
60 64 -11 98 -93 166 -210 174 -53 4 -58 3 -58 -16z"/>
<path d="M830 859 c-91 -15 -214 -82 -286 -155 -34 -35 -66 -73 -69 -85 -15
-47 86 -109 176 -109 47 0 59 4 80 26 40 44 115 74 188 74 84 0 128 -14 190
-61 45 -34 58 -39 104 -39 59 0 121 25 156 63 l23 25 -31 45 c-110 160 -331
250 -531 216z"/>
</g>
</svg>
