<?xml version="1.0" standalone="no"?>
<!DOCTYPE svg PUBLIC "-//W3C//DTD SVG 20010904//EN"
 "http://www.w3.org/TR/2001/REC-SVG-20010904/DTD/svg10.dtd">
<svg version="1.0" xmlns="http://www.w3.org/2000/svg"
 width="192.000000pt" height="192.000000pt" viewBox="0 0 192.000000 192.000000"
 preserveAspectRatio="xMidYMid meet">
<metadata>
Created by potrace 1.16, written by Peter Selinger 2001-2019
</metadata>
<g transform="translate(0.000000,192.000000) scale(0.100000,-0.100000)"
fill="#000000" stroke="none">
811 c445 -92 729 -532 635 -987 -62 -301 -295 -546 -601 -630 -91 -26 -329
-26 -420 0 -291 80 -516 305 -596 596 -26 91 -26 329 0 420 120 433 542 692
982 601z"/>
<path d="M692 1319 c-51 -25 -86 -69 -101 -124 -14 -53 -14 -408 0 -460 15
-52 82 -119 134 -134 52 -14 408 -14 460 0 54 15 120 82 135 138 7 29 10 114
8 250 -3 236 -11 262 -87 316 l-43 30 -231 3 c-221 2 -234 1 -275 -19z m88
-79 c0 -5 -9 -10 -20 -10 -11 0 -20 -4 -20 -10 0 -5 7 -10 15 -10 8 0 15 -7
15 -15 0 -8 -6 -15 -14 -15 -7 0 -16 -9 -19 -20 -11 -41 -27 -20 -27 35 l0 55
35 0 c19 0 35 -4 35 -10z m115 -47 c0 -53 -16 -72 -30 -35 -6 16 -7 16 -16 0
-18 -33 -29 -18 -29 38 l0 55 38 -3 37 -3 0 -52z m75 2 c0 -42 -3 -55 -15 -55
-12 0 -15 13 -15 55 0 42 3 55 15 55 12 0 15 -13 15 -55z m120 45 c0 -5 -7
-10 -15 -10 -11 0 -15 -12 -15 -46 0 -59 -24 -55 -28 4 -2 23 -7 42 -13 42 -5
0 -9 5 -9 10 0 6 18 10 40 10 22 0 40 -4 40 -10z m110 -1 c0 -6 -9 -24 -21
-40 l-20 -29 20 0 c12 0 21 -7 21 -15 0 -10 -10 -15 -34 -15 -45 0 -49 9 -25
48 23 39 23 42 4 42 -8 0 -15 5 -15 10 0 6 16 10 35 10 19 0 35 -5 35 -11z
m45 -316 c0 -250 -2 -252 -290 -252 -285 0 -288 3 -293 241 -2 88 -1 166 2
174 5 12 52 14 293 12 l288 -3 0 -172z"/>
<path d="M850 1215 c0 -8 5 -15 10 -15 6 0 10 7 10 15 0 8 -4 15 -10 15 -5 0
-10 -7 -10 -15z"/>
<path d="M849 966 c-26 -57 51 -168 127 -182 45 -8 76 11 72 44 -2 21 -9 28
-32 30 -16 2 -33 -1 -39 -7 -19 -19 -46 -12 -63 14 -14 22 -15 30 -5 49 20 37
11 70 -21 74 -22 3 -30 -2 -39 -22z"/>
</g>
</svg>
