<?xml version="1.0" standalone="no"?>
<!DOCTYPE svg PUBLIC "-//W3C//DTD SVG 20010904//EN"
 "http://www.w3.org/TR/2001/REC-SVG-20010904/DTD/svg10.dtd">
<svg version="1.0" xmlns="http://www.w3.org/2000/svg"
 width="192.000000pt" height="192.000000pt" viewBox="0 0 192.000000 192.000000"
 preserveAspectRatio="xMidYMid meet">
<metadata>
Created by potrace 1.16, written by Peter Selinger 2001-2019
</metadata>
<g transform="translate(0.000000,192.000000) scale(0.100000,-0.100000)"
fill="#000000" stroke="none">
811 c445 -92 729 -532 635 -987 -62 -301 -295 -546 -601 -630 -91 -26 -329
-26 -420 0 -291 80 -516 305 -596 596 -26 91 -26 329 0 420 120 433 542 692
982 601z"/>
<path d="M982 1280 c-18 -11 -37 -31 -44 -44 -8 -19 -23 -28 -61 -36 -164 -35
-299 -181 -327 -353 -11 -71 -7 -90 23 -124 20 -23 25 -23 249 -23 l228 0 0
23 c0 35 -30 57 -79 57 -24 0 -41 3 -39 8 2 4 13 26 24 49 10 24 24 43 29 43
6 0 48 -40 95 -90 l85 -90 73 0 c62 0 72 2 72 18 0 36 -29 62 -70 62 -34 0
-43 6 -90 60 -29 33 -50 66 -47 73 2 6 43 34 91 60 47 27 93 59 101 70 36 52
4 104 -86 139 -47 17 -67 32 -85 59 -20 33 -65 59 -98 59 -6 0 -26 -9 -44 -20z
m73 -90 c0 -29 -38 -41 -48 -16 -10 26 4 47 27 44 15 -2 21 -10 21 -28z"/>
</g>
</svg>
