<?xml version="1.0" standalone="no"?>
<!DOCTYPE svg PUBLIC "-//W3C//DTD SVG 20010904//EN"
 "http://www.w3.org/TR/2001/REC-SVG-20010904/DTD/svg10.dtd">
<svg version="1.0" xmlns="http://www.w3.org/2000/svg"
 width="192.000000pt" height="192.000000pt" viewBox="0 0 192.000000 192.000000"
 preserveAspectRatio="xMidYMid meet">
<metadata>
Created by potrace 1.16, written by Peter Selinger 2001-2019
</metadata>
<g transform="translate(0.000000,192.000000) scale(0.100000,-0.100000)"
fill="#000000" stroke="none">
811 c445 -92 729 -532 635 -987 -62 -301 -295 -546 -601 -630 -91 -26 -329
-26 -420 0 -291 80 -516 305 -596 596 -26 91 -26 329 0 420 120 433 542 692
982 601z"/>
<path d="M901 1369 c-92 -18 -176 -91 -206 -178 -21 -62 -22 -359 -1 -400 22
-42 61 -62 135 -69 l66 -7 5 -68 c3 -45 10 -71 20 -77 22 -14 67 -12 77 3 4 6
10 50 13 97 5 83 6 85 30 85 23 0 25 -4 30 -58 5 -58 18 -77 51 -77 21 0 36
18 41 50 2 17 10 26 25 28 12 2 26 9 32 15 11 14 18 408 7 426 -4 6 -30 11
-58 11 -104 0 -158 51 -167 159 -6 62 -8 66 -31 68 -14 0 -45 -3 -69 -8z m-20
-309 c10 -6 19 -20 19 -31 0 -16 -5 -18 -24 -13 -13 3 -34 1 -45 -6 -19 -9
-21 -8 -21 14 0 14 8 30 18 35 22 13 29 13 53 1z m203 -6 c25 -24 20 -45 -8
-38 -13 3 -34 1 -45 -6 -19 -9 -21 -8 -21 14 0 40 46 59 74 30z m1 -121 c-10
-43 -30 -69 -68 -87 -43 -20 -68 -20 -112 -2 -35 15 -75 67 -75 99 0 15 13 17
131 17 l131 0 -7 -27z"/>
</g>
</svg>
