<?xml version="1.0" standalone="no"?>
<!DOCTYPE svg PUBLIC "-//W3C//DTD SVG 20010904//EN"
 "http://www.w3.org/TR/2001/REC-SVG-20010904/DTD/svg10.dtd">
<svg version="1.0" xmlns="http://www.w3.org/2000/svg"
 width="192.000000pt" height="192.000000pt" viewBox="0 0 192.000000 192.000000"
 preserveAspectRatio="xMidYMid meet">
<metadata>
Created by potrace 1.16, written by Peter Selinger 2001-2019
</metadata>
<g transform="translate(0.000000,192.000000) scale(0.100000,-0.100000)"
fill="#000000" stroke="none">
811 c445 -92 729 -532 635 -987 -62 -301 -295 -546 -601 -630 -91 -26 -329
-26 -420 0 -291 80 -516 305 -596 596 -26 91 -26 329 0 420 120 433 542 692
982 601z"/>
<path d="M671 1328 c-28 -14 -54 -37 -72 -67 l-29 -45 0 -242 0 -241 26 -39
c55 -80 75 -87 289 -96 99 -4 208 -10 243 -13 79 -8 136 16 178 77 32 46 31
14 17 358 -9 207 -14 230 -65 276 -55 51 -72 54 -315 54 -214 0 -231 -1 -272
-22z m503 -68 c51 -19 66 -62 66 -194 0 -104 -2 -117 -16 -112 -37 14 -93 17
-132 7 -51 -14 -110 -64 -128 -108 -16 -38 -18 -111 -4 -148 l10 -27 -129 4
c-121 3 -131 5 -155 27 -39 36 -46 79 -46 266 0 192 8 233 51 269 l31 26 213
0 c118 0 225 -4 239 -10z m-47 -425 c18 -13 22 -13 33 0 28 34 90 4 90 -43 0
-31 -79 -112 -109 -112 -33 0 -101 74 -101 109 0 53 44 76 87 46z"/>
<path d="M714 1164 c-4 -15 -3 -39 2 -53 l9 -26 145 -3 c192 -4 192 -4 188 56
l-3 47 -167 3 -167 2 -7 -26z"/>
<path d="M722 1008 c-16 -16 -15 -73 2 -87 9 -8 48 -11 112 -9 l99 3 0 50 0
50 -100 3 c-70 2 -104 -1 -113 -10z"/>
</g>
</svg>
