<?xml version="1.0" standalone="no"?>
<!DOCTYPE svg PUBLIC "-//W3C//DTD SVG 20010904//EN"
 "http://www.w3.org/TR/2001/REC-SVG-20010904/DTD/svg10.dtd">
<svg version="1.0" xmlns="http://www.w3.org/2000/svg"
 width="192.000000pt" height="192.000000pt" viewBox="0 0 192.000000 192.000000"
 preserveAspectRatio="xMidYMid meet">
<metadata>
Created by potrace 1.16, written by Peter Selinger 2001-2019
</metadata>
<g transform="translate(0.000000,192.000000) scale(0.100000,-0.100000)"
fill="#000000" stroke="none">
811 c445 -92 729 -532 635 -987 -62 -301 -295 -546 -601 -630 -91 -26 -329
-26 -420 0 -291 80 -516 305 -596 596 -26 91 -26 329 0 420 120 433 542 692
982 601z"/>
<path d="M621 1335 c-47 -41 -62 -119 -30 -161 5 -6 -1 -34 -13 -65 -34 -84
-31 -214 5 -294 15 -32 39 -73 52 -91 l24 -31 -29 -28 c-36 -35 -46 -61 -30
-80 19 -23 41 -18 80 20 l36 36 66 -31 c125 -59 280 -47 385 29 l40 29 44 -44
c49 -50 73 -61 94 -44 25 21 17 44 -34 94 l-50 49 24 37 c54 86 71 222 41 324
-14 46 -14 49 11 84 20 30 24 45 20 82 -10 92 -121 144 -191 89 l-26 -21 -60
21 c-71 25 -175 28 -245 7 -42 -13 -52 -13 -76 0 -45 23 -103 18 -138 -11z
m459 -175 c0 -5 -11 -39 -25 -76 -14 -36 -25 -68 -25 -70 0 -2 13 -4 29 -4 17
0 33 -5 37 -11 7 -13 -213 -239 -233 -239 -18 0 -17 8 12 84 14 37 25 69 25
71 0 3 -13 5 -29 5 -17 0 -33 5 -37 11 -4 6 42 60 107 125 104 104 139 131
139 104z"/>
</g>
</svg>
