<?xml version="1.0" standalone="no"?>
<!DOCTYPE svg PUBLIC "-//W3C//DTD SVG 20010904//EN"
 "http://www.w3.org/TR/2001/REC-SVG-20010904/DTD/svg10.dtd">
<svg version="1.0" xmlns="http://www.w3.org/2000/svg"
 width="192.000000pt" height="192.000000pt" viewBox="0 0 192.000000 192.000000"
 preserveAspectRatio="xMidYMid meet">
<metadata>
Created by potrace 1.16, written by Peter Selinger 2001-2019
</metadata>
<g transform="translate(0.000000,192.000000) scale(0.100000,-0.100000)"
fill="#000000" stroke="none">
811 c445 -92 729 -532 635 -987 -62 -301 -295 -546 -601 -630 -91 -26 -329
-26 -420 0 -291 80 -516 305 -596 596 -26 91 -26 329 0 420 120 433 542 692
982 601z"/>
<path d="M875 1366 c-22 -7 -51 -18 -65 -25 -35 -18 -109 -90 -126 -123 -12
-23 -19 -27 -45 -21 -62 12 -109 -39 -109 -119 0 -56 31 -107 69 -114 l29 -6
-19 -42 c-42 -93 -12 -215 73 -291 73 -67 103 -75 281 -75 149 0 161 1 207 25
60 30 112 81 142 138 29 54 31 156 5 207 -10 20 -14 36 -8 38 29 10 62 48 72
83 24 77 -25 159 -95 159 -27 0 -38 8 -64 45 -77 110 -222 160 -347 121z m233
-150 c50 -26 74 -71 69 -131 -2 -27 -10 -64 -17 -81 -13 -31 -12 -34 27 -78
67 -76 63 -150 -12 -222 -59 -57 -123 -77 -228 -73 -143 7 -240 74 -254 177
-6 44 10 82 57 135 l30 34 -22 50 c-15 36 -19 60 -14 86 8 44 49 95 90 112 44
19 233 12 274 -9z"/>
<path d="M860 1183 c-61 -22 -83 -89 -50 -153 26 -52 21 -76 -25 -126 -57 -60
-59 -107 -8 -159 44 -44 99 -65 177 -65 90 0 141 16 188 61 32 30 38 42 38 77
0 33 -7 49 -40 87 -43 50 -50 82 -25 125 50 87 -28 185 -120 151 -23 -8 -41
-8 -59 -1 -29 11 -52 12 -76 3z m58 -94 c4 -19 -19 -31 -38 -19 -18 11 -4 42
17 38 10 -2 19 -10 21 -19z m138 10 c3 -6 0 -18 -9 -26 -18 -18 -37 -9 -37 18
0 21 34 27 46 8z m-125 -145 c12 -14 9 -20 -20 -46 -30 -27 -35 -28 -49 -14
-15 14 -13 18 13 46 33 35 38 36 56 14z m122 -12 c20 -18 22 -48 3 -55 -14 -6
-66 41 -66 60 0 26 30 23 63 -5z m62 -137 c0 -19 -8 -20 -149 -23 -150 -3
-174 2 -163 33 6 13 27 15 159 13 145 -3 153 -4 153 -23z"/>
</g>
</svg>
