<?xml version="1.0" standalone="no"?>
<!DOCTYPE svg PUBLIC "-//W3C//DTD SVG 20010904//EN"
 "http://www.w3.org/TR/2001/REC-SVG-20010904/DTD/svg10.dtd">
<svg version="1.0" xmlns="http://www.w3.org/2000/svg"
 width="192.000000pt" height="192.000000pt" viewBox="0 0 192.000000 192.000000"
 preserveAspectRatio="xMidYMid meet">
<metadata>
Created by potrace 1.16, written by Peter Selinger 2001-2019
</metadata>
<g transform="translate(0.000000,192.000000) scale(0.100000,-0.100000)"
fill="#000000" stroke="none">
810 c245 -63 441 -223 549 -451 55 -116 75 -212 75 -354 0 -141 -20 -238 -75
-352 -86 -182 -215 -312 -396 -398 -116 -55 -212 -75 -354 -75 -142 0 -238 20
-354 75 -228 108 -388 304 -451 549 -28 110 -28 292 0 402 76 298 303 526 600
603 106 28 298 28 406 1z"/>
<path d="M772 1313 c-31 -26 -209 -677 -192 -698 15 -18 94 -20 107 -2 6 6 30
83 53 170 30 110 48 157 58 157 8 0 12 -6 9 -15 -11 -28 13 -25 85 11 l73 37
-33 27 c-18 15 -44 33 -57 40 -22 12 -27 11 -39 -6 -28 -37 -27 -4 1 98 l28
103 58 3 c31 2 57 0 57 -4 0 -3 -14 -51 -31 -105 -18 -55 -29 -102 -26 -106 4
-3 36 6 71 21 l64 28 29 81 28 82 43 3 c51 4 51 4 16 -123 -18 -63 -31 -95
-41 -95 -8 0 -12 4 -8 9 3 5 1 12 -4 15 -11 7 -136 -47 -145 -63 -7 -11 80
-80 101 -81 6 0 15 9 18 20 8 25 25 26 24 3 0 -10 -13 -61 -28 -113 l-26 -95
-53 -3 c-28 -2 -52 1 -52 5 0 4 9 37 20 73 11 36 20 68 20 71 0 11 -100 72
-107 65 -3 -3 -25 -72 -49 -153 -32 -108 -40 -150 -32 -160 8 -9 47 -13 145
-13 153 0 190 11 217 63 20 40 79 254 78 287 0 14 5 34 12 45 7 11 28 75 46
142 36 134 35 168 -6 183 -14 6 -135 10 -269 10 -217 0 -245 -2 -263 -17z"/>
</g>
</svg>
