<?xml version="1.0" standalone="no"?>
<!DOCTYPE svg PUBLIC "-//W3C//DTD SVG 20010904//EN"
 "http://www.w3.org/TR/2001/REC-SVG-20010904/DTD/svg10.dtd">
<svg version="1.0" xmlns="http://www.w3.org/2000/svg"
 width="192.000000pt" height="192.000000pt" viewBox="0 0 192.000000 192.000000"
 preserveAspectRatio="xMidYMid meet">
<metadata>
Created by potrace 1.16, written by Peter Selinger 2001-2019
</metadata>
<g transform="translate(0.000000,192.000000) scale(0.100000,-0.100000)"
fill="#000000" stroke="none">
759 c272 -64 494 -285 566 -564 28 -110 28 -280 0 -390 -71 -278 -288 -495
-566 -566 -110 -28 -280 -28 -390 0 -277 71 -494 288 -566 566 -28 110 -28
280 0 390 108 421 524 667 956 564z"/>
<path d="M624 1291 c-52 -32 -56 -54 -52 -323 l3 -245 28 -36 c52 -69 65 -72
324 -75 257 -4 323 4 366 44 55 50 59 69 55 264 -3 198 -7 209 -78 258 -30 20
-44 22 -177 22 l-144 0 -47 44 c-65 60 -80 66 -169 66 -59 0 -86 -5 -109 -19z
m194 -298 c3 -17 -3 -22 -25 -25 -23 -2 -29 -8 -31 -35 -3 -30 -1 -33 22 -33
21 0 26 -5 26 -25 0 -20 -5 -25 -25 -25 -24 0 -25 -3 -25 -55 0 -52 -1 -55
-25 -55 l-25 0 0 113 c0 122 10 152 53 160 38 8 52 3 55 -20z m72 -33 c4 -47
8 -55 25 -55 17 0 21 8 25 55 4 41 9 56 22 58 15 3 17 -11 17 -137 0 -133 -2
-141 -20 -141 -16 0 -19 7 -19 49 0 28 -6 53 -13 60 -22 17 -37 -8 -37 -61 0
-41 -3 -48 -20 -48 -18 0 -20 7 -20 59 0 33 5 63 11 67 8 4 8 9 0 17 -6 6 -11
40 -11 75 0 55 2 63 18 60 13 -2 18 -16 22 -58z"/>
</g>
</svg>
