<?xml version="1.0" standalone="no"?>
<!DOCTYPE svg PUBLIC "-//W3C//DTD SVG 20010904//EN"
 "http://www.w3.org/TR/2001/REC-SVG-20010904/DTD/svg10.dtd">
<svg version="1.0" xmlns="http://www.w3.org/2000/svg"
 width="192.000000pt" height="192.000000pt" viewBox="0 0 192.000000 192.000000"
 preserveAspectRatio="xMidYMid meet">
<metadata>
Created by potrace 1.16, written by Peter Selinger 2001-2019
</metadata>
<g transform="translate(0.000000,192.000000) scale(0.100000,-0.100000)"
fill="#000000" stroke="none">
810 c245 -63 441 -223 549 -451 55 -116 75 -212 75 -354 0 -141 -20 -238 -75
-352 -86 -182 -215 -312 -396 -398 -116 -55 -212 -75 -354 -75 -142 0 -238 20
-354 75 -228 108 -388 304 -451 549 -28 110 -28 292 0 402 76 298 303 526 600
603 106 28 298 28 406 1z"/>
<path d="M510 1092 c-103 -51 -108 -198 -8 -257 41 -24 219 -35 243 -15 19 16
21 140 3 158 -19 19 -177 16 -184 -3 -11 -26 15 -44 69 -47 45 -3 52 -6 55
-25 3 -22 0 -23 -68 -23 -62 0 -74 3 -95 25 -34 33 -34 83 0 115 23 22 37 25
126 28 104 5 126 15 99 47 -19 23 -193 21 -240 -3z"/>
<path d="M832 1087 c-12 -13 -22 -26 -22 -30 0 -4 51 -7 114 -7 89 0 116 -3
126 -15 10 -12 10 -18 0 -30 -9 -11 -35 -15 -104 -15 -84 0 -95 -2 -114 -23
-17 -18 -22 -36 -22 -78 0 -30 5 -60 12 -67 8 -8 50 -12 123 -12 96 0 114 3
128 18 10 10 17 26 17 35 0 15 -14 17 -106 17 -104 0 -105 0 -102 23 3 21 9
22 101 27 93 5 100 7 123 33 33 39 31 81 -5 118 -29 29 -31 29 -138 29 -102 0
-111 -2 -131 -23z"/>
<path d="M1256 1095 c-25 -26 -148 -264 -141 -275 3 -5 17 -10 30 -10 28 0 49
30 109 148 20 40 38 72 41 72 3 0 16 -22 30 -50 l25 -50 -40 0 c-43 0 -45 -2
-30 -31 8 -14 21 -19 54 -19 40 0 46 -3 65 -35 15 -26 27 -35 46 -35 14 0 28
6 31 14 6 15 -120 254 -144 274 -22 17 -57 15 -76 -3z"/>
</g>
</svg>
