<?xml version="1.0" standalone="no"?>
<!DOCTYPE svg PUBLIC "-//W3C//DTD SVG 20010904//EN"
 "http://www.w3.org/TR/2001/REC-SVG-20010904/DTD/svg10.dtd">
<svg version="1.0" xmlns="http://www.w3.org/2000/svg"
 width="192.000000pt" height="192.000000pt" viewBox="0 0 192.000000 192.000000"
 preserveAspectRatio="xMidYMid meet">
<metadata>
Created by potrace 1.16, written by Peter Selinger 2001-2019
</metadata>
<g transform="translate(0.000000,192.000000) scale(0.100000,-0.100000)"
fill="#000000" stroke="none">
811 c445 -92 729 -532 635 -987 -62 -301 -295 -546 -601 -630 -91 -26 -329
-26 -420 0 -291 80 -516 305 -596 596 -26 91 -26 329 0 420 120 433 542 692
982 601z"/>
<path d="M997 1259 c-21 -5 -51 -16 -67 -24 -16 -8 -51 -15 -78 -15 -26 0 -56
-6 -66 -13 -24 -18 -17 -51 12 -55 44 -7 17 -38 -38 -44 -30 -2 -35 -7 -38
-30 -3 -22 2 -29 23 -34 17 -4 25 -12 23 -23 -3 -13 -22 -17 -107 -21 -82 -4
-106 -8 -114 -22 -8 -12 -7 -21 2 -32 11 -13 35 -16 119 -16 l105 0 -6 -45
c-6 -41 -4 -46 23 -65 17 -12 30 -26 30 -31 0 -5 -27 -9 -59 -9 -45 0 -60 -4
-65 -16 -13 -33 12 -44 104 -44 73 0 97 -4 142 -25 63 -30 159 -34 230 -9 89
30 166 119 187 216 16 68 9 78 -55 78 -43 0 -56 4 -60 18 -28 91 -78 134 -164
140 -109 8 -180 -52 -188 -158 -5 -73 17 -122 70 -158 81 -53 196 -35 248 38
12 16 28 30 36 30 13 0 13 -4 0 -29 -52 -100 -202 -133 -299 -65 -59 42 -87
95 -87 167 0 139 117 234 254 205 43 -9 50 -8 69 11 58 58 -61 109 -186 80z
m132 -225 c40 -33 43 -89 7 -131 -20 -23 -32 -28 -71 -28 -39 0 -51 5 -71 28
-34 40 -32 90 5 128 39 38 87 39 130 3z"/>
<path d="M1026 1019 c-52 -41 -25 -119 41 -119 72 0 92 99 26 129 -32 15 -36
14 -67 -10z"/>
<path d="M639 1094 c-17 -21 0 -49 31 -49 31 0 48 28 31 49 -8 9 -21 16 -31
16 -10 0 -23 -7 -31 -16z"/>
<path d="M622 881 c-8 -4 -12 -19 -10 -32 3 -21 9 -24 47 -27 25 -2 55 -1 68
3 25 6 31 33 11 53 -14 14 -96 16 -116 3z"/>
</g>
</svg>
