<?xml version="1.0" standalone="no"?>
<!DOCTYPE svg PUBLIC "-//W3C//DTD SVG 20010904//EN"
 "http://www.w3.org/TR/2001/REC-SVG-20010904/DTD/svg10.dtd">
<svg version="1.0" xmlns="http://www.w3.org/2000/svg"
 width="192.000000pt" height="192.000000pt" viewBox="0 0 192.000000 192.000000"
 preserveAspectRatio="xMidYMid meet">
<metadata>
Created by potrace 1.16, written by Peter Selinger 2001-2019
</metadata>
<g transform="translate(0.000000,192.000000) scale(0.100000,-0.100000)"
fill="#000000" stroke="none">
811 c445 -92 729 -532 635 -987 -62 -301 -295 -546 -601 -630 -91 -26 -329
-26 -420 0 -291 80 -516 305 -596 596 -26 91 -26 329 0 420 120 433 542 692
982 601z"/>
<path d="M853 1360 c-18 -11 -33 -24 -33 -30 0 -5 -17 -10 -37 -10 -59 -1
-118 -33 -150 -81 l-28 -42 -3 -232 c-3 -156 0 -246 8 -276 24 -90 129 -154
210 -130 32 9 321 176 407 234 94 64 101 214 13 279 l-30 22 0 127 c0 165 7
159 -185 159 -122 0 -144 -3 -172 -20z m33 -122 l54 -33 0 -120 c0 -66 4 -126
9 -134 5 -8 32 -16 65 -19 l56 -4 0 96 c0 53 3 96 8 96 4 -1 32 -16 62 -34
l55 -32 3 -116 3 -116 -63 -35 -63 -36 -3 40 -3 39 -94 0 c-90 0 -96 1 -127
29 l-33 29 -3 191 c-2 140 0 191 8 191 7 0 36 -15 66 -32z m184 -19 l0 -41
-52 31 c-71 40 -72 51 -4 51 l56 0 0 -41z m-120 -483 c0 -25 5 -35 17 -38 19
-3 -98 -78 -122 -78 -19 0 -25 23 -25 91 l0 59 65 0 65 0 0 -34z"/>
</g>
</svg>
