<?xml version="1.0" standalone="no"?>
<!DOCTYPE svg PUBLIC "-//W3C//DTD SVG 20010904//EN"
 "http://www.w3.org/TR/2001/REC-SVG-20010904/DTD/svg10.dtd">
<svg version="1.0" xmlns="http://www.w3.org/2000/svg"
 width="192.000000pt" height="192.000000pt" viewBox="0 0 192.000000 192.000000"
 preserveAspectRatio="xMidYMid meet">
<metadata>
Created by potrace 1.16, written by Peter Selinger 2001-2019
</metadata>
<g transform="translate(0.000000,192.000000) scale(0.100000,-0.100000)"
fill="#000000" stroke="none">
810 c245 -63 441 -223 549 -451 55 -116 75 -212 75 -354 0 -141 -20 -238 -75
-352 -86 -182 -215 -312 -396 -398 -116 -55 -212 -75 -354 -75 -142 0 -238 20
-354 75 -228 108 -388 304 -451 549 -28 110 -28 292 0 402 76 298 303 526 600
603 106 28 298 28 406 1z"/>
<path d="M880 1350 c-204 -43 -345 -246 -310 -448 36 -205 212 -345 417 -329
251 19 418 268 342 508 -12 41 -23 100 -23 131 -1 49 -5 62 -28 85 -27 27 -59
33 -133 24 -11 -2 -38 4 -61 12 -53 20 -148 28 -204 17z m191 -79 c20 -10 24
-18 21 -40 -9 -63 55 -126 121 -119 30 3 33 0 50 -47 21 -60 18 -161 -7 -219
l-17 -40 -47 47 c-53 52 -82 59 -122 27 -14 -11 -31 -20 -39 -20 -8 0 -42 27
-77 60 -38 36 -71 60 -84 60 -14 0 -52 -29 -104 -80 -45 -44 -88 -80 -94 -80
-6 0 -19 26 -28 57 -49 168 51 347 226 404 35 12 169 4 201 -10z"/>
</g>
</svg>
