<?xml version="1.0" standalone="no"?>
<!DOCTYPE svg PUBLIC "-//W3C//DTD SVG 20010904//EN"
 "http://www.w3.org/TR/2001/REC-SVG-20010904/DTD/svg10.dtd">
<svg version="1.0" xmlns="http://www.w3.org/2000/svg"
 width="192.000000pt" height="192.000000pt" viewBox="0 0 192.000000 192.000000"
 preserveAspectRatio="xMidYMid meet">
<metadata>
Created by potrace 1.16, written by Peter Selinger 2001-2019
</metadata>
<g transform="translate(0.000000,192.000000) scale(0.100000,-0.100000)"
fill="#000000" stroke="none">
811 c445 -92 729 -532 635 -987 -62 -301 -295 -546 -601 -630 -91 -26 -329
-26 -420 0 -291 80 -516 305 -596 596 -26 91 -26 329 0 420 120 433 542 692
982 601z"/>
<path d="M907 1341 c-59 -65 -63 -79 -31 -103 15 -12 39 -41 54 -65 l28 -43
12 30 c7 16 30 46 51 65 35 31 38 38 28 58 -16 31 -81 97 -95 97 -6 0 -28 -18
-47 -39z"/>
<path d="M661 1256 c-10 -12 -12 -31 -7 -68 15 -111 82 -183 189 -203 36 -7
49 -22 25 -29 -7 -2 -33 -9 -56 -16 -92 -24 -162 -123 -162 -227 l0 -43 60 0
c123 0 203 65 225 183 9 44 35 51 35 10 1 -106 139 -217 250 -202 22 4 25 9
28 54 8 121 -61 207 -181 229 -50 9 -43 26 16 41 98 25 169 113 171 214 l1 56
-60 3 c-107 5 -192 -60 -217 -166 -13 -52 -38 -72 -38 -29 -1 30 -36 106 -63
135 -52 57 -187 93 -216 58z m323 -278 c8 -14 7 -21 -6 -34 -30 -30 -75 9 -48
42 16 18 39 15 54 -8z"/>
<path d="M635 1058 c-30 -16 -95 -80 -95 -94 0 -13 67 -76 98 -93 16 -8 25 -4
57 29 21 21 51 44 67 51 l30 12 -28 15 c-16 8 -47 32 -69 53 -34 32 -43 36
-60 27z"/>
<path d="M1216 1033 c-17 -19 -44 -42 -62 -51 l-33 -15 43 -27 c23 -15 52 -39
64 -54 18 -24 24 -26 44 -15 31 15 98 80 98 94 0 18 -102 107 -120 104 -3 0
-18 -16 -34 -36z"/>
<path d="M935 767 c-9 -20 -33 -50 -51 -67 -31 -27 -33 -33 -23 -53 16 -31 80
-97 95 -97 13 0 76 67 93 98 8 16 4 25 -25 53 -20 19 -44 49 -54 68 l-17 35
-18 -37z"/>
</g>
</svg>
