<?xml version="1.0" standalone="no"?>
<!DOCTYPE svg PUBLIC "-//W3C//DTD SVG 20010904//EN"
 "http://www.w3.org/TR/2001/REC-SVG-20010904/DTD/svg10.dtd">
<svg version="1.0" xmlns="http://www.w3.org/2000/svg"
 width="192.000000pt" height="192.000000pt" viewBox="0 0 192.000000 192.000000"
 preserveAspectRatio="xMidYMid meet">
<metadata>
Created by potrace 1.16, written by Peter Selinger 2001-2019
</metadata>
<g transform="translate(0.000000,192.000000) scale(0.100000,-0.100000)"
fill="#000000" stroke="none">
810 c245 -63 441 -223 549 -451 55 -116 75 -212 75 -354 0 -141 -20 -238 -75
-352 -86 -182 -215 -312 -396 -398 -116 -55 -212 -75 -354 -75 -142 0 -238 20
-354 75 -228 108 -388 304 -451 549 -28 110 -28 292 0 402 76 298 303 526 600
603 106 28 298 28 406 1z"/>
<path d="M872 1345 c-201 -44 -335 -240 -302 -440 22 -134 102 -239 228 -298
60 -29 76 -32 157 -31 127 1 189 26 276 113 88 88 113 150 113 276 0 72 -4
100 -22 139 -17 38 -21 60 -16 92 13 88 -74 163 -145 124 -13 -6 -33 -4 -67 9
-71 27 -149 32 -222 16z m199 -74 c20 -10 24 -18 21 -40 -9 -62 58 -128 120
-119 24 4 32 0 46 -26 24 -44 23 -187 -1 -240 l-17 -39 -50 47 c-54 51 -79 56
-117 26 -14 -11 -33 -20 -41 -20 -8 0 -43 27 -78 60 -38 36 -71 60 -84 60 -14
0 -52 -29 -104 -80 -45 -44 -88 -80 -94 -80 -6 0 -19 26 -28 57 -49 169 50
347 226 404 35 12 169 4 201 -10z"/>
</g>
</svg>
