<?xml version="1.0" standalone="no"?>
<!DOCTYPE svg PUBLIC "-//W3C//DTD SVG 20010904//EN"
 "http://www.w3.org/TR/2001/REC-SVG-20010904/DTD/svg10.dtd">
<svg version="1.0" xmlns="http://www.w3.org/2000/svg"
 width="192.000000pt" height="192.000000pt" viewBox="0 0 192.000000 192.000000"
 preserveAspectRatio="xMidYMid meet">
<metadata>
Created by potrace 1.16, written by Peter Selinger 2001-2019
</metadata>
<g transform="translate(0.000000,192.000000) scale(0.100000,-0.100000)"
fill="#000000" stroke="none">
810 c245 -63 441 -223 549 -451 55 -116 75 -212 75 -354 0 -141 -20 -238 -75
-352 -86 -182 -215 -312 -396 -398 -116 -55 -212 -75 -354 -75 -142 0 -238 20
-354 75 -228 108 -388 304 -451 549 -28 110 -28 292 0 402 76 298 303 526 600
603 106 28 298 28 406 1z"/>
<path d="M865 1347 c-201 -53 -334 -253 -297 -449 24 -128 112 -241 229 -296
51 -23 71 -27 158 -27 91 0 106 3 165 31 136 64 220 190 228 339 3 66 0 91
-18 140 -16 41 -22 78 -21 118 2 54 0 60 -34 94 -35 35 -37 36 -95 30 -42 -5
-69 -2 -96 9 -50 21 -158 26 -219 11z m180 -71 c37 -11 40 -15 45 -53 11 -76
57 -118 125 -111 28 3 31 0 48 -47 21 -60 18 -161 -7 -219 l-17 -40 -47 47
c-53 52 -82 59 -122 27 -14 -11 -31 -20 -38 -20 -7 0 -42 27 -77 60 -37 35
-74 60 -86 60 -13 0 -52 -30 -103 -80 -45 -44 -88 -80 -94 -80 -6 0 -19 26
-28 57 -59 203 98 412 311 412 28 0 68 -6 90 -13z"/>
</g>
</svg>
