<?xml version="1.0" standalone="no"?>
<!DOCTYPE svg PUBLIC "-//W3C//DTD SVG 20010904//EN"
 "http://www.w3.org/TR/2001/REC-SVG-20010904/DTD/svg10.dtd">
<svg version="1.0" xmlns="http://www.w3.org/2000/svg"
 width="192.000000pt" height="192.000000pt" viewBox="0 0 192.000000 192.000000"
 preserveAspectRatio="xMidYMid meet">
<metadata>
Created by potrace 1.16, written by Peter Selinger 2001-2019
</metadata>
<g transform="translate(0.000000,192.000000) scale(0.100000,-0.100000)"
fill="#000000" stroke="none">
810 c245 -63 441 -223 549 -451 55 -116 75 -212 75 -354 0 -141 -20 -238 -75
-352 -86 -182 -215 -312 -396 -398 -116 -55 -212 -75 -354 -75 -142 0 -238 20
-354 75 -228 108 -388 304 -451 549 -28 110 -28 292 0 402 76 298 303 526 600
603 106 28 298 28 406 1z"/>
<path d="M863 1345 c-159 -44 -262 -156 -295 -319 -21 -106 19 -238 98 -326
116 -128 307 -166 460 -90 178 87 263 283 203 471 -12 41 -23 100 -23 132 -1
54 -4 61 -35 89 -30 27 -38 29 -80 24 -25 -3 -50 -6 -56 -6 -5 -1 -30 6 -54
15 -64 23 -156 28 -218 10z m208 -74 c20 -10 24 -18 21 -40 -9 -63 55 -126
121 -119 30 3 33 0 50 -47 21 -60 18 -161 -7 -219 l-17 -40 -47 47 c-53 52
-82 59 -122 27 -14 -11 -31 -20 -38 -20 -7 0 -42 27 -77 60 -37 35 -74 60 -86
60 -13 0 -52 -30 -103 -80 -45 -44 -88 -80 -94 -80 -6 0 -19 26 -28 57 -45
156 38 324 192 389 50 21 71 24 134 21 41 -2 87 -10 101 -16z"/>
</g>
</svg>
