<?xml version="1.0" standalone="no"?>
<!DOCTYPE svg PUBLIC "-//W3C//DTD SVG 20010904//EN"
 "http://www.w3.org/TR/2001/REC-SVG-20010904/DTD/svg10.dtd">
<svg version="1.0" xmlns="http://www.w3.org/2000/svg"
 width="192.000000pt" height="192.000000pt" viewBox="0 0 192.000000 192.000000"
 preserveAspectRatio="xMidYMid meet">
<metadata>
Created by potrace 1.16, written by Peter Selinger 2001-2019
</metadata>
<g transform="translate(0.000000,192.000000) scale(0.100000,-0.100000)"
fill="#000000" stroke="none">
810 c245 -63 441 -223 549 -451 55 -116 75 -212 75 -354 0 -141 -20 -238 -75
-352 -86 -182 -215 -312 -396 -398 -116 -55 -212 -75 -354 -75 -142 0 -238 20
-354 75 -228 108 -388 304 -451 549 -28 110 -28 292 0 402 76 298 303 526 600
603 106 28 298 28 406 1z"/>
<path d="M863 1345 c-158 -44 -262 -156 -294 -319 -33 -160 62 -341 219 -418
62 -31 74 -33 167 -33 91 0 106 3 165 31 83 39 155 111 194 194 28 60 31 73
30 165 0 79 -5 110 -21 145 -15 34 -19 59 -15 98 4 49 3 53 -32 88 -36 36 -38
37 -96 31 -41 -5 -69 -2 -94 8 -53 22 -162 27 -223 10z m188 -70 c42 -15 45
-18 42 -48 -7 -65 53 -122 122 -115 28 3 31 0 48 -47 21 -60 18 -161 -7 -219
l-17 -40 -47 47 c-53 52 -82 59 -122 27 -14 -11 -31 -20 -38 -20 -7 0 -42 27
-77 60 -37 35 -74 60 -86 60 -13 0 -52 -30 -103 -80 -45 -44 -88 -80 -94 -80
-6 0 -19 26 -28 57 -59 204 96 409 312 412 28 1 71 -6 95 -14z"/>
</g>
</svg>
