<?xml version="1.0" standalone="no"?>
<!DOCTYPE svg PUBLIC "-//W3C//DTD SVG 20010904//EN"
 "http://www.w3.org/TR/2001/REC-SVG-20010904/DTD/svg10.dtd">
<svg version="1.0" xmlns="http://www.w3.org/2000/svg"
 width="192.000000pt" height="192.000000pt" viewBox="0 0 192.000000 192.000000"
 preserveAspectRatio="xMidYMid meet">
<metadata>
Created by potrace 1.16, written by Peter Selinger 2001-2019
</metadata>
<g transform="translate(0.000000,192.000000) scale(0.100000,-0.100000)"
fill="#000000" stroke="none">
811 c445 -92 729 -532 635 -987 -62 -301 -295 -546 -601 -630 -91 -26 -329
-26 -420 0 -291 80 -516 305 -596 596 -26 91 -26 329 0 420 120 433 542 692
982 601z"/>
<path d="M734 1286 c-93 -42 -177 -256 -178 -456 -1 -142 25 -190 102 -190 40
0 90 41 162 133 l60 77 79 0 78 0 59 -77 c99 -130 171 -163 227 -107 32 32 42
76 40 174 -3 150 -67 343 -138 414 -52 52 -111 54 -202 8 -54 -28 -74 -28
-137 2 -67 33 -114 39 -152 22z m413 -162 c3 -8 -2 -23 -11 -32 -15 -15 -17
-15 -33 0 -13 14 -14 20 -3 32 16 20 39 20 47 0z m-327 -34 c4 -15 15 -26 30
-30 16 -4 25 -13 25 -25 0 -12 -9 -21 -25 -25 -15 -4 -26 -15 -30 -30 -4 -16
-13 -25 -25 -25 -12 0 -21 9 -25 25 -4 15 -15 26 -30 30 -33 8 -34 44 -2 48
13 2 26 11 29 20 3 9 7 23 9 30 6 22 38 9 44 -18z m248 -58 c3 -18 -1 -22 -22
-22 -19 0 -26 5 -26 18 0 39 43 43 48 4z m157 3 c0 -22 -31 -33 -47 -17 -17
17 -1 44 24 40 15 -2 23 -10 23 -23z m-75 -82 c0 -21 -29 -28 -46 -11 -14 13
-14 17 1 32 13 13 20 14 31 5 8 -6 14 -18 14 -26z"/>
</g>
</svg>
