<?xml version="1.0" standalone="no"?>
<!DOCTYPE svg PUBLIC "-//W3C//DTD SVG 20010904//EN"
 "http://www.w3.org/TR/2001/REC-SVG-20010904/DTD/svg10.dtd">
<svg version="1.0" xmlns="http://www.w3.org/2000/svg"
 width="192.000000pt" height="192.000000pt" viewBox="0 0 192.000000 192.000000"
 preserveAspectRatio="xMidYMid meet">
<metadata>
Created by potrace 1.16, written by Peter Selinger 2001-2019
</metadata>
<g transform="translate(0.000000,192.000000) scale(0.100000,-0.100000)"
fill="#000000" stroke="none">
810 c245 -63 441 -223 549 -451 55 -116 75 -212 75 -354 0 -141 -20 -238 -75
-352 -86 -182 -215 -312 -396 -398 -116 -55 -212 -75 -354 -75 -142 0 -238 20
-354 75 -228 108 -388 304 -451 549 -28 110 -28 292 0 402 76 298 303 526 600
603 106 28 298 28 406 1z"/>
<path d="M672 1259 c-52 -26 -105 -86 -120 -138 -7 -22 -12 -108 -12 -207 0
-145 3 -174 18 -203 35 -66 125 -90 189 -51 39 24 56 52 63 110 l5 45 141 3
141 3 7 -47 c19 -143 182 -183 256 -62 18 30 20 51 20 203 -1 183 -8 219 -54
280 -15 19 -49 46 -76 60 -49 25 -53 25 -292 25 -227 0 -246 -1 -286 -21z
m136 -146 c3 -26 8 -33 25 -33 33 0 49 -15 45 -41 -2 -19 -10 -25 -35 -27 -29
-3 -33 -7 -33 -32 0 -18 -7 -33 -18 -39 -27 -14 -52 5 -52 39 0 27 -3 30 -30
30 -34 0 -53 25 -39 52 6 11 21 18 39 18 26 0 30 4 30 28 0 36 8 44 40 40 20
-2 26 -9 28 -35z m391 23 c52 -27 68 -112 31 -159 -73 -93 -227 -13 -190 98
22 67 94 94 159 61z"/>
<path d="M1112 1063 c-14 -26 3 -53 34 -53 14 0 27 7 31 16 15 39 -46 73 -65
37z"/>
</g>
</svg>
