<?xml version="1.0" standalone="no"?>
<!DOCTYPE svg PUBLIC "-//W3C//DTD SVG 20010904//EN"
 "http://www.w3.org/TR/2001/REC-SVG-20010904/DTD/svg10.dtd">
<svg version="1.0" xmlns="http://www.w3.org/2000/svg"
 width="192.000000pt" height="192.000000pt" viewBox="0 0 192.000000 192.000000"
 preserveAspectRatio="xMidYMid meet">
<metadata>
Created by potrace 1.16, written by Peter Selinger 2001-2019
</metadata>
<g transform="translate(0.000000,192.000000) scale(0.100000,-0.100000)"
fill="#000000" stroke="none">
810 c245 -63 441 -223 549 -451 55 -116 75 -212 75 -354 0 -141 -20 -238 -75
-352 -86 -182 -215 -312 -396 -398 -116 -55 -212 -75 -354 -75 -142 0 -238 20
-354 75 -228 108 -388 304 -451 549 -28 110 -28 292 0 402 76 298 303 526 600
603 106 28 298 28 406 1z"/>
<path d="M684 1266 c-51 -23 -100 -73 -123 -127 -21 -47 -22 -64 -19 -235 l3
-184 36 -36 c88 -88 229 -30 229 94 l0 42 145 0 145 0 0 -27 c1 -45 36 -111
72 -133 67 -40 153 -13 191 60 16 31 17 58 15 216 l-3 181 -30 49 c-19 30 -49
60 -79 79 l-49 30 -251 2 c-195 2 -258 0 -282 -11z m124 -153 c3 -28 7 -32 35
-35 28 -3 32 -7 32 -33 0 -27 -4 -30 -32 -33 -29 -3 -33 -7 -33 -31 0 -63 -62
-65 -68 -2 -3 27 -7 31 -32 31 -34 0 -53 26 -39 52 6 11 21 18 39 18 26 0 30
4 30 28 0 36 8 44 40 40 20 -2 26 -9 28 -35z m398 19 c45 -36 58 -107 28 -151
-22 -31 -77 -53 -112 -45 -39 9 -81 52 -88 90 -7 37 14 85 48 108 30 21 98 20
124 -2z"/>
<path d="M1114 1066 c-11 -28 1 -51 28 -54 31 -4 48 29 28 53 -16 19 -49 19
-56 1z"/>
</g>
</svg>
