<?xml version="1.0" standalone="no"?>
<!DOCTYPE svg PUBLIC "-//W3C//DTD SVG 20010904//EN"
 "http://www.w3.org/TR/2001/REC-SVG-20010904/DTD/svg10.dtd">
<svg version="1.0" xmlns="http://www.w3.org/2000/svg"
 width="192.000000pt" height="192.000000pt" viewBox="0 0 192.000000 192.000000"
 preserveAspectRatio="xMidYMid meet">
<metadata>
Created by potrace 1.16, written by Peter Selinger 2001-2019
</metadata>
<g transform="translate(0.000000,192.000000) scale(0.100000,-0.100000)"
fill="#000000" stroke="none">
810 c245 -63 441 -223 549 -451 55 -116 75 -212 75 -354 0 -141 -20 -238 -75
-352 -86 -182 -215 -312 -396 -398 -116 -55 -212 -75 -354 -75 -142 0 -238 20
-354 75 -228 108 -388 304 -451 549 -28 110 -28 292 0 402 76 298 303 526 600
603 106 28 298 28 406 1z"/>
<path d="M675 1256 c-60 -28 -87 -56 -114 -116 -18 -40 -21 -65 -21 -220 0
-157 2 -178 20 -208 40 -65 109 -87 175 -56 45 21 68 58 75 119 l5 50 140 0
140 0 11 -53 c15 -67 37 -100 79 -118 49 -20 87 -17 126 9 60 40 69 72 69 248
0 223 -26 290 -133 344 -50 25 -54 25 -286 25 -227 0 -238 -1 -286 -24z m135
-146 c0 -27 3 -30 30 -30 18 0 33 -7 39 -18 14 -27 -5 -52 -39 -52 -26 0 -30
-4 -30 -29 0 -61 -59 -66 -70 -5 -4 22 -12 30 -34 34 -61 11 -56 70 5 70 25 0
29 4 29 30 0 34 25 53 52 39 11 -6 18 -21 18 -39z m411 11 c52 -52 36 -141
-31 -176 -37 -19 -54 -19 -95 1 -42 20 -69 73 -61 119 16 82 128 115 187 56z"/>
<path d="M1122 1071 c-8 -4 -12 -19 -10 -32 4 -29 45 -34 61 -7 19 30 -19 60
-51 39z"/>
</g>
</svg>
