<?xml version="1.0" standalone="no"?>
<!DOCTYPE svg PUBLIC "-//W3C//DTD SVG 20010904//EN"
 "http://www.w3.org/TR/2001/REC-SVG-20010904/DTD/svg10.dtd">
<svg version="1.0" xmlns="http://www.w3.org/2000/svg"
 width="192.000000pt" height="192.000000pt" viewBox="0 0 192.000000 192.000000"
 preserveAspectRatio="xMidYMid meet">
<metadata>
Created by potrace 1.16, written by Peter Selinger 2001-2019
</metadata>
<g transform="translate(0.000000,192.000000) scale(0.100000,-0.100000)"
fill="#000000" stroke="none">
810 c245 -63 441 -223 549 -451 55 -116 75 -212 75 -354 0 -141 -20 -238 -75
-352 -86 -182 -215 -312 -396 -398 -116 -55 -212 -75 -354 -75 -142 0 -238 20
-354 75 -228 108 -388 304 -451 549 -28 110 -28 292 0 402 76 298 303 526 600
603 106 28 298 28 406 1z"/>
<path d="M685 1266 c-51 -22 -97 -68 -121 -121 -22 -46 -24 -63 -24 -223 0
-129 4 -180 14 -200 38 -72 112 -99 181 -66 47 22 75 67 75 121 0 53 5 55 164
51 l120 -3 11 -50 c15 -67 30 -92 68 -115 66 -40 153 -13 189 60 15 29 18 62
18 191 0 224 -25 290 -132 343 -52 26 -53 26 -292 26 -176 -1 -249 -4 -271
-14z m123 -153 c3 -28 7 -32 35 -35 28 -3 32 -7 32 -33 0 -27 -4 -30 -32 -33
-29 -3 -33 -7 -33 -31 0 -61 -60 -65 -70 -5 -4 22 -11 30 -32 32 -60 7 -58 72
2 72 26 0 30 4 30 28 0 36 8 44 40 40 20 -2 26 -9 28 -35z m411 6 c58 -58 35
-153 -43 -179 -44 -14 -77 -5 -112 31 -23 24 -29 39 -29 75 0 39 5 50 33 75
47 42 108 41 151 -2z"/>
<path d="M1114 1066 c-11 -28 1 -51 28 -54 31 -4 48 29 28 53 -16 19 -49 19
-56 1z"/>
</g>
</svg>
