<?xml version="1.0" standalone="no"?>
<!DOCTYPE svg PUBLIC "-//W3C//DTD SVG 20010904//EN"
 "http://www.w3.org/TR/2001/REC-SVG-20010904/DTD/svg10.dtd">
<svg version="1.0" xmlns="http://www.w3.org/2000/svg"
 width="192.000000pt" height="192.000000pt" viewBox="0 0 192.000000 192.000000"
 preserveAspectRatio="xMidYMid meet">
<metadata>
Created by potrace 1.16, written by Peter Selinger 2001-2019
</metadata>
<g transform="translate(0.000000,192.000000) scale(0.100000,-0.100000)"
fill="#000000" stroke="none">
811 c445 -92 729 -532 635 -987 -62 -301 -295 -546 -601 -630 -91 -26 -329
-26 -420 0 -291 80 -516 305 -596 596 -26 91 -26 329 0 420 120 433 542 692
982 601z"/>
<path d="M850 1366 c-78 -21 -123 -48 -185 -111 -85 -84 -124 -176 -125 -290
0 -249 234 -448 479 -405 233 40 385 261 337 489 -49 233 -282 379 -506 317z
m158 -170 c15 -8 34 -27 42 -42 20 -36 18 -125 -2 -156 -14 -22 -14 -25 3 -47
14 -17 19 -39 19 -85 0 -79 -24 -120 -79 -137 -79 -23 -144 21 -155 107 -7 49
4 104 24 129 7 9 6 21 -5 41 -31 60 -13 153 37 188 28 20 80 20 116 2z"/>
<path d="M926 1114 c-11 -29 -6 -81 9 -94 29 -24 45 -4 45 55 0 51 -2 55 -24
55 -13 0 -27 -7 -30 -16z"/>
<path d="M932 928 c-19 -19 -16 -117 4 -125 30 -11 49 11 52 61 4 64 -24 96
-56 64z"/>
</g>
</svg>
