<?xml version="1.0" standalone="no"?>
<!DOCTYPE svg PUBLIC "-//W3C//DTD SVG 20010904//EN"
 "http://www.w3.org/TR/2001/REC-SVG-20010904/DTD/svg10.dtd">
<svg version="1.0" xmlns="http://www.w3.org/2000/svg"
 width="192.000000pt" height="192.000000pt" viewBox="0 0 192.000000 192.000000"
 preserveAspectRatio="xMidYMid meet">
<metadata>
Created by potrace 1.16, written by Peter Selinger 2001-2019
</metadata>
<g transform="translate(0.000000,192.000000) scale(0.100000,-0.100000)"
fill="#000000" stroke="none">
810 c245 -63 441 -223 549 -451 55 -116 75 -212 75 -354 0 -141 -20 -238 -75
-352 -86 -182 -215 -312 -396 -398 -116 -55 -212 -75 -354 -75 -142 0 -238 20
-354 75 -228 108 -388 304 -451 549 -28 110 -28 292 0 402 76 298 303 526 600
603 106 28 298 28 406 1z"/>
<path d="M692 1267 c-53 -20 -103 -66 -128 -121 -22 -48 -24 -63 -24 -226 0
-196 7 -220 72 -260 87 -53 198 14 198 118 0 52 6 54 165 50 l120 -3 11 -53
c15 -67 37 -100 79 -118 49 -20 87 -17 126 9 60 40 69 72 69 248 0 223 -26
290 -133 344 -50 25 -53 25 -286 24 -155 0 -247 -5 -269 -12z m118 -157 c0
-25 4 -29 33 -32 28 -3 32 -6 32 -33 0 -27 -4 -30 -32 -33 -29 -3 -33 -7 -33
-31 0 -61 -60 -65 -70 -5 -4 22 -11 30 -32 32 -60 7 -58 72 2 72 27 0 30 3 30
30 0 34 25 53 52 39 11 -6 18 -21 18 -39z m411 9 c82 -87 -16 -225 -124 -174
-108 51 -71 205 50 205 37 0 50 -5 74 -31z"/>
<path d="M1114 1066 c-11 -28 1 -51 25 -51 32 0 49 28 32 49 -17 20 -50 21
-57 2z"/>
</g>
</svg>
