<?xml version="1.0" standalone="no"?>
<!DOCTYPE svg PUBLIC "-//W3C//DTD SVG 20010904//EN"
 "http://www.w3.org/TR/2001/REC-SVG-20010904/DTD/svg10.dtd">
<svg version="1.0" xmlns="http://www.w3.org/2000/svg"
 width="192.000000pt" height="192.000000pt" viewBox="0 0 192.000000 192.000000"
 preserveAspectRatio="xMidYMid meet">
<metadata>
Created by potrace 1.16, written by Peter Selinger 2001-2019
</metadata>
<g transform="translate(0.000000,192.000000) scale(0.100000,-0.100000)"
fill="#000000" stroke="none">
810 c245 -63 441 -223 549 -451 55 -116 75 -212 75 -354 0 -141 -20 -238 -75
-352 -86 -182 -215 -312 -396 -398 -116 -55 -212 -75 -354 -75 -142 0 -238 20
-354 75 -228 108 -388 304 -451 549 -28 110 -28 292 0 402 76 298 303 526 600
603 106 28 298 28 406 1z"/>
<path d="M672 1259 c-54 -27 -106 -88 -121 -142 -8 -28 -11 -104 -9 -217 3
-194 9 -213 75 -245 93 -45 193 18 193 125 l0 40 145 0 145 0 0 -27 c1 -45 36
-111 72 -133 64 -39 146 -16 188 52 19 31 21 47 18 219 l-3 186 -30 49 c-19
30 -49 60 -79 79 l-49 30 -251 3 c-239 2 -253 2 -294 -19z m136 -146 c3 -28 7
-32 35 -35 28 -3 32 -7 32 -33 0 -27 -4 -30 -32 -33 -29 -3 -33 -7 -33 -32 0
-19 -7 -33 -21 -40 -27 -15 -49 3 -49 41 0 25 -4 29 -30 29 -34 0 -53 25 -39
52 6 11 21 18 39 18 26 0 30 4 30 28 0 36 8 44 40 40 20 -2 26 -9 28 -35z
m391 23 c32 -17 51 -54 51 -100 0 -70 -77 -120 -142 -93 -62 26 -87 75 -68
132 22 67 94 94 159 61z"/>
<path d="M1114 1066 c-3 -8 -4 -23 -2 -33 5 -25 61 -25 66 0 7 37 -51 67 -64
33z"/>
</g>
</svg>
