<?xml version="1.0" standalone="no"?>
<!DOCTYPE svg PUBLIC "-//W3C//DTD SVG 20010904//EN"
 "http://www.w3.org/TR/2001/REC-SVG-20010904/DTD/svg10.dtd">
<svg version="1.0" xmlns="http://www.w3.org/2000/svg"
 width="192.000000pt" height="192.000000pt" viewBox="0 0 192.000000 192.000000"
 preserveAspectRatio="xMidYMid meet">
<metadata>
Created by potrace 1.16, written by Peter Selinger 2001-2019
</metadata>
<g transform="translate(0.000000,192.000000) scale(0.100000,-0.100000)"
fill="#000000" stroke="none">
810 c245 -63 441 -223 549 -451 55 -116 75 -212 75 -354 0 -141 -20 -238 -75
-352 -86 -182 -215 -312 -396 -398 -116 -55 -212 -75 -354 -75 -142 0 -238 20
-354 75 -228 108 -388 304 -451 549 -28 110 -28 292 0 402 76 298 303 526 600
603 106 28 298 28 406 1z"/>
<path d="M672 1259 c-52 -26 -109 -90 -122 -138 -5 -20 -10 -113 -10 -206 0
-146 3 -175 18 -204 35 -66 125 -90 189 -51 39 24 56 52 63 110 l5 45 141 3
141 3 7 -50 c11 -86 73 -137 153 -128 49 5 93 40 113 87 8 19 11 87 8 207 l-3
180 -30 49 c-17 26 -50 62 -74 79 l-43 30 -256 3 c-246 2 -259 2 -300 -19z
m136 -146 c3 -26 8 -33 25 -33 33 0 49 -15 45 -41 -2 -19 -10 -25 -35 -27 -29
-3 -33 -7 -33 -32 0 -18 -7 -33 -18 -39 -26 -14 -52 5 -52 39 0 25 -4 29 -32
32 -29 3 -33 6 -33 33 0 27 4 30 33 33 28 3 32 7 32 31 0 35 8 43 40 39 20 -2
26 -9 28 -35z m391 23 c78 -41 61 -171 -26 -195 -51 -14 -101 10 -126 61 -46
94 56 183 152 134z"/>
<path d="M1112 1063 c-14 -26 3 -53 34 -53 14 0 27 7 31 16 15 39 -46 73 -65
37z"/>
</g>
</svg>
