<?xml version="1.0" standalone="no"?>
<!DOCTYPE svg PUBLIC "-//W3C//DTD SVG 20010904//EN"
 "http://www.w3.org/TR/2001/REC-SVG-20010904/DTD/svg10.dtd">
<svg version="1.0" xmlns="http://www.w3.org/2000/svg"
 width="192.000000pt" height="192.000000pt" viewBox="0 0 192.000000 192.000000"
 preserveAspectRatio="xMidYMid meet">
<metadata>
Created by potrace 1.16, written by Peter Selinger 2001-2019
</metadata>
<g transform="translate(0.000000,192.000000) scale(0.100000,-0.100000)"
fill="#000000" stroke="none">
810 c245 -63 441 -223 549 -451 55 -116 75 -212 75 -354 0 -141 -20 -238 -75
-352 -86 -182 -215 -312 -396 -398 -116 -55 -212 -75 -354 -75 -142 0 -238 20
-354 75 -228 108 -388 304 -451 549 -28 110 -28 292 0 402 76 298 303 526 600
603 106 28 298 28 406 1z"/>
<path d="M739 1280 c-62 -11 -100 -32 -139 -76 -55 -63 -60 -86 -60 -280 0
-141 3 -183 16 -210 32 -68 125 -95 191 -54 39 24 56 52 63 110 l5 45 141 3
141 3 7 -50 c19 -147 194 -179 262 -49 17 33 20 332 4 390 -16 56 -69 119
-125 147 -47 25 -56 26 -254 28 -114 1 -227 -2 -252 -7z m65 -146 c3 -9 6 -24
6 -35 0 -13 7 -19 23 -19 33 0 49 -15 45 -41 -2 -19 -10 -25 -35 -27 -29 -3
-33 -7 -33 -32 0 -18 -7 -33 -18 -39 -26 -14 -52 5 -52 39 0 25 -4 29 -32 32
-29 3 -33 6 -33 33 0 27 4 30 33 33 28 3 32 7 32 31 0 15 3 31 7 34 12 13 51
7 57 -9z m395 2 c48 -25 65 -91 36 -146 -19 -37 -43 -50 -93 -50 -76 0 -127
74 -99 143 27 63 93 85 156 53z"/>
<path d="M1112 1063 c-14 -26 3 -53 34 -53 14 0 27 7 31 16 15 39 -46 73 -65
37z"/>
</g>
</svg>
