<?xml version="1.0" standalone="no"?>
<!DOCTYPE svg PUBLIC "-//W3C//DTD SVG 20010904//EN"
 "http://www.w3.org/TR/2001/REC-SVG-20010904/DTD/svg10.dtd">
<svg version="1.0" xmlns="http://www.w3.org/2000/svg"
 width="192.000000pt" height="192.000000pt" viewBox="0 0 192.000000 192.000000"
 preserveAspectRatio="xMidYMid meet">
<metadata>
Created by potrace 1.16, written by Peter Selinger 2001-2019
</metadata>
<g transform="translate(0.000000,192.000000) scale(0.100000,-0.100000)"
fill="#000000" stroke="none">
811 c445 -92 729 -532 635 -987 -62 -301 -295 -546 -601 -630 -91 -26 -329
-26 -420 0 -291 80 -516 305 -596 596 -26 91 -26 329 0 420 120 433 542 692
982 601z"/>
<path d="M826 1374 c-22 -22 -20 -52 9 -110 25 -50 129 -174 146 -174 16 0 9
107 -12 176 -32 104 -98 154 -143 108z"/>
<path d="M975 1343 c27 -64 45 -143 45 -195 0 -68 14 -74 42 -17 32 61 19 149
-30 202 -30 31 -69 38 -57 10z"/>
<path d="M590 1247 c-47 -17 -67 -54 -55 -104 10 -36 11 -38 45 -33 81 12 235
2 297 -18 57 -18 61 -18 50 -2 -24 34 -110 101 -166 129 -69 35 -125 44 -171
28z"/>
<path d="M1138 1101 c-15 -5 -36 -15 -47 -23 -19 -13 -16 -15 47 -25 37 -6 97
-22 132 -36 35 -15 66 -25 68 -23 9 9 -29 76 -51 91 -29 19 -112 28 -149 16z"/>
<path d="M606 1079 c-58 -9 -66 -19 -66 -81 0 -118 133 -163 277 -93 47 24
133 105 133 127 0 13 -46 28 -130 44 -83 15 -140 16 -214 3z"/>
<path d="M1070 1022 c0 -17 132 -133 176 -155 50 -24 90 -17 106 18 20 43 -1
68 -88 104 -80 34 -194 53 -194 33z"/>
<path d="M963 958 c-99 -109 -136 -300 -70 -365 33 -34 124 -45 150 -18 33 32
15 269 -28 373 -16 38 -25 40 -52 10z"/>
<path d="M1044 950 c40 -126 48 -172 50 -277 l1 -113 29 -10 c47 -16 75 -12
103 16 22 22 25 32 21 77 -8 90 -89 231 -174 300 -37 31 -37 31 -30 7z"/>
</g>
</svg>
