<?xml version="1.0" standalone="no"?>
<!DOCTYPE svg PUBLIC "-//W3C//DTD SVG 20010904//EN"
 "http://www.w3.org/TR/2001/REC-SVG-20010904/DTD/svg10.dtd">
<svg version="1.0" xmlns="http://www.w3.org/2000/svg"
 width="192.000000pt" height="192.000000pt" viewBox="0 0 192.000000 192.000000"
 preserveAspectRatio="xMidYMid meet">
<metadata>
Created by potrace 1.16, written by Peter Selinger 2001-2019
</metadata>
<g transform="translate(0.000000,192.000000) scale(0.100000,-0.100000)"
fill="#000000" stroke="none">
811 c445 -92 729 -532 635 -987 -62 -301 -295 -546 -601 -630 -91 -26 -329
-26 -420 0 -291 80 -516 305 -596 596 -26 91 -26 329 0 420 120 433 542 692
982 601z"/>
<path d="M955 1338 c-55 -16 -120 -35 -145 -43 -38 -12 -42 -12 -26 0 10 8 16
19 14 25 -2 7 -25 -3 -57 -25 -34 -24 -56 -33 -60 -26 -10 15 -163 -157 -159
-178 5 -23 111 -21 158 4 20 10 65 20 105 23 l70 4 -72 -36 c-120 -62 -185
-154 -184 -266 0 -38 7 -72 20 -98 24 -47 88 -106 138 -128 48 -20 220 -39
236 -26 7 6 39 17 72 25 80 20 167 53 191 73 19 15 19 15 -1 10 -81 -20 -76
-21 -60 10 8 16 15 36 15 45 0 17 83 117 134 161 l31 27 -62 1 c-34 0 -64 4
-67 8 -3 5 -19 7 -36 4 -20 -3 -52 5 -92 23 -154 69 -348 5 -348 -116 0 -53
34 -89 84 -89 27 0 40 6 52 26 16 24 16 27 -4 68 -12 24 -22 51 -22 60 0 38
96 44 162 10 86 -44 61 -202 -41 -262 -58 -34 -139 -37 -189 -7 -82 49 -96
203 -24 268 13 12 18 26 14 39 -4 17 -2 20 11 15 11 -4 17 -1 17 9 0 27 32 65
74 86 51 26 125 20 213 -16 49 -20 80 -26 139 -26 65 0 75 2 65 14 -14 16 0
29 32 31 47 4 37 55 -11 55 -42 0 -142 32 -142 45 0 6 -9 20 -19 29 -23 21
-137 57 -157 49 -8 -3 -14 0 -14 7 0 12 -65 8 -109 -7 -9 -3 24 19 73 49 49
29 91 59 94 66 5 15 6 15 -113 -20z"/>
</g>
</svg>
