<?xml version="1.0" standalone="no"?>
<!DOCTYPE svg PUBLIC "-//W3C//DTD SVG 20010904//EN"
 "http://www.w3.org/TR/2001/REC-SVG-20010904/DTD/svg10.dtd">
<svg version="1.0" xmlns="http://www.w3.org/2000/svg"
 width="192.000000pt" height="192.000000pt" viewBox="0 0 192.000000 192.000000"
 preserveAspectRatio="xMidYMid meet">
<metadata>
Created by potrace 1.16, written by Peter Selinger 2001-2019
</metadata>
<g transform="translate(0.000000,192.000000) scale(0.100000,-0.100000)"
fill="#000000" stroke="none">
811 c445 -92 729 -532 635 -987 -62 -301 -295 -546 -601 -630 -91 -26 -329
-26 -420 0 -291 80 -516 305 -596 596 -26 91 -26 329 0 420 120 433 542 692
982 601z"/>
<path d="M829 1362 c-148 -49 -256 -180 -278 -337 -46 -324 286 -574 577 -433
58 27 143 106 176 162 68 116 74 274 15 394 -42 86 -111 155 -196 195 -87 40
-206 48 -294 19z m261 -148 c54 -30 110 -87 110 -114 0 -21 -20 -40 -42 -40
-9 0 -37 20 -61 44 -101 101 -260 74 -319 -54 -22 -47 -25 -50 -60 -50 -31 0
-38 4 -38 20 0 24 17 64 48 112 72 112 238 150 362 82z m-321 -319 c53 -147
229 -179 340 -61 39 40 52 44 75 20 24 -23 20 -40 -20 -83 -55 -61 -123 -91
-208 -91 -80 0 -132 19 -188 69 -40 35 -88 121 -88 158 0 20 5 23 38 23 34 0
39 -3 51 -35z"/>
</g>
</svg>
