<?xml version="1.0" standalone="no"?>
<!DOCTYPE svg PUBLIC "-//W3C//DTD SVG 20010904//EN"
 "http://www.w3.org/TR/2001/REC-SVG-20010904/DTD/svg10.dtd">
<svg version="1.0" xmlns="http://www.w3.org/2000/svg"
 width="192.000000pt" height="192.000000pt" viewBox="0 0 192.000000 192.000000"
 preserveAspectRatio="xMidYMid meet">
<metadata>
Created by potrace 1.16, written by Peter Selinger 2001-2019
</metadata>
<g transform="translate(0.000000,192.000000) scale(0.100000,-0.100000)"
fill="#000000" stroke="none">
811 c445 -92 729 -532 635 -987 -62 -301 -295 -546 -601 -630 -91 -26 -329
-26 -420 0 -291 80 -516 305 -596 596 -26 91 -26 329 0 420 120 433 542 692
982 601z"/>
<path d="M615 1260 c-42 -17 -68 -58 -73 -114 -4 -47 -2 -55 18 -69 36 -25 60
-6 60 46 0 53 13 67 61 67 21 0 45 7 53 16 19 18 19 20 6 45 -8 15 -21 19 -58
18 -26 0 -56 -4 -67 -9z"/>
<path d="M1170 1251 c-13 -25 -13 -27 6 -45 9 -10 33 -16 59 -16 46 0 55 -9
55 -60 0 -16 3 -35 6 -44 7 -19 45 -21 62 -4 17 17 15 84 -4 124 -21 44 -59
64 -123 64 -39 0 -53 -4 -61 -19z"/>
<path d="M646 1164 c-9 -8 -16 -19 -16 -22 0 -4 34 -41 75 -82 45 -45 75 -83
75 -95 0 -12 -27 -47 -66 -85 -116 -115 -112 -130 40 -130 94 0 104 2 124 23
88 94 88 292 -2 382 -23 23 -32 25 -120 25 -73 0 -98 -4 -110 -16z"/>
<path d="M1034 1155 c-90 -90 -90 -288 -2 -382 20 -21 30 -23 124 -23 152 0
156 15 40 130 -39 38 -66 73 -66 85 0 12 30 50 75 95 41 41 75 78 75 82 0 3
-7 14 -16 22 -12 12 -37 16 -110 16 -88 0 -97 -2 -120 -25z"/>
<path d="M550 841 c-24 -46 -2 -135 41 -165 32 -22 132 -22 150 0 21 25 -2 48
-52 54 -61 8 -69 15 -69 64 0 23 -5 47 -12 54 -18 18 -46 14 -58 -7z"/>
<path d="M1302 848 c-7 -7 -12 -31 -12 -54 0 -49 -8 -56 -69 -64 -50 -6 -73
-29 -52 -54 18 -22 118 -22 150 0 43 30 65 119 41 165 -12 21 -40 25 -58 7z"/>
</g>
</svg>
