<?xml version="1.0" standalone="no"?>
<!DOCTYPE svg PUBLIC "-//W3C//DTD SVG 20010904//EN"
 "http://www.w3.org/TR/2001/REC-SVG-20010904/DTD/svg10.dtd">
<svg version="1.0" xmlns="http://www.w3.org/2000/svg"
 width="192.000000pt" height="192.000000pt" viewBox="0 0 192.000000 192.000000"
 preserveAspectRatio="xMidYMid meet">
<metadata>
Created by potrace 1.16, written by Peter Selinger 2001-2019
</metadata>
<g transform="translate(0.000000,192.000000) scale(0.100000,-0.100000)"
fill="#000000" stroke="none">
811 c445 -92 729 -532 635 -987 -62 -301 -295 -546 -601 -630 -91 -26 -329
-26 -420 0 -291 80 -516 305 -596 596 -26 91 -26 329 0 420 120 433 542 692
982 601z"/>
<path d="M839 1352 c-106 -36 -194 -114 -247 -222 -25 -50 -27 -65 -27 -170 0
-109 2 -119 32 -182 39 -82 113 -160 185 -193 l53 -25 5 51 c3 28 12 54 20 59
20 13 167 12 191 0 14 -8 19 -21 19 -55 0 -25 5 -45 10 -45 46 0 160 89 206
162 86 135 83 319 -6 458 -91 143 -285 213 -441 162z m190 -138 c112 -33 189
-152 178 -274 -21 -230 -292 -322 -440 -149 -121 141 -58 370 116 425 56 17
84 17 146 -2z"/>
<path d="M893 1081 c-45 -28 -65 -63 -65 -115 0 -112 112 -174 203 -113 68 46
75 139 16 204 -42 45 -105 55 -154 24z"/>
</g>
</svg>
