<?xml version="1.0" standalone="no"?>
<!DOCTYPE svg PUBLIC "-//W3C//DTD SVG 20010904//EN"
 "http://www.w3.org/TR/2001/REC-SVG-20010904/DTD/svg10.dtd">
<svg version="1.0" xmlns="http://www.w3.org/2000/svg"
 width="192.000000pt" height="192.000000pt" viewBox="0 0 192.000000 192.000000"
 preserveAspectRatio="xMidYMid meet">
<metadata>
Created by potrace 1.16, written by Peter Selinger 2001-2019
</metadata>
<g transform="translate(0.000000,192.000000) scale(0.100000,-0.100000)"
fill="#000000" stroke="none">
811 c445 -92 729 -532 635 -987 -62 -301 -295 -546 -601 -630 -91 -26 -329
-26 -420 0 -291 80 -516 305 -596 596 -26 91 -26 329 0 420 120 433 542 692
982 601z"/>
<path d="M755 1282 c-152 -72 -232 -241 -191 -402 29 -114 112 -208 218 -246
53 -19 150 -22 209 -5 101 28 162 103 109 131 -19 10 -32 7 -85 -20 -50 -26
-74 -32 -124 -31 -252 1 -343 342 -127 476 39 23 63 30 118 33 63 4 75 1 134
-29 73 -36 96 -33 102 14 3 22 -5 32 -45 57 -61 39 -102 50 -188 50 -56 0 -82
-6 -130 -28z"/>
<path d="M1232 1208 c-17 -17 -15 -45 9 -108 30 -78 30 -184 -1 -279 -27 -83
-22 -106 26 -106 24 0 32 7 51 45 31 65 47 161 40 244 -6 70 -37 176 -58 202
-14 17 -51 18 -67 2z"/>
<path d="M828 1176 c-57 -21 -85 -42 -116 -88 -24 -37 -27 -51 -27 -124 0 -75
3 -86 30 -126 42 -61 122 -101 191 -96 105 9 192 90 202 188 7 73 -3 80 -107
80 -92 0 -111 -8 -111 -46 0 -31 19 -42 79 -46 l54 -3 -27 -32 c-94 -111 -268
-16 -221 121 17 50 41 74 86 87 31 10 46 8 87 -6 43 -16 53 -16 67 -5 25 21
15 61 -22 82 -42 25 -119 32 -165 14z"/>
<path d="M1135 1121 c-17 -20 -17 -23 0 -77 18 -58 15 -136 -6 -177 -22 -40
10 -85 51 -72 60 19 75 243 21 315 -24 32 -43 36 -66 11z"/>
</g>
</svg>
