<?xml version="1.0" standalone="no"?>
<!DOCTYPE svg PUBLIC "-//W3C//DTD SVG 20010904//EN"
 "http://www.w3.org/TR/2001/REC-SVG-20010904/DTD/svg10.dtd">
<svg version="1.0" xmlns="http://www.w3.org/2000/svg"
 width="192.000000pt" height="192.000000pt" viewBox="0 0 192.000000 192.000000"
 preserveAspectRatio="xMidYMid meet">
<metadata>
Created by potrace 1.16, written by Peter Selinger 2001-2019
</metadata>
<g transform="translate(0.000000,192.000000) scale(0.100000,-0.100000)"
fill="#000000" stroke="none">
811 c445 -92 729 -532 635 -987 -62 -301 -295 -546 -601 -630 -91 -26 -329
-26 -420 0 -291 80 -516 305 -596 596 -26 91 -26 329 0 420 120 433 542 692
982 601z"/>
<path d="M712 1329 c-49 -15 -107 -78 -120 -132 -15 -58 -16 -408 -1 -460 12
-44 59 -101 103 -125 27 -15 63 -17 261 -17 256 0 264 2 323 69 48 54 54 95
50 325 -3 236 -11 262 -87 316 l-43 30 -226 2 c-126 1 -242 -3 -260 -8z m63
-294 c14 -63 27 -87 65 -119 85 -71 203 -52 267 43 32 47 29 59 -14 63 -35 3
-38 6 -38 33 0 30 0 30 63 33 81 4 96 -7 88 -65 -7 -56 -36 -110 -78 -149 -55
-53 -95 -68 -173 -68 -78 0 -118 15 -173 68 -84 78 -110 225 -39 214 16 -2 23
-15 32 -53z"/>
</g>
</svg>
