<?xml version="1.0" standalone="no"?>
<!DOCTYPE svg PUBLIC "-//W3C//DTD SVG 20010904//EN"
 "http://www.w3.org/TR/2001/REC-SVG-20010904/DTD/svg10.dtd">
<svg version="1.0" xmlns="http://www.w3.org/2000/svg"
 width="192.000000pt" height="192.000000pt" viewBox="0 0 192.000000 192.000000"
 preserveAspectRatio="xMidYMid meet">
<metadata>
Created by potrace 1.16, written by Peter Selinger 2001-2019
</metadata>
<g transform="translate(0.000000,192.000000) scale(0.100000,-0.100000)"
fill="#000000" stroke="none">
811 c445 -92 729 -532 635 -987 -62 -301 -295 -546 -601 -630 -91 -26 -329
-26 -420 0 -291 80 -516 305 -596 596 -26 91 -26 329 0 420 120 433 542 692
982 601z"/>
<path d="M856 1319 c-3 -17 -6 -43 -6 -58 0 -20 -9 -31 -39 -47 l-38 -21 -47
24 c-26 13 -51 21 -56 18 -11 -7 -90 -144 -90 -156 0 -5 20 -24 45 -41 41 -29
45 -35 45 -74 0 -40 -4 -45 -45 -74 -25 -17 -45 -37 -45 -45 0 -17 79 -155 90
-155 4 0 28 9 54 20 43 20 47 20 78 4 45 -22 42 -18 48 -82 l5 -57 95 0 c77 0
95 3 97 15 1 8 4 36 8 61 5 42 10 48 44 64 37 16 40 16 79 -4 23 -12 46 -21
51 -21 6 0 31 35 56 78 l45 77 -45 41 c-39 35 -45 45 -45 80 1 34 6 43 45 72
25 18 45 37 45 43 0 13 -79 147 -91 155 -5 2 -29 -6 -55 -19 l-47 -24 -37 21
c-35 19 -38 24 -44 78 l-7 58 -93 0 -93 0 -7 -31z m157 -287 c30 -26 39 -60
27 -98 -22 -67 -100 -85 -151 -35 -83 84 36 213 124 133z"/>
</g>
</svg>
