<?xml version="1.0" standalone="no"?>
<!DOCTYPE svg PUBLIC "-//W3C//DTD SVG 20010904//EN"
 "http://www.w3.org/TR/2001/REC-SVG-20010904/DTD/svg10.dtd">
<svg version="1.0" xmlns="http://www.w3.org/2000/svg"
 width="192.000000pt" height="192.000000pt" viewBox="0 0 192.000000 192.000000"
 preserveAspectRatio="xMidYMid meet">
<metadata>
Created by potrace 1.16, written by Peter Selinger 2001-2019
</metadata>
<g transform="translate(0.000000,192.000000) scale(0.100000,-0.100000)"
fill="#000000" stroke="none">
811 c445 -92 729 -532 635 -987 -62 -301 -295 -546 -601 -630 -91 -26 -329
-26 -420 0 -291 80 -516 305 -596 596 -26 91 -26 329 0 420 120 433 542 692
982 601z"/>
<path d="M757 1292 c-14 -16 -17 -43 -17 -165 0 -137 -1 -147 -19 -147 -16 0
-19 9 -23 60 -2 34 -11 67 -19 74 -26 26 -55 27 -82 5 -25 -19 -27 -25 -27
-105 0 -76 -2 -84 -19 -84 -22 0 -45 -25 -36 -40 3 -5 15 -10 26 -10 17 0 19
-4 13 -22 -4 -13 -7 -45 -7 -72 1 -59 40 -120 95 -149 46 -23 125 -24 166 -3
69 36 112 126 94 197 -9 34 -7 38 15 48 13 6 30 11 38 11 8 0 25 -5 38 -11 22
-10 24 -14 15 -48 -18 -71 25 -161 94 -197 41 -21 120 -20 166 3 55 29 94 90
95 149 0 27 -3 59 -7 72 -6 18 -4 22 13 22 11 0 23 5 26 10 9 15 -14 40 -36
40 -17 0 -19 8 -19 80 0 73 -3 83 -25 105 -13 14 -31 25 -40 25 -9 0 -27 -11
-40 -25 -21 -20 -25 -34 -25 -80 0 -48 -2 -55 -20 -55 -19 0 -20 7 -20 145 0
132 -2 147 -20 165 -11 11 -31 20 -45 20 -14 0 -34 -9 -45 -20 -18 -18 -20
-33 -20 -196 0 -164 -1 -176 -17 -168 -23 11 -113 11 -135 0 -15 -7 -17 7 -20
167 -3 155 -5 177 -22 196 -24 26 -67 27 -89 3z"/>
</g>
</svg>
