<?xml version="1.0" standalone="no"?>
<!DOCTYPE svg PUBLIC "-//W3C//DTD SVG 20010904//EN"
 "http://www.w3.org/TR/2001/REC-SVG-20010904/DTD/svg10.dtd">
<svg version="1.0" xmlns="http://www.w3.org/2000/svg"
 width="192.000000pt" height="192.000000pt" viewBox="0 0 192.000000 192.000000"
 preserveAspectRatio="xMidYMid meet">
<metadata>
Created by potrace 1.16, written by Peter Selinger 2001-2019
</metadata>
<g transform="translate(0.000000,192.000000) scale(0.100000,-0.100000)"
fill="#000000" stroke="none">
811 c445 -92 729 -532 635 -987 -62 -301 -295 -546 -601 -630 -91 -26 -329
-26 -420 0 -291 80 -516 305 -596 596 -26 91 -26 329 0 420 120 433 542 692
982 601z"/>
<path d="M689 1365 c-48 -26 -50 -45 -47 -419 l3 -348 28 -24 28 -24 255 0
256 0 29 29 29 29 0 191 c0 237 3 231 -128 231 -118 0 -132 -10 -132 -94 0
-66 17 -96 53 -96 14 0 17 -10 17 -50 l0 -50 -125 0 -125 0 2 223 3 222 121 3
121 3 6 -29 c4 -17 16 -33 32 -40 37 -17 106 -15 133 4 20 14 22 24 22 104 0
80 -3 92 -24 117 l-24 28 -254 2 c-205 2 -258 0 -279 -12z"/>
</g>
</svg>
