<?xml version="1.0" standalone="no"?>
<!DOCTYPE svg PUBLIC "-//W3C//DTD SVG 20010904//EN"
 "http://www.w3.org/TR/2001/REC-SVG-20010904/DTD/svg10.dtd">
<svg version="1.0" xmlns="http://www.w3.org/2000/svg"
 width="225.000000pt" height="225.000000pt" viewBox="0 0 225.000000 225.000000"
 preserveAspectRatio="xMidYMid meet">
<metadata>
Created by potrace 1.16, written by Peter Selinger 2001-2019
</metadata>
<g transform="translate(0.000000,225.000000) scale(0.100000,-0.100000)"
fill="#000000" stroke="none">
-1125z m1306 806 c445 -92 729 -532 635 -987 -62 -301 -295 -546 -601 -630
-91 -26 -329 -26 -420 0 -291 80 -516 305 -596 596 -26 91 -26 329 0 420 120
433 542 692 982 601z"/>
<path d="M808 1383 c-79 -76 -98 -107 -98 -155 1 -47 10 -60 154 -217 189
-207 206 -221 263 -221 53 0 51 -2 279 246 164 177 169 215 45 338 -63 63 -73
69 -118 73 -58 6 -92 -9 -142 -61 -51 -53 -86 -50 -156 14 -51 46 -59 50 -106
50 -49 0 -53 -2 -121 -67z"/>
</g>
</svg>
