<?xml version="1.0" standalone="no"?>
<!DOCTYPE svg PUBLIC "-//W3C//DTD SVG 20010904//EN"
 "http://www.w3.org/TR/2001/REC-SVG-20010904/DTD/svg10.dtd">
<svg version="1.0" xmlns="http://www.w3.org/2000/svg"
 width="192.000000pt" height="192.000000pt" viewBox="0 0 192.000000 192.000000"
 preserveAspectRatio="xMidYMid meet">
<metadata>
Created by potrace 1.16, written by Peter Selinger 2001-2019
</metadata>
<g transform="translate(0.000000,192.000000) scale(0.100000,-0.100000)"
fill="#000000" stroke="none">
811 c445 -92 729 -532 635 -987 -62 -301 -295 -546 -601 -630 -91 -26 -329
-26 -420 0 -291 80 -516 305 -596 596 -26 91 -26 329 0 420 120 433 542 692
982 601z"/>
<path d="M665 1281 c-45 -28 -144 -136 -160 -175 -20 -47 -19 -94 3 -133 25
-46 368 -418 398 -432 32 -14 86 -14 118 0 30 14 373 386 399 432 38 70 16
139 -75 234 -74 76 -102 93 -158 93 -51 0 -72 -11 -132 -66 -25 -24 -58 -46
-72 -50 -34 -8 -80 11 -110 47 -57 67 -148 89 -211 50z"/>
</g>
</svg>
