<?xml version="1.0" standalone="no"?>
<!DOCTYPE svg PUBLIC "-//W3C//DTD SVG 20010904//EN"
 "http://www.w3.org/TR/2001/REC-SVG-20010904/DTD/svg10.dtd">
<svg version="1.0" xmlns="http://www.w3.org/2000/svg"
 width="192.000000pt" height="192.000000pt" viewBox="0 0 192.000000 192.000000"
 preserveAspectRatio="xMidYMid meet">
<metadata>
Created by potrace 1.16, written by Peter Selinger 2001-2019
</metadata>
<g transform="translate(0.000000,192.000000) scale(0.100000,-0.100000)"
fill="#000000" stroke="none">
811 c445 -92 729 -532 635 -987 -62 -301 -295 -546 -601 -630 -91 -26 -329
-26 -420 0 -291 80 -516 305 -596 596 -26 91 -26 329 0 420 120 433 542 692
982 601z"/>
<path d="M888 1380 c-160 -28 -287 -153 -324 -318 -74 -334 261 -606 563 -457
134 66 214 191 221 346 5 107 -12 173 -68 257 -87 130 -242 198 -392 172z
m-60 -262 c2 -20 -4 -50 -12 -67 -9 -16 -16 -50 -16 -76 0 -33 -4 -45 -15 -45
-19 0 -55 71 -55 109 0 62 39 124 74 119 16 -2 22 -12 24 -40z m186 20 c18
-25 21 -58 7 -58 -6 0 -11 -16 -13 -37 -4 -48 -42 -79 -80 -64 -40 15 -44 41
-8 69 25 20 30 30 30 68 0 40 2 44 24 44 14 0 32 -10 40 -22z m177 -85 c15
-39 6 -151 -14 -194 -39 -80 -122 -137 -211 -146 -64 -6 -131 16 -131 43 0 16
10 20 60 25 77 8 105 20 155 65 50 46 79 98 86 161 3 27 7 54 10 61 6 22 34
13 45 -15z"/>
</g>
</svg>
