<?xml version="1.0" standalone="no"?>
<!DOCTYPE svg PUBLIC "-//W3C//DTD SVG 20010904//EN"
 "http://www.w3.org/TR/2001/REC-SVG-20010904/DTD/svg10.dtd">
<svg version="1.0" xmlns="http://www.w3.org/2000/svg"
 width="192.000000pt" height="192.000000pt" viewBox="0 0 192.000000 192.000000"
 preserveAspectRatio="xMidYMid meet">
<metadata>
Created by potrace 1.16, written by Peter Selinger 2001-2019
</metadata>
<g transform="translate(0.000000,192.000000) scale(0.100000,-0.100000)"
fill="#000000" stroke="none">
811 c445 -92 729 -532 635 -987 -62 -301 -295 -546 -601 -630 -91 -26 -329
-26 -420 0 -291 80 -516 305 -596 596 -26 91 -26 329 0 420 120 433 542 692
982 601z"/>
<path d="M873 1349 c-10 -13 -45 -121 -40 -125 4 -3 435 -64 451 -64 48 0 -74
121 -164 164 -52 24 -81 31 -150 34 -64 3 -88 1 -97 -9z"/>
<path d="M755 1311 c-142 -81 -224 -252 -195 -405 15 -79 24 -92 72 -99 29 -4
38 -2 42 11 3 9 39 129 81 265 41 137 75 251 75 253 0 11 -30 1 -75 -25z"/>
<path d="M1178 924 c-1 -121 -1 -234 2 -253 l5 -33 53 56 c73 77 105 150 110
251 5 89 -10 160 -36 174 -9 5 -42 12 -74 16 l-56 7 -4 -218z"/>
<path d="M880 1108 c-83 -42 -113 -140 -68 -220 40 -71 124 -103 194 -73 113
47 146 166 70 253 -56 64 -121 77 -196 40z"/>
<path d="M610 762 c0 -4 20 -31 46 -59 32 -37 67 -63 121 -90 73 -36 82 -38
172 -38 69 0 109 5 144 18 46 18 47 20 47 61 l0 42 -247 37 c-263 39 -283 41
-283 29z"/>
</g>
</svg>
