<?xml version="1.0" standalone="no"?>
<!DOCTYPE svg PUBLIC "-//W3C//DTD SVG 20010904//EN"
 "http://www.w3.org/TR/2001/REC-SVG-20010904/DTD/svg10.dtd">
<svg version="1.0" xmlns="http://www.w3.org/2000/svg"
 width="192.000000pt" height="192.000000pt" viewBox="0 0 192.000000 192.000000"
 preserveAspectRatio="xMidYMid meet">
<metadata>
Created by potrace 1.16, written by Peter Selinger 2001-2019
</metadata>
<g transform="translate(0.000000,192.000000) scale(0.100000,-0.100000)"
fill="#000000" stroke="none">
811 c445 -92 729 -532 635 -987 -62 -301 -295 -546 -601 -630 -91 -26 -329
-26 -420 0 -291 80 -516 305 -596 596 -26 91 -26 329 0 420 120 433 542 692
982 601z"/>
<path d="M932 1368 c-5 -7 -26 -67 -45 -132 -24 -78 -44 -128 -60 -143 -15
-16 -66 -37 -147 -61 -184 -55 -186 -78 -12 -127 120 -34 165 -56 180 -89 6
-14 25 -74 42 -133 18 -59 37 -114 44 -121 24 -25 45 -1 66 72 42 144 61 194
80 211 11 10 77 35 147 56 69 21 130 44 134 51 15 25 -12 44 -93 67 -158 45
-187 59 -207 99 -10 20 -31 80 -46 132 -14 52 -31 102 -36 112 -11 21 -32 23
-47 6z"/>
<path d="M772 1329 c-65 -33 -135 -102 -171 -169 -36 -67 -38 -103 -4 -108 17
-3 26 7 46 51 34 76 86 129 163 169 50 26 64 37 62 53 -4 28 -44 30 -96 4z"/>
<path d="M1047 1343 c-20 -20 -4 -43 47 -66 69 -32 127 -90 166 -167 32 -63
51 -73 73 -39 15 24 -33 118 -92 178 -67 68 -170 119 -194 94z"/>
<path d="M577 873 c-24 -23 24 -125 91 -192 50 -50 149 -105 179 -99 10 2 19
13 21 25 3 18 -7 27 -54 49 -73 35 -133 95 -168 167 -25 54 -49 71 -69 50z"/>
<path d="M1286 873 c-4 -4 -15 -26 -26 -49 -27 -62 -96 -132 -163 -165 -47
-24 -58 -34 -55 -52 11 -80 211 53 272 182 16 32 26 66 23 75 -6 16 -38 22
-51 9z"/>
</g>
</svg>
