<?xml version="1.0" standalone="no"?>
<!DOCTYPE svg PUBLIC "-//W3C//DTD SVG 20010904//EN"
 "http://www.w3.org/TR/2001/REC-SVG-20010904/DTD/svg10.dtd">
<svg version="1.0" xmlns="http://www.w3.org/2000/svg"
 width="192.000000pt" height="192.000000pt" viewBox="0 0 192.000000 192.000000"
 preserveAspectRatio="xMidYMid meet">
<metadata>
Created by potrace 1.16, written by Peter Selinger 2001-2019
</metadata>
<g transform="translate(0.000000,192.000000) scale(0.100000,-0.100000)"
fill="#000000" stroke="none">
811 c445 -92 729 -532 635 -987 -62 -301 -295 -546 -601 -630 -91 -26 -329
-26 -420 0 -291 80 -516 305 -596 596 -26 91 -26 329 0 420 120 433 542 692
982 601z"/>
<path d="M690 1318 c-24 -13 -58 -40 -74 -61 -30 -37 -31 -43 -34 -153 l-4
-114 39 0 c40 0 40 0 56 58 9 31 27 70 40 86 l24 30 -28 39 c-27 38 -38 77
-21 77 4 0 13 -12 20 -27 7 -16 24 -36 38 -46 23 -17 27 -17 49 -3 14 9 32 30
40 46 16 31 42 43 31 14 -3 -9 -6 -19 -6 -24 0 -5 -12 -23 -26 -40 l-27 -31
30 -32 c27 -28 63 -86 63 -102 0 -3 -13 -5 -28 -5 -23 0 -30 6 -40 33 -12 34
-46 77 -61 77 -12 0 -47 -76 -55 -117 l-5 -33 109 0 110 0 0 175 0 175 -98 0
c-82 0 -105 -4 -142 -22z m105 -73 c0 -13 -8 -21 -22 -23 -17 -3 -23 2 -23 16
0 10 3 22 7 26 13 13 38 1 38 -19z"/>
<path d="M980 1301 c0 -25 5 -43 13 -45 6 -2 31 -9 54 -15 22 -6 52 -20 65
-30 21 -18 22 -21 7 -36 -14 -14 -19 -14 -60 4 -78 36 -79 36 -79 -84 l0 -105
105 0 c120 0 120 1 84 79 -18 41 -18 46 -4 60 15 15 18 14 36 -7 10 -13 24
-43 30 -65 6 -23 13 -48 15 -54 2 -8 20 -13 44 -13 l40 0 0 98 c0 118 -21 169
-89 217 -40 28 -49 30 -152 33 l-109 4 0 -41z"/>
<path d="M582 826 c3 -110 4 -116 34 -153 50 -63 101 -83 216 -83 l98 0 0 40
c0 38 -2 40 -42 51 -52 14 -118 46 -118 58 0 5 7 14 15 21 12 10 24 8 64 -9
82 -35 81 -36 81 84 l0 105 -110 0 -109 0 14 -45 c7 -25 19 -53 26 -61 10 -12
9 -19 -8 -35 l-20 -21 -21 34 c-11 18 -26 54 -32 81 -12 46 -13 47 -52 47
l-40 0 4 -114z"/>
<path d="M980 765 l0 -175 55 0 c30 0 55 1 55 3 0 1 -16 62 -34 135 l-34 133
24 11 c16 7 49 8 105 2 l81 -9 -22 -28 c-13 -17 -38 -31 -65 -38 -66 -17 -70
-26 -49 -113 10 -42 21 -81 25 -87 11 -18 84 -1 127 31 62 44 82 98 82 213 l0
97 -175 0 -175 0 0 -175z"/>
</g>
</svg>
