<?xml version="1.0" standalone="no"?>
<!DOCTYPE svg PUBLIC "-//W3C//DTD SVG 20010904//EN"
 "http://www.w3.org/TR/2001/REC-SVG-20010904/DTD/svg10.dtd">
<svg version="1.0" xmlns="http://www.w3.org/2000/svg"
 width="192.000000pt" height="192.000000pt" viewBox="0 0 192.000000 192.000000"
 preserveAspectRatio="xMidYMid meet">
<metadata>
Created by potrace 1.16, written by Peter Selinger 2001-2019
</metadata>
<g transform="translate(0.000000,192.000000) scale(0.100000,-0.100000)"
fill="#000000" stroke="none">
811 c445 -92 729 -532 635 -987 -62 -301 -295 -546 -601 -630 -91 -26 -329
-26 -420 0 -291 80 -516 305 -596 596 -26 91 -26 329 0 420 120 433 542 692
982 601z"/>
<path d="M717 1330 c-46 -14 -98 -60 -118 -104 -16 -36 -19 -68 -19 -252 0
-264 11 -302 103 -355 41 -23 48 -24 272 -24 224 0 231 1 272 24 92 53 103 91
103 355 0 200 -1 214 -22 256 -14 26 -41 57 -66 75 l-44 30 -226 2 c-125 1
-240 -2 -255 -7z m119 -211 c46 -29 84 -55 84 -59 0 -19 -52 -59 -84 -65 -79
-15 -143 66 -111 141 7 18 17 34 21 34 3 0 44 -23 90 -51z m354 -24 c0 -73
-84 -124 -148 -91 -27 14 -52 43 -52 60 0 3 37 28 83 56 l82 51 18 -22 c9 -12
17 -36 17 -54z m-323 -165 c24 -19 28 -19 47 -5 37 27 44 27 75 4 l31 -23 23
22 c29 27 39 27 63 1 14 -16 26 -19 51 -14 47 8 52 -14 15 -68 -45 -64 -59
-74 -79 -54 -15 14 -19 14 -48 -9 l-32 -24 -26 20 c-31 25 -33 25 -64 0 l-26
-20 -32 25 c-29 21 -35 23 -45 10 -19 -23 -26 -19 -71 40 -48 64 -47 89 4 80
25 -5 37 -2 51 14 24 26 31 26 63 1z"/>
</g>
</svg>
