<?xml version="1.0" standalone="no"?>
<!DOCTYPE svg PUBLIC "-//W3C//DTD SVG 20010904//EN"
 "http://www.w3.org/TR/2001/REC-SVG-20010904/DTD/svg10.dtd">
<svg version="1.0" xmlns="http://www.w3.org/2000/svg"
 width="192.000000pt" height="192.000000pt" viewBox="0 0 192.000000 192.000000"
 preserveAspectRatio="xMidYMid meet">
<metadata>
Created by potrace 1.16, written by Peter Selinger 2001-2019
</metadata>
<g transform="translate(0.000000,192.000000) scale(0.100000,-0.100000)"
fill="#000000" stroke="none">
811 c445 -92 729 -532 635 -987 -62 -301 -295 -546 -601 -630 -91 -26 -329
-26 -420 0 -291 80 -516 305 -596 596 -26 91 -26 329 0 420 120 433 542 692
982 601z"/>
<path d="M663 1319 c-70 -34 -83 -75 -83 -257 l0 -152 40 0 40 0 0 -40 0 -40
-40 0 -40 0 0 -57 c0 -80 29 -136 84 -162 39 -20 60 -21 291 -21 231 0 252 1
291 21 55 26 84 82 84 162 l0 57 -40 0 -40 0 0 40 0 40 40 0 40 0 0 152 c0
183 -13 223 -84 257 -39 20 -60 21 -292 21 -232 0 -252 -1 -291 -21z m194
-141 c49 -45 14 -128 -54 -128 -44 0 -73 30 -73 75 0 68 77 101 127 53z m310
0 c50 -47 17 -128 -52 -128 -45 0 -75 29 -75 72 0 68 78 102 127 56z m-257
-308 l0 -41 -82 3 -83 3 -3 38 -3 37 85 0 86 0 0 -40z m258 3 l-3 -38 -82 -3
-83 -3 0 41 0 40 86 0 85 0 -3 -37z"/>
</g>
</svg>
