<?xml version="1.0" standalone="no"?>
<!DOCTYPE svg PUBLIC "-//W3C//DTD SVG 20010904//EN"
 "http://www.w3.org/TR/2001/REC-SVG-20010904/DTD/svg10.dtd">
<svg version="1.0" xmlns="http://www.w3.org/2000/svg"
 width="192.000000pt" height="192.000000pt" viewBox="0 0 192.000000 192.000000"
 preserveAspectRatio="xMidYMid meet">
<metadata>
Created by potrace 1.16, written by Peter Selinger 2001-2019
</metadata>
<g transform="translate(0.000000,192.000000) scale(0.100000,-0.100000)"
fill="#000000" stroke="none">
811 c445 -92 729 -532 635 -987 -62 -301 -295 -546 -601 -630 -91 -26 -329
-26 -420 0 -291 80 -516 305 -596 596 -26 91 -26 329 0 420 120 433 542 692
982 601z"/>
<path d="M872 1351 c-22 -16 -43 -34 -47 -40 -3 -6 -27 -11 -53 -11 -52 0
-101 -25 -126 -62 -8 -13 -18 -50 -22 -83 -5 -46 -13 -67 -34 -90 -68 -74 -66
-139 4 -204 17 -16 26 -35 26 -55 1 -60 19 -111 50 -138 26 -24 39 -28 88 -28
52 0 61 -3 88 -31 16 -17 41 -37 56 -45 53 -28 107 -13 162 45 25 26 37 31 78
31 92 0 138 46 138 138 0 40 5 53 26 73 15 13 35 43 46 66 24 55 12 105 -37
153 -31 30 -35 40 -35 84 0 92 -56 146 -151 146 -35 0 -49 7 -85 40 -57 52
-110 55 -172 11z m187 -171 c133 -68 168 -245 71 -362 -80 -96 -242 -106 -334
-20 -63 60 -89 158 -65 247 14 53 101 138 155 153 50 14 127 6 173 -18z"/>
<path d="M891 1083 c-50 -25 -73 -68 -68 -126 7 -82 83 -138 160 -116 115 31
130 200 22 245 -44 18 -72 17 -114 -3z"/>
</g>
</svg>
