<?xml version="1.0" standalone="no"?>
<!DOCTYPE svg PUBLIC "-//W3C//DTD SVG 20010904//EN"
 "http://www.w3.org/TR/2001/REC-SVG-20010904/DTD/svg10.dtd">
<svg version="1.0" xmlns="http://www.w3.org/2000/svg"
 width="192.000000pt" height="192.000000pt" viewBox="0 0 192.000000 192.000000"
 preserveAspectRatio="xMidYMid meet">
<metadata>
Created by potrace 1.16, written by Peter Selinger 2001-2019
</metadata>
<g transform="translate(0.000000,192.000000) scale(0.100000,-0.100000)"
fill="#000000" stroke="none">
811 c445 -92 729 -532 635 -987 -62 -301 -295 -546 -601 -630 -91 -26 -329
-26 -420 0 -291 80 -516 305 -596 596 -26 91 -26 329 0 420 120 433 542 692
982 601z"/>
<path d="M894 1370 c-194 -28 -344 -206 -344 -408 0 -76 12 -96 52 -90 21 3
23 9 29 89 13 193 129 316 309 327 61 3 86 0 135 -19 117 -44 210 -176 203
-286 l-3 -44 -63 76 c-44 51 -71 75 -86 75 -15 0 -48 -31 -110 -105 -49 -58
-97 -105 -105 -105 -9 0 -37 20 -61 45 -26 26 -52 45 -62 43 -22 -4 -178 -186
-178 -209 0 -44 114 -147 199 -180 246 -92 509 61 550 322 44 271 -191 507
-465 469z"/>
</g>
</svg>
