<?xml version="1.0" standalone="no"?>
<!DOCTYPE svg PUBLIC "-//W3C//DTD SVG 20010904//EN"
 "http://www.w3.org/TR/2001/REC-SVG-20010904/DTD/svg10.dtd">
<svg version="1.0" xmlns="http://www.w3.org/2000/svg"
 width="192.000000pt" height="192.000000pt" viewBox="0 0 192.000000 192.000000"
 preserveAspectRatio="xMidYMid meet">
<metadata>
Created by potrace 1.16, written by Peter Selinger 2001-2019
</metadata>
<g transform="translate(0.000000,192.000000) scale(0.100000,-0.100000)"
fill="#000000" stroke="none">
811 c445 -92 729 -532 635 -987 -62 -301 -295 -546 -601 -630 -91 -26 -329
-26 -420 0 -291 80 -516 305 -596 596 -26 91 -26 329 0 420 120 433 542 692
982 601z"/>
<path d="M870 1357 c-205 -47 -335 -238 -308 -451 33 -256 314 -412 554 -307
40 18 40 18 68 -5 38 -34 72 -40 113 -20 65 31 77 113 24 171 -19 20 -19 21 5
90 100 295 -157 590 -456 522z m-20 -132 c0 -17 -9 -29 -30 -40 -17 -9 -47
-38 -66 -65 -39 -54 -45 -58 -64 -35 -19 23 4 68 62 120 58 52 98 60 98 20z
m377 -130 c12 -8 29 -35 38 -59 55 -144 -122 -377 -306 -402 -124 -17 -200 76
-121 148 42 36 77 36 135 -3 42 -28 50 -30 80 -20 41 14 83 56 98 99 10 29 8
37 -20 79 -46 69 -40 127 17 157 35 19 52 20 79 1z"/>
</g>
</svg>
