<?xml version="1.0" standalone="no"?>
<!DOCTYPE svg PUBLIC "-//W3C//DTD SVG 20010904//EN"
 "http://www.w3.org/TR/2001/REC-SVG-20010904/DTD/svg10.dtd">
<svg version="1.0" xmlns="http://www.w3.org/2000/svg"
 width="192.000000pt" height="192.000000pt" viewBox="0 0 192.000000 192.000000"
 preserveAspectRatio="xMidYMid meet">
<metadata>
Created by potrace 1.16, written by Peter Selinger 2001-2019
</metadata>
<g transform="translate(0.000000,192.000000) scale(0.100000,-0.100000)"
fill="#000000" stroke="none">
811 c445 -92 729 -532 635 -987 -62 -301 -295 -546 -601 -630 -91 -26 -329
-26 -420 0 -291 80 -516 305 -596 596 -26 91 -26 329 0 420 120 433 542 692
982 601z"/>
<path d="M690 1318 c-26 -14 -57 -41 -75 -66 l-30 -44 0 -236 c0 -234 0 -238
25 -280 15 -27 42 -54 70 -70 l45 -27 230 0 230 0 45 27 c28 16 55 43 70 70
25 42 25 46 25 280 l0 236 -30 44 c-18 25 -49 52 -75 66 -42 21 -56 22 -265
22 -209 0 -223 -1 -265 -22z m165 -104 c-89 -147 -60 -305 66 -368 63 -31 120
-34 171 -8 l36 19 -15 -51 c-8 -28 -22 -59 -30 -68 -50 -56 -188 -31 -274 49
-24 22 -27 22 -40 7 -15 -18 -18 -79 -5 -106 15 -32 -33 -21 -70 16 l-34 34 0
222 c0 191 2 226 17 251 24 41 67 59 145 59 l67 0 -34 -56z m277 -28 c24 -14
48 -67 48 -103 -1 -40 -34 -109 -63 -128 -82 -53 -177 -3 -177 94 0 45 47 127
83 145 33 16 75 13 109 -8z"/>
</g>
</svg>
