<?xml version="1.0" standalone="no"?>
<!DOCTYPE svg PUBLIC "-//W3C//DTD SVG 20010904//EN"
 "http://www.w3.org/TR/2001/REC-SVG-20010904/DTD/svg10.dtd">
<svg version="1.0" xmlns="http://www.w3.org/2000/svg"
 width="192.000000pt" height="192.000000pt" viewBox="0 0 192.000000 192.000000"
 preserveAspectRatio="xMidYMid meet">
<metadata>
Created by potrace 1.16, written by Peter Selinger 2001-2019
</metadata>
<g transform="translate(0.000000,192.000000) scale(0.100000,-0.100000)"
fill="#000000" stroke="none">
811 c445 -92 729 -532 635 -987 -62 -301 -295 -546 -601 -630 -91 -26 -329
-26 -420 0 -291 80 -516 305 -596 596 -26 91 -26 329 0 420 120 433 542 692
982 601z"/>
<path d="M870 1360 c-10 -10 -28 -37 -39 -59 -30 -58 -54 -71 -132 -71 -74 0
-81 -5 -123 -84 l-26 -49 35 -64 c19 -35 35 -71 35 -81 0 -9 -14 -39 -30 -67
-16 -27 -30 -61 -30 -74 0 -28 49 -118 70 -128 8 -4 49 -9 90 -12 l75 -6 33
-55 c18 -30 37 -56 42 -58 6 -2 10 37 10 100 l0 103 -36 29 c-76 61 -93 166
-40 246 43 65 86 49 86 -31 0 -42 3 -49 32 -67 32 -20 32 -20 69 -1 37 18 38
21 41 76 3 51 6 58 25 61 29 4 74 -63 80 -121 7 -57 -23 -125 -71 -163 l-36
-29 0 -103 c0 -63 4 -102 10 -100 5 2 24 28 42 58 l33 55 75 6 c41 3 82 8 90
12 21 10 70 100 70 128 0 13 -14 47 -30 74 -16 28 -30 58 -30 67 0 10 16 46
35 81 l35 64 -26 49 c-42 79 -49 84 -123 84 -78 0 -102 13 -132 71 -35 69 -51
79 -124 79 -51 0 -69 -4 -85 -20z"/>
</g>
</svg>
