<?xml version="1.0" standalone="no"?>
<!DOCTYPE svg PUBLIC "-//W3C//DTD SVG 20010904//EN"
 "http://www.w3.org/TR/2001/REC-SVG-20010904/DTD/svg10.dtd">
<svg version="1.0" xmlns="http://www.w3.org/2000/svg"
 width="192.000000pt" height="192.000000pt" viewBox="0 0 192.000000 192.000000"
 preserveAspectRatio="xMidYMid meet">
<metadata>
Created by potrace 1.16, written by Peter Selinger 2001-2019
</metadata>
<g transform="translate(0.000000,192.000000) scale(0.100000,-0.100000)"
fill="#000000" stroke="none">
811 c445 -92 729 -532 635 -987 -62 -301 -295 -546 -601 -630 -91 -26 -329
-26 -420 0 -291 80 -516 305 -596 596 -26 91 -26 329 0 420 120 433 542 692
982 601z"/>
<path d="M864 1366 c-104 -26 -186 -94 -241 -198 l-28 -53 -3 -236 -3 -237 31
-35 c55 -63 138 -72 198 -22 29 24 30 24 46 6 44 -49 122 -51 171 -6 l27 25
29 -24 c71 -60 173 -37 218 51 7 14 11 95 11 228 0 229 -8 270 -70 360 -81
117 -245 178 -386 141z m18 -253 c28 -25 24 -88 -7 -109 -23 -15 -27 -15 -50
0 -19 13 -25 25 -25 53 0 61 43 91 82 56z m208 2 c20 -24 17 -95 -5 -112 -40
-29 -75 -2 -75 57 0 60 49 93 80 55z m-240 -200 c31 -33 82 -48 135 -41 40 6
44 5 47 -16 3 -19 6 -15 16 18 22 77 62 84 62 11 -1 -117 -120 -191 -226 -141
-45 21 -84 87 -84 141 0 60 13 67 50 28z"/>
</g>
</svg>
