<?xml version="1.0" standalone="no"?>
<!DOCTYPE svg PUBLIC "-//W3C//DTD SVG 20010904//EN"
 "http://www.w3.org/TR/2001/REC-SVG-20010904/DTD/svg10.dtd">
<svg version="1.0" xmlns="http://www.w3.org/2000/svg"
 width="192.000000pt" height="192.000000pt" viewBox="0 0 192.000000 192.000000"
 preserveAspectRatio="xMidYMid meet">
<metadata>
Created by potrace 1.16, written by Peter Selinger 2001-2019
</metadata>
<g transform="translate(0.000000,192.000000) scale(0.100000,-0.100000)"
fill="#000000" stroke="none">
811 c445 -92 729 -532 635 -987 -62 -301 -295 -546 -601 -630 -91 -26 -329
-26 -420 0 -291 80 -516 305 -596 596 -26 91 -26 329 0 420 120 433 542 692
982 601z"/>
<path d="M695 1323 c-46 -24 -76 -54 -96 -98 -16 -35 -19 -68 -19 -261 0 -212
1 -223 23 -265 13 -24 43 -57 66 -74 l43 -30 243 0 243 0 43 30 c23 17 53 50
66 74 22 42 23 53 23 263 0 233 -5 265 -53 317 -50 55 -83 61 -327 60 -186 0
-230 -3 -255 -16z m110 -168 c22 -21 25 -33 25 -90 0 -57 -3 -69 -25 -90 -27
-28 -75 -34 -75 -10 0 8 8 15 18 15 19 0 42 18 42 32 0 4 -16 8 -35 8 -46 0
-85 37 -85 80 0 19 9 40 25 55 15 16 36 25 55 25 19 0 40 -9 55 -25z m65 -56
c0 -60 -3 -80 -12 -77 -8 3 -14 28 -16 68 -3 67 1 90 18 90 6 0 10 -32 10 -81z
m141 68 c27 -21 39 -54 39 -107 0 -44 -5 -56 -29 -81 -30 -29 -55 -37 -66 -19
-3 5 8 16 25 25 41 21 38 35 -7 35 -51 0 -83 32 -83 81 0 29 6 42 26 58 30 23
71 27 95 8z m184 -12 c21 -20 25 -34 25 -80 l0 -55 -55 0 c-67 0 -105 29 -105
80 0 19 9 40 25 55 15 16 36 25 55 25 19 0 40 -9 55 -25z m-257 -287 c-2 -67
-7 -113 -13 -113 -6 0 -11 46 -13 113 -2 96 0 112 13 112 13 0 15 -16 13 -112z
m152 97 c0 -8 -8 -15 -18 -15 -25 0 -42 -19 -42 -47 0 -19 5 -23 31 -23 38 0
35 -24 -4 -28 -23 -3 -26 -8 -29 -49 -2 -26 -9 -48 -15 -51 -10 -3 -13 19 -13
89 0 81 3 96 22 116 24 26 68 31 68 8z m-110 -136 c0 -60 -3 -80 -12 -77 -13
5 -24 128 -14 155 13 34 26 -4 26 -78z m250 65 c12 -12 9 -20 -29 -58 -42 -43
-43 -69 -2 -46 44 23 58 1 16 -26 -48 -31 -115 9 -115 69 1 71 80 108 130 61z"/>
<path d="M717 1132 c-35 -38 -9 -82 49 -82 32 0 34 2 34 33 0 57 -50 86 -83
49z"/>
<path d="M938 1139 c-21 -12 -24 -59 -6 -77 7 -7 29 -12 50 -12 35 0 38 2 38
28 0 56 -40 86 -82 61z"/>
<path d="M1107 1132 c-35 -38 -9 -82 49 -82 32 0 34 2 34 34 0 59 -49 86 -83
48z"/>
<path d="M1151 874 c-20 -15 -30 -54 -13 -54 5 0 21 13 36 29 21 22 24 30 13
34 -8 3 -24 -1 -36 -9z"/>
</g>
</svg>
