<?xml version="1.0" standalone="no"?>
<!DOCTYPE svg PUBLIC "-//W3C//DTD SVG 20010904//EN"
 "http://www.w3.org/TR/2001/REC-SVG-20010904/DTD/svg10.dtd">
<svg version="1.0" xmlns="http://www.w3.org/2000/svg"
 width="192.000000pt" height="192.000000pt" viewBox="0 0 192.000000 192.000000"
 preserveAspectRatio="xMidYMid meet">
<metadata>
Created by potrace 1.16, written by Peter Selinger 2001-2019
</metadata>
<g transform="translate(0.000000,192.000000) scale(0.100000,-0.100000)"
fill="#000000" stroke="none">
811 c445 -92 729 -532 635 -987 -62 -301 -295 -546 -601 -630 -91 -26 -329
-26 -420 0 -291 80 -516 305 -596 596 -26 91 -26 329 0 420 120 433 542 692
982 601z"/>
<path d="M695 1324 c-45 -23 -76 -55 -96 -99 -16 -35 -19 -68 -19 -260 0 -209
1 -223 23 -265 12 -24 39 -58 60 -74 l39 -31 238 -3 c208 -3 243 -1 272 14 47
23 67 43 91 89 19 36 22 60 25 221 4 207 0 224 -53 224 -33 0 -35 2 -35 36 0
58 -14 74 -65 74 -44 0 -45 1 -45 33 0 18 -5 38 -12 45 -20 20 -384 16 -423
-4z m277 -221 l3 -108 108 -3 107 -3 0 -116 c0 -163 16 -153 -237 -153 -190 0
-204 1 -223 20 -19 19 -20 33 -20 225 0 258 -8 245 150 245 l109 0 3 -107z"/>
</g>
</svg>
