<?xml version="1.0" standalone="no"?>
<!DOCTYPE svg PUBLIC "-//W3C//DTD SVG 20010904//EN"
 "http://www.w3.org/TR/2001/REC-SVG-20010904/DTD/svg10.dtd">
<svg version="1.0" xmlns="http://www.w3.org/2000/svg"
 width="192.000000pt" height="192.000000pt" viewBox="0 0 192.000000 192.000000"
 preserveAspectRatio="xMidYMid meet">
<metadata>
Created by potrace 1.16, written by Peter Selinger 2001-2019
</metadata>
<g transform="translate(0.000000,192.000000) scale(0.100000,-0.100000)"
fill="#000000" stroke="none">
811 c445 -92 729 -532 635 -987 -62 -301 -295 -546 -601 -630 -91 -26 -329
-26 -420 0 -291 80 -516 305 -596 596 -26 91 -26 329 0 420 120 433 542 692
982 601z"/>
<path d="M689 1353 c-6 -16 -9 -50 -6 -78 4 -39 0 -55 -17 -78 -18 -25 -21
-43 -21 -125 0 -87 3 -102 27 -143 29 -50 99 -95 166 -107 l38 -7 -18 -42
c-18 -41 -20 -43 -64 -43 -28 0 -43 -4 -39 -10 3 -5 2 -10 -3 -10 -5 0 -12 9
-15 20 -3 11 -10 20 -17 20 -6 0 -8 -4 -5 -10 3 -5 1 -10 -5 -10 -6 0 -10 6
-9 13 3 26 -2 36 -32 66 -21 21 -40 31 -61 31 l-31 0 39 -44 c22 -24 48 -59
59 -77 26 -43 58 -59 123 -59 51 0 52 0 52 -30 0 -19 9 -40 25 -55 22 -23 32
-25 107 -25 86 1 106 8 126 47 16 30 14 129 -3 178 -8 21 -13 40 -12 40 1 0
25 6 52 13 106 26 167 97 181 210 7 61 -5 126 -33 168 -11 18 -16 43 -14 80 3
66 -5 94 -27 94 -9 0 -45 -13 -79 -29 -52 -25 -67 -28 -100 -20 -49 11 -137
11 -186 0 -32 -8 -46 -5 -95 20 -71 36 -90 36 -103 2z m191 -308 c0 -81 123
-123 186 -64 30 28 30 35 -2 43 -40 10 -23 31 27 31 36 0 44 -3 47 -20 8 -64
-92 -133 -176 -120 -60 9 -122 67 -122 114 0 24 4 31 20 31 11 0 20 -7 20 -15z
m-190 -275 c0 -5 -2 -10 -4 -10 -3 0 -8 5 -11 10 -3 6 -1 10 4 10 6 0 11 -4
11 -10z m110 -60 c0 -5 -4 -10 -10 -10 -5 0 -10 5 -10 10 0 6 5 10 10 10 6 0
10 -4 10 -10z"/>
</g>
</svg>
