<?xml version="1.0" standalone="no"?>
<!DOCTYPE svg PUBLIC "-//W3C//DTD SVG 20010904//EN"
 "http://www.w3.org/TR/2001/REC-SVG-20010904/DTD/svg10.dtd">
<svg version="1.0" xmlns="http://www.w3.org/2000/svg"
 width="192.000000pt" height="192.000000pt" viewBox="0 0 192.000000 192.000000"
 preserveAspectRatio="xMidYMid meet">
<metadata>
Created by potrace 1.16, written by Peter Selinger 2001-2019
</metadata>
<g transform="translate(0.000000,192.000000) scale(0.100000,-0.100000)"
fill="#000000" stroke="none">
811 c445 -92 729 -532 635 -987 -62 -301 -295 -546 -601 -630 -91 -26 -329
-26 -420 0 -291 80 -516 305 -596 596 -26 91 -26 329 0 420 120 433 542 692
982 601z"/>
<path d="M857 1363 c-4 -3 -7 -71 -7 -150 l0 -143 -106 0 c-58 0 -114 -4 -124
-10 -21 -11 -75 -162 -66 -185 4 -12 32 -15 151 -15 l145 0 0 -106 c0 -58 4
-114 10 -124 11 -21 162 -75 185 -66 12 4 15 32 15 151 l0 145 110 0 c131 0
134 2 169 106 36 106 38 104 -134 104 l-145 0 0 108 c0 71 -4 114 -12 125 -7
9 -46 28 -87 42 -79 26 -94 29 -104 18z m116 -403 c-3 -11 -11 -16 -23 -13
-11 3 -16 11 -13 23 3 11 11 16 23 13 11 -3 16 -11 13 -23z"/>
</g>
</svg>
