<?xml version="1.0" standalone="no"?>
<!DOCTYPE svg PUBLIC "-//W3C//DTD SVG 20010904//EN"
 "http://www.w3.org/TR/2001/REC-SVG-20010904/DTD/svg10.dtd">
<svg version="1.0" xmlns="http://www.w3.org/2000/svg"
 width="192.000000pt" height="192.000000pt" viewBox="0 0 192.000000 192.000000"
 preserveAspectRatio="xMidYMid meet">
<metadata>
Created by potrace 1.16, written by Peter Selinger 2001-2019
</metadata>
<g transform="translate(0.000000,192.000000) scale(0.100000,-0.100000)"
fill="#000000" stroke="none">
811 c445 -92 729 -532 635 -987 -62 -301 -295 -546 -601 -630 -91 -26 -329
-26 -420 0 -291 80 -516 305 -596 596 -26 91 -26 329 0 420 120 433 542 692
982 601z"/>
<path d="M798 1355 c-72 -18 -133 -49 -164 -82 -28 -30 -32 -87 -10 -119 13
-18 13 -27 0 -69 -18 -63 -18 -198 1 -262 22 -75 86 -165 148 -207 211 -144
470 -17 527 259 13 63 8 160 -11 215 -9 25 -8 39 6 70 22 50 14 84 -30 126
-55 52 -140 75 -285 80 -88 2 -142 -1 -182 -11z m335 -85 c67 -21 103 -49 94
-74 -8 -20 -74 -53 -133 -66 -103 -23 -283 -10 -356 26 -72 37 -69 68 12 103
103 44 261 49 383 11z m-56 -276 c3 -8 -2 -23 -11 -32 -14 -15 -18 -15 -31 -1
-9 9 -13 23 -9 32 8 21 43 22 51 1z m-198 -18 c15 -18 3 -46 -20 -46 -25 0
-35 26 -19 45 15 19 24 19 39 1z m95 -72 c21 -8 21 -43 0 -51 -8 -3 -23 1 -31
10 -13 13 -14 19 -3 31 14 18 13 18 34 10z m174 -31 c-2 -10 -10 -18 -18 -18
-8 0 -16 8 -18 18 -2 12 3 17 18 17 15 0 20 -5 18 -17z m-352 -28 c-5 -14 -9
-15 -21 -5 -12 10 -13 16 -4 27 15 18 34 1 25 -22z m100 -40 c-3 -9 -14 -15
-23 -13 -22 4 -30 38 -11 49 18 11 43 -15 34 -36z m202 -28 c4 -21 -27 -35
-38 -17 -12 19 0 42 19 38 9 -2 17 -11 19 -21z m-122 -58 c3 -6 0 -18 -9 -26
-18 -18 -37 -9 -37 18 0 21 34 27 46 8z"/>
</g>
</svg>
