<?xml version="1.0" standalone="no"?>
<!DOCTYPE svg PUBLIC "-//W3C//DTD SVG 20010904//EN"
 "http://www.w3.org/TR/2001/REC-SVG-20010904/DTD/svg10.dtd">
<svg version="1.0" xmlns="http://www.w3.org/2000/svg"
 width="192.000000pt" height="192.000000pt" viewBox="0 0 192.000000 192.000000"
 preserveAspectRatio="xMidYMid meet">
<metadata>
Created by potrace 1.16, written by Peter Selinger 2001-2019
</metadata>
<g transform="translate(0.000000,192.000000) scale(0.100000,-0.100000)"
fill="#000000" stroke="none">
811 c445 -92 729 -532 635 -987 -62 -301 -295 -546 -601 -630 -91 -26 -329
-26 -420 0 -291 80 -516 305 -596 596 -26 91 -26 329 0 420 120 433 542 692
982 601z"/>
<path d="M828 1351 c-31 -10 -72 -28 -91 -40 -54 -33 -126 -116 -155 -179 -27
-56 -27 -61 -30 -292 l-3 -235 26 -25 c25 -24 33 -25 174 -28 271 -7 381 20
486 119 112 106 153 265 107 415 -66 213 -299 333 -514 265z m266 -100 c66
-33 122 -91 155 -160 34 -73 36 -191 4 -262 -96 -214 -376 -263 -533 -93 -65
70 -85 123 -85 224 0 70 4 94 25 135 33 67 108 139 172 164 74 29 193 25 262
-8z"/>
<path d="M845 1189 c-22 -11 -54 -33 -72 -51 -31 -30 -80 -125 -69 -135 3 -3
27 -9 53 -14 26 -5 80 -25 120 -43 l72 -35 36 48 c42 58 102 114 145 136 l32
17 -23 25 c-64 69 -209 95 -294 52z"/>
<path d="M1117 1047 c-26 -18 -68 -60 -93 -93 l-46 -59 32 -13 c89 -36 176
-34 191 5 19 52 2 181 -27 190 -5 2 -31 -12 -57 -30z"/>
<path d="M700 938 c0 -76 56 -161 132 -204 45 -24 64 -29 123 -29 81 1 129 21
184 79 l35 36 -40 0 c-58 0 -107 16 -230 76 -62 30 -133 57 -158 60 -44 6 -46
6 -46 -18z"/>
</g>
</svg>
