<?xml version="1.0" standalone="no"?>
<!DOCTYPE svg PUBLIC "-//W3C//DTD SVG 20010904//EN"
 "http://www.w3.org/TR/2001/REC-SVG-20010904/DTD/svg10.dtd">
<svg version="1.0" xmlns="http://www.w3.org/2000/svg"
 width="192.000000pt" height="192.000000pt" viewBox="0 0 192.000000 192.000000"
 preserveAspectRatio="xMidYMid meet">
<metadata>
Created by potrace 1.16, written by Peter Selinger 2001-2019
</metadata>
<g transform="translate(0.000000,192.000000) scale(0.100000,-0.100000)"
fill="#000000" stroke="none">
811 c445 -92 729 -532 635 -987 -62 -301 -295 -546 -601 -630 -91 -26 -329
-26 -420 0 -291 80 -516 305 -596 596 -26 91 -26 329 0 420 120 433 542 692
982 601z"/>
<path d="M692 1319 c-51 -25 -86 -68 -101 -124 -6 -22 -11 -102 -11 -178 0
-167 11 -196 71 -197 52 0 59 22 59 187 0 137 2 153 21 177 l20 26 263 0 c294
0 306 3 306 64 0 65 -5 66 -311 66 -259 0 -276 -1 -317 -21z"/>
<path d="M1216 1078 c-13 -18 -16 -53 -16 -175 0 -146 -1 -153 -22 -167 -19
-14 -64 -16 -288 -16 -266 0 -267 0 -288 -23 -27 -29 -28 -61 -2 -87 19 -19
33 -20 300 -20 217 0 288 3 313 14 39 17 92 71 106 109 6 16 11 101 11 191 0
145 -2 165 -18 179 -27 25 -78 22 -96 -5z"/>
</g>
</svg>
