<?xml version="1.0" standalone="no"?>
<!DOCTYPE svg PUBLIC "-//W3C//DTD SVG 20010904//EN"
 "http://www.w3.org/TR/2001/REC-SVG-20010904/DTD/svg10.dtd">
<svg version="1.0" xmlns="http://www.w3.org/2000/svg"
 width="192.000000pt" height="192.000000pt" viewBox="0 0 192.000000 192.000000"
 preserveAspectRatio="xMidYMid meet">
<metadata>
Created by potrace 1.16, written by Peter Selinger 2001-2019
</metadata>
<g transform="translate(0.000000,192.000000) scale(0.100000,-0.100000)"
fill="#000000" stroke="none">
811 c445 -92 729 -532 635 -987 -62 -301 -295 -546 -601 -630 -91 -26 -329
-26 -420 0 -291 80 -516 305 -596 596 -26 91 -26 329 0 420 120 433 542 692
982 601z"/>
<path d="M685 1326 c-36 -15 -92 -77 -100 -109 -3 -12 -5 -133 -3 -268 l3
-246 28 -36 c53 -70 63 -72 337 -72 279 0 300 5 348 78 27 40 27 41 30 271 4
242 -1 282 -40 331 -46 58 -79 65 -338 64 -172 0 -243 -3 -265 -13z m299 -247
c39 -23 81 -51 94 -62 27 -25 30 -77 5 -99 -32 -28 -177 -108 -196 -108 -10 0
-29 11 -42 25 -23 22 -25 31 -25 128 0 90 3 108 21 131 29 37 60 33 143 -15z"/>
</g>
</svg>
