<?xml version="1.0" standalone="no"?>
<!DOCTYPE svg PUBLIC "-//W3C//DTD SVG 20010904//EN"
 "http://www.w3.org/TR/2001/REC-SVG-20010904/DTD/svg10.dtd">
<svg version="1.0" xmlns="http://www.w3.org/2000/svg"
 width="192.000000pt" height="192.000000pt" viewBox="0 0 192.000000 192.000000"
 preserveAspectRatio="xMidYMid meet">
<metadata>
Created by potrace 1.16, written by Peter Selinger 2001-2019
</metadata>
<g transform="translate(0.000000,192.000000) scale(0.100000,-0.100000)"
fill="#000000" stroke="none">
811 c445 -92 729 -532 635 -987 -62 -301 -295 -546 -601 -630 -91 -26 -329
-26 -420 0 -291 80 -516 305 -596 596 -26 91 -26 329 0 420 120 433 542 692
982 601z"/>
<path d="M887 1380 c-61 -16 -110 -45 -155 -94 -36 -39 -41 -49 -32 -66 16
-29 26 -25 87 30 29 27 71 54 91 60 127 35 250 -24 303 -146 20 -47 30 -57 53
-48 38 15 -2 120 -71 186 -69 67 -187 100 -276 78z"/>
<path d="M888 1281 c-41 -13 -97 -50 -108 -71 -26 -49 26 -67 71 -24 59 57
165 40 210 -33 22 -36 44 -40 62 -12 15 24 -25 84 -77 114 -47 28 -117 39
-158 26z"/>
<path d="M673 1146 c-27 -24 -28 -27 -31 -140 -4 -112 -3 -116 22 -141 31 -31
83 -33 117 -6 22 18 24 28 27 126 5 129 0 150 -38 170 -41 21 -64 19 -97 -9z
m67 -147 c0 -76 -3 -100 -12 -97 -9 3 -14 35 -16 101 -2 82 0 97 13 97 12 0
15 -17 15 -101z"/>
<path d="M876 1089 c-25 -30 -27 -37 -24 -123 3 -90 3 -91 28 -91 24 0 25 3
30 82 5 84 17 110 44 100 13 -5 16 -27 16 -130 0 -136 11 -173 47 -151 16 10
18 28 21 146 3 134 2 136 -24 167 -21 26 -33 31 -69 31 -36 0 -48 -5 -69 -31z"/>
<path d="M1084 1075 c-15 -38 2 -45 101 -45 76 0 97 3 101 15 13 33 -15 45
-108 45 -70 0 -90 -3 -94 -15z"/>
<path d="M1104 987 c-32 -28 -36 -72 -10 -111 16 -25 21 -26 105 -26 73 0 90
3 95 16 12 31 -13 44 -85 44 -52 0 -69 3 -69 14 0 18 22 26 71 26 38 0 40 2
37 28 -3 25 -6 27 -59 30 -48 2 -61 -1 -85 -21z"/>
<path d="M661 816 c-21 -25 13 -108 70 -170 146 -160 396 -126 495 67 30 57
29 102 -1 102 -14 0 -28 -16 -47 -55 -33 -66 -92 -122 -146 -138 -53 -16 -125
-15 -166 2 -51 21 -110 80 -130 128 -27 65 -32 73 -48 76 -8 2 -20 -4 -27 -12z"/>
<path d="M773 813 c-21 -8 -15 -50 12 -81 78 -93 231 -94 308 -2 31 36 32 57
4 74 -15 9 -22 6 -39 -17 -27 -37 -73 -59 -119 -59 -44 1 -94 24 -109 52 -12
23 -40 39 -57 33z"/>
</g>
</svg>
