<?xml version="1.0" standalone="no"?>
<!DOCTYPE svg PUBLIC "-//W3C//DTD SVG 20010904//EN"
 "http://www.w3.org/TR/2001/REC-SVG-20010904/DTD/svg10.dtd">
<svg version="1.0" xmlns="http://www.w3.org/2000/svg"
 width="192.000000pt" height="192.000000pt" viewBox="0 0 192.000000 192.000000"
 preserveAspectRatio="xMidYMid meet">
<metadata>
Created by potrace 1.16, written by Peter Selinger 2001-2019
</metadata>
<g transform="translate(0.000000,192.000000) scale(0.100000,-0.100000)"
fill="#000000" stroke="none">
811 c445 -92 729 -532 635 -987 -62 -301 -295 -546 -601 -630 -91 -26 -329
-26 -420 0 -291 80 -516 305 -596 596 -26 91 -26 329 0 420 120 433 542 692
982 601z"/>
<path d="M717 1330 c-46 -14 -93 -56 -116 -103 -19 -40 -21 -60 -21 -264 0
-211 1 -222 23 -264 13 -24 43 -57 66 -74 l43 -30 225 -3 c224 -3 225 -3 276
22 55 27 91 70 107 127 6 19 10 119 10 224 0 105 -4 205 -10 224 -16 56 -52
100 -104 126 -49 24 -55 25 -260 24 -116 0 -224 -5 -239 -9z m286 -260 c46
-27 90 -56 96 -64 7 -8 11 -32 9 -53 -3 -36 -7 -40 -98 -95 -106 -65 -138 -71
-175 -33 -24 23 -25 31 -25 133 0 95 3 113 21 136 32 40 72 35 172 -24z"/>
</g>
</svg>
