<?xml version="1.0" standalone="no"?>
<!DOCTYPE svg PUBLIC "-//W3C//DTD SVG 20010904//EN"
 "http://www.w3.org/TR/2001/REC-SVG-20010904/DTD/svg10.dtd">
<svg version="1.0" xmlns="http://www.w3.org/2000/svg"
 width="192.000000pt" height="192.000000pt" viewBox="0 0 192.000000 192.000000"
 preserveAspectRatio="xMidYMid meet">
<metadata>
Created by potrace 1.16, written by Peter Selinger 2001-2019
</metadata>
<g transform="translate(0.000000,192.000000) scale(0.100000,-0.100000)"
fill="#000000" stroke="none">
811 c445 -92 729 -532 635 -987 -62 -301 -295 -546 -601 -630 -91 -26 -329
-26 -420 0 -291 80 -516 305 -596 596 -26 91 -26 329 0 420 120 433 542 692
982 601z"/>
<path d="M903 1370 c-57 -12 -91 -31 -134 -77 -60 -63 -74 -98 -74 -188 0 -95
25 -162 98 -271 72 -107 109 -139 162 -139 36 0 50 6 79 34 49 48 125 162 155
235 34 82 36 201 4 261 -57 108 -176 167 -290 145z m116 -144 c76 -40 87 -132
28 -248 -21 -40 -50 -88 -66 -107 l-27 -33 -33 43 c-113 154 -126 293 -32 344
34 19 95 19 130 1z"/>
<path d="M917 652 c-45 -50 13 -124 69 -88 31 21 39 52 20 81 -20 30 -65 33
-89 7z"/>
</g>
</svg>
