<?xml version="1.0" standalone="no"?>
<!DOCTYPE svg PUBLIC "-//W3C//DTD SVG 20010904//EN"
 "http://www.w3.org/TR/2001/REC-SVG-20010904/DTD/svg10.dtd">
<svg version="1.0" xmlns="http://www.w3.org/2000/svg"
 width="192.000000pt" height="192.000000pt" viewBox="0 0 192.000000 192.000000"
 preserveAspectRatio="xMidYMid meet">
<metadata>
Created by potrace 1.16, written by Peter Selinger 2001-2019
</metadata>
<g transform="translate(0.000000,192.000000) scale(0.100000,-0.100000)"
fill="#000000" stroke="none">
811 c445 -92 729 -532 635 -987 -62 -301 -295 -546 -601 -630 -91 -26 -329
-26 -420 0 -291 80 -516 305 -596 596 -26 91 -26 329 0 420 120 433 542 692
982 601z"/>
<path d="M842 1378 c-19 -19 -15 -32 23 -68 19 -18 42 -53 51 -76 9 -24 24
-46 33 -49 17 -7 51 27 51 52 0 7 21 36 47 64 38 41 45 54 36 67 -18 30 -43
25 -84 -17 l-40 -40 -40 40 c-41 41 -57 47 -77 27z"/>
<path d="M632 1239 c-26 -13 -55 -39 -70 -62 -23 -35 -27 -51 -27 -117 0 -67
3 -81 27 -116 15 -21 43 -49 62 -62 l34 -24 -30 -43 c-24 -34 -30 -53 -30 -92
0 -178 221 -245 314 -94 22 35 23 45 23 261 l0 225 -28 47 c-55 93 -174 127
-275 77z m169 -65 c50 -26 69 -81 69 -208 0 -99 -1 -108 -17 -100 -10 4 -49
18 -87 31 -133 45 -173 90 -163 179 4 39 12 55 41 81 29 27 44 33 81 33 25 0
60 -7 76 -16z m-8 -363 c44 -17 67 -51 67 -97 0 -85 -100 -126 -161 -65 -22
23 -29 39 -29 68 1 44 15 66 56 88 34 18 36 18 67 6z"/>
<path d="M1095 1244 c-43 -22 -74 -53 -96 -96 -17 -33 -19 -61 -19 -258 0
-242 3 -255 60 -304 88 -73 214 -45 261 58 10 23 19 54 19 69 0 35 -25 95 -51
123 l-20 22 36 22 c136 84 134 288 -5 358 -53 26 -140 30 -185 6z m156 -71
c41 -24 72 -92 63 -137 -13 -70 -46 -96 -184 -145 l-80 -28 0 123 c0 118 1
124 27 154 14 18 36 36 47 40 35 15 96 11 127 -7z m-65 -368 c46 -19 70 -72
54 -120 -23 -69 -109 -88 -161 -36 -50 51 -34 127 35 157 39 16 31 17 72 -1z"/>
</g>
</svg>
