<?xml version="1.0" standalone="no"?>
<!DOCTYPE svg PUBLIC "-//W3C//DTD SVG 20010904//EN"
 "http://www.w3.org/TR/2001/REC-SVG-20010904/DTD/svg10.dtd">
<svg version="1.0" xmlns="http://www.w3.org/2000/svg"
 width="192.000000pt" height="192.000000pt" viewBox="0 0 192.000000 192.000000"
 preserveAspectRatio="xMidYMid meet">
<metadata>
Created by potrace 1.16, written by Peter Selinger 2001-2019
</metadata>
<g transform="translate(0.000000,192.000000) scale(0.100000,-0.100000)"
fill="#000000" stroke="none">
811 c445 -92 729 -532 635 -987 -62 -301 -295 -546 -601 -630 -91 -26 -329
-26 -420 0 -291 80 -516 305 -596 596 -26 91 -26 329 0 420 120 433 542 692
982 601z"/>
<path d="M1176 1376 l-18 -33 -61 19 c-49 15 -84 19 -163 16 -89 -3 -107 -7
-167 -36 -105 -52 -188 -151 -212 -254 -6 -24 -4 -23 39 18 54 51 123 88 203
109 92 24 223 17 272 -14 11 -7 10 -15 -8 -45 -13 -20 -19 -36 -14 -36 11 0
226 60 231 64 3 4 -68 209 -77 218 -4 4 -15 -7 -25 -26z"/>
<path d="M669 1056 c-20 -7 -52 -22 -70 -32 -33 -20 -34 -22 -37 -93 -6 -161
79 -296 235 -369 52 -24 70 -27 163 -27 97 0 110 2 173 32 131 62 216 183 225
319 4 63 2 74 -17 93 -20 20 -31 21 -190 21 -93 0 -177 -3 -186 -6 -18 -7 -45
-55 -45 -79 0 -9 13 -30 29 -46 29 -28 32 -29 136 -29 l107 0 -17 -27 c-54
-85 -123 -125 -216 -124 -149 0 -252 117 -236 269 4 31 10 69 13 85 7 32 -7
35 -67 13z"/>
</g>
</svg>
