<?xml version="1.0" standalone="no"?>
<!DOCTYPE svg PUBLIC "-//W3C//DTD SVG 20010904//EN"
 "http://www.w3.org/TR/2001/REC-SVG-20010904/DTD/svg10.dtd">
<svg version="1.0" xmlns="http://www.w3.org/2000/svg"
 width="192.000000pt" height="192.000000pt" viewBox="0 0 192.000000 192.000000"
 preserveAspectRatio="xMidYMid meet">
<metadata>
Created by potrace 1.16, written by Peter Selinger 2001-2019
</metadata>
<g transform="translate(0.000000,192.000000) scale(0.100000,-0.100000)"
fill="#000000" stroke="none">
811 c445 -92 729 -532 635 -987 -62 -301 -295 -546 -601 -630 -91 -26 -329
-26 -420 0 -291 80 -516 305 -596 596 -26 91 -26 329 0 420 120 433 542 692
982 601z"/>
<path d="M720 1329 c-52 -16 -95 -53 -119 -102 -19 -40 -21 -60 -21 -260 0
-232 5 -264 53 -316 50 -54 84 -61 318 -61 209 0 216 1 265 25 28 14 59 40 74
62 l25 37 0 252 0 252 -31 39 c-57 72 -81 78 -319 80 -121 1 -225 -2 -245 -8z
m108 -285 c12 -8 22 -21 22 -29 0 -23 -20 -28 -39 -11 -27 25 -69 20 -82 -8
-25 -54 22 -112 70 -87 25 14 19 31 -10 31 -10 0 -19 7 -19 16 0 12 9 14 43
12 39 -3 42 -5 45 -35 4 -40 -27 -63 -86 -63 -76 0 -115 69 -81 144 20 44 94
61 137 30z m110 3 c6 -6 14 -26 18 -42 11 -50 16 -50 33 1 13 41 20 49 41 49
25 0 25 -1 28 -93 3 -85 1 -93 -15 -90 -13 2 -19 15 -22 48 l-4 45 -11 -45
c-9 -34 -17 -46 -33 -48 -18 -3 -24 5 -36 45 l-15 48 -1 -48 c-1 -40 -4 -48
-18 -45 -15 3 -18 17 -21 87 -2 61 1 87 10 92 19 12 34 11 46 -4z m194 -17
l22 -30 19 30 c20 32 47 40 47 14 0 -9 -9 -29 -21 -45 l-21 -29 21 -34 c12
-18 21 -41 21 -50 0 -27 -29 -18 -49 15 l-19 30 -21 -30 c-13 -17 -29 -31 -37
-31 -21 0 -17 33 8 65 l22 28 -23 39 c-34 59 -9 82 31 28z"/>
</g>
</svg>
