<?xml version="1.0" standalone="no"?>
<!DOCTYPE svg PUBLIC "-//W3C//DTD SVG 20010904//EN"
 "http://www.w3.org/TR/2001/REC-SVG-20010904/DTD/svg10.dtd">
<svg version="1.0" xmlns="http://www.w3.org/2000/svg"
 width="192.000000pt" height="192.000000pt" viewBox="0 0 192.000000 192.000000"
 preserveAspectRatio="xMidYMid meet">
<metadata>
Created by potrace 1.16, written by Peter Selinger 2001-2019
</metadata>
<g transform="translate(0.000000,192.000000) scale(0.100000,-0.100000)"
fill="#000000" stroke="none">
811 c445 -92 729 -532 635 -987 -62 -301 -295 -546 -601 -630 -91 -26 -329
-26 -420 0 -291 80 -516 305 -596 596 -26 91 -26 329 0 420 120 433 542 692
982 601z"/>
<path d="M695 1321 c-51 -23 -102 -81 -110 -123 -3 -18 -5 -135 -3 -260 l3
-226 31 -38 c60 -75 79 -79 339 -79 260 0 279 4 339 79 l31 38 3 226 c2 125 0
242 -3 260 -8 42 -59 100 -110 123 -35 16 -69 19 -260 19 -191 0 -225 -3 -260
-19z m495 -76 c52 -27 60 -57 60 -235 l0 -160 -295 0 -295 0 0 160 c0 252 -3
249 293 250 167 0 214 -3 237 -15z"/>
<path d="M800 1163 c-31 -11 -40 -37 -40 -114 0 -86 13 -109 49 -89 18 9 21
20 21 75 l0 65 125 0 125 0 0 -65 c0 -55 3 -66 21 -75 36 -20 49 3 49 89 0
117 2 116 -182 118 -84 1 -160 0 -168 -4z"/>
<path d="M1000 1055 c-11 -13 -11 -19 3 -32 21 -21 49 -9 45 19 -4 28 -30 35
-48 13z"/>
</g>
</svg>
