<?xml version="1.0" standalone="no"?>
<!DOCTYPE svg PUBLIC "-//W3C//DTD SVG 20010904//EN"
 "http://www.w3.org/TR/2001/REC-SVG-20010904/DTD/svg10.dtd">
<svg version="1.0" xmlns="http://www.w3.org/2000/svg"
 width="192.000000pt" height="192.000000pt" viewBox="0 0 192.000000 192.000000"
 preserveAspectRatio="xMidYMid meet">
<metadata>
Created by potrace 1.16, written by Peter Selinger 2001-2019
</metadata>
<g transform="translate(0.000000,192.000000) scale(0.100000,-0.100000)"
fill="#000000" stroke="none">
811 c445 -92 729 -532 635 -987 -62 -301 -295 -546 -601 -630 -91 -26 -329
-26 -420 0 -291 80 -516 305 -596 596 -26 91 -26 329 0 420 120 433 542 692
982 601z"/>
<path d="M707 1325 c-48 -16 -83 -48 -108 -97 -17 -33 -19 -61 -19 -258 0
-271 10 -304 102 -351 33 -17 61 -19 273 -19 212 0 240 2 273 19 92 47 102 80
102 351 0 199 -2 225 -20 259 -24 48 -70 87 -118 101 -57 15 -438 12 -485 -5z
m514 -103 l29 -32 0 -170 0 -170 -295 0 -295 0 0 169 c0 157 1 170 21 195 12
15 31 32 43 36 11 5 122 8 244 7 l224 -2 29 -33z"/>
<path d="M776 1141 c-13 -15 -16 -34 -14 -97 3 -75 4 -79 27 -82 32 -5 41 12
41 81 l0 57 125 0 125 0 0 -57 c0 -69 9 -86 41 -81 23 3 24 7 27 82 4 117 6
116 -193 116 -146 0 -164 -2 -179 -19z"/>
<path d="M1007 1064 c-10 -10 -9 -42 2 -48 18 -11 42 6 39 28 -3 21 -28 33
-41 20z"/>
</g>
</svg>
