<?xml version="1.0" standalone="no"?>
<!DOCTYPE svg PUBLIC "-//W3C//DTD SVG 20010904//EN"
 "http://www.w3.org/TR/2001/REC-SVG-20010904/DTD/svg10.dtd">
<svg version="1.0" xmlns="http://www.w3.org/2000/svg"
 width="192.000000pt" height="192.000000pt" viewBox="0 0 192.000000 192.000000"
 preserveAspectRatio="xMidYMid meet">
<metadata>
Created by potrace 1.16, written by Peter Selinger 2001-2019
</metadata>
<g transform="translate(0.000000,192.000000) scale(0.100000,-0.100000)"
fill="#000000" stroke="none">
811 c445 -92 729 -532 635 -987 -62 -301 -295 -546 -601 -630 -91 -26 -329
-26 -420 0 -291 80 -516 305 -596 596 -26 91 -26 329 0 420 120 433 542 692
982 601z"/>
<path d="M671 1344 c-20 -26 -21 -38 -21 -328 0 -257 2 -305 16 -324 8 -12 24
-22 34 -22 44 0 50 31 50 247 0 112 2 203 5 203 10 0 265 -144 265 -149 0 -3
-57 -43 -125 -89 -100 -65 -125 -87 -125 -105 0 -27 17 -47 41 -47 9 0 83 43
163 96 81 53 150 94 154 90 4 -4 0 -12 -8 -16 -8 -5 -91 -60 -185 -122 -183
-121 -200 -141 -151 -173 26 -17 27 -17 237 121 116 75 217 147 225 159 17 26
6 67 -22 83 -14 8 -13 12 10 35 32 32 33 51 4 80 -31 31 -501 287 -526 287
-11 0 -30 -12 -41 -26z m284 -199 c124 -68 184 -106 173 -110 -17 -7 -369 182
-376 203 -2 6 0 12 5 12 4 0 93 -47 198 -105z"/>
<path d="M660 631 c-20 -38 21 -82 59 -62 25 14 33 38 21 62 -14 26 -66 26
-80 0z"/>
</g>
</svg>
