<?xml version="1.0" standalone="no"?>
<!DOCTYPE svg PUBLIC "-//W3C//DTD SVG 20010904//EN"
 "http://www.w3.org/TR/2001/REC-SVG-20010904/DTD/svg10.dtd">
<svg version="1.0" xmlns="http://www.w3.org/2000/svg"
 width="192.000000pt" height="192.000000pt" viewBox="0 0 192.000000 192.000000"
 preserveAspectRatio="xMidYMid meet">
<metadata>
Created by potrace 1.16, written by Peter Selinger 2001-2019
</metadata>
<g transform="translate(0.000000,192.000000) scale(0.100000,-0.100000)"
fill="#000000" stroke="none">
810 c245 -63 441 -223 549 -451 55 -116 75 -212 75 -354 0 -141 -20 -238 -75
-352 -86 -182 -215 -312 -396 -398 -116 -55 -212 -75 -354 -75 -142 0 -238 20
-354 75 -228 108 -388 304 -451 549 -28 110 -28 292 0 402 76 298 303 526 600
603 106 28 298 28 406 1z"/>
<path d="M644 1336 c-49 -22 -74 -61 -74 -117 0 -42 5 -55 33 -85 43 -47 113
-57 165 -24 34 21 62 72 62 111 0 43 -32 91 -74 110 -48 22 -70 23 -112 5z"/>
<path d="M860 1315 c-7 -8 -10 -21 -7 -29 5 -11 39 -15 169 -18 137 -2 168 -6
191 -21 38 -24 67 -75 67 -114 l0 -33 -67 0 c-142 0 -261 -47 -350 -136 -65
-64 -101 -140 -116 -237 -6 -40 -12 -73 -13 -75 -5 -7 -55 32 -67 52 -7 13
-14 84 -17 186 l-5 165 -27 3 -28 3 0 -174 c0 -172 0 -175 26 -213 58 -85 84
-92 347 -93 233 -1 264 4 315 52 57 53 62 77 62 319 0 251 -7 282 -71 331 -51
38 -100 47 -255 47 -113 0 -144 -3 -154 -15z m399 -462 c22 -6 23 -10 19 -69
-3 -50 -9 -69 -28 -90 -41 -43 -73 -54 -160 -54 -80 0 -80 0 -80 26 0 130 122
221 249 187z"/>
</g>
</svg>
