<?xml version="1.0" standalone="no"?>
<!DOCTYPE svg PUBLIC "-//W3C//DTD SVG 20010904//EN"
 "http://www.w3.org/TR/2001/REC-SVG-20010904/DTD/svg10.dtd">
<svg version="1.0" xmlns="http://www.w3.org/2000/svg"
 width="192.000000pt" height="192.000000pt" viewBox="0 0 192.000000 192.000000"
 preserveAspectRatio="xMidYMid meet">
<metadata>
Created by potrace 1.16, written by Peter Selinger 2001-2019
</metadata>
<g transform="translate(0.000000,192.000000) scale(0.100000,-0.100000)"
fill="#000000" stroke="none">
811 c445 -92 729 -532 635 -987 -62 -301 -295 -546 -601 -630 -91 -26 -329
-26 -420 0 -291 80 -516 305 -596 596 -26 91 -26 329 0 420 120 433 542 692
982 601z"/>
<path d="M665 1331 c-40 -24 -71 -60 -84 -94 -17 -44 -15 -509 3 -550 16 -38
76 -94 112 -103 47 -12 121 2 157 29 56 43 70 85 74 227 5 164 0 174 -86 178
-76 4 -93 -7 -89 -57 2 -28 9 -39 31 -49 26 -13 27 -16 27 -91 0 -61 -4 -84
-18 -101 -24 -30 -70 -30 -94 0 -16 20 -18 45 -18 247 l0 224 25 24 c13 14 31
25 40 25 31 0 65 -46 65 -89 0 -32 5 -44 25 -57 32 -21 71 -7 85 31 13 34 -4
118 -31 156 -45 64 -160 90 -224 50z"/>
<path d="M1092 1333 c-18 -9 -45 -32 -60 -51 l-27 -35 -3 -269 c-3 -300 -1
-315 65 -365 36 -27 110 -41 157 -29 36 9 96 65 112 103 17 41 20 506 3 550
-13 34 -55 80 -91 99 -36 19 -115 17 -156 -3z m116 -109 c22 -15 22 -19 22
-251 0 -260 -3 -273 -61 -273 -57 0 -59 9 -59 270 0 235 0 239 22 254 12 9 29
16 38 16 9 0 26 -7 38 -16z"/>
</g>
</svg>
