<?xml version="1.0" standalone="no"?>
<!DOCTYPE svg PUBLIC "-//W3C//DTD SVG 20010904//EN"
 "http://www.w3.org/TR/2001/REC-SVG-20010904/DTD/svg10.dtd">
<svg version="1.0" xmlns="http://www.w3.org/2000/svg"
 width="192.000000pt" height="192.000000pt" viewBox="0 0 192.000000 192.000000"
 preserveAspectRatio="xMidYMid meet">
<metadata>
Created by potrace 1.16, written by Peter Selinger 2001-2019
</metadata>
<g transform="translate(0.000000,192.000000) scale(0.100000,-0.100000)"
fill="#000000" stroke="none">
811 c445 -92 729 -532 635 -987 -62 -301 -295 -546 -601 -630 -91 -26 -329
-26 -420 0 -291 80 -516 305 -596 596 -26 91 -26 329 0 420 120 433 542 692
982 601z"/>
<path d="M853 1355 c-192 -54 -313 -211 -313 -405 0 -121 46 -227 135 -309
111 -103 225 -107 225 -8 0 41 -12 57 -72 91 -119 67 -164 217 -103 342 81
166 308 194 429 53 110 -129 73 -323 -76 -400 -67 -35 -85 -84 -47 -133 32
-40 82 -36 157 15 68 45 107 89 145 164 133 264 -55 585 -350 601 -50 3 -97
-1 -130 -11z"/>
<path d="M910 1133 c-57 -21 -86 -42 -111 -82 -73 -114 -9 -257 128 -286 73
-15 179 48 204 122 16 50 7 126 -22 168 -40 59 -142 99 -199 78z"/>
</g>
</svg>
