<?xml version="1.0" standalone="no"?>
<!DOCTYPE svg PUBLIC "-//W3C//DTD SVG 20010904//EN"
 "http://www.w3.org/TR/2001/REC-SVG-20010904/DTD/svg10.dtd">
<svg version="1.0" xmlns="http://www.w3.org/2000/svg"
 width="192.000000pt" height="192.000000pt" viewBox="0 0 192.000000 192.000000"
 preserveAspectRatio="xMidYMid meet">
<metadata>
Created by potrace 1.16, written by Peter Selinger 2001-2019
</metadata>
<g transform="translate(0.000000,192.000000) scale(0.100000,-0.100000)"
fill="#000000" stroke="none">
811 c445 -92 729 -532 635 -987 -62 -301 -295 -546 -601 -630 -91 -26 -329
-26 -420 0 -291 80 -516 305 -596 596 -26 91 -26 329 0 420 120 433 542 692
982 601z"/>
<path d="M720 1341 c-109 -36 -170 -114 -170 -219 0 -52 5 -67 35 -112 l35
-52 -32 -39 c-64 -80 -46 -220 38 -284 59 -45 101 -57 184 -53 97 4 160 39
205 113 l30 50 75 1 c108 1 179 43 225 133 27 54 17 149 -21 203 -44 63 -124
101 -215 102 -67 1 -70 2 -85 31 -22 44 -63 84 -109 107 -43 23 -152 33 -195
19z m130 -126 c87 -45 77 -158 -17 -184 -125 -35 -208 106 -104 176 39 27 80
29 121 8z m304 -159 c38 -16 76 -60 76 -88 0 -63 -66 -114 -134 -105 -112 15
-130 165 -23 196 44 13 44 13 81 -3z m-278 -190 c72 -72 22 -166 -87 -166 -54
0 -109 51 -109 100 0 23 10 42 34 66 29 29 41 34 81 34 40 0 52 -5 81 -34z"/>
</g>
</svg>
