<?xml version="1.0" standalone="no"?>
<!DOCTYPE svg PUBLIC "-//W3C//DTD SVG 20010904//EN"
 "http://www.w3.org/TR/2001/REC-SVG-20010904/DTD/svg10.dtd">
<svg version="1.0" xmlns="http://www.w3.org/2000/svg"
 width="192.000000pt" height="192.000000pt" viewBox="0 0 192.000000 192.000000"
 preserveAspectRatio="xMidYMid meet">
<metadata>
Created by potrace 1.16, written by Peter Selinger 2001-2019
</metadata>
<g transform="translate(0.000000,192.000000) scale(0.100000,-0.100000)"
fill="#000000" stroke="none">
811 c445 -92 729 -532 635 -987 -62 -301 -295 -546 -601 -630 -91 -26 -329
-26 -420 0 -291 80 -516 305 -596 596 -26 91 -26 329 0 420 120 433 542 692
982 601z"/>
<path d="M850 1365 c-298 -84 -399 -456 -184 -685 28 -30 73 -63 113 -83 62
-30 72 -32 176 -32 104 0 114 2 176 32 82 41 150 111 192 201 27 58 32 78 32
152 l0 85 -211 3 c-236 3 -248 0 -260 -65 -5 -27 -1 -37 24 -63 l30 -30 122 0
122 0 -17 -27 c-67 -107 -165 -149 -271 -118 -149 43 -218 205 -146 346 57
113 189 157 314 104 13 -5 33 7 75 48 56 54 57 56 40 75 -50 55 -225 85 -327
57z"/>
</g>
</svg>
