<?xml version="1.0" standalone="no"?>
<!DOCTYPE svg PUBLIC "-//W3C//DTD SVG 20010904//EN"
 "http://www.w3.org/TR/2001/REC-SVG-20010904/DTD/svg10.dtd">
<svg version="1.0" xmlns="http://www.w3.org/2000/svg"
 width="192.000000pt" height="192.000000pt" viewBox="0 0 192.000000 192.000000"
 preserveAspectRatio="xMidYMid meet">
<metadata>
Created by potrace 1.16, written by Peter Selinger 2001-2019
</metadata>
<g transform="translate(0.000000,192.000000) scale(0.100000,-0.100000)"
fill="#000000" stroke="none">
811 c445 -92 729 -532 635 -987 -62 -301 -295 -546 -601 -630 -91 -26 -329
-26 -420 0 -291 80 -516 305 -596 596 -26 91 -26 329 0 420 120 433 542 692
982 601z"/>
<path d="M853 1365 c-80 -22 -131 -52 -189 -109 -79 -80 -124 -183 -124 -288
0 -55 6 -57 61 -26 30 17 39 28 39 48 0 94 77 208 174 257 67 34 172 42 236
18 25 -9 60 -19 77 -22 27 -4 34 -1 44 20 17 37 -3 62 -68 87 -75 28 -182 35
-250 15z"/>
<path d="M1221 1194 c-25 -32 -25 -25 -2 -150 19 -108 25 -124 45 -124 23 0
43 33 75 123 37 105 37 116 10 151 -16 21 -29 26 -64 26 -35 0 -48 -5 -64 -26z
m94 -42 c8 -20 -19 -47 -39 -39 -26 10 -32 38 -12 53 21 15 42 9 51 -14z"/>
<path d="M1065 1137 c-64 -36 -70 -59 -50 -194 20 -134 32 -153 96 -153 31 0
47 6 70 29 16 16 29 35 29 43 -1 48 -42 264 -52 274 -25 23 -53 24 -93 1z m69
-159 c18 -105 13 -130 -22 -126 -30 4 -38 26 -48 137 -6 65 -5 76 12 88 28 21
41 0 58 -99z"/>
<path d="M935 1063 c-16 -9 -32 -17 -33 -18 -2 -2 -9 -41 -16 -87 l-11 -83
-33 58 c-33 57 -50 68 -70 44 -15 -17 17 -227 36 -234 25 -10 33 11 22 67 -6
29 -8 55 -6 58 3 2 14 -15 26 -38 14 -27 27 -40 38 -38 16 3 21 18 38 113 l7
40 8 -55 c18 -121 18 -120 44 -120 21 0 25 5 25 28 0 29 -37 272 -42 277 -2 2
-16 -4 -33 -12z"/>
<path d="M675 928 c-27 -21 -27 -23 -20 -92 4 -39 11 -78 16 -88 12 -23 62
-24 83 -2 19 18 20 40 5 120 -16 89 -34 102 -84 62z m46 -64 c12 -55 10 -94
-5 -94 -8 0 -17 8 -19 18 -12 41 -17 93 -12 103 11 17 30 4 36 -27z"/>
<path d="M579 877 c-36 -25 -40 -46 -24 -136 6 -33 7 -33 47 -28 22 3 42 8 45
10 2 3 1 26 -2 51 -7 46 -17 54 -45 36 -13 -9 -13 -12 3 -21 21 -12 23 -49 2
-49 -19 0 -23 12 -27 65 -3 37 -1 40 22 40 16 0 26 6 28 19 7 32 -13 38 -49
13z"/>
<path d="M1242 871 c-23 -14 -10 -46 21 -49 26 -3 28 -1 25 25 -3 29 -23 39
-46 24z"/>
<path d="M1160 725 c-22 -27 -118 -65 -177 -71 -39 -3 -76 0 -113 11 -80 24
-114 28 -168 20 l-47 -7 30 -25 c17 -14 59 -39 95 -56 61 -30 72 -32 175 -32
98 0 116 3 165 26 101 48 144 101 108 137 -17 17 -53 15 -68 -3z"/>
</g>
</svg>
