<?xml version="1.0" standalone="no"?>
<!DOCTYPE svg PUBLIC "-//W3C//DTD SVG 20010904//EN"
 "http://www.w3.org/TR/2001/REC-SVG-20010904/DTD/svg10.dtd">
<svg version="1.0" xmlns="http://www.w3.org/2000/svg"
 width="192.000000pt" height="192.000000pt" viewBox="0 0 192.000000 192.000000"
 preserveAspectRatio="xMidYMid meet">
<metadata>
Created by potrace 1.16, written by Peter Selinger 2001-2019
</metadata>
<g transform="translate(0.000000,192.000000) scale(0.100000,-0.100000)"
fill="#000000" stroke="none">
811 c445 -92 729 -532 635 -987 -62 -301 -295 -546 -601 -630 -91 -26 -329
-26 -420 0 -291 80 -516 305 -596 596 -26 91 -26 329 0 420 120 433 542 692
982 601z"/>
<path d="M753 1370 c-12 -5 -26 -18 -32 -29 -7 -13 -11 -144 -11 -381 l0 -361
25 -24 c24 -25 25 -25 223 -25 265 0 243 -24 240 266 l-3 219 -81 3 c-92 3
-126 -6 -150 -43 -14 -21 -14 -30 -4 -55 14 -35 37 -50 75 -50 l26 0 -3 -97
-3 -98 -97 -3 -98 -3 0 271 0 270 100 0 100 0 0 -38 c0 -47 27 -75 72 -75 52
0 68 30 68 133 0 84 -1 90 -26 109 -25 20 -39 21 -213 20 -102 0 -196 -4 -208
-9z"/>
</g>
</svg>
