<?xml version="1.0" standalone="no"?>
<!DOCTYPE svg PUBLIC "-//W3C//DTD SVG 20010904//EN"
 "http://www.w3.org/TR/2001/REC-SVG-20010904/DTD/svg10.dtd">
<svg version="1.0" xmlns="http://www.w3.org/2000/svg"
 width="192.000000pt" height="192.000000pt" viewBox="0 0 192.000000 192.000000"
 preserveAspectRatio="xMidYMid meet">
<metadata>
Created by potrace 1.16, written by Peter Selinger 2001-2019
</metadata>
<g transform="translate(0.000000,192.000000) scale(0.100000,-0.100000)"
fill="#000000" stroke="none">
811 c445 -92 729 -532 635 -987 -62 -301 -295 -546 -601 -630 -91 -26 -329
-26 -420 0 -291 80 -516 305 -596 596 -26 91 -26 329 0 420 120 433 542 692
982 601z"/>
<path d="M468 1071 c-31 -27 -33 -34 -33 -91 0 -57 2 -64 33 -91 36 -32 85
-39 117 -15 17 12 21 12 31 -2 20 -27 34 -3 34 59 l0 59 -50 0 c-43 0 -50 -3
-50 -20 0 -15 7 -20 25 -20 29 0 32 -12 9 -34 -21 -22 -60 -20 -84 4 -24 24
-27 86 -4 118 20 28 68 29 91 2 22 -26 53 -26 53 -1 0 31 -47 61 -96 61 -34 0
-51 -6 -76 -29z"/>
<path d="M1177 1093 c-4 -3 -7 -19 -7 -35 0 -25 -3 -28 -24 -22 -36 9 -64 -4
-81 -36 -40 -78 19 -164 91 -131 15 6 24 7 24 1 0 -6 9 -10 20 -10 19 0 20 7
20 120 0 110 -2 120 -18 120 -10 0 -22 -3 -25 -7z m-12 -143 c0 -40 -3 -45
-24 -48 -27 -4 -41 12 -41 49 0 31 18 51 45 47 17 -3 20 -11 20 -48z"/>
<path d="M1255 1088 c-10 -25 -1 -223 10 -223 6 0 11 24 13 53 l3 52 42 0 c48
0 59 -6 76 -38 10 -19 8 -29 -10 -62 -28 -49 -19 -63 11 -20 l22 31 20 -31
c25 -43 34 -32 11 15 -17 35 -17 38 0 67 21 36 12 53 -10 21 l-15 -23 -18 23
c-17 20 -17 24 -3 39 20 22 20 65 0 85 -21 22 -145 31 -152 11z m126 -18 c21
-12 25 -50 7 -68 -7 -7 -34 -12 -60 -12 l-48 0 0 45 0 45 41 0 c22 0 49 -5 60
-10z"/>
<path d="M700 1020 c-58 -58 -23 -160 54 -160 53 0 89 36 89 89 0 57 -32 91
-85 91 -25 0 -45 -7 -58 -20z m92 -45 c17 -38 -4 -77 -40 -73 -23 2 -28 8 -30
36 -5 47 3 62 33 62 17 0 29 -8 37 -25z"/>
<path d="M890 1020 c-60 -60 -23 -160 58 -160 52 0 87 36 87 90 0 54 -35 90
-87 90 -25 0 -45 -7 -58 -20z m88 -32 c7 -7 12 -24 12 -38 0 -32 -17 -50 -47
-50 -26 0 -39 34 -29 75 7 27 42 35 64 13z"/>
</g>
</svg>
