<?xml version="1.0" standalone="no"?>
<!DOCTYPE svg PUBLIC "-//W3C//DTD SVG 20010904//EN"
 "http://www.w3.org/TR/2001/REC-SVG-20010904/DTD/svg10.dtd">
<svg version="1.0" xmlns="http://www.w3.org/2000/svg"
 width="192.000000pt" height="192.000000pt" viewBox="0 0 192.000000 192.000000"
 preserveAspectRatio="xMidYMid meet">
<metadata>
Created by potrace 1.16, written by Peter Selinger 2001-2019
</metadata>
<g transform="translate(0.000000,192.000000) scale(0.100000,-0.100000)"
fill="#000000" stroke="none">
811 c445 -92 729 -532 635 -987 -62 -301 -295 -546 -601 -630 -91 -26 -329
-26 -420 0 -291 80 -516 305 -596 596 -26 91 -26 329 0 420 120 433 542 692
982 601z"/>
<path d="M637 1359 c-10 -6 -22 -22 -28 -36 -12 -32 -10 -35 128 -200 59 -71
114 -136 121 -145 11 -14 -3 -36 -116 -170 -71 -84 -132 -163 -136 -174 -4
-14 1 -30 15 -47 l20 -27 313 0 c290 0 314 1 329 18 34 38 22 63 -109 218 -69
82 -128 154 -131 161 -2 6 54 81 126 167 138 164 150 187 111 226 -19 19 -33
20 -322 20 -193 0 -310 -4 -321 -11z m452 -136 c-8 -10 -41 -49 -73 -88 -32
-38 -60 -71 -61 -72 -2 -4 -145 165 -145 171 0 3 66 6 146 6 138 0 146 -1 133
-17z m-59 -448 c40 -47 70 -88 68 -91 -3 -2 -71 -3 -151 -2 l-146 3 72 87 c39
48 75 87 78 87 4 1 39 -37 79 -84z"/>
</g>
</svg>
