<?xml version="1.0" standalone="no"?>
<!DOCTYPE svg PUBLIC "-//W3C//DTD SVG 20010904//EN"
 "http://www.w3.org/TR/2001/REC-SVG-20010904/DTD/svg10.dtd">
<svg version="1.0" xmlns="http://www.w3.org/2000/svg"
 width="192.000000pt" height="192.000000pt" viewBox="0 0 192.000000 192.000000"
 preserveAspectRatio="xMidYMid meet">
<metadata>
Created by potrace 1.16, written by Peter Selinger 2001-2019
</metadata>
<g transform="translate(0.000000,192.000000) scale(0.100000,-0.100000)"
fill="#000000" stroke="none">
811 c445 -92 729 -532 635 -987 -62 -301 -295 -546 -601 -630 -91 -26 -329
-26 -420 0 -291 80 -516 305 -596 596 -26 91 -26 329 0 420 120 433 542 692
982 601z"/>
<path d="M868 1345 c-28 -16 -58 -62 -58 -88 0 -10 -18 -16 -64 -19 -71 -6
-133 -35 -164 -78 -37 -50 -44 -96 -40 -282 l3 -176 30 -44 c18 -25 49 -53 75
-66 44 -22 50 -23 316 -20 l271 3 40 28 c22 15 50 46 64 70 22 38 24 55 27
197 5 182 -6 246 -50 296 -43 49 -78 64 -159 71 -67 6 -70 7 -76 34 -3 15 -18
40 -34 55 -25 24 -39 29 -92 31 -42 2 -71 -2 -89 -12z m144 -62 c37 -34 23
-43 -67 -43 -76 0 -84 2 -78 18 12 34 26 42 76 42 33 0 57 -6 69 -17z"/>
</g>
</svg>
