<?xml version="1.0" standalone="no"?>
<!DOCTYPE svg PUBLIC "-//W3C//DTD SVG 20010904//EN"
 "http://www.w3.org/TR/2001/REC-SVG-20010904/DTD/svg10.dtd">
<svg version="1.0" xmlns="http://www.w3.org/2000/svg"
 width="192.000000pt" height="192.000000pt" viewBox="0 0 192.000000 192.000000"
 preserveAspectRatio="xMidYMid meet">
<metadata>
Created by potrace 1.16, written by Peter Selinger 2001-2019
</metadata>
<g transform="translate(0.000000,192.000000) scale(0.100000,-0.100000)"
fill="#000000" stroke="none">
811 c445 -92 729 -532 635 -987 -62 -301 -295 -546 -601 -630 -91 -26 -329
-26 -420 0 -291 80 -516 305 -596 596 -26 91 -26 329 0 420 120 433 542 692
982 601z"/>
<path d="M870 1369 c-60 -12 -136 -51 -190 -98 l-45 -39 24 -43 c14 -24 41
-72 61 -107 l37 -63 12 29 c7 16 27 43 44 60 58 56 86 62 302 62 133 0 195 3
195 11 0 6 -27 37 -60 70 -104 105 -237 146 -380 118z"/>
<path d="M574 1123 c-64 -153 -24 -345 96 -457 56 -52 166 -109 201 -104 16 2
38 28 76 93 29 50 53 93 53 98 0 4 -21 7 -47 7 -58 0 -124 31 -155 73 -13 18
-62 98 -109 179 -46 81 -87 148 -91 148 -4 0 -15 -17 -24 -37z"/>
<path d="M892 1091 c-75 -35 -103 -138 -57 -208 40 -60 131 -81 193 -43 119
72 82 250 -55 266 -25 3 -53 -2 -81 -15z"/>
<path d="M1136 1063 c21 -40 25 -58 22 -109 -3 -56 -12 -75 -97 -225 -52 -90
-96 -168 -99 -173 -8 -15 88 1 153 25 84 31 193 139 225 224 28 74 36 173 20
248 l-11 57 -119 0 -119 0 25 -47z"/>
</g>
</svg>
