<?xml version="1.0" standalone="no"?>
<!DOCTYPE svg PUBLIC "-//W3C//DTD SVG 20010904//EN"
 "http://www.w3.org/TR/2001/REC-SVG-20010904/DTD/svg10.dtd">
<svg version="1.0" xmlns="http://www.w3.org/2000/svg"
 width="192.000000pt" height="192.000000pt" viewBox="0 0 192.000000 192.000000"
 preserveAspectRatio="xMidYMid meet">
<metadata>
Created by potrace 1.16, written by Peter Selinger 2001-2019
</metadata>
<g transform="translate(0.000000,192.000000) scale(0.100000,-0.100000)"
fill="#000000" stroke="none">
811 c445 -92 729 -532 635 -987 -62 -301 -295 -546 -601 -630 -91 -26 -329
-26 -420 0 -291 80 -516 305 -596 596 -26 91 -26 329 0 420 120 433 542 692
982 601z"/>
<path d="M857 1369 c-90 -21 -191 -92 -247 -174 -78 -114 -91 -273 -32 -399
51 -109 134 -184 246 -222 43 -15 49 -15 63 -1 24 23 10 43 -44 61 -98 33
-197 133 -225 229 -7 23 -12 75 -11 114 1 229 239 392 462 318 58 -19 81 -15
81 14 0 51 -177 87 -293 60z"/>
<path d="M1113 1198 l-162 -162 -95 94 c-90 88 -97 93 -121 82 -44 -20 -32
-50 56 -137 44 -44 87 -95 95 -114 8 -19 21 -39 29 -45 12 -9 15 -46 17 -186
3 -167 4 -175 23 -175 19 0 20 8 23 176 2 161 4 178 22 194 11 10 20 25 20 34
0 8 72 88 160 176 157 158 176 185 148 213 -29 29 -55 10 -215 -150z"/>
<path d="M1267 1156 c-3 -8 3 -41 15 -73 29 -82 22 -197 -16 -272 -45 -87
-125 -153 -229 -185 -25 -8 -32 -35 -14 -53 35 -36 193 53 262 147 88 120 107
287 48 409 -19 38 -56 53 -66 27z"/>
</g>
</svg>
