<?xml version="1.0" standalone="no"?>
<!DOCTYPE svg PUBLIC "-//W3C//DTD SVG 20010904//EN"
 "http://www.w3.org/TR/2001/REC-SVG-20010904/DTD/svg10.dtd">
<svg version="1.0" xmlns="http://www.w3.org/2000/svg"
 width="192.000000pt" height="192.000000pt" viewBox="0 0 192.000000 192.000000"
 preserveAspectRatio="xMidYMid meet">
<metadata>
Created by potrace 1.16, written by Peter Selinger 2001-2019
</metadata>
<g transform="translate(0.000000,192.000000) scale(0.100000,-0.100000)"
fill="#000000" stroke="none">
811 c445 -92 729 -532 635 -987 -62 -301 -295 -546 -601 -630 -91 -26 -329
-26 -420 0 -291 80 -516 305 -596 596 -26 91 -26 329 0 420 120 433 542 692
982 601z"/>
<path d="M886 1370 c-122 -22 -249 -121 -304 -237 -24 -52 -27 -69 -27 -168 0
-99 3 -116 28 -169 54 -117 137 -190 258 -227 72 -22 144 -24 215 -5 240 64
372 318 284 547 -67 179 -266 292 -454 259z m221 -105 c61 -31 127 -100 155
-162 11 -24 18 -46 16 -49 -2 -2 -32 30 -67 71 -34 41 -89 94 -122 119 -68 51
-60 59 18 21z m-316 -71 c84 -25 155 -65 279 -158 63 -47 138 -98 166 -113 46
-24 51 -29 44 -52 -6 -24 -11 -26 -54 -24 -38 1 -89 21 -244 97 -200 97 -252
116 -309 116 -18 0 -33 5 -33 10 0 27 72 140 89 140 4 0 32 -7 62 -16z m-46
-351 c28 -9 93 -35 145 -59 104 -47 194 -74 250 -74 l35 -1 -30 -24 c-35 -29
-54 -28 -218 7 -79 17 -107 20 -138 11 -38 -10 -40 -9 -78 32 -42 46 -71 94
-71 120 0 17 17 15 105 -12z"/>
</g>
</svg>
