<?xml version="1.0" standalone="no"?>
<!DOCTYPE svg PUBLIC "-//W3C//DTD SVG 20010904//EN"
 "http://www.w3.org/TR/2001/REC-SVG-20010904/DTD/svg10.dtd">
<svg version="1.0" xmlns="http://www.w3.org/2000/svg"
 width="192.000000pt" height="192.000000pt" viewBox="0 0 192.000000 192.000000"
 preserveAspectRatio="xMidYMid meet">
<metadata>
Created by potrace 1.16, written by Peter Selinger 2001-2019
</metadata>
<g transform="translate(0.000000,192.000000) scale(0.100000,-0.100000)"
fill="#000000" stroke="none">
811 c445 -92 729 -532 635 -987 -62 -301 -295 -546 -601 -630 -91 -26 -329
-26 -420 0 -291 80 -516 305 -596 596 -26 91 -26 329 0 420 120 433 542 692
982 601z"/>
<path d="M702 1373 c-18 -9 -43 -30 -55 -47 -22 -31 -22 -36 -22 -363 0 -321
1 -332 21 -360 34 -45 77 -65 137 -63 28 0 57 1 62 1 6 0 67 -3 136 -7 161 -9
214 2 263 56 43 48 49 77 44 223 -2 98 -6 120 -24 144 -72 97 -205 98 -264 1
-17 -29 -20 -51 -20 -166 0 -151 -8 -176 -67 -217 -51 -34 -63 -32 -27 6 l29
30 3 337 c2 323 1 338 -18 370 -41 67 -126 91 -198 55z"/>
</g>
</svg>
