<?xml version="1.0" standalone="no"?>
<!DOCTYPE svg PUBLIC "-//W3C//DTD SVG 20010904//EN"
 "http://www.w3.org/TR/2001/REC-SVG-20010904/DTD/svg10.dtd">
<svg version="1.0" xmlns="http://www.w3.org/2000/svg"
 width="192.000000pt" height="192.000000pt" viewBox="0 0 192.000000 192.000000"
 preserveAspectRatio="xMidYMid meet">
<metadata>
Created by potrace 1.16, written by Peter Selinger 2001-2019
</metadata>
<g transform="translate(0.000000,192.000000) scale(0.100000,-0.100000)"
fill="#000000" stroke="none">
811 c445 -92 729 -532 635 -987 -62 -301 -295 -546 -601 -630 -91 -26 -329
-26 -420 0 -291 80 -516 305 -596 596 -26 91 -26 329 0 420 120 433 542 692
982 601z"/>
<path d="M817 1329 c-11 -6 -35 -29 -54 -50 -27 -29 -43 -39 -67 -39 -50 0
-108 -39 -134 -90 -22 -43 -23 -53 -20 -246 l3 -201 28 -36 c53 -70 61 -72
359 -75 279 -3 324 1 372 39 51 40 59 72 64 236 5 183 -2 251 -31 295 -31 46
-83 78 -125 78 -30 0 -43 8 -78 48 l-41 47 -129 3 c-82 1 -136 -2 -147 -9z
m210 -240 c107 -40 150 -175 88 -274 -84 -136 -284 -117 -341 30 -47 124 42
255 173 255 28 0 64 -5 80 -11z"/>
<path d="M871 1014 c-65 -54 -61 -155 8 -201 70 -47 162 -16 190 63 18 52 9
88 -34 131 -29 29 -40 33 -83 33 -40 0 -57 -6 -81 -26z"/>
</g>
</svg>
