<?xml version="1.0" standalone="no"?>
<!DOCTYPE svg PUBLIC "-//W3C//DTD SVG 20010904//EN"
 "http://www.w3.org/TR/2001/REC-SVG-20010904/DTD/svg10.dtd">
<svg version="1.0" xmlns="http://www.w3.org/2000/svg"
 width="192.000000pt" height="192.000000pt" viewBox="0 0 192.000000 192.000000"
 preserveAspectRatio="xMidYMid meet">
<metadata>
Created by potrace 1.16, written by Peter Selinger 2001-2019
</metadata>
<g transform="translate(0.000000,192.000000) scale(0.100000,-0.100000)"
fill="#000000" stroke="none">
811 c445 -92 729 -532 635 -987 -62 -301 -295 -546 -601 -630 -91 -26 -329
-26 -420 0 -291 80 -516 305 -596 596 -26 91 -26 329 0 420 120 433 542 692
982 601z"/>
<path d="M719 1346 c-66 -45 -69 -59 -69 -381 0 -322 3 -336 69 -381 35 -23
40 -24 236 -24 196 0 201 1 236 24 65 44 69 64 69 336 l0 241 -97 105 -98 104
-155 0 c-148 0 -157 -1 -191 -24z m329 -123 l3 -72 72 -3 c64 -3 72 -5 72 -23
0 -19 -7 -20 -95 -20 l-95 0 -3 84 c-3 96 1 114 25 109 15 -3 19 -16 21 -75z
m71 -307 c18 -17 21 -30 21 -111 0 -130 0 -130 -187 -130 -140 0 -145 1 -164
24 -25 30 -28 174 -4 208 20 29 38 32 186 30 109 -2 130 -5 148 -21z"/>
<path d="M832 878 c-18 -18 -15 -36 7 -48 49 -26 111 2 91 41 -12 22 -78 27
-98 7z"/>
<path d="M981 871 c-23 -41 50 -69 95 -37 30 23 7 50 -44 54 -32 2 -43 -1 -51
-17z"/>
<path d="M826 764 c-10 -26 13 -44 54 -44 45 0 69 22 50 45 -18 21 -96 20
-104 -1z"/>
<path d="M980 765 c-19 -23 5 -45 50 -45 41 0 64 18 54 44 -8 21 -86 22 -104
1z"/>
</g>
</svg>
