<?xml version="1.0" standalone="no"?>
<!DOCTYPE svg PUBLIC "-//W3C//DTD SVG 20010904//EN"
 "http://www.w3.org/TR/2001/REC-SVG-20010904/DTD/svg10.dtd">
<svg version="1.0" xmlns="http://www.w3.org/2000/svg"
 width="192.000000pt" height="192.000000pt" viewBox="0 0 192.000000 192.000000"
 preserveAspectRatio="xMidYMid meet">
<metadata>
Created by potrace 1.16, written by Peter Selinger 2001-2019
</metadata>
<g transform="translate(0.000000,192.000000) scale(0.100000,-0.100000)"
fill="#000000" stroke="none">
811 c445 -92 729 -532 635 -987 -62 -301 -295 -546 -601 -630 -91 -26 -329
-26 -420 0 -291 80 -516 305 -596 596 -26 91 -26 329 0 420 120 433 542 692
982 601z"/>
<path d="M825 1361 c-65 -23 -81 -32 -130 -71 -146 -116 -196 -326 -117 -495
139 -296 537 -328 719 -58 185 277 -16 644 -351 643 -43 -1 -91 -8 -121 -19z
m-67 -160 c5 -32 -23 -54 -49 -40 -19 10 -26 49 -12 63 4 4 19 6 33 4 18 -2
26 -10 28 -27z m450 17 c35 -35 -10 -81 -48 -50 -19 16 -21 22 -11 40 13 24
40 29 59 10z m-191 -33 c63 -19 89 -45 73 -74 -12 -23 -49 -28 -68 -9 -21 21
-117 16 -148 -8 -71 -53 -90 -121 -52 -194 13 -25 37 -53 55 -63 44 -25 114
-24 155 1 29 18 68 68 68 86 0 3 -29 6 -65 6 -56 0 -66 3 -76 22 -10 18 -8 24
11 40 17 14 40 18 100 18 102 0 110 -3 110 -50 0 -80 -49 -158 -123 -195 -155
-77 -328 27 -329 197 -1 112 69 202 177 229 46 11 57 10 112 -6z m-269 -417
c28 -28 1 -75 -38 -63 -14 4 -20 15 -20 35 0 37 33 53 58 28z m466 -10 c13
-21 -2 -51 -26 -56 -16 -3 -48 23 -48 38 0 15 32 41 48 38 8 -2 20 -11 26 -20z"/>
</g>
</svg>
