<?xml version="1.0" standalone="no"?>
<!DOCTYPE svg PUBLIC "-//W3C//DTD SVG 20010904//EN"
 "http://www.w3.org/TR/2001/REC-SVG-20010904/DTD/svg10.dtd">
<svg version="1.0" xmlns="http://www.w3.org/2000/svg"
 width="192.000000pt" height="192.000000pt" viewBox="0 0 192.000000 192.000000"
 preserveAspectRatio="xMidYMid meet">
<metadata>
Created by potrace 1.16, written by Peter Selinger 2001-2019
</metadata>
<g transform="translate(0.000000,192.000000) scale(0.100000,-0.100000)"
fill="#000000" stroke="none">
811 c445 -92 729 -532 635 -987 -62 -301 -295 -546 -601 -630 -91 -26 -329
-26 -420 0 -291 80 -516 305 -596 596 -26 91 -26 329 0 420 120 433 542 692
982 601z"/>
<path d="M657 1245 c-45 -16 -82 -48 -105 -90 -21 -39 -30 -280 -13 -343 14
-51 64 -110 108 -128 42 -18 197 -19 211 -1 6 7 20 39 33 72 27 74 35 85 64
85 29 0 37 -11 64 -85 12 -33 29 -66 38 -72 23 -17 165 -17 206 1 44 18 94 77
108 128 17 64 8 304 -14 344 -22 43 -70 81 -115 94 -58 16 -538 12 -585 -5z
m132 -169 c56 -29 67 -102 22 -147 -42 -42 -99 -41 -135 2 -42 50 -32 114 22
143 34 19 56 20 91 2z m414 3 c60 -31 74 -97 31 -148 -21 -26 -33 -31 -69 -31
-36 0 -48 5 -69 31 -42 50 -28 120 29 145 37 16 51 17 78 3z"/>
<path d="M712 1038 c-23 -23 -13 -36 28 -34 47 2 57 10 40 31 -15 18 -51 20
-68 3z"/>
<path d="M1130 1035 c-17 -20 -7 -29 36 -31 39 -1 51 10 34 31 -16 19 -54 19
-70 0z"/>
</g>
</svg>
