<?xml version="1.0" standalone="no"?>
<!DOCTYPE svg PUBLIC "-//W3C//DTD SVG 20010904//EN"
 "http://www.w3.org/TR/2001/REC-SVG-20010904/DTD/svg10.dtd">
<svg version="1.0" xmlns="http://www.w3.org/2000/svg"
 width="192.000000pt" height="192.000000pt" viewBox="0 0 192.000000 192.000000"
 preserveAspectRatio="xMidYMid meet">
<metadata>
Created by potrace 1.16, written by Peter Selinger 2001-2019
</metadata>
<g transform="translate(0.000000,192.000000) scale(0.100000,-0.100000)"
fill="#000000" stroke="none">
811 c445 -92 729 -532 635 -987 -62 -301 -295 -546 -601 -630 -91 -26 -329
-26 -420 0 -291 80 -516 305 -596 596 -26 91 -26 329 0 420 120 433 542 692
982 601z"/>
<path d="M672 1343 c-44 -21 -100 -88 -107 -127 -4 -17 -5 -141 -3 -276 3
-238 4 -246 26 -278 13 -17 40 -44 59 -60 l36 -27 251 -3 c212 -3 257 0 293
13 51 20 98 71 112 122 14 49 14 466 1 515 -14 50 -55 97 -105 119 -35 16 -69
19 -285 19 -206 0 -250 -3 -278 -17z m538 -78 c56 -29 60 -51 60 -300 0 -249
-4 -271 -60 -300 -16 -8 -55 -15 -87 -15 l-58 0 0 98 c-1 85 -4 103 -27 147
-69 132 -208 206 -354 189 l-54 -7 0 34 c1 63 18 113 50 142 l30 27 236 0
c190 0 241 -3 264 -15z"/>
<path d="M1045 1170 c-27 -30 -25 -88 4 -111 52 -42 131 -8 131 57 0 64 -93
101 -135 54z"/>
</g>
</svg>
