<?xml version="1.0" standalone="no"?>
<!DOCTYPE svg PUBLIC "-//W3C//DTD SVG 20010904//EN"
 "http://www.w3.org/TR/2001/REC-SVG-20010904/DTD/svg10.dtd">
<svg version="1.0" xmlns="http://www.w3.org/2000/svg"
 width="192.000000pt" height="192.000000pt" viewBox="0 0 192.000000 192.000000"
 preserveAspectRatio="xMidYMid meet">
<metadata>
Created by potrace 1.16, written by Peter Selinger 2001-2019
</metadata>
<g transform="translate(0.000000,192.000000) scale(0.100000,-0.100000)"
fill="#000000" stroke="none">
811 c445 -92 729 -532 635 -987 -62 -301 -295 -546 -601 -630 -91 -26 -329
-26 -420 0 -291 80 -516 305 -596 596 -26 91 -26 329 0 420 120 433 542 692
982 601z"/>
<path d="M732 1353 c-18 -9 -44 -35 -57 -58 -25 -42 -25 -42 -25 -330 l0 -288
25 -42 c40 -69 64 -75 280 -75 216 0 240 6 280 75 25 41 25 44 25 286 l-1 244
-99 103 -98 102 -149 0 c-116 0 -155 -4 -181 -17z m316 -130 l3 -72 72 -3 c64
-3 72 -5 72 -23 0 -19 -7 -20 -95 -20 l-95 0 -3 84 c-3 96 1 114 25 109 15 -3
19 -16 21 -75z m73 -312 c28 -34 28 -178 0 -212 -19 -23 -24 -24 -166 -24
-142 0 -147 1 -166 24 -15 18 -19 39 -19 103 0 86 9 114 43 128 12 5 82 8 155
7 127 -2 135 -3 153 -26z"/>
<path d="M820 805 l0 -75 135 0 135 0 0 75 0 75 -135 0 -135 0 0 -75z"/>
</g>
</svg>
