<?xml version="1.0" standalone="no"?>
<!DOCTYPE svg PUBLIC "-//W3C//DTD SVG 20010904//EN"
 "http://www.w3.org/TR/2001/REC-SVG-20010904/DTD/svg10.dtd">
<svg version="1.0" xmlns="http://www.w3.org/2000/svg"
 width="192.000000pt" height="192.000000pt" viewBox="0 0 192.000000 192.000000"
 preserveAspectRatio="xMidYMid meet">
<metadata>
Created by potrace 1.16, written by Peter Selinger 2001-2019
</metadata>
<g transform="translate(0.000000,192.000000) scale(0.100000,-0.100000)"
fill="#000000" stroke="none">
811 c445 -92 729 -532 635 -987 -62 -301 -295 -546 -601 -630 -91 -26 -329
-26 -420 0 -291 80 -516 305 -596 596 -26 91 -26 329 0 420 120 433 542 692
982 601z"/>
<path d="M892 1338 c-7 -7 -12 -20 -12 -31 0 -23 203 -373 236 -407 22 -22 34
-25 113 -28 100 -4 131 6 131 43 0 29 -202 381 -237 413 -22 20 -34 22 -122
22 -62 0 -101 -4 -109 -12z"/>
<path d="M759 1243 c-23 -26 -205 -344 -214 -371 -8 -27 38 -128 85 -183 24
-30 30 -32 51 -22 29 13 228 347 235 396 8 46 -79 191 -117 195 -15 2 -31 -4
-40 -15z"/>
<path d="M862 807 c-27 -13 -112 -151 -112 -182 0 -43 13 -45 253 -45 l229 0
27 28 c27 27 101 152 101 170 0 6 -7 18 -16 26 -13 14 -48 16 -237 15 -143 0
-230 -4 -245 -12z"/>
</g>
</svg>
