<?xml version="1.0" standalone="no"?>
<!DOCTYPE svg PUBLIC "-//W3C//DTD SVG 20010904//EN"
 "http://www.w3.org/TR/2001/REC-SVG-20010904/DTD/svg10.dtd">
<svg version="1.0" xmlns="http://www.w3.org/2000/svg"
 width="192.000000pt" height="192.000000pt" viewBox="0 0 192.000000 192.000000"
 preserveAspectRatio="xMidYMid meet">
<metadata>
Created by potrace 1.16, written by Peter Selinger 2001-2019
</metadata>
<g transform="translate(0.000000,192.000000) scale(0.100000,-0.100000)"
fill="#000000" stroke="none">
811 c445 -92 729 -532 635 -987 -62 -301 -295 -546 -601 -630 -91 -26 -329
-26 -420 0 -291 80 -516 305 -596 596 -26 91 -26 329 0 420 120 433 542 692
982 601z"/>
<path d="M615 1338 c-20 -18 -32 -46 -50 -120 -22 -84 -23 -101 -12 -134 24
-74 123 -109 180 -64 l26 20 33 -20 c42 -25 94 -25 136 0 l33 20 26 -20 c33
-26 88 -26 131 0 32 20 32 20 65 0 67 -41 146 -14 177 61 11 27 10 44 -10 131
-20 82 -29 104 -53 124 l-29 24 -313 0 c-311 0 -314 0 -340 -22z"/>
<path d="M730 962 c-21 -8 -54 -12 -82 -10 l-48 5 0 -141 c0 -133 1 -143 24
-177 46 -67 64 -70 345 -67 284 3 285 4 329 88 19 39 22 59 22 171 l0 128 -54
-6 c-38 -4 -63 -1 -85 10 -27 14 -35 14 -59 1 -34 -18 -93 -18 -136 0 -27 11
-36 11 -57 0 -31 -17 -91 -18 -132 -1 -27 12 -37 11 -67 -1z m269 -103 c21 -7
31 -18 31 -31 0 -18 -4 -19 -49 -13 -42 6 -52 4 -70 -14 -28 -28 -27 -75 1
-101 26 -24 56 -26 86 -4 31 21 28 32 -10 36 -21 2 -33 8 -33 18 0 11 14 16
58 18 56 3 57 2 57 -23 0 -77 -82 -131 -152 -102 -47 20 -70 50 -75 100 -4 36
-1 48 23 76 41 49 76 60 133 40z"/>
</g>
</svg>
