<?xml version="1.0" standalone="no"?>
<!DOCTYPE svg PUBLIC "-//W3C//DTD SVG 20010904//EN"
 "http://www.w3.org/TR/2001/REC-SVG-20010904/DTD/svg10.dtd">
<svg version="1.0" xmlns="http://www.w3.org/2000/svg"
 width="192.000000pt" height="192.000000pt" viewBox="0 0 192.000000 192.000000"
 preserveAspectRatio="xMidYMid meet">
<metadata>
Created by potrace 1.16, written by Peter Selinger 2001-2019
</metadata>
<g transform="translate(0.000000,192.000000) scale(0.100000,-0.100000)"
fill="#000000" stroke="none">
811 c445 -92 729 -532 635 -987 -62 -301 -295 -546 -601 -630 -91 -26 -329
-26 -420 0 -291 80 -516 305 -596 596 -26 91 -26 329 0 420 120 433 542 692
982 601z"/>
<path d="M783 1373 c-12 -2 -34 -18 -48 -34 -24 -29 -25 -36 -25 -164 0 -73 3
-141 6 -150 12 -29 214 -185 241 -185 15 0 61 29 126 82 56 45 105 87 109 93
4 5 8 75 8 155 0 165 -6 182 -68 200 -35 9 -302 12 -349 3z m167 -83 c0 -11
-6 -36 -14 -55 l-15 -34 82 -3 82 -3 -1 -66 c-2 -89 -25 -136 -78 -160 -23
-10 -56 -19 -73 -19 -28 0 -33 3 -33 25 0 19 6 26 28 30 82 17 102 38 102 108
l0 37 -105 0 c-95 0 -105 2 -105 18 0 10 13 28 30 40 17 13 34 39 41 62 10 32
17 40 36 40 16 0 23 -6 23 -20z"/>
<path d="M648 939 c-21 -12 -24 -59 -6 -77 19 -19 66 -15 78 7 14 28 13 38
-10 61 -22 22 -37 24 -62 9z"/>
<path d="M1208 939 c-21 -12 -24 -59 -6 -77 19 -19 66 -15 78 7 14 28 13 38
-10 61 -22 22 -37 24 -62 9z"/>
<path d="M642 788 c-20 -20 -14 -66 9 -79 44 -23 93 26 69 71 -12 23 -58 28
-78 8z"/>
<path d="M782 788 c-28 -28 -3 -88 37 -88 10 0 26 9 36 20 27 30 10 74 -30 78
-17 2 -36 -3 -43 -10z"/>
<path d="M922 788 c-20 -20 -14 -66 9 -79 44 -23 93 26 69 71 -12 23 -58 28
-78 8z"/>
<path d="M1062 788 c-18 -18 -15 -53 6 -71 24 -22 45 -21 65 1 34 37 15 82
-33 82 -14 0 -31 -5 -38 -12z"/>
<path d="M1202 788 c-20 -20 -14 -66 9 -79 44 -23 93 26 69 71 -12 23 -58 28
-78 8z"/>
<path d="M756 644 c-9 -8 -16 -24 -16 -34 0 -46 20 -50 220 -50 158 0 191 3
204 16 21 21 20 47 -2 67 -27 25 -382 25 -406 1z"/>
</g>
</svg>
