<?xml version="1.0" standalone="no"?>
<!DOCTYPE svg PUBLIC "-//W3C//DTD SVG 20010904//EN"
 "http://www.w3.org/TR/2001/REC-SVG-20010904/DTD/svg10.dtd">
<svg version="1.0" xmlns="http://www.w3.org/2000/svg"
 width="192.000000pt" height="192.000000pt" viewBox="0 0 192.000000 192.000000"
 preserveAspectRatio="xMidYMid meet">
<metadata>
Created by potrace 1.16, written by Peter Selinger 2001-2019
</metadata>
<g transform="translate(0.000000,192.000000) scale(0.100000,-0.100000)"
fill="#000000" stroke="none">
811 c445 -92 729 -532 635 -987 -62 -301 -295 -546 -601 -630 -91 -26 -329
-26 -420 0 -291 80 -516 305 -596 596 -26 91 -26 329 0 420 120 433 542 692
982 601z"/>
<path d="M682 1366 c-63 -21 -107 -59 -137 -121 -78 -158 34 -339 209 -339
201 1 311 239 179 385 -67 74 -164 103 -251 75z m138 -99 c30 -15 39 -54 15
-63 -9 -4 -32 -2 -50 3 -38 12 -88 -4 -99 -32 -12 -32 -6 -75 14 -95 22 -22
70 -26 101 -10 26 15 24 30 -5 30 -36 0 -59 26 -45 51 9 17 19 20 77 17 l67
-3 3 -35 c5 -70 -66 -140 -143 -140 -104 0 -178 117 -131 208 16 30 53 66 76
75 28 10 95 7 120 -6z"/>
<path d="M1286 1219 c-48 -38 -23 -111 39 -111 62 0 87 73 39 111 -15 12 -32
21 -39 21 -7 0 -24 -9 -39 -21z"/>
<path d="M1054 1117 c-113 -103 22 -277 152 -198 20 12 38 35 48 63 22 58 6
112 -43 145 -52 35 -112 32 -157 -10z"/>
<path d="M1049 826 c-95 -64 -82 -208 22 -261 93 -49 219 32 219 141 0 114
-144 185 -241 120z"/>
</g>
</svg>
