<?xml version="1.0" standalone="no"?>
<!DOCTYPE svg PUBLIC "-//W3C//DTD SVG 20010904//EN"
 "http://www.w3.org/TR/2001/REC-SVG-20010904/DTD/svg10.dtd">
<svg version="1.0" xmlns="http://www.w3.org/2000/svg"
 width="192.000000pt" height="192.000000pt" viewBox="0 0 192.000000 192.000000"
 preserveAspectRatio="xMidYMid meet">
<metadata>
Created by potrace 1.16, written by Peter Selinger 2001-2019
</metadata>
<g transform="translate(0.000000,192.000000) scale(0.100000,-0.100000)"
fill="#000000" stroke="none">
811 c445 -92 729 -532 635 -987 -62 -301 -295 -546 -601 -630 -91 -26 -329
-26 -420 0 -291 80 -516 305 -596 596 -26 91 -26 329 0 420 120 433 542 692
982 601z"/>
<path d="M833 1355 c-226 -70 -344 -324 -257 -552 15 -37 15 -52 6 -94 -29
-124 -8 -146 116 -118 42 10 57 9 108 -9 119 -40 213 -37 320 12 287 132 314
545 46 714 -91 58 -239 79 -339 47z m224 -154 c23 -11 46 -28 52 -39 25 -46
-24 -76 -77 -48 -40 21 -115 20 -159 -1 -65 -30 -103 -118 -84 -191 15 -53 46
-91 95 -113 51 -23 84 -24 137 -3 37 15 99 81 99 106 0 4 -30 8 -67 8 -38 0
-73 4 -79 8 -22 15 -24 42 -3 63 18 18 31 19 127 17 l107 -3 3 -47 c6 -91 -64
-196 -157 -235 -50 -22 -136 -21 -193 0 -52 20 -121 89 -144 142 -22 54 -18
151 10 210 56 122 212 180 333 126z"/>
</g>
</svg>
