<?xml version="1.0" standalone="no"?>
<!DOCTYPE svg PUBLIC "-//W3C//DTD SVG 20010904//EN"
 "http://www.w3.org/TR/2001/REC-SVG-20010904/DTD/svg10.dtd">
<svg version="1.0" xmlns="http://www.w3.org/2000/svg"
 width="192.000000pt" height="192.000000pt" viewBox="0 0 192.000000 192.000000"
 preserveAspectRatio="xMidYMid meet">
<metadata>
Created by potrace 1.16, written by Peter Selinger 2001-2019
</metadata>
<g transform="translate(0.000000,192.000000) scale(0.100000,-0.100000)"
fill="#000000" stroke="none">
811 c445 -92 729 -532 635 -987 -62 -301 -295 -546 -601 -630 -91 -26 -329
-26 -420 0 -291 80 -516 305 -596 596 -26 91 -26 329 0 420 120 433 542 692
982 601z"/>
<path d="M835 1357 c-105 -35 -206 -124 -253 -225 -24 -51 -27 -69 -27 -167 0
-104 2 -114 32 -176 40 -80 120 -159 200 -197 52 -24 69 -27 168 -27 104 0
114 2 176 32 81 40 160 121 197 200 22 48 26 73 27 143 l0 85 -179 3 c-200 3
-216 -2 -216 -63 0 -56 27 -69 146 -73 76 -3 104 -8 104 -17 0 -28 -68 -111
-114 -140 -62 -38 -171 -47 -241 -21 -55 21 -121 84 -146 139 -25 57 -25 167
0 223 24 52 83 111 135 135 62 28 167 26 234 -6 67 -31 83 -31 110 -2 46 48
20 96 -73 138 -61 28 -217 36 -280 16z"/>
</g>
</svg>
