<?xml version="1.0" standalone="no"?>
<!DOCTYPE svg PUBLIC "-//W3C//DTD SVG 20010904//EN"
 "http://www.w3.org/TR/2001/REC-SVG-20010904/DTD/svg10.dtd">
<svg version="1.0" xmlns="http://www.w3.org/2000/svg"
 width="192.000000pt" height="192.000000pt" viewBox="0 0 192.000000 192.000000"
 preserveAspectRatio="xMidYMid meet">
<metadata>
Created by potrace 1.16, written by Peter Selinger 2001-2019
</metadata>
<g transform="translate(0.000000,192.000000) scale(0.100000,-0.100000)"
fill="#000000" stroke="none">
811 c445 -92 729 -532 635 -987 -62 -301 -295 -546 -601 -630 -91 -26 -329
-26 -420 0 -291 80 -516 305 -596 596 -26 91 -26 329 0 420 120 433 542 692
982 601z"/>
<path d="M628 1361 c-75 -15 -88 -53 -63 -176 53 -257 232 -472 474 -570 75
-31 221 -60 255 -51 57 14 66 36 66 155 0 138 -4 145 -123 176 -103 28 -133
22 -169 -31 -13 -18 -27 -34 -31 -34 -29 0 -149 108 -197 179 l-23 34 40 36
c22 20 43 44 47 54 7 21 -28 168 -47 198 -6 10 -25 23 -41 29 -32 11 -131 12
-188 1z"/>
</g>
</svg>
