<?xml version="1.0" standalone="no"?>
<!DOCTYPE svg PUBLIC "-//W3C//DTD SVG 20010904//EN"
 "http://www.w3.org/TR/2001/REC-SVG-20010904/DTD/svg10.dtd">
<svg version="1.0" xmlns="http://www.w3.org/2000/svg"
 width="192.000000pt" height="192.000000pt" viewBox="0 0 192.000000 192.000000"
 preserveAspectRatio="xMidYMid meet">
<metadata>
Created by potrace 1.16, written by Peter Selinger 2001-2019
</metadata>
<g transform="translate(0.000000,192.000000) scale(0.100000,-0.100000)"
fill="#000000" stroke="none">
811 c445 -92 729 -532 635 -987 -62 -301 -295 -546 -601 -630 -91 -26 -329
-26 -420 0 -291 80 -516 305 -596 596 -26 91 -26 329 0 420 120 433 542 692
982 601z"/>
<path d="M965 1378 c-3 -7 -6 -51 -7 -98 l-3 -85 -115 -3 -115 -3 -93 -92
c-122 -121 -121 -131 6 -135 l92 -3 0 -117 0 -117 93 -93 c125 -124 137 -123
137 19 l0 79 113 0 112 0 99 99 c123 123 123 131 -4 131 l-90 0 0 117 0 117
-98 98 c-96 96 -118 111 -127 86z m15 -375 c0 -6 19 -18 43 -26 l42 -14 -38
-12 c-31 -10 -42 -22 -56 -53 l-17 -41 -12 40 c-10 35 -17 41 -54 53 l-43 13
42 14 c37 13 44 20 55 55 l12 41 13 -29 c6 -16 12 -34 13 -41z"/>
</g>
</svg>
