<?xml version="1.0" standalone="no"?>
<!DOCTYPE svg PUBLIC "-//W3C//DTD SVG 20010904//EN"
 "http://www.w3.org/TR/2001/REC-SVG-20010904/DTD/svg10.dtd">
<svg version="1.0" xmlns="http://www.w3.org/2000/svg"
 width="192.000000pt" height="192.000000pt" viewBox="0 0 192.000000 192.000000"
 preserveAspectRatio="xMidYMid meet">
<metadata>
Created by potrace 1.16, written by Peter Selinger 2001-2019
</metadata>
<g transform="translate(0.000000,192.000000) scale(0.100000,-0.100000)"
fill="#000000" stroke="none">
811 c445 -92 729 -532 635 -987 -62 -301 -295 -546 -601 -630 -91 -26 -329
-26 -420 0 -291 80 -516 305 -596 596 -26 91 -26 329 0 420 120 433 542 692
982 601z"/>
<path d="M994 1355 c-25 -25 -25 -27 -22 -175 3 -137 5 -151 24 -171 45 -44
163 -34 204 18 28 36 29 221 1 273 -39 73 -158 104 -207 55z"/>
<path d="M620 1212 c-72 -38 -104 -159 -55 -208 25 -25 26 -25 176 -22 144 3
152 4 170 26 41 52 36 147 -11 194 -28 27 -31 28 -137 28 -85 0 -116 -4 -143
-18z"/>
<path d="M764 943 c-12 -2 -34 -18 -50 -34 -28 -30 -29 -33 -29 -137 0 -89 3
-113 20 -142 38 -65 151 -101 203 -64 21 15 22 21 22 170 0 86 -4 164 -10 174
-17 32 -87 47 -156 33z"/>
<path d="M999 921 c-18 -14 -23 -31 -27 -78 -9 -120 40 -158 193 -151 141 6
195 51 195 161 0 85 -4 87 -185 87 -134 0 -156 -2 -176 -19z"/>
</g>
</svg>
