<?xml version="1.0" standalone="no"?>
<!DOCTYPE svg PUBLIC "-//W3C//DTD SVG 20010904//EN"
 "http://www.w3.org/TR/2001/REC-SVG-20010904/DTD/svg10.dtd">
<svg version="1.0" xmlns="http://www.w3.org/2000/svg"
 width="192.000000pt" height="192.000000pt" viewBox="0 0 192.000000 192.000000"
 preserveAspectRatio="xMidYMid meet">
<metadata>
Created by potrace 1.16, written by Peter Selinger 2001-2019
</metadata>
<g transform="translate(0.000000,192.000000) scale(0.100000,-0.100000)"
fill="#000000" stroke="none">
810 c149 -35 263 -99 377 -209 169 -163 247 -351 247 -596 0 -245 -78 -433
-247 -596 -165 -159 -340 -229 -578 -229 -238 0 -413 70 -578 229 -169 163
-247 351 -247 596 0 238 70 413 229 578 111 115 239 190 390 227 107 26 298
26 407 0z"/>
<path d="M845 1367 c-186 -62 -305 -219 -305 -402 0 -162 94 -305 249 -379 60
-28 75 -31 166 -31 91 0 106 3 166 31 155 74 249 217 249 379 0 163 -94 306
-249 378 -54 26 -80 32 -151 34 -52 2 -101 -2 -125 -10z m90 -347 l0 -85 -57
-3 c-57 -3 -58 -4 -58 -32 0 -30 0 -30 60 -30 l60 0 0 -30 0 -30 -90 0 -91 0
3 88 3 87 58 3 c56 3 57 4 57 32 0 27 -3 30 -30 30 -16 0 -30 -4 -30 -10 0 -5
-13 -10 -30 -10 -27 0 -30 3 -30 33 0 19 3 37 7 41 4 4 43 5 88 4 l80 -3 0
-85z m245 60 l0 -30 -60 0 c-60 0 -60 0 -60 -30 0 -28 1 -29 58 -32 l57 -3 0
-85 0 -85 -85 0 -85 0 -3 43 c-3 41 -2 42 27 42 21 0 31 -5 31 -15 0 -10 10
-15 30 -15 27 0 30 3 30 30 l0 30 -60 0 -60 0 0 90 0 90 90 0 90 0 0 -30z"/>
</g>
</svg>
