<?xml version="1.0" standalone="no"?>
<!DOCTYPE svg PUBLIC "-//W3C//DTD SVG 20010904//EN"
 "http://www.w3.org/TR/2001/REC-SVG-20010904/DTD/svg10.dtd">
<svg version="1.0" xmlns="http://www.w3.org/2000/svg"
 width="192.000000pt" height="192.000000pt" viewBox="0 0 192.000000 192.000000"
 preserveAspectRatio="xMidYMid meet">
<metadata>
Created by potrace 1.16, written by Peter Selinger 2001-2019
</metadata>
<g transform="translate(0.000000,192.000000) scale(0.100000,-0.100000)"
fill="#000000" stroke="none">
811 c445 -92 729 -532 635 -987 -62 -301 -295 -546 -601 -630 -91 -26 -329
-26 -420 0 -291 80 -516 305 -596 596 -26 91 -26 329 0 420 120 433 542 692
982 601z"/>
<path d="M901 1279 c-13 -5 -100 -82 -192 -170 -153 -146 -169 -165 -169 -195
0 -23 6 -37 19 -44 13 -6 157 -10 399 -10 354 0 380 1 395 18 35 38 22 57
-144 220 -88 86 -175 165 -192 175 -35 19 -79 21 -116 6z"/>
<path d="M754 816 c-7 -18 21 -85 49 -114 60 -65 167 -81 248 -39 46 25 95 91
101 137 l3 25 -198 3 c-162 2 -198 0 -203 -12z"/>
</g>
</svg>
