<?xml version="1.0" standalone="no"?>
<!DOCTYPE svg PUBLIC "-//W3C//DTD SVG 20010904//EN"
 "http://www.w3.org/TR/2001/REC-SVG-20010904/DTD/svg10.dtd">
<svg version="1.0" xmlns="http://www.w3.org/2000/svg"
 width="192.000000pt" height="192.000000pt" viewBox="0 0 192.000000 192.000000"
 preserveAspectRatio="xMidYMid meet">
<metadata>
Created by potrace 1.16, written by Peter Selinger 2001-2019
</metadata>
<g transform="translate(0.000000,192.000000) scale(0.100000,-0.100000)"
fill="#000000" stroke="none">
811 c445 -92 729 -532 635 -987 -62 -301 -295 -546 -601 -630 -91 -26 -329
-26 -420 0 -291 80 -516 305 -596 596 -26 91 -26 329 0 420 120 433 542 692
982 601z"/>
<path d="M899 1390 c-115 -19 -225 -104 -275 -213 -24 -52 -28 -75 -29 -147 0
-122 30 -179 173 -337 61 -67 122 -129 134 -137 12 -9 40 -16 62 -16 36 0 46
6 101 63 115 119 207 230 227 274 118 267 -106 559 -393 513z m134 -289 c52
-51 36 -135 -31 -167 -48 -23 -105 -6 -132 39 -24 39 -25 68 -4 108 32 63 115
72 167 20z"/>
</g>
</svg>
