<?xml version="1.0" standalone="no"?>
<!DOCTYPE svg PUBLIC "-//W3C//DTD SVG 20010904//EN"
 "http://www.w3.org/TR/2001/REC-SVG-20010904/DTD/svg10.dtd">
<svg version="1.0" xmlns="http://www.w3.org/2000/svg"
 width="192.000000pt" height="192.000000pt" viewBox="0 0 192.000000 192.000000"
 preserveAspectRatio="xMidYMid meet">
<metadata>
Created by potrace 1.16, written by Peter Selinger 2001-2019
</metadata>
<g transform="translate(0.000000,192.000000) scale(0.100000,-0.100000)"
fill="#000000" stroke="none">
811 c445 -92 729 -532 635 -987 -62 -301 -295 -546 -601 -630 -91 -26 -329
-26 -420 0 -291 80 -516 305 -596 596 -26 91 -26 329 0 420 120 433 542 692
982 601z"/>
<path d="M659 1337 c-66 -44 -69 -59 -69 -375 0 -261 1 -286 20 -321 25 -50
94 -86 147 -78 39 7 473 257 515 298 51 50 56 139 10 196 -14 18 -370 235
-470 287 -45 23 -112 21 -153 -7z m191 -207 c73 -82 136 -150 139 -150 4 0 28
25 54 55 l48 54 62 -38 c105 -64 109 -111 12 -169 -29 -18 -56 -32 -60 -32 -4
0 -33 27 -64 60 l-56 60 -140 -161 c-184 -211 -175 -220 -175 157 0 261 1 275
20 294 11 11 22 20 24 20 2 0 64 -67 136 -150z"/>
</g>
</svg>
