<?xml version="1.0" standalone="no"?>
<!DOCTYPE svg PUBLIC "-//W3C//DTD SVG 20010904//EN"
 "http://www.w3.org/TR/2001/REC-SVG-20010904/DTD/svg10.dtd">
<svg version="1.0" xmlns="http://www.w3.org/2000/svg"
 width="192.000000pt" height="192.000000pt" viewBox="0 0 192.000000 192.000000"
 preserveAspectRatio="xMidYMid meet">
<metadata>
Created by potrace 1.16, written by Peter Selinger 2001-2019
</metadata>
<g transform="translate(0.000000,192.000000) scale(0.100000,-0.100000)"
fill="#000000" stroke="none">
811 c445 -92 729 -532 635 -987 -62 -301 -295 -546 -601 -630 -91 -26 -329
-26 -420 0 -291 80 -516 305 -596 596 -26 91 -26 329 0 420 120 433 542 692
982 601z"/>
<path d="M850 1366 c-250 -70 -379 -341 -272 -571 122 -260 468 -320 668 -117
154 157 161 399 15 563 -98 111 -271 164 -411 125z m242 -99 c71 -32 133 -94
166 -166 46 -99 33 -242 -31 -326 -14 -18 -17 -19 -34 -4 -10 9 -37 26 -60 38
l-42 21 24 47 c38 70 28 160 -23 216 -47 52 -147 72 -215 43 -44 -18 -95 -78
-103 -121 -10 -54 1 -120 25 -154 l22 -31 -26 -10 c-14 -5 -42 -21 -62 -34
-20 -14 -40 -23 -45 -20 -5 3 -21 29 -36 57 -23 45 -27 64 -27 142 0 78 4 97
28 147 41 84 129 155 222 179 55 15 158 4 217 -24z m-44 -368 c4 -20 -42 -65
-71 -71 -55 -11 -117 29 -117 75 0 16 9 17 92 15 75 -2 93 -6 96 -19z"/>
</g>
</svg>
