<?xml version="1.0" standalone="no"?>
<!DOCTYPE svg PUBLIC "-//W3C//DTD SVG 20010904//EN"
 "http://www.w3.org/TR/2001/REC-SVG-20010904/DTD/svg10.dtd">
<svg version="1.0" xmlns="http://www.w3.org/2000/svg"
 width="192.000000pt" height="192.000000pt" viewBox="0 0 192.000000 192.000000"
 preserveAspectRatio="xMidYMid meet">
<metadata>
Created by potrace 1.16, written by Peter Selinger 2001-2019
</metadata>
<g transform="translate(0.000000,192.000000) scale(0.100000,-0.100000)"
fill="#000000" stroke="none">
811 c445 -92 729 -532 635 -987 -62 -301 -295 -546 -601 -630 -91 -26 -329
-26 -420 0 -291 80 -516 305 -596 596 -26 91 -26 329 0 420 120 433 542 692
982 601z"/>
<path d="M689 1330 c-45 -8 -125 -54 -139 -80 -5 -10 -10 -56 -10 -102 0 -82
1 -85 33 -116 39 -38 94 -62 142 -62 l35 0 0 -169 c0 -198 1 -201 84 -201 28
0 57 5 64 12 16 16 17 563 1 605 -30 80 -122 130 -210 113z m11 -175 c10 -12
10 -21 2 -40 -19 -42 -72 -26 -72 21 0 34 47 46 70 19z"/>
<path d="M1132 1328 c-58 -13 -115 -69 -130 -131 -8 -29 -12 -140 -12 -299 0
-299 0 -298 84 -298 84 0 86 6 86 203 l0 167 26 0 c45 0 101 21 138 52 l36 29
0 99 0 98 -34 30 c-52 46 -126 65 -194 50z m138 -173 c26 -32 -13 -81 -47 -59
-35 22 -23 74 17 74 10 0 23 -7 30 -15z"/>
</g>
</svg>
