<?xml version="1.0" standalone="no"?>
<!DOCTYPE svg PUBLIC "-//W3C//DTD SVG 20010904//EN"
 "http://www.w3.org/TR/2001/REC-SVG-20010904/DTD/svg10.dtd">
<svg version="1.0" xmlns="http://www.w3.org/2000/svg"
 width="192.000000pt" height="192.000000pt" viewBox="0 0 192.000000 192.000000"
 preserveAspectRatio="xMidYMid meet">
<metadata>
Created by potrace 1.16, written by Peter Selinger 2001-2019
</metadata>
<g transform="translate(0.000000,192.000000) scale(0.100000,-0.100000)"
fill="#000000" stroke="none">
811 c445 -92 729 -532 635 -987 -62 -301 -295 -546 -601 -630 -91 -26 -329
-26 -420 0 -291 80 -516 305 -596 596 -26 91 -26 329 0 420 120 433 542 692
982 601z"/>
<path d="M865 1213 c-121 -25 -315 -122 -315 -156 0 -29 78 -192 91 -190 8 0
49 10 91 22 88 23 228 38 228 25 0 -5 -26 -17 -58 -26 -32 -9 -76 -31 -99 -47
l-42 -30 21 -48 c31 -72 43 -82 70 -55 52 48 194 92 299 92 l67 0 21 68 c24
78 24 77 -66 118 -79 36 -202 57 -299 52 -46 -2 -84 -3 -84 -2 0 1 23 10 51
19 119 40 268 37 386 -6 88 -32 103 -30 118 11 30 86 33 78 -37 109 -128 58
-298 75 -443 44z"/>
</g>
</svg>
