<?xml version="1.0" standalone="no"?>
<!DOCTYPE svg PUBLIC "-//W3C//DTD SVG 20010904//EN"
 "http://www.w3.org/TR/2001/REC-SVG-20010904/DTD/svg10.dtd">
<svg version="1.0" xmlns="http://www.w3.org/2000/svg"
 width="192.000000pt" height="192.000000pt" viewBox="0 0 192.000000 192.000000"
 preserveAspectRatio="xMidYMid meet">
<metadata>
Created by potrace 1.16, written by Peter Selinger 2001-2019
</metadata>
<g transform="translate(0.000000,192.000000) scale(0.100000,-0.100000)"
fill="#000000" stroke="none">
811 c445 -92 729 -532 635 -987 -62 -301 -295 -546 -601 -630 -91 -26 -329
-26 -420 0 -291 80 -516 305 -596 596 -26 91 -26 329 0 420 120 433 542 692
982 601z"/>
<path d="M886 1369 c-121 -20 -242 -112 -299 -229 -30 -61 -32 -71 -32 -175 0
-104 2 -114 33 -177 41 -84 128 -167 209 -199 47 -19 78 -23 158 -24 92 0 105
3 167 32 188 89 279 294 219 491 -24 81 -25 102 -9 171 10 45 9 53 -7 71 -21
23 -43 25 -114 8 -45 -10 -59 -9 -114 9 -76 26 -146 33 -211 22z m173 -167
c19 -9 41 -27 48 -39 13 -19 12 -24 -7 -43 -14 -14 -27 -19 -38 -14 -95 41
-144 41 -203 1 -77 -51 -98 -157 -46 -236 66 -100 214 -96 285 9 l23 35 -69 3
c-78 3 -109 23 -97 61 9 28 32 32 150 29 l100 -3 3 -47 c8 -130 -112 -248
-252 -248 -212 0 -337 239 -213 407 74 101 211 137 316 85z"/>
</g>
</svg>
