<?xml version="1.0" standalone="no"?>
<!DOCTYPE svg PUBLIC "-//W3C//DTD SVG 20010904//EN"
 "http://www.w3.org/TR/2001/REC-SVG-20010904/DTD/svg10.dtd">
<svg version="1.0" xmlns="http://www.w3.org/2000/svg"
 width="192.000000pt" height="192.000000pt" viewBox="0 0 192.000000 192.000000"
 preserveAspectRatio="xMidYMid meet">
<metadata>
Created by potrace 1.16, written by Peter Selinger 2001-2019
</metadata>
<g transform="translate(0.000000,192.000000) scale(0.100000,-0.100000)"
fill="#000000" stroke="none">
811 c445 -92 729 -532 635 -987 -62 -301 -295 -546 -601 -630 -91 -26 -329
-26 -420 0 -291 80 -516 305 -596 596 -26 91 -26 329 0 420 120 433 542 692
982 601z"/>
<path d="M891 1420 c-71 -15 -127 -48 -180 -106 -58 -64 -85 -133 -85 -219 0
-117 39 -183 215 -368 68 -71 77 -77 114 -77 37 0 46 6 114 77 176 185 215
251 215 368 0 95 -27 160 -98 231 -44 44 -75 65 -111 77 -68 22 -131 27 -184
17z m130 -259 c21 -22 29 -39 29 -66 0 -51 -44 -95 -95 -95 -51 0 -95 44 -95
95 0 27 8 44 29 66 22 21 39 29 66 29 27 0 44 -8 66 -29z"/>
<path d="M686 719 c-87 -103 46 -209 263 -209 184 0 301 60 301 155 0 31 -52
88 -76 83 -33 -6 -40 -35 -16 -67 l22 -30 -26 -20 c-41 -32 -101 -45 -209 -45
-82 0 -109 4 -152 23 -56 25 -71 45 -50 70 25 29 27 39 11 55 -23 23 -39 20
-68 -15z"/>
</g>
</svg>
