<?xml version="1.0" standalone="no"?>
<!DOCTYPE svg PUBLIC "-//W3C//DTD SVG 20010904//EN"
 "http://www.w3.org/TR/2001/REC-SVG-20010904/DTD/svg10.dtd">
<svg version="1.0" xmlns="http://www.w3.org/2000/svg"
 width="192.000000pt" height="192.000000pt" viewBox="0 0 192.000000 192.000000"
 preserveAspectRatio="xMidYMid meet">
<metadata>
Created by potrace 1.16, written by Peter Selinger 2001-2019
</metadata>
<g transform="translate(0.000000,192.000000) scale(0.100000,-0.100000)"
fill="#000000" stroke="none">
811 c445 -92 729 -532 635 -987 -62 -301 -295 -546 -601 -630 -91 -26 -329
-26 -420 0 -291 80 -516 305 -596 596 -26 91 -26 329 0 420 120 433 542 692
982 601z"/>
<path d="M636 1340 c-15 -5 -37 -17 -48 -27 -44 -39 -48 -68 -48 -350 0 -295
3 -313 63 -357 27 -20 41 -21 352 -21 311 0 325 1 352 21 58 42 63 68 63 299
0 231 -5 257 -63 299 -25 19 -47 22 -192 26 l-163 5 -51 48 c-28 26 -62 52
-76 57 -31 12 -149 12 -189 0z m383 -274 c46 -16 61 -40 40 -62 -15 -14 -20
-14 -63 0 -42 14 -50 14 -85 0 -139 -56 -73 -254 76 -226 24 5 83 56 83 73 0
5 -20 9 -44 9 -48 0 -79 20 -69 45 7 21 37 27 113 23 l65 -3 3 -33 c5 -48 -31
-115 -80 -148 -56 -39 -147 -41 -200 -5 -48 33 -80 83 -85 135 -7 59 10 105
55 148 58 55 120 70 191 44z"/>
</g>
</svg>
