<?xml version="1.0" standalone="no"?>
<!DOCTYPE svg PUBLIC "-//W3C//DTD SVG 20010904//EN"
 "http://www.w3.org/TR/2001/REC-SVG-20010904/DTD/svg10.dtd">
<svg version="1.0" xmlns="http://www.w3.org/2000/svg"
 width="192.000000pt" height="192.000000pt" viewBox="0 0 192.000000 192.000000"
 preserveAspectRatio="xMidYMid meet">
<metadata>
Created by potrace 1.16, written by Peter Selinger 2001-2019
</metadata>
<g transform="translate(0.000000,192.000000) scale(0.100000,-0.100000)"
fill="#000000" stroke="none">
811 c445 -92 729 -532 635 -987 -62 -301 -295 -546 -601 -630 -91 -26 -329
-26 -420 0 -291 80 -516 305 -596 596 -26 91 -26 329 0 420 120 433 542 692
982 601z"/>
<path d="M621 1332 c-19 -9 -44 -30 -55 -45 -20 -27 -21 -41 -21 -322 0 -411
-28 -385 410 -385 330 0 345 2 389 63 20 26 21 44 24 255 2 213 1 229 -18 260
-39 64 -67 72 -238 72 l-153 0 -52 49 c-29 28 -65 55 -81 60 -45 18 -166 14
-205 -7z m250 -298 c56 -29 44 -79 -14 -55 -61 25 -81 24 -115 -4 -86 -72 14
-204 106 -139 32 22 28 44 -8 44 -25 0 -30 4 -30 25 0 25 1 26 63 23 l62 -3
-1 -37 c-2 -79 -67 -131 -152 -125 -45 3 -59 9 -89 40 -31 30 -37 44 -41 91
-3 43 0 62 16 88 45 71 125 92 203 52z m325 -5 c61 -37 83 -133 44 -197 -55
-91 -172 -96 -244 -12 -20 25 -26 42 -26 81 0 79 27 120 97 145 44 15 85 10
129 -17z"/>
<path d="M1068 985 c-54 -30 -57 -113 -6 -149 91 -64 193 66 107 138 -34 29
-61 32 -101 11z"/>
</g>
</svg>
