<?xml version="1.0" standalone="no"?>
<!DOCTYPE svg PUBLIC "-//W3C//DTD SVG 20010904//EN"
 "http://www.w3.org/TR/2001/REC-SVG-20010904/DTD/svg10.dtd">
<svg version="1.0" xmlns="http://www.w3.org/2000/svg"
 width="192.000000pt" height="192.000000pt" viewBox="0 0 192.000000 192.000000"
 preserveAspectRatio="xMidYMid meet">
<metadata>
Created by potrace 1.16, written by Peter Selinger 2001-2019
</metadata>
<g transform="translate(0.000000,192.000000) scale(0.100000,-0.100000)"
fill="#000000" stroke="none">
811 c445 -92 729 -532 635 -987 -62 -301 -295 -546 -601 -630 -91 -26 -329
-26 -420 0 -291 80 -516 305 -596 596 -26 91 -26 329 0 420 120 433 542 692
982 601z"/>
<path d="M820 1350 c-114 -41 -215 -145 -250 -259 -63 -200 27 -404 219 -498
51 -25 66 -28 166 -28 104 0 114 2 176 32 81 40 160 121 197 200 22 48 26 73
27 143 l0 85 -176 3 c-169 2 -178 1 -212 -20 -94 -60 -32 -108 141 -108 119 0
122 -4 72 -83 -56 -89 -176 -139 -276 -117 -135 30 -215 130 -215 267 0 201
199 325 385 240 71 -33 86 -33 114 -4 44 46 19 96 -67 135 -77 35 -220 41
-301 12z m136 -390 c0 -12 -4 -16 -9 -11 -5 5 -6 14 -3 20 10 15 12 14 12 -9z"/>
</g>
</svg>
