<?xml version="1.0" standalone="no"?>
<!DOCTYPE svg PUBLIC "-//W3C//DTD SVG 20010904//EN"
 "http://www.w3.org/TR/2001/REC-SVG-20010904/DTD/svg10.dtd">
<svg version="1.0" xmlns="http://www.w3.org/2000/svg"
 width="192.000000pt" height="192.000000pt" viewBox="0 0 192.000000 192.000000"
 preserveAspectRatio="xMidYMid meet">
<metadata>
Created by potrace 1.16, written by Peter Selinger 2001-2019
</metadata>
<g transform="translate(0.000000,192.000000) scale(0.100000,-0.100000)"
fill="#000000" stroke="none">
811 c445 -92 729 -532 635 -987 -62 -301 -295 -546 -601 -630 -91 -26 -329
-26 -420 0 -291 80 -516 305 -596 596 -26 91 -26 329 0 420 120 433 542 692
982 601z"/>
<path d="M634 1345 c-49 -25 -68 -68 -72 -165 -8 -178 46 -318 168 -440 134
-134 334 -202 463 -156 141 51 192 196 132 383 -52 163 -178 296 -342 360 -57
22 -88 27 -193 30 -99 3 -131 1 -156 -12z m190 -61 c13 -5 16 -24 16 -102 l0
-97 -90 90 c-49 49 -86 92 -82 96 15 15 127 24 156 13z m324 -159 c62 -70 99
-146 119 -242 16 -80 10 -126 -21 -168 -14 -19 -18 -17 -90 55 l-76 74 0 168
c0 96 4 168 9 168 5 0 32 -25 59 -55z m-200 -158 l112 -112 -97 -6 c-54 -4
-128 -7 -164 -8 l-66 -1 -33 61 c-30 56 -60 144 -60 178 0 11 18 12 98 6 l97
-7 113 -111z"/>
</g>
</svg>
