<?xml version="1.0" standalone="no"?>
<!DOCTYPE svg PUBLIC "-//W3C//DTD SVG 20010904//EN"
 "http://www.w3.org/TR/2001/REC-SVG-20010904/DTD/svg10.dtd">
<svg version="1.0" xmlns="http://www.w3.org/2000/svg"
 width="192.000000pt" height="192.000000pt" viewBox="0 0 192.000000 192.000000"
 preserveAspectRatio="xMidYMid meet">
<metadata>
Created by potrace 1.16, written by Peter Selinger 2001-2019
</metadata>
<g transform="translate(0.000000,192.000000) scale(0.100000,-0.100000)"
fill="#000000" stroke="none">
811 c445 -92 729 -532 635 -987 -62 -301 -295 -546 -601 -630 -91 -26 -329
-26 -420 0 -291 80 -516 305 -596 596 -26 91 -26 329 0 420 120 433 542 692
982 601z"/>
<path d="M850 1364 c-80 -22 -210 -105 -210 -135 0 -5 26 -55 57 -109 l57
-100 18 33 c23 46 80 94 125 106 21 6 122 11 226 11 107 0 187 4 187 9 0 5
-22 34 -49 63 -106 116 -261 162 -411 122z"/>
<path d="M571 1116 c-86 -229 37 -483 266 -549 l51 -15 61 104 60 104 -50 0
c-106 0 -143 33 -257 232 -115 203 -105 193 -131 124z"/>
<path d="M892 1093 c-100 -49 -107 -187 -12 -251 28 -19 45 -23 86 -20 83 7
134 60 134 141 0 107 -112 178 -208 130z m107 -128 l0 -75 -45 0 -44 0 0 75 0
75 44 0 45 0 0 -75z"/>
<path d="M940 995 c0 -8 7 -15 15 -15 8 0 15 7 15 15 0 8 -7 15 -15 15 -8 0
-15 -7 -15 -15z"/>
<path d="M940 930 c0 -11 7 -20 15 -20 8 0 15 9 15 20 0 11 -7 20 -15 20 -8 0
-15 -9 -15 -20z"/>
<path d="M1110 1105 c0 -3 10 -20 23 -36 18 -25 22 -44 22 -102 l0 -72 -97
-169 c-54 -92 -98 -171 -98 -173 0 -3 26 -3 57 0 124 13 253 109 314 232 38
77 50 188 29 274 l-12 51 -119 0 c-65 0 -119 -2 -119 -5z"/>
</g>
</svg>
