<?xml version="1.0" standalone="no"?>
<!DOCTYPE svg PUBLIC "-//W3C//DTD SVG 20010904//EN"
 "http://www.w3.org/TR/2001/REC-SVG-20010904/DTD/svg10.dtd">
<svg version="1.0" xmlns="http://www.w3.org/2000/svg"
 width="192.000000pt" height="192.000000pt" viewBox="0 0 192.000000 192.000000"
 preserveAspectRatio="xMidYMid meet">
<metadata>
Created by potrace 1.16, written by Peter Selinger 2001-2019
</metadata>
<g transform="translate(0.000000,192.000000) scale(0.100000,-0.100000)"
fill="#000000" stroke="none">
811 c445 -92 729 -532 635 -987 -62 -301 -295 -546 -601 -630 -91 -26 -329
-26 -420 0 -291 80 -516 305 -596 596 -26 91 -26 329 0 420 120 433 542 692
982 601z"/>
<path d="M716 1354 c-21 -20 -20 -68 0 -85 9 -8 118 -75 243 -149 158 -95 227
-142 229 -156 2 -16 -40 -44 -230 -156 -128 -75 -242 -148 -253 -163 -18 -24
-18 -28 -4 -53 30 -55 53 -46 314 118 132 83 252 164 268 180 36 40 38 107 5
144 -35 38 -508 336 -534 336 -12 0 -30 -7 -38 -16z"/>
<path d="M696 1134 c-13 -13 -16 -43 -16 -173 0 -166 4 -181 47 -181 27 0 273
121 292 143 7 9 11 30 9 48 -3 30 -12 37 -133 106 -132 74 -171 85 -199 57z"/>
</g>
</svg>
