<?xml version="1.0" standalone="no"?>
<!DOCTYPE svg PUBLIC "-//W3C//DTD SVG 20010904//EN"
 "http://www.w3.org/TR/2001/REC-SVG-20010904/DTD/svg10.dtd">
<svg version="1.0" xmlns="http://www.w3.org/2000/svg"
 width="192.000000pt" height="192.000000pt" viewBox="0 0 192.000000 192.000000"
 preserveAspectRatio="xMidYMid meet">
<metadata>
Created by potrace 1.16, written by Peter Selinger 2001-2019
</metadata>
<g transform="translate(0.000000,192.000000) scale(0.100000,-0.100000)"
fill="#000000" stroke="none">
811 c445 -92 729 -532 635 -987 -62 -301 -295 -546 -601 -630 -91 -26 -329
-26 -420 0 -291 80 -516 305 -596 596 -26 91 -26 329 0 420 120 433 542 692
982 601z"/>
<path d="M655 1285 c-98 -52 -118 -111 -113 -343 4 -193 16 -230 90 -279 l42
-28 281 0 281 0 42 28 c23 15 52 46 64 70 22 39 23 54 23 232 0 216 -7 242
-78 299 l-39 31 -281 3 c-241 2 -286 0 -312 -13z m185 -175 c58 -38 110 -70
115 -70 6 0 57 32 115 70 106 71 152 86 164 54 8 -20 8 -378 0 -398 -9 -23
-61 -21 -74 3 -5 11 -10 81 -10 156 l0 136 -90 -61 c-49 -33 -96 -60 -104 -60
-7 0 -55 27 -105 60 l-91 60 0 -136 c0 -74 -5 -144 -10 -155 -13 -24 -65 -26
-74 -3 -8 20 -8 378 0 398 12 32 58 17 164 -54z"/>
</g>
</svg>
