<?xml version="1.0" standalone="no"?>
<!DOCTYPE svg PUBLIC "-//W3C//DTD SVG 20010904//EN"
 "http://www.w3.org/TR/2001/REC-SVG-20010904/DTD/svg10.dtd">
<svg version="1.0" xmlns="http://www.w3.org/2000/svg"
 width="192.000000pt" height="192.000000pt" viewBox="0 0 192.000000 192.000000"
 preserveAspectRatio="xMidYMid meet">
<metadata>
Created by potrace 1.16, written by Peter Selinger 2001-2019
</metadata>
<g transform="translate(0.000000,192.000000) scale(0.100000,-0.100000)"
fill="#000000" stroke="none">
811 c445 -92 729 -532 635 -987 -62 -301 -295 -546 -601 -630 -91 -26 -329
-26 -420 0 -291 80 -516 305 -596 596 -26 91 -26 329 0 420 120 433 542 692
982 601z"/>
<path d="M908 1364 c-34 -18 -44 -36 -53 -94 -4 -31 -2 -51 7 -63 7 -10 78
-57 158 -106 213 -129 212 -138 -14 -281 -80 -50 -148 -100 -151 -110 -8 -25
4 -89 22 -117 21 -32 75 -47 117 -33 52 17 70 52 71 137 1 40 3 75 6 78 3 3
36 -11 73 -30 77 -40 85 -41 131 -19 40 19 60 61 52 110 -8 46 -20 60 -79 90
-26 13 -48 31 -48 39 0 9 25 31 55 50 62 40 75 59 75 110 0 27 -8 44 -29 66
-41 40 -93 40 -167 -3 -64 -35 -77 -29 -68 32 18 112 -70 192 -158 144z"/>
<path d="M644 1210 c-34 -13 -64 -59 -64 -97 0 -47 23 -77 86 -113 30 -16 54
-34 54 -38 0 -4 -29 -25 -63 -47 -88 -57 -102 -118 -40 -179 49 -50 88 -37
311 99 135 82 192 122 190 133 -3 16 -220 150 -350 217 -70 36 -88 40 -124 25z"/>
</g>
</svg>
