<?xml version="1.0" standalone="no"?>
<!DOCTYPE svg PUBLIC "-//W3C//DTD SVG 20010904//EN"
 "http://www.w3.org/TR/2001/REC-SVG-20010904/DTD/svg10.dtd">
<svg version="1.0" xmlns="http://www.w3.org/2000/svg"
 width="192.000000pt" height="192.000000pt" viewBox="0 0 192.000000 192.000000"
 preserveAspectRatio="xMidYMid meet">
<metadata>
Created by potrace 1.16, written by Peter Selinger 2001-2019
</metadata>
<g transform="translate(0.000000,192.000000) scale(0.100000,-0.100000)"
fill="#000000" stroke="none">
811 c445 -92 729 -532 635 -987 -62 -301 -295 -546 -601 -630 -91 -26 -329
-26 -420 0 -291 80 -516 305 -596 596 -26 91 -26 329 0 420 120 433 542 692
982 601z"/>
<path d="M969 1328 c-35 -24 -85 -64 -111 -89 -43 -41 -48 -50 -48 -90 0 -40
29 -109 46 -109 12 0 255 183 269 204 23 32 18 65 -14 97 -40 39 -66 37 -142
-13z"/>
<path d="M615 1245 c-14 -13 -25 -35 -25 -48 0 -39 68 -229 91 -254 40 -42
118 -53 156 -22 15 13 -81 302 -110 330 -30 27 -82 25 -112 -6z"/>
<path d="M1050 1143 c-19 -7 -80 -64 -80 -74 0 -4 59 -51 132 -103 149 -108
179 -117 223 -70 54 58 29 100 -112 197 -69 47 -126 65 -163 50z"/>
<path d="M970 800 c-46 -144 -50 -162 -38 -187 27 -56 94 -68 135 -23 20 21
83 203 83 238 0 40 -28 91 -62 112 -61 37 -63 35 -118 -140z"/>
<path d="M614 880 c-55 -22 -70 -95 -29 -135 23 -24 30 -25 147 -25 78 0 132
5 148 13 39 19 71 76 68 117 l-3 35 -155 2 c-85 1 -165 -2 -176 -7z"/>
</g>
</svg>
