<?xml version="1.0" standalone="no"?>
<!DOCTYPE svg PUBLIC "-//W3C//DTD SVG 20010904//EN"
 "http://www.w3.org/TR/2001/REC-SVG-20010904/DTD/svg10.dtd">
<svg version="1.0" xmlns="http://www.w3.org/2000/svg"
 width="192.000000pt" height="192.000000pt" viewBox="0 0 192.000000 192.000000"
 preserveAspectRatio="xMidYMid meet">
<metadata>
Created by potrace 1.16, written by Peter Selinger 2001-2019
</metadata>
<g transform="translate(0.000000,192.000000) scale(0.100000,-0.100000)"
fill="#000000" stroke="none">
811 c445 -92 729 -532 635 -987 -62 -301 -295 -546 -601 -630 -91 -26 -329
-26 -420 0 -291 80 -516 305 -596 596 -26 91 -26 329 0 420 120 433 542 692
982 601z"/>
<path d="M850 1364 c-83 -22 -211 -106 -210 -138 1 -6 27 -55 59 -109 l58 -98
13 30 c17 42 81 98 127 110 21 6 122 11 226 11 107 0 187 4 187 9 0 20 -101
118 -147 144 -101 54 -210 69 -313 41z"/>
<path d="M571 1114 c-88 -233 41 -486 281 -552 l36 -10 60 104 60 104 -51 0
c-68 0 -130 31 -166 83 -15 23 -63 103 -105 177 -43 74 -81 139 -86 143 -4 5
-18 -17 -29 -49z"/>
<path d="M892 1093 c-100 -49 -107 -187 -12 -251 29 -20 44 -23 88 -20 45 4
59 10 89 41 31 30 37 44 41 89 3 44 0 59 -20 88 -43 64 -120 86 -186 53z"/>
<path d="M1136 1063 c21 -40 25 -58 22 -108 -3 -55 -12 -75 -98 -225 -52 -90
-96 -168 -98 -172 -6 -14 55 -8 121 12 203 63 328 288 276 496 l-11 44 -119 0
-118 0 25 -47z"/>
</g>
</svg>
