<?xml version="1.0" standalone="no"?>
<!DOCTYPE svg PUBLIC "-//W3C//DTD SVG 20010904//EN"
 "http://www.w3.org/TR/2001/REC-SVG-20010904/DTD/svg10.dtd">
<svg version="1.0" xmlns="http://www.w3.org/2000/svg"
 width="192.000000pt" height="192.000000pt" viewBox="0 0 192.000000 192.000000"
 preserveAspectRatio="xMidYMid meet">
<metadata>
Created by potrace 1.16, written by Peter Selinger 2001-2019
</metadata>
<g transform="translate(0.000000,192.000000) scale(0.100000,-0.100000)"
fill="#000000" stroke="none">
811 c445 -92 729 -532 635 -987 -62 -301 -295 -546 -601 -630 -91 -26 -329
-26 -420 0 -291 80 -516 305 -596 596 -26 91 -26 329 0 420 120 433 542 692
982 601z"/>
<path d="M892 1338 c-7 -7 -12 -21 -12 -31 0 -24 194 -359 232 -402 25 -29 30
-30 122 -33 105 -4 126 3 126 44 0 28 -202 380 -237 412 -22 20 -34 22 -122
22 -62 0 -101 -4 -109 -12z"/>
<path d="M759 1243 c-23 -27 -206 -345 -214 -371 -8 -27 39 -128 85 -183 24
-30 30 -32 52 -22 30 13 238 367 238 405 0 13 -21 60 -47 104 -52 85 -83 104
-114 67z"/>
<path d="M849 797 c-31 -26 -99 -145 -99 -173 0 -42 14 -44 253 -44 l229 0 27
28 c27 27 101 152 101 170 0 6 -7 18 -16 26 -13 14 -49 16 -242 16 -221 0
-228 -1 -253 -23z"/>
</g>
</svg>
