<?xml version="1.0" standalone="no"?>
<!DOCTYPE svg PUBLIC "-//W3C//DTD SVG 20010904//EN"
 "http://www.w3.org/TR/2001/REC-SVG-20010904/DTD/svg10.dtd">
<svg version="1.0" xmlns="http://www.w3.org/2000/svg"
 width="192.000000pt" height="192.000000pt" viewBox="0 0 192.000000 192.000000"
 preserveAspectRatio="xMidYMid meet">
<metadata>
Created by potrace 1.16, written by Peter Selinger 2001-2019
</metadata>
<g transform="translate(0.000000,192.000000) scale(0.100000,-0.100000)"
fill="#000000" stroke="none">
811 c445 -92 729 -532 635 -987 -62 -301 -295 -546 -601 -630 -91 -26 -329
-26 -420 0 -291 80 -516 305 -596 596 -26 91 -26 329 0 420 120 433 542 692
982 601z"/>
<path d="M665 1350 c-3 -5 -4 -14 -1 -19 15 -24 326 -301 338 -301 16 0 108
91 108 107 0 16 -382 223 -413 223 -14 0 -29 -4 -32 -10z"/>
<path d="M597 1293 c-4 -3 -7 -152 -7 -330 0 -302 1 -323 18 -323 16 0 352
326 352 342 0 9 -338 318 -348 318 -5 0 -12 -3 -15 -7z"/>
<path d="M1108 1052 c-32 -33 -58 -64 -58 -70 0 -12 143 -142 157 -142 20 0
103 52 118 73 19 27 19 77 0 104 -13 18 -135 93 -152 93 -3 0 -32 -26 -65 -58z"/>
<path d="M829 774 c-93 -93 -169 -176 -169 -185 0 -23 24 -31 57 -18 58 22
415 223 420 237 4 9 -14 33 -48 63 -92 84 -69 92 -260 -97z"/>
</g>
</svg>
