<?xml version="1.0" standalone="no"?>
<!DOCTYPE svg PUBLIC "-//W3C//DTD SVG 20010904//EN"
 "http://www.w3.org/TR/2001/REC-SVG-20010904/DTD/svg10.dtd">
<svg version="1.0" xmlns="http://www.w3.org/2000/svg"
 width="192.000000pt" height="192.000000pt" viewBox="0 0 192.000000 192.000000"
 preserveAspectRatio="xMidYMid meet">
<metadata>
Created by potrace 1.16, written by Peter Selinger 2001-2019
</metadata>
<g transform="translate(0.000000,192.000000) scale(0.100000,-0.100000)"
fill="#000000" stroke="none">
811 c445 -92 729 -532 635 -987 -62 -301 -295 -546 -601 -630 -91 -26 -329
-26 -420 0 -291 80 -516 305 -596 596 -26 91 -26 329 0 420 120 433 542 692
982 601z"/>
<path d="M845 1377 c-208 -69 -310 -306 -215 -502 29 -60 238 -302 279 -325
11 -5 37 -10 57 -10 42 0 74 29 226 202 109 126 123 158 123 288 0 96 -2 110
-28 158 -40 75 -87 124 -159 163 -56 29 -73 33 -153 36 -55 2 -106 -2 -130
-10z m160 -253 c20 -9 40 -30 50 -51 24 -49 7 -106 -38 -133 -42 -26 -76 -25
-118 3 -68 45 -60 150 14 182 41 18 52 18 92 -1z"/>
</g>
</svg>
