<?xml version="1.0" standalone="no"?>
<!DOCTYPE svg PUBLIC "-//W3C//DTD SVG 20010904//EN"
 "http://www.w3.org/TR/2001/REC-SVG-20010904/DTD/svg10.dtd">
<svg version="1.0" xmlns="http://www.w3.org/2000/svg"
 width="225.000000pt" height="225.000000pt" viewBox="0 0 225.000000 225.000000"
 preserveAspectRatio="xMidYMid meet">
<metadata>
Created by potrace 1.16, written by Peter Selinger 2001-2019
</metadata>
<g transform="translate(0.000000,225.000000) scale(0.100000,-0.100000)"
fill="#000000" stroke="none">
-1125z m1306 806 c445 -92 729 -532 635 -987 -62 -301 -295 -546 -601 -630
-91 -26 -329 -26 -420 0 -291 80 -516 305 -596 596 -26 91 -26 329 0 420 120
433 542 692 982 601z"/>
<path d="M855 1427 c-61 -29 -116 -88 -140 -150 -22 -57 -17 -165 10 -217 24
-48 241 -267 290 -293 56 -30 164 -30 220 0 49 26 266 245 290 293 27 52 32
160 10 217 -24 63 -85 126 -147 153 -68 29 -158 24 -219 -12 l-42 -25 -50 25
c-71 37 -156 41 -222 9z m160 -121 c17 -12 14 -18 -47 -83 -36 -38 -71 -86
-79 -106 -7 -20 -17 -37 -21 -37 -17 0 -48 67 -48 103 0 50 23 93 63 117 37
23 105 26 132 6z m346 -1 c59 -31 88 -125 56 -182 -20 -36 -188 -214 -221
-234 -63 -39 -158 -14 -191 50 -17 35 -20 88 -5 127 12 32 180 207 225 235 37
23 96 24 136 4z"/>
<path d="M1260 1273 c-56 -22 -83 -89 -56 -141 40 -77 145 -68 177 15 11 31
-3 83 -30 107 -19 18 -68 28 -91 19z"/>
</g>
</svg>
