<?xml version="1.0" standalone="no"?>
<!DOCTYPE svg PUBLIC "-//W3C//DTD SVG 20010904//EN"
 "http://www.w3.org/TR/2001/REC-SVG-20010904/DTD/svg10.dtd">
<svg version="1.0" xmlns="http://www.w3.org/2000/svg"
 width="192.000000pt" height="192.000000pt" viewBox="0 0 192.000000 192.000000"
 preserveAspectRatio="xMidYMid meet">
<metadata>
Created by potrace 1.16, written by Peter Selinger 2001-2019
</metadata>
<g transform="translate(0.000000,192.000000) scale(0.100000,-0.100000)"
fill="#000000" stroke="none">
811 c445 -92 729 -532 635 -987 -62 -301 -295 -546 -601 -630 -91 -26 -329
-26 -420 0 -291 80 -516 305 -596 596 -26 91 -26 329 0 420 120 433 542 692
982 601z"/>
<path d="M720 1320 c-11 -11 -20 -29 -20 -40 0 -18 -7 -20 -68 -20 -40 0 -73
-5 -80 -12 -15 -15 -16 -124 -1 -183 16 -62 54 -103 116 -124 32 -11 61 -29
75 -47 35 -45 59 -62 111 -81 l47 -18 0 -47 0 -48 -46 0 c-64 0 -84 -13 -84
-55 0 -24 6 -38 19 -45 11 -6 87 -10 175 -10 149 0 155 1 170 22 21 30 20 44
-4 68 -15 15 -33 20 -70 20 l-50 0 0 48 0 47 48 18 c51 19 75 36 110 81 14 18
43 36 75 47 59 20 98 60 116 118 15 51 14 174 -1 189 -7 7 -40 12 -80 12 -61
0 -68 2 -68 20 0 11 -9 29 -20 40 -19 19 -33 20 -235 20 -202 0 -216 -1 -235
-20z m265 -138 c17 -31 26 -37 58 -40 50 -4 57 -25 22 -62 -24 -25 -27 -35
-22 -70 6 -50 -7 -59 -53 -35 -31 16 -35 16 -70 0 -21 -10 -43 -14 -48 -11 -6
3 -8 24 -5 47 5 34 2 44 -22 69 -35 37 -28 58 22 62 33 3 41 8 56 41 10 20 24
37 30 37 7 0 21 -17 32 -38z m-285 -82 c0 -102 -7 -110 -55 -60 -24 25 -30 41
-33 90 l-4 60 46 0 46 0 0 -90z m598 30 c-3 -49 -9 -65 -33 -90 -48 -50 -55
-42 -55 60 l0 90 46 0 46 0 -4 -60z"/>
</g>
</svg>
