<?xml version="1.0" standalone="no"?>
<!DOCTYPE svg PUBLIC "-//W3C//DTD SVG 20010904//EN"
 "http://www.w3.org/TR/2001/REC-SVG-20010904/DTD/svg10.dtd">
<svg version="1.0" xmlns="http://www.w3.org/2000/svg"
 width="192.000000pt" height="192.000000pt" viewBox="0 0 192.000000 192.000000"
 preserveAspectRatio="xMidYMid meet">
<metadata>
Created by potrace 1.16, written by Peter Selinger 2001-2019
</metadata>
<g transform="translate(0.000000,192.000000) scale(0.100000,-0.100000)"
fill="#000000" stroke="none">
811 c445 -92 729 -532 635 -987 -62 -301 -295 -546 -601 -630 -91 -26 -329
-26 -420 0 -291 80 -516 305 -596 596 -26 91 -26 329 0 420 120 433 542 692
982 601z"/>
<path d="M895 1406 c-37 -16 -70 -52 -84 -89 -17 -43 -14 -360 3 -400 18 -43
68 -85 112 -93 52 -10 119 19 149 64 24 36 25 41 25 233 0 187 -1 198 -22 229
-43 62 -118 85 -183 56z"/>
<path d="M686 1064 c-20 -20 -21 -104 -2 -168 29 -95 106 -172 198 -197 37
-10 38 -10 38 -59 l0 -50 -49 0 c-67 0 -102 -35 -69 -68 13 -13 262 -18 292
-6 19 7 21 45 4 62 -7 7 -34 12 -61 12 l-48 0 3 51 3 52 46 13 c61 18 136 85
165 149 30 63 34 194 8 216 -31 25 -48 -1 -54 -82 -10 -135 -77 -210 -194
-217 -77 -4 -138 24 -180 85 -25 36 -31 56 -35 123 -5 56 -11 84 -21 90 -21
13 -26 12 -44 -6z"/>
</g>
</svg>
