<?xml version="1.0" standalone="no"?>
<!DOCTYPE svg PUBLIC "-//W3C//DTD SVG 20010904//EN"
 "http://www.w3.org/TR/2001/REC-SVG-20010904/DTD/svg10.dtd">
<svg version="1.0" xmlns="http://www.w3.org/2000/svg"
 width="192.000000pt" height="192.000000pt" viewBox="0 0 192.000000 192.000000"
 preserveAspectRatio="xMidYMid meet">
<metadata>
Created by potrace 1.16, written by Peter Selinger 2001-2019
</metadata>
<g transform="translate(0.000000,192.000000) scale(0.100000,-0.100000)"
fill="#000000" stroke="none">
811 c445 -92 729 -532 635 -987 -62 -301 -295 -546 -601 -630 -91 -26 -329
-26 -420 0 -291 80 -516 305 -596 596 -26 91 -26 329 0 420 120 433 542 692
982 601z"/>
<path d="M1080 1321 c-19 -4 -54 -18 -77 -30 l-41 -24 -53 27 c-106 52 -230
29 -307 -60 -45 -50 -62 -100 -62 -175 1 -87 26 -127 182 -285 161 -163 207
-194 266 -176 47 14 353 319 377 374 21 52 19 153 -4 203 -48 103 -173 168
-281 146z m-240 -151 c12 -8 1 -24 -60 -85 -41 -41 -78 -75 -82 -75 -15 0 -20
71 -7 101 22 54 105 87 149 59z m362 -19 c29 -26 33 -35 33 -80 l0 -51 -137
-137 -138 -138 -80 80 -80 80 107 108 c60 60 126 122 147 138 53 40 104 39
148 0z"/>
</g>
</svg>
