<?xml version="1.0" standalone="no"?>
<!DOCTYPE svg PUBLIC "-//W3C//DTD SVG 20010904//EN"
 "http://www.w3.org/TR/2001/REC-SVG-20010904/DTD/svg10.dtd">
<svg version="1.0" xmlns="http://www.w3.org/2000/svg"
 width="192.000000pt" height="192.000000pt" viewBox="0 0 192.000000 192.000000"
 preserveAspectRatio="xMidYMid meet">
<metadata>
Created by potrace 1.16, written by Peter Selinger 2001-2019
</metadata>
<g transform="translate(0.000000,192.000000) scale(0.100000,-0.100000)"
fill="#000000" stroke="none">
811 c445 -92 729 -532 635 -987 -62 -301 -295 -546 -601 -630 -91 -26 -329
-26 -420 0 -291 80 -516 305 -596 596 -26 91 -26 329 0 420 120 433 542 692
982 601z"/>
<path d="M680 1344 c-45 -20 -77 -50 -101 -96 -17 -34 -19 -61 -19 -283 0
-222 2 -249 19 -283 36 -69 104 -112 178 -112 49 0 66 11 61 41 -3 21 -10 25
-53 29 -62 7 -91 22 -115 63 -18 29 -20 52 -20 260 0 253 4 271 63 307 29 18
51 20 257 20 338 0 330 7 330 -323 0 -237 -6 -271 -54 -302 -14 -10 -49 -20
-78 -24 -51 -6 -53 -7 -53 -36 0 -29 2 -30 50 -33 65 -4 129 29 170 87 l30 43
0 263 0 263 -30 43 c-16 23 -50 53 -74 66 -43 22 -52 23 -285 23 -193 -1 -248
-4 -276 -16z"/>
<path d="M882 1170 c-33 -21 -62 -71 -62 -110 0 -38 38 -97 74 -114 45 -21 84
-20 123 4 64 39 84 111 49 178 -31 61 -120 81 -184 42z"/>
<path d="M900 901 c-77 -25 -154 -95 -148 -134 3 -22 7 -22 201 -25 217 -3
223 -1 194 55 -41 79 -165 131 -247 104z"/>
<path d="M869 624 c-9 -11 -10 -20 -2 -32 15 -25 161 -25 176 0 8 12 7 21 -2
32 -19 23 -153 23 -172 0z"/>
</g>
</svg>
