<?xml version="1.0" standalone="no"?>
<!DOCTYPE svg PUBLIC "-//W3C//DTD SVG 20010904//EN"
 "http://www.w3.org/TR/2001/REC-SVG-20010904/DTD/svg10.dtd">
<svg version="1.0" xmlns="http://www.w3.org/2000/svg"
 width="192.000000pt" height="192.000000pt" viewBox="0 0 192.000000 192.000000"
 preserveAspectRatio="xMidYMid meet">
<metadata>
Created by potrace 1.16, written by Peter Selinger 2001-2019
</metadata>
<g transform="translate(0.000000,192.000000) scale(0.100000,-0.100000)"
fill="#000000" stroke="none">
811 c445 -92 729 -532 635 -987 -62 -301 -295 -546 -601 -630 -91 -26 -329
-26 -420 0 -291 80 -516 305 -596 596 -26 91 -26 329 0 420 120 433 542 692
982 601z"/>
<path d="M835 1357 c-52 -18 -113 -51 -146 -79 -46 -40 -45 -60 7 -153 26 -47
51 -85 55 -85 4 0 10 8 13 18 4 10 21 33 38 51 61 63 73 66 298 71 l205 5 -53
56 c-34 36 -77 68 -120 90 -60 29 -78 33 -162 36 -59 2 -110 -2 -135 -10z"/>
<path d="M577 1126 c-9 -20 -21 -64 -27 -99 -30 -169 64 -347 223 -427 98 -49
107 -45 182 82 l43 73 -57 5 c-61 6 -104 25 -138 62 -11 12 -60 91 -108 173
-48 83 -91 153 -94 158 -4 4 -15 -8 -24 -27z"/>
<path d="M1128 1085 c32 -40 46 -114 32 -166 -7 -24 -16 -48 -20 -54 -4 -5
-38 -62 -75 -125 -37 -63 -76 -130 -88 -149 l-21 -34 57 6 c207 21 375 237
351 451 -10 88 -22 96 -150 96 l-105 0 19 -25z"/>
<path d="M866 1070 c-65 -58 -70 -143 -12 -205 41 -43 91 -53 151 -31 82 32
112 133 62 207 -29 43 -60 59 -119 59 -39 0 -54 -6 -82 -30z m142 -42 c2 -20
-1 -28 -12 -28 -8 0 -18 5 -21 10 -3 6 -13 10 -21 10 -10 0 -14 -14 -14 -55 0
-41 4 -55 14 -55 8 0 18 5 21 10 3 6 13 10 21 10 11 0 14 -8 12 -27 -3 -26 -6
-28 -53 -28 l-50 0 -3 79 c-4 105 -2 108 55 104 44 -3 48 -5 51 -30z"/>
</g>
</svg>
