<?xml version="1.0" standalone="no"?>
<!DOCTYPE svg PUBLIC "-//W3C//DTD SVG 20010904//EN"
 "http://www.w3.org/TR/2001/REC-SVG-20010904/DTD/svg10.dtd">
<svg version="1.0" xmlns="http://www.w3.org/2000/svg"
 width="192.000000pt" height="192.000000pt" viewBox="0 0 192.000000 192.000000"
 preserveAspectRatio="xMidYMid meet">
<metadata>
Created by potrace 1.16, written by Peter Selinger 2001-2019
</metadata>
<g transform="translate(0.000000,192.000000) scale(0.100000,-0.100000)"
fill="#000000" stroke="none">
811 c445 -92 729 -532 635 -987 -62 -301 -295 -546 -601 -630 -91 -26 -329
-26 -420 0 -291 80 -516 305 -596 596 -26 91 -26 329 0 420 120 433 542 692
982 601z"/>
<path d="M1219 1396 c-19 -9 -25 -21 -27 -54 -3 -41 -4 -42 -38 -42 -38 0 -74
-29 -74 -58 0 -27 30 -50 70 -54 32 -3 35 -6 38 -38 9 -95 112 -92 112 3 0 36
1 37 40 37 49 0 76 32 61 72 -11 28 -29 38 -72 38 -26 0 -29 3 -29 33 0 56
-37 85 -81 63z"/>
<path d="M520 1280 c-25 -25 -26 -52 -2 -73 15 -14 41 -17 143 -17 135 0 149
5 149 50 0 51 -24 60 -153 60 -104 0 -119 -2 -137 -20z"/>
<path d="M530 802 c-31 -25 -29 -67 6 -103 l28 -29 -28 -29 c-72 -75 10 -157
85 -85 l29 28 28 -26 c41 -40 83 -41 108 -3 14 21 14 30 4 54 -6 16 -20 37
-31 47 -18 16 -18 18 11 51 36 41 37 57 5 88 -30 31 -43 31 -89 0 l-38 -25
-30 25 c-35 30 -58 31 -88 7z"/>
<path d="M1096 794 c-19 -18 -21 -55 -4 -72 8 -8 55 -12 144 -12 107 0 136 3
148 16 21 21 20 47 -2 67 -27 24 -263 25 -286 1z"/>
<path d="M1092 648 c-17 -17 -15 -54 4 -72 12 -13 40 -16 144 -16 122 0 130 1
144 22 20 28 20 43 0 62 -12 13 -41 16 -148 16 -89 0 -136 -4 -144 -12z"/>
</g>
</svg>
