<?xml version="1.0" standalone="no"?>
<!DOCTYPE svg PUBLIC "-//W3C//DTD SVG 20010904//EN"
 "http://www.w3.org/TR/2001/REC-SVG-20010904/DTD/svg10.dtd">
<svg version="1.0" xmlns="http://www.w3.org/2000/svg"
 width="192.000000pt" height="192.000000pt" viewBox="0 0 192.000000 192.000000"
 preserveAspectRatio="xMidYMid meet">
<metadata>
Created by potrace 1.16, written by Peter Selinger 2001-2019
</metadata>
<g transform="translate(0.000000,192.000000) scale(0.100000,-0.100000)"
fill="#000000" stroke="none">
811 c445 -92 729 -532 635 -987 -62 -301 -295 -546 -601 -630 -91 -26 -329
-26 -420 0 -291 80 -516 305 -596 596 -26 91 -26 329 0 420 120 433 542 692
982 601z"/>
<path d="M892 1338 c-7 -7 -12 -20 -12 -31 0 -23 203 -373 236 -407 22 -22 34
-25 113 -28 99 -4 131 6 131 42 0 35 -214 398 -247 418 -34 22 -201 26 -221 6z"/>
<path d="M753 1233 c-11 -15 -62 -99 -112 -187 -66 -112 -93 -168 -93 -191 0
-39 72 -169 102 -185 13 -7 26 -7 38 -1 9 5 64 89 122 188 124 212 125 217 60
324 -36 58 -51 75 -71 77 -20 2 -32 -4 -46 -25z"/>
<path d="M860 806 c-27 -15 -110 -152 -110 -183 0 -40 15 -43 250 -43 183 0
230 3 247 15 21 15 113 163 113 183 0 6 -7 18 -16 26 -13 14 -49 16 -237 16
-168 -1 -228 -4 -247 -14z"/>
</g>
</svg>
