<?xml version="1.0" standalone="no"?>
<!DOCTYPE svg PUBLIC "-//W3C//DTD SVG 20010904//EN"
 "http://www.w3.org/TR/2001/REC-SVG-20010904/DTD/svg10.dtd">
<svg version="1.0" xmlns="http://www.w3.org/2000/svg"
 width="192.000000pt" height="192.000000pt" viewBox="0 0 192.000000 192.000000"
 preserveAspectRatio="xMidYMid meet">
<metadata>
Created by potrace 1.16, written by Peter Selinger 2001-2019
</metadata>
<g transform="translate(0.000000,192.000000) scale(0.100000,-0.100000)"
fill="#000000" stroke="none">
811 c445 -92 729 -532 635 -987 -62 -301 -295 -546 -601 -630 -91 -26 -329
-26 -420 0 -291 80 -516 305 -596 596 -26 91 -26 329 0 420 120 433 542 692
982 601z"/>
<path d="M868 1353 c-8 -10 -27 -39 -41 -65 -29 -51 -40 -55 -142 -60 -48 -3
-51 -5 -82 -53 -41 -61 -41 -81 -3 -145 16 -28 30 -58 30 -66 0 -9 -14 -41
-32 -73 -36 -65 -35 -81 11 -153 l31 -48 73 0 c82 0 85 -2 132 -83 15 -26 31
-47 36 -47 5 0 9 51 9 114 l0 113 -34 24 c-36 25 -69 74 -80 122 -14 61 35
167 79 167 27 0 35 -17 35 -74 0 -38 4 -45 34 -61 33 -18 34 -18 67 1 29 18
34 26 35 61 1 54 10 73 34 73 23 0 65 -59 75 -107 13 -64 -27 -152 -86 -187
l-29 -17 0 -115 c0 -63 4 -114 9 -114 5 0 21 21 36 48 47 80 50 82 132 82 l73
0 31 48 c46 72 47 88 11 153 -18 32 -32 64 -32 73 0 8 14 38 30 66 38 64 38
84 -3 145 -31 48 -34 50 -82 53 -102 5 -113 9 -142 60 -45 80 -48 82 -128 82
-56 0 -75 -4 -87 -17z"/>
</g>
</svg>
