<?xml version="1.0" standalone="no"?>
<!DOCTYPE svg PUBLIC "-//W3C//DTD SVG 20010904//EN"
 "http://www.w3.org/TR/2001/REC-SVG-20010904/DTD/svg10.dtd">
<svg version="1.0" xmlns="http://www.w3.org/2000/svg"
 width="192.000000pt" height="192.000000pt" viewBox="0 0 192.000000 192.000000"
 preserveAspectRatio="xMidYMid meet">
<metadata>
Created by potrace 1.16, written by Peter Selinger 2001-2019
</metadata>
<g transform="translate(0.000000,192.000000) scale(0.100000,-0.100000)"
fill="#000000" stroke="none">
811 c445 -92 729 -532 635 -987 -62 -301 -295 -546 -601 -630 -91 -26 -329
-26 -420 0 -291 80 -516 305 -596 596 -26 91 -26 329 0 420 120 433 542 692
982 601z"/>
<path d="M874 1350 c-34 -13 -54 -50 -54 -97 l0 -43 -88 0 c-80 0 -91 -2 -110
-23 -19 -20 -22 -35 -22 -110 l0 -87 46 0 c37 0 51 -5 75 -29 62 -62 23 -153
-71 -166 l-50 -7 0 -84 c0 -115 9 -124 125 -124 l85 0 0 30 c0 42 24 96 48
109 39 21 91 13 123 -18 24 -24 29 -38 29 -75 l0 -46 85 0 c78 0 88 2 110 25
23 22 25 32 25 110 l0 85 35 0 c52 0 91 24 104 63 22 65 -28 127 -100 127
l-39 0 0 85 c0 78 -2 88 -25 110 -22 23 -32 25 -108 25 l-84 0 -7 49 c-10 77
-68 117 -132 91z"/>
</g>
</svg>
