<?xml version="1.0" standalone="no"?>
<!DOCTYPE svg PUBLIC "-//W3C//DTD SVG 20010904//EN"
 "http://www.w3.org/TR/2001/REC-SVG-20010904/DTD/svg10.dtd">
<svg version="1.0" xmlns="http://www.w3.org/2000/svg"
 width="192.000000pt" height="192.000000pt" viewBox="0 0 192.000000 192.000000"
 preserveAspectRatio="xMidYMid meet">
<metadata>
Created by potrace 1.16, written by Peter Selinger 2001-2019
</metadata>
<g transform="translate(0.000000,192.000000) scale(0.100000,-0.100000)"
fill="#000000" stroke="none">
811 c445 -92 729 -532 635 -987 -62 -301 -295 -546 -601 -630 -91 -26 -329
-26 -420 0 -291 80 -516 305 -596 596 -26 91 -26 329 0 420 120 433 542 692
982 601z"/>
<path d="M1124 1380 c-29 -11 -54 -49 -54 -79 0 -13 11 -52 24 -85 14 -34 29
-86 34 -116 l10 -55 -21 30 c-59 81 -174 183 -231 205 -31 12 -82 -4 -96 -30
-14 -27 -12 -82 4 -105 10 -15 46 -116 46 -131 0 -1 -26 24 -59 55 -76 75
-151 114 -192 99 -34 -12 -49 -35 -49 -75 0 -36 12 -52 71 -91 86 -58 141
-145 158 -250 12 -77 23 -96 62 -112 39 -17 72 -1 106 49 21 31 54 126 69 196
l6 30 15 -35 c22 -53 43 -158 43 -222 0 -74 29 -112 85 -112 52 0 87 42 119
141 63 202 58 400 -16 593 -33 87 -81 122 -134 100z"/>
</g>
</svg>
