<?xml version="1.0" standalone="no"?>
<!DOCTYPE svg PUBLIC "-//W3C//DTD SVG 20010904//EN"
 "http://www.w3.org/TR/2001/REC-SVG-20010904/DTD/svg10.dtd">
<svg version="1.0" xmlns="http://www.w3.org/2000/svg"
 width="192.000000pt" height="192.000000pt" viewBox="0 0 192.000000 192.000000"
 preserveAspectRatio="xMidYMid meet">
<metadata>
Created by potrace 1.16, written by Peter Selinger 2001-2019
</metadata>
<g transform="translate(0.000000,192.000000) scale(0.100000,-0.100000)"
fill="#000000" stroke="none">
811 c445 -92 729 -532 635 -987 -62 -301 -295 -546 -601 -630 -91 -26 -329
-26 -420 0 -291 80 -516 305 -596 596 -26 91 -26 329 0 420 120 433 542 692
982 601z"/>
<path d="M888 1366 c-123 -34 -208 -145 -208 -273 0 -60 34 -143 75 -183 29
-29 35 -41 35 -78 0 -81 1 -82 163 -82 98 0 147 4 155 12 7 7 12 33 12 59 0
39 5 52 33 82 49 51 70 103 75 180 3 49 -1 81 -13 114 -49 128 -198 205 -327
169z"/>
<path d="M824 695 c-3 -8 -3 -22 0 -30 5 -13 26 -15 133 -13 l128 3 0 25 0 25
-128 3 c-107 2 -128 0 -133 -13z"/>
<path d="M865 590 c-11 -34 3 -40 90 -40 87 0 101 6 90 40 -6 18 -15 20 -90
20 -75 0 -84 -2 -90 -20z"/>
</g>
</svg>
