<?xml version="1.0" standalone="no"?>
<!DOCTYPE svg PUBLIC "-//W3C//DTD SVG 20010904//EN"
 "http://www.w3.org/TR/2001/REC-SVG-20010904/DTD/svg10.dtd">
<svg version="1.0" xmlns="http://www.w3.org/2000/svg"
 width="192.000000pt" height="192.000000pt" viewBox="0 0 192.000000 192.000000"
 preserveAspectRatio="xMidYMid meet">
<metadata>
Created by potrace 1.16, written by Peter Selinger 2001-2019
</metadata>
<g transform="translate(0.000000,192.000000) scale(0.100000,-0.100000)"
fill="#000000" stroke="none">
811 c445 -92 729 -532 635 -987 -62 -301 -295 -546 -601 -630 -91 -26 -329
-26 -420 0 -291 80 -516 305 -596 596 -26 91 -26 329 0 420 120 433 542 692
982 601z"/>
<path d="M654 1290 c-11 -4 -32 -22 -46 -39 -25 -29 -26 -38 -33 -193 -4 -90
-5 -231 -3 -314 3 -171 12 -194 72 -194 26 0 44 13 96 65 l64 65 224 0 224 0
39 39 39 39 0 223 c0 246 -3 258 -59 296 -33 23 -38 23 -315 22 -155 0 -290
-4 -302 -9z m393 -156 c14 -8 23 -23 21 -32 -4 -18 -8 -18 -100 -6 -43 5 -50
3 -77 -24 -53 -52 -53 -112 -1 -163 44 -45 120 -38 162 15 26 31 22 36 -26 36
-51 0 -76 20 -56 45 10 12 30 15 84 13 l71 -3 3 -33 c7 -74 -82 -162 -164
-162 -39 0 -113 38 -137 71 -39 53 -39 145 0 198 32 43 100 73 152 67 25 -4
55 -13 68 -22z"/>
</g>
</svg>
