<?xml version="1.0" standalone="no"?>
<!DOCTYPE svg PUBLIC "-//W3C//DTD SVG 20010904//EN"
 "http://www.w3.org/TR/2001/REC-SVG-20010904/DTD/svg10.dtd">
<svg version="1.0" xmlns="http://www.w3.org/2000/svg"
 width="192.000000pt" height="192.000000pt" viewBox="0 0 192.000000 192.000000"
 preserveAspectRatio="xMidYMid meet">
<metadata>
Created by potrace 1.16, written by Peter Selinger 2001-2019
</metadata>
<g transform="translate(0.000000,192.000000) scale(0.100000,-0.100000)"
fill="#000000" stroke="none">
811 c445 -92 729 -532 635 -987 -62 -301 -295 -546 -601 -630 -91 -26 -329
-26 -420 0 -291 80 -516 305 -596 596 -26 91 -26 329 0 420 120 433 542 692
982 601z"/>
<path d="M745 1281 c-172 -90 -190 -102 -193 -127 -7 -53 -2 -54 406 -54 238
0 380 4 393 10 12 7 19 21 19 40 0 27 -10 34 -192 129 -106 55 -204 101 -218
101 -14 0 -110 -45 -215 -99z"/>
<path d="M652 1078 c-7 -7 -12 -20 -12 -30 0 -14 8 -18 35 -18 l35 0 0 -150
c0 -149 0 -150 -22 -150 -33 0 -51 -14 -46 -36 3 -18 18 -19 313 -19 295 0
310 1 313 19 5 22 -13 36 -45 36 -23 0 -23 1 -23 150 l0 150 35 0 c27 0 35 4
35 18 0 40 -13 42 -315 42 -213 0 -294 -3 -303 -12z m256 -200 l3 -148 -51 0
-50 0 0 151 0 150 48 -3 47 -3 3 -147z m192 2 l0 -150 -50 0 -50 0 0 143 c0
79 3 147 7 150 3 4 26 7 50 7 l43 0 0 -150z"/>
<path d="M558 639 c-25 -14 -24 -65 1 -79 13 -6 154 -10 391 -10 237 0 378 4
391 10 12 7 19 21 19 40 0 19 -7 33 -19 40 -26 14 -759 13 -783 -1z"/>
</g>
</svg>
