<?xml version="1.0" standalone="no"?>
<!DOCTYPE svg PUBLIC "-//W3C//DTD SVG 20010904//EN"
 "http://www.w3.org/TR/2001/REC-SVG-20010904/DTD/svg10.dtd">
<svg version="1.0" xmlns="http://www.w3.org/2000/svg"
 width="192.000000pt" height="192.000000pt" viewBox="0 0 192.000000 192.000000"
 preserveAspectRatio="xMidYMid meet">
<metadata>
Created by potrace 1.16, written by Peter Selinger 2001-2019
</metadata>
<g transform="translate(0.000000,192.000000) scale(0.100000,-0.100000)"
fill="#000000" stroke="none">
811 c445 -92 729 -532 635 -987 -62 -301 -295 -546 -601 -630 -91 -26 -329
-26 -420 0 -291 80 -516 305 -596 596 -26 91 -26 329 0 420 120 433 542 692
982 601z"/>
<path d="M920 1377 c-35 -18 -340 -586 -340 -634 0 -60 25 -73 138 -73 l98 0
59 -60 c77 -78 91 -78 168 0 l60 60 94 0 c80 0 96 3 113 20 40 40 29 70 -134
374 -85 159 -160 294 -167 301 -22 21 -62 26 -89 12z m54 -165 c6 -10 116
-512 116 -530 0 -9 -37 -12 -135 -12 -74 0 -135 3 -135 7 0 10 110 516 115
531 5 14 31 16 39 4z"/>
</g>
</svg>
