<?xml version="1.0" standalone="no"?>
<!DOCTYPE svg PUBLIC "-//W3C//DTD SVG 20010904//EN"
 "http://www.w3.org/TR/2001/REC-SVG-20010904/DTD/svg10.dtd">
<svg version="1.0" xmlns="http://www.w3.org/2000/svg"
 width="192.000000pt" height="192.000000pt" viewBox="0 0 192.000000 192.000000"
 preserveAspectRatio="xMidYMid meet">
<metadata>
Created by potrace 1.16, written by Peter Selinger 2001-2019
</metadata>
<g transform="translate(0.000000,192.000000) scale(0.100000,-0.100000)"
fill="#000000" stroke="none">
811 c445 -92 729 -532 635 -987 -62 -301 -295 -546 -601 -630 -91 -26 -329
-26 -420 0 -291 80 -516 305 -596 596 -26 91 -26 329 0 420 120 433 542 692
982 601z"/>
<path d="M712 1284 c-32 -22 -27 -57 18 -116 94 -123 93 -282 -1 -407 -46 -61
-50 -94 -13 -118 23 -15 29 -15 52 -2 35 19 104 123 125 188 23 73 22 192 -3
273 -28 91 -107 198 -147 198 -5 0 -19 -7 -31 -16z"/>
<path d="M1142 1293 c-8 -3 -34 -32 -58 -65 -113 -153 -113 -373 0 -526 51
-68 76 -81 111 -58 36 23 31 57 -14 117 -54 71 -75 144 -68 228 7 78 24 122
72 185 40 53 45 88 13 110 -23 17 -34 18 -56 9z"/>
<path d="M567 1142 c-24 -26 -21 -50 9 -93 19 -27 26 -50 26 -84 0 -34 -7 -57
-26 -84 -31 -44 -33 -72 -6 -96 28 -25 65 -12 100 36 63 87 61 206 -4 292 -36
48 -73 58 -99 29z"/>
<path d="M1254 1124 c-48 -51 -70 -129 -55 -203 21 -105 96 -177 141 -136 27
24 25 54 -5 95 -19 26 -25 46 -25 85 0 39 6 59 25 85 30 40 32 71 7 93 -28 26
-51 21 -88 -19z"/>
</g>
</svg>
