<?xml version="1.0" standalone="no"?>
<!DOCTYPE svg PUBLIC "-//W3C//DTD SVG 20010904//EN"
 "http://www.w3.org/TR/2001/REC-SVG-20010904/DTD/svg10.dtd">
<svg version="1.0" xmlns="http://www.w3.org/2000/svg"
 width="192.000000pt" height="192.000000pt" viewBox="0 0 192.000000 192.000000"
 preserveAspectRatio="xMidYMid meet">
<metadata>
Created by potrace 1.16, written by Peter Selinger 2001-2019
</metadata>
<g transform="translate(0.000000,192.000000) scale(0.100000,-0.100000)"
fill="#000000" stroke="none">
811 c445 -92 729 -532 635 -987 -62 -301 -295 -546 -601 -630 -91 -26 -329
-26 -420 0 -291 80 -516 305 -596 596 -26 91 -26 329 0 420 120 433 542 692
982 601z"/>
<path d="M635 1243 c-89 -47 -104 -87 -105 -276 0 -102 4 -158 14 -180 17 -41
66 -88 108 -104 45 -16 180 -16 200 0 9 6 26 39 38 72 26 72 36 85 65 85 29 0
39 -12 65 -83 31 -82 38 -87 128 -86 90 1 130 13 173 54 52 48 59 79 59 240 0
188 -16 232 -102 276 -34 17 -62 19 -325 19 -243 -1 -293 -3 -318 -17z m170
-177 c48 -48 40 -122 -16 -151 -41 -22 -74 -18 -108 11 -26 21 -31 33 -31 69
0 36 5 48 31 69 40 34 91 35 124 2z m426 -5 c86 -86 -36 -216 -128 -137 -23
20 -28 32 -28 71 0 39 5 51 28 71 40 34 90 32 128 -5z"/>
<path d="M703 1035 c-8 -22 0 -27 42 -30 40 -2 53 9 35 30 -17 20 -69 19 -77
0z"/>
<path d="M1131 1036 c-19 -23 -6 -33 36 -31 30 2 38 7 38 21 0 25 -56 32 -74
10z"/>
</g>
</svg>
