<?xml version="1.0" standalone="no"?>
<!DOCTYPE svg PUBLIC "-//W3C//DTD SVG 20010904//EN"
 "http://www.w3.org/TR/2001/REC-SVG-20010904/DTD/svg10.dtd">
<svg version="1.0" xmlns="http://www.w3.org/2000/svg"
 width="192.000000pt" height="192.000000pt" viewBox="0 0 192.000000 192.000000"
 preserveAspectRatio="xMidYMid meet">
<metadata>
Created by potrace 1.16, written by Peter Selinger 2001-2019
</metadata>
<g transform="translate(0.000000,192.000000) scale(0.100000,-0.100000)"
fill="#000000" stroke="none">
811 c445 -92 729 -532 635 -987 -62 -301 -295 -546 -601 -630 -91 -26 -329
-26 -420 0 -291 80 -516 305 -596 596 -26 91 -26 329 0 420 120 433 542 692
982 601z"/>
<path d="M596 1316 l-36 -43 0 -274 c0 -302 4 -323 66 -381 48 -45 71 -48 329
-48 258 0 281 3 329 48 62 58 66 79 66 382 l0 275 -40 45 -40 45 -31 -35 -30
-35 -28 33 c-15 17 -31 32 -36 32 -5 0 -21 -15 -36 -32 l-28 -33 -30 35 -31
35 -33 -37 -32 -36 -33 36 -32 37 -31 -35 -30 -35 -28 33 c-15 17 -31 32 -36
32 -5 0 -21 -15 -36 -32 l-28 -33 -26 33 c-15 17 -30 32 -35 32 -5 0 -25 -20
-44 -44z m634 -178 c13 -25 13 -31 0 -55 l-16 -28 -256 -3 c-223 -2 -258 0
-272 14 -18 18 -21 56 -6 85 10 19 22 19 273 17 l261 -3 16 -27z m-329 -156
c29 -25 20 -58 -14 -47 -12 4 -39 9 -59 12 -33 4 -42 1 -73 -30 -55 -55 -40
-134 32 -163 42 -18 94 -5 118 29 22 32 19 36 -27 39 -36 2 -44 7 -46 26 -3
21 -1 22 74 22 l77 0 -6 -42 c-11 -80 -71 -133 -152 -133 -153 0 -213 198 -86
282 44 30 128 32 162 5z m334 -7 c0 -18 -8 -20 -99 -23 -101 -3 -124 4 -113
33 6 13 23 15 109 13 95 -3 103 -4 103 -23z m0 -80 c0 -18 -8 -20 -99 -23
-101 -3 -124 4 -113 33 6 13 23 15 109 13 95 -3 103 -4 103 -23z m0 -80 c0
-18 -8 -20 -99 -23 -101 -3 -124 4 -113 33 6 13 23 15 109 13 95 -3 103 -4
103 -23z m0 -80 c0 -18 -8 -20 -99 -23 -101 -3 -124 4 -113 33 6 13 23 15 109
13 95 -3 103 -4 103 -23z"/>
</g>
</svg>
