<?xml version="1.0" standalone="no"?>
<!DOCTYPE svg PUBLIC "-//W3C//DTD SVG 20010904//EN"
 "http://www.w3.org/TR/2001/REC-SVG-20010904/DTD/svg10.dtd">
<svg version="1.0" xmlns="http://www.w3.org/2000/svg"
 width="192.000000pt" height="192.000000pt" viewBox="0 0 192.000000 192.000000"
 preserveAspectRatio="xMidYMid meet">
<metadata>
Created by potrace 1.16, written by Peter Selinger 2001-2019
</metadata>
<g transform="translate(0.000000,192.000000) scale(0.100000,-0.100000)"
fill="#000000" stroke="none">
811 c445 -92 729 -532 635 -987 -62 -301 -295 -546 -601 -630 -91 -26 -329
-26 -420 0 -291 80 -516 305 -596 596 -26 91 -26 329 0 420 120 433 542 692
982 601z"/>
<path d="M667 1353 c-4 -3 -7 -10 -7 -14 0 -12 328 -309 342 -309 16 0 108 91
108 106 0 16 -384 224 -412 224 -14 0 -28 -3 -31 -7z"/>
<path d="M597 1293 c-4 -3 -7 -152 -7 -330 0 -302 1 -323 18 -323 15 0 352
326 352 342 0 8 -340 318 -349 318 -4 0 -11 -3 -14 -7z"/>
<path d="M1112 1047 c-34 -35 -62 -65 -62 -69 0 -3 34 -36 76 -73 l75 -68 51
24 c60 28 88 61 88 103 0 46 -23 72 -99 111 l-68 34 -61 -62z"/>
<path d="M829 774 c-93 -93 -169 -176 -169 -186 0 -41 61 -20 269 95 113 62
206 118 209 125 3 11 -92 107 -125 125 -11 7 -57 -33 -184 -159z"/>
</g>
</svg>
