<?xml version="1.0" standalone="no"?>
<!DOCTYPE svg PUBLIC "-//W3C//DTD SVG 20010904//EN"
 "http://www.w3.org/TR/2001/REC-SVG-20010904/DTD/svg10.dtd">
<svg version="1.0" xmlns="http://www.w3.org/2000/svg"
 width="192.000000pt" height="192.000000pt" viewBox="0 0 192.000000 192.000000"
 preserveAspectRatio="xMidYMid meet">
<metadata>
Created by potrace 1.16, written by Peter Selinger 2001-2019
</metadata>
<g transform="translate(0.000000,192.000000) scale(0.100000,-0.100000)"
fill="#000000" stroke="none">
811 c445 -92 729 -532 635 -987 -62 -301 -295 -546 -601 -630 -91 -26 -329
-26 -420 0 -291 80 -516 305 -596 596 -26 91 -26 329 0 420 120 433 542 692
982 601z"/>
<path d="M871 1415 c-71 -20 -110 -45 -165 -106 -53 -59 -80 -131 -80 -214 0
-117 39 -183 215 -368 68 -71 77 -77 114 -77 36 0 46 6 112 75 175 181 217
253 217 370 0 95 -27 160 -98 231 -89 89 -201 120 -315 89z m150 -254 c21 -22
29 -39 29 -66 0 -51 -44 -95 -95 -95 -51 0 -95 44 -95 95 0 27 8 44 29 66 22
21 39 29 66 29 27 0 44 -8 66 -29z"/>
<path d="M686 719 c-67 -80 -5 -166 146 -199 72 -16 236 -8 301 15 67 24 117
75 117 120 0 42 -43 97 -73 93 -36 -5 -44 -33 -20 -66 21 -28 21 -31 4 -46
-66 -60 -278 -71 -387 -19 -43 21 -49 39 -24 70 15 19 17 30 9 44 -14 28 -44
23 -73 -12z"/>
</g>
</svg>
