<?xml version="1.0" standalone="no"?>
<!DOCTYPE svg PUBLIC "-//W3C//DTD SVG 20010904//EN"
 "http://www.w3.org/TR/2001/REC-SVG-20010904/DTD/svg10.dtd">
<svg version="1.0" xmlns="http://www.w3.org/2000/svg"
 width="192.000000pt" height="192.000000pt" viewBox="0 0 192.000000 192.000000"
 preserveAspectRatio="xMidYMid meet">
<metadata>
Created by potrace 1.16, written by Peter Selinger 2001-2019
</metadata>
<g transform="translate(0.000000,192.000000) scale(0.100000,-0.100000)"
fill="#000000" stroke="none">
811 c445 -92 729 -532 635 -987 -62 -301 -295 -546 -601 -630 -91 -26 -329
-26 -420 0 -291 80 -516 305 -596 596 -26 91 -26 329 0 420 120 433 542 692
982 601z"/>
<path d="M871 1325 c-30 -9 -69 -25 -87 -36 -48 -29 -121 -114 -135 -156 -6
-20 -27 -51 -45 -70 -47 -46 -65 -87 -71 -153 -9 -92 47 -192 132 -238 25 -14
69 -18 255 -20 124 -2 244 -1 266 3 70 10 129 57 165 131 28 56 31 71 26 122
-6 67 -22 104 -67 152 -17 18 -42 57 -56 86 -66 140 -236 220 -383 179z m154
-154 c70 -32 115 -96 115 -162 0 -23 4 -29 20 -29 12 0 32 -12 45 -26 35 -37
34 -92 -1 -128 l-27 -26 -222 0 -222 0 -27 26 c-36 37 -36 91 1 128 28 29 47
30 140 11 26 -6 36 -2 57 18 15 15 26 38 26 52 0 31 -38 72 -75 81 -35 9 -28
25 25 52 53 27 92 28 145 3z"/>
</g>
</svg>
