<?xml version="1.0" standalone="no"?>
<!DOCTYPE svg PUBLIC "-//W3C//DTD SVG 20010904//EN"
 "http://www.w3.org/TR/2001/REC-SVG-20010904/DTD/svg10.dtd">
<svg version="1.0" xmlns="http://www.w3.org/2000/svg"
 width="192.000000pt" height="192.000000pt" viewBox="0 0 192.000000 192.000000"
 preserveAspectRatio="xMidYMid meet">
<metadata>
Created by potrace 1.16, written by Peter Selinger 2001-2019
</metadata>
<g transform="translate(0.000000,192.000000) scale(0.100000,-0.100000)"
fill="#000000" stroke="none">
811 c445 -92 729 -532 635 -987 -62 -301 -295 -546 -601 -630 -91 -26 -329
-26 -420 0 -291 80 -516 305 -596 596 -26 91 -26 329 0 420 120 433 542 692
982 601z"/>
<path d="M963 1419 c-10 -10 -13 -63 -13 -193 -1 -171 -2 -179 -16 -146 -45
105 -164 159 -277 126 -72 -21 -139 -92 -157 -165 -6 -28 -9 -55 -5 -61 4 -6
76 -10 198 -10 l192 -1 -40 -20 c-127 -63 -177 -199 -116 -317 37 -72 113
-122 186 -122 l35 0 0 193 1 192 21 -40 c47 -91 115 -134 211 -135 65 0 107
15 153 53 42 35 76 109 72 156 l-3 36 -185 5 c-102 3 -174 8 -160 12 40 12 96
64 119 111 40 82 23 197 -37 260 -51 54 -154 91 -179 66z"/>
</g>
</svg>
