<?xml version="1.0" standalone="no"?>
<!DOCTYPE svg PUBLIC "-//W3C//DTD SVG 20010904//EN"
 "http://www.w3.org/TR/2001/REC-SVG-20010904/DTD/svg10.dtd">
<svg version="1.0" xmlns="http://www.w3.org/2000/svg"
 width="192.000000pt" height="192.000000pt" viewBox="0 0 192.000000 192.000000"
 preserveAspectRatio="xMidYMid meet">
<metadata>
Created by potrace 1.16, written by Peter Selinger 2001-2019
</metadata>
<g transform="translate(0.000000,192.000000) scale(0.100000,-0.100000)"
fill="#000000" stroke="none">
811 c445 -92 729 -532 635 -987 -62 -301 -295 -546 -601 -630 -91 -26 -329
-26 -420 0 -291 80 -516 305 -596 596 -26 91 -26 329 0 420 120 433 542 692
982 601z"/>
<path d="M917 1362 c-21 -24 -22 -90 -1 -120 35 -51 94 -12 94 64 0 65 -55 98
-93 56z"/>
<path d="M742 1204 c-21 -14 -22 -23 -22 -133 0 -126 5 -141 50 -141 45 0 50
15 50 141 0 110 -1 119 -22 133 -12 9 -25 16 -28 16 -3 0 -16 -7 -28 -16z"/>
<path d="M1107 1202 c-20 -22 -23 -112 -5 -130 7 -7 24 -12 38 -12 38 0 50 18
50 76 0 43 -4 56 -22 68 -29 21 -41 20 -61 -2z"/>
<path d="M917 1152 c-14 -16 -17 -44 -17 -185 0 -154 2 -169 20 -187 11 -11
27 -20 35 -20 8 0 24 9 35 20 18 18 20 33 20 183 0 131 -3 167 -16 185 -18 27
-55 29 -77 4z"/>
<path d="M557 1032 c-20 -22 -23 -112 -5 -130 7 -7 24 -12 38 -12 38 0 50 18
50 75 0 75 -44 110 -83 67z"/>
<path d="M1287 1032 c-20 -22 -23 -112 -5 -130 7 -7 24 -12 38 -12 38 0 50 18
50 76 0 43 -4 56 -22 68 -29 21 -41 20 -61 -2z"/>
<path d="M1102 988 c-17 -17 -17 -239 0 -256 7 -7 24 -12 38 -12 45 0 50 15
50 140 0 125 -5 140 -50 140 -14 0 -31 -5 -38 -12z"/>
<path d="M737 862 c-20 -22 -23 -112 -5 -130 7 -7 24 -12 38 -12 38 0 50 18
50 75 0 75 -44 110 -83 67z"/>
<path d="M917 692 c-21 -24 -22 -90 -1 -120 35 -51 94 -12 94 64 0 65 -55 98
-93 56z"/>
</g>
</svg>
