<?xml version="1.0" standalone="no"?>
<!DOCTYPE svg PUBLIC "-//W3C//DTD SVG 20010904//EN"
 "http://www.w3.org/TR/2001/REC-SVG-20010904/DTD/svg10.dtd">
<svg version="1.0" xmlns="http://www.w3.org/2000/svg"
 width="192.000000pt" height="192.000000pt" viewBox="0 0 192.000000 192.000000"
 preserveAspectRatio="xMidYMid meet">
<metadata>
Created by potrace 1.16, written by Peter Selinger 2001-2019
</metadata>
<g transform="translate(0.000000,192.000000) scale(0.100000,-0.100000)"
fill="#000000" stroke="none">
811 c445 -92 729 -532 635 -987 -62 -301 -295 -546 -601 -630 -91 -26 -329
-26 -420 0 -291 80 -516 305 -596 596 -26 91 -26 329 0 420 120 433 542 692
982 601z"/>
<path d="M527 1242 c-23 -25 -21 -68 3 -92 19 -19 33 -20 425 -20 392 0 406 1
425 20 25 25 26 72 2 93 -17 15 -61 17 -429 17 -384 0 -411 -1 -426 -18z"/>
<path d="M535 1025 c-24 -24 -25 -28 -25 -180 0 -152 1 -156 25 -180 23 -24
28 -25 177 -25 208 1 208 0 208 205 0 205 0 204 -208 205 -149 0 -154 -1 -177
-25z"/>
<path d="M1036 1028 c-22 -31 -20 -74 4 -98 18 -18 33 -20 173 -20 173 0 187
5 187 72 0 62 -16 68 -193 68 -150 0 -156 -1 -171 -22z"/>
<path d="M1040 760 c-24 -24 -26 -67 -4 -98 15 -21 21 -22 173 -22 178 0 191
5 191 72 0 62 -16 68 -188 68 -139 0 -154 -2 -172 -20z"/>
</g>
</svg>
