<?xml version="1.0" standalone="no"?>
<!DOCTYPE svg PUBLIC "-//W3C//DTD SVG 20010904//EN"
 "http://www.w3.org/TR/2001/REC-SVG-20010904/DTD/svg10.dtd">
<svg version="1.0" xmlns="http://www.w3.org/2000/svg"
 width="192.000000pt" height="192.000000pt" viewBox="0 0 192.000000 192.000000"
 preserveAspectRatio="xMidYMid meet">
<metadata>
Created by potrace 1.16, written by Peter Selinger 2001-2019
</metadata>
<g transform="translate(0.000000,192.000000) scale(0.100000,-0.100000)"
fill="#000000" stroke="none">
811 c445 -92 729 -532 635 -987 -62 -301 -295 -546 -601 -630 -91 -26 -329
-26 -420 0 -291 80 -516 305 -596 596 -26 91 -26 329 0 420 120 433 542 692
982 601z"/>
<path d="M719 1346 c-66 -45 -69 -59 -69 -381 0 -322 3 -336 69 -381 35 -23
40 -24 236 -24 196 0 201 1 236 24 65 44 69 64 69 336 l0 241 -97 105 -98 104
-155 0 c-148 0 -157 -1 -191 -24z m329 -123 l3 -72 72 -3 c64 -3 72 -5 72 -23
0 -19 -7 -20 -95 -20 l-95 0 -3 84 c-3 96 1 114 25 109 15 -3 19 -16 21 -75z
m-170 -342 c6 -64 -4 -81 -48 -81 -40 0 -40 0 -40 -40 0 -33 -3 -40 -20 -40
-19 0 -20 7 -20 100 l0 101 63 -3 62 -3 3 -34z m147 -61 l0 -95 -57 -3 -58 -3
0 101 0 101 58 -3 57 -3 0 -95z m153 83 c-2 -13 -14 -19 -41 -21 -29 -3 -37
-7 -37 -23 0 -14 7 -19 30 -19 23 0 30 -4 30 -20 0 -15 -7 -20 -29 -20 -27 0
-30 -3 -33 -37 -2 -27 -8 -39 -20 -41 -16 -3 -18 7 -18 97 l0 101 61 0 c52 0
60 -2 57 -17z"/>
<path d="M790 860 c0 -15 7 -20 25 -20 18 0 25 5 25 20 0 15 -7 20 -25 20 -18
0 -25 -5 -25 -20z"/>
<path d="M940 820 c0 -57 1 -60 25 -60 24 0 25 3 25 60 0 57 -1 60 -25 60 -24
0 -25 -3 -25 -60z"/>
</g>
</svg>
