<?xml version="1.0" standalone="no"?>
<!DOCTYPE svg PUBLIC "-//W3C//DTD SVG 20010904//EN"
 "http://www.w3.org/TR/2001/REC-SVG-20010904/DTD/svg10.dtd">
<svg version="1.0" xmlns="http://www.w3.org/2000/svg"
 width="192.000000pt" height="192.000000pt" viewBox="0 0 192.000000 192.000000"
 preserveAspectRatio="xMidYMid meet">
<metadata>
Created by potrace 1.16, written by Peter Selinger 2001-2019
</metadata>
<g transform="translate(0.000000,192.000000) scale(0.100000,-0.100000)"
fill="#000000" stroke="none">
811 c445 -92 729 -532 635 -987 -62 -301 -295 -546 -601 -630 -91 -26 -329
-26 -420 0 -291 80 -516 305 -596 596 -26 91 -26 329 0 420 120 433 542 692
982 601z"/>
<path d="M814 1311 c-107 -31 -241 -116 -270 -173 -22 -43 -9 -69 114 -217 57
-69 130 -160 162 -203 114 -147 155 -155 238 -45 22 30 80 98 127 153 133 151
185 229 185 277 0 36 -6 47 -49 88 -121 117 -339 168 -507 120z m268 -185 c99
-29 99 -26 -19 -169 l-104 -127 -104 127 c-63 76 -101 131 -95 137 40 40 231
60 322 32z"/>
</g>
</svg>
