<?xml version="1.0" standalone="no"?>
<!DOCTYPE svg PUBLIC "-//W3C//DTD SVG 20010904//EN"
 "http://www.w3.org/TR/2001/REC-SVG-20010904/DTD/svg10.dtd">
<svg version="1.0" xmlns="http://www.w3.org/2000/svg"
 width="192.000000pt" height="192.000000pt" viewBox="0 0 192.000000 192.000000"
 preserveAspectRatio="xMidYMid meet">
<metadata>
Created by potrace 1.16, written by Peter Selinger 2001-2019
</metadata>
<g transform="translate(0.000000,192.000000) scale(0.100000,-0.100000)"
fill="#000000" stroke="none">
811 c445 -92 729 -532 635 -987 -62 -301 -295 -546 -601 -630 -91 -26 -329
-26 -420 0 -291 80 -516 305 -596 596 -26 91 -26 329 0 420 120 433 542 692
982 601z"/>
<path d="M894 1360 c-124 -19 -241 -105 -296 -218 -31 -63 -33 -72 -33 -177 0
-104 2 -113 31 -170 61 -116 187 -207 307 -221 88 -10 137 26 137 100 0 52
-33 84 -99 96 -68 13 -105 34 -145 83 -26 32 -31 48 -34 105 -3 61 -1 71 27
114 81 126 268 120 338 -11 22 -42 23 -55 23 -228 0 -232 12 -263 105 -263 27
0 44 8 66 29 l29 29 0 199 c0 146 -4 213 -15 249 -57 193 -246 315 -441 284z"/>
</g>
</svg>
