<?xml version="1.0" standalone="no"?>
<!DOCTYPE svg PUBLIC "-//W3C//DTD SVG 20010904//EN"
 "http://www.w3.org/TR/2001/REC-SVG-20010904/DTD/svg10.dtd">
<svg version="1.0" xmlns="http://www.w3.org/2000/svg"
 width="192.000000pt" height="192.000000pt" viewBox="0 0 192.000000 192.000000"
 preserveAspectRatio="xMidYMid meet">
<metadata>
Created by potrace 1.16, written by Peter Selinger 2001-2019
</metadata>
<g transform="translate(0.000000,192.000000) scale(0.100000,-0.100000)"
fill="#000000" stroke="none">
811 c445 -92 729 -532 635 -987 -62 -301 -295 -546 -601 -630 -91 -26 -329
-26 -420 0 -291 80 -516 305 -596 596 -26 91 -26 329 0 420 120 433 542 692
982 601z"/>
<path d="M829 1372 c-147 -59 -239 -191 -239 -342 0 -124 40 -194 210 -373
109 -114 113 -117 155 -117 42 0 46 3 155 117 179 188 218 263 208 404 -9 126
-86 237 -203 295 -51 25 -74 29 -150 32 -69 1 -101 -2 -136 -16z m98 -228 c7
-10 13 -30 13 -46 0 -24 -4 -28 -29 -28 -21 0 -32 6 -36 21 -5 15 -14 19 -33
17 -26 -3 -27 -5 -27 -73 0 -68 1 -70 26 -73 30 -3 49 25 24 34 -8 4 -15 17
-15 30 0 22 4 24 45 24 l45 0 0 -55 c0 -74 -20 -95 -94 -95 -89 0 -97 13 -94
140 3 100 4 105 28 118 34 18 130 9 147 -14z m217 7 c13 -11 16 -35 16 -117 0
-95 -2 -104 -22 -118 -34 -24 -123 -21 -148 4 -17 17 -20 33 -20 113 0 93 8
118 40 131 25 9 118 0 134 -13z"/>
<path d="M1036 1095 c-9 -24 -7 -108 3 -123 4 -8 19 -12 32 -10 23 3 24 7 24
73 0 68 -1 70 -26 73 -17 2 -29 -3 -33 -13z"/>
</g>
</svg>
