<?xml version="1.0" standalone="no"?>
<!DOCTYPE svg PUBLIC "-//W3C//DTD SVG 20010904//EN"
 "http://www.w3.org/TR/2001/REC-SVG-20010904/DTD/svg10.dtd">
<svg version="1.0" xmlns="http://www.w3.org/2000/svg"
 width="192.000000pt" height="192.000000pt" viewBox="0 0 192.000000 192.000000"
 preserveAspectRatio="xMidYMid meet">
<metadata>
Created by potrace 1.16, written by Peter Selinger 2001-2019
</metadata>
<g transform="translate(0.000000,192.000000) scale(0.100000,-0.100000)"
fill="#000000" stroke="none">
811 c445 -92 729 -532 635 -987 -62 -301 -295 -546 -601 -630 -91 -26 -329
-26 -420 0 -291 80 -516 305 -596 596 -26 91 -26 329 0 420 120 433 542 692
982 601z"/>
<path d="M893 1389 c-114 -22 -220 -106 -269 -212 -25 -53 -29 -75 -29 -147 0
-121 30 -181 167 -330 156 -170 169 -179 229 -158 40 14 262 258 294 323 86
173 30 371 -133 473 -76 48 -176 68 -259 51z m140 -289 c52 -50 36 -134 -31
-166 -48 -23 -105 -6 -132 39 -24 39 -25 68 -4 108 32 62 114 71 167 19z"/>
</g>
</svg>
