<?xml version="1.0" standalone="no"?>
<!DOCTYPE svg PUBLIC "-//W3C//DTD SVG 20010904//EN"
 "http://www.w3.org/TR/2001/REC-SVG-20010904/DTD/svg10.dtd">
<svg version="1.0" xmlns="http://www.w3.org/2000/svg"
 width="192.000000pt" height="192.000000pt" viewBox="0 0 192.000000 192.000000"
 preserveAspectRatio="xMidYMid meet">
<metadata>
Created by potrace 1.16, written by Peter Selinger 2001-2019
</metadata>
<g transform="translate(0.000000,192.000000) scale(0.100000,-0.100000)"
fill="#000000" stroke="none">
811 c445 -92 729 -532 635 -987 -62 -301 -295 -546 -601 -630 -91 -26 -329
-26 -420 0 -291 80 -516 305 -596 596 -26 91 -26 329 0 420 120 433 542 692
982 601z"/>
<path d="M889 1357 c-114 -39 -202 -131 -236 -246 -20 -69 -13 -179 15 -241
l20 -45 -79 -81 c-62 -64 -79 -88 -79 -110 1 -51 50 -91 98 -79 15 3 59 38 99
77 l72 71 58 -25 c219 -97 461 27 513 262 6 30 10 73 8 95 l-3 40 -134 3
c-126 2 -135 1 -158 -19 -27 -26 -30 -65 -7 -97 13 -19 24 -22 75 -22 50 0 59
-3 59 -18 0 -10 -14 -33 -32 -51 -79 -81 -192 -100 -281 -48 -93 55 -132 169
-93 272 28 73 115 135 189 135 48 0 87 33 87 73 -1 78 -67 96 -191 54z"/>
</g>
</svg>
