<?xml version="1.0" standalone="no"?>
<!DOCTYPE svg PUBLIC "-//W3C//DTD SVG 20010904//EN"
 "http://www.w3.org/TR/2001/REC-SVG-20010904/DTD/svg10.dtd">
<svg version="1.0" xmlns="http://www.w3.org/2000/svg"
 width="192.000000pt" height="192.000000pt" viewBox="0 0 192.000000 192.000000"
 preserveAspectRatio="xMidYMid meet">
<metadata>
Created by potrace 1.16, written by Peter Selinger 2001-2019
</metadata>
<g transform="translate(0.000000,192.000000) scale(0.100000,-0.100000)"
fill="#000000" stroke="none">
811 c445 -92 729 -532 635 -987 -62 -301 -295 -546 -601 -630 -91 -26 -329
-26 -420 0 -291 80 -516 305 -596 596 -26 91 -26 329 0 420 120 433 542 692
982 601z"/>
<path d="M840 1384 c-210 -56 -349 -271 -312 -484 49 -284 352 -445 610 -323
74 34 170 131 205 204 156 331 -150 697 -503 603z m233 -178 c41 -20 57 -56
37 -81 -16 -19 -39 -19 -79 1 -37 19 -120 20 -153 3 -66 -33 -98 -86 -98 -159
0 -70 24 -117 79 -151 77 -50 167 -36 229 35 49 57 44 66 -37 66 -59 0 -72 3
-84 21 -19 26 -11 58 17 65 11 2 68 4 126 2 l105 -3 3 -38 c8 -100 -74 -218
-177 -252 -133 -44 -272 17 -330 145 -27 59 -28 159 -2 216 24 52 82 111 135
135 53 25 173 22 229 -5z"/>
</g>
</svg>
