<?xml version="1.0" standalone="no"?>
<!DOCTYPE svg PUBLIC "-//W3C//DTD SVG 20010904//EN"
 "http://www.w3.org/TR/2001/REC-SVG-20010904/DTD/svg10.dtd">
<svg version="1.0" xmlns="http://www.w3.org/2000/svg"
 width="192.000000pt" height="192.000000pt" viewBox="0 0 192.000000 192.000000"
 preserveAspectRatio="xMidYMid meet">
<metadata>
Created by potrace 1.16, written by Peter Selinger 2001-2019
</metadata>
<g transform="translate(0.000000,192.000000) scale(0.100000,-0.100000)"
fill="#000000" stroke="none">
811 c445 -92 729 -532 635 -987 -62 -301 -295 -546 -601 -630 -91 -26 -329
-26 -420 0 -291 80 -516 305 -596 596 -26 91 -26 329 0 420 120 433 542 692
982 601z"/>
<path d="M830 1362 c-184 -61 -299 -229 -288 -422 20 -353 452 -515 703 -265
205 206 143 543 -123 668 -85 40 -205 48 -292 19z m166 -67 c15 -23 15 -27 0
-50 -28 -42 -96 -24 -96 25 0 49 68 67 96 25z m70 -140 c64 -38 98 -95 102
-174 3 -54 -1 -74 -20 -110 -62 -120 -216 -157 -321 -78 -117 89 -117 268 0
351 73 51 162 55 239 11z m-382 -151 c24 -24 20 -61 -9 -80 -23 -15 -27 -15
-50 0 -42 28 -24 96 25 96 10 0 26 -7 34 -16z m611 -4 c23 -26 11 -69 -23 -81
-18 -7 -28 -4 -48 16 -29 29 -30 39 -4 65 26 26 52 25 75 0z m-296 -318 c25
-48 -42 -93 -81 -54 -15 15 -19 27 -14 47 12 46 72 51 95 7z"/>
<path d="M882 1113 c-82 -40 -115 -144 -71 -223 55 -98 182 -116 257 -36 78
82 58 207 -42 255 -51 25 -99 26 -144 4z"/>
</g>
</svg>
