<?xml version="1.0" standalone="no"?>
<!DOCTYPE svg PUBLIC "-//W3C//DTD SVG 20010904//EN"
 "http://www.w3.org/TR/2001/REC-SVG-20010904/DTD/svg10.dtd">
<svg version="1.0" xmlns="http://www.w3.org/2000/svg"
 width="192.000000pt" height="192.000000pt" viewBox="0 0 192.000000 192.000000"
 preserveAspectRatio="xMidYMid meet">
<metadata>
Created by potrace 1.16, written by Peter Selinger 2001-2019
</metadata>
<g transform="translate(0.000000,192.000000) scale(0.100000,-0.100000)"
fill="#000000" stroke="none">
811 c445 -92 729 -532 635 -987 -62 -301 -295 -546 -601 -630 -91 -26 -329
-26 -420 0 -291 80 -516 305 -596 596 -26 91 -26 329 0 420 120 433 542 692
982 601z"/>
<path d="M895 1371 c-55 -14 -112 -50 -148 -92 -59 -69 -86 -179 -51 -213 34
-35 69 -11 78 51 13 98 88 163 186 163 61 0 96 -17 138 -64 36 -41 47 -86 39
-161 -7 -71 -27 -105 -108 -191 -69 -73 -89 -106 -89 -148 0 -47 -70 -81 -125
-60 -19 8 -45 55 -45 83 0 19 -26 41 -49 41 -19 0 -41 -32 -41 -58 1 -76 71
-153 153 -168 82 -14 176 52 198 142 9 34 27 61 67 102 30 31 65 73 77 92 60
95 74 227 35 318 -25 57 -92 126 -145 148 -42 17 -131 25 -170 15z"/>
<path d="M903 1220 c-37 -22 -49 -41 -58 -95 -4 -22 -20 -57 -36 -77 -33 -42
-36 -64 -12 -90 16 -18 16 -21 0 -47 -23 -40 -21 -68 8 -96 35 -36 92 -34 129
3 35 38 43 88 22 148 -19 56 -21 155 -4 172 20 20 48 14 58 -12 10 -28 38 -46
60 -38 43 15 41 73 -4 118 -29 29 -41 34 -82 34 -31 0 -61 -7 -81 -20z"/>
</g>
</svg>
