<?xml version="1.0" standalone="no"?>
<!DOCTYPE svg PUBLIC "-//W3C//DTD SVG 20010904//EN"
 "http://www.w3.org/TR/2001/REC-SVG-20010904/DTD/svg10.dtd">
<svg version="1.0" xmlns="http://www.w3.org/2000/svg"
 width="192.000000pt" height="192.000000pt" viewBox="0 0 192.000000 192.000000"
 preserveAspectRatio="xMidYMid meet">
<metadata>
Created by potrace 1.16, written by Peter Selinger 2001-2019
</metadata>
<g transform="translate(0.000000,192.000000) scale(0.100000,-0.100000)"
fill="#000000" stroke="none">
811 c445 -92 729 -532 635 -987 -62 -301 -295 -546 -601 -630 -91 -26 -329
-26 -420 0 -291 80 -516 305 -596 596 -26 91 -26 329 0 420 120 433 542 692
982 601z"/>
<path d="M698 1360 c-20 -11 -47 -36 -60 -57 -22 -37 -23 -44 -26 -318 -4
-293 0 -330 40 -380 46 -58 78 -65 344 -65 202 0 244 2 254 15 7 8 10 22 6 30
-4 13 -35 15 -196 15 -113 0 -199 4 -211 10 -23 13 -25 46 -3 54 9 3 99 6 201
6 l185 0 29 29 29 29 0 297 0 297 -29 29 -29 29 -249 0 c-225 -1 -251 -3 -285
-20z m462 -190 c0 -134 -6 -171 -24 -142 -3 5 -23 21 -45 36 l-40 28 -47 -36
c-25 -20 -50 -33 -55 -30 -5 3 -9 70 -9 150 l0 144 110 0 110 0 0 -150z"/>
</g>
</svg>
