<?xml version="1.0" standalone="no"?>
<!DOCTYPE svg PUBLIC "-//W3C//DTD SVG 20010904//EN"
 "http://www.w3.org/TR/2001/REC-SVG-20010904/DTD/svg10.dtd">
<svg version="1.0" xmlns="http://www.w3.org/2000/svg"
 width="192.000000pt" height="192.000000pt" viewBox="0 0 192.000000 192.000000"
 preserveAspectRatio="xMidYMid meet">
<metadata>
Created by potrace 1.16, written by Peter Selinger 2001-2019
</metadata>
<g transform="translate(0.000000,192.000000) scale(0.100000,-0.100000)"
fill="#000000" stroke="none">
811 c445 -92 729 -532 635 -987 -62 -301 -295 -546 -601 -630 -91 -26 -329
-26 -420 0 -291 80 -516 305 -596 596 -26 91 -26 329 0 420 120 433 542 692
982 601z"/>
<path d="M740 1355 c-61 -19 -116 -67 -145 -126 -24 -47 -25 -55 -25 -261 0
-194 2 -215 21 -255 26 -54 96 -116 147 -131 53 -16 401 -16 454 0 53 16 131
88 154 140 12 31 19 79 22 174 5 157 -1 174 -58 174 -49 0 -65 17 -73 74 -12
84 -67 160 -147 202 -47 25 -282 31 -350 9z m274 -211 c20 -20 20 -33 -1 -56
-13 -15 -32 -18 -105 -18 -99 0 -128 10 -128 43 0 40 18 47 121 47 75 0 101
-4 113 -16z m134 -318 c2 -16 -2 -32 -10 -37 -21 -14 -332 -11 -346 3 -13 13
-16 51 -5 62 4 3 86 5 182 4 l176 -3 3 -29z"/>
</g>
</svg>
