<?xml version="1.0" standalone="no"?>
<!DOCTYPE svg PUBLIC "-//W3C//DTD SVG 20010904//EN"
 "http://www.w3.org/TR/2001/REC-SVG-20010904/DTD/svg10.dtd">
<svg version="1.0" xmlns="http://www.w3.org/2000/svg"
 width="192.000000pt" height="192.000000pt" viewBox="0 0 192.000000 192.000000"
 preserveAspectRatio="xMidYMid meet">
<metadata>
Created by potrace 1.16, written by Peter Selinger 2001-2019
</metadata>
<g transform="translate(0.000000,192.000000) scale(0.100000,-0.100000)"
fill="#000000" stroke="none">
811 c445 -92 729 -532 635 -987 -62 -301 -295 -546 -601 -630 -91 -26 -329
-26 -420 0 -291 80 -516 305 -596 596 -26 91 -26 329 0 420 120 433 542 692
982 601z"/>
<path d="M899 1420 c-183 -30 -310 -222 -265 -398 8 -33 24 -74 34 -92 24 -38
197 -234 231 -261 33 -27 83 -24 119 6 39 33 200 217 224 256 71 117 53 278
-42 383 -78 84 -190 124 -301 106z m122 -259 c21 -22 29 -39 29 -66 0 -51 -44
-95 -95 -95 -51 0 -95 44 -95 95 0 27 8 44 29 66 22 21 39 29 66 29 27 0 44
-8 66 -29z"/>
<path d="M686 719 c-34 -40 -34 -88 -1 -128 79 -93 380 -109 506 -27 68 45 75
125 16 170 -21 16 -32 18 -45 10 -25 -16 -26 -37 -2 -64 19 -22 19 -25 4 -41
-33 -37 -103 -54 -214 -54 -92 1 -112 4 -162 27 -59 27 -70 45 -43 68 20 16
19 56 -1 64 -26 10 -31 8 -58 -25z"/>
</g>
</svg>
