<?xml version="1.0" standalone="no"?>
<!DOCTYPE svg PUBLIC "-//W3C//DTD SVG 20010904//EN"
 "http://www.w3.org/TR/2001/REC-SVG-20010904/DTD/svg10.dtd">
<svg version="1.0" xmlns="http://www.w3.org/2000/svg"
 width="192.000000pt" height="192.000000pt" viewBox="0 0 192.000000 192.000000"
 preserveAspectRatio="xMidYMid meet">
<metadata>
Created by potrace 1.16, written by Peter Selinger 2001-2019
</metadata>
<g transform="translate(0.000000,192.000000) scale(0.100000,-0.100000)"
fill="#000000" stroke="none">
811 c445 -92 729 -532 635 -987 -62 -301 -295 -546 -601 -630 -91 -26 -329
-26 -420 0 -291 80 -516 305 -596 596 -26 91 -26 329 0 420 120 433 542 692
982 601z"/>
<path d="M697 1350 c-46 -14 -93 -56 -116 -103 -20 -42 -21 -57 -19 -272 l3
-227 85 110 c92 120 123 145 179 145 54 0 91 -24 146 -95 26 -34 52 -67 56
-72 5 -5 25 10 48 35 36 41 42 44 91 44 47 0 54 -3 88 -40 21 -22 50 -56 65
-75 l28 -35 -3 225 c-3 225 -3 225 -30 272 -21 34 -41 53 -80 72 -52 26 -54
26 -282 25 -127 0 -244 -5 -259 -9z m512 -114 c56 -29 67 -102 22 -147 -28
-28 -33 -29 -123 -29 -102 0 -112 4 -126 40 -19 49 25 97 76 83 14 -3 22 1 27
16 7 23 49 50 78 51 10 0 30 -6 46 -14z"/>
<path d="M798 929 c-9 -5 -60 -66 -113 -135 -93 -121 -96 -126 -81 -148 8 -13
32 -34 53 -47 37 -23 46 -24 267 -27 l229 -3 -19 25 c-11 14 -71 92 -134 175
-128 166 -155 188 -202 160z"/>
<path d="M1116 816 c-14 -19 -26 -40 -26 -46 0 -12 128 -180 137 -180 17 0 70
42 84 67 17 28 17 28 -48 111 -77 97 -103 106 -147 48z"/>
</g>
</svg>
