<?xml version="1.0" standalone="no"?>
<!DOCTYPE svg PUBLIC "-//W3C//DTD SVG 20010904//EN"
 "http://www.w3.org/TR/2001/REC-SVG-20010904/DTD/svg10.dtd">
<svg version="1.0" xmlns="http://www.w3.org/2000/svg"
 width="192.000000pt" height="192.000000pt" viewBox="0 0 192.000000 192.000000"
 preserveAspectRatio="xMidYMid meet">
<metadata>
Created by potrace 1.16, written by Peter Selinger 2001-2019
</metadata>
<g transform="translate(0.000000,192.000000) scale(0.100000,-0.100000)"
fill="#000000" stroke="none">
811 c445 -92 729 -532 635 -987 -62 -301 -295 -546 -601 -630 -91 -26 -329
-26 -420 0 -291 80 -516 305 -596 596 -26 91 -26 329 0 420 120 433 542 692
982 601z"/>
<path d="M648 1280 c-90 -48 -112 -124 -106 -356 4 -148 5 -153 33 -200 20
-31 45 -56 74 -71 43 -22 51 -23 306 -23 255 0 263 1 306 23 29 15 54 40 74
71 28 47 29 52 33 200 6 234 -17 309 -108 356 -36 19 -59 20 -307 20 -246 -1
-271 -2 -305 -20z m194 -170 c60 -38 111 -70 114 -70 2 0 54 32 114 71 81 52
116 70 137 67 l28 -3 0 -210 0 -210 -28 -3 c-52 -6 -57 7 -57 160 0 161 9 155
-105 78 -41 -27 -81 -50 -90 -50 -9 0 -56 27 -105 60 l-90 61 0 -145 c0 -157
-4 -170 -57 -164 l-28 3 -3 200 c-1 110 0 205 2 212 11 29 62 11 168 -57z"/>
</g>
</svg>
