<?xml version="1.0" standalone="no"?>
<!DOCTYPE svg PUBLIC "-//W3C//DTD SVG 20010904//EN"
 "http://www.w3.org/TR/2001/REC-SVG-20010904/DTD/svg10.dtd">
<svg version="1.0" xmlns="http://www.w3.org/2000/svg"
 width="192.000000pt" height="192.000000pt" viewBox="0 0 192.000000 192.000000"
 preserveAspectRatio="xMidYMid meet">
<metadata>
Created by potrace 1.16, written by Peter Selinger 2001-2019
</metadata>
<g transform="translate(0.000000,192.000000) scale(0.100000,-0.100000)"
fill="#000000" stroke="none">
811 c445 -92 729 -532 635 -987 -62 -301 -295 -546 -601 -630 -91 -26 -329
-26 -420 0 -291 80 -516 305 -596 596 -26 91 -26 329 0 420 120 433 542 692
982 601z"/>
<path d="M825 1331 c-11 -5 -37 -27 -58 -50 -25 -27 -45 -41 -62 -41 -68 0
-136 -58 -156 -132 -7 -26 -10 -108 -7 -218 3 -162 5 -178 26 -212 13 -20 40
-47 60 -60 36 -22 46 -23 292 -26 304 -4 343 1 394 58 20 22 38 50 41 63 4 13
5 114 3 224 -3 185 -5 204 -24 229 -32 44 -67 65 -115 71 -37 4 -51 13 -85 52
l-42 46 -123 2 c-68 2 -133 -1 -144 -6z m215 -251 c58 -30 93 -81 98 -145 6
-70 -11 -116 -58 -159 -115 -104 -285 -44 -316 111 -13 68 43 170 111 199 45
20 120 17 165 -6z"/>
<path d="M871 1014 c-120 -101 13 -285 147 -204 70 43 78 136 17 197 -29 29
-40 33 -83 33 -40 0 -57 -6 -81 -26z"/>
</g>
</svg>
