<?xml version="1.0" standalone="no"?>
<!DOCTYPE svg PUBLIC "-//W3C//DTD SVG 20010904//EN"
 "http://www.w3.org/TR/2001/REC-SVG-20010904/DTD/svg10.dtd">
<svg version="1.0" xmlns="http://www.w3.org/2000/svg"
 width="192.000000pt" height="192.000000pt" viewBox="0 0 192.000000 192.000000"
 preserveAspectRatio="xMidYMid meet">
<metadata>
Created by potrace 1.16, written by Peter Selinger 2001-2019
</metadata>
<g transform="translate(0.000000,192.000000) scale(0.100000,-0.100000)"
fill="#000000" stroke="none">
811 c445 -92 729 -532 635 -987 -62 -301 -295 -546 -601 -630 -91 -26 -329
-26 -420 0 -291 80 -516 305 -596 596 -26 91 -26 329 0 420 120 433 542 692
982 601z"/>
<path d="M645 1281 c-40 -18 -95 -66 -95 -82 0 -5 182 -9 405 -9 223 0 405 4
405 9 0 16 -55 64 -95 82 -36 17 -69 19 -310 19 -241 0 -274 -2 -310 -19z"/>
<path d="M544 1086 c-3 -9 -4 -84 -2 -168 3 -172 11 -195 81 -252 l39 -31 293
0 293 0 39 31 c72 59 78 78 78 264 l0 165 -408 3 c-351 2 -408 0 -413 -12z
m673 -119 c8 -7 11 -21 7 -30 -5 -14 -15 -16 -59 -11 -45 6 -56 3 -74 -15 -57
-57 19 -150 87 -105 l26 17 -35 11 c-24 8 -34 17 -34 31 0 18 8 20 68 23 l67
3 0 -31 c0 -92 -99 -154 -180 -113 -42 22 -80 76 -80 115 0 34 20 76 49 102
39 36 124 37 158 3z"/>
</g>
</svg>
