<?xml version="1.0" standalone="no"?>
<!DOCTYPE svg PUBLIC "-//W3C//DTD SVG 20010904//EN"
 "http://www.w3.org/TR/2001/REC-SVG-20010904/DTD/svg10.dtd">
<svg version="1.0" xmlns="http://www.w3.org/2000/svg"
 width="192.000000pt" height="192.000000pt" viewBox="0 0 192.000000 192.000000"
 preserveAspectRatio="xMidYMid meet">
<metadata>
Created by potrace 1.16, written by Peter Selinger 2001-2019
</metadata>
<g transform="translate(0.000000,192.000000) scale(0.100000,-0.100000)"
fill="#000000" stroke="none">
811 c445 -92 729 -532 635 -987 -62 -301 -295 -546 -601 -630 -91 -26 -329
-26 -420 0 -291 80 -516 305 -596 596 -26 91 -26 329 0 420 120 433 542 692
982 601z"/>
<path d="M833 1356 c-104 -34 -204 -123 -251 -224 -24 -51 -27 -69 -27 -167 0
-104 2 -114 32 -176 40 -80 120 -159 200 -197 52 -24 69 -27 168 -27 104 0
114 2 176 32 79 39 160 120 194 196 27 58 44 155 35 202 l-5 30 -179 3 c-200
3 -216 -2 -216 -63 0 -56 27 -70 146 -73 74 -3 104 -7 104 -16 0 -24 -60 -104
-98 -129 -54 -38 -86 -47 -159 -47 -145 0 -251 100 -261 247 -8 115 51 218
151 264 64 29 170 26 233 -6 27 -14 59 -25 72 -25 31 0 62 34 62 68 0 35 -29
64 -95 93 -62 28 -217 36 -282 15z"/>
</g>
</svg>
