<?xml version="1.0" standalone="no"?>
<!DOCTYPE svg PUBLIC "-//W3C//DTD SVG 20010904//EN"
 "http://www.w3.org/TR/2001/REC-SVG-20010904/DTD/svg10.dtd">
<svg version="1.0" xmlns="http://www.w3.org/2000/svg"
 width="192.000000pt" height="192.000000pt" viewBox="0 0 192.000000 192.000000"
 preserveAspectRatio="xMidYMid meet">
<metadata>
Created by potrace 1.16, written by Peter Selinger 2001-2019
</metadata>
<g transform="translate(0.000000,192.000000) scale(0.100000,-0.100000)"
fill="#000000" stroke="none">
811 c445 -92 729 -532 635 -987 -62 -301 -295 -546 -601 -630 -91 -26 -329
-26 -420 0 -291 80 -516 305 -596 596 -26 91 -26 329 0 420 120 433 542 692
982 601z"/>
<path d="M648 1280 c-91 -48 -112 -116 -106 -342 4 -189 17 -227 90 -275 l42
-28 281 0 281 0 42 28 c73 48 86 86 90 275 6 228 -16 295 -108 342 -36 19 -59
20 -307 20 -246 -1 -271 -2 -305 -20z m192 -170 c58 -38 110 -70 115 -70 6 0
57 32 115 70 113 76 155 88 165 48 3 -13 4 -108 3 -213 l-3 -190 -30 -3 c-48
-6 -55 15 -55 170 l0 139 -90 -61 c-49 -33 -96 -60 -105 -60 -9 0 -56 27 -105
60 l-90 61 0 -139 c0 -155 -7 -176 -55 -170 l-30 3 -3 190 c-1 105 0 200 3
213 10 40 52 28 165 -48z"/>
</g>
</svg>
