<?xml version="1.0" standalone="no"?>
<!DOCTYPE svg PUBLIC "-//W3C//DTD SVG 20010904//EN"
 "http://www.w3.org/TR/2001/REC-SVG-20010904/DTD/svg10.dtd">
<svg version="1.0" xmlns="http://www.w3.org/2000/svg"
 width="192.000000pt" height="192.000000pt" viewBox="0 0 192.000000 192.000000"
 preserveAspectRatio="xMidYMid meet">
<metadata>
Created by potrace 1.16, written by Peter Selinger 2001-2019
</metadata>
<g transform="translate(0.000000,192.000000) scale(0.100000,-0.100000)"
fill="#000000" stroke="none">
811 c445 -92 729 -532 635 -987 -62 -301 -295 -546 -601 -630 -91 -26 -329
-26 -420 0 -291 80 -516 305 -596 596 -26 91 -26 329 0 420 120 433 542 692
982 601z"/>
<path d="M895 1366 c-37 -17 -70 -52 -84 -89 -6 -16 -11 -98 -11 -185 0 -131
3 -164 19 -198 53 -118 230 -112 276 9 13 36 16 73 13 210 -3 180 -7 193 -70
240 -33 25 -104 31 -143 13z"/>
<path d="M702 1014 c-28 -19 -30 -78 -5 -150 22 -64 102 -145 163 -166 33 -10
46 -21 48 -36 3 -18 -2 -22 -25 -22 -34 0 -53 -16 -53 -45 0 -38 19 -45 125
-45 106 0 125 7 125 45 0 29 -19 45 -53 45 -23 0 -28 4 -25 22 2 15 15 26 48
36 61 21 141 102 163 166 26 75 23 132 -7 151 -41 27 -62 7 -70 -64 -14 -126
-111 -196 -229 -166 -81 20 -122 73 -133 170 -5 39 -12 59 -25 65 -22 13 -21
13 -47 -6z"/>
</g>
</svg>
