<?xml version="1.0" standalone="no"?>
<!DOCTYPE svg PUBLIC "-//W3C//DTD SVG 20010904//EN"
 "http://www.w3.org/TR/2001/REC-SVG-20010904/DTD/svg10.dtd">
<svg version="1.0" xmlns="http://www.w3.org/2000/svg"
 width="192.000000pt" height="192.000000pt" viewBox="0 0 192.000000 192.000000"
 preserveAspectRatio="xMidYMid meet">
<metadata>
Created by potrace 1.16, written by Peter Selinger 2001-2019
</metadata>
<g transform="translate(0.000000,192.000000) scale(0.100000,-0.100000)"
fill="#000000" stroke="none">
811 c445 -92 729 -532 635 -987 -62 -301 -295 -546 -601 -630 -91 -26 -329
-26 -420 0 -291 80 -516 305 -596 596 -26 91 -26 329 0 420 120 433 542 692
982 601z"/>
<path d="M720 1348 c-68 -47 -70 -59 -70 -383 0 -324 2 -336 70 -382 31 -22
42 -23 235 -23 193 0 204 1 235 22 66 46 70 64 70 336 l0 244 -97 104 -96 104
-157 0 c-146 0 -159 -2 -190 -22z m328 -125 l3 -72 72 -3 c64 -3 72 -5 72 -23
0 -19 -7 -20 -95 -20 l-95 0 -3 84 c-3 96 1 114 25 109 15 -3 19 -16 21 -75z
m86 -296 c9 -15 7 -21 -8 -33 -15 -11 -55 -14 -169 -14 -145 0 -187 7 -187 33
0 33 23 37 189 35 146 -3 165 -5 175 -21z m0 -103 c15 -38 -9 -44 -179 -44
-170 0 -194 6 -179 44 5 14 29 16 179 16 150 0 174 -2 179 -16z m-150 -107
c19 -31 -17 -47 -102 -47 -75 0 -112 11 -112 33 0 30 25 38 114 35 73 -2 91
-6 100 -21z"/>
</g>
</svg>
