<?xml version="1.0" standalone="no"?>
<!DOCTYPE svg PUBLIC "-//W3C//DTD SVG 20010904//EN"
 "http://www.w3.org/TR/2001/REC-SVG-20010904/DTD/svg10.dtd">
<svg version="1.0" xmlns="http://www.w3.org/2000/svg"
 width="192.000000pt" height="192.000000pt" viewBox="0 0 192.000000 192.000000"
 preserveAspectRatio="xMidYMid meet">
<metadata>
Created by potrace 1.16, written by Peter Selinger 2001-2019
</metadata>
<g transform="translate(0.000000,192.000000) scale(0.100000,-0.100000)"
fill="#000000" stroke="none">
811 c445 -92 729 -532 635 -987 -62 -301 -295 -546 -601 -630 -91 -26 -329
-26 -420 0 -291 80 -516 305 -596 596 -26 91 -26 329 0 420 120 433 542 692
982 601z"/>
<path d="M885 1360 c-36 -23 -65 -74 -65 -113 0 -71 66 -137 137 -137 42 0 94
32 115 71 64 120 -75 253 -187 179z"/>
<path d="M718 1110 c-74 -22 -118 -84 -118 -167 0 -64 12 -80 177 -251 184
-190 163 -190 354 3 79 80 152 160 162 178 48 89 -5 209 -106 237 -59 17 -103
3 -164 -51 -29 -27 -61 -49 -71 -49 -10 0 -34 16 -53 36 -36 39 -101 74 -134
73 -11 0 -32 -4 -47 -9z"/>
</g>
</svg>
