<?xml version="1.0" standalone="no"?>
<!DOCTYPE svg PUBLIC "-//W3C//DTD SVG 20010904//EN"
 "http://www.w3.org/TR/2001/REC-SVG-20010904/DTD/svg10.dtd">
<svg version="1.0" xmlns="http://www.w3.org/2000/svg"
 width="192.000000pt" height="192.000000pt" viewBox="0 0 192.000000 192.000000"
 preserveAspectRatio="xMidYMid meet">
<metadata>
Created by potrace 1.16, written by Peter Selinger 2001-2019
</metadata>
<g transform="translate(0.000000,192.000000) scale(0.100000,-0.100000)"
fill="#000000" stroke="none">
811 c445 -92 729 -532 635 -987 -62 -301 -295 -546 -601 -630 -91 -26 -329
-26 -420 0 -291 80 -516 305 -596 596 -26 91 -26 329 0 420 120 433 542 692
982 601z"/>
<path d="M823 1369 c-75 -29 -156 -106 -195 -187 -30 -60 -33 -76 -33 -152 0
-122 30 -180 173 -337 61 -67 122 -129 134 -137 12 -9 40 -16 62 -16 36 0 46
6 101 63 116 119 207 230 227 274 79 178 9 381 -164 473 -57 31 -72 34 -158
37 -77 3 -105 -1 -147 -18z m205 -262 c48 -45 50 -106 5 -152 -51 -50 -135
-38 -168 25 -19 37 -19 63 1 101 30 59 113 72 162 26z"/>
</g>
</svg>
