<?xml version="1.0" standalone="no"?>
<!DOCTYPE svg PUBLIC "-//W3C//DTD SVG 20010904//EN"
 "http://www.w3.org/TR/2001/REC-SVG-20010904/DTD/svg10.dtd">
<svg version="1.0" xmlns="http://www.w3.org/2000/svg"
 width="192.000000pt" height="192.000000pt" viewBox="0 0 192.000000 192.000000"
 preserveAspectRatio="xMidYMid meet">
<metadata>
Created by potrace 1.16, written by Peter Selinger 2001-2019
</metadata>
<g transform="translate(0.000000,192.000000) scale(0.100000,-0.100000)"
fill="#000000" stroke="none">
811 c445 -92 729 -532 635 -987 -62 -301 -295 -546 -601 -630 -91 -26 -329
-26 -420 0 -291 80 -516 305 -596 596 -26 91 -26 329 0 420 120 433 542 692
982 601z"/>
<path d="M549 1311 c-22 -18 -24 -26 -23 -118 0 -89 3 -105 31 -165 17 -36 49
-84 72 -107 41 -41 41 -41 41 -118 0 -97 27 -150 93 -182 39 -19 61 -21 212
-21 151 0 173 2 212 21 65 32 87 69 92 158 3 62 7 78 25 92 44 35 79 118 84
199 5 84 -8 110 -53 110 -35 0 -55 -36 -55 -98 0 -99 -54 -159 -155 -173 -40
-6 -59 -3 -93 13 -24 11 -79 24 -123 29 -87 10 -128 26 -172 68 -47 43 -60 79
-67 180 -6 82 -9 96 -29 112 -30 24 -63 24 -92 0z"/>
<path d="M828 1283 c-41 -26 -62 -72 -55 -123 11 -81 93 -128 164 -93 51 25
76 62 75 111 -1 96 -104 154 -184 105z"/>
<path d="M1055 1135 c-28 -27 -34 -88 -12 -116 17 -23 52 -39 82 -39 38 0 85
50 85 90 0 76 -102 119 -155 65z"/>
</g>
</svg>
