<?xml version="1.0" standalone="no"?>
<!DOCTYPE svg PUBLIC "-//W3C//DTD SVG 20010904//EN"
 "http://www.w3.org/TR/2001/REC-SVG-20010904/DTD/svg10.dtd">
<svg version="1.0" xmlns="http://www.w3.org/2000/svg"
 width="192.000000pt" height="192.000000pt" viewBox="0 0 192.000000 192.000000"
 preserveAspectRatio="xMidYMid meet">
<metadata>
Created by potrace 1.16, written by Peter Selinger 2001-2019
</metadata>
<g transform="translate(0.000000,192.000000) scale(0.100000,-0.100000)"
fill="#000000" stroke="none">
811 c445 -92 729 -532 635 -987 -62 -301 -295 -546 -601 -630 -91 -26 -329
-26 -420 0 -291 80 -516 305 -596 596 -26 91 -26 329 0 420 120 433 542 692
982 601z"/>
<path d="M773 1147 c-204 -204 -223 -225 -223 -257 0 -31 15 -49 148 -182 203
-203 165 -209 444 70 l218 218 0 166 0 167 -26 20 c-24 19 -40 21 -183 21
l-156 0 -222 -223z m493 108 c21 -31 12 -69 -21 -91 -60 -39 -127 44 -78 98
25 27 79 24 99 -7z m-247 -126 c36 -13 54 -38 41 -59 -7 -12 -15 -12 -43 -2
-96 35 -177 -17 -177 -114 0 -28 8 -44 34 -70 29 -29 41 -34 81 -34 41 0 52 5
84 38 l36 37 -35 3 c-68 5 -82 11 -78 35 3 20 9 22 86 25 l82 3 0 -38 c-1
-173 -254 -225 -330 -67 -69 143 68 295 219 243z"/>
</g>
</svg>
