<?xml version="1.0" standalone="no"?>
<!DOCTYPE svg PUBLIC "-//W3C//DTD SVG 20010904//EN"
 "http://www.w3.org/TR/2001/REC-SVG-20010904/DTD/svg10.dtd">
<svg version="1.0" xmlns="http://www.w3.org/2000/svg"
 width="192.000000pt" height="192.000000pt" viewBox="0 0 192.000000 192.000000"
 preserveAspectRatio="xMidYMid meet">
<metadata>
Created by potrace 1.16, written by Peter Selinger 2001-2019
</metadata>
<g transform="translate(0.000000,192.000000) scale(0.100000,-0.100000)"
fill="#000000" stroke="none">
810 c149 -35 263 -99 377 -209 169 -163 247 -351 247 -596 0 -245 -78 -433
-247 -596 -165 -159 -340 -229 -578 -229 -238 0 -413 70 -578 229 -169 163
-247 351 -247 596 0 238 70 413 229 578 111 115 239 190 390 227 107 26 298
26 407 0z"/>
<path d="M835 1367 c-186 -62 -305 -219 -305 -402 0 -162 94 -305 249 -379 60
-28 75 -31 166 -31 91 0 106 3 166 31 155 74 249 217 249 379 0 163 -94 306
-249 378 -54 26 -80 32 -151 34 -52 2 -101 -2 -125 -10z m90 -407 l0 -145 -85
0 -85 0 -3 134 c-1 74 0 141 3 148 3 10 25 13 87 11 l83 -3 0 -145z m241 133
c-4 -10 -30 -78 -58 -150 l-51 -133 -33 0 c-19 0 -34 2 -34 4 0 3 20 55 44
118 l45 113 -45 3 c-41 3 -44 5 -44 33 l0 29 91 0 c83 0 91 -2 85 -17z"/>
<path d="M810 960 l0 -90 30 0 30 0 0 90 0 90 -30 0 -30 0 0 -90z"/>
</g>
</svg>
