<?xml version="1.0" standalone="no"?>
<!DOCTYPE svg PUBLIC "-//W3C//DTD SVG 20010904//EN"
 "http://www.w3.org/TR/2001/REC-SVG-20010904/DTD/svg10.dtd">
<svg version="1.0" xmlns="http://www.w3.org/2000/svg"
 width="192.000000pt" height="192.000000pt" viewBox="0 0 192.000000 192.000000"
 preserveAspectRatio="xMidYMid meet">
<metadata>
Created by potrace 1.16, written by Peter Selinger 2001-2019
</metadata>
<g transform="translate(0.000000,192.000000) scale(0.100000,-0.100000)"
fill="#000000" stroke="none">
811 c445 -92 729 -532 635 -987 -62 -301 -295 -546 -601 -630 -91 -26 -329
-26 -420 0 -291 80 -516 305 -596 596 -26 91 -26 329 0 420 120 433 542 692
982 601z"/>
<path d="M819 1367 c-78 -33 -127 -73 -170 -140 -46 -71 -63 -139 -57 -227 7
-99 39 -158 153 -284 160 -176 159 -176 211 -176 50 0 59 7 222 190 115 128
137 177 137 300 0 85 -3 101 -29 154 -37 76 -102 140 -174 174 -82 39 -213 42
-293 9z m109 -224 c6 -9 12 -29 12 -45 0 -24 -4 -28 -29 -28 -21 0 -30 6 -34
21 -4 16 -12 20 -34 17 -28 -3 -28 -4 -28 -73 l0 -70 30 0 c20 0 31 5 33 18 2
10 -3 17 -12 17 -10 0 -16 9 -16 25 0 23 4 25 45 25 l45 0 0 -55 c0 -74 -20
-95 -93 -95 -31 0 -61 6 -75 16 -20 14 -22 23 -22 113 0 130 12 144 115 136
32 -3 55 -11 63 -22z m220 0 c7 -11 12 -52 12 -114 0 -90 -2 -99 -22 -113 -34
-24 -123 -21 -148 4 -17 17 -20 33 -20 113 0 50 4 97 8 104 23 36 145 40 170
6z"/>
<path d="M1035 1087 c-4 -13 -5 -46 -3 -73 3 -47 4 -49 33 -49 l30 0 0 70 c0
69 -1 70 -27 73 -22 3 -29 -2 -33 -21z"/>
</g>
</svg>
