<?xml version="1.0" standalone="no"?>
<!DOCTYPE svg PUBLIC "-//W3C//DTD SVG 20010904//EN"
 "http://www.w3.org/TR/2001/REC-SVG-20010904/DTD/svg10.dtd">
<svg version="1.0" xmlns="http://www.w3.org/2000/svg"
 width="192.000000pt" height="192.000000pt" viewBox="0 0 192.000000 192.000000"
 preserveAspectRatio="xMidYMid meet">
<metadata>
Created by potrace 1.16, written by Peter Selinger 2001-2019
</metadata>
<g transform="translate(0.000000,192.000000) scale(0.100000,-0.100000)"
fill="#000000" stroke="none">
811 c445 -92 729 -532 635 -987 -62 -301 -295 -546 -601 -630 -91 -26 -329
-26 -420 0 -291 80 -516 305 -596 596 -26 91 -26 329 0 420 120 433 542 692
982 601z"/>
<path d="M1264 1221 c-35 -15 -64 -60 -64 -100 0 -30 -9 -44 -57 -93 -51 -52
-62 -58 -98 -58 -55 0 -85 31 -89 91 -4 55 -49 99 -101 99 -53 0 -99 -45 -100
-99 -1 -36 -8 -48 -55 -96 -47 -47 -60 -55 -92 -55 -56 0 -100 -43 -102 -98
-2 -110 152 -144 194 -42 7 17 10 40 6 52 -4 18 6 35 51 80 53 54 61 58 103
58 56 0 97 -34 85 -69 -9 -31 12 -87 40 -105 31 -20 89 -20 120 0 27 17 50 76
41 101 -5 12 12 36 56 80 49 49 66 61 84 57 31 -8 89 22 103 52 38 83 -45 179
-125 145z"/>
</g>
</svg>
