<?xml version="1.0" standalone="no"?>
<!DOCTYPE svg PUBLIC "-//W3C//DTD SVG 20010904//EN"
 "http://www.w3.org/TR/2001/REC-SVG-20010904/DTD/svg10.dtd">
<svg version="1.0" xmlns="http://www.w3.org/2000/svg"
 width="192.000000pt" height="192.000000pt" viewBox="0 0 192.000000 192.000000"
 preserveAspectRatio="xMidYMid meet">
<metadata>
Created by potrace 1.16, written by Peter Selinger 2001-2019
</metadata>
<g transform="translate(0.000000,192.000000) scale(0.100000,-0.100000)"
fill="#000000" stroke="none">
811 c445 -92 729 -532 635 -987 -62 -301 -295 -546 -601 -630 -91 -26 -329
-26 -420 0 -291 80 -516 305 -596 596 -26 91 -26 329 0 420 120 433 542 692
982 601z"/>
<path d="M582 1344 c-21 -14 -22 -22 -22 -144 0 -104 3 -132 16 -144 19 -20
24 -20 52 0 20 14 22 23 22 115 l0 99 98 0 c104 0 122 7 122 47 0 35 -29 43
-152 43 -87 0 -119 -4 -136 -16z"/>
<path d="M1058 1349 c-21 -12 -24 -49 -6 -67 8 -8 47 -12 110 -12 l98 0 0 -95
c0 -82 3 -98 20 -115 24 -24 34 -25 54 -4 13 12 16 40 16 144 0 164 3 160
-160 160 -63 0 -123 -5 -132 -11z"/>
<path d="M875 1136 c-61 -27 -115 -112 -115 -184 0 -34 27 -93 58 -125 40 -43
78 -58 138 -58 127 0 214 108 190 236 -8 43 -68 113 -113 132 -41 16 -119 16
-158 -1z"/>
<path d="M572 868 c-8 -8 -12 -53 -12 -138 0 -165 -5 -160 161 -160 132 0 149
5 149 47 0 33 -29 43 -129 43 l-91 0 0 91 c0 50 -5 99 -10 110 -12 21 -50 25
-68 7z"/>
<path d="M1225 739 c-62 -36 -74 -111 -26 -160 40 -40 89 -40 133 0 63 56 32
154 -53 167 -18 2 -43 -1 -54 -7z"/>
</g>
</svg>
