<?xml version="1.0" standalone="no"?>
<!DOCTYPE svg PUBLIC "-//W3C//DTD SVG 20010904//EN"
 "http://www.w3.org/TR/2001/REC-SVG-20010904/DTD/svg10.dtd">
<svg version="1.0" xmlns="http://www.w3.org/2000/svg"
 width="192.000000pt" height="192.000000pt" viewBox="0 0 192.000000 192.000000"
 preserveAspectRatio="xMidYMid meet">
<metadata>
Created by potrace 1.16, written by Peter Selinger 2001-2019
</metadata>
<g transform="translate(0.000000,192.000000) scale(0.100000,-0.100000)"
fill="#000000" stroke="none">
811 c445 -92 729 -532 635 -987 -62 -301 -295 -546 -601 -630 -91 -26 -329
-26 -420 0 -291 80 -516 305 -596 596 -26 91 -26 329 0 420 120 433 542 692
982 601z"/>
<path d="M783 1373 c-12 -2 -34 -18 -48 -34 -24 -29 -25 -36 -25 -164 0 -73 3
-141 6 -150 12 -29 214 -185 241 -185 15 0 61 29 126 82 56 45 105 87 109 93
4 5 8 75 8 155 0 165 -6 182 -68 200 -35 9 -302 12 -349 3z m183 -78 c5 -11
21 -15 60 -15 l54 0 0 -90 0 -91 -122 3 -123 3 -3 88 -3 87 44 0 c27 0 49 6
57 15 7 8 17 15 22 15 5 0 11 -7 14 -15z m154 -215 c0 -6 -41 -10 -104 -10
-59 0 -108 -4 -111 -10 -4 -6 25 -10 79 -10 92 0 100 -6 76 -51 -8 -14 -21
-19 -55 -19 -25 0 -45 5 -45 10 0 6 13 10 29 10 17 0 33 5 36 10 4 6 -27 10
-85 10 l-90 0 6 25 c6 23 3 25 -25 25 -17 0 -31 5 -31 10 0 6 60 10 160 10
100 0 160 -4 160 -10z"/>
<path d="M860 1190 l0 -60 95 0 95 0 0 28 c0 23 -5 28 -27 30 -25 1 -26 0 -10
-12 17 -14 23 -36 9 -36 -5 0 -17 7 -28 15 -25 19 -34 19 -34 0 0 -8 -4 -15
-10 -15 -5 0 -10 4 -10 9 0 6 -16 7 -35 4 -23 -4 -35 -2 -35 6 0 6 10 11 23
12 l22 0 -22 9 c-27 11 -30 30 -5 31 10 0 12 3 5 6 -23 9 -13 22 20 26 28 3
26 4 -10 5 l-43 2 0 -60z"/>
<path d="M1016 1234 c-21 -21 -20 -24 9 -24 18 0 25 5 25 20 0 24 -13 26 -34
4z"/>
<path d="M648 939 c-21 -12 -24 -59 -6 -77 19 -19 66 -15 78 7 14 28 13 38
-10 61 -22 22 -37 24 -62 9z"/>
<path d="M1208 939 c-21 -12 -24 -59 -6 -77 19 -19 66 -15 78 7 14 28 13 38
-10 61 -22 22 -37 24 -62 9z"/>
<path d="M642 788 c-20 -20 -14 -66 9 -79 44 -23 93 26 69 71 -12 23 -58 28
-78 8z"/>
<path d="M782 788 c-28 -28 -3 -88 37 -88 10 0 26 9 36 20 27 30 10 74 -30 78
-17 2 -36 -3 -43 -10z"/>
<path d="M922 788 c-20 -20 -14 -66 9 -79 44 -23 93 26 69 71 -12 23 -58 28
-78 8z"/>
<path d="M1062 788 c-18 -18 -15 -53 6 -71 24 -22 45 -21 65 1 34 37 15 82
-33 82 -14 0 -31 -5 -38 -12z"/>
<path d="M1202 788 c-20 -20 -14 -66 9 -79 44 -23 93 26 69 71 -12 23 -58 28
-78 8z"/>
<path d="M756 644 c-9 -8 -16 -24 -16 -34 0 -46 20 -50 220 -50 158 0 191 3
204 16 21 21 20 47 -2 67 -27 25 -382 25 -406 1z"/>
</g>
</svg>
