<?xml version="1.0" standalone="no"?>
<!DOCTYPE svg PUBLIC "-//W3C//DTD SVG 20010904//EN"
 "http://www.w3.org/TR/2001/REC-SVG-20010904/DTD/svg10.dtd">
<svg version="1.0" xmlns="http://www.w3.org/2000/svg"
 width="192.000000pt" height="192.000000pt" viewBox="0 0 192.000000 192.000000"
 preserveAspectRatio="xMidYMid meet">
<metadata>
Created by potrace 1.16, written by Peter Selinger 2001-2019
</metadata>
<g transform="translate(0.000000,192.000000) scale(0.100000,-0.100000)"
fill="#000000" stroke="none">
811 c445 -92 729 -532 635 -987 -62 -301 -295 -546 -601 -630 -91 -26 -329
-26 -420 0 -291 80 -516 305 -596 596 -26 91 -26 329 0 420 120 433 542 692
982 601z"/>
<path d="M603 1360 c-50 -20 -54 -48 -51 -350 4 -353 -15 -323 205 -330 l156
-5 20 -57 19 -58 163 0 c90 0 175 4 189 10 53 20 57 45 54 350 -3 276 -3 280
-26 302 -22 22 -30 23 -221 26 l-198 3 -17 60 -16 59 -128 -1 c-70 0 -137 -4
-149 -9z m687 -170 c13 -8 15 -52 18 -274 4 -330 17 -306 -163 -306 -69 0
-125 3 -125 7 0 4 14 21 31 39 l31 32 -17 52 c-16 48 -16 53 -1 68 15 15 20
12 65 -32 33 -32 55 -47 65 -43 26 10 19 29 -31 79 -41 42 -46 51 -35 66 7 9
24 41 38 70 17 35 32 52 44 52 25 0 35 17 20 35 -9 10 -32 15 -75 15 -54 0
-63 3 -68 20 -3 11 -13 20 -22 20 -9 0 -19 -9 -22 -20 -4 -15 -14 -20 -38 -20
-31 0 -33 2 -50 62 -9 34 -19 68 -22 75 -4 10 30 13 168 13 96 0 181 -5 189
-10z m-475 -52 c27 -12 35 -48 11 -48 -8 0 -26 4 -41 10 -19 7 -35 6 -59 -4
-68 -28 -66 -127 4 -156 29 -12 37 -11 69 6 51 27 53 52 4 56 -26 2 -38 8 -38
18 0 11 15 16 63 18 62 3 62 3 62 -25 0 -15 -9 -42 -20 -60 -50 -83 -170 -83
-220 0 -66 107 51 237 165 185z m315 -144 c0 -13 -44 -84 -52 -84 -5 0 -17 13
-26 30 -9 16 -25 30 -34 30 -19 0 -31 14 -21 24 8 8 133 8 133 0z"/>
</g>
</svg>
