<?xml version="1.0" standalone="no"?>
<!DOCTYPE svg PUBLIC "-//W3C//DTD SVG 20010904//EN"
 "http://www.w3.org/TR/2001/REC-SVG-20010904/DTD/svg10.dtd">
<svg version="1.0" xmlns="http://www.w3.org/2000/svg"
 width="192.000000pt" height="192.000000pt" viewBox="0 0 192.000000 192.000000"
 preserveAspectRatio="xMidYMid meet">
<metadata>
Created by potrace 1.16, written by Peter Selinger 2001-2019
</metadata>
<g transform="translate(0.000000,192.000000) scale(0.100000,-0.100000)"
fill="#000000" stroke="none">
811 c445 -92 729 -532 635 -987 -62 -301 -295 -546 -601 -630 -91 -26 -329
-26 -420 0 -291 80 -516 305 -596 596 -26 91 -26 329 0 420 120 433 542 692
982 601z"/>
<path d="M710 1359 c-14 -5 -36 -20 -48 -32 -51 -47 -52 -57 -52 -362 0 -318
3 -334 64 -378 23 -16 45 -22 86 -22 53 0 65 6 280 133 263 156 291 179 297
249 6 60 -12 101 -59 136 -18 13 -131 81 -250 151 -223 131 -265 148 -318 125z
m221 -160 c84 -49 158 -94 163 -99 7 -7 -90 -127 -106 -129 -3 -1 -57 56 -119
127 -62 70 -122 137 -133 150 -17 20 -18 24 -6 32 27 18 45 10 201 -81z m168
-369 c1 -3 -71 -47 -158 -97 -147 -87 -201 -107 -215 -84 -4 5 54 77 126 160
l133 151 57 -62 c32 -35 57 -65 57 -68z"/>
</g>
</svg>
