<?xml version="1.0" standalone="no"?>
<!DOCTYPE svg PUBLIC "-//W3C//DTD SVG 20010904//EN"
 "http://www.w3.org/TR/2001/REC-SVG-20010904/DTD/svg10.dtd">
<svg version="1.0" xmlns="http://www.w3.org/2000/svg"
 width="192.000000pt" height="192.000000pt" viewBox="0 0 192.000000 192.000000"
 preserveAspectRatio="xMidYMid meet">
<metadata>
Created by potrace 1.16, written by Peter Selinger 2001-2019
</metadata>
<g transform="translate(0.000000,192.000000) scale(0.100000,-0.100000)"
fill="#000000" stroke="none">
811 c445 -92 729 -532 635 -987 -62 -301 -295 -546 -601 -630 -91 -26 -329
-26 -420 0 -291 80 -516 305 -596 596 -26 91 -26 329 0 420 120 433 542 692
982 601z"/>
<path d="M687 1346 c-50 -18 -85 -51 -108 -101 -16 -35 -19 -68 -19 -280 0
-267 6 -294 69 -348 51 -43 92 -48 344 -45 270 3 290 9 342 93 l30 48 0 252 0
252 -30 48 c-53 85 -71 90 -350 92 -185 2 -249 -1 -278 -11z m255 -91 c-11
-14 -25 -47 -32 -75 -43 -180 152 -328 314 -237 l46 26 0 -113 c0 -101 -2
-117 -23 -147 -38 -56 -50 -59 -295 -59 -325 0 -312 -13 -312 315 0 191 3 231
16 254 31 52 58 60 187 61 l118 0 -19 -25z m244 -56 c28 -27 36 -66 19 -106
-16 -37 -41 -53 -88 -53 -92 0 -121 129 -39 175 33 18 78 12 108 -16z"/>
<path d="M1091 1156 c-16 -19 -11 -46 12 -60 25 -16 52 4 52 40 0 24 -5 30
-26 32 -14 2 -31 -4 -38 -12z"/>
</g>
</svg>
