<?xml version="1.0" standalone="no"?>
<!DOCTYPE svg PUBLIC "-//W3C//DTD SVG 20010904//EN"
 "http://www.w3.org/TR/2001/REC-SVG-20010904/DTD/svg10.dtd">
<svg version="1.0" xmlns="http://www.w3.org/2000/svg"
 width="192.000000pt" height="192.000000pt" viewBox="0 0 192.000000 192.000000"
 preserveAspectRatio="xMidYMid meet">
<metadata>
Created by potrace 1.16, written by Peter Selinger 2001-2019
</metadata>
<g transform="translate(0.000000,192.000000) scale(0.100000,-0.100000)"
fill="#000000" stroke="none">
811 c445 -92 729 -532 635 -987 -62 -301 -295 -546 -601 -630 -91 -26 -329
-26 -420 0 -291 80 -516 305 -596 596 -26 91 -26 329 0 420 120 433 542 692
982 601z"/>
<path d="M658 1330 c-77 -60 -53 -173 43 -200 49 -14 486 -12 529 3 39 13 80
67 80 104 0 32 -25 78 -52 97 -19 14 -65 16 -299 16 -260 0 -278 -1 -301 -20z"/>
<path d="M644 1026 l-34 -34 0 -166 c0 -185 7 -214 60 -241 37 -19 73 -19 111
1 43 22 59 68 59 169 l0 85 54 0 c63 0 99 23 116 75 15 44 -1 96 -37 125 -23
18 -40 20 -160 20 l-135 0 -34 -34z"/>
<path d="M1132 1044 c-45 -31 -52 -62 -52 -229 0 -173 8 -203 60 -230 60 -31
131 -8 156 50 21 50 20 325 -1 365 -28 55 -115 78 -163 44z"/>
</g>
</svg>
