<?xml version="1.0" standalone="no"?>
<!DOCTYPE svg PUBLIC "-//W3C//DTD SVG 20010904//EN"
 "http://www.w3.org/TR/2001/REC-SVG-20010904/DTD/svg10.dtd">
<svg version="1.0" xmlns="http://www.w3.org/2000/svg"
 width="192.000000pt" height="192.000000pt" viewBox="0 0 192.000000 192.000000"
 preserveAspectRatio="xMidYMid meet">
<metadata>
Created by potrace 1.16, written by Peter Selinger 2001-2019
</metadata>
<g transform="translate(0.000000,192.000000) scale(0.100000,-0.100000)"
fill="#000000" stroke="none">
811 c445 -92 729 -532 635 -987 -62 -301 -295 -546 -601 -630 -91 -26 -329
-26 -420 0 -291 80 -516 305 -596 596 -26 91 -26 329 0 420 120 433 542 692
982 601z"/>
<path d="M775 1366 c-35 -15 -55 -52 -55 -101 0 -19 1 -35 3 -35 1 0 28 13 59
29 77 39 148 47 228 27 35 -9 78 -26 97 -37 l33 -21 0 37 c0 51 -24 91 -61
104 -45 16 -266 14 -304 -3z"/>
<path d="M811 1259 c-66 -26 -137 -95 -171 -164 -36 -75 -35 -190 3 -267 64
-130 205 -201 350 -176 111 20 220 120 248 228 9 37 18 50 33 52 29 4 29 50
-1 63 -13 5 -24 21 -27 40 -15 78 -89 170 -171 213 -71 36 -188 41 -264 11z
m226 -105 c57 -43 22 -90 -42 -60 -46 22 -111 17 -149 -10 -28 -21 -66 -89
-66 -120 1 -37 39 -104 72 -124 39 -24 107 -26 148 -5 29 15 70 64 70 84 0 5
-27 11 -61 13 -69 3 -94 23 -69 53 11 13 30 15 109 13 l96 -3 3 -30 c13 -110
-95 -217 -218 -217 -231 0 -304 307 -98 411 57 29 163 26 205 -5z"/>
<path d="M720 664 c0 -50 24 -90 61 -103 41 -14 257 -14 298 0 36 13 61 53 61
99 0 16 -2 30 -4 30 -2 0 -30 -12 -62 -27 -50 -24 -72 -28 -145 -28 -77 0 -92
3 -147 32 l-62 32 0 -35z"/>
</g>
</svg>
