<?xml version="1.0" standalone="no"?>
<!DOCTYPE svg PUBLIC "-//W3C//DTD SVG 20010904//EN"
 "http://www.w3.org/TR/2001/REC-SVG-20010904/DTD/svg10.dtd">
<svg version="1.0" xmlns="http://www.w3.org/2000/svg"
 width="192.000000pt" height="192.000000pt" viewBox="0 0 192.000000 192.000000"
 preserveAspectRatio="xMidYMid meet">
<metadata>
Created by potrace 1.16, written by Peter Selinger 2001-2019
</metadata>
<g transform="translate(0.000000,192.000000) scale(0.100000,-0.100000)"
fill="#000000" stroke="none">
811 c445 -92 729 -532 635 -987 -62 -301 -295 -546 -601 -630 -91 -26 -329
-26 -420 0 -291 80 -516 305 -596 596 -26 91 -26 329 0 420 120 433 542 692
982 601z"/>
<path d="M736 1363 c-3 -3 -6 -51 -6 -105 0 -59 -4 -98 -10 -98 -15 0 -50 -38
-50 -55 0 -8 9 -15 20 -15 11 0 20 7 20 15 0 8 5 15 10 15 6 0 10 -21 10 -47
0 -37 -14 -77 -66 -186 -36 -77 -62 -147 -59 -155 4 -11 19 -13 65 -10 57 4
60 3 60 -18 0 -19 6 -23 38 -26 32 -3 37 -7 38 -28 3 -94 1 -90 43 -90 48 0
57 11 31 35 -12 11 -20 31 -20 52 0 31 2 33 35 33 l34 0 3 -58 3 -57 43 -3
c45 -3 57 13 27 38 -8 7 -15 28 -15 46 0 29 4 34 23 34 26 0 121 43 131 59 5
7 15 6 32 -6 30 -19 108 -23 125 -6 10 10 3 32 -29 103 -37 80 -42 99 -42 163
1 47 6 79 15 91 8 11 15 38 15 61 0 23 -7 50 -15 61 -9 12 -14 43 -15 85 0 79
-14 92 -56 48 l-28 -29 -166 0 c-157 0 -168 1 -186 21 -23 26 -49 40 -58 32z
m205 -162 c17 -18 29 -40 29 -56 0 -35 -50 -85 -85 -85 -35 0 -85 50 -85 85 0
16 12 38 29 56 18 17 40 29 56 29 16 0 38 -12 56 -29z m260 0 c17 -18 29 -40
29 -56 0 -35 -50 -85 -85 -85 -35 0 -85 50 -85 85 0 16 12 38 29 56 18 17 40
29 56 29 16 0 38 -12 56 -29z"/>
<path d="M845 1180 c-41 -45 18 -110 70 -76 30 20 33 52 5 59 -11 3 -20 12
-20 21 0 22 -33 20 -55 -4z"/>
<path d="M1105 1180 c-41 -45 18 -110 70 -76 30 20 33 52 5 59 -11 3 -20 12
-20 21 0 22 -33 20 -55 -4z"/>
</g>
</svg>
