<?xml version="1.0" standalone="no"?>
<!DOCTYPE svg PUBLIC "-//W3C//DTD SVG 20010904//EN"
 "http://www.w3.org/TR/2001/REC-SVG-20010904/DTD/svg10.dtd">
<svg version="1.0" xmlns="http://www.w3.org/2000/svg"
 width="192.000000pt" height="192.000000pt" viewBox="0 0 192.000000 192.000000"
 preserveAspectRatio="xMidYMid meet">
<metadata>
Created by potrace 1.16, written by Peter Selinger 2001-2019
</metadata>
<g transform="translate(0.000000,192.000000) scale(0.100000,-0.100000)"
fill="#000000" stroke="none">
811 c445 -92 729 -532 635 -987 -62 -301 -295 -546 -601 -630 -91 -26 -329
-26 -420 0 -291 80 -516 305 -596 596 -26 91 -26 329 0 420 120 433 542 692
982 601z"/>
<path d="M669 1354 c-15 -18 7 -41 230 -243 l103 -93 56 55 c32 32 53 61 49
69 -5 13 -363 210 -403 222 -14 4 -26 1 -35 -10z"/>
<path d="M597 1293 c-4 -3 -7 -152 -7 -330 0 -302 1 -323 18 -323 16 0 352
326 352 342 0 9 -338 318 -348 318 -5 0 -12 -3 -15 -7z"/>
<path d="M1119 1063 c-83 -78 -83 -77 2 -155 41 -37 79 -68 85 -68 20 0 104
51 119 73 19 27 19 77 0 104 -13 19 -133 93 -150 93 -3 0 -29 -21 -56 -47z"/>
<path d="M828 773 c-92 -92 -168 -175 -168 -184 0 -23 24 -31 58 -18 57 22
414 223 419 236 6 14 -111 131 -131 133 -5 0 -85 -75 -178 -167z"/>
</g>
</svg>
