<?xml version="1.0" standalone="no"?>
<!DOCTYPE svg PUBLIC "-//W3C//DTD SVG 20010904//EN"
 "http://www.w3.org/TR/2001/REC-SVG-20010904/DTD/svg10.dtd">
<svg version="1.0" xmlns="http://www.w3.org/2000/svg"
 width="192.000000pt" height="192.000000pt" viewBox="0 0 192.000000 192.000000"
 preserveAspectRatio="xMidYMid meet">
<metadata>
Created by potrace 1.16, written by Peter Selinger 2001-2019
</metadata>
<g transform="translate(0.000000,192.000000) scale(0.100000,-0.100000)"
fill="#000000" stroke="none">
811 c445 -92 729 -532 635 -987 -62 -301 -295 -546 -601 -630 -91 -26 -329
-26 -420 0 -291 80 -516 305 -596 596 -26 91 -26 329 0 420 120 433 542 692
982 601z"/>
<path d="M716 1360 c-16 -5 -40 -19 -54 -32 -49 -45 -52 -67 -52 -365 0 -252
2 -282 19 -320 33 -71 123 -103 194 -67 74 38 444 259 465 278 56 50 67 137
25 195 -26 35 -488 308 -533 315 -19 3 -48 1 -64 -4z m212 -157 c81 -47 154
-92 162 -99 12 -12 9 -20 -26 -56 -86 -92 -84 -79 -20 -150 31 -35 56 -65 56
-68 0 -3 -71 -47 -157 -98 -149 -87 -202 -107 -218 -82 -3 5 53 76 124 157 72
82 131 151 131 155 0 4 -53 67 -117 140 -153 175 -146 165 -138 177 15 25 64
6 203 -76z"/>
</g>
</svg>
