<?xml version="1.0" standalone="no"?>
<!DOCTYPE svg PUBLIC "-//W3C//DTD SVG 20010904//EN"
 "http://www.w3.org/TR/2001/REC-SVG-20010904/DTD/svg10.dtd">
<svg version="1.0" xmlns="http://www.w3.org/2000/svg"
 width="192.000000pt" height="192.000000pt" viewBox="0 0 192.000000 192.000000"
 preserveAspectRatio="xMidYMid meet">
<metadata>
Created by potrace 1.16, written by Peter Selinger 2001-2019
</metadata>
<g transform="translate(0.000000,192.000000) scale(0.100000,-0.100000)"
fill="#000000" stroke="none">
811 c445 -92 729 -532 635 -987 -62 -301 -295 -546 -601 -630 -91 -26 -329
-26 -420 0 -291 80 -516 305 -596 596 -26 91 -26 329 0 420 120 433 542 692
982 601z"/>
<path d="M892 1389 c-113 -19 -222 -102 -269 -206 -50 -110 -40 -255 24 -350
41 -60 231 -269 259 -283 31 -17 78 -15 105 4 55 38 241 254 271 316 30 59 33
72 33 160 0 82 -4 103 -27 152 -50 107 -153 185 -273 207 -32 6 -61 10 -64 10
-3 -1 -30 -5 -59 -10z m-3 -229 c40 -11 51 -24 51 -62 0 -24 -4 -28 -29 -28
-21 0 -30 6 -34 21 -4 16 -12 20 -34 17 -28 -3 -28 -4 -28 -73 l0 -70 30 0
c20 0 31 5 33 18 2 10 -3 17 -12 17 -10 0 -16 9 -16 26 0 23 3 25 43 22 l42
-3 3 -50 c4 -70 -11 -87 -81 -93 -42 -3 -63 0 -82 12 -24 16 -25 21 -25 114 0
106 8 128 50 135 44 8 54 7 89 -3z m259 -18 c8 -10 12 -51 12 -114 0 -93 -1
-98 -25 -114 -34 -22 -132 -15 -151 11 -16 21 -20 191 -5 213 21 34 144 37
169 4z"/>
<path d="M1034 1097 c-3 -8 -4 -41 -2 -73 3 -58 3 -59 33 -59 l30 0 0 70 c0
69 0 70 -28 73 -17 2 -29 -2 -33 -11z"/>
</g>
</svg>
