<?xml version="1.0" standalone="no"?>
<!DOCTYPE svg PUBLIC "-//W3C//DTD SVG 20010904//EN"
 "http://www.w3.org/TR/2001/REC-SVG-20010904/DTD/svg10.dtd">
<svg version="1.0" xmlns="http://www.w3.org/2000/svg"
 width="192.000000pt" height="192.000000pt" viewBox="0 0 192.000000 192.000000"
 preserveAspectRatio="xMidYMid meet">
<metadata>
Created by potrace 1.16, written by Peter Selinger 2001-2019
</metadata>
<g transform="translate(0.000000,192.000000) scale(0.100000,-0.100000)"
fill="#000000" stroke="none">
811 c445 -92 729 -532 635 -987 -62 -301 -295 -546 -601 -630 -91 -26 -329
-26 -420 0 -291 80 -516 305 -596 596 -26 91 -26 329 0 420 120 433 542 692
982 601z"/>
<path d="M655 1285 c-40 -22 -73 -53 -93 -90 -14 -25 -17 -62 -17 -225 0 -224
7 -251 84 -305 l43 -30 283 0 283 0 43 30 c77 54 84 81 84 305 0 220 -4 234
-78 294 l-39 31 -281 3 c-242 2 -286 0 -312 -13z m185 -175 c58 -38 110 -70
115 -70 6 0 57 32 115 70 106 71 152 86 164 54 12 -31 7 -389 -6 -402 -18 -18
-56 -14 -68 7 -5 11 -10 81 -10 155 l0 136 -91 -60 c-50 -33 -96 -60 -103 -60
-6 0 -53 27 -104 60 l-92 59 0 -135 c0 -74 -5 -144 -10 -155 -12 -21 -50 -25
-68 -7 -13 13 -18 371 -6 402 12 32 58 17 164 -54z"/>
</g>
</svg>
