<?xml version="1.0" standalone="no"?>
<!DOCTYPE svg PUBLIC "-//W3C//DTD SVG 20010904//EN"
 "http://www.w3.org/TR/2001/REC-SVG-20010904/DTD/svg10.dtd">
<svg version="1.0" xmlns="http://www.w3.org/2000/svg"
 width="192.000000pt" height="192.000000pt" viewBox="0 0 192.000000 192.000000"
 preserveAspectRatio="xMidYMid meet">
<metadata>
Created by potrace 1.16, written by Peter Selinger 2001-2019
</metadata>
<g transform="translate(0.000000,192.000000) scale(0.100000,-0.100000)"
fill="#000000" stroke="none">
811 c445 -92 729 -532 635 -987 -62 -301 -295 -546 -601 -630 -91 -26 -329
-26 -420 0 -291 80 -516 305 -596 596 -26 91 -26 329 0 420 120 433 542 692
982 601z"/>
<path d="M889 1362 c-48 -20 -319 -210 -328 -230 -13 -28 -14 -381 -1 -436 11
-48 36 -84 81 -114 33 -23 35 -23 319 -20 280 3 286 3 318 26 66 48 72 75 72
325 0 219 0 224 -22 244 -28 25 -251 174 -295 196 -32 17 -114 22 -144 9z
m-74 -382 c72 -44 133 -80 137 -80 3 0 67 36 142 81 74 45 140 78 145 74 7 -4
11 -61 11 -156 0 -145 -6 -183 -34 -201 -15 -10 -508 -10 -523 0 -25 16 -33
68 -33 206 0 131 3 156 19 156 3 0 65 -36 136 -80z"/>
</g>
</svg>
