<?xml version="1.0" standalone="no"?>
<!DOCTYPE svg PUBLIC "-//W3C//DTD SVG 20010904//EN"
 "http://www.w3.org/TR/2001/REC-SVG-20010904/DTD/svg10.dtd">
<svg version="1.0" xmlns="http://www.w3.org/2000/svg"
 width="192.000000pt" height="192.000000pt" viewBox="0 0 192.000000 192.000000"
 preserveAspectRatio="xMidYMid meet">
<metadata>
Created by potrace 1.16, written by Peter Selinger 2001-2019
</metadata>
<g transform="translate(0.000000,192.000000) scale(0.100000,-0.100000)"
fill="#000000" stroke="none">
811 c445 -92 729 -532 635 -987 -62 -301 -295 -546 -601 -630 -91 -26 -329
-26 -420 0 -291 80 -516 305 -596 596 -26 91 -26 329 0 420 120 433 542 692
982 601z"/>
<path d="M576 1344 c-24 -24 -20 -41 23 -87 l40 -43 -37 -74 -37 -74 0 -207 0
-207 25 -27 c50 -54 57 -55 365 -55 308 0 315 1 365 55 l25 27 0 207 0 207
-37 74 -37 74 40 43 c43 46 47 63 23 87 -24 24 -41 20 -88 -24 l-43 -40 -73
38 c-70 36 -76 37 -174 37 -98 0 -106 -2 -176 -37 l-74 -37 -43 40 c-46 43
-63 47 -87 23z m257 -251 c45 -51 17 -123 -49 -123 -65 0 -98 71 -54 118 26
27 80 29 103 5z m344 -5 c48 -45 16 -118 -51 -118 -37 0 -76 36 -76 70 0 10 9
29 21 44 26 33 73 35 106 4z"/>
</g>
</svg>
