<?xml version="1.0" standalone="no"?>
<!DOCTYPE svg PUBLIC "-//W3C//DTD SVG 20010904//EN"
 "http://www.w3.org/TR/2001/REC-SVG-20010904/DTD/svg10.dtd">
<svg version="1.0" xmlns="http://www.w3.org/2000/svg"
 width="192.000000pt" height="192.000000pt" viewBox="0 0 192.000000 192.000000"
 preserveAspectRatio="xMidYMid meet">
<metadata>
Created by potrace 1.16, written by Peter Selinger 2001-2019
</metadata>
<g transform="translate(0.000000,192.000000) scale(0.100000,-0.100000)"
fill="#000000" stroke="none">
811 c445 -92 729 -532 635 -987 -62 -301 -295 -546 -601 -630 -91 -26 -329
-26 -420 0 -291 80 -516 305 -596 596 -26 91 -26 329 0 420 120 433 542 692
982 601z"/>
<path d="M759 1249 c-85 -60 -161 -116 -170 -122 -26 -20 -49 -60 -49 -85 0
-13 28 -110 62 -215 51 -159 67 -198 94 -225 l32 -32 227 0 227 0 32 32 c27
27 43 66 94 225 34 105 62 202 62 215 0 25 -23 65 -49 85 -9 6 -85 62 -170
122 -138 100 -157 111 -196 111 -39 0 -58 -11 -196 -111z m219 -31 c18 -18 15
-87 -4 -95 -42 -16 -73 57 -39 91 20 19 27 20 43 4z m-113 -197 c0 -67 -3 -86
-17 -94 -33 -21 -48 8 -48 93 0 42 3 80 7 84 4 4 19 6 33 4 25 -3 25 -5 25
-87z m251 65 c8 -33 2 -57 -17 -69 -29 -18 -49 -1 -49 41 0 45 5 52 36 52 17
0 25 -7 30 -24z m-131 -141 c0 -120 -1 -130 -19 -133 -36 -7 -46 25 -46 138 0
112 8 133 45 128 19 -3 20 -10 20 -133z m-247 43 c7 -7 12 -27 12 -45 0 -38
-31 -63 -56 -42 -14 12 -20 80 -7 92 10 11 38 8 51 -5z m491 -2 c17 -20 10
-77 -11 -89 -24 -16 -48 8 -48 47 0 49 34 73 59 42z m-120 -30 c7 -9 11 -42 9
-87 -3 -75 -17 -99 -52 -86 -13 5 -16 22 -16 90 0 46 3 87 7 90 11 12 40 8 52
-7z m-241 -123 c-6 -70 -68 -73 -68 -4 0 46 22 66 53 49 13 -7 17 -19 15 -45z
m120 -111 c2 -32 -1 -44 -14 -49 -36 -14 -62 24 -50 73 5 20 12 25 34 22 24
-3 27 -8 30 -46z"/>
</g>
</svg>
