<?xml version="1.0" standalone="no"?>
<!DOCTYPE svg PUBLIC "-//W3C//DTD SVG 20010904//EN"
 "http://www.w3.org/TR/2001/REC-SVG-20010904/DTD/svg10.dtd">
<svg version="1.0" xmlns="http://www.w3.org/2000/svg"
 width="192.000000pt" height="192.000000pt" viewBox="0 0 192.000000 192.000000"
 preserveAspectRatio="xMidYMid meet">
<metadata>
Created by potrace 1.16, written by Peter Selinger 2001-2019
</metadata>
<g transform="translate(0.000000,192.000000) scale(0.100000,-0.100000)"
fill="#000000" stroke="none">
811 c445 -92 729 -532 635 -987 -62 -301 -295 -546 -601 -630 -91 -26 -329
-26 -420 0 -291 80 -516 305 -596 596 -26 91 -26 329 0 420 120 433 542 692
982 601z"/>
<path d="M695 1321 c-49 -22 -79 -54 -100 -103 -12 -30 -15 -81 -15 -255 0
-243 7 -273 69 -326 53 -44 88 -49 328 -45 l221 3 43 30 c79 56 84 77 84 340
0 263 -5 284 -84 340 l-43 30 -231 3 c-210 2 -236 0 -272 -17z m155 -171 c39
-39 12 -100 -44 -100 -38 0 -58 19 -58 55 0 57 63 84 102 45z m290 0 c39 -39
14 -100 -41 -100 -35 0 -59 24 -59 57 0 57 61 82 100 43z m-12 -278 c11 -76
-161 -140 -261 -99 -44 19 -97 65 -97 86 0 38 19 42 190 39 165 -3 165 -3 168
-26z"/>
</g>
</svg>
