<?xml version="1.0" standalone="no"?>
<!DOCTYPE svg PUBLIC "-//W3C//DTD SVG 20010904//EN"
 "http://www.w3.org/TR/2001/REC-SVG-20010904/DTD/svg10.dtd">
<svg version="1.0" xmlns="http://www.w3.org/2000/svg"
 width="192.000000pt" height="192.000000pt" viewBox="0 0 192.000000 192.000000"
 preserveAspectRatio="xMidYMid meet">
<metadata>
Created by potrace 1.16, written by Peter Selinger 2001-2019
</metadata>
<g transform="translate(0.000000,192.000000) scale(0.100000,-0.100000)"
fill="#000000" stroke="none">
811 c445 -92 729 -532 635 -987 -62 -301 -295 -546 -601 -630 -91 -26 -329
-26 -420 0 -291 80 -516 305 -596 596 -26 91 -26 329 0 420 120 433 542 692
982 601z"/>
<path d="M716 1360 c-16 -5 -40 -19 -54 -32 -49 -46 -52 -66 -52 -369 0 -311
3 -328 64 -372 23 -16 45 -22 86 -22 53 0 65 6 280 134 124 73 236 143 248
155 34 31 52 69 52 114 0 73 -26 95 -285 249 -241 143 -283 160 -339 143z
m201 -152 c77 -46 151 -90 163 -99 l23 -15 -53 -60 c-30 -32 -57 -60 -61 -62
-3 -2 -57 55 -120 125 -62 70 -122 138 -133 151 -18 20 -18 24 -6 32 27 18 45
10 187 -72z m183 -378 c0 -3 -69 -45 -153 -95 -144 -85 -207 -110 -221 -87 -3
6 53 79 126 162 l133 151 57 -63 c32 -35 58 -65 58 -68z"/>
</g>
</svg>
