<?xml version="1.0" standalone="no"?>
<!DOCTYPE svg PUBLIC "-//W3C//DTD SVG 20010904//EN"
 "http://www.w3.org/TR/2001/REC-SVG-20010904/DTD/svg10.dtd">
<svg version="1.0" xmlns="http://www.w3.org/2000/svg"
 width="192.000000pt" height="192.000000pt" viewBox="0 0 192.000000 192.000000"
 preserveAspectRatio="xMidYMid meet">
<metadata>
Created by potrace 1.16, written by Peter Selinger 2001-2019
</metadata>
<g transform="translate(0.000000,192.000000) scale(0.100000,-0.100000)"
fill="#000000" stroke="none">
811 c445 -92 729 -532 635 -987 -62 -301 -295 -546 -601 -630 -91 -26 -329
-26 -420 0 -291 80 -516 305 -596 596 -26 91 -26 329 0 420 120 433 542 692
982 601z"/>
<path d="M830 1362 c-113 -38 -199 -116 -253 -230 -29 -61 -32 -75 -32 -167 0
-92 3 -106 32 -167 44 -94 109 -160 202 -206 71 -35 80 -37 170 -37 76 1 108
5 154 24 149 59 254 202 260 354 l2 62 -218 3 -217 2 -10 -25 c-12 -32 -30
-33 -30 -2 0 40 30 57 98 57 72 0 86 14 49 46 -66 56 -167 32 -206 -50 -34
-69 -14 -136 52 -176 65 -40 158 -15 192 50 12 23 22 30 46 30 29 0 31 -2 24
-27 -23 -94 -143 -161 -243 -134 -83 23 -151 111 -152 197 0 50 40 133 77 160
66 48 138 56 214 22 l51 -21 71 72 72 72 -25 21 c-14 11 -54 35 -90 51 -83 40
-204 47 -290 19z m148 -69 c13 -26 4 -43 -24 -43 -29 0 -41 24 -24 45 17 20
37 19 48 -2z m-220 -85 c18 -18 15 -36 -7 -48 -15 -7 -23 -6 -35 6 -12 12 -13
20 -6 35 12 22 30 25 48 7z m-89 -222 c16 -20 3 -46 -24 -46 -13 0 -26 7 -29
16 -7 19 10 44 29 44 7 0 18 -6 24 -14z m90 -220 c6 -7 9 -21 5 -30 -8 -21
-50 -21 -58 0 -7 19 10 44 29 44 7 0 18 -6 24 -14z m436 -16 c0 -18 -6 -26
-23 -28 -27 -4 -40 22 -22 44 19 22 45 13 45 -16z m-217 -77 c13 -26 4 -43
-24 -43 -29 0 -41 24 -24 45 17 20 37 19 48 -2z"/>
<path d="M1177 1171 l-67 -69 21 -36 21 -36 98 0 c55 0 102 4 105 10 16 27
-63 191 -96 198 -8 1 -45 -28 -82 -67z"/>
</g>
</svg>
