<?xml version="1.0" standalone="no"?>
<!DOCTYPE svg PUBLIC "-//W3C//DTD SVG 20010904//EN"
 "http://www.w3.org/TR/2001/REC-SVG-20010904/DTD/svg10.dtd">
<svg version="1.0" xmlns="http://www.w3.org/2000/svg"
 width="192.000000pt" height="192.000000pt" viewBox="0 0 192.000000 192.000000"
 preserveAspectRatio="xMidYMid meet">
<metadata>
Created by potrace 1.16, written by Peter Selinger 2001-2019
</metadata>
<g transform="translate(0.000000,192.000000) scale(0.100000,-0.100000)"
fill="#000000" stroke="none">
811 c445 -92 729 -532 635 -987 -62 -301 -295 -546 -601 -630 -91 -26 -329
-26 -420 0 -291 80 -516 305 -596 596 -26 91 -26 329 0 420 120 433 542 692
982 601z"/>
<path d="M871 1415 c-69 -20 -108 -44 -161 -101 -105 -114 -117 -272 -30 -401
22 -32 83 -104 137 -161 92 -96 100 -102 138 -102 38 0 46 6 138 102 123 129
172 201 187 275 50 237 -178 452 -409 388z m150 -254 c21 -22 29 -39 29 -66 0
-51 -44 -95 -95 -95 -51 0 -95 44 -95 95 0 27 8 44 29 66 22 21 39 29 66 29
27 0 44 -8 66 -29z"/>
<path d="M687 722 c-57 -60 -25 -139 75 -182 80 -35 250 -40 347 -11 129 39
177 117 115 190 -27 33 -52 39 -72 19 -18 -18 -15 -43 8 -63 19 -17 19 -20 4
-36 -29 -32 -112 -53 -209 -53 -103 0 -163 14 -202 49 l-28 23 23 25 c20 21
22 29 13 46 -16 29 -42 26 -74 -7z"/>
</g>
</svg>
