<?xml version="1.0" standalone="no"?>
<!DOCTYPE svg PUBLIC "-//W3C//DTD SVG 20010904//EN"
 "http://www.w3.org/TR/2001/REC-SVG-20010904/DTD/svg10.dtd">
<svg version="1.0" xmlns="http://www.w3.org/2000/svg"
 width="192.000000pt" height="192.000000pt" viewBox="0 0 192.000000 192.000000"
 preserveAspectRatio="xMidYMid meet">
<metadata>
Created by potrace 1.16, written by Peter Selinger 2001-2019
</metadata>
<g transform="translate(0.000000,192.000000) scale(0.100000,-0.100000)"
fill="#000000" stroke="none">
811 c445 -92 729 -532 635 -987 -62 -301 -295 -546 -601 -630 -91 -26 -329
-26 -420 0 -291 80 -516 305 -596 596 -26 91 -26 329 0 420 120 433 542 692
982 601z"/>
<path d="M880 1357 c-84 -20 -151 -59 -212 -126 -223 -241 -74 -628 256 -667
60 -7 154 10 209 38 l38 19 45 -40 c34 -32 51 -41 79 -41 49 0 74 15 91 55 17
43 6 76 -41 125 l-35 35 26 64 c35 85 36 199 5 283 -71 186 -274 298 -461 255z
m178 -201 c78 -40 131 -143 117 -226 -11 -64 -56 -124 -116 -154 -85 -42 -165
-32 -236 29 -155 132 -44 391 159 371 26 -3 60 -12 76 -20z"/>
<path d="M1012 1055 c-10 -12 -10 -18 0 -29 11 -12 15 -12 30 1 15 13 15 17 3
29 -16 17 -17 17 -33 -1z"/>
<path d="M909 1032 c-6 -17 -22 -33 -42 -41 l-32 -13 31 -13 c19 -8 36 -27 44
-46 l13 -31 17 32 c9 18 30 38 46 45 l29 13 -32 13 c-20 8 -36 24 -42 41 -6
15 -13 28 -16 28 -3 0 -10 -13 -16 -28z"/>
<path d="M1020 937 c0 -8 -10 -18 -22 -24 l-23 -10 23 -7 c12 -4 22 -14 22
-22 0 -8 5 -14 10 -14 6 0 10 6 10 13 0 8 10 18 23 24 l22 10 -22 7 c-13 4
-23 14 -23 22 0 8 -4 14 -10 14 -5 0 -10 -6 -10 -13z"/>
</g>
</svg>
