<?xml version="1.0" standalone="no"?>
<!DOCTYPE svg PUBLIC "-//W3C//DTD SVG 20010904//EN"
 "http://www.w3.org/TR/2001/REC-SVG-20010904/DTD/svg10.dtd">
<svg version="1.0" xmlns="http://www.w3.org/2000/svg"
 width="192.000000pt" height="192.000000pt" viewBox="0 0 192.000000 192.000000"
 preserveAspectRatio="xMidYMid meet">
<metadata>
Created by potrace 1.16, written by Peter Selinger 2001-2019
</metadata>
<g transform="translate(0.000000,192.000000) scale(0.100000,-0.100000)"
fill="#000000" stroke="none">
811 c445 -92 729 -532 635 -987 -62 -301 -295 -546 -601 -630 -91 -26 -329
-26 -420 0 -291 80 -516 305 -596 596 -26 91 -26 329 0 420 120 433 542 692
982 601z"/>
<path d="M885 1353 c-54 -40 -325 -322 -336 -351 -20 -52 -11 -70 91 -181 l99
-108 -47 -6 c-64 -7 -102 -49 -102 -113 l0 -45 205 3 205 3 171 170 c94 94
177 184 185 201 25 59 8 85 -179 272 -155 155 -178 174 -213 179 -32 4 -46 0
-79 -24z m163 -296 c41 -41 72 -81 72 -92 0 -26 -139 -165 -165 -165 -26 0
-165 139 -165 165 0 26 138 165 165 165 12 0 50 -30 93 -73z"/>
</g>
</svg>
