<?xml version="1.0" standalone="no"?>
<!DOCTYPE svg PUBLIC "-//W3C//DTD SVG 20010904//EN"
 "http://www.w3.org/TR/2001/REC-SVG-20010904/DTD/svg10.dtd">
<svg version="1.0" xmlns="http://www.w3.org/2000/svg"
 width="192.000000pt" height="192.000000pt" viewBox="0 0 192.000000 192.000000"
 preserveAspectRatio="xMidYMid meet">
<metadata>
Created by potrace 1.16, written by Peter Selinger 2001-2019
</metadata>
<g transform="translate(0.000000,192.000000) scale(0.100000,-0.100000)"
fill="#000000" stroke="none">
811 c445 -92 729 -532 635 -987 -62 -301 -295 -546 -601 -630 -91 -26 -329
-26 -420 0 -291 80 -516 305 -596 596 -26 91 -26 329 0 420 120 433 542 692
982 601z"/>
<path d="M635 1286 c-17 -7 -43 -28 -58 -45 -22 -27 -27 -42 -27 -86 0 -46 5
-60 30 -89 53 -60 136 -71 194 -25 102 80 57 241 -71 255 -21 2 -52 -2 -68
-10z"/>
<path d="M1195 1289 c-20 -5 -117 -96 -287 -266 -220 -221 -257 -263 -263
-295 -14 -73 21 -137 89 -163 89 -34 92 -32 369 243 137 136 255 259 263 274
20 39 18 107 -6 146 -12 19 -38 41 -63 52 -46 21 -58 22 -102 9z"/>
</g>
</svg>
