<?xml version="1.0" standalone="no"?>
<!DOCTYPE svg PUBLIC "-//W3C//DTD SVG 20010904//EN"
 "http://www.w3.org/TR/2001/REC-SVG-20010904/DTD/svg10.dtd">
<svg version="1.0" xmlns="http://www.w3.org/2000/svg"
 width="192.000000pt" height="192.000000pt" viewBox="0 0 192.000000 192.000000"
 preserveAspectRatio="xMidYMid meet">
<metadata>
Created by potrace 1.16, written by Peter Selinger 2001-2019
</metadata>
<g transform="translate(0.000000,192.000000) scale(0.100000,-0.100000)"
fill="#000000" stroke="none">
811 c445 -92 729 -532 635 -987 -62 -301 -295 -546 -601 -630 -91 -26 -329
-26 -420 0 -291 80 -516 305 -596 596 -26 91 -26 329 0 420 120 433 542 692
982 601z"/>
<path d="M685 1255 c-70 -38 -124 -112 -156 -216 -21 -67 -25 -182 -8 -242 13
-50 61 -103 105 -117 48 -16 107 6 159 60 l39 40 131 0 131 0 39 -40 c52 -54
111 -76 159 -60 19 6 48 27 65 45 101 115 50 395 -92 509 -32 26 -48 31 -91
31 -45 0 -58 -5 -90 -32 -35 -32 -40 -33 -121 -33 -80 0 -86 2 -120 31 -43 38
-105 48 -150 24z m72 -195 c3 -19 12 -30 22 -30 46 0 56 -57 12 -66 -22 -5
-30 -13 -35 -35 -4 -23 -11 -29 -31 -29 -20 0 -27 6 -31 30 -4 20 -13 30 -24
30 -23 0 -44 26 -37 45 4 8 17 17 30 20 13 4 28 18 34 36 16 41 51 40 60 -1z
m494 1 c61 -62 19 -161 -69 -161 -51 0 -92 43 -92 97 0 49 45 93 95 93 27 0
44 -8 66 -29z m-272 -5 c18 -21 10 -117 -11 -129 -29 -19 -48 9 -48 67 0 68
29 98 59 62z"/>
<path d="M1160 1016 c-27 -33 18 -72 48 -42 13 13 14 20 6 34 -15 23 -38 26
-54 8z"/>
</g>
</svg>
