<?xml version="1.0" standalone="no"?>
<!DOCTYPE svg PUBLIC "-//W3C//DTD SVG 20010904//EN"
 "http://www.w3.org/TR/2001/REC-SVG-20010904/DTD/svg10.dtd">
<svg version="1.0" xmlns="http://www.w3.org/2000/svg"
 width="192.000000pt" height="192.000000pt" viewBox="0 0 192.000000 192.000000"
 preserveAspectRatio="xMidYMid meet">
<metadata>
Created by potrace 1.16, written by Peter Selinger 2001-2019
</metadata>
<g transform="translate(0.000000,192.000000) scale(0.100000,-0.100000)"
fill="#000000" stroke="none">
811 c445 -92 729 -532 635 -987 -62 -301 -295 -546 -601 -630 -91 -26 -329
-26 -420 0 -291 80 -516 305 -596 596 -26 91 -26 329 0 420 120 433 542 692
982 601z"/>
<path d="M760 1368 c-50 -14 -97 -53 -120 -98 -18 -36 -20 -59 -20 -305 0
-246 2 -269 20 -305 47 -92 113 -113 341 -108 158 3 166 4 211 30 25 15 57 45
70 65 23 37 23 42 23 318 0 276 0 281 -23 318 -26 41 -104 92 -127 83 -12 -4
-15 -29 -15 -131 0 -69 -4 -125 -8 -125 -5 0 -21 14 -37 30 -16 17 -34 30 -41
30 -7 0 -22 -13 -34 -30 -41 -58 -49 -42 -52 103 l-3 132 -75 2 c-41 1 -91 -3
-110 -9z"/>
</g>
</svg>
