<?xml version="1.0" standalone="no"?>
<!DOCTYPE svg PUBLIC "-//W3C//DTD SVG 20010904//EN"
 "http://www.w3.org/TR/2001/REC-SVG-20010904/DTD/svg10.dtd">
<svg version="1.0" xmlns="http://www.w3.org/2000/svg"
 width="192.000000pt" height="192.000000pt" viewBox="0 0 192.000000 192.000000"
 preserveAspectRatio="xMidYMid meet">
<metadata>
Created by potrace 1.16, written by Peter Selinger 2001-2019
</metadata>
<g transform="translate(0.000000,192.000000) scale(0.100000,-0.100000)"
fill="#000000" stroke="none">
811 c445 -92 729 -532 635 -987 -62 -301 -295 -546 -601 -630 -91 -26 -329
-26 -420 0 -291 80 -516 305 -596 596 -26 91 -26 329 0 420 120 433 542 692
982 601z"/>
<path d="M886 1366 c-84 -31 -146 -126 -146 -224 0 -24 -11 -50 -36 -83 -119
-163 -67 -382 112 -470 296 -146 586 201 391 468 -28 39 -35 60 -40 111 -7 80
-42 143 -101 177 -54 32 -128 40 -180 21z m140 -91 c29 -19 50 -51 60 -89 6
-26 5 -28 -12 -22 -57 23 -179 23 -237 1 -16 -7 -17 -4 -12 21 22 94 124 140
201 89z m43 -199 c41 -22 96 -89 109 -135 23 -74 9 -160 -32 -207 l-22 -27
-55 19 c-66 22 -147 22 -225 -1 l-58 -17 -23 26 c-39 46 -53 133 -33 207 12
43 71 114 112 135 65 34 161 34 227 0z"/>
<path d="M903 988 c-23 -11 -53 -64 -53 -93 0 -80 118 -128 175 -71 46 46 45
109 -2 152 -28 26 -80 31 -120 12z"/>
</g>
</svg>
