<?xml version="1.0" standalone="no"?>
<!DOCTYPE svg PUBLIC "-//W3C//DTD SVG 20010904//EN"
 "http://www.w3.org/TR/2001/REC-SVG-20010904/DTD/svg10.dtd">
<svg version="1.0" xmlns="http://www.w3.org/2000/svg"
 width="192.000000pt" height="192.000000pt" viewBox="0 0 192.000000 192.000000"
 preserveAspectRatio="xMidYMid meet">
<metadata>
Created by potrace 1.16, written by Peter Selinger 2001-2019
</metadata>
<g transform="translate(0.000000,192.000000) scale(0.100000,-0.100000)"
fill="#000000" stroke="none">
811 c445 -92 729 -532 635 -987 -62 -301 -295 -546 -601 -630 -91 -26 -329
-26 -420 0 -291 80 -516 305 -596 596 -26 91 -26 329 0 420 120 433 542 692
982 601z"/>
<path d="M865 1366 c-70 -17 -132 -49 -185 -95 l-45 -39 24 -43 c14 -24 41
-72 61 -107 l37 -63 12 29 c7 16 27 43 44 60 58 56 86 62 302 62 133 0 195 3
195 11 0 6 -27 37 -60 70 -107 107 -246 149 -385 115z"/>
<path d="M575 1124 c-84 -201 3 -433 199 -530 41 -20 84 -34 97 -32 17 2 36
26 76 93 29 50 53 93 53 96 0 4 -27 9 -60 11 -99 7 -126 33 -239 230 -53 92
-99 168 -103 168 -4 0 -15 -16 -23 -36z"/>
<path d="M892 1090 c-74 -34 -103 -137 -57 -207 40 -60 131 -81 193 -43 98 60
94 197 -8 251 -44 24 -74 24 -128 -1z"/>
<path d="M1135 1064 c18 -34 25 -63 25 -104 0 -53 -6 -66 -100 -231 -96 -169
-99 -174 -75 -177 34 -4 130 24 180 54 47 27 123 104 153 154 48 82 63 196 41
300 l-11 50 -119 0 -118 0 24 -46z"/>
</g>
</svg>
