<?xml version="1.0" standalone="no"?>
<!DOCTYPE svg PUBLIC "-//W3C//DTD SVG 20010904//EN"
 "http://www.w3.org/TR/2001/REC-SVG-20010904/DTD/svg10.dtd">
<svg version="1.0" xmlns="http://www.w3.org/2000/svg"
 width="192.000000pt" height="192.000000pt" viewBox="0 0 192.000000 192.000000"
 preserveAspectRatio="xMidYMid meet">
<metadata>
Created by potrace 1.16, written by Peter Selinger 2001-2019
</metadata>
<g transform="translate(0.000000,192.000000) scale(0.100000,-0.100000)"
fill="#000000" stroke="none">
811 c445 -92 729 -532 635 -987 -62 -301 -295 -546 -601 -630 -91 -26 -329
-26 -420 0 -291 80 -516 305 -596 596 -26 91 -26 329 0 420 120 433 542 692
982 601z"/>
<path d="M940 1285 l0 -95 -99 0 -99 0 -99 -106 c-54 -58 -99 -112 -101 -119
-3 -11 17 -15 90 -17 l93 -3 5 -102 5 -103 105 -95 c58 -52 110 -95 117 -95
10 0 13 25 13 95 l0 95 99 0 99 0 99 106 c54 58 98 111 98 118 0 7 -31 12 -92
14 l-93 3 0 98 0 98 -110 102 c-61 55 -115 101 -120 101 -6 0 -10 -39 -10 -95z
m190 -114 c0 -4 -31 -37 -69 -75 -65 -64 -70 -67 -80 -48 -6 12 -11 74 -11
147 l0 127 80 -73 c44 -39 80 -75 80 -78z m-307 -99 l68 -69 -28 -12 c-18 -7
-72 -11 -146 -9 l-117 3 71 78 c39 42 74 77 78 77 3 0 37 -31 74 -68z m477
-129 c0 -5 -31 -42 -69 -83 l-69 -75 -71 70 c-69 68 -70 70 -48 82 24 13 257
19 257 6z m-370 -79 c11 -27 14 -254 4 -254 -3 0 -41 33 -84 73 l-79 72 67 68
c36 37 70 67 74 67 5 0 13 -12 18 -26z"/>
</g>
</svg>
