<?xml version="1.0" standalone="no"?>
<!DOCTYPE svg PUBLIC "-//W3C//DTD SVG 20010904//EN"
 "http://www.w3.org/TR/2001/REC-SVG-20010904/DTD/svg10.dtd">
<svg version="1.0" xmlns="http://www.w3.org/2000/svg"
 width="192.000000pt" height="192.000000pt" viewBox="0 0 192.000000 192.000000"
 preserveAspectRatio="xMidYMid meet">
<metadata>
Created by potrace 1.16, written by Peter Selinger 2001-2019
</metadata>
<g transform="translate(0.000000,192.000000) scale(0.100000,-0.100000)"
fill="#000000" stroke="none">
811 c445 -92 729 -532 635 -987 -62 -301 -295 -546 -601 -630 -91 -26 -329
-26 -420 0 -291 80 -516 305 -596 596 -26 91 -26 329 0 420 120 433 542 692
982 601z"/>
<path d="M909 1341 c-59 -19 -80 -47 -220 -289 -161 -279 -169 -303 -127 -382
50 -92 167 -116 242 -49 19 16 60 74 91 129 31 55 58 100 60 100 2 0 29 -45
60 -100 68 -118 106 -156 170 -166 99 -14 192 75 182 176 -5 64 -273 530 -321
559 -38 24 -100 34 -137 22z m-48 -323 l42 -72 -28 -52 -28 -52 -36 28 c-20
16 -50 32 -67 37 l-31 8 49 88 c28 48 52 87 54 87 2 0 22 -32 45 -72z m-102
-224 c12 -15 21 -38 21 -51 0 -32 -42 -73 -75 -73 -36 0 -75 42 -75 80 0 67
88 97 129 44z"/>
</g>
</svg>
