<?xml version="1.0" standalone="no"?>
<!DOCTYPE svg PUBLIC "-//W3C//DTD SVG 20010904//EN"
 "http://www.w3.org/TR/2001/REC-SVG-20010904/DTD/svg10.dtd">
<svg version="1.0" xmlns="http://www.w3.org/2000/svg"
 width="192.000000pt" height="192.000000pt" viewBox="0 0 192.000000 192.000000"
 preserveAspectRatio="xMidYMid meet">
<metadata>
Created by potrace 1.16, written by Peter Selinger 2001-2019
</metadata>
<g transform="translate(0.000000,192.000000) scale(0.100000,-0.100000)"
fill="#000000" stroke="none">
811 c445 -92 729 -532 635 -987 -62 -301 -295 -546 -601 -630 -91 -26 -329
-26 -420 0 -291 80 -516 305 -596 596 -26 91 -26 329 0 420 120 433 542 692
982 601z"/>
<path d="M573 1206 c-28 -24 -28 -25 -28 -145 0 -117 1 -121 26 -147 23 -22
38 -27 98 -32 l70 -5 3 -86 3 -86 30 2 c38 3 90 57 104 110 15 53 14 338 -1
366 -22 42 -38 46 -160 47 -109 0 -119 -2 -145 -24z"/>
<path d="M1053 1206 c-27 -23 -28 -29 -32 -122 -6 -168 20 -204 143 -204 l55
0 3 -87 c3 -100 12 -109 68 -71 67 45 75 72 78 270 l4 178 -30 30 c-30 30 -31
30 -146 30 -107 0 -117 -2 -143 -24z"/>
</g>
</svg>
