<?xml version="1.0" standalone="no"?>
<!DOCTYPE svg PUBLIC "-//W3C//DTD SVG 20010904//EN"
 "http://www.w3.org/TR/2001/REC-SVG-20010904/DTD/svg10.dtd">
<svg version="1.0" xmlns="http://www.w3.org/2000/svg"
 width="192.000000pt" height="192.000000pt" viewBox="0 0 192.000000 192.000000"
 preserveAspectRatio="xMidYMid meet">
<metadata>
Created by potrace 1.16, written by Peter Selinger 2001-2019
</metadata>
<g transform="translate(0.000000,192.000000) scale(0.100000,-0.100000)"
fill="#000000" stroke="none">
811 c445 -92 729 -532 635 -987 -62 -301 -295 -546 -601 -630 -91 -26 -329
-26 -420 0 -291 80 -516 305 -596 596 -26 91 -26 329 0 420 120 433 542 692
982 601z"/>
<path d="M1082 1366 c-100 -33 -162 -119 -162 -224 0 -114 74 -207 185 -232
216 -48 375 218 228 381 -67 74 -164 103 -251 75z m139 -92 c22 -11 29 -21 27
-37 -3 -20 -8 -22 -65 -19 -52 3 -65 0 -82 -17 -37 -37 -26 -103 20 -127 25
-13 33 -13 64 0 44 19 45 34 3 38 -27 2 -34 8 -36 30 -4 33 18 41 94 36 48 -3
49 -4 52 -38 5 -70 -66 -140 -143 -140 -78 0 -145 67 -145 145 0 106 117 178
211 129z"/>
<path d="M553 1230 c-44 -18 -43 -98 2 -118 43 -20 95 14 95 63 0 19 -44 65
-62 64 -7 0 -23 -4 -35 -9z"/>
<path d="M696 1129 c-33 -26 -56 -69 -56 -106 0 -62 64 -123 130 -123 118 0
170 148 79 225 -40 33 -114 35 -153 4z"/>
<path d="M692 831 c-100 -63 -95 -212 8 -263 70 -36 154 -13 198 52 20 29 23
44 20 93 -4 51 -9 63 -41 94 -32 32 -43 37 -94 40 -46 3 -65 0 -91 -16z"/>
</g>
</svg>
