<?xml version="1.0" standalone="no"?>
<!DOCTYPE svg PUBLIC "-//W3C//DTD SVG 20010904//EN"
 "http://www.w3.org/TR/2001/REC-SVG-20010904/DTD/svg10.dtd">
<svg version="1.0" xmlns="http://www.w3.org/2000/svg"
 width="192.000000pt" height="192.000000pt" viewBox="0 0 192.000000 192.000000"
 preserveAspectRatio="xMidYMid meet">
<metadata>
Created by potrace 1.16, written by Peter Selinger 2001-2019
</metadata>
<g transform="translate(0.000000,192.000000) scale(0.100000,-0.100000)"
fill="#000000" stroke="none">
811 c445 -92 729 -532 635 -987 -62 -301 -295 -546 -601 -630 -91 -26 -329
-26 -420 0 -291 80 -516 305 -596 596 -26 91 -26 329 0 420 120 433 542 692
982 601z"/>
<path d="M652 1299 c-47 -24 -83 -66 -101 -118 -14 -44 -15 -382 0 -436 16
-59 84 -120 149 -134 66 -14 444 -14 510 0 67 14 133 75 150 137 7 28 10 112
8 235 -3 220 -12 249 -87 302 l-43 30 -271 3 c-261 2 -274 2 -315 -19z m76
-108 c8 -5 12 -21 10 -37 -3 -28 -5 -29 -53 -29 -45 0 -50 2 -53 23 -2 13 2
30 8 38 14 15 67 19 88 5z m542 -5 c6 -8 10 -25 8 -38 -3 -21 -8 -23 -53 -23
-48 0 -50 1 -53 29 -2 16 2 32 10 37 21 14 74 10 88 -5z m-535 -156 l0 -35
-50 0 c-45 0 -50 2 -53 23 -5 36 16 53 62 50 40 -3 41 -4 41 -38z m535 26 c6
-8 10 -25 8 -38 -3 -21 -8 -23 -53 -23 -45 0 -50 2 -53 23 -2 13 -1 30 2 38 7
19 80 19 96 0z m-535 -156 l0 -35 -50 0 c-45 0 -50 2 -53 23 -6 44 4 53 55 50
48 -3 48 -3 48 -38z m540 0 l0 -35 -50 0 c-45 0 -50 2 -53 23 -6 44 4 53 55
50 48 -3 48 -3 48 -38z m-540 -130 l0 -35 -50 0 c-45 0 -50 2 -53 23 -6 44 4
53 55 50 48 -3 48 -3 48 -38z m540 0 l0 -35 -50 0 c-45 0 -50 2 -53 23 -6 44
4 53 55 50 48 -3 48 -3 48 -38z"/>
</g>
</svg>
