<?xml version="1.0" standalone="no"?>
<!DOCTYPE svg PUBLIC "-//W3C//DTD SVG 20010904//EN"
 "http://www.w3.org/TR/2001/REC-SVG-20010904/DTD/svg10.dtd">
<svg version="1.0" xmlns="http://www.w3.org/2000/svg"
 width="192.000000pt" height="192.000000pt" viewBox="0 0 192.000000 192.000000"
 preserveAspectRatio="xMidYMid meet">
<metadata>
Created by potrace 1.16, written by Peter Selinger 2001-2019
</metadata>
<g transform="translate(0.000000,192.000000) scale(0.100000,-0.100000)"
fill="#000000" stroke="none">
811 c445 -92 729 -532 635 -987 -62 -301 -295 -546 -601 -630 -91 -26 -329
-26 -420 0 -291 80 -516 305 -596 596 -26 91 -26 329 0 420 120 433 542 692
982 601z"/>
<path d="M833 1355 c-65 -20 -124 -58 -177 -114 -110 -118 -140 -281 -80 -438
15 -37 15 -52 6 -94 -29 -124 -8 -146 116 -118 42 10 57 9 108 -9 160 -54 307
-25 423 83 226 212 147 585 -146 686 -66 22 -186 25 -250 4z m65 -257 c8 -8
12 -49 12 -119 0 -92 -3 -110 -21 -133 -11 -14 -29 -26 -40 -26 -16 0 -19 7
-19 50 l0 50 -37 0 c-56 0 -73 22 -73 93 0 84 14 97 100 97 38 0 71 -5 78 -12z
m266 -4 c12 -12 16 -37 16 -110 0 -99 -14 -146 -45 -158 -31 -11 -35 -6 -35
44 l0 50 -43 0 c-24 0 -48 5 -55 12 -7 7 -12 40 -12 79 0 88 11 99 95 99 44 0
68 -5 79 -16z"/>
</g>
</svg>
