<?xml version="1.0" standalone="no"?>
<!DOCTYPE svg PUBLIC "-//W3C//DTD SVG 20010904//EN"
 "http://www.w3.org/TR/2001/REC-SVG-20010904/DTD/svg10.dtd">
<svg version="1.0" xmlns="http://www.w3.org/2000/svg"
 width="192.000000pt" height="192.000000pt" viewBox="0 0 192.000000 192.000000"
 preserveAspectRatio="xMidYMid meet">
<metadata>
Created by potrace 1.16, written by Peter Selinger 2001-2019
</metadata>
<g transform="translate(0.000000,192.000000) scale(0.100000,-0.100000)"
fill="#000000" stroke="none">
811 c445 -92 729 -532 635 -987 -62 -301 -295 -546 -601 -630 -91 -26 -329
-26 -420 0 -291 80 -516 305 -596 596 -26 91 -26 329 0 420 120 433 542 692
982 601z"/>
<path d="M833 1356 c-147 -48 -259 -180 -284 -336 -33 -209 118 -420 330 -460
89 -17 353 -13 401 6 71 29 84 64 88 236 4 170 -7 256 -42 333 -35 77 -115
158 -194 197 -58 29 -77 33 -161 35 -61 2 -111 -2 -138 -11z m242 -162 c45
-23 58 -61 30 -84 -14 -11 -22 -12 -48 -1 -70 28 -96 32 -136 21 -80 -21 -131
-86 -131 -165 0 -62 25 -111 71 -142 77 -50 162 -40 223 28 54 59 49 69 -32
69 -70 0 -92 10 -92 41 0 39 26 49 134 49 66 0 106 -4 114 -12 16 -16 15 -54
-3 -114 -32 -107 -129 -178 -245 -177 -75 0 -121 17 -174 63 -135 119 -105
343 57 425 44 22 62 26 122 23 46 -2 84 -10 110 -24z"/>
</g>
</svg>
