<?xml version="1.0" standalone="no"?>
<!DOCTYPE svg PUBLIC "-//W3C//DTD SVG 20010904//EN"
 "http://www.w3.org/TR/2001/REC-SVG-20010904/DTD/svg10.dtd">
<svg version="1.0" xmlns="http://www.w3.org/2000/svg"
 width="192.000000pt" height="192.000000pt" viewBox="0 0 192.000000 192.000000"
 preserveAspectRatio="xMidYMid meet">
<metadata>
Created by potrace 1.16, written by Peter Selinger 2001-2019
</metadata>
<g transform="translate(0.000000,192.000000) scale(0.100000,-0.100000)"
fill="#000000" stroke="none">
811 c445 -92 729 -532 635 -987 -62 -301 -295 -546 -601 -630 -91 -26 -329
-26 -420 0 -291 80 -516 305 -596 596 -26 91 -26 329 0 420 120 433 542 692
982 601z"/>
<path d="M962 1418 c-8 -8 -12 -65 -12 -192 -1 -158 -2 -177 -14 -151 -31 72
-100 125 -179 140 -116 22 -249 -81 -259 -201 l-3 -39 195 -5 194 -5 -43 -19
c-90 -41 -153 -153 -136 -243 20 -108 113 -193 210 -193 l35 0 0 198 0 197 24
-50 c27 -58 79 -108 131 -125 60 -20 156 -9 203 23 55 36 96 107 96 166 l1 46
-185 3 -185 2 52 30 c154 88 150 321 -6 399 -50 25 -104 34 -119 19z"/>
</g>
</svg>
