<?xml version="1.0" standalone="no"?>
<!DOCTYPE svg PUBLIC "-//W3C//DTD SVG 20010904//EN"
 "http://www.w3.org/TR/2001/REC-SVG-20010904/DTD/svg10.dtd">
<svg version="1.0" xmlns="http://www.w3.org/2000/svg"
 width="192.000000pt" height="192.000000pt" viewBox="0 0 192.000000 192.000000"
 preserveAspectRatio="xMidYMid meet">
<metadata>
Created by potrace 1.16, written by Peter Selinger 2001-2019
</metadata>
<g transform="translate(0.000000,192.000000) scale(0.100000,-0.100000)"
fill="#000000" stroke="none">
811 c445 -92 729 -532 635 -987 -62 -301 -295 -546 -601 -630 -91 -26 -329
-26 -420 0 -291 80 -516 305 -596 596 -26 91 -26 329 0 420 120 433 542 692
982 601z"/>
<path d="M881 1398 c-74 -51 -76 -57 -76 -278 0 -185 1 -200 21 -226 71 -96
195 -95 255 3 23 36 24 46 24 223 0 157 -3 190 -17 217 -41 75 -143 105 -207
61z"/>
<path d="M688 1069 c-14 -8 -18 -23 -18 -68 0 -125 54 -224 150 -272 30 -16
63 -31 73 -33 13 -4 17 -16 17 -56 l0 -50 -44 0 c-45 0 -76 -18 -76 -44 0 -31
27 -37 171 -34 142 3 144 3 147 26 5 37 -15 52 -69 52 l-49 0 0 49 0 49 52 18
c66 21 139 89 166 153 12 26 24 76 28 112 5 56 4 67 -14 89 -17 20 -24 23 -39
14 -14 -8 -19 -29 -24 -85 -7 -84 -22 -120 -70 -167 -42 -41 -88 -55 -155 -50
-110 9 -184 96 -184 214 0 44 -5 67 -16 78 -18 19 -23 19 -46 5z"/>
</g>
</svg>
