<?xml version="1.0" standalone="no"?>
<!DOCTYPE svg PUBLIC "-//W3C//DTD SVG 20010904//EN"
 "http://www.w3.org/TR/2001/REC-SVG-20010904/DTD/svg10.dtd">
<svg version="1.0" xmlns="http://www.w3.org/2000/svg"
 width="192.000000pt" height="192.000000pt" viewBox="0 0 192.000000 192.000000"
 preserveAspectRatio="xMidYMid meet">
<metadata>
Created by potrace 1.16, written by Peter Selinger 2001-2019
</metadata>
<g transform="translate(0.000000,192.000000) scale(0.100000,-0.100000)"
fill="#000000" stroke="none">
811 c445 -92 729 -532 635 -987 -62 -301 -295 -546 -601 -630 -91 -26 -329
-26 -420 0 -291 80 -516 305 -596 596 -26 91 -26 329 0 420 120 433 542 692
982 601z"/>
<path d="M895 1370 c-38 -15 -48 -36 -36 -71 19 -54 16 -58 -31 -42 -79 27
-170 -2 -220 -71 -24 -33 -28 -49 -26 -86 2 -36 7 -46 23 -49 11 -2 31 -8 44
-13 l25 -9 -27 -25 c-61 -57 -82 -119 -66 -196 21 -94 108 -149 154 -98 23 26
35 25 35 0 0 -49 58 -118 122 -144 51 -22 96 -20 136 4 33 20 34 22 27 71 -7
51 -7 51 16 38 56 -29 174 -4 221 48 29 31 50 93 43 124 -5 23 -14 31 -46 39
-40 11 -49 23 -25 37 25 14 64 82 71 122 13 78 -28 161 -93 188 -32 13 -37 13
-63 -6 -16 -12 -30 -21 -32 -21 -3 0 -7 14 -11 32 -19 94 -151 165 -241 128z"/>
</g>
</svg>
