<?xml version="1.0" standalone="no"?>
<!DOCTYPE svg PUBLIC "-//W3C//DTD SVG 20010904//EN"
 "http://www.w3.org/TR/2001/REC-SVG-20010904/DTD/svg10.dtd">
<svg version="1.0" xmlns="http://www.w3.org/2000/svg"
 width="192.000000pt" height="192.000000pt" viewBox="0 0 192.000000 192.000000"
 preserveAspectRatio="xMidYMid meet">
<metadata>
Created by potrace 1.16, written by Peter Selinger 2001-2019
</metadata>
<g transform="translate(0.000000,192.000000) scale(0.100000,-0.100000)"
fill="#000000" stroke="none">
811 c445 -92 729 -532 635 -987 -62 -301 -295 -546 -601 -630 -91 -26 -329
-26 -420 0 -291 80 -516 305 -596 596 -26 91 -26 329 0 420 120 433 542 692
982 601z"/>
<path d="M889 1344 c-35 -37 -33 -98 4 -130 40 -34 90 -32 128 5 37 37 38 79
3 120 -35 42 -98 44 -135 5z"/>
<path d="M770 1213 c-32 -12 -61 -48 -67 -85 -6 -42 -33 -68 -71 -68 -13 0
-37 -13 -53 -29 -59 -60 -23 -156 59 -156 52 0 88 32 97 86 7 43 35 69 73 69
35 0 82 52 82 90 0 42 -15 67 -50 85 -30 16 -45 17 -70 8z"/>
<path d="M1068 1205 c-31 -17 -48 -44 -48 -73 0 -32 -38 -72 -69 -72 -33 0
-78 -38 -87 -74 -13 -52 37 -116 91 -116 46 0 95 51 95 100 0 26 38 60 67 60
54 0 97 57 86 113 -11 57 -84 90 -135 62z"/>
<path d="M1211 1034 c-25 -21 -31 -34 -31 -64 0 -58 35 -95 90 -95 84 0 121
95 61 156 -37 37 -79 38 -120 3z"/>
<path d="M741 883 c-52 -43 -40 -132 20 -157 64 -27 129 15 129 81 0 73 -94
121 -149 76z"/>
<path d="M1049 871 c-16 -16 -29 -40 -29 -53 0 -38 -26 -66 -70 -73 -56 -9
-94 -56 -86 -104 12 -79 101 -108 157 -52 16 16 29 40 29 53 0 38 26 65 68 72
66 10 102 72 78 131 -26 63 -97 75 -147 26z"/>
</g>
</svg>
