<?xml version="1.0" standalone="no"?>
<!DOCTYPE svg PUBLIC "-//W3C//DTD SVG 20010904//EN"
 "http://www.w3.org/TR/2001/REC-SVG-20010904/DTD/svg10.dtd">
<svg version="1.0" xmlns="http://www.w3.org/2000/svg"
 width="192.000000pt" height="192.000000pt" viewBox="0 0 192.000000 192.000000"
 preserveAspectRatio="xMidYMid meet">
<metadata>
Created by potrace 1.16, written by Peter Selinger 2001-2019
</metadata>
<g transform="translate(0.000000,192.000000) scale(0.100000,-0.100000)"
fill="#000000" stroke="none">
811 c445 -92 729 -532 635 -987 -62 -301 -295 -546 -601 -630 -91 -26 -329
-26 -420 0 -291 80 -516 305 -596 596 -26 91 -26 329 0 420 120 433 542 692
982 601z"/>
<path d="M743 1283 c-101 -48 -183 -93 -183 -100 0 -7 39 -33 87 -57 l88 -44
-88 -43 c-48 -24 -87 -49 -87 -55 0 -6 45 -33 100 -59 55 -27 100 -51 100 -55
0 -4 -45 -28 -100 -54 -55 -26 -100 -53 -100 -60 0 -17 354 -186 391 -186 25
0 353 146 387 173 20 16 0 30 -103 77 -52 24 -95 46 -95 50 0 3 46 29 103 56
56 27 102 54 102 59 0 6 -40 30 -90 53 l-90 44 87 44 c47 24 89 48 93 54 8 13
-338 181 -385 186 -28 3 -70 -13 -217 -83z"/>
</g>
</svg>
