<?xml version="1.0" standalone="no"?>
<!DOCTYPE svg PUBLIC "-//W3C//DTD SVG 20010904//EN"
 "http://www.w3.org/TR/2001/REC-SVG-20010904/DTD/svg10.dtd">
<svg version="1.0" xmlns="http://www.w3.org/2000/svg"
 width="192.000000pt" height="192.000000pt" viewBox="0 0 192.000000 192.000000"
 preserveAspectRatio="xMidYMid meet">
<metadata>
Created by potrace 1.16, written by Peter Selinger 2001-2019
</metadata>
<g transform="translate(0.000000,192.000000) scale(0.100000,-0.100000)"
fill="#000000" stroke="none">
811 c445 -92 729 -532 635 -987 -62 -301 -295 -546 -601 -630 -91 -26 -329
-26 -420 0 -291 80 -516 305 -596 596 -26 91 -26 329 0 420 120 433 542 692
982 601z"/>
<path d="M880 1370 c-71 -39 -315 -226 -337 -259 -35 -51 -29 -93 37 -300 66
-204 88 -240 161 -261 18 -6 119 -10 223 -10 173 0 194 2 234 21 24 12 53 36
63 53 32 52 133 376 132 423 -1 23 -10 56 -19 73 -17 28 -274 223 -347 263
-41 22 -103 21 -147 -3z m288 -292 c32 -32 14 -60 -121 -195 -73 -73 -141
-133 -151 -133 -26 0 -166 139 -166 165 0 60 59 60 120 0 l46 -45 109 110
c108 109 136 125 163 98z"/>
</g>
</svg>
