<?xml version="1.0" standalone="no"?>
<!DOCTYPE svg PUBLIC "-//W3C//DTD SVG 20010904//EN"
 "http://www.w3.org/TR/2001/REC-SVG-20010904/DTD/svg10.dtd">
<svg version="1.0" xmlns="http://www.w3.org/2000/svg"
 width="192.000000pt" height="192.000000pt" viewBox="0 0 192.000000 192.000000"
 preserveAspectRatio="xMidYMid meet">
<metadata>
Created by potrace 1.16, written by Peter Selinger 2001-2019
</metadata>
<g transform="translate(0.000000,192.000000) scale(0.100000,-0.100000)"
fill="#000000" stroke="none">
811 c445 -92 729 -532 635 -987 -62 -301 -295 -546 -601 -630 -91 -26 -329
-26 -420 0 -291 80 -516 305 -596 596 -26 91 -26 329 0 420 120 433 542 692
982 601z"/>
<path d="M823 1351 c-105 -39 -190 -116 -241 -221 -24 -50 -27 -66 -27 -165 0
-104 2 -114 32 -176 39 -80 120 -159 200 -197 52 -24 69 -27 168 -27 104 0
114 2 176 32 81 40 160 121 197 200 22 48 26 73 27 143 l0 85 -179 3 c-200 3
-216 -2 -216 -63 0 -55 22 -65 143 -65 124 0 127 -4 78 -82 -50 -78 -129 -120
-227 -120 -105 -1 -202 62 -245 156 -25 56 -25 166 0 222 62 136 226 194 367
130 69 -32 85 -32 112 -3 71 75 -39 158 -218 164 -75 3 -106 -1 -147 -16z"/>
</g>
</svg>
