<?xml version="1.0" standalone="no"?>
<!DOCTYPE svg PUBLIC "-//W3C//DTD SVG 20010904//EN"
 "http://www.w3.org/TR/2001/REC-SVG-20010904/DTD/svg10.dtd">
<svg version="1.0" xmlns="http://www.w3.org/2000/svg"
 width="192.000000pt" height="192.000000pt" viewBox="0 0 192.000000 192.000000"
 preserveAspectRatio="xMidYMid meet">
<metadata>
Created by potrace 1.16, written by Peter Selinger 2001-2019
</metadata>
<g transform="translate(0.000000,192.000000) scale(0.100000,-0.100000)"
fill="#000000" stroke="none">
811 c445 -92 729 -532 635 -987 -62 -301 -295 -546 -601 -630 -91 -26 -329
-26 -420 0 -291 80 -516 305 -596 596 -26 91 -26 329 0 420 120 433 542 692
982 601z"/>
<path d="M833 1346 c-144 -47 -247 -169 -274 -325 -29 -162 63 -342 212 -416
30 -15 74 -47 99 -70 68 -66 88 -67 152 -8 29 28 74 60 100 72 78 37 143 103
185 189 36 72 38 81 38 171 -1 76 -5 108 -24 154 -32 80 -115 168 -198 209
-57 28 -78 33 -157 35 -57 2 -107 -2 -133 -11z m241 -137 l26 -20 0 -204 c0
-254 3 -248 -124 -254 -100 -4 -129 2 -156 29 -19 19 -20 34 -20 220 0 200 0
201 25 225 22 23 31 25 123 25 85 0 103 -3 126 -21z"/>
<path d="M880 835 c-7 -8 -10 -22 -6 -30 5 -13 20 -15 78 -13 62 3 73 6 76 22
5 27 -15 36 -79 36 -38 0 -61 -5 -69 -15z"/>
</g>
</svg>
