<?xml version="1.0" standalone="no"?>
<!DOCTYPE svg PUBLIC "-//W3C//DTD SVG 20010904//EN"
 "http://www.w3.org/TR/2001/REC-SVG-20010904/DTD/svg10.dtd">
<svg version="1.0" xmlns="http://www.w3.org/2000/svg"
 width="192.000000pt" height="192.000000pt" viewBox="0 0 192.000000 192.000000"
 preserveAspectRatio="xMidYMid meet">
<metadata>
Created by potrace 1.16, written by Peter Selinger 2001-2019
</metadata>
<g transform="translate(0.000000,192.000000) scale(0.100000,-0.100000)"
fill="#000000" stroke="none">
811 c445 -92 729 -532 635 -987 -62 -301 -295 -546 -601 -630 -91 -26 -329
-26 -420 0 -291 80 -516 305 -596 596 -26 91 -26 329 0 420 120 433 542 692
982 601z"/>
<path d="M870 1373 c-33 -13 -61 -49 -67 -85 -3 -21 -23 -67 -45 -101 -60 -96
-81 -147 -86 -209 -5 -65 16 -138 54 -189 36 -48 70 -118 78 -160 3 -20 18
-47 32 -60 23 -22 34 -24 119 -24 85 0 96 2 119 24 14 13 29 40 32 60 8 42 42
112 79 161 73 99 70 248 -7 351 -35 47 -64 107 -72 150 -3 20 -18 47 -32 60
-22 21 -36 24 -107 26 -45 1 -89 0 -97 -4z m187 -212 c108 -55 154 -187 104
-297 -34 -74 -128 -134 -212 -134 -74 0 -168 63 -200 134 -24 53 -24 139 0
192 22 49 90 109 139 123 50 14 123 6 169 -18z"/>
<path d="M1025 1035 c-33 -24 -64 -45 -69 -45 -4 0 -25 14 -46 30 -43 34 -70
39 -70 11 0 -17 95 -101 114 -101 5 0 44 25 88 56 52 37 78 62 76 72 -6 29
-31 23 -93 -23z"/>
</g>
</svg>
