<?xml version="1.0" standalone="no"?>
<!DOCTYPE svg PUBLIC "-//W3C//DTD SVG 20010904//EN"
 "http://www.w3.org/TR/2001/REC-SVG-20010904/DTD/svg10.dtd">
<svg version="1.0" xmlns="http://www.w3.org/2000/svg"
 width="192.000000pt" height="192.000000pt" viewBox="0 0 192.000000 192.000000"
 preserveAspectRatio="xMidYMid meet">
<metadata>
Created by potrace 1.16, written by Peter Selinger 2001-2019
</metadata>
<g transform="translate(0.000000,192.000000) scale(0.100000,-0.100000)"
fill="#000000" stroke="none">
811 c445 -92 729 -532 635 -987 -62 -301 -295 -546 -601 -630 -91 -26 -329
-26 -420 0 -291 80 -516 305 -596 596 -26 91 -26 329 0 420 120 433 542 692
982 601z"/>
<path d="M795 1359 c-11 -18 -245 -743 -245 -759 0 -34 22 -40 152 -40 l128 0
36 33 c25 23 43 54 63 111 l28 80 27 -82 c28 -83 61 -126 109 -137 12 -3 76
-4 142 -3 l120 3 3 28 c3 28 -221 739 -241 765 -12 16 -312 17 -322 1z m455
-701 c0 -13 -125 -9 -142 5 -9 6 -35 72 -59 144 l-43 133 38 117 39 117 83
-254 c46 -140 84 -258 84 -262z"/>
</g>
</svg>
