<?xml version="1.0" standalone="no"?>
<!DOCTYPE svg PUBLIC "-//W3C//DTD SVG 20010904//EN"
 "http://www.w3.org/TR/2001/REC-SVG-20010904/DTD/svg10.dtd">
<svg version="1.0" xmlns="http://www.w3.org/2000/svg"
 width="192.000000pt" height="192.000000pt" viewBox="0 0 192.000000 192.000000"
 preserveAspectRatio="xMidYMid meet">
<metadata>
Created by potrace 1.16, written by Peter Selinger 2001-2019
</metadata>
<g transform="translate(0.000000,192.000000) scale(0.100000,-0.100000)"
fill="#000000" stroke="none">
811 c445 -92 729 -532 635 -987 -62 -301 -295 -546 -601 -630 -91 -26 -329
-26 -420 0 -291 80 -516 305 -596 596 -26 91 -26 329 0 420 120 433 542 692
982 601z"/>
<path d="M835 1357 c-93 -31 -185 -97 -185 -132 0 -22 89 -185 101 -185 5 0 9
4 9 10 0 19 75 93 110 109 27 12 83 17 235 21 l200 5 -54 58 c-36 38 -77 68
-120 89 -58 28 -78 32 -161 35 -60 2 -110 -2 -135 -10z"/>
<path d="M576 1125 c-9 -20 -21 -65 -27 -100 -31 -165 68 -352 225 -426 99
-47 109 -42 182 84 l42 72 -56 6 c-63 6 -106 25 -139 61 -11 12 -60 91 -108
173 -48 83 -90 154 -95 159 -5 5 -15 -8 -24 -29z"/>
<path d="M922 1099 c-68 -14 -121 -95 -108 -164 12 -63 75 -115 141 -115 40 0
103 37 120 70 8 16 15 47 15 70 0 96 -76 159 -168 139z m86 -71 c2 -20 -1 -28
-12 -28 -8 0 -18 5 -21 10 -3 6 -13 10 -21 10 -10 0 -14 -14 -14 -55 0 -41 4
-55 14 -55 8 0 18 5 21 10 3 6 13 10 21 10 11 0 14 -8 12 -27 -3 -26 -6 -28
-53 -28 l-50 0 -3 79 c-4 105 -2 108 55 104 44 -3 48 -5 51 -30z"/>
<path d="M1129 1081 c28 -38 42 -108 32 -153 -7 -31 -80 -165 -184 -337 l-21
-34 57 6 c207 21 375 237 351 451 -10 88 -22 96 -150 96 l-105 0 20 -29z"/>
</g>
</svg>
