<?xml version="1.0" standalone="no"?>
<!DOCTYPE svg PUBLIC "-//W3C//DTD SVG 20010904//EN"
 "http://www.w3.org/TR/2001/REC-SVG-20010904/DTD/svg10.dtd">
<svg version="1.0" xmlns="http://www.w3.org/2000/svg"
 width="192.000000pt" height="192.000000pt" viewBox="0 0 192.000000 192.000000"
 preserveAspectRatio="xMidYMid meet">
<metadata>
Created by potrace 1.16, written by Peter Selinger 2001-2019
</metadata>
<g transform="translate(0.000000,192.000000) scale(0.100000,-0.100000)"
fill="#000000" stroke="none">
811 c445 -92 729 -532 635 -987 -62 -301 -295 -546 -601 -630 -91 -26 -329
-26 -420 0 -291 80 -516 305 -596 596 -26 91 -26 329 0 420 120 433 542 692
982 601z"/>
<path d="M922 1338 c-17 -17 -17 -729 0 -746 19 -19 66 -15 78 7 6 13 10 147
10 369 0 325 -1 350 -18 365 -22 20 -53 22 -70 5z"/>
<path d="M736 1218 c-13 -19 -16 -61 -16 -260 0 -225 1 -239 20 -258 11 -11
27 -20 35 -20 8 0 24 9 35 20 19 19 20 33 20 264 0 209 -2 247 -16 260 -22 23
-60 20 -78 -6z"/>
<path d="M1102 1228 c-9 -9 -12 -81 -12 -264 0 -216 2 -255 16 -268 21 -21 47
-20 67 2 15 16 17 49 17 261 0 148 -4 250 -10 262 -12 22 -59 26 -78 7z"/>
<path d="M554 1095 c-22 -33 -17 -261 6 -275 26 -16 58 -11 74 12 23 32 23
234 0 266 -20 30 -59 29 -80 -3z"/>
<path d="M1282 1108 c-8 -8 -12 -54 -12 -143 0 -89 4 -135 12 -143 19 -19 66
-15 78 7 13 25 13 247 0 272 -12 22 -59 26 -78 7z"/>
</g>
</svg>
