<?xml version="1.0" standalone="no"?>
<!DOCTYPE svg PUBLIC "-//W3C//DTD SVG 20010904//EN"
 "http://www.w3.org/TR/2001/REC-SVG-20010904/DTD/svg10.dtd">
<svg version="1.0" xmlns="http://www.w3.org/2000/svg"
 width="192.000000pt" height="192.000000pt" viewBox="0 0 192.000000 192.000000"
 preserveAspectRatio="xMidYMid meet">
<metadata>
Created by potrace 1.16, written by Peter Selinger 2001-2019
</metadata>
<g transform="translate(0.000000,192.000000) scale(0.100000,-0.100000)"
fill="#000000" stroke="none">
811 c445 -92 729 -532 635 -987 -62 -301 -295 -546 -601 -630 -91 -26 -329
-26 -420 0 -291 80 -516 305 -596 596 -26 91 -26 329 0 420 120 433 542 692
982 601z"/>
<path d="M783 1373 c-12 -2 -34 -18 -48 -34 -24 -29 -25 -36 -25 -164 0 -73 3
-141 6 -150 12 -29 214 -185 241 -185 15 0 61 29 126 82 56 45 105 87 109 93
4 5 8 75 8 155 0 165 -6 182 -68 200 -35 9 -302 12 -349 3z m97 -98 c0 -24 5
-35 15 -35 8 0 15 -9 15 -20 0 -11 -7 -20 -15 -20 -8 0 -15 -9 -15 -20 0 -11
7 -20 15 -20 8 0 15 -9 15 -20 0 -11 -7 -20 -15 -20 -11 0 -15 -12 -15 -45 0
-35 -5 -47 -21 -55 -11 -7 -27 -9 -35 -6 -19 7 -18 46 1 46 10 0 15 10 15 30
0 20 -5 30 -15 30 -8 0 -15 9 -15 20 0 11 7 20 15 20 8 0 15 9 15 20 0 11 -7
20 -15 20 -8 0 -15 9 -15 20 0 11 7 20 15 20 10 0 15 11 15 35 0 28 4 35 20
35 16 0 20 -7 20 -35z m100 14 c7 -11 9 -27 6 -35 -4 -10 4 -14 30 -14 19 0
33 4 29 9 -8 14 16 61 31 61 20 0 26 -18 13 -42 -9 -16 -9 -23 0 -26 14 -5 15
-42 1 -42 -5 0 -10 -9 -10 -20 0 -11 5 -20 10 -20 6 0 10 -9 10 -20 0 -11 -4
-20 -9 -20 -6 0 -11 -24 -13 -52 -3 -45 -6 -53 -23 -53 -17 0 -20 8 -23 48 -2
33 -7 47 -18 47 -7 0 -14 -4 -14 -10 0 -15 -61 -80 -75 -80 -28 0 -26 21 4 49
34 31 40 51 16 51 -8 0 -15 9 -15 20 0 11 7 20 15 20 8 0 15 9 15 20 0 11 -7
20 -15 20 -8 0 -15 9 -15 20 0 11 7 20 15 20 14 0 14 3 -1 25 -8 13 -13 29 -9
35 10 17 34 11 45 -11z"/>
<path d="M1007 1193 c-13 -12 -7 -33 8 -33 8 0 15 9 15 20 0 20 -11 26 -23 13z"/>
<path d="M648 939 c-21 -12 -24 -59 -6 -77 19 -19 66 -15 78 7 14 28 13 38
-10 61 -22 22 -37 24 -62 9z"/>
<path d="M1208 939 c-21 -12 -24 -59 -6 -77 19 -19 66 -15 78 7 14 28 13 38
-10 61 -22 22 -37 24 -62 9z"/>
<path d="M642 788 c-20 -20 -14 -66 9 -79 44 -23 93 26 69 71 -12 23 -58 28
-78 8z"/>
<path d="M782 788 c-28 -28 -3 -88 37 -88 10 0 26 9 36 20 27 30 10 74 -30 78
-17 2 -36 -3 -43 -10z"/>
<path d="M922 788 c-20 -20 -14 -66 9 -79 44 -23 93 26 69 71 -12 23 -58 28
-78 8z"/>
<path d="M1062 788 c-18 -18 -15 -53 6 -71 24 -22 45 -21 65 1 34 37 15 82
-33 82 -14 0 -31 -5 -38 -12z"/>
<path d="M1202 788 c-20 -20 -14 -66 9 -79 44 -23 93 26 69 71 -12 23 -58 28
-78 8z"/>
<path d="M756 644 c-9 -8 -16 -24 -16 -34 0 -46 20 -50 220 -50 158 0 191 3
204 16 21 21 20 47 -2 67 -27 25 -382 25 -406 1z"/>
</g>
</svg>
