<?xml version="1.0" standalone="no"?>
<!DOCTYPE svg PUBLIC "-//W3C//DTD SVG 20010904//EN"
 "http://www.w3.org/TR/2001/REC-SVG-20010904/DTD/svg10.dtd">
<svg version="1.0" xmlns="http://www.w3.org/2000/svg"
 width="192.000000pt" height="192.000000pt" viewBox="0 0 192.000000 192.000000"
 preserveAspectRatio="xMidYMid meet">
<metadata>
Created by potrace 1.16, written by Peter Selinger 2001-2019
</metadata>
<g transform="translate(0.000000,192.000000) scale(0.100000,-0.100000)"
fill="#000000" stroke="none">
811 c445 -92 729 -532 635 -987 -62 -301 -295 -546 -601 -630 -91 -26 -329
-26 -420 0 -291 80 -516 305 -596 596 -26 91 -26 329 0 420 120 433 542 692
982 601z"/>
<path d="M867 1360 c-117 -20 -238 -113 -293 -225 -27 -55 -29 -69 -29 -170 0
-100 3 -115 28 -166 80 -164 219 -238 443 -239 77 0 95 3 118 21 29 23 33 46
12 75 -13 17 -31 20 -153 24 -155 7 -191 19 -259 87 -107 107 -107 289 0 396
55 55 110 79 192 85 61 4 80 1 125 -20 73 -33 109 -66 144 -130 l30 -53 5
-228 c5 -212 6 -230 24 -243 27 -19 50 -18 70 5 15 17 17 44 14 257 -3 235 -3
240 -30 296 -55 119 -173 207 -303 228 -67 11 -70 11 -138 0z"/>
</g>
</svg>
