<?xml version="1.0" standalone="no"?>
<!DOCTYPE svg PUBLIC "-//W3C//DTD SVG 20010904//EN"
 "http://www.w3.org/TR/2001/REC-SVG-20010904/DTD/svg10.dtd">
<svg version="1.0" xmlns="http://www.w3.org/2000/svg"
 width="192.000000pt" height="192.000000pt" viewBox="0 0 192.000000 192.000000"
 preserveAspectRatio="xMidYMid meet">
<metadata>
Created by potrace 1.16, written by Peter Selinger 2001-2019
</metadata>
<g transform="translate(0.000000,192.000000) scale(0.100000,-0.100000)"
fill="#000000" stroke="none">
811 c445 -92 729 -532 635 -987 -62 -301 -295 -546 -601 -630 -91 -26 -329
-26 -420 0 -291 80 -516 305 -596 596 -26 91 -26 329 0 420 120 433 542 692
982 601z"/>
<path d="M650 1302 c-19 -9 -45 -32 -57 -51 -22 -32 -23 -43 -23 -216 0 -173
1 -184 23 -216 36 -55 76 -69 195 -69 l102 0 0 -30 c0 -29 0 -29 -66 -32 -74
-3 -99 -21 -78 -56 10 -15 31 -17 209 -17 178 0 199 2 209 18 21 34 -4 52 -78
55 -66 3 -66 3 -66 32 l0 30 103 0 c118 0 158 14 194 69 22 32 23 43 23 216 0
173 -1 184 -23 216 -44 66 -60 69 -362 69 -237 0 -274 -2 -305 -18z m101 -222
c22 -12 26 -59 7 -78 -7 -7 -21 -12 -33 -12 -29 0 -45 19 -45 52 0 39 34 57
71 38z m151 -2 c24 -20 28 -44 12 -67 -17 -23 -53 -28 -72 -9 -18 18 -15 65 6
77 23 14 35 13 54 -1z m160 -5 c40 -36 7 -92 -48 -79 -32 8 -42 50 -19 76 22
24 43 25 67 3z m149 7 c22 -12 26 -59 7 -78 -7 -7 -21 -12 -33 -12 -29 0 -45
19 -45 52 0 39 34 57 71 38z"/>
</g>
</svg>
