<?xml version="1.0" standalone="no"?>
<!DOCTYPE svg PUBLIC "-//W3C//DTD SVG 20010904//EN"
 "http://www.w3.org/TR/2001/REC-SVG-20010904/DTD/svg10.dtd">
<svg version="1.0" xmlns="http://www.w3.org/2000/svg"
 width="192.000000pt" height="192.000000pt" viewBox="0 0 192.000000 192.000000"
 preserveAspectRatio="xMidYMid meet">
<metadata>
Created by potrace 1.16, written by Peter Selinger 2001-2019
</metadata>
<g transform="translate(0.000000,192.000000) scale(0.100000,-0.100000)"
fill="#000000" stroke="none">
811 c445 -92 729 -532 635 -987 -62 -301 -295 -546 -601 -630 -91 -26 -329
-26 -420 0 -291 80 -516 305 -596 596 -26 91 -26 329 0 420 120 433 542 692
982 601z"/>
<path d="M855 1366 c-147 -36 -261 -151 -301 -300 -61 -229 97 -467 337 -505
269 -43 511 199 468 468 -38 239 -271 395 -504 337z m73 -102 c2 -17 -7 -25
-55 -42 -78 -29 -126 -71 -160 -140 -51 -104 -30 -225 51 -304 52 -51 100 -71
177 -76 119 -7 216 57 264 174 27 66 57 81 63 32 8 -69 -81 -189 -177 -235
-78 -39 -190 -39 -271 -2 -68 32 -122 84 -158 152 -23 45 -27 63 -27 142 0 72
5 100 22 138 30 64 110 141 175 166 64 25 92 23 96 -5z m153 2 c42 -18 97 -58
115 -85 31 -44 -24 -72 -62 -30 -10 12 -31 27 -46 35 l-26 14 -4 -140 c-3
-137 -3 -140 -31 -167 -22 -22 -37 -28 -73 -28 -39 0 -50 5 -75 33 -62 69 -20
172 70 172 l41 0 0 98 c0 54 3 102 7 105 11 11 48 8 84 -7z"/>
</g>
</svg>
