<?xml version="1.0" standalone="no"?>
<!DOCTYPE svg PUBLIC "-//W3C//DTD SVG 20010904//EN"
 "http://www.w3.org/TR/2001/REC-SVG-20010904/DTD/svg10.dtd">
<svg version="1.0" xmlns="http://www.w3.org/2000/svg"
 width="192.000000pt" height="192.000000pt" viewBox="0 0 192.000000 192.000000"
 preserveAspectRatio="xMidYMid meet">
<metadata>
Created by potrace 1.16, written by Peter Selinger 2001-2019
</metadata>
<g transform="translate(0.000000,192.000000) scale(0.100000,-0.100000)"
fill="#000000" stroke="none">
811 c445 -92 729 -532 635 -987 -62 -301 -295 -546 -601 -630 -91 -26 -329
-26 -420 0 -291 80 -516 305 -596 596 -26 91 -26 329 0 420 120 433 542 692
982 601z"/>
<path d="M738 1316 c-72 -13 -115 -42 -144 -99 -25 -48 -39 -243 -26 -368 12
-118 25 -153 71 -192 56 -47 89 -52 331 -52 252 1 277 6 323 66 34 46 46 94
53 220 6 96 5 111 -15 151 -14 29 -34 52 -60 66 -37 21 -51 22 -279 22 -200 0
-242 2 -252 15 -7 8 -10 22 -6 30 5 13 39 15 231 15 149 0 225 4 225 10 0 21
-39 85 -59 98 -51 30 -268 40 -393 18z m478 -370 c3 -8 2 -34 -3 -58 -7 -37
-12 -43 -33 -43 -20 0 -26 7 -32 35 -12 56 -3 80 33 80 16 0 32 -6 35 -14z"/>
</g>
</svg>
