<?xml version="1.0" standalone="no"?>
<!DOCTYPE svg PUBLIC "-//W3C//DTD SVG 20010904//EN"
 "http://www.w3.org/TR/2001/REC-SVG-20010904/DTD/svg10.dtd">
<svg version="1.0" xmlns="http://www.w3.org/2000/svg"
 width="192.000000pt" height="192.000000pt" viewBox="0 0 192.000000 192.000000"
 preserveAspectRatio="xMidYMid meet">
<metadata>
Created by potrace 1.16, written by Peter Selinger 2001-2019
</metadata>
<g transform="translate(0.000000,192.000000) scale(0.100000,-0.100000)"
fill="#000000" stroke="none">
811 c445 -92 729 -532 635 -987 -62 -301 -295 -546 -601 -630 -91 -26 -329
-26 -420 0 -291 80 -516 305 -596 596 -26 91 -26 329 0 420 120 433 542 692
982 601z"/>
<path d="M695 1321 c-48 -22 -79 -54 -100 -103 -12 -30 -15 -81 -15 -256 0
-206 1 -220 23 -262 13 -26 40 -57 65 -75 l44 -30 243 0 243 0 44 30 c25 18
52 49 66 75 21 42 22 56 22 262 0 233 -5 265 -53 317 -50 54 -83 61 -322 61
-193 0 -225 -3 -260 -19z m525 -170 c18 -35 12 -60 -20 -76 -44 -23 -75 -19
-89 11 -14 31 -2 50 44 70 41 18 53 17 65 -5z m-130 -40 c0 -5 -7 -12 -15 -15
-14 -5 -14 -9 0 -35 18 -35 18 -41 5 -41 -6 0 -17 15 -25 33 -12 28 -11 34 2
50 17 18 33 22 33 8z m-60 -32 c14 -26 3 -40 -50 -64 -34 -15 -39 -21 -34 -41
11 -42 -12 -26 -36 26 -13 27 -22 52 -19 54 2 2 22 13 44 24 51 27 81 27 95 1z
m237 -36 c6 -16 -107 -67 -120 -54 -13 13 -1 28 41 51 40 21 73 22 79 3z
m-369 -45 c23 -28 17 -51 -17 -75 -45 -30 -67 -29 -85 5 -17 33 -12 45 29 66
36 19 59 20 73 4z m219 -25 c5 -15 -94 -66 -113 -59 -25 10 -15 25 34 50 49
27 73 29 79 9z m-434 -35 c-26 -12 -28 -26 -11 -63 14 -30 23 -31 66 -5 28 17
33 25 28 45 -4 14 -2 25 4 25 13 0 24 -45 15 -60 -10 -17 -93 -50 -108 -44 -8
3 -21 20 -30 40 -16 33 -16 35 3 54 11 11 28 20 38 19 13 0 12 -3 -5 -11z
m282 -38 c0 -16 -78 -59 -107 -60 -34 0 -18 30 30 54 51 27 77 29 77 6z m-151
-81 c-9 -16 -104 -60 -114 -54 -22 13 -7 32 43 57 36 18 56 23 64 16 7 -6 10
-14 7 -19z"/>
<path d="M1148 1134 c-32 -17 -33 -23 -15 -48 13 -17 15 -17 45 -2 33 17 36
23 26 50 -8 20 -21 20 -56 0z"/>
<path d="M942 1062 c-28 -15 -31 -20 -20 -35 12 -15 16 -15 52 6 22 12 40 27
40 32 1 17 -37 15 -72 -3z"/>
<path d="M821 973 c-20 -16 -20 -20 -7 -38 14 -19 15 -19 50 -2 32 15 35 20
26 37 -13 25 -41 26 -69 3z"/>
</g>
</svg>
