<?xml version="1.0" standalone="no"?>
<!DOCTYPE svg PUBLIC "-//W3C//DTD SVG 20010904//EN"
 "http://www.w3.org/TR/2001/REC-SVG-20010904/DTD/svg10.dtd">
<svg version="1.0" xmlns="http://www.w3.org/2000/svg"
 width="192.000000pt" height="192.000000pt" viewBox="0 0 192.000000 192.000000"
 preserveAspectRatio="xMidYMid meet">
<metadata>
Created by potrace 1.16, written by Peter Selinger 2001-2019
</metadata>
<g transform="translate(0.000000,192.000000) scale(0.100000,-0.100000)"
fill="#000000" stroke="none">
811 c445 -92 729 -532 635 -987 -62 -301 -295 -546 -601 -630 -91 -26 -329
-26 -420 0 -291 80 -516 305 -596 596 -26 91 -26 329 0 420 120 433 542 692
982 601z"/>
<path d="M850 1364 c-242 -65 -368 -322 -274 -560 15 -38 24 -81 24 -116 0
-32 5 -60 13 -65 6 -6 41 -13 77 -16 37 -3 86 -15 115 -29 42 -19 66 -23 150
-23 92 0 106 3 167 32 166 78 266 263 238 437 -40 246 -275 403 -510 340z m10
-224 c11 -11 20 -28 20 -37 0 -46 -79 -73 -100 -34 -16 31 -12 59 12 75 30 21
44 20 68 -4z m258 4 c24 -16 28 -44 12 -75 -21 -38 -100 -13 -100 33 0 21 34
58 53 58 7 0 23 -7 35 -16z m3 -244 c33 -18 24 -59 -25 -105 -85 -82 -197 -82
-282 0 -48 45 -58 86 -26 104 23 14 308 14 333 1z"/>
</g>
</svg>
