<?xml version="1.0" standalone="no"?>
<!DOCTYPE svg PUBLIC "-//W3C//DTD SVG 20010904//EN"
 "http://www.w3.org/TR/2001/REC-SVG-20010904/DTD/svg10.dtd">
<svg version="1.0" xmlns="http://www.w3.org/2000/svg"
 width="192.000000pt" height="192.000000pt" viewBox="0 0 192.000000 192.000000"
 preserveAspectRatio="xMidYMid meet">
<metadata>
Created by potrace 1.16, written by Peter Selinger 2001-2019
</metadata>
<g transform="translate(0.000000,192.000000) scale(0.100000,-0.100000)"
fill="#000000" stroke="none">
811 c445 -92 729 -532 635 -987 -62 -301 -295 -546 -601 -630 -91 -26 -329
-26 -420 0 -291 80 -516 305 -596 596 -26 91 -26 329 0 420 120 433 542 692
982 601z"/>
<path d="M914 1371 c-36 -16 -64 -60 -64 -103 0 -32 7 -47 35 -75 33 -33 35
-39 35 -99 0 -35 -3 -64 -6 -64 -10 0 -99 54 -106 65 -4 5 -8 22 -8 37 0 58
-73 103 -137 86 -75 -20 -100 -122 -44 -179 23 -23 38 -29 71 -29 23 0 50 5
61 11 16 8 30 5 70 -18 27 -15 50 -32 51 -38 0 -5 -21 -23 -47 -39 -43 -26
-51 -28 -79 -18 -55 20 -85 15 -122 -22 -46 -46 -48 -101 -5 -148 25 -28 36
-33 76 -33 40 0 51 5 76 33 18 20 29 43 29 62 0 26 8 36 55 65 30 19 57 35 60
35 3 0 5 -29 5 -64 0 -60 -2 -66 -35 -99 -29 -29 -35 -42 -35 -77 0 -34 6 -48
34 -76 72 -72 176 -23 176 82 0 28 -8 44 -35 71 -33 33 -35 39 -35 99 0 35 2
64 4 64 8 0 80 -43 99 -58 9 -8 17 -27 17 -41 0 -34 23 -67 62 -87 68 -35 148
18 148 99 -1 83 -78 130 -155 95 -22 -10 -32 -8 -68 12 -75 41 -75 44 -13 79
44 26 59 30 75 22 11 -6 38 -11 61 -11 119 0 140 177 25 209 -67 18 -135 -32
-135 -101 0 -22 -10 -32 -54 -57 -29 -17 -56 -31 -60 -31 -3 0 -6 28 -6 61 0
58 2 64 35 96 30 29 35 41 35 78 0 78 -78 135 -146 106z"/>
</g>
</svg>
