<?xml version="1.0" standalone="no"?>
<!DOCTYPE svg PUBLIC "-//W3C//DTD SVG 20010904//EN"
 "http://www.w3.org/TR/2001/REC-SVG-20010904/DTD/svg10.dtd">
<svg version="1.0" xmlns="http://www.w3.org/2000/svg"
 width="192.000000pt" height="192.000000pt" viewBox="0 0 192.000000 192.000000"
 preserveAspectRatio="xMidYMid meet">
<metadata>
Created by potrace 1.16, written by Peter Selinger 2001-2019
</metadata>
<g transform="translate(0.000000,192.000000) scale(0.100000,-0.100000)"
fill="#000000" stroke="none">
811 c445 -92 729 -532 635 -987 -62 -301 -295 -546 -601 -630 -91 -26 -329
-26 -420 0 -291 80 -516 305 -596 596 -26 91 -26 329 0 420 120 433 542 692
982 601z"/>
<path d="M910 1362 c-69 -34 -81 -113 -25 -169 33 -33 35 -39 35 -104 l0 -68
-60 36 c-47 28 -60 41 -60 60 0 58 -46 103 -105 103 -82 0 -130 -83 -91 -159
24 -46 101 -67 146 -39 16 10 26 8 62 -12 87 -47 86 -44 22 -80 -51 -30 -60
-32 -89 -22 -54 20 -84 15 -121 -22 -58 -58 -42 -141 33 -173 63 -26 143 22
143 87 0 15 8 34 18 42 18 15 90 58 98 58 2 0 4 -30 4 -67 0 -62 -2 -68 -31
-92 -24 -20 -32 -37 -36 -72 -5 -41 -2 -50 25 -80 26 -29 37 -34 77 -34 40 0
51 5 76 33 43 48 41 102 -6 149 -33 33 -35 39 -35 99 0 35 3 64 6 64 3 0 30
-15 60 -32 40 -25 54 -38 54 -56 0 -39 29 -83 67 -98 69 -29 143 21 143 98 0
32 -7 47 -34 74 -36 36 -57 40 -116 23 -33 -10 -42 -8 -94 21 l-57 33 58 34
c52 32 61 34 89 24 65 -24 114 -10 139 39 53 102 -42 198 -144 145 -28 -14
-47 -48 -53 -93 -2 -17 -20 -34 -60 -58 l-58 -33 0 68 c0 65 2 71 35 104 28
28 35 43 35 74 0 47 -22 81 -66 99 -42 18 -42 18 -84 -4z"/>
</g>
</svg>
