<?xml version="1.0" standalone="no"?>
<!DOCTYPE svg PUBLIC "-//W3C//DTD SVG 20010904//EN"
 "http://www.w3.org/TR/2001/REC-SVG-20010904/DTD/svg10.dtd">
<svg version="1.0" xmlns="http://www.w3.org/2000/svg"
 width="192.000000pt" height="192.000000pt" viewBox="0 0 192.000000 192.000000"
 preserveAspectRatio="xMidYMid meet">
<metadata>
Created by potrace 1.16, written by Peter Selinger 2001-2019
</metadata>
<g transform="translate(0.000000,192.000000) scale(0.100000,-0.100000)"
fill="#000000" stroke="none">
811 c445 -92 729 -532 635 -987 -62 -301 -295 -546 -601 -630 -91 -26 -329
-26 -420 0 -291 80 -516 305 -596 596 -26 91 -26 329 0 420 120 433 542 692
982 601z"/>
<path d="M701 1344 c-59 -30 -89 -69 -117 -154 -16 -45 -19 -86 -19 -225 0
-151 3 -177 23 -236 55 -158 189 -208 368 -136 156 64 348 208 388 291 21 44
20 119 0 162 -22 46 -140 154 -229 210 -180 111 -310 139 -414 88z m185 -275
c32 -30 32 -59 0 -59 -13 0 -29 7 -36 15 -18 21 -66 19 -90 -5 -29 -29 -26
-74 6 -99 31 -24 47 -26 77 -9 22 12 21 12 -8 18 -24 4 -30 10 -30 30 0 23 4
25 50 28 60 4 78 -13 64 -60 -12 -42 -36 -66 -79 -79 -75 -23 -160 44 -160
126 0 101 133 162 206 94z m281 -13 c28 -30 33 -43 33 -85 0 -60 -33 -105 -88
-120 -110 -31 -199 78 -147 180 41 78 142 90 202 25z"/>
<path d="M1030 1020 c-60 -60 24 -157 88 -102 32 26 37 63 12 95 -26 33 -71
36 -100 7z"/>
</g>
</svg>
