<?xml version="1.0" standalone="no"?>
<!DOCTYPE svg PUBLIC "-//W3C//DTD SVG 20010904//EN"
 "http://www.w3.org/TR/2001/REC-SVG-20010904/DTD/svg10.dtd">
<svg version="1.0" xmlns="http://www.w3.org/2000/svg"
 width="192.000000pt" height="192.000000pt" viewBox="0 0 192.000000 192.000000"
 preserveAspectRatio="xMidYMid meet">
<metadata>
Created by potrace 1.16, written by Peter Selinger 2001-2019
</metadata>
<g transform="translate(0.000000,192.000000) scale(0.100000,-0.100000)"
fill="#000000" stroke="none">
811 c445 -92 729 -532 635 -987 -62 -301 -295 -546 -601 -630 -91 -26 -329
-26 -420 0 -291 80 -516 305 -596 596 -26 91 -26 329 0 420 120 433 542 692
982 601z"/>
<path d="M1082 1175 c-62 -19 -108 -59 -134 -115 l-23 -49 -75 -3 -75 -3 -3
-37 -3 -38 54 0 c29 0 56 -3 60 -6 12 -12 -23 -64 -53 -79 -57 -29 -142 -10
-175 41 -26 41 -29 104 -6 142 41 64 102 84 183 60 34 -10 40 -9 53 8 24 32
18 51 -25 68 -113 45 -245 -4 -295 -111 -27 -56 -18 -159 19 -211 76 -110 272
-124 346 -24 l23 31 32 -35 c89 -94 255 -88 332 13 l25 32 -34 22 c-18 11 -24
18 -13 14 43 -15 55 -17 55 -7 0 6 -16 16 -35 22 -33 11 -36 10 -61 -20 -32
-37 -73 -60 -111 -60 -62 0 -133 73 -133 135 0 64 72 135 137 135 23 0 33 5
37 20 3 11 9 29 12 40 4 14 1 20 -10 20 -9 0 -16 -12 -19 -32 -4 -32 -4 -32
-5 5 -2 42 -10 44 -80 22z"/>
<path d="M1200 1134 c-7 -19 -10 -38 -7 -41 6 -5 37 50 37 67 0 24 -19 7 -30
-26z"/>
<path d="M1231 1121 c-19 -36 -19 -40 -4 -45 11 -5 27 4 47 24 19 19 25 30 16
30 -8 0 -25 -12 -38 -27 l-24 -28 21 37 c13 22 18 39 12 43 -6 3 -19 -12 -30
-34z"/>
<path d="M1275 1080 c-16 -16 -25 -30 -21 -30 13 0 66 41 66 51 0 17 -16 9
-45 -21z"/>
<path d="M1285 1049 c-16 -10 -27 -19 -24 -19 11 0 79 30 79 35 0 10 -26 3
-55 -16z"/>
<path d="M1295 1024 l-30 -15 34 6 c18 3 37 5 42 5 5 0 9 5 9 10 0 14 -19 11
-55 -6z"/>
<path d="M1320 1003 c-37 -7 -49 -23 -18 -23 33 0 58 9 58 21 0 5 -3 8 -7 8
-5 -1 -19 -4 -33 -6z"/>
<path d="M1285 960 c3 -5 21 -10 40 -10 19 0 37 5 40 10 4 6 -12 10 -40 10
-28 0 -44 -4 -40 -10z"/>
<path d="M1280 938 c0 -6 9 -9 63 -24 10 -4 17 0 17 9 0 10 -13 16 -40 19 -22
2 -40 0 -40 -4z"/>
</g>
</svg>
