<?xml version="1.0" standalone="no"?>
<!DOCTYPE svg PUBLIC "-//W3C//DTD SVG 20010904//EN"
 "http://www.w3.org/TR/2001/REC-SVG-20010904/DTD/svg10.dtd">
<svg version="1.0" xmlns="http://www.w3.org/2000/svg"
 width="192.000000pt" height="192.000000pt" viewBox="0 0 192.000000 192.000000"
 preserveAspectRatio="xMidYMid meet">
<metadata>
Created by potrace 1.16, written by Peter Selinger 2001-2019
</metadata>
<g transform="translate(0.000000,192.000000) scale(0.100000,-0.100000)"
fill="#000000" stroke="none">
811 c445 -92 729 -532 635 -987 -62 -301 -295 -546 -601 -630 -91 -26 -329
-26 -420 0 -291 80 -516 305 -596 596 -26 91 -26 329 0 420 120 433 542 692
982 601z"/>
<path d="M876 1360 c-109 -28 -246 -140 -246 -201 0 -39 32 -69 73 -69 26 0
42 9 72 41 97 101 233 117 345 42 44 -30 75 -29 105 2 52 51 22 104 -90 157
-72 33 -187 46 -259 28z"/>
<path d="M565 1025 c-35 -34 -34 -93 0 -125 82 -77 198 44 119 124 -35 35 -86
35 -119 1z"/>
<path d="M879 1029 c-26 -10 -49 -45 -49 -75 0 -8 11 -26 25 -39 24 -25 27
-25 195 -25 l171 0 -28 -51 c-46 -85 -125 -131 -224 -131 -74 0 -138 29 -194
87 -30 30 -53 45 -70 45 -33 0 -75 -42 -75 -75 0 -40 90 -129 169 -168 61 -30
72 -32 171 -32 98 0 110 2 170 32 132 65 219 190 228 326 4 65 2 74 -18 92
-20 19 -38 20 -234 22 -119 1 -222 -2 -237 -8z"/>
</g>
</svg>
