<?xml version="1.0" standalone="no"?>
<!DOCTYPE svg PUBLIC "-//W3C//DTD SVG 20010904//EN"
 "http://www.w3.org/TR/2001/REC-SVG-20010904/DTD/svg10.dtd">
<svg version="1.0" xmlns="http://www.w3.org/2000/svg"
 width="192.000000pt" height="192.000000pt" viewBox="0 0 192.000000 192.000000"
 preserveAspectRatio="xMidYMid meet">
<metadata>
Created by potrace 1.16, written by Peter Selinger 2001-2019
</metadata>
<g transform="translate(0.000000,192.000000) scale(0.100000,-0.100000)"
fill="#000000" stroke="none">
811 c445 -92 729 -532 635 -987 -62 -301 -295 -546 -601 -630 -91 -26 -329
-26 -420 0 -291 80 -516 305 -596 596 -26 91 -26 329 0 420 120 433 542 692
982 601z"/>
<path d="M892 1324 c-63 -17 -147 -68 -186 -115 -33 -38 -86 -145 -86 -171 0
-13 -8 -18 -29 -18 -34 0 -54 -20 -53 -57 0 -29 33 -63 62 -63 11 0 21 -14 29
-42 29 -100 108 -189 209 -236 49 -23 70 -27 152 -27 84 0 103 3 157 29 110
51 197 164 224 294 9 45 8 57 -5 78 l-16 24 -300 0 c-341 0 -326 -5 -271 83
36 56 113 103 185 112 28 4 59 14 69 23 40 36 4 103 -55 101 -18 0 -57 -7 -86
-15z m338 -438 c0 -7 -15 -35 -32 -62 -108 -160 -339 -147 -431 24 l-28 52
245 0 c203 0 246 -2 246 -14z"/>
</g>
</svg>
