<?xml version="1.0" standalone="no"?>
<!DOCTYPE svg PUBLIC "-//W3C//DTD SVG 20010904//EN"
 "http://www.w3.org/TR/2001/REC-SVG-20010904/DTD/svg10.dtd">
<svg version="1.0" xmlns="http://www.w3.org/2000/svg"
 width="192.000000pt" height="192.000000pt" viewBox="0 0 192.000000 192.000000"
 preserveAspectRatio="xMidYMid meet">
<metadata>
Created by potrace 1.16, written by Peter Selinger 2001-2019
</metadata>
<g transform="translate(0.000000,192.000000) scale(0.100000,-0.100000)"
fill="#000000" stroke="none">
811 c445 -92 729 -532 635 -987 -62 -301 -295 -546 -601 -630 -91 -26 -329
-26 -420 0 -291 80 -516 305 -596 596 -26 91 -26 329 0 420 120 433 542 692
982 601z"/>
<path d="M1153 1173 c-3 -15 -2 -43 4 -64 7 -27 6 -41 -3 -54 -11 -15 -14 -14
-29 15 -19 37 -75 64 -115 55 -15 -3 -40 -19 -55 -35 -23 -24 -28 -39 -28 -76
0 -40 4 -51 31 -76 24 -21 43 -28 72 -28 38 0 40 2 40 29 0 27 -3 30 -37 33
-36 3 -38 5 -41 40 -3 32 1 40 22 50 22 9 29 8 46 -7 16 -14 20 -31 20 -81 0
-61 1 -63 26 -60 16 2 30 13 40 32 28 55 38 58 64 22 l23 -33 -25 23 c-28 26
-38 28 -38 8 0 -42 101 -72 151 -46 24 13 49 61 49 95 0 65 -68 124 -129 110
-24 -5 -26 -3 -26 32 0 34 -3 38 -27 40 -23 1 -29 -3 -35 -24z m135 -119 c24
-17 29 -53 10 -72 -19 -19 -56 -14 -70 8 -7 11 -20 20 -28 20 -10 0 -3 11 18
30 37 35 40 35 70 14z"/>
<path d="M604 1161 c-60 -36 -81 -127 -44 -188 25 -41 68 -63 124 -63 63 0
104 37 112 102 6 44 5 47 -18 53 -36 9 -91 2 -96 -12 -2 -9 10 -13 42 -13 25
0 46 -3 46 -8 0 -4 -20 -6 -45 -4 -28 3 -45 0 -45 -7 0 -6 12 -11 26 -11 19 0
25 -5 22 -17 -5 -28 -79 -30 -103 -3 -28 31 -25 88 6 112 20 17 33 19 82 14
35 -3 57 -2 57 4 0 6 -5 10 -11 10 -8 0 -8 4 0 14 30 36 -100 51 -155 17z m7
-198 c13 -16 12 -17 -3 -4 -10 7 -18 15 -18 17 0 8 8 3 21 -13z"/>
<path d="M835 1095 c-22 -22 -25 -32 -25 -104 0 -76 1 -80 23 -78 31 2 37 14
37 79 0 47 4 59 20 68 11 6 20 7 20 3 0 -4 9 3 21 15 26 29 17 42 -32 42 -29
0 -47 -7 -64 -25z"/>
<path d="M652 798 l3 -73 40 0 40 0 0 70 0 70 -43 3 -43 3 3 -73z m58 -3 c0
-24 -5 -35 -15 -35 -10 0 -15 11 -15 35 0 24 5 35 15 35 10 0 15 -11 15 -35z"/>
<path d="M764 856 c-3 -7 -4 -39 -2 -71 3 -65 24 -87 34 -36 8 38 22 40 26 4
6 -55 23 -26 26 45 l3 72 -41 0 c-25 0 -43 -5 -46 -14z m56 -36 c0 -5 -4 -10
-10 -10 -5 0 -10 5 -10 10 0 6 5 10 10 10 6 0 10 -4 10 -10z"/>
<path d="M876 855 c-12 -32 -6 -112 9 -125 21 -17 27 3 23 75 -3 57 -19 82
-32 50z"/>
<path d="M936 862 c-6 -10 22 -123 34 -136 17 -17 37 14 50 74 7 33 10 64 6
68 -11 10 -36 -28 -37 -57 -1 -21 -3 -19 -13 13 -12 39 -29 55 -40 38z"/>
<path d="M1062 798 l3 -73 40 0 c48 0 58 28 13 33 -32 4 -38 22 -8 22 11 0 20
7 20 15 0 8 -9 15 -20 15 -11 0 -20 5 -20 10 0 6 8 10 19 10 21 0 45 23 34 33
-3 4 -24 7 -45 7 l-39 0 3 -72z"/>
<path d="M1174 857 c-9 -23 0 -132 11 -132 6 0 11 12 13 28 2 15 9 27 17 27 8
0 15 -12 17 -27 6 -55 23 -22 23 45 l0 67 -38 3 c-25 2 -39 -1 -43 -11z m56
-31 c0 -11 -19 -15 -25 -6 -3 5 1 10 9 10 9 0 16 -2 16 -4z"/>
</g>
</svg>
