<?xml version="1.0" standalone="no"?>
<!DOCTYPE svg PUBLIC "-//W3C//DTD SVG 20010904//EN"
 "http://www.w3.org/TR/2001/REC-SVG-20010904/DTD/svg10.dtd">
<svg version="1.0" xmlns="http://www.w3.org/2000/svg"
 width="192.000000pt" height="192.000000pt" viewBox="0 0 192.000000 192.000000"
 preserveAspectRatio="xMidYMid meet">
<metadata>
Created by potrace 1.16, written by Peter Selinger 2001-2019
</metadata>
<g transform="translate(0.000000,192.000000) scale(0.100000,-0.100000)"
fill="#000000" stroke="none">
811 c445 -92 729 -532 635 -987 -62 -301 -295 -546 -601 -630 -91 -26 -329
-26 -420 0 -291 80 -516 305 -596 596 -26 91 -26 329 0 420 120 433 542 692
982 601z"/>
<path d="M870 1366 c-259 -58 -396 -332 -286 -572 35 -77 116 -158 195 -197
62 -30 73 -32 171 -32 97 0 110 2 172 32 93 44 151 100 196 191 36 73 37 80
37 181 0 99 -2 110 -32 172 -59 120 -178 208 -310 229 -70 12 -73 12 -143 -4z
m268 -326 l-5 -49 25 19 c30 24 53 25 91 5 32 -16 41 -33 41 -78 -1 -48 -40
-87 -89 -87 -24 0 -79 45 -68 56 4 4 18 -3 31 -15 16 -15 32 -21 48 -18 22 4
22 4 -3 6 -28 1 -67 36 -55 48 4 5 12 0 17 -10 25 -43 93 -1 69 43 -18 33 -54
25 -94 -22 -20 -24 -36 -36 -36 -28 1 27 55 81 90 90 34 8 34 8 6 9 -21 1 -38
-9 -62 -35 -19 -19 -34 -29 -34 -21 0 7 3 17 7 20 4 4 5 32 4 62 -2 38 1 55
10 55 8 0 10 -15 7 -50z m32 15 c0 -13 -4 -27 -10 -30 -6 -4 -10 8 -10 30 0
22 4 34 10 30 6 -3 10 -17 10 -30z m-395 10 c23 -10 25 -14 11 -14 -20 -1 -20
-1 0 -16 17 -13 14 -14 -32 -8 -47 5 -52 3 -73 -23 -23 -29 -22 -63 1 -91 14
-18 73 -16 88 2 11 13 8 15 -14 15 -41 0 -31 20 12 22 l37 1 -37 4 c-53 6 -47
23 7 23 43 0 45 -1 45 -30 0 -84 -77 -127 -150 -83 -77 45 -69 163 13 198 40
18 54 18 92 0z m165 -45 c11 -7 7 -10 -20 -11 -24 -1 -28 -3 -12 -6 12 -2 22
-8 22 -13 0 -5 -10 -10 -22 -12 -20 -3 -23 -10 -26 -60 -2 -32 -7 -58 -12 -58
-6 0 -11 26 -12 58 l-2 57 -3 -57 c-2 -32 -8 -58 -13 -58 -16 0 -12 98 5 130
19 36 63 50 95 30z m135 -15 c21 -20 25 -34 25 -85 0 -53 -2 -60 -20 -60 -17
0 -20 7 -20 49 0 54 -15 74 -52 69 -19 -2 -23 -9 -23 -38 0 -32 3 -35 33 -38
40 -4 43 -22 3 -22 -37 0 -61 23 -61 58 0 38 12 53 51 62 32 7 32 8 7 9 -36 1
-68 -31 -68 -69 0 -39 31 -70 71 -70 17 0 28 -4 24 -10 -12 -20 -57 -10 -86
19 -20 20 -29 39 -29 61 0 22 9 41 29 61 38 37 82 39 116 4z"/>
<path d="M723 1053 c9 -2 23 -2 30 0 6 3 -1 5 -18 5 -16 0 -22 -2 -12 -5z"/>
<path d="M660 1025 c-13 -14 -22 -26 -19 -28 2 -1 16 10 31 25 15 15 23 28 19
28 -4 0 -18 -11 -31 -25z"/>
<path d="M640 937 c0 -17 20 -45 37 -51 16 -5 16 -5 2 6 -8 7 -21 22 -27 33
-6 11 -12 16 -12 12z"/>
<path d="M777 893 c-4 -3 -24 -9 -44 -13 -36 -7 -36 -8 -7 -9 16 0 39 6 50 14
10 8 16 15 13 15 -3 0 -9 -3 -12 -7z"/>
<path d="M1062 978 c7 -15 15 -23 17 -17 2 6 -4 18 -13 27 -15 15 -15 15 -4
-10z"/>
</g>
</svg>
