<?xml version="1.0" standalone="no"?>
<!DOCTYPE svg PUBLIC "-//W3C//DTD SVG 20010904//EN"
 "http://www.w3.org/TR/2001/REC-SVG-20010904/DTD/svg10.dtd">
<svg version="1.0" xmlns="http://www.w3.org/2000/svg"
 width="192.000000pt" height="192.000000pt" viewBox="0 0 192.000000 192.000000"
 preserveAspectRatio="xMidYMid meet">
<metadata>
Created by potrace 1.16, written by Peter Selinger 2001-2019
</metadata>
<g transform="translate(0.000000,192.000000) scale(0.100000,-0.100000)"
fill="#000000" stroke="none">
811 c445 -92 729 -532 635 -987 -62 -301 -295 -546 -601 -630 -91 -26 -329
-26 -420 0 -291 80 -516 305 -596 596 -26 91 -26 329 0 420 120 433 542 692
982 601z"/>
<path d="M887 1370 c-77 -13 -168 -62 -225 -120 -234 -238 -107 -625 227 -691
123 -24 261 22 357 117 59 60 72 104 35 124 -31 16 -37 13 -88 -41 -26 -28
-70 -63 -98 -77 -43 -23 -62 -27 -140 -27 -75 0 -97 4 -135 24 -61 32 -116 86
-148 146 -23 43 -27 62 -27 140 0 78 4 97 27 141 32 60 94 119 155 146 88 39
206 33 283 -13 l33 -20 -57 -58 c-55 -56 -67 -86 -44 -109 26 -26 54 -11 138
73 78 78 83 86 75 111 -6 15 -31 42 -58 60 -91 63 -210 91 -310 74z"/>
<path d="M882 1167 c-151 -55 -191 -260 -71 -361 115 -97 274 -64 339 69 l22
45 89 0 c77 0 90 2 99 19 14 27 13 37 -6 55 -13 14 -47 16 -218 16 -212 0
-226 -3 -226 -45 0 -35 20 -45 87 -45 35 0 63 -4 63 -8 0 -14 -43 -50 -72 -61
-58 -22 -139 26 -152 90 -11 58 46 139 98 139 51 0 85 57 54 88 -15 15 -63 14
-106 -1z"/>
<path d="M1272 888 c-7 -7 -12 -21 -12 -33 0 -12 5 -26 12 -33 7 -7 21 -12 33
-12 12 0 26 5 33 12 7 7 12 21 12 33 0 40 -50 61 -78 33z"/>
</g>
</svg>
