<?xml version="1.0" standalone="no"?>
<!DOCTYPE svg PUBLIC "-//W3C//DTD SVG 20010904//EN"
 "http://www.w3.org/TR/2001/REC-SVG-20010904/DTD/svg10.dtd">
<svg version="1.0" xmlns="http://www.w3.org/2000/svg"
 width="192.000000pt" height="192.000000pt" viewBox="0 0 192.000000 192.000000"
 preserveAspectRatio="xMidYMid meet">
<metadata>
Created by potrace 1.16, written by Peter Selinger 2001-2019
</metadata>
<g transform="translate(0.000000,192.000000) scale(0.100000,-0.100000)"
fill="#000000" stroke="none">
811 c445 -92 729 -532 635 -987 -62 -301 -295 -546 -601 -630 -91 -26 -329
-26 -420 0 -291 80 -516 305 -596 596 -26 91 -26 329 0 420 120 433 542 692
982 601z"/>
<path d="M995 1230 l-142 -141 -39 6 c-38 6 -40 5 -124 -80 -84 -85 -85 -86
-64 -103 11 -10 58 -30 103 -46 l83 -29 74 74 c40 40 77 70 81 66 4 -4 -26
-41 -66 -81 l-73 -74 32 -91 c18 -50 39 -96 47 -103 12 -9 31 5 103 77 85 84
88 89 78 117 -12 33 -18 26 181 230 l95 97 4 83 c2 46 -1 95 -7 111 l-11 27
-106 0 -107 0 -142 -140z m202 -46 c15 -24 15 -29 2 -53 -27 -48 -109 -32
-109 22 0 56 76 77 107 31z"/>
<path d="M573 855 c-24 -17 -29 -40 -14 -63 5 -8 45 -19 97 -25 l89 -12 13
-85 c8 -47 19 -91 24 -97 15 -19 42 -16 69 6 l24 19 -29 86 c-35 104 -54 126
-132 156 -82 31 -115 34 -141 15z"/>
</g>
</svg>
