<?xml version="1.0" standalone="no"?>
<!DOCTYPE svg PUBLIC "-//W3C//DTD SVG 20010904//EN"
 "http://www.w3.org/TR/2001/REC-SVG-20010904/DTD/svg10.dtd">
<svg version="1.0" xmlns="http://www.w3.org/2000/svg"
 width="192.000000pt" height="192.000000pt" viewBox="0 0 192.000000 192.000000"
 preserveAspectRatio="xMidYMid meet">
<metadata>
Created by potrace 1.16, written by Peter Selinger 2001-2019
</metadata>
<g transform="translate(0.000000,192.000000) scale(0.100000,-0.100000)"
fill="#000000" stroke="none">
811 c445 -92 729 -532 635 -987 -62 -301 -295 -546 -601 -630 -91 -26 -329
-26 -420 0 -291 80 -516 305 -596 596 -26 91 -26 329 0 420 120 433 542 692
982 601z"/>
<path d="M892 1369 c-122 -24 -230 -110 -285 -227 -30 -63 -32 -74 -32 -177 0
-103 2 -114 32 -178 39 -82 106 -150 189 -192 54 -28 67 -30 164 -30 99 0 110
2 170 32 44 22 66 28 69 20 7 -21 59 -67 75 -67 8 0 28 11 43 24 28 24 28 26
32 155 4 185 8 181 -154 181 -114 0 -126 -2 -149 -22 -54 -49 -25 -128 47
-128 l32 0 -30 -20 c-114 -75 -281 -34 -352 87 -25 42 -28 58 -28 133 0 96 16
141 72 196 47 48 88 66 160 72 54 4 70 1 118 -22 34 -17 71 -47 97 -77 33 -40
47 -49 73 -49 54 0 84 52 60 104 -38 80 -161 166 -266 186 -59 11 -77 11 -137
-1z"/>
</g>
</svg>
