<?xml version="1.0" standalone="no"?>
<!DOCTYPE svg PUBLIC "-//W3C//DTD SVG 20010904//EN"
 "http://www.w3.org/TR/2001/REC-SVG-20010904/DTD/svg10.dtd">
<svg version="1.0" xmlns="http://www.w3.org/2000/svg"
 width="192.000000pt" height="192.000000pt" viewBox="0 0 192.000000 192.000000"
 preserveAspectRatio="xMidYMid meet">
<metadata>
Created by potrace 1.16, written by Peter Selinger 2001-2019
</metadata>
<g transform="translate(0.000000,192.000000) scale(0.100000,-0.100000)"
fill="#000000" stroke="none">
811 c445 -92 729 -532 635 -987 -62 -301 -295 -546 -601 -630 -91 -26 -329
-26 -420 0 -291 80 -516 305 -596 596 -26 91 -26 329 0 420 120 433 542 692
982 601z"/>
<path d="M736 1243 c-11 -11 -6 -63 9 -100 8 -19 15 -39 15 -44 0 -5 -52 -9
-115 -9 -110 0 -115 -1 -115 -21 0 -89 146 -213 284 -241 31 -6 56 -14 56 -18
0 -3 -13 -19 -30 -35 -34 -33 -39 -70 -11 -85 28 -15 27 -15 92 47 l59 56 0
-36 c0 -35 27 -77 48 -77 25 0 41 29 44 79 4 73 28 83 28 12 0 -38 5 -56 20
-71 24 -24 30 -24 54 -7 16 12 18 26 14 123 -3 93 -8 117 -31 165 -44 90 -121
151 -264 208 -27 11 -71 28 -99 39 -29 12 -55 18 -58 15z"/>
<path d="M1228 1240 c-41 -24 -65 -185 -38 -255 20 -52 61 -104 108 -135 77
-51 82 -47 82 76 0 103 -1 106 -29 135 -20 20 -39 29 -61 29 -22 0 -31 4 -27
13 2 6 10 36 18 66 12 49 12 54 -6 67 -22 16 -25 17 -47 4z"/>
</g>
</svg>
