<?xml version="1.0" standalone="no"?>
<!DOCTYPE svg PUBLIC "-//W3C//DTD SVG 20010904//EN"
 "http://www.w3.org/TR/2001/REC-SVG-20010904/DTD/svg10.dtd">
<svg version="1.0" xmlns="http://www.w3.org/2000/svg"
 width="192.000000pt" height="192.000000pt" viewBox="0 0 192.000000 192.000000"
 preserveAspectRatio="xMidYMid meet">
<metadata>
Created by potrace 1.16, written by Peter Selinger 2001-2019
</metadata>
<g transform="translate(0.000000,192.000000) scale(0.100000,-0.100000)"
fill="#000000" stroke="none">
811 c445 -92 729 -532 635 -987 -62 -301 -295 -546 -601 -630 -91 -26 -329
-26 -420 0 -291 80 -516 305 -596 596 -26 91 -26 329 0 420 120 433 542 692
982 601z"/>
<path d="M732 1364 c-19 -13 -22 -24 -22 -75 0 -46 -3 -59 -15 -59 -17 0 -55
-35 -55 -51 0 -6 34 -46 75 -88 41 -43 75 -81 75 -85 0 -5 -32 -5 -70 -1 -80
8 -100 -1 -100 -46 0 -24 -7 -31 -37 -44 -68 -29 -72 -69 -12 -117 34 -28 40
-37 35 -61 -8 -38 25 -71 62 -63 82 16 182 28 195 23 9 -3 19 -22 22 -41 13
-66 29 -66 98 2 35 35 67 58 73 54 6 -4 30 -40 54 -80 48 -82 52 -86 85 -78
38 10 35 35 -13 124 -29 55 -41 87 -34 94 5 5 40 17 77 27 88 22 101 40 57 80
-17 17 -32 36 -32 44 0 8 27 45 59 84 32 39 63 79 69 89 13 26 -2 61 -30 69
-30 10 -38 23 -38 67 0 68 -48 87 -107 42 -33 -25 -35 -25 -54 -8 -32 29 -64
6 -90 -65 -12 -34 -25 -61 -30 -61 -5 0 -20 39 -34 88 -14 48 -30 97 -35 110
-11 26 -45 29 -72 5 -17 -15 -21 -14 -67 10 -57 32 -60 32 -89 11z m222 -324
c38 -66 72 -123 77 -125 4 -3 29 30 54 75 52 88 58 95 73 77 10 -12 -24 -79
-94 -189 l-24 -38 -120 0 c-113 0 -120 1 -120 20 0 18 8 20 99 22 l100 3 -75
128 c-41 70 -74 132 -74 138 0 5 8 9 18 9 13 0 39 -36 86 -120z"/>
</g>
</svg>
