<?xml version="1.0" standalone="no"?>
<!DOCTYPE svg PUBLIC "-//W3C//DTD SVG 20010904//EN"
 "http://www.w3.org/TR/2001/REC-SVG-20010904/DTD/svg10.dtd">
<svg version="1.0" xmlns="http://www.w3.org/2000/svg"
 width="192.000000pt" height="192.000000pt" viewBox="0 0 192.000000 192.000000"
 preserveAspectRatio="xMidYMid meet">
<metadata>
Created by potrace 1.16, written by Peter Selinger 2001-2019
</metadata>
<g transform="translate(0.000000,192.000000) scale(0.100000,-0.100000)"
fill="#000000" stroke="none">
811 c445 -92 729 -532 635 -987 -62 -301 -295 -546 -601 -630 -91 -26 -329
-26 -420 0 -291 80 -516 305 -596 596 -26 91 -26 329 0 420 120 433 542 692
982 601z"/>
<path d="M622 1304 c-19 -13 -22 -24 -22 -89 0 -91 14 -105 103 -105 92 0 97
6 97 105 0 73 -3 86 -19 95 -30 16 -133 12 -159 -6z"/>
<path d="M866 1298 c-18 -26 -22 -129 -6 -159 9 -16 22 -19 95 -19 99 0 105 5
105 97 0 89 -14 103 -105 103 -65 0 -76 -3 -89 -22z"/>
<path d="M1122 1308 c-16 -16 -16 -160 0 -176 7 -7 42 -12 88 -12 46 0 81 5
88 12 7 7 12 41 12 83 0 94 -11 105 -106 105 -41 0 -75 -5 -82 -12z"/>
<path d="M1128 1059 c-15 -8 -18 -25 -18 -94 0 -100 5 -105 103 -105 85 0 97
13 97 108 0 62 -3 73 -22 86 -26 18 -133 21 -160 5z"/>
<path d="M610 1041 c-5 -11 -10 -49 -10 -84 0 -85 13 -97 106 -97 41 0 75 5
82 12 7 7 12 42 12 88 0 46 -5 81 -12 88 -7 7 -43 12 -90 12 -66 0 -79 -3 -88
-19z"/>
<path d="M860 1041 c-16 -30 -12 -133 6 -159 13 -19 24 -22 89 -22 91 0 105
14 105 103 0 92 -6 97 -105 97 -73 0 -86 -3 -95 -19z"/>
<path d="M616 794 c-11 -11 -16 -35 -16 -80 0 -98 6 -104 98 -104 47 0 83 5
90 12 7 7 12 42 12 88 0 46 -5 81 -12 88 -19 19 -153 16 -172 -4z"/>
<path d="M867 792 c-12 -13 -17 -37 -17 -85 0 -88 10 -97 105 -97 95 0 105 9
105 99 0 90 -12 101 -107 101 -55 0 -73 -4 -86 -18z"/>
<path d="M1122 798 c-16 -16 -16 -160 0 -176 7 -7 41 -12 84 -12 94 0 104 10
104 96 0 98 -6 104 -98 104 -47 0 -83 -5 -90 -12z"/>
</g>
</svg>
