<?xml version="1.0" standalone="no"?>
<!DOCTYPE svg PUBLIC "-//W3C//DTD SVG 20010904//EN"
 "http://www.w3.org/TR/2001/REC-SVG-20010904/DTD/svg10.dtd">
<svg version="1.0" xmlns="http://www.w3.org/2000/svg"
 width="192.000000pt" height="192.000000pt" viewBox="0 0 192.000000 192.000000"
 preserveAspectRatio="xMidYMid meet">
<metadata>
Created by potrace 1.16, written by Peter Selinger 2001-2019
</metadata>
<g transform="translate(0.000000,192.000000) scale(0.100000,-0.100000)"
fill="#000000" stroke="none">
811 c445 -92 729 -532 635 -987 -62 -301 -295 -546 -601 -630 -91 -26 -329
-26 -420 0 -291 80 -516 305 -596 596 -26 91 -26 329 0 420 120 433 542 692
982 601z"/>
<path d="M603 1338 c-32 -33 -33 -37 -33 -115 0 -167 57 -467 102 -535 9 -13
41 -38 73 -57 117 -70 213 -87 311 -53 68 24 162 81 182 110 45 68 102 366
102 530 0 87 0 88 -34 121 l-34 33 -106 -12 c-99 -12 -363 -9 -486 6 -41 5
-48 3 -77 -28z m257 -393 c37 -19 46 -49 25 -81 -27 -41 -57 -50 -110 -30 -50
20 -75 48 -75 86 0 42 18 53 78 46 30 -4 67 -13 82 -21z m331 15 c27 -15 26
-70 -3 -98 -50 -46 -108 -53 -143 -17 -33 32 -34 80 -2 96 44 25 119 34 148
19z"/>
</g>
</svg>
