<?xml version="1.0" standalone="no"?>
<!DOCTYPE svg PUBLIC "-//W3C//DTD SVG 20010904//EN"
 "http://www.w3.org/TR/2001/REC-SVG-20010904/DTD/svg10.dtd">
<svg version="1.0" xmlns="http://www.w3.org/2000/svg"
 width="192.000000pt" height="192.000000pt" viewBox="0 0 192.000000 192.000000"
 preserveAspectRatio="xMidYMid meet">
<metadata>
Created by potrace 1.16, written by Peter Selinger 2001-2019
</metadata>
<g transform="translate(0.000000,192.000000) scale(0.100000,-0.100000)"
fill="#000000" stroke="none">
811 c445 -92 729 -532 635 -987 -62 -301 -295 -546 -601 -630 -91 -26 -329
-26 -420 0 -291 80 -516 305 -596 596 -26 91 -26 329 0 420 120 433 542 692
982 601z"/>
<path d="M838 1361 c-75 -24 -118 -52 -172 -112 -156 -174 -145 -438 26 -595
50 -46 98 -72 169 -90 236 -60 469 119 486 376 9 123 14 120 -223 120 l-194 0
-32 -29 c-27 -24 -33 -36 -33 -71 0 -35 6 -47 33 -71 31 -28 37 -29 128 -29
93 0 94 0 84 -21 -6 -11 -32 -34 -58 -50 -50 -31 -115 -39 -169 -18 -35 13
-90 64 -110 104 -25 46 -22 131 6 188 35 71 83 99 183 107 72 5 83 8 104 33
34 40 33 105 -1 139 -42 42 -130 50 -227 19z"/>
<path d="M1188 1351 c-28 -25 -33 -36 -33 -76 0 -40 5 -51 33 -76 58 -52 141
-29 160 44 28 105 -81 178 -160 108z"/>
</g>
</svg>
