<?xml version="1.0" standalone="no"?>
<!DOCTYPE svg PUBLIC "-//W3C//DTD SVG 20010904//EN"
 "http://www.w3.org/TR/2001/REC-SVG-20010904/DTD/svg10.dtd">
<svg version="1.0" xmlns="http://www.w3.org/2000/svg"
 width="192.000000pt" height="192.000000pt" viewBox="0 0 192.000000 192.000000"
 preserveAspectRatio="xMidYMid meet">
<metadata>
Created by potrace 1.16, written by Peter Selinger 2001-2019
</metadata>
<g transform="translate(0.000000,192.000000) scale(0.100000,-0.100000)"
fill="#000000" stroke="none">
811 c445 -92 729 -532 635 -987 -62 -301 -295 -546 -601 -630 -91 -26 -329
-26 -420 0 -291 80 -516 305 -596 596 -26 91 -26 329 0 420 120 433 542 692
982 601z"/>
<path d="M604 1316 l-34 -34 0 -101 c0 -156 22 -182 156 -189 93 -5 140 7 175
44 21 23 24 37 27 120 4 105 -6 143 -46 174 -21 17 -40 20 -134 20 l-110 0
-34 -34z m231 -120 c11 -8 16 -19 12 -30 -5 -13 -22 -16 -102 -16 -80 0 -97 3
-102 16 -11 29 25 44 102 44 44 0 78 -5 90 -14z"/>
<path d="M1028 1330 c-40 -31 -50 -69 -46 -174 3 -83 6 -97 27 -120 35 -37 82
-49 175 -44 134 7 156 33 156 189 l0 101 -34 34 -34 34 -110 0 c-94 0 -113 -3
-134 -20z m213 -76 c77 -74 24 -194 -87 -194 -54 0 -104 53 -104 109 0 106
115 157 191 85z"/>
<path d="M1140 1233 c-42 -15 -53 -70 -20 -103 28 -28 64 -25 89 6 27 34 26
50 -4 79 -24 25 -36 28 -65 18z"/>
<path d="M632 923 c-50 -25 -62 -57 -62 -174 l0 -101 34 -34 34 -34 110 0 c94
0 113 3 134 20 40 31 50 69 46 173 -3 105 -15 128 -75 153 -46 20 -179 18
-221 -3z m194 -87 c29 -29 34 -41 34 -79 0 -105 -121 -155 -193 -79 -73 77
-21 192 87 192 30 0 45 -7 72 -34z"/>
<path d="M701 794 c-27 -35 -26 -49 5 -80 19 -20 31 -24 52 -19 52 12 69 68
32 105 -28 28 -64 25 -89 -6z"/>
<path d="M1055 926 c-59 -26 -70 -49 -73 -153 -4 -104 6 -142 46 -173 21 -17
40 -20 134 -20 l110 0 34 34 34 34 0 101 c0 118 -12 150 -64 175 -42 20 -177
21 -221 2z m171 -75 c37 -22 59 -78 49 -119 -16 -66 -95 -107 -156 -82 -45 19
-69 56 -69 107 0 38 5 50 34 79 40 40 92 46 142 15z"/>
<path d="M1120 800 c-37 -37 -20 -93 32 -105 21 -5 33 -1 52 19 31 31 32 45 5
80 -25 31 -61 34 -89 6z"/>
</g>
</svg>
