<?xml version="1.0" standalone="no"?>
<!DOCTYPE svg PUBLIC "-//W3C//DTD SVG 20010904//EN"
 "http://www.w3.org/TR/2001/REC-SVG-20010904/DTD/svg10.dtd">
<svg version="1.0" xmlns="http://www.w3.org/2000/svg"
 width="192.000000pt" height="192.000000pt" viewBox="0 0 192.000000 192.000000"
 preserveAspectRatio="xMidYMid meet">
<metadata>
Created by potrace 1.16, written by Peter Selinger 2001-2019
</metadata>
<g transform="translate(0.000000,192.000000) scale(0.100000,-0.100000)"
fill="#000000" stroke="none">
811 c445 -92 729 -532 635 -987 -62 -301 -295 -546 -601 -630 -91 -26 -329
-26 -420 0 -291 80 -516 305 -596 596 -26 91 -26 329 0 420 120 433 542 692
982 601z"/>
<path d="M837 1334 c-4 -4 -7 -22 -7 -41 0 -30 -3 -33 -29 -33 -31 0 -61 -22
-61 -45 0 -34 13 -45 51 -45 l39 0 0 -45 c0 -44 -1 -45 -33 -45 -38 0 -57 -15
-57 -45 0 -30 19 -45 56 -45 30 0 33 -3 36 -36 2 -22 10 -42 21 -48 26 -17 51
5 55 48 3 35 4 36 47 36 43 0 44 -1 47 -36 6 -72 70 -72 76 0 3 33 6 36 36 36
37 0 56 15 56 45 0 30 -19 45 -58 45 -33 0 -33 0 -30 43 3 40 5 42 38 45 19 2
38 9 42 15 22 35 -6 77 -52 77 -26 0 -29 4 -32 38 -3 35 -5 37 -38 37 -33 0
-35 -2 -38 -37 -3 -38 -4 -38 -47 -38 -43 0 -44 0 -47 38 -3 33 -6 37 -33 40
-17 2 -34 0 -38 -4z m153 -209 l0 -45 -40 0 -40 0 0 45 0 45 40 0 40 0 0 -45z"/>
<path d="M562 868 c-30 -30 3 -94 89 -173 58 -54 121 -83 220 -103 161 -31
303 13 417 131 62 66 83 108 65 136 -18 28 -60 25 -85 -6 -76 -93 -135 -132
-240 -159 -124 -32 -246 10 -353 121 -62 64 -89 77 -113 53z"/>
</g>
</svg>
