<?xml version="1.0" standalone="no"?>
<!DOCTYPE svg PUBLIC "-//W3C//DTD SVG 20010904//EN"
 "http://www.w3.org/TR/2001/REC-SVG-20010904/DTD/svg10.dtd">
<svg version="1.0" xmlns="http://www.w3.org/2000/svg"
 width="192.000000pt" height="192.000000pt" viewBox="0 0 192.000000 192.000000"
 preserveAspectRatio="xMidYMid meet">
<metadata>
Created by potrace 1.16, written by Peter Selinger 2001-2019
</metadata>
<g transform="translate(0.000000,192.000000) scale(0.100000,-0.100000)"
fill="#000000" stroke="none">
811 c445 -92 729 -532 635 -987 -62 -301 -295 -546 -601 -630 -91 -26 -329
-26 -420 0 -291 80 -516 305 -596 596 -26 91 -26 329 0 420 120 433 542 692
982 601z"/>
<path d="M872 1369 c-320 -63 -440 -462 -208 -694 201 -201 536 -145 663 111
30 63 37 86 37 142 l1 67 -205 0 c-197 0 -205 -1 -205 -20 0 -14 21 -32 75
-62 41 -23 76 -46 78 -51 5 -17 -67 -71 -103 -78 -96 -18 -180 22 -216 100
-24 52 -24 100 0 152 50 109 191 138 296 60 19 -14 27 -11 108 42 49 32 87 64
87 73 0 24 -84 97 -144 125 -88 40 -174 51 -264 33z"/>
</g>
</svg>
