<?xml version="1.0" standalone="no"?>
<!DOCTYPE svg PUBLIC "-//W3C//DTD SVG 20010904//EN"
 "http://www.w3.org/TR/2001/REC-SVG-20010904/DTD/svg10.dtd">
<svg version="1.0" xmlns="http://www.w3.org/2000/svg"
 width="192.000000pt" height="192.000000pt" viewBox="0 0 192.000000 192.000000"
 preserveAspectRatio="xMidYMid meet">
<metadata>
Created by potrace 1.16, written by Peter Selinger 2001-2019
</metadata>
<g transform="translate(0.000000,192.000000) scale(0.100000,-0.100000)"
fill="#000000" stroke="none">
811 c445 -92 729 -532 635 -987 -62 -301 -295 -546 -601 -630 -91 -26 -329
-26 -420 0 -291 80 -516 305 -596 596 -26 91 -26 329 0 420 120 433 542 692
982 601z"/>
<path d="M842 1365 c-76 -21 -133 -58 -196 -125 -76 -82 -100 -147 -101 -270
0 -145 -5 -143 132 -53 l118 77 150 -52 c82 -29 153 -52 156 -52 4 0 58 54
120 121 l113 121 -23 44 c-33 61 -110 130 -187 166 -80 37 -197 47 -282 23z"/>
<path d="M1245 940 c-60 -66 -116 -122 -122 -124 -7 -3 -81 19 -164 50 l-152
54 -84 -52 c-46 -29 -96 -62 -110 -74 l-27 -21 22 -35 c33 -53 107 -117 167
-144 239 -110 514 19 579 271 16 60 19 132 8 172 -6 21 -19 10 -117 -97z"/>
</g>
</svg>
