<?xml version="1.0" standalone="no"?>
<!DOCTYPE svg PUBLIC "-//W3C//DTD SVG 20010904//EN"
 "http://www.w3.org/TR/2001/REC-SVG-20010904/DTD/svg10.dtd">
<svg version="1.0" xmlns="http://www.w3.org/2000/svg"
 width="192.000000pt" height="192.000000pt" viewBox="0 0 192.000000 192.000000"
 preserveAspectRatio="xMidYMid meet">
<metadata>
Created by potrace 1.16, written by Peter Selinger 2001-2019
</metadata>
<g transform="translate(0.000000,192.000000) scale(0.100000,-0.100000)"
fill="#000000" stroke="none">
811 c445 -92 729 -532 635 -987 -62 -301 -295 -546 -601 -630 -91 -26 -329
-26 -420 0 -291 80 -516 305 -596 596 -26 91 -26 329 0 420 120 433 542 692
982 601z"/>
<path d="M737 1192 c-163 -165 -187 -192 -187 -220 0 -36 22 -52 69 -52 l31 0
0 -132 c0 -174 4 -182 91 -186 l66 -3 6 68 c11 109 9 149 -9 164 -35 29 -45
66 -38 149 8 92 24 107 24 23 0 -106 37 -114 42 -9 4 87 26 86 30 -1 2 -52 6
-68 18 -68 12 0 16 15 18 68 5 114 32 77 32 -44 0 -59 -3 -70 -31 -105 l-31
-39 7 -95 c4 -52 9 -98 12 -102 2 -5 35 -8 73 -8 76 0 80 4 80 72 0 29 -7 49
-26 71 -25 30 -26 36 -21 107 3 41 11 91 17 111 14 48 52 104 70 104 13 0 15
-37 18 -232 l2 -233 59 0 c89 0 91 4 91 176 l0 144 38 0 c42 0 72 23 72 56 0
12 -75 95 -193 212 -148 148 -198 192 -217 192 -20 0 -69 -43 -213 -188z"/>
</g>
</svg>
