<?xml version="1.0" standalone="no"?>
<!DOCTYPE svg PUBLIC "-//W3C//DTD SVG 20010904//EN"
 "http://www.w3.org/TR/2001/REC-SVG-20010904/DTD/svg10.dtd">
<svg version="1.0" xmlns="http://www.w3.org/2000/svg"
 width="192.000000pt" height="192.000000pt" viewBox="0 0 192.000000 192.000000"
 preserveAspectRatio="xMidYMid meet">
<metadata>
Created by potrace 1.16, written by Peter Selinger 2001-2019
</metadata>
<g transform="translate(0.000000,192.000000) scale(0.100000,-0.100000)"
fill="#000000" stroke="none">
811 c445 -92 729 -532 635 -987 -62 -301 -295 -546 -601 -630 -91 -26 -329
-26 -420 0 -291 80 -516 305 -596 596 -26 91 -26 329 0 420 120 433 542 692
982 601z"/>
<path d="M833 1356 c-237 -77 -351 -344 -244 -573 117 -249 456 -307 651 -112
81 81 142 239 124 322 l-6 27 -112 0 c-122 0 -140 -6 -151 -52 -10 -40 31 -78
85 -78 l40 0 -19 -37 c-25 -51 -83 -108 -134 -135 -58 -31 -165 -31 -223 -1
-66 35 -101 70 -130 128 -23 48 -26 64 -22 127 4 82 26 135 73 183 56 55 98
70 208 71 105 0 120 6 132 55 5 19 0 33 -18 55 -23 27 -29 28 -118 31 -60 2
-109 -2 -136 -11z"/>
<path d="M818 1075 c-8 -19 -8 -28 2 -40 28 -34 86 -6 72 35 -13 37 -58 40
-74 5z"/>
<path d="M986 1084 c-29 -29 -12 -64 31 -64 19 0 43 25 43 44 0 10 -32 36 -45
36 -7 0 -21 -7 -29 -16z"/>
</g>
</svg>
