<?xml version="1.0" standalone="no"?>
<!DOCTYPE svg PUBLIC "-//W3C//DTD SVG 20010904//EN"
 "http://www.w3.org/TR/2001/REC-SVG-20010904/DTD/svg10.dtd">
<svg version="1.0" xmlns="http://www.w3.org/2000/svg"
 width="192.000000pt" height="192.000000pt" viewBox="0 0 192.000000 192.000000"
 preserveAspectRatio="xMidYMid meet">
<metadata>
Created by potrace 1.16, written by Peter Selinger 2001-2019
</metadata>
<g transform="translate(0.000000,192.000000) scale(0.100000,-0.100000)"
fill="#000000" stroke="none">
811 c445 -92 729 -532 635 -987 -62 -301 -295 -546 -601 -630 -91 -26 -329
-26 -420 0 -291 80 -516 305 -596 596 -26 91 -26 329 0 420 120 433 542 692
982 601z"/>
<path d="M915 1370 c-11 -4 -30 -18 -41 -31 -36 -41 -206 -337 -202 -354 4
-19 145 -77 168 -70 8 3 47 59 85 125 39 66 76 120 84 120 12 0 13 -22 8 -130
-4 -72 -2 -141 2 -153 7 -17 34 -34 98 -60 48 -21 96 -37 106 -37 16 0 17 20
17 279 l0 280 -26 20 c-24 19 -40 21 -153 20 -69 0 -135 -4 -146 -9z"/>
<path d="M748 763 c-30 -36 -78 -131 -78 -156 0 -55 20 -58 304 -51 216 6 256
10 254 22 -3 12 -426 201 -454 202 -6 0 -18 -8 -26 -17z"/>
</g>
</svg>
