<?xml version="1.0" standalone="no"?>
<!DOCTYPE svg PUBLIC "-//W3C//DTD SVG 20010904//EN"
 "http://www.w3.org/TR/2001/REC-SVG-20010904/DTD/svg10.dtd">
<svg version="1.0" xmlns="http://www.w3.org/2000/svg"
 width="192.000000pt" height="192.000000pt" viewBox="0 0 192.000000 192.000000"
 preserveAspectRatio="xMidYMid meet">
<metadata>
Created by potrace 1.16, written by Peter Selinger 2001-2019
</metadata>
<g transform="translate(0.000000,192.000000) scale(0.100000,-0.100000)"
fill="#000000" stroke="none">
811 c445 -92 729 -532 635 -987 -62 -301 -295 -546 -601 -630 -91 -26 -329
-26 -420 0 -291 80 -516 305 -596 596 -26 91 -26 329 0 420 120 433 542 692
982 601z"/>
<path d="M745 1361 c-47 -22 -89 -64 -104 -104 -15 -38 -15 -546 0 -584 15
-40 57 -82 104 -104 34 -16 66 -19 210 -19 184 0 224 9 272 61 49 54 53 81 53
354 0 273 -4 300 -53 354 -48 52 -88 61 -272 61 -144 0 -176 -3 -210 -19z
m379 -147 c13 -13 16 -45 16 -190 0 -198 5 -189 -85 -150 l-55 25 0 96 c0 53
-4 94 -9 91 -5 -3 -27 -38 -51 -76 -23 -39 -47 -73 -54 -76 -16 -6 -106 32
-106 45 0 6 31 61 68 123 76 125 76 125 189 127 53 1 76 -3 87 -15z m-142
-423 c177 -75 177 -75 93 -82 -38 -4 -115 -7 -170 -8 -134 -1 -148 13 -100 96
15 25 33 43 43 43 10 0 70 -22 134 -49z"/>
</g>
</svg>
