<?xml version="1.0" standalone="no"?>
<!DOCTYPE svg PUBLIC "-//W3C//DTD SVG 20010904//EN"
 "http://www.w3.org/TR/2001/REC-SVG-20010904/DTD/svg10.dtd">
<svg version="1.0" xmlns="http://www.w3.org/2000/svg"
 width="192.000000pt" height="192.000000pt" viewBox="0 0 192.000000 192.000000"
 preserveAspectRatio="xMidYMid meet">
<metadata>
Created by potrace 1.16, written by Peter Selinger 2001-2019
</metadata>
<g transform="translate(0.000000,192.000000) scale(0.100000,-0.100000)"
fill="#000000" stroke="none">
811 c445 -92 729 -532 635 -987 -62 -301 -295 -546 -601 -630 -91 -26 -329
-26 -420 0 -291 80 -516 305 -596 596 -26 91 -26 329 0 420 120 433 542 692
982 601z"/>
<path d="M695 1321 c-49 -22 -91 -69 -106 -119 -7 -24 -9 -116 -7 -259 l3
-221 30 -43 c56 -79 77 -84 340 -84 263 0 284 5 340 84 l30 43 3 221 c4 240
-1 275 -45 328 -53 62 -83 69 -328 69 -192 0 -225 -3 -260 -19z m153 -133 c3
-34 1 -38 -21 -38 -14 0 -27 7 -31 15 -3 8 -15 15 -26 15 -18 0 -20 -6 -20
-80 0 -79 0 -80 25 -80 20 0 25 5 25 25 0 16 -6 25 -15 25 -9 0 -15 9 -15 25
0 23 4 25 40 25 l41 0 -3 -72 -3 -73 -69 -3 c-49 -2 -72 1 -77 10 -14 21 -11
222 3 236 8 8 36 12 78 10 l65 -3 3 -37z m182 18 c0 -18 -6 -25 -22 -28 -22
-3 -23 -8 -26 -105 -3 -102 -3 -103 -27 -103 -24 0 -24 1 -27 103 -3 97 -4
102 -25 105 -17 3 -23 10 -23 28 0 23 2 24 75 24 73 0 75 -1 75 -24z m178 12
c8 -8 12 -52 12 -130 l0 -118 -30 0 c-29 0 -30 1 -30 50 0 47 -2 50 -25 50
-23 0 -25 -3 -25 -50 0 -47 -2 -50 -25 -50 l-25 0 0 123 c0 68 3 127 7 130 11
12 128 8 141 -5z m-298 -408 c0 -103 -1 -110 -20 -110 -19 0 -20 7 -20 110 0
103 1 110 20 110 19 0 20 -7 20 -110z m70 0 l0 -110 -25 0 -25 0 0 103 c0 57
3 107 7 110 3 4 15 7 25 7 16 0 18 -10 18 -110z m60 0 c0 -103 -1 -110 -20
-110 -19 0 -20 7 -20 110 0 103 1 110 20 110 19 0 20 -7 20 -110z"/>
<path d="M1117 1173 c-4 -3 -7 -17 -7 -30 0 -18 5 -23 25 -23 21 0 25 5 25 30
0 22 -5 30 -18 30 -10 0 -22 -3 -25 -7z"/>
</g>
</svg>
