<?xml version="1.0" standalone="no"?>
<!DOCTYPE svg PUBLIC "-//W3C//DTD SVG 20010904//EN"
 "http://www.w3.org/TR/2001/REC-SVG-20010904/DTD/svg10.dtd">
<svg version="1.0" xmlns="http://www.w3.org/2000/svg"
 width="192.000000pt" height="192.000000pt" viewBox="0 0 192.000000 192.000000"
 preserveAspectRatio="xMidYMid meet">
<metadata>
Created by potrace 1.16, written by Peter Selinger 2001-2019
</metadata>
<g transform="translate(0.000000,192.000000) scale(0.100000,-0.100000)"
fill="#000000" stroke="none">
811 c445 -92 729 -532 635 -987 -62 -301 -295 -546 -601 -630 -91 -26 -329
-26 -420 0 -291 80 -516 305 -596 596 -26 91 -26 329 0 420 120 433 542 692
982 601z"/>
<path d="M695 1325 c-46 -25 -76 -56 -96 -100 -16 -35 -19 -68 -19 -260 0
-209 1 -223 23 -265 13 -26 40 -57 65 -75 l44 -30 243 0 243 0 44 30 c25 18
52 49 66 75 21 42 22 56 22 265 0 209 -1 223 -22 265 -13 24 -40 58 -61 74
l-39 31 -241 3 c-205 2 -247 0 -272 -13z m143 -187 c3 -35 1 -38 -22 -38 -16
0 -26 6 -26 15 0 10 -10 15 -30 15 l-30 0 0 -85 0 -85 30 0 c27 0 30 3 30 30
0 20 -5 30 -15 30 -9 0 -15 9 -15 25 0 23 4 25 40 25 l40 0 0 -80 0 -81 -77 3
-78 3 -3 119 c-1 66 0 126 3 133 3 10 23 13 77 11 l73 -3 3 -37z m192 17 c0
-20 -5 -25 -25 -25 l-25 0 0 -110 0 -110 -25 0 c-24 0 -24 1 -27 108 l-3 107
-27 3 c-22 3 -28 9 -28 28 0 23 2 24 80 24 79 0 80 0 80 -25z m188 13 c8 -8
12 -53 12 -135 l0 -123 -30 0 c-30 0 -30 1 -30 55 0 52 -1 55 -25 55 -24 0
-25 -3 -25 -55 0 -54 0 -55 -30 -55 l-30 0 0 123 c0 82 4 127 12 135 7 7 39
12 73 12 34 0 66 -5 73 -12z m-511 -345 l10 -38 8 38 c4 20 11 37 16 37 11 0
11 -2 -2 -56 -13 -50 -33 -58 -43 -16 -3 15 -8 37 -12 50 -4 12 -2 22 4 22 5
0 14 -17 19 -37z m70 -40 c-2 -16 -4 -3 -4 27 0 30 2 43 4 28 2 -16 2 -40 0
-55z m83 61 c0 -11 -6 -14 -20 -9 -17 6 -20 2 -20 -30 0 -32 3 -36 20 -30 11
4 20 2 20 -4 0 -6 -13 -11 -30 -11 -29 0 -30 1 -30 50 0 49 1 50 30 50 21 0
30 -5 30 -16z m70 6 c0 -5 -9 -10 -20 -10 -11 0 -20 -4 -20 -10 0 -5 7 -10 15
-10 8 0 15 -4 15 -10 0 -5 -7 -10 -15 -10 -24 0 -17 -28 8 -33 16 -3 13 -5
-10 -6 l-33 -1 0 50 c0 49 1 50 30 50 17 0 30 -4 30 -10z m110 -5 c0 -12 -7
-14 -26 -9 -24 6 -25 5 -22 -27 2 -29 7 -34 26 -32 12 2 22 -2 22 -7 0 -6 -13
-10 -30 -10 -29 0 -30 1 -30 50 0 49 1 50 30 50 20 0 30 -5 30 -15z m30 -35
c0 -27 -4 -50 -10 -50 -5 0 -10 23 -10 50 0 28 5 50 10 50 6 0 10 -22 10 -50z
m70 40 c0 -5 -4 -10 -10 -10 -5 0 -10 -18 -10 -40 0 -22 -4 -40 -10 -40 -5 0
-10 18 -10 40 0 22 -4 40 -10 40 -5 0 -10 5 -10 10 0 6 14 10 30 10 17 0 30
-4 30 -10z m44 -7 c6 -14 8 -14 20 3 21 29 30 10 12 -25 -9 -16 -16 -38 -16
-48 -1 -10 -7 -2 -14 17 -7 19 -17 43 -21 53 -4 9 -3 17 3 17 5 0 13 -7 16
-17z"/>
<path d="M1120 1100 c0 -25 4 -30 25 -30 21 0 25 5 25 30 0 25 -4 30 -25 30
-21 0 -25 -5 -25 -30z"/>
</g>
</svg>
