<?xml version="1.0" standalone="no"?>
<!DOCTYPE svg PUBLIC "-//W3C//DTD SVG 20010904//EN"
 "http://www.w3.org/TR/2001/REC-SVG-20010904/DTD/svg10.dtd">
<svg version="1.0" xmlns="http://www.w3.org/2000/svg"
 width="192.000000pt" height="192.000000pt" viewBox="0 0 192.000000 192.000000"
 preserveAspectRatio="xMidYMid meet">
<metadata>
Created by potrace 1.16, written by Peter Selinger 2001-2019
</metadata>
<g transform="translate(0.000000,192.000000) scale(0.100000,-0.100000)"
fill="#000000" stroke="none">
811 c445 -92 729 -532 635 -987 -62 -301 -295 -546 -601 -630 -91 -26 -329
-26 -420 0 -291 80 -516 305 -596 596 -26 91 -26 329 0 420 120 433 542 692
982 601z"/>
<path d="M695 1321 c-50 -22 -91 -69 -105 -119 -14 -52 -13 -430 2 -473 17
-53 46 -87 91 -112 40 -21 53 -22 272 -22 219 0 232 1 272 22 89 48 103 94
103 347 0 217 -6 258 -47 307 -53 62 -83 69 -328 69 -192 0 -225 -3 -260 -19z
m155 -105 c17 -21 8 -60 -14 -64 -10 -2 -23 3 -28 12 -5 9 -18 16 -28 16 -18
0 -20 -7 -20 -75 0 -73 1 -75 25 -75 18 0 25 5 25 20 0 11 -7 23 -15 26 -8 4
-15 17 -15 30 0 21 4 24 40 24 l40 0 0 -59 c0 -90 -1 -91 -81 -91 l-69 0 0
118 c0 65 3 122 7 125 13 14 120 7 133 -7z m180 -11 c0 -20 -5 -25 -25 -25
l-25 0 0 -100 0 -100 -25 0 -25 0 0 100 0 100 -25 0 c-20 0 -25 5 -25 25 0 24
2 25 75 25 73 0 75 -1 75 -25z m168 -102 l3 -123 -26 0 c-23 0 -25 3 -25 51 0
47 -2 50 -22 47 -20 -3 -23 -10 -26 -50 -3 -43 -5 -48 -28 -48 l-24 0 0 113
c0 77 4 117 12 125 8 8 35 12 73 10 l60 -3 3 -122z m-274 -149 c10 -4 16 -18
16 -40 0 -30 -3 -34 -25 -34 -14 0 -25 5 -25 10 0 6 -11 10 -25 10 -18 0 -25
-5 -25 -20 0 -16 7 -20 34 -20 62 0 66 -5 66 -80 0 -76 -4 -80 -71 -80 -56 0
-79 15 -79 50 0 25 4 30 25 30 14 0 25 -4 25 -10 0 -5 11 -10 25 -10 18 0 25
5 25 20 0 16 -7 20 -31 20 -56 0 -69 14 -69 78 0 32 5 63 12 70 12 12 95 16
122 6z m185 -8 c8 -9 11 -52 9 -127 -3 -110 -4 -114 -25 -117 -21 -3 -23 0
-23 47 0 47 -2 51 -24 51 -23 0 -25 -5 -28 -47 -3 -41 -6 -48 -25 -51 -23 -3
-23 -2 -23 121 0 91 3 127 13 130 27 12 115 7 126 -7z"/>
<path d="M1107 1173 c-4 -3 -7 -15 -7 -25 0 -13 7 -18 25 -18 20 0 25 5 25 25
0 18 -5 25 -18 25 -10 0 -22 -3 -25 -7z"/>
<path d="M1020 880 c0 -15 7 -20 25 -20 18 0 25 5 25 20 0 15 -7 20 -25 20
-18 0 -25 -5 -25 -20z"/>
</g>
</svg>
