<?xml version="1.0" standalone="no"?>
<!DOCTYPE svg PUBLIC "-//W3C//DTD SVG 20010904//EN"
 "http://www.w3.org/TR/2001/REC-SVG-20010904/DTD/svg10.dtd">
<svg version="1.0" xmlns="http://www.w3.org/2000/svg"
 width="192.000000pt" height="192.000000pt" viewBox="0 0 192.000000 192.000000"
 preserveAspectRatio="xMidYMid meet">
<metadata>
Created by potrace 1.16, written by Peter Selinger 2001-2019
</metadata>
<g transform="translate(0.000000,192.000000) scale(0.100000,-0.100000)"
fill="#000000" stroke="none">
811 c445 -92 729 -532 635 -987 -62 -301 -295 -546 -601 -630 -91 -26 -329
-26 -420 0 -291 80 -516 305 -596 596 -26 91 -26 329 0 420 120 433 542 692
982 601z"/>
<path d="M695 1321 c-48 -22 -79 -54 -100 -103 -12 -30 -15 -81 -15 -256 0
-210 1 -221 23 -263 13 -24 43 -57 66 -74 l43 -30 243 0 243 0 43 30 c23 17
53 50 66 74 22 42 23 53 23 263 0 233 -5 265 -53 317 -50 54 -83 61 -322 61
-193 0 -225 -3 -260 -19z m155 -146 c0 -31 -3 -35 -25 -35 -16 0 -25 6 -25 16
0 10 -7 14 -22 12 -22 -3 -23 -8 -23 -78 0 -70 1 -75 23 -78 19 -3 22 1 22 27
0 17 -4 31 -10 31 -5 0 -10 9 -10 20 0 16 7 20 35 20 l35 0 0 -69 c0 -77 -4
-81 -71 -81 -74 0 -79 8 -79 120 0 54 3 105 6 114 5 12 21 16 75 16 l69 0 0
-35z m180 15 c0 -15 -7 -20 -25 -20 -24 0 -24 -1 -27 -102 -3 -98 -4 -103 -25
-106 -22 -3 -22 0 -25 100 -3 98 -4 103 -25 106 -15 2 -23 10 -23 23 0 17 8
19 75 19 68 0 75 -2 75 -20z m170 -106 c0 -124 0 -125 -22 -122 -20 3 -23 10
-26 56 -3 48 -5 53 -25 50 -19 -3 -22 -10 -25 -56 -3 -48 -5 -53 -25 -50 -21
3 -22 8 -25 112 -1 61 0 116 2 123 4 9 27 13 76 13 l70 0 0 -126z m-370 -173
c0 -16 -8 -20 -42 -23 -35 -2 -43 -7 -43 -23 0 -15 8 -21 33 -23 45 -5 41 -36
-6 -40 -30 -3 -32 -6 -32 -43 0 -32 -3 -39 -20 -39 -19 0 -20 7 -20 105 l0
105 65 0 c58 0 65 -2 65 -19z m60 -86 c0 -98 -1 -105 -20 -105 -19 0 -20 7
-20 105 0 98 1 105 20 105 19 0 20 -7 20 -105z m80 30 c17 -72 21 -71 35 5 11
61 16 70 36 70 24 0 24 -2 -8 -115 -23 -81 -30 -95 -48 -95 -17 0 -24 13 -44
93 -13 50 -26 98 -29 105 -3 10 2 13 19 10 20 -3 26 -12 39 -73z m240 55 c0
-17 -7 -20 -46 -20 -41 0 -45 -2 -42 -22 2 -17 11 -24 31 -26 19 -2 27 -9 27
-23 0 -14 -7 -19 -30 -19 -23 0 -30 -4 -30 -20 0 -17 7 -20 45 -20 38 0 45 -3
45 -20 0 -18 -7 -20 -65 -20 l-65 0 0 105 0 105 65 0 c58 0 65 -2 65 -20z"/>
<path d="M1104 1155 c-9 -23 3 -45 26 -45 16 0 20 7 20 30 0 23 -4 30 -20 30
-11 0 -23 -7 -26 -15z"/>
</g>
</svg>
