<?xml version="1.0" standalone="no"?>
<!DOCTYPE svg PUBLIC "-//W3C//DTD SVG 20010904//EN"
 "http://www.w3.org/TR/2001/REC-SVG-20010904/DTD/svg10.dtd">
<svg version="1.0" xmlns="http://www.w3.org/2000/svg"
 width="192.000000pt" height="192.000000pt" viewBox="0 0 192.000000 192.000000"
 preserveAspectRatio="xMidYMid meet">
<metadata>
Created by potrace 1.16, written by Peter Selinger 2001-2019
</metadata>
<g transform="translate(0.000000,192.000000) scale(0.100000,-0.100000)"
fill="#000000" stroke="none">
811 c445 -92 729 -532 635 -987 -62 -301 -295 -546 -601 -630 -91 -26 -329
-26 -420 0 -291 80 -516 305 -596 596 -26 91 -26 329 0 420 120 433 542 692
982 601z"/>
<path d="M838 1357 c-64 -18 -153 -74 -195 -122 -20 -22 -50 -69 -67 -105 -28
-59 -31 -74 -31 -160 1 -122 25 -187 100 -269 237 -255 649 -139 717 202 14
73 -1 166 -40 245 -36 73 -134 163 -209 192 -71 28 -206 36 -275 17z m228
-132 c58 -24 108 -70 140 -127 25 -46 29 -63 29 -133 0 -92 -19 -136 -82 -197
-57 -55 -115 -78 -199 -78 -60 0 -81 5 -133 31 -106 53 -157 146 -149 273 11
184 218 305 394 231z"/>
<path d="M981 1015 l-87 -85 -34 35 c-42 43 -82 47 -105 11 -14 -21 -14 -28
-3 -48 23 -41 123 -128 148 -128 16 0 58 34 137 112 117 116 130 139 95 171
-35 32 -61 21 -151 -68z"/>
</g>
</svg>
