<?xml version="1.0" standalone="no"?>
<!DOCTYPE svg PUBLIC "-//W3C//DTD SVG 20010904//EN"
 "http://www.w3.org/TR/2001/REC-SVG-20010904/DTD/svg10.dtd">
<svg version="1.0" xmlns="http://www.w3.org/2000/svg"
 width="192.000000pt" height="192.000000pt" viewBox="0 0 192.000000 192.000000"
 preserveAspectRatio="xMidYMid meet">
<metadata>
Created by potrace 1.16, written by Peter Selinger 2001-2019
</metadata>
<g transform="translate(0.000000,192.000000) scale(0.100000,-0.100000)"
fill="#000000" stroke="none">
811 c445 -92 729 -532 635 -987 -62 -301 -295 -546 -601 -630 -91 -26 -329
-26 -420 0 -291 80 -516 305 -596 596 -26 91 -26 329 0 420 120 433 542 692
982 601z"/>
<path d="M802 1340 c-59 -36 -62 -57 -62 -377 0 -317 3 -333 63 -377 25 -19
43 -21 150 -21 202 0 217 18 217 254 0 183 0 183 -103 179 -63 -3 -72 -6 -91
-31 -19 -26 -19 -30 -6 -55 9 -15 26 -31 38 -37 21 -9 23 -15 20 -90 l-3 -80
-58 -3 c-35 -2 -64 2 -73 9 -11 9 -14 56 -14 246 0 142 4 242 10 254 8 15 21
19 60 19 66 0 80 -7 80 -41 0 -63 46 -108 93 -90 42 16 49 35 45 116 -3 69 -6
78 -36 108 l-32 32 -133 3 c-119 2 -135 1 -165 -18z"/>
</g>
</svg>
