<?xml version="1.0" standalone="no"?>
<!DOCTYPE svg PUBLIC "-//W3C//DTD SVG 20010904//EN"
 "http://www.w3.org/TR/2001/REC-SVG-20010904/DTD/svg10.dtd">
<svg version="1.0" xmlns="http://www.w3.org/2000/svg"
 width="192.000000pt" height="192.000000pt" viewBox="0 0 192.000000 192.000000"
 preserveAspectRatio="xMidYMid meet">
<metadata>
Created by potrace 1.16, written by Peter Selinger 2001-2019
</metadata>
<g transform="translate(0.000000,192.000000) scale(0.100000,-0.100000)"
fill="#000000" stroke="none">
811 c445 -92 729 -532 635 -987 -62 -301 -295 -546 -601 -630 -91 -26 -329
-26 -420 0 -291 80 -516 305 -596 596 -26 91 -26 329 0 420 120 433 542 692
982 601z"/>
<path d="M820 1366 c-114 -32 -198 -106 -219 -194 -32 -130 61 -385 191 -527
115 -127 211 -127 326 0 130 142 223 397 191 527 -21 90 -106 163 -224 194
-62 17 -205 17 -265 0z m209 -280 c-97 -156 -105 -310 -19 -378 36 -28 34 -40
-12 -64 -50 -26 -93 -11 -157 55 -31 32 -69 83 -86 113 l-29 56 38 56 c21 31
65 81 98 111 60 56 201 142 206 126 2 -5 -16 -38 -39 -75z"/>
</g>
</svg>
