<?xml version="1.0" standalone="no"?>
<!DOCTYPE svg PUBLIC "-//W3C//DTD SVG 20010904//EN"
 "http://www.w3.org/TR/2001/REC-SVG-20010904/DTD/svg10.dtd">
<svg version="1.0" xmlns="http://www.w3.org/2000/svg"
 width="192.000000pt" height="192.000000pt" viewBox="0 0 192.000000 192.000000"
 preserveAspectRatio="xMidYMid meet">
<metadata>
Created by potrace 1.16, written by Peter Selinger 2001-2019
</metadata>
<g transform="translate(0.000000,192.000000) scale(0.100000,-0.100000)"
fill="#000000" stroke="none">
811 c445 -92 729 -532 635 -987 -62 -301 -295 -546 -601 -630 -91 -26 -329
-26 -420 0 -291 80 -516 305 -596 596 -26 91 -26 329 0 420 120 433 542 692
982 601z"/>
<path d="M1177 1340 c-24 -19 -40 -20 -267 -20 l-242 0 -29 -29 -29 -29 0
-317 0 -317 29 -29 29 -29 277 0 c313 0 326 3 345 68 7 23 10 105 8 220 l-3
184 -33 29 -32 29 -171 0 c-235 0 -249 -8 -249 -149 0 -70 3 -83 24 -107 20
-24 32 -28 92 -32 47 -3 77 -11 93 -23 31 -25 62 -24 95 2 37 29 37 89 0 118
-31 25 -63 27 -90 6 -11 -9 -42 -14 -76 -15 l-58 0 0 55 0 55 160 0 160 0 0
-174 0 -173 -37 -7 c-50 -8 -377 -8 -437 0 l-46 7 0 283 0 284 238 0 c192 -1
241 -3 256 -15 27 -21 59 -19 90 6 20 16 26 29 26 59 0 68 -69 102 -123 60z"/>
</g>
</svg>
