<?xml version="1.0" standalone="no"?>
<!DOCTYPE svg PUBLIC "-//W3C//DTD SVG 20010904//EN"
 "http://www.w3.org/TR/2001/REC-SVG-20010904/DTD/svg10.dtd">
<svg version="1.0" xmlns="http://www.w3.org/2000/svg"
 width="192.000000pt" height="192.000000pt" viewBox="0 0 192.000000 192.000000"
 preserveAspectRatio="xMidYMid meet">
<metadata>
Created by potrace 1.16, written by Peter Selinger 2001-2019
</metadata>
<g transform="translate(0.000000,192.000000) scale(0.100000,-0.100000)"
fill="#000000" stroke="none">
811 c445 -92 729 -532 635 -987 -62 -301 -295 -546 -601 -630 -91 -26 -329
-26 -420 0 -291 80 -516 305 -596 596 -26 91 -26 329 0 420 120 433 542 692
982 601z"/>
<path d="M902 1358 c-60 -13 -135 -87 -153 -148 -7 -25 -27 -61 -44 -81 -69
-78 -81 -175 -33 -262 27 -49 90 -95 140 -103 34 -6 36 -5 48 30 14 44 10 51
-44 74 -30 14 -47 30 -60 57 -26 53 -15 94 39 149 30 30 45 54 45 71 0 34 24
80 52 99 12 9 41 16 63 16 22 0 51 -7 63 -16 28 -19 52 -65 52 -99 0 -18 14
-40 44 -70 53 -51 65 -94 43 -148 -17 -40 -52 -62 -115 -70 -94 -12 -132 -65
-132 -182 0 -91 7 -107 45 -107 40 0 49 15 53 95 4 80 16 97 66 97 46 1 109
33 143 74 72 88 69 201 -7 289 -20 23 -42 61 -49 85 -31 108 -147 175 -259
150z"/>
</g>
</svg>
