<?xml version="1.0" standalone="no"?>
<!DOCTYPE svg PUBLIC "-//W3C//DTD SVG 20010904//EN"
 "http://www.w3.org/TR/2001/REC-SVG-20010904/DTD/svg10.dtd">
<svg version="1.0" xmlns="http://www.w3.org/2000/svg"
 width="192.000000pt" height="192.000000pt" viewBox="0 0 192.000000 192.000000"
 preserveAspectRatio="xMidYMid meet">
<metadata>
Created by potrace 1.16, written by Peter Selinger 2001-2019
</metadata>
<g transform="translate(0.000000,192.000000) scale(0.100000,-0.100000)"
fill="#000000" stroke="none">
811 c445 -92 729 -532 635 -987 -62 -301 -295 -546 -601 -630 -91 -26 -329
-26 -420 0 -291 80 -516 305 -596 596 -26 91 -26 329 0 420 120 433 542 692
982 601z"/>
<path d="M467 1163 c-4 -3 -7 -93 -7 -200 l0 -193 40 0 40 0 0 80 0 80 65 0
65 0 0 -80 0 -80 40 0 40 0 -2 198 -3 197 -35 0 -35 0 -3 -83 -3 -83 -62 3
-62 3 -3 83 -3 82 -33 0 c-18 0 -36 -3 -39 -7z"/>
<path d="M844 1147 c-21 -19 -27 -33 -28 -68 l-1 -44 40 0 c36 0 40 3 45 30 5
28 8 30 50 30 l45 0 3 -46 3 -46 -91 -85 c-76 -73 -90 -90 -90 -117 l0 -32
133 3 c131 3 132 3 135 27 5 32 -12 41 -86 41 l-63 0 59 55 c75 69 96 111 89
178 -7 77 -35 97 -137 97 -68 0 -83 -3 -106 -23z"/>
<path d="M1192 1160 c-38 -16 -52 -67 -52 -193 0 -138 11 -174 56 -193 43 -18
155 -18 198 0 50 21 58 53 54 210 -4 176 -7 180 -141 183 -50 2 -102 -2 -115
-7z m171 -105 c12 -54 3 -190 -13 -209 -15 -19 -90 -22 -108 -4 -17 17 -17
244 1 252 6 3 34 4 62 3 49 -2 49 -2 58 -42z"/>
</g>
</svg>
