<?xml version="1.0" standalone="no"?>
<!DOCTYPE svg PUBLIC "-//W3C//DTD SVG 20010904//EN"
 "http://www.w3.org/TR/2001/REC-SVG-20010904/DTD/svg10.dtd">
<svg version="1.0" xmlns="http://www.w3.org/2000/svg"
 width="192.000000pt" height="192.000000pt" viewBox="0 0 192.000000 192.000000"
 preserveAspectRatio="xMidYMid meet">
<metadata>
Created by potrace 1.16, written by Peter Selinger 2001-2019
</metadata>
<g transform="translate(0.000000,192.000000) scale(0.100000,-0.100000)"
fill="#000000" stroke="none">
811 c445 -92 729 -532 635 -987 -62 -301 -295 -546 -601 -630 -91 -26 -329
-26 -420 0 -291 80 -516 305 -596 596 -26 91 -26 329 0 420 120 433 542 692
982 601z"/>
<path d="M535 1168 c-3 -8 -4 -103 -3 -213 l3 -200 40 0 40 0 3 83 c3 74 5 82
22 82 18 0 20 -7 20 -74 0 -82 11 -100 57 -94 l28 3 0 210 0 210 -28 3 c-46 6
-57 -12 -57 -94 0 -67 -2 -74 -20 -74 -17 0 -19 8 -22 83 l-3 82 -38 3 c-24 2
-39 -1 -42 -10z"/>
<path d="M830 1167 c-13 -7 -30 -24 -37 -37 -16 -31 -17 -132 -1 -148 8 -8 8
-15 -2 -26 -8 -11 -11 -39 -8 -86 5 -94 23 -112 113 -118 35 -2 76 -1 90 2 24
6 25 9 25 91 0 69 3 85 15 85 11 0 15 11 15 40 0 29 -4 40 -15 40 -8 0 -15 7
-15 15 0 11 -12 15 -45 15 -34 0 -45 -4 -45 -16 0 -10 -7 -14 -22 -12 -19 2
-23 9 -23 38 l0 35 53 3 53 3 -3 42 -3 42 -60 3 c-34 1 -71 -3 -85 -11z m90
-282 c0 -41 -2 -45 -25 -45 -22 0 -25 4 -25 38 0 43 5 52 32 52 15 0 18 -8 18
-45z"/>
<path d="M1074 1167 c-2 -7 -3 -102 -2 -212 3 -219 2 -216 64 -201 22 6 24 12
25 69 l1 62 15 -62 c10 -42 20 -64 32 -68 34 -11 48 5 64 73 l15 67 1 -67 c1
-63 3 -68 25 -74 14 -3 33 -4 43 -2 17 3 18 18 18 213 l0 210 -29 3 c-65 8
-71 1 -96 -108 -12 -56 -24 -99 -26 -98 -2 2 -12 46 -24 98 -12 52 -26 98 -33
102 -20 13 -87 9 -93 -5z"/>
</g>
</svg>
