<?xml version="1.0" standalone="no"?>
<!DOCTYPE svg PUBLIC "-//W3C//DTD SVG 20010904//EN"
 "http://www.w3.org/TR/2001/REC-SVG-20010904/DTD/svg10.dtd">
<svg version="1.0" xmlns="http://www.w3.org/2000/svg"
 width="192.000000pt" height="192.000000pt" viewBox="0 0 192.000000 192.000000"
 preserveAspectRatio="xMidYMid meet">
<metadata>
Created by potrace 1.16, written by Peter Selinger 2001-2019
</metadata>
<g transform="translate(0.000000,192.000000) scale(0.100000,-0.100000)"
fill="#000000" stroke="none">
811 c445 -92 729 -532 635 -987 -62 -301 -295 -546 -601 -630 -91 -26 -329
-26 -420 0 -291 80 -516 305 -596 596 -26 91 -26 329 0 420 120 433 542 692
982 601z"/>
<path d="M643 1323 c-9 -24 14 -103 44 -146 33 -48 95 -85 157 -93 36 -5 46
-11 44 -23 -2 -11 -16 -17 -46 -19 -28 -2 -42 -8 -42 -17 0 -22 48 -49 98 -55
57 -6 63 -22 18 -48 -51 -30 -76 -86 -76 -170 0 -44 -5 -73 -12 -79 -36 -28
-128 -20 -128 10 0 8 16 31 36 51 30 31 35 41 28 64 -4 15 -10 52 -13 82 -6
51 -8 55 -33 58 -24 3 -28 8 -28 33 0 24 -4 29 -25 29 -21 0 -25 5 -25 30 0
27 -3 30 -30 30 -26 0 -31 5 -36 30 -5 25 -11 30 -35 30 -26 0 -29 -4 -29 -30
0 -27 3 -30 30 -30 l30 0 0 -84 0 -85 33 -3 c28 -3 33 -7 37 -38 5 -32 8 -35
43 -38 55 -5 57 -26 8 -71 -47 -44 -50 -59 -17 -98 l24 -28 186 -3 c180 -4
186 -3 186 16 0 27 -25 45 -50 37 -27 -9 -36 16 -20 56 15 35 37 49 77 49 51
0 67 -21 73 -92 l5 -63 69 -3 c77 -3 94 5 76 38 -10 18 -18 21 -45 17 -43 -7
-55 7 -54 63 2 69 12 95 36 93 34 -4 46 21 40 80 -3 28 -9 64 -13 80 -5 21 -3
27 10 27 11 0 16 9 16 29 0 23 -10 38 -46 67 -38 32 -45 42 -42 68 2 26 8 32
33 36 36 6 43 31 21 65 -15 23 -23 25 -86 25 -57 0 -206 -31 -229 -47 -12 -9
36 -43 61 -43 28 0 28 0 28 -64 0 -38 -5 -68 -11 -72 -7 -4 -29 12 -53 39 -29
33 -63 56 -118 81 -54 24 -93 51 -133 90 -30 31 -58 56 -61 56 -2 0 -7 -7 -11
-17z"/>
</g>
</svg>
