<?xml version="1.0" standalone="no"?>
<!DOCTYPE svg PUBLIC "-//W3C//DTD SVG 20010904//EN"
 "http://www.w3.org/TR/2001/REC-SVG-20010904/DTD/svg10.dtd">
<svg version="1.0" xmlns="http://www.w3.org/2000/svg"
 width="192.000000pt" height="192.000000pt" viewBox="0 0 192.000000 192.000000"
 preserveAspectRatio="xMidYMid meet">
<metadata>
Created by potrace 1.16, written by Peter Selinger 2001-2019
</metadata>
<g transform="translate(0.000000,192.000000) scale(0.100000,-0.100000)"
fill="#000000" stroke="none">
811 c445 -92 729 -532 635 -987 -62 -301 -295 -546 -601 -630 -91 -26 -329
-26 -420 0 -291 80 -516 305 -596 596 -26 91 -26 329 0 420 120 433 542 692
982 601z"/>
<path d="M842 1365 c-29 -8 -73 -26 -96 -40 -63 -37 -143 -126 -174 -192 -23
-51 -26 -71 -26 -163 -1 -98 1 -110 31 -172 125 -265 460 -327 667 -125 206
203 145 545 -120 669 -80 37 -197 47 -282 23z m238 -171 c156 -85 187 -288 61
-414 -59 -59 -129 -85 -211 -77 -67 6 -111 26 -163 76 -46 43 -66 78 -75 134
-6 35 -12 43 -32 45 -24 3 -50 26 -50 45 0 16 103 117 120 117 10 0 38 -23 64
-50 37 -39 47 -57 44 -78 -2 -23 -8 -28 -37 -30 -32 -3 -33 -5 -28 -39 17
-100 145 -170 244 -132 57 21 122 108 123 164 1 103 -91 194 -196 195 -57 0
-84 35 -51 69 21 22 127 8 187 -25z"/>
</g>
</svg>
