<?xml version="1.0" standalone="no"?>
<!DOCTYPE svg PUBLIC "-//W3C//DTD SVG 20010904//EN"
 "http://www.w3.org/TR/2001/REC-SVG-20010904/DTD/svg10.dtd">
<svg version="1.0" xmlns="http://www.w3.org/2000/svg"
 width="192.000000pt" height="192.000000pt" viewBox="0 0 192.000000 192.000000"
 preserveAspectRatio="xMidYMid meet">
<metadata>
Created by potrace 1.16, written by Peter Selinger 2001-2019
</metadata>
<g transform="translate(0.000000,192.000000) scale(0.100000,-0.100000)"
fill="#000000" stroke="none">
811 c445 -92 729 -532 635 -987 -62 -301 -295 -546 -601 -630 -91 -26 -329
-26 -420 0 -291 80 -516 305 -596 596 -26 91 -26 329 0 420 120 433 542 692
982 601z"/>
<path d="M667 1363 c-4 -3 -7 -19 -7 -34 0 -24 -4 -28 -32 -31 -29 -3 -33 -6
-33 -33 0 -26 4 -30 32 -33 28 -3 32 -7 35 -35 2 -25 8 -33 27 -35 26 -4 41
12 41 46 0 18 6 22 30 22 28 0 30 3 30 35 0 32 -2 35 -30 35 -23 0 -30 5 -30
19 0 34 -12 51 -34 51 -13 0 -26 -3 -29 -7z"/>
<path d="M1178 1344 c-89 -48 -50 -184 52 -184 33 0 48 6 71 29 82 83 -20 212
-123 155z"/>
<path d="M619 1061 c-38 -38 -39 -40 -39 -113 0 -95 20 -160 70 -230 139 -195
426 -211 589 -33 116 128 135 334 36 395 -30 19 -51 20 -325 20 l-292 0 -39
-39z"/>
</g>
</svg>
