<?xml version="1.0" standalone="no"?>
<!DOCTYPE svg PUBLIC "-//W3C//DTD SVG 20010904//EN"
 "http://www.w3.org/TR/2001/REC-SVG-20010904/DTD/svg10.dtd">
<svg version="1.0" xmlns="http://www.w3.org/2000/svg"
 width="192.000000pt" height="192.000000pt" viewBox="0 0 192.000000 192.000000"
 preserveAspectRatio="xMidYMid meet">
<metadata>
Created by potrace 1.16, written by Peter Selinger 2001-2019
</metadata>
<g transform="translate(0.000000,192.000000) scale(0.100000,-0.100000)"
fill="#000000" stroke="none">
811 c445 -92 729 -532 635 -987 -62 -301 -295 -546 -601 -630 -91 -26 -329
-26 -420 0 -291 80 -516 305 -596 596 -26 91 -26 329 0 420 120 433 542 692
982 601z"/>
<path d="M596 1244 c-26 -25 -19 -42 41 -105 l56 -59 154 0 c93 0 153 4 151 9
-1 6 -36 46 -76 90 l-73 81 -119 0 c-94 0 -122 -3 -134 -16z"/>
<path d="M1038 1214 c-24 -25 -45 -50 -47 -56 -2 -5 12 -25 30 -44 33 -34 33
-34 124 -34 l92 0 56 59 c61 64 67 79 39 104 -15 14 -41 17 -135 17 l-116 0
-43 -46z"/>
<path d="M515 1037 c-4 -8 -5 -45 -3 -83 2 -53 6 -69 18 -69 9 0 16 11 18 28
3 22 8 27 32 27 24 0 29 -5 32 -27 2 -17 9 -28 18 -28 12 0 15 16 15 80 0 68
-3 80 -17 83 -15 3 -18 -4 -18 -32 0 -33 -2 -36 -29 -36 -26 0 -30 4 -33 32
-3 33 -24 49 -33 25z"/>
<path d="M715 1040 c-12 -19 -45 -123 -45 -142 0 -22 25 -24 34 -3 8 21 56 19
72 -2 10 -14 15 -15 25 -6 18 18 -37 163 -62 163 -10 0 -21 -4 -24 -10z m35
-76 c0 -8 -6 -14 -14 -14 -9 0 -12 7 -9 20 6 22 23 18 23 -6z"/>
<path d="M835 1037 c-4 -8 -5 -45 -3 -83 l3 -69 45 0 c33 0 45 4 45 15 0 9
-11 16 -27 18 -26 3 -27 6 -30 64 -3 59 -21 88 -33 55z"/>
<path d="M952 968 c2 -66 6 -83 18 -83 12 0 15 16 15 80 0 69 -2 80 -18 83
-16 3 -18 -4 -15 -80z"/>
<path d="M1014 1037 c-3 -8 -4 -45 -2 -83 2 -53 6 -69 18 -69 9 0 16 11 18 26
2 21 10 28 33 33 40 8 39 36 -1 36 -42 0 -40 28 2 32 22 2 34 9 36 21 3 14 -4
17 -48 17 -33 0 -52 -5 -56 -13z"/>
<path d="M1167 1043 c-2 -4 -14 -39 -27 -76 -17 -53 -19 -71 -10 -80 9 -9 14
-8 24 6 16 21 62 23 70 2 3 -10 19 -15 44 -15 31 0 41 5 52 25 l14 26 22 -28
c17 -22 25 -25 35 -16 9 9 7 19 -9 45 l-21 32 21 34 c16 26 18 36 9 45 -10 9
-18 6 -35 -16 l-22 -28 -12 26 c-12 27 -42 35 -42 11 0 -8 8 -28 17 -44 16
-28 16 -31 -1 -56 -9 -15 -22 -26 -28 -24 -7 3 -21 33 -33 69 -16 48 -27 65
-42 67 -12 2 -23 0 -26 -5z m33 -79 c0 -8 -6 -14 -14 -14 -9 0 -12 7 -9 20 6
22 23 18 23 -6z"/>
<path d="M633 792 c-63 -57 -75 -86 -51 -110 8 -8 52 -12 133 -12 l120 0 83
83 c45 45 82 86 82 90 0 4 -69 7 -152 7 l-153 -1 -62 -57z"/>
<path d="M1021 816 l-33 -34 42 -51 c23 -27 49 -52 57 -55 8 -3 67 -6 132 -6
166 0 180 20 79 119 l-63 61 -91 0 c-90 0 -90 0 -123 -34z"/>
</g>
</svg>
