<?xml version="1.0" standalone="no"?>
<!DOCTYPE svg PUBLIC "-//W3C//DTD SVG 20010904//EN"
 "http://www.w3.org/TR/2001/REC-SVG-20010904/DTD/svg10.dtd">
<svg version="1.0" xmlns="http://www.w3.org/2000/svg"
 width="192.000000pt" height="192.000000pt" viewBox="0 0 192.000000 192.000000"
 preserveAspectRatio="xMidYMid meet">
<metadata>
Created by potrace 1.16, written by Peter Selinger 2001-2019
</metadata>
<g transform="translate(0.000000,192.000000) scale(0.100000,-0.100000)"
fill="#000000" stroke="none">
811 c445 -92 729 -532 635 -987 -62 -301 -295 -546 -601 -630 -91 -26 -329
-26 -420 0 -291 80 -516 305 -596 596 -26 91 -26 329 0 420 120 433 542 692
982 601z"/>
<path d="M835 1356 c-116 -37 -207 -116 -258 -224 -29 -61 -32 -76 -32 -162 1
-125 25 -188 105 -274 239 -255 651 -131 712 214 10 62 -1 160 -23 202 -7 12
-5 27 6 47 21 42 19 107 -5 146 -36 59 -127 83 -189 51 -24 -13 -34 -13 -76 0
-58 17 -185 17 -240 0z m199 -67 l42 -10 0 -49 c0 -84 59 -140 146 -140 47 0
47 0 59 -42 17 -65 7 -164 -24 -225 -15 -28 -30 -54 -35 -57 -5 -3 -30 17 -56
43 l-48 48 17 49 c47 140 -84 282 -227 244 -117 -31 -174 -140 -133 -255 l14
-40 -46 -47 c-26 -27 -51 -48 -54 -48 -4 0 -22 29 -39 64 -44 88 -45 186 -6
273 70 153 231 232 390 192z m231 -14 c30 -30 31 -54 4 -89 -25 -32 -66 -34
-97 -6 -31 29 -29 73 4 99 35 27 59 26 89 -4z m-247 -211 c29 -20 52 -66 52
-103 0 -44 -13 -45 -55 -1 -22 22 -48 40 -60 40 -12 0 -39 -18 -60 -40 -21
-22 -43 -40 -47 -40 -4 0 -8 21 -8 46 0 39 5 51 34 80 28 28 41 34 78 34 24 0
54 -7 66 -16z"/>
</g>
</svg>
