<?xml version="1.0" standalone="no"?>
<!DOCTYPE svg PUBLIC "-//W3C//DTD SVG 20010904//EN"
 "http://www.w3.org/TR/2001/REC-SVG-20010904/DTD/svg10.dtd">
<svg version="1.0" xmlns="http://www.w3.org/2000/svg"
 width="192.000000pt" height="192.000000pt" viewBox="0 0 192.000000 192.000000"
 preserveAspectRatio="xMidYMid meet">
<metadata>
Created by potrace 1.16, written by Peter Selinger 2001-2019
</metadata>
<g transform="translate(0.000000,192.000000) scale(0.100000,-0.100000)"
fill="#000000" stroke="none">
811 c445 -92 729 -532 635 -987 -62 -301 -295 -546 -601 -630 -91 -26 -329
-26 -420 0 -291 80 -516 305 -596 596 -26 91 -26 329 0 420 120 433 542 692
982 601z"/>
<path d="M870 1369 c-113 -22 -232 -114 -284 -220 -101 -207 -15 -454 193
-553 61 -29 74 -31 176 -31 104 0 114 2 176 32 80 40 159 120 197 200 24 52
27 69 27 168 0 102 -2 115 -31 176 -81 171 -267 265 -454 228z m9 -265 c28
-36 27 -79 -4 -109 -66 -67 -174 10 -131 93 18 35 28 40 78 41 28 1 41 -5 57
-25z m260 0 c28 -36 27 -79 -4 -109 -60 -61 -164 3 -134 83 14 37 36 52 80 52
29 0 42 -6 58 -26z m-213 -262 l22 -37 22 38 c24 40 60 51 60 18 0 -31 -62
-131 -82 -131 -20 0 -93 123 -83 140 13 21 41 9 61 -28z"/>
</g>
</svg>
