<?xml version="1.0" standalone="no"?>
<!DOCTYPE svg PUBLIC "-//W3C//DTD SVG 20010904//EN"
 "http://www.w3.org/TR/2001/REC-SVG-20010904/DTD/svg10.dtd">
<svg version="1.0" xmlns="http://www.w3.org/2000/svg"
 width="192.000000pt" height="192.000000pt" viewBox="0 0 192.000000 192.000000"
 preserveAspectRatio="xMidYMid meet">
<metadata>
Created by potrace 1.16, written by Peter Selinger 2001-2019
</metadata>
<g transform="translate(0.000000,192.000000) scale(0.100000,-0.100000)"
fill="#000000" stroke="none">
811 c445 -92 729 -532 635 -987 -62 -301 -295 -546 -601 -630 -91 -26 -329
-26 -420 0 -291 80 -516 305 -596 596 -26 91 -26 329 0 420 120 433 542 692
982 601z"/>
<path d="M842 1235 c-124 -136 -142 -160 -142 -189 0 -53 36 -77 109 -71 31 3
122 8 204 11 161 7 180 13 193 68 6 25 0 34 -61 91 l-68 64 7 64 c5 56 4 67
-15 90 -15 19 -30 27 -53 27 -29 0 -47 -16 -174 -155z"/>
<path d="M895 949 c-137 -7 -151 -9 -167 -29 -18 -22 -23 -56 -12 -84 3 -8 30
-34 60 -57 l54 -41 0 -79 c0 -88 17 -119 65 -119 30 0 54 22 197 180 140 154
148 171 103 215 -27 28 -29 28 -300 14z"/>
</g>
</svg>
