<?xml version="1.0" standalone="no"?>
<!DOCTYPE svg PUBLIC "-//W3C//DTD SVG 20010904//EN"
 "http://www.w3.org/TR/2001/REC-SVG-20010904/DTD/svg10.dtd">
<svg version="1.0" xmlns="http://www.w3.org/2000/svg"
 width="192.000000pt" height="192.000000pt" viewBox="0 0 192.000000 192.000000"
 preserveAspectRatio="xMidYMid meet">
<metadata>
Created by potrace 1.16, written by Peter Selinger 2001-2019
</metadata>
<g transform="translate(0.000000,192.000000) scale(0.100000,-0.100000)"
fill="#000000" stroke="none">
810 c245 -63 441 -223 549 -451 55 -116 75 -212 75 -354 0 -141 -20 -238 -75
-352 -86 -182 -215 -312 -396 -398 -116 -55 -212 -75 -354 -75 -142 0 -238 20
-354 75 -228 108 -388 304 -451 549 -28 110 -28 292 0 402 76 298 303 526 600
603 106 28 298 28 406 1z"/>
<path d="M890 1005 c0 -59 4 -95 10 -95 6 0 26 7 45 14 l35 15 0 80 0 81 -45
0 -45 0 0 -95z"/>
<path d="M520 1025 c0 -11 11 -15 43 -15 56 0 87 -9 87 -26 0 -10 -14 -14 -50
-14 -59 0 -102 -16 -148 -55 -42 -35 -40 -65 6 -77 18 -5 74 -7 125 -6 77 3
92 6 95 20 3 15 -7 18 -70 20 -57 2 -73 6 -73 18 0 12 22 16 116 20 116 5 149
15 149 46 0 8 -10 14 -25 14 -15 0 -25 6 -25 14 0 8 -12 24 -26 35 -23 18 -41
21 -115 21 -72 0 -89 -3 -89 -15z"/>
<path d="M1212 1023 c2 -11 13 -18 28 -19 14 -1 42 -2 63 -3 24 -1 37 -6 37
-15 0 -11 -22 -15 -92 -18 -51 -2 -97 -1 -102 4 -6 4 -32 8 -58 8 l-48 0 0
-45 c0 -40 -3 -47 -26 -55 -14 -6 -60 -10 -103 -10 -58 0 -82 -4 -91 -15 -11
-13 -1 -15 76 -17 162 -4 226 10 239 53 6 18 18 19 156 19 116 0 157 4 180 16
35 18 34 38 -4 42 -15 2 -29 11 -32 23 -11 33 -57 49 -145 49 -72 0 -81 -2
-78 -17z"/>
<path d="M715 866 c-19 -14 -19 -15 7 -27 22 -9 30 -9 43 1 12 10 13 16 4 26
-15 18 -30 18 -54 0z"/>
</g>
</svg>
