<?xml version="1.0" standalone="no"?>
<!DOCTYPE svg PUBLIC "-//W3C//DTD SVG 20010904//EN"
 "http://www.w3.org/TR/2001/REC-SVG-20010904/DTD/svg10.dtd">
<svg version="1.0" xmlns="http://www.w3.org/2000/svg"
 width="192.000000pt" height="192.000000pt" viewBox="0 0 192.000000 192.000000"
 preserveAspectRatio="xMidYMid meet">
<metadata>
Created by potrace 1.16, written by Peter Selinger 2001-2019
</metadata>
<g transform="translate(0.000000,192.000000) scale(0.100000,-0.100000)"
fill="#000000" stroke="none">
811 c445 -92 729 -532 635 -987 -62 -301 -295 -546 -601 -630 -91 -26 -329
-26 -420 0 -291 80 -516 305 -596 596 -26 91 -26 329 0 420 120 433 542 692
982 601z"/>
<path d="M828 1351 c-75 -25 -116 -51 -172 -111 -85 -91 -121 -205 -104 -334
12 -85 48 -158 112 -222 162 -161 417 -162 578 -1 107 107 145 267 98 406 -39
117 -106 191 -219 245 -85 39 -205 46 -293 17z m-208 -346 c0 -18 5 -25 20
-25 15 0 20 7 20 25 0 14 5 25 10 25 6 0 10 -27 10 -60 0 -33 -4 -60 -10 -60
-5 0 -10 9 -10 20 0 13 -7 20 -20 20 -13 0 -20 -7 -20 -20 0 -11 -7 -20 -15
-20 -11 0 -15 13 -15 53 0 30 3 57 7 60 13 14 23 6 23 -18z m158 -37 c3 -56
-10 -79 -21 -38 -3 11 -10 20 -16 20 -6 0 -11 -9 -11 -20 0 -11 -7 -20 -15
-20 -11 0 -15 13 -15 53 0 63 4 69 45 65 29 -3 30 -5 33 -60z m86 56 c18 -7
22 -59 5 -70 -8 -4 -8 -9 0 -17 6 -6 11 -15 11 -19 0 -14 -22 -8 -36 10 -13
16 -13 16 -14 0 0 -10 -7 -18 -15 -18 -12 0 -15 13 -15 60 0 57 1 60 24 60 13
0 31 -3 40 -6z m73 -31 l16 -38 12 35 c19 56 39 45 43 -22 2 -47 0 -58 -13
-58 -9 0 -15 9 -16 23 l0 22 -9 -22 c-5 -13 -14 -23 -20 -23 -6 0 -15 10 -20
23 l-9 22 0 -22 c-1 -14 -7 -23 -16 -23 -11 0 -15 13 -15 53 0 79 21 91 47 30z
m162 23 c7 -8 11 -34 9 -58 l-3 -43 -40 0 -40 0 -3 43 c-4 49 10 72 43 72 12
0 28 -6 34 -14z m68 -18 l18 -33 3 33 c6 56 22 35 22 -28 0 -67 -17 -80 -40
-32 l-14 27 -4 -27 c-2 -16 -10 -28 -18 -28 -10 0 -14 14 -14 53 0 77 17 89
47 35z m83 7 c0 -31 27 -34 32 -3 2 12 9 23 16 26 18 6 15 -53 -3 -68 -8 -7
-15 -21 -15 -31 0 -11 -7 -19 -15 -19 -9 0 -15 9 -15 24 0 13 -7 26 -15 30
-15 5 -21 47 -8 59 13 14 23 6 23 -18z"/>
<path d="M730 985 c0 -8 7 -15 15 -15 8 0 15 7 15 15 0 8 -7 15 -15 15 -8 0
-15 -7 -15 -15z"/>
<path d="M830 990 c0 -5 5 -10 10 -10 6 0 10 5 10 10 0 6 -4 10 -10 10 -5 0
-10 -4 -10 -10z"/>
<path d="M1050 965 c0 -24 5 -35 15 -35 10 0 15 11 15 35 0 24 -5 35 -15 35
-10 0 -15 -11 -15 -35z"/>
</g>
</svg>
