<?xml version="1.0" standalone="no"?>
<!DOCTYPE svg PUBLIC "-//W3C//DTD SVG 20010904//EN"
 "http://www.w3.org/TR/2001/REC-SVG-20010904/DTD/svg10.dtd">
<svg version="1.0" xmlns="http://www.w3.org/2000/svg"
 width="192.000000pt" height="192.000000pt" viewBox="0 0 192.000000 192.000000"
 preserveAspectRatio="xMidYMid meet">
<metadata>
Created by potrace 1.16, written by Peter Selinger 2001-2019
</metadata>
<g transform="translate(0.000000,192.000000) scale(0.100000,-0.100000)"
fill="#000000" stroke="none">
811 c445 -92 729 -532 635 -987 -62 -301 -295 -546 -601 -630 -91 -26 -329
-26 -420 0 -291 80 -516 305 -596 596 -26 91 -26 329 0 420 120 433 542 692
982 601z"/>
<path d="M774 1370 c-36 -14 -54 -50 -54 -106 l0 -52 -60 -4 c-49 -3 -66 -10
-87 -31 -39 -39 -37 -90 5 -128 27 -25 41 -29 88 -29 l55 0 -3 -52 -3 -53 -61
-5 c-90 -7 -126 -48 -104 -116 16 -48 44 -64 112 -64 l58 0 0 -58 c0 -91 46
-135 116 -112 48 16 64 44 64 112 l0 58 55 0 55 0 0 -58 c0 -68 16 -96 64
-112 70 -23 116 21 116 112 l0 58 58 0 c68 0 96 16 112 64 22 68 -14 109 -104
116 l-61 5 -3 53 -3 52 55 0 c47 0 61 4 88 29 42 38 44 89 5 128 -21 21 -38
28 -87 31 l-60 4 0 52 c0 85 -48 128 -116 106 -47 -16 -64 -45 -64 -107 l0
-53 -55 0 -55 0 0 51 c0 63 -13 87 -55 105 -39 16 -42 16 -71 4z m236 -405 l0
-55 -55 0 -55 0 0 55 0 55 55 0 55 0 0 -55z"/>
</g>
</svg>
