<?xml version="1.0" standalone="no"?>
<!DOCTYPE svg PUBLIC "-//W3C//DTD SVG 20010904//EN"
 "http://www.w3.org/TR/2001/REC-SVG-20010904/DTD/svg10.dtd">
<svg version="1.0" xmlns="http://www.w3.org/2000/svg"
 width="192.000000pt" height="192.000000pt" viewBox="0 0 192.000000 192.000000"
 preserveAspectRatio="xMidYMid meet">
<metadata>
Created by potrace 1.16, written by Peter Selinger 2001-2019
</metadata>
<g transform="translate(0.000000,192.000000) scale(0.100000,-0.100000)"
fill="#000000" stroke="none">
811 c445 -92 729 -532 635 -987 -62 -301 -295 -546 -601 -630 -91 -26 -329
-26 -420 0 -291 80 -516 305 -596 596 -26 91 -26 329 0 420 120 433 542 692
982 601z"/>
<path d="M871 1397 c-68 -24 -94 -96 -54 -153 31 -44 36 -70 18 -88 -24 -24
-30 -21 -68 33 -40 55 -68 69 -103 51 -53 -29 -73 -144 -33 -194 28 -35 46
-33 85 13 18 21 49 46 68 55 39 18 111 21 153 5 56 -21 113 -93 113 -141 0
-16 -7 -8 -24 28 -35 75 -88 107 -173 106 -110 -3 -182 -104 -159 -225 3 -18
22 -53 42 -76 l36 -42 -3 -122 -4 -122 128 -3 c141 -3 151 2 123 56 -15 28
-14 30 15 52 17 12 27 25 22 29 -14 13 -193 62 -202 56 -5 -3 -7 -15 -4 -28 4
-18 3 -19 -6 -7 -6 8 -11 29 -11 46 l0 32 111 -34 c61 -19 115 -34 120 -34 16
0 9 54 -11 88 -11 17 -16 32 -11 32 5 0 11 -7 15 -15 9 -25 35 -17 57 17 25
41 21 103 -10 146 l-21 30 27 20 c16 10 51 27 79 36 83 27 114 72 114 166 0
55 -3 65 -29 91 -25 24 -37 29 -80 29 -70 0 -96 -25 -87 -84 5 -34 3 -48 -14
-69 -24 -30 -55 -35 -64 -11 -3 9 -6 47 -6 85 0 77 -16 118 -52 136 -40 20
-62 22 -97 10z m33 -408 c36 -29 36 -80 -1 -109 -44 -34 -95 -14 -109 44 -6
26 -5 27 13 17 30 -16 58 8 49 42 -8 34 10 36 48 6z m196 -128 c0 -24 -23 -43
-43 -35 -21 8 -30 34 -12 34 8 0 15 9 15 20 0 18 3 19 20 10 11 -6 20 -19 20
-29z"/>
</g>
</svg>
