<?xml version="1.0" standalone="no"?>
<!DOCTYPE svg PUBLIC "-//W3C//DTD SVG 20010904//EN"
 "http://www.w3.org/TR/2001/REC-SVG-20010904/DTD/svg10.dtd">
<svg version="1.0" xmlns="http://www.w3.org/2000/svg"
 width="192.000000pt" height="192.000000pt" viewBox="0 0 192.000000 192.000000"
 preserveAspectRatio="xMidYMid meet">
<metadata>
Created by potrace 1.16, written by Peter Selinger 2001-2019
</metadata>
<g transform="translate(0.000000,192.000000) scale(0.100000,-0.100000)"
fill="#000000" stroke="none">
811 c445 -92 729 -532 635 -987 -62 -301 -295 -546 -601 -630 -91 -26 -329
-26 -420 0 -291 80 -516 305 -596 596 -26 91 -26 329 0 420 120 433 542 692
982 601z"/>
<path d="M540 966 l0 -166 45 0 45 0 0 65 0 65 30 0 30 0 0 -65 0 -65 45 0 45
0 0 166 0 165 -42 -3 -43 -3 -3 -57 c-3 -57 -4 -58 -32 -58 -28 0 -29 1 -32
58 l-3 57 -42 3 -43 3 0 -165z"/>
<path d="M807 1123 c-4 -3 -7 -78 -7 -165 l0 -158 93 0 c98 0 122 10 146 58
l12 23 21 -26 c29 -38 70 -55 131 -55 60 0 104 23 141 73 30 40 30 144 0 184
-37 50 -81 73 -141 73 -60 0 -101 -17 -131 -55 -22 -28 -32 -32 -32 -11 0 8
-14 26 -31 40 -27 23 -39 26 -113 26 -46 0 -86 -3 -89 -7z m143 -78 c19 -23 4
-45 -30 -45 -27 0 -30 3 -30 30 0 25 4 30 24 30 13 0 29 -7 36 -15z m311 -24
c38 -38 38 -74 0 -112 -57 -56 -141 -23 -141 56 0 79 84 112 141 56z m-231
-56 c0 -9 -6 -12 -16 -8 -13 5 -13 7 -2 14 17 11 18 11 18 -6z m-74 -50 c9
-21 -14 -45 -42 -45 -20 0 -24 5 -24 30 0 27 3 30 30 30 18 0 33 -6 36 -15z"/>
<path d="M1155 1010 c-38 -42 -7 -110 50 -110 26 0 65 43 65 71 0 51 -80 78
-115 39z"/>
</g>
</svg>
