<?xml version="1.0" standalone="no"?>
<!DOCTYPE svg PUBLIC "-//W3C//DTD SVG 20010904//EN"
 "http://www.w3.org/TR/2001/REC-SVG-20010904/DTD/svg10.dtd">
<svg version="1.0" xmlns="http://www.w3.org/2000/svg"
 width="192.000000pt" height="192.000000pt" viewBox="0 0 192.000000 192.000000"
 preserveAspectRatio="xMidYMid meet">
<metadata>
Created by potrace 1.16, written by Peter Selinger 2001-2019
</metadata>
<g transform="translate(0.000000,192.000000) scale(0.100000,-0.100000)"
fill="#000000" stroke="none">
811 c445 -92 729 -532 635 -987 -62 -301 -295 -546 -601 -630 -91 -26 -329
-26 -420 0 -291 80 -516 305 -596 596 -26 91 -26 329 0 420 120 433 542 692
982 601z"/>
<path d="M545 1318 c-3 -8 -4 -83 -3 -168 l3 -155 40 0 40 0 3 63 c3 61 3 62
32 62 29 0 29 -1 32 -62 l3 -63 40 0 40 0 0 165 c0 180 0 181 -61 166 -22 -6
-24 -11 -24 -66 0 -60 0 -60 -30 -60 -29 0 -29 1 -32 63 l-3 62 -38 3 c-24 2
-39 -1 -42 -10z"/>
<path d="M812 1322 c-9 -6 -12 -47 -10 -168 l3 -159 92 0 c83 0 94 2 117 24
14 14 26 30 26 38 0 20 14 16 41 -13 51 -56 124 -68 196 -33 122 59 124 237 3
299 -69 35 -153 20 -206 -37 -19 -19 -28 -24 -31 -15 -3 7 -15 25 -28 39 -20
24 -30 27 -106 30 -46 2 -90 0 -97 -5z m144 -87 c9 -21 -14 -45 -42 -45 -20 0
-24 5 -24 30 0 27 3 30 30 30 18 0 33 -6 36 -15z m305 -11 c26 -24 33 -68 15
-102 -17 -33 -34 -42 -79 -42 -84 0 -108 116 -32 159 25 14 73 6 96 -15z
m-231 -65 c0 -18 -2 -20 -15 -9 -13 11 -13 15 -3 21 18 12 18 12 18 -12z m-80
-44 c19 -23 4 -45 -30 -45 -27 0 -30 3 -30 30 0 25 4 30 24 30 13 0 29 -7 36
-15z"/>
<path d="M1162 1214 c-26 -18 -30 -74 -6 -98 24 -24 80 -20 98 6 22 32 20 55
-9 83 -28 29 -51 31 -83 9z"/>
<path d="M702 929 c-59 -29 -85 -70 -90 -139 -10 -137 116 -227 240 -172 45
19 98 75 98 103 0 8 10 -4 23 -26 58 -102 189 -122 275 -42 84 78 65 220 -37
274 -99 52 -216 5 -251 -102 l-11 -34 -87 -3 c-85 -3 -87 -3 -87 -28 0 -22 5
-25 43 -28 23 -2 42 -6 42 -10 0 -16 -17 -31 -43 -41 -65 -25 -135 45 -121
119 13 64 95 91 148 49 30 -23 64 -22 80 3 8 13 5 23 -14 44 -52 56 -134 69
-208 33z m482 -91 c15 -13 29 -37 32 -55 5 -27 1 -37 -24 -63 -74 -73 -189 3
-140 93 27 52 89 63 132 25z"/>
<path d="M1076 818 c-51 -73 48 -151 103 -82 12 15 21 32 21 39 0 7 -9 24 -21
39 -27 34 -81 36 -103 4z"/>
</g>
</svg>
