<?xml version="1.0" standalone="no"?>
<!DOCTYPE svg PUBLIC "-//W3C//DTD SVG 20010904//EN"
 "http://www.w3.org/TR/2001/REC-SVG-20010904/DTD/svg10.dtd">
<svg version="1.0" xmlns="http://www.w3.org/2000/svg"
 width="192.000000pt" height="192.000000pt" viewBox="0 0 192.000000 192.000000"
 preserveAspectRatio="xMidYMid meet">
<metadata>
Created by potrace 1.16, written by Peter Selinger 2001-2019
</metadata>
<g transform="translate(0.000000,192.000000) scale(0.100000,-0.100000)"
fill="#000000" stroke="none">
811 c445 -92 729 -532 635 -987 -62 -301 -295 -546 -601 -630 -91 -26 -329
-26 -420 0 -291 80 -516 305 -596 596 -26 91 -26 329 0 420 120 433 542 692
982 601z"/>
<path d="M552 1238 c-14 -14 -17 -295 -3 -316 5 -8 23 -12 47 -10 l39 3 3 63
c3 61 3 62 32 62 l30 0 0 -65 0 -65 39 0 c26 0 41 5 45 16 3 9 6 80 6 159 0
156 -5 169 -57 163 -27 -3 -28 -6 -33 -63 -5 -57 -7 -60 -32 -63 -28 -3 -28
-3 -28 56 0 45 -4 61 -16 66 -25 10 -59 7 -72 -6z"/>
<path d="M811 1236 c-8 -9 -11 -63 -9 -167 l3 -154 77 -3 c85 -3 129 12 149
51 6 12 13 24 15 26 2 2 17 -11 34 -28 56 -56 137 -64 207 -21 141 86 74 310
-92 310 -42 0 -110 -32 -127 -60 -17 -26 -22 -25 -36 6 -7 14 -28 32 -47 40
-45 18 -159 19 -174 0z m146 -82 c7 -19 -21 -44 -49 -44 -13 0 -18 8 -18 30 0
27 3 30 30 30 19 0 33 -6 37 -16z m301 -20 c47 -53 10 -134 -61 -134 -87 0
-112 121 -32 156 37 16 63 10 93 -22z m-228 -56 c0 -16 -3 -19 -11 -11 -6 6
-8 16 -5 22 11 17 16 13 16 -11z m-80 -43 c19 -23 4 -45 -30 -45 -27 0 -30 3
-30 30 0 25 4 30 24 30 13 0 29 -7 36 -15z"/>
<path d="M1155 1125 c-30 -29 -32 -55 -7 -85 36 -45 112 -17 112 42 0 33 -31
68 -60 68 -12 0 -32 -11 -45 -25z"/>
<path d="M575 856 c-24 -24 -26 -32 -23 -98 3 -65 5 -73 23 -73 16 0 21 8 23
35 5 79 12 100 32 100 22 0 28 -19 32 -90 3 -37 6 -45 23 -45 17 0 20 8 23 45
4 71 10 90 32 90 20 0 27 -21 32 -100 2 -27 7 -35 23 -35 18 0 20 8 23 73 3
66 1 74 -23 98 -22 22 -32 25 -63 20 -20 -3 -41 -6 -47 -6 -5 0 -27 3 -47 6
-31 5 -41 2 -63 -20z"/>
<path d="M869 851 c-21 -22 -29 -39 -29 -66 0 -71 42 -105 126 -102 71 3 77 9
72 80 -4 52 -9 64 -36 88 -44 40 -93 39 -133 0z m101 -50 c13 -25 4 -48 -21
-56 -38 -12 -65 35 -37 63 18 18 46 14 58 -7z"/>
<path d="M1057 874 c-11 -12 -8 -49 7 -69 11 -15 11 -22 0 -44 -18 -34 -18
-56 1 -71 18 -15 30 -7 49 32 16 31 56 31 72 0 20 -41 32 -48 51 -30 14 15 15
23 5 56 -9 29 -9 46 0 69 6 16 8 38 5 47 -10 26 -50 16 -57 -13 -12 -53 -68
-53 -80 0 -6 23 -38 37 -53 23z"/>
</g>
</svg>
