<?xml version="1.0" standalone="no"?>
<!DOCTYPE svg PUBLIC "-//W3C//DTD SVG 20010904//EN"
 "http://www.w3.org/TR/2001/REC-SVG-20010904/DTD/svg10.dtd">
<svg version="1.0" xmlns="http://www.w3.org/2000/svg"
 width="192.000000pt" height="192.000000pt" viewBox="0 0 192.000000 192.000000"
 preserveAspectRatio="xMidYMid meet">
<metadata>
Created by potrace 1.16, written by Peter Selinger 2001-2019
</metadata>
<g transform="translate(0.000000,192.000000) scale(0.100000,-0.100000)"
fill="#000000" stroke="none">
811 c445 -92 729 -532 635 -987 -62 -301 -295 -546 -601 -630 -91 -26 -329
-26 -420 0 -291 80 -516 305 -596 596 -26 91 -26 329 0 420 120 433 542 692
982 601z"/>
<path d="M544 1317 c-2 -7 -3 -114 -2 -237 l3 -225 72 -3 72 -3 3 88 3 88 35
0 35 0 3 -88 3 -88 72 3 72 3 0 235 0 235 -72 3 -72 3 -3 -88 -3 -88 -35 0
-35 0 -3 88 -3 87 -70 0 c-47 0 -71 -4 -75 -13z"/>
<path d="M990 1090 l0 -240 140 0 c229 0 240 11 240 240 0 229 -11 240 -240
240 l-140 0 0 -240z m218 108 c16 -16 16 -200 0 -216 -7 -7 -25 -12 -40 -12
l-28 0 0 120 0 120 28 0 c15 0 33 -5 40 -12z"/>
<path d="M546 782 c-3 -5 2 -48 11 -96 l17 -87 36 3 c28 2 36 8 38 26 4 27 22
19 22 -9 0 -17 6 -20 37 -17 l37 3 17 85 c10 47 15 88 12 92 -2 5 -15 8 -28 8
-25 0 -30 -9 -38 -70 -2 -19 -5 -15 -13 20 -8 39 -13 45 -34 45 -21 0 -26 -6
-34 -44 l-10 -45 -10 45 c-8 33 -16 45 -33 47 -11 2 -24 -1 -27 -6z"/>
<path d="M815 780 c-9 -14 -45 -146 -45 -165 0 -10 10 -15 30 -15 20 0 30 5
30 15 0 8 7 15 15 15 9 0 18 -7 21 -15 4 -9 19 -15 35 -15 35 0 36 8 5 110
-20 71 -23 75 -53 78 -17 2 -34 -2 -38 -8z m40 -100 c3 -5 1 -10 -4 -10 -6 0
-11 5 -11 10 0 6 2 10 4 10 3 0 8 -4 11 -10z"/>
<path d="M957 784 c-4 -4 -7 -47 -7 -96 l0 -88 60 0 c57 0 60 1 60 25 0 21 -5
25 -30 25 -29 0 -29 0 -32 68 -3 59 -6 67 -23 70 -12 2 -24 0 -28 -4z"/>
<path d="M1097 784 c-4 -4 -7 -47 -7 -96 l0 -88 59 0 c33 0 62 4 65 9 12 19
-7 41 -35 41 -28 0 -28 1 -31 68 -3 59 -6 67 -23 70 -12 2 -24 0 -28 -4z"/>
<path d="M1236 774 c-16 -16 -21 -50 -10 -78 3 -9 24 -21 45 -26 21 -6 39 -15
39 -20 0 -13 -17 -13 -25 0 -3 6 -17 10 -31 10 -19 0 -24 -5 -24 -25 0 -45 82
-63 120 -25 39 39 20 94 -35 104 -19 4 -35 11 -35 16 0 13 6 12 29 -2 10 -6
26 -8 35 -5 22 9 20 44 -3 57 -29 15 -87 12 -105 -6z"/>
</g>
</svg>
