<?xml version="1.0" standalone="no"?>
<!DOCTYPE svg PUBLIC "-//W3C//DTD SVG 20010904//EN"
 "http://www.w3.org/TR/2001/REC-SVG-20010904/DTD/svg10.dtd">
<svg version="1.0" xmlns="http://www.w3.org/2000/svg"
 width="192.000000pt" height="192.000000pt" viewBox="0 0 192.000000 192.000000"
 preserveAspectRatio="xMidYMid meet">
<metadata>
Created by potrace 1.16, written by Peter Selinger 2001-2019
</metadata>
<g transform="translate(0.000000,192.000000) scale(0.100000,-0.100000)"
fill="#000000" stroke="none">
811 c445 -92 729 -532 635 -987 -62 -301 -295 -546 -601 -630 -91 -26 -329
-26 -420 0 -291 80 -516 305 -596 596 -26 91 -26 329 0 420 120 433 542 692
982 601z"/>
<path d="M692 1349 c-44 -13 -108 -79 -121 -126 -16 -55 -13 -109 5 -127 39
-39 84 -1 84 72 0 58 33 92 89 92 64 0 91 15 91 49 0 20 -7 34 -19 41 -24 12
-84 12 -129 -1z"/>
<path d="M1087 1345 c-40 -40 -3 -85 71 -85 59 0 92 -33 92 -92 0 -74 45 -111
85 -71 14 13 16 29 12 75 -10 108 -77 175 -184 185 -47 4 -63 2 -76 -12z"/>
<path d="M839 1081 c-27 -28 -29 -34 -29 -111 0 -132 17 -149 148 -150 86 0
95 2 117 25 23 22 25 31 25 117 -1 131 -18 148 -150 148 -77 0 -83 -2 -111
-29z"/>
<path d="M579 839 c-19 -19 -21 -30 -16 -80 9 -106 76 -175 179 -186 69 -7 98
7 98 48 0 34 -27 49 -91 49 -59 0 -89 34 -89 100 0 37 -5 55 -20 70 -25 25
-35 25 -61 -1z"/>
<path d="M1270 840 c-15 -15 -20 -33 -20 -70 0 -68 -30 -100 -92 -100 -74 0
-111 -45 -71 -85 13 -14 29 -16 76 -12 107 10 174 77 184 186 5 50 3 61 -16
80 -26 26 -36 26 -61 1z"/>
</g>
</svg>
