<?xml version="1.0" standalone="no"?>
<!DOCTYPE svg PUBLIC "-//W3C//DTD SVG 20010904//EN"
 "http://www.w3.org/TR/2001/REC-SVG-20010904/DTD/svg10.dtd">
<svg version="1.0" xmlns="http://www.w3.org/2000/svg"
 width="192.000000pt" height="192.000000pt" viewBox="0 0 192.000000 192.000000"
 preserveAspectRatio="xMidYMid meet">
<metadata>
Created by potrace 1.16, written by Peter Selinger 2001-2019
</metadata>
<g transform="translate(0.000000,192.000000) scale(0.100000,-0.100000)"
fill="#000000" stroke="none">
811 c445 -92 729 -532 635 -987 -62 -301 -295 -546 -601 -630 -91 -26 -329
-26 -420 0 -291 80 -516 305 -596 596 -26 91 -26 329 0 420 120 433 542 692
982 601z"/>
<path d="M761 1332 c-50 -25 -75 -63 -75 -118 -1 -33 4 -50 16 -57 25 -17 48
8 48 53 0 45 17 62 72 69 48 7 69 31 49 55 -18 21 -68 20 -110 -2z"/>
<path d="M1047 1335 c-25 -25 -6 -55 36 -55 50 0 75 -23 79 -72 3 -48 27 -70
52 -49 37 31 8 130 -48 166 -39 26 -99 31 -119 10z"/>
<path d="M878 1159 c-15 -8 -18 -24 -18 -89 0 -95 6 -100 104 -100 80 0 96 16
96 100 0 84 -16 100 -98 100 -37 0 -75 -5 -84 -11z"/>
<path d="M687 983 c-12 -11 -8 -72 7 -108 8 -19 30 -44 48 -55 42 -25 123 -28
132 -4 10 25 -12 44 -50 44 -42 0 -74 30 -74 69 0 16 -3 36 -6 45 -6 16 -45
22 -57 9z"/>
<path d="M1166 975 c-3 -9 -6 -30 -6 -46 0 -40 -32 -69 -75 -69 -23 0 -37 -6
-44 -18 -14 -27 5 -42 54 -42 80 0 140 66 133 148 -3 32 -7 37 -29 40 -17 2
-29 -3 -33 -13z"/>
<path d="M540 661 c0 -65 3 -81 15 -81 10 0 15 10 15 30 0 24 4 30 23 30 37 0
49 14 45 56 -3 39 -3 39 -50 42 l-48 3 0 -80z m60 34 c0 -8 -7 -15 -15 -15 -8
0 -15 7 -15 15 0 8 7 15 15 15 8 0 15 -7 15 -15z"/>
<path d="M660 661 c0 -65 3 -81 15 -81 10 0 15 10 15 30 0 39 27 41 32 3 2
-17 9 -28 18 -28 12 0 15 15 15 75 l0 75 -47 3 -48 3 0 -80z m60 34 c0 -8 -7
-15 -15 -15 -8 0 -15 7 -15 15 0 8 7 15 15 15 8 0 15 -7 15 -15z"/>
<path d="M780 735 c0 -3 9 -23 20 -45 11 -22 20 -55 20 -75 0 -24 4 -35 15
-35 11 0 15 11 15 35 0 20 9 53 20 75 24 47 24 50 6 50 -7 0 -21 -10 -29 -22
l-16 -23 -7 23 c-5 19 -44 34 -44 17z"/>
<path d="M917 734 c-12 -12 4 -24 29 -24 l25 0 -31 -55 c-17 -30 -29 -59 -25
-65 3 -5 26 -10 51 -10 32 0 44 4 44 15 0 9 -9 15 -25 15 -31 0 -31 5 0 55 37
61 34 75 -18 75 -24 0 -47 -3 -50 -6z"/>
<path d="M1034 726 c-3 -7 -4 -42 -2 -77 2 -49 7 -64 18 -64 9 0 16 11 18 28
5 38 32 36 32 -3 0 -20 5 -30 15 -30 12 0 15 16 15 80 l0 80 -45 0 c-29 0 -48
-5 -51 -14z m66 -31 c0 -8 -7 -15 -15 -15 -8 0 -15 7 -15 15 0 8 7 15 15 15 8
0 15 -7 15 -15z"/>
<path d="M1152 663 c2 -61 6 -78 18 -78 9 0 16 11 18 27 3 21 9 27 30 30 25 3
27 7 30 51 l3 47 -51 0 -51 0 3 -77z m68 32 c0 -8 -7 -15 -15 -15 -8 0 -15 7
-15 15 0 8 7 15 15 15 8 0 15 -7 15 -15z"/>
<path d="M1272 663 c2 -61 6 -78 18 -78 9 0 16 11 18 27 3 21 9 27 30 30 25 3
27 7 30 51 l3 47 -51 0 -51 0 3 -77z m68 32 c0 -8 -7 -15 -15 -15 -8 0 -15 7
-15 15 0 8 7 15 15 15 8 0 15 -7 15 -15z"/>
</g>
</svg>
