<?xml version="1.0" standalone="no"?>
<!DOCTYPE svg PUBLIC "-//W3C//DTD SVG 20010904//EN"
 "http://www.w3.org/TR/2001/REC-SVG-20010904/DTD/svg10.dtd">
<svg version="1.0" xmlns="http://www.w3.org/2000/svg"
 width="192.000000pt" height="192.000000pt" viewBox="0 0 192.000000 192.000000"
 preserveAspectRatio="xMidYMid meet">
<metadata>
Created by potrace 1.16, written by Peter Selinger 2001-2019
</metadata>
<g transform="translate(0.000000,192.000000) scale(0.100000,-0.100000)"
fill="#000000" stroke="none">
811 c445 -92 729 -532 635 -987 -62 -301 -295 -546 -601 -630 -91 -26 -329
-26 -420 0 -291 80 -516 305 -596 596 -26 91 -26 329 0 420 120 433 542 692
982 601z"/>
<path d="M906 1355 c-34 -7 -66 -21 -73 -31 -9 -13 -13 -59 -13 -165 0 -81 -3
-150 -7 -152 -5 -3 -38 -8 -75 -12 l-68 -7 0 161 c0 147 -2 161 -17 161 -38 0
-93 -22 -103 -40 -6 -11 -10 -134 -10 -313 0 -283 1 -295 21 -321 17 -21 29
-26 65 -26 l44 0 0 124 0 124 65 11 c36 7 70 9 75 6 6 -4 10 -61 10 -129 0
-144 3 -149 97 -171 32 -8 61 -14 66 -15 4 0 7 182 7 405 0 318 -3 405 -12
404 -7 -1 -40 -7 -72 -14z"/>
<path d="M1021 964 l0 -389 115 120 c197 205 237 253 229 283 -5 21 -247 286
-324 356 l-21 19 1 -389z"/>
<path d="M690 1156 c0 -74 3 -137 8 -139 4 -2 26 -2 50 1 l42 4 0 85 c0 85 0
85 -41 134 -22 27 -45 49 -50 49 -5 0 -9 -60 -9 -134z"/>
<path d="M775 854 c-5 -1 -27 -5 -47 -9 l-38 -6 0 -104 c0 -58 4 -105 9 -105
5 0 28 22 51 49 40 48 41 52 38 114 -2 36 -7 63 -13 61z"/>
</g>
</svg>
