<?xml version="1.0" standalone="no"?>
<!DOCTYPE svg PUBLIC "-//W3C//DTD SVG 20010904//EN"
 "http://www.w3.org/TR/2001/REC-SVG-20010904/DTD/svg10.dtd">
<svg version="1.0" xmlns="http://www.w3.org/2000/svg"
 width="192.000000pt" height="192.000000pt" viewBox="0 0 192.000000 192.000000"
 preserveAspectRatio="xMidYMid meet">
<metadata>
Created by potrace 1.16, written by Peter Selinger 2001-2019
</metadata>
<g transform="translate(0.000000,192.000000) scale(0.100000,-0.100000)"
fill="#000000" stroke="none">
811 c445 -92 729 -532 635 -987 -62 -301 -295 -546 -601 -630 -91 -26 -329
-26 -420 0 -291 80 -516 305 -596 596 -26 91 -26 329 0 420 120 433 542 692
982 601z"/>
<path d="M712 1344 l-22 -15 0 -364 0 -365 25 -16 c46 -30 95 12 95 82 l0 24
145 0 145 0 0 -40 c0 -69 57 -103 100 -60 19 19 20 33 20 373 0 193 -4 357 -8
363 -16 24 -51 35 -74 23 -32 -17 -38 -28 -38 -76 l0 -43 -134 0 c-97 0 -137
-4 -143 -12 -5 -8 -10 10 -14 45 -10 86 -46 117 -97 81z m388 -274 l0 -40
-127 0 c-104 0 -130 -3 -145 -17 -17 -15 -18 -14 -18 40 l0 57 145 0 145 0 0
-40z m0 -215 l0 -45 -129 0 c-122 0 -129 -1 -144 -22 -15 -22 -16 -20 -16 45
l-1 67 145 0 145 0 0 -45z"/>
</g>
</svg>
