<?xml version="1.0" standalone="no"?>
<!DOCTYPE svg PUBLIC "-//W3C//DTD SVG 20010904//EN"
 "http://www.w3.org/TR/2001/REC-SVG-20010904/DTD/svg10.dtd">
<svg version="1.0" xmlns="http://www.w3.org/2000/svg"
 width="192.000000pt" height="192.000000pt" viewBox="0 0 192.000000 192.000000"
 preserveAspectRatio="xMidYMid meet">
<metadata>
Created by potrace 1.16, written by Peter Selinger 2001-2019
</metadata>
<g transform="translate(0.000000,192.000000) scale(0.100000,-0.100000)"
fill="#000000" stroke="none">
811 c445 -92 729 -532 635 -987 -62 -301 -295 -546 -601 -630 -91 -26 -329
-26 -420 0 -291 80 -516 305 -596 596 -26 91 -26 329 0 420 120 433 542 692
982 601z"/>
<path d="M674 1296 c-81 -36 -144 -150 -130 -238 11 -68 33 -98 204 -270 222
-224 191 -224 414 0 182 183 201 212 200 303 0 156 -157 263 -300 204 -22 -9
-89 -67 -163 -141 -122 -122 -155 -143 -167 -106 -2 7 38 56 90 108 90 92 92
96 73 111 -56 43 -158 56 -221 29z"/>
</g>
</svg>
