<?xml version="1.0" standalone="no"?>
<!DOCTYPE svg PUBLIC "-//W3C//DTD SVG 20010904//EN"
 "http://www.w3.org/TR/2001/REC-SVG-20010904/DTD/svg10.dtd">
<svg version="1.0" xmlns="http://www.w3.org/2000/svg"
 width="192.000000pt" height="192.000000pt" viewBox="0 0 192.000000 192.000000"
 preserveAspectRatio="xMidYMid meet">
<metadata>
Created by potrace 1.16, written by Peter Selinger 2001-2019
</metadata>
<g transform="translate(0.000000,192.000000) scale(0.100000,-0.100000)"
fill="#000000" stroke="none">
811 c445 -92 729 -532 635 -987 -62 -301 -295 -546 -601 -630 -91 -26 -329
-26 -420 0 -291 80 -516 305 -596 596 -26 91 -26 329 0 420 120 433 542 692
982 601z"/>
<path d="M851 1364 c-162 -43 -274 -167 -303 -333 -46 -269 191 -508 466 -470
171 23 322 174 346 347 40 290 -229 531 -509 456z m210 -89 c60 -21 136 -81
166 -132 l25 -43 -66 0 -66 0 0 33 c0 22 -8 41 -21 53 -19 17 -23 17 -47 3
-25 -14 -27 -20 -30 -92 l-3 -77 -63 0 -64 0 -4 76 c-3 60 -7 79 -23 90 -26
19 -41 18 -65 -6 -18 -18 -20 -33 -20 -140 l0 -120 -76 0 -77 0 5 73 c9 133
89 237 217 283 49 18 158 17 212 -1z m217 -328 c-7 -82 -38 -151 -95 -209 -67
-69 -128 -93 -233 -93 -78 1 -91 3 -149 35 -58 31 -141 114 -141 141 0 5 27 9
60 9 58 0 60 -1 60 -27 0 -33 26 -63 56 -63 36 0 54 36 54 107 l0 63 65 0 65
0 0 -68 c0 -57 4 -72 20 -87 16 -15 26 -17 48 -9 l27 9 3 128 3 127 81 0 81 0
-5 -63z"/>
</g>
</svg>
