<?xml version="1.0" standalone="no"?>
<!DOCTYPE svg PUBLIC "-//W3C//DTD SVG 20010904//EN"
 "http://www.w3.org/TR/2001/REC-SVG-20010904/DTD/svg10.dtd">
<svg version="1.0" xmlns="http://www.w3.org/2000/svg"
 width="192.000000pt" height="192.000000pt" viewBox="0 0 192.000000 192.000000"
 preserveAspectRatio="xMidYMid meet">
<metadata>
Created by potrace 1.16, written by Peter Selinger 2001-2019
</metadata>
<g transform="translate(0.000000,192.000000) scale(0.100000,-0.100000)"
fill="#000000" stroke="none">
811 c445 -92 729 -532 635 -987 -62 -301 -295 -546 -601 -630 -91 -26 -329
-26 -420 0 -291 80 -516 305 -596 596 -26 91 -26 329 0 420 120 433 542 692
982 601z"/>
<path d="M724 1314 c-52 -26 -66 -64 -62 -179 l3 -100 170 -3 c145 -2 172 -5
183 -19 8 -12 12 -61 12 -157 l0 -141 70 -43 c90 -55 104 -53 108 16 3 46 6
52 25 52 36 0 87 38 103 75 10 26 14 81 14 220 0 209 -7 241 -62 275 -31 19
-50 20 -283 20 -205 0 -256 -3 -281 -16z"/>
<path d="M589 981 c-23 -18 -24 -27 -27 -143 -3 -143 6 -171 55 -176 23 -2 33
-9 37 -26 9 -38 34 -39 86 -6 43 27 54 30 132 30 118 0 118 0 118 173 0 176
12 167 -211 167 -149 0 -169 -2 -190 -19z"/>
</g>
</svg>
