<?xml version="1.0" standalone="no"?>
<!DOCTYPE svg PUBLIC "-//W3C//DTD SVG 20010904//EN"
 "http://www.w3.org/TR/2001/REC-SVG-20010904/DTD/svg10.dtd">
<svg version="1.0" xmlns="http://www.w3.org/2000/svg"
 width="192.000000pt" height="192.000000pt" viewBox="0 0 192.000000 192.000000"
 preserveAspectRatio="xMidYMid meet">
<metadata>
Created by potrace 1.16, written by Peter Selinger 2001-2019
</metadata>
<g transform="translate(0.000000,192.000000) scale(0.100000,-0.100000)"
fill="#000000" stroke="none">
811 c445 -92 729 -532 635 -987 -62 -301 -295 -546 -601 -630 -91 -26 -329
-26 -420 0 -291 80 -516 305 -596 596 -26 91 -26 329 0 420 120 433 542 692
982 601z"/>
<path d="M450 1116 l0 -116 25 0 c23 0 25 3 25 50 l0 50 40 0 40 0 0 -50 c0
-47 2 -50 25 -50 l25 0 0 116 c0 114 0 115 -22 112 -19 -2 -24 -10 -26 -45 -3
-43 -3 -43 -42 -43 -39 0 -39 0 -42 43 -2 35 -7 43 -25 45 -23 3 -23 2 -23
-112z"/>
<path d="M1230 1210 c0 -13 7 -20 20 -20 13 0 20 7 20 20 0 13 -7 20 -20 20
-13 0 -20 -7 -20 -20z"/>
<path d="M690 1152 c-13 -10 -23 -33 -27 -58 -7 -55 28 -98 80 -98 34 0 77 26
77 46 0 12 -37 10 -59 -4 -15 -9 -23 -9 -35 1 -28 23 -18 31 39 31 54 0 55 0
55 30 0 61 -79 93 -130 52z m84 -37 c4 -12 -3 -15 -29 -15 -33 0 -43 8 -28 23
12 13 51 7 57 -8z"/>
<path d="M850 1048 c0 -118 0 -119 23 -116 18 2 23 10 25 40 3 35 4 36 27 26
49 -22 103 42 90 108 -9 49 -31 62 -102 61 l-63 0 0 -119z m113 61 c13 -20 1
-68 -18 -76 -24 -8 -45 16 -45 52 0 17 3 35 7 39 12 11 45 2 56 -15z"/>
<path d="M1054 1145 c-24 -36 -10 -63 41 -77 51 -15 61 -32 23 -36 -16 -2 -28
1 -28 7 0 6 -12 11 -26 11 -40 0 -26 -32 22 -49 34 -12 44 -12 70 0 24 12 29
20 29 49 0 33 -3 36 -47 49 -27 8 -48 18 -48 23 0 17 31 20 49 4 35 -32 65
-10 31 24 -30 30 -94 28 -116 -5z"/>
<path d="M1230 1085 c0 -78 2 -85 20 -85 18 0 20 7 20 85 0 78 -2 85 -20 85
-18 0 -20 -7 -20 -85z"/>
<path d="M440 825 l0 -115 40 2 c22 1 43 -1 46 -5 3 -3 18 -1 33 4 51 18 67
95 30 143 -22 28 -66 35 -87 14 -9 -9 -12 -3 -12 30 0 38 -2 42 -25 42 l-25 0
0 -115z m115 -29 c0 -46 -23 -68 -49 -47 -16 14 -22 72 -9 85 4 4 19 6 33 4
22 -3 25 -8 25 -42z"/>
<path d="M1230 907 c0 -32 -1 -32 -38 -29 -51 5 -77 -24 -77 -84 0 -48 27 -85
61 -85 10 1 38 1 62 1 l42 0 0 115 0 115 -25 0 c-22 0 -25 -4 -25 -33z m-2
-105 c3 -32 -11 -62 -29 -62 -31 0 -51 64 -27 88 24 24 53 10 56 -26z"/>
<path d="M630 816 c0 -70 19 -107 55 -107 11 1 39 1 63 1 l42 0 0 85 c0 84 0
85 -25 85 -24 0 -25 -3 -25 -60 0 -46 -4 -61 -17 -68 -34 -17 -43 -3 -43 64 0
62 -1 64 -25 64 -24 0 -25 -2 -25 -64z"/>
<path d="M830 795 c0 -78 2 -85 20 -85 17 0 20 7 20 49 0 51 17 81 46 81 8 0
14 9 14 20 0 23 -29 27 -48 8 -9 -9 -12 -9 -12 0 0 7 -9 12 -20 12 -18 0 -20
-7 -20 -85z"/>
<path d="M957 862 c-10 -10 -17 -24 -17 -30 0 -17 35 -15 50 3 15 18 20 18 40
5 13 -9 13 -11 0 -20 -8 -5 -25 -10 -37 -10 -25 0 -63 -32 -63 -53 0 -22 24
-48 45 -47 11 0 41 0 66 0 l46 1 -5 72 c-2 39 -9 78 -14 85 -16 19 -92 15
-111 -6z m73 -107 c-7 -8 -21 -15 -32 -15 -28 0 -19 33 12 40 29 7 37 -4 20
-25z"/>
<path d="M1326 858 c-9 -12 -16 -26 -16 -30 0 -14 43 -8 54 8 7 9 18 12 29 8
25 -9 21 -23 -10 -30 -59 -12 -73 -22 -73 -54 0 -38 36 -65 71 -52 13 5 38 7
54 5 l30 -5 -3 69 c-5 84 -19 103 -78 103 -33 0 -46 -5 -58 -22z m80 -104 c-7
-19 -51 -15 -51 6 0 15 48 32 53 18 2 -5 1 -16 -2 -24z"/>
</g>
</svg>
