<?xml version="1.0" standalone="no"?>
<!DOCTYPE svg PUBLIC "-//W3C//DTD SVG 20010904//EN"
 "http://www.w3.org/TR/2001/REC-SVG-20010904/DTD/svg10.dtd">
<svg version="1.0" xmlns="http://www.w3.org/2000/svg"
 width="192.000000pt" height="192.000000pt" viewBox="0 0 192.000000 192.000000"
 preserveAspectRatio="xMidYMid meet">
<metadata>
Created by potrace 1.16, written by Peter Selinger 2001-2019
</metadata>
<g transform="translate(0.000000,192.000000) scale(0.100000,-0.100000)"
fill="#000000" stroke="none">
811 c445 -92 729 -532 635 -987 -62 -301 -295 -546 -601 -630 -91 -26 -329
-26 -420 0 -291 80 -516 305 -596 596 -26 91 -26 329 0 420 120 433 542 692
982 601z"/>
<path d="M905 1369 c-69 -9 -142 -48 -193 -103 -107 -116 -117 -265 -31 -427
47 -88 54 -92 162 -93 74 -1 100 -5 134 -23 51 -28 60 -40 40 -60 -13 -13 -18
-13 -45 1 -43 22 -118 37 -148 30 l-25 -7 28 -29 c47 -50 119 -98 147 -98 60
0 236 206 287 337 31 80 32 208 1 275 -62 137 -205 216 -357 197z m141 -160
c81 -76 68 -194 -26 -241 -67 -34 -145 -13 -187 51 -39 58 -27 137 29 187 33
30 46 34 106 30 39 -2 59 -9 78 -27z"/>
<path d="M907 1142 c-37 -41 -6 -112 48 -112 55 0 87 77 47 113 -25 22 -75 21
-95 -1z"/>
</g>
</svg>
