<?xml version="1.0" standalone="no"?>
<!DOCTYPE svg PUBLIC "-//W3C//DTD SVG 20010904//EN"
 "http://www.w3.org/TR/2001/REC-SVG-20010904/DTD/svg10.dtd">
<svg version="1.0" xmlns="http://www.w3.org/2000/svg"
 width="192.000000pt" height="192.000000pt" viewBox="0 0 192.000000 192.000000"
 preserveAspectRatio="xMidYMid meet">
<metadata>
Created by potrace 1.16, written by Peter Selinger 2001-2019
</metadata>
<g transform="translate(0.000000,192.000000) scale(0.100000,-0.100000)"
fill="#000000" stroke="none">
811 c445 -92 729 -532 635 -987 -62 -301 -295 -546 -601 -630 -91 -26 -329
-26 -420 0 -291 80 -516 305 -596 596 -26 91 -26 329 0 420 120 433 542 692
982 601z"/>
<path d="M626 1288 c-10 -13 -16 -43 -16 -73 0 -79 17 -95 100 -95 89 0 100
10 100 95 0 85 -11 95 -100 95 -60 0 -71 -3 -84 -22z"/>
<path d="M866 1288 c-10 -13 -16 -43 -16 -73 0 -79 17 -95 100 -95 88 0 100
11 100 91 0 92 -7 99 -95 99 -65 0 -76 -3 -89 -22z"/>
<path d="M1106 1288 c-10 -13 -16 -43 -16 -73 0 -79 17 -95 100 -95 88 0 100
11 100 91 0 92 -7 99 -95 99 -65 0 -76 -3 -89 -22z"/>
<path d="M626 1038 c-10 -14 -16 -44 -16 -76 0 -44 5 -57 26 -79 23 -23 31
-25 86 -21 76 6 88 20 88 103 0 82 -14 95 -103 95 -57 0 -68 -3 -81 -22z"/>
<path d="M866 1038 c-10 -14 -16 -44 -16 -76 0 -44 5 -57 26 -79 23 -23 31
-25 84 -21 81 6 90 16 90 99 0 89 -10 99 -100 99 -60 0 -71 -3 -84 -22z"/>
<path d="M1106 1038 c-10 -14 -16 -44 -16 -76 0 -44 5 -57 26 -79 23 -23 31
-25 86 -21 76 6 88 20 88 103 0 82 -14 95 -103 95 -57 0 -68 -3 -81 -22z"/>
<path d="M630 790 c-16 -16 -20 -33 -20 -80 0 -81 18 -100 98 -100 87 0 102
15 102 99 0 88 -13 101 -98 101 -49 0 -66 -4 -82 -20z"/>
<path d="M876 797 c-20 -15 -33 -90 -22 -131 11 -43 33 -56 94 -56 87 0 102
15 102 99 0 87 -13 101 -96 101 -34 0 -68 -6 -78 -13z"/>
<path d="M1109 789 c-18 -18 -21 -30 -17 -86 5 -80 19 -93 98 -93 84 0 100 15
100 99 0 88 -13 101 -98 101 -50 0 -66 -4 -83 -21z"/>
</g>
</svg>
