<?xml version="1.0" standalone="no"?>
<!DOCTYPE svg PUBLIC "-//W3C//DTD SVG 20010904//EN"
 "http://www.w3.org/TR/2001/REC-SVG-20010904/DTD/svg10.dtd">
<svg version="1.0" xmlns="http://www.w3.org/2000/svg"
 width="192.000000pt" height="192.000000pt" viewBox="0 0 192.000000 192.000000"
 preserveAspectRatio="xMidYMid meet">
<metadata>
Created by potrace 1.16, written by Peter Selinger 2001-2019
</metadata>
<g transform="translate(0.000000,192.000000) scale(0.100000,-0.100000)"
fill="#000000" stroke="none">
811 c445 -92 729 -532 635 -987 -62 -301 -295 -546 -601 -630 -91 -26 -329
-26 -420 0 -291 80 -516 305 -596 596 -26 91 -26 329 0 420 120 433 542 692
982 601z"/>
<path d="M712 1284 c-73 -15 -117 -38 -143 -74 -24 -33 -34 -182 -24 -355 7
-124 8 -130 35 -155 50 -47 199 -81 247 -56 48 24 58 44 64 129 6 91 9 95 125
167 75 46 104 97 104 183 0 56 1 57 28 56 15 0 43 -5 62 -12 33 -11 35 -15 42
-67 8 -75 9 -227 2 -284 -8 -52 -15 -58 -91 -71 l-43 -7 0 70 c0 96 -33 129
-80 82 -17 -17 -20 -33 -20 -106 0 -84 1 -87 34 -120 39 -39 59 -41 155 -19
79 19 125 46 140 83 8 20 11 97 9 252 l-3 222 -33 28 c-39 33 -96 51 -179 58
-59 4 -63 3 -92 -26 -28 -27 -31 -37 -31 -94 0 -35 -6 -74 -13 -88 -7 -14 -41
-44 -76 -67 -35 -23 -77 -54 -93 -70 -31 -30 -58 -105 -58 -165 0 -43 1 -43
-67 -23 -62 19 -63 21 -63 231 0 125 3 155 16 168 8 9 18 16 22 16 4 1 26 5
50 9 l42 8 0 -61 c0 -71 18 -106 55 -106 39 0 55 35 55 118 0 136 -47 175
-178 146z"/>
</g>
</svg>
