<?xml version="1.0" standalone="no"?>
<!DOCTYPE svg PUBLIC "-//W3C//DTD SVG 20010904//EN"
 "http://www.w3.org/TR/2001/REC-SVG-20010904/DTD/svg10.dtd">
<svg version="1.0" xmlns="http://www.w3.org/2000/svg"
 width="192.000000pt" height="192.000000pt" viewBox="0 0 192.000000 192.000000"
 preserveAspectRatio="xMidYMid meet">
<metadata>
Created by potrace 1.16, written by Peter Selinger 2001-2019
</metadata>
<g transform="translate(0.000000,192.000000) scale(0.100000,-0.100000)"
fill="#000000" stroke="none">
811 c445 -92 729 -532 635 -987 -62 -301 -295 -546 -601 -630 -91 -26 -329
-26 -420 0 -291 80 -516 305 -596 596 -26 91 -26 329 0 420 120 433 542 692
982 601z"/>
<path d="M935 1382 c-34 -7 -320 -182 -335 -205 -12 -17 -16 -65 -18 -204 -5
-240 -12 -226 171 -337 79 -47 150 -86 159 -86 22 0 40 25 36 51 -2 17 -37 43
-138 104 l-135 81 -3 171 -2 171 137 83 c75 45 142 82 148 82 6 0 73 -37 148
-82 l137 -82 0 -159 c0 -131 3 -161 16 -174 20 -21 30 -20 55 5 20 20 20 29
17 189 -3 161 -4 170 -27 194 -26 28 -295 190 -326 198 -11 2 -29 2 -40 0z"/>
<path d="M837 1153 c-4 -3 -7 -19 -7 -35 0 -23 -4 -28 -23 -28 -24 0 -57 -28
-57 -48 0 -19 31 -42 56 -42 22 0 24 -4 24 -45 0 -43 -1 -45 -30 -45 -42 0
-62 -40 -35 -70 10 -11 28 -20 41 -20 18 0 23 -6 26 -32 2 -26 8 -34 26 -36
30 -5 52 14 52 44 0 22 4 24 45 24 40 0 45 -3 45 -22 0 -36 15 -50 46 -46 25
2 29 8 32 36 3 26 8 32 26 32 13 0 31 9 41 20 27 30 7 70 -35 70 -29 0 -30 2
-30 45 0 41 2 45 24 45 26 0 56 23 56 44 0 19 -34 46 -58 46 -16 0 -21 7 -24
33 -3 27 -7 33 -32 35 -31 4 -46 -10 -46 -45 0 -20 -5 -23 -45 -23 -38 0 -45
3 -45 19 0 36 -12 51 -39 51 -15 0 -31 -3 -34 -7z m163 -198 l0 -45 -45 0 -45
0 0 45 0 45 45 0 45 0 0 -45z"/>
</g>
</svg>
