<?xml version="1.0" standalone="no"?>
<!DOCTYPE svg PUBLIC "-//W3C//DTD SVG 20010904//EN"
 "http://www.w3.org/TR/2001/REC-SVG-20010904/DTD/svg10.dtd">
<svg version="1.0" xmlns="http://www.w3.org/2000/svg"
 width="192.000000pt" height="192.000000pt" viewBox="0 0 192.000000 192.000000"
 preserveAspectRatio="xMidYMid meet">
<metadata>
Created by potrace 1.16, written by Peter Selinger 2001-2019
</metadata>
<g transform="translate(0.000000,192.000000) scale(0.100000,-0.100000)"
fill="#000000" stroke="none">
811 c445 -92 729 -532 635 -987 -62 -301 -295 -546 -601 -630 -91 -26 -329
-26 -420 0 -291 80 -516 305 -596 596 -26 91 -26 329 0 420 120 433 542 692
982 601z"/>
<path d="M859 1342 c-166 -87 -233 -135 -256 -182 -21 -40 -23 -59 -23 -190 0
-80 5 -162 10 -182 14 -48 51 -79 195 -163 163 -95 177 -95 339 -1 206 121
206 120 206 338 -1 225 2 222 -236 357 -125 71 -142 72 -235 23z m-21 -225 l3
-67 114 0 115 0 0 64 c0 36 5 68 10 71 6 4 32 -6 58 -21 86 -49 82 -39 82
-205 l0 -148 -60 -36 c-79 -48 -90 -43 -90 40 l0 65 -115 0 -115 0 0 -65 c0
-47 -4 -67 -14 -71 -13 -5 -114 50 -128 70 -4 6 -8 74 -8 152 0 157 -4 148 80
197 25 15 50 25 55 24 6 -2 11 -34 13 -70z"/>
</g>
</svg>
