<?xml version="1.0" standalone="no"?>
<!DOCTYPE svg PUBLIC "-//W3C//DTD SVG 20010904//EN"
 "http://www.w3.org/TR/2001/REC-SVG-20010904/DTD/svg10.dtd">
<svg version="1.0" xmlns="http://www.w3.org/2000/svg"
 width="192.000000pt" height="192.000000pt" viewBox="0 0 192.000000 192.000000"
 preserveAspectRatio="xMidYMid meet">
<metadata>
Created by potrace 1.16, written by Peter Selinger 2001-2019
</metadata>
<g transform="translate(0.000000,192.000000) scale(0.100000,-0.100000)"
fill="#000000" stroke="none">
811 c445 -92 729 -532 635 -987 -62 -301 -295 -546 -601 -630 -91 -26 -329
-26 -420 0 -291 80 -516 305 -596 596 -26 91 -26 329 0 420 120 433 542 692
982 601z"/>
<path d="M736 1344 c-68 -21 -139 -94 -160 -165 -20 -66 -23 -308 -4 -327 8
-8 48 -12 114 -12 l102 0 7 -37 c11 -59 51 -128 97 -167 133 -114 346 -70 422
87 35 71 42 131 22 199 -31 106 -107 179 -211 201 -49 10 -54 13 -59 43 -14
73 -102 161 -185 184 -48 13 -86 12 -145 -6z m22 -217 c6 -49 -65 -70 -89 -25
-23 43 25 89 66 63 11 -7 21 -24 23 -38z m210 0 c6 -49 -65 -70 -89 -25 -23
43 25 89 66 63 11 -7 21 -24 23 -38z m266 -226 c35 -39 -16 -97 -63 -72 -23
13 -29 59 -9 79 18 18 53 14 72 -7z"/>
<path d="M1175 1330 c-17 -19 -17 -21 0 -40 17 -19 17 -21 0 -40 -17 -19 -17
-21 0 -40 17 -19 20 -19 42 -4 22 14 26 14 41 0 33 -29 71 21 40 52 -9 9 -9
15 0 24 16 16 15 43 -3 58 -13 10 -19 10 -35 -5 -19 -17 -21 -17 -38 -2 -23
21 -25 21 -47 -3z"/>
<path d="M615 725 c-37 -36 -34 -86 6 -119 38 -32 70 -33 105 -2 21 18 28 32
28 61 0 74 -88 112 -139 60z m82 -69 c-8 -20 -43 -21 -51 -1 -3 8 2 22 11 30
14 15 18 15 31 1 8 -8 12 -22 9 -30z"/>
</g>
</svg>
