<?xml version="1.0" standalone="no"?>
<!DOCTYPE svg PUBLIC "-//W3C//DTD SVG 20010904//EN"
 "http://www.w3.org/TR/2001/REC-SVG-20010904/DTD/svg10.dtd">
<svg version="1.0" xmlns="http://www.w3.org/2000/svg"
 width="192.000000pt" height="192.000000pt" viewBox="0 0 192.000000 192.000000"
 preserveAspectRatio="xMidYMid meet">
<metadata>
Created by potrace 1.16, written by Peter Selinger 2001-2019
</metadata>
<g transform="translate(0.000000,192.000000) scale(0.100000,-0.100000)"
fill="#000000" stroke="none">
811 c445 -92 729 -532 635 -987 -62 -301 -295 -546 -601 -630 -91 -26 -329
-26 -420 0 -291 80 -516 305 -596 596 -26 91 -26 329 0 420 120 433 542 692
982 601z"/>
<path d="M660 1354 c-46 -20 -68 -41 -93 -89 -28 -54 -27 -130 3 -183 41 -73
102 -102 212 -102 116 0 158 42 158 158 0 69 -13 114 -48 161 -47 63 -154 89
-232 55z"/>
<path d="M1085 1353 c-81 -43 -114 -103 -115 -211 0 -125 36 -162 160 -162
108 0 171 33 211 112 21 41 25 111 8 155 -14 38 -67 92 -106 109 -43 18 -121
17 -158 -3z"/>
<path d="M660 924 c-46 -20 -68 -41 -93 -89 -49 -95 -11 -211 85 -259 57 -28
97 -32 149 -14 85 29 129 94 137 198 10 138 -29 180 -163 180 -48 -1 -94 -7
-115 -16z"/>
<path d="M1005 907 c-34 -34 -35 -36 -35 -118 1 -124 35 -187 122 -224 47 -19
99 -19 146 0 147 62 166 255 34 346 -30 21 -50 24 -134 27 l-98 4 -35 -35z"/>
</g>
</svg>
