<?xml version="1.0" standalone="no"?>
<!DOCTYPE svg PUBLIC "-//W3C//DTD SVG 20010904//EN"
 "http://www.w3.org/TR/2001/REC-SVG-20010904/DTD/svg10.dtd">
<svg version="1.0" xmlns="http://www.w3.org/2000/svg"
 width="192.000000pt" height="192.000000pt" viewBox="0 0 192.000000 192.000000"
 preserveAspectRatio="xMidYMid meet">
<metadata>
Created by potrace 1.16, written by Peter Selinger 2001-2019
</metadata>
<g transform="translate(0.000000,192.000000) scale(0.100000,-0.100000)"
fill="#000000" stroke="none">
810 c245 -63 441 -223 549 -451 55 -116 75 -212 75 -354 0 -141 -20 -238 -75
-352 -86 -182 -215 -312 -396 -398 -116 -55 -212 -75 -354 -75 -142 0 -238 20
-354 75 -228 108 -388 304 -451 549 -28 110 -28 292 0 402 76 298 303 526 600
603 106 28 298 28 406 1z"/>
<path d="M1065 1159 c-4 -6 -16 -48 -25 -93 -15 -69 -16 -83 -4 -96 11 -13 10
-17 -6 -28 -23 -14 -28 -79 -9 -114 16 -30 92 -59 156 -59 136 0 220 106 173
220 -21 51 -115 78 -183 52 -22 -8 -24 -7 -20 9 4 17 16 20 92 22 l86 3 0 45
0 45 -127 3 c-86 2 -129 -1 -133 -9z m131 -213 c10 -43 0 -80 -25 -93 -40 -19
-60 -2 -54 47 5 37 3 42 -18 48 -21 6 -19 8 16 13 70 11 74 10 81 -15z"/>
<path d="M547 1114 c-11 -11 -8 -52 4 -56 5 -2 13 -38 16 -81 5 -67 3 -79 -11
-90 -11 -8 -17 -23 -14 -38 3 -23 7 -24 68 -24 l65 0 0 69 c0 49 4 70 14 74
10 3 12 -11 10 -69 l-4 -74 65 0 c61 0 65 2 68 24 2 13 -1 28 -7 34 -6 6 -11
35 -11 64 0 40 -5 58 -20 73 -26 26 -72 26 -96 -1 -19 -21 -19 -21 -24 37 l-5
59 -55 3 c-31 2 -59 0 -63 -4z"/>
<path d="M884 1085 c-12 -29 4 -46 38 -43 28 2 34 8 36 31 3 25 1 27 -33 27
-22 0 -38 -6 -41 -15z"/>
<path d="M840 1000 c0 -20 5 -30 15 -30 21 0 21 -76 -1 -84 -10 -4 -14 -15
-12 -33 3 -28 4 -28 73 -28 69 0 70 0 73 28 2 18 -2 29 -12 33 -12 5 -16 22
-16 75 l0 69 -60 0 -60 0 0 -30z"/>
</g>
</svg>
