<?xml version="1.0" standalone="no"?>
<!DOCTYPE svg PUBLIC "-//W3C//DTD SVG 20010904//EN"
 "http://www.w3.org/TR/2001/REC-SVG-20010904/DTD/svg10.dtd">
<svg version="1.0" xmlns="http://www.w3.org/2000/svg"
 width="192.000000pt" height="192.000000pt" viewBox="0 0 192.000000 192.000000"
 preserveAspectRatio="xMidYMid meet">
<metadata>
Created by potrace 1.16, written by Peter Selinger 2001-2019
</metadata>
<g transform="translate(0.000000,192.000000) scale(0.100000,-0.100000)"
fill="#000000" stroke="none">
811 c445 -92 729 -532 635 -987 -62 -301 -295 -546 -601 -630 -91 -26 -329
-26 -420 0 -291 80 -516 305 -596 596 -26 91 -26 329 0 420 120 433 542 692
982 601z"/>
<path d="M856 1369 c-65 -16 -153 -69 -202 -121 -114 -122 -150 -338 -64 -383
41 -21 75 -19 106 8 22 19 29 36 35 90 5 36 17 84 28 106 55 106 196 150 296
92 46 -27 75 -31 111 -16 63 26 75 107 24 155 -65 61 -231 95 -334 69z"/>
<path d="M1199 1051 c-24 -25 -29 -37 -29 -81 0 -128 -92 -219 -221 -220 -41
0 -69 7 -103 25 -63 34 -100 32 -137 -4 -58 -58 -32 -129 64 -174 227 -108
486 3 566 241 12 34 21 87 21 117 0 88 -27 124 -93 125 -29 0 -45 -7 -68 -29z"/>
</g>
</svg>
