<?xml version="1.0" standalone="no"?>
<!DOCTYPE svg PUBLIC "-//W3C//DTD SVG 20010904//EN"
 "http://www.w3.org/TR/2001/REC-SVG-20010904/DTD/svg10.dtd">
<svg version="1.0" xmlns="http://www.w3.org/2000/svg"
 width="192.000000pt" height="192.000000pt" viewBox="0 0 192.000000 192.000000"
 preserveAspectRatio="xMidYMid meet">
<metadata>
Created by potrace 1.16, written by Peter Selinger 2001-2019
</metadata>
<g transform="translate(0.000000,192.000000) scale(0.100000,-0.100000)"
fill="#000000" stroke="none">
811 c445 -92 729 -532 635 -987 -62 -301 -295 -546 -601 -630 -91 -26 -329
-26 -420 0 -291 80 -516 305 -596 596 -26 91 -26 329 0 420 120 433 542 692
982 601z"/>
<path d="M730 1211 c-85 -28 -151 -93 -174 -172 -20 -66 -20 -82 0 -148 18
-61 70 -123 128 -154 58 -30 165 -30 224 1 23 12 42 25 42 28 0 3 -11 17 -25
32 -65 70 -83 177 -42 264 13 29 34 63 46 75 11 12 21 25 21 27 0 3 -19 15
-42 27 -45 23 -138 34 -178 20z m16 -162 c10 -12 30 -26 44 -32 25 -10 25 -11
3 -14 -20 -4 -22 -11 -25 -66 -4 -81 -22 -80 -26 1 -3 54 -6 62 -22 62 -13 0
-20 -7 -20 -20 0 -13 -7 -20 -20 -20 -24 0 -37 -27 -22 -42 8 -8 18 -8 36 0
28 12 41 5 25 -15 -6 -7 -27 -13 -45 -13 -27 0 -37 6 -45 24 -13 27 3 66 26
66 8 0 15 5 15 10 0 6 -13 10 -30 10 -16 0 -30 5 -30 10 0 6 18 10 41 10 25 0
38 4 34 10 -11 17 3 40 23 40 10 0 27 -10 38 -21z"/>
<path d="M710 1035 c0 -8 7 -15 16 -15 14 0 14 3 4 15 -7 8 -14 15 -16 15 -2
0 -4 -7 -4 -15z"/>
<path d="M1050 1211 c-31 -10 -90 -40 -90 -46 0 -3 15 -25 34 -49 68 -89 68
-213 0 -301 -19 -25 -34 -47 -34 -50 0 -2 18 -14 40 -25 166 -85 360 37 360
225 0 113 -70 209 -174 240 -53 16 -96 18 -136 6z m218 -183 c-3 -7 -16 -14
-31 -16 -25 -3 -26 -6 -29 -69 -2 -42 -8 -68 -15 -71 -10 -3 -13 15 -13 67 0
63 -2 71 -19 71 -26 0 -51 10 -51 21 0 5 36 9 81 9 60 0 80 -3 77 -12z"/>
</g>
</svg>
