<?xml version="1.0" standalone="no"?>
<!DOCTYPE svg PUBLIC "-//W3C//DTD SVG 20010904//EN"
 "http://www.w3.org/TR/2001/REC-SVG-20010904/DTD/svg10.dtd">
<svg version="1.0" xmlns="http://www.w3.org/2000/svg"
 width="192.000000pt" height="192.000000pt" viewBox="0 0 192.000000 192.000000"
 preserveAspectRatio="xMidYMid meet">
<metadata>
Created by potrace 1.16, written by Peter Selinger 2001-2019
</metadata>
<g transform="translate(0.000000,192.000000) scale(0.100000,-0.100000)"
fill="#000000" stroke="none">
811 c445 -92 729 -532 635 -987 -62 -301 -295 -546 -601 -630 -91 -26 -329
-26 -420 0 -291 80 -516 305 -596 596 -26 91 -26 329 0 420 120 433 542 692
982 601z"/>
<path d="M887 1316 c-19 -20 -37 -36 -41 -36 -3 0 -20 -16 -37 -35 -54 -61
-85 -78 -120 -66 -16 5 -27 6 -24 1 3 -4 -1 -10 -7 -13 -9 -3 -6 -12 10 -29
28 -31 75 -27 90 8 7 13 23 26 39 29 45 9 77 29 90 55 16 32 41 50 71 50 13 0
32 5 43 11 20 10 20 11 -4 29 -13 10 -36 22 -50 25 -23 6 -33 1 -60 -29z"/>
<path d="M1125 1330 c-11 -5 -30 -9 -43 -9 -13 -1 -40 -12 -60 -26 -20 -14
-48 -25 -62 -25 -15 0 -34 -6 -44 -13 -18 -13 -18 -16 -1 -66 14 -43 23 -55
57 -72 49 -25 64 -20 84 26 13 32 18 35 54 35 29 0 48 -7 74 -30 31 -27 34
-34 29 -70 -4 -30 -2 -40 8 -40 10 -1 9 -4 -3 -11 -12 -6 -19 -24 -20 -47 -1
-37 -1 -37 -5 -5 l-4 33 -30 -16 c-30 -15 -31 -15 -69 25 -25 25 -52 42 -74
46 -21 4 -33 12 -30 19 3 7 -11 19 -30 29 -27 12 -38 26 -47 57 -7 22 -15 40
-19 40 -3 0 -28 -29 -55 -65 -45 -59 -85 -84 -85 -54 0 8 -5 7 -15 -1 -12 -10
-21 -10 -40 -2 -21 10 -27 8 -40 -10 -11 -17 -12 -24 -2 -30 9 -5 7 -8 -4 -8
-19 0 -29 -20 -29 -56 0 -18 4 -22 18 -18 12 4 10 0 -7 -15 -16 -14 -25 -36
-29 -66 -3 -34 -12 -51 -31 -66 -25 -20 -25 -21 -7 -35 17 -12 23 -12 43 2 16
10 35 13 53 9 23 -5 30 -2 35 14 3 12 3 30 0 42 -7 23 12 79 27 79 5 0 17 -4
27 -9 13 -8 35 4 100 55 46 35 91 64 100 64 48 0 55 -78 15 -158 -53 -106
-162 -189 -236 -179 -21 3 -38 2 -38 -1 0 -3 10 -20 22 -38 54 -78 162 -97
253 -45 62 36 131 108 156 166 17 38 24 44 59 50 22 4 42 11 46 16 3 5 -6 24
-20 42 -15 19 -26 37 -26 42 0 4 16 -13 35 -39 20 -25 43 -46 52 -46 23 0 83
68 83 95 0 42 -12 57 -64 81 -31 15 -43 24 -30 24 17 0 23 10 34 55 11 44 16
53 27 44 20 -17 46 7 33 31 -5 9 -7 20 -4 22 8 9 -126 128 -144 128 -9 0 -26
2 -37 5 -11 2 -29 0 -40 -5z m190 -139 c-12 -12 -19 -9 -52 16 -64 51 -78 70
-63 88 10 12 20 7 70 -38 50 -44 57 -54 45 -66z m-150 99 c3 -6 -4 -10 -17
-10 -13 0 -34 -3 -48 -5 -22 -5 -21 -3 5 9 36 18 52 19 60 6z m-121 -49 c10
-11 15 -25 10 -32 -5 -9 -10 -6 -15 9 -5 12 -15 22 -24 22 -8 0 -15 5 -15 10
0 17 26 11 44 -9z m-304 -199 c-8 -3 -34 -13 -57 -23 -24 -10 -43 -15 -43 -10
0 12 93 51 104 43 6 -3 4 -8 -4 -10z m594 -58 c10 -25 7 -54 -5 -54 -6 0 -9 7
-5 15 3 8 -1 21 -9 29 -19 18 -19 26 -1 26 8 0 17 -7 20 -16z m-649 -35 c11
-16 -16 -99 -31 -99 -17 0 -18 35 -3 79 11 32 23 39 34 20z"/>
<path d="M815 933 c-77 -78 -64 -153 15 -87 32 28 60 73 60 99 0 25 -45 18
-75 -12z"/>
</g>
</svg>
