<?xml version="1.0" standalone="no"?>
<!DOCTYPE svg PUBLIC "-//W3C//DTD SVG 20010904//EN"
 "http://www.w3.org/TR/2001/REC-SVG-20010904/DTD/svg10.dtd">
<svg version="1.0" xmlns="http://www.w3.org/2000/svg"
 width="192.000000pt" height="192.000000pt" viewBox="0 0 192.000000 192.000000"
 preserveAspectRatio="xMidYMid meet">
<metadata>
Created by potrace 1.16, written by Peter Selinger 2001-2019
</metadata>
<g transform="translate(0.000000,192.000000) scale(0.100000,-0.100000)"
fill="#000000" stroke="none">
811 c445 -92 729 -532 635 -987 -62 -301 -295 -546 -601 -630 -91 -26 -329
-26 -420 0 -291 80 -516 305 -596 596 -26 91 -26 329 0 420 120 433 542 692
982 601z"/>
<path d="M623 1333 c-18 -7 -19 -703 -1 -721 16 -16 90 -15 110 0 14 11 17 39
20 165 3 135 5 155 24 180 14 19 32 29 54 31 82 8 100 -18 100 -149 0 -120 14
-172 56 -209 39 -34 83 -44 160 -38 62 5 99 28 129 79 18 31 20 52 20 216 0
179 0 182 -25 208 -20 22 -32 25 -70 23 l-45 -3 -5 -199 c-4 -171 -7 -200 -22
-209 -12 -8 -21 -7 -31 1 -12 10 -16 43 -19 145 -3 114 -6 138 -27 180 -47 95
-159 133 -253 84 l-48 -24 0 97 c0 92 -1 99 -26 124 -26 25 -68 33 -101 19z"/>
<path d="M1163 1294 c-21 -21 -24 -32 -19 -62 10 -67 76 -93 130 -51 20 16 26
29 26 58 0 75 -83 109 -137 55z"/>
</g>
</svg>
