<?xml version="1.0" standalone="no"?>
<!DOCTYPE svg PUBLIC "-//W3C//DTD SVG 20010904//EN"
 "http://www.w3.org/TR/2001/REC-SVG-20010904/DTD/svg10.dtd">
<svg version="1.0" xmlns="http://www.w3.org/2000/svg"
 width="192.000000pt" height="192.000000pt" viewBox="0 0 192.000000 192.000000"
 preserveAspectRatio="xMidYMid meet">
<metadata>
Created by potrace 1.16, written by Peter Selinger 2001-2019
</metadata>
<g transform="translate(0.000000,192.000000) scale(0.100000,-0.100000)"
fill="#000000" stroke="none">
811 c445 -92 729 -532 635 -987 -62 -301 -295 -546 -601 -630 -91 -26 -329
-26 -420 0 -291 80 -516 305 -596 596 -26 91 -26 329 0 420 120 433 542 692
982 601z"/>
<path d="M644 1312 c-20 -13 -32 -47 -39 -113 -9 -80 -12 -86 -50 -91 -54 -6
-43 -57 13 -58 l22 0 0 -203 c0 -242 -2 -237 101 -237 35 0 69 4 76 8 18 11
33 58 33 103 0 38 1 39 35 39 l34 0 3 113 c3 108 4 112 26 115 22 3 22 2 22
-112 l0 -116 35 0 35 0 0 116 c0 114 0 115 23 112 21 -3 22 -7 25 -115 l3
-113 34 0 c34 0 35 -1 35 -39 0 -45 15 -92 33 -103 7 -4 42 -8 78 -8 101 0 99
-4 99 238 l0 202 23 0 c55 1 66 52 12 58 -38 5 -41 11 -50 91 -7 66 -19 100
-39 113 -6 4 -146 8 -311 8 -165 0 -305 -4 -311 -8z m141 -362 c0 -29 -4 -36
-23 -38 -43 -6 -69 37 -40 66 7 7 24 12 38 10 21 -3 25 -8 25 -38z m411 15 c8
-31 -10 -55 -42 -55 -17 0 -25 7 -30 25 -9 38 2 55 35 55 24 0 32 -5 37 -25z
m-466 -250 l0 -45 -40 0 -40 0 0 45 0 45 40 0 40 0 0 -45z m530 0 l0 -45 -40
0 -40 0 0 45 0 45 40 0 40 0 0 -45z"/>
</g>
</svg>
