<?xml version="1.0" standalone="no"?>
<!DOCTYPE svg PUBLIC "-//W3C//DTD SVG 20010904//EN"
 "http://www.w3.org/TR/2001/REC-SVG-20010904/DTD/svg10.dtd">
<svg version="1.0" xmlns="http://www.w3.org/2000/svg"
 width="192.000000pt" height="192.000000pt" viewBox="0 0 192.000000 192.000000"
 preserveAspectRatio="xMidYMid meet">
<metadata>
Created by potrace 1.16, written by Peter Selinger 2001-2019
</metadata>
<g transform="translate(0.000000,192.000000) scale(0.100000,-0.100000)"
fill="#000000" stroke="none">
811 c445 -92 729 -532 635 -987 -62 -301 -295 -546 -601 -630 -91 -26 -329
-26 -420 0 -291 80 -516 305 -596 596 -26 91 -26 329 0 420 120 433 542 692
982 601z"/>
<path d="M607 1339 c-44 -25 -47 -52 -47 -369 0 -319 5 -356 48 -379 38 -20
91 -13 117 15 23 24 25 35 25 115 0 88 11 137 33 151 7 4 47 8 90 8 l77 0 0
-105 c0 -152 23 -195 103 -195 24 0 42 8 60 26 25 25 27 31 29 152 l3 126 43
8 c80 13 162 83 162 137 0 70 -85 113 -140 72 -16 -11 -38 -21 -50 -21 -19 0
-20 6 -20 109 0 101 -2 110 -25 135 -17 19 -34 26 -60 26 -81 0 -105 -42 -105
-185 l0 -95 -74 0 c-41 0 -86 -4 -100 -10 l-26 -10 0 124 c0 117 -1 124 -25
150 -26 28 -83 35 -118 15z"/>
</g>
</svg>
