<?xml version="1.0" standalone="no"?>
<!DOCTYPE svg PUBLIC "-//W3C//DTD SVG 20010904//EN"
 "http://www.w3.org/TR/2001/REC-SVG-20010904/DTD/svg10.dtd">
<svg version="1.0" xmlns="http://www.w3.org/2000/svg"
 width="192.000000pt" height="192.000000pt" viewBox="0 0 192.000000 192.000000"
 preserveAspectRatio="xMidYMid meet">
<metadata>
Created by potrace 1.16, written by Peter Selinger 2001-2019
</metadata>
<g transform="translate(0.000000,192.000000) scale(0.100000,-0.100000)"
fill="#000000" stroke="none">
811 c445 -92 729 -532 635 -987 -62 -301 -295 -546 -601 -630 -91 -26 -329
-26 -420 0 -291 80 -516 305 -596 596 -26 91 -26 329 0 420 120 433 542 692
982 601z"/>
<path d="M725 1361 c-46 -21 -79 -54 -94 -94 -7 -18 -11 -131 -11 -300 0 -305
5 -331 71 -378 34 -24 38 -24 295 -27 237 -3 262 -1 268 14 15 39 -7 44 -214
44 -174 0 -199 2 -204 16 -15 39 8 44 206 44 l190 0 29 29 29 29 0 289 c0 258
-2 290 -18 309 -33 41 -52 44 -284 44 -195 0 -228 -3 -263 -19z m420 -191 c0
-10 -12 -16 -32 -18 l-33 -3 0 -119 c0 -109 2 -120 20 -130 36 -19 21 -30 -44
-30 -68 0 -90 12 -56 30 16 9 20 21 20 65 0 42 -3 55 -15 55 -8 0 -15 7 -15
15 0 8 7 15 15 15 11 0 15 12 15 50 0 38 -4 50 -15 50 -8 0 -15 9 -15 20 0 19
5 21 78 18 60 -2 77 -6 77 -18z m-206 -5 c16 -8 31 -22 35 -30 11 -29 6 -72
-9 -85 -14 -12 -13 -15 4 -31 79 -74 -38 -186 -138 -134 -30 15 -70 79 -71
113 0 25 29 11 35 -18 8 -35 50 -72 78 -68 11 2 29 15 40 29 24 33 11 65 -33
76 -37 10 -38 26 -3 35 49 13 58 58 17 84 -24 16 -26 16 -54 -5 -54 -39 -70
-20 -19 23 35 29 76 33 118 11z"/>
</g>
</svg>
