<?xml version="1.0" standalone="no"?>
<!DOCTYPE svg PUBLIC "-//W3C//DTD SVG 20010904//EN"
 "http://www.w3.org/TR/2001/REC-SVG-20010904/DTD/svg10.dtd">
<svg version="1.0" xmlns="http://www.w3.org/2000/svg"
 width="192.000000pt" height="192.000000pt" viewBox="0 0 192.000000 192.000000"
 preserveAspectRatio="xMidYMid meet">
<metadata>
Created by potrace 1.16, written by Peter Selinger 2001-2019
</metadata>
<g transform="translate(0.000000,192.000000) scale(0.100000,-0.100000)"
fill="#000000" stroke="none">
811 c445 -92 729 -532 635 -987 -62 -301 -295 -546 -601 -630 -91 -26 -329
-26 -420 0 -291 80 -516 305 -596 596 -26 91 -26 329 0 420 120 433 542 692
982 601z"/>
<path d="M613 1320 c-91 -55 -81 -193 17 -242 31 -16 69 -18 325 -18 256 0
294 2 325 18 98 49 108 187 17 242 -30 19 -52 20 -342 20 -290 0 -312 -1 -342
-20z"/>
<path d="M579 961 c-17 -18 -29 -40 -29 -56 0 -32 49 -85 79 -85 48 0 91 40
91 85 0 27 -22 63 -47 74 -39 18 -63 13 -94 -18z"/>
<path d="M804 978 c-24 -11 -44 -48 -44 -79 0 -30 53 -79 85 -79 35 0 85 50
85 85 0 34 -50 85 -82 84 -13 0 -33 -5 -44 -11z"/>
<path d="M1013 980 c-37 -15 -54 -69 -37 -115 10 -25 62 -47 94 -40 40 9 62
38 62 82 0 63 -57 98 -119 73z"/>
<path d="M1244 976 c-17 -8 -34 -21 -38 -31 -3 -9 -6 -83 -6 -165 l0 -149 26
-20 c36 -28 79 -27 109 4 24 23 25 28 25 173 0 141 -1 150 -22 169 -32 29 -58
34 -94 19z"/>
<path d="M577 733 c-36 -41 -25 -120 18 -137 87 -33 160 57 104 128 -16 21
-29 26 -63 26 -28 0 -48 -6 -59 -17z"/>
<path d="M781 724 c-56 -71 17 -161 104 -128 25 10 48 62 40 93 -11 44 -34 61
-81 61 -34 0 -47 -5 -63 -26z"/>
<path d="M992 727 c-48 -51 -10 -137 61 -137 71 0 110 99 57 142 -32 26 -91
23 -118 -5z"/>
</g>
</svg>
