<?xml version="1.0" standalone="no"?>
<!DOCTYPE svg PUBLIC "-//W3C//DTD SVG 20010904//EN"
 "http://www.w3.org/TR/2001/REC-SVG-20010904/DTD/svg10.dtd">
<svg version="1.0" xmlns="http://www.w3.org/2000/svg"
 width="192.000000pt" height="192.000000pt" viewBox="0 0 192.000000 192.000000"
 preserveAspectRatio="xMidYMid meet">
<metadata>
Created by potrace 1.16, written by Peter Selinger 2001-2019
</metadata>
<g transform="translate(0.000000,192.000000) scale(0.100000,-0.100000)"
fill="#000000" stroke="none">
811 c445 -92 729 -532 635 -987 -62 -301 -295 -546 -601 -630 -91 -26 -329
-26 -420 0 -291 80 -516 305 -596 596 -26 91 -26 329 0 420 120 433 542 692
982 601z"/>
<path d="M845 1369 c-79 -19 -125 -89 -125 -191 0 -52 -1 -54 -29 -36 -15 9
-22 8 -35 -5 -9 -9 -23 -14 -31 -11 -9 4 -18 -3 -24 -19 -5 -13 -17 -27 -26
-31 -11 -4 -14 -12 -10 -26 4 -12 1 -28 -6 -37 -11 -13 -10 -17 4 -28 9 -7 17
-22 17 -34 0 -12 8 -24 18 -28 9 -3 25 -15 34 -27 13 -16 20 -18 28 -10 18 18
60 -6 60 -33 0 -22 -1 -22 -20 -6 -20 18 -60 25 -60 11 0 -4 -6 -8 -14 -8 -17
0 -30 -51 -21 -80 3 -11 13 -20 21 -20 8 0 14 -4 14 -9 0 -5 11 -8 25 -8 14 0
25 3 25 8 0 5 6 9 14 9 9 0 16 -18 20 -50 5 -39 15 -60 42 -90 45 -49 109 -64
244 -58 97 5 134 17 177 57 12 12 29 21 38 21 9 0 13 5 10 10 -3 6 0 13 8 16
16 6 20 51 6 60 -5 3 -7 10 -4 15 4 5 -1 12 -9 15 -13 5 -16 27 -16 129 0 121
8 151 32 127 14 -14 48 7 41 25 -3 7 6 17 22 23 23 9 26 14 20 39 -4 21 -2 30
9 34 20 8 21 47 1 47 -11 0 -14 9 -13 32 3 26 -1 33 -22 38 -16 4 -25 13 -25
25 0 16 -7 20 -30 20 -19 0 -41 10 -60 28 -55 52 -82 60 -200 63 -60 2 -128
-1 -150 -7z m269 -111 c24 -33 24 -553 0 -586 -14 -21 -22 -22 -139 -22 -176
0 -165 -20 -165 315 0 335 -11 315 165 315 117 0 125 -1 139 -22z m151 -82
c15 -37 12 -59 -13 -88 -26 -30 -32 -20 -32 52 0 57 3 70 16 70 8 0 21 -15 29
-34z m-545 -161 l0 -65 -29 0 c-30 0 -71 38 -71 65 0 27 41 65 71 65 l29 0 0
-65z m-32 -197 c16 -16 15 -23 -4 -42 -12 -12 -20 -13 -35 -6 -19 10 -26 40
-12 53 10 11 38 8 51 -5z"/>
</g>
</svg>
