<?xml version="1.0" standalone="no"?>
<!DOCTYPE svg PUBLIC "-//W3C//DTD SVG 20010904//EN"
 "http://www.w3.org/TR/2001/REC-SVG-20010904/DTD/svg10.dtd">
<svg version="1.0" xmlns="http://www.w3.org/2000/svg"
 width="192.000000pt" height="192.000000pt" viewBox="0 0 192.000000 192.000000"
 preserveAspectRatio="xMidYMid meet">
<metadata>
Created by potrace 1.16, written by Peter Selinger 2001-2019
</metadata>
<g transform="translate(0.000000,192.000000) scale(0.100000,-0.100000)"
fill="#000000" stroke="none">
811 c445 -92 729 -532 635 -987 -62 -301 -295 -546 -601 -630 -91 -26 -329
-26 -420 0 -291 80 -516 305 -596 596 -26 91 -26 329 0 420 120 433 542 692
982 601z"/>
<path d="M700 1329 c-35 -14 -78 -57 -101 -101 -17 -33 -19 -60 -19 -258 0
-236 5 -267 53 -319 50 -54 83 -61 322 -61 239 0 272 7 322 61 48 52 53 83 53
319 0 198 -2 225 -19 258 -23 45 -66 87 -104 101 -36 14 -473 13 -507 0z m58
-367 l3 -62 37 5 c27 4 46 0 70 -15 39 -24 54 -59 50 -119 -3 -42 -5 -46 -28
-46 -23 0 -26 5 -31 51 -8 66 -14 74 -49 74 -36 0 -43 -12 -50 -75 -5 -45 -7
-50 -30 -50 l-25 0 -3 140 c-1 76 0 145 3 153 3 7 15 12 27 10 21 -3 23 -9 26
-66z m353 -81 c39 -39 41 -97 3 -134 -84 -84 -224 8 -170 111 21 40 41 51 94
52 35 0 49 -6 73 -29z m77 -110 c21 -13 10 -46 -16 -49 -27 -4 -40 22 -22 43
14 17 20 18 38 6z"/>
<path d="M1006 857 c-12 -9 -17 -23 -14 -47 4 -45 46 -64 78 -35 25 23 26 49
0 75 -23 23 -39 25 -64 7z"/>
</g>
</svg>
