<?xml version="1.0" standalone="no"?>
<!DOCTYPE svg PUBLIC "-//W3C//DTD SVG 20010904//EN"
 "http://www.w3.org/TR/2001/REC-SVG-20010904/DTD/svg10.dtd">
<svg version="1.0" xmlns="http://www.w3.org/2000/svg"
 width="192.000000pt" height="192.000000pt" viewBox="0 0 192.000000 192.000000"
 preserveAspectRatio="xMidYMid meet">
<metadata>
Created by potrace 1.16, written by Peter Selinger 2001-2019
</metadata>
<g transform="translate(0.000000,192.000000) scale(0.100000,-0.100000)"
fill="#000000" stroke="none">
811 c445 -92 729 -532 635 -987 -62 -301 -295 -546 -601 -630 -91 -26 -329
-26 -420 0 -291 80 -516 305 -596 596 -26 91 -26 329 0 420 120 433 542 692
982 601z"/>
<path d="M633 1299 c-66 -42 -78 -77 -82 -239 -5 -208 11 -261 90 -309 28 -17
51 -21 127 -21 l93 0 -3 -27 c-3 -25 -8 -28 -45 -31 -44 -3 -62 -24 -42 -48
17 -20 351 -20 368 0 20 24 2 45 -42 48 -37 3 -42 6 -45 31 l-3 27 93 0 c76 0
99 4 127 21 79 48 95 101 90 309 -4 130 -6 149 -27 182 -13 20 -38 46 -56 57
-32 20 -48 21 -322 21 -275 0 -291 -1 -321 -21z m555 -196 c-2 -10 -10 -18
-18 -18 -8 0 -16 8 -18 18 -2 12 3 17 18 17 15 0 20 -5 18 -17z m-138 -13 c0
-15 7 -20 25 -20 15 0 31 -10 41 -26 35 -53 -21 -113 -81 -86 -23 11 -25 16
-25 82 0 63 2 70 20 70 13 0 20 -7 20 -20z m-292 -23 c2 -19 9 -27 23 -27 14
0 19 7 19 30 0 23 4 30 20 30 18 0 20 -7 20 -76 0 -66 -2 -75 -17 -72 -11 2
-19 14 -21 31 -5 38 -39 38 -44 0 -2 -17 -9 -28 -18 -28 -12 0 -16 16 -18 73
-3 66 -1 73 15 70 11 -2 19 -14 21 -31z m214 -14 c24 -21 23 -58 -2 -83 -24
-24 -57 -26 -82 -3 -20 18 -24 73 -6 91 17 17 68 15 90 -5z m216 -46 c3 -52 1
-58 -15 -55 -14 3 -19 15 -21 61 -3 52 -1 58 15 55 14 -3 19 -15 21 -61z"/>
<path d="M1050 1010 c0 -35 25 -42 35 -10 8 24 -1 40 -21 40 -9 0 -14 -11 -14
-30z"/>
<path d="M912 1013 c4 -36 33 -39 33 -3 0 16 -6 26 -18 28 -15 3 -18 -2 -15
-25z"/>
</g>
</svg>
