<?xml version="1.0" standalone="no"?>
<!DOCTYPE svg PUBLIC "-//W3C//DTD SVG 20010904//EN"
 "http://www.w3.org/TR/2001/REC-SVG-20010904/DTD/svg10.dtd">
<svg version="1.0" xmlns="http://www.w3.org/2000/svg"
 width="192.000000pt" height="192.000000pt" viewBox="0 0 192.000000 192.000000"
 preserveAspectRatio="xMidYMid meet">
<metadata>
Created by potrace 1.16, written by Peter Selinger 2001-2019
</metadata>
<g transform="translate(0.000000,192.000000) scale(0.100000,-0.100000)"
fill="#000000" stroke="none">
811 c445 -92 729 -532 635 -987 -62 -301 -295 -546 -601 -630 -91 -26 -329
-26 -420 0 -291 80 -516 305 -596 596 -26 91 -26 329 0 420 120 433 542 692
982 601z"/>
<path d="M796 1316 c-149 -88 -168 -105 -147 -130 18 -21 287 -176 306 -176 9
0 84 39 166 87 147 86 167 105 136 131 -33 27 -291 172 -306 171 -9 0 -79 -38
-155 -83z"/>
<path d="M597 1129 c-15 -9 -17 -30 -17 -188 0 -133 3 -181 13 -189 42 -35
294 -172 311 -170 20 3 21 10 24 190 l2 186 -137 80 c-184 106 -176 102 -196
91z"/>
<path d="M1139 1050 l-154 -88 0 -189 c0 -182 1 -188 21 -191 17 -2 269 135
311 170 10 8 13 56 13 189 0 163 -2 179 -19 188 -14 8 -48 -7 -172 -79z"/>
</g>
</svg>
