<?xml version="1.0" standalone="no"?>
<!DOCTYPE svg PUBLIC "-//W3C//DTD SVG 20010904//EN"
 "http://www.w3.org/TR/2001/REC-SVG-20010904/DTD/svg10.dtd">
<svg version="1.0" xmlns="http://www.w3.org/2000/svg"
 width="192.000000pt" height="192.000000pt" viewBox="0 0 192.000000 192.000000"
 preserveAspectRatio="xMidYMid meet">
<metadata>
Created by potrace 1.16, written by Peter Selinger 2001-2019
</metadata>
<g transform="translate(0.000000,192.000000) scale(0.100000,-0.100000)"
fill="#000000" stroke="none">
811 c445 -92 729 -532 635 -987 -62 -301 -295 -546 -601 -630 -91 -26 -329
-26 -420 0 -291 80 -516 305 -596 596 -26 91 -26 329 0 420 120 433 542 692
982 601z"/>
<path d="M951 1365 c-51 -16 -94 -54 -124 -110 -18 -33 -22 -59 -24 -153 -3
-121 -6 -134 -28 -125 -10 3 -15 20 -15 48 0 24 -4 47 -10 50 -20 12 -65 -21
-90 -65 -21 -38 -25 -58 -25 -130 0 -78 3 -90 34 -148 52 -96 132 -154 232
-170 150 -22 283 49 351 187 35 70 33 189 -4 252 -15 25 -48 64 -75 87 -99 87
-112 103 -123 140 -7 29 -7 50 4 85 21 69 -6 82 -103 52z m-41 -469 c19 -23 8
-61 -18 -64 -44 -7 -67 32 -36 62 19 20 38 20 54 2z m170 0 c6 -8 10 -25 8
-38 -2 -18 -10 -24 -35 -26 -28 -3 -33 0 -39 24 -11 42 39 72 66 40z m-114
-176 c23 0 40 7 52 21 40 50 44 52 59 36 13 -13 13 -18 -1 -46 -35 -67 -131
-82 -191 -30 -35 31 -47 73 -22 82 6 3 25 -10 40 -29 23 -26 37 -34 63 -34z"/>
</g>
</svg>
