<?xml version="1.0" standalone="no"?>
<!DOCTYPE svg PUBLIC "-//W3C//DTD SVG 20010904//EN"
 "http://www.w3.org/TR/2001/REC-SVG-20010904/DTD/svg10.dtd">
<svg version="1.0" xmlns="http://www.w3.org/2000/svg"
 width="192.000000pt" height="192.000000pt" viewBox="0 0 192.000000 192.000000"
 preserveAspectRatio="xMidYMid meet">
<metadata>
Created by potrace 1.16, written by Peter Selinger 2001-2019
</metadata>
<g transform="translate(0.000000,192.000000) scale(0.100000,-0.100000)"
fill="#000000" stroke="none">
811 c445 -92 729 -532 635 -987 -62 -301 -295 -546 -601 -630 -91 -26 -329
-26 -420 0 -291 80 -516 305 -596 596 -26 91 -26 329 0 420 120 433 542 692
982 601z"/>
<path d="M925 1378 c-2 -7 -5 -24 -7 -37 -2 -20 -12 -27 -48 -36 -123 -31
-219 -130 -252 -257 -11 -45 -14 -48 -44 -48 -24 0 -34 -5 -39 -20 -9 -28 11
-50 45 -50 25 0 29 -5 39 -47 32 -125 144 -236 263 -258 32 -6 37 -11 40 -37
6 -62 68 -59 68 2 0 24 5 29 37 35 124 23 245 144 268 268 6 32 11 37 36 37
17 0 32 7 38 18 14 26 -5 52 -38 52 -25 0 -30 5 -36 37 -23 125 -130 237 -254
269 -42 10 -46 14 -51 45 -4 28 -10 35 -33 37 -16 2 -29 -2 -32 -10z m-45
-298 c11 -11 20 -29 20 -40 0 -22 -33 -60 -53 -60 -27 0 -57 31 -57 60 0 18 8
34 22 44 30 21 44 20 68 -4z m230 0 c11 -11 20 -29 20 -40 0 -22 -33 -60 -53
-60 -27 0 -57 31 -57 60 0 18 8 34 22 44 30 21 44 20 68 -4z m-246 -178 c22
-42 51 -64 89 -65 42 -1 81 23 99 60 9 20 21 28 38 28 34 0 38 -40 8 -85 -63
-94 -196 -99 -271 -10 -33 39 -42 67 -27 85 19 23 48 17 64 -13z"/>
</g>
</svg>
