<?xml version="1.0" standalone="no"?>
<!DOCTYPE svg PUBLIC "-//W3C//DTD SVG 20010904//EN"
 "http://www.w3.org/TR/2001/REC-SVG-20010904/DTD/svg10.dtd">
<svg version="1.0" xmlns="http://www.w3.org/2000/svg"
 width="192.000000pt" height="192.000000pt" viewBox="0 0 192.000000 192.000000"
 preserveAspectRatio="xMidYMid meet">
<metadata>
Created by potrace 1.16, written by Peter Selinger 2001-2019
</metadata>
<g transform="translate(0.000000,192.000000) scale(0.100000,-0.100000)"
fill="#000000" stroke="none">
811 c445 -92 729 -532 635 -987 -62 -301 -295 -546 -601 -630 -91 -26 -329
-26 -420 0 -291 80 -516 305 -596 596 -26 91 -26 329 0 420 120 433 542 692
982 601z"/>
<path d="M966 1368 c-21 -6 -57 -28 -81 -52 -58 -55 -79 -127 -73 -243 3 -57
1 -87 -7 -93 -19 -16 -38 15 -32 49 15 75 -65 55 -104 -26 -49 -98 -23 -255
55 -335 74 -77 147 -109 248 -110 167 0 303 130 316 301 7 104 -32 176 -143
264 -27 21 -58 51 -67 66 -19 27 -23 109 -9 146 17 42 -21 54 -103 33z m-46
-472 c19 -23 8 -61 -18 -64 -44 -7 -67 32 -36 62 19 20 38 20 54 2z m170 0
c19 -23 8 -61 -18 -64 -44 -7 -67 32 -36 62 19 20 38 20 54 2z m-114 -176 c32
0 43 7 83 55 12 15 15 15 28 2 13 -13 13 -18 -1 -46 -20 -39 -63 -61 -117 -61
-33 0 -47 6 -75 34 -34 34 -44 70 -21 79 6 3 25 -10 40 -29 23 -26 37 -34 63
-34z"/>
<path d="M677 1334 c-4 -4 -7 -15 -7 -25 0 -11 -9 -19 -22 -21 -29 -4 -30 -30
-1 -43 12 -5 24 -17 26 -27 7 -24 38 -23 44 2 3 11 11 20 17 20 18 0 35 21 29
36 -3 8 -13 14 -23 14 -12 0 -20 9 -22 22 -3 23 -27 35 -41 22z"/>
</g>
</svg>
