<?xml version="1.0" standalone="no"?>
<!DOCTYPE svg PUBLIC "-//W3C//DTD SVG 20010904//EN"
 "http://www.w3.org/TR/2001/REC-SVG-20010904/DTD/svg10.dtd">
<svg version="1.0" xmlns="http://www.w3.org/2000/svg"
 width="192.000000pt" height="192.000000pt" viewBox="0 0 192.000000 192.000000"
 preserveAspectRatio="xMidYMid meet">
<metadata>
Created by potrace 1.16, written by Peter Selinger 2001-2019
</metadata>
<g transform="translate(0.000000,192.000000) scale(0.100000,-0.100000)"
fill="#000000" stroke="none">
811 c445 -92 729 -532 635 -987 -62 -301 -295 -546 -601 -630 -91 -26 -329
-26 -420 0 -291 80 -516 305 -596 596 -26 91 -26 329 0 420 120 433 542 692
982 601z"/>
<path d="M899 1369 c-128 -14 -256 -107 -312 -226 -133 -285 80 -599 393 -581
304 18 482 364 319 620 -87 136 -235 205 -400 187z m-31 -281 l3 -68 79 0 80
0 0 54 c0 30 3 61 6 70 9 23 60 20 84 -4 18 -18 20 -33 20 -190 l0 -170 -39 0
c-48 0 -63 17 -69 80 l-5 50 -78 0 -79 0 0 -49 c0 -59 -18 -81 -66 -81 l-34 0
0 174 c0 170 1 175 23 191 12 9 33 14 47 13 24 -3 25 -7 28 -70z"/>
</g>
</svg>
