<?xml version="1.0" standalone="no"?>
<!DOCTYPE svg PUBLIC "-//W3C//DTD SVG 20010904//EN"
 "http://www.w3.org/TR/2001/REC-SVG-20010904/DTD/svg10.dtd">
<svg version="1.0" xmlns="http://www.w3.org/2000/svg"
 width="192.000000pt" height="192.000000pt" viewBox="0 0 192.000000 192.000000"
 preserveAspectRatio="xMidYMid meet">
<metadata>
Created by potrace 1.16, written by Peter Selinger 2001-2019
</metadata>
<g transform="translate(0.000000,192.000000) scale(0.100000,-0.100000)"
fill="#000000" stroke="none">
811 c445 -92 729 -532 635 -987 -62 -301 -295 -546 -601 -630 -91 -26 -329
-26 -420 0 -291 80 -516 305 -596 596 -26 91 -26 329 0 420 120 433 542 692
982 601z"/>
<path d="M900 1333 c-19 -24 -21 -38 -18 -97 5 -84 27 -109 92 -104 40 3 41 4
44 45 3 35 0 42 -18 48 -38 12 -20 40 25 40 l40 0 3 -63 c3 -56 6 -64 27 -72
24 -9 25 -13 25 -108 l0 -99 45 -17 c42 -17 57 -37 36 -51 -6 -3 -37 4 -70 15
-73 24 -166 26 -241 4 -76 -21 -94 -22 -98 -2 -2 12 11 22 50 36 28 11 54 24
55 29 6 18 -80 48 -137 47 -62 0 -102 -18 -148 -65 -41 -42 -55 -87 -50 -159
8 -117 96 -190 227 -190 155 0 363 50 502 121 l62 31 -6 141 c-7 186 -48 340
-123 458 l-24 39 -139 0 -140 0 -21 -27z"/>
</g>
</svg>
