<?xml version="1.0" standalone="no"?>
<!DOCTYPE svg PUBLIC "-//W3C//DTD SVG 20010904//EN"
 "http://www.w3.org/TR/2001/REC-SVG-20010904/DTD/svg10.dtd">
<svg version="1.0" xmlns="http://www.w3.org/2000/svg"
 width="192.000000pt" height="192.000000pt" viewBox="0 0 192.000000 192.000000"
 preserveAspectRatio="xMidYMid meet">
<metadata>
Created by potrace 1.16, written by Peter Selinger 2001-2019
</metadata>
<g transform="translate(0.000000,192.000000) scale(0.100000,-0.100000)"
fill="#000000" stroke="none">
811 c445 -92 729 -532 635 -987 -62 -301 -295 -546 -601 -630 -91 -26 -329
-26 -420 0 -291 80 -516 305 -596 596 -26 91 -26 329 0 420 120 433 542 692
982 601z"/>
<path d="M738 1154 c-106 -108 -194 -204 -196 -213 -4 -23 15 -38 53 -43 l30
-3 3 -136 c2 -131 3 -137 28 -160 23 -22 36 -24 141 -28 94 -3 115 -1 111 10
-3 8 -17 21 -31 29 -22 12 -30 13 -47 2 -45 -28 -91 1 -56 36 13 14 20 14 36
4 36 -22 44 -13 15 17 -15 17 -37 31 -49 33 -15 2 -21 10 -21 28 0 20 5 25 25
25 18 0 26 -6 28 -21 2 -12 16 -34 33 -49 29 -29 39 -21 17 14 -15 24 -4 51
22 51 26 0 37 -27 22 -51 -18 -28 -14 -64 8 -84 20 -18 20 -17 20 51 0 69 -1
70 -43 112 -44 44 -64 50 -96 30 -24 -15 -51 -4 -51 22 0 26 27 37 52 21 30
-19 31 -8 3 19 -15 14 -25 35 -25 52 0 15 -6 37 -12 48 -14 22 -1 55 22 55 23
0 36 -33 22 -55 -18 -30 -15 -54 13 -80 18 -17 25 -19 25 -9 0 8 -5 20 -10 25
-16 16 0 44 25 44 25 0 41 -28 25 -44 -21 -21 -11 -71 20 -101 l30 -29 0 101
c0 106 -8 126 -55 135 -30 5 -28 52 2 56 17 2 26 -3 32 -20 14 -36 38 -53 55
-38 8 6 16 21 18 33 2 16 10 22 28 22 20 0 25 -5 25 -25 0 -17 -6 -26 -20 -28
-50 -10 -55 -25 -55 -180 l0 -145 21 19 c20 18 21 32 7 108 -1 10 5 23 14 29
14 9 21 8 35 -6 15 -14 16 -21 5 -37 -6 -11 -12 -25 -12 -32 1 -17 50 39 50
56 0 15 -30 44 -63 60 -26 14 -29 44 -5 60 20 12 38 0 42 -30 2 -10 8 -20 14
-22 16 -5 16 52 0 77 -15 24 -4 51 22 51 26 0 36 -25 21 -54 -7 -12 -11 -38
-9 -57 3 -28 5 -31 12 -14 22 57 47 70 66 35 13 -25 -2 -50 -30 -50 -23 0 -50
-32 -50 -60 0 -13 -12 -37 -27 -52 l-27 -28 33 0 c18 0 41 4 51 10 40 21 69
-21 35 -50 -12 -10 -19 -10 -27 -2 -7 7 -37 12 -68 12 -49 0 -60 -4 -83 -28
-17 -17 -27 -39 -27 -57 l0 -28 23 21 c13 12 35 22 50 22 15 0 36 5 46 12 24
15 51 4 51 -22 0 -26 -27 -37 -51 -22 -29 18 -53 14 -79 -13 l-23 -25 105 0
c185 0 198 14 198 204 l0 125 38 3 c54 4 56 36 3 93 l-41 45 0 103 c0 67 -4
107 -12 115 -16 16 -100 16 -116 0 -7 -7 -12 -26 -12 -42 0 -30 -2 -28 -83 52
-53 53 -90 82 -104 82 -16 0 -80 -59 -215 -196z"/>
<path d="M1000 1040 c0 -5 5 -10 10 -10 6 0 10 5 10 10 0 6 -4 10 -10 10 -5 0
-10 -4 -10 -10z"/>
<path d="M1080 989 c0 -5 5 -7 10 -4 6 3 10 8 10 11 0 2 -4 4 -10 4 -5 0 -10
-5 -10 -11z"/>
<path d="M760 829 c0 -5 5 -7 10 -4 6 3 10 8 10 11 0 2 -4 4 -10 4 -5 0 -10
-5 -10 -11z"/>
<path d="M770 729 c0 -5 5 -7 10 -4 6 3 10 8 10 11 0 2 -4 4 -10 4 -5 0 -10
-5 -10 -11z"/>
<path d="M1090 629 c0 -5 5 -7 10 -4 6 3 10 8 10 11 0 2 -4 4 -10 4 -5 0 -10
-5 -10 -11z"/>
</g>
</svg>
