<?xml version="1.0" standalone="no"?>
<!DOCTYPE svg PUBLIC "-//W3C//DTD SVG 20010904//EN"
 "http://www.w3.org/TR/2001/REC-SVG-20010904/DTD/svg10.dtd">
<svg version="1.0" xmlns="http://www.w3.org/2000/svg"
 width="192.000000pt" height="192.000000pt" viewBox="0 0 192.000000 192.000000"
 preserveAspectRatio="xMidYMid meet">
<metadata>
Created by potrace 1.16, written by Peter Selinger 2001-2019
</metadata>
<g transform="translate(0.000000,192.000000) scale(0.100000,-0.100000)"
fill="#000000" stroke="none">
811 c445 -92 729 -532 635 -987 -62 -301 -295 -546 -601 -630 -91 -26 -329
-26 -420 0 -291 80 -516 305 -596 596 -26 91 -26 329 0 420 120 433 542 692
982 601z"/>
<path d="M548 1209 c-15 -8 -18 -25 -18 -112 0 -56 4 -108 9 -115 4 -8 19 -12
32 -10 20 2 24 9 27 46 3 37 6 42 27 42 21 0 24 -5 27 -42 3 -37 7 -44 27 -46
13 -2 28 2 32 10 5 7 9 59 9 115 0 91 -2 103 -19 113 -34 18 -51 2 -51 -46 0
-40 -2 -44 -25 -44 -23 0 -25 4 -25 44 0 31 -5 46 -16 50 -19 7 -15 8 -36 -5z"/>
<path d="M773 1210 c-36 -15 -45 -46 -41 -132 4 -96 15 -108 98 -108 80 0 90
14 90 121 0 55 -5 92 -13 103 -16 21 -99 31 -134 16z m82 -120 c0 -63 -1 -65
-25 -65 -24 0 -25 3 -28 68 l-3 68 28 -3 c27 -3 28 -4 28 -68z"/>
<path d="M952 1212 c-9 -6 -12 -38 -10 -123 l3 -114 27 -3 c26 -3 27 -1 30 50
l3 53 23 -42 c28 -53 47 -54 70 -6 l17 36 5 -44 c5 -41 7 -44 35 -44 l30 0 3
117 c2 107 1 117 -16 122 -32 11 -47 -2 -78 -66 l-31 -62 -28 62 c-15 34 -31
62 -36 62 -4 0 -13 2 -21 5 -7 3 -19 1 -26 -3z"/>
<path d="M1222 1212 c-9 -6 -12 -38 -10 -123 l3 -114 75 0 c73 0 75 1 75 25 0
22 -5 25 -42 28 -50 4 -63 32 -14 32 32 0 56 22 47 45 -3 9 -18 15 -41 15 -28
0 -35 4 -35 19 0 16 8 20 42 23 33 2 44 8 46 22 2 10 -2 22 -10 27 -17 11
-119 11 -136 1z"/>
<path d="M543 929 c-20 -20 -18 -193 2 -209 21 -18 126 -5 143 17 16 23 16
154 -1 177 -17 23 -126 34 -144 15z m97 -104 c0 -52 -1 -55 -25 -55 -24 0 -25
3 -25 55 0 52 1 55 25 55 24 0 25 -3 25 -55z"/>
<path d="M727 934 c-4 -4 -7 -53 -7 -110 0 -114 0 -114 73 -114 51 0 70 11 65
36 -2 14 -13 20 -41 22 -47 4 -51 29 -4 34 24 2 32 8 32 23 0 15 -8 21 -32 23
-47 5 -43 30 5 34 32 3 37 6 37 28 0 24 -3 25 -60 28 -34 2 -64 0 -68 -4z"/>
<path d="M878 934 c-5 -4 -8 -53 -8 -110 0 -81 3 -103 15 -108 24 -9 45 4 45
29 0 19 7 24 40 30 46 8 60 27 60 82 0 59 -16 74 -85 80 -33 3 -63 2 -67 -3z
m92 -79 c0 -18 -5 -25 -20 -25 -15 0 -20 7 -20 25 0 18 5 25 20 25 15 0 20 -7
20 -25z"/>
<path d="M1062 924 c-20 -14 -22 -24 -22 -99 0 -79 2 -86 25 -101 28 -18 108
-15 128 5 6 6 13 45 15 85 4 71 5 73 28 68 23 -4 24 -8 24 -82 0 -80 9 -97 45
-84 12 5 15 24 15 84 0 74 1 79 23 82 16 2 22 10 22 28 0 24 -3 25 -73 28 -66
3 -74 1 -79 -17 -5 -19 -5 -19 -24 0 -24 24 -95 26 -127 3z m86 -97 c3 -55 2
-57 -23 -57 -24 0 -25 3 -25 53 0 58 5 69 30 65 11 -2 16 -18 18 -61z"/>
</g>
</svg>
