<?xml version="1.0" standalone="no"?>
<!DOCTYPE svg PUBLIC "-//W3C//DTD SVG 20010904//EN"
 "http://www.w3.org/TR/2001/REC-SVG-20010904/DTD/svg10.dtd">
<svg version="1.0" xmlns="http://www.w3.org/2000/svg"
 width="192.000000pt" height="192.000000pt" viewBox="0 0 192.000000 192.000000"
 preserveAspectRatio="xMidYMid meet">
<metadata>
Created by potrace 1.16, written by Peter Selinger 2001-2019
</metadata>
<g transform="translate(0.000000,192.000000) scale(0.100000,-0.100000)"
fill="#000000" stroke="none">
811 c445 -92 729 -532 635 -987 -62 -301 -295 -546 -601 -630 -91 -26 -329
-26 -420 0 -291 80 -516 305 -596 596 -26 91 -26 329 0 420 120 433 542 692
982 601z"/>
<path d="M595 1295 c-35 -34 -34 -93 1 -126 l26 -24 333 0 333 0 26 24 c35 33
36 92 1 126 l-24 25 -336 0 -336 0 -24 -25z m676 -46 c9 -18 7 -25 -9 -41 -16
-16 -23 -18 -41 -9 -23 13 -28 40 -9 59 19 19 46 14 59 -9z"/>
<path d="M596 1079 c-36 -28 -37 -89 -1 -124 l24 -25 334 0 c323 0 335 1 361
21 21 16 26 29 26 64 0 35 -5 48 -26 64 -26 20 -38 21 -359 21 -321 0 -333 -1
-359 -21z m668 -38 c33 -36 -18 -83 -52 -49 -17 17 -15 45 6 57 24 14 26 14
46 -8z"/>
<path d="M634 861 c-48 -29 -64 -59 -64 -117 0 -57 22 -94 70 -119 43 -22 587
-22 630 0 49 25 70 62 70 120 0 38 -6 60 -21 79 -43 54 -54 56 -366 56 -266 0
-290 -2 -319 -19z m637 -103 c10 -18 8 -24 -11 -40 -17 -13 -26 -15 -41 -8
-18 10 -26 50 -12 63 14 15 53 6 64 -15z"/>
</g>
</svg>
