<?xml version="1.0" standalone="no"?>
<!DOCTYPE svg PUBLIC "-//W3C//DTD SVG 20010904//EN"
 "http://www.w3.org/TR/2001/REC-SVG-20010904/DTD/svg10.dtd">
<svg version="1.0" xmlns="http://www.w3.org/2000/svg"
 width="192.000000pt" height="192.000000pt" viewBox="0 0 192.000000 192.000000"
 preserveAspectRatio="xMidYMid meet">
<metadata>
Created by potrace 1.16, written by Peter Selinger 2001-2019
</metadata>
<g transform="translate(0.000000,192.000000) scale(0.100000,-0.100000)"
fill="#000000" stroke="none">
811 c445 -92 729 -532 635 -987 -62 -301 -295 -546 -601 -630 -91 -26 -329
-26 -420 0 -291 80 -516 305 -596 596 -26 91 -26 329 0 420 120 433 542 692
982 601z"/>
<path d="M862 1329 c-59 -30 -91 -87 -99 -179 -4 -45 -10 -69 -17 -67 -11 3
-60 65 -82 103 -10 18 -12 18 -37 1 -74 -48 -16 -154 95 -172 l38 -7 0 -197
c0 -209 3 -221 48 -221 42 0 59 17 67 67 16 109 79 230 128 247 41 15 47 -2
47 -137 l0 -119 34 -34 c39 -39 85 -45 143 -17 36 17 93 84 93 110 0 26 -29
25 -64 -2 -23 -18 -44 -25 -63 -23 l-28 3 -5 125 c-6 140 -16 168 -69 190 -69
28 -141 -13 -187 -105 -14 -30 -28 -55 -30 -55 -2 0 -4 38 -4 83 l0 84 58 16
c117 32 179 105 170 199 -11 107 -128 160 -236 107z m126 -51 c18 -18 14 -79
-7 -114 -21 -34 -80 -84 -99 -84 -23 0 -2 162 24 191 19 21 64 25 82 7z"/>
</g>
</svg>
