<?xml version="1.0" standalone="no"?>
<!DOCTYPE svg PUBLIC "-//W3C//DTD SVG 20010904//EN"
 "http://www.w3.org/TR/2001/REC-SVG-20010904/DTD/svg10.dtd">
<svg version="1.0" xmlns="http://www.w3.org/2000/svg"
 width="192.000000pt" height="192.000000pt" viewBox="0 0 192.000000 192.000000"
 preserveAspectRatio="xMidYMid meet">
<metadata>
Created by potrace 1.16, written by Peter Selinger 2001-2019
</metadata>
<g transform="translate(0.000000,192.000000) scale(0.100000,-0.100000)"
fill="#000000" stroke="none">
811 c445 -92 729 -532 635 -987 -62 -301 -295 -546 -601 -630 -91 -26 -329
-26 -420 0 -291 80 -516 305 -596 596 -26 91 -26 329 0 420 120 433 542 692
982 601z"/>
<path d="M660 1185 c-158 -71 -193 -273 -68 -392 45 -43 96 -63 165 -63 67 0
130 27 168 71 14 17 50 80 81 141 66 128 93 152 164 145 35 -4 51 -13 77 -41
95 -103 -31 -259 -152 -187 -20 11 -45 21 -55 21 -46 0 -68 -71 -32 -103 51
-46 168 -61 240 -31 47 19 98 68 125 119 58 112 -3 269 -125 319 -54 23 -143
20 -195 -5 -57 -28 -83 -60 -149 -191 -66 -128 -93 -152 -164 -145 -35 4 -51
13 -77 41 -95 103 31 259 152 187 20 -11 45 -21 55 -21 27 0 50 27 50 61 0 23
-9 34 -42 56 -34 23 -54 28 -112 31 -48 1 -82 -3 -106 -13z"/>
</g>
</svg>
