<?xml version="1.0" standalone="no"?>
<!DOCTYPE svg PUBLIC "-//W3C//DTD SVG 20010904//EN"
 "http://www.w3.org/TR/2001/REC-SVG-20010904/DTD/svg10.dtd">
<svg version="1.0" xmlns="http://www.w3.org/2000/svg"
 width="192.000000pt" height="192.000000pt" viewBox="0 0 192.000000 192.000000"
 preserveAspectRatio="xMidYMid meet">
<metadata>
Created by potrace 1.16, written by Peter Selinger 2001-2019
</metadata>
<g transform="translate(0.000000,192.000000) scale(0.100000,-0.100000)"
fill="#000000" stroke="none">
811 c445 -92 729 -532 635 -987 -62 -301 -295 -546 -601 -630 -91 -26 -329
-26 -420 0 -291 80 -516 305 -596 596 -26 91 -26 329 0 420 120 433 542 692
982 601z"/>
<path d="M587 1364 c-4 -4 -7 -55 -7 -113 l0 -105 33 32 c63 61 147 78 222 43
45 -20 92 -70 107 -113 l10 -28 24 48 c62 124 217 149 315 51 l40 -40 -3 113
-3 113 -44 -3 c-24 -1 -65 -12 -90 -23 l-47 -20 -49 23 c-71 32 -209 32 -280
0 l-49 -23 -46 20 c-52 22 -122 35 -133 25z"/>
<path d="M701 1163 c-95 -47 -93 -191 3 -237 40 -19 64 -20 103 -5 60 22 102
91 89 144 -6 23 -7 24 -35 7 -24 -13 -34 -14 -55 -4 -33 15 -49 53 -36 87 8
22 7 25 -13 25 -12 0 -37 -8 -56 -17z"/>
<path d="M1095 1166 c-48 -21 -68 -51 -73 -109 -3 -43 0 -58 20 -87 73 -108
238 -55 238 77 l0 43 -25 -16 c-52 -34 -120 19 -98 77 10 26 9 29 -10 29 -12
-1 -35 -7 -52 -14z"/>
<path d="M1295 911 c-16 -19 -44 -40 -62 -47 -40 -17 -116 -18 -160 -2 -32 12
-35 11 -78 -32 l-45 -44 -44 43 c-42 41 -46 43 -77 32 -77 -27 -167 -6 -220
50 l-29 31 0 -84 c0 -141 42 -222 142 -272 50 -25 58 -26 233 -26 175 0 183 1
233 26 102 51 145 135 140 275 l-3 84 -30 -34z"/>
</g>
</svg>
