<?xml version="1.0" standalone="no"?>
<!DOCTYPE svg PUBLIC "-//W3C//DTD SVG 20010904//EN"
 "http://www.w3.org/TR/2001/REC-SVG-20010904/DTD/svg10.dtd">
<svg version="1.0" xmlns="http://www.w3.org/2000/svg"
 width="192.000000pt" height="192.000000pt" viewBox="0 0 192.000000 192.000000"
 preserveAspectRatio="xMidYMid meet">
<metadata>
Created by potrace 1.16, written by Peter Selinger 2001-2019
</metadata>
<g transform="translate(0.000000,192.000000) scale(0.100000,-0.100000)"
fill="#000000" stroke="none">
811 c445 -92 729 -532 635 -987 -62 -301 -295 -546 -601 -630 -91 -26 -329
-26 -420 0 -291 80 -516 305 -596 596 -26 91 -26 329 0 420 120 433 542 692
982 601z"/>
<path d="M870 1366 c-103 -22 -228 -104 -214 -140 10 -25 37 -19 85 18 24 19
73 44 109 56 65 22 109 23 211 4 29 -5 37 -3 43 11 10 28 -10 42 -78 54 -75
13 -85 13 -156 -3z"/>
<path d="M1175 1280 c-8 -13 0 -52 30 -153 29 -95 11 -100 -20 -6 -27 80 -47
119 -73 142 -17 16 -20 16 -32 2 -24 -29 -6 -101 44 -173 26 -37 42 -68 36
-70 -5 -2 -29 12 -52 31 -100 82 -209 112 -299 84 l-47 -14 -9 31 c-8 25 -14
30 -34 28 -13 -1 -35 -11 -49 -21 -54 -39 -57 -94 -7 -119 l25 -12 -59 -60
c-59 -58 -89 -109 -89 -150 0 -29 12 -25 80 21 115 78 222 102 330 75 103 -27
157 -62 266 -173 55 -57 105 -103 111 -103 6 0 16 7 23 15 17 20 0 66 -45 121
-19 23 -35 47 -35 52 0 5 13 12 30 15 16 4 39 16 50 27 33 33 25 66 -30 124
l-50 53 0 71 c0 78 -11 116 -42 150 -23 24 -43 28 -53 12z"/>
<path d="M621 766 c-9 -10 -9 -20 -2 -33 19 -37 113 -115 169 -141 51 -24 69
-27 167 -27 99 0 116 3 168 27 41 20 57 32 57 47 0 32 -17 34 -84 7 -49 -20
-82 -26 -140 -26 -107 0 -173 27 -250 101 -33 33 -63 59 -67 59 -4 0 -12 -6
-18 -14z"/>
</g>
</svg>
