<?xml version="1.0" standalone="no"?>
<!DOCTYPE svg PUBLIC "-//W3C//DTD SVG 20010904//EN"
 "http://www.w3.org/TR/2001/REC-SVG-20010904/DTD/svg10.dtd">
<svg version="1.0" xmlns="http://www.w3.org/2000/svg"
 width="192.000000pt" height="192.000000pt" viewBox="0 0 192.000000 192.000000"
 preserveAspectRatio="xMidYMid meet">
<metadata>
Created by potrace 1.16, written by Peter Selinger 2001-2019
</metadata>
<g transform="translate(0.000000,192.000000) scale(0.100000,-0.100000)"
fill="#000000" stroke="none">
811 c445 -92 729 -532 635 -987 -62 -301 -295 -546 -601 -630 -91 -26 -329
-26 -420 0 -291 80 -516 305 -596 596 -26 91 -26 329 0 420 120 433 542 692
982 601z"/>
<path d="M646 1389 c-16 -24 -17 -23 27 -87 16 -24 27 -45 25 -48 -3 -2 -22
-10 -43 -17 -47 -16 -65 -40 -49 -64 8 -13 51 -27 147 -47 l135 -29 -31 -39
c-30 -37 -31 -40 -19 -84 16 -59 15 -64 -9 -64 -11 0 -47 -25 -80 -57 -78 -74
-78 -90 0 -191 32 -42 69 -87 82 -98 39 -35 115 -48 201 -34 123 19 128 48 20
110 -75 44 -78 46 -63 63 6 8 14 36 17 63 5 34 18 64 42 97 l36 47 16 -42 c12
-34 21 -44 42 -46 39 -5 93 47 114 111 9 29 25 66 35 83 22 37 24 73 6 98 -19
25 -49 16 -67 -20 l-16 -30 -39 18 c-22 9 -50 18 -62 18 -32 0 -53 10 -53 25
0 7 -13 42 -29 77 l-29 65 -148 65 c-194 85 -189 84 -208 57z"/>
</g>
</svg>
