<?xml version="1.0" standalone="no"?>
<!DOCTYPE svg PUBLIC "-//W3C//DTD SVG 20010904//EN"
 "http://www.w3.org/TR/2001/REC-SVG-20010904/DTD/svg10.dtd">
<svg version="1.0" xmlns="http://www.w3.org/2000/svg"
 width="192.000000pt" height="192.000000pt" viewBox="0 0 192.000000 192.000000"
 preserveAspectRatio="xMidYMid meet">
<metadata>
Created by potrace 1.16, written by Peter Selinger 2001-2019
</metadata>
<g transform="translate(0.000000,192.000000) scale(0.100000,-0.100000)"
fill="#000000" stroke="none">
811 c445 -92 729 -532 635 -987 -62 -301 -295 -546 -601 -630 -91 -26 -329
-26 -420 0 -291 80 -516 305 -596 596 -26 91 -26 329 0 420 120 433 542 692
982 601z"/>
<path d="M917 1393 c-3 -5 -8 -30 -12 -58 -12 -85 -32 -116 -144 -225 -59 -58
-115 -123 -125 -144 -26 -55 -19 -183 14 -251 100 -206 392 -247 556 -79 87
90 115 250 62 365 -26 57 -82 129 -101 129 -6 0 -24 -12 -39 -27 l-29 -27 7
55 c8 67 -4 109 -50 173 -50 71 -123 117 -139 89z m26 -533 c5 -4 22 -1 38 7
55 27 111 -26 95 -91 -10 -42 -87 -116 -121 -116 -34 0 -111 74 -121 116 -18
71 60 130 109 84z"/>
</g>
</svg>
