<?xml version="1.0" standalone="no"?>
<!DOCTYPE svg PUBLIC "-//W3C//DTD SVG 20010904//EN"
 "http://www.w3.org/TR/2001/REC-SVG-20010904/DTD/svg10.dtd">
<svg version="1.0" xmlns="http://www.w3.org/2000/svg"
 width="192.000000pt" height="192.000000pt" viewBox="0 0 192.000000 192.000000"
 preserveAspectRatio="xMidYMid meet">
<metadata>
Created by potrace 1.16, written by Peter Selinger 2001-2019
</metadata>
<g transform="translate(0.000000,192.000000) scale(0.100000,-0.100000)"
fill="#000000" stroke="none">
811 c445 -92 729 -532 635 -987 -62 -301 -295 -546 -601 -630 -91 -26 -329
-26 -420 0 -291 80 -516 305 -596 596 -26 91 -26 329 0 420 120 433 542 692
982 601z"/>
<path d="M643 1310 c-46 -28 -53 -48 -53 -152 0 -140 29 -168 170 -168 138 0
170 32 170 172 0 135 -33 167 -170 168 -67 0 -92 -4 -117 -20z"/>
<path d="M1038 1314 c-43 -23 -58 -63 -58 -154 0 -138 32 -170 170 -170 138 0
170 32 170 170 0 138 -32 170 -172 170 -54 -1 -93 -6 -110 -16z"/>
<path d="M643 920 c-46 -28 -53 -48 -53 -152 0 -140 29 -168 172 -168 135 1
168 34 168 168 0 140 -32 172 -172 172 -65 0 -90 -4 -115 -20z"/>
<path d="M1035 918 c-38 -29 -55 -76 -55 -148 0 -72 17 -119 55 -148 24 -19
40 -22 120 -22 80 0 96 3 120 22 38 29 55 76 55 148 0 72 -17 119 -55 148 -24
19 -40 22 -120 22 -80 0 -96 -3 -120 -22z"/>
</g>
</svg>
