<?xml version="1.0" standalone="no"?>
<!DOCTYPE svg PUBLIC "-//W3C//DTD SVG 20010904//EN"
 "http://www.w3.org/TR/2001/REC-SVG-20010904/DTD/svg10.dtd">
<svg version="1.0" xmlns="http://www.w3.org/2000/svg"
 width="192.000000pt" height="192.000000pt" viewBox="0 0 192.000000 192.000000"
 preserveAspectRatio="xMidYMid meet">
<metadata>
Created by potrace 1.16, written by Peter Selinger 2001-2019
</metadata>
<g transform="translate(0.000000,192.000000) scale(0.100000,-0.100000)"
fill="#000000" stroke="none">
811 c445 -92 729 -532 635 -987 -62 -301 -295 -546 -601 -630 -91 -26 -329
-26 -420 0 -291 80 -516 305 -596 596 -26 91 -26 329 0 420 120 433 542 692
982 601z"/>
<path d="M994 1357 c-7 -19 2 -37 20 -37 25 0 132 -60 161 -90 l29 -31 -75 35
c-85 39 -218 80 -295 91 -40 5 -53 3 -64 -10 -19 -23 -2 -36 92 -69 42 -15 98
-41 125 -58 52 -32 142 -115 176 -162 l21 -30 -44 30 c-121 82 -279 152 -415
185 -92 21 -125 19 -125 -11 0 -23 7 -27 93 -62 147 -60 292 -178 362 -297 10
-17 5 -14 -80 45 -116 81 -329 174 -397 174 -32 0 -47 -23 -28 -45 6 -8 32
-24 56 -36 64 -31 155 -101 198 -153 20 -24 36 -47 36 -49 0 -3 -34 12 -74 33
-127 66 -196 64 -196 -3 0 -57 95 -174 175 -214 46 -24 60 10 19 48 -39 37
-87 99 -81 106 10 9 91 -43 183 -117 94 -76 124 -85 149 -46 14 20 14 31 5 68
-7 23 -21 61 -32 83 l-20 40 28 -25 c16 -14 59 -52 95 -86 70 -64 107 -81 139
-64 43 23 28 124 -34 236 -14 24 -23 44 -20 44 2 0 31 -20 65 -45 34 -25 69
-45 79 -45 27 0 50 27 50 58 0 34 -41 122 -85 184 -19 26 -33 48 -30 48 2 0
20 -7 39 -17 29 -13 38 -14 51 -3 57 47 -54 208 -187 270 -80 37 -155 50 -164
27z"/>
</g>
</svg>
