<?xml version="1.0" standalone="no"?>
<!DOCTYPE svg PUBLIC "-//W3C//DTD SVG 20010904//EN"
 "http://www.w3.org/TR/2001/REC-SVG-20010904/DTD/svg10.dtd">
<svg version="1.0" xmlns="http://www.w3.org/2000/svg"
 width="192.000000pt" height="192.000000pt" viewBox="0 0 192.000000 192.000000"
 preserveAspectRatio="xMidYMid meet">
<metadata>
Created by potrace 1.16, written by Peter Selinger 2001-2019
</metadata>
<g transform="translate(0.000000,192.000000) scale(0.100000,-0.100000)"
fill="#000000" stroke="none">
811 c445 -92 729 -532 635 -987 -62 -301 -295 -546 -601 -630 -91 -26 -329
-26 -420 0 -291 80 -516 305 -596 596 -26 91 -26 329 0 420 120 433 542 692
982 601z"/>
<path d="M1024 1382 c-6 -4 -48 -62 -93 -129 -64 -97 -86 -123 -104 -123 -47
1 -129 27 -138 43 -18 31 -48 40 -75 22 -40 -26 -31 -56 46 -145 39 -45 70
-86 70 -91 0 -5 -27 -48 -61 -96 -35 -52 -58 -95 -56 -105 3 -11 -2 -20 -14
-23 -18 -6 -28 -35 -11 -35 4 0 72 20 152 45 114 35 147 42 155 32 6 -6 38
-43 70 -80 35 -41 64 -66 72 -63 10 4 12 -1 7 -19 -14 -57 52 -98 90 -57 15
17 15 30 1 162 -8 79 -14 144 -13 145 2 1 44 13 93 28 92 28 115 45 115 82 0
35 -29 52 -128 73 -52 11 -96 23 -99 25 -2 3 -7 34 -10 69 -11 122 -43 130
-43 11 0 -60 -3 -74 -14 -70 -7 3 -34 9 -60 12 -25 4 -46 10 -46 14 1 3 39 51
85 106 49 58 85 109 85 122 0 39 -45 66 -76 45z m-231 -299 c20 -6 22 -17 4
-32 -14 -11 -31 1 -52 38 -6 11 -4 13 11 7 10 -5 27 -11 37 -13z m171 -64 c76
-27 86 -34 86 -55 0 -21 -12 -30 -76 -59 -42 -19 -78 -35 -79 -35 -1 0 -18 24
-38 54 l-36 54 27 36 c15 19 28 35 29 36 1 0 40 -14 87 -31z m170 -48 c3 -5
-1 -12 -10 -15 -22 -9 -24 -8 -24 9 0 16 25 21 34 6z m-304 -125 c0 -6 -117
-63 -178 -87 -16 -6 -1 17 48 76 l71 84 30 -33 c16 -19 29 -37 29 -40z m220
-103 c0 -53 -4 -93 -8 -87 -26 30 -103 146 -99 150 4 4 85 31 100 33 4 1 7
-43 7 -96z"/>
</g>
</svg>
