<?xml version="1.0" standalone="no"?>
<!DOCTYPE svg PUBLIC "-//W3C//DTD SVG 20010904//EN"
 "http://www.w3.org/TR/2001/REC-SVG-20010904/DTD/svg10.dtd">
<svg version="1.0" xmlns="http://www.w3.org/2000/svg"
 width="192.000000pt" height="192.000000pt" viewBox="0 0 192.000000 192.000000"
 preserveAspectRatio="xMidYMid meet">
<metadata>
Created by potrace 1.16, written by Peter Selinger 2001-2019
</metadata>
<g transform="translate(0.000000,192.000000) scale(0.100000,-0.100000)"
fill="#000000" stroke="none">
811 c445 -92 729 -532 635 -987 -62 -301 -295 -546 -601 -630 -91 -26 -329
-26 -420 0 -291 80 -516 305 -596 596 -26 91 -26 329 0 420 120 433 542 692
982 601z"/>
<path d="M773 1331 c-89 -25 -168 -52 -175 -59 -10 -9 -13 -54 -12 -165 1
-229 29 -315 139 -423 64 -63 186 -134 230 -134 44 0 166 71 230 134 110 108
138 194 139 423 1 123 -2 155 -14 167 -14 13 -337 107 -363 105 -6 -1 -85 -22
-174 -48z m297 -146 c50 -26 100 -111 100 -169 0 -52 -24 -103 -67 -144 -45
-44 -74 -51 -36 -9 37 40 56 90 56 147 0 62 -19 108 -66 158 -34 35 -31 40 13
17z m-67 -11 c18 -9 40 -24 51 -33 25 -22 56 -85 56 -113 -1 -21 -2 -21 -17 7
-40 76 -106 116 -189 116 -30 0 -68 -7 -86 -15 -37 -19 -50 -13 -22 10 56 45
148 57 207 28z m-53 -44 c12 -8 10 -10 -10 -10 -40 -1 -103 -34 -137 -73 -40
-46 -57 -97 -51 -158 3 -27 3 -49 1 -49 -10 0 -33 73 -33 107 0 46 29 110 63
141 45 42 133 64 167 42z m-145 -179 c0 -61 4 -74 30 -113 34 -48 96 -88 137
-88 15 0 30 -4 33 -10 4 -6 -12 -10 -41 -10 -102 0 -182 71 -192 169 -4 46 12
121 26 121 4 0 7 -31 7 -69z m360 -86 c-52 -90 -163 -121 -255 -72 -56 30 -66
53 -13 31 94 -40 203 -7 258 77 39 59 48 28 10 -36z"/>
</g>
</svg>
