<?xml version="1.0" standalone="no"?>
<!DOCTYPE svg PUBLIC "-//W3C//DTD SVG 20010904//EN"
 "http://www.w3.org/TR/2001/REC-SVG-20010904/DTD/svg10.dtd">
<svg version="1.0" xmlns="http://www.w3.org/2000/svg"
 width="192.000000pt" height="192.000000pt" viewBox="0 0 192.000000 192.000000"
 preserveAspectRatio="xMidYMid meet">
<metadata>
Created by potrace 1.16, written by Peter Selinger 2001-2019
</metadata>
<g transform="translate(0.000000,192.000000) scale(0.100000,-0.100000)"
fill="#000000" stroke="none">
811 c445 -92 729 -532 635 -987 -62 -301 -295 -546 -601 -630 -91 -26 -329
-26 -420 0 -291 80 -516 305 -596 596 -26 91 -26 329 0 420 120 433 542 692
982 601z"/>
<path d="M364 1210 c-22 -9 -37 -34 -27 -44 13 -13 42 -6 37 9 -5 12 5 15 53
15 147 0 336 -103 359 -196 18 -70 -55 -127 -156 -122 l-55 3 -3 59 -3 59 52
-7 c64 -9 73 -14 59 -31 -19 -23 10 -30 32 -7 39 39 -18 82 -109 82 -31 0 -33
2 -33 34 0 18 -6 39 -14 46 -12 9 -16 5 -21 -27 -4 -21 -8 -42 -9 -47 -1 -4
-24 -15 -50 -25 -87 -29 -87 -57 0 -123 26 -20 52 -46 56 -58 8 -23 23 -26 35
-7 5 8 34 12 83 12 88 0 142 22 171 69 39 64 20 126 -59 197 -87 78 -196 119
-312 118 -36 0 -74 -4 -86 -9z m166 -270 c0 -27 -4 -50 -8 -50 -4 0 -30 14
-56 31 -53 33 -52 45 6 59 58 14 58 14 58 -40z"/>
<path d="M859 1177 c-30 -20 -34 -28 -33 -65 0 -23 3 -44 5 -45 2 -2 25 -2 52
1 36 3 55 11 77 34 39 38 38 62 -2 82 -42 21 -59 20 -99 -7z m21 -20 c0 -2 -9
-12 -20 -22 -24 -21 -27 -14 -4 9 15 15 24 20 24 13z m80 -11 c0 -22 -29 -46
-56 -46 -33 0 -30 14 9 39 38 25 47 26 47 7z"/>
<path d="M1190 1043 c0 -10 5 -35 11 -56 16 -59 6 -64 -26 -13 -33 52 -51 58
-65 20 -13 -33 -13 -121 -1 -129 14 -8 31 28 31 66 l0 33 30 -48 c32 -51 48
-54 67 -15 18 34 16 67 -7 117 -19 43 -40 56 -40 25z"/>
<path d="M960 1027 c-44 -15 -54 -57 -18 -75 16 -7 18 -11 7 -11 -45 -2 -19
-65 31 -76 39 -9 97 11 105 36 15 47 -27 78 -110 80 -50 1 1 17 57 18 26 1 50
6 54 12 17 28 -62 38 -126 16z m99 -92 c3 -4 -3 -13 -13 -21 -23 -16 -92 -19
-101 -4 -4 6 10 9 37 7 50 -2 66 15 23 25 -25 6 -23 7 9 3 21 -2 41 -7 45 -10z"/>
<path d="M1305 1033 c-48 -10 -51 -14 -31 -29 17 -12 18 -15 4 -31 -18 -22
-23 -90 -7 -109 15 -18 33 -18 75 2 49 23 43 50 -10 46 -28 -3 -37 0 -34 10 3
7 19 14 36 16 39 4 45 32 7 32 -42 0 -28 18 20 26 47 7 53 12 33 32 -12 12
-53 14 -93 5z"/>
<path d="M1429 1003 c-15 -24 -24 -54 -24 -88 -1 -27 -7 -63 -13 -78 -15 -37
-15 -100 0 -115 17 -17 28 -15 28 5 0 9 7 43 16 75 14 48 20 58 38 58 66 0
124 111 80 155 -15 15 -18 15 -41 0 -14 -9 -38 -31 -54 -48 -21 -23 -27 -26
-22 -12 3 11 12 29 20 40 7 11 13 25 13 32 0 24 -18 13 -41 -24z m121 -27 c0
-21 -44 -70 -58 -65 -8 3 -4 17 13 42 27 38 45 48 45 23z"/>
<path d="M867 1023 c-4 -3 -7 -42 -7 -85 0 -71 2 -78 20 -78 18 0 20 7 20 69
0 88 -10 117 -33 94z"/>
</g>
</svg>
