<?xml version="1.0" standalone="no"?>
<!DOCTYPE svg PUBLIC "-//W3C//DTD SVG 20010904//EN"
 "http://www.w3.org/TR/2001/REC-SVG-20010904/DTD/svg10.dtd">
<svg version="1.0" xmlns="http://www.w3.org/2000/svg"
 width="192.000000pt" height="192.000000pt" viewBox="0 0 192.000000 192.000000"
 preserveAspectRatio="xMidYMid meet">
<metadata>
Created by potrace 1.16, written by Peter Selinger 2001-2019
</metadata>
<g transform="translate(0.000000,192.000000) scale(0.100000,-0.100000)"
fill="#000000" stroke="none">
811 c445 -92 729 -532 635 -987 -62 -301 -295 -546 -601 -630 -91 -26 -329
-26 -420 0 -291 80 -516 305 -596 596 -26 91 -26 329 0 420 120 433 542 692
982 601z"/>
<path d="M975 1324 c-16 -8 -57 -41 -90 -72 -34 -31 -98 -77 -143 -101 -135
-72 -189 -141 -199 -251 -8 -87 17 -152 87 -222 43 -43 69 -60 110 -72 99 -29
183 -17 268 39 33 22 43 24 66 15 39 -14 141 -12 179 4 62 25 117 111 117 182
0 45 -32 122 -75 182 -53 72 -98 105 -136 98 -25 -5 -26 -2 -38 61 -14 77 -32
116 -63 137 -28 20 -45 20 -83 0z m31 -156 c4 -6 11 -57 15 -112 9 -115 22
-136 68 -112 14 8 37 26 50 40 29 31 48 24 91 -36 57 -79 30 -188 -47 -188
-15 0 -50 14 -78 30 -27 16 -57 30 -66 30 -10 0 -32 -17 -49 -37 -51 -59 -97
-83 -158 -83 -138 0 -225 121 -177 246 16 43 80 104 109 104 23 0 133 59 174
94 47 39 57 42 68 24z"/>
<path d="M905 1048 c-15 -11 -54 -30 -88 -42 -77 -26 -112 -70 -104 -129 14
-107 128 -151 208 -79 25 22 32 39 41 97 12 79 4 161 -17 169 -7 2 -26 -4 -40
-16z"/>
<path d="M1132 924 c-45 -31 -17 -104 41 -104 34 0 57 24 57 60 0 30 -30 60
-60 60 -9 0 -26 -7 -38 -16z"/>
</g>
</svg>
