<?xml version="1.0" standalone="no"?>
<!DOCTYPE svg PUBLIC "-//W3C//DTD SVG 20010904//EN"
 "http://www.w3.org/TR/2001/REC-SVG-20010904/DTD/svg10.dtd">
<svg version="1.0" xmlns="http://www.w3.org/2000/svg"
 width="192.000000pt" height="192.000000pt" viewBox="0 0 192.000000 192.000000"
 preserveAspectRatio="xMidYMid meet">
<metadata>
Created by potrace 1.16, written by Peter Selinger 2001-2019
</metadata>
<g transform="translate(0.000000,192.000000) scale(0.100000,-0.100000)"
fill="#000000" stroke="none">
811 c445 -92 729 -532 635 -987 -62 -301 -295 -546 -601 -630 -91 -26 -329
-26 -420 0 -291 80 -516 305 -596 596 -26 91 -26 329 0 420 120 433 542 692
982 601z"/>
<path d="M633 1336 l-28 -24 0 -347 0 -347 28 -24 c25 -21 38 -24 107 -24 75
0 79 1 104 31 23 27 26 39 26 113 0 50 5 87 12 94 16 16 130 16 146 0 7 -7 12
-44 12 -94 0 -74 3 -86 26 -113 25 -30 29 -31 104 -31 69 0 82 3 107 24 l28
24 0 187 0 187 -26 22 c-14 12 -75 36 -140 55 -63 18 -169 48 -236 68 l-123
36 0 59 c0 88 -27 127 -87 128 -20 0 -43 -9 -60 -24z"/>
</g>
</svg>
