<?xml version="1.0" standalone="no"?>
<!DOCTYPE svg PUBLIC "-//W3C//DTD SVG 20010904//EN"
 "http://www.w3.org/TR/2001/REC-SVG-20010904/DTD/svg10.dtd">
<svg version="1.0" xmlns="http://www.w3.org/2000/svg"
 width="192.000000pt" height="192.000000pt" viewBox="0 0 192.000000 192.000000"
 preserveAspectRatio="xMidYMid meet">
<metadata>
Created by potrace 1.16, written by Peter Selinger 2001-2019
</metadata>
<g transform="translate(0.000000,192.000000) scale(0.100000,-0.100000)"
fill="#000000" stroke="none">
811 c445 -92 729 -532 635 -987 -62 -301 -295 -546 -601 -630 -91 -26 -329
-26 -420 0 -291 80 -516 305 -596 596 -26 91 -26 329 0 420 120 433 542 692
982 601z"/>
<path d="M1084 1350 c-12 -5 -41 -36 -64 -69 -40 -57 -47 -62 -110 -81 -86
-26 -98 -25 -167 5 -72 32 -118 30 -146 -7 -19 -25 -19 -33 -7 -239 8 -147 16
-222 26 -242 19 -35 70 -67 109 -67 23 0 34 -7 47 -30 10 -17 34 -38 55 -47
33 -13 43 -14 77 -2 50 18 81 59 81 109 l0 38 90 25 c49 13 91 23 93 22 2 -2
10 -29 19 -62 8 -32 19 -64 25 -70 17 -21 66 -16 82 10 14 20 13 29 -2 86 -15
57 -15 65 -2 69 8 3 30 20 48 38 54 54 48 83 -62 302 -52 103 -100 193 -108
199 -20 17 -60 23 -84 13z m13 -276 c22 -11 44 -35 64 -68 59 -103 35 -132
-146 -181 -182 -50 -195 -51 -228 -25 -25 20 -27 27 -27 95 0 94 22 124 113
154 131 43 174 48 224 25z"/>
<path d="M1015 1000 c-3 -5 -1 -28 5 -50 9 -34 15 -41 33 -38 26 4 33 32 18
71 -11 27 -44 37 -56 17z"/>
<path d="M851 956 c-18 -21 8 -91 34 -91 17 0 20 6 19 43 -1 54 -28 78 -53 48z"/>
<path d="M886 1249 c-37 -9 -73 -22 -78 -27 -17 -17 2 -34 31 -27 88 21 131
38 131 50 0 22 -11 23 -84 4z"/>
</g>
</svg>
