<?xml version="1.0" standalone="no"?>
<!DOCTYPE svg PUBLIC "-//W3C//DTD SVG 20010904//EN"
 "http://www.w3.org/TR/2001/REC-SVG-20010904/DTD/svg10.dtd">
<svg version="1.0" xmlns="http://www.w3.org/2000/svg"
 width="192.000000pt" height="192.000000pt" viewBox="0 0 192.000000 192.000000"
 preserveAspectRatio="xMidYMid meet">
<metadata>
Created by potrace 1.16, written by Peter Selinger 2001-2019
</metadata>
<g transform="translate(0.000000,192.000000) scale(0.100000,-0.100000)"
fill="#000000" stroke="none">
811 c445 -92 729 -532 635 -987 -62 -301 -295 -546 -601 -630 -91 -26 -329
-26 -420 0 -291 80 -516 305 -596 596 -26 91 -26 329 0 420 120 433 542 692
982 601z"/>
<path d="M816 1377 c-17 -13 -216 -541 -216 -575 0 -45 72 -69 103 -34 11 13
117 282 117 299 0 2 7 3 15 3 8 0 15 -2 15 -5 0 -2 -21 -62 -46 -132 -43 -117
-45 -130 -32 -153 28 -50 88 -39 113 22 51 127 104 290 98 305 -13 38 -36 53
-80 53 -23 0 -43 4 -43 9 0 5 11 39 25 75 30 80 31 100 5 126 -23 23 -49 26
-74 7z"/>
<path d="M1046 1152 c-12 -20 -196 -537 -196 -552 0 -37 62 -64 98 -41 7 4 28
48 46 97 l33 89 70 3 c58 2 74 7 90 25 21 23 123 294 123 325 0 10 -9 28 -20
40 -19 20 -31 22 -130 22 -60 0 -111 -4 -114 -8z m123 -94 c0 -7 -17 -58 -37
-113 -25 -66 -43 -101 -54 -103 -15 -3 -13 9 14 80 17 46 35 98 41 116 10 31
38 46 36 20z"/>
</g>
</svg>
