<?xml version="1.0" standalone="no"?>
<!DOCTYPE svg PUBLIC "-//W3C//DTD SVG 20010904//EN"
 "http://www.w3.org/TR/2001/REC-SVG-20010904/DTD/svg10.dtd">
<svg version="1.0" xmlns="http://www.w3.org/2000/svg"
 width="192.000000pt" height="192.000000pt" viewBox="0 0 192.000000 192.000000"
 preserveAspectRatio="xMidYMid meet">
<metadata>
Created by potrace 1.16, written by Peter Selinger 2001-2019
</metadata>
<g transform="translate(0.000000,192.000000) scale(0.100000,-0.100000)"
fill="#000000" stroke="none">
811 c445 -92 729 -532 635 -987 -62 -301 -295 -546 -601 -630 -91 -26 -329
-26 -420 0 -291 80 -516 305 -596 596 -26 91 -26 329 0 420 120 433 542 692
982 601z"/>
<path d="M887 1279 c-20 -57 -37 -107 -37 -111 0 -5 18 -8 41 -8 96 0 99 -28
27 -227 l-51 -143 -49 0 c-26 0 -48 4 -48 8 0 5 24 75 54 156 42 114 51 149
40 153 -7 3 -19 3 -26 1 -7 -3 -38 -74 -69 -159 l-56 -154 -53 -3 c-47 -3 -52
-1 -45 15 41 105 193 538 190 541 -10 10 -110 -56 -151 -100 -189 -202 -129
-529 119 -653 28 -14 58 -25 66 -25 12 0 45 80 121 295 l105 295 95 0 c98 0
140 -13 140 -45 0 -32 -103 -301 -122 -317 -15 -13 -38 -18 -84 -18 -35 0 -64
-1 -64 -3 0 -2 -18 -52 -40 -112 -21 -60 -37 -111 -35 -113 9 -10 133 20 180
43 154 75 246 237 232 406 -16 195 -183 363 -374 376 l-68 5 -38 -103z"/>
<path d="M1097 978 c-26 -73 -47 -136 -47 -140 0 -17 58 -8 65 10 4 9 27 72
51 140 l44 122 -33 0 -33 0 -47 -132z"/>
</g>
</svg>
