<?xml version="1.0" standalone="no"?>
<!DOCTYPE svg PUBLIC "-//W3C//DTD SVG 20010904//EN"
 "http://www.w3.org/TR/2001/REC-SVG-20010904/DTD/svg10.dtd">
<svg version="1.0" xmlns="http://www.w3.org/2000/svg"
 width="192.000000pt" height="192.000000pt" viewBox="0 0 192.000000 192.000000"
 preserveAspectRatio="xMidYMid meet">
<metadata>
Created by potrace 1.16, written by Peter Selinger 2001-2019
</metadata>
<g transform="translate(0.000000,192.000000) scale(0.100000,-0.100000)"
fill="#000000" stroke="none">
811 c445 -92 729 -532 635 -987 -62 -301 -295 -546 -601 -630 -91 -26 -329
-26 -420 0 -291 80 -516 305 -596 596 -26 91 -26 329 0 420 120 433 542 692
982 601z"/>
<path d="M953 1294 c-46 -23 -73 -86 -89 -207 -24 -177 -34 -240 -41 -250 -3
-6 -19 15 -34 45 -46 91 -118 111 -182 50 -32 -31 -53 -97 -63 -200 -6 -62 -4
-75 11 -92 20 -23 58 -26 72 -7 6 6 13 44 17 82 8 85 23 145 36 145 6 0 17
-18 26 -40 50 -125 182 -117 219 13 8 29 21 110 30 180 16 130 38 209 54 191
5 -5 20 -47 35 -94 28 -94 52 -126 104 -136 67 -14 130 46 147 138 4 21 11 35
17 32 16 -10 58 25 58 50 0 30 -81 106 -112 106 -27 0 -118 -80 -118 -104 0
-18 34 -56 51 -56 13 0 2 -39 -16 -59 -11 -12 -18 0 -39 70 -31 100 -47 126
-92 145 -42 18 -51 17 -91 -2z"/>
<path d="M608 1151 c-47 -67 -33 -91 52 -91 85 0 99 24 53 91 -20 27 -35 39
-53 39 -18 0 -33 -12 -52 -39z"/>
<path d="M1110 870 c-9 -17 -7 -28 9 -54 33 -53 56 -69 80 -57 20 11 71 78 71
93 0 23 -36 38 -90 38 -49 0 -61 -3 -70 -20z"/>
</g>
</svg>
