<?xml version="1.0" standalone="no"?>
<!DOCTYPE svg PUBLIC "-//W3C//DTD SVG 20010904//EN"
 "http://www.w3.org/TR/2001/REC-SVG-20010904/DTD/svg10.dtd">
<svg version="1.0" xmlns="http://www.w3.org/2000/svg"
 width="192.000000pt" height="192.000000pt" viewBox="0 0 192.000000 192.000000"
 preserveAspectRatio="xMidYMid meet">
<metadata>
Created by potrace 1.16, written by Peter Selinger 2001-2019
</metadata>
<g transform="translate(0.000000,192.000000) scale(0.100000,-0.100000)"
fill="#000000" stroke="none">
811 c445 -92 729 -532 635 -987 -62 -301 -295 -546 -601 -630 -91 -26 -329
-26 -420 0 -291 80 -516 305 -596 596 -26 91 -26 329 0 420 120 433 542 692
982 601z"/>
<path d="M950 1373 c-8 -3 -25 -15 -37 -26 -22 -19 -23 -28 -23 -149 l0 -128
-106 0 c-103 0 -106 -1 -135 -29 -49 -50 -43 -69 92 -273 67 -101 128 -189
137 -195 28 -22 90 -16 117 12 24 23 25 30 25 150 l0 125 95 0 c102 0 145 13
165 49 24 45 11 74 -115 264 -135 202 -156 221 -215 200z"/>
</g>
</svg>
