<?xml version="1.0" standalone="no"?>
<!DOCTYPE svg PUBLIC "-//W3C//DTD SVG 20010904//EN"
 "http://www.w3.org/TR/2001/REC-SVG-20010904/DTD/svg10.dtd">
<svg version="1.0" xmlns="http://www.w3.org/2000/svg"
 width="192.000000pt" height="192.000000pt" viewBox="0 0 192.000000 192.000000"
 preserveAspectRatio="xMidYMid meet">
<metadata>
Created by potrace 1.16, written by Peter Selinger 2001-2019
</metadata>
<g transform="translate(0.000000,192.000000) scale(0.100000,-0.100000)"
fill="#000000" stroke="none">
811 c445 -92 729 -532 635 -987 -62 -301 -295 -546 -601 -630 -91 -26 -329
-26 -420 0 -291 80 -516 305 -596 596 -26 91 -26 329 0 420 120 433 542 692
982 601z"/>
<path d="M577 1322 c-59 -61 -18 -162 66 -162 53 0 97 43 97 95 0 84 -105 127
-163 67z"/>
<path d="M889 1321 c-21 -22 -29 -39 -29 -66 0 -51 44 -95 95 -95 51 0 95 44
95 95 0 27 -8 44 -29 66 -22 21 -39 29 -66 29 -27 0 -44 -8 -66 -29z"/>
<path d="M1199 1321 c-21 -22 -29 -39 -29 -66 0 -84 105 -127 163 -67 88 91
-44 222 -134 133z"/>
<path d="M579 1031 c-22 -23 -29 -39 -29 -69 0 -90 101 -128 163 -61 38 41 37
90 -2 130 -22 21 -39 29 -66 29 -27 0 -44 -8 -66 -29z"/>
<path d="M889 1031 c-39 -39 -40 -97 -4 -134 42 -42 97 -42 139 0 58 58 14
163 -69 163 -27 0 -44 -8 -66 -29z"/>
<path d="M1199 1031 c-39 -40 -40 -89 -1 -130 61 -67 162 -29 162 61 0 30 -7
46 -29 69 -41 40 -91 40 -132 0z"/>
<path d="M580 742 c-52 -52 -39 -131 27 -158 68 -29 133 18 133 95 0 44 -37
81 -87 88 -37 5 -45 2 -73 -25z"/>
<path d="M890 742 c-52 -52 -39 -131 27 -158 68 -29 133 14 133 88 0 52 -33
88 -87 95 -37 5 -45 2 -73 -25z"/>
<path d="M1224 760 c-76 -30 -69 -154 10 -180 27 -9 41 -8 69 4 42 17 57 41
57 91 0 69 -69 112 -136 85z"/>
</g>
</svg>
