<?xml version="1.0" standalone="no"?>
<!DOCTYPE svg PUBLIC "-//W3C//DTD SVG 20010904//EN"
 "http://www.w3.org/TR/2001/REC-SVG-20010904/DTD/svg10.dtd">
<svg version="1.0" xmlns="http://www.w3.org/2000/svg"
 width="192.000000pt" height="192.000000pt" viewBox="0 0 192.000000 192.000000"
 preserveAspectRatio="xMidYMid meet">
<metadata>
Created by potrace 1.16, written by Peter Selinger 2001-2019
</metadata>
<g transform="translate(0.000000,192.000000) scale(0.100000,-0.100000)"
fill="#000000" stroke="none">
811 c445 -92 729 -532 635 -987 -62 -301 -295 -546 -601 -630 -91 -26 -329
-26 -420 0 -291 80 -516 305 -596 596 -26 91 -26 329 0 420 120 433 542 692
982 601z"/>
<path d="M695 1321 c-73 -33 -121 -113 -113 -189 l3 -33 120 121 120 120 -45
0 c-25 0 -63 -9 -85 -19z"/>
<path d="M796 1122 l-218 -219 3 -91 c2 -50 8 -94 12 -98 4 -5 146 130 314
299 169 168 304 310 299 314 -4 4 -49 9 -99 11 l-92 3 -219 -219z"/>
<path d="M1000 915 c-167 -167 -301 -308 -296 -312 4 -4 48 -10 98 -12 l91 -3
219 218 220 219 -4 88 c-2 48 -9 92 -14 97 -6 6 -117 -98 -314 -295z"/>
<path d="M1205 710 l-120 -120 44 0 c92 0 168 61 191 151 26 102 14 99 -115
-31z"/>
</g>
</svg>
