<?xml version="1.0" standalone="no"?>
<!DOCTYPE svg PUBLIC "-//W3C//DTD SVG 20010904//EN"
 "http://www.w3.org/TR/2001/REC-SVG-20010904/DTD/svg10.dtd">
<svg version="1.0" xmlns="http://www.w3.org/2000/svg"
 width="192.000000pt" height="192.000000pt" viewBox="0 0 192.000000 192.000000"
 preserveAspectRatio="xMidYMid meet">
<metadata>
Created by potrace 1.16, written by Peter Selinger 2001-2019
</metadata>
<g transform="translate(0.000000,192.000000) scale(0.100000,-0.100000)"
fill="#000000" stroke="none">
811 c445 -92 729 -532 635 -987 -62 -301 -295 -546 -601 -630 -91 -26 -329
-26 -420 0 -291 80 -516 305 -596 596 -26 91 -26 329 0 420 120 433 542 692
982 601z"/>
<path d="M695 1321 c-86 -40 -115 -99 -115 -236 l0 -95 70 0 70 0 0 73 c0 86
22 130 75 153 48 20 272 20 320 0 53 -23 75 -67 75 -153 l0 -73 70 0 70 0 0
95 c0 137 -29 196 -115 236 -35 16 -67 19 -260 19 -193 0 -225 -3 -260 -19z"/>
<path d="M800 1150 c-16 -16 -20 -33 -20 -89 l0 -68 31 -7 c18 -3 50 -25 76
-51 57 -59 81 -59 138 0 25 26 56 48 74 51 l31 7 0 68 c0 105 -7 109 -175 109
-122 0 -137 -2 -155 -20z"/>
<path d="M581 836 c4 -108 6 -117 34 -157 56 -79 77 -84 340 -84 263 0 284 5
340 84 28 40 30 49 34 157 l3 114 -111 0 -112 0 -47 -44 c-86 -81 -124 -81
-209 -5 l-53 49 -111 0 -111 0 3 -114z"/>
</g>
</svg>
