<?xml version="1.0" standalone="no"?>
<!DOCTYPE svg PUBLIC "-//W3C//DTD SVG 20010904//EN"
 "http://www.w3.org/TR/2001/REC-SVG-20010904/DTD/svg10.dtd">
<svg version="1.0" xmlns="http://www.w3.org/2000/svg"
 width="192.000000pt" height="192.000000pt" viewBox="0 0 192.000000 192.000000"
 preserveAspectRatio="xMidYMid meet">
<metadata>
Created by potrace 1.16, written by Peter Selinger 2001-2019
</metadata>
<g transform="translate(0.000000,192.000000) scale(0.100000,-0.100000)"
fill="#000000" stroke="none">
811 c445 -92 729 -532 635 -987 -62 -301 -295 -546 -601 -630 -91 -26 -329
-26 -420 0 -291 80 -516 305 -596 596 -26 91 -26 329 0 420 120 433 542 692
982 601z"/>
<path d="M909 1352 c-8 -4 -81 -56 -162 -115 -197 -146 -189 -129 -185 -412 4
-273 -9 -255 189 -255 136 0 139 0 155 25 15 23 14 27 -7 69 -12 24 -42 67
-66 95 -53 61 -83 123 -83 176 0 86 68 171 155 195 122 34 256 -72 255 -200
-1 -46 -26 -96 -82 -166 -57 -71 -88 -123 -88 -147 0 -8 8 -21 18 -30 15 -14
42 -17 155 -17 123 0 139 2 157 20 30 30 32 51 28 271 -3 185 -5 207 -23 236
-19 30 -259 218 -317 249 -28 15 -72 17 -99 6z"/>
<path d="M893 1030 c-39 -24 -53 -48 -53 -95 0 -113 126 -162 200 -79 88 101
-32 244 -147 174z"/>
</g>
</svg>
