<?xml version="1.0" standalone="no"?>
<!DOCTYPE svg PUBLIC "-//W3C//DTD SVG 20010904//EN"
 "http://www.w3.org/TR/2001/REC-SVG-20010904/DTD/svg10.dtd">
<svg version="1.0" xmlns="http://www.w3.org/2000/svg"
 width="192.000000pt" height="192.000000pt" viewBox="0 0 192.000000 192.000000"
 preserveAspectRatio="xMidYMid meet">
<metadata>
Created by potrace 1.16, written by Peter Selinger 2001-2019
</metadata>
<g transform="translate(0.000000,192.000000) scale(0.100000,-0.100000)"
fill="#000000" stroke="none">
811 c445 -92 729 -532 635 -987 -62 -301 -295 -546 -601 -630 -91 -26 -329
-26 -420 0 -291 80 -516 305 -596 596 -26 91 -26 329 0 420 120 433 542 692
982 601z"/>
<path d="M695 1321 c-48 -22 -79 -54 -100 -103 -12 -30 -15 -80 -15 -248 0
-115 4 -210 9 -210 5 0 89 16 187 35 99 19 181 35 183 35 2 0 -2 -6 -8 -14
-12 -15 -107 -39 -273 -72 -49 -9 -88 -20 -88 -24 0 -20 63 -89 96 -106 34
-17 66 -19 249 -22 243 -4 280 3 336 59 43 43 61 97 57 168 l-3 47 -114 -25
-113 -25 -25 28 c-25 29 -24 55 2 86 9 10 14 54 17 128 3 105 5 115 27 133 30
25 76 24 101 -1 23 -23 26 -75 8 -115 -9 -19 -9 -28 0 -37 7 -7 12 -41 12 -80
0 -54 -3 -68 -15 -68 -12 0 -15 13 -15 56 0 64 -13 94 -40 94 -32 0 -30 15 6
44 27 21 34 34 32 53 -4 34 -32 52 -55 37 -15 -9 -18 -29 -21 -119 -3 -105 -2
-108 24 -132 19 -18 24 -27 16 -35 -9 -9 -17 -7 -31 6 -11 10 -27 16 -36 13
-17 -7 -21 -42 -5 -52 5 -3 59 4 120 16 l110 22 0 144 c0 153 -9 194 -53 242
-44 47 -92 61 -219 61 l-118 0 0 -45 c0 -33 -4 -45 -15 -45 -11 0 -15 12 -15
45 l0 45 -87 0 c-64 0 -99 -5 -128 -19z m270 -115 c18 -28 17 -77 -2 -84 -9
-2 -13 7 -13 25 0 33 -16 53 -42 53 -26 0 -39 -34 -36 -93 3 -51 4 -52 51 -74
47 -23 62 -43 30 -43 -10 1 -38 11 -63 23 l-45 22 -3 77 c-2 67 0 80 18 98 29
29 85 27 105 -4z m-27 -102 c-2 -32 -7 -59 -13 -59 -11 0 -19 99 -10 123 12
32 26 -6 23 -64z m126 27 c14 -15 16 -35 14 -101 -2 -54 -7 -85 -15 -87 -9 -3
-13 20 -15 84 -2 70 -6 88 -18 88 -12 0 -16 -16 -18 -70 -3 -76 -13 -95 -48
-95 -29 0 -32 16 -4 23 18 5 20 14 20 75 0 51 4 75 16 86 21 21 47 20 68 -3z
m-233 -167 c-34 -38 -37 -66 -16 -131 6 -18 3 -23 -9 -23 -25 0 -49 65 -41
108 8 44 70 111 87 94 8 -8 2 -21 -21 -48z m205 -55 c10 -70 -61 -149 -134
-149 -42 0 -33 12 21 30 48 15 77 59 77 116 0 67 26 69 36 3z m204 -148 c0
-69 -13 -98 -31 -70 -10 16 -12 123 -2 132 3 4 12 7 20 7 9 0 13 -18 13 -69z"/>
</g>
</svg>
