<?xml version="1.0" standalone="no"?>
<!DOCTYPE svg PUBLIC "-//W3C//DTD SVG 20010904//EN"
 "http://www.w3.org/TR/2001/REC-SVG-20010904/DTD/svg10.dtd">
<svg version="1.0" xmlns="http://www.w3.org/2000/svg"
 width="192.000000pt" height="192.000000pt" viewBox="0 0 192.000000 192.000000"
 preserveAspectRatio="xMidYMid meet">
<metadata>
Created by potrace 1.16, written by Peter Selinger 2001-2019
</metadata>
<g transform="translate(0.000000,192.000000) scale(0.100000,-0.100000)"
fill="#000000" stroke="none">
811 c445 -92 729 -532 635 -987 -62 -301 -295 -546 -601 -630 -91 -26 -329
-26 -420 0 -291 80 -516 305 -596 596 -26 91 -26 329 0 420 120 433 542 692
982 601z"/>
<path d="M1308 1320 c-36 -33 -70 -60 -76 -60 -5 0 -17 9 -27 20 -22 24 -48
26 -66 4 -11 -13 -3 -25 57 -85 49 -49 75 -68 86 -64 28 11 28 33 2 65 l-26
30 26 33 c14 17 42 51 62 75 20 23 35 42 33 42 -3 0 -34 -27 -71 -60z"/>
<path d="M1010 1235 l-44 -45 -76 0 -76 0 -73 -74 c-64 -64 -73 -77 -61 -90 7
-9 27 -16 46 -16 45 0 49 -12 14 -45 -17 -16 -30 -36 -30 -45 0 -23 181 -200
206 -200 11 0 31 11 44 25 31 33 38 32 42 -11 2 -22 10 -42 20 -48 15 -9 30 1
94 64 l76 75 -6 70 -6 70 50 50 c27 27 50 53 50 59 0 16 -193 206 -210 206 -9
0 -36 -20 -60 -45z"/>
<path d="M614 849 c-3 -6 6 -23 20 -38 l27 -28 -56 -23 c-50 -20 -75 -46 -75
-77 0 -2 28 -34 62 -69 40 -42 69 -64 84 -64 26 0 58 37 74 86 13 39 20 42 45
14 40 -44 67 -16 29 30 -26 30 -26 31 -8 51 17 19 16 21 -31 69 l-49 50 -21
-20 -21 -20 -24 25 c-25 27 -45 32 -56 14z"/>
</g>
</svg>
