<?xml version="1.0" standalone="no"?>
<!DOCTYPE svg PUBLIC "-//W3C//DTD SVG 20010904//EN"
 "http://www.w3.org/TR/2001/REC-SVG-20010904/DTD/svg10.dtd">
<svg version="1.0" xmlns="http://www.w3.org/2000/svg"
 width="192.000000pt" height="192.000000pt" viewBox="0 0 192.000000 192.000000"
 preserveAspectRatio="xMidYMid meet">
<metadata>
Created by potrace 1.16, written by Peter Selinger 2001-2019
</metadata>
<g transform="translate(0.000000,192.000000) scale(0.100000,-0.100000)"
fill="#000000" stroke="none">
811 c445 -92 729 -532 635 -987 -62 -301 -295 -546 -601 -630 -91 -26 -329
-26 -420 0 -291 80 -516 305 -596 596 -26 91 -26 329 0 420 120 433 542 692
982 601z"/>
<path d="M782 1318 c-15 -19 -52 -132 -59 -183 -3 -25 -9 -45 -13 -45 -3 0
-27 7 -52 16 -26 8 -61 14 -80 12 -33 -3 -33 -3 -36 -61 -8 -156 71 -316 196
-395 234 -149 548 -16 611 259 15 65 14 199 -1 200 -36 3 -77 -4 -113 -20
l-41 -18 -12 63 c-15 81 -50 174 -68 181 -17 6 -79 -43 -123 -99 l-34 -43 -71
72 c-74 75 -86 82 -104 61z m93 -100 c33 -37 54 -69 51 -78 -2 -8 -14 -42 -25
-75 -11 -33 -22 -73 -26 -88 l-6 -28 -59 60 -60 61 10 52 c15 81 40 158 49
158 5 0 35 -28 66 -62z m249 6 c10 -30 21 -78 25 -105 l8 -50 -59 -59 c-32
-33 -60 -54 -62 -47 -6 21 -47 161 -52 178 -4 10 15 38 51 78 32 33 60 61 64
61 4 0 15 -25 25 -56z m-448 -165 c30 -12 32 -17 38 -73 4 -34 9 -76 13 -94
l5 -32 -70 32 c-77 36 -82 45 -82 149 l0 47 33 -8 c17 -5 46 -14 63 -21z m652
-10 c1 -19 -1 -54 -5 -78 -8 -40 -11 -44 -58 -62 -91 -35 -85 -37 -79 23 11
118 10 115 67 137 29 11 57 19 62 17 6 -1 11 -18 13 -37z"/>
</g>
</svg>
