<?xml version="1.0" standalone="no"?>
<!DOCTYPE svg PUBLIC "-//W3C//DTD SVG 20010904//EN"
 "http://www.w3.org/TR/2001/REC-SVG-20010904/DTD/svg10.dtd">
<svg version="1.0" xmlns="http://www.w3.org/2000/svg"
 width="192.000000pt" height="192.000000pt" viewBox="0 0 192.000000 192.000000"
 preserveAspectRatio="xMidYMid meet">
<metadata>
Created by potrace 1.16, written by Peter Selinger 2001-2019
</metadata>
<g transform="translate(0.000000,192.000000) scale(0.100000,-0.100000)"
fill="#000000" stroke="none">
811 c445 -92 729 -532 635 -987 -62 -301 -295 -546 -601 -630 -91 -26 -329
-26 -420 0 -291 80 -516 305 -596 596 -26 91 -26 329 0 420 120 433 542 692
982 601z"/>
<path d="M655 1355 l-25 -24 0 -363 c0 -401 1 -408 60 -408 54 0 60 17 60 171
l0 140 29 -21 c46 -32 108 -50 175 -50 74 0 106 18 106 60 0 45 -23 60 -94 60
-84 0 -140 30 -181 95 -29 47 -30 53 -33 192 -4 133 -5 144 -25 158 -30 21
-44 19 -72 -10z"/>
<path d="M1182 1364 c-21 -14 -22 -22 -22 -155 0 -76 -2 -139 -4 -139 -3 0
-20 9 -39 20 -51 30 -94 41 -166 41 -73 0 -101 -17 -101 -62 0 -40 32 -58 103
-58 76 0 136 -33 174 -99 26 -44 28 -55 32 -189 4 -157 7 -167 63 -161 56 5
58 14 58 411 l0 358 -25 24 c-28 29 -42 31 -73 9z"/>
</g>
</svg>
