<?xml version="1.0" standalone="no"?>
<!DOCTYPE svg PUBLIC "-//W3C//DTD SVG 20010904//EN"
 "http://www.w3.org/TR/2001/REC-SVG-20010904/DTD/svg10.dtd">
<svg version="1.0" xmlns="http://www.w3.org/2000/svg"
 width="192.000000pt" height="192.000000pt" viewBox="0 0 192.000000 192.000000"
 preserveAspectRatio="xMidYMid meet">
<metadata>
Created by potrace 1.16, written by Peter Selinger 2001-2019
</metadata>
<g transform="translate(0.000000,192.000000) scale(0.100000,-0.100000)"
fill="#000000" stroke="none">
811 c445 -92 729 -532 635 -987 -62 -301 -295 -546 -601 -630 -91 -26 -329
-26 -420 0 -291 80 -516 305 -596 596 -26 91 -26 329 0 420 120 433 542 692
982 601z"/>
<path d="M818 1275 c-68 -38 -77 -132 -22 -245 41 -85 122 -220 134 -220 13 0
19 206 9 304 -13 132 -28 170 -65 173 -16 2 -41 -4 -56 -12z"/>
<path d="M1011 1276 c-24 -28 -41 -151 -40 -291 1 -189 5 -197 58 -115 62 97
120 220 127 271 8 56 -13 101 -59 129 -38 23 -70 26 -86 6z"/>
<path d="M610 1125 c-48 -77 -31 -143 54 -206 58 -44 186 -118 217 -126 21 -6
19 0 -20 72 -23 43 -67 117 -98 164 -93 144 -115 158 -153 96z"/>
<path d="M1197 1098 c-90 -127 -185 -294 -174 -305 15 -15 223 114 272 169 34
37 37 44 33 88 -5 54 -40 110 -68 110 -12 0 -36 -24 -63 -62z"/>
<path d="M524 945 c-10 -26 3 -96 23 -124 11 -14 39 -36 63 -48 38 -20 60 -23
152 -23 59 0 108 4 108 8 0 5 -57 41 -127 82 -229 132 -212 124 -219 105z"/>
<path d="M1262 893 c-63 -35 -139 -80 -170 -101 l-57 -37 100 -3 c55 -2 114 0
132 3 38 7 88 46 108 86 16 29 20 105 8 112 -5 2 -59 -25 -121 -60z"/>
<path d="M610 717 c0 -7 14 -26 30 -42 46 -44 91 -40 171 13 l64 42 -132 0
c-103 0 -133 -3 -133 -13z"/>
<path d="M1074 706 c46 -38 121 -69 149 -62 30 7 90 64 81 77 -3 5 -62 9 -132
9 l-127 -1 29 -23z"/>
</g>
</svg>
