<?xml version="1.0" standalone="no"?>
<!DOCTYPE svg PUBLIC "-//W3C//DTD SVG 20010904//EN"
 "http://www.w3.org/TR/2001/REC-SVG-20010904/DTD/svg10.dtd">
<svg version="1.0" xmlns="http://www.w3.org/2000/svg"
 width="192.000000pt" height="192.000000pt" viewBox="0 0 192.000000 192.000000"
 preserveAspectRatio="xMidYMid meet">
<metadata>
Created by potrace 1.16, written by Peter Selinger 2001-2019
</metadata>
<g transform="translate(0.000000,192.000000) scale(0.100000,-0.100000)"
fill="#000000" stroke="none">
811 c445 -92 729 -532 635 -987 -62 -301 -295 -546 -601 -630 -91 -26 -329
-26 -420 0 -291 80 -516 305 -596 596 -26 91 -26 329 0 420 120 433 542 692
982 601z"/>
<path d="M859 1355 c-149 -48 -252 -198 -235 -342 13 -113 93 -259 196 -357
90 -86 136 -96 214 -45 65 44 138 137 193 246 39 78 47 103 50 165 6 93 -20
166 -83 237 -82 91 -224 132 -335 96z m189 -184 c125 -89 62 -291 -90 -291
-98 0 -158 53 -166 146 -5 65 23 121 77 153 48 29 133 25 179 -8z"/>
<path d="M915 1131 c-37 -16 -60 -51 -60 -93 0 -33 6 -45 33 -69 82 -74 196
15 150 116 -20 44 -76 65 -123 46z"/>
</g>
</svg>
