<?xml version="1.0" standalone="no"?>
<!DOCTYPE svg PUBLIC "-//W3C//DTD SVG 20010904//EN"
 "http://www.w3.org/TR/2001/REC-SVG-20010904/DTD/svg10.dtd">
<svg version="1.0" xmlns="http://www.w3.org/2000/svg"
 width="192.000000pt" height="192.000000pt" viewBox="0 0 192.000000 192.000000"
 preserveAspectRatio="xMidYMid meet">
<metadata>
Created by potrace 1.16, written by Peter Selinger 2001-2019
</metadata>
<g transform="translate(0.000000,192.000000) scale(0.100000,-0.100000)"
fill="#000000" stroke="none">
811 c445 -92 729 -532 635 -987 -62 -301 -295 -546 -601 -630 -91 -26 -329
-26 -420 0 -291 80 -516 305 -596 596 -26 91 -26 329 0 420 120 433 542 692
982 601z"/>
<path d="M785 1341 c-102 -11 -127 -32 -203 -172 -44 -80 -54 -137 -32 -194
17 -45 281 -345 322 -366 46 -23 118 -24 165 -2 29 14 157 153 295 321 38 46
52 101 38 153 -19 68 -106 206 -150 235 -37 25 -45 26 -207 29 -92 1 -195 0
-228 -4z m355 -171 c21 -21 70 -112 70 -130 0 -18 -240 -290 -255 -290 -15 0
-248 263 -253 286 -4 15 50 114 74 139 13 12 47 15 180 15 150 0 166 -2 184
-20z"/>
</g>
</svg>
