<?xml version="1.0" standalone="no"?>
<!DOCTYPE svg PUBLIC "-//W3C//DTD SVG 20010904//EN"
 "http://www.w3.org/TR/2001/REC-SVG-20010904/DTD/svg10.dtd">
<svg version="1.0" xmlns="http://www.w3.org/2000/svg"
 width="192.000000pt" height="192.000000pt" viewBox="0 0 192.000000 192.000000"
 preserveAspectRatio="xMidYMid meet">
<metadata>
Created by potrace 1.16, written by Peter Selinger 2001-2019
</metadata>
<g transform="translate(0.000000,192.000000) scale(0.100000,-0.100000)"
fill="#000000" stroke="none">
811 c445 -92 729 -532 635 -987 -62 -301 -295 -546 -601 -630 -91 -26 -329
-26 -420 0 -291 80 -516 305 -596 596 -26 91 -26 329 0 420 120 433 542 692
982 601z"/>
<path d="M856 1369 c-63 -15 -153 -68 -202 -121 -221 -236 -100 -618 216 -684
230 -48 449 106 491 344 15 82 -7 193 -53 270 -92 153 -278 232 -452 191z
m183 -117 c57 -28 94 -83 99 -146 6 -71 -11 -117 -58 -160 -70 -63 -165 -69
-241 -15 -105 74 -97 240 14 312 50 33 133 37 186 9z m70 -418 c53 -15 81 -36
81 -59 0 -42 -124 -107 -216 -113 -138 -9 -294 82 -244 143 10 12 94 38 160
49 42 7 166 -4 219 -20z"/>
</g>
</svg>
