<?xml version="1.0" standalone="no"?>
<!DOCTYPE svg PUBLIC "-//W3C//DTD SVG 20010904//EN"
 "http://www.w3.org/TR/2001/REC-SVG-20010904/DTD/svg10.dtd">
<svg version="1.0" xmlns="http://www.w3.org/2000/svg"
 width="192.000000pt" height="192.000000pt" viewBox="0 0 192.000000 192.000000"
 preserveAspectRatio="xMidYMid meet">
<metadata>
Created by potrace 1.16, written by Peter Selinger 2001-2019
</metadata>
<g transform="translate(0.000000,192.000000) scale(0.100000,-0.100000)"
fill="#000000" stroke="none">
811 c445 -92 729 -532 635 -987 -62 -301 -295 -546 -601 -630 -91 -26 -329
-26 -420 0 -291 80 -516 305 -596 596 -26 91 -26 329 0 420 120 433 542 692
982 601z"/>
<path d="M872 1369 c-151 -29 -277 -150 -318 -303 -49 -185 46 -385 224 -469
63 -30 74 -32 177 -32 104 0 114 2 176 32 80 39 160 121 195 197 140 305 -125
640 -454 575z m205 -138 c65 -33 110 -77 140 -139 54 -109 32 -243 -54 -329
-113 -113 -287 -118 -407 -13 -82 72 -116 204 -81 311 24 73 112 161 181 183
66 21 166 16 221 -13z"/>
<path d="M875 1137 c-37 -17 -93 -79 -101 -113 -4 -14 -4 -49 -2 -79 8 -101
96 -173 199 -163 168 16 228 231 94 334 -30 23 -50 29 -99 31 -37 2 -73 -2
-91 -10z"/>
</g>
</svg>
