<?xml version="1.0" standalone="no"?>
<!DOCTYPE svg PUBLIC "-//W3C//DTD SVG 20010904//EN"
 "http://www.w3.org/TR/2001/REC-SVG-20010904/DTD/svg10.dtd">
<svg version="1.0" xmlns="http://www.w3.org/2000/svg"
 width="192.000000pt" height="192.000000pt" viewBox="0 0 192.000000 192.000000"
 preserveAspectRatio="xMidYMid meet">
<metadata>
Created by potrace 1.16, written by Peter Selinger 2001-2019
</metadata>
<g transform="translate(0.000000,192.000000) scale(0.100000,-0.100000)"
fill="#000000" stroke="none">
811 c445 -92 729 -532 635 -987 -62 -301 -295 -546 -601 -630 -91 -26 -329
-26 -420 0 -291 80 -516 305 -596 596 -26 91 -26 329 0 420 120 433 542 692
982 601z"/>
<path d="M1058 1349 c-22 -12 -26 -101 -5 -98 32 4 48 -3 59 -26 17 -38 -3
-75 -42 -75 -29 0 -30 -2 -30 -45 0 -53 16 -65 85 -65 l45 0 -16 -25 c-30 -47
17 -101 65 -76 28 16 35 48 17 76 l-16 25 48 0 c82 0 85 6 85 160 -1 117 -3
135 -19 147 -22 16 -250 18 -276 2z"/>
<path d="M576 1224 c-13 -12 -16 -40 -16 -143 0 -111 2 -130 18 -144 10 -10
28 -17 40 -17 18 0 22 6 22 34 0 41 37 76 80 76 38 0 80 -42 80 -80 0 -23 4
-30 20 -30 36 0 60 35 60 87 0 37 3 44 12 35 15 -15 61 -15 76 0 7 7 12 24 12
38 0 14 -5 31 -12 38 -15 15 -61 15 -76 0 -9 -9 -12 -2 -12 33 0 24 -7 55 -16
67 -14 21 -22 22 -144 22 -104 0 -132 -3 -144 -16z"/>
<path d="M688 989 c-19 -11 -25 -64 -8 -74 24 -15 6 -25 -43 -25 -29 0 -58 -5
-65 -12 -8 -8 -12 -55 -12 -144 0 -168 -4 -164 162 -164 105 0 120 2 138 20
11 11 20 29 20 40 0 16 -7 20 -30 20 -43 0 -80 39 -80 84 0 26 7 40 31 60 17
14 41 26 55 26 17 0 24 6 24 18 0 32 -33 52 -83 52 -44 0 -60 11 -37 25 16 10
11 51 -8 68 -21 19 -39 21 -64 6z"/>
<path d="M922 878 c-7 -7 -12 -36 -12 -65 0 -29 -2 -53 -5 -53 -3 0 -17 7 -30
16 -23 15 -27 15 -50 0 -30 -20 -33 -56 -5 -81 18 -16 32 -17 71 -1 13 6 16
-1 17 -41 1 -73 19 -83 156 -83 159 0 156 -4 156 164 0 89 -4 136 -12 144 -7
7 -29 12 -50 12 -33 0 -38 -3 -38 -23 0 -28 -29 -57 -57 -57 -25 0 -53 30 -53
58 0 19 -6 22 -38 22 -21 0 -43 -5 -50 -12z"/>
</g>
</svg>
