<?xml version="1.0" standalone="no"?>
<!DOCTYPE svg PUBLIC "-//W3C//DTD SVG 20010904//EN"
 "http://www.w3.org/TR/2001/REC-SVG-20010904/DTD/svg10.dtd">
<svg version="1.0" xmlns="http://www.w3.org/2000/svg"
 width="192.000000pt" height="192.000000pt" viewBox="0 0 192.000000 192.000000"
 preserveAspectRatio="xMidYMid meet">
<metadata>
Created by potrace 1.16, written by Peter Selinger 2001-2019
</metadata>
<g transform="translate(0.000000,192.000000) scale(0.100000,-0.100000)"
fill="#000000" stroke="none">
811 c445 -92 729 -532 635 -987 -62 -301 -295 -546 -601 -630 -91 -26 -329
-26 -420 0 -291 80 -516 305 -596 596 -26 91 -26 329 0 420 120 433 542 692
982 601z"/>
<path d="M853 1258 c-34 -38 -282 -403 -293 -432 -13 -35 -13 -132 0 -157 24
-44 45 -23 213 214 90 127 170 243 177 256 16 32 6 88 -21 117 -28 30 -50 30
-76 2z"/>
<path d="M1012 1268 c-9 -9 -12 -85 -12 -281 l0 -269 29 -29 c21 -21 39 -29
65 -29 67 0 67 1 64 302 l-3 270 -28 24 c-31 26 -94 33 -115 12z"/>
<path d="M1233 1256 l-28 -24 -3 -270 c-3 -301 -3 -302 64 -302 26 0 44 8 65
29 l29 29 0 269 c0 196 -3 272 -12 281 -21 21 -84 14 -115 -12z"/>
</g>
</svg>
