<?xml version="1.0" standalone="no"?>
<!DOCTYPE svg PUBLIC "-//W3C//DTD SVG 20010904//EN"
 "http://www.w3.org/TR/2001/REC-SVG-20010904/DTD/svg10.dtd">
<svg version="1.0" xmlns="http://www.w3.org/2000/svg"
 width="192.000000pt" height="192.000000pt" viewBox="0 0 192.000000 192.000000"
 preserveAspectRatio="xMidYMid meet">
<metadata>
Created by potrace 1.16, written by Peter Selinger 2001-2019
</metadata>
<g transform="translate(0.000000,192.000000) scale(0.100000,-0.100000)"
fill="#000000" stroke="none">
811 c445 -92 729 -532 635 -987 -62 -301 -295 -546 -601 -630 -91 -26 -329
-26 -420 0 -291 80 -516 305 -596 596 -26 91 -26 329 0 420 120 433 542 692
982 601z"/>
<path d="M434 1165 c-3 -14 -5 -60 -3 -104 5 -96 16 -112 105 -141 55 -19 64
-25 64 -46 0 -19 -5 -24 -25 -24 -16 0 -25 6 -25 15 0 12 -13 15 -60 15 l-60
0 0 -58 c0 -32 5 -63 12 -70 8 -8 53 -12 135 -12 147 0 147 -1 141 125 -4 101
-20 123 -108 150 -51 15 -60 22 -60 42 0 18 5 23 25 23 16 0 25 -6 25 -15 0
-12 13 -15 60 -15 l60 0 0 58 c0 32 -5 63 -12 70 -8 8 -54 12 -140 12 l-128 0
-6 -25z"/>
<path d="M820 1171 c-6 -12 -10 -97 -10 -206 0 -109 4 -194 10 -206 10 -17 22
-19 133 -19 82 0 127 4 135 12 13 13 18 391 6 422 -5 13 -27 16 -135 16 -117
0 -129 -2 -139 -19z m160 -206 l0 -115 -25 0 -25 0 0 115 0 115 25 0 25 0 0
-115z"/>
<path d="M1207 1184 c-14 -14 -7 -198 8 -217 7 -10 44 -31 82 -46 50 -21 68
-33 68 -47 0 -24 -42 -32 -51 -10 -5 12 -20 16 -61 16 l-54 0 3 -67 3 -68 115
-3 c170 -4 160 -11 160 107 0 120 -7 132 -100 165 -49 18 -66 29 -68 45 -3 17
2 21 27 21 21 0 31 -5 31 -15 0 -12 13 -15 55 -15 l56 0 -3 68 -3 67 -131 3
c-71 1 -133 -1 -137 -4z"/>
</g>
</svg>
