<?xml version="1.0" standalone="no"?>
<!DOCTYPE svg PUBLIC "-//W3C//DTD SVG 20010904//EN"
 "http://www.w3.org/TR/2001/REC-SVG-20010904/DTD/svg10.dtd">
<svg version="1.0" xmlns="http://www.w3.org/2000/svg"
 width="192.000000pt" height="192.000000pt" viewBox="0 0 192.000000 192.000000"
 preserveAspectRatio="xMidYMid meet">
<metadata>
Created by potrace 1.16, written by Peter Selinger 2001-2019
</metadata>
<g transform="translate(0.000000,192.000000) scale(0.100000,-0.100000)"
fill="#000000" stroke="none">
811 c445 -92 729 -532 635 -987 -62 -301 -295 -546 -601 -630 -91 -26 -329
-26 -420 0 -291 80 -516 305 -596 596 -26 91 -26 329 0 420 120 433 542 692
982 601z"/>
<path d="M886 1369 c-77 -12 -166 -62 -225 -124 -116 -123 -147 -292 -82 -441
13 -29 21 -68 21 -103 0 -31 5 -63 10 -71 6 -10 34 -17 82 -21 40 -4 100 -17
133 -29 84 -31 215 -26 298 12 157 73 262 254 242 416 -29 235 -247 400 -479
361z m166 -296 c10 -9 18 -22 18 -30 0 -16 0 -16 42 1 53 22 59 12 56 -90 -3
-88 -3 -89 -28 -88 -14 1 -35 5 -46 9 -16 5 -23 2 -27 -14 -6 -25 -44 -41 -97
-41 -60 0 -86 14 -93 50 -8 39 -48 76 -95 87 -36 9 -37 10 -36 57 1 71 12 76
163 76 102 0 128 -3 143 -17z m-225 -167 c30 -29 41 -76 19 -76 -10 0 -22 13
-27 30 -6 16 -20 32 -32 36 -36 11 -50 26 -35 35 18 12 49 1 75 -25z m-32 -36
c4 -6 1 -17 -5 -26 -10 -11 -16 -12 -26 -3 -11 9 -11 15 -3 25 14 17 25 18 34
4z"/>
</g>
</svg>
