<?xml version="1.0" standalone="no"?>
<!DOCTYPE svg PUBLIC "-//W3C//DTD SVG 20010904//EN"
 "http://www.w3.org/TR/2001/REC-SVG-20010904/DTD/svg10.dtd">
<svg version="1.0" xmlns="http://www.w3.org/2000/svg"
 width="192.000000pt" height="192.000000pt" viewBox="0 0 192.000000 192.000000"
 preserveAspectRatio="xMidYMid meet">
<metadata>
Created by potrace 1.16, written by Peter Selinger 2001-2019
</metadata>
<g transform="translate(0.000000,192.000000) scale(0.100000,-0.100000)"
fill="#000000" stroke="none">
811 c445 -92 729 -532 635 -987 -62 -301 -295 -546 -601 -630 -91 -26 -329
-26 -420 0 -291 80 -516 305 -596 596 -26 91 -26 329 0 420 120 433 542 692
982 601z"/>
<path d="M792 1237 c-76 -29 -142 -114 -142 -183 0 -24 -8 -36 -37 -55 -86
-55 -105 -172 -40 -246 54 -61 64 -63 389 -63 285 0 294 1 333 23 72 41 104
133 71 210 -7 18 -31 49 -53 68 -51 43 -79 95 -63 114 7 8 21 17 32 21 19 6
19 7 -4 31 -50 54 -133 69 -201 37 -33 -16 -34 -15 -79 16 -37 26 -57 33 -109
36 -37 2 -78 -2 -97 -9z"/>
</g>
</svg>
