<?xml version="1.0" standalone="no"?>
<!DOCTYPE svg PUBLIC "-//W3C//DTD SVG 20010904//EN"
 "http://www.w3.org/TR/2001/REC-SVG-20010904/DTD/svg10.dtd">
<svg version="1.0" xmlns="http://www.w3.org/2000/svg"
 width="192.000000pt" height="192.000000pt" viewBox="0 0 192.000000 192.000000"
 preserveAspectRatio="xMidYMid meet">
<metadata>
Created by potrace 1.16, written by Peter Selinger 2001-2019
</metadata>
<g transform="translate(0.000000,192.000000) scale(0.100000,-0.100000)"
fill="#000000" stroke="none">
811 c445 -92 729 -532 635 -987 -62 -301 -295 -546 -601 -630 -91 -26 -329
-26 -420 0 -291 80 -516 305 -596 596 -26 91 -26 329 0 420 120 433 542 692
982 601z"/>
<path d="M695 1236 c-61 -26 -122 -117 -151 -223 -18 -67 -21 -235 -5 -275 14
-37 54 -62 86 -54 14 4 59 38 99 76 l73 70 158 0 158 0 73 -70 c82 -78 111
-91 150 -66 36 24 45 58 45 166 0 143 -33 246 -103 326 -62 71 -128 81 -226
34 -80 -38 -114 -38 -194 0 -68 32 -115 37 -163 16z m435 -116 c11 -11 20 -24
20 -30 0 -5 -9 -19 -20 -30 -11 -11 -24 -20 -30 -20 -5 0 -19 9 -30 20 -11 11
-20 25 -20 30 0 6 9 19 20 30 11 11 25 20 30 20 6 0 19 -9 30 -20z m-362 -52
c3 -22 9 -28 26 -28 13 0 29 -7 36 -15 19 -23 4 -45 -30 -45 -26 0 -30 -3 -30
-29 0 -32 -24 -48 -46 -30 -8 6 -14 22 -14 35 0 17 -6 23 -27 26 -22 2 -28 8
-28 28 0 20 6 26 26 28 21 2 28 10 33 33 5 25 10 30 28 27 17 -2 24 -11 26
-30z m473 -8 c27 -15 26 -66 -2 -80 -16 -9 -26 -8 -45 5 -28 18 -31 41 -7 67
19 21 27 22 54 8z m-111 -70 c11 -11 20 -24 20 -30 0 -5 -9 -19 -20 -30 -11
-11 -24 -20 -30 -20 -5 0 -19 9 -30 20 -11 11 -20 25 -20 30 0 6 9 19 20 30
11 11 25 20 30 20 6 0 19 -9 30 -20z"/>
</g>
</svg>
