<?xml version="1.0" standalone="no"?>
<!DOCTYPE svg PUBLIC "-//W3C//DTD SVG 20010904//EN"
 "http://www.w3.org/TR/2001/REC-SVG-20010904/DTD/svg10.dtd">
<svg version="1.0" xmlns="http://www.w3.org/2000/svg"
 width="192.000000pt" height="192.000000pt" viewBox="0 0 192.000000 192.000000"
 preserveAspectRatio="xMidYMid meet">
<metadata>
Created by potrace 1.16, written by Peter Selinger 2001-2019
</metadata>
<g transform="translate(0.000000,192.000000) scale(0.100000,-0.100000)"
fill="#000000" stroke="none">
811 c445 -92 729 -532 635 -987 -62 -301 -295 -546 -601 -630 -91 -26 -329
-26 -420 0 -291 80 -516 305 -596 596 -26 91 -26 329 0 420 120 433 542 692
982 601z"/>
<path d="M829 1357 c-125 -42 -229 -150 -265 -275 -26 -89 -16 -213 24 -294
40 -82 120 -159 209 -201 61 -28 78 -32 158 -32 110 0 172 19 253 79 65 48
111 111 142 194 24 65 20 98 -15 114 -27 12 -75 -2 -75 -21 0 -6 -9 -35 -20
-65 -26 -69 -85 -130 -157 -163 -48 -22 -65 -25 -137 -21 -90 5 -125 19 -187
75 -79 72 -114 187 -89 291 23 96 109 187 204 214 54 15 76 35 76 68 0 53 -38
64 -121 37z"/>
<path d="M1100 1125 c-83 -83 -84 -84 -128 -81 -38 3 -52 11 -96 55 -53 52
-73 60 -94 39 -19 -19 -15 -26 42 -86 37 -40 55 -68 60 -94 19 -102 156 -86
156 18 0 36 7 46 85 124 47 47 85 90 85 97 0 28 -29 9 -110 -72z"/>
</g>
</svg>
