<?xml version="1.0" standalone="no"?>
<!DOCTYPE svg PUBLIC "-//W3C//DTD SVG 20010904//EN"
 "http://www.w3.org/TR/2001/REC-SVG-20010904/DTD/svg10.dtd">
<svg version="1.0" xmlns="http://www.w3.org/2000/svg"
 width="192.000000pt" height="192.000000pt" viewBox="0 0 192.000000 192.000000"
 preserveAspectRatio="xMidYMid meet">
<metadata>
Created by potrace 1.16, written by Peter Selinger 2001-2019
</metadata>
<g transform="translate(0.000000,192.000000) scale(0.100000,-0.100000)"
fill="#000000" stroke="none">
811 c445 -92 729 -532 635 -987 -62 -301 -295 -546 -601 -630 -91 -26 -329
-26 -420 0 -291 80 -516 305 -596 596 -26 91 -26 329 0 420 120 433 542 692
982 601z"/>
<path d="M836 1357 c-61 -19 -64 -34 -24 -103 l34 -59 90 4 c49 2 92 5 96 7
13 8 68 111 68 127 0 34 -177 50 -264 24z"/>
<path d="M1147 1248 c-51 -89 -50 -84 -17 -121 17 -19 39 -56 51 -81 l20 -46
81 0 81 0 -6 45 c-4 25 -18 68 -33 96 -31 62 -110 149 -134 149 -11 0 -28 -18
-43 -42z"/>
<path d="M673 1265 c-53 -37 -141 -214 -126 -252 4 -9 29 -13 83 -13 l78 0 11
33 c7 17 23 49 36 69 14 21 25 42 25 47 0 16 -63 120 -76 125 -6 2 -21 -2 -31
-9z"/>
<path d="M870 1108 c-85 -59 -108 -162 -53 -237 72 -97 204 -96 277 2 30 40
30 144 0 184 -37 49 -82 73 -139 73 -38 0 -61 -6 -85 -22z"/>
<path d="M547 918 c-15 -42 59 -194 121 -249 48 -43 63 -38 102 34 l33 63 -35
46 c-20 26 -41 63 -48 83 l-12 35 -78 0 c-53 0 -79 -4 -83 -12z"/>
<path d="M1181 885 c-11 -25 -30 -58 -41 -72 l-20 -26 31 -56 c50 -90 52 -91
98 -47 50 49 99 140 107 200 l7 46 -81 0 -81 0 -20 -45z"/>
<path d="M947 731 l-78 -6 -33 -59 c-19 -33 -32 -66 -29 -73 17 -44 247 -44
308 0 18 14 17 17 -19 81 -25 44 -43 65 -54 64 -9 -1 -52 -4 -95 -7z"/>
</g>
</svg>
