<?xml version="1.0" standalone="no"?>
<!DOCTYPE svg PUBLIC "-//W3C//DTD SVG 20010904//EN"
 "http://www.w3.org/TR/2001/REC-SVG-20010904/DTD/svg10.dtd">
<svg version="1.0" xmlns="http://www.w3.org/2000/svg"
 width="192.000000pt" height="192.000000pt" viewBox="0 0 192.000000 192.000000"
 preserveAspectRatio="xMidYMid meet">
<metadata>
Created by potrace 1.16, written by Peter Selinger 2001-2019
</metadata>
<g transform="translate(0.000000,192.000000) scale(0.100000,-0.100000)"
fill="#000000" stroke="none">
811 c445 -92 729 -532 635 -987 -62 -301 -295 -546 -601 -630 -91 -26 -329
-26 -420 0 -291 80 -516 305 -596 596 -26 91 -26 329 0 420 120 433 542 692
982 601z"/>
<path d="M846 1289 c-64 -18 -102 -82 -92 -153 7 -48 69 -176 130 -271 38 -58
39 -59 48 -35 16 40 3 346 -16 406 -18 57 -28 65 -70 53z"/>
<path d="M1017 1287 c-21 -17 -37 -74 -47 -174 -10 -92 -3 -303 10 -303 12 0
95 137 132 216 22 47 34 88 36 130 4 56 2 64 -24 93 -34 37 -85 55 -107 38z"/>
<path d="M608 1128 c-17 -24 -23 -47 -23 -85 0 -44 5 -57 30 -83 53 -56 275
-193 275 -170 0 26 -113 223 -182 318 -45 61 -67 65 -100 20z"/>
<path d="M1163 1053 c-67 -102 -153 -251 -153 -267 0 -12 158 74 223 123 98
73 117 136 67 219 -35 58 -56 46 -137 -75z"/>
<path d="M1320 928 c-30 -17 -109 -63 -175 -102 l-120 -71 105 -3 c58 -2 119
0 137 3 41 7 92 50 109 92 15 35 19 99 6 107 -4 2 -32 -9 -62 -26z"/>
<path d="M522 897 c5 -62 27 -97 80 -127 33 -18 50 -20 155 -18 l118 3 -45 30
c-79 51 -284 165 -298 165 -11 0 -13 -12 -10 -53z"/>
<path d="M620 721 l-25 -8 38 -36 c27 -26 47 -37 69 -37 30 0 96 32 147 72 23
18 22 18 -90 17 -63 -1 -125 -4 -139 -8z"/>
<path d="M1045 722 c24 -25 131 -82 152 -82 48 0 119 57 98 78 -4 4 -64 9
-133 10 -87 3 -124 1 -117 -6z"/>
</g>
</svg>
