<?xml version="1.0" standalone="no"?>
<!DOCTYPE svg PUBLIC "-//W3C//DTD SVG 20010904//EN"
 "http://www.w3.org/TR/2001/REC-SVG-20010904/DTD/svg10.dtd">
<svg version="1.0" xmlns="http://www.w3.org/2000/svg"
 width="192.000000pt" height="192.000000pt" viewBox="0 0 192.000000 192.000000"
 preserveAspectRatio="xMidYMid meet">
<metadata>
Created by potrace 1.16, written by Peter Selinger 2001-2019
</metadata>
<g transform="translate(0.000000,192.000000) scale(0.100000,-0.100000)"
fill="#000000" stroke="none">
811 c445 -92 729 -532 635 -987 -62 -301 -295 -546 -601 -630 -91 -26 -329
-26 -420 0 -291 80 -516 305 -596 596 -26 91 -26 329 0 420 120 433 542 692
982 601z"/>
<path d="M627 1333 c-4 -3 -7 -118 -7 -253 0 -214 2 -249 16 -261 11 -9 20
-10 32 -2 15 9 17 39 20 253 2 170 -1 247 -9 256 -12 15 -41 19 -52 7z"/>
<path d="M1242 1328 c-9 -9 -12 -79 -12 -254 0 -208 2 -243 16 -255 11 -9 20
-10 32 -2 15 9 17 39 20 253 2 242 -1 270 -32 270 -7 0 -17 -5 -24 -12z"/>
<path d="M751 1116 c-8 -9 -11 -58 -9 -151 3 -116 6 -140 20 -148 12 -8 21 -7
32 2 13 11 16 38 16 150 0 135 -6 161 -36 161 -6 0 -17 -6 -23 -14z"/>
<path d="M882 1122 c-9 -7 -12 -45 -10 -158 l3 -149 25 0 25 0 3 149 c2 144
-1 166 -28 166 -3 0 -11 -4 -18 -8z"/>
<path d="M1002 1122 c-9 -7 -12 -45 -10 -158 l3 -149 25 0 25 0 3 149 c2 144
-1 166 -28 166 -3 0 -11 -4 -18 -8z"/>
<path d="M1121 1116 c-8 -9 -11 -58 -9 -151 3 -116 6 -140 20 -148 12 -8 21
-7 32 2 13 11 16 38 16 150 0 135 -6 161 -36 161 -6 0 -17 -6 -23 -14z"/>
<path d="M585 735 c-60 -59 -2 -161 80 -141 97 24 79 166 -20 166 -25 0 -44
-8 -60 -25z"/>
<path d="M1201 734 c-52 -66 5 -160 84 -140 64 16 86 96 40 141 -35 36 -96 35
-124 -1z"/>
<path d="M877 709 c-37 -21 -8 -77 33 -64 13 4 20 15 20 30 0 29 -28 47 -53
34z"/>
<path d="M990 702 c-19 -16 -21 -22 -11 -40 13 -24 40 -29 59 -10 35 35 -10
81 -48 50z"/>
<path d="M1096 704 c-27 -27 -12 -64 26 -64 19 0 42 35 33 50 -14 23 -43 30
-59 14z"/>
<path d="M761 691 c-13 -24 8 -55 34 -50 28 6 42 34 26 53 -18 22 -48 20 -60
-3z"/>
</g>
</svg>
