<?xml version="1.0" standalone="no"?>
<!DOCTYPE svg PUBLIC "-//W3C//DTD SVG 20010904//EN"
 "http://www.w3.org/TR/2001/REC-SVG-20010904/DTD/svg10.dtd">
<svg version="1.0" xmlns="http://www.w3.org/2000/svg"
 width="192.000000pt" height="192.000000pt" viewBox="0 0 192.000000 192.000000"
 preserveAspectRatio="xMidYMid meet">
<metadata>
Created by potrace 1.16, written by Peter Selinger 2001-2019
</metadata>
<g transform="translate(0.000000,192.000000) scale(0.100000,-0.100000)"
fill="#000000" stroke="none">
811 c445 -92 729 -532 635 -987 -62 -301 -295 -546 -601 -630 -91 -26 -329
-26 -420 0 -291 80 -516 305 -596 596 -26 91 -26 329 0 420 120 433 542 692
982 601z"/>
<path d="M828 1357 c-110 -41 -179 -108 -236 -226 -33 -69 -36 -83 -40 -185
-4 -97 -2 -114 14 -134 23 -27 549 -252 591 -252 40 0 90 30 114 67 l20 31
-93 50 c-51 27 -130 68 -174 90 -93 47 -104 64 -104 163 0 70 15 106 51 124
23 13 46 12 174 -5 81 -11 158 -20 171 -20 l24 0 -18 48 c-41 106 -111 179
-219 229 -70 33 -213 43 -275 20z"/>
<path d="M962 1057 c-19 -20 -22 -35 -22 -103 0 -71 3 -83 23 -101 33 -31 367
-195 383 -189 11 4 14 41 14 185 0 99 -4 182 -8 185 -9 6 -314 46 -348 46 -11
0 -30 -10 -42 -23z"/>
</g>
</svg>
