<?xml version="1.0" standalone="no"?>
<!DOCTYPE svg PUBLIC "-//W3C//DTD SVG 20010904//EN"
 "http://www.w3.org/TR/2001/REC-SVG-20010904/DTD/svg10.dtd">
<svg version="1.0" xmlns="http://www.w3.org/2000/svg"
 width="192.000000pt" height="192.000000pt" viewBox="0 0 192.000000 192.000000"
 preserveAspectRatio="xMidYMid meet">
<metadata>
Created by potrace 1.16, written by Peter Selinger 2001-2019
</metadata>
<g transform="translate(0.000000,192.000000) scale(0.100000,-0.100000)"
fill="#000000" stroke="none">
811 c445 -92 729 -532 635 -987 -62 -301 -295 -546 -601 -630 -91 -26 -329
-26 -420 0 -291 80 -516 305 -596 596 -26 91 -26 329 0 420 120 433 542 692
982 601z"/>
<path d="M653 1309 c-10 -10 -13 -76 -13 -260 0 -185 3 -249 13 -256 6 -6 43
-13 80 -16 72 -7 173 -45 203 -78 16 -18 17 -17 48 6 52 40 121 65 193 72 38
3 74 10 81 16 9 7 12 71 12 257 0 293 5 280 -101 262 -85 -15 -121 -32 -175
-83 l-40 -39 -22 29 c-46 62 -244 126 -279 90z"/>
<path d="M545 1197 c-3 -7 -4 -131 -3 -277 l3 -265 45 2 c25 2 104 4 177 5 72
2 129 7 126 12 -11 17 -90 45 -158 56 -112 16 -115 18 -131 55 -10 26 -14 83
-14 230 0 189 -1 195 -20 195 -11 0 -23 -6 -25 -13z"/>
<path d="M1320 1001 c0 -257 2 -252 -127 -270 -73 -9 -183 -50 -183 -67 0 -2
34 -2 75 2 44 4 113 2 170 -6 76 -10 98 -10 110 0 13 10 15 52 15 262 0 258
-4 288 -40 288 -19 0 -20 -8 -20 -209z"/>
</g>
</svg>
