<?xml version="1.0" standalone="no"?>
<!DOCTYPE svg PUBLIC "-//W3C//DTD SVG 20010904//EN"
 "http://www.w3.org/TR/2001/REC-SVG-20010904/DTD/svg10.dtd">
<svg version="1.0" xmlns="http://www.w3.org/2000/svg"
 width="192.000000pt" height="192.000000pt" viewBox="0 0 192.000000 192.000000"
 preserveAspectRatio="xMidYMid meet">
<metadata>
Created by potrace 1.16, written by Peter Selinger 2001-2019
</metadata>
<g transform="translate(0.000000,192.000000) scale(0.100000,-0.100000)"
fill="#000000" stroke="none">
811 c445 -92 729 -532 635 -987 -62 -301 -295 -546 -601 -630 -91 -26 -329
-26 -420 0 -291 80 -516 305 -596 596 -26 91 -26 329 0 420 120 433 542 692
982 601z"/>
<path d="M801 1295 c-42 -36 -56 -84 -42 -142 14 -55 64 -154 124 -247 l45
-70 7 58 c11 89 0 313 -19 374 -16 49 -19 52 -51 52 -21 0 -44 -9 -64 -25z"/>
<path d="M999 1293 c-17 -44 -28 -121 -31 -208 -4 -122 1 -235 11 -235 12 0
82 109 127 200 41 81 56 169 34 209 -15 30 -69 61 -103 61 -21 0 -30 -7 -38
-27z"/>
<path d="M623 1178 c-26 -27 -43 -70 -43 -104 0 -43 28 -82 92 -127 87 -62
218 -132 218 -117 0 38 -206 358 -236 367 -5 2 -20 -7 -31 -19z"/>
<path d="M1237 1187 c-41 -32 -243 -367 -221 -367 18 0 206 115 247 150 63 56
77 100 49 163 -23 52 -51 73 -75 54z"/>
<path d="M522 937 c5 -64 33 -108 82 -131 28 -13 60 -16 153 -14 l118 3 -90
54 c-109 65 -249 141 -260 141 -4 0 -5 -24 -3 -53z"/>
<path d="M1251 925 c-120 -68 -211 -124 -211 -131 0 -2 53 -4 119 -4 129 0
159 10 204 72 22 30 30 119 12 124 -5 2 -61 -26 -124 -61z"/>
<path d="M657 763 c-54 -4 -57 -5 -46 -24 14 -27 68 -59 98 -59 22 0 161 74
161 85 0 5 -115 4 -213 -2z"/>
<path d="M1045 762 c23 -24 131 -82 153 -82 41 0 117 58 100 76 -2 1 -62 6
-133 10 -91 4 -127 3 -120 -4z"/>
</g>
</svg>
