<?xml version="1.0" standalone="no"?>
<!DOCTYPE svg PUBLIC "-//W3C//DTD SVG 20010904//EN"
 "http://www.w3.org/TR/2001/REC-SVG-20010904/DTD/svg10.dtd">
<svg version="1.0" xmlns="http://www.w3.org/2000/svg"
 width="192.000000pt" height="192.000000pt" viewBox="0 0 192.000000 192.000000"
 preserveAspectRatio="xMidYMid meet">
<metadata>
Created by potrace 1.16, written by Peter Selinger 2001-2019
</metadata>
<g transform="translate(0.000000,192.000000) scale(0.100000,-0.100000)"
fill="#000000" stroke="none">
811 c445 -92 729 -532 635 -987 -62 -301 -295 -546 -601 -630 -91 -26 -329
-26 -420 0 -291 80 -516 305 -596 596 -26 91 -26 329 0 420 120 433 542 692
982 601z"/>
<path d="M707 1345 c-22 -7 -50 -24 -64 -37 -51 -48 -53 -58 -53 -343 0 -291
1 -299 60 -349 50 -42 94 -48 329 -44 242 3 256 7 308 75 l28 36 0 282 0 282
-28 36 c-48 64 -74 72 -227 72 -153 0 -178 -8 -227 -72 -26 -33 -28 -45 -31
-135 l-4 -98 36 -15 c19 -8 58 -15 86 -15 l50 0 0 41 c0 33 3 40 16 35 18 -7
192 -125 198 -135 5 -7 -188 -141 -203 -141 -6 0 -11 17 -11 39 0 37 -2 39
-37 46 -21 4 -59 17 -85 30 l-48 24 0 -127 c0 -93 4 -135 15 -156 8 -15 15
-30 15 -32 0 -9 -101 -3 -123 7 -53 24 -57 46 -57 314 0 300 2 305 111 329 33
7 43 30 23 51 -19 18 -28 18 -77 0z"/>
<path d="M740 1080 c0 -29 24 -82 43 -99 15 -12 17 -10 17 23 0 22 -9 49 -22
66 -25 35 -38 38 -38 10z"/>
</g>
</svg>
