<?xml version="1.0" standalone="no"?>
<!DOCTYPE svg PUBLIC "-//W3C//DTD SVG 20010904//EN"
 "http://www.w3.org/TR/2001/REC-SVG-20010904/DTD/svg10.dtd">
<svg version="1.0" xmlns="http://www.w3.org/2000/svg"
 width="192.000000pt" height="192.000000pt" viewBox="0 0 192.000000 192.000000"
 preserveAspectRatio="xMidYMid meet">
<metadata>
Created by potrace 1.16, written by Peter Selinger 2001-2019
</metadata>
<g transform="translate(0.000000,192.000000) scale(0.100000,-0.100000)"
fill="#000000" stroke="none">
811 c445 -92 729 -532 635 -987 -62 -301 -295 -546 -601 -630 -91 -26 -329
-26 -420 0 -291 80 -516 305 -596 596 -26 91 -26 329 0 420 120 433 542 692
982 601z"/>
<path d="M635 1297 c-3 -7 -4 -123 -3 -257 l3 -245 64 -7 c80 -9 144 -30 187
-63 18 -14 35 -25 38 -25 3 0 6 109 6 243 -1 235 -1 243 -23 268 -12 14 -35
35 -52 46 -62 43 -209 70 -220 40z"/>
<path d="M1135 1294 c-56 -18 -99 -45 -132 -83 -22 -25 -22 -33 -23 -268 0
-134 3 -243 6 -243 3 0 20 11 38 25 43 33 107 54 187 63 l64 7 0 255 0 255
-45 2 c-25 1 -67 -5 -95 -13z"/>
<path d="M536 1195 c-14 -14 -16 -49 -16 -264 0 -207 2 -251 15 -261 12 -10
33 -10 102 0 49 7 122 10 168 7 72 -6 78 -5 61 8 -33 25 -124 55 -165 55 -53
0 -96 17 -110 43 -7 14 -12 96 -14 221 -2 205 -6 225 -41 191z"/>
<path d="M1337 1203 c-4 -3 -7 -97 -7 -207 -1 -149 -4 -205 -14 -218 -17 -23
-59 -38 -106 -38 -42 0 -133 -30 -166 -55 -17 -13 -11 -14 61 -8 46 3 119 0
168 -7 69 -10 90 -10 102 0 23 19 22 501 -1 524 -17 17 -27 20 -37 9z"/>
</g>
</svg>
