<?xml version="1.0" standalone="no"?>
<!DOCTYPE svg PUBLIC "-//W3C//DTD SVG 20010904//EN"
 "http://www.w3.org/TR/2001/REC-SVG-20010904/DTD/svg10.dtd">
<svg version="1.0" xmlns="http://www.w3.org/2000/svg"
 width="192.000000pt" height="192.000000pt" viewBox="0 0 192.000000 192.000000"
 preserveAspectRatio="xMidYMid meet">
<metadata>
Created by potrace 1.16, written by Peter Selinger 2001-2019
</metadata>
<g transform="translate(0.000000,192.000000) scale(0.100000,-0.100000)"
fill="#000000" stroke="none">
811 c445 -92 729 -532 635 -987 -62 -301 -295 -546 -601 -630 -91 -26 -329
-26 -420 0 -291 80 -516 305 -596 596 -26 91 -26 329 0 420 120 433 542 692
982 601z"/>
<path d="M686 1345 c-113 -40 -163 -131 -153 -275 11 -148 119 -307 300 -442
68 -50 85 -58 122 -58 37 0 54 8 122 58 103 77 202 185 247 271 33 63 44 101
31 101 -3 0 -54 -25 -114 -55 -152 -76 -223 -98 -291 -92 -107 9 -319 113
-328 160 -5 23 16 22 140 -8 57 -14 123 -25 148 -25 53 1 142 30 148 48 3 10
-3 10 -30 -1 -55 -23 -110 -29 -138 -14 -30 15 -33 40 -5 45 11 2 73 28 137
59 95 44 127 55 171 55 50 1 114 -21 159 -54 25 -18 31 -5 24 45 -15 101 -104
183 -209 194 -65 7 -112 -7 -163 -48 -46 -36 -58 -36 -100 0 -56 50 -141 64
-218 36z"/>
</g>
</svg>
