<?xml version="1.0" standalone="no"?>
<!DOCTYPE svg PUBLIC "-//W3C//DTD SVG 20010904//EN"
 "http://www.w3.org/TR/2001/REC-SVG-20010904/DTD/svg10.dtd">
<svg version="1.0" xmlns="http://www.w3.org/2000/svg"
 width="192.000000pt" height="192.000000pt" viewBox="0 0 192.000000 192.000000"
 preserveAspectRatio="xMidYMid meet">
<metadata>
Created by potrace 1.16, written by Peter Selinger 2001-2019
</metadata>
<g transform="translate(0.000000,192.000000) scale(0.100000,-0.100000)"
fill="#000000" stroke="none">
811 c445 -92 729 -532 635 -987 -62 -301 -295 -546 -601 -630 -91 -26 -329
-26 -420 0 -291 80 -516 305 -596 596 -26 91 -26 329 0 420 120 433 542 692
982 601z"/>
<path d="M872 1369 c-150 -29 -278 -151 -318 -304 -50 -184 47 -384 226 -469
60 -29 73 -31 175 -31 104 0 114 2 176 32 80 39 160 121 195 197 139 304 -126
640 -454 575z m223 -109 c62 -30 117 -84 152 -152 24 -46 28 -65 28 -138 0
-66 -5 -96 -22 -132 -30 -66 -96 -133 -162 -165 -79 -39 -191 -40 -272 -2 -69
33 -127 89 -160 155 -20 41 -24 64 -24 144 0 87 3 100 30 149 37 66 101 124
169 151 70 28 190 23 261 -10z"/>
<path d="M870 1241 c-110 -34 -207 -158 -198 -253 l3 -35 110 69 c110 68 137
77 143 47 2 -12 -35 -40 -123 -94 -76 -47 -125 -84 -125 -94 0 -45 75 -133
144 -168 136 -69 306 -17 381 118 26 47 30 64 30 134 0 67 -5 88 -27 131 -33
63 -95 118 -156 138 -48 17 -139 20 -182 7z m205 -215 c0 -14 -41 -45 -143
-109 -133 -83 -145 -88 -160 -73 -11 11 -13 19 -6 26 26 26 281 179 294 177 8
-1 15 -11 15 -21z"/>
</g>
</svg>
