<?xml version="1.0" standalone="no"?>
<!DOCTYPE svg PUBLIC "-//W3C//DTD SVG 20010904//EN"
 "http://www.w3.org/TR/2001/REC-SVG-20010904/DTD/svg10.dtd">
<svg version="1.0" xmlns="http://www.w3.org/2000/svg"
 width="192.000000pt" height="192.000000pt" viewBox="0 0 192.000000 192.000000"
 preserveAspectRatio="xMidYMid meet">
<metadata>
Created by potrace 1.16, written by Peter Selinger 2001-2019
</metadata>
<g transform="translate(0.000000,192.000000) scale(0.100000,-0.100000)"
fill="#000000" stroke="none">
811 c445 -92 729 -532 635 -987 -62 -301 -295 -546 -601 -630 -91 -26 -329
-26 -420 0 -291 80 -516 305 -596 596 -26 91 -26 329 0 420 120 433 542 692
982 601z"/>
<path d="M695 1325 c-44 -24 -86 -65 -101 -102 -9 -20 -14 -70 -14 -133 l0
-100 70 0 70 0 0 73 c0 86 22 130 75 153 48 20 272 20 320 0 53 -23 75 -67 75
-153 l0 -73 71 0 71 0 -4 114 c-3 127 -9 142 -82 200 l-38 31 -241 3 c-205 2
-247 0 -272 -13z"/>
<path d="M802 1154 c-19 -13 -22 -24 -22 -88 l0 -73 30 -7 c17 -3 49 -25 74
-51 58 -60 84 -60 143 0 25 25 58 48 74 52 29 5 29 6 29 79 0 101 -5 104 -175
104 -102 0 -135 -3 -153 -16z"/>
<path d="M580 848 c0 -118 16 -166 69 -211 49 -40 90 -47 306 -47 216 0 257 7
306 47 53 45 69 93 69 211 l0 102 -110 0 -111 0 -48 -45 c-82 -77 -136 -77
-211 0 l-44 45 -113 0 -113 0 0 -102z"/>
</g>
</svg>
