<?xml version="1.0" standalone="no"?>
<!DOCTYPE svg PUBLIC "-//W3C//DTD SVG 20010904//EN"
 "http://www.w3.org/TR/2001/REC-SVG-20010904/DTD/svg10.dtd">
<svg version="1.0" xmlns="http://www.w3.org/2000/svg"
 width="192.000000pt" height="192.000000pt" viewBox="0 0 192.000000 192.000000"
 preserveAspectRatio="xMidYMid meet">
<metadata>
Created by potrace 1.16, written by Peter Selinger 2001-2019
</metadata>
<g transform="translate(0.000000,192.000000) scale(0.100000,-0.100000)"
fill="#000000" stroke="none">
811 c445 -92 729 -532 635 -987 -62 -301 -295 -546 -601 -630 -91 -26 -329
-26 -420 0 -291 80 -516 305 -596 596 -26 91 -26 329 0 420 120 433 542 692
982 601z"/>
<path d="M812 1270 c-44 -27 -66 -80 -57 -138 7 -47 66 -168 129 -267 34 -52
40 -57 47 -40 4 11 8 83 8 160 1 140 -16 263 -40 291 -16 20 -48 17 -87 -6z"/>
<path d="M996 1250 c-24 -60 -38 -211 -30 -332 4 -60 10 -108 14 -108 11 0 93
134 134 220 57 118 46 209 -28 244 -54 26 -72 21 -90 -24z"/>
<path d="M623 1148 c-24 -30 -43 -79 -43 -112 0 -45 47 -100 133 -154 79 -50
168 -95 174 -88 9 8 -77 162 -146 263 -67 97 -95 119 -118 91z"/>
<path d="M1223 1138 c-63 -71 -225 -348 -202 -348 18 0 168 86 225 129 85 63
102 129 54 206 -25 41 -48 44 -77 13z"/>
<path d="M526 953 c-15 -15 -5 -92 17 -123 45 -67 65 -75 203 -79 73 -2 124 1
124 6 0 5 -66 47 -147 93 -82 46 -158 89 -169 96 -12 7 -24 10 -28 7z"/>
<path d="M1210 866 c-90 -51 -166 -98 -168 -105 -3 -8 28 -11 105 -11 125 0
175 17 213 70 24 34 39 123 23 133 -5 4 -83 -36 -173 -87z"/>
<path d="M720 733 c-52 -2 -101 -5 -108 -8 -20 -7 13 -50 54 -70 42 -20 70
-12 146 36 52 34 61 50 26 47 -13 -1 -66 -4 -118 -5z"/>
<path d="M1040 734 c0 -5 19 -21 43 -35 108 -67 130 -70 186 -23 53 45 43 54
-61 54 -51 0 -110 3 -130 6 -21 4 -38 3 -38 -2z"/>
</g>
</svg>
