<?xml version="1.0" standalone="no"?>
<!DOCTYPE svg PUBLIC "-//W3C//DTD SVG 20010904//EN"
 "http://www.w3.org/TR/2001/REC-SVG-20010904/DTD/svg10.dtd">
<svg version="1.0" xmlns="http://www.w3.org/2000/svg"
 width="192.000000pt" height="192.000000pt" viewBox="0 0 192.000000 192.000000"
 preserveAspectRatio="xMidYMid meet">
<metadata>
Created by potrace 1.16, written by Peter Selinger 2001-2019
</metadata>
<g transform="translate(0.000000,192.000000) scale(0.100000,-0.100000)"
fill="#000000" stroke="none">
811 c445 -92 729 -532 635 -987 -62 -301 -295 -546 -601 -630 -91 -26 -329
-26 -420 0 -291 80 -516 305 -596 596 -26 91 -26 329 0 420 120 433 542 692
982 601z"/>
<path d="M1200 1372 c-34 -10 -40 -34 -40 -173 l0 -137 -57 31 c-44 23 -72 31
-129 35 -88 6 -124 -11 -124 -57 0 -43 26 -58 106 -63 85 -4 136 -34 175 -101
22 -38 24 -55 27 -185 4 -132 5 -143 25 -157 31 -22 53 -18 76 11 20 26 21 38
21 388 0 302 -2 365 -15 383 -16 22 -41 32 -65 25z"/>
<path d="M647 1352 c-15 -17 -17 -58 -17 -390 0 -359 1 -373 20 -392 11 -11
29 -20 40 -20 11 0 29 9 40 20 18 18 20 33 20 155 0 74 2 135 4 135 2 0 24
-11 48 -25 81 -45 207 -54 244 -18 8 8 14 28 14 43 0 40 -36 64 -83 55 -77
-15 -172 40 -208 120 -15 32 -19 66 -19 171 0 114 -2 133 -18 147 -24 22 -65
21 -85 -1z"/>
</g>
</svg>
