<?xml version="1.0" standalone="no"?>
<!DOCTYPE svg PUBLIC "-//W3C//DTD SVG 20010904//EN"
 "http://www.w3.org/TR/2001/REC-SVG-20010904/DTD/svg10.dtd">
<svg version="1.0" xmlns="http://www.w3.org/2000/svg"
 width="192.000000pt" height="192.000000pt" viewBox="0 0 192.000000 192.000000"
 preserveAspectRatio="xMidYMid meet">
<metadata>
Created by potrace 1.16, written by Peter Selinger 2001-2019
</metadata>
<g transform="translate(0.000000,192.000000) scale(0.100000,-0.100000)"
fill="#000000" stroke="none">
811 c445 -92 729 -532 635 -987 -62 -301 -295 -546 -601 -630 -91 -26 -329
-26 -420 0 -291 80 -516 305 -596 596 -26 91 -26 329 0 420 120 433 542 692
982 601z"/>
<path d="M916 1314 c-14 -13 -16 -59 -16 -349 0 -362 0 -365 55 -365 52 0 55
17 55 365 0 274 -2 324 -16 343 -18 26 -56 29 -78 6z"/>
<path d="M726 1204 c-24 -23 -24 -455 0 -478 19 -20 34 -20 62 0 22 15 22 19
22 239 0 220 0 224 -22 239 -28 20 -43 20 -62 0z"/>
<path d="M1118 1209 c-16 -9 -18 -32 -18 -245 l0 -234 25 -12 c19 -9 29 -8 50
6 l25 16 0 225 c0 220 0 224 -22 239 -26 18 -36 19 -60 5z"/>
<path d="M560 1101 c-5 -11 -10 -72 -10 -136 0 -131 8 -155 49 -155 52 0 61
23 61 157 0 103 -3 122 -18 136 -25 23 -69 22 -82 -2z"/>
<path d="M1260 1101 c-5 -11 -10 -72 -10 -136 0 -132 7 -155 50 -155 49 0 60
29 60 155 0 84 -4 116 -16 133 -20 28 -69 30 -84 3z"/>
</g>
</svg>
