<?xml version="1.0" standalone="no"?>
<!DOCTYPE svg PUBLIC "-//W3C//DTD SVG 20010904//EN"
 "http://www.w3.org/TR/2001/REC-SVG-20010904/DTD/svg10.dtd">
<svg version="1.0" xmlns="http://www.w3.org/2000/svg"
 width="192.000000pt" height="192.000000pt" viewBox="0 0 192.000000 192.000000"
 preserveAspectRatio="xMidYMid meet">
<metadata>
Created by potrace 1.16, written by Peter Selinger 2001-2019
</metadata>
<g transform="translate(0.000000,192.000000) scale(0.100000,-0.100000)"
fill="#000000" stroke="none">
811 c445 -92 729 -532 635 -987 -62 -301 -295 -546 -601 -630 -91 -26 -329
-26 -420 0 -291 80 -516 305 -596 596 -26 91 -26 329 0 420 120 433 542 692
982 601z"/>
<path d="M705 1261 c-174 -79 -221 -301 -92 -434 67 -68 102 -80 252 -87 l130
-5 3 -38 c2 -21 9 -40 17 -43 19 -8 160 68 222 118 107 89 139 154 130 265 -8
100 -66 181 -162 224 -35 16 -68 19 -250 19 -182 0 -215 -3 -250 -19z m145
-346 c72 -20 112 -19 205 5 97 25 105 25 105 1 0 -14 -17 -28 -57 -47 -47 -23
-73 -29 -147 -32 -84 -3 -95 -1 -146 25 -40 20 -56 34 -58 52 -3 21 -1 23 20
17 12 -4 48 -13 78 -21z"/>
</g>
</svg>
