<?xml version="1.0" standalone="no"?>
<!DOCTYPE svg PUBLIC "-//W3C//DTD SVG 20010904//EN"
 "http://www.w3.org/TR/2001/REC-SVG-20010904/DTD/svg10.dtd">
<svg version="1.0" xmlns="http://www.w3.org/2000/svg"
 width="192.000000pt" height="192.000000pt" viewBox="0 0 192.000000 192.000000"
 preserveAspectRatio="xMidYMid meet">
<metadata>
Created by potrace 1.16, written by Peter Selinger 2001-2019
</metadata>
<g transform="translate(0.000000,192.000000) scale(0.100000,-0.100000)"
fill="#000000" stroke="none">
811 c445 -92 729 -532 635 -987 -62 -301 -295 -546 -601 -630 -91 -26 -329
-26 -420 0 -291 80 -516 305 -596 596 -26 91 -26 329 0 420 120 433 542 692
982 601z"/>
<path d="M745 1365 c-49 -17 -112 -85 -120 -128 -3 -18 -5 -152 -3 -299 l3
-266 31 -39 c60 -74 74 -78 294 -78 224 0 251 7 305 84 l30 43 0 283 0 283
-30 43 c-53 75 -83 84 -290 86 -136 2 -190 -1 -220 -12z m379 -641 c19 -18 21
-45 4 -62 -17 -17 -329 -17 -346 0 -18 18 -15 55 6 67 9 6 84 11 169 11 125 0
154 -3 167 -16z"/>
</g>
</svg>
