<?xml version="1.0" standalone="no"?>
<!DOCTYPE svg PUBLIC "-//W3C//DTD SVG 20010904//EN"
 "http://www.w3.org/TR/2001/REC-SVG-20010904/DTD/svg10.dtd">
<svg version="1.0" xmlns="http://www.w3.org/2000/svg"
 width="192.000000pt" height="192.000000pt" viewBox="0 0 192.000000 192.000000"
 preserveAspectRatio="xMidYMid meet">
<metadata>
Created by potrace 1.16, written by Peter Selinger 2001-2019
</metadata>
<g transform="translate(0.000000,192.000000) scale(0.100000,-0.100000)"
fill="#000000" stroke="none">
811 c445 -92 729 -532 635 -987 -62 -301 -295 -546 -601 -630 -91 -26 -329
-26 -420 0 -291 80 -516 305 -596 596 -26 91 -26 329 0 420 120 433 542 692
982 601z"/>
<path d="M583 1370 c-41 -25 -53 -48 -53 -104 0 -82 79 -141 155 -116 133 44
103 240 -37 240 -18 0 -47 -9 -65 -20z"/>
<path d="M816 1334 c-21 -20 -20 -30 4 -54 18 -18 33 -20 185 -20 163 0 166 0
190 -25 23 -22 25 -32 25 -115 l0 -90 -35 0 c-53 0 -138 -36 -189 -81 -52 -46
-102 -140 -112 -211 l-6 -48 -75 0 c-79 0 -125 16 -143 49 -6 11 -10 90 -10
183 0 173 -4 188 -47 188 -37 0 -43 -29 -43 -197 0 -132 4 -165 19 -198 20
-46 69 -91 109 -103 15 -4 131 -7 257 -7 227 0 231 0 274 25 30 17 52 40 68
69 22 43 23 53 23 278 0 254 -4 276 -56 325 -46 43 -74 48 -254 48 -140 0
-171 -3 -184 -16z"/>
</g>
</svg>
