<?xml version="1.0" standalone="no"?>
<!DOCTYPE svg PUBLIC "-//W3C//DTD SVG 20010904//EN"
 "http://www.w3.org/TR/2001/REC-SVG-20010904/DTD/svg10.dtd">
<svg version="1.0" xmlns="http://www.w3.org/2000/svg"
 width="192.000000pt" height="192.000000pt" viewBox="0 0 192.000000 192.000000"
 preserveAspectRatio="xMidYMid meet">
<metadata>
Created by potrace 1.16, written by Peter Selinger 2001-2019
</metadata>
<g transform="translate(0.000000,192.000000) scale(0.100000,-0.100000)"
fill="#000000" stroke="none">
811 c445 -92 729 -532 635 -987 -62 -301 -295 -546 -601 -630 -91 -26 -329
-26 -420 0 -291 80 -516 305 -596 596 -26 91 -26 329 0 420 120 433 542 692
982 601z"/>
<path d="M843 1343 c-8 -16 -45 -86 -82 -158 l-66 -130 -70 -3 c-78 -3 -105
-19 -105 -62 0 -35 21 -52 71 -59 l39 -6 -39 -75 c-55 -107 -57 -117 -30 -146
27 -28 60 -31 81 -6 9 9 41 68 72 130 l56 112 80 0 c44 0 80 -2 80 -4 0 -3
-34 -74 -76 -159 -82 -167 -88 -198 -40 -217 55 -21 58 -17 251 370 191 384
197 400 149 422 -52 24 -68 7 -146 -147 l-73 -145 -77 0 c-43 0 -78 2 -78 5 0
3 25 55 55 115 30 60 55 121 55 134 0 58 -78 79 -107 29z"/>
<path d="M1267 1152 c-35 -39 -9 -102 41 -102 28 0 62 34 62 60 0 27 -35 60
-63 60 -13 0 -31 -8 -40 -18z"/>
<path d="M1218 1030 c-28 -17 -118 -217 -118 -262 0 -57 42 -98 102 -98 36 0
55 8 113 51 82 59 92 78 64 113 -27 34 -36 33 -95 -9 -27 -19 -51 -30 -52 -25
-2 6 15 44 37 85 23 41 41 85 41 98 0 45 -51 70 -92 47z"/>
</g>
</svg>
