<?xml version="1.0" standalone="no"?>
<!DOCTYPE svg PUBLIC "-//W3C//DTD SVG 20010904//EN"
 "http://www.w3.org/TR/2001/REC-SVG-20010904/DTD/svg10.dtd">
<svg version="1.0" xmlns="http://www.w3.org/2000/svg"
 width="192.000000pt" height="192.000000pt" viewBox="0 0 192.000000 192.000000"
 preserveAspectRatio="xMidYMid meet">
<metadata>
Created by potrace 1.16, written by Peter Selinger 2001-2019
</metadata>
<g transform="translate(0.000000,192.000000) scale(0.100000,-0.100000)"
fill="#000000" stroke="none">
811 c445 -92 729 -532 635 -987 -62 -301 -295 -546 -601 -630 -91 -26 -329
-26 -420 0 -291 80 -516 305 -596 596 -26 91 -26 329 0 420 120 433 542 692
982 601z"/>
<path d="M829 1352 c-106 -36 -200 -119 -247 -221 -36 -78 -43 -212 -14 -293
40 -114 128 -205 239 -249 110 -43 286 -25 368 36 19 15 17 18 -46 81 l-65 65
-37 -16 c-71 -30 -165 -10 -226 48 -123 117 -79 329 78 376 183 54 349 -111
287 -286 l-14 -40 64 -64 c61 -61 64 -62 79 -44 39 52 59 129 60 225 0 86 -3
101 -32 162 -41 88 -113 160 -200 201 -87 40 -206 48 -294 19z"/>
<path d="M874 1046 c-29 -29 -34 -41 -34 -81 0 -68 47 -115 115 -115 40 0 52
5 81 34 29 29 34 41 34 81 0 40 -5 52 -34 81 -29 29 -41 34 -81 34 -40 0 -52
-5 -81 -34z"/>
</g>
</svg>
