<?xml version="1.0" standalone="no"?>
<!DOCTYPE svg PUBLIC "-//W3C//DTD SVG 20010904//EN"
 "http://www.w3.org/TR/2001/REC-SVG-20010904/DTD/svg10.dtd">
<svg version="1.0" xmlns="http://www.w3.org/2000/svg"
 width="192.000000pt" height="192.000000pt" viewBox="0 0 192.000000 192.000000"
 preserveAspectRatio="xMidYMid meet">
<metadata>
Created by potrace 1.16, written by Peter Selinger 2001-2019
</metadata>
<g transform="translate(0.000000,192.000000) scale(0.100000,-0.100000)"
fill="#000000" stroke="none">
811 c445 -92 729 -532 635 -987 -62 -301 -295 -546 -601 -630 -91 -26 -329
-26 -420 0 -291 80 -516 305 -596 596 -26 91 -26 329 0 420 120 433 542 692
982 601z"/>
<path d="M820 1272 c-22 -10 -42 -32 -54 -56 -17 -34 -17 -44 -6 -94 13 -59
65 -164 127 -257 35 -54 38 -56 44 -34 4 13 7 80 8 148 1 186 -25 311 -67 311
-9 0 -33 -8 -52 -18z"/>
<path d="M1007 1269 c-27 -43 -40 -140 -40 -291 1 -81 5 -152 9 -159 8 -14 83
98 132 200 24 51 37 93 40 132 4 53 2 59 -29 93 -44 47 -91 58 -112 25z"/>
<path d="M610 1128 c-70 -113 -26 -177 206 -305 36 -19 67 -33 71 -30 8 9 -73
155 -147 264 -75 113 -97 124 -130 71z"/>
<path d="M1190 1093 c-66 -90 -183 -297 -170 -301 13 -5 159 79 228 130 84 63
99 125 50 206 -30 48 -51 41 -108 -35z"/>
<path d="M1334 936 c-230 -132 -294 -171 -294 -179 0 -5 51 -8 118 -6 136 5
172 19 209 85 22 38 31 108 15 118 -5 3 -26 -5 -48 -18z"/>
<path d="M520 908 c0 -59 32 -106 90 -135 38 -20 60 -23 152 -23 59 0 108 3
108 8 0 9 -299 181 -329 189 -19 5 -21 1 -21 -39z"/>
<path d="M730 733 c-134 -4 -140 -6 -109 -40 36 -38 82 -55 116 -42 65 24 154
94 111 87 -7 -1 -60 -4 -118 -5z"/>
<path d="M1040 733 c0 -10 91 -67 133 -82 32 -12 70 -1 105 31 43 42 31 48
-92 48 -63 0 -121 3 -130 6 -9 3 -16 2 -16 -3z"/>
</g>
</svg>
