<?xml version="1.0" standalone="no"?>
<!DOCTYPE svg PUBLIC "-//W3C//DTD SVG 20010904//EN"
 "http://www.w3.org/TR/2001/REC-SVG-20010904/DTD/svg10.dtd">
<svg version="1.0" xmlns="http://www.w3.org/2000/svg"
 width="192.000000pt" height="192.000000pt" viewBox="0 0 192.000000 192.000000"
 preserveAspectRatio="xMidYMid meet">
<metadata>
Created by potrace 1.16, written by Peter Selinger 2001-2019
</metadata>
<g transform="translate(0.000000,192.000000) scale(0.100000,-0.100000)"
fill="#000000" stroke="none">
811 c445 -92 729 -532 635 -987 -62 -301 -295 -546 -601 -630 -91 -26 -329
-26 -420 0 -291 80 -516 305 -596 596 -26 91 -26 329 0 420 120 433 542 692
982 601z"/>
<path d="M552 1148 c-8 -8 -12 -64 -12 -185 0 -160 1 -173 19 -183 47 -25 71
2 71 81 0 56 1 59 25 59 24 0 25 -3 25 -55 0 -80 44 -120 83 -77 24 27 25 332
1 356 -42 42 -84 1 -84 -82 0 -50 -2 -53 -22 -50 -21 3 -23 10 -26 63 -2 32
-8 65 -14 72 -13 16 -50 17 -66 1z"/>
<path d="M846 1144 c-13 -13 -16 -44 -16 -178 0 -200 -2 -196 119 -196 127 0
121 -10 121 193 0 182 -4 197 -45 197 -40 0 -45 -17 -45 -157 l0 -133 -25 0
-25 0 0 128 c0 112 -2 131 -18 145 -23 21 -46 22 -66 1z"/>
<path d="M1143 1153 c-18 -7 -18 -354 -1 -371 8 -8 46 -12 103 -12 76 0 95 3
108 18 41 45 6 82 -76 82 -54 0 -57 1 -57 25 0 23 4 25 43 25 48 0 67 13 67
46 0 29 -18 42 -65 46 -35 3 -40 6 -40 28 0 24 4 25 60 28 64 3 85 14 85 43 0
39 -26 49 -123 48 -51 0 -98 -3 -104 -6z"/>
</g>
</svg>
