<?xml version="1.0" standalone="no"?>
<!DOCTYPE svg PUBLIC "-//W3C//DTD SVG 20010904//EN"
 "http://www.w3.org/TR/2001/REC-SVG-20010904/DTD/svg10.dtd">
<svg version="1.0" xmlns="http://www.w3.org/2000/svg"
 width="192.000000pt" height="192.000000pt" viewBox="0 0 192.000000 192.000000"
 preserveAspectRatio="xMidYMid meet">
<metadata>
Created by potrace 1.16, written by Peter Selinger 2001-2019
</metadata>
<g transform="translate(0.000000,192.000000) scale(0.100000,-0.100000)"
fill="#000000" stroke="none">
811 c445 -92 729 -532 635 -987 -62 -301 -295 -546 -601 -630 -91 -26 -329
-26 -420 0 -291 80 -516 305 -596 596 -26 91 -26 329 0 420 120 433 542 692
982 601z"/>
<path d="M690 1318 c-24 -13 -58 -40 -74 -61 l-31 -39 -3 -214 -3 -214 376 0
376 0 -3 209 -3 209 -30 44 c-18 25 -49 52 -75 66 -42 21 -56 22 -265 22 -209
0 -223 -1 -265 -22z m28 -206 c3 -28 7 -32 32 -32 25 0 29 4 32 33 2 24 8 33
26 35 22 3 22 1 22 -98 0 -99 0 -101 -22 -98 -18 2 -24 11 -26 36 -3 28 -7 32
-33 32 -27 0 -29 -3 -29 -35 0 -31 -3 -35 -25 -35 -25 0 -25 0 -25 93 0 52 3
97 7 101 16 16 38 -1 41 -32z m202 -29 c5 -66 19 -90 44 -80 12 5 16 21 16 64
0 66 9 87 36 81 16 -3 19 -14 22 -74 2 -59 -1 -75 -18 -97 -28 -35 -92 -38
-127 -5 -20 19 -23 31 -23 93 0 75 4 88 30 83 11 -2 16 -20 20 -65z m220 -21
c0 -96 -7 -112 -51 -112 -37 0 -47 19 -21 41 18 14 22 28 22 81 0 70 3 78 32
78 16 0 18 -9 18 -88z m95 -12 c0 -95 0 -95 -25 -95 -24 0 -25 2 -28 75 -4 98
2 122 31 118 21 -3 22 -8 22 -98z"/>
<path d="M580 760 c0 -10 5 -31 12 -45 l11 -25 353 0 353 0 10 38 c6 20 11 40
11 45 0 4 -169 7 -375 7 -365 0 -375 -1 -375 -20z"/>
<path d="M620 672 c0 -15 44 -51 82 -67 54 -22 452 -22 506 0 38 16 82 52 82
67 0 4 -151 8 -335 8 -184 0 -335 -4 -335 -8z"/>
</g>
</svg>
