<?xml version="1.0" standalone="no"?>
<!DOCTYPE svg PUBLIC "-//W3C//DTD SVG 20010904//EN"
 "http://www.w3.org/TR/2001/REC-SVG-20010904/DTD/svg10.dtd">
<svg version="1.0" xmlns="http://www.w3.org/2000/svg"
 width="192.000000pt" height="192.000000pt" viewBox="0 0 192.000000 192.000000"
 preserveAspectRatio="xMidYMid meet">
<metadata>
Created by potrace 1.16, written by Peter Selinger 2001-2019
</metadata>
<g transform="translate(0.000000,192.000000) scale(0.100000,-0.100000)"
fill="#000000" stroke="none">
811 c445 -92 729 -532 635 -987 -62 -301 -295 -546 -601 -630 -91 -26 -329
-26 -420 0 -291 80 -516 305 -596 596 -26 91 -26 329 0 420 120 433 542 692
982 601z"/>
<path d="M870 1370 c-24 -5 -67 -21 -96 -35 -37 -18 -67 -25 -111 -25 -45 0
-67 -5 -84 -19 -22 -18 -24 -27 -31 -192 -9 -199 0 -256 55 -348 84 -140 256
-221 412 -194 163 28 283 129 335 282 19 58 20 75 14 247 -5 123 -11 190 -20
202 -9 12 -33 19 -91 23 -52 4 -99 15 -141 33 -71 30 -169 41 -242 26z m-9
-223 c45 -30 63 -83 46 -134 -14 -44 -66 -83 -111 -83 -70 0 -135 76 -121 141
19 87 113 125 186 76z m320 6 c95 -56 62 -205 -48 -220 -98 -13 -165 87 -118
177 29 56 109 77 166 43z m-181 -288 c14 -17 6 -46 -21 -71 -24 -21 -42 -14
-67 29 -16 27 -16 29 2 43 25 18 70 18 86 -1z"/>
</g>
</svg>
