<?xml version="1.0" standalone="no"?>
<!DOCTYPE svg PUBLIC "-//W3C//DTD SVG 20010904//EN"
 "http://www.w3.org/TR/2001/REC-SVG-20010904/DTD/svg10.dtd">
<svg version="1.0" xmlns="http://www.w3.org/2000/svg"
 width="192.000000pt" height="192.000000pt" viewBox="0 0 192.000000 192.000000"
 preserveAspectRatio="xMidYMid meet">
<metadata>
Created by potrace 1.16, written by Peter Selinger 2001-2019
</metadata>
<g transform="translate(0.000000,192.000000) scale(0.100000,-0.100000)"
fill="#000000" stroke="none">
811 c445 -92 729 -532 635 -987 -62 -301 -295 -546 -601 -630 -91 -26 -329
-26 -420 0 -291 80 -516 305 -596 596 -26 91 -26 329 0 420 120 433 542 692
982 601z"/>
<path d="M1072 1138 c-17 -17 -17 -299 0 -316 17 -17 55 -15 62 4 3 9 6 80 6
158 0 145 -5 166 -40 166 -9 0 -21 -5 -28 -12z"/>
<path d="M498 1109 c-16 -9 -18 -27 -18 -149 0 -133 1 -140 22 -151 34 -18 58
19 58 88 l0 54 38 -3 37 -3 3 -62 c2 -52 7 -65 24 -74 32 -17 58 19 58 81 0
99 -27 130 -115 130 l-44 0 -3 48 c-2 38 -7 47 -23 49 -11 2 -28 -2 -37 -8z"/>
<path d="M787 1008 c-26 -14 -24 -151 2 -177 38 -38 156 -41 192 -4 13 12 20
39 23 86 5 58 3 70 -14 87 -16 16 -25 18 -40 10 -17 -9 -20 -21 -20 -70 0 -55
-2 -60 -25 -66 -43 -11 -55 1 -55 51 0 71 -26 104 -63 83z"/>
<path d="M1200 989 c-19 -34 -8 -136 17 -160 29 -29 127 -38 171 -15 38 19 44
40 40 126 -3 60 -5 65 -27 68 -34 5 -51 -22 -51 -80 0 -53 -12 -65 -55 -54
-22 6 -24 12 -27 69 -3 59 -4 62 -30 65 -19 2 -30 -3 -38 -19z"/>
</g>
</svg>
