<?xml version="1.0" standalone="no"?>
<!DOCTYPE svg PUBLIC "-//W3C//DTD SVG 20010904//EN"
 "http://www.w3.org/TR/2001/REC-SVG-20010904/DTD/svg10.dtd">
<svg version="1.0" xmlns="http://www.w3.org/2000/svg"
 width="192.000000pt" height="192.000000pt" viewBox="0 0 192.000000 192.000000"
 preserveAspectRatio="xMidYMid meet">
<metadata>
Created by potrace 1.16, written by Peter Selinger 2001-2019
</metadata>
<g transform="translate(0.000000,192.000000) scale(0.100000,-0.100000)"
fill="#000000" stroke="none">
811 c445 -92 729 -532 635 -987 -62 -301 -295 -546 -601 -630 -91 -26 -329
-26 -420 0 -291 80 -516 305 -596 596 -26 91 -26 329 0 420 120 433 542 692
982 601z"/>
<path d="M674 1361 c-12 -5 -31 -22 -43 -38 -22 -27 -23 -34 -19 -229 l3 -201
35 -69 c38 -75 94 -126 158 -144 64 -18 201 -12 251 10 24 11 45 20 47 20 2 0
4 -21 4 -46 0 -37 5 -51 30 -76 28 -27 36 -30 73 -25 28 4 49 14 64 32 23 26
23 28 23 365 l0 340 -29 32 c-24 27 -36 33 -71 33 -35 0 -47 -6 -71 -33 l-29
-32 0 -162 c0 -143 -2 -167 -21 -204 -36 -76 -136 -105 -205 -59 -53 35 -59
56 -64 252 -5 178 -6 183 -30 208 -28 28 -74 39 -106 26z"/>
</g>
</svg>
