<?xml version="1.0" standalone="no"?>
<!DOCTYPE svg PUBLIC "-//W3C//DTD SVG 20010904//EN"
 "http://www.w3.org/TR/2001/REC-SVG-20010904/DTD/svg10.dtd">
<svg version="1.0" xmlns="http://www.w3.org/2000/svg"
 width="192.000000pt" height="192.000000pt" viewBox="0 0 192.000000 192.000000"
 preserveAspectRatio="xMidYMid meet">
<metadata>
Created by potrace 1.16, written by Peter Selinger 2001-2019
</metadata>
<g transform="translate(0.000000,192.000000) scale(0.100000,-0.100000)"
fill="#000000" stroke="none">
811 c445 -92 729 -532 635 -987 -62 -301 -295 -546 -601 -630 -91 -26 -329
-26 -420 0 -291 80 -516 305 -596 596 -26 91 -26 329 0 420 120 433 542 692
982 601z"/>
<path d="M679 1317 c-24 -13 -57 -43 -74 -66 l-30 -43 -3 -221 c-3 -185 -1
-227 13 -263 20 -52 81 -109 132 -123 49 -14 427 -14 476 0 51 14 112 71 132
123 14 36 16 78 13 263 l-3 221 -30 43 c-16 23 -50 53 -74 66 -43 22 -53 23
-276 23 -223 0 -233 -1 -276 -23z m579 -402 l-3 -175 -33 -32 -32 -33 -235 0
-235 0 -32 33 -33 32 -3 175 -3 175 306 0 306 0 -3 -175z"/>
<path d="M837 1032 c-24 -27 -25 -283 -1 -306 38 -39 74 -11 74 56 l0 48 45 0
45 0 0 -44 c0 -47 19 -76 49 -76 36 0 41 20 41 172 l0 148 -25 12 c-39 18 -65
-12 -65 -74 l0 -48 -45 0 -45 0 0 55 c0 43 -4 56 -19 65 -27 14 -35 13 -54 -8z"/>
</g>
</svg>
