<?xml version="1.0" standalone="no"?>
<!DOCTYPE svg PUBLIC "-//W3C//DTD SVG 20010904//EN"
 "http://www.w3.org/TR/2001/REC-SVG-20010904/DTD/svg10.dtd">
<svg version="1.0" xmlns="http://www.w3.org/2000/svg"
 width="192.000000pt" height="192.000000pt" viewBox="0 0 192.000000 192.000000"
 preserveAspectRatio="xMidYMid meet">
<metadata>
Created by potrace 1.16, written by Peter Selinger 2001-2019
</metadata>
<g transform="translate(0.000000,192.000000) scale(0.100000,-0.100000)"
fill="#000000" stroke="none">
810 c245 -63 441 -223 549 -451 55 -116 75 -212 75 -354 0 -141 -20 -238 -75
-352 -86 -182 -215 -312 -396 -398 -116 -55 -212 -75 -354 -75 -142 0 -238 20
-354 75 -228 108 -388 304 -451 549 -28 110 -28 292 0 402 76 298 303 526 600
603 106 28 298 28 406 1z"/>
<path d="M857 1340 c-113 -29 -211 -109 -264 -218 -37 -73 -38 -80 -38 -182 0
-122 14 -165 55 -165 23 0 25 3 23 40 -11 174 -9 209 20 267 71 144 230 222
377 184 118 -30 191 -94 237 -205 26 -63 29 -127 11 -214 -11 -54 -11 -60 6
-72 37 -28 59 4 76 110 20 125 -28 263 -122 351 -74 69 -161 105 -261 110 -45
2 -99 -1 -120 -6z"/>
<path d="M913 1082 c-38 -56 -42 -99 -13 -130 45 -48 130 -16 130 50 0 34 -54
128 -74 128 -6 0 -26 -22 -43 -48z"/>
<path d="M795 908 c-39 -58 -44 -95 -17 -127 28 -34 74 -37 107 -9 39 34 37
74 -6 137 -19 28 -37 51 -41 51 -4 0 -23 -24 -43 -52z"/>
<path d="M1036 913 c-45 -61 -49 -112 -10 -142 35 -28 69 -26 99 4 34 33 32
76 -5 130 -17 24 -35 47 -40 50 -5 3 -25 -16 -44 -42z"/>
<path d="M687 748 c-53 -71 -59 -101 -26 -142 42 -53 133 -22 133 46 0 33 -55
128 -74 128 -5 0 -20 -15 -33 -32z"/>
<path d="M913 732 c-40 -57 -43 -99 -10 -130 49 -46 127 -15 127 50 0 34 -54
128 -74 128 -6 0 -26 -21 -43 -48z"/>
<path d="M1153 737 c-59 -81 -39 -157 41 -157 40 0 76 37 76 76 0 27 -59 124
-76 124 -6 0 -24 -19 -41 -43z"/>
</g>
</svg>
