<?xml version="1.0" standalone="no"?>
<!DOCTYPE svg PUBLIC "-//W3C//DTD SVG 20010904//EN"
 "http://www.w3.org/TR/2001/REC-SVG-20010904/DTD/svg10.dtd">
<svg version="1.0" xmlns="http://www.w3.org/2000/svg"
 width="192.000000pt" height="192.000000pt" viewBox="0 0 192.000000 192.000000"
 preserveAspectRatio="xMidYMid meet">
<metadata>
Created by potrace 1.16, written by Peter Selinger 2001-2019
</metadata>
<g transform="translate(0.000000,192.000000) scale(0.100000,-0.100000)"
fill="#000000" stroke="none">
811 c445 -92 729 -532 635 -987 -62 -301 -295 -546 -601 -630 -91 -26 -329
-26 -420 0 -291 80 -516 305 -596 596 -26 91 -26 329 0 420 120 433 542 692
982 601z"/>
<path d="M894 1351 c-120 -88 -183 -208 -184 -347 0 -34 -5 -56 -16 -65 -8 -7
-22 -25 -29 -39 -13 -25 -10 -39 26 -161 58 -193 71 -207 127 -143 26 30 34
33 51 24 11 -5 26 -18 33 -28 12 -18 49 -42 63 -42 4 0 24 18 46 40 22 22 44
40 49 40 5 0 21 -16 36 -35 50 -65 69 -44 123 136 23 74 41 140 41 147 0 6
-13 26 -29 44 -25 29 -29 43 -33 115 -4 66 -11 94 -37 147 -48 97 -152 196
-207 196 -12 0 -39 -13 -60 -29z m124 -206 c57 -47 44 -133 -23 -161 -101 -42
-183 80 -106 157 38 38 87 39 129 4z"/>
</g>
</svg>
