<?xml version="1.0" standalone="no"?>
<!DOCTYPE svg PUBLIC "-//W3C//DTD SVG 20010904//EN"
 "http://www.w3.org/TR/2001/REC-SVG-20010904/DTD/svg10.dtd">
<svg version="1.0" xmlns="http://www.w3.org/2000/svg"
 width="192.000000pt" height="192.000000pt" viewBox="0 0 192.000000 192.000000"
 preserveAspectRatio="xMidYMid meet">
<metadata>
Created by potrace 1.16, written by Peter Selinger 2001-2019
</metadata>
<g transform="translate(0.000000,192.000000) scale(0.100000,-0.100000)"
fill="#000000" stroke="none">
811 c445 -92 729 -532 635 -987 -62 -301 -295 -546 -601 -630 -91 -26 -329
-26 -420 0 -291 80 -516 305 -596 596 -26 91 -26 329 0 420 120 433 542 692
982 601z"/>
<path d="M838 1291 c-118 -38 -201 -109 -257 -219 -81 -160 -53 -374 56 -428
29 -15 59 -19 128 -18 116 1 193 22 331 89 185 92 277 194 277 309 0 121 -118
239 -274 275 -70 16 -197 12 -261 -8z m-138 -246 c0 -33 2 -35 35 -35 33 0 35
2 35 35 0 24 5 35 15 35 12 0 15 -17 15 -90 0 -73 -3 -90 -15 -90 -10 0 -15
11 -15 35 0 33 -2 35 -35 35 -33 0 -35 -2 -35 -35 0 -28 -4 -35 -20 -35 -18 0
-20 7 -20 83 0 85 3 97 27 97 8 0 13 -12 13 -35z m160 0 c0 -32 2 -35 30 -35
28 0 30 3 30 35 0 28 4 35 20 35 31 0 28 -64 -5 -94 -16 -15 -25 -34 -25 -55
0 -24 -4 -31 -20 -31 -16 0 -20 7 -20 31 0 21 -8 37 -25 51 -19 15 -25 29 -25
59 0 32 3 39 20 39 16 0 20 -7 20 -35z m228 23 c7 -7 12 -26 12 -43 0 -40 -16
-55 -57 -55 -31 0 -33 -2 -33 -35 0 -24 -5 -35 -15 -35 -12 0 -15 17 -15 90
l0 90 48 0 c26 0 53 -5 60 -12z m152 -3 c0 -11 -11 -15 -40 -15 -33 0 -40 -3
-40 -19 0 -15 8 -21 33 -23 20 -2 32 -8 32 -18 0 -10 -12 -16 -32 -18 -25 -2
-33 -8 -33 -23 0 -16 7 -19 40 -19 29 0 40 -4 40 -15 0 -12 -13 -15 -55 -15
l-55 0 0 90 0 90 55 0 c42 0 55 -3 55 -15z"/>
<path d="M1010 1025 c0 -23 4 -26 28 -23 19 2 27 9 27 23 0 14 -8 21 -27 23
-24 3 -28 0 -28 -23z"/>
</g>
</svg>
