<?xml version="1.0" standalone="no"?>
<!DOCTYPE svg PUBLIC "-//W3C//DTD SVG 20010904//EN"
 "http://www.w3.org/TR/2001/REC-SVG-20010904/DTD/svg10.dtd">
<svg version="1.0" xmlns="http://www.w3.org/2000/svg"
 width="192.000000pt" height="192.000000pt" viewBox="0 0 192.000000 192.000000"
 preserveAspectRatio="xMidYMid meet">
<metadata>
Created by potrace 1.16, written by Peter Selinger 2001-2019
</metadata>
<g transform="translate(0.000000,192.000000) scale(0.100000,-0.100000)"
fill="#000000" stroke="none">
811 c445 -92 729 -532 635 -987 -62 -301 -295 -546 -601 -630 -91 -26 -329
-26 -420 0 -291 80 -516 305 -596 596 -26 91 -26 329 0 420 120 433 542 692
982 601z"/>
<path d="M851 1364 c-162 -43 -274 -167 -303 -333 -38 -222 117 -434 343 -470
268 -43 507 193 468 464 -34 241 -274 402 -508 339z m227 -206 c80 -53 118
-161 92 -258 -16 -61 -89 -134 -150 -150 -97 -26 -205 12 -257 92 -32 47 -43
143 -23 203 16 49 66 104 115 127 61 28 169 22 223 -14z"/>
<path d="M905 1115 c-77 -28 -125 -113 -105 -187 39 -138 220 -161 290 -36 69
123 -53 270 -185 223z"/>
</g>
</svg>
