<?xml version="1.0" standalone="no"?>
<!DOCTYPE svg PUBLIC "-//W3C//DTD SVG 20010904//EN"
 "http://www.w3.org/TR/2001/REC-SVG-20010904/DTD/svg10.dtd">
<svg version="1.0" xmlns="http://www.w3.org/2000/svg"
 width="192.000000pt" height="192.000000pt" viewBox="0 0 192.000000 192.000000"
 preserveAspectRatio="xMidYMid meet">
<metadata>
Created by potrace 1.16, written by Peter Selinger 2001-2019
</metadata>
<g transform="translate(0.000000,192.000000) scale(0.100000,-0.100000)"
fill="#000000" stroke="none">
811 c445 -92 729 -532 635 -987 -62 -301 -295 -546 -601 -630 -91 -26 -329
-26 -420 0 -291 80 -516 305 -596 596 -26 91 -26 329 0 420 120 433 542 692
982 601z"/>
<path d="M720 1342 c-11 -5 -15 -24 -15 -72 l0 -65 -72 -3 -72 -3 -7 -35 c-12
-65 4 -164 40 -239 41 -88 134 -204 221 -275 80 -66 96 -73 157 -67 39 3 59
13 118 62 95 78 172 173 222 273 35 70 42 94 46 161 3 48 0 93 -8 116 -16 50
-75 114 -125 136 -75 35 -183 21 -257 -33 -14 -10 -20 -9 -37 6 -41 37 -164
59 -211 38z m118 -129 c-21 -2 -57 -2 -80 0 -24 2 -7 4 37 4 44 0 63 -2 43 -4z"/>
</g>
</svg>
