<?xml version="1.0" standalone="no"?>
<!DOCTYPE svg PUBLIC "-//W3C//DTD SVG 20010904//EN"
 "http://www.w3.org/TR/2001/REC-SVG-20010904/DTD/svg10.dtd">
<svg version="1.0" xmlns="http://www.w3.org/2000/svg"
 width="192.000000pt" height="192.000000pt" viewBox="0 0 192.000000 192.000000"
 preserveAspectRatio="xMidYMid meet">
<metadata>
Created by potrace 1.16, written by Peter Selinger 2001-2019
</metadata>
<g transform="translate(0.000000,192.000000) scale(0.100000,-0.100000)"
fill="#000000" stroke="none">
811 c445 -92 729 -532 635 -987 -62 -301 -295 -546 -601 -630 -91 -26 -329
-26 -420 0 -291 80 -516 305 -596 596 -26 91 -26 329 0 420 120 433 542 692
982 601z"/>
<path d="M854 1360 c-54 -17 -128 -73 -161 -123 -57 -85 -63 -124 -63 -390 l0
-239 29 -29 c31 -31 59 -36 94 -17 39 20 46 40 47 125 l0 81 53 -20 c147 -56
329 25 399 177 32 70 31 190 -1 256 -32 68 -81 121 -142 154 -46 25 -67 29
-139 32 -47 1 -99 -2 -116 -7z m64 -137 l-3 -28 -23 35 c-27 44 -27 48 1 52
24 3 31 -12 25 -59z m122 51 c0 -12 -35 -74 -42 -74 -4 0 -8 20 -8 44 0 41 1
43 25 38 14 -2 25 -6 25 -8z m-211 -70 c12 -20 19 -39 16 -42 -5 -5 -75 29
-75 37 0 5 31 41 36 41 1 0 12 -16 23 -36z m311 -3 c0 -9 -55 -41 -70 -41 -7
0 -2 16 11 40 21 38 24 39 41 23 10 -9 18 -19 18 -22z m-140 -66 c56 -29 67
-93 24 -144 -21 -26 -33 -31 -69 -31 -36 0 -48 5 -69 31 -42 50 -32 114 22
143 35 19 56 20 92 1z m-196 -47 c-9 -15 -84 -9 -84 6 0 42 11 47 51 24 21
-11 36 -25 33 -30z m386 10 c0 -14 -9 -18 -40 -18 -48 0 -51 11 -8 38 34 22
48 16 48 -20z m-390 -88 c0 -6 -15 -19 -32 -30 -31 -18 -33 -19 -40 -2 -14 35
-9 42 32 42 22 0 40 -5 40 -10z m390 -7 c0 -37 -14 -43 -48 -21 -43 27 -40 38
8 38 31 0 40 -4 40 -17z m-340 -67 c0 -3 -10 -21 -21 -41 l-22 -37 -21 22
c-13 14 -17 24 -10 27 6 2 20 10 30 18 18 14 44 20 44 11z m261 -13 c34 -20
35 -24 11 -46 -17 -16 -20 -15 -41 23 -24 44 -16 50 30 23z m-191 -67 c0 -41
-1 -43 -25 -38 -14 2 -25 7 -25 11 0 9 39 71 45 71 3 0 5 -20 5 -44z m103 13
c22 -40 22 -46 -8 -51 -24 -5 -25 -3 -25 38 0 52 9 55 33 13z"/>
</g>
</svg>
