<?xml version="1.0" standalone="no"?>
<!DOCTYPE svg PUBLIC "-//W3C//DTD SVG 20010904//EN"
 "http://www.w3.org/TR/2001/REC-SVG-20010904/DTD/svg10.dtd">
<svg version="1.0" xmlns="http://www.w3.org/2000/svg"
 width="192.000000pt" height="192.000000pt" viewBox="0 0 192.000000 192.000000"
 preserveAspectRatio="xMidYMid meet">
<metadata>
Created by potrace 1.16, written by Peter Selinger 2001-2019
</metadata>
<g transform="translate(0.000000,192.000000) scale(0.100000,-0.100000)"
fill="#000000" stroke="none">
811 c445 -92 729 -532 635 -987 -62 -301 -295 -546 -601 -630 -91 -26 -329
-26 -420 0 -291 80 -516 305 -596 596 -26 91 -26 329 0 420 120 433 542 692
982 601z"/>
<path d="M856 1369 c-63 -15 -153 -68 -202 -121 -222 -237 -100 -619 220 -684
61 -13 89 -14 138 -5 239 42 393 260 344 490 -48 230 -273 373 -500 320z m176
-257 c34 -15 52 -31 64 -54 11 -23 33 -43 72 -63 79 -43 86 -58 41 -100 -29
-26 -49 -35 -93 -40 -47 -6 -61 -13 -86 -41 -47 -54 -40 -122 18 -171 l25 -21
-36 -7 c-69 -13 -178 -1 -232 25 -98 48 -169 140 -195 253 -13 61 6 101 86
177 48 45 67 56 104 62 80 11 182 3 232 -20z"/>
<path d="M937 1035 c-24 -24 -12 -35 36 -35 79 0 90 34 15 46 -25 4 -39 1 -51
-11z"/>
</g>
</svg>
