<?xml version="1.0" standalone="no"?>
<!DOCTYPE svg PUBLIC "-//W3C//DTD SVG 20010904//EN"
 "http://www.w3.org/TR/2001/REC-SVG-20010904/DTD/svg10.dtd">
<svg version="1.0" xmlns="http://www.w3.org/2000/svg"
 width="192.000000pt" height="192.000000pt" viewBox="0 0 192.000000 192.000000"
 preserveAspectRatio="xMidYMid meet">
<metadata>
Created by potrace 1.16, written by Peter Selinger 2001-2019
</metadata>
<g transform="translate(0.000000,192.000000) scale(0.100000,-0.100000)"
fill="#000000" stroke="none">
811 c445 -92 729 -532 635 -987 -62 -301 -295 -546 -601 -630 -91 -26 -329
-26 -420 0 -291 80 -516 305 -596 596 -26 91 -26 329 0 420 120 433 542 692
982 601z"/>
<path d="M961 1365 c-138 -39 -262 -147 -330 -286 -90 -188 -75 -365 41 -476
45 -43 80 -56 106 -37 25 17 78 162 94 255 10 61 9 72 -5 86 -12 13 -21 14
-48 4 -78 -27 -71 2 15 67 85 64 140 88 171 74 14 -7 25 -20 25 -31 0 -10 -18
-72 -39 -137 -57 -169 -68 -238 -47 -288 15 -36 18 -38 51 -33 19 3 59 22 90
42 209 139 311 432 215 618 -63 122 -202 180 -339 142z m153 -148 c26 -42 -81
-146 -123 -120 -32 20 -25 61 18 104 44 44 84 50 105 16z"/>
</g>
</svg>
