<?xml version="1.0" standalone="no"?>
<!DOCTYPE svg PUBLIC "-//W3C//DTD SVG 20010904//EN"
 "http://www.w3.org/TR/2001/REC-SVG-20010904/DTD/svg10.dtd">
<svg version="1.0" xmlns="http://www.w3.org/2000/svg"
 width="192.000000pt" height="192.000000pt" viewBox="0 0 192.000000 192.000000"
 preserveAspectRatio="xMidYMid meet">
<metadata>
Created by potrace 1.16, written by Peter Selinger 2001-2019
</metadata>
<g transform="translate(0.000000,192.000000) scale(0.100000,-0.100000)"
fill="#000000" stroke="none">
811 c445 -92 729 -532 635 -987 -62 -301 -295 -546 -601 -630 -91 -26 -329
-26 -420 0 -291 80 -516 305 -596 596 -26 91 -26 329 0 420 120 433 542 692
982 601z"/>
<path d="M775 1276 c-16 -7 -40 -25 -53 -39 l-23 -25 20 -68 c11 -38 31 -97
45 -131 l24 -61 -25 -39 c-61 -91 -90 -104 -114 -50 -19 44 -49 47 -83 6 -23
-28 -26 -38 -21 -73 19 -115 78 -172 147 -142 18 7 63 44 99 83 l67 69 48 -65
c64 -85 102 -105 175 -91 69 13 180 68 242 121 41 35 47 45 47 79 0 36 -20 70
-40 70 -5 0 -44 -22 -86 -50 -78 -51 -136 -70 -162 -54 -8 6 -32 39 -53 74
l-39 64 37 39 c21 22 71 65 112 96 78 59 95 88 82 138 -4 15 -19 35 -33 46
l-27 20 -53 -26 c-29 -15 -83 -54 -121 -88 l-67 -61 -25 56 c-14 31 -25 61
-25 66 0 14 -38 50 -52 50 -7 -1 -26 -7 -43 -14z"/>
</g>
</svg>
