<?xml version="1.0" standalone="no"?>
<!DOCTYPE svg PUBLIC "-//W3C//DTD SVG 20010904//EN"
 "http://www.w3.org/TR/2001/REC-SVG-20010904/DTD/svg10.dtd">
<svg version="1.0" xmlns="http://www.w3.org/2000/svg"
 width="192.000000pt" height="192.000000pt" viewBox="0 0 192.000000 192.000000"
 preserveAspectRatio="xMidYMid meet">
<metadata>
Created by potrace 1.16, written by Peter Selinger 2001-2019
</metadata>
<g transform="translate(0.000000,192.000000) scale(0.100000,-0.100000)"
fill="#000000" stroke="none">
811 c445 -92 729 -532 635 -987 -62 -301 -295 -546 -601 -630 -91 -26 -329
-26 -420 0 -291 80 -516 305 -596 596 -26 91 -26 329 0 420 120 433 542 692
982 601z"/>
<path d="M1105 1348 c-31 -17 -115 -100 -131 -130 -28 -53 -18 -92 37 -158
103 -124 146 -128 252 -22 61 61 70 75 74 115 5 44 4 47 -53 109 -87 95 -127
115 -179 86z"/>
<path d="M604 1296 l-34 -34 0 -104 c0 -117 10 -140 66 -164 43 -18 155 -18
199 0 49 21 65 59 65 160 0 102 -9 130 -52 156 -26 16 -51 20 -121 20 -88 0
-89 0 -123 -34z"/>
<path d="M601 881 l-31 -29 0 -112 c0 -110 0 -112 29 -141 29 -28 32 -29 131
-29 l102 0 35 35 35 35 -4 106 c-3 105 -3 106 -36 135 -31 28 -36 29 -131 29
-95 0 -100 -1 -130 -29z"/>
<path d="M1011 881 l-31 -29 0 -112 c0 -110 0 -112 29 -141 29 -28 32 -29 130
-29 97 0 102 1 133 29 l33 29 0 112 0 112 -33 29 c-31 28 -36 29 -131 29 -95
0 -100 -1 -130 -29z"/>
</g>
</svg>
