<?xml version="1.0" standalone="no"?>
<!DOCTYPE svg PUBLIC "-//W3C//DTD SVG 20010904//EN"
 "http://www.w3.org/TR/2001/REC-SVG-20010904/DTD/svg10.dtd">
<svg version="1.0" xmlns="http://www.w3.org/2000/svg"
 width="192.000000pt" height="192.000000pt" viewBox="0 0 192.000000 192.000000"
 preserveAspectRatio="xMidYMid meet">
<metadata>
Created by potrace 1.16, written by Peter Selinger 2001-2019
</metadata>
<g transform="translate(0.000000,192.000000) scale(0.100000,-0.100000)"
fill="#000000" stroke="none">
811 c445 -92 729 -532 635 -987 -62 -301 -295 -546 -601 -630 -91 -26 -329
-26 -420 0 -291 80 -516 305 -596 596 -26 91 -26 329 0 420 120 433 542 692
982 601z"/>
<path d="M706 1345 c-57 -20 -88 -46 -116 -96 -24 -42 -25 -52 -28 -249 -5
-253 3 -295 62 -355 50 -50 100 -65 213 -65 92 0 123 15 123 59 0 16 -6 33
-12 39 -7 5 -60 12 -117 14 -98 5 -106 7 -128 32 -23 27 -23 31 -23 247 l0
220 25 24 24 25 220 0 c121 0 227 -3 236 -6 31 -12 45 -59 45 -157 0 -101 7
-117 51 -117 49 0 59 21 59 129 0 141 -24 196 -103 242 -40 23 -50 24 -267 26
-176 2 -234 0 -264 -12z"/>
<path d="M819 1091 c-33 -33 -35 -50 -14 -92 10 -19 26 -32 44 -35 16 -4 47
-25 70 -48 l41 -42 -11 -54 c-16 -78 0 -133 56 -186 30 -29 58 -45 93 -53 195
-47 330 191 188 333 -60 61 -133 79 -208 52 -36 -13 -37 -13 -76 28 -22 23
-43 51 -47 63 -8 30 -52 63 -82 63 -14 0 -37 -13 -54 -29z m391 -259 c47 -59
8 -142 -68 -142 -50 0 -86 36 -86 85 0 82 104 121 154 57z"/>
</g>
</svg>
