<?xml version="1.0" standalone="no"?>
<!DOCTYPE svg PUBLIC "-//W3C//DTD SVG 20010904//EN"
 "http://www.w3.org/TR/2001/REC-SVG-20010904/DTD/svg10.dtd">
<svg version="1.0" xmlns="http://www.w3.org/2000/svg"
 width="192.000000pt" height="192.000000pt" viewBox="0 0 192.000000 192.000000"
 preserveAspectRatio="xMidYMid meet">
<metadata>
Created by potrace 1.16, written by Peter Selinger 2001-2019
</metadata>
<g transform="translate(0.000000,192.000000) scale(0.100000,-0.100000)"
fill="#000000" stroke="none">
811 c445 -92 729 -532 635 -987 -62 -301 -295 -546 -601 -630 -91 -26 -329
-26 -420 0 -291 80 -516 305 -596 596 -26 91 -26 329 0 420 120 433 542 692
982 601z"/>
<path d="M652 1251 c-8 -4 -12 -19 -10 -32 2 -18 10 -25 33 -27 28 -3 33 -10
83 -131 l53 -127 -25 -53 c-19 -43 -22 -59 -14 -81 14 -43 50 -50 254 -50 153
0 185 3 198 16 12 12 13 20 6 35 -10 18 -23 19 -205 19 l-195 0 17 35 17 35
131 0 c100 0 136 4 152 15 12 8 52 69 88 135 55 99 65 123 55 135 -10 13 -55
15 -260 15 l-248 0 -21 35 c-18 30 -25 35 -58 35 -21 0 -44 -4 -51 -9z"/>
<path d="M501 1071 c-7 -13 -7 -23 2 -35 18 -24 165 -19 180 6 21 33 -8 48
-94 48 -66 0 -80 -3 -88 -19z"/>
<path d="M481 976 c-7 -8 -10 -24 -6 -36 6 -19 14 -20 121 -20 97 0 116 3 121
16 3 9 2 24 -4 33 -15 23 -214 29 -232 7z"/>
<path d="M795 715 c-14 -13 -25 -36 -25 -50 0 -35 42 -75 79 -75 35 0 71 39
71 77 0 32 -42 73 -75 73 -14 0 -37 -11 -50 -25z"/>
<path d="M1113 728 c-48 -23 -51 -103 -4 -127 78 -42 154 64 85 118 -29 23
-48 25 -81 9z"/>
</g>
</svg>
