<?xml version="1.0" standalone="no"?>
<!DOCTYPE svg PUBLIC "-//W3C//DTD SVG 20010904//EN"
 "http://www.w3.org/TR/2001/REC-SVG-20010904/DTD/svg10.dtd">
<svg version="1.0" xmlns="http://www.w3.org/2000/svg"
 width="192.000000pt" height="192.000000pt" viewBox="0 0 192.000000 192.000000"
 preserveAspectRatio="xMidYMid meet">
<metadata>
Created by potrace 1.16, written by Peter Selinger 2001-2019
</metadata>
<g transform="translate(0.000000,192.000000) scale(0.100000,-0.100000)"
fill="#000000" stroke="none">
811 c445 -92 729 -532 635 -987 -62 -301 -295 -546 -601 -630 -91 -26 -329
-26 -420 0 -291 80 -516 305 -596 596 -26 91 -26 329 0 420 120 433 542 692
982 601z"/>
<path d="M652 1324 c-20 -14 -22 -24 -22 -98 0 -123 -21 -116 327 -116 344 0
323 -8 323 118 0 118 17 112 -325 112 -238 0 -284 -2 -303 -16z"/>
<path d="M642 1058 c-19 -19 -16 -173 4 -192 13 -13 46 -16 209 -16 230 0 225
-3 225 116 0 106 4 104 -231 104 -138 0 -198 -3 -207 -12z"/>
<path d="M646 794 c-20 -19 -23 -173 -4 -192 16 -16 180 -16 196 0 16 16 16
180 0 196 -19 19 -173 16 -192 -4z"/>
</g>
</svg>
