<?xml version="1.0" standalone="no"?>
<!DOCTYPE svg PUBLIC "-//W3C//DTD SVG 20010904//EN"
 "http://www.w3.org/TR/2001/REC-SVG-20010904/DTD/svg10.dtd">
<svg version="1.0" xmlns="http://www.w3.org/2000/svg"
 width="192.000000pt" height="192.000000pt" viewBox="0 0 192.000000 192.000000"
 preserveAspectRatio="xMidYMid meet">
<metadata>
Created by potrace 1.16, written by Peter Selinger 2001-2019
</metadata>
<g transform="translate(0.000000,192.000000) scale(0.100000,-0.100000)"
fill="#000000" stroke="none">
811 c445 -92 729 -532 635 -987 -62 -301 -295 -546 -601 -630 -91 -26 -329
-26 -420 0 -291 80 -516 305 -596 596 -26 91 -26 329 0 420 120 433 542 692
982 601z"/>
<path d="M912 1231 c-22 -17 -48 -44 -58 -60 -19 -33 -29 -38 -39 -21 -3 6
-26 10 -49 10 -72 0 -116 -57 -103 -135 5 -30 2 -35 -24 -46 -17 -6 -42 -28
-57 -47 -23 -30 -27 -46 -27 -97 0 -51 4 -67 27 -97 51 -67 65 -70 378 -66
311 3 298 0 364 81 60 75 40 209 -40 260 -28 18 -34 28 -34 57 -1 50 -31 110
-74 148 -64 56 -71 47 -74 -105 l-3 -132 37 -3 c21 -2 39 -9 42 -16 6 -18
-110 -132 -134 -132 -11 0 -46 27 -78 59 -64 65 -69 91 -16 91 l30 0 0 140 c0
158 -1 159 -68 111z"/>
</g>
</svg>
