<?xml version="1.0" standalone="no"?>
<!DOCTYPE svg PUBLIC "-//W3C//DTD SVG 20010904//EN"
 "http://www.w3.org/TR/2001/REC-SVG-20010904/DTD/svg10.dtd">
<svg version="1.0" xmlns="http://www.w3.org/2000/svg"
 width="192.000000pt" height="192.000000pt" viewBox="0 0 192.000000 192.000000"
 preserveAspectRatio="xMidYMid meet">
<metadata>
Created by potrace 1.16, written by Peter Selinger 2001-2019
</metadata>
<g transform="translate(0.000000,192.000000) scale(0.100000,-0.100000)"
fill="#000000" stroke="none">
811 c445 -92 729 -532 635 -987 -62 -301 -295 -546 -601 -630 -91 -26 -329
-26 -420 0 -291 80 -516 305 -596 596 -26 91 -26 329 0 420 120 433 542 692
982 601z"/>
<path d="M544 1166 c-3 -8 -4 -25 -2 -38 2 -19 9 -23 38 -23 33 0 35 2 35 35
0 32 -3 35 -33 38 -21 2 -34 -2 -38 -12z"/>
<path d="M667 1097 c-15 -11 -17 -29 -15 -152 l3 -140 35 0 35 0 3 53 c3 51 4
52 35 52 45 0 59 12 55 46 -3 26 -7 29 -45 32 -34 3 -43 7 -43 22 0 16 9 19
58 22 52 3 57 5 60 27 3 15 -3 30 -14 38 -23 17 -144 17 -167 0z"/>
<path d="M877 1097 c-15 -11 -17 -29 -15 -152 l3 -140 89 -3 c65 -2 92 1 98
10 23 37 -8 68 -68 68 l-44 0 0 109 c0 90 -3 110 -16 115 -22 8 -28 8 -47 -7z"/>
<path d="M1087 1097 c-15 -11 -17 -29 -15 -152 l3 -140 35 0 35 0 3 144 c2
109 -1 146 -10 153 -18 11 -32 10 -51 -5z"/>
<path d="M1186 1097 c-18 -13 -17 -17 16 -68 19 -30 37 -59 41 -65 3 -6 -11
-39 -32 -74 -22 -35 -37 -70 -34 -77 3 -7 20 -13 39 -13 28 0 37 6 56 39 l22
39 24 -39 c19 -33 28 -39 56 -39 20 0 36 6 39 14 3 7 -12 42 -33 76 -22 35
-36 68 -33 74 4 6 22 35 41 65 33 51 34 55 16 68 -10 7 -24 13 -31 13 -15 0
-51 -35 -69 -65 -10 -18 -12 -18 -28 12 -15 30 -43 53 -63 53 -5 0 -17 -6 -27
-13z"/>
<path d="M500 1055 c-18 -21 -4 -65 20 -65 17 0 20 -9 22 -92 l3 -93 35 0 35
0 3 119 c2 78 -1 123 -9 132 -16 19 -93 18 -109 -1z"/>
</g>
</svg>
