<?xml version="1.0" standalone="no"?>
<!DOCTYPE svg PUBLIC "-//W3C//DTD SVG 20010904//EN"
 "http://www.w3.org/TR/2001/REC-SVG-20010904/DTD/svg10.dtd">
<svg version="1.0" xmlns="http://www.w3.org/2000/svg"
 width="192.000000pt" height="192.000000pt" viewBox="0 0 192.000000 192.000000"
 preserveAspectRatio="xMidYMid meet">
<metadata>
Created by potrace 1.16, written by Peter Selinger 2001-2019
</metadata>
<g transform="translate(0.000000,192.000000) scale(0.100000,-0.100000)"
fill="#000000" stroke="none">
811 c445 -92 729 -532 635 -987 -62 -301 -295 -546 -601 -630 -91 -26 -329
-26 -420 0 -291 80 -516 305 -596 596 -26 91 -26 329 0 420 120 433 542 692
982 601z"/>
<path d="M874 1366 c-126 -29 -219 -97 -270 -198 -32 -64 -43 -185 -25 -280
16 -81 57 -173 86 -192 27 -18 455 -146 487 -146 27 0 93 33 126 64 57 51 62
78 62 307 l0 211 -31 59 c-80 150 -248 217 -435 175z m344 -368 l3 -97 -27 -7
c-85 -22 -224 24 -285 93 -33 38 -37 68 -12 95 15 17 31 18 167 16 l151 -3 3
-97z"/>
</g>
</svg>
