<?xml version="1.0" standalone="no"?>
<!DOCTYPE svg PUBLIC "-//W3C//DTD SVG 20010904//EN"
 "http://www.w3.org/TR/2001/REC-SVG-20010904/DTD/svg10.dtd">
<svg version="1.0" xmlns="http://www.w3.org/2000/svg"
 width="192.000000pt" height="192.000000pt" viewBox="0 0 192.000000 192.000000"
 preserveAspectRatio="xMidYMid meet">
<metadata>
Created by potrace 1.16, written by Peter Selinger 2001-2019
</metadata>
<g transform="translate(0.000000,192.000000) scale(0.100000,-0.100000)"
fill="#000000" stroke="none">
811 c445 -92 729 -532 635 -987 -62 -301 -295 -546 -601 -630 -91 -26 -329
-26 -420 0 -291 80 -516 305 -596 596 -26 91 -26 329 0 420 120 433 542 692
982 601z"/>
<path d="M584 1175 c-11 -27 4 -47 33 -43 22 2 29 9 31 31 3 24 0 27 -28 27
-18 0 -33 -6 -36 -15z"/>
<path d="M718 1175 c-16 -9 -28 -20 -28 -25 0 -5 -11 -21 -25 -36 -14 -15 -25
-22 -25 -15 0 6 -15 11 -34 11 -33 0 -35 -2 -45 -50 -6 -27 -14 -68 -17 -90
l-7 -40 35 0 35 0 14 75 c11 58 17 73 27 66 12 -7 11 -21 -2 -86 -22 -106 -22
-107 16 -103 28 3 33 8 39 38 31 155 29 150 55 150 17 0 24 5 24 20 0 13 -7
20 -20 20 -11 0 -20 4 -20 9 0 16 27 31 51 29 18 -2 24 2 24 17 0 16 -7 21
-35 22 -19 2 -47 -4 -62 -12z"/>
<path d="M1312 1178 c-5 -7 -12 -24 -14 -38 -2 -19 -10 -26 -33 -28 -36 -4
-62 -22 -86 -59 l-19 -28 0 26 c0 39 -29 59 -84 59 -41 0 -53 -5 -80 -32 l-32
-33 -15 30 c-13 27 -19 30 -67 33 -49 3 -56 0 -87 -31 -42 -42 -55 -99 -30
-127 37 -41 115 -32 158 19 l24 28 10 -28 c23 -60 116 -59 167 2 l26 31 0 -26
c0 -26 23 -56 43 -56 7 0 24 7 40 14 15 8 27 11 27 5 0 -5 15 -9 34 -9 l33 0
25 125 c14 69 23 127 20 130 -10 10 -50 5 -60 -7z"/>
<path d="M1004 861 c17 -19 16 -20 -23 -41 -67 -34 -118 -36 -176 -6 -27 14
-51 23 -53 21 -9 -9 30 -56 61 -75 47 -29 137 -27 204 4 l51 24 7 -21 6 -22 9
21 c4 12 12 42 15 68 l7 46 -62 0 c-62 0 -63 0 -46 -19z"/>
</g>
</svg>
