<?xml version="1.0" standalone="no"?>
<!DOCTYPE svg PUBLIC "-//W3C//DTD SVG 20010904//EN"
 "http://www.w3.org/TR/2001/REC-SVG-20010904/DTD/svg10.dtd">
<svg version="1.0" xmlns="http://www.w3.org/2000/svg"
 width="192.000000pt" height="192.000000pt" viewBox="0 0 192.000000 192.000000"
 preserveAspectRatio="xMidYMid meet">
<metadata>
Created by potrace 1.16, written by Peter Selinger 2001-2019
</metadata>
<g transform="translate(0.000000,192.000000) scale(0.100000,-0.100000)"
fill="#000000" stroke="none">
811 c445 -92 729 -532 635 -987 -62 -301 -295 -546 -601 -630 -91 -26 -329
-26 -420 0 -291 80 -516 305 -596 596 -26 91 -26 329 0 420 120 433 542 692
982 601z"/>
<path d="M462 968 l3 -133 38 -3 37 -3 0 135 0 136 -40 0 -41 0 3 -132z"/>
<path d="M587 1094 c-10 -10 -8 -236 2 -252 5 -8 22 -12 42 -10 32 3 34 5 37
46 3 42 3 42 43 42 38 0 39 1 39 35 0 34 -1 35 -40 35 -33 0 -40 3 -40 19 0
17 8 20 48 23 45 3 47 4 47 33 l0 30 -85 3 c-47 1 -89 0 -93 -4z"/>
<path d="M790 1065 c0 -32 2 -35 30 -35 l29 0 3 -97 3 -98 38 -3 37 -3 0 100
0 100 33 3 c28 3 32 6 32 33 l0 30 -102 3 -103 3 0 -36z"/>
<path d="M1020 1065 c0 -32 2 -35 30 -35 l29 0 3 -97 3 -98 38 -3 37 -3 0 100
0 101 30 0 c23 0 31 5 36 24 3 14 3 30 -1 35 -4 7 -47 11 -106 11 l-99 0 0
-35z"/>
<path d="M1250 1065 c0 -32 2 -35 30 -35 l30 0 0 -101 0 -100 38 3 37 3 3 98
3 97 29 0 c28 0 30 3 30 35 l0 35 -100 0 -100 0 0 -35z"/>
</g>
</svg>
