<?xml version="1.0" standalone="no"?>
<!DOCTYPE svg PUBLIC "-//W3C//DTD SVG 20010904//EN"
 "http://www.w3.org/TR/2001/REC-SVG-20010904/DTD/svg10.dtd">
<svg version="1.0" xmlns="http://www.w3.org/2000/svg"
 width="192.000000pt" height="192.000000pt" viewBox="0 0 192.000000 192.000000"
 preserveAspectRatio="xMidYMid meet">
<metadata>
Created by potrace 1.16, written by Peter Selinger 2001-2019
</metadata>
<g transform="translate(0.000000,192.000000) scale(0.100000,-0.100000)"
fill="#000000" stroke="none">
811 c445 -92 729 -532 635 -987 -62 -301 -295 -546 -601 -630 -91 -26 -329
-26 -420 0 -291 80 -516 305 -596 596 -26 91 -26 329 0 420 120 433 542 692
982 601z"/>
<path d="M712 1329 c-45 -13 -108 -79 -121 -126 -6 -21 -11 -130 -11 -244 0
-198 1 -207 25 -255 16 -32 39 -59 67 -77 l42 -27 241 0 241 0 42 27 c29 19
51 45 68 80 25 51 25 53 22 275 -3 215 -4 224 -27 261 -13 21 -42 50 -64 65
l-40 27 -226 2 c-125 1 -241 -3 -259 -8z m491 -117 c25 -26 27 -35 27 -110 l0
-82 -275 0 -275 0 0 82 c0 75 2 84 27 110 l27 28 221 0 221 0 27 -28z m-243
-407 l0 -115 -111 0 c-109 0 -111 0 -140 29 -28 28 -29 34 -29 115 l0 86 140
0 140 0 0 -115z m270 29 c0 -81 -1 -87 -29 -115 -26 -26 -36 -29 -90 -29 l-61
0 0 115 0 115 90 0 90 0 0 -86z"/>
</g>
</svg>
