<?xml version="1.0" standalone="no"?>
<!DOCTYPE svg PUBLIC "-//W3C//DTD SVG 20010904//EN"
 "http://www.w3.org/TR/2001/REC-SVG-20010904/DTD/svg10.dtd">
<svg version="1.0" xmlns="http://www.w3.org/2000/svg"
 width="192.000000pt" height="192.000000pt" viewBox="0 0 192.000000 192.000000"
 preserveAspectRatio="xMidYMid meet">
<metadata>
Created by potrace 1.16, written by Peter Selinger 2001-2019
</metadata>
<g transform="translate(0.000000,192.000000) scale(0.100000,-0.100000)"
fill="#000000" stroke="none">
811 c445 -92 729 -532 635 -987 -62 -301 -295 -546 -601 -630 -91 -26 -329
-26 -420 0 -291 80 -516 305 -596 596 -26 91 -26 329 0 420 120 433 542 692
982 601z"/>
<path d="M863 1365 c-125 -27 -238 -117 -291 -232 -35 -77 -43 -206 -17 -284
39 -117 116 -202 231 -256 53 -25 69 -28 169 -28 97 0 116 3 165 26 115 55
196 146 231 261 71 232 -81 472 -327 517 -70 13 -82 13 -161 -4z m-17 -153
c51 -34 41 -155 -14 -169 -39 -9 -67 27 -67 86 0 68 41 110 81 83z m274 -12
c15 -15 20 -33 20 -70 0 -55 -23 -90 -60 -90 -46 0 -70 103 -36 155 20 30 49
32 76 5z m-373 -279 c35 -55 99 -98 169 -113 88 -19 193 33 250 124 25 40 57
50 68 22 9 -22 -39 -109 -85 -155 -140 -140 -358 -99 -455 84 -29 57 -28 87 4
87 12 0 30 -18 49 -49z"/>
</g>
</svg>
