<?xml version="1.0" standalone="no"?>
<!DOCTYPE svg PUBLIC "-//W3C//DTD SVG 20010904//EN"
 "http://www.w3.org/TR/2001/REC-SVG-20010904/DTD/svg10.dtd">
<svg version="1.0" xmlns="http://www.w3.org/2000/svg"
 width="192.000000pt" height="192.000000pt" viewBox="0 0 192.000000 192.000000"
 preserveAspectRatio="xMidYMid meet">
<metadata>
Created by potrace 1.16, written by Peter Selinger 2001-2019
</metadata>
<g transform="translate(0.000000,192.000000) scale(0.100000,-0.100000)"
fill="#000000" stroke="none">
811 c445 -92 729 -532 635 -987 -62 -301 -295 -546 -601 -630 -91 -26 -329
-26 -420 0 -291 80 -516 305 -596 596 -26 91 -26 329 0 420 120 433 542 692
982 601z"/>
<path d="M689 1277 c-129 -48 -194 -195 -139 -315 19 -42 197 -234 273 -295
51 -39 57 -30 57 94 0 87 2 97 23 117 29 28 67 28 101 1 25 -20 26 -25 26
-117 0 -125 6 -135 57 -95 76 61 254 253 273 295 48 105 4 235 -99 296 -38 22
-58 27 -111 27 -70 -1 -106 -15 -163 -65 l-34 -30 -19 21 c-57 63 -172 93
-245 66z m31 -73 c0 -3 -14 -22 -31 -44 -57 -71 -50 -153 23 -235 32 -36 38
-49 29 -58 -10 -9 -21 -3 -48 28 -87 99 -95 213 -21 292 20 21 48 31 48 17z
m518 -17 c74 -79 66 -193 -21 -292 -27 -31 -38 -37 -48 -28 -9 9 -3 22 29 58
73 82 80 164 23 235 -17 22 -31 41 -31 44 0 14 28 4 48 -17z m-398 -23 c0 -4
-13 -22 -30 -41 -45 -51 -35 -127 22 -167 17 -12 20 -18 10 -28 -9 -9 -18 -6
-38 13 -66 62 -72 151 -14 209 19 19 50 28 50 14z m280 -14 c58 -58 52 -147
-14 -209 -20 -19 -29 -22 -38 -13 -10 10 -7 16 10 28 57 40 67 116 22 167 -16
19 -30 37 -30 41 0 14 31 5 50 -14z m-122 -56 c29 -20 30 -76 2 -104 -42 -42
-110 -10 -110 52 0 60 57 88 108 52z"/>
</g>
</svg>
