<?xml version="1.0" standalone="no"?>
<!DOCTYPE svg PUBLIC "-//W3C//DTD SVG 20010904//EN"
 "http://www.w3.org/TR/2001/REC-SVG-20010904/DTD/svg10.dtd">
<svg version="1.0" xmlns="http://www.w3.org/2000/svg"
 width="192.000000pt" height="192.000000pt" viewBox="0 0 192.000000 192.000000"
 preserveAspectRatio="xMidYMid meet">
<metadata>
Created by potrace 1.16, written by Peter Selinger 2001-2019
</metadata>
<g transform="translate(0.000000,192.000000) scale(0.100000,-0.100000)"
fill="#000000" stroke="none">
810 c245 -63 441 -223 549 -451 55 -116 75 -212 75 -354 0 -141 -20 -238 -75
-352 -86 -182 -215 -312 -396 -398 -116 -55 -212 -75 -354 -75 -142 0 -238 20
-354 75 -228 108 -388 304 -451 549 -28 110 -28 292 0 402 76 298 303 526 600
603 106 28 298 28 406 1z"/>
<path d="M1233 1123 c-10 -3 -13 -40 -13 -133 0 -122 1 -130 22 -144 35 -25
102 -20 135 8 24 21 28 32 28 76 0 45 -4 55 -29 77 -24 20 -37 24 -67 20 l-38
-5 -3 51 c-3 49 -11 60 -35 50z m107 -153 c24 -24 25 -48 4 -78 -11 -16 -24
-22 -42 -20 -25 3 -27 7 -30 52 -4 66 27 87 68 46z"/>
<path d="M511 1106 c-26 -31 14 -71 45 -45 8 7 14 22 12 33 -4 26 -40 33 -57
12z"/>
<path d="M607 1114 c-4 -4 -7 -69 -7 -145 0 -131 1 -138 21 -144 30 -10 37 2
41 65 l3 55 58 3 57 3 0 -59 c0 -62 12 -78 45 -66 13 5 15 28 13 148 l-3 141
-25 0 c-23 0 -25 -4 -28 -52 l-3 -53 -59 0 -59 0 -3 53 c-3 44 -6 52 -23 55
-12 2 -24 0 -28 -4z"/>
<path d="M925 1031 c-77 -33 -86 -159 -14 -196 53 -28 134 -9 134 30 0 17 -7
20 -54 20 -77 0 -81 23 -4 27 l58 3 3 35 c2 27 -3 41 -21 58 -26 25 -73 35
-102 23z m60 -61 c4 -6 -7 -10 -25 -10 -18 0 -29 4 -25 10 3 6 15 10 25 10 10
0 22 -4 25 -10z"/>
<path d="M1167 1034 c-3 -4 -25 -7 -49 -8 l-43 -1 0 -94 c0 -77 3 -96 17 -104
31 -20 48 8 48 79 0 63 0 63 32 72 38 10 48 36 20 51 -11 6 -22 8 -25 5z"/>
<path d="M506 1015 c-3 -9 -6 -52 -6 -95 0 -85 15 -114 48 -93 14 8 17 27 17
104 0 94 0 94 -26 97 -17 2 -29 -3 -33 -13z"/>
</g>
</svg>
