<?xml version="1.0" standalone="no"?>
<!DOCTYPE svg PUBLIC "-//W3C//DTD SVG 20010904//EN"
 "http://www.w3.org/TR/2001/REC-SVG-20010904/DTD/svg10.dtd">
<svg version="1.0" xmlns="http://www.w3.org/2000/svg"
 width="192.000000pt" height="192.000000pt" viewBox="0 0 192.000000 192.000000"
 preserveAspectRatio="xMidYMid meet">
<metadata>
Created by potrace 1.16, written by Peter Selinger 2001-2019
</metadata>
<g transform="translate(0.000000,192.000000) scale(0.100000,-0.100000)"
fill="#000000" stroke="none">
811 c445 -92 729 -532 635 -987 -62 -301 -295 -546 -601 -630 -91 -26 -329
-26 -420 0 -291 80 -516 305 -596 596 -26 91 -26 329 0 420 120 433 542 692
982 601z"/>
<path d="M710 1330 c-30 -30 -30 -72 1 -106 17 -18 19 -36 19 -150 0 -140 6
-159 50 -167 14 -2 -8 -5 -48 -6 -114 -2 -169 -37 -192 -122 -16 -57 2 -109
49 -152 23 -20 56 -39 76 -43 77 -14 163 35 187 106 l13 40 52 -35 c29 -19 55
-35 58 -35 4 0 35 21 70 46 l64 45 65 -46 64 -46 67 57 c40 34 65 62 63 72 -6
31 -38 24 -84 -17 -26 -22 -52 -38 -58 -34 -6 4 -35 24 -64 45 l-52 39 -64
-46 c-35 -25 -68 -45 -72 -45 -5 0 -33 16 -62 35 -39 27 -52 42 -52 60 0 24 2
25 69 25 76 0 81 4 81 68 l0 36 54 -53 c36 -36 60 -52 70 -48 29 11 17 42 -39
97 l-55 54 56 57 c38 39 55 63 51 73 -11 27 -36 18 -87 -30 l-50 -47 0 34 c0
43 -12 62 -36 57 -17 -3 -19 -15 -22 -126 l-3 -122 -47 2 -47 1 43 4 42 4 0
104 c0 57 -3 110 -6 119 -5 12 -21 16 -65 16 l-59 0 0 -90 c0 -53 -4 -90 -10
-90 -6 0 -10 45 -10 116 0 104 2 118 20 132 11 10 23 31 26 49 13 65 -78 111
-126 63z m68 -53 c2 -12 -3 -17 -17 -17 -12 0 -21 6 -21 13 0 31 32 34 38 4z
m102 -242 c0 -37 -4 -65 -10 -65 -6 0 -10 28 -10 65 0 37 4 65 10 65 6 0 10
-28 10 -65z m-72 -211 c2 -17 -12 -30 -67 -63 -39 -23 -71 -49 -71 -57 0 -28
32 -28 82 0 40 23 48 24 48 11 0 -9 -13 -30 -29 -46 -43 -43 -101 -41 -147 5
-38 38 -43 70 -18 117 21 41 66 59 139 56 52 -2 60 -5 63 -23z"/>
</g>
</svg>
