<?xml version="1.0" standalone="no"?>
<!DOCTYPE svg PUBLIC "-//W3C//DTD SVG 20010904//EN"
 "http://www.w3.org/TR/2001/REC-SVG-20010904/DTD/svg10.dtd">
<svg version="1.0" xmlns="http://www.w3.org/2000/svg"
 width="192.000000pt" height="192.000000pt" viewBox="0 0 192.000000 192.000000"
 preserveAspectRatio="xMidYMid meet">
<metadata>
Created by potrace 1.16, written by Peter Selinger 2001-2019
</metadata>
<g transform="translate(0.000000,192.000000) scale(0.100000,-0.100000)"
fill="#000000" stroke="none">
811 c445 -92 729 -532 635 -987 -62 -301 -295 -546 -601 -630 -91 -26 -329
-26 -420 0 -291 80 -516 305 -596 596 -26 91 -26 329 0 420 120 433 542 692
982 601z"/>
<path d="M547 1123 c-4 -3 -7 -78 -7 -165 l0 -158 34 0 c22 0 36 6 40 16 12
31 7 289 -6 302 -13 13 -50 16 -61 5z"/>
<path d="M672 1122 c-9 -6 -12 -46 -10 -163 l3 -154 35 0 35 0 3 58 c3 53 5
57 27 57 24 0 25 -3 25 -61 l0 -60 38 3 37 3 3 77 c3 80 -8 118 -34 118 -11 0
-9 11 12 51 30 60 26 79 -15 79 -34 0 -50 -19 -72 -84 l-14 -40 -5 60 c-5 54
-7 59 -30 62 -14 1 -31 -2 -38 -6z"/>
<path d="M932 1122 c-9 -7 -12 -46 -10 -163 l3 -154 98 -3 c106 -3 116 2 103
53 -6 23 -11 25 -66 25 -53 0 -60 2 -60 20 0 17 7 20 39 20 44 0 64 18 59 52
-3 20 -10 23 -50 26 -43 3 -48 6 -48 27 0 22 4 24 63 27 56 3 62 5 65 26 6 42
-14 52 -102 52 -44 0 -87 -4 -94 -8z"/>
<path d="M1185 1114 c-13 -13 -15 -39 -13 -162 l3 -147 35 0 35 0 3 58 c3 53
5 57 27 57 22 0 24 -4 27 -57 l3 -58 35 0 35 0 3 147 c3 179 4 178 -103 178
-54 0 -78 -4 -90 -16z m115 -89 c0 -20 -5 -25 -25 -25 -20 0 -25 5 -25 25 0
20 5 25 25 25 20 0 25 -5 25 -25z"/>
</g>
</svg>
