<?xml version="1.0" standalone="no"?>
<!DOCTYPE svg PUBLIC "-//W3C//DTD SVG 20010904//EN"
 "http://www.w3.org/TR/2001/REC-SVG-20010904/DTD/svg10.dtd">
<svg version="1.0" xmlns="http://www.w3.org/2000/svg"
 width="192.000000pt" height="192.000000pt" viewBox="0 0 192.000000 192.000000"
 preserveAspectRatio="xMidYMid meet">
<metadata>
Created by potrace 1.16, written by Peter Selinger 2001-2019
</metadata>
<g transform="translate(0.000000,192.000000) scale(0.100000,-0.100000)"
fill="#000000" stroke="none">
811 c445 -92 729 -532 635 -987 -62 -301 -295 -546 -601 -630 -91 -26 -329
-26 -420 0 -291 80 -516 305 -596 596 -26 91 -26 329 0 420 120 433 542 692
982 601z"/>
<path d="M1042 1383 c-45 -22 -89 -75 -102 -124 -15 -53 -4 -65 42 -50 47 16
96 69 112 122 21 70 9 82 -52 52z"/>
<path d="M724 1171 c-49 -23 -107 -88 -122 -140 -17 -55 -15 -168 4 -232 38
-128 140 -269 196 -269 12 0 50 10 85 21 l63 22 63 -22 c35 -11 72 -21 83 -21
46 0 123 83 166 179 l20 44 -41 36 c-89 78 -95 195 -17 288 29 34 27 47 -8 73
-59 43 -128 50 -216 19 l-60 -21 -60 21 c-73 26 -103 26 -156 2z"/>
</g>
</svg>
