<?xml version="1.0" standalone="no"?>
<!DOCTYPE svg PUBLIC "-//W3C//DTD SVG 20010904//EN"
 "http://www.w3.org/TR/2001/REC-SVG-20010904/DTD/svg10.dtd">
<svg version="1.0" xmlns="http://www.w3.org/2000/svg"
 width="192.000000pt" height="192.000000pt" viewBox="0 0 192.000000 192.000000"
 preserveAspectRatio="xMidYMid meet">
<metadata>
Created by potrace 1.16, written by Peter Selinger 2001-2019
</metadata>
<g transform="translate(0.000000,192.000000) scale(0.100000,-0.100000)"
fill="#000000" stroke="none">
811 c445 -92 729 -532 635 -987 -62 -301 -295 -546 -601 -630 -91 -26 -329
-26 -420 0 -291 80 -516 305 -596 596 -26 91 -26 329 0 420 120 433 542 692
982 601z"/>
<path d="M989 1369 c-91 -14 -186 -87 -232 -179 -19 -39 -22 -64 -25 -187 l-3
-143 -37 0 c-77 0 -142 -69 -142 -150 0 -117 115 -184 221 -129 44 22 78 80
79 132 l0 27 118 0 c78 0 136 5 170 15 73 22 150 88 187 160 27 52 30 68 29
144 0 95 -18 145 -74 213 -57 69 -186 112 -291 97z m134 -133 c41 -17 91 -74
107 -121 24 -72 -9 -171 -70 -212 -49 -34 -94 -43 -207 -43 l-103 0 0 115 c0
127 11 169 58 219 15 16 41 34 57 42 39 17 117 18 158 0z m-393 -509 c0 -24
-25 -48 -43 -41 -17 6 -23 35 -10 47 12 12 53 7 53 -6z"/>
</g>
</svg>
