<?xml version="1.0" standalone="no"?>
<!DOCTYPE svg PUBLIC "-//W3C//DTD SVG 20010904//EN"
 "http://www.w3.org/TR/2001/REC-SVG-20010904/DTD/svg10.dtd">
<svg version="1.0" xmlns="http://www.w3.org/2000/svg"
 width="192.000000pt" height="192.000000pt" viewBox="0 0 192.000000 192.000000"
 preserveAspectRatio="xMidYMid meet">
<metadata>
Created by potrace 1.16, written by Peter Selinger 2001-2019
</metadata>
<g transform="translate(0.000000,192.000000) scale(0.100000,-0.100000)"
fill="#000000" stroke="none">
811 c445 -92 729 -532 635 -987 -62 -301 -295 -546 -601 -630 -91 -26 -329
-26 -420 0 -291 80 -516 305 -596 596 -26 91 -26 329 0 420 120 433 542 692
982 601z"/>
<path d="M695 1321 c-48 -22 -79 -54 -100 -103 -12 -30 -15 -81 -15 -256 0
-206 1 -220 23 -262 13 -26 40 -57 65 -75 l44 -30 243 0 243 0 44 30 c25 18
52 49 66 75 21 42 22 56 22 262 0 233 -5 265 -53 317 -50 54 -83 61 -322 61
-193 0 -225 -3 -260 -19z m-15 -356 c0 -87 -3 -105 -15 -105 -12 0 -15 18 -15
105 0 87 3 105 15 105 12 0 15 -18 15 -105z m109 32 c13 -37 25 -66 27 -64 2
1 13 32 26 67 18 52 28 66 46 68 23 3 23 3 20 -100 -2 -84 -6 -103 -18 -103
-11 0 -16 15 -20 55 l-5 55 -18 -58 c-23 -72 -43 -73 -68 -2 l-17 50 -3 -50
c-3 -38 -8 -51 -21 -53 -16 -3 -18 7 -18 103 0 105 0 106 23 103 17 -2 27 -17
46 -71z m283 56 c14 -12 18 -31 18 -83 0 -90 -12 -104 -86 -105 l-59 0 -3 103
-3 102 57 0 c39 0 63 -5 76 -17z m176 5 c15 -15 16 -74 1 -84 -8 -4 -8 -9 0
-17 6 -6 11 -26 11 -44 0 -27 -5 -35 -27 -44 -15 -5 -45 -9 -67 -7 l-41 3 -3
89 c-2 49 -1 95 2 103 7 17 107 18 124 1z"/>
<path d="M987 1033 c-4 -3 -7 -35 -7 -70 l0 -63 35 0 35 0 0 64 c0 49 -4 65
-16 70 -20 8 -39 8 -47 -1z"/>
<path d="M1164 1025 c-10 -25 4 -45 31 -45 30 0 43 24 25 45 -16 19 -49 19
-56 0z"/>
<path d="M1160 925 c0 -24 3 -26 33 -23 24 2 32 8 32 23 0 15 -8 21 -32 23
-30 3 -33 1 -33 -23z"/>
</g>
</svg>
