<?xml version="1.0" standalone="no"?>
<!DOCTYPE svg PUBLIC "-//W3C//DTD SVG 20010904//EN"
 "http://www.w3.org/TR/2001/REC-SVG-20010904/DTD/svg10.dtd">
<svg version="1.0" xmlns="http://www.w3.org/2000/svg"
 width="192.000000pt" height="192.000000pt" viewBox="0 0 192.000000 192.000000"
 preserveAspectRatio="xMidYMid meet">
<metadata>
Created by potrace 1.16, written by Peter Selinger 2001-2019
</metadata>
<g transform="translate(0.000000,192.000000) scale(0.100000,-0.100000)"
fill="#000000" stroke="none">
811 c445 -92 729 -532 635 -987 -62 -301 -295 -546 -601 -630 -91 -26 -329
-26 -420 0 -291 80 -516 305 -596 596 -26 91 -26 329 0 420 120 433 542 692
982 601z"/>
<path d="M835 1357 c-152 -51 -256 -170 -284 -324 -31 -169 67 -358 223 -432
209 -98 451 -11 549 197 30 62 32 75 32 172 0 98 -2 109 -32 171 -40 80 -120
160 -200 197 -48 21 -75 27 -153 29 -59 2 -110 -2 -135 -10z m170 -152 c30
-30 32 -64 4 -99 -26 -33 -79 -36 -109 -6 -30 30 -27 83 6 109 35 28 69 26 99
-4z m0 -200 c24 -23 25 -30 25 -138 0 -100 -2 -116 -20 -135 -31 -33 -85 -33
-112 0 -15 17 -18 40 -18 136 0 105 2 118 22 139 29 31 72 30 103 -2z"/>
</g>
</svg>
