<?xml version="1.0" standalone="no"?>
<!DOCTYPE svg PUBLIC "-//W3C//DTD SVG 20010904//EN"
 "http://www.w3.org/TR/2001/REC-SVG-20010904/DTD/svg10.dtd">
<svg version="1.0" xmlns="http://www.w3.org/2000/svg"
 width="192.000000pt" height="192.000000pt" viewBox="0 0 192.000000 192.000000"
 preserveAspectRatio="xMidYMid meet">
<metadata>
Created by potrace 1.16, written by Peter Selinger 2001-2019
</metadata>
<g transform="translate(0.000000,192.000000) scale(0.100000,-0.100000)"
fill="#000000" stroke="none">
811 c445 -92 729 -532 635 -987 -62 -301 -295 -546 -601 -630 -91 -26 -329
-26 -420 0 -291 80 -516 305 -596 596 -26 91 -26 329 0 420 120 433 542 692
982 601z"/>
<path d="M1210 1356 c-28 -35 -76 -39 -214 -21 -150 21 -207 16 -257 -20 -18
-14 -39 -25 -46 -25 -8 0 -33 -20 -57 -44 -61 -60 -69 -102 -64 -347 l3 -196
30 -48 c20 -32 45 -56 74 -72 42 -22 53 -23 270 -23 215 0 229 1 271 23 24 12
58 39 74 60 l31 39 3 226 c4 249 -1 282 -48 332 -18 19 -30 43 -30 59 0 34
-10 71 -20 71 -4 0 -13 -7 -20 -14z m-242 -311 c47 -32 95 -32 158 0 52 27 93
31 125 15 17 -10 19 -22 19 -110 0 -55 -5 -111 -12 -125 -20 -45 -108 -76
-108 -38 0 9 -7 25 -17 35 -14 16 -34 18 -186 18 -145 0 -173 -3 -189 -17 -10
-9 -18 -24 -18 -35 0 -28 -37 -22 -71 11 -28 29 -29 31 -29 138 0 71 4 113 12
121 8 8 55 12 146 12 125 0 135 -1 170 -25z m142 -313 c0 -15 -44 -51 -82 -67
-50 -20 -114 -19 -165 4 -35 17 -63 45 -63 65 0 3 70 6 155 6 85 0 155 -4 155
-8z"/>
<path d="M727 972 c-34 -37 -11 -92 38 -92 50 0 73 60 37 93 -24 22 -55 21
-75 -1z"/>
<path d="M1112 983 c-25 -10 -34 -53 -17 -79 28 -43 105 -21 105 29 0 37 -50
66 -88 50z"/>
</g>
</svg>
