<?xml version="1.0" standalone="no"?>
<!DOCTYPE svg PUBLIC "-//W3C//DTD SVG 20010904//EN"
 "http://www.w3.org/TR/2001/REC-SVG-20010904/DTD/svg10.dtd">
<svg version="1.0" xmlns="http://www.w3.org/2000/svg"
 width="192.000000pt" height="192.000000pt" viewBox="0 0 192.000000 192.000000"
 preserveAspectRatio="xMidYMid meet">
<metadata>
Created by potrace 1.16, written by Peter Selinger 2001-2019
</metadata>
<g transform="translate(0.000000,192.000000) scale(0.100000,-0.100000)"
fill="#000000" stroke="none">
811 c445 -92 729 -532 635 -987 -62 -301 -295 -546 -601 -630 -91 -26 -329
-26 -420 0 -291 80 -516 305 -596 596 -26 91 -26 329 0 420 120 433 542 692
982 601z"/>
<path d="M705 1325 c-52 -18 -111 -82 -125 -134 -6 -23 -9 -80 -8 -129 l3 -87
378 -3 379 -2 -4 124 c-3 122 -4 125 -34 163 -61 75 -71 78 -324 80 -176 2
-234 0 -265 -12z m-55 -231 c0 -48 -3 -65 -12 -62 -13 5 -23 89 -14 114 13 35
26 9 26 -52z m64 41 c4 -14 10 -25 15 -25 4 0 13 11 19 25 20 43 32 28 32 -40
0 -37 -4 -65 -10 -65 -5 0 -10 17 -11 38 0 35 -1 36 -10 12 l-10 -25 -20 24
-19 23 0 -36 c0 -20 -4 -36 -10 -36 -6 0 -10 28 -10 65 0 49 3 65 14 65 8 0
17 -11 20 -25z m140 -7 l14 -33 12 33 c21 56 40 41 40 -33 0 -37 -4 -65 -10
-65 -5 0 -10 16 -10 36 l0 36 -19 -23 -20 -24 -10 25 c-9 24 -10 23 -10 -12
-1 -21 -5 -38 -11 -38 -6 0 -10 28 -10 65 0 71 12 83 34 33z m164 20 c14 -14
16 -86 3 -106 -5 -8 -21 -12 -37 -10 -27 3 -29 6 -32 52 -2 27 -1 55 2 62 7
17 48 18 64 2z"/>
<path d="M977 1134 c-4 -4 -7 -25 -7 -46 0 -32 3 -39 18 -36 13 2 17 13 17 42
0 37 -13 55 -28 40z"/>
<path d="M577 953 c-11 -11 -8 -175 4 -218 15 -54 82 -120 138 -135 29 -7 116
-10 260 -8 243 3 254 6 315 81 30 38 31 41 34 163 l4 124 -375 0 c-205 0 -377
-3 -380 -7z m119 -64 c3 -6 1 -16 -5 -22 -8 -8 -11 -8 -11 1 0 7 -9 12 -20 12
-28 0 -25 -13 11 -39 41 -31 37 -65 -9 -69 -32 -3 -55 19 -37 36 4 4 10 1 12
-5 5 -14 43 -18 43 -5 0 4 -14 19 -31 33 -40 33 -34 69 11 69 16 0 32 -5 36
-11z m98 -5 c9 -23 0 -30 -18 -15 -23 19 -36 4 -36 -40 0 -40 14 -51 38 -27
15 15 26 4 19 -17 -8 -20 -63 -20 -71 1 -8 20 -8 78 0 98 8 21 60 21 68 0z
m94 4 c17 -17 15 -93 -2 -108 -8 -6 -25 -10 -38 -8 -20 3 -23 10 -26 52 -2 27
-1 55 2 62 7 17 48 18 64 2z m62 -43 c0 -42 3 -55 15 -55 12 0 15 13 15 56 0
40 4 55 13 52 16 -6 21 -81 7 -108 -14 -26 -56 -26 -70 -1 -16 31 -13 111 5
111 12 0 15 -13 15 -55z m150 45 c0 -5 -7 -10 -15 -10 -12 0 -15 -13 -15 -55
0 -30 -4 -55 -10 -55 -5 0 -10 25 -10 55 0 42 -3 55 -15 55 -8 0 -15 5 -15 10
0 6 18 10 40 10 22 0 40 -4 40 -10z m98 -17 c2 -13 -6 -36 -18 -53 -21 -30
-21 -30 -1 -30 11 0 23 -4 26 -10 4 -6 -10 -10 -34 -10 -23 0 -41 2 -41 5 0 3
11 23 25 45 14 22 25 44 25 50 0 14 -17 12 -23 -2 -2 -7 -8 -10 -12 -6 -4 4
-5 14 -1 23 9 25 50 15 54 -12z m68 7 c-16 -53 -18 -65 -7 -50 9 13 12 12 24
-5 11 -14 12 -23 3 -37 -12 -20 -26 -24 -26 -8 0 6 -9 10 -20 10 -24 0 -25 12
-4 67 16 42 42 62 30 23z"/>
<path d="M840 835 c0 -39 3 -46 18 -43 13 2 17 13 17 43 0 30 -4 41 -17 43
-15 3 -18 -4 -18 -43z"/>
</g>
</svg>
