<?xml version="1.0" standalone="no"?>
<!DOCTYPE svg PUBLIC "-//W3C//DTD SVG 20010904//EN"
 "http://www.w3.org/TR/2001/REC-SVG-20010904/DTD/svg10.dtd">
<svg version="1.0" xmlns="http://www.w3.org/2000/svg"
 width="192.000000pt" height="192.000000pt" viewBox="0 0 192.000000 192.000000"
 preserveAspectRatio="xMidYMid meet">
<metadata>
Created by potrace 1.16, written by Peter Selinger 2001-2019
</metadata>
<g transform="translate(0.000000,192.000000) scale(0.100000,-0.100000)"
fill="#000000" stroke="none">
811 c445 -92 729 -532 635 -987 -62 -301 -295 -546 -601 -630 -91 -26 -329
-26 -420 0 -291 80 -516 305 -596 596 -26 91 -26 329 0 420 120 433 542 692
982 601z"/>
<path d="M743 1188 c-154 -154 -193 -198 -193 -219 0 -34 16 -47 65 -51 l40
-3 3 -153 3 -153 27 -10 c38 -15 151 -7 163 12 5 7 9 58 9 112 0 120 11 137
91 137 86 0 89 -5 89 -123 0 -136 4 -142 103 -142 108 0 107 -2 107 176 l0
149 43 0 c49 0 67 13 67 49 0 19 -46 71 -193 218 -117 118 -200 193 -211 193
-12 0 -96 -75 -213 -192z m275 -54 c72 -81 -47 -196 -123 -119 -46 45 -27 125
35 148 26 10 64 -3 88 -29z"/>
</g>
</svg>
