<?xml version="1.0" standalone="no"?>
<!DOCTYPE svg PUBLIC "-//W3C//DTD SVG 20010904//EN"
 "http://www.w3.org/TR/2001/REC-SVG-20010904/DTD/svg10.dtd">
<svg version="1.0" xmlns="http://www.w3.org/2000/svg"
 width="192.000000pt" height="192.000000pt" viewBox="0 0 192.000000 192.000000"
 preserveAspectRatio="xMidYMid meet">
<metadata>
Created by potrace 1.16, written by Peter Selinger 2001-2019
</metadata>
<g transform="translate(0.000000,192.000000) scale(0.100000,-0.100000)"
fill="#000000" stroke="none">
811 c445 -92 729 -532 635 -987 -62 -301 -295 -546 -601 -630 -91 -26 -329
-26 -420 0 -291 80 -516 305 -596 596 -26 91 -26 329 0 420 120 433 542 692
982 601z"/>
<path d="M887 1370 c-157 -27 -291 -150 -331 -305 -26 -97 -18 -182 28 -287 9
-21 16 -61 16 -91 0 -29 5 -58 12 -65 7 -7 37 -12 67 -12 36 0 77 -9 120 -27
82 -33 196 -37 282 -10 185 56 313 262 281 450 -40 229 -252 384 -475 347z
m-161 -255 c7 -18 -13 -45 -33 -45 -17 0 -27 24 -19 45 7 20 45 19 52 0z m172
-71 c20 -14 24 -14 44 0 32 22 55 20 84 -9 23 -23 25 -31 22 -97 -3 -65 -5
-73 -23 -73 -17 0 -20 8 -23 50 -4 81 -9 95 -37 95 -32 0 -39 -14 -45 -85 -4
-52 -8 -60 -25 -60 -18 0 -21 8 -25 70 -5 70 -5 70 -35 70 -33 0 -42 -20 -44
-102 -1 -36 -4 -43 -21 -43 -19 0 -20 7 -20 96 l0 97 28 -6 c15 -2 36 -1 47 3
31 13 48 11 73 -6z m345 -24 c73 -81 -16 -198 -118 -156 -105 44 -58 208 55
192 22 -3 45 -17 63 -36z m-523 -60 c0 -74 -3 -92 -16 -97 -24 -9 -34 15 -34
89 0 79 6 98 31 98 17 0 19 -8 19 -90z"/>
<path d="M1123 984 c-15 -24 -15 -29 -2 -53 29 -51 99 -32 99 28 0 34 -17 51
-52 51 -19 0 -33 -8 -45 -26z"/>
</g>
</svg>
