<?xml version="1.0" standalone="no"?>
<!DOCTYPE svg PUBLIC "-//W3C//DTD SVG 20010904//EN"
 "http://www.w3.org/TR/2001/REC-SVG-20010904/DTD/svg10.dtd">
<svg version="1.0" xmlns="http://www.w3.org/2000/svg"
 width="192.000000pt" height="192.000000pt" viewBox="0 0 192.000000 192.000000"
 preserveAspectRatio="xMidYMid meet">
<metadata>
Created by potrace 1.16, written by Peter Selinger 2001-2019
</metadata>
<g transform="translate(0.000000,192.000000) scale(0.100000,-0.100000)"
fill="#000000" stroke="none">
811 c445 -92 729 -532 635 -987 -62 -301 -295 -546 -601 -630 -91 -26 -329
-26 -420 0 -291 80 -516 305 -596 596 -26 91 -26 329 0 420 120 433 542 692
982 601z"/>
<path d="M889 1360 c-90 -48 -89 -183 2 -232 92 -49 199 14 199 117 0 105
-106 165 -201 115z"/>
<path d="M916 1060 c-34 -11 -63 -36 -82 -72 -20 -39 -20 -315 0 -363 38 -90
171 -100 235 -19 19 25 21 39 21 200 l0 173 -31 35 c-17 20 -47 40 -67 46 -42
11 -37 11 -76 0z"/>
</g>
</svg>
