<?xml version="1.0" standalone="no"?>
<!DOCTYPE svg PUBLIC "-//W3C//DTD SVG 20010904//EN"
 "http://www.w3.org/TR/2001/REC-SVG-20010904/DTD/svg10.dtd">
<svg version="1.0" xmlns="http://www.w3.org/2000/svg"
 width="192.000000pt" height="192.000000pt" viewBox="0 0 192.000000 192.000000"
 preserveAspectRatio="xMidYMid meet">
<metadata>
Created by potrace 1.16, written by Peter Selinger 2001-2019
</metadata>
<g transform="translate(0.000000,192.000000) scale(0.100000,-0.100000)"
fill="#000000" stroke="none">
811 c445 -92 729 -532 635 -987 -62 -301 -295 -546 -601 -630 -91 -26 -329
-26 -420 0 -291 80 -516 305 -596 596 -26 91 -26 329 0 420 120 433 542 692
982 601z"/>
<path d="M923 1342 c-41 -51 -53 -76 -53 -109 0 -41 13 -56 164 -188 130 -114
136 -121 136 -157 0 -51 19 -49 63 5 77 94 67 118 -119 282 -132 117 -145 132
-140 156 3 16 0 32 -8 38 -10 8 -20 2 -43 -27z"/>
<path d="M796 1184 c-42 -55 -52 -87 -40 -122 5 -14 74 -85 154 -157 131 -119
145 -136 145 -165 0 -49 19 -47 59 6 42 55 52 87 40 122 -5 14 -74 85 -154
157 -131 119 -145 136 -145 165 0 49 -19 47 -59 -6z"/>
<path d="M676 1037 c-42 -51 -52 -88 -36 -127 7 -17 73 -83 150 -151 76 -66
141 -128 145 -136 3 -9 3 -24 0 -33 -3 -9 1 -22 8 -28 11 -9 20 -4 44 26 53
66 66 109 44 151 -6 10 -73 73 -150 142 -134 118 -141 125 -141 161 0 51 -19
49 -64 -5z"/>
</g>
</svg>
