<?xml version="1.0" standalone="no"?>
<!DOCTYPE svg PUBLIC "-//W3C//DTD SVG 20010904//EN"
 "http://www.w3.org/TR/2001/REC-SVG-20010904/DTD/svg10.dtd">
<svg version="1.0" xmlns="http://www.w3.org/2000/svg"
 width="192.000000pt" height="192.000000pt" viewBox="0 0 192.000000 192.000000"
 preserveAspectRatio="xMidYMid meet">
<metadata>
Created by potrace 1.16, written by Peter Selinger 2001-2019
</metadata>
<g transform="translate(0.000000,192.000000) scale(0.100000,-0.100000)"
fill="#000000" stroke="none">
811 c445 -92 729 -532 635 -987 -62 -301 -295 -546 -601 -630 -91 -26 -329
-26 -420 0 -291 80 -516 305 -596 596 -26 91 -26 329 0 420 120 433 542 692
982 601z"/>
<path d="M856 1369 c-200 -47 -343 -264 -309 -466 31 -179 165 -313 344 -343
217 -37 438 127 467 346 16 122 -22 249 -101 339 -92 105 -259 157 -401 124z
m207 -105 c52 -18 140 -91 163 -135 l15 -29 -286 0 c-157 0 -285 3 -285 6 0 3
13 24 29 48 33 47 91 91 148 112 52 18 160 17 216 -2z m-195 -226 c15 -15 16
-112 2 -139 -8 -14 -21 -19 -53 -19 -24 0 -48 5 -55 12 -7 7 -12 39 -12 73 0
34 5 66 12 73 16 16 90 16 106 0z m94 -30 l23 -43 3 43 c3 34 7 42 23 42 17 0
19 -8 19 -86 0 -83 -1 -85 -22 -82 -14 2 -31 18 -45 43 l-23 40 0 -42 c0 -36
-3 -43 -20 -43 -18 0 -20 7 -20 85 0 78 2 85 20 85 13 0 27 -14 42 -42z m198
27 c0 -10 -11 -15 -35 -15 -40 0 -50 -26 -13 -32 34 -5 37 -38 4 -38 -39 0
-33 -28 6 -32 22 -2 34 -9 36 -21 3 -16 -3 -18 -55 -15 l-58 3 -3 83 -3 82 61
0 c47 0 60 -3 60 -15z m63 -236 c-26 -44 -88 -98 -142 -123 -68 -31 -199 -30
-261 3 -53 27 -116 84 -136 124 l-15 27 286 0 286 0 -18 -31z"/>
<path d="M797 1014 c-4 -4 -7 -27 -7 -51 0 -39 2 -43 26 -43 24 0 25 2 22 47
-2 34 -8 49 -18 51 -9 1 -19 0 -23 -4z"/>
</g>
</svg>
