<?xml version="1.0" standalone="no"?>
<!DOCTYPE svg PUBLIC "-//W3C//DTD SVG 20010904//EN"
 "http://www.w3.org/TR/2001/REC-SVG-20010904/DTD/svg10.dtd">
<svg version="1.0" xmlns="http://www.w3.org/2000/svg"
 width="192.000000pt" height="192.000000pt" viewBox="0 0 192.000000 192.000000"
 preserveAspectRatio="xMidYMid meet">
<metadata>
Created by potrace 1.16, written by Peter Selinger 2001-2019
</metadata>
<g transform="translate(0.000000,192.000000) scale(0.100000,-0.100000)"
fill="#000000" stroke="none">
811 c445 -92 729 -532 635 -987 -62 -301 -295 -546 -601 -630 -91 -26 -329
-26 -420 0 -291 80 -516 305 -596 596 -26 91 -26 329 0 420 120 433 542 692
982 601z"/>
<path d="M749 1360 c-44 -13 -79 -41 -104 -85 -24 -41 -25 -47 -25 -249 0
-231 4 -251 63 -303 54 -48 97 -55 298 -51 l177 3 44 30 c25 18 52 49 66 75
21 41 22 57 22 237 0 206 -6 241 -53 292 -49 52 -87 61 -282 60 -99 0 -192 -4
-206 -9z m402 -139 c26 -27 29 -36 29 -96 0 -122 -21 -135 -225 -135 -80 0
-145 3 -145 7 0 4 14 21 31 39 49 51 25 61 -31 14 -71 -60 -75 -31 -5 40 37
38 53 60 45 65 -11 7 -26 -3 -87 -59 l-33 -30 0 67 c0 59 3 71 25 92 24 25 27
25 195 25 l172 0 29 -29z m-357 -307 c26 -10 21 -63 -6 -73 -42 -16 -72 15
-57 57 8 22 32 28 63 16z m376 -9 c17 -20 5 -61 -20 -68 -11 -3 -30 3 -42 13
-20 15 -21 21 -10 44 13 30 52 36 72 11z"/>
<path d="M728 629 c-24 -13 -23 -46 1 -59 12 -6 104 -10 230 -10 177 0 212 2
225 16 18 18 19 23 6 44 -8 12 -46 15 -227 17 -139 2 -224 -1 -235 -8z"/>
</g>
</svg>
