<?xml version="1.0" standalone="no"?>
<!DOCTYPE svg PUBLIC "-//W3C//DTD SVG 20010904//EN"
 "http://www.w3.org/TR/2001/REC-SVG-20010904/DTD/svg10.dtd">
<svg version="1.0" xmlns="http://www.w3.org/2000/svg"
 width="192.000000pt" height="192.000000pt" viewBox="0 0 192.000000 192.000000"
 preserveAspectRatio="xMidYMid meet">
<metadata>
Created by potrace 1.16, written by Peter Selinger 2001-2019
</metadata>
<g transform="translate(0.000000,192.000000) scale(0.100000,-0.100000)"
fill="#000000" stroke="none">
811 c445 -92 729 -532 635 -987 -62 -301 -295 -546 -601 -630 -91 -26 -329
-26 -420 0 -291 80 -516 305 -596 596 -26 91 -26 329 0 420 120 433 542 692
982 601z"/>
<path d="M720 1329 c-52 -16 -100 -56 -121 -103 -16 -36 -19 -68 -19 -264 0
-247 5 -271 70 -325 52 -44 88 -49 326 -45 215 3 221 4 256 28 20 13 48 42 63
65 l26 40 -3 247 -3 246 -31 39 c-61 75 -72 78 -314 80 -126 1 -230 -2 -250
-8z m486 -130 c3 -6 0 -18 -9 -26 -18 -18 -37 -9 -37 18 0 21 34 27 46 8z
m-62 -35 c9 -3 16 -12 16 -18 0 -18 -21 -35 -36 -29 -15 5 -19 35 -7 46 8 8 8
8 27 1z m-296 -67 c4 -20 -25 -34 -40 -19 -15 15 -1 44 19 40 10 -2 19 -11 21
-21z m65 11 c7 -21 -4 -38 -23 -38 -23 0 -32 13 -24 34 7 19 40 21 47 4z m65
-11 c4 -20 -25 -34 -40 -19 -15 15 -1 44 19 40 10 -2 19 -11 21 -21z m65 11
c7 -21 -4 -38 -23 -38 -10 0 -20 6 -23 13 -7 20 4 37 23 37 10 0 20 -6 23 -12z
m65 -16 c3 -16 -2 -22 -17 -22 -24 0 -35 15 -27 36 9 23 40 13 44 -14z m-62
-53 c3 -6 0 -18 -9 -26 -18 -18 -37 -9 -37 18 0 21 34 27 46 8z m64 -9 c0 -24
-26 -38 -42 -22 -16 16 -2 42 22 42 13 0 20 -7 20 -20z m-112 -44 c4 -21 -14
-37 -35 -29 -14 5 -18 35 -6 47 12 12 38 1 41 -18z m110 -19 c4 -20 -25 -34
-40 -19 -15 15 -1 44 19 40 10 -2 19 -11 21 -21z m-158 -32 c0 -18 -5 -25 -19
-25 -11 0 -23 5 -26 10 -11 18 3 40 25 40 15 0 20 -7 20 -25z m158 -38 c4 -20
-25 -34 -40 -19 -15 15 -1 44 19 40 10 -2 19 -11 21 -21z m-200 -8 c3 -17 -23
-33 -39 -23 -5 3 -9 14 -9 25 0 15 6 20 22 17 13 -2 24 -10 26 -19z m-183 -44
c0 -13 -8 -21 -22 -23 -17 -3 -23 2 -23 16 0 10 3 22 7 26 13 13 38 1 38 -19z
m62 14 c16 -16 5 -39 -17 -39 -25 0 -35 18 -20 35 15 18 22 19 37 4z m71 -17
c3 -16 -2 -22 -17 -22 -24 0 -35 15 -27 36 9 23 40 13 44 -14z m248 -21 c-4
-6 -16 -11 -27 -11 -21 0 -27 35 -6 43 16 6 41 -18 33 -32z m-248 -44 c4 -20
-25 -34 -40 -19 -15 15 -1 44 19 40 10 -2 19 -11 21 -21z m2 -67 c0 -23 -13
-32 -34 -24 -19 7 -21 25 -5 41 16 16 39 5 39 -17z"/>
</g>
</svg>
