<?xml version="1.0" standalone="no"?>
<!DOCTYPE svg PUBLIC "-//W3C//DTD SVG 20010904//EN"
 "http://www.w3.org/TR/2001/REC-SVG-20010904/DTD/svg10.dtd">
<svg version="1.0" xmlns="http://www.w3.org/2000/svg"
 width="192.000000pt" height="192.000000pt" viewBox="0 0 192.000000 192.000000"
 preserveAspectRatio="xMidYMid meet">
<metadata>
Created by potrace 1.16, written by Peter Selinger 2001-2019
</metadata>
<g transform="translate(0.000000,192.000000) scale(0.100000,-0.100000)"
fill="#000000" stroke="none">
811 c445 -92 729 -532 635 -987 -62 -301 -295 -546 -601 -630 -91 -26 -329
-26 -420 0 -291 80 -516 305 -596 596 -26 91 -26 329 0 420 120 433 542 692
982 601z"/>
<path d="M929 1318 c-9 -7 -42 -41 -73 -75 -49 -52 -57 -66 -52 -88 9 -34 45
-33 80 2 14 14 29 24 31 21 3 -3 4 -70 3 -149 l-3 -144 -66 95 c-52 76 -71 96
-93 98 -52 6 -56 -6 -56 -177 0 -166 4 -181 47 -181 32 0 43 34 43 132 l0 81
73 -104 c39 -57 80 -105 90 -107 44 -9 47 8 47 241 l0 221 28 -27 c30 -29 60
-35 80 -15 22 22 13 39 -60 114 -72 74 -91 85 -119 62z"/>
<path d="M570 1081 c-13 -26 -13 -316 0 -342 6 -11 21 -19 35 -19 14 0 29 8
35 19 5 11 10 86 10 171 0 85 -5 160 -10 171 -6 11 -21 19 -35 19 -14 0 -29
-8 -35 -19z"/>
<path d="M1076 1084 c-13 -13 -16 -44 -16 -178 0 -113 4 -166 12 -174 7 -7 42
-12 87 -12 143 0 216 65 216 190 0 83 -31 137 -97 169 -56 27 -178 30 -202 5z
m180 -90 c62 -41 49 -150 -22 -180 -20 -8 -48 -14 -63 -12 -26 3 -26 4 -29 88
-2 47 0 96 3 109 5 21 10 23 46 17 22 -4 51 -14 65 -22z"/>
</g>
</svg>
