<?xml version="1.0" standalone="no"?>
<!DOCTYPE svg PUBLIC "-//W3C//DTD SVG 20010904//EN"
 "http://www.w3.org/TR/2001/REC-SVG-20010904/DTD/svg10.dtd">
<svg version="1.0" xmlns="http://www.w3.org/2000/svg"
 width="192.000000pt" height="192.000000pt" viewBox="0 0 192.000000 192.000000"
 preserveAspectRatio="xMidYMid meet">
<metadata>
Created by potrace 1.16, written by Peter Selinger 2001-2019
</metadata>
<g transform="translate(0.000000,192.000000) scale(0.100000,-0.100000)"
fill="#000000" stroke="none">
811 c445 -92 729 -532 635 -987 -62 -301 -295 -546 -601 -630 -91 -26 -329
-26 -420 0 -291 80 -516 305 -596 596 -26 91 -26 329 0 420 120 433 542 692
982 601z"/>
<path d="M845 1336 c-82 -37 -128 -131 -105 -216 15 -57 73 -116 138 -140 28
-11 52 -19 52 -17 0 1 -8 19 -19 39 -33 65 1 124 66 116 28 -3 30 -8 18 -40
-5 -11 -2 -20 7 -23 22 -9 187 54 198 76 8 14 1 41 -26 111 -44 111 -50 120
-69 94 -14 -18 -17 -19 -66 -3 -61 20 -153 21 -194 3z"/>
<path d="M1111 1029 c-36 -14 -78 -47 -100 -78 l-21 -28 46 5 c37 4 49 1 69
-18 28 -26 32 -66 11 -95 -14 -19 -15 -19 -34 -1 -34 30 -42 12 -42 -99 0 -85
3 -104 16 -109 9 -3 63 -6 120 -6 84 0 104 3 104 14 0 8 -5 18 -10 21 -6 4 4
24 25 49 108 132 97 277 -27 342 -30 16 -121 18 -157 3z"/>
<path d="M611 958 c-5 -13 -23 -58 -40 -101 -32 -81 -33 -102 -1 -92 15 5 24
-4 44 -43 26 -52 91 -117 132 -132 34 -13 106 -13 141 1 101 38 141 166 86
279 l-26 55 -9 -40 c-10 -47 -39 -75 -79 -75 -27 0 -69 29 -69 48 0 5 12 14
26 21 36 16 21 31 -71 70 -90 37 -122 40 -134 9z"/>
</g>
</svg>
