<?xml version="1.0" standalone="no"?>
<!DOCTYPE svg PUBLIC "-//W3C//DTD SVG 20010904//EN"
 "http://www.w3.org/TR/2001/REC-SVG-20010904/DTD/svg10.dtd">
<svg version="1.0" xmlns="http://www.w3.org/2000/svg"
 width="192.000000pt" height="192.000000pt" viewBox="0 0 192.000000 192.000000"
 preserveAspectRatio="xMidYMid meet">
<metadata>
Created by potrace 1.16, written by Peter Selinger 2001-2019
</metadata>
<g transform="translate(0.000000,192.000000) scale(0.100000,-0.100000)"
fill="#000000" stroke="none">
811 c445 -92 729 -532 635 -987 -62 -301 -295 -546 -601 -630 -91 -26 -329
-26 -420 0 -291 80 -516 305 -596 596 -26 91 -26 329 0 420 120 433 542 692
982 601z"/>
<path d="M882 1369 c-79 -13 -160 -56 -218 -114 -204 -204 -146 -532 116 -658
199 -95 454 -3 546 198 137 299 -119 630 -444 574z m-22 -210 l0 -60 -52 3
-53 3 -3 58 -3 57 56 0 55 0 0 -61z m232 37 c46 -22 94 -70 121 -120 30 -57
29 -164 -1 -222 -27 -54 -92 -109 -150 -128 -77 -27 -82 -24 -82 39 l0 54 38
10 c59 16 95 60 99 123 6 81 -27 123 -119 152 -14 4 -18 17 -18 62 l0 57 39
-6 c21 -2 54 -12 73 -21z m-232 -346 l0 -140 -55 0 -55 0 0 140 0 140 55 0 55
0 0 -140z"/>
</g>
</svg>
