<?xml version="1.0" standalone="no"?>
<!DOCTYPE svg PUBLIC "-//W3C//DTD SVG 20010904//EN"
 "http://www.w3.org/TR/2001/REC-SVG-20010904/DTD/svg10.dtd">
<svg version="1.0" xmlns="http://www.w3.org/2000/svg"
 width="192.000000pt" height="192.000000pt" viewBox="0 0 192.000000 192.000000"
 preserveAspectRatio="xMidYMid meet">
<metadata>
Created by potrace 1.16, written by Peter Selinger 2001-2019
</metadata>
<g transform="translate(0.000000,192.000000) scale(0.100000,-0.100000)"
fill="#000000" stroke="none">
811 c445 -92 729 -532 635 -987 -62 -301 -295 -546 -601 -630 -91 -26 -329
-26 -420 0 -291 80 -516 305 -596 596 -26 91 -26 329 0 420 120 433 542 692
982 601z"/>
<path d="M695 1321 c-94 -44 -115 -95 -115 -286 l0 -147 33 7 c47 11 56 21 50
64 -4 32 -1 41 22 59 29 23 83 29 115 12 16 -8 19 -4 24 33 8 50 36 101 65
117 26 14 26 3 1 -35 -24 -36 -27 -110 -6 -159 14 -33 13 -35 -15 -60 -36 -32
-36 -43 -1 -92 16 -22 27 -44 25 -50 -2 -7 15 -38 37 -70 35 -49 41 -65 36
-93 l-5 -33 119 3 c113 4 120 5 161 34 23 17 53 50 66 74 22 42 23 53 23 263
0 233 -5 265 -53 317 -50 54 -83 61 -322 61 -193 0 -225 -3 -260 -19z m365
-197 c18 -53 8 -127 -22 -166 -19 -26 -23 -39 -17 -60 6 -22 1 -35 -22 -64
-16 -20 -29 -49 -29 -63 0 -14 -4 -33 -10 -41 -8 -12 -10 -12 -16 3 -4 10 -2
23 5 30 6 6 11 20 11 32 0 12 7 30 15 41 23 30 18 63 -14 95 l-29 29 24 6 c13
3 35 20 49 36 21 25 25 40 25 94 0 71 12 83 30 28z m-140 -266 c0 -12 -1 -19
-3 -17 -1 2 -9 12 -16 22 -12 14 -11 17 3 17 10 0 16 -8 16 -22z"/>
<path d="M800 833 c0 -17 -3 -43 -6 -59 -4 -21 1 -39 20 -66 13 -20 26 -54 28
-74 5 -56 28 -56 28 -1 0 35 -6 53 -27 78 -23 27 -28 43 -28 85 0 29 -3 56 -7
60 -5 4 -8 -6 -8 -23z"/>
<path d="M625 831 l-40 -6 0 -52 c1 -70 45 -138 90 -138 26 0 32 5 46 45 8 25
20 56 26 70 11 28 8 46 -15 73 -15 17 -36 19 -107 8z"/>
<path d="M851 774 c0 -11 3 -14 6 -6 3 7 2 16 -1 19 -3 4 -6 -2 -5 -13z"/>
<path d="M860 743 c0 -6 7 -16 16 -24 27 -22 46 -70 39 -97 -5 -22 -4 -24 9
-13 27 23 19 60 -24 103 -22 23 -40 37 -40 31z"/>
<path d="M767 713 c-18 -17 11 -123 33 -123 14 0 13 5 -10 51 -12 23 -18 48
-15 60 7 20 3 24 -8 12z"/>
</g>
</svg>
