<?xml version="1.0" standalone="no"?>
<!DOCTYPE svg PUBLIC "-//W3C//DTD SVG 20010904//EN"
 "http://www.w3.org/TR/2001/REC-SVG-20010904/DTD/svg10.dtd">
<svg version="1.0" xmlns="http://www.w3.org/2000/svg"
 width="192.000000pt" height="192.000000pt" viewBox="0 0 192.000000 192.000000"
 preserveAspectRatio="xMidYMid meet">
<metadata>
Created by potrace 1.16, written by Peter Selinger 2001-2019
</metadata>
<g transform="translate(0.000000,192.000000) scale(0.100000,-0.100000)"
fill="#000000" stroke="none">
811 c445 -92 729 -532 635 -987 -62 -301 -295 -546 -601 -630 -91 -26 -329
-26 -420 0 -291 80 -516 305 -596 596 -26 91 -26 329 0 420 120 433 542 692
982 601z"/>
<path d="M875 1368 c-48 -17 -93 -55 -122 -106 -23 -39 -28 -59 -28 -112 1
-82 18 -115 103 -202 l66 -67 -22 -24 c-66 -70 -13 -187 85 -187 67 0 124 73
108 138 -4 15 -56 78 -121 144 -118 121 -134 145 -134 206 0 139 197 195 271
76 21 -35 22 -75 4 -160 -8 -37 13 -59 49 -50 41 10 64 100 46 176 -32 134
-176 213 -305 168z m102 -592 c-8 -20 -36 -21 -43 -1 -4 8 0 22 7 31 11 13 14
13 27 0 8 -8 12 -22 9 -30z"/>
<path d="M887 1240 c-35 -28 -52 -81 -38 -123 7 -19 53 -74 117 -137 119 -119
134 -141 134 -203 0 -78 -68 -147 -145 -147 -43 0 -96 30 -122 69 -26 38 -30
95 -11 147 14 41 -2 67 -41 62 -36 -4 -56 -49 -55 -123 1 -127 106 -235 228
-235 92 0 191 71 220 157 34 100 12 173 -83 275 l-67 73 23 34 c13 19 23 45
23 58 0 32 -25 78 -52 97 -32 23 -100 20 -131 -4z m93 -80 c0 -19 -13 -40 -25
-40 -19 0 -30 41 -14 50 14 9 39 2 39 -10z"/>
</g>
</svg>
