<?xml version="1.0" standalone="no"?>
<!DOCTYPE svg PUBLIC "-//W3C//DTD SVG 20010904//EN"
 "http://www.w3.org/TR/2001/REC-SVG-20010904/DTD/svg10.dtd">
<svg version="1.0" xmlns="http://www.w3.org/2000/svg"
 width="192.000000pt" height="192.000000pt" viewBox="0 0 192.000000 192.000000"
 preserveAspectRatio="xMidYMid meet">
<metadata>
Created by potrace 1.16, written by Peter Selinger 2001-2019
</metadata>
<g transform="translate(0.000000,192.000000) scale(0.100000,-0.100000)"
fill="#000000" stroke="none">
811 c445 -92 729 -532 635 -987 -62 -301 -295 -546 -601 -630 -91 -26 -329
-26 -420 0 -291 80 -516 305 -596 596 -26 91 -26 329 0 420 120 433 542 692
982 601z"/>
<path d="M853 1364 c-86 -31 -183 -149 -183 -222 0 -16 -19 -42 -55 -76 -60
-58 -75 -88 -75 -147 0 -46 17 -84 54 -118 14 -14 26 -30 26 -37 0 -7 11 -26
25 -42 14 -17 25 -41 25 -54 0 -50 70 -85 119 -58 24 12 90 -6 98 -27 3 -8 20
-21 36 -28 36 -15 82 -3 97 26 13 23 76 42 101 29 50 -27 119 6 119 56 0 15
11 39 25 56 14 16 25 35 25 42 0 7 12 23 26 37 38 36 54 72 54 127 0 57 -36
116 -94 154 -26 17 -35 31 -39 59 -11 81 -68 160 -148 203 -65 36 -170 45
-236 20z m197 -61 c108 -44 167 -193 116 -291 -15 -29 -68 -72 -88 -72 -5 0
-8 49 -8 109 0 96 -2 111 -22 136 -26 33 -81 58 -111 50 -82 -23 -97 -52 -97
-190 0 -118 -5 -125 -61 -78 -78 66 -79 189 -2 274 76 84 169 105 273 62z
m-126 -162 c10 -16 -6 -42 -23 -39 -9 2 -17 13 -19 26 -3 16 2 22 17 22 11 0
22 -4 25 -9z m104 -13 c-4 -27 -33 -36 -42 -13 -8 22 1 35 25 35 15 0 20 -6
17 -22z"/>
</g>
</svg>
