<?xml version="1.0" standalone="no"?>
<!DOCTYPE svg PUBLIC "-//W3C//DTD SVG 20010904//EN"
 "http://www.w3.org/TR/2001/REC-SVG-20010904/DTD/svg10.dtd">
<svg version="1.0" xmlns="http://www.w3.org/2000/svg"
 width="192.000000pt" height="192.000000pt" viewBox="0 0 192.000000 192.000000"
 preserveAspectRatio="xMidYMid meet">
<metadata>
Created by potrace 1.16, written by Peter Selinger 2001-2019
</metadata>
<g transform="translate(0.000000,192.000000) scale(0.100000,-0.100000)"
fill="#000000" stroke="none">
811 c445 -92 729 -532 635 -987 -62 -301 -295 -546 -601 -630 -91 -26 -329
-26 -420 0 -291 80 -516 305 -596 596 -26 91 -26 329 0 420 120 433 542 692
982 601z"/>
<path d="M757 1209 c-50 -26 -89 -87 -95 -149 -4 -42 -8 -50 -34 -61 -57 -23
-97 -105 -84 -174 9 -48 68 -112 114 -125 51 -14 526 -13 577 1 52 15 110 74
124 127 24 89 -37 189 -131 212 -31 8 -53 21 -68 42 -25 33 -75 58 -118 58
-19 0 -38 10 -58 31 -16 17 -43 38 -61 45 -46 20 -121 17 -166 -7z"/>
</g>
</svg>
