<?xml version="1.0" standalone="no"?>
<!DOCTYPE svg PUBLIC "-//W3C//DTD SVG 20010904//EN"
 "http://www.w3.org/TR/2001/REC-SVG-20010904/DTD/svg10.dtd">
<svg version="1.0" xmlns="http://www.w3.org/2000/svg"
 width="192.000000pt" height="192.000000pt" viewBox="0 0 192.000000 192.000000"
 preserveAspectRatio="xMidYMid meet">
<metadata>
Created by potrace 1.16, written by Peter Selinger 2001-2019
</metadata>
<g transform="translate(0.000000,192.000000) scale(0.100000,-0.100000)"
fill="#000000" stroke="none">
811 c445 -92 729 -532 635 -987 -62 -301 -295 -546 -601 -630 -91 -26 -329
-26 -420 0 -291 80 -516 305 -596 596 -26 91 -26 329 0 420 120 433 542 692
982 601z"/>
<path d="M1024 1368 c-13 -45 -39 -52 -31 -8 7 30 5 32 -16 25 -12 -5 -38 -8
-59 -8 -28 1 -37 -4 -42 -20 -5 -20 -6 -19 -40 6 -42 32 -55 33 -106 7 -39
-20 -94 -86 -84 -102 9 -14 30 -9 52 15 11 12 37 31 56 41 l36 19 37 -25 c60
-39 72 -41 83 -13 11 30 36 24 44 -11 6 -20 11 -24 29 -18 39 12 61 23 88 45
25 20 27 20 67 4 75 -30 97 -1 32 40 -46 29 -63 31 -80 10 -17 -21 -30 -19
-30 5 0 32 -26 23 -36 -12z"/>
<path d="M1100 1277 c-14 -7 -29 -22 -34 -33 -20 -44 -174 -54 -197 -13 -12
24 -61 49 -93 49 -59 0 -88 -100 -42 -143 17 -16 25 -36 28 -74 3 -29 1 -53
-3 -53 -18 0 -8 -28 22 -66 l31 -39 -39 -7 c-57 -12 -112 -39 -107 -52 4 -10
18 -8 57 5 92 32 122 17 45 -22 -69 -35 -90 -51 -80 -61 6 -6 34 3 73 22 49
25 67 30 80 22 22 -14 108 13 116 35 7 19 -17 63 -34 63 -8 0 -13 8 -11 18 6
31 128 29 128 -3 0 -8 -6 -15 -12 -15 -19 -1 -49 -46 -42 -64 3 -9 14 -16 23
-16 9 0 27 -7 40 -17 19 -13 28 -14 42 -4 16 9 28 7 69 -14 38 -19 50 -22 50
-11 0 8 -20 24 -45 36 -59 29 -61 52 -4 39 23 -6 44 -8 46 -5 12 11 -11 26
-48 32 -38 6 -49 17 -30 29 19 11 56 98 45 102 -15 5 1 81 22 104 8 9 14 36
14 66 0 45 -4 54 -31 77 -35 29 -44 31 -79 13z m69 -41 c14 -17 11 -81 -4 -81
-6 0 -25 11 -43 25 -30 24 -31 27 -16 48 17 25 46 29 63 8z m-341 -8 c18 -18
14 -31 -20 -57 l-31 -25 -18 23 c-23 28 -23 35 -3 55 18 19 55 21 72 4z m230
-73 c12 -4 20 -11 17 -16 -11 -17 -50 -9 -63 12 -14 22 -17 22 46 4z m-130
-15 c-7 -11 -24 -20 -37 -20 -23 0 -24 1 -6 20 10 11 26 20 37 20 16 0 16 -3
6 -20z m-16 -110 c-3 -43 -10 -61 -30 -82 -30 -33 -42 -35 -42 -9 0 10 11 26
25 35 34 22 35 66 2 66 -13 0 -34 12 -48 26 l-24 25 60 -3 60 -3 -3 -55z m197
34 c-16 -17 -31 -24 -46 -21 -38 7 -30 -37 12 -70 33 -27 46 -53 25 -53 -5 0
-25 14 -45 31 -32 28 -35 36 -35 85 l0 54 57 0 56 0 -24 -26z m-234 -194 c-3
-5 -14 -10 -23 -10 -15 0 -15 2 -2 10 20 13 33 13 25 0z m215 -5 c0 -13 -4
-14 -20 -5 -11 6 -20 13 -20 15 0 3 9 5 20 5 11 0 20 -7 20 -15z"/>
<path d="M630 1235 c-8 -9 -11 -30 -7 -55 4 -32 1 -41 -16 -53 -16 -11 -18
-18 -11 -39 l9 -26 39 34 c36 31 38 36 27 60 -6 15 -9 41 -5 60 5 26 3 34 -9
34 -8 0 -20 -7 -27 -15z"/>
<path d="M1249 1248 c0 -2 -1 -23 -3 -48 -2 -25 -6 -52 -10 -61 -5 -11 6 -25
39 -48 l45 -32 0 29 c0 16 -7 35 -15 42 -9 7 -15 29 -15 54 0 39 -13 66 -32
66 -4 0 -8 -1 -9 -2z"/>
<path d="M622 1060 c-27 -12 -36 -32 -28 -65 l7 -26 44 37 c25 20 45 43 45 50
0 16 -33 17 -68 4z"/>
<path d="M1230 1053 c0 -10 15 -30 33 -44 56 -44 57 -44 57 -1 0 36 -3 41 -31
51 -45 15 -59 14 -59 -6z"/>
<path d="M620 958 c-42 -22 -45 -26 -48 -68 l-2 -45 29 32 c16 17 41 39 55 48
24 16 37 55 18 55 -4 0 -28 -10 -52 -22z"/>
<path d="M1230 971 c0 -6 25 -35 55 -66 40 -41 55 -52 55 -38 0 10 3 27 6 38
4 16 -3 25 -33 42 -50 27 -83 37 -83 24z"/>
<path d="M1288 802 c-3 -39 0 -65 10 -81 18 -30 27 -17 36 55 6 47 4 53 -18
67 l-24 16 -4 -57z"/>
<path d="M593 843 c-14 -5 -17 -95 -4 -128 7 -18 8 -18 23 5 12 18 15 40 11
78 -6 52 -7 55 -30 45z"/>
<path d="M883 788 c-13 -6 -23 -16 -23 -22 0 -22 18 -39 34 -33 11 5 16 1 16
-14 0 -23 27 -36 42 -21 9 9 15 8 26 0 11 -10 17 -7 32 11 13 18 19 21 25 11
6 -10 11 -9 22 5 19 26 16 53 -6 65 -25 13 -139 12 -168 -2z"/>
<path d="M617 703 c-9 -11 -13 -28 -10 -45 l5 -27 25 30 c36 42 17 82 -20 42z"/>
<path d="M715 710 c-11 -18 5 -69 25 -80 28 -15 29 -14 16 37 -12 46 -28 64
-41 43z"/>
<path d="M1254 705 c-3 -8 6 -28 20 -45 l25 -31 7 26 c10 40 -38 86 -52 50z"/>
<path d="M796 675 c-3 -8 3 -30 14 -47 17 -28 20 -29 26 -14 8 21 -6 68 -22
73 -6 2 -14 -3 -18 -12z"/>
<path d="M1160 674 c0 -16 23 -44 35 -44 18 0 18 5 5 31 -10 17 -40 27 -40 13z"/>
<path d="M1100 630 c0 -17 9 -39 20 -50 25 -25 45 -18 30 10 -5 10 -10 27 -10
38 0 16 -18 32 -36 32 -2 0 -4 -13 -4 -30z"/>
<path d="M1048 639 c-12 -6 -18 -22 -18 -44 0 -28 4 -35 20 -35 17 0 20 7 20
45 0 25 -1 45 -2 45 -2 0 -11 -5 -20 -11z"/>
<path d="M626 617 c-15 -11 -17 -17 -7 -35 15 -28 22 -28 50 2 36 38 0 65 -43
33z"/>
<path d="M961 621 c-9 -6 -11 -18 -7 -36 10 -38 40 -30 44 13 3 33 -9 41 -37
23z"/>
<path d="M1227 617 c-6 -15 31 -57 50 -57 10 0 28 48 20 56 -2 2 -17 7 -34 10
-22 4 -32 2 -36 -9z"/>
<path d="M870 602 c0 -23 19 -42 42 -42 21 0 21 1 8 34 -11 31 -50 36 -50 8z"/>
</g>
</svg>
