<?xml version="1.0" standalone="no"?>
<!DOCTYPE svg PUBLIC "-//W3C//DTD SVG 20010904//EN"
 "http://www.w3.org/TR/2001/REC-SVG-20010904/DTD/svg10.dtd">
<svg version="1.0" xmlns="http://www.w3.org/2000/svg"
 width="192.000000pt" height="192.000000pt" viewBox="0 0 192.000000 192.000000"
 preserveAspectRatio="xMidYMid meet">
<metadata>
Created by potrace 1.16, written by Peter Selinger 2001-2019
</metadata>
<g transform="translate(0.000000,192.000000) scale(0.100000,-0.100000)"
fill="#000000" stroke="none">
811 c445 -92 729 -532 635 -987 -62 -301 -295 -546 -601 -630 -91 -26 -329
-26 -420 0 -291 80 -516 305 -596 596 -26 91 -26 329 0 420 120 433 542 692
982 601z"/>
<path d="M900 1359 c-74 -31 -273 -155 -293 -183 -20 -28 -22 -45 -25 -186 -2
-85 -1 -169 3 -187 10 -53 47 -86 189 -167 180 -102 182 -102 362 0 142 81
179 114 189 167 4 18 5 102 3 187 -4 196 -1 190 -183 295 -141 81 -193 96
-245 74z m-166 -232 c25 -19 17 -52 -13 -52 -28 0 -47 25 -38 49 8 19 27 21
51 3z m491 -16 c0 -28 -25 -47 -49 -38 -21 8 -21 43 2 56 27 16 47 8 47 -18z
m-101 -47 c9 -8 16 -19 16 -23 0 -13 -148 -247 -165 -261 -12 -10 -21 -11 -33
-4 -17 10 -172 249 -172 265 0 4 7 15 16 23 23 23 315 23 338 0z m-144 -339
c20 -24 4 -65 -25 -65 -28 0 -41 30 -25 60 13 24 33 26 50 5z"/>
</g>
</svg>
