<?xml version="1.0" standalone="no"?>
<!DOCTYPE svg PUBLIC "-//W3C//DTD SVG 20010904//EN"
 "http://www.w3.org/TR/2001/REC-SVG-20010904/DTD/svg10.dtd">
<svg version="1.0" xmlns="http://www.w3.org/2000/svg"
 width="192.000000pt" height="192.000000pt" viewBox="0 0 192.000000 192.000000"
 preserveAspectRatio="xMidYMid meet">
<metadata>
Created by potrace 1.16, written by Peter Selinger 2001-2019
</metadata>
<g transform="translate(0.000000,192.000000) scale(0.100000,-0.100000)"
fill="#000000" stroke="none">
811 c445 -92 729 -532 635 -987 -62 -301 -295 -546 -601 -630 -91 -26 -329
-26 -420 0 -291 80 -516 305 -596 596 -26 91 -26 329 0 420 120 433 542 692
982 601z"/>
<path d="M570 1270 c-19 -19 -20 -33 -20 -302 0 -156 4 -288 8 -294 25 -39 90
-36 111 5 7 12 11 119 11 291 l0 271 -25 24 c-29 30 -58 32 -85 5z"/>
<path d="M786 1269 c-31 -24 -35 -68 -8 -92 16 -15 45 -17 199 -17 162 0 182
2 196 18 25 28 21 67 -9 91 -25 19 -40 21 -189 21 -149 0 -164 -2 -189 -21z"/>
<path d="M1273 1280 c-44 -18 -42 -103 2 -120 44 -17 95 17 95 63 0 20 -31 54
-55 60 -11 3 -30 2 -42 -3z"/>
<path d="M780 1010 c-23 -23 -26 -58 -6 -85 10 -14 31 -21 72 -25 56 -5 59 -6
64 -35 5 -29 7 -30 64 -33 63 -3 76 4 76 46 0 20 5 22 54 22 45 0 58 4 70 22
22 31 20 64 -4 88 -18 18 -33 20 -195 20 -162 0 -177 -2 -195 -20z"/>
<path d="M776 748 c-22 -32 -20 -61 7 -86 22 -21 33 -22 193 -22 157 0 172 2
192 20 27 25 29 71 4 93 -16 15 -45 17 -200 17 -176 0 -181 -1 -196 -22z"/>
</g>
</svg>
