<?xml version="1.0" standalone="no"?>
<!DOCTYPE svg PUBLIC "-//W3C//DTD SVG 20010904//EN"
 "http://www.w3.org/TR/2001/REC-SVG-20010904/DTD/svg10.dtd">
<svg version="1.0" xmlns="http://www.w3.org/2000/svg"
 width="192.000000pt" height="192.000000pt" viewBox="0 0 192.000000 192.000000"
 preserveAspectRatio="xMidYMid meet">
<metadata>
Created by potrace 1.16, written by Peter Selinger 2001-2019
</metadata>
<g transform="translate(0.000000,192.000000) scale(0.100000,-0.100000)"
fill="#000000" stroke="none">
811 c445 -92 729 -532 635 -987 -62 -301 -295 -546 -601 -630 -91 -26 -329
-26 -420 0 -291 80 -516 305 -596 596 -26 91 -26 329 0 420 120 433 542 692
982 601z"/>
<path d="M1089 1339 c-25 -30 -70 -59 -173 -112 -170 -87 -197 -116 -204 -207
-6 -75 15 -133 63 -180 41 -39 59 -32 61 25 0 19 9 45 20 56 10 12 75 49 144
81 162 77 200 113 200 191 0 63 -45 187 -69 187 -5 0 -24 -18 -42 -41z"/>
<path d="M1095 1010 c11 -18 -15 -39 -99 -78 -83 -39 -131 -82 -142 -128 -11
-42 3 -103 31 -139 30 -40 45 -44 45 -12 0 38 36 84 113 144 93 73 112 98 112
146 0 29 -7 44 -24 58 -25 21 -46 26 -36 9z"/>
<path d="M924 585 c-8 -19 12 -36 33 -28 19 7 12 37 -10 41 -9 2 -20 -4 -23
-13z"/>
</g>
</svg>
