<?xml version="1.0" standalone="no"?>
<!DOCTYPE svg PUBLIC "-//W3C//DTD SVG 20010904//EN"
 "http://www.w3.org/TR/2001/REC-SVG-20010904/DTD/svg10.dtd">
<svg version="1.0" xmlns="http://www.w3.org/2000/svg"
 width="192.000000pt" height="192.000000pt" viewBox="0 0 192.000000 192.000000"
 preserveAspectRatio="xMidYMid meet">
<metadata>
Created by potrace 1.16, written by Peter Selinger 2001-2019
</metadata>
<g transform="translate(0.000000,192.000000) scale(0.100000,-0.100000)"
fill="#000000" stroke="none">
811 c445 -92 729 -532 635 -987 -62 -301 -295 -546 -601 -630 -91 -26 -329
-26 -420 0 -291 80 -516 305 -596 596 -26 91 -26 329 0 420 120 433 542 692
982 601z"/>
<path d="M1083 1331 c-24 -28 -70 -58 -173 -111 -166 -85 -191 -112 -198 -210
-3 -47 1 -69 21 -113 26 -58 66 -93 93 -83 11 4 14 14 10 33 -4 18 0 38 12 58
19 30 33 38 192 114 114 53 152 93 157 163 2 37 -4 73 -19 118 -29 81 -49 87
-95 31z"/>
<path d="M1095 1000 c9 -14 -26 -40 -92 -68 -107 -45 -153 -98 -153 -177 0
-40 12 -68 43 -102 26 -29 37 -29 37 -2 0 38 40 87 125 154 66 51 86 73 94
101 15 53 -8 103 -47 104 -7 0 -10 -4 -7 -10z"/>
<path d="M924 585 c-4 -9 -2 -21 4 -27 15 -15 44 -1 40 19 -4 23 -36 29 -44 8z"/>
</g>
</svg>
