<?xml version="1.0" standalone="no"?>
<!DOCTYPE svg PUBLIC "-//W3C//DTD SVG 20010904//EN"
 "http://www.w3.org/TR/2001/REC-SVG-20010904/DTD/svg10.dtd">
<svg version="1.0" xmlns="http://www.w3.org/2000/svg"
 width="192.000000pt" height="192.000000pt" viewBox="0 0 192.000000 192.000000"
 preserveAspectRatio="xMidYMid meet">
<metadata>
Created by potrace 1.16, written by Peter Selinger 2001-2019
</metadata>
<g transform="translate(0.000000,192.000000) scale(0.100000,-0.100000)"
fill="#000000" stroke="none">
811 c445 -92 729 -532 635 -987 -62 -301 -295 -546 -601 -630 -91 -26 -329
-26 -420 0 -291 80 -516 305 -596 596 -26 91 -26 329 0 420 120 433 542 692
982 601z"/>
<path d="M1088 1337 c-29 -30 -82 -64 -158 -102 -63 -31 -130 -68 -148 -82
-63 -47 -87 -134 -61 -226 23 -85 118 -146 111 -71 -5 50 30 82 158 142 136
64 177 93 196 138 19 45 18 80 -6 157 -29 93 -39 97 -92 44z"/>
<path d="M1095 1010 c12 -19 -17 -41 -100 -79 -47 -22 -91 -51 -107 -70 -50
-59 -49 -141 1 -201 27 -32 30 -33 36 -15 26 76 37 89 159 189 57 46 77 86 65
130 -9 30 -33 56 -52 56 -4 0 -5 -5 -2 -10z"/>
<path d="M924 589 c-3 -6 0 -17 7 -25 18 -17 44 -2 36 20 -7 18 -33 21 -43 5z"/>
</g>
</svg>
