<?xml version="1.0" standalone="no"?>
<!DOCTYPE svg PUBLIC "-//W3C//DTD SVG 20010904//EN"
 "http://www.w3.org/TR/2001/REC-SVG-20010904/DTD/svg10.dtd">
<svg version="1.0" xmlns="http://www.w3.org/2000/svg"
 width="192.000000pt" height="192.000000pt" viewBox="0 0 192.000000 192.000000"
 preserveAspectRatio="xMidYMid meet">
<metadata>
Created by potrace 1.16, written by Peter Selinger 2001-2019
</metadata>
<g transform="translate(0.000000,192.000000) scale(0.100000,-0.100000)"
fill="#000000" stroke="none">
811 c445 -92 729 -532 635 -987 -62 -301 -295 -546 -601 -630 -91 -26 -329
-26 -420 0 -291 80 -516 305 -596 596 -26 91 -26 329 0 420 120 433 542 692
982 601z"/>
<path d="M802 1358 c-7 -7 -12 -22 -12 -35 0 -27 23 -39 91 -48 26 -3 77 -21
115 -39 150 -73 243 -197 277 -372 11 -52 15 -59 38 -62 14 -2 31 4 39 13 21
25 -5 142 -53 238 -74 149 -207 255 -373 297 -90 23 -106 24 -122 8z"/>
<path d="M802 1182 c-8 -5 -12 -22 -10 -37 3 -25 10 -30 64 -45 127 -34 199
-107 234 -233 17 -60 18 -62 51 -62 l34 0 -1 50 c-3 110 -99 240 -216 295 -69
32 -136 46 -156 32z"/>
<path d="M708 1015 c-179 -66 -212 -296 -59 -409 148 -110 371 7 371 194 0 56
-31 119 -81 164 -69 62 -151 80 -231 51z m187 -110 c30 -29 32 -55 7 -85 -13
-16 -29 -23 -52 -22 -38 1 -56 16 -65 54 -5 21 -1 33 19 52 32 33 60 33 91 1z"/>
</g>
</svg>
