<?xml version="1.0" standalone="no"?>
<!DOCTYPE svg PUBLIC "-//W3C//DTD SVG 20010904//EN"
 "http://www.w3.org/TR/2001/REC-SVG-20010904/DTD/svg10.dtd">
<svg version="1.0" xmlns="http://www.w3.org/2000/svg"
 width="192.000000pt" height="192.000000pt" viewBox="0 0 192.000000 192.000000"
 preserveAspectRatio="xMidYMid meet">
<metadata>
Created by potrace 1.16, written by Peter Selinger 2001-2019
</metadata>
<g transform="translate(0.000000,192.000000) scale(0.100000,-0.100000)"
fill="#000000" stroke="none">
811 c445 -92 729 -532 635 -987 -62 -301 -295 -546 -601 -630 -91 -26 -329
-26 -420 0 -291 80 -516 305 -596 596 -26 91 -26 329 0 420 120 433 542 692
982 601z"/>
<path d="M774 1376 c-10 -27 16 -84 63 -136 67 -74 100 -66 63 17 -33 76 -114
151 -126 119z"/>
<path d="M610 1190 c0 -25 88 -84 148 -100 105 -27 68 46 -50 100 -58 26 -98
26 -98 0z"/>
<path d="M1014 1176 c-128 -59 -181 -209 -118 -334 76 -153 293 -182 405 -55
45 52 62 99 62 169 -1 179 -186 296 -349 220z"/>
<path d="M583 989 c-19 -5 -33 -16 -33 -25 0 -21 42 -34 115 -34 72 0 115 13
115 34 0 31 -122 47 -197 25z"/>
<path d="M755 835 c-73 -21 -145 -72 -145 -102 0 -34 116 0 178 51 54 47 38
72 -33 51z"/>
<path d="M844 698 c-62 -68 -93 -158 -54 -158 19 0 86 76 109 124 39 84 8 103
-55 34z"/>
</g>
</svg>
