<?xml version="1.0" standalone="no"?>
<!DOCTYPE svg PUBLIC "-//W3C//DTD SVG 20010904//EN"
 "http://www.w3.org/TR/2001/REC-SVG-20010904/DTD/svg10.dtd">
<svg version="1.0" xmlns="http://www.w3.org/2000/svg"
 width="192.000000pt" height="192.000000pt" viewBox="0 0 192.000000 192.000000"
 preserveAspectRatio="xMidYMid meet">
<metadata>
Created by potrace 1.16, written by Peter Selinger 2001-2019
</metadata>
<g transform="translate(0.000000,192.000000) scale(0.100000,-0.100000)"
fill="#000000" stroke="none">
811 c445 -92 729 -532 635 -987 -62 -301 -295 -546 -601 -630 -91 -26 -329
-26 -420 0 -291 80 -516 305 -596 596 -26 91 -26 329 0 420 120 433 542 692
982 601z"/>
<path d="M695 1321 c-48 -22 -79 -54 -100 -103 -12 -30 -15 -81 -15 -255 0
-245 8 -278 71 -325 58 -43 90 -48 304 -48 214 0 246 5 304 48 63 47 71 80 71
325 0 232 -5 264 -53 316 -50 54 -83 61 -322 61 -193 0 -225 -3 -260 -19z
m215 -191 l0 -120 -120 0 -120 0 0 91 c0 87 1 92 29 120 28 28 33 29 120 29
l91 0 0 -120z m301 91 l29 -29 0 -222 0 -222 -34 -34 c-33 -33 -36 -34 -120
-34 l-86 0 0 285 0 285 91 0 c87 0 92 -1 120 -29z m-301 -416 l0 -125 -86 0
c-84 0 -87 1 -120 34 -34 34 -34 35 -34 125 l0 91 120 0 120 0 0 -125z"/>
</g>
</svg>
