<?xml version="1.0" standalone="no"?>
<!DOCTYPE svg PUBLIC "-//W3C//DTD SVG 20010904//EN"
 "http://www.w3.org/TR/2001/REC-SVG-20010904/DTD/svg10.dtd">
<svg version="1.0" xmlns="http://www.w3.org/2000/svg"
 width="192.000000pt" height="192.000000pt" viewBox="0 0 192.000000 192.000000"
 preserveAspectRatio="xMidYMid meet">
<metadata>
Created by potrace 1.16, written by Peter Selinger 2001-2019
</metadata>
<g transform="translate(0.000000,192.000000) scale(0.100000,-0.100000)"
fill="#000000" stroke="none">
811 c445 -92 729 -532 635 -987 -62 -301 -295 -546 -601 -630 -91 -26 -329
-26 -420 0 -291 80 -516 305 -596 596 -26 91 -26 329 0 420 120 433 542 692
982 601z"/>
<path d="M592 1327 c-22 -23 -22 -29 -22 -341 0 -345 1 -354 57 -392 26 -18
50 -19 328 -19 278 0 302 1 328 19 47 32 57 64 57 179 0 106 -7 127 -42 127
-16 0 -18 -11 -18 -110 0 -91 -3 -110 -15 -110 -13 0 -15 42 -15 318 0 304 -1
320 -20 337 -19 17 -30 16 -62 -7 -14 -10 -21 -9 -37 6 -20 18 -30 17 -63 -6
-14 -10 -21 -9 -37 6 -20 18 -30 17 -63 -6 -14 -10 -21 -9 -37 6 -20 18 -22
18 -41 1 -19 -17 -30 -16 -62 7 -14 10 -21 9 -38 -7 -17 -16 -24 -17 -38 -7
-32 23 -43 24 -61 8 -22 -20 -35 -20 -51 -1 -17 20 -23 19 -48 -8z m540 -124
c10 -9 18 -25 18 -36 0 -26 -28 -57 -52 -57 -22 0 -58 34 -58 55 0 20 36 55
57 55 9 0 25 -7 35 -17z m-191 -3 c21 -12 25 -50 7 -68 -13 -13 -245 -17 -264
-4 -19 13 -23 39 -8 61 14 19 24 21 130 21 64 0 124 -5 135 -10z m-3 -186 c26
-18 28 -50 5 -76 -21 -24 -48 -23 -74 3 -22 22 -19 55 9 77 21 16 33 15 60 -4z
m190 0 c12 -8 22 -25 22 -36 0 -27 -28 -58 -52 -58 -22 0 -58 34 -58 55 0 18
35 55 53 55 7 0 23 -7 35 -16z m-380 -190 c41 -29 19 -94 -32 -94 -30 0 -48
22 -48 57 0 25 24 53 47 53 6 0 21 -7 33 -16z m190 0 c26 -18 28 -50 5 -76
-38 -42 -105 0 -84 55 15 38 44 46 79 21z m190 0 c26 -18 28 -50 5 -76 -22
-25 -59 -23 -77 4 -21 30 -20 44 4 68 24 24 38 25 68 4z"/>
</g>
</svg>
