<?xml version="1.0" standalone="no"?>
<!DOCTYPE svg PUBLIC "-//W3C//DTD SVG 20010904//EN"
 "http://www.w3.org/TR/2001/REC-SVG-20010904/DTD/svg10.dtd">
<svg version="1.0" xmlns="http://www.w3.org/2000/svg"
 width="192.000000pt" height="192.000000pt" viewBox="0 0 192.000000 192.000000"
 preserveAspectRatio="xMidYMid meet">
<metadata>
Created by potrace 1.16, written by Peter Selinger 2001-2019
</metadata>
<g transform="translate(0.000000,192.000000) scale(0.100000,-0.100000)"
fill="#000000" stroke="none">
811 c445 -92 729 -532 635 -987 -62 -301 -295 -546 -601 -630 -91 -26 -329
-26 -420 0 -291 80 -516 305 -596 596 -26 91 -26 329 0 420 120 433 542 692
982 601z"/>
<path d="M877 1370 c-88 -23 -172 -91 -218 -180 -23 -43 -24 -54 -27 -304 -2
-143 -1 -270 3 -283 12 -51 110 -60 135 -13 6 10 10 55 10 99 0 45 2 81 4 81
2 0 25 -9 50 -21 54 -23 147 -28 213 -10 98 27 188 120 219 229 56 192 -86
393 -289 407 -34 2 -79 0 -100 -5z m170 -176 c48 -36 66 -70 70 -131 5 -69
-16 -116 -67 -150 -96 -66 -230 -16 -260 97 -20 75 11 144 85 192 40 25 133
21 172 -8z"/>
</g>
</svg>
