<?xml version="1.0" standalone="no"?>
<!DOCTYPE svg PUBLIC "-//W3C//DTD SVG 20010904//EN"
 "http://www.w3.org/TR/2001/REC-SVG-20010904/DTD/svg10.dtd">
<svg version="1.0" xmlns="http://www.w3.org/2000/svg"
 width="192.000000pt" height="192.000000pt" viewBox="0 0 192.000000 192.000000"
 preserveAspectRatio="xMidYMid meet">
<metadata>
Created by potrace 1.16, written by Peter Selinger 2001-2019
</metadata>
<g transform="translate(0.000000,192.000000) scale(0.100000,-0.100000)"
fill="#000000" stroke="none">
811 c445 -92 729 -532 635 -987 -62 -301 -295 -546 -601 -630 -91 -26 -329
-26 -420 0 -291 80 -516 305 -596 596 -26 91 -26 329 0 420 120 433 542 692
982 601z"/>
<path d="M1064 1356 c-38 -17 -70 -57 -79 -97 -4 -19 -17 -35 -38 -45 -50 -25
-67 -45 -67 -75 0 -20 8 -34 26 -46 26 -17 28 -16 77 11 46 25 52 26 96 15 38
-9 52 -9 83 4 45 19 78 69 78 117 0 39 -29 93 -57 108 -34 19 -87 22 -119 8z"/>
<path d="M640 1152 c-116 -52 -134 -208 -31 -278 43 -29 127 -33 170 -8 26 16
30 15 118 -29 l90 -46 5 -50 c7 -68 44 -122 103 -151 97 -47 212 -10 259 84
22 46 24 122 3 163 -23 44 -81 91 -128 103 -49 13 -120 0 -158 -29 -25 -19
-25 -19 -118 27 -85 43 -93 49 -93 75 0 43 -37 102 -80 126 -37 21 -108 27
-140 13z"/>
</g>
</svg>
