<?xml version="1.0" standalone="no"?>
<!DOCTYPE svg PUBLIC "-//W3C//DTD SVG 20010904//EN"
 "http://www.w3.org/TR/2001/REC-SVG-20010904/DTD/svg10.dtd">
<svg version="1.0" xmlns="http://www.w3.org/2000/svg"
 width="192.000000pt" height="192.000000pt" viewBox="0 0 192.000000 192.000000"
 preserveAspectRatio="xMidYMid meet">
<metadata>
Created by potrace 1.16, written by Peter Selinger 2001-2019
</metadata>
<g transform="translate(0.000000,192.000000) scale(0.100000,-0.100000)"
fill="#000000" stroke="none">
811 c445 -92 729 -532 635 -987 -62 -301 -295 -546 -601 -630 -91 -26 -329
-26 -420 0 -291 80 -516 305 -596 596 -26 91 -26 329 0 420 120 433 542 692
982 601z"/>
<path d="M850 1362 c-111 -37 -201 -116 -253 -222 -30 -61 -32 -71 -32 -175 0
-98 3 -116 26 -165 55 -115 147 -197 261 -231 140 -43 292 -11 404 85 84 72
130 176 84 191 -26 8 -37 1 -59 -43 -60 -115 -203 -192 -334 -178 -120 12
-233 89 -284 195 -24 48 -28 68 -28 146 0 108 20 159 89 233 129 137 343 146
481 20 31 -28 65 -68 75 -89 22 -42 37 -51 63 -37 28 15 20 52 -27 116 -47 63
-106 110 -184 144 -67 30 -207 35 -282 10z"/>
<path d="M752 1108 c-8 -8 -12 -53 -12 -134 0 -98 3 -126 16 -138 13 -13 42
-16 158 -16 156 0 166 3 166 57 l0 33 60 -30 c34 -17 65 -28 70 -25 13 8 13
222 0 230 -6 4 -35 -5 -66 -19 -31 -14 -58 -26 -60 -26 -2 0 -4 13 -4 28 0 15
-5 33 -12 40 -17 17 -299 17 -316 0z m203 -93 c30 -29 32 -55 7 -86 -23 -27
-75 -30 -99 -6 -24 24 -21 76 6 99 31 25 57 23 86 -7z"/>
</g>
</svg>
