<?xml version="1.0" standalone="no"?>
<!DOCTYPE svg PUBLIC "-//W3C//DTD SVG 20010904//EN"
 "http://www.w3.org/TR/2001/REC-SVG-20010904/DTD/svg10.dtd">
<svg version="1.0" xmlns="http://www.w3.org/2000/svg"
 width="192.000000pt" height="192.000000pt" viewBox="0 0 192.000000 192.000000"
 preserveAspectRatio="xMidYMid meet">
<metadata>
Created by potrace 1.16, written by Peter Selinger 2001-2019
</metadata>
<g transform="translate(0.000000,192.000000) scale(0.100000,-0.100000)"
fill="#000000" stroke="none">
811 c445 -92 729 -532 635 -987 -62 -301 -295 -546 -601 -630 -91 -26 -329
-26 -420 0 -291 80 -516 305 -596 596 -26 91 -26 329 0 420 120 433 542 692
982 601z"/>
<path d="M642 1378 c-7 -7 -12 -29 -12 -50 0 -37 -1 -38 -38 -38 -45 0 -62
-14 -62 -52 0 -32 24 -48 69 -48 l31 0 0 -231 c0 -333 -14 -319 319 -319 l231
0 0 -31 c0 -45 16 -69 48 -69 38 0 52 17 52 62 0 37 1 38 38 38 45 0 62 14 62
52 0 32 -24 48 -69 48 l-31 0 0 231 c0 333 14 319 -319 319 l-231 0 0 31 c0
45 -16 69 -48 69 -16 0 -33 -5 -40 -12z m538 -300 l0 -112 -38 37 c-59 58 -79
53 -183 -49 l-88 -87 -31 27 c-33 27 -78 34 -98 14 -9 -9 -12 21 -12 135 l0
147 225 0 225 0 0 -112z"/>
<path d="M795 1125 c-51 -50 -17 -135 54 -135 49 0 81 32 81 82 0 70 -86 103
-135 53z"/>
</g>
</svg>
