<?xml version="1.0" standalone="no"?>
<!DOCTYPE svg PUBLIC "-//W3C//DTD SVG 20010904//EN"
 "http://www.w3.org/TR/2001/REC-SVG-20010904/DTD/svg10.dtd">
<svg version="1.0" xmlns="http://www.w3.org/2000/svg"
 width="192.000000pt" height="192.000000pt" viewBox="0 0 192.000000 192.000000"
 preserveAspectRatio="xMidYMid meet">
<metadata>
Created by potrace 1.16, written by Peter Selinger 2001-2019
</metadata>
<g transform="translate(0.000000,192.000000) scale(0.100000,-0.100000)"
fill="#000000" stroke="none">
811 c445 -92 729 -532 635 -987 -62 -301 -295 -546 -601 -630 -91 -26 -329
-26 -420 0 -291 80 -516 305 -596 596 -26 91 -26 329 0 420 120 433 542 692
982 601z"/>
<path d="M950 1320 c-18 -18 -20 -33 -20 -179 l0 -159 -44 5 c-79 9 -165 -38
-203 -111 -21 -40 -21 -132 -1 -171 36 -67 113 -115 187 -115 23 0 60 11 92
28 43 22 59 38 81 81 l28 53 0 229 0 229 68 0 c78 0 102 15 102 67 0 54 -22
63 -153 63 -104 0 -119 -2 -137 -20z"/>
</g>
</svg>
