<?xml version="1.0" standalone="no"?>
<!DOCTYPE svg PUBLIC "-//W3C//DTD SVG 20010904//EN"
 "http://www.w3.org/TR/2001/REC-SVG-20010904/DTD/svg10.dtd">
<svg version="1.0" xmlns="http://www.w3.org/2000/svg"
 width="192.000000pt" height="192.000000pt" viewBox="0 0 192.000000 192.000000"
 preserveAspectRatio="xMidYMid meet">
<metadata>
Created by potrace 1.16, written by Peter Selinger 2001-2019
</metadata>
<g transform="translate(0.000000,192.000000) scale(0.100000,-0.100000)"
fill="#000000" stroke="none">
811 c445 -92 729 -532 635 -987 -62 -301 -295 -546 -601 -630 -91 -26 -329
-26 -420 0 -291 80 -516 305 -596 596 -26 91 -26 329 0 420 120 433 542 692
982 601z"/>
<path d="M614 1336 c-48 -22 -61 -89 -24 -126 18 -18 34 -20 208 -21 234 -2
223 -3 250 27 29 32 28 66 -2 101 l-24 28 -189 3 c-143 1 -195 -1 -219 -12z"/>
<path d="M1196 1328 c-38 -35 -39 -86 -1 -123 51 -52 139 -14 139 60 0 72 -84
111 -138 63z"/>
<path d="M895 1025 c-54 -54 -13 -145 65 -145 33 0 80 53 80 90 0 44 -39 80
-85 80 -25 0 -44 -8 -60 -25z"/>
<path d="M1193 1028 c-35 -38 -34 -88 2 -123 50 -51 139 -14 139 58 0 76 -92
118 -141 65z"/>
<path d="M600 730 c-42 -42 -32 -109 21 -139 80 -45 163 74 96 137 -30 29 -89
30 -117 2z"/>
<path d="M895 725 c-35 -34 -33 -78 4 -116 18 -17 40 -29 56 -29 38 0 85 50
85 90 0 44 -39 80 -85 80 -25 0 -44 -8 -60 -25z"/>
<path d="M1193 728 c-30 -34 -34 -55 -18 -94 26 -63 109 -70 146 -11 35 58 -4
127 -71 127 -25 0 -43 -7 -57 -22z"/>
</g>
</svg>
