<?xml version="1.0" standalone="no"?>
<!DOCTYPE svg PUBLIC "-//W3C//DTD SVG 20010904//EN"
 "http://www.w3.org/TR/2001/REC-SVG-20010904/DTD/svg10.dtd">
<svg version="1.0" xmlns="http://www.w3.org/2000/svg"
 width="192.000000pt" height="192.000000pt" viewBox="0 0 192.000000 192.000000"
 preserveAspectRatio="xMidYMid meet">
<metadata>
Created by potrace 1.16, written by Peter Selinger 2001-2019
</metadata>
<g transform="translate(0.000000,192.000000) scale(0.100000,-0.100000)"
fill="#000000" stroke="none">
811 c445 -92 729 -532 635 -987 -62 -301 -295 -546 -601 -630 -91 -26 -329
-26 -420 0 -291 80 -516 305 -596 596 -26 91 -26 329 0 420 120 433 542 692
982 601z"/>
<path d="M874 1370 c-45 -17 -49 -35 -30 -128 10 -48 20 -97 23 -109 4 -19 1
-23 -20 -23 -38 0 -58 -10 -67 -35 -7 -17 -14 -21 -34 -18 -55 11 -71 -38 -36
-107 11 -22 20 -59 20 -84 0 -25 7 -67 16 -93 9 -26 16 -66 15 -88 -2 -59 16
-103 49 -120 40 -21 259 -21 299 0 35 17 41 32 41 96 0 28 6 62 14 77 8 15 18
46 22 67 4 22 13 49 20 60 31 44 13 88 -56 135 l-22 15 42 144 c41 144 41 144
22 170 -26 36 -64 39 -89 7 -11 -13 -35 -77 -53 -141 -18 -64 -36 -112 -40
-108 -4 4 -19 64 -34 132 -15 69 -31 130 -37 137 -14 17 -41 22 -65 14z"/>
</g>
</svg>
