<?xml version="1.0" standalone="no"?>
<!DOCTYPE svg PUBLIC "-//W3C//DTD SVG 20010904//EN"
 "http://www.w3.org/TR/2001/REC-SVG-20010904/DTD/svg10.dtd">
<svg version="1.0" xmlns="http://www.w3.org/2000/svg"
 width="192.000000pt" height="192.000000pt" viewBox="0 0 192.000000 192.000000"
 preserveAspectRatio="xMidYMid meet">
<metadata>
Created by potrace 1.16, written by Peter Selinger 2001-2019
</metadata>
<g transform="translate(0.000000,192.000000) scale(0.100000,-0.100000)"
fill="#000000" stroke="none">
811 c445 -92 729 -532 635 -987 -62 -301 -295 -546 -601 -630 -91 -26 -329
-26 -420 0 -291 80 -516 305 -596 596 -26 91 -26 329 0 420 120 433 542 692
982 601z"/>
<path d="M749 1361 c-45 -14 -80 -43 -100 -82 -17 -35 -19 -61 -19 -314 0
-312 4 -331 77 -376 36 -23 47 -24 262 -27 253 -4 274 -1 269 31 -3 22 -5 22
-194 25 -199 3 -223 8 -208 45 5 13 34 16 196 19 l190 3 29 33 30 33 -3 279
-3 280 -28 27 -27 28 -223 2 c-122 1 -234 -2 -248 -6z"/>
</g>
</svg>
