<?xml version="1.0" standalone="no"?>
<!DOCTYPE svg PUBLIC "-//W3C//DTD SVG 20010904//EN"
 "http://www.w3.org/TR/2001/REC-SVG-20010904/DTD/svg10.dtd">
<svg version="1.0" xmlns="http://www.w3.org/2000/svg"
 width="192.000000pt" height="192.000000pt" viewBox="0 0 192.000000 192.000000"
 preserveAspectRatio="xMidYMid meet">
<metadata>
Created by potrace 1.16, written by Peter Selinger 2001-2019
</metadata>
<g transform="translate(0.000000,192.000000) scale(0.100000,-0.100000)"
fill="#000000" stroke="none">
811 c445 -92 729 -532 635 -987 -62 -301 -295 -546 -601 -630 -91 -26 -329
-26 -420 0 -291 80 -516 305 -596 596 -26 91 -26 329 0 420 120 433 542 692
982 601z"/>
<path d="M763 1190 c-23 -9 -37 -45 -31 -76 3 -18 17 -28 61 -44 18 -6 26 -14
21 -22 -6 -9 -9 -9 -12 0 -2 7 -17 12 -33 12 -24 0 -29 -4 -29 -25 0 -29 25
-38 86 -33 31 2 40 8 48 29 16 46 1 77 -44 89 -22 6 -40 15 -40 20 0 13 17 13
25 0 3 -5 17 -10 31 -10 19 0 24 5 24 24 0 14 -3 27 -8 30 -17 11 -79 15 -99
6z"/>
<path d="M474 1177 c-3 -8 -4 -49 -2 -93 3 -78 3 -79 31 -82 l27 -3 0 95 0 96
-25 0 c-14 0 -28 -6 -31 -13z"/>
<path d="M560 1095 l0 -95 30 0 c28 0 30 3 31 38 l1 37 15 -37 c13 -32 21 -38
44 -38 l29 0 0 95 0 95 -30 0 c-28 0 -30 -3 -31 -37 l0 -38 -16 38 c-12 31
-20 37 -44 37 l-29 0 0 -95z"/>
<path d="M900 1094 l0 -95 28 3 c19 2 28 9 30 26 3 17 10 22 31 22 15 0 32 5
39 12 16 16 16 100 0 116 -7 7 -38 12 -70 12 l-58 0 0 -96z m80 26 c0 -11 -4
-20 -10 -20 -5 0 -10 9 -10 20 0 11 5 20 10 20 6 0 10 -9 10 -20z"/>
<path d="M1062 1098 l3 -93 28 -3 27 -3 0 95 0 96 -30 0 -31 0 3 -92z"/>
<path d="M1150 1095 l0 -95 30 0 c26 0 30 4 31 28 l1 27 11 -27 c8 -21 18 -28
39 -28 30 0 34 10 18 40 -7 13 -7 21 0 25 14 9 13 98 -2 113 -7 7 -38 12 -70
12 l-58 0 0 -95z m85 25 c0 -7 -6 -15 -12 -17 -8 -3 -13 4 -13 17 0 13 5 20
13 18 6 -3 12 -11 12 -18z"/>
<path d="M1320 1095 l0 -95 60 0 c57 0 60 1 60 25 0 21 -5 25 -30 25 -16 0
-30 5 -30 10 0 6 11 10 25 10 20 0 25 5 25 25 0 20 -5 25 -25 25 -14 0 -25 5
-25 10 0 6 14 10 30 10 25 0 30 4 30 25 0 24 -3 25 -60 25 l-60 0 0 -95z"/>
<path d="M1325 963 c-30 -7 -45 -32 -45 -74 0 -41 13 -56 59 -65 32 -7 48 -20
37 -31 -4 -4 -12 -1 -18 5 -7 7 -25 12 -40 12 -24 0 -28 -4 -28 -30 0 -36 23
-50 84 -50 57 0 76 18 76 74 0 49 -9 60 -59 73 -36 9 -55 33 -27 33 9 0 16 -4
16 -10 0 -12 57 -14 64 -2 11 19 -8 51 -36 61 -32 11 -49 12 -83 4z"/>
<path d="M462 948 c3 -7 13 -57 23 -111 16 -85 22 -98 41 -103 43 -11 59 -1
68 45 l10 45 10 -45 c10 -39 14 -44 42 -47 17 -2 35 3 41 10 6 7 18 51 28 98
9 47 19 93 22 103 4 16 -1 18 -34 15 -38 -3 -38 -3 -47 -58 l-9 -55 -11 55
c-11 52 -13 55 -43 58 -30 3 -31 2 -38 -48 -8 -59 -16 -58 -24 3 -6 40 -7 42
-45 45 -29 3 -37 0 -34 -10z"/>
<path d="M785 948 c-20 -61 -53 -203 -49 -210 12 -19 74 -4 74 18 0 23 47 17
53 -6 6 -21 51 -29 62 -10 4 6 -6 58 -21 115 l-27 105 -44 0 c-26 0 -45 -5
-48 -12z m51 -125 c-11 -11 -17 4 -9 23 7 18 8 18 11 1 2 -10 1 -21 -2 -24z"/>
<path d="M952 848 l3 -113 70 0 c69 0 70 0 73 28 3 26 1 27 -37 27 l-41 0 0
85 0 85 -35 0 -36 0 3 -112z"/>
<path d="M1122 848 l3 -113 70 0 c69 0 70 0 73 28 3 26 1 27 -37 27 l-41 0 0
85 0 85 -35 0 -36 0 3 -112z"/>
</g>
</svg>
