<?xml version="1.0" standalone="no"?>
<!DOCTYPE svg PUBLIC "-//W3C//DTD SVG 20010904//EN"
 "http://www.w3.org/TR/2001/REC-SVG-20010904/DTD/svg10.dtd">
<svg version="1.0" xmlns="http://www.w3.org/2000/svg"
 width="192.000000pt" height="192.000000pt" viewBox="0 0 192.000000 192.000000"
 preserveAspectRatio="xMidYMid meet">
<metadata>
Created by potrace 1.16, written by Peter Selinger 2001-2019
</metadata>
<g transform="translate(0.000000,192.000000) scale(0.100000,-0.100000)"
fill="#000000" stroke="none">
811 c445 -92 729 -532 635 -987 -62 -301 -295 -546 -601 -630 -91 -26 -329
-26 -420 0 -291 80 -516 305 -596 596 -26 91 -26 329 0 420 120 433 542 692
982 601z"/>
<path d="M738 1330 c-52 -16 -98 -52 -126 -98 -26 -46 -27 -51 -30 -237 -4
-218 4 -274 50 -329 57 -69 84 -76 323 -76 232 0 261 7 317 66 53 56 58 85 58
311 0 189 -2 210 -21 250 -26 54 -79 98 -135 112 -49 13 -395 13 -436 1z m451
-152 c10 -28 4 -46 -20 -59 -41 -22 -80 36 -47 69 20 20 58 14 67 -10z m-149
-58 c145 -74 115 -294 -46 -330 -107 -25 -214 60 -214 169 0 136 139 223 260
161z"/>
<path d="M874 1046 c-29 -29 -34 -41 -34 -79 0 -56 34 -101 90 -118 52 -16
106 10 133 64 17 33 18 44 8 77 -17 56 -61 90 -118 90 -38 0 -50 -5 -79 -34z"/>
</g>
</svg>
