<?xml version="1.0" standalone="no"?>
<!DOCTYPE svg PUBLIC "-//W3C//DTD SVG 20010904//EN"
 "http://www.w3.org/TR/2001/REC-SVG-20010904/DTD/svg10.dtd">
<svg version="1.0" xmlns="http://www.w3.org/2000/svg"
 width="192.000000pt" height="192.000000pt" viewBox="0 0 192.000000 192.000000"
 preserveAspectRatio="xMidYMid meet">
<metadata>
Created by potrace 1.16, written by Peter Selinger 2001-2019
</metadata>
<g transform="translate(0.000000,192.000000) scale(0.100000,-0.100000)"
fill="#000000" stroke="none">
811 c445 -92 729 -532 635 -987 -62 -301 -295 -546 -601 -630 -91 -26 -329
-26 -420 0 -291 80 -516 305 -596 596 -26 91 -26 329 0 420 120 433 542 692
982 601z"/>
<path d="M1039 1344 c-21 -22 -24 -35 -22 -89 1 -69 31 -151 58 -161 41 -16
165 117 165 175 0 85 -142 138 -201 75z"/>
<path d="M1225 1146 c-38 -17 -97 -83 -93 -104 4 -21 44 -40 99 -48 36 -5 49
-2 73 17 25 20 28 27 23 63 -4 27 -15 49 -32 63 -30 26 -30 26 -70 9z"/>
<path d="M861 1075 c-99 -89 -281 -420 -281 -509 0 -37 18 -40 91 -16 136 46
349 170 432 252 39 39 47 53 47 84 0 102 -120 224 -220 224 -20 0 -42 -11 -69
-35z"/>
</g>
</svg>
