<?xml version="1.0" standalone="no"?>
<!DOCTYPE svg PUBLIC "-//W3C//DTD SVG 20010904//EN"
 "http://www.w3.org/TR/2001/REC-SVG-20010904/DTD/svg10.dtd">
<svg version="1.0" xmlns="http://www.w3.org/2000/svg"
 width="192.000000pt" height="192.000000pt" viewBox="0 0 192.000000 192.000000"
 preserveAspectRatio="xMidYMid meet">
<metadata>
Created by potrace 1.16, written by Peter Selinger 2001-2019
</metadata>
<g transform="translate(0.000000,192.000000) scale(0.100000,-0.100000)"
fill="#000000" stroke="none">
811 c445 -92 729 -532 635 -987 -62 -301 -295 -546 -601 -630 -91 -26 -329
-26 -420 0 -291 80 -516 305 -596 596 -26 91 -26 329 0 420 120 433 542 692
982 601z"/>
<path d="M695 1321 c-48 -22 -79 -54 -100 -103 -12 -30 -15 -81 -15 -256 0
-210 1 -221 23 -263 13 -24 43 -57 66 -74 l43 -30 243 0 243 0 43 30 c23 17
53 50 66 74 22 42 23 53 23 263 0 233 -5 265 -53 317 -50 54 -83 61 -322 61
-193 0 -225 -3 -260 -19z m503 -113 c7 -7 12 -24 12 -38 0 -14 -5 -31 -12 -38
-7 -7 -24 -12 -38 -12 -14 0 -31 5 -38 12 -15 15 -15 61 0 76 7 7 24 12 38 12
14 0 31 -5 38 -12z m-168 -100 c82 -42 110 -130 69 -214 -71 -149 -299 -97
-299 68 0 129 117 203 230 146z"/>
</g>
</svg>
