<?xml version="1.0" standalone="no"?>
<!DOCTYPE svg PUBLIC "-//W3C//DTD SVG 20010904//EN"
 "http://www.w3.org/TR/2001/REC-SVG-20010904/DTD/svg10.dtd">
<svg version="1.0" xmlns="http://www.w3.org/2000/svg"
 width="192.000000pt" height="192.000000pt" viewBox="0 0 192.000000 192.000000"
 preserveAspectRatio="xMidYMid meet">
<metadata>
Created by potrace 1.16, written by Peter Selinger 2001-2019
</metadata>
<g transform="translate(0.000000,192.000000) scale(0.100000,-0.100000)"
fill="#000000" stroke="none">
810 c245 -63 441 -223 549 -451 55 -116 75 -212 75 -354 0 -141 -20 -238 -75
-352 -86 -182 -215 -312 -396 -398 -116 -55 -212 -75 -354 -75 -142 0 -238 20
-354 75 -228 108 -388 304 -451 549 -28 110 -28 292 0 402 76 298 303 526 600
603 106 28 298 28 406 1z"/>
<path d="M872 1369 c-106 -21 -223 -102 -276 -193 -122 -208 -38 -475 182
-579 63 -30 74 -32 177 -32 104 0 114 2 176 32 168 83 263 262 231 434 -43
233 -262 383 -490 338z m219 -101 c76 -34 120 -76 160 -150 30 -57 33 -71 34
-148 0 -103 -23 -162 -92 -232 -132 -135 -344 -136 -478 -3 -214 214 -48 577
256 561 43 -2 85 -12 120 -28z"/>
<path d="M845 1206 c-59 -28 -118 -86 -140 -138 -39 -94 -7 -229 70 -297 56
-48 100 -64 180 -65 59 0 78 4 123 29 98 54 149 147 139 257 -16 178 -211 290
-372 214z m222 -128 c29 -27 31 -80 3 -108 -31 -31 -93 -27 -119 6 -12 15 -21
37 -21 49 0 12 9 34 21 49 27 34 82 36 116 4z"/>
</g>
</svg>
