<?xml version="1.0" standalone="no"?>
<!DOCTYPE svg PUBLIC "-//W3C//DTD SVG 20010904//EN"
 "http://www.w3.org/TR/2001/REC-SVG-20010904/DTD/svg10.dtd">
<svg version="1.0" xmlns="http://www.w3.org/2000/svg"
 width="192.000000pt" height="192.000000pt" viewBox="0 0 192.000000 192.000000"
 preserveAspectRatio="xMidYMid meet">
<metadata>
Created by potrace 1.16, written by Peter Selinger 2001-2019
</metadata>
<g transform="translate(0.000000,192.000000) scale(0.100000,-0.100000)"
fill="#000000" stroke="none">
811 c445 -92 729 -532 635 -987 -62 -301 -295 -546 -601 -630 -91 -26 -329
-26 -420 0 -291 80 -516 305 -596 596 -26 91 -26 329 0 420 120 433 542 692
982 601z"/>
<path d="M695 1326 c-38 -17 -90 -72 -104 -109 -17 -44 -14 -470 3 -510 17
-39 71 -92 109 -106 38 -15 466 -15 504 0 38 14 92 67 109 106 11 24 14 88 14
258 0 249 -3 267 -61 322 -42 40 -77 53 -139 53 -57 0 -80 -18 -80 -60 0 -36
23 -50 80 -50 30 0 47 -6 65 -25 25 -24 25 -24 25 -240 0 -216 0 -216 -25
-240 -24 -25 -24 -25 -240 -25 -288 0 -265 -23 -265 265 0 216 0 216 25 240
22 22 32 25 105 25 l80 0 0 -89 0 -90 -35 6 c-42 7 -65 -9 -65 -46 0 -32 124
-161 156 -161 30 0 154 129 154 161 0 32 -17 49 -50 49 -14 0 -31 -5 -38 -12
-9 -9 -12 17 -12 120 0 176 3 172 -162 172 -81 -1 -133 -5 -153 -14z"/>
</g>
</svg>
