<?xml version="1.0" standalone="no"?>
<!DOCTYPE svg PUBLIC "-//W3C//DTD SVG 20010904//EN"
 "http://www.w3.org/TR/2001/REC-SVG-20010904/DTD/svg10.dtd">
<svg version="1.0" xmlns="http://www.w3.org/2000/svg"
 width="192.000000pt" height="192.000000pt" viewBox="0 0 192.000000 192.000000"
 preserveAspectRatio="xMidYMid meet">
<metadata>
Created by potrace 1.16, written by Peter Selinger 2001-2019
</metadata>
<g transform="translate(0.000000,192.000000) scale(0.100000,-0.100000)"
fill="#000000" stroke="none">
811 c445 -92 729 -532 635 -987 -62 -301 -295 -546 -601 -630 -91 -26 -329
-26 -420 0 -291 80 -516 305 -596 596 -26 91 -26 329 0 420 120 433 542 692
982 601z"/>
<path d="M695 1321 c-48 -22 -79 -54 -100 -103 -12 -30 -15 -81 -15 -255 0
-245 8 -278 71 -325 58 -43 90 -48 304 -48 214 0 246 5 304 48 63 47 71 80 71
325 0 232 -5 264 -53 316 -50 54 -83 61 -322 61 -193 0 -225 -3 -260 -19z
m525 -91 c11 -11 20 -27 20 -35 0 -8 -9 -24 -20 -35 -11 -11 -27 -20 -35 -20
-8 0 -24 9 -35 20 -11 11 -20 27 -20 35 0 8 9 24 20 35 11 11 27 20 35 20 8 0
24 -9 35 -20z m-169 -83 c125 -66 145 -235 39 -331 -37 -33 -92 -56 -135 -56
-43 0 -98 23 -135 56 -139 126 -52 354 135 354 35 0 66 -8 96 -23z"/>
<path d="M874 1046 c-28 -28 -34 -41 -34 -78 0 -50 18 -82 60 -103 37 -19 73
-19 110 0 42 21 60 53 60 103 0 37 -6 50 -34 78 -29 29 -41 34 -81 34 -40 0
-52 -5 -81 -34z m116 -46 c23 -23 25 -39 7 -64 -27 -36 -97 -14 -97 31 0 18
37 53 55 53 8 0 24 -9 35 -20z"/>
</g>
</svg>
