<?xml version="1.0" standalone="no"?>
<!DOCTYPE svg PUBLIC "-//W3C//DTD SVG 20010904//EN"
 "http://www.w3.org/TR/2001/REC-SVG-20010904/DTD/svg10.dtd">
<svg version="1.0" xmlns="http://www.w3.org/2000/svg"
 width="192.000000pt" height="192.000000pt" viewBox="0 0 192.000000 192.000000"
 preserveAspectRatio="xMidYMid meet">
<metadata>
Created by potrace 1.16, written by Peter Selinger 2001-2019
</metadata>
<g transform="translate(0.000000,192.000000) scale(0.100000,-0.100000)"
fill="#000000" stroke="none">
811 c445 -92 729 -532 635 -987 -62 -301 -295 -546 -601 -630 -91 -26 -329
-26 -420 0 -291 80 -516 305 -596 596 -26 91 -26 329 0 420 120 433 542 692
982 601z"/>
<path d="M872 1414 c-12 -8 -22 -22 -22 -30 0 -10 -13 -14 -47 -14 -101 0
-170 -39 -204 -115 -16 -35 -19 -68 -19 -260 0 -209 1 -223 23 -265 12 -24 39
-58 60 -74 l39 -31 236 -3 c230 -3 238 -2 282 20 26 13 57 41 75 66 l30 44 0
237 0 238 -30 48 c-38 61 -88 88 -172 93 -35 3 -63 8 -63 13 0 5 -9 18 -20 29
-21 21 -42 18 -72 -8 -16 -13 -20 -13 -35 0 -31 26 -39 28 -61 12z m128 -375
c0 -36 2 -40 21 -34 88 28 152 43 165 38 23 -9 36 -40 25 -62 -13 -24 -258
-98 -281 -84 -8 6 -16 28 -18 50 l-3 41 -77 -24 c-42 -13 -87 -24 -98 -24 -30
0 -48 25 -40 55 6 25 20 30 221 88 66 19 85 9 85 -44z"/>
</g>
</svg>
