<?xml version="1.0" standalone="no"?>
<!DOCTYPE svg PUBLIC "-//W3C//DTD SVG 20010904//EN"
 "http://www.w3.org/TR/2001/REC-SVG-20010904/DTD/svg10.dtd">
<svg version="1.0" xmlns="http://www.w3.org/2000/svg"
 width="192.000000pt" height="192.000000pt" viewBox="0 0 192.000000 192.000000"
 preserveAspectRatio="xMidYMid meet">
<metadata>
Created by potrace 1.16, written by Peter Selinger 2001-2019
</metadata>
<g transform="translate(0.000000,192.000000) scale(0.100000,-0.100000)"
fill="#000000" stroke="none">
811 c445 -92 729 -532 635 -987 -62 -301 -295 -546 -601 -630 -91 -26 -329
-26 -420 0 -291 80 -516 305 -596 596 -26 91 -26 329 0 420 120 433 542 692
982 601z"/>
<path d="M676 1165 c-61 -21 -88 -46 -118 -105 -33 -63 -36 -118 -9 -175 38
-82 103 -125 193 -125 64 0 120 26 172 79 l39 40 54 -49 c63 -58 106 -74 184
-68 104 8 176 80 187 188 6 65 -13 115 -62 165 -90 89 -219 82 -315 -19 -19
-20 -38 -36 -41 -36 -3 0 -32 22 -63 49 -82 69 -143 84 -221 56z m142 -151
c23 -19 42 -41 41 -47 -1 -23 -89 -87 -120 -87 -70 0 -106 94 -54 145 36 37
82 33 133 -11z m412 11 c33 -36 31 -91 -5 -122 -41 -36 -79 -30 -132 20 -51
49 -51 54 9 98 52 37 96 38 128 4z"/>
</g>
</svg>
