<?xml version="1.0" standalone="no"?>
<!DOCTYPE svg PUBLIC "-//W3C//DTD SVG 20010904//EN"
 "http://www.w3.org/TR/2001/REC-SVG-20010904/DTD/svg10.dtd">
<svg version="1.0" xmlns="http://www.w3.org/2000/svg"
 width="192.000000pt" height="192.000000pt" viewBox="0 0 192.000000 192.000000"
 preserveAspectRatio="xMidYMid meet">
<metadata>
Created by potrace 1.16, written by Peter Selinger 2001-2019
</metadata>
<g transform="translate(0.000000,192.000000) scale(0.100000,-0.100000)"
fill="#000000" stroke="none">
811 c445 -92 729 -532 635 -987 -62 -301 -295 -546 -601 -630 -91 -26 -329
-26 -420 0 -291 80 -516 305 -596 596 -26 91 -26 329 0 420 120 433 542 692
982 601z"/>
<path d="M764 1370 c-12 -4 -31 -21 -43 -36 -18 -23 -21 -40 -21 -131 l0 -105
64 -67 65 -66 -65 -67 -64 -66 0 -96 c0 -103 13 -146 49 -166 12 -6 98 -10
208 -10 178 0 191 1 212 21 33 31 41 61 41 150 0 94 -9 115 -79 184 l-51 49
54 56 c29 30 59 65 65 77 17 34 14 188 -5 224 -25 50 -63 59 -246 58 -90 0
-173 -4 -184 -9z m306 -178 c0 -33 -8 -45 -61 -97 l-61 -60 -54 60 c-45 50
-54 66 -54 98 l0 37 115 0 115 0 0 -38z m0 -449 l0 -43 -115 0 -115 0 0 42 c0
38 6 48 57 100 l57 58 58 -57 c53 -52 58 -61 58 -100z"/>
</g>
</svg>
