<?xml version="1.0" standalone="no"?>
<!DOCTYPE svg PUBLIC "-//W3C//DTD SVG 20010904//EN"
 "http://www.w3.org/TR/2001/REC-SVG-20010904/DTD/svg10.dtd">
<svg version="1.0" xmlns="http://www.w3.org/2000/svg"
 width="192.000000pt" height="192.000000pt" viewBox="0 0 192.000000 192.000000"
 preserveAspectRatio="xMidYMid meet">
<metadata>
Created by potrace 1.16, written by Peter Selinger 2001-2019
</metadata>
<g transform="translate(0.000000,192.000000) scale(0.100000,-0.100000)"
fill="#000000" stroke="none">
811 c445 -92 729 -532 635 -987 -62 -301 -295 -546 -601 -630 -91 -26 -329
-26 -420 0 -291 80 -516 305 -596 596 -26 91 -26 329 0 420 120 433 542 692
982 601z"/>
<path d="M755 1283 c-11 -3 -30 -14 -42 -26 -22 -19 -23 -28 -23 -169 l0 -148
-55 0 c-61 0 -95 -22 -95 -62 0 -25 193 -223 228 -233 20 -6 40 9 133 101 84
83 109 114 109 134 0 41 -28 60 -88 60 l-52 0 0 135 c0 154 -10 186 -61 204
-18 6 -32 10 -33 10 -1 -1 -10 -3 -21 -6z"/>
<path d="M1009 1184 c-84 -83 -109 -114 -109 -134 0 -41 28 -60 88 -60 l52 0
0 -135 c0 -79 5 -144 11 -159 24 -52 108 -66 146 -24 15 17 19 44 23 167 l5
146 58 5 c62 6 87 24 87 63 0 24 -195 222 -228 232 -20 6 -40 -9 -133 -101z"/>
</g>
</svg>
