<?xml version="1.0" standalone="no"?>
<!DOCTYPE svg PUBLIC "-//W3C//DTD SVG 20010904//EN"
 "http://www.w3.org/TR/2001/REC-SVG-20010904/DTD/svg10.dtd">
<svg version="1.0" xmlns="http://www.w3.org/2000/svg"
 width="192.000000pt" height="192.000000pt" viewBox="0 0 192.000000 192.000000"
 preserveAspectRatio="xMidYMid meet">
<metadata>
Created by potrace 1.16, written by Peter Selinger 2001-2019
</metadata>
<g transform="translate(0.000000,192.000000) scale(0.100000,-0.100000)"
fill="#000000" stroke="none">
811 c445 -92 729 -532 635 -987 -62 -301 -295 -546 -601 -630 -91 -26 -329
-26 -420 0 -291 80 -516 305 -596 596 -26 91 -26 329 0 420 120 433 542 692
982 601z"/>
<path d="M1143 1353 c-9 -3 -13 -30 -13 -83 0 -90 -4 -84 123 -154 85 -48 97
-41 97 48 0 79 -11 94 -107 148 -90 50 -85 48 -100 41z"/>
<path d="M902 1268 c-8 -8 -12 -50 -12 -123 0 -94 3 -114 18 -127 35 -30 250
-148 270 -148 28 0 32 17 32 135 l0 104 -32 24 c-43 31 -244 147 -255 147 -5
0 -14 -5 -21 -12z"/>
<path d="M577 1132 c-14 -15 -17 -42 -17 -158 0 -90 5 -147 13 -163 7 -15 78
-62 187 -125 96 -56 182 -105 191 -108 9 -4 26 0 38 8 20 14 21 24 21 168 0
145 -1 153 -22 173 -24 22 -372 223 -386 223 -5 0 -16 -8 -25 -18z"/>
</g>
</svg>
