<?xml version="1.0" standalone="no"?>
<!DOCTYPE svg PUBLIC "-//W3C//DTD SVG 20010904//EN"
 "http://www.w3.org/TR/2001/REC-SVG-20010904/DTD/svg10.dtd">
<svg version="1.0" xmlns="http://www.w3.org/2000/svg"
 width="192.000000pt" height="192.000000pt" viewBox="0 0 192.000000 192.000000"
 preserveAspectRatio="xMidYMid meet">
<metadata>
Created by potrace 1.16, written by Peter Selinger 2001-2019
</metadata>
<g transform="translate(0.000000,192.000000) scale(0.100000,-0.100000)"
fill="#000000" stroke="none">
811 c445 -92 729 -532 635 -987 -62 -301 -295 -546 -601 -630 -91 -26 -329
-26 -420 0 -291 80 -516 305 -596 596 -26 91 -26 329 0 420 120 433 542 692
982 601z"/>
<path d="M821 1345 c-68 -19 -174 -70 -192 -92 -11 -13 -14 -55 -12 -194 3
-251 9 -264 204 -410 66 -49 116 -79 131 -79 16 0 70 34 150 94 112 84 129
101 154 153 28 56 29 63 32 239 l4 181 -38 31 c-69 57 -155 85 -274 89 -71 2
-122 -2 -159 -12z m179 -256 l0 -79 35 0 c22 0 38 -6 41 -15 8 -19 -136 -195
-156 -192 -12 2 -16 21 -18 85 l-3 82 -34 0 c-19 0 -37 5 -40 10 -6 9 122 173
149 192 20 14 26 -5 26 -83z"/>
</g>
</svg>
