<?xml version="1.0" standalone="no"?>
<!DOCTYPE svg PUBLIC "-//W3C//DTD SVG 20010904//EN"
 "http://www.w3.org/TR/2001/REC-SVG-20010904/DTD/svg10.dtd">
<svg version="1.0" xmlns="http://www.w3.org/2000/svg"
 width="192.000000pt" height="192.000000pt" viewBox="0 0 192.000000 192.000000"
 preserveAspectRatio="xMidYMid meet">
<metadata>
Created by potrace 1.16, written by Peter Selinger 2001-2019
</metadata>
<g transform="translate(0.000000,192.000000) scale(0.100000,-0.100000)"
fill="#000000" stroke="none">
811 c445 -92 729 -532 635 -987 -62 -301 -295 -546 -601 -630 -91 -26 -329
-26 -420 0 -291 80 -516 305 -596 596 -26 91 -26 329 0 420 120 433 542 692
982 601z"/>
<path d="M1012 1362 c-10 -10 -34 -45 -52 -78 -18 -32 -34 -60 -36 -62 -1 -2
-12 6 -23 17 -33 33 -74 27 -111 -16 -43 -53 -147 -265 -166 -342 -44 -178 44
-315 210 -328 57 -5 72 -2 120 21 31 15 68 42 83 60 21 25 40 36 71 41 62 10
132 61 165 120 55 99 25 246 -95 461 -24 42 -53 87 -65 100 -27 29 -75 32
-101 6z m128 -247 c82 -178 81 -274 -3 -325 -44 -27 -47 -26 -47 18 0 52 -24
129 -70 226 l-38 80 30 61 c46 91 47 92 76 43 13 -24 37 -70 52 -103z"/>
</g>
</svg>
