<?xml version="1.0" standalone="no"?>
<!DOCTYPE svg PUBLIC "-//W3C//DTD SVG 20010904//EN"
 "http://www.w3.org/TR/2001/REC-SVG-20010904/DTD/svg10.dtd">
<svg version="1.0" xmlns="http://www.w3.org/2000/svg"
 width="192.000000pt" height="192.000000pt" viewBox="0 0 192.000000 192.000000"
 preserveAspectRatio="xMidYMid meet">
<metadata>
Created by potrace 1.16, written by Peter Selinger 2001-2019
</metadata>
<g transform="translate(0.000000,192.000000) scale(0.100000,-0.100000)"
fill="#000000" stroke="none">
810 c245 -63 441 -223 549 -451 55 -116 75 -212 75 -354 0 -141 -20 -238 -75
-352 -86 -182 -215 -312 -396 -398 -116 -55 -212 -75 -354 -75 -142 0 -238 20
-354 75 -228 108 -388 304 -451 549 -28 110 -28 292 0 402 76 298 303 526 600
603 106 28 298 28 406 1z"/>
<path d="M556 1254 c-21 -21 -20 -40 4 -64 19 -19 33 -20 395 -20 362 0 376 1
395 20 24 24 24 29 4 58 l-15 22 -384 0 c-335 0 -386 -2 -399 -16z"/>
<path d="M645 1111 c-86 -39 -104 -87 -105 -272 0 -118 3 -140 18 -159 24 -30
68 -21 82 16 6 14 10 86 10 160 0 123 2 136 21 155 16 16 28 20 53 15 51 -10
56 -26 56 -172 0 -150 7 -180 46 -190 21 -6 31 -2 46 16 15 19 18 42 18 164 0
77 4 146 8 152 9 15 47 34 65 34 8 0 25 -8 37 -18 21 -17 22 -25 21 -153 -1
-75 3 -148 8 -162 15 -38 59 -47 83 -17 15 19 18 42 18 164 0 77 4 146 8 152
9 15 47 34 65 34 8 0 25 -9 38 -19 23 -18 24 -26 29 -177 l5 -159 27 -9 c22
-8 32 -6 48 9 18 17 20 30 20 164 -1 191 -19 237 -113 276 -50 21 -86 19 -137
-8 l-43 -23 -45 23 c-57 29 -96 29 -152 1 l-45 -23 -44 23 c-54 27 -93 28
-146 3z"/>
</g>
</svg>
