<?xml version="1.0" standalone="no"?>
<!DOCTYPE svg PUBLIC "-//W3C//DTD SVG 20010904//EN"
 "http://www.w3.org/TR/2001/REC-SVG-20010904/DTD/svg10.dtd">
<svg version="1.0" xmlns="http://www.w3.org/2000/svg"
 width="192.000000pt" height="192.000000pt" viewBox="0 0 192.000000 192.000000"
 preserveAspectRatio="xMidYMid meet">
<metadata>
Created by potrace 1.16, written by Peter Selinger 2001-2019
</metadata>
<g transform="translate(0.000000,192.000000) scale(0.100000,-0.100000)"
fill="#000000" stroke="none">
811 c445 -92 729 -532 635 -987 -62 -301 -295 -546 -601 -630 -91 -26 -329
-26 -420 0 -291 80 -516 305 -596 596 -26 91 -26 329 0 420 120 433 542 692
982 601z"/>
<path d="M695 1323 c-46 -24 -76 -54 -96 -98 -16 -35 -19 -68 -19 -261 0 -212
1 -223 23 -265 13 -24 43 -57 66 -74 l43 -30 243 0 243 0 43 30 c23 17 53 50
66 74 22 42 23 53 23 263 0 233 -5 265 -53 317 -50 55 -83 61 -327 60 -186 0
-230 -3 -255 -16z m506 -66 c63 -42 69 -68 69 -292 0 -171 -3 -205 -18 -234
-24 -49 -59 -70 -117 -73 l-50 -3 -5 63 c-4 45 -2 62 7 62 27 0 31 35 12 135
-10 55 -18 114 -19 132 0 30 -15 48 -64 78 -14 8 -15 15 -5 43 9 27 8 37 -5
57 -35 53 -93 10 -81 -58 6 -33 5 -35 -28 -46 -24 -8 -39 -22 -47 -41 -11 -27
-17 -30 -61 -30 -42 0 -49 3 -49 20 0 16 7 20 30 20 29 0 30 1 30 51 l0 50
-47 -3 c-42 -3 -48 -6 -51 -27 -4 -22 -1 -23 32 -17 28 5 36 4 36 -8 0 -9 -12
-16 -32 -18 -32 -3 -33 -5 -36 -50 l-3 -48 64 0 c35 0 66 -2 69 -5 7 -8 -29
-146 -42 -159 -8 -8 -13 -7 -21 4 -8 13 -11 12 -24 -4 -19 -25 -19 -42 0 -50
12 -4 14 -19 11 -71 -2 -37 -7 -69 -11 -73 -10 -10 -55 20 -79 51 -20 26 -21
43 -24 240 -3 238 2 261 67 304 33 22 42 23 246 23 204 0 213 -1 246 -23z
m-319 -422 c-8 -33 -11 -36 -17 -20 -4 11 -11 29 -16 40 -9 19 -5 38 27 110
13 29 17 -78 6 -130z m194 4 c5 -49 -8 -30 -21 31 -5 27 -4 32 5 24 6 -6 14
-31 16 -55z m-73 -151 c6 -37 5 -38 -27 -38 -18 0 -35 3 -39 6 -5 5 19 99 31
119 7 12 27 -38 35 -87z m-144 0 c-5 -18 -9 -34 -9 -35 0 -2 -16 -3 -35 -3
-30 0 -35 3 -35 23 0 32 18 47 56 47 32 0 32 -1 23 -32z"/>
</g>
</svg>
