<?xml version="1.0" standalone="no"?>
<!DOCTYPE svg PUBLIC "-//W3C//DTD SVG 20010904//EN"
 "http://www.w3.org/TR/2001/REC-SVG-20010904/DTD/svg10.dtd">
<svg version="1.0" xmlns="http://www.w3.org/2000/svg"
 width="192.000000pt" height="192.000000pt" viewBox="0 0 192.000000 192.000000"
 preserveAspectRatio="xMidYMid meet">
<metadata>
Created by potrace 1.16, written by Peter Selinger 2001-2019
</metadata>
<g transform="translate(0.000000,192.000000) scale(0.100000,-0.100000)"
fill="#000000" stroke="none">
811 c445 -92 729 -532 635 -987 -62 -301 -295 -546 -601 -630 -91 -26 -329
-26 -420 0 -291 80 -516 305 -596 596 -26 91 -26 329 0 420 120 433 542 692
982 601z"/>
<path d="M695 1321 c-48 -22 -79 -54 -100 -103 -12 -30 -15 -81 -15 -256 0
-210 1 -221 23 -263 13 -24 43 -57 66 -74 l43 -30 243 0 243 0 43 30 c23 17
53 50 66 74 22 42 23 53 23 263 0 233 -5 265 -53 317 -50 54 -83 61 -322 61
-193 0 -225 -3 -260 -19z m506 -64 c63 -42 69 -68 69 -292 0 -171 -3 -205 -18
-234 -24 -49 -59 -70 -117 -73 l-50 -3 -5 63 c-4 45 -2 62 7 62 27 0 31 35 12
135 -10 55 -18 114 -19 132 0 30 -15 48 -64 78 -14 8 -15 15 -5 43 9 27 8 37
-5 57 -35 53 -93 10 -81 -58 6 -33 5 -35 -28 -46 -37 -12 -52 -37 -61 -101
-11 -68 -34 -152 -45 -163 -9 -9 -14 -8 -22 3 -8 13 -11 12 -24 -4 -19 -25
-19 -42 0 -50 12 -4 14 -19 11 -71 -2 -37 -7 -69 -11 -73 -10 -10 -55 20 -79
51 -20 26 -21 43 -24 240 -3 238 2 261 67 304 33 22 42 23 246 23 204 0 213
-1 246 -23z m-319 -422 c-8 -33 -11 -36 -17 -20 -4 11 -11 29 -16 40 -9 19 -5
38 27 110 13 29 17 -78 6 -130z m194 4 c5 -49 -8 -30 -21 31 -5 27 -4 32 5 24
6 -6 14 -31 16 -55z m-73 -151 c6 -37 5 -38 -27 -38 -18 0 -35 3 -39 6 -5 5
19 99 31 119 7 12 27 -38 35 -87z m-144 0 c-5 -18 -9 -34 -9 -35 0 -2 -16 -3
-35 -3 -30 0 -35 3 -35 23 0 32 18 47 56 47 32 0 32 -1 23 -32z"/>
</g>
</svg>
