<?xml version="1.0" standalone="no"?>
<!DOCTYPE svg PUBLIC "-//W3C//DTD SVG 20010904//EN"
 "http://www.w3.org/TR/2001/REC-SVG-20010904/DTD/svg10.dtd">
<svg version="1.0" xmlns="http://www.w3.org/2000/svg"
 width="192.000000pt" height="192.000000pt" viewBox="0 0 192.000000 192.000000"
 preserveAspectRatio="xMidYMid meet">
<metadata>
Created by potrace 1.16, written by Peter Selinger 2001-2019
</metadata>
<g transform="translate(0.000000,192.000000) scale(0.100000,-0.100000)"
fill="#000000" stroke="none">
811 c445 -92 729 -532 635 -987 -62 -301 -295 -546 -601 -630 -91 -26 -329
-26 -420 0 -291 80 -516 305 -596 596 -26 91 -26 329 0 420 120 433 542 692
982 601z"/>
<path d="M880 1397 c-52 -27 -90 -90 -90 -149 0 -35 -2 -38 -27 -38 -44 0
-110 -46 -140 -98 -27 -45 -28 -52 -28 -187 0 -131 2 -144 26 -190 15 -30 42
-62 68 -80 36 -25 54 -30 115 -33 l73 -4 102 180 c56 100 109 186 117 193 21
18 63 2 70 -26 5 -20 -12 -58 -80 -176 -47 -84 -86 -156 -86 -160 0 -5 38 -9
83 -9 107 0 158 24 202 95 30 48 30 49 30 199 0 147 -1 152 -27 198 -30 49
-80 87 -132 97 -29 6 -31 10 -36 58 -7 64 -32 101 -90 131 -56 28 -96 28 -150
-1z m143 -88 c23 -29 23 -95 -1 -101 -11 -3 -38 -52 -76 -139 -33 -74 -64
-140 -69 -147 -6 -7 -22 -12 -36 -10 -41 5 -37 41 19 165 27 62 50 117 50 123
0 5 -9 10 -20 10 -34 0 -27 64 10 102 27 26 36 30 68 25 20 -4 45 -16 55 -28z"/>
</g>
</svg>
