<?xml version="1.0" standalone="no"?>
<!DOCTYPE svg PUBLIC "-//W3C//DTD SVG 20010904//EN"
 "http://www.w3.org/TR/2001/REC-SVG-20010904/DTD/svg10.dtd">
<svg version="1.0" xmlns="http://www.w3.org/2000/svg"
 width="192.000000pt" height="192.000000pt" viewBox="0 0 192.000000 192.000000"
 preserveAspectRatio="xMidYMid meet">
<metadata>
Created by potrace 1.16, written by Peter Selinger 2001-2019
</metadata>
<g transform="translate(0.000000,192.000000) scale(0.100000,-0.100000)"
fill="#000000" stroke="none">
811 c445 -92 729 -532 635 -987 -62 -301 -295 -546 -601 -630 -91 -26 -329
-26 -420 0 -291 80 -516 305 -596 596 -26 91 -26 329 0 420 120 433 542 692
982 601z"/>
<path d="M792 1359 c-121 -20 -223 -95 -238 -174 -19 -103 21 -237 116 -391
58 -95 104 -147 126 -142 9 2 91 135 183 297 92 162 175 299 184 305 22 14 51
-3 55 -33 2 -13 -59 -131 -167 -320 -94 -164 -171 -303 -171 -309 0 -18 35
-32 77 -32 83 1 176 69 256 188 127 191 177 362 134 463 -31 72 -134 138 -220
142 l-41 2 -93 -160 c-62 -109 -98 -161 -111 -163 -39 -6 -29 28 45 157 46 81
73 140 71 154 -3 20 -8 22 -78 24 -41 0 -99 -3 -128 -8z"/>
</g>
</svg>
