<?xml version="1.0" standalone="no"?>
<!DOCTYPE svg PUBLIC "-//W3C//DTD SVG 20010904//EN"
 "http://www.w3.org/TR/2001/REC-SVG-20010904/DTD/svg10.dtd">
<svg version="1.0" xmlns="http://www.w3.org/2000/svg"
 width="192.000000pt" height="192.000000pt" viewBox="0 0 192.000000 192.000000"
 preserveAspectRatio="xMidYMid meet">
<metadata>
Created by potrace 1.16, written by Peter Selinger 2001-2019
</metadata>
<g transform="translate(0.000000,192.000000) scale(0.100000,-0.100000)"
fill="#000000" stroke="none">
811 c445 -92 729 -532 635 -987 -62 -301 -295 -546 -601 -630 -91 -26 -329
-26 -420 0 -291 80 -516 305 -596 596 -26 91 -26 329 0 420 120 433 542 692
982 601z"/>
<path d="M695 1324 c-100 -52 -116 -104 -113 -367 l3 -197 63 55 c35 30 70 55
78 55 9 0 30 -11 48 -25 18 -14 36 -25 40 -25 4 0 42 32 84 70 42 39 79 70 82
70 4 0 27 -16 53 -36 31 -24 50 -33 60 -27 7 4 62 51 121 103 l108 95 -4 61
c-5 76 -40 134 -98 164 -36 18 -58 20 -267 20 -187 0 -233 -3 -258 -16z m375
-114 c0 -5 -4 -10 -10 -10 -5 0 -10 5 -10 10 0 6 5 10 10 10 6 0 10 -4 10 -10z
m-370 -50 c0 -27 -4 -50 -10 -50 -5 0 -10 23 -10 50 0 28 5 50 10 50 6 0 10
-22 10 -50z m333 37 c3 -7 3 -25 0 -40 -3 -16 -1 -27 6 -27 6 0 11 14 11 30 0
17 5 30 10 30 6 0 10 -17 10 -38 l0 -38 -100 -1 c-88 -1 -102 1 -114 18 -13
20 -14 19 -19 -1 -8 -31 -33 -24 -45 13 l-10 32 -1 -32 c-1 -40 -18 -44 -23
-5 -2 15 -7 27 -13 27 -5 0 -11 -12 -13 -27 -5 -42 -22 -33 -22 10 l0 39 50 0
c36 1 50 -3 50 -13 0 -8 5 -14 10 -14 6 0 10 7 10 15 0 8 7 15 16 15 8 0 12
-5 9 -11 -4 -6 2 -5 14 3 17 10 25 10 41 1 13 -9 21 -9 26 -2 3 6 19 9 35 7
17 -3 30 1 33 9 7 17 22 17 29 0z m114 -24 c5 -14 7 -14 15 0 5 9 21 15 38 15
29 -1 30 -3 30 -44 0 -46 -23 -70 -54 -58 -19 7 -21 24 -3 24 8 0 9 3 1 8 -6
4 -14 14 -17 22 -4 10 -6 8 -6 -7 -1 -32 -19 -28 -23 5 -2 15 -7 27 -13 27 -5
0 -11 -12 -13 -27 -5 -42 -22 -33 -22 10 0 37 2 39 31 40 19 0 32 -5 36 -15z"/>
<path d="M960 1166 c0 -2 9 -6 20 -9 11 -3 20 -1 20 4 0 5 -9 9 -20 9 -11 0
-20 -2 -20 -4z"/>
<path d="M895 1141 c-14 -6 -6 -8 28 -8 28 0 42 4 35 9 -16 10 -37 9 -63 -1z"/>
<path d="M1182 1154 c2 -11 8 -18 13 -16 15 3 12 25 -3 30 -9 3 -13 -2 -10
-14z"/>
<path d="M1190 1109 c0 -5 5 -7 10 -4 6 3 10 8 10 11 0 2 -4 4 -10 4 -5 0 -10
-5 -10 -11z"/>
<path d="M1200 905 c-58 -52 -112 -95 -121 -95 -9 0 -22 7 -29 15 -7 9 -26 25
-41 36 l-28 20 -77 -71 c-42 -38 -84 -70 -92 -70 -8 0 -30 14 -49 30 l-34 30
-60 -51 c-32 -29 -59 -58 -59 -64 0 -16 65 -74 97 -86 13 -5 125 -9 249 -9
257 0 281 6 331 82 27 40 28 48 31 185 2 79 0 143 -5 142 -4 0 -55 -43 -113
-94z"/>
</g>
</svg>
