<?xml version="1.0" standalone="no"?>
<!DOCTYPE svg PUBLIC "-//W3C//DTD SVG 20010904//EN"
 "http://www.w3.org/TR/2001/REC-SVG-20010904/DTD/svg10.dtd">
<svg version="1.0" xmlns="http://www.w3.org/2000/svg"
 width="192.000000pt" height="192.000000pt" viewBox="0 0 192.000000 192.000000"
 preserveAspectRatio="xMidYMid meet">
<metadata>
Created by potrace 1.16, written by Peter Selinger 2001-2019
</metadata>
<g transform="translate(0.000000,192.000000) scale(0.100000,-0.100000)"
fill="#000000" stroke="none">
811 c445 -92 729 -532 635 -987 -62 -301 -295 -546 -601 -630 -91 -26 -329
-26 -420 0 -291 80 -516 305 -596 596 -26 91 -26 329 0 420 120 433 542 692
982 601z"/>
<path d="M832 1358 c-7 -7 -12 -33 -12 -59 l0 -46 -41 -6 c-53 -7 -96 -48
-111 -104 -10 -43 -10 -43 -57 -43 -52 0 -71 -13 -71 -47 0 -28 27 -43 79 -43
l41 0 0 -45 0 -45 -48 0 c-53 0 -72 -12 -72 -47 0 -28 27 -43 78 -43 38 0 40
-1 51 -44 13 -54 57 -93 112 -102 39 -7 39 -7 39 -53 0 -49 13 -71 41 -71 30
0 49 29 49 76 l0 44 45 0 45 0 0 -38 c0 -44 23 -82 50 -82 27 0 50 38 50 81 0
34 3 37 35 43 52 10 104 60 111 107 6 38 7 38 57 41 62 4 87 30 61 66 -12 18
-25 22 -65 22 l-49 0 0 45 0 45 49 0 c39 0 53 4 65 21 15 22 11 48 -8 61 -6 4
-32 8 -58 8 -42 0 -48 3 -48 20 0 64 -63 130 -122 130 -26 0 -28 3 -28 41 0
56 -14 79 -50 79 -36 0 -50 -23 -50 -79 l0 -41 -45 0 -45 0 0 48 c0 52 -12 72
-45 72 -12 0 -26 -5 -33 -12z m318 -217 c6 -11 10 -88 10 -177 0 -132 -3 -160
-17 -176 -14 -16 -34 -18 -188 -18 -120 0 -175 4 -183 12 -17 17 -17 349 0
366 8 8 65 12 190 12 165 0 178 -1 188 -19z"/>
<path d="M883 1080 c-59 -36 -81 -121 -46 -180 51 -87 184 -89 240 -4 21 33
21 105 -1 139 -41 62 -131 83 -193 45z m105 -82 c32 -32 -4 -87 -48 -73 -25 8
-37 50 -20 70 15 18 51 20 68 3z"/>
</g>
</svg>
