<?xml version="1.0" standalone="no"?>
<!DOCTYPE svg PUBLIC "-//W3C//DTD SVG 20010904//EN"
 "http://www.w3.org/TR/2001/REC-SVG-20010904/DTD/svg10.dtd">
<svg version="1.0" xmlns="http://www.w3.org/2000/svg"
 width="192.000000pt" height="192.000000pt" viewBox="0 0 192.000000 192.000000"
 preserveAspectRatio="xMidYMid meet">
<metadata>
Created by potrace 1.16, written by Peter Selinger 2001-2019
</metadata>
<g transform="translate(0.000000,192.000000) scale(0.100000,-0.100000)"
fill="#000000" stroke="none">
811 c445 -92 729 -532 635 -987 -62 -301 -295 -546 -601 -630 -91 -26 -329
-26 -420 0 -291 80 -516 305 -596 596 -26 91 -26 329 0 420 120 433 542 692
982 601z"/>
<path d="M594 1317 c-55 -48 -25 -127 47 -127 29 0 42 6 58 26 28 36 26 60 -8
95 -36 35 -61 37 -97 6z"/>
<path d="M604 1118 c-39 -18 -44 -49 -44 -264 l0 -206 29 -29 c37 -37 65 -37
102 0 l29 29 0 206 c0 218 -5 246 -47 265 -29 13 -41 13 -69 -1z"/>
<path d="M1000 1115 c-151 -48 -226 -234 -152 -376 82 -158 289 -193 415 -71
133 128 107 339 -52 426 -64 34 -145 42 -211 21z"/>
</g>
</svg>
