<?xml version="1.0" standalone="no"?>
<!DOCTYPE svg PUBLIC "-//W3C//DTD SVG 20010904//EN"
 "http://www.w3.org/TR/2001/REC-SVG-20010904/DTD/svg10.dtd">
<svg version="1.0" xmlns="http://www.w3.org/2000/svg"
 width="192.000000pt" height="192.000000pt" viewBox="0 0 192.000000 192.000000"
 preserveAspectRatio="xMidYMid meet">
<metadata>
Created by potrace 1.16, written by Peter Selinger 2001-2019
</metadata>
<g transform="translate(0.000000,192.000000) scale(0.100000,-0.100000)"
fill="#000000" stroke="none">
811 c445 -92 729 -532 635 -987 -62 -301 -295 -546 -601 -630 -91 -26 -329
-26 -420 0 -291 80 -516 305 -596 596 -26 91 -26 329 0 420 120 433 542 692
982 601z"/>
<path d="M1026 1346 c-21 -13 -49 -41 -62 -62 -28 -45 -32 -94 -9 -94 62 0
145 84 145 147 0 41 -18 43 -74 9z"/>
<path d="M733 1161 c-53 -25 -98 -87 -114 -158 -26 -113 28 -278 121 -375 53
-55 61 -57 173 -27 41 11 55 10 101 -4 64 -21 89 -21 124 -3 30 15 77 77 111
143 l21 43 -44 42 c-78 76 -82 168 -10 247 l34 39 -35 30 c-53 47 -118 53
-228 21 -42 -12 -53 -11 -96 4 -62 22 -106 21 -158 -2z"/>
</g>
</svg>
