<?xml version="1.0" standalone="no"?>
<!DOCTYPE svg PUBLIC "-//W3C//DTD SVG 20010904//EN"
 "http://www.w3.org/TR/2001/REC-SVG-20010904/DTD/svg10.dtd">
<svg version="1.0" xmlns="http://www.w3.org/2000/svg"
 width="192.000000pt" height="192.000000pt" viewBox="0 0 192.000000 192.000000"
 preserveAspectRatio="xMidYMid meet">
<metadata>
Created by potrace 1.16, written by Peter Selinger 2001-2019
</metadata>
<g transform="translate(0.000000,192.000000) scale(0.100000,-0.100000)"
fill="#000000" stroke="none">
811 c445 -92 729 -532 635 -987 -62 -301 -295 -546 -601 -630 -91 -26 -329
-26 -420 0 -291 80 -516 305 -596 596 -26 91 -26 329 0 420 120 433 542 692
982 601z"/>
<path d="M853 1365 c-80 -22 -131 -52 -190 -111 -92 -92 -136 -223 -116 -347
23 -138 108 -252 232 -311 61 -29 74 -31 176 -31 104 0 114 2 176 32 80 40
159 120 197 200 24 52 27 69 27 168 0 102 -2 115 -31 176 -85 178 -286 274
-471 224z m340 -196 c29 -16 37 -28 37 -64 0 -25 -24 -54 -157 -187 -194 -194
-185 -192 -301 -83 -89 84 -111 122 -94 161 13 28 53 47 79 37 10 -3 42 -29
71 -57 l52 -51 118 117 c143 142 154 148 195 127z"/>
</g>
</svg>
