<?xml version="1.0" standalone="no"?>
<!DOCTYPE svg PUBLIC "-//W3C//DTD SVG 20010904//EN"
 "http://www.w3.org/TR/2001/REC-SVG-20010904/DTD/svg10.dtd">
<svg version="1.0" xmlns="http://www.w3.org/2000/svg"
 width="192.000000pt" height="192.000000pt" viewBox="0 0 192.000000 192.000000"
 preserveAspectRatio="xMidYMid meet">
<metadata>
Created by potrace 1.16, written by Peter Selinger 2001-2019
</metadata>
<g transform="translate(0.000000,192.000000) scale(0.100000,-0.100000)"
fill="#000000" stroke="none">
810 c245 -63 441 -223 549 -451 55 -116 75 -212 75 -354 0 -141 -20 -238 -75
-352 -86 -182 -215 -312 -396 -398 -116 -55 -212 -75 -354 -75 -142 0 -238 20
-354 75 -228 108 -388 304 -451 549 -28 110 -28 292 0 402 76 298 303 526 600
603 106 28 298 28 406 1z"/>
<path d="M682 1348 c-7 -7 -12 -42 -12 -87 l0 -76 -47 -15 c-79 -25 -88 -47
-88 -210 0 -163 9 -185 88 -209 l47 -15 0 -63 c0 -110 -19 -103 278 -103 187
0 261 3 270 12 7 7 12 41 12 84 l0 72 40 7 c27 5 49 17 70 41 l30 35 0 135 c0
103 -4 142 -16 165 -15 31 -66 59 -104 59 -18 0 -20 6 -20 78 0 47 -5 83 -12
90 -17 17 -519 17 -536 0z m458 -118 l0 -50 -190 0 -190 0 0 50 0 50 190 0
190 0 0 -50z m0 -480 l0 -100 -187 2 -188 3 -3 98 -3 97 191 0 190 0 0 -100z"/>
</g>
</svg>
