<?xml version="1.0" standalone="no"?>
<!DOCTYPE svg PUBLIC "-//W3C//DTD SVG 20010904//EN"
 "http://www.w3.org/TR/2001/REC-SVG-20010904/DTD/svg10.dtd">
<svg version="1.0" xmlns="http://www.w3.org/2000/svg"
 width="192.000000pt" height="192.000000pt" viewBox="0 0 192.000000 192.000000"
 preserveAspectRatio="xMidYMid meet">
<metadata>
Created by potrace 1.16, written by Peter Selinger 2001-2019
</metadata>
<g transform="translate(0.000000,192.000000) scale(0.100000,-0.100000)"
fill="#000000" stroke="none">
811 c445 -92 729 -532 635 -987 -62 -301 -295 -546 -601 -630 -91 -26 -329
-26 -420 0 -291 80 -516 305 -596 596 -26 91 -26 329 0 420 120 433 542 692
982 601z"/>
<path d="M425 1138 c-3 -8 -4 -81 -3 -163 l3 -150 50 0 50 0 0 160 0 160 -48
3 c-33 2 -49 -1 -52 -10z"/>
<path d="M620 1138 c-42 -23 -51 -53 -48 -165 4 -122 16 -142 93 -150 30 -4
51 -12 58 -24 9 -14 24 -19 59 -19 49 0 61 13 36 38 -9 9 -10 15 -2 20 25 16
34 56 34 151 0 91 -2 102 -24 128 -22 25 -31 28 -103 31 -50 2 -87 -2 -103
-10z m130 -154 l0 -85 -37 3 -38 3 -3 69 c-4 88 0 96 43 96 l35 0 0 -86z"/>
<path d="M896 1135 c-9 -25 -7 -288 3 -303 5 -9 24 -12 52 -10 l44 3 0 160 0
160 -46 3 c-36 2 -48 -1 -53 -13z"/>
<path d="M1025 1140 c-3 -5 20 -54 52 -107 46 -78 59 -109 63 -153 l5 -55 45
0 45 0 5 55 c4 44 17 74 64 152 32 53 55 102 51 107 -7 12 -74 15 -91 3 -6 -4
-24 -31 -40 -59 -16 -29 -31 -53 -34 -53 -3 0 -20 27 -38 60 -32 59 -33 60
-77 60 -24 0 -47 -4 -50 -10z"/>
<path d="M1385 1138 c-3 -8 -4 -81 -3 -163 l3 -150 50 0 50 0 0 160 0 160 -48
3 c-33 2 -49 -1 -52 -10z"/>
</g>
</svg>
