<?xml version="1.0" standalone="no"?>
<!DOCTYPE svg PUBLIC "-//W3C//DTD SVG 20010904//EN"
 "http://www.w3.org/TR/2001/REC-SVG-20010904/DTD/svg10.dtd">
<svg version="1.0" xmlns="http://www.w3.org/2000/svg"
 width="192.000000pt" height="192.000000pt" viewBox="0 0 192.000000 192.000000"
 preserveAspectRatio="xMidYMid meet">
<metadata>
Created by potrace 1.16, written by Peter Selinger 2001-2019
</metadata>
<g transform="translate(0.000000,192.000000) scale(0.100000,-0.100000)"
fill="#000000" stroke="none">
811 c445 -92 729 -532 635 -987 -62 -301 -295 -546 -601 -630 -91 -26 -329
-26 -420 0 -291 80 -516 305 -596 596 -26 91 -26 329 0 420 120 433 542 692
982 601z"/>
<path d="M888 1330 c-118 -20 -235 -109 -286 -218 -22 -47 -26 -71 -27 -142 0
-92 10 -126 58 -204 55 -88 214 -179 282 -162 34 9 65 45 65 76 0 41 -24 65
-88 89 -62 22 -123 77 -142 127 -28 72 3 181 63 226 53 40 91 51 162 46 104
-6 147 -45 208 -184 10 -23 46 -44 77 -44 10 0 31 11 47 24 36 31 36 81 -1
154 -79 156 -246 240 -418 212z"/>
<path d="M971 944 c-23 -30 -27 -71 -8 -94 7 -9 64 -66 129 -128 103 -99 120
-112 151 -112 27 0 41 7 61 31 14 17 26 40 26 52 0 14 -44 65 -128 149 -123
123 -130 128 -169 128 -33 0 -46 -5 -62 -26z"/>
</g>
</svg>
