<?xml version="1.0" standalone="no"?>
<!DOCTYPE svg PUBLIC "-//W3C//DTD SVG 20010904//EN"
 "http://www.w3.org/TR/2001/REC-SVG-20010904/DTD/svg10.dtd">
<svg version="1.0" xmlns="http://www.w3.org/2000/svg"
 width="192.000000pt" height="192.000000pt" viewBox="0 0 192.000000 192.000000"
 preserveAspectRatio="xMidYMid meet">
<metadata>
Created by potrace 1.16, written by Peter Selinger 2001-2019
</metadata>
<g transform="translate(0.000000,192.000000) scale(0.100000,-0.100000)"
fill="#000000" stroke="none">
811 c445 -92 729 -532 635 -987 -62 -301 -295 -546 -601 -630 -91 -26 -329
-26 -420 0 -291 80 -516 305 -596 596 -26 91 -26 329 0 420 120 433 542 692
982 601z"/>
<path d="M758 1326 c-21 -16 -38 -58 -38 -97 0 -26 -3 -29 -30 -29 -49 0 -98
-25 -106 -54 -15 -62 27 -106 101 -106 l35 0 0 -75 0 -75 -35 0 c-74 0 -116
-44 -101 -106 8 -29 57 -54 106 -54 27 0 30 -3 30 -29 0 -65 33 -110 81 -111
45 0 71 30 77 88 l5 52 73 0 74 0 0 -35 c0 -42 22 -90 45 -99 63 -24 115 24
115 105 0 25 4 29 29 29 81 0 129 52 105 115 -9 23 -57 45 -99 45 l-35 0 0 75
0 75 35 0 c42 0 90 22 99 45 24 63 -24 115 -105 115 -25 0 -29 4 -29 29 0 81
-52 129 -115 105 -23 -9 -45 -57 -45 -99 l0 -35 -75 0 -75 0 0 35 c0 84 -67
133 -122 91z m272 -361 l0 -75 -75 0 -75 0 0 75 0 75 75 0 75 0 0 -75z"/>
</g>
</svg>
