<?xml version="1.0" standalone="no"?>
<!DOCTYPE svg PUBLIC "-//W3C//DTD SVG 20010904//EN"
 "http://www.w3.org/TR/2001/REC-SVG-20010904/DTD/svg10.dtd">
<svg version="1.0" xmlns="http://www.w3.org/2000/svg"
 width="192.000000pt" height="192.000000pt" viewBox="0 0 192.000000 192.000000"
 preserveAspectRatio="xMidYMid meet">
<metadata>
Created by potrace 1.16, written by Peter Selinger 2001-2019
</metadata>
<g transform="translate(0.000000,192.000000) scale(0.100000,-0.100000)"
fill="#000000" stroke="none">
811 c445 -92 729 -532 635 -987 -62 -301 -295 -546 -601 -630 -91 -26 -329
-26 -420 0 -291 80 -516 305 -596 596 -26 91 -26 329 0 420 120 433 542 692
982 601z"/>
<path d="M860 1331 c-97 -31 -161 -104 -176 -199 -5 -32 -12 -43 -35 -52 -41
-17 -87 -73 -95 -115 -23 -124 43 -216 165 -234 57 -8 64 -30 27 -84 l-26 -38
24 -11 c57 -25 137 18 160 87 l14 40 169 5 c103 3 176 10 189 17 37 21 81 79
88 117 18 94 -65 196 -160 196 -22 0 -24 4 -24 45 0 85 -52 165 -135 207 -43
22 -144 33 -185 19z"/>
</g>
</svg>
