<?xml version="1.0" standalone="no"?>
<!DOCTYPE svg PUBLIC "-//W3C//DTD SVG 20010904//EN"
 "http://www.w3.org/TR/2001/REC-SVG-20010904/DTD/svg10.dtd">
<svg version="1.0" xmlns="http://www.w3.org/2000/svg"
 width="192.000000pt" height="192.000000pt" viewBox="0 0 192.000000 192.000000"
 preserveAspectRatio="xMidYMid meet">
<metadata>
Created by potrace 1.16, written by Peter Selinger 2001-2019
</metadata>
<g transform="translate(0.000000,192.000000) scale(0.100000,-0.100000)"
fill="#000000" stroke="none">
811 c445 -92 729 -532 635 -987 -62 -301 -295 -546 -601 -630 -91 -26 -329
-26 -420 0 -291 80 -516 305 -596 596 -26 91 -26 329 0 420 120 433 542 692
982 601z"/>
<path d="M915 1351 c-80 -37 -112 -96 -38 -70 62 21 146 -24 172 -92 l10 -27
-70 -6 c-153 -16 -354 -88 -365 -133 -4 -13 -1 -30 6 -38 10 -12 4 -24 -38
-69 -82 -90 -89 -177 -20 -243 32 -31 75 -53 104 -53 21 0 17 15 -10 45 -45
49 -46 116 -1 170 l25 30 42 -50 c70 -83 141 -149 218 -204 40 -28 77 -51 81
-51 4 0 21 11 38 26 29 24 33 25 88 15 128 -23 225 40 225 146 0 90 -27 124
-44 56 -16 -62 -101 -113 -163 -97 -14 3 -25 8 -25 9 0 2 13 37 30 78 34 85
56 173 66 265 6 52 4 66 -11 82 -10 11 -28 20 -41 20 -18 0 -26 10 -39 53 -23
70 -59 115 -109 138 -52 23 -81 23 -131 0z m45 -326 c55 -29 54 -91 -2 -118
-46 -23 -48 -38 -7 -70 44 -34 30 -47 -52 -47 l-69 0 0 125 0 125 50 0 c28 0
64 -7 80 -15z m135 -110 c0 -116 -1 -120 -22 -123 -15 -2 -36 10 -65 37 -39
37 -41 42 -25 52 54 32 72 84 42 123 -20 27 -9 38 33 34 l37 -3 0 -120z"/>
</g>
</svg>
