<?xml version="1.0" standalone="no"?>
<!DOCTYPE svg PUBLIC "-//W3C//DTD SVG 20010904//EN"
 "http://www.w3.org/TR/2001/REC-SVG-20010904/DTD/svg10.dtd">
<svg version="1.0" xmlns="http://www.w3.org/2000/svg"
 width="192.000000pt" height="192.000000pt" viewBox="0 0 192.000000 192.000000"
 preserveAspectRatio="xMidYMid meet">
<metadata>
Created by potrace 1.16, written by Peter Selinger 2001-2019
</metadata>
<g transform="translate(0.000000,192.000000) scale(0.100000,-0.100000)"
fill="#000000" stroke="none">
811 c445 -92 729 -532 635 -987 -62 -301 -295 -546 -601 -630 -91 -26 -329
-26 -420 0 -291 80 -516 305 -596 596 -26 91 -26 329 0 420 120 433 542 692
982 601z"/>
<path d="M658 1311 c-85 -76 9 -209 110 -157 61 32 72 108 23 157 -40 40 -89
40 -133 0z"/>
<path d="M916 1322 c-16 -26 -34 -147 -24 -159 7 -9 39 -13 97 -13 94 0 111
-8 111 -50 0 -56 -17 -64 -152 -71 -161 -8 -200 -21 -264 -84 -56 -55 -71 -91
-103 -236 -25 -116 -23 -119 89 -119 59 0 91 4 96 12 5 7 26 100 49 207 l41
194 26 -44 c14 -24 65 -117 113 -206 l88 -163 108 0 c142 0 142 1 55 161 -36
66 -66 123 -66 127 1 4 18 19 40 34 81 56 139 175 124 255 -10 55 -40 105 -81
133 -34 23 -46 25 -189 28 -90 2 -154 -1 -158 -6z"/>
</g>
</svg>
