<?xml version="1.0" standalone="no"?>
<!DOCTYPE svg PUBLIC "-//W3C//DTD SVG 20010904//EN"
 "http://www.w3.org/TR/2001/REC-SVG-20010904/DTD/svg10.dtd">
<svg version="1.0" xmlns="http://www.w3.org/2000/svg"
 width="192.000000pt" height="192.000000pt" viewBox="0 0 192.000000 192.000000"
 preserveAspectRatio="xMidYMid meet">
<metadata>
Created by potrace 1.16, written by Peter Selinger 2001-2019
</metadata>
<g transform="translate(0.000000,192.000000) scale(0.100000,-0.100000)"
fill="#000000" stroke="none">
811 c445 -92 729 -532 635 -987 -62 -301 -295 -546 -601 -630 -91 -26 -329
-26 -420 0 -291 80 -516 305 -596 596 -26 91 -26 329 0 420 120 433 542 692
982 601z"/>
<path d="M695 1321 c-49 -22 -91 -69 -105 -119 -7 -24 -10 -119 -8 -263 3
-219 4 -226 27 -261 13 -19 40 -46 59 -59 35 -24 38 -24 287 -24 249 0 252 0
287 24 19 13 46 40 59 59 23 35 24 42 27 261 4 244 -1 279 -45 332 -53 62 -83
69 -328 69 -192 0 -225 -3 -260 -19z m285 -96 c15 -15 30 -40 34 -56 5 -26 10
-29 42 -29 48 0 104 -53 104 -99 l0 -30 -36 24 c-20 14 -42 25 -48 25 -6 0 -1
-7 11 -15 40 -28 51 -127 18 -155 -9 -8 -14 -3 -18 18 -7 33 -40 78 -70 93
-18 9 -20 9 -9 -2 19 -21 15 -83 -8 -104 -20 -18 -20 -17 -20 22 0 25 -7 50
-19 64 l-18 23 -29 -45 c-38 -59 -71 -143 -79 -202 l-7 -47 88 6 c49 4 90 8
92 9 2 2 0 14 -4 29 -8 32 -24 34 -32 4 -6 -21 -7 -21 -12 6 -5 28 -6 29 -23
12 -27 -27 -34 -10 -9 23 l21 29 -22 -5 c-22 -4 -22 -4 2 16 13 12 31 19 41
16 9 -3 23 1 30 10 14 17 60 21 60 5 0 -5 -6 -10 -12 -11 -7 -1 -2 -4 11 -8
35 -9 39 -31 6 -31 -24 0 -25 -1 -11 -16 22 -22 20 -25 -11 -18 -22 6 -25 4
-20 -10 4 -10 10 -28 13 -41 4 -14 16 -26 32 -30 49 -11 112 -38 112 -46 0
-15 -443 -11 -464 4 -16 12 -16 17 14 92 41 103 79 170 131 229 30 34 39 50
31 58 -13 13 -59 15 -89 5 -26 -10 -29 0 -8 27 9 12 33 22 57 26 l43 6 -35 22
c-19 12 -50 22 -67 22 -38 0 -41 9 -12 36 14 12 36 19 64 19 28 0 50 -7 64
-19 12 -11 21 -14 21 -8 0 6 -15 23 -34 39 -19 15 -32 31 -29 36 11 18 85 -1
113 -28z"/>
</g>
</svg>
