<?xml version="1.0" standalone="no"?>
<!DOCTYPE svg PUBLIC "-//W3C//DTD SVG 20010904//EN"
 "http://www.w3.org/TR/2001/REC-SVG-20010904/DTD/svg10.dtd">
<svg version="1.0" xmlns="http://www.w3.org/2000/svg"
 width="192.000000pt" height="192.000000pt" viewBox="0 0 192.000000 192.000000"
 preserveAspectRatio="xMidYMid meet">
<metadata>
Created by potrace 1.16, written by Peter Selinger 2001-2019
</metadata>
<g transform="translate(0.000000,192.000000) scale(0.100000,-0.100000)"
fill="#000000" stroke="none">
811 c445 -92 729 -532 635 -987 -62 -301 -295 -546 -601 -630 -91 -26 -329
-26 -420 0 -291 80 -516 305 -596 596 -26 91 -26 329 0 420 120 433 542 692
982 601z"/>
<path d="M928 1364 c-58 -30 -74 -108 -36 -175 20 -36 20 -39 5 -63 -19 -29
-77 -69 -165 -116 -158 -83 -215 -180 -181 -305 15 -56 92 -128 152 -143 61
-16 443 -16 504 0 60 15 137 87 152 143 35 130 -21 219 -198 315 -93 49 -164
108 -143 117 30 12 82 66 82 84 0 18 -2 19 -30 4 -43 -22 -68 -19 -101 14 -33
33 -38 74 -14 108 19 28 7 35 -27 17z"/>
<path d="M1014 1348 c-5 -8 -18 -18 -28 -22 -15 -5 -17 -9 -8 -18 7 -7 12 -21
12 -33 0 -17 6 -21 35 -21 27 0 35 4 35 17 0 10 5 21 10 24 15 10 12 25 -7 32
-10 4 -23 13 -29 22 -10 13 -12 13 -20 -1z"/>
</g>
</svg>
