<?xml version="1.0" standalone="no"?>
<!DOCTYPE svg PUBLIC "-//W3C//DTD SVG 20010904//EN"
 "http://www.w3.org/TR/2001/REC-SVG-20010904/DTD/svg10.dtd">
<svg version="1.0" xmlns="http://www.w3.org/2000/svg"
 width="192.000000pt" height="192.000000pt" viewBox="0 0 192.000000 192.000000"
 preserveAspectRatio="xMidYMid meet">
<metadata>
Created by potrace 1.16, written by Peter Selinger 2001-2019
</metadata>
<g transform="translate(0.000000,192.000000) scale(0.100000,-0.100000)"
fill="#000000" stroke="none">
811 c445 -92 729 -532 635 -987 -62 -301 -295 -546 -601 -630 -91 -26 -329
-26 -420 0 -291 80 -516 305 -596 596 -26 91 -26 329 0 420 120 433 542 692
982 601z"/>
<path d="M850 1366 c-92 -26 -178 -86 -230 -161 -16 -24 -30 -45 -30 -47 0 -2
44 -3 98 -4 66 -1 124 -8 182 -23 80 -21 127 -40 105 -41 -65 -4 -197 -20
-206 -25 -7 -5 -9 -29 -4 -75 l7 -67 -61 -58 c-59 -56 -75 -85 -48 -85 55 0
394 206 510 310 97 87 72 99 -72 33 -41 -18 -79 -32 -84 -30 -13 4 183 96 222
103 17 4 34 10 37 15 7 12 -66 83 -117 112 -89 52 -214 69 -309 43z"/>
<path d="M1232 1090 l-74 -68 59 -40 c32 -22 75 -58 95 -81 l37 -40 7 35 c14
78 -17 266 -45 264 -3 -1 -39 -32 -79 -70z"/>
<path d="M555 1059 c-17 -27 -8 -173 14 -231 l22 -57 74 72 c63 61 72 74 58
82 -55 34 -121 89 -139 116 -15 21 -24 27 -29 18z"/>
<path d="M1010 923 c-111 -73 -339 -193 -366 -193 -24 0 -15 -19 28 -61 180
-175 474 -143 619 67 16 24 29 45 29 47 0 3 -17 1 -37 -5 -21 -6 -64 -7 -98
-4 -78 9 -218 42 -252 60 -25 13 -20 14 78 21 57 4 110 12 117 17 13 11 17
114 4 122 -4 2 -59 -29 -122 -71z"/>
</g>
</svg>
