<?xml version="1.0" standalone="no"?>
<!DOCTYPE svg PUBLIC "-//W3C//DTD SVG 20010904//EN"
 "http://www.w3.org/TR/2001/REC-SVG-20010904/DTD/svg10.dtd">
<svg version="1.0" xmlns="http://www.w3.org/2000/svg"
 width="192.000000pt" height="192.000000pt" viewBox="0 0 192.000000 192.000000"
 preserveAspectRatio="xMidYMid meet">
<metadata>
Created by potrace 1.16, written by Peter Selinger 2001-2019
</metadata>
<g transform="translate(0.000000,192.000000) scale(0.100000,-0.100000)"
fill="#000000" stroke="none">
811 c445 -92 729 -532 635 -987 -62 -301 -295 -546 -601 -630 -91 -26 -329
-26 -420 0 -291 80 -516 305 -596 596 -26 91 -26 329 0 420 120 433 542 692
982 601z"/>
<path d="M496 1144 c-13 -13 -16 -44 -16 -178 0 -179 4 -190 57 -184 l28 3 3
175 c2 156 1 176 -15 187 -22 17 -38 16 -57 -3z"/>
<path d="M666 1144 c-9 -8 -16 -31 -16 -50 0 -22 -5 -34 -14 -34 -8 0 -16 -7
-20 -15 -7 -20 3 -45 19 -45 9 0 14 -26 17 -91 4 -86 6 -93 32 -116 40 -34
100 -30 104 8 2 19 -4 31 -22 43 -24 15 -26 23 -26 86 0 64 2 69 23 72 16 2
22 10 22 28 0 18 -6 26 -22 28 -19 3 -23 10 -23 42 0 29 -5 42 -19 50 -27 14
-37 13 -55 -6z"/>
<path d="M1285 1123 l-25 -38 26 -3 c19 -3 36 6 60 29 38 36 36 49 -6 49 -23
0 -35 -9 -55 -37z"/>
<path d="M887 1058 c-21 -7 -27 -16 -25 -32 3 -19 8 -21 56 -18 90 5 127 -32
45 -44 -88 -12 -133 -50 -133 -110 0 -67 100 -109 160 -67 17 12 25 13 28 5 2
-7 22 -12 44 -12 l40 0 -4 108 c-4 118 -14 143 -64 167 -36 17 -105 18 -147 3z
m133 -166 c0 -35 -30 -63 -63 -60 -27 2 -33 8 -35 31 -3 21 2 29 20 36 40 17
78 13 78 -7z"/>
<path d="M1163 1063 c-20 -7 -17 -205 2 -244 27 -50 95 -64 152 -30 26 16 32
17 37 5 3 -8 19 -14 41 -14 l36 0 -3 136 c-3 150 -9 163 -61 150 -27 -6 -27
-7 -27 -100 0 -79 -3 -96 -19 -110 -26 -23 -63 -17 -78 14 -7 14 -13 61 -13
106 0 65 -3 83 -16 88 -18 7 -33 7 -51 -1z"/>
</g>
</svg>
