<?xml version="1.0" standalone="no"?>
<!DOCTYPE svg PUBLIC "-//W3C//DTD SVG 20010904//EN"
 "http://www.w3.org/TR/2001/REC-SVG-20010904/DTD/svg10.dtd">
<svg version="1.0" xmlns="http://www.w3.org/2000/svg"
 width="192.000000pt" height="192.000000pt" viewBox="0 0 192.000000 192.000000"
 preserveAspectRatio="xMidYMid meet">
<metadata>
Created by potrace 1.16, written by Peter Selinger 2001-2019
</metadata>
<g transform="translate(0.000000,192.000000) scale(0.100000,-0.100000)"
fill="#000000" stroke="none">
811 c445 -92 729 -532 635 -987 -62 -301 -295 -546 -601 -630 -91 -26 -329
-26 -420 0 -291 80 -516 305 -596 596 -26 91 -26 329 0 420 120 433 542 692
982 601z"/>
<path d="M713 1300 c-50 -30 -66 -62 -61 -120 6 -60 34 -95 89 -111 45 -14 95
0 129 36 31 33 39 114 16 150 -23 35 -74 65 -111 65 -16 0 -44 -9 -62 -20z"/>
<path d="M1099 1187 c-20 -13 -73 -80 -130 -165 l-96 -142 -5 51 c-9 90 -88
134 -172 94 -55 -26 -66 -57 -73 -209 l-6 -132 31 -35 c27 -31 36 -34 84 -34
36 0 62 6 81 19 16 11 71 84 124 163 52 78 96 143 98 143 1 0 0 -56 -3 -124
l-5 -125 31 -30 c25 -26 38 -31 77 -31 53 0 99 21 116 52 11 21 38 304 39 407
0 47 -4 57 -34 87 -28 28 -41 34 -79 34 -29 0 -55 -8 -78 -23z"/>
</g>
</svg>
