<?xml version="1.0" standalone="no"?>
<!DOCTYPE svg PUBLIC "-//W3C//DTD SVG 20010904//EN"
 "http://www.w3.org/TR/2001/REC-SVG-20010904/DTD/svg10.dtd">
<svg version="1.0" xmlns="http://www.w3.org/2000/svg"
 width="192.000000pt" height="192.000000pt" viewBox="0 0 192.000000 192.000000"
 preserveAspectRatio="xMidYMid meet">
<metadata>
Created by potrace 1.16, written by Peter Selinger 2001-2019
</metadata>
<g transform="translate(0.000000,192.000000) scale(0.100000,-0.100000)"
fill="#000000" stroke="none">
810 c245 -63 441 -223 549 -451 55 -116 75 -212 75 -354 0 -141 -20 -238 -75
-352 -86 -182 -215 -312 -396 -398 -116 -55 -212 -75 -354 -75 -142 0 -238 20
-354 75 -228 108 -388 304 -451 549 -28 110 -28 292 0 402 76 298 303 526 600
603 106 28 298 28 406 1z"/>
<path d="M610 1305 c-10 -12 6 -76 81 -335 51 -176 98 -328 105 -338 11 -15
32 -17 159 -17 127 0 148 2 159 17 7 10 54 162 105 338 75 259 91 323 81 335
-16 20 -217 21 -243 3 -12 -9 -29 -70 -57 -197 -22 -101 -42 -186 -45 -189 -3
-3 -5 -3 -5 -1 0 3 -18 88 -40 189 -28 127 -45 189 -57 198 -26 18 -227 17
-243 -3z"/>
</g>
</svg>
