<?xml version="1.0" standalone="no"?>
<!DOCTYPE svg PUBLIC "-//W3C//DTD SVG 20010904//EN"
 "http://www.w3.org/TR/2001/REC-SVG-20010904/DTD/svg10.dtd">
<svg version="1.0" xmlns="http://www.w3.org/2000/svg"
 width="192.000000pt" height="192.000000pt" viewBox="0 0 192.000000 192.000000"
 preserveAspectRatio="xMidYMid meet">
<metadata>
Created by potrace 1.16, written by Peter Selinger 2001-2019
</metadata>
<g transform="translate(0.000000,192.000000) scale(0.100000,-0.100000)"
fill="#000000" stroke="none">
811 c445 -92 729 -532 635 -987 -62 -301 -295 -546 -601 -630 -91 -26 -329
-26 -420 0 -291 80 -516 305 -596 596 -26 91 -26 329 0 420 120 433 542 692
982 601z"/>
<path d="M822 1352 c-115 -41 -210 -132 -255 -245 -16 -39 -21 -75 -21 -142 0
-80 3 -97 31 -157 141 -301 545 -332 723 -56 47 73 63 139 59 244 -3 65 -10
91 -37 146 -41 84 -130 168 -211 199 -80 31 -217 36 -289 11z m238 -153 c95
-43 150 -129 150 -235 0 -151 -127 -265 -281 -251 -180 16 -290 209 -208 368
23 46 102 116 143 128 57 17 148 12 196 -10z"/>
<path d="M887 1160 c-102 -31 -165 -164 -126 -267 12 -33 64 -90 99 -108 100
-51 234 -4 281 99 72 158 -84 327 -254 276z m122 -127 c39 -36 47 -95 12 -86
-23 6 -54 -25 -48 -48 4 -16 -1 -19 -28 -19 -25 0 -40 8 -59 31 -39 47 -30
105 21 133 41 22 69 19 102 -11z"/>
</g>
</svg>
