<?xml version="1.0" standalone="no"?>
<!DOCTYPE svg PUBLIC "-//W3C//DTD SVG 20010904//EN"
 "http://www.w3.org/TR/2001/REC-SVG-20010904/DTD/svg10.dtd">
<svg version="1.0" xmlns="http://www.w3.org/2000/svg"
 width="192.000000pt" height="192.000000pt" viewBox="0 0 192.000000 192.000000"
 preserveAspectRatio="xMidYMid meet">
<metadata>
Created by potrace 1.16, written by Peter Selinger 2001-2019
</metadata>
<g transform="translate(0.000000,192.000000) scale(0.100000,-0.100000)"
fill="#000000" stroke="none">
811 c445 -92 729 -532 635 -987 -62 -301 -295 -546 -601 -630 -91 -26 -329
-26 -420 0 -291 80 -516 305 -596 596 -26 91 -26 329 0 420 120 433 542 692
982 601z"/>
<path d="M795 1369 c-80 -12 -143 -45 -166 -89 -17 -31 -19 -60 -19 -278 0
-233 1 -246 22 -283 15 -27 37 -46 70 -62 l48 -23 -25 -24 c-52 -49 -45 -50
230 -50 275 0 282 1 230 50 l-25 24 48 23 c33 16 55 35 70 62 21 37 22 50 22
283 0 281 -4 296 -81 335 -76 39 -273 54 -424 32z m373 -195 c16 -11 22 -25
22 -54 0 -66 -14 -70 -237 -70 -180 0 -194 1 -213 20 -27 27 -26 74 2 100 20
19 34 20 213 20 156 0 195 -3 213 -16z m-324 -266 c37 -53 5 -118 -57 -118
-42 0 -70 29 -70 70 0 43 28 70 74 70 28 0 42 -6 53 -22z m328 5 c23 -20 24
-80 1 -105 -22 -24 -77 -24 -103 2 -24 24 -26 67 -4 98 19 27 78 30 106 5z"/>
</g>
</svg>
