<?xml version="1.0" standalone="no"?>
<!DOCTYPE svg PUBLIC "-//W3C//DTD SVG 20010904//EN"
 "http://www.w3.org/TR/2001/REC-SVG-20010904/DTD/svg10.dtd">
<svg version="1.0" xmlns="http://www.w3.org/2000/svg"
 width="192.000000pt" height="192.000000pt" viewBox="0 0 192.000000 192.000000"
 preserveAspectRatio="xMidYMid meet">
<metadata>
Created by potrace 1.16, written by Peter Selinger 2001-2019
</metadata>
<g transform="translate(0.000000,192.000000) scale(0.100000,-0.100000)"
fill="#000000" stroke="none">
811 c445 -92 729 -532 635 -987 -62 -301 -295 -546 -601 -630 -91 -26 -329
-26 -420 0 -291 80 -516 305 -596 596 -26 91 -26 329 0 420 120 433 542 692
982 601z"/>
<path d="M710 1150 c-18 -18 -20 -33 -20 -155 l0 -135 -25 0 c-18 0 -25 5 -25
18 0 22 -30 52 -52 52 -27 0 -48 -35 -48 -79 0 -77 7 -81 123 -81 67 0 107 4
115 12 8 8 12 64 12 184 0 167 -1 173 -22 188 -29 20 -34 20 -58 -4z"/>
<path d="M866 1155 c-21 -21 -22 -357 -2 -375 9 -7 57 -10 137 -8 l124 3 3 38
c2 26 -1 39 -12 43 -21 8 -21 60 -1 68 20 7 21 86 2 86 -8 0 -22 9 -32 20 -23
26 -60 26 -78 -1 -22 -30 -61 -22 -65 14 -3 23 0 27 21 27 27 0 57 28 57 53 0
41 -119 66 -154 32z m134 -265 c0 -27 -3 -30 -30 -30 -27 0 -30 3 -30 30 0 27
3 30 30 30 27 0 30 -3 30 -30z"/>
<path d="M1138 1159 c-21 -12 -24 -59 -6 -77 7 -7 24 -12 40 -12 l27 0 3 -147
3 -148 40 0 40 0 3 148 3 147 27 0 c34 0 52 16 52 46 0 44 -24 54 -123 54 -51
0 -100 -5 -109 -11z"/>
</g>
</svg>
