<?xml version="1.0" standalone="no"?>
<!DOCTYPE svg PUBLIC "-//W3C//DTD SVG 20010904//EN"
 "http://www.w3.org/TR/2001/REC-SVG-20010904/DTD/svg10.dtd">
<svg version="1.0" xmlns="http://www.w3.org/2000/svg"
 width="192.000000pt" height="192.000000pt" viewBox="0 0 192.000000 192.000000"
 preserveAspectRatio="xMidYMid meet">
<metadata>
Created by potrace 1.16, written by Peter Selinger 2001-2019
</metadata>
<g transform="translate(0.000000,192.000000) scale(0.100000,-0.100000)"
fill="#000000" stroke="none">
811 c445 -92 729 -532 635 -987 -62 -301 -295 -546 -601 -630 -91 -26 -329
-26 -420 0 -291 80 -516 305 -596 596 -26 91 -26 329 0 420 120 433 542 692
982 601z"/>
<path d="M510 990 c0 -89 0 -90 -25 -90 -14 0 -25 5 -25 10 0 6 -9 10 -21 10
-17 0 -20 -5 -17 -32 3 -33 3 -33 62 -36 41 -2 62 1 67 10 5 7 9 59 9 116 l0
102 -25 0 c-25 0 -25 -1 -25 -90z"/>
<path d="M607 1074 c-4 -4 -7 -56 -7 -116 l0 -108 25 0 c23 0 25 4 25 45 0 41
2 45 25 45 23 0 25 -4 25 -45 0 -39 3 -45 20 -45 20 0 21 5 18 113 l-3 112
-60 3 c-34 2 -64 0 -68 -4z m93 -64 c0 -15 -7 -20 -25 -20 -18 0 -25 5 -25 20
0 15 7 20 25 20 18 0 25 -5 25 -20z"/>
<path d="M790 965 l0 -116 68 3 67 3 0 110 0 110 -67 3 -68 3 0 -116z m90 45
c0 -13 -7 -20 -20 -20 -13 0 -20 7 -20 20 0 13 7 20 20 20 13 0 20 -7 20 -20z
m0 -90 c0 -13 -7 -20 -20 -20 -13 0 -20 7 -20 20 0 13 7 20 20 20 13 0 20 -7
20 -20z"/>
<path d="M984 1067 c-2 -7 -3 -58 -2 -113 l3 -99 62 -3 c75 -4 75 -3 71 133
l-3 90 -63 3 c-46 2 -64 -1 -68 -11z m86 -102 c0 -63 -1 -65 -25 -65 -24 0
-25 2 -25 65 0 63 1 65 25 65 24 0 25 -2 25 -65z"/>
<path d="M1160 965 l0 -115 25 0 c25 0 25 1 25 90 0 89 0 90 25 90 25 0 25 -1
25 -90 0 -84 1 -90 20 -90 20 0 21 5 18 113 l-3 112 -67 3 -68 3 0 -116z"/>
<path d="M1354 1067 c-2 -7 -3 -58 -2 -113 l3 -99 65 0 65 0 3 68 3 67 -36 0
c-31 0 -35 -3 -35 -25 0 -14 5 -25 10 -25 6 0 10 -9 10 -20 0 -13 -7 -20 -20
-20 -18 0 -20 7 -20 65 0 58 2 65 19 65 11 0 23 -4 26 -10 3 -5 15 -10 26 -10
17 0 20 6 17 33 l-3 32 -63 3 c-46 2 -64 -1 -68 -11z"/>
</g>
</svg>
