<?xml version="1.0" standalone="no"?>
<!DOCTYPE svg PUBLIC "-//W3C//DTD SVG 20010904//EN"
 "http://www.w3.org/TR/2001/REC-SVG-20010904/DTD/svg10.dtd">
<svg version="1.0" xmlns="http://www.w3.org/2000/svg"
 width="192.000000pt" height="192.000000pt" viewBox="0 0 192.000000 192.000000"
 preserveAspectRatio="xMidYMid meet">
<metadata>
Created by potrace 1.16, written by Peter Selinger 2001-2019
</metadata>
<g transform="translate(0.000000,192.000000) scale(0.100000,-0.100000)"
fill="#000000" stroke="none">
811 c445 -92 729 -532 635 -987 -62 -301 -295 -546 -601 -630 -91 -26 -329
-26 -420 0 -291 80 -516 305 -596 596 -26 91 -26 329 0 420 120 433 542 692
982 601z"/>
<path d="M832 1331 c-106 -40 -187 -120 -233 -232 -20 -48 -23 -75 -27 -259
-4 -198 -3 -206 18 -232 20 -26 26 -28 100 -28 116 0 124 9 128 145 2 58 1
117 -2 131 -10 39 -42 64 -81 64 -35 0 -35 0 -35 43 0 97 60 196 143 236 97
47 238 16 307 -67 34 -41 60 -116 60 -174 0 -37 -1 -38 -35 -38 -25 0 -44 -8
-60 -25 -24 -23 -25 -30 -25 -143 0 -106 2 -122 21 -146 19 -24 26 -26 100
-26 125 0 121 -8 117 268 -3 226 -3 227 -31 284 -64 130 -186 209 -332 215
-61 3 -92 -1 -133 -16z"/>
</g>
</svg>
