<?xml version="1.0" standalone="no"?>
<!DOCTYPE svg PUBLIC "-//W3C//DTD SVG 20010904//EN"
 "http://www.w3.org/TR/2001/REC-SVG-20010904/DTD/svg10.dtd">
<svg version="1.0" xmlns="http://www.w3.org/2000/svg"
 width="192.000000pt" height="192.000000pt" viewBox="0 0 192.000000 192.000000"
 preserveAspectRatio="xMidYMid meet">
<metadata>
Created by potrace 1.16, written by Peter Selinger 2001-2019
</metadata>
<g transform="translate(0.000000,192.000000) scale(0.100000,-0.100000)"
fill="#000000" stroke="none">
811 c445 -92 729 -532 635 -987 -62 -301 -295 -546 -601 -630 -91 -26 -329
-26 -420 0 -291 80 -516 305 -596 596 -26 91 -26 329 0 420 120 433 542 692
982 601z"/>
<path d="M1251 1256 c-38 -10 -48 -18 -62 -51 -10 -22 -16 -42 -13 -46 2 -4
22 -2 44 3 35 9 45 18 66 59 13 27 21 49 17 48 -5 -1 -28 -6 -52 -13z"/>
<path d="M1324 1163 c-69 -24 -72 -27 -78 -61 -9 -59 -7 -94 5 -86 18 11 29
-17 29 -78 0 -52 -2 -58 -21 -58 -18 0 -21 -5 -17 -30 5 -35 3 -34 -60 44
l-40 49 51 95 50 95 -43 -7 c-25 -4 -45 -8 -45 -9 0 -1 -8 -18 -17 -37 l-17
-35 0 33 c-1 31 -3 33 -33 30 l-33 -3 0 -160 0 -160 33 -3 c29 -3 32 -1 32 22
0 14 3 26 8 26 4 0 25 -29 47 -65 37 -61 43 -66 95 -80 30 -9 63 -18 73 -21
23 -7 22 1 -9 42 -15 19 -24 34 -21 34 3 0 38 -11 77 -26 38 -14 75 -22 82
-18 22 14 -6 373 -38 477 -7 21 -21 20 -110 -10z m66 -189 c15 -89 1 -131 -36
-106 -6 4 -14 44 -17 89 -6 72 -4 82 11 86 26 6 32 -4 42 -69z"/>
<path d="M500 1168 c1 -34 29 -102 48 -117 17 -12 24 -34 32 -95 13 -88 9
-106 -19 -106 -17 0 -19 7 -18 48 2 46 1 47 -30 50 -27 3 -32 -1 -42 -30 -13
-40 -41 -182 -41 -209 0 -11 7 -19 18 -19 30 0 185 58 193 73 13 22 21 236 12
306 l-8 64 -50 17 c-93 32 -95 32 -95 18z"/>
<path d="M675 1084 c4 -27 10 -50 14 -52 7 -2 -1 -127 -14 -219 -8 -58 -7 -59
55 -47 l32 7 -4 66 c-3 60 -1 66 17 66 18 0 20 -6 17 -62 l-4 -63 36 0 c21 0
39 6 42 13 2 7 -7 78 -21 157 -14 80 -25 147 -25 151 0 3 -24 9 -52 13 -29 3
-64 9 -77 13 -23 6 -24 5 -16 -43z m105 -73 c0 -5 3 -16 6 -25 4 -12 0 -16
-15 -16 -16 0 -21 6 -21 25 0 16 6 25 15 25 8 0 15 -4 15 -9z"/>
<path d="M850 1083 c0 -26 29 -200 42 -250 l10 -43 64 0 64 0 0 70 c0 39 -4
70 -9 70 -23 0 -41 -14 -41 -31 0 -10 -6 -19 -14 -19 -15 0 -21 17 -31 93 -7
43 -6 47 14 47 11 0 21 -6 21 -14 0 -14 21 -26 46 -26 10 0 14 15 14 60 l0 60
-90 0 c-79 0 -90 -2 -90 -17z"/>
</g>
</svg>
