<?xml version="1.0" standalone="no"?>
<!DOCTYPE svg PUBLIC "-//W3C//DTD SVG 20010904//EN"
 "http://www.w3.org/TR/2001/REC-SVG-20010904/DTD/svg10.dtd">
<svg version="1.0" xmlns="http://www.w3.org/2000/svg"
 width="192.000000pt" height="192.000000pt" viewBox="0 0 192.000000 192.000000"
 preserveAspectRatio="xMidYMid meet">
<metadata>
Created by potrace 1.16, written by Peter Selinger 2001-2019
</metadata>
<g transform="translate(0.000000,192.000000) scale(0.100000,-0.100000)"
fill="#000000" stroke="none">
811 c445 -92 729 -532 635 -987 -62 -301 -295 -546 -601 -630 -91 -26 -329
-26 -420 0 -291 80 -516 305 -596 596 -26 91 -26 329 0 420 120 433 542 692
982 601z"/>
<path d="M674 1346 c-40 -40 -45 -83 -14 -133 34 -57 121 -61 168 -8 l22 26
23 -26 c43 -50 126 -49 166 1 l20 26 23 -26 c28 -32 73 -45 115 -34 85 22 100
146 23 191 -47 28 -87 22 -128 -19 -26 -26 -37 -32 -43 -22 -5 7 -9 16 -9 20
0 14 -59 38 -91 38 -22 0 -41 -10 -65 -34 l-35 -35 -14 23 c-19 28 -56 46 -96
46 -22 0 -41 -10 -65 -34z"/>
<path d="M1120 1118 c-46 -24 -60 -71 -60 -196 0 -112 0 -114 -29 -143 -24
-23 -38 -29 -74 -29 -57 0 -98 37 -117 105 -10 34 -22 52 -44 66 -37 23 -58
24 -95 4 -78 -40 -59 -196 34 -290 123 -123 322 -120 440 6 70 75 87 123 93
260 5 123 -4 174 -37 203 -25 23 -81 30 -111 14z"/>
</g>
</svg>
