<?xml version="1.0" standalone="no"?>
<!DOCTYPE svg PUBLIC "-//W3C//DTD SVG 20010904//EN"
 "http://www.w3.org/TR/2001/REC-SVG-20010904/DTD/svg10.dtd">
<svg version="1.0" xmlns="http://www.w3.org/2000/svg"
 width="192.000000pt" height="192.000000pt" viewBox="0 0 192.000000 192.000000"
 preserveAspectRatio="xMidYMid meet">
<metadata>
Created by potrace 1.16, written by Peter Selinger 2001-2019
</metadata>
<g transform="translate(0.000000,192.000000) scale(0.100000,-0.100000)"
fill="#000000" stroke="none">
811 c445 -92 729 -532 635 -987 -62 -301 -295 -546 -601 -630 -91 -26 -329
-26 -420 0 -291 80 -516 305 -596 596 -26 91 -26 329 0 420 120 433 542 692
982 601z"/>
<path d="M900 1373 c-59 -10 -129 -37 -177 -70 -59 -40 -75 -69 -47 -90 30
-22 87 -15 152 18 69 36 162 44 222 20 41 -17 109 -63 110 -73 0 -5 -126 -8
-281 -8 l-280 0 -21 -47 c-27 -61 -35 -198 -16 -263 14 -44 14 -45 61 -48 58
-4 64 7 47 88 -7 34 -10 78 -6 104 l7 46 315 0 c198 0 322 4 335 10 25 14 24
39 -2 96 -71 151 -253 245 -419 217z"/>
<path d="M917 1022 c-21 -23 -21 -41 -1 -70 22 -32 73 -27 93 9 13 24 13 29
-2 53 -21 31 -66 35 -90 8z"/>
<path d="M912 908 c-8 -8 -12 -49 -12 -120 0 -96 -2 -108 -17 -108 -29 1 -96
36 -131 69 -49 45 -132 41 -132 -7 0 -24 99 -118 152 -144 93 -46 219 -58 240
-25 13 21 9 322 -4 335 -16 16 -80 16 -96 0z"/>
<path d="M1252 908 c-7 -7 -12 -19 -12 -27 0 -26 -57 -116 -88 -142 -16 -13
-43 -32 -60 -41 -36 -19 -50 -58 -33 -94 16 -35 49 -31 119 17 85 56 138 127
172 232 9 30 9 41 0 52 -15 18 -81 20 -98 3z"/>
</g>
</svg>
