<?xml version="1.0" standalone="no"?>
<!DOCTYPE svg PUBLIC "-//W3C//DTD SVG 20010904//EN"
 "http://www.w3.org/TR/2001/REC-SVG-20010904/DTD/svg10.dtd">
<svg version="1.0" xmlns="http://www.w3.org/2000/svg"
 width="192.000000pt" height="192.000000pt" viewBox="0 0 192.000000 192.000000"
 preserveAspectRatio="xMidYMid meet">
<metadata>
Created by potrace 1.16, written by Peter Selinger 2001-2019
</metadata>
<g transform="translate(0.000000,192.000000) scale(0.100000,-0.100000)"
fill="#000000" stroke="none">
811 c445 -92 729 -532 635 -987 -62 -301 -295 -546 -601 -630 -91 -26 -329
-26 -420 0 -291 80 -516 305 -596 596 -26 91 -26 329 0 420 120 433 542 692
982 601z"/>
<path d="M702 1168 c-8 -8 -12 -58 -12 -160 0 -147 0 -148 -23 -148 -12 0 -28
9 -35 20 -14 23 -70 28 -90 8 -7 -7 -12 -33 -12 -59 0 -68 19 -79 135 -79 135
0 129 -9 133 209 2 117 -1 187 -8 200 -12 24 -68 29 -88 9z"/>
<path d="M832 1168 c-17 -17 -17 -389 0 -406 8 -8 48 -12 115 -12 91 0 105 2
124 21 18 18 20 29 15 102 -2 45 -4 87 -4 92 0 6 2 47 4 92 5 73 3 84 -15 102
-19 19 -33 21 -124 21 -67 0 -107 -4 -115 -12z m148 -123 c0 -20 -5 -25 -25
-25 -20 0 -25 5 -25 25 0 20 5 25 25 25 20 0 25 -5 25 -25z m0 -160 c0 -20 -5
-25 -25 -25 -20 0 -25 5 -25 25 0 20 5 25 25 25 20 0 25 -5 25 -25z"/>
<path d="M1120 1161 c-6 -12 -10 -94 -10 -196 0 -102 4 -184 10 -196 10 -17
22 -19 123 -19 124 0 137 5 137 55 0 46 -16 55 -92 55 l-68 0 0 148 c0 102 -4
152 -12 160 -20 20 -76 15 -88 -7z"/>
</g>
</svg>
