<?xml version="1.0" standalone="no"?>
<!DOCTYPE svg PUBLIC "-//W3C//DTD SVG 20010904//EN"
 "http://www.w3.org/TR/2001/REC-SVG-20010904/DTD/svg10.dtd">
<svg version="1.0" xmlns="http://www.w3.org/2000/svg"
 width="192.000000pt" height="192.000000pt" viewBox="0 0 192.000000 192.000000"
 preserveAspectRatio="xMidYMid meet">
<metadata>
Created by potrace 1.16, written by Peter Selinger 2001-2019
</metadata>
<g transform="translate(0.000000,192.000000) scale(0.100000,-0.100000)"
fill="#000000" stroke="none">
811 c445 -92 729 -532 635 -987 -62 -301 -295 -546 -601 -630 -91 -26 -329
-26 -420 0 -291 80 -516 305 -596 596 -26 91 -26 329 0 420 120 433 542 692
982 601z"/>
<path d="M807 1262 c-79 -80 -106 -113 -101 -125 12 -33 41 -16 147 91 79 80
106 113 101 125 -12 33 -41 16 -147 -91z"/>
<path d="M921 1256 c-73 -73 -102 -109 -98 -120 13 -32 43 -14 144 87 75 75
102 108 97 120 -12 33 -41 16 -143 -87z"/>
<path d="M670 1235 c-87 -87 -93 -96 -78 -111 22 -22 37 -12 131 85 77 78 93
112 57 119 -8 1 -58 -40 -110 -93z"/>
<path d="M1017 1241 c-61 -62 -85 -94 -81 -105 12 -31 40 -15 128 73 62 62 87
94 83 105 -13 32 -45 14 -130 -73z"/>
<path d="M1116 1221 c-69 -69 -81 -101 -39 -101 27 0 146 123 141 146 -7 36
-34 24 -102 -45z"/>
<path d="M1187 1182 c-49 -49 -59 -78 -31 -89 22 -8 129 99 121 121 -11 28
-41 17 -90 -32z"/>
<path d="M1212 1088 c-72 -74 -86 -101 -56 -112 23 -9 166 131 162 158 -6 39
-33 26 -106 -46z"/>
<path d="M607 1062 c-58 -58 -70 -88 -41 -99 22 -8 136 105 132 132 -5 36 -32
26 -91 -33z"/>
<path d="M736 1081 c-3 -5 1 -24 9 -43 10 -25 11 -38 3 -46 -16 -16 -2 -42 22
-42 21 0 29 33 11 45 -6 3 -4 20 5 41 8 19 12 39 9 44 -8 13 -52 13 -59 1z"/>
<path d="M826 1075 c-3 -9 -6 -59 -6 -111 0 -75 -3 -94 -14 -94 -9 0 -16 12
-18 28 -4 38 -42 38 -46 0 -5 -39 37 -64 86 -52 l37 9 0 115 c0 98 -2 115 -16
118 -9 2 -19 -4 -23 -13z"/>
<path d="M896 1073 c-2 -10 -5 -60 -5 -111 1 -110 11 -127 71 -119 21 3 45 11
53 17 17 14 21 95 5 105 -7 4 -7 12 0 25 15 28 12 66 -6 84 -23 23 -111 22
-118 -1z m79 -48 c0 -16 -6 -30 -12 -32 -9 -3 -13 7 -13 32 0 25 4 35 13 33 6
-3 12 -17 12 -33z m0 -110 c0 -22 -5 -40 -12 -42 -9 -3 -13 9 -13 42 0 33 4
45 13 43 7 -3 12 -21 12 -43z"/>
<path d="M1057 1084 c-4 -4 -7 -58 -7 -120 0 -123 1 -124 64 -124 46 0 68 20
64 55 -4 41 -42 43 -46 3 -2 -16 -9 -28 -17 -28 -11 0 -15 23 -17 107 -2 88
-6 108 -18 111 -9 1 -19 0 -23 -4z"/>
<path d="M1264 1028 c-54 -51 -67 -83 -38 -95 19 -7 124 93 124 118 0 37 -31
29 -86 -23z"/>
<path d="M616 951 c-59 -60 -69 -91 -28 -91 22 0 122 101 122 123 0 12 -19 27
-34 27 -1 0 -28 -27 -60 -59z"/>
<path d="M1266 911 c-51 -51 -57 -62 -46 -75 7 -9 18 -16 24 -16 22 0 118 107
114 126 -6 35 -33 25 -92 -35z"/>
<path d="M627 852 c-39 -40 -47 -69 -21 -79 22 -8 109 79 101 101 -10 27 -41
18 -80 -22z"/>
<path d="M671 776 c-29 -29 -40 -48 -35 -59 10 -28 40 -19 78 23 41 46 43 55
18 69 -15 8 -27 2 -61 -33z"/>
<path d="M750 745 c-53 -54 -63 -68 -54 -82 6 -9 15 -18 20 -20 5 -2 40 28 78
66 47 47 67 74 63 85 -12 30 -43 16 -107 -49z"/>
<path d="M847 722 c-64 -64 -86 -93 -81 -105 12 -33 41 -16 127 72 61 62 85
94 81 105 -12 31 -40 15 -127 -72z"/>
<path d="M946 711 c-96 -96 -115 -131 -76 -139 23 -4 224 202 217 222 -13 32
-45 14 -141 -83z"/>
<path d="M1056 701 c-94 -95 -108 -112 -97 -125 8 -9 19 -16 25 -16 19 0 228
218 224 232 -12 36 -46 16 -152 -91z"/>
<path d="M1192 727 c-45 -45 -82 -87 -82 -93 0 -7 7 -17 16 -24 13 -12 28 -1
105 76 90 90 109 124 66 124 -15 0 -50 -28 -105 -83z"/>
</g>
</svg>
