<?xml version="1.0" standalone="no"?>
<!DOCTYPE svg PUBLIC "-//W3C//DTD SVG 20010904//EN"
 "http://www.w3.org/TR/2001/REC-SVG-20010904/DTD/svg10.dtd">
<svg version="1.0" xmlns="http://www.w3.org/2000/svg"
 width="192.000000pt" height="192.000000pt" viewBox="0 0 192.000000 192.000000"
 preserveAspectRatio="xMidYMid meet">
<metadata>
Created by potrace 1.16, written by Peter Selinger 2001-2019
</metadata>
<g transform="translate(0.000000,192.000000) scale(0.100000,-0.100000)"
fill="#000000" stroke="none">
811 c445 -92 729 -532 635 -987 -62 -301 -295 -546 -601 -630 -91 -26 -329
-26 -420 0 -291 80 -516 305 -596 596 -26 91 -26 329 0 420 120 433 542 692
982 601z"/>
<path d="M833 1322 c-137 -49 -229 -161 -253 -309 -13 -80 -12 -333 1 -372 15
-42 35 -51 111 -51 51 0 69 4 86 20 20 19 22 31 22 130 0 127 -11 150 -76 150
l-37 0 5 74 c4 58 11 86 35 127 99 177 357 177 456 0 24 -41 31 -69 35 -127
l5 -74 -37 0 c-65 0 -76 -23 -76 -150 0 -99 2 -111 22 -130 17 -16 35 -20 86
-20 76 0 96 9 111 51 14 40 14 293 1 374 -21 131 -102 239 -220 293 -74 35
-201 41 -277 14z"/>
</g>
</svg>
