<?xml version="1.0" standalone="no"?>
<!DOCTYPE svg PUBLIC "-//W3C//DTD SVG 20010904//EN"
 "http://www.w3.org/TR/2001/REC-SVG-20010904/DTD/svg10.dtd">
<svg version="1.0" xmlns="http://www.w3.org/2000/svg"
 width="192.000000pt" height="192.000000pt" viewBox="0 0 192.000000 192.000000"
 preserveAspectRatio="xMidYMid meet">
<metadata>
Created by potrace 1.16, written by Peter Selinger 2001-2019
</metadata>
<g transform="translate(0.000000,192.000000) scale(0.100000,-0.100000)"
fill="#000000" stroke="none">
811 c445 -92 729 -532 635 -987 -62 -301 -295 -546 -601 -630 -91 -26 -329
-26 -420 0 -291 80 -516 305 -596 596 -26 91 -26 329 0 420 120 433 542 692
982 601z"/>
<path d="M908 1336 c-63 -23 -125 -64 -168 -113 -33 -38 -49 -48 -74 -48 -27
0 -31 -4 -34 -29 -2 -16 3 -45 12 -65 8 -20 16 -63 18 -97 3 -46 15 -83 46
-150 l42 -89 -43 47 c-29 30 -48 44 -56 38 -7 -4 -26 -1 -42 7 -48 24 -89 -12
-89 -77 0 -40 82 -125 155 -160 49 -24 55 -25 295 -25 l245 0 62 33 c72 39
100 67 112 109 15 51 -5 77 -63 84 -40 4 -52 2 -67 -15 -11 -11 -19 -23 -19
-28 0 -8 -68 -54 -94 -64 -8 -3 -16 4 -19 15 -4 16 5 25 49 46 163 80 214 282
103 409 -46 52 -108 83 -184 92 -52 6 -55 8 -55 35 0 49 -9 59 -54 59 -22 -1
-57 -7 -78 -14z m2 -226 c27 -27 25 -66 -5 -95 -29 -30 -39 -31 -65 -5 -27 27
-25 66 5 95 29 30 39 31 65 5z m386 -179 c-9 -10 -16 -22 -16 -29 0 -21 -61
-71 -94 -78 -45 -8 -91 17 -105 57 -23 65 -20 67 72 62 59 -4 92 -1 117 9 39
16 51 7 26 -21z"/>
</g>
</svg>
