<?xml version="1.0" standalone="no"?>
<!DOCTYPE svg PUBLIC "-//W3C//DTD SVG 20010904//EN"
 "http://www.w3.org/TR/2001/REC-SVG-20010904/DTD/svg10.dtd">
<svg version="1.0" xmlns="http://www.w3.org/2000/svg"
 width="192.000000pt" height="192.000000pt" viewBox="0 0 192.000000 192.000000"
 preserveAspectRatio="xMidYMid meet">
<metadata>
Created by potrace 1.16, written by Peter Selinger 2001-2019
</metadata>
<g transform="translate(0.000000,192.000000) scale(0.100000,-0.100000)"
fill="#000000" stroke="none">
811 c445 -92 729 -532 635 -987 -62 -301 -295 -546 -601 -630 -91 -26 -329
-26 -420 0 -291 80 -516 305 -596 596 -26 91 -26 329 0 420 120 433 542 692
982 601z"/>
<path d="M705 1325 c-51 -18 -110 -81 -124 -131 -14 -52 -14 -407 0 -459 15
-54 82 -120 138 -135 29 -7 116 -10 260 -8 243 3 254 6 315 81 l31 39 0 253 0
253 -31 39 c-51 63 -86 78 -183 78 l-83 0 -58 -215 c-31 -118 -64 -238 -74
-267 -19 -58 -67 -107 -114 -118 -40 -8 -112 11 -112 31 0 31 32 64 61 64 40
0 64 31 84 108 9 37 36 140 61 229 24 89 44 165 44 168 0 11 -177 3 -215 -10z
m510 -109 c40 -17 38 -13 24 -55 -12 -33 -22 -37 -65 -21 -15 6 -35 8 -45 5
-25 -8 -24 -42 0 -50 11 -3 34 -22 51 -42 28 -31 31 -42 27 -76 -11 -83 -92
-129 -187 -105 -53 13 -55 15 -52 43 5 44 22 58 56 45 39 -15 72 -12 87 6 12
14 10 19 -15 38 -76 58 -89 75 -83 113 14 85 116 135 202 99z"/>
</g>
</svg>
