<?xml version="1.0" standalone="no"?>
<!DOCTYPE svg PUBLIC "-//W3C//DTD SVG 20010904//EN"
 "http://www.w3.org/TR/2001/REC-SVG-20010904/DTD/svg10.dtd">
<svg version="1.0" xmlns="http://www.w3.org/2000/svg"
 width="192.000000pt" height="192.000000pt" viewBox="0 0 192.000000 192.000000"
 preserveAspectRatio="xMidYMid meet">
<metadata>
Created by potrace 1.16, written by Peter Selinger 2001-2019
</metadata>
<g transform="translate(0.000000,192.000000) scale(0.100000,-0.100000)"
fill="#000000" stroke="none">
811 c445 -92 729 -532 635 -987 -62 -301 -295 -546 -601 -630 -91 -26 -329
-26 -420 0 -291 80 -516 305 -596 596 -26 91 -26 329 0 420 120 433 542 692
982 601z"/>
<path d="M710 1240 c-11 -11 -31 -20 -44 -20 -41 0 -66 -43 -66 -112 0 -54 -3
-63 -30 -88 -19 -18 -30 -38 -30 -55 0 -16 12 -38 30 -57 26 -26 30 -36 30
-87 0 -70 25 -111 68 -111 16 0 32 -8 40 -20 15 -24 68 -27 98 -6 16 12 20 29
22 110 l4 96 124 0 124 0 0 -93 c0 -78 3 -97 18 -110 26 -23 78 -22 99 3 10
11 29 20 44 20 42 0 61 31 67 110 4 56 9 73 24 81 44 23 42 105 -2 129 -13 7
-19 27 -22 82 -6 78 -26 108 -73 108 -12 0 -30 9 -40 20 -11 12 -31 20 -51 20
-51 0 -64 -27 -64 -132 l0 -88 -125 0 -125 0 0 88 c0 75 -3 92 -20 110 -26 28
-73 29 -100 2z"/>
</g>
</svg>
