<?xml version="1.0" standalone="no"?>
<!DOCTYPE svg PUBLIC "-//W3C//DTD SVG 20010904//EN"
 "http://www.w3.org/TR/2001/REC-SVG-20010904/DTD/svg10.dtd">
<svg version="1.0" xmlns="http://www.w3.org/2000/svg"
 width="192.000000pt" height="192.000000pt" viewBox="0 0 192.000000 192.000000"
 preserveAspectRatio="xMidYMid meet">
<metadata>
Created by potrace 1.16, written by Peter Selinger 2001-2019
</metadata>
<g transform="translate(0.000000,192.000000) scale(0.100000,-0.100000)"
fill="#000000" stroke="none">
811 c445 -92 729 -532 635 -987 -62 -301 -295 -546 -601 -630 -91 -26 -329
-26 -420 0 -291 80 -516 305 -596 596 -26 91 -26 329 0 420 120 433 542 692
982 601z"/>
<path d="M875 1341 c-22 -10 -50 -29 -61 -42 -45 -50 -275 -466 -281 -507 -7
-51 11 -105 50 -149 54 -61 66 -63 372 -63 235 0 281 2 308 16 77 39 111 99
105 184 -4 51 -17 78 -132 277 -70 122 -141 236 -159 252 -52 52 -132 64 -202
32z m229 -354 c108 -188 118 -210 108 -232 l-12 -25 -243 0 c-256 0 -267 2
-267 46 0 22 214 402 234 417 6 4 22 6 36 5 21 -3 43 -35 144 -211z"/>
<path d="M918 1043 c-24 -29 -118 -199 -118 -215 0 -32 23 -38 150 -38 175 0
177 4 98 144 -60 106 -75 126 -98 126 -9 0 -24 -8 -32 -17z"/>
</g>
</svg>
