<?xml version="1.0" standalone="no"?>
<!DOCTYPE svg PUBLIC "-//W3C//DTD SVG 20010904//EN"
 "http://www.w3.org/TR/2001/REC-SVG-20010904/DTD/svg10.dtd">
<svg version="1.0" xmlns="http://www.w3.org/2000/svg"
 width="192.000000pt" height="192.000000pt" viewBox="0 0 192.000000 192.000000"
 preserveAspectRatio="xMidYMid meet">
<metadata>
Created by potrace 1.16, written by Peter Selinger 2001-2019
</metadata>
<g transform="translate(0.000000,192.000000) scale(0.100000,-0.100000)"
fill="#000000" stroke="none">
811 c445 -92 729 -532 635 -987 -62 -301 -295 -546 -601 -630 -91 -26 -329
-26 -420 0 -291 80 -516 305 -596 596 -26 91 -26 329 0 420 120 433 542 692
982 601z"/>
<path d="M943 1340 c-60 -13 -117 -44 -183 -103 -32 -29 -78 -66 -102 -82 -56
-40 -94 -98 -114 -176 -30 -116 5 -231 97 -313 67 -60 129 -80 222 -72 40 3
106 8 147 10 149 8 260 78 322 204 31 62 33 74 33 167 0 93 -2 105 -32 166
-73 148 -236 231 -390 199z m189 -104 c167 -81 211 -316 85 -454 -38 -40 -102
-82 -126 -82 -6 0 4 29 21 65 25 55 30 78 30 141 0 64 -4 84 -31 139 -38 78
-94 128 -173 157 -32 11 -56 24 -53 27 33 33 184 38 247 7z m-214 -122 c48
-34 65 -101 37 -154 -21 -40 -53 -60 -98 -60 -31 0 -46 7 -73 34 -29 29 -34
41 -34 81 0 40 5 52 34 81 27 27 42 34 73 34 21 0 49 -7 61 -16z m-226 -296
c14 -31 46 -78 69 -103 l44 -47 -38 16 c-62 25 -91 51 -122 107 -35 65 -39
146 -9 211 l19 43 5 -85 c4 -62 13 -100 32 -142z m358 9 c-12 -42 -84 -127
-107 -127 -25 0 -77 31 -120 73 -24 23 -43 44 -43 48 0 4 18 3 41 -2 81 -19
167 25 208 106 l26 50 3 -55 c2 -30 -2 -72 -8 -93z"/>
</g>
</svg>
