<?xml version="1.0" standalone="no"?>
<!DOCTYPE svg PUBLIC "-//W3C//DTD SVG 20010904//EN"
 "http://www.w3.org/TR/2001/REC-SVG-20010904/DTD/svg10.dtd">
<svg version="1.0" xmlns="http://www.w3.org/2000/svg"
 width="192.000000pt" height="192.000000pt" viewBox="0 0 192.000000 192.000000"
 preserveAspectRatio="xMidYMid meet">
<metadata>
Created by potrace 1.16, written by Peter Selinger 2001-2019
</metadata>
<g transform="translate(0.000000,192.000000) scale(0.100000,-0.100000)"
fill="#000000" stroke="none">
811 c445 -92 729 -532 635 -987 -62 -301 -295 -546 -601 -630 -91 -26 -329
-26 -420 0 -291 80 -516 305 -596 596 -26 91 -26 329 0 420 120 433 542 692
982 601z"/>
<path d="M990 1334 c-102 -20 -231 -83 -308 -150 -104 -91 -143 -208 -86 -253
15 -12 33 -21 40 -21 21 0 17 -7 -21 -46 -73 -73 -97 -173 -54 -227 64 -82
229 -47 357 77 37 35 92 76 122 91 86 43 213 130 253 174 58 65 80 116 75 177
-9 111 -99 173 -261 179 -50 2 -103 1 -117 -1z m88 -231 c60 -44 52 -111 -24
-212 -25 -34 -49 -61 -53 -61 -4 0 -6 13 -3 29 2 15 -4 43 -13 60 -31 60 -120
77 -219 42 -54 -19 -76 -15 -76 15 0 21 41 64 87 91 105 61 245 78 301 36z"/>
</g>
</svg>
