<?xml version="1.0" standalone="no"?>
<!DOCTYPE svg PUBLIC "-//W3C//DTD SVG 20010904//EN"
 "http://www.w3.org/TR/2001/REC-SVG-20010904/DTD/svg10.dtd">
<svg version="1.0" xmlns="http://www.w3.org/2000/svg"
 width="192.000000pt" height="192.000000pt" viewBox="0 0 192.000000 192.000000"
 preserveAspectRatio="xMidYMid meet">
<metadata>
Created by potrace 1.16, written by Peter Selinger 2001-2019
</metadata>
<g transform="translate(0.000000,192.000000) scale(0.100000,-0.100000)"
fill="#000000" stroke="none">
811 c445 -92 729 -532 635 -987 -62 -301 -295 -546 -601 -630 -91 -26 -329
-26 -420 0 -291 80 -516 305 -596 596 -26 91 -26 329 0 420 120 433 542 692
982 601z"/>
<path d="M737 1188 c-14 -11 -17 -37 -19 -178 l-3 -165 -28 -3 c-20 -3 -35 4
-52 22 -29 31 -58 33 -85 6 -27 -27 -27 -89 0 -118 19 -20 31 -22 128 -22 161
0 152 -14 152 234 0 184 -2 204 -18 219 -22 20 -52 22 -75 5z"/>
<path d="M916 1184 c-14 -14 -16 -44 -14 -222 l3 -206 26 -15 c24 -13 29 -13
53 2 l26 17 0 205 c0 172 -2 206 -16 219 -20 21 -58 20 -78 0z"/>
<path d="M1097 1182 c-15 -16 -17 -47 -17 -220 0 -246 -9 -232 152 -232 155 0
148 -10 148 233 0 250 8 237 -149 237 -102 0 -120 -3 -134 -18z m163 -218 l0
-125 -32 3 -33 3 -3 109 c-1 61 0 116 2 123 3 7 19 13 36 13 l30 0 0 -126z"/>
</g>
</svg>
