<?xml version="1.0" standalone="no"?>
<!DOCTYPE svg PUBLIC "-//W3C//DTD SVG 20010904//EN"
 "http://www.w3.org/TR/2001/REC-SVG-20010904/DTD/svg10.dtd">
<svg version="1.0" xmlns="http://www.w3.org/2000/svg"
 width="192.000000pt" height="192.000000pt" viewBox="0 0 192.000000 192.000000"
 preserveAspectRatio="xMidYMid meet">
<metadata>
Created by potrace 1.16, written by Peter Selinger 2001-2019
</metadata>
<g transform="translate(0.000000,192.000000) scale(0.100000,-0.100000)"
fill="#000000" stroke="none">
811 c445 -92 729 -532 635 -987 -62 -301 -295 -546 -601 -630 -91 -26 -329
-26 -420 0 -291 80 -516 305 -596 596 -26 91 -26 329 0 420 120 433 542 692
982 601z"/>
<path d="M865 1281 c-91 -24 -167 -102 -189 -193 -3 -16 -11 -28 -17 -28 -27
0 -82 -36 -105 -69 -18 -27 -24 -49 -24 -89 0 -59 15 -95 55 -132 l27 -25 319
-3 c317 -3 320 -3 360 20 60 33 94 97 94 173 0 105 -64 177 -174 198 -33 6
-61 15 -61 19 0 17 -76 90 -111 109 -43 21 -130 32 -174 20z"/>
</g>
</svg>
