<?xml version="1.0" standalone="no"?>
<!DOCTYPE svg PUBLIC "-//W3C//DTD SVG 20010904//EN"
 "http://www.w3.org/TR/2001/REC-SVG-20010904/DTD/svg10.dtd">
<svg version="1.0" xmlns="http://www.w3.org/2000/svg"
 width="192.000000pt" height="192.000000pt" viewBox="0 0 192.000000 192.000000"
 preserveAspectRatio="xMidYMid meet">
<metadata>
Created by potrace 1.16, written by Peter Selinger 2001-2019
</metadata>
<g transform="translate(0.000000,192.000000) scale(0.100000,-0.100000)"
fill="#000000" stroke="none">
811 c445 -92 729 -532 635 -987 -62 -301 -295 -546 -601 -630 -91 -26 -329
-26 -420 0 -291 80 -516 305 -596 596 -26 91 -26 329 0 420 120 433 542 692
982 601z"/>
<path d="M856 1360 c-156 -40 -288 -187 -305 -339 -24 -217 106 -400 316 -447
81 -18 141 -15 231 13 43 14 58 15 85 5 53 -19 91 -15 116 12 21 23 23 31 17
88 -6 52 -3 71 13 109 67 151 29 342 -89 453 -76 71 -162 107 -263 112 -45 2
-99 -1 -121 -6z m-58 -352 c17 -14 15 -63 -4 -82 -21 -22 -60 -20 -84 4 -27
27 -25 46 5 76 26 25 52 26 83 2z m192 4 c61 -50 -11 -135 -74 -89 -37 27 -8
107 39 107 7 0 23 -8 35 -18z m205 -7 c30 -29 31 -49 5 -75 -42 -42 -104 -14
-98 44 2 21 11 35 28 43 34 17 37 17 65 -12z"/>
</g>
</svg>
