<?xml version="1.0" standalone="no"?>
<!DOCTYPE svg PUBLIC "-//W3C//DTD SVG 20010904//EN"
 "http://www.w3.org/TR/2001/REC-SVG-20010904/DTD/svg10.dtd">
<svg version="1.0" xmlns="http://www.w3.org/2000/svg"
 width="192.000000pt" height="192.000000pt" viewBox="0 0 192.000000 192.000000"
 preserveAspectRatio="xMidYMid meet">
<metadata>
Created by potrace 1.16, written by Peter Selinger 2001-2019
</metadata>
<g transform="translate(0.000000,192.000000) scale(0.100000,-0.100000)"
fill="#000000" stroke="none">
811 c445 -92 729 -532 635 -987 -62 -301 -295 -546 -601 -630 -91 -26 -329
-26 -420 0 -291 80 -516 305 -596 596 -26 91 -26 329 0 420 120 433 542 692
982 601z"/>
<path d="M1010 1349 c-86 -35 -126 -141 -80 -217 23 -37 75 -72 108 -72 19 0
22 -5 22 -40 0 -49 11 -50 65 -6 30 25 56 37 93 42 164 21 207 190 73 281 -30
21 -45 23 -145 22 -61 0 -122 -5 -136 -10z"/>
<path d="M559 1229 c-19 -19 -21 -28 -15 -83 11 -96 25 -144 68 -235 94 -198
319 -345 540 -353 91 -4 98 4 98 111 0 47 -4 92 -9 100 -8 12 -143 40 -197 41
-12 0 -41 -16 -66 -35 l-46 -34 -43 28 c-49 31 -124 108 -140 145 -10 21 -7
30 26 73 32 41 36 53 30 83 -3 19 -10 62 -14 94 -10 77 -23 86 -128 86 -71 0
-86 -3 -104 -21z"/>
</g>
</svg>
