<?xml version="1.0" standalone="no"?>
<!DOCTYPE svg PUBLIC "-//W3C//DTD SVG 20010904//EN"
 "http://www.w3.org/TR/2001/REC-SVG-20010904/DTD/svg10.dtd">
<svg version="1.0" xmlns="http://www.w3.org/2000/svg"
 width="192.000000pt" height="192.000000pt" viewBox="0 0 192.000000 192.000000"
 preserveAspectRatio="xMidYMid meet">
<metadata>
Created by potrace 1.16, written by Peter Selinger 2001-2019
</metadata>
<g transform="translate(0.000000,192.000000) scale(0.100000,-0.100000)"
fill="#000000" stroke="none">
811 c445 -92 729 -532 635 -987 -62 -301 -295 -546 -601 -630 -91 -26 -329
-26 -420 0 -291 80 -516 305 -596 596 -26 91 -26 329 0 420 120 433 542 692
982 601z"/>
<path d="M853 1355 c-119 -33 -216 -112 -269 -220 -27 -55 -29 -69 -29 -170 0
-101 2 -115 29 -170 58 -117 173 -203 305 -227 171 -32 365 70 438 229 35 75
43 203 20 284 -33 111 -133 217 -247 260 -72 27 -180 33 -247 14z m146 -145
c42 -80 42 -80 -43 -80 -42 0 -76 2 -76 4 0 10 34 85 53 115 19 32 21 33 34
15 8 -11 23 -35 32 -54z m-159 48 c0 -2 -11 -30 -24 -63 l-25 -60 -55 -3 c-31
-2 -56 1 -56 5 0 11 76 84 110 107 21 14 50 22 50 14z m278 -15 c34 -21 112
-94 112 -106 0 -4 -25 -7 -56 -5 l-55 3 -25 60 c-13 33 -24 61 -24 63 0 7 24
0 48 -15z m-348 -273 l0 -81 -67 3 -68 3 -3 63 c-4 82 5 92 79 92 l59 0 0 -80z
m283 40 c5 -19 6 -53 2 -77 l-6 -43 -94 0 -93 0 -7 40 c-6 36 0 92 12 113 3 4
43 6 91 5 l86 -3 9 -35z m216 26 c7 -9 11 -40 9 -78 l-3 -63 -67 -3 -68 -3 0
81 0 80 59 0 c38 0 63 -5 70 -14z m-454 -300 c14 -33 22 -62 19 -65 -13 -13
-154 98 -154 122 0 4 25 7 56 5 l55 -3 24 -59z m215 57 c0 -18 -66 -138 -75
-138 -9 0 -75 121 -75 138 0 4 34 7 75 7 41 0 75 -3 75 -7z m200 -1 c0 -24
-142 -133 -156 -119 -2 2 4 24 15 48 10 24 21 52 24 62 5 13 18 17 62 17 30 0
55 -4 55 -8z"/>
</g>
</svg>
