<?xml version="1.0" standalone="no"?>
<!DOCTYPE svg PUBLIC "-//W3C//DTD SVG 20010904//EN"
 "http://www.w3.org/TR/2001/REC-SVG-20010904/DTD/svg10.dtd">
<svg version="1.0" xmlns="http://www.w3.org/2000/svg"
 width="192.000000pt" height="192.000000pt" viewBox="0 0 192.000000 192.000000"
 preserveAspectRatio="xMidYMid meet">
<metadata>
Created by potrace 1.16, written by Peter Selinger 2001-2019
</metadata>
<g transform="translate(0.000000,192.000000) scale(0.100000,-0.100000)"
fill="#000000" stroke="none">
811 c445 -92 729 -532 635 -987 -62 -301 -295 -546 -601 -630 -91 -26 -329
-26 -420 0 -291 80 -516 305 -596 596 -26 91 -26 329 0 420 120 433 542 692
982 601z"/>
<path d="M705 1353 c-133 -20 -138 -29 -133 -252 l3 -167 37 -76 c46 -92 125
-177 226 -242 91 -59 123 -65 181 -34 25 13 46 29 48 35 2 5 -57 68 -132 138
-74 70 -135 135 -135 144 0 28 22 41 70 41 45 0 110 29 110 50 0 5 -45 11
-106 12 -89 3 -109 6 -118 21 -8 12 -8 22 0 35 9 14 29 17 118 20 61 1 106 7
106 12 0 6 -15 19 -32 30 -25 15 -51 20 -110 20 -82 0 -101 11 -90 52 7 26 28
29 216 26 148 -3 170 -5 180 -21 18 -28 -4 -52 -53 -55 -46 -4 -45 -2 -30 -36
8 -17 21 -26 42 -28 62 -6 61 -70 -1 -76 -22 -2 -33 -10 -42 -31 -13 -33 -53
-73 -93 -93 l-29 -15 103 -96 c84 -79 105 -94 120 -86 32 16 111 122 143 189
30 63 31 69 34 231 4 194 -3 220 -66 240 -37 12 -504 22 -567 12z"/>
</g>
</svg>
