<?xml version="1.0" standalone="no"?>
<!DOCTYPE svg PUBLIC "-//W3C//DTD SVG 20010904//EN"
 "http://www.w3.org/TR/2001/REC-SVG-20010904/DTD/svg10.dtd">
<svg version="1.0" xmlns="http://www.w3.org/2000/svg"
 width="192.000000pt" height="192.000000pt" viewBox="0 0 192.000000 192.000000"
 preserveAspectRatio="xMidYMid meet">
<metadata>
Created by potrace 1.16, written by Peter Selinger 2001-2019
</metadata>
<g transform="translate(0.000000,192.000000) scale(0.100000,-0.100000)"
fill="#000000" stroke="none">
811 c445 -92 729 -532 635 -987 -62 -301 -295 -546 -601 -630 -91 -26 -329
-26 -420 0 -291 80 -516 305 -596 596 -26 91 -26 329 0 420 120 433 542 692
982 601z"/>
<path d="M936 1344 c-14 -13 -16 -53 -16 -284 l0 -270 25 -16 c21 -14 25 -24
25 -68 0 -28 -4 -57 -8 -64 -7 -9 -42 -12 -143 -10 l-134 3 -3 238 -2 237 77
0 c89 0 106 7 101 41 -3 23 -6 24 -99 27 l-97 3 -26 -31 -26 -32 0 -239 c0
-274 4 -290 68 -309 22 -7 90 -10 169 -8 122 3 133 5 157 27 22 21 26 33 28
100 l3 76 123 5 c94 4 125 8 132 20 6 8 10 128 10 273 0 244 -1 258 -20 277
-18 18 -33 20 -174 20 -127 0 -157 -3 -170 -16z m202 -436 c7 -7 12 -22 12
-35 0 -28 -36 -46 -62 -31 -34 17 -16 78 22 78 9 0 21 -5 28 -12z"/>
<path d="M796 754 c-9 -8 -16 -22 -16 -29 0 -18 28 -45 45 -45 8 0 22 11 31
25 16 24 16 27 -1 45 -22 24 -38 25 -59 4z"/>
</g>
</svg>
