<?xml version="1.0" standalone="no"?>
<!DOCTYPE svg PUBLIC "-//W3C//DTD SVG 20010904//EN"
 "http://www.w3.org/TR/2001/REC-SVG-20010904/DTD/svg10.dtd">
<svg version="1.0" xmlns="http://www.w3.org/2000/svg"
 width="192.000000pt" height="192.000000pt" viewBox="0 0 192.000000 192.000000"
 preserveAspectRatio="xMidYMid meet">
<metadata>
Created by potrace 1.16, written by Peter Selinger 2001-2019
</metadata>
<g transform="translate(0.000000,192.000000) scale(0.100000,-0.100000)"
fill="#000000" stroke="none">
811 c445 -92 729 -532 635 -987 -62 -301 -295 -546 -601 -630 -91 -26 -329
-26 -420 0 -291 80 -516 305 -596 596 -26 91 -26 329 0 420 120 433 542 692
982 601z"/>
<path d="M895 1349 c-69 -37 -118 -50 -198 -54 -65 -3 -83 -7 -103 -26 -23
-21 -24 -28 -24 -148 0 -139 12 -201 57 -289 58 -116 241 -262 328 -262 74 0
216 100 291 207 72 100 87 154 92 323 4 144 4 145 -21 169 -21 19 -38 24 -100
26 -80 3 -127 15 -196 52 -54 28 -75 29 -126 2z m253 -221 c27 -27 11 -55
-100 -165 -62 -61 -123 -116 -136 -122 -21 -11 -29 -6 -88 51 -51 49 -64 67
-62 88 5 40 41 38 88 -4 22 -20 43 -36 47 -36 4 0 53 45 108 100 56 55 109
100 117 100 7 0 19 -5 26 -12z"/>
</g>
</svg>
