<?xml version="1.0" standalone="no"?>
<!DOCTYPE svg PUBLIC "-//W3C//DTD SVG 20010904//EN"
 "http://www.w3.org/TR/2001/REC-SVG-20010904/DTD/svg10.dtd">
<svg version="1.0" xmlns="http://www.w3.org/2000/svg"
 width="192.000000pt" height="192.000000pt" viewBox="0 0 192.000000 192.000000"
 preserveAspectRatio="xMidYMid meet">
<metadata>
Created by potrace 1.16, written by Peter Selinger 2001-2019
</metadata>
<g transform="translate(0.000000,192.000000) scale(0.100000,-0.100000)"
fill="#000000" stroke="none">
811 c445 -92 729 -532 635 -987 -62 -301 -295 -546 -601 -630 -91 -26 -329
-26 -420 0 -291 80 -516 305 -596 596 -26 91 -26 329 0 420 120 433 542 692
982 601z"/>
<path d="M560 1230 c-25 -25 -25 -42 -2 -63 16 -14 43 -17 166 -17 82 0 156 5
167 10 26 14 24 55 -3 74 -18 13 -52 16 -165 16 -130 0 -145 -2 -163 -20z"/>
<path d="M1009 1141 l-29 -29 0 -150 c0 -144 1 -150 24 -175 50 -54 77 -49
236 45 107 64 117 73 125 110 13 58 -9 84 -136 158 -138 82 -172 88 -220 41z"/>
<path d="M555 1070 c-15 -17 -16 -24 -7 -45 l12 -25 163 0 c113 0 167 4 175
12 18 18 14 56 -7 68 -11 5 -85 10 -169 10 -136 0 -150 -2 -167 -20z"/>
<path d="M556 914 c-19 -18 -20 -28 -6 -55 10 -18 23 -19 173 -19 171 0 187 4
187 45 0 41 -16 45 -181 45 -130 0 -160 -3 -173 -16z"/>
<path d="M548 745 c-9 -21 -8 -28 7 -45 17 -18 31 -20 167 -20 84 0 158 5 169
10 21 12 25 50 7 68 -8 8 -62 12 -175 12 l-163 0 -12 -25z"/>
</g>
</svg>
