<?xml version="1.0" standalone="no"?>
<!DOCTYPE svg PUBLIC "-//W3C//DTD SVG 20010904//EN"
 "http://www.w3.org/TR/2001/REC-SVG-20010904/DTD/svg10.dtd">
<svg version="1.0" xmlns="http://www.w3.org/2000/svg"
 width="192.000000pt" height="192.000000pt" viewBox="0 0 192.000000 192.000000"
 preserveAspectRatio="xMidYMid meet">
<metadata>
Created by potrace 1.16, written by Peter Selinger 2001-2019
</metadata>
<g transform="translate(0.000000,192.000000) scale(0.100000,-0.100000)"
fill="#000000" stroke="none">
811 c445 -92 729 -532 635 -987 -62 -301 -295 -546 -601 -630 -91 -26 -329
-26 -420 0 -291 80 -516 305 -596 596 -26 91 -26 329 0 420 120 433 542 692
982 601z"/>
<path d="M874 1341 c-41 -25 -71 -65 -86 -112 l-11 -39 -82 0 c-131 0 -124 23
-96 -312 18 -216 27 -287 39 -300 14 -16 42 -18 317 -18 262 0 304 2 316 16 8
10 21 113 37 295 29 336 34 319 -88 319 l-77 0 -12 40 c-14 46 -52 95 -92 115
-40 21 -127 19 -165 -4z m152 -84 c12 -12 25 -32 29 -44 6 -23 5 -23 -95 -23
-100 0 -101 0 -94 23 22 73 109 98 160 44z m-51 -267 c0 -20 -6 -26 -28 -28
-29 -4 -44 16 -33 44 4 10 15 14 33 12 22 -2 28 -8 28 -28z m-95 -95 c0 -116
-12 -135 -88 -135 -53 0 -72 12 -72 47 0 21 3 22 45 16 l45 -6 0 71 c0 89 5
102 41 102 l29 0 0 -95z m88 33 c14 -14 16 -136 3 -156 -4 -8 -19 -12 -32 -10
-23 3 -24 8 -27 77 -2 41 -1 80 2 88 7 16 38 17 54 1z m193 -17 c32 -33 37
-67 14 -110 -17 -34 -33 -41 -86 -41 -54 0 -89 34 -89 88 0 58 35 91 98 92 24
0 42 -8 63 -29z"/>
<path d="M1060 870 c-16 -31 4 -62 38 -58 19 2 28 10 30 26 7 47 -47 72 -68
32z"/>
</g>
</svg>
