<?xml version="1.0" standalone="no"?>
<!DOCTYPE svg PUBLIC "-//W3C//DTD SVG 20010904//EN"
 "http://www.w3.org/TR/2001/REC-SVG-20010904/DTD/svg10.dtd">
<svg version="1.0" xmlns="http://www.w3.org/2000/svg"
 width="192.000000pt" height="192.000000pt" viewBox="0 0 192.000000 192.000000"
 preserveAspectRatio="xMidYMid meet">
<metadata>
Created by potrace 1.16, written by Peter Selinger 2001-2019
</metadata>
<g transform="translate(0.000000,192.000000) scale(0.100000,-0.100000)"
fill="#000000" stroke="none">
811 c445 -92 729 -532 635 -987 -62 -301 -295 -546 -601 -630 -91 -26 -329
-26 -420 0 -291 80 -516 305 -596 596 -26 91 -26 329 0 420 120 433 542 692
982 601z"/>
<path d="M1217 1355 c-27 -7 -50 -15 -52 -17 -2 -2 21 -37 51 -79 l54 -77 42
10 c24 5 46 12 50 16 10 10 -21 122 -40 145 -17 20 -39 20 -105 2z"/>
<path d="M1048 1316 c-27 -6 -48 -15 -48 -21 -1 -18 101 -145 117 -145 15 0
105 21 112 26 1 1 -20 37 -49 78 -56 81 -56 81 -132 62z"/>
<path d="M878 1277 c-27 -6 -48 -14 -48 -19 0 -7 39 -67 96 -147 6 -7 134 23
134 32 0 18 -106 146 -120 145 -8 0 -36 -5 -62 -11z"/>
<path d="M715 1239 c-22 -5 -46 -11 -53 -14 -9 -3 3 -28 39 -79 l52 -75 -27
-65 c-14 -37 -26 -68 -26 -71 0 -3 29 -5 65 -5 l66 0 19 46 c11 25 23 57 26
70 6 23 4 24 -42 25 l-49 1 45 10 c25 5 48 13 53 17 12 12 -86 146 -108 148
-11 1 -38 -3 -60 -8z"/>
<path d="M568 1199 c-22 -13 -23 -58 -3 -125 8 -27 15 -71 15 -97 l0 -48 41 3
c40 3 41 4 68 68 l27 65 -50 73 c-49 71 -65 81 -98 61z"/>
<path d="M896 1005 c-14 -36 -26 -67 -26 -70 0 -3 29 -5 65 -5 l65 0 25 56
c36 82 35 84 -39 84 l-64 0 -26 -65z"/>
<path d="M1072 1018 c-11 -29 -23 -61 -27 -70 -6 -16 0 -18 59 -18 73 0 69 -3
105 89 l21 51 -69 0 -68 0 -21 -52z"/>
<path d="M1240 1005 c-17 -37 -30 -69 -30 -71 0 -2 36 -4 80 -4 l81 0 -3 68
-3 67 -48 3 -47 3 -30 -66z"/>
<path d="M580 805 c0 -59 5 -108 14 -128 16 -39 61 -82 99 -96 17 -7 127 -11
283 -11 291 0 310 4 361 82 25 37 28 52 31 144 l4 104 -396 0 -396 0 0 -95z"/>
</g>
</svg>
