<?xml version="1.0" standalone="no"?>
<!DOCTYPE svg PUBLIC "-//W3C//DTD SVG 20010904//EN"
 "http://www.w3.org/TR/2001/REC-SVG-20010904/DTD/svg10.dtd">
<svg version="1.0" xmlns="http://www.w3.org/2000/svg"
 width="192.000000pt" height="192.000000pt" viewBox="0 0 192.000000 192.000000"
 preserveAspectRatio="xMidYMid meet">
<metadata>
Created by potrace 1.16, written by Peter Selinger 2001-2019
</metadata>
<g transform="translate(0.000000,192.000000) scale(0.100000,-0.100000)"
fill="#000000" stroke="none">
811 c445 -92 729 -532 635 -987 -62 -301 -295 -546 -601 -630 -91 -26 -329
-26 -420 0 -291 80 -516 305 -596 596 -26 91 -26 329 0 420 120 433 542 692
982 601z"/>
<path d="M592 1138 c-8 -8 -12 -54 -12 -150 l0 -138 -36 0 c-25 0 -41 7 -54
23 -29 34 -55 13 -55 -44 l0 -44 105 0 105 0 0 180 c0 173 -1 180 -20 183 -11
1 -26 -3 -33 -10z"/>
<path d="M710 1131 c-5 -11 -10 -84 -10 -166 0 -82 5 -155 10 -166 9 -17 22
-19 103 -19 59 0 97 4 105 12 17 17 17 329 0 346 -8 8 -46 12 -105 12 -81 0
-94 -2 -103 -19z m145 -166 l0 -110 -37 -3 -38 -3 0 116 0 116 38 -3 37 -3 0
-110z"/>
<path d="M992 1138 c-17 -17 -17 -329 0 -346 8 -8 46 -12 105 -12 81 0 94 2
103 19 15 29 12 124 -4 146 -12 17 -12 22 0 39 16 24 19 119 4 147 -9 17 -22
19 -103 19 -59 0 -97 -4 -105 -12z m138 -99 l0 -40 -37 3 c-31 2 -39 7 -41 26
-6 39 5 52 43 52 34 0 35 -1 35 -41z m0 -150 l0 -40 -37 3 c-31 2 -39 7 -41
26 -6 39 5 52 43 52 34 0 35 -1 35 -41z"/>
<path d="M1264 1137 c-2 -7 -3 -56 -2 -108 l3 -94 73 -3 72 -3 0 -39 c0 -39
-1 -40 -36 -40 -24 0 -41 7 -53 21 -13 16 -23 20 -40 14 -19 -6 -22 -12 -19
-53 l3 -47 105 0 105 0 0 105 0 105 -72 3 -73 3 0 39 c0 39 1 40 36 40 25 0
41 -7 54 -22 29 -35 55 -14 55 43 l0 44 -103 3 c-79 2 -104 0 -108 -11z"/>
</g>
</svg>
