<?xml version="1.0" standalone="no"?>
<!DOCTYPE svg PUBLIC "-//W3C//DTD SVG 20010904//EN"
 "http://www.w3.org/TR/2001/REC-SVG-20010904/DTD/svg10.dtd">
<svg version="1.0" xmlns="http://www.w3.org/2000/svg"
 width="192.000000pt" height="192.000000pt" viewBox="0 0 192.000000 192.000000"
 preserveAspectRatio="xMidYMid meet">
<metadata>
Created by potrace 1.16, written by Peter Selinger 2001-2019
</metadata>
<g transform="translate(0.000000,192.000000) scale(0.100000,-0.100000)"
fill="#000000" stroke="none">
811 c445 -92 729 -532 635 -987 -62 -301 -295 -546 -601 -630 -91 -26 -329
-26 -420 0 -291 80 -516 305 -596 596 -26 91 -26 329 0 420 120 433 542 692
982 601z"/>
<path d="M632 1343 c-13 -3 -38 -20 -57 -39 -57 -57 -59 -139 -4 -194 30 -29
30 -30 18 -89 -24 -125 18 -250 117 -340 74 -68 145 -94 251 -95 77 0 88 3
160 40 90 46 149 110 182 198 23 61 28 166 12 224 -8 27 -7 34 10 43 57 30 76
130 36 190 -48 72 -135 86 -204 33 -32 -24 -34 -25 -85 -9 -67 20 -172 19
-232 -1 -45 -16 -48 -16 -69 4 -38 36 -77 46 -135 35z m182 -326 c38 -27 -2
-95 -41 -71 -25 16 -29 55 -7 71 10 7 21 13 24 13 3 0 14 -6 24 -13z m328 -4
c32 -29 16 -73 -27 -73 -42 0 -59 44 -29 74 20 20 33 20 56 -1z m-153 -8 c61
-31 93 -173 56 -245 -28 -55 -130 -63 -176 -14 -47 50 -33 182 26 241 37 37
53 40 94 18z"/>
</g>
</svg>
