<?xml version="1.0" standalone="no"?>
<!DOCTYPE svg PUBLIC "-//W3C//DTD SVG 20010904//EN"
 "http://www.w3.org/TR/2001/REC-SVG-20010904/DTD/svg10.dtd">
<svg version="1.0" xmlns="http://www.w3.org/2000/svg"
 width="192.000000pt" height="192.000000pt" viewBox="0 0 192.000000 192.000000"
 preserveAspectRatio="xMidYMid meet">
<metadata>
Created by potrace 1.16, written by Peter Selinger 2001-2019
</metadata>
<g transform="translate(0.000000,192.000000) scale(0.100000,-0.100000)"
fill="#000000" stroke="none">
811 c445 -92 729 -532 635 -987 -62 -301 -295 -546 -601 -630 -91 -26 -329
-26 -420 0 -291 80 -516 305 -596 596 -26 91 -26 329 0 420 120 433 542 692
982 601z"/>
<path d="M870 1369 c-70 -14 -151 -58 -208 -116 -199 -198 -138 -536 117 -657
61 -29 74 -31 176 -31 104 0 114 2 176 32 80 40 159 120 197 200 24 52 27 69
27 168 0 102 -2 115 -31 176 -81 171 -267 265 -454 228z m145 -170 c143 -40
216 -197 156 -334 -14 -31 -18 -56 -14 -77 6 -30 5 -31 -27 -26 -22 3 -51 -2
-79 -15 -101 -44 -223 -14 -288 71 -102 135 -43 327 117 377 56 17 84 18 135
4z"/>
<path d="M901 1056 c-54 -30 -67 -106 -25 -155 48 -58 135 -47 170 20 46 89
-57 184 -145 135z"/>
</g>
</svg>
