<?xml version="1.0" standalone="no"?>
<!DOCTYPE svg PUBLIC "-//W3C//DTD SVG 20010904//EN"
 "http://www.w3.org/TR/2001/REC-SVG-20010904/DTD/svg10.dtd">
<svg version="1.0" xmlns="http://www.w3.org/2000/svg"
 width="192.000000pt" height="192.000000pt" viewBox="0 0 192.000000 192.000000"
 preserveAspectRatio="xMidYMid meet">
<metadata>
Created by potrace 1.16, written by Peter Selinger 2001-2019
</metadata>
<g transform="translate(0.000000,192.000000) scale(0.100000,-0.100000)"
fill="#000000" stroke="none">
811 c445 -92 729 -532 635 -987 -62 -301 -295 -546 -601 -630 -91 -26 -329
-26 -420 0 -291 80 -516 305 -596 596 -26 91 -26 329 0 420 120 433 542 692
982 601z"/>
<path d="M717 1330 c-46 -14 -98 -60 -118 -104 -16 -36 -19 -68 -19 -261 0
-209 1 -223 23 -265 13 -26 40 -57 65 -75 l44 -30 226 -3 227 -3 55 28 c44 23
59 39 82 82 l28 53 0 212 c0 208 0 213 -26 264 -19 39 -38 59 -72 80 l-47 27
-220 2 c-121 1 -233 -2 -248 -7z m228 -125 l0 -30 -83 -5 c-103 -6 -112 -15
-112 -110 0 -68 -10 -90 -42 -90 -29 0 -41 37 -36 111 6 76 23 110 71 140 26
16 47 19 117 17 l85 -3 0 -30z m283 -332 c5 -141 -35 -183 -174 -183 -91 0
-114 12 -94 49 9 18 20 21 81 21 61 0 73 3 94 25 22 21 25 33 25 93 0 38 3 72
7 76 4 4 19 6 33 4 24 -3 25 -6 28 -85z"/>
</g>
</svg>
