<?xml version="1.0" standalone="no"?>
<!DOCTYPE svg PUBLIC "-//W3C//DTD SVG 20010904//EN"
 "http://www.w3.org/TR/2001/REC-SVG-20010904/DTD/svg10.dtd">
<svg version="1.0" xmlns="http://www.w3.org/2000/svg"
 width="192.000000pt" height="192.000000pt" viewBox="0 0 192.000000 192.000000"
 preserveAspectRatio="xMidYMid meet">
<metadata>
Created by potrace 1.16, written by Peter Selinger 2001-2019
</metadata>
<g transform="translate(0.000000,192.000000) scale(0.100000,-0.100000)"
fill="#000000" stroke="none">
811 c445 -92 729 -532 635 -987 -62 -301 -295 -546 -601 -630 -91 -26 -329
-26 -420 0 -291 80 -516 305 -596 596 -26 91 -26 329 0 420 120 433 542 692
982 601z"/>
<path d="M695 1321 c-96 -44 -115 -94 -115 -296 l0 -155 231 0 230 0 -3 48 -3
47 -90 5 c-50 3 -90 9 -90 15 2 69 76 159 140 171 25 4 39 13 42 25 7 25 34
24 40 -1 3 -11 14 -20 25 -20 47 0 116 -59 142 -122 28 -66 27 -68 -74 -68
l-90 0 0 -50 0 -50 126 0 126 0 -4 169 -3 169 -30 44 c-18 25 -49 52 -75 66
-42 21 -56 22 -265 22 -192 0 -225 -3 -260 -19z m74 -66 c89 -45 20 -175 -74
-139 -18 7 -45 55 -45 79 0 9 13 30 29 46 33 33 50 35 90 14z"/>
<path d="M580 795 l0 -55 231 0 230 0 -3 53 -3 52 -227 3 -228 2 0 -55z"/>
<path d="M1080 795 l0 -56 123 3 122 3 3 53 3 52 -125 0 -126 0 0 -55z"/>
<path d="M604 693 c18 -35 51 -66 93 -87 25 -13 64 -16 188 -16 l156 0 -3 63
-3 62 -223 3 -223 2 15 -27z"/>
<path d="M1080 655 l0 -65 48 0 c26 0 66 9 88 19 40 18 94 76 94 99 0 9 -35
12 -115 12 l-115 0 0 -65z"/>
</g>
</svg>
