<?xml version="1.0" standalone="no"?>
<!DOCTYPE svg PUBLIC "-//W3C//DTD SVG 20010904//EN"
 "http://www.w3.org/TR/2001/REC-SVG-20010904/DTD/svg10.dtd">
<svg version="1.0" xmlns="http://www.w3.org/2000/svg"
 width="192.000000pt" height="192.000000pt" viewBox="0 0 192.000000 192.000000"
 preserveAspectRatio="xMidYMid meet">
<metadata>
Created by potrace 1.16, written by Peter Selinger 2001-2019
</metadata>
<g transform="translate(0.000000,192.000000) scale(0.100000,-0.100000)"
fill="#000000" stroke="none">
811 c445 -92 729 -532 635 -987 -62 -301 -295 -546 -601 -630 -91 -26 -329
-26 -420 0 -291 80 -516 305 -596 596 -26 91 -26 329 0 420 120 433 542 692
982 601z"/>
<path d="M735 1180 c-72 -16 -115 -68 -115 -141 0 -114 123 -187 218 -129 140
86 57 304 -103 270z m83 -113 c33 -68 -45 -130 -98 -77 -24 24 -26 57 -4 88
24 34 84 28 102 -11z"/>
<path d="M1355 1183 c-11 -3 -26 -10 -32 -15 -9 -7 -13 -7 -13 1 0 16 -65 14
-79 -3 -8 -9 -11 -55 -9 -137 l3 -124 40 0 40 0 3 75 c3 109 7 120 41 120 37
0 41 -12 41 -116 l0 -84 39 0 c47 0 51 8 51 98 -1 84 -13 140 -37 162 -20 20
-58 29 -88 23z"/>
<path d="M440 1166 c-7 -9 -10 -26 -6 -40 5 -19 14 -25 39 -28 l32 -3 3 -113
c3 -119 -5 -152 -38 -152 -24 0 -43 -34 -35 -60 9 -27 67 -27 105 0 45 32 51
60 48 240 l-3 165 -66 3 c-50 2 -69 -1 -79 -12z"/>
<path d="M947 1174 c-4 -4 -7 -56 -7 -116 0 -108 0 -110 29 -139 31 -31 75
-38 112 -18 19 10 20 8 17 -28 -2 -31 -7 -39 -26 -41 -14 -2 -33 5 -47 18 -15
14 -33 20 -51 18 -44 -5 -44 -40 -1 -83 31 -31 41 -35 85 -35 35 0 57 6 77 22
47 36 55 73 55 236 0 155 -4 172 -45 172 -37 0 -45 -20 -45 -105 0 -83 -9
-105 -41 -105 -28 0 -34 18 -39 115 l-5 90 -30 3 c-17 2 -34 0 -38 -4z"/>
</g>
</svg>
