<?xml version="1.0" standalone="no"?>
<!DOCTYPE svg PUBLIC "-//W3C//DTD SVG 20010904//EN"
 "http://www.w3.org/TR/2001/REC-SVG-20010904/DTD/svg10.dtd">
<svg version="1.0" xmlns="http://www.w3.org/2000/svg"
 width="192.000000pt" height="192.000000pt" viewBox="0 0 192.000000 192.000000"
 preserveAspectRatio="xMidYMid meet">
<metadata>
Created by potrace 1.16, written by Peter Selinger 2001-2019
</metadata>
<g transform="translate(0.000000,192.000000) scale(0.100000,-0.100000)"
fill="#000000" stroke="none">
811 c445 -92 729 -532 635 -987 -62 -301 -295 -546 -601 -630 -91 -26 -329
-26 -420 0 -291 80 -516 305 -596 596 -26 91 -26 329 0 420 120 433 542 692
982 601z"/>
<path d="M960 1349 c-53 -21 -100 -84 -100 -134 0 -31 -14 -32 -34 -3 -19 27
-21 79 -4 96 9 9 6 12 -15 12 -103 0 -166 -139 -107 -234 22 -36 19 -42 -20
-36 -20 2 -60 40 -60 57 0 23 -19 14 -35 -17 -23 -44 -19 -111 8 -151 28 -41
82 -79 113 -79 30 0 31 -14 2 -34 -28 -20 -45 -20 -82 -1 l-29 15 6 -35 c8
-50 40 -90 87 -109 55 -22 78 -20 136 9 27 14 50 25 52 25 1 0 2 -11 2 -24 0
-31 -36 -76 -61 -76 -46 0 1 -44 59 -56 38 -8 111 17 137 46 10 11 26 42 35
70 17 49 17 50 35 30 19 -21 24 -63 11 -93 -13 -29 46 -22 85 10 62 52 75 129
34 201 l-24 42 30 0 c31 0 69 -30 69 -55 0 -25 19 -17 40 18 51 83 -3 189
-111 221 -40 12 -40 12 -20 30 22 20 64 25 94 12 29 -13 22 46 -10 85 -52 61
-120 74 -196 35 l-47 -23 0 28 c0 31 30 69 55 69 25 0 17 19 -17 40 -36 21
-78 25 -118 9z"/>
</g>
</svg>
