<?xml version="1.0" standalone="no"?>
<!DOCTYPE svg PUBLIC "-//W3C//DTD SVG 20010904//EN"
 "http://www.w3.org/TR/2001/REC-SVG-20010904/DTD/svg10.dtd">
<svg version="1.0" xmlns="http://www.w3.org/2000/svg"
 width="192.000000pt" height="192.000000pt" viewBox="0 0 192.000000 192.000000"
 preserveAspectRatio="xMidYMid meet">
<metadata>
Created by potrace 1.16, written by Peter Selinger 2001-2019
</metadata>
<g transform="translate(0.000000,192.000000) scale(0.100000,-0.100000)"
fill="#000000" stroke="none">
811 c445 -92 729 -532 635 -987 -62 -301 -295 -546 -601 -630 -91 -26 -329
-26 -420 0 -291 80 -516 305 -596 596 -26 91 -26 329 0 420 120 433 542 692
982 601z"/>
<path d="M1162 1311 c-18 -12 -38 -32 -44 -46 l-11 -25 -177 0 -176 0 -22 30
c-22 29 -26 30 -100 30 -82 0 -102 -9 -102 -45 0 -33 20 -45 76 -45 l52 0 57
-117 56 -118 -25 -51 c-32 -64 -33 -88 -1 -119 24 -25 25 -25 233 -25 218 0
232 3 232 45 0 42 -15 45 -203 45 -159 0 -178 2 -173 16 3 9 6 18 6 20 0 2 61
4 136 4 l136 0 27 29 c15 16 35 47 45 69 17 37 21 40 67 44 128 13 172 157 75
247 -37 34 -118 40 -164 12z m88 -91 c0 -5 10 -10 22 -10 19 0 20 -2 6 -17 -9
-10 -14 -23 -11 -29 2 -6 -9 -11 -27 -11 -21 0 -30 5 -30 17 0 9 -5 21 -12 28
-9 9 -7 12 10 12 12 0 22 5 22 10 0 6 5 10 10 10 6 0 10 -4 10 -10z"/>
<path d="M749 731 c-36 -36 -37 -73 -4 -106 34 -35 86 -34 114 1 35 45 24 96
-26 122 -34 18 -52 14 -84 -17z"/>
<path d="M1079 731 c-36 -36 -37 -73 -4 -106 34 -35 86 -34 114 1 35 45 24 96
-26 122 -34 18 -52 14 -84 -17z"/>
</g>
</svg>
