<?xml version="1.0" standalone="no"?>
<!DOCTYPE svg PUBLIC "-//W3C//DTD SVG 20010904//EN"
 "http://www.w3.org/TR/2001/REC-SVG-20010904/DTD/svg10.dtd">
<svg version="1.0" xmlns="http://www.w3.org/2000/svg"
 width="192.000000pt" height="192.000000pt" viewBox="0 0 192.000000 192.000000"
 preserveAspectRatio="xMidYMid meet">
<metadata>
Created by potrace 1.16, written by Peter Selinger 2001-2019
</metadata>
<g transform="translate(0.000000,192.000000) scale(0.100000,-0.100000)"
fill="#000000" stroke="none">
811 c445 -92 729 -532 635 -987 -62 -301 -295 -546 -601 -630 -91 -26 -329
-26 -420 0 -291 80 -516 305 -596 596 -26 91 -26 329 0 420 120 433 542 692
982 601z"/>
<path d="M739 1194 c-103 -103 -190 -198 -193 -211 -9 -35 19 -83 54 -90 l30
-5 0 -129 c0 -70 4 -139 10 -153 13 -36 59 -56 131 -56 l61 0 -7 76 c-5 54
-12 81 -26 95 -17 17 -19 34 -19 149 0 147 18 181 22 43 2 -70 6 -88 18 -88
12 0 16 15 18 65 3 76 9 110 21 110 4 0 7 -39 7 -87 -1 -72 2 -88 14 -88 12 0
17 19 23 84 7 82 12 100 22 89 3 -2 2 -62 -2 -133 -5 -108 -9 -131 -25 -147
-17 -17 -19 -28 -13 -94 l7 -74 84 0 84 0 0 33 c0 17 3 48 6 68 6 34 4 36 -27
45 -32 9 -34 13 -37 57 -6 95 62 272 104 272 18 0 19 -12 19 -237 l-1 -238 39
0 c49 0 95 24 107 56 6 14 10 83 10 153 l0 129 30 5 c35 7 63 55 54 90 -3 13
-90 108 -193 211 -156 155 -192 186 -216 186 -24 0 -60 -31 -216 -186z"/>
</g>
</svg>
