<?xml version="1.0" standalone="no"?>
<!DOCTYPE svg PUBLIC "-//W3C//DTD SVG 20010904//EN"
 "http://www.w3.org/TR/2001/REC-SVG-20010904/DTD/svg10.dtd">
<svg version="1.0" xmlns="http://www.w3.org/2000/svg"
 width="192.000000pt" height="192.000000pt" viewBox="0 0 192.000000 192.000000"
 preserveAspectRatio="xMidYMid meet">
<metadata>
Created by potrace 1.16, written by Peter Selinger 2001-2019
</metadata>
<g transform="translate(0.000000,192.000000) scale(0.100000,-0.100000)"
fill="#000000" stroke="none">
811 c445 -92 729 -532 635 -987 -62 -301 -295 -546 -601 -630 -91 -26 -329
-26 -420 0 -291 80 -516 305 -596 596 -26 91 -26 329 0 420 120 433 542 692
982 601z"/>
<path d="M771 1274 c-20 -14 -21 -23 -21 -185 l0 -169 -43 0 c-31 0 -45 5 -55
20 -14 22 -51 27 -70 8 -18 -18 -15 -94 4 -112 20 -20 211 -23 237 -3 16 11
17 34 15 226 -3 208 -4 214 -24 222 -14 5 -29 2 -43 -7z"/>
<path d="M913 1279 c-23 -8 -23 -10 -23 -223 0 -251 -8 -236 118 -236 58 0 83
4 92 15 11 13 15 13 33 0 29 -20 166 -21 193 -1 17 13 19 30 22 203 4 215 -2
243 -47 243 -20 0 -34 -7 -41 -19 -6 -11 -10 -89 -10 -180 l0 -161 -45 0 -45
0 -2 171 c-3 160 -4 172 -23 185 -18 12 -24 11 -43 -2 -21 -15 -22 -21 -22
-185 l0 -169 -45 0 -45 0 -2 171 c-3 159 -4 173 -23 184 -13 9 -28 10 -42 4z"/>
<path d="M687 764 c-4 -4 -7 -31 -7 -61 l0 -53 40 0 c22 0 40 5 40 10 0 6 -11
10 -25 10 -16 0 -25 6 -25 15 0 8 9 15 20 15 11 0 20 5 20 10 0 6 -9 10 -20
10 -27 0 -25 18 3 22 12 2 22 8 22 13 0 12 -57 19 -68 9z"/>
<path d="M790 757 c0 -7 7 -35 16 -61 20 -59 42 -58 60 4 16 54 17 70 4 70 -5
0 -15 -19 -21 -42 l-12 -43 -14 43 c-14 40 -33 57 -33 29z"/>
<path d="M920 710 l0 -60 35 0 c19 0 35 5 35 10 0 6 -12 10 -26 10 -31 0 -28
23 4 28 27 4 19 22 -9 22 -10 0 -19 5 -19 10 0 6 11 10 25 10 16 0 25 6 25 15
0 10 -11 15 -35 15 l-35 0 0 -60z"/>
<path d="M1030 710 c0 -63 16 -84 22 -27 l3 32 18 -32 c26 -48 37 -40 37 27 0
63 -16 84 -22 28 l-3 -33 -18 33 c-26 47 -37 39 -37 -28z"/>
<path d="M1150 755 c0 -8 7 -15 15 -15 11 0 15 -12 15 -45 0 -25 5 -45 10 -45
6 0 10 20 10 45 0 33 4 45 15 45 8 0 15 7 15 15 0 11 -11 15 -40 15 -29 0 -40
-4 -40 -15z"/>
</g>
</svg>
