<?xml version="1.0" standalone="no"?>
<!DOCTYPE svg PUBLIC "-//W3C//DTD SVG 20010904//EN"
 "http://www.w3.org/TR/2001/REC-SVG-20010904/DTD/svg10.dtd">
<svg version="1.0" xmlns="http://www.w3.org/2000/svg"
 width="192.000000pt" height="192.000000pt" viewBox="0 0 192.000000 192.000000"
 preserveAspectRatio="xMidYMid meet">
<metadata>
Created by potrace 1.16, written by Peter Selinger 2001-2019
</metadata>
<g transform="translate(0.000000,192.000000) scale(0.100000,-0.100000)"
fill="#000000" stroke="none">
811 c445 -92 729 -532 635 -987 -62 -301 -295 -546 -601 -630 -91 -26 -329
-26 -420 0 -291 80 -516 305 -596 596 -26 91 -26 329 0 420 120 433 542 692
982 601z"/>
<path d="M767 1278 c-14 -11 -17 -38 -19 -188 l-3 -175 -41 -3 c-35 -3 -44 1
-58 22 -32 50 -86 22 -86 -44 0 -62 15 -70 140 -70 85 0 112 3 124 16 14 13
16 47 16 219 0 199 0 204 -22 219 -27 19 -30 19 -51 4z"/>
<path d="M897 1272 c-15 -16 -17 -46 -17 -216 0 -117 4 -205 10 -217 9 -17 22
-19 104 -19 73 0 96 3 107 16 11 14 13 14 21 0 7 -13 28 -16 101 -16 59 0 97
4 105 12 9 9 12 71 12 218 0 188 -2 208 -18 223 -23 21 -36 21 -56 1 -13 -13
-16 -45 -16 -190 l0 -174 -45 0 -45 0 0 170 c0 157 -2 172 -20 190 -11 11 -24
20 -30 20 -5 0 -19 -9 -30 -20 -18 -18 -20 -33 -20 -190 l0 -170 -45 0 -45 0
0 174 c0 145 -3 177 -16 190 -20 21 -37 20 -57 -2z"/>
<path d="M580 700 l0 -60 50 0 c28 0 50 5 50 10 0 14 33 13 48 -2 22 -22 24 0
6 56 -22 70 -42 71 -63 3 -13 -41 -18 -47 -43 -47 -27 0 -28 2 -28 50 0 28 -4
50 -10 50 -6 0 -10 -27 -10 -60z m126 -17 c-11 -11 -17 4 -9 23 7 18 8 18 11
1 2 -10 1 -21 -2 -24z"/>
<path d="M760 700 c0 -47 3 -60 15 -60 10 0 15 11 16 33 l0 32 17 -33 c22 -46
37 -35 40 31 2 46 0 57 -13 57 -10 0 -15 -10 -16 -32 l0 -33 -16 33 c-27 52
-43 41 -43 -28z"/>
<path d="M866 744 c-9 -23 -7 -77 3 -92 5 -8 22 -12 42 -10 30 3 34 7 37 36 3
27 0 32 -17 32 -22 0 -28 -14 -11 -25 13 -8 3 -25 -16 -25 -10 0 -14 12 -14
40 0 41 14 52 38 28 15 -15 26 -4 19 17 -9 21 -73 20 -81 -1z"/>
<path d="M972 703 c3 -55 4 -58 31 -61 42 -5 57 13 57 69 0 37 -4 49 -15 49
-11 0 -15 -12 -15 -51 0 -43 -3 -50 -17 -47 -14 2 -19 15 -21 51 -2 26 -8 47
-13 47 -6 0 -9 -24 -7 -57z"/>
<path d="M1081 716 c-6 -24 -13 -51 -17 -60 -4 -11 -1 -16 10 -16 9 0 16 5 16
10 0 14 33 13 48 -2 20 -20 22 -4 5 55 -20 73 -45 78 -62 13z m35 -33 c-11
-11 -19 6 -11 24 8 17 8 17 12 0 3 -10 2 -21 -1 -24z"/>
<path d="M1174 746 c-3 -7 -4 -33 -2 -57 3 -42 5 -44 35 -47 27 -3 35 1 45 23
14 31 -1 52 -29 40 -12 -5 -14 -9 -5 -12 19 -7 15 -35 -5 -31 -13 2 -19 14
-21 41 -3 32 0 37 17 37 12 0 21 -4 21 -10 0 -5 6 -10 14 -10 9 0 12 7 9 20
-4 15 -14 20 -39 20 -20 0 -37 -6 -40 -14z"/>
<path d="M1270 700 l0 -60 34 0 c19 0 38 5 41 10 4 6 -5 10 -19 10 -16 0 -26
6 -26 15 0 8 9 15 20 15 11 0 20 5 20 10 0 6 -9 10 -20 10 -11 0 -20 7 -20 15
0 8 9 15 20 15 11 0 20 5 20 10 0 6 -16 10 -35 10 l-35 0 0 -60z"/>
</g>
</svg>
