<?xml version="1.0" standalone="no"?>
<!DOCTYPE svg PUBLIC "-//W3C//DTD SVG 20010904//EN"
 "http://www.w3.org/TR/2001/REC-SVG-20010904/DTD/svg10.dtd">
<svg version="1.0" xmlns="http://www.w3.org/2000/svg"
 width="192.000000pt" height="192.000000pt" viewBox="0 0 192.000000 192.000000"
 preserveAspectRatio="xMidYMid meet">
<metadata>
Created by potrace 1.16, written by Peter Selinger 2001-2019
</metadata>
<g transform="translate(0.000000,192.000000) scale(0.100000,-0.100000)"
fill="#000000" stroke="none">
811 c445 -92 729 -532 635 -987 -62 -301 -295 -546 -601 -630 -91 -26 -329
-26 -420 0 -291 80 -516 305 -596 596 -26 91 -26 329 0 420 120 433 542 692
982 601z"/>
<path d="M762 1278 c-8 -8 -12 -64 -12 -185 l0 -173 -45 0 c-25 0 -45 4 -45
10 0 5 -11 17 -24 25 -19 13 -29 14 -45 5 -17 -9 -21 -20 -21 -60 0 -69 19
-80 135 -80 142 0 135 -12 135 239 0 148 -3 210 -12 219 -15 15 -51 15 -66 0z"/>
<path d="M897 1272 c-15 -16 -17 -46 -17 -213 0 -153 3 -199 14 -215 12 -16
27 -19 106 -19 78 0 93 3 102 18 9 18 10 18 23 0 19 -25 155 -32 190 -9 l25
16 0 208 c0 218 -3 232 -45 232 -41 0 -45 -15 -45 -197 l0 -173 -45 0 -45 0 0
169 c0 179 -5 201 -49 201 -37 0 -41 -19 -41 -197 l0 -173 -45 0 -45 0 0 163
c0 131 -3 167 -16 185 -18 27 -45 28 -67 4z"/>
<path d="M570 706 l0 -66 40 0 c22 0 40 5 40 10 0 6 -11 10 -24 10 -23 0 -25
4 -28 52 -2 30 -8 53 -15 56 -10 3 -13 -14 -13 -62z"/>
<path d="M680 706 c0 -53 3 -66 15 -66 13 0 15 11 13 62 -2 38 -8 63 -15 66
-10 3 -13 -14 -13 -62z"/>
<path d="M750 705 l0 -65 39 0 c44 0 50 10 47 71 -3 49 -12 59 -52 59 l-34 0
0 -65z m60 25 c0 -5 -9 -10 -20 -10 -11 0 -20 5 -20 10 0 6 9 10 20 10 11 0
20 -4 20 -10z m0 -56 c0 -9 -7 -14 -17 -12 -25 5 -28 28 -4 28 12 0 21 -6 21
-16z"/>
<path d="M877 764 c-4 -4 -7 -34 -7 -66 0 -45 3 -58 15 -58 8 0 15 9 15 20 0
11 4 20 9 20 5 0 13 -9 16 -20 3 -11 12 -20 19 -20 8 0 12 20 11 63 l0 62 -35
3 c-20 2 -39 0 -43 -4z m58 -44 c0 -8 -8 -16 -17 -18 -13 -2 -18 3 -18 18 0
15 5 20 18 18 9 -2 17 -10 17 -18z"/>
<path d="M1027 763 c-5 -8 -37 -113 -37 -120 0 -2 7 -3 15 -3 8 0 15 5 15 10
0 14 33 13 47 -1 24 -24 29 -1 11 59 -17 56 -37 78 -51 55z m23 -53 c0 -11 -4
-20 -9 -20 -5 0 -7 9 -4 20 3 11 7 20 9 20 2 0 4 -9 4 -20z"/>
<path d="M1130 705 c0 -66 13 -85 29 -43 l8 22 12 -22 c15 -28 31 -28 30 1 0
12 3 34 7 50 9 36 -10 57 -52 57 l-34 0 0 -65z m58 18 c-5 -25 -28 -28 -28 -4
0 12 6 21 16 21 9 0 14 -7 12 -17z"/>
<path d="M1250 758 c1 -7 7 -24 15 -38 8 -14 14 -37 15 -52 0 -17 5 -28 14
-28 7 0 16 12 18 28 3 15 13 44 22 65 13 30 14 37 3 37 -8 0 -19 -12 -26 -27
l-13 -28 -14 28 c-15 28 -34 36 -34 15z"/>
</g>
</svg>
