<?xml version="1.0" standalone="no"?>
<!DOCTYPE svg PUBLIC "-//W3C//DTD SVG 20010904//EN"
 "http://www.w3.org/TR/2001/REC-SVG-20010904/DTD/svg10.dtd">
<svg version="1.0" xmlns="http://www.w3.org/2000/svg"
 width="192.000000pt" height="192.000000pt" viewBox="0 0 192.000000 192.000000"
 preserveAspectRatio="xMidYMid meet">
<metadata>
Created by potrace 1.16, written by Peter Selinger 2001-2019
</metadata>
<g transform="translate(0.000000,192.000000) scale(0.100000,-0.100000)"
fill="#000000" stroke="none">
811 c445 -92 729 -532 635 -987 -62 -301 -295 -546 -601 -630 -91 -26 -329
-26 -420 0 -291 80 -516 305 -596 596 -26 91 -26 329 0 420 120 433 542 692
982 601z"/>
<path d="M760 1280 c-18 -18 -20 -33 -20 -190 l0 -170 -45 0 c-33 0 -45 4 -45
15 0 14 -29 35 -49 35 -35 0 -58 -99 -29 -128 8 -8 50 -12 125 -12 152 0 145
-12 141 245 -3 181 -5 198 -22 211 -26 18 -32 18 -56 -6z"/>
<path d="M910 1292 c-8 -3 -18 -10 -22 -16 -13 -20 -9 -421 4 -434 18 -18 183
-16 201 3 13 13 16 13 27 0 9 -11 35 -15 100 -15 125 0 120 -9 120 233 0 184
-1 198 -20 217 -24 24 -30 24 -56 6 -17 -13 -19 -30 -22 -190 l-3 -176 -45 0
-44 0 0 173 c0 94 -4 177 -8 183 -13 19 -39 23 -61 8 -20 -14 -21 -23 -21
-190 l0 -174 -45 0 -45 0 -2 176 c-3 164 -4 177 -23 189 -11 7 -27 10 -35 7z"/>
<path d="M570 695 l0 -65 35 0 c24 0 35 5 35 15 0 9 -9 15 -25 15 -23 0 -25 3
-25 50 0 28 -4 50 -10 50 -6 0 -10 -28 -10 -65z"/>
<path d="M680 695 c0 -37 4 -65 10 -65 6 0 10 28 10 65 0 37 -4 65 -10 65 -6
0 -10 -28 -10 -65z"/>
<path d="M750 696 c0 -65 0 -66 28 -66 45 0 53 12 50 71 l-3 54 -37 3 -38 3 0
-65z m54 29 c-1 -18 -34 -18 -34 0 0 10 7 15 18 13 9 -2 17 -8 16 -13z m4 -52
c2 -8 -5 -13 -17 -13 -12 0 -21 6 -21 16 0 18 31 15 38 -3z"/>
<path d="M870 701 c0 -60 16 -92 27 -52 7 26 15 27 31 1 16 -26 36 -17 22 9
-6 12 -5 22 1 28 6 6 9 23 7 39 -3 26 -7 29 -45 32 l-43 3 0 -60z m60 19 c0
-11 -7 -20 -15 -20 -8 0 -15 9 -15 20 0 11 7 20 15 20 8 0 15 -9 15 -20z"/>
<path d="M1006 699 c-18 -63 -14 -87 8 -56 16 21 42 22 50 2 6 -17 26 -20 26
-4 0 6 -7 35 -16 65 -22 77 -46 74 -68 -7z m40 -16 c-11 -11 -19 6 -11 24 8
17 8 17 12 0 3 -10 2 -21 -1 -24z"/>
<path d="M1130 695 c0 -37 4 -65 10 -65 6 0 10 9 10 20 0 11 4 20 10 20 5 0
14 -9 20 -20 14 -27 34 -26 27 2 -3 12 -1 30 4 41 6 10 8 30 5 43 -5 20 -12
24 -46 24 l-40 0 0 -65z m60 25 c0 -13 -7 -20 -20 -20 -13 0 -20 7 -20 20 0
13 7 20 20 20 13 0 20 -7 20 -20z"/>
<path d="M1253 743 c3 -10 11 -34 18 -53 6 -19 14 -41 15 -48 5 -19 24 -4 24
19 0 11 9 38 20 59 17 34 18 40 5 40 -8 0 -21 -12 -27 -26 l-12 -25 -13 25
c-15 29 -38 35 -30 9z"/>
</g>
</svg>
