<?xml version="1.0" standalone="no"?>
<!DOCTYPE svg PUBLIC "-//W3C//DTD SVG 20010904//EN"
 "http://www.w3.org/TR/2001/REC-SVG-20010904/DTD/svg10.dtd">
<svg version="1.0" xmlns="http://www.w3.org/2000/svg"
 width="192.000000pt" height="192.000000pt" viewBox="0 0 192.000000 192.000000"
 preserveAspectRatio="xMidYMid meet">
<metadata>
Created by potrace 1.16, written by Peter Selinger 2001-2019
</metadata>
<g transform="translate(0.000000,192.000000) scale(0.100000,-0.100000)"
fill="#000000" stroke="none">
811 c445 -92 729 -532 635 -987 -62 -301 -295 -546 -601 -630 -91 -26 -329
-26 -420 0 -291 80 -516 305 -596 596 -26 91 -26 329 0 420 120 433 542 692
982 601z"/>
<path d="M726 1344 c-30 -30 -11 -84 29 -84 16 0 25 -6 25 -15 0 -12 -14 -15
-68 -15 -102 0 -102 0 -102 -203 0 -137 3 -168 16 -181 13 -14 57 -16 329 -16
313 0 314 0 329 22 13 18 16 54 16 180 0 195 -2 198 -110 198 -56 0 -70 3 -70
15 0 9 9 15 23 15 13 0 28 5 35 12 19 19 15 66 -7 78 -31 16 -117 12 -135 -6
-22 -22 -20 -61 4 -76 11 -7 20 -18 20 -25 0 -10 -28 -13 -110 -13 -89 0 -110
3 -110 14 0 8 9 18 20 21 28 9 28 70 1 85 -31 16 -117 12 -135 -6z m114 -254
l112 -60 113 60 c123 66 158 74 153 38 -2 -18 -31 -38 -128 -90 -69 -37 -130
-68 -137 -68 -12 0 -252 126 -267 140 -14 14 1 40 23 40 11 0 70 -27 131 -60z"/>
<path d="M700 794 c-16 -18 -2 -49 58 -129 36 -48 40 -50 87 -50 l50 0 5 40
c5 38 7 40 43 43 48 4 67 -11 67 -54 l0 -34 50 0 49 0 51 75 c84 124 91 119
-201 123 -215 2 -248 0 -259 -14z"/>
<path d="M917 673 c-13 -12 -7 -70 7 -83 8 -6 25 -10 38 -8 20 3 23 10 26 51
l3 47 -34 0 c-18 0 -37 -3 -40 -7z"/>
</g>
</svg>
