<?xml version="1.0" standalone="no"?>
<!DOCTYPE svg PUBLIC "-//W3C//DTD SVG 20010904//EN"
 "http://www.w3.org/TR/2001/REC-SVG-20010904/DTD/svg10.dtd">
<svg version="1.0" xmlns="http://www.w3.org/2000/svg"
 width="192.000000pt" height="192.000000pt" viewBox="0 0 192.000000 192.000000"
 preserveAspectRatio="xMidYMid meet">
<metadata>
Created by potrace 1.16, written by Peter Selinger 2001-2019
</metadata>
<g transform="translate(0.000000,192.000000) scale(0.100000,-0.100000)"
fill="#000000" stroke="none">
811 c445 -92 729 -532 635 -987 -62 -301 -295 -546 -601 -630 -91 -26 -329
-26 -420 0 -291 80 -516 305 -596 596 -26 91 -26 329 0 420 120 433 542 692
982 601z"/>
<path d="M1162 1354 c-13 -9 -24 -30 -28 -55 -6 -34 -10 -39 -33 -39 -40 0
-71 -26 -71 -60 0 -34 31 -60 71 -60 23 0 27 -5 33 -40 4 -27 14 -45 31 -56
23 -15 27 -15 50 0 17 11 27 29 31 56 6 35 10 40 33 40 40 0 71 26 71 60 0 34
-31 60 -71 60 -23 0 -27 5 -33 39 -5 35 -34 71 -56 71 -3 0 -16 -7 -28 -16z"/>
<path d="M572 1168 c-9 -9 -12 -88 -12 -293 0 -260 1 -283 18 -298 25 -22 48
-21 72 3 17 17 20 33 20 100 l0 80 125 -100 c69 -55 134 -100 144 -100 23 0
51 31 51 56 0 29 -11 40 -153 154 -105 84 -126 105 -115 115 7 6 70 58 141
114 107 86 127 106 127 129 0 35 -17 52 -51 52 -18 0 -62 -28 -145 -95 l-119
-95 -5 79 c-3 44 -11 85 -19 95 -16 19 -62 21 -79 4z"/>
</g>
</svg>
