<?xml version="1.0" standalone="no"?>
<!DOCTYPE svg PUBLIC "-//W3C//DTD SVG 20010904//EN"
 "http://www.w3.org/TR/2001/REC-SVG-20010904/DTD/svg10.dtd">
<svg version="1.0" xmlns="http://www.w3.org/2000/svg"
 width="192.000000pt" height="192.000000pt" viewBox="0 0 192.000000 192.000000"
 preserveAspectRatio="xMidYMid meet">
<metadata>
Created by potrace 1.16, written by Peter Selinger 2001-2019
</metadata>
<g transform="translate(0.000000,192.000000) scale(0.100000,-0.100000)"
fill="#000000" stroke="none">
811 c445 -92 729 -532 635 -987 -62 -301 -295 -546 -601 -630 -91 -26 -329
-26 -420 0 -291 80 -516 305 -596 596 -26 91 -26 329 0 420 120 433 542 692
982 601z"/>
<path d="M1110 1357 c0 -21 119 -529 129 -552 7 -16 10 -17 14 -5 7 17 86 524
83 527 -2 3 -207 43 -218 43 -5 0 -8 -6 -8 -13z"/>
<path d="M630 1306 l-45 -12 -3 -327 -2 -327 60 0 60 0 0 108 0 108 45 44 c24
24 46 42 49 39 4 -4 53 -170 76 -256 l11 -43 54 0 c37 0 55 4 55 13 0 6 -23
93 -50 192 -28 99 -50 184 -50 190 0 5 37 51 81 100 l80 90 -51 23 c-51 22
-52 22 -78 3 -15 -11 -67 -60 -117 -110 -49 -50 -93 -91 -97 -91 -5 0 -8 61
-8 135 0 102 -3 135 -12 134 -7 -1 -33 -6 -58 -13z"/>
<path d="M1185 639 c-13 -24 -14 -33 -4 -45 24 -29 49 -36 79 -24 36 15 41 28
24 68 -11 27 -18 32 -48 32 -29 0 -38 -5 -51 -31z"/>
</g>
</svg>
