<?xml version="1.0" standalone="no"?>
<!DOCTYPE svg PUBLIC "-//W3C//DTD SVG 20010904//EN"
 "http://www.w3.org/TR/2001/REC-SVG-20010904/DTD/svg10.dtd">
<svg version="1.0" xmlns="http://www.w3.org/2000/svg"
 width="192.000000pt" height="192.000000pt" viewBox="0 0 192.000000 192.000000"
 preserveAspectRatio="xMidYMid meet">
<metadata>
Created by potrace 1.16, written by Peter Selinger 2001-2019
</metadata>
<g transform="translate(0.000000,192.000000) scale(0.100000,-0.100000)"
fill="#000000" stroke="none">
811 c445 -92 729 -532 635 -987 -62 -301 -295 -546 -601 -630 -91 -26 -329
-26 -420 0 -291 80 -516 305 -596 596 -26 91 -26 329 0 420 120 433 542 692
982 601z"/>
<path d="M903 1339 c-118 -22 -205 -121 -220 -249 l-6 -50 281 0 282 0 -6 48
c-10 79 -25 114 -71 163 -67 72 -168 106 -260 88z m-25 -181 c4 -34 -27 -54
-58 -38 -39 21 -16 73 30 68 19 -2 26 -10 28 -30z m232 13 c14 -28 -18 -66
-48 -57 -26 9 -38 42 -22 61 18 21 57 18 70 -4z"/>
<path d="M562 1114 c-20 -14 -22 -23 -22 -124 0 -101 2 -110 22 -124 29 -20
34 -20 58 4 17 17 20 33 20 120 0 87 -3 103 -20 120 -24 24 -29 24 -58 4z"/>
<path d="M1298 1119 c-16 -9 -18 -26 -18 -130 0 -118 0 -120 25 -131 21 -9 28
-8 45 7 18 16 20 31 20 125 0 91 -3 109 -18 123 -21 19 -30 20 -54 6z"/>
<path d="M680 945 c0 -54 -7 -82 -41 -161 -39 -91 -40 -96 -23 -115 11 -13 30
-19 57 -19 26 0 59 -10 92 -29 50 -28 56 -29 191 -29 131 0 141 1 184 26 26
14 68 28 99 31 81 9 84 20 33 143 -33 80 -42 116 -42 161 l0 57 -275 0 -275 0
0 -65z"/>
</g>
</svg>
