<?xml version="1.0" standalone="no"?>
<!DOCTYPE svg PUBLIC "-//W3C//DTD SVG 20010904//EN"
 "http://www.w3.org/TR/2001/REC-SVG-20010904/DTD/svg10.dtd">
<svg version="1.0" xmlns="http://www.w3.org/2000/svg"
 width="192.000000pt" height="192.000000pt" viewBox="0 0 192.000000 192.000000"
 preserveAspectRatio="xMidYMid meet">
<metadata>
Created by potrace 1.16, written by Peter Selinger 2001-2019
</metadata>
<g transform="translate(0.000000,192.000000) scale(0.100000,-0.100000)"
fill="#000000" stroke="none">
811 c445 -92 729 -532 635 -987 -62 -301 -295 -546 -601 -630 -91 -26 -329
-26 -420 0 -291 80 -516 305 -596 596 -26 91 -26 329 0 420 120 433 542 692
982 601z"/>
<path d="M856 1359 c-63 -15 -153 -68 -202 -121 -173 -185 -133 -478 84 -617
114 -72 277 -81 397 -22 195 96 281 311 205 515 -25 66 -108 161 -175 200 -84
50 -211 68 -309 45z m-168 -376 l3 -82 42 -3 c34 -2 42 -7 42 -23 0 -18 -7
-20 -65 -20 l-65 0 -3 108 c-3 108 -3 108 20 105 22 -3 23 -8 26 -85z m177
-23 c0 -101 -1 -105 -22 -108 -23 -3 -23 -2 -23 108 0 110 0 111 23 108 21 -3
22 -7 22 -108z m112 40 c14 -36 26 -66 28 -68 1 -1 14 28 27 65 19 52 31 69
47 71 29 5 27 -12 -15 -119 -53 -131 -69 -131 -123 6 -37 96 -39 118 -9 113
16 -2 27 -19 45 -68z m290 54 c7 -20 -13 -34 -49 -34 -18 0 -28 -5 -28 -15 0
-9 9 -15 23 -15 31 0 51 -15 44 -34 -4 -10 -18 -16 -37 -16 -23 0 -30 -4 -30
-19 0 -16 8 -20 38 -23 29 -2 37 -7 37 -23 0 -18 -7 -20 -60 -20 l-60 0 -3 94
c-1 52 -1 100 2 108 8 20 115 18 123 -3z"/>
</g>
</svg>
