<?xml version="1.0" standalone="no"?>
<!DOCTYPE svg PUBLIC "-//W3C//DTD SVG 20010904//EN"
 "http://www.w3.org/TR/2001/REC-SVG-20010904/DTD/svg10.dtd">
<svg version="1.0" xmlns="http://www.w3.org/2000/svg"
 width="192.000000pt" height="192.000000pt" viewBox="0 0 192.000000 192.000000"
 preserveAspectRatio="xMidYMid meet">
<metadata>
Created by potrace 1.16, written by Peter Selinger 2001-2019
</metadata>
<g transform="translate(0.000000,192.000000) scale(0.100000,-0.100000)"
fill="#000000" stroke="none">
811 c445 -92 729 -532 635 -987 -62 -301 -295 -546 -601 -630 -91 -26 -329
-26 -420 0 -291 80 -516 305 -596 596 -26 91 -26 329 0 420 120 433 542 692
982 601z"/>
<path d="M857 1369 c-105 -25 -221 -119 -270 -219 -54 -111 -58 -228 -11 -346
15 -37 24 -81 24 -115 0 -30 4 -60 9 -68 6 -9 32 -16 68 -18 32 -2 95 -16 140
-30 205 -64 408 17 498 201 61 123 63 249 7 370 -82 174 -278 269 -465 225z
m-62 -329 c0 -9 -11 -16 -27 -18 -26 -3 -27 -5 -30 -75 -3 -64 -5 -72 -23 -72
-18 0 -20 8 -23 73 -3 69 -4 72 -27 72 -13 0 -27 5 -30 10 -14 23 9 31 83 28
61 -2 77 -6 77 -18z m124 -57 c17 -43 31 -86 31 -95 0 -26 -40 -23 -47 2 -4
15 -14 20 -38 20 -25 0 -35 -5 -40 -20 -8 -26 -45 -27 -45 0 0 10 9 43 21 72
12 29 25 63 30 76 5 14 17 22 33 22 20 0 28 -11 55 -77z m93 5 l3 -73 43 -3
c34 -3 42 -7 42 -23 0 -17 -7 -19 -64 -19 -75 0 -76 1 -76 104 0 77 3 86 31
86 16 0 19 -11 21 -72z m148 40 l0 -32 33 32 c53 51 103 35 53 -16 l-25 -27
30 -47 c17 -26 28 -52 24 -58 -13 -21 -44 -9 -65 25 -26 42 -44 41 -48 -4 -3
-27 -7 -32 -25 -29 -20 3 -22 9 -25 82 -3 92 0 106 28 106 16 0 20 -7 20 -32z"/>
<path d="M857 976 c-4 -10 -5 -21 -2 -24 9 -9 17 6 13 25 -3 17 -4 17 -11 -1z"/>
</g>
</svg>
