<?xml version="1.0" standalone="no"?>
<!DOCTYPE svg PUBLIC "-//W3C//DTD SVG 20010904//EN"
 "http://www.w3.org/TR/2001/REC-SVG-20010904/DTD/svg10.dtd">
<svg version="1.0" xmlns="http://www.w3.org/2000/svg"
 width="192.000000pt" height="192.000000pt" viewBox="0 0 192.000000 192.000000"
 preserveAspectRatio="xMidYMid meet">
<metadata>
Created by potrace 1.16, written by Peter Selinger 2001-2019
</metadata>
<g transform="translate(0.000000,192.000000) scale(0.100000,-0.100000)"
fill="#000000" stroke="none">
811 c445 -92 729 -532 635 -987 -62 -301 -295 -546 -601 -630 -91 -26 -329
-26 -420 0 -291 80 -516 305 -596 596 -26 91 -26 329 0 420 120 433 542 692
982 601z"/>
<path d="M850 1354 c-326 -88 -406 -511 -135 -716 114 -86 285 -102 417 -40
158 76 255 257 228 425 -38 240 -276 394 -510 331z m226 -124 c53 -23 111 -74
135 -121 25 -49 25 -49 -13 -49 -27 1 -38 8 -59 39 -36 51 -116 91 -183 91
-68 -1 -123 -27 -173 -84 -32 -36 -47 -46 -72 -46 -17 0 -31 4 -31 8 0 5 14
30 31 55 78 118 233 164 365 107z m-57 -135 c53 -27 81 -71 81 -127 0 -97 -63
-155 -159 -146 -78 8 -131 66 -131 146 0 100 120 173 209 127z m-244 -267 c42
-59 103 -88 179 -88 79 1 133 25 182 84 29 34 45 46 66 46 32 0 35 -14 11 -50
-103 -155 -289 -193 -432 -90 -37 27 -101 110 -101 132 0 4 15 8 33 7 26 0 38
-8 62 -41z"/>
<path d="M874 1026 c-3 -7 -4 -42 -2 -77 3 -56 5 -64 23 -64 15 0 21 8 23 28
3 28 4 28 23 11 15 -13 22 -15 31 -6 18 18 26 15 30 -10 2 -15 10 -23 23 -23
18 0 20 8 23 78 2 68 1 77 -15 77 -9 0 -30 -12 -46 -27 l-29 -28 -23 28 c-26
29 -52 35 -61 13z"/>
</g>
</svg>
