<?xml version="1.0" standalone="no"?>
<!DOCTYPE svg PUBLIC "-//W3C//DTD SVG 20010904//EN"
 "http://www.w3.org/TR/2001/REC-SVG-20010904/DTD/svg10.dtd">
<svg version="1.0" xmlns="http://www.w3.org/2000/svg"
 width="192.000000pt" height="192.000000pt" viewBox="0 0 192.000000 192.000000"
 preserveAspectRatio="xMidYMid meet">
<metadata>
Created by potrace 1.16, written by Peter Selinger 2001-2019
</metadata>
<g transform="translate(0.000000,192.000000) scale(0.100000,-0.100000)"
fill="#000000" stroke="none">
811 c445 -92 729 -532 635 -987 -62 -301 -295 -546 -601 -630 -91 -26 -329
-26 -420 0 -291 80 -516 305 -596 596 -26 91 -26 329 0 420 120 433 542 692
982 601z"/>
<path d="M701 1368 c-71 -48 -72 -55 -69 -415 3 -307 4 -323 24 -349 46 -62
52 -64 255 -65 202 0 226 4 287 56 81 68 103 196 49 287 -15 26 -37 54 -49 62
l-22 16 31 32 c50 54 67 96 68 169 0 56 -4 73 -30 115 -19 30 -49 60 -79 79
l-49 30 -191 3 c-186 3 -192 2 -225 -20z m133 -194 c13 -13 16 -46 16 -205 0
-112 -4 -198 -10 -210 -14 -25 -56 -25 -70 0 -6 12 -10 98 -10 210 0 159 3
192 16 205 8 9 22 16 29 16 7 0 21 -7 29 -16z"/>
</g>
</svg>
