<?xml version="1.0" standalone="no"?>
<!DOCTYPE svg PUBLIC "-//W3C//DTD SVG 20010904//EN"
 "http://www.w3.org/TR/2001/REC-SVG-20010904/DTD/svg10.dtd">
<svg version="1.0" xmlns="http://www.w3.org/2000/svg"
 width="192.000000pt" height="192.000000pt" viewBox="0 0 192.000000 192.000000"
 preserveAspectRatio="xMidYMid meet">
<metadata>
Created by potrace 1.16, written by Peter Selinger 2001-2019
</metadata>
<g transform="translate(0.000000,192.000000) scale(0.100000,-0.100000)"
fill="#000000" stroke="none">
811 c445 -92 729 -532 635 -987 -62 -301 -295 -546 -601 -630 -91 -26 -329
-26 -420 0 -291 80 -516 305 -596 596 -26 91 -26 329 0 420 120 433 542 692
982 601z"/>
<path d="M732 1345 c-30 -25 -30 -25 -37 -168 -12 -235 7 -267 157 -267 l90 0
-7 -32 c-9 -38 -49 -122 -76 -157 -28 -35 -23 -66 16 -110 44 -49 82 -65 118
-52 35 14 110 110 152 196 53 110 65 176 65 378 l0 179 -29 29 -29 29 -195 0
c-194 0 -196 0 -225 -25z"/>
</g>
</svg>
