<?xml version="1.0" standalone="no"?>
<!DOCTYPE svg PUBLIC "-//W3C//DTD SVG 20010904//EN"
 "http://www.w3.org/TR/2001/REC-SVG-20010904/DTD/svg10.dtd">
<svg version="1.0" xmlns="http://www.w3.org/2000/svg"
 width="192.000000pt" height="192.000000pt" viewBox="0 0 192.000000 192.000000"
 preserveAspectRatio="xMidYMid meet">
<metadata>
Created by potrace 1.16, written by Peter Selinger 2001-2019
</metadata>
<g transform="translate(0.000000,192.000000) scale(0.100000,-0.100000)"
fill="#000000" stroke="none">
811 c445 -92 729 -532 635 -987 -62 -301 -295 -546 -601 -630 -91 -26 -329
-26 -420 0 -291 80 -516 305 -596 596 -26 91 -26 329 0 420 120 433 542 692
982 601z"/>
<path d="M853 1360 c-197 -46 -338 -257 -305 -455 31 -191 185 -331 376 -342
177 -11 331 78 404 235 24 51 27 69 27 167 0 98 -3 116 -27 167 -49 104 -148
190 -257 222 -57 17 -162 20 -218 6z m192 -147 c68 -23 137 -93 160 -162 41
-125 -20 -268 -139 -322 -22 -10 -26 -19 -26 -55 0 -49 -8 -54 -85 -54 -77 0
-85 5 -85 54 0 39 -3 42 -49 68 -147 81 -175 284 -58 406 73 77 178 101 282
65z"/>
<path d="M875 1131 c-79 -35 -113 -102 -102 -197 19 -173 270 -208 347 -49 76
156 -86 318 -245 246z m129 -67 c18 -18 21 -65 6 -80 -8 -8 -6 -15 5 -24 24
-20 19 -66 -12 -90 -20 -16 -38 -20 -72 -18 l-46 3 -3 99 c-1 55 0 106 2 113
8 19 100 17 120 -3z"/>
<path d="M930 1009 c0 -14 5 -19 17 -17 26 5 29 38 4 38 -15 0 -21 -6 -21 -21z"/>
<path d="M930 920 c0 -16 5 -21 23 -18 12 2 22 10 22 18 0 8 -10 16 -22 18
-18 3 -23 -2 -23 -18z"/>
</g>
</svg>
