<?xml version="1.0" standalone="no"?>
<!DOCTYPE svg PUBLIC "-//W3C//DTD SVG 20010904//EN"
 "http://www.w3.org/TR/2001/REC-SVG-20010904/DTD/svg10.dtd">
<svg version="1.0" xmlns="http://www.w3.org/2000/svg"
 width="192.000000pt" height="192.000000pt" viewBox="0 0 192.000000 192.000000"
 preserveAspectRatio="xMidYMid meet">
<metadata>
Created by potrace 1.16, written by Peter Selinger 2001-2019
</metadata>
<g transform="translate(0.000000,192.000000) scale(0.100000,-0.100000)"
fill="#000000" stroke="none">
811 c445 -92 729 -532 635 -987 -62 -301 -295 -546 -601 -630 -91 -26 -329
-26 -420 0 -291 80 -516 305 -596 596 -26 91 -26 329 0 420 120 433 542 692
982 601z"/>
<path d="M726 1329 c-53 -13 -102 -51 -126 -99 -18 -36 -20 -59 -20 -265 0
-253 6 -278 73 -329 52 -40 117 -48 336 -44 l198 3 48 30 c85 53 90 72 90 340
0 268 -5 287 -90 340 l-48 30 -211 2 c-116 1 -229 -3 -250 -8z m149 -414 c51
-32 99 -32 159 0 59 31 90 32 121 0 43 -42 28 -95 -38 -137 -83 -52 -180 -62
-271 -27 -106 39 -146 110 -94 166 28 30 72 29 123 -2z"/>
<path d="M802 858 c2 -7 24 -23 48 -35 74 -38 181 -29 245 20 35 27 7 32 -38
6 -56 -32 -144 -32 -204 -1 -49 25 -56 27 -51 10z"/>
</g>
</svg>
