<?xml version="1.0" standalone="no"?>
<!DOCTYPE svg PUBLIC "-//W3C//DTD SVG 20010904//EN"
 "http://www.w3.org/TR/2001/REC-SVG-20010904/DTD/svg10.dtd">
<svg version="1.0" xmlns="http://www.w3.org/2000/svg"
 width="192.000000pt" height="192.000000pt" viewBox="0 0 192.000000 192.000000"
 preserveAspectRatio="xMidYMid meet">
<metadata>
Created by potrace 1.16, written by Peter Selinger 2001-2019
</metadata>
<g transform="translate(0.000000,192.000000) scale(0.100000,-0.100000)"
fill="#000000" stroke="none">
811 c445 -92 729 -532 635 -987 -62 -301 -295 -546 -601 -630 -91 -26 -329
-26 -420 0 -291 80 -516 305 -596 596 -26 91 -26 329 0 420 120 433 542 692
982 601z"/>
<path d="M1016 1348 c-13 -18 -16 -52 -16 -165 l0 -143 -49 0 c-89 0 -155 -65
-155 -154 0 -157 192 -212 288 -82 19 25 21 44 24 242 l3 214 33 0 c58 0 85
51 46 90 -16 16 -33 20 -89 20 -61 0 -72 -3 -85 -22z"/>
<path d="M821 1189 c-75 -34 -127 -84 -163 -157 -28 -57 -33 -77 -33 -142 0
-65 5 -85 33 -142 59 -120 160 -182 297 -182 137 0 238 62 297 182 29 58 33
77 33 142 -1 130 -53 213 -114 180 -25 -13 -27 -44 -5 -96 24 -58 16 -151 -19
-203 -91 -137 -293 -137 -384 0 -20 31 -28 57 -31 105 -7 106 44 182 150 227
54 22 67 47 44 82 -20 30 -46 31 -105 4z"/>
</g>
</svg>
