<?xml version="1.0" standalone="no"?>
<!DOCTYPE svg PUBLIC "-//W3C//DTD SVG 20010904//EN"
 "http://www.w3.org/TR/2001/REC-SVG-20010904/DTD/svg10.dtd">
<svg version="1.0" xmlns="http://www.w3.org/2000/svg"
 width="192.000000pt" height="192.000000pt" viewBox="0 0 192.000000 192.000000"
 preserveAspectRatio="xMidYMid meet">
<metadata>
Created by potrace 1.16, written by Peter Selinger 2001-2019
</metadata>
<g transform="translate(0.000000,192.000000) scale(0.100000,-0.100000)"
fill="#000000" stroke="none">
811 c445 -92 729 -532 635 -987 -62 -301 -295 -546 -601 -630 -91 -26 -329
-26 -420 0 -291 80 -516 305 -596 596 -26 91 -26 329 0 420 120 433 542 692
982 601z"/>
<path d="M849 1356 c-89 -32 -155 -92 -195 -180 -23 -51 -26 -67 -22 -135 5
-92 29 -141 118 -246 33 -38 74 -97 92 -129 44 -79 71 -106 105 -106 41 0 65
21 107 93 21 36 68 100 104 143 91 110 117 169 117 264 -1 58 -6 86 -25 125
-34 70 -108 139 -175 164 -64 24 -170 27 -226 7z m151 -211 c40 -20 60 -53 60
-95 0 -96 -115 -142 -184 -73 -64 63 -15 179 77 182 10 1 31 -6 47 -14z"/>
</g>
</svg>
