<?xml version="1.0" standalone="no"?>
<!DOCTYPE svg PUBLIC "-//W3C//DTD SVG 20010904//EN"
 "http://www.w3.org/TR/2001/REC-SVG-20010904/DTD/svg10.dtd">
<svg version="1.0" xmlns="http://www.w3.org/2000/svg"
 width="192.000000pt" height="192.000000pt" viewBox="0 0 192.000000 192.000000"
 preserveAspectRatio="xMidYMid meet">
<metadata>
Created by potrace 1.16, written by Peter Selinger 2001-2019
</metadata>
<g transform="translate(0.000000,192.000000) scale(0.100000,-0.100000)"
fill="#000000" stroke="none">
811 c445 -92 729 -532 635 -987 -62 -301 -295 -546 -601 -630 -91 -26 -329
-26 -420 0 -291 80 -516 305 -596 596 -26 91 -26 329 0 420 120 433 542 692
982 601z"/>
<path d="M912 1295 l-57 -54 131 -133 c72 -73 139 -144 148 -158 13 -20 16
-52 16 -166 0 -128 2 -144 21 -168 18 -23 28 -26 79 -26 51 0 61 3 79 26 19
25 21 40 21 203 l0 177 -29 45 c-16 24 -89 104 -163 177 -161 158 -163 158
-246 77z"/>
<path d="M746 1150 c-36 -35 -66 -68 -66 -73 0 -6 52 -63 115 -128 l115 -117
0 -99 c0 -116 10 -138 70 -148 52 -9 104 9 119 41 17 37 15 258 -3 292 -8 15
-75 87 -150 161 l-134 134 -66 -63z"/>
<path d="M608 1013 c-34 -39 -38 -63 -38 -227 0 -212 -5 -206 148 -206 100 0
110 2 130 23 19 20 22 35 22 112 l0 88 -112 114 c-62 62 -117 113 -123 113 -7
0 -19 -8 -27 -17z"/>
</g>
</svg>
