<?xml version="1.0" standalone="no"?>
<!DOCTYPE svg PUBLIC "-//W3C//DTD SVG 20010904//EN"
 "http://www.w3.org/TR/2001/REC-SVG-20010904/DTD/svg10.dtd">
<svg version="1.0" xmlns="http://www.w3.org/2000/svg"
 width="192.000000pt" height="192.000000pt" viewBox="0 0 192.000000 192.000000"
 preserveAspectRatio="xMidYMid meet">
<metadata>
Created by potrace 1.16, written by Peter Selinger 2001-2019
</metadata>
<g transform="translate(0.000000,192.000000) scale(0.100000,-0.100000)"
fill="#000000" stroke="none">
811 c445 -92 729 -532 635 -987 -62 -301 -295 -546 -601 -630 -91 -26 -329
-26 -420 0 -291 80 -516 305 -596 596 -26 91 -26 329 0 420 120 433 542 692
982 601z"/>
<path d="M1043 1381 c-48 -12 -120 -58 -147 -94 -44 -57 -57 -103 -55 -183 l2
-74 -151 -159 -152 -159 0 -74 c0 -44 5 -79 12 -86 7 -7 41 -12 83 -12 65 0
74 3 97 28 15 15 28 38 30 52 2 19 10 26 33 30 25 4 31 10 33 37 3 28 7 32 35
35 28 3 32 7 35 36 3 27 7 32 30 32 16 0 39 12 59 32 31 30 35 31 105 29 64
-2 81 2 128 26 61 32 114 93 130 151 26 96 6 198 -55 270 -54 64 -172 103
-252 83z m172 -146 c14 -13 25 -36 25 -50 0 -30 -41 -75 -68 -75 -35 0 -72 38
-72 75 0 24 7 39 26 54 35 27 59 26 89 -4z"/>
</g>
</svg>
