<?xml version="1.0" standalone="no"?>
<!DOCTYPE svg PUBLIC "-//W3C//DTD SVG 20010904//EN"
 "http://www.w3.org/TR/2001/REC-SVG-20010904/DTD/svg10.dtd">
<svg version="1.0" xmlns="http://www.w3.org/2000/svg"
 width="192.000000pt" height="192.000000pt" viewBox="0 0 192.000000 192.000000"
 preserveAspectRatio="xMidYMid meet">
<metadata>
Created by potrace 1.16, written by Peter Selinger 2001-2019
</metadata>
<g transform="translate(0.000000,192.000000) scale(0.100000,-0.100000)"
fill="#000000" stroke="none">
811 c445 -92 729 -532 635 -987 -62 -301 -295 -546 -601 -630 -91 -26 -329
-26 -420 0 -291 80 -516 305 -596 596 -26 91 -26 329 0 420 120 433 542 692
982 601z"/>
<path d="M891 1360 c-64 -27 -121 -97 -121 -148 0 -16 -9 -20 -50 -24 -65 -7
-122 -44 -149 -100 -19 -40 -21 -61 -21 -217 0 -139 3 -178 16 -204 23 -45 44
-66 86 -88 34 -17 62 -19 303 -19 225 0 271 2 298 16 45 23 66 44 88 86 16 32
19 60 19 209 0 156 -2 177 -21 217 -27 56 -84 93 -149 100 -41 4 -50 8 -50 24
0 36 -40 98 -81 125 -44 29 -126 40 -168 23z m125 -98 c20 -15 44 -52 44 -66
0 -3 -47 -6 -105 -6 -58 0 -105 3 -105 6 0 3 5 15 11 27 19 37 52 57 94 57 23
0 49 -8 61 -18z m-172 -308 c22 -22 22 -146 0 -168 -17 -18 -28 -14 -101 36
-58 39 -56 58 15 107 66 46 66 46 86 25z m307 -24 c72 -49 75 -68 17 -108 -74
-50 -85 -54 -102 -36 -22 22 -22 146 0 168 8 9 18 16 20 16 3 0 32 -18 65 -40z
m-154 -12 c29 -27 29 -65 1 -95 -42 -45 -111 -15 -111 47 0 62 65 90 110 48z"/>
</g>
</svg>
