<?xml version="1.0" standalone="no"?>
<!DOCTYPE svg PUBLIC "-//W3C//DTD SVG 20010904//EN"
 "http://www.w3.org/TR/2001/REC-SVG-20010904/DTD/svg10.dtd">
<svg version="1.0" xmlns="http://www.w3.org/2000/svg"
 width="192.000000pt" height="192.000000pt" viewBox="0 0 192.000000 192.000000"
 preserveAspectRatio="xMidYMid meet">
<metadata>
Created by potrace 1.16, written by Peter Selinger 2001-2019
</metadata>
<g transform="translate(0.000000,192.000000) scale(0.100000,-0.100000)"
fill="#000000" stroke="none">
811 c445 -92 729 -532 635 -987 -62 -301 -295 -546 -601 -630 -91 -26 -329
-26 -420 0 -291 80 -516 305 -596 596 -26 91 -26 329 0 420 120 433 542 692
982 601z"/>
<path d="M798 1341 c-199 -65 -198 -63 -198 -326 0 -163 2 -190 19 -223 52
-102 277 -252 355 -238 50 10 195 103 258 168 36 36 61 71 67 95 6 21 11 114
11 207 0 189 -12 235 -67 268 -41 23 -261 88 -297 87 -17 0 -84 -18 -148 -38z
m332 -246 l23 -25 -113 -115 c-63 -63 -119 -115 -125 -115 -16 0 -125 113
-125 131 0 19 20 39 39 39 8 0 31 -16 51 -35 l36 -35 90 90 c50 49 93 90 95
90 3 0 16 -11 29 -25z"/>
</g>
</svg>
