<?xml version="1.0" standalone="no"?>
<!DOCTYPE svg PUBLIC "-//W3C//DTD SVG 20010904//EN"
 "http://www.w3.org/TR/2001/REC-SVG-20010904/DTD/svg10.dtd">
<svg version="1.0" xmlns="http://www.w3.org/2000/svg"
 width="192.000000pt" height="192.000000pt" viewBox="0 0 192.000000 192.000000"
 preserveAspectRatio="xMidYMid meet">
<metadata>
Created by potrace 1.16, written by Peter Selinger 2001-2019
</metadata>
<g transform="translate(0.000000,192.000000) scale(0.100000,-0.100000)"
fill="#000000" stroke="none">
811 c445 -92 729 -532 635 -987 -62 -301 -295 -546 -601 -630 -91 -26 -329
-26 -420 0 -291 80 -516 305 -596 596 -26 91 -26 329 0 420 120 433 542 692
982 601z"/>
<path d="M850 1378 c-6 -7 -16 -21 -23 -31 -7 -10 -33 -23 -57 -28 -59 -13
-108 -52 -131 -103 -16 -36 -19 -68 -19 -283 0 -256 3 -279 48 -327 54 -58 88
-66 287 -66 201 0 237 9 288 69 43 51 48 92 45 344 -3 205 -5 236 -22 271 -21
42 -95 96 -132 96 -32 0 -54 10 -54 25 0 6 -8 19 -18 28 -23 21 -195 25 -212
5z"/>
</g>
</svg>
