<?xml version="1.0" standalone="no"?>
<!DOCTYPE svg PUBLIC "-//W3C//DTD SVG 20010904//EN"
 "http://www.w3.org/TR/2001/REC-SVG-20010904/DTD/svg10.dtd">
<svg version="1.0" xmlns="http://www.w3.org/2000/svg"
 width="192.000000pt" height="192.000000pt" viewBox="0 0 192.000000 192.000000"
 preserveAspectRatio="xMidYMid meet">
<metadata>
Created by potrace 1.16, written by Peter Selinger 2001-2019
</metadata>
<g transform="translate(0.000000,192.000000) scale(0.100000,-0.100000)"
fill="#000000" stroke="none">
811 c445 -92 729 -532 635 -987 -62 -301 -295 -546 -601 -630 -91 -26 -329
-26 -420 0 -291 80 -516 305 -596 596 -26 91 -26 329 0 420 120 433 542 692
982 601z"/>
<path d="M689 1317 c-24 -13 -57 -43 -74 -66 l-30 -43 -3 -221 c-4 -246 1
-277 51 -334 52 -59 70 -63 322 -63 252 0 270 4 322 63 50 57 55 88 51 334
l-3 221 -30 43 c-16 23 -50 53 -74 66 -42 22 -53 23 -266 23 -213 0 -224 -1
-266 -23z m-11 -285 c2 -23 7 -42 13 -42 5 0 9 6 9 13 0 6 9 27 20 45 17 28
23 32 35 22 12 -10 13 -17 0 -46 -12 -29 -12 -35 1 -42 21 -12 16 -127 -6
-127 -10 0 -16 13 -18 43 -3 37 -6 42 -27 42 -21 0 -24 -5 -27 -42 -2 -30 -8
-43 -18 -43 -12 0 -16 19 -18 99 -1 55 0 106 3 114 10 27 30 5 33 -36z m257
-67 c0 -91 -3 -110 -15 -110 -10 0 -16 13 -18 43 -3 37 -6 42 -27 42 -21 0
-24 -5 -27 -42 -2 -30 -8 -43 -18 -43 -12 0 -16 19 -18 99 -1 55 0 106 2 113
4 10 22 13 63 11 l58 -3 0 -110z m91 72 l17 -31 19 37 c39 76 63 29 25 -49
-17 -35 -27 -71 -27 -100 0 -38 -3 -45 -17 -42 -14 2 -19 16 -23 58 -3 30 -16
74 -28 98 -18 34 -21 47 -11 58 14 17 25 11 45 -29z m239 -72 l0 -110 -60 0
-60 0 -3 99 c-1 55 0 106 2 113 4 10 22 13 63 11 l58 -3 0 -110z"/>
<path d="M850 1010 c0 -15 7 -20 25 -20 18 0 25 5 25 20 0 15 -7 20 -25 20
-18 0 -25 -5 -25 -20z"/>
<path d="M1182 963 c3 -60 5 -68 23 -68 18 0 20 8 23 68 3 66 3 67 -23 67 -26
0 -26 -1 -23 -67z"/>
</g>
</svg>
