<?xml version="1.0" standalone="no"?>
<!DOCTYPE svg PUBLIC "-//W3C//DTD SVG 20010904//EN"
 "http://www.w3.org/TR/2001/REC-SVG-20010904/DTD/svg10.dtd">
<svg version="1.0" xmlns="http://www.w3.org/2000/svg"
 width="192.000000pt" height="192.000000pt" viewBox="0 0 192.000000 192.000000"
 preserveAspectRatio="xMidYMid meet">
<metadata>
Created by potrace 1.16, written by Peter Selinger 2001-2019
</metadata>
<g transform="translate(0.000000,192.000000) scale(0.100000,-0.100000)"
fill="#000000" stroke="none">
811 c445 -92 729 -532 635 -987 -62 -301 -295 -546 -601 -630 -91 -26 -329
-26 -420 0 -291 80 -516 305 -596 596 -26 91 -26 329 0 420 120 433 542 692
982 601z"/>
<path d="M700 1344 c-59 -50 -60 -55 -60 -376 0 -322 3 -338 63 -382 27 -20
42 -21 252 -21 329 0 315 -18 315 403 0 321 -1 326 -60 376 l-32 26 -223 0
-223 0 -32 -26z m464 -86 c14 -19 16 -65 16 -295 0 -260 -1 -274 -20 -293 -19
-19 -33 -20 -205 -20 -172 0 -186 1 -205 20 -19 19 -20 33 -20 293 0 230 2
276 16 295 15 21 20 22 209 22 189 0 194 -1 209 -22z"/>
<path d="M927 1133 c-4 -3 -7 -14 -7 -24 0 -26 -18 -33 -46 -18 -21 11 -27 10
-41 -4 -15 -14 -15 -20 -3 -42 15 -28 8 -41 -25 -47 -12 -2 -21 -13 -23 -26
-3 -18 3 -26 27 -35 32 -12 40 -34 19 -55 -18 -18 19 -55 43 -42 29 16 47 11
51 -12 2 -18 10 -23 33 -23 23 0 31 5 33 23 4 23 22 28 51 12 24 -13 61 24 43
42 -21 21 -13 43 19 55 24 9 30 17 27 35 -2 13 -11 24 -23 26 -33 6 -40 19
-25 47 12 22 12 28 -3 43 -14 14 -21 14 -37 4 -30 -18 -40 -15 -51 18 -8 21
-17 30 -33 30 -13 0 -26 -3 -29 -7z m14 -130 l1 -28 11 28 c6 15 17 27 24 27
16 0 16 -5 3 -31 -7 -13 -7 -19 0 -19 5 0 10 -18 10 -40 0 -22 -4 -40 -10 -40
-5 0 -10 11 -10 25 0 16 -6 25 -15 25 -9 0 -15 -9 -15 -25 0 -16 -6 -25 -15
-25 -12 0 -15 14 -15 65 0 51 3 65 15 65 9 0 15 -10 16 -27z"/>
</g>
</svg>
