<?xml version="1.0" standalone="no"?>
<!DOCTYPE svg PUBLIC "-//W3C//DTD SVG 20010904//EN"
 "http://www.w3.org/TR/2001/REC-SVG-20010904/DTD/svg10.dtd">
<svg version="1.0" xmlns="http://www.w3.org/2000/svg"
 width="192.000000pt" height="192.000000pt" viewBox="0 0 192.000000 192.000000"
 preserveAspectRatio="xMidYMid meet">
<metadata>
Created by potrace 1.16, written by Peter Selinger 2001-2019
</metadata>
<g transform="translate(0.000000,192.000000) scale(0.100000,-0.100000)"
fill="#000000" stroke="none">
811 c445 -92 729 -532 635 -987 -62 -301 -295 -546 -601 -630 -91 -26 -329
-26 -420 0 -291 80 -516 305 -596 596 -26 91 -26 329 0 420 120 433 542 692
982 601z"/>
<path d="M736 1354 c-20 -19 -20 -27 0 -66 l16 -30 -46 -47 c-46 -47 -85 -119
-86 -156 0 -27 18 -45 46 -45 27 0 40 15 49 59 16 77 134 151 239 151 112 0
222 -71 245 -157 9 -32 18 -44 36 -49 84 -21 66 107 -28 199 -42 41 -44 45
-31 68 17 30 18 61 2 77 -22 22 -47 13 -73 -27 -26 -38 -27 -39 -68 -29 -41
10 -157 6 -187 -6 -10 -3 -24 8 -42 34 -30 43 -48 49 -72 24z"/>
<path d="M796 1108 c-21 -29 -20 -51 2 -71 38 -35 102 -9 102 40 0 49 -76 72
-104 31z"/>
<path d="M1023 1104 c-15 -24 -15 -29 -2 -53 28 -50 109 -34 109 23 0 55 -76
76 -107 30z"/>
<path d="M620 955 c-17 -21 -4 -61 22 -69 30 -8 596 -8 626 0 26 8 39 48 22
69 -19 22 -651 22 -670 0z"/>
<path d="M622 848 c-6 -6 -12 -20 -12 -29 0 -33 24 -40 140 -37 95 3 115 6
124 21 8 12 8 22 0 35 -9 14 -29 17 -125 20 -81 2 -118 -1 -127 -10z"/>
<path d="M910 841 c-13 -26 -13 -54 1 -68 8 -8 8 -21 -1 -49 -11 -33 -11 -39
6 -51 23 -17 55 -17 78 0 14 11 15 17 6 42 -9 23 -9 39 1 67 11 33 10 40 -6
58 -23 26 -71 26 -85 1z"/>
<path d="M1034 846 c-3 -8 -4 -25 -2 -38 3 -23 5 -23 127 -23 107 0 125 2 135
18 8 12 8 22 0 35 -9 14 -30 17 -133 20 -99 2 -122 0 -127 -12z"/>
<path d="M614 725 c-12 -47 7 -55 131 -55 121 0 140 7 133 52 -3 22 -6 23
-130 26 l-127 3 -7 -26z"/>
<path d="M1032 733 c-6 -11 -6 -28 -1 -41 8 -22 12 -23 130 -20 103 3 124 6
133 21 8 12 8 22 0 35 -9 14 -30 17 -132 20 -108 2 -122 1 -130 -15z"/>
<path d="M622 628 c-16 -16 -15 -43 2 -57 9 -8 106 -11 336 -9 295 3 324 5
334 21 8 12 8 22 0 35 -10 15 -39 17 -335 20 -244 2 -328 -1 -337 -10z"/>
</g>
</svg>
