<?xml version="1.0" standalone="no"?>
<!DOCTYPE svg PUBLIC "-//W3C//DTD SVG 20010904//EN"
 "http://www.w3.org/TR/2001/REC-SVG-20010904/DTD/svg10.dtd">
<svg version="1.0" xmlns="http://www.w3.org/2000/svg"
 width="192.000000pt" height="192.000000pt" viewBox="0 0 192.000000 192.000000"
 preserveAspectRatio="xMidYMid meet">
<metadata>
Created by potrace 1.16, written by Peter Selinger 2001-2019
</metadata>
<g transform="translate(0.000000,192.000000) scale(0.100000,-0.100000)"
fill="#000000" stroke="none">
811 c445 -92 729 -532 635 -987 -62 -301 -295 -546 -601 -630 -91 -26 -329
-26 -420 0 -291 80 -516 305 -596 596 -26 91 -26 329 0 420 120 433 542 692
982 601z"/>
<path d="M854 1373 c-12 -2 -32 -15 -45 -29 -21 -23 -24 -37 -27 -120 l-4 -94
-88 0 c-80 0 -92 -3 -117 -24 -28 -24 -28 -25 -28 -141 0 -116 0 -117 28 -141
25 -21 37 -24 117 -24 l88 0 4 -95 c3 -87 5 -97 30 -122 25 -25 35 -27 121
-31 106 -5 156 10 176 54 6 14 11 63 11 109 l0 85 93 0 c133 1 147 17 147 165
0 148 -14 164 -147 165 l-93 0 0 85 c0 99 -11 128 -55 150 -31 14 -155 19
-211 8z m176 -408 l0 -75 -75 0 -75 0 0 75 0 75 75 0 75 0 0 -75z"/>
</g>
</svg>
