<?xml version="1.0" standalone="no"?>
<!DOCTYPE svg PUBLIC "-//W3C//DTD SVG 20010904//EN"
 "http://www.w3.org/TR/2001/REC-SVG-20010904/DTD/svg10.dtd">
<svg version="1.0" xmlns="http://www.w3.org/2000/svg"
 width="192.000000pt" height="192.000000pt" viewBox="0 0 192.000000 192.000000"
 preserveAspectRatio="xMidYMid meet">
<metadata>
Created by potrace 1.16, written by Peter Selinger 2001-2019
</metadata>
<g transform="translate(0.000000,192.000000) scale(0.100000,-0.100000)"
fill="#000000" stroke="none">
811 c445 -92 729 -532 635 -987 -62 -301 -295 -546 -601 -630 -91 -26 -329
-26 -420 0 -291 80 -516 305 -596 596 -26 91 -26 329 0 420 120 433 542 692
982 601z"/>
<path d="M1167 1291 c-10 -16 -27 -21 -82 -23 -90 -4 -104 -22 -55 -73 l34
-35 116 0 c123 0 140 6 140 46 0 26 -91 104 -121 104 -10 0 -24 -9 -32 -19z"/>
<path d="M653 1264 c-18 -8 -16 -55 3 -82 13 -19 24 -22 82 -22 63 0 69 2 95
32 16 18 27 40 25 52 -3 19 -10 21 -98 23 -52 1 -101 -1 -107 -3z"/>
<path d="M880 1152 c-38 -39 -40 -83 -5 -117 55 -56 145 -21 145 56 0 48 -26
78 -72 86 -32 5 -41 1 -68 -25z"/>
<path d="M680 1090 c-34 -34 -22 -121 25 -185 l22 -30 -29 -39 c-33 -46 -62
-137 -53 -166 11 -35 35 -50 79 -50 53 0 71 18 86 84 6 27 15 57 21 67 15 28
63 49 113 49 63 0 101 -35 121 -114 19 -78 28 -86 86 -86 41 0 51 4 65 25 30
45 4 146 -53 206 -22 24 -22 27 -8 39 28 23 57 90 58 135 2 54 -23 85 -69 85
-37 0 -74 -38 -74 -76 0 -12 -11 -35 -24 -50 -20 -24 -32 -28 -90 -32 -40 -3
-78 1 -97 8 -31 13 -59 55 -59 90 0 29 -35 60 -70 60 -17 0 -39 -9 -50 -20z"/>
</g>
</svg>
