<?xml version="1.0" standalone="no"?>
<!DOCTYPE svg PUBLIC "-//W3C//DTD SVG 20010904//EN"
 "http://www.w3.org/TR/2001/REC-SVG-20010904/DTD/svg10.dtd">
<svg version="1.0" xmlns="http://www.w3.org/2000/svg"
 width="192.000000pt" height="192.000000pt" viewBox="0 0 192.000000 192.000000"
 preserveAspectRatio="xMidYMid meet">
<metadata>
Created by potrace 1.16, written by Peter Selinger 2001-2019
</metadata>
<g transform="translate(0.000000,192.000000) scale(0.100000,-0.100000)"
fill="#000000" stroke="none">
811 c445 -92 729 -532 635 -987 -62 -301 -295 -546 -601 -630 -91 -26 -329
-26 -420 0 -291 80 -516 305 -596 596 -26 91 -26 329 0 420 120 433 542 692
982 601z"/>
<path d="M886 1348 c-7 -13 -17 -40 -20 -60 -6 -31 -14 -41 -59 -66 -49 -28
-54 -29 -91 -16 -64 23 -83 19 -111 -26 -34 -55 -32 -76 15 -119 38 -35 40
-39 40 -97 0 -59 -1 -62 -40 -93 -45 -36 -49 -55 -20 -111 25 -49 54 -58 115
-35 41 16 47 16 63 3 9 -9 32 -23 49 -32 26 -13 34 -24 39 -57 10 -63 33 -83
92 -84 28 0 56 5 63 12 6 6 15 33 20 60 5 26 16 53 25 58 9 6 33 21 52 34 36
23 37 23 88 7 63 -20 75 -16 102 33 31 55 28 75 -18 114 -39 33 -40 36 -40 95
0 58 1 61 40 92 48 38 51 63 15 120 -28 45 -52 50 -111 25 -34 -14 -37 -13
-89 16 -47 26 -55 36 -61 67 -12 67 -28 82 -89 82 -46 0 -57 -4 -69 -22z m114
-228 c41 -11 94 -61 109 -103 25 -65 -1 -146 -60 -188 -129 -91 -305 49 -241
192 23 53 48 76 99 95 47 16 49 16 93 4z"/>
<path d="M895 1025 c-48 -47 -25 -135 40 -151 60 -15 123 46 110 107 -15 65
-103 92 -150 44z"/>
</g>
</svg>
