<?xml version="1.0" standalone="no"?>
<!DOCTYPE svg PUBLIC "-//W3C//DTD SVG 20010904//EN"
 "http://www.w3.org/TR/2001/REC-SVG-20010904/DTD/svg10.dtd">
<svg version="1.0" xmlns="http://www.w3.org/2000/svg"
 width="192.000000pt" height="192.000000pt" viewBox="0 0 192.000000 192.000000"
 preserveAspectRatio="xMidYMid meet">
<metadata>
Created by potrace 1.16, written by Peter Selinger 2001-2019
</metadata>
<g transform="translate(0.000000,192.000000) scale(0.100000,-0.100000)"
fill="#000000" stroke="none">
811 c445 -92 729 -532 635 -987 -62 -301 -295 -546 -601 -630 -91 -26 -329
-26 -420 0 -291 80 -516 305 -596 596 -26 91 -26 329 0 420 120 433 542 692
982 601z"/>
<path d="M723 1361 c-10 -10 -28 -22 -40 -25 -47 -15 -36 -76 13 -76 31 0 59
-51 44 -79 -5 -11 -10 -32 -10 -48 0 -57 -10 -73 -45 -73 -43 0 -85 -34 -85
-68 0 -15 16 -108 35 -206 27 -140 39 -184 56 -202 22 -24 24 -24 256 -24 239
0 263 3 283 40 9 17 80 371 80 399 0 25 -49 61 -82 61 -31 0 -34 4 -54 55
l-21 54 26 25 c14 13 40 26 56 28 44 5 46 40 3 84 -18 18 -38 34 -45 34 -21 0
-43 -31 -38 -53 4 -16 -2 -30 -22 -49 -25 -24 -32 -26 -66 -19 -21 5 -45 7
-55 6 -9 -2 -30 -7 -46 -10 l-28 -6 42 -36 c23 -20 49 -52 56 -70 18 -41 18
-43 -3 -43 -10 0 -27 16 -38 37 -19 35 -76 77 -160 117 -32 15 -71 81 -55 91
14 9 12 49 -2 63 -17 17 -34 15 -55 -7z m57 -492 l5 -44 17 42 c19 45 35 60
49 46 6 -6 4 -23 -6 -46 -14 -33 -14 -37 0 -37 12 0 15 -13 15 -61 0 -52 -2
-60 -17 -57 -13 2 -19 14 -21 41 -2 28 -8 37 -22 37 -14 0 -20 -9 -22 -37 -2
-27 -8 -39 -20 -41 -16 -3 -18 7 -18 96 0 54 3 102 7 106 15 15 28 -3 33 -45z
m229 38 c15 -19 4 -27 -41 -27 -34 0 -38 -3 -38 -25 0 -21 5 -25 30 -25 23 0
30 -4 30 -20 0 -16 -7 -20 -30 -20 -28 0 -30 -2 -30 -40 0 -33 -3 -40 -20 -40
-19 0 -20 7 -20 98 0 54 3 102 7 105 12 13 100 7 112 -6z m159 -19 c3 -23 -1
-28 -17 -28 -12 0 -21 5 -21 11 0 6 -10 9 -22 7 -21 -3 -23 -9 -26 -65 -3 -60
-2 -63 21 -63 12 0 28 5 34 11 16 16 33 2 33 -27 0 -24 -2 -25 -62 -22 l-63 3
-3 88 c-3 109 3 119 72 115 47 -3 51 -5 54 -30z"/>
</g>
</svg>
