<?xml version="1.0" standalone="no"?>
<!DOCTYPE svg PUBLIC "-//W3C//DTD SVG 20010904//EN"
 "http://www.w3.org/TR/2001/REC-SVG-20010904/DTD/svg10.dtd">
<svg version="1.0" xmlns="http://www.w3.org/2000/svg"
 width="192.000000pt" height="192.000000pt" viewBox="0 0 192.000000 192.000000"
 preserveAspectRatio="xMidYMid meet">
<metadata>
Created by potrace 1.16, written by Peter Selinger 2001-2019
</metadata>
<g transform="translate(0.000000,192.000000) scale(0.100000,-0.100000)"
fill="#000000" stroke="none">
811 c445 -92 729 -532 635 -987 -62 -301 -295 -546 -601 -630 -91 -26 -329
-26 -420 0 -291 80 -516 305 -596 596 -26 91 -26 329 0 420 120 433 542 692
982 601z"/>
<path d="M860 1338 c-41 -24 -112 -66 -158 -92 -52 -30 -88 -59 -97 -77 -20
-37 -21 -371 -2 -409 17 -35 309 -210 350 -210 33 0 310 155 344 192 16 18 18
43 21 205 2 128 0 195 -9 215 -9 21 -49 51 -162 119 -84 50 -165 93 -182 96
-23 3 -48 -7 -105 -39z m151 -257 c39 -40 39 -82 0 -122 -36 -36 -70 -37 -110
-3 -24 20 -31 34 -31 61 0 43 45 93 85 93 16 0 38 -12 56 -29z m-214 -153 c81
-38 151 -146 154 -237 0 -14 7 2 14 37 17 76 42 120 98 167 40 34 130 70 148
59 14 -8 10 -76 -6 -125 -20 -59 -65 -112 -123 -147 -41 -23 -58 -27 -127 -27
-69 0 -86 4 -127 27 -58 35 -103 88 -123 147 -15 46 -20 113 -9 124 9 9 51 -1
101 -25z"/>
</g>
</svg>
