<?xml version="1.0" standalone="no"?>
<!DOCTYPE svg PUBLIC "-//W3C//DTD SVG 20010904//EN"
 "http://www.w3.org/TR/2001/REC-SVG-20010904/DTD/svg10.dtd">
<svg version="1.0" xmlns="http://www.w3.org/2000/svg"
 width="192.000000pt" height="192.000000pt" viewBox="0 0 192.000000 192.000000"
 preserveAspectRatio="xMidYMid meet">
<metadata>
Created by potrace 1.16, written by Peter Selinger 2001-2019
</metadata>
<g transform="translate(0.000000,192.000000) scale(0.100000,-0.100000)"
fill="#000000" stroke="none">
811 c445 -92 729 -532 635 -987 -62 -301 -295 -546 -601 -630 -91 -26 -329
-26 -420 0 -291 80 -516 305 -596 596 -26 91 -26 329 0 420 120 433 542 692
982 601z"/>
<path d="M663 1326 l-28 -24 -3 -331 -3 -330 30 -33 29 -33 277 -3 c250 -3
279 -1 296 14 25 23 24 49 -3 68 -19 14 -62 16 -270 16 l-248 0 0 30 0 30 253
0 c233 0 255 1 270 18 15 16 17 50 17 271 0 267 -5 297 -49 321 -12 6 -121 10
-280 10 l-260 0 -28 -24z"/>
</g>
</svg>
