<?xml version="1.0" standalone="no"?>
<!DOCTYPE svg PUBLIC "-//W3C//DTD SVG 20010904//EN"
 "http://www.w3.org/TR/2001/REC-SVG-20010904/DTD/svg10.dtd">
<svg version="1.0" xmlns="http://www.w3.org/2000/svg"
 width="192.000000pt" height="192.000000pt" viewBox="0 0 192.000000 192.000000"
 preserveAspectRatio="xMidYMid meet">
<metadata>
Created by potrace 1.16, written by Peter Selinger 2001-2019
</metadata>
<g transform="translate(0.000000,192.000000) scale(0.100000,-0.100000)"
fill="#000000" stroke="none">
811 c445 -92 729 -532 635 -987 -62 -301 -295 -546 -601 -630 -91 -26 -329
-26 -420 0 -291 80 -516 305 -596 596 -26 91 -26 329 0 420 120 433 542 692
982 601z"/>
<path d="M693 1330 c-17 -10 -37 -28 -42 -39 -14 -25 -15 -609 -1 -645 15 -39
67 -68 113 -62 65 8 107 66 107 149 0 25 3 27 45 27 41 0 45 -2 45 -25 0 -32
33 -65 65 -65 21 0 25 -5 25 -28 0 -47 26 -62 112 -62 99 0 113 14 113 110 0
78 -19 110 -67 110 -24 0 -28 4 -28 28 0 41 -26 72 -61 72 -29 0 -29 0 -29 60
0 60 0 60 29 60 41 0 61 24 61 71 0 36 2 39 28 39 48 0 67 32 67 110 0 97 -14
110 -115 110 -88 0 -110 -14 -110 -68 0 -27 -4 -32 -24 -32 -31 0 -56 -25 -56
-56 0 -22 -4 -24 -50 -24 -48 0 -50 1 -50 28 0 118 -90 185 -177 132z"/>
</g>
</svg>
