<?xml version="1.0" standalone="no"?>
<!DOCTYPE svg PUBLIC "-//W3C//DTD SVG 20010904//EN"
 "http://www.w3.org/TR/2001/REC-SVG-20010904/DTD/svg10.dtd">
<svg version="1.0" xmlns="http://www.w3.org/2000/svg"
 width="192.000000pt" height="192.000000pt" viewBox="0 0 192.000000 192.000000"
 preserveAspectRatio="xMidYMid meet">
<metadata>
Created by potrace 1.16, written by Peter Selinger 2001-2019
</metadata>
<g transform="translate(0.000000,192.000000) scale(0.100000,-0.100000)"
fill="#000000" stroke="none">
811 c445 -92 729 -532 635 -987 -62 -301 -295 -546 -601 -630 -91 -26 -329
-26 -420 0 -291 80 -516 305 -596 596 -26 91 -26 329 0 420 120 433 542 692
982 601z"/>
<path d="M719 1370 c-46 -14 -88 -52 -114 -104 -25 -49 -25 -53 -25 -305 0
-288 4 -308 73 -368 79 -69 188 -68 265 2 l37 33 37 -33 c76 -70 186 -71 265
-2 98 86 97 203 -4 309 l-56 58 55 58 c82 89 97 160 53 249 -60 120 -206 148
-317 61 l-36 -28 -29 26 c-52 49 -131 67 -204 44z"/>
</g>
</svg>
