<?xml version="1.0" standalone="no"?>
<!DOCTYPE svg PUBLIC "-//W3C//DTD SVG 20010904//EN"
 "http://www.w3.org/TR/2001/REC-SVG-20010904/DTD/svg10.dtd">
<svg version="1.0" xmlns="http://www.w3.org/2000/svg"
 width="192.000000pt" height="192.000000pt" viewBox="0 0 192.000000 192.000000"
 preserveAspectRatio="xMidYMid meet">
<metadata>
Created by potrace 1.16, written by Peter Selinger 2001-2019
</metadata>
<g transform="translate(0.000000,192.000000) scale(0.100000,-0.100000)"
fill="#000000" stroke="none">
811 c445 -92 729 -532 635 -987 -62 -301 -295 -546 -601 -630 -91 -26 -329
-26 -420 0 -291 80 -516 305 -596 596 -26 91 -26 329 0 420 120 433 542 692
982 601z"/>
<path d="M556 1164 c-13 -13 -16 -45 -16 -198 0 -164 2 -185 18 -199 38 -35
82 -9 82 47 0 18 3 35 6 39 4 3 24 -17 46 -44 46 -58 60 -66 94 -51 19 9 24
19 24 46 0 19 -4 37 -8 40 -5 3 -21 23 -37 45 l-27 41 31 35 c36 42 38 58 11
85 -29 29 -51 25 -90 -15 -19 -19 -38 -35 -42 -35 -4 0 -8 36 -8 80 0 68 -3
81 -19 90 -27 14 -47 13 -65 -6z"/>
<path d="M1007 1162 c-15 -16 -17 -45 -17 -199 0 -162 2 -182 18 -196 39 -35
79 -12 90 52 l7 43 33 -46 c18 -25 42 -51 53 -57 27 -14 58 -2 71 27 10 22 6
32 -31 85 l-42 60 30 35 c35 40 39 64 13 87 -28 25 -48 21 -92 -19 l-40 -36 0
69 c0 77 -17 113 -54 113 -13 0 -30 -8 -39 -18z"/>
<path d="M860 1050 c-18 -18 -20 -33 -20 -140 0 -107 2 -122 20 -140 25 -25
52 -26 73 -2 14 15 17 41 17 144 0 108 -2 127 -18 141 -25 22 -48 21 -72 -3z"/>
<path d="M1294 972 c-43 -28 -30 -94 19 -100 36 -4 57 13 57 49 0 40 -46 71
-76 51z"/>
</g>
</svg>
