<?xml version="1.0" standalone="no"?>
<!DOCTYPE svg PUBLIC "-//W3C//DTD SVG 20010904//EN"
 "http://www.w3.org/TR/2001/REC-SVG-20010904/DTD/svg10.dtd">
<svg version="1.0" xmlns="http://www.w3.org/2000/svg"
 width="192.000000pt" height="192.000000pt" viewBox="0 0 192.000000 192.000000"
 preserveAspectRatio="xMidYMid meet">
<metadata>
Created by potrace 1.16, written by Peter Selinger 2001-2019
</metadata>
<g transform="translate(0.000000,192.000000) scale(0.100000,-0.100000)"
fill="#000000" stroke="none">
811 c445 -92 729 -532 635 -987 -62 -301 -295 -546 -601 -630 -91 -26 -329
-26 -420 0 -291 80 -516 305 -596 596 -26 91 -26 329 0 420 120 433 542 692
982 601z"/>
<path d="M825 1363 c-158 -57 -257 -172 -287 -333 -24 -129 26 -274 128 -370
141 -133 352 -154 511 -51 281 181 257 585 -44 733 -59 29 -78 33 -162 35 -73
3 -108 -1 -146 -14z m196 -78 c20 -13 40 -76 34 -106 -4 -16 -20 -40 -37 -54
-68 -58 -168 -9 -168 83 0 76 99 121 171 77z m-232 -176 c48 -45 50 -107 4
-153 -35 -36 -103 -37 -138 -2 -45 45 -45 107 0 152 32 32 101 34 134 3z m456
5 c34 -22 50 -75 35 -118 -14 -44 -48 -66 -100 -66 -92 0 -132 109 -65 176 29
29 92 33 130 8z m-362 -275 c46 -49 35 -124 -23 -154 -46 -24 -87 -19 -121 14
-51 52 -39 134 25 165 41 21 84 12 119 -25z m251 27 c109 -45 75 -196 -44
-196 -39 0 -88 43 -96 84 -8 45 18 93 59 111 40 18 41 18 81 1z"/>
</g>
</svg>
