<?xml version="1.0" standalone="no"?>
<!DOCTYPE svg PUBLIC "-//W3C//DTD SVG 20010904//EN"
 "http://www.w3.org/TR/2001/REC-SVG-20010904/DTD/svg10.dtd">
<svg version="1.0" xmlns="http://www.w3.org/2000/svg"
 width="192.000000pt" height="192.000000pt" viewBox="0 0 192.000000 192.000000"
 preserveAspectRatio="xMidYMid meet">
<metadata>
Created by potrace 1.16, written by Peter Selinger 2001-2019
</metadata>
<g transform="translate(0.000000,192.000000) scale(0.100000,-0.100000)"
fill="#000000" stroke="none">
811 c445 -92 729 -532 635 -987 -62 -301 -295 -546 -601 -630 -91 -26 -329
-26 -420 0 -291 80 -516 305 -596 596 -26 91 -26 329 0 420 120 433 542 692
982 601z"/>
<path d="M546 1255 c-9 -9 -16 -20 -16 -24 0 -13 246 -539 260 -556 17 -20 63
-19 82 3 8 9 63 122 123 250 l108 232 58 0 c33 0 59 -4 59 -9 0 -7 -128 -282
-135 -289 -1 -1 -14 2 -27 9 -33 14 -65 -2 -74 -37 -7 -26 36 -132 64 -161 19
-18 56 -16 74 5 20 22 258 534 258 553 0 34 -22 39 -186 39 -117 0 -164 -3
-171 -12 -6 -7 -50 -100 -98 -205 -49 -106 -91 -193 -94 -193 -3 0 -36 66 -73
148 l-67 147 57 3 c53 3 58 1 82 -28 32 -39 72 -41 97 -4 16 26 16 28 -13 83
l-29 56 -162 3 c-137 2 -164 0 -177 -13z"/>
</g>
</svg>
