<?xml version="1.0" standalone="no"?>
<!DOCTYPE svg PUBLIC "-//W3C//DTD SVG 20010904//EN"
 "http://www.w3.org/TR/2001/REC-SVG-20010904/DTD/svg10.dtd">
<svg version="1.0" xmlns="http://www.w3.org/2000/svg"
 width="192.000000pt" height="192.000000pt" viewBox="0 0 192.000000 192.000000"
 preserveAspectRatio="xMidYMid meet">
<metadata>
Created by potrace 1.16, written by Peter Selinger 2001-2019
</metadata>
<g transform="translate(0.000000,192.000000) scale(0.100000,-0.100000)"
fill="#000000" stroke="none">
811 c445 -92 729 -532 635 -987 -62 -301 -295 -546 -601 -630 -91 -26 -329
-26 -420 0 -291 80 -516 305 -596 596 -26 91 -26 329 0 420 120 433 542 692
982 601z"/>
<path d="M893 1369 c-123 -16 -247 -108 -304 -224 -97 -200 -13 -453 183 -549
168 -82 349 -48 478 90 81 87 104 149 105 279 0 92 -3 105 -32 167 -81 171
-246 262 -430 237z m13 -114 c41 -17 69 -71 59 -116 -10 -43 -58 -79 -107 -79
-83 0 -129 98 -77 164 36 46 70 54 125 31z m305 -124 c57 -57 31 -158 -45
-177 -14 -3 -38 -3 -52 0 -76 19 -102 120 -45 177 41 41 101 41 142 0z m-219
-128 c36 -33 10 -93 -42 -93 -33 0 -50 17 -50 51 0 52 54 77 92 42z m-158 -64
c25 -28 28 -37 23 -78 -7 -60 -41 -91 -101 -91 -110 0 -143 151 -43 196 44 19
87 10 121 -27z m278 -98 c28 -25 33 -36 33 -76 0 -40 -5 -51 -33 -76 -46 -42
-93 -40 -138 5 -26 26 -34 42 -34 71 0 29 8 45 34 71 45 45 92 47 138 5z"/>
</g>
</svg>
