<?xml version="1.0" standalone="no"?>
<!DOCTYPE svg PUBLIC "-//W3C//DTD SVG 20010904//EN"
 "http://www.w3.org/TR/2001/REC-SVG-20010904/DTD/svg10.dtd">
<svg version="1.0" xmlns="http://www.w3.org/2000/svg"
 width="192.000000pt" height="192.000000pt" viewBox="0 0 192.000000 192.000000"
 preserveAspectRatio="xMidYMid meet">
<metadata>
Created by potrace 1.16, written by Peter Selinger 2001-2019
</metadata>
<g transform="translate(0.000000,192.000000) scale(0.100000,-0.100000)"
fill="#000000" stroke="none">
811 c445 -92 729 -532 635 -987 -62 -301 -295 -546 -601 -630 -91 -26 -329
-26 -420 0 -291 80 -516 305 -596 596 -26 91 -26 329 0 420 120 433 542 692
982 601z"/>
<path d="M689 1203 c-125 -123 -155 -167 -144 -211 10 -41 253 -282 284 -282
19 0 83 58 273 248 137 136 251 257 254 270 9 35 -3 68 -31 80 -18 8 -105 12
-272 12 l-246 0 -118 -117z"/>
<path d="M1023 798 c-114 -112 -129 -141 -93 -170 20 -16 43 -18 206 -18 171
0 185 1 204 20 41 41 28 68 -79 173 -54 53 -106 97 -116 97 -10 0 -65 -46
-122 -102z"/>
</g>
</svg>
