<?xml version="1.0" standalone="no"?>
<!DOCTYPE svg PUBLIC "-//W3C//DTD SVG 20010904//EN"
 "http://www.w3.org/TR/2001/REC-SVG-20010904/DTD/svg10.dtd">
<svg version="1.0" xmlns="http://www.w3.org/2000/svg"
 width="192.000000pt" height="192.000000pt" viewBox="0 0 192.000000 192.000000"
 preserveAspectRatio="xMidYMid meet">
<metadata>
Created by potrace 1.16, written by Peter Selinger 2001-2019
</metadata>
<g transform="translate(0.000000,192.000000) scale(0.100000,-0.100000)"
fill="#000000" stroke="none">
811 c445 -92 729 -532 635 -987 -62 -301 -295 -546 -601 -630 -91 -26 -329
-26 -420 0 -291 80 -516 305 -596 596 -26 91 -26 329 0 420 120 433 542 692
982 601z"/>
<path d="M610 1347 c-49 -25 -50 -38 -48 -395 l3 -334 28 -24 c38 -32 72 -31
108 5 29 29 29 30 29 150 l0 121 65 -69 c70 -73 186 -159 260 -192 64 -28 200
-41 243 -24 41 18 57 55 41 102 -13 40 -27 47 -126 63 -123 20 -217 78 -333
203 l-44 49 122 116 c112 107 122 120 122 153 0 46 -33 79 -81 79 -30 0 -49
-14 -152 -111 l-117 -111 0 87 c0 82 -1 88 -29 116 -32 32 -53 35 -91 16z"/>
</g>
</svg>
