<?xml version="1.0" standalone="no"?>
<!DOCTYPE svg PUBLIC "-//W3C//DTD SVG 20010904//EN"
 "http://www.w3.org/TR/2001/REC-SVG-20010904/DTD/svg10.dtd">
<svg version="1.0" xmlns="http://www.w3.org/2000/svg"
 width="192.000000pt" height="192.000000pt" viewBox="0 0 192.000000 192.000000"
 preserveAspectRatio="xMidYMid meet">
<metadata>
Created by potrace 1.16, written by Peter Selinger 2001-2019
</metadata>
<g transform="translate(0.000000,192.000000) scale(0.100000,-0.100000)"
fill="#000000" stroke="none">
811 c445 -92 729 -532 635 -987 -62 -301 -295 -546 -601 -630 -91 -26 -329
-26 -420 0 -291 80 -516 305 -596 596 -26 91 -26 329 0 420 120 433 542 692
982 601z"/>
<path d="M707 1326 c-50 -18 -85 -51 -108 -101 -16 -35 -19 -68 -19 -259 0
-204 1 -223 21 -264 15 -29 37 -54 67 -73 l46 -29 233 0 c260 0 277 3 330 63
49 56 55 95 51 327 l-3 207 -30 48 c-52 84 -73 90 -330 92 -168 2 -229 -1
-258 -11z m477 -60 c34 -14 76 -59 76 -82 0 -9 -12 -14 -32 -14 -51 0 -153
-27 -208 -55 -59 -30 -66 -30 -121 -5 -85 38 -178 17 -233 -52 l-26 -33 0 73
c0 90 17 131 68 160 35 20 50 22 240 22 150 0 211 -4 236 -14z m86 -301 c0
-102 -5 -196 -10 -211 l-11 -27 -26 54 c-35 70 -96 129 -166 163 -86 40 -76
71 47 146 51 31 148 70 158 64 4 -3 8 -88 8 -189z m-395 55 c4 -6 1 -18 -6
-26 -11 -13 -14 -13 -27 0 -8 8 -11 19 -8 25 9 14 33 14 41 1z m-186 -245 c-1
-16 -4 -41 -8 -55 l-7 -25 -17 32 c-10 18 -17 55 -17 85 l0 53 25 -30 c14 -18
24 -42 24 -60z"/>
</g>
</svg>
