<?xml version="1.0" standalone="no"?>
<!DOCTYPE svg PUBLIC "-//W3C//DTD SVG 20010904//EN"
 "http://www.w3.org/TR/2001/REC-SVG-20010904/DTD/svg10.dtd">
<svg version="1.0" xmlns="http://www.w3.org/2000/svg"
 width="192.000000pt" height="192.000000pt" viewBox="0 0 192.000000 192.000000"
 preserveAspectRatio="xMidYMid meet">
<metadata>
Created by potrace 1.16, written by Peter Selinger 2001-2019
</metadata>
<g transform="translate(0.000000,192.000000) scale(0.100000,-0.100000)"
fill="#000000" stroke="none">
811 c445 -92 729 -532 635 -987 -62 -301 -295 -546 -601 -630 -91 -26 -329
-26 -420 0 -291 80 -516 305 -596 596 -26 91 -26 329 0 420 120 433 542 692
982 601z"/>
<path d="M572 1317 c-22 -23 -22 -28 -22 -355 0 -319 1 -333 20 -352 12 -12
33 -20 55 -20 22 0 43 8 55 20 19 19 20 33 20 353 l0 334 -23 21 c-31 29 -77
29 -105 -1z"/>
<path d="M1008 1330 c-9 -6 -28 -47 -42 -93 -31 -99 -75 -168 -156 -238 -33
-30 -60 -58 -60 -64 0 -15 207 -316 228 -332 42 -33 123 7 122 59 -1 13 -36
74 -80 137 l-79 114 46 56 c71 87 133 228 133 302 0 49 -67 85 -112 59z"/>
<path d="M1244 750 c-55 -22 -70 -95 -29 -135 51 -52 145 -16 145 54 0 57 -66
102 -116 81z"/>
</g>
</svg>
