<?xml version="1.0" standalone="no"?>
<!DOCTYPE svg PUBLIC "-//W3C//DTD SVG 20010904//EN"
 "http://www.w3.org/TR/2001/REC-SVG-20010904/DTD/svg10.dtd">
<svg version="1.0" xmlns="http://www.w3.org/2000/svg"
 width="192.000000pt" height="192.000000pt" viewBox="0 0 192.000000 192.000000"
 preserveAspectRatio="xMidYMid meet">
<metadata>
Created by potrace 1.16, written by Peter Selinger 2001-2019
</metadata>
<g transform="translate(0.000000,192.000000) scale(0.100000,-0.100000)"
fill="#000000" stroke="none">
811 c445 -92 729 -532 635 -987 -62 -301 -295 -546 -601 -630 -91 -26 -329
-26 -420 0 -291 80 -516 305 -596 596 -26 91 -26 329 0 420 120 433 542 692
982 601z"/>
<path d="M880 1374 c-73 -10 -159 -45 -205 -86 -68 -60 -89 -107 -90 -199 0
-70 3 -83 43 -160 48 -96 131 -210 220 -304 59 -62 63 -65 109 -65 46 0 50 2
113 69 81 86 179 222 223 310 29 59 32 75 32 152 0 78 -3 90 -30 135 -35 57
-105 107 -177 129 -55 16 -181 26 -238 19z m-8 -181 c16 -14 18 -33 18 -166 0
-126 -3 -153 -17 -169 -9 -10 -24 -18 -35 -18 -17 0 -18 12 -18 178 0 98 3
182 7 185 11 11 25 8 45 -10z m246 -5 c23 -23 12 -50 -45 -109 l-56 -59 57
-60 c60 -63 71 -101 32 -108 -21 -5 -176 143 -176 168 0 13 157 180 170 180 3
0 11 -5 18 -12z"/>
</g>
</svg>
