<?xml version="1.0" standalone="no"?>
<!DOCTYPE svg PUBLIC "-//W3C//DTD SVG 20010904//EN"
 "http://www.w3.org/TR/2001/REC-SVG-20010904/DTD/svg10.dtd">
<svg version="1.0" xmlns="http://www.w3.org/2000/svg"
 width="192.000000pt" height="192.000000pt" viewBox="0 0 192.000000 192.000000"
 preserveAspectRatio="xMidYMid meet">
<metadata>
Created by potrace 1.16, written by Peter Selinger 2001-2019
</metadata>
<g transform="translate(0.000000,192.000000) scale(0.100000,-0.100000)"
fill="#000000" stroke="none">
811 c445 -92 729 -532 635 -987 -62 -301 -295 -546 -601 -630 -91 -26 -329
-26 -420 0 -291 80 -516 305 -596 596 -26 91 -26 329 0 420 120 433 542 692
982 601z"/>
<path d="M620 1308 c-75 -51 -75 -51 -78 -331 -2 -246 -2 -253 21 -292 12 -22
40 -50 62 -62 56 -32 108 -30 175 7 30 17 78 42 106 57 l51 26 93 -53 c111
-63 158 -72 222 -41 24 11 54 37 68 58 l25 37 0 250 c0 279 -3 291 -67 338
-27 19 -45 23 -98 23 -60 -1 -72 -5 -156 -54 l-92 -52 -98 55 c-84 48 -106 56
-150 56 -36 0 -60 -6 -84 -22z m178 -88 c39 -23 72 -42 72 -45 0 -2 -26 -18
-57 -36 -102 -57 -135 -99 -135 -174 0 -77 32 -116 136 -171 31 -16 56 -31 56
-34 0 -3 -30 -22 -66 -42 -79 -46 -124 -49 -159 -13 l-25 24 0 240 0 239 31
26 c17 14 40 26 52 26 12 0 55 -18 95 -40z"/>
</g>
</svg>
