<?xml version="1.0" standalone="no"?>
<!DOCTYPE svg PUBLIC "-//W3C//DTD SVG 20010904//EN"
 "http://www.w3.org/TR/2001/REC-SVG-20010904/DTD/svg10.dtd">
<svg version="1.0" xmlns="http://www.w3.org/2000/svg"
 width="192.000000pt" height="192.000000pt" viewBox="0 0 192.000000 192.000000"
 preserveAspectRatio="xMidYMid meet">
<metadata>
Created by potrace 1.16, written by Peter Selinger 2001-2019
</metadata>
<g transform="translate(0.000000,192.000000) scale(0.100000,-0.100000)"
fill="#000000" stroke="none">
811 c445 -92 729 -532 635 -987 -62 -301 -295 -546 -601 -630 -91 -26 -329
-26 -420 0 -291 80 -516 305 -596 596 -26 91 -26 329 0 420 120 433 542 692
982 601z"/>
<path d="M727 1362 c-15 -16 -17 -45 -17 -195 l0 -177 73 0 72 0 70 82 c168
197 185 219 185 243 0 34 -34 65 -69 65 -25 0 -42 -15 -108 -92 l-78 -91 -5
70 c-4 51 -11 77 -24 92 -24 26 -77 28 -99 3z"/>
<path d="M1105 958 c-38 -21 -45 -39 -45 -130 l0 -88 -102 110 -103 109 -72 1
-73 0 0 -184 0 -185 26 -20 c35 -27 59 -26 89 4 23 22 25 32 25 106 l0 81 47
-53 c26 -30 70 -78 99 -106 48 -50 54 -53 101 -53 36 0 58 6 77 21 l26 20 0
168 c0 147 -2 170 -17 183 -26 23 -55 29 -78 16z"/>
</g>
</svg>
