<?xml version="1.0" standalone="no"?>
<!DOCTYPE svg PUBLIC "-//W3C//DTD SVG 20010904//EN"
 "http://www.w3.org/TR/2001/REC-SVG-20010904/DTD/svg10.dtd">
<svg version="1.0" xmlns="http://www.w3.org/2000/svg"
 width="192.000000pt" height="192.000000pt" viewBox="0 0 192.000000 192.000000"
 preserveAspectRatio="xMidYMid meet">
<metadata>
Created by potrace 1.16, written by Peter Selinger 2001-2019
</metadata>
<g transform="translate(0.000000,192.000000) scale(0.100000,-0.100000)"
fill="#000000" stroke="none">
811 c445 -92 729 -532 635 -987 -62 -301 -295 -546 -601 -630 -91 -26 -329
-26 -420 0 -291 80 -516 305 -596 596 -26 91 -26 329 0 420 120 433 542 692
982 601z"/>
<path d="M870 1366 c-81 -17 -146 -53 -205 -112 -164 -163 -159 -423 10 -583
76 -72 149 -104 252 -109 146 -8 267 48 355 163 83 108 102 284 45 408 -53
117 -177 213 -306 237 -65 12 -80 12 -151 -4z m218 -126 c113 -57 167 -145
167 -275 0 -94 -24 -155 -87 -216 -64 -62 -120 -84 -213 -84 -130 0 -218 54
-275 167 -24 50 -30 74 -30 128 0 97 23 155 89 221 67 66 118 87 217 88 60 1
80 -4 132 -29z"/>
<path d="M859 1147 c-94 -50 -137 -173 -91 -264 71 -138 240 -162 340 -49 67
77 67 185 0 262 -66 75 -165 95 -249 51z"/>
</g>
</svg>
