<?xml version="1.0" standalone="no"?>
<!DOCTYPE svg PUBLIC "-//W3C//DTD SVG 20010904//EN"
 "http://www.w3.org/TR/2001/REC-SVG-20010904/DTD/svg10.dtd">
<svg version="1.0" xmlns="http://www.w3.org/2000/svg"
 width="192.000000pt" height="192.000000pt" viewBox="0 0 192.000000 192.000000"
 preserveAspectRatio="xMidYMid meet">
<metadata>
Created by potrace 1.16, written by Peter Selinger 2001-2019
</metadata>
<g transform="translate(0.000000,192.000000) scale(0.100000,-0.100000)"
fill="#000000" stroke="none">
811 c445 -92 729 -532 635 -987 -62 -301 -295 -546 -601 -630 -91 -26 -329
-26 -420 0 -291 80 -516 305 -596 596 -26 91 -26 329 0 420 120 433 542 692
982 601z"/>
<path d="M935 1370 c-11 -4 -50 -39 -87 -78 l-68 -70 0 -160 c0 -133 3 -163
16 -176 8 -9 20 -16 27 -16 6 0 78 67 160 148 120 120 150 154 150 177 0 20
-18 45 -73 100 -76 77 -93 87 -125 75z"/>
<path d="M1165 1139 c-11 -4 -51 -39 -89 -77 -92 -93 -91 -103 6 -199 101 -98
110 -98 211 6 42 43 77 86 77 96 0 20 -143 171 -169 178 -9 2 -26 1 -36 -4z"/>
<path d="M612 1057 c-40 -41 -72 -83 -72 -92 0 -9 32 -51 72 -92 58 -59 77
-73 98 -71 l25 3 0 160 0 160 -25 3 c-21 2 -40 -12 -98 -71z"/>
<path d="M935 910 c-30 -11 -165 -155 -165 -175 0 -10 35 -54 78 -98 103 -104
110 -104 209 -4 99 98 99 106 3 202 -76 77 -93 87 -125 75z"/>
</g>
</svg>
