<?xml version="1.0" standalone="no"?>
<!DOCTYPE svg PUBLIC "-//W3C//DTD SVG 20010904//EN"
 "http://www.w3.org/TR/2001/REC-SVG-20010904/DTD/svg10.dtd">
<svg version="1.0" xmlns="http://www.w3.org/2000/svg"
 width="192.000000pt" height="192.000000pt" viewBox="0 0 192.000000 192.000000"
 preserveAspectRatio="xMidYMid meet">
<metadata>
Created by potrace 1.16, written by Peter Selinger 2001-2019
</metadata>
<g transform="translate(0.000000,192.000000) scale(0.100000,-0.100000)"
fill="#000000" stroke="none">
811 c445 -92 729 -532 635 -987 -62 -301 -295 -546 -601 -630 -91 -26 -329
-26 -420 0 -291 80 -516 305 -596 596 -26 91 -26 329 0 420 120 433 542 692
982 601z"/>
<path d="M835 1357 c-144 -48 -245 -153 -282 -294 -17 -65 -13 -163 10 -228
22 -63 49 -59 127 20 l65 65 0 68 c0 121 68 201 179 210 67 5 113 -9 155 -50
51 -49 65 -85 64 -159 l-1 -66 68 -68 c45 -45 74 -66 86 -63 24 4 43 43 54
115 27 167 -70 347 -228 425 -58 29 -77 33 -161 35 -60 2 -111 -2 -136 -10z"/>
<path d="M891 952 c-30 -48 -93 -126 -139 -174 -56 -57 -83 -92 -79 -102 11
-28 90 -76 160 -98 103 -31 205 -22 304 27 40 20 81 47 90 61 16 25 15 26 -73
117 -52 53 -111 127 -139 174 -28 45 -54 83 -60 83 -5 0 -34 -39 -64 -88z"/>
</g>
</svg>
