<?xml version="1.0" standalone="no"?>
<!DOCTYPE svg PUBLIC "-//W3C//DTD SVG 20010904//EN"
 "http://www.w3.org/TR/2001/REC-SVG-20010904/DTD/svg10.dtd">
<svg version="1.0" xmlns="http://www.w3.org/2000/svg"
 width="192.000000pt" height="192.000000pt" viewBox="0 0 192.000000 192.000000"
 preserveAspectRatio="xMidYMid meet">
<metadata>
Created by potrace 1.16, written by Peter Selinger 2001-2019
</metadata>
<g transform="translate(0.000000,192.000000) scale(0.100000,-0.100000)"
fill="#000000" stroke="none">
811 c445 -92 729 -532 635 -987 -62 -301 -295 -546 -601 -630 -91 -26 -329
-26 -420 0 -291 80 -516 305 -596 596 -26 91 -26 329 0 420 120 433 542 692
982 601z"/>
<path d="M935 1370 c-34 -13 -155 -146 -155 -171 0 -15 25 -48 73 -96 97 -97
107 -97 204 0 51 51 73 81 73 98 0 17 -21 45 -72 95 -79 77 -93 85 -123 74z"/>
<path d="M619 1063 c-43 -44 -79 -87 -79 -97 0 -10 35 -54 77 -97 55 -57 83
-79 102 -79 17 0 46 21 98 73 95 96 96 106 6 198 -98 99 -106 99 -204 2z"/>
<path d="M1093 1067 c-97 -98 -97 -108 1 -204 48 -47 83 -73 97 -73 28 0 179
148 179 175 0 28 -151 175 -180 175 -16 0 -47 -24 -97 -73z"/>
<path d="M853 827 c-51 -51 -73 -81 -73 -98 0 -37 138 -172 176 -171 36 0 174
137 174 173 0 15 -25 47 -73 96 -57 57 -80 73 -102 73 -22 0 -45 -16 -102 -73z"/>
</g>
</svg>
