<?xml version="1.0" standalone="no"?>
<!DOCTYPE svg PUBLIC "-//W3C//DTD SVG 20010904//EN"
 "http://www.w3.org/TR/2001/REC-SVG-20010904/DTD/svg10.dtd">
<svg version="1.0" xmlns="http://www.w3.org/2000/svg"
 width="192.000000pt" height="192.000000pt" viewBox="0 0 192.000000 192.000000"
 preserveAspectRatio="xMidYMid meet">
<metadata>
Created by potrace 1.16, written by Peter Selinger 2001-2019
</metadata>
<g transform="translate(0.000000,192.000000) scale(0.100000,-0.100000)"
fill="#000000" stroke="none">
811 c445 -92 729 -532 635 -987 -62 -301 -295 -546 -601 -630 -91 -26 -329
-26 -420 0 -291 80 -516 305 -596 596 -26 91 -26 329 0 420 120 433 542 692
982 601z"/>
<path d="M902 1344 c-20 -13 -22 -24 -22 -95 l0 -80 -46 33 c-42 30 -53 33
-114 33 -60 0 -74 -4 -112 -30 -65 -46 -91 -105 -90 -211 0 -46 6 -101 13
-122 47 -142 177 -202 299 -139 l49 26 3 -81 c3 -75 5 -82 30 -101 23 -17 31
-18 56 -8 41 17 52 49 52 148 l0 87 33 -32 c89 -86 211 -82 280 10 77 102 49
193 -34 112 -39 -38 -41 -39 -112 -38 -51 0 -86 7 -119 22 -64 29 -63 51 5
117 90 87 155 105 221 60 42 -29 59 -31 76 -11 9 12 7 25 -10 63 -27 61 -55
91 -105 114 -56 26 -119 24 -182 -6 l-53 -24 0 58 c0 95 -55 139 -118 95z
m-64 -269 c35 -14 42 -22 42 -45 0 -34 -74 -120 -124 -144 -92 -44 -185 1
-186 89 0 51 21 82 74 106 49 23 127 21 194 -6z"/>
</g>
</svg>
