<?xml version="1.0" standalone="no"?>
<!DOCTYPE svg PUBLIC "-//W3C//DTD SVG 20010904//EN"
 "http://www.w3.org/TR/2001/REC-SVG-20010904/DTD/svg10.dtd">
<svg version="1.0" xmlns="http://www.w3.org/2000/svg"
 width="192.000000pt" height="192.000000pt" viewBox="0 0 192.000000 192.000000"
 preserveAspectRatio="xMidYMid meet">
<metadata>
Created by potrace 1.16, written by Peter Selinger 2001-2019
</metadata>
<g transform="translate(0.000000,192.000000) scale(0.100000,-0.100000)"
fill="#000000" stroke="none">
811 c445 -92 729 -532 635 -987 -62 -301 -295 -546 -601 -630 -91 -26 -329
-26 -420 0 -291 80 -516 305 -596 596 -26 91 -26 329 0 420 120 433 542 692
982 601z"/>
<path d="M584 1347 c-2 -7 -3 -98 -2 -202 3 -185 4 -190 24 -193 16 -2 43 20
103 84 l81 87 0 118 0 119 -100 0 c-73 0 -102 -4 -106 -13z"/>
<path d="M831 1088 l-251 -273 2 -125 c3 -118 4 -125 24 -128 16 -2 99 81 364
367 189 204 348 378 353 386 21 38 3 45 -121 45 l-119 0 -252 -272z"/>
<path d="M952 827 c-34 -34 -62 -69 -62 -76 0 -8 39 -56 86 -107 l86 -94 107
0 c106 0 131 7 131 37 0 15 -261 303 -275 303 -6 0 -39 -28 -73 -63z"/>
</g>
</svg>
