<?xml version="1.0" standalone="no"?>
<!DOCTYPE svg PUBLIC "-//W3C//DTD SVG 20010904//EN"
 "http://www.w3.org/TR/2001/REC-SVG-20010904/DTD/svg10.dtd">
<svg version="1.0" xmlns="http://www.w3.org/2000/svg"
 width="192.000000pt" height="192.000000pt" viewBox="0 0 192.000000 192.000000"
 preserveAspectRatio="xMidYMid meet">
<metadata>
Created by potrace 1.16, written by Peter Selinger 2001-2019
</metadata>
<g transform="translate(0.000000,192.000000) scale(0.100000,-0.100000)"
fill="#000000" stroke="none">
811 c445 -92 729 -532 635 -987 -62 -301 -295 -546 -601 -630 -91 -26 -329
-26 -420 0 -291 80 -516 305 -596 596 -26 91 -26 329 0 420 120 433 542 692
982 601z"/>
<path d="M685 1312 c-44 -27 -83 -76 -95 -120 -13 -49 -13 -406 1 -455 12 -45
67 -110 107 -126 20 -8 102 -11 269 -9 l240 3 36 28 c68 52 77 84 77 273 0
165 0 168 -26 202 -48 62 -139 80 -213 42 -52 -26 -79 -72 -90 -154 -6 -39
-20 -85 -35 -110 l-25 -44 50 -71 50 -71 -49 0 c-47 0 -48 1 -77 50 -32 52
-38 56 -79 40 -22 -8 -26 -16 -26 -50 0 -39 -1 -40 -35 -40 l-35 0 0 155 0
155 35 0 35 0 0 -75 c0 -83 4 -88 58 -55 38 23 57 62 66 139 22 175 192 272
342 196 27 -14 50 -25 52 -25 1 0 -7 18 -18 39 -11 22 -36 52 -57 68 l-36 28
-246 3 c-226 2 -248 1 -276 -16z"/>
</g>
</svg>
