<?xml version="1.0" standalone="no"?>
<!DOCTYPE svg PUBLIC "-//W3C//DTD SVG 20010904//EN"
 "http://www.w3.org/TR/2001/REC-SVG-20010904/DTD/svg10.dtd">
<svg version="1.0" xmlns="http://www.w3.org/2000/svg"
 width="192.000000pt" height="192.000000pt" viewBox="0 0 192.000000 192.000000"
 preserveAspectRatio="xMidYMid meet">
<metadata>
Created by potrace 1.16, written by Peter Selinger 2001-2019
</metadata>
<g transform="translate(0.000000,192.000000) scale(0.100000,-0.100000)"
fill="#000000" stroke="none">
811 c445 -92 729 -532 635 -987 -62 -301 -295 -546 -601 -630 -91 -26 -329
-26 -420 0 -291 80 -516 305 -596 596 -26 91 -26 329 0 420 120 433 542 692
982 601z"/>
<path d="M877 1203 l-147 -148 0 98 c0 84 -3 100 -20 117 -28 28 -64 25 -89
-6 -20 -26 -21 -39 -21 -301 l0 -274 25 -24 c29 -30 45 -31 79 -4 25 20 26 25
26 117 l0 96 148 -147 c122 -121 154 -147 177 -147 24 0 50 21 142 113 121
121 134 146 93 187 -37 37 -66 26 -154 -60 -45 -44 -85 -80 -88 -80 -3 0 -54
52 -113 116 l-108 116 109 109 c60 60 114 109 121 109 6 0 39 -31 73 -69 34
-38 75 -75 91 -82 26 -10 34 -9 57 8 54 40 45 63 -79 189 -95 96 -118 114
-143 114 -27 0 -53 -22 -179 -147z"/>
<path d="M1010 1010 c-39 -39 -11 -110 44 -110 27 0 66 42 66 71 0 27 -36 59
-65 59 -14 0 -34 -9 -45 -20z"/>
</g>
</svg>
