<?xml version="1.0" standalone="no"?>
<!DOCTYPE svg PUBLIC "-//W3C//DTD SVG 20010904//EN"
 "http://www.w3.org/TR/2001/REC-SVG-20010904/DTD/svg10.dtd">
<svg version="1.0" xmlns="http://www.w3.org/2000/svg"
 width="192.000000pt" height="192.000000pt" viewBox="0 0 192.000000 192.000000"
 preserveAspectRatio="xMidYMid meet">
<metadata>
Created by potrace 1.16, written by Peter Selinger 2001-2019
</metadata>
<g transform="translate(0.000000,192.000000) scale(0.100000,-0.100000)"
fill="#000000" stroke="none">
811 c445 -92 729 -532 635 -987 -62 -301 -295 -546 -601 -630 -91 -26 -329
-26 -420 0 -291 80 -516 305 -596 596 -26 91 -26 329 0 420 120 433 542 692
982 601z"/>
<path d="M542 1128 c-8 -8 -12 -59 -12 -163 0 -155 5 -175 41 -175 32 0 49 29
49 81 0 37 4 49 15 49 11 0 15 -12 15 -49 0 -52 17 -81 49 -81 33 0 41 22 41
112 0 75 -3 89 -19 100 -19 11 -19 13 2 55 26 52 16 78 -29 78 -24 0 -33 -7
-51 -45 -23 -44 -23 -44 -23 -13 0 51 -47 82 -78 51z"/>
<path d="M802 1128 c-8 -8 -12 -58 -12 -158 0 -178 1 -180 106 -180 106 0 108
3 112 150 5 157 -1 188 -35 196 -20 5 -31 2 -45 -16 -15 -18 -18 -40 -18 -131
0 -90 -3 -109 -15 -109 -12 0 -15 20 -15 120 0 108 -2 120 -19 130 -26 13 -44
13 -59 -2z"/>
<path d="M1182 1128 c-8 -8 -12 -51 -12 -125 0 -124 -9 -144 -49 -104 -24 24
-34 25 -62 11 -14 -8 -19 -21 -19 -50 0 -54 25 -70 112 -70 104 0 108 6 108
179 0 114 -3 143 -16 155 -18 19 -45 21 -62 4z"/>
<path d="M1306 1124 c-13 -13 -16 -42 -16 -159 0 -151 7 -175 49 -175 36 0 41
20 41 175 0 155 -5 175 -41 175 -10 0 -25 -7 -33 -16z"/>
</g>
</svg>
