<?xml version="1.0" standalone="no"?>
<!DOCTYPE svg PUBLIC "-//W3C//DTD SVG 20010904//EN"
 "http://www.w3.org/TR/2001/REC-SVG-20010904/DTD/svg10.dtd">
<svg version="1.0" xmlns="http://www.w3.org/2000/svg"
 width="192.000000pt" height="192.000000pt" viewBox="0 0 192.000000 192.000000"
 preserveAspectRatio="xMidYMid meet">
<metadata>
Created by potrace 1.16, written by Peter Selinger 2001-2019
</metadata>
<g transform="translate(0.000000,192.000000) scale(0.100000,-0.100000)"
fill="#000000" stroke="none">
811 c445 -92 729 -532 635 -987 -62 -301 -295 -546 -601 -630 -91 -26 -329
-26 -420 0 -291 80 -516 305 -596 596 -26 91 -26 329 0 420 120 433 542 692
982 601z"/>
<path d="M552 1128 l3 -123 30 0 c29 0 30 2 33 48 2 26 7 47 11 47 5 0 18 -22
29 -50 19 -45 24 -50 51 -50 37 0 39 11 10 76 l-20 48 20 57 c12 31 21 59 21
63 0 3 -15 6 -34 6 -30 0 -35 -4 -50 -45 -10 -25 -22 -45 -26 -45 -5 0 -10 19
-12 43 -3 39 -5 42 -36 45 l-33 3 3 -123z"/>
<path d="M750 1142 c0 -133 6 -142 98 -142 92 0 106 24 100 170 l-3 75 -32 3
-32 3 -3 -93 c-3 -93 -3 -93 -30 -96 l-27 -3 -3 93 -3 93 -32 3 -33 3 0 -109z"/>
<path d="M970 1125 l0 -125 30 0 c31 0 36 8 43 75 3 29 3 29 27 -20 18 -36 32
-51 49 -53 39 -6 45 11 20 68 -22 50 -22 53 -6 104 23 73 22 78 -15 74 -27 -3
-33 -9 -46 -45 -16 -50 -32 -56 -32 -14 0 47 -10 61 -41 61 l-29 0 0 -125z"/>
<path d="M1167 1243 c-11 -10 -8 -154 3 -192 13 -45 23 -51 96 -51 88 0 94 10
94 144 l0 107 -32 -3 -33 -3 -3 -93 -3 -93 -27 3 c-27 3 -27 3 -30 96 l-3 92
-28 0 c-15 0 -31 -3 -34 -7z"/>
<path d="M554 947 c-2 -7 -3 -69 -2 -138 l3 -124 235 0 235 0 0 135 0 135
-233 3 c-186 2 -234 0 -238 -11z m194 -49 c3 -15 -4 -18 -37 -18 -37 0 -41 -2
-41 -25 0 -21 5 -25 30 -25 23 0 30 -4 30 -20 0 -15 -7 -20 -29 -20 -26 0 -30
-4 -33 -32 -2 -25 -8 -33 -23 -33 -18 0 -20 8 -23 84 -2 46 0 91 2 98 9 22
120 14 124 -9z m80 -35 l29 -56 29 54 c16 29 37 55 47 57 15 3 17 -7 17 -98 0
-91 -2 -101 -17 -98 -13 2 -20 16 -24 48 l-5 45 -17 -37 c-21 -47 -40 -48 -58
-5 l-14 32 -5 -40 c-4 -32 -9 -40 -25 -40 -18 0 -20 8 -23 84 -2 46 -1 90 2
98 11 28 37 11 64 -44z"/>
</g>
</svg>
