<?xml version="1.0" standalone="no"?>
<!DOCTYPE svg PUBLIC "-//W3C//DTD SVG 20010904//EN"
 "http://www.w3.org/TR/2001/REC-SVG-20010904/DTD/svg10.dtd">
<svg version="1.0" xmlns="http://www.w3.org/2000/svg"
 width="192.000000pt" height="192.000000pt" viewBox="0 0 192.000000 192.000000"
 preserveAspectRatio="xMidYMid meet">
<metadata>
Created by potrace 1.16, written by Peter Selinger 2001-2019
</metadata>
<g transform="translate(0.000000,192.000000) scale(0.100000,-0.100000)"
fill="#000000" stroke="none">
811 c445 -92 729 -532 635 -987 -62 -301 -295 -546 -601 -630 -91 -26 -329
-26 -420 0 -291 80 -516 305 -596 596 -26 91 -26 329 0 420 120 433 542 692
982 601z"/>
<path d="M707 1368 c-16 -12 -17 -46 -15 -408 l3 -395 58 -3 c35 -2 64 2 73 9
12 9 14 77 14 400 0 374 -1 389 -19 399 -27 14 -94 13 -114 -2z"/>
<path d="M1156 1370 c-63 -19 -96 -76 -96 -166 l0 -58 -80 -82 c-44 -45 -80
-89 -80 -99 0 -10 35 -54 79 -99 l79 -81 4 -71 c4 -52 11 -80 26 -102 24 -33
69 -55 104 -50 23 3 23 5 26 146 l3 143 -55 57 -55 57 55 57 54 57 0 138 c0
95 -4 143 -12 151 -13 13 -12 13 -52 2z"/>
</g>
</svg>
