<?xml version="1.0" standalone="no"?>
<!DOCTYPE svg PUBLIC "-//W3C//DTD SVG 20010904//EN"
 "http://www.w3.org/TR/2001/REC-SVG-20010904/DTD/svg10.dtd">
<svg version="1.0" xmlns="http://www.w3.org/2000/svg"
 width="192.000000pt" height="192.000000pt" viewBox="0 0 192.000000 192.000000"
 preserveAspectRatio="xMidYMid meet">
<metadata>
Created by potrace 1.16, written by Peter Selinger 2001-2019
</metadata>
<g transform="translate(0.000000,192.000000) scale(0.100000,-0.100000)"
fill="#000000" stroke="none">
811 c445 -92 729 -532 635 -987 -62 -301 -295 -546 -601 -630 -91 -26 -329
-26 -420 0 -291 80 -516 305 -596 596 -26 91 -26 329 0 420 120 433 542 692
982 601z"/>
<path d="M700 1360 c-19 -19 -20 -33 -20 -393 0 -287 3 -377 13 -391 10 -14
25 -16 77 -14 l65 3 3 395 c3 445 7 420 -75 420 -30 0 -49 -6 -63 -20z"/>
<path d="M1141 1362 c-56 -28 -75 -63 -79 -145 l-4 -72 -79 -81 c-43 -45 -79
-89 -79 -99 0 -10 36 -54 80 -99 l80 -82 0 -58 c0 -31 6 -72 14 -91 18 -42 70
-76 111 -73 l30 3 3 143 3 143 -55 57 -55 57 55 57 54 56 0 145 c0 123 -2 146
-16 151 -22 9 -25 8 -63 -12z"/>
</g>
</svg>
