<?xml version="1.0" standalone="no"?>
<!DOCTYPE svg PUBLIC "-//W3C//DTD SVG 20010904//EN"
 "http://www.w3.org/TR/2001/REC-SVG-20010904/DTD/svg10.dtd">
<svg version="1.0" xmlns="http://www.w3.org/2000/svg"
 width="192.000000pt" height="192.000000pt" viewBox="0 0 192.000000 192.000000"
 preserveAspectRatio="xMidYMid meet">
<metadata>
Created by potrace 1.16, written by Peter Selinger 2001-2019
</metadata>
<g transform="translate(0.000000,192.000000) scale(0.100000,-0.100000)"
fill="#000000" stroke="none">
811 c445 -92 729 -532 635 -987 -62 -301 -295 -546 -601 -630 -91 -26 -329
-26 -420 0 -291 80 -516 305 -596 596 -26 91 -26 329 0 420 120 433 542 692
982 601z"/>
<path d="M720 1373 c-8 -3 -18 -11 -22 -17 -4 -6 -8 -182 -8 -392 0 -282 3
-383 12 -392 7 -7 38 -12 70 -12 46 0 59 4 68 19 6 13 10 154 10 390 0 358 -1
372 -20 391 -20 20 -75 26 -110 13z"/>
<path d="M1143 1361 c-55 -25 -73 -62 -73 -147 l0 -66 -80 -82 c-45 -46 -80
-91 -80 -102 0 -11 34 -54 80 -99 l80 -80 0 -73 c0 -73 1 -75 39 -113 31 -31
46 -39 75 -39 l36 0 0 147 0 147 -55 56 -55 56 55 54 55 54 0 147 c0 125 -2
148 -16 153 -19 7 -11 9 -61 -13z"/>
</g>
</svg>
