<?xml version="1.0" standalone="no"?>
<!DOCTYPE svg PUBLIC "-//W3C//DTD SVG 20010904//EN"
 "http://www.w3.org/TR/2001/REC-SVG-20010904/DTD/svg10.dtd">
<svg version="1.0" xmlns="http://www.w3.org/2000/svg"
 width="192.000000pt" height="192.000000pt" viewBox="0 0 192.000000 192.000000"
 preserveAspectRatio="xMidYMid meet">
<metadata>
Created by potrace 1.16, written by Peter Selinger 2001-2019
</metadata>
<g transform="translate(0.000000,192.000000) scale(0.100000,-0.100000)"
fill="#000000" stroke="none">
811 c445 -92 729 -532 635 -987 -62 -301 -295 -546 -601 -630 -91 -26 -329
-26 -420 0 -291 80 -516 305 -596 596 -26 91 -26 329 0 420 120 433 542 692
982 601z"/>
<path d="M552 1258 c-8 -8 -12 -54 -12 -140 l0 -128 39 0 c40 0 51 11 51 53 1
19 5 17 31 -15 26 -32 37 -38 69 -38 57 0 57 21 0 89 l-49 58 36 34 c47 46 57
67 42 85 -19 23 -56 16 -94 -17 -25 -22 -35 -27 -35 -16 0 37 -53 60 -78 35z"/>
<path d="M822 1258 c-18 -18 -16 -182 3 -217 20 -39 77 -65 128 -58 84 11 115
61 116 184 1 75 -12 103 -48 103 -32 0 -41 -22 -41 -105 0 -83 -9 -105 -41
-105 -37 0 -49 28 -49 109 0 78 -9 101 -40 101 -9 0 -21 -5 -28 -12z"/>
<path d="M1106 1254 c-19 -19 -18 -25 31 -139 47 -110 58 -125 92 -125 38 0
50 17 101 137 42 100 43 103 25 123 -21 23 -48 26 -64 7 -6 -8 -22 -43 -35
-78 l-24 -64 -21 50 c-34 82 -46 100 -68 103 -11 2 -28 -4 -37 -14z"/>
<path d="M552 928 c-8 -8 -12 -50 -12 -124 0 -144 1 -146 117 -142 75 3 87 6
100 25 13 19 12 24 -6 42 -16 16 -35 21 -78 23 l-58 1 60 6 c68 7 85 15 85 40
0 29 -22 41 -76 41 -29 0 -56 5 -59 10 -4 6 16 10 54 10 50 0 62 4 75 22 11
15 12 26 5 40 -8 15 -23 18 -102 18 -59 0 -97 -4 -105 -12z"/>
<path d="M837 933 c-14 -13 -6 -53 12 -63 11 -5 38 -10 60 -10 42 0 63 -16 40
-31 -8 -5 -24 -9 -36 -9 -12 0 -27 -8 -32 -19 -8 -15 -4 -27 18 -57 60 -83
100 -102 125 -61 8 13 7 24 -6 47 -17 29 -17 31 2 50 32 32 27 95 -9 131 -27
26 -36 29 -99 29 -38 0 -72 -3 -75 -7z"/>
<path d="M1191 926 c-7 -8 -32 -61 -56 -118 -38 -90 -42 -106 -31 -123 8 -11
24 -20 37 -20 25 0 34 13 70 100 l21 50 27 -67 c15 -37 32 -73 38 -79 15 -15
59 -4 67 18 7 17 -67 205 -92 236 -18 21 -65 22 -81 3z"/>
</g>
</svg>
