<?xml version="1.0" standalone="no"?>
<!DOCTYPE svg PUBLIC "-//W3C//DTD SVG 20010904//EN"
 "http://www.w3.org/TR/2001/REC-SVG-20010904/DTD/svg10.dtd">
<svg version="1.0" xmlns="http://www.w3.org/2000/svg"
 width="192.000000pt" height="192.000000pt" viewBox="0 0 192.000000 192.000000"
 preserveAspectRatio="xMidYMid meet">
<metadata>
Created by potrace 1.16, written by Peter Selinger 2001-2019
</metadata>
<g transform="translate(0.000000,192.000000) scale(0.100000,-0.100000)"
fill="#000000" stroke="none">
811 c445 -92 729 -532 635 -987 -62 -301 -295 -546 -601 -630 -91 -26 -329
-26 -420 0 -291 80 -516 305 -596 596 -26 91 -26 329 0 420 120 433 542 692
982 601z"/>
<path d="M815 1361 c-68 -30 -125 -113 -125 -181 0 -37 24 -94 53 -127 57 -64
89 -73 288 -73 164 0 179 2 219 23 25 13 51 37 61 57 69 128 -69 277 -195 211
-22 -11 -40 -20 -41 -18 -1 1 -11 19 -24 39 -26 43 -107 88 -160 88 -20 0 -54
-9 -76 -19z m124 -95 c91 -47 50 -186 -55 -186 -38 0 -94 59 -94 100 0 23 10
42 34 66 37 37 70 43 115 20z m285 -77 c19 -15 26 -30 26 -55 0 -84 -107 -104
-139 -25 -10 24 -10 34 3 59 24 47 66 55 110 21z"/>
<path d="M752 948 c-7 -7 -12 -32 -12 -57 l0 -45 -42 41 c-46 44 -75 57 -102
47 -14 -5 -16 -28 -16 -179 0 -145 2 -174 15 -179 24 -9 61 10 96 48 18 20 36
36 41 36 4 0 8 -18 8 -39 0 -70 4 -71 251 -71 282 0 259 -18 259 208 0 151 -2
171 -18 185 -16 15 -48 17 -243 17 -162 0 -228 -3 -237 -12z"/>
</g>
</svg>
