<?xml version="1.0" standalone="no"?>
<!DOCTYPE svg PUBLIC "-//W3C//DTD SVG 20010904//EN"
 "http://www.w3.org/TR/2001/REC-SVG-20010904/DTD/svg10.dtd">
<svg version="1.0" xmlns="http://www.w3.org/2000/svg"
 width="192.000000pt" height="192.000000pt" viewBox="0 0 192.000000 192.000000"
 preserveAspectRatio="xMidYMid meet">
<metadata>
Created by potrace 1.16, written by Peter Selinger 2001-2019
</metadata>
<g transform="translate(0.000000,192.000000) scale(0.100000,-0.100000)"
fill="#000000" stroke="none">
811 c445 -92 729 -532 635 -987 -62 -301 -295 -546 -601 -630 -91 -26 -329
-26 -420 0 -291 80 -516 305 -596 596 -26 91 -26 329 0 420 120 433 542 692
982 601z"/>
<path d="M1286 1336 c-51 -32 -84 -45 -124 -50 -92 -11 -162 -67 -162 -130 0
-9 -3 -16 -8 -16 -4 0 -102 32 -217 70 -115 39 -217 70 -226 70 -45 0 -23 -62
27 -74 14 -4 24 -12 23 -19 -4 -29 3 -39 35 -52 27 -11 33 -19 29 -35 -4 -16
2 -23 31 -35 24 -10 36 -22 36 -35 0 -11 24 -39 58 -68 l59 -48 -68 -155 c-71
-159 -80 -193 -54 -203 26 -10 39 2 88 82 67 108 82 124 169 176 115 70 155
120 212 268 47 121 49 124 124 194 68 63 75 73 63 88 -7 9 -16 16 -20 16 -3 0
-37 -20 -75 -44z"/>
</g>
</svg>
