<?xml version="1.0" standalone="no"?>
<!DOCTYPE svg PUBLIC "-//W3C//DTD SVG 20010904//EN"
 "http://www.w3.org/TR/2001/REC-SVG-20010904/DTD/svg10.dtd">
<svg version="1.0" xmlns="http://www.w3.org/2000/svg"
 width="192.000000pt" height="192.000000pt" viewBox="0 0 192.000000 192.000000"
 preserveAspectRatio="xMidYMid meet">
<metadata>
Created by potrace 1.16, written by Peter Selinger 2001-2019
</metadata>
<g transform="translate(0.000000,192.000000) scale(0.100000,-0.100000)"
fill="#000000" stroke="none">
811 c445 -92 729 -532 635 -987 -62 -301 -295 -546 -601 -630 -91 -26 -329
-26 -420 0 -291 80 -516 305 -596 596 -26 91 -26 329 0 420 120 433 542 692
982 601z"/>
<path d="M861 1358 c-19 -7 -55 -32 -80 -56 -25 -24 -62 -50 -81 -58 -95 -40
-154 -155 -129 -249 6 -22 12 -76 13 -120 1 -68 5 -87 29 -128 34 -58 99 -102
162 -111 24 -4 47 -12 51 -18 13 -21 110 -58 154 -58 58 0 138 38 176 82 16
20 48 45 71 56 97 50 148 172 109 265 -8 20 -11 54 -8 89 2 31 -1 72 -8 93
-24 73 -122 154 -187 155 -12 0 -44 14 -71 31 -57 35 -143 46 -201 27z m155
-83 c64 -42 84 -142 42 -205 -31 -46 -48 -49 -48 -11 0 72 -57 153 -131 186
-35 16 -37 19 -22 30 41 28 116 28 159 0z m188 -85 c88 -78 64 -203 -49 -245
-30 -12 -56 -15 -80 -11 l-36 7 45 40 c56 49 79 107 74 183 -1 31 0 56 4 56 4
0 23 -14 42 -30z m-344 -19 c36 -19 64 -57 75 -103 l7 -27 -51 20 c-79 30
-145 22 -215 -26 l-36 -24 0 38 c0 104 124 174 220 122z m5 -177 c12 -5 8 -13
-25 -41 -61 -52 -82 -102 -78 -179 2 -35 1 -64 -1 -64 -17 0 -71 46 -86 73
-23 43 -17 127 11 159 45 50 124 73 179 52z m406 -135 c-30 -101 -140 -143
-229 -88 -22 13 -62 83 -62 107 0 8 12 7 40 -4 60 -24 157 -16 206 18 48 32
62 23 45 -33z m-371 11 c0 -29 25 -86 52 -121 21 -26 89 -69 109 -69 33 0 20
-18 -26 -35 -140 -54 -263 102 -176 224 28 39 41 39 41 1z"/>
</g>
</svg>
