<?xml version="1.0" standalone="no"?>
<!DOCTYPE svg PUBLIC "-//W3C//DTD SVG 20010904//EN"
 "http://www.w3.org/TR/2001/REC-SVG-20010904/DTD/svg10.dtd">
<svg version="1.0" xmlns="http://www.w3.org/2000/svg"
 width="192.000000pt" height="192.000000pt" viewBox="0 0 192.000000 192.000000"
 preserveAspectRatio="xMidYMid meet">
<metadata>
Created by potrace 1.16, written by Peter Selinger 2001-2019
</metadata>
<g transform="translate(0.000000,192.000000) scale(0.100000,-0.100000)"
fill="#000000" stroke="none">
811 c445 -92 729 -532 635 -987 -62 -301 -295 -546 -601 -630 -91 -26 -329
-26 -420 0 -291 80 -516 305 -596 596 -26 91 -26 329 0 420 120 433 542 692
982 601z"/>
<path d="M605 1371 c-3 -5 4 -12 15 -16 29 -9 17 -21 -28 -29 -22 -3 -45 -12
-52 -20 -13 -16 -10 -18 75 -31 22 -4 43 -9 47 -11 3 -2 -14 -33 -38 -69 -53
-80 -74 -147 -74 -235 0 -87 21 -154 71 -229 113 -170 339 -229 524 -137 206
102 288 344 185 552 -84 172 -303 265 -487 206 l-62 -20 -47 24 c-48 24 -118
32 -129 15z m236 -309 c33 -27 30 -78 -6 -109 -47 -41 -115 -9 -115 54 0 64
70 96 121 55z m344 -7 c14 -13 25 -31 25 -39 0 -30 -23 -65 -49 -76 -73 -30
-134 59 -79 117 29 31 72 30 103 -2z m-154 -242 l40 -38 -38 -36 c-21 -20 -47
-40 -58 -43 -25 -7 -78 24 -102 60 l-17 27 39 33 c52 46 84 45 136 -3z"/>
</g>
</svg>
