<?xml version="1.0" standalone="no"?>
<!DOCTYPE svg PUBLIC "-//W3C//DTD SVG 20010904//EN"
 "http://www.w3.org/TR/2001/REC-SVG-20010904/DTD/svg10.dtd">
<svg version="1.0" xmlns="http://www.w3.org/2000/svg"
 width="192.000000pt" height="192.000000pt" viewBox="0 0 192.000000 192.000000"
 preserveAspectRatio="xMidYMid meet">
<metadata>
Created by potrace 1.16, written by Peter Selinger 2001-2019
</metadata>
<g transform="translate(0.000000,192.000000) scale(0.100000,-0.100000)"
fill="#000000" stroke="none">
811 c445 -92 729 -532 635 -987 -62 -301 -295 -546 -601 -630 -91 -26 -329
-26 -420 0 -291 80 -516 305 -596 596 -26 91 -26 329 0 420 120 433 542 692
982 601z"/>
<path d="M653 1194 c-54 -20 -107 -81 -122 -139 -15 -58 -14 -148 1 -199 34
-111 164 -163 307 -120 61 18 82 47 62 90 -10 23 -16 25 -49 21 -20 -3 -53 -9
-72 -14 -81 -21 -130 28 -130 131 0 100 50 156 126 142 47 -9 72 -44 114 -159
45 -125 75 -168 138 -198 62 -30 179 -37 254 -15 76 22 108 60 108 127 0 93
-34 127 -159 159 -70 17 -93 38 -75 67 18 30 72 29 104 -2 37 -35 88 -32 109
7 14 25 14 29 -5 55 -33 45 -70 58 -161 58 -67 0 -87 -4 -109 -21 -67 -50 -89
-121 -57 -184 22 -43 65 -68 148 -87 70 -16 95 -35 79 -61 -15 -23 -61 -33
-114 -26 -67 10 -100 49 -138 163 -56 166 -107 212 -242 218 -50 2 -89 -3
-117 -13z"/>
</g>
</svg>
