<?xml version="1.0" standalone="no"?>
<!DOCTYPE svg PUBLIC "-//W3C//DTD SVG 20010904//EN"
 "http://www.w3.org/TR/2001/REC-SVG-20010904/DTD/svg10.dtd">
<svg version="1.0" xmlns="http://www.w3.org/2000/svg"
 width="192.000000pt" height="192.000000pt" viewBox="0 0 192.000000 192.000000"
 preserveAspectRatio="xMidYMid meet">
<metadata>
Created by potrace 1.16, written by Peter Selinger 2001-2019
</metadata>
<g transform="translate(0.000000,192.000000) scale(0.100000,-0.100000)"
fill="#000000" stroke="none">
811 c445 -92 729 -532 635 -987 -62 -301 -295 -546 -601 -630 -91 -26 -329
-26 -420 0 -291 80 -516 305 -596 596 -26 91 -26 329 0 420 120 433 542 692
982 601z"/>
<path d="M769 1343 c-15 -4 -31 -27 -42 -64 -3 -9 -18 -19 -35 -22 -24 -5 -33
-16 -55 -65 -27 -60 -35 -116 -18 -127 6 -3 10 -22 9 -43 0 -20 10 -74 22
-118 l21 -81 -25 -38 c-14 -21 -26 -44 -26 -52 0 -7 -9 -31 -20 -53 -29 -58
-27 -61 37 -58 60 3 81 21 38 32 -40 10 -34 27 46 120 15 17 28 39 30 48 4 16
5 16 25 0 19 -16 20 -23 14 -127 -4 -60 -6 -112 -4 -114 2 -2 32 -4 66 -5 46
-1 62 2 60 12 -1 6 3 12 9 12 6 0 8 8 4 20 -3 10 2 34 11 52 l18 33 7 -33 c8
-40 23 -57 39 -47 8 5 6 12 -6 26 -16 18 -15 21 10 59 14 22 26 44 26 50 0 15
42 12 64 -5 11 -8 32 -15 48 -15 25 0 28 -4 28 -32 0 -36 15 -106 24 -115 10
-10 56 8 56 22 0 8 -5 15 -11 15 -18 0 -4 95 26 176 14 38 25 70 25 71 0 2 11
3 25 3 28 0 31 16 10 44 -8 11 -15 33 -15 50 0 28 -1 29 -17 14 -15 -16 -17
-16 -29 0 -11 16 -13 15 -22 -8 -6 -14 -26 -40 -44 -58 l-35 -33 -96 3 c-88 3
-97 1 -120 -20 -14 -13 -32 -43 -41 -67 -17 -44 -54 -75 -41 -35 13 41 7 77
-18 117 -14 23 -31 44 -37 48 -15 9 -12 54 5 71 8 9 15 30 15 49 0 28 3 32 19
28 29 -7 57 12 79 57 24 49 76 79 142 82 43 1 44 2 8 5 -21 2 -38 7 -38 11 0
4 -26 7 -57 8 -32 1 -71 4 -86 9 -21 5 -33 3 -47 -10 -11 -10 -23 -16 -26 -12
-3 3 4 14 15 24 12 9 21 24 21 33 0 24 -61 60 -91 53z m128 -177 c-4 -9 -16
-16 -27 -16 -20 0 -20 1 -4 26 18 27 42 19 31 -10z m21 -458 c-8 -13 -18 -40
-22 -61 -6 -33 -9 -36 -27 -26 -33 17 -22 69 21 95 41 25 48 23 28 -8z"/>
</g>
</svg>
