<?xml version="1.0" standalone="no"?>
<!DOCTYPE svg PUBLIC "-//W3C//DTD SVG 20010904//EN"
 "http://www.w3.org/TR/2001/REC-SVG-20010904/DTD/svg10.dtd">
<svg version="1.0" xmlns="http://www.w3.org/2000/svg"
 width="192.000000pt" height="192.000000pt" viewBox="0 0 192.000000 192.000000"
 preserveAspectRatio="xMidYMid meet">
<metadata>
Created by potrace 1.16, written by Peter Selinger 2001-2019
</metadata>
<g transform="translate(0.000000,192.000000) scale(0.100000,-0.100000)"
fill="#000000" stroke="none">
811 c445 -92 729 -532 635 -987 -62 -301 -295 -546 -601 -630 -91 -26 -329
-26 -420 0 -291 80 -516 305 -596 596 -26 91 -26 329 0 420 120 433 542 692
982 601z"/>
<path d="M1283 1296 l-28 -24 0 -306 c0 -301 0 -306 22 -327 30 -30 80 -30
105 0 17 21 18 47 18 331 l0 309 -26 20 c-35 27 -57 26 -91 -3z"/>
<path d="M536 1029 c-42 -50 -32 -105 25 -135 77 -39 158 42 117 119 -17 34
-39 46 -80 47 -28 0 -42 -7 -62 -31z"/>
<path d="M785 1035 c-52 -51 -23 -136 52 -151 25 -5 37 0 64 24 26 23 33 37
33 67 0 75 -96 114 -149 60z"/>
<path d="M1026 1029 c-30 -35 -32 -58 -11 -98 29 -56 106 -63 145 -14 71 91
-60 200 -134 112z"/>
</g>
</svg>
