<?xml version="1.0" standalone="no"?>
<!DOCTYPE svg PUBLIC "-//W3C//DTD SVG 20010904//EN"
 "http://www.w3.org/TR/2001/REC-SVG-20010904/DTD/svg10.dtd">
<svg version="1.0" xmlns="http://www.w3.org/2000/svg"
 width="192.000000pt" height="192.000000pt" viewBox="0 0 192.000000 192.000000"
 preserveAspectRatio="xMidYMid meet">
<metadata>
Created by potrace 1.16, written by Peter Selinger 2001-2019
</metadata>
<g transform="translate(0.000000,192.000000) scale(0.100000,-0.100000)"
fill="#000000" stroke="none">
811 c445 -92 729 -532 635 -987 -62 -301 -295 -546 -601 -630 -91 -26 -329
-26 -420 0 -291 80 -516 305 -596 596 -26 91 -26 329 0 420 120 433 542 692
982 601z"/>
<path d="M760 1324 c-74 -26 -143 -54 -153 -63 -17 -14 -18 -32 -15 -221 3
-189 5 -208 25 -246 53 -98 226 -222 324 -232 44 -4 60 0 125 33 86 44 195
139 227 199 20 38 22 58 25 246 3 189 2 207 -15 221 -10 9 -79 37 -154 63
-179 61 -210 61 -389 0z m425 -359 c0 -120 0 -120 -24 -123 -40 -6 -51 21 -51
121 0 104 10 130 48 125 l27 -3 0 -120z m-382 24 c19 -27 10 -58 -19 -65 -48
-12 -75 18 -56 62 14 30 55 32 75 3z m125 9 c7 -7 12 -21 12 -33 0 -12 -5 -26
-12 -33 -28 -28 -78 -7 -78 33 0 40 50 61 78 33z m130 0 c7 -7 12 -21 12 -33
0 -12 -5 -26 -12 -33 -28 -28 -78 -7 -78 33 0 40 50 61 78 33z"/>
</g>
</svg>
