<?xml version="1.0" standalone="no"?>
<!DOCTYPE svg PUBLIC "-//W3C//DTD SVG 20010904//EN"
 "http://www.w3.org/TR/2001/REC-SVG-20010904/DTD/svg10.dtd">
<svg version="1.0" xmlns="http://www.w3.org/2000/svg"
 width="192.000000pt" height="192.000000pt" viewBox="0 0 192.000000 192.000000"
 preserveAspectRatio="xMidYMid meet">
<metadata>
Created by potrace 1.16, written by Peter Selinger 2001-2019
</metadata>
<g transform="translate(0.000000,192.000000) scale(0.100000,-0.100000)"
fill="#000000" stroke="none">
811 c445 -92 729 -532 635 -987 -62 -301 -295 -546 -601 -630 -91 -26 -329
-26 -420 0 -291 80 -516 305 -596 596 -26 91 -26 329 0 420 120 433 542 692
982 601z"/>
<path d="M916 1348 c-52 -82 -246 -467 -244 -483 3 -18 12 -20 102 -23 55 -1
106 -8 113 -14 9 -7 13 -42 13 -117 0 -126 12 -154 63 -149 31 3 37 12 154
238 68 129 122 244 120 255 -2 18 -11 20 -105 25 -76 4 -105 9 -112 20 -5 8
-10 67 -10 131 0 76 -4 119 -12 127 -20 20 -66 14 -82 -10z"/>
</g>
</svg>
