<?xml version="1.0" standalone="no"?>
<!DOCTYPE svg PUBLIC "-//W3C//DTD SVG 20010904//EN"
 "http://www.w3.org/TR/2001/REC-SVG-20010904/DTD/svg10.dtd">
<svg version="1.0" xmlns="http://www.w3.org/2000/svg"
 width="192.000000pt" height="192.000000pt" viewBox="0 0 192.000000 192.000000"
 preserveAspectRatio="xMidYMid meet">
<metadata>
Created by potrace 1.16, written by Peter Selinger 2001-2019
</metadata>
<g transform="translate(0.000000,192.000000) scale(0.100000,-0.100000)"
fill="#000000" stroke="none">
811 c445 -92 729 -532 635 -987 -62 -301 -295 -546 -601 -630 -91 -26 -329
-26 -420 0 -291 80 -516 305 -596 596 -26 91 -26 329 0 420 120 433 542 692
982 601z"/>
<path d="M645 1365 c-108 -39 -136 -178 -50 -254 43 -37 72 -45 133 -37 l47 6
149 -149 c144 -144 149 -150 125 -159 -13 -6 -64 -26 -113 -46 -49 -20 -91
-34 -94 -32 -2 3 15 36 38 75 46 77 50 114 12 119 -13 2 -29 -2 -37 -8 -20
-16 -165 -264 -165 -281 0 -20 20 -39 40 -39 8 0 100 34 203 75 103 41 193 75
200 75 7 0 42 -30 77 -66 78 -79 93 -88 120 -74 35 19 24 51 -42 117 l-62 62
50 21 c73 30 79 35 82 64 5 44 -28 48 -120 13 l-79 -30 -165 164 c-112 112
-162 169 -158 179 17 42 14 87 -8 130 -37 71 -110 101 -183 75z"/>
</g>
</svg>
