<?xml version="1.0" standalone="no"?>
<!DOCTYPE svg PUBLIC "-//W3C//DTD SVG 20010904//EN"
 "http://www.w3.org/TR/2001/REC-SVG-20010904/DTD/svg10.dtd">
<svg version="1.0" xmlns="http://www.w3.org/2000/svg"
 width="192.000000pt" height="192.000000pt" viewBox="0 0 192.000000 192.000000"
 preserveAspectRatio="xMidYMid meet">
<metadata>
Created by potrace 1.16, written by Peter Selinger 2001-2019
</metadata>
<g transform="translate(0.000000,192.000000) scale(0.100000,-0.100000)"
fill="#000000" stroke="none">
811 c445 -92 729 -532 635 -987 -62 -301 -295 -546 -601 -630 -91 -26 -329
-26 -420 0 -291 80 -516 305 -596 596 -26 91 -26 329 0 420 120 433 542 692
982 601z"/>
<path d="M635 1337 c-113 -64 -113 -240 0 -304 120 -68 265 15 265 152 0 137
-145 220 -265 152z"/>
<path d="M1108 1311 c-18 -21 -54 -75 -81 -118 -44 -73 -47 -81 -36 -111 6
-18 19 -37 29 -42 10 -6 82 -10 159 -10 128 0 143 2 161 20 35 35 26 75 -42
178 -34 51 -71 100 -82 108 -37 25 -71 17 -108 -25z"/>
<path d="M614 914 c-12 -3 -30 -14 -40 -26 -16 -17 -19 -37 -19 -145 0 -165
-2 -163 171 -163 167 0 164 -3 164 164 0 169 -1 170 -146 172 -60 1 -119 0
-130 -2z"/>
<path d="M1092 899 c-109 -54 -131 -193 -43 -280 88 -88 227 -66 280 43 26 54
26 100 2 153 -22 48 -44 69 -94 90 -50 21 -94 19 -145 -6z"/>
</g>
</svg>
