<?xml version="1.0" standalone="no"?>
<!DOCTYPE svg PUBLIC "-//W3C//DTD SVG 20010904//EN"
 "http://www.w3.org/TR/2001/REC-SVG-20010904/DTD/svg10.dtd">
<svg version="1.0" xmlns="http://www.w3.org/2000/svg"
 width="192.000000pt" height="192.000000pt" viewBox="0 0 192.000000 192.000000"
 preserveAspectRatio="xMidYMid meet">
<metadata>
Created by potrace 1.16, written by Peter Selinger 2001-2019
</metadata>
<g transform="translate(0.000000,192.000000) scale(0.100000,-0.100000)"
fill="#000000" stroke="none">
811 c445 -92 729 -532 635 -987 -62 -301 -295 -546 -601 -630 -91 -26 -329
-26 -420 0 -291 80 -516 305 -596 596 -26 91 -26 329 0 420 120 433 542 692
982 601z"/>
<path d="M635 1284 c-98 -58 -95 -49 -95 -260 0 -111 4 -192 11 -207 14 -30
275 -181 342 -198 26 -6 69 -9 94 -5 75 10 348 162 370 206 16 31 18 328 3
381 -8 30 -22 44 -71 73 -92 55 -98 55 -191 1 -125 -73 -168 -73 -289 0 -41
25 -83 45 -94 44 -11 0 -47 -16 -80 -35z m103 -281 l3 -92 42 -3 c34 -2 42 -7
42 -23 0 -17 -8 -20 -59 -23 -41 -2 -62 1 -67 10 -10 15 -12 189 -3 213 4 9
14 15 23 13 13 -3 17 -20 19 -95z m232 47 c9 -6 17 -5 21 2 4 6 14 8 23 5 13
-5 16 -23 16 -96 0 -89 -9 -113 -33 -92 -8 6 -18 6 -27 1 -28 -18 -80 -11
-105 14 -45 45 -45 107 0 152 25 25 77 32 105 14z m238 -11 c2 -9 -20 -43 -47
-75 l-51 -59 51 -3 c41 -3 50 -6 47 -20 -3 -14 -17 -18 -76 -20 -96 -4 -100 8
-33 91 l51 62 -42 3 c-47 4 -64 14 -53 32 4 7 33 10 78 8 57 -2 72 -6 75 -19z"/>
<path d="M892 1008 c-7 -7 -12 -28 -12 -48 0 -20 5 -41 12 -48 17 -17 64 -15
82 4 20 20 20 68 0 88 -18 19 -65 21 -82 4z"/>
</g>
</svg>
