<?xml version="1.0" standalone="no"?>
<!DOCTYPE svg PUBLIC "-//W3C//DTD SVG 20010904//EN"
 "http://www.w3.org/TR/2001/REC-SVG-20010904/DTD/svg10.dtd">
<svg version="1.0" xmlns="http://www.w3.org/2000/svg"
 width="192.000000pt" height="192.000000pt" viewBox="0 0 192.000000 192.000000"
 preserveAspectRatio="xMidYMid meet">
<metadata>
Created by potrace 1.16, written by Peter Selinger 2001-2019
</metadata>
<g transform="translate(0.000000,192.000000) scale(0.100000,-0.100000)"
fill="#000000" stroke="none">
810 c245 -63 441 -223 549 -451 55 -116 75 -212 75 -354 0 -141 -20 -238 -75
-352 -86 -182 -215 -312 -396 -398 -116 -55 -212 -75 -354 -75 -142 0 -238 20
-354 75 -228 108 -388 304 -451 549 -28 110 -28 292 0 402 76 298 303 526 600
603 106 28 298 28 406 1z"/>
<path d="M526 1104 c-3 -9 -6 -75 -6 -149 0 -145 5 -159 57 -153 l28 3 3 158
3 157 -40 0 c-26 0 -41 -5 -45 -16z"/>
<path d="M662 963 l3 -158 40 0 c39 0 40 1 43 36 3 35 5 37 45 42 62 8 77 33
77 123 0 103 -12 114 -125 114 l-86 0 3 -157z m118 42 c0 -24 -5 -35 -15 -35
-10 0 -15 11 -15 35 0 24 5 35 15 35 10 0 15 -11 15 -35z"/>
<path d="M900 1080 c0 -38 2 -40 30 -40 l29 0 3 -117 3 -118 40 0 40 0 3 118
3 117 29 0 c28 0 30 2 30 40 l0 40 -105 0 -105 0 0 -40z"/>
<path d="M1130 1116 c0 -15 62 -275 70 -293 8 -19 17 -23 54 -23 24 0 48 6 54
13 9 11 72 269 72 296 0 6 -18 11 -44 11 l-44 0 -16 -87 c-9 -47 -18 -88 -19
-90 -2 -2 -9 30 -16 69 -19 112 -17 108 -67 108 -24 0 -44 -2 -44 -4z"/>
</g>
</svg>
