<?xml version="1.0" standalone="no"?>
<!DOCTYPE svg PUBLIC "-//W3C//DTD SVG 20010904//EN"
 "http://www.w3.org/TR/2001/REC-SVG-20010904/DTD/svg10.dtd">
<svg version="1.0" xmlns="http://www.w3.org/2000/svg"
 width="192.000000pt" height="192.000000pt" viewBox="0 0 192.000000 192.000000"
 preserveAspectRatio="xMidYMid meet">
<metadata>
Created by potrace 1.16, written by Peter Selinger 2001-2019
</metadata>
<g transform="translate(0.000000,192.000000) scale(0.100000,-0.100000)"
fill="#000000" stroke="none">
811 c445 -92 729 -532 635 -987 -62 -301 -295 -546 -601 -630 -91 -26 -329
-26 -420 0 -291 80 -516 305 -596 596 -26 91 -26 329 0 420 120 433 542 692
982 601z"/>
<path d="M587 1313 c-13 -12 -8 -178 6 -195 10 -13 80 -44 296 -135 l35 -15
-156 -67 c-85 -36 -163 -72 -172 -80 -14 -12 -16 -30 -14 -110 3 -90 4 -96 25
-99 12 -2 44 8 72 22 61 31 59 31 63 4 2 -13 11 -24 22 -26 22 -5 535 233 554
256 7 10 12 48 12 102 0 70 -3 90 -17 102 -30 26 -527 249 -547 246 -11 -2
-23 -13 -26 -25 l-5 -23 -53 25 c-54 25 -83 31 -95 18z"/>
</g>
</svg>
