<?xml version="1.0" standalone="no"?>
<!DOCTYPE svg PUBLIC "-//W3C//DTD SVG 20010904//EN"
 "http://www.w3.org/TR/2001/REC-SVG-20010904/DTD/svg10.dtd">
<svg version="1.0" xmlns="http://www.w3.org/2000/svg"
 width="192.000000pt" height="192.000000pt" viewBox="0 0 192.000000 192.000000"
 preserveAspectRatio="xMidYMid meet">
<metadata>
Created by potrace 1.16, written by Peter Selinger 2001-2019
</metadata>
<g transform="translate(0.000000,192.000000) scale(0.100000,-0.100000)"
fill="#000000" stroke="none">
811 c445 -92 729 -532 635 -987 -62 -301 -295 -546 -601 -630 -91 -26 -329
-26 -420 0 -291 80 -516 305 -596 596 -26 91 -26 329 0 420 120 433 542 692
982 601z"/>
<path d="M835 1353 c-118 -43 -200 -114 -252 -222 -25 -51 -28 -66 -28 -166 0
-98 3 -116 27 -167 95 -204 340 -295 541 -201 91 43 150 100 195 191 35 73 37
81 37 176 0 93 -3 107 -32 168 -41 87 -114 160 -199 200 -85 40 -211 49 -289
21z m263 -93 c205 -103 250 -362 90 -526 -48 -50 -106 -80 -182 -95 -72 -15
-170 7 -239 54 -83 56 -147 176 -147 275 0 34 23 120 40 151 26 50 97 115 155
142 51 25 73 29 141 29 70 0 89 -4 142 -30z"/>
<path d="M1048 1196 c-10 -7 -18 -23 -18 -34 0 -16 -29 -41 -109 -97 -60 -41
-112 -82 -115 -91 -11 -29 -6 -72 10 -89 14 -14 19 -14 38 -2 11 8 22 26 24
39 2 20 28 42 113 99 l110 74 -3 55 c-3 59 -17 72 -50 46z"/>
<path d="M1042 1038 c-7 -7 -12 -22 -12 -34 0 -16 -26 -39 -109 -94 -60 -39
-112 -78 -115 -87 -11 -28 -6 -81 9 -93 22 -19 63 5 67 38 2 20 27 42 111 100
l107 73 0 55 c0 50 -2 54 -23 54 -13 0 -28 -5 -35 -12z"/>
</g>
</svg>
