<?xml version="1.0" standalone="no"?>
<!DOCTYPE svg PUBLIC "-//W3C//DTD SVG 20010904//EN"
 "http://www.w3.org/TR/2001/REC-SVG-20010904/DTD/svg10.dtd">
<svg version="1.0" xmlns="http://www.w3.org/2000/svg"
 width="192.000000pt" height="192.000000pt" viewBox="0 0 192.000000 192.000000"
 preserveAspectRatio="xMidYMid meet">
<metadata>
Created by potrace 1.16, written by Peter Selinger 2001-2019
</metadata>
<g transform="translate(0.000000,192.000000) scale(0.100000,-0.100000)"
fill="#000000" stroke="none">
811 c445 -92 729 -532 635 -987 -62 -301 -295 -546 -601 -630 -91 -26 -329
-26 -420 0 -291 80 -516 305 -596 596 -26 91 -26 329 0 420 120 433 542 692
982 601z"/>
<path d="M935 1371 c-77 -20 -152 -87 -176 -157 -17 -50 -17 -148 0 -196 14
-42 31 -50 31 -15 0 27 40 114 72 157 31 42 106 97 158 115 24 8 71 16 106 17
35 1 64 5 64 9 0 4 -28 21 -62 38 -67 32 -143 45 -193 32z"/>
<path d="M734 1311 c-57 -33 -110 -89 -130 -137 -37 -87 -2 -210 79 -280 44
-37 157 -100 157 -87 0 5 -15 29 -34 56 -60 85 -80 142 -80 237 -1 78 2 91 36
163 20 42 34 77 30 77 -4 0 -30 -13 -58 -29z"/>
<path d="M1094 1258 c-28 -4 -71 -16 -96 -27 -49 -21 -121 -78 -113 -91 2 -4
28 -1 57 7 77 21 174 12 242 -21 61 -30 102 -73 143 -153 16 -29 32 -53 37
-53 20 0 -4 154 -33 216 -48 102 -120 139 -237 122z"/>
<path d="M1080 1135 c0 -4 12 -21 26 -38 38 -45 80 -135 94 -200 19 -96 -1
-172 -71 -265 -23 -29 -39 -55 -37 -58 10 -9 112 51 154 92 116 113 116 257 0
376 -49 51 -166 116 -166 93z"/>
<path d="M890 1098 c-99 -67 -109 -187 -20 -261 122 -103 307 39 242 185 -26
59 -71 90 -136 96 -41 3 -58 -1 -86 -20z m30 -99 c0 -16 -4 -19 -20 -14 -11 4
-20 2 -20 -4 0 -6 9 -11 20 -11 16 0 20 -7 20 -30 0 -27 -3 -30 -30 -30 -21 0
-30 5 -30 16 0 11 6 14 20 9 11 -4 20 -2 20 4 0 6 -9 11 -20 11 -15 0 -20 7
-20 28 0 35 6 42 37 42 17 0 23 -6 23 -21z m78 -41 c3 -60 2 -62 -35 -52 -20
6 -23 13 -23 61 0 53 0 54 28 51 26 -3 27 -6 30 -60z m42 11 c0 -32 3 -39 20
-39 11 0 20 -4 20 -10 0 -5 -13 -10 -30 -10 -30 0 -30 0 -30 56 0 34 4 53 10
49 6 -3 10 -24 10 -46z"/>
<path d="M960 960 c0 -16 5 -30 10 -30 6 0 10 14 10 30 0 17 -4 30 -10 30 -5
0 -10 -13 -10 -30z"/>
<path d="M544 985 c-8 -54 1 -104 27 -165 50 -114 161 -168 291 -141 54 12
158 66 165 86 2 6 -36 10 -100 10 -88 1 -109 4 -158 27 -77 35 -131 87 -171
163 -18 36 -36 65 -40 65 -4 0 -10 -20 -14 -45z"/>
<path d="M1130 858 c-45 -78 -125 -150 -198 -180 -47 -19 -74 -22 -157 -21
l-100 1 30 -25 c46 -37 94 -60 158 -73 169 -35 306 81 316 267 2 41 -1 78 -5
83 -5 5 -25 -19 -44 -52z"/>
</g>
</svg>
