<?xml version="1.0" standalone="no"?>
<!DOCTYPE svg PUBLIC "-//W3C//DTD SVG 20010904//EN"
 "http://www.w3.org/TR/2001/REC-SVG-20010904/DTD/svg10.dtd">
<svg version="1.0" xmlns="http://www.w3.org/2000/svg"
 width="192.000000pt" height="192.000000pt" viewBox="0 0 192.000000 192.000000"
 preserveAspectRatio="xMidYMid meet">
<metadata>
Created by potrace 1.16, written by Peter Selinger 2001-2019
</metadata>
<g transform="translate(0.000000,192.000000) scale(0.100000,-0.100000)"
fill="#000000" stroke="none">
811 c445 -92 729 -532 635 -987 -62 -301 -295 -546 -601 -630 -91 -26 -329
-26 -420 0 -291 80 -516 305 -596 596 -26 91 -26 329 0 420 120 433 542 692
982 601z"/>
<path d="M935 1371 c-77 -20 -152 -87 -176 -157 -17 -50 -17 -148 0 -196 14
-42 31 -50 31 -15 0 27 40 114 72 157 31 42 106 97 159 115 23 9 71 16 106 16
34 1 63 5 63 9 0 5 -28 22 -62 39 -67 32 -143 45 -193 32z"/>
<path d="M734 1311 c-57 -33 -110 -89 -130 -137 -37 -87 -2 -210 79 -280 45
-38 157 -100 157 -86 0 4 -12 24 -26 43 -15 19 -40 63 -57 99 -27 56 -31 77
-31 150 -1 78 2 91 36 163 20 42 34 77 30 77 -4 0 -30 -13 -58 -29z"/>
<path d="M1021 1240 c-29 -11 -60 -25 -70 -32 -38 -28 -70 -62 -66 -68 2 -4
28 -1 57 7 77 21 174 12 242 -21 61 -30 102 -73 143 -153 16 -29 31 -53 36
-53 11 0 9 72 -4 132 -17 79 -54 144 -101 178 -37 27 -49 30 -112 30 -44 -1
-91 -8 -125 -20z"/>
<path d="M1080 1135 c0 -4 12 -21 26 -38 38 -45 80 -135 94 -200 19 -96 -1
-172 -71 -265 -23 -29 -39 -55 -37 -58 10 -9 112 51 154 92 116 113 116 257 0
376 -49 51 -166 116 -166 93z"/>
<path d="M905 1098 c-102 -56 -121 -170 -41 -248 45 -43 120 -52 176 -22 38
20 80 89 80 132 0 43 -42 112 -80 132 -39 20 -104 23 -135 6z m60 -118 c15
-14 37 -23 56 -23 29 0 30 -2 13 -14 -25 -18 -47 -16 -78 8 -20 16 -26 28 -25
57 1 21 4 28 6 16 2 -12 15 -32 28 -44z m25 50 c0 -6 15 -18 33 -26 l32 -14
-29 2 c-28 3 -72 48 -47 48 6 0 11 -5 11 -10z m-100 -46 c0 -15 12 -38 29 -55
28 -28 48 -34 101 -29 21 2 22 0 11 -14 -23 -28 -85 -20 -126 15 -29 26 -35
38 -35 70 0 21 5 39 10 39 6 0 10 -12 10 -26z"/>
<path d="M544 985 c-8 -54 1 -104 27 -165 50 -114 161 -168 291 -141 54 12
158 66 165 86 2 6 -36 10 -100 10 -88 1 -109 4 -158 27 -77 35 -131 87 -171
163 -18 36 -36 65 -40 65 -4 0 -10 -20 -14 -45z"/>
<path d="M1130 858 c-45 -78 -125 -150 -198 -180 -47 -19 -74 -22 -157 -21
l-100 1 30 -25 c46 -37 94 -60 158 -73 169 -35 306 81 316 267 2 41 -1 78 -5
83 -5 5 -25 -19 -44 -52z"/>
</g>
</svg>
