<?xml version="1.0" standalone="no"?>
<!DOCTYPE svg PUBLIC "-//W3C//DTD SVG 20010904//EN"
 "http://www.w3.org/TR/2001/REC-SVG-20010904/DTD/svg10.dtd">
<svg version="1.0" xmlns="http://www.w3.org/2000/svg"
 width="192.000000pt" height="192.000000pt" viewBox="0 0 192.000000 192.000000"
 preserveAspectRatio="xMidYMid meet">
<metadata>
Created by potrace 1.16, written by Peter Selinger 2001-2019
</metadata>
<g transform="translate(0.000000,192.000000) scale(0.100000,-0.100000)"
fill="#000000" stroke="none">
811 c445 -92 729 -532 635 -987 -62 -301 -295 -546 -601 -630 -91 -26 -329
-26 -420 0 -291 80 -516 305 -596 596 -26 91 -26 329 0 420 120 433 542 692
982 601z"/>
<path d="M935 1371 c-77 -20 -152 -87 -176 -157 -17 -50 -17 -148 0 -196 14
-42 31 -50 31 -15 0 27 40 114 72 157 31 42 106 97 158 115 24 8 71 16 106 17
35 1 64 5 64 9 0 4 -28 21 -62 38 -67 32 -143 45 -193 32z"/>
<path d="M734 1311 c-57 -33 -110 -89 -130 -137 -37 -87 -2 -210 79 -280 44
-37 157 -100 157 -87 0 5 -15 29 -34 56 -60 85 -80 142 -80 237 -1 78 2 91 36
163 20 42 34 77 30 77 -4 0 -30 -13 -58 -29z"/>
<path d="M1094 1258 c-28 -4 -71 -16 -96 -27 -49 -21 -121 -78 -113 -91 2 -4
28 -1 57 7 77 21 174 12 242 -21 61 -30 102 -73 143 -153 16 -29 32 -53 37
-53 20 0 -4 154 -33 216 -48 102 -120 139 -237 122z"/>
<path d="M1080 1135 c0 -4 12 -21 26 -38 38 -45 80 -135 94 -200 19 -96 -1
-172 -71 -265 -23 -29 -39 -55 -37 -58 10 -9 112 51 154 92 116 113 116 257 0
376 -49 51 -166 116 -166 93z"/>
<path d="M892 1091 c-47 -30 -72 -77 -72 -136 0 -166 224 -211 291 -59 28 63
19 114 -31 167 -34 37 -42 41 -96 44 -47 3 -66 0 -92 -16z m-22 -121 c5 0 11
8 13 18 3 9 5 -3 5 -28 0 -25 -2 -37 -5 -27 -2 9 -8 17 -13 17 -5 0 -11 -8
-13 -17 -3 -10 -5 2 -5 27 0 25 2 37 5 28 2 -10 8 -18 13 -18z m80 20 c0 -5
-4 -10 -10 -10 -5 0 -11 -15 -12 -32 l-1 -33 -4 33 c-2 17 -8 32 -14 32 -5 0
-9 5 -9 10 0 6 11 10 25 10 14 0 25 -4 25 -10z m90 -30 c0 -48 -19 -54 -22 -7
l-1 32 -4 -32 c-2 -18 -8 -33 -14 -33 -5 0 -10 15 -11 33 l-1 32 -4 -32 c-6
-47 -23 -41 -23 7 l0 40 40 0 40 0 0 -40z m45 -31 c17 -7 16 -8 -7 -8 -26 -1
-28 1 -27 42 2 41 2 42 8 8 4 -21 14 -37 26 -42z"/>
<path d="M544 985 c-8 -54 1 -104 27 -165 50 -114 161 -168 291 -141 54 12
158 66 165 86 2 6 -36 10 -100 10 -88 1 -109 4 -158 27 -77 35 -131 87 -171
163 -18 36 -36 65 -40 65 -4 0 -10 -20 -14 -45z"/>
<path d="M1130 858 c-45 -78 -125 -150 -198 -180 -47 -19 -74 -22 -157 -21
l-100 1 30 -25 c46 -37 94 -60 158 -73 169 -35 306 81 316 267 2 41 -1 78 -5
83 -5 5 -25 -19 -44 -52z"/>
</g>
</svg>
