<?xml version="1.0" standalone="no"?>
<!DOCTYPE svg PUBLIC "-//W3C//DTD SVG 20010904//EN"
 "http://www.w3.org/TR/2001/REC-SVG-20010904/DTD/svg10.dtd">
<svg version="1.0" xmlns="http://www.w3.org/2000/svg"
 width="192.000000pt" height="192.000000pt" viewBox="0 0 192.000000 192.000000"
 preserveAspectRatio="xMidYMid meet">
<metadata>
Created by potrace 1.16, written by Peter Selinger 2001-2019
</metadata>
<g transform="translate(0.000000,192.000000) scale(0.100000,-0.100000)"
fill="#000000" stroke="none">
811 c445 -92 729 -532 635 -987 -62 -301 -295 -546 -601 -630 -91 -26 -329
-26 -420 0 -291 80 -516 305 -596 596 -26 91 -26 329 0 420 120 433 542 692
982 601z"/>
<path d="M935 1371 c-77 -20 -152 -87 -176 -157 -17 -50 -17 -148 0 -196 14
-42 31 -50 31 -15 0 27 40 114 72 157 31 42 106 97 158 115 24 8 71 16 106 17
35 1 64 5 64 9 0 4 -28 21 -62 38 -67 32 -143 45 -193 32z"/>
<path d="M734 1311 c-57 -33 -110 -89 -130 -137 -37 -87 -2 -210 79 -280 44
-37 157 -100 157 -87 0 5 -15 29 -34 56 -60 85 -80 142 -80 237 -1 78 2 91 36
163 20 42 34 77 30 77 -4 0 -30 -13 -58 -29z"/>
<path d="M1094 1258 c-28 -4 -71 -16 -96 -27 -49 -21 -121 -78 -113 -91 2 -4
28 -1 57 7 77 21 174 12 242 -21 61 -30 102 -73 143 -153 16 -29 32 -53 37
-53 20 0 -4 154 -33 216 -48 102 -120 139 -237 122z"/>
<path d="M1080 1135 c0 -4 12 -21 26 -38 38 -45 80 -135 94 -200 19 -96 -1
-172 -71 -265 -23 -29 -39 -55 -37 -58 10 -9 112 51 154 92 116 113 116 257 0
376 -49 51 -166 116 -166 93z"/>
<path d="M915 1106 c-96 -43 -123 -163 -54 -241 80 -91 224 -56 259 62 26 85
-38 177 -131 188 -27 3 -56 0 -74 -9z m-15 -141 c0 -28 -4 -35 -20 -35 -11 0
-20 4 -20 10 0 5 7 7 15 4 11 -5 15 1 15 25 0 17 2 31 5 31 3 0 5 -16 5 -35z
m60 0 c0 -35 -19 -51 -21 -17 -1 16 -2 16 -6 0 -8 -31 -23 -19 -23 17 0 31 3
35 25 35 22 0 25 -4 25 -35z m31 13 c0 -23 0 -23 10 1 13 32 23 20 14 -18 -8
-38 -22 -40 -35 -5 -13 32 -13 44 0 44 6 0 10 -10 11 -22z m89 -13 c0 -35 -19
-51 -21 -17 -1 16 -2 16 -6 0 -8 -31 -23 -19 -23 17 0 31 3 35 25 35 22 0 25
-4 25 -35z"/>
<path d="M544 985 c-8 -54 1 -104 27 -165 50 -114 161 -168 291 -141 54 12
158 66 165 86 2 6 -36 10 -100 10 -88 1 -109 4 -158 27 -77 35 -131 87 -171
163 -18 36 -36 65 -40 65 -4 0 -10 -20 -14 -45z"/>
<path d="M1130 858 c-45 -78 -125 -150 -198 -180 -47 -19 -74 -22 -157 -21
l-100 1 30 -25 c46 -37 94 -60 158 -73 169 -35 306 81 316 267 2 41 -1 78 -5
83 -5 5 -25 -19 -44 -52z"/>
</g>
</svg>
