<?xml version="1.0" standalone="no"?>
<!DOCTYPE svg PUBLIC "-//W3C//DTD SVG 20010904//EN"
 "http://www.w3.org/TR/2001/REC-SVG-20010904/DTD/svg10.dtd">
<svg version="1.0" xmlns="http://www.w3.org/2000/svg"
 width="192.000000pt" height="192.000000pt" viewBox="0 0 192.000000 192.000000"
 preserveAspectRatio="xMidYMid meet">
<metadata>
Created by potrace 1.16, written by Peter Selinger 2001-2019
</metadata>
<g transform="translate(0.000000,192.000000) scale(0.100000,-0.100000)"
fill="#000000" stroke="none">
811 c445 -92 729 -532 635 -987 -62 -301 -295 -546 -601 -630 -91 -26 -329
-26 -420 0 -291 80 -516 305 -596 596 -26 91 -26 329 0 420 120 433 542 692
982 601z"/>
<path d="M601 1356 c-39 -21 -50 -54 -51 -143 0 -92 9 -125 48 -167 38 -40 81
-56 154 -56 60 0 63 -1 64 -25 2 -24 0 -25 -61 -25 -75 0 -109 -11 -149 -48
-42 -40 -56 -81 -56 -172 0 -134 26 -160 158 -160 152 1 222 67 222 210 0 57
1 60 25 60 24 0 25 -3 25 -60 0 -144 70 -209 223 -210 131 0 157 27 157 160 0
89 -10 123 -48 164 -38 40 -81 56 -157 56 -63 0 -65 1 -65 25 0 24 2 25 65 25
76 0 119 16 157 56 38 41 48 75 48 164 0 133 -26 160 -157 160 -151 -1 -223
-67 -223 -205 0 -52 -1 -55 -25 -55 -24 0 -25 3 -25 58 -1 94 -37 155 -113
187 -46 19 -182 20 -216 1z"/>
</g>
</svg>
