<?xml version="1.0" standalone="no"?>
<!DOCTYPE svg PUBLIC "-//W3C//DTD SVG 20010904//EN"
 "http://www.w3.org/TR/2001/REC-SVG-20010904/DTD/svg10.dtd">
<svg version="1.0" xmlns="http://www.w3.org/2000/svg"
 width="192.000000pt" height="192.000000pt" viewBox="0 0 192.000000 192.000000"
 preserveAspectRatio="xMidYMid meet">
<metadata>
Created by potrace 1.16, written by Peter Selinger 2001-2019
</metadata>
<g transform="translate(0.000000,192.000000) scale(0.100000,-0.100000)"
fill="#000000" stroke="none">
811 c445 -92 729 -532 635 -987 -62 -301 -295 -546 -601 -630 -91 -26 -329
-26 -420 0 -291 80 -516 305 -596 596 -26 91 -26 329 0 420 120 433 542 692
982 601z"/>
<path d="M708 1150 c-20 -4 -48 -14 -62 -23 -14 -9 -40 -17 -59 -17 -18 0 -38
-5 -45 -12 -16 -16 -15 -53 2 -67 8 -7 13 -32 13 -64 0 -110 78 -187 189 -187
107 0 184 81 184 195 0 52 1 55 25 55 24 0 25 -3 25 -55 0 -114 77 -195 184
-195 111 0 189 78 188 186 0 34 5 57 14 65 17 14 18 51 2 67 -7 7 -27 12 -44
12 -18 0 -48 9 -67 20 -57 34 -142 29 -199 -12 -21 -15 -32 -17 -47 -8 -11 5
-36 10 -56 10 -20 0 -45 -5 -56 -10 -15 -9 -26 -7 -48 9 -36 26 -96 39 -143
31z"/>
</g>
</svg>
