<?xml version="1.0" standalone="no"?>
<!DOCTYPE svg PUBLIC "-//W3C//DTD SVG 20010904//EN"
 "http://www.w3.org/TR/2001/REC-SVG-20010904/DTD/svg10.dtd">
<svg version="1.0" xmlns="http://www.w3.org/2000/svg"
 width="192.000000pt" height="192.000000pt" viewBox="0 0 192.000000 192.000000"
 preserveAspectRatio="xMidYMid meet">
<metadata>
Created by potrace 1.16, written by Peter Selinger 2001-2019
</metadata>
<g transform="translate(0.000000,192.000000) scale(0.100000,-0.100000)"
fill="#000000" stroke="none">
811 c445 -92 729 -532 635 -987 -62 -301 -295 -546 -601 -630 -91 -26 -329
-26 -420 0 -291 80 -516 305 -596 596 -26 91 -26 329 0 420 120 433 542 692
982 601z"/>
<path d="M835 1357 c-154 -51 -256 -169 -285 -326 -31 -175 65 -357 229 -435
61 -29 74 -31 176 -31 100 0 115 2 167 28 88 43 152 107 195 195 36 73 38 80
38 177 0 97 -2 104 -38 177 -43 89 -108 152 -195 194 -47 23 -73 28 -152 31
-60 2 -110 -2 -135 -10z m220 -151 c50 -21 106 -77 131 -131 93 -198 -92 -421
-299 -361 -74 21 -127 63 -162 127 -25 45 -30 65 -30 124 0 59 5 79 30 124 65
118 207 168 330 117z"/>
<path d="M871 1065 c-91 -77 -42 -225 76 -225 79 0 133 51 133 125 0 74 -54
125 -133 125 -34 0 -53 -6 -76 -25z"/>
</g>
</svg>
