<?xml version="1.0" standalone="no"?>
<!DOCTYPE svg PUBLIC "-//W3C//DTD SVG 20010904//EN"
 "http://www.w3.org/TR/2001/REC-SVG-20010904/DTD/svg10.dtd">
<svg version="1.0" xmlns="http://www.w3.org/2000/svg"
 width="192.000000pt" height="192.000000pt" viewBox="0 0 192.000000 192.000000"
 preserveAspectRatio="xMidYMid meet">
<metadata>
Created by potrace 1.16, written by Peter Selinger 2001-2019
</metadata>
<g transform="translate(0.000000,192.000000) scale(0.100000,-0.100000)"
fill="#000000" stroke="none">
811 c445 -92 729 -532 635 -987 -62 -301 -295 -546 -601 -630 -91 -26 -329
-26 -420 0 -291 80 -516 305 -596 596 -26 91 -26 329 0 420 120 433 542 692
982 601z"/>
<path d="M917 1338 c-13 -18 -48 -72 -77 -120 l-53 -88 -68 0 c-45 0 -69 -4
-72 -12 -7 -23 11 -80 30 -93 184 -132 238 -174 241 -187 8 -40 -34 -22 -173
78 l-146 104 -34 -14 c-19 -8 -35 -19 -35 -25 0 -22 52 -246 58 -252 11 -10
355 -162 367 -162 12 0 356 152 367 162 10 9 59 243 54 257 -3 7 -30 20 -60
30 -53 17 -55 18 -49 48 3 17 6 33 5 36 0 28 -6 30 -73 30 l-71 0 -77 -60
c-80 -62 -111 -74 -111 -42 0 12 32 43 81 81 44 35 79 66 77 70 -2 4 -29 48
-62 99 -65 103 -81 111 -119 60z"/>
</g>
</svg>
