<?xml version="1.0" standalone="no"?>
<!DOCTYPE svg PUBLIC "-//W3C//DTD SVG 20010904//EN"
 "http://www.w3.org/TR/2001/REC-SVG-20010904/DTD/svg10.dtd">
<svg version="1.0" xmlns="http://www.w3.org/2000/svg"
 width="192.000000pt" height="192.000000pt" viewBox="0 0 192.000000 192.000000"
 preserveAspectRatio="xMidYMid meet">
<metadata>
Created by potrace 1.16, written by Peter Selinger 2001-2019
</metadata>
<g transform="translate(0.000000,192.000000) scale(0.100000,-0.100000)"
fill="#000000" stroke="none">
810 c245 -63 441 -223 549 -451 55 -116 75 -212 75 -354 0 -141 -20 -238 -75
-352 -86 -182 -215 -312 -396 -398 -116 -55 -212 -75 -354 -75 -142 0 -238 20
-354 75 -228 108 -388 304 -451 549 -28 110 -28 292 0 402 76 298 303 526 600
603 106 28 298 28 406 1z"/>
<path d="M691 1346 c-23 -25 -25 -54 -6 -112 5 -16 -1 -31 -23 -56 -39 -43
-49 -80 -28 -101 26 -25 19 -53 -26 -116 -21 -28 -23 -70 -4 -96 14 -20 4 -67
-21 -93 -20 -21 -16 -79 8 -103 19 -19 22 -19 44 -5 30 20 35 20 35 2 0 -7 10
-26 21 -41 18 -23 27 -26 55 -20 27 5 35 2 44 -14 19 -36 43 -42 83 -22 22 11
41 15 49 10 21 -14 35 -11 64 15 l28 23 19 -23 c23 -30 69 -32 97 -4 11 11 20
24 20 30 0 5 13 7 29 4 24 -5 32 -1 46 19 15 23 15 29 2 54 -8 15 -24 36 -36
47 -18 17 -19 21 -6 45 23 43 88 99 120 103 42 4 48 38 7 38 -25 0 -30 5 -41
40 -14 48 -8 62 27 58 21 -2 27 1 27 17 0 15 -8 21 -33 23 -18 2 -40 -2 -48
-9 -12 -10 -20 -8 -41 13 -21 22 -23 29 -13 47 6 12 8 31 5 41 -5 15 2 27 25
47 37 31 35 64 -6 101 -33 29 -52 28 -85 -4 l-27 -26 -43 23 c-60 31 -149 34
-201 8 -30 -15 -38 -16 -38 -6 0 8 -9 26 -21 41 -27 35 -77 36 -108 2z m77
-29 c6 -7 14 -32 18 -55 7 -46 30 -57 51 -24 17 28 81 56 97 43 9 -8 22 -8 38
-2 19 7 32 5 54 -10 27 -17 27 -19 7 -19 -28 0 -40 -20 -21 -34 14 -10 14 -14
-2 -34 l-18 -22 -16 25 c-9 14 -24 25 -34 25 -16 1 -16 1 1 11 9 5 17 17 17
24 0 21 -37 18 -70 -5 -25 -17 -28 -27 -29 -72 0 -69 19 -98 64 -98 26 0 39 6
51 25 l16 25 20 -25 c50 -64 141 5 103 79 -8 15 -15 34 -15 41 0 7 -6 16 -12
18 -7 3 -1 6 15 6 16 1 36 11 49 26 16 19 24 22 35 14 18 -15 16 -34 -4 -50
-15 -13 -15 -12 -5 7 15 28 3 38 -20 18 -14 -13 -15 -20 -7 -31 9 -10 8 -13
-1 -13 -9 0 -11 -11 -6 -39 3 -23 2 -42 -4 -46 -19 -12 -10 -41 25 -75 19 -19
34 -39 34 -44 -3 -25 2 -36 16 -36 8 0 15 -7 15 -15 0 -9 -9 -15 -23 -15 -13
0 -26 -3 -30 -6 -11 -11 5 -34 24 -34 24 0 24 -9 2 -26 -24 -18 -75 -17 -99 1
-18 14 -17 16 30 58 30 27 47 48 42 55 -10 17 -24 15 -53 -8 -33 -26 -67 -25
-103 2 -24 17 -33 19 -42 10 -9 -9 -3 -22 30 -55 49 -49 52 -62 17 -71 -25 -6
-56 4 -85 29 -8 7 -33 18 -56 24 -50 13 -83 46 -66 63 18 18 14 38 -8 38 -21
0 -40 -27 -40 -58 0 -26 49 -67 97 -83 21 -6 51 -21 68 -33 27 -19 61 -24 130
-17 27 2 85 -10 85 -18 -1 -24 -17 -28 -60 -14 -35 12 -51 13 -76 4 -42 -15
-52 -14 -86 10 -16 12 -50 28 -75 35 -25 7 -60 27 -79 44 -34 30 -35 30 -72
14 -20 -9 -43 -18 -49 -21 -19 -7 -26 22 -13 47 8 15 17 19 28 14 9 -3 27 -9
40 -11 32 -7 29 20 -5 45 l-27 20 43 21 c46 24 50 47 6 44 l-28 -2 27 27 c46
49 27 85 -21 40 -13 -12 -26 -18 -30 -14 -4 4 14 26 40 49 26 24 47 47 47 53
0 6 -11 21 -25 34 -27 26 -32 49 -13 68 16 16 33 15 46 -1z m162 -154 c0 -14
-19 -38 -25 -32 -8 8 5 39 16 39 5 0 9 -3 9 -7z m127 -18 c-7 -13 -14 -20 -15
-14 -5 14 6 39 17 39 5 0 4 -11 -2 -25z m-289 -303 c20 -16 56 -34 79 -41 43
-12 67 -31 39 -31 -12 0 -16 -11 -16 -41 0 -33 3 -40 18 -37 12 2 18 14 20 40
3 35 4 36 32 25 20 -7 41 -8 67 -1 28 7 49 6 79 -3 46 -15 113 -67 101 -79 -4
-4 -17 2 -30 14 -35 33 -50 29 -43 -11 8 -44 -14 -77 -41 -61 -10 6 -19 20
-21 32 -2 11 -10 26 -19 33 -13 11 -20 8 -45 -24 -32 -39 -56 -51 -38 -18 14
27 13 51 -3 51 -7 0 -30 -20 -50 -45 -51 -61 -91 -61 -51 0 9 13 13 29 9 35
-10 16 -33 12 -45 -10 -15 -29 -28 -25 -44 15 -9 20 -22 35 -32 35 -13 0 -15
-7 -10 -37 l6 -38 -25 48 c-27 51 -38 56 -67 30 -20 -18 -34 -12 -25 12 4 8
15 15 26 15 27 0 81 47 81 71 0 25 -18 24 -47 -3 -13 -12 -23 -17 -23 -10 0
11 59 62 73 62 5 0 25 -13 45 -28z"/>
<path d="M730 1296 c0 -25 12 -46 26 -46 17 0 18 14 4 41 -12 22 -30 25 -30 5z"/>
<path d="M840 1055 c0 -19 76 -75 102 -75 31 0 20 25 -27 58 -49 35 -75 41
-75 17z"/>
<path d="M840 962 c0 -22 24 -32 83 -32 30 0 37 4 37 20 0 15 -7 20 -29 20
-16 0 -43 3 -60 6 -26 6 -31 4 -31 -14z"/>
<path d="M780 770 c-24 -24 -25 -39 -6 -46 17 -6 56 29 56 51 0 21 -26 19 -50
-5z"/>
<path d="M1023 734 c-7 -19 34 -64 59 -64 26 0 22 22 -10 53 -32 31 -40 33
-49 11z"/>
</g>
</svg>
