<?xml version="1.0" standalone="no"?>
<!DOCTYPE svg PUBLIC "-//W3C//DTD SVG 20010904//EN"
 "http://www.w3.org/TR/2001/REC-SVG-20010904/DTD/svg10.dtd">
<svg version="1.0" xmlns="http://www.w3.org/2000/svg"
 width="192.000000pt" height="192.000000pt" viewBox="0 0 192.000000 192.000000"
 preserveAspectRatio="xMidYMid meet">
<metadata>
Created by potrace 1.16, written by Peter Selinger 2001-2019
</metadata>
<g transform="translate(0.000000,192.000000) scale(0.100000,-0.100000)"
fill="#000000" stroke="none">
811 c445 -92 729 -532 635 -987 -62 -301 -295 -546 -601 -630 -91 -26 -329
-26 -420 0 -291 80 -516 305 -596 596 -26 91 -26 329 0 420 120 433 542 692
982 601z"/>
<path d="M619 1199 c-32 -34 -63 -123 -81 -231 -10 -60 -9 -70 6 -87 25 -27
47 -30 95 -14 33 11 46 12 57 2 21 -17 89 -14 119 5 23 15 26 15 45 -4 22 -22
57 -20 94 6 16 11 23 10 46 -7 l27 -21 -29 -28 c-53 -53 -27 -125 43 -118 40
4 74 47 84 109 4 22 16 49 28 59 19 19 22 19 39 3 24 -21 78 -20 112 3 64 41
93 171 49 216 -27 27 -79 29 -117 5 -34 -23 -66 -86 -68 -137 -1 -23 -5 -43
-10 -46 -12 -7 -10 10 8 104 9 45 15 85 12 87 -2 3 -33 6 -67 7 -61 3 -64 2
-96 -34 -25 -26 -37 -53 -46 -97 -11 -53 -31 -82 -47 -67 -2 3 2 38 9 78 14
69 16 73 44 78 39 7 48 40 10 40 -24 0 -26 3 -23 33 3 30 1 32 -27 32 -25 0
-32 -5 -39 -31 -14 -46 -38 -58 -75 -36 -30 16 -32 16 -68 -3 -43 -23 -78 -79
-88 -141 -6 -40 -25 -61 -46 -48 -18 11 -8 45 31 109 67 110 84 167 58 193
-21 21 -59 13 -89 -19z m37 -81 c-14 -29 -23 -42 -20 -28 11 42 34 93 40 87 3
-3 -6 -30 -20 -59z m136 -85 c-6 -10 -20 -27 -33 -38 l-22 -20 7 30 c9 38 36
69 49 56 5 -5 5 -16 -1 -28z m73 -10 c-9 -59 -19 -78 -50 -99 -26 -17 -70 -16
-70 3 0 6 19 25 42 42 25 18 46 44 54 65 19 52 33 45 24 -11z m245 39 c0 -5
-5 -34 -11 -65 -12 -60 -29 -83 -54 -73 -39 15 7 146 52 146 7 0 13 -4 13 -8z
m211 -8 c25 -30 -20 -144 -57 -144 -34 0 -28 98 8 137 25 27 31 28 49 7z
m-275 -280 c-17 -25 -36 -25 -36 1 0 18 44 49 48 35 2 -6 -3 -22 -12 -36z"/>
</g>
</svg>
