<?xml version="1.0" standalone="no"?>
<!DOCTYPE svg PUBLIC "-//W3C//DTD SVG 20010904//EN"
 "http://www.w3.org/TR/2001/REC-SVG-20010904/DTD/svg10.dtd">
<svg version="1.0" xmlns="http://www.w3.org/2000/svg"
 width="192.000000pt" height="192.000000pt" viewBox="0 0 192.000000 192.000000"
 preserveAspectRatio="xMidYMid meet">
<metadata>
Created by potrace 1.16, written by Peter Selinger 2001-2019
</metadata>
<g transform="translate(0.000000,192.000000) scale(0.100000,-0.100000)"
fill="#000000" stroke="none">
811 c445 -92 729 -532 635 -987 -62 -301 -295 -546 -601 -630 -91 -26 -329
-26 -420 0 -291 80 -516 305 -596 596 -26 91 -26 329 0 420 120 433 542 692
982 601z"/>
<path d="M1215 1325 c-49 -48 -19 -119 50 -119 43 0 75 30 75 71 0 32 -42 73
-75 73 -14 0 -37 -11 -50 -25z"/>
<path d="M560 1210 c-11 -11 -20 -29 -20 -40 0 -25 34 -60 58 -60 31 0 62 29
62 59 0 55 -61 80 -100 41z"/>
<path d="M884 1207 c-123 -46 -196 -177 -166 -295 29 -111 118 -184 232 -190
85 -5 126 8 183 59 91 79 113 193 60 300 -57 112 -196 168 -309 126z"/>
<path d="M1292 1158 c-17 -17 -15 -64 4 -82 35 -36 94 -9 94 43 0 15 -5 32
-12 39 -16 16 -70 16 -86 0z"/>
<path d="M1210 752 c-36 -37 -38 -65 -5 -97 31 -32 74 -33 103 -2 41 43 19
109 -40 123 -22 5 -33 0 -58 -24z"/>
<path d="M647 745 c-33 -34 -40 -67 -23 -109 39 -93 172 -78 192 21 7 35 -16
87 -45 103 -37 19 -96 12 -124 -15z"/>
</g>
</svg>
