<?xml version="1.0" standalone="no"?>
<!DOCTYPE svg PUBLIC "-//W3C//DTD SVG 20010904//EN"
 "http://www.w3.org/TR/2001/REC-SVG-20010904/DTD/svg10.dtd">
<svg version="1.0" xmlns="http://www.w3.org/2000/svg"
 width="192.000000pt" height="192.000000pt" viewBox="0 0 192.000000 192.000000"
 preserveAspectRatio="xMidYMid meet">
<metadata>
Created by potrace 1.16, written by Peter Selinger 2001-2019
</metadata>
<g transform="translate(0.000000,192.000000) scale(0.100000,-0.100000)"
fill="#000000" stroke="none">
811 c445 -92 729 -532 635 -987 -62 -301 -295 -546 -601 -630 -91 -26 -329
-26 -420 0 -291 80 -516 305 -596 596 -26 91 -26 329 0 420 120 433 542 692
982 601z"/>
<path d="M688 1170 c-134 -40 -195 -193 -125 -312 49 -84 150 -124 237 -94 40
14 50 14 98 0 54 -16 106 -13 145 8 17 9 15 13 -21 52 -77 84 -77 198 0 282
36 39 38 43 21 52 -39 21 -91 24 -145 8 -47 -13 -58 -13 -93 -1 -45 16 -77 17
-117 5z m207 -64 c77 -82 67 -236 -19 -300 -33 -25 -48 -18 -90 42 -54 77 -47
182 18 260 35 41 51 40 91 -2z"/>
<path d="M1118 1170 c-49 -15 -50 -20 -13 -61 44 -50 56 -80 56 -144 0 -64
-12 -94 -56 -144 -33 -36 -35 -41 -18 -49 63 -33 157 -20 218 30 130 108 82
326 -81 367 -49 12 -68 13 -106 1z"/>
</g>
</svg>
