<?xml version="1.0" standalone="no"?>
<!DOCTYPE svg PUBLIC "-//W3C//DTD SVG 20010904//EN"
 "http://www.w3.org/TR/2001/REC-SVG-20010904/DTD/svg10.dtd">
<svg version="1.0" xmlns="http://www.w3.org/2000/svg"
 width="192.000000pt" height="192.000000pt" viewBox="0 0 192.000000 192.000000"
 preserveAspectRatio="xMidYMid meet">
<metadata>
Created by potrace 1.16, written by Peter Selinger 2001-2019
</metadata>
<g transform="translate(0.000000,192.000000) scale(0.100000,-0.100000)"
fill="#000000" stroke="none">
811 c445 -92 729 -532 635 -987 -62 -301 -295 -546 -601 -630 -91 -26 -329
-26 -420 0 -291 80 -516 305 -596 596 -26 91 -26 329 0 420 120 433 542 692
982 601z"/>
<path d="M851 1363 c-18 -15 -29 -59 -71 -287 -54 -293 -58 -328 -34 -384 38
-92 122 -133 276 -135 118 -2 123 2 142 100 20 104 6 123 -89 123 -33 0 -66 4
-74 9 -12 8 -7 50 33 264 26 141 46 266 44 279 -5 33 -43 48 -129 48 -58 0
-82 -4 -98 -17z"/>
</g>
</svg>
