<?xml version="1.0" standalone="no"?>
<!DOCTYPE svg PUBLIC "-//W3C//DTD SVG 20010904//EN"
 "http://www.w3.org/TR/2001/REC-SVG-20010904/DTD/svg10.dtd">
<svg version="1.0" xmlns="http://www.w3.org/2000/svg"
 width="192.000000pt" height="192.000000pt" viewBox="0 0 192.000000 192.000000"
 preserveAspectRatio="xMidYMid meet">
<metadata>
Created by potrace 1.16, written by Peter Selinger 2001-2019
</metadata>
<g transform="translate(0.000000,192.000000) scale(0.100000,-0.100000)"
fill="#000000" stroke="none">
811 c445 -92 729 -532 635 -987 -62 -301 -295 -546 -601 -630 -91 -26 -329
-26 -420 0 -291 80 -516 305 -596 596 -26 91 -26 329 0 420 120 433 542 692
982 601z"/>
<path d="M1103 1316 c-27 -30 -37 -34 -103 -40 -41 -4 -95 -16 -121 -26 -40
-15 -49 -15 -53 -4 -9 24 -21 16 -46 -28 -13 -24 -36 -59 -52 -79 -32 -43 -35
-52 -10 -45 63 17 82 17 82 0 0 -15 3 -15 23 4 31 29 114 43 231 40 l95 -3
-33 -55 c-19 -30 -53 -90 -78 -132 l-44 -77 -94 45 c-52 25 -98 50 -103 57 -7
9 -10 9 -13 0 -5 -10 -71 -62 -111 -86 -8 -5 -16 6 -24 33 -7 22 -16 37 -20
33 -13 -14 -61 -204 -55 -219 3 -8 12 -11 22 -7 11 4 6 -8 -15 -37 -36 -50
-38 -63 -11 -90 19 -19 33 -20 375 -20 342 0 356 1 375 20 11 11 20 28 20 38
0 18 -44 65 -90 95 -31 21 -10 22 54 3 54 -16 64 -8 47 36 -7 19 -25 32 -63
47 -52 20 -52 20 -18 21 64 1 64 4 19 146 -45 142 -116 332 -132 352 -14 18
-22 15 -54 -22z m57 -411 c26 -31 -47 -94 -143 -125 -66 -21 -177 -18 -217 6
-31 18 -39 19 -68 7 -27 -11 -38 -11 -66 1 -18 8 -37 19 -40 25 -10 15 0 14
36 -5 25 -13 35 -14 60 -3 29 12 30 15 24 56 -5 42 -5 43 23 43 39 0 45 -10
20 -36 -28 -30 -19 -51 28 -71 46 -19 148 -13 207 12 56 24 106 64 106 86 0
23 13 24 30 4z"/>
</g>
</svg>
