<?xml version="1.0" standalone="no"?>
<!DOCTYPE svg PUBLIC "-//W3C//DTD SVG 20010904//EN"
 "http://www.w3.org/TR/2001/REC-SVG-20010904/DTD/svg10.dtd">
<svg version="1.0" xmlns="http://www.w3.org/2000/svg"
 width="192.000000pt" height="192.000000pt" viewBox="0 0 192.000000 192.000000"
 preserveAspectRatio="xMidYMid meet">
<metadata>
Created by potrace 1.16, written by Peter Selinger 2001-2019
</metadata>
<g transform="translate(0.000000,192.000000) scale(0.100000,-0.100000)"
fill="#000000" stroke="none">
811 c445 -92 729 -532 635 -987 -62 -301 -295 -546 -601 -630 -91 -26 -329
-26 -420 0 -291 80 -516 305 -596 596 -26 91 -26 329 0 420 120 433 542 692
982 601z"/>
<path d="M677 1226 c-83 -30 -107 -75 -138 -257 l-23 -136 25 -49 c33 -65 97
-100 164 -90 54 9 120 64 130 111 4 17 8 36 11 43 2 8 33 12 109 12 76 0 107
-4 109 -12 3 -7 7 -26 11 -43 10 -46 76 -102 129 -110 83 -13 165 47 182 132
7 36 -31 252 -53 306 -20 47 -61 83 -111 97 -57 16 -498 12 -545 -4z m111
-134 c3 -28 7 -32 32 -32 16 0 30 -7 34 -16 9 -23 -2 -34 -34 -34 -25 0 -29
-4 -32 -32 -2 -25 -8 -33 -23 -33 -15 0 -21 8 -23 32 -3 28 -7 32 -35 35 -24
2 -32 8 -32 23 0 15 8 21 33 23 28 3 32 7 32 31 0 53 43 57 48 3z m377 12 c0
-10 -8 -20 -18 -22 -22 -4 -35 27 -16 39 20 12 34 5 34 -17z m-67 -72 c3 -16
-2 -22 -17 -22 -24 0 -33 13 -25 35 9 23 38 14 42 -13z m140 5 c4 -20 -25 -34
-40 -19 -15 15 -1 44 19 40 10 -2 19 -11 21 -21z m-70 -70 c4 -20 -25 -34 -40
-19 -15 15 -1 44 19 40 10 -2 19 -11 21 -21z"/>
</g>
</svg>
