<?xml version="1.0" standalone="no"?>
<!DOCTYPE svg PUBLIC "-//W3C//DTD SVG 20010904//EN"
 "http://www.w3.org/TR/2001/REC-SVG-20010904/DTD/svg10.dtd">
<svg version="1.0" xmlns="http://www.w3.org/2000/svg"
 width="192.000000pt" height="192.000000pt" viewBox="0 0 192.000000 192.000000"
 preserveAspectRatio="xMidYMid meet">
<metadata>
Created by potrace 1.16, written by Peter Selinger 2001-2019
</metadata>
<g transform="translate(0.000000,192.000000) scale(0.100000,-0.100000)"
fill="#000000" stroke="none">
811 c445 -92 729 -532 635 -987 -62 -301 -295 -546 -601 -630 -91 -26 -329
-26 -420 0 -291 80 -516 305 -596 596 -26 91 -26 329 0 420 120 433 542 692
982 601z"/>
<path d="M870 1369 c-69 -14 -150 -58 -206 -113 -200 -201 -143 -532 115 -659
62 -30 72 -32 176 -32 97 0 116 3 165 26 81 38 163 118 202 197 31 63 33 72
33 177 0 105 -2 114 -33 178 -85 171 -266 262 -452 226z m140 -90 c22 -41 -31
-97 -65 -69 -22 19 -19 66 6 84 24 17 45 12 59 -15z m-29 -99 c5 0 18 -20 29
-44 10 -24 23 -47 29 -51 6 -3 27 3 46 15 32 20 55 20 55 1 0 -14 -75 -61 -97
-61 -11 0 -26 7 -33 15 -16 19 -18 17 -30 -25 -9 -32 -7 -35 50 -89 l59 -56
20 -100 c11 -56 16 -104 11 -109 -19 -19 -36 5 -63 86 -26 81 -39 98 -94 132
-8 4 -21 -10 -38 -43 -14 -28 -35 -56 -47 -62 -34 -18 -158 -48 -174 -42 -31
12 -10 32 63 59 97 37 111 58 123 187 5 51 12 101 16 110 8 21 1 21 -36 2 -36
-18 -37 -27 -9 -72 15 -24 18 -38 11 -45 -13 -13 -52 24 -76 71 -17 32 -17 32
14 61 34 31 127 72 148 64 8 -2 18 -4 23 -4z"/>
</g>
</svg>
