<?xml version="1.0" standalone="no"?>
<!DOCTYPE svg PUBLIC "-//W3C//DTD SVG 20010904//EN"
 "http://www.w3.org/TR/2001/REC-SVG-20010904/DTD/svg10.dtd">
<svg version="1.0" xmlns="http://www.w3.org/2000/svg"
 width="192.000000pt" height="192.000000pt" viewBox="0 0 192.000000 192.000000"
 preserveAspectRatio="xMidYMid meet">
<metadata>
Created by potrace 1.16, written by Peter Selinger 2001-2019
</metadata>
<g transform="translate(0.000000,192.000000) scale(0.100000,-0.100000)"
fill="#000000" stroke="none">
811 c445 -92 729 -532 635 -987 -62 -301 -295 -546 -601 -630 -91 -26 -329
-26 -420 0 -291 80 -516 305 -596 596 -26 91 -26 329 0 420 120 433 542 692
982 601z"/>
<path d="M786 1350 c-90 -45 -131 -116 -124 -215 3 -52 10 -72 35 -107 l31
-43 -26 -34 c-38 -49 -42 -139 -10 -201 37 -69 94 -104 177 -108 55 -3 76 0
110 18 24 12 46 19 49 15 12 -11 -41 -44 -90 -55 -116 -28 -241 39 -280 151
-13 38 -25 50 -45 42 -35 -14 4 -121 65 -174 93 -82 225 -103 331 -54 l54 25
42 -20 c52 -25 78 -25 131 1 66 32 87 84 82 203 -4 103 -17 134 -71 166 -18
11 -49 20 -69 20 -28 0 -41 6 -58 28 -11 15 -37 39 -57 53 -35 25 -37 28 -34
80 3 65 -25 114 -79 141 -138 70 -280 -92 -190 -214 12 -16 19 -32 17 -35 -11
-10 -30 11 -49 54 -30 68 -18 125 36 179 33 33 51 44 90 49 72 11 132 -16 171
-77 48 -75 96 -58 56 20 -51 99 -192 143 -295 92z m154 -95 c68 -35 82 -119
30 -178 -16 -19 -30 -39 -30 -45 0 -6 20 -25 45 -42 25 -17 49 -39 55 -50 14
-26 -5 -35 -23 -10 -7 11 -32 33 -55 50 -51 36 -53 60 -12 107 39 44 40 89 4
132 -21 26 -33 31 -68 31 -49 0 -79 -18 -96 -59 -16 -40 -8 -70 30 -109 36
-38 38 -56 8 -82 -81 -70 -97 -89 -103 -123 -11 -57 2 -104 40 -142 64 -63
156 -67 225 -9 22 19 30 22 30 11 0 -29 -60 -61 -122 -65 -71 -5 -107 8 -152
59 -38 41 -52 89 -43 146 8 47 30 78 77 111 44 30 49 51 21 76 -50 45 -51 124
-3 168 44 41 92 49 142 23z m-29 -25 c5 0 18 -9 29 -20 30 -30 26 -76 -10
-117 -39 -44 -40 -85 -3 -110 14 -10 41 -33 60 -51 29 -29 33 -40 33 -84 0
-64 -23 -103 -75 -128 -51 -25 -69 -25 -122 0 -58 26 -85 71 -80 133 4 52 22
77 79 113 60 38 60 81 3 138 -14 14 -25 36 -25 48 0 45 53 94 88 82 8 -2 18
-4 23 -4z m132 -221 c20 -17 37 -37 37 -45 0 -20 0 -19 -54 31 -55 51 -41 62
17 14z m169 -135 c45 -31 47 -47 12 -71 l-26 -17 26 -19 c35 -26 33 -40 -14
-72 -47 -33 -70 -28 -70 15 0 28 -2 30 -20 20 -31 -17 -40 16 -10 37 l23 16
-23 17 c-30 23 -21 57 10 40 18 -10 20 -8 20 18 0 50 17 54 72 16z"/>
<path d="M856 1181 c-19 -21 -12 -48 15 -56 42 -14 68 44 30 65 -25 13 -25 13
-45 -9z"/>
<path d="M845 931 c-61 -25 -80 -108 -36 -155 32 -34 80 -42 119 -22 37 19 52
44 52 86 0 42 -15 67 -50 85 -32 16 -55 18 -85 6z m69 -73 c13 -21 -2 -51 -26
-56 -16 -3 -48 23 -48 38 0 15 32 41 48 38 8 -2 20 -11 26 -20z"/>
<path d="M1170 835 c0 -27 1 -28 24 -19 28 11 13 44 -20 44 -2 0 -4 -11 -4
-25z"/>
<path d="M1177 754 c-4 -4 -7 -16 -7 -26 0 -20 25 -25 36 -7 8 13 -19 43 -29
33z"/>
</g>
</svg>
