<?xml version="1.0" standalone="no"?>
<!DOCTYPE svg PUBLIC "-//W3C//DTD SVG 20010904//EN"
 "http://www.w3.org/TR/2001/REC-SVG-20010904/DTD/svg10.dtd">
<svg version="1.0" xmlns="http://www.w3.org/2000/svg"
 width="192.000000pt" height="192.000000pt" viewBox="0 0 192.000000 192.000000"
 preserveAspectRatio="xMidYMid meet">
<metadata>
Created by potrace 1.16, written by Peter Selinger 2001-2019
</metadata>
<g transform="translate(0.000000,192.000000) scale(0.100000,-0.100000)"
fill="#000000" stroke="none">
811 c445 -92 729 -532 635 -987 -62 -301 -295 -546 -601 -630 -91 -26 -329
-26 -420 0 -291 80 -516 305 -596 596 -26 91 -26 329 0 420 120 433 542 692
982 601z"/>
<path d="M870 1369 c-69 -14 -150 -58 -206 -113 -200 -201 -143 -532 115 -659
62 -30 72 -32 176 -32 97 0 116 3 165 26 81 38 163 118 202 197 31 63 33 72
33 177 0 105 -2 114 -33 178 -85 171 -266 262 -452 226z m28 -181 c7 -7 12
-31 12 -55 0 -32 -5 -45 -19 -53 -29 -15 -77 -12 -95 6 -19 18 -21 85 -4 102
16 16 90 16 106 0z m193 2 c10 -6 19 -21 19 -33 0 -13 -54 -111 -121 -220
-112 -182 -123 -197 -150 -197 -36 0 -55 30 -38 63 27 52 214 354 232 375 23
25 30 26 58 12z m27 -393 l3 -58 -58 3 -58 3 -3 44 c-5 67 0 72 60 69 l53 -3
3 -58z"/>
</g>
</svg>
