<?xml version="1.0" standalone="no"?>
<!DOCTYPE svg PUBLIC "-//W3C//DTD SVG 20010904//EN"
 "http://www.w3.org/TR/2001/REC-SVG-20010904/DTD/svg10.dtd">
<svg version="1.0" xmlns="http://www.w3.org/2000/svg"
 width="192.000000pt" height="192.000000pt" viewBox="0 0 192.000000 192.000000"
 preserveAspectRatio="xMidYMid meet">
<metadata>
Created by potrace 1.16, written by Peter Selinger 2001-2019
</metadata>
<g transform="translate(0.000000,192.000000) scale(0.100000,-0.100000)"
fill="#000000" stroke="none">
811 c445 -92 729 -532 635 -987 -62 -301 -295 -546 -601 -630 -91 -26 -329
-26 -420 0 -291 80 -516 305 -596 596 -26 91 -26 329 0 420 120 433 542 692
982 601z"/>
<path d="M765 1230 c-93 -60 -172 -117 -176 -127 -4 -10 -8 -83 -8 -162 -1
-138 -2 -144 -26 -173 -32 -38 -34 -104 -4 -142 55 -70 178 -38 195 51 7 39
-11 89 -37 104 -17 9 -19 23 -19 143 l0 134 130 82 c86 54 136 80 147 76 9 -4
56 -32 104 -62 79 -50 87 -58 93 -93 3 -21 17 -47 31 -61 24 -23 25 -27 25
-162 l0 -138 -155 0 -155 0 0 90 0 90 45 0 45 0 0 -55 c0 -57 22 -95 55 -95 8
0 24 9 35 20 17 17 20 33 20 108 0 131 -1 132 -155 132 -162 0 -155 9 -155
-202 0 -215 -22 -198 265 -198 212 0 226 1 245 20 18 18 20 33 20 192 0 159 2
173 20 193 30 31 39 75 26 114 -16 48 -55 74 -113 75 -42 2 -64 12 -169 79
-66 42 -129 77 -140 76 -10 0 -95 -49 -189 -109z m522 -164 c-4 -9 -13 -13
-22 -10 -18 7 -20 31 -2 37 17 6 31 -9 24 -27z m-629 -369 c2 -12 -3 -17 -17
-17 -12 0 -21 6 -21 13 0 31 32 34 38 4z"/>
</g>
</svg>
