<?xml version="1.0" standalone="no"?>
<!DOCTYPE svg PUBLIC "-//W3C//DTD SVG 20010904//EN"
 "http://www.w3.org/TR/2001/REC-SVG-20010904/DTD/svg10.dtd">
<svg version="1.0" xmlns="http://www.w3.org/2000/svg"
 width="192.000000pt" height="192.000000pt" viewBox="0 0 192.000000 192.000000"
 preserveAspectRatio="xMidYMid meet">
<metadata>
Created by potrace 1.16, written by Peter Selinger 2001-2019
</metadata>
<g transform="translate(0.000000,192.000000) scale(0.100000,-0.100000)"
fill="#000000" stroke="none">
811 c445 -92 729 -532 635 -987 -62 -301 -295 -546 -601 -630 -91 -26 -329
-26 -420 0 -291 80 -516 305 -596 596 -26 91 -26 329 0 420 120 433 542 692
982 601z"/>
<path d="M556 1228 c-13 -19 -16 -62 -16 -265 0 -230 1 -244 20 -263 18 -18
33 -20 178 -20 141 0 161 2 175 18 22 24 21 55 -1 75 -15 14 -41 17 -135 17
l-117 0 0 213 c0 195 -2 215 -18 230 -26 24 -68 21 -86 -5z"/>
<path d="M1034 1236 c-77 -34 -97 -98 -92 -295 3 -160 13 -191 71 -235 25 -19
44 -21 177 -24 187 -4 180 -11 180 168 0 164 -4 170 -105 170 -81 0 -105 -13
-105 -55 0 -32 25 -55 61 -55 29 0 29 0 29 -61 l0 -61 -76 4 c-109 5 -114 13
-114 173 0 168 1 169 149 173 118 4 134 10 134 57 0 50 -15 55 -152 55 -83 -1
-137 -5 -157 -14z"/>
</g>
</svg>
