<?xml version="1.0" standalone="no"?>
<!DOCTYPE svg PUBLIC "-//W3C//DTD SVG 20010904//EN"
 "http://www.w3.org/TR/2001/REC-SVG-20010904/DTD/svg10.dtd">
<svg version="1.0" xmlns="http://www.w3.org/2000/svg"
 width="192.000000pt" height="192.000000pt" viewBox="0 0 192.000000 192.000000"
 preserveAspectRatio="xMidYMid meet">
<metadata>
Created by potrace 1.16, written by Peter Selinger 2001-2019
</metadata>
<g transform="translate(0.000000,192.000000) scale(0.100000,-0.100000)"
fill="#000000" stroke="none">
811 c445 -92 729 -532 635 -987 -62 -301 -295 -546 -601 -630 -91 -26 -329
-26 -420 0 -291 80 -516 305 -596 596 -26 91 -26 329 0 420 120 433 542 692
982 601z"/>
<path d="M655 1301 c-46 -20 -91 -69 -103 -109 -9 -35 -9 -299 1 -334 10 -38
65 -98 104 -114 18 -8 68 -14 113 -14 79 0 80 0 80 -25 0 -21 -5 -25 -28 -25
-42 0 -70 -24 -56 -47 10 -16 28 -18 195 -18 l184 0 3 24 c4 29 -12 41 -55 41
-28 0 -33 4 -33 24 0 23 2 24 93 28 81 3 99 6 134 30 25 16 49 44 63 72 20 43
22 58 18 204 -3 148 -5 161 -27 194 -13 19 -40 46 -59 59 -35 24 -38 24 -311
27 -251 2 -280 0 -316 -17z"/>
</g>
</svg>
