<?xml version="1.0" standalone="no"?>
<!DOCTYPE svg PUBLIC "-//W3C//DTD SVG 20010904//EN"
 "http://www.w3.org/TR/2001/REC-SVG-20010904/DTD/svg10.dtd">
<svg version="1.0" xmlns="http://www.w3.org/2000/svg"
 width="192.000000pt" height="192.000000pt" viewBox="0 0 192.000000 192.000000"
 preserveAspectRatio="xMidYMid meet">
<metadata>
Created by potrace 1.16, written by Peter Selinger 2001-2019
</metadata>
<g transform="translate(0.000000,192.000000) scale(0.100000,-0.100000)"
fill="#000000" stroke="none">
811 c445 -92 729 -532 635 -987 -62 -301 -295 -546 -601 -630 -91 -26 -329
-26 -420 0 -291 80 -516 305 -596 596 -26 91 -26 329 0 420 120 433 542 692
982 601z"/>
<path d="M556 1298 c-14 -19 -16 -65 -16 -296 l0 -273 25 -24 c23 -24 29 -25
165 -25 153 0 144 3 198 -64 20 -25 36 -19 71 24 l32 40 142 0 c113 0 147 3
165 16 22 15 22 17 22 300 0 178 -4 293 -10 305 -10 17 -22 19 -138 19 -108 0
-132 -3 -159 -20 -41 -25 -62 -57 -71 -111 -6 -34 -12 -45 -29 -47 -18 -3 -22
3 -28 40 -10 60 -31 96 -68 118 -27 17 -51 20 -159 20 -120 0 -128 -1 -142
-22z"/>
</g>
</svg>
