<?xml version="1.0" standalone="no"?>
<!DOCTYPE svg PUBLIC "-//W3C//DTD SVG 20010904//EN"
 "http://www.w3.org/TR/2001/REC-SVG-20010904/DTD/svg10.dtd">
<svg version="1.0" xmlns="http://www.w3.org/2000/svg"
 width="192.000000pt" height="192.000000pt" viewBox="0 0 192.000000 192.000000"
 preserveAspectRatio="xMidYMid meet">
<metadata>
Created by potrace 1.16, written by Peter Selinger 2001-2019
</metadata>
<g transform="translate(0.000000,192.000000) scale(0.100000,-0.100000)"
fill="#000000" stroke="none">
811 c445 -92 729 -532 635 -987 -62 -301 -295 -546 -601 -630 -91 -26 -329
-26 -420 0 -291 80 -516 305 -596 596 -26 91 -26 329 0 420 120 433 542 692
982 601z"/>
<path d="M747 1362 c-10 -10 -17 -35 -17 -55 0 -32 -3 -37 -23 -37 -26 0 -51
-23 -61 -57 -5 -17 -15 -23 -34 -23 -34 0 -72 -26 -72 -49 0 -27 21 -41 62
-41 l38 0 0 -45 c0 -45 0 -45 -34 -45 -38 0 -66 -21 -66 -50 0 -24 29 -40 69
-40 30 0 31 -1 31 -45 l0 -45 -38 0 c-41 0 -62 -14 -62 -41 0 -23 38 -49 72
-49 19 0 29 -6 34 -22 10 -35 35 -58 61 -58 20 0 23 -5 23 -38 0 -52 29 -80
65 -64 21 10 25 18 25 57 l0 45 45 0 45 0 0 -45 c0 -39 4 -47 26 -57 23 -11
29 -10 45 11 11 13 19 38 19 57 0 33 1 34 39 34 37 0 39 -1 44 -40 6 -47 22
-70 47 -70 25 0 38 20 42 64 3 34 7 40 38 50 27 8 37 19 45 44 7 24 15 32 31
32 47 0 74 18 74 49 0 32 -14 41 -66 41 -34 0 -34 0 -34 45 l0 45 38 0 c43 0
62 14 62 45 0 31 -19 45 -62 45 l-38 0 0 45 c0 45 0 45 34 45 52 0 66 9 66 41
0 32 -23 49 -67 49 -24 0 -31 6 -38 33 -8 24 -18 35 -45 43 -31 10 -35 16 -38
50 -2 21 -8 44 -14 51 -29 35 -78 -5 -78 -64 0 -32 -1 -33 -40 -33 -40 0 -40
0 -40 38 0 52 -29 80 -65 64 -21 -10 -25 -18 -25 -57 l0 -45 -45 0 -45 0 0 45
c0 34 -5 47 -19 55 -27 14 -35 13 -54 -8z m321 -275 c16 -19 18 -222 2 -241
-10 -13 -35 -16 -116 -16 -135 0 -134 -1 -134 140 0 93 3 110 18 119 26 16
217 14 230 -2z"/>
</g>
</svg>
