<?xml version="1.0" standalone="no"?>
<!DOCTYPE svg PUBLIC "-//W3C//DTD SVG 20010904//EN"
 "http://www.w3.org/TR/2001/REC-SVG-20010904/DTD/svg10.dtd">
<svg version="1.0" xmlns="http://www.w3.org/2000/svg"
 width="192.000000pt" height="192.000000pt" viewBox="0 0 192.000000 192.000000"
 preserveAspectRatio="xMidYMid meet">
<metadata>
Created by potrace 1.16, written by Peter Selinger 2001-2019
</metadata>
<g transform="translate(0.000000,192.000000) scale(0.100000,-0.100000)"
fill="#000000" stroke="none">
811 c445 -92 729 -532 635 -987 -62 -301 -295 -546 -601 -630 -91 -26 -329
-26 -420 0 -291 80 -516 305 -596 596 -26 91 -26 329 0 420 120 433 542 692
982 601z"/>
<path d="M666 1298 c-13 -19 -16 -60 -16 -248 0 -124 4 -231 8 -237 4 -7 73
-29 153 -50 l145 -37 135 28 c74 16 142 33 152 38 15 8 17 30 17 249 0 147 -4
248 -10 260 -7 12 -21 19 -40 19 l-30 0 0 -100 c0 -107 -8 -121 -45 -80 l-18
20 -22 -20 c-38 -36 -45 -26 -45 66 l0 86 -31 -7 c-47 -11 -84 -8 -203 14
-135 26 -131 26 -150 -1z"/>
<path d="M550 1200 c-12 -23 -10 -473 2 -485 4 -4 96 -29 205 -57 l198 -50
194 39 c107 21 201 44 208 51 10 10 13 68 13 252 0 232 -1 240 -21 250 -15 9
-24 8 -35 -1 -11 -9 -14 -52 -14 -230 l0 -218 -52 -10 c-29 -6 -106 -22 -171
-35 l-118 -23 -167 41 -167 42 -5 225 c-3 123 -7 225 -8 227 -9 11 -53 -2 -62
-18z"/>
</g>
</svg>
