<?xml version="1.0" standalone="no"?>
<!DOCTYPE svg PUBLIC "-//W3C//DTD SVG 20010904//EN"
 "http://www.w3.org/TR/2001/REC-SVG-20010904/DTD/svg10.dtd">
<svg version="1.0" xmlns="http://www.w3.org/2000/svg"
 width="192.000000pt" height="192.000000pt" viewBox="0 0 192.000000 192.000000"
 preserveAspectRatio="xMidYMid meet">
<metadata>
Created by potrace 1.16, written by Peter Selinger 2001-2019
</metadata>
<g transform="translate(0.000000,192.000000) scale(0.100000,-0.100000)"
fill="#000000" stroke="none">
811 c445 -92 729 -532 635 -987 -62 -301 -295 -546 -601 -630 -91 -26 -329
-26 -420 0 -291 80 -516 305 -596 596 -26 91 -26 329 0 420 120 433 542 692
982 601z"/>
<path d="M882 1357 c-12 -7 -29 -22 -36 -33 -8 -11 -32 -26 -53 -32 -55 -17
-132 -80 -175 -142 -70 -103 -84 -231 -38 -352 11 -29 20 -70 20 -91 0 -21 5
-47 11 -59 13 -24 69 -49 95 -42 11 3 54 -6 96 -20 86 -29 148 -32 226 -12
108 29 202 109 250 214 14 31 36 67 48 79 46 43 43 108 -7 152 -16 14 -29 32
-29 41 0 30 -59 118 -110 163 -28 25 -72 53 -98 63 -26 10 -64 33 -85 51 -40
35 -75 41 -115 20z m-14 -159 c25 -25 9 -145 -31 -239 -9 -19 -37 -63 -62 -97
-35 -47 -53 -62 -71 -62 -34 0 -56 54 -56 139 1 105 45 188 130 242 50 31 71
36 90 17z m215 -18 c48 -30 103 -97 113 -137 9 -36 -11 -50 -79 -58 -34 -4
-86 -14 -116 -21 -30 -8 -55 -13 -57 -11 -2 1 3 26 10 54 8 29 17 80 21 115
11 98 30 108 108 58z m111 -313 c9 -13 6 -27 -13 -62 -50 -94 -144 -149 -251
-148 -85 0 -140 23 -140 57 0 43 132 130 243 161 70 19 146 15 161 -8z"/>
</g>
</svg>
