<?xml version="1.0" standalone="no"?>
<!DOCTYPE svg PUBLIC "-//W3C//DTD SVG 20010904//EN"
 "http://www.w3.org/TR/2001/REC-SVG-20010904/DTD/svg10.dtd">
<svg version="1.0" xmlns="http://www.w3.org/2000/svg"
 width="192.000000pt" height="192.000000pt" viewBox="0 0 192.000000 192.000000"
 preserveAspectRatio="xMidYMid meet">
<metadata>
Created by potrace 1.16, written by Peter Selinger 2001-2019
</metadata>
<g transform="translate(0.000000,192.000000) scale(0.100000,-0.100000)"
fill="#000000" stroke="none">
811 c445 -92 729 -532 635 -987 -62 -301 -295 -546 -601 -630 -91 -26 -329
-26 -420 0 -291 80 -516 305 -596 596 -26 91 -26 329 0 420 120 433 542 692
982 601z"/>
<path d="M666 1304 c-14 -13 -16 -50 -16 -247 0 -128 4 -238 8 -245 9 -14 259
-82 302 -82 32 0 245 46 278 60 22 10 22 10 22 258 0 267 -1 272 -52 272 l-28
0 0 -100 c0 -107 -8 -121 -45 -80 l-18 20 -22 -20 c-38 -36 -45 -26 -45 65 l0
85 -57 -6 c-39 -4 -94 1 -168 15 -132 25 -139 25 -159 5z"/>
<path d="M561 1214 c-20 -15 -21 -22 -21 -247 0 -128 4 -238 9 -245 4 -8 98
-36 207 -64 l199 -50 190 38 c105 20 198 41 208 46 15 8 17 30 17 253 0 241 0
244 -22 256 -18 10 -24 8 -40 -11 -16 -20 -18 -44 -18 -231 0 -115 -2 -209 -3
-209 -2 0 -71 -14 -152 -30 -81 -17 -162 -30 -179 -30 -17 0 -98 18 -181 38
l-150 38 -5 225 c-3 123 -7 225 -8 225 -15 11 -34 10 -51 -2z"/>
</g>
</svg>
