<?xml version="1.0" standalone="no"?>
<!DOCTYPE svg PUBLIC "-//W3C//DTD SVG 20010904//EN"
 "http://www.w3.org/TR/2001/REC-SVG-20010904/DTD/svg10.dtd">
<svg version="1.0" xmlns="http://www.w3.org/2000/svg"
 width="192.000000pt" height="192.000000pt" viewBox="0 0 192.000000 192.000000"
 preserveAspectRatio="xMidYMid meet">
<metadata>
Created by potrace 1.16, written by Peter Selinger 2001-2019
</metadata>
<g transform="translate(0.000000,192.000000) scale(0.100000,-0.100000)"
fill="#000000" stroke="none">
811 c445 -92 729 -532 635 -987 -62 -301 -295 -546 -601 -630 -91 -26 -329
-26 -420 0 -291 80 -516 305 -596 596 -26 91 -26 329 0 420 120 433 542 692
982 601z"/>
<path d="M1120 1386 c-30 -7 -65 -17 -77 -24 -12 -7 -46 -12 -75 -12 -77 0
-181 -25 -239 -57 -68 -36 -142 -120 -171 -191 -19 -47 -23 -75 -23 -162 0
-99 2 -110 33 -172 108 -220 410 -306 605 -171 44 30 51 75 16 94 -18 9 -32 5
-86 -22 -54 -27 -76 -33 -131 -33 -90 -1 -160 25 -222 81 -97 87 -131 207 -91
314 28 74 80 132 148 165 48 24 67 27 141 26 47 0 94 4 104 9 10 5 18 6 18 2
0 -5 45 -84 100 -177 67 -114 98 -175 95 -188 -9 -25 -16 -23 -47 16 -14 18
-71 65 -126 104 -111 79 -156 126 -149 154 6 22 -17 48 -42 48 -31 0 -44 -26
-39 -79 7 -67 52 -126 166 -218 51 -41 110 -97 130 -124 22 -30 44 -49 56 -49
33 0 103 39 136 76 52 60 45 93 -61 288 l-91 167 11 56 c16 81 -2 97 -89 79z"/>
</g>
</svg>
