<?xml version="1.0" standalone="no"?>
<!DOCTYPE svg PUBLIC "-//W3C//DTD SVG 20010904//EN"
 "http://www.w3.org/TR/2001/REC-SVG-20010904/DTD/svg10.dtd">
<svg version="1.0" xmlns="http://www.w3.org/2000/svg"
 width="192.000000pt" height="192.000000pt" viewBox="0 0 192.000000 192.000000"
 preserveAspectRatio="xMidYMid meet">
<metadata>
Created by potrace 1.16, written by Peter Selinger 2001-2019
</metadata>
<g transform="translate(0.000000,192.000000) scale(0.100000,-0.100000)"
fill="#000000" stroke="none">
811 c445 -92 729 -532 635 -987 -62 -301 -295 -546 -601 -630 -91 -26 -329
-26 -420 0 -291 80 -516 305 -596 596 -26 91 -26 329 0 420 120 433 542 692
982 601z"/>
<path d="M592 1318 c-30 -33 -36 -70 -18 -107 31 -59 99 -70 147 -22 37 37 38
79 3 120 -21 26 -33 31 -68 31 -31 0 -48 -6 -64 -22z"/>
<path d="M1186 1309 c-35 -41 -34 -83 3 -120 48 -48 116 -37 147 22 32 62 -11
129 -82 129 -35 0 -47 -5 -68 -31z"/>
<path d="M623 990 c-62 -25 -66 -99 -11 -202 39 -74 102 -131 186 -171 60 -28
77 -32 157 -32 80 0 97 4 157 32 37 17 87 50 111 72 53 49 105 142 113 203 5
37 3 49 -17 71 -13 15 -37 29 -54 32 -41 8 -91 -24 -100 -63 -13 -60 -62 -122
-118 -147 -66 -31 -118 -31 -184 0 -56 25 -105 87 -118 147 -4 18 -19 37 -38
49 -35 21 -50 22 -84 9z"/>
</g>
</svg>
