<?xml version="1.0" standalone="no"?>
<!DOCTYPE svg PUBLIC "-//W3C//DTD SVG 20010904//EN"
 "http://www.w3.org/TR/2001/REC-SVG-20010904/DTD/svg10.dtd">
<svg version="1.0" xmlns="http://www.w3.org/2000/svg"
 width="192.000000pt" height="192.000000pt" viewBox="0 0 192.000000 192.000000"
 preserveAspectRatio="xMidYMid meet">
<metadata>
Created by potrace 1.16, written by Peter Selinger 2001-2019
</metadata>
<g transform="translate(0.000000,192.000000) scale(0.100000,-0.100000)"
fill="#000000" stroke="none">
811 c445 -92 729 -532 635 -987 -62 -301 -295 -546 -601 -630 -91 -26 -329
-26 -420 0 -291 80 -516 305 -596 596 -26 91 -26 329 0 420 120 433 542 692
982 601z"/>
<path d="M762 1154 c-28 -19 -30 -74 -4 -97 25 -23 68 -21 92 3 27 27 25 56
-5 85 -28 29 -51 31 -83 9z"/>
<path d="M440 1025 c0 -16 6 -25 15 -25 12 0 15 -14 15 -65 0 -51 -3 -65 -15
-65 -8 0 -15 -9 -15 -20 0 -19 7 -20 130 -20 121 0 130 1 130 19 0 10 7 24 15
31 13 11 22 7 55 -25 36 -36 38 -40 24 -56 -11 -12 -12 -19 -4 -24 7 -5 43 23
91 71 73 73 79 77 79 51 0 -17 -5 -27 -15 -27 -8 0 -15 -9 -15 -20 0 -19 7
-20 109 -20 100 0 110 2 134 24 47 44 45 127 -5 173 -15 14 -41 18 -124 21
-92 4 -105 2 -111 -13 -4 -11 0 -22 10 -30 23 -16 21 -38 -3 -60 -20 -18 -22
-18 -70 30 l-50 49 -60 -59 c-41 -40 -60 -54 -60 -42 0 15 -8 13 -55 -14 l-55
-31 0 61 c0 48 3 61 15 61 9 0 15 9 15 25 0 25 -1 25 -90 25 -89 0 -90 0 -90
-25z m668 -93 c-5 -45 -28 -38 -28 8 0 37 2 41 16 30 8 -7 14 -25 12 -38z"/>
<path d="M1210 1025 c0 -16 6 -25 15 -25 12 0 15 -14 15 -65 0 -51 -3 -65 -15
-65 -8 0 -15 -9 -15 -20 0 -19 7 -20 130 -20 l130 0 0 54 0 55 -42 -24 c-24
-14 -46 -25 -50 -25 -5 0 -8 23 -8 51 0 37 5 55 17 64 9 7 14 19 10 29 -5 13
-22 16 -97 16 -89 0 -90 0 -90 -25z"/>
</g>
</svg>
