<?xml version="1.0" standalone="no"?>
<!DOCTYPE svg PUBLIC "-//W3C//DTD SVG 20010904//EN"
 "http://www.w3.org/TR/2001/REC-SVG-20010904/DTD/svg10.dtd">
<svg version="1.0" xmlns="http://www.w3.org/2000/svg"
 width="192.000000pt" height="192.000000pt" viewBox="0 0 192.000000 192.000000"
 preserveAspectRatio="xMidYMid meet">
<metadata>
Created by potrace 1.16, written by Peter Selinger 2001-2019
</metadata>
<g transform="translate(0.000000,192.000000) scale(0.100000,-0.100000)"
fill="#000000" stroke="none">
811 c445 -92 729 -532 635 -987 -62 -301 -295 -546 -601 -630 -91 -26 -329
-26 -420 0 -291 80 -516 305 -596 596 -26 91 -26 329 0 420 120 433 542 692
982 601z"/>
<path d="M865 1309 c-42 -29 -112 -86 -154 -128 -80 -78 -171 -194 -171 -218
0 -15 40 -33 74 -33 21 0 22 -4 33 -165 7 -99 16 -172 23 -180 9 -11 33 -15
81 -15 l69 0 0 70 c0 52 -4 72 -14 76 -25 10 -33 56 -29 164 6 139 16 158 23
40 4 -75 8 -95 20 -95 12 0 16 17 18 80 4 117 16 125 22 15 4 -75 8 -95 20
-95 12 0 17 21 25 93 6 52 13 91 16 88 3 -4 4 -64 1 -134 -4 -108 -7 -130 -24
-148 -15 -17 -18 -33 -16 -85 l3 -64 93 -3 93 -3 -3 63 c-3 61 -4 63 -33 68
l-30 6 1 72 c1 42 9 94 19 120 26 69 67 132 88 132 20 0 23 -53 17 -313 l-3
-148 59 3 59 3 7 40 c4 22 10 102 14 178 l7 137 26 0 c44 0 71 12 71 30 0 10
-25 52 -56 94 -51 70 -57 83 -65 149 -15 125 -21 133 -100 125 -28 -2 -35 -8
-39 -30 l-5 -27 -69 44 c-38 25 -75 45 -82 45 -7 0 -47 -23 -89 -51z"/>
</g>
</svg>
