<?xml version="1.0" standalone="no"?>
<!DOCTYPE svg PUBLIC "-//W3C//DTD SVG 20010904//EN"
 "http://www.w3.org/TR/2001/REC-SVG-20010904/DTD/svg10.dtd">
<svg version="1.0" xmlns="http://www.w3.org/2000/svg"
 width="192.000000pt" height="192.000000pt" viewBox="0 0 192.000000 192.000000"
 preserveAspectRatio="xMidYMid meet">
<metadata>
Created by potrace 1.16, written by Peter Selinger 2001-2019
</metadata>
<g transform="translate(0.000000,192.000000) scale(0.100000,-0.100000)"
fill="#000000" stroke="none">
811 c445 -92 729 -532 635 -987 -62 -301 -295 -546 -601 -630 -91 -26 -329
-26 -420 0 -291 80 -516 305 -596 596 -26 91 -26 329 0 420 120 433 542 692
982 601z"/>
<path d="M1020 1291 c-71 -22 -116 -60 -279 -232 -94 -100 -171 -185 -171
-190 0 -5 18 -9 40 -9 26 0 40 -5 40 -13 0 -7 -29 -42 -65 -77 -66 -65 -76
-88 -51 -109 12 -10 35 -6 110 18 53 17 101 31 107 31 6 0 1 -16 -11 -36 -12
-19 -20 -38 -17 -41 3 -3 111 18 238 46 305 68 348 91 407 220 21 45 24 64 20
125 -6 84 -31 139 -89 196 -68 65 -192 97 -279 71z m142 -185 l-4 -53 46 -29
c25 -16 46 -31 46 -35 0 -3 -22 -14 -49 -26 l-49 -21 -8 -58 -7 -59 -41 47
-41 47 -184 -79 c-102 -44 -186 -78 -188 -76 -2 2 62 53 143 112 81 60 154
114 161 119 12 9 10 19 -7 59 -12 26 -20 49 -18 51 2 3 27 -2 54 -9 l50 -13
45 38 c24 21 46 39 49 39 3 0 3 -24 2 -54z"/>
</g>
</svg>
