<?xml version="1.0" standalone="no"?>
<!DOCTYPE svg PUBLIC "-//W3C//DTD SVG 20010904//EN"
 "http://www.w3.org/TR/2001/REC-SVG-20010904/DTD/svg10.dtd">
<svg version="1.0" xmlns="http://www.w3.org/2000/svg"
 width="192.000000pt" height="192.000000pt" viewBox="0 0 192.000000 192.000000"
 preserveAspectRatio="xMidYMid meet">
<metadata>
Created by potrace 1.16, written by Peter Selinger 2001-2019
</metadata>
<g transform="translate(0.000000,192.000000) scale(0.100000,-0.100000)"
fill="#000000" stroke="none">
811 c445 -92 729 -532 635 -987 -62 -301 -295 -546 -601 -630 -91 -26 -329
-26 -420 0 -291 80 -516 305 -596 596 -26 91 -26 329 0 420 120 433 542 692
982 601z"/>
<path d="M833 1356 c-104 -34 -204 -123 -251 -224 -25 -52 -27 -67 -27 -177 0
-103 4 -127 23 -169 52 -112 129 -173 235 -186 34 -5 82 -16 107 -25 57 -22
157 -16 222 13 112 49 201 176 217 307 23 192 -66 362 -229 439 -56 26 -78 31
-160 33 -60 2 -110 -2 -137 -11z m227 -93 c66 -21 143 -89 177 -157 37 -72 43
-189 14 -266 -40 -107 -124 -177 -226 -187 -58 -6 -61 -4 -45 28 7 12 21 19
41 19 16 0 46 9 67 19 146 75 173 310 49 439 -52 55 -102 76 -182 76 -118 0
-203 -60 -246 -175 -26 -66 -25 -195 1 -269 10 -30 17 -56 15 -59 -9 -8 -64
95 -75 141 -17 70 -8 173 20 228 40 80 116 145 200 171 44 13 136 9 190 -8z
m-30 -138 c66 -34 105 -125 89 -207 -4 -24 -8 -46 -9 -50 0 -11 -51 -68 -60
-68 -5 0 -4 15 1 32 14 50 11 174 -6 214 -29 69 -126 79 -174 18 -50 -64 -48
-218 4 -296 14 -21 23 -43 20 -48 -23 -37 -88 43 -106 128 -26 129 14 248 96
282 33 14 114 11 145 -5z m-60 -188 c0 -118 -19 -154 -40 -75 -18 65 4 169 31
152 5 -3 9 -38 9 -77z"/>
</g>
</svg>
