<?xml version="1.0" standalone="no"?>
<!DOCTYPE svg PUBLIC "-//W3C//DTD SVG 20010904//EN"
 "http://www.w3.org/TR/2001/REC-SVG-20010904/DTD/svg10.dtd">
<svg version="1.0" xmlns="http://www.w3.org/2000/svg"
 width="192.000000pt" height="192.000000pt" viewBox="0 0 192.000000 192.000000"
 preserveAspectRatio="xMidYMid meet">
<metadata>
Created by potrace 1.16, written by Peter Selinger 2001-2019
</metadata>
<g transform="translate(0.000000,192.000000) scale(0.100000,-0.100000)"
fill="#000000" stroke="none">
811 c445 -92 729 -532 635 -987 -62 -301 -295 -546 -601 -630 -91 -26 -329
-26 -420 0 -291 80 -516 305 -596 596 -26 91 -26 329 0 420 120 433 542 692
982 601z"/>
<path d="M859 1355 c-235 -75 -314 -368 -149 -555 26 -30 33 -33 48 -22 73 52
118 67 197 67 80 0 119 -14 198 -68 16 -10 23 -7 49 23 17 19 42 60 57 90 22
47 26 68 26 145 -1 101 -18 150 -81 223 -75 88 -234 133 -345 97z m207 -93
c50 -25 98 -73 120 -121 35 -73 28 -193 -14 -249 l-18 -23 -49 22 c-35 16 -76
24 -136 27 -75 4 -93 1 -149 -21 -35 -15 -68 -23 -73 -20 -38 23 -61 174 -36
240 27 72 84 128 164 160 42 18 143 10 191 -15z"/>
<path d="M890 768 c-20 -5 -49 -20 -65 -33 l-30 -24 22 -22 21 -22 44 22 c56
26 93 27 142 0 l39 -21 20 21 c20 20 20 21 2 41 -19 21 -103 51 -139 49 -12
-1 -37 -5 -56 -11z"/>
<path d="M915 619 c-4 -6 3 -21 16 -35 l23 -24 28 27 c21 20 25 29 16 35 -19
11 -76 10 -83 -3z"/>
</g>
</svg>
