<?xml version="1.0" standalone="no"?>
<!DOCTYPE svg PUBLIC "-//W3C//DTD SVG 20010904//EN"
 "http://www.w3.org/TR/2001/REC-SVG-20010904/DTD/svg10.dtd">
<svg version="1.0" xmlns="http://www.w3.org/2000/svg"
 width="192.000000pt" height="192.000000pt" viewBox="0 0 192.000000 192.000000"
 preserveAspectRatio="xMidYMid meet">
<metadata>
Created by potrace 1.16, written by Peter Selinger 2001-2019
</metadata>
<g transform="translate(0.000000,192.000000) scale(0.100000,-0.100000)"
fill="#000000" stroke="none">
811 c445 -92 729 -532 635 -987 -62 -301 -295 -546 -601 -630 -91 -26 -329
-26 -420 0 -291 80 -516 305 -596 596 -26 91 -26 329 0 420 120 433 542 692
982 601z"/>
<path d="M905 1371 c-89 -25 -164 -87 -201 -166 -23 -48 -24 -59 -24 -289 l0
-239 63 5 c69 6 141 34 196 76 20 15 64 34 99 43 l63 16 -38 -39 c-87 -89
-220 -153 -343 -166 -61 -7 -65 -9 -65 -32 0 -24 2 -25 60 -22 225 9 462 191
526 404 51 167 -13 326 -156 389 -49 22 -138 31 -180 20z m0 -164 c11 -18 24
-57 30 -87 9 -44 16 -56 33 -58 22 -3 23 -1 37 78 3 19 17 52 31 73 23 35 28
38 67 35 34 -2 45 -9 63 -36 101 -150 -13 -364 -194 -364 -66 0 -112 17 -160
57 -87 73 -107 225 -41 310 42 53 100 50 134 -8z"/>
<path d="M810 1120 c-24 -24 -25 -38 -4 -68 29 -42 104 -17 104 35 0 20 -38
53 -60 53 -11 0 -29 -9 -40 -20z"/>
<path d="M1047 1122 c-35 -38 -10 -92 42 -92 34 0 51 17 51 50 0 52 -60 78
-93 42z"/>
</g>
</svg>
