<?xml version="1.0" standalone="no"?>
<!DOCTYPE svg PUBLIC "-//W3C//DTD SVG 20010904//EN"
 "http://www.w3.org/TR/2001/REC-SVG-20010904/DTD/svg10.dtd">
<svg version="1.0" xmlns="http://www.w3.org/2000/svg"
 width="192.000000pt" height="192.000000pt" viewBox="0 0 192.000000 192.000000"
 preserveAspectRatio="xMidYMid meet">
<metadata>
Created by potrace 1.16, written by Peter Selinger 2001-2019
</metadata>
<g transform="translate(0.000000,192.000000) scale(0.100000,-0.100000)"
fill="#000000" stroke="none">
811 c445 -92 729 -532 635 -987 -62 -301 -295 -546 -601 -630 -91 -26 -329
-26 -420 0 -291 80 -516 305 -596 596 -26 91 -26 329 0 420 120 433 542 692
982 601z"/>
<path d="M712 1322 c-21 -6 -16 -13 61 -90 l83 -82 49 50 50 50 -30 25 c-56
45 -147 65 -213 47z"/>
<path d="M861 1105 l-226 -224 40 -41 c21 -22 44 -40 50 -40 5 0 124 114 264
254 l253 253 -32 12 c-18 6 -53 11 -79 11 l-45 0 -225 -225z"/>
<path d="M609 1262 l-44 -41 90 -91 90 -90 43 43 42 43 -89 88 -89 89 -43 -41z"/>
<path d="M1005 1030 l-260 -260 45 -45 45 -45 257 257 c142 142 258 261 258
265 0 10 -70 88 -79 88 -3 0 -123 -117 -266 -260z"/>
<path d="M540 1155 c-18 -53 -7 -137 24 -190 15 -24 31 -47 37 -51 6 -4 36 18
68 50 l56 56 -86 86 -87 86 -12 -37z"/>
<path d="M1111 906 l-253 -253 34 -27 c65 -49 73 -44 266 147 95 94 182 189
193 210 23 45 34 122 22 154 -8 21 -30 1 -262 -231z"/>
</g>
</svg>
