<?xml version="1.0" standalone="no"?>
<!DOCTYPE svg PUBLIC "-//W3C//DTD SVG 20010904//EN"
 "http://www.w3.org/TR/2001/REC-SVG-20010904/DTD/svg10.dtd">
<svg version="1.0" xmlns="http://www.w3.org/2000/svg"
 width="192.000000pt" height="192.000000pt" viewBox="0 0 192.000000 192.000000"
 preserveAspectRatio="xMidYMid meet">
<metadata>
Created by potrace 1.16, written by Peter Selinger 2001-2019
</metadata>
<g transform="translate(0.000000,192.000000) scale(0.100000,-0.100000)"
fill="#000000" stroke="none">
811 c445 -92 729 -532 635 -987 -62 -301 -295 -546 -601 -630 -91 -26 -329
-26 -420 0 -291 80 -516 305 -596 596 -26 91 -26 329 0 420 120 433 542 692
982 601z"/>
<path d="M828 1351 c-31 -10 -72 -28 -92 -40 -51 -32 -121 -114 -153 -179 -25
-51 -27 -68 -28 -162 0 -98 2 -110 32 -172 122 -257 450 -316 651 -116 200
199 141 531 -115 651 -87 40 -206 48 -295 18z m64 -188 c10 -9 18 -24 18 -34
0 -17 -35 -49 -52 -49 -11 0 -48 38 -48 50 0 14 37 50 52 50 6 0 20 -7 30 -17z
m169 7 c27 -15 26 -66 -2 -80 -16 -9 -26 -8 -45 5 -28 18 -31 41 -7 67 19 21
27 22 54 8z m-282 -218 c29 -92 123 -146 211 -122 57 15 114 72 130 128 10 39
14 43 38 40 33 -4 40 -37 18 -90 -23 -54 -63 -96 -119 -125 -43 -21 -61 -24
-122 -21 -84 4 -136 32 -185 99 -49 68 -53 144 -8 137 17 -2 27 -14 37 -46z"/>
</g>
</svg>
