<?xml version="1.0" standalone="no"?>
<!DOCTYPE svg PUBLIC "-//W3C//DTD SVG 20010904//EN"
 "http://www.w3.org/TR/2001/REC-SVG-20010904/DTD/svg10.dtd">
<svg version="1.0" xmlns="http://www.w3.org/2000/svg"
 width="192.000000pt" height="192.000000pt" viewBox="0 0 192.000000 192.000000"
 preserveAspectRatio="xMidYMid meet">
<metadata>
Created by potrace 1.16, written by Peter Selinger 2001-2019
</metadata>
<g transform="translate(0.000000,192.000000) scale(0.100000,-0.100000)"
fill="#000000" stroke="none">
811 c445 -92 729 -532 635 -987 -62 -301 -295 -546 -601 -630 -91 -26 -329
-26 -420 0 -291 80 -516 305 -596 596 -26 91 -26 329 0 420 120 433 542 692
982 601z"/>
<path d="M1025 1363 c-22 -8 -53 -15 -69 -14 -16 0 -42 -9 -58 -20 -16 -12
-35 -22 -42 -23 -7 -1 -24 -9 -38 -18 -16 -11 -29 -13 -35 -7 -13 13 -89 -70
-114 -124 -26 -59 -26 -167 2 -224 26 -53 110 -131 200 -184 70 -42 81 -55 54
-65 -25 -10 -94 -104 -88 -120 4 -11 38 -14 184 -14 164 0 179 1 179 18 -1 22
-24 50 -77 91 -24 18 -43 40 -43 49 0 10 25 37 56 62 100 80 114 144 68 308
l-26 93 26 24 c14 13 26 32 26 41 0 9 7 22 15 28 13 9 13 15 3 38 -7 16 -20
28 -29 28 -9 0 -19 7 -23 15 -3 10 -19 15 -46 15 -22 0 -40 5 -40 10 0 15 -39
11 -85 -7z m113 -311 c3 -16 -2 -22 -17 -22 -24 0 -35 15 -27 36 9 23 40 13
44 -14z m-130 -45 c4 -20 -25 -34 -40 -19 -15 15 -1 44 19 40 10 -2 19 -11 21
-21z"/>
</g>
</svg>
