<?xml version="1.0" standalone="no"?>
<!DOCTYPE svg PUBLIC "-//W3C//DTD SVG 20010904//EN"
 "http://www.w3.org/TR/2001/REC-SVG-20010904/DTD/svg10.dtd">
<svg version="1.0" xmlns="http://www.w3.org/2000/svg"
 width="192.000000pt" height="192.000000pt" viewBox="0 0 192.000000 192.000000"
 preserveAspectRatio="xMidYMid meet">
<metadata>
Created by potrace 1.16, written by Peter Selinger 2001-2019
</metadata>
<g transform="translate(0.000000,192.000000) scale(0.100000,-0.100000)"
fill="#000000" stroke="none">
811 c445 -92 729 -532 635 -987 -62 -301 -295 -546 -601 -630 -91 -26 -329
-26 -420 0 -291 80 -516 305 -596 596 -26 91 -26 329 0 420 120 433 542 692
982 601z"/>
<path d="M815 1352 c-63 -27 -97 -48 -133 -82 -26 -25 -32 -39 -30 -63 3 -28
14 -38 98 -89 100 -60 124 -67 156 -44 16 13 19 29 22 130 4 112 3 116 -22
141 -29 29 -37 30 -91 7z"/>
<path d="M1006 1346 c-25 -24 -26 -30 -26 -136 0 -97 2 -112 20 -130 11 -11
28 -20 38 -20 22 0 192 96 210 118 21 27 13 57 -25 94 -39 37 -116 81 -165 93
-21 5 -33 1 -52 -19z"/>
<path d="M575 1100 c-23 -26 -33 -165 -16 -228 18 -65 44 -72 119 -32 152 81
185 117 146 161 -25 27 -187 119 -211 119 -11 0 -28 -9 -38 -20z"/>
<path d="M1177 1063 c-139 -82 -142 -106 -21 -180 110 -67 133 -77 160 -65 57
27 61 262 4 292 -30 16 -41 13 -143 -47z"/>
<path d="M916 1019 c-52 -41 -25 -119 41 -119 62 0 87 80 37 119 -15 12 -32
21 -39 21 -7 0 -24 -9 -39 -21z"/>
<path d="M765 823 c-102 -58 -115 -70 -115 -103 0 -53 141 -150 217 -150 52 0
63 27 63 150 0 167 -27 183 -165 103z"/>
<path d="M996 848 c-12 -17 -16 -49 -16 -128 0 -124 11 -150 64 -150 72 0 216
99 216 149 0 34 -13 46 -116 105 -90 51 -125 57 -148 24z"/>
</g>
</svg>
