<?xml version="1.0" standalone="no"?>
<!DOCTYPE svg PUBLIC "-//W3C//DTD SVG 20010904//EN"
 "http://www.w3.org/TR/2001/REC-SVG-20010904/DTD/svg10.dtd">
<svg version="1.0" xmlns="http://www.w3.org/2000/svg"
 width="192.000000pt" height="192.000000pt" viewBox="0 0 192.000000 192.000000"
 preserveAspectRatio="xMidYMid meet">
<metadata>
Created by potrace 1.16, written by Peter Selinger 2001-2019
</metadata>
<g transform="translate(0.000000,192.000000) scale(0.100000,-0.100000)"
fill="#000000" stroke="none">
811 c445 -92 729 -532 635 -987 -62 -301 -295 -546 -601 -630 -91 -26 -329
-26 -420 0 -291 80 -516 305 -596 596 -26 91 -26 329 0 420 120 433 542 692
982 601z"/>
<path d="M580 1250 c-20 -20 -20 -31 -18 -303 l3 -282 160 -3 c169 -3 187 1
199 44 4 13 -1 30 -15 47 -20 26 -24 27 -125 27 l-104 0 0 229 c0 226 0 230
-22 245 -30 21 -54 20 -78 -4z"/>
<path d="M1002 1254 c-22 -15 -22 -17 -22 -289 0 -301 1 -305 60 -305 47 0 60
30 60 142 l0 98 60 0 60 0 0 -98 c0 -112 13 -142 59 -142 52 0 61 24 61 153 0
104 -2 119 -20 134 -19 17 -19 17 0 30 18 13 20 26 20 138 0 160 6 155 -180
155 -106 0 -140 -3 -158 -16z m218 -169 l0 -65 -60 0 -60 0 0 65 0 65 60 0 60
0 0 -65z"/>
</g>
</svg>
