<?xml version="1.0" standalone="no"?>
<!DOCTYPE svg PUBLIC "-//W3C//DTD SVG 20010904//EN"
 "http://www.w3.org/TR/2001/REC-SVG-20010904/DTD/svg10.dtd">
<svg version="1.0" xmlns="http://www.w3.org/2000/svg"
 width="192.000000pt" height="192.000000pt" viewBox="0 0 192.000000 192.000000"
 preserveAspectRatio="xMidYMid meet">
<metadata>
Created by potrace 1.16, written by Peter Selinger 2001-2019
</metadata>
<g transform="translate(0.000000,192.000000) scale(0.100000,-0.100000)"
fill="#000000" stroke="none">
811 c445 -92 729 -532 635 -987 -62 -301 -295 -546 -601 -630 -91 -26 -329
-26 -420 0 -291 80 -516 305 -596 596 -26 91 -26 329 0 420 120 433 542 692
982 601z"/>
<path d="M782 1350 c-71 -34 -159 -115 -191 -178 -40 -78 -51 -147 -51 -317 0
-147 2 -165 23 -205 38 -77 62 -86 245 -94 180 -8 255 1 342 42 72 34 159 122
194 195 29 62 28 90 -5 108 -33 17 -57 1 -82 -55 -46 -99 -135 -168 -239 -183
-80 -12 -344 -1 -360 15 -10 10 -13 58 -13 190 0 171 1 179 26 233 33 71 90
128 154 157 75 34 80 37 83 61 4 26 -23 61 -47 61 -9 0 -44 -13 -79 -30z"/>
<path d="M961 1362 c-25 -48 -10 -66 75 -88 107 -27 194 -106 229 -205 8 -23
15 -52 15 -65 0 -29 41 -58 69 -49 67 21 14 203 -89 305 -60 61 -162 112 -236
118 -45 4 -54 1 -63 -16z"/>
<path d="M883 1206 c-94 -30 -173 -132 -173 -222 0 -50 28 -78 64 -65 20 8 29
26 41 83 3 15 19 43 36 63 91 103 259 38 259 -100 0 -52 -26 -101 -69 -127
-32 -21 -51 -23 -181 -26 -114 -3 -149 -7 -162 -19 -23 -21 -23 -38 2 -63 18
-18 33 -20 151 -20 147 0 197 9 254 48 64 44 99 111 103 197 4 61 0 79 -22
122 -31 63 -86 109 -150 128 -60 18 -97 18 -153 1z"/>
<path d="M884 1036 c-31 -31 -34 -39 -34 -94 0 -76 11 -86 91 -80 54 4 66 8
90 36 63 71 15 172 -82 172 -22 0 -41 -10 -65 -34z"/>
</g>
</svg>
