<?xml version="1.0" standalone="no"?>
<!DOCTYPE svg PUBLIC "-//W3C//DTD SVG 20010904//EN"
 "http://www.w3.org/TR/2001/REC-SVG-20010904/DTD/svg10.dtd">
<svg version="1.0" xmlns="http://www.w3.org/2000/svg"
 width="192.000000pt" height="192.000000pt" viewBox="0 0 192.000000 192.000000"
 preserveAspectRatio="xMidYMid meet">
<metadata>
Created by potrace 1.16, written by Peter Selinger 2001-2019
</metadata>
<g transform="translate(0.000000,192.000000) scale(0.100000,-0.100000)"
fill="#000000" stroke="none">
811 c445 -92 729 -532 635 -987 -62 -301 -295 -546 -601 -630 -91 -26 -329
-26 -420 0 -291 80 -516 305 -596 596 -26 91 -26 329 0 420 120 433 542 692
982 601z"/>
<path d="M1010 1313 c-114 -21 -192 -41 -203 -51 -13 -11 -17 -27 -15 -55 5
-69 14 -70 253 -26 176 32 213 42 228 60 38 47 10 110 -49 108 -16 -1 -112
-17 -214 -36z"/>
<path d="M1015 1154 c-99 -19 -185 -36 -192 -39 -9 -3 -13 -42 -15 -127 l-3
-123 -52 -6 c-84 -11 -133 -62 -133 -141 0 -81 57 -138 140 -138 53 0 93 21
119 63 19 32 21 49 21 210 0 159 2 176 18 181 9 2 58 12 107 21 50 8 102 18
118 21 l27 6 0 -81 0 -81 -32 0 c-55 0 -114 -36 -137 -84 -26 -52 -26 -69 -1
-124 15 -33 29 -47 62 -62 54 -24 72 -24 126 0 33 15 47 29 63 64 18 41 19 64
17 258 l-3 213 -35 2 c-19 0 -116 -14 -215 -33z m155 -368 c0 -40 -21 -60 -54
-52 -56 14 -39 86 19 86 33 0 35 -2 35 -34z m-360 -47 c0 -11 -4 -28 -10 -38
-23 -44 -80 -31 -80 18 0 36 6 41 52 41 32 0 38 -3 38 -21z"/>
</g>
</svg>
