<?xml version="1.0" standalone="no"?>
<!DOCTYPE svg PUBLIC "-//W3C//DTD SVG 20010904//EN"
 "http://www.w3.org/TR/2001/REC-SVG-20010904/DTD/svg10.dtd">
<svg version="1.0" xmlns="http://www.w3.org/2000/svg"
 width="192.000000pt" height="192.000000pt" viewBox="0 0 192.000000 192.000000"
 preserveAspectRatio="xMidYMid meet">
<metadata>
Created by potrace 1.16, written by Peter Selinger 2001-2019
</metadata>
<g transform="translate(0.000000,192.000000) scale(0.100000,-0.100000)"
fill="#000000" stroke="none">
811 c445 -92 729 -532 635 -987 -62 -301 -295 -546 -601 -630 -91 -26 -329
-26 -420 0 -291 80 -516 305 -596 596 -26 91 -26 329 0 420 120 433 542 692
982 601z"/>
<path d="M648 1303 c-49 -49 -96 -100 -104 -115 -30 -58 -13 -116 50 -177 l36
-35 -28 -30 c-55 -59 -72 -89 -72 -123 0 -51 19 -79 117 -174 122 -119 161
-124 253 -33 l46 44 49 -50 c88 -89 133 -80 262 53 69 71 92 102 97 129 9 47
-10 92 -58 137 -20 19 -36 40 -36 46 0 6 18 28 40 50 49 47 66 93 51 136 -13
36 -155 196 -193 215 -15 8 -45 14 -68 14 -36 0 -48 -7 -93 -49 l-52 -49 -53
49 c-49 45 -57 49 -104 49 -50 0 -51 -1 -140 -87z m292 -128 c74 -74 142 -135
150 -135 21 0 40 20 40 40 0 9 -14 29 -31 46 -17 16 -45 46 -61 67 l-31 38 39
40 c21 21 45 39 53 39 9 0 51 -35 93 -77 55 -55 78 -85 78 -102 0 -18 -35 -59
-130 -156 -134 -135 -151 -163 -110 -185 26 -14 42 -5 110 64 l54 56 38 -37
c21 -20 38 -46 38 -57 0 -27 -148 -176 -175 -176 -13 0 -68 49 -156 141 -141
147 -157 156 -186 112 -15 -22 -12 -26 58 -98 l73 -75 -39 -40 c-22 -22 -48
-40 -58 -40 -21 0 -176 157 -177 179 0 8 63 78 140 156 77 78 140 149 140 157
0 20 -21 38 -44 38 -12 0 -49 -29 -88 -67 l-68 -67 -35 34 c-58 57 -57 63 36
156 46 46 90 84 99 84 8 0 76 -61 150 -135z"/>
<path d="M887 1032 c-20 -21 -37 -47 -37 -58 0 -26 70 -94 97 -94 23 0 93 71
93 95 0 24 -70 95 -94 95 -12 0 -38 -17 -59 -38z"/>
</g>
</svg>
