<?xml version="1.0" standalone="no"?>
<!DOCTYPE svg PUBLIC "-//W3C//DTD SVG 20010904//EN"
 "http://www.w3.org/TR/2001/REC-SVG-20010904/DTD/svg10.dtd">
<svg version="1.0" xmlns="http://www.w3.org/2000/svg"
 width="192.000000pt" height="192.000000pt" viewBox="0 0 192.000000 192.000000"
 preserveAspectRatio="xMidYMid meet">
<metadata>
Created by potrace 1.16, written by Peter Selinger 2001-2019
</metadata>
<g transform="translate(0.000000,192.000000) scale(0.100000,-0.100000)"
fill="#000000" stroke="none">
811 c445 -92 729 -532 635 -987 -62 -301 -295 -546 -601 -630 -91 -26 -329
-26 -420 0 -291 80 -516 305 -596 596 -26 91 -26 329 0 420 120 433 542 692
982 601z"/>
<path d="M934 1427 c-10 -6 -22 -15 -26 -21 -4 -6 -8 -205 -8 -443 0 -379 2
-433 16 -447 16 -16 27 -20 54 -16 39 4 40 20 40 465 0 446 -1 454 -41 468 -8
3 -24 0 -35 -6z"/>
<path d="M450 1120 c-31 -31 -26 -74 14 -117 l34 -38 -34 -37 c-43 -48 -45
-88 -8 -117 37 -29 58 -26 104 15 l40 36 40 -36 c47 -43 81 -46 115 -11 35 34
32 68 -11 115 l-36 40 36 40 c41 46 44 67 15 104 -29 37 -69 35 -117 -8 l-37
-34 -38 34 c-43 40 -86 45 -117 14z"/>
<path d="M1151 1114 c-29 -37 -26 -58 15 -104 l36 -40 -36 -40 c-43 -47 -46
-81 -11 -115 34 -35 68 -32 115 11 l40 36 40 -36 c46 -41 67 -44 104 -15 37
29 35 69 -8 117 l-34 37 34 38 c86 93 -10 188 -104 103 l-37 -34 -38 34 c-46
43 -87 45 -116 8z"/>
</g>
</svg>
