<?xml version="1.0" standalone="no"?>
<!DOCTYPE svg PUBLIC "-//W3C//DTD SVG 20010904//EN"
 "http://www.w3.org/TR/2001/REC-SVG-20010904/DTD/svg10.dtd">
<svg version="1.0" xmlns="http://www.w3.org/2000/svg"
 width="192.000000pt" height="192.000000pt" viewBox="0 0 192.000000 192.000000"
 preserveAspectRatio="xMidYMid meet">
<metadata>
Created by potrace 1.16, written by Peter Selinger 2001-2019
</metadata>
<g transform="translate(0.000000,192.000000) scale(0.100000,-0.100000)"
fill="#000000" stroke="none">
811 c445 -92 729 -532 635 -987 -62 -301 -295 -546 -601 -630 -91 -26 -329
-26 -420 0 -291 80 -516 305 -596 596 -26 91 -26 329 0 420 120 433 542 692
982 601z"/>
<path d="M765 1379 c-19 -5 -68 -46 -122 -102 -125 -127 -132 -166 -46 -258
l45 -48 -46 -53 c-81 -93 -76 -133 36 -253 88 -93 120 -115 170 -115 38 0 72
20 116 70 l31 35 43 -41 c54 -52 77 -64 124 -64 35 0 47 9 141 103 l103 103 0
53 c0 49 -3 56 -49 104 l-49 52 49 53 c45 49 49 58 49 102 0 41 -6 56 -38 97
-61 76 -157 160 -189 165 -49 7 -86 -9 -132 -56 l-45 -45 -52 49 c-29 28 -59
50 -68 50 -8 0 -20 2 -28 4 -7 2 -27 0 -43 -5z m448 -167 c42 -44 77 -85 77
-92 0 -7 -61 -74 -135 -149 -74 -76 -135 -144 -135 -152 0 -19 20 -39 39 -39
9 0 45 29 82 66 l66 65 41 -45 c23 -25 42 -51 42 -57 0 -20 -162 -179 -183
-179 -13 0 -70 52 -155 140 -74 77 -142 140 -151 140 -22 0 -41 -19 -41 -41 0
-9 30 -49 66 -88 l67 -72 -39 -40 c-21 -21 -45 -39 -53 -39 -19 0 -181 159
-181 178 0 8 62 79 138 159 75 79 139 149 141 154 4 12 -28 49 -42 49 -5 0
-42 -32 -83 -72 l-74 -72 -40 39 c-22 22 -40 48 -40 58 0 11 35 55 77 98 57
59 83 79 102 79 21 0 53 -28 149 -130 124 -130 150 -148 180 -118 21 21 13 36
-53 107 l-65 68 45 42 c55 50 53 51 158 -57z"/>
<path d="M896 1021 c-31 -31 -37 -45 -32 -64 6 -26 68 -87 88 -87 14 0 98 84
98 99 0 21 -72 91 -94 91 -12 0 -39 -17 -60 -39z"/>
</g>
</svg>
