<?xml version="1.0" standalone="no"?>
<!DOCTYPE svg PUBLIC "-//W3C//DTD SVG 20010904//EN"
 "http://www.w3.org/TR/2001/REC-SVG-20010904/DTD/svg10.dtd">
<svg version="1.0" xmlns="http://www.w3.org/2000/svg"
 width="192.000000pt" height="192.000000pt" viewBox="0 0 192.000000 192.000000"
 preserveAspectRatio="xMidYMid meet">
<metadata>
Created by potrace 1.16, written by Peter Selinger 2001-2019
</metadata>
<g transform="translate(0.000000,192.000000) scale(0.100000,-0.100000)"
fill="#000000" stroke="none">
811 c445 -92 729 -532 635 -987 -62 -301 -295 -546 -601 -630 -91 -26 -329
-26 -420 0 -291 80 -516 305 -596 596 -26 91 -26 329 0 420 120 433 542 692
982 601z"/>
<path d="M865 1366 c-164 -40 -286 -168 -316 -333 -14 -72 -4 -151 27 -229 15
-38 24 -81 24 -115 0 -30 5 -60 12 -67 7 -7 36 -12 65 -12 30 0 70 -7 91 -16
105 -46 190 -54 287 -28 160 41 278 173 305 340 34 209 -114 418 -328 463 -65
14 -102 13 -167 -3z m-147 -378 l3 -78 45 0 c41 0 45 -2 42 -22 -3 -21 -9 -23
-70 -26 l-68 -3 0 106 c0 105 0 106 23 103 20 -3 22 -9 25 -80z m157 -23 c0
-96 -1 -100 -22 -103 -23 -3 -23 -2 -23 103 0 105 0 106 23 103 21 -3 22 -7
22 -103z m113 48 l42 -57 0 57 c0 54 1 57 25 57 l26 0 -3 -102 c-3 -94 -5
-103 -23 -106 -14 -1 -31 14 -60 54 l-40 56 -3 -56 c-3 -53 -5 -57 -25 -54
-21 3 -22 9 -25 92 -2 49 -1 95 2 103 11 28 43 12 84 -44z m252 33 c0 -22 -5
-25 -42 -28 -59 -4 -63 -28 -4 -28 42 0 46 -2 46 -25 0 -23 -4 -25 -46 -25
-59 0 -55 -24 4 -28 37 -3 42 -6 42 -28 0 -24 -1 -25 -67 -22 l-68 3 -3 89
c-2 49 -1 95 2 103 4 9 26 13 71 13 62 0 65 -1 65 -24z"/>
</g>
</svg>
