<?xml version="1.0" standalone="no"?>
<!DOCTYPE svg PUBLIC "-//W3C//DTD SVG 20010904//EN"
 "http://www.w3.org/TR/2001/REC-SVG-20010904/DTD/svg10.dtd">
<svg version="1.0" xmlns="http://www.w3.org/2000/svg"
 width="192.000000pt" height="192.000000pt" viewBox="0 0 192.000000 192.000000"
 preserveAspectRatio="xMidYMid meet">
<metadata>
Created by potrace 1.16, written by Peter Selinger 2001-2019
</metadata>
<g transform="translate(0.000000,192.000000) scale(0.100000,-0.100000)"
fill="#000000" stroke="none">
811 c445 -92 729 -532 635 -987 -62 -301 -295 -546 -601 -630 -91 -26 -329
-26 -420 0 -291 80 -516 305 -596 596 -26 91 -26 329 0 420 120 433 542 692
982 601z"/>
<path d="M851 1364 c-156 -42 -268 -161 -301 -319 -56 -272 183 -524 461 -485
222 31 380 242 348 465 -34 241 -274 402 -508 339z m246 -115 c108 -52 173
-158 173 -282 0 -94 -25 -152 -95 -222 -69 -70 -129 -95 -226 -95 -236 0 -388
256 -278 466 82 155 263 211 426 133z"/>
<path d="M849 1162 c-138 -72 -160 -258 -43 -360 172 -152 432 18 360 235 -44
132 -192 190 -317 125z m172 -85 c75 -49 86 -142 25 -203 -61 -61 -154 -50
-203 25 -42 62 -19 147 48 183 45 24 89 23 130 -5z"/>
</g>
</svg>
