<?xml version="1.0" standalone="no"?>
<!DOCTYPE svg PUBLIC "-//W3C//DTD SVG 20010904//EN"
 "http://www.w3.org/TR/2001/REC-SVG-20010904/DTD/svg10.dtd">
<svg version="1.0" xmlns="http://www.w3.org/2000/svg"
 width="192.000000pt" height="192.000000pt" viewBox="0 0 192.000000 192.000000"
 preserveAspectRatio="xMidYMid meet">
<metadata>
Created by potrace 1.16, written by Peter Selinger 2001-2019
</metadata>
<g transform="translate(0.000000,192.000000) scale(0.100000,-0.100000)"
fill="#000000" stroke="none">
811 c445 -92 729 -532 635 -987 -62 -301 -295 -546 -601 -630 -91 -26 -329
-26 -420 0 -291 80 -516 305 -596 596 -26 91 -26 329 0 420 120 433 542 692
982 601z"/>
<path d="M639 1292 c-55 -55 -100 -109 -104 -125 -12 -48 4 -93 52 -147 l46
-51 -46 -47 c-49 -50 -64 -91 -52 -139 10 -40 181 -211 222 -222 49 -14 93 3
143 54 l44 45 46 -45 c49 -49 90 -66 136 -58 41 8 209 180 223 227 14 52 -2
95 -54 146 l-45 44 46 47 c49 50 66 95 53 144 -6 20 -45 67 -107 128 -97 95
-100 97 -146 97 -43 0 -52 -5 -100 -50 l-52 -50 -35 36 c-45 47 -79 64 -130
64 -40 0 -47 -5 -140 -98z m302 -118 c112 -112 140 -135 157 -130 12 4 24 16
28 28 5 16 -8 35 -62 89 l-68 69 39 40 c21 22 48 40 59 40 31 0 176 -148 176
-180 0 -19 -32 -57 -130 -155 -106 -106 -130 -135 -128 -155 2 -19 10 -26 30
-28 22 -3 38 8 84 57 31 34 62 61 68 61 16 0 76 -76 76 -97 0 -25 -150 -173
-175 -173 -14 0 -69 49 -159 140 -76 77 -144 140 -150 140 -18 0 -36 -22 -36
-44 0 -12 29 -49 67 -88 l67 -68 -39 -40 c-22 -22 -49 -40 -61 -40 -26 0 -174
151 -174 177 0 9 63 81 140 158 77 78 140 148 140 156 0 21 -20 39 -44 39 -12
0 -49 -29 -88 -67 l-68 -67 -40 39 c-22 21 -40 46 -40 54 0 20 160 181 180
181 8 0 76 -61 151 -136z"/>
<path d="M887 1032 c-20 -21 -37 -47 -37 -58 0 -11 18 -37 39 -58 31 -31 45
-37 64 -32 29 7 87 69 87 93 0 22 -74 93 -97 93 -10 0 -36 -17 -56 -38z"/>
</g>
</svg>
