<?xml version="1.0" standalone="no"?>
<!DOCTYPE svg PUBLIC "-//W3C//DTD SVG 20010904//EN"
 "http://www.w3.org/TR/2001/REC-SVG-20010904/DTD/svg10.dtd">
<svg version="1.0" xmlns="http://www.w3.org/2000/svg"
 width="192.000000pt" height="192.000000pt" viewBox="0 0 192.000000 192.000000"
 preserveAspectRatio="xMidYMid meet">
<metadata>
Created by potrace 1.16, written by Peter Selinger 2001-2019
</metadata>
<g transform="translate(0.000000,192.000000) scale(0.100000,-0.100000)"
fill="#000000" stroke="none">
811 c445 -92 729 -532 635 -987 -62 -301 -295 -546 -601 -630 -91 -26 -329
-26 -420 0 -291 80 -516 305 -596 596 -26 91 -26 329 0 420 120 433 542 692
982 601z"/>
<path d="M760 1379 c-31 -12 -186 -164 -206 -201 -29 -55 -17 -97 49 -165 l40
-42 -46 -51 c-84 -93 -77 -139 36 -257 45 -47 94 -91 109 -99 58 -30 116 -13
177 50 l35 36 52 -50 c48 -45 57 -50 100 -50 45 0 49 2 142 93 141 137 150
178 61 272 l-48 51 45 44 c90 90 80 148 -49 278 -120 121 -165 127 -257 36
l-46 -44 -39 41 c-38 40 -90 70 -117 68 -7 0 -24 -5 -38 -10z m191 -214 c74
-74 140 -135 146 -135 17 0 43 29 43 47 0 8 -29 45 -65 82 l-65 67 38 37 c21
20 47 37 58 37 12 0 53 -33 103 -84 71 -73 81 -88 72 -104 -6 -11 -67 -78
-136 -150 -69 -71 -125 -136 -125 -144 0 -19 20 -38 40 -38 8 0 45 29 80 65
l64 65 38 -37 c56 -55 52 -73 -39 -165 -43 -43 -85 -78 -94 -78 -9 0 -79 64
-156 141 -127 128 -143 141 -166 135 -48 -12 -36 -49 40 -127 l67 -69 -39 -40
c-22 -22 -46 -40 -54 -40 -19 0 -181 160 -181 178 0 8 63 79 140 159 77 79
140 150 140 158 0 16 -27 45 -42 45 -5 0 -44 -33 -85 -72 l-75 -73 -39 42
c-21 23 -39 49 -39 57 0 25 149 176 174 176 15 0 66 -44 157 -135z"/>
<path d="M896 1021 c-31 -31 -37 -45 -32 -64 6 -27 69 -87 90 -87 15 0 96 84
96 100 0 20 -73 90 -94 90 -12 0 -39 -17 -60 -39z"/>
</g>
</svg>
