<?xml version="1.0" standalone="no"?>
<!DOCTYPE svg PUBLIC "-//W3C//DTD SVG 20010904//EN"
 "http://www.w3.org/TR/2001/REC-SVG-20010904/DTD/svg10.dtd">
<svg version="1.0" xmlns="http://www.w3.org/2000/svg"
 width="192.000000pt" height="192.000000pt" viewBox="0 0 192.000000 192.000000"
 preserveAspectRatio="xMidYMid meet">
<metadata>
Created by potrace 1.16, written by Peter Selinger 2001-2019
</metadata>
<g transform="translate(0.000000,192.000000) scale(0.100000,-0.100000)"
fill="#000000" stroke="none">
811 c445 -92 729 -532 635 -987 -62 -301 -295 -546 -601 -630 -91 -26 -329
-26 -420 0 -291 80 -516 305 -596 596 -26 91 -26 329 0 420 120 433 542 692
982 601z"/>
<path d="M835 1357 c-194 -65 -304 -221 -293 -417 13 -227 212 -395 447 -377
235 18 415 243 373 468 -25 134 -106 240 -228 300 -60 30 -78 34 -163 36 -60
2 -111 -2 -136 -10z m239 -88 c143 -53 234 -210 206 -357 -58 -318 -498 -368
-634 -73 -32 70 -29 188 5 261 40 85 120 153 209 181 51 15 158 10 214 -12z"/>
<path d="M840 1219 c-133 -60 -199 -205 -155 -340 26 -77 103 -152 180 -175
141 -41 280 18 342 143 69 142 6 307 -141 374 -57 26 -167 25 -226 -2z m208
-80 c110 -54 139 -212 54 -303 -126 -135 -346 -49 -347 136 0 47 5 64 31 100
60 86 166 113 262 67z"/>
<path d="M870 1088 c-38 -26 -70 -81 -70 -119 0 -14 10 -45 23 -69 69 -130
261 -95 275 51 9 95 -49 159 -145 159 -35 0 -60 -7 -83 -22z m132 -75 c24 -21
23 -68 -2 -93 -59 -59 -151 28 -95 90 22 24 72 26 97 3z"/>
</g>
</svg>
