<?xml version="1.0" standalone="no"?>
<!DOCTYPE svg PUBLIC "-//W3C//DTD SVG 20010904//EN"
 "http://www.w3.org/TR/2001/REC-SVG-20010904/DTD/svg10.dtd">
<svg version="1.0" xmlns="http://www.w3.org/2000/svg"
 width="192.000000pt" height="192.000000pt" viewBox="0 0 192.000000 192.000000"
 preserveAspectRatio="xMidYMid meet">
<metadata>
Created by potrace 1.16, written by Peter Selinger 2001-2019
</metadata>
<g transform="translate(0.000000,192.000000) scale(0.100000,-0.100000)"
fill="#000000" stroke="none">
811 c445 -92 729 -532 635 -987 -62 -301 -295 -546 -601 -630 -91 -26 -329
-26 -420 0 -291 80 -516 305 -596 596 -26 91 -26 329 0 420 120 433 542 692
982 601z"/>
<path d="M570 1351 l-30 -29 0 -173 0 -173 208 -208 c163 -164 214 -209 240
-214 33 -7 38 -2 208 167 146 146 174 179 174 204 0 24 -33 62 -210 240 l-210
210 -175 3 -175 3 -30 -30z m169 -93 c14 -25 14 -29 -5 -55 -29 -39 -66 -41
-93 -7 -25 32 -26 42 -5 72 23 33 83 27 103 -10z m143 -325 l107 -107 70 67
c44 43 77 67 92 67 26 0 59 -27 59 -48 0 -8 -41 -57 -92 -108 -124 -127 -117
-127 -272 23 -151 146 -155 153 -133 187 30 45 53 34 169 -81z"/>
</g>
</svg>
