<?xml version="1.0" standalone="no"?>
<!DOCTYPE svg PUBLIC "-//W3C//DTD SVG 20010904//EN"
 "http://www.w3.org/TR/2001/REC-SVG-20010904/DTD/svg10.dtd">
<svg version="1.0" xmlns="http://www.w3.org/2000/svg"
 width="192.000000pt" height="192.000000pt" viewBox="0 0 192.000000 192.000000"
 preserveAspectRatio="xMidYMid meet">
<metadata>
Created by potrace 1.16, written by Peter Selinger 2001-2019
</metadata>
<g transform="translate(0.000000,192.000000) scale(0.100000,-0.100000)"
fill="#000000" stroke="none">
811 c445 -92 729 -532 635 -987 -62 -301 -295 -546 -601 -630 -91 -26 -329
-26 -420 0 -291 80 -516 305 -596 596 -26 91 -26 329 0 420 120 433 542 692
982 601z"/>
<path d="M557 1152 c-22 -25 -21 -48 3 -72 19 -19 33 -20 228 -20 226 0 252 6
252 55 0 52 -13 55 -249 55 -198 0 -219 -2 -234 -18z"/>
<path d="M1126 1109 c-25 -20 -26 -24 -26 -129 0 -105 1 -109 26 -129 15 -12
32 -21 38 -21 6 0 51 23 99 51 96 56 118 83 99 123 -10 22 -173 126 -198 126
-6 0 -23 -9 -38 -21z"/>
<path d="M560 1000 c-11 -11 -20 -27 -20 -35 0 -8 9 -24 20 -35 19 -19 33 -20
233 -20 195 0 215 2 230 18 22 24 21 55 -1 75 -16 15 -47 17 -230 17 -199 0
-213 -1 -232 -20z"/>
<path d="M556 848 c-21 -30 -20 -44 4 -68 19 -19 33 -20 233 -20 195 0 215 2
230 18 22 24 21 55 -1 75 -16 15 -48 17 -235 17 -212 0 -216 0 -231 -22z"/>
</g>
</svg>
