<?xml version="1.0" standalone="no"?>
<!DOCTYPE svg PUBLIC "-//W3C//DTD SVG 20010904//EN"
 "http://www.w3.org/TR/2001/REC-SVG-20010904/DTD/svg10.dtd">
<svg version="1.0" xmlns="http://www.w3.org/2000/svg"
 width="192.000000pt" height="192.000000pt" viewBox="0 0 192.000000 192.000000"
 preserveAspectRatio="xMidYMid meet">
<metadata>
Created by potrace 1.16, written by Peter Selinger 2001-2019
</metadata>
<g transform="translate(0.000000,192.000000) scale(0.100000,-0.100000)"
fill="#000000" stroke="none">
811 c445 -92 729 -532 635 -987 -62 -301 -295 -546 -601 -630 -91 -26 -329
-26 -420 0 -291 80 -516 305 -596 596 -26 91 -26 329 0 420 120 433 542 692
982 601z"/>
<path d="M945 1379 c-70 -9 -141 -48 -201 -111 -89 -93 -108 -150 -54 -156 21
-2 33 7 67 56 100 141 231 174 390 98 73 -35 103 -34 103 3 0 59 -185 126
-305 110z"/>
<path d="M963 1221 c-88 -55 -49 -201 54 -201 69 0 112 42 113 107 0 87 -94
140 -167 94z"/>
<path d="M974 966 c-58 -26 -64 -45 -64 -204 l0 -144 34 -34 c39 -39 77 -44
127 -18 47 24 59 66 59 201 0 126 -8 154 -50 184 -36 26 -70 31 -106 15z"/>
</g>
</svg>
