<?xml version="1.0" standalone="no"?>
<!DOCTYPE svg PUBLIC "-//W3C//DTD SVG 20010904//EN"
 "http://www.w3.org/TR/2001/REC-SVG-20010904/DTD/svg10.dtd">
<svg version="1.0" xmlns="http://www.w3.org/2000/svg"
 width="192.000000pt" height="192.000000pt" viewBox="0 0 192.000000 192.000000"
 preserveAspectRatio="xMidYMid meet">
<metadata>
Created by potrace 1.16, written by Peter Selinger 2001-2019
</metadata>
<g transform="translate(0.000000,192.000000) scale(0.100000,-0.100000)"
fill="#000000" stroke="none">
811 c445 -92 729 -532 635 -987 -62 -301 -295 -546 -601 -630 -91 -26 -329
-26 -420 0 -291 80 -516 305 -596 596 -26 91 -26 329 0 420 120 433 542 692
982 601z"/>
<path d="M695 1321 c-48 -22 -79 -54 -100 -103 -12 -30 -15 -81 -15 -255 0
-245 8 -277 71 -326 53 -40 100 -47 304 -47 204 0 251 7 304 47 63 49 71 81
71 326 0 232 -5 264 -53 316 -50 54 -83 61 -322 61 -193 0 -225 -3 -260 -19z
m135 -196 c17 -20 4 -62 -21 -70 -15 -5 -28 -1 -42 14 -18 17 -19 24 -9 46 13
29 52 34 72 10z m259 -3 c57 -31 71 -70 71 -197 0 -114 -6 -135 -41 -135 -39
0 -49 26 -49 134 0 108 -7 126 -46 126 -38 0 -49 -26 -54 -138 -4 -86 -8 -107
-22 -116 -13 -8 -23 -8 -35 0 -26 16 -31 229 -8 274 33 65 117 88 184 52z
m-251 -202 c2 -76 0 -96 -14 -111 -21 -23 -38 -24 -58 -3 -12 12 -16 37 -16
109 0 85 2 95 22 109 19 13 25 14 43 2 17 -12 20 -26 23 -106z"/>
</g>
</svg>
