<?xml version="1.0" standalone="no"?>
<!DOCTYPE svg PUBLIC "-//W3C//DTD SVG 20010904//EN"
 "http://www.w3.org/TR/2001/REC-SVG-20010904/DTD/svg10.dtd">
<svg version="1.0" xmlns="http://www.w3.org/2000/svg"
 width="192.000000pt" height="192.000000pt" viewBox="0 0 192.000000 192.000000"
 preserveAspectRatio="xMidYMid meet">
<metadata>
Created by potrace 1.16, written by Peter Selinger 2001-2019
</metadata>
<g transform="translate(0.000000,192.000000) scale(0.100000,-0.100000)"
fill="#000000" stroke="none">
811 c445 -92 729 -532 635 -987 -62 -301 -295 -546 -601 -630 -91 -26 -329
-26 -420 0 -291 80 -516 305 -596 596 -26 91 -26 329 0 420 120 433 542 692
982 601z"/>
<path d="M695 1321 c-49 -22 -91 -69 -105 -119 -7 -24 -10 -118 -8 -259 l3
-221 30 -43 c56 -79 77 -84 340 -84 263 0 284 5 340 84 l30 43 3 221 c4 240
-1 276 -45 328 -53 62 -83 69 -328 69 -192 0 -225 -3 -260 -19z m135 -196 c17
-20 5 -62 -21 -70 -24 -8 -59 19 -59 45 0 37 55 55 80 25z m259 -3 c57 -31 71
-70 71 -197 0 -114 -6 -135 -41 -135 -39 0 -49 26 -49 134 0 107 -7 126 -45
126 -38 0 -45 -19 -45 -120 0 -101 -13 -140 -49 -140 -35 0 -41 21 -41 137 0
129 11 162 63 193 40 25 92 25 136 2z m-271 -98 c20 -14 22 -23 22 -109 0 -72
-4 -97 -16 -109 -18 -19 -28 -20 -55 -6 -17 10 -19 22 -19 110 0 76 4 102 16
114 19 20 24 20 52 0z"/>
</g>
</svg>
