<?xml version="1.0" standalone="no"?>
<!DOCTYPE svg PUBLIC "-//W3C//DTD SVG 20010904//EN"
 "http://www.w3.org/TR/2001/REC-SVG-20010904/DTD/svg10.dtd">
<svg version="1.0" xmlns="http://www.w3.org/2000/svg"
 width="192.000000pt" height="192.000000pt" viewBox="0 0 192.000000 192.000000"
 preserveAspectRatio="xMidYMid meet">
<metadata>
Created by potrace 1.16, written by Peter Selinger 2001-2019
</metadata>
<g transform="translate(0.000000,192.000000) scale(0.100000,-0.100000)"
fill="#000000" stroke="none">
811 c445 -92 729 -532 635 -987 -62 -301 -295 -546 -601 -630 -91 -26 -329
-26 -420 0 -291 80 -516 305 -596 596 -26 91 -26 329 0 420 120 433 542 692
982 601z"/>
<path d="M820 1325 c-18 -22 -8 -50 19 -50 28 0 47 25 38 49 -8 20 -40 21 -57
1z"/>
<path d="M1116 1308 c-3 -13 -10 -59 -16 -103 -6 -44 -13 -93 -16 -108 -6 -27
-5 -28 33 -25 37 3 38 4 44 48 l5 45 30 -62 c28 -61 30 -63 66 -63 36 0 37 1
28 25 -5 13 -19 43 -30 65 l-21 41 31 38 c16 22 30 42 30 45 0 3 -15 6 -34 6
-28 0 -41 -8 -66 -37 l-32 -38 7 45 c3 25 8 57 11 73 5 25 3 27 -30 27 -29 0
-37 -4 -40 -22z"/>
<path d="M616 1308 c-3 -7 -10 -55 -16 -106 -16 -123 -9 -132 97 -132 l73 0 0
30 c0 29 -1 30 -51 30 l-52 0 7 58 c4 31 9 74 13 95 l6 37 -37 0 c-21 0 -38
-5 -40 -12z"/>
<path d="M945 1263 c-16 -3 -34 -8 -38 -12 -5 -5 -14 -46 -21 -93 l-12 -85 35
2 36 3 10 63 c7 46 14 64 25 64 12 0 14 -13 12 -67 l-2 -68 33 0 c32 0 35 3
41 38 11 69 7 118 -11 134 -21 18 -66 27 -108 21z"/>
<path d="M791 1185 c-17 -114 -16 -115 22 -115 l34 0 11 83 c16 111 17 107
-22 107 l-34 0 -11 -75z"/>
<path d="M881 1051 c-25 -25 -26 -34 -6 -51 31 -26 81 13 59 47 -16 25 -31 26
-53 4z"/>
<path d="M702 1041 c-10 -6 -122 -233 -122 -248 0 -1 18 -3 39 -3 33 0 40 4
45 26 6 21 11 25 39 22 24 -2 33 -8 35 -25 3 -19 10 -23 36 -23 18 0 35 2 38
5 8 8 -32 228 -44 242 -12 15 -46 17 -66 4z m28 -121 c0 -11 -6 -20 -14 -20
-9 0 -12 7 -9 20 3 11 9 20 14 20 5 0 9 -9 9 -20z"/>
<path d="M1167 1013 c-3 -5 -8 -43 -12 -86 l-7 -79 28 4 c26 3 29 8 41 63 19
95 18 105 -16 105 -17 0 -32 -3 -34 -7z"/>
<path d="M984 972 c-49 -31 -70 -115 -39 -159 8 -11 30 -24 50 -27 41 -8 115
9 115 27 0 7 5 43 10 81 6 38 7 73 2 78 -5 5 -31 11 -58 14 -38 4 -56 1 -80
-14z m64 -79 c-2 -27 -8 -39 -20 -41 -14 -3 -18 3 -18 25 0 28 15 53 33 53 4
0 7 -17 5 -37z"/>
<path d="M856 963 c-3 -10 -8 -45 -12 -78 -9 -78 -18 -102 -44 -110 -16 -5
-19 -12 -14 -28 10 -36 20 -40 57 -22 42 20 62 62 72 155 3 36 9 73 11 83 4
14 -1 17 -30 17 -24 0 -36 -5 -40 -17z"/>
<path d="M1146 824 c-9 -8 -16 -22 -16 -29 0 -18 34 -37 54 -29 21 8 30 42 16
59 -16 19 -35 19 -54 -1z"/>
<path d="M955 703 c-88 -7 -292 -35 -328 -44 -34 -9 -38 -13 -35 -37 3 -24 7
-27 38 -26 19 1 102 13 184 28 82 14 215 31 295 37 189 14 213 17 208 32 -4
12 -262 19 -362 10z"/>
</g>
</svg>
