<?xml version="1.0" standalone="no"?>
<!DOCTYPE svg PUBLIC "-//W3C//DTD SVG 20010904//EN"
 "http://www.w3.org/TR/2001/REC-SVG-20010904/DTD/svg10.dtd">
<svg version="1.0" xmlns="http://www.w3.org/2000/svg"
 width="192.000000pt" height="192.000000pt" viewBox="0 0 192.000000 192.000000"
 preserveAspectRatio="xMidYMid meet">
<metadata>
Created by potrace 1.16, written by Peter Selinger 2001-2019
</metadata>
<g transform="translate(0.000000,192.000000) scale(0.100000,-0.100000)"
fill="#000000" stroke="none">
811 c445 -92 729 -532 635 -987 -62 -301 -295 -546 -601 -630 -91 -26 -329
-26 -420 0 -291 80 -516 305 -596 596 -26 91 -26 329 0 420 120 433 542 692
982 601z"/>
<path d="M699 1320 c-77 -40 -109 -105 -109 -218 l0 -63 22 15 c35 25 56 19
99 -25 30 -30 44 -39 57 -33 9 5 54 9 100 11 95 2 133 19 169 73 39 56 26 93
-17 50 -11 -11 -24 -20 -30 -20 -14 0 -30 36 -21 46 24 26 60 106 54 121 -4
11 -3 14 5 9 7 -4 12 -2 12 5 0 8 7 6 19 -5 11 -10 24 -16 28 -13 11 7 88 -62
79 -70 -3 -4 4 -17 16 -30 16 -18 19 -26 10 -35 -9 -9 -9 -15 0 -25 8 -10 7
-17 -7 -27 -13 -9 -15 -15 -6 -20 6 -4 9 -16 6 -27 -6 -17 -1 -19 43 -19 45 0
53 -4 81 -35 l31 -36 0 118 c0 131 -14 176 -66 225 -48 44 -71 48 -312 48
-204 -1 -231 -3 -263 -20z"/>
<path d="M583 990 c0 -25 2 -35 4 -22 2 12 2 32 0 45 -2 12 -4 2 -4 -23z"/>
<path d="M656 975 c-18 -14 -18 -16 13 -50 39 -45 39 -61 1 -83 -16 -9 -30
-23 -30 -29 0 -18 -19 -16 -27 3 -3 8 4 25 16 38 l21 22 -30 29 -30 29 0 -85
c0 -98 12 -149 44 -186 l23 -27 7 47 c4 26 4 56 1 67 -5 15 2 31 24 55 25 29
30 43 29 78 -1 23 2 53 6 66 8 22 6 23 -18 19 -20 -4 -26 -2 -22 8 7 18 -4 17
-28 -1z"/>
<path d="M1210 965 l-25 -14 37 -1 c37 0 38 -1 73 -76 34 -74 44 -124 26 -124
-13 0 -33 27 -30 42 1 7 -1 22 -5 33 -34 92 -46 100 -104 65 -48 -30 -124 -45
-219 -44 -72 0 -84 -2 -89 -18 -3 -10 -22 -34 -42 -54 l-36 -35 19 -35 c10
-19 34 -52 52 -74 l35 -40 143 0 c154 0 184 6 229 48 46 44 65 97 67 187 0 44
3 73 6 65 11 -28 53 -42 53 -17 -1 12 -45 67 -55 67 -3 0 -5 -7 -5 -15 0 -10
-12 -2 -31 20 -34 38 -59 43 -99 20z"/>
<path d="M743 775 c-40 -17 -53 -42 -53 -99 0 -68 22 -86 107 -86 63 0 65 1
50 18 -10 10 -17 23 -17 28 0 6 -17 30 -37 53 -33 39 -36 46 -26 72 6 16 11
29 10 29 -1 -1 -16 -7 -34 -15z"/>
</g>
</svg>
