<?xml version="1.0" standalone="no"?>
<!DOCTYPE svg PUBLIC "-//W3C//DTD SVG 20010904//EN"
 "http://www.w3.org/TR/2001/REC-SVG-20010904/DTD/svg10.dtd">
<svg version="1.0" xmlns="http://www.w3.org/2000/svg"
 width="192.000000pt" height="192.000000pt" viewBox="0 0 192.000000 192.000000"
 preserveAspectRatio="xMidYMid meet">
<metadata>
Created by potrace 1.16, written by Peter Selinger 2001-2019
</metadata>
<g transform="translate(0.000000,192.000000) scale(0.100000,-0.100000)"
fill="#000000" stroke="none">
811 c445 -92 729 -532 635 -987 -62 -301 -295 -546 -601 -630 -91 -26 -329
-26 -420 0 -291 80 -516 305 -596 596 -26 91 -26 329 0 420 120 433 542 692
982 601z"/>
<path d="M649 1281 c-37 -38 -39 -88 -5 -128 l24 -28 224 -5 223 -5 5 -222 c5
-208 6 -224 26 -243 11 -11 37 -23 57 -27 32 -5 41 -1 72 30 l35 35 0 289 c0
245 -2 292 -16 311 -15 22 -16 22 -315 22 l-301 0 -29 -29z"/>
<path d="M640 990 c-26 -26 -26 -72 1 -96 17 -16 40 -20 125 -22 l104 -4 0
-99 c0 -93 2 -102 25 -124 31 -32 59 -32 90 0 24 23 25 28 25 172 0 205 12
193 -191 193 -146 0 -161 -2 -179 -20z"/>
<path d="M616 768 c-9 -12 -16 -26 -16 -31 0 -4 23 -33 51 -63 80 -83 129 -73
129 28 0 69 -20 88 -90 88 -49 0 -61 -4 -74 -22z"/>
</g>
</svg>
