<?xml version="1.0" standalone="no"?>
<!DOCTYPE svg PUBLIC "-//W3C//DTD SVG 20010904//EN"
 "http://www.w3.org/TR/2001/REC-SVG-20010904/DTD/svg10.dtd">
<svg version="1.0" xmlns="http://www.w3.org/2000/svg"
 width="192.000000pt" height="192.000000pt" viewBox="0 0 192.000000 192.000000"
 preserveAspectRatio="xMidYMid meet">
<metadata>
Created by potrace 1.16, written by Peter Selinger 2001-2019
</metadata>
<g transform="translate(0.000000,192.000000) scale(0.100000,-0.100000)"
fill="#000000" stroke="none">
811 c445 -92 729 -532 635 -987 -62 -301 -295 -546 -601 -630 -91 -26 -329
-26 -420 0 -291 80 -516 305 -596 596 -26 91 -26 329 0 420 120 433 542 692
982 601z"/>
<path d="M945 1322 c-126 -19 -231 -36 -233 -37 -1 -1 4 -18 13 -38 8 -19 22
-82 31 -139 9 -57 20 -107 24 -111 6 -6 449 51 529 69 23 5 24 6 17 87 -9 113
-21 151 -57 181 -38 32 -38 32 -324 -12z"/>
<path d="M670 1260 c-12 -22 12 -289 46 -522 15 -96 15 -110 1 -137 l-15 -31
294 0 294 0 16 25 c11 17 15 39 12 67 -13 120 -40 336 -46 358 l-7 26 -180
-27 -180 -26 150 -4 c125 -3 150 -7 150 -19 0 -13 -32 -15 -216 -18 l-216 -2
-6 32 c-42 241 -49 269 -72 288 -11 9 -16 7 -25 -10z m545 -390 c0 -13 -30
-15 -212 -15 -134 0 -214 4 -215 10 -5 16 67 22 252 21 148 -1 175 -3 175 -16z
m15 -94 c0 -22 -34 -26 -237 -26 -162 0 -193 2 -193 15 0 16 44 20 278 23 124
2 152 -1 152 -12z m23 -103 c4 -3 2 -12 -4 -20 -9 -10 -58 -13 -220 -13 -200
0 -230 4 -214 30 7 11 427 14 438 3z"/>
<path d="M587 913 c-13 -12 -7 -217 7 -256 18 -50 44 -77 73 -77 39 0 48 36
35 133 -6 45 -14 110 -18 145 l-6 62 -42 0 c-24 0 -46 -3 -49 -7z"/>
</g>
</svg>
