<?xml version="1.0" standalone="no"?>
<!DOCTYPE svg PUBLIC "-//W3C//DTD SVG 20010904//EN"
 "http://www.w3.org/TR/2001/REC-SVG-20010904/DTD/svg10.dtd">
<svg version="1.0" xmlns="http://www.w3.org/2000/svg"
 width="192.000000pt" height="192.000000pt" viewBox="0 0 192.000000 192.000000"
 preserveAspectRatio="xMidYMid meet">
<metadata>
Created by potrace 1.16, written by Peter Selinger 2001-2019
</metadata>
<g transform="translate(0.000000,192.000000) scale(0.100000,-0.100000)"
fill="#000000" stroke="none">
811 c445 -92 729 -532 635 -987 -62 -301 -295 -546 -601 -630 -91 -26 -329
-26 -420 0 -291 80 -516 305 -596 596 -26 91 -26 329 0 420 120 433 542 692
982 601z"/>
<path d="M684 1236 l-89 -85 342 -1 c399 0 376 -6 371 99 l-3 66 -266 3 -266
2 -89 -84z"/>
<path d="M618 1129 c-14 -8 -18 -24 -18 -72 0 -36 5 -68 12 -75 7 -7 37 -12
68 -12 31 0 61 5 68 12 7 7 12 39 12 75 0 51 -3 64 -19 73 -25 13 -101 13
-123 -1z"/>
<path d="M798 1133 c-32 -8 -37 -135 -6 -155 22 -13 492 -10 506 4 7 7 12 39
12 75 0 51 -3 64 -19 73 -19 10 -456 13 -493 3z"/>
<path d="M612 948 c-7 -7 -12 -38 -12 -70 0 -66 12 -78 80 -78 68 0 80 12 80
78 0 32 -5 63 -12 70 -7 7 -37 12 -68 12 -31 0 -61 -5 -68 -12z"/>
<path d="M785 943 c-13 -13 -16 -29 -13 -70 3 -29 8 -56 12 -60 13 -13 483
-15 506 -3 16 9 20 21 20 68 0 32 -5 63 -12 70 -9 9 -79 12 -254 12 -214 0
-245 -2 -259 -17z"/>
<path d="M612 781 c-9 -5 -12 -30 -10 -87 l3 -79 69 -3 c49 -2 72 1 77 10 13
20 11 142 -3 156 -14 14 -116 16 -136 3z"/>
<path d="M780 771 c-5 -11 -10 -43 -10 -71 0 -92 -4 -90 193 -90 l172 0 83 83
c45 45 82 86 82 90 0 4 -115 7 -255 7 -241 0 -255 -1 -265 -19z"/>
</g>
</svg>
