<?xml version="1.0" standalone="no"?>
<!DOCTYPE svg PUBLIC "-//W3C//DTD SVG 20010904//EN"
 "http://www.w3.org/TR/2001/REC-SVG-20010904/DTD/svg10.dtd">
<svg version="1.0" xmlns="http://www.w3.org/2000/svg"
 width="192.000000pt" height="192.000000pt" viewBox="0 0 192.000000 192.000000"
 preserveAspectRatio="xMidYMid meet">
<metadata>
Created by potrace 1.16, written by Peter Selinger 2001-2019
</metadata>
<g transform="translate(0.000000,192.000000) scale(0.100000,-0.100000)"
fill="#000000" stroke="none">
811 c445 -92 729 -532 635 -987 -62 -301 -295 -546 -601 -630 -91 -26 -329
-26 -420 0 -291 80 -516 305 -596 596 -26 91 -26 329 0 420 120 433 542 692
982 601z"/>
<path d="M712 1329 c-45 -13 -105 -76 -120 -125 -15 -51 -16 -423 -2 -476 14
-48 53 -94 101 -118 35 -18 60 -20 264 -20 251 0 274 5 328 70 43 50 49 94 45
329 -3 207 -4 218 -27 254 -13 21 -42 50 -64 65 l-40 27 -226 2 c-125 1 -241
-3 -259 -8z m158 -114 c43 -22 60 -53 60 -108 0 -42 -5 -54 -34 -83 -29 -29
-41 -34 -80 -34 -53 0 -90 20 -112 61 -29 58 -7 135 48 165 31 18 83 17 118
-1z"/>
</g>
</svg>
