<?xml version="1.0" standalone="no"?>
<!DOCTYPE svg PUBLIC "-//W3C//DTD SVG 20010904//EN"
 "http://www.w3.org/TR/2001/REC-SVG-20010904/DTD/svg10.dtd">
<svg version="1.0" xmlns="http://www.w3.org/2000/svg"
 width="192.000000pt" height="192.000000pt" viewBox="0 0 192.000000 192.000000"
 preserveAspectRatio="xMidYMid meet">
<metadata>
Created by potrace 1.16, written by Peter Selinger 2001-2019
</metadata>
<g transform="translate(0.000000,192.000000) scale(0.100000,-0.100000)"
fill="#000000" stroke="none">
811 c445 -92 729 -532 635 -987 -62 -301 -295 -546 -601 -630 -91 -26 -329
-26 -420 0 -291 80 -516 305 -596 596 -26 91 -26 329 0 420 120 433 542 692
982 601z"/>
<path d="M666 1304 c-14 -13 -16 -50 -16 -247 0 -128 4 -238 8 -245 10 -14
260 -82 303 -82 31 0 271 54 288 64 7 5 11 88 11 255 0 211 -2 250 -15 261
-13 11 -41 8 -154 -11 l-139 -23 -120 22 c-143 26 -146 26 -166 6z"/>
<path d="M561 1214 c-20 -15 -21 -22 -21 -247 0 -128 4 -238 9 -245 4 -8 98
-36 207 -64 l199 -50 190 38 c105 20 198 41 208 46 15 8 17 30 17 253 0 237
-1 245 -21 255 -15 9 -24 8 -35 -1 -11 -9 -14 -52 -14 -225 0 -123 -4 -215 -9
-219 -6 -3 -83 -20 -173 -38 l-163 -33 -165 41 -165 41 -5 225 c-3 123 -7 225
-8 225 -15 11 -34 10 -51 -2z"/>
</g>
</svg>
