<?xml version="1.0" standalone="no"?>
<!DOCTYPE svg PUBLIC "-//W3C//DTD SVG 20010904//EN"
 "http://www.w3.org/TR/2001/REC-SVG-20010904/DTD/svg10.dtd">
<svg version="1.0" xmlns="http://www.w3.org/2000/svg"
 width="192.000000pt" height="192.000000pt" viewBox="0 0 192.000000 192.000000"
 preserveAspectRatio="xMidYMid meet">
<metadata>
Created by potrace 1.16, written by Peter Selinger 2001-2019
</metadata>
<g transform="translate(0.000000,192.000000) scale(0.100000,-0.100000)"
fill="#000000" stroke="none">
811 c445 -92 729 -532 635 -987 -62 -301 -295 -546 -601 -630 -91 -26 -329
-26 -420 0 -291 80 -516 305 -596 596 -26 91 -26 329 0 420 120 433 542 692
982 601z"/>
<path d="M546 1335 c-3 -9 -6 -171 -6 -360 l0 -344 24 -28 24 -28 195 -3 c169
-3 197 -1 211 13 12 12 13 21 6 36 -10 18 -23 19 -183 19 -123 0 -178 4 -190
13 -15 11 -17 47 -19 352 l-3 340 -26 3 c-17 2 -29 -3 -33 -13z"/>
<path d="M636 1335 c-3 -9 -6 -157 -6 -329 0 -229 3 -315 12 -324 8 -8 63 -12
180 -12 151 0 168 2 177 18 21 39 0 47 -151 52 l-143 5 -5 300 -5 300 -26 3
c-17 2 -29 -3 -33 -13z"/>
<path d="M732 1338 c-16 -16 -17 -529 -2 -559 10 -17 22 -19 135 -19 111 0
125 2 134 19 20 37 -6 50 -109 53 l-95 3 -5 255 c-5 246 -6 255 -25 258 -11 1
-26 -3 -33 -10z"/>
<path d="M822 1338 c-9 -9 -12 -71 -12 -234 0 -263 -4 -254 100 -254 78 0 108
17 90 50 -8 14 -24 20 -63 22 l-52 3 -5 210 c-5 201 -6 210 -25 213 -11 1 -26
-3 -33 -10z"/>
<path d="M917 1343 c-4 -3 -7 -16 -7 -29 0 -31 20 -34 211 -34 143 0 168 -2
173 -16 3 -9 6 -164 6 -344 0 -301 1 -330 17 -339 11 -6 24 -6 35 0 17 9 18
35 18 365 l0 355 -25 24 c-24 25 -25 25 -223 25 -109 0 -202 -3 -205 -7z"/>
<path d="M914 1246 c-3 -8 -4 -23 -2 -33 3 -16 17 -18 143 -21 96 -2 142 -6
147 -15 4 -7 8 -141 8 -299 0 -265 1 -288 18 -297 11 -6 24 -6 35 0 16 9 17
38 17 332 0 238 -3 326 -12 335 -8 8 -63 12 -180 12 -138 0 -170 -3 -174 -14z"/>
<path d="M922 1161 c-8 -4 -12 -19 -10 -32 3 -23 7 -24 103 -29 l100 -5 3
-251 c3 -271 6 -289 51 -264 20 10 21 18 21 285 0 235 -2 276 -16 289 -12 13
-39 16 -127 16 -62 0 -118 -4 -125 -9z"/>
<path d="M917 1063 c-4 -3 -7 -17 -7 -29 0 -25 14 -31 80 -36 l35 -3 3 -199
c3 -222 12 -255 56 -210 14 13 16 49 16 234 0 120 -3 225 -6 234 -5 13 -23 16
-88 16 -46 0 -86 -3 -89 -7z"/>
</g>
</svg>
