<?xml version="1.0" standalone="no"?>
<!DOCTYPE svg PUBLIC "-//W3C//DTD SVG 20010904//EN"
 "http://www.w3.org/TR/2001/REC-SVG-20010904/DTD/svg10.dtd">
<svg version="1.0" xmlns="http://www.w3.org/2000/svg"
 width="192.000000pt" height="192.000000pt" viewBox="0 0 192.000000 192.000000"
 preserveAspectRatio="xMidYMid meet">
<metadata>
Created by potrace 1.16, written by Peter Selinger 2001-2019
</metadata>
<g transform="translate(0.000000,192.000000) scale(0.100000,-0.100000)"
fill="#000000" stroke="none">
810 c245 -63 441 -223 549 -451 55 -116 75 -212 75 -354 0 -141 -20 -238 -75
-352 -86 -182 -215 -312 -396 -398 -116 -55 -212 -75 -354 -75 -142 0 -238 20
-354 75 -228 108 -388 304 -451 549 -28 110 -28 292 0 402 76 298 303 526 600
603 106 28 298 28 406 1z"/>
<path d="M865 1356 c-204 -49 -344 -260 -306 -457 34 -169 161 -297 330 -330
208 -40 421 113 462 332 37 204 -109 414 -319 458 -65 14 -102 13 -167 -3z
m229 -110 c62 -31 118 -89 149 -156 29 -63 29 -187 0 -250 -31 -68 -87 -125
-151 -157 -48 -24 -70 -28 -137 -28 -67 0 -89 4 -137 28 -207 102 -236 384
-55 530 88 72 224 85 331 33z"/>
<path d="M874 1212 c-62 -22 -101 -51 -136 -103 -102 -152 -18 -356 163 -399
177 -43 352 132 309 309 -23 97 -90 168 -184 196 -63 19 -89 18 -152 -3z"/>
</g>
</svg>
