<?xml version="1.0" standalone="no"?>
<!DOCTYPE svg PUBLIC "-//W3C//DTD SVG 20010904//EN"
 "http://www.w3.org/TR/2001/REC-SVG-20010904/DTD/svg10.dtd">
<svg version="1.0" xmlns="http://www.w3.org/2000/svg"
 width="192.000000pt" height="192.000000pt" viewBox="0 0 192.000000 192.000000"
 preserveAspectRatio="xMidYMid meet">
<metadata>
Created by potrace 1.16, written by Peter Selinger 2001-2019
</metadata>
<g transform="translate(0.000000,192.000000) scale(0.100000,-0.100000)"
fill="#000000" stroke="none">
811 c445 -92 729 -532 635 -987 -62 -301 -295 -546 -601 -630 -91 -26 -329
-26 -420 0 -291 80 -516 305 -596 596 -26 91 -26 329 0 420 120 433 542 692
982 601z"/>
<path d="M797 1280 c-91 -23 -177 -93 -219 -178 -51 -105 -31 -259 47 -350
l36 -41 -31 -16 c-68 -35 -15 -50 185 -50 133 0 143 1 197 28 61 30 144 113
154 153 3 13 7 24 9 24 1 0 28 -9 60 -20 32 -11 67 -18 77 -14 43 13 48 30 48
165 0 118 -2 131 -21 150 -24 24 -46 22 -123 -7 l-48 -19 -17 25 c-77 117
-228 181 -354 150z m7 -286 c33 -32 7 -94 -40 -94 -24 0 -54 33 -54 59 0 42
63 66 94 35z m218 -1 c22 -20 23 -51 1 -75 -31 -35 -93 -10 -93 38 0 48 55 70
92 37z"/>
</g>
</svg>
