<?xml version="1.0" standalone="no"?>
<!DOCTYPE svg PUBLIC "-//W3C//DTD SVG 20010904//EN"
 "http://www.w3.org/TR/2001/REC-SVG-20010904/DTD/svg10.dtd">
<svg version="1.0" xmlns="http://www.w3.org/2000/svg"
 width="192.000000pt" height="192.000000pt" viewBox="0 0 192.000000 192.000000"
 preserveAspectRatio="xMidYMid meet">
<metadata>
Created by potrace 1.16, written by Peter Selinger 2001-2019
</metadata>
<g transform="translate(0.000000,192.000000) scale(0.100000,-0.100000)"
fill="#000000" stroke="none">
811 c445 -92 729 -532 635 -987 -62 -301 -295 -546 -601 -630 -91 -26 -329
-26 -420 0 -291 80 -516 305 -596 596 -26 91 -26 329 0 420 120 433 542 692
982 601z"/>
<path d="M823 1351 c-270 -100 -359 -425 -178 -647 76 -93 214 -151 334 -141
101 8 172 40 245 107 214 201 162 539 -102 663 -88 41 -216 49 -299 18z m77
-110 l54 -39 53 39 c28 22 58 39 66 39 18 0 97 -52 125 -82 l22 -24 -20 -59
c-11 -32 -20 -63 -20 -69 0 -6 25 -29 56 -51 54 -39 55 -40 48 -80 -3 -22 -15
-61 -26 -87 l-20 -48 -74 0 -73 0 -22 -69 c-25 -76 -34 -82 -123 -80 -77 2
-86 8 -109 79 l-22 65 -73 3 -74 3 -19 44 c-10 24 -22 63 -25 87 -6 44 -6 44
51 87 31 23 55 48 52 54 -2 7 -12 36 -22 65 l-17 54 33 35 c32 33 93 72 114
73 6 0 35 -17 65 -39z"/>
<path d="M868 1075 l-76 -55 31 -95 32 -96 99 3 99 3 29 85 c15 46 28 89 28
95 0 11 -142 115 -157 115 -5 0 -43 -25 -85 -55z m34 -97 c2 -36 7 -44 26 -46
35 -5 26 -22 -13 -22 l-35 0 0 55 c0 65 17 74 22 13z m128 26 c0 -12 -6 -15
-25 -10 -14 4 -25 2 -25 -3 0 -5 10 -11 23 -13 17 -2 22 -10 22 -33 0 -27 -4
-30 -32 -33 -25 -3 -33 1 -33 13 0 12 6 15 20 10 14 -5 20 -2 20 9 0 9 -9 16
-20 16 -16 0 -20 7 -20 30 0 28 3 30 35 30 25 0 35 -4 35 -16z"/>
</g>
</svg>
