<?xml version="1.0" standalone="no"?>
<!DOCTYPE svg PUBLIC "-//W3C//DTD SVG 20010904//EN"
 "http://www.w3.org/TR/2001/REC-SVG-20010904/DTD/svg10.dtd">
<svg version="1.0" xmlns="http://www.w3.org/2000/svg"
 width="192.000000pt" height="192.000000pt" viewBox="0 0 192.000000 192.000000"
 preserveAspectRatio="xMidYMid meet">
<metadata>
Created by potrace 1.16, written by Peter Selinger 2001-2019
</metadata>
<g transform="translate(0.000000,192.000000) scale(0.100000,-0.100000)"
fill="#000000" stroke="none">
811 c445 -92 729 -532 635 -987 -62 -301 -295 -546 -601 -630 -91 -26 -329
-26 -420 0 -291 80 -516 305 -596 596 -26 91 -26 329 0 420 120 433 542 692
982 601z"/>
<path d="M580 1157 c-24 -54 -45 -212 -35 -273 7 -49 41 -94 70 -94 9 0 26 11
38 24 22 24 23 24 35 5 21 -33 50 -24 63 22 l13 40 13 -51 c18 -70 29 -89 58
-96 39 -10 73 19 88 73 6 25 19 47 27 50 8 2 22 8 30 12 11 6 18 1 26 -22 17
-48 41 -57 68 -25 l24 26 11 -25 c9 -19 17 -24 39 -21 21 2 32 14 52 53 l25
50 7 -48 c8 -57 22 -77 53 -77 24 0 40 27 65 103 18 59 5 67 -20 12 -19 -43
-23 -47 -30 -30 -5 11 -9 39 -9 62 -1 59 -9 73 -40 73 -21 0 -32 -9 -50 -40
-12 -22 -23 -40 -25 -40 -1 0 -2 24 -1 53 0 45 -3 52 -20 55 -16 2 -24 -9 -43
-61 -13 -36 -30 -73 -38 -83 -14 -17 -15 -12 -9 59 3 42 4 77 1 77 -2 0 -12 3
-20 6 -18 7 -46 -48 -46 -90 0 -22 -34 -55 -45 -44 -2 2 2 25 8 52 10 43 9 50
-8 62 -25 18 -31 18 -55 -6 -22 -22 -26 -70 -9 -101 12 -23 -8 -92 -25 -86
-15 5 -34 74 -35 123 -1 45 -21 80 -42 72 -8 -3 -22 -35 -33 -72 -22 -77 -41
-89 -32 -18 12 98 12 97 -11 100 -19 3 -24 -5 -37 -49 -9 -29 -16 -60 -16 -69
0 -9 -7 -25 -15 -36 -21 -28 -32 -6 -41 83 -5 62 -3 83 15 129 28 74 28 124 0
124 -14 0 -26 -12 -39 -43z m41 -38 c-6 -16 -10 -18 -10 -7 -1 22 12 55 16 42
2 -6 -1 -22 -6 -35z"/>
<path d="M710 1125 c0 -8 10 -19 21 -26 17 -9 25 -8 36 4 21 20 8 37 -28 37
-19 0 -29 -5 -29 -15z"/>
<path d="M1050 1126 c0 -20 27 -39 45 -32 8 3 15 15 15 26 0 16 -7 20 -30 20
-19 0 -30 -5 -30 -14z"/>
<path d="M1317 1104 c-10 -11 -8 -84 2 -84 20 0 42 34 39 59 -3 25 -26 39 -41
25z"/>
</g>
</svg>
