<?xml version="1.0" standalone="no"?>
<!DOCTYPE svg PUBLIC "-//W3C//DTD SVG 20010904//EN"
 "http://www.w3.org/TR/2001/REC-SVG-20010904/DTD/svg10.dtd">
<svg version="1.0" xmlns="http://www.w3.org/2000/svg"
 width="192.000000pt" height="192.000000pt" viewBox="0 0 192.000000 192.000000"
 preserveAspectRatio="xMidYMid meet">
<metadata>
Created by potrace 1.16, written by Peter Selinger 2001-2019
</metadata>
<g transform="translate(0.000000,192.000000) scale(0.100000,-0.100000)"
fill="#000000" stroke="none">
811 c445 -92 729 -532 635 -987 -62 -301 -295 -546 -601 -630 -91 -26 -329
-26 -420 0 -291 80 -516 305 -596 596 -26 91 -26 329 0 420 120 433 542 692
982 601z"/>
<path d="M858 1363 c-22 -6 -23 -27 -2 -47 11 -12 36 -16 99 -16 63 0 88 4 99
16 22 22 20 41 -6 48 -26 7 -164 6 -190 -1z"/>
<path d="M668 1250 c-76 -76 -85 -106 -32 -104 22 1 44 15 81 52 55 55 66 75
58 103 -11 33 -35 21 -107 -51z"/>
<path d="M1135 1300 c-8 -25 3 -45 59 -103 82 -84 152 -71 85 16 -34 45 -108
107 -127 107 -6 0 -13 -9 -17 -20z"/>
<path d="M866 1220 c-66 -20 -138 -91 -165 -163 -18 -46 -13 -157 8 -203 23
-51 75 -104 127 -130 55 -27 183 -27 238 0 95 48 146 131 146 241 0 114 -57
203 -157 246 -47 20 -144 24 -197 9z"/>
<path d="M555 1059 c-4 -12 -7 -54 -7 -94 0 -111 16 -140 55 -97 25 28 24 172
-1 195 -25 23 -39 21 -47 -4z"/>
<path d="M1307 1062 c-25 -28 -24 -172 1 -195 41 -37 54 -13 54 98 0 111 -16
140 -55 97z"/>
<path d="M604 775 c-8 -19 24 -63 87 -119 54 -49 73 -56 83 -30 12 32 5 45
-55 104 -61 61 -103 77 -115 45z"/>
<path d="M1197 737 c-57 -55 -75 -91 -58 -117 14 -21 51 2 117 73 58 63 65 90
23 95 -19 2 -39 -10 -82 -51z"/>
<path d="M856 614 c-39 -39 -12 -54 99 -54 111 0 138 15 99 54 -11 12 -36 16
-99 16 -63 0 -88 -4 -99 -16z"/>
</g>
</svg>
