<?xml version="1.0" standalone="no"?>
<!DOCTYPE svg PUBLIC "-//W3C//DTD SVG 20010904//EN"
 "http://www.w3.org/TR/2001/REC-SVG-20010904/DTD/svg10.dtd">
<svg version="1.0" xmlns="http://www.w3.org/2000/svg"
 width="192.000000pt" height="192.000000pt" viewBox="0 0 192.000000 192.000000"
 preserveAspectRatio="xMidYMid meet">
<metadata>
Created by potrace 1.16, written by Peter Selinger 2001-2019
</metadata>
<g transform="translate(0.000000,192.000000) scale(0.100000,-0.100000)"
fill="#000000" stroke="none">
811 c445 -92 729 -532 635 -987 -62 -301 -295 -546 -601 -630 -91 -26 -329
-26 -420 0 -291 80 -516 305 -596 596 -26 91 -26 329 0 420 120 433 542 692
982 601z"/>
<path d="M613 1300 c-65 -39 -68 -51 -68 -285 0 -188 2 -213 19 -241 31 -52
63 -64 165 -64 78 0 90 -2 84 -16 -3 -8 -16 -20 -29 -25 -13 -4 -24 -15 -24
-23 0 -32 26 -37 201 -34 168 3 174 4 177 24 2 14 -6 27 -22 38 -44 28 -30 36
62 36 99 0 126 11 159 59 22 33 23 42 23 245 0 194 -2 214 -20 244 -36 59 -56
62 -392 62 -283 0 -305 -1 -335 -20z m120 -95 c107 -28 187 -83 248 -172 36
-52 69 -143 69 -189 0 -58 -64 -71 -76 -15 -24 106 -51 157 -119 219 -41 38
-71 56 -113 68 -79 22 -106 37 -111 59 -3 16 22 45 39 45 3 0 32 -7 63 -15z
m3 -150 c81 -34 151 -117 169 -202 5 -25 2 -34 -16 -47 -31 -21 -56 -5 -69 44
-14 53 -59 102 -112 124 -66 28 -73 32 -76 50 -9 43 40 58 104 31z m-12 -164
c40 -44 -8 -115 -58 -89 -41 22 -47 57 -16 88 25 25 52 25 74 1z m294 -203 c3
-16 -5 -18 -66 -18 -66 0 -70 1 -65 20 5 19 12 21 67 18 49 -2 61 -7 64 -20z"/>
</g>
</svg>
