<?xml version="1.0" standalone="no"?>
<!DOCTYPE svg PUBLIC "-//W3C//DTD SVG 20010904//EN"
 "http://www.w3.org/TR/2001/REC-SVG-20010904/DTD/svg10.dtd">
<svg version="1.0" xmlns="http://www.w3.org/2000/svg"
 width="192.000000pt" height="192.000000pt" viewBox="0 0 192.000000 192.000000"
 preserveAspectRatio="xMidYMid meet">
<metadata>
Created by potrace 1.16, written by Peter Selinger 2001-2019
</metadata>
<g transform="translate(0.000000,192.000000) scale(0.100000,-0.100000)"
fill="#000000" stroke="none">
811 c445 -92 729 -532 635 -987 -62 -301 -295 -546 -601 -630 -91 -26 -329
-26 -420 0 -291 80 -516 305 -596 596 -26 91 -26 329 0 420 120 433 542 692
982 601z"/>
<path d="M901 1370 c-90 -22 -161 -112 -161 -203 0 -41 -5 -55 -31 -85 -52
-59 -73 -117 -73 -203 -1 -68 3 -84 34 -145 39 -76 103 -133 179 -159 62 -21
160 -19 221 4 204 77 273 341 133 502 -25 28 -31 45 -35 96 -3 45 -11 72 -31
102 -48 72 -152 112 -236 91z m127 -108 c22 -14 58 -70 50 -78 -2 -2 -32 2
-65 8 -46 8 -75 8 -119 0 -31 -7 -59 -10 -61 -8 -3 2 2 17 11 34 34 67 119 87
184 44z m22 -179 c97 -39 152 -148 129 -254 -41 -189 -288 -245 -406 -91 -35
46 -56 124 -46 174 19 101 87 166 198 191 27 6 83 -3 125 -20z"/>
<path d="M893 1000 c-140 -63 -92 -272 62 -272 153 0 201 200 65 270 -54 27
-73 27 -127 2z m129 -85 c-6 -35 -16 -38 -38 -14 -16 17 -16 22 -4 29 29 19
48 12 42 -15z"/>
</g>
</svg>
