<?xml version="1.0" standalone="no"?>
<!DOCTYPE svg PUBLIC "-//W3C//DTD SVG 20010904//EN"
 "http://www.w3.org/TR/2001/REC-SVG-20010904/DTD/svg10.dtd">
<svg version="1.0" xmlns="http://www.w3.org/2000/svg"
 width="192.000000pt" height="192.000000pt" viewBox="0 0 192.000000 192.000000"
 preserveAspectRatio="xMidYMid meet">
<metadata>
Created by potrace 1.16, written by Peter Selinger 2001-2019
</metadata>
<g transform="translate(0.000000,192.000000) scale(0.100000,-0.100000)"
fill="#000000" stroke="none">
811 c445 -92 729 -532 635 -987 -62 -301 -295 -546 -601 -630 -91 -26 -329
-26 -420 0 -291 80 -516 305 -596 596 -26 91 -26 329 0 420 120 433 542 692
982 601z"/>
<path d="M885 1338 c-80 -29 -135 -111 -135 -200 0 -43 2 -48 27 -54 38 -10
57 7 64 58 9 62 25 87 64 104 96 40 165 -18 165 -136 l0 -50 -152 0 c-84 0
-170 -5 -190 -10 -64 -18 -68 -32 -68 -233 l0 -179 29 -29 29 -29 237 0 237 0
29 29 29 29 0 177 c0 107 -4 184 -11 197 -6 11 -25 26 -44 34 -32 13 -33 14
-37 87 -6 130 -76 207 -192 214 -28 1 -64 -3 -81 -9z m113 -450 c17 -17 15
-63 -2 -78 -8 -6 -16 -33 -18 -58 -3 -39 -6 -47 -23 -47 -17 0 -20 8 -23 47
-2 25 -10 52 -18 58 -17 15 -19 61 -2 78 16 16 70 16 86 0z"/>
</g>
</svg>
