<?xml version="1.0" standalone="no"?>
<!DOCTYPE svg PUBLIC "-//W3C//DTD SVG 20010904//EN"
 "http://www.w3.org/TR/2001/REC-SVG-20010904/DTD/svg10.dtd">
<svg version="1.0" xmlns="http://www.w3.org/2000/svg"
 width="192.000000pt" height="192.000000pt" viewBox="0 0 192.000000 192.000000"
 preserveAspectRatio="xMidYMid meet">
<metadata>
Created by potrace 1.16, written by Peter Selinger 2001-2019
</metadata>
<g transform="translate(0.000000,192.000000) scale(0.100000,-0.100000)"
fill="#000000" stroke="none">
811 c445 -92 729 -532 635 -987 -62 -301 -295 -546 -601 -630 -91 -26 -329
-26 -420 0 -291 80 -516 305 -596 596 -26 91 -26 329 0 420 120 433 542 692
982 601z"/>
<path d="M835 1362 c-75 -26 -138 -66 -183 -117 -22 -25 -46 -45 -54 -45 -25
0 -38 -23 -38 -69 0 -26 -5 -74 -10 -109 -30 -212 109 -411 319 -458 64 -15
87 -15 144 -6 160 28 288 142 332 296 14 48 16 81 10 190 -7 131 -14 156 -43
156 -8 0 -36 22 -61 48 -111 116 -279 162 -416 114z m255 -92 c54 -27 100 -61
100 -72 0 -4 -32 -8 -72 -8 -64 0 -75 3 -100 27 -20 19 -39 27 -63 27 -24 0
-43 -8 -63 -27 -26 -25 -35 -27 -107 -27 -78 0 -78 0 -60 20 26 29 79 60 128
76 63 21 181 13 237 -16z m-106 -102 c3 -13 7 -51 9 -85 3 -52 9 -69 33 -100
17 -21 46 -46 65 -55 41 -21 115 -23 149 -3 38 22 43 18 36 -26 -15 -95 -98
-199 -194 -242 -72 -32 -189 -30 -263 4 -100 47 -175 145 -193 252 l-7 38 38
-21 c78 -41 180 -15 229 60 20 30 27 56 31 107 6 88 8 93 37 93 18 0 27 -6 30
-22z"/>
</g>
</svg>
