<?xml version="1.0" standalone="no"?>
<!DOCTYPE svg PUBLIC "-//W3C//DTD SVG 20010904//EN"
 "http://www.w3.org/TR/2001/REC-SVG-20010904/DTD/svg10.dtd">
<svg version="1.0" xmlns="http://www.w3.org/2000/svg"
 width="192.000000pt" height="192.000000pt" viewBox="0 0 192.000000 192.000000"
 preserveAspectRatio="xMidYMid meet">
<metadata>
Created by potrace 1.16, written by Peter Selinger 2001-2019
</metadata>
<g transform="translate(0.000000,192.000000) scale(0.100000,-0.100000)"
fill="#000000" stroke="none">
811 c445 -92 729 -532 635 -987 -62 -301 -295 -546 -601 -630 -91 -26 -329
-26 -420 0 -291 80 -516 305 -596 596 -26 91 -26 329 0 420 120 433 542 692
982 601z"/>
<path d="M855 1369 c-113 -16 -274 -75 -302 -111 -13 -17 -1 -147 22 -225 66
-225 264 -473 380 -473 43 0 109 44 182 123 119 127 203 311 223 483 10 96 7
101 -95 143 -130 54 -287 77 -410 60z m203 -119 c59 -10 151 -40 181 -59 10
-6 12 -21 7 -52 -9 -59 -20 -76 -39 -61 -29 25 -152 63 -220 68 -80 7 -165
-10 -254 -51 -29 -13 -55 -20 -57 -16 -3 4 -8 30 -11 57 l-7 51 52 22 c108 47
227 60 348 41z m65 -247 c37 -18 67 -34 67 -36 0 -12 -53 -97 -59 -95 -117 63
-211 70 -304 24 -32 -15 -60 -26 -61 -25 -2 2 -14 24 -26 48 l-22 44 23 19
c48 36 138 58 229 55 71 -2 97 -8 153 -34z m-93 -199 c22 -9 40 -20 40 -24 0
-13 -98 -100 -113 -100 -16 0 -84 48 -111 78 -19 22 -19 22 25 42 54 24 105
25 159 4z"/>
</g>
</svg>
