<?xml version="1.0" standalone="no"?>
<!DOCTYPE svg PUBLIC "-//W3C//DTD SVG 20010904//EN"
 "http://www.w3.org/TR/2001/REC-SVG-20010904/DTD/svg10.dtd">
<svg version="1.0" xmlns="http://www.w3.org/2000/svg"
 width="192.000000pt" height="192.000000pt" viewBox="0 0 192.000000 192.000000"
 preserveAspectRatio="xMidYMid meet">
<metadata>
Created by potrace 1.16, written by Peter Selinger 2001-2019
</metadata>
<g transform="translate(0.000000,192.000000) scale(0.100000,-0.100000)"
fill="#000000" stroke="none">
811 c445 -92 729 -532 635 -987 -62 -301 -295 -546 -601 -630 -91 -26 -329
-26 -420 0 -291 80 -516 305 -596 596 -26 91 -26 329 0 420 120 433 542 692
982 601z"/>
<path d="M567 1352 c-12 -13 -17 -37 -17 -77 l0 -59 260 -261 c143 -143 260
-264 260 -269 0 -4 -9 -19 -20 -33 -11 -14 -20 -30 -20 -34 0 -12 38 -49 50
-49 6 0 33 21 61 47 l50 47 52 -52 c56 -55 89 -65 107 -33 16 31 13 39 -41 97
l-52 54 42 45 c46 50 53 88 21 105 -22 12 -33 8 -66 -22 -21 -19 -21 -18 -280
247 l-259 265 -66 0 c-51 0 -70 -4 -82 -18z"/>
<path d="M1092 1267 l-102 -102 80 -80 80 -80 100 100 100 100 0 70 c0 42 -5
76 -12 83 -7 7 -40 12 -78 12 l-65 0 -103 -103z"/>
<path d="M708 884 l-36 -37 -27 22 c-15 11 -32 21 -36 21 -12 0 -49 -38 -49
-50 0 -6 21 -33 47 -61 l47 -50 -52 -52 c-52 -52 -63 -82 -40 -105 23 -23 53
-12 105 40 l52 52 50 -47 c55 -52 54 -51 82 -37 25 14 25 62 -1 85 -21 19 -20
19 19 59 l40 41 -76 78 c-41 42 -78 77 -82 77 -3 0 -23 -16 -43 -36z"/>
</g>
</svg>
