<?xml version="1.0" standalone="no"?>
<!DOCTYPE svg PUBLIC "-//W3C//DTD SVG 20010904//EN"
 "http://www.w3.org/TR/2001/REC-SVG-20010904/DTD/svg10.dtd">
<svg version="1.0" xmlns="http://www.w3.org/2000/svg"
 width="192.000000pt" height="192.000000pt" viewBox="0 0 192.000000 192.000000"
 preserveAspectRatio="xMidYMid meet">
<metadata>
Created by potrace 1.16, written by Peter Selinger 2001-2019
</metadata>
<g transform="translate(0.000000,192.000000) scale(0.100000,-0.100000)"
fill="#000000" stroke="none">
811 c445 -92 729 -532 635 -987 -62 -301 -295 -546 -601 -630 -91 -26 -329
-26 -420 0 -291 80 -516 305 -596 596 -26 91 -26 329 0 420 120 433 542 692
982 601z"/>
<path d="M680 1365 c-12 -15 -9 -103 5 -125 8 -13 532 -13 540 0 14 22 17 110
5 125 -19 23 -531 23 -550 0z"/>
<path d="M703 1178 c36 -148 43 -271 21 -345 l-6 -23 237 0 237 0 -6 23 c-22
74 -15 197 21 345 l5 22 -257 0 -257 0 5 -22z m267 -288 c0 -10 -5 -22 -10
-25 -13 -8 -24 20 -16 41 8 20 26 9 26 -16z"/>
<path d="M665 730 c-30 -60 -36 -164 -9 -174 20 -8 578 -8 598 0 27 10 21 114
-9 174 l-25 50 -265 0 -265 0 -25 -50z"/>
</g>
</svg>
