<?xml version="1.0" standalone="no"?>
<!DOCTYPE svg PUBLIC "-//W3C//DTD SVG 20010904//EN"
 "http://www.w3.org/TR/2001/REC-SVG-20010904/DTD/svg10.dtd">
<svg version="1.0" xmlns="http://www.w3.org/2000/svg"
 width="192.000000pt" height="192.000000pt" viewBox="0 0 192.000000 192.000000"
 preserveAspectRatio="xMidYMid meet">
<metadata>
Created by potrace 1.16, written by Peter Selinger 2001-2019
</metadata>
<g transform="translate(0.000000,192.000000) scale(0.100000,-0.100000)"
fill="#000000" stroke="none">
811 c445 -92 729 -532 635 -987 -62 -301 -295 -546 -601 -630 -91 -26 -329
-26 -420 0 -291 80 -516 305 -596 596 -26 91 -26 329 0 420 120 433 542 692
982 601z"/>
<path d="M805 1343 c-16 -16 -16 -18 4 -34 16 -13 21 -28 21 -67 0 -76 10
-111 42 -143 25 -24 38 -29 80 -29 44 0 54 4 84 34 32 32 34 38 34 104 0 61
-3 75 -26 101 -30 36 -77 51 -161 51 -45 0 -66 -5 -78 -17z"/>
<path d="M656 1288 c-8 -13 -40 -83 -71 -157 l-56 -134 19 -26 c27 -37 93 -71
150 -78 l49 -5 32 -103 c17 -57 31 -124 31 -149 0 -60 13 -66 149 -66 130 0
141 6 141 79 0 26 13 89 30 142 l29 94 62 12 c61 12 124 47 145 81 10 15 1 44
-50 166 -35 81 -69 152 -77 157 -23 14 -76 10 -94 -7 -23 -24 -15 -66 16 -81
19 -9 32 -31 52 -88 25 -73 26 -75 6 -64 -13 7 -39 8 -68 4 -44 -7 -290 -8
-417 -3 l-61 3 17 50 c29 82 32 86 56 95 32 12 42 55 19 80 -26 29 -90 27
-109 -2z"/>
</g>
</svg>
