<?xml version="1.0" standalone="no"?>
<!DOCTYPE svg PUBLIC "-//W3C//DTD SVG 20010904//EN"
 "http://www.w3.org/TR/2001/REC-SVG-20010904/DTD/svg10.dtd">
<svg version="1.0" xmlns="http://www.w3.org/2000/svg"
 width="192.000000pt" height="192.000000pt" viewBox="0 0 192.000000 192.000000"
 preserveAspectRatio="xMidYMid meet">
<metadata>
Created by potrace 1.16, written by Peter Selinger 2001-2019
</metadata>
<g transform="translate(0.000000,192.000000) scale(0.100000,-0.100000)"
fill="#000000" stroke="none">
811 c445 -92 729 -532 635 -987 -62 -301 -295 -546 -601 -630 -91 -26 -329
-26 -420 0 -291 80 -516 305 -596 596 -26 91 -26 329 0 420 120 433 542 692
982 601z"/>
<path d="M900 1338 c-117 -147 -138 -287 -66 -433 37 -75 99 -155 121 -155 22
0 93 88 128 159 29 60 32 74 32 161 0 87 -3 101 -32 161 -35 71 -106 159 -129
159 -7 0 -32 -23 -54 -52z"/>
<path d="M616 1228 c-13 -7 -16 -25 -16 -87 0 -163 60 -270 186 -332 35 -18
67 -30 70 -27 3 3 -10 30 -29 59 -66 105 -86 203 -64 315 l8 42 -48 15 c-73
23 -89 25 -107 15z"/>
<path d="M1255 1223 c-11 -3 -42 -11 -68 -20 -38 -12 -47 -19 -42 -32 4 -9 10
-46 12 -82 7 -80 -12 -151 -62 -233 -19 -32 -33 -61 -31 -63 11 -11 100 40
145 82 61 57 91 124 98 220 8 109 -3 137 -52 128z"/>
<path d="M598 872 c-36 -38 -48 -65 -48 -107 0 -42 12 -69 48 -107 32 -35 53
-35 109 -2 l44 25 -7 -28 c-19 -74 -3 -87 129 -104 140 -19 301 12 393 74 108
72 125 165 46 249 l-25 27 -49 -55 c-35 -37 -73 -65 -126 -91 -69 -35 -83 -38
-157 -38 -74 0 -88 3 -157 38 -53 26 -91 54 -126 91 l-49 55 -25 -27z"/>
</g>
</svg>
