<?xml version="1.0" standalone="no"?>
<!DOCTYPE svg PUBLIC "-//W3C//DTD SVG 20010904//EN"
 "http://www.w3.org/TR/2001/REC-SVG-20010904/DTD/svg10.dtd">
<svg version="1.0" xmlns="http://www.w3.org/2000/svg"
 width="192.000000pt" height="192.000000pt" viewBox="0 0 192.000000 192.000000"
 preserveAspectRatio="xMidYMid meet">
<metadata>
Created by potrace 1.16, written by Peter Selinger 2001-2019
</metadata>
<g transform="translate(0.000000,192.000000) scale(0.100000,-0.100000)"
fill="#000000" stroke="none">
811 c445 -92 729 -532 635 -987 -62 -301 -295 -546 -601 -630 -91 -26 -329
-26 -420 0 -291 80 -516 305 -596 596 -26 91 -26 329 0 420 120 433 542 692
982 601z"/>
<path d="M707 1325 c-50 -17 -85 -50 -108 -100 -16 -35 -19 -67 -19 -251 0
-264 11 -302 103 -355 41 -23 48 -24 273 -24 l231 0 48 30 c83 52 89 73 93
330 3 183 0 226 -13 262 -20 51 -71 98 -122 112 -58 16 -439 13 -486 -4z m89
-130 c30 -23 282 -21 323 3 33 18 54 12 75 -21 12 -19 1 -43 -27 -61 -13 -8
-25 -7 -48 7 -42 24 -299 26 -319 2 -19 -23 -57 -18 -76 10 -15 23 -15 27 0
50 19 28 43 32 72 10z m133 -241 c22 -16 25 -16 51 0 37 21 52 20 84 -5 21
-17 26 -29 26 -67 0 -43 -4 -50 -55 -99 -68 -66 -87 -67 -154 -7 -75 68 -87
138 -29 178 29 20 48 20 77 0z"/>
</g>
</svg>
