<?xml version="1.0" standalone="no"?>
<!DOCTYPE svg PUBLIC "-//W3C//DTD SVG 20010904//EN"
 "http://www.w3.org/TR/2001/REC-SVG-20010904/DTD/svg10.dtd">
<svg version="1.0" xmlns="http://www.w3.org/2000/svg"
 width="192.000000pt" height="192.000000pt" viewBox="0 0 192.000000 192.000000"
 preserveAspectRatio="xMidYMid meet">
<metadata>
Created by potrace 1.16, written by Peter Selinger 2001-2019
</metadata>
<g transform="translate(0.000000,192.000000) scale(0.100000,-0.100000)"
fill="#000000" stroke="none">
811 c445 -92 729 -532 635 -987 -62 -301 -295 -546 -601 -630 -91 -26 -329
-26 -420 0 -291 80 -516 305 -596 596 -26 91 -26 329 0 420 120 433 542 692
982 601z"/>
<path d="M695 1326 c-40 -18 -85 -63 -101 -103 -11 -24 -14 -90 -14 -258 0
-202 2 -230 19 -263 24 -47 56 -77 103 -97 54 -22 452 -22 506 0 47 20 79 50
103 98 19 35 20 56 17 276 -3 232 -4 238 -27 273 -13 19 -40 46 -59 59 -35 24
-40 24 -276 26 -185 2 -248 0 -271 -11z m203 -365 l-3 -196 -35 0 -35 0 -3
193 c-2 191 -2 193 20 201 12 4 30 6 40 3 17 -4 18 -19 16 -201z m192 131 c0
-60 -3 -71 -25 -92 -31 -29 -31 -41 0 -70 24 -22 26 -30 23 -95 -2 -56 -6 -70
-20 -73 -28 -5 -58 34 -58 76 0 31 -7 45 -40 77 -22 21 -40 44 -40 50 0 6 18
29 40 50 31 31 40 46 40 74 0 41 24 71 57 71 22 0 23 -3 23 -68z"/>
</g>
</svg>
