<?xml version="1.0" standalone="no"?>
<!DOCTYPE svg PUBLIC "-//W3C//DTD SVG 20010904//EN"
 "http://www.w3.org/TR/2001/REC-SVG-20010904/DTD/svg10.dtd">
<svg version="1.0" xmlns="http://www.w3.org/2000/svg"
 width="192.000000pt" height="192.000000pt" viewBox="0 0 192.000000 192.000000"
 preserveAspectRatio="xMidYMid meet">
<metadata>
Created by potrace 1.16, written by Peter Selinger 2001-2019
</metadata>
<g transform="translate(0.000000,192.000000) scale(0.100000,-0.100000)"
fill="#000000" stroke="none">
811 c445 -92 729 -532 635 -987 -62 -301 -295 -546 -601 -630 -91 -26 -329
-26 -420 0 -291 80 -516 305 -596 596 -26 91 -26 329 0 420 120 433 542 692
982 601z"/>
<path d="M701 1329 c-91 -36 -121 -93 -121 -229 l0 -100 170 0 170 0 0 170 0
170 -97 -1 c-54 0 -109 -5 -122 -10z m39 -119 c22 -40 -26 -80 -58 -48 -13 13
-16 50 -5 61 14 14 53 6 63 -13z m115 -14 c0 -36 -27 -56 -52 -40 -40 25 -20
77 26 72 21 -2 26 -8 26 -32z m-111 -102 c10 -27 -12 -56 -42 -52 -27 3 -39
25 -28 54 7 19 62 18 70 -2z m111 -19 c0 -26 -4 -30 -32 -33 -27 -3 -33 1 -39
22 -8 35 3 48 39 44 28 -3 32 -7 32 -33z"/>
<path d="M990 1170 l0 -170 170 0 170 0 0 94 c0 108 -8 138 -53 185 -47 50
-83 61 -192 61 l-95 0 0 -170z m118 26 c4 -36 -10 -50 -42 -42 -20 5 -26 13
-26 35 0 35 8 43 40 39 19 -2 26 -9 28 -32z m110 25 c18 -11 11 -51 -10 -65
-35 -22 -74 27 -48 59 14 17 38 19 58 6z m-110 -143 c-3 -29 -6 -33 -33 -33
-21 0 -31 5 -33 18 -6 32 6 47 38 47 29 0 31 -2 28 -32z m117 -3 c0 -26 -4
-30 -32 -33 -27 -3 -33 1 -39 22 -8 35 3 48 39 44 28 -3 32 -7 32 -33z"/>
<path d="M580 825 c0 -118 19 -162 87 -206 44 -27 53 -29 150 -29 l103 0 0
165 0 165 -170 0 -170 0 0 -95z m165 26 c10 -33 -5 -52 -39 -49 -31 3 -44 23
-32 54 8 21 63 18 71 -5z m110 -16 c0 -26 -4 -30 -31 -33 -34 -3 -49 16 -38
50 4 15 13 18 37 16 28 -3 32 -7 32 -33z m-115 -95 c13 -23 -2 -60 -25 -60
-30 0 -45 13 -45 40 0 42 51 56 70 20z m104 14 c10 -4 16 -18 16 -35 0 -22 -6
-30 -25 -35 -43 -11 -73 34 -43 64 13 13 28 15 52 6z"/>
<path d="M990 755 l0 -165 95 0 c109 0 145 11 192 61 44 47 53 77 53 180 l0
89 -170 0 -170 0 0 -165z m120 79 c0 -34 -1 -35 -32 -32 -54 5 -53 68 2 68 28
0 30 -3 30 -36z m115 1 c0 -26 -4 -30 -29 -33 -36 -4 -50 10 -42 43 6 22 11
26 39 23 28 -3 32 -7 32 -33z m-117 -109 c4 -36 -10 -50 -42 -42 -21 5 -26 13
-26 35 0 31 12 41 45 38 14 -1 21 -11 23 -31z m112 19 c26 -32 -13 -81 -47
-59 -35 22 -23 74 17 74 10 0 23 -7 30 -15z"/>
</g>
</svg>
