<?xml version="1.0" standalone="no"?>
<!DOCTYPE svg PUBLIC "-//W3C//DTD SVG 20010904//EN"
 "http://www.w3.org/TR/2001/REC-SVG-20010904/DTD/svg10.dtd">
<svg version="1.0" xmlns="http://www.w3.org/2000/svg"
 width="192.000000pt" height="192.000000pt" viewBox="0 0 192.000000 192.000000"
 preserveAspectRatio="xMidYMid meet">
<metadata>
Created by potrace 1.16, written by Peter Selinger 2001-2019
</metadata>
<g transform="translate(0.000000,192.000000) scale(0.100000,-0.100000)"
fill="#000000" stroke="none">
811 c445 -92 729 -532 635 -987 -62 -301 -295 -546 -601 -630 -91 -26 -329
-26 -420 0 -291 80 -516 305 -596 596 -26 91 -26 329 0 420 120 433 542 692
982 601z"/>
<path d="M645 1291 c-43 -19 -100 -78 -116 -118 -13 -36 -11 -119 5 -156 17
-42 86 -102 143 -123 44 -17 44 -17 25 -38 -44 -48 -54 -104 -28 -154 40 -76
118 -102 194 -63 69 35 74 54 73 285 -1 111 -6 218 -12 239 -21 80 -111 147
-199 147 -25 0 -63 -9 -85 -19z"/>
<path d="M1095 1291 c-51 -23 -101 -80 -114 -128 -6 -21 -11 -128 -12 -239 -1
-231 4 -250 73 -285 76 -39 154 -13 194 63 26 50 16 106 -28 154 -19 21 -19
21 25 38 57 21 126 81 143 123 16 37 18 120 5 156 -16 40 -73 99 -116 118 -22
10 -60 19 -85 19 -25 0 -63 -9 -85 -19z"/>
</g>
</svg>
