<?xml version="1.0" standalone="no"?>
<!DOCTYPE svg PUBLIC "-//W3C//DTD SVG 20010904//EN"
 "http://www.w3.org/TR/2001/REC-SVG-20010904/DTD/svg10.dtd">
<svg version="1.0" xmlns="http://www.w3.org/2000/svg"
 width="192.000000pt" height="192.000000pt" viewBox="0 0 192.000000 192.000000"
 preserveAspectRatio="xMidYMid meet">
<metadata>
Created by potrace 1.16, written by Peter Selinger 2001-2019
</metadata>
<g transform="translate(0.000000,192.000000) scale(0.100000,-0.100000)"
fill="#000000" stroke="none">
811 c445 -92 729 -532 635 -987 -62 -301 -295 -546 -601 -630 -91 -26 -329
-26 -420 0 -291 80 -516 305 -596 596 -26 91 -26 329 0 420 120 433 542 692
982 601z"/>
<path d="M850 1365 c-136 -39 -236 -135 -286 -279 -30 -84 -11 -276 27 -276
32 0 143 36 215 69 95 45 178 97 232 145 l39 36 27 -40 c14 -22 56 -71 92
-110 78 -82 78 -91 9 -168 -124 -138 -320 -149 -471 -26 -58 48 -78 53 -93 27
-14 -26 11 -65 69 -108 81 -60 141 -79 245 -79 140 0 247 52 329 160 57 75 80
145 80 249 0 140 -52 247 -160 329 -95 73 -242 102 -354 71z"/>
<path d="M933 873 c-21 -8 -16 -61 6 -68 30 -9 51 5 51 35 0 33 -24 47 -57 33z"/>
<path d="M1103 873 c-21 -8 -16 -61 6 -68 30 -9 51 5 51 35 0 33 -24 47 -57
33z"/>
</g>
</svg>
