<?xml version="1.0" standalone="no"?>
<!DOCTYPE svg PUBLIC "-//W3C//DTD SVG 20010904//EN"
 "http://www.w3.org/TR/2001/REC-SVG-20010904/DTD/svg10.dtd">
<svg version="1.0" xmlns="http://www.w3.org/2000/svg"
 width="192.000000pt" height="192.000000pt" viewBox="0 0 192.000000 192.000000"
 preserveAspectRatio="xMidYMid meet">
<metadata>
Created by potrace 1.16, written by Peter Selinger 2001-2019
</metadata>
<g transform="translate(0.000000,192.000000) scale(0.100000,-0.100000)"
fill="#000000" stroke="none">
811 c445 -92 729 -532 635 -987 -62 -301 -295 -546 -601 -630 -91 -26 -329
-26 -420 0 -291 80 -516 305 -596 596 -26 91 -26 329 0 420 120 433 542 692
982 601z"/>
<path d="M834 1366 c-50 -16 -124 -67 -151 -105 -56 -75 -68 -112 -68 -211 0
-87 3 -100 32 -155 17 -33 45 -73 62 -89 30 -29 31 -32 31 -117 0 -97 -4 -91
78 -104 l42 -7 0 186 0 186 -32 0 c-49 0 -66 14 -50 40 17 28 17 29 -29 32
-55 4 -74 31 -42 57 19 16 20 20 6 33 -20 20 -1 58 28 58 15 0 19 5 14 19 -7
24 21 54 44 46 12 -4 21 3 29 20 12 26 45 34 57 14 5 -7 15 -3 30 11 23 21 49
19 59 -6 4 -11 10 -12 30 -2 28 12 56 -2 56 -28 0 -9 11 -14 29 -14 30 0 45
-19 35 -44 -3 -8 4 -16 20 -20 19 -5 26 -13 26 -31 0 -14 -4 -25 -10 -25 -16
0 -11 -27 6 -34 9 -3 14 -15 12 -28 -3 -22 -8 -23 -116 -28 -85 -4 -115 -9
-122 -20 -15 -24 -13 -430 3 -435 6 -3 35 -6 62 -7 l50 -3 3 83 3 82 74 0 c91
0 95 5 95 119 l0 81 35 0 c43 0 44 5 9 137 -44 165 -97 244 -200 294 -59 29
-176 36 -240 15z"/>
</g>
</svg>
