<?xml version="1.0" standalone="no"?>
<!DOCTYPE svg PUBLIC "-//W3C//DTD SVG 20010904//EN"
 "http://www.w3.org/TR/2001/REC-SVG-20010904/DTD/svg10.dtd">
<svg version="1.0" xmlns="http://www.w3.org/2000/svg"
 width="192.000000pt" height="192.000000pt" viewBox="0 0 192.000000 192.000000"
 preserveAspectRatio="xMidYMid meet">
<metadata>
Created by potrace 1.16, written by Peter Selinger 2001-2019
</metadata>
<g transform="translate(0.000000,192.000000) scale(0.100000,-0.100000)"
fill="#000000" stroke="none">
811 c445 -92 729 -532 635 -987 -62 -301 -295 -546 -601 -630 -91 -26 -329
-26 -420 0 -291 80 -516 305 -596 596 -26 91 -26 329 0 420 120 433 542 692
982 601z"/>
<path d="M622 1334 c-25 -17 -52 -64 -52 -89 0 -36 32 -84 67 -100 94 -45 185
53 141 150 -23 50 -109 72 -156 39z"/>
<path d="M887 1330 c-35 -28 -51 -78 -37 -116 27 -69 91 -100 148 -70 43 22
62 54 62 102 0 87 -105 137 -173 84z"/>
<path d="M1164 1332 c-40 -31 -44 -55 -44 -227 0 -103 4 -175 11 -188 19 -38
51 -57 97 -57 37 0 50 6 78 34 l34 34 0 177 0 177 -34 34 c-28 28 -41 34 -77
34 -27 0 -53 -7 -65 -18z"/>
<path d="M623 1070 c-47 -28 -55 -69 -51 -252 l3 -158 31 -31 c57 -57 149 -38
180 36 20 48 20 312 0 360 -26 61 -102 82 -163 45z"/>
<path d="M910 1073 c-107 -54 -73 -203 47 -203 36 0 50 6 74 29 24 24 29 38
29 76 0 38 -5 52 -29 76 -16 16 -36 29 -44 29 -9 0 -21 2 -29 5 -7 3 -29 -3
-48 -12z"/>
<path d="M915 811 c-29 -13 -61 -52 -69 -83 -14 -60 41 -128 104 -128 67 0
110 45 110 115 0 67 -84 123 -145 96z"/>
<path d="M1184 810 c-36 -14 -64 -59 -64 -102 0 -32 7 -47 34 -74 62 -62 152
-39 177 45 26 86 -64 165 -147 131z"/>
</g>
</svg>
