<?xml version="1.0" standalone="no"?>
<!DOCTYPE svg PUBLIC "-//W3C//DTD SVG 20010904//EN"
 "http://www.w3.org/TR/2001/REC-SVG-20010904/DTD/svg10.dtd">
<svg version="1.0" xmlns="http://www.w3.org/2000/svg"
 width="192.000000pt" height="192.000000pt" viewBox="0 0 192.000000 192.000000"
 preserveAspectRatio="xMidYMid meet">
<metadata>
Created by potrace 1.16, written by Peter Selinger 2001-2019
</metadata>
<g transform="translate(0.000000,192.000000) scale(0.100000,-0.100000)"
fill="#000000" stroke="none">
811 c445 -92 729 -532 635 -987 -62 -301 -295 -546 -601 -630 -91 -26 -329
-26 -420 0 -291 80 -516 305 -596 596 -26 91 -26 329 0 420 120 433 542 692
982 601z"/>
<path d="M618 1311 l-33 -29 -3 -295 c-3 -329 0 -352 58 -382 41 -21 82 -12
115 27 l25 30 0 299 c0 202 -4 308 -11 322 -32 62 -99 75 -151 28z"/>
<path d="M889 1311 l-29 -29 0 -306 c0 -207 4 -313 11 -330 22 -48 63 -58 240
-54 l161 3 29 33 c34 38 37 74 9 119 -23 39 -36 42 -160 46 l-95 2 -5 248 -5
249 -28 24 c-40 34 -90 32 -128 -5z"/>
<path d="M1168 1311 l-33 -29 0 -177 0 -177 33 -29 c35 -31 66 -36 107 -17 47
21 55 53 55 222 0 169 -7 199 -51 222 -42 21 -75 17 -111 -15z"/>
</g>
</svg>
