<?xml version="1.0" standalone="no"?>
<!DOCTYPE svg PUBLIC "-//W3C//DTD SVG 20010904//EN"
 "http://www.w3.org/TR/2001/REC-SVG-20010904/DTD/svg10.dtd">
<svg version="1.0" xmlns="http://www.w3.org/2000/svg"
 width="192.000000pt" height="192.000000pt" viewBox="0 0 192.000000 192.000000"
 preserveAspectRatio="xMidYMid meet">
<metadata>
Created by potrace 1.16, written by Peter Selinger 2001-2019
</metadata>
<g transform="translate(0.000000,192.000000) scale(0.100000,-0.100000)"
fill="#000000" stroke="none">
811 c445 -92 729 -532 635 -987 -62 -301 -295 -546 -601 -630 -91 -26 -329
-26 -420 0 -291 80 -516 305 -596 596 -26 91 -26 329 0 420 120 433 542 692
982 601z"/>
<path d="M618 1311 l-33 -29 -3 -295 c-3 -329 0 -352 58 -382 41 -21 82 -12
115 27 l26 30 -3 315 -3 315 -28 24 c-40 34 -88 32 -129 -5z"/>
<path d="M889 1311 l-29 -29 0 -307 c0 -336 2 -351 58 -374 20 -9 81 -11 192
-9 l162 3 29 33 c32 36 36 69 14 112 -22 43 -43 50 -154 50 l-100 0 -3 246 -3
246 -33 29 c-44 40 -93 40 -133 0z"/>
<path d="M1168 1311 l-33 -29 0 -177 0 -177 33 -29 c35 -31 66 -36 107 -17 47
21 55 53 55 222 0 169 -7 199 -51 222 -42 21 -75 17 -111 -15z"/>
</g>
</svg>
