<?xml version="1.0" standalone="no"?>
<!DOCTYPE svg PUBLIC "-//W3C//DTD SVG 20010904//EN"
 "http://www.w3.org/TR/2001/REC-SVG-20010904/DTD/svg10.dtd">
<svg version="1.0" xmlns="http://www.w3.org/2000/svg"
 width="192.000000pt" height="192.000000pt" viewBox="0 0 192.000000 192.000000"
 preserveAspectRatio="xMidYMid meet">
<metadata>
Created by potrace 1.16, written by Peter Selinger 2001-2019
</metadata>
<g transform="translate(0.000000,192.000000) scale(0.100000,-0.100000)"
fill="#000000" stroke="none">
811 c445 -92 729 -532 635 -987 -62 -301 -295 -546 -601 -630 -91 -26 -329
-26 -420 0 -291 80 -516 305 -596 596 -26 91 -26 329 0 420 120 433 542 692
982 601z"/>
<path d="M618 1311 l-33 -29 0 -181 0 -180 28 -29 c51 -53 132 -47 167 11 18
28 20 51 20 197 0 140 -3 169 -17 190 -27 39 -45 49 -90 50 -33 0 -50 -6 -75
-29z"/>
<path d="M879 1311 c-41 -42 -41 -107 0 -153 25 -28 36 -33 76 -33 40 0 51 5
76 33 41 46 41 111 0 153 -24 24 -38 29 -76 29 -38 0 -52 -5 -76 -29z"/>
<path d="M1154 1322 c-63 -51 -55 -150 16 -187 37 -19 54 -19 95 1 70 33 83
129 24 178 -37 31 -102 35 -135 8z"/>
<path d="M879 1041 c-41 -42 -41 -107 0 -153 25 -28 36 -33 76 -33 40 0 51 5
76 33 41 46 41 111 0 153 -24 24 -38 29 -76 29 -38 0 -52 -5 -76 -29z"/>
<path d="M1154 1052 c-63 -51 -55 -150 16 -187 37 -19 54 -19 95 1 70 33 83
129 24 178 -37 31 -102 35 -135 8z"/>
<path d="M627 779 c-15 -11 -32 -37 -38 -58 -33 -110 112 -188 185 -100 41 48
33 120 -18 161 -30 25 -97 23 -129 -3z"/>
<path d="M879 771 c-41 -42 -41 -107 0 -153 25 -28 36 -33 76 -33 40 0 51 5
76 33 41 46 41 111 0 153 -24 24 -38 29 -76 29 -38 0 -52 -5 -76 -29z"/>
<path d="M1147 779 c-15 -11 -32 -37 -38 -58 -33 -110 112 -188 185 -100 41
48 33 120 -18 161 -30 25 -97 23 -129 -3z"/>
</g>
</svg>
