<?xml version="1.0" standalone="no"?>
<!DOCTYPE svg PUBLIC "-//W3C//DTD SVG 20010904//EN"
 "http://www.w3.org/TR/2001/REC-SVG-20010904/DTD/svg10.dtd">
<svg version="1.0" xmlns="http://www.w3.org/2000/svg"
 width="192.000000pt" height="192.000000pt" viewBox="0 0 192.000000 192.000000"
 preserveAspectRatio="xMidYMid meet">
<metadata>
Created by potrace 1.16, written by Peter Selinger 2001-2019
</metadata>
<g transform="translate(0.000000,192.000000) scale(0.100000,-0.100000)"
fill="#000000" stroke="none">
811 c445 -92 729 -532 635 -987 -62 -301 -295 -546 -601 -630 -91 -26 -329
-26 -420 0 -291 80 -516 305 -596 596 -26 91 -26 329 0 420 120 433 542 692
982 601z"/>
<path d="M881 1353 c-18 -9 -44 -34 -58 -55 -22 -32 -25 -46 -21 -97 3 -40 11
-67 23 -81 l19 -21 41 41 c56 54 90 54 150 -1 l44 -40 18 27 c26 41 25 134 -3
171 -52 70 -138 93 -213 56z"/>
<path d="M895 1129 c-41 -36 -44 -57 -12 -86 58 -54 93 -53 147 2 l34 35 -39
40 c-49 50 -81 52 -130 9z"/>
<path d="M657 1116 c-73 -27 -107 -76 -107 -153 0 -80 55 -143 138 -159 34 -7
116 18 128 38 4 5 -12 29 -35 52 -55 56 -55 88 -1 141 22 21 40 42 40 45 0 11
-55 38 -90 44 -20 3 -51 0 -73 -8z"/>
<path d="M1122 1100 l-34 -21 46 -49 c25 -27 46 -59 46 -70 0 -11 -21 -43 -46
-70 l-46 -49 41 -20 c104 -53 218 7 236 124 8 51 -26 121 -74 152 -45 30 -122
31 -169 3z"/>
<path d="M791 1025 c-20 -23 -31 -46 -31 -65 0 -31 51 -100 74 -100 25 0 79
69 79 100 0 31 -54 100 -79 100 -7 0 -26 -16 -43 -35z"/>
<path d="M1031 1025 c-20 -23 -31 -46 -31 -65 0 -31 52 -100 75 -100 19 0 85
77 85 100 0 23 -66 100 -85 100 -7 0 -27 -16 -44 -35z"/>
<path d="M895 889 c-19 -17 -35 -39 -35 -49 0 -27 66 -80 98 -80 19 0 40 12
67 41 l40 40 -42 40 c-52 48 -80 50 -128 8z"/>
<path d="M816 798 c-55 -88 4 -223 107 -242 83 -15 176 47 191 127 8 43 -7
109 -30 127 -12 11 -21 8 -52 -22 -20 -20 -47 -39 -59 -42 -26 -8 -68 12 -102
48 -30 32 -37 32 -55 4z"/>
</g>
</svg>
