<?xml version="1.0" standalone="no"?>
<!DOCTYPE svg PUBLIC "-//W3C//DTD SVG 20010904//EN"
 "http://www.w3.org/TR/2001/REC-SVG-20010904/DTD/svg10.dtd">
<svg version="1.0" xmlns="http://www.w3.org/2000/svg"
 width="192.000000pt" height="192.000000pt" viewBox="0 0 192.000000 192.000000"
 preserveAspectRatio="xMidYMid meet">
<metadata>
Created by potrace 1.16, written by Peter Selinger 2001-2019
</metadata>
<g transform="translate(0.000000,192.000000) scale(0.100000,-0.100000)"
fill="#000000" stroke="none">
811 c445 -92 729 -532 635 -987 -62 -301 -295 -546 -601 -630 -91 -26 -329
-26 -420 0 -291 80 -516 305 -596 596 -26 91 -26 329 0 420 120 433 542 692
982 601z"/>
<path d="M618 1311 l-33 -29 0 -310 c0 -300 1 -311 21 -339 42 -56 122 -53
157 6 15 26 17 66 17 336 l0 307 -29 29 c-40 40 -89 40 -133 0z"/>
<path d="M889 1311 l-29 -29 0 -307 c0 -336 2 -351 58 -374 20 -9 81 -11 192
-9 l162 3 30 34 c26 29 30 39 25 75 -4 27 -15 49 -32 63 -23 21 -37 23 -130
23 l-104 0 -3 246 -3 246 -33 29 c-44 40 -93 40 -133 0z"/>
<path d="M1183 1328 c-43 -21 -53 -64 -53 -223 0 -112 4 -155 15 -180 34 -70
135 -73 171 -4 18 35 20 328 3 362 -26 51 -84 70 -136 45z"/>
</g>
</svg>
