<?xml version="1.0" standalone="no"?>
<!DOCTYPE svg PUBLIC "-//W3C//DTD SVG 20010904//EN"
 "http://www.w3.org/TR/2001/REC-SVG-20010904/DTD/svg10.dtd">
<svg version="1.0" xmlns="http://www.w3.org/2000/svg"
 width="192.000000pt" height="192.000000pt" viewBox="0 0 192.000000 192.000000"
 preserveAspectRatio="xMidYMid meet">
<metadata>
Created by potrace 1.16, written by Peter Selinger 2001-2019
</metadata>
<g transform="translate(0.000000,192.000000) scale(0.100000,-0.100000)"
fill="#000000" stroke="none">
811 c445 -92 729 -532 635 -987 -62 -301 -295 -546 -601 -630 -91 -26 -329
-26 -420 0 -291 80 -516 305 -596 596 -26 91 -26 329 0 420 120 433 542 692
982 601z"/>
<path d="M628 1320 c-44 -34 -50 -65 -46 -240 l3 -162 33 -29 c55 -49 138 -36
171 28 7 13 11 85 11 188 l0 167 -34 34 c-27 27 -42 34 -74 34 -24 0 -49 -8
-64 -20z m32 -80 c0 -11 5 -20 10 -20 6 0 10 7 10 15 0 8 5 15 10 15 6 0 10
-7 10 -15 0 -8 5 -15 10 -15 6 0 10 9 10 20 0 11 5 20 10 20 6 0 10 -16 10
-35 l0 -35 -50 0 -50 0 0 35 c0 19 5 35 10 35 6 0 10 -9 10 -20z m0 -90 c0
-11 5 -20 10 -20 6 0 10 7 10 15 0 8 5 15 10 15 6 0 10 -7 10 -15 0 -8 5 -15
10 -15 6 0 10 9 10 20 0 11 5 20 10 20 6 0 10 -13 10 -30 0 -29 -1 -30 -50
-30 -49 0 -50 1 -50 30 0 17 5 30 10 30 6 0 10 -9 10 -20z m80 -70 c0 -5 -9
-10 -20 -10 -11 0 -20 -4 -20 -10 0 -5 9 -10 20 -10 11 0 20 -4 20 -10 0 -5
-22 -10 -50 -10 -49 0 -50 1 -50 30 0 29 1 30 50 30 28 0 50 -4 50 -10z m-80
-100 c0 -11 5 -20 10 -20 6 0 10 7 10 15 0 8 5 15 10 15 6 0 10 -7 10 -15 0
-8 9 -15 20 -15 11 0 20 -4 20 -10 0 -5 -22 -10 -50 -10 -49 0 -50 1 -50 30 0
17 5 30 10 30 6 0 10 -9 10 -20z"/>
<path d="M660 1060 c0 -5 5 -10 10 -10 6 0 10 5 10 10 0 6 -4 10 -10 10 -5 0
-10 -4 -10 -10z"/>
<path d="M879 1311 c-55 -55 -34 -150 40 -181 39 -16 76 -6 112 30 24 23 29
37 29 75 0 38 -5 52 -29 76 -24 24 -38 29 -76 29 -38 0 -52 -5 -76 -29z"/>
<path d="M1160 1327 c-76 -59 -60 -171 28 -198 33 -9 45 -9 75 6 35 16 67 64
67 100 0 25 -27 72 -52 89 -27 19 -96 20 -118 3z"/>
<path d="M879 1041 c-83 -83 16 -230 119 -177 43 22 62 54 62 104 0 63 -40
102 -105 102 -38 0 -52 -5 -76 -29z"/>
<path d="M1164 1059 c-11 -6 -28 -23 -37 -39 -55 -92 40 -201 136 -155 35 16
67 64 67 100 0 25 -27 72 -52 89 -25 18 -82 20 -114 5z"/>
<path d="M631 784 c-13 -9 -29 -32 -37 -50 -37 -89 60 -184 144 -140 58 30 78
90 50 151 -23 51 -109 72 -157 39z"/>
<path d="M879 771 c-41 -42 -41 -107 0 -153 25 -28 36 -33 76 -33 40 0 51 5
76 33 42 47 41 108 -2 151 -25 25 -39 31 -76 31 -36 0 -50 -6 -74 -29z"/>
<path d="M1151 784 c-13 -9 -29 -32 -37 -50 -37 -89 60 -184 144 -140 58 30
78 90 50 151 -23 51 -109 72 -157 39z"/>
</g>
</svg>
