<?xml version="1.0" standalone="no"?>
<!DOCTYPE svg PUBLIC "-//W3C//DTD SVG 20010904//EN"
 "http://www.w3.org/TR/2001/REC-SVG-20010904/DTD/svg10.dtd">
<svg version="1.0" xmlns="http://www.w3.org/2000/svg"
 width="192.000000pt" height="192.000000pt" viewBox="0 0 192.000000 192.000000"
 preserveAspectRatio="xMidYMid meet">
<metadata>
Created by potrace 1.16, written by Peter Selinger 2001-2019
</metadata>
<g transform="translate(0.000000,192.000000) scale(0.100000,-0.100000)"
fill="#000000" stroke="none">
811 c445 -92 729 -532 635 -987 -62 -301 -295 -546 -601 -630 -91 -26 -329
-26 -420 0 -291 80 -516 305 -596 596 -26 91 -26 329 0 420 120 433 542 692
982 601z"/>
<path d="M633 1328 c-50 -24 -54 -54 -51 -377 l3 -299 24 -26 c30 -31 73 -42
112 -26 57 24 59 39 59 375 l0 307 -29 29 c-31 31 -76 37 -118 17z"/>
<path d="M889 1311 l-29 -29 0 -314 c1 -402 -15 -378 240 -378 l162 0 35 35
c32 32 35 39 30 78 -4 28 -14 49 -32 64 -23 21 -37 23 -130 23 l-104 0 -3 246
-3 246 -33 29 c-44 40 -93 40 -133 0z"/>
<path d="M1174 1322 c-39 -31 -44 -55 -44 -217 0 -171 8 -202 55 -223 32 -15
70 -15 96 -2 41 22 49 60 49 225 0 165 -8 203 -49 225 -30 15 -83 12 -107 -8z"/>
</g>
</svg>
