<?xml version="1.0" standalone="no"?>
<!DOCTYPE svg PUBLIC "-//W3C//DTD SVG 20010904//EN"
 "http://www.w3.org/TR/2001/REC-SVG-20010904/DTD/svg10.dtd">
<svg version="1.0" xmlns="http://www.w3.org/2000/svg"
 width="192.000000pt" height="192.000000pt" viewBox="0 0 192.000000 192.000000"
 preserveAspectRatio="xMidYMid meet">
<metadata>
Created by potrace 1.16, written by Peter Selinger 2001-2019
</metadata>
<g transform="translate(0.000000,192.000000) scale(0.100000,-0.100000)"
fill="#000000" stroke="none">
811 c445 -92 729 -532 635 -987 -62 -301 -295 -546 -601 -630 -91 -26 -329
-26 -420 0 -291 80 -516 305 -596 596 -26 91 -26 329 0 420 120 433 542 692
982 601z"/>
<path d="M1120 1213 c-24 -9 -70 -55 -86 -85 -10 -20 -14 -69 -14 -188 0 -152
1 -160 20 -160 28 0 88 56 95 90 5 23 12 30 31 30 23 0 24 3 24 65 0 63 -1 65
-26 65 -22 0 -25 4 -22 26 4 35 31 53 56 38 13 -9 18 -31 23 -105 3 -58 12
-106 22 -126 21 -40 67 -73 112 -80 l35 -6 0 61 c0 51 -3 63 -20 72 -11 6 -20
19 -20 29 0 10 9 21 20 24 17 4 20 14 20 66 0 57 -2 61 -23 61 -17 0 -26 9
-36 35 -19 54 -72 88 -139 92 -32 1 -64 0 -72 -4z"/>
<path d="M542 1024 l3 -186 33 -29 c22 -20 43 -29 67 -29 43 0 48 9 30 54 -11
27 -15 77 -15 206 l0 170 -61 0 -60 0 3 -186z"/>
<path d="M697 1083 c-13 -13 -7 -203 7 -238 20 -47 57 -69 106 -62 45 6 53 -8
14 -23 -17 -7 -38 -7 -60 -1 l-34 9 0 -53 c0 -30 5 -57 12 -61 6 -4 36 -8 67
-8 66 -1 114 23 148 74 22 31 23 43 23 201 l0 169 -60 0 -59 0 -3 -92 c-2 -75
-6 -93 -18 -93 -12 0 -16 18 -18 93 l-3 92 -58 0 c-32 0 -61 -3 -64 -7z"/>
</g>
</svg>
