<?xml version="1.0" standalone="no"?>
<!DOCTYPE svg PUBLIC "-//W3C//DTD SVG 20010904//EN"
 "http://www.w3.org/TR/2001/REC-SVG-20010904/DTD/svg10.dtd">
<svg version="1.0" xmlns="http://www.w3.org/2000/svg"
 width="192.000000pt" height="192.000000pt" viewBox="0 0 192.000000 192.000000"
 preserveAspectRatio="xMidYMid meet">
<metadata>
Created by potrace 1.16, written by Peter Selinger 2001-2019
</metadata>
<g transform="translate(0.000000,192.000000) scale(0.100000,-0.100000)"
fill="#000000" stroke="none">
811 c445 -92 729 -532 635 -987 -62 -301 -295 -546 -601 -630 -91 -26 -329
-26 -420 0 -291 80 -516 305 -596 596 -26 91 -26 329 0 420 120 433 542 692
982 601z"/>
<path d="M895 1025 c-34 -33 -34 -87 0 -120 51 -52 139 -14 139 60 0 74 -88
112 -139 60z"/>
<path d="M495 1007 c-33 -18 -59 -36 -58 -42 2 -10 111 -75 126 -75 4 0 7 9 7
19 0 14 8 21 28 23 23 3 27 8 27 33 0 25 -4 30 -27 33 -20 2 -28 9 -28 23 0
25 -4 24 -75 -14z"/>
<path d="M1330 1020 c0 -15 -7 -20 -25 -20 -22 0 -25 -4 -25 -35 0 -31 3 -35
25 -35 18 0 25 -5 25 -20 0 -11 4 -20 9 -20 15 0 124 64 128 75 3 9 -112 75
-130 75 -4 0 -7 -9 -7 -20z"/>
<path d="M674 986 c-3 -8 -4 -23 -2 -33 3 -15 14 -18 78 -18 l75 0 0 30 0 30
-73 3 c-57 2 -74 0 -78 -12z"/>
<path d="M1080 965 l0 -35 76 0 75 0 -3 33 -3 32 -72 3 -73 3 0 -36z"/>
</g>
</svg>
