<?xml version="1.0" standalone="no"?>
<!DOCTYPE svg PUBLIC "-//W3C//DTD SVG 20010904//EN"
 "http://www.w3.org/TR/2001/REC-SVG-20010904/DTD/svg10.dtd">
<svg version="1.0" xmlns="http://www.w3.org/2000/svg"
 width="192.000000pt" height="192.000000pt" viewBox="0 0 192.000000 192.000000"
 preserveAspectRatio="xMidYMid meet">
<metadata>
Created by potrace 1.16, written by Peter Selinger 2001-2019
</metadata>
<g transform="translate(0.000000,192.000000) scale(0.100000,-0.100000)"
fill="#000000" stroke="none">
811 c445 -92 729 -532 635 -987 -62 -301 -295 -546 -601 -630 -91 -26 -329
-26 -420 0 -291 80 -516 305 -596 596 -26 91 -26 329 0 420 120 433 542 692
982 601z"/>
<path d="M860 1365 c-82 -23 -130 -58 -130 -95 0 -23 6 -33 25 -42 21 -10 34
-7 81 17 80 40 159 40 233 0 79 -43 131 -122 131 -199 0 -40 21 -66 54 -66 35
0 50 25 47 77 -11 209 -235 365 -441 308z"/>
<path d="M885 1215 c-51 -18 -110 -81 -124 -131 -14 -50 -14 -159 -1 -185 12
-22 59 -26 78 -7 7 7 12 39 12 75 0 83 20 130 62 147 44 19 83 10 113 -26 25
-29 25 -31 25 -227 0 -202 3 -221 41 -234 9 -3 26 1 38 9 20 15 21 23 21 230
0 240 -6 268 -72 317 -64 47 -123 57 -193 32z"/>
<path d="M642 1188 c-5 -7 -17 -37 -26 -67 -20 -70 -23 -348 -3 -373 19 -24
43 -28 66 -12 20 14 21 24 21 163 0 105 5 163 16 201 20 67 9 100 -35 100 -16
0 -33 -6 -39 -12z"/>
<path d="M920 1060 c-17 -17 -20 -33 -20 -106 0 -99 10 -124 48 -124 45 0 52
15 52 121 0 75 -4 101 -16 113 -21 21 -40 20 -64 -4z"/>
<path d="M1220 910 c-16 -16 -20 -33 -20 -83 0 -36 5 -70 13 -79 23 -28 47
-29 74 -2 23 23 25 31 21 91 -3 49 -9 69 -23 79 -26 19 -41 18 -65 -6z"/>
<path d="M776 794 c-20 -19 -23 -153 -4 -172 19 -19 66 -15 78 7 5 11 10 49
10 84 0 49 -4 68 -18 80 -23 21 -46 22 -66 1z"/>
<path d="M930 740 c-16 -16 -20 -33 -20 -81 0 -75 12 -99 48 -99 44 0 52 16
52 102 0 66 -3 79 -19 88 -28 14 -38 13 -61 -10z"/>
</g>
</svg>
