<?xml version="1.0" standalone="no"?>
<!DOCTYPE svg PUBLIC "-//W3C//DTD SVG 20010904//EN"
 "http://www.w3.org/TR/2001/REC-SVG-20010904/DTD/svg10.dtd">
<svg version="1.0" xmlns="http://www.w3.org/2000/svg"
 width="192.000000pt" height="192.000000pt" viewBox="0 0 192.000000 192.000000"
 preserveAspectRatio="xMidYMid meet">
<metadata>
Created by potrace 1.16, written by Peter Selinger 2001-2019
</metadata>
<g transform="translate(0.000000,192.000000) scale(0.100000,-0.100000)"
fill="#000000" stroke="none">
811 c445 -92 729 -532 635 -987 -62 -301 -295 -546 -601 -630 -91 -26 -329
-26 -420 0 -291 80 -516 305 -596 596 -26 91 -26 329 0 420 120 433 542 692
982 601z"/>
<path d="M920 1363 c-36 -13 -61 -56 -212 -357 -175 -351 -176 -354 -117 -408
36 -34 94 -38 130 -9 13 10 71 114 129 230 l105 211 107 -214 c61 -122 117
-221 130 -230 36 -26 93 -20 127 12 59 54 58 57 -118 411 -136 271 -166 324
-193 341 -33 20 -59 24 -88 13z"/>
</g>
</svg>
