<?xml version="1.0" standalone="no"?>
<!DOCTYPE svg PUBLIC "-//W3C//DTD SVG 20010904//EN"
 "http://www.w3.org/TR/2001/REC-SVG-20010904/DTD/svg10.dtd">
<svg version="1.0" xmlns="http://www.w3.org/2000/svg"
 width="192.000000pt" height="192.000000pt" viewBox="0 0 192.000000 192.000000"
 preserveAspectRatio="xMidYMid meet">
<metadata>
Created by potrace 1.16, written by Peter Selinger 2001-2019
</metadata>
<g transform="translate(0.000000,192.000000) scale(0.100000,-0.100000)"
fill="#000000" stroke="none">
811 c445 -92 729 -532 635 -987 -62 -301 -295 -546 -601 -630 -91 -26 -329
-26 -420 0 -291 80 -516 305 -596 596 -26 91 -26 329 0 420 120 433 542 692
982 601z"/>
<path d="M575 1224 l-25 -27 0 -232 c0 -217 1 -234 20 -258 25 -31 65 -42 102
-26 51 21 58 50 58 244 l0 175 65 0 65 0 0 -170 c0 -199 8 -231 63 -249 39
-13 72 -4 99 26 15 16 18 45 20 204 l3 184 50 3 c88 5 89 2 93 -201 4 -170 5
-176 28 -198 33 -31 85 -31 119 1 l25 23 0 194 c0 141 -4 203 -14 226 -17 42
-66 83 -114 97 -22 6 -161 10 -335 10 l-298 0 -24 -26z"/>
</g>
</svg>
