<?xml version="1.0" standalone="no"?>
<!DOCTYPE svg PUBLIC "-//W3C//DTD SVG 20010904//EN"
 "http://www.w3.org/TR/2001/REC-SVG-20010904/DTD/svg10.dtd">
<svg version="1.0" xmlns="http://www.w3.org/2000/svg"
 width="192.000000pt" height="192.000000pt" viewBox="0 0 192.000000 192.000000"
 preserveAspectRatio="xMidYMid meet">
<metadata>
Created by potrace 1.16, written by Peter Selinger 2001-2019
</metadata>
<g transform="translate(0.000000,192.000000) scale(0.100000,-0.100000)"
fill="#000000" stroke="none">
811 c445 -92 729 -532 635 -987 -62 -301 -295 -546 -601 -630 -91 -26 -329
-26 -420 0 -291 80 -516 305 -596 596 -26 91 -26 329 0 420 120 433 542 692
982 601z"/>
<path d="M784 1359 c-3 -6 5 -23 19 -37 l26 -26 -34 -37 c-50 -55 -56 -92 -53
-316 l3 -198 33 -3 32 -3 0 -73 c0 -79 15 -106 58 -106 35 0 52 37 52 112 l0
68 35 0 35 0 0 -74 c0 -84 14 -109 59 -104 35 4 51 40 51 116 0 59 1 62 24 62
45 0 48 15 44 232 -3 184 -5 207 -25 243 -11 22 -30 49 -42 59 l-21 19 27 29
c21 22 24 31 15 40 -9 9 -19 5 -44 -19 -27 -26 -36 -30 -52 -21 -11 6 -50 9
-97 5 -61 -4 -81 -2 -90 10 -20 23 -47 34 -55 22z m104 -153 c-2 -13 -10 -21
-23 -21 -23 0 -33 34 -14 45 20 13 40 -1 37 -24z m170 -12 c-19 -19 -38 -11
-38 16 0 24 21 31 40 14 12 -12 12 -16 -2 -30z m-122 -226 c17 -73 18 -73 26
-38 29 111 28 110 53 110 l25 0 0 -110 c0 -103 -1 -110 -20 -110 -18 0 -20 7
-21 58 l-1 57 -15 -58 c-19 -73 -42 -74 -59 -2 l-12 50 -1 -53 c-1 -49 -3 -53
-23 -50 -22 3 -23 8 -26 97 -3 111 -1 121 32 121 21 0 26 -7 42 -72z"/>
<path d="M616 1114 c-13 -13 -16 -42 -16 -164 0 -148 0 -150 25 -166 23 -15
27 -15 50 0 25 16 25 17 25 169 0 106 -4 157 -12 165 -17 17 -54 15 -72 -4z"/>
<path d="M1216 1108 c-13 -18 -16 -52 -16 -160 0 -125 2 -140 20 -158 11 -11
27 -20 35 -20 8 0 24 9 35 20 18 18 20 33 20 158 0 151 -9 182 -55 182 -13 0
-31 -10 -39 -22z"/>
</g>
</svg>
