<?xml version="1.0" standalone="no"?>
<!DOCTYPE svg PUBLIC "-//W3C//DTD SVG 20010904//EN"
 "http://www.w3.org/TR/2001/REC-SVG-20010904/DTD/svg10.dtd">
<svg version="1.0" xmlns="http://www.w3.org/2000/svg"
 width="192.000000pt" height="192.000000pt" viewBox="0 0 192.000000 192.000000"
 preserveAspectRatio="xMidYMid meet">
<metadata>
Created by potrace 1.16, written by Peter Selinger 2001-2019
</metadata>
<g transform="translate(0.000000,192.000000) scale(0.100000,-0.100000)"
fill="#000000" stroke="none">
811 c445 -92 729 -532 635 -987 -62 -301 -295 -546 -601 -630 -91 -26 -329
-26 -420 0 -291 80 -516 305 -596 596 -26 91 -26 329 0 420 120 433 542 692
982 601z"/>
<path d="M849 1362 c-158 -42 -271 -167 -301 -332 -20 -114 23 -255 104 -340
l33 -35 5 236 c4 175 8 240 18 252 19 22 67 31 94 16 28 -15 34 -23 99 -127
35 -57 55 -80 62 -73 5 5 33 49 61 98 54 92 87 120 131 109 54 -14 55 -19 55
-272 0 -129 4 -234 9 -234 17 0 78 78 107 136 27 54 29 68 29 169 0 105 -2
114 -33 177 -57 116 -165 200 -290 227 -70 15 -104 13 -183 -7z"/>
<path d="M830 726 l0 -153 31 -7 c48 -9 165 -7 193 4 l26 10 0 150 c0 82 -4
150 -8 150 -5 0 -17 -17 -26 -39 -23 -50 -62 -91 -87 -91 -35 0 -58 19 -90 75
-17 30 -33 55 -35 55 -2 0 -4 -69 -4 -154z"/>
</g>
</svg>
