<?xml version="1.0" standalone="no"?>
<!DOCTYPE svg PUBLIC "-//W3C//DTD SVG 20010904//EN"
 "http://www.w3.org/TR/2001/REC-SVG-20010904/DTD/svg10.dtd">
<svg version="1.0" xmlns="http://www.w3.org/2000/svg"
 width="192.000000pt" height="192.000000pt" viewBox="0 0 192.000000 192.000000"
 preserveAspectRatio="xMidYMid meet">
<metadata>
Created by potrace 1.16, written by Peter Selinger 2001-2019
</metadata>
<g transform="translate(0.000000,192.000000) scale(0.100000,-0.100000)"
fill="#000000" stroke="none">
811 c445 -92 729 -532 635 -987 -62 -301 -295 -546 -601 -630 -91 -26 -329
-26 -420 0 -291 80 -516 305 -596 596 -26 91 -26 329 0 420 120 433 542 692
982 601z"/>
<path d="M746 1149 c-201 -195 -216 -216 -175 -242 13 -8 24 -5 45 12 l29 23
5 -174 5 -173 285 0 c266 0 285 1 288 18 9 44 -6 47 -264 47 l-244 0 0 178 0
177 118 118 117 117 123 -123 122 -122 0 -131 c0 -134 5 -154 42 -154 28 0 38
33 38 126 0 85 0 87 19 70 15 -14 24 -15 40 -6 12 6 21 19 21 29 0 21 -382
401 -403 401 -7 0 -102 -86 -211 -191z"/>
<path d="M889 1021 c-65 -21 -129 -72 -129 -103 0 -26 26 -22 68 11 80 65 181
63 259 -4 40 -34 63 -36 63 -5 0 20 -45 62 -93 86 -35 19 -131 27 -168 15z"/>
<path d="M906 930 c-34 -10 -76 -48 -76 -67 0 -24 28 -25 59 -2 40 30 92 30
132 0 51 -38 82 -6 36 37 -23 22 -78 43 -107 41 -8 0 -28 -5 -44 -9z"/>
<path d="M917 829 c-30 -42 12 -92 59 -70 27 12 33 58 12 79 -19 19 -55 14
-71 -9z"/>
</g>
</svg>
