<?xml version="1.0" standalone="no"?>
<!DOCTYPE svg PUBLIC "-//W3C//DTD SVG 20010904//EN"
 "http://www.w3.org/TR/2001/REC-SVG-20010904/DTD/svg10.dtd">
<svg version="1.0" xmlns="http://www.w3.org/2000/svg"
 width="192.000000pt" height="192.000000pt" viewBox="0 0 192.000000 192.000000"
 preserveAspectRatio="xMidYMid meet">
<metadata>
Created by potrace 1.16, written by Peter Selinger 2001-2019
</metadata>
<g transform="translate(0.000000,192.000000) scale(0.100000,-0.100000)"
fill="#000000" stroke="none">
811 c445 -92 729 -532 635 -987 -62 -301 -295 -546 -601 -630 -91 -26 -329
-26 -420 0 -291 80 -516 305 -596 596 -26 91 -26 329 0 420 120 433 542 692
982 601z"/>
<path d="M843 1423 c-29 -6 -29 -11 3 -44 20 -20 28 -43 34 -95 5 -38 18 -105
30 -148 11 -44 21 -95 21 -115 1 -35 2 -35 10 9 13 78 11 297 -5 334 -12 30
-52 68 -66 65 -3 -1 -15 -4 -27 -6z"/>
<path d="M1003 1408 c-11 -13 -26 -33 -32 -45 -13 -26 -14 -318 -1 -348 7 -16
9 -13 9 16 1 19 12 78 26 130 13 51 25 113 25 136 0 33 7 50 31 78 18 20 30
37 28 39 -2 2 -18 7 -34 10 -25 5 -35 2 -52 -16z"/>
<path d="M745 1388 c-59 -33 -59 -34 2 -122 100 -144 157 -201 122 -122 -10
24 -26 83 -34 131 -22 125 -36 143 -90 113z"/>
<path d="M1101 1381 c-6 -10 -17 -58 -26 -106 -8 -48 -24 -107 -35 -132 -18
-40 -18 -44 -3 -32 28 22 64 67 125 154 54 77 56 83 40 97 -46 40 -86 48 -101
19z"/>
<path d="M651 1279 c-20 -35 -21 -44 -11 -69 15 -35 53 -61 135 -89 32 -12 60
-21 60 -21 1 0 -22 24 -50 53 -28 29 -64 79 -79 110 -16 31 -29 57 -30 57 -1
0 -13 -18 -25 -41z"/>
<path d="M1199 1258 c-13 -29 -49 -78 -80 -110 -31 -31 -47 -52 -37 -47 11 6
45 19 76 30 71 25 112 62 112 104 0 30 -23 75 -39 75 -4 0 -18 -23 -32 -52z"/>
<path d="M626 1145 c11 -51 57 -127 89 -147 37 -22 103 -23 133 -2 46 32 17
65 -78 89 -69 17 -103 36 -132 69 -18 21 -18 21 -12 -9z"/>
<path d="M1254 1139 c-21 -21 -53 -37 -99 -50 -110 -30 -140 -60 -93 -93 28
-20 90 -20 128 -1 33 17 78 88 90 140 4 19 7 35 6 35 -1 0 -15 -14 -32 -31z"/>
<path d="M603 1029 c6 -85 26 -141 64 -181 35 -36 47 -35 71 6 11 19 44 53 74
77 29 23 44 39 33 35 -11 -5 -40 -11 -65 -13 -58 -6 -105 24 -140 89 -39 71
-43 70 -37 -13z"/>
<path d="M1273 1048 c-38 -71 -84 -101 -143 -95 -25 2 -54 8 -65 11 -16 6 -15
3 5 -11 52 -38 92 -77 106 -104 8 -16 20 -29 27 -29 20 0 64 51 82 94 16 39
34 186 22 186 -3 0 -18 -23 -34 -52z"/>
<path d="M875 908 c-11 -6 -43 -33 -72 -59 -46 -44 -57 -49 -98 -49 -40 0 -51
5 -92 43 -44 41 -45 41 -30 11 23 -45 80 -91 128 -104 51 -14 95 -1 135 41 38
40 75 59 117 59 26 0 46 -11 91 -50 32 -28 70 -52 89 -55 48 -9 111 20 157 73
54 60 51 74 -5 23 -39 -35 -51 -41 -90 -41 -41 0 -51 5 -104 54 -66 60 -91 72
-121 56 -14 -7 -26 -8 -39 0 -25 13 -41 12 -66 -2z"/>
<path d="M921 662 c3 -91 8 -134 18 -146 33 -40 61 44 61 184 0 88 -1 90 -20
78 -16 -10 -24 -10 -41 0 -21 13 -21 13 -18 -116z"/>
<path d="M1026 755 c5 -16 9 -70 9 -119 0 -56 4 -91 11 -93 11 -4 95 82 134
137 24 33 23 34 -15 20 -32 -12 -55 -2 -109 49 l-39 36 9 -30z"/>
<path d="M840 729 c-47 -40 -76 -47 -113 -27 -26 13 -28 16 57 -89 36 -46 66
-73 78 -73 17 0 18 5 12 59 -3 33 -1 81 5 111 6 29 10 54 9 55 -2 2 -23 -15
-48 -36z"/>
</g>
</svg>
