<?xml version="1.0" standalone="no"?>
<!DOCTYPE svg PUBLIC "-//W3C//DTD SVG 20010904//EN"
 "http://www.w3.org/TR/2001/REC-SVG-20010904/DTD/svg10.dtd">
<svg version="1.0" xmlns="http://www.w3.org/2000/svg"
 width="192.000000pt" height="192.000000pt" viewBox="0 0 192.000000 192.000000"
 preserveAspectRatio="xMidYMid meet">
<metadata>
Created by potrace 1.16, written by Peter Selinger 2001-2019
</metadata>
<g transform="translate(0.000000,192.000000) scale(0.100000,-0.100000)"
fill="#000000" stroke="none">
811 c445 -92 729 -532 635 -987 -62 -301 -295 -546 -601 -630 -91 -26 -329
-26 -420 0 -291 80 -516 305 -596 596 -26 91 -26 329 0 420 120 433 542 692
982 601z"/>
<path d="M670 1312 c-56 -28 -80 -73 -80 -152 0 -114 57 -170 175 -170 79 0
123 23 153 80 46 90 17 201 -62 239 -53 26 -138 28 -186 3z"/>
<path d="M1053 1309 c-78 -38 -106 -149 -60 -239 29 -57 73 -80 152 -80 118 0
175 56 175 170 0 79 -24 124 -80 152 -49 25 -134 23 -187 -3z"/>
<path d="M670 922 c-56 -28 -80 -73 -80 -152 0 -53 5 -74 23 -101 43 -65 62
-69 342 -69 280 0 299 4 342 69 18 27 23 48 23 101 0 53 -5 74 -23 101 -43 65
-62 69 -342 69 -218 0 -254 -2 -285 -18z"/>
</g>
</svg>
