<?xml version="1.0" standalone="no"?>
<!DOCTYPE svg PUBLIC "-//W3C//DTD SVG 20010904//EN"
 "http://www.w3.org/TR/2001/REC-SVG-20010904/DTD/svg10.dtd">
<svg version="1.0" xmlns="http://www.w3.org/2000/svg"
 width="192.000000pt" height="192.000000pt" viewBox="0 0 192.000000 192.000000"
 preserveAspectRatio="xMidYMid meet">
<metadata>
Created by potrace 1.16, written by Peter Selinger 2001-2019
</metadata>
<g transform="translate(0.000000,192.000000) scale(0.100000,-0.100000)"
fill="#000000" stroke="none">
811 c445 -92 729 -532 635 -987 -62 -301 -295 -546 -601 -630 -91 -26 -329
-26 -420 0 -291 80 -516 305 -596 596 -26 91 -26 329 0 420 120 433 542 692
982 601z"/>
<path d="M870 1355 c-151 -42 -252 -175 -253 -335 -1 -106 33 -174 151 -306
116 -130 134 -144 186 -144 55 0 83 22 196 149 120 135 145 187 145 301 -1 70
-5 95 -27 141 -72 156 -240 237 -398 194z m196 -103 c85 -43 135 -119 142
-213 8 -101 -25 -160 -170 -313 -64 -67 -78 -77 -94 -68 -30 16 -186 197 -211
245 -76 141 -1 316 157 368 40 13 133 3 176 -19z"/>
<path d="M894 1140 c-73 -37 -104 -128 -66 -197 27 -50 109 -133 131 -133 20
0 88 70 122 125 25 40 25 111 -1 153 -21 33 -87 71 -125 72 -11 0 -38 -9 -61
-20z"/>
</g>
</svg>
