<?xml version="1.0" standalone="no"?>
<!DOCTYPE svg PUBLIC "-//W3C//DTD SVG 20010904//EN"
 "http://www.w3.org/TR/2001/REC-SVG-20010904/DTD/svg10.dtd">
<svg version="1.0" xmlns="http://www.w3.org/2000/svg"
 width="192.000000pt" height="192.000000pt" viewBox="0 0 192.000000 192.000000"
 preserveAspectRatio="xMidYMid meet">
<metadata>
Created by potrace 1.16, written by Peter Selinger 2001-2019
</metadata>
<g transform="translate(0.000000,192.000000) scale(0.100000,-0.100000)"
fill="#000000" stroke="none">
811 c445 -92 729 -532 635 -987 -62 -301 -295 -546 -601 -630 -91 -26 -329
-26 -420 0 -291 80 -516 305 -596 596 -26 91 -26 329 0 420 120 433 542 692
982 601z"/>
<path d="M724 1340 c-52 -12 -98 -46 -124 -92 -24 -41 -25 -52 -28 -236 -4
-213 -2 -218 58 -187 50 26 60 64 60 224 0 195 -26 181 329 181 305 0 321 3
321 59 0 59 -9 61 -311 60 -151 -1 -288 -4 -305 -9z"/>
<path d="M808 1109 c-16 -9 -18 -27 -18 -142 0 -144 4 -157 51 -157 41 0 59
24 59 77 l0 46 23 -21 c29 -27 41 -28 67 -2 l20 20 0 -38 c0 -50 23 -82 60
-82 53 0 60 18 60 155 0 117 -1 125 -22 139 -40 29 -73 20 -114 -28 l-37 -45
-35 45 c-28 35 -41 44 -66 44 -17 0 -39 -5 -48 -11z"/>
<path d="M1263 1086 l-28 -24 -5 -161 c-7 -225 24 -205 -338 -209 -246 -3
-289 -5 -304 -19 -23 -21 -23 -55 0 -76 16 -15 53 -17 306 -17 307 0 331 3
385 53 53 49 61 86 61 290 l0 187 -24 0 c-14 0 -38 -11 -53 -24z"/>
</g>
</svg>
