<?xml version="1.0" standalone="no"?>
<!DOCTYPE svg PUBLIC "-//W3C//DTD SVG 20010904//EN"
 "http://www.w3.org/TR/2001/REC-SVG-20010904/DTD/svg10.dtd">
<svg version="1.0" xmlns="http://www.w3.org/2000/svg"
 width="192.000000pt" height="192.000000pt" viewBox="0 0 192.000000 192.000000"
 preserveAspectRatio="xMidYMid meet">
<metadata>
Created by potrace 1.16, written by Peter Selinger 2001-2019
</metadata>
<g transform="translate(0.000000,192.000000) scale(0.100000,-0.100000)"
fill="#000000" stroke="none">
811 c445 -92 729 -532 635 -987 -62 -301 -295 -546 -601 -630 -91 -26 -329
-26 -420 0 -291 80 -516 305 -596 596 -26 91 -26 329 0 420 120 433 542 692
982 601z"/>
<path d="M722 1247 c-49 -15 -122 -85 -148 -142 -22 -46 -24 -63 -24 -212 0
-158 1 -162 25 -191 43 -51 107 -51 154 -1 19 21 21 34 21 169 0 158 9 190 54
190 42 0 46 -16 46 -170 0 -161 6 -183 57 -213 40 -23 81 -16 117 20 25 25 26
29 26 167 0 156 9 189 51 194 52 6 59 -15 59 -173 0 -162 7 -186 57 -210 44
-21 85 -12 118 27 25 29 25 32 25 196 -1 181 -8 216 -55 278 -61 80 -212 110
-305 61 l-43 -23 -45 23 c-50 25 -130 30 -190 10z"/>
</g>
</svg>
