<?xml version="1.0" standalone="no"?>
<!DOCTYPE svg PUBLIC "-//W3C//DTD SVG 20010904//EN"
 "http://www.w3.org/TR/2001/REC-SVG-20010904/DTD/svg10.dtd">
<svg version="1.0" xmlns="http://www.w3.org/2000/svg"
 width="192.000000pt" height="192.000000pt" viewBox="0 0 192.000000 192.000000"
 preserveAspectRatio="xMidYMid meet">
<metadata>
Created by potrace 1.16, written by Peter Selinger 2001-2019
</metadata>
<g transform="translate(0.000000,192.000000) scale(0.100000,-0.100000)"
fill="#000000" stroke="none">
811 c445 -92 729 -532 635 -987 -62 -301 -295 -546 -601 -630 -91 -26 -329
-26 -420 0 -291 80 -516 305 -596 596 -26 91 -26 329 0 420 120 433 542 692
982 601z"/>
<path d="M1282 1303 c-17 -15 -25 -45 -42 -163 -12 -84 -26 -151 -34 -159 -26
-25 -40 24 -42 145 0 61 -4 116 -8 123 -10 15 -51 14 -64 -2 -6 -7 -16 -55
-22 -107 -11 -97 -39 -235 -46 -227 -2 2 -11 51 -20 108 -16 113 -28 135 -67
125 -28 -7 -47 -46 -67 -138 -7 -32 -17 -55 -22 -52 -4 3 -8 34 -8 70 0 73
-12 104 -39 104 -30 0 -48 -30 -71 -120 -13 -47 -26 -89 -30 -93 -4 -4 -10 12
-13 37 -4 25 -13 61 -21 81 -12 29 -20 35 -45 35 -20 0 -36 -8 -50 -26 -24
-30 -38 -110 -24 -133 15 -23 45 -26 59 -6 12 16 13 16 18 -6 3 -13 11 -66 17
-117 12 -91 25 -122 54 -122 27 0 40 28 59 121 11 52 21 89 23 82 2 -6 12 -40
21 -75 14 -52 21 -64 40 -66 36 -5 48 12 73 103 13 47 27 85 31 85 3 0 10 -15
13 -32 27 -122 107 -126 135 -7 7 27 14 49 17 49 3 0 17 -12 30 -26 19 -21 31
-25 58 -22 l35 4 0 -66 c0 -118 34 -190 91 -190 49 0 56 23 24 87 -25 48 -29
70 -33 165 -3 70 2 167 13 264 14 124 15 157 5 169 -16 19 -23 19 -48 -2z"/>
</g>
</svg>
