<?xml version="1.0" standalone="no"?>
<!DOCTYPE svg PUBLIC "-//W3C//DTD SVG 20010904//EN"
 "http://www.w3.org/TR/2001/REC-SVG-20010904/DTD/svg10.dtd">
<svg version="1.0" xmlns="http://www.w3.org/2000/svg"
 width="192.000000pt" height="192.000000pt" viewBox="0 0 192.000000 192.000000"
 preserveAspectRatio="xMidYMid meet">
<metadata>
Created by potrace 1.16, written by Peter Selinger 2001-2019
</metadata>
<g transform="translate(0.000000,192.000000) scale(0.100000,-0.100000)"
fill="#000000" stroke="none">
811 c445 -92 729 -532 635 -987 -62 -301 -295 -546 -601 -630 -91 -26 -329
-26 -420 0 -291 80 -516 305 -596 596 -26 91 -26 329 0 420 120 433 542 692
982 601z"/>
<path d="M743 1249 c-55 -10 -91 -30 -129 -71 -63 -67 -69 -87 -72 -274 -4
-169 -3 -171 21 -200 31 -36 86 -39 120 -6 20 21 22 34 27 188 5 151 7 167 25
180 11 8 30 17 41 20 30 8 83 -22 89 -49 2 -12 6 -88 7 -169 3 -137 5 -149 25
-170 15 -14 35 -22 58 -22 23 0 43 8 58 22 20 21 22 33 25 170 1 81 5 157 7
169 7 30 58 56 95 48 50 -11 55 -25 60 -201 5 -152 7 -165 27 -186 33 -33 89
-30 119 6 23 26 24 34 24 175 0 168 -13 231 -61 286 -83 94 -221 116 -319 51
-36 -24 -37 -24 -61 -5 -45 35 -121 50 -186 38z"/>
</g>
</svg>
