<?xml version="1.0" standalone="no"?>
<!DOCTYPE svg PUBLIC "-//W3C//DTD SVG 20010904//EN"
 "http://www.w3.org/TR/2001/REC-SVG-20010904/DTD/svg10.dtd">
<svg version="1.0" xmlns="http://www.w3.org/2000/svg"
 width="192.000000pt" height="192.000000pt" viewBox="0 0 192.000000 192.000000"
 preserveAspectRatio="xMidYMid meet">
<metadata>
Created by potrace 1.16, written by Peter Selinger 2001-2019
</metadata>
<g transform="translate(0.000000,192.000000) scale(0.100000,-0.100000)"
fill="#000000" stroke="none">
811 c445 -92 729 -532 635 -987 -62 -301 -295 -546 -601 -630 -91 -26 -329
-26 -420 0 -291 80 -516 305 -596 596 -26 91 -26 329 0 420 120 433 542 692
982 601z"/>
<path d="M931 1353 c-8 -15 -12 -16 -22 -5 -20 19 -67 15 -74 -7 -3 -10 -32
-35 -65 -55 -32 -20 -69 -49 -81 -64 -14 -17 -23 -23 -26 -14 -7 19 -24 14
-55 -15 -32 -30 -36 -51 -12 -60 15 -6 15 -7 -1 -19 -21 -16 -15 -67 12 -96
14 -16 14 -18 0 -18 -19 0 -57 -46 -57 -70 0 -26 39 -70 61 -70 22 0 22 -1 8
-32 -7 -16 -7 -32 0 -51 18 -47 93 -119 154 -148 32 -15 67 -35 77 -44 12 -11
29 -16 45 -13 14 3 28 1 31 -3 6 -11 48 -12 58 -2 4 4 23 6 42 4 23 -2 36 2
40 13 3 8 30 26 59 40 104 47 189 152 166 203 -15 32 -14 33 8 33 22 0 61 44
61 70 0 22 -37 70 -55 70 -10 0 -8 9 6 37 24 46 24 69 2 78 -17 6 -17 7 0 16
24 14 21 31 -11 62 -31 29 -48 34 -55 15 -2 -8 -15 -2 -34 19 -16 17 -51 45
-77 62 -27 16 -55 39 -63 51 -16 22 -52 27 -72 8 -10 -11 -14 -10 -22 5 -6 9
-16 17 -24 17 -8 0 -18 -8 -24 -17z m-23 -64 c-25 -14 -22 -38 5 -49 21 -8 21
-9 -5 -9 -18 -1 -29 5 -33 19 -8 24 10 50 34 50 14 -1 14 -2 -1 -11z m53 -36
c-9 -15 -10 -12 -10 17 0 29 1 32 10 18 7 -12 7 -24 0 -35z m49 17 c0 -16 -4
-30 -10 -30 -5 0 -10 14 -10 30 0 17 5 30 10 30 6 0 10 -13 10 -30z m61 11
c-8 -5 -10 -14 -6 -21 6 -9 4 -11 -5 -5 -10 6 -12 3 -8 -13 4 -15 2 -19 -8
-15 -28 11 -12 63 20 63 16 0 18 -2 7 -9z m-215 -28 c23 -30 18 -44 -12 -33
-35 14 -36 13 -24 -10 13 -25 2 -26 -16 -2 -23 29 -18 43 12 32 35 -14 36 -13
24 10 -13 25 -2 26 16 3z m272 -1 c-14 -3 -16 -7 -8 -23 9 -15 7 -21 -5 -25
-9 -4 -22 -1 -28 5 -9 9 -8 11 7 5 15 -6 17 -4 12 14 -9 28 0 43 22 34 16 -6
16 -7 0 -10z m63 -39 c8 -9 9 -14 3 -10 -6 4 -19 -2 -29 -13 -10 -11 -23 -20
-28 -20 -6 0 -3 8 6 18 10 10 17 24 17 30 0 17 15 15 31 -5z m-386 -35 c7 -7
-1 -9 -25 -5 -19 3 -29 3 -22 0 6 -2 12 -12 12 -21 -1 -15 -3 -14 -15 2 -24
32 -19 49 13 41 15 -3 32 -11 37 -17z m233 -5 l37 -18 -63 -3 c-34 -2 -88 -2
-120 0 l-57 3 35 17 c46 22 121 22 168 1z m188 -5 c4 -7 3 -8 -4 -4 -7 4 -12
1 -12 -8 0 -9 -6 -15 -12 -13 -7 1 -12 -4 -10 -12 3 -12 1 -12 -13 -1 -15 13
-15 15 7 32 27 21 34 22 44 6z m-494 -25 c22 -20 24 -41 2 -22 -15 12 -16 11
-9 -10 6 -21 5 -23 -14 -18 -18 4 -20 3 -10 -9 22 -27 3 -24 -22 2 l-24 27 33
-6 c30 -6 32 -5 22 13 -21 39 -9 52 22 23z m121 -371 c28 -18 46 -32 39 -32
-24 0 -91 40 -141 84 -27 24 -55 46 -63 49 -10 4 -11 7 0 18 17 18 15 64 -3
79 -21 17 -19 25 9 39 12 7 41 36 62 64 l39 52 3 -160 2 -161 53 -32z m337
257 c14 -14 32 -28 40 -31 13 -4 12 -8 -2 -25 -20 -21 -24 -68 -8 -78 14 -8
13 -25 -1 -25 -7 0 -33 -20 -59 -44 -48 -45 -124 -90 -141 -84 -6 2 13 17 40
33 l51 30 0 160 1 160 27 -35 c15 -19 38 -47 52 -61z m-208 38 c-1 -14 2 -28
8 -32 6 -3 8 -11 5 -16 -4 -5 2 -6 11 -2 11 4 13 8 6 11 -7 2 -12 18 -11 35 1
31 1 31 9 7 5 -17 8 -19 9 -7 1 9 6 17 11 17 6 0 10 -8 11 -17 1 -12 4 -10 9
7 8 24 8 23 9 -7 1 -18 -4 -33 -10 -33 -5 0 -9 -8 -8 -17 1 -10 1 -46 0 -80
-1 -71 -21 -88 -21 -19 0 45 -11 63 -30 51 -6 -4 -4 -12 5 -21 8 -9 15 -27 15
-41 l0 -26 -24 22 -24 22 2 -47 c0 -26 -4 -49 -9 -51 -13 -4 -38 53 -31 72 3
8 -1 18 -9 23 -9 5 -17 31 -21 69 -6 57 -8 61 -25 52 -23 -12 -26 5 -5 27 32
32 59 -1 49 -60 -4 -25 -2 -36 6 -36 7 0 11 10 10 23 -2 12 0 28 4 34 4 7 3
22 -3 33 -15 27 -5 39 28 35 22 -2 27 -7 24 -28z m-187 -334 c-15 -37 -17 -53
-6 -53 6 0 17 11 23 25 11 24 28 34 28 17 0 -15 -31 -52 -44 -52 -26 0 -38 26
-25 54 13 29 36 37 24 9z m383 0 c12 -23 5 -40 -19 -53 -15 -9 -21 -5 -34 19
-14 28 -14 31 3 40 25 15 40 13 50 -6z m-98 -28 c-10 -12 -9 -15 6 -16 11 0
14 -3 7 -6 -18 -7 -16 -21 5 -26 13 -4 12 -5 -5 -6 -28 -1 -44 46 -22 60 20
13 23 11 9 -6z m-195 -22 l7 -28 13 25 c13 22 14 22 14 5 0 -11 -4 -29 -8 -40
-8 -19 -9 -18 -21 8 -14 29 -30 36 -30 12 0 -8 -4 -15 -10 -15 -5 0 -7 8 -4
18 3 9 8 23 10 30 6 21 22 13 29 -15z m136 -20 c-4 -36 -5 -37 -12 -11 -4 14
-10 31 -14 37 -3 6 2 11 12 11 16 0 18 -6 14 -37z m-65 -31 c-11 -10 -14 3 -8
33 l7 30 3 -28 c2 -16 1 -31 -2 -35z"/>
<path d="M1005 990 c3 -5 8 -10 11 -10 2 0 4 5 4 10 0 6 -5 10 -11 10 -5 0 -7
-4 -4 -10z"/>
<path d="M1137 734 c-8 -9 11 -44 24 -44 6 0 9 10 7 22 -3 22 -19 34 -31 22z"/>
</g>
</svg>
