<?xml version="1.0" standalone="no"?>
<!DOCTYPE svg PUBLIC "-//W3C//DTD SVG 20010904//EN"
 "http://www.w3.org/TR/2001/REC-SVG-20010904/DTD/svg10.dtd">
<svg version="1.0" xmlns="http://www.w3.org/2000/svg"
 width="192.000000pt" height="192.000000pt" viewBox="0 0 192.000000 192.000000"
 preserveAspectRatio="xMidYMid meet">
<metadata>
Created by potrace 1.16, written by Peter Selinger 2001-2019
</metadata>
<g transform="translate(0.000000,192.000000) scale(0.100000,-0.100000)"
fill="#000000" stroke="none">
811 c445 -92 729 -532 635 -987 -62 -301 -295 -546 -601 -630 -91 -26 -329
-26 -420 0 -291 80 -516 305 -596 596 -26 91 -26 329 0 420 120 433 542 692
982 601z"/>
<path d="M1129 1301 c-19 -11 -51 -29 -70 -40 -51 -31 -82 -27 -113 14 -38 50
-75 48 -174 -10 -117 -68 -110 -60 -82 -89 32 -35 57 -33 138 14 92 53 122 53
173 -2 l39 -43 33 19 c111 64 145 78 176 71 18 -4 41 -20 53 -36 33 -44 50
-44 122 -3 l65 38 -20 28 c-25 35 -46 35 -110 3 -55 -28 -65 -26 -113 24 -35
36 -66 39 -117 12z"/>
<path d="M1160 1072 l0 -38 -39 4 c-32 3 -42 -1 -60 -23 -44 -57 -12 -145 53
-145 17 0 37 5 44 12 9 9 12 9 12 0 0 -7 9 -12 20 -12 19 0 20 7 20 120 l0
120 -25 0 c-22 0 -25 -4 -25 -38z m-5 -117 c0 -42 -3 -50 -20 -53 -33 -4 -49
14 -49 53 0 39 16 57 49 53 17 -3 20 -11 20 -53z"/>
<path d="M424 1024 c3 -9 6 -47 6 -85 0 -62 2 -69 20 -69 17 0 19 8 22 67 3
57 6 68 22 71 27 5 36 -15 36 -80 0 -51 2 -58 20 -58 18 0 20 7 20 59 0 61 16
89 45 77 11 -4 15 -22 15 -71 0 -58 2 -65 20 -65 18 0 20 7 20 74 0 85 -11
102 -62 92 -18 -3 -37 -6 -43 -6 -5 0 -25 3 -43 6 -20 4 -38 2 -47 -6 -10 -9
-15 -9 -15 -1 0 6 -9 11 -21 11 -15 0 -19 -4 -15 -16z"/>
<path d="M717 1033 c-16 -15 -5 -23 32 -23 52 0 63 -25 14 -33 -46 -8 -63 -23
-63 -57 0 -39 17 -48 84 -48 l58 1 -4 67 c-2 37 -10 75 -17 84 -13 16 -91 23
-104 9z m83 -92 c0 -25 -14 -41 -36 -41 -17 0 -24 6 -24 18 0 10 3 22 7 25 10
10 53 8 53 -2z"/>
<path d="M870 955 c0 -78 2 -85 20 -85 18 0 20 7 20 59 0 66 18 93 48 74 12
-7 18 -27 20 -72 3 -53 6 -61 22 -61 18 0 20 7 20 63 0 94 -38 130 -101 97
-13 -7 -19 -7 -19 0 0 5 -7 10 -15 10 -12 0 -15 -16 -15 -85z"/>
<path d="M1240 955 c0 -78 2 -85 20 -85 18 0 20 7 20 85 0 78 -2 85 -20 85
-18 0 -20 -7 -20 -85z"/>
<path d="M1310 955 c0 -78 2 -85 20 -85 17 0 20 7 20 44 0 58 8 76 36 87 13 4
24 15 24 24 0 18 -31 20 -48 3 -9 -9 -12 -9 -12 0 0 7 -9 12 -20 12 -18 0 -20
-7 -20 -85z"/>
<path d="M1430 955 c0 -78 2 -85 20 -85 18 0 20 7 20 85 0 78 -2 85 -20 85
-18 0 -20 -7 -20 -85z"/>
<path d="M1094 710 c0 -58 1 -81 3 -52 2 28 2 76 0 105 -2 28 -3 5 -3 -53z"/>
<path d="M791 724 c-40 -51 -16 -114 44 -114 24 0 39 7 49 22 52 74 -38 162
-93 92z m88 -18 c12 -26 12 -33 0 -55 -17 -31 -60 -39 -79 -16 -16 19 -16 71
1 91 20 24 62 13 78 -20z"/>
<path d="M939 746 c-2 -2 -2 -35 1 -73 l4 -68 6 59 c3 41 10 62 23 70 31 20
51 -4 58 -70 l6 -59 1 61 c1 35 -3 65 -10 72 -15 15 -55 16 -64 1 -5 -8 -8 -8
-13 0 -4 6 -9 9 -12 7z"/>
<path d="M1153 680 c0 -41 2 -58 4 -37 2 20 2 54 0 75 -2 20 -4 3 -4 -38z"/>
<path d="M1213 680 c0 -56 2 -62 4 -25 9 110 79 117 93 9 l7 -59 2 51 c1 38
-4 58 -18 75 -17 22 -22 23 -50 13 -22 -9 -31 -9 -35 0 -2 6 -4 -23 -3 -64z"/>
<path d="M1370 723 c-16 -20 -20 -36 -16 -57 9 -45 24 -56 70 -54 40 1 40 1 6
5 -42 5 -60 19 -60 44 0 16 8 19 51 19 48 0 50 1 43 23 -16 55 -59 64 -94 20z
m68 5 c24 -24 13 -38 -28 -38 -26 0 -40 5 -40 13 0 18 21 37 40 37 9 0 21 -5
28 -12z"/>
</g>
</svg>
