<?xml version="1.0" standalone="no"?>
<!DOCTYPE svg PUBLIC "-//W3C//DTD SVG 20010904//EN"
 "http://www.w3.org/TR/2001/REC-SVG-20010904/DTD/svg10.dtd">
<svg version="1.0" xmlns="http://www.w3.org/2000/svg"
 width="192.000000pt" height="192.000000pt" viewBox="0 0 192.000000 192.000000"
 preserveAspectRatio="xMidYMid meet">
<metadata>
Created by potrace 1.16, written by Peter Selinger 2001-2019
</metadata>
<g transform="translate(0.000000,192.000000) scale(0.100000,-0.100000)"
fill="#000000" stroke="none">
811 c445 -92 729 -532 635 -987 -62 -301 -295 -546 -601 -630 -91 -26 -329
-26 -420 0 -291 80 -516 305 -596 596 -26 91 -26 329 0 420 120 433 542 692
982 601z"/>
<path d="M862 1349 c-71 -12 -138 -48 -188 -101 -61 -63 -83 -114 -94 -220
-13 -121 -13 -369 0 -403 18 -48 47 -52 393 -51 l319 1 24 28 c23 28 24 32 24
210 0 122 -5 205 -15 252 -30 141 -93 224 -201 265 -63 23 -188 33 -262 19z
m273 -193 c37 -48 55 -147 55 -303 l0 -133 -141 0 -141 0 66 73 c37 39 81 101
98 136 28 55 32 75 32 135 0 47 -6 82 -17 103 -9 18 -17 35 -17 38 0 13 41
-18 65 -49z m-219 0 c30 -30 34 -40 34 -88 0 -80 -37 -147 -132 -240 -43 -43
-83 -78 -88 -78 -13 0 -13 208 1 290 12 75 35 120 70 137 43 22 78 16 115 -21z"/>
</g>
</svg>
