<?xml version="1.0" standalone="no"?>
<!DOCTYPE svg PUBLIC "-//W3C//DTD SVG 20010904//EN"
 "http://www.w3.org/TR/2001/REC-SVG-20010904/DTD/svg10.dtd">
<svg version="1.0" xmlns="http://www.w3.org/2000/svg"
 width="192.000000pt" height="192.000000pt" viewBox="0 0 192.000000 192.000000"
 preserveAspectRatio="xMidYMid meet">
<metadata>
Created by potrace 1.16, written by Peter Selinger 2001-2019
</metadata>
<g transform="translate(0.000000,192.000000) scale(0.100000,-0.100000)"
fill="#000000" stroke="none">
811 c445 -92 729 -532 635 -987 -62 -301 -295 -546 -601 -630 -91 -26 -329
-26 -420 0 -291 80 -516 305 -596 596 -26 91 -26 329 0 420 120 433 542 692
982 601z"/>
<path d="M867 1370 c-60 -15 -137 -51 -137 -64 0 -19 74 -235 82 -238 10 -4
356 246 352 254 -3 4 -30 16 -62 28 -65 25 -178 34 -235 20z"/>
<path d="M1185 1267 c-16 -12 -65 -47 -108 -78 l-78 -57 175 -127 c97 -69 180
-124 186 -120 16 10 12 135 -6 196 -18 63 -59 131 -106 176 l-33 32 -30 -22z"/>
<path d="M648 1243 c-45 -50 -70 -94 -89 -155 -20 -65 -25 -171 -9 -212 l10
-26 131 0 c101 0 130 3 127 13 -3 6 -33 101 -68 210 -35 108 -67 197 -70 197
-3 0 -18 -12 -32 -27z"/>
<path d="M1125 958 c-24 -62 -134 -402 -132 -405 7 -6 119 28 159 48 77 39
188 164 188 211 0 8 -44 45 -97 83 -114 82 -112 80 -118 63z"/>
<path d="M600 751 c61 -98 161 -167 278 -192 30 -6 55 -9 56 -7 2 1 21 58 44
126 l41 122 -225 0 -224 0 30 -49z"/>
</g>
</svg>
