<?xml version="1.0" standalone="no"?>
<!DOCTYPE svg PUBLIC "-//W3C//DTD SVG 20010904//EN"
 "http://www.w3.org/TR/2001/REC-SVG-20010904/DTD/svg10.dtd">
<svg version="1.0" xmlns="http://www.w3.org/2000/svg"
 width="192.000000pt" height="192.000000pt" viewBox="0 0 192.000000 192.000000"
 preserveAspectRatio="xMidYMid meet">
<metadata>
Created by potrace 1.16, written by Peter Selinger 2001-2019
</metadata>
<g transform="translate(0.000000,192.000000) scale(0.100000,-0.100000)"
fill="#000000" stroke="none">
811 c445 -92 729 -532 635 -987 -62 -301 -295 -546 -601 -630 -91 -26 -329
-26 -420 0 -291 80 -516 305 -596 596 -26 91 -26 329 0 420 120 433 542 692
982 601z"/>
<path d="M901 1358 c-24 -7 -79 -53 -179 -151 -163 -160 -188 -199 -177 -276
6 -43 17 -56 148 -189 173 -176 190 -188 223 -173 19 8 24 18 24 49 0 57 -49
107 -115 116 -65 10 -119 46 -145 96 -13 26 -27 40 -40 40 -11 0 -20 5 -20 10
0 17 60 130 69 130 10 0 101 -96 101 -106 0 -4 -7 -12 -15 -18 -14 -10 -14
-13 0 -33 9 -13 24 -27 33 -32 16 -9 17 -4 14 54 -2 35 1 79 7 97 10 29 9 34
-11 50 l-23 18 24 19 c44 34 180 96 190 86 5 -6 11 -53 13 -105 l3 -95 -29 3
c-34 4 -46 -10 -46 -56 0 -25 10 -44 46 -82 26 -28 51 -50 56 -50 5 0 23 13
39 30 34 34 39 87 7 82 -9 -1 -19 2 -23 8 -9 15 37 150 51 150 17 0 134 -98
134 -111 0 -6 -9 -13 -20 -16 -15 -4 -18 -11 -14 -28 15 -61 -37 -146 -114
-187 -26 -14 -32 -23 -32 -50 0 -32 3 -30 139 107 129 130 140 143 146 186 11
77 -14 116 -176 275 -167 164 -195 179 -288 152z"/>
</g>
</svg>
