<?xml version="1.0" standalone="no"?>
<!DOCTYPE svg PUBLIC "-//W3C//DTD SVG 20010904//EN"
 "http://www.w3.org/TR/2001/REC-SVG-20010904/DTD/svg10.dtd">
<svg version="1.0" xmlns="http://www.w3.org/2000/svg"
 width="192.000000pt" height="192.000000pt" viewBox="0 0 192.000000 192.000000"
 preserveAspectRatio="xMidYMid meet">
<metadata>
Created by potrace 1.16, written by Peter Selinger 2001-2019
</metadata>
<g transform="translate(0.000000,192.000000) scale(0.100000,-0.100000)"
fill="#000000" stroke="none">
811 c445 -92 729 -532 635 -987 -62 -301 -295 -546 -601 -630 -91 -26 -329
-26 -420 0 -291 80 -516 305 -596 596 -26 91 -26 329 0 420 120 433 542 692
982 601z"/>
<path d="M669 1307 c-93 -32 -119 -51 -119 -88 0 -42 27 -96 61 -121 l28 -21
-24 -19 c-57 -45 -83 -129 -49 -162 22 -22 39 -31 113 -55 116 -38 138 -25
143 83 l3 69 133 1 132 1 0 -67 c0 -55 4 -72 20 -88 25 -25 42 -25 121 0 82
25 127 53 135 84 7 28 -22 90 -60 125 l-26 24 34 37 c18 21 39 54 45 73 20 61
-5 86 -127 128 -113 39 -142 21 -142 -87 l0 -69 -132 1 -133 1 -3 69 c-5 109
-31 123 -153 81z"/>
<path d="M575 738 c-4 -13 -5 -49 -3 -79 2 -40 7 -54 18 -54 9 0 16 11 18 27
2 19 10 28 25 30 29 4 28 22 0 26 -13 2 -23 10 -23 17 0 7 10 15 23 17 38 5
27 33 -15 36 -32 3 -38 0 -43 -20z"/>
<path d="M684 747 c-3 -8 -4 -43 -2 -78 2 -49 7 -64 18 -64 12 0 15 15 15 74
0 51 -4 76 -12 78 -7 3 -15 -2 -19 -10z"/>
<path d="M735 750 c-9 -15 3 -30 26 -30 17 0 19 -7 19 -60 0 -47 3 -60 15 -60
12 0 15 13 15 59 0 54 2 60 23 63 12 2 22 10 22 18 0 11 -14 16 -57 18 -32 2
-59 -2 -63 -8z"/>
<path d="M880 679 c0 -60 3 -80 13 -77 6 3 13 24 15 47 l3 43 36 -46 c20 -26
41 -45 47 -43 16 5 15 149 -1 155 -9 2 -13 -11 -13 -45 l-1 -48 -40 48 c-23
26 -45 47 -50 47 -5 0 -9 -36 -9 -81z"/>
<path d="M1034 747 c-3 -8 -4 -43 -2 -78 l3 -64 45 0 c33 0 45 4 45 15 0 9
-11 16 -27 18 -34 4 -37 19 -5 24 12 2 22 10 22 18 0 8 -10 16 -22 18 -32 5
-29 22 3 22 19 0 25 5 22 18 -4 22 -75 30 -84 9z"/>
<path d="M1156 741 c-23 -26 -14 -52 26 -76 l33 -20 -32 -3 c-40 -4 -44 -29
-6 -38 33 -9 57 6 61 38 2 20 -5 32 -30 49 l-32 23 24 6 c33 8 32 34 -1 38
-15 2 -32 -5 -43 -17z"/>
<path d="M1278 749 c-29 -16 -22 -57 12 -77 38 -22 38 -32 0 -32 -32 0 -37 -9
-18 -28 17 -17 54 -15 72 4 25 24 19 53 -14 72 -34 20 -39 32 -11 32 25 0 38
20 20 31 -18 11 -40 11 -61 -2z"/>
</g>
</svg>
