<?xml version="1.0" standalone="no"?>
<!DOCTYPE svg PUBLIC "-//W3C//DTD SVG 20010904//EN"
 "http://www.w3.org/TR/2001/REC-SVG-20010904/DTD/svg10.dtd">
<svg version="1.0" xmlns="http://www.w3.org/2000/svg"
 width="192.000000pt" height="192.000000pt" viewBox="0 0 192.000000 192.000000"
 preserveAspectRatio="xMidYMid meet">
<metadata>
Created by potrace 1.16, written by Peter Selinger 2001-2019
</metadata>
<g transform="translate(0.000000,192.000000) scale(0.100000,-0.100000)"
fill="#000000" stroke="none">
811 c445 -92 729 -532 635 -987 -62 -301 -295 -546 -601 -630 -91 -26 -329
-26 -420 0 -291 80 -516 305 -596 596 -26 91 -26 329 0 420 120 433 542 692
982 601z"/>
<path d="M670 1306 c-36 -13 -73 -27 -83 -31 -22 -9 -37 -36 -37 -65 0 -30 39
-97 67 -115 l23 -15 -40 -40 c-40 -40 -58 -90 -46 -128 7 -22 93 -64 168 -83
41 -10 52 -9 73 5 23 15 25 23 25 89 l0 72 135 0 135 0 0 -67 c0 -73 19 -108
58 -108 21 0 148 42 181 60 52 27 43 101 -21 167 l-31 32 31 26 c40 34 68 105
53 134 -14 25 -66 53 -140 75 -71 21 -87 20 -111 -4 -16 -16 -20 -33 -20 -87
l0 -68 -135 0 -135 0 0 71 c0 109 -28 124 -150 80z"/>
<path d="M737 753 c-4 -3 -7 -40 -7 -80 0 -55 3 -74 13 -71 6 3 14 18 17 34
l5 28 26 -33 c32 -40 60 -35 34 6 -12 18 -14 28 -6 36 6 6 11 24 11 39 0 21
-6 31 -26 38 -29 12 -58 13 -67 3z m57 -48 c-1 -18 -34 -18 -34 0 0 10 7 15
18 13 9 -2 17 -8 16 -13z"/>
<path d="M872 694 c3 -63 5 -70 31 -84 24 -13 30 -13 55 0 25 14 27 21 30 84
2 52 0 67 -10 64 -8 -3 -14 -25 -16 -55 -6 -95 -58 -95 -64 0 -2 30 -8 52 -16
55 -10 3 -12 -12 -10 -64z"/>
<path d="M1034 746 c-10 -26 1 -139 14 -144 8 -2 12 11 12 45 l1 48 40 -47
c23 -27 45 -48 50 -48 5 0 9 36 9 81 0 60 -3 80 -12 77 -7 -3 -15 -24 -18 -48
l-5 -43 -33 47 c-34 48 -49 56 -58 32z"/>
</g>
</svg>
