<?xml version="1.0" standalone="no"?>
<!DOCTYPE svg PUBLIC "-//W3C//DTD SVG 20010904//EN"
 "http://www.w3.org/TR/2001/REC-SVG-20010904/DTD/svg10.dtd">
<svg version="1.0" xmlns="http://www.w3.org/2000/svg"
 width="192.000000pt" height="192.000000pt" viewBox="0 0 192.000000 192.000000"
 preserveAspectRatio="xMidYMid meet">
<metadata>
Created by potrace 1.16, written by Peter Selinger 2001-2019
</metadata>
<g transform="translate(0.000000,192.000000) scale(0.100000,-0.100000)"
fill="#000000" stroke="none">
811 c445 -92 729 -532 635 -987 -62 -301 -295 -546 -601 -630 -91 -26 -329
-26 -420 0 -291 80 -516 305 -596 596 -26 91 -26 329 0 420 120 433 542 692
982 601z"/>
<path d="M675 1305 c-91 -32 -119 -54 -123 -94 -4 -35 25 -89 63 -119 l24 -19
-30 -29 c-64 -60 -78 -131 -34 -160 37 -24 151 -64 184 -64 44 0 60 26 63 103
l3 69 133 1 132 2 0 -71 c0 -90 17 -110 85 -101 60 9 171 60 185 86 16 31 -3
82 -46 128 l-35 36 30 31 c36 37 64 100 56 126 -8 26 -43 46 -129 75 -90 30
-100 31 -126 5 -16 -16 -20 -33 -20 -88 l0 -67 -135 0 -135 0 0 72 c0 63 -3
74 -22 87 -29 21 -40 20 -123 -9z"/>
<path d="M730 675 c0 -60 3 -75 15 -75 9 0 15 9 15 25 0 14 4 25 10 25 5 0 17
-11 26 -25 17 -27 44 -34 44 -12 0 7 -5 18 -11 24 -9 9 -9 19 0 42 20 47 1 71
-54 71 l-45 0 0 -75z m70 30 c0 -8 -9 -15 -20 -15 -11 0 -20 7 -20 15 0 8 9
15 20 15 11 0 20 -7 20 -15z"/>
<path d="M880 675 c0 -60 3 -75 15 -75 12 0 15 15 15 75 0 60 -3 75 -15 75
-12 0 -15 -15 -15 -75z"/>
<path d="M952 678 l3 -73 36 -3 c52 -4 89 28 89 78 0 49 -27 70 -88 70 l-43 0
3 -72z m90 16 c11 -23 10 -29 -11 -45 -34 -28 -41 -24 -41 26 0 38 3 45 20 45
12 0 25 -11 32 -26z"/>
<path d="M1114 736 c-3 -7 -4 -40 -2 -72 l3 -59 43 -3 c33 -2 42 0 42 12 0 10
-9 16 -25 16 -32 0 -34 27 -2 32 12 2 22 8 22 13 0 6 -10 11 -22 13 -32 5 -30
32 2 32 16 0 25 6 25 15 0 20 -78 21 -86 1z"/>
</g>
</svg>
