<?xml version="1.0" standalone="no"?>
<!DOCTYPE svg PUBLIC "-//W3C//DTD SVG 20010904//EN"
 "http://www.w3.org/TR/2001/REC-SVG-20010904/DTD/svg10.dtd">
<svg version="1.0" xmlns="http://www.w3.org/2000/svg"
 width="192.000000pt" height="192.000000pt" viewBox="0 0 192.000000 192.000000"
 preserveAspectRatio="xMidYMid meet">
<metadata>
Created by potrace 1.16, written by Peter Selinger 2001-2019
</metadata>
<g transform="translate(0.000000,192.000000) scale(0.100000,-0.100000)"
fill="#000000" stroke="none">
811 c445 -92 729 -532 635 -987 -62 -301 -295 -546 -601 -630 -91 -26 -329
-26 -420 0 -291 80 -516 305 -596 596 -26 91 -26 329 0 420 120 433 542 692
982 601z"/>
<path d="M675 1305 c-91 -32 -119 -54 -123 -94 -4 -35 25 -89 63 -119 l24 -19
-30 -29 c-64 -60 -78 -131 -34 -160 37 -24 151 -64 183 -64 48 0 57 13 62 96
l5 76 133 1 132 2 0 -71 c0 -90 17 -110 84 -101 66 9 157 49 179 79 17 23 18
30 7 62 -6 20 -27 53 -46 72 l-34 36 39 44 c39 44 56 90 44 119 -7 20 -81 58
-152 79 -70 20 -77 20 -101 -4 -16 -16 -20 -33 -20 -88 l0 -67 -135 0 -135 0
0 72 c0 63 -3 74 -22 87 -29 21 -40 20 -123 -9z"/>
<path d="M661 728 c0 -13 8 -45 17 -73 22 -65 46 -71 63 -16 7 23 15 41 19 41
4 0 12 -18 19 -41 17 -57 41 -49 63 21 21 69 22 90 3 90 -8 0 -17 -14 -21 -35
-9 -49 -19 -51 -33 -5 -17 58 -44 54 -62 -7 l-13 -48 -14 48 c-14 49 -43 66
-41 25z"/>
<path d="M899 703 c-37 -85 -39 -92 -27 -99 6 -4 16 0 23 9 16 22 64 22 81 0
8 -12 16 -15 23 -8 14 14 -41 139 -62 143 -12 3 -23 -11 -38 -45z m51 -35 c0
-5 -7 -8 -15 -8 -17 0 -18 2 -9 25 5 13 8 14 15 3 5 -7 9 -16 9 -20z"/>
<path d="M1032 678 l3 -73 44 0 c27 0 46 5 49 13 2 8 -7 12 -27 12 -30 0 -30
1 -33 57 -2 46 -7 58 -21 61 -16 3 -18 -4 -15 -70z"/>
<path d="M1150 675 c0 -60 3 -75 15 -75 10 0 15 10 15 30 0 38 10 38 35 0 21
-31 45 -40 45 -16 0 7 -9 25 -21 40 l-20 26 20 26 c12 15 21 31 21 35 0 19
-30 8 -46 -16 -9 -14 -20 -25 -25 -25 -5 0 -9 11 -9 25 0 16 -6 25 -15 25 -12
0 -15 -15 -15 -75z"/>
</g>
</svg>
