<?xml version="1.0" standalone="no"?>
<!DOCTYPE svg PUBLIC "-//W3C//DTD SVG 20010904//EN"
 "http://www.w3.org/TR/2001/REC-SVG-20010904/DTD/svg10.dtd">
<svg version="1.0" xmlns="http://www.w3.org/2000/svg"
 width="192.000000pt" height="192.000000pt" viewBox="0 0 192.000000 192.000000"
 preserveAspectRatio="xMidYMid meet">
<metadata>
Created by potrace 1.16, written by Peter Selinger 2001-2019
</metadata>
<g transform="translate(0.000000,192.000000) scale(0.100000,-0.100000)"
fill="#000000" stroke="none">
811 c445 -92 729 -532 635 -987 -62 -301 -295 -546 -601 -630 -91 -26 -329
-26 -420 0 -291 80 -516 305 -596 596 -26 91 -26 329 0 420 120 433 542 692
982 601z"/>
<path d="M1180 985 l0 -96 28 3 27 3 0 90 0 90 -27 3 -28 3 0 -96z"/>
<path d="M544 1025 c-3 -7 -4 -39 -2 -71 3 -56 4 -59 31 -62 26 -3 27 -2 29
50 l1 53 6 -50 c5 -45 8 -50 31 -50 23 0 26 5 31 50 l5 50 5 -50 c4 -45 6 -50
29 -50 23 0 25 4 28 58 2 32 -2 65 -8 72 -14 17 -180 17 -186 0z"/>
<path d="M770 1025 c-7 -8 -10 -22 -6 -31 3 -8 1 -24 -4 -34 -7 -12 -7 -28 0
-44 9 -24 14 -26 62 -23 l53 2 3 60 c3 47 0 62 -14 72 -24 18 -79 16 -94 -2z"/>
<path d="M900 944 c0 -94 0 -94 25 -94 20 0 25 5 25 26 0 15 4 23 11 19 5 -4
21 -4 35 -1 22 6 24 11 24 71 0 71 -1 72 -77 73 l-43 1 0 -95z m70 21 c0 -14
-4 -25 -10 -25 -5 0 -10 11 -10 25 0 14 5 25 10 25 6 0 10 -11 10 -25z"/>
<path d="M1040 944 c0 -94 0 -94 25 -94 20 0 25 5 25 26 0 15 4 23 11 19 5 -4
21 -4 35 -1 22 6 24 11 24 71 0 71 -1 72 -77 73 l-43 1 0 -95z m70 21 c0 -14
-4 -25 -10 -25 -5 0 -10 11 -10 25 0 14 5 25 10 25 6 0 10 -11 10 -25z"/>
<path d="M1261 1026 c-21 -25 -9 -69 19 -77 l25 -7 -27 -1 c-32 -1 -35 -12
-12 -35 19 -20 78 -21 94 -2 18 22 8 59 -20 73 -24 12 -25 13 -2 13 26 0 31
34 6 44 -28 11 -71 6 -83 -8z"/>
</g>
</svg>
