<?xml version="1.0" standalone="no"?>
<!DOCTYPE svg PUBLIC "-//W3C//DTD SVG 20010904//EN"
 "http://www.w3.org/TR/2001/REC-SVG-20010904/DTD/svg10.dtd">
<svg version="1.0" xmlns="http://www.w3.org/2000/svg"
 width="192.000000pt" height="192.000000pt" viewBox="0 0 192.000000 192.000000"
 preserveAspectRatio="xMidYMid meet">
<metadata>
Created by potrace 1.16, written by Peter Selinger 2001-2019
</metadata>
<g transform="translate(0.000000,192.000000) scale(0.100000,-0.100000)"
fill="#000000" stroke="none">
811 c445 -92 729 -532 635 -987 -62 -301 -295 -546 -601 -630 -91 -26 -329
-26 -420 0 -291 80 -516 305 -596 596 -26 91 -26 329 0 420 120 433 542 692
982 601z"/>
<path d="M811 1306 c-13 -13 -25 -42 -28 -65 -5 -40 -7 -41 -44 -41 -22 0 -39
-3 -39 -8 0 -4 32 -39 70 -77 l70 -69 70 69 c39 38 70 73 70 77 0 5 -30 8 -66
8 l-65 0 3 28 3 27 98 3 99 3 -3 -36 c-3 -32 3 -44 59 -106 35 -38 69 -69 76
-69 6 0 36 24 65 54 l54 54 -33 17 c-18 10 -60 20 -92 22 l-58 6 0 37 c0 26
-8 45 -25 64 -23 25 -27 26 -143 26 -112 0 -120 -1 -141 -24z"/>
<path d="M606 1150 c-38 -33 -66 -86 -66 -122 0 -16 21 -45 65 -88 l65 -65 72
72 71 71 -74 81 c-41 44 -79 81 -86 81 -7 0 -28 -14 -47 -30z"/>
<path d="M940 1095 l-75 -75 75 -75 75 -75 75 75 75 75 -75 75 -75 75 -75 -75z"/>
<path d="M1260 1075 l-55 -55 83 -83 82 -82 0 100 c0 78 -4 108 -18 135 -11
18 -23 35 -28 37 -5 2 -34 -22 -64 -52z"/>
<path d="M1106 921 l-69 -69 21 -29 c11 -15 63 -70 115 -121 l94 -94 38 33
c43 38 65 83 65 131 0 29 -13 46 -93 126 -51 50 -95 92 -97 92 -3 0 -36 -31
-74 -69z"/>
<path d="M540 850 l0 -105 52 53 53 52 -53 52 -52 53 0 -105z"/>
<path d="M812 909 c-12 -5 -27 -20 -34 -34 -24 -53 34 -111 87 -87 80 36 29
151 -53 121z"/>
<path d="M606 761 l-58 -58 34 -38 c51 -58 96 -75 211 -75 53 0 97 3 97 6 0 7
-214 224 -221 224 -3 0 -31 -26 -63 -59z"/>
<path d="M932 747 l-72 -73 43 -42 43 -42 131 0 c86 0 134 4 139 11 6 10 -191
219 -206 219 -3 0 -38 -33 -78 -73z"/>
</g>
</svg>
