<?xml version="1.0" standalone="no"?>
<!DOCTYPE svg PUBLIC "-//W3C//DTD SVG 20010904//EN"
 "http://www.w3.org/TR/2001/REC-SVG-20010904/DTD/svg10.dtd">
<svg version="1.0" xmlns="http://www.w3.org/2000/svg"
 width="192.000000pt" height="192.000000pt" viewBox="0 0 192.000000 192.000000"
 preserveAspectRatio="xMidYMid meet">
<metadata>
Created by potrace 1.16, written by Peter Selinger 2001-2019
</metadata>
<g transform="translate(0.000000,192.000000) scale(0.100000,-0.100000)"
fill="#000000" stroke="none">
811 c445 -92 729 -532 635 -987 -62 -301 -295 -546 -601 -630 -91 -26 -329
-26 -420 0 -291 80 -516 305 -596 596 -26 91 -26 329 0 420 120 433 542 692
982 601z"/>
<path d="M703 1353 c-10 -3 -13 -72 -13 -293 0 -320 -5 -300 70 -300 53 0 60
16 61 142 l1 103 35 -110 c19 -60 40 -116 45 -122 14 -18 93 -16 107 1 7 8 29
65 51 127 l38 114 1 -116 c1 -75 5 -119 13 -127 16 -16 90 -16 106 0 9 9 12
87 12 290 0 264 -1 278 -19 288 -31 16 -99 12 -119 -8 -9 -9 -42 -95 -72 -190
-29 -94 -57 -169 -60 -165 -4 5 -31 82 -59 173 -29 91 -60 173 -69 183 -11 12
-29 17 -66 16 -28 0 -57 -3 -63 -6z"/>
<path d="M692 688 c-17 -17 -15 -84 4 -102 23 -24 495 -24 518 0 19 18 21 85
4 102 -17 17 -509 17 -526 0z"/>
</g>
</svg>
