<?xml version="1.0" standalone="no"?>
<!DOCTYPE svg PUBLIC "-//W3C//DTD SVG 20010904//EN"
 "http://www.w3.org/TR/2001/REC-SVG-20010904/DTD/svg10.dtd">
<svg version="1.0" xmlns="http://www.w3.org/2000/svg"
 width="192.000000pt" height="192.000000pt" viewBox="0 0 192.000000 192.000000"
 preserveAspectRatio="xMidYMid meet">
<metadata>
Created by potrace 1.16, written by Peter Selinger 2001-2019
</metadata>
<g transform="translate(0.000000,192.000000) scale(0.100000,-0.100000)"
fill="#000000" stroke="none">
811 c445 -92 729 -532 635 -987 -62 -301 -295 -546 -601 -630 -91 -26 -329
-26 -420 0 -291 80 -516 305 -596 596 -26 91 -26 329 0 420 120 433 542 692
982 601z"/>
<path d="M572 1262 c-9 -7 -12 -40 -10 -133 l3 -124 70 -3 c56 -2 77 2 102 18
37 22 51 60 35 96 -7 13 -9 37 -6 54 13 60 -44 100 -141 100 -22 0 -46 -4 -53
-8z m118 -82 c0 -5 -13 -10 -30 -10 -16 0 -30 5 -30 10 0 6 14 10 30 10 17 0
30 -4 30 -10z m8 -92 c-7 -20 -68 -23 -68 -4 0 12 10 16 36 16 24 0 34 -4 32
-12z"/>
<path d="M895 1252 c-46 -30 -66 -57 -72 -99 -11 -83 50 -153 132 -153 81 0
143 71 132 153 -12 89 -120 145 -192 99z m96 -72 c30 -17 26 -75 -7 -97 -24
-15 -29 -15 -53 -2 -29 16 -41 70 -20 95 13 16 52 18 80 4z"/>
<path d="M1152 1262 c-9 -7 -12 -40 -10 -133 l3 -124 30 0 c29 0 30 2 35 55
l5 54 52 -58 c78 -88 87 -81 91 76 l3 127 -26 7 c-38 9 -55 -11 -55 -65 l0
-46 -51 58 c-53 60 -56 62 -77 49z"/>
<path d="M546 922 c-8 -13 95 -250 111 -257 26 -10 39 8 90 125 42 98 49 121
38 130 -29 24 -59 7 -84 -47 -14 -29 -28 -53 -31 -53 -3 0 -17 24 -31 53 -21
45 -28 52 -56 55 -17 2 -34 -1 -37 -6z"/>
<path d="M889 901 c-21 -22 -29 -39 -29 -66 0 -51 44 -95 95 -95 51 0 95 44
95 95 0 27 -8 44 -29 66 -22 21 -39 29 -66 29 -27 0 -44 -8 -66 -29z m89 -64
c4 -20 -25 -34 -40 -19 -15 15 -1 44 19 40 10 -2 19 -11 21 -21z"/>
<path d="M1114 919 c-3 -6 14 -41 39 -77 38 -56 46 -76 49 -122 3 -49 6 -55
26 -58 37 -5 52 15 52 70 0 42 6 58 44 111 24 34 41 68 39 75 -3 6 -18 12 -33
12 -22 0 -37 -10 -61 -40 l-32 -40 -29 40 c-23 30 -37 40 -58 40 -16 0 -32 -5
-36 -11z"/>
<path d="M847 724 c-4 -4 -7 -20 -7 -36 l0 -28 116 0 115 0 -3 33 -3 32 -106
3 c-58 1 -108 -1 -112 -4z"/>
</g>
</svg>
