<?xml version="1.0" standalone="no"?>
<!DOCTYPE svg PUBLIC "-//W3C//DTD SVG 20010904//EN"
 "http://www.w3.org/TR/2001/REC-SVG-20010904/DTD/svg10.dtd">
<svg version="1.0" xmlns="http://www.w3.org/2000/svg"
 width="192.000000pt" height="192.000000pt" viewBox="0 0 192.000000 192.000000"
 preserveAspectRatio="xMidYMid meet">
<metadata>
Created by potrace 1.16, written by Peter Selinger 2001-2019
</metadata>
<g transform="translate(0.000000,192.000000) scale(0.100000,-0.100000)"
fill="#000000" stroke="none">
811 c445 -92 729 -532 635 -987 -62 -301 -295 -546 -601 -630 -91 -26 -329
-26 -420 0 -291 80 -516 305 -596 596 -26 91 -26 329 0 420 120 433 542 692
982 601z"/>
<path d="M735 1353 c-66 -24 -108 -55 -137 -101 -21 -33 -23 -51 -26 -180 -5
-171 10 -300 41 -362 51 -100 176 -156 329 -148 129 7 197 50 154 97 -14 16
-29 17 -116 13 l-99 -5 -30 31 c-17 17 -31 34 -31 39 0 4 65 6 144 5 215 -6
307 25 352 115 15 30 19 67 22 183 4 164 -3 201 -50 249 -67 69 -91 75 -308
78 -167 3 -202 1 -245 -14z m190 -158 l33 -35 35 35 c30 30 41 35 84 35 98 0
123 -42 123 -208 0 -133 -9 -155 -54 -134 -23 10 -24 16 -28 127 -3 125 -8
135 -60 135 -40 0 -58 -33 -58 -107 0 -52 -3 -64 -20 -73 -14 -8 -26 -8 -40 0
-16 9 -20 21 -20 68 0 75 -16 106 -56 110 -55 5 -64 -15 -64 -139 0 -107 -1
-110 -25 -121 -19 -8 -28 -8 -40 2 -14 12 -16 34 -13 148 l3 134 33 29 c27 24
41 29 83 29 46 0 55 -4 84 -35z"/>
</g>
</svg>
