<?xml version="1.0" standalone="no"?>
<!DOCTYPE svg PUBLIC "-//W3C//DTD SVG 20010904//EN"
 "http://www.w3.org/TR/2001/REC-SVG-20010904/DTD/svg10.dtd">
<svg version="1.0" xmlns="http://www.w3.org/2000/svg"
 width="192.000000pt" height="192.000000pt" viewBox="0 0 192.000000 192.000000"
 preserveAspectRatio="xMidYMid meet">
<metadata>
Created by potrace 1.16, written by Peter Selinger 2001-2019
</metadata>
<g transform="translate(0.000000,192.000000) scale(0.100000,-0.100000)"
fill="#000000" stroke="none">
811 c445 -92 729 -532 635 -987 -62 -301 -295 -546 -601 -630 -91 -26 -329
-26 -420 0 -291 80 -516 305 -596 596 -26 91 -26 329 0 420 120 433 542 692
982 601z"/>
<path d="M790 1364 c-102 -20 -173 -70 -205 -146 -32 -79 -13 -434 28 -515 24
-46 89 -98 153 -123 116 -45 325 -23 340 36 12 45 -11 57 -98 51 -118 -8 -167
8 -182 59 -6 20 -5 21 51 12 73 -12 245 -2 312 18 67 20 115 63 135 121 24 70
22 304 -3 359 -22 47 -81 100 -131 115 -36 11 -355 21 -400 13z m117 -153 c17
-11 34 -30 38 -42 7 -21 9 -21 39 15 26 31 40 39 77 43 56 6 102 -15 124 -57
23 -45 17 -268 -8 -284 -12 -8 -22 -8 -35 0 -14 9 -18 31 -22 121 -5 117 -15
143 -54 143 -45 0 -59 -22 -65 -100 -5 -54 -10 -76 -23 -84 -35 -21 -52 4 -59
84 -4 55 -10 76 -24 86 -25 19 -54 18 -77 -3 -15 -14 -18 -32 -18 -123 0 -118
-8 -138 -55 -126 l-25 6 0 126 c0 138 10 172 58 198 38 21 91 19 129 -3z"/>
</g>
</svg>
