<?xml version="1.0" standalone="no"?>
<!DOCTYPE svg PUBLIC "-//W3C//DTD SVG 20010904//EN"
 "http://www.w3.org/TR/2001/REC-SVG-20010904/DTD/svg10.dtd">
<svg version="1.0" xmlns="http://www.w3.org/2000/svg"
 width="192.000000pt" height="192.000000pt" viewBox="0 0 192.000000 192.000000"
 preserveAspectRatio="xMidYMid meet">
<metadata>
Created by potrace 1.16, written by Peter Selinger 2001-2019
</metadata>
<g transform="translate(0.000000,192.000000) scale(0.100000,-0.100000)"
fill="#000000" stroke="none">
811 c445 -92 729 -532 635 -987 -62 -301 -295 -546 -601 -630 -91 -26 -329
-26 -420 0 -291 80 -516 305 -596 596 -26 91 -26 329 0 420 120 433 542 692
982 601z"/>
<path d="M829 1356 c-51 -20 -101 -46 -122 -64 -17 -15 -13 -20 59 -93 l76
-77 34 14 c69 29 169 9 216 -43 45 -49 60 -136 34 -197 l-14 -34 80 -78 c90
-90 86 -90 134 12 95 202 10 436 -195 537 -58 28 -75 32 -165 34 -67 2 -113
-2 -137 -11z"/>
<path d="M617 1202 c-35 -38 -69 -132 -74 -206 -19 -246 186 -448 438 -434 65
4 91 11 154 42 41 20 75 40 75 44 0 4 -35 42 -78 85 l-78 78 -37 -16 c-74 -31
-162 -6 -213 60 -33 44 -45 135 -24 186 13 30 12 31 -61 105 -40 41 -76 74
-80 74 -3 0 -13 -8 -22 -18z"/>
<path d="M926 1084 c-9 -8 -16 -31 -16 -50 0 -33 -1 -34 -40 -34 -70 0 -67
-62 4 -68 33 -3 36 -6 36 -36 0 -37 15 -56 46 -56 24 0 34 17 34 60 0 27 3 29
43 32 39 3 42 5 42 33 0 28 -3 30 -42 33 -43 3 -43 3 -43 42 0 29 -5 42 -19
50 -25 13 -27 13 -45 -6z"/>
</g>
</svg>
