<?xml version="1.0" standalone="no"?>
<!DOCTYPE svg PUBLIC "-//W3C//DTD SVG 20010904//EN"
 "http://www.w3.org/TR/2001/REC-SVG-20010904/DTD/svg10.dtd">
<svg version="1.0" xmlns="http://www.w3.org/2000/svg"
 width="192.000000pt" height="192.000000pt" viewBox="0 0 192.000000 192.000000"
 preserveAspectRatio="xMidYMid meet">
<metadata>
Created by potrace 1.16, written by Peter Selinger 2001-2019
</metadata>
<g transform="translate(0.000000,192.000000) scale(0.100000,-0.100000)"
fill="#000000" stroke="none">
811 c445 -92 729 -532 635 -987 -62 -301 -295 -546 -601 -630 -91 -26 -329
-26 -420 0 -291 80 -516 305 -596 596 -26 91 -26 329 0 420 120 433 542 692
982 601z"/>
<path d="M764 1366 c-17 -8 -34 -21 -38 -31 -10 -28 -7 -315 4 -336 7 -13 21
-19 44 -19 50 0 65 24 68 109 l3 73 33 -45 c42 -59 60 -77 77 -77 8 0 37 27
65 61 l50 60 0 -79 c0 -87 14 -112 63 -112 52 0 57 17 57 185 0 84 -3 161 -6
170 -10 25 -62 47 -95 40 -22 -5 -43 -25 -80 -76 -28 -38 -52 -69 -54 -69 -2
0 -23 28 -48 63 -66 92 -89 106 -143 83z"/>
<path d="M737 942 c-14 -16 -17 -44 -17 -179 0 -160 0 -160 26 -187 48 -48 91
-31 154 60 24 36 48 67 52 70 3 2 28 -25 53 -61 72 -100 113 -118 160 -70 24
24 25 28 25 183 0 141 -2 161 -18 175 -23 21 -52 22 -78 3 -15 -11 -20 -30
-24 -92 l-5 -78 -40 58 c-63 92 -75 93 -141 3 l-44 -61 0 77 c0 64 -3 80 -20
97 -25 25 -62 26 -83 2z"/>
</g>
</svg>
