<?xml version="1.0" standalone="no"?>
<!DOCTYPE svg PUBLIC "-//W3C//DTD SVG 20010904//EN"
 "http://www.w3.org/TR/2001/REC-SVG-20010904/DTD/svg10.dtd">
<svg version="1.0" xmlns="http://www.w3.org/2000/svg"
 width="192.000000pt" height="192.000000pt" viewBox="0 0 192.000000 192.000000"
 preserveAspectRatio="xMidYMid meet">
<metadata>
Created by potrace 1.16, written by Peter Selinger 2001-2019
</metadata>
<g transform="translate(0.000000,192.000000) scale(0.100000,-0.100000)"
fill="#000000" stroke="none">
811 c445 -92 729 -532 635 -987 -62 -301 -295 -546 -601 -630 -91 -26 -329
-26 -420 0 -291 80 -516 305 -596 596 -26 91 -26 329 0 420 120 433 542 692
982 601z"/>
<path d="M851 1364 c-221 -59 -355 -284 -296 -499 33 -125 111 -216 232 -273
52 -24 69 -27 168 -27 104 0 114 2 176 32 162 80 259 262 229 431 -30 175
-161 310 -329 342 -71 13 -114 12 -180 -6z m28 -209 l77 -75 74 75 c84 85 108
92 159 49 17 -14 44 -54 62 -89 56 -113 49 -229 -20 -338 -29 -45 -98 -103
-144 -120 -20 -7 -19 -5 5 20 73 76 77 207 9 267 l-22 20 -57 -57 c-32 -31
-64 -57 -72 -57 -8 0 -41 26 -73 58 l-58 57 -24 -29 c-29 -36 -48 -108 -40
-150 9 -42 51 -112 71 -120 9 -4 14 -9 11 -12 -9 -9 -67 26 -115 69 -132 122
-139 341 -14 470 56 57 79 52 171 -38z"/>
</g>
</svg>
