<?xml version="1.0" standalone="no"?>
<!DOCTYPE svg PUBLIC "-//W3C//DTD SVG 20010904//EN"
 "http://www.w3.org/TR/2001/REC-SVG-20010904/DTD/svg10.dtd">
<svg version="1.0" xmlns="http://www.w3.org/2000/svg"
 width="192.000000pt" height="192.000000pt" viewBox="0 0 192.000000 192.000000"
 preserveAspectRatio="xMidYMid meet">
<metadata>
Created by potrace 1.16, written by Peter Selinger 2001-2019
</metadata>
<g transform="translate(0.000000,192.000000) scale(0.100000,-0.100000)"
fill="#000000" stroke="none">
811 c445 -92 729 -532 635 -987 -62 -301 -295 -546 -601 -630 -91 -26 -329
-26 -420 0 -291 80 -516 305 -596 596 -26 91 -26 329 0 420 120 433 542 692
982 601z"/>
<path d="M552 1158 c-7 -7 -12 -40 -12 -78 0 -38 5 -71 12 -78 7 -7 40 -12 80
-12 79 0 88 9 88 90 0 81 -9 90 -88 90 -40 0 -73 -5 -80 -12z"/>
<path d="M872 1158 c-7 -7 -12 -40 -12 -78 0 -38 5 -71 12 -78 7 -7 40 -12 80
-12 65 0 69 1 79 28 14 36 6 131 -12 143 -21 13 -133 11 -147 -3z"/>
<path d="M1193 1163 c-9 -3 -13 -30 -13 -83 0 -89 1 -90 85 -90 84 0 85 1 85
90 0 62 -3 79 -16 84 -18 7 -123 7 -141 -1z"/>
<path d="M712 888 c-7 -7 -12 -40 -12 -78 0 -38 5 -71 12 -78 7 -7 39 -12 74
-12 80 0 94 13 94 86 0 85 -8 94 -88 94 -40 0 -73 -5 -80 -12z"/>
<path d="M1027 894 c-12 -12 -8 -149 5 -162 17 -17 133 -16 147 2 7 9 11 42 9
88 l-3 73 -75 3 c-42 1 -79 0 -83 -4z"/>
</g>
</svg>
