<?xml version="1.0" standalone="no"?>
<!DOCTYPE svg PUBLIC "-//W3C//DTD SVG 20010904//EN"
 "http://www.w3.org/TR/2001/REC-SVG-20010904/DTD/svg10.dtd">
<svg version="1.0" xmlns="http://www.w3.org/2000/svg"
 width="192.000000pt" height="192.000000pt" viewBox="0 0 192.000000 192.000000"
 preserveAspectRatio="xMidYMid meet">
<metadata>
Created by potrace 1.16, written by Peter Selinger 2001-2019
</metadata>
<g transform="translate(0.000000,192.000000) scale(0.100000,-0.100000)"
fill="#000000" stroke="none">
811 c445 -92 729 -532 635 -987 -62 -301 -295 -546 -601 -630 -91 -26 -329
-26 -420 0 -291 80 -516 305 -596 596 -26 91 -26 329 0 420 120 433 542 692
982 601z"/>
<path d="M785 1301 c-78 -44 -154 -94 -170 -111 l-30 -31 -3 -179 c-4 -240
-11 -226 176 -337 200 -118 195 -118 382 -10 197 114 190 102 190 329 0 140
-3 185 -15 208 -21 41 -291 201 -349 207 -37 4 -56 -4 -181 -76z m226 -242
c132 -75 132 -107 0 -183 -137 -79 -161 -65 -161 94 0 101 2 110 22 124 33 23
42 21 139 -35z"/>
</g>
</svg>
