<?xml version="1.0" standalone="no"?>
<!DOCTYPE svg PUBLIC "-//W3C//DTD SVG 20010904//EN"
 "http://www.w3.org/TR/2001/REC-SVG-20010904/DTD/svg10.dtd">
<svg version="1.0" xmlns="http://www.w3.org/2000/svg"
 width="192.000000pt" height="192.000000pt" viewBox="0 0 192.000000 192.000000"
 preserveAspectRatio="xMidYMid meet">
<metadata>
Created by potrace 1.16, written by Peter Selinger 2001-2019
</metadata>
<g transform="translate(0.000000,192.000000) scale(0.100000,-0.100000)"
fill="#000000" stroke="none">
811 c445 -92 729 -532 635 -987 -62 -301 -295 -546 -601 -630 -91 -26 -329
-26 -420 0 -291 80 -516 305 -596 596 -26 91 -26 329 0 420 120 433 542 692
982 601z"/>
<path d="M695 1321 c-49 -22 -91 -69 -105 -119 -7 -24 -10 -118 -8 -259 l3
-221 30 -43 c56 -79 77 -84 340 -84 263 0 284 5 340 84 l30 43 3 221 c4 240
-1 276 -45 328 -53 62 -83 69 -328 69 -192 0 -225 -3 -260 -19z m165 -116 c57
-29 60 -123 5 -159 -51 -34 -126 -9 -144 47 -14 42 -3 76 35 106 31 25 64 27
104 6z m351 -192 l59 -56 0 -101 c0 -82 -4 -107 -20 -133 -40 -66 -50 -68
-295 -68 -245 0 -255 2 -295 68 -25 40 -27 128 -4 151 37 37 99 29 145 -20 12
-13 27 -24 33 -24 6 0 56 45 111 101 161 163 177 167 266 82z"/>
</g>
</svg>
