<?xml version="1.0" standalone="no"?>
<!DOCTYPE svg PUBLIC "-//W3C//DTD SVG 20010904//EN"
 "http://www.w3.org/TR/2001/REC-SVG-20010904/DTD/svg10.dtd">
<svg version="1.0" xmlns="http://www.w3.org/2000/svg"
 width="192.000000pt" height="192.000000pt" viewBox="0 0 192.000000 192.000000"
 preserveAspectRatio="xMidYMid meet">
<metadata>
Created by potrace 1.16, written by Peter Selinger 2001-2019
</metadata>
<g transform="translate(0.000000,192.000000) scale(0.100000,-0.100000)"
fill="#000000" stroke="none">
811 c445 -92 729 -532 635 -987 -62 -301 -295 -546 -601 -630 -91 -26 -329
-26 -420 0 -291 80 -516 305 -596 596 -26 91 -26 329 0 420 120 433 542 692
982 601z"/>
<path d="M830 1362 c-243 -81 -358 -356 -245 -582 77 -153 264 -252 426 -224
51 8 55 12 76 53 13 25 21 46 20 47 -2 2 -21 -3 -42 -11 -22 -8 -48 -14 -58
-15 -17 0 -17 2 3 30 27 39 24 94 -5 98 -29 4 -67 -40 -74 -85 l-7 -38 -44 3
c-71 6 -87 20 -106 96 -5 20 -2 22 24 18 26 -3 31 0 41 29 6 18 19 41 27 51
16 16 15 18 -10 27 -46 18 -96 -14 -96 -62 0 -29 -1 -29 -22 -13 -13 9 -36 21
-51 27 -15 6 -35 25 -43 43 -9 17 -28 43 -41 58 -32 34 -25 53 20 56 44 3 52
-8 36 -52 -11 -29 -10 -38 5 -60 22 -34 46 -33 101 6 60 42 117 44 152 4 43
-51 19 -101 -62 -129 -45 -16 -57 -43 -29 -64 10 -7 30 -13 44 -13 21 0 29 7
39 37 28 76 89 105 132 62 16 -16 20 -29 16 -55 -7 -42 4 -43 36 -4 29 34 37
37 37 13 0 -15 2 -16 10 -3 13 20 13 92 0 125 -9 23 -8 26 5 21 50 -20 48 -22
40 25 -4 24 -16 61 -27 82 l-19 38 26 -7 c31 -8 31 -1 3 43 -21 35 -21 35 0
24 30 -16 62 -60 62 -87 0 -17 -4 -22 -15 -18 -18 7 -18 3 -4 -54 11 -52 3
-113 -16 -106 -9 4 -14 -14 -18 -63 -2 -37 -8 -77 -12 -88 -7 -17 -5 -17 20 5
46 42 65 99 72 216 3 57 10 107 15 110 4 3 8 -8 8 -25 0 -16 5 -54 12 -83 l11
-53 15 35 c10 23 15 68 15 130 0 52 2 88 5 80 3 -8 11 -35 18 -60 l13 -45 -6
55 c-16 149 -102 268 -242 333 -84 40 -205 48 -291 19z m269 -77 c25 -23 69
-54 98 -70 28 -15 66 -43 85 -63 33 -35 27 -35 -24 0 -34 24 -46 23 -23 -2 11
-12 19 -40 22 -72 4 -53 4 -53 -10 -22 -14 30 -61 74 -78 74 -5 0 -9 -7 -9
-15 0 -8 -9 -15 -19 -15 -22 0 -74 39 -52 40 30 0 -22 150 -60 171 -17 9 -22
5 -34 -25 -8 -20 -15 -40 -15 -46 0 -6 -10 -8 -24 -4 -44 11 -206 -76 -206
-111 0 -7 -19 -25 -42 -40 -23 -15 -55 -42 -71 -59 -20 -21 -26 -24 -18 -10 6
12 33 44 59 70 27 27 55 59 61 71 6 13 42 37 81 55 45 22 70 39 70 50 0 26 19
32 40 13 23 -21 37 -14 45 25 14 62 46 58 124 -15z m-44 -65 c8 -16 15 -37 15
-46 0 -15 -4 -14 -25 6 -24 23 -32 50 -18 63 10 10 11 9 28 -23z m-140 -20 c4
-6 -9 -17 -29 -25 -50 -21 -55 -19 -21 10 34 27 41 29 50 15z m75 -16 c0 -8
-15 -22 -34 -31 -19 -9 -32 -21 -30 -28 3 -6 -7 -32 -22 -58 -22 -40 -30 -47
-57 -47 l-31 0 24 17 c44 30 66 68 33 56 -16 -6 -16 -5 -4 10 9 11 10 17 2 17
-10 0 -15 -13 -8 -25 3 -7 -55 -36 -61 -30 -3 2 1 11 7 19 8 10 9 16 1 21 -21
13 -8 22 36 23 37 2 52 8 77 34 18 17 31 35 30 39 -1 4 7 5 17 2 11 -3 20 -12
20 -19z m93 -177 c5 -66 4 -68 -14 -51 -18 16 -19 16 -19 -2 1 -10 7 -30 15
-44 15 -26 19 -77 9 -104 -8 -20 -64 84 -64 119 0 14 9 53 21 87 13 38 18 72
14 92 l-6 31 19 -30 c13 -19 22 -55 25 -98z m-90 98 c-35 -25 -48 -79 -33
-141 10 -39 10 -62 3 -86 -9 -26 -11 -28 -12 -11 -2 43 -32 103 -52 103 -23 0
-23 -8 -4 -34 22 -29 18 -39 -7 -22 -12 9 -39 16 -58 16 -41 0 -60 14 -60 45
0 12 -5 26 -12 33 -9 9 -8 12 4 12 9 0 23 -11 32 -25 21 -32 48 -32 80 0 15
15 31 22 40 19 12 -5 16 1 16 24 0 57 16 82 52 82 32 0 32 0 11 -15z m-263
-113 c0 -4 -10 -13 -22 -21 -23 -14 -23 -14 -4 8 20 22 26 25 26 13z m30 -32
c0 -5 -5 -10 -12 -10 -6 0 -23 -10 -36 -22 l-25 -23 12 22 c16 32 61 56 61 33z
m24 -36 c9 -3 16 -13 16 -21 0 -10 -6 -13 -16 -9 -8 3 -29 -1 -45 -10 -29 -15
-30 -15 -20 5 6 11 19 25 29 30 21 13 17 12 36 5z"/>
<path d="M611 947 c-8 -11 -6 -18 9 -32 19 -17 19 -17 17 14 -2 34 -9 38 -26
18z"/>
<path d="M730 816 c0 -8 5 -18 10 -21 6 -3 10 3 10 14 0 12 -4 21 -10 21 -5 0
-10 -6 -10 -14z"/>
<path d="M880 806 c0 -8 -6 -16 -12 -19 -7 -2 -10 -8 -6 -12 8 -9 48 22 48 37
0 4 -7 8 -15 8 -8 0 -15 -6 -15 -14z"/>
<path d="M785 730 c4 -6 11 -8 16 -5 14 9 11 15 -7 15 -8 0 -12 -5 -9 -10z"/>
</g>
</svg>
