<?xml version="1.0" standalone="no"?>
<!DOCTYPE svg PUBLIC "-//W3C//DTD SVG 20010904//EN"
 "http://www.w3.org/TR/2001/REC-SVG-20010904/DTD/svg10.dtd">
<svg version="1.0" xmlns="http://www.w3.org/2000/svg"
 width="192.000000pt" height="192.000000pt" viewBox="0 0 192.000000 192.000000"
 preserveAspectRatio="xMidYMid meet">
<metadata>
Created by potrace 1.16, written by Peter Selinger 2001-2019
</metadata>
<g transform="translate(0.000000,192.000000) scale(0.100000,-0.100000)"
fill="#000000" stroke="none">
811 c445 -92 729 -532 635 -987 -62 -301 -295 -546 -601 -630 -91 -26 -329
-26 -420 0 -291 80 -516 305 -596 596 -26 91 -26 329 0 420 120 433 542 692
982 601z"/>
<path d="M760 1214 c-19 -8 -43 -22 -53 -32 -16 -14 -19 -14 -27 -2 -6 8 -10
21 -10 28 0 10 -18 12 -72 10 l-73 -3 -3 -48 c-3 -46 -2 -47 27 -53 l31 -6 0
-179 c0 -166 1 -180 20 -199 26 -26 74 -26 99 1 18 19 20 38 23 180 3 148 4
160 25 181 31 31 89 30 114 -1 17 -20 19 -42 19 -180 0 -152 1 -158 23 -179
30 -28 78 -29 103 -1 17 18 19 40 22 168 1 80 5 156 7 168 7 28 59 57 90 49
50 -13 55 -28 55 -164 1 -215 17 -252 112 -252 39 0 54 5 73 25 14 13 25 36
25 50 0 21 -5 25 -29 25 l-29 0 -4 164 c-3 148 -5 167 -24 192 -32 43 -65 63
-116 70 -62 9 -108 -1 -153 -32 -34 -22 -39 -23 -54 -10 -49 44 -155 59 -221
30z"/>
</g>
</svg>
