<?xml version="1.0" standalone="no"?>
<!DOCTYPE svg PUBLIC "-//W3C//DTD SVG 20010904//EN"
 "http://www.w3.org/TR/2001/REC-SVG-20010904/DTD/svg10.dtd">
<svg version="1.0" xmlns="http://www.w3.org/2000/svg"
 width="192.000000pt" height="192.000000pt" viewBox="0 0 192.000000 192.000000"
 preserveAspectRatio="xMidYMid meet">
<metadata>
Created by potrace 1.16, written by Peter Selinger 2001-2019
</metadata>
<g transform="translate(0.000000,192.000000) scale(0.100000,-0.100000)"
fill="#000000" stroke="none">
811 c445 -92 729 -532 635 -987 -62 -301 -295 -546 -601 -630 -91 -26 -329
-26 -420 0 -291 80 -516 305 -596 596 -26 91 -26 329 0 420 120 433 542 692
982 601z"/>
<path d="M595 1355 l-25 -24 0 -294 c0 -266 2 -297 18 -316 20 -25 332 -171
364 -171 25 0 331 140 360 164 17 15 18 39 18 321 0 300 0 304 -22 325 -12 11
-28 20 -37 20 -8 0 -83 -32 -167 -70 l-152 -71 -153 71 c-83 38 -158 70 -166
70 -8 0 -25 -11 -38 -25z m448 -246 c51 24 100 45 110 48 16 5 17 -8 17 -169
l0 -174 -108 -51 -109 -50 -111 51 -112 50 0 178 0 177 110 -51 111 -52 92 43z"/>
</g>
</svg>
