<?xml version="1.0" standalone="no"?>
<!DOCTYPE svg PUBLIC "-//W3C//DTD SVG 20010904//EN"
 "http://www.w3.org/TR/2001/REC-SVG-20010904/DTD/svg10.dtd">
<svg version="1.0" xmlns="http://www.w3.org/2000/svg"
 width="192.000000pt" height="192.000000pt" viewBox="0 0 192.000000 192.000000"
 preserveAspectRatio="xMidYMid meet">
<metadata>
Created by potrace 1.16, written by Peter Selinger 2001-2019
</metadata>
<g transform="translate(0.000000,192.000000) scale(0.100000,-0.100000)"
fill="#000000" stroke="none">
811 c445 -92 729 -532 635 -987 -62 -301 -295 -546 -601 -630 -91 -26 -329
-26 -420 0 -291 80 -516 305 -596 596 -26 91 -26 329 0 420 120 433 542 692
982 601z"/>
<path d="M715 1298 c-44 -38 -88 -123 -115 -220 -26 -95 -50 -264 -50 -356 0
-64 3 -76 25 -97 32 -33 74 -33 105 0 23 24 25 37 31 173 10 210 46 399 77
410 30 10 67 -154 82 -359 11 -152 21 -182 64 -193 31 -8 72 7 84 31 6 10 15
82 21 160 17 219 52 371 83 361 30 -10 78 -265 78 -421 1 -135 21 -177 87
-177 54 0 73 28 73 108 0 237 -75 502 -165 580 -68 60 -150 35 -206 -63 -17
-30 -32 -55 -34 -55 -2 0 -17 25 -34 55 -56 98 -138 123 -206 63z"/>
</g>
</svg>
