<?xml version="1.0" standalone="no"?>
<!DOCTYPE svg PUBLIC "-//W3C//DTD SVG 20010904//EN"
 "http://www.w3.org/TR/2001/REC-SVG-20010904/DTD/svg10.dtd">
<svg version="1.0" xmlns="http://www.w3.org/2000/svg"
 width="192.000000pt" height="192.000000pt" viewBox="0 0 192.000000 192.000000"
 preserveAspectRatio="xMidYMid meet">
<metadata>
Created by potrace 1.16, written by Peter Selinger 2001-2019
</metadata>
<g transform="translate(0.000000,192.000000) scale(0.100000,-0.100000)"
fill="#000000" stroke="none">
811 c445 -92 729 -532 635 -987 -62 -301 -295 -546 -601 -630 -91 -26 -329
-26 -420 0 -291 80 -516 305 -596 596 -26 91 -26 329 0 420 120 433 542 692
982 601z"/>
<path d="M655 1147 c-82 -32 -130 -100 -129 -182 1 -62 22 -103 71 -144 82
-68 240 -61 288 13 22 33 85 225 85 257 0 18 -9 35 -26 48 -24 19 -40 21 -143
20 -64 0 -129 -6 -146 -12z"/>
<path d="M1090 1149 c-54 -22 -80 -60 -115 -174 -40 -129 -42 -144 -16 -176
18 -23 25 -24 143 -24 144 0 166 5 213 47 40 35 59 67 69 117 14 75 -39 166
-119 202 -44 20 -134 24 -175 8z"/>
</g>
</svg>
