<?xml version="1.0" standalone="no"?>
<!DOCTYPE svg PUBLIC "-//W3C//DTD SVG 20010904//EN"
 "http://www.w3.org/TR/2001/REC-SVG-20010904/DTD/svg10.dtd">
<svg version="1.0" xmlns="http://www.w3.org/2000/svg"
 width="192.000000pt" height="192.000000pt" viewBox="0 0 192.000000 192.000000"
 preserveAspectRatio="xMidYMid meet">
<metadata>
Created by potrace 1.16, written by Peter Selinger 2001-2019
</metadata>
<g transform="translate(0.000000,192.000000) scale(0.100000,-0.100000)"
fill="#000000" stroke="none">
811 c445 -92 729 -532 635 -987 -62 -301 -295 -546 -601 -630 -91 -26 -329
-26 -420 0 -291 80 -516 305 -596 596 -26 91 -26 329 0 420 120 433 542 692
982 601z"/>
<path d="M873 1309 c-15 -16 -17 -55 -3 -64 18 -11 11 -25 -13 -25 -38 0 -137
-29 -191 -56 -71 -35 -123 -88 -157 -159 -34 -69 -36 -96 -11 -118 15 -14 27
-15 89 -5 82 12 131 6 164 -21 24 -19 24 -19 -33 -62 -16 -11 -28 -29 -28 -39
0 -42 89 -95 177 -106 31 -4 54 -14 64 -27 13 -16 27 -20 65 -19 158 6 288
104 330 250 22 75 15 189 -16 260 -30 68 -111 143 -188 172 -70 27 -230 39
-249 19z m324 -294 c31 -31 35 -40 30 -72 -8 -46 -41 -81 -84 -89 -42 -8 -77
6 -133 55 l-45 39 20 22 c43 49 97 80 138 80 31 0 46 -7 74 -35z"/>
</g>
</svg>
