<?xml version="1.0" standalone="no"?>
<!DOCTYPE svg PUBLIC "-//W3C//DTD SVG 20010904//EN"
 "http://www.w3.org/TR/2001/REC-SVG-20010904/DTD/svg10.dtd">
<svg version="1.0" xmlns="http://www.w3.org/2000/svg"
 width="192.000000pt" height="192.000000pt" viewBox="0 0 192.000000 192.000000"
 preserveAspectRatio="xMidYMid meet">
<metadata>
Created by potrace 1.16, written by Peter Selinger 2001-2019
</metadata>
<g transform="translate(0.000000,192.000000) scale(0.100000,-0.100000)"
fill="#000000" stroke="none">
811 c445 -92 729 -532 635 -987 -62 -301 -295 -546 -601 -630 -91 -26 -329
-26 -420 0 -291 80 -516 305 -596 596 -26 91 -26 329 0 420 120 433 542 692
982 601z"/>
<path d="M931 1375 c-54 -24 -155 -100 -201 -152 -42 -48 -100 -150 -100 -176
0 -31 144 -48 222 -27 63 18 130 71 165 130 40 65 41 92 7 133 -22 26 -25 37
-20 69 6 35 4 38 -16 38 -13 -1 -38 -7 -57 -15z"/>
<path d="M1078 1160 c-49 -165 -264 -258 -440 -191 l-28 11 1 -68 c1 -106 16
-143 69 -170 40 -21 56 -23 135 -20 72 4 101 10 146 31 109 52 191 147 223
256 31 106 19 142 -64 194 l-25 16 -17 -59z"/>
<path d="M1230 1045 c0 -22 -10 -65 -21 -95 -29 -80 -29 -81 21 -96 68 -21 70
-20 70 35 0 57 -23 136 -51 171 l-19 25 0 -40z"/>
<path d="M1103 788 c-21 -22 -70 -55 -109 -74 -86 -43 -190 -55 -266 -31 -45
14 -47 14 -38 -3 19 -35 103 -100 156 -120 150 -56 329 7 408 143 42 72 40 77
-41 102 l-72 22 -38 -39z"/>
</g>
</svg>
