<?xml version="1.0" standalone="no"?>
<!DOCTYPE svg PUBLIC "-//W3C//DTD SVG 20010904//EN"
 "http://www.w3.org/TR/2001/REC-SVG-20010904/DTD/svg10.dtd">
<svg version="1.0" xmlns="http://www.w3.org/2000/svg"
 width="192.000000pt" height="192.000000pt" viewBox="0 0 192.000000 192.000000"
 preserveAspectRatio="xMidYMid meet">
<metadata>
Created by potrace 1.16, written by Peter Selinger 2001-2019
</metadata>
<g transform="translate(0.000000,192.000000) scale(0.100000,-0.100000)"
fill="#000000" stroke="none">
811 c445 -92 729 -532 635 -987 -62 -301 -295 -546 -601 -630 -91 -26 -329
-26 -420 0 -291 80 -516 305 -596 596 -26 91 -26 329 0 420 120 433 542 692
982 601z"/>
<path d="M895 1368 c-171 -22 -320 -172 -343 -344 -30 -228 116 -428 341 -467
173 -29 361 70 434 229 139 303 -99 624 -432 582z m90 -268 c11 0 45 3 76 6
53 5 59 4 90 -24 34 -30 34 -31 37 -130 3 -91 2 -102 -17 -121 -12 -12 -29
-21 -39 -21 -36 0 -51 31 -54 115 -3 78 -4 80 -28 80 -24 0 -25 -2 -30 -83 -4
-68 -9 -86 -24 -98 -54 -39 -84 -4 -88 101 -3 78 -4 80 -28 80 -24 0 -25 -2
-30 -83 -4 -68 -9 -86 -24 -98 -26 -18 -45 -18 -68 3 -15 13 -18 33 -19 117 0
56 -4 110 -8 121 -16 39 4 45 123 40 61 -2 120 -5 131 -5z"/>
</g>
</svg>
