<?xml version="1.0" standalone="no"?>
<!DOCTYPE svg PUBLIC "-//W3C//DTD SVG 20010904//EN"
 "http://www.w3.org/TR/2001/REC-SVG-20010904/DTD/svg10.dtd">
<svg version="1.0" xmlns="http://www.w3.org/2000/svg"
 width="192.000000pt" height="192.000000pt" viewBox="0 0 192.000000 192.000000"
 preserveAspectRatio="xMidYMid meet">
<metadata>
Created by potrace 1.16, written by Peter Selinger 2001-2019
</metadata>
<g transform="translate(0.000000,192.000000) scale(0.100000,-0.100000)"
fill="#000000" stroke="none">
811 c445 -92 729 -532 635 -987 -62 -301 -295 -546 -601 -630 -91 -26 -329
-26 -420 0 -291 80 -516 305 -596 596 -26 91 -26 329 0 420 120 433 542 692
982 601z"/>
<path d="M833 1356 c-193 -63 -317 -262 -283 -455 31 -178 167 -312 345 -341
218 -35 429 121 464 342 28 173 -66 351 -227 430 -58 29 -77 33 -161 35 -61 2
-111 -2 -138 -11z m261 -110 c112 -55 182 -174 173 -296 -10 -159 -123 -278
-279 -296 -105 -12 -228 43 -286 129 -44 65 -57 106 -57 182 0 76 13 117 57
182 84 125 253 167 392 99z"/>
<path d="M903 1201 c-54 -14 -118 -58 -147 -101 -66 -100 -55 -220 30 -304
136 -136 359 -72 404 115 25 103 -24 211 -117 261 -54 29 -122 41 -170 29z
m88 -158 c128 -69 128 -84 0 -159 -89 -51 -117 -55 -131 -18 -13 34 -13 180 0
205 15 28 32 24 131 -28z"/>
</g>
</svg>
