<?xml version="1.0" standalone="no"?>
<!DOCTYPE svg PUBLIC "-//W3C//DTD SVG 20010904//EN"
 "http://www.w3.org/TR/2001/REC-SVG-20010904/DTD/svg10.dtd">
<svg version="1.0" xmlns="http://www.w3.org/2000/svg"
 width="192.000000pt" height="192.000000pt" viewBox="0 0 192.000000 192.000000"
 preserveAspectRatio="xMidYMid meet">
<metadata>
Created by potrace 1.16, written by Peter Selinger 2001-2019
</metadata>
<g transform="translate(0.000000,192.000000) scale(0.100000,-0.100000)"
fill="#000000" stroke="none">
811 c445 -92 729 -532 635 -987 -62 -301 -295 -546 -601 -630 -91 -26 -329
-26 -420 0 -291 80 -516 305 -596 596 -26 91 -26 329 0 420 120 433 542 692
982 601z"/>
<path d="M589 1331 l-24 -19 -3 -334 c-2 -361 -1 -371 52 -396 32 -16 80 -2
96 29 6 10 10 119 10 245 l0 228 99 -97 c134 -132 136 -132 272 0 l99 96 0
-229 c0 -249 3 -265 55 -278 29 -7 79 15 89 39 3 9 6 168 6 354 0 326 -1 338
-20 359 -14 15 -33 22 -57 22 -33 0 -48 -12 -175 -137 l-138 -137 -138 137
c-118 117 -142 137 -169 137 -17 0 -41 -9 -54 -19z"/>
</g>
</svg>
