<?xml version="1.0" standalone="no"?>
<!DOCTYPE svg PUBLIC "-//W3C//DTD SVG 20010904//EN"
 "http://www.w3.org/TR/2001/REC-SVG-20010904/DTD/svg10.dtd">
<svg version="1.0" xmlns="http://www.w3.org/2000/svg"
 width="192.000000pt" height="192.000000pt" viewBox="0 0 192.000000 192.000000"
 preserveAspectRatio="xMidYMid meet">
<metadata>
Created by potrace 1.16, written by Peter Selinger 2001-2019
</metadata>
<g transform="translate(0.000000,192.000000) scale(0.100000,-0.100000)"
fill="#000000" stroke="none">
811 c445 -92 729 -532 635 -987 -62 -301 -295 -546 -601 -630 -91 -26 -329
-26 -420 0 -291 80 -516 305 -596 596 -26 91 -26 329 0 420 120 433 542 692
982 601z"/>
<path d="M835 1353 c-70 -37 -105 -95 -105 -173 0 -63 27 -119 76 -157 29 -21
50 -28 99 -31 121 -8 205 69 205 188 0 113 -79 190 -192 190 -29 -1 -66 -8
-83 -17z"/>
<path d="M1188 1072 c-7 -17 -23 -33 -40 -40 -43 -16 -33 -72 13 -72 10 0 19
-9 21 -21 7 -49 69 -50 76 -1 2 12 12 22 24 24 49 7 48 69 -1 76 -12 2 -21 11
-21 21 0 46 -56 56 -72 13z"/>
<path d="M823 926 c-87 -28 -176 -107 -214 -189 -26 -58 -24 -84 10 -118 l29
-29 272 0 272 0 29 29 c16 16 29 40 29 53 0 71 -106 200 -198 240 -59 26 -171
33 -229 14z"/>
</g>
</svg>
