<?xml version="1.0" standalone="no"?>
<!DOCTYPE svg PUBLIC "-//W3C//DTD SVG 20010904//EN"
 "http://www.w3.org/TR/2001/REC-SVG-20010904/DTD/svg10.dtd">
<svg version="1.0" xmlns="http://www.w3.org/2000/svg"
 width="192.000000pt" height="192.000000pt" viewBox="0 0 192.000000 192.000000"
 preserveAspectRatio="xMidYMid meet">
<metadata>
Created by potrace 1.16, written by Peter Selinger 2001-2019
</metadata>
<g transform="translate(0.000000,192.000000) scale(0.100000,-0.100000)"
fill="#000000" stroke="none">
811 c445 -92 729 -532 635 -987 -62 -301 -295 -546 -601 -630 -91 -26 -329
-26 -420 0 -291 80 -516 305 -596 596 -26 91 -26 329 0 420 120 433 542 692
982 601z"/>
<path d="M850 1364 c-114 -31 -211 -113 -264 -224 -29 -60 -31 -73 -31 -175 0
-104 2 -114 32 -176 39 -80 120 -160 198 -195 346 -159 699 210 530 552 -88
179 -278 268 -465 218z m67 -98 c-60 -58 -89 -116 -94 -191 -4 -51 -1 -67 22
-109 15 -28 20 -44 11 -37 -8 7 -25 32 -36 57 -31 63 -29 147 6 224 35 79 51
91 122 99 8 0 -6 -19 -31 -43z m176 7 l32 -16 -53 -12 c-119 -27 -202 -110
-210 -212 -5 -52 -6 -55 -14 -28 -18 66 16 148 87 214 41 37 94 69 118 71 4 0
22 -7 40 -17z m-329 -70 c-35 -117 7 -246 94 -293 20 -10 31 -19 24 -20 -44
-1 -131 82 -153 146 -7 22 -13 69 -14 105 0 59 3 69 25 88 36 30 40 26 24 -26z
m448 -19 c4 -3 15 -18 23 -34 l15 -29 -42 15 c-24 9 -72 16 -108 17 -97 2
-162 -34 -217 -119 -11 -16 -11 -14 -3 10 35 99 150 162 274 150 28 -3 54 -7
58 -10z m-505 -179 c19 -37 49 -69 96 -105 11 -8 44 -19 75 -26 l57 -12 -51
-1 c-94 -2 -177 56 -228 158 -23 44 -23 48 -8 85 l16 40 11 -50 c6 -27 21 -67
32 -89z m516 75 c42 -25 57 -40 61 -63 11 -54 6 -57 -28 -19 -90 99 -243 130
-318 64 -10 -8 -18 -12 -18 -7 0 11 28 33 65 51 21 10 53 13 107 11 65 -3 84
-8 131 -37z m-105 -36 c57 -28 101 -75 134 -142 20 -43 20 -45 3 -80 l-18 -37
-8 41 c-10 56 -50 133 -86 165 -47 42 -57 48 -114 63 l-54 15 46 0 c30 1 63
-8 97 -25z m-60 -18 c35 -18 75 -62 98 -106 13 -26 18 -58 19 -123 l0 -88 -32
-20 -33 -21 15 42 c21 61 19 166 -5 215 -22 47 -35 63 -74 93 -33 25 -28 29
12 8z m33 -113 c16 -59 6 -140 -25 -199 -39 -74 -49 -84 -89 -84 l-36 0 42 43
c89 88 115 202 68 297 l-22 45 25 -29 c13 -16 30 -49 37 -73z m-361 -47 c73
-40 145 -45 207 -15 26 13 52 24 56 24 4 0 12 7 17 15 5 8 10 10 10 4 0 -5
-13 -31 -29 -56 -38 -59 -114 -98 -206 -105 -63 -6 -65 -5 -95 27 -17 18 -29
34 -28 36 2 1 28 -4 58 -12 69 -18 94 -18 158 1 51 16 112 57 112 77 0 6 -8 4
-17 -4 -39 -34 -85 -49 -148 -49 -108 0 -205 57 -205 121 l0 31 29 -34 c16
-18 53 -46 81 -61z m300 -72 c-24 -49 -105 -127 -148 -142 -21 -7 -37 -6 -63
6 l-34 15 41 9 c111 24 201 117 213 221 l6 52 3 -58 c2 -44 -2 -70 -18 -103z"/>
</g>
</svg>
