<?xml version="1.0" standalone="no"?>
<!DOCTYPE svg PUBLIC "-//W3C//DTD SVG 20010904//EN"
 "http://www.w3.org/TR/2001/REC-SVG-20010904/DTD/svg10.dtd">
<svg version="1.0" xmlns="http://www.w3.org/2000/svg"
 width="192.000000pt" height="192.000000pt" viewBox="0 0 192.000000 192.000000"
 preserveAspectRatio="xMidYMid meet">
<metadata>
Created by potrace 1.16, written by Peter Selinger 2001-2019
</metadata>
<g transform="translate(0.000000,192.000000) scale(0.100000,-0.100000)"
fill="#000000" stroke="none">
811 c445 -92 729 -532 635 -987 -62 -301 -295 -546 -601 -630 -91 -26 -329
-26 -420 0 -291 80 -516 305 -596 596 -26 91 -26 329 0 420 120 433 542 692
982 601z"/>
<path d="M747 1299 c-93 -14 -176 -94 -196 -190 -17 -79 -14 -404 4 -438 29
-56 125 -58 154 -3 7 13 11 95 11 217 0 195 0 196 25 220 29 30 64 32 96 6 23
-18 23 -21 20 -205 -1 -120 2 -200 9 -222 21 -64 102 -81 148 -31 19 20 21 37
24 230 3 205 3 209 27 228 32 26 67 24 96 -6 25 -24 25 -25 25 -230 0 -191 1
-206 20 -225 11 -11 31 -22 45 -26 30 -7 82 12 95 35 4 9 12 104 15 212 9 222
0 275 -56 343 -70 83 -206 111 -303 62 l-48 -24 -41 21 c-50 26 -108 35 -170
26z"/>
</g>
</svg>
