<?xml version="1.0" standalone="no"?>
<!DOCTYPE svg PUBLIC "-//W3C//DTD SVG 20010904//EN"
 "http://www.w3.org/TR/2001/REC-SVG-20010904/DTD/svg10.dtd">
<svg version="1.0" xmlns="http://www.w3.org/2000/svg"
 width="192.000000pt" height="192.000000pt" viewBox="0 0 192.000000 192.000000"
 preserveAspectRatio="xMidYMid meet">
<metadata>
Created by potrace 1.16, written by Peter Selinger 2001-2019
</metadata>
<g transform="translate(0.000000,192.000000) scale(0.100000,-0.100000)"
fill="#000000" stroke="none">
811 c445 -92 729 -532 635 -987 -62 -301 -295 -546 -601 -630 -91 -26 -329
-26 -420 0 -291 80 -516 305 -596 596 -26 91 -26 329 0 420 120 433 542 692
982 601z"/>
<path d="M774 1369 c-10 -17 13 -36 27 -22 12 12 4 33 -11 33 -5 0 -12 -5 -16
-11z"/>
<path d="M1002 1348 c-18 -18 -14 -46 7 -58 15 -7 23 -6 35 6 21 21 20 41 -3
54 -24 13 -24 13 -39 -2z"/>
<path d="M856 1265 c-42 -15 -92 -58 -102 -87 -3 -10 -16 -21 -29 -24 -57 -14
-104 -111 -77 -159 7 -14 5 -26 -9 -49 -40 -66 -16 -152 51 -186 23 -12 40
-28 40 -38 0 -28 37 -80 69 -97 36 -18 97 -19 130 -1 20 11 28 11 50 0 14 -8
35 -14 46 -14 28 0 82 35 89 58 4 12 19 22 39 26 49 9 92 40 110 79 19 39 22
108 7 136 -6 13 -5 24 5 37 25 33 18 82 -15 116 -16 16 -30 37 -30 46 0 8 -9
35 -21 58 -28 59 -76 87 -153 90 -34 1 -77 7 -96 13 -44 14 -56 13 -104 -4z
m198 -195 c33 1 56 -15 56 -38 0 -9 -12 -47 -26 -84 -28 -71 -27 -98 6 -98 21
0 28 -24 10 -35 -6 -4 -26 -1 -45 5 -49 16 -54 46 -21 122 15 33 25 63 22 65
-10 11 -28 -12 -61 -78 -26 -50 -41 -69 -55 -69 -25 0 -25 7 0 70 24 60 25 70
7 70 -8 0 -26 -32 -42 -72 -34 -88 -41 -98 -71 -98 -44 0 -48 31 -18 126 34
107 44 118 100 109 27 -4 45 -2 49 5 4 7 18 9 34 5 14 -3 39 -6 55 -5z"/>
<path d="M690 1235 c-10 -12 -10 -18 0 -30 16 -19 39 -19 46 0 6 15 -11 45
-26 45 -4 0 -13 -7 -20 -15z"/>
<path d="M1260 1145 c-11 -13 -11 -19 3 -32 21 -21 49 -9 45 19 -4 28 -30 35
-48 13z"/>
<path d="M1340 1045 c0 -8 7 -15 15 -15 8 0 15 7 15 15 0 8 -7 15 -15 15 -8 0
-15 -7 -15 -15z"/>
<path d="M550 1005 c-20 -25 -8 -50 25 -50 21 0 31 5 33 18 4 21 -14 47 -33
47 -7 0 -18 -7 -25 -15z"/>
<path d="M1313 924 c-9 -23 13 -40 32 -24 12 10 13 16 4 26 -15 18 -28 18 -36
-2z"/>
<path d="M670 705 c0 -8 7 -15 15 -15 8 0 15 7 15 15 0 8 -7 15 -15 15 -8 0
-15 -7 -15 -15z"/>
<path d="M1158 659 c-21 -12 -23 -40 -6 -57 34 -34 79 7 52 46 -17 25 -22 26
-46 11z"/>
<path d="M933 584 c-8 -21 13 -42 28 -27 13 13 5 43 -11 43 -6 0 -13 -7 -17
-16z"/>
</g>
</svg>
