<?xml version="1.0" standalone="no"?>
<!DOCTYPE svg PUBLIC "-//W3C//DTD SVG 20010904//EN"
 "http://www.w3.org/TR/2001/REC-SVG-20010904/DTD/svg10.dtd">
<svg version="1.0" xmlns="http://www.w3.org/2000/svg"
 width="192.000000pt" height="192.000000pt" viewBox="0 0 192.000000 192.000000"
 preserveAspectRatio="xMidYMid meet">
<metadata>
Created by potrace 1.16, written by Peter Selinger 2001-2019
</metadata>
<g transform="translate(0.000000,192.000000) scale(0.100000,-0.100000)"
fill="#000000" stroke="none">
811 c445 -92 729 -532 635 -987 -62 -301 -295 -546 -601 -630 -91 -26 -329
-26 -420 0 -291 80 -516 305 -596 596 -26 91 -26 329 0 420 120 433 542 692
982 601z"/>
<path d="M700 1324 c-45 -20 -77 -50 -101 -96 -17 -33 -19 -61 -19 -260 0
-212 1 -226 23 -268 13 -26 40 -57 65 -75 l44 -30 243 0 243 0 44 30 c25 18
52 49 66 75 21 42 22 56 22 268 0 199 -2 227 -19 260 -24 47 -56 77 -103 97
-54 22 -456 21 -508 -1z m186 -95 c9 -15 -11 -33 -30 -26 -9 4 -13 13 -10 22
7 17 30 20 40 4z m59 -59 c5 -16 10 -18 25 -10 10 6 35 10 55 10 48 0 42 -23
-8 -31 -20 -3 -46 -14 -57 -24 -11 -10 -21 -16 -23 -14 -5 7 -27 75 -27 82 0
16 29 5 35 -13z m10 -132 c63 -31 90 -70 111 -164 17 -79 37 -104 82 -104 34
0 60 17 77 50 24 47 20 60 -19 60 -19 0 -37 4 -41 10 -7 12 40 43 57 38 7 -3
20 9 28 26 14 30 15 27 18 -77 3 -122 -10 -164 -61 -201 -27 -20 -42 -21 -252
-21 -210 0 -225 1 -252 21 -49 36 -63 77 -63 191 0 96 2 103 27 134 62 73 184
89 288 37z"/>
<path d="M702 888 c4 -30 43 -33 43 -3 0 13 -8 21 -23 23 -20 3 -23 0 -20 -20z"/>
<path d="M857 884 c-4 -4 -7 -16 -7 -26 0 -14 6 -19 23 -16 14 2 22 10 22 23
0 20 -25 32 -38 19z"/>
</g>
</svg>
