<?xml version="1.0" standalone="no"?>
<!DOCTYPE svg PUBLIC "-//W3C//DTD SVG 20010904//EN"
 "http://www.w3.org/TR/2001/REC-SVG-20010904/DTD/svg10.dtd">
<svg version="1.0" xmlns="http://www.w3.org/2000/svg"
 width="192.000000pt" height="192.000000pt" viewBox="0 0 192.000000 192.000000"
 preserveAspectRatio="xMidYMid meet">
<metadata>
Created by potrace 1.16, written by Peter Selinger 2001-2019
</metadata>
<g transform="translate(0.000000,192.000000) scale(0.100000,-0.100000)"
fill="#000000" stroke="none">
811 c445 -92 729 -532 635 -987 -62 -301 -295 -546 -601 -630 -91 -26 -329
-26 -420 0 -291 80 -516 305 -596 596 -26 91 -26 329 0 420 120 433 542 692
982 601z"/>
<path d="M614 1340 c-12 -4 -31 -21 -43 -36 -20 -26 -21 -35 -21 -340 l0 -314
29 -32 c39 -44 98 -46 138 -5 l28 27 5 187 5 187 84 -112 c70 -94 87 -112 110
-112 37 0 47 10 132 124 l74 100 5 -180 c5 -194 10 -213 61 -240 38 -19 79
-11 113 23 l26 26 0 322 0 322 -26 26 c-43 43 -143 49 -185 11 -10 -9 -58 -70
-105 -135 l-86 -119 -73 99 c-41 55 -81 111 -91 126 -9 14 -30 33 -45 41 -31
15 -102 18 -135 4z"/>
</g>
</svg>
