<?xml version="1.0" standalone="no"?>
<!DOCTYPE svg PUBLIC "-//W3C//DTD SVG 20010904//EN"
 "http://www.w3.org/TR/2001/REC-SVG-20010904/DTD/svg10.dtd">
<svg version="1.0" xmlns="http://www.w3.org/2000/svg"
 width="192.000000pt" height="192.000000pt" viewBox="0 0 192.000000 192.000000"
 preserveAspectRatio="xMidYMid meet">
<metadata>
Created by potrace 1.16, written by Peter Selinger 2001-2019
</metadata>
<g transform="translate(0.000000,192.000000) scale(0.100000,-0.100000)"
fill="#000000" stroke="none">
811 c445 -92 729 -532 635 -987 -62 -301 -295 -546 -601 -630 -91 -26 -329
-26 -420 0 -291 80 -516 305 -596 596 -26 91 -26 329 0 420 120 433 542 692
982 601z"/>
<path d="M870 1366 c-166 -36 -289 -165 -321 -337 -36 -198 97 -406 298 -464
l23 -6 2 198 3 198 35 5 35 5 3 208 c2 162 0 207 -10 206 -7 0 -38 -6 -68 -13z
m40 -246 c24 -24 25 -43 4 -64 -18 -19 -55 -21 -72 -4 -17 17 -15 54 4 72 21
21 40 20 64 -4z"/>
<path d="M1010 1162 c0 -116 -3 -217 -6 -226 -4 -10 -18 -16 -40 -16 l-34 0 0
-185 0 -185 33 0 c49 0 144 27 199 57 67 36 133 110 171 191 29 61 32 75 32
168 0 96 -2 103 -38 176 -56 114 -172 207 -280 225 l-37 6 0 -211z m24 -338
c21 -20 20 -43 -1 -66 -20 -22 -46 -23 -67 -2 -31 30 -9 84 34 84 10 0 26 -7
34 -16z m120 0 c31 -30 9 -84 -34 -84 -24 0 -50 26 -50 50 0 24 26 50 50 50
10 0 26 -7 34 -16z m129 -5 c16 -26 0 -68 -29 -75 -29 -7 -64 18 -64 47 0 44
70 65 93 28z"/>
</g>
</svg>
