<?xml version="1.0" standalone="no"?>
<!DOCTYPE svg PUBLIC "-//W3C//DTD SVG 20010904//EN"
 "http://www.w3.org/TR/2001/REC-SVG-20010904/DTD/svg10.dtd">
<svg version="1.0" xmlns="http://www.w3.org/2000/svg"
 width="192.000000pt" height="192.000000pt" viewBox="0 0 192.000000 192.000000"
 preserveAspectRatio="xMidYMid meet">
<metadata>
Created by potrace 1.16, written by Peter Selinger 2001-2019
</metadata>
<g transform="translate(0.000000,192.000000) scale(0.100000,-0.100000)"
fill="#000000" stroke="none">
810 c245 -63 441 -223 549 -451 55 -116 75 -212 75 -354 0 -141 -20 -238 -75
-352 -86 -182 -215 -312 -396 -398 -116 -55 -212 -75 -354 -75 -142 0 -238 20
-354 75 -228 108 -388 304 -451 549 -28 110 -28 292 0 402 76 298 303 526 600
603 106 28 298 28 406 1z"/>
<path d="M614 1161 c-5 -23 -12 -31 -28 -31 -22 0 -46 -17 -46 -31 0 -25 35
-39 96 -39 36 0 64 -4 64 -10 0 -6 -29 -10 -68 -10 -70 0 -92 -10 -92 -42 0
-26 31 -38 99 -38 34 0 61 -4 61 -10 0 -6 -29 -10 -68 -10 -70 0 -92 -10 -92
-42 0 -26 31 -38 97 -38 l58 -1 -23 -19 c-13 -11 -39 -22 -57 -26 -39 -7 -60
-27 -51 -49 8 -23 67 -18 119 10 l47 24 49 -24 c56 -28 109 -33 117 -10 9 22
-10 40 -55 53 -21 7 -44 19 -51 27 -11 13 -6 15 34 15 55 0 86 14 86 38 0 31
-22 42 -87 42 -84 0 -81 18 3 22 51 2 70 7 78 21 21 34 -4 52 -78 55 -81 4
-88 22 -8 22 32 0 66 6 76 13 26 19 17 51 -16 55 -21 3 -27 9 -30 30 -2 23 -8
27 -33 27 -25 0 -30 -4 -33 -28 -3 -27 -6 -28 -50 -25 -40 3 -47 6 -52 28 -4
18 -13 26 -33 28 -23 3 -28 -1 -33 -27z"/>
<path d="M967 1172 c-25 -27 -25 -382 -1 -406 13 -13 45 -16 193 -16 160 0
180 2 194 18 15 16 17 45 17 200 0 239 16 222 -213 222 -156 0 -176 -2 -190
-18z m268 -89 c5 -13 17 -23 26 -23 9 0 22 -7 30 -16 16 -20 1 -48 -28 -52
-18 -3 -21 -13 -25 -74 -4 -53 -10 -75 -24 -85 -21 -15 -24 -16 -44 -3 -11 7
-14 26 -13 77 2 60 1 64 -8 33 -16 -59 -41 -109 -56 -114 -18 -7 -53 11 -53
27 0 7 9 36 20 65 24 62 25 72 6 72 -27 0 -47 29 -36 51 9 15 22 19 70 19 43
0 60 4 60 13 0 40 58 47 75 10z"/>
</g>
</svg>
