<?xml version="1.0" standalone="no"?>
<!DOCTYPE svg PUBLIC "-//W3C//DTD SVG 20010904//EN"
 "http://www.w3.org/TR/2001/REC-SVG-20010904/DTD/svg10.dtd">
<svg version="1.0" xmlns="http://www.w3.org/2000/svg"
 width="192.000000pt" height="192.000000pt" viewBox="0 0 192.000000 192.000000"
 preserveAspectRatio="xMidYMid meet">
<metadata>
Created by potrace 1.16, written by Peter Selinger 2001-2019
</metadata>
<g transform="translate(0.000000,192.000000) scale(0.100000,-0.100000)"
fill="#000000" stroke="none">
811 c445 -92 729 -532 635 -987 -62 -301 -295 -546 -601 -630 -91 -26 -329
-26 -420 0 -291 80 -516 305 -596 596 -26 91 -26 329 0 420 120 433 542 692
982 601z"/>
<path d="M875 1164 c-69 -39 -85 -45 -120 -40 -147 21 -142 21 -180 -17 l-35
-35 0 -159 c0 -177 5 -193 66 -193 60 0 74 30 74 163 l0 104 74 -5 c70 -4 79
-2 131 27 32 18 58 31 59 29 2 -2 8 -17 15 -34 22 -55 89 -79 141 -49 14 8 28
14 33 15 4 0 7 -46 7 -103 0 -122 11 -147 66 -147 21 0 42 8 54 20 18 18 20
33 20 163 l0 143 40 23 c46 26 64 53 56 86 -18 70 -68 71 -190 5 l-92 -50 -17
36 c-17 35 -64 64 -104 64 -10 0 -54 -21 -98 -46z"/>
</g>
</svg>
