<?xml version="1.0" standalone="no"?>
<!DOCTYPE svg PUBLIC "-//W3C//DTD SVG 20010904//EN"
 "http://www.w3.org/TR/2001/REC-SVG-20010904/DTD/svg10.dtd">
<svg version="1.0" xmlns="http://www.w3.org/2000/svg"
 width="192.000000pt" height="192.000000pt" viewBox="0 0 192.000000 192.000000"
 preserveAspectRatio="xMidYMid meet">
<metadata>
Created by potrace 1.16, written by Peter Selinger 2001-2019
</metadata>
<g transform="translate(0.000000,192.000000) scale(0.100000,-0.100000)"
fill="#000000" stroke="none">
811 c445 -92 729 -532 635 -987 -62 -301 -295 -546 -601 -630 -91 -26 -329
-26 -420 0 -291 80 -516 305 -596 596 -26 91 -26 329 0 420 120 433 542 692
982 601z"/>
<path d="M643 1363 c-87 -95 -126 -289 -88 -438 89 -342 486 -489 778 -288 32
22 38 31 35 56 -5 47 -31 57 -76 29 -114 -70 -207 -92 -313 -74 -295 51 -437
374 -278 632 33 54 36 72 13 94 -22 23 -41 20 -71 -11z"/>
<path d="M737 1272 c-43 -47 -62 -114 -62 -217 0 -89 3 -107 29 -162 33 -73
113 -154 181 -184 104 -46 227 -44 325 6 55 28 73 47 68 74 -2 11 -110 128
-241 260 -247 249 -265 262 -300 223z m107 -121 c9 -14 -4 -41 -19 -41 -21 0
-28 19 -15 35 14 17 26 19 34 6z m96 -110 c0 -11 -5 -23 -11 -27 -15 -9 -33
12 -26 30 9 23 37 20 37 -3z m-120 -26 c0 -9 -7 -18 -16 -22 -18 -7 -39 11
-30 26 11 17 46 13 46 -4z m220 -75 c0 -13 -7 -20 -20 -20 -19 0 -27 20 -13
33 13 14 33 6 33 -13z m-120 -29 c0 -23 -25 -34 -39 -17 -7 9 -7 16 1 24 18
18 38 14 38 -7z m218 -73 c-2 -12 -9 -23 -15 -26 -19 -6 -29 28 -12 39 23 14
31 10 27 -13z m-120 -30 c-4 -29 -38 -38 -38 -10 0 19 11 29 33 31 5 1 7 -9 5
-21z"/>
</g>
</svg>
