<?xml version="1.0" standalone="no"?>
<!DOCTYPE svg PUBLIC "-//W3C//DTD SVG 20010904//EN"
 "http://www.w3.org/TR/2001/REC-SVG-20010904/DTD/svg10.dtd">
<svg version="1.0" xmlns="http://www.w3.org/2000/svg"
 width="192.000000pt" height="192.000000pt" viewBox="0 0 192.000000 192.000000"
 preserveAspectRatio="xMidYMid meet">
<metadata>
Created by potrace 1.16, written by Peter Selinger 2001-2019
</metadata>
<g transform="translate(0.000000,192.000000) scale(0.100000,-0.100000)"
fill="#000000" stroke="none">
811 c445 -92 729 -532 635 -987 -62 -301 -295 -546 -601 -630 -91 -26 -329
-26 -420 0 -291 80 -516 305 -596 596 -26 91 -26 329 0 420 120 433 542 692
982 601z"/>
<path d="M981 1354 c-20 -14 -22 -22 -17 -56 l6 -39 -28 15 c-34 18 -62 5 -62
-28 0 -12 16 -45 35 -72 19 -27 35 -52 35 -56 0 -5 -20 -8 -45 -8 -52 0 -159
-45 -189 -78 -16 -19 -17 -25 -6 -52 19 -47 54 -51 148 -16 54 20 102 13 138
-21 23 -22 26 -30 22 -74 -7 -64 -31 -90 -85 -91 -53 0 -76 13 -114 69 -61 88
-90 102 -129 63 -29 -29 -25 -68 19 -156 50 -100 115 -169 172 -184 56 -15
161 -5 217 22 69 33 117 128 142 281 19 118 -27 265 -124 401 -65 91 -94 108
-135 80z"/>
</g>
</svg>
