<?xml version="1.0" standalone="no"?>
<!DOCTYPE svg PUBLIC "-//W3C//DTD SVG 20010904//EN"
 "http://www.w3.org/TR/2001/REC-SVG-20010904/DTD/svg10.dtd">
<svg version="1.0" xmlns="http://www.w3.org/2000/svg"
 width="192.000000pt" height="192.000000pt" viewBox="0 0 192.000000 192.000000"
 preserveAspectRatio="xMidYMid meet">
<metadata>
Created by potrace 1.16, written by Peter Selinger 2001-2019
</metadata>
<g transform="translate(0.000000,192.000000) scale(0.100000,-0.100000)"
fill="#000000" stroke="none">
811 c445 -92 729 -532 635 -987 -62 -301 -295 -546 -601 -630 -91 -26 -329
-26 -420 0 -291 80 -516 305 -596 596 -26 91 -26 329 0 420 120 433 542 692
982 601z"/>
<path d="M442 968 l3 -163 25 0 c25 0 25 2 30 95 l5 95 19 -83 c34 -146 63
-151 92 -15 l19 88 5 -90 c5 -88 6 -90 30 -90 l25 0 3 163 3 163 -38 -3 -38
-3 -24 -98 c-13 -54 -27 -94 -31 -90 -4 4 -12 33 -19 64 -27 128 -28 129 -72
129 l-39 0 2 -162z"/>
<path d="M752 968 l3 -163 88 -3 87 -3 0 36 0 35 -60 0 c-60 0 -60 0 -60 29 0
28 2 30 48 33 45 3 47 4 47 33 0 29 -2 30 -47 33 -47 3 -48 4 -48 38 l0 34 60
0 60 0 0 30 0 30 -90 0 -90 0 2 -162z"/>
<path d="M982 968 l3 -163 25 0 c24 0 25 2 30 90 l5 90 19 -88 c30 -136 58
-131 92 15 l19 83 5 -95 c5 -93 5 -95 30 -95 l25 0 3 163 2 162 -39 0 -39 0
-22 -92 c-13 -51 -25 -97 -28 -103 -3 -5 -17 36 -31 90 l-26 100 -38 3 -38 3
3 -163z"/>
<path d="M1290 965 l0 -166 88 3 87 3 0 30 c0 30 -1 30 -57 33 -57 3 -58 4
-58 32 0 29 2 30 45 30 45 0 45 0 45 35 0 35 0 35 -45 35 -45 0 -45 0 -45 35
l0 35 60 0 60 0 0 30 0 30 -90 0 -90 0 0 -165z"/>
</g>
</svg>
