<?xml version="1.0" standalone="no"?>
<!DOCTYPE svg PUBLIC "-//W3C//DTD SVG 20010904//EN"
 "http://www.w3.org/TR/2001/REC-SVG-20010904/DTD/svg10.dtd">
<svg version="1.0" xmlns="http://www.w3.org/2000/svg"
 width="192.000000pt" height="192.000000pt" viewBox="0 0 192.000000 192.000000"
 preserveAspectRatio="xMidYMid meet">
<metadata>
Created by potrace 1.16, written by Peter Selinger 2001-2019
</metadata>
<g transform="translate(0.000000,192.000000) scale(0.100000,-0.100000)"
fill="#000000" stroke="none">
811 c445 -92 729 -532 635 -987 -62 -301 -295 -546 -601 -630 -91 -26 -329
-26 -420 0 -291 80 -516 305 -596 596 -26 91 -26 329 0 420 120 433 542 692
982 601z"/>
<path d="M717 1330 c-46 -14 -98 -60 -118 -104 -16 -36 -19 -68 -19 -259 0
-232 5 -264 53 -316 50 -54 83 -61 321 -61 204 0 223 1 264 21 29 15 54 37 73
67 l29 46 0 233 c0 174 -3 242 -14 266 -17 43 -76 93 -123 106 -45 13 -425 13
-466 1z m148 -175 c30 -30 31 -54 4 -89 -25 -32 -64 -34 -96 -4 -29 27 -29 65
-1 95 28 30 63 29 93 -2z m266 7 c46 -38 16 -122 -45 -122 -40 0 -66 27 -66
70 0 63 61 91 111 52z m-351 -224 c6 -7 20 -28 33 -47 33 -50 69 -73 125 -79
67 -6 122 25 162 90 30 48 54 60 78 36 18 -18 14 -48 -11 -93 -46 -81 -157
-135 -250 -121 -88 13 -184 93 -202 167 -10 43 38 78 65 47z"/>
</g>
</svg>
