<?xml version="1.0" standalone="no"?>
<!DOCTYPE svg PUBLIC "-//W3C//DTD SVG 20010904//EN"
 "http://www.w3.org/TR/2001/REC-SVG-20010904/DTD/svg10.dtd">
<svg version="1.0" xmlns="http://www.w3.org/2000/svg"
 width="192.000000pt" height="192.000000pt" viewBox="0 0 192.000000 192.000000"
 preserveAspectRatio="xMidYMid meet">
<metadata>
Created by potrace 1.16, written by Peter Selinger 2001-2019
</metadata>
<g transform="translate(0.000000,192.000000) scale(0.100000,-0.100000)"
fill="#000000" stroke="none">
811 c445 -92 729 -532 635 -987 -62 -301 -295 -546 -601 -630 -91 -26 -329
-26 -420 0 -291 80 -516 305 -596 596 -26 91 -26 329 0 420 120 433 542 692
982 601z"/>
<path d="M806 1224 c-137 -80 -255 -153 -262 -162 -34 -44 5 -122 61 -122 26
0 503 268 537 302 44 44 5 129 -58 127 -19 0 -117 -51 -278 -145z"/>
<path d="M925 1039 c-132 -77 -250 -150 -262 -161 -14 -13 -23 -33 -23 -50 0
-37 40 -78 76 -78 30 0 507 269 537 302 41 48 4 129 -59 127 -19 0 -114 -50
-269 -140z"/>
<path d="M1104 887 c-356 -205 -354 -203 -354 -255 0 -31 43 -72 76 -72 33 0
530 284 544 310 6 10 10 32 10 49 0 34 -39 71 -75 71 -12 0 -102 -46 -201
-103z"/>
</g>
</svg>
