<?xml version="1.0" standalone="no"?>
<!DOCTYPE svg PUBLIC "-//W3C//DTD SVG 20010904//EN"
 "http://www.w3.org/TR/2001/REC-SVG-20010904/DTD/svg10.dtd">
<svg version="1.0" xmlns="http://www.w3.org/2000/svg"
 width="192.000000pt" height="192.000000pt" viewBox="0 0 192.000000 192.000000"
 preserveAspectRatio="xMidYMid meet">
<metadata>
Created by potrace 1.16, written by Peter Selinger 2001-2019
</metadata>
<g transform="translate(0.000000,192.000000) scale(0.100000,-0.100000)"
fill="#000000" stroke="none">
811 c445 -92 729 -532 635 -987 -62 -301 -295 -546 -601 -630 -91 -26 -329
-26 -420 0 -291 80 -516 305 -596 596 -26 91 -26 329 0 420 120 433 542 692
982 601z"/>
<path d="M896 1347 c-47 -47 -71 -102 -64 -147 l4 -29 -30 22 c-54 38 -191 24
-215 -22 -11 -21 11 -105 36 -139 11 -15 37 -37 58 -48 34 -20 36 -22 16 -29
-40 -12 -80 -55 -96 -105 -33 -99 -4 -134 110 -135 48 0 67 5 94 24 l34 25 -7
-28 c-11 -45 11 -101 60 -150 25 -26 52 -46 60 -46 24 0 100 84 114 124 7 21
10 50 8 65 l-4 28 45 -24 c50 -27 99 -27 166 1 31 13 35 19 35 54 0 60 -44
137 -90 159 -40 18 -51 33 -25 33 44 0 115 108 115 175 0 69 -150 94 -229 39
-22 -16 -23 -16 -17 4 13 38 -12 99 -60 146 -25 26 -52 46 -60 46 -8 0 -34
-20 -58 -43z m133 -283 c103 -86 13 -254 -115 -212 -71 24 -102 102 -69 172
32 68 127 88 184 40z"/>
</g>
</svg>
