<?xml version="1.0" standalone="no"?>
<!DOCTYPE svg PUBLIC "-//W3C//DTD SVG 20010904//EN"
 "http://www.w3.org/TR/2001/REC-SVG-20010904/DTD/svg10.dtd">
<svg version="1.0" xmlns="http://www.w3.org/2000/svg"
 width="192.000000pt" height="192.000000pt" viewBox="0 0 192.000000 192.000000"
 preserveAspectRatio="xMidYMid meet">
<metadata>
Created by potrace 1.16, written by Peter Selinger 2001-2019
</metadata>
<g transform="translate(0.000000,192.000000) scale(0.100000,-0.100000)"
fill="#000000" stroke="none">
811 c445 -92 729 -532 635 -987 -62 -301 -295 -546 -601 -630 -91 -26 -329
-26 -420 0 -291 80 -516 305 -596 596 -26 91 -26 329 0 420 120 433 542 692
982 601z"/>
<path d="M707 1356 c-56 -15 -114 -59 -142 -107 -28 -49 -26 -126 5 -173 29
-42 40 -45 40 -13 0 50 70 76 103 39 25 -27 21 -58 -19 -168 -31 -84 -35 -108
-31 -159 6 -78 36 -138 89 -172 l41 -28 224 -3 c190 -3 223 -1 223 12 0 20
-54 63 -89 71 -24 5 -31 14 -41 51 -15 53 -58 100 -103 113 l-32 9 28 1 c58 2
129 -58 142 -121 l7 -32 18 34 c10 19 21 49 24 67 7 28 3 36 -35 72 -49 49
-44 51 25 12 89 -50 220 -35 171 19 -13 14 -31 20 -64 20 -57 0 -66 6 -86 53
-12 29 -23 39 -46 44 -24 5 -28 8 -16 15 9 5 34 3 61 -4 41 -11 50 -10 91 10
76 37 78 93 7 169 -21 23 -28 38 -25 57 4 19 -3 32 -28 56 -31 27 -59 39 -59
24 0 -3 11 -19 25 -36 28 -33 33 -61 11 -52 -8 3 -16 17 -18 31 -2 14 -16 35
-31 47 -36 27 -62 13 -63 -35 0 -24 -10 -43 -31 -64 -16 -17 -38 -52 -48 -80
-28 -75 -48 -99 -123 -145 -84 -53 -119 -85 -143 -132 -34 -66 -18 -151 38
-210 33 -35 22 -50 -13 -17 -56 52 -83 139 -64 208 15 58 58 103 142 146 40
21 83 47 96 58 50 46 48 152 -4 228 -50 73 -164 111 -257 85z m531 -209 c4
-20 -25 -34 -40 -19 -15 15 -1 44 19 40 10 -2 19 -11 21 -21z"/>
</g>
</svg>
