<?xml version="1.0" standalone="no"?>
<!DOCTYPE svg PUBLIC "-//W3C//DTD SVG 20010904//EN"
 "http://www.w3.org/TR/2001/REC-SVG-20010904/DTD/svg10.dtd">
<svg version="1.0" xmlns="http://www.w3.org/2000/svg"
 width="192.000000pt" height="192.000000pt" viewBox="0 0 192.000000 192.000000"
 preserveAspectRatio="xMidYMid meet">
<metadata>
Created by potrace 1.16, written by Peter Selinger 2001-2019
</metadata>
<g transform="translate(0.000000,192.000000) scale(0.100000,-0.100000)"
fill="#000000" stroke="none">
811 c445 -92 729 -532 635 -987 -62 -301 -295 -546 -601 -630 -91 -26 -329
-26 -420 0 -291 80 -516 305 -596 596 -26 91 -26 329 0 420 120 433 542 692
982 601z"/>
<path d="M547 1323 c-4 -3 -7 -79 -7 -168 0 -175 4 -190 52 -183 22 3 23 8 26
91 l3 87 25 -27 24 -28 30 34 29 34 3 -74 3 -74 35 0 35 0 0 155 0 155 -30 3
c-27 3 -33 -3 -63 -53 -18 -30 -38 -53 -43 -49 -5 3 -21 28 -34 55 -21 41 -30
49 -54 49 -15 0 -31 -3 -34 -7z"/>
<path d="M1107 1323 c-4 -3 -7 -75 -7 -160 l0 -153 35 0 35 0 0 78 1 77 28
-32 c32 -38 46 -41 61 -13 21 40 30 20 24 -53 -7 -80 4 -102 48 -95 l23 3 0
175 0 175 -30 0 c-25 0 -34 -7 -55 -47 -14 -26 -29 -50 -32 -54 -4 -3 -23 19
-43 50 -26 41 -42 56 -59 56 -12 0 -26 -3 -29 -7z"/>
<path d="M844 1307 c-2 -7 -3 -76 -2 -152 l3 -140 113 -3 113 -3 -3 33 -3 33
-70 5 c-58 4 -70 8 -73 24 -5 24 16 38 46 31 40 -10 62 3 62 36 0 24 -4 29
-24 29 -13 0 -38 3 -55 6 -25 5 -31 11 -29 28 3 19 11 21 71 24 67 3 67 3 67
32 l0 30 -105 0 c-77 0 -107 -3 -111 -13z"/>
<path d="M983 965 c-41 -18 -57 -48 -50 -99 5 -32 16 -50 56 -88 28 -26 51
-54 51 -62 0 -23 -29 -34 -72 -29 -38 6 -38 6 -38 -30 0 -26 6 -39 19 -47 48
-25 135 2 161 51 7 12 10 41 7 67 -4 39 -12 53 -56 93 -60 56 -60 76 2 81 36
3 43 7 45 27 7 47 -57 66 -125 36z"/>
<path d="M838 949 c-22 -12 -23 -52 -3 -69 8 -7 25 -10 39 -6 33 8 43 42 20
67 -19 21 -31 23 -56 8z"/>
<path d="M554 936 c-3 -8 -6 -86 -7 -173 l-2 -158 40 0 c39 0 40 1 43 38 2 20
9 37 15 37 7 0 34 -18 61 -40 58 -48 80 -48 84 -1 3 28 -2 38 -25 57 l-28 22
24 32 c50 68 33 158 -34 186 -46 19 -164 19 -171 0z m144 -78 c29 -29 -1 -98
-42 -98 -25 0 -36 17 -36 55 0 13 3 30 6 39 7 19 55 21 72 4z"/>
<path d="M1146 934 c-9 -24 -7 -307 2 -322 6 -9 36 -12 113 -10 100 3 104 4
107 26 5 35 -14 51 -53 45 -57 -9 -85 3 -85 37 0 28 1 29 58 32 l57 3 0 35 c0
24 -5 35 -15 36 -8 1 -34 2 -58 2 -41 2 -43 3 -40 30 3 25 6 27 63 32 33 3 59
8 58 13 -2 4 -3 18 -3 32 0 25 0 25 -99 25 -81 0 -100 -3 -105 -16z"/>
<path d="M830 736 c0 -64 0 -119 0 -123 0 -5 15 -8 33 -8 l32 0 0 120 0 120
-32 3 -33 3 0 -115z"/>
</g>
</svg>
