<?xml version="1.0" standalone="no"?>
<!DOCTYPE svg PUBLIC "-//W3C//DTD SVG 20010904//EN"
 "http://www.w3.org/TR/2001/REC-SVG-20010904/DTD/svg10.dtd">
<svg version="1.0" xmlns="http://www.w3.org/2000/svg"
 width="192.000000pt" height="192.000000pt" viewBox="0 0 192.000000 192.000000"
 preserveAspectRatio="xMidYMid meet">
<metadata>
Created by potrace 1.16, written by Peter Selinger 2001-2019
</metadata>
<g transform="translate(0.000000,192.000000) scale(0.100000,-0.100000)"
fill="#000000" stroke="none">
811 c445 -92 729 -532 635 -987 -62 -301 -295 -546 -601 -630 -91 -26 -329
-26 -420 0 -291 80 -516 305 -596 596 -26 91 -26 329 0 420 120 433 542 692
982 601z"/>
<path d="M955 1208 c-44 -22 -88 -47 -97 -56 -25 -21 -24 -86 2 -112 33 -33
73 -30 150 11 l54 29 44 -43 c50 -50 74 -107 61 -149 -9 -33 5 -44 46 -34 l25
6 0 164 0 163 -81 31 c-44 18 -90 32 -102 32 -12 -1 -58 -19 -102 -42z"/>
<path d="M730 1196 l-55 -22 -3 -172 -2 -171 29 -15 c16 -9 53 -37 82 -64 30
-27 64 -54 76 -61 26 -13 67 -6 84 16 10 12 -1 28 -64 91 -75 76 -95 112 -60
112 10 0 54 -36 99 -81 l80 -80 25 20 24 20 -52 53 c-54 55 -65 81 -37 92 10
4 34 -12 68 -44 29 -28 57 -50 63 -50 21 0 43 38 43 74 0 29 -8 45 -38 77
l-37 40 -48 -27 c-80 -44 -151 -33 -193 31 -23 35 -20 99 6 135 12 17 26 30
31 30 5 0 9 5 9 10 0 17 -73 10 -130 -14z"/>
<path d="M532 1198 c-8 -8 -12 -66 -12 -194 0 -203 1 -208 67 -202 l38 3 3
194 c2 149 -1 196 -10 203 -19 12 -72 10 -86 -4z"/>
<path d="M1291 1196 c-8 -9 -11 -72 -9 -202 l3 -189 50 0 50 0 3 189 c2 130
-1 193 -9 202 -15 18 -73 18 -88 0z"/>
</g>
</svg>
