<?xml version="1.0" standalone="no"?>
<!DOCTYPE svg PUBLIC "-//W3C//DTD SVG 20010904//EN"
 "http://www.w3.org/TR/2001/REC-SVG-20010904/DTD/svg10.dtd">
<svg version="1.0" xmlns="http://www.w3.org/2000/svg"
 width="192.000000pt" height="192.000000pt" viewBox="0 0 192.000000 192.000000"
 preserveAspectRatio="xMidYMid meet">
<metadata>
Created by potrace 1.16, written by Peter Selinger 2001-2019
</metadata>
<g transform="translate(0.000000,192.000000) scale(0.100000,-0.100000)"
fill="#000000" stroke="none">
811 c445 -92 729 -532 635 -987 -62 -301 -295 -546 -601 -630 -91 -26 -329
-26 -420 0 -291 80 -516 305 -596 596 -26 91 -26 329 0 420 120 433 542 692
982 601z"/>
<path d="M954 1211 c-117 -56 -149 -107 -104 -163 30 -39 62 -40 139 -3 l69
33 53 -54 c52 -53 54 -57 56 -112 1 -62 13 -73 53 -52 20 10 20 18 18 168 l-3
156 -75 32 c-41 18 -86 33 -101 33 -14 1 -61 -16 -105 -38z"/>
<path d="M723 1194 l-53 -24 0 -169 c0 -166 1 -171 23 -182 12 -7 53 -39 90
-73 55 -49 75 -60 103 -60 19 0 42 8 51 17 16 16 13 22 -66 101 -79 80 -92
106 -53 106 9 0 53 -36 98 -81 l80 -80 25 20 24 20 -52 53 c-29 30 -53 61 -53
71 0 31 34 18 86 -34 l52 -52 26 26 c39 39 35 84 -11 137 l-38 42 -65 -31
c-71 -34 -103 -34 -152 1 -31 22 -54 84 -44 122 3 14 20 41 37 61 l31 35 -43
-1 c-24 0 -68 -11 -96 -25z"/>
<path d="M531 1196 c-8 -9 -11 -72 -9 -202 l3 -189 50 0 50 0 3 189 c2 130 -1
193 -9 202 -15 18 -73 18 -88 0z"/>
<path d="M1292 1202 c-9 -7 -12 -54 -10 -203 l3 -194 38 -3 c66 -6 67 -1 67
202 0 128 -4 186 -12 194 -14 14 -67 16 -86 4z"/>
</g>
</svg>
