<?xml version="1.0" standalone="no"?>
<!DOCTYPE svg PUBLIC "-//W3C//DTD SVG 20010904//EN"
 "http://www.w3.org/TR/2001/REC-SVG-20010904/DTD/svg10.dtd">
<svg version="1.0" xmlns="http://www.w3.org/2000/svg"
 width="192.000000pt" height="192.000000pt" viewBox="0 0 192.000000 192.000000"
 preserveAspectRatio="xMidYMid meet">
<metadata>
Created by potrace 1.16, written by Peter Selinger 2001-2019
</metadata>
<g transform="translate(0.000000,192.000000) scale(0.100000,-0.100000)"
fill="#000000" stroke="none">
811 c445 -92 729 -532 635 -987 -62 -301 -295 -546 -601 -630 -91 -26 -329
-26 -420 0 -291 80 -516 305 -596 596 -26 91 -26 329 0 420 120 433 542 692
982 601z"/>
<path d="M695 1321 c-48 -22 -79 -54 -100 -103 -12 -30 -15 -81 -15 -255 0
-240 6 -269 66 -325 48 -44 72 -48 309 -48 237 0 261 4 309 48 60 56 66 85 66
325 0 232 -5 264 -53 316 -50 54 -83 61 -322 61 -193 0 -225 -3 -260 -19z
m241 -135 c17 -12 22 -12 39 0 12 9 46 14 99 14 120 0 116 9 116 -236 0 -171
-2 -205 -16 -218 -8 -9 -23 -16 -33 -16 -37 0 -41 19 -41 192 l0 168 -25 12
c-19 8 -31 8 -50 0 l-25 -12 0 -168 c0 -177 -4 -192 -46 -192 -39 0 -43 19
-46 195 -3 145 -5 169 -20 179 -11 7 -26 7 -45 0 l-28 -9 -3 -170 c-3 -172 -8
-195 -43 -195 -45 0 -49 19 -49 232 0 246 -4 238 114 238 54 0 88 -5 102 -14z"/>
</g>
</svg>
