<?xml version="1.0" standalone="no"?>
<!DOCTYPE svg PUBLIC "-//W3C//DTD SVG 20010904//EN"
 "http://www.w3.org/TR/2001/REC-SVG-20010904/DTD/svg10.dtd">
<svg version="1.0" xmlns="http://www.w3.org/2000/svg"
 width="192.000000pt" height="192.000000pt" viewBox="0 0 192.000000 192.000000"
 preserveAspectRatio="xMidYMid meet">
<metadata>
Created by potrace 1.16, written by Peter Selinger 2001-2019
</metadata>
<g transform="translate(0.000000,192.000000) scale(0.100000,-0.100000)"
fill="#000000" stroke="none">
811 c445 -92 729 -532 635 -987 -62 -301 -295 -546 -601 -630 -91 -26 -329
-26 -420 0 -291 80 -516 305 -596 596 -26 91 -26 329 0 420 120 433 542 692
982 601z"/>
<path d="M720 1348 c-25 -13 -55 -38 -67 -57 -23 -33 -23 -40 -23 -326 0 -286
0 -293 23 -326 12 -19 42 -44 67 -57 42 -21 56 -22 276 -22 242 0 263 4 248
44 -5 14 -30 16 -199 16 -201 0 -224 5 -209 44 5 14 29 16 186 16 195 0 224 6
246 55 8 18 12 108 12 295 l0 270 -29 32 -29 33 -229 3 c-221 3 -229 2 -273
-20z m430 -183 c0 -80 -3 -145 -6 -145 -3 0 -23 14 -44 30 -21 17 -44 30 -51
30 -8 0 -32 -14 -53 -30 -21 -16 -43 -27 -47 -24 -10 6 -12 267 -2 277 3 4 51
7 105 7 l98 0 0 -145z"/>
</g>
</svg>
