<?xml version="1.0" standalone="no"?>
<!DOCTYPE svg PUBLIC "-//W3C//DTD SVG 20010904//EN"
 "http://www.w3.org/TR/2001/REC-SVG-20010904/DTD/svg10.dtd">
<svg version="1.0" xmlns="http://www.w3.org/2000/svg"
 width="192.000000pt" height="192.000000pt" viewBox="0 0 192.000000 192.000000"
 preserveAspectRatio="xMidYMid meet">
<metadata>
Created by potrace 1.16, written by Peter Selinger 2001-2019
</metadata>
<g transform="translate(0.000000,192.000000) scale(0.100000,-0.100000)"
fill="#000000" stroke="none">
810 c245 -63 441 -223 549 -451 55 -116 75 -212 75 -354 0 -141 -20 -238 -75
-352 -86 -182 -215 -312 -396 -398 -116 -55 -212 -75 -354 -75 -142 0 -238 20
-354 75 -228 108 -388 304 -451 549 -28 110 -28 292 0 402 76 298 303 526 600
603 106 28 298 28 406 1z"/>
<path d="M461 1276 c-10 -11 -1 -32 44 -103 l55 -90 0 -170 c0 -160 1 -172 23
-204 12 -18 38 -44 56 -56 33 -23 40 -23 308 -23 300 0 307 1 356 60 39 46 47
90 47 265 -1 227 -14 268 -100 313 -44 22 -50 22 -411 22 -303 0 -369 -2 -378
-14z m747 -118 c17 -17 15 -44 -4 -62 -23 -24 -475 -24 -498 0 -19 18 -21 45
-4 62 17 17 489 17 506 0z m-18 -161 c33 -17 37 -51 8 -71 -19 -13 -57 -16
-243 -16 -186 0 -224 3 -243 16 -15 10 -22 24 -20 37 6 41 40 47 263 47 149 0
217 -4 235 -13z m12 -184 c21 -19 23 -44 6 -61 -17 -17 -489 -17 -506 0 -17
17 -15 38 5 60 15 16 36 18 246 18 200 0 233 -2 249 -17z"/>
</g>
</svg>
