<?xml version="1.0" standalone="no"?>
<!DOCTYPE svg PUBLIC "-//W3C//DTD SVG 20010904//EN"
 "http://www.w3.org/TR/2001/REC-SVG-20010904/DTD/svg10.dtd">
<svg version="1.0" xmlns="http://www.w3.org/2000/svg"
 width="192.000000pt" height="192.000000pt" viewBox="0 0 192.000000 192.000000"
 preserveAspectRatio="xMidYMid meet">
<metadata>
Created by potrace 1.16, written by Peter Selinger 2001-2019
</metadata>
<g transform="translate(0.000000,192.000000) scale(0.100000,-0.100000)"
fill="#000000" stroke="none">
810 c245 -63 441 -223 549 -451 55 -116 75 -212 75 -354 0 -141 -20 -238 -75
-352 -86 -182 -215 -312 -396 -398 -116 -55 -212 -75 -354 -75 -142 0 -238 20
-354 75 -228 108 -388 304 -451 549 -28 110 -28 292 0 402 76 298 303 526 600
603 106 28 298 28 406 1z"/>
<path d="M460 1275 c-10 -12 -3 -29 40 -97 l53 -83 5 -178 c5 -198 11 -217 81
-264 33 -23 40 -23 308 -23 297 0 303 1 354 57 42 46 49 82 49 272 -1 229 -15
271 -105 312 -36 17 -72 19 -406 19 -312 0 -368 -2 -379 -15z m748 -117 c17
-17 15 -44 -4 -62 -23 -24 -475 -24 -498 0 -19 18 -21 45 -4 62 17 17 489 17
506 0z m0 -170 c19 -19 14 -45 -10 -62 -19 -13 -60 -16 -243 -16 -183 0 -224
3 -243 16 -24 17 -29 43 -10 62 17 17 489 17 506 0z m-10 -174 c24 -17 29 -43
10 -62 -17 -17 -489 -17 -506 0 -17 17 -15 38 5 60 15 16 36 18 242 18 189 0
230 -3 249 -16z"/>
</g>
</svg>
