<?xml version="1.0" standalone="no"?>
<!DOCTYPE svg PUBLIC "-//W3C//DTD SVG 20010904//EN"
 "http://www.w3.org/TR/2001/REC-SVG-20010904/DTD/svg10.dtd">
<svg version="1.0" xmlns="http://www.w3.org/2000/svg"
 width="192.000000pt" height="192.000000pt" viewBox="0 0 192.000000 192.000000"
 preserveAspectRatio="xMidYMid meet">
<metadata>
Created by potrace 1.16, written by Peter Selinger 2001-2019
</metadata>
<g transform="translate(0.000000,192.000000) scale(0.100000,-0.100000)"
fill="#000000" stroke="none">
810 c245 -63 441 -223 549 -451 55 -116 75 -212 75 -354 0 -141 -20 -238 -75
-352 -86 -182 -215 -312 -396 -398 -116 -55 -212 -75 -354 -75 -142 0 -238 20
-354 75 -228 108 -388 304 -451 549 -28 110 -28 292 0 402 76 298 303 526 600
603 106 28 298 28 406 1z"/>
<path d="M454 1276 c-3 -9 16 -51 45 -99 l51 -83 0 -149 c0 -167 9 -217 48
-258 57 -61 62 -62 352 -62 301 0 319 4 368 78 27 40 27 43 30 238 4 227 -4
262 -74 315 l-37 29 -389 3 c-338 2 -389 1 -394 -12z m756 -125 c14 -27 13
-37 -6 -55 -23 -24 -475 -24 -498 0 -19 18 -21 45 -4 62 9 9 79 12 255 12 229
0 243 -1 253 -19z m-2 -163 c19 -19 14 -45 -10 -62 -19 -13 -60 -16 -243 -16
-183 0 -224 3 -243 16 -24 17 -29 43 -10 62 17 17 489 17 506 0z m-10 -174
c24 -17 29 -43 10 -62 -17 -17 -489 -17 -506 0 -19 19 -14 45 10 62 19 13 60
16 243 16 183 0 224 -3 243 -16z"/>
</g>
</svg>
