<?xml version="1.0" standalone="no"?>
<!DOCTYPE svg PUBLIC "-//W3C//DTD SVG 20010904//EN"
 "http://www.w3.org/TR/2001/REC-SVG-20010904/DTD/svg10.dtd">
<svg version="1.0" xmlns="http://www.w3.org/2000/svg"
 width="192.000000pt" height="192.000000pt" viewBox="0 0 192.000000 192.000000"
 preserveAspectRatio="xMidYMid meet">
<metadata>
Created by potrace 1.16, written by Peter Selinger 2001-2019
</metadata>
<g transform="translate(0.000000,192.000000) scale(0.100000,-0.100000)"
fill="#000000" stroke="none">
811 c445 -92 729 -532 635 -987 -62 -301 -295 -546 -601 -630 -91 -26 -329
-26 -420 0 -291 80 -516 305 -596 596 -26 91 -26 329 0 420 120 433 542 692
982 601z"/>
<path d="M625 1350 c-16 -25 -17 -156 -2 -191 l15 -36 -32 -17 c-18 -9 -41
-31 -51 -48 -17 -30 -17 -32 0 -45 11 -7 25 -13 33 -13 9 0 3 -13 -17 -35 -42
-48 -40 -63 8 -71 l40 -6 -19 -27 c-19 -27 -23 -41 -21 -78 1 -21 4 -22 71
-16 85 7 107 -5 150 -80 46 -83 80 -110 142 -114 67 -5 108 18 146 84 15 26
42 63 60 81 31 33 33 34 105 31 l72 -4 3 33 c2 21 -4 43 -18 62 l-21 30 21 0
c12 0 30 5 40 10 23 12 18 34 -18 72 l-25 27 27 7 c16 4 26 13 26 24 0 23 -47
80 -65 80 -23 0 -25 14 -9 61 17 47 12 152 -8 176 -16 20 -28 16 -110 -33 -72
-43 -79 -45 -115 -35 -49 14 -156 14 -202 0 -34 -10 -41 -8 -111 35 -74 46
-103 55 -115 36z m250 -470 c0 -18 -6 -26 -23 -28 -24 -4 -38 18 -28 44 3 9
15 14 28 12 17 -2 23 -10 23 -28z m210 0 c0 -20 -6 -26 -26 -28 -30 -4 -46 22
-28 45 20 23 54 12 54 -17z m-81 -190 c14 -14 -1 -39 -29 -46 -32 -8 -75 10
-75 31 0 30 77 41 104 15z"/>
</g>
</svg>
