<?xml version="1.0" standalone="no"?>
<!DOCTYPE svg PUBLIC "-//W3C//DTD SVG 20010904//EN"
 "http://www.w3.org/TR/2001/REC-SVG-20010904/DTD/svg10.dtd">
<svg version="1.0" xmlns="http://www.w3.org/2000/svg"
 width="192.000000pt" height="192.000000pt" viewBox="0 0 192.000000 192.000000"
 preserveAspectRatio="xMidYMid meet">
<metadata>
Created by potrace 1.16, written by Peter Selinger 2001-2019
</metadata>
<g transform="translate(0.000000,192.000000) scale(0.100000,-0.100000)"
fill="#000000" stroke="none">
811 c445 -92 729 -532 635 -987 -62 -301 -295 -546 -601 -630 -91 -26 -329
-26 -420 0 -291 80 -516 305 -596 596 -26 91 -26 329 0 420 120 433 542 692
982 601z"/>
<path d="M834 1410 c-75 -30 -137 -89 -176 -168 l-33 -67 0 -208 c0 -195 1
-209 19 -223 43 -31 86 -7 95 54 l6 41 33 -20 c31 -20 32 -24 32 -85 0 -56 3
-65 24 -79 17 -11 30 -13 48 -6 30 11 38 29 38 82 0 38 1 39 35 39 l34 0 3
-87 c3 -83 4 -88 29 -102 24 -13 29 -13 53 2 25 17 26 21 26 117 0 98 0 99 29
119 16 12 32 21 35 21 3 0 6 -69 6 -153 0 -136 2 -156 18 -170 24 -22 55 -21
76 2 15 17 17 49 14 347 l-3 329 -28 53 c-34 65 -93 123 -155 153 -68 32 -189
36 -258 9z m203 -111 c40 -13 107 -85 123 -134 17 -53 8 -125 -24 -179 -80
-136 -282 -136 -362 0 -56 96 -40 201 43 273 64 57 127 69 220 40z"/>
<path d="M884 1201 c-39 -24 -58 -70 -51 -122 14 -106 142 -141 212 -58 30 36
35 111 9 147 -36 51 -115 67 -170 33z"/>
</g>
</svg>
