<?xml version="1.0" standalone="no"?>
<!DOCTYPE svg PUBLIC "-//W3C//DTD SVG 20010904//EN"
 "http://www.w3.org/TR/2001/REC-SVG-20010904/DTD/svg10.dtd">
<svg version="1.0" xmlns="http://www.w3.org/2000/svg"
 width="192.000000pt" height="192.000000pt" viewBox="0 0 192.000000 192.000000"
 preserveAspectRatio="xMidYMid meet">
<metadata>
Created by potrace 1.16, written by Peter Selinger 2001-2019
</metadata>
<g transform="translate(0.000000,192.000000) scale(0.100000,-0.100000)"
fill="#000000" stroke="none">
811 c445 -92 729 -532 635 -987 -62 -301 -295 -546 -601 -630 -91 -26 -329
-26 -420 0 -291 80 -516 305 -596 596 -26 91 -26 329 0 420 120 433 542 692
982 601z"/>
<path d="M1083 1311 c-16 -21 -33 -47 -38 -56 -10 -17 -13 -16 -52 4 -52 26
-85 27 -106 3 -24 -26 -97 -236 -97 -277 0 -24 7 -39 26 -54 l26 -21 -81 -137
c-45 -76 -80 -147 -79 -157 2 -10 15 -28 29 -38 43 -32 65 -12 153 138 44 73
81 134 83 134 2 0 18 -7 35 -16 16 -9 40 -13 53 -10 23 6 178 181 197 222 17
38 2 71 -47 100 -25 14 -45 29 -45 32 0 4 12 25 25 47 30 48 32 86 7 108 -31
28 -59 21 -89 -22z"/>
</g>
</svg>
