<?xml version="1.0" standalone="no"?>
<!DOCTYPE svg PUBLIC "-//W3C//DTD SVG 20010904//EN"
 "http://www.w3.org/TR/2001/REC-SVG-20010904/DTD/svg10.dtd">
<svg version="1.0" xmlns="http://www.w3.org/2000/svg"
 width="192.000000pt" height="192.000000pt" viewBox="0 0 192.000000 192.000000"
 preserveAspectRatio="xMidYMid meet">
<metadata>
Created by potrace 1.16, written by Peter Selinger 2001-2019
</metadata>
<g transform="translate(0.000000,192.000000) scale(0.100000,-0.100000)"
fill="#000000" stroke="none">
811 c445 -92 729 -532 635 -987 -62 -301 -295 -546 -601 -630 -91 -26 -329
-26 -420 0 -291 80 -516 305 -596 596 -26 91 -26 329 0 420 120 433 542 692
982 601z"/>
<path d="M881 1332 c-45 -22 -71 -59 -78 -110 -7 -55 2 -85 39 -127 l31 -36
-29 6 c-16 4 -45 11 -66 16 -69 17 -108 -17 -108 -95 0 -44 22 -62 98 -79 35
-8 68 -19 74 -25 7 -7 -13 -38 -61 -98 -83 -103 -89 -129 -40 -175 20 -19 42
-29 61 -29 30 0 46 13 130 114 l25 29 53 -64 c29 -35 58 -67 64 -71 22 -15 60
-8 93 18 54 41 47 73 -38 178 -43 55 -67 92 -61 98 5 5 36 16 68 24 84 22 104
37 104 79 0 46 -15 82 -40 95 -21 11 -61 6 -145 -17 -16 -5 -13 1 12 30 92
105 24 257 -114 257 -21 0 -53 -8 -72 -18z"/>
</g>
</svg>
