<?xml version="1.0" standalone="no"?>
<!DOCTYPE svg PUBLIC "-//W3C//DTD SVG 20010904//EN"
 "http://www.w3.org/TR/2001/REC-SVG-20010904/DTD/svg10.dtd">
<svg version="1.0" xmlns="http://www.w3.org/2000/svg"
 width="192.000000pt" height="192.000000pt" viewBox="0 0 192.000000 192.000000"
 preserveAspectRatio="xMidYMid meet">
<metadata>
Created by potrace 1.16, written by Peter Selinger 2001-2019
</metadata>
<g transform="translate(0.000000,192.000000) scale(0.100000,-0.100000)"
fill="#000000" stroke="none">
811 c445 -92 729 -532 635 -987 -62 -301 -295 -546 -601 -630 -91 -26 -329
-26 -420 0 -291 80 -516 305 -596 596 -26 91 -26 329 0 420 120 433 542 692
982 601z"/>
<path d="M455 1068 c-3 -13 -5 -68 -3 -123 l3 -100 75 0 75 0 0 70 0 70 -33 3
c-38 4 -56 -23 -29 -43 10 -7 17 -22 17 -34 0 -17 -6 -21 -30 -21 l-30 0 0 75
0 75 30 0 c17 0 30 -4 30 -10 0 -13 37 -13 45 1 4 5 4 21 1 35 -6 23 -11 24
-76 24 -64 0 -70 -2 -75 -22z"/>
<path d="M655 1068 c-3 -13 -5 -68 -3 -123 l3 -100 69 -3 c49 -2 72 1 77 10
10 15 12 199 3 222 -5 12 -21 16 -75 16 -63 0 -69 -2 -74 -22z m105 -103 l0
-75 -30 0 -30 0 0 75 0 75 30 0 30 0 0 -75z"/>
<path d="M854 1077 c-8 -21 51 -220 68 -231 30 -18 45 2 71 98 31 110 33 134
12 143 -22 8 -25 2 -46 -83 -10 -42 -20 -78 -22 -81 -3 -2 -10 27 -17 64 -7
37 -17 76 -22 86 -10 20 -36 23 -44 4z"/>
<path d="M1117 1084 c-4 -4 -7 -61 -7 -126 l0 -119 78 3 77 3 3 48 c2 27 -1
54 -7 61 -7 9 -7 16 0 23 6 6 9 32 7 59 l-3 49 -70 3 c-39 1 -74 0 -78 -4z
m103 -69 c0 -21 -5 -25 -30 -25 -25 0 -30 4 -30 25 0 21 5 25 30 25 25 0 30
-4 30 -25z m0 -100 c0 -21 -5 -25 -30 -25 -22 0 -30 5 -30 18 0 25 9 32 37 32
18 0 23 -5 23 -25z"/>
<path d="M1304 1077 c-2 -7 -3 -62 -2 -123 3 -104 4 -109 26 -112 20 -3 22 0
22 47 0 50 1 51 30 51 29 0 30 -1 30 -51 0 -47 2 -50 23 -47 19 3 22 10 25 51
2 27 -2 55 -8 62 -8 9 -8 15 0 20 11 7 14 73 4 99 -8 21 -142 23 -150 3z m106
-62 c0 -21 -5 -25 -30 -25 -25 0 -30 4 -30 25 0 21 5 25 30 25 25 0 30 -4 30
-25z"/>
<path d="M1023 883 c-7 -2 -13 -13 -13 -24 0 -14 7 -19 26 -19 20 0 25 4 22
22 -3 23 -15 30 -35 21z"/>
</g>
</svg>
