<?xml version="1.0" standalone="no"?>
<!DOCTYPE svg PUBLIC "-//W3C//DTD SVG 20010904//EN"
 "http://www.w3.org/TR/2001/REC-SVG-20010904/DTD/svg10.dtd">
<svg version="1.0" xmlns="http://www.w3.org/2000/svg"
 width="192.000000pt" height="192.000000pt" viewBox="0 0 192.000000 192.000000"
 preserveAspectRatio="xMidYMid meet">
<metadata>
Created by potrace 1.16, written by Peter Selinger 2001-2019
</metadata>
<g transform="translate(0.000000,192.000000) scale(0.100000,-0.100000)"
fill="#000000" stroke="none">
811 c445 -92 729 -532 635 -987 -62 -301 -295 -546 -601 -630 -91 -26 -329
-26 -420 0 -291 80 -516 305 -596 596 -26 91 -26 329 0 420 120 433 542 692
982 601z"/>
<path d="M605 1273 c-55 -14 -75 -83 -35 -123 19 -19 33 -20 385 -20 352 0
366 1 385 20 27 27 26 81 -1 106 -20 18 -42 19 -368 21 -190 0 -355 -1 -366
-4z"/>
<path d="M576 1019 c-19 -15 -26 -30 -26 -54 0 -24 7 -39 26 -54 24 -19 40
-21 154 -21 150 0 174 10 174 75 0 65 -24 75 -174 75 -114 0 -130 -2 -154 -21z"/>
<path d="M1031 1023 c-11 -10 -24 -32 -27 -50 -5 -26 -1 -37 19 -57 25 -25 30
-26 155 -26 116 0 132 2 156 21 19 15 26 30 26 54 0 24 -7 39 -26 54 -24 19
-40 21 -154 21 -107 0 -131 -3 -149 -17z"/>
<path d="M570 780 c-27 -27 -26 -81 1 -106 17 -15 40 -19 128 -22 127 -5 183
7 199 43 17 36 15 48 -9 79 -20 26 -21 26 -160 26 -126 0 -141 -2 -159 -20z"/>
<path d="M1021 774 c-24 -31 -26 -43 -9 -79 16 -36 72 -48 199 -43 88 3 111 7
128 22 27 25 28 79 1 106 -18 18 -33 20 -159 20 -139 0 -140 0 -160 -26z"/>
</g>
</svg>
