<?xml version="1.0" standalone="no"?>
<!DOCTYPE svg PUBLIC "-//W3C//DTD SVG 20010904//EN"
 "http://www.w3.org/TR/2001/REC-SVG-20010904/DTD/svg10.dtd">
<svg version="1.0" xmlns="http://www.w3.org/2000/svg"
 width="192.000000pt" height="192.000000pt" viewBox="0 0 192.000000 192.000000"
 preserveAspectRatio="xMidYMid meet">
<metadata>
Created by potrace 1.16, written by Peter Selinger 2001-2019
</metadata>
<g transform="translate(0.000000,192.000000) scale(0.100000,-0.100000)"
fill="#000000" stroke="none">
811 c445 -92 729 -532 635 -987 -62 -301 -295 -546 -601 -630 -91 -26 -329
-26 -420 0 -291 80 -516 305 -596 596 -26 91 -26 329 0 420 120 433 542 692
982 601z"/>
<path d="M632 1111 c-8 -4 -12 -19 -10 -32 2 -18 9 -24 28 -24 28 0 39 27 20
50 -14 17 -20 18 -38 6z"/>
<path d="M896 1105 c-20 -21 -5 -55 25 -55 24 0 36 27 22 48 -14 23 -29 25
-47 7z"/>
<path d="M1052 1111 c-8 -4 -12 -19 -10 -32 2 -18 9 -24 28 -24 28 0 39 27 20
50 -14 17 -20 18 -38 6z"/>
<path d="M1202 1111 c-8 -4 -12 -19 -10 -32 2 -18 9 -24 28 -24 28 0 39 27 20
50 -14 17 -20 18 -38 6z"/>
<path d="M547 1033 c-4 -3 -7 -52 -7 -109 0 -76 3 -103 13 -107 25 -9 36 8 39
63 l3 55 20 -32 c10 -18 24 -33 30 -33 5 0 22 14 37 32 l27 33 1 -57 c0 -60
11 -78 35 -58 21 18 21 192 0 210 -18 15 -28 9 -66 -46 l-31 -46 -34 51 c-32
48 -51 60 -67 44z"/>
<path d="M923 1033 c-7 -2 -13 -10 -13 -16 0 -19 62 -182 74 -195 22 -23 43
-2 61 59 10 33 22 56 25 52 4 -4 15 -32 25 -61 17 -54 38 -73 56 -55 6 6 26
53 44 104 30 83 33 96 20 109 -21 20 -36 1 -61 -73 l-19 -58 -20 60 c-34 103
-60 104 -92 5 -9 -30 -19 -51 -22 -48 -3 3 -15 31 -26 61 -20 56 -29 66 -52
56z"/>
<path d="M813 980 c-28 -12 -43 -40 -43 -84 0 -62 61 -100 120 -76 19 8 30 20
30 32 0 17 -5 19 -40 13 -21 -4 -45 -3 -52 2 -8 5 8 10 42 13 50 5 55 7 58 31
6 51 -61 92 -115 69z m62 -50 c4 -6 -7 -10 -25 -10 -18 0 -29 4 -25 10 3 6 15
10 25 10 10 0 22 -4 25 -10z"/>
<path d="M1253 980 c-28 -12 -43 -40 -43 -84 0 -62 61 -100 120 -76 19 8 30
20 30 32 0 17 -5 19 -40 13 -21 -4 -45 -3 -52 2 -8 5 8 10 42 13 50 5 55 7 58
31 6 51 -61 92 -115 69z m62 -50 c4 -6 -7 -10 -25 -10 -18 0 -29 4 -25 10 3 6
15 10 25 10 10 0 22 -4 25 -10z"/>
</g>
</svg>
