<?xml version="1.0" standalone="no"?>
<!DOCTYPE svg PUBLIC "-//W3C//DTD SVG 20010904//EN"
 "http://www.w3.org/TR/2001/REC-SVG-20010904/DTD/svg10.dtd">
<svg version="1.0" xmlns="http://www.w3.org/2000/svg"
 width="192.000000pt" height="192.000000pt" viewBox="0 0 192.000000 192.000000"
 preserveAspectRatio="xMidYMid meet">
<metadata>
Created by potrace 1.16, written by Peter Selinger 2001-2019
</metadata>
<g transform="translate(0.000000,192.000000) scale(0.100000,-0.100000)"
fill="#000000" stroke="none">
811 c445 -92 729 -532 635 -987 -62 -301 -295 -546 -601 -630 -91 -26 -329
-26 -420 0 -291 80 -516 305 -596 596 -26 91 -26 329 0 420 120 433 542 692
982 601z"/>
<path d="M577 1213 c-4 -3 -7 -118 -7 -255 l0 -248 59 0 c44 0 60 4 65 16 3 9
6 96 6 195 l0 179 143 0 c78 0 147 -4 154 -8 25 -16 33 -69 33 -223 l0 -159
59 0 c44 0 60 4 65 16 3 9 6 95 6 193 0 164 -2 180 -22 221 -40 76 -57 80
-324 80 -127 0 -234 -3 -237 -7z"/>
<path d="M1267 1213 c-4 -3 -7 -118 -7 -255 l0 -248 59 0 c44 0 60 4 65 16 12
31 7 469 -6 482 -13 13 -100 17 -111 5z"/>
<path d="M807 983 c-4 -3 -7 -66 -7 -140 l0 -133 59 0 c44 0 60 4 65 16 12 30
7 239 -6 252 -13 13 -100 17 -111 5z"/>
</g>
</svg>
