<?xml version="1.0" standalone="no"?>
<!DOCTYPE svg PUBLIC "-//W3C//DTD SVG 20010904//EN"
 "http://www.w3.org/TR/2001/REC-SVG-20010904/DTD/svg10.dtd">
<svg version="1.0" xmlns="http://www.w3.org/2000/svg"
 width="192.000000pt" height="192.000000pt" viewBox="0 0 192.000000 192.000000"
 preserveAspectRatio="xMidYMid meet">
<metadata>
Created by potrace 1.16, written by Peter Selinger 2001-2019
</metadata>
<g transform="translate(0.000000,192.000000) scale(0.100000,-0.100000)"
fill="#000000" stroke="none">
811 c445 -92 729 -532 635 -987 -62 -301 -295 -546 -601 -630 -91 -26 -329
-26 -420 0 -291 80 -516 305 -596 596 -26 91 -26 329 0 420 120 433 542 692
982 601z"/>
<path d="M936 1368 c-62 -17 -104 -71 -213 -273 -199 -372 -203 -386 -163
-465 35 -68 118 -95 191 -62 42 18 105 78 140 132 l16 24 69 -63 c93 -85 133
-105 211 -105 155 1 261 136 218 279 -8 28 -72 147 -143 265 -113 189 -134
218 -173 242 -53 32 -100 40 -153 26z m99 -107 c28 -17 149 -204 157 -241 2
-10 -11 -16 -47 -21 -63 -8 -147 -48 -207 -99 -25 -22 -77 -82 -117 -134 -40
-53 -81 -100 -91 -106 -34 -18 -68 -12 -86 16 -17 25 -16 28 15 92 82 167 255
474 278 492 32 25 59 25 98 1z m198 -365 c58 -24 82 -61 82 -122 0 -47 -4 -58
-31 -85 -41 -41 -104 -50 -156 -23 -38 20 -148 119 -148 134 0 15 63 62 115
86 57 27 92 30 138 10z"/>
</g>
</svg>
