<?xml version="1.0" standalone="no"?>
<!DOCTYPE svg PUBLIC "-//W3C//DTD SVG 20010904//EN"
 "http://www.w3.org/TR/2001/REC-SVG-20010904/DTD/svg10.dtd">
<svg version="1.0" xmlns="http://www.w3.org/2000/svg"
 width="192.000000pt" height="192.000000pt" viewBox="0 0 192.000000 192.000000"
 preserveAspectRatio="xMidYMid meet">
<metadata>
Created by potrace 1.16, written by Peter Selinger 2001-2019
</metadata>
<g transform="translate(0.000000,192.000000) scale(0.100000,-0.100000)"
fill="#000000" stroke="none">
811 c445 -92 729 -532 635 -987 -62 -301 -295 -546 -601 -630 -91 -26 -329
-26 -420 0 -291 80 -516 305 -596 596 -26 91 -26 329 0 420 120 433 542 692
982 601z"/>
<path d="M755 1269 c-93 -50 -178 -99 -189 -109 -18 -18 -17 -19 23 -45 23
-14 53 -31 67 -37 13 -6 24 -14 24 -17 0 -4 -27 -21 -61 -40 -41 -22 -59 -38
-57 -49 2 -10 30 -31 63 -49 33 -17 60 -37 60 -43 0 -6 -27 -26 -60 -43 -33
-18 -60 -39 -60 -47 0 -21 351 -209 390 -209 39 0 390 188 390 209 0 8 -27 29
-60 47 -33 17 -60 37 -60 43 0 6 27 26 60 43 33 18 61 39 63 49 2 11 -16 27
-57 49 -34 19 -61 36 -61 40 0 3 11 11 24 17 14 6 44 23 67 37 40 26 41 27 23
45 -36 34 -359 200 -390 200 -17 0 -96 -36 -199 -91z"/>
</g>
</svg>
