<?xml version="1.0" standalone="no"?>
<!DOCTYPE svg PUBLIC "-//W3C//DTD SVG 20010904//EN"
 "http://www.w3.org/TR/2001/REC-SVG-20010904/DTD/svg10.dtd">
<svg version="1.0" xmlns="http://www.w3.org/2000/svg"
 width="192.000000pt" height="192.000000pt" viewBox="0 0 192.000000 192.000000"
 preserveAspectRatio="xMidYMid meet">
<metadata>
Created by potrace 1.16, written by Peter Selinger 2001-2019
</metadata>
<g transform="translate(0.000000,192.000000) scale(0.100000,-0.100000)"
fill="#000000" stroke="none">
811 c445 -92 729 -532 635 -987 -62 -301 -295 -546 -601 -630 -91 -26 -329
-26 -420 0 -291 80 -516 305 -596 596 -26 91 -26 329 0 420 120 433 542 692
982 601z"/>
<path d="M565 1326 c-26 -39 0 -87 72 -132 32 -20 59 -38 61 -39 2 -2 -6 -22
-18 -45 -23 -45 -45 -201 -29 -210 5 -3 1 -41 -7 -83 -13 -61 -13 -81 -4 -92
15 -18 51 -20 68 -3 9 9 12 9 12 0 0 -22 70 -90 116 -111 107 -51 255 -33 338
40 25 22 48 49 51 60 5 15 10 18 18 10 6 -6 23 -11 38 -11 38 0 43 23 24 111
-8 41 -11 75 -6 78 16 10 -6 166 -29 212 -13 24 -18 45 -14 46 39 13 112 74
127 106 18 35 18 39 3 62 -26 39 -67 33 -121 -16 -25 -23 -54 -57 -66 -76 -14
-23 -25 -31 -33 -24 -24 20 -138 51 -189 51 -57 0 -148 -23 -184 -46 -20 -13
-23 -11 -42 20 -12 18 -41 52 -66 75 -53 49 -95 55 -120 17z"/>
</g>
</svg>
