<?xml version="1.0" standalone="no"?>
<!DOCTYPE svg PUBLIC "-//W3C//DTD SVG 20010904//EN"
 "http://www.w3.org/TR/2001/REC-SVG-20010904/DTD/svg10.dtd">
<svg version="1.0" xmlns="http://www.w3.org/2000/svg"
 width="192.000000pt" height="192.000000pt" viewBox="0 0 192.000000 192.000000"
 preserveAspectRatio="xMidYMid meet">
<metadata>
Created by potrace 1.16, written by Peter Selinger 2001-2019
</metadata>
<g transform="translate(0.000000,192.000000) scale(0.100000,-0.100000)"
fill="#000000" stroke="none">
811 c445 -92 729 -532 635 -987 -62 -301 -295 -546 -601 -630 -91 -26 -329
-26 -420 0 -291 80 -516 305 -596 596 -26 91 -26 329 0 420 120 433 542 692
982 601z"/>
<path d="M1063 1158 l-212 -212 -114 112 c-63 62 -118 112 -123 112 -5 0 -20
-7 -32 -16 -23 -16 -31 -67 -12 -79 6 -4 10 -94 10 -238 0 -252 5 -277 54
-277 50 0 56 22 56 215 l0 178 69 -66 c42 -41 78 -67 91 -67 13 0 49 26 91 67
l69 66 0 -174 c0 -142 3 -179 16 -197 18 -27 55 -29 77 -4 15 16 17 49 17 252
l0 234 115 116 c63 64 115 125 115 134 0 33 -20 56 -48 56 -22 0 -67 -40 -239
-212z"/>
<path d="M1182 1108 c-17 -17 -17 -519 0 -536 19 -19 66 -15 78 7 15 29 14
513 -2 529 -7 7 -24 12 -38 12 -14 0 -31 -5 -38 -12z"/>
</g>
</svg>
