<?xml version="1.0" standalone="no"?>
<!DOCTYPE svg PUBLIC "-//W3C//DTD SVG 20010904//EN"
 "http://www.w3.org/TR/2001/REC-SVG-20010904/DTD/svg10.dtd">
<svg version="1.0" xmlns="http://www.w3.org/2000/svg"
 width="192.000000pt" height="192.000000pt" viewBox="0 0 192.000000 192.000000"
 preserveAspectRatio="xMidYMid meet">
<metadata>
Created by potrace 1.16, written by Peter Selinger 2001-2019
</metadata>
<g transform="translate(0.000000,192.000000) scale(0.100000,-0.100000)"
fill="#000000" stroke="none">
811 c445 -92 729 -532 635 -987 -62 -301 -295 -546 -601 -630 -91 -26 -329
-26 -420 0 -291 80 -516 305 -596 596 -26 91 -26 329 0 420 120 433 542 692
982 601z"/>
<path d="M581 1284 c-31 -39 -29 -117 4 -149 23 -24 29 -25 168 -25 131 0 147
2 171 21 23 18 26 28 26 80 0 95 -7 99 -194 99 l-155 0 -20 -26z"/>
<path d="M1030 1290 c-16 -16 -20 -33 -20 -79 0 -52 3 -62 26 -80 24 -19 40
-21 171 -21 139 0 145 1 168 25 33 32 35 110 4 149 l-20 26 -155 0 c-141 0
-156 -2 -174 -20z"/>
<path d="M588 1030 c-63 -49 -23 -160 57 -160 57 0 106 70 86 123 -21 55 -96
75 -143 37z"/>
<path d="M806 1019 c-14 -17 -26 -39 -26 -50 0 -50 49 -99 100 -99 10 0 32 12
49 26 25 21 31 33 31 65 0 86 -100 123 -154 58z"/>
<path d="M1025 1018 c-48 -57 -18 -132 58 -145 31 -5 40 -1 67 25 61 61 26
152 -59 152 -32 0 -44 -6 -66 -32z"/>
<path d="M1245 1025 c-38 -37 -35 -95 6 -129 17 -14 39 -26 49 -26 51 0 100
49 100 100 0 12 -13 35 -29 51 -38 38 -91 40 -126 4z"/>
<path d="M585 777 c-41 -34 -39 -90 3 -128 35 -31 57 -35 96 -18 32 15 59 70
50 104 -15 61 -100 85 -149 42z"/>
<path d="M806 769 c-29 -35 -32 -58 -12 -98 25 -47 48 -51 297 -51 250 0 274
4 297 55 18 39 15 60 -14 94 l-26 31 -258 0 -258 0 -26 -31z"/>
</g>
</svg>
