<?xml version="1.0" standalone="no"?>
<!DOCTYPE svg PUBLIC "-//W3C//DTD SVG 20010904//EN"
 "http://www.w3.org/TR/2001/REC-SVG-20010904/DTD/svg10.dtd">
<svg version="1.0" xmlns="http://www.w3.org/2000/svg"
 width="192.000000pt" height="192.000000pt" viewBox="0 0 192.000000 192.000000"
 preserveAspectRatio="xMidYMid meet">
<metadata>
Created by potrace 1.16, written by Peter Selinger 2001-2019
</metadata>
<g transform="translate(0.000000,192.000000) scale(0.100000,-0.100000)"
fill="#000000" stroke="none">
811 c445 -92 729 -532 635 -987 -62 -301 -295 -546 -601 -630 -91 -26 -329
-26 -420 0 -291 80 -516 305 -596 596 -26 91 -26 329 0 420 120 433 542 692
982 601z"/>
<path d="M720 1177 c-50 -16 -126 -93 -139 -142 -26 -94 -3 -174 66 -236 51
-46 100 -63 168 -57 69 6 105 29 105 68 0 49 -23 62 -96 55 -63 -7 -64 -7 -99
28 -93 93 28 226 139 153 14 -9 35 -48 56 -102 52 -139 127 -203 235 -204 65
0 144 37 180 83 135 179 -30 417 -247 357 -61 -17 -78 -73 -33 -108 22 -17 31
-19 62 -10 77 21 143 -23 143 -97 0 -47 -14 -71 -50 -90 -77 -40 -132 -3 -180
120 -40 102 -67 137 -132 169 -56 28 -116 32 -178 13z"/>
</g>
</svg>
