<?xml version="1.0" standalone="no"?>
<!DOCTYPE svg PUBLIC "-//W3C//DTD SVG 20010904//EN"
 "http://www.w3.org/TR/2001/REC-SVG-20010904/DTD/svg10.dtd">
<svg version="1.0" xmlns="http://www.w3.org/2000/svg"
 width="192.000000pt" height="192.000000pt" viewBox="0 0 192.000000 192.000000"
 preserveAspectRatio="xMidYMid meet">
<metadata>
Created by potrace 1.16, written by Peter Selinger 2001-2019
</metadata>
<g transform="translate(0.000000,192.000000) scale(0.100000,-0.100000)"
fill="#000000" stroke="none">
811 c445 -92 729 -532 635 -987 -62 -301 -295 -546 -601 -630 -91 -26 -329
-26 -420 0 -291 80 -516 305 -596 596 -26 91 -26 329 0 420 120 433 542 692
982 601z"/>
<path d="M622 1317 c-55 -31 -57 -40 -57 -328 l0 -265 28 -43 c51 -76 71 -81
381 -81 253 0 272 1 313 21 23 11 53 35 65 52 22 31 23 40 23 237 0 200 -1
206 -24 239 -42 58 -86 71 -249 71 l-142 0 -60 55 -60 55 -97 0 c-59 -1 -107
-6 -121 -13z m513 -382 c23 -22 25 -32 25 -115 l0 -90 -30 0 -30 0 0 84 c0 97
0 96 -91 96 l-59 0 0 -90 c0 -89 0 -90 -25 -90 l-25 0 0 115 0 115 105 0 c99
0 107 -2 130 -25z m125 -91 l0 -115 -27 3 -28 3 -3 99 c-1 55 0 106 2 113 3 7
17 13 31 13 l25 0 0 -116z m-210 -54 c0 -57 -1 -60 -25 -60 -24 0 -25 3 -25
60 0 57 1 60 25 60 24 0 25 -3 25 -60z"/>
</g>
</svg>
