<?xml version="1.0" standalone="no"?>
<!DOCTYPE svg PUBLIC "-//W3C//DTD SVG 20010904//EN"
 "http://www.w3.org/TR/2001/REC-SVG-20010904/DTD/svg10.dtd">
<svg version="1.0" xmlns="http://www.w3.org/2000/svg"
 width="192.000000pt" height="192.000000pt" viewBox="0 0 192.000000 192.000000"
 preserveAspectRatio="xMidYMid meet">
<metadata>
Created by potrace 1.16, written by Peter Selinger 2001-2019
</metadata>
<g transform="translate(0.000000,192.000000) scale(0.100000,-0.100000)"
fill="#000000" stroke="none">
811 c445 -92 729 -532 635 -987 -62 -301 -295 -546 -601 -630 -91 -26 -329
-26 -420 0 -291 80 -516 305 -596 596 -26 91 -26 329 0 420 120 433 542 692
982 601z"/>
<path d="M890 1370 c-118 -25 -230 -115 -284 -229 -29 -61 -31 -74 -31 -176 0
-104 2 -114 32 -176 129 -261 460 -316 658 -108 77 81 108 151 113 260 5 94
-6 119 -53 119 -30 0 -60 -41 -52 -71 7 -28 -11 -125 -29 -162 -26 -49 -86
-108 -138 -135 -43 -22 -64 -26 -131 -26 -96 0 -158 27 -219 94 -56 62 -78
120 -79 204 -1 171 117 292 297 303 45 3 87 10 94 16 16 12 15 48 -1 71 -16
21 -109 30 -177 16z"/>
<path d="M1106 1318 c-9 -12 -16 -29 -16 -37 0 -7 44 -58 97 -112 101 -103
125 -115 156 -81 34 37 22 63 -76 160 -100 100 -131 113 -161 70z"/>
<path d="M817 1073 c-4 -3 -7 -51 -7 -105 l0 -99 28 3 c27 3 27 4 30 81 l3 78
62 -3 62 -3 3 -77 c3 -75 4 -78 27 -78 25 0 25 1 25 89 0 115 -6 121 -136 121
-50 0 -94 -3 -97 -7z"/>
<path d="M1097 1074 c-4 -4 -7 -52 -7 -106 l0 -99 28 3 27 3 0 100 c0 93 -1
100 -20 103 -12 2 -24 0 -28 -4z"/>
<path d="M910 925 c0 -52 1 -55 25 -55 24 0 25 3 25 55 0 52 -1 55 -25 55 -24
0 -25 -3 -25 -55z"/>
</g>
</svg>
