<?xml version="1.0" standalone="no"?>
<!DOCTYPE svg PUBLIC "-//W3C//DTD SVG 20010904//EN"
 "http://www.w3.org/TR/2001/REC-SVG-20010904/DTD/svg10.dtd">
<svg version="1.0" xmlns="http://www.w3.org/2000/svg"
 width="192.000000pt" height="192.000000pt" viewBox="0 0 192.000000 192.000000"
 preserveAspectRatio="xMidYMid meet">
<metadata>
Created by potrace 1.16, written by Peter Selinger 2001-2019
</metadata>
<g transform="translate(0.000000,192.000000) scale(0.100000,-0.100000)"
fill="#000000" stroke="none">
811 c445 -92 729 -532 635 -987 -62 -301 -295 -546 -601 -630 -91 -26 -329
-26 -420 0 -291 80 -516 305 -596 596 -26 91 -26 329 0 420 120 433 542 692
982 601z"/>
<path d="M705 1227 c-49 -28 -97 -104 -127 -202 -28 -92 -31 -253 -4 -303 24
-47 59 -58 103 -32 26 15 52 20 108 20 77 0 110 15 98 45 -6 17 -28 24 -93 27
-37 3 -45 6 -45 23 0 19 8 20 192 23 l193 2 60 -64 c73 -76 111 -98 150 -84
39 13 53 50 58 153 5 104 -13 196 -54 278 -68 135 -159 170 -277 107 -70 -37
-106 -37 -182 0 -72 36 -125 38 -180 7z m95 -158 c0 -12 7 -19 18 -19 24 0 42
-19 35 -36 -3 -8 -15 -14 -28 -14 -17 0 -24 -7 -29 -31 -7 -39 -39 -37 -44 3
-3 21 -9 27 -30 30 -38 4 -38 42 1 46 21 3 27 9 27 27 0 13 6 25 13 28 17 6
37 -12 37 -34z m344 5 c27 -26 12 -58 -25 -52 -27 3 -37 32 -19 53 16 19 25
19 44 -1z m99 -66 c13 -20 -6 -48 -34 -48 -22 0 -35 36 -18 56 15 18 38 15 52
-8z"/>
<path d="M914 755 c-11 -28 4 -45 39 -45 38 0 63 21 53 45 -8 21 -84 21 -92 0z"/>
</g>
</svg>
