<?xml version="1.0" standalone="no"?>
<!DOCTYPE svg PUBLIC "-//W3C//DTD SVG 20010904//EN"
 "http://www.w3.org/TR/2001/REC-SVG-20010904/DTD/svg10.dtd">
<svg version="1.0" xmlns="http://www.w3.org/2000/svg"
 width="192.000000pt" height="192.000000pt" viewBox="0 0 192.000000 192.000000"
 preserveAspectRatio="xMidYMid meet">
<metadata>
Created by potrace 1.16, written by Peter Selinger 2001-2019
</metadata>
<g transform="translate(0.000000,192.000000) scale(0.100000,-0.100000)"
fill="#000000" stroke="none">
811 c445 -92 729 -532 635 -987 -62 -301 -295 -546 -601 -630 -91 -26 -329
-26 -420 0 -291 80 -516 305 -596 596 -26 91 -26 329 0 420 120 433 542 692
982 601z"/>
<path d="M722 1223 c-85 -42 -152 -200 -152 -363 0 -90 14 -146 40 -160 43
-23 69 -12 151 66 l79 75 144 -3 144 -3 70 -72 c61 -62 76 -73 105 -73 49 0
67 26 80 113 18 127 -28 302 -102 380 -60 65 -124 73 -216 27 -75 -37 -96 -37
-170 0 -68 34 -123 38 -173 13z m438 -123 c11 -20 -13 -60 -35 -60 -15 0 -45
27 -45 41 0 5 9 18 20 29 21 21 45 18 60 -10z m-362 -32 c3 -22 9 -28 27 -28
13 0 27 -5 30 -10 9 -15 -14 -40 -36 -40 -12 0 -19 -7 -19 -19 0 -28 -26 -47
-45 -31 -8 7 -15 21 -15 31 0 11 -9 19 -22 21 -15 2 -24 11 -26 25 -3 17 2 22
25 25 22 2 29 9 31 31 3 23 8 28 25 25 16 -2 23 -11 25 -30z m462 -23 c26 -32
-13 -81 -47 -59 -35 22 -23 74 17 74 10 0 23 -7 30 -15z m-103 -62 c13 -19 12
-24 -6 -42 -37 -37 -84 6 -54 48 18 26 40 24 60 -6z"/>
</g>
</svg>
