<?xml version="1.0" standalone="no"?>
<!DOCTYPE svg PUBLIC "-//W3C//DTD SVG 20010904//EN"
 "http://www.w3.org/TR/2001/REC-SVG-20010904/DTD/svg10.dtd">
<svg version="1.0" xmlns="http://www.w3.org/2000/svg"
 width="192.000000pt" height="192.000000pt" viewBox="0 0 192.000000 192.000000"
 preserveAspectRatio="xMidYMid meet">
<metadata>
Created by potrace 1.16, written by Peter Selinger 2001-2019
</metadata>
<g transform="translate(0.000000,192.000000) scale(0.100000,-0.100000)"
fill="#000000" stroke="none">
811 c445 -92 729 -532 635 -987 -62 -301 -295 -546 -601 -630 -91 -26 -329
-26 -420 0 -291 80 -516 305 -596 596 -26 91 -26 329 0 420 120 433 542 692
982 601z"/>
<path d="M622 1358 c-9 -9 -12 -77 -12 -244 0 -263 1 -266 68 -246 20 7 52 21
70 32 l32 20 0 131 c0 106 3 130 14 126 7 -3 51 -22 98 -42 l85 -37 94 41 c52
22 97 41 102 41 4 0 7 -16 7 -35 0 -48 29 -54 102 -22 53 24 55 26 61 72 10
68 9 120 -3 149 -9 25 -13 26 -83 26 -65 0 -87 -6 -178 -43 l-103 -44 -100 44
c-86 38 -108 43 -170 43 -43 0 -77 -5 -84 -12z"/>
<path d="M1239 1054 l-55 -25 -11 -95 c-8 -82 -14 -99 -40 -132 -44 -55 -88
-77 -153 -77 -66 0 -139 37 -167 85 -9 17 -25 32 -35 36 -22 7 -116 -34 -128
-56 -18 -33 46 -124 123 -175 154 -101 351 -76 476 60 63 70 89 137 97 259 6
80 4 99 -10 121 -20 31 -27 31 -97 -1z"/>
</g>
</svg>
