<?xml version="1.0" standalone="no"?>
<!DOCTYPE svg PUBLIC "-//W3C//DTD SVG 20010904//EN"
 "http://www.w3.org/TR/2001/REC-SVG-20010904/DTD/svg10.dtd">
<svg version="1.0" xmlns="http://www.w3.org/2000/svg"
 width="192.000000pt" height="192.000000pt" viewBox="0 0 192.000000 192.000000"
 preserveAspectRatio="xMidYMid meet">
<metadata>
Created by potrace 1.16, written by Peter Selinger 2001-2019
</metadata>
<g transform="translate(0.000000,192.000000) scale(0.100000,-0.100000)"
fill="#000000" stroke="none">
811 c445 -92 729 -532 635 -987 -62 -301 -295 -546 -601 -630 -91 -26 -329
-26 -420 0 -291 80 -516 305 -596 596 -26 91 -26 329 0 420 120 433 542 692
982 601z"/>
<path d="M869 1356 c-193 -52 -325 -257 -292 -451 24 -137 108 -252 228 -311
55 -27 69 -29 170 -29 104 0 114 2 175 32 336 165 298 651 -59 757 -64 19
-157 20 -222 2z m234 -56 c113 -42 145 -86 145 -195 0 -71 -12 -108 -56 -170
-38 -55 -49 -54 -26 0 44 105 4 257 -89 341 -55 49 -51 53 26 24z m-178 -142
l40 -11 -44 -8 c-57 -11 -119 -48 -165 -100 -55 -61 -79 -121 -80 -202 l-1
-69 -25 54 c-21 44 -25 68 -25 142 l0 88 47 42 c72 66 166 90 253 64z m112
-75 c133 -63 72 -267 -74 -250 -134 15 -161 199 -38 253 41 18 70 17 112 -3z
m-69 -336 c34 -15 68 -21 123 -21 66 -1 84 3 138 31 33 17 61 28 61 23 0 -20
-108 -117 -153 -139 -37 -18 -57 -22 -89 -17 -84 14 -160 73 -197 156 -31 69
-25 76 25 30 25 -23 67 -51 92 -63z"/>
</g>
</svg>
