<?xml version="1.0" standalone="no"?>
<!DOCTYPE svg PUBLIC "-//W3C//DTD SVG 20010904//EN"
 "http://www.w3.org/TR/2001/REC-SVG-20010904/DTD/svg10.dtd">
<svg version="1.0" xmlns="http://www.w3.org/2000/svg"
 width="192.000000pt" height="192.000000pt" viewBox="0 0 192.000000 192.000000"
 preserveAspectRatio="xMidYMid meet">
<metadata>
Created by potrace 1.16, written by Peter Selinger 2001-2019
</metadata>
<g transform="translate(0.000000,192.000000) scale(0.100000,-0.100000)"
fill="#000000" stroke="none">
811 c445 -92 729 -532 635 -987 -62 -301 -295 -546 -601 -630 -91 -26 -329
-26 -420 0 -291 80 -516 305 -596 596 -26 91 -26 329 0 420 120 433 542 692
982 601z"/>
<path d="M831 1420 c-26 -29 -55 -65 -65 -80 -15 -26 -15 -30 0 -44 13 -13 45
-16 202 -16 209 0 232 6 232 60 0 50 -28 60 -162 60 l-118 0 0 25 c0 14 -8 29
-21 35 -18 10 -26 5 -68 -40z"/>
<path d="M937 1002 c-134 -135 -177 -184 -177 -203 0 -33 17 -49 54 -49 25 0
56 26 203 173 96 94 176 182 179 194 9 35 -12 63 -49 63 -29 0 -53 -20 -210
-178z"/>
<path d="M775 625 c-14 -13 -25 -29 -25 -35 0 -6 11 -22 25 -35 23 -24 30 -25
145 -25 120 0 120 0 120 -24 0 -29 24 -51 43 -39 23 13 117 130 117 145 0 34
-22 38 -212 38 -187 0 -189 0 -213 -25z"/>
</g>
</svg>
