<?xml version="1.0" standalone="no"?>
<!DOCTYPE svg PUBLIC "-//W3C//DTD SVG 20010904//EN"
 "http://www.w3.org/TR/2001/REC-SVG-20010904/DTD/svg10.dtd">
<svg version="1.0" xmlns="http://www.w3.org/2000/svg"
 width="192.000000pt" height="192.000000pt" viewBox="0 0 192.000000 192.000000"
 preserveAspectRatio="xMidYMid meet">
<metadata>
Created by potrace 1.16, written by Peter Selinger 2001-2019
</metadata>
<g transform="translate(0.000000,192.000000) scale(0.100000,-0.100000)"
fill="#000000" stroke="none">
811 c445 -92 729 -532 635 -987 -62 -301 -295 -546 -601 -630 -91 -26 -329
-26 -420 0 -291 80 -516 305 -596 596 -26 91 -26 329 0 420 120 433 542 692
982 601z"/>
<path d="M928 1360 c-28 -8 -310 -217 -340 -252 -16 -18 -18 -44 -18 -215 0
-173 2 -198 20 -233 44 -86 94 -100 365 -100 271 0 321 14 365 100 18 35 20
60 20 233 0 139 -3 198 -12 209 -23 29 -318 258 -333 258 -7 0 -19 2 -27 4 -7
2 -25 1 -40 -4z"/>
</g>
</svg>
