<?xml version="1.0" standalone="no"?>
<!DOCTYPE svg PUBLIC "-//W3C//DTD SVG 20010904//EN"
 "http://www.w3.org/TR/2001/REC-SVG-20010904/DTD/svg10.dtd">
<svg version="1.0" xmlns="http://www.w3.org/2000/svg"
 width="192.000000pt" height="192.000000pt" viewBox="0 0 192.000000 192.000000"
 preserveAspectRatio="xMidYMid meet">
<metadata>
Created by potrace 1.16, written by Peter Selinger 2001-2019
</metadata>
<g transform="translate(0.000000,192.000000) scale(0.100000,-0.100000)"
fill="#000000" stroke="none">
811 c445 -92 729 -532 635 -987 -62 -301 -295 -546 -601 -630 -91 -26 -329
-26 -420 0 -291 80 -516 305 -596 596 -26 91 -26 329 0 420 120 433 542 692
982 601z"/>
<path d="M825 1310 c-66 -38 -128 -79 -137 -91 -16 -19 -18 -48 -18 -269 0
-223 2 -248 18 -262 29 -25 228 -138 243 -138 28 0 39 24 39 87 0 42 4 63 12
63 22 0 278 151 288 170 5 10 10 90 10 178 0 188 13 166 -160 266 -74 42 -126
66 -145 65 -18 0 -78 -28 -150 -69z m210 -177 l45 -28 0 -62 0 -63 -47 -30
c-27 -16 -52 -29 -58 -29 -5 0 -30 13 -55 28 l-45 27 -3 65 -3 65 48 27 c26
15 53 27 60 27 7 0 33 -12 58 -27z"/>
</g>
</svg>
