<?xml version="1.0" standalone="no"?>
<!DOCTYPE svg PUBLIC "-//W3C//DTD SVG 20010904//EN"
 "http://www.w3.org/TR/2001/REC-SVG-20010904/DTD/svg10.dtd">
<svg version="1.0" xmlns="http://www.w3.org/2000/svg"
 width="192.000000pt" height="192.000000pt" viewBox="0 0 192.000000 192.000000"
 preserveAspectRatio="xMidYMid meet">
<metadata>
Created by potrace 1.16, written by Peter Selinger 2001-2019
</metadata>
<g transform="translate(0.000000,192.000000) scale(0.100000,-0.100000)"
fill="#000000" stroke="none">
811 c445 -92 729 -532 635 -987 -62 -301 -295 -546 -601 -630 -91 -26 -329
-26 -420 0 -291 80 -516 305 -596 596 -26 91 -26 329 0 420 120 433 542 692
982 601z"/>
<path d="M1083 1158 l-213 -212 -113 112 c-63 62 -118 112 -123 112 -5 0 -20
-7 -32 -16 -25 -17 -29 -56 -7 -74 13 -10 15 -51 15 -251 0 -256 3 -269 54
-269 43 0 46 14 46 214 l0 189 74 -71 c41 -40 82 -72 91 -72 9 0 50 32 91 72
l74 71 0 -186 c0 -200 4 -217 54 -217 44 0 46 11 46 265 l0 240 115 115 c117
116 134 147 103 178 -34 34 -58 16 -275 -200z"/>
<path d="M1206 1104 c-14 -13 -16 -51 -16 -263 0 -227 2 -249 18 -264 26 -23
58 -21 76 5 13 19 16 61 16 258 0 197 -3 239 -16 258 -18 26 -56 29 -78 6z"/>
</g>
</svg>
