<?xml version="1.0" standalone="no"?>
<!DOCTYPE svg PUBLIC "-//W3C//DTD SVG 20010904//EN"
 "http://www.w3.org/TR/2001/REC-SVG-20010904/DTD/svg10.dtd">
<svg version="1.0" xmlns="http://www.w3.org/2000/svg"
 width="192.000000pt" height="192.000000pt" viewBox="0 0 192.000000 192.000000"
 preserveAspectRatio="xMidYMid meet">
<metadata>
Created by potrace 1.16, written by Peter Selinger 2001-2019
</metadata>
<g transform="translate(0.000000,192.000000) scale(0.100000,-0.100000)"
fill="#000000" stroke="none">
811 c445 -92 729 -532 635 -987 -62 -301 -295 -546 -601 -630 -91 -26 -329
-26 -420 0 -291 80 -516 305 -596 596 -26 91 -26 329 0 420 120 433 542 692
982 601z"/>
<path d="M915 1361 c-74 -18 -123 -61 -147 -127 -11 -31 -16 -34 -53 -34 -56
-1 -121 -32 -145 -72 -26 -43 -25 -79 5 -289 26 -181 39 -216 88 -253 27 -20
40 -21 292 -21 357 0 341 -12 386 295 32 225 31 245 -19 294 -31 29 -79 46
-130 46 -28 0 -34 5 -48 40 -21 52 -83 105 -139 119 -48 12 -47 12 -90 2z
m135 -118 l35 -38 -119 -3 c-65 -1 -121 -1 -123 2 -9 9 20 48 50 67 51 32 112
21 157 -28z m-256 -279 c10 -26 7 -79 -6 -92 -7 -7 -24 -12 -39 -12 -24 0 -28
-5 -31 -32 -2 -21 -8 -33 -18 -33 -12 0 -16 17 -18 79 -2 44 -1 85 2 93 8 20
102 18 110 -3z m144 -76 l-3 -93 -50 0 -50 0 -3 93 -3 92 56 0 56 0 -3 -92z
m150 64 c4 -24 -29 -45 -36 -24 -2 7 -10 12 -18 12 -10 0 -14 -14 -14 -55 0
-55 6 -65 27 -44 18 18 45 2 41 -23 -3 -20 -10 -23 -52 -26 -32 -2 -52 1 -57
10 -11 16 -12 162 -2 172 4 4 30 6 58 4 43 -3 50 -6 53 -26z m147 -67 l0 -90
-55 0 -55 0 -3 79 c-4 106 -3 108 60 104 l53 -3 0 -90z"/>
<path d="M720 925 c0 -8 7 -15 15 -15 8 0 15 7 15 15 0 8 -7 15 -15 15 -8 0
-15 -7 -15 -15z"/>
<path d="M870 885 c0 -42 3 -55 15 -55 12 0 15 13 15 55 0 42 -3 55 -15 55
-12 0 -15 -13 -15 -55z"/>
<path d="M1164 926 c-9 -24 0 -89 14 -94 8 -3 12 12 12 52 0 53 -14 74 -26 42z"/>
</g>
</svg>
