<?xml version="1.0" standalone="no"?>
<!DOCTYPE svg PUBLIC "-//W3C//DTD SVG 20010904//EN"
 "http://www.w3.org/TR/2001/REC-SVG-20010904/DTD/svg10.dtd">
<svg version="1.0" xmlns="http://www.w3.org/2000/svg"
 width="192.000000pt" height="192.000000pt" viewBox="0 0 192.000000 192.000000"
 preserveAspectRatio="xMidYMid meet">
<metadata>
Created by potrace 1.16, written by Peter Selinger 2001-2019
</metadata>
<g transform="translate(0.000000,192.000000) scale(0.100000,-0.100000)"
fill="#000000" stroke="none">
811 c445 -92 729 -532 635 -987 -62 -301 -295 -546 -601 -630 -91 -26 -329
-26 -420 0 -291 80 -516 305 -596 596 -26 91 -26 329 0 420 120 433 542 692
982 601z"/>
<path d="M511 1106 c-8 -9 -11 -59 -9 -152 3 -139 3 -139 27 -142 32 -5 51 21
51 70 0 38 0 38 40 38 60 0 80 25 80 101 0 93 -6 99 -99 99 -55 0 -82 -4 -90
-14z m109 -86 c0 -13 -7 -20 -20 -20 -13 0 -20 7 -20 20 0 13 7 20 20 20 13 0
20 -7 20 -20z"/>
<path d="M751 1106 c-8 -9 -11 -59 -9 -152 l3 -139 85 -3 c71 -2 87 0 97 14
16 21 18 230 3 268 -9 25 -13 26 -89 26 -55 0 -82 -4 -90 -14z m109 -146 c0
-73 -2 -80 -20 -80 -18 0 -20 7 -20 80 0 73 2 80 20 80 18 0 20 -7 20 -80z"/>
<path d="M991 1107 c-8 -10 -11 -58 -9 -153 l3 -139 90 0 90 0 0 45 c0 35 -4
45 -18 48 -10 2 -27 -4 -37 -13 -10 -9 -27 -15 -37 -13 -15 3 -18 15 -21 81
-3 75 -2 77 20 77 13 0 31 -7 42 -15 32 -25 58 -2 54 48 l-3 42 -81 3 c-61 2
-84 -1 -93 -11z"/>
<path d="M1231 1107 c-8 -10 -11 -58 -9 -153 l3 -139 90 0 90 0 0 150 0 150
-81 3 c-61 2 -84 -1 -93 -11z m109 -148 c0 -78 -1 -80 -22 -77 -21 3 -23 9
-26 81 -3 77 -3 77 23 77 25 0 25 -1 25 -81z"/>
</g>
</svg>
