<?xml version="1.0" standalone="no"?>
<!DOCTYPE svg PUBLIC "-//W3C//DTD SVG 20010904//EN"
 "http://www.w3.org/TR/2001/REC-SVG-20010904/DTD/svg10.dtd">
<svg version="1.0" xmlns="http://www.w3.org/2000/svg"
 width="192.000000pt" height="192.000000pt" viewBox="0 0 192.000000 192.000000"
 preserveAspectRatio="xMidYMid meet">
<metadata>
Created by potrace 1.16, written by Peter Selinger 2001-2019
</metadata>
<g transform="translate(0.000000,192.000000) scale(0.100000,-0.100000)"
fill="#000000" stroke="none">
811 c445 -92 729 -532 635 -987 -62 -301 -295 -546 -601 -630 -91 -26 -329
-26 -420 0 -291 80 -516 305 -596 596 -26 91 -26 329 0 420 120 433 542 692
982 601z"/>
<path d="M897 1370 c-134 -34 -234 -145 -257 -286 -16 -96 -13 -428 4 -469 25
-58 96 -81 156 -50 36 19 46 36 55 96 l7 47 36 -10 c20 -6 65 -8 101 -6 125 7
231 79 288 196 24 50 28 69 28 147 0 71 -5 100 -22 137 -30 65 -105 143 -168
173 -59 29 -165 41 -228 25z m128 -224 c40 -17 75 -68 75 -111 0 -42 -33 -92
-74 -111 -45 -22 -100 -11 -138 26 -52 52 -32 166 35 195 41 18 60 18 102 1z"/>
</g>
</svg>
