<?xml version="1.0" standalone="no"?>
<!DOCTYPE svg PUBLIC "-//W3C//DTD SVG 20010904//EN"
 "http://www.w3.org/TR/2001/REC-SVG-20010904/DTD/svg10.dtd">
<svg version="1.0" xmlns="http://www.w3.org/2000/svg"
 width="192.000000pt" height="192.000000pt" viewBox="0 0 192.000000 192.000000"
 preserveAspectRatio="xMidYMid meet">
<metadata>
Created by potrace 1.16, written by Peter Selinger 2001-2019
</metadata>
<g transform="translate(0.000000,192.000000) scale(0.100000,-0.100000)"
fill="#000000" stroke="none">
811 c445 -92 729 -532 635 -987 -62 -301 -295 -546 -601 -630 -91 -26 -329
-26 -420 0 -291 80 -516 305 -596 596 -26 91 -26 329 0 420 120 433 542 692
982 601z"/>
<path d="M745 1365 c-31 -30 -32 -73 -4 -109 20 -26 22 -26 148 -26 120 0 129
1 149 23 32 34 30 89 -4 116 -24 19 -40 21 -146 21 -113 0 -120 -1 -143 -25z"/>
<path d="M1103 1368 c-29 -32 -34 -53 -22 -88 16 -44 64 -63 114 -44 23 9 48
62 41 90 -15 60 -94 85 -133 42z"/>
<path d="M741 1184 c-64 -81 42 -182 114 -109 51 51 17 135 -55 135 -30 0 -43
-6 -59 -26z"/>
<path d="M780 1032 c-60 -18 -79 -94 -35 -137 71 -72 178 28 115 107 -20 26
-53 38 -80 30z"/>
<path d="M941 1024 c-51 -21 -59 -92 -15 -131 34 -31 70 -29 105 6 34 34 37
68 9 103 -24 31 -59 39 -99 22z"/>
<path d="M1123 1025 c-40 -17 -53 -53 -53 -149 0 -92 13 -141 40 -156 30 -16
76 -12 101 9 23 18 24 25 24 139 0 102 -3 123 -18 140 -23 26 -58 32 -94 17z"/>
<path d="M780 693 c-75 -27 -81 -123 -10 -153 79 -33 150 70 88 127 -26 24
-56 34 -78 26z"/>
<path d="M945 689 c-33 -19 -45 -41 -45 -80 0 -43 35 -79 77 -79 32 0 83 51
83 84 0 52 -71 99 -115 75z"/>
<path d="M1119 685 c-55 -30 -59 -103 -7 -139 34 -24 66 -19 99 13 35 35 37
71 7 105 -29 32 -66 40 -99 21z"/>
</g>
</svg>
