<?xml version="1.0" standalone="no"?>
<!DOCTYPE svg PUBLIC "-//W3C//DTD SVG 20010904//EN"
 "http://www.w3.org/TR/2001/REC-SVG-20010904/DTD/svg10.dtd">
<svg version="1.0" xmlns="http://www.w3.org/2000/svg"
 width="192.000000pt" height="192.000000pt" viewBox="0 0 192.000000 192.000000"
 preserveAspectRatio="xMidYMid meet">
<metadata>
Created by potrace 1.16, written by Peter Selinger 2001-2019
</metadata>
<g transform="translate(0.000000,192.000000) scale(0.100000,-0.100000)"
fill="#000000" stroke="none">
811 c445 -92 729 -532 635 -987 -62 -301 -295 -546 -601 -630 -91 -26 -329
-26 -420 0 -291 80 -516 305 -596 596 -26 91 -26 329 0 420 120 433 542 692
982 601z"/>
<path d="M916 1355 c-60 -21 -89 -46 -116 -102 -25 -50 -25 -50 -82 -56 -93
-8 -148 -62 -148 -146 0 -77 50 -384 68 -414 9 -17 30 -39 45 -51 27 -20 42
-21 283 -24 245 -3 256 -2 293 19 62 35 76 71 107 293 l28 199 -23 43 c-27 51
-85 84 -148 84 -37 0 -41 3 -58 40 -33 73 -118 131 -190 130 -11 -1 -38 -7
-59 -15z m124 -87 c18 -13 40 -33 48 -45 l14 -23 -121 0 c-66 0 -121 3 -121 8
0 18 35 55 64 68 45 19 79 17 116 -8z m0 -307 c5 -11 10 -58 10 -105 0 -85 0
-86 -25 -86 -24 0 -25 2 -25 73 0 43 -5 78 -12 85 -7 7 -39 12 -75 12 l-63 0
0 -85 c0 -84 0 -85 -25 -85 l-25 0 0 105 0 105 115 0 c103 0 115 -2 125 -19z
m110 -86 l0 -105 -25 0 -25 0 0 105 0 105 25 0 25 0 0 -105z m-200 -50 c0 -52
-1 -55 -25 -55 -24 0 -25 3 -25 55 0 52 1 55 25 55 24 0 25 -3 25 -55z"/>
</g>
</svg>
