<?xml version="1.0" standalone="no"?>
<!DOCTYPE svg PUBLIC "-//W3C//DTD SVG 20010904//EN"
 "http://www.w3.org/TR/2001/REC-SVG-20010904/DTD/svg10.dtd">
<svg version="1.0" xmlns="http://www.w3.org/2000/svg"
 width="192.000000pt" height="192.000000pt" viewBox="0 0 192.000000 192.000000"
 preserveAspectRatio="xMidYMid meet">
<metadata>
Created by potrace 1.16, written by Peter Selinger 2001-2019
</metadata>
<g transform="translate(0.000000,192.000000) scale(0.100000,-0.100000)"
fill="#000000" stroke="none">
811 c445 -92 729 -532 635 -987 -62 -301 -295 -546 -601 -630 -91 -26 -329
-26 -420 0 -291 80 -516 305 -596 596 -26 91 -26 329 0 420 120 433 542 692
982 601z"/>
<path d="M1002 1368 c-14 -14 -16 -106 -3 -126 5 -8 17 -12 27 -10 16 3 20 14
22 67 2 45 -1 67 -10 72 -17 12 -22 11 -36 -3z"/>
<path d="M1106 1291 c-30 -31 -47 -55 -44 -67 6 -33 38 -28 80 13 52 50 63 70
47 89 -19 23 -32 17 -83 -35z"/>
<path d="M906 1220 c-89 -27 -130 -138 -79 -218 55 -87 203 -80 247 12 37 78
8 162 -67 196 -46 21 -58 22 -101 10z"/>
<path d="M1104 1185 c-13 -34 3 -45 66 -45 64 0 85 15 60 45 -17 21 -118 21
-126 0z"/>
<path d="M890 919 c-101 -20 -187 -107 -211 -213 -15 -67 -1 -109 45 -137 27
-17 53 -19 219 -19 206 0 244 8 266 56 18 40 13 105 -13 159 -52 113 -182 179
-306 154z"/>
</g>
</svg>
