<?xml version="1.0" standalone="no"?>
<!DOCTYPE svg PUBLIC "-//W3C//DTD SVG 20010904//EN"
 "http://www.w3.org/TR/2001/REC-SVG-20010904/DTD/svg10.dtd">
<svg version="1.0" xmlns="http://www.w3.org/2000/svg"
 width="192.000000pt" height="192.000000pt" viewBox="0 0 192.000000 192.000000"
 preserveAspectRatio="xMidYMid meet">
<metadata>
Created by potrace 1.16, written by Peter Selinger 2001-2019
</metadata>
<g transform="translate(0.000000,192.000000) scale(0.100000,-0.100000)"
fill="#000000" stroke="none">
811 c445 -92 729 -532 635 -987 -62 -301 -295 -546 -601 -630 -91 -26 -329
-26 -420 0 -291 80 -516 305 -596 596 -26 91 -26 329 0 420 120 433 542 692
982 601z"/>
<path d="M557 1263 c-4 -3 -7 -52 -7 -107 0 -111 9 -134 60 -161 58 -30 153
-11 185 38 12 19 15 46 13 128 l-3 104 -40 0 -40 0 -5 -94 c-4 -75 -9 -96 -22
-105 -13 -8 -23 -8 -35 0 -14 9 -19 27 -21 85 -3 111 -7 119 -46 119 -18 0
-36 -3 -39 -7z"/>
<path d="M854 1257 c-2 -7 -3 -69 -2 -138 l3 -124 35 0 35 0 5 60 5 60 43 -63
c43 -62 44 -63 85 -60 l42 3 0 135 0 135 -31 3 c-40 4 -52 -12 -56 -73 l-3
-50 -38 63 c-37 59 -40 62 -78 62 -23 0 -42 -5 -45 -13z"/>
<path d="M1154 1257 c-2 -7 -3 -69 -2 -138 l3 -124 101 -3 c86 -2 103 0 108
13 3 9 1 25 -4 36 -9 15 -22 19 -65 19 -42 0 -55 3 -55 15 0 11 11 15 39 15
37 0 71 19 71 40 0 21 -34 40 -71 40 -28 0 -39 4 -39 15 0 12 13 15 59 15 51
0 61 3 66 20 13 40 -10 50 -112 50 -68 0 -95 -4 -99 -13z"/>
<path d="M880 949 c-66 -20 -100 -69 -100 -144 0 -58 22 -97 70 -124 95 -53
213 2 227 106 7 53 -25 126 -64 146 -41 22 -92 27 -133 16z m84 -85 c19 -18
22 -94 4 -112 -17 -17 -58 -15 -80 5 -22 20 -24 71 -2 101 18 26 56 29 78 6z"/>
<path d="M567 944 c-4 -4 -7 -68 -7 -141 l0 -134 43 3 c42 3 42 3 45 46 l3 42
50 0 49 0 0 35 0 35 -50 0 c-47 0 -50 2 -50 25 0 24 3 25 61 25 l60 0 -3 33
-3 32 -95 3 c-53 1 -99 0 -103 -4z"/>
<path d="M1105 928 c-3 -13 -4 -75 -3 -138 l3 -115 42 -3 42 -3 3 63 3 63 40
-63 40 -63 45 3 45 3 3 115 c4 153 1 162 -46 158 l-37 -3 -3 -64 -3 -65 -42
65 c-40 60 -45 64 -84 67 -37 3 -43 0 -48 -20z"/>
</g>
</svg>
