<?xml version="1.0" standalone="no"?>
<!DOCTYPE svg PUBLIC "-//W3C//DTD SVG 20010904//EN"
 "http://www.w3.org/TR/2001/REC-SVG-20010904/DTD/svg10.dtd">
<svg version="1.0" xmlns="http://www.w3.org/2000/svg"
 width="192.000000pt" height="192.000000pt" viewBox="0 0 192.000000 192.000000"
 preserveAspectRatio="xMidYMid meet">
<metadata>
Created by potrace 1.16, written by Peter Selinger 2001-2019
</metadata>
<g transform="translate(0.000000,192.000000) scale(0.100000,-0.100000)"
fill="#000000" stroke="none">
811 c445 -92 729 -532 635 -987 -62 -301 -295 -546 -601 -630 -91 -26 -329
-26 -420 0 -291 80 -516 305 -596 596 -26 91 -26 329 0 420 120 433 542 692
982 601z"/>
<path d="M877 1310 c-112 -29 -218 -117 -270 -228 -30 -63 -32 -74 -32 -177 0
-98 3 -116 26 -165 52 -110 113 -155 152 -112 25 28 21 54 -18 112 -57 84 -69
161 -40 257 47 157 220 243 381 189 139 -46 221 -204 185 -353 -7 -26 -28 -72
-48 -101 -31 -45 -35 -57 -27 -80 5 -15 21 -31 37 -36 23 -8 31 -6 58 19 40
39 86 136 100 208 22 124 -28 274 -121 361 -76 71 -162 107 -263 112 -45 2
-99 -1 -120 -6z"/>
<path d="M859 1122 c-128 -66 -172 -235 -94 -354 30 -45 58 -55 90 -34 31 20
32 54 5 98 -42 69 -16 153 56 189 57 27 105 20 149 -24 47 -47 53 -94 20 -162
-28 -60 -24 -84 16 -106 47 -25 110 62 117 162 14 187 -191 319 -359 231z"/>
</g>
</svg>
