<?xml version="1.0" standalone="no"?>
<!DOCTYPE svg PUBLIC "-//W3C//DTD SVG 20010904//EN"
 "http://www.w3.org/TR/2001/REC-SVG-20010904/DTD/svg10.dtd">
<svg version="1.0" xmlns="http://www.w3.org/2000/svg"
 width="192.000000pt" height="192.000000pt" viewBox="0 0 192.000000 192.000000"
 preserveAspectRatio="xMidYMid meet">
<metadata>
Created by potrace 1.16, written by Peter Selinger 2001-2019
</metadata>
<g transform="translate(0.000000,192.000000) scale(0.100000,-0.100000)"
fill="#000000" stroke="none">
811 c445 -92 729 -532 635 -987 -62 -301 -295 -546 -601 -630 -91 -26 -329
-26 -420 0 -291 80 -516 305 -596 596 -26 91 -26 329 0 420 120 433 542 692
982 601z"/>
<path d="M675 1283 c-44 -23 -65 -43 -88 -88 -19 -35 -22 -61 -25 -207 -5
-203 7 -256 67 -311 22 -20 57 -40 78 -46 51 -15 486 -14 538 0 52 15 119 82
134 134 14 50 14 348 1 397 -14 48 -53 94 -101 118 -35 18 -59 20 -306 20
-225 -1 -273 -3 -298 -17z m538 -106 c57 -37 67 -69 67 -212 0 -111 -3 -135
-20 -162 -39 -65 -52 -68 -280 -68 -187 0 -208 2 -238 20 -54 33 -72 84 -72
208 0 116 11 159 51 196 38 35 74 40 274 38 165 -2 195 -4 218 -20z"/>
<path d="M761 1114 l-31 -26 0 -123 0 -123 31 -26 c30 -26 31 -26 219 -26 185
0 189 0 217 24 28 24 28 25 28 151 0 126 0 127 -28 151 -28 24 -32 24 -217 24
-188 0 -189 0 -219 -26z m355 -68 c26 -26 34 -42 34 -70 0 -109 -119 -164
-194 -90 -73 74 -23 194 81 194 38 0 50 -5 79 -34z m-277 -60 c15 -18 3 -46
-20 -46 -22 0 -34 22 -25 45 7 19 30 19 45 1z"/>
<path d="M996 1019 c-50 -39 -22 -119 42 -119 68 0 89 100 27 128 -34 16 -38
15 -69 -9z"/>
</g>
</svg>
