<?xml version="1.0" standalone="no"?>
<!DOCTYPE svg PUBLIC "-//W3C//DTD SVG 20010904//EN"
 "http://www.w3.org/TR/2001/REC-SVG-20010904/DTD/svg10.dtd">
<svg version="1.0" xmlns="http://www.w3.org/2000/svg"
 width="192.000000pt" height="192.000000pt" viewBox="0 0 192.000000 192.000000"
 preserveAspectRatio="xMidYMid meet">
<metadata>
Created by potrace 1.16, written by Peter Selinger 2001-2019
</metadata>
<g transform="translate(0.000000,192.000000) scale(0.100000,-0.100000)"
fill="#000000" stroke="none">
811 c445 -92 729 -532 635 -987 -62 -301 -295 -546 -601 -630 -91 -26 -329
-26 -420 0 -291 80 -516 305 -596 596 -26 91 -26 329 0 420 120 433 542 692
982 601z"/>
<path d="M872 1369 c-150 -29 -278 -151 -318 -304 -49 -184 47 -384 224 -468
63 -30 74 -32 177 -32 104 0 114 2 176 32 80 39 160 121 195 197 139 304 -126
640 -454 575z m156 -271 c-3 -25 -17 -32 -37 -19 -19 12 -6 41 19 41 16 0 21
-5 18 -22z m-252 -52 c17 -12 22 -12 39 0 29 22 70 17 105 -12 30 -26 31 -28
28 -108 -3 -73 -5 -81 -23 -81 -18 0 -20 8 -23 70 -4 87 -21 111 -62 85 -10
-6 -17 -32 -20 -82 -4 -65 -7 -73 -25 -73 -18 0 -20 8 -23 72 -3 82 -17 103
-57 85 -22 -10 -24 -18 -27 -84 -3 -65 -5 -73 -23 -73 -18 0 -20 8 -23 78 -3
75 -2 79 27 107 33 33 74 39 107 16z m249 -96 c0 -98 -1 -105 -20 -105 -18 0
-20 8 -23 94 -3 107 1 124 25 119 16 -3 18 -16 18 -108z m185 95 c44 -23 61
-65 58 -137 l-3 -62 -74 -3 c-72 -3 -74 -2 -107 31 -28 28 -34 42 -34 76 0 34
6 48 34 76 38 38 77 44 126 19z"/>
<path d="M1121 991 c-12 -12 -21 -30 -21 -41 0 -28 37 -62 62 -58 12 2 30 15
41 31 l21 27 -21 28 c-25 34 -56 39 -82 13z"/>
</g>
</svg>
