<?xml version="1.0" standalone="no"?>
<!DOCTYPE svg PUBLIC "-//W3C//DTD SVG 20010904//EN"
 "http://www.w3.org/TR/2001/REC-SVG-20010904/DTD/svg10.dtd">
<svg version="1.0" xmlns="http://www.w3.org/2000/svg"
 width="192.000000pt" height="192.000000pt" viewBox="0 0 192.000000 192.000000"
 preserveAspectRatio="xMidYMid meet">
<metadata>
Created by potrace 1.16, written by Peter Selinger 2001-2019
</metadata>
<g transform="translate(0.000000,192.000000) scale(0.100000,-0.100000)"
fill="#000000" stroke="none">
811 c445 -92 729 -532 635 -987 -62 -301 -295 -546 -601 -630 -91 -26 -329
-26 -420 0 -291 80 -516 305 -596 596 -26 91 -26 329 0 420 120 433 542 692
982 601z"/>
<path d="M1270 1379 c-14 -6 -41 -8 -60 -5 -55 9 -104 -10 -144 -54 -50 -56
-48 -87 8 -122 82 -52 148 -185 145 -293 l-1 -40 -8 47 c-17 100 -41 151 -99
208 -41 41 -75 64 -125 84 -81 32 -246 75 -263 68 -21 -7 -15 -28 12 -46 33
-22 32 -28 -10 -50 -49 -26 -112 -98 -138 -154 -32 -72 -30 -189 4 -263 50
-107 126 -167 242 -191 59 -12 135 -2 189 26 24 13 28 12 45 -6 66 -74 183
-62 247 25 20 27 21 42 24 325 3 258 1 302 -14 340 -13 34 -14 49 -5 68 6 13
15 24 21 24 6 0 8 5 5 10 -8 13 -42 12 -75 -1z m-82 -172 c4 -20 -25 -34 -40
-19 -15 15 -1 44 19 40 10 -2 19 -11 21 -21z m90 1 c-4 -27 -33 -36 -42 -13
-8 22 1 35 25 35 15 0 20 -6 17 -22z m-438 -193 c26 -32 -13 -81 -47 -59 -24
15 -27 38 -8 58 20 20 39 20 55 1z m174 -7 c23 -38 -35 -78 -61 -42 -17 23
-16 29 3 49 20 19 43 16 58 -7z"/>
</g>
</svg>
