<?xml version="1.0" standalone="no"?>
<!DOCTYPE svg PUBLIC "-//W3C//DTD SVG 20010904//EN"
 "http://www.w3.org/TR/2001/REC-SVG-20010904/DTD/svg10.dtd">
<svg version="1.0" xmlns="http://www.w3.org/2000/svg"
 width="192.000000pt" height="192.000000pt" viewBox="0 0 192.000000 192.000000"
 preserveAspectRatio="xMidYMid meet">
<metadata>
Created by potrace 1.16, written by Peter Selinger 2001-2019
</metadata>
<g transform="translate(0.000000,192.000000) scale(0.100000,-0.100000)"
fill="#000000" stroke="none">
811 c445 -92 729 -532 635 -987 -62 -301 -295 -546 -601 -630 -91 -26 -329
-26 -420 0 -291 80 -516 305 -596 596 -26 91 -26 329 0 420 120 433 542 692
982 601z"/>
<path d="M835 1357 c-190 -62 -320 -269 -286 -453 20 -106 64 -175 94 -145 8
8 5 28 -12 76 -19 54 -23 80 -19 148 7 135 71 231 198 298 40 21 58 24 162 24
95 -1 119 2 123 14 3 8 -1 21 -10 30 -20 21 -194 26 -250 8z"/>
<path d="M1144 1323 c-14 -21 -76 -114 -138 -208 -93 -142 -115 -170 -133
-167 -79 11 -167 -61 -178 -145 -9 -66 -24 -93 -62 -111 -18 -9 -33 -19 -33
-22 0 -12 55 -58 89 -75 19 -9 60 -20 92 -22 150 -14 272 131 225 267 -8 24
-11 49 -7 55 4 5 62 78 128 160 148 186 166 212 159 230 -7 18 -85 75 -103 75
-7 0 -25 -17 -39 -37z"/>
<path d="M1280 1160 c-12 -8 -12 -16 -1 -57 28 -100 32 -143 20 -201 -29 -143
-133 -251 -268 -277 -59 -12 -83 -34 -63 -58 10 -11 23 -12 65 -5 245 43 395
304 310 541 -19 52 -40 71 -63 57z"/>
</g>
</svg>
