<?xml version="1.0" standalone="no"?>
<!DOCTYPE svg PUBLIC "-//W3C//DTD SVG 20010904//EN"
 "http://www.w3.org/TR/2001/REC-SVG-20010904/DTD/svg10.dtd">
<svg version="1.0" xmlns="http://www.w3.org/2000/svg"
 width="192.000000pt" height="192.000000pt" viewBox="0 0 192.000000 192.000000"
 preserveAspectRatio="xMidYMid meet">
<metadata>
Created by potrace 1.16, written by Peter Selinger 2001-2019
</metadata>
<g transform="translate(0.000000,192.000000) scale(0.100000,-0.100000)"
fill="#000000" stroke="none">
811 c445 -92 729 -532 635 -987 -62 -301 -295 -546 -601 -630 -91 -26 -329
-26 -420 0 -291 80 -516 305 -596 596 -26 91 -26 329 0 420 120 433 542 692
982 601z"/>
<path d="M855 1352 c-59 -28 -121 -102 -135 -163 -24 -98 12 -199 87 -252 l44
-31 -45 -23 c-25 -13 -61 -39 -81 -58 -71 -72 -115 -205 -82 -250 15 -19 29
-20 302 -23 336 -3 335 -4 335 77 0 92 -80 209 -178 260 l-33 17 42 33 c128
103 115 309 -25 396 -63 39 -168 46 -231 17z m213 -298 c4 -26 -40 -61 -86
-70 -60 -12 -153 43 -138 81 5 13 23 15 113 13 102 -3 108 -4 111 -24z"/>
</g>
</svg>
