<?xml version="1.0" standalone="no"?>
<!DOCTYPE svg PUBLIC "-//W3C//DTD SVG 20010904//EN"
 "http://www.w3.org/TR/2001/REC-SVG-20010904/DTD/svg10.dtd">
<svg version="1.0" xmlns="http://www.w3.org/2000/svg"
 width="192.000000pt" height="192.000000pt" viewBox="0 0 192.000000 192.000000"
 preserveAspectRatio="xMidYMid meet">
<metadata>
Created by potrace 1.16, written by Peter Selinger 2001-2019
</metadata>
<g transform="translate(0.000000,192.000000) scale(0.100000,-0.100000)"
fill="#000000" stroke="none">
811 c445 -92 729 -532 635 -987 -62 -301 -295 -546 -601 -630 -91 -26 -329
-26 -420 0 -291 80 -516 305 -596 596 -26 91 -26 329 0 420 120 433 542 692
982 601z"/>
<path d="M1028 1345 c-22 -12 -95 -98 -162 -190 -5 -7 -6 -20 -3 -29 14 -35
50 -12 116 73 76 96 90 106 117 86 18 -13 14 -19 -73 -107 -51 -51 -93 -98
-93 -103 0 -5 33 -42 72 -82 l73 -73 122 122 123 123 0 62 c0 87 -17 104 -102
99 -45 -3 -68 0 -79 10 -25 22 -80 26 -111 9z"/>
<path d="M769 923 l-126 -128 -18 -75 c-10 -41 -24 -82 -31 -91 -19 -21 -17
-36 5 -48 14 -8 25 -6 42 8 13 10 42 21 63 25 83 16 111 35 229 160 l116 123
-78 77 -77 77 -125 -128z"/>
</g>
</svg>
