<?xml version="1.0" standalone="no"?>
<!DOCTYPE svg PUBLIC "-//W3C//DTD SVG 20010904//EN"
 "http://www.w3.org/TR/2001/REC-SVG-20010904/DTD/svg10.dtd">
<svg version="1.0" xmlns="http://www.w3.org/2000/svg"
 width="192.000000pt" height="192.000000pt" viewBox="0 0 192.000000 192.000000"
 preserveAspectRatio="xMidYMid meet">
<metadata>
Created by potrace 1.16, written by Peter Selinger 2001-2019
</metadata>
<g transform="translate(0.000000,192.000000) scale(0.100000,-0.100000)"
fill="#000000" stroke="none">
811 c445 -92 729 -532 635 -987 -62 -301 -295 -546 -601 -630 -91 -26 -329
-26 -420 0 -291 80 -516 305 -596 596 -26 91 -26 329 0 420 120 433 542 692
982 601z"/>
<path d="M692 1368 c-39 -19 -44 -63 -40 -395 3 -306 3 -312 25 -335 34 -36
148 -91 172 -83 35 11 375 214 389 232 7 11 12 52 12 114 l0 97 -145 52 c-79
28 -152 50 -161 48 -37 -7 -39 -33 -9 -103 21 -51 37 -73 63 -88 l34 -20 -84
-48 c-46 -27 -86 -49 -90 -49 -5 0 -8 119 -8 263 0 297 4 282 -79 312 -50 17
-49 17 -79 3z"/>
</g>
</svg>
