<?xml version="1.0" standalone="no"?>
<!DOCTYPE svg PUBLIC "-//W3C//DTD SVG 20010904//EN"
 "http://www.w3.org/TR/2001/REC-SVG-20010904/DTD/svg10.dtd">
<svg version="1.0" xmlns="http://www.w3.org/2000/svg"
 width="192.000000pt" height="192.000000pt" viewBox="0 0 192.000000 192.000000"
 preserveAspectRatio="xMidYMid meet">
<metadata>
Created by potrace 1.16, written by Peter Selinger 2001-2019
</metadata>
<g transform="translate(0.000000,192.000000) scale(0.100000,-0.100000)"
fill="#000000" stroke="none">
811 c445 -92 729 -532 635 -987 -62 -301 -295 -546 -601 -630 -91 -26 -329
-26 -420 0 -291 80 -516 305 -596 596 -26 91 -26 329 0 420 120 433 542 692
982 601z"/>
<path d="M875 1371 c-87 -22 -155 -108 -155 -198 0 -21 -5 -23 -50 -23 -106 0
-125 -28 -125 -185 0 -157 19 -185 125 -185 45 0 50 -2 50 -22 0 -44 21 -99
52 -134 54 -61 77 -68 228 -69 l135 0 0 410 0 410 -115 2 c-63 1 -128 -2 -145
-6z m-25 -300 c15 -28 13 -193 -3 -214 -11 -15 -27 -17 -122 -15 l-110 3 -3
109 c-1 61 0 116 2 123 4 10 34 13 115 13 99 0 111 -2 121 -19z"/>
<path d="M647 1043 c-4 -3 -7 -39 -7 -78 0 -51 4 -76 15 -85 22 -18 35 -3 35
41 0 21 3 39 7 39 4 0 29 -21 55 -47 60 -59 70 -52 66 53 -3 71 -5 79 -23 79
-16 0 -21 -8 -25 -43 l-5 -43 -45 45 c-43 45 -59 53 -73 39z"/>
<path d="M1200 965 l0 -407 28 7 c43 11 92 54 113 99 17 37 19 68 19 301 0
233 -2 264 -19 301 -21 45 -70 88 -113 99 l-28 7 0 -407z"/>
</g>
</svg>
