<?xml version="1.0" standalone="no"?>
<!DOCTYPE svg PUBLIC "-//W3C//DTD SVG 20010904//EN"
 "http://www.w3.org/TR/2001/REC-SVG-20010904/DTD/svg10.dtd">
<svg version="1.0" xmlns="http://www.w3.org/2000/svg"
 width="192.000000pt" height="192.000000pt" viewBox="0 0 192.000000 192.000000"
 preserveAspectRatio="xMidYMid meet">
<metadata>
Created by potrace 1.16, written by Peter Selinger 2001-2019
</metadata>
<g transform="translate(0.000000,192.000000) scale(0.100000,-0.100000)"
fill="#000000" stroke="none">
811 c445 -92 729 -532 635 -987 -62 -301 -295 -546 -601 -630 -91 -26 -329
-26 -420 0 -291 80 -516 305 -596 596 -26 91 -26 329 0 420 120 433 542 692
982 601z"/>
<path d="M875 1371 c-87 -21 -155 -108 -155 -198 0 -21 -5 -23 -50 -23 -106 0
-125 -28 -125 -185 0 -157 19 -185 125 -185 45 0 50 -2 50 -22 0 -71 50 -151
114 -186 40 -21 303 -30 374 -12 62 15 110 53 133 104 17 37 19 68 19 301 0
233 -2 264 -19 301 -22 49 -70 88 -126 103 -44 12 -292 13 -340 2z m220 -281
c0 -24 -3 -25 -61 -28 -65 -3 -92 12 -80 43 5 13 19 15 73 13 65 -3 68 -4 68
-28z m180 0 c0 -24 -3 -25 -61 -28 -65 -3 -90 10 -78 42 5 14 18 16 73 14 63
-3 66 -4 66 -28z m-425 -19 c15 -28 13 -193 -3 -214 -11 -15 -27 -17 -122 -15
l-110 3 -3 109 c-1 61 0 116 2 123 4 10 34 13 115 13 99 0 111 -2 121 -19z
m234 -77 c9 -3 16 -17 16 -30 0 -23 -3 -24 -70 -24 -56 0 -72 3 -77 16 -4 11
1 22 12 30 19 14 91 19 119 8z m180 0 c9 -3 16 -17 16 -30 0 -23 -3 -24 -70
-24 -56 0 -72 3 -77 16 -4 11 1 22 12 30 19 14 91 19 119 8z m-169 -154 c0
-24 -3 -25 -61 -28 -45 -2 -64 1 -74 13 -10 12 -10 18 0 30 10 12 29 15 74 13
58 -3 61 -4 61 -28z m180 0 c0 -24 -3 -25 -61 -28 -45 -2 -64 1 -74 13 -10 12
-10 18 0 30 10 12 29 15 74 13 58 -3 61 -4 61 -28z"/>
<path d="M646 1033 c-4 -10 2 -29 14 -46 l22 -29 -22 -23 c-25 -27 -21 -55 8
-55 10 0 27 9 37 20 l18 20 22 -20 c45 -42 98 -11 56 34 -26 28 -26 34 -1 61
23 24 18 55 -8 55 -9 0 -26 -10 -39 -22 l-23 -21 -23 21 c-28 26 -52 28 -61 5z"/>
</g>
</svg>
