<?xml version="1.0" standalone="no"?>
<!DOCTYPE svg PUBLIC "-//W3C//DTD SVG 20010904//EN"
 "http://www.w3.org/TR/2001/REC-SVG-20010904/DTD/svg10.dtd">
<svg version="1.0" xmlns="http://www.w3.org/2000/svg"
 width="192.000000pt" height="192.000000pt" viewBox="0 0 192.000000 192.000000"
 preserveAspectRatio="xMidYMid meet">
<metadata>
Created by potrace 1.16, written by Peter Selinger 2001-2019
</metadata>
<g transform="translate(0.000000,192.000000) scale(0.100000,-0.100000)"
fill="#000000" stroke="none">
811 c445 -92 729 -532 635 -987 -62 -301 -295 -546 -601 -630 -91 -26 -329
-26 -420 0 -291 80 -516 305 -596 596 -26 91 -26 329 0 420 120 433 542 692
982 601z"/>
<path d="M837 1303 c-17 -16 0 -43 105 -176 61 -78 115 -147 120 -154 6 -7
-33 -64 -116 -170 -70 -87 -126 -163 -126 -170 0 -10 35 -13 144 -13 l145 0
125 159 c83 104 126 168 126 183 0 16 -42 78 -121 179 -67 85 -126 157 -133
161 -14 10 -260 10 -269 1z"/>
<path d="M747 1237 c-21 -16 -186 -226 -199 -253 -7 -15 -6 -28 3 -46 20 -35
202 -267 211 -268 11 0 148 173 148 186 0 6 -18 34 -39 60 l-39 49 34 42 c19
23 34 51 34 63 0 21 -74 124 -117 162 -16 15 -22 16 -36 5z"/>
</g>
</svg>
