<?xml version="1.0" standalone="no"?>
<!DOCTYPE svg PUBLIC "-//W3C//DTD SVG 20010904//EN"
 "http://www.w3.org/TR/2001/REC-SVG-20010904/DTD/svg10.dtd">
<svg version="1.0" xmlns="http://www.w3.org/2000/svg"
 width="192.000000pt" height="192.000000pt" viewBox="0 0 192.000000 192.000000"
 preserveAspectRatio="xMidYMid meet">
<metadata>
Created by potrace 1.16, written by Peter Selinger 2001-2019
</metadata>
<g transform="translate(0.000000,192.000000) scale(0.100000,-0.100000)"
fill="#000000" stroke="none">
811 c445 -92 729 -532 635 -987 -62 -301 -295 -546 -601 -630 -91 -26 -329
-26 -420 0 -291 80 -516 305 -596 596 -26 91 -26 329 0 420 120 433 542 692
982 601z"/>
<path d="M874 1361 c-39 -24 -71 -64 -79 -100 -5 -24 -12 -30 -48 -35 -79 -13
-119 -27 -143 -53 -21 -22 -24 -36 -24 -97 0 -155 62 -298 179 -416 88 -88
128 -110 203 -110 68 0 118 30 208 126 105 112 160 248 160 396 0 103 -15 121
-124 146 -72 17 -81 22 -90 48 -16 43 -37 69 -76 93 -45 27 -123 28 -166 2z
m140 -62 c14 -11 30 -28 35 -38 9 -16 2 -17 -90 -17 -54 1 -99 3 -99 6 0 3 7
16 16 28 31 45 96 54 138 21z m3 -243 c35 -31 39 -95 7 -127 l-22 -21 34 -31
c19 -18 37 -46 40 -64 l7 -33 -121 0 c-67 0 -123 3 -125 8 -9 16 15 72 42 94
28 24 28 25 10 47 -11 14 -19 39 -19 63 0 79 85 117 147 64z"/>
</g>
</svg>
