<?xml version="1.0" standalone="no"?>
<!DOCTYPE svg PUBLIC "-//W3C//DTD SVG 20010904//EN"
 "http://www.w3.org/TR/2001/REC-SVG-20010904/DTD/svg10.dtd">
<svg version="1.0" xmlns="http://www.w3.org/2000/svg"
 width="192.000000pt" height="192.000000pt" viewBox="0 0 192.000000 192.000000"
 preserveAspectRatio="xMidYMid meet">
<metadata>
Created by potrace 1.16, written by Peter Selinger 2001-2019
</metadata>
<g transform="translate(0.000000,192.000000) scale(0.100000,-0.100000)"
fill="#000000" stroke="none">
811 c445 -92 729 -532 635 -987 -62 -301 -295 -546 -601 -630 -91 -26 -329
-26 -420 0 -291 80 -516 305 -596 596 -26 91 -26 329 0 420 120 433 542 692
982 601z"/>
<path d="M635 1373 c-11 -3 -28 -12 -37 -21 -17 -14 -18 -45 -18 -387 0 -449
-14 -410 152 -410 103 0 111 1 129 24 11 14 19 39 19 61 l0 38 96 4 c86 3 98
5 115 27 11 14 19 39 19 62 l0 39 80 0 c89 0 123 11 139 47 15 33 15 443 0
477 -7 14 -25 30 -42 36 -30 10 -611 13 -652 3z m395 -173 l0 -100 -75 0 -75
0 0 100 0 100 75 0 75 0 0 -100z m230 -105 l0 -205 -75 0 -75 0 0 205 0 205
75 0 75 0 0 -205z m-452 -315 l3 -150 -80 0 -81 0 0 150 0 150 78 0 77 0 3
-150z"/>
</g>
</svg>
