<?xml version="1.0" standalone="no"?>
<!DOCTYPE svg PUBLIC "-//W3C//DTD SVG 20010904//EN"
 "http://www.w3.org/TR/2001/REC-SVG-20010904/DTD/svg10.dtd">
<svg version="1.0" xmlns="http://www.w3.org/2000/svg"
 width="192.000000pt" height="192.000000pt" viewBox="0 0 192.000000 192.000000"
 preserveAspectRatio="xMidYMid meet">
<metadata>
Created by potrace 1.16, written by Peter Selinger 2001-2019
</metadata>
<g transform="translate(0.000000,192.000000) scale(0.100000,-0.100000)"
fill="#000000" stroke="none">
811 c445 -92 729 -532 635 -987 -62 -301 -295 -546 -601 -630 -91 -26 -329
-26 -420 0 -291 80 -516 305 -596 596 -26 91 -26 329 0 420 120 433 542 692
982 601z"/>
<path d="M908 1317 c-55 -16 -98 -42 -98 -61 0 -7 7 -33 15 -56 19 -53 19 -50
-4 -50 -12 0 -25 11 -33 28 -19 38 -49 39 -76 2 -19 -25 -29 -30 -66 -30 -49
0 -91 -30 -101 -73 -4 -14 -5 -76 -3 -137 3 -108 4 -113 31 -136 20 -17 40
-24 70 -24 38 0 46 -5 89 -54 71 -81 216 -147 253 -116 19 16 67 173 59 194
-5 12 -21 16 -68 16 l-61 0 2 127 3 127 117 87 c94 68 118 91 118 110 0 16 -9
28 -28 37 -41 20 -163 24 -219 9z m-69 -241 c8 -9 11 -51 9 -122 l-3 -109
-110 -3 c-136 -3 -135 -4 -135 124 0 122 2 124 129 124 72 0 102 -4 110 -14z"/>
<path d="M672 1048 c-18 -18 -16 -143 4 -162 21 -22 112 -22 120 -1 9 23 -15
45 -47 45 -28 0 -29 1 -29 53 0 47 -12 77 -30 77 -3 0 -11 -5 -18 -12z"/>
<path d="M1133 1184 c-40 -30 -73 -61 -73 -68 0 -17 14 -29 145 -125 61 -44
118 -81 128 -81 30 0 41 41 28 110 -18 106 -89 221 -134 219 -12 0 -55 -25
-94 -55z"/>
<path d="M1141 928 c-5 -13 -28 -82 -52 -155 -36 -111 -41 -134 -30 -147 8 -9
21 -16 30 -16 28 0 116 46 156 81 40 35 95 114 95 136 0 18 -143 123 -169 123
-13 0 -25 -9 -30 -22z"/>
</g>
</svg>
