<?xml version="1.0" standalone="no"?>
<!DOCTYPE svg PUBLIC "-//W3C//DTD SVG 20010904//EN"
 "http://www.w3.org/TR/2001/REC-SVG-20010904/DTD/svg10.dtd">
<svg version="1.0" xmlns="http://www.w3.org/2000/svg"
 width="192.000000pt" height="192.000000pt" viewBox="0 0 192.000000 192.000000"
 preserveAspectRatio="xMidYMid meet">
<metadata>
Created by potrace 1.16, written by Peter Selinger 2001-2019
</metadata>
<g transform="translate(0.000000,192.000000) scale(0.100000,-0.100000)"
fill="#000000" stroke="none">
811 c445 -92 729 -532 635 -987 -62 -301 -295 -546 -601 -630 -91 -26 -329
-26 -420 0 -291 80 -516 305 -596 596 -26 91 -26 329 0 420 120 433 542 692
982 601z"/>
<path d="M681 1365 c-62 -19 -108 -68 -127 -133 -13 -42 -15 -90 -12 -220 3
-146 6 -172 25 -207 28 -54 53 -75 114 -95 45 -15 54 -23 64 -55 28 -81 76
-105 210 -105 134 0 182 24 210 105 10 32 19 40 64 55 61 20 86 41 114 95 18
35 22 61 25 200 5 194 -5 251 -55 306 -56 61 -97 69 -362 68 -161 0 -239 -4
-270 -14z m398 -301 l31 -26 0 -183 c0 -180 -1 -184 -24 -212 -24 -27 -26 -28
-131 -28 -105 0 -107 1 -131 28 -23 28 -24 32 -24 212 l0 183 31 26 c28 24 38
26 124 26 86 0 96 -2 124 -26z"/>
<path d="M900 700 c0 -18 7 -20 55 -20 48 0 55 2 55 20 0 18 -7 20 -55 20 -48
0 -55 -2 -55 -20z"/>
</g>
</svg>
