<?xml version="1.0" standalone="no"?>
<!DOCTYPE svg PUBLIC "-//W3C//DTD SVG 20010904//EN"
 "http://www.w3.org/TR/2001/REC-SVG-20010904/DTD/svg10.dtd">
<svg version="1.0" xmlns="http://www.w3.org/2000/svg"
 width="192.000000pt" height="192.000000pt" viewBox="0 0 192.000000 192.000000"
 preserveAspectRatio="xMidYMid meet">
<metadata>
Created by potrace 1.16, written by Peter Selinger 2001-2019
</metadata>
<g transform="translate(0.000000,192.000000) scale(0.100000,-0.100000)"
fill="#000000" stroke="none">
811 c445 -92 729 -532 635 -987 -62 -301 -295 -546 -601 -630 -91 -26 -329
-26 -420 0 -291 80 -516 305 -596 596 -26 91 -26 329 0 420 120 433 542 692
982 601z"/>
<path d="M856 1228 c-8 -13 -42 -93 -77 -177 l-63 -155 -32 70 c-17 38 -38 75
-47 82 -24 20 -69 11 -85 -18 -13 -23 -9 -35 54 -173 38 -84 76 -153 87 -159
10 -5 30 -7 44 -3 27 7 26 3 133 268 l72 177 194 0 c181 0 195 1 214 20 24 24
25 38 4 68 -15 22 -19 22 -249 22 -232 0 -235 0 -249 -22z"/>
<path d="M1012 1054 c-33 -23 -28 -62 17 -126 l39 -56 -39 -58 c-46 -70 -50
-106 -14 -130 33 -22 66 -8 97 41 13 19 25 35 28 35 3 0 15 -16 28 -35 31 -49
64 -63 97 -41 35 23 32 61 -10 123 -19 29 -35 57 -35 63 0 6 16 34 35 63 42
62 45 100 10 123 -33 22 -66 8 -97 -41 -22 -34 -38 -45 -38 -26 0 15 -66 81
-81 81 -8 0 -25 -7 -37 -16z"/>
</g>
</svg>
