<?xml version="1.0" standalone="no"?>
<!DOCTYPE svg PUBLIC "-//W3C//DTD SVG 20010904//EN"
 "http://www.w3.org/TR/2001/REC-SVG-20010904/DTD/svg10.dtd">
<svg version="1.0" xmlns="http://www.w3.org/2000/svg"
 width="192.000000pt" height="192.000000pt" viewBox="0 0 192.000000 192.000000"
 preserveAspectRatio="xMidYMid meet">
<metadata>
Created by potrace 1.16, written by Peter Selinger 2001-2019
</metadata>
<g transform="translate(0.000000,192.000000) scale(0.100000,-0.100000)"
fill="#000000" stroke="none">
811 c445 -92 729 -532 635 -987 -62 -301 -295 -546 -601 -630 -91 -26 -329
-26 -420 0 -291 80 -516 305 -596 596 -26 91 -26 329 0 420 120 433 542 692
982 601z"/>
<path d="M695 1321 c-48 -22 -79 -54 -100 -103 -12 -30 -15 -81 -15 -255 0
-245 8 -278 71 -325 58 -43 90 -48 304 -48 214 0 246 5 304 48 63 47 71 80 71
325 0 232 -5 264 -53 316 -50 54 -83 61 -322 61 -193 0 -225 -3 -260 -19z
m499 -147 c19 -19 20 -36 4 -52 -17 -17 -469 -17 -486 0 -16 16 -15 33 4 52
23 24 455 24 478 0z m-296 -126 c17 -17 17 -269 0 -286 -7 -7 -43 -12 -93 -12
-50 0 -86 5 -93 12 -17 17 -17 269 0 286 7 7 43 12 93 12 50 0 86 -5 93 -12z
m303 -4 c9 -11 10 -20 2 -32 -8 -14 -29 -17 -124 -17 -102 0 -114 2 -117 18
-8 43 2 47 116 47 88 0 112 -3 123 -16z m0 -120 c9 -11 10 -20 2 -32 -8 -14
-29 -17 -124 -17 -102 0 -114 2 -117 18 -8 43 2 47 116 47 88 0 112 -3 123
-16z m-66 -139 l0 -30 -85 0 c-74 0 -85 2 -88 18 -8 42 3 48 90 45 l83 -3 0
-30z"/>
</g>
</svg>
