<?xml version="1.0" standalone="no"?>
<!DOCTYPE svg PUBLIC "-//W3C//DTD SVG 20010904//EN"
 "http://www.w3.org/TR/2001/REC-SVG-20010904/DTD/svg10.dtd">
<svg version="1.0" xmlns="http://www.w3.org/2000/svg"
 width="192.000000pt" height="192.000000pt" viewBox="0 0 192.000000 192.000000"
 preserveAspectRatio="xMidYMid meet">
<metadata>
Created by potrace 1.16, written by Peter Selinger 2001-2019
</metadata>
<g transform="translate(0.000000,192.000000) scale(0.100000,-0.100000)"
fill="#000000" stroke="none">
811 c445 -92 729 -532 635 -987 -62 -301 -295 -546 -601 -630 -91 -26 -329
-26 -420 0 -291 80 -516 305 -596 596 -26 91 -26 329 0 420 120 433 542 692
982 601z"/>
<path d="M857 1370 c-62 -16 -137 -59 -181 -105 -74 -76 -108 -165 -62 -165 8
0 41 18 73 40 77 54 176 84 254 77 93 -8 134 -47 141 -133 l3 -39 -142 -3
-142 -3 -3 38 c-4 52 -35 57 -70 11 -58 -77 -73 -118 -73 -208 0 -73 4 -93 28
-142 46 -94 128 -155 241 -178 100 -20 270 12 306 58 39 49 15 132 -37 132
-13 0 -50 -7 -81 -16 -74 -22 -166 -14 -223 17 -48 27 -89 80 -89 115 l0 24
244 0 c209 0 247 2 260 16 21 21 21 142 1 211 -31 104 -118 197 -222 236 -57
22 -173 30 -226 17z"/>
</g>
</svg>
