<?xml version="1.0" standalone="no"?>
<!DOCTYPE svg PUBLIC "-//W3C//DTD SVG 20010904//EN"
 "http://www.w3.org/TR/2001/REC-SVG-20010904/DTD/svg10.dtd">
<svg version="1.0" xmlns="http://www.w3.org/2000/svg"
 width="192.000000pt" height="192.000000pt" viewBox="0 0 192.000000 192.000000"
 preserveAspectRatio="xMidYMid meet">
<metadata>
Created by potrace 1.16, written by Peter Selinger 2001-2019
</metadata>
<g transform="translate(0.000000,192.000000) scale(0.100000,-0.100000)"
fill="#000000" stroke="none">
811 c445 -92 729 -532 635 -987 -62 -301 -295 -546 -601 -630 -91 -26 -329
-26 -420 0 -291 80 -516 305 -596 596 -26 91 -26 329 0 420 120 433 542 692
982 601z"/>
<path d="M965 1302 c-6 -4 -16 -19 -22 -34 -13 -29 -39 -36 -73 -18 -29 16
-72 -24 -68 -64 l3 -31 -113 -5 c-109 -5 -115 -6 -138 -33 -23 -26 -24 -35
-24 -153 0 -125 0 -126 29 -155 27 -27 35 -29 106 -29 71 0 79 -2 97 -26 16
-19 27 -25 47 -21 38 7 61 -9 61 -43 0 -46 55 -67 91 -34 23 21 65 11 72 -16
4 -14 13 -20 34 -20 36 0 49 9 62 43 11 28 41 36 71 17 9 -6 24 -3 43 8 24 14
28 22 24 47 -7 43 8 65 43 65 46 0 67 55 34 91 -21 23 -11 65 16 72 14 4 20
13 20 34 0 35 -8 45 -42 60 -29 13 -36 39 -18 73 15 28 -25 73 -59 67 -38 -7
-61 9 -61 43 0 46 -55 67 -91 34 -23 -21 -65 -11 -72 16 -4 14 -13 20 -34 20
-15 0 -33 -4 -38 -8z m-137 -224 c18 -18 16 -212 -2 -227 -9 -8 -51 -11 -122
-9 l-109 3 -3 109 c-1 61 0 116 2 123 7 18 216 19 234 1z m274 -14 c16 -8 33
-30 43 -57 15 -41 15 -46 -1 -86 -32 -81 -133 -101 -192 -38 -47 50 -47 120 2
166 43 41 88 45 148 15z"/>
<path d="M654 1047 c-2 -8 -4 -49 -2 -93 2 -62 6 -79 18 -79 10 0 16 12 18 33
2 23 8 32 22 32 14 0 20 -9 22 -32 2 -21 8 -33 18 -33 12 0 15 17 15 90 l0 90
-53 3 c-37 2 -54 -1 -58 -11z m76 -47 c0 -13 -7 -20 -20 -20 -13 0 -20 7 -20
20 0 13 7 20 20 20 13 0 20 -7 20 -20z"/>
</g>
</svg>
