<?xml version="1.0" standalone="no"?>
<!DOCTYPE svg PUBLIC "-//W3C//DTD SVG 20010904//EN"
 "http://www.w3.org/TR/2001/REC-SVG-20010904/DTD/svg10.dtd">
<svg version="1.0" xmlns="http://www.w3.org/2000/svg"
 width="192.000000pt" height="192.000000pt" viewBox="0 0 192.000000 192.000000"
 preserveAspectRatio="xMidYMid meet">
<metadata>
Created by potrace 1.16, written by Peter Selinger 2001-2019
</metadata>
<g transform="translate(0.000000,192.000000) scale(0.100000,-0.100000)"
fill="#000000" stroke="none">
811 c445 -92 729 -532 635 -987 -62 -301 -295 -546 -601 -630 -91 -26 -329
-26 -420 0 -291 80 -516 305 -596 596 -26 91 -26 329 0 420 120 433 542 692
982 601z"/>
<path d="M1135 1330 c-3 -4 2 -13 10 -20 8 -7 15 -19 15 -26 0 -16 36 -19 45
-3 4 5 -1 19 -10 29 -19 20 -53 32 -60 20z"/>
<path d="M1040 1252 c0 -10 -7 -28 -16 -40 -28 -41 16 -60 51 -22 16 17 31 20
112 20 76 0 93 -3 93 -15 0 -20 12 -19 54 6 l36 21 -22 18 c-20 15 -34 16 -93
9 -162 -18 -174 -17 -180 2 -8 24 -35 25 -35 1z"/>
<path d="M650 1231 c-11 -21 -14 -149 -4 -175 5 -13 24 -16 105 -16 111 0 130
11 90 54 -11 12 -21 27 -21 32 0 20 50 57 101 74 49 17 51 18 29 30 -44 23
-132 24 -183 2 -45 -20 -46 -20 -63 -1 -22 24 -41 24 -54 0z"/>
<path d="M1162 1159 c-51 -4 -96 -10 -99 -13 -10 -9 30 -36 45 -31 8 3 32 8
54 12 30 4 39 3 34 -5 -4 -7 -16 -12 -27 -12 -13 0 -19 -7 -19 -24 0 -21 -5
-24 -66 -29 -37 -4 -69 -9 -72 -12 -3 -2 1 -12 9 -21 12 -15 65 -14 122 2 14
4 17 -1 17 -26 0 -30 -2 -32 -30 -28 -17 3 -33 1 -36 -3 -5 -8 48 -49 65 -49
14 0 27 27 35 71 7 40 27 49 109 49 38 0 39 1 23 19 -13 14 -26 17 -66 13 -66
-6 -68 18 -4 45 45 20 45 20 22 34 -18 11 -44 13 -116 8z"/>
<path d="M664 951 c-91 -41 -128 -145 -84 -235 30 -62 70 -89 140 -94 33 -2
67 1 80 8 19 10 24 9 37 -9 8 -12 22 -21 32 -21 36 0 43 24 39 143 -3 107 -5
116 -32 151 -32 42 -95 76 -141 76 -16 0 -49 -9 -71 -19z m105 -72 c94 -33 66
-179 -34 -179 -96 0 -128 132 -42 174 39 19 36 19 76 5z"/>
<path d="M1092 858 c-17 -17 -15 -32 8 -53 11 -10 20 -24 20 -31 0 -17 -52
-53 -107 -74 l-45 -17 32 -13 c45 -19 139 -17 180 3 30 15 35 15 50 2 25 -23
57 -19 64 8 10 36 7 147 -4 168 -9 17 -22 19 -98 19 -55 0 -92 -4 -100 -12z"/>
</g>
</svg>
