<?xml version="1.0" standalone="no"?>
<!DOCTYPE svg PUBLIC "-//W3C//DTD SVG 20010904//EN"
 "http://www.w3.org/TR/2001/REC-SVG-20010904/DTD/svg10.dtd">
<svg version="1.0" xmlns="http://www.w3.org/2000/svg"
 width="192.000000pt" height="192.000000pt" viewBox="0 0 192.000000 192.000000"
 preserveAspectRatio="xMidYMid meet">
<metadata>
Created by potrace 1.16, written by Peter Selinger 2001-2019
</metadata>
<g transform="translate(0.000000,192.000000) scale(0.100000,-0.100000)"
fill="#000000" stroke="none">
811 c445 -92 729 -532 635 -987 -62 -301 -295 -546 -601 -630 -91 -26 -329
-26 -420 0 -291 80 -516 305 -596 596 -26 91 -26 329 0 420 120 433 542 692
982 601z"/>
<path d="M947 1261 c-75 -75 -107 -115 -107 -132 0 -32 206 -239 238 -239 29
0 72 42 72 71 0 13 -28 51 -74 98 l-75 76 75 76 c79 81 88 105 54 139 -41 41
-68 28 -183 -89z"/>
<path d="M784 1014 c-37 -36 -26 -66 56 -149 l69 -69 -75 -78 c-68 -69 -75
-81 -70 -105 9 -36 32 -53 70 -53 26 0 48 17 133 104 82 82 103 109 103 132 0
22 -22 50 -108 136 -117 117 -135 126 -178 82z"/>
</g>
</svg>
