<?xml version="1.0" standalone="no"?>
<!DOCTYPE svg PUBLIC "-//W3C//DTD SVG 20010904//EN"
 "http://www.w3.org/TR/2001/REC-SVG-20010904/DTD/svg10.dtd">
<svg version="1.0" xmlns="http://www.w3.org/2000/svg"
 width="192.000000pt" height="192.000000pt" viewBox="0 0 192.000000 192.000000"
 preserveAspectRatio="xMidYMid meet">
<metadata>
Created by potrace 1.16, written by Peter Selinger 2001-2019
</metadata>
<g transform="translate(0.000000,192.000000) scale(0.100000,-0.100000)"
fill="#000000" stroke="none">
811 c445 -92 729 -532 635 -987 -62 -301 -295 -546 -601 -630 -91 -26 -329
-26 -420 0 -291 80 -516 305 -596 596 -26 91 -26 329 0 420 120 433 542 692
982 601z"/>
<path d="M881 1365 c-89 -28 -140 -105 -156 -237 -4 -34 -11 -48 -21 -48 -9 0
-29 -13 -45 -29 l-29 -29 0 -202 c0 -119 4 -209 10 -221 24 -44 54 -49 315
-49 261 0 291 5 315 49 6 12 10 102 10 221 l0 202 -29 29 c-16 16 -36 29 -45
29 -10 0 -17 14 -21 48 -18 137 -66 210 -158 237 -61 18 -88 18 -146 0z m134
-101 c39 -18 64 -64 72 -134 l6 -50 -137 0 c-154 0 -147 -5 -125 90 21 93 101
134 184 94z m-12 -372 c21 -18 22 -65 2 -82 -10 -8 -15 -30 -15 -61 0 -53 -20
-75 -52 -58 -13 7 -18 22 -18 58 0 31 -5 53 -15 61 -20 17 -19 63 3 82 33 29
60 29 95 0z"/>
</g>
</svg>
