<?xml version="1.0" standalone="no"?>
<!DOCTYPE svg PUBLIC "-//W3C//DTD SVG 20010904//EN"
 "http://www.w3.org/TR/2001/REC-SVG-20010904/DTD/svg10.dtd">
<svg version="1.0" xmlns="http://www.w3.org/2000/svg"
 width="192.000000pt" height="192.000000pt" viewBox="0 0 192.000000 192.000000"
 preserveAspectRatio="xMidYMid meet">
<metadata>
Created by potrace 1.16, written by Peter Selinger 2001-2019
</metadata>
<g transform="translate(0.000000,192.000000) scale(0.100000,-0.100000)"
fill="#000000" stroke="none">
811 c445 -92 729 -532 635 -987 -62 -301 -295 -546 -601 -630 -91 -26 -329
-26 -420 0 -291 80 -516 305 -596 596 -26 91 -26 329 0 420 120 433 542 692
982 601z"/>
<path d="M875 1371 c-16 -4 -40 -13 -51 -19 -30 -16 -86 -82 -81 -95 2 -7 71
-51 153 -99 133 -77 151 -86 169 -74 11 7 75 48 143 90 67 43 125 83 128 88
10 16 -29 61 -77 88 -41 23 -54 25 -199 27 -85 1 -168 -2 -185 -6z"/>
<path d="M1200 1104 c-80 -51 -149 -94 -153 -94 -19 0 -138 76 -143 92 -11 36
-57 48 -178 48 -114 0 -116 -1 -148 -29 l-33 -29 0 -127 0 -127 33 -29 c27
-25 41 -29 87 -29 50 0 55 -2 55 -22 0 -71 50 -151 114 -186 40 -21 288 -30
367 -13 66 14 116 51 140 105 16 36 19 68 19 289 0 136 -3 247 -7 246 -5 0
-73 -43 -153 -95z m-350 -33 c15 -28 13 -193 -3 -214 -11 -15 -27 -17 -122
-15 l-110 3 -3 109 c-1 61 0 116 2 123 4 10 34 13 115 13 99 0 111 -2 121 -19z"/>
<path d="M683 1049 c-29 -15 -55 -72 -47 -103 7 -29 40 -61 72 -71 52 -15 112
38 112 99 0 57 -82 102 -137 75z m88 -66 c16 -44 -46 -84 -79 -51 -19 19 -14
55 9 72 26 18 59 8 70 -21z"/>
</g>
</svg>
