<?xml version="1.0" standalone="no"?>
<!DOCTYPE svg PUBLIC "-//W3C//DTD SVG 20010904//EN"
 "http://www.w3.org/TR/2001/REC-SVG-20010904/DTD/svg10.dtd">
<svg version="1.0" xmlns="http://www.w3.org/2000/svg"
 width="192.000000pt" height="192.000000pt" viewBox="0 0 192.000000 192.000000"
 preserveAspectRatio="xMidYMid meet">
<metadata>
Created by potrace 1.16, written by Peter Selinger 2001-2019
</metadata>
<g transform="translate(0.000000,192.000000) scale(0.100000,-0.100000)"
fill="#000000" stroke="none">
811 c445 -92 729 -532 635 -987 -62 -301 -295 -546 -601 -630 -91 -26 -329
-26 -420 0 -291 80 -516 305 -596 596 -26 91 -26 329 0 420 120 433 542 692
982 601z"/>
<path d="M830 1223 c-110 -96 -115 -101 -196 -243 -65 -112 -84 -154 -84 -183
0 -83 102 -129 165 -74 16 14 72 123 150 291 69 148 125 270 125 271 0 7 -32
35 -40 35 -4 0 -58 -44 -120 -97z"/>
<path d="M1026 1282 c-12 -20 -106 -284 -106 -299 0 -9 43 -67 96 -130 53 -63
93 -120 91 -127 -3 -8 -42 -20 -94 -30 -48 -8 -130 -23 -181 -32 -75 -13 -92
-20 -90 -33 3 -14 32 -16 269 -16 289 0 297 1 335 60 37 57 27 87 -127 357
-111 194 -150 254 -166 256 -12 2 -24 -1 -27 -6z"/>
</g>
</svg>
