<?xml version="1.0" standalone="no"?>
<!DOCTYPE svg PUBLIC "-//W3C//DTD SVG 20010904//EN"
 "http://www.w3.org/TR/2001/REC-SVG-20010904/DTD/svg10.dtd">
<svg version="1.0" xmlns="http://www.w3.org/2000/svg"
 width="192.000000pt" height="192.000000pt" viewBox="0 0 192.000000 192.000000"
 preserveAspectRatio="xMidYMid meet">
<metadata>
Created by potrace 1.16, written by Peter Selinger 2001-2019
</metadata>
<g transform="translate(0.000000,192.000000) scale(0.100000,-0.100000)"
fill="#000000" stroke="none">
811 c445 -92 729 -532 635 -987 -62 -301 -295 -546 -601 -630 -91 -26 -329
-26 -420 0 -291 80 -516 305 -596 596 -26 91 -26 329 0 420 120 433 542 692
982 601z"/>
<path d="M875 1371 c-87 -21 -155 -108 -155 -198 0 -21 -5 -23 -55 -23 -46 0
-60 -4 -87 -29 l-33 -29 0 -127 0 -127 33 -29 c27 -25 41 -29 87 -29 50 0 55
-2 55 -22 0 -71 50 -151 114 -186 40 -21 288 -30 367 -13 66 14 116 51 140
105 17 37 19 68 19 301 0 233 -2 264 -19 301 -23 51 -72 90 -131 103 -50 12
-289 13 -335 2z m379 -187 c9 -3 16 -17 16 -30 l0 -24 -149 0 c-122 0 -150 3
-155 15 -3 8 2 21 10 30 12 12 41 15 139 15 68 0 130 -3 139 -6z m-404 -113
c15 -28 13 -193 -3 -214 -11 -15 -27 -17 -122 -15 l-110 3 -3 109 c-1 61 0
116 2 123 4 10 34 13 115 13 99 0 111 -2 121 -19z m415 -41 l0 -25 -144 -3
c-152 -3 -170 2 -150 40 9 17 23 18 152 16 l142 -3 0 -25z m0 -130 l0 -25
-141 -3 c-117 -2 -143 0 -154 13 -10 12 -10 18 0 30 11 13 37 15 154 13 l141
-3 0 -25z m5 -124 c0 -13 -7 -27 -16 -30 -9 -3 -71 -6 -139 -6 -98 0 -127 3
-139 15 -8 9 -13 22 -10 30 5 12 33 15 155 15 l149 0 0 -24z"/>
<path d="M630 1028 c0 -28 45 -141 59 -146 7 -3 21 5 31 18 l17 23 6 -22 c3
-12 13 -21 25 -21 16 0 25 15 45 74 14 41 23 77 19 80 -15 16 -35 2 -52 -36
-10 -24 -19 -36 -19 -27 -1 28 -33 33 -51 9 -16 -21 -16 -21 -30 19 -9 28 -19
41 -32 41 -10 0 -18 -6 -18 -12z"/>
</g>
</svg>
