<?xml version="1.0" standalone="no"?>
<!DOCTYPE svg PUBLIC "-//W3C//DTD SVG 20010904//EN"
 "http://www.w3.org/TR/2001/REC-SVG-20010904/DTD/svg10.dtd">
<svg version="1.0" xmlns="http://www.w3.org/2000/svg"
 width="192.000000pt" height="192.000000pt" viewBox="0 0 192.000000 192.000000"
 preserveAspectRatio="xMidYMid meet">
<metadata>
Created by potrace 1.16, written by Peter Selinger 2001-2019
</metadata>
<g transform="translate(0.000000,192.000000) scale(0.100000,-0.100000)"
fill="#000000" stroke="none">
811 c445 -92 729 -532 635 -987 -62 -301 -295 -546 -601 -630 -91 -26 -329
-26 -420 0 -291 80 -516 305 -596 596 -26 91 -26 329 0 420 120 433 542 692
982 601z"/>
<path d="M910 1367 c-42 -15 -80 -68 -80 -112 0 -76 85 -138 156 -115 108 36
113 182 8 226 -39 16 -39 16 -84 1z"/>
<path d="M1175 1265 c-41 -40 -33 -105 17 -131 58 -30 122 7 122 71 0 76 -87
113 -139 60z"/>
<path d="M577 1122 c-26 -27 -27 -31 -27 -156 l0 -128 29 -29 c25 -25 37 -29
84 -29 l54 0 6 -41 c23 -174 261 -241 382 -108 34 38 40 41 94 42 70 2 123 37
152 101 25 55 28 246 3 270 -13 14 -48 16 -225 16 -184 0 -209 2 -209 16 0 8
-13 29 -29 45 l-29 29 -129 0 c-129 0 -129 0 -156 -28z m271 -44 c16 -16 16
-210 0 -226 -16 -16 -210 -16 -226 0 -13 13 -18 219 -5 231 12 13 218 8 231
-5z"/>
<path d="M654 1035 c-9 -23 3 -45 26 -45 17 0 20 -6 20 -49 0 -31 5 -53 15
-61 25 -21 45 5 45 61 0 42 3 48 23 51 16 2 22 10 22 28 0 24 -3 25 -73 28
-58 2 -73 0 -78 -13z"/>
</g>
</svg>
