<?xml version="1.0" standalone="no"?>
<!DOCTYPE svg PUBLIC "-//W3C//DTD SVG 20010904//EN"
 "http://www.w3.org/TR/2001/REC-SVG-20010904/DTD/svg10.dtd">
<svg version="1.0" xmlns="http://www.w3.org/2000/svg"
 width="192.000000pt" height="192.000000pt" viewBox="0 0 192.000000 192.000000"
 preserveAspectRatio="xMidYMid meet">
<metadata>
Created by potrace 1.16, written by Peter Selinger 2001-2019
</metadata>
<g transform="translate(0.000000,192.000000) scale(0.100000,-0.100000)"
fill="#000000" stroke="none">
811 c445 -92 729 -532 635 -987 -62 -301 -295 -546 -601 -630 -91 -26 -329
-26 -420 0 -291 80 -516 305 -596 596 -26 91 -26 329 0 420 120 433 542 692
982 601z"/>
<path d="M869 1347 c-46 -30 -82 -101 -75 -150 2 -21 23 -74 45 -118 22 -44
37 -79 33 -77 -4 2 -32 20 -63 41 -73 49 -111 55 -169 25 -115 -59 -124 -203
-17 -282 44 -33 124 -28 215 14 40 18 75 30 79 26 4 -4 -17 -55 -46 -114 -29
-59 -52 -117 -49 -127 3 -19 12 -20 133 -20 159 0 158 -3 85 145 -27 57 -47
107 -42 112 5 5 40 -6 78 -24 87 -40 167 -44 211 -12 49 37 73 81 73 139 0 66
-29 112 -90 143 -58 30 -96 24 -169 -25 -31 -21 -59 -39 -63 -41 -4 -2 11 33
33 77 52 102 57 142 27 201 -32 61 -77 90 -143 90 -37 0 -62 -6 -86 -23z"/>
</g>
</svg>
