<?xml version="1.0" standalone="no"?>
<!DOCTYPE svg PUBLIC "-//W3C//DTD SVG 20010904//EN"
 "http://www.w3.org/TR/2001/REC-SVG-20010904/DTD/svg10.dtd">
<svg version="1.0" xmlns="http://www.w3.org/2000/svg"
 width="192.000000pt" height="192.000000pt" viewBox="0 0 192.000000 192.000000"
 preserveAspectRatio="xMidYMid meet">
<metadata>
Created by potrace 1.16, written by Peter Selinger 2001-2019
</metadata>
<g transform="translate(0.000000,192.000000) scale(0.100000,-0.100000)"
fill="#000000" stroke="none">
811 c445 -92 729 -532 635 -987 -62 -301 -295 -546 -601 -630 -91 -26 -329
-26 -420 0 -291 80 -516 305 -596 596 -26 91 -26 329 0 420 120 433 542 692
982 601z"/>
<path d="M995 1260 l-90 -90 -176 0 c-152 0 -178 -2 -183 -16 -3 -9 -6 -96 -6
-194 0 -149 3 -181 16 -194 13 -13 44 -16 187 -16 l172 0 85 -85 c47 -47 92
-85 101 -85 21 0 94 105 124 178 20 50 26 56 47 53 56 -10 72 -6 79 19 13 45
10 243 -4 270 -11 22 -19 25 -58 22 l-44 -2 -18 49 c-24 68 -97 175 -122 179
-14 2 -47 -25 -110 -88z m149 -66 c15 -31 24 -60 19 -64 -9 -8 -144 -50 -162
-50 -6 0 -11 18 -11 42 0 38 6 48 52 95 35 36 55 49 63 43 6 -5 24 -35 39 -66z
m-425 -156 l22 -52 24 52 c20 43 29 52 50 52 28 0 29 5 -22 -107 -9 -21 -19
-65 -22 -98 -5 -53 -9 -60 -28 -63 -21 -3 -23 1 -23 43 0 32 -12 74 -35 128
-19 44 -35 84 -35 89 0 4 11 8 24 8 19 0 28 -10 45 -52z m368 -199 c43 -12 81
-24 86 -28 14 -14 -56 -151 -78 -151 -5 0 -31 21 -57 47 -45 45 -48 50 -48
100 0 29 4 53 10 53 5 0 45 -9 87 -21z"/>
</g>
</svg>
