<?xml version="1.0" standalone="no"?>
<!DOCTYPE svg PUBLIC "-//W3C//DTD SVG 20010904//EN"
 "http://www.w3.org/TR/2001/REC-SVG-20010904/DTD/svg10.dtd">
<svg version="1.0" xmlns="http://www.w3.org/2000/svg"
 width="192.000000pt" height="192.000000pt" viewBox="0 0 192.000000 192.000000"
 preserveAspectRatio="xMidYMid meet">
<metadata>
Created by potrace 1.16, written by Peter Selinger 2001-2019
</metadata>
<g transform="translate(0.000000,192.000000) scale(0.100000,-0.100000)"
fill="#000000" stroke="none">
811 c445 -92 729 -532 635 -987 -62 -301 -295 -546 -601 -630 -91 -26 -329
-26 -420 0 -291 80 -516 305 -596 596 -26 91 -26 329 0 420 120 433 542 692
982 601z"/>
<path d="M695 1321 c-49 -22 -91 -69 -106 -119 -7 -24 -9 -116 -7 -259 l3
-221 30 -43 c56 -79 77 -84 340 -84 263 0 284 5 340 84 l30 43 3 221 c4 240
-1 275 -45 328 -53 62 -83 69 -328 69 -192 0 -225 -3 -260 -19z m259 -154 c13
-10 16 -20 11 -36 -6 -21 -11 -22 -123 -19 -103 3 -117 5 -120 21 -7 38 15 47
117 47 65 0 103 -4 115 -13z m233 -123 c3 -9 2 -24 -4 -33 -9 -14 -38 -16
-228 -16 -190 0 -219 2 -228 16 -6 9 -7 24 -4 33 6 14 32 16 232 16 200 0 226
-2 232 -16z m-13 -107 c10 -7 16 -22 14 -33 -3 -18 -14 -19 -233 -19 -219 0
-230 1 -233 19 -8 40 20 46 233 46 151 0 206 -3 219 -13z m-134 -122 c6 -8 10
-22 8 -32 -3 -16 -17 -18 -163 -18 -146 0 -160 2 -163 18 -8 41 13 47 163 47
112 0 145 -3 155 -15z"/>
</g>
</svg>
