<?xml version="1.0" standalone="no"?>
<!DOCTYPE svg PUBLIC "-//W3C//DTD SVG 20010904//EN"
 "http://www.w3.org/TR/2001/REC-SVG-20010904/DTD/svg10.dtd">
<svg version="1.0" xmlns="http://www.w3.org/2000/svg"
 width="192.000000pt" height="192.000000pt" viewBox="0 0 192.000000 192.000000"
 preserveAspectRatio="xMidYMid meet">
<metadata>
Created by potrace 1.16, written by Peter Selinger 2001-2019
</metadata>
<g transform="translate(0.000000,192.000000) scale(0.100000,-0.100000)"
fill="#000000" stroke="none">
811 c445 -92 729 -532 635 -987 -62 -301 -295 -546 -601 -630 -91 -26 -329
-26 -420 0 -291 80 -516 305 -596 596 -26 91 -26 329 0 420 120 433 542 692
982 601z"/>
<path d="M889 1370 c-25 -4 -70 -18 -100 -31 l-54 -24 56 -6 c30 -3 80 -17
110 -31 l54 -24 54 24 c30 14 79 28 110 31 l56 6 -53 23 c-30 13 -79 28 -110
33 -63 10 -58 10 -123 -1z"/>
<path d="M640 1223 c-72 -81 -107 -209 -90 -320 10 -63 36 -133 63 -167 13
-18 14 -16 19 28 7 61 71 190 144 292 31 43 58 84 61 90 7 19 -122 114 -155
114 -6 0 -25 -17 -42 -37z"/>
<path d="M1170 1231 c-25 -16 -58 -40 -75 -54 -27 -22 -28 -26 -15 -44 123
-168 189 -291 199 -367 l7 -51 26 45 c14 25 32 63 39 85 19 59 17 180 -4 245
-22 68 -87 164 -113 168 -10 1 -39 -11 -64 -27z"/>
<path d="M852 953 c-130 -131 -196 -239 -174 -286 23 -50 181 -117 277 -117
86 0 203 43 259 95 35 32 31 63 -17 144 -38 65 -217 251 -241 251 -9 0 -56
-39 -104 -87z"/>
</g>
</svg>
