<?xml version="1.0" standalone="no"?>
<!DOCTYPE svg PUBLIC "-//W3C//DTD SVG 20010904//EN"
 "http://www.w3.org/TR/2001/REC-SVG-20010904/DTD/svg10.dtd">
<svg version="1.0" xmlns="http://www.w3.org/2000/svg"
 width="192.000000pt" height="192.000000pt" viewBox="0 0 192.000000 192.000000"
 preserveAspectRatio="xMidYMid meet">
<metadata>
Created by potrace 1.16, written by Peter Selinger 2001-2019
</metadata>
<g transform="translate(0.000000,192.000000) scale(0.100000,-0.100000)"
fill="#000000" stroke="none">
811 c445 -92 729 -532 635 -987 -62 -301 -295 -546 -601 -630 -91 -26 -329
-26 -420 0 -291 80 -516 305 -596 596 -26 91 -26 329 0 420 120 433 542 692
982 601z"/>
<path d="M890 1371 c-91 -30 -163 -104 -180 -186 -5 -28 -9 -30 -59 -35 -42
-5 -58 -12 -77 -33 -23 -26 -24 -36 -24 -153 0 -125 0 -126 29 -155 29 -28 32
-29 130 -29 l101 0 0 -53 c0 -63 24 -113 70 -144 91 -63 219 -22 254 81 12 36
18 41 67 53 103 26 163 101 163 203 1 150 -152 251 -289 191 -59 -26 -75 -26
-75 -1 0 28 70 61 141 67 l58 6 -15 35 c-39 93 -117 151 -211 158 -32 2 -69 0
-83 -5z m-42 -293 c16 -16 16 -210 0 -226 -16 -16 -210 -16 -226 0 -17 17 -17
224 1 231 27 11 213 7 225 -5z"/>
<path d="M670 1030 c-38 -38 -15 -80 51 -90 l44 -7 -46 -2 c-86 -2 -85 -51 1
-51 54 0 90 22 90 54 0 31 -23 48 -73 57 l-42 6 45 2 c53 2 75 13 67 35 -10
25 -111 22 -137 -4z"/>
</g>
</svg>
