<?xml version="1.0" standalone="no"?>
<!DOCTYPE svg PUBLIC "-//W3C//DTD SVG 20010904//EN"
 "http://www.w3.org/TR/2001/REC-SVG-20010904/DTD/svg10.dtd">
<svg version="1.0" xmlns="http://www.w3.org/2000/svg"
 width="192.000000pt" height="192.000000pt" viewBox="0 0 192.000000 192.000000"
 preserveAspectRatio="xMidYMid meet">
<metadata>
Created by potrace 1.16, written by Peter Selinger 2001-2019
</metadata>
<g transform="translate(0.000000,192.000000) scale(0.100000,-0.100000)"
fill="#000000" stroke="none">
811 c445 -92 729 -532 635 -987 -62 -301 -295 -546 -601 -630 -91 -26 -329
-26 -420 0 -291 80 -516 305 -596 596 -26 91 -26 329 0 420 120 433 542 692
982 601z"/>
<path d="M835 1353 c-121 -44 -194 -109 -249 -223 -28 -59 -31 -74 -31 -165 0
-92 3 -106 32 -167 121 -255 438 -323 646 -138 85 76 87 112 3 84 -101 -35
-235 -5 -314 70 -97 91 -96 223 2 256 88 29 173 -68 132 -151 -21 -43 -21 -44
17 -62 79 -36 170 -29 227 19 44 38 60 75 60 142 0 120 -101 261 -230 320 -74
34 -220 41 -295 15z m92 -214 c27 -12 41 -23 33 -25 -8 -1 -32 -5 -53 -9 -46
-7 -110 -62 -139 -119 -26 -51 -36 -168 -18 -229 6 -24 29 -67 50 -95 37 -48
37 -51 14 -42 -84 32 -167 121 -204 218 -38 101 -21 191 50 263 72 72 165 85
267 38z"/>
</g>
</svg>
