<?xml version="1.0" standalone="no"?>
<!DOCTYPE svg PUBLIC "-//W3C//DTD SVG 20010904//EN"
 "http://www.w3.org/TR/2001/REC-SVG-20010904/DTD/svg10.dtd">
<svg version="1.0" xmlns="http://www.w3.org/2000/svg"
 width="192.000000pt" height="192.000000pt" viewBox="0 0 192.000000 192.000000"
 preserveAspectRatio="xMidYMid meet">
<metadata>
Created by potrace 1.16, written by Peter Selinger 2001-2019
</metadata>
<g transform="translate(0.000000,192.000000) scale(0.100000,-0.100000)"
fill="#000000" stroke="none">
811 c445 -92 729 -532 635 -987 -62 -301 -295 -546 -601 -630 -91 -26 -329
-26 -420 0 -291 80 -516 305 -596 596 -26 91 -26 329 0 420 120 433 542 692
982 601z"/>
<path d="M870 1308 c-40 -15 -74 -40 -124 -90 -60 -60 -72 -68 -106 -68 -27 0
-48 -8 -69 -26 l-31 -26 0 -133 0 -133 31 -26 c22 -18 42 -26 70 -26 36 0 46
-6 95 -60 119 -128 284 -159 439 -84 102 50 195 181 195 274 l0 30 -230 0
-230 0 0 24 c0 21 6 25 33 28 l32 3 3 168 2 167 -27 -1 c-16 0 -53 -10 -83
-21z m-32 -230 c16 -16 16 -210 0 -226 -16 -16 -210 -16 -226 0 -16 16 -16
210 0 226 16 16 210 16 226 0z"/>
<path d="M675 1045 c-22 -21 -25 -33 -25 -99 0 -41 5 -78 10 -81 15 -9 40 14
40 36 0 14 7 19 28 19 36 0 72 37 72 74 0 34 -41 76 -75 76 -14 0 -37 -11 -50
-25z m75 -49 c0 -25 -15 -36 -37 -29 -7 3 -13 16 -13 29 0 19 5 24 25 24 20 0
25 -5 25 -24z"/>
<path d="M1036 1315 c-9 -24 -7 -298 2 -313 7 -9 47 -12 168 -10 l159 3 3 26
c5 45 -36 136 -88 192 -76 83 -227 147 -244 102z"/>
</g>
</svg>
