<?xml version="1.0" standalone="no"?>
<!DOCTYPE svg PUBLIC "-//W3C//DTD SVG 20010904//EN"
 "http://www.w3.org/TR/2001/REC-SVG-20010904/DTD/svg10.dtd">
<svg version="1.0" xmlns="http://www.w3.org/2000/svg"
 width="192.000000pt" height="192.000000pt" viewBox="0 0 192.000000 192.000000"
 preserveAspectRatio="xMidYMid meet">
<metadata>
Created by potrace 1.16, written by Peter Selinger 2001-2019
</metadata>
<g transform="translate(0.000000,192.000000) scale(0.100000,-0.100000)"
fill="#000000" stroke="none">
811 c445 -92 729 -532 635 -987 -62 -301 -295 -546 -601 -630 -91 -26 -329
-26 -420 0 -291 80 -516 305 -596 596 -26 91 -26 329 0 420 120 433 542 692
982 601z"/>
<path d="M694 1326 c-27 -27 -34 -42 -34 -73 0 -21 7 -48 15 -61 9 -12 81 -67
160 -122 80 -56 145 -103 145 -105 0 -2 -63 -47 -140 -100 -76 -53 -148 -108
-160 -122 -49 -62 -7 -159 75 -170 37 -5 48 1 155 74 322 218 350 239 366 269
22 41 12 93 -24 126 -27 25 -324 234 -411 289 -62 40 -103 39 -147 -5z"/>
</g>
</svg>
