<?xml version="1.0" standalone="no"?>
<!DOCTYPE svg PUBLIC "-//W3C//DTD SVG 20010904//EN"
 "http://www.w3.org/TR/2001/REC-SVG-20010904/DTD/svg10.dtd">
<svg version="1.0" xmlns="http://www.w3.org/2000/svg"
 width="192.000000pt" height="192.000000pt" viewBox="0 0 192.000000 192.000000"
 preserveAspectRatio="xMidYMid meet">
<metadata>
Created by potrace 1.16, written by Peter Selinger 2001-2019
</metadata>
<g transform="translate(0.000000,192.000000) scale(0.100000,-0.100000)"
fill="#000000" stroke="none">
811 c445 -92 729 -532 635 -987 -62 -301 -295 -546 -601 -630 -91 -26 -329
-26 -420 0 -291 80 -516 305 -596 596 -26 91 -26 329 0 420 120 433 542 692
982 601z"/>
<path d="M782 1341 c-87 -5 -106 -9 -118 -25 -22 -31 -17 -79 10 -105 23 -22
30 -23 105 -16 l81 7 -16 -53 c-9 -30 -19 -57 -23 -61 -4 -4 -31 -12 -61 -18
-157 -30 -249 -169 -209 -315 14 -51 74 -110 125 -124 102 -27 179 42 240 218
10 29 24 56 31 58 14 6 110 -24 118 -37 8 -13 -53 -89 -95 -118 -67 -47 -73
-88 -18 -139 23 -21 38 -26 70 -24 24 2 132 104 165 157 22 36 32 43 48 38 75
-24 101 -13 123 54 16 47 1 78 -51 103 l-44 21 5 104 c6 125 -4 144 -73 144
-57 0 -72 -19 -80 -106 l-7 -71 -57 15 c-31 9 -58 17 -60 18 -2 2 9 42 23 90
30 96 28 129 -9 164 -28 27 -69 30 -223 21z m-12 -433 c0 -16 -47 -118 -54
-118 -3 0 -10 9 -16 20 -8 14 -7 29 4 54 18 43 66 75 66 44z"/>
</g>
</svg>
