<?xml version="1.0" standalone="no"?>
<!DOCTYPE svg PUBLIC "-//W3C//DTD SVG 20010904//EN"
 "http://www.w3.org/TR/2001/REC-SVG-20010904/DTD/svg10.dtd">
<svg version="1.0" xmlns="http://www.w3.org/2000/svg"
 width="192.000000pt" height="192.000000pt" viewBox="0 0 192.000000 192.000000"
 preserveAspectRatio="xMidYMid meet">
<metadata>
Created by potrace 1.16, written by Peter Selinger 2001-2019
</metadata>
<g transform="translate(0.000000,192.000000) scale(0.100000,-0.100000)"
fill="#000000" stroke="none">
811 c445 -92 729 -532 635 -987 -62 -301 -295 -546 -601 -630 -91 -26 -329
-26 -420 0 -291 80 -516 305 -596 596 -26 91 -26 329 0 420 120 433 542 692
982 601z"/>
<path d="M514 1365 c-9 -21 2 -32 39 -39 59 -11 97 -70 97 -149 0 -23 -16
-163 -36 -310 -34 -255 -35 -270 -18 -288 21 -24 66 -25 86 -1 10 11 23 76 38
197 32 263 27 251 67 153 122 -296 124 -299 159 -314 42 -17 89 -2 108 35 8
14 42 99 76 189 35 89 64 161 66 159 2 -2 13 -91 25 -198 13 -114 27 -203 35
-216 11 -18 24 -23 57 -23 80 0 80 1 32 363 -25 196 -38 264 -51 278 -22 24
-109 27 -134 4 -9 -8 -50 -103 -90 -210 -41 -107 -77 -191 -81 -187 -4 4 -41
90 -84 192 -42 102 -88 204 -101 228 -34 58 -89 110 -138 133 -51 23 -144 26
-152 4z"/>
</g>
</svg>
