<?xml version="1.0" standalone="no"?>
<!DOCTYPE svg PUBLIC "-//W3C//DTD SVG 20010904//EN"
 "http://www.w3.org/TR/2001/REC-SVG-20010904/DTD/svg10.dtd">
<svg version="1.0" xmlns="http://www.w3.org/2000/svg"
 width="192.000000pt" height="192.000000pt" viewBox="0 0 192.000000 192.000000"
 preserveAspectRatio="xMidYMid meet">
<metadata>
Created by potrace 1.16, written by Peter Selinger 2001-2019
</metadata>
<g transform="translate(0.000000,192.000000) scale(0.100000,-0.100000)"
fill="#000000" stroke="none">
811 c445 -92 729 -532 635 -987 -62 -301 -295 -546 -601 -630 -91 -26 -329
-26 -420 0 -291 80 -516 305 -596 596 -26 91 -26 329 0 420 120 433 542 692
982 601z"/>
<path d="M779 1347 c-64 -43 -139 -187 -139 -268 0 -66 49 -101 240 -172 188
-70 234 -54 312 108 76 159 61 222 -67 281 -80 37 -218 74 -276 74 -21 0 -50
-9 -70 -23z m87 -152 c28 -28 29 -58 2 -63 -11 -2 -18 5 -20 20 -3 23 -27 29
-67 17 -25 -7 -23 27 1 39 36 17 57 14 84 -13z m239 -35 c17 -19 17 -22 1 -65
-10 -25 -24 -52 -33 -60 -21 -22 -60 -18 -77 6 -13 19 -13 26 1 63 30 76 70
98 108 56z"/>
<path d="M1235 1033 c-28 -75 -85 -163 -119 -184 -17 -11 -49 -19 -73 -19 -79
0 -355 111 -402 161 -16 17 -21 19 -25 8 -20 -61 -8 -177 25 -241 49 -96 145
-167 255 -188 205 -40 407 126 408 335 1 68 -26 175 -43 175 -5 0 -16 -21 -26
-47z m-354 -243 c31 0 39 -4 39 -18 0 -25 -20 -42 -49 -42 -48 1 -91 52 -91
107 l1 28 30 -37 c26 -32 37 -38 70 -38z"/>
</g>
</svg>
