<?xml version="1.0" standalone="no"?>
<!DOCTYPE svg PUBLIC "-//W3C//DTD SVG 20010904//EN"
 "http://www.w3.org/TR/2001/REC-SVG-20010904/DTD/svg10.dtd">
<svg version="1.0" xmlns="http://www.w3.org/2000/svg"
 width="192.000000pt" height="192.000000pt" viewBox="0 0 192.000000 192.000000"
 preserveAspectRatio="xMidYMid meet">
<metadata>
Created by potrace 1.16, written by Peter Selinger 2001-2019
</metadata>
<g transform="translate(0.000000,192.000000) scale(0.100000,-0.100000)"
fill="#000000" stroke="none">
811 c445 -92 729 -532 635 -987 -62 -301 -295 -546 -601 -630 -91 -26 -329
-26 -420 0 -291 80 -516 305 -596 596 -26 91 -26 329 0 420 120 433 542 692
982 601z"/>
<path d="M668 1311 c-30 -19 -52 -44 -67 -73 -20 -41 -21 -60 -21 -271 0 -240
4 -263 48 -310 59 -63 79 -67 324 -67 246 0 274 6 330 66 44 48 48 72 48 311
0 211 -1 230 -21 271 -15 29 -37 54 -67 73 l-46 29 -241 0 -241 0 -46 -29z
m533 -54 c58 -39 70 -75 67 -212 l-3 -120 -25 0 c-25 0 -25 1 -28 98 l-3 98
-62 -3 -62 -3 -3 -163 -2 -163 -63 3 -62 3 -5 110 -5 110 -57 3 -58 3 0 34 c0
59 -6 65 -71 65 l-58 0 -3 -87 c-3 -86 -3 -88 -28 -88 -25 0 -25 0 -28 110 -3
126 10 164 67 202 33 22 42 23 246 23 204 0 213 -1 246 -23z"/>
</g>
</svg>
