<?xml version="1.0" standalone="no"?>
<!DOCTYPE svg PUBLIC "-//W3C//DTD SVG 20010904//EN"
 "http://www.w3.org/TR/2001/REC-SVG-20010904/DTD/svg10.dtd">
<svg version="1.0" xmlns="http://www.w3.org/2000/svg"
 width="192.000000pt" height="192.000000pt" viewBox="0 0 192.000000 192.000000"
 preserveAspectRatio="xMidYMid meet">
<metadata>
Created by potrace 1.16, written by Peter Selinger 2001-2019
</metadata>
<g transform="translate(0.000000,192.000000) scale(0.100000,-0.100000)"
fill="#000000" stroke="none">
811 c445 -92 729 -532 635 -987 -62 -301 -295 -546 -601 -630 -91 -26 -329
-26 -420 0 -291 80 -516 305 -596 596 -26 91 -26 329 0 420 120 433 542 692
982 601z"/>
<path d="M883 1383 c-8 -2 -13 -22 -13 -44 0 -26 -4 -39 -13 -39 -8 0 -36 -11
-62 -25 -45 -22 -51 -23 -67 -8 -16 14 -20 14 -42 -1 -39 -25 -51 -54 -32 -75
15 -17 15 -21 -9 -62 -13 -24 -25 -52 -25 -61 0 -14 -8 -18 -33 -18 -46 0 -57
-15 -57 -81 0 -80 5 -89 51 -89 26 0 39 -4 39 -14 0 -7 11 -35 25 -61 25 -45
25 -48 8 -67 -16 -18 -15 -20 20 -55 34 -35 37 -36 55 -20 17 15 21 15 67 -8
26 -14 54 -25 62 -25 8 0 13 -13 13 -39 0 -46 9 -51 89 -51 66 0 81 11 81 57
0 18 5 33 11 33 6 0 34 11 61 25 48 24 52 25 70 8 18 -16 20 -15 55 20 35 34
36 37 20 55 -16 17 -15 22 10 80 25 57 30 61 63 64 l35 3 0 80 0 80 -35 3
c-32 3 -37 8 -62 63 -25 55 -26 62 -13 83 14 21 13 24 -20 56 -32 31 -35 32
-58 17 -22 -14 -26 -14 -53 3 -16 11 -41 22 -56 26 -24 5 -28 11 -28 38 0 18
-5 37 -12 44 -12 12 -120 16 -145 5z m142 -418 l0 -70 -70 0 -70 0 -3 59 c-4
86 -3 87 75 84 l68 -3 0 -70z"/>
</g>
</svg>
