<?xml version="1.0" standalone="no"?>
<!DOCTYPE svg PUBLIC "-//W3C//DTD SVG 20010904//EN"
 "http://www.w3.org/TR/2001/REC-SVG-20010904/DTD/svg10.dtd">
<svg version="1.0" xmlns="http://www.w3.org/2000/svg"
 width="192.000000pt" height="192.000000pt" viewBox="0 0 192.000000 192.000000"
 preserveAspectRatio="xMidYMid meet">
<metadata>
Created by potrace 1.16, written by Peter Selinger 2001-2019
</metadata>
<g transform="translate(0.000000,192.000000) scale(0.100000,-0.100000)"
fill="#000000" stroke="none">
811 c445 -92 729 -532 635 -987 -62 -301 -295 -546 -601 -630 -91 -26 -329
-26 -420 0 -291 80 -516 305 -596 596 -26 91 -26 329 0 420 120 433 542 692
982 601z"/>
<path d="M1186 1339 c-53 -62 -17 -148 62 -149 44 0 68 14 88 51 32 62 -13
129 -86 129 -30 0 -44 -6 -64 -31z"/>
<path d="M760 1107 c-67 -19 -115 -52 -149 -103 -56 -85 -64 -206 -20 -300 27
-55 96 -120 145 -133 55 -15 148 -14 188 3 53 22 111 81 137 139 32 71 32 182
0 248 -57 118 -182 179 -301 146z"/>
<path d="M1227 1100 c-45 -36 -62 -107 -62 -265 0 -191 32 -283 96 -273 106
15 117 476 13 545 -18 12 -24 11 -47 -7z"/>
</g>
</svg>
