<?xml version="1.0" standalone="no"?>
<!DOCTYPE svg PUBLIC "-//W3C//DTD SVG 20010904//EN"
 "http://www.w3.org/TR/2001/REC-SVG-20010904/DTD/svg10.dtd">
<svg version="1.0" xmlns="http://www.w3.org/2000/svg"
 width="192.000000pt" height="192.000000pt" viewBox="0 0 192.000000 192.000000"
 preserveAspectRatio="xMidYMid meet">
<metadata>
Created by potrace 1.16, written by Peter Selinger 2001-2019
</metadata>
<g transform="translate(0.000000,192.000000) scale(0.100000,-0.100000)"
fill="#000000" stroke="none">
811 c445 -92 729 -532 635 -987 -62 -301 -295 -546 -601 -630 -91 -26 -329
-26 -420 0 -291 80 -516 305 -596 596 -26 91 -26 329 0 420 120 433 542 692
982 601z"/>
<path d="M695 1321 c-48 -22 -79 -54 -100 -103 -12 -30 -15 -81 -15 -256 0
-210 1 -221 23 -263 13 -24 43 -57 66 -74 l43 -30 243 0 243 0 43 30 c23 17
53 50 66 74 22 42 23 53 23 263 0 233 -5 265 -53 317 -50 54 -83 61 -322 61
-193 0 -225 -3 -260 -19z m105 -202 c0 -5 -7 -9 -15 -9 -15 0 -20 12 -9 23 8
8 24 -1 24 -14z m140 -10 c0 -14 5 -19 13 -16 8 3 20 2 27 -3 17 -10 19 -82 3
-87 -9 -3 -13 7 -13 31 0 25 -4 36 -15 36 -10 0 -15 -11 -15 -35 0 -19 -4 -35
-10 -35 -6 0 -10 28 -10 65 0 37 4 65 10 65 6 0 10 -9 10 -21z m-268 -14 c6
-14 14 -25 18 -25 4 0 12 11 18 25 6 14 18 25 27 25 12 0 15 -13 15 -60 0 -66
-17 -83 -22 -22 l-3 37 -14 -27 c-8 -16 -17 -28 -21 -28 -4 0 -13 12 -21 28
l-14 27 -3 -37 c-5 -61 -22 -44 -22 22 0 47 3 60 15 60 9 0 21 -11 27 -25z
m212 -11 c21 -20 22 -84 2 -84 -10 0 -16 13 -18 38 -2 20 -7 37 -13 37 -5 0
-11 -17 -13 -37 -4 -53 -22 -48 -22 6 0 38 3 45 23 49 12 2 23 5 24 6 1 0 9
-6 17 -15z m187 6 c14 -8 19 -21 19 -51 l0 -40 -37 3 c-30 2 -39 8 -41 24 -2
16 4 23 22 28 15 3 26 11 26 17 0 6 -9 8 -20 4 -11 -3 -20 -2 -20 3 0 9 11 17
28 21 2 1 12 -4 23 -9z m-273 -42 c-4 -59 -28 -63 -28 -4 0 35 4 46 16 46 12
0 14 -9 12 -42z m342 -48 c0 -22 -4 -40 -10 -40 -5 0 -10 18 -10 40 0 22 5 40
10 40 6 0 10 -18 10 -40z m99 -26 c-35 -36 -49 -42 -49 -21 0 16 62 67 73 60
5 -3 -6 -20 -24 -39z m-474 -34 c25 -28 10 -37 -26 -16 -28 16 -32 16 -54 2
-15 -10 -25 -26 -25 -41 0 -15 10 -31 25 -41 22 -14 26 -14 54 2 36 21 51 12
26 -16 -28 -31 -88 -27 -114 6 -43 54 -10 124 58 124 25 0 44 -7 56 -20z m70
-55 c0 -46 -4 -70 -12 -72 -10 -4 -13 15 -13 72 0 57 3 76 13 73 8 -3 12 -27
12 -73z m120 -19 l0 -59 -35 -2 c-51 -2 -60 4 -60 36 0 25 5 30 30 36 31 6 47
19 36 30 -3 4 -17 0 -31 -7 -29 -16 -43 -7 -25 15 9 11 26 15 49 13 l36 -3 0
-59z m105 53 c0 -4 -9 -13 -19 -19 -13 -6 -21 -23 -23 -47 -2 -20 -9 -38 -15
-41 -10 -3 -13 13 -13 55 l0 59 35 1 c19 1 35 -3 35 -8z m112 -6 c27 -24 23
-68 -8 -92 -15 -12 -33 -21 -41 -21 -21 0 -63 46 -63 70 0 49 73 78 112 43z
m118 -28 c0 -16 -64 -22 -74 -6 -9 14 5 21 41 21 23 0 33 -5 33 -15z"/>
<path d="M1030 1030 c0 -5 7 -10 15 -10 8 0 15 5 15 10 0 6 -7 10 -15 10 -8 0
-15 -4 -15 -10z"/>
<path d="M908 862 c-22 -4 -24 -32 -3 -32 9 0 18 7 22 15 7 19 3 22 -19 17z"/>
<path d="M1095 879 c-10 -30 18 -58 43 -43 9 6 17 22 17 35 0 34 -50 41 -60 8z"/>
</g>
</svg>
