<?xml version="1.0" standalone="no"?>
<!DOCTYPE svg PUBLIC "-//W3C//DTD SVG 20010904//EN"
 "http://www.w3.org/TR/2001/REC-SVG-20010904/DTD/svg10.dtd">
<svg version="1.0" xmlns="http://www.w3.org/2000/svg"
 width="192.000000pt" height="192.000000pt" viewBox="0 0 192.000000 192.000000"
 preserveAspectRatio="xMidYMid meet">
<metadata>
Created by potrace 1.16, written by Peter Selinger 2001-2019
</metadata>
<g transform="translate(0.000000,192.000000) scale(0.100000,-0.100000)"
fill="#000000" stroke="none">
811 c445 -92 729 -532 635 -987 -62 -301 -295 -546 -601 -630 -91 -26 -329
-26 -420 0 -291 80 -516 305 -596 596 -26 91 -26 329 0 420 120 433 542 692
982 601z"/>
<path d="M852 1365 c-29 -8 -65 -21 -80 -29 -36 -19 -102 -72 -119 -96 -14
-20 -10 -20 302 -20 313 0 316 0 302 20 -25 36 -101 90 -157 111 -72 27 -179
33 -248 14z"/>
<path d="M591 1153 c-13 -26 -41 -123 -41 -145 0 -17 20 -18 405 -18 l405 0 0
23 c-1 12 -11 51 -23 87 l-22 65 -357 3 c-332 2 -358 1 -367 -15z"/>
<path d="M554 899 c4 -23 16 -64 28 -90 l20 -49 353 0 353 0 20 49 c12 26 24
67 28 90 l7 41 -408 0 -408 0 7 -41z"/>
<path d="M675 669 c50 -50 142 -96 220 -109 117 -19 259 26 340 109 l39 41
-319 0 -319 0 39 -41z"/>
</g>
</svg>
