<?xml version="1.0" standalone="no"?>
<!DOCTYPE svg PUBLIC "-//W3C//DTD SVG 20010904//EN"
 "http://www.w3.org/TR/2001/REC-SVG-20010904/DTD/svg10.dtd">
<svg version="1.0" xmlns="http://www.w3.org/2000/svg"
 width="192.000000pt" height="192.000000pt" viewBox="0 0 192.000000 192.000000"
 preserveAspectRatio="xMidYMid meet">
<metadata>
Created by potrace 1.16, written by Peter Selinger 2001-2019
</metadata>
<g transform="translate(0.000000,192.000000) scale(0.100000,-0.100000)"
fill="#000000" stroke="none">
811 c445 -92 729 -532 635 -987 -62 -301 -295 -546 -601 -630 -91 -26 -329
-26 -420 0 -291 80 -516 305 -596 596 -26 91 -26 329 0 420 120 433 542 692
982 601z"/>
<path d="M1211 1301 c-37 -37 -40 -163 -5 -202 24 -26 68 -33 102 -15 37 19
42 32 42 115 0 88 -22 121 -81 121 -25 0 -46 -7 -58 -19z"/>
<path d="M603 1230 c-12 -5 -26 -18 -32 -29 -14 -26 -15 -535 -1 -561 12 -23
59 -39 94 -33 52 10 56 29 56 255 l0 208 74 0 75 0 3 -210 c3 -198 4 -211 24
-231 33 -32 90 -30 120 5 24 27 24 31 24 232 l0 204 30 0 c37 0 85 23 94 45 8
21 8 59 0 80 -16 40 -53 45 -301 44 -131 0 -248 -4 -260 -9z"/>
<path d="M1240 1053 c-48 -18 -50 -26 -50 -217 0 -199 5 -219 57 -229 32 -6
71 7 89 31 10 12 13 64 14 189 0 94 -3 179 -6 188 -12 30 -69 51 -104 38z"/>
</g>
</svg>
