<?xml version="1.0" standalone="no"?>
<!DOCTYPE svg PUBLIC "-//W3C//DTD SVG 20010904//EN"
 "http://www.w3.org/TR/2001/REC-SVG-20010904/DTD/svg10.dtd">
<svg version="1.0" xmlns="http://www.w3.org/2000/svg"
 width="192.000000pt" height="192.000000pt" viewBox="0 0 192.000000 192.000000"
 preserveAspectRatio="xMidYMid meet">
<metadata>
Created by potrace 1.16, written by Peter Selinger 2001-2019
</metadata>
<g transform="translate(0.000000,192.000000) scale(0.100000,-0.100000)"
fill="#000000" stroke="none">
811 c445 -92 729 -532 635 -987 -62 -301 -295 -546 -601 -630 -91 -26 -329
-26 -420 0 -291 80 -516 305 -596 596 -26 91 -26 329 0 420 120 433 542 692
982 601z"/>
<path d="M918 1353 c-9 -10 -38 -66 -66 -126 l-51 -107 -124 -59 c-126 -59
-145 -77 -130 -118 4 -9 62 -42 130 -74 l124 -59 51 -108 c57 -121 72 -142
103 -142 32 0 48 23 105 143 l50 107 124 59 c181 86 181 106 -1 192 l-124 59
-51 108 c-56 121 -72 142 -103 142 -12 0 -29 -8 -37 -17z m110 -328 c51 -59 6
-155 -73 -155 -74 0 -121 88 -79 148 34 49 112 52 152 7z"/>
<path d="M645 1259 c-15 -23 19 -149 41 -149 41 0 91 32 113 74 13 24 21 48
17 54 -14 23 -159 42 -171 21z"/>
<path d="M1143 1259 c-52 -12 -59 -30 -30 -80 16 -28 34 -44 64 -55 23 -9 48
-14 56 -11 16 6 42 118 34 142 -7 17 -56 19 -124 4z"/>
<path d="M672 808 c-5 -7 -16 -41 -23 -75 -17 -84 -12 -89 80 -72 90 16 101
28 73 77 -30 54 -108 96 -130 70z"/>
<path d="M1171 798 c-51 -27 -91 -88 -73 -111 17 -20 150 -43 165 -28 20 20
-17 161 -42 161 -4 0 -26 -10 -50 -22z"/>
</g>
</svg>
