<?xml version="1.0" standalone="no"?>
<!DOCTYPE svg PUBLIC "-//W3C//DTD SVG 20010904//EN"
 "http://www.w3.org/TR/2001/REC-SVG-20010904/DTD/svg10.dtd">
<svg version="1.0" xmlns="http://www.w3.org/2000/svg"
 width="192.000000pt" height="192.000000pt" viewBox="0 0 192.000000 192.000000"
 preserveAspectRatio="xMidYMid meet">
<metadata>
Created by potrace 1.16, written by Peter Selinger 2001-2019
</metadata>
<g transform="translate(0.000000,192.000000) scale(0.100000,-0.100000)"
fill="#000000" stroke="none">
811 c445 -92 729 -532 635 -987 -62 -301 -295 -546 -601 -630 -91 -26 -329
-26 -420 0 -291 80 -516 305 -596 596 -26 91 -26 329 0 420 120 433 542 692
982 601z"/>
<path d="M714 1366 c-7 -18 2 -101 12 -117 3 -5 33 -9 68 -9 35 0 85 -7 112
-15 67 -20 84 -19 84 5 0 27 -74 100 -125 124 -57 27 -143 34 -151 12z"/>
<path d="M1055 1221 c-17 -10 -38 -30 -48 -44 l-17 -26 -47 21 c-66 29 -195
36 -263 14 -75 -25 -130 -64 -130 -92 0 -18 13 -30 60 -55 73 -39 135 -91 156
-131 9 -16 14 -31 12 -32 -2 -1 -30 -17 -63 -36 -88 -48 -125 -79 -125 -104 0
-25 197 -186 228 -186 13 0 34 24 67 74 l48 74 65 12 c77 13 126 37 171 82 37
37 76 114 86 170 7 34 11 39 54 50 37 11 47 18 49 38 2 20 -6 30 -35 48 -22
14 -46 40 -56 63 -10 21 -33 47 -51 59 -43 26 -120 27 -161 1z"/>
</g>
</svg>
