<?xml version="1.0" standalone="no"?>
<!DOCTYPE svg PUBLIC "-//W3C//DTD SVG 20010904//EN"
 "http://www.w3.org/TR/2001/REC-SVG-20010904/DTD/svg10.dtd">
<svg version="1.0" xmlns="http://www.w3.org/2000/svg"
 width="192.000000pt" height="192.000000pt" viewBox="0 0 192.000000 192.000000"
 preserveAspectRatio="xMidYMid meet">
<metadata>
Created by potrace 1.16, written by Peter Selinger 2001-2019
</metadata>
<g transform="translate(0.000000,192.000000) scale(0.100000,-0.100000)"
fill="#000000" stroke="none">
811 c445 -92 729 -532 635 -987 -62 -301 -295 -546 -601 -630 -91 -26 -329
-26 -420 0 -291 80 -516 305 -596 596 -26 91 -26 329 0 420 120 433 542 692
982 601z"/>
<path d="M713 1364 c-6 -16 3 -99 13 -115 3 -5 33 -9 68 -9 35 0 85 -7 112
-15 27 -8 57 -15 67 -15 60 0 -45 125 -129 154 -62 21 -123 21 -131 0z"/>
<path d="M1105 1240 c-44 -10 -71 -26 -95 -59 l-20 -30 -48 21 c-58 26 -182
35 -249 19 -69 -18 -143 -67 -143 -96 0 -19 13 -31 60 -56 73 -39 135 -91 156
-131 9 -16 14 -31 12 -32 -2 -1 -30 -17 -63 -35 -89 -49 -125 -79 -125 -104 0
-16 30 -45 110 -109 62 -49 117 -85 124 -82 8 3 35 38 61 79 47 73 48 74 99
80 68 9 143 44 185 86 38 39 78 117 87 171 6 34 10 39 53 51 37 10 47 17 49
37 2 20 -6 30 -35 48 -22 14 -46 40 -56 62 -28 60 -96 94 -162 80z"/>
</g>
</svg>
