<?xml version="1.0" standalone="no"?>
<!DOCTYPE svg PUBLIC "-//W3C//DTD SVG 20010904//EN"
 "http://www.w3.org/TR/2001/REC-SVG-20010904/DTD/svg10.dtd">
<svg version="1.0" xmlns="http://www.w3.org/2000/svg"
 width="192.000000pt" height="192.000000pt" viewBox="0 0 192.000000 192.000000"
 preserveAspectRatio="xMidYMid meet">
<metadata>
Created by potrace 1.16, written by Peter Selinger 2001-2019
</metadata>
<g transform="translate(0.000000,192.000000) scale(0.100000,-0.100000)"
fill="#000000" stroke="none">
811 c445 -92 729 -532 635 -987 -62 -301 -295 -546 -601 -630 -91 -26 -329
-26 -420 0 -291 80 -516 305 -596 596 -26 91 -26 329 0 420 120 433 542 692
982 601z"/>
<path d="M611 1317 c-48 -28 -50 -42 -51 -350 0 -317 3 -333 59 -357 39 -16
86 -5 111 27 18 23 20 40 20 197 l0 171 78 -77 c85 -85 119 -100 168 -75 16 8
100 87 187 175 156 159 157 160 157 205 0 38 -5 49 -31 71 -59 50 -77 41 -223
-104 l-132 -130 -125 125 c-133 134 -165 152 -218 122z"/>
<path d="M1193 805 c-91 -39 -75 -183 23 -201 67 -12 124 33 124 100 0 50 -21
83 -66 102 -40 17 -41 17 -81 -1z"/>
</g>
</svg>
