<?xml version="1.0" standalone="no"?>
<!DOCTYPE svg PUBLIC "-//W3C//DTD SVG 20010904//EN"
 "http://www.w3.org/TR/2001/REC-SVG-20010904/DTD/svg10.dtd">
<svg version="1.0" xmlns="http://www.w3.org/2000/svg"
 width="192.000000pt" height="192.000000pt" viewBox="0 0 192.000000 192.000000"
 preserveAspectRatio="xMidYMid meet">
<metadata>
Created by potrace 1.16, written by Peter Selinger 2001-2019
</metadata>
<g transform="translate(0.000000,192.000000) scale(0.100000,-0.100000)"
fill="#000000" stroke="none">
811 c445 -92 729 -532 635 -987 -62 -301 -295 -546 -601 -630 -91 -26 -329
-26 -420 0 -291 80 -516 305 -596 596 -26 91 -26 329 0 420 120 433 542 692
982 601z"/>
<path d="M552 1258 c-17 -17 -17 -569 0 -586 13 -13 85 -16 112 -6 14 5 16 41
16 299 0 258 -2 294 -16 299 -27 10 -99 7 -112 -6z"/>
<path d="M772 1258 c-7 -7 -12 -35 -12 -63 0 -28 5 -56 12 -63 7 -7 34 -12 60
-12 l48 0 0 -123 c0 -82 4 -127 12 -135 15 -15 82 -16 109 -2 18 10 19 23 19
198 0 133 -4 192 -12 200 -16 16 -220 16 -236 0z"/>
<path d="M1116 1254 c-10 -9 -16 -33 -16 -59 0 -56 19 -75 76 -75 l44 0 0
-218 c0 -156 3 -221 12 -230 7 -7 33 -12 59 -12 81 0 79 -7 79 305 0 235 -2
276 -16 289 -12 13 -38 16 -119 16 -81 0 -107 -3 -119 -16z"/>
</g>
</svg>
