<?xml version="1.0" standalone="no"?>
<!DOCTYPE svg PUBLIC "-//W3C//DTD SVG 20010904//EN"
 "http://www.w3.org/TR/2001/REC-SVG-20010904/DTD/svg10.dtd">
<svg version="1.0" xmlns="http://www.w3.org/2000/svg"
 width="192.000000pt" height="192.000000pt" viewBox="0 0 192.000000 192.000000"
 preserveAspectRatio="xMidYMid meet">
<metadata>
Created by potrace 1.16, written by Peter Selinger 2001-2019
</metadata>
<g transform="translate(0.000000,192.000000) scale(0.100000,-0.100000)"
fill="#000000" stroke="none">
811 c445 -92 729 -532 635 -987 -62 -301 -295 -546 -601 -630 -91 -26 -329
-26 -420 0 -291 80 -516 305 -596 596 -26 91 -26 329 0 420 120 433 542 692
982 601z"/>
<path d="M856 1370 c-66 -17 -155 -71 -202 -124 -78 -85 -114 -179 -114 -293
0 -51 4 -64 20 -76 11 -8 27 -36 35 -63 30 -101 110 -191 211 -236 74 -33 201
-37 277 -8 109 41 188 121 228 230 12 32 30 67 40 76 15 14 19 31 19 89 0 164
-92 305 -247 377 -51 24 -80 31 -146 34 -45 2 -99 -1 -121 -6z m422 -400 c2
-19 -5 -62 -16 -95 l-18 -60 -284 0 -285 0 -13 27 c-17 37 -36 134 -29 153 6
13 43 15 324 13 l318 -3 3 -35z m-130 -246 c4 -31 -57 -80 -124 -100 -47 -13
-66 -14 -113 -5 -84 17 -162 77 -148 115 6 15 27 16 194 14 182 -3 188 -4 191
-24z"/>
</g>
</svg>
