<?xml version="1.0" standalone="no"?>
<!DOCTYPE svg PUBLIC "-//W3C//DTD SVG 20010904//EN"
 "http://www.w3.org/TR/2001/REC-SVG-20010904/DTD/svg10.dtd">
<svg version="1.0" xmlns="http://www.w3.org/2000/svg"
 width="192.000000pt" height="192.000000pt" viewBox="0 0 192.000000 192.000000"
 preserveAspectRatio="xMidYMid meet">
<metadata>
Created by potrace 1.16, written by Peter Selinger 2001-2019
</metadata>
<g transform="translate(0.000000,192.000000) scale(0.100000,-0.100000)"
fill="#000000" stroke="none">
811 c445 -92 729 -532 635 -987 -62 -301 -295 -546 -601 -630 -91 -26 -329
-26 -420 0 -291 80 -516 305 -596 596 -26 91 -26 329 0 420 120 433 542 692
982 601z"/>
<path d="M695 1326 c-43 -19 -94 -74 -106 -116 -6 -21 -9 -125 -7 -267 l3
-231 31 -39 c53 -65 85 -77 207 -82 l107 -3 0 105 0 105 -28 5 c-40 8 -82 45
-103 91 -23 50 -24 95 -4 143 11 25 15 73 15 169 l0 134 -42 0 c-24 -1 -56 -7
-73 -14z"/>
<path d="M860 1230 l0 -110 28 6 c15 4 30 9 35 11 4 2 7 49 7 104 l0 99 -35 0
-35 0 0 -110z"/>
<path d="M980 1240 c0 -87 2 -101 18 -106 9 -3 25 -10 35 -15 16 -8 17 -1 17
106 l0 115 -35 0 -35 0 0 -100z"/>
<path d="M1110 1199 c1 -79 7 -168 13 -198 l13 -54 93 -53 c51 -30 95 -54 97
-54 3 0 4 85 2 188 -3 180 -4 190 -27 224 -35 51 -84 80 -141 86 l-50 5 0
-144z"/>
<path d="M869 1051 c-32 -32 -39 -46 -39 -77 0 -22 6 -50 13 -64 17 -34 74
-70 112 -70 38 0 95 36 112 70 7 14 13 42 13 64 0 31 -7 45 -39 77 -34 34 -44
39 -86 39 -42 0 -52 -5 -86 -39z"/>
<path d="M1100 870 c-6 -11 -8 -26 -4 -33 31 -50 148 -202 156 -202 19 0 69
71 74 106 l5 34 -104 58 c-57 31 -107 57 -110 57 -4 0 -11 -9 -17 -20z"/>
<path d="M1003 800 c-22 -9 -23 -15 -23 -110 l0 -100 93 1 c50 0 99 3 108 7
14 6 3 25 -57 107 -41 55 -80 101 -87 102 -6 1 -22 -2 -34 -7z"/>
</g>
</svg>
