<?xml version="1.0" standalone="no"?>
<!DOCTYPE svg PUBLIC "-//W3C//DTD SVG 20010904//EN"
 "http://www.w3.org/TR/2001/REC-SVG-20010904/DTD/svg10.dtd">
<svg version="1.0" xmlns="http://www.w3.org/2000/svg"
 width="192.000000pt" height="192.000000pt" viewBox="0 0 192.000000 192.000000"
 preserveAspectRatio="xMidYMid meet">
<metadata>
Created by potrace 1.16, written by Peter Selinger 2001-2019
</metadata>
<g transform="translate(0.000000,192.000000) scale(0.100000,-0.100000)"
fill="#000000" stroke="none">
811 c445 -92 729 -532 635 -987 -62 -301 -295 -546 -601 -630 -91 -26 -329
-26 -420 0 -291 80 -516 305 -596 596 -26 91 -26 329 0 420 120 433 542 692
982 601z"/>
<path d="M695 1321 c-50 -22 -91 -69 -105 -119 -13 -48 -13 -426 0 -474 25
-90 101 -137 220 -138 l75 0 87 98 87 97 1 278 0 277 -162 0 c-136 0 -170 -3
-203 -19z"/>
<path d="M1100 1255 l0 -85 110 0 c127 0 131 3 81 82 -33 52 -96 88 -154 88
l-37 0 0 -85z"/>
<path d="M1102 1063 l3 -78 108 -3 107 -3 0 81 0 80 -110 0 -111 0 3 -77z"/>
<path d="M1100 875 l0 -75 110 0 110 0 0 75 0 75 -110 0 -110 0 0 -75z"/>
<path d="M1016 678 l-75 -83 116 -3 c142 -3 188 14 234 86 50 79 47 82 -85 82
l-114 0 -76 -82z"/>
</g>
</svg>
