<?xml version="1.0" standalone="no"?>
<!DOCTYPE svg PUBLIC "-//W3C//DTD SVG 20010904//EN"
 "http://www.w3.org/TR/2001/REC-SVG-20010904/DTD/svg10.dtd">
<svg version="1.0" xmlns="http://www.w3.org/2000/svg"
 width="192.000000pt" height="192.000000pt" viewBox="0 0 192.000000 192.000000"
 preserveAspectRatio="xMidYMid meet">
<metadata>
Created by potrace 1.16, written by Peter Selinger 2001-2019
</metadata>
<g transform="translate(0.000000,192.000000) scale(0.100000,-0.100000)"
fill="#000000" stroke="none">
811 c445 -92 729 -532 635 -987 -62 -301 -295 -546 -601 -630 -91 -26 -329
-26 -420 0 -291 80 -516 305 -596 596 -26 91 -26 329 0 420 120 433 542 692
982 601z"/>
<path d="M901 1339 c-10 -17 -38 -72 -60 -123 l-42 -92 -125 -58 c-127 -60
-147 -78 -130 -121 3 -9 61 -42 129 -74 l123 -58 54 -112 c61 -127 78 -146
115 -137 22 6 37 28 85 129 l60 121 109 51 c134 63 143 70 139 109 -3 34 -20
45 -176 114 l-74 33 -50 107 c-58 125 -71 142 -110 142 -21 0 -33 -8 -47 -31z
m100 -289 c23 -13 49 -61 49 -91 0 -11 -16 -37 -35 -56 -31 -31 -40 -35 -72
-30 -67 11 -100 68 -79 135 14 42 91 66 137 42z"/>
<path d="M641 1266 c-9 -10 -8 -28 3 -74 8 -33 17 -65 21 -71 18 -30 102 12
133 67 20 36 21 42 8 55 -9 8 -44 20 -79 26 -78 14 -72 14 -86 -3z"/>
<path d="M1175 1269 c-22 -5 -50 -11 -62 -14 -51 -12 -5 -104 64 -131 55 -21
67 -12 82 67 18 87 6 98 -84 78z"/>
<path d="M665 809 c-12 -19 -33 -122 -28 -135 9 -24 46 -24 149 1 33 8 36 32
9 75 -33 52 -113 88 -130 59z"/>
<path d="M1162 802 c-36 -20 -72 -67 -72 -95 0 -20 24 -32 99 -47 76 -15 87
-3 71 76 -18 89 -34 100 -98 66z"/>
</g>
</svg>
