<?xml version="1.0" standalone="no"?>
<!DOCTYPE svg PUBLIC "-//W3C//DTD SVG 20010904//EN"
 "http://www.w3.org/TR/2001/REC-SVG-20010904/DTD/svg10.dtd">
<svg version="1.0" xmlns="http://www.w3.org/2000/svg"
 width="192.000000pt" height="192.000000pt" viewBox="0 0 192.000000 192.000000"
 preserveAspectRatio="xMidYMid meet">
<metadata>
Created by potrace 1.16, written by Peter Selinger 2001-2019
</metadata>
<g transform="translate(0.000000,192.000000) scale(0.100000,-0.100000)"
fill="#000000" stroke="none">
811 c445 -92 729 -532 635 -987 -62 -301 -295 -546 -601 -630 -91 -26 -329
-26 -420 0 -291 80 -516 305 -596 596 -26 91 -26 329 0 420 120 433 542 692
982 601z"/>
<path d="M850 1364 c-154 -41 -264 -160 -296 -319 -13 -60 -14 -88 -5 -137 24
-139 107 -250 230 -311 62 -30 72 -32 176 -32 98 0 116 3 165 26 68 33 138 94
178 156 73 115 83 276 24 395 -88 180 -285 272 -472 222z m239 -113 c89 -46
141 -112 167 -213 45 -174 -74 -350 -258 -383 l-38 -7 0 317 0 318 45 -6 c25
-4 62 -15 84 -26z m-359 -286 l0 -145 -25 0 -25 0 0 145 0 145 25 0 25 0 0
-145z m140 93 c0 -38 -5 -57 -20 -73 l-20 -22 20 -18 c25 -23 30 -125 6 -125
-19 0 -46 39 -46 65 0 12 -11 32 -25 45 -14 13 -25 29 -25 35 0 6 11 22 25 35
14 13 25 33 25 45 0 26 27 65 46 65 10 0 14 -13 14 -52z"/>
</g>
</svg>
