<?xml version="1.0" standalone="no"?>
<!DOCTYPE svg PUBLIC "-//W3C//DTD SVG 20010904//EN"
 "http://www.w3.org/TR/2001/REC-SVG-20010904/DTD/svg10.dtd">
<svg version="1.0" xmlns="http://www.w3.org/2000/svg"
 width="192.000000pt" height="192.000000pt" viewBox="0 0 192.000000 192.000000"
 preserveAspectRatio="xMidYMid meet">
<metadata>
Created by potrace 1.16, written by Peter Selinger 2001-2019
</metadata>
<g transform="translate(0.000000,192.000000) scale(0.100000,-0.100000)"
fill="#000000" stroke="none">
811 c445 -92 729 -532 635 -987 -62 -301 -295 -546 -601 -630 -91 -26 -329
-26 -420 0 -291 80 -516 305 -596 596 -26 91 -26 329 0 420 120 433 542 692
982 601z"/>
<path d="M1090 1363 c-39 -11 -61 -30 -104 -88 -48 -66 -54 -83 -34 -103 24
-24 47 -11 97 53 34 44 56 63 66 59 8 -4 15 -12 15 -20 0 -8 -72 -111 -160
-229 -88 -119 -160 -224 -160 -235 0 -27 36 -45 57 -28 17 14 296 386 325 433
25 41 23 88 -4 120 -24 26 -72 45 -98 38z"/>
<path d="M733 1307 c-25 -14 -180 -218 -195 -256 -30 -80 74 -163 152 -121 17
9 165 203 190 250 42 79 -66 172 -147 127z m71 -90 c-1 -9 -35 -62 -75 -117
-55 -75 -79 -99 -94 -97 -33 4 -22 29 59 136 53 70 83 101 94 99 9 -2 16 -11
16 -21z"/>
<path d="M855 1098 c-238 -319 -265 -359 -265 -400 0 -57 42 -98 101 -98 38 0
47 5 86 46 44 48 52 71 31 92 -21 21 -46 13 -75 -23 -30 -38 -63 -47 -63 -17
0 10 39 70 86 133 192 255 206 277 194 299 -19 36 -52 25 -95 -32z"/>
<path d="M1180 1113 c-26 -10 -50 -36 -50 -55 0 -24 46 -46 62 -30 7 7 18 12
25 12 36 0 20 -37 -71 -160 -53 -71 -96 -138 -96 -149 0 -23 25 -45 44 -38 24
10 215 271 222 304 14 71 -68 141 -136 116z"/>
<path d="M975 867 c-104 -140 -115 -158 -115 -196 0 -90 99 -134 169 -75 33
28 40 64 16 84 -17 14 -51 5 -59 -15 -7 -18 -42 -20 -49 -2 -3 7 44 79 104
160 60 81 109 152 109 157 0 10 -39 40 -52 40 -4 0 -60 -69 -123 -153z"/>
<path d="M1218 793 c-77 -49 -53 -172 36 -189 100 -18 162 112 86 181 -27 25
-89 29 -122 8z m76 -72 c9 -14 -4 -41 -19 -41 -18 0 -28 17 -21 35 6 17 32 20
40 6z"/>
</g>
</svg>
