<?xml version="1.0" standalone="no"?>
<!DOCTYPE svg PUBLIC "-//W3C//DTD SVG 20010904//EN"
 "http://www.w3.org/TR/2001/REC-SVG-20010904/DTD/svg10.dtd">
<svg version="1.0" xmlns="http://www.w3.org/2000/svg"
 width="192.000000pt" height="192.000000pt" viewBox="0 0 192.000000 192.000000"
 preserveAspectRatio="xMidYMid meet">
<metadata>
Created by potrace 1.16, written by Peter Selinger 2001-2019
</metadata>
<g transform="translate(0.000000,192.000000) scale(0.100000,-0.100000)"
fill="#000000" stroke="none">
811 c445 -92 729 -532 635 -987 -62 -301 -295 -546 -601 -630 -91 -26 -329
-26 -420 0 -291 80 -516 305 -596 596 -26 91 -26 329 0 420 120 433 542 692
982 601z"/>
<path d="M1120 1343 c-37 -13 -120 -68 -120 -80 0 -7 16 -35 35 -61 51 -71 95
-173 108 -247 18 -107 -16 -255 -59 -255 -23 0 -27 24 -10 74 47 139 -17 348
-139 455 -51 45 -156 93 -214 99 -45 4 -48 3 -73 -34 -41 -59 -66 -123 -80
-201 -50 -293 219 -576 486 -510 151 37 260 170 287 347 14 95 3 140 -51 209
-22 28 -40 53 -40 56 0 3 11 5 25 5 25 0 25 0 9 31 -8 17 -34 51 -56 75 -40
43 -66 52 -108 37z m-333 -185 c5 -7 20 -39 33 -71 l23 -57 32 37 c28 33 34
36 49 24 23 -19 20 -32 -20 -84 l-36 -46 27 -76 c28 -75 38 -88 49 -60 7 19
30 19 46 0 11 -13 8 -22 -13 -52 -21 -29 -24 -40 -16 -61 13 -34 4 -54 -23
-50 -18 2 -29 20 -53 83 l-31 80 -62 5 c-65 5 -86 17 -76 43 4 11 21 17 59 19
l53 3 -20 53 c-11 29 -25 55 -31 57 -7 2 -38 9 -70 15 -61 12 -80 31 -56 55
11 11 24 12 58 4 24 -5 45 -8 47 -6 2 2 -1 18 -7 36 -6 17 -8 38 -5 46 7 18
30 20 43 3z"/>
</g>
</svg>
