<?xml version="1.0" standalone="no"?>
<!DOCTYPE svg PUBLIC "-//W3C//DTD SVG 20010904//EN"
 "http://www.w3.org/TR/2001/REC-SVG-20010904/DTD/svg10.dtd">
<svg version="1.0" xmlns="http://www.w3.org/2000/svg"
 width="192.000000pt" height="192.000000pt" viewBox="0 0 192.000000 192.000000"
 preserveAspectRatio="xMidYMid meet">
<metadata>
Created by potrace 1.16, written by Peter Selinger 2001-2019
</metadata>
<g transform="translate(0.000000,192.000000) scale(0.100000,-0.100000)"
fill="#000000" stroke="none">
811 c445 -92 729 -532 635 -987 -62 -301 -295 -546 -601 -630 -91 -26 -329
-26 -420 0 -291 80 -516 305 -596 596 -26 91 -26 329 0 420 120 433 542 692
982 601z"/>
<path d="M865 1317 c-67 -70 -196 -253 -225 -320 -65 -149 -21 -257 156 -377
57 -39 109 -68 114 -65 6 4 10 97 10 243 0 130 4 243 9 250 5 8 17 12 27 10
18 -3 19 -19 24 -252 3 -159 9 -251 15 -253 6 -2 59 28 117 66 152 99 196 166
185 283 -3 33 -16 82 -31 111 -46 94 -235 330 -285 357 -36 19 -56 10 -116
-53z"/>
</g>
</svg>
