<?xml version="1.0" standalone="no"?>
<!DOCTYPE svg PUBLIC "-//W3C//DTD SVG 20010904//EN"
 "http://www.w3.org/TR/2001/REC-SVG-20010904/DTD/svg10.dtd">
<svg version="1.0" xmlns="http://www.w3.org/2000/svg"
 width="192.000000pt" height="192.000000pt" viewBox="0 0 192.000000 192.000000"
 preserveAspectRatio="xMidYMid meet">
<metadata>
Created by potrace 1.16, written by Peter Selinger 2001-2019
</metadata>
<g transform="translate(0.000000,192.000000) scale(0.100000,-0.100000)"
fill="#000000" stroke="none">
811 c445 -92 729 -532 635 -987 -62 -301 -295 -546 -601 -630 -91 -26 -329
-26 -420 0 -291 80 -516 305 -596 596 -26 91 -26 329 0 420 120 433 542 692
982 601z"/>
<path d="M872 1369 c-152 -29 -277 -149 -318 -303 -49 -185 46 -385 224 -469
63 -30 74 -32 177 -32 104 0 114 2 176 32 80 39 160 121 195 197 140 305 -125
640 -454 575z m129 -129 c29 -6 56 -15 60 -22 8 -12 -9 -58 -23 -59 -4 0 -44
-1 -88 -1 -83 -1 -110 9 -110 43 0 26 11 31 101 48 4 0 30 -4 60 -9z m243
-110 c49 -84 56 -114 30 -124 -29 -11 -189 -7 -202 6 -19 19 -15 30 35 117 63
108 76 108 137 1z m-436 38 c19 -19 14 -50 -13 -78 -13 -14 -31 -43 -38 -65
-13 -36 -17 -40 -48 -40 -43 0 -49 25 -21 87 38 86 89 127 120 96z m186 -108
c96 -36 66 -190 -37 -190 -49 0 -73 13 -92 50 -24 46 -19 78 19 116 35 35 64
42 110 24z m-241 -155 c5 -16 22 -47 38 -67 32 -41 35 -56 16 -82 -19 -26 -50
-13 -87 37 -35 47 -56 107 -46 132 4 11 15 15 38 13 25 -2 33 -9 41 -33z m475
3 c4 -30 -24 -90 -64 -137 -32 -39 -64 -38 -78 1 -8 23 -5 32 21 61 17 20 36
52 43 72 11 33 15 36 43 33 26 -2 33 -8 35 -30z m-180 -152 c6 -4 12 -18 12
-32 0 -31 -32 -44 -110 -44 -96 0 -126 21 -101 68 8 14 24 17 98 17 48 -1 94
-4 101 -9z"/>
</g>
</svg>
