<?xml version="1.0" standalone="no"?>
<!DOCTYPE svg PUBLIC "-//W3C//DTD SVG 20010904//EN"
 "http://www.w3.org/TR/2001/REC-SVG-20010904/DTD/svg10.dtd">
<svg version="1.0" xmlns="http://www.w3.org/2000/svg"
 width="192.000000pt" height="192.000000pt" viewBox="0 0 192.000000 192.000000"
 preserveAspectRatio="xMidYMid meet">
<metadata>
Created by potrace 1.16, written by Peter Selinger 2001-2019
</metadata>
<g transform="translate(0.000000,192.000000) scale(0.100000,-0.100000)"
fill="#000000" stroke="none">
811 c445 -92 729 -532 635 -987 -62 -301 -295 -546 -601 -630 -91 -26 -329
-26 -420 0 -291 80 -516 305 -596 596 -26 91 -26 329 0 420 120 433 542 692
982 601z"/>
<path d="M672 1200 c-46 -28 -68 -82 -53 -131 6 -21 25 -49 42 -63 57 -48 152
-27 184 40 21 44 19 75 -8 115 -41 61 -105 76 -165 39z"/>
<path d="M1017 1205 c-15 -14 -17 -43 -17 -239 0 -187 2 -226 15 -236 25 -21
171 -8 229 19 87 43 132 133 123 246 -10 137 -99 213 -258 223 -61 4 -78 1
-92 -13z"/>
<path d="M665 925 c-35 -9 -60 -25 -87 -53 -45 -49 -56 -86 -37 -121 l15 -26
176 -3 177 -2 17 24 c38 59 -39 164 -135 185 -62 13 -63 13 -126 -4z"/>
</g>
</svg>
