<?xml version="1.0" standalone="no"?>
<!DOCTYPE svg PUBLIC "-//W3C//DTD SVG 20010904//EN"
 "http://www.w3.org/TR/2001/REC-SVG-20010904/DTD/svg10.dtd">
<svg version="1.0" xmlns="http://www.w3.org/2000/svg"
 width="192.000000pt" height="192.000000pt" viewBox="0 0 192.000000 192.000000"
 preserveAspectRatio="xMidYMid meet">
<metadata>
Created by potrace 1.16, written by Peter Selinger 2001-2019
</metadata>
<g transform="translate(0.000000,192.000000) scale(0.100000,-0.100000)"
fill="#000000" stroke="none">
811 c445 -92 729 -532 635 -987 -62 -301 -295 -546 -601 -630 -91 -26 -329
-26 -420 0 -291 80 -516 305 -596 596 -26 91 -26 329 0 420 120 433 542 692
982 601z"/>
<path d="M1142 1335 c-12 -9 -67 -70 -122 -135 -55 -65 -105 -122 -110 -125
-6 -4 -47 28 -91 69 -71 67 -85 76 -118 76 -43 0 -72 -22 -101 -80 -24 -48
-25 -88 -2 -115 9 -12 69 -69 133 -128 184 -169 192 -169 352 11 232 260 247
280 247 313 0 44 -13 62 -68 98 -54 34 -87 39 -120 16z"/>
<path d="M1181 958 l-90 -103 -1 -82 c0 -108 5 -113 115 -113 116 0 115 -2
115 206 0 89 -3 169 -6 178 -13 34 -45 13 -133 -86z"/>
<path d="M613 933 c-10 -3 -13 -38 -13 -128 0 -146 -1 -145 110 -145 97 0 110
8 110 69 l0 48 -87 75 c-100 85 -103 87 -120 81z"/>
</g>
</svg>
