<?xml version="1.0" standalone="no"?>
<!DOCTYPE svg PUBLIC "-//W3C//DTD SVG 20010904//EN"
 "http://www.w3.org/TR/2001/REC-SVG-20010904/DTD/svg10.dtd">
<svg version="1.0" xmlns="http://www.w3.org/2000/svg"
 width="192.000000pt" height="192.000000pt" viewBox="0 0 192.000000 192.000000"
 preserveAspectRatio="xMidYMid meet">
<metadata>
Created by potrace 1.16, written by Peter Selinger 2001-2019
</metadata>
<g transform="translate(0.000000,192.000000) scale(0.100000,-0.100000)"
fill="#000000" stroke="none">
811 c445 -92 729 -532 635 -987 -62 -301 -295 -546 -601 -630 -91 -26 -329
-26 -420 0 -291 80 -516 305 -596 596 -26 91 -26 329 0 420 120 433 542 692
982 601z"/>
<path d="M481 1121 c-12 -21 -15 -260 -5 -299 6 -20 12 -23 53 -20 l46 3 3 65
3 65 27 -50 c15 -28 34 -50 42 -50 8 0 27 22 42 50 l27 50 3 -65 3 -65 45 0
45 0 0 165 0 165 -29 3 c-55 7 -70 -4 -100 -73 -15 -36 -31 -65 -35 -65 -3 0
-22 30 -41 68 -34 65 -36 67 -77 70 -33 2 -44 -1 -52 -17z"/>
<path d="M875 1128 c-3 -8 -4 -83 -3 -168 l3 -155 48 -3 47 -3 -2 168 -3 168
-43 3 c-28 2 -44 -1 -47 -10z"/>
<path d="M1027 1134 c-4 -4 -7 -70 -7 -146 0 -134 1 -140 25 -163 22 -22 32
-25 105 -25 45 0 90 5 100 10 11 6 24 27 30 48 12 44 13 251 1 270 -5 9 -24
12 -52 10 l-44 -3 -3 -122 c-2 -100 -5 -122 -19 -127 -34 -13 -42 12 -45 132
l-3 117 -40 3 c-23 2 -44 0 -48 -4z"/>
<path d="M1334 1127 c-2 -7 -3 -82 -2 -167 l3 -155 46 -3 c41 -3 47 0 53 20
10 38 7 278 -4 299 -13 23 -87 28 -96 6z"/>
</g>
</svg>
