<?xml version="1.0" standalone="no"?>
<!DOCTYPE svg PUBLIC "-//W3C//DTD SVG 20010904//EN"
 "http://www.w3.org/TR/2001/REC-SVG-20010904/DTD/svg10.dtd">
<svg version="1.0" xmlns="http://www.w3.org/2000/svg"
 width="192.000000pt" height="192.000000pt" viewBox="0 0 192.000000 192.000000"
 preserveAspectRatio="xMidYMid meet">
<metadata>
Created by potrace 1.16, written by Peter Selinger 2001-2019
</metadata>
<g transform="translate(0.000000,192.000000) scale(0.100000,-0.100000)"
fill="#000000" stroke="none">
811 c445 -92 729 -532 635 -987 -62 -301 -295 -546 -601 -630 -91 -26 -329
-26 -420 0 -291 80 -516 305 -596 596 -26 91 -26 329 0 420 120 433 542 692
982 601z"/>
<path d="M485 1128 c-3 -8 -4 -83 -3 -168 l3 -155 45 0 45 0 3 65 3 65 27 -50
c15 -28 34 -50 42 -50 8 0 27 22 42 50 l27 50 3 -65 3 -65 45 0 45 0 0 165 0
165 -45 0 -45 0 -35 -67 c-19 -38 -37 -68 -40 -68 -3 0 -21 30 -40 68 -34 65
-36 67 -78 70 -28 2 -44 -1 -47 -10z"/>
<path d="M875 1128 c-3 -8 -4 -83 -3 -168 l3 -155 45 0 45 0 0 165 0 165 -43
3 c-28 2 -44 -1 -47 -10z"/>
<path d="M1027 1134 c-4 -4 -7 -70 -7 -146 0 -134 1 -140 25 -163 22 -22 32
-25 104 -25 69 0 83 3 107 23 26 23 27 27 32 155 5 145 0 162 -48 162 -59 0
-60 -2 -60 -130 0 -69 -4 -121 -10 -125 -6 -3 -19 -3 -30 0 -18 6 -20 17 -22
128 l-3 122 -40 3 c-23 2 -44 0 -48 -4z"/>
<path d="M1335 1128 c-3 -8 -4 -83 -3 -168 l3 -155 45 0 45 0 0 165 0 165 -43
3 c-28 2 -44 -1 -47 -10z"/>
</g>
</svg>
