<?xml version="1.0" standalone="no"?>
<!DOCTYPE svg PUBLIC "-//W3C//DTD SVG 20010904//EN"
 "http://www.w3.org/TR/2001/REC-SVG-20010904/DTD/svg10.dtd">
<svg version="1.0" xmlns="http://www.w3.org/2000/svg"
 width="192.000000pt" height="192.000000pt" viewBox="0 0 192.000000 192.000000"
 preserveAspectRatio="xMidYMid meet">
<metadata>
Created by potrace 1.16, written by Peter Selinger 2001-2019
</metadata>
<g transform="translate(0.000000,192.000000) scale(0.100000,-0.100000)"
fill="#000000" stroke="none">
811 c445 -92 729 -532 635 -987 -62 -301 -295 -546 -601 -630 -91 -26 -329
-26 -420 0 -291 80 -516 305 -596 596 -26 91 -26 329 0 420 120 433 542 692
982 601z"/>
<path d="M1032 1236 l-76 -74 27 -32 c32 -38 34 -73 7 -100 -28 -28 -54 -25
-92 9 l-33 30 45 45 44 46 -49 51 c-28 28 -67 59 -87 70 -45 23 -127 25 -167
5 -39 -21 -88 -79 -99 -119 -12 -44 -1 -116 26 -158 25 -40 116 -132 107 -107
-4 9 -1 27 5 40 17 32 132 148 147 148 32 0 20 -28 -40 -89 -74 -76 -91 -103
-81 -134 7 -23 172 -200 214 -229 52 -37 62 -30 272 179 251 250 246 228 90
385 -100 99 -112 108 -147 108 -33 0 -46 -8 -113 -74z"/>
</g>
</svg>
