<?xml version="1.0" standalone="no"?>
<!DOCTYPE svg PUBLIC "-//W3C//DTD SVG 20010904//EN"
 "http://www.w3.org/TR/2001/REC-SVG-20010904/DTD/svg10.dtd">
<svg version="1.0" xmlns="http://www.w3.org/2000/svg"
 width="192.000000pt" height="192.000000pt" viewBox="0 0 192.000000 192.000000"
 preserveAspectRatio="xMidYMid meet">
<metadata>
Created by potrace 1.16, written by Peter Selinger 2001-2019
</metadata>
<g transform="translate(0.000000,192.000000) scale(0.100000,-0.100000)"
fill="#000000" stroke="none">
811 c445 -92 729 -532 635 -987 -62 -301 -295 -546 -601 -630 -91 -26 -329
-26 -420 0 -291 80 -516 305 -596 596 -26 91 -26 329 0 420 120 433 542 692
982 601z"/>
<path d="M715 1321 c-48 -22 -79 -54 -100 -103 -22 -54 -22 -452 0 -506 20
-47 50 -79 97 -103 33 -17 60 -19 260 -19 242 0 275 7 325 61 47 52 53 84 53
306 0 224 -6 265 -47 314 -53 62 -83 69 -328 69 -193 0 -225 -3 -260 -19z
m330 -246 c24 -23 25 -31 25 -135 l0 -111 -32 3 -33 3 -3 89 c-2 50 -8 96 -14
103 -8 10 -33 13 -87 11 l-76 -3 -3 -102 -3 -103 -29 0 -30 0 0 135 0 135 130
0 c126 0 132 -1 155 -25z m145 -111 l0 -135 -32 3 -33 3 -3 119 c-1 66 0 126
2 133 3 7 19 13 36 13 l30 0 0 -136z m-245 -59 l0 -70 -32 -3 -33 -3 0 69 c0
38 3 72 7 76 4 4 19 6 33 4 24 -3 25 -6 25 -73z"/>
</g>
</svg>
