<?xml version="1.0" standalone="no"?>
<!DOCTYPE svg PUBLIC "-//W3C//DTD SVG 20010904//EN"
 "http://www.w3.org/TR/2001/REC-SVG-20010904/DTD/svg10.dtd">
<svg version="1.0" xmlns="http://www.w3.org/2000/svg"
 width="192.000000pt" height="192.000000pt" viewBox="0 0 192.000000 192.000000"
 preserveAspectRatio="xMidYMid meet">
<metadata>
Created by potrace 1.16, written by Peter Selinger 2001-2019
</metadata>
<g transform="translate(0.000000,192.000000) scale(0.100000,-0.100000)"
fill="#000000" stroke="none">
811 c445 -92 729 -532 635 -987 -62 -301 -295 -546 -601 -630 -91 -26 -329
-26 -420 0 -291 80 -516 305 -596 596 -26 91 -26 329 0 420 120 433 542 692
982 601z"/>
<path d="M582 1335 c-17 -8 -35 -22 -41 -34 -25 -45 -13 -73 84 -204 52 -70
95 -130 95 -133 0 -3 -43 -64 -95 -136 -107 -147 -114 -170 -66 -219 63 -62
94 -41 250 171 72 98 131 180 131 184 0 9 -254 349 -271 362 -24 19 -55 22
-87 9z"/>
<path d="M1234 1308 c-61 -65 -256 -339 -251 -352 3 -7 64 -92 136 -189 103
-140 136 -176 159 -181 56 -13 112 29 112 85 0 17 -33 70 -99 160 l-98 133 88
118 c102 134 114 157 105 193 -18 71 -100 89 -152 33z"/>
</g>
</svg>
