<?xml version="1.0" standalone="no"?>
<!DOCTYPE svg PUBLIC "-//W3C//DTD SVG 20010904//EN"
 "http://www.w3.org/TR/2001/REC-SVG-20010904/DTD/svg10.dtd">
<svg version="1.0" xmlns="http://www.w3.org/2000/svg"
 width="192.000000pt" height="192.000000pt" viewBox="0 0 192.000000 192.000000"
 preserveAspectRatio="xMidYMid meet">
<metadata>
Created by potrace 1.16, written by Peter Selinger 2001-2019
</metadata>
<g transform="translate(0.000000,192.000000) scale(0.100000,-0.100000)"
fill="#000000" stroke="none">
759 c272 -64 494 -285 566 -564 28 -110 28 -280 0 -390 -71 -278 -288 -495
-566 -566 -110 -28 -280 -28 -390 0 -277 71 -494 288 -566 566 -28 110 -28
280 0 390 108 421 524 667 956 564z"/>
<path d="M633 1294 c-60 -30 -65 -56 -61 -322 3 -265 8 -282 78 -329 32 -22
39 -23 310 -23 271 0 278 1 310 23 71 48 75 60 78 252 4 197 -3 225 -66 273
-34 26 -41 27 -188 32 l-153 5 -43 42 c-24 23 -56 47 -71 52 -43 16 -157 13
-194 -5z m133 -299 c18 -14 36 -25 40 -25 4 0 22 11 40 25 58 44 64 37 64 -70
l0 -96 -102 3 -103 3 -3 79 c-4 116 4 126 64 81z m444 -10 c0 -9 -7 -26 -16
-40 -14 -21 -14 -26 0 -54 29 -56 24 -61 -58 -61 -41 0 -77 4 -81 9 -3 6 3 24
14 42 19 32 19 33 1 69 -11 21 -16 40 -13 44 4 3 39 6 80 6 59 0 73 -3 73 -15z
m-212 -44 c9 -5 12 -25 10 -57 -3 -45 -5 -49 -30 -52 -27 -3 -28 -2 -28 51 0
66 12 81 48 58z"/>
</g>
</svg>
