<?xml version="1.0" standalone="no"?>
<!DOCTYPE svg PUBLIC "-//W3C//DTD SVG 20010904//EN"
 "http://www.w3.org/TR/2001/REC-SVG-20010904/DTD/svg10.dtd">
<svg version="1.0" xmlns="http://www.w3.org/2000/svg"
 width="192.000000pt" height="192.000000pt" viewBox="0 0 192.000000 192.000000"
 preserveAspectRatio="xMidYMid meet">
<metadata>
Created by potrace 1.16, written by Peter Selinger 2001-2019
</metadata>
<g transform="translate(0.000000,192.000000) scale(0.100000,-0.100000)"
fill="#000000" stroke="none">
811 c445 -92 729 -532 635 -987 -62 -301 -295 -546 -601 -630 -91 -26 -329
-26 -420 0 -291 80 -516 305 -596 596 -26 91 -26 329 0 420 120 433 542 692
982 601z"/>
<path d="M695 1326 c-38 -17 -90 -72 -104 -109 -7 -17 -11 -117 -11 -248 0
-234 5 -266 53 -318 50 -54 83 -61 322 -61 193 0 225 3 260 19 48 22 79 54
100 103 21 51 22 462 1 511 -17 39 -71 92 -109 106 -44 17 -474 14 -512 -3z
m504 -64 c56 -30 71 -71 71 -189 l0 -103 -65 0 -65 0 0 50 c0 52 -25 115 -54
139 -14 11 -14 15 0 36 18 28 2 44 -24 23 -23 -18 -193 -18 -215 1 -25 20 -41
3 -23 -24 14 -21 14 -25 0 -36 -29 -24 -54 -87 -54 -139 l0 -50 -65 0 -65 0 0
103 c0 118 15 159 71 189 30 16 59 18 244 18 185 0 214 -2 244 -18z m-303
-163 c9 -15 -11 -33 -30 -26 -9 4 -13 13 -10 22 7 17 30 20 40 4z m158 -4 c3
-9 -1 -18 -10 -22 -19 -7 -39 11 -30 26 10 16 33 13 40 -4z"/>
</g>
</svg>
