<?xml version="1.0" standalone="no"?>
<!DOCTYPE svg PUBLIC "-//W3C//DTD SVG 20010904//EN"
 "http://www.w3.org/TR/2001/REC-SVG-20010904/DTD/svg10.dtd">
<svg version="1.0" xmlns="http://www.w3.org/2000/svg"
 width="192.000000pt" height="192.000000pt" viewBox="0 0 192.000000 192.000000"
 preserveAspectRatio="xMidYMid meet">
<metadata>
Created by potrace 1.16, written by Peter Selinger 2001-2019
</metadata>
<g transform="translate(0.000000,192.000000) scale(0.100000,-0.100000)"
fill="#000000" stroke="none">
811 c445 -92 729 -532 635 -987 -62 -301 -295 -546 -601 -630 -91 -26 -329
-26 -420 0 -291 80 -516 305 -596 596 -26 91 -26 329 0 420 120 433 542 692
982 601z"/>
<path d="M695 1321 c-48 -22 -79 -54 -100 -103 -22 -54 -22 -452 0 -506 21
-49 52 -81 100 -103 35 -16 68 -19 261 -19 212 0 223 1 265 23 24 13 58 43 74
66 l30 43 0 243 0 243 -30 43 c-16 23 -50 53 -74 66 -42 22 -53 23 -265 23
-193 0 -226 -3 -261 -19z m314 -183 c108 -149 130 -188 95 -173 -10 4 -47 10
-80 13 l-62 4 2 53 c1 40 -4 61 -20 82 -59 78 -193 61 -211 -28 -3 -17 -18
-36 -37 -49 l-31 -20 38 0 c37 0 38 -1 32 -29 -4 -21 -2 -30 9 -34 22 -9 20
-34 -4 -47 -27 -14 -49 -60 -65 -134 -12 -59 -13 -60 -24 -33 -17 43 -15 409
3 450 27 65 69 85 181 86 l71 1 103 -142z m189 118 c54 -28 62 -57 62 -225 0
-130 -2 -150 -15 -145 -8 4 -15 12 -15 20 0 14 -20 42 -52 73 -18 17 -138 273
-138 293 0 16 119 4 158 -16z"/>
</g>
</svg>
