<?xml version="1.0" standalone="no"?>
<!DOCTYPE svg PUBLIC "-//W3C//DTD SVG 20010904//EN"
 "http://www.w3.org/TR/2001/REC-SVG-20010904/DTD/svg10.dtd">
<svg version="1.0" xmlns="http://www.w3.org/2000/svg"
 width="192.000000pt" height="192.000000pt" viewBox="0 0 192.000000 192.000000"
 preserveAspectRatio="xMidYMid meet">
<metadata>
Created by potrace 1.16, written by Peter Selinger 2001-2019
</metadata>
<g transform="translate(0.000000,192.000000) scale(0.100000,-0.100000)"
fill="#000000" stroke="none">
811 c445 -92 729 -532 635 -987 -62 -301 -295 -546 -601 -630 -91 -26 -329
-26 -420 0 -291 80 -516 305 -596 596 -26 91 -26 329 0 420 120 433 542 692
982 601z"/>
<path d="M870 1370 c-225 -47 -375 -285 -317 -503 32 -123 109 -214 227 -271
61 -29 72 -31 175 -31 104 0 114 2 176 32 121 59 208 177 230 311 31 185 -85
379 -263 442 -67 23 -168 32 -228 20z m135 -211 c178 -45 208 -288 47 -377
-45 -25 -126 -32 -173 -13 -39 14 -94 66 -113 105 -20 41 -21 125 -3 169 17
40 88 105 124 113 16 3 33 7 38 9 19 6 36 5 80 -6z"/>
</g>
</svg>
