<?xml version="1.0" standalone="no"?>
<!DOCTYPE svg PUBLIC "-//W3C//DTD SVG 20010904//EN"
 "http://www.w3.org/TR/2001/REC-SVG-20010904/DTD/svg10.dtd">
<svg version="1.0" xmlns="http://www.w3.org/2000/svg"
 width="192.000000pt" height="192.000000pt" viewBox="0 0 192.000000 192.000000"
 preserveAspectRatio="xMidYMid meet">
<metadata>
Created by potrace 1.16, written by Peter Selinger 2001-2019
</metadata>
<g transform="translate(0.000000,192.000000) scale(0.100000,-0.100000)"
fill="#000000" stroke="none">
811 c445 -92 729 -532 635 -987 -62 -301 -295 -546 -601 -630 -91 -26 -329
-26 -420 0 -291 80 -516 305 -596 596 -26 91 -26 329 0 420 120 433 542 692
982 601z"/>
<path d="M737 1230 c-66 -17 -117 -49 -132 -83 -14 -31 -65 -333 -65 -383 0
-36 42 -74 82 -74 38 0 92 30 108 59 6 11 21 80 35 152 13 72 29 137 36 145
15 18 58 18 65 0 3 -8 -4 -66 -15 -130 -28 -155 -27 -179 5 -205 46 -36 122
-21 157 32 9 14 26 80 38 148 12 68 28 134 35 147 16 25 59 30 68 7 3 -8 -4
-66 -15 -127 -28 -153 -27 -177 6 -205 48 -42 130 -18 165 48 12 21 60 324 60
374 0 74 -99 112 -259 101 -53 -4 -103 -7 -111 -6 -8 0 -62 2 -120 5 -58 2
-122 0 -143 -5z"/>
</g>
</svg>
