<?xml version="1.0" standalone="no"?>
<!DOCTYPE svg PUBLIC "-//W3C//DTD SVG 20010904//EN"
 "http://www.w3.org/TR/2001/REC-SVG-20010904/DTD/svg10.dtd">
<svg version="1.0" xmlns="http://www.w3.org/2000/svg"
 width="192.000000pt" height="192.000000pt" viewBox="0 0 192.000000 192.000000"
 preserveAspectRatio="xMidYMid meet">
<metadata>
Created by potrace 1.16, written by Peter Selinger 2001-2019
</metadata>
<g transform="translate(0.000000,192.000000) scale(0.100000,-0.100000)"
fill="#000000" stroke="none">
811 c445 -92 729 -532 635 -987 -62 -301 -295 -546 -601 -630 -91 -26 -329
-26 -420 0 -291 80 -516 305 -596 596 -26 91 -26 329 0 420 120 433 542 692
982 601z"/>
<path d="M707 1344 c-4 -4 -7 -45 -7 -91 l0 -83 -46 0 c-39 0 -51 -5 -80 -34
l-34 -34 0 -142 c0 -125 2 -147 20 -175 22 -36 65 -58 102 -53 21 3 23 9 28
73 7 96 4 95 268 95 213 0 213 0 237 -25 21 -20 25 -34 25 -86 l0 -62 46 6
c32 3 55 13 73 31 26 26 26 27 26 187 l0 161 -33 29 c-25 23 -42 29 -77 29
l-44 0 -3 88 -3 87 -246 3 c-135 1 -248 -1 -252 -4z m531 -233 c21 -13 10 -46
-16 -49 -27 -4 -40 22 -22 43 14 17 20 18 38 6z"/>
<path d="M752 713 l3 -128 200 0 200 0 3 128 3 127 -206 0 -206 0 3 -127z"/>
</g>
</svg>
