<?xml version="1.0" standalone="no"?>
<!DOCTYPE svg PUBLIC "-//W3C//DTD SVG 20010904//EN"
 "http://www.w3.org/TR/2001/REC-SVG-20010904/DTD/svg10.dtd">
<svg version="1.0" xmlns="http://www.w3.org/2000/svg"
 width="192.000000pt" height="192.000000pt" viewBox="0 0 192.000000 192.000000"
 preserveAspectRatio="xMidYMid meet">
<metadata>
Created by potrace 1.16, written by Peter Selinger 2001-2019
</metadata>
<g transform="translate(0.000000,192.000000) scale(0.100000,-0.100000)"
fill="#000000" stroke="none">
811 c445 -92 729 -532 635 -987 -62 -301 -295 -546 -601 -630 -91 -26 -329
-26 -420 0 -291 80 -516 305 -596 596 -26 91 -26 329 0 420 120 433 542 692
982 601z"/>
<path d="M544 1157 c-3 -8 -4 -45 -2 -83 l3 -69 36 -3 c19 -2 47 2 62 7 25 10
27 14 27 75 0 54 -3 67 -19 76 -29 15 -101 13 -107 -3z m76 -72 c0 -19 -4 -35
-10 -35 -5 0 -10 16 -10 35 0 19 5 35 10 35 6 0 10 -16 10 -35z"/>
<path d="M715 1158 c-15 -48 -35 -129 -35 -142 0 -20 39 -21 46 -1 8 19 23 19
45 -1 10 -9 26 -14 35 -10 17 7 17 13 -12 114 -13 48 -17 52 -45 52 -16 0 -31
-6 -34 -12z"/>
<path d="M834 1157 c-3 -8 -4 -45 -2 -83 3 -63 5 -69 26 -72 19 -3 22 1 23 30
l1 33 14 -33 c11 -26 20 -33 37 -30 21 3 22 8 22 83 0 75 -1 80 -22 83 -20 3
-23 -1 -24 -30 l-1 -33 -14 33 c-15 33 -50 45 -60 19z"/>
<path d="M994 1162 c-16 -10 -26 -46 -18 -66 4 -10 16 -22 28 -26 21 -9 21 -9
-1 -9 -25 -1 -31 -29 -11 -49 15 -15 63 -16 89 -2 30 17 23 89 -10 91 -11 0
-9 3 6 9 16 7 21 14 16 27 -9 25 -23 33 -58 33 -16 0 -35 -4 -41 -8z m51 -42
c3 -5 1 -10 -4 -10 -6 0 -11 5 -11 10 0 6 2 10 4 10 3 0 8 -4 11 -10z m5 -64
c0 -3 -4 -8 -10 -11 -5 -3 -10 -1 -10 4 0 6 5 11 10 11 6 0 10 -2 10 -4z"/>
<path d="M1114 1157 c-3 -8 -4 -45 -2 -83 3 -66 4 -69 28 -69 20 0 26 6 28 30
l4 30 13 -33 c9 -20 21 -32 33 -32 29 0 32 9 16 47 -12 27 -13 42 -5 66 17 46
14 57 -14 57 -21 0 -27 -6 -32 -32 l-7 -33 -6 30 c-4 21 -12 31 -28 33 -12 2
-24 -3 -28 -11z"/>
<path d="M1260 1084 l0 -85 53 3 c44 3 52 6 52 23 0 15 -8 21 -30 24 -29 4
-30 4 -5 10 16 4 25 14 25 26 0 12 -9 22 -25 26 l-25 7 28 1 c22 1 27 6 27 26
0 23 -3 25 -50 25 l-50 0 0 -86z"/>
<path d="M617 953 c-4 -3 -7 -48 -7 -100 l0 -93 63 0 c34 0 68 4 74 8 17 11
28 68 15 76 -6 3 -8 24 -5 48 5 33 2 44 -12 55 -19 13 -116 18 -128 6z m83
-58 c0 -8 -7 -15 -15 -15 -16 0 -20 12 -8 23 11 12 23 8 23 -8z m0 -70 c0 -8
-7 -15 -15 -15 -16 0 -20 12 -8 23 11 12 23 8 23 -8z"/>
<path d="M801 878 c-12 -46 -24 -91 -27 -100 -4 -15 1 -18 30 -18 25 0 36 4
36 15 0 8 9 15 19 15 10 0 21 -7 25 -15 5 -15 66 -22 66 -7 0 4 -11 48 -23 97
l-23 90 -40 3 -41 3 -22 -83z"/>
<path d="M965 947 c-3 -7 -5 -52 -3 -98 l3 -84 33 -3 c30 -3 32 -1 33 30 l1
33 14 -32 c11 -27 20 -33 44 -33 l30 0 0 100 0 100 -30 0 c-28 0 -30 -3 -30
-37 l-1 -38 -17 35 c-12 25 -25 36 -45 38 -16 2 -29 -2 -32 -11z"/>
<path d="M1150 860 l0 -100 30 0 c28 0 30 3 30 36 0 41 15 37 25 -6 6 -26 11
-30 41 -30 19 0 34 1 34 3 0 2 -7 25 -16 50 -13 37 -14 54 -5 79 19 53 15 68
-18 68 -25 0 -31 -5 -36 -30 -10 -43 -25 -47 -25 -6 0 33 -2 36 -30 36 l-30 0
0 -100z"/>
</g>
</svg>
