<?xml version="1.0" standalone="no"?>
<!DOCTYPE svg PUBLIC "-//W3C//DTD SVG 20010904//EN"
 "http://www.w3.org/TR/2001/REC-SVG-20010904/DTD/svg10.dtd">
<svg version="1.0" xmlns="http://www.w3.org/2000/svg"
 width="192.000000pt" height="192.000000pt" viewBox="0 0 192.000000 192.000000"
 preserveAspectRatio="xMidYMid meet">
<metadata>
Created by potrace 1.16, written by Peter Selinger 2001-2019
</metadata>
<g transform="translate(0.000000,192.000000) scale(0.100000,-0.100000)"
fill="#000000" stroke="none">
811 c445 -92 729 -532 635 -987 -62 -301 -295 -546 -601 -630 -91 -26 -329
-26 -420 0 -291 80 -516 305 -596 596 -26 91 -26 329 0 420 120 433 542 692
982 601z"/>
<path d="M645 1322 c-31 -10 -50 -25 -68 -52 -15 -22 -17 -59 -17 -313 l0
-289 35 -35 c19 -19 40 -33 47 -31 10 3 14 49 18 169 l5 164 68 3 c40 2 74 -2
82 -8 9 -8 15 -8 20 0 3 5 38 10 76 10 65 0 70 -2 79 -26 6 -14 10 -91 10
-170 l0 -145 146 3 146 3 29 33 c28 31 30 38 27 105 l-3 72 -89 5 c-82 5 -91
7 -109 31 -12 17 -17 34 -12 48 13 42 33 51 110 51 105 0 105 0 105 79 0 74
-13 102 -61 126 -24 13 -29 22 -29 51 0 19 -7 49 -16 65 -27 54 -56 59 -331
58 -136 -1 -257 -4 -268 -7z m529 -68 c11 -4 16 -19 16 -45 l0 -39 -271 2
c-261 3 -272 4 -285 23 -12 18 -11 24 2 43 15 22 19 22 269 22 139 0 260 -3
269 -6z"/>
<path d="M1182 918 c-15 -15 -15 -51 0 -66 18 -18 43 -15 63 8 37 41 -24 97
-63 58z"/>
<path d="M720 735 l0 -135 35 0 35 0 0 135 0 135 -35 0 -35 0 0 -135z"/>
<path d="M860 735 l0 -135 35 0 35 0 0 135 0 135 -35 0 -35 0 0 -135z"/>
</g>
</svg>
