<?xml version="1.0" standalone="no"?>
<!DOCTYPE svg PUBLIC "-//W3C//DTD SVG 20010904//EN"
 "http://www.w3.org/TR/2001/REC-SVG-20010904/DTD/svg10.dtd">
<svg version="1.0" xmlns="http://www.w3.org/2000/svg"
 width="192.000000pt" height="192.000000pt" viewBox="0 0 192.000000 192.000000"
 preserveAspectRatio="xMidYMid meet">
<metadata>
Created by potrace 1.16, written by Peter Selinger 2001-2019
</metadata>
<g transform="translate(0.000000,192.000000) scale(0.100000,-0.100000)"
fill="#000000" stroke="none">
810 c245 -63 441 -223 549 -451 55 -116 75 -212 75 -354 0 -141 -20 -238 -75
-352 -86 -182 -215 -312 -396 -398 -116 -55 -212 -75 -354 -75 -142 0 -238 20
-354 75 -228 108 -388 304 -451 549 -28 110 -28 292 0 402 76 298 303 526 600
603 106 28 298 28 406 1z"/>
<path d="M690 1214 c-46 -20 -96 -69 -123 -119 -18 -34 -22 -61 -25 -192 l-4
-152 25 -25 c35 -35 79 -35 106 0 19 24 21 40 21 166 l0 140 30 30 c28 27 36
30 73 25 28 -4 49 -14 64 -32 22 -24 23 -35 23 -169 0 -136 1 -143 23 -164 29
-27 67 -28 98 -3 23 18 24 25 27 170 l3 150 30 26 c34 28 67 32 108 11 43 -23
51 -54 51 -201 0 -122 2 -137 20 -155 26 -26 74 -26 100 0 18 18 20 33 20 175
0 171 -6 197 -59 257 -79 90 -241 105 -324 31 -15 -14 -21 -15 -35 -5 -71 52
-180 67 -252 36z"/>
</g>
</svg>
