<?xml version="1.0" standalone="no"?>
<!DOCTYPE svg PUBLIC "-//W3C//DTD SVG 20010904//EN"
 "http://www.w3.org/TR/2001/REC-SVG-20010904/DTD/svg10.dtd">
<svg version="1.0" xmlns="http://www.w3.org/2000/svg"
 width="192.000000pt" height="192.000000pt" viewBox="0 0 192.000000 192.000000"
 preserveAspectRatio="xMidYMid meet">
<metadata>
Created by potrace 1.16, written by Peter Selinger 2001-2019
</metadata>
<g transform="translate(0.000000,192.000000) scale(0.100000,-0.100000)"
fill="#000000" stroke="none">
811 c445 -92 729 -532 635 -987 -62 -301 -295 -546 -601 -630 -91 -26 -329
-26 -420 0 -291 80 -516 305 -596 596 -26 91 -26 329 0 420 120 433 542 692
982 601z"/>
<path d="M743 1361 c-46 -12 -81 -37 -103 -74 -19 -30 -20 -52 -20 -323 0
-285 0 -292 23 -324 45 -68 70 -75 277 -75 207 0 232 7 277 75 39 57 25 150
-22 150 -23 0 -45 -30 -45 -61 0 -16 -9 -38 -20 -49 -18 -18 -33 -20 -194 -20
-169 0 -175 1 -190 22 -24 33 -24 533 0 566 15 21 21 22 190 22 161 0 176 -2
194 -20 12 -12 20 -33 20 -53 0 -38 15 -57 45 -57 32 0 45 20 45 71 0 55 -29
103 -80 133 -31 19 -54 21 -200 23 -91 1 -180 -2 -197 -6z"/>
<path d="M960 1113 c-34 -12 -40 -36 -40 -150 0 -157 -4 -153 185 -153 142 0
147 1 170 25 23 23 25 31 25 130 0 99 -2 107 -25 130 -23 24 -28 25 -162 24
-76 0 -145 -3 -153 -6z"/>
</g>
</svg>
