<?xml version="1.0" standalone="no"?>
<!DOCTYPE svg PUBLIC "-//W3C//DTD SVG 20010904//EN"
 "http://www.w3.org/TR/2001/REC-SVG-20010904/DTD/svg10.dtd">
<svg version="1.0" xmlns="http://www.w3.org/2000/svg"
 width="192.000000pt" height="192.000000pt" viewBox="0 0 192.000000 192.000000"
 preserveAspectRatio="xMidYMid meet">
<metadata>
Created by potrace 1.16, written by Peter Selinger 2001-2019
</metadata>
<g transform="translate(0.000000,192.000000) scale(0.100000,-0.100000)"
fill="#000000" stroke="none">
811 c445 -92 729 -532 635 -987 -62 -301 -295 -546 -601 -630 -91 -26 -329
-26 -420 0 -291 80 -516 305 -596 596 -26 91 -26 329 0 420 120 433 542 692
982 601z"/>
<path d="M492 1268 c-17 -17 -16 -22 33 -181 25 -80 45 -153 45 -161 0 -9 -16
-55 -35 -102 -19 -48 -32 -91 -29 -95 3 -5 37 -9 77 -9 70 0 72 -1 113 -41 40
-40 64 -44 64 -13 0 24 26 16 103 -31 41 -25 83 -45 93 -45 11 0 53 20 94 45
41 25 80 45 85 45 6 0 16 -9 23 -21 13 -20 14 -20 57 20 44 40 46 41 120 41
53 0 75 4 75 12 0 7 -16 53 -36 103 l-36 91 50 159 c36 116 48 165 41 177 -14
26 -37 22 -76 -12 l-34 -30 -362 0 -363 0 -29 30 c-31 32 -53 38 -73 18z m224
-235 c3 -16 7 -32 9 -38 1 -5 10 7 20 28 14 27 25 37 42 37 23 0 23 -2 17 -50
-4 -34 -3 -55 6 -65 11 -13 8 -15 -14 -15 -23 0 -26 4 -26 38 l-1 37 -20 -38
c-23 -44 -41 -44 -50 2 -9 41 -19 52 -19 18 0 -14 -3 -32 -6 -41 -4 -11 -1
-16 11 -16 11 0 15 -5 12 -14 -3 -8 -9 -31 -13 -50 -6 -34 -5 -36 20 -36 22 0
26 4 26 29 0 47 10 61 41 61 16 0 29 -4 29 -10 0 -5 -9 -10 -20 -10 -11 0 -20
-4 -20 -10 0 -5 7 -10 15 -10 23 0 18 -18 -7 -23 l-23 -4 23 -8 c36 -12 25
-22 -32 -29 -30 -3 -62 -9 -71 -12 -15 -6 -17 0 -13 52 3 51 1 59 -19 69 -20
11 -21 12 -3 23 10 6 21 26 25 44 12 60 16 68 35 68 13 0 22 -9 26 -27z m210
-2 l12 -24 4 24 c3 21 8 24 43 24 36 0 40 -3 41 -25 1 -14 5 -33 9 -44 13 -30
-8 -51 -51 -51 -35 0 -39 3 -45 30 -4 17 -7 24 -8 16 -2 -24 -33 -51 -59 -51
-57 0 -83 69 -41 111 28 28 79 23 95 -10z m154 -20 c0 -27 3 -56 6 -65 4 -12
0 -16 -15 -16 -19 0 -21 6 -21 49 0 27 -3 56 -6 65 -4 12 0 16 15 16 19 0 21
-6 21 -49z m46 0 c5 -42 10 -50 31 -54 25 -5 25 -4 18 49 l-6 54 40 0 c43 0
57 -16 19 -22 -13 -2 -23 -7 -23 -13 0 -5 10 -11 23 -13 27 -4 29 -22 2 -22
-11 0 -20 -7 -20 -15 0 -10 10 -15 28 -15 16 0 37 -7 48 -15 17 -13 8 -14 -83
-14 l-103 0 0 27 c0 15 -3 44 -6 65 -5 30 -4 37 9 37 12 0 18 -14 23 -49z
m-236 -101 c0 -5 -13 -10 -29 -10 -30 0 -45 -19 -35 -45 7 -17 34 -21 34 -5 0
6 -4 10 -10 10 -5 0 -10 5 -10 10 0 6 12 10 26 10 22 0 25 -4 22 -27 -6 -52
-88 -40 -88 13 0 12 7 30 16 38 17 18 74 22 74 6z m70 0 c0 -5 -7 -10 -15 -10
-8 0 -15 -4 -15 -10 0 -5 7 -10 15 -10 8 0 15 -4 15 -10 0 -5 -7 -10 -15 -10
-8 0 -15 -4 -15 -10 0 -5 9 -10 20 -10 17 0 20 7 20 40 0 48 18 53 49 14 l21
-27 0 27 c0 16 5 26 15 26 11 0 15 -12 15 -50 0 -60 -18 -66 -49 -17 l-21 32
0 -32 c0 -33 0 -33 -50 -33 l-50 0 0 50 c0 49 1 50 30 50 17 0 30 -4 30 -10z
m202 -7 c17 -15 18 -15 18 0 0 13 10 17 46 17 27 0 43 -4 39 -10 -3 -5 -17
-10 -31 -10 -31 0 -31 -14 2 -28 38 -18 30 -56 -13 -60 -24 -2 -33 1 -33 11 0
10 7 13 20 10 29 -8 24 9 -8 28 -27 15 -28 15 -29 -4 -2 -25 -20 -37 -54 -37
-22 0 -28 6 -33 31 -12 60 -9 69 26 69 17 0 40 -7 50 -17z"/>
<path d="M850 1021 c-14 -27 -13 -46 4 -60 31 -26 67 20 46 59 -14 25 -36 26
-50 1z"/>
<path d="M980 1025 c0 -8 5 -15 10 -15 6 0 10 7 10 15 0 8 -4 15 -10 15 -5 0
-10 -7 -10 -15z"/>
<path d="M980 970 c0 -13 5 -20 13 -17 6 2 12 10 12 17 0 7 -6 15 -12 18 -8 2
-13 -5 -13 -18z"/>
<path d="M1110 870 c0 -25 4 -31 18 -28 11 2 17 12 17 28 0 16 -6 26 -17 28
-14 3 -18 -3 -18 -28z"/>
</g>
</svg>
