<?xml version="1.0" standalone="no"?>
<!DOCTYPE svg PUBLIC "-//W3C//DTD SVG 20010904//EN"
 "http://www.w3.org/TR/2001/REC-SVG-20010904/DTD/svg10.dtd">
<svg version="1.0" xmlns="http://www.w3.org/2000/svg"
 width="192.000000pt" height="192.000000pt" viewBox="0 0 192.000000 192.000000"
 preserveAspectRatio="xMidYMid meet">
<metadata>
Created by potrace 1.16, written by Peter Selinger 2001-2019
</metadata>
<g transform="translate(0.000000,192.000000) scale(0.100000,-0.100000)"
fill="#000000" stroke="none">
811 c445 -92 729 -532 635 -987 -62 -301 -295 -546 -601 -630 -91 -26 -329
-26 -420 0 -291 80 -516 305 -596 596 -26 91 -26 329 0 420 120 433 542 692
982 601z"/>
<path d="M706 1325 c-50 -18 -92 -59 -111 -109 -13 -33 -15 -81 -13 -256 l3
-215 18 40 c10 22 39 93 63 158 24 65 50 130 58 146 38 73 175 67 206 -10 11
-25 11 -41 2 -75 -6 -23 -13 -49 -14 -56 -2 -7 7 -14 19 -16 12 -2 33 -16 46
-31 14 -17 38 -31 60 -35 25 -5 46 -18 64 -41 20 -25 36 -35 56 -35 18 0 39
-11 59 -31 28 -28 30 -34 25 -80 -7 -59 5 -62 41 -9 38 57 44 101 40 319 -3
190 -5 209 -25 248 -25 45 -59 74 -112 91 -51 18 -435 15 -485 -3z"/>
<path d="M799 1033 c-5 -16 -41 -107 -80 -203 -38 -97 -69 -181 -69 -188 0 -6
15 -19 33 -29 27 -15 64 -18 240 -21 230 -4 219 -7 221 65 1 45 -20 54 -36 16
-18 -43 -39 -63 -64 -63 -37 0 -46 29 -27 89 13 40 14 54 5 63 -16 16 -34 -3
-56 -64 -17 -47 -39 -64 -69 -52 -28 10 -29 41 -6 114 13 38 19 73 15 77 -15
15 -40 -15 -63 -77 -30 -80 -40 -92 -71 -88 -51 6 -50 25 16 203 34 92 60 171
57 176 -12 18 -36 8 -46 -18z"/>
</g>
</svg>
