<?xml version="1.0" standalone="no"?>
<!DOCTYPE svg PUBLIC "-//W3C//DTD SVG 20010904//EN"
 "http://www.w3.org/TR/2001/REC-SVG-20010904/DTD/svg10.dtd">
<svg version="1.0" xmlns="http://www.w3.org/2000/svg"
 width="192.000000pt" height="192.000000pt" viewBox="0 0 192.000000 192.000000"
 preserveAspectRatio="xMidYMid meet">
<metadata>
Created by potrace 1.16, written by Peter Selinger 2001-2019
</metadata>
<g transform="translate(0.000000,192.000000) scale(0.100000,-0.100000)"
fill="#000000" stroke="none">
811 c445 -92 729 -532 635 -987 -62 -301 -295 -546 -601 -630 -91 -26 -329
-26 -420 0 -291 80 -516 305 -596 596 -26 91 -26 329 0 420 120 433 542 692
982 601z"/>
<path d="M550 1345 c-34 -37 -33 -90 4 -121 22 -20 38 -24 87 -24 56 0 59 -1
49 -19 -6 -12 -10 -118 -10 -276 0 -358 -10 -345 268 -345 265 0 262 -5 262
342 0 202 -2 238 -18 267 -32 63 -60 76 -183 79 -108 4 -109 4 -109 29 0 29
-17 63 -39 80 -11 8 -61 12 -152 13 -132 0 -136 -1 -159 -25z m20 -46 c0 -8 5
-8 15 1 13 11 15 8 15 -16 0 -16 -4 -24 -8 -17 -11 18 -22 19 -32 3 -8 -12
-10 -9 -10 13 0 15 5 27 10 27 6 0 10 -5 10 -11z m70 -14 c0 -16 -6 -25 -15
-25 -9 0 -15 9 -15 25 0 16 6 25 15 25 9 0 15 -9 15 -25z m40 0 c0 -16 -6 -25
-15 -25 -9 0 -15 9 -15 25 0 16 6 25 15 25 9 0 15 -9 15 -25z m100 13 c0 -9 4
-8 10 2 8 12 10 9 10 -12 0 -24 -3 -27 -22 -19 -13 5 -32 5 -43 0 -35 -13 -45
-10 -45 16 0 23 4 25 45 25 29 0 45 -4 45 -12z m59 -10 c1 30 31 29 31 -1 0
-17 -6 -23 -25 -25 -21 -1 -25 2 -24 26 l1 27 8 -25 c8 -24 8 -24 9 -2z m255
-590 c8 -13 8 -23 0 -35 -10 -16 -31 -18 -154 -21 -146 -3 -170 2 -170 37 0
37 20 42 169 39 124 -3 145 -5 155 -20z"/>
<path d="M621 1284 c0 -11 3 -14 6 -6 3 7 2 16 -1 19 -3 4 -6 -2 -5 -13z"/>
<path d="M661 1284 c0 -11 3 -14 6 -6 3 7 2 16 -1 19 -3 4 -6 -2 -5 -13z"/>
</g>
</svg>
