<?xml version="1.0" standalone="no"?>
<!DOCTYPE svg PUBLIC "-//W3C//DTD SVG 20010904//EN"
 "http://www.w3.org/TR/2001/REC-SVG-20010904/DTD/svg10.dtd">
<svg version="1.0" xmlns="http://www.w3.org/2000/svg"
 width="192.000000pt" height="192.000000pt" viewBox="0 0 192.000000 192.000000"
 preserveAspectRatio="xMidYMid meet">
<metadata>
Created by potrace 1.16, written by Peter Selinger 2001-2019
</metadata>
<g transform="translate(0.000000,192.000000) scale(0.100000,-0.100000)"
fill="#000000" stroke="none">
811 c445 -92 729 -532 635 -987 -62 -301 -295 -546 -601 -630 -91 -26 -329
-26 -420 0 -291 80 -516 305 -596 596 -26 91 -26 329 0 420 120 433 542 692
982 601z"/>
<path d="M717 1330 c-60 -18 -111 -72 -131 -136 -6 -19 -2 -22 37 -28 62 -9
126 -53 178 -122 100 -131 189 -139 280 -23 61 78 107 116 155 133 26 9 56 16
66 16 22 0 22 10 4 53 -17 43 -76 93 -123 106 -45 13 -425 13 -466 1z"/>
<path d="M580 1085 c0 -16 7 -28 18 -31 50 -15 83 -42 130 -104 64 -85 132
-123 222 -123 73 0 159 39 198 90 65 85 105 123 143 133 32 9 39 15 39 35 0
20 -5 25 -27 25 -53 0 -110 -38 -162 -108 -122 -166 -263 -160 -393 15 -40 55
-99 93 -143 93 -20 0 -25 -5 -25 -25z"/>
<path d="M580 972 c0 -17 10 -38 25 -52 14 -13 25 -27 25 -32 0 -4 -11 -8 -25
-8 -21 0 -25 -5 -25 -30 0 -29 1 -30 51 -30 40 0 58 -5 81 -25 l30 -25 -81 0
c-49 0 -81 -4 -81 -10 0 -21 32 -85 53 -108 53 -57 77 -62 318 -62 207 0 226
1 267 21 48 24 102 95 102 136 0 22 -3 23 -81 23 l-81 0 29 24 c22 18 44 26
84 28 50 3 54 5 57 30 3 24 -1 27 -29 30 l-33 3 33 37 c32 37 38 67 13 76 -13
4 -50 -31 -118 -114 -59 -71 -130 -107 -224 -112 -129 -7 -187 25 -320 176
-52 59 -70 65 -70 24z"/>
</g>
</svg>
