<?xml version="1.0" standalone="no"?>
<!DOCTYPE svg PUBLIC "-//W3C//DTD SVG 20010904//EN"
 "http://www.w3.org/TR/2001/REC-SVG-20010904/DTD/svg10.dtd">
<svg version="1.0" xmlns="http://www.w3.org/2000/svg"
 width="192.000000pt" height="192.000000pt" viewBox="0 0 192.000000 192.000000"
 preserveAspectRatio="xMidYMid meet">
<metadata>
Created by potrace 1.16, written by Peter Selinger 2001-2019
</metadata>
<g transform="translate(0.000000,192.000000) scale(0.100000,-0.100000)"
fill="#000000" stroke="none">
811 c445 -92 729 -532 635 -987 -62 -301 -295 -546 -601 -630 -91 -26 -329
-26 -420 0 -291 80 -516 305 -596 596 -26 91 -26 329 0 420 120 433 542 692
982 601z"/>
<path d="M862 1278 c-8 -8 -12 -45 -12 -105 l0 -93 -88 0 c-131 0 -132 -1
-132 -159 0 -134 5 -151 47 -151 33 0 43 29 43 129 l0 91 100 0 c120 0 120 0
120 124 l0 86 88 0 c102 0 125 11 120 55 l-3 30 -135 3 c-97 2 -139 -1 -148
-10z"/>
<path d="M1013 908 c-117 -117 -213 -220 -213 -229 0 -35 20 -39 223 -39 l199
0 29 29 29 30 -2 208 -3 208 -25 3 c-21 2 -61 -34 -237 -210z"/>
</g>
</svg>
