<?xml version="1.0" standalone="no"?>
<!DOCTYPE svg PUBLIC "-//W3C//DTD SVG 20010904//EN"
 "http://www.w3.org/TR/2001/REC-SVG-20010904/DTD/svg10.dtd">
<svg version="1.0" xmlns="http://www.w3.org/2000/svg"
 width="192.000000pt" height="192.000000pt" viewBox="0 0 192.000000 192.000000"
 preserveAspectRatio="xMidYMid meet">
<metadata>
Created by potrace 1.16, written by Peter Selinger 2001-2019
</metadata>
<g transform="translate(0.000000,192.000000) scale(0.100000,-0.100000)"
fill="#000000" stroke="none">
811 c445 -92 729 -532 635 -987 -62 -301 -295 -546 -601 -630 -91 -26 -329
-26 -420 0 -291 80 -516 305 -596 596 -26 91 -26 329 0 420 120 433 542 692
982 601z"/>
<path d="M695 1326 c-38 -17 -90 -72 -104 -109 -7 -17 -11 -119 -11 -253 0
-249 5 -273 70 -327 48 -40 90 -47 305 -47 215 0 257 7 305 47 65 54 70 77 70
328 0 170 -3 234 -14 258 -17 39 -71 92 -109 106 -44 17 -474 14 -512 -3z
m479 -528 c8 -13 8 -23 0 -35 -10 -16 -34 -18 -215 -21 -183 -2 -205 -1 -216
15 -17 22 -16 28 3 47 14 14 44 16 216 14 179 -3 202 -5 212 -20z"/>
</g>
</svg>
