<?xml version="1.0" standalone="no"?>
<!DOCTYPE svg PUBLIC "-//W3C//DTD SVG 20010904//EN"
 "http://www.w3.org/TR/2001/REC-SVG-20010904/DTD/svg10.dtd">
<svg version="1.0" xmlns="http://www.w3.org/2000/svg"
 width="192.000000pt" height="192.000000pt" viewBox="0 0 192.000000 192.000000"
 preserveAspectRatio="xMidYMid meet">
<metadata>
Created by potrace 1.16, written by Peter Selinger 2001-2019
</metadata>
<g transform="translate(0.000000,192.000000) scale(0.100000,-0.100000)"
fill="#000000" stroke="none">
811 c445 -92 729 -532 635 -987 -62 -301 -295 -546 -601 -630 -91 -26 -329
-26 -420 0 -291 80 -516 305 -596 596 -26 91 -26 329 0 420 120 433 542 692
982 601z"/>
<path d="M735 1173 c-33 -8 -53 -32 -120 -148 -78 -134 -89 -163 -76 -197 27
-71 106 -91 160 -40 45 41 161 251 161 290 0 57 -67 108 -125 95z"/>
<path d="M974 1164 c-23 -11 -50 -48 -108 -147 -70 -119 -77 -136 -72 -172 10
-78 102 -114 160 -62 31 27 166 263 166 289 0 35 -31 79 -65 94 -42 17 -43 17
-81 -2z m67 -54 c10 -6 19 -19 19 -30 0 -25 -131 -249 -153 -262 -23 -13 -57
8 -57 35 0 22 124 246 144 259 15 10 24 10 47 -2z"/>
<path d="M1230 1162 c-48 -24 -180 -247 -180 -305 0 -78 97 -127 156 -79 12 9
54 73 93 141 78 138 88 179 50 220 -19 20 -58 41 -77 41 -4 0 -23 -8 -42 -18z"/>
</g>
</svg>
