<?xml version="1.0" standalone="no"?>
<!DOCTYPE svg PUBLIC "-//W3C//DTD SVG 20010904//EN"
 "http://www.w3.org/TR/2001/REC-SVG-20010904/DTD/svg10.dtd">
<svg version="1.0" xmlns="http://www.w3.org/2000/svg"
 width="192.000000pt" height="192.000000pt" viewBox="0 0 192.000000 192.000000"
 preserveAspectRatio="xMidYMid meet">
<metadata>
Created by potrace 1.16, written by Peter Selinger 2001-2019
</metadata>
<g transform="translate(0.000000,192.000000) scale(0.100000,-0.100000)"
fill="#000000" stroke="none">
811 c445 -92 729 -532 635 -987 -62 -301 -295 -546 -601 -630 -91 -26 -329
-26 -420 0 -291 80 -516 305 -596 596 -26 91 -26 329 0 420 120 433 542 692
982 601z"/>
<path d="M607 1320 c-47 -37 -57 -69 -57 -184 0 -109 10 -136 48 -136 41 1 47
16 52 127 5 107 5 108 30 108 25 0 25 -1 30 -110 5 -108 5 -110 32 -119 22 -8
32 -6 47 8 17 16 21 33 23 120 3 89 5 101 22 104 29 6 36 -16 36 -118 0 -102
7 -120 47 -120 43 0 56 39 51 154 -4 85 -8 108 -26 133 -28 40 -71 57 -124 49
-51 -7 -56 -7 -128 0 -47 5 -60 2 -83 -16z"/>
<path d="M1100 1318 c-76 -52 -102 -143 -63 -225 31 -66 127 -106 198 -83 106
35 154 144 105 240 -29 57 -73 84 -145 88 -50 3 -66 0 -95 -20z m145 -101 c23
-33 19 -73 -11 -96 -45 -35 -94 -23 -112 28 -26 74 78 132 123 68z"/>
<path d="M635 916 c-16 -7 -41 -26 -55 -41 -23 -25 -25 -35 -28 -142 -3 -98
-1 -117 14 -134 22 -24 46 -24 67 -1 13 15 17 39 17 114 0 73 4 99 15 108 12
10 18 10 30 0 11 -10 15 -35 15 -110 0 -81 3 -100 18 -113 24 -22 38 -21 62 3
17 17 20 33 20 120 0 84 3 102 16 107 32 12 44 -25 44 -129 0 -86 2 -98 19
-108 28 -14 38 -13 61 10 17 17 20 33 20 108 0 108 -12 154 -50 186 -39 32
-79 40 -126 23 -32 -11 -45 -11 -69 -1 -38 16 -53 16 -90 0z"/>
<path d="M1138 920 c-75 -22 -118 -84 -118 -168 0 -57 26 -104 80 -140 46 -32
139 -28 188 7 61 43 87 129 61 198 -30 80 -128 128 -211 103z m96 -111 c50
-39 23 -119 -42 -121 -43 -1 -72 26 -72 69 0 65 61 93 114 52z"/>
</g>
</svg>
