<?xml version="1.0" standalone="no"?>
<!DOCTYPE svg PUBLIC "-//W3C//DTD SVG 20010904//EN"
 "http://www.w3.org/TR/2001/REC-SVG-20010904/DTD/svg10.dtd">
<svg version="1.0" xmlns="http://www.w3.org/2000/svg"
 width="192.000000pt" height="192.000000pt" viewBox="0 0 192.000000 192.000000"
 preserveAspectRatio="xMidYMid meet">
<metadata>
Created by potrace 1.16, written by Peter Selinger 2001-2019
</metadata>
<g transform="translate(0.000000,192.000000) scale(0.100000,-0.100000)"
fill="#000000" stroke="none">
811 c445 -92 729 -532 635 -987 -62 -301 -295 -546 -601 -630 -91 -26 -329
-26 -420 0 -291 80 -516 305 -596 596 -26 91 -26 329 0 420 120 433 542 692
982 601z"/>
<path d="M861 1365 c-159 -35 -282 -165 -313 -334 -32 -172 63 -351 231 -434
62 -30 72 -32 176 -32 100 0 115 2 167 28 83 41 162 116 198 190 120 246 -27
537 -295 586 -72 13 -83 13 -164 -4z m121 -143 c6 -16 24 -34 41 -42 19 -8 36
-28 49 -57 23 -52 17 -83 -18 -83 -19 0 -26 6 -31 30 -17 87 -136 86 -136 -1
0 -40 27 -64 84 -73 53 -8 105 -58 114 -109 9 -47 -18 -105 -62 -132 -17 -11
-34 -30 -38 -43 -3 -13 -12 -25 -20 -29 -19 -7 -45 14 -45 36 0 10 -15 24 -33
33 -52 25 -85 110 -53 137 18 15 46 4 46 -19 0 -9 9 -29 21 -44 40 -51 119
-25 119 39 0 40 -23 61 -75 70 -52 9 -81 28 -105 68 -39 62 -15 148 50 182 16
9 30 24 30 34 0 41 47 44 62 3z"/>
</g>
</svg>
