<?xml version="1.0" standalone="no"?>
<!DOCTYPE svg PUBLIC "-//W3C//DTD SVG 20010904//EN"
 "http://www.w3.org/TR/2001/REC-SVG-20010904/DTD/svg10.dtd">
<svg version="1.0" xmlns="http://www.w3.org/2000/svg"
 width="192.000000pt" height="192.000000pt" viewBox="0 0 192.000000 192.000000"
 preserveAspectRatio="xMidYMid meet">
<metadata>
Created by potrace 1.16, written by Peter Selinger 2001-2019
</metadata>
<g transform="translate(0.000000,192.000000) scale(0.100000,-0.100000)"
fill="#000000" stroke="none">
811 c445 -92 729 -532 635 -987 -62 -301 -295 -546 -601 -630 -91 -26 -329
-26 -420 0 -291 80 -516 305 -596 596 -26 91 -26 329 0 420 120 433 542 692
982 601z"/>
<path d="M710 1304 c-62 -12 -137 -37 -152 -51 -16 -15 -18 -42 -18 -294 0
-278 0 -279 23 -293 19 -12 33 -12 102 1 96 17 167 13 360 -23 91 -17 158 -24
191 -21 59 6 129 38 144 66 6 12 10 120 10 280 0 252 -1 262 -21 282 -15 15
-27 19 -42 14 -60 -20 -166 -16 -293 9 -130 26 -258 39 -304 30z m247 -198
l28 -25 23 22 c19 17 36 22 83 22 53 0 62 -3 91 -33 33 -32 33 -33 37 -147 2
-63 0 -127 -3 -141 -6 -22 -11 -25 -44 -22 l-37 3 -5 113 c-5 104 -7 115 -29
133 -29 24 -43 24 -72 0 -22 -18 -24 -29 -29 -133 l-5 -113 -40 0 -40 0 -5
118 c-4 103 -8 121 -24 133 -27 19 -49 18 -77 -5 -22 -18 -24 -29 -29 -133
l-5 -113 -40 0 -40 0 0 165 0 165 38 3 c26 2 39 -1 43 -12 5 -13 10 -12 37 5
46 27 109 25 144 -5z"/>
</g>
</svg>
