<?xml version="1.0" standalone="no"?>
<!DOCTYPE svg PUBLIC "-//W3C//DTD SVG 20010904//EN"
 "http://www.w3.org/TR/2001/REC-SVG-20010904/DTD/svg10.dtd">
<svg version="1.0" xmlns="http://www.w3.org/2000/svg"
 width="192.000000pt" height="192.000000pt" viewBox="0 0 192.000000 192.000000"
 preserveAspectRatio="xMidYMid meet">
<metadata>
Created by potrace 1.16, written by Peter Selinger 2001-2019
</metadata>
<g transform="translate(0.000000,192.000000) scale(0.100000,-0.100000)"
fill="#000000" stroke="none">
811 c445 -92 729 -532 635 -987 -62 -301 -295 -546 -601 -630 -91 -26 -329
-26 -420 0 -291 80 -516 305 -596 596 -26 91 -26 329 0 420 120 433 542 692
982 601z"/>
<path d="M865 1367 c-109 -28 -218 -106 -259 -185 l-17 -32 366 0 c201 0 365
4 365 8 0 19 -62 93 -110 131 -93 73 -236 106 -345 78z m143 -64 c29 -39 8
-97 -38 -108 -36 -9 -80 27 -80 65 0 59 82 89 118 43z"/>
<path d="M945 1290 c-10 -11 -13 -20 -7 -20 7 0 12 -9 12 -20 0 -11 5 -20 10
-20 6 0 10 18 10 40 0 22 -2 40 -3 40 -2 0 -12 -9 -22 -20z"/>
<path d="M556 1063 c-49 -176 55 -388 231 -471 52 -24 69 -27 168 -27 103 0
114 2 177 32 114 54 192 149 224 273 16 63 16 173 0 199 -5 8 -124 11 -401 11
-366 0 -394 -1 -399 -17z m234 -92 c19 -36 -11 -68 -51 -56 -23 8 -34 42 -19
60 18 21 57 18 70 -4z m405 -15 c0 -36 -27 -56 -52 -40 -40 25 -20 77 26 72
21 -2 26 -8 26 -32z m-179 -72 c37 -17 64 -58 64 -95 0 -11 -15 -36 -34 -55
-29 -29 -41 -34 -82 -34 -63 0 -94 17 -118 61 -17 31 -17 38 -5 64 18 38 74
75 111 75 17 0 45 -7 64 -16z"/>
<path d="M876 805 c-6 -17 16 -31 33 -21 13 9 2 36 -14 36 -7 0 -16 -7 -19
-15z"/>
<path d="M1007 814 c-14 -14 -7 -35 11 -32 9 2 17 10 17 17 0 16 -18 25 -28
15z"/>
</g>
</svg>
