<?xml version="1.0" standalone="no"?>
<!DOCTYPE svg PUBLIC "-//W3C//DTD SVG 20010904//EN"
 "http://www.w3.org/TR/2001/REC-SVG-20010904/DTD/svg10.dtd">
<svg version="1.0" xmlns="http://www.w3.org/2000/svg"
 width="192.000000pt" height="192.000000pt" viewBox="0 0 192.000000 192.000000"
 preserveAspectRatio="xMidYMid meet">
<metadata>
Created by potrace 1.16, written by Peter Selinger 2001-2019
</metadata>
<g transform="translate(0.000000,192.000000) scale(0.100000,-0.100000)"
fill="#000000" stroke="none">
811 c445 -92 729 -532 635 -987 -62 -301 -295 -546 -601 -630 -91 -26 -329
-26 -420 0 -291 80 -516 305 -596 596 -26 91 -26 329 0 420 120 433 542 692
982 601z"/>
<path d="M870 1369 c-204 -40 -354 -255 -321 -459 11 -66 41 -144 51 -133 4 4
40 92 80 196 40 103 76 187 79 187 3 0 43 -57 89 -125 45 -69 86 -125 90 -125
5 0 42 83 82 185 40 101 76 183 79 180 3 -2 53 -112 111 -244 58 -133 108
-241 111 -241 18 0 41 133 37 209 -14 242 -245 418 -488 370z"/>
<path d="M1031 907 c-35 -89 -67 -165 -71 -170 -3 -4 -46 52 -94 124 -62 93
-91 128 -96 118 -4 -8 -31 -76 -60 -152 l-54 -137 30 -31 c16 -16 58 -44 94
-62 61 -30 71 -32 175 -32 98 0 116 3 165 26 57 28 140 93 140 111 0 14 -154
367 -160 368 -3 0 -34 -73 -69 -163z"/>
</g>
</svg>
