<?xml version="1.0" standalone="no"?>
<!DOCTYPE svg PUBLIC "-//W3C//DTD SVG 20010904//EN"
 "http://www.w3.org/TR/2001/REC-SVG-20010904/DTD/svg10.dtd">
<svg version="1.0" xmlns="http://www.w3.org/2000/svg"
 width="192.000000pt" height="192.000000pt" viewBox="0 0 192.000000 192.000000"
 preserveAspectRatio="xMidYMid meet">
<metadata>
Created by potrace 1.16, written by Peter Selinger 2001-2019
</metadata>
<g transform="translate(0.000000,192.000000) scale(0.100000,-0.100000)"
fill="#000000" stroke="none">
811 c445 -92 729 -532 635 -987 -62 -301 -295 -546 -601 -630 -91 -26 -329
-26 -420 0 -291 80 -516 305 -596 596 -26 91 -26 329 0 420 120 433 542 692
982 601z"/>
<path d="M667 1346 c-50 -18 -76 -42 -98 -91 -16 -34 -19 -67 -19 -225 0 -102
5 -201 10 -220 11 -41 61 -94 103 -109 38 -15 546 -15 584 0 42 15 92 68 103
109 5 19 10 118 10 220 0 158 -3 191 -19 225 -44 96 -75 104 -386 104 -186 0
-260 -3 -288 -13z m258 -170 c25 -10 36 -10 68 2 51 20 107 4 139 -41 21 -29
23 -43 23 -140 0 -109 -6 -126 -42 -127 -32 0 -43 31 -43 125 0 79 -3 96 -17
104 -11 6 -24 6 -35 0 -15 -8 -18 -24 -18 -104 0 -95 -11 -125 -45 -125 -34 0
-45 30 -45 125 0 79 -3 96 -17 104 -11 6 -24 6 -35 0 -15 -8 -18 -24 -18 -104
0 -72 -4 -97 -16 -109 -22 -23 -41 -20 -60 9 -23 36 -15 198 12 239 32 49 92
66 149 42z"/>
<path d="M755 640 c-15 -17 -16 -24 -7 -45 l12 -25 189 0 c159 0 192 3 205 16
22 21 20 40 -6 58 -18 13 -55 16 -199 16 -163 0 -177 -1 -194 -20z"/>
</g>
</svg>
