<?xml version="1.0" standalone="no"?>
<!DOCTYPE svg PUBLIC "-//W3C//DTD SVG 20010904//EN"
 "http://www.w3.org/TR/2001/REC-SVG-20010904/DTD/svg10.dtd">
<svg version="1.0" xmlns="http://www.w3.org/2000/svg"
 width="192.000000pt" height="192.000000pt" viewBox="0 0 192.000000 192.000000"
 preserveAspectRatio="xMidYMid meet">
<metadata>
Created by potrace 1.16, written by Peter Selinger 2001-2019
</metadata>
<g transform="translate(0.000000,192.000000) scale(0.100000,-0.100000)"
fill="#000000" stroke="none">
811 c445 -92 729 -532 635 -987 -62 -301 -295 -546 -601 -630 -91 -26 -329
-26 -420 0 -291 80 -516 305 -596 596 -26 91 -26 329 0 420 120 433 542 692
982 601z"/>
<path d="M861 1344 c-74 -37 -111 -96 -111 -175 0 -73 12 -105 58 -151 l36
-38 -147 0 c-133 0 -147 -2 -147 -17 0 -67 55 -150 121 -183 76 -39 179 -20
239 45 l25 27 5 -144 5 -143 33 3 c169 13 243 236 117 352 l-27 25 144 5 143
5 -3 35 c-5 48 -40 107 -85 144 -33 26 -48 31 -107 34 -61 4 -75 1 -114 -22
-25 -14 -52 -36 -60 -48 -14 -20 -16 -10 -18 123 l-3 144 -25 3 c-14 1 -49 -9
-79 -24z"/>
</g>
</svg>
