<?xml version="1.0" standalone="no"?>
<!DOCTYPE svg PUBLIC "-//W3C//DTD SVG 20010904//EN"
 "http://www.w3.org/TR/2001/REC-SVG-20010904/DTD/svg10.dtd">
<svg version="1.0" xmlns="http://www.w3.org/2000/svg"
 width="192.000000pt" height="192.000000pt" viewBox="0 0 192.000000 192.000000"
 preserveAspectRatio="xMidYMid meet">
<metadata>
Created by potrace 1.16, written by Peter Selinger 2001-2019
</metadata>
<g transform="translate(0.000000,192.000000) scale(0.100000,-0.100000)"
fill="#000000" stroke="none">
811 c445 -92 729 -532 635 -987 -62 -301 -295 -546 -601 -630 -91 -26 -329
-26 -420 0 -291 80 -516 305 -596 596 -26 91 -26 329 0 420 120 433 542 692
982 601z"/>
<path d="M900 1344 c-82 -22 -195 -82 -248 -130 l-47 -43 45 -1 c25 0 72 7
104 15 118 31 291 143 256 165 -20 13 -45 11 -110 -6z"/>
<path d="M986 1280 c-93 -73 -241 -129 -338 -130 -21 0 -38 -2 -38 -5 0 -3 29
-44 65 -92 63 -86 65 -87 104 -84 22 1 90 -5 153 -14 214 -32 318 -1 318 93 0
36 -27 56 -88 67 -38 6 -43 5 -51 -17 -5 -12 -19 -32 -32 -43 l-23 -20 22 29
c12 16 22 35 22 44 0 22 -54 212 -60 211 -3 0 -27 -18 -54 -39z"/>
<path d="M731 946 c-30 -16 -50 -52 -51 -89 0 -20 8 -32 33 -47 17 -11 39 -20
48 -20 9 0 19 -7 23 -15 3 -8 13 -15 23 -15 15 0 15 -2 -3 -14 -15 -12 -17
-18 -8 -33 7 -10 19 -17 28 -17 10 1 15 -5 13 -19 -3 -30 71 -83 136 -98 70
-15 142 1 199 45 53 40 57 52 16 58 -42 7 -51 3 -63 -25 -6 -12 -21 -27 -35
-34 -29 -15 -142 -13 -147 3 -2 6 23 38 55 73 57 61 59 62 99 55 44 -7 63 7
43 31 -12 15 0 22 13 8 4 -3 32 -7 62 -7 l55 -1 0 42 c0 49 -27 123 -44 123
-7 0 -18 -6 -24 -12 -20 -20 -270 -16 -355 5 -81 20 -85 20 -116 3z m207 -64
c-13 -16 -25 -25 -27 -20 -4 11 28 48 41 48 5 0 -1 -13 -14 -28z m-156 -32
c-2 -16 -8 -30 -13 -30 -12 0 -11 17 1 41 15 26 17 24 12 -11z m408 14 c0 -17
-22 -14 -28 4 -2 7 3 12 12 12 9 0 16 -7 16 -16z m-324 -32 c-7 -7 -46 9 -46
18 0 5 11 4 25 -2 14 -6 23 -13 21 -16z m-25 -20 c-7 -2 -18 1 -23 6 -8 8 -4
9 13 5 13 -4 18 -8 10 -11z m164 -12 c-5 -8 -11 -8 -17 -2 -6 6 -7 16 -3 22 5
8 11 8 17 2 6 -6 7 -16 3 -22z"/>
<path d="M1156 751 c-15 -16 -26 -19 -60 -15 -36 5 -44 2 -67 -23 -15 -15 -34
-40 -44 -55 -16 -26 -16 -28 -1 -34 49 -19 136 28 136 73 0 9 6 13 15 9 9 -3
15 0 15 10 0 12 6 10 28 -6 27 -20 32 -20 63 -7 34 14 66 43 57 52 -2 3 -31 8
-64 11 -52 5 -61 4 -78 -15z"/>
</g>
</svg>
