<?xml version="1.0" standalone="no"?>
<!DOCTYPE svg PUBLIC "-//W3C//DTD SVG 20010904//EN"
 "http://www.w3.org/TR/2001/REC-SVG-20010904/DTD/svg10.dtd">
<svg version="1.0" xmlns="http://www.w3.org/2000/svg"
 width="192.000000pt" height="192.000000pt" viewBox="0 0 192.000000 192.000000"
 preserveAspectRatio="xMidYMid meet">
<metadata>
Created by potrace 1.16, written by Peter Selinger 2001-2019
</metadata>
<g transform="translate(0.000000,192.000000) scale(0.100000,-0.100000)"
fill="#000000" stroke="none">
811 c445 -92 729 -532 635 -987 -62 -301 -295 -546 -601 -630 -91 -26 -329
-26 -420 0 -291 80 -516 305 -596 596 -26 91 -26 329 0 420 120 433 542 692
982 601z"/>
<path d="M695 1321 c-48 -22 -79 -54 -100 -103 -22 -54 -22 -452 0 -506 21
-49 52 -81 100 -103 35 -16 68 -19 260 -19 209 0 223 1 265 22 26 14 57 41 75
66 l30 44 0 243 0 243 -30 44 c-18 25 -49 52 -75 66 -42 21 -56 22 -265 22
-192 0 -225 -3 -260 -19z m553 -457 l-3 -136 -33 -29 -32 -29 -220 0 c-136 0
-228 4 -243 11 -47 21 -57 56 -57 193 l0 126 296 0 296 0 -4 -136z"/>
</g>
</svg>
