<?xml version="1.0" standalone="no"?>
<!DOCTYPE svg PUBLIC "-//W3C//DTD SVG 20010904//EN"
 "http://www.w3.org/TR/2001/REC-SVG-20010904/DTD/svg10.dtd">
<svg version="1.0" xmlns="http://www.w3.org/2000/svg"
 width="192.000000pt" height="192.000000pt" viewBox="0 0 192.000000 192.000000"
 preserveAspectRatio="xMidYMid meet">
<metadata>
Created by potrace 1.16, written by Peter Selinger 2001-2019
</metadata>
<g transform="translate(0.000000,192.000000) scale(0.100000,-0.100000)"
fill="#000000" stroke="none">
811 c445 -92 729 -532 635 -987 -62 -301 -295 -546 -601 -630 -91 -26 -329
-26 -420 0 -291 80 -516 305 -596 596 -26 91 -26 329 0 420 120 433 542 692
982 601z"/>
<path d="M1176 1369 c-14 -11 -26 -27 -26 -36 0 -12 -7 -14 -29 -10 -42 9 -97
-10 -121 -40 -42 -53 -16 -150 46 -173 33 -13 30 -41 -10 -103 -38 -60 -66
-87 -119 -116 -94 -52 -185 2 -137 82 30 49 26 93 -11 128 -42 40 -90 39 -152
-2 -52 -34 -60 -51 -58 -123 0 -36 6 -55 18 -64 16 -11 21 -9 38 12 15 19 26
24 43 20 30 -8 28 -20 -13 -88 -41 -69 -44 -99 -11 -130 20 -18 26 -34 28 -81
3 -62 20 -84 53 -71 14 5 16 9 7 18 -7 7 -12 19 -12 27 0 12 3 11 13 -3 15
-21 54 -17 48 5 -16 55 -13 80 14 105 22 20 26 32 23 60 -4 30 -1 35 14 31 33
-9 135 19 172 47 41 31 42 31 20 -40 -20 -61 -14 -84 21 -84 23 0 25 -3 25
-50 0 -30 -7 -61 -16 -76 -24 -36 -4 -55 34 -34 26 15 27 21 32 105 l5 90 8
-83 c7 -75 6 -86 -13 -109 -24 -31 -14 -49 25 -39 35 9 48 47 40 122 l-7 62
46 -5 c43 -5 46 -4 56 23 7 16 9 40 6 54 -4 24 -2 26 30 22 42 -5 54 17 30 53
-14 22 -15 25 -1 25 32 0 12 26 -43 58 -156 90 -179 124 -122 180 20 21 30 40
30 61 0 26 4 31 24 31 14 0 37 11 52 23 35 31 37 77 4 112 -29 31 -68 32 -104
4z"/>
</g>
</svg>
