<?xml version="1.0" standalone="no"?>
<!DOCTYPE svg PUBLIC "-//W3C//DTD SVG 20010904//EN"
 "http://www.w3.org/TR/2001/REC-SVG-20010904/DTD/svg10.dtd">
<svg version="1.0" xmlns="http://www.w3.org/2000/svg"
 width="192.000000pt" height="192.000000pt" viewBox="0 0 192.000000 192.000000"
 preserveAspectRatio="xMidYMid meet">
<metadata>
Created by potrace 1.16, written by Peter Selinger 2001-2019
</metadata>
<g transform="translate(0.000000,192.000000) scale(0.100000,-0.100000)"
fill="#000000" stroke="none">
811 c445 -92 729 -532 635 -987 -62 -301 -295 -546 -601 -630 -91 -26 -329
-26 -420 0 -291 80 -516 305 -596 596 -26 91 -26 329 0 420 120 433 542 692
982 601z"/>
<path d="M735 1379 c-16 -24 12 -62 139 -188 80 -79 133 -138 129 -146 -2 -8
-41 -42 -86 -76 -97 -74 -116 -95 -117 -129 0 -54 63 -118 135 -136 40 -9 45
-19 45 -86 0 -59 13 -78 54 -78 18 0 22 35 6 45 -5 3 -9 30 -8 58 l1 52 6 -45
c5 -34 12 -47 30 -57 14 -6 29 -10 33 -7 11 7 10 42 -2 49 -5 3 -10 22 -10 40
0 25 6 39 24 50 49 33 51 62 13 182 -53 163 -52 150 -18 167 46 24 71 63 71
110 0 44 -27 98 -58 115 -24 13 -334 91 -361 91 -11 0 -23 -5 -26 -11z"/>
</g>
</svg>
