<?xml version="1.0" standalone="no"?>
<!DOCTYPE svg PUBLIC "-//W3C//DTD SVG 20010904//EN"
 "http://www.w3.org/TR/2001/REC-SVG-20010904/DTD/svg10.dtd">
<svg version="1.0" xmlns="http://www.w3.org/2000/svg"
 width="192.000000pt" height="192.000000pt" viewBox="0 0 192.000000 192.000000"
 preserveAspectRatio="xMidYMid meet">
<metadata>
Created by potrace 1.16, written by Peter Selinger 2001-2019
</metadata>
<g transform="translate(0.000000,192.000000) scale(0.100000,-0.100000)"
fill="#000000" stroke="none">
811 c445 -92 729 -532 635 -987 -62 -301 -295 -546 -601 -630 -91 -26 -329
-26 -420 0 -291 80 -516 305 -596 596 -26 91 -26 329 0 420 120 433 542 692
982 601z"/>
<path d="M977 1234 c-147 -23 -304 -75 -396 -132 -33 -20 -34 -23 -36 -89 -1
-37 -5 -87 -10 -110 -8 -47 8 -103 31 -103 28 0 35 39 28 150 l-7 110 41 0
c75 0 72 6 72 -170 0 -139 2 -160 19 -181 13 -17 29 -23 56 -23 63 0 75 25 75
159 l0 113 38 13 c20 6 42 15 48 20 20 16 24 -4 24 -122 0 -127 9 -161 47
-178 34 -15 47 -14 76 9 25 20 26 24 29 156 3 121 5 137 22 150 27 19 52 18
76 -6 18 -18 20 -33 20 -145 0 -120 1 -127 25 -150 27 -28 42 -30 78 -14 39
17 47 50 47 182 0 154 -17 198 -93 236 -61 30 -157 33 -217 6 -41 -18 -41 -18
-62 2 l-21 21 52 37 c48 35 63 64 36 71 -5 1 -50 -4 -98 -12z"/>
</g>
</svg>
