<?xml version="1.0" standalone="no"?>
<!DOCTYPE svg PUBLIC "-//W3C//DTD SVG 20010904//EN"
 "http://www.w3.org/TR/2001/REC-SVG-20010904/DTD/svg10.dtd">
<svg version="1.0" xmlns="http://www.w3.org/2000/svg"
 width="192.000000pt" height="192.000000pt" viewBox="0 0 192.000000 192.000000"
 preserveAspectRatio="xMidYMid meet">
<metadata>
Created by potrace 1.16, written by Peter Selinger 2001-2019
</metadata>
<g transform="translate(0.000000,192.000000) scale(0.100000,-0.100000)"
fill="#000000" stroke="none">
811 c445 -92 729 -532 635 -987 -62 -301 -295 -546 -601 -630 -91 -26 -329
-26 -420 0 -291 80 -516 305 -596 596 -26 91 -26 329 0 420 120 433 542 692
982 601z"/>
<path d="M809 1347 c-121 -51 -181 -107 -233 -216 -28 -60 -31 -74 -31 -166 0
-81 5 -109 22 -148 101 -221 347 -317 558 -219 317 149 322 579 8 734 -60 29
-77 33 -167 36 -88 2 -108 0 -157 -21z m283 -84 c67 -30 140 -102 169 -167 24
-54 36 -160 20 -170 -6 -4 -11 -3 -11 2 0 20 -43 52 -71 52 -24 0 -36 -9 -61
-45 -18 -25 -34 -45 -37 -45 -3 0 -19 21 -35 46 -51 81 -75 104 -108 104 -45
0 -61 -13 -109 -86 l-43 -67 -21 29 c-33 46 -63 74 -81 74 -9 0 -32 -17 -51
-37 l-35 -38 4 70 c16 235 251 374 470 278z"/>
</g>
</svg>
