<?xml version="1.0" standalone="no"?>
<!DOCTYPE svg PUBLIC "-//W3C//DTD SVG 20010904//EN"
 "http://www.w3.org/TR/2001/REC-SVG-20010904/DTD/svg10.dtd">
<svg version="1.0" xmlns="http://www.w3.org/2000/svg"
 width="192.000000pt" height="192.000000pt" viewBox="0 0 192.000000 192.000000"
 preserveAspectRatio="xMidYMid meet">
<metadata>
Created by potrace 1.16, written by Peter Selinger 2001-2019
</metadata>
<g transform="translate(0.000000,192.000000) scale(0.100000,-0.100000)"
fill="#000000" stroke="none">
811 c445 -92 729 -532 635 -987 -62 -301 -295 -546 -601 -630 -91 -26 -329
-26 -420 0 -291 80 -516 305 -596 596 -26 91 -26 329 0 420 120 433 542 692
982 601z"/>
<path d="M556 1299 c-14 -20 -16 -62 -16 -300 0 -250 2 -277 18 -292 13 -12
48 -16 166 -19 l148 -3 38 -44 c33 -38 40 -42 58 -32 11 6 23 19 26 29 12 38
46 46 201 52 147 5 150 5 162 30 18 36 18 534 0 570 -12 25 -15 25 -142 28
-116 2 -134 0 -163 -18 -60 -37 -72 -82 -72 -271 0 -145 -2 -168 -16 -173 -37
-14 -43 9 -46 200 l-3 184 -38 37 -37 38 -134 3 c-130 3 -134 3 -150 -19z"/>
</g>
</svg>
