<?xml version="1.0" standalone="no"?>
<!DOCTYPE svg PUBLIC "-//W3C//DTD SVG 20010904//EN"
 "http://www.w3.org/TR/2001/REC-SVG-20010904/DTD/svg10.dtd">
<svg version="1.0" xmlns="http://www.w3.org/2000/svg"
 width="192.000000pt" height="192.000000pt" viewBox="0 0 192.000000 192.000000"
 preserveAspectRatio="xMidYMid meet">
<metadata>
Created by potrace 1.16, written by Peter Selinger 2001-2019
</metadata>
<g transform="translate(0.000000,192.000000) scale(0.100000,-0.100000)"
fill="#000000" stroke="none">
811 c445 -92 729 -532 635 -987 -62 -301 -295 -546 -601 -630 -91 -26 -329
-26 -420 0 -291 80 -516 305 -596 596 -26 91 -26 329 0 420 120 433 542 692
982 601z"/>
<path d="M719 1317 c-24 -13 -57 -43 -74 -66 l-30 -43 -3 -206 c-4 -270 -5
-267 157 -369 62 -39 129 -74 147 -78 50 -9 99 8 205 71 178 107 182 116 177
380 -3 205 -7 220 -65 278 -50 51 -76 56 -281 56 -178 0 -191 -1 -233 -23z
m176 -217 l59 -60 62 61 c63 62 87 70 108 37 9 -15 0 -28 -54 -83 l-64 -64 62
-65 c66 -69 65 -67 56 -90 -12 -32 -49 -17 -109 44 l-59 60 -62 -61 c-46 -46
-67 -60 -85 -57 -44 6 -35 37 32 104 l63 64 -63 64 c-50 51 -62 68 -56 85 12
37 47 25 110 -39z"/>
</g>
</svg>
