<?xml version="1.0" standalone="no"?>
<!DOCTYPE svg PUBLIC "-//W3C//DTD SVG 20010904//EN"
 "http://www.w3.org/TR/2001/REC-SVG-20010904/DTD/svg10.dtd">
<svg version="1.0" xmlns="http://www.w3.org/2000/svg"
 width="192.000000pt" height="192.000000pt" viewBox="0 0 192.000000 192.000000"
 preserveAspectRatio="xMidYMid meet">
<metadata>
Created by potrace 1.16, written by Peter Selinger 2001-2019
</metadata>
<g transform="translate(0.000000,192.000000) scale(0.100000,-0.100000)"
fill="#000000" stroke="none">
811 c445 -92 729 -532 635 -987 -62 -301 -295 -546 -601 -630 -91 -26 -329
-26 -420 0 -291 80 -516 305 -596 596 -26 91 -26 329 0 420 120 433 542 692
982 601z"/>
<path d="M616 1304 c-20 -19 -23 -163 -4 -182 8 -8 56 -12 149 -12 168 0 169
0 169 104 0 104 -3 106 -168 106 -105 0 -134 -3 -146 -16z"/>
<path d="M997 1302 c-15 -16 -17 -46 -17 -218 0 -142 3 -203 12 -212 8 -8 57
-12 155 -12 130 0 143 2 153 19 6 12 10 99 10 214 0 175 -2 195 -18 210 -15
14 -42 17 -149 17 -113 0 -132 -2 -146 -18z"/>
<path d="M616 1054 c-12 -11 -16 -36 -16 -94 0 -68 3 -81 19 -90 11 -5 78 -10
150 -10 160 0 161 1 161 105 0 104 -1 105 -165 105 -108 0 -137 -3 -149 -16z"/>
<path d="M618 809 c-15 -8 -18 -24 -18 -92 0 -51 5 -88 12 -95 17 -17 669 -17
686 0 7 7 12 44 12 95 0 71 -3 84 -19 93 -26 14 -650 13 -673 -1z"/>
</g>
</svg>
