<?xml version="1.0" standalone="no"?>
<!DOCTYPE svg PUBLIC "-//W3C//DTD SVG 20010904//EN"
 "http://www.w3.org/TR/2001/REC-SVG-20010904/DTD/svg10.dtd">
<svg version="1.0" xmlns="http://www.w3.org/2000/svg"
 width="192.000000pt" height="192.000000pt" viewBox="0 0 192.000000 192.000000"
 preserveAspectRatio="xMidYMid meet">
<metadata>
Created by potrace 1.16, written by Peter Selinger 2001-2019
</metadata>
<g transform="translate(0.000000,192.000000) scale(0.100000,-0.100000)"
fill="#000000" stroke="none">
811 c445 -92 729 -532 635 -987 -62 -301 -295 -546 -601 -630 -91 -26 -329
-26 -420 0 -291 80 -516 305 -596 596 -26 91 -26 329 0 420 120 433 542 692
982 601z"/>
<path d="M707 1325 c-48 -16 -83 -48 -108 -97 -17 -33 -19 -61 -19 -263 0
-170 3 -234 14 -258 17 -39 71 -92 109 -106 38 -15 466 -15 504 0 38 14 92 67
109 106 11 24 14 88 14 258 0 204 -2 229 -20 264 -24 48 -70 87 -118 101 -57
15 -438 12 -485 -5z m290 -116 c97 -36 121 -151 47 -223 l-36 -35 36 -107 c27
-81 33 -111 25 -121 -16 -18 -212 -18 -228 0 -8 10 -2 40 25 121 l36 107 -36
35 c-72 70 -53 180 38 220 38 16 57 17 93 3z"/>
</g>
</svg>
