<?xml version="1.0" standalone="no"?>
<!DOCTYPE svg PUBLIC "-//W3C//DTD SVG 20010904//EN"
 "http://www.w3.org/TR/2001/REC-SVG-20010904/DTD/svg10.dtd">
<svg version="1.0" xmlns="http://www.w3.org/2000/svg"
 width="192.000000pt" height="192.000000pt" viewBox="0 0 192.000000 192.000000"
 preserveAspectRatio="xMidYMid meet">
<metadata>
Created by potrace 1.16, written by Peter Selinger 2001-2019
</metadata>
<g transform="translate(0.000000,192.000000) scale(0.100000,-0.100000)"
fill="#000000" stroke="none">
811 c445 -92 729 -532 635 -987 -62 -301 -295 -546 -601 -630 -91 -26 -329
-26 -420 0 -291 80 -516 305 -596 596 -26 91 -26 329 0 420 120 433 542 692
982 601z"/>
<path d="M695 1321 c-48 -22 -79 -54 -100 -103 -22 -54 -22 -452 0 -506 21
-49 52 -81 100 -103 35 -16 67 -19 260 -19 247 0 280 7 327 71 43 58 48 90 48
298 0 210 -7 256 -47 310 -49 64 -81 71 -328 71 -193 0 -225 -3 -260 -19z
m337 -135 c22 -64 70 -113 131 -134 52 -18 72 -41 62 -71 -9 -28 -29 -32 -81
-16 -96 29 -170 104 -195 197 -16 60 -8 80 33 76 29 -3 34 -9 50 -52z m123 25
c8 -16 24 -32 35 -36 50 -16 45 -75 -7 -75 -51 0 -126 104 -96 133 17 18 53 6
68 -22z m-353 -260 c39 -15 116 -89 138 -131 23 -45 33 -101 22 -118 -12 -17
-63 -12 -72 8 -5 8 -16 34 -26 58 -21 52 -68 95 -121 112 -50 17 -63 28 -63
56 0 42 42 48 122 15z m-27 -145 c41 -32 63 -80 45 -101 -20 -25 -38 -18 -90
35 -47 46 -58 68 -43 83 14 15 58 6 88 -17z"/>
</g>
</svg>
