<?xml version="1.0" standalone="no"?>
<!DOCTYPE svg PUBLIC "-//W3C//DTD SVG 20010904//EN"
 "http://www.w3.org/TR/2001/REC-SVG-20010904/DTD/svg10.dtd">
<svg version="1.0" xmlns="http://www.w3.org/2000/svg"
 width="192.000000pt" height="192.000000pt" viewBox="0 0 192.000000 192.000000"
 preserveAspectRatio="xMidYMid meet">
<metadata>
Created by potrace 1.16, written by Peter Selinger 2001-2019
</metadata>
<g transform="translate(0.000000,192.000000) scale(0.100000,-0.100000)"
fill="#000000" stroke="none">
811 c445 -92 729 -532 635 -987 -62 -301 -295 -546 -601 -630 -91 -26 -329
-26 -420 0 -291 80 -516 305 -596 596 -26 91 -26 329 0 420 120 433 542 692
982 601z"/>
<path d="M868 1325 c-42 -20 -115 -44 -163 -54 -121 -27 -119 -24 -112 -151 7
-135 30 -239 67 -316 53 -108 212 -234 296 -234 92 0 270 151 312 265 46 126
71 370 41 400 -9 9 -54 25 -100 35 -46 10 -121 34 -166 54 -45 20 -85 36 -90
36 -4 0 -43 -16 -85 -35z m143 -105 c22 -12 74 -29 115 -40 42 -10 79 -21 82
-25 18 -17 -9 -227 -37 -290 -37 -85 -146 -175 -210 -175 -65 0 -161 67 -206
145 -30 50 -55 170 -55 260 l0 64 43 11 c90 22 123 33 157 51 45 24 62 23 111
-1z"/>
</g>
</svg>
