<?xml version="1.0" standalone="no"?>
<!DOCTYPE svg PUBLIC "-//W3C//DTD SVG 20010904//EN"
 "http://www.w3.org/TR/2001/REC-SVG-20010904/DTD/svg10.dtd">
<svg version="1.0" xmlns="http://www.w3.org/2000/svg"
 width="192.000000pt" height="192.000000pt" viewBox="0 0 192.000000 192.000000"
 preserveAspectRatio="xMidYMid meet">
<metadata>
Created by potrace 1.16, written by Peter Selinger 2001-2019
</metadata>
<g transform="translate(0.000000,192.000000) scale(0.100000,-0.100000)"
fill="#000000" stroke="none">
811 c445 -92 729 -532 635 -987 -62 -301 -295 -546 -601 -630 -91 -26 -329
-26 -420 0 -291 80 -516 305 -596 596 -26 91 -26 329 0 420 120 433 542 692
982 601z"/>
<path d="M702 1280 c-55 -13 -106 -54 -137 -111 -27 -48 -30 -63 -30 -140 0
-83 1 -88 39 -145 21 -32 76 -95 122 -140 223 -217 290 -217 514 5 136 135
170 191 170 282 0 149 -91 253 -220 253 -66 -1 -109 -21 -168 -78 l-43 -41
-25 33 c-51 64 -148 100 -222 82z m226 -231 l22 -20 27 20 c45 36 104 27 128
-20 32 -61 14 -111 -66 -183 -75 -68 -103 -65 -186 17 -55 55 -63 69 -63 101
0 40 22 91 42 99 30 12 75 6 96 -14z"/>
</g>
</svg>
