<?xml version="1.0" standalone="no"?>
<!DOCTYPE svg PUBLIC "-//W3C//DTD SVG 20010904//EN"
 "http://www.w3.org/TR/2001/REC-SVG-20010904/DTD/svg10.dtd">
<svg version="1.0" xmlns="http://www.w3.org/2000/svg"
 width="192.000000pt" height="192.000000pt" viewBox="0 0 192.000000 192.000000"
 preserveAspectRatio="xMidYMid meet">
<metadata>
Created by potrace 1.16, written by Peter Selinger 2001-2019
</metadata>
<g transform="translate(0.000000,192.000000) scale(0.100000,-0.100000)"
fill="#000000" stroke="none">
811 c445 -92 729 -532 635 -987 -62 -301 -295 -546 -601 -630 -91 -26 -329
-26 -420 0 -291 80 -516 305 -596 596 -26 91 -26 329 0 420 120 433 542 692
982 601z"/>
<path d="M629 1291 c-28 -29 -29 -32 -29 -131 0 -158 11 -169 168 -170 107 0
114 1 137 25 24 23 25 30 25 140 0 110 -1 117 -25 140 -23 24 -31 25 -135 25
-110 0 -112 0 -141 -29z m201 -136 l0 -55 -60 0 -60 0 0 55 0 55 60 0 60 0 0
-55z"/>
<path d="M1010 1292 c-29 -30 -30 -32 -30 -132 0 -105 13 -151 45 -164 9 -3
66 -6 126 -6 103 0 111 1 134 25 24 23 25 30 25 138 0 160 -1 161 -154 165
l-116 4 -30 -30z m190 -137 l0 -55 -55 0 -55 0 0 55 0 55 55 0 55 0 0 -55z"/>
<path d="M642 933 c-29 -11 -42 -62 -42 -163 0 -100 1 -102 30 -132 l30 -30
116 4 c153 4 154 5 154 165 0 108 -1 115 -25 138 -23 24 -30 25 -137 24 -62 0
-119 -3 -126 -6z m178 -158 l0 -55 -55 0 -55 0 0 55 0 55 55 0 55 0 0 -55z"/>
<path d="M1022 933 c-29 -11 -42 -62 -42 -163 0 -100 1 -102 30 -132 l30 -30
116 4 c153 4 154 5 154 165 0 108 -1 115 -25 138 -23 24 -30 25 -137 24 -62 0
-119 -3 -126 -6z m178 -158 l0 -55 -55 0 -55 0 0 55 0 55 55 0 55 0 0 -55z"/>
</g>
</svg>
