<?xml version="1.0" standalone="no"?>
<!DOCTYPE svg PUBLIC "-//W3C//DTD SVG 20010904//EN"
 "http://www.w3.org/TR/2001/REC-SVG-20010904/DTD/svg10.dtd">
<svg version="1.0" xmlns="http://www.w3.org/2000/svg"
 width="192.000000pt" height="192.000000pt" viewBox="0 0 192.000000 192.000000"
 preserveAspectRatio="xMidYMid meet">
<metadata>
Created by potrace 1.16, written by Peter Selinger 2001-2019
</metadata>
<g transform="translate(0.000000,192.000000) scale(0.100000,-0.100000)"
fill="#000000" stroke="none">
811 c445 -92 729 -532 635 -987 -62 -301 -295 -546 -601 -630 -91 -26 -329
-26 -420 0 -291 80 -516 305 -596 596 -26 91 -26 329 0 420 120 433 542 692
982 601z"/>
<path d="M730 1265 c-105 -33 -183 -140 -183 -255 0 -77 17 -122 69 -180 64
-70 100 -83 249 -90 l130 -5 5 -40 c7 -53 24 -52 126 6 97 55 186 136 215 196
67 139 -15 324 -165 368 -67 20 -381 20 -446 0z m464 -131 c38 -37 7 -56 -90
-52 -61 2 -79 7 -88 21 -18 30 17 47 95 47 48 0 72 -5 83 -16z m-314 -9 c39
-20 60 -63 60 -121 0 -39 -5 -51 -33 -79 -57 -57 -132 -59 -186 -4 -80 80 -26
219 85 219 25 0 58 -7 74 -15z m319 -89 c9 -11 10 -20 1 -36 -10 -19 -18 -21
-92 -18 -62 2 -83 7 -91 20 -8 12 -7 21 2 32 18 22 163 23 180 2z m0 -100 c15
-18 4 -45 -23 -52 -12 -3 -50 -4 -85 -2 -71 3 -97 22 -72 52 18 21 163 23 180
2z"/>
</g>
</svg>
