<?xml version="1.0" standalone="no"?>
<!DOCTYPE svg PUBLIC "-//W3C//DTD SVG 20010904//EN"
 "http://www.w3.org/TR/2001/REC-SVG-20010904/DTD/svg10.dtd">
<svg version="1.0" xmlns="http://www.w3.org/2000/svg"
 width="192.000000pt" height="192.000000pt" viewBox="0 0 192.000000 192.000000"
 preserveAspectRatio="xMidYMid meet">
<metadata>
Created by potrace 1.16, written by Peter Selinger 2001-2019
</metadata>
<g transform="translate(0.000000,192.000000) scale(0.100000,-0.100000)"
fill="#000000" stroke="none">
811 c445 -92 729 -532 635 -987 -62 -301 -295 -546 -601 -630 -91 -26 -329
-26 -420 0 -291 80 -516 305 -596 596 -26 91 -26 329 0 420 120 433 542 692
982 601z"/>
<path d="M753 1302 c-182 -108 -183 -111 -183 -327 0 -218 1 -220 200 -337
118 -69 128 -73 185 -73 57 0 67 4 185 73 199 117 200 119 200 337 0 159 -8
200 -47 237 -40 38 -254 160 -270 154 -11 -4 -13 -40 -11 -168 l3 -163 52 -3
c41 -2 55 -8 64 -23 17 -33 3 -59 -75 -143 -57 -60 -80 -78 -101 -78 -21 0
-44 18 -101 78 -78 84 -92 110 -75 143 9 15 23 21 64 23 l52 3 0 165 c0 139
-2 165 -15 167 -8 0 -65 -29 -127 -65z"/>
</g>
</svg>
