<?xml version="1.0" standalone="no"?>
<!DOCTYPE svg PUBLIC "-//W3C//DTD SVG 20010904//EN"
 "http://www.w3.org/TR/2001/REC-SVG-20010904/DTD/svg10.dtd">
<svg version="1.0" xmlns="http://www.w3.org/2000/svg"
 width="192.000000pt" height="192.000000pt" viewBox="0 0 192.000000 192.000000"
 preserveAspectRatio="xMidYMid meet">
<metadata>
Created by potrace 1.16, written by Peter Selinger 2001-2019
</metadata>
<g transform="translate(0.000000,192.000000) scale(0.100000,-0.100000)"
fill="#000000" stroke="none">
811 c445 -92 729 -532 635 -987 -62 -301 -295 -546 -601 -630 -91 -26 -329
-26 -420 0 -291 80 -516 305 -596 596 -26 91 -26 329 0 420 120 433 542 692
982 601z"/>
<path d="M845 1369 c-17 -4 -44 -22 -60 -39 -25 -26 -30 -40 -33 -94 l-4 -64
-64 -4 c-106 -7 -144 -60 -144 -203 0 -91 13 -134 50 -170 26 -25 40 -30 94
-33 l64 -4 4 -64 c7 -106 60 -144 203 -144 91 0 134 13 170 50 25 26 30 40 33
94 l4 64 64 4 c106 7 144 60 144 203 0 91 -13 134 -50 170 -26 25 -40 30 -94
33 l-64 4 -4 64 c-7 108 -61 145 -208 143 -41 0 -89 -5 -105 -10z m315 -404
l0 -205 -205 0 -205 0 0 205 0 205 205 0 205 0 0 -205z"/>
<path d="M790 965 l0 -165 165 0 165 0 0 165 0 165 -165 0 -165 0 0 -165z"/>
</g>
</svg>
