<?xml version="1.0" standalone="no"?>
<!DOCTYPE svg PUBLIC "-//W3C//DTD SVG 20010904//EN"
 "http://www.w3.org/TR/2001/REC-SVG-20010904/DTD/svg10.dtd">
<svg version="1.0" xmlns="http://www.w3.org/2000/svg"
 width="192.000000pt" height="192.000000pt" viewBox="0 0 192.000000 192.000000"
 preserveAspectRatio="xMidYMid meet">
<metadata>
Created by potrace 1.16, written by Peter Selinger 2001-2019
</metadata>
<g transform="translate(0.000000,192.000000) scale(0.100000,-0.100000)"
fill="#000000" stroke="none">
811 c445 -92 729 -532 635 -987 -62 -301 -295 -546 -601 -630 -91 -26 -329
-26 -420 0 -291 80 -516 305 -596 596 -26 91 -26 329 0 420 120 433 542 692
982 601z"/>
<path d="M616 1304 c-12 -11 -16 -36 -16 -90 l0 -74 -30 0 c-25 0 -50 -21 -50
-44 0 -14 34 -36 56 -36 l24 0 0 -209 c0 -177 2 -212 16 -225 18 -19 20 -19
45 -6 18 10 19 23 19 225 0 211 0 215 21 215 31 0 59 18 59 38 0 26 -20 42
-52 42 l-28 0 0 80 c0 68 -3 81 -19 90 -25 13 -27 13 -45 -6z"/>
<path d="M828 1309 c-16 -9 -18 -29 -18 -194 l0 -185 -23 0 c-13 0 -32 -9 -43
-21 -24 -27 -9 -53 35 -57 l31 -3 0 -109 c0 -98 2 -110 19 -120 25 -13 27 -13
45 6 13 12 16 38 16 120 l0 104 28 0 c30 0 52 16 52 36 0 21 -30 44 -56 44
l-24 0 0 179 c0 150 -3 182 -16 195 -18 19 -23 19 -46 5z"/>
<path d="M1038 1309 c-15 -8 -18 -24 -18 -89 l0 -80 -28 0 c-32 0 -52 -16 -52
-42 0 -20 28 -38 59 -38 21 0 21 -4 21 -215 0 -202 1 -215 19 -225 25 -13 27
-13 45 6 14 13 16 48 16 225 l0 209 24 0 c22 0 56 22 56 36 0 23 -25 44 -50
44 l-30 0 0 74 c0 54 -4 79 -16 90 -18 19 -23 19 -46 5z"/>
<path d="M1248 1309 c-16 -9 -18 -33 -18 -274 l0 -264 -31 -3 c-18 -2 -37 -11
-43 -20 -16 -26 4 -52 43 -56 27 -3 31 -7 31 -32 0 -25 22 -50 44 -50 14 0 36
34 36 56 0 19 5 24 24 24 22 0 56 22 56 36 0 23 -25 44 -50 44 l-30 0 0 259
c0 223 -2 262 -16 275 -18 19 -23 19 -46 5z"/>
</g>
</svg>
