<?xml version="1.0" standalone="no"?>
<!DOCTYPE svg PUBLIC "-//W3C//DTD SVG 20010904//EN"
 "http://www.w3.org/TR/2001/REC-SVG-20010904/DTD/svg10.dtd">
<svg version="1.0" xmlns="http://www.w3.org/2000/svg"
 width="192.000000pt" height="192.000000pt" viewBox="0 0 192.000000 192.000000"
 preserveAspectRatio="xMidYMid meet">
<metadata>
Created by potrace 1.16, written by Peter Selinger 2001-2019
</metadata>
<g transform="translate(0.000000,192.000000) scale(0.100000,-0.100000)"
fill="#000000" stroke="none">
811 c445 -92 729 -532 635 -987 -62 -301 -295 -546 -601 -630 -91 -26 -329
-26 -420 0 -291 80 -516 305 -596 596 -26 91 -26 329 0 420 120 433 542 692
982 601z"/>
<path d="M850 1318 c-24 -9 -35 -19 -35 -33 0 -16 5 -19 25 -16 14 2 66 4 115
5 105 1 157 -18 224 -85 66 -66 86 -119 86 -224 0 -97 -19 -149 -72 -207 -26
-28 -26 -58 1 -58 20 0 65 56 95 120 22 47 26 69 26 150 0 84 -3 101 -28 150
-38 74 -99 135 -172 173 -51 26 -73 31 -145 34 -51 2 -99 -2 -120 -9z"/>
<path d="M705 1285 c-14 -13 -25 -31 -25 -40 0 -22 45 -65 68 -65 23 0 62 40
62 64 0 21 -44 66 -65 66 -9 0 -27 -11 -40 -25z"/>
<path d="M852 1223 c-59 -21 -135 -99 -156 -159 -46 -136 10 -279 138 -347 32
-17 58 -22 121 -22 69 0 86 4 126 27 96 56 142 132 143 233 1 64 -1 70 -19 70
-17 0 -21 -9 -26 -65 -7 -77 -24 -114 -77 -162 -109 -98 -277 -68 -345 62 -25
48 -28 64 -25 121 4 79 35 134 100 176 57 38 164 44 223 14 35 -19 41 -20 55
-6 13 14 13 18 -9 34 -55 42 -168 53 -249 24z"/>
<path d="M638 1147 c-37 -58 -52 -125 -46 -206 10 -129 91 -248 210 -304 96
-45 238 -49 238 -7 0 18 -7 20 -70 20 -129 0 -234 61 -295 171 -27 49 -30 63
-30 144 0 79 3 97 29 147 27 54 28 78 3 78 -7 0 -24 -19 -39 -43z"/>
<path d="M1104 1124 c-35 -53 21 -113 80 -86 58 26 36 112 -29 112 -26 0 -39
-6 -51 -26z"/>
<path d="M924 1073 c-35 -25 -36 -93 -2 -106 9 -3 6 -7 -7 -11 -52 -18 -70
-33 -73 -60 -2 -16 2 -32 10 -37 7 -5 54 -9 103 -9 50 0 96 4 103 9 8 5 12 21
10 37 -3 27 -23 44 -73 59 -12 4 -15 9 -9 13 6 4 17 18 24 31 10 20 9 27 -7
50 -20 26 -58 38 -79 24z"/>
<path d="M1077 702 c-37 -41 -11 -102 42 -102 55 0 80 61 41 100 -25 25 -62
26 -83 2z"/>
</g>
</svg>
