<?xml version="1.0" standalone="no"?>
<!DOCTYPE svg PUBLIC "-//W3C//DTD SVG 20010904//EN"
 "http://www.w3.org/TR/2001/REC-SVG-20010904/DTD/svg10.dtd">
<svg version="1.0" xmlns="http://www.w3.org/2000/svg"
 width="192.000000pt" height="192.000000pt" viewBox="0 0 192.000000 192.000000"
 preserveAspectRatio="xMidYMid meet">
<metadata>
Created by potrace 1.16, written by Peter Selinger 2001-2019
</metadata>
<g transform="translate(0.000000,192.000000) scale(0.100000,-0.100000)"
fill="#000000" stroke="none">
811 c445 -92 729 -532 635 -987 -62 -301 -295 -546 -601 -630 -91 -26 -329
-26 -420 0 -291 80 -516 305 -596 596 -26 91 -26 329 0 420 120 433 542 692
982 601z"/>
<path d="M704 1236 c-38 -17 -71 -58 -84 -105 -5 -20 -14 -110 -20 -200 -13
-186 -8 -210 45 -235 42 -20 69 -11 140 49 l52 45 118 0 118 0 56 -48 c66 -57
93 -67 137 -46 53 25 57 45 43 247 -10 146 -17 188 -33 221 -41 79 -119 106
-198 67 -61 -29 -187 -30 -243 -1 -45 23 -87 25 -131 6z m476 -202 c0 -30 -3
-54 -8 -54 -13 0 -82 50 -82 60 0 13 72 60 82 54 4 -3 8 -30 8 -60z m-352 44
c7 -7 12 -20 12 -29 0 -10 9 -19 21 -21 48 -7 51 -68 4 -68 -20 0 -25 -5 -25
-25 0 -47 -61 -44 -68 4 -2 13 -11 21 -22 21 -29 0 -44 35 -24 54 8 9 22 16
30 16 8 0 14 8 14 18 0 20 18 42 35 42 6 0 16 -5 23 -12z m293 -99 c16 -11 29
-26 29 -32 0 -16 -68 -59 -80 -52 -6 4 -10 28 -10 56 0 56 13 62 61 28z"/>
</g>
</svg>
