<?xml version="1.0" standalone="no"?>
<!DOCTYPE svg PUBLIC "-//W3C//DTD SVG 20010904//EN"
 "http://www.w3.org/TR/2001/REC-SVG-20010904/DTD/svg10.dtd">
<svg version="1.0" xmlns="http://www.w3.org/2000/svg"
 width="192.000000pt" height="192.000000pt" viewBox="0 0 192.000000 192.000000"
 preserveAspectRatio="xMidYMid meet">
<metadata>
Created by potrace 1.16, written by Peter Selinger 2001-2019
</metadata>
<g transform="translate(0.000000,192.000000) scale(0.100000,-0.100000)"
fill="#000000" stroke="none">
811 c445 -92 729 -532 635 -987 -62 -301 -295 -546 -601 -630 -91 -26 -329
-26 -420 0 -291 80 -516 305 -596 596 -26 91 -26 329 0 420 120 433 542 692
982 601z"/>
<path d="M747 1348 c-10 -8 -57 -145 -124 -361 l-106 -348 20 -21 c15 -15 28
-19 46 -14 22 5 30 20 57 100 37 112 76 171 119 181 54 12 90 -19 142 -118 26
-52 33 -58 57 -55 22 2 33 15 59 63 38 71 83 115 120 115 46 0 97 -66 129
-167 15 -48 36 -96 45 -107 23 -25 66 -15 75 17 8 35 -192 687 -218 710 -54
46 -71 19 -143 -222 -35 -117 -65 -215 -67 -217 -2 -2 -33 93 -68 212 -47 159
-68 219 -84 230 -25 17 -37 18 -59 2z"/>
</g>
</svg>
