<?xml version="1.0" standalone="no"?>
<!DOCTYPE svg PUBLIC "-//W3C//DTD SVG 20010904//EN"
 "http://www.w3.org/TR/2001/REC-SVG-20010904/DTD/svg10.dtd">
<svg version="1.0" xmlns="http://www.w3.org/2000/svg"
 width="192.000000pt" height="192.000000pt" viewBox="0 0 192.000000 192.000000"
 preserveAspectRatio="xMidYMid meet">
<metadata>
Created by potrace 1.16, written by Peter Selinger 2001-2019
</metadata>
<g transform="translate(0.000000,192.000000) scale(0.100000,-0.100000)"
fill="#000000" stroke="none">
811 c445 -92 729 -532 635 -987 -62 -301 -295 -546 -601 -630 -91 -26 -329
-26 -420 0 -291 80 -516 305 -596 596 -26 91 -26 329 0 420 120 433 542 692
982 601z"/>
<path d="M900 1241 c-41 -13 -93 -42 -117 -64 -21 -19 -24 -19 -41 -4 -26 24
-82 33 -93 16 -5 -8 -9 -46 -9 -84 0 -67 -2 -74 -46 -138 -25 -38 -44 -76 -42
-85 3 -16 37 -17 383 -22 329 -4 380 -7 380 -20 0 -13 -28 -16 -172 -20 -153
-4 -175 -7 -200 -26 -34 -24 -66 -85 -57 -108 11 -28 34 -17 50 23 22 54 47
61 235 61 l158 0 20 26 c26 34 26 54 0 88 -14 17 -30 26 -50 26 -28 0 -29 1
-29 53 0 104 -76 214 -179 260 -49 21 -151 31 -191 18z m-160 -257 c0 -19 -28
-30 -42 -16 -8 8 -8 15 1 26 14 17 41 10 41 -10z"/>
</g>
</svg>
