<?xml version="1.0" standalone="no"?>
<!DOCTYPE svg PUBLIC "-//W3C//DTD SVG 20010904//EN"
 "http://www.w3.org/TR/2001/REC-SVG-20010904/DTD/svg10.dtd">
<svg version="1.0" xmlns="http://www.w3.org/2000/svg"
 width="192.000000pt" height="192.000000pt" viewBox="0 0 192.000000 192.000000"
 preserveAspectRatio="xMidYMid meet">
<metadata>
Created by potrace 1.16, written by Peter Selinger 2001-2019
</metadata>
<g transform="translate(0.000000,192.000000) scale(0.100000,-0.100000)"
fill="#000000" stroke="none">
811 c445 -92 729 -532 635 -987 -62 -301 -295 -546 -601 -630 -91 -26 -329
-26 -420 0 -291 80 -516 305 -596 596 -26 91 -26 329 0 420 120 433 542 692
982 601z"/>
<path d="M1160 1269 c-47 -19 -79 -62 -121 -161 -61 -145 -89 -151 -168 -35
-68 100 -100 128 -153 134 -63 6 -106 -21 -141 -88 -53 -105 -56 -232 -7 -373
25 -73 44 -96 81 -96 61 0 72 43 39 150 -21 70 -26 120 -10 120 5 0 32 -39 61
-87 79 -136 112 -163 194 -163 58 0 117 30 143 72 10 18 34 77 52 131 31 91
65 147 89 147 18 0 24 -48 17 -125 -8 -83 4 -122 40 -131 63 -16 96 48 97 186
0 144 -29 245 -86 298 -29 27 -90 37 -127 21z"/>
</g>
</svg>
