<?xml version="1.0" standalone="no"?>
<!DOCTYPE svg PUBLIC "-//W3C//DTD SVG 20010904//EN"
 "http://www.w3.org/TR/2001/REC-SVG-20010904/DTD/svg10.dtd">
<svg version="1.0" xmlns="http://www.w3.org/2000/svg"
 width="192.000000pt" height="192.000000pt" viewBox="0 0 192.000000 192.000000"
 preserveAspectRatio="xMidYMid meet">
<metadata>
Created by potrace 1.16, written by Peter Selinger 2001-2019
</metadata>
<g transform="translate(0.000000,192.000000) scale(0.100000,-0.100000)"
fill="#000000" stroke="none">
811 c445 -92 729 -532 635 -987 -62 -301 -295 -546 -601 -630 -91 -26 -329
-26 -420 0 -291 80 -516 305 -596 596 -26 91 -26 329 0 420 120 433 542 692
982 601z"/>
<path d="M914 1350 c-48 -28 -53 -29 -85 -16 -46 19 -72 5 -106 -60 -21 -41
-33 -54 -51 -54 -13 0 -34 -11 -47 -25 -20 -20 -25 -34 -25 -78 0 -30 -7 -71
-15 -90 -18 -44 -19 -92 -1 -132 11 -25 11 -35 -1 -58 -13 -25 -12 -31 2 -53
8 -13 38 -35 65 -49 45 -23 50 -28 50 -60 0 -49 33 -69 99 -60 39 5 52 3 62
-10 54 -65 67 -67 140 -18 34 22 43 24 65 14 57 -26 81 -13 124 67 18 31 30
42 47 42 13 0 35 11 48 25 20 19 25 34 25 76 0 29 8 76 17 105 14 46 15 60 3
107 -10 42 -10 59 -1 76 16 29 -5 63 -52 87 -50 25 -67 45 -67 75 0 41 -32 59
-107 59 -35 0 -63 4 -63 10 0 16 -39 50 -57 50 -10 0 -41 -14 -69 -30z m90
-136 c6 -8 22 -13 36 -12 21 2 26 -2 28 -24 3 -22 9 -27 35 -30 29 -3 32 -6
32 -35 0 -29 3 -33 27 -33 24 0 28 -4 28 -29 0 -16 6 -31 15 -35 11 -4 15 -20
15 -58 0 -74 -26 -114 -85 -130 -40 -11 -45 -15 -45 -41 0 -72 -142 -130 -187
-77 -10 11 -30 20 -46 20 -28 0 -29 2 -23 31 6 30 5 31 -20 25 -34 -9 -56 9
-48 40 6 21 3 24 -25 24 -28 0 -31 3 -31 30 0 18 -6 33 -15 36 -23 9 -20 101
5 141 15 25 32 36 65 45 33 9 45 17 45 31 0 43 33 80 90 101 25 9 93 -4 104
-20z"/>
<path d="M882 1120 c-12 -12 -22 -32 -22 -45 0 -17 -4 -23 -14 -19 -24 9 -54
-14 -66 -51 -17 -52 -6 -74 41 -81 44 -7 89 -51 89 -88 0 -12 5 -27 12 -34 32
-32 118 7 118 54 0 19 5 24 23 24 34 0 61 34 61 76 0 38 -15 54 -52 54 -29 0
-82 51 -82 78 0 40 -11 52 -49 52 -24 0 -45 -7 -59 -20z m98 -125 c7 -8 10
-25 6 -39 -11 -44 -76 -38 -76 7 0 43 44 63 70 32z"/>
</g>
</svg>
