<?xml version="1.0" standalone="no"?>
<!DOCTYPE svg PUBLIC "-//W3C//DTD SVG 20010904//EN"
 "http://www.w3.org/TR/2001/REC-SVG-20010904/DTD/svg10.dtd">
<svg version="1.0" xmlns="http://www.w3.org/2000/svg"
 width="192.000000pt" height="192.000000pt" viewBox="0 0 192.000000 192.000000"
 preserveAspectRatio="xMidYMid meet">
<metadata>
Created by potrace 1.16, written by Peter Selinger 2001-2019
</metadata>
<g transform="translate(0.000000,192.000000) scale(0.100000,-0.100000)"
fill="#000000" stroke="none">
811 c445 -92 729 -532 635 -987 -62 -301 -295 -546 -601 -630 -91 -26 -329
-26 -420 0 -291 80 -516 305 -596 596 -26 91 -26 329 0 420 120 433 542 692
982 601z"/>
<path d="M707 1330 c-48 -14 -94 -57 -112 -103 -14 -36 -16 -79 -13 -283 l3
-241 28 -36 c55 -72 76 -77 341 -77 249 0 272 4 319 48 56 52 57 61 57 327 0
269 -2 280 -60 328 -17 15 -47 31 -68 37 -44 12 -454 12 -495 0z m-2 -205 c0
-25 -4 -31 -27 -33 -19 -2 -28 2 -33 18 -8 27 12 52 39 48 16 -2 21 -10 21
-33z m565 20 c20 -25 8 -50 -25 -50 -24 0 -31 5 -33 24 -6 37 34 55 58 26z
m-229 -47 c36 -20 40 -20 57 -5 35 32 42 21 42 -58 l0 -75 -73 0 c-41 0 -77 3
-80 7 -4 3 3 17 15 30 24 26 18 36 -30 49 -57 15 -123 -52 -108 -110 16 -66
78 -90 142 -56 50 26 74 21 74 -14 0 -41 -53 -71 -126 -71 -51 0 -66 4 -98 29
-102 77 -82 238 34 285 44 17 110 13 151 -11z m-331 -128 c0 -27 -3 -30 -30
-30 -18 0 -33 6 -36 15 -11 27 4 45 36 45 27 0 30 -3 30 -30z m565 0 c0 -21
-5 -26 -32 -28 -31 -3 -33 -1 -33 28 0 29 2 31 33 28 27 -2 32 -7 32 -28z
m-565 -159 c0 -33 -22 -46 -51 -31 -34 19 -19 60 22 60 25 0 29 -4 29 -29z
m568 2 c4 -25 -27 -46 -52 -37 -16 6 -22 45 -9 58 16 15 58 1 61 -21z"/>
</g>
</svg>
