<?xml version="1.0" standalone="no"?>
<!DOCTYPE svg PUBLIC "-//W3C//DTD SVG 20010904//EN"
 "http://www.w3.org/TR/2001/REC-SVG-20010904/DTD/svg10.dtd">
<svg version="1.0" xmlns="http://www.w3.org/2000/svg"
 width="192.000000pt" height="192.000000pt" viewBox="0 0 192.000000 192.000000"
 preserveAspectRatio="xMidYMid meet">
<metadata>
Created by potrace 1.16, written by Peter Selinger 2001-2019
</metadata>
<g transform="translate(0.000000,192.000000) scale(0.100000,-0.100000)"
fill="#000000" stroke="none">
811 c445 -92 729 -532 635 -987 -62 -301 -295 -546 -601 -630 -91 -26 -329
-26 -420 0 -291 80 -516 305 -596 596 -26 91 -26 329 0 420 120 433 542 692
982 601z"/>
<path d="M1070 1369 c-39 -16 -58 -37 -134 -149 -39 -57 -73 -108 -76 -112 -3
-4 -28 4 -55 17 -59 31 -105 32 -163 4 -63 -31 -97 -86 -97 -159 0 -66 25
-111 83 -151 28 -19 48 -24 97 -24 l62 0 -5 -47 c-10 -100 70 -188 171 -188
82 0 135 33 168 105 25 54 24 92 -6 150 -13 27 -23 50 -22 51 1 1 57 39 125
83 97 64 126 89 138 116 18 43 18 86 1 110 -13 17 -23 13 -177 -68 -90 -48
-165 -85 -166 -84 -2 2 35 72 81 157 83 153 92 174 77 184 -18 11 -79 14 -102
5z m-298 -333 c23 -17 39 -61 31 -83 -22 -64 -94 -83 -138 -38 -51 50 -15 135
57 135 18 0 41 -6 50 -14z m221 -228 c50 -26 63 -87 27 -126 -43 -46 -111 -36
-135 20 -16 41 -1 87 36 105 30 16 45 16 72 1z"/>
</g>
</svg>
