<?xml version="1.0" standalone="no"?>
<!DOCTYPE svg PUBLIC "-//W3C//DTD SVG 20010904//EN"
 "http://www.w3.org/TR/2001/REC-SVG-20010904/DTD/svg10.dtd">
<svg version="1.0" xmlns="http://www.w3.org/2000/svg"
 width="192.000000pt" height="192.000000pt" viewBox="0 0 192.000000 192.000000"
 preserveAspectRatio="xMidYMid meet">
<metadata>
Created by potrace 1.16, written by Peter Selinger 2001-2019
</metadata>
<g transform="translate(0.000000,192.000000) scale(0.100000,-0.100000)"
fill="#000000" stroke="none">
811 c445 -92 729 -532 635 -987 -62 -301 -295 -546 -601 -630 -91 -26 -329
-26 -420 0 -291 80 -516 305 -596 596 -26 91 -26 329 0 420 120 433 542 692
982 601z"/>
<path d="M655 1325 c-14 -13 -25 -33 -25 -44 0 -11 50 -77 111 -148 61 -70
113 -133 116 -140 2 -6 -5 -25 -18 -42 -20 -27 -27 -30 -78 -29 -34 0 -69 -6
-88 -15 -157 -82 -99 -317 78 -317 54 0 101 28 137 80 20 30 23 44 20 97 -3
53 -1 67 18 90 l22 28 25 -23 c23 -21 25 -31 24 -90 -2 -81 24 -132 84 -162
153 -78 311 96 216 239 -36 54 -78 75 -149 74 l-57 -1 -177 204 c-97 113 -185
209 -195 214 -27 15 -38 12 -64 -15z m125 -535 c23 -23 25 -40 8 -62 -33 -40
-88 -19 -88 32 0 47 46 64 80 30z m412 3 c26 -23 23 -59 -7 -79 -23 -15 -27
-15 -50 0 -29 19 -32 51 -8 78 20 22 41 23 65 1z"/>
<path d="M1185 1338 c-34 -17 -175 -189 -175 -213 0 -26 28 -63 50 -66 32 -3
42 4 125 97 70 79 85 102 85 129 0 47 -44 74 -85 53z"/>
</g>
</svg>
