<?xml version="1.0" standalone="no"?>
<!DOCTYPE svg PUBLIC "-//W3C//DTD SVG 20010904//EN"
 "http://www.w3.org/TR/2001/REC-SVG-20010904/DTD/svg10.dtd">
<svg version="1.0" xmlns="http://www.w3.org/2000/svg"
 width="192.000000pt" height="192.000000pt" viewBox="0 0 192.000000 192.000000"
 preserveAspectRatio="xMidYMid meet">
<metadata>
Created by potrace 1.16, written by Peter Selinger 2001-2019
</metadata>
<g transform="translate(0.000000,192.000000) scale(0.100000,-0.100000)"
fill="#000000" stroke="none">
811 c445 -92 729 -532 635 -987 -62 -301 -295 -546 -601 -630 -91 -26 -329
-26 -420 0 -291 80 -516 305 -596 596 -26 91 -26 329 0 420 120 433 542 692
982 601z"/>
<path d="M701 1293 c-18 -20 -36 -59 -56 -128 -18 -62 -36 -105 -48 -114 -35
-25 -47 -74 -47 -191 0 -105 1 -112 25 -134 14 -14 25 -34 25 -50 0 -37 33
-66 76 -66 56 0 74 15 74 60 l0 40 200 0 200 0 0 -28 c0 -48 25 -72 75 -72 52
0 75 19 75 62 0 20 8 37 25 50 24 19 25 22 25 153 l0 133 -29 29 c-21 21 -38
59 -61 133 -49 158 -33 150 -305 150 l-227 0 -27 -27z m459 -142 c11 -37 20
-71 20 -75 0 -3 -103 -6 -229 -6 l-229 0 19 62 c10 34 21 68 23 75 4 10 47 13
190 13 l185 0 21 -69z m-372 -223 c7 -7 12 -25 12 -40 0 -36 -36 -56 -69 -39
-23 13 -29 59 -9 79 15 15 51 15 66 0z m393 2 c38 -21 14 -90 -31 -90 -11 0
-27 11 -36 25 -15 23 -15 27 0 50 18 27 36 31 67 15z"/>
</g>
</svg>
