<?xml version="1.0" standalone="no"?>
<!DOCTYPE svg PUBLIC "-//W3C//DTD SVG 20010904//EN"
 "http://www.w3.org/TR/2001/REC-SVG-20010904/DTD/svg10.dtd">
<svg version="1.0" xmlns="http://www.w3.org/2000/svg"
 width="192.000000pt" height="192.000000pt" viewBox="0 0 192.000000 192.000000"
 preserveAspectRatio="xMidYMid meet">
<metadata>
Created by potrace 1.16, written by Peter Selinger 2001-2019
</metadata>
<g transform="translate(0.000000,192.000000) scale(0.100000,-0.100000)"
fill="#000000" stroke="none">
811 c445 -92 729 -532 635 -987 -62 -301 -295 -546 -601 -630 -91 -26 -329
-26 -420 0 -291 80 -516 305 -596 596 -26 91 -26 329 0 420 120 433 542 692
982 601z"/>
<path d="M410 986 c0 -118 1 -126 20 -126 17 0 19 8 22 68 l3 67 24 -68 c19
-57 26 -68 44 -65 15 2 26 19 43 68 l22 65 1 -68 c1 -65 2 -68 24 -65 21 3 22
7 25 126 l3 122 -30 0 c-28 0 -31 -4 -57 -85 -16 -46 -30 -82 -33 -79 -4 3
-18 40 -32 82 -23 68 -29 77 -52 80 l-27 3 0 -125z"/>
<path d="M696 1094 c-19 -19 -21 -97 -3 -112 7 -6 33 -12 57 -14 41 -3 45 -6
48 -30 3 -26 1 -28 -33 -28 -22 0 -38 6 -41 15 -10 26 -44 18 -44 -9 0 -33 35
-56 85 -56 60 0 85 22 85 75 0 52 -24 75 -81 75 -38 0 -54 16 -43 45 9 23 61
19 74 -5 6 -11 20 -20 30 -20 26 0 27 41 2 63 -25 22 -115 23 -136 1z"/>
<path d="M910 1090 c-17 -17 -20 -33 -20 -104 0 -88 8 -108 49 -121 11 -3 21
-16 23 -28 4 -29 42 -30 46 -2 1 11 15 27 31 36 30 18 41 50 41 125 0 47 -15
94 -33 106 -7 4 -36 8 -64 8 -40 0 -58 -5 -73 -20z m115 -43 c4 -13 5 -48 3
-78 l-3 -54 -42 -3 -43 -3 0 74 c0 40 3 77 7 80 3 4 21 7 39 7 27 0 35 -5 39
-23z"/>
<path d="M1120 985 c0 -118 1 -125 20 -125 17 0 20 7 20 44 0 25 4 48 10 51 5
3 24 -17 41 -45 23 -38 37 -50 55 -50 30 0 30 6 -1 52 l-25 37 25 25 c29 29
33 80 9 114 -13 19 -24 22 -85 22 l-69 0 0 -125z m115 50 c0 -27 -3 -30 -37
-33 -38 -3 -38 -3 -38 33 0 36 0 36 38 33 34 -3 37 -6 37 -33z"/>
<path d="M1324 1097 c-2 -7 -3 -62 -2 -123 l3 -109 63 -3 c46 -2 71 2 88 13
22 14 24 21 24 109 0 117 -7 126 -104 126 -46 0 -68 -4 -72 -13z m125 -41 c7
-9 11 -40 9 -78 l-3 -63 -42 -3 -43 -3 0 80 0 81 34 0 c18 0 39 -6 45 -14z"/>
</g>
</svg>
