<?xml version="1.0" standalone="no"?>
<!DOCTYPE svg PUBLIC "-//W3C//DTD SVG 20010904//EN"
 "http://www.w3.org/TR/2001/REC-SVG-20010904/DTD/svg10.dtd">
<svg version="1.0" xmlns="http://www.w3.org/2000/svg"
 width="192.000000pt" height="192.000000pt" viewBox="0 0 192.000000 192.000000"
 preserveAspectRatio="xMidYMid meet">
<metadata>
Created by potrace 1.16, written by Peter Selinger 2001-2019
</metadata>
<g transform="translate(0.000000,192.000000) scale(0.100000,-0.100000)"
fill="#000000" stroke="none">
811 c445 -92 729 -532 635 -987 -62 -301 -295 -546 -601 -630 -91 -26 -329
-26 -420 0 -291 80 -516 305 -596 596 -26 91 -26 329 0 420 120 433 542 692
982 601z"/>
<path d="M723 1219 c-59 -55 -112 -107 -116 -115 -11 -19 9 -44 34 -44 17 0
19 -9 19 -95 0 -52 3 -95 6 -95 3 0 25 17 50 37 40 34 44 41 44 81 0 69 12 82
75 82 62 0 75 -13 75 -75 0 -36 0 -36 38 -33 l37 3 5 114 5 113 -68 64 c-37
35 -74 64 -82 64 -7 0 -62 -45 -122 -101z"/>
<path d="M1035 1165 c-23 -22 -25 -32 -25 -114 l0 -90 33 -17 c17 -9 50 -31
73 -50 31 -25 52 -33 90 -36 l49 -3 3 143 c3 140 2 143 -22 167 -22 22 -34 25
-101 25 -67 0 -79 -3 -100 -25z"/>
<path d="M754 908 c-16 -12 -46 -37 -67 -55 -27 -24 -47 -33 -72 -33 -41 0
-55 -20 -55 -82 0 -53 13 -68 58 -68 25 0 41 -8 62 -30 40 -43 100 -43 140 0
28 30 29 30 135 30 105 0 108 -1 142 -30 46 -40 90 -40 136 0 27 23 44 30 76
30 38 0 41 2 41 28 0 43 -37 111 -63 116 -12 3 -48 10 -81 17 -41 7 -78 24
-123 55 l-64 44 -118 0 c-106 0 -121 -2 -147 -22z"/>
</g>
</svg>
