<?xml version="1.0" standalone="no"?>
<!DOCTYPE svg PUBLIC "-//W3C//DTD SVG 20010904//EN"
 "http://www.w3.org/TR/2001/REC-SVG-20010904/DTD/svg10.dtd">
<svg version="1.0" xmlns="http://www.w3.org/2000/svg"
 width="192.000000pt" height="192.000000pt" viewBox="0 0 192.000000 192.000000"
 preserveAspectRatio="xMidYMid meet">
<metadata>
Created by potrace 1.16, written by Peter Selinger 2001-2019
</metadata>
<g transform="translate(0.000000,192.000000) scale(0.100000,-0.100000)"
fill="#000000" stroke="none">
811 c445 -92 729 -532 635 -987 -62 -301 -295 -546 -601 -630 -91 -26 -329
-26 -420 0 -291 80 -516 305 -596 596 -26 91 -26 329 0 420 120 433 542 692
982 601z"/>
<path d="M736 1198 c-64 -9 -122 -50 -161 -113 -26 -41 -30 -58 -30 -114 1
-79 25 -133 85 -183 141 -122 359 -35 386 154 9 66 24 98 55 113 67 35 139 6
160 -64 21 -71 -31 -132 -116 -135 -36 -1 -52 -7 -66 -25 -44 -54 -8 -101 76
-101 133 0 237 101 237 229 0 75 -25 133 -78 180 -148 130 -366 42 -394 -160
-7 -53 -14 -69 -40 -91 -45 -41 -101 -39 -146 6 -40 40 -45 83 -15 132 20 33
79 61 106 50 25 -9 65 12 76 41 8 22 6 32 -9 52 -23 31 -60 39 -126 29z"/>
</g>
</svg>
