<?xml version="1.0" standalone="no"?>
<!DOCTYPE svg PUBLIC "-//W3C//DTD SVG 20010904//EN"
 "http://www.w3.org/TR/2001/REC-SVG-20010904/DTD/svg10.dtd">
<svg version="1.0" xmlns="http://www.w3.org/2000/svg"
 width="192.000000pt" height="192.000000pt" viewBox="0 0 192.000000 192.000000"
 preserveAspectRatio="xMidYMid meet">
<metadata>
Created by potrace 1.16, written by Peter Selinger 2001-2019
</metadata>
<g transform="translate(0.000000,192.000000) scale(0.100000,-0.100000)"
fill="#000000" stroke="none">
811 c445 -92 729 -532 635 -987 -62 -301 -295 -546 -601 -630 -91 -26 -329
-26 -420 0 -291 80 -516 305 -596 596 -26 91 -26 329 0 420 120 433 542 692
982 601z"/>
<path d="M1065 1359 c-82 -10 -156 -18 -162 -18 -28 -2 -9 -20 65 -62 l77 -44
-45 -5 -45 -5 -5 -165 c-6 -186 -13 -210 -77 -236 -65 -28 -132 2 -158 71 -16
41 -16 45 3 87 22 52 76 84 123 74 l28 -5 3 140 3 141 -30 16 c-73 38 -177 8
-230 -67 l-30 -43 -3 -253 c-2 -170 1 -267 8 -296 25 -92 128 -154 217 -130
58 15 457 254 481 288 44 62 48 152 9 214 -21 34 -27 20 -27 -65 0 -76 -3 -88
-25 -115 -51 -60 -132 -62 -186 -5 -34 37 -34 121 0 158 28 30 82 50 111 41
17 -6 20 -2 20 29 0 42 2 43 46 15 l34 -21 0 131 c0 119 -2 131 -19 141 -11 5
-23 9 -28 9 -4 -1 -75 -10 -158 -20z m125 -159 c0 -27 -2 -50 -5 -50 -6 0 -13
4 -95 56 l-45 29 45 6 c103 14 100 15 100 -41z"/>
</g>
</svg>
