<?xml version="1.0" standalone="no"?>
<!DOCTYPE svg PUBLIC "-//W3C//DTD SVG 20010904//EN"
 "http://www.w3.org/TR/2001/REC-SVG-20010904/DTD/svg10.dtd">
<svg version="1.0" xmlns="http://www.w3.org/2000/svg"
 width="192.000000pt" height="192.000000pt" viewBox="0 0 192.000000 192.000000"
 preserveAspectRatio="xMidYMid meet">
<metadata>
Created by potrace 1.16, written by Peter Selinger 2001-2019
</metadata>
<g transform="translate(0.000000,192.000000) scale(0.100000,-0.100000)"
fill="#000000" stroke="none">
810 c245 -63 441 -223 549 -451 55 -116 75 -212 75 -354 0 -141 -20 -238 -75
-352 -86 -182 -215 -312 -396 -398 -116 -55 -212 -75 -354 -75 -142 0 -238 20
-354 75 -228 108 -388 304 -451 549 -28 110 -28 292 0 402 76 298 303 526 600
603 106 28 298 28 406 1z"/>
<path d="M958 1345 c-49 -27 -58 -60 -58 -212 l0 -138 -49 -1 c-72 -1 -138
-38 -176 -99 -25 -41 -30 -59 -30 -115 0 -56 4 -73 28 -108 88 -134 279 -133
362 2 l30 49 3 223 3 222 70 4 c59 3 73 8 96 31 37 36 37 88 0 125 -26 26 -32
27 -140 30 -86 1 -118 -2 -139 -13z"/>
</g>
</svg>
