<?xml version="1.0" standalone="no"?>
<!DOCTYPE svg PUBLIC "-//W3C//DTD SVG 20010904//EN"
 "http://www.w3.org/TR/2001/REC-SVG-20010904/DTD/svg10.dtd">
<svg version="1.0" xmlns="http://www.w3.org/2000/svg"
 width="192.000000pt" height="192.000000pt" viewBox="0 0 192.000000 192.000000"
 preserveAspectRatio="xMidYMid meet">
<metadata>
Created by potrace 1.16, written by Peter Selinger 2001-2019
</metadata>
<g transform="translate(0.000000,192.000000) scale(0.100000,-0.100000)"
fill="#000000" stroke="none">
810 c245 -63 441 -223 549 -451 55 -116 75 -212 75 -354 0 -141 -20 -238 -75
-352 -86 -182 -215 -312 -396 -398 -116 -55 -212 -75 -354 -75 -142 0 -238 20
-354 75 -228 108 -388 304 -451 549 -28 110 -28 292 0 402 76 298 303 526 600
603 106 28 298 28 406 1z"/>
<path d="M1087 1312 c-15 -17 -17 -56 -17 -349 0 -312 1 -331 19 -347 28 -26
82 -18 98 14 9 18 13 106 13 336 0 300 -1 312 -21 338 -24 31 -68 35 -92 8z"/>
<path d="M740 1260 c-19 -19 -20 -33 -20 -288 0 -300 2 -312 64 -312 65 0 66
6 66 306 0 228 -2 273 -16 292 -19 28 -67 29 -94 2z"/>
<path d="M910 1130 c-18 -18 -20 -33 -20 -180 0 -147 2 -162 20 -180 28 -28
64 -25 89 6 19 24 21 40 21 176 0 145 -1 150 -25 173 -29 30 -58 32 -85 5z"/>
<path d="M1266 1074 c-22 -21 -29 -57 -23 -111 6 -52 25 -73 68 -73 40 0 59
33 59 102 0 45 -5 63 -20 78 -24 24 -63 26 -84 4z"/>
<path d="M560 1050 c-16 -16 -20 -33 -20 -95 0 -62 4 -79 20 -95 29 -29 74
-26 100 8 19 23 21 37 18 100 -3 59 -7 77 -23 88 -27 20 -72 17 -95 -6z"/>
</g>
</svg>
