<?xml version="1.0" standalone="no"?>
<!DOCTYPE svg PUBLIC "-//W3C//DTD SVG 20010904//EN"
 "http://www.w3.org/TR/2001/REC-SVG-20010904/DTD/svg10.dtd">
<svg version="1.0" xmlns="http://www.w3.org/2000/svg"
 width="192.000000pt" height="192.000000pt" viewBox="0 0 192.000000 192.000000"
 preserveAspectRatio="xMidYMid meet">
<metadata>
Created by potrace 1.16, written by Peter Selinger 2001-2019
</metadata>
<g transform="translate(0.000000,192.000000) scale(0.100000,-0.100000)"
fill="#000000" stroke="none">
811 c445 -92 729 -532 635 -987 -62 -301 -295 -546 -601 -630 -91 -26 -329
-26 -420 0 -291 80 -516 305 -596 596 -26 91 -26 329 0 420 120 433 542 692
982 601z"/>
<path d="M576 1329 l-26 -20 0 -344 c0 -341 0 -344 22 -365 43 -40 77 -29 215
76 190 143 181 119 69 205 -52 41 -95 77 -96 81 0 4 43 40 95 80 52 40 93 77
92 81 -1 4 -68 57 -147 117 -155 118 -177 126 -224 89z m141 -391 c-18 -15
-51 -41 -74 -58 l-43 -31 0 116 0 115 74 -57 75 -58 -32 -27z"/>
<path d="M1163 1283 c-152 -115 -203 -156 -203 -162 0 -4 43 -40 95 -80 52
-40 95 -75 95 -77 0 -2 -43 -37 -96 -79 -74 -59 -93 -79 -84 -89 6 -8 70 -59
143 -115 110 -84 139 -101 168 -101 24 0 43 7 57 23 22 23 22 28 22 363 l0
341 -23 21 c-41 39 -77 29 -174 -45z m145 -374 l-3 -61 -73 57 c-41 32 -70 61
-65 65 4 5 37 31 73 59 l65 50 3 -54 c2 -30 2 -82 0 -116z"/>
</g>
</svg>
