<?xml version="1.0" standalone="no"?>
<!DOCTYPE svg PUBLIC "-//W3C//DTD SVG 20010904//EN"
 "http://www.w3.org/TR/2001/REC-SVG-20010904/DTD/svg10.dtd">
<svg version="1.0" xmlns="http://www.w3.org/2000/svg"
 width="192.000000pt" height="192.000000pt" viewBox="0 0 192.000000 192.000000"
 preserveAspectRatio="xMidYMid meet">
<metadata>
Created by potrace 1.16, written by Peter Selinger 2001-2019
</metadata>
<g transform="translate(0.000000,192.000000) scale(0.100000,-0.100000)"
fill="#000000" stroke="none">
811 c445 -92 729 -532 635 -987 -62 -301 -295 -546 -601 -630 -91 -26 -329
-26 -420 0 -291 80 -516 305 -596 596 -26 91 -26 329 0 420 120 433 542 692
982 601z"/>
<path d="M1055 1373 c-36 -9 -45 -25 -45 -74 0 -27 -2 -49 -5 -49 -3 0 -47 24
-97 53 -84 47 -99 52 -154 52 -71 0 -120 -27 -153 -86 -20 -35 -21 -53 -21
-313 0 -305 1 -313 62 -360 65 -49 138 -52 218 -11 l35 18 -27 8 c-47 12 -94
47 -124 91 -26 39 -29 51 -29 124 0 73 3 85 29 123 16 23 50 54 75 69 39 23
57 27 119 27 l72 -1 0 98 c0 54 2 98 4 98 3 0 32 -16 65 -35 71 -42 81 -43 81
-10 0 23 4 25 44 25 81 0 122 69 73 125 -23 27 -29 29 -113 31 -49 2 -98 0
-109 -3z"/>
<path d="M1160 988 c0 -95 -4 -188 -9 -206 -5 -17 -7 -32 -5 -32 12 0 101 56
127 79 41 37 57 73 57 126 0 82 -29 122 -132 184 l-38 23 0 -174z"/>
<path d="M869 881 c-20 -20 -29 -39 -29 -61 0 -43 47 -90 90 -90 45 0 90 47
90 93 0 27 -7 41 -31 61 -41 35 -83 34 -120 -3z"/>
<path d="M1010 672 c-110 -64 -113 -67 -81 -70 42 -4 111 21 152 55 30 25 66
83 52 82 -5 0 -60 -30 -123 -67z"/>
</g>
</svg>
