<?xml version="1.0" standalone="no"?>
<!DOCTYPE svg PUBLIC "-//W3C//DTD SVG 20010904//EN"
 "http://www.w3.org/TR/2001/REC-SVG-20010904/DTD/svg10.dtd">
<svg version="1.0" xmlns="http://www.w3.org/2000/svg"
 width="192.000000pt" height="192.000000pt" viewBox="0 0 192.000000 192.000000"
 preserveAspectRatio="xMidYMid meet">
<metadata>
Created by potrace 1.16, written by Peter Selinger 2001-2019
</metadata>
<g transform="translate(0.000000,192.000000) scale(0.100000,-0.100000)"
fill="#000000" stroke="none">
811 c445 -92 729 -532 635 -987 -62 -301 -295 -546 -601 -630 -91 -26 -329
-26 -420 0 -291 80 -516 305 -596 596 -26 91 -26 329 0 420 120 433 542 692
982 601z"/>
<path d="M940 1372 c-50 -16 -68 -83 -31 -116 39 -35 32 -61 -27 -112 -92 -80
-112 -136 -72 -202 25 -41 25 -69 0 -77 -15 -5 -20 -15 -20 -41 0 -32 -2 -34
-36 -34 l-36 0 6 63 c3 34 8 85 12 113 5 49 4 54 -30 92 -29 32 -36 47 -36 81
0 34 -3 41 -20 41 -22 0 -37 -38 -26 -67 5 -11 -5 -29 -30 -54 -30 -30 -37
-45 -36 -71 2 -18 5 -114 7 -213 3 -99 8 -190 10 -202 5 -22 10 -23 100 -23
l95 0 0 70 c0 63 2 70 20 70 18 0 20 -7 20 -70 0 -68 1 -70 25 -70 23 0 25 4
25 44 0 29 7 52 21 70 18 22 28 26 75 26 72 0 94 -21 94 -90 0 -46 2 -50 25
-50 23 0 24 3 27 68 3 59 5 67 23 67 18 0 20 -8 23 -68 l3 -68 92 3 92 3 7
200 c4 110 8 215 10 233 1 25 -6 41 -32 67 -30 31 -34 41 -31 81 2 43 1 45
-21 42 -20 -3 -23 -9 -23 -42 0 -32 -7 -46 -38 -77 -38 -37 -39 -40 -33 -91 4
-29 9 -81 12 -115 l6 -63 -36 0 c-33 0 -35 2 -38 38 -2 30 -7 38 -25 40 -30 4
-29 22 2 68 46 68 28 126 -64 205 -56 48 -67 84 -31 107 21 13 27 47 9 57 -5
4 -19 -1 -30 -11 -18 -16 -21 -16 -35 -2 -15 15 -14 18 10 33 39 26 29 61 -14
47z"/>
</g>
</svg>
