<?xml version="1.0" standalone="no"?>
<!DOCTYPE svg PUBLIC "-//W3C//DTD SVG 20010904//EN"
 "http://www.w3.org/TR/2001/REC-SVG-20010904/DTD/svg10.dtd">
<svg version="1.0" xmlns="http://www.w3.org/2000/svg"
 width="192.000000pt" height="192.000000pt" viewBox="0 0 192.000000 192.000000"
 preserveAspectRatio="xMidYMid meet">
<metadata>
Created by potrace 1.16, written by Peter Selinger 2001-2019
</metadata>
<g transform="translate(0.000000,192.000000) scale(0.100000,-0.100000)"
fill="#000000" stroke="none">
811 c445 -92 729 -532 635 -987 -62 -301 -295 -546 -601 -630 -91 -26 -329
-26 -420 0 -291 80 -516 305 -596 596 -26 91 -26 329 0 420 120 433 542 692
982 601z"/>
<path d="M702 1330 c-38 -16 -75 -49 -99 -88 -20 -32 -23 -51 -23 -134 l0 -98
44 0 c41 0 61 8 191 78 69 38 108 26 210 -63 75 -65 94 -75 144 -75 34 0 49 7
91 45 28 25 55 43 61 40 5 -4 9 29 9 81 0 102 -20 147 -83 191 l-40 28 -241 2
c-138 1 -251 -2 -264 -7z"/>
<path d="M766 954 c-61 -37 -91 -49 -132 -52 l-54 -4 0 -80 c0 -43 6 -93 14
-111 17 -43 76 -93 123 -106 21 -6 132 -11 248 -11 183 0 215 3 250 19 47 22
89 64 104 104 15 38 14 204 0 213 -6 3 -27 -9 -47 -29 -73 -69 -127 -76 -191
-24 -23 17 -66 52 -96 76 -82 65 -118 66 -219 5z m54 -214 c0 -39 -1 -40 -22
-29 -48 25 -51 31 -21 50 39 26 43 24 43 -21z m158 11 c5 -32 -23 -54 -49 -40
-19 10 -26 49 -12 63 4 4 19 6 33 4 18 -2 26 -10 28 -27z m162 -6 c0 -33 -2
-35 -35 -35 -32 0 -35 3 -35 28 0 16 3 32 7 35 3 4 19 7 35 7 25 0 28 -3 28
-35z"/>
</g>
</svg>
