<?xml version="1.0" standalone="no"?>
<!DOCTYPE svg PUBLIC "-//W3C//DTD SVG 20010904//EN"
 "http://www.w3.org/TR/2001/REC-SVG-20010904/DTD/svg10.dtd">
<svg version="1.0" xmlns="http://www.w3.org/2000/svg"
 width="192.000000pt" height="192.000000pt" viewBox="0 0 192.000000 192.000000"
 preserveAspectRatio="xMidYMid meet">
<metadata>
Created by potrace 1.16, written by Peter Selinger 2001-2019
</metadata>
<g transform="translate(0.000000,192.000000) scale(0.100000,-0.100000)"
fill="#000000" stroke="none">
811 c445 -92 729 -532 635 -987 -62 -301 -295 -546 -601 -630 -91 -26 -329
-26 -420 0 -291 80 -516 305 -596 596 -26 91 -26 329 0 420 120 433 542 692
982 601z"/>
<path d="M782 1367 c-12 -14 -223 -716 -230 -764 -5 -41 19 -54 59 -31 24 14
30 14 40 2 19 -23 37 -17 145 47 119 70 132 82 113 105 -8 10 -9 18 -2 22 5 4
78 51 161 106 97 62 152 104 152 115 0 9 -25 41 -55 71 -44 43 -52 56 -40 63
8 4 15 16 15 25 0 22 -220 242 -242 242 -9 0 -21 -7 -26 -17 -9 -15 -12 -14
-37 5 -32 25 -39 27 -53 9z m-18 -355 c-42 -139 -73 -259 -70 -267 8 -21 43
-19 54 3 8 13 91 283 139 446 4 15 14 10 62 -38 31 -31 62 -56 68 -56 7 0 17
9 23 21 9 17 14 18 26 8 14 -11 13 -14 0 -21 -29 -16 -18 -53 24 -87 22 -17
40 -36 40 -40 0 -17 -476 -318 -486 -308 -4 4 162 582 173 600 3 5 9 5 14 0 6
-6 -21 -111 -67 -261z"/>
<path d="M1210 1058 c0 -14 14 -34 35 -51 19 -15 35 -31 35 -35 0 -5 -54 -45
-120 -90 -86 -59 -120 -88 -120 -103 0 -11 6 -22 14 -25 19 -7 306 186 306
206 0 9 -24 39 -53 68 -58 57 -97 69 -97 30z"/>
</g>
</svg>
