<?xml version="1.0" standalone="no"?>
<!DOCTYPE svg PUBLIC "-//W3C//DTD SVG 20010904//EN"
 "http://www.w3.org/TR/2001/REC-SVG-20010904/DTD/svg10.dtd">
<svg version="1.0" xmlns="http://www.w3.org/2000/svg"
 width="192.000000pt" height="192.000000pt" viewBox="0 0 192.000000 192.000000"
 preserveAspectRatio="xMidYMid meet">
<metadata>
Created by potrace 1.16, written by Peter Selinger 2001-2019
</metadata>
<g transform="translate(0.000000,192.000000) scale(0.100000,-0.100000)"
fill="#000000" stroke="none">
811 c445 -92 729 -532 635 -987 -62 -301 -295 -546 -601 -630 -91 -26 -329
-26 -420 0 -291 80 -516 305 -596 596 -26 91 -26 329 0 420 120 433 542 692
982 601z"/>
<path d="M700 1324 c-45 -20 -77 -50 -101 -96 -17 -33 -19 -61 -19 -260 0
-212 1 -226 23 -268 13 -26 40 -57 65 -75 l44 -30 243 0 243 0 44 30 c25 18
52 49 66 75 21 42 22 56 22 262 0 233 -5 265 -53 317 -50 54 -83 61 -322 60
-174 0 -227 -3 -255 -15z m325 -66 c-9 -30 -43 -66 -77 -84 -60 -31 -139 -6
-178 58 -11 18 -20 36 -20 41 0 4 63 7 141 7 l140 0 -6 -22z m53 -156 c9 -7
12 -41 10 -138 -3 -121 -4 -129 -23 -129 -19 0 -20 8 -23 108 l-3 107 -29 0
-29 0 -3 -107 c-3 -100 -4 -108 -23 -108 -19 0 -20 8 -23 108 l-3 107 -29 0
-29 0 -3 -107 c-3 -100 -4 -108 -23 -108 -19 0 -20 8 -23 129 -2 97 1 131 10
138 7 4 63 8 123 8 61 0 116 -4 123 -8z m120 -356 c31 -29 35 -38 26 -53 -17
-28 -71 -42 -166 -42 l-88 -1 0 26 c0 17 14 40 39 65 36 36 43 39 95 39 50 0
60 -4 94 -34z"/>
</g>
</svg>
