<?xml version="1.0" standalone="no"?>
<!DOCTYPE svg PUBLIC "-//W3C//DTD SVG 20010904//EN"
 "http://www.w3.org/TR/2001/REC-SVG-20010904/DTD/svg10.dtd">
<svg version="1.0" xmlns="http://www.w3.org/2000/svg"
 width="192.000000pt" height="192.000000pt" viewBox="0 0 192.000000 192.000000"
 preserveAspectRatio="xMidYMid meet">
<metadata>
Created by potrace 1.16, written by Peter Selinger 2001-2019
</metadata>
<g transform="translate(0.000000,192.000000) scale(0.100000,-0.100000)"
fill="#000000" stroke="none">
811 c445 -92 729 -532 635 -987 -62 -301 -295 -546 -601 -630 -91 -26 -329
-26 -420 0 -291 80 -516 305 -596 596 -26 91 -26 329 0 420 120 433 542 692
982 601z"/>
<path d="M1065 1359 c-82 -10 -156 -18 -162 -18 -22 -1 -14 -16 20 -36 17 -10
50 -30 72 -44 l40 -26 -40 -5 -40 -5 -5 -165 c-4 -138 -8 -171 -23 -194 -39
-60 -131 -69 -182 -18 -51 51 -49 122 4 176 24 24 38 29 75 29 l45 0 3 140 c2
84 -1 142 -7 147 -5 4 -29 13 -52 19 -89 24 -198 -36 -222 -124 -15 -53 -15
-497 0 -550 23 -82 123 -145 208 -130 20 3 134 65 254 136 248 149 271 171
271 263 0 50 -27 126 -45 126 -5 0 -9 -38 -9 -84 0 -76 -3 -87 -26 -115 -36
-43 -89 -58 -137 -38 -42 18 -77 68 -77 112 0 67 78 135 136 121 22 -6 24 -3
24 29 0 41 2 42 46 14 l34 -21 0 131 c0 119 -2 131 -19 141 -11 5 -23 9 -28 9
-4 -1 -75 -10 -158 -20z m125 -160 c0 -27 -3 -48 -7 -46 -5 2 -37 21 -73 43
l-65 39 50 6 c102 12 95 15 95 -42z"/>
</g>
</svg>
