<?xml version="1.0" standalone="no"?>
<!DOCTYPE svg PUBLIC "-//W3C//DTD SVG 20010904//EN"
 "http://www.w3.org/TR/2001/REC-SVG-20010904/DTD/svg10.dtd">
<svg version="1.0" xmlns="http://www.w3.org/2000/svg"
 width="192.000000pt" height="192.000000pt" viewBox="0 0 192.000000 192.000000"
 preserveAspectRatio="xMidYMid meet">
<metadata>
Created by potrace 1.16, written by Peter Selinger 2001-2019
</metadata>
<g transform="translate(0.000000,192.000000) scale(0.100000,-0.100000)"
fill="#000000" stroke="none">
811 c445 -92 729 -532 635 -987 -62 -301 -295 -546 -601 -630 -91 -26 -329
-26 -420 0 -291 80 -516 305 -596 596 -26 91 -26 329 0 420 120 433 542 692
982 601z"/>
<path d="M765 1351 c-47 -22 -89 -64 -104 -104 -7 -17 -11 -126 -11 -280 0
-274 5 -303 61 -354 49 -45 142 -57 202 -27 45 23 344 201 389 231 80 54 103
181 46 255 -17 23 -98 77 -230 156 -252 151 -275 159 -353 123z m236 -285 c91
-53 101 -65 97 -108 -3 -29 -12 -38 -88 -85 -93 -57 -120 -63 -150 -33 -18 18
-20 33 -20 127 0 160 28 177 161 99z"/>
</g>
</svg>
