<?xml version="1.0" standalone="no"?>
<!DOCTYPE svg PUBLIC "-//W3C//DTD SVG 20010904//EN"
 "http://www.w3.org/TR/2001/REC-SVG-20010904/DTD/svg10.dtd">
<svg version="1.0" xmlns="http://www.w3.org/2000/svg"
 width="192.000000pt" height="192.000000pt" viewBox="0 0 192.000000 192.000000"
 preserveAspectRatio="xMidYMid meet">
<metadata>
Created by potrace 1.16, written by Peter Selinger 2001-2019
</metadata>
<g transform="translate(0.000000,192.000000) scale(0.100000,-0.100000)"
fill="#000000" stroke="none">
811 c445 -92 729 -532 635 -987 -62 -301 -295 -546 -601 -630 -91 -26 -329
-26 -420 0 -291 80 -516 305 -596 596 -26 91 -26 329 0 420 120 433 542 692
982 601z"/>
<path d="M975 1345 c-22 -12 -83 -98 -230 -326 -110 -171 -204 -319 -209 -329
-31 -66 68 -142 127 -97 9 6 98 138 197 292 100 154 188 286 197 293 24 17 98
15 117 -4 14 -13 16 -49 16 -240 l0 -224 -24 0 c-19 0 -24 6 -30 38 -18 116
-167 111 -183 -6 -8 -59 5 -111 34 -138 25 -23 32 -24 175 -24 83 0 158 5 169
10 46 25 49 49 49 389 l0 320 -24 28 -24 28 -164 3 c-132 2 -169 -1 -193 -13z"/>
<path d="M1015 1031 c-60 -25 -78 -100 -35 -146 18 -19 34 -25 65 -25 53 0 89
34 89 86 0 58 -67 106 -119 85z"/>
</g>
</svg>
