<?xml version="1.0" standalone="no"?>
<!DOCTYPE svg PUBLIC "-//W3C//DTD SVG 20010904//EN"
 "http://www.w3.org/TR/2001/REC-SVG-20010904/DTD/svg10.dtd">
<svg version="1.0" xmlns="http://www.w3.org/2000/svg"
 width="192.000000pt" height="192.000000pt" viewBox="0 0 192.000000 192.000000"
 preserveAspectRatio="xMidYMid meet">
<metadata>
Created by potrace 1.16, written by Peter Selinger 2001-2019
</metadata>
<g transform="translate(0.000000,192.000000) scale(0.100000,-0.100000)"
fill="#000000" stroke="none">
811 c445 -92 729 -532 635 -987 -62 -301 -295 -546 -601 -630 -91 -26 -329
-26 -420 0 -291 80 -516 305 -596 596 -26 91 -26 329 0 420 120 433 542 692
982 601z"/>
<path d="M697 1223 c-4 -3 -7 -66 -7 -138 0 -109 3 -135 16 -146 11 -9 20 -10
32 -2 13 8 18 28 20 89 1 43 4 89 7 101 6 27 37 38 65 23 18 -10 20 -20 20
-100 0 -67 4 -92 16 -104 8 -9 19 -16 24 -16 5 0 16 7 24 16 12 12 16 37 16
104 0 78 2 91 19 100 27 14 37 13 55 -6 12 -11 16 -36 16 -99 0 -94 15 -124
51 -105 17 10 19 22 19 111 0 110 -11 138 -61 165 -36 18 -76 18 -112 -1 -26
-13 -31 -13 -50 0 -25 17 -60 19 -87 5 -13 -7 -21 -7 -25 0 -7 11 -48 14 -58
3z"/>
<path d="M1137 1223 c-4 -3 -7 -52 -7 -108 0 -90 3 -106 22 -130 25 -33 82
-58 109 -50 26 9 24 -3 -6 -31 -29 -27 -32 -50 -7 -62 36 -19 84 19 108 85 17
50 19 274 2 291 -18 18 -46 14 -58 -7 -5 -11 -10 -55 -10 -98 0 -83 -9 -103
-45 -103 -37 0 -45 19 -45 110 0 54 -5 91 -12 98 -13 13 -41 16 -51 5z"/>
<path d="M1100 889 c-204 -75 -231 -81 -325 -77 -70 3 -103 10 -150 31 l-60
27 40 -35 c22 -20 73 -52 114 -72 65 -33 82 -37 145 -37 87 1 135 21 231 96
39 30 84 62 100 71 l30 16 -35 0 c-19 0 -60 -9 -90 -20z"/>
<path d="M676 744 c37 -48 119 -94 167 -94 48 0 95 22 132 60 33 34 31 36 -18
15 -73 -30 -198 -14 -267 35 -41 29 -45 25 -14 -16z"/>
<path d="M1065 724 c-14 -31 -25 -63 -25 -70 0 -19 19 -18 26 1 4 9 19 15 35
15 17 0 32 -6 35 -15 6 -15 34 -21 34 -7 0 22 -55 132 -67 132 -7 0 -24 -25
-38 -56z m44 -23 c-15 -5 -22 6 -14 19 6 9 10 9 16 -1 5 -8 4 -15 -2 -18z"/>
<path d="M1195 757 c-11 -42 -2 -112 15 -112 12 0 15 14 15 64 0 66 -18 96
-30 48z"/>
<path d="M1272 768 c-24 -24 -14 -57 23 -72 45 -19 45 -30 1 -23 -19 3 -37 3
-40 0 -12 -13 18 -33 49 -33 62 0 74 54 17 79 -40 18 -42 35 -2 26 23 -5 30
-3 30 8 0 26 -56 37 -78 15z"/>
</g>
</svg>
