<?xml version="1.0" standalone="no"?>
<!DOCTYPE svg PUBLIC "-//W3C//DTD SVG 20010904//EN"
 "http://www.w3.org/TR/2001/REC-SVG-20010904/DTD/svg10.dtd">
<svg version="1.0" xmlns="http://www.w3.org/2000/svg"
 width="192.000000pt" height="192.000000pt" viewBox="0 0 192.000000 192.000000"
 preserveAspectRatio="xMidYMid meet">
<metadata>
Created by potrace 1.16, written by Peter Selinger 2001-2019
</metadata>
<g transform="translate(0.000000,192.000000) scale(0.100000,-0.100000)"
fill="#000000" stroke="none">
811 c445 -92 729 -532 635 -987 -62 -301 -295 -546 -601 -630 -91 -26 -329
-26 -420 0 -291 80 -516 305 -596 596 -26 91 -26 329 0 420 120 433 542 692
982 601z"/>
<path d="M935 1201 c-71 -21 -155 -45 -186 -54 -31 -9 -78 -34 -105 -55 -27
-22 -64 -47 -81 -56 -41 -20 -41 -34 -8 -181 35 -155 35 -155 206 -158 113 -1
148 2 219 22 137 37 230 78 315 139 69 50 80 63 83 91 4 37 -25 138 -63 224
l-25 57 -53 0 c-30 0 -81 2 -113 5 -48 4 -82 -2 -189 -34z m214 -170 c17 -65
31 -127 31 -138 0 -18 -23 -26 -176 -67 -96 -26 -182 -46 -191 -44 -11 2 -26
40 -49 123 -40 144 -40 153 -11 160 12 3 94 25 182 49 88 24 165 41 171 39 6
-2 25 -57 43 -122z"/>
</g>
</svg>
