<?xml version="1.0" standalone="no"?>
<!DOCTYPE svg PUBLIC "-//W3C//DTD SVG 20010904//EN"
 "http://www.w3.org/TR/2001/REC-SVG-20010904/DTD/svg10.dtd">
<svg version="1.0" xmlns="http://www.w3.org/2000/svg"
 width="192.000000pt" height="192.000000pt" viewBox="0 0 192.000000 192.000000"
 preserveAspectRatio="xMidYMid meet">
<metadata>
Created by potrace 1.16, written by Peter Selinger 2001-2019
</metadata>
<g transform="translate(0.000000,192.000000) scale(0.100000,-0.100000)"
fill="#000000" stroke="none">
811 c445 -92 729 -532 635 -987 -62 -301 -295 -546 -601 -630 -91 -26 -329
-26 -420 0 -291 80 -516 305 -596 596 -26 91 -26 329 0 420 120 433 542 692
982 601z"/>
<path d="M833 1312 c-97 -35 -186 -122 -224 -222 -24 -62 -26 -196 -5 -226 8
-10 16 -17 18 -14 2 3 46 57 98 120 51 63 98 121 103 128 7 8 5 18 -7 31 -9
10 -14 25 -10 35 5 14 20 16 98 14 l91 -3 3 -88 c2 -74 0 -88 -14 -94 -9 -3
-25 -1 -35 5 -10 7 -21 12 -24 12 -12 0 -265 -242 -265 -254 0 -21 83 -94 140
-123 49 -25 65 -28 155 -28 89 0 106 3 157 28 110 54 186 154 207 273 11 60 3
146 -16 165 -9 9 -213 -232 -213 -251 0 -6 5 -19 12 -29 9 -15 9 -23 -1 -35
-17 -20 -160 -23 -179 -4 -7 7 -12 44 -12 95 0 92 10 107 55 83 23 -12 29 -8
102 58 43 39 104 97 137 130 l58 60 -44 44 c-69 70 -144 101 -247 105 -65 3
-99 -1 -138 -15z"/>
<path d="M1270 1292 c-27 -11 -46 -25 -48 -36 -3 -16 0 -18 19 -12 51 15 89
18 89 9 0 -6 -15 -30 -34 -54 -32 -42 -33 -46 -20 -72 8 -15 19 -27 24 -27 15
0 79 102 86 138 5 24 2 38 -11 52 -22 24 -46 24 -105 2z"/>
<path d="M565 773 c-60 -90 -56 -164 8 -162 37 0 112 34 112 49 0 8 -5 14 -10
14 -5 -1 -29 -5 -52 -9 -54 -9 -56 6 -8 62 l35 41 -17 31 c-10 17 -21 31 -24
31 -3 0 -23 -25 -44 -57z"/>
</g>
</svg>
