<?xml version="1.0" standalone="no"?>
<!DOCTYPE svg PUBLIC "-//W3C//DTD SVG 20010904//EN"
 "http://www.w3.org/TR/2001/REC-SVG-20010904/DTD/svg10.dtd">
<svg version="1.0" xmlns="http://www.w3.org/2000/svg"
 width="192.000000pt" height="192.000000pt" viewBox="0 0 192.000000 192.000000"
 preserveAspectRatio="xMidYMid meet">
<metadata>
Created by potrace 1.16, written by Peter Selinger 2001-2019
</metadata>
<g transform="translate(0.000000,192.000000) scale(0.100000,-0.100000)"
fill="#000000" stroke="none">
811 c445 -92 729 -532 635 -987 -62 -301 -295 -546 -601 -630 -91 -26 -329
-26 -420 0 -291 80 -516 305 -596 596 -26 91 -26 329 0 420 120 433 542 692
982 601z"/>
<path d="M865 1376 c-104 -26 -196 -93 -254 -184 -72 -114 -82 -280 -23 -405
39 -84 116 -163 197 -203 55 -26 69 -29 165 -29 97 0 110 2 170 31 87 41 154
110 199 204 34 71 36 80 35 175 0 112 -16 166 -73 249 -89 129 -271 200 -416
162z m240 -101 l60 -30 -102 -3 c-56 -1 -151 -1 -210 0 l-108 3 45 24 c68 36
88 40 175 38 66 -2 90 -7 140 -32z m165 -191 c22 -57 38 -54 -319 -54 l-329 0
10 40 10 40 309 0 309 0 10 -26z m10 -193 c0 -5 -4 -21 -10 -35 l-10 -26 -310
0 c-170 0 -310 1 -310 3 0 1 -4 17 -9 35 l-10 32 330 0 c197 0 329 -4 329 -9z
m-138 -211 c-36 -30 -128 -60 -186 -60 -67 0 -143 23 -181 54 l-30 25 210 0
c208 0 210 0 187 -19z"/>
</g>
</svg>
