<?xml version="1.0" standalone="no"?>
<!DOCTYPE svg PUBLIC "-//W3C//DTD SVG 20010904//EN"
 "http://www.w3.org/TR/2001/REC-SVG-20010904/DTD/svg10.dtd">
<svg version="1.0" xmlns="http://www.w3.org/2000/svg"
 width="192.000000pt" height="192.000000pt" viewBox="0 0 192.000000 192.000000"
 preserveAspectRatio="xMidYMid meet">
<metadata>
Created by potrace 1.16, written by Peter Selinger 2001-2019
</metadata>
<g transform="translate(0.000000,192.000000) scale(0.100000,-0.100000)"
fill="#000000" stroke="none">
811 c445 -92 729 -532 635 -987 -62 -301 -295 -546 -601 -630 -91 -26 -329
-26 -420 0 -291 80 -516 305 -596 596 -26 91 -26 329 0 420 120 433 542 692
982 601z"/>
<path d="M765 1276 c-63 -27 -125 -111 -125 -169 0 -16 -13 -33 -43 -54 -113
-79 -114 -239 -4 -327 l39 -31 317 0 317 0 36 24 c63 44 83 84 83 172 0 71 -2
80 -31 116 -16 21 -50 48 -75 61 -29 14 -47 32 -53 50 -25 77 -92 116 -162 94
-34 -10 -39 -9 -68 20 -16 17 -45 37 -63 44 -41 18 -129 17 -168 0z"/>
</g>
</svg>
