<?xml version="1.0" standalone="no"?>
<!DOCTYPE svg PUBLIC "-//W3C//DTD SVG 20010904//EN"
 "http://www.w3.org/TR/2001/REC-SVG-20010904/DTD/svg10.dtd">
<svg version="1.0" xmlns="http://www.w3.org/2000/svg"
 width="192.000000pt" height="192.000000pt" viewBox="0 0 192.000000 192.000000"
 preserveAspectRatio="xMidYMid meet">
<metadata>
Created by potrace 1.16, written by Peter Selinger 2001-2019
</metadata>
<g transform="translate(0.000000,192.000000) scale(0.100000,-0.100000)"
fill="#000000" stroke="none">
811 c445 -92 729 -532 635 -987 -62 -301 -295 -546 -601 -630 -91 -26 -329
-26 -420 0 -291 80 -516 305 -596 596 -26 91 -26 329 0 420 120 433 542 692
982 601z"/>
<path d="M619 1297 c-92 -61 -91 -155 5 -434 79 -233 73 -219 99 -236 42 -27
69 -26 161 3 50 15 131 40 180 55 173 52 262 108 287 182 36 109 -112 270
-353 383 -158 73 -311 93 -379 47z m256 -134 c86 -27 205 -94 266 -151 92 -85
93 -125 1 -171 -76 -38 -318 -122 -335 -115 -14 5 -101 278 -113 351 -17 109
32 132 181 86z"/>
<path d="M807 1080 c-34 -27 -41 -75 -22 -155 30 -129 55 -150 147 -120 130
42 183 100 154 168 -40 96 -210 161 -279 107z m150 -122 c22 -18 14 -39 -22
-54 -45 -18 -43 -19 -51 21 -9 52 -1 67 33 54 15 -5 33 -15 40 -21z"/>
</g>
</svg>
