<?xml version="1.0" standalone="no"?>
<!DOCTYPE svg PUBLIC "-//W3C//DTD SVG 20010904//EN"
 "http://www.w3.org/TR/2001/REC-SVG-20010904/DTD/svg10.dtd">
<svg version="1.0" xmlns="http://www.w3.org/2000/svg"
 width="192.000000pt" height="192.000000pt" viewBox="0 0 192.000000 192.000000"
 preserveAspectRatio="xMidYMid meet">
<metadata>
Created by potrace 1.16, written by Peter Selinger 2001-2019
</metadata>
<g transform="translate(0.000000,192.000000) scale(0.100000,-0.100000)"
fill="#000000" stroke="none">
811 c445 -92 729 -532 635 -987 -62 -301 -295 -546 -601 -630 -91 -26 -329
-26 -420 0 -291 80 -516 305 -596 596 -26 91 -26 329 0 420 120 433 542 692
982 601z"/>
<path d="M914 1370 c-55 -8 -130 -54 -159 -98 -53 -81 -52 -192 4 -269 l28
-38 -28 -38 c-53 -73 -56 -186 -8 -263 28 -46 98 -93 154 -103 157 -29 302
103 281 256 -6 48 -36 112 -61 133 -14 12 -14 15 3 34 147 161 5 417 -214 386z
m103 -61 c34 -13 80 -55 99 -91 21 -41 18 -124 -8 -169 -11 -21 -26 -40 -33
-43 -6 -2 -35 2 -64 10 -50 13 -112 8 -162 -11 -22 -8 -66 45 -75 91 -27 146
108 264 243 213z m-18 -438 c21 -13 5 -41 -24 -41 -14 0 -25 -4 -25 -10 0 -5
11 -10 25 -10 18 0 25 -5 25 -20 0 -15 -7 -20 -25 -20 -14 0 -25 -4 -25 -10 0
-5 14 -10 30 -10 23 0 30 -4 30 -20 0 -18 -7 -20 -60 -20 l-60 0 0 79 c0 54 4
81 13 84 20 9 81 7 96 -2z"/>
<path d="M900 1156 l0 -86 55 0 c48 0 55 2 55 20 0 16 -7 20 -30 20 -16 0 -30
5 -30 10 0 6 11 10 25 10 18 0 25 5 25 20 0 15 -7 20 -25 20 -34 0 -32 18 3
22 19 2 27 9 27 23 0 17 -8 20 -52 23 l-53 3 0 -85z"/>
</g>
</svg>
