<?xml version="1.0" standalone="no"?>
<!DOCTYPE svg PUBLIC "-//W3C//DTD SVG 20010904//EN"
 "http://www.w3.org/TR/2001/REC-SVG-20010904/DTD/svg10.dtd">
<svg version="1.0" xmlns="http://www.w3.org/2000/svg"
 width="192.000000pt" height="192.000000pt" viewBox="0 0 192.000000 192.000000"
 preserveAspectRatio="xMidYMid meet">
<metadata>
Created by potrace 1.16, written by Peter Selinger 2001-2019
</metadata>
<g transform="translate(0.000000,192.000000) scale(0.100000,-0.100000)"
fill="#000000" stroke="none">
811 c445 -92 729 -532 635 -987 -62 -301 -295 -546 -601 -630 -91 -26 -329
-26 -420 0 -291 80 -516 305 -596 596 -26 91 -26 329 0 420 120 433 542 692
982 601z"/>
<path d="M762 1265 c-62 -64 -117 -127 -122 -141 -13 -34 -13 -389 1 -437 13
-47 63 -106 106 -123 23 -10 82 -14 205 -14 198 0 234 10 284 76 l29 37 3 276
c2 152 0 291 -3 309 -7 37 -55 96 -96 118 -20 10 -65 14 -161 14 l-133 0 -113
-115z m300 -41 c11 -7 10 -44 -2 -44 -6 0 -5 -9 1 -24 17 -36 4 -76 -24 -76
-12 0 -27 4 -33 8 -18 11 -34 48 -34 76 0 16 -6 26 -14 26 -24 0 -29 -20 -12
-39 16 -18 13 -51 -5 -51 -12 0 -39 55 -39 80 0 12 5 31 11 42 10 19 17 20 77
14 36 -4 69 -9 74 -12z m-72 -214 c5 -55 18 -71 39 -47 12 15 5 47 -10 47 -5
0 -9 9 -9 20 0 27 25 25 44 -2 33 -46 15 -107 -34 -123 -28 -9 -91 24 -110 57
-18 34 -5 77 30 95 37 19 44 12 50 -47z m46 -135 c30 -5 31 -6 31 -66 1 -54
-2 -62 -22 -71 -59 -27 -153 27 -142 82 5 24 3 28 -23 34 -23 4 -30 11 -30 29
l0 24 78 -13 c42 -7 91 -16 108 -19z m-109 -156 c58 -10 63 -13 63 -36 0 -21
-4 -24 -22 -20 -13 3 -44 9 -70 12 -42 6 -48 10 -48 31 0 28 -5 27 77 13z
m141 -46 c3 -19 -1 -23 -22 -23 -21 0 -26 5 -26 26 0 21 4 25 23 22 14 -2 23
-11 25 -25z"/>
<path d="M990 1177 c0 -22 26 -51 38 -43 18 11 14 34 -7 46 -26 13 -31 13 -31
-3z"/>
<path d="M936 1011 c-9 -14 4 -41 21 -41 9 0 13 8 11 22 -3 23 -23 35 -32 19z"/>
<path d="M940 821 c0 -25 42 -45 77 -36 43 10 18 42 -41 52 -32 5 -36 3 -36
-16z"/>
</g>
</svg>
