<?xml version="1.0" standalone="no"?>
<!DOCTYPE svg PUBLIC "-//W3C//DTD SVG 20010904//EN"
 "http://www.w3.org/TR/2001/REC-SVG-20010904/DTD/svg10.dtd">
<svg version="1.0" xmlns="http://www.w3.org/2000/svg"
 width="192.000000pt" height="192.000000pt" viewBox="0 0 192.000000 192.000000"
 preserveAspectRatio="xMidYMid meet">
<metadata>
Created by potrace 1.16, written by Peter Selinger 2001-2019
</metadata>
<g transform="translate(0.000000,192.000000) scale(0.100000,-0.100000)"
fill="#000000" stroke="none">
811 c445 -92 729 -532 635 -987 -62 -301 -295 -546 -601 -630 -91 -26 -329
-26 -420 0 -291 80 -516 305 -596 596 -26 91 -26 329 0 420 120 433 542 692
982 601z"/>
<path d="M694 1321 c-51 -23 -89 -71 -104 -132 -7 -29 -10 -118 -8 -250 3
-202 3 -205 30 -251 21 -34 41 -53 80 -72 51 -26 56 -26 263 -26 207 0 212 0
263 26 39 19 59 38 80 72 27 46 27 49 30 251 4 223 -3 275 -45 330 -49 64 -81
71 -328 71 -194 0 -225 -3 -261 -19z m480 -65 c18 -7 42 -26 54 -41 21 -26 22
-37 22 -242 0 -219 -5 -249 -43 -281 -12 -10 -15 -1 -19 62 -5 81 -21 114 -65
143 -23 15 -50 18 -168 18 -118 0 -145 -3 -168 -18 -44 -29 -60 -62 -65 -143
-4 -63 -7 -72 -19 -62 -38 32 -43 62 -43 281 0 205 1 216 22 242 38 48 67 54
271 55 138 0 196 -4 221 -14z"/>
<path d="M898 1194 c-63 -34 -77 -122 -27 -178 38 -44 83 -54 133 -31 43 21
66 59 66 112 0 87 -94 140 -172 97z"/>
</g>
</svg>
