<?xml version="1.0" standalone="no"?>
<!DOCTYPE svg PUBLIC "-//W3C//DTD SVG 20010904//EN"
 "http://www.w3.org/TR/2001/REC-SVG-20010904/DTD/svg10.dtd">
<svg version="1.0" xmlns="http://www.w3.org/2000/svg"
 width="192.000000pt" height="192.000000pt" viewBox="0 0 192.000000 192.000000"
 preserveAspectRatio="xMidYMid meet">
<metadata>
Created by potrace 1.16, written by Peter Selinger 2001-2019
</metadata>
<g transform="translate(0.000000,192.000000) scale(0.100000,-0.100000)"
fill="#000000" stroke="none">
811 c445 -92 729 -532 635 -987 -62 -301 -295 -546 -601 -630 -91 -26 -329
-26 -420 0 -291 80 -516 305 -596 596 -26 91 -26 329 0 420 120 433 542 692
982 601z"/>
<path d="M717 1330 c-46 -14 -98 -60 -118 -104 -16 -36 -19 -68 -19 -261 0
-209 1 -223 23 -265 13 -26 40 -57 65 -75 l44 -30 216 -3 c278 -4 325 8 375
101 21 40 22 53 22 272 0 219 -1 232 -22 272 -25 45 -59 74 -112 91 -40 14
-430 15 -474 2z m68 -365 l0 -110 -45 -3 c-60 -4 -70 11 -70 111 0 105 8 119
68 115 l47 -3 0 -110z m143 103 c12 -12 16 -95 6 -122 -4 -10 -18 -16 -40 -16
-33 0 -34 -1 -34 -40 0 -33 -3 -40 -20 -40 -19 0 -20 7 -20 115 l0 115 48 0
c26 0 53 -5 60 -12z m152 -7 c5 -11 10 -36 10 -56 0 -52 -15 -75 -50 -75 -28
0 -30 -2 -30 -40 0 -33 -3 -40 -20 -40 -19 0 -20 7 -20 115 l0 115 50 0 c38 0
52 -4 60 -19z m145 -96 l0 -110 -50 0 -50 0 -3 99 c-1 55 0 106 3 113 3 10 19
13 52 11 l48 -3 0 -110z"/>
<path d="M712 963 c2 -61 6 -78 18 -78 12 0 16 17 18 78 3 72 2 77 -18 77 -20
0 -21 -5 -18 -77z"/>
<path d="M862 1003 c2 -26 8 -38 18 -38 10 0 16 12 18 38 3 32 0 37 -18 37
-18 0 -21 -5 -18 -37z"/>
<path d="M1010 1000 c0 -43 0 -43 24 -34 10 4 16 18 16 40 0 27 -4 34 -20 34
-17 0 -20 -7 -20 -40z"/>
<path d="M1150 967 c0 -56 4 -76 14 -80 26 -10 37 19 34 85 -3 57 -5 63 -25
66 -22 3 -23 0 -23 -71z"/>
</g>
</svg>
