<?xml version="1.0" standalone="no"?>
<!DOCTYPE svg PUBLIC "-//W3C//DTD SVG 20010904//EN"
 "http://www.w3.org/TR/2001/REC-SVG-20010904/DTD/svg10.dtd">
<svg version="1.0" xmlns="http://www.w3.org/2000/svg"
 width="192.000000pt" height="192.000000pt" viewBox="0 0 192.000000 192.000000"
 preserveAspectRatio="xMidYMid meet">
<metadata>
Created by potrace 1.16, written by Peter Selinger 2001-2019
</metadata>
<g transform="translate(0.000000,192.000000) scale(0.100000,-0.100000)"
fill="#000000" stroke="none">
811 c445 -92 729 -532 635 -987 -62 -301 -295 -546 -601 -630 -91 -26 -329
-26 -420 0 -291 80 -516 305 -596 596 -26 91 -26 329 0 420 120 433 542 692
982 601z"/>
<path d="M890 1361 c-46 -24 -70 -59 -77 -109 l-6 -41 -28 14 c-15 8 -44 15
-64 15 -80 0 -135 -58 -135 -144 0 -45 4 -53 44 -91 l43 -42 -28 -17 c-81 -48
-77 -185 6 -236 38 -23 98 -26 137 -6 31 16 38 12 38 -23 0 -36 33 -87 69
-106 38 -19 104 -19 142 0 38 20 69 70 69 113 0 37 -3 36 46 16 74 -31 150 4
180 81 22 58 8 110 -39 152 l-34 29 38 36 c62 60 62 143 0 202 -46 44 -101 50
-173 21 -13 -5 -18 -2 -18 11 0 10 -10 38 -21 62 -35 72 -120 101 -189 63z
m174 -254 c105 -81 91 -239 -26 -296 -52 -25 -95 -27 -145 -6 -48 20 -71 41
-94 87 -43 83 -13 173 76 230 46 29 141 21 189 -15z"/>
<path d="M903 1074 c-113 -56 -71 -227 55 -227 49 0 78 16 102 56 39 64 17
137 -50 172 -37 19 -67 19 -107 -1z"/>
</g>
</svg>
