<?xml version="1.0" standalone="no"?>
<!DOCTYPE svg PUBLIC "-//W3C//DTD SVG 20010904//EN"
 "http://www.w3.org/TR/2001/REC-SVG-20010904/DTD/svg10.dtd">
<svg version="1.0" xmlns="http://www.w3.org/2000/svg"
 width="192.000000pt" height="192.000000pt" viewBox="0 0 192.000000 192.000000"
 preserveAspectRatio="xMidYMid meet">
<metadata>
Created by potrace 1.16, written by Peter Selinger 2001-2019
</metadata>
<g transform="translate(0.000000,192.000000) scale(0.100000,-0.100000)"
fill="#000000" stroke="none">
811 c445 -92 729 -532 635 -987 -62 -301 -295 -546 -601 -630 -91 -26 -329
-26 -420 0 -291 80 -516 305 -596 596 -26 91 -26 329 0 420 120 433 542 692
982 601z"/>
<path d="M851 1364 c-221 -59 -355 -284 -296 -499 33 -125 111 -216 232 -273
52 -24 69 -27 168 -27 104 0 114 2 176 32 162 80 259 262 229 431 -30 175
-161 310 -329 342 -71 13 -114 12 -180 -6z m160 -189 c80 -42 92 -176 19 -215
-18 -9 -20 -21 -20 -100 0 -77 -3 -93 -20 -110 -24 -24 -47 -25 -72 -3 -15 13
-18 32 -18 105 0 86 -1 89 -32 116 -26 24 -32 38 -36 83 -4 49 -1 59 24 88 44
52 98 65 155 36z"/>
</g>
</svg>
