<?xml version="1.0" standalone="no"?>
<!DOCTYPE svg PUBLIC "-//W3C//DTD SVG 20010904//EN"
 "http://www.w3.org/TR/2001/REC-SVG-20010904/DTD/svg10.dtd">
<svg version="1.0" xmlns="http://www.w3.org/2000/svg"
 width="192.000000pt" height="192.000000pt" viewBox="0 0 192.000000 192.000000"
 preserveAspectRatio="xMidYMid meet">
<metadata>
Created by potrace 1.16, written by Peter Selinger 2001-2019
</metadata>
<g transform="translate(0.000000,192.000000) scale(0.100000,-0.100000)"
fill="#000000" stroke="none">
810 c245 -63 441 -223 549 -451 55 -116 75 -212 75 -354 0 -141 -20 -238 -75
-352 -86 -182 -215 -312 -396 -398 -116 -55 -212 -75 -354 -75 -142 0 -238 20
-354 75 -228 108 -388 304 -451 549 -28 110 -28 292 0 402 76 298 303 526 600
603 106 28 298 28 406 1z"/>
<path d="M809 1094 c-17 -20 -3 -32 40 -32 40 -1 62 20 38 35 -20 13 -66 11
-78 -3z"/>
<path d="M1093 1093 c-8 -3 -13 -26 -13 -63 0 -43 -4 -61 -17 -71 -16 -12 -17
-12 -5 2 10 14 7 24 -20 65 -20 30 -42 50 -55 52 -32 5 -29 -14 12 -75 19 -29
35 -54 35 -57 0 -2 -10 -6 -22 -8 -13 -2 -24 -11 -26 -21 -3 -16 5 -18 70 -17
40 0 129 -1 196 -2 l124 -3 24 28 c48 56 22 127 -46 127 -32 0 -47 -7 -81 -40
-23 -22 -44 -40 -46 -40 -1 0 -3 11 -3 23 0 13 -3 27 -7 30 -11 12 -43 -25
-43 -50 0 -16 -6 -23 -20 -23 -17 0 -19 8 -22 72 -3 69 -9 82 -35 71z m252
-103 c11 -18 -16 -40 -49 -40 l-31 1 28 24 c31 27 42 30 52 15z"/>
<path d="M555 1049 c-37 -10 -55 -34 -55 -70 0 -67 36 -89 143 -89 59 0 80 4
98 19 22 18 23 22 12 52 -19 51 -8 46 22 -9 28 -51 45 -62 102 -62 50 0 66 24
60 87 -7 67 -13 76 -39 62 -16 -9 -19 -18 -16 -50 3 -36 2 -39 -22 -39 -20 0
-30 10 -50 48 -22 41 -29 47 -61 50 -48 4 -77 -26 -61 -64 7 -13 12 -27 12
-30 0 -3 -33 -4 -72 -2 -66 3 -73 5 -76 25 -2 15 4 23 20 28 22 7 38 22 38 36
0 13 -25 16 -55 8z"/>
<path d="M595 860 c-10 -17 13 -37 40 -37 27 0 50 20 40 37 -3 5 -21 10 -40
10 -19 0 -37 -5 -40 -10z"/>
</g>
</svg>
