<?xml version="1.0" standalone="no"?>
<!DOCTYPE svg PUBLIC "-//W3C//DTD SVG 20010904//EN"
 "http://www.w3.org/TR/2001/REC-SVG-20010904/DTD/svg10.dtd">
<svg version="1.0" xmlns="http://www.w3.org/2000/svg"
 width="192.000000pt" height="192.000000pt" viewBox="0 0 192.000000 192.000000"
 preserveAspectRatio="xMidYMid meet">
<metadata>
Created by potrace 1.16, written by Peter Selinger 2001-2019
</metadata>
<g transform="translate(0.000000,192.000000) scale(0.100000,-0.100000)"
fill="#000000" stroke="none">
811 c445 -92 729 -532 635 -987 -62 -301 -295 -546 -601 -630 -91 -26 -329
-26 -420 0 -291 80 -516 305 -596 596 -26 91 -26 329 0 420 120 433 542 692
982 601z"/>
<path d="M865 1367 c-212 -54 -348 -256 -314 -466 30 -193 185 -335 377 -348
355 -25 572 387 352 666 -97 123 -271 185 -415 148z m251 -87 c113 -55 185
-166 192 -295 2 -38 -1 -86 -6 -105 -9 -31 -10 -27 -11 41 -1 84 -16 114 -46
89 -12 -10 -15 -39 -15 -145 0 -106 -3 -135 -15 -145 -13 -11 -15 9 -15 173 0
145 -3 186 -13 190 -33 12 -37 -8 -39 -218 -2 -156 -6 -209 -15 -213 -10 -3
-13 54 -13 261 0 277 -3 297 -44 281 -14 -5 -16 -37 -16 -290 0 -244 -2 -284
-15 -284 -12 0 -15 29 -17 183 -3 174 -4 182 -23 182 -19 0 -20 -8 -23 -187
-1 -114 -6 -188 -12 -188 -6 0 -10 131 -10 356 l0 357 48 -7 c26 -3 75 -20
108 -36z"/>
</g>
</svg>
