<?xml version="1.0" standalone="no"?>
<!DOCTYPE svg PUBLIC "-//W3C//DTD SVG 20010904//EN"
 "http://www.w3.org/TR/2001/REC-SVG-20010904/DTD/svg10.dtd">
<svg version="1.0" xmlns="http://www.w3.org/2000/svg"
 width="192.000000pt" height="192.000000pt" viewBox="0 0 192.000000 192.000000"
 preserveAspectRatio="xMidYMid meet">
<metadata>
Created by potrace 1.16, written by Peter Selinger 2001-2019
</metadata>
<g transform="translate(0.000000,192.000000) scale(0.100000,-0.100000)"
fill="#000000" stroke="none">
811 c445 -92 729 -532 635 -987 -62 -301 -295 -546 -601 -630 -91 -26 -329
-26 -420 0 -291 80 -516 305 -596 596 -26 91 -26 329 0 420 120 433 542 692
982 601z"/>
<path d="M836 1204 c-3 -9 -6 -96 -6 -194 0 -169 1 -180 20 -190 14 -8 26 -8
40 0 21 11 28 32 32 95 l3 40 42 -66 c23 -37 49 -69 58 -73 23 -9 73 -8 79 2
2 4 -15 39 -40 76 -24 38 -44 72 -44 76 0 9 59 64 64 59 2 -2 26 -40 53 -84
l50 -80 -32 -70 c-18 -38 -31 -73 -28 -77 2 -5 20 -8 38 -8 43 0 45 3 130 202
71 167 77 201 34 206 -35 4 -37 1 -91 -138 -9 -23 -12 -20 -55 54 -28 47 -55
81 -70 87 -37 14 -82 -11 -141 -77 l-52 -59 0 92 c0 115 -9 143 -49 143 -17 0
-31 -6 -35 -16z"/>
<path d="M581 1094 c-25 -21 -31 -33 -31 -65 0 -61 21 -76 143 -103 52 -12 24
-31 -44 -31 -35 0 -70 -4 -76 -8 -20 -13 -15 -55 6 -67 28 -15 126 -12 165 4
106 44 78 166 -41 182 -97 12 -99 37 -4 35 60 -1 91 14 91 43 0 27 -26 36
-101 36 -69 0 -81 -3 -108 -26z"/>
</g>
</svg>
