<?xml version="1.0" standalone="no"?>
<!DOCTYPE svg PUBLIC "-//W3C//DTD SVG 20010904//EN"
 "http://www.w3.org/TR/2001/REC-SVG-20010904/DTD/svg10.dtd">
<svg version="1.0" xmlns="http://www.w3.org/2000/svg"
 width="192.000000pt" height="192.000000pt" viewBox="0 0 192.000000 192.000000"
 preserveAspectRatio="xMidYMid meet">
<metadata>
Created by potrace 1.16, written by Peter Selinger 2001-2019
</metadata>
<g transform="translate(0.000000,192.000000) scale(0.100000,-0.100000)"
fill="#000000" stroke="none">
811 c445 -92 729 -532 635 -987 -62 -301 -295 -546 -601 -630 -91 -26 -329
-26 -420 0 -291 80 -516 305 -596 596 -26 91 -26 329 0 420 120 433 542 692
982 601z"/>
<path d="M865 1362 c-26 -11 -72 -17 -135 -18 l-95 -1 -3 -54 c-5 -78 5 -115
39 -154 l31 -35 -26 -31 c-19 -23 -26 -42 -26 -75 0 -45 30 -123 56 -145 19
-16 18 -25 -10 -62 -35 -47 -53 -104 -40 -125 25 -40 148 -99 217 -105 30 -2
32 0 40 45 8 41 6 50 -14 77 -16 21 -28 29 -39 25 -38 -17 -55 -8 -93 48 -69
99 -24 117 108 44 l80 -44 82 45 c65 35 91 44 120 41 33 -3 39 1 67 39 23 33
31 57 34 104 4 55 2 63 -24 90 l-28 29 26 28 c36 38 45 59 53 123 11 93 9 95
-90 90 -70 -2 -95 1 -135 18 -59 25 -139 27 -195 3z m-109 -86 c27 -23 28 -25
15 -64 -20 -60 -25 -66 -49 -53 -23 12 -42 60 -42 107 0 29 3 34 24 34 14 0
37 -11 52 -24z m484 -10 c0 -46 -18 -94 -40 -106 -26 -14 -26 -15 -44 34 -13
34 -15 50 -7 65 14 25 39 40 69 41 18 0 22 -5 22 -34z m-344 -111 c17 -27 11
-65 -11 -65 -7 0 -15 10 -17 22 -4 29 -28 35 -35 9 -8 -30 -53 -29 -53 1 0 56
84 81 116 33z m224 5 c28 -28 26 -60 -4 -60 -15 0 -26 7 -29 20 -8 29 -37 26
-37 -5 0 -18 -5 -25 -20 -25 -23 0 -28 37 -10 71 15 26 73 26 100 -1z m-90
-113 c0 -14 -54 -56 -73 -57 -21 0 -77 39 -77 55 0 7 28 11 75 11 41 0 75 -4
75 -9z m10 -121 c28 4 32 3 18 -6 -26 -16 -195 -17 -211 -1 -10 11 -6 12 23 7
21 -3 45 0 60 7 20 11 30 10 50 0 14 -7 40 -10 60 -7z"/>
<path d="M1145 756 c-40 -61 -55 -69 -95 -52 -11 4 -23 -4 -39 -24 -18 -25
-21 -39 -16 -68 11 -66 15 -68 89 -48 84 23 170 74 174 103 4 26 -33 116 -56
136 -15 13 -21 8 -57 -47z"/>
</g>
</svg>
