<?xml version="1.0" standalone="no"?>
<!DOCTYPE svg PUBLIC "-//W3C//DTD SVG 20010904//EN"
 "http://www.w3.org/TR/2001/REC-SVG-20010904/DTD/svg10.dtd">
<svg version="1.0" xmlns="http://www.w3.org/2000/svg"
 width="192.000000pt" height="192.000000pt" viewBox="0 0 192.000000 192.000000"
 preserveAspectRatio="xMidYMid meet">
<metadata>
Created by potrace 1.16, written by Peter Selinger 2001-2019
</metadata>
<g transform="translate(0.000000,192.000000) scale(0.100000,-0.100000)"
fill="#000000" stroke="none">
811 c445 -92 729 -532 635 -987 -62 -301 -295 -546 -601 -630 -91 -26 -329
-26 -420 0 -291 80 -516 305 -596 596 -26 91 -26 329 0 420 120 433 542 692
982 601z"/>
<path d="M795 1336 c-9 -14 -17 -49 -18 -82 l-2 -59 75 -5 c73 -5 75 -6 72
-30 -2 -14 -16 -97 -33 -186 -16 -89 -29 -169 -29 -178 0 -13 12 -16 73 -16
39 0 78 4 86 9 9 6 24 72 42 182 16 96 31 184 34 197 5 20 11 22 80 22 85 0
88 3 100 88 11 84 17 82 -241 82 l-224 0 -15 -24z"/>
<path d="M714 1130 c-42 -9 -52 -16 -70 -52 -76 -146 186 -447 433 -498 141
-30 204 70 134 215 -30 64 -109 167 -122 160 -4 -3 -13 -38 -19 -78 -19 -114
-22 -117 -140 -117 -55 0 -100 3 -100 8 0 4 13 79 29 167 16 88 27 163 25 166
-3 6 -67 24 -114 32 -14 3 -39 1 -56 -3z"/>
</g>
</svg>
