<?xml version="1.0" standalone="no"?>
<!DOCTYPE svg PUBLIC "-//W3C//DTD SVG 20010904//EN"
 "http://www.w3.org/TR/2001/REC-SVG-20010904/DTD/svg10.dtd">
<svg version="1.0" xmlns="http://www.w3.org/2000/svg"
 width="192.000000pt" height="192.000000pt" viewBox="0 0 192.000000 192.000000"
 preserveAspectRatio="xMidYMid meet">
<metadata>
Created by potrace 1.16, written by Peter Selinger 2001-2019
</metadata>
<g transform="translate(0.000000,192.000000) scale(0.100000,-0.100000)"
fill="#000000" stroke="none">
811 c445 -92 729 -532 635 -987 -62 -301 -295 -546 -601 -630 -91 -26 -329
-26 -420 0 -291 80 -516 305 -596 596 -26 91 -26 329 0 420 120 433 542 692
982 601z"/>
<path d="M668 1301 c-30 -19 -52 -44 -67 -73 -19 -41 -21 -60 -21 -263 0 -203
2 -222 21 -263 15 -29 37 -54 67 -73 l46 -29 232 0 c247 0 270 4 318 48 59 56
66 85 66 317 0 232 -7 261 -66 317 -48 44 -71 48 -318 48 l-232 0 -46 -29z
m490 -183 c28 -28 11 -55 -121 -186 -92 -90 -141 -132 -156 -132 -25 0 -137
100 -147 132 -7 22 21 58 45 58 8 0 35 -19 58 -42 l43 -43 113 113 c110 110
138 127 165 100z"/>
</g>
</svg>
