<?xml version="1.0" standalone="no"?>
<!DOCTYPE svg PUBLIC "-//W3C//DTD SVG 20010904//EN"
 "http://www.w3.org/TR/2001/REC-SVG-20010904/DTD/svg10.dtd">
<svg version="1.0" xmlns="http://www.w3.org/2000/svg"
 width="192.000000pt" height="192.000000pt" viewBox="0 0 192.000000 192.000000"
 preserveAspectRatio="xMidYMid meet">
<metadata>
Created by potrace 1.16, written by Peter Selinger 2001-2019
</metadata>
<g transform="translate(0.000000,192.000000) scale(0.100000,-0.100000)"
fill="#000000" stroke="none">
811 c445 -92 729 -532 635 -987 -62 -301 -295 -546 -601 -630 -91 -26 -329
-26 -420 0 -291 80 -516 305 -596 596 -26 91 -26 329 0 420 120 433 542 692
982 601z"/>
<path d="M430 965 l0 -216 43 3 42 3 3 90 3 90 30 -93 30 -93 42 3 42 3 30 90
30 90 3 -93 3 -93 42 3 42 3 0 210 0 210 -49 0 -49 0 -45 -135 -45 -134 -46
134 -46 135 -52 3 -53 3 0 -216z"/>
<path d="M895 1155 c-25 -24 -25 -26 -25 -215 l0 -190 45 0 45 0 0 70 0 70 55
0 54 0 3 -67 3 -68 45 0 45 0 3 181 2 182 -26 31 c-26 31 -26 31 -125 31 -93
0 -102 -2 -124 -25z m175 -120 l0 -55 -55 0 -55 0 0 48 c0 27 3 52 7 55 3 4
28 7 55 7 l48 0 0 -55z"/>
<path d="M1220 965 l0 -216 128 3 127 3 0 40 0 40 -82 3 -83 3 0 169 0 170
-45 0 -45 0 0 -215z"/>
</g>
</svg>
