<?xml version="1.0" standalone="no"?>
<!DOCTYPE svg PUBLIC "-//W3C//DTD SVG 20010904//EN"
 "http://www.w3.org/TR/2001/REC-SVG-20010904/DTD/svg10.dtd">
<svg version="1.0" xmlns="http://www.w3.org/2000/svg"
 width="192.000000pt" height="192.000000pt" viewBox="0 0 192.000000 192.000000"
 preserveAspectRatio="xMidYMid meet">
<metadata>
Created by potrace 1.16, written by Peter Selinger 2001-2019
</metadata>
<g transform="translate(0.000000,192.000000) scale(0.100000,-0.100000)"
fill="#000000" stroke="none">
811 c445 -92 729 -532 635 -987 -62 -301 -295 -546 -601 -630 -91 -26 -329
-26 -420 0 -291 80 -516 305 -596 596 -26 91 -26 329 0 420 120 433 542 692
982 601z"/>
<path d="M653 1237 c-10 -16 -30 -121 -25 -135 2 -6 12 -12 23 -12 19 0 27 13
45 74 13 43 36 47 27 4 -13 -62 -10 -73 17 -73 22 0 27 7 39 53 17 64 44 74
30 10 -12 -52 -6 -70 23 -66 31 4 55 101 33 135 -13 19 -23 21 -110 21 -54 0
-98 -5 -102 -11z"/>
<path d="M897 1236 c-3 -8 -1 -45 5 -82 8 -47 8 -69 1 -71 -5 -2 -19 -10 -29
-18 -18 -15 -18 -15 -1 -29 19 -14 40 -12 65 7 24 19 114 178 108 192 -11 29
-45 17 -65 -22 -19 -38 -25 -36 -33 12 -4 24 -43 33 -51 11z"/>
<path d="M612 1008 c-5 -7 -22 -65 -36 -128 -15 -63 -29 -124 -32 -136 -10
-38 20 -54 97 -54 73 0 110 13 142 48 23 26 26 87 5 108 -14 14 -12 18 13 44
35 34 38 81 9 110 -17 17 -33 20 -104 20 -55 0 -87 -4 -94 -12z m116 -95 c-4
-22 -58 -31 -58 -10 0 20 10 27 37 27 18 0 24 -5 21 -17z m-20 -96 c16 -18 1
-36 -36 -43 -33 -7 -36 -4 -26 34 7 25 44 31 62 9z"/>
<path d="M950 1004 c-77 -33 -130 -111 -130 -192 0 -83 56 -132 150 -132 44 0
52 3 62 25 9 21 8 28 -7 45 -10 11 -29 20 -42 20 -31 0 -63 34 -63 66 0 15 12
38 29 55 27 26 36 29 96 29 59 0 67 2 74 22 12 32 2 58 -26 69 -36 13 -103 10
-143 -7z"/>
<path d="M1201 1003 c-28 -24 -123 -239 -119 -271 6 -51 74 -56 96 -7 9 20 19
25 47 25 23 0 35 -5 35 -13 0 -20 33 -47 57 -47 40 0 48 25 44 143 -3 116 -15
158 -50 177 -30 16 -87 12 -110 -7z m59 -138 c0 -39 -3 -45 -21 -45 -11 0 -19
3 -17 8 2 4 10 24 18 45 8 20 15 37 17 37 2 0 3 -20 3 -45z"/>
</g>
</svg>
