<?xml version="1.0" standalone="no"?>
<!DOCTYPE svg PUBLIC "-//W3C//DTD SVG 20010904//EN"
 "http://www.w3.org/TR/2001/REC-SVG-20010904/DTD/svg10.dtd">
<svg version="1.0" xmlns="http://www.w3.org/2000/svg"
 width="192.000000pt" height="192.000000pt" viewBox="0 0 192.000000 192.000000"
 preserveAspectRatio="xMidYMid meet">
<metadata>
Created by potrace 1.16, written by Peter Selinger 2001-2019
</metadata>
<g transform="translate(0.000000,192.000000) scale(0.100000,-0.100000)"
fill="#000000" stroke="none">
811 c445 -92 729 -532 635 -987 -62 -301 -295 -546 -601 -630 -91 -26 -329
-26 -420 0 -291 80 -516 305 -596 596 -26 91 -26 329 0 420 120 433 542 692
982 601z"/>
<path d="M765 1328 c-3 -7 -18 -69 -35 -138 -25 -104 -30 -145 -30 -247 0 -67
4 -124 9 -127 20 -13 53 36 110 161 76 171 101 213 173 290 89 96 75 43 -22
-80 -75 -95 -110 -157 -193 -337 -18 -41 -57 -105 -86 -143 l-52 -67 26 -12
c14 -6 27 -9 28 -7 47 61 105 142 149 209 30 47 90 126 131 175 48 56 82 108
93 138 15 45 110 164 122 152 3 -3 -9 -20 -27 -39 -17 -18 -77 -122 -132 -231
-112 -222 -168 -313 -236 -386 l-46 -49 90 0 c86 0 90 1 101 25 6 13 52 81
102 149 50 69 111 160 137 203 25 43 56 91 70 107 13 16 35 51 49 79 22 43 24
53 13 78 -6 16 -15 32 -20 34 -22 14 -214 -291 -281 -448 -45 -105 -61 -130
-93 -151 -20 -14 -19 -9 11 32 40 54 95 174 129 280 28 87 59 142 124 220 43
52 71 93 71 105 0 3 -18 12 -40 21 -31 12 -76 16 -187 16 -80 0 -144 -3 -140
-6 3 -3 -5 -23 -18 -43 -21 -35 -55 -120 -55 -140 0 -15 -62 -173 -66 -169 -4
4 47 202 73 287 11 34 25 56 38 61 14 6 5 9 -33 9 -33 1 -54 -4 -57 -11z m315
-80 c-27 -65 -80 -155 -80 -135 0 11 104 216 108 213 2 -2 -11 -38 -28 -78z"/>
<path d="M675 1311 c-33 -20 -71 -59 -64 -65 2 -3 27 15 54 39 54 48 57 55 10
26z"/>
<path d="M662 1226 c-56 -41 -82 -75 -82 -108 l0 -31 21 27 c31 39 34 25 4
-19 -24 -37 -25 -43 -25 -194 1 -105 5 -166 14 -186 l13 -30 28 55 c26 51 29
67 36 210 4 88 14 179 23 210 18 61 20 90 8 90 -4 0 -23 -11 -40 -24z"/>
<path d="M1282 1077 c-12 -12 -28 -43 -37 -67 -24 -67 -71 -147 -130 -220 -29
-36 -70 -95 -90 -132 l-37 -68 60 0 60 0 45 68 c25 37 57 91 71 120 54 107
113 322 89 322 -5 0 -19 -10 -31 -23z"/>
<path d="M1297 837 c-16 -50 -48 -117 -77 -161 -41 -62 -46 -76 -31 -76 32 0
97 56 120 103 18 38 21 59 19 133 l-3 87 -28 -86z"/>
</g>
</svg>
