<?xml version="1.0" standalone="no"?>
<!DOCTYPE svg PUBLIC "-//W3C//DTD SVG 20010904//EN"
 "http://www.w3.org/TR/2001/REC-SVG-20010904/DTD/svg10.dtd">
<svg version="1.0" xmlns="http://www.w3.org/2000/svg"
 width="192.000000pt" height="192.000000pt" viewBox="0 0 192.000000 192.000000"
 preserveAspectRatio="xMidYMid meet">
<metadata>
Created by potrace 1.16, written by Peter Selinger 2001-2019
</metadata>
<g transform="translate(0.000000,192.000000) scale(0.100000,-0.100000)"
fill="#000000" stroke="none">
811 c445 -92 729 -532 635 -987 -62 -301 -295 -546 -601 -630 -91 -26 -329
-26 -420 0 -291 80 -516 305 -596 596 -26 91 -26 329 0 420 120 433 542 692
982 601z"/>
<path d="M695 1321 c-22 -10 -50 -29 -62 -42 -27 -30 -53 -90 -53 -124 l0 -25
375 0 375 0 0 25 c0 34 -26 94 -53 124 -50 54 -83 61 -322 61 -193 0 -225 -3
-260 -19z"/>
<path d="M580 913 c0 -188 10 -226 69 -276 49 -40 90 -47 306 -47 216 0 257 7
306 47 59 50 69 88 69 276 l0 167 -375 0 -375 0 0 -167z m357 14 l18 -24 18
24 c14 17 28 23 57 23 46 0 70 -27 70 -79 0 -28 -10 -44 -58 -93 -70 -69 -94
-73 -153 -26 -76 61 -101 136 -59 178 29 29 84 27 107 -3z"/>
</g>
</svg>
