<?xml version="1.0" standalone="no"?>
<!DOCTYPE svg PUBLIC "-//W3C//DTD SVG 20010904//EN"
 "http://www.w3.org/TR/2001/REC-SVG-20010904/DTD/svg10.dtd">
<svg version="1.0" xmlns="http://www.w3.org/2000/svg"
 width="192.000000pt" height="192.000000pt" viewBox="0 0 192.000000 192.000000"
 preserveAspectRatio="xMidYMid meet">
<metadata>
Created by potrace 1.16, written by Peter Selinger 2001-2019
</metadata>
<g transform="translate(0.000000,192.000000) scale(0.100000,-0.100000)"
fill="#000000" stroke="none">
811 c445 -92 729 -532 635 -987 -62 -301 -295 -546 -601 -630 -91 -26 -329
-26 -420 0 -291 80 -516 305 -596 596 -26 91 -26 329 0 420 120 433 542 692
982 601z"/>
<path d="M1195 1346 c-29 -21 -12 -48 27 -45 60 4 70 1 66 -23 -2 -17 -12 -24
-33 -28 -22 -4 -31 -11 -33 -29 -7 -45 15 -45 98 -2 21 11 34 53 26 84 -12 48
-107 75 -151 43z"/>
<path d="M668 1250 c-117 -62 -144 -271 -55 -423 76 -129 272 -230 413 -213
27 3 64 6 83 5 32 0 61 15 61 32 0 5 -26 9 -57 9 -76 0 -152 21 -239 66 -51
26 -79 35 -96 31 -30 -8 -42 1 -27 20 18 21 45 15 132 -31 190 -100 394 -82
452 41 44 92 21 193 -51 228 -39 18 -39 18 -83 -6 l-43 -25 -48 24 c-47 23
-49 23 -84 7 -20 -10 -45 -32 -57 -51 -23 -38 -34 -44 -26 -14 3 13 -3 24 -19
35 -22 14 -24 14 -34 -6 -31 -57 -143 -78 -208 -39 -43 27 -76 98 -69 151 3
23 1 39 -6 42 -29 9 11 25 81 30 94 7 132 20 139 47 8 29 43 26 43 -3 0 -36
10 -39 43 -11 25 21 39 25 74 22 52 -4 51 9 -1 37 l-37 20 -23 -26 -22 -26
-50 23 c-61 29 -135 31 -186 4z m432 -315 c18 -22 3 -55 -25 -55 -33 0 -51 33
-29 54 19 20 38 20 54 1z m185 -25 c0 -18 -6 -26 -23 -28 -24 -4 -38 18 -28
44 3 9 15 14 28 12 17 -2 23 -10 23 -28z"/>
<path d="M950 1189 c-40 -16 -49 -35 -38 -76 5 -20 7 -49 4 -65 -4 -22 0 -31
20 -44 23 -16 26 -16 48 5 13 12 36 25 52 30 33 8 45 41 32 87 -14 55 -67 83
-118 63z m41 -85 c17 -21 0 -49 -32 -49 -24 0 -36 23 -25 51 7 19 40 18 57 -2z"/>
<path d="M830 1144 c-15 -8 -57 -14 -101 -14 -84 0 -89 -4 -89 -61 0 -67 58
-129 119 -129 48 0 81 18 109 60 19 28 23 44 19 83 -5 61 -22 79 -57 61z m42
-49 c23 -51 -32 -101 -70 -63 -15 15 -15 61 0 76 21 21 57 14 70 -13z"/>
<path d="M1202 1148 c-16 -16 -15 -33 2 -47 22 -18 48 -2 44 28 -3 28 -27 38
-46 19z"/>
</g>
</svg>
