<?xml version="1.0" standalone="no"?>
<!DOCTYPE svg PUBLIC "-//W3C//DTD SVG 20010904//EN"
 "http://www.w3.org/TR/2001/REC-SVG-20010904/DTD/svg10.dtd">
<svg version="1.0" xmlns="http://www.w3.org/2000/svg"
 width="192.000000pt" height="192.000000pt" viewBox="0 0 192.000000 192.000000"
 preserveAspectRatio="xMidYMid meet">
<metadata>
Created by potrace 1.16, written by Peter Selinger 2001-2019
</metadata>
<g transform="translate(0.000000,192.000000) scale(0.100000,-0.100000)"
fill="#000000" stroke="none">
811 c445 -92 729 -532 635 -987 -62 -301 -295 -546 -601 -630 -91 -26 -329
-26 -420 0 -291 80 -516 305 -596 596 -26 91 -26 329 0 420 120 433 542 692
982 601z"/>
<path d="M1110 1341 c-88 -27 -155 -86 -184 -162 l-17 -44 -57 -2 c-166 -8
-352 -132 -352 -237 0 -70 32 -105 98 -106 60 0 92 20 150 93 28 35 72 83 99
107 l47 44 12 -94 c21 -164 79 -279 169 -335 57 -35 113 -39 145 -10 75 67 50
225 -57 364 -45 58 -136 141 -156 141 -28 1 26 20 122 45 111 28 153 45 189
78 40 37 19 93 -44 117 -29 12 -128 12 -164 1z"/>
</g>
</svg>
