<?xml version="1.0" standalone="no"?>
<!DOCTYPE svg PUBLIC "-//W3C//DTD SVG 20010904//EN"
 "http://www.w3.org/TR/2001/REC-SVG-20010904/DTD/svg10.dtd">
<svg version="1.0" xmlns="http://www.w3.org/2000/svg"
 width="192.000000pt" height="192.000000pt" viewBox="0 0 192.000000 192.000000"
 preserveAspectRatio="xMidYMid meet">
<metadata>
Created by potrace 1.16, written by Peter Selinger 2001-2019
</metadata>
<g transform="translate(0.000000,192.000000) scale(0.100000,-0.100000)"
fill="#000000" stroke="none">
811 c445 -92 729 -532 635 -987 -62 -301 -295 -546 -601 -630 -91 -26 -329
-26 -420 0 -291 80 -516 305 -596 596 -26 91 -26 329 0 420 120 433 542 692
982 601z"/>
<path d="M952 1058 c-21 -21 -14 -48 11 -48 33 0 62 23 54 44 -7 19 -48 21
-65 4z"/>
<path d="M1293 1057 c-35 -13 -53 -27 -35 -27 8 0 12 -25 12 -75 0 -43 -4 -75
-10 -75 -5 0 -10 -4 -10 -10 0 -5 25 -10 55 -10 30 0 55 5 55 10 0 6 -4 10
-10 10 -5 0 -10 8 -10 17 0 13 6 11 28 -10 21 -21 38 -27 70 -27 43 0 57 14
24 24 -10 4 -29 20 -42 38 l-23 32 33 28 34 28 -46 0 c-36 0 -49 -5 -61 -22
-15 -22 -16 -21 -16 30 -1 56 -1 56 -48 39z"/>
<path d="M435 1051 c-3 -5 -1 -12 5 -16 13 -8 13 -155 0 -155 -5 0 -10 -4 -10
-10 0 -6 36 -10 89 -10 85 0 91 1 110 27 41 51 40 100 -3 146 -23 25 -31 27
-105 27 -44 0 -82 -4 -86 -9z m139 -59 c17 -37 17 -39 -4 -75 -12 -20 -26 -37
-31 -37 -5 0 -9 34 -9 75 0 86 16 100 44 37z"/>
<path d="M750 1045 c0 -8 5 -15 10 -15 6 0 10 -32 10 -75 0 -60 -3 -75 -15
-75 -8 0 -15 -4 -15 -10 0 -6 37 -10 90 -10 l90 0 0 40 c0 43 -18 47 -35 7 -6
-12 -17 -22 -25 -22 -22 0 -27 135 -5 147 30 18 14 28 -45 28 -47 0 -60 -3
-60 -15z"/>
<path d="M1100 1020 c-8 -5 -24 -10 -35 -10 -18 0 -20 -7 -20 -75 l0 -75 46 0
45 0 -4 60 c-3 39 -1 60 6 60 6 0 12 -25 14 -57 l3 -58 41 -3 41 -3 -4 58 c-7
107 -7 106 -63 99 -29 -4 -50 -2 -52 3 -2 7 -8 7 -18 1z"/>
<path d="M978 1003 c-27 -4 -61 -33 -39 -33 15 0 14 -83 -1 -98 -9 -9 0 -12
41 -12 44 0 52 3 47 16 -3 9 -6 42 -6 75 0 32 -3 58 -7 58 -5 -1 -20 -4 -35
-6z"/>
<path d="M680 960 c-10 -18 -8 -20 23 -20 31 0 57 14 57 32 0 4 -16 8 -35 8
-24 0 -37 -6 -45 -20z"/>
</g>
</svg>
