<?xml version="1.0" standalone="no"?>
<!DOCTYPE svg PUBLIC "-//W3C//DTD SVG 20010904//EN"
 "http://www.w3.org/TR/2001/REC-SVG-20010904/DTD/svg10.dtd">
<svg version="1.0" xmlns="http://www.w3.org/2000/svg"
 width="192.000000pt" height="192.000000pt" viewBox="0 0 192.000000 192.000000"
 preserveAspectRatio="xMidYMid meet">
<metadata>
Created by potrace 1.16, written by Peter Selinger 2001-2019
</metadata>
<g transform="translate(0.000000,192.000000) scale(0.100000,-0.100000)"
fill="#000000" stroke="none">
811 c445 -92 729 -532 635 -987 -62 -301 -295 -546 -601 -630 -91 -26 -329
-26 -420 0 -291 80 -516 305 -596 596 -26 91 -26 329 0 420 120 433 542 692
982 601z"/>
<path d="M720 1240 c-11 -11 -20 -24 -20 -29 0 -30 -21 -271 -26 -293 -6 -28
-5 -28 50 -28 52 0 57 2 66 26 18 47 29 107 36 202 7 88 6 94 -16 117 -28 30
-63 32 -90 5z"/>
<path d="M965 1238 c-23 -20 -27 -34 -35 -113 -4 -50 -19 -123 -32 -163 l-25
-73 61 3 61 3 27 50 c33 61 58 158 58 224 0 42 -4 53 -26 70 -34 27 -57 26
-89 -1z"/>
<path d="M1233 1250 c-30 -12 -39 -33 -53 -125 -12 -83 -35 -145 -70 -194 -11
-16 -20 -32 -20 -35 0 -3 28 -6 63 -6 75 0 88 10 141 111 66 127 70 220 10
248 -29 13 -41 13 -71 1z"/>
<path d="M634 783 c-14 -32 -35 -68 -46 -80 -31 -33 -3 -30 54 6 45 29 113
113 101 125 -4 3 -24 6 -45 6 -37 0 -39 -2 -64 -57z"/>
<path d="M828 797 c-19 -23 -62 -57 -94 -75 -63 -34 -57 -40 17 -18 84 26 209
101 209 127 0 5 -22 9 -48 9 -44 0 -51 -3 -84 -43z"/>
<path d="M1045 808 c-41 -50 -93 -86 -159 -110 -93 -34 -50 -32 58 2 92 30
214 99 224 128 2 8 -11 12 -46 12 -44 0 -53 -4 -77 -32z"/>
</g>
</svg>
