<?xml version="1.0" standalone="no"?>
<!DOCTYPE svg PUBLIC "-//W3C//DTD SVG 20010904//EN"
 "http://www.w3.org/TR/2001/REC-SVG-20010904/DTD/svg10.dtd">
<svg version="1.0" xmlns="http://www.w3.org/2000/svg"
 width="192.000000pt" height="192.000000pt" viewBox="0 0 192.000000 192.000000"
 preserveAspectRatio="xMidYMid meet">
<metadata>
Created by potrace 1.16, written by Peter Selinger 2001-2019
</metadata>
<g transform="translate(0.000000,192.000000) scale(0.100000,-0.100000)"
fill="#000000" stroke="none">
811 c445 -92 729 -532 635 -987 -62 -301 -295 -546 -601 -630 -91 -26 -329
-26 -420 0 -291 80 -516 305 -596 596 -26 91 -26 329 0 420 120 433 542 692
982 601z"/>
<path d="M695 1326 c-41 -18 -92 -77 -105 -123 -13 -43 -10 -467 3 -495 7 -13
1 -19 -27 -29 -20 -7 -36 -16 -36 -20 0 -10 81 -16 87 -6 3 5 17 -3 32 -17 44
-42 70 -46 308 -46 208 0 230 2 269 20 23 12 53 36 65 55 20 30 30 35 63 35
33 0 37 2 26 15 -7 8 -21 15 -31 15 -17 0 -18 15 -21 243 -3 239 -3 244 -27
279 -13 19 -40 46 -59 59 -35 24 -40 24 -276 26 -184 2 -248 0 -271 -11z m110
-73 c38 -59 139 -173 149 -170 6 2 10 15 8 29 -3 32 48 59 73 38 20 -17 19
-30 -6 -56 l-20 -22 43 10 c24 5 70 18 103 29 66 21 105 24 105 9 0 -5 -8 -10
-17 -10 -24 0 -185 -61 -204 -77 -9 -7 -21 -29 -27 -49 -9 -30 -8 -40 9 -68
22 -38 123 -107 199 -135 56 -22 109 -56 100 -65 -3 -3 -68 17 -145 45 -77 27
-157 49 -177 49 -23 0 -62 -13 -105 -36 -37 -20 -84 -45 -104 -56 -32 -16 -70
-26 -153 -40 -42 -7 -23 18 26 36 29 10 90 42 136 71 46 30 88 55 95 58 8 2
12 39 14 117 l2 113 -41 61 c-23 33 -54 77 -70 97 -30 39 -34 49 -19 49 5 0
17 -12 26 -27z"/>
</g>
</svg>
