<?xml version="1.0" standalone="no"?>
<!DOCTYPE svg PUBLIC "-//W3C//DTD SVG 20010904//EN"
 "http://www.w3.org/TR/2001/REC-SVG-20010904/DTD/svg10.dtd">
<svg version="1.0" xmlns="http://www.w3.org/2000/svg"
 width="192.000000pt" height="192.000000pt" viewBox="0 0 192.000000 192.000000"
 preserveAspectRatio="xMidYMid meet">
<metadata>
Created by potrace 1.16, written by Peter Selinger 2001-2019
</metadata>
<g transform="translate(0.000000,192.000000) scale(0.100000,-0.100000)"
fill="#000000" stroke="none">
811 c445 -92 729 -532 635 -987 -62 -301 -295 -546 -601 -630 -91 -26 -329
-26 -420 0 -291 80 -516 305 -596 596 -26 91 -26 329 0 420 120 433 542 692
982 601z"/>
<path d="M700 1324 c-45 -20 -77 -50 -101 -96 -17 -33 -19 -61 -19 -263 0
-245 5 -269 62 -322 23 -21 87 -53 108 -53 6 0 10 52 10 145 0 118 3 147 15
151 27 11 122 -42 153 -85 l29 -40 24 37 c26 40 127 99 154 88 12 -4 15 -30
15 -152 l0 -146 28 7 c45 11 92 45 120 88 l27 41 0 242 0 242 -30 43 c-16 23
-50 53 -74 66 -42 22 -53 23 -265 23 -175 -1 -228 -4 -256 -16z"/>
</g>
</svg>
