<?xml version="1.0" standalone="no"?>
<!DOCTYPE svg PUBLIC "-//W3C//DTD SVG 20010904//EN"
 "http://www.w3.org/TR/2001/REC-SVG-20010904/DTD/svg10.dtd">
<svg version="1.0" xmlns="http://www.w3.org/2000/svg"
 width="192.000000pt" height="192.000000pt" viewBox="0 0 192.000000 192.000000"
 preserveAspectRatio="xMidYMid meet">
<metadata>
Created by potrace 1.16, written by Peter Selinger 2001-2019
</metadata>
<g transform="translate(0.000000,192.000000) scale(0.100000,-0.100000)"
fill="#000000" stroke="none">
811 c445 -92 729 -532 635 -987 -62 -301 -295 -546 -601 -630 -91 -26 -329
-26 -420 0 -291 80 -516 305 -596 596 -26 91 -26 329 0 420 120 433 542 692
982 601z"/>
<path d="M848 1356 c-84 -31 -107 -66 -75 -110 15 -21 42 -19 117 9 102 38
230 -22 274 -127 22 -51 22 -291 1 -328 -13 -24 -14 -21 -15 41 0 87 -22 114
-77 95 -26 -8 -30 -27 -37 -160 -3 -71 -8 -93 -22 -103 -29 -21 -31 -16 -18
50 8 34 14 122 14 195 0 119 -2 134 -20 152 -11 11 -27 20 -35 20 -8 0 -24 -9
-35 -20 -18 -18 -20 -34 -20 -167 -1 -150 -3 -166 -51 -280 -12 -29 -11 -35 4
-50 29 -30 167 -25 237 8 70 33 136 99 169 169 25 52 26 64 26 215 0 155 -1
162 -28 216 -31 63 -93 126 -159 160 -54 28 -193 37 -250 15z"/>
<path d="M660 1198 c-32 -53 -42 -124 -38 -263 3 -107 7 -139 26 -178 37 -83
107 -153 141 -142 10 3 31 32 47 68 26 58 28 74 33 230 6 162 7 170 30 188 51
42 141 6 141 -56 0 -29 32 -65 58 -65 47 0 65 61 37 128 -68 161 -292 161
-360 0 -11 -28 -15 -76 -16 -185 -1 -134 -2 -145 -14 -118 -20 44 -20 274 0
322 28 67 15 103 -37 103 -21 0 -33 -8 -48 -32z"/>
</g>
</svg>
