<?xml version="1.0" standalone="no"?>
<!DOCTYPE svg PUBLIC "-//W3C//DTD SVG 20010904//EN"
 "http://www.w3.org/TR/2001/REC-SVG-20010904/DTD/svg10.dtd">
<svg version="1.0" xmlns="http://www.w3.org/2000/svg"
 width="192.000000pt" height="192.000000pt" viewBox="0 0 192.000000 192.000000"
 preserveAspectRatio="xMidYMid meet">
<metadata>
Created by potrace 1.16, written by Peter Selinger 2001-2019
</metadata>
<g transform="translate(0.000000,192.000000) scale(0.100000,-0.100000)"
fill="#000000" stroke="none">
811 c445 -92 729 -532 635 -987 -62 -301 -295 -546 -601 -630 -91 -26 -329
-26 -420 0 -291 80 -516 305 -596 596 -26 91 -26 329 0 420 120 433 542 692
982 601z"/>
<path d="M1169 1360 c-99 -17 -184 -80 -222 -166 -19 -41 -19 -41 -82 -47
-108 -8 -258 -92 -306 -171 -44 -72 -13 -175 60 -197 68 -20 117 6 197 104
100 123 97 122 111 30 37 -241 194 -400 319 -324 41 25 57 74 52 159 -5 92
-51 182 -141 278 -38 41 -68 76 -66 78 2 1 42 13 89 25 142 38 190 71 190 131
0 74 -89 118 -201 100z"/>
</g>
</svg>
