<?xml version="1.0" standalone="no"?>
<!DOCTYPE svg PUBLIC "-//W3C//DTD SVG 20010904//EN"
 "http://www.w3.org/TR/2001/REC-SVG-20010904/DTD/svg10.dtd">
<svg version="1.0" xmlns="http://www.w3.org/2000/svg"
 width="192.000000pt" height="192.000000pt" viewBox="0 0 192.000000 192.000000"
 preserveAspectRatio="xMidYMid meet">
<metadata>
Created by potrace 1.16, written by Peter Selinger 2001-2019
</metadata>
<g transform="translate(0.000000,192.000000) scale(0.100000,-0.100000)"
fill="#000000" stroke="none">
811 c445 -92 729 -532 635 -987 -62 -301 -295 -546 -601 -630 -91 -26 -329
-26 -420 0 -291 80 -516 305 -596 596 -26 91 -26 329 0 420 120 433 542 692
982 601z"/>
<path d="M901 1363 c-19 -10 -42 -33 -50 -50 -12 -25 -22 -33 -44 -33 -86 0
-142 -93 -106 -173 9 -21 6 -28 -25 -59 -41 -41 -48 -87 -20 -139 21 -42 68
-59 160 -59 l77 0 -5 -78 c-3 -55 -11 -92 -28 -125 -37 -75 -28 -82 111 -82
l114 0 3 26 c2 14 -9 49 -24 79 -17 34 -28 76 -32 116 l-5 64 73 0 c117 0 170
39 170 126 0 28 -8 44 -36 72 -31 31 -34 38 -25 59 36 80 -21 173 -106 173
-22 0 -31 7 -42 30 -26 60 -101 84 -160 53z"/>
</g>
</svg>
