<?xml version="1.0" standalone="no"?>
<!DOCTYPE svg PUBLIC "-//W3C//DTD SVG 20010904//EN"
 "http://www.w3.org/TR/2001/REC-SVG-20010904/DTD/svg10.dtd">
<svg version="1.0" xmlns="http://www.w3.org/2000/svg"
 width="192.000000pt" height="192.000000pt" viewBox="0 0 192.000000 192.000000"
 preserveAspectRatio="xMidYMid meet">
<metadata>
Created by potrace 1.16, written by Peter Selinger 2001-2019
</metadata>
<g transform="translate(0.000000,192.000000) scale(0.100000,-0.100000)"
fill="#000000" stroke="none">
811 c445 -92 729 -532 635 -987 -62 -301 -295 -546 -601 -630 -91 -26 -329
-26 -420 0 -291 80 -516 305 -596 596 -26 91 -26 329 0 420 120 433 542 692
982 601z"/>
<path d="M695 1323 c-44 -23 -74 -53 -96 -95 -17 -33 -19 -61 -19 -260 0 -212
1 -226 23 -268 13 -26 40 -57 65 -75 l44 -30 243 0 243 0 44 30 c25 18 53 49
66 75 22 44 23 52 20 282 l-3 236 -31 39 c-17 21 -48 48 -70 60 -37 22 -49 23
-269 22 -190 0 -235 -3 -260 -16z m280 -213 c0 -78 -3 -95 -15 -95 -12 0 -16
17 -18 78 -3 68 -5 77 -22 77 -17 0 -19 -9 -22 -77 -2 -61 -6 -78 -18 -78 -12
0 -16 17 -18 78 -3 68 -5 77 -22 77 -17 0 -19 -9 -22 -77 -2 -61 -6 -78 -18
-78 -12 0 -16 17 -18 84 -2 46 -1 90 2 97 4 10 30 13 98 11 l93 -2 0 -95z m74
65 c13 -27 15 -28 25 -11 28 45 34 51 46 40 9 -9 6 -22 -9 -52 -12 -23 -21
-57 -21 -76 0 -44 -9 -66 -26 -66 -10 0 -14 13 -14 40 0 23 -10 62 -24 88 -23
47 -24 76 -2 69 6 -2 17 -17 25 -32z m-319 -198 c0 -8 -3 -17 -7 -20 -9 -9
-34 13 -27 24 8 14 34 11 34 -4z m4 -63 c3 -9 6 -50 6 -93 0 -81 -12 -110 -37
-90 -14 12 -19 179 -6 192 11 12 31 7 37 -9z m156 6 c13 -7 21 -7 25 0 11 17
81 11 106 -9 20 -16 24 -30 27 -96 3 -57 1 -80 -9 -86 -23 -14 -29 0 -29 62 0
72 -12 99 -45 99 -33 0 -45 -27 -45 -100 0 -53 -2 -61 -17 -58 -15 3 -19 17
-23 78 -5 69 -7 75 -28 78 -40 6 -52 -14 -52 -88 0 -71 -4 -82 -26 -73 -10 4
-14 25 -14 78 0 90 21 125 76 125 20 0 44 -5 54 -10z m316 -15 c14 -21 15 -31
6 -50 -9 -19 -9 -31 0 -50 14 -30 -10 -72 -46 -81 -41 -10 -91 -1 -94 19 -3
14 4 17 41 17 28 0 49 6 57 15 17 21 4 33 -40 37 -23 2 -35 8 -35 18 0 10 12
16 35 18 44 4 57 16 40 37 -8 9 -29 15 -56 15 -32 0 -44 4 -44 15 0 12 13 15
60 15 53 0 61 -3 76 -25z"/>
</g>
</svg>
