<?xml version="1.0" standalone="no"?>
<!DOCTYPE svg PUBLIC "-//W3C//DTD SVG 20010904//EN"
 "http://www.w3.org/TR/2001/REC-SVG-20010904/DTD/svg10.dtd">
<svg version="1.0" xmlns="http://www.w3.org/2000/svg"
 width="192.000000pt" height="192.000000pt" viewBox="0 0 192.000000 192.000000"
 preserveAspectRatio="xMidYMid meet">
<metadata>
Created by potrace 1.16, written by Peter Selinger 2001-2019
</metadata>
<g transform="translate(0.000000,192.000000) scale(0.100000,-0.100000)"
fill="#000000" stroke="none">
811 c445 -92 729 -532 635 -987 -62 -301 -295 -546 -601 -630 -91 -26 -329
-26 -420 0 -291 80 -516 305 -596 596 -26 91 -26 329 0 420 120 433 542 692
982 601z"/>
<path d="M688 1341 c-28 -25 -33 -36 -33 -74 0 -33 6 -52 23 -69 12 -14 22
-27 22 -30 0 -4 -29 -22 -64 -42 -35 -20 -67 -43 -70 -52 -8 -20 19 -64 37
-64 7 0 88 43 180 95 92 52 169 95 172 95 2 0 81 -43 174 -96 180 -102 205
-108 217 -57 5 20 2 31 -14 43 -35 29 -360 210 -376 210 -8 0 -30 -9 -50 -20
l-34 -21 -7 30 c-17 78 -116 106 -177 52z"/>
<path d="M798 1054 l-148 -86 0 -152 c0 -144 1 -153 24 -187 44 -65 70 -71
299 -67 193 3 203 4 235 26 57 41 66 71 70 228 l4 142 -161 91 c-88 50 -164
91 -168 91 -4 0 -74 -39 -155 -86z"/>
</g>
</svg>
