<?xml version="1.0" standalone="no"?>
<!DOCTYPE svg PUBLIC "-//W3C//DTD SVG 20010904//EN"
 "http://www.w3.org/TR/2001/REC-SVG-20010904/DTD/svg10.dtd">
<svg version="1.0" xmlns="http://www.w3.org/2000/svg"
 width="192.000000pt" height="192.000000pt" viewBox="0 0 192.000000 192.000000"
 preserveAspectRatio="xMidYMid meet">
<metadata>
Created by potrace 1.16, written by Peter Selinger 2001-2019
</metadata>
<g transform="translate(0.000000,192.000000) scale(0.100000,-0.100000)"
fill="#000000" stroke="none">
811 c445 -92 729 -532 635 -987 -62 -301 -295 -546 -601 -630 -91 -26 -329
-26 -420 0 -291 80 -516 305 -596 596 -26 91 -26 329 0 420 120 433 542 692
982 601z"/>
<path d="M622 1253 c-55 -27 -77 -68 -80 -153 -3 -63 -1 -78 15 -91 17 -16
344 -139 367 -139 16 0 229 101 249 118 20 17 22 53 5 70 -20 20 -52 14 -151
-33 -53 -25 -102 -45 -109 -45 -7 0 -71 22 -143 48 -126 46 -130 48 -133 78
-6 63 -1 64 309 64 174 0 288 -4 300 -10 18 -10 19 -23 19 -185 0 -95 -3 -180
-6 -189 -5 -14 -42 -16 -304 -16 -228 0 -301 3 -307 13 -4 6 -10 37 -13 67 -4
48 -8 56 -32 64 -93 32 -89 -167 4 -224 31 -19 50 -20 348 -20 431 0 410 -15
410 298 0 190 -1 201 -23 233 -44 67 -57 69 -392 69 -256 0 -305 -3 -333 -17z"/>
</g>
</svg>
