<?xml version="1.0" standalone="no"?>
<!DOCTYPE svg PUBLIC "-//W3C//DTD SVG 20010904//EN"
 "http://www.w3.org/TR/2001/REC-SVG-20010904/DTD/svg10.dtd">
<svg version="1.0" xmlns="http://www.w3.org/2000/svg"
 width="192.000000pt" height="192.000000pt" viewBox="0 0 192.000000 192.000000"
 preserveAspectRatio="xMidYMid meet">
<metadata>
Created by potrace 1.16, written by Peter Selinger 2001-2019
</metadata>
<g transform="translate(0.000000,192.000000) scale(0.100000,-0.100000)"
fill="#000000" stroke="none">
811 c445 -92 729 -532 635 -987 -62 -301 -295 -546 -601 -630 -91 -26 -329
-26 -420 0 -291 80 -516 305 -596 596 -26 91 -26 329 0 420 120 433 542 692
982 601z"/>
<path d="M707 1211 c-90 -100 -197 -339 -197 -443 0 -74 46 -109 97 -73 35 25
85 113 119 212 18 52 35 97 37 99 3 3 8 -12 12 -33 9 -53 63 -180 96 -228 83
-124 171 -59 249 184 l27 83 23 -73 c44 -146 118 -259 170 -259 10 0 28 12 40
27 18 23 21 37 17 79 -15 144 -187 464 -249 464 -26 0 -83 -67 -139 -161 -29
-49 -53 -89 -55 -89 -1 0 -23 36 -48 79 -56 94 -121 171 -146 171 -10 0 -33
-17 -53 -39z"/>
</g>
</svg>
