<?xml version="1.0" standalone="no"?>
<!DOCTYPE svg PUBLIC "-//W3C//DTD SVG 20010904//EN"
 "http://www.w3.org/TR/2001/REC-SVG-20010904/DTD/svg10.dtd">
<svg version="1.0" xmlns="http://www.w3.org/2000/svg"
 width="192.000000pt" height="192.000000pt" viewBox="0 0 192.000000 192.000000"
 preserveAspectRatio="xMidYMid meet">
<metadata>
Created by potrace 1.16, written by Peter Selinger 2001-2019
</metadata>
<g transform="translate(0.000000,192.000000) scale(0.100000,-0.100000)"
fill="#000000" stroke="none">
811 c445 -92 729 -532 635 -987 -62 -301 -295 -546 -601 -630 -91 -26 -329
-26 -420 0 -291 80 -516 305 -596 596 -26 91 -26 329 0 420 120 433 542 692
982 601z"/>
<path d="M605 1329 c-19 -17 -40 -48 -46 -69 -24 -81 59 -180 184 -219 l62
-19 0 -57 0 -56 -58 -20 c-184 -62 -249 -194 -141 -289 28 -24 44 -30 81 -30
84 0 151 65 192 186 l20 59 56 0 56 0 17 -50 c44 -128 110 -195 194 -195 38 0
54 6 81 30 74 65 74 134 -1 209 -42 42 -94 68 -190 97 -9 3 -12 20 -10 60 l3
56 58 18 c143 44 227 153 183 237 -36 71 -108 101 -179 74 -54 -21 -115 -105
-141 -195 l-12 -41 -58 0 -57 0 -17 50 c-44 128 -110 195 -194 195 -39 0 -54
-6 -83 -31z m395 -364 l0 -45 -45 0 -45 0 0 45 0 45 45 0 45 0 0 -45z"/>
</g>
</svg>
