<?xml version="1.0" standalone="no"?>
<!DOCTYPE svg PUBLIC "-//W3C//DTD SVG 20010904//EN"
 "http://www.w3.org/TR/2001/REC-SVG-20010904/DTD/svg10.dtd">
<svg version="1.0" xmlns="http://www.w3.org/2000/svg"
 width="192.000000pt" height="192.000000pt" viewBox="0 0 192.000000 192.000000"
 preserveAspectRatio="xMidYMid meet">
<metadata>
Created by potrace 1.16, written by Peter Selinger 2001-2019
</metadata>
<g transform="translate(0.000000,192.000000) scale(0.100000,-0.100000)"
fill="#000000" stroke="none">
811 c445 -92 729 -532 635 -987 -62 -301 -295 -546 -601 -630 -91 -26 -329
-26 -420 0 -291 80 -516 305 -596 596 -26 91 -26 329 0 420 120 433 542 692
982 601z"/>
<path d="M870 1367 c-124 -28 -225 -108 -282 -224 -31 -64 -33 -73 -33 -178 0
-104 2 -114 32 -176 56 -113 152 -193 268 -223 114 -30 196 -15 222 40 16 32
16 37 0 69 -18 38 -28 42 -129 48 -116 8 -202 78 -228 188 -56 232 238 395
402 222 58 -61 84 -169 58 -239 l-11 -27 -39 38 c-32 31 -48 39 -76 39 -46 0
-84 -40 -84 -87 0 -27 19 -51 143 -174 125 -125 147 -143 175 -143 22 0 41 9
57 25 39 38 31 89 -22 147 l-25 26 28 69 c37 90 39 218 5 303 -74 189 -272
299 -461 257z"/>
</g>
</svg>
