<?xml version="1.0" standalone="no"?>
<!DOCTYPE svg PUBLIC "-//W3C//DTD SVG 20010904//EN"
 "http://www.w3.org/TR/2001/REC-SVG-20010904/DTD/svg10.dtd">
<svg version="1.0" xmlns="http://www.w3.org/2000/svg"
 width="192.000000pt" height="192.000000pt" viewBox="0 0 192.000000 192.000000"
 preserveAspectRatio="xMidYMid meet">
<metadata>
Created by potrace 1.16, written by Peter Selinger 2001-2019
</metadata>
<g transform="translate(0.000000,192.000000) scale(0.100000,-0.100000)"
fill="#000000" stroke="none">
811 c445 -92 729 -532 635 -987 -62 -301 -295 -546 -601 -630 -91 -26 -329
-26 -420 0 -291 80 -516 305 -596 596 -26 91 -26 329 0 420 120 433 542 692
982 601z"/>
<path d="M695 1321 c-49 -22 -91 -69 -105 -119 -7 -24 -10 -118 -8 -259 l3
-221 30 -43 c56 -79 77 -84 340 -84 263 0 284 5 340 84 l30 43 3 221 c4 240
-1 276 -45 328 -53 62 -83 69 -328 69 -192 0 -225 -3 -260 -19z m521 -95 l34
-34 0 -108 0 -108 -48 70 c-49 72 -78 88 -109 62 -8 -7 -43 -53 -76 -103 -33
-49 -63 -94 -67 -99 -5 -4 -31 26 -58 67 -78 114 -97 113 -177 -6 l-55 -82 0
154 0 153 34 34 34 34 227 0 227 0 34 -34z"/>
</g>
</svg>
