<?xml version="1.0" standalone="no"?>
<!DOCTYPE svg PUBLIC "-//W3C//DTD SVG 20010904//EN"
 "http://www.w3.org/TR/2001/REC-SVG-20010904/DTD/svg10.dtd">
<svg version="1.0" xmlns="http://www.w3.org/2000/svg"
 width="192.000000pt" height="192.000000pt" viewBox="0 0 192.000000 192.000000"
 preserveAspectRatio="xMidYMid meet">
<metadata>
Created by potrace 1.16, written by Peter Selinger 2001-2019
</metadata>
<g transform="translate(0.000000,192.000000) scale(0.100000,-0.100000)"
fill="#000000" stroke="none">
810 c245 -63 441 -223 549 -451 55 -116 75 -212 75 -354 0 -141 -20 -238 -75
-352 -86 -182 -215 -312 -396 -398 -116 -55 -212 -75 -354 -75 -142 0 -238 20
-354 75 -228 108 -388 304 -451 549 -28 110 -28 292 0 402 76 298 303 526 600
603 106 28 298 28 406 1z"/>
<path d="M857 1153 c-4 -3 -7 -21 -7 -40 0 -33 1 -33 45 -33 l45 0 0 -40 0
-40 -40 0 -40 0 0 -84 c0 -75 3 -88 23 -112 19 -22 32 -27 69 -27 56 0 68 7
68 43 0 26 -4 29 -37 32 l-38 3 -3 73 -3 72 41 0 40 0 0 40 0 40 -40 0 -40 0
0 40 c0 40 0 40 -38 40 -21 0 -42 -3 -45 -7z"/>
<path d="M618 1074 c-34 -18 -48 -43 -48 -83 0 -42 28 -67 97 -87 62 -18 78
-31 61 -51 -16 -20 -65 -15 -86 8 -14 15 -26 18 -46 13 -38 -9 -39 -18 -10
-53 70 -83 224 -48 224 51 0 51 -35 85 -96 94 -54 8 -80 29 -63 50 16 20 52
17 82 -6 20 -16 31 -18 51 -10 29 11 30 13 16 41 -25 45 -126 64 -182 33z"/>
<path d="M1122 1070 c-54 -33 -74 -75 -70 -148 4 -56 8 -66 39 -98 41 -41 96
-57 153 -44 41 9 82 41 92 73 12 38 -50 51 -81 17 -43 -48 -125 -8 -125 61 0
82 88 116 135 52 13 -17 64 -8 72 12 7 21 -25 62 -62 79 -46 22 -113 20 -153
-4z"/>
</g>
</svg>
