<?xml version="1.0" standalone="no"?>
<!DOCTYPE svg PUBLIC "-//W3C//DTD SVG 20010904//EN"
 "http://www.w3.org/TR/2001/REC-SVG-20010904/DTD/svg10.dtd">
<svg version="1.0" xmlns="http://www.w3.org/2000/svg"
 width="192.000000pt" height="192.000000pt" viewBox="0 0 192.000000 192.000000"
 preserveAspectRatio="xMidYMid meet">
<metadata>
Created by potrace 1.16, written by Peter Selinger 2001-2019
</metadata>
<g transform="translate(0.000000,192.000000) scale(0.100000,-0.100000)"
fill="#000000" stroke="none">
811 c445 -92 729 -532 635 -987 -62 -301 -295 -546 -601 -630 -91 -26 -329
-26 -420 0 -291 80 -516 305 -596 596 -26 91 -26 329 0 420 120 433 542 692
982 601z"/>
<path d="M855 1339 c-138 -74 -230 -136 -252 -168 -22 -32 -23 -44 -23 -202 0
-179 4 -200 43 -239 33 -33 259 -161 307 -174 35 -9 46 -6 112 27 40 20 113
60 162 90 124 74 126 78 126 290 0 186 -5 208 -62 250 -18 14 -82 53 -143 88
-140 80 -181 86 -270 38z m232 -125 c9 -15 19 -52 21 -83 l4 -57 55 -29 c56
-29 93 -73 93 -109 0 -46 -117 -114 -181 -104 -21 3 -18 5 16 17 88 29 107 62
59 100 -36 28 -119 58 -185 66 l-56 7 -18 -44 c-25 -62 -32 -189 -11 -207 22
-18 58 -7 101 30 20 18 38 29 41 26 10 -9 -33 -73 -72 -106 -85 -75 -150 -44
-161 77 l-6 62 -53 30 c-50 28 -84 70 -84 104 0 8 11 28 25 45 26 30 84 54
161 66 30 5 45 13 55 32 8 14 34 43 58 64 56 50 110 55 138 13z"/>
<path d="M997 1142 c-15 -15 -27 -31 -27 -34 0 -3 19 -8 43 -11 24 -3 51 -9
60 -13 13 -5 17 0 17 21 0 67 -47 85 -93 37z"/>
<path d="M754 996 c-48 -21 -50 -43 -8 -82 37 -35 54 -37 54 -5 0 10 7 37 15
60 14 40 14 41 -8 41 -12 -1 -36 -7 -53 -14z"/>
</g>
</svg>
