<?xml version="1.0" standalone="no"?>
<!DOCTYPE svg PUBLIC "-//W3C//DTD SVG 20010904//EN"
 "http://www.w3.org/TR/2001/REC-SVG-20010904/DTD/svg10.dtd">
<svg version="1.0" xmlns="http://www.w3.org/2000/svg"
 width="192.000000pt" height="192.000000pt" viewBox="0 0 192.000000 192.000000"
 preserveAspectRatio="xMidYMid meet">
<metadata>
Created by potrace 1.16, written by Peter Selinger 2001-2019
</metadata>
<g transform="translate(0.000000,192.000000) scale(0.100000,-0.100000)"
fill="#000000" stroke="none">
810 c245 -63 441 -223 549 -451 55 -116 75 -212 75 -354 0 -141 -20 -238 -75
-352 -86 -182 -215 -312 -396 -398 -116 -55 -212 -75 -354 -75 -142 0 -238 20
-354 75 -228 108 -388 304 -451 549 -28 110 -28 292 0 402 76 298 303 526 600
603 106 28 298 28 406 1z"/>
<path d="M1076 1304 c-9 -8 -16 -31 -16 -50 l0 -34 -211 0 -211 0 -34 -34 -34
-34 0 -231 c0 -201 2 -235 17 -258 32 -49 59 -53 368 -53 310 0 321 2 364 56
20 25 21 39 21 246 0 175 -3 225 -15 248 -23 45 -53 60 -117 60 l-58 0 0 33
c0 33 -24 67 -48 67 -6 0 -18 -7 -26 -16z m-148 -251 c96 -71 96 -207 2 -269
-99 -66 -238 -5 -256 111 -9 62 25 131 81 163 50 28 131 26 173 -5z m326 1
c37 -36 4 -64 -75 -64 -69 0 -99 12 -99 40 0 28 27 39 97 40 43 0 66 -5 77
-16z m-6 -106 c18 -18 14 -46 -7 -58 -27 -14 -134 -13 -149 2 -15 15 -15 41 0
56 7 7 40 12 78 12 38 0 71 -5 78 -12z m7 -143 l0 -30 -85 0 c-74 0 -85 2 -88
18 -8 42 3 48 90 45 l83 -3 0 -30z"/>
<path d="M802 1019 c-39 -12 -72 -60 -72 -106 0 -47 44 -93 95 -99 111 -14
166 123 75 187 -35 24 -59 29 -98 18z"/>
</g>
</svg>
