<?xml version="1.0" standalone="no"?>
<!DOCTYPE svg PUBLIC "-//W3C//DTD SVG 20010904//EN"
 "http://www.w3.org/TR/2001/REC-SVG-20010904/DTD/svg10.dtd">
<svg version="1.0" xmlns="http://www.w3.org/2000/svg"
 width="192.000000pt" height="192.000000pt" viewBox="0 0 192.000000 192.000000"
 preserveAspectRatio="xMidYMid meet">
<metadata>
Created by potrace 1.16, written by Peter Selinger 2001-2019
</metadata>
<g transform="translate(0.000000,192.000000) scale(0.100000,-0.100000)"
fill="#000000" stroke="none">
811 c445 -92 729 -532 635 -987 -62 -301 -295 -546 -601 -630 -91 -26 -329
-26 -420 0 -291 80 -516 305 -596 596 -26 91 -26 329 0 420 120 433 542 692
982 601z"/>
<path d="M755 1351 c-111 -50 -185 -204 -185 -386 0 -295 167 -457 391 -381
56 19 56 19 85 -1 28 -20 63 -28 111 -25 60 4 133 114 169 252 25 97 17 251
-16 309 -35 62 -71 86 -130 86 -55 0 -84 -20 -107 -73 -15 -36 -12 -53 24
-164 30 -91 26 -133 -16 -180 -23 -26 -37 -32 -82 -36 -48 -4 -59 -1 -86 22
-70 59 -67 144 9 299 60 123 70 185 38 235 -37 60 -127 79 -205 43z"/>
</g>
</svg>
