<?xml version="1.0" standalone="no"?>
<!DOCTYPE svg PUBLIC "-//W3C//DTD SVG 20010904//EN"
 "http://www.w3.org/TR/2001/REC-SVG-20010904/DTD/svg10.dtd">
<svg version="1.0" xmlns="http://www.w3.org/2000/svg"
 width="192.000000pt" height="192.000000pt" viewBox="0 0 192.000000 192.000000"
 preserveAspectRatio="xMidYMid meet">
<metadata>
Created by potrace 1.16, written by Peter Selinger 2001-2019
</metadata>
<g transform="translate(0.000000,192.000000) scale(0.100000,-0.100000)"
fill="#000000" stroke="none">
811 c445 -92 729 -532 635 -987 -62 -301 -295 -546 -601 -630 -91 -26 -329
-26 -420 0 -291 80 -516 305 -596 596 -26 91 -26 329 0 420 120 433 542 692
982 601z"/>
<path d="M1187 1156 c-50 -14 -93 -40 -111 -69 -18 -28 0 -29 39 -3 39 27 94
46 133 46 25 0 62 -32 62 -55 0 -24 -35 -53 -80 -66 -45 -14 -71 -36 -49 -43
8 -2 36 -6 62 -9 92 -9 117 -77 47 -125 -57 -39 -148 -18 -163 37 -8 32 10 61
40 61 22 0 25 2 13 10 -25 16 -69 11 -90 -10 -24 -24 -26 -77 -4 -108 55 -79
224 -72 275 12 28 45 25 108 -7 145 -20 24 -23 34 -15 50 29 54 3 114 -57 131
-43 12 -35 12 -95 -4z"/>
<path d="M751 1106 c-16 -19 2 -30 35 -22 13 4 24 2 24 -3 0 -13 -30 -22 -54
-16 -21 6 -21 6 -2 -9 26 -21 39 -20 60 3 17 18 16 20 -1 40 -20 24 -46 27
-62 7z"/>
<path d="M1180 1103 c-42 -15 -80 -36 -80 -44 0 -5 25 -9 55 -9 30 0 55 -2 55
-5 0 -3 -12 -17 -27 -30 l-28 -25 63 28 c64 27 83 52 62 77 -12 15 -70 19
-100 8z"/>
<path d="M532 1057 c-13 -16 7 -76 42 -122 37 -49 86 -60 144 -35 25 11 52 20
61 20 9 0 36 -20 60 -44 51 -52 80 -62 120 -42 50 27 136 156 115 175 -4 3 -9
-1 -12 -9 -3 -8 -22 -32 -42 -52 -55 -56 -86 -53 -159 17 -32 30 -64 55 -72
55 -8 0 -36 -12 -63 -26 -42 -22 -52 -24 -77 -13 -16 6 -41 26 -55 43 -34 40
-49 49 -62 33z"/>
<path d="M1247 920 c-7 -28 -35 -36 -51 -15 -18 25 -50 15 -54 -17 -6 -54 88
-79 142 -37 30 24 33 49 8 72 -25 22 -39 21 -45 -3z"/>
<path d="M732 889 c-23 -15 -44 -20 -77 -17 -50 4 -56 -3 -23 -26 38 -27 70
-20 113 24 43 44 38 51 -13 19z"/>
</g>
</svg>
