<?xml version="1.0" standalone="no"?>
<!DOCTYPE svg PUBLIC "-//W3C//DTD SVG 20010904//EN"
 "http://www.w3.org/TR/2001/REC-SVG-20010904/DTD/svg10.dtd">
<svg version="1.0" xmlns="http://www.w3.org/2000/svg"
 width="192.000000pt" height="192.000000pt" viewBox="0 0 192.000000 192.000000"
 preserveAspectRatio="xMidYMid meet">
<metadata>
Created by potrace 1.16, written by Peter Selinger 2001-2019
</metadata>
<g transform="translate(0.000000,192.000000) scale(0.100000,-0.100000)"
fill="#000000" stroke="none">
811 c445 -92 729 -532 635 -987 -62 -301 -295 -546 -601 -630 -91 -26 -329
-26 -420 0 -291 80 -516 305 -596 596 -26 91 -26 329 0 420 120 433 542 692
982 601z"/>
<path d="M985 1253 c-39 -27 -75 -60 -82 -74 -27 -55 28 -257 97 -362 l22 -32
-32 35 c-35 38 -100 163 -100 192 0 24 -16 30 -31 12 -11 -14 -18 -9 -59 35
l-47 51 -102 0 c-80 0 -103 -3 -107 -15 -4 -9 27 -52 83 -115 48 -55 88 -105
88 -110 0 -5 -40 -55 -88 -110 -55 -62 -87 -107 -83 -116 4 -11 28 -14 108
-14 l102 0 46 50 46 50 46 -50 45 -50 102 0 c82 0 103 3 108 15 3 9 -1 23 -10
33 -25 29 -47 80 -41 96 5 13 23 16 86 16 75 0 81 2 106 29 38 42 86 136 79
155 -5 14 -27 16 -146 16 l-140 0 -3 152 c-2 94 -7 153 -13 155 -6 2 -42 -18
-80 -44z"/>
</g>
</svg>
