<?xml version="1.0" standalone="no"?>
<!DOCTYPE svg PUBLIC "-//W3C//DTD SVG 20010904//EN"
 "http://www.w3.org/TR/2001/REC-SVG-20010904/DTD/svg10.dtd">
<svg version="1.0" xmlns="http://www.w3.org/2000/svg"
 width="192.000000pt" height="192.000000pt" viewBox="0 0 192.000000 192.000000"
 preserveAspectRatio="xMidYMid meet">
<metadata>
Created by potrace 1.16, written by Peter Selinger 2001-2019
</metadata>
<g transform="translate(0.000000,192.000000) scale(0.100000,-0.100000)"
fill="#000000" stroke="none">
811 c445 -92 729 -532 635 -987 -62 -301 -295 -546 -601 -630 -91 -26 -329
-26 -420 0 -291 80 -516 305 -596 596 -26 91 -26 329 0 420 120 433 542 692
982 601z"/>
<path d="M655 1338 c-38 -17 -73 -36 -77 -42 -4 -6 -8 -162 -8 -347 0 -272 3
-339 14 -348 14 -12 102 -41 124 -41 9 0 12 72 12 328 0 206 4 332 10 338 11
11 496 -35 518 -49 9 -6 12 -55 12 -188 0 -177 0 -180 -22 -189 -13 -5 -117
-21 -233 -35 -115 -15 -213 -29 -216 -31 -9 -5 -53 -164 -47 -169 8 -8 602
166 610 179 11 15 10 504 0 510 -5 3 -136 28 -293 56 -156 28 -295 53 -309 55
-15 3 -53 -8 -95 -27z"/>
<path d="M770 1050 c0 -11 10 -40 22 -64 20 -41 20 -49 8 -86 -10 -31 -11 -43
-2 -52 9 -9 15 -9 25 2 22 24 98 200 92 210 -13 20 -36 9 -52 -25 -9 -19 -20
-35 -23 -35 -3 0 -14 16 -23 35 -18 38 -47 47 -47 15z"/>
<path d="M944 1046 c-21 -18 -28 -32 -28 -61 0 -66 64 -103 124 -72 15 8 25
21 25 34 0 12 4 25 8 29 14 15 6 45 -18 69 -31 32 -75 32 -111 1z m81 -26 c4
-6 -7 -10 -24 -10 -17 0 -31 5 -31 10 0 6 11 10 24 10 14 0 28 -4 31 -10z m2
-66 c-20 -11 -32 -12 -47 -4 -30 16 -25 20 28 20 l47 -1 -28 -15z"/>
<path d="M1105 1050 c-26 -29 -13 -66 30 -81 19 -7 35 -17 35 -21 0 -12 -38
-10 -45 2 -12 20 -36 11 -33 -12 4 -32 59 -46 93 -24 38 25 34 62 -10 83 -19
9 -35 21 -35 25 0 5 16 6 35 2 28 -5 35 -3 35 10 0 36 -76 48 -105 16z"/>
</g>
</svg>
