<?xml version="1.0" standalone="no"?>
<!DOCTYPE svg PUBLIC "-//W3C//DTD SVG 20010904//EN"
 "http://www.w3.org/TR/2001/REC-SVG-20010904/DTD/svg10.dtd">
<svg version="1.0" xmlns="http://www.w3.org/2000/svg"
 width="192.000000pt" height="192.000000pt" viewBox="0 0 192.000000 192.000000"
 preserveAspectRatio="xMidYMid meet">
<metadata>
Created by potrace 1.16, written by Peter Selinger 2001-2019
</metadata>
<g transform="translate(0.000000,192.000000) scale(0.100000,-0.100000)"
fill="#000000" stroke="none">
811 c445 -92 729 -532 635 -987 -62 -301 -295 -546 -601 -630 -91 -26 -329
-26 -420 0 -291 80 -516 305 -596 596 -26 91 -26 329 0 420 120 433 542 692
982 601z"/>
<path d="M685 1371 c-44 -11 -70 -27 -99 -61 -40 -48 -52 -99 -35 -157 7 -26
12 -52 10 -58 -47 -151 0 -318 120 -430 83 -76 146 -99 274 -100 89 0 107 3
162 29 79 36 100 58 86 89 -6 13 -131 140 -277 283 -146 142 -266 264 -266
271 0 6 5 15 10 18 6 4 134 -114 286 -262 152 -147 282 -272 290 -276 19 -11
59 31 86 90 19 40 22 66 23 158 0 99 -3 116 -27 168 -57 121 -182 216 -313
236 -56 8 -161 1 -184 -14 -6 -3 -31 1 -56 10 -25 8 -49 15 -53 14 -4 -1 -20
-4 -37 -8z m449 -211 c67 -65 129 -132 139 -148 16 -29 16 -31 -4 -56 -11 -14
-28 -26 -37 -26 -10 0 -60 43 -112 95 -52 52 -101 95 -110 95 -8 0 -24 -7 -34
-15 -25 -19 -55 -19 -62 -2 -5 13 28 145 41 167 3 5 18 10 32 10 20 0 55 -28
147 -120z m-242 -267 c147 -147 159 -169 113 -199 -36 -23 -58 -10 -146 88
-75 83 -108 101 -138 74 -22 -20 -50 -21 -57 -1 -7 17 23 144 38 163 25 30 54
10 190 -125z"/>
</g>
</svg>
