<?xml version="1.0" standalone="no"?>
<!DOCTYPE svg PUBLIC "-//W3C//DTD SVG 20010904//EN"
 "http://www.w3.org/TR/2001/REC-SVG-20010904/DTD/svg10.dtd">
<svg version="1.0" xmlns="http://www.w3.org/2000/svg"
 width="192.000000pt" height="192.000000pt" viewBox="0 0 192.000000 192.000000"
 preserveAspectRatio="xMidYMid meet">
<metadata>
Created by potrace 1.16, written by Peter Selinger 2001-2019
</metadata>
<g transform="translate(0.000000,192.000000) scale(0.100000,-0.100000)"
fill="#000000" stroke="none">
811 c445 -92 729 -532 635 -987 -62 -301 -295 -546 -601 -630 -91 -26 -329
-26 -420 0 -291 80 -516 305 -596 596 -26 91 -26 329 0 420 120 433 542 692
982 601z"/>
<path d="M730 1360 c-24 -24 -25 -38 -4 -68 15 -22 19 -22 228 -22 194 0 214
2 229 18 23 26 21 58 -5 76 -19 13 -58 16 -225 16 -190 0 -204 -1 -223 -20z"/>
<path d="M730 1190 c-19 -19 -20 -33 -20 -223 0 -188 1 -205 19 -221 27 -25
72 -17 88 14 8 15 13 67 13 135 l0 110 103 -101 c166 -163 195 -186 220 -179
44 14 47 28 47 242 0 190 -1 204 -20 223 -11 11 -29 20 -40 20 -11 0 -29 -9
-40 -20 -18 -18 -20 -33 -20 -142 l0 -122 -143 142 c-150 149 -169 160 -207
122z"/>
<path d="M727 642 c-21 -23 -22 -46 -1 -66 13 -14 49 -16 234 -16 207 0 220 1
230 19 14 27 13 47 -6 65 -13 14 -48 16 -228 16 -194 0 -214 -2 -229 -18z"/>
</g>
</svg>
