<?xml version="1.0" standalone="no"?>
<!DOCTYPE svg PUBLIC "-//W3C//DTD SVG 20010904//EN"
 "http://www.w3.org/TR/2001/REC-SVG-20010904/DTD/svg10.dtd">
<svg version="1.0" xmlns="http://www.w3.org/2000/svg"
 width="192.000000pt" height="192.000000pt" viewBox="0 0 192.000000 192.000000"
 preserveAspectRatio="xMidYMid meet">
<metadata>
Created by potrace 1.16, written by Peter Selinger 2001-2019
</metadata>
<g transform="translate(0.000000,192.000000) scale(0.100000,-0.100000)"
fill="#000000" stroke="none">
811 c445 -92 729 -532 635 -987 -62 -301 -295 -546 -601 -630 -91 -26 -329
-26 -420 0 -291 80 -516 305 -596 596 -26 91 -26 329 0 420 120 433 542 692
982 601z"/>
<path d="M728 1360 c-50 -15 -93 -48 -116 -88 -21 -38 -22 -50 -22 -303 0
-297 2 -306 73 -363 35 -28 46 -31 105 -31 61 0 73 4 138 43 l72 43 76 221
c42 121 73 224 70 229 -3 5 -51 9 -107 9 -56 0 -108 4 -115 9 -9 5 -12 25 -10
62 l3 54 55 5 55 5 -78 48 c-43 26 -97 51 -120 57 -48 11 -43 11 -79 0z m147
-296 c48 -22 60 -61 60 -184 l0 -105 -40 0 -40 0 -5 100 c-3 55 -8 105 -12
111 -12 18 -58 26 -74 13 -10 -8 -14 -39 -14 -120 l0 -109 -40 0 -40 0 0 143
c0 98 4 147 12 155 18 18 153 15 193 -4z"/>
<path d="M1030 1246 c0 -5 241 -148 244 -144 1 1 12 29 24 62 32 84 29 86
-134 86 -74 0 -134 -2 -134 -4z"/>
<path d="M1270 1090 c0 -3 -25 -74 -55 -159 -30 -85 -54 -156 -52 -157 8 -8
99 60 123 92 38 49 41 140 7 194 -13 19 -23 33 -23 30z"/>
</g>
</svg>
