<?xml version="1.0" standalone="no"?>
<!DOCTYPE svg PUBLIC "-//W3C//DTD SVG 20010904//EN"
 "http://www.w3.org/TR/2001/REC-SVG-20010904/DTD/svg10.dtd">
<svg version="1.0" xmlns="http://www.w3.org/2000/svg"
 width="192.000000pt" height="192.000000pt" viewBox="0 0 192.000000 192.000000"
 preserveAspectRatio="xMidYMid meet">
<metadata>
Created by potrace 1.16, written by Peter Selinger 2001-2019
</metadata>
<g transform="translate(0.000000,192.000000) scale(0.100000,-0.100000)"
fill="#000000" stroke="none">
811 c445 -92 729 -532 635 -987 -62 -301 -295 -546 -601 -630 -91 -26 -329
-26 -420 0 -291 80 -516 305 -596 596 -26 91 -26 329 0 420 120 433 542 692
982 601z"/>
<path d="M924 1279 c-27 -50 -54 -94 -61 -96 -7 -3 -52 7 -102 21 -49 14 -95
26 -100 26 -18 0 -13 -24 23 -109 19 -44 36 -87 38 -95 2 -8 -33 -41 -82 -78
-47 -34 -84 -67 -83 -73 1 -5 48 -23 104 -40 l102 -30 -2 -112 c-1 -73 2 -113
8 -113 6 0 47 27 92 60 44 33 84 60 87 60 4 0 43 -32 86 -70 43 -39 82 -70 86
-70 8 0 20 101 20 175 l0 52 89 17 c49 9 96 16 104 16 39 0 25 27 -52 99 l-82
76 50 95 c28 52 51 98 51 102 0 4 -8 8 -17 8 -46 0 -65 -16 -110 -86 -25 -41
-48 -74 -50 -74 -3 0 9 26 26 57 34 62 38 83 17 83 -37 0 -66 -23 -105 -84
-24 -36 -45 -66 -48 -66 -2 0 12 28 31 63 l36 63 -44 104 c-24 58 -49 106 -54
108 -6 2 -32 -38 -58 -89z"/>
</g>
</svg>
