<?xml version="1.0" standalone="no"?>
<!DOCTYPE svg PUBLIC "-//W3C//DTD SVG 20010904//EN"
 "http://www.w3.org/TR/2001/REC-SVG-20010904/DTD/svg10.dtd">
<svg version="1.0" xmlns="http://www.w3.org/2000/svg"
 width="192.000000pt" height="192.000000pt" viewBox="0 0 192.000000 192.000000"
 preserveAspectRatio="xMidYMid meet">
<metadata>
Created by potrace 1.16, written by Peter Selinger 2001-2019
</metadata>
<g transform="translate(0.000000,192.000000) scale(0.100000,-0.100000)"
fill="#000000" stroke="none">
811 c445 -92 729 -532 635 -987 -62 -301 -295 -546 -601 -630 -91 -26 -329
-26 -420 0 -291 80 -516 305 -596 596 -26 91 -26 329 0 420 120 433 542 692
982 601z"/>
<path d="M1045 1367 c-16 -7 -40 -18 -53 -25 l-23 -13 21 -36 c11 -20 20 -37
18 -38 -2 -1 -18 -10 -37 -20 -44 -22 -129 -101 -147 -137 -38 -73 -33 -78 21
-20 75 81 149 114 268 120 l87 4 0 40 c0 61 -24 106 -64 123 -41 17 -51 18
-91 2z"/>
<path d="M825 1322 c-18 -11 -45 -46 -64 -82 -40 -75 -51 -166 -31 -251 l13
-54 17 55 c9 30 28 78 42 105 27 53 109 137 153 157 31 14 31 20 2 53 -30 35
-91 43 -132 17z"/>
<path d="M671 1223 c-89 -90 -115 -151 -115 -278 0 -126 26 -189 113 -276 86
-86 150 -113 271 -113 109 0 179 27 254 95 65 59 100 117 121 195 22 84 19
184 -5 169 -5 -3 -26 6 -47 21 -21 14 -49 30 -63 36 -26 10 -110 27 -110 23 0
-2 11 -23 25 -46 14 -25 25 -60 25 -81 l0 -36 -52 -4 c-29 -3 -57 -1 -62 4 -6
4 0 8 12 8 27 0 37 20 28 55 -5 21 -12 25 -42 25 -19 0 -33 -4 -29 -9 3 -5 0
-13 -6 -17 -8 -4 -9 -3 -5 4 4 7 1 12 -6 12 -8 1 -6 6 6 15 21 16 13 35 -14
35 -27 0 -45 -36 -24 -48 13 -7 12 -11 -11 -26 -30 -19 -25 -36 11 -36 16 0
24 -6 24 -17 0 -14 -2 -15 -9 -5 -6 10 -17 11 -42 5 -33 -9 -34 -11 -36 -64
-1 -63 8 -85 31 -76 15 6 22 51 18 107 -1 11 8 16 26 15 16 0 26 5 25 12 -2 8
4 10 14 6 14 -6 14 -8 -3 -20 -10 -8 -18 -18 -17 -23 1 -4 -7 -16 -17 -25 -15
-14 -20 -31 -20 -72 0 -50 -2 -53 -24 -53 -63 0 -151 71 -184 148 -47 109 -46
257 2 355 12 26 19 47 13 47 -5 0 -39 -30 -76 -67z m469 -312 c0 -4 -5 -22
-11 -40 -10 -27 -15 -31 -49 -31 -34 0 -37 2 -34 25 1 14 8 32 14 40 13 16 80
21 80 6z m-121 -77 c10 -24 15 -25 49 -19 37 7 37 7 18 -14 -20 -22 -94 -61
-115 -61 -16 0 -5 101 13 112 18 12 22 10 35 -18z"/>
<path d="M1218 1222 l4 -40 -99 -4 c-82 -3 -108 -8 -160 -32 -34 -15 -71 -38
-83 -51 l-21 -22 58 20 c83 29 221 29 286 -1 26 -12 60 -31 74 -42 l26 -21 29
48 c36 62 36 104 0 144 -21 23 -39 32 -73 36 l-45 5 4 -40z"/>
<path d="M840 933 c-40 -7 -48 -23 -13 -23 22 0 33 -6 36 -17 3 -10 5 -3 6 15
0 17 0 31 -1 31 -2 -1 -14 -4 -28 -6z"/>
</g>
</svg>
