<?xml version="1.0" standalone="no"?>
<!DOCTYPE svg PUBLIC "-//W3C//DTD SVG 20010904//EN"
 "http://www.w3.org/TR/2001/REC-SVG-20010904/DTD/svg10.dtd">
<svg version="1.0" xmlns="http://www.w3.org/2000/svg"
 width="192.000000pt" height="192.000000pt" viewBox="0 0 192.000000 192.000000"
 preserveAspectRatio="xMidYMid meet">
<metadata>
Created by potrace 1.16, written by Peter Selinger 2001-2019
</metadata>
<g transform="translate(0.000000,192.000000) scale(0.100000,-0.100000)"
fill="#000000" stroke="none">
811 c445 -92 729 -532 635 -987 -62 -301 -295 -546 -601 -630 -91 -26 -329
-26 -420 0 -291 80 -516 305 -596 596 -26 91 -26 329 0 420 120 433 542 692
982 601z"/>
<path d="M1111 1349 c-258 -23 -442 -115 -518 -261 -24 -47 -28 -64 -28 -143
0 -74 4 -97 22 -132 l23 -42 -20 -43 c-37 -82 -17 -158 43 -158 29 0 51 23 72
74 12 29 20 36 33 31 41 -16 131 -26 177 -20 67 8 127 38 169 85 49 54 72 104
102 218 31 113 66 188 123 256 49 58 53 95 15 125 -29 23 -53 24 -213 10z
m-210 -209 c13 -7 19 -21 19 -45 0 -51 -53 -73 -92 -38 -50 45 11 116 73 83z
m136 -136 c15 -24 15 -29 2 -53 -21 -37 -72 -41 -94 -8 -25 39 0 87 46 87 20
0 34 -8 46 -26z m-172 -29 c14 -13 25 -31 25 -40 0 -21 -36 -55 -60 -55 -24 0
-60 34 -60 55 0 18 44 65 60 65 6 0 22 -11 35 -25z"/>
</g>
</svg>
