<?xml version="1.0" standalone="no"?>
<!DOCTYPE svg PUBLIC "-//W3C//DTD SVG 20010904//EN"
 "http://www.w3.org/TR/2001/REC-SVG-20010904/DTD/svg10.dtd">
<svg version="1.0" xmlns="http://www.w3.org/2000/svg"
 width="192.000000pt" height="192.000000pt" viewBox="0 0 192.000000 192.000000"
 preserveAspectRatio="xMidYMid meet">
<metadata>
Created by potrace 1.16, written by Peter Selinger 2001-2019
</metadata>
<g transform="translate(0.000000,192.000000) scale(0.100000,-0.100000)"
fill="#000000" stroke="none">
811 c445 -92 729 -532 635 -987 -62 -301 -295 -546 -601 -630 -91 -26 -329
-26 -420 0 -291 80 -516 305 -596 596 -26 91 -26 329 0 420 120 433 542 692
982 601z"/>
<path d="M877 1360 c-49 -13 -114 -46 -156 -81 -26 -21 -41 -27 -63 -22 -41 8
-58 -11 -58 -67 0 -35 -5 -52 -21 -66 -32 -29 -49 -69 -49 -114 0 -47 23 -104
50 -123 9 -7 24 -37 33 -67 31 -105 102 -186 204 -232 38 -18 67 -22 138 -23
82 0 96 3 157 33 98 48 171 139 193 240 3 17 19 45 35 60 59 60 60 155 1 216
-25 25 -30 41 -33 86 l-3 55 -40 0 c-31 0 -51 8 -83 34 -79 62 -214 94 -305
71z m169 -75 c27 -8 63 -26 79 -39 26 -21 28 -25 13 -31 -10 -4 -39 0 -65 9
-59 20 -177 21 -233 1 -43 -15 -85 -12 -74 6 6 11 79 49 114 60 41 12 113 10
166 -6z m-301 -131 l48 -25 48 20 c65 29 164 28 230 0 l50 -22 48 27 c27 14
54 26 61 26 9 0 11 -43 8 -172 -3 -155 -5 -177 -25 -214 -34 -63 -66 -97 -125
-129 -46 -26 -63 -30 -128 -30 -89 0 -148 23 -205 80 -68 69 -79 107 -83 298
-5 189 -7 184 73 141z"/>
<path d="M740 934 c0 -8 13 -29 29 -45 27 -26 36 -29 95 -29 71 0 75 4 51 49
-18 36 -32 41 -111 41 -52 0 -64 -3 -64 -16z"/>
<path d="M1022 943 c-13 -5 -42 -55 -42 -73 0 -6 27 -10 69 -10 60 0 71 3 95
26 14 15 26 35 26 45 0 17 -8 19 -67 18 -38 0 -74 -3 -81 -6z"/>
<path d="M895 811 c-7 -13 34 -41 60 -41 26 0 67 28 60 41 -4 5 -30 9 -60 9
-30 0 -56 -4 -60 -9z"/>
<path d="M882 731 c7 -37 139 -38 146 0 2 13 -9 16 -73 16 -63 0 -75 -3 -73
-16z"/>
</g>
</svg>
