<?xml version="1.0" standalone="no"?>
<!DOCTYPE svg PUBLIC "-//W3C//DTD SVG 20010904//EN"
 "http://www.w3.org/TR/2001/REC-SVG-20010904/DTD/svg10.dtd">
<svg version="1.0" xmlns="http://www.w3.org/2000/svg"
 width="192.000000pt" height="192.000000pt" viewBox="0 0 192.000000 192.000000"
 preserveAspectRatio="xMidYMid meet">
<metadata>
Created by potrace 1.16, written by Peter Selinger 2001-2019
</metadata>
<g transform="translate(0.000000,192.000000) scale(0.100000,-0.100000)"
fill="#000000" stroke="none">
811 c445 -92 729 -532 635 -987 -62 -301 -295 -546 -601 -630 -91 -26 -329
-26 -420 0 -291 80 -516 305 -596 596 -26 91 -26 329 0 420 120 433 542 692
982 601z"/>
<path d="M715 1328 c-49 -18 -84 -47 -108 -91 -21 -40 -22 -53 -22 -272 0
-219 1 -232 22 -272 49 -90 93 -103 352 -103 227 0 257 7 313 66 44 48 48 72
48 309 0 237 -4 261 -48 309 -56 60 -85 66 -317 65 -121 0 -223 -5 -240 -11z
m399 -148 c42 -16 34 -60 -39 -215 -36 -75 -65 -139 -65 -141 0 -2 27 -4 59
-4 75 0 91 -6 91 -36 0 -36 -31 -46 -131 -42 -135 5 -137 14 -40 221 l69 147
-63 0 c-42 0 -66 5 -75 15 -15 18 -4 52 18 58 33 9 151 7 176 -3z m-217 -155
c3 -9 -14 -59 -38 -112 -24 -53 -45 -100 -47 -104 -2 -5 9 -9 25 -9 16 0 38
-7 49 -15 19 -15 19 -15 0 -30 -20 -15 -91 -20 -120 -9 -26 10 -18 52 28 150
l45 94 -38 0 c-39 0 -68 20 -56 40 3 5 38 10 76 10 54 0 71 -4 76 -15z"/>
</g>
</svg>
