<?xml version="1.0" standalone="no"?>
<!DOCTYPE svg PUBLIC "-//W3C//DTD SVG 20010904//EN"
 "http://www.w3.org/TR/2001/REC-SVG-20010904/DTD/svg10.dtd">
<svg version="1.0" xmlns="http://www.w3.org/2000/svg"
 width="192.000000pt" height="192.000000pt" viewBox="0 0 192.000000 192.000000"
 preserveAspectRatio="xMidYMid meet">
<metadata>
Created by potrace 1.16, written by Peter Selinger 2001-2019
</metadata>
<g transform="translate(0.000000,192.000000) scale(0.100000,-0.100000)"
fill="#000000" stroke="none">
811 c445 -92 729 -532 635 -987 -62 -301 -295 -546 -601 -630 -91 -26 -329
-26 -420 0 -291 80 -516 305 -596 596 -26 91 -26 329 0 420 120 433 542 692
982 601z"/>
<path d="M813 1328 c-37 -48 -114 -200 -111 -220 3 -22 6 -23 120 -26 l117 -3
51 -89 c51 -89 76 -115 97 -102 21 13 123 199 123 223 0 13 -26 69 -58 124
l-58 100 -136 3 c-100 2 -138 -1 -145 -10z"/>
<path d="M653 1043 c-19 -13 -123 -201 -123 -223 0 -22 104 -209 124 -223 6
-4 67 -6 135 -5 161 4 162 5 93 124 -29 50 -52 96 -52 104 0 8 23 54 51 104
68 120 68 120 -92 124 -68 1 -129 -1 -136 -5z"/>
<path d="M1218 1037 c-7 -8 -35 -53 -63 -100 l-49 -87 -113 0 c-159 0 -159 2
-51 -180 l44 -75 129 -3 c72 -1 135 1 142 5 19 13 123 201 123 223 0 12 -25
65 -56 118 -66 115 -78 126 -106 99z"/>
</g>
</svg>
