<?xml version="1.0" standalone="no"?>
<!DOCTYPE svg PUBLIC "-//W3C//DTD SVG 20010904//EN"
 "http://www.w3.org/TR/2001/REC-SVG-20010904/DTD/svg10.dtd">
<svg version="1.0" xmlns="http://www.w3.org/2000/svg"
 width="192.000000pt" height="192.000000pt" viewBox="0 0 192.000000 192.000000"
 preserveAspectRatio="xMidYMid meet">
<metadata>
Created by potrace 1.16, written by Peter Selinger 2001-2019
</metadata>
<g transform="translate(0.000000,192.000000) scale(0.100000,-0.100000)"
fill="#000000" stroke="none">
811 c445 -92 729 -532 635 -987 -62 -301 -295 -546 -601 -630 -91 -26 -329
-26 -420 0 -291 80 -516 305 -596 596 -26 91 -26 329 0 420 120 433 542 692
982 601z"/>
<path d="M900 1373 c-14 -2 -42 -9 -64 -14 -34 -9 -36 -12 -20 -23 9 -7 14
-18 10 -25 -4 -7 -2 -10 5 -9 22 5 21 -27 -1 -55 -32 -40 -91 -38 -122 3 l-22
30 -28 -27 c-117 -112 -151 -305 -80 -456 40 -87 112 -159 200 -200 62 -30 75
-32 172 -32 68 0 117 5 139 14 l33 14 -85 28 c-117 38 -201 82 -251 133 -97
96 -129 203 -87 290 42 86 178 181 329 231 81 26 87 6 13 -39 -93 -57 -165
-128 -191 -188 -25 -58 -23 -101 6 -164 27 -59 139 -163 233 -216 80 -44 82
-47 60 -59 -23 -12 -23 -12 -4 -20 30 -11 95 -10 95 2 0 5 -13 15 -29 20 l-28
10 57 54 c132 127 164 309 83 474 -54 112 -176 200 -304 221 -66 10 -76 10
-119 3z"/>
</g>
</svg>
