<?xml version="1.0" standalone="no"?>
<!DOCTYPE svg PUBLIC "-//W3C//DTD SVG 20010904//EN"
 "http://www.w3.org/TR/2001/REC-SVG-20010904/DTD/svg10.dtd">
<svg version="1.0" xmlns="http://www.w3.org/2000/svg"
 width="192.000000pt" height="192.000000pt" viewBox="0 0 192.000000 192.000000"
 preserveAspectRatio="xMidYMid meet">
<metadata>
Created by potrace 1.16, written by Peter Selinger 2001-2019
</metadata>
<g transform="translate(0.000000,192.000000) scale(0.100000,-0.100000)"
fill="#000000" stroke="none">
811 c445 -92 729 -532 635 -987 -62 -301 -295 -546 -601 -630 -91 -26 -329
-26 -420 0 -291 80 -516 305 -596 596 -26 91 -26 329 0 420 120 433 542 692
982 601z"/>
<path d="M905 1348 c-11 -6 -31 -21 -45 -33 -20 -18 -41 -24 -99 -28 -68 -4
-77 -7 -103 -36 -24 -27 -28 -40 -28 -90 0 -52 -3 -61 -25 -75 -58 -38 -65
-65 -65 -254 0 -196 7 -224 65 -248 50 -21 640 -21 690 0 58 24 65 52 65 248
0 189 -7 216 -65 254 -22 14 -25 23 -25 75 0 50 -4 63 -28 90 -26 29 -35 32
-103 36 -58 4 -79 10 -99 28 -50 45 -94 56 -135 33z m293 -130 c8 -8 12 -53
12 -135 l0 -122 -62 -50 -61 -50 -37 29 c-76 60 -119 61 -193 5 l-44 -34 -61
50 -62 50 0 122 c0 82 4 127 12 135 17 17 479 17 496 0z"/>
<path d="M877 1163 c-4 -3 -7 -42 -7 -85 0 -62 3 -80 15 -85 22 -8 28 1 34 50
l6 42 30 -48 c22 -34 36 -47 50 -45 18 3 20 11 20 88 0 72 -3 85 -17 88 -14 3
-17 -6 -20 -50 l-3 -53 -35 52 c-32 48 -56 63 -73 46z"/>
</g>
</svg>
