<?xml version="1.0" standalone="no"?>
<!DOCTYPE svg PUBLIC "-//W3C//DTD SVG 20010904//EN"
 "http://www.w3.org/TR/2001/REC-SVG-20010904/DTD/svg10.dtd">
<svg version="1.0" xmlns="http://www.w3.org/2000/svg"
 width="192.000000pt" height="192.000000pt" viewBox="0 0 192.000000 192.000000"
 preserveAspectRatio="xMidYMid meet">
<metadata>
Created by potrace 1.16, written by Peter Selinger 2001-2019
</metadata>
<g transform="translate(0.000000,192.000000) scale(0.100000,-0.100000)"
fill="#000000" stroke="none">
811 c445 -92 729 -532 635 -987 -62 -301 -295 -546 -601 -630 -91 -26 -329
-26 -420 0 -291 80 -516 305 -596 596 -26 91 -26 329 0 420 120 433 542 692
982 601z"/>
<path d="M587 1344 c-4 -4 -7 -103 -7 -220 0 -184 2 -213 16 -218 9 -3 74 -6
145 -6 l129 0 0 -147 c0 -82 4 -154 8 -161 7 -9 59 -12 228 -10 l219 3 3 209
c2 145 -1 213 -9 222 -9 11 -45 14 -150 14 l-138 0 -3 158 -3 157 -216 3
c-118 1 -218 -1 -222 -4z m383 -184 c0 -128 0 -130 -22 -129 -19 0 -32 19 -73
102 -65 133 -74 134 -137 10 -28 -52 -45 -98 -42 -107 8 -20 38 -21 54 -1 16
20 88 20 110 0 11 -10 15 -25 12 -45 l-4 -30 -114 0 -114 0 0 165 0 165 165 0
165 0 0 -130z m-156 -35 c3 -9 0 -15 -9 -15 -9 0 -12 6 -9 15 4 8 7 15 9 15 2
0 5 -7 9 -15z m314 -217 c3 -25 7 -27 55 -30 48 -3 52 -5 52 -28 0 -17 -6 -26
-20 -28 -16 -2 -65 -59 -65 -76 0 -2 13 -9 30 -16 37 -16 52 -33 44 -54 -9
-22 -32 -20 -81 8 l-42 24 -50 -26 c-47 -25 -51 -26 -67 -10 -14 14 -15 20 -4
32 7 9 18 16 24 16 6 0 20 7 30 15 19 14 18 15 -5 49 -13 20 -33 37 -44 38
-14 2 -20 11 -20 28 0 23 4 25 53 28 47 3 52 5 52 26 0 29 9 38 35 34 13 -2
21 -12 23 -30z"/>
<path d="M1080 816 c0 -2 6 -9 14 -15 10 -9 15 -8 20 4 4 10 -1 15 -14 15 -11
0 -20 -2 -20 -4z"/>
<path d="M1080 1275 c-19 -23 -5 -43 32 -47 l33 -3 5 -75 c5 -69 7 -75 28 -78
26 -4 102 65 102 92 0 22 -28 32 -51 17 -17 -10 -19 -8 -19 24 0 48 -36 85
-83 85 -19 0 -40 -7 -47 -15z"/>
<path d="M661 815 c-47 -51 -47 -80 0 -73 25 4 29 1 29 -20 0 -36 51 -82 93
-82 42 0 66 23 47 45 -7 8 -25 15 -40 15 -34 0 -40 14 -40 96 0 61 -1 64 -24
64 -15 0 -38 -16 -65 -45z"/>
</g>
</svg>
