<?xml version="1.0" standalone="no"?>
<!DOCTYPE svg PUBLIC "-//W3C//DTD SVG 20010904//EN"
 "http://www.w3.org/TR/2001/REC-SVG-20010904/DTD/svg10.dtd">
<svg version="1.0" xmlns="http://www.w3.org/2000/svg"
 width="192.000000pt" height="192.000000pt" viewBox="0 0 192.000000 192.000000"
 preserveAspectRatio="xMidYMid meet">
<metadata>
Created by potrace 1.16, written by Peter Selinger 2001-2019
</metadata>
<g transform="translate(0.000000,192.000000) scale(0.100000,-0.100000)"
fill="#000000" stroke="none">
811 c445 -92 729 -532 635 -987 -62 -301 -295 -546 -601 -630 -91 -26 -329
-26 -420 0 -291 80 -516 305 -596 596 -26 91 -26 329 0 420 120 433 542 692
982 601z"/>
<path d="M725 1331 c-45 -11 -69 -27 -103 -65 -48 -54 -54 -95 -50 -325 3
-192 5 -209 26 -248 12 -24 41 -55 64 -70 l41 -28 226 -3 c244 -4 279 1 332
45 62 53 69 83 69 329 0 212 -1 223 -23 265 -16 29 -40 54 -72 74 l-48 30
-216 2 c-119 1 -229 -2 -246 -6z m246 -293 c13 -20 11 -142 -3 -156 -18 -18
-94 -15 -112 4 -11 11 -16 34 -16 77 0 65 5 80 30 90 24 10 92 0 101 -15z
m-224 -40 l28 -53 3 53 c2 37 7 52 18 52 11 0 14 -18 14 -90 0 -108 -14 -117
-57 -38 l-28 52 -3 -52 c-3 -44 -6 -52 -23 -52 -17 0 -19 7 -19 90 0 83 2 90
20 90 14 0 28 -16 47 -52z m303 -5 l13 -58 15 58 c11 43 19 57 32 57 14 0 21
-13 31 -56 13 -60 22 -56 34 14 5 32 11 42 26 42 23 0 22 7 4 -77 -23 -100
-25 -103 -45 -103 -13 0 -22 11 -29 38 -6 20 -11 43 -11 51 0 25 -15 1 -25
-42 -8 -31 -16 -43 -33 -45 -16 -3 -23 3 -28 25 -3 15 -12 53 -20 84 -18 71
-18 69 4 69 15 0 22 -13 32 -57z"/>
<path d="M892 1022 c-9 -6 -12 -27 -10 -63 3 -51 5 -54 31 -57 l28 -3 -3 63
c-3 64 -15 80 -46 60z"/>
</g>
</svg>
