<?xml version="1.0" standalone="no"?>
<!DOCTYPE svg PUBLIC "-//W3C//DTD SVG 20010904//EN"
 "http://www.w3.org/TR/2001/REC-SVG-20010904/DTD/svg10.dtd">
<svg version="1.0" xmlns="http://www.w3.org/2000/svg"
 width="192.000000pt" height="192.000000pt" viewBox="0 0 192.000000 192.000000"
 preserveAspectRatio="xMidYMid meet">
<metadata>
Created by potrace 1.16, written by Peter Selinger 2001-2019
</metadata>
<g transform="translate(0.000000,192.000000) scale(0.100000,-0.100000)"
fill="#000000" stroke="none">
811 c445 -92 729 -532 635 -987 -62 -301 -295 -546 -601 -630 -91 -26 -329
-26 -420 0 -291 80 -516 305 -596 596 -26 91 -26 329 0 420 120 433 542 692
982 601z"/>
<path d="M776 1344 c-13 -12 -16 -40 -16 -147 1 -81 6 -142 13 -159 13 -30
157 -148 179 -148 23 0 175 128 182 153 3 12 6 84 6 159 0 126 -2 138 -19 148
-11 6 -87 10 -175 10 -127 0 -157 -3 -170 -16z m174 -117 l35 -52 3 53 c3 44
6 53 20 50 14 -3 17 -16 17 -88 0 -77 -2 -85 -20 -88 -14 -2 -28 11 -50 45
l-30 48 -5 -45 c-4 -37 -9 -45 -25 -45 -18 0 -20 8 -23 65 -6 124 20 144 78
57z"/>
<path d="M622 968 c-17 -17 -15 -63 4 -82 17 -17 61 -21 82 -7 9 5 12 24 10
52 -3 44 -3 44 -43 47 -23 2 -46 -3 -53 -10z"/>
<path d="M1187 974 c-12 -12 -8 -79 5 -92 17 -17 73 -15 87 2 7 8 11 32 9 53
-3 37 -4 38 -48 41 -25 2 -49 0 -53 -4z"/>
<path d="M622 818 c-17 -17 -15 -63 4 -82 17 -17 61 -21 82 -7 9 5 12 24 10
52 -3 44 -3 44 -43 47 -23 2 -46 -3 -53 -10z"/>
<path d="M762 818 c-17 -17 -15 -64 4 -82 8 -9 28 -16 44 -16 16 0 36 7 44 16
19 18 21 65 4 82 -16 16 -80 16 -96 0z"/>
<path d="M907 823 c-4 -3 -7 -26 -7 -49 0 -38 3 -44 25 -50 14 -3 36 -3 50 0
28 7 41 41 31 81 -6 22 -12 25 -50 25 -23 0 -46 -3 -49 -7z"/>
<path d="M1047 823 c-12 -11 -8 -78 5 -91 31 -31 98 -5 98 38 0 50 -9 60 -54
60 -24 0 -46 -3 -49 -7z"/>
<path d="M1187 824 c-12 -12 -8 -79 5 -92 17 -17 73 -15 87 2 7 8 11 32 9 53
-3 37 -4 38 -48 41 -25 2 -49 0 -53 -4z"/>
<path d="M722 668 c-20 -20 -14 -65 10 -82 18 -13 57 -16 216 -16 113 0 201 4
212 10 34 18 44 48 25 76 l-15 24 -218 0 c-156 0 -221 -3 -230 -12z"/>
</g>
</svg>
