<?xml version="1.0" standalone="no"?>
<!DOCTYPE svg PUBLIC "-//W3C//DTD SVG 20010904//EN"
 "http://www.w3.org/TR/2001/REC-SVG-20010904/DTD/svg10.dtd">
<svg version="1.0" xmlns="http://www.w3.org/2000/svg"
 width="192.000000pt" height="192.000000pt" viewBox="0 0 192.000000 192.000000"
 preserveAspectRatio="xMidYMid meet">
<metadata>
Created by potrace 1.16, written by Peter Selinger 2001-2019
</metadata>
<g transform="translate(0.000000,192.000000) scale(0.100000,-0.100000)"
fill="#000000" stroke="none">
811 c445 -92 729 -532 635 -987 -62 -301 -295 -546 -601 -630 -91 -26 -329
-26 -420 0 -291 80 -516 305 -596 596 -26 91 -26 329 0 420 120 433 542 692
982 601z"/>
<path d="M780 1275 c-80 -47 -153 -94 -162 -106 -16 -18 -18 -44 -18 -198 1
-125 4 -183 14 -199 13 -25 309 -202 337 -202 22 0 310 166 332 191 15 19 17
44 17 203 0 144 -3 186 -15 203 -20 29 -306 193 -336 193 -13 -1 -89 -39 -169
-85z m303 -181 c16 -10 11 -16 -50 -50 -37 -22 -71 -40 -75 -42 -4 -2 -42 15
-84 38 l-76 42 30 18 c16 10 51 30 78 44 l48 25 55 -31 c31 -17 64 -37 74 -44z
m-229 -101 l66 -38 0 -88 0 -87 -48 27 c-101 58 -96 52 -100 142 -3 50 0 81 6
81 5 0 40 -17 76 -37z m276 -43 l0 -80 -52 -34 c-29 -18 -63 -38 -75 -45 l-23
-12 0 88 0 88 68 37 c37 21 70 38 75 38 4 0 7 -36 7 -80z"/>
</g>
</svg>
