<?xml version="1.0" standalone="no"?>
<!DOCTYPE svg PUBLIC "-//W3C//DTD SVG 20010904//EN"
 "http://www.w3.org/TR/2001/REC-SVG-20010904/DTD/svg10.dtd">
<svg version="1.0" xmlns="http://www.w3.org/2000/svg"
 width="192.000000pt" height="192.000000pt" viewBox="0 0 192.000000 192.000000"
 preserveAspectRatio="xMidYMid meet">
<metadata>
Created by potrace 1.16, written by Peter Selinger 2001-2019
</metadata>
<g transform="translate(0.000000,192.000000) scale(0.100000,-0.100000)"
fill="#000000" stroke="none">
811 c445 -92 729 -532 635 -987 -62 -301 -295 -546 -601 -630 -91 -26 -329
-26 -420 0 -291 80 -516 305 -596 596 -26 91 -26 329 0 420 120 433 542 692
982 601z"/>
<path d="M948 1346 c-63 -17 -113 -52 -148 -104 -16 -24 -30 -48 -32 -53 -2
-5 -30 -16 -62 -24 -77 -20 -134 -53 -152 -87 -20 -38 -18 -199 2 -268 39
-131 139 -213 285 -235 105 -16 250 52 314 148 20 30 59 66 98 92 88 59 107
86 107 147 0 29 -7 62 -17 79 -21 35 -91 72 -130 68 -16 -2 -53 9 -85 25 -55
27 -56 28 -46 57 5 16 11 59 11 96 l2 68 -50 2 c-27 1 -71 -4 -97 -11z m-201
-293 l-2 -48 38 -3 c62 -5 144 17 199 54 34 23 59 33 72 30 30 -8 86 -44 86
-56 0 -17 -43 -39 -110 -56 -123 -31 -371 -6 -411 42 -9 11 -8 18 6 34 15 17
86 46 117 49 5 1 7 -20 5 -46z m532 -39 c37 -47 23 -89 -41 -129 l-28 -17 0
86 c0 84 0 86 24 86 15 0 33 -11 45 -26z"/>
</g>
</svg>
