<?xml version="1.0" standalone="no"?>
<!DOCTYPE svg PUBLIC "-//W3C//DTD SVG 20010904//EN"
 "http://www.w3.org/TR/2001/REC-SVG-20010904/DTD/svg10.dtd">
<svg version="1.0" xmlns="http://www.w3.org/2000/svg"
 width="192.000000pt" height="192.000000pt" viewBox="0 0 192.000000 192.000000"
 preserveAspectRatio="xMidYMid meet">
<metadata>
Created by potrace 1.16, written by Peter Selinger 2001-2019
</metadata>
<g transform="translate(0.000000,192.000000) scale(0.100000,-0.100000)"
fill="#000000" stroke="none">
811 c445 -92 729 -532 635 -987 -62 -301 -295 -546 -601 -630 -91 -26 -329
-26 -420 0 -291 80 -516 305 -596 596 -26 91 -26 329 0 420 120 433 542 692
982 601z"/>
<path d="M643 1300 c-37 -22 -59 -80 -42 -111 9 -18 29 -19 348 -19 376 0 369
-1 357 64 -4 21 -19 45 -37 60 l-31 26 -281 0 c-262 0 -284 -1 -314 -20z"/>
<path d="M610 1100 c-19 -19 -20 -33 -20 -197 0 -206 8 -246 53 -273 30 -19
52 -20 314 -20 l283 0 32 29 33 29 3 207 c3 184 1 209 -14 226 -16 18 -36 19
-341 19 -310 0 -324 -1 -343 -20z m318 -132 c6 -7 10 -52 11 -100 0 -99 -7
-108 -74 -108 -49 0 -75 16 -75 45 0 21 5 25 29 25 17 0 33 -5 37 -11 4 -7 10
-7 16 -1 13 13 2 32 -18 32 -8 0 -14 10 -14 25 0 18 5 25 20 25 11 0 20 7 20
15 0 17 -16 20 -25 5 -3 -5 -19 -10 -36 -10 -24 0 -29 4 -29 23 0 13 5 28 12
35 16 16 113 16 126 0z m152 -67 c0 -71 2 -79 21 -84 15 -4 20 -12 17 -29 -3
-22 -7 -23 -73 -23 -69 0 -70 0 -73 28 -3 22 1 27 17 27 18 0 21 6 21 50 0 44
-3 50 -21 50 -14 0 -19 5 -17 17 4 22 44 43 81 43 l27 0 0 -79z"/>
</g>
</svg>
