<?xml version="1.0" standalone="no"?>
<!DOCTYPE svg PUBLIC "-//W3C//DTD SVG 20010904//EN"
 "http://www.w3.org/TR/2001/REC-SVG-20010904/DTD/svg10.dtd">
<svg version="1.0" xmlns="http://www.w3.org/2000/svg"
 width="192.000000pt" height="192.000000pt" viewBox="0 0 192.000000 192.000000"
 preserveAspectRatio="xMidYMid meet">
<metadata>
Created by potrace 1.16, written by Peter Selinger 2001-2019
</metadata>
<g transform="translate(0.000000,192.000000) scale(0.100000,-0.100000)"
fill="#000000" stroke="none">
811 c445 -92 729 -532 635 -987 -62 -301 -295 -546 -601 -630 -91 -26 -329
-26 -420 0 -291 80 -516 305 -596 596 -26 91 -26 329 0 420 120 433 542 692
982 601z"/>
<path d="M956 1345 c-41 -21 -55 -44 -56 -87 0 -25 8 -46 26 -67 24 -29 28
-30 122 -33 l97 -3 5 -98 c5 -93 7 -100 33 -123 30 -26 83 -32 118 -14 40 22
49 61 49 215 0 165 -9 196 -61 214 -50 17 -298 14 -333 -4z"/>
<path d="M610 1097 c-45 -22 -50 -48 -50 -250 0 -213 6 -238 67 -263 43 -19
93 -5 123 33 18 23 20 40 20 159 l0 134 65 0 65 0 0 -134 c0 -129 1 -136 25
-164 48 -58 142 -46 170 22 23 54 21 261 -2 302 -19 34 -134 144 -170 163 -31
16 -280 15 -313 -2z"/>
</g>
</svg>
