<?xml version="1.0" standalone="no"?>
<!DOCTYPE svg PUBLIC "-//W3C//DTD SVG 20010904//EN"
 "http://www.w3.org/TR/2001/REC-SVG-20010904/DTD/svg10.dtd">
<svg version="1.0" xmlns="http://www.w3.org/2000/svg"
 width="192.000000pt" height="192.000000pt" viewBox="0 0 192.000000 192.000000"
 preserveAspectRatio="xMidYMid meet">
<metadata>
Created by potrace 1.16, written by Peter Selinger 2001-2019
</metadata>
<g transform="translate(0.000000,192.000000) scale(0.100000,-0.100000)"
fill="#000000" stroke="none">
811 c445 -92 729 -532 635 -987 -62 -301 -295 -546 -601 -630 -91 -26 -329
-26 -420 0 -291 80 -516 305 -596 596 -26 91 -26 329 0 420 120 433 542 692
982 601z"/>
<path d="M707 1326 c-48 -18 -83 -50 -108 -98 -17 -33 -19 -61 -19 -263 0
-251 5 -274 70 -328 50 -43 94 -49 329 -45 207 3 218 4 254 27 21 13 50 42 65
64 l27 41 0 240 c0 236 0 242 -24 279 -13 21 -42 50 -64 65 l-40 27 -226 2
c-174 2 -235 0 -264 -11z m290 -38 c10 -17 4 -49 -13 -69 -12 -13 -10 -18 16
-37 18 -14 30 -32 30 -45 0 -38 31 -131 46 -140 17 -10 18 -59 2 -75 -18 -18
-65 -15 -77 6 -17 28 -13 1 9 -61 11 -31 25 -89 30 -128 6 -39 12 -74 14 -78
3 -4 1 -13 -4 -20 -13 -23 -29 -3 -28 37 0 55 -14 83 -74 143 -83 84 -121 146
-115 192 3 20 1 37 -4 37 -17 0 -9 51 16 100 19 38 32 51 58 58 22 6 32 14 30
27 -4 50 42 88 64 53z"/>
<path d="M970 1090 c-7 -13 -7 -33 2 -67 15 -60 13 -58 36 -35 19 19 19 22 3
71 -17 55 -25 61 -41 31z"/>
</g>
</svg>
