<?xml version="1.0" standalone="no"?>
<!DOCTYPE svg PUBLIC "-//W3C//DTD SVG 20010904//EN"
 "http://www.w3.org/TR/2001/REC-SVG-20010904/DTD/svg10.dtd">
<svg version="1.0" xmlns="http://www.w3.org/2000/svg"
 width="192.000000pt" height="192.000000pt" viewBox="0 0 192.000000 192.000000"
 preserveAspectRatio="xMidYMid meet">
<metadata>
Created by potrace 1.16, written by Peter Selinger 2001-2019
</metadata>
<g transform="translate(0.000000,192.000000) scale(0.100000,-0.100000)"
fill="#000000" stroke="none">
811 c445 -92 729 -532 635 -987 -62 -301 -295 -546 -601 -630 -91 -26 -329
-26 -420 0 -291 80 -516 305 -596 596 -26 91 -26 329 0 420 120 433 542 692
982 601z"/>
<path d="M695 1321 c-47 -22 -89 -64 -104 -104 -15 -38 -15 -466 0 -504 15
-40 57 -82 104 -104 52 -24 153 -26 162 -3 3 8 1 20 -4 25 -6 6 0 39 19 92 28
78 51 183 51 237 0 15 -18 49 -41 80 -23 30 -42 58 -42 61 0 4 25 19 55 35 34
18 55 36 57 49 4 24 59 34 75 13 5 -7 18 -44 27 -83 10 -38 24 -78 33 -87 13
-15 12 -25 -10 -100 -21 -66 -26 -105 -26 -191 0 -60 -3 -117 -6 -128 -6 -17
-1 -19 62 -19 107 1 173 40 208 122 22 54 22 452 0 506 -21 49 -52 81 -100
103 -35 16 -67 19 -260 19 -193 0 -225 -3 -260 -19z"/>
<path d="M905 1110 c-15 -17 -15 -20 2 -37 18 -17 69 -53 76 -53 2 0 2 13 -1
29 -3 22 1 33 17 43 34 21 24 33 -28 34 -37 2 -54 -3 -66 -16z"/>
<path d="M950 648 c0 -10 -7 -18 -15 -18 -8 0 -19 -9 -25 -20 -10 -18 -8 -20
30 -20 22 0 40 2 40 4 0 14 -29 67 -30 54z"/>
</g>
</svg>
