<?xml version="1.0" standalone="no"?>
<!DOCTYPE svg PUBLIC "-//W3C//DTD SVG 20010904//EN"
 "http://www.w3.org/TR/2001/REC-SVG-20010904/DTD/svg10.dtd">
<svg version="1.0" xmlns="http://www.w3.org/2000/svg"
 width="192.000000pt" height="192.000000pt" viewBox="0 0 192.000000 192.000000"
 preserveAspectRatio="xMidYMid meet">
<metadata>
Created by potrace 1.16, written by Peter Selinger 2001-2019
</metadata>
<g transform="translate(0.000000,192.000000) scale(0.100000,-0.100000)"
fill="#000000" stroke="none">
811 c445 -92 729 -532 635 -987 -62 -301 -295 -546 -601 -630 -91 -26 -329
-26 -420 0 -291 80 -516 305 -596 596 -26 91 -26 329 0 420 120 433 542 692
982 601z"/>
<path d="M695 1321 c-47 -22 -89 -64 -104 -104 -15 -38 -15 -466 0 -504 15
-40 57 -82 104 -104 35 -16 67 -19 260 -19 239 0 272 7 322 61 48 52 53 84 53
314 0 230 -5 262 -53 314 -50 54 -83 61 -322 61 -193 0 -225 -3 -260 -19z
m303 -49 c2 -13 -3 -34 -12 -47 -15 -22 -14 -25 10 -42 19 -14 28 -35 39 -88
8 -39 24 -82 35 -97 23 -31 26 -58 8 -76 -17 -17 -54 -15 -72 4 -15 14 -16 14
-16 -3 0 -10 6 -29 13 -43 19 -35 34 -103 43 -184 5 -56 4 -68 -7 -64 -8 3
-14 18 -14 34 -1 62 -17 103 -50 129 -33 24 -111 121 -135 165 -7 13 -10 38
-7 56 3 19 2 34 -4 34 -16 0 -10 37 15 93 19 44 29 55 57 63 27 8 34 15 35 36
2 43 12 60 36 56 15 -2 24 -11 26 -26z"/>
<path d="M970 1089 c-8 -15 -8 -29 -1 -51 6 -17 11 -42 11 -56 l0 -25 24 26
c23 25 23 26 7 76 -18 56 -25 61 -41 30z"/>
</g>
</svg>
