<?xml version="1.0" standalone="no"?>
<!DOCTYPE svg PUBLIC "-//W3C//DTD SVG 20010904//EN"
 "http://www.w3.org/TR/2001/REC-SVG-20010904/DTD/svg10.dtd">
<svg version="1.0" xmlns="http://www.w3.org/2000/svg"
 width="192.000000pt" height="192.000000pt" viewBox="0 0 192.000000 192.000000"
 preserveAspectRatio="xMidYMid meet">
<metadata>
Created by potrace 1.16, written by Peter Selinger 2001-2019
</metadata>
<g transform="translate(0.000000,192.000000) scale(0.100000,-0.100000)"
fill="#000000" stroke="none">
811 c445 -92 729 -532 635 -987 -62 -301 -295 -546 -601 -630 -91 -26 -329
-26 -420 0 -291 80 -516 305 -596 596 -26 91 -26 329 0 420 120 433 542 692
982 601z"/>
<path d="M619 1297 c-19 -12 -44 -42 -57 -67 -22 -43 -23 -54 -20 -222 3 -196
7 -207 78 -255 29 -20 46 -23 131 -23 l99 0 0 -29 c0 -28 -3 -30 -42 -33 -38
-3 -43 -6 -43 -28 l0 -25 190 0 190 0 0 25 c0 22 -5 25 -42 28 -40 3 -43 5
-43 33 l0 29 99 0 c85 0 102 3 131 23 71 48 75 59 78 255 3 168 2 179 -20 222
-13 25 -38 55 -57 67 -33 23 -39 23 -336 23 -297 0 -303 0 -336 -23z m106
-259 c26 -49 35 -48 35 2 0 33 3 40 20 40 14 0 20 -7 21 -22 l2 -23 4 23 c4
22 6 22 168 22 l164 0 23 -40 c13 -22 26 -40 29 -40 3 0 14 18 24 40 12 26 25
40 37 40 24 0 23 -5 -10 -65 -36 -67 -66 -69 -100 -7 -19 34 -29 42 -53 42
-28 0 -29 -2 -29 -46 0 -38 -3 -45 -17 -42 -13 2 -19 15 -21 46 -3 37 -6 42
-28 42 -18 0 -24 -5 -24 -23 0 -12 -7 -33 -16 -45 -13 -19 -24 -22 -80 -22
-60 0 -64 2 -65 23 l0 22 -9 -22 c-17 -42 -78 -25 -100 27 -17 42 -30 38 -30
-10 0 -33 -3 -40 -20 -40 -18 0 -20 7 -20 61 l0 60 38 -3 c31 -3 40 -9 57 -40z"/>
<path d="M850 1020 c0 -28 2 -30 40 -30 38 0 40 2 40 30 0 28 -2 30 -40 30
-38 0 -40 -2 -40 -30z"/>
</g>
</svg>
