<?xml version="1.0" standalone="no"?>
<!DOCTYPE svg PUBLIC "-//W3C//DTD SVG 20010904//EN"
 "http://www.w3.org/TR/2001/REC-SVG-20010904/DTD/svg10.dtd">
<svg version="1.0" xmlns="http://www.w3.org/2000/svg"
 width="192.000000pt" height="192.000000pt" viewBox="0 0 192.000000 192.000000"
 preserveAspectRatio="xMidYMid meet">
<metadata>
Created by potrace 1.16, written by Peter Selinger 2001-2019
</metadata>
<g transform="translate(0.000000,192.000000) scale(0.100000,-0.100000)"
fill="#000000" stroke="none">
811 c445 -92 729 -532 635 -987 -62 -301 -295 -546 -601 -630 -91 -26 -329
-26 -420 0 -291 80 -516 305 -596 596 -26 91 -26 329 0 420 120 433 542 692
982 601z"/>
<path d="M610 1337 c-37 -19 -41 -80 -6 -103 33 -21 33 -37 1 -58 -19 -12 -25
-25 -25 -51 0 -26 6 -39 25 -51 14 -9 25 -22 25 -29 0 -7 -11 -20 -25 -29 -17
-11 -25 -26 -25 -46 0 -44 23 -60 86 -60 47 0 54 -2 54 -20 0 -17 -7 -20 -48
-20 -27 0 -57 -7 -70 -16 -28 -20 -29 -68 -2 -91 11 -10 20 -25 20 -34 0 -9
-9 -24 -20 -34 -40 -36 -14 -105 39 -105 12 0 32 11 45 25 29 31 43 31 68 0
11 -14 30 -25 44 -25 24 0 64 31 64 50 0 19 29 10 41 -12 15 -29 28 -38 57
-38 38 0 62 34 62 90 0 36 4 50 14 50 9 0 15 -17 18 -56 3 -40 10 -61 23 -70
28 -21 73 -17 87 6 7 11 21 20 30 20 10 0 27 -9 38 -20 37 -37 93 -20 105 32
5 21 1 33 -19 53 -32 32 -32 38 0 70 20 20 24 32 19 53 -8 37 -31 52 -77 52
-31 0 -38 4 -38 20 0 17 7 20 45 20 36 0 48 5 61 25 19 29 11 60 -22 81 -31
21 -30 30 6 64 37 34 38 53 5 86 -32 31 -31 47 1 79 25 26 26 52 2 83 -17 20
-76 15 -90 -8 -7 -11 -20 -20 -29 -20 -9 0 -24 9 -34 20 -21 24 -77 27 -95 5
-6 -8 -14 -32 -17 -55 -7 -50 -33 -56 -33 -7 0 51 -25 79 -68 75 -27 -2 -40
-9 -47 -25 -13 -30 -31 -29 -59 3 -31 36 -73 35 -103 -2 l-24 -29 -17 21 c-15
18 -54 44 -64 44 -2 0 -14 -6 -28 -13z"/>
</g>
</svg>
