<?xml version="1.0" standalone="no"?>
<!DOCTYPE svg PUBLIC "-//W3C//DTD SVG 20010904//EN"
 "http://www.w3.org/TR/2001/REC-SVG-20010904/DTD/svg10.dtd">
<svg version="1.0" xmlns="http://www.w3.org/2000/svg"
 width="192.000000pt" height="192.000000pt" viewBox="0 0 192.000000 192.000000"
 preserveAspectRatio="xMidYMid meet">
<metadata>
Created by potrace 1.16, written by Peter Selinger 2001-2019
</metadata>
<g transform="translate(0.000000,192.000000) scale(0.100000,-0.100000)"
fill="#000000" stroke="none">
811 c445 -92 729 -532 635 -987 -62 -301 -295 -546 -601 -630 -91 -26 -329
-26 -420 0 -291 80 -516 305 -596 596 -26 91 -26 329 0 420 120 433 542 692
982 601z"/>
<path d="M772 1339 c-12 -5 -25 -15 -28 -24 -8 -21 -38 -19 -59 5 -20 22 -74
27 -93 8 -22 -22 -15 -76 13 -94 14 -9 25 -22 25 -29 0 -7 -11 -20 -25 -29
-19 -12 -25 -25 -25 -51 0 -26 6 -39 25 -51 31 -20 32 -37 1 -57 -29 -19 -37
-48 -22 -79 10 -19 21 -24 71 -28 47 -4 61 -9 63 -22 3 -15 -5 -18 -50 -18
-59 0 -70 -5 -87 -37 -13 -26 0 -70 24 -79 19 -8 19 -40 0 -48 -24 -9 -37 -53
-24 -79 7 -12 17 -25 23 -29 21 -14 63 -8 81 12 23 25 40 25 65 0 27 -27 75
-26 94 2 9 12 16 39 16 60 0 27 4 38 15 38 10 0 15 -10 15 -29 0 -44 16 -78
40 -86 33 -11 70 3 82 30 11 24 38 35 38 15 0 -19 40 -50 65 -50 15 0 36 11
49 25 29 31 33 31 62 0 42 -46 107 -25 107 35 0 22 -7 39 -21 51 -22 18 -30
49 -12 49 17 0 42 48 35 69 -11 35 -35 51 -76 51 -32 0 -39 3 -39 20 0 17 7
20 45 20 36 0 48 5 61 25 19 29 12 57 -22 84 -31 24 -30 27 6 61 37 34 38 53
5 86 -14 14 -25 30 -25 36 0 5 11 23 25 40 31 37 31 53 0 83 -30 31 -46 31
-83 0 -17 -14 -35 -25 -40 -25 -6 0 -22 11 -36 25 -33 33 -52 32 -86 -5 -34
-37 -39 -37 -65 -4 -14 18 -31 27 -50 27 -42 0 -65 -34 -65 -94 0 -37 -4 -49
-15 -49 -11 0 -15 12 -15 48 0 73 -36 110 -88 91z"/>
</g>
</svg>
