<?xml version="1.0" standalone="no"?>
<!DOCTYPE svg PUBLIC "-//W3C//DTD SVG 20010904//EN"
 "http://www.w3.org/TR/2001/REC-SVG-20010904/DTD/svg10.dtd">
<svg version="1.0" xmlns="http://www.w3.org/2000/svg"
 width="192.000000pt" height="192.000000pt" viewBox="0 0 192.000000 192.000000"
 preserveAspectRatio="xMidYMid meet">
<metadata>
Created by potrace 1.16, written by Peter Selinger 2001-2019
</metadata>
<g transform="translate(0.000000,192.000000) scale(0.100000,-0.100000)"
fill="#000000" stroke="none">
811 c445 -92 729 -532 635 -987 -62 -301 -295 -546 -601 -630 -91 -26 -329
-26 -420 0 -291 80 -516 305 -596 596 -26 91 -26 329 0 420 120 433 542 692
982 601z"/>
<path d="M833 1356 c-66 -21 -124 -60 -177 -115 -216 -232 -99 -608 211 -677
218 -48 431 82 489 300 49 185 -46 386 -224 469 -58 27 -80 32 -162 34 -60 2
-110 -2 -137 -11z m182 -177 c55 -14 122 -70 146 -123 44 -98 6 -224 -84 -280
-97 -60 -212 -44 -285 40 -113 128 -58 314 108 365 37 11 66 10 115 -2z"/>
<path d="M883 1080 c-115 -70 -63 -250 72 -250 76 0 135 59 135 135 0 106
-116 171 -207 115z"/>
</g>
</svg>
