<?xml version="1.0" standalone="no"?>
<!DOCTYPE svg PUBLIC "-//W3C//DTD SVG 20010904//EN"
 "http://www.w3.org/TR/2001/REC-SVG-20010904/DTD/svg10.dtd">
<svg version="1.0" xmlns="http://www.w3.org/2000/svg"
 width="192.000000pt" height="192.000000pt" viewBox="0 0 192.000000 192.000000"
 preserveAspectRatio="xMidYMid meet">
<metadata>
Created by potrace 1.16, written by Peter Selinger 2001-2019
</metadata>
<g transform="translate(0.000000,192.000000) scale(0.100000,-0.100000)"
fill="#000000" stroke="none">
810 c245 -63 441 -223 549 -451 55 -116 75 -212 75 -354 0 -141 -20 -238 -75
-352 -86 -182 -215 -312 -396 -398 -116 -55 -212 -75 -354 -75 -142 0 -238 20
-354 75 -228 108 -388 304 -451 549 -28 110 -28 292 0 402 76 298 303 526 600
603 106 28 298 28 406 1z"/>
<path d="M820 1296 c-84 -24 -139 -58 -198 -121 -66 -70 -88 -126 -80 -200 7
-58 28 -88 85 -122 42 -25 58 -28 182 -33 183 -9 236 -33 321 -146 29 -39 47
-54 65 -54 32 0 87 65 133 159 34 70 37 81 37 165 0 81 -3 97 -28 145 -53 101
-150 175 -270 207 -64 17 -186 17 -247 0z m230 -231 c0 -8 5 -15 10 -15 6 0
10 -7 10 -15 0 -8 -4 -15 -10 -15 -5 0 -10 -11 -10 -24 0 -14 5 -28 10 -31 6
-3 10 -13 10 -21 0 -11 -9 -14 -32 -12 -31 3 -33 5 -39 53 -9 70 -2 95 27 95
15 0 24 -6 24 -15z m-320 -76 c0 -52 -2 -59 -20 -59 -17 0 -20 7 -20 45 0 25
-4 45 -10 45 -5 0 -10 -20 -10 -45 0 -38 -3 -45 -20 -45 -18 0 -20 7 -20 59
l0 60 33 3 c62 6 67 1 67 -63z m126 35 c8 -30 -2 -44 -32 -44 -13 0 -24 -4
-24 -8 0 -5 14 -7 30 -4 31 4 38 -6 18 -26 -17 -17 -73 -15 -87 2 -7 8 -11 34
-9 57 3 37 7 44 28 49 40 10 70 0 76 -26z m118 9 c3 -8 4 -19 0 -24 -8 -13
-42 -11 -47 4 -3 6 -6 0 -6 -14 -1 -23 2 -25 29 -21 33 5 35 1 20 -29 -13 -23
-71 -26 -89 -5 -7 8 -11 34 -9 57 3 37 7 44 28 49 35 8 68 1 74 -17z m212 -8
c3 -12 4 -37 2 -56 -3 -32 -5 -34 -42 -36 -22 -1 -46 3 -53 9 -21 17 -16 49 9
56 l22 5 -22 8 c-27 10 -19 36 11 41 40 6 67 -4 73 -27z m104 9 c0 -9 -9 -18
-20 -21 -16 -4 -20 -14 -20 -45 0 -35 -2 -39 -22 -36 -20 3 -23 10 -26 61 l-3
57 46 0 c34 0 45 -4 45 -16z"/>
</g>
</svg>
