<?xml version="1.0" standalone="no"?>
<!DOCTYPE svg PUBLIC "-//W3C//DTD SVG 20010904//EN"
 "http://www.w3.org/TR/2001/REC-SVG-20010904/DTD/svg10.dtd">
<svg version="1.0" xmlns="http://www.w3.org/2000/svg"
 width="192.000000pt" height="192.000000pt" viewBox="0 0 192.000000 192.000000"
 preserveAspectRatio="xMidYMid meet">
<metadata>
Created by potrace 1.16, written by Peter Selinger 2001-2019
</metadata>
<g transform="translate(0.000000,192.000000) scale(0.100000,-0.100000)"
fill="#000000" stroke="none">
811 c445 -92 729 -532 635 -987 -62 -301 -295 -546 -601 -630 -91 -26 -329
-26 -420 0 -291 80 -516 305 -596 596 -26 91 -26 329 0 420 120 433 542 692
982 601z"/>
<path d="M695 1321 c-49 -22 -91 -69 -105 -119 -7 -24 -10 -118 -8 -259 l3
-221 30 -43 c56 -79 77 -84 340 -84 263 0 284 5 340 84 l30 43 3 221 c4 240
-1 276 -45 328 -53 62 -83 69 -328 69 -192 0 -225 -3 -260 -19z m520 -83 c19
-18 37 -45 41 -61 l6 -27 -76 36 c-88 42 -111 40 -102 -9 3 -17 8 -55 12 -83
6 -51 6 -51 -32 -74 -22 -13 -49 -32 -60 -42 -22 -19 -22 -19 -93 16 -39 20
-75 36 -81 36 -18 0 -12 -155 9 -217 11 -32 23 -79 27 -105 l6 -48 -56 0 c-73
0 -120 20 -146 62 -19 31 -20 46 -18 256 l3 224 37 34 38 34 225 0 225 0 35
-32z m-23 -298 c25 -34 15 -62 -20 -58 -36 4 -62 49 -42 72 17 22 38 17 62
-14z m-157 -141 c13 -24 13 -30 -1 -43 -21 -21 -29 -20 -54 6 -24 27 -26 54
-3 66 23 14 41 5 58 -29z"/>
</g>
</svg>
