<?xml version="1.0" standalone="no"?>
<!DOCTYPE svg PUBLIC "-//W3C//DTD SVG 20010904//EN"
 "http://www.w3.org/TR/2001/REC-SVG-20010904/DTD/svg10.dtd">
<svg version="1.0" xmlns="http://www.w3.org/2000/svg"
 width="192.000000pt" height="192.000000pt" viewBox="0 0 192.000000 192.000000"
 preserveAspectRatio="xMidYMid meet">
<metadata>
Created by potrace 1.16, written by Peter Selinger 2001-2019
</metadata>
<g transform="translate(0.000000,192.000000) scale(0.100000,-0.100000)"
fill="#000000" stroke="none">
811 c445 -92 729 -532 635 -987 -62 -301 -295 -546 -601 -630 -91 -26 -329
-26 -420 0 -291 80 -516 305 -596 596 -26 91 -26 329 0 420 120 433 542 692
982 601z"/>
<path d="M620 1321 c-6 -12 -10 -131 -10 -317 0 -257 -2 -300 -16 -315 -9 -10
-18 -36 -21 -58 -5 -33 -3 -41 11 -41 11 0 16 9 16 30 0 38 39 80 73 80 26 0
72 -50 78 -85 4 -19 15 -20 257 -23 167 -1 260 1 273 8 11 6 29 26 39 43 18
29 20 52 20 247 0 196 -2 219 -20 253 -14 26 -20 56 -20 105 0 40 -5 73 -12
80 -24 24 -56 13 -94 -33 l-36 -45 -204 0 c-112 0 -204 3 -204 8 0 4 -16 24
-36 45 -39 41 -77 49 -94 18z m655 -181 c0 -52 -22 -67 -27 -18 -4 40 -21 42
-28 3 -6 -36 -22 -38 -30 -5 -14 59 -25 -14 -30 -190 -6 -238 -23 -247 -30
-15 -3 105 -9 169 -15 168 -98 -15 -105 -15 -105 0 0 16 54 37 96 37 11 0 30
13 42 30 24 32 75 51 107 40 16 -6 20 -16 20 -50z m-400 -34 c48 -20 46 -41
-2 -32 -21 4 -64 10 -95 13 -39 4 -58 10 -58 19 0 19 110 19 155 0z m-159 -57
c51 -13 62 -34 12 -24 -42 10 -78 23 -78 30 0 8 17 6 66 -6z m284 -21 c0 -5
-7 -11 -15 -14 -17 -7 -21 -54 -5 -54 12 0 46 33 52 51 9 24 21 1 14 -25 -8
-33 -37 -48 -91 -48 -54 0 -83 15 -91 48 -7 26 5 49 14 25 6 -18 40 -51 52
-51 16 0 12 47 -5 54 -29 11 -14 23 30 23 25 0 45 -4 45 -9z m-240 -28 c0 -5
-25 -10 -55 -10 -30 0 -55 5 -55 10 0 6 25 10 55 10 30 0 55 -4 55 -10z m-2
-32 c-5 -14 -40 -26 -82 -27 -38 -1 -25 11 27 26 56 15 59 15 55 1z m167 -111
c61 -61 53 -154 -17 -197 -131 -80 -267 94 -154 197 31 28 43 33 87 33 44 0
55 -4 84 -33z"/>
<path d="M742 798 c-14 -14 -16 -68 -3 -68 5 0 11 12 13 28 2 15 8 27 13 27 6
0 11 -12 13 -27 3 -26 22 -41 22 -18 0 6 7 6 19 -1 21 -14 56 -5 46 11 -4 6
-12 7 -18 4 -9 -5 -9 -3 0 6 10 11 16 9 31 -10 29 -36 82 -8 66 34 -8 20 -32
28 -52 17 -10 -6 -23 -6 -34 0 -12 6 -25 6 -39 -2 -15 -8 -24 -8 -32 0 -14 14
-30 14 -45 -1z m184 -19 c10 -17 -13 -36 -27 -22 -12 12 -4 33 11 33 5 0 12
-5 16 -11z"/>
</g>
</svg>
