<?xml version="1.0" standalone="no"?>
<!DOCTYPE svg PUBLIC "-//W3C//DTD SVG 20010904//EN"
 "http://www.w3.org/TR/2001/REC-SVG-20010904/DTD/svg10.dtd">
<svg version="1.0" xmlns="http://www.w3.org/2000/svg"
 width="192.000000pt" height="192.000000pt" viewBox="0 0 192.000000 192.000000"
 preserveAspectRatio="xMidYMid meet">
<metadata>
Created by potrace 1.16, written by Peter Selinger 2001-2019
</metadata>
<g transform="translate(0.000000,192.000000) scale(0.100000,-0.100000)"
fill="#000000" stroke="none">
811 c445 -92 729 -532 635 -987 -62 -301 -295 -546 -601 -630 -91 -26 -329
-26 -420 0 -291 80 -516 305 -596 596 -26 91 -26 329 0 420 120 433 542 692
982 601z"/>
<path d="M706 1326 c-47 -18 -94 -60 -112 -103 -20 -46 -20 -469 0 -516 18
-44 77 -94 127 -107 26 -7 121 -10 259 -8 l218 3 44 30 c25 18 52 49 66 75 21
42 22 56 22 265 0 209 -1 223 -22 265 -14 26 -41 57 -66 75 l-44 30 -226 2
c-175 2 -236 0 -266 -11z m144 -259 l-215 -212 -3 59 -3 60 153 153 153 153
65 0 65 0 -215 -213z m406 131 l16 -31 -260 -259 -259 -260 -31 16 c-17 9 -34
21 -38 28 -8 13 535 550 549 541 4 -2 14 -18 23 -35z m-128 -405 l-143 -143
-65 0 -65 1 205 199 205 198 3 -56 3 -56 -143 -143z"/>
</g>
</svg>
