<?xml version="1.0" standalone="no"?>
<!DOCTYPE svg PUBLIC "-//W3C//DTD SVG 20010904//EN"
 "http://www.w3.org/TR/2001/REC-SVG-20010904/DTD/svg10.dtd">
<svg version="1.0" xmlns="http://www.w3.org/2000/svg"
 width="192.000000pt" height="192.000000pt" viewBox="0 0 192.000000 192.000000"
 preserveAspectRatio="xMidYMid meet">
<metadata>
Created by potrace 1.16, written by Peter Selinger 2001-2019
</metadata>
<g transform="translate(0.000000,192.000000) scale(0.100000,-0.100000)"
fill="#000000" stroke="none">
811 c445 -92 729 -532 635 -987 -62 -301 -295 -546 -601 -630 -91 -26 -329
-26 -420 0 -291 80 -516 305 -596 596 -26 91 -26 329 0 420 120 433 542 692
982 601z"/>
<path d="M870 1369 c-113 -22 -232 -114 -284 -220 -101 -207 -17 -448 191
-551 64 -31 73 -33 178 -33 104 0 114 2 176 32 80 40 159 120 197 200 24 52
27 69 27 168 0 105 -2 114 -33 178 -85 171 -266 262 -452 226z m207 -155 c139
-67 193 -232 122 -373 -53 -105 -147 -157 -268 -149 -150 11 -255 126 -255
278 1 81 28 143 90 200 90 83 198 98 311 44z"/>
<path d="M865 1171 c-195 -89 -170 -366 38 -422 89 -24 193 22 244 108 106
181 -92 401 -282 314z"/>
</g>
</svg>
