<?xml version="1.0" standalone="no"?>
<!DOCTYPE svg PUBLIC "-//W3C//DTD SVG 20010904//EN"
 "http://www.w3.org/TR/2001/REC-SVG-20010904/DTD/svg10.dtd">
<svg version="1.0" xmlns="http://www.w3.org/2000/svg"
 width="192.000000pt" height="192.000000pt" viewBox="0 0 192.000000 192.000000"
 preserveAspectRatio="xMidYMid meet">
<metadata>
Created by potrace 1.16, written by Peter Selinger 2001-2019
</metadata>
<g transform="translate(0.000000,192.000000) scale(0.100000,-0.100000)"
fill="#000000" stroke="none">
811 c445 -92 729 -532 635 -987 -62 -301 -295 -546 -601 -630 -91 -26 -329
-26 -420 0 -291 80 -516 305 -596 596 -26 91 -26 329 0 420 120 433 542 692
982 601z"/>
<path d="M835 1357 c-166 -56 -281 -195 -293 -357 -9 -127 33 -234 125 -321
242 -229 634 -103 694 223 24 130 -22 259 -127 358 -81 76 -147 102 -269 106
-57 3 -105 -1 -130 -9z m263 -96 c66 -34 128 -97 159 -159 22 -46 28 -70 28
-132 0 -65 -4 -84 -33 -142 -36 -73 -86 -123 -161 -160 -37 -18 -63 -23 -136
-23 -78 0 -97 4 -146 28 -264 129 -244 501 31 601 66 24 201 17 258 -13z"/>
<path d="M870 1231 c-122 -38 -211 -169 -197 -292 7 -61 47 -139 88 -173 64
-54 108 -71 189 -71 89 0 147 23 205 80 139 140 83 386 -103 449 -48 17 -139
20 -182 7z m193 -100 c107 -69 122 -216 30 -303 -117 -112 -315 -48 -339 109
-18 123 71 222 202 223 50 0 68 -5 107 -29z"/>
<path d="M872 1090 c-44 -27 -75 -97 -66 -146 8 -41 44 -88 85 -109 62 -32
145 -8 187 55 20 29 23 44 20 88 -4 45 -10 59 -41 90 -32 31 -43 36 -94 39
-46 3 -65 0 -91 -17z m130 -77 c43 -39 5 -117 -54 -111 -60 6 -84 71 -42 113
20 20 73 19 96 -2z"/>
</g>
</svg>
