<?xml version="1.0" standalone="no"?>
<!DOCTYPE svg PUBLIC "-//W3C//DTD SVG 20010904//EN"
 "http://www.w3.org/TR/2001/REC-SVG-20010904/DTD/svg10.dtd">
<svg version="1.0" xmlns="http://www.w3.org/2000/svg"
 width="192.000000pt" height="192.000000pt" viewBox="0 0 192.000000 192.000000"
 preserveAspectRatio="xMidYMid meet">
<metadata>
Created by potrace 1.16, written by Peter Selinger 2001-2019
</metadata>
<g transform="translate(0.000000,192.000000) scale(0.100000,-0.100000)"
fill="#000000" stroke="none">
811 c445 -92 729 -532 635 -987 -62 -301 -295 -546 -601 -630 -91 -26 -329
-26 -420 0 -291 80 -516 305 -596 596 -26 91 -26 329 0 420 120 433 542 692
982 601z"/>
<path d="M835 1346 c-133 -42 -232 -136 -276 -263 -27 -78 -26 -194 2 -269 29
-77 59 -104 116 -104 88 0 127 79 87 176 -36 85 9 194 98 238 106 53 216 18
269 -86 23 -46 25 -122 3 -173 -32 -78 16 -155 97 -155 72 0 124 77 136 204
18 192 -108 374 -296 430 -64 19 -179 20 -236 2z"/>
</g>
</svg>
