<?xml version="1.0" standalone="no"?>
<!DOCTYPE svg PUBLIC "-//W3C//DTD SVG 20010904//EN"
 "http://www.w3.org/TR/2001/REC-SVG-20010904/DTD/svg10.dtd">
<svg version="1.0" xmlns="http://www.w3.org/2000/svg"
 width="192.000000pt" height="192.000000pt" viewBox="0 0 192.000000 192.000000"
 preserveAspectRatio="xMidYMid meet">
<metadata>
Created by potrace 1.16, written by Peter Selinger 2001-2019
</metadata>
<g transform="translate(0.000000,192.000000) scale(0.100000,-0.100000)"
fill="#000000" stroke="none">
811 c445 -92 729 -532 635 -987 -62 -301 -295 -546 -601 -630 -91 -26 -329
-26 -420 0 -291 80 -516 305 -596 596 -26 91 -26 329 0 420 120 433 542 692
982 601z"/>
<path d="M922 1369 c-18 -3 -55 -28 -85 -55 -198 -183 -300 -281 -308 -296
-18 -33 6 -58 56 -58 l45 0 0 -184 c0 -223 -3 -216 109 -216 113 0 115 4 119
184 4 173 6 176 102 176 96 0 98 -3 102 -178 3 -137 4 -145 27 -163 18 -15 39
-19 92 -19 98 0 99 1 99 222 l0 178 38 0 c21 0 43 5 50 12 27 27 12 56 -58
118 l-70 62 0 93 c0 101 -10 125 -54 125 -33 0 -56 -31 -56 -75 l0 -38 -54 52
c-30 28 -56 51 -58 51 -2 0 -17 4 -33 8 -17 5 -45 5 -63 1z"/>
</g>
</svg>
