<?xml version="1.0" standalone="no"?>
<!DOCTYPE svg PUBLIC "-//W3C//DTD SVG 20010904//EN"
 "http://www.w3.org/TR/2001/REC-SVG-20010904/DTD/svg10.dtd">
<svg version="1.0" xmlns="http://www.w3.org/2000/svg"
 width="192.000000pt" height="192.000000pt" viewBox="0 0 192.000000 192.000000"
 preserveAspectRatio="xMidYMid meet">
<metadata>
Created by potrace 1.16, written by Peter Selinger 2001-2019
</metadata>
<g transform="translate(0.000000,192.000000) scale(0.100000,-0.100000)"
fill="#000000" stroke="none">
811 c445 -92 729 -532 635 -987 -62 -301 -295 -546 -601 -630 -91 -26 -329
-26 -420 0 -291 80 -516 305 -596 596 -26 91 -26 329 0 420 120 433 542 692
982 601z"/>
<path d="M1014 1352 c-17 -11 -41 -33 -53 -48 -20 -25 -22 -37 -18 -86 5 -54
4 -57 -23 -68 -35 -15 -96 -77 -109 -113 -30 -78 -1 -184 62 -231 40 -30 144
-30 183 0 64 48 89 124 64 198 -7 21 -10 40 -7 42 3 3 21 -9 40 -26 90 -79 69
-232 -42 -306 -52 -34 -151 -51 -208 -35 -67 19 -133 70 -167 131 -27 48 -31
65 -31 130 0 57 6 84 22 115 27 51 86 107 140 134 51 25 65 61 38 91 -23 26
-58 25 -114 -2 -141 -68 -231 -248 -201 -400 24 -128 105 -233 218 -286 50
-24 70 -27 157 -27 89 0 107 3 162 29 151 69 232 231 189 378 -26 92 -118 180
-211 202 -34 9 -45 21 -45 53 0 33 15 36 65 13 43 -20 48 -20 71 -5 16 10 24
25 24 45 0 68 -136 116 -206 72z m-16 -341 c18 -59 15 -99 -8 -111 -31 -16
-57 -3 -70 34 -12 37 -6 61 23 94 29 31 42 28 55 -17z"/>
</g>
</svg>
