<?xml version="1.0" standalone="no"?>
<!DOCTYPE svg PUBLIC "-//W3C//DTD SVG 20010904//EN"
 "http://www.w3.org/TR/2001/REC-SVG-20010904/DTD/svg10.dtd">
<svg version="1.0" xmlns="http://www.w3.org/2000/svg"
 width="192.000000pt" height="192.000000pt" viewBox="0 0 192.000000 192.000000"
 preserveAspectRatio="xMidYMid meet">
<metadata>
Created by potrace 1.16, written by Peter Selinger 2001-2019
</metadata>
<g transform="translate(0.000000,192.000000) scale(0.100000,-0.100000)"
fill="#000000" stroke="none">
811 c445 -92 729 -532 635 -987 -62 -301 -295 -546 -601 -630 -91 -26 -329
-26 -420 0 -291 80 -516 305 -596 596 -26 91 -26 329 0 420 120 433 542 692
982 601z"/>
<path d="M686 1317 c-22 -12 -53 -39 -70 -60 l-31 -39 -3 -236 c-3 -230 -2
-238 20 -282 13 -26 41 -57 66 -75 l44 -30 243 0 243 0 44 30 c25 18 53 49 66
75 22 44 23 52 20 282 l-3 236 -31 39 c-17 21 -48 48 -70 60 -37 22 -49 23
-269 23 -220 0 -232 -1 -269 -23z m458 -138 l26 -20 0 -190 c0 -176 -1 -190
-20 -209 -38 -38 -58 -26 -177 98 l-112 117 -1 -95 c0 -110 -13 -140 -60 -140
-54 0 -60 23 -60 229 0 203 5 221 61 221 22 0 49 -23 138 -117 l111 -118 0
102 c0 98 1 102 26 122 15 12 30 21 34 21 4 0 19 -9 34 -21z"/>
</g>
</svg>
