<?xml version="1.0" standalone="no"?>
<!DOCTYPE svg PUBLIC "-//W3C//DTD SVG 20010904//EN"
 "http://www.w3.org/TR/2001/REC-SVG-20010904/DTD/svg10.dtd">
<svg version="1.0" xmlns="http://www.w3.org/2000/svg"
 width="192.000000pt" height="192.000000pt" viewBox="0 0 192.000000 192.000000"
 preserveAspectRatio="xMidYMid meet">
<metadata>
Created by potrace 1.16, written by Peter Selinger 2001-2019
</metadata>
<g transform="translate(0.000000,192.000000) scale(0.100000,-0.100000)"
fill="#000000" stroke="none">
811 c445 -92 729 -532 635 -987 -62 -301 -295 -546 -601 -630 -91 -26 -329
-26 -420 0 -291 80 -516 305 -596 596 -26 91 -26 329 0 420 120 433 542 692
982 601z"/>
<path d="M787 1331 c-81 -27 -155 -55 -163 -62 -14 -11 -15 -42 -12 -213 4
-223 15 -272 79 -349 58 -70 204 -156 265 -157 18 0 63 16 101 35 132 68 203
150 229 264 19 80 19 404 0 420 -18 15 -304 111 -331 111 -11 0 -87 -22 -168
-49z m183 -211 l0 -140 98 0 c53 0 103 -4 110 -9 11 -6 11 -20 2 -72 -13 -73
-36 -114 -86 -158 -34 -31 -124 -81 -143 -81 -7 0 -12 55 -13 143 l-3 142
-107 3 -108 3 0 119 0 118 103 35 c158 55 147 63 147 -103z"/>
</g>
</svg>
