<?xml version="1.0" standalone="no"?>
<!DOCTYPE svg PUBLIC "-//W3C//DTD SVG 20010904//EN"
 "http://www.w3.org/TR/2001/REC-SVG-20010904/DTD/svg10.dtd">
<svg version="1.0" xmlns="http://www.w3.org/2000/svg"
 width="192.000000pt" height="192.000000pt" viewBox="0 0 192.000000 192.000000"
 preserveAspectRatio="xMidYMid meet">
<metadata>
Created by potrace 1.16, written by Peter Selinger 2001-2019
</metadata>
<g transform="translate(0.000000,192.000000) scale(0.100000,-0.100000)"
fill="#000000" stroke="none">
811 c445 -92 729 -532 635 -987 -62 -301 -295 -546 -601 -630 -91 -26 -329
-26 -420 0 -291 80 -516 305 -596 596 -26 91 -26 329 0 420 120 433 542 692
982 601z"/>
<path d="M739 1302 c-61 -40 -120 -107 -155 -177 -27 -56 -29 -68 -29 -175 0
-104 3 -121 27 -173 56 -119 179 -214 309 -238 269 -49 520 206 470 478 -22
121 -108 246 -202 293 -48 25 -46 25 -62 -7 -32 -62 -31 -68 21 -100 63 -39
108 -105 129 -188 15 -60 15 -70 0 -130 -19 -76 -63 -144 -115 -180 -44 -30
-48 -31 -55 -5 -4 14 4 25 28 40 93 57 132 203 84 310 -23 51 -70 105 -111
126 -26 13 -28 13 -41 -13 -31 -60 -30 -71 3 -99 45 -38 63 -79 57 -130 -5
-44 -40 -104 -60 -104 -22 0 -36 54 -21 75 22 30 17 73 -12 102 -20 20 -31 24
-57 19 -58 -11 -86 -76 -53 -121 10 -14 11 -26 4 -47 -12 -34 -18 -35 -47 -4
-54 58 -47 153 15 204 l36 30 -20 46 c-12 27 -27 46 -37 46 -9 0 -38 -22 -64
-48 -112 -112 -106 -274 14 -380 31 -27 43 -45 39 -56 -8 -21 -11 -21 -55 10
-77 53 -119 141 -119 246 1 111 51 204 136 254 l44 26 -16 36 c-9 20 -18 43
-21 50 -7 17 -13 16 -64 -16z"/>
</g>
</svg>
