<?xml version="1.0" standalone="no"?>
<!DOCTYPE svg PUBLIC "-//W3C//DTD SVG 20010904//EN"
 "http://www.w3.org/TR/2001/REC-SVG-20010904/DTD/svg10.dtd">
<svg version="1.0" xmlns="http://www.w3.org/2000/svg"
 width="192.000000pt" height="192.000000pt" viewBox="0 0 192.000000 192.000000"
 preserveAspectRatio="xMidYMid meet">
<metadata>
Created by potrace 1.16, written by Peter Selinger 2001-2019
</metadata>
<g transform="translate(0.000000,192.000000) scale(0.100000,-0.100000)"
fill="#000000" stroke="none">
811 c445 -92 729 -532 635 -987 -62 -301 -295 -546 -601 -630 -91 -26 -329
-26 -420 0 -291 80 -516 305 -596 596 -26 91 -26 329 0 420 120 433 542 692
982 601z"/>
<path d="M880 1371 c-50 -16 -87 -40 -123 -80 -67 -75 -71 -92 -72 -321 0
-205 0 -205 28 -262 49 -100 132 -152 242 -152 110 0 193 52 242 152 28 57 28
58 28 262 0 196 -1 207 -24 250 -30 59 -76 107 -126 132 -43 23 -152 33 -195
19z m128 -278 l3 -72 72 -3 72 -3 3 -44 c4 -54 -5 -61 -85 -61 l-62 0 -3 -72
-3 -73 -50 0 -50 0 -3 73 -3 72 -62 0 c-80 0 -89 7 -85 61 l3 44 73 3 72 3 0
68 c0 37 3 71 7 75 4 4 28 6 53 4 l45 -3 3 -72z"/>
</g>
</svg>
