<?xml version="1.0" standalone="no"?>
<!DOCTYPE svg PUBLIC "-//W3C//DTD SVG 20010904//EN"
 "http://www.w3.org/TR/2001/REC-SVG-20010904/DTD/svg10.dtd">
<svg version="1.0" xmlns="http://www.w3.org/2000/svg"
 width="192.000000pt" height="192.000000pt" viewBox="0 0 192.000000 192.000000"
 preserveAspectRatio="xMidYMid meet">
<metadata>
Created by potrace 1.16, written by Peter Selinger 2001-2019
</metadata>
<g transform="translate(0.000000,192.000000) scale(0.100000,-0.100000)"
fill="#000000" stroke="none">
811 c445 -92 729 -532 635 -987 -62 -301 -295 -546 -601 -630 -91 -26 -329
-26 -420 0 -291 80 -516 305 -596 596 -26 91 -26 329 0 420 120 433 542 692
982 601z"/>
<path d="M632 1348 c-19 -19 -17 -751 2 -767 9 -8 43 -11 93 -9 l78 3 5 225 5
225 150 -225 150 -225 73 -3 c46 -2 79 2 88 9 19 16 21 748 2 767 -7 7 -43 12
-90 12 -66 0 -79 -3 -88 -19 -6 -12 -10 -104 -10 -228 l0 -208 -141 215 c-77
118 -148 221 -157 228 -21 16 -144 16 -160 0z"/>
</g>
</svg>
