<?xml version="1.0" standalone="no"?>
<!DOCTYPE svg PUBLIC "-//W3C//DTD SVG 20010904//EN"
 "http://www.w3.org/TR/2001/REC-SVG-20010904/DTD/svg10.dtd">
<svg version="1.0" xmlns="http://www.w3.org/2000/svg"
 width="192.000000pt" height="192.000000pt" viewBox="0 0 192.000000 192.000000"
 preserveAspectRatio="xMidYMid meet">
<metadata>
Created by potrace 1.16, written by Peter Selinger 2001-2019
</metadata>
<g transform="translate(0.000000,192.000000) scale(0.100000,-0.100000)"
fill="#000000" stroke="none">
811 c445 -92 729 -532 635 -987 -62 -301 -295 -546 -601 -630 -91 -26 -329
-26 -420 0 -291 80 -516 305 -596 596 -26 91 -26 329 0 420 120 433 542 692
982 601z"/>
<path d="M840 1361 c-118 -39 -205 -112 -255 -215 -141 -284 78 -604 398 -584
189 12 345 155 378 346 30 168 -69 350 -230 426 -58 27 -78 31 -166 33 -55 1
-111 -1 -125 -6z m-168 -318 l3 -38 17 38 c13 29 23 37 42 37 29 0 33 -15 14
-56 -10 -22 -10 -28 0 -32 8 -2 12 -27 12 -73 0 -67 -1 -69 -25 -69 -23 0 -25
4 -25 45 0 38 -3 45 -20 45 -17 0 -20 -7 -20 -45 0 -41 -2 -45 -25 -45 l-25 0
0 115 0 115 24 0 c21 0 25 -5 28 -37z m255 -75 l-2 -113 -67 -3 -68 -3 0 116
0 115 70 0 70 0 -3 -112z m193 103 c0 -6 -25 -57 -56 -115 -45 -87 -60 -106
-78 -106 -13 0 -26 3 -29 7 -4 3 19 55 50 115 51 99 58 108 85 108 15 0 28 -4
28 -9z m168 -28 c3 -31 1 -33 -27 -33 -17 0 -31 5 -31 10 0 6 -7 10 -15 10 -8
0 -15 -7 -15 -15 0 -10 10 -15 28 -15 51 0 64 -18 60 -85 l-3 -60 -67 -3 c-65
-3 -68 -2 -74 23 -3 14 -4 32 0 40 6 17 42 20 51 5 10 -15 35 -12 35 5 0 11
-11 15 -39 15 -26 0 -41 5 -45 16 -8 22 -8 109 1 118 4 4 37 6 73 4 l65 -3 3
-32z"/>
<path d="M840 1016 c0 -10 9 -16 21 -16 24 0 21 23 -4 28 -10 2 -17 -3 -17
-12z"/>
<path d="M840 925 c0 -8 9 -15 20 -15 11 0 20 7 20 15 0 8 -9 15 -20 15 -11 0
-20 -7 -20 -15z"/>
</g>
</svg>
