<?xml version="1.0" standalone="no"?>
<!DOCTYPE svg PUBLIC "-//W3C//DTD SVG 20010904//EN"
 "http://www.w3.org/TR/2001/REC-SVG-20010904/DTD/svg10.dtd">
<svg version="1.0" xmlns="http://www.w3.org/2000/svg"
 width="192.000000pt" height="192.000000pt" viewBox="0 0 192.000000 192.000000"
 preserveAspectRatio="xMidYMid meet">
<metadata>
Created by potrace 1.16, written by Peter Selinger 2001-2019
</metadata>
<g transform="translate(0.000000,192.000000) scale(0.100000,-0.100000)"
fill="#000000" stroke="none">
811 c445 -92 729 -532 635 -987 -62 -301 -295 -546 -601 -630 -91 -26 -329
-26 -420 0 -291 80 -516 305 -596 596 -26 91 -26 329 0 420 120 433 542 692
982 601z"/>
<path d="M530 965 l0 -115 30 0 c29 0 29 1 32 63 l3 62 43 -62 c36 -53 47 -63
72 -63 l30 0 0 115 0 115 -30 0 c-29 0 -29 -1 -32 -62 l-3 -62 -38 62 c-35 57
-41 62 -73 62 l-34 0 0 -115z"/>
<path d="M960 1061 c0 -11 -4 -23 -10 -26 -12 -8 -13 -55 -1 -55 4 0 11 -21
14 -47 6 -52 33 -83 73 -83 20 0 24 5 24 30 0 20 -5 30 -15 30 -10 0 -15 11
-15 35 0 32 2 35 30 35 29 0 30 -2 30 -43 0 -56 17 -78 60 -80 30 -2 36 2 38
21 3 17 -2 25 -17 29 -29 8 -30 68 -1 76 12 3 20 14 20 27 0 13 -8 24 -20 27
-11 3 -20 14 -20 24 0 14 -7 19 -30 19 -23 0 -30 -4 -30 -20 0 -16 -7 -20 -30
-20 -23 0 -30 4 -30 20 0 16 -7 20 -35 20 -28 0 -35 -4 -35 -19z"/>
<path d="M805 1029 c-11 -6 -26 -19 -32 -27 -14 -17 -17 -79 -7 -107 8 -20 56
-45 87 -45 28 0 77 35 77 56 0 17 -51 19 -67 3 -13 -13 -43 -5 -43 11 0 6 25
10 60 10 57 0 60 1 60 24 0 57 -85 104 -135 75z m63 -57 c2 -7 -7 -12 -22 -12
-27 0 -35 15 -13 23 17 7 30 3 35 -11z"/>
<path d="M1233 1021 c-36 -23 -51 -70 -35 -112 14 -35 35 -50 80 -56 31 -4 44
0 70 22 27 22 32 34 32 69 0 77 -80 119 -147 77z m82 -60 c9 -29 -5 -52 -29
-49 -37 5 -34 68 3 68 11 0 22 -8 26 -19z"/>
</g>
</svg>
