<?xml version="1.0" standalone="no"?>
<!DOCTYPE svg PUBLIC "-//W3C//DTD SVG 20010904//EN"
 "http://www.w3.org/TR/2001/REC-SVG-20010904/DTD/svg10.dtd">
<svg version="1.0" xmlns="http://www.w3.org/2000/svg"
 width="192.000000pt" height="192.000000pt" viewBox="0 0 192.000000 192.000000"
 preserveAspectRatio="xMidYMid meet">
<metadata>
Created by potrace 1.16, written by Peter Selinger 2001-2019
</metadata>
<g transform="translate(0.000000,192.000000) scale(0.100000,-0.100000)"
fill="#000000" stroke="none">
811 c445 -92 729 -532 635 -987 -62 -301 -295 -546 -601 -630 -91 -26 -329
-26 -420 0 -291 80 -516 305 -596 596 -26 91 -26 329 0 420 120 433 542 692
982 601z"/>
<path d="M704 1300 c-11 -4 -34 -24 -51 -44 -143 -162 -148 -395 -12 -567 38
-48 63 -63 94 -55 42 11 40 41 -3 93 -73 88 -87 125 -87 238 0 115 16 159 86
239 22 25 39 53 37 62 -5 25 -40 43 -64 34z"/>
<path d="M1156 1284 c-24 -24 -20 -38 29 -95 59 -69 85 -140 85 -229 0 -89
-26 -160 -85 -229 -51 -59 -53 -78 -13 -101 27 -14 29 -14 72 29 163 160 167
424 9 592 -48 51 -71 59 -97 33z"/>
<path d="M784 1125 c-37 -37 -64 -103 -64 -158 0 -114 90 -215 144 -161 21 20
21 22 -14 74 -44 66 -38 146 14 189 23 19 20 47 -6 65 -31 22 -45 20 -74 -9z"/>
<path d="M1042 1138 c-18 -18 -14 -53 8 -73 47 -43 49 -131 4 -185 -30 -35
-27 -75 6 -85 33 -10 57 3 89 51 60 91 51 197 -23 277 -26 28 -64 35 -84 15z"/>
<path d="M915 1005 c-30 -29 -31 -45 -7 -75 24 -30 70 -30 94 0 10 12 18 29
18 37 0 19 -45 63 -65 63 -9 0 -27 -11 -40 -25z"/>
</g>
</svg>
