<?xml version="1.0" standalone="no"?>
<!DOCTYPE svg PUBLIC "-//W3C//DTD SVG 20010904//EN"
 "http://www.w3.org/TR/2001/REC-SVG-20010904/DTD/svg10.dtd">
<svg version="1.0" xmlns="http://www.w3.org/2000/svg"
 width="192.000000pt" height="192.000000pt" viewBox="0 0 192.000000 192.000000"
 preserveAspectRatio="xMidYMid meet">
<metadata>
Created by potrace 1.16, written by Peter Selinger 2001-2019
</metadata>
<g transform="translate(0.000000,192.000000) scale(0.100000,-0.100000)"
fill="#000000" stroke="none">
811 c445 -92 729 -532 635 -987 -62 -301 -295 -546 -601 -630 -91 -26 -329
-26 -420 0 -291 80 -516 305 -596 596 -26 91 -26 329 0 420 120 433 542 692
982 601z"/>
<path d="M842 1275 c-142 -26 -302 -124 -302 -185 0 -37 44 -74 77 -65 13 3
43 21 68 39 103 79 263 107 392 68 37 -12 76 -27 86 -35 18 -12 17 -15 -17
-41 -37 -27 -37 -28 -83 -12 -101 34 -250 11 -323 -51 -45 -37 -36 -94 17
-114 21 -8 35 -5 75 16 27 14 70 28 96 31 l47 5 -25 -21 c-14 -13 -34 -30 -45
-39 -35 -28 -55 -64 -55 -101 0 -41 29 -94 62 -111 33 -18 99 -15 130 5 26 17
315 468 325 507 7 26 -21 35 -50 16 -20 -13 -25 -13 -42 0 -104 78 -288 115
-433 88z"/>
</g>
</svg>
