<?xml version="1.0" standalone="no"?>
<!DOCTYPE svg PUBLIC "-//W3C//DTD SVG 20010904//EN"
 "http://www.w3.org/TR/2001/REC-SVG-20010904/DTD/svg10.dtd">
<svg version="1.0" xmlns="http://www.w3.org/2000/svg"
 width="192.000000pt" height="192.000000pt" viewBox="0 0 192.000000 192.000000"
 preserveAspectRatio="xMidYMid meet">
<metadata>
Created by potrace 1.16, written by Peter Selinger 2001-2019
</metadata>
<g transform="translate(0.000000,192.000000) scale(0.100000,-0.100000)"
fill="#000000" stroke="none">
811 c445 -92 729 -532 635 -987 -62 -301 -295 -546 -601 -630 -91 -26 -329
-26 -420 0 -291 80 -516 305 -596 596 -26 91 -26 329 0 420 120 433 542 692
982 601z"/>
<path d="M690 1318 c-24 -13 -58 -40 -74 -61 l-31 -39 -3 -234 c-3 -264 3
-297 69 -347 53 -40 100 -47 304 -47 204 0 251 7 304 47 66 50 72 83 69 347
l-3 234 -31 39 c-16 21 -50 48 -74 61 -42 21 -56 22 -265 22 -209 0 -223 -1
-265 -22z m324 -243 c96 -56 106 -67 106 -114 0 -34 -23 -56 -125 -115 -91
-52 -116 -56 -150 -21 -24 23 -25 30 -25 138 0 100 3 117 21 141 31 40 66 34
173 -29z"/>
</g>
</svg>
