<?xml version="1.0" standalone="no"?>
<!DOCTYPE svg PUBLIC "-//W3C//DTD SVG 20010904//EN"
 "http://www.w3.org/TR/2001/REC-SVG-20010904/DTD/svg10.dtd">
<svg version="1.0" xmlns="http://www.w3.org/2000/svg"
 width="192.000000pt" height="192.000000pt" viewBox="0 0 192.000000 192.000000"
 preserveAspectRatio="xMidYMid meet">
<metadata>
Created by potrace 1.16, written by Peter Selinger 2001-2019
</metadata>
<g transform="translate(0.000000,192.000000) scale(0.100000,-0.100000)"
fill="#000000" stroke="none">
811 c445 -92 729 -532 635 -987 -62 -301 -295 -546 -601 -630 -91 -26 -329
-26 -420 0 -291 80 -516 305 -596 596 -26 91 -26 329 0 420 120 433 542 692
982 601z"/>
<path d="M733 1360 c-110 -51 -193 -223 -193 -400 0 -70 27 -179 60 -247 55
-111 163 -179 247 -154 20 6 46 6 71 -1 26 -6 51 -6 76 0 23 7 48 7 71 1 99
-27 207 58 267 210 31 78 33 296 4 384 -24 74 -80 153 -134 191 l-43 31 -194
1 c-165 1 -200 -1 -232 -16z m41 -87 c-65 -99 -88 -194 -82 -338 6 -117 26
-189 73 -260 32 -46 31 -49 -4 -30 -41 21 -88 81 -113 145 -32 80 -32 270 0
351 26 66 61 116 99 141 39 25 48 22 27 -9z m401 -5 c99 -86 139 -289 90 -453
-19 -67 -67 -141 -107 -165 -41 -25 -56 -26 -36 -2 29 32 68 121 84 189 31
132 4 317 -61 415 -14 21 -25 40 -25 43 0 13 22 2 55 -27z"/>
</g>
</svg>
