<?xml version="1.0" standalone="no"?>
<!DOCTYPE svg PUBLIC "-//W3C//DTD SVG 20010904//EN"
 "http://www.w3.org/TR/2001/REC-SVG-20010904/DTD/svg10.dtd">
<svg version="1.0" xmlns="http://www.w3.org/2000/svg"
 width="192.000000pt" height="192.000000pt" viewBox="0 0 192.000000 192.000000"
 preserveAspectRatio="xMidYMid meet">
<metadata>
Created by potrace 1.16, written by Peter Selinger 2001-2019
</metadata>
<g transform="translate(0.000000,192.000000) scale(0.100000,-0.100000)"
fill="#000000" stroke="none">
811 c445 -92 729 -532 635 -987 -62 -301 -295 -546 -601 -630 -91 -26 -329
-26 -420 0 -291 80 -516 305 -596 596 -26 91 -26 329 0 420 120 433 542 692
982 601z"/>
<path d="M693 1366 c-35 -30 -39 -95 -8 -126 11 -10 102 -77 203 -149 l183
-129 -108 -75 -108 -75 -5 116 c-3 65 -11 127 -18 139 -27 49 -94 58 -139 19
l-28 -24 0 -237 0 -237 28 -24 c54 -46 70 -39 337 146 135 93 255 181 268 195
24 29 29 80 9 106 -7 9 -127 98 -267 198 -277 198 -292 204 -347 157z"/>
</g>
</svg>
