<?xml version="1.0" standalone="no"?>
<!DOCTYPE svg PUBLIC "-//W3C//DTD SVG 20010904//EN"
 "http://www.w3.org/TR/2001/REC-SVG-20010904/DTD/svg10.dtd">
<svg version="1.0" xmlns="http://www.w3.org/2000/svg"
 width="192.000000pt" height="192.000000pt" viewBox="0 0 192.000000 192.000000"
 preserveAspectRatio="xMidYMid meet">
<metadata>
Created by potrace 1.16, written by Peter Selinger 2001-2019
</metadata>
<g transform="translate(0.000000,192.000000) scale(0.100000,-0.100000)"
fill="#000000" stroke="none">
811 c445 -92 729 -532 635 -987 -62 -301 -295 -546 -601 -630 -91 -26 -329
-26 -420 0 -291 80 -516 305 -596 596 -26 91 -26 329 0 420 120 433 542 692
982 601z"/>
<path d="M943 1358 c-17 -4 -43 -23 -58 -40 -25 -29 -27 -38 -22 -87 6 -54 5
-56 -71 -182 -68 -112 -81 -128 -113 -138 -51 -16 -89 -48 -110 -95 -24 -54
-24 -100 2 -154 64 -131 260 -130 320 1 23 51 24 94 4 145 -15 37 -14 40 33
176 47 134 50 139 87 157 21 11 42 19 47 19 5 0 38 -23 73 -51 59 -46 65 -54
65 -88 0 -74 83 -109 135 -56 35 34 32 71 -8 109 -41 38 -64 112 -43 136 46
52 12 129 -57 130 -35 0 -77 -40 -77 -75 0 -16 12 -38 29 -56 16 -16 32 -43
36 -60 8 -37 4 -36 -72 29 -45 37 -53 50 -53 78 0 66 -78 121 -147 102z"/>
</g>
</svg>
