<?xml version="1.0" standalone="no"?>
<!DOCTYPE svg PUBLIC "-//W3C//DTD SVG 20010904//EN"
 "http://www.w3.org/TR/2001/REC-SVG-20010904/DTD/svg10.dtd">
<svg version="1.0" xmlns="http://www.w3.org/2000/svg"
 width="192.000000pt" height="192.000000pt" viewBox="0 0 192.000000 192.000000"
 preserveAspectRatio="xMidYMid meet">
<metadata>
Created by potrace 1.16, written by Peter Selinger 2001-2019
</metadata>
<g transform="translate(0.000000,192.000000) scale(0.100000,-0.100000)"
fill="#000000" stroke="none">
811 c445 -92 729 -532 635 -987 -62 -301 -295 -546 -601 -630 -91 -26 -329
-26 -420 0 -291 80 -516 305 -596 596 -26 91 -26 329 0 420 120 433 542 692
982 601z"/>
<path d="M665 1346 c-57 -26 -105 -101 -105 -166 0 -39 24 -98 53 -128 39 -42
71 -52 165 -52 83 0 91 2 116 26 24 25 26 33 26 117 0 107 -21 155 -86 193
-47 27 -120 32 -169 10z"/>
<path d="M1076 1337 c-21 -13 -49 -42 -62 -63 -20 -33 -24 -52 -24 -130 0 -85
2 -93 26 -118 25 -24 33 -26 119 -26 79 0 97 3 126 23 89 60 114 173 56 257
-37 55 -70 74 -140 78 -52 2 -68 -1 -101 -21z"/>
<path d="M685 928 c-79 -28 -135 -124 -121 -205 25 -133 182 -198 284 -116 57
45 72 84 72 185 0 77 -3 90 -24 115 -22 26 -30 28 -103 30 -43 1 -91 -2 -108
-9z"/>
<path d="M1044 930 c-42 -17 -54 -49 -54 -140 0 -99 15 -138 72 -183 102 -82
259 -17 284 116 15 83 -43 179 -125 206 -39 13 -146 14 -177 1z"/>
</g>
</svg>
