<?xml version="1.0" standalone="no"?>
<!DOCTYPE svg PUBLIC "-//W3C//DTD SVG 20010904//EN"
 "http://www.w3.org/TR/2001/REC-SVG-20010904/DTD/svg10.dtd">
<svg version="1.0" xmlns="http://www.w3.org/2000/svg"
 width="192.000000pt" height="192.000000pt" viewBox="0 0 192.000000 192.000000"
 preserveAspectRatio="xMidYMid meet">
<metadata>
Created by potrace 1.16, written by Peter Selinger 2001-2019
</metadata>
<g transform="translate(0.000000,192.000000) scale(0.100000,-0.100000)"
fill="#000000" stroke="none">
811 c445 -92 729 -532 635 -987 -62 -301 -295 -546 -601 -630 -91 -26 -329
-26 -420 0 -291 80 -516 305 -596 596 -26 91 -26 329 0 420 120 433 542 692
982 601z"/>
<path d="M610 1176 l0 -176 35 0 35 0 0 67 c0 76 8 75 31 -5 15 -55 17 -57 52
-60 l37 -3 0 175 0 176 -35 0 -35 0 -1 -67 -1 -68 -22 65 c-22 63 -24 65 -59
68 l-37 3 0 -175z"/>
<path d="M840 1175 l0 -175 119 1 120 0 7 57 c8 61 7 61 28 -30 6 -25 11 -28
46 -28 22 0 40 2 40 5 0 3 -10 45 -22 92 -19 78 -20 94 -10 155 17 98 17 98
-22 98 -31 0 -34 -3 -43 -42 l-9 -43 -8 43 c-8 41 -9 42 -47 42 -45 0 -46 -3
-28 -94 9 -44 9 -76 -2 -149 -8 -50 -15 -80 -17 -65 -3 22 -9 27 -35 30 -29 3
-32 6 -32 38 0 31 3 35 28 38 22 3 27 8 27 32 0 24 -5 29 -27 32 -24 3 -28 8
-28 33 0 25 4 30 28 33 24 3 27 8 27 38 l0 34 -70 0 -70 0 0 -175z"/>
<path d="M1210 1175 l0 -175 45 0 45 0 0 175 0 175 -45 0 -45 0 0 -175z"/>
<path d="M620 750 l0 -170 40 0 39 0 3 67 3 68 39 6 c21 3 42 12 47 20 5 8 9
44 9 80 0 88 -12 99 -108 99 l-72 0 0 -170z m110 70 c0 -29 -4 -40 -15 -40
-11 0 -15 11 -15 40 0 29 4 40 15 40 11 0 15 -11 15 -40z"/>
<path d="M835 888 c-8 -54 -35 -271 -35 -290 0 -15 8 -18 45 -18 43 0 45 1 45
30 0 20 5 30 15 30 10 0 15 -10 15 -30 0 -29 2 -30 45 -30 29 0 45 4 45 13 0
6 -10 83 -22 170 l-22 157 -63 0 -62 0 -6 -32z m78 -130 c5 -48 3 -58 -10 -58
-12 0 -14 8 -9 38 3 20 6 48 6 61 0 41 7 19 13 -41z"/>
<path d="M1011 819 c19 -67 29 -126 29 -171 l0 -68 40 0 40 0 0 58 c0 34 12
98 30 157 16 55 30 106 30 113 0 7 -14 12 -39 12 l-39 0 -9 -57 -9 -58 -10 55
-9 55 -41 3 -41 3 28 -102z"/>
</g>
</svg>
