<?xml version="1.0" standalone="no"?>
<!DOCTYPE svg PUBLIC "-//W3C//DTD SVG 20010904//EN"
 "http://www.w3.org/TR/2001/REC-SVG-20010904/DTD/svg10.dtd">
<svg version="1.0" xmlns="http://www.w3.org/2000/svg"
 width="192.000000pt" height="192.000000pt" viewBox="0 0 192.000000 192.000000"
 preserveAspectRatio="xMidYMid meet">
<metadata>
Created by potrace 1.16, written by Peter Selinger 2001-2019
</metadata>
<g transform="translate(0.000000,192.000000) scale(0.100000,-0.100000)"
fill="#000000" stroke="none">
811 c445 -92 729 -532 635 -987 -62 -301 -295 -546 -601 -630 -91 -26 -329
-26 -420 0 -291 80 -516 305 -596 596 -26 91 -26 329 0 420 120 433 542 692
982 601z"/>
<path d="M1005 1309 c-71 -9 -146 -50 -194 -106 -34 -40 -43 -46 -58 -37 -10
6 -23 28 -28 48 -14 48 -28 56 -96 56 -61 0 -79 -11 -79 -50 0 -82 52 -158
128 -186 26 -10 53 -22 60 -27 9 -7 12 -55 12 -177 l0 -168 31 -26 c35 -30 49
-32 88 -11 43 22 51 60 51 247 0 183 5 207 56 247 32 25 101 28 143 7 60 -32
66 -52 71 -268 5 -181 7 -199 25 -218 11 -11 34 -22 52 -26 27 -5 37 -1 63 24
l30 30 0 204 c0 229 -7 268 -64 335 -67 77 -178 116 -291 102z"/>
</g>
</svg>
