<?xml version="1.0" standalone="no"?>
<!DOCTYPE svg PUBLIC "-//W3C//DTD SVG 20010904//EN"
 "http://www.w3.org/TR/2001/REC-SVG-20010904/DTD/svg10.dtd">
<svg version="1.0" xmlns="http://www.w3.org/2000/svg"
 width="192.000000pt" height="192.000000pt" viewBox="0 0 192.000000 192.000000"
 preserveAspectRatio="xMidYMid meet">
<metadata>
Created by potrace 1.16, written by Peter Selinger 2001-2019
</metadata>
<g transform="translate(0.000000,192.000000) scale(0.100000,-0.100000)"
fill="#000000" stroke="none">
811 c445 -92 729 -532 635 -987 -62 -301 -295 -546 -601 -630 -91 -26 -329
-26 -420 0 -291 80 -516 305 -596 596 -26 91 -26 329 0 420 120 433 542 692
982 601z"/>
<path d="M887 1166 c-40 -15 -69 -36 -100 -73 l-18 -22 -32 19 c-71 44 -165
15 -205 -63 -19 -37 -23 -54 -17 -87 10 -57 68 -115 123 -125 41 -7 102 12
117 35 5 8 17 0 36 -23 80 -97 226 -103 319 -12 l36 35 42 -21 c125 -62 259
77 193 201 -39 74 -137 104 -205 62 l-30 -18 -40 41 c-61 61 -140 79 -219 51z
m137 -147 c14 -17 26 -39 26 -50 0 -50 -49 -99 -100 -99 -10 0 -32 12 -49 26
-25 21 -31 33 -31 65 0 86 100 123 154 58z m-344 -44 c13 -16 6 -35 -15 -35
-18 0 -28 17 -21 35 7 19 20 19 36 0z m588 -13 c3 -17 -2 -22 -17 -22 -14 0
-21 6 -21 18 0 38 33 41 38 4z"/>
</g>
</svg>
