<?xml version="1.0" standalone="no"?>
<!DOCTYPE svg PUBLIC "-//W3C//DTD SVG 20010904//EN"
 "http://www.w3.org/TR/2001/REC-SVG-20010904/DTD/svg10.dtd">
<svg version="1.0" xmlns="http://www.w3.org/2000/svg"
 width="192.000000pt" height="192.000000pt" viewBox="0 0 192.000000 192.000000"
 preserveAspectRatio="xMidYMid meet">
<metadata>
Created by potrace 1.16, written by Peter Selinger 2001-2019
</metadata>
<g transform="translate(0.000000,192.000000) scale(0.100000,-0.100000)"
fill="#000000" stroke="none">
811 c445 -92 729 -532 635 -987 -62 -301 -295 -546 -601 -630 -91 -26 -329
-26 -420 0 -291 80 -516 305 -596 596 -26 91 -26 329 0 420 120 433 542 692
982 601z"/>
<path d="M610 1353 c-14 -3 -29 -8 -33 -13 -12 -11 -9 -183 4 -254 20 -102 7
-96 190 -96 l159 0 -2 163 -3 162 -65 16 c-69 17 -209 29 -250 22z"/>
<path d="M1150 1350 c-41 -5 -95 -15 -120 -23 l-45 -13 0 -69 0 -68 43 -15
c55 -18 105 -68 127 -126 l18 -46 63 0 c74 0 76 3 94 98 13 74 16 241 3 252
-14 14 -104 19 -183 10z"/>
<path d="M602 923 c-29 -57 -46 -313 -22 -337 17 -17 193 -9 275 11 l70 18 3
163 2 162 -159 0 c-143 0 -161 -2 -169 -17z"/>
<path d="M982 778 l3 -163 70 -18 c84 -21 258 -28 276 -10 24 24 7 281 -22
335 -9 16 -27 18 -170 18 l-159 0 2 -162z"/>
</g>
</svg>
