<?xml version="1.0" standalone="no"?>
<!DOCTYPE svg PUBLIC "-//W3C//DTD SVG 20010904//EN"
 "http://www.w3.org/TR/2001/REC-SVG-20010904/DTD/svg10.dtd">
<svg version="1.0" xmlns="http://www.w3.org/2000/svg"
 width="192.000000pt" height="192.000000pt" viewBox="0 0 192.000000 192.000000"
 preserveAspectRatio="xMidYMid meet">
<metadata>
Created by potrace 1.16, written by Peter Selinger 2001-2019
</metadata>
<g transform="translate(0.000000,192.000000) scale(0.100000,-0.100000)"
fill="#000000" stroke="none">
811 c445 -92 729 -532 635 -987 -62 -301 -295 -546 -601 -630 -91 -26 -329
-26 -420 0 -291 80 -516 305 -596 596 -26 91 -26 329 0 420 120 433 542 692
982 601z"/>
<path d="M752 1328 c-9 -9 -12 -105 -12 -370 0 -343 1 -358 19 -368 12 -6 96
-10 205 -10 173 0 187 1 206 20 19 19 20 33 20 358 0 289 -2 341 -16 360 -15
21 -20 22 -213 22 -140 0 -200 -3 -209 -12z m217 -350 l61 -82 0 82 c0 75 2
82 20 82 19 0 20 -7 20 -105 l0 -105 -25 0 c-19 0 -38 17 -82 77 l-58 77 -3
-77 c-3 -69 -5 -77 -22 -77 -19 0 -20 7 -20 105 0 104 0 105 24 105 18 0 38
-19 85 -82z"/>
<path d="M612 1088 c-60 -77 -54 -223 13 -278 13 -11 18 -11 31 2 13 13 12 20
-10 63 -32 60 -33 99 -3 156 26 48 25 69 -3 69 -9 0 -22 -6 -28 -12z"/>
<path d="M1244 1086 c-3 -8 4 -28 16 -44 34 -46 36 -107 7 -164 -20 -40 -22
-51 -12 -65 12 -17 14 -17 35 2 55 48 67 160 27 236 -24 46 -62 64 -73 35z"/>
<path d="M662 1008 c-14 -14 -16 -86 -3 -106 5 -8 17 -12 27 -10 16 3 19 12
19 63 0 46 -4 60 -15 63 -9 1 -21 -3 -28 -10z"/>
<path d="M1207 1013 c-2 -5 -4 -31 -3 -60 1 -62 15 -82 40 -58 19 19 22 95 4
113 -14 14 -35 16 -41 5z"/>
</g>
</svg>
