<?xml version="1.0" standalone="no"?>
<!DOCTYPE svg PUBLIC "-//W3C//DTD SVG 20010904//EN"
 "http://www.w3.org/TR/2001/REC-SVG-20010904/DTD/svg10.dtd">
<svg version="1.0" xmlns="http://www.w3.org/2000/svg"
 width="192.000000pt" height="192.000000pt" viewBox="0 0 192.000000 192.000000"
 preserveAspectRatio="xMidYMid meet">
<metadata>
Created by potrace 1.16, written by Peter Selinger 2001-2019
</metadata>
<g transform="translate(0.000000,192.000000) scale(0.100000,-0.100000)"
fill="#000000" stroke="none">
811 c445 -92 729 -532 635 -987 -62 -301 -295 -546 -601 -630 -91 -26 -329
-26 -420 0 -291 80 -516 305 -596 596 -26 91 -26 329 0 420 120 433 542 692
982 601z"/>
<path d="M801 1312 c-19 -9 -44 -30 -55 -45 -20 -27 -21 -44 -24 -290 -2 -235
-1 -266 15 -296 34 -66 59 -76 200 -79 149 -4 200 9 233 62 19 31 20 49 20
301 0 251 -1 270 -20 300 -31 51 -80 65 -218 65 -92 0 -124 -4 -151 -18z m145
-294 l64 -61 0 50 c0 58 19 84 45 63 22 -18 21 -192 -1 -210 -13 -11 -24 -4
-77 48 -35 34 -66 62 -70 62 -4 0 -7 -24 -7 -54 0 -53 -10 -68 -37 -59 -9 3
-13 34 -13 108 0 97 3 108 28 114 2 1 33 -27 68 -61z"/>
<path d="M573 1073 c-38 -65 -39 -148 -3 -213 16 -29 33 -46 48 -48 32 -5 38
22 11 59 -35 50 -37 117 -5 175 20 36 24 50 15 60 -20 24 -37 15 -66 -33z"/>
<path d="M1266 1105 c-3 -8 6 -31 19 -51 32 -47 33 -111 4 -171 -12 -24 -18
-50 -15 -58 21 -56 96 53 96 140 0 66 -46 155 -80 155 -10 0 -20 -7 -24 -15z"/>
<path d="M646 1021 c-33 -36 -11 -143 26 -128 12 4 16 22 16 71 0 70 -14 88
-42 57z"/>
<path d="M1229 1038 c-7 -12 -4 -126 3 -135 15 -19 36 -4 48 32 13 39 -9 105
-34 105 -9 0 -17 -1 -17 -2z"/>
</g>
</svg>
