<?xml version="1.0" standalone="no"?>
<!DOCTYPE svg PUBLIC "-//W3C//DTD SVG 20010904//EN"
 "http://www.w3.org/TR/2001/REC-SVG-20010904/DTD/svg10.dtd">
<svg version="1.0" xmlns="http://www.w3.org/2000/svg"
 width="192.000000pt" height="192.000000pt" viewBox="0 0 192.000000 192.000000"
 preserveAspectRatio="xMidYMid meet">
<metadata>
Created by potrace 1.16, written by Peter Selinger 2001-2019
</metadata>
<g transform="translate(0.000000,192.000000) scale(0.100000,-0.100000)"
fill="#000000" stroke="none">
811 c445 -92 729 -532 635 -987 -62 -301 -295 -546 -601 -630 -91 -26 -329
-26 -420 0 -291 80 -516 305 -596 596 -26 91 -26 329 0 420 120 433 542 692
982 601z"/>
<path d="M924 1359 c-28 -31 -93 -66 -137 -74 -22 -5 -57 -2 -84 6 -75 20 -74
21 -71 -299 l3 -274 37 -33 c34 -32 55 -40 154 -65 23 -5 58 -21 78 -35 47
-32 54 -31 113 4 26 16 72 34 102 40 84 18 118 38 141 85 19 39 20 61 20 297
0 299 0 300 -73 280 -27 -8 -62 -11 -84 -6 -44 8 -109 43 -137 74 -11 12 -24
21 -31 21 -7 0 -20 -9 -31 -21z m-179 -189 c0 -18 -6 -26 -23 -28 -24 -4 -38
18 -28 44 3 9 15 14 28 12 17 -2 23 -10 23 -28z m114 16 c6 -7 9 -21 5 -30 -8
-21 -50 -21 -58 0 -7 19 10 44 29 44 7 0 18 -6 24 -14z m126 -6 c8 -26 -1 -40
-26 -40 -22 0 -34 22 -25 45 8 22 44 18 51 -5z m113 3 c13 -26 4 -43 -24 -43
-29 0 -41 24 -24 45 17 20 37 19 48 -2z m117 -13 c0 -18 -6 -26 -23 -28 -24
-4 -38 18 -28 44 3 9 15 14 28 12 17 -2 23 -10 23 -28z m-11 -116 c13 -13 16
-41 16 -155 0 -77 -4 -148 -10 -158 -11 -21 -40 -34 -128 -55 -35 -9 -73 -23
-85 -31 -27 -19 -52 -19 -80 0 -13 8 -58 23 -100 34 -132 33 -127 25 -127 206
0 136 2 155 18 164 10 6 110 11 249 11 197 0 234 -2 247 -16z"/>
<path d="M761 979 c7 -14 10 -56 7 -115 -4 -87 -3 -93 17 -98 11 -3 23 -6 27
-6 4 0 5 26 2 58 l-4 57 20 -55 c19 -52 44 -89 54 -79 2 2 6 61 7 132 l4 127
-27 0 c-26 0 -26 -1 -22 -62 l4 -63 -21 63 c-19 57 -23 62 -50 62 -27 0 -29
-2 -18 -21z"/>
<path d="M910 991 c0 -6 5 -13 10 -16 14 -9 13 -208 -1 -222 -8 -8 -3 -15 19
-27 17 -9 33 -16 36 -16 2 0 2 34 -1 76 -6 76 -6 76 18 72 20 -2 25 2 27 26 3
26 1 28 -22 22 -24 -6 -26 -4 -26 29 0 37 10 44 30 20 19 -23 30 -18 30 15 l0
30 -60 0 c-33 0 -60 -4 -60 -9z"/>
<path d="M1046 983 c14 -31 17 -174 3 -200 -18 -33 -6 -38 53 -22 51 14 53 15
56 52 2 27 -1 37 -12 37 -8 0 -16 -10 -18 -22 -2 -12 -9 -23 -17 -26 -11 -4
-13 14 -9 97 l4 101 -34 0 c-29 0 -33 -3 -26 -17z"/>
</g>
</svg>
