<?xml version="1.0" standalone="no"?>
<!DOCTYPE svg PUBLIC "-//W3C//DTD SVG 20010904//EN"
 "http://www.w3.org/TR/2001/REC-SVG-20010904/DTD/svg10.dtd">
<svg version="1.0" xmlns="http://www.w3.org/2000/svg"
 width="192.000000pt" height="192.000000pt" viewBox="0 0 192.000000 192.000000"
 preserveAspectRatio="xMidYMid meet">
<metadata>
Created by potrace 1.16, written by Peter Selinger 2001-2019
</metadata>
<g transform="translate(0.000000,192.000000) scale(0.100000,-0.100000)"
fill="#000000" stroke="none">
811 c445 -92 729 -532 635 -987 -62 -301 -295 -546 -601 -630 -91 -26 -329
-26 -420 0 -291 80 -516 305 -596 596 -26 91 -26 329 0 420 120 433 542 692
982 601z"/>
<path d="M912 1350 c-42 -39 -92 -40 -138 -5 -43 33 -60 32 -73 -7 -14 -40
-49 -78 -72 -78 -34 0 -40 -23 -19 -83 26 -73 25 -96 -6 -198 -38 -126 -24
-200 55 -282 46 -49 94 -74 177 -91 40 -8 75 -23 90 -37 l24 -22 23 21 c13 12
53 28 97 38 96 21 137 42 184 94 73 81 88 173 48 288 -27 77 -28 127 -2 194
22 58 17 72 -31 82 -24 5 -34 15 -52 56 -12 27 -28 50 -35 50 -7 0 -30 -11
-50 -25 -49 -34 -90 -32 -137 5 -21 17 -41 30 -44 30 -3 0 -21 -14 -39 -30z
m80 -90 c38 -23 92 -25 127 -6 22 12 27 10 67 -31 39 -38 42 -46 34 -69 -16
-41 -11 -126 10 -187 36 -102 23 -165 -49 -229 -22 -21 -44 -38 -49 -38 -4 -1
-45 -11 -92 -23 -74 -20 -91 -21 -130 -11 -25 7 -67 18 -95 25 -57 15 -121 68
-142 116 -18 45 -16 94 7 160 21 61 26 146 10 187 -8 23 -5 31 34 69 40 41 45
43 67 31 35 -19 89 -17 124 5 38 25 38 25 77 1z"/>
<path d="M939 1239 c-33 -21 -89 -30 -128 -19 -36 9 -41 8 -68 -17 -27 -27
-28 -30 -19 -81 7 -39 5 -68 -8 -119 -9 -36 -14 -68 -12 -70 2 -2 85 58 186
134 l183 138 -41 11 c-22 7 -48 17 -59 22 -12 7 -24 7 -34 1z"/>
<path d="M916 1048 c-247 -187 -247 -187 -206 -253 11 -18 32 -40 46 -50 25
-16 26 -16 224 132 l199 148 1 40 c0 22 4 56 9 77 8 33 6 38 -19 57 l-28 20
-226 -171z m174 42 c0 -27 2 -50 5 -50 3 0 17 7 30 16 24 15 25 15 25 -2 -1
-11 -20 -33 -45 -51 l-43 -32 -4 72 c-3 68 3 97 23 97 5 0 9 -22 9 -50z m-72
-151 c-9 -6 -14 -2 -16 11 -4 22 -4 22 -26 14 -10 -4 -16 -18 -16 -40 0 -23
-6 -37 -19 -44 -18 -9 -20 -5 -23 61 -2 55 1 74 13 85 22 20 29 18 29 -13 0
-25 0 -26 20 -8 11 10 20 30 20 45 0 14 6 32 13 39 10 10 13 -3 15 -65 2 -55
-1 -80 -10 -85z m-143 -108 c-15 -15 -18 -14 -35 9 l-20 25 0 -36 c0 -32 -23
-70 -34 -58 -3 2 -6 35 -7 72 -2 58 1 70 18 82 18 12 21 11 39 -18 l19 -32 3
50 c2 27 9 53 15 57 20 12 22 -131 2 -151z"/>
<path d="M996 852 l-179 -136 69 -17 c66 -16 72 -16 149 3 44 11 94 28 112 39
45 28 73 78 73 129 0 52 -19 120 -34 119 -6 0 -92 -62 -190 -137z"/>
</g>
</svg>
