<?xml version="1.0" standalone="no"?>
<!DOCTYPE svg PUBLIC "-//W3C//DTD SVG 20010904//EN"
 "http://www.w3.org/TR/2001/REC-SVG-20010904/DTD/svg10.dtd">
<svg version="1.0" xmlns="http://www.w3.org/2000/svg"
 width="192.000000pt" height="192.000000pt" viewBox="0 0 192.000000 192.000000"
 preserveAspectRatio="xMidYMid meet">
<metadata>
Created by potrace 1.16, written by Peter Selinger 2001-2019
</metadata>
<g transform="translate(0.000000,192.000000) scale(0.100000,-0.100000)"
fill="#000000" stroke="none">
811 c445 -92 729 -532 635 -987 -62 -301 -295 -546 -601 -630 -91 -26 -329
-26 -420 0 -291 80 -516 305 -596 596 -26 91 -26 329 0 420 120 433 542 692
982 601z"/>
<path d="M562 1098 c-8 -8 -12 -52 -12 -134 0 -99 3 -124 16 -135 30 -25 49 1
54 76 l5 69 58 -77 c59 -79 81 -91 111 -61 23 23 23 235 0 258 -37 38 -62 12
-66 -69 l-3 -60 -50 65 c-27 36 -54 68 -60 72 -15 11 -40 9 -53 -4z"/>
<path d="M860 1091 c-5 -11 -10 -68 -10 -126 0 -111 9 -145 38 -145 29 0 42
21 42 67 l0 43 44 0 45 0 3 -46 c3 -54 26 -77 55 -58 16 10 18 28 18 139 0
111 -2 129 -18 139 -29 19 -52 -4 -55 -58 l-3 -46 -45 0 -44 0 0 43 c0 24 -5
48 -12 55 -18 18 -46 14 -58 -7z"/>
<path d="M1185 1098 c-31 -18 -44 -40 -45 -73 0 -46 25 -72 85 -91 30 -10 55
-24 55 -31 0 -16 -33 -17 -77 -1 -28 10 -36 10 -49 -4 -38 -38 15 -78 103 -78
36 0 50 6 74 29 57 58 27 129 -65 152 -28 7 -46 17 -46 26 0 11 13 13 58 11
52 -3 57 -1 60 19 2 13 -5 27 -20 37 -26 19 -104 21 -133 4z"/>
</g>
</svg>
