<?xml version="1.0" standalone="no"?>
<!DOCTYPE svg PUBLIC "-//W3C//DTD SVG 20010904//EN"
 "http://www.w3.org/TR/2001/REC-SVG-20010904/DTD/svg10.dtd">
<svg version="1.0" xmlns="http://www.w3.org/2000/svg"
 width="192.000000pt" height="192.000000pt" viewBox="0 0 192.000000 192.000000"
 preserveAspectRatio="xMidYMid meet">
<metadata>
Created by potrace 1.16, written by Peter Selinger 2001-2019
</metadata>
<g transform="translate(0.000000,192.000000) scale(0.100000,-0.100000)"
fill="#000000" stroke="none">
811 c445 -92 729 -532 635 -987 -62 -301 -295 -546 -601 -630 -91 -26 -329
-26 -420 0 -291 80 -516 305 -596 596 -26 91 -26 329 0 420 120 433 542 692
982 601z"/>
<path d="M1018 1329 c-24 -41 -53 -120 -60 -163 -2 -14 -15 -4 -50 42 -52 68
-90 97 -113 88 -12 -4 -14 -22 -8 -111 5 -84 3 -118 -12 -170 -21 -80 -75
-166 -139 -222 -48 -42 -48 -43 -32 -67 42 -65 175 -166 218 -166 43 0 161
177 174 262 4 21 10 38 15 38 5 0 9 -4 9 -9 0 -19 98 -117 154 -153 61 -39
100 -48 109 -25 3 8 -9 45 -26 83 -30 65 -32 76 -32 189 0 115 1 123 32 185
17 36 40 78 50 93 18 28 18 28 -7 48 -42 34 -163 88 -211 95 -46 6 -46 6 -71
-37z"/>
</g>
</svg>
