<?xml version="1.0" standalone="no"?>
<!DOCTYPE svg PUBLIC "-//W3C//DTD SVG 20010904//EN"
 "http://www.w3.org/TR/2001/REC-SVG-20010904/DTD/svg10.dtd">
<svg version="1.0" xmlns="http://www.w3.org/2000/svg"
 width="192.000000pt" height="192.000000pt" viewBox="0 0 192.000000 192.000000"
 preserveAspectRatio="xMidYMid meet">
<metadata>
Created by potrace 1.16, written by Peter Selinger 2001-2019
</metadata>
<g transform="translate(0.000000,192.000000) scale(0.100000,-0.100000)"
fill="#000000" stroke="none">
811 c445 -92 729 -532 635 -987 -62 -301 -295 -546 -601 -630 -91 -26 -329
-26 -420 0 -291 80 -516 305 -596 596 -26 91 -26 329 0 420 120 433 542 692
982 601z"/>
<path d="M813 1350 c-105 -38 -195 -120 -242 -219 -23 -50 -26 -68 -26 -166 0
-98 3 -116 26 -165 73 -153 212 -240 385 -240 170 0 306 85 382 240 24 50 27
66 27 165 0 100 -2 115 -28 167 -43 88 -107 152 -195 195 -71 36 -82 38 -176
40 -78 2 -113 -2 -153 -17z m35 -236 c22 -15 30 -57 14 -80 -25 -39 -90 -36
-111 5 -15 27 -14 35 10 65 23 29 54 33 87 10z m305 -16 c17 -23 19 -31 9 -53
-29 -64 -121 -46 -122 24 0 62 75 81 113 29z m-332 -234 c13 -15 44 -36 68
-46 62 -29 118 -18 177 33 37 32 49 37 65 29 66 -36 -67 -140 -178 -140 -64 0
-107 16 -156 60 -38 33 -46 57 -25 78 17 17 21 15 49 -14z"/>
</g>
</svg>
