<?xml version="1.0" standalone="no"?>
<!DOCTYPE svg PUBLIC "-//W3C//DTD SVG 20010904//EN"
 "http://www.w3.org/TR/2001/REC-SVG-20010904/DTD/svg10.dtd">
<svg version="1.0" xmlns="http://www.w3.org/2000/svg"
 width="192.000000pt" height="192.000000pt" viewBox="0 0 192.000000 192.000000"
 preserveAspectRatio="xMidYMid meet">
<metadata>
Created by potrace 1.16, written by Peter Selinger 2001-2019
</metadata>
<g transform="translate(0.000000,192.000000) scale(0.100000,-0.100000)"
fill="#000000" stroke="none">
811 c445 -92 729 -532 635 -987 -62 -301 -295 -546 -601 -630 -91 -26 -329
-26 -420 0 -291 80 -516 305 -596 596 -26 91 -26 329 0 420 120 433 542 692
982 601z"/>
<path d="M861 1365 c-228 -50 -370 -290 -303 -512 40 -132 150 -242 280 -279
73 -22 197 -15 275 15 165 64 278 264 247 439 -31 177 -161 308 -339 342 -66
12 -80 12 -160 -5z m317 -218 c67 -71 86 -207 43 -303 -66 -150 -250 -214
-397 -139 -67 35 -84 56 -65 79 9 11 31 16 70 16 163 0 278 112 289 279 6 93
21 110 60 68z"/>
</g>
</svg>
