<?xml version="1.0" standalone="no"?>
<!DOCTYPE svg PUBLIC "-//W3C//DTD SVG 20010904//EN"
 "http://www.w3.org/TR/2001/REC-SVG-20010904/DTD/svg10.dtd">
<svg version="1.0" xmlns="http://www.w3.org/2000/svg"
 width="192.000000pt" height="192.000000pt" viewBox="0 0 192.000000 192.000000"
 preserveAspectRatio="xMidYMid meet">
<metadata>
Created by potrace 1.16, written by Peter Selinger 2001-2019
</metadata>
<g transform="translate(0.000000,192.000000) scale(0.100000,-0.100000)"
fill="#000000" stroke="none">
811 c445 -92 729 -532 635 -987 -62 -301 -295 -546 -601 -630 -91 -26 -329
-26 -420 0 -291 80 -516 305 -596 596 -26 91 -26 329 0 420 120 433 542 692
982 601z"/>
<path d="M856 1369 c-115 -28 -225 -121 -279 -237 -29 -61 -32 -76 -32 -162 1
-110 21 -174 83 -255 161 -212 488 -211 651 2 167 217 77 535 -179 634 -62 25
-184 33 -244 18z m359 -264 c0 -14 -55 -59 -193 -157 -192 -137 -233 -157
-287 -144 -35 9 -59 59 -51 109 15 91 64 129 83 65 15 -53 52 -44 248 60 94
50 177 90 185 89 8 -1 15 -11 15 -22z"/>
</g>
</svg>
