<?xml version="1.0" standalone="no"?>
<!DOCTYPE svg PUBLIC "-//W3C//DTD SVG 20010904//EN"
 "http://www.w3.org/TR/2001/REC-SVG-20010904/DTD/svg10.dtd">
<svg version="1.0" xmlns="http://www.w3.org/2000/svg"
 width="192.000000pt" height="192.000000pt" viewBox="0 0 192.000000 192.000000"
 preserveAspectRatio="xMidYMid meet">
<metadata>
Created by potrace 1.16, written by Peter Selinger 2001-2019
</metadata>
<g transform="translate(0.000000,192.000000) scale(0.100000,-0.100000)"
fill="#000000" stroke="none">
811 c445 -92 729 -532 635 -987 -62 -301 -295 -546 -601 -630 -91 -26 -329
-26 -420 0 -291 80 -516 305 -596 596 -26 91 -26 329 0 420 120 433 542 692
982 601z"/>
<path d="M683 1319 c-22 -11 -54 -39 -70 -61 l-28 -41 -3 -238 c-3 -220 -2
-241 17 -276 24 -48 56 -78 103 -98 54 -22 452 -22 506 0 47 20 79 50 103 98
19 35 20 56 17 276 l-3 238 -29 41 c-52 76 -78 82 -342 82 -211 0 -232 -2
-271 -21z m532 -214 c0 -13 -56 -59 -170 -142 -238 -172 -275 -188 -331 -140
-22 20 -27 32 -26 68 2 98 60 161 80 87 14 -56 41 -50 244 56 101 53 188 94
193 92 6 -1 10 -11 10 -21z"/>
</g>
</svg>
