<?xml version="1.0" standalone="no"?>
<!DOCTYPE svg PUBLIC "-//W3C//DTD SVG 20010904//EN"
 "http://www.w3.org/TR/2001/REC-SVG-20010904/DTD/svg10.dtd">
<svg version="1.0" xmlns="http://www.w3.org/2000/svg"
 width="192.000000pt" height="192.000000pt" viewBox="0 0 192.000000 192.000000"
 preserveAspectRatio="xMidYMid meet">
<metadata>
Created by potrace 1.16, written by Peter Selinger 2001-2019
</metadata>
<g transform="translate(0.000000,192.000000) scale(0.100000,-0.100000)"
fill="#000000" stroke="none">
811 c445 -92 729 -532 635 -987 -62 -301 -295 -546 -601 -630 -91 -26 -329
-26 -420 0 -291 80 -516 305 -596 596 -26 91 -26 329 0 420 120 433 542 692
982 601z"/>
<path d="M995 1324 c-63 -53 -123 -74 -218 -74 -103 0 -140 -13 -184 -63 -47
-54 -55 -96 -51 -290 3 -198 13 -230 87 -282 l43 -30 283 0 283 0 43 30 c74
52 84 84 87 282 4 194 -4 236 -51 290 -43 48 -82 63 -172 63 l-75 0 0 38 c0
37 -14 62 -34 62 -6 -1 -24 -12 -41 -26z m172 -260 c3 -9 -7 -28 -28 -50 l-33
-34 31 -32 c30 -32 34 -58 8 -58 -7 0 -31 20 -54 45 -47 51 -46 61 14 114 40
35 53 38 62 15z m-297 -19 c53 -57 13 -145 -66 -145 -75 0 -113 92 -59 145 34
35 93 34 125 0z m146 -197 c75 -45 71 -66 -22 -118 -66 -36 -78 -27 -82 54 -2
38 -1 75 2 83 9 22 45 15 102 -19z"/>
</g>
</svg>
