<?xml version="1.0" standalone="no"?>
<!DOCTYPE svg PUBLIC "-//W3C//DTD SVG 20010904//EN"
 "http://www.w3.org/TR/2001/REC-SVG-20010904/DTD/svg10.dtd">
<svg version="1.0" xmlns="http://www.w3.org/2000/svg"
 width="192.000000pt" height="192.000000pt" viewBox="0 0 192.000000 192.000000"
 preserveAspectRatio="xMidYMid meet">
<metadata>
Created by potrace 1.16, written by Peter Selinger 2001-2019
</metadata>
<g transform="translate(0.000000,192.000000) scale(0.100000,-0.100000)"
fill="#000000" stroke="none">
811 c445 -92 729 -532 635 -987 -62 -301 -295 -546 -601 -630 -91 -26 -329
-26 -420 0 -291 80 -516 305 -596 596 -26 91 -26 329 0 420 120 433 542 692
982 601z"/>
<path d="M857 1370 c-111 -28 -219 -119 -270 -227 -27 -58 -32 -81 -35 -163
-4 -112 15 -181 73 -262 l36 -49 -31 -36 c-19 -21 -30 -43 -28 -56 3 -22 5
-22 233 -22 l230 0 56 28 c163 79 246 223 237 406 -3 70 -10 99 -34 151 -40
85 -112 158 -196 199 -56 28 -80 34 -150 37 -46 2 -100 -1 -121 -6z m212 -234
c26 -19 50 -47 67 -83 23 -46 26 -62 21 -110 -20 -193 -260 -254 -372 -95 -26
38 -30 52 -30 111 0 58 4 75 30 116 42 68 100 98 181 93 48 -3 71 -10 103 -32z"/>
</g>
</svg>
