<?xml version="1.0" standalone="no"?>
<!DOCTYPE svg PUBLIC "-//W3C//DTD SVG 20010904//EN"
 "http://www.w3.org/TR/2001/REC-SVG-20010904/DTD/svg10.dtd">
<svg version="1.0" xmlns="http://www.w3.org/2000/svg"
 width="192.000000pt" height="192.000000pt" viewBox="0 0 192.000000 192.000000"
 preserveAspectRatio="xMidYMid meet">
<metadata>
Created by potrace 1.16, written by Peter Selinger 2001-2019
</metadata>
<g transform="translate(0.000000,192.000000) scale(0.100000,-0.100000)"
fill="#000000" stroke="none">
811 c445 -92 729 -532 635 -987 -62 -301 -295 -546 -601 -630 -91 -26 -329
-26 -420 0 -291 80 -516 305 -596 596 -26 91 -26 329 0 420 120 433 542 692
982 601z"/>
<path d="M651 1332 c-19 -9 -44 -30 -55 -45 -20 -27 -21 -43 -24 -310 -2 -254
-1 -285 15 -316 33 -64 60 -76 189 -79 80 -3 119 0 129 8 13 11 15 70 15 374
0 268 -3 365 -12 374 -20 20 -215 16 -257 -6z m199 -368 l0 -316 -83 3 c-52 3
-90 9 -101 18 -15 12 -16 43 -14 300 l3 285 25 13 c14 7 58 13 98 13 l72 0 0
-316z"/>
<path d="M707 1182 c-23 -25 -21 -58 3 -82 27 -27 46 -25 76 5 18 19 23 31 19
48 -14 46 -68 62 -98 29z"/>
<path d="M1008 1340 c-17 -10 -18 -39 -18 -375 0 -360 0 -364 21 -376 13 -6
62 -9 129 -7 122 3 150 16 182 79 16 30 18 67 18 304 0 297 -3 315 -63 359
-24 18 -45 21 -140 24 -67 1 -119 -2 -129 -8z m194 -337 c22 -20 23 -51 1 -75
-33 -36 -93 -13 -93 37 0 49 55 72 92 38z"/>
</g>
</svg>
