<?xml version="1.0" standalone="no"?>
<!DOCTYPE svg PUBLIC "-//W3C//DTD SVG 20010904//EN"
 "http://www.w3.org/TR/2001/REC-SVG-20010904/DTD/svg10.dtd">
<svg version="1.0" xmlns="http://www.w3.org/2000/svg"
 width="192.000000pt" height="192.000000pt" viewBox="0 0 192.000000 192.000000"
 preserveAspectRatio="xMidYMid meet">
<metadata>
Created by potrace 1.16, written by Peter Selinger 2001-2019
</metadata>
<g transform="translate(0.000000,192.000000) scale(0.100000,-0.100000)"
fill="#000000" stroke="none">
811 c445 -92 729 -532 635 -987 -62 -301 -295 -546 -601 -630 -91 -26 -329
-26 -420 0 -291 80 -516 305 -596 596 -26 91 -26 329 0 420 120 433 542 692
982 601z"/>
<path d="M825 1270 c-38 -39 -41 -40 -105 -40 -78 0 -124 -24 -146 -75 -20
-49 -20 -411 0 -460 23 -55 66 -75 164 -75 93 0 122 10 122 43 0 44 -15 52
-107 57 l-88 5 0 200 0 200 82 5 c81 6 84 7 126 48 38 37 48 42 88 42 38 0 50
-5 75 -31 43 -45 62 -53 139 -59 l70 -5 3 -202 2 -203 -83 0 c-71 0 -87 -3
-102 -20 -24 -26 -13 -68 20 -76 14 -3 63 -4 110 -3 80 4 86 6 117 37 l33 32
0 235 0 235 -32 32 c-30 30 -39 33 -107 36 -71 4 -76 6 -112 43 l-38 39 -96 0
-96 0 -39 -40z"/>
<path d="M885 1106 c-16 -7 -45 -28 -62 -46 -121 -125 -22 -332 152 -318 118
10 193 113 171 233 -8 43 -68 113 -113 132 -41 16 -109 16 -148 -1z m111 -91
c95 -39 67 -180 -37 -180 -104 0 -131 146 -34 186 28 11 31 11 71 -6z"/>
</g>
</svg>
