<?xml version="1.0" standalone="no"?>
<!DOCTYPE svg PUBLIC "-//W3C//DTD SVG 20010904//EN"
 "http://www.w3.org/TR/2001/REC-SVG-20010904/DTD/svg10.dtd">
<svg version="1.0" xmlns="http://www.w3.org/2000/svg"
 width="192.000000pt" height="192.000000pt" viewBox="0 0 192.000000 192.000000"
 preserveAspectRatio="xMidYMid meet">
<metadata>
Created by potrace 1.16, written by Peter Selinger 2001-2019
</metadata>
<g transform="translate(0.000000,192.000000) scale(0.100000,-0.100000)"
fill="#000000" stroke="none">
811 c445 -92 729 -532 635 -987 -62 -301 -295 -546 -601 -630 -91 -26 -329
-26 -420 0 -291 80 -516 305 -596 596 -26 91 -26 329 0 420 120 433 542 692
982 601z"/>
<path d="M865 1367 c-214 -55 -353 -260 -316 -468 13 -77 59 -173 100 -213
l31 -30 0 180 c0 98 5 199 11 224 30 132 177 190 291 115 59 -39 79 -93 76
-202 -3 -82 -4 -88 -25 -91 -26 -4 -31 10 -35 115 -4 87 -25 122 -85 141 -54
18 -109 -1 -140 -47 -22 -33 -23 -41 -23 -261 l0 -228 53 -23 c43 -19 69 -23
152 -24 92 0 105 3 168 32 244 116 319 415 157 629 -22 30 -45 54 -50 54 -6 0
-10 -78 -10 -200 0 -251 -12 -288 -105 -331 -73 -34 -154 -22 -208 29 -43 41
-58 77 -64 157 -7 89 1 125 26 125 31 0 39 -21 42 -112 4 -75 7 -90 28 -112
55 -58 149 -55 193 7 22 31 23 40 26 264 l3 231 -56 21 c-71 27 -175 34 -240
18z"/>
</g>
</svg>
