<?xml version="1.0" standalone="no"?>
<!DOCTYPE svg PUBLIC "-//W3C//DTD SVG 20010904//EN"
 "http://www.w3.org/TR/2001/REC-SVG-20010904/DTD/svg10.dtd">
<svg version="1.0" xmlns="http://www.w3.org/2000/svg"
 width="192.000000pt" height="192.000000pt" viewBox="0 0 192.000000 192.000000"
 preserveAspectRatio="xMidYMid meet">
<metadata>
Created by potrace 1.16, written by Peter Selinger 2001-2019
</metadata>
<g transform="translate(0.000000,192.000000) scale(0.100000,-0.100000)"
fill="#000000" stroke="none">
811 c445 -92 729 -532 635 -987 -62 -301 -295 -546 -601 -630 -91 -26 -329
-26 -420 0 -291 80 -516 305 -596 596 -26 91 -26 329 0 420 120 433 542 692
982 601z"/>
<path d="M880 1347 c-129 -36 -192 -115 -227 -282 -7 -34 -13 -41 -44 -50 -49
-13 -79 -42 -79 -74 0 -39 26 -69 66 -77 55 -10 64 -33 64 -161 0 -111 0 -114
25 -125 21 -9 28 -8 45 7 11 10 20 24 20 32 0 24 25 14 42 -18 22 -38 57 -37
76 4 16 34 38 35 46 3 3 -14 15 -27 26 -31 26 -8 60 11 60 35 0 29 27 24 42
-7 7 -15 21 -29 31 -31 21 -4 57 24 57 45 0 23 25 14 42 -17 19 -33 48 -39 68
-15 8 10 13 56 15 130 2 123 10 145 52 145 32 0 73 42 73 75 0 43 -18 64 -65
76 -35 9 -46 17 -54 42 -6 16 -11 42 -11 57 0 40 -47 125 -92 165 -76 70 -186
98 -278 72z m2 -204 c25 -23 23 -68 -4 -87 -30 -21 -54 -20 -78 4 -55 55 24
136 82 83z m232 1 c25 -24 20 -71 -9 -90 -21 -14 -30 -14 -55 -4 -38 16 -48
51 -26 85 19 29 66 34 90 9z m-109 -179 c30 -30 31 -54 4 -89 -39 -49 -119
-24 -119 37 0 37 7 49 35 65 31 18 54 14 80 -13z"/>
</g>
</svg>
