<?xml version="1.0" standalone="no"?>
<!DOCTYPE svg PUBLIC "-//W3C//DTD SVG 20010904//EN"
 "http://www.w3.org/TR/2001/REC-SVG-20010904/DTD/svg10.dtd">
<svg version="1.0" xmlns="http://www.w3.org/2000/svg"
 width="192.000000pt" height="192.000000pt" viewBox="0 0 192.000000 192.000000"
 preserveAspectRatio="xMidYMid meet">
<metadata>
Created by potrace 1.16, written by Peter Selinger 2001-2019
</metadata>
<g transform="translate(0.000000,192.000000) scale(0.100000,-0.100000)"
fill="#000000" stroke="none">
811 c445 -92 729 -532 635 -987 -62 -301 -295 -546 -601 -630 -91 -26 -329
-26 -420 0 -291 80 -516 305 -596 596 -26 91 -26 329 0 420 120 433 542 692
982 601z"/>
<path d="M718 1350 c-20 -11 -50 -36 -65 -57 l-28 -36 0 -292 0 -292 28 -36
c53 -70 80 -77 305 -77 l198 0 46 29 c30 19 52 44 67 73 20 42 21 59 21 303 0
244 -1 261 -21 303 -15 29 -37 54 -67 73 l-46 29 -200 0 c-180 -1 -205 -3
-238 -20z m331 -149 c42 -30 64 -76 65 -132 0 -55 -30 -113 -62 -117 -30 -5
-39 23 -18 58 53 91 -32 193 -122 146 -54 -28 -68 -87 -35 -144 19 -34 12 -62
-16 -62 -41 0 -76 88 -61 153 11 51 36 85 80 109 46 25 125 20 169 -11z m-54
-86 c29 -28 31 -51 9 -83 -18 -27 -69 -30 -96 -5 -38 34 -8 113 42 113 12 0
32 -11 45 -25z m143 -294 c2 -13 -2 -28 -10 -32 -19 -12 -325 -11 -349 1 -19
11 -26 40 -12 54 4 3 88 5 187 4 l181 -3 3 -24z m2 -80 c7 -15 6 -23 -6 -35
-13 -13 -44 -16 -183 -16 -180 0 -200 5 -186 50 6 19 14 20 185 20 167 0 180
-1 190 -19z"/>
</g>
</svg>
