<?xml version="1.0" standalone="no"?>
<!DOCTYPE svg PUBLIC "-//W3C//DTD SVG 20010904//EN"
 "http://www.w3.org/TR/2001/REC-SVG-20010904/DTD/svg10.dtd">
<svg version="1.0" xmlns="http://www.w3.org/2000/svg"
 width="192.000000pt" height="192.000000pt" viewBox="0 0 192.000000 192.000000"
 preserveAspectRatio="xMidYMid meet">
<metadata>
Created by potrace 1.16, written by Peter Selinger 2001-2019
</metadata>
<g transform="translate(0.000000,192.000000) scale(0.100000,-0.100000)"
fill="#000000" stroke="none">
811 c445 -92 729 -532 635 -987 -62 -301 -295 -546 -601 -630 -91 -26 -329
-26 -420 0 -291 80 -516 305 -596 596 -26 91 -26 329 0 420 120 433 542 692
982 601z"/>
<path d="M835 1356 c-277 -88 -382 -391 -217 -630 40 -59 133 -123 214 -147
223 -68 465 65 523 287 20 78 19 139 -5 216 -39 126 -149 236 -273 273 -61 18
-187 19 -242 1z m252 -172 c182 -113 167 -365 -27 -453 -51 -23 -132 -27 -192
-9 -50 15 -122 78 -151 132 -30 57 -30 165 0 221 28 53 77 99 133 125 67 31
172 24 237 -16z"/>
<path d="M851 1074 c-18 -22 -21 -41 -21 -114 0 -145 41 -166 169 -90 130 77
130 110 2 184 -92 53 -121 57 -150 20z"/>
</g>
</svg>
