<?xml version="1.0" standalone="no"?>
<!DOCTYPE svg PUBLIC "-//W3C//DTD SVG 20010904//EN"
 "http://www.w3.org/TR/2001/REC-SVG-20010904/DTD/svg10.dtd">
<svg version="1.0" xmlns="http://www.w3.org/2000/svg"
 width="192.000000pt" height="192.000000pt" viewBox="0 0 192.000000 192.000000"
 preserveAspectRatio="xMidYMid meet">
<metadata>
Created by potrace 1.16, written by Peter Selinger 2001-2019
</metadata>
<g transform="translate(0.000000,192.000000) scale(0.100000,-0.100000)"
fill="#000000" stroke="none">
811 c445 -92 729 -532 635 -987 -62 -301 -295 -546 -601 -630 -91 -26 -329
-26 -420 0 -291 80 -516 305 -596 596 -26 91 -26 329 0 420 120 433 542 692
982 601z"/>
<path d="M880 1323 c-44 -70 -39 -77 52 -81 l77 -3 26 40 c29 46 32 76 9 85
-9 3 -42 6 -75 6 l-59 0 -30 -47z"/>
<path d="M1182 1243 c-45 -65 -45 -69 -9 -116 108 -142 55 -339 -112 -415
-104 -48 -243 -17 -316 70 -38 45 -65 106 -65 149 0 19 -6 43 -13 53 -13 18
-15 17 -53 -2 -60 -31 -66 -41 -54 -100 43 -228 282 -372 507 -304 132 40 233
140 274 271 41 135 7 282 -90 389 -36 39 -44 40 -69 5z"/>
<path d="M875 1134 c-69 -36 -105 -89 -107 -158 -2 -121 90 -207 208 -193 136
15 207 170 131 286 -47 70 -160 103 -232 65z"/>
</g>
</svg>
