<?xml version="1.0" standalone="no"?>
<!DOCTYPE svg PUBLIC "-//W3C//DTD SVG 20010904//EN"
 "http://www.w3.org/TR/2001/REC-SVG-20010904/DTD/svg10.dtd">
<svg version="1.0" xmlns="http://www.w3.org/2000/svg"
 width="192.000000pt" height="192.000000pt" viewBox="0 0 192.000000 192.000000"
 preserveAspectRatio="xMidYMid meet">
<metadata>
Created by potrace 1.16, written by Peter Selinger 2001-2019
</metadata>
<g transform="translate(0.000000,192.000000) scale(0.100000,-0.100000)"
fill="#000000" stroke="none">
811 c445 -92 729 -532 635 -987 -62 -301 -295 -546 -601 -630 -91 -26 -329
-26 -420 0 -291 80 -516 305 -596 596 -26 91 -26 329 0 420 120 433 542 692
982 601z"/>
<path d="M1067 1073 c-4 -3 -7 -17 -7 -30 0 -22 -3 -23 -33 -18 -27 5 -40 1
-65 -20 -45 -38 -45 -92 -1 -129 34 -29 45 -31 83 -16 17 6 26 6 26 0 0 -6 7
-10 15 -10 12 0 15 19 15 115 0 89 -3 115 -13 115 -8 0 -17 -3 -20 -7z m-26
-93 c22 -12 26 -59 7 -78 -20 -20 -56 -14 -74 13 -15 23 -15 27 0 50 18 27 36
31 67 15z"/>
<path d="M430 955 c0 -98 1 -105 20 -105 17 0 19 8 22 67 l3 66 55 -66 c80
-97 90 -92 90 38 0 98 -1 105 -20 105 -17 0 -19 -8 -22 -67 l-3 -67 -54 67
c-31 38 -62 67 -73 67 -16 0 -18 -10 -18 -105z"/>
<path d="M694 1020 c-58 -23 -70 -95 -25 -141 33 -32 58 -36 100 -14 32 16 41
33 41 75 0 42 -9 59 -41 75 -31 17 -44 18 -75 5z m72 -55 c15 -23 15 -27 0
-50 -26 -40 -86 -26 -86 20 0 53 58 73 86 30z"/>
<path d="M891 1021 c-7 -5 -22 -6 -32 -4 -18 5 -19 -1 -19 -82 0 -77 2 -86 18
-83 13 2 18 15 20 61 2 44 8 60 23 70 10 6 19 20 19 29 0 20 -8 22 -29 9z"/>
<path d="M1169 1015 c-14 -8 -32 -28 -39 -45 -26 -62 35 -131 100 -115 27 7
60 33 60 47 0 12 -27 10 -49 -3 -20 -13 -71 -5 -71 11 0 6 5 10 11 10 6 0 35
7 65 16 l54 15 -16 30 c-14 28 -49 50 -77 49 -7 -1 -24 -7 -38 -15z m76 -34
c7 -13 -2 -18 -49 -26 -37 -7 -38 -7 -27 14 12 22 64 30 76 12z"/>
<path d="M1364 1020 c-29 -12 -54 -49 -54 -81 0 -56 72 -105 118 -80 13 7 22
7 30 -1 17 -17 32 1 32 41 0 57 -19 100 -51 116 -31 17 -44 18 -75 5z m68 -47
c22 -20 23 -41 1 -65 -20 -22 -46 -23 -67 -2 -30 29 -9 84 31 84 9 0 25 -7 35
-17z"/>
</g>
</svg>
