<?xml version="1.0" standalone="no"?>
<!DOCTYPE svg PUBLIC "-//W3C//DTD SVG 20010904//EN"
 "http://www.w3.org/TR/2001/REC-SVG-20010904/DTD/svg10.dtd">
<svg version="1.0" xmlns="http://www.w3.org/2000/svg"
 width="192.000000pt" height="192.000000pt" viewBox="0 0 192.000000 192.000000"
 preserveAspectRatio="xMidYMid meet">
<metadata>
Created by potrace 1.16, written by Peter Selinger 2001-2019
</metadata>
<g transform="translate(0.000000,192.000000) scale(0.100000,-0.100000)"
fill="#000000" stroke="none">
811 c445 -92 729 -532 635 -987 -62 -301 -295 -546 -601 -630 -91 -26 -329
-26 -420 0 -291 80 -516 305 -596 596 -26 91 -26 329 0 420 120 433 542 692
982 601z"/>
<path d="M870 1369 c-116 -23 -230 -114 -284 -228 -29 -61 -31 -74 -31 -176 0
-104 2 -114 32 -176 40 -80 120 -159 200 -197 52 -24 69 -27 168 -27 100 0
115 2 167 28 209 102 295 344 197 553 -50 105 -170 198 -287 223 -60 13 -98
13 -162 0z m220 -96 c63 -31 128 -98 159 -163 36 -76 37 -190 2 -268 -13 -29
-29 -51 -34 -49 -6 2 -41 52 -78 112 -74 120 -94 139 -87 81 2 -20 3 -36 2
-36 -1 0 -23 36 -48 80 -26 44 -50 80 -55 80 -5 0 -21 -21 -36 -46 -19 -33
-26 -56 -23 -80 2 -19 3 -34 2 -34 -1 0 -11 16 -23 35 -11 19 -24 35 -29 35
-5 0 -40 -52 -78 -115 -38 -63 -74 -115 -80 -115 -6 0 -22 24 -35 53 -29 66
-31 170 -6 244 25 72 96 149 172 185 54 26 68 29 145 26 63 -2 97 -9 130 -25z"/>
</g>
</svg>
