<?xml version="1.0" standalone="no"?>
<!DOCTYPE svg PUBLIC "-//W3C//DTD SVG 20010904//EN"
 "http://www.w3.org/TR/2001/REC-SVG-20010904/DTD/svg10.dtd">
<svg version="1.0" xmlns="http://www.w3.org/2000/svg"
 width="192.000000pt" height="192.000000pt" viewBox="0 0 192.000000 192.000000"
 preserveAspectRatio="xMidYMid meet">
<metadata>
Created by potrace 1.16, written by Peter Selinger 2001-2019
</metadata>
<g transform="translate(0.000000,192.000000) scale(0.100000,-0.100000)"
fill="#000000" stroke="none">
811 c445 -92 729 -532 635 -987 -62 -301 -295 -546 -601 -630 -91 -26 -329
-26 -420 0 -291 80 -516 305 -596 596 -26 91 -26 329 0 420 120 433 542 692
982 601z"/>
<path d="M865 1366 c-121 -29 -221 -110 -276 -222 -59 -119 -50 -282 22 -396
41 -64 110 -125 177 -156 51 -24 69 -27 167 -27 101 0 115 2 168 28 164 81
259 263 229 438 -29 170 -156 304 -320 338 -65 14 -102 13 -167 -3z m233 -100
c64 -33 123 -91 154 -154 19 -40 23 -63 23 -147 0 -85 -4 -106 -23 -143 -35
-67 -98 -129 -161 -159 -79 -39 -191 -40 -273 -1 -69 32 -129 92 -165 166 -24
48 -28 69 -28 137 1 150 82 269 218 317 76 27 185 20 255 -16z"/>
<path d="M862 1149 c-68 -34 -112 -108 -112 -188 1 -79 69 -168 149 -192 114
-34 244 51 245 159 1 43 -1 47 -23 47 -20 0 -27 -7 -34 -35 -20 -79 -73 -116
-154 -107 -135 15 -160 198 -36 258 39 19 49 20 93 9 54 -13 70 -8 70 20 0 49
-122 66 -198 29z"/>
<path d="M1043 1058 l-72 -72 -29 27 c-42 40 -82 31 -82 -19 0 -22 89 -114
111 -114 6 0 54 41 105 92 93 91 109 119 82 146 -23 23 -43 12 -115 -60z"/>
</g>
</svg>
