<?xml version="1.0" standalone="no"?>
<!DOCTYPE svg PUBLIC "-//W3C//DTD SVG 20010904//EN"
 "http://www.w3.org/TR/2001/REC-SVG-20010904/DTD/svg10.dtd">
<svg version="1.0" xmlns="http://www.w3.org/2000/svg"
 width="192.000000pt" height="192.000000pt" viewBox="0 0 192.000000 192.000000"
 preserveAspectRatio="xMidYMid meet">
<metadata>
Created by potrace 1.16, written by Peter Selinger 2001-2019
</metadata>
<g transform="translate(0.000000,192.000000) scale(0.100000,-0.100000)"
fill="#000000" stroke="none">
810 c245 -63 441 -223 549 -451 55 -116 75 -212 75 -354 0 -141 -20 -238 -75
-352 -86 -182 -215 -312 -396 -398 -116 -55 -212 -75 -354 -75 -142 0 -238 20
-354 75 -228 108 -388 304 -451 549 -28 110 -28 292 0 402 76 298 303 526 600
603 106 28 298 28 406 1z"/>
<path d="M677 1363 c-4 -3 -7 -109 -7 -235 l0 -228 30 0 30 0 2 203 3 202 270
0 270 0 3 -295 c2 -309 -1 -337 -42 -365 -11 -8 -39 -15 -62 -15 -60 0 -91 34
-99 108 -3 31 -7 64 -8 72 -2 13 -38 15 -241 18 -178 2 -242 -1 -253 -10 -25
-20 -12 -138 20 -186 45 -69 61 -72 362 -72 303 0 317 3 363 73 l27 40 3 326
c2 179 0 336 -3 348 l-5 23 -329 0 c-180 0 -331 -3 -334 -7z"/>
<path d="M812 1228 c-18 -18 -14 -46 7 -58 12 -6 93 -10 195 -10 145 0 177 3
190 16 19 19 20 36 4 52 -17 17 -379 17 -396 0z"/>
<path d="M818 1099 c-21 -12 -23 -40 -6 -57 17 -17 379 -17 396 0 16 16 15 33
-4 52 -13 13 -45 16 -192 16 -102 0 -184 -5 -194 -11z"/>
<path d="M809 954 c-9 -11 -10 -20 -2 -32 9 -15 34 -17 203 -17 169 0 194 2
203 17 8 12 7 21 -2 32 -20 24 -382 24 -402 0z"/>
</g>
</svg>
