<?xml version="1.0" standalone="no"?>
<!DOCTYPE svg PUBLIC "-//W3C//DTD SVG 20010904//EN"
 "http://www.w3.org/TR/2001/REC-SVG-20010904/DTD/svg10.dtd">
<svg version="1.0" xmlns="http://www.w3.org/2000/svg"
 width="192.000000pt" height="192.000000pt" viewBox="0 0 192.000000 192.000000"
 preserveAspectRatio="xMidYMid meet">
<metadata>
Created by potrace 1.16, written by Peter Selinger 2001-2019
</metadata>
<g transform="translate(0.000000,192.000000) scale(0.100000,-0.100000)"
fill="#000000" stroke="none">
810 c245 -63 441 -223 549 -451 55 -116 75 -212 75 -354 0 -141 -20 -238 -75
-352 -86 -182 -215 -312 -396 -398 -116 -55 -212 -75 -354 -75 -142 0 -238 20
-354 75 -228 108 -388 304 -451 549 -28 110 -28 292 0 402 76 298 303 526 600
603 106 28 298 28 406 1z"/>
<path d="M677 1363 c-4 -3 -7 -109 -7 -235 l0 -228 30 0 30 0 2 203 3 202 273
3 272 2 0 -302 c0 -221 -4 -310 -13 -328 -7 -14 -29 -33 -50 -44 -34 -16 -42
-17 -75 -4 -47 17 -72 64 -72 134 0 38 -4 53 -16 58 -9 3 -119 6 -244 6 -216
0 -230 -1 -240 -19 -24 -46 -3 -150 38 -194 52 -56 59 -57 347 -57 288 0 295
1 347 57 14 15 31 46 37 68 16 58 15 657 -1 673 -9 9 -97 12 -333 12 -177 0
-325 -3 -328 -7z"/>
<path d="M816 1227 c-13 -10 -16 -20 -12 -35 7 -22 11 -22 206 -22 171 0 199
2 204 16 8 21 8 20 -10 38 -13 13 -45 16 -193 16 -131 0 -182 -3 -195 -13z"/>
<path d="M805 1080 c-14 -45 5 -50 201 -50 153 0 185 3 198 16 19 19 20 26 4
42 -9 9 -68 12 -204 12 -185 0 -193 -1 -199 -20z"/>
<path d="M809 954 c-9 -11 -10 -20 -2 -32 9 -15 34 -17 203 -17 169 0 194 2
203 17 8 12 7 21 -2 32 -20 24 -382 24 -402 0z"/>
</g>
</svg>
