<?xml version="1.0" standalone="no"?>
<!DOCTYPE svg PUBLIC "-//W3C//DTD SVG 20010904//EN"
 "http://www.w3.org/TR/2001/REC-SVG-20010904/DTD/svg10.dtd">
<svg version="1.0" xmlns="http://www.w3.org/2000/svg"
 width="192.000000pt" height="192.000000pt" viewBox="0 0 192.000000 192.000000"
 preserveAspectRatio="xMidYMid meet">
<metadata>
Created by potrace 1.16, written by Peter Selinger 2001-2019
</metadata>
<g transform="translate(0.000000,192.000000) scale(0.100000,-0.100000)"
fill="#000000" stroke="none">
810 c245 -63 441 -223 549 -451 55 -116 75 -212 75 -354 0 -141 -20 -238 -75
-352 -86 -182 -215 -312 -396 -398 -116 -55 -212 -75 -354 -75 -142 0 -238 20
-354 75 -228 108 -388 304 -451 549 -28 110 -28 292 0 402 76 298 303 526 600
603 106 28 298 28 406 1z"/>
<path d="M677 1363 c-4 -3 -7 -109 -7 -235 l0 -228 30 0 30 0 2 203 3 202 270
0 270 0 3 -298 c2 -319 0 -342 -49 -368 -27 -14 -81 -14 -108 0 -30 17 -42 45
-49 120 l-7 66 -239 3 c-178 2 -242 -1 -253 -10 -12 -10 -14 -28 -11 -79 6
-81 31 -126 86 -157 38 -21 50 -22 307 -22 257 0 269 1 307 22 21 12 49 38 61
58 21 34 22 45 25 360 2 178 0 335 -3 347 l-5 23 -329 0 c-180 0 -331 -3 -334
-7z"/>
<path d="M812 1228 c-18 -18 -14 -46 7 -58 12 -6 93 -10 195 -10 145 0 177 3
190 16 9 8 16 19 16 24 0 5 -7 16 -16 24 -13 13 -45 16 -198 16 -128 0 -186
-4 -194 -12z"/>
<path d="M828 1103 c-22 -6 -33 -40 -18 -58 10 -12 48 -15 201 -15 183 0 189
1 200 22 10 18 8 24 -11 40 -20 16 -42 18 -189 17 -91 -1 -174 -3 -183 -6z"/>
<path d="M809 954 c-9 -11 -10 -20 -2 -32 9 -15 34 -17 203 -17 169 0 194 2
203 17 8 12 7 21 -2 32 -20 24 -382 24 -402 0z"/>
</g>
</svg>
