<?xml version="1.0" standalone="no"?>
<!DOCTYPE svg PUBLIC "-//W3C//DTD SVG 20010904//EN"
 "http://www.w3.org/TR/2001/REC-SVG-20010904/DTD/svg10.dtd">
<svg version="1.0" xmlns="http://www.w3.org/2000/svg"
 width="192.000000pt" height="192.000000pt" viewBox="0 0 192.000000 192.000000"
 preserveAspectRatio="xMidYMid meet">
<metadata>
Created by potrace 1.16, written by Peter Selinger 2001-2019
</metadata>
<g transform="translate(0.000000,192.000000) scale(0.100000,-0.100000)"
fill="#000000" stroke="none">
811 c445 -92 729 -532 635 -987 -62 -301 -295 -546 -601 -630 -91 -26 -329
-26 -420 0 -291 80 -516 305 -596 596 -26 91 -26 329 0 420 120 433 542 692
982 601z"/>
<path d="M650 1332 c-19 -9 -43 -33 -55 -52 -19 -33 -20 -52 -20 -315 0 -261
1 -282 20 -313 36 -59 81 -72 248 -72 102 0 158 4 180 14 50 20 84 67 92 126
l7 50 99 0 c94 0 100 1 108 23 6 14 5 29 -4 42 -11 17 -25 20 -109 23 l-96 3
0 29 0 29 101 3 c95 3 102 4 110 26 6 17 4 27 -11 42 -17 17 -34 20 -110 20
l-90 0 0 30 0 29 101 3 c95 3 102 4 110 26 6 17 4 27 -11 42 -17 17 -34 20
-109 20 l-89 0 -7 49 c-9 63 -37 109 -80 127 -54 22 -338 20 -385 -4z m294
-598 c9 -8 16 -23 16 -33 0 -33 -22 -41 -110 -41 -91 0 -110 8 -110 47 0 32
26 42 112 43 57 0 81 -4 92 -16z"/>
</g>
</svg>
