<?xml version="1.0" standalone="no"?>
<!DOCTYPE svg PUBLIC "-//W3C//DTD SVG 20010904//EN"
 "http://www.w3.org/TR/2001/REC-SVG-20010904/DTD/svg10.dtd">
<svg version="1.0" xmlns="http://www.w3.org/2000/svg"
 width="192.000000pt" height="192.000000pt" viewBox="0 0 192.000000 192.000000"
 preserveAspectRatio="xMidYMid meet">
<metadata>
Created by potrace 1.16, written by Peter Selinger 2001-2019
</metadata>
<g transform="translate(0.000000,192.000000) scale(0.100000,-0.100000)"
fill="#000000" stroke="none">
810 c245 -63 441 -223 549 -451 55 -116 75 -212 75 -354 0 -141 -20 -238 -75
-352 -86 -182 -215 -312 -396 -398 -116 -55 -212 -75 -354 -75 -142 0 -238 20
-354 75 -228 108 -388 304 -451 549 -28 110 -28 292 0 402 76 298 303 526 600
603 106 28 298 28 406 1z"/>
<path d="M677 1363 c-4 -3 -7 -109 -7 -235 l0 -228 30 0 30 0 2 203 3 202 270
0 270 0 3 -298 c3 -334 1 -346 -65 -373 -28 -12 -42 -13 -69 -4 -47 16 -64 46
-72 127 l-7 68 -240 3 c-272 3 -266 5 -264 -77 1 -79 30 -134 89 -170 33 -20
47 -21 305 -21 258 0 272 1 305 21 39 24 59 49 77 94 12 32 19 649 7 679 -5
14 -44 16 -333 16 -180 0 -331 -3 -334 -7z"/>
<path d="M812 1228 c-16 -16 -15 -33 4 -52 23 -24 365 -24 388 0 9 8 16 19 16
24 0 5 -7 16 -16 24 -13 13 -45 16 -198 16 -128 0 -186 -4 -194 -12z"/>
<path d="M805 1080 c-14 -45 4 -50 206 -50 180 0 189 1 199 21 24 44 4 49
-206 49 -185 0 -193 -1 -199 -20z"/>
<path d="M809 954 c-9 -11 -10 -20 -2 -32 9 -15 34 -17 203 -17 169 0 194 2
203 17 8 12 7 21 -2 32 -20 24 -382 24 -402 0z"/>
</g>
</svg>
