<?xml version="1.0" standalone="no"?>
<!DOCTYPE svg PUBLIC "-//W3C//DTD SVG 20010904//EN"
 "http://www.w3.org/TR/2001/REC-SVG-20010904/DTD/svg10.dtd">
<svg version="1.0" xmlns="http://www.w3.org/2000/svg"
 width="192.000000pt" height="192.000000pt" viewBox="0 0 192.000000 192.000000"
 preserveAspectRatio="xMidYMid meet">
<metadata>
Created by potrace 1.16, written by Peter Selinger 2001-2019
</metadata>
<g transform="translate(0.000000,192.000000) scale(0.100000,-0.100000)"
fill="#000000" stroke="none">
810 c245 -63 441 -223 549 -451 55 -116 75 -212 75 -354 0 -141 -20 -238 -75
-352 -86 -182 -215 -312 -396 -398 -116 -55 -212 -75 -354 -75 -142 0 -238 20
-354 75 -228 108 -388 304 -451 549 -28 110 -28 292 0 402 76 298 303 526 600
603 106 28 298 28 406 1z"/>
<path d="M676 1361 c-14 -16 -16 -44 -14 -242 l3 -224 35 0 35 0 3 203 2 202
270 0 270 0 0 -290 c0 -309 -5 -346 -48 -369 -39 -21 -97 -13 -126 15 -22 22
-26 36 -26 81 0 98 14 93 -258 93 -172 0 -241 -3 -250 -12 -7 -7 -12 -37 -12
-67 0 -73 30 -134 83 -169 l41 -27 265 0 c302 0 320 4 369 78 l27 41 3 337 c2
299 1 339 -13 353 -14 14 -55 16 -329 16 -292 0 -314 -1 -330 -19z"/>
<path d="M812 1228 c-18 -18 -14 -46 7 -58 12 -6 93 -10 195 -10 145 0 177 3
190 16 19 19 20 36 4 52 -17 17 -379 17 -396 0z"/>
<path d="M818 1099 c-21 -12 -23 -40 -6 -57 17 -17 379 -17 396 0 16 16 15 33
-4 52 -13 13 -45 16 -192 16 -102 0 -184 -5 -194 -11z"/>
<path d="M805 950 c-15 -46 4 -51 208 -48 164 3 191 5 200 20 8 12 7 21 -2 32
-11 14 -43 16 -207 16 -185 0 -193 -1 -199 -20z"/>
</g>
</svg>
