<?xml version="1.0" standalone="no"?>
<!DOCTYPE svg PUBLIC "-//W3C//DTD SVG 20010904//EN"
 "http://www.w3.org/TR/2001/REC-SVG-20010904/DTD/svg10.dtd">
<svg version="1.0" xmlns="http://www.w3.org/2000/svg"
 width="192.000000pt" height="192.000000pt" viewBox="0 0 192.000000 192.000000"
 preserveAspectRatio="xMidYMid meet">
<metadata>
Created by potrace 1.16, written by Peter Selinger 2001-2019
</metadata>
<g transform="translate(0.000000,192.000000) scale(0.100000,-0.100000)"
fill="#000000" stroke="none">
811 c445 -92 729 -532 635 -987 -62 -301 -295 -546 -601 -630 -91 -26 -329
-26 -420 0 -291 80 -516 305 -596 596 -26 91 -26 329 0 420 120 433 542 692
982 601z"/>
<path d="M695 1321 c-50 -22 -91 -69 -105 -119 -14 -52 -13 -430 2 -473 17
-53 46 -87 91 -112 40 -21 53 -22 273 -22 l231 0 48 30 c83 52 89 74 93 322 3
231 -3 273 -45 324 -53 62 -83 69 -328 69 -192 0 -225 -3 -260 -19z m493 -81
c49 -30 62 -72 62 -200 l0 -110 -119 0 c-112 0 -122 -2 -148 -24 -36 -31 -39
-95 -5 -128 20 -21 35 -24 145 -28 l122 -5 -32 -32 -31 -33 -224 0 c-190 0
-227 2 -247 16 -44 31 -51 69 -51 269 0 196 6 231 49 269 l21 19 0 -111 c0
-104 1 -112 26 -141 34 -41 92 -44 129 -6 24 23 25 30 25 145 l0 120 123 0
c105 0 127 -3 155 -20z"/>
<path d="M763 906 c-22 -19 -28 -32 -28 -66 0 -82 88 -119 146 -61 39 40 39
82 0 122 -37 36 -79 38 -118 5z"/>
</g>
</svg>
