<?xml version="1.0" standalone="no"?>
<!DOCTYPE svg PUBLIC "-//W3C//DTD SVG 20010904//EN"
 "http://www.w3.org/TR/2001/REC-SVG-20010904/DTD/svg10.dtd">
<svg version="1.0" xmlns="http://www.w3.org/2000/svg"
 width="192.000000pt" height="192.000000pt" viewBox="0 0 192.000000 192.000000"
 preserveAspectRatio="xMidYMid meet">
<metadata>
Created by potrace 1.16, written by Peter Selinger 2001-2019
</metadata>
<g transform="translate(0.000000,192.000000) scale(0.100000,-0.100000)"
fill="#000000" stroke="none">
811 c445 -92 729 -532 635 -987 -62 -301 -295 -546 -601 -630 -91 -26 -329
-26 -420 0 -291 80 -516 305 -596 596 -26 91 -26 329 0 420 120 433 542 692
982 601z"/>
<path d="M745 1188 c-3 -7 -6 -58 -7 -113 l-3 -100 -92 -3 c-70 -2 -93 -6 -93
-16 0 -8 73 -62 162 -120 125 -82 164 -103 175 -95 9 8 13 36 13 85 l0 74 129
-86 c71 -47 134 -83 140 -79 7 4 11 69 11 189 l0 183 -71 47 c-39 26 -75 44
-80 39 -4 -4 -9 -43 -11 -86 l-3 -77 -127 85 c-70 47 -130 85 -133 85 -3 0 -8
-6 -10 -12z"/>
<path d="M1210 1010 l0 -61 77 3 c43 2 78 8 80 14 4 11 -128 104 -147 104 -6
0 -10 -26 -10 -60z"/>
</g>
</svg>
