<?xml version="1.0" standalone="no"?>
<!DOCTYPE svg PUBLIC "-//W3C//DTD SVG 20010904//EN"
 "http://www.w3.org/TR/2001/REC-SVG-20010904/DTD/svg10.dtd">
<svg version="1.0" xmlns="http://www.w3.org/2000/svg"
 width="192.000000pt" height="192.000000pt" viewBox="0 0 192.000000 192.000000"
 preserveAspectRatio="xMidYMid meet">
<metadata>
Created by potrace 1.16, written by Peter Selinger 2001-2019
</metadata>
<g transform="translate(0.000000,192.000000) scale(0.100000,-0.100000)"
fill="#000000" stroke="none">
811 c445 -92 729 -532 635 -987 -62 -301 -295 -546 -601 -630 -91 -26 -329
-26 -420 0 -291 80 -516 305 -596 596 -26 91 -26 329 0 420 120 433 542 692
982 601z"/>
<path d="M802 1339 c-75 -29 -164 -115 -204 -197 -31 -62 -33 -73 -33 -172 0
-99 2 -110 32 -171 40 -80 121 -160 199 -196 122 -56 292 -37 399 45 129 98
197 270 122 312 -42 23 -75 0 -99 -70 -23 -69 -65 -122 -126 -158 -41 -24 -57
-27 -132 -27 -75 0 -91 3 -131 27 -97 57 -143 141 -137 253 3 59 9 81 33 120
39 62 90 103 157 125 68 22 91 55 68 98 -20 35 -74 39 -148 11z"/>
<path d="M1030 1353 c-31 -11 -50 -37 -50 -67 0 -27 19 -51 133 -164 141 -141
161 -152 208 -114 15 13 22 30 22 51 0 28 -16 49 -129 161 -125 124 -153 144
-184 133z"/>
</g>
</svg>
