<?xml version="1.0" standalone="no"?>
<!DOCTYPE svg PUBLIC "-//W3C//DTD SVG 20010904//EN"
 "http://www.w3.org/TR/2001/REC-SVG-20010904/DTD/svg10.dtd">
<svg version="1.0" xmlns="http://www.w3.org/2000/svg"
 width="192.000000pt" height="192.000000pt" viewBox="0 0 192.000000 192.000000"
 preserveAspectRatio="xMidYMid meet">
<metadata>
Created by potrace 1.16, written by Peter Selinger 2001-2019
</metadata>
<g transform="translate(0.000000,192.000000) scale(0.100000,-0.100000)"
fill="#000000" stroke="none">
811 c445 -92 729 -532 635 -987 -62 -301 -295 -546 -601 -630 -91 -26 -329
-26 -420 0 -291 80 -516 305 -596 596 -26 91 -26 329 0 420 120 433 542 692
982 601z"/>
<path d="M736 1185 c-3 -9 -6 -59 -6 -111 l0 -94 -84 0 c-92 0 -121 -14 -88
-42 49 -42 317 -208 328 -204 10 4 14 26 14 81 0 41 2 75 5 75 3 0 60 -36 126
-81 67 -45 127 -78 135 -75 11 4 14 40 14 191 l0 185 -69 46 c-38 25 -74 43
-80 39 -6 -3 -11 -40 -11 -86 l0 -79 -122 81 c-134 90 -152 98 -162 74z"/>
<path d="M1210 1010 c0 -41 4 -62 13 -66 23 -8 140 10 144 23 4 12 -127 103
-147 103 -6 0 -10 -27 -10 -60z"/>
</g>
</svg>
