<?xml version="1.0" standalone="no"?>
<!DOCTYPE svg PUBLIC "-//W3C//DTD SVG 20010904//EN"
 "http://www.w3.org/TR/2001/REC-SVG-20010904/DTD/svg10.dtd">
<svg version="1.0" xmlns="http://www.w3.org/2000/svg"
 width="192.000000pt" height="192.000000pt" viewBox="0 0 192.000000 192.000000"
 preserveAspectRatio="xMidYMid meet">
<metadata>
Created by potrace 1.16, written by Peter Selinger 2001-2019
</metadata>
<g transform="translate(0.000000,192.000000) scale(0.100000,-0.100000)"
fill="#000000" stroke="none">
811 c445 -92 729 -532 635 -987 -62 -301 -295 -546 -601 -630 -91 -26 -329
-26 -420 0 -291 80 -516 305 -596 596 -26 91 -26 329 0 420 120 433 542 692
982 601z"/>
<path d="M672 1339 c-53 -26 -87 -70 -103 -130 -18 -67 1 -127 61 -192 l48
-52 -48 -52 c-60 -65 -79 -125 -61 -192 16 -61 51 -104 104 -130 82 -40 160
-22 237 55 l46 44 39 -41 c75 -77 160 -98 242 -58 53 26 88 69 104 130 18 67
-1 127 -61 192 l-48 52 48 52 c60 65 79 125 61 192 -16 61 -51 104 -104 130
-82 40 -167 19 -242 -58 l-39 -41 -46 44 c-78 77 -157 95 -238 55z m548 -467
c60 -45 66 -135 11 -184 -41 -37 -76 -44 -125 -27 -96 34 -105 176 -14 223 39
20 91 15 128 -12z"/>
</g>
</svg>
