<?xml version="1.0" standalone="no"?>
<!DOCTYPE svg PUBLIC "-//W3C//DTD SVG 20010904//EN"
 "http://www.w3.org/TR/2001/REC-SVG-20010904/DTD/svg10.dtd">
<svg version="1.0" xmlns="http://www.w3.org/2000/svg"
 width="192.000000pt" height="192.000000pt" viewBox="0 0 192.000000 192.000000"
 preserveAspectRatio="xMidYMid meet">
<metadata>
Created by potrace 1.16, written by Peter Selinger 2001-2019
</metadata>
<g transform="translate(0.000000,192.000000) scale(0.100000,-0.100000)"
fill="#000000" stroke="none">
811 c445 -92 729 -532 635 -987 -62 -301 -295 -546 -601 -630 -91 -26 -329
-26 -420 0 -291 80 -516 305 -596 596 -26 91 -26 329 0 420 120 433 542 692
982 601z"/>
<path d="M695 1321 c-48 -22 -79 -54 -100 -103 -12 -30 -15 -81 -15 -256 0
-210 1 -221 23 -263 13 -24 43 -57 66 -74 l43 -30 243 0 243 0 43 30 c23 17
53 50 66 74 22 42 23 53 23 263 0 233 -5 265 -53 317 -50 54 -83 61 -322 61
-193 0 -225 -3 -260 -19z m328 -83 c145 -98 188 -161 188 -273 0 -76 -23 -135
-71 -183 -57 -58 -103 -75 -217 -80 -89 -4 -105 -7 -123 -27 -18 -19 -27 -21
-56 -15 -20 5 -44 16 -54 25 -19 17 -19 18 5 37 41 32 34 79 -15 119 l-40 32
0 146 c0 165 10 199 69 238 30 20 46 23 143 23 l109 0 62 -42z"/>
<path d="M906 1120 c-62 -19 -108 -85 -108 -156 0 -159 214 -215 295 -77 49
85 0 206 -94 233 -39 12 -53 11 -93 0z"/>
</g>
</svg>
