<?xml version="1.0" standalone="no"?>
<!DOCTYPE svg PUBLIC "-//W3C//DTD SVG 20010904//EN"
 "http://www.w3.org/TR/2001/REC-SVG-20010904/DTD/svg10.dtd">
<svg version="1.0" xmlns="http://www.w3.org/2000/svg"
 width="192.000000pt" height="192.000000pt" viewBox="0 0 192.000000 192.000000"
 preserveAspectRatio="xMidYMid meet">
<metadata>
Created by potrace 1.16, written by Peter Selinger 2001-2019
</metadata>
<g transform="translate(0.000000,192.000000) scale(0.100000,-0.100000)"
fill="#000000" stroke="none">
811 c445 -92 729 -532 635 -987 -62 -301 -295 -546 -601 -630 -91 -26 -329
-26 -420 0 -291 80 -516 305 -596 596 -26 91 -26 329 0 420 120 433 542 692
982 601z"/>
<path d="M862 1308 c-15 -15 -15 -51 0 -66 18 -18 43 -15 63 8 37 41 -24 97
-63 58z"/>
<path d="M978 1295 c-9 -21 -8 -28 7 -45 31 -34 75 -20 75 25 0 48 -62 63 -82
20z"/>
<path d="M1112 1308 c-32 -32 4 -87 48 -73 25 8 37 50 20 70 -15 18 -51 20
-68 3z"/>
<path d="M1242 1308 c-15 -15 -15 -51 0 -66 18 -18 43 -15 63 8 37 41 -24 97
-63 58z"/>
<path d="M642 1277 c-45 -48 -41 -54 266 -360 207 -206 294 -287 310 -287 32
0 72 43 72 77 0 23 -48 76 -283 310 -247 247 -286 283 -313 283 -19 0 -39 -9
-52 -23z"/>
<path d="M985 1180 c-37 -41 24 -97 63 -58 18 18 14 56 -7 68 -27 14 -35 13
-56 -10z"/>
<path d="M1118 1189 c-36 -21 -16 -79 27 -79 42 0 59 44 29 74 -18 18 -32 20
-56 5z"/>
<path d="M1242 1188 c-15 -15 -15 -51 0 -66 39 -39 100 17 63 58 -20 23 -45
26 -63 8z"/>
<path d="M602 1058 c-18 -18 -15 -43 8 -63 17 -15 24 -16 45 -7 25 11 31 34
19 66 -7 19 -55 21 -72 4z"/>
<path d="M1110 1055 c-17 -20 -5 -62 21 -70 24 -8 59 19 59 45 0 37 -55 55
-80 25z"/>
<path d="M1237 1063 c-4 -3 -7 -19 -7 -34 0 -39 33 -56 66 -34 27 17 29 27 14
56 -10 19 -59 27 -73 12z"/>
<path d="M600 930 c-15 -29 -3 -59 26 -66 30 -8 54 11 54 40 0 46 -59 64 -80
26z"/>
<path d="M732 938 c-30 -30 -3 -82 40 -76 29 4 47 50 28 72 -15 19 -51 21 -68
4z"/>
<path d="M1242 938 c-27 -27 -7 -78 29 -78 21 0 49 26 49 45 0 35 -53 58 -78
33z"/>
<path d="M607 812 c-30 -33 -15 -72 28 -72 44 0 63 60 26 80 -27 14 -35 13
-54 -8z"/>
<path d="M736 814 c-30 -30 -13 -74 29 -74 43 0 59 44 27 73 -23 21 -36 21
-56 1z"/>
<path d="M866 817 c-12 -9 -17 -23 -14 -42 2 -25 8 -30 35 -33 43 -4 62 28 38
64 -17 27 -33 30 -59 11z"/>
<path d="M602 688 c-18 -18 -15 -43 8 -63 41 -37 97 24 58 63 -15 15 -51 15
-66 0z"/>
<path d="M732 688 c-32 -32 4 -87 48 -73 25 8 37 50 20 70 -15 18 -51 20 -68
3z"/>
<path d="M857 693 c-11 -11 -8 -58 5 -71 33 -33 91 16 68 57 -10 20 -58 30
-73 14z"/>
<path d="M978 675 c-10 -22 -9 -29 10 -47 18 -19 25 -20 47 -10 16 8 25 20 25
35 0 50 -62 66 -82 22z"/>
</g>
</svg>
