<?xml version="1.0" standalone="no"?>
<!DOCTYPE svg PUBLIC "-//W3C//DTD SVG 20010904//EN"
 "http://www.w3.org/TR/2001/REC-SVG-20010904/DTD/svg10.dtd">
<svg version="1.0" xmlns="http://www.w3.org/2000/svg"
 width="192.000000pt" height="192.000000pt" viewBox="0 0 192.000000 192.000000"
 preserveAspectRatio="xMidYMid meet">
<metadata>
Created by potrace 1.16, written by Peter Selinger 2001-2019
</metadata>
<g transform="translate(0.000000,192.000000) scale(0.100000,-0.100000)"
fill="#000000" stroke="none">
811 c445 -92 729 -532 635 -987 -62 -301 -295 -546 -601 -630 -91 -26 -329
-26 -420 0 -291 80 -516 305 -596 596 -26 91 -26 329 0 420 120 433 542 692
982 601z"/>
<path d="M605 1315 c-14 -13 -25 -33 -25 -45 0 -28 43 -70 73 -70 29 0 67 39
67 69 0 28 -42 71 -70 71 -11 0 -32 -11 -45 -25z"/>
<path d="M816 1319 c-61 -48 -2 -144 66 -108 30 16 38 28 38 61 0 27 -39 68
-65 68 -7 0 -24 -9 -39 -21z"/>
<path d="M1016 1316 c-15 -14 -26 -34 -26 -46 0 -26 43 -70 68 -70 34 0 65 34
65 69 0 62 -65 90 -107 47z"/>
<path d="M1219 1322 c-31 -26 -31 -78 0 -104 70 -56 153 39 88 100 -28 27 -57
28 -88 4z"/>
<path d="M600 1110 c-41 -41 -10 -110 50 -110 58 0 88 60 54 108 -20 29 -76
30 -104 2z"/>
<path d="M807 1112 c-22 -25 -21 -75 1 -95 25 -22 75 -21 95 1 22 25 21 75 -1
95 -25 22 -75 21 -95 -1z"/>
<path d="M1010 1110 c-40 -40 -9 -110 50 -110 29 0 70 38 70 65 0 7 -9 24 -21
39 -25 32 -70 35 -99 6z"/>
<path d="M1211 1104 c-12 -15 -21 -32 -21 -39 0 -7 9 -24 21 -39 41 -52 119
-25 119 41 0 62 -80 87 -119 37z"/>
<path d="M601 904 c-12 -15 -21 -35 -21 -46 0 -25 44 -68 70 -68 28 0 70 43
70 73 0 31 -39 67 -72 67 -17 0 -34 -10 -47 -26z"/>
<path d="M810 910 c-29 -29 -26 -74 6 -99 15 -12 32 -21 39 -21 26 0 65 41 65
68 0 33 -8 45 -37 61 -31 16 -50 14 -73 -9z"/>
<path d="M1012 907 c-30 -32 -28 -71 4 -96 15 -12 35 -21 46 -21 25 0 68 44
68 70 0 28 -43 70 -73 70 -13 0 -33 -10 -45 -23z"/>
<path d="M1219 912 c-45 -37 -16 -122 41 -122 31 0 70 39 70 71 0 59 -64 88
-111 51z"/>
<path d="M623 720 c-46 -18 -56 -74 -20 -108 63 -59 156 21 100 86 -22 25 -51
33 -80 22z"/>
<path d="M1233 718 c-12 -6 -27 -24 -34 -40 -10 -25 -9 -33 8 -56 26 -35 74
-41 102 -13 30 30 27 75 -5 100 -30 23 -39 24 -71 9z"/>
<path d="M807 702 c-37 -41 -6 -112 48 -112 55 0 87 77 47 113 -25 22 -75 21
-95 -1z"/>
<path d="M1006 698 c-21 -30 -20 -50 5 -82 32 -41 90 -30 109 20 10 26 -1 61
-24 76 -24 16 -75 8 -90 -14z"/>
</g>
</svg>
