<?xml version="1.0" standalone="no"?>
<!DOCTYPE svg PUBLIC "-//W3C//DTD SVG 20010904//EN"
 "http://www.w3.org/TR/2001/REC-SVG-20010904/DTD/svg10.dtd">
<svg version="1.0" xmlns="http://www.w3.org/2000/svg"
 width="192.000000pt" height="192.000000pt" viewBox="0 0 192.000000 192.000000"
 preserveAspectRatio="xMidYMid meet">
<metadata>
Created by potrace 1.16, written by Peter Selinger 2001-2019
</metadata>
<g transform="translate(0.000000,192.000000) scale(0.100000,-0.100000)"
fill="#000000" stroke="none">
811 c445 -92 729 -532 635 -987 -62 -301 -295 -546 -601 -630 -91 -26 -329
-26 -420 0 -291 80 -516 305 -596 596 -26 91 -26 329 0 420 120 433 542 692
982 601z"/>
<path d="M630 1292 c-33 -33 -36 -48 -19 -85 17 -38 50 -47 170 -47 103 0 111
1 134 25 30 29 32 74 6 106 -18 22 -27 24 -140 27 l-121 4 -30 -30z"/>
<path d="M1013 1310 c-47 -19 -57 -87 -18 -125 49 -49 125 -16 125 55 0 30 -6
43 -26 59 -29 23 -46 25 -81 11z"/>
<path d="M1179 1291 c-32 -32 -35 -47 -18 -85 27 -58 115 -55 139 5 16 37 -1
82 -36 98 -38 17 -53 14 -85 -18z"/>
<path d="M691 1113 c-40 -20 -77 -74 -87 -126 -8 -49 17 -118 57 -151 154
-130 365 71 243 231 -46 61 -141 81 -213 46z"/>
<path d="M990 1100 c-11 -11 -20 -31 -20 -45 0 -14 9 -34 20 -45 18 -18 33
-20 149 -20 128 0 130 0 150 26 26 34 26 54 1 82 -19 20 -30 22 -150 22 -117
0 -132 -2 -150 -20z"/>
<path d="M977 953 c-13 -12 -8 -308 5 -321 17 -17 299 -17 316 0 13 13 18 281
6 312 -5 14 -29 16 -163 16 -87 0 -161 -3 -164 -7z m141 -160 c-2 -50 -7 -78
-15 -81 -10 -3 -13 17 -13 77 0 66 3 81 15 81 13 0 15 -13 13 -77z m72 48 c0
-17 -5 -33 -11 -37 -8 -4 -8 -9 0 -17 16 -16 14 -80 -1 -75 -7 3 -15 13 -17
24 -1 10 -10 27 -19 37 -14 15 -14 19 1 35 10 10 17 25 17 34 0 8 3 18 7 21
14 15 23 6 23 -22z"/>
<path d="M653 759 c-27 -10 -53 -47 -53 -77 0 -57 83 -92 129 -54 65 54 3 160
-76 131z"/>
<path d="M834 755 c-17 -7 -34 -20 -38 -30 -32 -85 57 -153 119 -90 61 60 -2
153 -81 120z"/>
</g>
</svg>
