<?xml version="1.0" standalone="no"?>
<!DOCTYPE svg PUBLIC "-//W3C//DTD SVG 20010904//EN"
 "http://www.w3.org/TR/2001/REC-SVG-20010904/DTD/svg10.dtd">
<svg version="1.0" xmlns="http://www.w3.org/2000/svg"
 width="192.000000pt" height="192.000000pt" viewBox="0 0 192.000000 192.000000"
 preserveAspectRatio="xMidYMid meet">
<metadata>
Created by potrace 1.16, written by Peter Selinger 2001-2019
</metadata>
<g transform="translate(0.000000,192.000000) scale(0.100000,-0.100000)"
fill="#000000" stroke="none">
811 c445 -92 729 -532 635 -987 -62 -301 -295 -546 -601 -630 -91 -26 -329
-26 -420 0 -291 80 -516 305 -596 596 -26 91 -26 329 0 420 120 433 542 692
982 601z"/>
<path d="M925 1358 c-27 -15 -35 -28 -35 -59 0 -22 -9 -31 -55 -53 -117 -58
-157 -141 -153 -317 l3 -114 264 -3 c198 -2 267 1 278 10 13 10 14 34 11 128
-4 99 -8 122 -30 166 -31 59 -91 117 -141 135 -30 10 -36 18 -41 50 -9 57 -55
83 -101 57z"/>
<path d="M617 772 c-10 -10 -17 -25 -17 -33 0 -33 23 -39 150 -39 l126 0 -4
-38 c-8 -85 86 -129 146 -69 21 21 26 36 26 67 l-1 40 121 0 c82 0 126 4 134
12 18 18 14 56 -7 68 -13 6 -138 10 -339 10 -296 0 -320 -1 -335 -18z"/>
</g>
</svg>
