<?xml version="1.0" standalone="no"?>
<!DOCTYPE svg PUBLIC "-//W3C//DTD SVG 20010904//EN"
 "http://www.w3.org/TR/2001/REC-SVG-20010904/DTD/svg10.dtd">
<svg version="1.0" xmlns="http://www.w3.org/2000/svg"
 width="192.000000pt" height="192.000000pt" viewBox="0 0 192.000000 192.000000"
 preserveAspectRatio="xMidYMid meet">
<metadata>
Created by potrace 1.16, written by Peter Selinger 2001-2019
</metadata>
<g transform="translate(0.000000,192.000000) scale(0.100000,-0.100000)"
fill="#000000" stroke="none">
811 c445 -92 729 -532 635 -987 -62 -301 -295 -546 -601 -630 -91 -26 -329
-26 -420 0 -291 80 -516 305 -596 596 -26 91 -26 329 0 420 120 433 542 692
982 601z"/>
<path d="M562 1348 c-7 -7 -12 -27 -12 -45 0 -37 21 -53 70 -53 l30 0 -2 -277
-3 -277 -32 -7 c-45 -9 -63 -26 -63 -60 0 -53 17 -59 169 -59 121 0 140 2 154
18 21 23 22 65 3 81 -8 7 -30 15 -50 18 -26 4 -38 12 -42 27 -2 11 -3 92 -2
179 l3 158 195 -238 c208 -253 226 -268 271 -227 18 16 19 35 19 335 l0 318
40 11 c45 12 61 44 41 86 -10 24 -12 24 -148 24 -76 0 -143 -4 -149 -8 -42
-27 -15 -102 37 -102 16 0 32 -6 35 -13 3 -8 3 -55 2 -106 l-3 -92 -129 160
-129 161 -146 0 c-101 0 -151 -4 -159 -12z"/>
</g>
</svg>
