<?xml version="1.0" standalone="no"?>
<!DOCTYPE svg PUBLIC "-//W3C//DTD SVG 20010904//EN"
 "http://www.w3.org/TR/2001/REC-SVG-20010904/DTD/svg10.dtd">
<svg version="1.0" xmlns="http://www.w3.org/2000/svg"
 width="192.000000pt" height="192.000000pt" viewBox="0 0 192.000000 192.000000"
 preserveAspectRatio="xMidYMid meet">
<metadata>
Created by potrace 1.16, written by Peter Selinger 2001-2019
</metadata>
<g transform="translate(0.000000,192.000000) scale(0.100000,-0.100000)"
fill="#000000" stroke="none">
811 c445 -92 729 -532 635 -987 -62 -301 -295 -546 -601 -630 -91 -26 -329
-26 -420 0 -291 80 -516 305 -596 596 -26 91 -26 329 0 420 120 433 542 692
982 601z"/>
<path d="M860 1364 c-45 -20 -96 -69 -123 -119 -20 -37 -22 -58 -25 -247 -4
-234 4 -285 59 -351 48 -58 101 -81 184 -81 83 0 136 23 184 81 55 66 63 117
59 351 -3 189 -5 210 -25 247 -27 52 -78 100 -125 119 -47 20 -142 20 -188 0z
m129 -268 c20 -21 26 -23 42 -13 24 14 39 -3 39 -44 0 -15 7 -32 15 -39 21
-17 19 -50 -2 -50 -10 0 -42 25 -73 55 l-56 55 -54 -55 c-53 -54 -83 -68 -93
-42 -6 15 127 157 147 157 7 0 23 -11 35 -24z m-101 -194 l3 -32 65 0 64 0 0
35 c0 28 4 35 19 35 22 0 31 -19 31 -63 0 -55 -7 -58 -121 -55 l-104 3 -3 44
c-4 54 3 73 25 69 12 -2 19 -14 21 -36z"/>
<path d="M613 1200 c-80 -48 -83 -173 -6 -213 l27 -14 -23 -12 c-32 -17 -61
-70 -61 -111 0 -47 33 -98 75 -116 63 -26 60 -37 60 236 0 243 -1 250 -20 250
-11 0 -34 -9 -52 -20z"/>
<path d="M1225 970 c0 -273 -3 -262 60 -236 42 18 75 69 75 116 0 41 -29 94
-61 111 l-23 12 27 14 c55 28 73 111 37 170 -20 33 -66 63 -97 63 -17 0 -18
-16 -18 -250z"/>
</g>
</svg>
