<?xml version="1.0" standalone="no"?>
<!DOCTYPE svg PUBLIC "-//W3C//DTD SVG 20010904//EN"
 "http://www.w3.org/TR/2001/REC-SVG-20010904/DTD/svg10.dtd">
<svg version="1.0" xmlns="http://www.w3.org/2000/svg"
 width="192.000000pt" height="192.000000pt" viewBox="0 0 192.000000 192.000000"
 preserveAspectRatio="xMidYMid meet">
<metadata>
Created by potrace 1.16, written by Peter Selinger 2001-2019
</metadata>
<g transform="translate(0.000000,192.000000) scale(0.100000,-0.100000)"
fill="#000000" stroke="none">
811 c445 -92 729 -532 635 -987 -62 -301 -295 -546 -601 -630 -91 -26 -329
-26 -420 0 -291 80 -516 305 -596 596 -26 91 -26 329 0 420 120 433 542 692
982 601z"/>
<path d="M870 1369 c-70 -14 -151 -58 -208 -116 -199 -198 -138 -536 117 -657
61 -29 74 -31 176 -31 104 0 114 2 176 32 80 40 159 120 197 200 24 52 27 69
27 168 0 102 -2 115 -31 176 -81 171 -267 265 -454 228z m87 -321 c123 -123
165 -160 174 -151 20 20 15 114 -9 160 -12 23 -22 51 -22 61 0 27 44 64 71 60
45 -6 99 -123 99 -213 0 -95 -64 -218 -123 -239 -26 -10 -35 -2 -197 159
l-169 169 -11 -28 c-17 -46 -11 -98 17 -153 22 -45 24 -57 15 -78 -7 -14 -23
-30 -36 -37 -88 -39 -160 181 -107 323 25 67 79 129 112 129 17 0 68 -45 186
-162z"/>
</g>
</svg>
