<?xml version="1.0" standalone="no"?>
<!DOCTYPE svg PUBLIC "-//W3C//DTD SVG 20010904//EN"
 "http://www.w3.org/TR/2001/REC-SVG-20010904/DTD/svg10.dtd">
<svg version="1.0" xmlns="http://www.w3.org/2000/svg"
 width="192.000000pt" height="192.000000pt" viewBox="0 0 192.000000 192.000000"
 preserveAspectRatio="xMidYMid meet">
<metadata>
Created by potrace 1.16, written by Peter Selinger 2001-2019
</metadata>
<g transform="translate(0.000000,192.000000) scale(0.100000,-0.100000)"
fill="#000000" stroke="none">
811 c445 -92 729 -532 635 -987 -62 -301 -295 -546 -601 -630 -91 -26 -329
-26 -420 0 -291 80 -516 305 -596 596 -26 91 -26 329 0 420 120 433 542 692
982 601z"/>
<path d="M864 1356 c-45 -20 -102 -74 -127 -120 -20 -37 -22 -59 -25 -245 -4
-224 2 -270 48 -335 90 -132 300 -132 390 0 46 65 52 111 48 335 -3 186 -5
208 -25 245 -25 48 -82 101 -129 120 -42 18 -139 17 -180 0z m126 -295 c17
-35 25 -41 65 -47 25 -3 45 -12 45 -18 0 -7 -14 -25 -30 -41 -28 -26 -30 -34
-24 -71 9 -60 1 -67 -50 -43 l-42 21 -42 -21 c-48 -25 -57 -17 -48 43 6 37 4
45 -24 71 -16 16 -30 34 -30 41 0 6 20 15 45 18 40 6 48 12 65 47 11 21 27 39
35 39 8 0 24 -18 35 -39z"/>
<path d="M589 1171 c-33 -33 -39 -45 -39 -81 0 -48 30 -106 60 -115 17 -5 15
-10 -17 -38 -69 -64 -53 -170 30 -208 23 -10 47 -19 52 -19 6 0 10 90 10 250
l0 250 -29 0 c-20 0 -40 -12 -67 -39z"/>
<path d="M1222 1173 c6 -22 9 -123 6 -250 l-3 -214 30 7 c106 23 141 148 61
221 -31 29 -33 33 -16 38 30 9 60 67 60 115 0 36 -6 48 -39 81 -30 31 -46 39
-74 39 l-35 0 10 -37z"/>
</g>
</svg>
