<?xml version="1.0" standalone="no"?>
<!DOCTYPE svg PUBLIC "-//W3C//DTD SVG 20010904//EN"
 "http://www.w3.org/TR/2001/REC-SVG-20010904/DTD/svg10.dtd">
<svg version="1.0" xmlns="http://www.w3.org/2000/svg"
 width="192.000000pt" height="192.000000pt" viewBox="0 0 192.000000 192.000000"
 preserveAspectRatio="xMidYMid meet">
<metadata>
Created by potrace 1.16, written by Peter Selinger 2001-2019
</metadata>
<g transform="translate(0.000000,192.000000) scale(0.100000,-0.100000)"
fill="#000000" stroke="none">
811 c445 -92 729 -532 635 -987 -62 -301 -295 -546 -601 -630 -91 -26 -329
-26 -420 0 -291 80 -516 305 -596 596 -26 91 -26 329 0 420 120 433 542 692
982 601z"/>
<path d="M824 1352 c-139 -48 -262 -184 -267 -295 l-2 -42 71 -3 71 -3 17 44
c22 59 76 112 145 145 l56 27 3 59 c3 57 -8 86 -32 86 -6 -1 -34 -9 -62 -18z"/>
<path d="M1001 1356 c-7 -9 -11 -37 -9 -72 l3 -59 56 -27 c69 -33 123 -86 145
-145 l17 -44 71 3 71 3 -2 43 c-4 92 -102 216 -213 270 -83 39 -123 48 -139
28z"/>
<path d="M864 1058 c-52 -50 -74 -78 -72 -92 6 -41 38 -30 102 33 l62 61 59
-60 c40 -41 67 -60 80 -58 27 4 31 35 7 61 -13 14 -22 39 -24 67 -2 35 -7 46
-22 49 -11 2 -25 -4 -31 -13 -11 -14 -14 -14 -30 4 -30 33 -54 24 -131 -52z"/>
<path d="M550 901 c0 -44 35 -129 76 -184 42 -57 137 -122 211 -143 73 -21 85
-11 81 70 l-3 61 -56 27 c-65 30 -122 84 -139 131 -23 62 -23 62 -99 65 l-71
3 0 -30z"/>
<path d="M842 918 c-16 -16 -16 -90 0 -106 16 -16 210 -16 226 0 20 20 15 96
-6 107 -24 13 -42 -4 -42 -36 0 -22 -4 -23 -65 -23 -61 0 -65 1 -65 23 0 21
-16 47 -30 47 -3 0 -11 -5 -18 -12z"/>
<path d="M1212 918 c-7 -7 -12 -19 -12 -28 0 -22 -48 -93 -80 -118 -15 -11
-48 -31 -75 -44 l-50 -23 -3 -61 c-4 -81 8 -91 81 -70 144 42 268 176 284 307
l6 49 -70 0 c-40 0 -74 -5 -81 -12z"/>
</g>
</svg>
