<?xml version="1.0" standalone="no"?>
<!DOCTYPE svg PUBLIC "-//W3C//DTD SVG 20010904//EN"
 "http://www.w3.org/TR/2001/REC-SVG-20010904/DTD/svg10.dtd">
<svg version="1.0" xmlns="http://www.w3.org/2000/svg"
 width="192.000000pt" height="192.000000pt" viewBox="0 0 192.000000 192.000000"
 preserveAspectRatio="xMidYMid meet">
<metadata>
Created by potrace 1.16, written by Peter Selinger 2001-2019
</metadata>
<g transform="translate(0.000000,192.000000) scale(0.100000,-0.100000)"
fill="#000000" stroke="none">
811 c445 -92 729 -532 635 -987 -62 -301 -295 -546 -601 -630 -91 -26 -329
-26 -420 0 -291 80 -516 305 -596 596 -26 91 -26 329 0 420 120 433 542 692
982 601z"/>
<path d="M888 1320 c-25 -26 -29 -36 -24 -63 4 -18 15 -41 27 -52 18 -19 35
-20 244 -23 l225 -3 30 30 c38 38 40 79 4 115 l-27 26 -224 0 -225 0 -30 -30z"/>
<path d="M694 1026 c-21 -18 -28 -32 -28 -61 0 -29 7 -43 28 -61 l27 -24 320
0 321 0 29 29 c45 45 37 100 -18 129 -15 9 -116 12 -337 12 l-315 0 -27 -24z"/>
<path d="M522 727 c-30 -32 -29 -87 1 -115 23 -22 26 -22 436 -22 l412 0 24
25 c31 30 32 73 4 109 l-20 26 -418 0 -418 0 -21 -23z"/>
</g>
</svg>
