<?xml version="1.0" standalone="no"?>
<!DOCTYPE svg PUBLIC "-//W3C//DTD SVG 20010904//EN"
 "http://www.w3.org/TR/2001/REC-SVG-20010904/DTD/svg10.dtd">
<svg version="1.0" xmlns="http://www.w3.org/2000/svg"
 width="192.000000pt" height="192.000000pt" viewBox="0 0 192.000000 192.000000"
 preserveAspectRatio="xMidYMid meet">
<metadata>
Created by potrace 1.16, written by Peter Selinger 2001-2019
</metadata>
<g transform="translate(0.000000,192.000000) scale(0.100000,-0.100000)"
fill="#000000" stroke="none">
811 c445 -92 729 -532 635 -987 -62 -301 -295 -546 -601 -630 -91 -26 -329
-26 -420 0 -291 80 -516 305 -596 596 -26 91 -26 329 0 420 120 433 542 692
982 601z"/>
<path d="M634 1321 c-17 -10 -40 -31 -52 -46 -21 -26 -22 -38 -22 -231 l0
-202 26 -32 c41 -48 73 -60 164 -60 79 0 80 0 80 -25 0 -21 -5 -25 -28 -25
-35 0 -52 -16 -52 -50 0 -54 20 -60 202 -60 147 0 167 2 181 18 34 37 13 92
-33 92 -25 0 -30 4 -30 25 0 25 1 25 80 25 91 0 123 12 164 60 l26 32 0 203 0
203 -26 32 c-50 59 -56 60 -366 60 -260 0 -286 -2 -314 -19z m108 -231 c27
-37 38 -38 38 -5 0 27 25 44 41 28 10 -10 -8 -120 -24 -140 -15 -20 -24 -16
-48 24 l-23 37 -8 -32 c-10 -36 -25 -49 -40 -34 -8 8 -7 30 2 74 18 92 25 97
62 48z m220 16 c23 -17 39 -61 31 -83 -12 -34 -46 -63 -75 -63 -70 0 -106 97
-52 139 30 24 71 27 96 7z m86 2 c7 -7 12 -21 12 -32 0 -17 5 -15 30 14 29 34
30 34 45 16 8 -11 15 -26 15 -33 0 -22 14 -14 32 17 9 17 22 30 28 30 24 0 21
-33 -9 -96 -34 -74 -59 -82 -75 -26 -8 28 -26 45 -26 25 0 -5 -11 -21 -24 -38
-32 -40 -51 -23 -60 55 -9 75 2 98 32 68z"/>
</g>
</svg>
