<?xml version="1.0" standalone="no"?>
<!DOCTYPE svg PUBLIC "-//W3C//DTD SVG 20010904//EN"
 "http://www.w3.org/TR/2001/REC-SVG-20010904/DTD/svg10.dtd">
<svg version="1.0" xmlns="http://www.w3.org/2000/svg"
 width="192.000000pt" height="192.000000pt" viewBox="0 0 192.000000 192.000000"
 preserveAspectRatio="xMidYMid meet">
<metadata>
Created by potrace 1.16, written by Peter Selinger 2001-2019
</metadata>
<g transform="translate(0.000000,192.000000) scale(0.100000,-0.100000)"
fill="#000000" stroke="none">
811 c445 -92 729 -532 635 -987 -62 -301 -295 -546 -601 -630 -91 -26 -329
-26 -420 0 -291 80 -516 305 -596 596 -26 91 -26 329 0 420 120 433 542 692
982 601z"/>
<path d="M819 1292 l-134 -78 -3 -58 c-3 -57 -3 -58 -53 -88 l-49 -31 2 -161
3 -160 134 -78 134 -77 50 27 49 26 50 -27 49 -28 137 80 137 79 3 143 c1 79
0 153 -2 164 -3 11 -26 31 -51 44 l-45 24 0 57 0 58 -107 62 c-60 35 -122 71
-139 81 l-30 18 -135 -77z m249 -62 l102 -60 0 -174 c0 -193 4 -182 -77 -226
l-42 -23 -103 59 c-59 34 -104 66 -106 77 -6 29 25 20 119 -34 l89 -51 35 22
35 22 0 151 0 152 -84 48 -83 48 -95 -56 c-52 -30 -100 -55 -107 -55 -7 0 -11
10 -9 22 2 16 30 38 98 79 52 32 102 58 110 58 8 0 61 -26 118 -59z m-53 -85
l55 -35 0 -120 c0 -101 -3 -122 -16 -127 -26 -10 -34 17 -34 124 l0 101 -33
20 -33 19 -132 -76 -132 -76 0 -96 0 -97 100 -57 c55 -31 100 -61 100 -66 0
-4 -8 -13 -18 -18 -17 -9 -80 22 -195 96 l-38 24 3 121 3 120 150 89 c83 48
154 88 158 89 4 0 32 -16 62 -35z m-45 -103 c0 -11 -33 -35 -90 -67 l-90 -50
2 -44 3 -45 125 -73 c69 -40 128 -73 131 -73 4 0 43 21 88 47 l81 48 0 117 c0
65 2 118 4 118 2 0 11 -3 20 -6 13 -5 16 -27 16 -134 l0 -128 -98 -56 c-54
-31 -104 -56 -111 -56 -7 0 -80 39 -162 86 l-149 86 0 66 0 67 107 62 c59 34
111 59 115 57 4 -3 8 -13 8 -22z"/>
</g>
</svg>
