<?xml version="1.0" standalone="no"?>
<!DOCTYPE svg PUBLIC "-//W3C//DTD SVG 20010904//EN"
 "http://www.w3.org/TR/2001/REC-SVG-20010904/DTD/svg10.dtd">
<svg version="1.0" xmlns="http://www.w3.org/2000/svg"
 width="192.000000pt" height="192.000000pt" viewBox="0 0 192.000000 192.000000"
 preserveAspectRatio="xMidYMid meet">
<metadata>
Created by potrace 1.16, written by Peter Selinger 2001-2019
</metadata>
<g transform="translate(0.000000,192.000000) scale(0.100000,-0.100000)"
fill="#000000" stroke="none">
811 c445 -92 729 -532 635 -987 -62 -301 -295 -546 -601 -630 -91 -26 -329
-26 -420 0 -291 80 -516 305 -596 596 -26 91 -26 329 0 420 120 433 542 692
982 601z"/>
<path d="M796 1354 c-20 -19 -20 -48 -2 -142 7 -40 11 -74 7 -76 -3 -2 -22 -6
-42 -10 -52 -9 -113 -57 -138 -108 -19 -40 -21 -61 -21 -227 0 -180 0 -182 25
-206 l24 -25 331 0 c323 0 330 0 330 20 0 11 -6 20 -12 20 -31 1 -43 21 -48
82 l-5 63 -262 3 -263 2 0 25 0 25 263 2 262 3 3 80 c2 55 -2 92 -12 117 -29
69 -108 128 -172 128 -22 0 -25 4 -21 23 3 12 11 57 18 100 11 71 10 79 -6 97
-16 18 -31 20 -131 20 -89 0 -116 -3 -128 -16z"/>
</g>
</svg>
