<?xml version="1.0" standalone="no"?>
<!DOCTYPE svg PUBLIC "-//W3C//DTD SVG 20010904//EN"
 "http://www.w3.org/TR/2001/REC-SVG-20010904/DTD/svg10.dtd">
<svg version="1.0" xmlns="http://www.w3.org/2000/svg"
 width="192.000000pt" height="192.000000pt" viewBox="0 0 192.000000 192.000000"
 preserveAspectRatio="xMidYMid meet">
<metadata>
Created by potrace 1.16, written by Peter Selinger 2001-2019
</metadata>
<g transform="translate(0.000000,192.000000) scale(0.100000,-0.100000)"
fill="#000000" stroke="none">
811 c445 -92 729 -532 635 -987 -62 -301 -295 -546 -601 -630 -91 -26 -329
-26 -420 0 -291 80 -516 305 -596 596 -26 91 -26 329 0 420 120 433 542 692
982 601z"/>
<path d="M894 1349 c-50 -41 -107 -66 -169 -74 -114 -17 -131 -48 -122 -224
11 -193 56 -312 150 -396 55 -50 163 -107 202 -107 39 0 147 57 202 107 94 84
139 203 150 396 9 176 -8 207 -122 224 -62 8 -119 33 -169 74 -21 17 -49 31
-61 31 -12 0 -40 -14 -61 -31z m112 -250 c-4 -39 -10 -77 -13 -85 -4 -11 9
-14 66 -14 39 0 71 -3 71 -8 0 -4 -52 -59 -116 -122 l-116 -115 7 74 c3 40 9
79 12 87 4 11 -9 14 -66 14 -39 0 -71 3 -71 7 0 8 221 233 229 233 2 0 0 -32
-3 -71z"/>
</g>
</svg>
