<?xml version="1.0" standalone="no"?>
<!DOCTYPE svg PUBLIC "-//W3C//DTD SVG 20010904//EN"
 "http://www.w3.org/TR/2001/REC-SVG-20010904/DTD/svg10.dtd">
<svg version="1.0" xmlns="http://www.w3.org/2000/svg"
 width="192.000000pt" height="192.000000pt" viewBox="0 0 192.000000 192.000000"
 preserveAspectRatio="xMidYMid meet">
<metadata>
Created by potrace 1.16, written by Peter Selinger 2001-2019
</metadata>
<g transform="translate(0.000000,192.000000) scale(0.100000,-0.100000)"
fill="#000000" stroke="none">
811 c445 -92 729 -532 635 -987 -62 -301 -295 -546 -601 -630 -91 -26 -329
-26 -420 0 -291 80 -516 305 -596 596 -26 91 -26 329 0 420 120 433 542 692
982 601z"/>
<path d="M676 1249 c-17 -14 -26 -30 -26 -50 0 -25 -4 -29 -28 -29 -18 0 -38
-10 -53 -26 -23 -25 -24 -32 -27 -195 -2 -121 0 -174 9 -185 14 -17 100 -19
117 -2 8 8 12 66 12 195 l0 183 43 0 c73 0 76 -9 79 -211 l3 -174 60 0 60 0 0
207 0 207 -30 32 c-62 66 -167 89 -219 48z"/>
<path d="M987 1173 c-4 -3 -7 -95 -7 -204 l0 -198 32 -37 c64 -73 175 -97 223
-49 14 13 25 36 25 50 0 20 5 25 25 25 14 0 37 11 51 25 l24 25 -2 182 -3 183
-48 3 c-77 5 -77 5 -77 -204 l0 -184 -43 0 c-73 0 -77 10 -77 201 0 115 -4
169 -12 177 -13 13 -100 17 -111 5z"/>
</g>
</svg>
