<?xml version="1.0" standalone="no"?>
<!DOCTYPE svg PUBLIC "-//W3C//DTD SVG 20010904//EN"
 "http://www.w3.org/TR/2001/REC-SVG-20010904/DTD/svg10.dtd">
<svg version="1.0" xmlns="http://www.w3.org/2000/svg"
 width="192.000000pt" height="192.000000pt" viewBox="0 0 192.000000 192.000000"
 preserveAspectRatio="xMidYMid meet">
<metadata>
Created by potrace 1.16, written by Peter Selinger 2001-2019
</metadata>
<g transform="translate(0.000000,192.000000) scale(0.100000,-0.100000)"
fill="#000000" stroke="none">
811 c445 -92 729 -532 635 -987 -62 -301 -295 -546 -601 -630 -91 -26 -329
-26 -420 0 -291 80 -516 305 -596 596 -26 91 -26 329 0 420 120 433 542 692
982 601z"/>
<path d="M927 1348 c-14 -12 -85 -126 -158 -253 -125 -216 -133 -234 -137
-293 -7 -100 -4 -102 195 -102 l163 0 0 -50 c0 -76 22 -93 112 -88 81 4 88 11
88 86 0 46 2 52 21 52 48 0 59 16 59 90 0 74 -11 90 -59 90 -21 0 -21 4 -21
228 0 125 -5 234 -10 242 -7 11 -35 16 -118 18 -102 3 -110 2 -135 -20z m60
-465 c-3 -2 -37 -3 -76 -1 l-71 3 73 127 72 128 3 -127 c1 -69 1 -128 -1 -130z"/>
</g>
</svg>
