<?xml version="1.0" standalone="no"?>
<!DOCTYPE svg PUBLIC "-//W3C//DTD SVG 20010904//EN"
 "http://www.w3.org/TR/2001/REC-SVG-20010904/DTD/svg10.dtd">
<svg version="1.0" xmlns="http://www.w3.org/2000/svg"
 width="192.000000pt" height="192.000000pt" viewBox="0 0 192.000000 192.000000"
 preserveAspectRatio="xMidYMid meet">
<metadata>
Created by potrace 1.16, written by Peter Selinger 2001-2019
</metadata>
<g transform="translate(0.000000,192.000000) scale(0.100000,-0.100000)"
fill="#000000" stroke="none">
811 c445 -92 729 -532 635 -987 -62 -301 -295 -546 -601 -630 -91 -26 -329
-26 -420 0 -291 80 -516 305 -596 596 -26 91 -26 329 0 420 120 433 542 692
982 601z"/>
<path d="M852 1356 c-77 -25 -151 -99 -167 -167 -9 -37 11 -53 90 -68 l68 -14
30 37 c24 30 35 36 67 36 42 0 67 -18 76 -56 10 -38 -31 -95 -190 -267 l-146
-158 0 -57 c0 -32 5 -63 12 -70 17 -17 509 -17 526 0 16 16 16 140 0 156 -8 8
-52 12 -131 12 l-118 0 83 90 c136 147 180 239 162 337 -14 77 -60 140 -129
176 -51 26 -172 33 -233 13z"/>
</g>
</svg>
