<?xml version="1.0" standalone="no"?>
<!DOCTYPE svg PUBLIC "-//W3C//DTD SVG 20010904//EN"
 "http://www.w3.org/TR/2001/REC-SVG-20010904/DTD/svg10.dtd">
<svg version="1.0" xmlns="http://www.w3.org/2000/svg"
 width="192.000000pt" height="192.000000pt" viewBox="0 0 192.000000 192.000000"
 preserveAspectRatio="xMidYMid meet">
<metadata>
Created by potrace 1.16, written by Peter Selinger 2001-2019
</metadata>
<g transform="translate(0.000000,192.000000) scale(0.100000,-0.100000)"
fill="#000000" stroke="none">
811 c445 -92 729 -532 635 -987 -62 -301 -295 -546 -601 -630 -91 -26 -329
-26 -420 0 -291 80 -516 305 -596 596 -26 91 -26 329 0 420 120 433 542 692
982 601z"/>
<path d="M857 1370 c-108 -28 -177 -110 -177 -212 0 -49 27 -114 59 -142 l21
-19 -41 -35 c-50 -43 -69 -85 -69 -150 0 -105 56 -190 154 -234 75 -33 228
-33 304 1 96 43 152 130 152 235 0 63 -20 106 -69 148 l-41 35 21 19 c32 28
59 93 59 144 0 84 -54 162 -135 196 -47 19 -183 27 -238 14z m171 -175 c30
-35 29 -86 -2 -122 -20 -23 -32 -28 -71 -28 -39 0 -51 5 -71 28 -41 48 -26
124 30 148 35 14 89 2 114 -26z m-18 -290 c48 -25 64 -79 38 -128 -19 -36 -40
-46 -94 -47 -42 0 -56 5 -78 26 -44 45 -33 119 22 148 35 20 76 20 112 1z"/>
</g>
</svg>
