<?xml version="1.0" standalone="no"?>
<!DOCTYPE svg PUBLIC "-//W3C//DTD SVG 20010904//EN"
 "http://www.w3.org/TR/2001/REC-SVG-20010904/DTD/svg10.dtd">
<svg version="1.0" xmlns="http://www.w3.org/2000/svg"
 width="192.000000pt" height="192.000000pt" viewBox="0 0 192.000000 192.000000"
 preserveAspectRatio="xMidYMid meet">
<metadata>
Created by potrace 1.16, written by Peter Selinger 2001-2019
</metadata>
<g transform="translate(0.000000,192.000000) scale(0.100000,-0.100000)"
fill="#000000" stroke="none">
811 c445 -92 729 -532 635 -987 -62 -301 -295 -546 -601 -630 -91 -26 -329
-26 -420 0 -291 80 -516 305 -596 596 -26 91 -26 329 0 420 120 433 542 692
982 601z"/>
<path d="M702 1348 c-7 -7 -12 -39 -12 -74 0 -93 3 -94 176 -94 79 0 144 -3
144 -6 0 -3 -55 -133 -121 -289 -70 -162 -119 -290 -116 -299 5 -13 23 -16 86
-16 73 0 82 2 95 23 7 12 68 151 135 308 l122 287 -3 83 -3 84 -245 3 c-183 2
-249 -1 -258 -10z"/>
</g>
</svg>
