<?xml version="1.0" standalone="no"?>
<!DOCTYPE svg PUBLIC "-//W3C//DTD SVG 20010904//EN"
 "http://www.w3.org/TR/2001/REC-SVG-20010904/DTD/svg10.dtd">
<svg version="1.0" xmlns="http://www.w3.org/2000/svg"
 width="192.000000pt" height="192.000000pt" viewBox="0 0 192.000000 192.000000"
 preserveAspectRatio="xMidYMid meet">
<metadata>
Created by potrace 1.16, written by Peter Selinger 2001-2019
</metadata>
<g transform="translate(0.000000,192.000000) scale(0.100000,-0.100000)"
fill="#000000" stroke="none">
811 c445 -92 729 -532 635 -987 -62 -301 -295 -546 -601 -630 -91 -26 -329
-26 -420 0 -291 80 -516 305 -596 596 -26 91 -26 329 0 420 120 433 542 692
982 601z"/>
<path d="M751 1356 c-7 -8 -22 -101 -34 -206 -24 -220 -26 -213 66 -231 50
-10 63 -10 93 4 111 53 206 -27 161 -135 -12 -29 -24 -39 -55 -49 -52 -15 -86
-6 -127 35 l-33 34 -64 -15 c-97 -22 -108 -41 -63 -107 62 -91 146 -130 270
-124 120 5 203 57 250 153 24 50 31 152 15 209 -38 137 -195 201 -343 141 -16
-7 -17 -3 -12 36 14 97 -3 88 158 91 l142 3 0 85 0 85 -206 3 c-171 2 -208 0
-218 -12z"/>
</g>
</svg>
