<?xml version="1.0" standalone="no"?>
<!DOCTYPE svg PUBLIC "-//W3C//DTD SVG 20010904//EN"
 "http://www.w3.org/TR/2001/REC-SVG-20010904/DTD/svg10.dtd">
<svg version="1.0" xmlns="http://www.w3.org/2000/svg"
 width="192.000000pt" height="192.000000pt" viewBox="0 0 192.000000 192.000000"
 preserveAspectRatio="xMidYMid meet">
<metadata>
Created by potrace 1.16, written by Peter Selinger 2001-2019
</metadata>
<g transform="translate(0.000000,192.000000) scale(0.100000,-0.100000)"
fill="#000000" stroke="none">
811 c445 -92 729 -532 635 -987 -62 -301 -295 -546 -601 -630 -91 -26 -329
-26 -420 0 -291 80 -516 305 -596 596 -26 91 -26 329 0 420 120 433 542 692
982 601z"/>
<path d="M862 1366 c-63 -21 -120 -64 -148 -112 -35 -60 -24 -78 63 -98 l68
-15 30 28 c39 37 67 45 110 31 39 -13 55 -35 55 -78 0 -43 -30 -64 -102 -71
l-63 -6 0 -70 0 -70 35 -3 c106 -7 140 -28 140 -86 0 -96 -115 -123 -195 -46
l-32 31 -72 -18 c-86 -20 -100 -37 -75 -88 20 -44 74 -92 133 -119 37 -16 66
-21 146 -21 90 0 106 3 157 28 65 32 110 80 127 136 30 100 1 188 -81 245
l-23 16 32 25 c70 55 83 186 27 268 -59 85 -219 130 -332 93z"/>
</g>
</svg>
