<?xml version="1.0" standalone="no"?>
<!DOCTYPE svg PUBLIC "-//W3C//DTD SVG 20010904//EN"
 "http://www.w3.org/TR/2001/REC-SVG-20010904/DTD/svg10.dtd">
<svg version="1.0" xmlns="http://www.w3.org/2000/svg"
 width="192.000000pt" height="192.000000pt" viewBox="0 0 192.000000 192.000000"
 preserveAspectRatio="xMidYMid meet">
<metadata>
Created by potrace 1.16, written by Peter Selinger 2001-2019
</metadata>
<g transform="translate(0.000000,192.000000) scale(0.100000,-0.100000)"
fill="#000000" stroke="none">
811 c445 -92 729 -532 635 -987 -62 -301 -295 -546 -601 -630 -91 -26 -329
-26 -420 0 -291 80 -516 305 -596 596 -26 91 -26 329 0 420 120 433 542 692
982 601z"/>
<path d="M856 1364 c-112 -36 -182 -117 -216 -250 -57 -221 18 -459 166 -529
140 -66 314 -31 400 82 53 69 76 144 82 263 5 124 -7 195 -49 279 -53 106
-138 160 -262 167 -48 3 -88 -1 -121 -12z m184 -212 c45 -44 60 -92 60 -187 0
-96 -15 -142 -61 -189 -37 -37 -42 -38 -89 -34 -59 6 -85 26 -112 85 -53 120
-20 308 62 350 14 7 42 13 64 13 31 0 45 -7 76 -38z"/>
</g>
</svg>
