<?xml version="1.0" standalone="no"?>
<!DOCTYPE svg PUBLIC "-//W3C//DTD SVG 20010904//EN"
 "http://www.w3.org/TR/2001/REC-SVG-20010904/DTD/svg10.dtd">
<svg version="1.0" xmlns="http://www.w3.org/2000/svg"
 width="192.000000pt" height="192.000000pt" viewBox="0 0 192.000000 192.000000"
 preserveAspectRatio="xMidYMid meet">
<metadata>
Created by potrace 1.16, written by Peter Selinger 2001-2019
</metadata>
<g transform="translate(0.000000,192.000000) scale(0.100000,-0.100000)"
fill="#000000" stroke="none">
811 c445 -92 729 -532 635 -987 -62 -301 -295 -546 -601 -630 -91 -26 -329
-26 -420 0 -291 80 -516 305 -596 596 -26 91 -26 329 0 420 120 433 542 692
982 601z"/>
<path d="M853 1356 c-89 -29 -152 -90 -181 -175 -16 -44 -15 -133 0 -185 19
-63 100 -140 167 -160 30 -9 65 -16 78 -16 13 0 23 -2 23 -5 0 -3 -34 -52 -76
-110 -42 -58 -74 -113 -72 -123 3 -14 16 -18 73 -20 38 -2 79 -1 91 2 22 6
209 277 260 377 35 69 44 175 21 244 -38 112 -132 176 -266 182 -46 2 -93 -3
-118 -11z m141 -170 c69 -29 88 -108 40 -165 -32 -39 -80 -49 -127 -26 -80 38
-76 154 7 191 39 17 40 17 80 0z"/>
</g>
</svg>
