<?xml version="1.0" standalone="no"?>
<!DOCTYPE svg PUBLIC "-//W3C//DTD SVG 20010904//EN"
 "http://www.w3.org/TR/2001/REC-SVG-20010904/DTD/svg10.dtd">
<svg version="1.0" xmlns="http://www.w3.org/2000/svg"
 width="192.000000pt" height="192.000000pt" viewBox="0 0 192.000000 192.000000"
 preserveAspectRatio="xMidYMid meet">
<metadata>
Created by potrace 1.16, written by Peter Selinger 2001-2019
</metadata>
<g transform="translate(0.000000,192.000000) scale(0.100000,-0.100000)"
fill="#000000" stroke="none">
811 c445 -92 729 -532 635 -987 -62 -301 -295 -546 -601 -630 -91 -26 -329
-26 -420 0 -291 80 -516 305 -596 596 -26 91 -26 329 0 420 120 433 542 692
982 601z"/>
<path d="M862 1218 c-7 -7 -12 -22 -12 -34 0 -18 -8 -23 -42 -28 -91 -15 -258
-115 -258 -156 0 -31 79 -137 128 -173 44 -33 125 -67 157 -67 8 0 15 -8 15
-18 0 -39 16 -42 257 -42 219 0 233 1 243 19 14 26 14 466 0 492 -10 18 -24
19 -243 19 -168 0 -236 -3 -245 -12z m159 -93 c66 -34 139 -92 139 -111 0 -24
-91 -102 -156 -135 -72 -36 -146 -44 -152 -16 -3 14 4 17 33 17 55 0 145 53
180 107 16 24 16 26 -11 54 -38 40 -120 79 -166 79 -34 0 -38 -3 -38 -25 0
-22 4 -25 35 -25 40 0 82 -18 106 -46 15 -18 14 -21 -17 -47 l-32 -28 -18 31
c-10 17 -31 36 -46 43 -16 6 -28 20 -28 29 0 11 -8 18 -20 18 -27 0 -104 -37
-125 -60 -16 -17 -16 -21 0 -54 22 -45 78 -95 116 -103 23 -4 29 -11 29 -31 0
-24 1 -25 63 -20 77 7 154 39 233 99 l61 46 42 -25 c22 -13 41 -27 41 -32 0
-14 -114 -68 -199 -94 -47 -15 -120 -30 -163 -33 -74 -6 -78 -5 -78 15 0 16
-9 24 -36 31 -72 20 -139 82 -176 165 -12 28 -11 30 35 71 44 40 118 75 159
75 12 0 18 7 18 21 0 20 4 21 58 17 35 -4 80 -17 113 -33z m-171 -165 c0 -45
-4 -70 -11 -70 -18 0 -79 70 -79 90 0 20 42 49 73 50 15 0 17 -10 17 -70z"/>
</g>
</svg>
