<?xml version="1.0" standalone="no"?>
<!DOCTYPE svg PUBLIC "-//W3C//DTD SVG 20010904//EN"
 "http://www.w3.org/TR/2001/REC-SVG-20010904/DTD/svg10.dtd">
<svg version="1.0" xmlns="http://www.w3.org/2000/svg"
 width="192.000000pt" height="192.000000pt" viewBox="0 0 192.000000 192.000000"
 preserveAspectRatio="xMidYMid meet">
<metadata>
Created by potrace 1.16, written by Peter Selinger 2001-2019
</metadata>
<g transform="translate(0.000000,192.000000) scale(0.100000,-0.100000)"
fill="#000000" stroke="none">
811 c445 -92 729 -532 635 -987 -62 -301 -295 -546 -601 -630 -91 -26 -329
-26 -420 0 -291 80 -516 305 -596 596 -26 91 -26 329 0 420 120 433 542 692
982 601z"/>
<path d="M873 1225 c-13 -9 -23 -27 -23 -39 0 -20 -6 -25 -45 -30 -88 -14
-255 -115 -255 -156 0 -10 19 -47 43 -82 50 -75 128 -132 205 -150 38 -9 52
-17 52 -30 0 -10 11 -25 24 -33 21 -14 57 -16 239 -13 163 2 218 6 230 17 15
12 17 43 17 256 0 213 -2 244 -17 256 -12 11 -67 15 -232 17 -185 2 -219 0
-238 -13z m133 -94 c54 -24 141 -87 149 -109 14 -36 -140 -153 -225 -171 -54
-12 -80 -7 -80 15 0 9 12 14 34 14 47 0 83 15 133 56 65 53 71 70 37 105 -38
40 -120 79 -166 79 -34 0 -38 -3 -38 -25 0 -22 4 -25 35 -25 39 0 84 -19 105
-45 11 -13 9 -19 -10 -40 -30 -32 -42 -31 -63 5 -10 16 -29 33 -43 36 -15 4
-24 13 -24 25 0 13 -7 19 -22 19 -32 -1 -99 -33 -123 -59 -19 -22 -19 -23 0
-57 25 -46 79 -93 116 -101 23 -4 29 -11 29 -31 0 -24 1 -25 64 -20 75 6 165
45 240 103 l49 37 44 -21 c23 -11 43 -25 43 -30 0 -34 -291 -131 -391 -131
-42 0 -49 3 -49 20 0 14 -11 23 -41 31 -52 16 -128 84 -160 143 l-24 45 30 32
c35 37 106 75 158 84 28 6 37 12 37 28 0 18 5 19 54 14 30 -3 76 -15 102 -26z
m-156 -171 c0 -38 -3 -70 -8 -70 -26 0 -82 67 -82 99 0 13 49 40 73 41 15 0
17 -10 17 -70z"/>
</g>
</svg>
