<?xml version="1.0" standalone="no"?>
<!DOCTYPE svg PUBLIC "-//W3C//DTD SVG 20010904//EN"
 "http://www.w3.org/TR/2001/REC-SVG-20010904/DTD/svg10.dtd">
<svg version="1.0" xmlns="http://www.w3.org/2000/svg"
 width="192.000000pt" height="192.000000pt" viewBox="0 0 192.000000 192.000000"
 preserveAspectRatio="xMidYMid meet">
<metadata>
Created by potrace 1.16, written by Peter Selinger 2001-2019
</metadata>
<g transform="translate(0.000000,192.000000) scale(0.100000,-0.100000)"
fill="#000000" stroke="none">
811 c445 -92 729 -532 635 -987 -62 -301 -295 -546 -601 -630 -91 -26 -329
-26 -420 0 -291 80 -516 305 -596 596 -26 91 -26 329 0 420 120 433 542 692
982 601z"/>
<path d="M653 1349 c-17 -5 -43 -23 -57 -40 l-26 -31 0 -313 0 -313 26 -31
c37 -44 91 -58 137 -36 63 30 71 53 75 209 l4 138 176 -175 c130 -128 185
-177 208 -181 44 -10 99 15 124 56 19 31 20 50 20 326 0 323 -3 342 -59 375
-59 35 -137 12 -166 -49 -11 -24 -15 -68 -15 -166 l-1 -133 -178 183 c-98 100
-185 182 -194 182 -8 0 -21 2 -29 4 -7 2 -27 0 -45 -5z"/>
</g>
</svg>
