<?xml version="1.0" standalone="no"?>
<!DOCTYPE svg PUBLIC "-//W3C//DTD SVG 20010904//EN"
 "http://www.w3.org/TR/2001/REC-SVG-20010904/DTD/svg10.dtd">
<svg version="1.0" xmlns="http://www.w3.org/2000/svg"
 width="192.000000pt" height="192.000000pt" viewBox="0 0 192.000000 192.000000"
 preserveAspectRatio="xMidYMid meet">
<metadata>
Created by potrace 1.16, written by Peter Selinger 2001-2019
</metadata>
<g transform="translate(0.000000,192.000000) scale(0.100000,-0.100000)"
fill="#000000" stroke="none">
811 c445 -92 729 -532 635 -987 -62 -301 -295 -546 -601 -630 -91 -26 -329
-26 -420 0 -291 80 -516 305 -596 596 -26 91 -26 329 0 420 120 433 542 692
982 601z"/>
<path d="M918 1345 c-11 -25 -10 -29 11 -46 13 -11 33 -19 45 -19 38 0 124
-50 160 -92 72 -83 87 -212 39 -309 -23 -45 -37 -59 -83 -82 -88 -46 -168 -29
-223 45 -26 35 -34 116 -14 143 15 19 16 19 39 -10 81 -104 106 -130 135 -138
45 -13 83 9 111 63 67 134 -20 307 -171 341 -68 15 -133 1 -209 -44 -160 -96
-182 -361 -41 -517 53 -59 106 -92 185 -115 66 -19 98 -9 98 29 0 31 -13 40
-82 60 -77 22 -137 70 -171 137 -89 174 0 363 170 363 59 0 93 -19 131 -74 24
-36 30 -106 11 -141 -9 -19 -13 -16 -51 33 -82 105 -98 118 -144 118 -35 0
-47 -5 -68 -30 -75 -90 -49 -250 52 -327 136 -103 338 -44 414 122 19 41 23
67 23 145 0 86 -3 101 -32 162 -53 112 -163 195 -273 206 -46 4 -50 3 -62 -23z"/>
</g>
</svg>
