<?xml version="1.0" standalone="no"?>
<!DOCTYPE svg PUBLIC "-//W3C//DTD SVG 20010904//EN"
 "http://www.w3.org/TR/2001/REC-SVG-20010904/DTD/svg10.dtd">
<svg version="1.0" xmlns="http://www.w3.org/2000/svg"
 width="192.000000pt" height="192.000000pt" viewBox="0 0 192.000000 192.000000"
 preserveAspectRatio="xMidYMid meet">
<metadata>
Created by potrace 1.16, written by Peter Selinger 2001-2019
</metadata>
<g transform="translate(0.000000,192.000000) scale(0.100000,-0.100000)"
fill="#000000" stroke="none">
811 c445 -92 729 -532 635 -987 -62 -301 -295 -546 -601 -630 -91 -26 -329
-26 -420 0 -291 80 -516 305 -596 596 -26 91 -26 329 0 420 120 433 542 692
982 601z"/>
<path d="M1138 1354 c29 -20 25 -54 -9 -73 -23 -13 -35 -11 -135 20 -177 55
-257 47 -316 -32 -37 -49 -20 -141 30 -168 17 -9 19 -6 18 31 -1 35 3 44 26
57 26 15 34 14 115 -8 49 -13 123 -32 166 -44 l77 -20 0 -58 c0 -51 -3 -61
-24 -74 -39 -26 -40 -45 -6 -80 30 -31 31 -34 28 -115 l-3 -84 -40 -9 c-65
-13 -139 0 -192 36 -58 40 -84 89 -91 172 -5 70 -8 67 66 89 l22 7 0 -130 0
-130 68 29 67 28 3 156 c2 112 -1 156 -9 156 -6 0 -52 -18 -102 -40 -49 -22
-92 -38 -95 -35 -3 2 7 22 22 43 30 44 32 52 11 52 -24 0 -87 -43 -126 -87
-53 -59 -73 -118 -67 -201 12 -171 149 -287 338 -286 152 1 263 92 286 233 8
51 -3 52 -38 3 -14 -20 -40 -45 -57 -55 l-31 -18 0 79 c0 71 2 81 25 102 32
30 32 50 0 80 -21 20 -25 33 -25 82 0 56 1 58 33 72 51 21 77 60 77 115 0 26
-7 56 -16 69 -19 27 -65 52 -96 52 l-22 0 22 -16z"/>
</g>
</svg>
