<?xml version="1.0" standalone="no"?>
<!DOCTYPE svg PUBLIC "-//W3C//DTD SVG 20010904//EN"
 "http://www.w3.org/TR/2001/REC-SVG-20010904/DTD/svg10.dtd">
<svg version="1.0" xmlns="http://www.w3.org/2000/svg"
 width="192.000000pt" height="192.000000pt" viewBox="0 0 192.000000 192.000000"
 preserveAspectRatio="xMidYMid meet">
<metadata>
Created by potrace 1.16, written by Peter Selinger 2001-2019
</metadata>
<g transform="translate(0.000000,192.000000) scale(0.100000,-0.100000)"
fill="#000000" stroke="none">
811 c445 -92 729 -532 635 -987 -62 -301 -295 -546 -601 -630 -91 -26 -329
-26 -420 0 -291 80 -516 305 -596 596 -26 91 -26 329 0 420 120 433 542 692
982 601z"/>
<path d="M859 1355 c-26 -8 -69 -35 -97 -60 -47 -42 -102 -130 -102 -163 0 -8
-11 -27 -25 -44 -35 -41 -33 -83 5 -118 37 -34 38 -59 5 -90 -17 -16 -25 -34
-25 -56 0 -33 13 -44 53 -44 19 0 25 -11 42 -72 24 -84 44 -103 77 -71 l22 22
52 -49 c46 -43 58 -50 94 -50 35 0 47 7 96 54 55 53 56 54 75 35 10 -10 28
-19 39 -19 26 0 47 72 62 208 10 94 13 106 40 133 36 35 35 53 -9 177 -37 101
-73 148 -144 186 -44 25 -68 30 -134 33 -51 2 -97 -3 -126 -12z m-21 -297 c27
-27 4 -78 -37 -78 -14 0 -41 29 -41 45 0 35 53 58 78 33z m212 -2 c28 -35 -11
-93 -47 -70 -36 22 -23 84 17 84 10 0 23 -7 30 -14z m-170 -158 l30 -22 31 23
c33 24 50 21 33 -7 -19 -29 -59 -44 -90 -32 -29 12 -55 40 -48 52 7 12 12 10
44 -14z"/>
</g>
</svg>
