<?xml version="1.0" standalone="no"?>
<!DOCTYPE svg PUBLIC "-//W3C//DTD SVG 20010904//EN"
 "http://www.w3.org/TR/2001/REC-SVG-20010904/DTD/svg10.dtd">
<svg version="1.0" xmlns="http://www.w3.org/2000/svg"
 width="192.000000pt" height="192.000000pt" viewBox="0 0 192.000000 192.000000"
 preserveAspectRatio="xMidYMid meet">
<metadata>
Created by potrace 1.16, written by Peter Selinger 2001-2019
</metadata>
<g transform="translate(0.000000,192.000000) scale(0.100000,-0.100000)"
fill="#000000" stroke="none">
811 c445 -92 729 -532 635 -987 -62 -301 -295 -546 -601 -630 -91 -26 -329
-26 -420 0 -291 80 -516 305 -596 596 -26 91 -26 329 0 420 120 433 542 692
982 601z"/>
<path d="M900 1312 l-124 -67 -52 -119 -52 -119 23 -61 c97 -255 116 -301 127
-312 16 -15 260 -84 272 -76 5 2 25 41 46 86 35 76 39 96 65 309 l29 228 -90
90 c-49 50 -96 94 -104 99 -11 6 -54 -12 -140 -58z m42 -104 l-59 -60 -23 32
c-12 17 -21 33 -19 34 2 2 38 22 79 44 98 54 107 34 22 -50z m198 4 c0 -2 -19
7 -42 21 -28 16 -44 33 -46 49 -3 20 2 18 42 -22 25 -24 46 -46 46 -48z m-311
-86 c21 -33 21 -40 11 -153 -19 -208 -16 -204 -65 -78 l-42 110 19 45 c11 25
26 60 33 78 8 17 16 32 19 32 2 0 14 -15 25 -34z m140 -330 c34 -87 60 -161
57 -163 -4 -5 -145 33 -153 40 -2 3 1 71 8 151 7 80 16 143 19 139 4 -5 35
-80 69 -167z"/>
</g>
</svg>
