<?xml version="1.0" standalone="no"?>
<!DOCTYPE svg PUBLIC "-//W3C//DTD SVG 20010904//EN"
 "http://www.w3.org/TR/2001/REC-SVG-20010904/DTD/svg10.dtd">
<svg version="1.0" xmlns="http://www.w3.org/2000/svg"
 width="192.000000pt" height="192.000000pt" viewBox="0 0 192.000000 192.000000"
 preserveAspectRatio="xMidYMid meet">
<metadata>
Created by potrace 1.16, written by Peter Selinger 2001-2019
</metadata>
<g transform="translate(0.000000,192.000000) scale(0.100000,-0.100000)"
fill="#000000" stroke="none">
811 c445 -92 729 -532 635 -987 -62 -301 -295 -546 -601 -630 -91 -26 -329
-26 -420 0 -291 80 -516 305 -596 596 -26 91 -26 329 0 420 120 433 542 692
982 601z"/>
<path d="M1011 1315 c-35 -13 -68 -28 -74 -34 -7 -7 0 -39 23 -103 18 -51 36
-96 39 -101 4 -4 31 0 60 9 29 8 56 13 59 10 7 -8 -67 -193 -85 -211 -8 -8
-22 -15 -31 -15 -26 0 -197 96 -197 110 0 7 20 20 45 30 24 9 46 23 48 29 6
17 -61 192 -74 198 -20 7 -161 -48 -182 -71 -30 -32 -94 -187 -95 -227 0 -19
8 -47 16 -60 14 -22 317 -204 444 -268 75 -38 147 -21 176 41 8 18 54 136 102
263 81 213 86 232 76 265 -14 46 -26 57 -132 114 -99 53 -125 56 -218 21z"/>
</g>
</svg>
