<?xml version="1.0" standalone="no"?>
<!DOCTYPE svg PUBLIC "-//W3C//DTD SVG 20010904//EN"
 "http://www.w3.org/TR/2001/REC-SVG-20010904/DTD/svg10.dtd">
<svg version="1.0" xmlns="http://www.w3.org/2000/svg"
 width="192.000000pt" height="192.000000pt" viewBox="0 0 192.000000 192.000000"
 preserveAspectRatio="xMidYMid meet">
<metadata>
Created by potrace 1.16, written by Peter Selinger 2001-2019
</metadata>
<g transform="translate(0.000000,192.000000) scale(0.100000,-0.100000)"
fill="#000000" stroke="none">
811 c445 -92 729 -532 635 -987 -62 -301 -295 -546 -601 -630 -91 -26 -329
-26 -420 0 -291 80 -516 305 -596 596 -26 91 -26 329 0 420 120 433 542 692
982 601z"/>
<path d="M1163 1358 c-28 -32 -40 -56 -48 -105 l-7 -42 -51 27 c-47 24 -62 27
-157 27 -94 0 -111 -3 -161 -28 -62 -30 -136 -103 -167 -163 -90 -178 -16
-397 166 -486 60 -30 75 -33 157 -33 80 0 97 3 155 31 78 37 141 99 178 174
24 48 27 67 27 150 0 82 -4 103 -27 152 l-27 58 40 6 c54 9 129 58 129 84 0
23 -6 26 -73 35 -40 5 -48 4 -53 -12 -4 -10 -33 -45 -66 -79 l-59 -60 27 -48
c75 -135 21 -310 -120 -384 -73 -38 -179 -38 -252 0 -164 86 -204 294 -83 432
85 96 211 123 330 70 32 -14 62 -25 68 -23 5 2 39 33 76 68 l66 64 -3 51 c-3
42 -6 51 -23 54 -12 2 -30 -7 -42 -20z"/>
<path d="M830 1135 c-251 -78 -195 -454 68 -455 91 0 170 49 213 132 33 64 20
208 -21 233 -7 4 -22 -3 -36 -17 -21 -21 -23 -28 -14 -52 16 -43 12 -108 -10
-144 -80 -131 -285 -71 -282 84 1 105 102 175 202 140 41 -14 43 -14 67 10 32
32 20 48 -50 69 -61 18 -78 18 -137 0z"/>
<path d="M824 986 c-25 -25 -34 -43 -34 -67 0 -79 72 -133 146 -109 56 19 92
96 65 139 -13 20 -71 -4 -71 -29 0 -10 -7 -23 -16 -30 -12 -11 -18 -10 -31 3
-20 19 -10 47 16 47 22 0 51 46 44 68 -3 7 -22 12 -45 12 -32 0 -47 -7 -74
-34z"/>
</g>
</svg>
