<?xml version="1.0" standalone="no"?>
<!DOCTYPE svg PUBLIC "-//W3C//DTD SVG 20010904//EN"
 "http://www.w3.org/TR/2001/REC-SVG-20010904/DTD/svg10.dtd">
<svg version="1.0" xmlns="http://www.w3.org/2000/svg"
 width="192.000000pt" height="192.000000pt" viewBox="0 0 192.000000 192.000000"
 preserveAspectRatio="xMidYMid meet">
<metadata>
Created by potrace 1.16, written by Peter Selinger 2001-2019
</metadata>
<g transform="translate(0.000000,192.000000) scale(0.100000,-0.100000)"
fill="#000000" stroke="none">
811 c445 -92 729 -532 635 -987 -62 -301 -295 -546 -601 -630 -91 -26 -329
-26 -420 0 -291 80 -516 305 -596 596 -26 91 -26 329 0 420 120 433 542 692
982 601z"/>
<path d="M800 1372 c-44 -15 -128 -83 -167 -135 -156 -213 -84 -517 150 -632
83 -40 163 -54 255 -43 107 12 242 88 242 136 0 29 -17 38 -98 49 -185 28
-324 163 -353 343 -11 69 -6 117 18 193 8 26 12 54 9 62 -7 19 -37 33 -56 27z"/>
<path d="M1069 1282 c-70 -45 -103 -133 -79 -207 16 -47 66 -104 107 -121 68
-29 168 -9 215 43 49 54 61 148 28 213 -33 64 -81 94 -159 98 -59 3 -71 0
-112 -26z m76 -162 c0 -82 -2 -95 -17 -98 -16 -3 -18 7 -18 98 0 91 2 101 18
98 15 -3 17 -16 17 -98z m95 66 c0 -18 -7 -39 -15 -46 -14 -12 -14 -15 0 -30
15 -17 21 -71 8 -83 -9 -10 -33 13 -33 31 0 9 -10 26 -22 39 l-21 23 21 23
c12 13 22 32 22 43 0 24 8 34 27 34 8 0 13 -12 13 -34z"/>
</g>
</svg>
