<?xml version="1.0" standalone="no"?>
<!DOCTYPE svg PUBLIC "-//W3C//DTD SVG 20010904//EN"
 "http://www.w3.org/TR/2001/REC-SVG-20010904/DTD/svg10.dtd">
<svg version="1.0" xmlns="http://www.w3.org/2000/svg"
 width="192.000000pt" height="192.000000pt" viewBox="0 0 192.000000 192.000000"
 preserveAspectRatio="xMidYMid meet">
<metadata>
Created by potrace 1.16, written by Peter Selinger 2001-2019
</metadata>
<g transform="translate(0.000000,192.000000) scale(0.100000,-0.100000)"
fill="#000000" stroke="none">
811 c445 -92 729 -532 635 -987 -62 -301 -295 -546 -601 -630 -91 -26 -329
-26 -420 0 -291 80 -516 305 -596 596 -26 91 -26 329 0 420 120 433 542 692
982 601z"/>
<path d="M879 1389 c-12 -12 -58 -97 -102 -188 -201 -419 -214 -542 -64 -615
103 -50 228 -69 306 -46 83 23 115 63 225 271 53 100 66 135 66 170 0 46 -18
82 -49 98 -24 13 -261 52 -272 45 -5 -3 -9 -16 -9 -29 0 -20 7 -26 43 -35 23
-6 65 -18 92 -28 47 -16 50 -19 53 -54 3 -40 -56 -193 -104 -270 -33 -52 -81
-72 -153 -64 -71 9 -126 40 -147 85 -14 30 -15 44 -6 87 19 92 64 206 144 363
43 84 78 163 78 176 0 27 -29 55 -58 55 -12 0 -32 -10 -43 -21z"/>
<path d="M870 1020 c-8 -15 -6 -24 10 -40 16 -16 25 -18 40 -10 22 12 26 40 8
58 -18 18 -46 14 -58 -8z"/>
<path d="M972 1001 c-18 -11 -12 -51 10 -64 21 -14 48 7 48 38 0 30 -31 44
-58 26z"/>
<path d="M1062 968 c-28 -28 -1 -75 38 -63 14 4 20 15 20 35 0 36 -33 53 -58
28z"/>
<path d="M837 933 c-13 -12 -7 -50 9 -64 31 -26 70 25 44 56 -13 16 -42 20
-53 8z"/>
<path d="M930 895 c-26 -31 13 -82 44 -56 19 16 21 42 4 59 -16 16 -33 15 -48
-3z"/>
<path d="M1028 869 c-33 -19 -15 -69 24 -69 15 0 38 27 38 44 0 7 -31 36 -38
36 -4 0 -15 -5 -24 -11z"/>
<path d="M802 828 c-19 -19 -14 -56 8 -63 24 -8 50 10 50 34 0 19 -19 41 -35
41 -6 0 -16 -5 -23 -12z"/>
<path d="M890 795 c-24 -29 8 -75 44 -62 30 12 14 77 -20 77 -6 0 -17 -7 -24
-15z"/>
<path d="M986 767 c-36 -26 4 -84 42 -61 23 15 22 44 -4 60 -17 12 -23 12 -38
1z"/>
</g>
</svg>
