<?xml version="1.0" standalone="no"?>
<!DOCTYPE svg PUBLIC "-//W3C//DTD SVG 20010904//EN"
 "http://www.w3.org/TR/2001/REC-SVG-20010904/DTD/svg10.dtd">
<svg version="1.0" xmlns="http://www.w3.org/2000/svg"
 width="192.000000pt" height="192.000000pt" viewBox="0 0 192.000000 192.000000"
 preserveAspectRatio="xMidYMid meet">
<metadata>
Created by potrace 1.16, written by Peter Selinger 2001-2019
</metadata>
<g transform="translate(0.000000,192.000000) scale(0.100000,-0.100000)"
fill="#000000" stroke="none">
811 c445 -92 729 -532 635 -987 -62 -301 -295 -546 -601 -630 -91 -26 -329
-26 -420 0 -291 80 -516 305 -596 596 -26 91 -26 329 0 420 120 433 542 692
982 601z"/>
<path d="M715 1226 c-98 -45 -165 -151 -165 -261 0 -110 67 -216 165 -261 47
-22 62 -24 241 -24 184 0 192 1 242 26 100 50 156 143 156 259 0 116 -56 209
-156 259 -50 25 -58 26 -242 26 -179 0 -194 -2 -241 -24z m428 -150 c36 -24
57 -65 57 -111 0 -46 -21 -87 -57 -111 -25 -17 -47 -19 -190 -19 -147 0 -164
2 -190 21 -66 48 -78 133 -27 194 36 43 70 49 234 47 124 -2 149 -5 173 -21z"/>
</g>
</svg>
