<?xml version="1.0" standalone="no"?>
<!DOCTYPE svg PUBLIC "-//W3C//DTD SVG 20010904//EN"
 "http://www.w3.org/TR/2001/REC-SVG-20010904/DTD/svg10.dtd">
<svg version="1.0" xmlns="http://www.w3.org/2000/svg"
 width="192.000000pt" height="192.000000pt" viewBox="0 0 192.000000 192.000000"
 preserveAspectRatio="xMidYMid meet">
<metadata>
Created by potrace 1.16, written by Peter Selinger 2001-2019
</metadata>
<g transform="translate(0.000000,192.000000) scale(0.100000,-0.100000)"
fill="#000000" stroke="none">
811 c445 -92 729 -532 635 -987 -62 -301 -295 -546 -601 -630 -91 -26 -329
-26 -420 0 -291 80 -516 305 -596 596 -26 91 -26 329 0 420 120 433 542 692
982 601z"/>
<path d="M1148 1357 c-9 -7 -69 -108 -133 -225 -94 -171 -116 -218 -110 -239
8 -34 142 -282 167 -310 42 -46 113 -33 137 26 14 34 8 51 -77 206 l-49 90 98
180 c107 194 116 226 76 263 -26 25 -82 29 -109 9z"/>
<path d="M697 1228 c-9 -7 -21 -26 -27 -41 -8 -24 -6 -39 16 -88 l27 -60 -47
-97 c-42 -89 -45 -101 -35 -130 13 -38 35 -52 83 -52 28 0 40 7 59 33 38 50
117 214 117 242 0 27 -61 157 -88 188 -18 20 -80 23 -105 5z"/>
</g>
</svg>
