<?xml version="1.0" standalone="no"?>
<!DOCTYPE svg PUBLIC "-//W3C//DTD SVG 20010904//EN"
 "http://www.w3.org/TR/2001/REC-SVG-20010904/DTD/svg10.dtd">
<svg version="1.0" xmlns="http://www.w3.org/2000/svg"
 width="192.000000pt" height="192.000000pt" viewBox="0 0 192.000000 192.000000"
 preserveAspectRatio="xMidYMid meet">
<metadata>
Created by potrace 1.16, written by Peter Selinger 2001-2019
</metadata>
<g transform="translate(0.000000,192.000000) scale(0.100000,-0.100000)"
fill="#000000" stroke="none">
811 c445 -92 729 -532 635 -987 -62 -301 -295 -546 -601 -630 -91 -26 -329
-26 -420 0 -291 80 -516 305 -596 596 -26 91 -26 329 0 420 120 433 542 692
982 601z"/>
<path d="M830 1362 c-185 -62 -299 -229 -288 -423 4 -65 11 -92 41 -153 127
-256 461 -312 662 -111 204 205 143 544 -121 667 -85 40 -209 48 -294 20z
m198 -92 c28 -6 52 -14 52 -17 0 -3 -28 -3 -62 0 l-63 6 50 -19 50 -20 -47 5
-48 5 0 -38 c0 -20 11 -59 25 -86 16 -32 25 -66 25 -98 0 -36 4 -48 15 -48 8
0 15 9 15 19 0 11 3 27 6 36 12 31 24 -7 24 -81 0 -68 10 -94 36 -94 6 0 14
14 18 30 11 56 25 30 28 -52 3 -83 3 -83 31 -86 37 -4 31 -19 -27 -59 -121
-83 -279 -83 -402 0 -55 37 -65 54 -32 59 22 3 23 8 26 91 1 48 7 87 12 87 6
0 10 -14 10 -30 0 -34 22 -49 45 -30 11 9 15 34 15 91 0 43 4 80 9 83 10 7 21
-17 21 -45 0 -10 7 -19 15 -19 11 0 15 12 15 48 0 29 10 67 25 100 20 43 25
70 25 130 0 71 1 74 18 60 9 -9 41 -21 70 -28z m-254 -91 c14 -11 26 -30 26
-41 0 -21 -49 -107 -62 -108 -13 0 -68 85 -68 106 0 23 42 64 65 64 7 0 24 -9
39 -21z m445 -32 c-10 -18 -11 -18 -32 0 -12 10 -23 19 -25 19 -2 1 12 2 32 1
31 -1 33 -3 25 -20z m-139 -1 c0 -2 -9 -6 -20 -9 -11 -3 -18 -1 -14 4 5 9 34
13 34 5z m74 -55 c3 -5 -5 -11 -19 -13 -20 -4 -23 -3 -14 8 13 16 25 18 33 5z
m-407 -77 c-3 -3 -12 -4 -19 -1 -8 3 -5 6 6 6 11 1 17 -2 13 -5z"/>
<path d="M940 1070 c0 -5 5 -10 10 -10 6 0 10 5 10 10 0 6 -4 10 -10 10 -5 0
-10 -4 -10 -10z"/>
<path d="M887 913 c-11 -10 -8 -61 3 -68 6 -4 10 10 10 34 0 42 -2 46 -13 34z"/>
<path d="M940 880 c0 -22 5 -40 10 -40 6 0 10 18 10 40 0 22 -4 40 -10 40 -5
0 -10 -18 -10 -40z"/>
<path d="M1000 880 c0 -25 4 -39 10 -35 6 3 10 19 10 35 0 16 -4 32 -10 35 -6
4 -10 -10 -10 -35z"/>
</g>
</svg>
