<?xml version="1.0" standalone="no"?>
<!DOCTYPE svg PUBLIC "-//W3C//DTD SVG 20010904//EN"
 "http://www.w3.org/TR/2001/REC-SVG-20010904/DTD/svg10.dtd">
<svg version="1.0" xmlns="http://www.w3.org/2000/svg"
 width="192.000000pt" height="192.000000pt" viewBox="0 0 192.000000 192.000000"
 preserveAspectRatio="xMidYMid meet">
<metadata>
Created by potrace 1.16, written by Peter Selinger 2001-2019
</metadata>
<g transform="translate(0.000000,192.000000) scale(0.100000,-0.100000)"
fill="#000000" stroke="none">
811 c445 -92 729 -532 635 -987 -62 -301 -295 -546 -601 -630 -91 -26 -329
-26 -420 0 -291 80 -516 305 -596 596 -26 91 -26 329 0 420 120 433 542 692
982 601z"/>
<path d="M972 1357 c-12 -7 -112 -102 -222 -211 -201 -201 -220 -227 -205
-278 8 -28 249 -273 287 -294 33 -17 76 -18 104 -1 40 23 404 382 419 414 23
49 21 267 -3 312 -32 60 -68 71 -222 71 -89 -1 -143 -5 -158 -13z m206 -143
c54 -37 46 -115 -14 -140 -97 -41 -162 94 -69 144 28 16 57 14 83 -4z"/>
</g>
</svg>
