<?xml version="1.0" standalone="no"?>
<!DOCTYPE svg PUBLIC "-//W3C//DTD SVG 20010904//EN"
 "http://www.w3.org/TR/2001/REC-SVG-20010904/DTD/svg10.dtd">
<svg version="1.0" xmlns="http://www.w3.org/2000/svg"
 width="192.000000pt" height="192.000000pt" viewBox="0 0 192.000000 192.000000"
 preserveAspectRatio="xMidYMid meet">
<metadata>
Created by potrace 1.16, written by Peter Selinger 2001-2019
</metadata>
<g transform="translate(0.000000,192.000000) scale(0.100000,-0.100000)"
fill="#000000" stroke="none">
811 c445 -92 729 -532 635 -987 -62 -301 -295 -546 -601 -630 -91 -26 -329
-26 -420 0 -291 80 -516 305 -596 596 -26 91 -26 329 0 420 120 433 542 692
982 601z"/>
<path d="M1023 1356 c-15 -13 -46 -58 -67 -100 l-39 -76 39 -76 c61 -119 69
-124 181 -124 52 0 103 5 114 10 25 14 109 158 109 188 0 28 -64 147 -97 180
-20 20 -32 22 -117 22 -85 0 -97 -2 -123 -24z"/>
<path d="M647 1138 c-32 -33 -97 -152 -97 -179 0 -28 86 -176 110 -189 25 -14
183 -13 213 1 25 11 117 162 117 190 0 21 -86 169 -107 185 -12 9 -50 13 -116
14 -88 0 -100 -2 -120 -22z"/>
<path d="M1040 937 c-31 -16 -110 -152 -110 -191 0 -31 71 -161 99 -183 17
-13 196 -18 225 -7 23 9 106 157 106 190 0 39 -79 175 -110 191 -14 7 -61 13
-105 13 -44 0 -91 -6 -105 -13z"/>
<path d="M690 660 c0 -27 5 -50 10 -50 6 0 10 7 10 16 0 9 9 18 20 21 14 4 20
14 20 34 0 26 -4 29 -30 29 -29 0 -30 -1 -30 -50z m40 20 c0 -5 -5 -10 -11
-10 -5 0 -7 5 -4 10 3 6 8 10 11 10 2 0 4 -4 4 -10z"/>
<path d="M760 661 c0 -38 4 -51 14 -51 8 0 17 10 19 23 l4 22 2 -22 c0 -13 8
-23 16 -23 10 0 14 12 12 48 -2 45 -3 47 -34 50 l-33 3 0 -50z"/>
<path d="M840 661 c0 -50 1 -51 31 -51 30 0 30 1 27 48 -3 43 -5 47 -30 50
-27 3 -28 2 -28 -47z m40 -7 c0 -13 -4 -24 -10 -24 -5 0 -10 14 -10 31 0 17 4
28 10 24 6 -3 10 -17 10 -31z"/>
</g>
</svg>
