<?xml version="1.0" standalone="no"?>
<!DOCTYPE svg PUBLIC "-//W3C//DTD SVG 20010904//EN"
 "http://www.w3.org/TR/2001/REC-SVG-20010904/DTD/svg10.dtd">
<svg version="1.0" xmlns="http://www.w3.org/2000/svg"
 width="192.000000pt" height="192.000000pt" viewBox="0 0 192.000000 192.000000"
 preserveAspectRatio="xMidYMid meet">
<metadata>
Created by potrace 1.16, written by Peter Selinger 2001-2019
</metadata>
<g transform="translate(0.000000,192.000000) scale(0.100000,-0.100000)"
fill="#000000" stroke="none">
811 c445 -92 729 -532 635 -987 -62 -301 -295 -546 -601 -630 -91 -26 -329
-26 -420 0 -291 80 -516 305 -596 596 -26 91 -26 329 0 420 120 433 542 692
982 601z"/>
<path d="M900 1361 c-34 -11 -249 -139 -277 -164 -34 -31 -30 -71 9 -100 62
-46 306 -187 323 -187 17 0 261 141 323 187 35 26 44 70 18 95 -8 8 -72 49
-144 92 -134 80 -191 97 -252 77z"/>
<path d="M631 1024 c-43 -36 -42 -75 2 -107 61 -45 305 -187 322 -187 18 0
297 162 333 194 26 23 29 67 6 90 -39 39 -45 38 -184 -45 -74 -43 -143 -79
-155 -79 -12 0 -75 32 -141 71 -65 39 -127 75 -136 80 -12 6 -25 2 -47 -17z"/>
<path d="M645 858 c-47 -25 -60 -81 -27 -110 24 -22 324 -198 337 -198 12 0
312 176 338 198 21 19 22 65 1 86 -40 41 -46 39 -187 -44 -75 -44 -144 -80
-154 -80 -10 0 -78 36 -151 80 -73 44 -134 80 -135 80 -1 0 -11 -6 -22 -12z"/>
</g>
</svg>
