<?xml version="1.0" standalone="no"?>
<!DOCTYPE svg PUBLIC "-//W3C//DTD SVG 20010904//EN"
 "http://www.w3.org/TR/2001/REC-SVG-20010904/DTD/svg10.dtd">
<svg version="1.0" xmlns="http://www.w3.org/2000/svg"
 width="192.000000pt" height="192.000000pt" viewBox="0 0 192.000000 192.000000"
 preserveAspectRatio="xMidYMid meet">
<metadata>
Created by potrace 1.16, written by Peter Selinger 2001-2019
</metadata>
<g transform="translate(0.000000,192.000000) scale(0.100000,-0.100000)"
fill="#000000" stroke="none">
811 c445 -92 729 -532 635 -987 -62 -301 -295 -546 -601 -630 -91 -26 -329
-26 -420 0 -291 80 -516 305 -596 596 -26 91 -26 329 0 420 120 433 542 692
982 601z"/>
<path d="M1034 1365 c-33 -23 -104 -149 -104 -185 0 -36 71 -162 104 -185 24
-17 169 -21 209 -6 34 13 110 145 110 191 0 45 -73 172 -108 188 -38 17 -186
15 -211 -3z"/>
<path d="M664 1150 c-23 -9 -102 -139 -110 -180 -6 -33 78 -183 112 -199 38
-17 185 -14 212 4 33 24 102 148 102 185 0 37 -69 161 -102 185 -25 17 -176
21 -214 5z"/>
<path d="M1048 939 c-31 -12 -118 -153 -118 -191 0 -31 74 -163 102 -182 17
-12 48 -16 118 -16 87 0 98 2 117 23 35 39 93 147 93 174 0 15 -20 61 -45 104
-35 59 -53 80 -77 88 -38 13 -153 13 -190 0z"/>
</g>
</svg>
