<?xml version="1.0" standalone="no"?>
<!DOCTYPE svg PUBLIC "-//W3C//DTD SVG 20010904//EN"
 "http://www.w3.org/TR/2001/REC-SVG-20010904/DTD/svg10.dtd">
<svg version="1.0" xmlns="http://www.w3.org/2000/svg"
 width="192.000000pt" height="192.000000pt" viewBox="0 0 192.000000 192.000000"
 preserveAspectRatio="xMidYMid meet">
<metadata>
Created by potrace 1.16, written by Peter Selinger 2001-2019
</metadata>
<g transform="translate(0.000000,192.000000) scale(0.100000,-0.100000)"
fill="#000000" stroke="none">
811 c445 -92 729 -532 635 -987 -62 -301 -295 -546 -601 -630 -91 -26 -329
-26 -420 0 -291 80 -516 305 -596 596 -26 91 -26 329 0 420 120 433 542 692
982 601z"/>
<path d="M627 1302 c-24 -27 -21 -65 8 -92 l25 -23 -50 -34 c-72 -49 -87 -86
-50 -123 29 -29 63 -25 124 16 52 34 86 41 93 19 1 -5 -20 -22 -47 -38 -57
-31 -77 -65 -59 -100 25 -47 56 -48 134 -7 63 33 87 37 104 16 14 -16 8 -21
-36 -31 -65 -13 -103 -70 -75 -111 20 -30 51 -35 102 -17 43 15 55 16 92 4 24
-7 53 -14 65 -15 12 -1 47 -26 77 -54 30 -29 62 -52 71 -52 23 0 65 46 65 71
0 15 -29 50 -87 106 -49 45 -83 83 -78 83 6 0 19 -7 29 -15 21 -16 64 -20 82
-7 23 15 34 50 25 76 -19 48 -141 103 -251 113 -64 6 -90 16 -90 36 0 16 151
0 216 -23 32 -11 82 -36 111 -55 29 -19 64 -35 78 -35 31 0 65 32 65 61 0 52
-155 147 -285 174 -84 18 -157 19 -243 4 l-64 -11 -42 41 c-46 45 -82 53 -109
23z"/>
<path d="M901 724 c-35 -44 -23 -96 26 -115 35 -13 77 4 92 37 16 35 14 48
-10 78 -15 19 -30 26 -54 26 -24 0 -39 -7 -54 -26z"/>
</g>
</svg>
