<?xml version="1.0" standalone="no"?>
<!DOCTYPE svg PUBLIC "-//W3C//DTD SVG 20010904//EN"
 "http://www.w3.org/TR/2001/REC-SVG-20010904/DTD/svg10.dtd">
<svg version="1.0" xmlns="http://www.w3.org/2000/svg"
 width="192.000000pt" height="192.000000pt" viewBox="0 0 192.000000 192.000000"
 preserveAspectRatio="xMidYMid meet">
<metadata>
Created by potrace 1.16, written by Peter Selinger 2001-2019
</metadata>
<g transform="translate(0.000000,192.000000) scale(0.100000,-0.100000)"
fill="#000000" stroke="none">
811 c445 -92 729 -532 635 -987 -62 -301 -295 -546 -601 -630 -91 -26 -329
-26 -420 0 -291 80 -516 305 -596 596 -26 91 -26 329 0 420 120 433 542 692
982 601z"/>
<path d="M802 1254 c-16 -11 -22 -25 -22 -52 0 -41 47 -407 56 -435 9 -28 35
-35 79 -23 l40 12 -3 55 c-1 29 -5 65 -8 79 -4 19 8 11 52 -39 56 -61 59 -63
97 -58 55 8 92 37 92 73 0 25 -4 29 -27 29 -20 -1 -41 12 -74 46 l-46 46 21
42 c13 25 30 43 45 47 33 8 40 31 20 62 -14 21 -21 24 -56 19 -52 -7 -71 -26
-104 -105 -28 -64 -29 -65 -35 -35 -3 17 -12 81 -19 142 l-13 111 -36 0 c-20
0 -47 -7 -59 -16z"/>
<path d="M1302 1221 c-29 -10 -66 -31 -82 -46 -107 -103 -55 -325 76 -325 44
0 127 27 158 51 29 23 35 69 12 88 -11 9 -21 7 -48 -9 -39 -24 -90 -26 -109
-4 -7 8 -14 39 -17 67 -3 45 -1 55 21 75 15 14 43 26 69 29 61 8 75 36 38 73
-25 25 -49 25 -118 1z"/>
<path d="M566 1025 c-55 -19 -87 -45 -113 -91 -42 -73 -25 -192 34 -244 86
-76 272 -5 304 114 22 80 -14 192 -71 221 -36 19 -102 19 -154 0z m74 -85 c43
-23 53 -127 15 -165 -49 -50 -94 -17 -103 75 -4 42 -1 52 21 74 29 28 39 31
67 16z"/>
</g>
</svg>
