<?xml version="1.0" standalone="no"?>
<!DOCTYPE svg PUBLIC "-//W3C//DTD SVG 20010904//EN"
 "http://www.w3.org/TR/2001/REC-SVG-20010904/DTD/svg10.dtd">
<svg version="1.0" xmlns="http://www.w3.org/2000/svg"
 width="192.000000pt" height="192.000000pt" viewBox="0 0 192.000000 192.000000"
 preserveAspectRatio="xMidYMid meet">
<metadata>
Created by potrace 1.16, written by Peter Selinger 2001-2019
</metadata>
<g transform="translate(0.000000,192.000000) scale(0.100000,-0.100000)"
fill="#000000" stroke="none">
811 c445 -92 729 -532 635 -987 -62 -301 -295 -546 -601 -630 -91 -26 -329
-26 -420 0 -291 80 -516 305 -596 596 -26 91 -26 329 0 420 120 433 542 692
982 601z"/>
<path d="M622 1300 c-19 -18 -22 -31 -22 -110 0 -84 1 -90 26 -109 22 -17 41
-21 101 -21 70 0 77 2 105 30 29 30 30 33 26 111 -4 108 -17 119 -132 119 -69
0 -86 -3 -104 -20z"/>
<path d="M1071 1294 c-29 -37 -30 -170 -2 -205 18 -22 27 -24 111 -24 119 0
130 10 130 127 0 70 -3 82 -25 103 -22 23 -32 25 -109 25 -79 0 -86 -2 -105
-26z"/>
<path d="M874 1091 c-40 -17 -54 -50 -54 -127 0 -57 4 -77 21 -98 19 -25 25
-26 110 -26 120 0 129 9 129 124 0 116 -12 130 -111 133 -41 2 -84 -1 -95 -6z"/>
<path d="M622 847 c-19 -20 -22 -35 -22 -109 0 -82 2 -88 26 -107 21 -17 41
-21 95 -21 119 0 144 28 137 151 -5 97 -20 109 -132 109 -73 0 -85 -3 -104
-23z"/>
<path d="M1075 845 c-22 -22 -25 -32 -25 -105 0 -73 2 -83 26 -106 24 -25 30
-26 110 -23 113 5 124 17 124 131 0 70 -3 82 -25 103 -22 22 -32 25 -105 25
-73 0 -83 -3 -105 -25z"/>
</g>
</svg>
