<?xml version="1.0" standalone="no"?>
<!DOCTYPE svg PUBLIC "-//W3C//DTD SVG 20010904//EN"
 "http://www.w3.org/TR/2001/REC-SVG-20010904/DTD/svg10.dtd">
<svg version="1.0" xmlns="http://www.w3.org/2000/svg"
 width="192.000000pt" height="192.000000pt" viewBox="0 0 192.000000 192.000000"
 preserveAspectRatio="xMidYMid meet">
<metadata>
Created by potrace 1.16, written by Peter Selinger 2001-2019
</metadata>
<g transform="translate(0.000000,192.000000) scale(0.100000,-0.100000)"
fill="#000000" stroke="none">
811 c445 -92 729 -532 635 -987 -62 -301 -295 -546 -601 -630 -91 -26 -329
-26 -420 0 -291 80 -516 305 -596 596 -26 91 -26 329 0 420 120 433 542 692
982 601z"/>
<path d="M870 1359 c-119 -23 -245 -123 -296 -233 -69 -152 -46 -329 61 -453
40 -47 120 -103 147 -103 25 0 23 37 -2 45 -11 4 -47 31 -79 60 -239 222 -101
617 224 642 190 15 343 -99 395 -292 10 -39 21 -60 30 -60 22 0 24 48 5 108
-46 142 -160 247 -305 281 -72 17 -112 18 -180 5z"/>
<path d="M824 1247 c-57 -28 -124 -83 -124 -102 0 -29 21 -24 70 14 119 94
261 92 368 -4 66 -59 95 -121 95 -205 1 -114 -57 -206 -163 -260 -39 -20 -52
-44 -27 -53 19 -7 103 39 142 78 87 88 119 232 75 347 -25 67 -95 146 -160
179 -35 17 -66 24 -135 26 -79 4 -96 1 -141 -20z"/>
<path d="M905 1181 c-189 -47 -253 -284 -110 -410 50 -43 93 -61 151 -61 74 0
125 20 174 70 115 115 85 306 -60 380 -42 21 -114 31 -155 21z"/>
</g>
</svg>
