<?xml version="1.0" standalone="no"?>
<!DOCTYPE svg PUBLIC "-//W3C//DTD SVG 20010904//EN"
 "http://www.w3.org/TR/2001/REC-SVG-20010904/DTD/svg10.dtd">
<svg version="1.0" xmlns="http://www.w3.org/2000/svg"
 width="192.000000pt" height="192.000000pt" viewBox="0 0 192.000000 192.000000"
 preserveAspectRatio="xMidYMid meet">
<metadata>
Created by potrace 1.16, written by Peter Selinger 2001-2019
</metadata>
<g transform="translate(0.000000,192.000000) scale(0.100000,-0.100000)"
fill="#000000" stroke="none">
811 c445 -92 729 -532 635 -987 -62 -301 -295 -546 -601 -630 -91 -26 -329
-26 -420 0 -291 80 -516 305 -596 596 -26 91 -26 329 0 420 120 433 542 692
982 601z"/>
<path d="M685 1389 c-36 -32 -60 -93 -49 -123 5 -13 -1 -16 -25 -16 -35 0 -80
-20 -100 -44 -11 -13 -8 -18 21 -36 18 -11 41 -20 51 -20 11 0 17 -5 13 -12
-66 -158 -40 -320 70 -438 186 -199 517 -148 637 99 29 61 32 74 32 166 0 93
-2 105 -33 167 -41 85 -128 167 -209 199 -79 31 -206 32 -280 2 l-53 -21 0 22
c0 31 -20 86 -31 86 -4 0 -24 -14 -44 -31z m342 -276 c97 -45 118 -185 41
-260 -59 -57 -122 -67 -194 -32 -127 61 -116 252 16 302 31 11 103 6 137 -10z"/>
</g>
</svg>
