<?xml version="1.0" standalone="no"?>
<!DOCTYPE svg PUBLIC "-//W3C//DTD SVG 20010904//EN"
 "http://www.w3.org/TR/2001/REC-SVG-20010904/DTD/svg10.dtd">
<svg version="1.0" xmlns="http://www.w3.org/2000/svg"
 width="192.000000pt" height="192.000000pt" viewBox="0 0 192.000000 192.000000"
 preserveAspectRatio="xMidYMid meet">
<metadata>
Created by potrace 1.16, written by Peter Selinger 2001-2019
</metadata>
<g transform="translate(0.000000,192.000000) scale(0.100000,-0.100000)"
fill="#000000" stroke="none">
811 c445 -92 729 -532 635 -987 -62 -301 -295 -546 -601 -630 -91 -26 -329
-26 -420 0 -291 80 -516 305 -596 596 -26 91 -26 329 0 420 120 433 542 692
982 601z"/>
<path d="M995 1255 l-25 -24 0 -266 0 -266 25 -24 c28 -29 42 -31 73 -9 22 15
22 17 22 299 0 282 0 284 -22 299 -31 22 -45 20 -73 -9z"/>
<path d="M635 1157 c-78 -35 -132 -130 -122 -212 7 -67 52 -134 109 -163 134
-69 291 17 306 168 6 68 -33 150 -90 188 -49 32 -153 41 -203 19z m123 -143
c46 -32 17 -114 -40 -114 -26 0 -58 36 -58 65 0 29 32 65 58 65 10 0 28 -7 40
-16z"/>
<path d="M1146 1074 c-12 -32 -5 -61 19 -84 l25 -24 -25 -26 c-25 -26 -31 -53
-19 -84 9 -24 73 -21 101 6 l23 21 24 -22 c18 -17 33 -22 62 -19 37 3 39 5 42
39 2 25 -3 40 -18 54 -11 10 -20 23 -20 30 0 7 9 20 20 30 15 14 20 29 18 54
-3 34 -5 36 -42 39 -29 3 -44 -2 -62 -19 l-24 -22 -23 21 c-28 27 -92 30 -101
6z"/>
</g>
</svg>
