<?xml version="1.0" standalone="no"?>
<!DOCTYPE svg PUBLIC "-//W3C//DTD SVG 20010904//EN"
 "http://www.w3.org/TR/2001/REC-SVG-20010904/DTD/svg10.dtd">
<svg version="1.0" xmlns="http://www.w3.org/2000/svg"
 width="192.000000pt" height="192.000000pt" viewBox="0 0 192.000000 192.000000"
 preserveAspectRatio="xMidYMid meet">
<metadata>
Created by potrace 1.16, written by Peter Selinger 2001-2019
</metadata>
<g transform="translate(0.000000,192.000000) scale(0.100000,-0.100000)"
fill="#000000" stroke="none">
811 c445 -92 729 -532 635 -987 -62 -301 -295 -546 -601 -630 -91 -26 -329
-26 -420 0 -291 80 -516 305 -596 596 -26 91 -26 329 0 420 120 433 542 692
982 601z"/>
<path d="M851 1344 c-98 -35 -156 -89 -200 -184 -48 -105 -29 -234 50 -332
l30 -38 -46 -57 c-51 -66 -59 -109 -25 -143 19 -19 33 -20 290 -20 257 0 271
1 290 20 33 33 26 74 -25 139 l-44 58 30 29 c16 15 42 53 56 84 22 45 27 69
27 135 1 68 -3 89 -27 136 -32 67 -100 132 -165 162 -63 27 -181 33 -241 11z
m223 -141 c83 -59 113 -171 68 -260 -37 -71 -42 -70 -106 12 -77 101 -93 101
-171 4 -55 -68 -59 -71 -73 -53 -52 68 -57 166 -13 236 45 71 106 100 195 94
45 -3 69 -11 100 -33z"/>
</g>
</svg>
