<?xml version="1.0" standalone="no"?>
<!DOCTYPE svg PUBLIC "-//W3C//DTD SVG 20010904//EN"
 "http://www.w3.org/TR/2001/REC-SVG-20010904/DTD/svg10.dtd">
<svg version="1.0" xmlns="http://www.w3.org/2000/svg"
 width="192.000000pt" height="192.000000pt" viewBox="0 0 192.000000 192.000000"
 preserveAspectRatio="xMidYMid meet">
<metadata>
Created by potrace 1.16, written by Peter Selinger 2001-2019
</metadata>
<g transform="translate(0.000000,192.000000) scale(0.100000,-0.100000)"
fill="#000000" stroke="none">
811 c445 -92 729 -532 635 -987 -62 -301 -295 -546 -601 -630 -91 -26 -329
-26 -420 0 -291 80 -516 305 -596 596 -26 91 -26 329 0 420 120 433 542 692
982 601z"/>
<path d="M1010 1285 c-35 -36 -69 -65 -75 -65 -6 0 -31 20 -55 45 -49 50 -78
57 -110 25 -29 -29 -25 -55 16 -100 l36 -40 -87 0 c-60 0 -98 -5 -121 -16 -59
-28 -64 -49 -64 -276 0 -297 -29 -278 413 -278 314 0 325 1 351 21 51 40 56
63 56 259 0 204 -8 237 -62 270 -28 17 -50 20 -148 20 l-114 0 57 58 c61 62
72 95 39 125 -35 32 -64 21 -132 -48z m86 -248 c23 -27 24 -34 24 -178 0 -149
0 -150 -26 -174 -27 -25 -29 -25 -221 -25 -193 0 -194 0 -218 25 -24 23 -25
28 -25 178 0 146 1 154 23 174 12 11 29 23 37 26 8 3 98 5 198 4 l184 -2 24
-28z m179 -92 c0 -24 -5 -31 -24 -33 -32 -5 -54 23 -40 50 7 13 19 18 37 16
23 -2 27 -8 27 -33z m3 -156 c4 -31 -20 -53 -47 -44 -45 14 -30 79 17 73 21
-2 28 -9 30 -29z"/>
<path d="M680 1000 c-13 -13 -20 -33 -20 -60 0 -75 66 -105 117 -54 22 22 25
32 20 67 -3 23 -14 47 -23 54 -26 19 -71 16 -94 -7z m74 -26 c18 -48 -9 -99
-39 -74 -15 12 -21 71 -8 83 12 13 41 7 47 -9z"/>
<path d="M812 921 c2 -42 7 -56 18 -56 9 0 16 11 18 30 5 54 16 62 21 15 7
-56 34 -63 39 -10 5 49 22 63 22 18 0 -39 25 -72 36 -45 3 8 4 34 2 58 l-3 44
-78 1 -78 1 3 -56z"/>
<path d="M997 962 c-46 -51 14 -129 72 -93 21 14 4 29 -26 23 -31 -5 -26 5 9
22 15 7 23 21 23 36 0 21 -6 26 -31 28 -20 2 -36 -3 -47 -16z m35 -24 c-7 -7
-12 -8 -12 -2 0 14 12 26 19 19 2 -3 -1 -11 -7 -17z"/>
<path d="M760 800 c0 -6 7 -13 15 -16 9 -4 15 -19 15 -39 0 -19 6 -35 14 -38
20 -8 26 2 26 40 0 23 5 33 15 33 8 0 15 7 15 15 0 11 -12 15 -50 15 -28 0
-50 -5 -50 -10z"/>
<path d="M870 804 c0 -4 5 -24 12 -46 13 -44 40 -65 57 -45 17 21 41 84 34 91
-13 13 -34 5 -43 -16 l-9 -23 -7 23 c-6 19 -44 33 -44 16z"/>
</g>
</svg>
