<?xml version="1.0" standalone="no"?>
<!DOCTYPE svg PUBLIC "-//W3C//DTD SVG 20010904//EN"
 "http://www.w3.org/TR/2001/REC-SVG-20010904/DTD/svg10.dtd">
<svg version="1.0" xmlns="http://www.w3.org/2000/svg"
 width="192.000000pt" height="192.000000pt" viewBox="0 0 192.000000 192.000000"
 preserveAspectRatio="xMidYMid meet">
<metadata>
Created by potrace 1.16, written by Peter Selinger 2001-2019
</metadata>
<g transform="translate(0.000000,192.000000) scale(0.100000,-0.100000)"
fill="#000000" stroke="none">
811 c445 -92 729 -532 635 -987 -62 -301 -295 -546 -601 -630 -91 -26 -329
-26 -420 0 -291 80 -516 305 -596 596 -26 91 -26 329 0 420 120 433 542 692
982 601z"/>
<path d="M690 1198 c-135 -91 -198 -420 -91 -478 33 -17 63 -12 156 28 86 35
95 37 200 37 98 -1 117 -4 175 -29 138 -60 177 -59 214 3 43 74 14 263 -57
367 -62 92 -116 109 -249 79 -70 -16 -87 -17 -136 -6 -32 7 -84 15 -117 18
-51 4 -65 1 -95 -19z m110 -189 c0 -13 7 -19 24 -19 25 0 36 -15 29 -37 -3 -7
-16 -13 -29 -13 -19 0 -24 -5 -24 -24 0 -25 -15 -36 -37 -29 -7 3 -13 15 -13
28 0 18 -6 24 -27 27 -20 2 -28 9 -28 23 0 14 8 21 28 23 21 3 27 9 27 27 0
13 6 25 13 28 17 6 37 -12 37 -34z m403 0 c31 -39 21 -91 -24 -115 -82 -42
-154 63 -84 124 33 28 79 25 108 -9z"/>
</g>
</svg>
