<?xml version="1.0" standalone="no"?>
<!DOCTYPE svg PUBLIC "-//W3C//DTD SVG 20010904//EN"
 "http://www.w3.org/TR/2001/REC-SVG-20010904/DTD/svg10.dtd">
<svg version="1.0" xmlns="http://www.w3.org/2000/svg"
 width="192.000000pt" height="192.000000pt" viewBox="0 0 192.000000 192.000000"
 preserveAspectRatio="xMidYMid meet">
<metadata>
Created by potrace 1.16, written by Peter Selinger 2001-2019
</metadata>
<g transform="translate(0.000000,192.000000) scale(0.100000,-0.100000)"
fill="#000000" stroke="none">
811 c445 -92 729 -532 635 -987 -62 -301 -295 -546 -601 -630 -91 -26 -329
-26 -420 0 -291 80 -516 305 -596 596 -26 91 -26 329 0 420 120 433 542 692
982 601z"/>
<path d="M690 1212 c-66 -35 -129 -156 -150 -287 -18 -111 6 -196 63 -220 35
-15 33 -15 147 34 82 35 89 36 205 36 116 0 123 -1 205 -36 114 -49 112 -49
148 -33 89 37 88 240 -1 407 -58 110 -124 135 -269 102 -70 -16 -87 -17 -136
-6 -102 23 -173 24 -212 3z m88 -154 c7 -7 12 -22 12 -34 0 -17 7 -23 28 -26
38 -4 38 -42 0 -46 -21 -3 -27 -9 -30 -30 -2 -19 -10 -28 -26 -30 -18 -3 -23
2 -28 27 -5 24 -12 31 -29 31 -23 0 -40 24 -29 41 3 5 16 9 30 9 15 0 24 6 24
16 0 19 18 54 28 54 5 0 13 -5 20 -12z m433 -27 c37 -38 39 -82 4 -116 -54
-54 -145 -13 -145 65 0 30 53 80 85 80 16 0 38 -12 56 -29z"/>
</g>
</svg>
