<?xml version="1.0" standalone="no"?>
<!DOCTYPE svg PUBLIC "-//W3C//DTD SVG 20010904//EN"
 "http://www.w3.org/TR/2001/REC-SVG-20010904/DTD/svg10.dtd">
<svg version="1.0" xmlns="http://www.w3.org/2000/svg"
 width="192.000000pt" height="192.000000pt" viewBox="0 0 192.000000 192.000000"
 preserveAspectRatio="xMidYMid meet">
<metadata>
Created by potrace 1.16, written by Peter Selinger 2001-2019
</metadata>
<g transform="translate(0.000000,192.000000) scale(0.100000,-0.100000)"
fill="#000000" stroke="none">
811 c445 -92 729 -532 635 -987 -62 -301 -295 -546 -601 -630 -91 -26 -329
-26 -420 0 -291 80 -516 305 -596 596 -26 91 -26 329 0 420 120 433 542 692
982 601z"/>
<path d="M572 1240 c-12 -5 -27 -21 -34 -35 -14 -31 -9 -44 75 -173 l64 -98
63 -12 c34 -6 65 -13 67 -16 3 -2 24 -71 48 -152 44 -150 58 -174 101 -174 45
0 63 30 105 180 23 80 43 146 44 148 1 2 32 8 67 14 l64 10 72 113 c42 64 72
123 72 138 0 24 -40 67 -62 67 -4 0 -88 -29 -186 -66 l-177 -65 -174 65 c-95
37 -176 66 -180 65 -3 0 -16 -4 -29 -9z"/>
</g>
</svg>
