<?xml version="1.0" standalone="no"?>
<!DOCTYPE svg PUBLIC "-//W3C//DTD SVG 20010904//EN"
 "http://www.w3.org/TR/2001/REC-SVG-20010904/DTD/svg10.dtd">
<svg version="1.0" xmlns="http://www.w3.org/2000/svg"
 width="192.000000pt" height="192.000000pt" viewBox="0 0 192.000000 192.000000"
 preserveAspectRatio="xMidYMid meet">
<metadata>
Created by potrace 1.16, written by Peter Selinger 2001-2019
</metadata>
<g transform="translate(0.000000,192.000000) scale(0.100000,-0.100000)"
fill="#000000" stroke="none">
811 c445 -92 729 -532 635 -987 -62 -301 -295 -546 -601 -630 -91 -26 -329
-26 -420 0 -291 80 -516 305 -596 596 -26 91 -26 329 0 420 120 433 542 692
982 601z"/>
<path d="M1080 1215 c-74 -79 -138 -151 -142 -160 -17 -28 1 -50 97 -118 l95
-68 -61 -120 c-39 -78 -59 -130 -57 -147 3 -24 7 -27 43 -26 22 0 58 9 79 20
35 17 49 36 113 153 41 76 73 146 73 162 0 23 -12 36 -75 80 -41 29 -75 57
-75 61 0 5 38 49 85 99 64 68 85 96 85 117 0 33 -6 42 -47 70 -58 41 -68 35
-213 -123z"/>
<path d="M614 1330 c-21 -8 -44 -67 -44 -113 0 -35 34 -57 91 -57 l46 0 -44
-222 c-23 -123 -43 -233 -43 -245 0 -30 37 -53 85 -53 60 0 82 20 95 88 6 31
34 164 61 295 28 131 49 250 47 265 -5 41 -38 52 -163 51 -60 0 -119 -4 -131
-9z"/>
</g>
</svg>
