<?xml version="1.0" standalone="no"?>
<!DOCTYPE svg PUBLIC "-//W3C//DTD SVG 20010904//EN"
 "http://www.w3.org/TR/2001/REC-SVG-20010904/DTD/svg10.dtd">
<svg version="1.0" xmlns="http://www.w3.org/2000/svg"
 width="192.000000pt" height="192.000000pt" viewBox="0 0 192.000000 192.000000"
 preserveAspectRatio="xMidYMid meet">
<metadata>
Created by potrace 1.16, written by Peter Selinger 2001-2019
</metadata>
<g transform="translate(0.000000,192.000000) scale(0.100000,-0.100000)"
fill="#000000" stroke="none">
811 c445 -92 729 -532 635 -987 -62 -301 -295 -546 -601 -630 -91 -26 -329
-26 -420 0 -291 80 -516 305 -596 596 -26 91 -26 329 0 420 120 433 542 692
982 601z"/>
<path d="M1022 1333 c-15 -6 -42 -56 -42 -78 0 -9 13 -30 29 -46 28 -27 34
-29 110 -29 79 0 81 -1 76 -22 -6 -26 -115 -570 -115 -575 0 -2 25 -3 56 -3
61 0 88 10 104 40 6 11 40 165 76 343 81 405 93 371 -127 374 -85 1 -160 -1
-167 -4z"/>
<path d="M555 1285 c-14 -13 -25 -35 -25 -48 0 -36 68 -364 80 -387 29 -55 86
-52 208 9 l98 49 69 -138 c38 -77 72 -137 75 -134 3 3 15 53 26 112 l22 106
-54 109 c-36 71 -62 111 -78 118 -19 9 -39 3 -126 -41 -56 -28 -106 -48 -110
-43 -4 4 -17 60 -29 123 -12 63 -27 128 -33 143 -20 52 -83 63 -123 22z"/>
</g>
</svg>
