<?xml version="1.0" standalone="no"?>
<!DOCTYPE svg PUBLIC "-//W3C//DTD SVG 20010904//EN"
 "http://www.w3.org/TR/2001/REC-SVG-20010904/DTD/svg10.dtd">
<svg version="1.0" xmlns="http://www.w3.org/2000/svg"
 width="192.000000pt" height="192.000000pt" viewBox="0 0 192.000000 192.000000"
 preserveAspectRatio="xMidYMid meet">
<metadata>
Created by potrace 1.16, written by Peter Selinger 2001-2019
</metadata>
<g transform="translate(0.000000,192.000000) scale(0.100000,-0.100000)"
fill="#000000" stroke="none">
811 c445 -92 729 -532 635 -987 -62 -301 -295 -546 -601 -630 -91 -26 -329
-26 -420 0 -291 80 -516 305 -596 596 -26 91 -26 329 0 420 120 433 542 692
982 601z"/>
<path d="M1125 1314 c-115 -24 -211 -70 -288 -135 -45 -39 -52 -42 -117 -44
-42 -1 -78 -8 -92 -17 -22 -14 -75 -111 -93 -167 -7 -23 -6 -23 46 -17 30 4
71 9 92 12 l38 6 -16 -38 -16 -38 75 -75 c74 -74 74 -74 105 -61 18 7 34 10
37 7 3 -3 2 -42 -3 -86 -11 -95 -11 -94 80 -51 95 45 111 66 115 154 4 70 6
76 48 127 82 100 134 229 134 332 0 38 -5 49 -31 71 -29 25 -61 30 -114 20z
m-22 -186 c18 -24 18 -30 7 -57 -28 -68 -130 -51 -130 22 0 68 81 91 123 35z"/>
<path d="M638 828 c-32 -24 -50 -116 -32 -162 8 -20 116 -22 154 -3 28 14 37
65 10 58 -35 -10 -76 -11 -88 -3 -13 9 -17 52 -10 96 4 24 -13 30 -34 14z"/>
</g>
</svg>
