<?xml version="1.0" standalone="no"?>
<!DOCTYPE svg PUBLIC "-//W3C//DTD SVG 20010904//EN"
 "http://www.w3.org/TR/2001/REC-SVG-20010904/DTD/svg10.dtd">
<svg version="1.0" xmlns="http://www.w3.org/2000/svg"
 width="192.000000pt" height="192.000000pt" viewBox="0 0 192.000000 192.000000"
 preserveAspectRatio="xMidYMid meet">
<metadata>
Created by potrace 1.16, written by Peter Selinger 2001-2019
</metadata>
<g transform="translate(0.000000,192.000000) scale(0.100000,-0.100000)"
fill="#000000" stroke="none">
811 c445 -92 729 -532 635 -987 -62 -301 -295 -546 -601 -630 -91 -26 -329
-26 -420 0 -291 80 -516 305 -596 596 -26 91 -26 329 0 420 120 433 542 692
982 601z"/>
<path d="M695 1326 c-43 -19 -94 -74 -106 -116 -6 -21 -9 -125 -7 -267 l3
-231 31 -39 c62 -76 69 -78 339 -78 270 0 277 2 339 78 l31 39 0 252 c0 250 0
253 -24 288 -13 19 -40 46 -59 59 -35 24 -40 24 -276 26 -184 2 -248 0 -271
-11z m101 -141 c15 -23 15 -27 0 -50 -28 -42 -86 -26 -86 25 0 51 58 68 86 25z
m126 8 c22 -20 23 -41 1 -65 -20 -22 -46 -23 -67 -2 -30 29 -9 84 31 84 9 0
25 -7 35 -17z m132 1 c30 -29 9 -84 -31 -84 -21 0 -53 29 -53 48 0 22 30 52
51 52 10 0 25 -7 33 -16z m127 6 c12 -7 19 -21 19 -40 0 -51 -58 -68 -86 -25
-15 23 -15 27 0 50 18 27 36 31 67 15z m-116 -180 c0 -12 -20 -16 -104 -18
-75 -2 -107 1 -112 10 -15 24 4 29 109 26 87 -2 107 -6 107 -18z m126 -129
c27 -33 26 -114 -1 -141 -19 -19 -33 -20 -235 -20 -202 0 -216 1 -235 20 -14
14 -20 33 -20 66 0 53 13 82 43 94 12 5 114 8 225 7 201 -2 204 -2 223 -26z"/>
</g>
</svg>
