<?xml version="1.0" standalone="no"?>
<!DOCTYPE svg PUBLIC "-//W3C//DTD SVG 20010904//EN"
 "http://www.w3.org/TR/2001/REC-SVG-20010904/DTD/svg10.dtd">
<svg version="1.0" xmlns="http://www.w3.org/2000/svg"
 width="192.000000pt" height="192.000000pt" viewBox="0 0 192.000000 192.000000"
 preserveAspectRatio="xMidYMid meet">
<metadata>
Created by potrace 1.16, written by Peter Selinger 2001-2019
</metadata>
<g transform="translate(0.000000,192.000000) scale(0.100000,-0.100000)"
fill="#000000" stroke="none">
811 c445 -92 729 -532 635 -987 -62 -301 -295 -546 -601 -630 -91 -26 -329
-26 -420 0 -291 80 -516 305 -596 596 -26 91 -26 329 0 420 120 433 542 692
982 601z"/>
<path d="M851 1364 c-123 -33 -218 -113 -274 -232 -29 -61 -32 -75 -32 -167 0
-92 3 -106 32 -167 61 -129 171 -214 311 -240 171 -32 353 65 435 231 30 62
32 72 32 176 0 104 -2 114 -32 176 -89 181 -285 273 -472 223z m161 -346 c3
-129 4 -133 26 -136 18 -3 22 -10 22 -43 l0 -39 -100 0 -100 0 0 40 c0 36 3
40 25 40 25 0 25 1 25 80 0 79 0 80 -25 80 -22 0 -25 4 -25 35 0 27 4 35 18
35 9 0 33 9 52 19 19 11 45 20 57 20 22 1 22 -2 25 -131z"/>
</g>
</svg>
