<?xml version="1.0" standalone="no"?>
<!DOCTYPE svg PUBLIC "-//W3C//DTD SVG 20010904//EN"
 "http://www.w3.org/TR/2001/REC-SVG-20010904/DTD/svg10.dtd">
<svg version="1.0" xmlns="http://www.w3.org/2000/svg"
 width="192.000000pt" height="192.000000pt" viewBox="0 0 192.000000 192.000000"
 preserveAspectRatio="xMidYMid meet">
<metadata>
Created by potrace 1.16, written by Peter Selinger 2001-2019
</metadata>
<g transform="translate(0.000000,192.000000) scale(0.100000,-0.100000)"
fill="#000000" stroke="none">
811 c445 -92 729 -532 635 -987 -62 -301 -295 -546 -601 -630 -91 -26 -329
-26 -420 0 -291 80 -516 305 -596 596 -26 91 -26 329 0 420 120 433 542 692
982 601z"/>
<path d="M1055 1345 c-31 -30 -32 -66 -2 -101 33 -37 81 -37 114 0 12 15 23
38 23 52 0 35 -42 74 -80 74 -19 0 -40 -9 -55 -25z"/>
<path d="M675 1153 l-25 -38 152 -3 152 -3 -52 -52 -52 -53 65 -64 65 -65 93
93 c51 50 99 92 108 92 16 0 69 -50 69 -65 0 -5 -17 -26 -37 -47 -36 -37 -36
-38 -18 -58 10 -11 26 -20 35 -20 23 0 131 115 125 132 -3 7 -48 53 -99 101
l-95 87 -230 0 -230 0 -26 -37z"/>
<path d="M719 874 c-108 -109 -113 -119 -66 -148 14 -9 35 7 121 93 87 87 103
108 95 123 -5 9 -18 22 -27 27 -15 8 -36 -8 -123 -95z"/>
<path d="M743 748 c-144 -143 -153 -154 -153 -190 0 -29 4 -38 17 -38 19 0
343 317 343 336 0 12 -32 44 -45 44 -5 0 -77 -68 -162 -152z"/>
<path d="M953 698 c-46 -22 -47 -90 -1 -122 30 -21 50 -20 82 5 19 15 26 30
26 54 0 24 -7 39 -26 54 -29 23 -48 25 -81 9z"/>
</g>
</svg>
