<?xml version="1.0" standalone="no"?>
<!DOCTYPE svg PUBLIC "-//W3C//DTD SVG 20010904//EN"
 "http://www.w3.org/TR/2001/REC-SVG-20010904/DTD/svg10.dtd">
<svg version="1.0" xmlns="http://www.w3.org/2000/svg"
 width="192.000000pt" height="192.000000pt" viewBox="0 0 192.000000 192.000000"
 preserveAspectRatio="xMidYMid meet">
<metadata>
Created by potrace 1.16, written by Peter Selinger 2001-2019
</metadata>
<g transform="translate(0.000000,192.000000) scale(0.100000,-0.100000)"
fill="#000000" stroke="none">
759 c272 -64 494 -285 566 -564 28 -110 28 -280 0 -390 -71 -278 -288 -495
-566 -566 -110 -28 -280 -28 -390 0 -277 71 -494 288 -566 566 -28 110 -28
280 0 390 108 421 524 667 956 564z"/>
<path d="M895 1340 c-40 -16 -68 -57 -73 -110 l-5 -50 -43 0 c-36 0 -51 -6
-82 -34 l-37 -34 -3 -160 c-4 -181 4 -222 51 -284 46 -60 107 -89 206 -95 87
-6 131 9 131 46 0 37 -32 51 -116 51 -61 0 -86 5 -111 20 -55 33 -67 69 -71
221 -5 155 2 179 48 179 l30 0 0 -140 c0 -139 0 -140 29 -172 24 -27 36 -32
87 -35 73 -5 122 17 146 67 14 28 18 61 18 163 0 181 -16 207 -129 207 -60 0
-61 0 -61 29 0 44 20 54 100 49 78 -6 111 -23 140 -71 18 -28 20 -51 20 -185
0 -87 5 -162 10 -173 13 -23 53 -25 75 -2 25 24 17 318 -9 381 -22 52 -91 114
-144 130 -45 14 -177 15 -207 2z m113 -365 c1 -60 -2 -116 -7 -124 -5 -7 -26
-14 -47 -15 l-39 -1 -3 128 -3 128 48 -3 48 -3 3 -110z"/>
</g>
</svg>
