<?xml version="1.0" standalone="no"?>
<!DOCTYPE svg PUBLIC "-//W3C//DTD SVG 20010904//EN"
 "http://www.w3.org/TR/2001/REC-SVG-20010904/DTD/svg10.dtd">
<svg version="1.0" xmlns="http://www.w3.org/2000/svg"
 width="192.000000pt" height="192.000000pt" viewBox="0 0 192.000000 192.000000"
 preserveAspectRatio="xMidYMid meet">
<metadata>
Created by potrace 1.16, written by Peter Selinger 2001-2019
</metadata>
<g transform="translate(0.000000,192.000000) scale(0.100000,-0.100000)"
fill="#000000" stroke="none">
811 c445 -92 729 -532 635 -987 -62 -301 -295 -546 -601 -630 -91 -26 -329
-26 -420 0 -291 80 -516 305 -596 596 -26 91 -26 329 0 420 120 433 542 692
982 601z"/>
<path d="M695 1321 c-94 -43 -115 -95 -115 -286 l0 -145 376 0 376 0 -4 159
c-3 159 -3 160 -33 202 -16 23 -50 53 -74 66 -42 22 -53 23 -265 23 -193 0
-226 -3 -261 -19z m453 -113 c7 -7 12 -43 12 -90 l0 -78 31 0 c26 0 30 -3 27
-22 -3 -22 -9 -23 -87 -26 -58 -2 -87 1 -92 9 -13 21 2 39 32 39 l29 0 0 65 0
65 -29 0 c-31 0 -46 21 -28 39 15 15 90 14 105 -1z"/>
<path d="M580 790 c0 -79 44 -148 115 -181 35 -16 68 -19 261 -19 212 0 223 1
265 23 61 33 99 89 106 160 l6 57 -60 0 c-54 0 -62 -3 -93 -35 -19 -19 -41
-35 -50 -35 -9 0 -31 16 -50 35 l-34 35 -233 0 -233 0 0 -40z"/>
</g>
</svg>
