<?xml version="1.0" standalone="no"?>
<!DOCTYPE svg PUBLIC "-//W3C//DTD SVG 20010904//EN"
 "http://www.w3.org/TR/2001/REC-SVG-20010904/DTD/svg10.dtd">
<svg version="1.0" xmlns="http://www.w3.org/2000/svg"
 width="192.000000pt" height="192.000000pt" viewBox="0 0 192.000000 192.000000"
 preserveAspectRatio="xMidYMid meet">
<metadata>
Created by potrace 1.16, written by Peter Selinger 2001-2019
</metadata>
<g transform="translate(0.000000,192.000000) scale(0.100000,-0.100000)"
fill="#000000" stroke="none">
811 c445 -92 729 -532 635 -987 -62 -301 -295 -546 -601 -630 -91 -26 -329
-26 -420 0 -291 80 -516 305 -596 596 -26 91 -26 329 0 420 120 433 542 692
982 601z"/>
<path d="M870 1369 c-69 -14 -150 -58 -206 -113 -200 -201 -143 -532 115 -659
62 -30 72 -32 176 -32 97 0 116 3 165 26 81 38 163 118 202 197 31 63 33 72
33 177 0 105 -2 114 -33 178 -85 171 -266 262 -452 226z m198 -267 c3 -25 -10
-53 -58 -130 l-61 -97 61 -3 60 -3 0 -34 0 -35 -115 0 c-155 0 -158 9 -60 162
30 48 55 90 55 93 0 3 -25 5 -55 5 l-55 0 0 33 c0 19 3 37 7 41 4 3 54 5 112
4 l106 -3 3 -33z"/>
</g>
</svg>
