<?xml version="1.0" standalone="no"?>
<!DOCTYPE svg PUBLIC "-//W3C//DTD SVG 20010904//EN"
 "http://www.w3.org/TR/2001/REC-SVG-20010904/DTD/svg10.dtd">
<svg version="1.0" xmlns="http://www.w3.org/2000/svg"
 width="192.000000pt" height="192.000000pt" viewBox="0 0 192.000000 192.000000"
 preserveAspectRatio="xMidYMid meet">
<metadata>
Created by potrace 1.16, written by Peter Selinger 2001-2019
</metadata>
<g transform="translate(0.000000,192.000000) scale(0.100000,-0.100000)"
fill="#000000" stroke="none">
811 c445 -92 729 -532 635 -987 -62 -301 -295 -546 -601 -630 -91 -26 -329
-26 -420 0 -291 80 -516 305 -596 596 -26 91 -26 329 0 420 120 433 542 692
982 601z"/>
<path d="M880 1346 c-25 -13 -90 -50 -145 -83 -142 -83 -147 -94 -143 -315 2
-109 7 -171 15 -179 8 -8 96 39 357 191 190 111 349 206 352 212 10 16 -24 42
-162 122 -152 88 -193 96 -274 52z"/>
<path d="M818 833 c-98 -58 -175 -109 -173 -114 3 -4 67 -43 143 -86 178 -102
184 -102 345 -13 115 64 187 113 187 130 0 9 -304 191 -317 189 -4 0 -88 -48
-185 -106z"/>
</g>
</svg>
