<?xml version="1.0" standalone="no"?>
<!DOCTYPE svg PUBLIC "-//W3C//DTD SVG 20010904//EN"
 "http://www.w3.org/TR/2001/REC-SVG-20010904/DTD/svg10.dtd">
<svg version="1.0" xmlns="http://www.w3.org/2000/svg"
 width="192.000000pt" height="192.000000pt" viewBox="0 0 192.000000 192.000000"
 preserveAspectRatio="xMidYMid meet">
<metadata>
Created by potrace 1.16, written by Peter Selinger 2001-2019
</metadata>
<g transform="translate(0.000000,192.000000) scale(0.100000,-0.100000)"
fill="#000000" stroke="none">
811 c445 -92 729 -532 635 -987 -62 -301 -295 -546 -601 -630 -91 -26 -329
-26 -420 0 -291 80 -516 305 -596 596 -26 91 -26 329 0 420 120 433 542 692
982 601z"/>
<path d="M703 1349 c-18 -5 -48 -25 -67 -44 -51 -50 -58 -103 -54 -373 3 -259
9 -283 81 -330 40 -27 41 -27 266 -30 244 -4 279 1 332 45 56 47 59 67 59 347
0 156 -4 266 -11 283 -15 40 -48 73 -94 94 -57 27 -253 27 -310 0 -46 -21 -79
-54 -94 -94 -18 -46 -14 -529 3 -572 l15 -35 -54 0 c-46 0 -60 5 -87 29 l-33
29 0 266 0 266 27 26 c15 15 43 30 64 33 44 7 64 32 45 55 -15 18 -39 19 -88
5z m463 -315 c36 -31 54 -54 54 -69 0 -15 -18 -38 -54 -69 -74 -63 -106 -60
-106 10 0 23 -2 24 -74 24 -81 0 -110 16 -89 48 8 13 28 18 87 20 73 3 76 4
76 27 0 69 32 72 106 9z"/>
</g>
</svg>
