<?xml version="1.0" standalone="no"?>
<!DOCTYPE svg PUBLIC "-//W3C//DTD SVG 20010904//EN"
 "http://www.w3.org/TR/2001/REC-SVG-20010904/DTD/svg10.dtd">
<svg version="1.0" xmlns="http://www.w3.org/2000/svg"
 width="192.000000pt" height="192.000000pt" viewBox="0 0 192.000000 192.000000"
 preserveAspectRatio="xMidYMid meet">
<metadata>
Created by potrace 1.16, written by Peter Selinger 2001-2019
</metadata>
<g transform="translate(0.000000,192.000000) scale(0.100000,-0.100000)"
fill="#000000" stroke="none">
811 c445 -92 729 -532 635 -987 -62 -301 -295 -546 -601 -630 -91 -26 -329
-26 -420 0 -291 80 -516 305 -596 596 -26 91 -26 329 0 420 120 433 542 692
982 601z"/>
<path d="M1176 1358 c-9 -12 -16 -30 -16 -40 0 -11 -9 -18 -26 -20 -55 -6 -54
-68 0 -68 16 0 24 -9 31 -32 17 -57 74 -49 75 10 0 16 6 22 23 22 33 0 49 15
45 41 -2 19 -10 25 -35 27 -29 3 -33 7 -33 32 0 19 -7 33 -19 40 -26 14 -28
13 -45 -12z"/>
<path d="M643 1228 c-48 -23 -54 -61 -51 -292 3 -191 5 -216 21 -234 25 -27
224 -142 259 -149 22 -4 53 8 140 57 171 95 162 80 166 267 4 175 1 199 -29
208 -43 14 -49 -7 -49 -176 l0 -158 -67 -39 c-38 -22 -86 -50 -108 -62 l-41
-23 -104 60 -105 61 0 203 0 204 175 5 c173 5 175 5 178 28 7 48 -7 52 -192
51 -99 0 -180 -5 -193 -11z"/>
<path d="M757 1073 c-4 -3 -7 -68 -7 -144 l0 -137 67 -38 67 -37 50 28 c89 49
86 42 86 185 0 85 -4 130 -12 138 -13 13 -239 18 -251 5z"/>
</g>
</svg>
