<?xml version="1.0" standalone="no"?>
<!DOCTYPE svg PUBLIC "-//W3C//DTD SVG 20010904//EN"
 "http://www.w3.org/TR/2001/REC-SVG-20010904/DTD/svg10.dtd">
<svg version="1.0" xmlns="http://www.w3.org/2000/svg"
 width="192.000000pt" height="192.000000pt" viewBox="0 0 192.000000 192.000000"
 preserveAspectRatio="xMidYMid meet">
<metadata>
Created by potrace 1.16, written by Peter Selinger 2001-2019
</metadata>
<g transform="translate(0.000000,192.000000) scale(0.100000,-0.100000)"
fill="#000000" stroke="none">
811 c445 -92 729 -532 635 -987 -62 -301 -295 -546 -601 -630 -91 -26 -329
-26 -420 0 -291 80 -516 305 -596 596 -26 91 -26 329 0 420 120 433 542 692
982 601z"/>
<path d="M809 1263 c-144 -142 -145 -173 -5 -173 l66 0 0 -140 c0 -136 1 -142
25 -165 33 -34 87 -34 120 0 24 23 25 29 25 165 l0 140 66 0 c140 0 139 31 -5
173 -99 98 -111 107 -146 107 -35 0 -47 -9 -146 -107z"/>
<path d="M659 691 c-36 -36 -37 -73 -4 -106 l24 -25 276 0 276 0 24 25 c33 33
32 70 -4 106 l-29 29 -267 0 -267 0 -29 -29z"/>
</g>
</svg>
