<?xml version="1.0" standalone="no"?>
<!DOCTYPE svg PUBLIC "-//W3C//DTD SVG 20010904//EN"
 "http://www.w3.org/TR/2001/REC-SVG-20010904/DTD/svg10.dtd">
<svg version="1.0" xmlns="http://www.w3.org/2000/svg"
 width="192.000000pt" height="192.000000pt" viewBox="0 0 192.000000 192.000000"
 preserveAspectRatio="xMidYMid meet">
<metadata>
Created by potrace 1.16, written by Peter Selinger 2001-2019
</metadata>
<g transform="translate(0.000000,192.000000) scale(0.100000,-0.100000)"
fill="#000000" stroke="none">
811 c445 -92 729 -532 635 -987 -62 -301 -295 -546 -601 -630 -91 -26 -329
-26 -420 0 -291 80 -516 305 -596 596 -26 91 -26 329 0 420 120 433 542 692
982 601z"/>
<path d="M707 1348 c-51 -14 -102 -68 -116 -123 -15 -58 -15 -462 0 -520 15
-59 65 -109 123 -124 57 -14 427 -15 478 -1 48 14 97 55 114 97 20 47 20 529
0 576 -17 42 -66 83 -114 97 -48 13 -216 13 -264 0 -48 -14 -97 -55 -114 -97
-21 -48 -20 -530 0 -578 l15 -35 -49 0 c-27 0 -61 5 -75 12 -51 23 -55 46 -55
313 0 301 1 305 111 329 33 7 43 30 23 51 -17 17 -23 17 -77 3z m397 -254 c12
-12 16 -37 16 -105 l0 -89 30 0 c31 0 51 -24 42 -50 -9 -26 -24 -30 -119 -30
-70 0 -95 4 -107 16 -31 30 -12 64 36 64 28 0 28 0 28 65 0 65 0 65 -28 65
-48 0 -67 34 -36 64 10 11 34 16 69 16 35 0 59 -5 69 -16z"/>
</g>
</svg>
