<?xml version="1.0" standalone="no"?>
<!DOCTYPE svg PUBLIC "-//W3C//DTD SVG 20010904//EN"
 "http://www.w3.org/TR/2001/REC-SVG-20010904/DTD/svg10.dtd">
<svg version="1.0" xmlns="http://www.w3.org/2000/svg"
 width="192.000000pt" height="192.000000pt" viewBox="0 0 192.000000 192.000000"
 preserveAspectRatio="xMidYMid meet">
<metadata>
Created by potrace 1.16, written by Peter Selinger 2001-2019
</metadata>
<g transform="translate(0.000000,192.000000) scale(0.100000,-0.100000)"
fill="#000000" stroke="none">
811 c445 -92 729 -532 635 -987 -62 -301 -295 -546 -601 -630 -91 -26 -329
-26 -420 0 -291 80 -516 305 -596 596 -26 91 -26 329 0 420 120 433 542 692
982 601z"/>
<path d="M1218 1369 c-12 -6 -18 -22 -18 -44 0 -33 -2 -35 -35 -35 -28 0 -38
-5 -47 -25 -9 -21 -8 -28 7 -45 10 -11 31 -20 46 -20 24 0 28 -4 31 -31 6 -64
63 -64 83 -1 7 24 15 32 31 32 43 0 70 50 42 78 -7 7 -25 12 -40 12 -23 0 -28
4 -28 25 0 23 -31 65 -47 65 -5 0 -16 -5 -25 -11z"/>
<path d="M598 1273 c-54 -34 -58 -56 -58 -353 0 -299 4 -320 59 -353 26 -15
64 -17 321 -17 l292 0 34 34 34 34 0 221 c0 208 -1 221 -19 231 -25 13 -27 13
-45 -6 -14 -13 -16 -47 -16 -213 0 -140 -3 -200 -12 -209 -9 -9 -82 -12 -269
-12 -142 0 -264 3 -273 6 -14 5 -16 40 -16 285 0 153 1 280 3 281 1 1 96 4
211 7 184 5 210 8 220 24 8 12 8 22 0 35 -10 15 -34 17 -225 19 -187 2 -217 1
-241 -14z"/>
<path d="M800 1051 c-18 -35 12 -71 59 -71 19 0 21 -6 21 -60 0 -54 -2 -60
-21 -60 -47 0 -77 -36 -59 -71 10 -17 22 -19 119 -19 119 0 139 8 127 54 -5
19 -15 27 -41 32 l-35 6 0 92 c0 58 -4 96 -12 104 -7 7 -40 12 -80 12 -56 0
-69 -3 -78 -19z"/>
</g>
</svg>
