<?xml version="1.0" standalone="no"?>
<!DOCTYPE svg PUBLIC "-//W3C//DTD SVG 20010904//EN"
 "http://www.w3.org/TR/2001/REC-SVG-20010904/DTD/svg10.dtd">
<svg version="1.0" xmlns="http://www.w3.org/2000/svg"
 width="192.000000pt" height="192.000000pt" viewBox="0 0 192.000000 192.000000"
 preserveAspectRatio="xMidYMid meet">
<metadata>
Created by potrace 1.16, written by Peter Selinger 2001-2019
</metadata>
<g transform="translate(0.000000,192.000000) scale(0.100000,-0.100000)"
fill="#000000" stroke="none">
811 c445 -92 729 -532 635 -987 -62 -301 -295 -546 -601 -630 -91 -26 -329
-26 -420 0 -291 80 -516 305 -596 596 -26 91 -26 329 0 420 120 433 542 692
982 601z"/>
<path d="M557 1342 c-14 -16 -17 -43 -17 -175 0 -195 -4 -189 128 -185 125 4
123 1 120 201 -4 181 -1 177 -128 177 -71 0 -90 -3 -103 -18z m123 -172 c0
-83 -1 -90 -20 -90 -18 0 -20 7 -20 83 0 85 3 97 27 97 10 0 13 -22 13 -90z"/>
<path d="M837 1342 c-14 -16 -17 -43 -17 -175 0 -171 6 -191 59 -185 40 5 51
39 51 166 0 93 3 112 15 112 13 0 15 -20 15 -124 0 -135 7 -156 55 -156 48 0
57 33 53 200 -4 184 -1 180 -128 180 -71 0 -90 -3 -103 -18z"/>
<path d="M1132 1344 c-21 -15 -22 -21 -22 -174 0 -131 3 -161 16 -174 12 -12
38 -16 113 -16 103 0 121 7 121 46 0 39 -26 54 -91 54 -52 0 -60 2 -57 18 2
13 15 18 59 20 42 2 62 8 75 23 17 19 17 23 3 47 -13 24 -21 27 -77 30 -53 3
-63 6 -60 20 2 13 16 18 63 20 33 2 65 8 72 14 18 14 16 53 -3 72 -22 22 -180
23 -212 0z"/>
<path d="M550 931 c-5 -11 -10 -87 -10 -174 0 -142 2 -155 20 -172 16 -15 26
-17 48 -9 25 9 27 14 30 72 l3 62 53 0 c82 0 91 12 91 118 0 120 -2 122 -126
122 -87 0 -99 -2 -109 -19z m130 -102 c0 -25 -33 -22 -38 4 -2 12 3 17 17 17
15 0 21 -6 21 -21z"/>
<path d="M830 931 c-5 -11 -10 -87 -10 -174 0 -140 2 -155 20 -172 26 -23 68
-13 80 21 6 14 10 43 10 65 0 28 4 39 15 39 11 0 15 -12 15 -49 0 -63 25 -97
64 -87 39 10 46 40 46 194 0 184 1 182 -130 182 -88 0 -100 -2 -110 -19z m130
-101 c0 -11 -7 -20 -15 -20 -8 0 -15 9 -15 20 0 11 7 20 15 20 8 0 15 -9 15
-20z"/>
<path d="M1125 927 c-15 -24 -14 -29 24 -106 36 -71 41 -89 41 -149 0 -72 16
-102 53 -102 33 0 47 29 47 101 0 61 5 79 42 153 41 83 42 85 23 106 -34 38
-76 22 -100 -38 l-10 -24 -25 38 c-32 49 -71 57 -95 21z"/>
</g>
</svg>
