<?xml version="1.0" standalone="no"?>
<!DOCTYPE svg PUBLIC "-//W3C//DTD SVG 20010904//EN"
 "http://www.w3.org/TR/2001/REC-SVG-20010904/DTD/svg10.dtd">
<svg version="1.0" xmlns="http://www.w3.org/2000/svg"
 width="192.000000pt" height="192.000000pt" viewBox="0 0 192.000000 192.000000"
 preserveAspectRatio="xMidYMid meet">
<metadata>
Created by potrace 1.16, written by Peter Selinger 2001-2019
</metadata>
<g transform="translate(0.000000,192.000000) scale(0.100000,-0.100000)"
fill="#000000" stroke="none">
811 c445 -92 729 -532 635 -987 -62 -301 -295 -546 -601 -630 -91 -26 -329
-26 -420 0 -291 80 -516 305 -596 596 -26 91 -26 329 0 420 120 433 542 692
982 601z"/>
<path d="M830 1369 c-113 -23 -209 -100 -258 -207 -38 -83 -37 -193 2 -278 35
-77 103 -145 181 -181 82 -38 203 -39 283 -3 l53 23 82 -81 c64 -64 89 -82
110 -82 40 0 63 15 75 48 15 43 -6 79 -88 154 l-73 67 24 48 c20 40 24 64 24
143 0 82 -4 103 -26 151 -67 143 -237 230 -389 198z m175 -113 c100 -46 165
-160 151 -264 -12 -90 -76 -172 -161 -208 -89 -37 -227 -5 -291 68 -95 108
-80 289 30 373 77 58 186 71 271 31z"/>
<path d="M760 1140 c-11 -11 -20 -27 -20 -35 0 -8 9 -24 20 -35 18 -18 33 -20
133 -20 98 0 116 3 130 18 23 26 21 58 -5 76 -17 12 -49 16 -130 16 -95 0
-110 -2 -128 -20z"/>
<path d="M760 980 c-11 -11 -20 -27 -20 -35 0 -8 9 -24 20 -35 18 -18 33 -20
133 -20 98 0 116 3 130 18 23 26 21 58 -5 76 -17 12 -49 16 -130 16 -95 0
-110 -2 -128 -20z"/>
</g>
</svg>
