<?xml version="1.0" standalone="no"?>
<!DOCTYPE svg PUBLIC "-//W3C//DTD SVG 20010904//EN"
 "http://www.w3.org/TR/2001/REC-SVG-20010904/DTD/svg10.dtd">
<svg version="1.0" xmlns="http://www.w3.org/2000/svg"
 width="192.000000pt" height="192.000000pt" viewBox="0 0 192.000000 192.000000"
 preserveAspectRatio="xMidYMid meet">
<metadata>
Created by potrace 1.16, written by Peter Selinger 2001-2019
</metadata>
<g transform="translate(0.000000,192.000000) scale(0.100000,-0.100000)"
fill="#000000" stroke="none">
811 c445 -92 729 -532 635 -987 -62 -301 -295 -546 -601 -630 -91 -26 -329
-26 -420 0 -291 80 -516 305 -596 596 -26 91 -26 329 0 420 120 433 542 692
982 601z"/>
<path d="M648 1280 c-91 -48 -112 -116 -106 -342 4 -189 17 -227 90 -275 l42
-28 281 0 281 0 42 28 c73 48 86 86 90 275 6 228 -16 295 -108 342 -36 19 -59
20 -307 20 -246 -1 -271 -2 -305 -20z m133 -190 c13 -8 19 -21 19 -45 0 -31 3
-35 26 -35 35 0 64 -17 64 -38 0 -27 -20 -42 -56 -42 -30 0 -33 -3 -36 -36 -4
-43 -29 -65 -55 -48 -11 6 -19 26 -21 48 -3 33 -6 36 -36 36 -36 0 -56 15 -56
42 0 21 29 38 64 38 22 0 26 5 26 29 0 16 7 37 16 45 18 19 20 19 45 6z m489
-30 c11 -11 20 -26 20 -33 0 -24 -31 -57 -55 -57 -52 0 -74 65 -33 94 30 21
44 20 68 -4z m-104 -125 c15 -23 15 -27 0 -50 -18 -27 -63 -34 -84 -13 -15 15
-15 61 0 76 21 21 66 14 84 -13z"/>
</g>
</svg>
