<?xml version="1.0" standalone="no"?>
<!DOCTYPE svg PUBLIC "-//W3C//DTD SVG 20010904//EN"
 "http://www.w3.org/TR/2001/REC-SVG-20010904/DTD/svg10.dtd">
<svg version="1.0" xmlns="http://www.w3.org/2000/svg"
 width="192.000000pt" height="192.000000pt" viewBox="0 0 192.000000 192.000000"
 preserveAspectRatio="xMidYMid meet">
<metadata>
Created by potrace 1.16, written by Peter Selinger 2001-2019
</metadata>
<g transform="translate(0.000000,192.000000) scale(0.100000,-0.100000)"
fill="#000000" stroke="none">
811 c445 -92 729 -532 635 -987 -62 -301 -295 -546 -601 -630 -91 -26 -329
-26 -420 0 -291 80 -516 305 -596 596 -26 91 -26 329 0 420 120 433 542 692
982 601z"/>
<path d="M872 1369 c-112 -22 -224 -103 -276 -200 -141 -258 5 -560 295 -611
170 -30 360 74 437 239 24 52 27 69 27 168 0 99 -3 116 -27 168 -53 114 -175
211 -296 236 -60 12 -98 13 -160 0z m146 -351 c2 -130 4 -138 22 -138 17 0 20
-7 20 -40 l0 -40 -100 0 -100 0 0 40 c0 36 3 40 25 40 25 0 25 1 25 80 0 79 0
80 -25 80 -22 0 -25 4 -25 33 0 30 4 35 38 45 20 6 46 18 57 27 11 8 29 14 40
12 19 -2 20 -11 23 -139z"/>
</g>
</svg>
