<?xml version="1.0" standalone="no"?>
<!DOCTYPE svg PUBLIC "-//W3C//DTD SVG 20010904//EN"
 "http://www.w3.org/TR/2001/REC-SVG-20010904/DTD/svg10.dtd">
<svg version="1.0" xmlns="http://www.w3.org/2000/svg"
 width="192.000000pt" height="192.000000pt" viewBox="0 0 192.000000 192.000000"
 preserveAspectRatio="xMidYMid meet">
<metadata>
Created by potrace 1.16, written by Peter Selinger 2001-2019
</metadata>
<g transform="translate(0.000000,192.000000) scale(0.100000,-0.100000)"
fill="#000000" stroke="none">
811 c445 -92 729 -532 635 -987 -62 -301 -295 -546 -601 -630 -91 -26 -329
-26 -420 0 -291 80 -516 305 -596 596 -26 91 -26 329 0 420 120 433 542 692
982 601z"/>
<path d="M1058 1260 c-10 -17 -33 -37 -53 -46 -31 -13 -35 -18 -35 -53 0 -41
11 -51 56 -51 23 0 24 -3 24 -70 0 -38 -2 -70 -4 -70 -2 0 -29 34 -60 75 -51
67 -60 75 -90 75 -18 0 -39 -6 -45 -14 -8 -9 -11 -65 -9 -177 l3 -164 27 -9
c46 -16 67 12 70 96 l3 70 63 -87 63 -86 47 3 47 3 3 254 c2 179 -1 258 -9
267 -6 8 -28 14 -48 14 -30 0 -39 -5 -53 -30z"/>
<path d="M525 1096 c-107 -64 -120 -220 -26 -299 120 -100 301 -18 301 137 0
56 -14 93 -48 130 -57 61 -156 75 -227 32z"/>
<path d="M1222 1108 c-15 -15 -15 -61 0 -76 8 -8 49 -12 119 -12 114 0 139 9
139 50 0 41 -25 50 -139 50 -70 0 -111 -4 -119 -12z"/>
<path d="M1228 979 c-22 -12 -24 -62 -4 -78 9 -8 52 -11 127 -9 114 3 114 3
123 30 8 22 6 32 -9 48 -16 18 -30 20 -119 20 -56 0 -109 -5 -118 -11z"/>
<path d="M1232 844 c-26 -18 -29 -56 -6 -78 12 -13 38 -16 118 -16 111 0 136
11 136 58 0 38 -36 52 -135 52 -66 0 -97 -4 -113 -16z"/>
</g>
</svg>
