<?xml version="1.0" standalone="no"?>
<!DOCTYPE svg PUBLIC "-//W3C//DTD SVG 20010904//EN"
 "http://www.w3.org/TR/2001/REC-SVG-20010904/DTD/svg10.dtd">
<svg version="1.0" xmlns="http://www.w3.org/2000/svg"
 width="192.000000pt" height="192.000000pt" viewBox="0 0 192.000000 192.000000"
 preserveAspectRatio="xMidYMid meet">
<metadata>
Created by potrace 1.16, written by Peter Selinger 2001-2019
</metadata>
<g transform="translate(0.000000,192.000000) scale(0.100000,-0.100000)"
fill="#000000" stroke="none">
811 c445 -92 729 -532 635 -987 -62 -301 -295 -546 -601 -630 -91 -26 -329
-26 -420 0 -291 80 -516 305 -596 596 -26 91 -26 329 0 420 120 433 542 692
982 601z"/>
<path d="M1062 1270 c-9 -17 -34 -38 -54 -47 -35 -16 -38 -20 -38 -60 l0 -43
40 0 40 0 0 -75 c0 -41 -2 -75 -4 -75 -3 0 -26 28 -52 63 -77 102 -104 117
-144 77 -18 -18 -20 -33 -20 -166 0 -81 5 -154 10 -165 7 -12 21 -19 40 -19
42 0 60 32 60 104 l0 59 65 -86 c62 -82 68 -87 103 -87 21 0 43 5 50 12 9 9
12 80 12 259 0 245 0 248 -22 263 -36 25 -67 20 -86 -14z"/>
<path d="M557 1115 c-50 -17 -85 -50 -108 -100 -36 -78 -13 -168 57 -221 33
-26 46 -29 109 -29 63 0 76 3 109 29 44 33 76 95 76 146 0 78 -62 159 -138
180 -47 13 -58 12 -105 -5z"/>
<path d="M1220 1110 c-11 -11 -20 -27 -20 -35 0 -8 9 -24 20 -35 17 -17 33
-20 118 -20 110 0 135 10 135 55 0 45 -25 55 -135 55 -85 0 -101 -3 -118 -20z"/>
<path d="M1214 965 c-15 -23 -15 -27 0 -50 16 -24 20 -25 126 -25 106 0 110 1
126 25 15 23 15 27 0 50 -16 24 -20 25 -126 25 -106 0 -110 -1 -126 -25z"/>
<path d="M1216 838 c-20 -28 -20 -43 0 -62 12 -13 39 -16 124 -16 106 0 110 1
126 25 15 23 15 27 0 50 -16 24 -20 25 -126 25 -101 0 -110 -2 -124 -22z"/>
</g>
</svg>
