<?xml version="1.0" standalone="no"?>
<!DOCTYPE svg PUBLIC "-//W3C//DTD SVG 20010904//EN"
 "http://www.w3.org/TR/2001/REC-SVG-20010904/DTD/svg10.dtd">
<svg version="1.0" xmlns="http://www.w3.org/2000/svg"
 width="192.000000pt" height="192.000000pt" viewBox="0 0 192.000000 192.000000"
 preserveAspectRatio="xMidYMid meet">
<metadata>
Created by potrace 1.16, written by Peter Selinger 2001-2019
</metadata>
<g transform="translate(0.000000,192.000000) scale(0.100000,-0.100000)"
fill="#000000" stroke="none">
811 c445 -92 729 -532 635 -987 -62 -301 -295 -546 -601 -630 -91 -26 -329
-26 -420 0 -291 80 -516 305 -596 596 -26 91 -26 329 0 420 120 433 542 692
982 601z"/>
<path d="M841 1404 c-231 -62 -375 -293 -327 -522 61 -291 366 -447 631 -323
282 132 345 520 118 732 -121 113 -272 154 -422 113z m234 -384 l0 -175 -30
-3 c-27 -3 -36 4 -70 52 -22 31 -43 56 -47 56 -4 0 -8 -24 -10 -52 -3 -49 -5
-53 -28 -53 l-25 0 0 120 0 120 25 3 c20 2 33 -7 64 -48 21 -27 40 -50 42 -50
2 0 4 20 4 44 0 39 -3 45 -22 48 -18 2 -24 11 -26 34 -3 26 1 33 22 38 13 3
28 15 31 27 5 16 14 19 38 17 l32 -3 0 -175z m-278 26 c27 -29 33 -44 33 -81
0 -38 -6 -52 -34 -83 -31 -34 -39 -37 -86 -37 -47 0 -55 3 -86 37 -45 50 -48
110 -7 158 34 41 58 51 108 45 30 -3 48 -13 72 -39z m482 27 c6 -11 6 -24 0
-35 -14 -26 -153 -26 -168 -1 -6 11 -6 24 0 35 14 26 153 26 168 1z m0 -90 c6
-11 6 -24 0 -35 -14 -26 -153 -26 -168 -1 -6 11 -6 24 0 35 14 26 153 26 168
1z m0 -87 c9 -11 10 -20 1 -35 -9 -18 -20 -21 -85 -21 -60 0 -76 3 -84 17 -6
11 -6 24 0 35 8 15 23 18 83 18 52 0 77 -4 85 -14z"/>
<path d="M661 1003 c-24 -30 -20 -58 11 -85 41 -36 98 -9 98 46 0 64 -70 90
-109 39z"/>
</g>
</svg>
