<?xml version="1.0" standalone="no"?>
<!DOCTYPE svg PUBLIC "-//W3C//DTD SVG 20010904//EN"
 "http://www.w3.org/TR/2001/REC-SVG-20010904/DTD/svg10.dtd">
<svg version="1.0" xmlns="http://www.w3.org/2000/svg"
 width="192.000000pt" height="192.000000pt" viewBox="0 0 192.000000 192.000000"
 preserveAspectRatio="xMidYMid meet">
<metadata>
Created by potrace 1.16, written by Peter Selinger 2001-2019
</metadata>
<g transform="translate(0.000000,192.000000) scale(0.100000,-0.100000)"
fill="#000000" stroke="none">
811 c445 -92 729 -532 635 -987 -62 -301 -295 -546 -601 -630 -91 -26 -329
-26 -420 0 -291 80 -516 305 -596 596 -26 91 -26 329 0 420 120 433 542 692
982 601z"/>
<path d="M1142 1338 c-18 -18 -17 -242 2 -257 17 -14 20 -13 144 61 57 34 82
55 82 68 0 14 -28 36 -94 74 -114 68 -118 70 -134 54z"/>
<path d="M870 1131 c-12 -8 -16 -43 -20 -167 l-5 -158 -54 -31 c-63 -37 -77
-57 -56 -78 8 -9 56 -39 106 -68 114 -65 122 -62 129 42 l5 73 113 67 c62 36
120 73 129 82 34 34 11 58 -146 151 -162 94 -178 101 -201 87z"/>
<path d="M551 1106 c-8 -9 -11 -54 -9 -132 3 -115 4 -119 25 -122 14 -2 61 19
118 53 124 73 124 80 -5 157 -103 62 -112 65 -129 44z"/>
</g>
</svg>
