<?xml version="1.0" standalone="no"?>
<!DOCTYPE svg PUBLIC "-//W3C//DTD SVG 20010904//EN"
 "http://www.w3.org/TR/2001/REC-SVG-20010904/DTD/svg10.dtd">
<svg version="1.0" xmlns="http://www.w3.org/2000/svg"
 width="192.000000pt" height="192.000000pt" viewBox="0 0 192.000000 192.000000"
 preserveAspectRatio="xMidYMid meet">
<metadata>
Created by potrace 1.16, written by Peter Selinger 2001-2019
</metadata>
<g transform="translate(0.000000,192.000000) scale(0.100000,-0.100000)"
fill="#000000" stroke="none">
811 c445 -92 729 -532 635 -987 -62 -301 -295 -546 -601 -630 -91 -26 -329
-26 -420 0 -291 80 -516 305 -596 596 -26 91 -26 329 0 420 120 433 542 692
982 601z"/>
<path d="M882 1369 c-120 -20 -243 -112 -296 -220 -172 -355 199 -724 552
-547 175 87 263 299 202 487 -22 70 -50 111 -74 111 -12 0 -206 -136 -206
-144 0 -2 32 -24 70 -50 46 -30 70 -53 70 -65 0 -15 -47 -44 -199 -125 -109
-58 -203 -106 -209 -106 -5 0 -15 6 -21 14 -12 14 4 36 148 196 22 25 40 48
41 52 0 5 -31 29 -70 54 -38 26 -70 52 -70 59 0 7 50 60 110 118 61 58 110
112 110 120 0 43 -64 62 -158 46z"/>
</g>
</svg>
