<?xml version="1.0" standalone="no"?>
<!DOCTYPE svg PUBLIC "-//W3C//DTD SVG 20010904//EN"
 "http://www.w3.org/TR/2001/REC-SVG-20010904/DTD/svg10.dtd">
<svg version="1.0" xmlns="http://www.w3.org/2000/svg"
 width="192.000000pt" height="192.000000pt" viewBox="0 0 192.000000 192.000000"
 preserveAspectRatio="xMidYMid meet">
<metadata>
Created by potrace 1.16, written by Peter Selinger 2001-2019
</metadata>
<g transform="translate(0.000000,192.000000) scale(0.100000,-0.100000)"
fill="#000000" stroke="none">
811 c445 -92 729 -532 635 -987 -62 -301 -295 -546 -601 -630 -91 -26 -329
-26 -420 0 -291 80 -516 305 -596 596 -26 91 -26 329 0 420 120 433 542 692
982 601z"/>
<path d="M695 1355 c-50 -17 -112 -85 -121 -132 -23 -125 52 -231 170 -241
135 -11 240 111 206 239 -21 78 -115 150 -195 149 -11 -1 -38 -7 -60 -15z
m129 -125 c28 -28 26 -83 -4 -115 -50 -53 -140 -16 -140 58 0 77 89 112 144
57z"/>
<path d="M992 1354 c-21 -15 -22 -21 -22 -179 0 -177 5 -195 54 -195 29 0 43
16 48 55 3 30 3 30 82 36 72 5 81 8 107 37 76 85 49 212 -54 251 -45 17 -188
14 -215 -5z m199 -118 c8 -17 8 -29 -1 -45 -10 -19 -18 -22 -63 -19 l-52 3 -3
43 -3 42 56 0 c49 0 57 -3 66 -24z"/>
<path d="M1272 1064 c-39 -27 -23 -84 24 -84 46 0 59 60 19 86 -18 12 -24 11
-43 -2z"/>
<path d="M710 948 c-204 -59 -177 -358 34 -376 30 -2 70 1 89 7 48 16 95 72
103 121 7 44 19 45 27 2 21 -106 179 -167 282 -109 64 35 109 149 73 185 -7 7
-41 12 -85 12 -62 0 -74 -3 -83 -20 -15 -28 4 -60 36 -60 30 0 23 -17 -12 -31
-31 -11 -88 10 -103 39 -41 76 42 157 119 117 37 -19 65 -12 86 20 11 18 13
29 5 43 -27 50 -153 72 -217 39 -47 -24 -92 -82 -105 -133 -9 -36 -14 -43 -21
-30 -7 13 -26 16 -88 16 -77 0 -80 -1 -86 -25 -7 -29 10 -55 37 -55 29 0 23
-19 -8 -27 -37 -9 -64 -5 -87 15 -45 41 -37 110 16 138 25 13 37 14 79 3 63
-16 84 -6 84 42 0 26 -6 36 -30 50 -40 23 -102 30 -145 17z"/>
</g>
</svg>
