<?xml version="1.0" standalone="no"?>
<!DOCTYPE svg PUBLIC "-//W3C//DTD SVG 20010904//EN"
 "http://www.w3.org/TR/2001/REC-SVG-20010904/DTD/svg10.dtd">
<svg version="1.0" xmlns="http://www.w3.org/2000/svg"
 width="192.000000pt" height="192.000000pt" viewBox="0 0 192.000000 192.000000"
 preserveAspectRatio="xMidYMid meet">
<metadata>
Created by potrace 1.16, written by Peter Selinger 2001-2019
</metadata>
<g transform="translate(0.000000,192.000000) scale(0.100000,-0.100000)"
fill="#000000" stroke="none">
811 c445 -92 729 -532 635 -987 -62 -301 -295 -546 -601 -630 -91 -26 -329
-26 -420 0 -291 80 -516 305 -596 596 -26 91 -26 329 0 420 120 433 542 692
982 601z"/>
<path d="M870 1373 c-14 -3 -51 -16 -82 -30 -76 -34 -79 -58 -7 -67 28 -4 79
-17 113 -29 57 -21 65 -22 96 -8 19 8 69 22 110 31 83 18 94 33 45 61 -65 38
-189 57 -275 42z"/>
<path d="M677 1254 c-19 -19 1 -184 27 -219 11 -15 22 -8 104 75 51 50 92 96
92 101 0 19 -207 59 -223 43z"/>
<path d="M1122 1249 c-72 -12 -123 -35 -116 -51 3 -7 24 -26 47 -43 22 -16 59
-53 81 -82 23 -28 48 -52 57 -52 23 -1 44 77 44 164 l0 70 -30 2 c-16 0 -54
-3 -83 -8z"/>
<path d="M607 1185 c-22 -21 -53 -110 -62 -173 -13 -94 35 -262 76 -270 13 -2
19 11 28 63 7 37 20 88 31 115 18 47 18 49 0 96 -10 27 -24 77 -30 112 -14 70
-21 79 -43 57z"/>
<path d="M1265 1153 c-11 -70 -26 -126 -41 -156 -14 -27 -14 -33 5 -76 11 -26
25 -77 31 -114 15 -81 30 -86 64 -19 53 105 54 246 3 352 -29 59 -54 64 -62
13z"/>
<path d="M880 1118 c-148 -75 -104 -300 60 -316 62 -6 100 10 144 58 44 49 55
109 31 166 -43 104 -138 141 -235 92z m151 -74 c36 -34 44 -72 25 -117 -16
-40 -59 -67 -107 -67 -46 0 -99 56 -99 105 0 47 14 71 53 96 41 26 90 19 128
-17z"/>
<path d="M695 887 c-16 -38 -38 -185 -29 -198 13 -22 182 -2 220 26 18 13 14
18 -51 78 -39 35 -76 76 -84 90 -21 40 -40 41 -56 4z"/>
<path d="M1145 869 c-16 -23 -55 -62 -85 -87 -30 -24 -55 -50 -55 -56 0 -18
74 -38 158 -43 l77 -6 0 59 c0 77 -27 174 -49 174 -9 0 -29 -19 -46 -41z"/>
<path d="M895 688 c-27 -11 -76 -24 -108 -30 -71 -13 -73 -32 -8 -65 103 -52
249 -53 349 -1 65 33 66 54 5 63 -26 4 -73 15 -103 25 -30 10 -62 21 -70 23
-8 3 -37 -4 -65 -15z"/>
</g>
</svg>
