<?xml version="1.0" standalone="no"?>
<!DOCTYPE svg PUBLIC "-//W3C//DTD SVG 20010904//EN"
 "http://www.w3.org/TR/2001/REC-SVG-20010904/DTD/svg10.dtd">
<svg version="1.0" xmlns="http://www.w3.org/2000/svg"
 width="192.000000pt" height="192.000000pt" viewBox="0 0 192.000000 192.000000"
 preserveAspectRatio="xMidYMid meet">
<metadata>
Created by potrace 1.16, written by Peter Selinger 2001-2019
</metadata>
<g transform="translate(0.000000,192.000000) scale(0.100000,-0.100000)"
fill="#000000" stroke="none">
811 c445 -92 729 -532 635 -987 -62 -301 -295 -546 -601 -630 -91 -26 -329
-26 -420 0 -291 80 -516 305 -596 596 -26 91 -26 329 0 420 120 433 542 692
982 601z"/>
<path d="M855 1365 c-27 -8 -53 -14 -56 -15 -4 0 -34 -18 -68 -41 -185 -124
-237 -391 -111 -574 144 -210 438 -239 616 -61 203 204 142 545 -121 667 -78
37 -183 47 -260 24z m185 -131 c72 -21 150 -98 175 -173 61 -184 -71 -375
-259 -375 -159 1 -275 119 -276 279 0 85 28 151 87 208 74 70 169 92 273 61z"/>
<path d="M864 1172 c-85 -40 -146 -152 -129 -239 21 -115 106 -187 220 -188
74 0 137 33 181 96 26 38 29 50 29 124 0 72 -3 86 -28 123 -41 63 -97 96 -171
99 -44 3 -72 -2 -102 -15z m170 -102 c67 -60 70 -150 6 -204 -65 -54 -148 -40
-197 33 -82 121 81 267 191 171z"/>
</g>
</svg>
