<?xml version="1.0" standalone="no"?>
<!DOCTYPE svg PUBLIC "-//W3C//DTD SVG 20010904//EN"
 "http://www.w3.org/TR/2001/REC-SVG-20010904/DTD/svg10.dtd">
<svg version="1.0" xmlns="http://www.w3.org/2000/svg"
 width="192.000000pt" height="192.000000pt" viewBox="0 0 192.000000 192.000000"
 preserveAspectRatio="xMidYMid meet">
<metadata>
Created by potrace 1.16, written by Peter Selinger 2001-2019
</metadata>
<g transform="translate(0.000000,192.000000) scale(0.100000,-0.100000)"
fill="#000000" stroke="none">
811 c445 -92 729 -532 635 -987 -62 -301 -295 -546 -601 -630 -91 -26 -329
-26 -420 0 -291 80 -516 305 -596 596 -26 91 -26 329 0 420 120 433 542 692
982 601z"/>
<path d="M970 1257 c-137 -39 -224 -153 -224 -292 0 -120 63 -218 172 -272 48
-24 70 -28 137 -28 67 0 89 4 137 28 105 51 170 150 171 261 3 168 -116 299
-283 311 -38 3 -84 -1 -110 -8z m135 -242 c34 -33 33 -77 -1 -104 -15 -12 -37
-21 -49 -21 -38 0 -75 37 -75 75 0 24 7 39 26 54 35 28 69 26 99 -4z"/>
<path d="M566 1019 c-53 -41 -18 -129 51 -129 32 0 73 42 73 75 0 33 -41 75
-73 75 -13 0 -36 -9 -51 -21z"/>
</g>
</svg>
