<?xml version="1.0" standalone="no"?>
<!DOCTYPE svg PUBLIC "-//W3C//DTD SVG 20010904//EN"
 "http://www.w3.org/TR/2001/REC-SVG-20010904/DTD/svg10.dtd">
<svg version="1.0" xmlns="http://www.w3.org/2000/svg"
 width="192.000000pt" height="192.000000pt" viewBox="0 0 192.000000 192.000000"
 preserveAspectRatio="xMidYMid meet">
<metadata>
Created by potrace 1.16, written by Peter Selinger 2001-2019
</metadata>
<g transform="translate(0.000000,192.000000) scale(0.100000,-0.100000)"
fill="#000000" stroke="none">
811 c445 -92 729 -532 635 -987 -62 -301 -295 -546 -601 -630 -91 -26 -329
-26 -420 0 -291 80 -516 305 -596 596 -26 91 -26 329 0 420 120 433 542 692
982 601z"/>
<path d="M865 1366 c-164 -40 -285 -168 -315 -336 -14 -78 -1 -169 38 -249 30
-64 124 -164 149 -159 11 2 26 32 45 90 l29 87 -24 33 c-78 104 -50 250 61
315 38 22 59 28 107 28 66 -1 104 -17 149 -61 45 -45 60 -83 61 -150 0 -52 -5
-69 -33 -114 l-34 -54 25 -85 c19 -69 28 -87 44 -89 33 -5 119 86 156 165 30
64 32 75 32 178 0 99 -3 116 -27 168 -55 117 -178 213 -302 236 -72 13 -96 13
-161 -3z"/>
<path d="M879 1077 c-68 -46 -76 -141 -15 -199 l32 -31 -22 -131 c-12 -72 -20
-136 -17 -143 10 -26 173 -28 189 -2 3 5 -5 69 -17 142 l-22 132 36 37 c33 32
37 41 37 88 0 47 -4 56 -39 91 -33 34 -45 39 -83 39 -30 0 -56 -8 -79 -23z"/>
</g>
</svg>
