<?xml version="1.0" standalone="no"?>
<!DOCTYPE svg PUBLIC "-//W3C//DTD SVG 20010904//EN"
 "http://www.w3.org/TR/2001/REC-SVG-20010904/DTD/svg10.dtd">
<svg version="1.0" xmlns="http://www.w3.org/2000/svg"
 width="192.000000pt" height="192.000000pt" viewBox="0 0 192.000000 192.000000"
 preserveAspectRatio="xMidYMid meet">
<metadata>
Created by potrace 1.16, written by Peter Selinger 2001-2019
</metadata>
<g transform="translate(0.000000,192.000000) scale(0.100000,-0.100000)"
fill="#000000" stroke="none">
811 c445 -92 729 -532 635 -987 -62 -301 -295 -546 -601 -630 -91 -26 -329
-26 -420 0 -291 80 -516 305 -596 596 -26 91 -26 329 0 420 120 433 542 692
982 601z"/>
<path d="M655 1278 c-87 -101 -129 -242 -107 -359 22 -120 117 -263 170 -257
48 6 49 31 5 84 -67 80 -86 128 -91 224 -5 106 19 176 84 248 46 52 52 70 32
90 -23 23 -56 13 -93 -30z"/>
<path d="M1166 1308 c-26 -14 -19 -49 18 -88 19 -19 47 -60 63 -90 25 -48 28
-66 28 -145 0 -76 -4 -99 -26 -146 -15 -31 -43 -74 -63 -96 -38 -43 -44 -61
-24 -81 21 -21 45 -13 87 31 55 55 100 151 109 230 15 126 -16 233 -96 333
-42 54 -68 68 -96 52z"/>
<path d="M780 1134 c-44 -37 -63 -81 -64 -144 -1 -93 75 -196 119 -160 22 18
18 48 -10 82 -36 43 -34 101 6 161 31 48 31 60 -1 77 -15 8 -25 4 -50 -16z"/>
<path d="M1062 1148 c-18 -18 -15 -33 13 -74 38 -56 37 -109 -1 -166 -34 -49
-29 -73 16 -73 28 0 38 6 57 34 55 81 55 171 -1 244 -33 44 -63 56 -84 35z"/>
<path d="M926 1054 c-13 -13 -16 -46 -16 -210 0 -200 6 -234 38 -234 39 0 42
17 42 232 0 195 -1 208 -19 218 -25 13 -27 13 -45 -6z"/>
</g>
</svg>
