<?xml version="1.0" standalone="no"?>
<!DOCTYPE svg PUBLIC "-//W3C//DTD SVG 20010904//EN"
 "http://www.w3.org/TR/2001/REC-SVG-20010904/DTD/svg10.dtd">
<svg version="1.0" xmlns="http://www.w3.org/2000/svg"
 width="192.000000pt" height="192.000000pt" viewBox="0 0 192.000000 192.000000"
 preserveAspectRatio="xMidYMid meet">
<metadata>
Created by potrace 1.16, written by Peter Selinger 2001-2019
</metadata>
<g transform="translate(0.000000,192.000000) scale(0.100000,-0.100000)"
fill="#000000" stroke="none">
811 c445 -92 729 -532 635 -987 -62 -301 -295 -546 -601 -630 -91 -26 -329
-26 -420 0 -291 80 -516 305 -596 596 -26 91 -26 329 0 420 120 433 542 692
982 601z"/>
<path d="M845 1366 c-74 -18 -125 -48 -177 -104 -84 -89 -114 -181 -106 -324
8 -152 94 -285 227 -351 60 -29 74 -32 156 -32 72 1 100 5 142 24 l52 23 26
-20 c58 -46 137 -32 175 30 32 53 25 103 -22 154 -18 21 -19 24 -2 73 26 81
17 237 -20 318 -31 69 -106 148 -172 181 -80 40 -186 51 -279 28z m151 -91
c45 -19 71 -75 85 -187 23 -176 -9 -371 -68 -418 -34 -27 -102 -27 -136 0 -51
40 -62 95 -62 305 0 175 2 194 22 238 32 69 89 92 159 62z m295 -571 c13 -15
8 -79 -6 -79 -5 0 -11 15 -13 33 -4 40 -22 42 -22 2 0 -16 -4 -30 -10 -30 -5
0 -10 14 -10 30 0 40 -18 38 -22 -2 -2 -18 -7 -33 -13 -33 -14 0 -19 64 -6 79
14 17 88 17 102 0z"/>
</g>
</svg>
