<?xml version="1.0" standalone="no"?>
<!DOCTYPE svg PUBLIC "-//W3C//DTD SVG 20010904//EN"
 "http://www.w3.org/TR/2001/REC-SVG-20010904/DTD/svg10.dtd">
<svg version="1.0" xmlns="http://www.w3.org/2000/svg"
 width="192.000000pt" height="192.000000pt" viewBox="0 0 192.000000 192.000000"
 preserveAspectRatio="xMidYMid meet">
<metadata>
Created by potrace 1.16, written by Peter Selinger 2001-2019
</metadata>
<g transform="translate(0.000000,192.000000) scale(0.100000,-0.100000)"
fill="#000000" stroke="none">
811 c445 -92 729 -532 635 -987 -62 -301 -295 -546 -601 -630 -91 -26 -329
-26 -420 0 -291 80 -516 305 -596 596 -26 91 -26 329 0 420 120 433 542 692
982 601z"/>
<path d="M840 1366 c-157 -43 -256 -159 -280 -326 -39 -277 163 -512 419 -486
36 4 85 16 109 26 43 19 45 19 71 1 43 -30 77 -34 125 -13 76 34 95 132 36
190 -25 25 -26 27 -12 67 20 55 27 181 13 243 -23 108 -90 206 -175 256 -88
51 -211 68 -306 42z m176 -107 c48 -45 59 -98 59 -294 0 -168 -2 -183 -24
-233 -29 -65 -52 -82 -112 -82 -41 0 -51 4 -77 34 -43 50 -57 117 -57 291 1
200 25 281 95 308 29 12 92 -1 116 -24z m259 -551 c1 -15 4 -30 8 -34 24 -24
-11 -64 -56 -64 l-32 0 0 65 0 66 40 -3 c36 -3 40 -6 40 -30z"/>
<path d="M1230 705 c0 -9 5 -15 10 -13 12 4 11 16 -1 24 -5 3 -9 -2 -9 -11z"/>
<path d="M1230 650 c0 -13 5 -18 15 -14 8 4 15 12 15 20 0 8 -7 14 -15 14 -8
0 -15 -9 -15 -20z"/>
</g>
</svg>
