<?xml version="1.0" standalone="no"?>
<!DOCTYPE svg PUBLIC "-//W3C//DTD SVG 20010904//EN"
 "http://www.w3.org/TR/2001/REC-SVG-20010904/DTD/svg10.dtd">
<svg version="1.0" xmlns="http://www.w3.org/2000/svg"
 width="192.000000pt" height="192.000000pt" viewBox="0 0 192.000000 192.000000"
 preserveAspectRatio="xMidYMid meet">
<metadata>
Created by potrace 1.16, written by Peter Selinger 2001-2019
</metadata>
<g transform="translate(0.000000,192.000000) scale(0.100000,-0.100000)"
fill="#000000" stroke="none">
811 c445 -92 729 -532 635 -987 -62 -301 -295 -546 -601 -630 -91 -26 -329
-26 -420 0 -291 80 -516 305 -596 596 -26 91 -26 329 0 420 120 433 542 692
982 601z"/>
<path d="M857 1360 c-239 -61 -355 -346 -237 -585 37 -78 110 -151 180 -184
48 -23 68 -26 155 -26 89 0 106 3 156 28 70 34 152 119 185 191 97 212 14 463
-183 553 -61 28 -189 40 -256 23z m148 -92 c64 -29 89 -126 84 -333 -4 -139
-6 -154 -31 -206 -38 -76 -92 -98 -157 -64 -61 31 -85 132 -79 339 5 165 19
219 66 256 28 22 78 26 117 8z"/>
</g>
</svg>
