<?xml version="1.0" standalone="no"?>
<!DOCTYPE svg PUBLIC "-//W3C//DTD SVG 20010904//EN"
 "http://www.w3.org/TR/2001/REC-SVG-20010904/DTD/svg10.dtd">
<svg version="1.0" xmlns="http://www.w3.org/2000/svg"
 width="192.000000pt" height="192.000000pt" viewBox="0 0 192.000000 192.000000"
 preserveAspectRatio="xMidYMid meet">
<metadata>
Created by potrace 1.16, written by Peter Selinger 2001-2019
</metadata>
<g transform="translate(0.000000,192.000000) scale(0.100000,-0.100000)"
fill="#000000" stroke="none">
811 c445 -92 729 -532 635 -987 -62 -301 -295 -546 -601 -630 -91 -26 -329
-26 -420 0 -291 80 -516 305 -596 596 -26 91 -26 329 0 420 120 433 542 692
982 601z"/>
<path d="M857 1359 c-288 -68 -381 -469 -160 -694 26 -26 73 -60 103 -74 48
-23 68 -26 155 -26 89 0 106 3 156 28 70 34 152 119 185 191 88 194 23 435
-144 533 -79 46 -202 64 -295 42z m154 -95 c19 -10 39 -33 52 -62 20 -43 22
-63 22 -232 0 -174 -1 -188 -24 -238 -26 -58 -59 -82 -113 -82 -45 0 -71 20
-99 77 -22 45 -24 59 -24 233 0 156 3 193 18 232 32 82 96 110 168 72z"/>
</g>
</svg>
