<?xml version="1.0" standalone="no"?>
<!DOCTYPE svg PUBLIC "-//W3C//DTD SVG 20010904//EN"
 "http://www.w3.org/TR/2001/REC-SVG-20010904/DTD/svg10.dtd">
<svg version="1.0" xmlns="http://www.w3.org/2000/svg"
 width="192.000000pt" height="192.000000pt" viewBox="0 0 192.000000 192.000000"
 preserveAspectRatio="xMidYMid meet">
<metadata>
Created by potrace 1.16, written by Peter Selinger 2001-2019
</metadata>
<g transform="translate(0.000000,192.000000) scale(0.100000,-0.100000)"
fill="#000000" stroke="none">
811 c445 -92 729 -532 635 -987 -62 -301 -295 -546 -601 -630 -91 -26 -329
-26 -420 0 -291 80 -516 305 -596 596 -26 91 -26 329 0 420 120 433 542 692
982 601z"/>
<path d="M710 1243 c-29 -26 -36 -49 -99 -300 -38 -150 -66 -275 -63 -278 12
-11 230 -5 240 8 5 6 27 71 47 142 21 72 40 132 42 135 3 3 2 -26 -2 -65 -6
-66 -5 -74 29 -147 l35 -78 106 0 c119 0 155 12 179 59 9 16 44 144 80 285 46
185 61 259 52 262 -7 3 -64 3 -127 2 l-114 -3 -22 -70 c-12 -38 -33 -106 -47
-150 l-25 -80 6 85 c5 80 3 90 -25 153 l-31 67 -115 0 c-112 0 -117 -1 -146
-27z"/>
</g>
</svg>
