<?xml version="1.0" standalone="no"?>
<!DOCTYPE svg PUBLIC "-//W3C//DTD SVG 20010904//EN"
 "http://www.w3.org/TR/2001/REC-SVG-20010904/DTD/svg10.dtd">
<svg version="1.0" xmlns="http://www.w3.org/2000/svg"
 width="192.000000pt" height="192.000000pt" viewBox="0 0 192.000000 192.000000"
 preserveAspectRatio="xMidYMid meet">
<metadata>
Created by potrace 1.16, written by Peter Selinger 2001-2019
</metadata>
<g transform="translate(0.000000,192.000000) scale(0.100000,-0.100000)"
fill="#000000" stroke="none">
811 c445 -92 729 -532 635 -987 -62 -301 -295 -546 -601 -630 -91 -26 -329
-26 -420 0 -291 80 -516 305 -596 596 -26 91 -26 329 0 420 120 433 542 692
982 601z"/>
<path d="M865 1370 c-167 -36 -271 -156 -295 -338 -36 -273 167 -504 419 -478
36 4 85 16 109 26 43 19 45 19 71 1 56 -39 115 -35 160 10 49 48 49 120 1 167
-26 26 -27 28 -11 62 11 25 15 68 15 150 1 98 -3 124 -23 175 -34 84 -124 174
-206 204 -67 25 -178 35 -240 21z m166 -117 c46 -46 61 -128 57 -312 -3 -138
-6 -162 -27 -209 -29 -65 -52 -82 -111 -82 -57 0 -89 30 -116 105 -26 76 -25
358 2 435 35 100 129 130 195 63z m262 -568 c9 -57 -4 -75 -57 -75 l-31 0 0
65 0 66 40 -3 c39 -3 40 -4 48 -53z"/>
<path d="M1240 705 c0 -9 5 -15 10 -13 12 4 11 16 -1 24 -5 3 -9 -2 -9 -11z"/>
<path d="M1240 650 c0 -13 5 -18 15 -14 8 4 15 12 15 20 0 8 -7 14 -15 14 -8
0 -15 -9 -15 -20z"/>
</g>
</svg>
