<?xml version="1.0" standalone="no"?>
<!DOCTYPE svg PUBLIC "-//W3C//DTD SVG 20010904//EN"
 "http://www.w3.org/TR/2001/REC-SVG-20010904/DTD/svg10.dtd">
<svg version="1.0" xmlns="http://www.w3.org/2000/svg"
 width="192.000000pt" height="192.000000pt" viewBox="0 0 192.000000 192.000000"
 preserveAspectRatio="xMidYMid meet">
<metadata>
Created by potrace 1.16, written by Peter Selinger 2001-2019
</metadata>
<g transform="translate(0.000000,192.000000) scale(0.100000,-0.100000)"
fill="#000000" stroke="none">
811 c445 -92 729 -532 635 -987 -62 -301 -295 -546 -601 -630 -91 -26 -329
-26 -420 0 -291 80 -516 305 -596 596 -26 91 -26 329 0 420 120 433 542 692
982 601z"/>
<path d="M839 1357 c-104 -30 -208 -121 -257 -225 -24 -51 -27 -68 -27 -172 0
-110 1 -118 32 -175 41 -78 122 -157 198 -192 54 -25 70 -28 170 -28 100 0
115 2 163 27 114 59 159 116 128 163 -22 34 -68 33 -108 0 -63 -53 -108 -70
-188 -69 -113 0 -191 47 -245 146 -26 46 -30 63 -30 133 0 92 20 139 82 201
55 53 112 76 192 76 77 0 121 -16 187 -66 26 -20 53 -36 61 -36 19 0 63 45 63
65 0 28 -71 94 -136 126 -53 26 -78 32 -151 35 -53 2 -106 -1 -134 -9z"/>
<path d="M855 1105 c-24 -23 -25 -30 -25 -140 0 -110 1 -117 25 -140 13 -14
35 -25 48 -25 13 0 62 26 108 58 91 63 111 93 91 136 -14 31 -168 136 -200
136 -13 0 -34 -11 -47 -25z"/>
<path d="M1231 1074 c-28 -36 -26 -60 8 -95 35 -34 59 -36 95 -8 33 26 36 79
6 109 -30 30 -83 27 -109 -6z"/>
</g>
</svg>
