<?xml version="1.0" standalone="no"?>
<!DOCTYPE svg PUBLIC "-//W3C//DTD SVG 20010904//EN"
 "http://www.w3.org/TR/2001/REC-SVG-20010904/DTD/svg10.dtd">
<svg version="1.0" xmlns="http://www.w3.org/2000/svg"
 width="192.000000pt" height="192.000000pt" viewBox="0 0 192.000000 192.000000"
 preserveAspectRatio="xMidYMid meet">
<metadata>
Created by potrace 1.16, written by Peter Selinger 2001-2019
</metadata>
<g transform="translate(0.000000,192.000000) scale(0.100000,-0.100000)"
fill="#000000" stroke="none">
811 c445 -92 729 -532 635 -987 -62 -301 -295 -546 -601 -630 -91 -26 -329
-26 -420 0 -291 80 -516 305 -596 596 -26 91 -26 329 0 420 120 433 542 692
982 601z"/>
<path d="M901 1344 c-19 -24 -21 -40 -21 -164 0 -124 2 -140 21 -164 28 -36
80 -36 108 0 19 24 21 40 21 164 0 124 -2 140 -21 164 -15 19 -30 26 -54 26
-24 0 -39 -7 -54 -26z"/>
<path d="M735 1261 c-31 -13 -101 -93 -129 -149 -50 -99 -52 -230 -3 -334 38
-83 97 -142 185 -185 71 -36 82 -38 166 -38 81 1 99 4 158 32 87 41 151 101
189 178 77 158 45 341 -82 460 -56 52 -93 59 -127 22 -34 -36 -28 -71 22 -125
65 -70 80 -106 80 -182 -2 -254 -339 -331 -457 -105 -14 28 -21 59 -21 105 0
75 16 114 74 175 55 57 60 87 22 125 -32 31 -43 34 -77 21z"/>
</g>
</svg>
