<?xml version="1.0" standalone="no"?>
<!DOCTYPE svg PUBLIC "-//W3C//DTD SVG 20010904//EN"
 "http://www.w3.org/TR/2001/REC-SVG-20010904/DTD/svg10.dtd">
<svg version="1.0" xmlns="http://www.w3.org/2000/svg"
 width="192.000000pt" height="192.000000pt" viewBox="0 0 192.000000 192.000000"
 preserveAspectRatio="xMidYMid meet">
<metadata>
Created by potrace 1.16, written by Peter Selinger 2001-2019
</metadata>
<g transform="translate(0.000000,192.000000) scale(0.100000,-0.100000)"
fill="#000000" stroke="none">
811 c445 -92 729 -532 635 -987 -62 -301 -295 -546 -601 -630 -91 -26 -329
-26 -420 0 -291 80 -516 305 -596 596 -26 91 -26 329 0 420 120 433 542 692
982 601z"/>
<path d="M618 1359 c-16 -9 -18 -27 -18 -139 0 -161 -1 -160 116 -160 l84 0 0
-50 0 -50 -49 0 c-44 0 -50 3 -53 23 -3 19 -9 22 -48 22 l-45 0 0 -65 c0 -86
11 -92 163 -88 99 3 115 5 128 22 19 26 20 244 2 269 -10 13 -33 17 -103 19
l-90 3 -3 53 -3 52 50 0 c44 0 50 -3 53 -22 3 -20 9 -23 53 -23 l50 0 3 54 c5
85 -6 91 -152 91 -67 0 -129 -5 -138 -11z"/>
<path d="M1026 1354 c-14 -13 -16 -49 -16 -243 0 -200 2 -230 17 -242 12 -10
50 -14 140 -14 112 0 126 2 139 19 11 16 14 66 14 241 0 202 -2 223 -18 238
-26 24 -253 25 -276 1z m192 -241 l3 -153 -56 0 -55 0 0 148 c0 82 3 152 7
156 4 4 28 6 53 4 l45 -3 3 -152z"/>
<path d="M1182 792 c-9 -6 -12 -37 -10 -118 3 -101 4 -109 23 -109 16 0 21 8
23 42 3 42 3 42 45 45 l42 3 3 64 c2 45 -1 67 -10 72 -17 11 -99 11 -116 1z
m78 -67 c0 -18 -5 -25 -20 -25 -15 0 -20 7 -20 25 0 18 5 25 20 25 15 0 20 -7
20 -25z"/>
<path d="M607 783 c-4 -3 -7 -55 -7 -115 l0 -108 69 0 c39 0 73 5 76 10 12 20
-17 40 -56 40 l-39 0 0 90 c0 81 -2 90 -18 90 -10 0 -22 -3 -25 -7z"/>
<path d="M780 761 c-5 -11 -10 -51 -10 -89 0 -105 26 -115 125 -50 73 48 72
68 -7 118 -71 45 -93 49 -108 21z"/>
<path d="M986 764 c-11 -11 -16 -35 -16 -80 0 -115 23 -127 120 -67 81 51 81
70 -2 123 -70 44 -80 47 -102 24z"/>
</g>
</svg>
