<?xml version="1.0" standalone="no"?>
<!DOCTYPE svg PUBLIC "-//W3C//DTD SVG 20010904//EN"
 "http://www.w3.org/TR/2001/REC-SVG-20010904/DTD/svg10.dtd">
<svg version="1.0" xmlns="http://www.w3.org/2000/svg"
 width="192.000000pt" height="192.000000pt" viewBox="0 0 192.000000 192.000000"
 preserveAspectRatio="xMidYMid meet">
<metadata>
Created by potrace 1.16, written by Peter Selinger 2001-2019
</metadata>
<g transform="translate(0.000000,192.000000) scale(0.100000,-0.100000)"
fill="#000000" stroke="none">
811 c445 -92 729 -532 635 -987 -62 -301 -295 -546 -601 -630 -91 -26 -329
-26 -420 0 -291 80 -516 305 -596 596 -26 91 -26 329 0 420 120 433 542 692
982 601z"/>
<path d="M909 1366 c-43 -15 -263 -142 -278 -160 -9 -10 24 -34 150 -110 88
-53 165 -96 171 -96 5 0 83 44 173 97 125 74 162 100 154 109 -15 18 -235 145
-278 160 -44 16 -48 16 -92 0z"/>
<path d="M587 1143 c-4 -3 -7 -83 -7 -177 0 -226 -5 -216 176 -323 76 -45 147
-82 157 -83 16 0 17 16 17 195 l0 194 -147 87 c-82 48 -157 93 -169 101 -11 7
-24 10 -27 6z"/>
<path d="M1149 1052 l-164 -97 -3 -198 c-2 -183 -1 -197 15 -197 10 1 81 38
157 83 181 107 176 97 176 324 0 94 -4 174 -8 177 -5 3 -83 -39 -173 -92z"/>
</g>
</svg>
