<?xml version="1.0" standalone="no"?>
<!DOCTYPE svg PUBLIC "-//W3C//DTD SVG 20010904//EN"
 "http://www.w3.org/TR/2001/REC-SVG-20010904/DTD/svg10.dtd">
<svg version="1.0" xmlns="http://www.w3.org/2000/svg"
 width="192.000000pt" height="192.000000pt" viewBox="0 0 192.000000 192.000000"
 preserveAspectRatio="xMidYMid meet">
<metadata>
Created by potrace 1.16, written by Peter Selinger 2001-2019
</metadata>
<g transform="translate(0.000000,192.000000) scale(0.100000,-0.100000)"
fill="#000000" stroke="none">
811 c445 -92 729 -532 635 -987 -62 -301 -295 -546 -601 -630 -91 -26 -329
-26 -420 0 -291 80 -516 305 -596 596 -26 91 -26 329 0 420 120 433 542 692
982 601z"/>
<path d="M715 1217 c-129 -50 -201 -176 -175 -303 35 -169 214 -262 365 -190
56 26 97 67 173 173 56 76 66 83 116 83 39 0 73 -32 82 -76 9 -46 -35 -94 -85
-94 -20 0 -46 7 -57 15 -27 20 -58 19 -78 -4 -25 -28 -12 -56 38 -86 71 -42
161 -32 219 23 43 40 57 75 57 137 0 110 -74 185 -182 185 -72 0 -116 -30
-201 -138 -87 -111 -122 -136 -188 -136 -62 0 -109 29 -136 84 -29 56 -29 96
0 150 27 51 75 80 134 80 56 0 79 -10 135 -59 25 -23 53 -41 61 -41 23 0 47
28 47 54 0 29 -85 110 -143 136 -48 22 -135 25 -182 7z"/>
</g>
</svg>
