<?xml version="1.0" standalone="no"?>
<!DOCTYPE svg PUBLIC "-//W3C//DTD SVG 20010904//EN"
 "http://www.w3.org/TR/2001/REC-SVG-20010904/DTD/svg10.dtd">
<svg version="1.0" xmlns="http://www.w3.org/2000/svg"
 width="192.000000pt" height="192.000000pt" viewBox="0 0 192.000000 192.000000"
 preserveAspectRatio="xMidYMid meet">
<metadata>
Created by potrace 1.16, written by Peter Selinger 2001-2019
</metadata>
<g transform="translate(0.000000,192.000000) scale(0.100000,-0.100000)"
fill="#000000" stroke="none">
811 c445 -92 729 -532 635 -987 -62 -301 -295 -546 -601 -630 -91 -26 -329
-26 -420 0 -291 80 -516 305 -596 596 -26 91 -26 329 0 420 120 433 542 692
982 601z"/>
<path d="M1060 1300 c-19 -19 -20 -35 -20 -331 0 -195 4 -318 10 -330 14 -25
56 -25 70 0 13 26 14 625 0 650 -15 29 -38 33 -60 11z"/>
<path d="M802 1248 c-9 -9 -12 -86 -12 -285 0 -259 1 -273 19 -283 25 -13 27
-13 45 6 14 13 16 53 16 283 0 274 -2 291 -40 291 -9 0 -21 -5 -28 -12z"/>
<path d="M1181 1207 c-8 -11 -11 -79 -9 -247 3 -209 5 -234 21 -244 12 -8 22
-8 35 0 15 10 17 34 17 255 l0 244 -26 3 c-14 2 -31 -3 -38 -11z"/>
<path d="M672 1138 c-8 -8 -12 -57 -12 -169 0 -130 3 -160 16 -173 8 -9 21
-16 28 -16 32 0 37 27 34 196 l-3 169 -25 3 c-14 2 -31 -3 -38 -10z"/>
<path d="M924 1117 c-2 -7 -3 -77 -2 -156 3 -124 5 -145 21 -155 12 -8 22 -8
35 0 15 10 17 31 20 154 2 96 -1 147 -9 156 -14 18 -58 18 -65 1z"/>
<path d="M550 1070 c-16 -10 -27 -131 -16 -175 9 -36 43 -51 67 -29 16 14 19
31 19 100 0 101 -22 134 -70 104z"/>
<path d="M1312 1048 c-7 -7 -12 -41 -12 -83 0 -69 10 -95 36 -95 30 0 44 31
44 99 0 68 -10 91 -40 91 -9 0 -21 -5 -28 -12z"/>
</g>
</svg>
