<?xml version="1.0" standalone="no"?>
<!DOCTYPE svg PUBLIC "-//W3C//DTD SVG 20010904//EN"
 "http://www.w3.org/TR/2001/REC-SVG-20010904/DTD/svg10.dtd">
<svg version="1.0" xmlns="http://www.w3.org/2000/svg"
 width="192.000000pt" height="192.000000pt" viewBox="0 0 192.000000 192.000000"
 preserveAspectRatio="xMidYMid meet">
<metadata>
Created by potrace 1.16, written by Peter Selinger 2001-2019
</metadata>
<g transform="translate(0.000000,192.000000) scale(0.100000,-0.100000)"
fill="#000000" stroke="none">
811 c445 -92 729 -532 635 -987 -62 -301 -295 -546 -601 -630 -91 -26 -329
-26 -420 0 -291 80 -516 305 -596 596 -26 91 -26 329 0 420 120 433 542 692
982 601z"/>
<path d="M882 1369 c-215 -36 -371 -253 -335 -466 47 -271 330 -423 577 -310
265 122 316 482 97 680 -54 48 -109 76 -190 93 -73 15 -74 15 -149 3z m139
-181 c51 -15 114 -70 141 -121 28 -56 28 -148 0 -204 -12 -22 -39 -56 -62 -75
-189 -162 -462 51 -356 278 48 104 166 156 277 122z"/>
<path d="M900 1082 c-68 -34 -97 -110 -65 -172 35 -68 100 -92 169 -62 102 46
104 187 3 233 -52 23 -63 23 -107 1z"/>
</g>
</svg>
