<?xml version="1.0" standalone="no"?>
<!DOCTYPE svg PUBLIC "-//W3C//DTD SVG 20010904//EN"
 "http://www.w3.org/TR/2001/REC-SVG-20010904/DTD/svg10.dtd">
<svg version="1.0" xmlns="http://www.w3.org/2000/svg"
 width="192.000000pt" height="192.000000pt" viewBox="0 0 192.000000 192.000000"
 preserveAspectRatio="xMidYMid meet">
<metadata>
Created by potrace 1.16, written by Peter Selinger 2001-2019
</metadata>
<g transform="translate(0.000000,192.000000) scale(0.100000,-0.100000)"
fill="#000000" stroke="none">
811 c445 -92 729 -532 635 -987 -62 -301 -295 -546 -601 -630 -91 -26 -329
-26 -420 0 -291 80 -516 305 -596 596 -26 91 -26 329 0 420 120 433 542 692
982 601z"/>
<path d="M835 1356 c-190 -60 -308 -235 -292 -429 6 -71 44 -168 85 -217 l21
-25 59 58 58 58 -25 52 c-34 67 -35 153 -4 213 30 57 94 111 148 125 l45 11 0
84 0 84 -27 -1 c-16 0 -46 -6 -68 -13z"/>
<path d="M970 1288 l0 -84 43 -11 c66 -18 121 -64 152 -128 24 -48 27 -64 23
-120 -4 -40 -14 -78 -28 -101 l-21 -37 60 -61 c59 -59 61 -60 76 -41 9 11 30
49 48 85 40 83 49 207 22 291 -48 150 -185 269 -326 286 l-49 6 0 -85z"/>
<path d="M915 1131 c-112 -27 -165 -142 -115 -245 78 -162 322 -105 322 74 0
55 -20 98 -62 133 -26 22 -92 49 -110 46 -3 -1 -18 -4 -35 -8z m107 -99 c11
-10 22 -37 25 -59 5 -35 1 -45 -25 -74 -40 -45 -98 -47 -139 -6 -41 41 -39 99
6 139 29 26 39 30 74 25 22 -3 49 -14 59 -25z"/>
<path d="M1080 760 c-34 -26 -113 -44 -161 -36 -21 3 -59 16 -84 28 l-45 22
-55 -54 c-30 -30 -55 -58 -55 -62 0 -15 89 -68 151 -88 114 -39 275 -12 359
59 l35 30 -60 60 -60 60 -25 -19z"/>
</g>
</svg>
