<?xml version="1.0" standalone="no"?>
<!DOCTYPE svg PUBLIC "-//W3C//DTD SVG 20010904//EN"
 "http://www.w3.org/TR/2001/REC-SVG-20010904/DTD/svg10.dtd">
<svg version="1.0" xmlns="http://www.w3.org/2000/svg"
 width="192.000000pt" height="192.000000pt" viewBox="0 0 192.000000 192.000000"
 preserveAspectRatio="xMidYMid meet">
<metadata>
Created by potrace 1.16, written by Peter Selinger 2001-2019
</metadata>
<g transform="translate(0.000000,192.000000) scale(0.100000,-0.100000)"
fill="#000000" stroke="none">
811 c445 -92 729 -532 635 -987 -62 -301 -295 -546 -601 -630 -91 -26 -329
-26 -420 0 -291 80 -516 305 -596 596 -26 91 -26 329 0 420 120 433 542 692
982 601z"/>
<path d="M894 1361 c-23 -14 -72 -90 -192 -299 -89 -154 -165 -294 -168 -310
-22 -111 119 -201 212 -135 19 14 85 117 188 294 172 297 185 333 152 398 -34
66 -128 91 -192 52z"/>
<path d="M1183 1109 c-102 -30 -144 -168 -76 -249 94 -112 268 -58 280 87 9
109 -98 194 -204 162z"/>
</g>
</svg>
