<?xml version="1.0" standalone="no"?>
<!DOCTYPE svg PUBLIC "-//W3C//DTD SVG 20010904//EN"
 "http://www.w3.org/TR/2001/REC-SVG-20010904/DTD/svg10.dtd">
<svg version="1.0" xmlns="http://www.w3.org/2000/svg"
 width="192.000000pt" height="192.000000pt" viewBox="0 0 192.000000 192.000000"
 preserveAspectRatio="xMidYMid meet">
<metadata>
Created by potrace 1.16, written by Peter Selinger 2001-2019
</metadata>
<g transform="translate(0.000000,192.000000) scale(0.100000,-0.100000)"
fill="#000000" stroke="none">
811 c445 -92 729 -532 635 -987 -62 -301 -295 -546 -601 -630 -91 -26 -329
-26 -420 0 -291 80 -516 305 -596 596 -26 91 -26 329 0 420 120 433 542 692
982 601z"/>
<path d="M914 1366 c-30 -13 -46 -40 -60 -100 -4 -16 -25 -48 -48 -71 -46 -48
-105 -70 -160 -60 -93 18 -151 -82 -90 -154 14 -17 32 -31 39 -31 21 0 73 -66
84 -107 15 -51 14 -77 -4 -120 -8 -19 -15 -52 -15 -73 0 -80 93 -119 157 -66
46 38 89 56 137 56 56 0 90 -13 133 -50 87 -77 211 8 159 108 -20 38 -21 121
-2 165 7 18 30 46 50 62 79 64 86 73 86 110 0 20 -5 45 -10 56 -17 30 -68 52
-106 44 -19 -3 -53 0 -76 7 -50 15 -125 84 -133 122 -3 14 -7 37 -10 51 -6 26
-57 65 -85 65 -8 -1 -29 -7 -46 -14z m150 -381 c15 -9 15 -14 -4 -67 -11 -32
-20 -64 -20 -73 0 -12 -15 -15 -78 -15 l-79 0 -24 74 -24 74 41 26 c22 14 49
35 58 45 18 20 19 19 66 -17 26 -20 55 -41 64 -47z"/>
</g>
</svg>
