<?xml version="1.0" standalone="no"?>
<!DOCTYPE svg PUBLIC "-//W3C//DTD SVG 20010904//EN"
 "http://www.w3.org/TR/2001/REC-SVG-20010904/DTD/svg10.dtd">
<svg version="1.0" xmlns="http://www.w3.org/2000/svg"
 width="192.000000pt" height="192.000000pt" viewBox="0 0 192.000000 192.000000"
 preserveAspectRatio="xMidYMid meet">
<metadata>
Created by potrace 1.16, written by Peter Selinger 2001-2019
</metadata>
<g transform="translate(0.000000,192.000000) scale(0.100000,-0.100000)"
fill="#000000" stroke="none">
811 c445 -92 729 -532 635 -987 -62 -301 -295 -546 -601 -630 -91 -26 -329
-26 -420 0 -291 80 -516 305 -596 596 -26 91 -26 329 0 420 120 433 542 692
982 601z"/>
<path d="M835 1363 c-227 -81 -345 -306 -275 -523 37 -114 91 -150 145 -95 31
30 31 40 3 101 -31 69 -30 172 1 234 51 100 134 153 241 154 94 1 100 -3 100
-69 0 -38 4 -55 13 -55 7 0 48 36 92 81 l80 80 -35 30 c-82 69 -260 99 -365
62z"/>
<path d="M1223 1198 c-37 -18 -44 -58 -20 -109 30 -64 30 -188 0 -245 -59
-112 -172 -168 -297 -150 l-46 7 0 60 c0 32 -4 59 -10 59 -5 0 -47 -36 -92
-79 -81 -79 -82 -80 -63 -101 10 -11 48 -35 84 -53 62 -30 72 -32 176 -32 103
0 114 2 177 32 88 41 160 113 201 201 30 63 32 74 32 177 0 95 -3 117 -24 163
-34 75 -67 95 -118 70z"/>
</g>
</svg>
