<?xml version="1.0" standalone="no"?>
<!DOCTYPE svg PUBLIC "-//W3C//DTD SVG 20010904//EN"
 "http://www.w3.org/TR/2001/REC-SVG-20010904/DTD/svg10.dtd">
<svg version="1.0" xmlns="http://www.w3.org/2000/svg"
 width="192.000000pt" height="192.000000pt" viewBox="0 0 192.000000 192.000000"
 preserveAspectRatio="xMidYMid meet">
<metadata>
Created by potrace 1.16, written by Peter Selinger 2001-2019
</metadata>
<g transform="translate(0.000000,192.000000) scale(0.100000,-0.100000)"
fill="#000000" stroke="none">
811 c445 -92 729 -532 635 -987 -62 -301 -295 -546 -601 -630 -91 -26 -329
-26 -420 0 -291 80 -516 305 -596 596 -26 91 -26 329 0 420 120 433 542 692
982 601z"/>
<path d="M597 1349 c-32 -18 -47 -65 -47 -141 1 -146 65 -218 196 -218 51 0
54 -1 54 -25 0 -24 -3 -25 -55 -25 -69 0 -113 -18 -148 -59 -37 -45 -50 -96
-45 -186 3 -70 6 -79 31 -101 25 -22 37 -24 124 -24 80 0 102 4 135 22 56 32
80 76 86 159 4 64 6 69 28 69 23 0 24 -4 24 -60 0 -73 25 -128 72 -162 29 -20
47 -23 138 -26 104 -4 106 -3 134 24 27 28 28 30 24 134 -3 91 -6 109 -26 138
-34 47 -89 72 -162 72 -57 0 -60 1 -60 25 0 24 3 25 60 25 73 0 128 25 162 72
20 29 23 47 26 138 4 104 3 106 -24 134 -28 27 -30 28 -134 24 -91 -3 -109 -6
-138 -26 -46 -33 -72 -90 -72 -157 0 -51 -2 -55 -24 -55 -21 0 -24 5 -28 64
-7 78 -32 123 -86 154 -33 18 -55 22 -133 22 -52 0 -102 -5 -112 -11z m683
-143 c0 -75 -3 -88 -24 -113 -21 -25 -31 -28 -100 -31 -100 -5 -106 0 -106 95
0 69 2 77 29 104 28 28 34 29 115 29 l86 0 0 -84z"/>
</g>
</svg>
