<?xml version="1.0" standalone="no"?>
<!DOCTYPE svg PUBLIC "-//W3C//DTD SVG 20010904//EN"
 "http://www.w3.org/TR/2001/REC-SVG-20010904/DTD/svg10.dtd">
<svg version="1.0" xmlns="http://www.w3.org/2000/svg"
 width="192.000000pt" height="192.000000pt" viewBox="0 0 192.000000 192.000000"
 preserveAspectRatio="xMidYMid meet">
<metadata>
Created by potrace 1.16, written by Peter Selinger 2001-2019
</metadata>
<g transform="translate(0.000000,192.000000) scale(0.100000,-0.100000)"
fill="#000000" stroke="none">
811 c445 -92 729 -532 635 -987 -62 -301 -295 -546 -601 -630 -91 -26 -329
-26 -420 0 -291 80 -516 305 -596 596 -26 91 -26 329 0 420 120 433 542 692
982 601z"/>
<path d="M861 1338 c-41 -20 -101 -93 -101 -124 0 -6 -24 -14 -56 -18 -70 -8
-110 -28 -134 -69 -26 -42 -25 -80 5 -288 26 -181 39 -216 88 -253 27 -20 40
-21 292 -21 251 0 265 1 291 21 55 41 63 61 89 242 30 211 31 257 5 299 -24
41 -64 61 -133 69 -49 6 -56 10 -62 33 -27 106 -175 163 -284 109z m143 -62
c31 -13 66 -49 66 -68 0 -5 -52 -8 -115 -8 -63 0 -115 3 -115 8 0 18 35 55 64
68 40 17 59 17 100 0z m-220 -302 c12 -11 16 -36 16 -99 0 -110 -2 -115 -56
-115 -58 0 -67 18 -62 127 3 90 10 103 60 103 15 0 34 -7 42 -16z m145 2 c7
-9 11 -38 9 -73 -3 -56 -4 -58 -35 -68 -29 -8 -33 -14 -33 -42 0 -26 -4 -33
-20 -33 -19 0 -20 7 -20 115 l0 115 44 0 c25 0 48 -6 55 -14z m135 8 c19 -7
30 -63 22 -109 -6 -29 -12 -35 -41 -41 -32 -6 -35 -9 -35 -40 0 -27 -4 -34
-20 -34 -19 0 -20 7 -20 115 l0 115 39 0 c22 0 46 -3 55 -6z m155 -8 c8 -9 11
-48 9 -112 l-3 -99 -50 0 -50 0 -3 104 c-2 77 1 107 10 113 21 13 75 9 87 -6z"/>
<path d="M722 873 c3 -65 6 -78 21 -81 15 -3 17 6 17 77 0 75 -2 81 -20 81
-19 0 -21 -5 -18 -77z"/>
<path d="M870 910 c0 -29 4 -40 15 -40 11 0 15 11 15 40 0 29 -4 40 -15 40
-11 0 -15 -11 -15 -40z"/>
<path d="M1010 909 c0 -33 3 -40 18 -37 12 2 18 14 20 41 3 32 0 37 -17 37
-18 0 -21 -6 -21 -41z"/>
<path d="M1152 873 c3 -65 6 -78 21 -81 15 -3 17 6 17 77 0 75 -2 81 -20 81
-19 0 -21 -5 -18 -77z"/>
</g>
</svg>
