<?xml version="1.0" standalone="no"?>
<!DOCTYPE svg PUBLIC "-//W3C//DTD SVG 20010904//EN"
 "http://www.w3.org/TR/2001/REC-SVG-20010904/DTD/svg10.dtd">
<svg version="1.0" xmlns="http://www.w3.org/2000/svg"
 width="192.000000pt" height="192.000000pt" viewBox="0 0 192.000000 192.000000"
 preserveAspectRatio="xMidYMid meet">
<metadata>
Created by potrace 1.16, written by Peter Selinger 2001-2019
</metadata>
<g transform="translate(0.000000,192.000000) scale(0.100000,-0.100000)"
fill="#000000" stroke="none">
811 c445 -92 729 -532 635 -987 -62 -301 -295 -546 -601 -630 -91 -26 -329
-26 -420 0 -291 80 -516 305 -596 596 -26 91 -26 329 0 420 120 433 542 692
982 601z"/>
<path d="M755 1376 c-42 -19 -202 -186 -210 -219 -12 -48 3 -89 52 -139 l46
-47 -46 -51 c-48 -54 -64 -99 -52 -147 4 -16 49 -70 104 -125 93 -93 100 -98
140 -98 51 0 85 17 130 64 l35 36 52 -50 c47 -44 58 -50 96 -50 54 0 73 13
174 120 51 54 84 97 88 117 9 41 -12 89 -58 132 -20 19 -36 40 -36 46 0 6 16
27 36 46 48 45 67 90 58 137 -5 27 -28 58 -97 129 -129 133 -174 142 -262 53
l-49 -50 -46 44 c-42 42 -85 67 -113 66 -7 -1 -25 -7 -42 -14z m195 -211 c75
-74 142 -135 148 -135 16 0 42 29 42 47 0 8 -29 45 -65 82 l-65 67 38 37 c21
20 47 37 58 37 30 0 177 -152 172 -178 -1 -12 -60 -82 -130 -156 -71 -74 -128
-141 -128 -148 0 -19 20 -38 40 -38 8 0 45 29 80 65 l64 65 38 -37 c56 -55 52
-73 -39 -165 -43 -43 -84 -78 -93 -78 -8 0 -78 64 -156 141 -127 127 -145 141
-168 135 -20 -5 -26 -13 -26 -33 0 -20 17 -45 67 -95 l67 -68 -39 -40 c-21
-22 -46 -40 -54 -40 -20 0 -181 160 -181 179 0 8 63 79 140 156 77 78 140 149
140 158 0 18 -26 47 -43 47 -6 0 -44 -32 -84 -72 l-73 -72 -35 34 c-19 18 -38
42 -41 52 -8 25 138 188 169 188 14 0 69 -47 157 -135z"/>
<path d="M897 1022 c-20 -21 -37 -45 -37 -55 0 -21 55 -84 82 -93 15 -4 31 4
64 37 24 24 44 49 44 56 0 23 -71 93 -94 93 -12 0 -38 -17 -59 -38z"/>
</g>
</svg>
