<?xml version="1.0" standalone="no"?>
<!DOCTYPE svg PUBLIC "-//W3C//DTD SVG 20010904//EN"
 "http://www.w3.org/TR/2001/REC-SVG-20010904/DTD/svg10.dtd">
<svg version="1.0" xmlns="http://www.w3.org/2000/svg"
 width="192.000000pt" height="192.000000pt" viewBox="0 0 192.000000 192.000000"
 preserveAspectRatio="xMidYMid meet">
<metadata>
Created by potrace 1.16, written by Peter Selinger 2001-2019
</metadata>
<g transform="translate(0.000000,192.000000) scale(0.100000,-0.100000)"
fill="#000000" stroke="none">
811 c445 -92 729 -532 635 -987 -62 -301 -295 -546 -601 -630 -91 -26 -329
-26 -420 0 -291 80 -516 305 -596 596 -26 91 -26 329 0 420 120 433 542 692
982 601z"/>
<path d="M835 1357 c-199 -66 -320 -255 -287 -451 35 -211 217 -356 432 -344
238 14 422 238 381 466 -7 37 -23 89 -35 115 l-24 48 23 9 c33 13 39 29 20 50
-13 14 -14 23 -6 39 6 11 11 31 11 45 0 29 -21 34 -64 14 -22 -9 -29 -8 -46 7
-16 14 -22 15 -34 5 -9 -6 -18 -20 -21 -30 -6 -17 -9 -17 -63 8 -47 21 -74 27
-152 29 -59 2 -110 -2 -135 -10z m223 -91 c45 -16 122 -64 122 -77 0 -4 -13
-17 -30 -29 l-30 -21 -47 28 c-40 24 -59 28 -119 28 -61 0 -77 -4 -120 -30
-98 -61 -141 -189 -95 -286 11 -24 26 -52 33 -61 11 -15 9 -22 -14 -45 -32
-31 -45 -25 -83 41 -93 162 -15 377 162 446 58 23 164 26 221 6z m-29 -183
l24 -15 -99 -99 c-107 -108 -115 -110 -135 -36 -32 119 104 217 210 150z"/>
</g>
</svg>
