<?xml version="1.0" standalone="no"?>
<!DOCTYPE svg PUBLIC "-//W3C//DTD SVG 20010904//EN"
 "http://www.w3.org/TR/2001/REC-SVG-20010904/DTD/svg10.dtd">
<svg version="1.0" xmlns="http://www.w3.org/2000/svg"
 width="192.000000pt" height="192.000000pt" viewBox="0 0 192.000000 192.000000"
 preserveAspectRatio="xMidYMid meet">
<metadata>
Created by potrace 1.16, written by Peter Selinger 2001-2019
</metadata>
<g transform="translate(0.000000,192.000000) scale(0.100000,-0.100000)"
fill="#000000" stroke="none">
811 c445 -92 729 -532 635 -987 -62 -301 -295 -546 -601 -630 -91 -26 -329
-26 -420 0 -291 80 -516 305 -596 596 -26 91 -26 329 0 420 120 433 542 692
982 601z"/>
<path d="M882 1245 c-28 -30 -58 -73 -69 -95 -12 -27 -23 -38 -33 -34 -8 3
-45 8 -82 11 -87 8 -98 -1 -98 -76 0 -160 77 -240 237 -247 50 -2 82 -9 93
-19 21 -19 30 -19 58 1 13 9 49 16 91 18 120 5 187 52 217 153 17 57 18 145 2
161 -14 14 -86 15 -141 3 -37 -9 -38 -8 -58 32 -30 58 -117 147 -144 147 -15
0 -41 -19 -73 -55z"/>
<path d="M572 827 c-23 -23 -42 -50 -42 -59 0 -22 83 -96 133 -119 76 -34 151
-20 236 45 46 34 74 33 130 -8 83 -60 145 -70 221 -35 54 24 130 96 130 123 0
10 -19 37 -41 58 l-41 40 -32 -31 c-44 -43 -95 -61 -173 -61 -44 -1 -75 -6
-87 -15 -25 -19 -63 -19 -96 0 -14 8 -51 14 -84 15 -79 0 -132 17 -174 57 -19
18 -35 33 -36 33 -1 0 -21 -19 -44 -43z"/>
</g>
</svg>
