<?xml version="1.0" standalone="no"?>
<!DOCTYPE svg PUBLIC "-//W3C//DTD SVG 20010904//EN"
 "http://www.w3.org/TR/2001/REC-SVG-20010904/DTD/svg10.dtd">
<svg version="1.0" xmlns="http://www.w3.org/2000/svg"
 width="192.000000pt" height="192.000000pt" viewBox="0 0 192.000000 192.000000"
 preserveAspectRatio="xMidYMid meet">
<metadata>
Created by potrace 1.16, written by Peter Selinger 2001-2019
</metadata>
<g transform="translate(0.000000,192.000000) scale(0.100000,-0.100000)"
fill="#000000" stroke="none">
811 c445 -92 729 -532 635 -987 -62 -301 -295 -546 -601 -630 -91 -26 -329
-26 -420 0 -291 80 -516 305 -596 596 -26 91 -26 329 0 420 120 433 542 692
982 601z"/>
<path d="M910 1362 c-46 -22 -59 -62 -59 -179 l-1 -91 -142 -99 c-154 -106
-169 -125 -133 -179 21 -32 46 -31 166 11 56 19 103 35 105 35 2 0 4 -29 4
-65 0 -64 0 -65 -46 -107 -37 -34 -44 -47 -42 -71 2 -18 13 -38 29 -49 25 -19
26 -19 96 7 l72 27 65 -26 c90 -36 126 -21 126 54 0 21 -11 37 -45 64 -45 37
-45 38 -45 102 0 35 1 64 3 64 2 0 50 -16 107 -35 57 -19 114 -35 125 -35 46
0 75 69 45 106 -8 8 -73 56 -147 106 l-133 91 0 101 c0 112 -17 158 -66 176
-35 14 -44 13 -84 -8z"/>
</g>
</svg>
