<?xml version="1.0" standalone="no"?>
<!DOCTYPE svg PUBLIC "-//W3C//DTD SVG 20010904//EN"
 "http://www.w3.org/TR/2001/REC-SVG-20010904/DTD/svg10.dtd">
<svg version="1.0" xmlns="http://www.w3.org/2000/svg"
 width="192.000000pt" height="192.000000pt" viewBox="0 0 192.000000 192.000000"
 preserveAspectRatio="xMidYMid meet">
<metadata>
Created by potrace 1.16, written by Peter Selinger 2001-2019
</metadata>
<g transform="translate(0.000000,192.000000) scale(0.100000,-0.100000)"
fill="#000000" stroke="none">
811 c445 -92 729 -532 635 -987 -62 -301 -295 -546 -601 -630 -91 -26 -329
-26 -420 0 -291 80 -516 305 -596 596 -26 91 -26 329 0 420 120 433 542 692
982 601z"/>
<path d="M816 1346 c-147 -62 -236 -192 -236 -345 0 -167 95 -304 250 -362 30
-11 71 -36 92 -56 l36 -35 44 39 c23 22 63 47 88 56 25 9 67 34 94 54 224 171
184 521 -72 641 -84 39 -213 42 -296 8z m197 -157 c43 -11 101 -59 122 -98 79
-153 -61 -330 -228 -290 -106 25 -176 142 -147 248 21 78 110 149 190 151 14
0 42 -5 63 -11z"/>
<path d="M901 1113 c-50 -26 -74 -64 -74 -117 0 -77 51 -129 128 -129 76 0
128 52 128 128 0 98 -99 162 -182 118z"/>
</g>
</svg>
