<?xml version="1.0" standalone="no"?>
<!DOCTYPE svg PUBLIC "-//W3C//DTD SVG 20010904//EN"
 "http://www.w3.org/TR/2001/REC-SVG-20010904/DTD/svg10.dtd">
<svg version="1.0" xmlns="http://www.w3.org/2000/svg"
 width="192.000000pt" height="192.000000pt" viewBox="0 0 192.000000 192.000000"
 preserveAspectRatio="xMidYMid meet">
<metadata>
Created by potrace 1.16, written by Peter Selinger 2001-2019
</metadata>
<g transform="translate(0.000000,192.000000) scale(0.100000,-0.100000)"
fill="#000000" stroke="none">
811 c445 -92 729 -532 635 -987 -62 -301 -295 -546 -601 -630 -91 -26 -329
-26 -420 0 -291 80 -516 305 -596 596 -26 91 -26 329 0 420 120 433 542 692
982 601z"/>
<path d="M672 1347 c-30 -32 -29 -81 3 -112 22 -23 31 -25 127 -25 l103 0 -3
-107 -3 -108 -62 -1 c-195 -1 -295 -219 -165 -360 101 -110 273 -97 355 28 28
41 28 41 33 265 5 221 5 223 30 248 18 17 40 26 75 31 80 9 93 13 115 36 27
30 26 73 -5 103 l-24 25 -279 0 c-278 0 -279 0 -300 -23z m208 -527 c55 -55
-24 -135 -82 -83 -25 23 -23 68 4 87 30 21 54 20 78 -4z"/>
<path d="M1202 1114 c-12 -8 -22 -26 -22 -39 0 -21 32 -55 52 -55 14 0 48 39
48 55 0 16 -34 55 -48 55 -4 0 -18 -7 -30 -16z"/>
</g>
</svg>
