<?xml version="1.0" standalone="no"?>
<!DOCTYPE svg PUBLIC "-//W3C//DTD SVG 20010904//EN"
 "http://www.w3.org/TR/2001/REC-SVG-20010904/DTD/svg10.dtd">
<svg version="1.0" xmlns="http://www.w3.org/2000/svg"
 width="192.000000pt" height="192.000000pt" viewBox="0 0 192.000000 192.000000"
 preserveAspectRatio="xMidYMid meet">
<metadata>
Created by potrace 1.16, written by Peter Selinger 2001-2019
</metadata>
<g transform="translate(0.000000,192.000000) scale(0.100000,-0.100000)"
fill="#000000" stroke="none">
811 c445 -92 729 -532 635 -987 -62 -301 -295 -546 -601 -630 -91 -26 -329
-26 -420 0 -291 80 -516 305 -596 596 -26 91 -26 329 0 420 120 433 542 692
982 601z"/>
<path d="M822 1360 c-71 -25 -108 -50 -164 -107 -194 -199 -136 -530 115 -652
113 -56 251 -58 365 -6 103 47 208 177 228 281 9 49 -16 84 -61 84 -43 0 -59
-17 -81 -82 -24 -74 -102 -151 -174 -172 -106 -32 -199 -12 -278 59 -69 62
-96 127 -90 220 5 76 21 115 70 171 31 35 114 84 143 84 25 0 55 38 55 69 0
20 -9 36 -26 50 -32 25 -35 25 -102 1z"/>
<path d="M1186 1319 c-38 -30 -49 -64 -36 -105 14 -42 44 -64 88 -64 44 0 68
14 88 51 20 40 11 82 -28 114 -36 31 -76 32 -112 4z"/>
<path d="M886 1165 c-143 -51 -182 -241 -69 -347 164 -156 431 35 332 239 -48
99 -159 145 -263 108z"/>
</g>
</svg>
