<?xml version="1.0" standalone="no"?>
<!DOCTYPE svg PUBLIC "-//W3C//DTD SVG 20010904//EN"
 "http://www.w3.org/TR/2001/REC-SVG-20010904/DTD/svg10.dtd">
<svg version="1.0" xmlns="http://www.w3.org/2000/svg"
 width="192.000000pt" height="192.000000pt" viewBox="0 0 192.000000 192.000000"
 preserveAspectRatio="xMidYMid meet">
<metadata>
Created by potrace 1.16, written by Peter Selinger 2001-2019
</metadata>
<g transform="translate(0.000000,192.000000) scale(0.100000,-0.100000)"
fill="#000000" stroke="none">
811 c445 -92 729 -532 635 -987 -62 -301 -295 -546 -601 -630 -91 -26 -329
-26 -420 0 -291 80 -516 305 -596 596 -26 91 -26 329 0 420 120 433 542 692
982 601z"/>
<path d="M639 1121 c-45 -15 -80 -43 -100 -82 -57 -112 21 -239 146 -239 123
0 202 125 148 237 -30 63 -127 105 -194 84z m86 -87 c18 -7 45 -55 45 -79 0
-26 -55 -75 -84 -75 -14 0 -37 11 -52 23 -69 60 3 164 91 131z"/>
<path d="M907 1113 c-13 -12 -8 -288 5 -301 17 -17 44 -15 62 4 13 12 16 40
16 140 0 69 -5 134 -10 145 -10 19 -59 27 -73 12z"/>
<path d="M1042 1108 c-15 -15 -17 -261 -2 -289 12 -21 50 -25 68 -7 17 17 17
279 0 296 -15 15 -51 15 -66 0z"/>
<path d="M1312 1048 c-19 -19 -16 -153 4 -172 18 -19 28 -20 55 -6 16 9 19 22
19 88 0 47 -5 83 -12 90 -15 15 -51 15 -66 0z"/>
<path d="M1177 1014 c-13 -14 -7 -91 8 -104 23 -19 64 -4 71 27 11 43 -7 78
-42 81 -16 2 -33 0 -37 -4z"/>
</g>
</svg>
