<?xml version="1.0" standalone="no"?>
<!DOCTYPE svg PUBLIC "-//W3C//DTD SVG 20010904//EN"
 "http://www.w3.org/TR/2001/REC-SVG-20010904/DTD/svg10.dtd">
<svg version="1.0" xmlns="http://www.w3.org/2000/svg"
 width="192.000000pt" height="192.000000pt" viewBox="0 0 192.000000 192.000000"
 preserveAspectRatio="xMidYMid meet">
<metadata>
Created by potrace 1.16, written by Peter Selinger 2001-2019
</metadata>
<g transform="translate(0.000000,192.000000) scale(0.100000,-0.100000)"
fill="#000000" stroke="none">
810 c245 -63 441 -223 549 -451 55 -116 75 -212 75 -354 0 -141 -20 -238 -75
-352 -86 -182 -215 -312 -396 -398 -116 -55 -212 -75 -354 -75 -142 0 -238 20
-354 75 -228 108 -388 304 -451 549 -28 110 -28 292 0 402 76 298 303 526 600
603 106 28 298 28 406 1z"/>
<path d="M602 1100 c-65 -15 -102 -77 -102 -167 0 -50 29 -89 75 -102 41 -11
99 0 127 26 60 53 65 195 9 230 -26 16 -73 22 -109 13z m66 -110 c3 -51 -15
-93 -41 -98 -45 -9 -60 47 -32 114 12 30 19 35 42 32 26 -3 28 -7 31 -48z"/>
<path d="M1268 1103 c-86 -13 -142 -178 -82 -244 37 -41 131 -43 176 -2 47 41
65 158 32 208 -13 20 -75 49 -94 43 -3 0 -17 -3 -32 -5z m60 -116 c4 -55 -17
-97 -48 -97 -27 0 -43 35 -35 78 11 58 23 74 53 70 25 -3 27 -7 30 -51z"/>
<path d="M787 1082 c-27 -30 -22 -52 13 -52 l29 0 -7 -52 c-4 -29 -7 -73 -7
-98 0 -45 0 -45 36 -48 l37 -3 7 78 c3 43 9 87 11 99 5 20 64 51 64 33 0 -5
14 -9 30 -9 34 0 35 -5 21 -112 -8 -68 0 -88 38 -88 32 0 34 6 47 133 4 43 11
67 19 67 19 0 65 40 65 56 0 11 -18 14 -86 14 -47 0 -95 -5 -106 -11 -15 -8
-19 -8 -14 0 5 8 -21 11 -87 11 -78 0 -97 -3 -110 -18z"/>
</g>
</svg>
