<?xml version="1.0" standalone="no"?>
<!DOCTYPE svg PUBLIC "-//W3C//DTD SVG 20010904//EN"
 "http://www.w3.org/TR/2001/REC-SVG-20010904/DTD/svg10.dtd">
<svg version="1.0" xmlns="http://www.w3.org/2000/svg"
 width="192.000000pt" height="192.000000pt" viewBox="0 0 192.000000 192.000000"
 preserveAspectRatio="xMidYMid meet">
<metadata>
Created by potrace 1.16, written by Peter Selinger 2001-2019
</metadata>
<g transform="translate(0.000000,192.000000) scale(0.100000,-0.100000)"
fill="#000000" stroke="none">
811 c445 -92 729 -532 635 -987 -62 -301 -295 -546 -601 -630 -91 -26 -329
-26 -420 0 -291 80 -516 305 -596 596 -26 91 -26 329 0 420 120 433 542 692
982 601z"/>
<path d="M835 1357 c-142 -47 -234 -140 -277 -281 -25 -83 -21 -171 12 -259
39 -103 167 -217 271 -242 25 -6 27 -4 43 62 33 130 108 245 208 319 33 24 64
44 69 44 5 0 16 -12 26 -27 17 -26 17 -27 -12 -47 -104 -74 -175 -166 -206
-267 -23 -73 -24 -99 -4 -99 9 0 15 9 15 25 0 96 151 308 199 278 29 -18 23
-41 -19 -79 -48 -43 -86 -105 -106 -169 -17 -57 -11 -57 84 -10 302 151 298
577 -6 727 -58 29 -77 33 -161 35 -60 2 -111 -2 -136 -10z m203 -287 l3 -115
-41 -40 -40 -39 0 141 c0 78 3 149 6 158 5 11 16 15 38 13 l31 -3 3 -115z
m-104 14 c9 -23 7 -244 -1 -244 -5 0 -20 12 -35 25 -27 23 -28 28 -28 123 0
54 3 102 7 105 12 13 51 7 57 -9z m-93 -210 c38 -25 71 -50 75 -55 3 -6 -2
-26 -12 -44 l-18 -34 -38 34 c-21 19 -62 49 -93 66 -54 30 -61 41 -49 74 10
26 56 12 135 -41z m-51 -94 c71 -46 84 -63 76 -105 -4 -19 -9 -35 -11 -35 -3
0 -24 18 -47 41 -23 22 -55 47 -70 55 -29 15 -36 42 -16 62 16 16 14 16 68
-18z"/>
</g>
</svg>
