<?xml version="1.0" standalone="no"?>
<!DOCTYPE svg PUBLIC "-//W3C//DTD SVG 20010904//EN"
 "http://www.w3.org/TR/2001/REC-SVG-20010904/DTD/svg10.dtd">
<svg version="1.0" xmlns="http://www.w3.org/2000/svg"
 width="192.000000pt" height="192.000000pt" viewBox="0 0 192.000000 192.000000"
 preserveAspectRatio="xMidYMid meet">
<metadata>
Created by potrace 1.16, written by Peter Selinger 2001-2019
</metadata>
<g transform="translate(0.000000,192.000000) scale(0.100000,-0.100000)"
fill="#000000" stroke="none">
811 c445 -92 729 -532 635 -987 -62 -301 -295 -546 -601 -630 -91 -26 -329
-26 -420 0 -291 80 -516 305 -596 596 -26 91 -26 329 0 420 120 433 542 692
982 601z"/>
<path d="M823 1351 c-105 -39 -190 -116 -241 -221 -24 -50 -27 -65 -27 -165 0
-104 2 -114 32 -175 18 -36 54 -87 80 -114 45 -45 147 -107 175 -106 7 1 -3 9
-23 20 -84 44 -139 139 -138 240 1 119 50 200 153 250 61 30 72 32 140 28 113
-7 191 -61 238 -163 25 -57 30 -148 10 -207 -17 -49 -64 -106 -115 -142 -31
-20 -35 -26 -17 -21 47 13 132 70 171 114 182 205 118 521 -130 644 -57 28
-76 32 -160 34 -75 3 -107 -1 -148 -16z"/>
<path d="M880 867 c-50 -26 -90 -90 -90 -144 0 -118 120 -201 229 -157 65 26
101 81 101 154 0 71 -27 116 -90 148 -56 28 -96 28 -150 -1z"/>
</g>
</svg>
