<?xml version="1.0" standalone="no"?>
<!DOCTYPE svg PUBLIC "-//W3C//DTD SVG 20010904//EN"
 "http://www.w3.org/TR/2001/REC-SVG-20010904/DTD/svg10.dtd">
<svg version="1.0" xmlns="http://www.w3.org/2000/svg"
 width="192.000000pt" height="192.000000pt" viewBox="0 0 192.000000 192.000000"
 preserveAspectRatio="xMidYMid meet">
<metadata>
Created by potrace 1.16, written by Peter Selinger 2001-2019
</metadata>
<g transform="translate(0.000000,192.000000) scale(0.100000,-0.100000)"
fill="#000000" stroke="none">
811 c445 -92 729 -532 635 -987 -62 -301 -295 -546 -601 -630 -91 -26 -329
-26 -420 0 -291 80 -516 305 -596 596 -26 91 -26 329 0 420 120 433 542 692
982 601z"/>
<path d="M609 1311 c-29 -29 -29 -30 -29 -150 0 -112 2 -122 24 -148 24 -28
25 -28 150 -28 117 0 127 1 148 23 22 21 23 31 23 153 l0 131 -28 24 c-26 22
-36 24 -143 24 -114 0 -116 0 -145 -29z"/>
<path d="M1008 1310 l-30 -30 4 -125 c4 -170 4 -170 173 -170 169 0 169 0 173
170 l4 125 -30 30 c-30 30 -31 30 -147 30 -116 0 -117 0 -147 -30z"/>
<path d="M630 938 c-41 -22 -50 -54 -50 -175 0 -104 2 -114 24 -140 24 -28 25
-28 150 -28 117 0 127 1 148 23 22 21 23 31 23 152 0 121 -1 131 -23 152 -20
21 -33 23 -135 26 -77 2 -120 -1 -137 -10z"/>
<path d="M1030 938 c-41 -22 -50 -54 -50 -175 0 -104 2 -114 24 -140 24 -28
25 -28 150 -28 117 0 127 1 148 23 22 21 23 31 23 152 0 121 -1 131 -23 152
-20 21 -33 23 -135 26 -77 2 -120 -1 -137 -10z m90 -168 c0 -103 -1 -110 -20
-110 -19 0 -20 7 -20 103 0 105 3 117 27 117 10 0 13 -25 13 -110z m100 67 c0
-24 -5 -48 -12 -55 -9 -9 -9 -15 0 -24 13 -13 17 -98 4 -98 -15 0 -32 24 -32
44 0 11 -10 30 -22 43 l-21 23 21 23 c12 13 22 32 22 43 0 20 17 44 32 44 4 0
8 -19 8 -43z"/>
</g>
</svg>
