<?xml version="1.0" standalone="no"?>
<!DOCTYPE svg PUBLIC "-//W3C//DTD SVG 20010904//EN"
 "http://www.w3.org/TR/2001/REC-SVG-20010904/DTD/svg10.dtd">
<svg version="1.0" xmlns="http://www.w3.org/2000/svg"
 width="192.000000pt" height="192.000000pt" viewBox="0 0 192.000000 192.000000"
 preserveAspectRatio="xMidYMid meet">
<metadata>
Created by potrace 1.16, written by Peter Selinger 2001-2019
</metadata>
<g transform="translate(0.000000,192.000000) scale(0.100000,-0.100000)"
fill="#000000" stroke="none">
811 c445 -92 729 -532 635 -987 -62 -301 -295 -546 -601 -630 -91 -26 -329
-26 -420 0 -291 80 -516 305 -596 596 -26 91 -26 329 0 420 120 433 542 692
982 601z"/>
<path d="M617 1293 c-15 -14 -5 -39 43 -114 28 -43 50 -83 50 -88 0 -6 -22
-11 -50 -11 -41 0 -50 -3 -50 -17 0 -27 314 -518 330 -518 16 0 342 503 337
520 -2 6 -27 11 -55 13 -29 2 -52 6 -52 11 0 4 25 47 55 95 44 70 53 91 44
102 -9 11 -70 14 -329 14 -174 0 -320 -3 -323 -7z m443 -128 c0 -3 -11 -23
-25 -45 l-25 -40 -69 0 -68 0 -27 40 c-14 22 -26 42 -26 45 0 3 54 5 120 5 66
0 120 -2 120 -5z m-3 -217 c-2 -7 -29 -53 -60 -101 l-55 -88 -36 55 c-70 110
-86 136 -86 141 0 3 54 5 121 5 93 0 120 -3 116 -12z"/>
</g>
</svg>
