<?xml version="1.0" standalone="no"?>
<!DOCTYPE svg PUBLIC "-//W3C//DTD SVG 20010904//EN"
 "http://www.w3.org/TR/2001/REC-SVG-20010904/DTD/svg10.dtd">
<svg version="1.0" xmlns="http://www.w3.org/2000/svg"
 width="192.000000pt" height="192.000000pt" viewBox="0 0 192.000000 192.000000"
 preserveAspectRatio="xMidYMid meet">
<metadata>
Created by potrace 1.16, written by Peter Selinger 2001-2019
</metadata>
<g transform="translate(0.000000,192.000000) scale(0.100000,-0.100000)"
fill="#000000" stroke="none">
811 c445 -92 729 -532 635 -987 -62 -301 -295 -546 -601 -630 -91 -26 -329
-26 -420 0 -291 80 -516 305 -596 596 -26 91 -26 329 0 420 120 433 542 692
982 601z"/>
<path d="M870 1369 c-113 -22 -234 -116 -284 -223 -33 -70 -48 -170 -35 -244
20 -128 117 -254 236 -310 52 -24 69 -27 168 -27 99 0 115 3 165 27 110 54
182 135 220 249 18 53 21 79 17 149 -6 108 -37 180 -109 256 -100 106 -237
151 -378 123z m186 -215 c49 -25 99 -98 108 -156 15 -98 -50 -202 -147 -234
-197 -65 -360 176 -227 337 44 55 103 81 171 77 30 -2 73 -13 95 -24z"/>
</g>
</svg>
