<?xml version="1.0" standalone="no"?>
<!DOCTYPE svg PUBLIC "-//W3C//DTD SVG 20010904//EN"
 "http://www.w3.org/TR/2001/REC-SVG-20010904/DTD/svg10.dtd">
<svg version="1.0" xmlns="http://www.w3.org/2000/svg"
 width="192.000000pt" height="192.000000pt" viewBox="0 0 192.000000 192.000000"
 preserveAspectRatio="xMidYMid meet">
<metadata>
Created by potrace 1.16, written by Peter Selinger 2001-2019
</metadata>
<g transform="translate(0.000000,192.000000) scale(0.100000,-0.100000)"
fill="#000000" stroke="none">
811 c445 -92 729 -532 635 -987 -62 -301 -295 -546 -601 -630 -91 -26 -329
-26 -420 0 -291 80 -516 305 -596 596 -26 91 -26 329 0 420 120 433 542 692
982 601z"/>
<path d="M799 1241 c-151 -154 -180 -204 -187 -320 -3 -61 0 -87 18 -134 32
-84 86 -147 161 -187 55 -29 76 -35 149 -38 116 -5 183 20 261 97 71 71 101
144 101 248 0 117 -34 178 -189 335 -107 108 -132 128 -158 128 -25 0 -49 -19
-156 -129z m222 -163 c81 -81 99 -112 99 -173 0 -66 -29 -112 -90 -142 -54
-28 -92 -29 -147 -3 -67 30 -103 107 -89 186 5 25 27 56 78 110 39 41 77 74
84 74 7 0 37 -24 65 -52z"/>
</g>
</svg>
