<?xml version="1.0" standalone="no"?>
<!DOCTYPE svg PUBLIC "-//W3C//DTD SVG 20010904//EN"
 "http://www.w3.org/TR/2001/REC-SVG-20010904/DTD/svg10.dtd">
<svg version="1.0" xmlns="http://www.w3.org/2000/svg"
 width="192.000000pt" height="192.000000pt" viewBox="0 0 192.000000 192.000000"
 preserveAspectRatio="xMidYMid meet">
<metadata>
Created by potrace 1.16, written by Peter Selinger 2001-2019
</metadata>
<g transform="translate(0.000000,192.000000) scale(0.100000,-0.100000)"
fill="#000000" stroke="none">
811 c445 -92 729 -532 635 -987 -62 -301 -295 -546 -601 -630 -91 -26 -329
-26 -420 0 -291 80 -516 305 -596 596 -26 91 -26 329 0 420 120 433 542 692
982 601z"/>
<path d="M686 1369 c-33 -9 -97 -68 -127 -116 -19 -30 -20 -47 -17 -242 3
-193 5 -212 24 -238 25 -34 316 -210 362 -219 45 -9 85 8 257 110 98 58 149
95 159 114 11 21 15 82 18 245 l3 217 -61 61 c-51 51 -69 63 -110 70 -27 5
-73 7 -103 3 -44 -6 -62 -14 -95 -44 l-40 -38 -48 40 c-45 38 -51 41 -120 43
-40 2 -86 -1 -102 -6z m182 -122 c39 -40 42 -46 42 -100 0 -51 -4 -61 -36 -97
-35 -39 -38 -40 -102 -40 -63 0 -68 2 -104 37 -36 35 -38 41 -38 97 0 57 2 62
42 103 40 40 45 43 98 43 53 0 58 -3 98 -43z m370 0 c39 -40 42 -47 42 -98 0
-51 -3 -57 -43 -97 -41 -40 -46 -42 -102 -42 -55 0 -62 3 -97 37 -36 35 -38
41 -38 97 0 57 2 62 42 103 40 40 45 43 98 43 53 0 58 -3 98 -43z m-228 -301
c0 -5 -14 -25 -32 -43 l-32 -33 -33 32 -33 32 37 38 37 38 28 -27 c15 -15 28
-31 28 -37z m-279 -26 c45 0 50 -3 110 -65 66 -69 86 -80 125 -71 27 7 134
107 134 125 0 7 23 11 64 11 49 0 69 5 90 21 l26 20 0 -63 c0 -36 -5 -71 -12
-80 -20 -25 -290 -178 -315 -178 -24 0 -290 153 -310 178 -8 9 -13 44 -13 80
l0 63 26 -20 c19 -15 41 -21 75 -21z"/>
<path d="M730 1217 c0 -7 5 -18 12 -25 18 -18 -9 -43 -38 -36 -19 5 -24 2 -24
-14 0 -34 11 -52 42 -68 83 -43 160 65 93 131 -26 27 -85 35 -85 12z"/>
<path d="M1102 1214 c-35 -24 -44 -59 -27 -100 24 -57 83 -67 133 -21 70 65
-27 176 -106 121z"/>
</g>
</svg>
