<?xml version="1.0" standalone="no"?>
<!DOCTYPE svg PUBLIC "-//W3C//DTD SVG 20010904//EN"
 "http://www.w3.org/TR/2001/REC-SVG-20010904/DTD/svg10.dtd">
<svg version="1.0" xmlns="http://www.w3.org/2000/svg"
 width="192.000000pt" height="192.000000pt" viewBox="0 0 192.000000 192.000000"
 preserveAspectRatio="xMidYMid meet">
<metadata>
Created by potrace 1.16, written by Peter Selinger 2001-2019
</metadata>
<g transform="translate(0.000000,192.000000) scale(0.100000,-0.100000)"
fill="#000000" stroke="none">
811 c445 -92 729 -532 635 -987 -62 -301 -295 -546 -601 -630 -91 -26 -329
-26 -420 0 -291 80 -516 305 -596 596 -26 91 -26 329 0 420 120 433 542 692
982 601z"/>
<path d="M675 1368 c-32 -17 -105 -90 -121 -120 -11 -21 -14 -74 -14 -231 0
-267 -15 -244 250 -396 166 -96 164 -96 376 30 213 126 206 112 202 386 l-3
201 -31 38 c-62 77 -98 98 -174 102 -91 5 -113 -1 -164 -48 l-43 -40 -29 31
c-16 18 -43 38 -61 45 -38 17 -160 18 -188 2z m193 -121 c39 -40 42 -47 42
-98 0 -51 -3 -57 -43 -97 -41 -40 -46 -42 -104 -42 -58 0 -62 2 -97 40 -33 36
-36 45 -36 99 0 56 2 60 45 100 41 37 49 41 98 41 49 0 56 -3 95 -43z m368 -1
c41 -41 44 -47 44 -98 0 -50 -3 -57 -43 -96 -40 -39 -46 -42 -100 -42 -51 0
-61 4 -97 36 -39 35 -40 39 -40 99 0 61 1 63 45 104 40 37 50 41 96 41 48 0
55 -3 95 -44z m-249 -268 c29 -27 29 -36 -4 -70 -33 -35 -40 -35 -75 -1 l-28
27 32 33 c38 39 44 40 75 11z m-251 -58 c30 0 54 -4 54 -9 0 -16 52 -72 94
-102 58 -43 87 -39 151 22 30 28 57 60 60 70 5 16 16 19 69 19 49 0 69 5 90
21 l26 20 0 -65 c0 -43 -5 -69 -14 -79 -26 -25 -292 -177 -311 -177 -21 0
-294 156 -312 178 -8 9 -13 43 -13 80 l0 63 26 -20 c20 -15 41 -21 80 -21z"/>
<path d="M735 1200 c9 -40 -1 -53 -27 -39 -33 18 -45 -4 -25 -46 19 -41 54
-60 92 -51 95 24 84 166 -14 166 -31 0 -32 -1 -26 -30z"/>
<path d="M1092 1210 c-46 -43 -37 -107 19 -139 52 -29 119 13 119 74 0 72 -87
113 -138 65z"/>
</g>
</svg>
