<?xml version="1.0" standalone="no"?>
<!DOCTYPE svg PUBLIC "-//W3C//DTD SVG 20010904//EN"
 "http://www.w3.org/TR/2001/REC-SVG-20010904/DTD/svg10.dtd">
<svg version="1.0" xmlns="http://www.w3.org/2000/svg"
 width="192.000000pt" height="192.000000pt" viewBox="0 0 192.000000 192.000000"
 preserveAspectRatio="xMidYMid meet">
<metadata>
Created by potrace 1.16, written by Peter Selinger 2001-2019
</metadata>
<g transform="translate(0.000000,192.000000) scale(0.100000,-0.100000)"
fill="#000000" stroke="none">
811 c445 -92 729 -532 635 -987 -62 -301 -295 -546 -601 -630 -91 -26 -329
-26 -420 0 -291 80 -516 305 -596 596 -26 91 -26 329 0 420 120 433 542 692
982 601z"/>
<path d="M562 1278 c-16 -16 -15 -45 0 -55 7 -4 98 -28 202 -54 l190 -46 200
51 c180 46 201 53 204 73 7 45 -23 44 -218 -5 l-185 -46 -185 48 c-102 26
-187 47 -190 46 -4 0 -11 -5 -18 -12z"/>
<path d="M572 1147 c-7 -8 -9 -29 -5 -50 4 -26 -1 -52 -17 -89 -76 -177 84
-347 265 -283 36 13 41 13 49 -3 17 -31 74 -82 91 -82 17 0 59 37 87 79 17 23
17 23 58 7 58 -23 108 -20 169 10 72 36 104 86 109 170 3 50 0 72 -18 108 -15
32 -20 55 -15 76 10 44 -2 70 -31 70 -13 0 -99 -19 -191 -42 l-166 -41 -176
41 c-198 47 -195 47 -209 29z m228 -122 c38 -19 60 -63 60 -116 0 -33 -6 -47
-33 -74 -87 -87 -226 -26 -214 95 10 88 105 137 187 95z m440 0 c59 -30 80
-127 39 -179 -59 -75 -161 -72 -209 7 -37 59 -17 141 42 173 31 18 93 17 128
-1z"/>
<path d="M690 960 c-27 -27 -25 -56 5 -85 27 -28 37 -30 68 -14 29 16 37 28
37 60 0 54 -70 79 -110 39z"/>
<path d="M1126 958 c-9 -12 -16 -32 -16 -44 0 -23 42 -64 65 -64 23 0 65 41
65 64 0 38 -28 66 -65 66 -24 0 -39 -7 -49 -22z"/>
</g>
</svg>
