<?xml version="1.0" standalone="no"?>
<!DOCTYPE svg PUBLIC "-//W3C//DTD SVG 20010904//EN"
 "http://www.w3.org/TR/2001/REC-SVG-20010904/DTD/svg10.dtd">
<svg version="1.0" xmlns="http://www.w3.org/2000/svg"
 width="192.000000pt" height="192.000000pt" viewBox="0 0 192.000000 192.000000"
 preserveAspectRatio="xMidYMid meet">
<metadata>
Created by potrace 1.16, written by Peter Selinger 2001-2019
</metadata>
<g transform="translate(0.000000,192.000000) scale(0.100000,-0.100000)"
fill="#000000" stroke="none">
811 c445 -92 729 -532 635 -987 -62 -301 -295 -546 -601 -630 -91 -26 -329
-26 -420 0 -291 80 -516 305 -596 596 -26 91 -26 329 0 420 120 433 542 692
982 601z"/>
<path d="M724 1361 c-47 -22 -80 -59 -95 -110 -7 -23 -9 -134 -7 -307 l3 -271
27 -40 c46 -70 62 -73 346 -73 261 0 271 2 250 43 -8 15 -28 17 -207 17 -174
0 -200 2 -205 16 -15 39 8 44 206 44 l190 0 29 29 29 29 0 286 0 286 -29 32
-29 33 -234 3 c-210 2 -237 0 -274 -17z m504 -93 l3 -38 -55 0 -56 0 0 33 c0
44 6 48 60 45 44 -3 45 -4 48 -40z m2 -70 c0 -4 -10 -13 -22 -19 l-22 -12 22
-8 c40 -15 24 -29 -33 -29 l-55 0 0 33 c0 19 3 37 7 41 9 8 103 3 103 -6z
m-16 -91 c12 -9 17 -23 14 -42 -3 -29 -5 -30 -53 -30 l-50 0 -3 37 c-2 28 1
37 15 41 34 9 59 7 77 -6z m-74 -112 c0 -30 20 -33 27 -5 3 11 9 20 14 20 5 0
9 -9 9 -20 0 -13 7 -20 20 -20 11 0 20 -4 20 -10 0 -5 -25 -10 -55 -10 l-55 0
0 35 c0 19 5 35 10 35 6 0 10 -11 10 -25z m30 -77 c8 0 25 3 38 7 13 5 22 3
22 -3 0 -6 -10 -14 -22 -18 l-21 -6 24 -19 c30 -22 20 -34 -15 -18 -20 9 -32
9 -51 1 -28 -13 -34 1 -7 18 16 10 16 10 0 20 -10 6 -18 16 -18 22 0 6 7 7 18
3 9 -5 24 -8 32 -7z m58 -117 c4 -38 -9 -51 -50 -51 -45 0 -58 10 -58 44 0 43
6 47 60 44 43 -3 45 -4 48 -37z"/>
<path d="M1140 1271 c0 -17 6 -21 36 -21 28 0 35 3 32 18 -2 11 -14 18 -36 20
-27 3 -32 0 -32 -17z"/>
<path d="M1140 1176 c0 -10 9 -16 21 -16 24 0 21 23 -4 28 -10 2 -17 -3 -17
-12z"/>
<path d="M1136 1082 c-10 -17 12 -33 40 -30 18 2 30 10 32 21 3 13 -4 17 -32
17 -19 0 -37 -4 -40 -8z"/>
<path d="M1142 807 c-16 -19 -5 -27 35 -27 27 0 34 4 31 18 -4 21 -50 28 -66
9z"/>
</g>
</svg>
