<?xml version="1.0" standalone="no"?>
<!DOCTYPE svg PUBLIC "-//W3C//DTD SVG 20010904//EN"
 "http://www.w3.org/TR/2001/REC-SVG-20010904/DTD/svg10.dtd">
<svg version="1.0" xmlns="http://www.w3.org/2000/svg"
 width="192.000000pt" height="192.000000pt" viewBox="0 0 192.000000 192.000000"
 preserveAspectRatio="xMidYMid meet">
<metadata>
Created by potrace 1.16, written by Peter Selinger 2001-2019
</metadata>
<g transform="translate(0.000000,192.000000) scale(0.100000,-0.100000)"
fill="#000000" stroke="none">
811 c445 -92 729 -532 635 -987 -62 -301 -295 -546 -601 -630 -91 -26 -329
-26 -420 0 -291 80 -516 305 -596 596 -26 91 -26 329 0 420 120 433 542 692
982 601z"/>
<path d="M810 1100 c0 -6 19 -47 43 -93 26 -52 44 -100 47 -132 l5 -50 50 0
50 0 5 55 c4 37 20 82 48 137 23 46 42 85 42 88 0 3 -22 5 -50 5 -49 0 -50 0
-74 -47 l-24 -48 -23 48 c-23 46 -24 47 -71 47 -26 0 -48 -5 -48 -10z"/>
<path d="M606 1081 c-49 -32 -69 -75 -64 -132 8 -81 74 -135 154 -126 57 6 99
38 119 91 27 70 -1 138 -72 175 -34 17 -104 13 -137 -8z m113 -85 c38 -46 -25
-111 -69 -71 -24 22 -25 42 -3 67 19 22 56 24 72 4z"/>
<path d="M1170 1094 c-29 -12 -70 -58 -81 -91 -30 -91 40 -183 138 -183 100 0
173 112 129 198 -27 52 -62 75 -118 78 -29 2 -60 1 -68 -2z m95 -108 c13 -19
14 -29 6 -45 -25 -45 -91 -33 -91 17 0 54 56 72 85 28z"/>
</g>
</svg>
