<?xml version="1.0" standalone="no"?>
<!DOCTYPE svg PUBLIC "-//W3C//DTD SVG 20010904//EN"
 "http://www.w3.org/TR/2001/REC-SVG-20010904/DTD/svg10.dtd">
<svg version="1.0" xmlns="http://www.w3.org/2000/svg"
 width="192.000000pt" height="192.000000pt" viewBox="0 0 192.000000 192.000000"
 preserveAspectRatio="xMidYMid meet">
<metadata>
Created by potrace 1.16, written by Peter Selinger 2001-2019
</metadata>
<g transform="translate(0.000000,192.000000) scale(0.100000,-0.100000)"
fill="#000000" stroke="none">
811 c445 -92 729 -532 635 -987 -62 -301 -295 -546 -601 -630 -91 -26 -329
-26 -420 0 -291 80 -516 305 -596 596 -26 91 -26 329 0 420 120 433 542 692
982 601z"/>
<path d="M695 1321 c-77 -35 -115 -102 -115 -201 l0 -60 86 66 c93 72 132 121
141 178 l6 36 -39 0 c-22 0 -57 -9 -79 -19z"/>
<path d="M818 1282 c-20 -63 -39 -88 -113 -146 -28 -22 -67 -56 -87 -75 -37
-34 -38 -38 -38 -101 l1 -65 16 30 c8 17 21 37 28 45 8 8 17 28 20 43 6 20 15
30 36 34 16 3 59 31 95 62 71 59 118 130 129 194 l7 37 -38 0 c-39 0 -39 0
-56 -58z"/>
<path d="M921 1294 c-19 -76 -46 -118 -117 -183 -39 -35 -60 -61 -51 -61 21 0
37 -31 37 -71 l0 -32 25 23 c22 20 23 25 10 32 -8 5 -15 18 -15 28 0 17 7 20
44 20 38 0 48 5 75 35 49 56 81 128 96 218 l6 37 -49 0 -50 0 -11 -46z"/>
<path d="M1040 1305 c0 -49 -33 -139 -75 -202 -19 -29 -35 -64 -35 -79 0 -14
-12 -41 -26 -60 l-26 -34 35 0 c34 0 34 0 39 51 6 58 17 69 73 69 38 0 43 3
72 53 34 55 63 150 63 204 l0 33 -60 0 -60 0 0 -35z"/>
<path d="M1172 1261 c-13 -73 -40 -145 -71 -190 -13 -18 -17 -32 -10 -42 5 -7
9 -38 9 -67 0 -33 4 -51 10 -47 6 3 10 36 10 71 l0 66 33 -2 c59 -4 66 0 86
39 23 44 47 161 38 185 -7 17 -64 56 -83 56 -6 0 -16 -31 -22 -69z"/>
<path d="M1297 1226 c-4 -10 -7 -27 -7 -39 0 -12 -11 -47 -24 -78 -20 -49 -21
-59 -9 -75 9 -13 13 -41 11 -84 -3 -60 -5 -65 -27 -68 -31 -5 -41 12 -41 71 0
26 -4 47 -10 47 -6 0 -10 -27 -10 -60 0 -56 -2 -60 -23 -60 -13 0 -28 5 -34
11 -7 7 -29 -11 -73 -63 -63 -72 -102 -143 -115 -206 l-7 -32 70 0 71 0 31 47
c17 25 65 78 106 116 109 101 118 123 122 287 3 100 0 145 -10 170 -12 28 -15
31 -21 16z"/>
<path d="M710 965 c0 -19 5 -35 10 -35 6 0 10 16 10 35 0 19 -4 35 -10 35 -5
0 -10 -16 -10 -35z"/>
<path d="M1020 965 c0 -19 5 -35 10 -35 6 0 10 16 10 35 0 19 -4 35 -10 35 -5
0 -10 -16 -10 -35z"/>
<path d="M604 896 c-22 -49 -26 -67 -21 -117 3 -34 14 -73 25 -91 l20 -31 11
39 c6 21 11 44 11 50 0 5 16 36 35 68 19 32 35 60 35 61 0 1 -14 5 -30 9 -22
4 -35 15 -45 38 l-14 33 -27 -59z"/>
<path d="M757 880 c-53 -55 -92 -131 -103 -197 -6 -36 -3 -43 19 -57 13 -9 38
-21 55 -25 l30 -9 11 57 c14 71 50 147 90 194 l32 36 -38 3 c-29 2 -38 8 -43
26 -5 21 -8 19 -53 -28z"/>
<path d="M896 857 c-56 -59 -102 -150 -111 -219 l-7 -48 65 0 c67 0 77 6 77
49 0 33 61 141 111 195 l49 54 -40 -5 c-27 -4 -47 -1 -64 11 -14 9 -27 16 -28
16 -2 -1 -25 -24 -52 -53z"/>
<path d="M1307 831 c-10 -17 -52 -61 -93 -98 -73 -66 -122 -128 -111 -140 13
-12 97 10 139 36 61 39 90 99 86 176 l-3 56 -18 -30z"/>
</g>
</svg>
