<?xml version="1.0" standalone="no"?>
<!DOCTYPE svg PUBLIC "-//W3C//DTD SVG 20010904//EN"
 "http://www.w3.org/TR/2001/REC-SVG-20010904/DTD/svg10.dtd">
<svg version="1.0" xmlns="http://www.w3.org/2000/svg"
 width="192.000000pt" height="192.000000pt" viewBox="0 0 192.000000 192.000000"
 preserveAspectRatio="xMidYMid meet">
<metadata>
Created by potrace 1.16, written by Peter Selinger 2001-2019
</metadata>
<g transform="translate(0.000000,192.000000) scale(0.100000,-0.100000)"
fill="#000000" stroke="none">
811 c445 -92 729 -532 635 -987 -62 -301 -295 -546 -601 -630 -91 -26 -329
-26 -420 0 -291 80 -516 305 -596 596 -26 91 -26 329 0 420 120 433 542 692
982 601z"/>
<path d="M980 1228 c-98 -118 -105 -124 -155 -136 -113 -29 -166 -111 -225
-353 -30 -124 -31 -153 -5 -162 17 -7 256 54 326 84 102 42 148 93 164 183 7
33 24 51 131 143 68 58 124 113 124 122 0 21 -220 241 -242 241 -9 0 -62 -55
-118 -122z m85 -158 l60 -61 -40 -34 -40 -34 -52 52 c-29 28 -53 55 -53 60 0
10 52 75 60 76 3 1 32 -26 65 -59z"/>
</g>
</svg>
