<?xml version="1.0" standalone="no"?>
<!DOCTYPE svg PUBLIC "-//W3C//DTD SVG 20010904//EN"
 "http://www.w3.org/TR/2001/REC-SVG-20010904/DTD/svg10.dtd">
<svg version="1.0" xmlns="http://www.w3.org/2000/svg"
 width="192.000000pt" height="192.000000pt" viewBox="0 0 192.000000 192.000000"
 preserveAspectRatio="xMidYMid meet">
<metadata>
Created by potrace 1.16, written by Peter Selinger 2001-2019
</metadata>
<g transform="translate(0.000000,192.000000) scale(0.100000,-0.100000)"
fill="#000000" stroke="none">
811 c445 -92 729 -532 635 -987 -62 -301 -295 -546 -601 -630 -91 -26 -329
-26 -420 0 -291 80 -516 305 -596 596 -26 91 -26 329 0 420 120 433 542 692
982 601z"/>
<path d="M726 1415 c-76 -27 -126 -81 -147 -158 -6 -25 -9 -141 -7 -316 l3
-276 28 -48 c15 -26 47 -60 69 -75 l41 -27 228 -3 c256 -3 274 0 337 72 50 58
54 83 50 407 l-3 296 -27 41 c-15 22 -49 54 -75 69 -48 28 -48 28 -253 30
-158 2 -214 0 -244 -12z m431 -76 c36 -13 83 -58 83 -79 0 -12 -34 -30 -115
-63 -63 -26 -123 -47 -133 -47 -10 0 -58 27 -106 61 -96 67 -134 78 -189 55
l-37 -15 16 30 c29 57 76 69 276 69 101 0 189 -5 205 -11z m-302 -194 c120
-80 134 -81 282 -21 l108 45 3 -111 c1 -61 1 -113 -2 -115 -2 -3 -68 10 -146
27 l-142 32 -72 -26 c-86 -31 -95 -32 -174 -5 l-62 21 0 83 0 84 43 25 c23 14
47 26 53 26 6 0 55 -29 109 -65z m270 -254 l120 -28 3 -41 3 -42 -300 0 -301
0 0 65 c0 36 3 65 8 65 4 0 29 -7 56 -15 66 -20 123 -18 171 4 55 26 100 25
240 -8z m-135 -221 c8 -14 8 -26 0 -40 -19 -35 -80 -20 -80 20 0 40 61 55 80
20z"/>
</g>
</svg>
