<?xml version="1.0" standalone="no"?>
<!DOCTYPE svg PUBLIC "-//W3C//DTD SVG 20010904//EN"
 "http://www.w3.org/TR/2001/REC-SVG-20010904/DTD/svg10.dtd">
<svg version="1.0" xmlns="http://www.w3.org/2000/svg"
 width="192.000000pt" height="192.000000pt" viewBox="0 0 192.000000 192.000000"
 preserveAspectRatio="xMidYMid meet">
<metadata>
Created by potrace 1.16, written by Peter Selinger 2001-2019
</metadata>
<g transform="translate(0.000000,192.000000) scale(0.100000,-0.100000)"
fill="#000000" stroke="none">
811 c445 -92 729 -532 635 -987 -62 -301 -295 -546 -601 -630 -91 -26 -329
-26 -420 0 -291 80 -516 305 -596 596 -26 91 -26 329 0 420 120 433 542 692
982 601z"/>
<path d="M660 1355 c-13 -16 -6 -47 15 -65 13 -11 10 -18 -21 -53 -20 -22 -50
-69 -67 -106 -28 -58 -32 -76 -32 -156 0 -61 6 -107 18 -144 17 -51 17 -55 0
-103 -25 -70 -14 -83 71 -84 75 -2 101 -16 71 -38 -12 -8 -16 -19 -11 -31 5
-15 13 -17 54 -10 26 4 61 7 77 5 17 -2 75 -4 130 -4 89 -1 107 2 158 26 80
38 161 117 200 197 30 62 32 72 32 176 0 105 -2 114 -33 178 -58 118 -185 216
-285 220 l-42 2 -3 -178 c-4 -251 7 -267 188 -267 l100 0 -6 -27 c-14 -56 -50
-119 -92 -161 -100 -100 -242 -125 -366 -63 -79 39 -137 102 -167 180 -30 79
-24 194 14 268 30 58 82 115 127 138 31 16 42 55 16 55 -8 0 -40 14 -71 30
-67 35 -60 34 -75 15z"/>
<path d="M844 1216 c-46 -20 -112 -84 -136 -130 -11 -22 -23 -68 -26 -102 -9
-112 41 -205 140 -260 46 -25 63 -29 128 -29 83 1 160 28 200 70 36 38 23 56
-85 113 -55 30 -103 59 -107 65 -4 7 -8 68 -8 138 0 84 -4 129 -12 137 -16 16
-55 15 -94 -2z m21 -171 c30 -29 31 -45 4 -79 -25 -32 -55 -33 -86 -4 -29 27
-29 55 -1 85 28 30 53 29 83 -2z"/>
</g>
</svg>
