<?xml version="1.0" standalone="no"?>
<!DOCTYPE svg PUBLIC "-//W3C//DTD SVG 20010904//EN"
 "http://www.w3.org/TR/2001/REC-SVG-20010904/DTD/svg10.dtd">
<svg version="1.0" xmlns="http://www.w3.org/2000/svg"
 width="192.000000pt" height="192.000000pt" viewBox="0 0 192.000000 192.000000"
 preserveAspectRatio="xMidYMid meet">
<metadata>
Created by potrace 1.16, written by Peter Selinger 2001-2019
</metadata>
<g transform="translate(0.000000,192.000000) scale(0.100000,-0.100000)"
fill="#000000" stroke="none">
811 c445 -92 729 -532 635 -987 -62 -301 -295 -546 -601 -630 -91 -26 -329
-26 -420 0 -291 80 -516 305 -596 596 -26 91 -26 329 0 420 120 433 542 692
982 601z"/>
<path d="M695 1321 c-49 -22 -91 -69 -106 -119 -7 -24 -9 -116 -7 -259 l3
-221 30 -43 c56 -79 77 -84 340 -84 263 0 284 5 340 84 l30 43 3 221 c4 240
-1 275 -45 328 -53 62 -83 69 -328 69 -192 0 -225 -3 -260 -19z m345 -181 c40
-21 50 -131 15 -160 -12 -10 -11 -14 6 -31 19 -19 25 -71 13 -117 -9 -32 -54
-52 -119 -52 -75 0 -112 20 -121 66 -8 43 3 57 42 52 21 -2 30 -9 32 -25 4
-25 38 -39 71 -28 16 5 21 15 21 45 0 41 -11 50 -61 50 -27 0 -30 3 -27 28 3
23 8 28 43 32 39 5 40 6 40 45 l0 40 -40 0 c-34 0 -40 -3 -43 -22 -3 -19 -10
-23 -37 -23 -19 0 -37 5 -40 10 -10 15 14 78 33 90 22 12 148 13 172 0z"/>
</g>
</svg>
