<?xml version="1.0" standalone="no"?>
<!DOCTYPE svg PUBLIC "-//W3C//DTD SVG 20010904//EN"
 "http://www.w3.org/TR/2001/REC-SVG-20010904/DTD/svg10.dtd">
<svg version="1.0" xmlns="http://www.w3.org/2000/svg"
 width="192.000000pt" height="192.000000pt" viewBox="0 0 192.000000 192.000000"
 preserveAspectRatio="xMidYMid meet">
<metadata>
Created by potrace 1.16, written by Peter Selinger 2001-2019
</metadata>
<g transform="translate(0.000000,192.000000) scale(0.100000,-0.100000)"
fill="#000000" stroke="none">
811 c445 -92 729 -532 635 -987 -62 -301 -295 -546 -601 -630 -91 -26 -329
-26 -420 0 -291 80 -516 305 -596 596 -26 91 -26 329 0 420 120 433 542 692
982 601z"/>
<path d="M689 1351 c-17 -17 -29 -40 -29 -55 l0 -26 295 0 295 0 0 26 c0 15
-12 38 -29 55 l-29 29 -237 0 -237 0 -29 -29z"/>
<path d="M566 1204 c-23 -23 -20 -61 13 -139 l30 -70 348 0 348 0 34 84 c32
78 34 85 20 110 l-15 26 -381 3 c-337 2 -383 0 -397 -14z"/>
<path d="M603 923 c-3 -10 -17 -42 -30 -72 -27 -62 -29 -103 -7 -125 14 -14
60 -16 397 -14 l381 3 15 26 c13 23 11 32 -20 112 l-34 87 -348 0 c-322 0
-348 -1 -354 -17z"/>
<path d="M660 634 c0 -15 12 -38 29 -55 l29 -29 237 0 237 0 29 29 c17 17 29
40 29 55 l0 26 -295 0 -295 0 0 -26z"/>
</g>
</svg>
