<?xml version="1.0" standalone="no"?>
<!DOCTYPE svg PUBLIC "-//W3C//DTD SVG 20010904//EN"
 "http://www.w3.org/TR/2001/REC-SVG-20010904/DTD/svg10.dtd">
<svg version="1.0" xmlns="http://www.w3.org/2000/svg"
 width="192.000000pt" height="192.000000pt" viewBox="0 0 192.000000 192.000000"
 preserveAspectRatio="xMidYMid meet">
<metadata>
Created by potrace 1.16, written by Peter Selinger 2001-2019
</metadata>
<g transform="translate(0.000000,192.000000) scale(0.100000,-0.100000)"
fill="#000000" stroke="none">
811 c445 -92 729 -532 635 -987 -62 -301 -295 -546 -601 -630 -91 -26 -329
-26 -420 0 -291 80 -516 305 -596 596 -26 91 -26 329 0 420 120 433 542 692
982 601z"/>
<path d="M803 1280 c-66 -39 -124 -78 -128 -88 -4 -9 -7 -125 -6 -257 l1 -240
28 -24 c15 -13 64 -45 110 -71 l82 -48 0 376 c0 372 0 376 22 399 12 13 20 23
17 23 -2 0 -59 -32 -126 -70z"/>
<path d="M950 1333 c-32 -11 -40 -37 -40 -133 l0 -96 161 -94 c96 -56 164
-102 169 -114 6 -13 9 32 9 119 1 112 -2 145 -14 163 -16 21 -216 145 -252
155 -10 3 -25 3 -33 0z"/>
<path d="M967 963 l-58 -36 3 -111 3 -111 33 -3 c25 -3 58 11 147 63 116 67
141 91 131 123 -6 19 -163 113 -187 111 -7 0 -40 -17 -72 -36z"/>
</g>
</svg>
