<?xml version="1.0" standalone="no"?>
<!DOCTYPE svg PUBLIC "-//W3C//DTD SVG 20010904//EN"
 "http://www.w3.org/TR/2001/REC-SVG-20010904/DTD/svg10.dtd">
<svg version="1.0" xmlns="http://www.w3.org/2000/svg"
 width="192.000000pt" height="192.000000pt" viewBox="0 0 192.000000 192.000000"
 preserveAspectRatio="xMidYMid meet">
<metadata>
Created by potrace 1.16, written by Peter Selinger 2001-2019
</metadata>
<g transform="translate(0.000000,192.000000) scale(0.100000,-0.100000)"
fill="#000000" stroke="none">
811 c445 -92 729 -532 635 -987 -62 -301 -295 -546 -601 -630 -91 -26 -329
-26 -420 0 -291 80 -516 305 -596 596 -26 91 -26 329 0 420 120 433 542 692
982 601z"/>
<path d="M756 1368 c-51 -14 -123 -85 -131 -130 -3 -18 -5 -153 -3 -300 l3
-266 31 -38 c58 -72 84 -79 299 -79 178 0 193 1 232 23 24 12 55 41 70 64 l28
42 0 281 0 281 -28 42 c-15 23 -46 52 -70 64 -38 20 -57 23 -217 25 -102 1
-191 -3 -214 -9z m406 -117 l33 -29 0 -257 0 -257 -33 -29 -32 -29 -170 0
c-184 0 -212 6 -236 51 -20 39 -20 492 0 528 25 45 49 50 233 51 l173 0 32
-29z"/>
<path d="M804 800 c-35 -14 -40 -61 -10 -82 19 -13 311 -9 324 4 19 19 14 55
-10 72 -18 13 -50 16 -153 15 -71 0 -139 -4 -151 -9z"/>
</g>
</svg>
