<?xml version="1.0" standalone="no"?>
<!DOCTYPE svg PUBLIC "-//W3C//DTD SVG 20010904//EN"
 "http://www.w3.org/TR/2001/REC-SVG-20010904/DTD/svg10.dtd">
<svg version="1.0" xmlns="http://www.w3.org/2000/svg"
 width="192.000000pt" height="192.000000pt" viewBox="0 0 192.000000 192.000000"
 preserveAspectRatio="xMidYMid meet">
<metadata>
Created by potrace 1.16, written by Peter Selinger 2001-2019
</metadata>
<g transform="translate(0.000000,192.000000) scale(0.100000,-0.100000)"
fill="#000000" stroke="none">
811 c445 -92 729 -532 635 -987 -62 -301 -295 -546 -601 -630 -91 -26 -329
-26 -420 0 -291 80 -516 305 -596 596 -26 91 -26 329 0 420 120 433 542 692
982 601z"/>
<path d="M835 1357 c-118 -39 -199 -112 -254 -227 -33 -69 -36 -82 -35 -165 1
-141 54 -252 106 -224 30 16 32 37 9 103 -42 121 -22 239 55 325 153 171 421
138 524 -63 31 -61 35 -77 34 -145 0 -98 -28 -163 -95 -226 -66 -62 -125 -87
-208 -89 l-66 -1 -3 83 -3 82 73 0 c82 0 135 23 172 73 31 42 30 169 -2 214
-39 55 -92 73 -218 73 -72 0 -114 -4 -122 -12 -17 -17 -17 -523 1 -558 19 -37
76 -53 177 -47 181 9 319 117 371 289 59 194 -33 405 -216 493 -52 25 -74 29
-160 32 -64 2 -115 -2 -140 -10z m208 -297 c50 -39 43 -116 -12 -145 -17 -8
-53 -15 -81 -15 l-50 0 0 90 0 90 59 0 c43 0 65 -5 84 -20z"/>
</g>
</svg>
