<?xml version="1.0" standalone="no"?>
<!DOCTYPE svg PUBLIC "-//W3C//DTD SVG 20010904//EN"
 "http://www.w3.org/TR/2001/REC-SVG-20010904/DTD/svg10.dtd">
<svg version="1.0" xmlns="http://www.w3.org/2000/svg"
 width="192.000000pt" height="192.000000pt" viewBox="0 0 192.000000 192.000000"
 preserveAspectRatio="xMidYMid meet">
<metadata>
Created by potrace 1.16, written by Peter Selinger 2001-2019
</metadata>
<g transform="translate(0.000000,192.000000) scale(0.100000,-0.100000)"
fill="#000000" stroke="none">
811 c445 -92 729 -532 635 -987 -62 -301 -295 -546 -601 -630 -91 -26 -329
-26 -420 0 -291 80 -516 305 -596 596 -26 91 -26 329 0 420 120 433 542 692
982 601z"/>
<path d="M592 1328 c-8 -8 -12 -51 -12 -125 0 -183 20 -203 203 -203 74 0 117
4 125 12 8 8 12 50 12 123 0 127 -15 166 -75 191 -44 18 -235 20 -253 2z m236
-74 c20 -14 22 -24 22 -100 l0 -84 -88 0 c-55 0 -92 4 -100 12 -8 8 -12 45
-12 100 l0 88 78 0 c54 0 84 -5 100 -16z"/>
<path d="M1073 1333 c-12 -2 -36 -20 -53 -39 l-31 -35 3 -127 3 -127 127 -3
128 -3 37 35 38 34 3 120 c5 154 6 152 -131 151 -56 -1 -112 -4 -124 -6z"/>
<path d="M654 920 c-11 -4 -33 -22 -47 -40 -26 -30 -27 -36 -27 -149 0 -78 4
-121 12 -129 8 -8 52 -12 130 -12 l118 0 38 34 37 34 3 122 c3 84 0 125 -8
135 -10 12 -38 15 -124 14 -61 0 -120 -4 -132 -9z"/>
<path d="M1002 918 c-19 -19 -16 -231 3 -268 25 -49 60 -60 188 -60 74 0 117
4 125 12 18 18 16 209 -2 253 -25 60 -64 75 -191 75 -73 0 -115 -4 -123 -12z
m238 -78 c17 -17 20 -33 20 -100 l0 -80 -81 0 c-117 0 -119 2 -119 110 l0 90
80 0 c67 0 83 -3 100 -20z"/>
</g>
</svg>
