<?xml version="1.0" standalone="no"?>
<!DOCTYPE svg PUBLIC "-//W3C//DTD SVG 20010904//EN"
 "http://www.w3.org/TR/2001/REC-SVG-20010904/DTD/svg10.dtd">
<svg version="1.0" xmlns="http://www.w3.org/2000/svg"
 width="192.000000pt" height="192.000000pt" viewBox="0 0 192.000000 192.000000"
 preserveAspectRatio="xMidYMid meet">
<metadata>
Created by potrace 1.16, written by Peter Selinger 2001-2019
</metadata>
<g transform="translate(0.000000,192.000000) scale(0.100000,-0.100000)"
fill="#000000" stroke="none">
811 c445 -92 729 -532 635 -987 -62 -301 -295 -546 -601 -630 -91 -26 -329
-26 -420 0 -291 80 -516 305 -596 596 -26 91 -26 329 0 420 120 433 542 692
982 601z"/>
<path d="M598 1329 c-16 -9 -18 -26 -18 -125 0 -184 20 -204 203 -204 74 0
117 4 125 12 8 8 12 49 12 118 0 177 -32 210 -205 210 -55 0 -108 -5 -117 -11z
m230 -75 c20 -14 22 -24 22 -100 l0 -84 -88 0 c-55 0 -92 4 -100 12 -8 8 -12
45 -12 100 l0 88 78 0 c54 0 84 -5 100 -16z"/>
<path d="M1064 1326 c-17 -8 -41 -26 -53 -42 -20 -25 -21 -37 -19 -153 l3
-126 126 -3 c116 -2 128 -1 153 19 44 34 56 76 56 188 0 131 0 131 -133 131
-63 -1 -114 -6 -133 -14z"/>
<path d="M655 920 c-11 -4 -31 -20 -45 -35 -23 -25 -25 -35 -28 -146 -3 -87 0
-124 9 -135 10 -13 35 -15 136 -12 l123 3 32 33 33 32 3 121 c3 83 0 124 -8
134 -10 12 -38 15 -124 14 -61 0 -120 -4 -131 -9z"/>
<path d="M1002 918 c-19 -19 -16 -231 3 -268 25 -49 60 -60 188 -60 74 0 117
4 125 12 18 18 16 209 -2 253 -25 60 -64 75 -191 75 -73 0 -115 -4 -123 -12z
m242 -80 c11 -16 16 -46 16 -100 l0 -78 -88 0 c-55 0 -92 4 -100 12 -8 8 -12
45 -12 100 l0 88 84 0 c76 0 86 -2 100 -22z"/>
</g>
</svg>
