<?xml version="1.0" standalone="no"?>
<!DOCTYPE svg PUBLIC "-//W3C//DTD SVG 20010904//EN"
 "http://www.w3.org/TR/2001/REC-SVG-20010904/DTD/svg10.dtd">
<svg version="1.0" xmlns="http://www.w3.org/2000/svg"
 width="192.000000pt" height="192.000000pt" viewBox="0 0 192.000000 192.000000"
 preserveAspectRatio="xMidYMid meet">
<metadata>
Created by potrace 1.16, written by Peter Selinger 2001-2019
</metadata>
<g transform="translate(0.000000,192.000000) scale(0.100000,-0.100000)"
fill="#000000" stroke="none">
811 c445 -92 729 -532 635 -987 -62 -301 -295 -546 -601 -630 -91 -26 -329
-26 -420 0 -291 80 -516 305 -596 596 -26 91 -26 329 0 420 120 433 542 692
982 601z"/>
<path d="M875 1420 c-27 -10 -72 -22 -98 -25 -45 -6 -56 -14 -146 -104 -96
-96 -98 -99 -104 -154 -4 -30 -16 -76 -27 -102 -25 -58 -25 -81 -1 -136 11
-24 23 -66 26 -94 10 -68 26 -96 74 -129 21 -15 52 -46 67 -67 32 -47 61 -64
124 -73 25 -4 73 -16 107 -29 62 -21 63 -21 110 -3 26 10 78 24 115 31 66 12
67 13 161 108 90 91 95 98 102 149 4 29 16 75 26 101 24 60 24 94 1 149 -11
24 -22 67 -26 97 -7 52 -11 58 -105 152 -94 94 -100 98 -152 105 -30 4 -73 15
-97 26 -54 22 -93 22 -157 -2z m18 -230 c60 -67 14 -170 -78 -170 -87 0 -136
98 -84 164 44 55 115 58 162 6z m205 -224 c15 -8 74 -62 132 -120 l105 -106
-30 -25 c-17 -13 -33 -24 -36 -25 -4 0 -25 -24 -48 -54 -39 -52 -43 -55 -98
-62 -32 -4 -77 -15 -101 -25 -55 -24 -75 -24 -137 1 -27 10 -72 22 -98 25 -36
5 -54 13 -70 33 -12 15 -44 49 -71 75 l-50 48 77 77 c70 70 80 77 116 77 29 0
47 -7 66 -25 l26 -24 47 52 c78 88 117 106 170 78z"/>
</g>
</svg>
