<?xml version="1.0" standalone="no"?>
<!DOCTYPE svg PUBLIC "-//W3C//DTD SVG 20010904//EN"
 "http://www.w3.org/TR/2001/REC-SVG-20010904/DTD/svg10.dtd">
<svg version="1.0" xmlns="http://www.w3.org/2000/svg"
 width="192.000000pt" height="192.000000pt" viewBox="0 0 192.000000 192.000000"
 preserveAspectRatio="xMidYMid meet">
<metadata>
Created by potrace 1.16, written by Peter Selinger 2001-2019
</metadata>
<g transform="translate(0.000000,192.000000) scale(0.100000,-0.100000)"
fill="#000000" stroke="none">
811 c445 -92 729 -532 635 -987 -62 -301 -295 -546 -601 -630 -91 -26 -329
-26 -420 0 -291 80 -516 305 -596 596 -26 91 -26 329 0 420 120 433 542 692
982 601z"/>
<path d="M611 1324 c-20 -26 -21 -38 -21 -359 0 -321 1 -333 21 -359 28 -36
80 -36 108 0 20 26 21 38 21 359 0 321 -1 333 -21 359 -15 19 -30 26 -54 26
-24 0 -39 -7 -54 -26z"/>
<path d="M955 1327 c-96 -47 -147 -126 -147 -228 0 -149 124 -259 277 -247
248 20 322 339 107 465 -66 39 -169 43 -237 10z"/>
</g>
</svg>
