<?xml version="1.0" standalone="no"?>
<!DOCTYPE svg PUBLIC "-//W3C//DTD SVG 20010904//EN"
 "http://www.w3.org/TR/2001/REC-SVG-20010904/DTD/svg10.dtd">
<svg version="1.0" xmlns="http://www.w3.org/2000/svg"
 width="192.000000pt" height="192.000000pt" viewBox="0 0 192.000000 192.000000"
 preserveAspectRatio="xMidYMid meet">
<metadata>
Created by potrace 1.16, written by Peter Selinger 2001-2019
</metadata>
<g transform="translate(0.000000,192.000000) scale(0.100000,-0.100000)"
fill="#000000" stroke="none">
810 c245 -63 441 -223 549 -451 55 -116 75 -212 75 -354 0 -141 -20 -238 -75
-352 -86 -182 -215 -312 -396 -398 -116 -55 -212 -75 -354 -75 -142 0 -238 20
-354 75 -228 108 -388 304 -451 549 -28 110 -28 292 0 402 76 298 303 526 600
603 106 28 298 28 406 1z"/>
<path d="M618 1309 c-15 -8 -18 -24 -18 -87 0 -47 5 -83 12 -90 7 -7 42 -12
88 -12 46 0 81 5 88 12 7 7 12 41 12 84 0 64 -3 75 -22 88 -26 18 -133 21
-160 5z"/>
<path d="M867 1302 c-12 -13 -17 -37 -17 -85 0 -89 9 -97 110 -97 94 0 100 6
100 103 0 85 -13 97 -107 97 -55 0 -73 -4 -86 -18z"/>
<path d="M1128 1309 c-15 -8 -18 -24 -18 -87 0 -47 5 -83 12 -90 7 -7 42 -12
88 -12 46 0 81 5 88 12 7 7 12 43 12 90 0 66 -3 79 -19 88 -25 13 -141 13
-163 -1z"/>
<path d="M618 1059 c-15 -8 -18 -24 -18 -88 0 -98 8 -106 100 -106 91 0 100 9
100 101 0 64 -3 75 -22 88 -26 18 -133 21 -160 5z"/>
<path d="M870 1050 c-16 -16 -20 -33 -20 -83 0 -92 10 -102 105 -102 95 0 105
10 105 102 0 86 -17 103 -105 103 -52 0 -69 -4 -85 -20z"/>
<path d="M1126 1054 c-20 -19 -23 -153 -4 -172 7 -7 42 -12 88 -12 46 0 81 5
88 12 7 7 12 43 12 90 0 92 -6 98 -104 98 -45 0 -69 -5 -80 -16z"/>
<path d="M623 810 c-21 -9 -23 -16 -23 -89 0 -75 2 -82 25 -97 19 -12 41 -15
84 -12 83 6 91 15 91 104 0 64 -3 75 -22 88 -25 18 -118 21 -155 6z"/>
<path d="M870 800 c-16 -16 -20 -33 -20 -83 0 -92 10 -102 105 -102 95 0 105
10 105 102 0 86 -17 103 -105 103 -52 0 -69 -4 -85 -20z"/>
<path d="M1126 804 c-20 -19 -23 -153 -4 -172 16 -16 160 -16 176 0 7 7 12 43
12 90 0 92 -6 98 -104 98 -45 0 -69 -5 -80 -16z"/>
</g>
</svg>
