<?xml version="1.0" standalone="no"?>
<!DOCTYPE svg PUBLIC "-//W3C//DTD SVG 20010904//EN"
 "http://www.w3.org/TR/2001/REC-SVG-20010904/DTD/svg10.dtd">
<svg version="1.0" xmlns="http://www.w3.org/2000/svg"
 width="192.000000pt" height="192.000000pt" viewBox="0 0 192.000000 192.000000"
 preserveAspectRatio="xMidYMid meet">
<metadata>
Created by potrace 1.16, written by Peter Selinger 2001-2019
</metadata>
<g transform="translate(0.000000,192.000000) scale(0.100000,-0.100000)"
fill="#000000" stroke="none">
811 c445 -92 729 -532 635 -987 -62 -301 -295 -546 -601 -630 -91 -26 -329
-26 -420 0 -291 80 -516 305 -596 596 -26 91 -26 329 0 420 120 433 542 692
982 601z"/>
<path d="M643 1335 c-42 -18 -73 -69 -73 -119 0 -31 7 -45 39 -77 33 -33 45
-39 81 -39 83 0 138 60 127 139 -6 49 -28 78 -74 97 -40 17 -59 17 -100 -1z
m101 -56 c55 -43 23 -129 -49 -129 -69 0 -100 76 -50 125 30 30 64 32 99 4z"/>
<path d="M903 1335 c-81 -35 -96 -141 -29 -202 83 -76 206 -19 206 95 0 47
-29 88 -76 108 -41 17 -60 17 -101 -1z m101 -56 c53 -42 23 -129 -46 -129 -69
0 -102 77 -53 125 30 30 64 32 99 4z"/>
<path d="M1163 1335 c-81 -35 -96 -141 -29 -202 83 -76 206 -19 206 95 0 47
-29 88 -76 108 -41 17 -60 17 -101 -1z"/>
<path d="M644 1081 c-11 -5 -33 -23 -47 -41 -53 -63 -22 -161 59 -189 52 -18
88 -9 131 34 28 28 33 40 33 79 0 38 -6 52 -33 82 -26 29 -42 37 -77 40 -25 2
-54 0 -66 -5z m103 -63 c33 -30 31 -80 -3 -107 -35 -28 -69 -26 -99 4 -70 69
30 170 102 103z"/>
<path d="M905 1080 c-37 -15 -67 -57 -72 -102 -6 -57 26 -107 83 -127 52 -18
88 -9 131 34 27 27 33 41 33 75 0 23 -8 55 -17 71 -29 49 -104 72 -158 49z"/>
<path d="M1160 1077 c-34 -17 -70 -74 -70 -112 0 -47 38 -97 86 -114 52 -18
88 -9 131 34 95 95 -25 254 -147 192z"/>
<path d="M628 814 c-77 -41 -75 -169 2 -209 87 -45 190 11 190 105 0 94 -106
151 -192 104z m125 -56 c34 -40 13 -109 -38 -122 -34 -9 -83 18 -91 49 -20 82
74 135 129 73z"/>
<path d="M892 816 c-80 -44 -81 -170 -2 -211 38 -20 104 -19 136 1 73 49 70
170 -6 209 -35 18 -97 19 -128 1z m121 -58 c34 -40 13 -109 -38 -122 -86 -22
-133 104 -52 139 38 16 65 11 90 -17z"/>
<path d="M1152 816 c-32 -17 -62 -65 -62 -99 0 -43 29 -96 61 -112 15 -8 49
-15 75 -15 41 0 51 5 80 36 29 31 34 42 34 86 0 44 -4 54 -34 84 -29 29 -40
34 -82 34 -27 -1 -59 -6 -72 -14z"/>
</g>
</svg>
