<?xml version="1.0" standalone="no"?>
<!DOCTYPE svg PUBLIC "-//W3C//DTD SVG 20010904//EN"
 "http://www.w3.org/TR/2001/REC-SVG-20010904/DTD/svg10.dtd">
<svg version="1.0" xmlns="http://www.w3.org/2000/svg"
 width="192.000000pt" height="192.000000pt" viewBox="0 0 192.000000 192.000000"
 preserveAspectRatio="xMidYMid meet">
<metadata>
Created by potrace 1.16, written by Peter Selinger 2001-2019
</metadata>
<g transform="translate(0.000000,192.000000) scale(0.100000,-0.100000)"
fill="#000000" stroke="none">
811 c445 -92 729 -532 635 -987 -62 -301 -295 -546 -601 -630 -91 -26 -329
-26 -420 0 -291 80 -516 305 -596 596 -26 91 -26 329 0 420 120 433 542 692
982 601z"/>
<path d="M870 1366 c-124 -28 -225 -107 -282 -224 -31 -63 -33 -72 -33 -177 0
-98 3 -116 26 -165 48 -103 115 -157 147 -117 5 6 24 85 42 175 18 89 42 176
52 192 57 95 209 94 268 -2 24 -40 27 -116 5 -157 -34 -67 -114 -102 -184 -81
-24 7 -37 6 -41 -1 -4 -5 -15 -55 -25 -110 -22 -119 -18 -130 51 -143 115 -21
262 33 354 130 221 234 99 616 -218 683 -64 13 -91 13 -162 -3z"/>
<path d="M920 1000 c-11 -11 -20 -26 -20 -33 0 -24 31 -57 54 -57 26 0 56 28
56 53 0 21 -35 57 -55 57 -8 0 -24 -9 -35 -20z"/>
</g>
</svg>
