<?xml version="1.0" standalone="no"?>
<!DOCTYPE svg PUBLIC "-//W3C//DTD SVG 20010904//EN"
 "http://www.w3.org/TR/2001/REC-SVG-20010904/DTD/svg10.dtd">
<svg version="1.0" xmlns="http://www.w3.org/2000/svg"
 width="192.000000pt" height="192.000000pt" viewBox="0 0 192.000000 192.000000"
 preserveAspectRatio="xMidYMid meet">
<metadata>
Created by potrace 1.16, written by Peter Selinger 2001-2019
</metadata>
<g transform="translate(0.000000,192.000000) scale(0.100000,-0.100000)"
fill="#000000" stroke="none">
811 c445 -92 729 -532 635 -987 -62 -301 -295 -546 -601 -630 -91 -26 -329
-26 -420 0 -291 80 -516 305 -596 596 -26 91 -26 329 0 420 120 433 542 692
982 601z"/>
<path d="M956 1299 c-94 -22 -148 -86 -154 -183 -9 -152 120 -264 343 -296
104 -14 215 -13 221 3 7 18 -42 169 -76 237 -61 121 -160 220 -233 235 -18 4
-39 8 -47 10 -8 1 -32 -1 -54 -6z"/>
<path d="M698 1160 c-90 -27 -151 -105 -151 -195 0 -135 126 -256 318 -305 92
-23 296 -43 309 -30 13 13 -22 139 -43 149 -9 5 -40 11 -69 15 -115 15 -228
74 -274 143 -47 72 -56 130 -32 211 7 24 -7 27 -58 12z"/>
</g>
</svg>
