<?xml version="1.0" standalone="no"?>
<!DOCTYPE svg PUBLIC "-//W3C//DTD SVG 20010904//EN"
 "http://www.w3.org/TR/2001/REC-SVG-20010904/DTD/svg10.dtd">
<svg version="1.0" xmlns="http://www.w3.org/2000/svg"
 width="192.000000pt" height="192.000000pt" viewBox="0 0 192.000000 192.000000"
 preserveAspectRatio="xMidYMid meet">
<metadata>
Created by potrace 1.16, written by Peter Selinger 2001-2019
</metadata>
<g transform="translate(0.000000,192.000000) scale(0.100000,-0.100000)"
fill="#000000" stroke="none">
811 c445 -92 729 -532 635 -987 -62 -301 -295 -546 -601 -630 -91 -26 -329
-26 -420 0 -291 80 -516 305 -596 596 -26 91 -26 329 0 420 120 433 542 692
982 601z"/>
<path d="M870 1370 c-71 -15 -154 -61 -158 -88 -5 -35 22 -37 85 -5 74 36 187
44 264 18 59 -19 79 -15 79 15 0 46 -164 82 -270 60z"/>
<path d="M1126 1255 c-133 -54 -304 -197 -418 -350 -33 -44 -64 -81 -68 -83
-12 -5 -33 81 -35 148 -1 36 -3 68 -4 73 0 4 -12 7 -26 7 -18 0 -26 -7 -31
-26 -11 -44 4 -150 30 -217 l26 -63 -24 -67 c-24 -70 -24 -102 0 -111 24 -9
40 3 62 49 24 49 40 55 66 26 9 -10 45 -32 79 -47 56 -26 72 -29 172 -29 99 0
116 3 168 27 166 78 271 272 237 440 -16 83 -29 108 -56 108 -30 0 -33 -15
-16 -73 9 -30 13 -77 10 -120 -7 -130 -78 -236 -196 -294 -50 -24 -69 -28
-147 -28 -97 0 -149 17 -220 71 l-35 26 37 52 c144 201 335 341 520 381 96 21
113 34 90 68 -21 32 -76 57 -124 57 -21 0 -64 -11 -97 -25z"/>
<path d="M593 1243 c-10 -27 45 -286 64 -300 26 -20 50 2 63 57 14 58 8 115
-19 175 -34 74 -92 111 -108 68z"/>
</g>
</svg>
