<?xml version="1.0" standalone="no"?>
<!DOCTYPE svg PUBLIC "-//W3C//DTD SVG 20010904//EN"
 "http://www.w3.org/TR/2001/REC-SVG-20010904/DTD/svg10.dtd">
<svg version="1.0" xmlns="http://www.w3.org/2000/svg"
 width="192.000000pt" height="192.000000pt" viewBox="0 0 192.000000 192.000000"
 preserveAspectRatio="xMidYMid meet">
<metadata>
Created by potrace 1.16, written by Peter Selinger 2001-2019
</metadata>
<g transform="translate(0.000000,192.000000) scale(0.100000,-0.100000)"
fill="#000000" stroke="none">
811 c445 -92 729 -532 635 -987 -62 -301 -295 -546 -601 -630 -91 -26 -329
-26 -420 0 -291 80 -516 305 -596 596 -26 91 -26 329 0 420 120 433 542 692
982 601z"/>
<path d="M852 1365 c-61 -17 -104 -38 -150 -72 l-32 -24 -26 30 c-50 60 -79
33 -63 -58 l12 -63 37 43 c36 42 37 43 48 22 25 -46 34 -120 22 -177 -22 -109
-61 -96 -89 30 l-18 79 -17 -40 c-43 -100 -47 -230 -9 -315 l18 -43 28 51 c93
172 321 396 480 473 26 13 47 26 47 29 0 3 -22 14 -48 23 -69 25 -175 30 -240
12z"/>
<path d="M1182 1339 l-34 -10 45 -30 c82 -54 84 -67 12 -89 -61 -19 -153 -68
-220 -115 -84 -60 -231 -215 -295 -312 l-54 -82 -24 36 c-13 19 -27 31 -32 26
-16 -18 -41 -102 -38 -129 4 -41 34 -43 56 -4 37 68 35 67 84 27 24 -20 71
-49 104 -64 53 -25 70 -28 169 -28 99 0 116 3 168 27 164 77 267 265 238 434
-13 74 -34 127 -67 171 l-24 31 33 7 c58 12 67 16 67 34 0 23 -37 55 -79 70
-40 13 -63 13 -109 0z"/>
</g>
</svg>
