<?xml version="1.0" standalone="no"?>
<!DOCTYPE svg PUBLIC "-//W3C//DTD SVG 20010904//EN"
 "http://www.w3.org/TR/2001/REC-SVG-20010904/DTD/svg10.dtd">
<svg version="1.0" xmlns="http://www.w3.org/2000/svg"
 width="192.000000pt" height="192.000000pt" viewBox="0 0 192.000000 192.000000"
 preserveAspectRatio="xMidYMid meet">
<metadata>
Created by potrace 1.16, written by Peter Selinger 2001-2019
</metadata>
<g transform="translate(0.000000,192.000000) scale(0.100000,-0.100000)"
fill="#000000" stroke="none">
811 c445 -92 729 -532 635 -987 -62 -301 -295 -546 -601 -630 -91 -26 -329
-26 -420 0 -291 80 -516 305 -596 596 -26 91 -26 329 0 420 120 433 542 692
982 601z"/>
<path d="M764 1356 c-46 -20 -58 -63 -107 -384 -50 -329 -51 -322 39 -322 l54
0 0 -33 c0 -48 15 -57 92 -57 79 0 79 0 97 110 20 118 13 110 89 110 180 0
262 73 262 234 0 77 -13 119 -44 145 -9 8 -16 27 -16 43 0 65 -52 134 -119
157 -49 16 -308 14 -347 -3z m412 -220 c10 -26 -16 -92 -48 -123 -51 -48 -75
-56 -182 -61 -93 -5 -98 -4 -93 14 3 10 9 42 13 69 8 60 21 97 37 107 7 4 70
8 140 8 100 0 129 -3 133 -14z m71 -133 c-9 -123 -71 -173 -214 -173 -108 0
-115 -7 -138 -134 l-17 -96 -39 0 c-22 0 -39 3 -39 8 -1 28 45 279 52 287 5 6
58 12 118 15 101 5 111 7 152 35 48 35 87 86 95 129 6 28 7 28 20 10 11 -14
13 -37 10 -81z"/>
</g>
</svg>
