<?xml version="1.0" standalone="no"?>
<!DOCTYPE svg PUBLIC "-//W3C//DTD SVG 20010904//EN"
 "http://www.w3.org/TR/2001/REC-SVG-20010904/DTD/svg10.dtd">
<svg version="1.0" xmlns="http://www.w3.org/2000/svg"
 width="192.000000pt" height="192.000000pt" viewBox="0 0 192.000000 192.000000"
 preserveAspectRatio="xMidYMid meet">
<metadata>
Created by potrace 1.16, written by Peter Selinger 2001-2019
</metadata>
<g transform="translate(0.000000,192.000000) scale(0.100000,-0.100000)"
fill="#000000" stroke="none">
811 c445 -92 729 -532 635 -987 -62 -301 -295 -546 -601 -630 -91 -26 -329
-26 -420 0 -291 80 -516 305 -596 596 -26 91 -26 329 0 420 120 433 542 692
982 601z"/>
<path d="M763 1360 c-48 -19 -56 -51 -113 -425 -17 -110 -33 -212 -36 -226 -8
-41 17 -59 82 -59 l54 0 0 -35 c0 -48 33 -69 101 -63 27 3 55 10 61 16 9 9 24
71 42 173 l6 37 93 4 c113 5 171 33 212 102 49 84 42 220 -15 271 -12 11 -20
31 -20 50 0 52 -40 116 -90 142 -40 21 -55 23 -199 22 -86 0 -166 -4 -178 -9z
m406 -219 c23 -15 -4 -88 -48 -132 -41 -41 -102 -59 -201 -59 -55 0 -60 2 -60
22 0 47 23 150 37 163 11 12 43 15 136 15 67 0 128 -4 136 -9z m75 -85 c9 -46
-3 -114 -25 -151 -30 -51 -72 -68 -179 -74 -56 -4 -104 -11 -112 -19 -9 -7
-23 -52 -33 -107 l-17 -95 -40 0 c-38 0 -39 1 -34 28 3 15 13 72 21 127 22
145 11 132 123 137 67 3 111 11 142 25 54 24 115 89 125 132 9 41 21 39 29 -3z"/>
</g>
</svg>
