<?xml version="1.0" standalone="no"?>
<!DOCTYPE svg PUBLIC "-//W3C//DTD SVG 20010904//EN"
 "http://www.w3.org/TR/2001/REC-SVG-20010904/DTD/svg10.dtd">
<svg version="1.0" xmlns="http://www.w3.org/2000/svg"
 width="192.000000pt" height="192.000000pt" viewBox="0 0 192.000000 192.000000"
 preserveAspectRatio="xMidYMid meet">
<metadata>
Created by potrace 1.16, written by Peter Selinger 2001-2019
</metadata>
<g transform="translate(0.000000,192.000000) scale(0.100000,-0.100000)"
fill="#000000" stroke="none">
811 c445 -92 729 -532 635 -987 -62 -301 -295 -546 -601 -630 -91 -26 -329
-26 -420 0 -291 80 -516 305 -596 596 -26 91 -26 329 0 420 120 433 542 692
982 601z"/>
<path d="M685 1317 c-22 -12 -40 -27 -40 -32 0 -6 45 -13 100 -17 323 -21 537
-165 484 -325 -36 -112 -136 -170 -339 -197 l-84 -11 -12 -40 c-6 -22 -15 -55
-19 -73 l-7 -33 215 3 215 3 44 30 c25 18 53 49 66 75 22 44 23 52 20 282 l-3
236 -31 39 c-17 21 -48 48 -70 60 -37 22 -49 23 -269 23 -221 0 -232 -1 -270
-23z"/>
<path d="M598 1144 c-16 -5 -18 -23 -18 -203 0 -184 1 -200 23 -241 24 -48
101 -111 116 -94 13 14 134 524 126 532 -8 8 -222 13 -247 6z"/>
<path d="M856 979 c-20 -84 -34 -154 -31 -157 11 -12 202 17 257 38 69 26 118
68 118 103 0 33 -42 83 -90 107 -40 20 -173 60 -201 60 -14 0 -25 -30 -53
-151z"/>
</g>
</svg>
