<?xml version="1.0" standalone="no"?>
<!DOCTYPE svg PUBLIC "-//W3C//DTD SVG 20010904//EN"
 "http://www.w3.org/TR/2001/REC-SVG-20010904/DTD/svg10.dtd">
<svg version="1.0" xmlns="http://www.w3.org/2000/svg"
 width="192.000000pt" height="192.000000pt" viewBox="0 0 192.000000 192.000000"
 preserveAspectRatio="xMidYMid meet">
<metadata>
Created by potrace 1.16, written by Peter Selinger 2001-2019
</metadata>
<g transform="translate(0.000000,192.000000) scale(0.100000,-0.100000)"
fill="#000000" stroke="none">
810 c245 -63 441 -223 549 -451 55 -116 75 -212 75 -354 0 -141 -20 -238 -75
-352 -86 -182 -215 -312 -396 -398 -116 -55 -212 -75 -354 -75 -142 0 -238 20
-354 75 -228 108 -388 304 -451 549 -28 110 -28 292 0 402 76 298 303 526 600
603 106 28 298 28 406 1z"/>
<path d="M875 1356 c-59 -27 -105 -94 -105 -155 0 -28 26 -61 48 -61 20 0 52
39 52 63 0 35 44 71 87 71 52 0 83 -39 83 -104 l0 -49 -167 -3 c-155 -3 -170
-5 -199 -25 -56 -40 -64 -72 -64 -255 0 -184 8 -215 69 -255 33 -22 41 -23
270 -23 273 0 289 4 329 80 20 40 22 58 22 190 0 80 -5 162 -10 182 -13 45
-68 95 -115 104 -34 6 -35 7 -35 55 0 53 -20 111 -48 142 -47 52 -151 72 -217
43z m135 -423 c23 -29 21 -64 -6 -94 -8 -9 -14 -36 -14 -61 0 -51 -18 -73 -50
-63 -17 5 -20 15 -20 57 0 35 -6 58 -20 75 -41 52 -11 113 54 113 26 0 40 -7
56 -27z"/>
</g>
</svg>
