<?xml version="1.0" standalone="no"?>
<!DOCTYPE svg PUBLIC "-//W3C//DTD SVG 20010904//EN"
 "http://www.w3.org/TR/2001/REC-SVG-20010904/DTD/svg10.dtd">
<svg version="1.0" xmlns="http://www.w3.org/2000/svg"
 width="192.000000pt" height="192.000000pt" viewBox="0 0 192.000000 192.000000"
 preserveAspectRatio="xMidYMid meet">
<metadata>
Created by potrace 1.16, written by Peter Selinger 2001-2019
</metadata>
<g transform="translate(0.000000,192.000000) scale(0.100000,-0.100000)"
fill="#000000" stroke="none">
811 c445 -92 729 -532 635 -987 -62 -301 -295 -546 -601 -630 -91 -26 -329
-26 -420 0 -291 80 -516 305 -596 596 -26 91 -26 329 0 420 120 433 542 692
982 601z"/>
<path d="M665 1281 c-39 -17 -105 -81 -105 -101 0 -6 148 -10 395 -10 247 0
395 4 395 10 0 20 -66 84 -105 101 -35 16 -70 19 -290 19 -220 0 -255 -3 -290
-19z"/>
<path d="M550 920 c0 -175 11 -211 82 -257 l42 -28 281 0 281 0 42 28 c71 46
82 82 82 257 l0 150 -405 0 -405 0 0 -150z m510 45 c0 -8 5 -15 10 -15 6 0 10
-9 10 -20 0 -11 -4 -20 -10 -20 -6 0 -10 -29 -10 -66 0 -57 -2 -65 -17 -62
-15 3 -19 16 -21 66 -2 34 -7 62 -12 62 -19 0 -10 39 10 45 11 3 20 11 20 16
0 5 5 9 10 9 6 0 10 -7 10 -15z m-319 -39 c17 -37 3 -76 -31 -89 -18 -7 -30
-19 -30 -29 0 -11 -7 -18 -20 -18 -18 0 -20 7 -20 80 l0 80 45 0 c38 0 47 -4
56 -24z m107 12 c7 -7 12 -41 12 -81 l0 -68 -47 3 -48 3 -3 43 c-3 40 -1 43
30 56 31 13 31 14 8 18 -14 1 -26 11 -28 21 -3 13 4 17 30 17 19 0 39 -5 46
-12z m72 -23 c0 -19 5 -35 10 -35 6 0 10 16 10 35 0 29 4 35 20 35 19 0 21 -5
18 -77 l-3 -78 -43 -3 c-37 -3 -43 -1 -40 14 2 10 14 21 28 25 21 6 22 7 4 8
-31 2 -44 21 -44 68 0 36 3 43 20 43 16 0 20 -7 20 -35z m338 23 c7 -7 12 -36
12 -79 0 -62 -2 -69 -20 -69 -18 0 -20 7 -20 61 0 81 -24 77 -28 -4 -3 -49 -6
-57 -22 -57 -18 0 -20 7 -20 60 0 33 -4 60 -10 60 -6 0 -10 -27 -10 -60 0 -53
-2 -60 -20 -60 -18 0 -20 7 -20 80 l0 80 73 -1 c39 -1 78 -6 85 -11z"/>
<path d="M680 896 c0 -9 7 -16 16 -16 9 0 14 5 12 12 -6 18 -28 21 -28 4z"/>
<path d="M800 840 c0 -11 5 -20 10 -20 6 0 10 9 10 20 0 11 -4 20 -10 20 -5 0
-10 -9 -10 -20z"/>
</g>
</svg>
