<?xml version="1.0" standalone="no"?>
<!DOCTYPE svg PUBLIC "-//W3C//DTD SVG 20010904//EN"
 "http://www.w3.org/TR/2001/REC-SVG-20010904/DTD/svg10.dtd">
<svg version="1.0" xmlns="http://www.w3.org/2000/svg"
 width="192.000000pt" height="192.000000pt" viewBox="0 0 192.000000 192.000000"
 preserveAspectRatio="xMidYMid meet">
<metadata>
Created by potrace 1.16, written by Peter Selinger 2001-2019
</metadata>
<g transform="translate(0.000000,192.000000) scale(0.100000,-0.100000)"
fill="#000000" stroke="none">
811 c445 -92 729 -532 635 -987 -62 -301 -295 -546 -601 -630 -91 -26 -329
-26 -420 0 -291 80 -516 305 -596 596 -26 91 -26 329 0 420 120 433 542 692
982 601z"/>
<path d="M908 1352 c-29 -13 -71 -62 -187 -217 -93 -124 -151 -210 -152 -225
-2 -46 2 -65 22 -93 20 -28 20 -28 0 -60 -35 -59 -31 -109 13 -153 l34 -34
311 0 c350 0 360 2 388 67 17 43 11 90 -17 126 l-20 26 25 37 c48 71 44 80
-169 358 -110 143 -131 166 -164 176 -46 12 -40 13 -84 -8z m162 -412 c0 -16
-7 -20 -30 -20 -22 0 -28 -4 -24 -15 4 -8 17 -15 31 -15 31 0 28 -34 -4 -38
-12 -2 -25 -12 -28 -23 -4 -11 -22 -27 -41 -36 -19 -9 -34 -19 -34 -22 1 -3
23 -31 50 -61 l50 -55 -30 -3 c-26 -3 -38 5 -83 54 -28 31 -56 63 -60 71 -14
24 0 43 32 43 71 0 83 27 14 32 -36 2 -49 7 -51 21 -3 14 4 17 49 17 61 0 56
17 -6 22 -33 2 -41 7 -43 26 -3 22 -2 22 102 22 99 0 106 -1 106 -20z"/>
</g>
</svg>
