<?xml version="1.0" standalone="no"?>
<!DOCTYPE svg PUBLIC "-//W3C//DTD SVG 20010904//EN"
 "http://www.w3.org/TR/2001/REC-SVG-20010904/DTD/svg10.dtd">
<svg version="1.0" xmlns="http://www.w3.org/2000/svg"
 width="192.000000pt" height="192.000000pt" viewBox="0 0 192.000000 192.000000"
 preserveAspectRatio="xMidYMid meet">
<metadata>
Created by potrace 1.16, written by Peter Selinger 2001-2019
</metadata>
<g transform="translate(0.000000,192.000000) scale(0.100000,-0.100000)"
fill="#000000" stroke="none">
811 c445 -92 729 -532 635 -987 -62 -301 -295 -546 -601 -630 -91 -26 -329
-26 -420 0 -291 80 -516 305 -596 596 -26 91 -26 329 0 420 120 433 542 692
982 601z"/>
<path d="M886 1355 c-56 -20 -105 -73 -126 -136 l-19 -54 -83 -5 c-92 -6 -105
-11 -118 -46 -11 -27 52 -480 70 -515 6 -10 19 -23 30 -29 11 -6 133 -10 319
-10 299 0 300 0 327 23 25 22 28 35 62 270 l36 247 -21 28 c-19 25 -26 27
-109 32 l-88 5 -6 30 c-21 98 -114 176 -210 175 -14 -1 -43 -7 -64 -15z m134
-70 c37 -19 70 -66 70 -99 l0 -26 -135 0 c-129 0 -135 1 -135 20 0 87 116 148
200 105z m-152 -289 c9 -42 -58 -64 -78 -26 -12 22 0 55 22 63 18 6 52 -17 56
-37z m260 0 c8 -40 -42 -60 -72 -30 -21 20 -20 30 5 55 18 18 23 19 42 6 12
-8 23 -22 25 -31z m-260 -131 c11 -77 35 -105 87 -105 45 0 85 37 85 78 0 37
20 54 57 50 23 -2 29 -9 31 -33 10 -81 -60 -168 -145 -181 -92 -14 -182 53
-198 147 -9 50 7 71 49 67 22 -2 32 -9 34 -23z"/>
</g>
</svg>
