<?xml version="1.0" standalone="no"?>
<!DOCTYPE svg PUBLIC "-//W3C//DTD SVG 20010904//EN"
 "http://www.w3.org/TR/2001/REC-SVG-20010904/DTD/svg10.dtd">
<svg version="1.0" xmlns="http://www.w3.org/2000/svg"
 width="192.000000pt" height="192.000000pt" viewBox="0 0 192.000000 192.000000"
 preserveAspectRatio="xMidYMid meet">
<metadata>
Created by potrace 1.16, written by Peter Selinger 2001-2019
</metadata>
<g transform="translate(0.000000,192.000000) scale(0.100000,-0.100000)"
fill="#000000" stroke="none">
811 c445 -92 729 -532 635 -987 -62 -301 -295 -546 -601 -630 -91 -26 -329
-26 -420 0 -291 80 -516 305 -596 596 -26 91 -26 329 0 420 120 433 542 692
982 601z"/>
<path d="M866 1314 c-89 -32 -148 -107 -168 -211 -9 -50 -15 -60 -42 -74 -45
-23 -93 -90 -106 -152 -11 -45 -10 -62 4 -111 21 -70 84 -139 142 -155 51 -14
467 -14 518 0 58 16 121 85 142 155 14 49 15 66 4 111 -13 62 -61 129 -106
152 -27 14 -33 24 -42 74 -32 171 -191 268 -346 211z m186 -123 c36 -41 37
-88 3 -130 -21 -24 -36 -31 -80 -36 -49 -7 -55 -10 -55 -30 0 -23 -23 -55 -40
-55 -5 0 -16 10 -24 22 -12 17 -16 48 -16 125 0 92 2 105 21 124 19 19 30 21
92 16 64 -4 74 -8 99 -36z"/>
<path d="M920 1125 c0 -25 3 -26 43 -23 34 2 42 7 42 23 0 16 -8 21 -42 23
-40 3 -43 2 -43 -23z"/>
</g>
</svg>
