<?xml version="1.0" standalone="no"?>
<!DOCTYPE svg PUBLIC "-//W3C//DTD SVG 20010904//EN"
 "http://www.w3.org/TR/2001/REC-SVG-20010904/DTD/svg10.dtd">
<svg version="1.0" xmlns="http://www.w3.org/2000/svg"
 width="192.000000pt" height="192.000000pt" viewBox="0 0 192.000000 192.000000"
 preserveAspectRatio="xMidYMid meet">
<metadata>
Created by potrace 1.16, written by Peter Selinger 2001-2019
</metadata>
<g transform="translate(0.000000,192.000000) scale(0.100000,-0.100000)"
fill="#000000" stroke="none">
811 c445 -92 729 -532 635 -987 -62 -301 -295 -546 -601 -630 -91 -26 -329
-26 -420 0 -291 80 -516 305 -596 596 -26 91 -26 329 0 420 120 433 542 692
982 601z"/>
<path d="M722 1350 c-18 -11 -41 -34 -52 -52 -19 -31 -20 -51 -20 -334 0 -296
0 -302 23 -334 49 -73 55 -75 282 -75 227 0 233 2 283 75 21 32 22 40 22 283
l0 250 -96 103 -96 104 -156 0 c-139 0 -161 -2 -190 -20z m326 -127 l3 -72 72
-3 c64 -3 72 -5 72 -23 0 -19 -7 -20 -95 -20 l-95 0 -3 84 c-3 96 1 114 25
109 15 -3 19 -16 21 -75z m-173 -363 l0 -55 -42 -3 c-42 -3 -42 -3 -45 -45 -2
-29 -8 -42 -18 -42 -12 0 -16 19 -18 103 l-3 103 63 -3 63 -3 0 -55z m153 -42
c3 -95 2 -98 -21 -103 -13 -4 -41 -5 -63 -3 l-39 3 -3 103 -3 103 63 -3 63 -3
3 -97z m152 82 c0 -17 -7 -20 -40 -20 -33 0 -40 -3 -40 -20 0 -16 7 -20 30
-20 23 0 30 -4 30 -20 0 -15 -7 -20 -29 -20 -28 0 -30 -3 -33 -42 -2 -30 -8
-43 -18 -43 -12 0 -16 19 -18 103 l-3 102 61 0 c53 0 60 -2 60 -20z"/>
<path d="M790 860 c0 -15 7 -20 25 -20 18 0 25 5 25 20 0 15 -7 20 -25 20 -18
0 -25 -5 -25 -20z"/>
<path d="M950 814 c0 -57 2 -65 18 -62 14 3 18 16 20 66 3 57 1 62 -18 62 -18
0 -20 -6 -20 -66z"/>
</g>
</svg>
