<?xml version="1.0" standalone="no"?>
<!DOCTYPE svg PUBLIC "-//W3C//DTD SVG 20010904//EN"
 "http://www.w3.org/TR/2001/REC-SVG-20010904/DTD/svg10.dtd">
<svg version="1.0" xmlns="http://www.w3.org/2000/svg"
 width="192.000000pt" height="192.000000pt" viewBox="0 0 192.000000 192.000000"
 preserveAspectRatio="xMidYMid meet">
<metadata>
Created by potrace 1.16, written by Peter Selinger 2001-2019
</metadata>
<g transform="translate(0.000000,192.000000) scale(0.100000,-0.100000)"
fill="#000000" stroke="none">
811 c445 -92 729 -532 635 -987 -62 -301 -295 -546 -601 -630 -91 -26 -329
-26 -420 0 -291 80 -516 305 -596 596 -26 91 -26 329 0 420 120 433 542 692
982 601z"/>
<path d="M672 1357 c-18 -19 -22 -35 -22 -95 l0 -72 305 0 c215 0 305 3 305
11 0 16 -130 148 -162 165 -20 11 -73 14 -216 14 -184 0 -189 -1 -210 -23z"/>
<path d="M610 1143 c-48 -18 -50 -26 -50 -214 0 -170 1 -179 22 -199 21 -19
33 -20 374 -20 340 0 352 1 378 21 l26 20 0 174 c0 155 -2 175 -19 196 l-19
24 -349 2 c-191 1 -355 -1 -363 -4z m181 -114 c67 -36 29 -139 -51 -139 -16 0
-20 -7 -20 -34 0 -41 -18 -56 -37 -31 -13 19 -19 168 -7 199 7 19 84 22 115 5z
m230 -18 c25 -25 29 -37 29 -81 0 -44 -4 -56 -30 -81 -26 -27 -35 -30 -82 -27
l-53 3 -3 94 c-1 52 -1 100 2 108 4 8 23 13 56 13 44 0 56 -5 81 -29z m214 9
c0 -10 -13 -17 -35 -20 -27 -4 -35 -10 -35 -25 0 -15 8 -21 33 -23 23 -2 32
-8 32 -22 0 -14 -9 -20 -32 -22 -31 -3 -33 -6 -36 -45 -3 -35 -7 -43 -23 -43
-18 0 -19 8 -19 110 l0 111 58 -3 c43 -2 57 -7 57 -18z"/>
<path d="M720 965 c0 -23 4 -26 28 -23 19 2 27 9 27 23 0 14 -8 21 -27 23 -24
3 -28 0 -28 -23z"/>
<path d="M930 925 c0 -58 2 -65 19 -65 42 0 70 55 51 101 -10 23 -19 29 -41
29 -29 0 -29 0 -29 -65z"/>
<path d="M650 627 c0 -22 8 -41 21 -53 20 -18 40 -19 291 -19 l270 0 19 24
c10 13 19 36 19 52 l0 29 -310 0 -310 0 0 -33z"/>
</g>
</svg>
