<?xml version="1.0" standalone="no"?>
<!DOCTYPE svg PUBLIC "-//W3C//DTD SVG 20010904//EN"
 "http://www.w3.org/TR/2001/REC-SVG-20010904/DTD/svg10.dtd">
<svg version="1.0" xmlns="http://www.w3.org/2000/svg"
 width="192.000000pt" height="192.000000pt" viewBox="0 0 192.000000 192.000000"
 preserveAspectRatio="xMidYMid meet">
<metadata>
Created by potrace 1.16, written by Peter Selinger 2001-2019
</metadata>
<g transform="translate(0.000000,192.000000) scale(0.100000,-0.100000)"
fill="#000000" stroke="none">
811 c445 -92 729 -532 635 -987 -62 -301 -295 -546 -601 -630 -91 -26 -329
-26 -420 0 -291 80 -516 305 -596 596 -26 91 -26 329 0 420 120 433 542 692
982 601z"/>
<path d="M606 1369 l-26 -20 0 -375 0 -375 25 -24 c31 -31 66 -32 102 -1 26
22 27 29 31 123 l4 100 99 6 c108 6 146 20 183 70 19 26 21 44 24 209 4 195
-1 218 -46 261 -39 37 -91 47 -238 47 -118 0 -134 -2 -158 -21z m278 -155 c13
-12 16 -38 16 -119 0 -128 -5 -135 -96 -135 l-64 0 0 135 0 135 64 0 c45 0 69
-5 80 -16z"/>
<path d="M1237 1372 c-21 -23 -21 -41 -1 -70 28 -41 94 -16 94 36 0 47 -61 69
-93 34z"/>
<path d="M1235 1220 c-41 -45 18 -110 70 -76 26 17 32 45 15 77 -14 25 -62 25
-85 -1z"/>
<path d="M1252 1087 c-43 -19 -37 -88 8 -102 32 -10 70 20 70 54 0 43 -38 66
-78 48z"/>
<path d="M1240 930 c-24 -24 -26 -53 -4 -74 18 -19 65 -21 82 -4 20 20 14 65
-10 82 -30 21 -44 20 -68 -4z"/>
<path d="M1240 780 c-11 -11 -20 -28 -20 -38 0 -26 32 -52 63 -52 44 0 64 62
29 93 -25 22 -48 21 -72 -3z"/>
<path d="M1236 628 c-21 -29 -20 -51 2 -71 37 -33 92 -11 92 37 0 51 -66 74
-94 34z"/>
</g>
</svg>
