<?xml version="1.0" standalone="no"?>
<!DOCTYPE svg PUBLIC "-//W3C//DTD SVG 20010904//EN"
 "http://www.w3.org/TR/2001/REC-SVG-20010904/DTD/svg10.dtd">
<svg version="1.0" xmlns="http://www.w3.org/2000/svg"
 width="192.000000pt" height="192.000000pt" viewBox="0 0 192.000000 192.000000"
 preserveAspectRatio="xMidYMid meet">
<metadata>
Created by potrace 1.16, written by Peter Selinger 2001-2019
</metadata>
<g transform="translate(0.000000,192.000000) scale(0.100000,-0.100000)"
fill="#000000" stroke="none">
811 c445 -92 729 -532 635 -987 -62 -301 -295 -546 -601 -630 -91 -26 -329
-26 -420 0 -291 80 -516 305 -596 596 -26 91 -26 329 0 420 120 433 542 692
982 601z"/>
<path d="M580 1296 c0 -76 21 -110 78 -126 20 -5 125 -10 232 -10 161 0 200
-3 218 -16 28 -19 29 -67 2 -94 -19 -19 -33 -20 -205 -20 l-185 0 -29 -27
c-25 -24 -36 -51 -66 -166 -20 -76 -37 -152 -37 -168 -2 -79 70 -121 142 -84
30 16 39 36 82 200 l14 50 164 5 c185 6 202 11 270 81 100 103 91 277 -20 372
-73 62 -101 67 -397 67 l-263 0 0 -64z"/>
</g>
</svg>
