<?xml version="1.0" standalone="no"?>
<!DOCTYPE svg PUBLIC "-//W3C//DTD SVG 20010904//EN"
 "http://www.w3.org/TR/2001/REC-SVG-20010904/DTD/svg10.dtd">
<svg version="1.0" xmlns="http://www.w3.org/2000/svg"
 width="192.000000pt" height="192.000000pt" viewBox="0 0 192.000000 192.000000"
 preserveAspectRatio="xMidYMid meet">
<metadata>
Created by potrace 1.16, written by Peter Selinger 2001-2019
</metadata>
<g transform="translate(0.000000,192.000000) scale(0.100000,-0.100000)"
fill="#000000" stroke="none">
811 c445 -92 729 -532 635 -987 -62 -301 -295 -546 -601 -630 -91 -26 -329
-26 -420 0 -291 80 -516 305 -596 596 -26 91 -26 329 0 420 120 433 542 692
982 601z"/>
<path d="M1095 1349 c-50 -44 -74 -161 -60 -291 l7 -64 64 -23 c35 -12 68 -20
74 -16 16 10 66 113 84 174 31 105 17 185 -40 230 -39 31 -86 27 -129 -10z"/>
<path d="M691 1134 c-30 -21 -61 -89 -61 -135 0 -76 83 -280 113 -278 7 0 39
10 72 22 l60 22 0 135 c-1 120 -3 140 -23 177 -35 67 -109 93 -161 57z"/>
<path d="M1005 960 c-38 -39 -46 -114 -17 -150 27 -33 82 -33 118 1 44 41 69
121 42 132 -7 3 -36 14 -64 25 l-51 21 -28 -29z"/>
<path d="M810 727 c-64 -26 -72 -45 -41 -106 39 -75 110 -96 151 -43 27 33 23
100 -7 141 -26 34 -37 35 -103 8z"/>
</g>
</svg>
