<?xml version="1.0" standalone="no"?>
<!DOCTYPE svg PUBLIC "-//W3C//DTD SVG 20010904//EN"
 "http://www.w3.org/TR/2001/REC-SVG-20010904/DTD/svg10.dtd">
<svg version="1.0" xmlns="http://www.w3.org/2000/svg"
 width="192.000000pt" height="192.000000pt" viewBox="0 0 192.000000 192.000000"
 preserveAspectRatio="xMidYMid meet">
<metadata>
Created by potrace 1.16, written by Peter Selinger 2001-2019
</metadata>
<g transform="translate(0.000000,192.000000) scale(0.100000,-0.100000)"
fill="#000000" stroke="none">
811 c445 -92 729 -532 635 -987 -62 -301 -295 -546 -601 -630 -91 -26 -329
-26 -420 0 -291 80 -516 305 -596 596 -26 91 -26 329 0 420 120 433 542 692
982 601z"/>
<path d="M735 1326 c-32 -32 -40 -69 -25 -107 47 -113 218 -49 180 67 -22 64
-108 87 -155 40z"/>
<path d="M1049 1321 c-21 -22 -29 -39 -29 -66 0 -51 44 -95 95 -95 51 0 95 44
95 95 0 27 -8 44 -29 66 -22 21 -39 29 -66 29 -27 0 -44 -8 -66 -29z"/>
<path d="M735 1121 c-48 -22 -69 -44 -90 -94 -19 -46 -19 -98 0 -145 10 -22
69 -90 148 -169 112 -113 136 -133 163 -133 26 0 50 20 171 143 153 155 161
169 150 263 -10 92 -101 161 -200 151 -66 -6 -82 -26 -59 -73 15 -32 19 -34
63 -34 56 0 86 -21 95 -68 6 -31 1 -38 -107 -147 l-113 -115 -33 31 -32 32 44
49 c51 57 69 104 62 164 -14 124 -147 198 -262 145z m135 -111 c33 -33 26 -83
-17 -130 l-36 -41 -38 37 c-21 20 -40 47 -43 60 -7 26 15 79 36 87 31 13 79 6
98 -13z"/>
</g>
</svg>
