<?xml version="1.0" standalone="no"?>
<!DOCTYPE svg PUBLIC "-//W3C//DTD SVG 20010904//EN"
 "http://www.w3.org/TR/2001/REC-SVG-20010904/DTD/svg10.dtd">
<svg version="1.0" xmlns="http://www.w3.org/2000/svg"
 width="192.000000pt" height="192.000000pt" viewBox="0 0 192.000000 192.000000"
 preserveAspectRatio="xMidYMid meet">
<metadata>
Created by potrace 1.16, written by Peter Selinger 2001-2019
</metadata>
<g transform="translate(0.000000,192.000000) scale(0.100000,-0.100000)"
fill="#000000" stroke="none">
811 c445 -92 729 -532 635 -987 -62 -301 -295 -546 -601 -630 -91 -26 -329
-26 -420 0 -291 80 -516 305 -596 596 -26 91 -26 329 0 420 120 433 542 692
982 601z"/>
<path d="M1118 1345 c-29 -16 -48 -65 -48 -123 l0 -33 -142 2 c-115 2 -149 0
-173 -13 -26 -14 -32 -14 -43 -2 -17 19 -60 8 -94 -24 l-28 -26 0 -261 c0
-241 1 -263 18 -278 23 -21 62 -22 88 -3 17 13 19 31 24 218 5 221 12 248 66
268 83 32 162 -69 121 -156 -24 -49 -56 -66 -119 -62 l-53 3 -3 -42 c-3 -39 0
-44 30 -63 65 -40 164 -16 225 53 55 63 72 152 47 245 -5 18 -2 22 15 22 20 0
21 -4 21 -146 0 -175 10 -203 71 -204 14 0 34 9 45 21 17 18 19 40 22 175 3
152 4 154 27 160 33 8 66 46 68 80 2 28 1 29 -51 32 -51 3 -53 4 -50 30 4 32
37 42 58 17 19 -23 39 -18 51 12 15 39 3 71 -34 93 -39 24 -119 26 -159 5z"/>
</g>
</svg>
