<?xml version="1.0" standalone="no"?>
<!DOCTYPE svg PUBLIC "-//W3C//DTD SVG 20010904//EN"
 "http://www.w3.org/TR/2001/REC-SVG-20010904/DTD/svg10.dtd">
<svg version="1.0" xmlns="http://www.w3.org/2000/svg"
 width="192.000000pt" height="192.000000pt" viewBox="0 0 192.000000 192.000000"
 preserveAspectRatio="xMidYMid meet">
<metadata>
Created by potrace 1.16, written by Peter Selinger 2001-2019
</metadata>
<g transform="translate(0.000000,192.000000) scale(0.100000,-0.100000)"
fill="#000000" stroke="none">
811 c445 -92 729 -532 635 -987 -62 -301 -295 -546 -601 -630 -91 -26 -329
-26 -420 0 -291 80 -516 305 -596 596 -26 91 -26 329 0 420 120 433 542 692
982 601z"/>
<path d="M1120 1256 c-32 -12 -35 -16 -38 -59 -3 -44 -5 -46 -35 -49 -31 -3
-32 -4 -32 -53 0 -48 1 -50 30 -55 l30 -5 5 -141 c5 -150 13 -176 65 -210 33
-21 140 -31 160 -14 9 8 15 29 15 55 0 47 -9 55 -64 55 -51 0 -56 12 -56 142
l0 117 58 3 57 3 0 50 0 50 -57 3 -58 3 0 47 c0 46 -13 73 -34 71 -6 0 -27 -6
-46 -13z"/>
<path d="M597 1223 c-4 -3 -7 -126 -7 -273 0 -193 3 -269 12 -278 7 -7 26 -12
44 -12 62 0 64 3 64 111 l0 99 78 0 c87 0 133 17 166 63 29 39 30 188 3 230
-37 57 -69 67 -218 67 -75 0 -139 -3 -142 -7z m248 -173 l0 -55 -67 -3 -68 -3
0 61 0 61 68 -3 67 -3 0 -55z"/>
</g>
</svg>
