<?xml version="1.0" standalone="no"?>
<!DOCTYPE svg PUBLIC "-//W3C//DTD SVG 20010904//EN"
 "http://www.w3.org/TR/2001/REC-SVG-20010904/DTD/svg10.dtd">
<svg version="1.0" xmlns="http://www.w3.org/2000/svg"
 width="192.000000pt" height="192.000000pt" viewBox="0 0 192.000000 192.000000"
 preserveAspectRatio="xMidYMid meet">
<metadata>
Created by potrace 1.16, written by Peter Selinger 2001-2019
</metadata>
<g transform="translate(0.000000,192.000000) scale(0.100000,-0.100000)"
fill="#000000" stroke="none">
811 c445 -92 729 -532 635 -987 -62 -301 -295 -546 -601 -630 -91 -26 -329
-26 -420 0 -291 80 -516 305 -596 596 -26 91 -26 329 0 420 120 433 542 692
982 601z"/>
<path d="M847 1355 c-54 -20 -122 -72 -151 -114 -113 -163 -55 -387 159 -608
92 -96 102 -96 195 -2 183 185 257 382 200 533 -28 72 -87 139 -155 174 -62
31 -187 40 -248 17z m194 -159 c117 -80 72 -264 -69 -283 -53 -7 -124 26 -152
71 -20 33 -27 106 -14 140 5 13 9 13 33 -5 55 -40 114 19 77 76 l-16 25 52 0
c40 0 62 -6 89 -24z"/>
</g>
</svg>
