<?xml version="1.0" standalone="no"?>
<!DOCTYPE svg PUBLIC "-//W3C//DTD SVG 20010904//EN"
 "http://www.w3.org/TR/2001/REC-SVG-20010904/DTD/svg10.dtd">
<svg version="1.0" xmlns="http://www.w3.org/2000/svg"
 width="192.000000pt" height="192.000000pt" viewBox="0 0 192.000000 192.000000"
 preserveAspectRatio="xMidYMid meet">
<metadata>
Created by potrace 1.16, written by Peter Selinger 2001-2019
</metadata>
<g transform="translate(0.000000,192.000000) scale(0.100000,-0.100000)"
fill="#000000" stroke="none">
811 c445 -92 729 -532 635 -987 -62 -301 -295 -546 -601 -630 -91 -26 -329
-26 -420 0 -291 80 -516 305 -596 596 -26 91 -26 329 0 420 120 433 542 692
982 601z"/>
<path d="M697 1373 c-4 -3 -7 -55 -7 -114 l0 -108 -42 -3 -43 -3 0 -190 0
-190 48 -3 47 -3 0 -99 c0 -57 4 -102 10 -105 6 -4 54 35 108 86 l97 92 5 -83
c4 -63 9 -85 22 -93 32 -21 48 8 48 89 0 41 4 74 8 74 4 0 49 -39 100 -86 50
-47 96 -83 102 -79 6 3 10 49 10 106 l0 99 38 0 c64 0 63 -3 60 201 l-3 184
-32 3 -32 3 -3 111 c-2 72 -7 113 -14 115 -7 2 -59 -37 -117 -87 -58 -49 -108
-90 -111 -90 -3 0 -6 38 -6 84 0 74 -2 85 -19 91 -42 13 -51 -2 -51 -86 0 -43
-4 -79 -9 -79 -4 0 -49 38 -99 85 -88 83 -102 92 -115 78z m463 -183 l0 -40
-47 0 -48 0 45 40 c25 21 46 39 48 40 1 0 2 -18 2 -40z m-311 -37 c2 -2 -14
-3 -37 -3 -42 0 -42 0 -42 37 l0 37 37 -35 c21 -18 40 -35 42 -36z m-67 -167
c-61 -62 -82 -90 -82 -110 0 -14 -4 -26 -10 -26 -6 0 -10 43 -10 110 l0 110
92 0 92 0 -82 -84z m448 -26 c0 -67 -4 -110 -10 -110 -5 0 -10 10 -10 23 0 15
-29 54 -81 110 l-81 87 91 0 91 0 0 -110z m-310 -37 l0 -78 -70 -65 -70 -65 0
80 0 79 62 63 c34 35 66 63 70 63 4 0 8 -35 8 -77z m149 8 l61 -69 0 -78 0
-78 -70 69 -70 69 0 78 c0 43 4 78 9 78 5 0 36 -31 70 -69z"/>
</g>
</svg>
