<?xml version="1.0" standalone="no"?>
<!DOCTYPE svg PUBLIC "-//W3C//DTD SVG 20010904//EN"
 "http://www.w3.org/TR/2001/REC-SVG-20010904/DTD/svg10.dtd">
<svg version="1.0" xmlns="http://www.w3.org/2000/svg"
 width="192.000000pt" height="192.000000pt" viewBox="0 0 192.000000 192.000000"
 preserveAspectRatio="xMidYMid meet">
<metadata>
Created by potrace 1.16, written by Peter Selinger 2001-2019
</metadata>
<g transform="translate(0.000000,192.000000) scale(0.100000,-0.100000)"
fill="#000000" stroke="none">
811 c445 -92 729 -532 635 -987 -62 -301 -295 -546 -601 -630 -91 -26 -329
-26 -420 0 -291 80 -516 305 -596 596 -26 91 -26 329 0 420 120 433 542 692
982 601z"/>
<path d="M763 1258 c-63 -62 -122 -127 -129 -145 -10 -24 -14 -81 -13 -220 1
-229 11 -265 91 -313 35 -20 46 -21 255 -18 212 3 219 4 252 27 66 47 71 73
71 376 0 303 -5 329 -71 376 -32 22 -44 24 -187 27 l-154 3 -115 -113z m196
-32 c7 -9 11 -40 9 -78 -3 -63 -3 -63 -33 -63 -30 0 -30 0 -33 63 -3 63 7 92
33 92 7 0 18 -6 24 -14z m109 2 c14 -14 16 -116 3 -136 -4 -8 -19 -12 -32 -10
-22 3 -24 8 -27 66 -4 80 21 115 56 80z m106 -4 c20 -19 21 -103 3 -128 -7
-10 -22 -17 -33 -14 -16 3 -19 13 -22 72 -2 49 1 72 10 77 18 12 24 11 42 -7z"/>
</g>
</svg>
