<?xml version="1.0" standalone="no"?>
<!DOCTYPE svg PUBLIC "-//W3C//DTD SVG 20010904//EN"
 "http://www.w3.org/TR/2001/REC-SVG-20010904/DTD/svg10.dtd">
<svg version="1.0" xmlns="http://www.w3.org/2000/svg"
 width="192.000000pt" height="192.000000pt" viewBox="0 0 192.000000 192.000000"
 preserveAspectRatio="xMidYMid meet">
<metadata>
Created by potrace 1.16, written by Peter Selinger 2001-2019
</metadata>
<g transform="translate(0.000000,192.000000) scale(0.100000,-0.100000)"
fill="#000000" stroke="none">
811 c445 -92 729 -532 635 -987 -62 -301 -295 -546 -601 -630 -91 -26 -329
-26 -420 0 -291 80 -516 305 -596 596 -26 91 -26 329 0 420 120 433 542 692
982 601z"/>
<path d="M833 1356 c-104 -34 -204 -123 -251 -224 -24 -51 -27 -69 -27 -167 0
-100 2 -115 28 -167 43 -88 107 -152 195 -195 73 -36 80 -38 177 -38 94 0 105
2 170 34 88 44 153 109 196 197 31 64 34 76 34 169 0 97 -2 104 -38 177 -43
89 -107 152 -195 194 -47 23 -73 28 -152 31 -61 2 -110 -2 -137 -11z m251 -64
c35 -16 47 -26 44 -39 -5 -28 -160 -39 -205 -16 -35 19 -43 48 -20 72 17 19
122 8 181 -17z m-240 -14 c-3 -13 -10 -24 -15 -26 -4 -2 -26 -16 -48 -33 -39
-28 -91 -39 -91 -20 0 11 88 77 121 90 36 15 41 13 33 -11z m314 -115 c11 -16
27 -43 36 -60 16 -32 16 -34 -14 -86 -30 -54 -31 -54 -88 -61 -35 -4 -58 -3
-60 3 -2 6 -20 32 -41 57 l-38 47 15 58 c16 64 17 65 114 68 51 1 58 -2 76
-26z m-419 -56 c13 -36 12 -40 -17 -100 -16 -34 -33 -70 -36 -80 -5 -14 -14
-18 -43 -15 -36 3 -38 5 -41 42 -4 42 10 107 33 163 13 31 18 34 52 31 33 -3
39 -7 52 -41z m564 -102 c8 -41 4 -81 -15 -147 -9 -30 -16 -38 -34 -38 -56 0
-80 88 -44 161 31 61 40 70 64 67 15 -2 22 -14 29 -43z m-361 -2 c57 -60 62
-75 42 -137 -19 -61 -29 -66 -138 -66 l-61 0 -34 50 -34 50 32 64 c35 71 23
65 136 74 13 1 35 -13 57 -35z m287 -255 c-33 -45 -141 -120 -154 -106 -13 13
19 65 50 82 19 10 43 29 55 41 14 15 29 21 45 17 l25 -4 -21 -30z m-216 -3
c31 -28 33 -39 12 -89 l-15 -36 -65 0 c-82 0 -180 34 -170 58 4 10 9 29 12 45
5 24 10 27 47 28 22 0 61 4 86 8 25 5 50 9 55 9 6 1 22 -10 38 -23z"/>
</g>
</svg>
