<?xml version="1.0" standalone="no"?>
<!DOCTYPE svg PUBLIC "-//W3C//DTD SVG 20010904//EN"
 "http://www.w3.org/TR/2001/REC-SVG-20010904/DTD/svg10.dtd">
<svg version="1.0" xmlns="http://www.w3.org/2000/svg"
 width="192.000000pt" height="192.000000pt" viewBox="0 0 192.000000 192.000000"
 preserveAspectRatio="xMidYMid meet">
<metadata>
Created by potrace 1.16, written by Peter Selinger 2001-2019
</metadata>
<g transform="translate(0.000000,192.000000) scale(0.100000,-0.100000)"
fill="#000000" stroke="none">
811 c445 -92 729 -532 635 -987 -62 -301 -295 -546 -601 -630 -91 -26 -329
-26 -420 0 -291 80 -516 305 -596 596 -26 91 -26 329 0 420 120 433 542 692
982 601z"/>
<path d="M957 1330 c-56 -44 -59 -134 -6 -195 56 -63 144 -53 175 20 19 45 17
71 -5 122 -32 69 -111 94 -164 53z"/>
<path d="M697 1259 c-102 -79 -3 -277 114 -228 84 34 91 166 14 227 -36 28
-94 29 -128 1z"/>
<path d="M1205 1171 c-53 -22 -81 -108 -55 -171 38 -92 154 -109 195 -30 55
106 -40 242 -140 201z"/>
<path d="M600 1003 c-31 -21 -38 -30 -49 -70 -14 -49 3 -103 43 -140 47 -43
93 -45 137 -5 102 91 -20 291 -131 215z"/>
<path d="M934 966 c-44 -19 -69 -56 -98 -144 -36 -108 -35 -153 7 -198 45 -50
93 -54 217 -20 79 21 101 32 128 61 26 29 32 43 32 80 0 61 -17 90 -87 151
-95 83 -135 97 -199 70z"/>
</g>
</svg>
