<?xml version="1.0" standalone="no"?>
<!DOCTYPE svg PUBLIC "-//W3C//DTD SVG 20010904//EN"
 "http://www.w3.org/TR/2001/REC-SVG-20010904/DTD/svg10.dtd">
<svg version="1.0" xmlns="http://www.w3.org/2000/svg"
 width="192.000000pt" height="192.000000pt" viewBox="0 0 192.000000 192.000000"
 preserveAspectRatio="xMidYMid meet">
<metadata>
Created by potrace 1.16, written by Peter Selinger 2001-2019
</metadata>
<g transform="translate(0.000000,192.000000) scale(0.100000,-0.100000)"
fill="#000000" stroke="none">
811 c445 -92 729 -532 635 -987 -62 -301 -295 -546 -601 -630 -91 -26 -329
-26 -420 0 -291 80 -516 305 -596 596 -26 91 -26 329 0 420 120 433 542 692
982 601z"/>
<path d="M1009 1296 c-173 -48 -360 -218 -451 -412 -28 -58 -33 -81 -33 -141
0 -92 19 -117 92 -117 62 1 116 29 176 93 l47 50 0 -29 c0 -57 58 -85 124 -60
14 5 46 28 71 51 30 28 45 36 45 26 0 -24 40 -47 69 -40 101 23 191 189 191
353 0 66 -4 86 -28 131 -50 96 -166 132 -303 95z m75 -169 c22 -16 18 -75 -6
-91 -42 -26 -79 52 -43 88 20 19 26 20 49 3z m140 -3 c19 -18 21 -65 4 -82
-34 -34 -87 13 -69 61 9 22 22 34 43 36 4 1 14 -6 22 -15z"/>
</g>
</svg>
