<?xml version="1.0" standalone="no"?>
<!DOCTYPE svg PUBLIC "-//W3C//DTD SVG 20010904//EN"
 "http://www.w3.org/TR/2001/REC-SVG-20010904/DTD/svg10.dtd">
<svg version="1.0" xmlns="http://www.w3.org/2000/svg"
 width="192.000000pt" height="192.000000pt" viewBox="0 0 192.000000 192.000000"
 preserveAspectRatio="xMidYMid meet">
<metadata>
Created by potrace 1.16, written by Peter Selinger 2001-2019
</metadata>
<g transform="translate(0.000000,192.000000) scale(0.100000,-0.100000)"
fill="#000000" stroke="none">
811 c445 -92 729 -532 635 -987 -62 -301 -295 -546 -601 -630 -91 -26 -329
-26 -420 0 -291 80 -516 305 -596 596 -26 91 -26 329 0 420 120 433 542 692
982 601z"/>
<path d="M845 1367 c-118 -40 -207 -117 -258 -225 -30 -63 -32 -74 -32 -177 0
-105 2 -114 33 -178 104 -210 345 -294 550 -190 74 37 164 136 192 210 65 167
16 371 -114 478 -74 60 -149 89 -246 92 -52 2 -101 -2 -125 -10z m144 -73 l32
-7 -52 -28 c-72 -40 -153 -104 -199 -158 -22 -25 -42 -42 -46 -38 -4 4 -9 31
-12 60 -3 41 0 57 16 77 26 33 110 79 164 89 58 12 61 12 97 5z m194 -94 c59
-47 112 -209 93 -286 -7 -26 -8 -24 -35 32 -36 76 -111 174 -163 216 l-41 32
29 13 c43 18 88 16 117 -7z m-140 -123 c29 -28 63 -66 75 -84 l23 -32 -89 -92
c-78 -80 -92 -90 -109 -81 -26 14 -123 110 -151 149 l-21 30 49 60 c27 33 68
74 91 91 49 37 55 35 132 -41z m-250 -263 l77 -82 -46 -11 c-36 -9 -54 -9 -75
0 -35 14 -85 87 -104 153 -16 52 -20 138 -8 150 4 3 23 -24 42 -61 22 -41 67
-101 114 -149z m405 -8 c4 -53 3 -57 -29 -87 -59 -55 -105 -72 -204 -76 l-90
-4 70 38 c45 24 98 66 150 118 44 44 84 77 89 73 5 -4 11 -32 14 -62z"/>
</g>
</svg>
