<?xml version="1.0" standalone="no"?>
<!DOCTYPE svg PUBLIC "-//W3C//DTD SVG 20010904//EN"
 "http://www.w3.org/TR/2001/REC-SVG-20010904/DTD/svg10.dtd">
<svg version="1.0" xmlns="http://www.w3.org/2000/svg"
 width="192.000000pt" height="192.000000pt" viewBox="0 0 192.000000 192.000000"
 preserveAspectRatio="xMidYMid meet">
<metadata>
Created by potrace 1.16, written by Peter Selinger 2001-2019
</metadata>
<g transform="translate(0.000000,192.000000) scale(0.100000,-0.100000)"
fill="#000000" stroke="none">
811 c445 -92 729 -532 635 -987 -62 -301 -295 -546 -601 -630 -91 -26 -329
-26 -420 0 -291 80 -516 305 -596 596 -26 91 -26 329 0 420 120 433 542 692
982 601z"/>
<path d="M948 1366 c-60 -22 -89 -44 -242 -193 -116 -112 -146 -147 -146 -168
0 -59 46 -94 98 -74 15 6 88 70 162 144 74 74 148 138 163 144 141 54 253 -89
165 -210 -48 -66 -43 -91 31 -161 71 -67 111 -76 149 -35 29 31 28 69 -4 106
-26 31 -26 32 -10 71 24 61 21 164 -8 225 -28 62 -101 128 -163 149 -56 19
-144 20 -195 2z"/>
<path d="M827 911 c-44 -44 -77 -87 -77 -99 0 -10 9 -31 21 -46 31 -39 78 -36
128 9 21 19 43 35 48 35 5 0 27 -18 48 -40 l39 -40 -42 -40 c-58 -56 -57 -110
2 -135 43 -18 69 -5 149 73 57 57 67 71 67 102 0 31 -11 45 -117 147 -153 146
-157 146 -266 34z"/>
</g>
</svg>
