<?xml version="1.0" standalone="no"?>
<!DOCTYPE svg PUBLIC "-//W3C//DTD SVG 20010904//EN"
 "http://www.w3.org/TR/2001/REC-SVG-20010904/DTD/svg10.dtd">
<svg version="1.0" xmlns="http://www.w3.org/2000/svg"
 width="192.000000pt" height="192.000000pt" viewBox="0 0 192.000000 192.000000"
 preserveAspectRatio="xMidYMid meet">
<metadata>
Created by potrace 1.16, written by Peter Selinger 2001-2019
</metadata>
<g transform="translate(0.000000,192.000000) scale(0.100000,-0.100000)"
fill="#000000" stroke="none">
811 c445 -92 729 -532 635 -987 -62 -301 -295 -546 -601 -630 -91 -26 -329
-26 -420 0 -291 80 -516 305 -596 596 -26 91 -26 329 0 420 120 433 542 692
982 601z"/>
<path d="M839 1352 c-109 -36 -193 -114 -246 -228 -25 -52 -28 -71 -28 -159 0
-91 3 -106 31 -165 84 -176 250 -263 381 -199 143 69 180 294 64 392 -18 15
-41 27 -51 27 -17 0 -18 -4 -8 -31 14 -40 3 -102 -28 -160 -35 -63 -76 -92
-141 -97 -49 -4 -55 -2 -87 30 -63 63 -71 179 -22 301 26 64 14 78 -24 30 -20
-26 -20 -25 2 16 48 90 146 147 275 160 75 7 77 8 48 20 -19 8 -55 11 -99 8
-54 -4 -65 -2 -50 7 23 13 210 15 272 2 59 -12 56 9 -5 36 -67 30 -207 35
-284 10z"/>
<path d="M859 1187 c-50 -34 -79 -82 -79 -133 0 -50 -15 -57 -33 -16 -11 26
-12 25 -15 -26 -2 -43 2 -62 24 -100 l27 -47 -32 29 -31 30 0 -46 c0 -64 40
-108 99 -108 33 0 47 7 80 38 22 20 43 50 46 65 6 23 1 33 -38 71 -56 54 -67
97 -43 160 9 24 28 53 41 66 14 13 25 27 25 32 0 15 -37 8 -71 -15z"/>
<path d="M1224 1057 c1 -99 0 -105 -29 -146 -16 -24 -37 -55 -46 -68 -9 -14
-22 -51 -28 -84 -14 -69 -59 -134 -114 -164 -52 -28 -46 -39 16 -31 57 8 190
65 169 73 -9 3 0 14 23 30 34 23 95 97 95 115 0 5 -10 3 -22 -3 -21 -10 -20
-9 4 17 38 40 58 94 58 154 0 58 -21 69 -39 20 -5 -16 -11 -30 -13 -30 -2 0
-3 30 -3 68 0 72 -28 144 -57 150 -13 2 -15 -14 -14 -101z"/>
<path d="M979 1043 c-12 -15 -12 -16 3 -10 10 3 31 2 47 -4 22 -8 36 -7 53 2
l23 13 -30 7 c-53 12 -82 9 -96 -8z"/>
</g>
</svg>
