<?xml version="1.0" standalone="no"?>
<!DOCTYPE svg PUBLIC "-//W3C//DTD SVG 20010904//EN"
 "http://www.w3.org/TR/2001/REC-SVG-20010904/DTD/svg10.dtd">
<svg version="1.0" xmlns="http://www.w3.org/2000/svg"
 width="192.000000pt" height="192.000000pt" viewBox="0 0 192.000000 192.000000"
 preserveAspectRatio="xMidYMid meet">
<metadata>
Created by potrace 1.16, written by Peter Selinger 2001-2019
</metadata>
<g transform="translate(0.000000,192.000000) scale(0.100000,-0.100000)"
fill="#000000" stroke="none">
811 c445 -92 729 -532 635 -987 -62 -301 -295 -546 -601 -630 -91 -26 -329
-26 -420 0 -291 80 -516 305 -596 596 -26 91 -26 329 0 420 120 433 542 692
982 601z"/>
<path d="M755 1333 c-11 -2 -30 -6 -42 -9 -34 -7 -94 -64 -114 -109 -16 -34
-19 -68 -19 -245 0 -220 6 -262 47 -310 54 -65 78 -70 325 -70 251 0 282 7
331 72 41 53 49 118 45 336 -4 218 -8 234 -72 290 -21 18 -54 34 -86 41 -48
10 -371 14 -415 4z m79 -130 c-9 -27 -13 -97 -13 -243 0 -146 4 -216 13 -242
l14 -38 -39 0 c-50 0 -104 22 -118 48 -7 13 -11 101 -11 237 l0 217 29 29 c25
25 37 29 84 29 l55 0 -14 -37z"/>
</g>
</svg>
