<?xml version="1.0" standalone="no"?>
<!DOCTYPE svg PUBLIC "-//W3C//DTD SVG 20010904//EN"
 "http://www.w3.org/TR/2001/REC-SVG-20010904/DTD/svg10.dtd">
<svg version="1.0" xmlns="http://www.w3.org/2000/svg"
 width="192.000000pt" height="192.000000pt" viewBox="0 0 192.000000 192.000000"
 preserveAspectRatio="xMidYMid meet">
<metadata>
Created by potrace 1.16, written by Peter Selinger 2001-2019
</metadata>
<g transform="translate(0.000000,192.000000) scale(0.100000,-0.100000)"
fill="#000000" stroke="none">
810 c245 -63 441 -223 549 -451 55 -116 75 -212 75 -354 0 -141 -20 -238 -75
-352 -86 -182 -215 -312 -396 -398 -116 -55 -212 -75 -354 -75 -142 0 -238 20
-354 75 -228 108 -388 304 -451 549 -28 110 -28 292 0 402 76 298 303 526 600
603 106 28 298 28 406 1z"/>
<path d="M621 1366 c-49 -27 -50 -37 -51 -408 0 -197 4 -358 10 -372 18 -48
53 -56 239 -56 167 0 170 0 200 25 47 40 56 153 14 169 -26 10 -43 -20 -43
-75 0 -33 -4 -49 -16 -53 -31 -12 -319 -7 -332 6 -9 9 -12 101 -12 354 0 286
2 343 15 354 21 18 48 8 63 -23 13 -26 15 -27 102 -27 89 0 90 0 105 30 15 30
29 35 59 24 12 -5 16 -21 16 -74 0 -66 14 -100 40 -100 32 0 41 124 12 180 -9
19 -28 40 -42 47 -36 18 -346 17 -379 -1z"/>
<path d="M1145 1123 c-16 -9 -55 -24 -85 -33 l-55 -16 -3 -115 c-2 -75 1 -122
9 -137 13 -23 143 -112 164 -112 28 0 162 98 174 127 7 18 11 67 9 132 l-3
104 -55 14 c-30 7 -70 23 -88 33 -18 11 -34 20 -35 20 -1 -1 -15 -8 -32 -17z
m119 -149 c6 -15 -53 -88 -85 -105 -14 -7 -26 -3 -51 20 -28 25 -31 31 -19 45
8 10 21 14 33 10 12 -4 30 5 53 25 35 30 59 32 69 5z"/>
</g>
</svg>
