<?xml version="1.0" standalone="no"?>
<!DOCTYPE svg PUBLIC "-//W3C//DTD SVG 20010904//EN"
 "http://www.w3.org/TR/2001/REC-SVG-20010904/DTD/svg10.dtd">
<svg version="1.0" xmlns="http://www.w3.org/2000/svg"
 width="192.000000pt" height="192.000000pt" viewBox="0 0 192.000000 192.000000"
 preserveAspectRatio="xMidYMid meet">
<metadata>
Created by potrace 1.16, written by Peter Selinger 2001-2019
</metadata>
<g transform="translate(0.000000,192.000000) scale(0.100000,-0.100000)"
fill="#000000" stroke="none">
811 c445 -92 729 -532 635 -987 -62 -301 -295 -546 -601 -630 -91 -26 -329
-26 -420 0 -291 80 -516 305 -596 596 -26 91 -26 329 0 420 120 433 542 692
982 601z"/>
<path d="M859 1344 c-43 -18 -110 -41 -150 -49 -134 -28 -146 -48 -130 -211
14 -143 43 -255 82 -315 69 -108 212 -209 297 -209 95 0 252 122 312 243 35
72 58 182 67 317 6 92 5 96 -20 126 -21 25 -40 33 -108 48 -45 10 -117 33
-159 52 -43 19 -87 34 -97 33 -10 0 -52 -16 -94 -35z m255 -260 c34 -13 14
-47 -85 -142 -56 -53 -105 -98 -110 -100 -10 -4 -116 94 -130 120 -5 9 -6 24
-3 32 11 28 47 17 91 -26 l43 -43 83 83 c85 86 86 86 111 76z"/>
</g>
</svg>
