<?xml version="1.0" standalone="no"?>
<!DOCTYPE svg PUBLIC "-//W3C//DTD SVG 20010904//EN"
 "http://www.w3.org/TR/2001/REC-SVG-20010904/DTD/svg10.dtd">
<svg version="1.0" xmlns="http://www.w3.org/2000/svg"
 width="192.000000pt" height="192.000000pt" viewBox="0 0 192.000000 192.000000"
 preserveAspectRatio="xMidYMid meet">
<metadata>
Created by potrace 1.16, written by Peter Selinger 2001-2019
</metadata>
<g transform="translate(0.000000,192.000000) scale(0.100000,-0.100000)"
fill="#000000" stroke="none">
811 c445 -92 729 -532 635 -987 -62 -301 -295 -546 -601 -630 -91 -26 -329
-26 -420 0 -291 80 -516 305 -596 596 -26 91 -26 329 0 420 120 433 542 692
982 601z"/>
<path d="M870 1423 c-22 -8 -40 -34 -40 -58 0 -12 29 -62 64 -111 l64 -89
-138 -5 c-152 -6 -170 -12 -170 -65 0 -36 26 -65 58 -65 21 0 22 -4 22 -107 0
-120 15 -167 66 -215 39 -36 74 -48 140 -48 l54 0 0 -39 c0 -81 75 -121 119
-65 20 25 21 39 21 250 l0 224 24 0 c51 0 79 58 49 99 -16 20 -31 27 -69 31
l-48 5 -76 122 c-42 68 -85 126 -98 132 -13 6 -24 11 -25 10 -1 0 -9 -3 -17
-6z m120 -497 c0 -97 -2 -106 -22 -120 -33 -23 -64 -19 -87 10 -18 23 -21 41
-21 120 l0 94 65 0 65 0 0 -104z"/>
</g>
</svg>
