<?xml version="1.0" standalone="no"?>
<!DOCTYPE svg PUBLIC "-//W3C//DTD SVG 20010904//EN"
 "http://www.w3.org/TR/2001/REC-SVG-20010904/DTD/svg10.dtd">
<svg version="1.0" xmlns="http://www.w3.org/2000/svg"
 width="192.000000pt" height="192.000000pt" viewBox="0 0 192.000000 192.000000"
 preserveAspectRatio="xMidYMid meet">
<metadata>
Created by potrace 1.16, written by Peter Selinger 2001-2019
</metadata>
<g transform="translate(0.000000,192.000000) scale(0.100000,-0.100000)"
fill="#000000" stroke="none">
811 c445 -92 729 -532 635 -987 -62 -301 -295 -546 -601 -630 -91 -26 -329
-26 -420 0 -291 80 -516 305 -596 596 -26 91 -26 329 0 420 120 433 542 692
982 601z"/>
<path d="M837 1352 c-29 -32 -20 -70 33 -143 l50 -69 -108 0 c-101 0 -110 -2
-131 -24 -33 -35 -26 -85 16 -111 32 -20 32 -21 33 -103 0 -85 15 -139 48
-175 29 -32 89 -57 137 -57 44 0 45 -1 45 -31 0 -44 51 -93 88 -85 58 14 62
29 62 242 l0 194 25 6 c30 8 55 40 55 72 0 35 -43 72 -85 72 -33 0 -38 4 -94
93 -88 137 -88 137 -125 137 -19 0 -40 -8 -49 -18z m121 -443 c-2 -65 -7 -84
-20 -93 -13 -8 -23 -8 -35 0 -14 9 -19 28 -21 93 l-3 81 41 0 41 0 -3 -81z"/>
</g>
</svg>
