<?xml version="1.0" standalone="no"?>
<!DOCTYPE svg PUBLIC "-//W3C//DTD SVG 20010904//EN"
 "http://www.w3.org/TR/2001/REC-SVG-20010904/DTD/svg10.dtd">
<svg version="1.0" xmlns="http://www.w3.org/2000/svg"
 width="192.000000pt" height="192.000000pt" viewBox="0 0 192.000000 192.000000"
 preserveAspectRatio="xMidYMid meet">
<metadata>
Created by potrace 1.16, written by Peter Selinger 2001-2019
</metadata>
<g transform="translate(0.000000,192.000000) scale(0.100000,-0.100000)"
fill="#000000" stroke="none">
810 c245 -63 441 -223 549 -451 55 -116 75 -212 75 -354 0 -141 -20 -238 -75
-352 -86 -182 -215 -312 -396 -398 -116 -55 -212 -75 -354 -75 -142 0 -238 20
-354 75 -228 108 -388 304 -451 549 -28 110 -28 292 0 402 76 298 303 526 600
603 106 28 298 28 406 1z"/>
<path d="M621 1366 c-49 -28 -50 -37 -51 -409 0 -381 2 -393 58 -416 20 -9 83
-11 202 -9 l172 3 24 28 c41 48 28 189 -16 162 -5 -3 -10 -24 -10 -45 0 -21
-4 -50 -10 -64 l-10 -26 -163 0 c-113 0 -167 4 -175 12 -9 9 -12 101 -12 354
0 286 2 343 15 354 21 18 48 8 63 -23 13 -26 15 -27 102 -27 89 0 90 0 105 30
9 17 23 30 33 30 37 0 46 -17 50 -94 3 -54 8 -76 19 -80 27 -11 33 5 33 89 0
74 -3 87 -24 112 l-24 28 -179 2 c-135 2 -184 0 -202 -11z"/>
<path d="M1145 1122 c-17 -8 -55 -23 -85 -33 l-55 -17 -3 -113 c-2 -76 1 -122
9 -137 13 -23 143 -112 164 -112 28 0 162 98 174 127 7 18 11 67 9 132 l-3
104 -52 13 c-29 8 -70 22 -91 33 -35 18 -39 18 -67 3z m125 -154 c0 -6 -22
-33 -49 -60 l-50 -50 -30 18 c-17 10 -33 24 -36 32 -8 21 15 44 39 38 13 -3
31 5 53 25 28 24 38 27 53 19 11 -6 20 -16 20 -22z"/>
</g>
</svg>
