<?xml version="1.0" standalone="no"?>
<!DOCTYPE svg PUBLIC "-//W3C//DTD SVG 20010904//EN"
 "http://www.w3.org/TR/2001/REC-SVG-20010904/DTD/svg10.dtd">
<svg version="1.0" xmlns="http://www.w3.org/2000/svg"
 width="192.000000pt" height="192.000000pt" viewBox="0 0 192.000000 192.000000"
 preserveAspectRatio="xMidYMid meet">
<metadata>
Created by potrace 1.16, written by Peter Selinger 2001-2019
</metadata>
<g transform="translate(0.000000,192.000000) scale(0.100000,-0.100000)"
fill="#000000" stroke="none">
811 c445 -92 729 -532 635 -987 -62 -301 -295 -546 -601 -630 -91 -26 -329
-26 -420 0 -291 80 -516 305 -596 596 -26 91 -26 329 0 420 120 433 542 692
982 601z"/>
<path d="M961 1363 c-29 -28 -338 -469 -366 -524 -21 -39 -18 -125 4 -175 10
-22 35 -54 56 -71 133 -110 339 -28 353 142 l4 55 128 0 c124 0 130 1 159 26
43 36 41 77 -6 162 -20 37 -38 69 -39 71 -3 3 -383 -176 -393 -186 -3 -2 5
-10 16 -18 32 -22 47 -77 33 -119 -18 -55 -54 -81 -112 -81 -45 0 -53 4 -85
39 -32 35 -35 42 -30 83 3 30 13 53 28 68 13 13 130 74 259 135 129 62 240
116 247 122 8 7 -4 40 -49 126 -67 131 -103 172 -148 172 -19 0 -41 -10 -59
-27z"/>
<path d="M756 809 c-50 -39 -22 -119 42 -119 34 0 72 37 72 69 0 27 -42 71
-68 71 -11 0 -31 -9 -46 -21z"/>
</g>
</svg>
