<?xml version="1.0" standalone="no"?>
<!DOCTYPE svg PUBLIC "-//W3C//DTD SVG 20010904//EN"
 "http://www.w3.org/TR/2001/REC-SVG-20010904/DTD/svg10.dtd">
<svg version="1.0" xmlns="http://www.w3.org/2000/svg"
 width="192.000000pt" height="192.000000pt" viewBox="0 0 192.000000 192.000000"
 preserveAspectRatio="xMidYMid meet">
<metadata>
Created by potrace 1.16, written by Peter Selinger 2001-2019
</metadata>
<g transform="translate(0.000000,192.000000) scale(0.100000,-0.100000)"
fill="#000000" stroke="none">
811 c445 -92 729 -532 635 -987 -62 -301 -295 -546 -601 -630 -91 -26 -329
-26 -420 0 -291 80 -516 305 -596 596 -26 91 -26 329 0 420 120 433 542 692
982 601z"/>
<path d="M515 1195 c-18 -17 -25 -35 -25 -61 0 -31 9 -46 67 -105 l67 -70 -67
-67 c-57 -58 -67 -73 -67 -103 0 -46 33 -79 80 -79 29 0 45 11 102 67 l67 66
71 -66 c61 -59 75 -67 108 -67 49 0 82 32 82 80 0 29 -11 45 -67 102 l-66 67
66 71 c57 59 67 76 67 106 0 46 -37 84 -81 84 -25 0 -45 -13 -103 -69 l-71
-70 -71 70 c-82 79 -116 88 -159 44z"/>
<path d="M1177 1102 c-22 -24 -21 -65 1 -85 15 -14 40 -17 125 -17 98 0 107 2
121 22 21 30 20 54 -4 78 -17 17 -33 20 -123 20 -88 0 -106 -3 -120 -18z"/>
<path d="M1180 910 c-28 -28 -25 -64 6 -89 22 -17 41 -21 108 -21 92 0 126 13
140 53 8 22 6 31 -14 52 -22 23 -30 25 -122 25 -85 0 -101 -3 -118 -20z"/>
</g>
</svg>
