<?xml version="1.0" standalone="no"?>
<!DOCTYPE svg PUBLIC "-//W3C//DTD SVG 20010904//EN"
 "http://www.w3.org/TR/2001/REC-SVG-20010904/DTD/svg10.dtd">
<svg version="1.0" xmlns="http://www.w3.org/2000/svg"
 width="192.000000pt" height="192.000000pt" viewBox="0 0 192.000000 192.000000"
 preserveAspectRatio="xMidYMid meet">
<metadata>
Created by potrace 1.16, written by Peter Selinger 2001-2019
</metadata>
<g transform="translate(0.000000,192.000000) scale(0.100000,-0.100000)"
fill="#000000" stroke="none">
811 c445 -92 729 -532 635 -987 -62 -301 -295 -546 -601 -630 -91 -26 -329
-26 -420 0 -291 80 -516 305 -596 596 -26 91 -26 329 0 420 120 433 542 692
982 601z"/>
<path d="M691 1345 c-24 -32 -36 -84 -26 -117 4 -12 47 -79 95 -148 48 -69 90
-130 94 -137 4 -7 -3 -27 -15 -46 -21 -32 -24 -33 -78 -29 -46 3 -62 0 -90
-20 -57 -38 -76 -73 -76 -133 0 -185 265 -214 304 -33 4 18 4 47 1 63 -5 23 0
39 24 73 16 23 30 42 31 42 1 0 15 -19 31 -42 24 -34 29 -50 24 -73 -19 -96
53 -185 151 -185 51 0 98 26 133 73 29 39 29 125 0 164 -40 54 -83 75 -145 71
-54 -4 -57 -3 -78 29 -12 19 -19 39 -15 46 4 7 48 71 98 142 83 119 91 134 91
177 0 52 -30 103 -61 103 -12 0 -51 -47 -120 -145 -56 -80 -106 -144 -110
-143 -5 1 -54 66 -109 145 -56 79 -108 144 -117 146 -9 2 -25 -9 -37 -23z m91
-592 c22 -20 23 -51 1 -75 -32 -35 -85 -12 -85 37 0 48 48 70 84 38z m412 4
c37 -27 13 -97 -33 -97 -22 0 -51 30 -51 53 0 25 28 57 50 57 9 0 24 -6 34
-13z"/>
</g>
</svg>
