<?xml version="1.0" standalone="no"?>
<!DOCTYPE svg PUBLIC "-//W3C//DTD SVG 20010904//EN"
 "http://www.w3.org/TR/2001/REC-SVG-20010904/DTD/svg10.dtd">
<svg version="1.0" xmlns="http://www.w3.org/2000/svg"
 width="192.000000pt" height="192.000000pt" viewBox="0 0 192.000000 192.000000"
 preserveAspectRatio="xMidYMid meet">
<metadata>
Created by potrace 1.16, written by Peter Selinger 2001-2019
</metadata>
<g transform="translate(0.000000,192.000000) scale(0.100000,-0.100000)"
fill="#000000" stroke="none">
811 c445 -92 729 -532 635 -987 -62 -301 -295 -546 -601 -630 -91 -26 -329
-26 -420 0 -291 80 -516 305 -596 596 -26 91 -26 329 0 420 120 433 542 692
982 601z"/>
<path d="M1225 1361 c-46 -7 -56 -28 -25 -56 l21 -19 -53 -53 -52 -53 24 -25
c33 -35 49 -32 100 20 l44 45 23 -22 c32 -30 41 -17 49 69 10 104 -4 113 -131
94z"/>
<path d="M663 1320 c-61 -37 -63 -50 -63 -352 0 -392 -23 -370 375 -366 l273
3 28 25 c47 44 54 75 54 250 0 147 -2 162 -20 180 -25 25 -51 25 -79 3 -19
-17 -21 -29 -23 -178 l-3 -160 -240 0 -240 0 0 245 0 245 155 5 c85 3 160 8
166 12 21 14 26 59 9 84 -15 24 -17 24 -188 24 -153 0 -176 -2 -204 -20z"/>
<path d="M1041 1109 l-50 -54 -26 25 c-33 31 -41 20 -50 -73 -10 -94 -1 -102
95 -92 77 8 95 22 66 54 -23 25 -21 30 31 83 l47 48 -31 32 -32 31 -50 -54z"/>
</g>
</svg>
