<?xml version="1.0" standalone="no"?>
<!DOCTYPE svg PUBLIC "-//W3C//DTD SVG 20010904//EN"
 "http://www.w3.org/TR/2001/REC-SVG-20010904/DTD/svg10.dtd">
<svg version="1.0" xmlns="http://www.w3.org/2000/svg"
 width="192.000000pt" height="192.000000pt" viewBox="0 0 192.000000 192.000000"
 preserveAspectRatio="xMidYMid meet">
<metadata>
Created by potrace 1.16, written by Peter Selinger 2001-2019
</metadata>
<g transform="translate(0.000000,192.000000) scale(0.100000,-0.100000)"
fill="#000000" stroke="none">
811 c445 -92 729 -532 635 -987 -62 -301 -295 -546 -601 -630 -91 -26 -329
-26 -420 0 -291 80 -516 305 -596 596 -26 91 -26 329 0 420 120 433 542 692
982 601z"/>
<path d="M882 1369 c-190 -32 -341 -209 -342 -399 0 -61 25 -155 55 -206 38
-64 113 -132 185 -166 199 -96 454 -4 546 197 137 299 -117 628 -444 574z
m187 -222 c59 -39 92 -94 98 -164 7 -80 -31 -154 -102 -198 -110 -68 -260 -21
-310 97 -44 108 7 234 115 283 54 24 148 16 199 -18z"/>
<path d="M913 1089 c-39 -11 -80 -59 -88 -103 -14 -74 49 -146 128 -146 156 0
175 225 22 253 -17 3 -44 1 -62 -4z"/>
</g>
</svg>
