<?xml version="1.0" standalone="no"?>
<!DOCTYPE svg PUBLIC "-//W3C//DTD SVG 20010904//EN"
 "http://www.w3.org/TR/2001/REC-SVG-20010904/DTD/svg10.dtd">
<svg version="1.0" xmlns="http://www.w3.org/2000/svg"
 width="192.000000pt" height="192.000000pt" viewBox="0 0 192.000000 192.000000"
 preserveAspectRatio="xMidYMid meet">
<metadata>
Created by potrace 1.16, written by Peter Selinger 2001-2019
</metadata>
<g transform="translate(0.000000,192.000000) scale(0.100000,-0.100000)"
fill="#000000" stroke="none">
811 c445 -92 729 -532 635 -987 -62 -301 -295 -546 -601 -630 -91 -26 -329
-26 -420 0 -291 80 -516 305 -596 596 -26 91 -26 329 0 420 120 433 542 692
982 601z"/>
<path d="M695 1326 c-16 -7 -43 -25 -58 -40 -52 -49 -57 -75 -57 -323 0 -260
6 -287 82 -339 l41 -29 239 -3 c268 -3 301 3 350 69 43 58 48 90 48 304 0 214
-5 246 -48 304 -48 64 -78 71 -337 70 -169 0 -238 -3 -260 -13z m517 -105 l33
-29 0 -227 0 -227 -33 -29 -32 -29 -226 0 -226 0 -29 29 -29 29 0 227 0 227
29 29 29 29 226 0 226 0 32 -29z"/>
<path d="M911 1140 c-93 -22 -152 -120 -131 -214 31 -139 193 -187 300 -89
136 122 11 347 -169 303z m78 -91 c31 -11 61 -52 61 -84 0 -53 -62 -102 -113
-90 -85 22 -93 142 -12 176 27 11 28 11 64 -2z"/>
</g>
</svg>
