<?xml version="1.0" standalone="no"?>
<!DOCTYPE svg PUBLIC "-//W3C//DTD SVG 20010904//EN"
 "http://www.w3.org/TR/2001/REC-SVG-20010904/DTD/svg10.dtd">
<svg version="1.0" xmlns="http://www.w3.org/2000/svg"
 width="192.000000pt" height="192.000000pt" viewBox="0 0 192.000000 192.000000"
 preserveAspectRatio="xMidYMid meet">
<metadata>
Created by potrace 1.16, written by Peter Selinger 2001-2019
</metadata>
<g transform="translate(0.000000,192.000000) scale(0.100000,-0.100000)"
fill="#000000" stroke="none">
811 c445 -92 729 -532 635 -987 -62 -301 -295 -546 -601 -630 -91 -26 -329
-26 -420 0 -291 80 -516 305 -596 596 -26 91 -26 329 0 420 120 433 542 692
982 601z"/>
<path d="M700 1324 c-45 -20 -77 -50 -101 -96 -17 -33 -19 -60 -19 -240 l0
-202 63 61 c73 71 93 83 142 83 48 0 80 -18 144 -83 l53 -55 44 33 c85 65 138
59 228 -26 35 -32 66 -59 70 -59 3 0 6 101 6 225 0 202 -2 230 -19 263 -24 47
-56 77 -103 97 -54 22 -456 21 -508 -1z m56 -118 c10 -41 1 -60 -31 -66 -24
-4 -31 -11 -33 -33 -7 -57 -22 -24 -22 48 l0 75 40 0 c34 0 41 -4 46 -24z m62
-9 c5 -38 32 -35 32 3 0 20 5 30 15 30 12 0 15 -15 15 -75 0 -60 -3 -75 -15
-75 -10 0 -15 10 -15 30 0 20 -5 30 -15 30 -10 0 -15 -10 -15 -30 0 -20 -5
-30 -15 -30 -12 0 -15 15 -15 76 0 56 3 75 13 72 6 -3 13 -17 15 -31z m180
-44 l3 -73 -46 0 -45 0 0 68 c0 38 3 72 7 76 4 4 23 6 43 4 l35 -3 3 -72z
m122 62 c0 -8 -7 -15 -15 -15 -12 0 -15 -13 -15 -60 0 -47 -3 -60 -15 -60 -12
0 -15 13 -15 60 0 47 -3 60 -15 60 -8 0 -15 7 -15 15 0 11 12 15 45 15 33 0
45 -4 45 -15z m120 -61 l0 -75 -42 3 -43 3 -3 49 c-5 82 2 96 48 96 l40 0 0
-76z m-300 -154 l0 -60 30 0 c20 0 30 -5 30 -15 0 -11 -12 -15 -45 -15 l-45 0
0 75 c0 60 3 75 15 75 12 0 15 -13 15 -60z m180 -16 c0 -56 -3 -75 -12 -72 -7
3 -14 17 -16 31 -5 38 -32 35 -32 -3 0 -20 -5 -30 -15 -30 -12 0 -15 15 -15
75 l0 75 45 0 45 0 0 -76z m118 4 l-3 -73 -40 0 -40 0 -3 73 -3 72 46 0 46 0
-3 -72z"/>
<path d="M697 1193 c-13 -12 -7 -23 13 -23 11 0 20 7 20 15 0 15 -21 21 -33 8z"/>
<path d="M940 1155 c0 -33 4 -45 15 -45 11 0 15 12 15 45 0 33 -4 45 -15 45
-11 0 -15 -12 -15 -45z"/>
<path d="M1180 1156 c0 -40 3 -46 21 -46 18 0 20 5 17 42 -2 31 -8 44 -20 46
-15 3 -18 -4 -18 -42z"/>
<path d="M1060 1015 c0 -8 7 -15 15 -15 8 0 15 7 15 15 0 8 -7 15 -15 15 -8 0
-15 -7 -15 -15z"/>
<path d="M1180 1014 c0 -9 7 -14 17 -12 25 5 28 28 4 28 -12 0 -21 -6 -21 -16z"/>
<path d="M1180 954 c0 -9 7 -14 17 -12 25 5 28 28 4 28 -12 0 -21 -6 -21 -16z"/>
<path d="M724 851 c-21 -16 -61 -51 -87 -79 l-49 -50 16 -30 c21 -40 70 -77
121 -91 52 -14 403 -14 459 0 24 6 60 25 81 41 l37 31 -67 68 c-37 37 -78 69
-90 72 -48 9 -132 -50 -107 -75 20 -20 14 -48 -10 -48 -14 0 -56 33 -119 95
-108 107 -123 112 -185 66z"/>
</g>
</svg>
