<?xml version="1.0" standalone="no"?>
<!DOCTYPE svg PUBLIC "-//W3C//DTD SVG 20010904//EN"
 "http://www.w3.org/TR/2001/REC-SVG-20010904/DTD/svg10.dtd">
<svg version="1.0" xmlns="http://www.w3.org/2000/svg"
 width="192.000000pt" height="192.000000pt" viewBox="0 0 192.000000 192.000000"
 preserveAspectRatio="xMidYMid meet">
<metadata>
Created by potrace 1.16, written by Peter Selinger 2001-2019
</metadata>
<g transform="translate(0.000000,192.000000) scale(0.100000,-0.100000)"
fill="#000000" stroke="none">
811 c445 -92 729 -532 635 -987 -62 -301 -295 -546 -601 -630 -91 -26 -329
-26 -420 0 -291 80 -516 305 -596 596 -26 91 -26 329 0 420 120 433 542 692
982 601z"/>
<path d="M896 1365 c-31 -28 -56 -82 -56 -120 0 -29 -7 -31 -38 -9 -34 23 -91
23 -109 -1 -18 -25 -11 -76 17 -115 l21 -30 -28 0 c-85 0 -163 -53 -163 -112
0 -18 7 -44 16 -57 23 -32 90 -61 142 -61 l43 0 -21 -27 c-32 -44 -36 -87 -11
-112 25 -25 55 -27 95 -6 37 20 36 21 36 -22 0 -48 31 -115 61 -137 30 -21 78
-21 108 0 31 22 61 89 61 138 0 32 3 37 18 31 65 -28 71 -29 96 -17 43 19 42
59 -2 145 -2 4 14 7 35 7 48 0 115 31 137 61 55 79 -28 169 -157 169 l-38 0
25 33 c35 45 42 82 22 112 -19 29 -70 34 -102 10 -26 -20 -34 -19 -34 5 0 64
-62 140 -115 140 -20 0 -42 -9 -59 -25z m130 -254 c62 -28 89 -73 89 -148 0
-103 -56 -158 -160 -158 -69 0 -99 15 -139 69 -31 41 -29 139 3 185 27 37 91
71 136 71 17 0 48 -9 71 -19z"/>
<path d="M914 1046 c-87 -38 -55 -176 41 -176 100 0 128 146 34 179 -39 13
-37 13 -75 -3z"/>
</g>
</svg>
