<?xml version="1.0" standalone="no"?>
<!DOCTYPE svg PUBLIC "-//W3C//DTD SVG 20010904//EN"
 "http://www.w3.org/TR/2001/REC-SVG-20010904/DTD/svg10.dtd">
<svg version="1.0" xmlns="http://www.w3.org/2000/svg"
 width="192.000000pt" height="192.000000pt" viewBox="0 0 192.000000 192.000000"
 preserveAspectRatio="xMidYMid meet">
<metadata>
Created by potrace 1.16, written by Peter Selinger 2001-2019
</metadata>
<g transform="translate(0.000000,192.000000) scale(0.100000,-0.100000)"
fill="#000000" stroke="none">
811 c445 -92 729 -532 635 -987 -62 -301 -295 -546 -601 -630 -91 -26 -329
-26 -420 0 -291 80 -516 305 -596 596 -26 91 -26 329 0 420 120 433 542 692
982 601z"/>
<path d="M734 1331 c-50 -13 -101 -49 -126 -89 -22 -35 -23 -48 -26 -252 -4
-238 1 -270 51 -327 52 -59 70 -63 322 -63 252 0 270 4 322 63 50 57 55 89 51
327 -3 205 -4 217 -26 253 -13 20 -45 50 -70 65 -47 27 -48 27 -257 29 -115 1
-224 -2 -241 -6z m474 -81 c44 -27 62 -74 62 -160 l0 -70 -140 0 -140 0 0 125
0 125 93 0 c75 0 98 -4 125 -20z m-317 -43 c27 -21 41 -56 34 -88 -10 -42 -57
-69 -122 -69 -28 0 -55 -4 -58 -10 -8 -13 -25 -13 -25 1 0 6 -11 24 -25 41
-32 38 -32 81 0 113 21 22 32 25 102 25 45 -1 85 -6 94 -13z m214 -288 c0 -17
-6 -24 -20 -24 -23 0 -33 34 -13 46 20 13 33 5 33 -22z m122 -5 l1 -37 -21 21
c-17 17 -18 23 -7 36 19 24 26 19 27 -20z m-237 -114 l0 -140 -127 0 c-108 0
-132 3 -156 19 -51 33 -61 58 -65 163 l-4 98 176 0 176 0 0 -140z m234 44 c12
-4 16 -20 16 -55 0 -64 -25 -89 -89 -89 -63 0 -91 28 -91 91 0 28 5 49 13 52
18 8 133 8 151 1z"/>
<path d="M1077 1213 c-4 -3 -7 -32 -7 -64 0 -71 15 -80 76 -44 56 33 57 57 4
90 -40 25 -61 31 -73 18z"/>
<path d="M730 1155 c0 -19 5 -25 23 -25 21 -1 22 -1 3 -15 -19 -15 -19 -15 1
-15 23 0 33 18 33 56 0 20 -5 24 -30 24 -25 0 -30 -4 -30 -25z"/>
<path d="M810 1155 c0 -16 6 -25 15 -25 21 0 19 -17 -2 -24 -11 -3 -7 -4 7 -3
21 2 25 8 28 40 3 34 1 37 -22 37 -21 0 -26 -5 -26 -25z"/>
<path d="M900 900 c0 -5 11 -10 25 -10 14 0 25 5 25 10 0 6 -11 10 -25 10 -14
0 -25 -4 -25 -10z"/>
<path d="M738 884 c-35 -19 -48 -43 -48 -92 0 -69 67 -114 135 -92 82 27 92
145 15 185 -36 19 -67 19 -102 -1z"/>
</g>
</svg>
