<?xml version="1.0" standalone="no"?>
<!DOCTYPE svg PUBLIC "-//W3C//DTD SVG 20010904//EN"
 "http://www.w3.org/TR/2001/REC-SVG-20010904/DTD/svg10.dtd">
<svg version="1.0" xmlns="http://www.w3.org/2000/svg"
 width="192.000000pt" height="192.000000pt" viewBox="0 0 192.000000 192.000000"
 preserveAspectRatio="xMidYMid meet">
<metadata>
Created by potrace 1.16, written by Peter Selinger 2001-2019
</metadata>
<g transform="translate(0.000000,192.000000) scale(0.100000,-0.100000)"
fill="#000000" stroke="none">
811 c445 -92 729 -532 635 -987 -62 -301 -295 -546 -601 -630 -91 -26 -329
-26 -420 0 -291 80 -516 305 -596 596 -26 91 -26 329 0 420 120 433 542 692
982 601z"/>
<path d="M707 1325 c-50 -17 -85 -50 -108 -100 -16 -35 -19 -67 -19 -239 l0
-199 74 71 c70 68 76 72 120 72 60 0 88 -15 155 -84 l54 -55 40 34 c78 67 151
58 237 -30 30 -30 58 -55 62 -55 4 0 8 100 8 223 0 194 -3 227 -19 262 -22 50
-69 91 -119 105 -57 15 -438 12 -485 -5z m48 -140 c0 -36 -3 -40 -27 -43 -24
-3 -28 -8 -28 -33 0 -22 -5 -29 -20 -29 -18 0 -20 7 -20 68 0 38 3 72 7 76 4
4 25 6 48 4 40 -3 40 -3 40 -43z m65 15 c0 -20 5 -30 15 -30 10 0 15 10 15 30
0 20 5 30 15 30 12 0 15 -15 15 -75 0 -60 -3 -75 -15 -75 -10 0 -15 10 -15 30
0 20 -5 30 -15 30 -10 0 -15 -10 -15 -30 0 -20 -5 -30 -15 -30 -12 0 -15 15
-15 75 0 60 3 75 15 75 10 0 15 -10 15 -30z m178 -47 l3 -73 -46 0 -45 0 0 68
c0 38 3 72 7 76 4 4 23 6 43 4 l35 -3 3 -72z m122 62 c0 -8 -7 -15 -15 -15
-12 0 -15 -13 -15 -60 0 -47 -3 -60 -15 -60 -12 0 -15 13 -15 60 0 47 -3 60
-15 60 -8 0 -15 7 -15 15 0 11 12 15 45 15 33 0 45 -4 45 -15z m125 -60 l0
-70 -45 0 -45 0 -3 59 c-4 81 0 88 50 84 l43 -3 0 -70z m-305 -155 l0 -60 30
0 c20 0 30 -5 30 -15 0 -11 -12 -15 -45 -15 l-45 0 0 75 c0 60 3 75 15 75 12
0 15 -13 15 -60z m180 -15 c0 -60 -3 -75 -15 -75 -10 0 -15 10 -15 30 0 20 -5
30 -15 30 -10 0 -15 -10 -15 -30 0 -20 -5 -30 -15 -30 -12 0 -15 15 -15 75 l0
75 45 0 45 0 0 -75z m127 20 c3 -87 -1 -95 -52 -95 l-45 0 0 76 0 75 48 -3 47
-3 2 -50z"/>
<path d="M700 1186 c0 -9 7 -16 16 -16 9 0 14 5 12 12 -6 18 -28 21 -28 4z"/>
<path d="M940 1155 c0 -33 4 -45 15 -45 11 0 15 12 15 45 0 33 -4 45 -15 45
-11 0 -15 -12 -15 -45z"/>
<path d="M1187 1193 c-4 -3 -7 -24 -7 -45 0 -27 4 -38 15 -38 11 0 15 12 15
45 0 42 -7 54 -23 38z"/>
<path d="M1060 1015 c0 -8 7 -15 15 -15 8 0 15 7 15 15 0 8 -7 15 -15 15 -8 0
-15 -7 -15 -15z"/>
<path d="M1182 1018 c6 -18 28 -21 28 -4 0 9 -7 16 -16 16 -9 0 -14 -5 -12
-12z"/>
<path d="M1182 958 c6 -18 28 -21 28 -4 0 9 -7 16 -16 16 -9 0 -14 -5 -12 -12z"/>
<path d="M760 873 c-8 -3 -50 -39 -92 -81 l-77 -76 17 -29 c9 -17 37 -43 61
-58 l45 -29 241 0 241 0 47 30 c26 16 47 36 47 43 0 8 -29 42 -64 75 -77 74
-114 81 -167 34 -28 -25 -30 -30 -19 -49 14 -22 8 -53 -11 -53 -7 0 -55 42
-108 94 -91 90 -127 112 -161 99z"/>
</g>
</svg>
