<?xml version="1.0" standalone="no"?>
<!DOCTYPE svg PUBLIC "-//W3C//DTD SVG 20010904//EN"
 "http://www.w3.org/TR/2001/REC-SVG-20010904/DTD/svg10.dtd">
<svg version="1.0" xmlns="http://www.w3.org/2000/svg"
 width="192.000000pt" height="192.000000pt" viewBox="0 0 192.000000 192.000000"
 preserveAspectRatio="xMidYMid meet">
<metadata>
Created by potrace 1.16, written by Peter Selinger 2001-2019
</metadata>
<g transform="translate(0.000000,192.000000) scale(0.100000,-0.100000)"
fill="#000000" stroke="none">
811 c445 -92 729 -532 635 -987 -62 -301 -295 -546 -601 -630 -91 -26 -329
-26 -420 0 -291 80 -516 305 -596 596 -26 91 -26 329 0 420 120 433 542 692
982 601z"/>
<path d="M639 1331 c-21 -21 -29 -39 -29 -64 0 -36 10 -53 93 -149 l49 -58
-35 0 c-23 0 -46 -8 -64 -24 l-28 -24 -3 -180 c-4 -198 4 -233 54 -252 40 -16
60 -12 93 16 l31 26 0 124 0 124 54 0 55 0 111 -135 c61 -74 120 -139 130
-145 10 -5 35 -10 55 -10 52 0 85 36 85 92 -1 38 -8 52 -71 128 l-70 85 23 15
c109 73 150 177 116 294 -16 55 -99 138 -154 154 -27 8 -116 12 -253 12 l-213
0 -29 -29z m452 -171 c24 -13 25 -57 2 -82 -10 -11 -30 -18 -53 -18 -32 0 -42
7 -78 49 -23 27 -42 52 -42 55 0 10 151 6 171 -4z"/>
</g>
</svg>
