<?xml version="1.0" standalone="no"?>
<!DOCTYPE svg PUBLIC "-//W3C//DTD SVG 20010904//EN"
 "http://www.w3.org/TR/2001/REC-SVG-20010904/DTD/svg10.dtd">
<svg version="1.0" xmlns="http://www.w3.org/2000/svg"
 width="192.000000pt" height="192.000000pt" viewBox="0 0 192.000000 192.000000"
 preserveAspectRatio="xMidYMid meet">
<metadata>
Created by potrace 1.16, written by Peter Selinger 2001-2019
</metadata>
<g transform="translate(0.000000,192.000000) scale(0.100000,-0.100000)"
fill="#000000" stroke="none">
811 c445 -92 729 -532 635 -987 -62 -301 -295 -546 -601 -630 -91 -26 -329
-26 -420 0 -291 80 -516 305 -596 596 -26 91 -26 329 0 420 120 433 542 692
982 601z"/>
<path d="M752 1333 c-30 -43 -54 -122 -46 -156 7 -35 74 -141 127 -205 43 -50
40 -44 25 -77 -8 -18 -16 -24 -27 -19 -9 4 -32 13 -52 20 -69 25 -154 -15
-183 -86 -20 -50 -20 -71 -1 -117 l15 -36 -45 5 c-61 7 -74 -10 -40 -51 42
-49 91 -57 183 -30 131 38 149 53 211 177 18 34 36 60 41 57 5 -3 28 -42 51
-86 50 -96 93 -130 162 -131 160 -3 217 205 78 286 -40 23 -112 24 -146 2 -32
-21 -32 -21 -48 11 -14 25 -12 30 53 117 113 154 120 179 70 284 -45 96 -48
93 -175 -142 l-47 -88 -80 146 c-44 80 -86 146 -93 146 -8 0 -22 -12 -33 -27z
m226 -386 c4 -21 -25 -34 -40 -19 -8 8 -8 16 2 27 16 19 34 15 38 -8z m-210
-159 c7 -7 12 -25 12 -40 0 -36 -36 -56 -69 -39 -23 13 -29 59 -9 79 15 15 51
15 66 0z m446 -4 c24 -23 19 -51 -10 -71 -43 -28 -88 14 -66 61 13 30 51 35
76 10z"/>
</g>
</svg>
