<?xml version="1.0" standalone="no"?>
<!DOCTYPE svg PUBLIC "-//W3C//DTD SVG 20010904//EN"
 "http://www.w3.org/TR/2001/REC-SVG-20010904/DTD/svg10.dtd">
<svg version="1.0" xmlns="http://www.w3.org/2000/svg"
 width="192.000000pt" height="192.000000pt" viewBox="0 0 192.000000 192.000000"
 preserveAspectRatio="xMidYMid meet">
<metadata>
Created by potrace 1.16, written by Peter Selinger 2001-2019
</metadata>
<g transform="translate(0.000000,192.000000) scale(0.100000,-0.100000)"
fill="#000000" stroke="none">
811 c445 -92 729 -532 635 -987 -62 -301 -295 -546 -601 -630 -91 -26 -329
-26 -420 0 -291 80 -516 305 -596 596 -26 91 -26 329 0 420 120 433 542 692
982 601z"/>
<path d="M838 1361 c-157 -51 -260 -167 -290 -330 -50 -267 198 -518 468 -473
323 54 458 437 241 687 -97 112 -277 161 -419 116z m220 -76 c78 -23 150 -87
192 -170 32 -61 35 -76 35 -149 -1 -135 -59 -233 -177 -297 -59 -32 -69 -34
-153 -34 -108 0 -164 23 -235 95 -60 59 -92 128 -98 211 -17 238 204 413 436
344z"/>
<path d="M840 1146 c0 -36 0 -36 46 -36 45 0 45 0 42 33 -3 30 -6 32 -45 35
l-43 3 0 -35z"/>
<path d="M967 1173 c-4 -3 -7 -19 -7 -35 0 -27 2 -28 45 -28 45 0 45 0 45 35
0 34 -1 35 -38 35 -21 0 -42 -3 -45 -7z"/>
<path d="M1083 1110 c-5 -19 -14 -20 -158 -20 -180 0 -194 -5 -202 -83 l-6
-47 47 0 c39 0 46 3 46 20 0 11 7 20 15 20 13 0 15 -21 15 -128 0 -71 3 -131
6 -135 3 -3 22 0 42 7 l37 13 3 121 c2 99 5 122 17 122 12 0 15 -22 15 -130
l0 -130 26 0 c59 0 64 10 64 139 l0 118 39 7 c48 7 81 45 81 92 0 33 -1 34
-41 34 -32 0 -42 -4 -46 -20z"/>
</g>
</svg>
