<?xml version="1.0" standalone="no"?>
<!DOCTYPE svg PUBLIC "-//W3C//DTD SVG 20010904//EN"
 "http://www.w3.org/TR/2001/REC-SVG-20010904/DTD/svg10.dtd">
<svg version="1.0" xmlns="http://www.w3.org/2000/svg"
 width="192.000000pt" height="192.000000pt" viewBox="0 0 192.000000 192.000000"
 preserveAspectRatio="xMidYMid meet">
<metadata>
Created by potrace 1.16, written by Peter Selinger 2001-2019
</metadata>
<g transform="translate(0.000000,192.000000) scale(0.100000,-0.100000)"
fill="#000000" stroke="none">
811 c445 -92 729 -532 635 -987 -62 -301 -295 -546 -601 -630 -91 -26 -329
-26 -420 0 -291 80 -516 305 -596 596 -26 91 -26 329 0 420 120 433 542 692
982 601z"/>
<path d="M770 1315 l0 -56 68 3 67 3 0 50 0 50 -67 3 -68 3 0 -56z"/>
<path d="M1004 1356 c-3 -8 -4 -31 -2 -52 l3 -39 68 -3 67 -3 0 56 0 55 -65 0
c-47 0 -67 -4 -71 -14z"/>
<path d="M1228 1243 l-3 -38 -295 -5 c-218 -4 -301 -8 -318 -18 -41 -23 -62
-71 -62 -139 l0 -63 64 0 65 0 3 43 c3 42 3 42 46 45 l42 3 0 -250 c0 -137 4
-252 9 -255 10 -6 99 22 119 37 9 7 12 67 12 239 l0 229 48 -3 47 -3 3 -252
c1 -140 6 -253 11 -253 5 0 34 10 65 21 l56 22 0 233 0 234 63 0 c107 0 157
49 157 155 l0 55 -64 0 -65 0 -3 -37z"/>
</g>
</svg>
