<?xml version="1.0" standalone="no"?>
<!DOCTYPE svg PUBLIC "-//W3C//DTD SVG 20010904//EN"
 "http://www.w3.org/TR/2001/REC-SVG-20010904/DTD/svg10.dtd">
<svg version="1.0" xmlns="http://www.w3.org/2000/svg"
 width="192.000000pt" height="192.000000pt" viewBox="0 0 192.000000 192.000000"
 preserveAspectRatio="xMidYMid meet">
<metadata>
Created by potrace 1.16, written by Peter Selinger 2001-2019
</metadata>
<g transform="translate(0.000000,192.000000) scale(0.100000,-0.100000)"
fill="#000000" stroke="none">
811 c445 -92 729 -532 635 -987 -62 -301 -295 -546 -601 -630 -91 -26 -329
-26 -420 0 -291 80 -516 305 -596 596 -26 91 -26 329 0 420 120 433 542 692
982 601z"/>
<path d="M996 1279 c-114 -14 -165 -24 -178 -36 -16 -14 -18 -34 -18 -173 l0
-156 -35 4 c-47 6 -88 -13 -126 -56 -29 -32 -31 -40 -27 -93 3 -45 10 -65 29
-85 76 -81 188 -69 237 26 20 41 22 57 22 227 l0 182 33 5 c51 9 210 26 235
26 21 0 22 -3 22 -105 l0 -105 -45 0 c-88 0 -145 -55 -145 -140 0 -85 61 -143
148 -143 46 0 81 20 116 67 20 26 21 43 24 277 4 298 4 300 -81 298 -28 -1
-124 -10 -211 -20z"/>
</g>
</svg>
