<?xml version="1.0" standalone="no"?>
<!DOCTYPE svg PUBLIC "-//W3C//DTD SVG 20010904//EN"
 "http://www.w3.org/TR/2001/REC-SVG-20010904/DTD/svg10.dtd">
<svg version="1.0" xmlns="http://www.w3.org/2000/svg"
 width="192.000000pt" height="192.000000pt" viewBox="0 0 192.000000 192.000000"
 preserveAspectRatio="xMidYMid meet">
<metadata>
Created by potrace 1.16, written by Peter Selinger 2001-2019
</metadata>
<g transform="translate(0.000000,192.000000) scale(0.100000,-0.100000)"
fill="#000000" stroke="none">
811 c445 -92 729 -532 635 -987 -62 -301 -295 -546 -601 -630 -91 -26 -329
-26 -420 0 -291 80 -516 305 -596 596 -26 91 -26 329 0 420 120 433 542 692
982 601z"/>
<path d="M862 1357 c-73 -23 -152 -117 -167 -200 -4 -22 -13 -37 -22 -37 -27
0 -69 -28 -81 -55 -7 -15 -12 -73 -12 -139 0 -127 13 -158 72 -174 23 -6 33
-16 43 -46 8 -22 25 -49 39 -60 14 -12 26 -34 28 -51 3 -29 5 -30 58 -33 33
-2 71 3 98 14 41 15 46 15 81 0 24 -11 56 -16 91 -14 53 3 55 4 58 33 2 17 14
39 28 50 14 11 31 38 38 60 11 31 21 41 44 47 59 16 72 47 72 174 0 66 -5 124
-12 139 -12 27 -54 55 -81 55 -9 0 -18 15 -22 37 -16 86 -95 178 -173 201 -47
14 -135 14 -180 -1z m22 -159 c14 -23 -3 -52 -33 -56 -42 -6 -67 38 -39 66 17
17 58 11 72 -10z m220 0 c14 -23 -3 -52 -33 -56 -42 -6 -67 38 -39 66 17 17
58 11 72 -10z m-69 -158 c0 -24 -2 -25 -78 -28 -81 -3 -98 6 -83 43 5 13 21
15 83 13 76 -3 78 -4 78 -28z"/>
</g>
</svg>
