<?xml version="1.0" standalone="no"?>
<!DOCTYPE svg PUBLIC "-//W3C//DTD SVG 20010904//EN"
 "http://www.w3.org/TR/2001/REC-SVG-20010904/DTD/svg10.dtd">
<svg version="1.0" xmlns="http://www.w3.org/2000/svg"
 width="192.000000pt" height="192.000000pt" viewBox="0 0 192.000000 192.000000"
 preserveAspectRatio="xMidYMid meet">
<metadata>
Created by potrace 1.16, written by Peter Selinger 2001-2019
</metadata>
<g transform="translate(0.000000,192.000000) scale(0.100000,-0.100000)"
fill="#000000" stroke="none">
811 c445 -92 729 -532 635 -987 -62 -301 -295 -546 -601 -630 -91 -26 -329
-26 -420 0 -291 80 -516 305 -596 596 -26 91 -26 329 0 420 120 433 542 692
982 601z"/>
<path d="M711 1340 c-73 -18 -126 -82 -136 -164 -4 -29 -5 -144 -3 -257 3
-168 6 -209 20 -235 21 -39 71 -82 106 -92 15 -4 131 -7 257 -7 127 0 242 3
257 7 35 10 85 53 106 92 15 27 17 63 17 271 0 132 -3 252 -7 267 -10 35 -53
85 -92 106 -26 14 -65 17 -261 19 -126 1 -245 -2 -264 -7z m339 -140 l0 -60
-196 0 -196 0 6 32 c7 35 31 66 61 79 11 4 89 8 173 8 l152 1 0 -60z m167 27
c12 -12 25 -37 29 -54 l7 -33 -62 0 -61 0 0 61 0 62 33 -7 c17 -4 42 -17 54
-29z m-467 -361 c0 -186 -1 -194 -19 -189 -11 3 -30 16 -43 30 -22 23 -23 33
-26 189 l-3 164 45 0 46 0 0 -194z m498 29 l-3 -165 -28 -27 -27 -28 -178 0
-177 0 -3 193 -2 192 210 0 211 0 -3 -165z"/>
<path d="M1001 977 c-47 -16 -74 -56 -74 -107 0 -54 28 -91 80 -108 76 -24
146 27 146 106 0 45 -15 77 -46 96 -34 21 -69 25 -106 13z"/>
</g>
</svg>
