<?xml version="1.0" standalone="no"?>
<!DOCTYPE svg PUBLIC "-//W3C//DTD SVG 20010904//EN"
 "http://www.w3.org/TR/2001/REC-SVG-20010904/DTD/svg10.dtd">
<svg version="1.0" xmlns="http://www.w3.org/2000/svg"
 width="192.000000pt" height="192.000000pt" viewBox="0 0 192.000000 192.000000"
 preserveAspectRatio="xMidYMid meet">
<metadata>
Created by potrace 1.16, written by Peter Selinger 2001-2019
</metadata>
<g transform="translate(0.000000,192.000000) scale(0.100000,-0.100000)"
fill="#000000" stroke="none">
811 c445 -92 729 -532 635 -987 -62 -301 -295 -546 -601 -630 -91 -26 -329
-26 -420 0 -291 80 -516 305 -596 596 -26 91 -26 329 0 420 120 433 542 692
982 601z"/>
<path d="M1304 1441 c-88 -54 -48 -191 55 -191 45 0 79 23 97 66 27 66 -26
144 -98 144 -13 0 -37 -9 -54 -19z"/>
<path d="M859 1327 c-100 -28 -200 -111 -245 -202 -34 -71 -44 -144 -44 -340
0 -138 3 -175 16 -193 17 -24 65 -30 82 -9 6 7 12 99 14 227 l3 215 30 54
c113 204 390 201 491 -6 68 -137 9 -303 -131 -369 -65 -31 -161 -32 -224 -4
-54 25 -73 25 -94 2 -40 -43 -14 -81 78 -112 152 -52 337 3 430 130 44 60 62
103 73 173 27 169 -67 342 -224 414 -67 30 -185 40 -255 20z"/>
</g>
</svg>
