<?xml version="1.0" standalone="no"?>
<!DOCTYPE svg PUBLIC "-//W3C//DTD SVG 20010904//EN"
 "http://www.w3.org/TR/2001/REC-SVG-20010904/DTD/svg10.dtd">
<svg version="1.0" xmlns="http://www.w3.org/2000/svg"
 width="192.000000pt" height="192.000000pt" viewBox="0 0 192.000000 192.000000"
 preserveAspectRatio="xMidYMid meet">
<metadata>
Created by potrace 1.16, written by Peter Selinger 2001-2019
</metadata>
<g transform="translate(0.000000,192.000000) scale(0.100000,-0.100000)"
fill="#000000" stroke="none">
811 c445 -92 729 -532 635 -987 -62 -301 -295 -546 -601 -630 -91 -26 -329
-26 -420 0 -291 80 -516 305 -596 596 -26 91 -26 329 0 420 120 433 542 692
982 601z"/>
<path d="M707 1326 c-48 -18 -83 -50 -108 -98 -17 -33 -19 -61 -19 -263 0
-188 3 -231 16 -258 31 -61 74 -96 137 -111 l27 -6 0 195 0 195 55 0 55 0 0
-86 0 -86 74 4 c93 4 116 21 116 84 0 63 -31 84 -121 84 l-69 0 0 45 0 45 74
0 c151 0 216 -54 216 -178 0 -114 -72 -172 -212 -172 l-78 0 0 -66 0 -65 158
3 c182 3 216 15 267 87 l30 43 0 243 0 243 -30 43 c-55 78 -78 84 -330 86
-169 2 -229 0 -258 -11z m505 -83 c26 -24 25 -96 -3 -124 -18 -18 -30 -20 -67
-16 -28 3 -51 12 -59 23 -18 25 -16 94 4 116 21 24 99 25 125 1z"/>
<path d="M1122 1183 c2 -22 9 -29 31 -31 24 -3 27 0 27 27 0 28 -3 31 -31 31
-27 0 -30 -3 -27 -27z"/>
</g>
</svg>
