<?xml version="1.0" standalone="no"?>
<!DOCTYPE svg PUBLIC "-//W3C//DTD SVG 20010904//EN"
 "http://www.w3.org/TR/2001/REC-SVG-20010904/DTD/svg10.dtd">
<svg version="1.0" xmlns="http://www.w3.org/2000/svg"
 width="192.000000pt" height="192.000000pt" viewBox="0 0 192.000000 192.000000"
 preserveAspectRatio="xMidYMid meet">
<metadata>
Created by potrace 1.16, written by Peter Selinger 2001-2019
</metadata>
<g transform="translate(0.000000,192.000000) scale(0.100000,-0.100000)"
fill="#000000" stroke="none">
811 c445 -92 729 -532 635 -987 -62 -301 -295 -546 -601 -630 -91 -26 -329
-26 -420 0 -291 80 -516 305 -596 596 -26 91 -26 329 0 420 120 433 542 692
982 601z"/>
<path d="M879 1366 c-83 -29 -147 -86 -191 -169 -22 -40 -23 -54 -26 -312 -4
-295 0 -319 54 -344 48 -22 93 -14 130 23 32 32 34 38 34 103 l0 68 88 0 c109
0 171 25 237 96 68 73 90 127 90 224 0 71 -4 88 -33 147 -38 78 -94 129 -172
159 -58 22 -157 25 -211 5z m208 -95 c91 -46 146 -160 125 -258 -48 -229 -351
-268 -448 -58 -26 56 -30 116 -12 179 15 50 98 137 148 154 49 16 139 8 187
-17z m-277 -567 c0 -53 -4 -77 -16 -88 -19 -20 -29 -20 -48 0 -13 12 -16 38
-16 120 l0 105 40 -32 40 -32 0 -73z"/>
<path d="M889 1207 c-118 -80 -112 -244 12 -307 49 -26 102 -25 156 1 124 60
124 254 0 313 -51 24 -127 21 -168 -7z m152 -86 c48 -48 38 -116 -22 -147 -62
-31 -129 13 -129 85 1 84 91 121 151 62z"/>
</g>
</svg>
