<?xml version="1.0" standalone="no"?>
<!DOCTYPE svg PUBLIC "-//W3C//DTD SVG 20010904//EN"
 "http://www.w3.org/TR/2001/REC-SVG-20010904/DTD/svg10.dtd">
<svg version="1.0" xmlns="http://www.w3.org/2000/svg"
 width="192.000000pt" height="192.000000pt" viewBox="0 0 192.000000 192.000000"
 preserveAspectRatio="xMidYMid meet">
<metadata>
Created by potrace 1.16, written by Peter Selinger 2001-2019
</metadata>
<g transform="translate(0.000000,192.000000) scale(0.100000,-0.100000)"
fill="#000000" stroke="none">
811 c445 -92 729 -532 635 -987 -62 -301 -295 -546 -601 -630 -91 -26 -329
-26 -420 0 -291 80 -516 305 -596 596 -26 91 -26 329 0 420 120 433 542 692
982 601z"/>
<path d="M897 1362 c-15 -10 -41 -37 -59 -60 l-31 -41 -46 23 c-123 62 -179
32 -210 -112 -46 -217 51 -438 242 -556 131 -80 174 -82 295 -15 176 97 273
258 276 454 1 105 -24 202 -61 237 -32 30 -83 28 -153 -5 l-54 -26 -15 22 c-8
12 -32 39 -53 60 -44 42 -85 48 -131 19z m-171 -137 c17 -7 34 -17 37 -22 3
-5 -3 -38 -15 -74 -16 -48 -21 -89 -21 -164 0 -96 4 -118 48 -240 12 -34 -89
79 -112 126 -30 61 -53 153 -53 214 0 46 22 154 36 177 6 9 27 5 80 -17z m542
-8 c39 -80 35 -232 -9 -334 -24 -56 -91 -148 -119 -163 -17 -9 -17 -6 5 43 49
105 57 217 24 332 -11 39 -22 79 -25 91 -5 17 3 24 43 42 57 25 64 24 81 -11z"/>
</g>
</svg>
