<?xml version="1.0" standalone="no"?>
<!DOCTYPE svg PUBLIC "-//W3C//DTD SVG 20010904//EN"
 "http://www.w3.org/TR/2001/REC-SVG-20010904/DTD/svg10.dtd">
<svg version="1.0" xmlns="http://www.w3.org/2000/svg"
 width="192.000000pt" height="192.000000pt" viewBox="0 0 192.000000 192.000000"
 preserveAspectRatio="xMidYMid meet">
<metadata>
Created by potrace 1.16, written by Peter Selinger 2001-2019
</metadata>
<g transform="translate(0.000000,192.000000) scale(0.100000,-0.100000)"
fill="#000000" stroke="none">
811 c445 -92 729 -532 635 -987 -62 -301 -295 -546 -601 -630 -91 -26 -329
-26 -420 0 -291 80 -516 305 -596 596 -26 91 -26 329 0 420 120 433 542 692
982 601z"/>
<path d="M695 1321 c-50 -22 -91 -69 -105 -119 -14 -52 -13 -430 2 -473 17
-53 46 -87 91 -112 40 -21 53 -22 272 -22 219 0 232 1 272 22 89 48 103 94
103 347 0 217 -6 258 -47 307 -53 62 -83 69 -328 69 -192 0 -225 -3 -260 -19z
m33 -324 c3 -46 2 -49 -27 -60 -22 -8 -31 -18 -31 -34 0 -14 -6 -23 -15 -23
-12 0 -15 16 -15 86 l0 85 43 -3 42 -3 3 -48z m62 -32 c0 -69 -3 -85 -15 -85
-12 0 -15 16 -15 85 0 69 3 85 15 85 12 0 15 -16 15 -85z m118 53 c2 -20 -1
-28 -12 -28 -9 0 -16 7 -16 15 0 8 -7 15 -15 15 -12 0 -15 -13 -15 -55 0 -55
16 -76 27 -35 7 28 33 25 33 -3 0 -30 -18 -47 -50 -47 -39 0 -50 18 -50 85 0
71 11 87 60 83 30 -3 35 -7 38 -30z m120 5 c2 -16 -2 -23 -12 -23 -9 0 -16 5
-16 10 0 6 -7 10 -15 10 -27 0 -16 -31 15 -41 25 -9 30 -16 30 -44 0 -18 -6
-38 -14 -44 -35 -29 -108 11 -78 41 11 11 16 10 27 -6 8 -10 18 -15 24 -11 21
12 11 32 -21 41 -26 8 -34 16 -36 37 -5 40 14 59 57 55 29 -2 37 -8 39 -25z
m116 -40 c9 -38 19 -76 22 -85 4 -12 0 -18 -11 -18 -9 0 -19 9 -22 20 -3 11
-14 20 -25 20 -11 0 -22 -9 -25 -20 -6 -21 -33 -28 -33 -9 0 11 26 121 35 147
2 6 13 12 23 12 16 0 23 -14 36 -67z m56 35 l11 -33 14 33 c16 37 51 46 39 10
-3 -13 -13 -35 -20 -50 -8 -15 -14 -43 -14 -63 0 -24 -4 -35 -15 -35 -9 0 -15
9 -15 24 0 25 -4 38 -34 109 -16 35 -15 37 3 37 12 0 23 -11 31 -32z"/>
<path d="M670 995 c0 -16 6 -25 15 -25 9 0 15 9 15 25 0 16 -6 25 -15 25 -9 0
-15 -9 -15 -25z"/>
<path d="M1101 973 c-1 -18 4 -33 9 -33 12 0 12 17 0 45 -7 17 -9 15 -9 -12z"/>
</g>
</svg>
