<?xml version="1.0" standalone="no"?>
<!DOCTYPE svg PUBLIC "-//W3C//DTD SVG 20010904//EN"
 "http://www.w3.org/TR/2001/REC-SVG-20010904/DTD/svg10.dtd">
<svg version="1.0" xmlns="http://www.w3.org/2000/svg"
 width="192.000000pt" height="192.000000pt" viewBox="0 0 192.000000 192.000000"
 preserveAspectRatio="xMidYMid meet">
<metadata>
Created by potrace 1.16, written by Peter Selinger 2001-2019
</metadata>
<g transform="translate(0.000000,192.000000) scale(0.100000,-0.100000)"
fill="#000000" stroke="none">
811 c445 -92 729 -532 635 -987 -62 -301 -295 -546 -601 -630 -91 -26 -329
-26 -420 0 -291 80 -516 305 -596 596 -26 91 -26 329 0 420 120 433 542 692
982 601z"/>
<path d="M706 1326 c-46 -17 -89 -57 -111 -101 -23 -49 -22 -472 1 -518 23
-45 44 -66 86 -88 33 -17 61 -19 273 -19 212 0 240 2 273 19 43 22 63 43 86
89 15 29 17 64 14 272 l-3 238 -31 39 c-61 75 -71 78 -324 80 -174 2 -234 0
-264 -11z m484 -81 c55 -29 60 -45 60 -210 l0 -150 -48 73 c-28 43 -56 75 -69
78 -38 10 -70 -4 -93 -41 -12 -19 -25 -35 -28 -35 -4 0 -29 34 -56 75 -48 74
-71 91 -113 83 -10 -2 -53 -55 -98 -122 l-80 -118 -3 151 c-3 166 1 181 51
211 29 18 52 20 240 20 165 0 214 -3 237 -15z"/>
</g>
</svg>
