<?xml version="1.0" standalone="no"?>
<!DOCTYPE svg PUBLIC "-//W3C//DTD SVG 20010904//EN"
 "http://www.w3.org/TR/2001/REC-SVG-20010904/DTD/svg10.dtd">
<svg version="1.0" xmlns="http://www.w3.org/2000/svg"
 width="192.000000pt" height="192.000000pt" viewBox="0 0 192.000000 192.000000"
 preserveAspectRatio="xMidYMid meet">
<metadata>
Created by potrace 1.16, written by Peter Selinger 2001-2019
</metadata>
<g transform="translate(0.000000,192.000000) scale(0.100000,-0.100000)"
fill="#000000" stroke="none">
811 c445 -92 729 -532 635 -987 -62 -301 -295 -546 -601 -630 -91 -26 -329
-26 -420 0 -291 80 -516 305 -596 596 -26 91 -26 329 0 420 120 433 542 692
982 601z"/>
<path d="M1113 1358 c-5 -7 -23 -37 -39 -65 -16 -29 -32 -53 -35 -53 -3 0 -14
9 -24 20 -18 20 -50 27 -58 13 -2 -5 -7 -24 -11 -43 -6 -35 -5 -36 39 -52 85
-32 157 -105 184 -190 14 -43 12 -42 64 -27 42 11 49 35 17 64 -11 10 -20 21
-20 24 0 4 30 24 66 44 73 43 79 63 27 87 -23 10 -31 20 -26 30 22 53 34 102
29 115 -7 20 -42 19 -95 -5 -24 -11 -44 -19 -45 -18 -21 56 -53 81 -73 56z"/>
<path d="M783 1134 c-58 -21 -175 -132 -207 -196 -48 -96 -29 -226 42 -301 77
-81 203 -103 305 -54 73 37 178 147 201 213 42 125 -13 267 -128 326 -53 27
-156 33 -213 12z m92 -164 c0 -42 -3 -55 -15 -55 -10 0 -16 12 -18 33 -3 28
-7 32 -32 32 -32 0 -45 13 -36 36 4 11 18 14 53 12 l48 -3 0 -55z m143 6 c2
-31 -1 -52 -9 -57 -21 -13 -39 2 -39 32 0 24 -4 29 -24 29 -13 0 -28 6 -35 13
-18 22 9 38 59 35 l45 -3 3 -49z m-273 -141 c0 -43 -3 -50 -20 -50 -15 0 -21
8 -23 33 -3 28 -7 32 -32 32 -16 0 -32 5 -35 10 -13 21 8 31 58 28 l52 -3 0
-50z m135 0 c0 -48 -3 -55 -19 -55 -15 0 -21 8 -23 33 -3 28 -7 32 -35 35 -25
2 -33 8 -33 23 0 16 7 19 55 19 l55 0 0 -55z m135 0 c0 -43 -3 -50 -20 -50
-15 0 -21 8 -23 33 -3 28 -7 32 -32 32 -16 0 -32 5 -35 10 -13 21 8 31 58 28
l52 -3 0 -50z m-276 -89 c7 -8 11 -34 9 -58 -2 -35 -7 -43 -23 -43 -15 0 -21
8 -23 33 -3 28 -7 32 -32 32 -30 0 -45 21 -27 39 16 16 82 14 96 -3z m136 -46
c0 -42 -3 -55 -15 -55 -10 0 -16 12 -18 33 -3 28 -7 32 -32 32 -32 0 -45 13
-36 36 4 11 18 14 53 12 l48 -3 0 -55z"/>
</g>
</svg>
