<?xml version="1.0" standalone="no"?>
<!DOCTYPE svg PUBLIC "-//W3C//DTD SVG 20010904//EN"
 "http://www.w3.org/TR/2001/REC-SVG-20010904/DTD/svg10.dtd">
<svg version="1.0" xmlns="http://www.w3.org/2000/svg"
 width="192.000000pt" height="192.000000pt" viewBox="0 0 192.000000 192.000000"
 preserveAspectRatio="xMidYMid meet">
<metadata>
Created by potrace 1.16, written by Peter Selinger 2001-2019
</metadata>
<g transform="translate(0.000000,192.000000) scale(0.100000,-0.100000)"
fill="#000000" stroke="none">
811 c445 -92 729 -532 635 -987 -62 -301 -295 -546 -601 -630 -91 -26 -329
-26 -420 0 -291 80 -516 305 -596 596 -26 91 -26 329 0 420 120 433 542 692
982 601z"/>
<path d="M578 1291 c-27 -24 -33 -36 -33 -71 0 -35 6 -47 33 -71 l32 -29 346
0 346 0 29 29 c38 39 40 97 5 138 l-24 28 -351 3 -350 3 -33 -30z m100 -43
c17 -17 15 -43 -4 -59 -31 -26 -70 25 -44 56 15 18 32 19 48 3z"/>
<path d="M600 1052 c-75 -37 -73 -145 4 -177 53 -23 654 -22 701 0 74 36 74
144 0 180 -28 12 -85 15 -352 15 -283 0 -322 -2 -353 -18z m85 -87 c0 -27 -3
-30 -30 -30 -21 0 -31 5 -33 18 -6 33 6 49 35 45 24 -3 28 -8 28 -33z"/>
<path d="M578 781 c-27 -24 -33 -36 -33 -71 0 -35 6 -47 33 -71 l33 -30 350 3
351 3 24 28 c35 41 33 99 -5 138 l-29 29 -346 0 -346 0 -32 -29z m100 -43 c17
-17 15 -43 -4 -59 -31 -26 -70 25 -44 56 15 18 32 19 48 3z"/>
</g>
</svg>
