<?xml version="1.0" standalone="no"?>
<!DOCTYPE svg PUBLIC "-//W3C//DTD SVG 20010904//EN"
 "http://www.w3.org/TR/2001/REC-SVG-20010904/DTD/svg10.dtd">
<svg version="1.0" xmlns="http://www.w3.org/2000/svg"
 width="192.000000pt" height="192.000000pt" viewBox="0 0 192.000000 192.000000"
 preserveAspectRatio="xMidYMid meet">
<metadata>
Created by potrace 1.16, written by Peter Selinger 2001-2019
</metadata>
<g transform="translate(0.000000,192.000000) scale(0.100000,-0.100000)"
fill="#000000" stroke="none">
811 c445 -92 729 -532 635 -987 -62 -301 -295 -546 -601 -630 -91 -26 -329
-26 -420 0 -291 80 -516 305 -596 596 -26 91 -26 329 0 420 120 433 542 692
982 601z"/>
<path d="M755 1376 c-16 -7 -69 -54 -117 -103 -120 -123 -126 -163 -41 -254
l45 -49 -45 -50 c-84 -93 -77 -139 36 -257 45 -47 94 -91 109 -99 58 -30 116
-13 178 50 l34 36 47 -46 c41 -41 54 -47 98 -52 l51 -5 100 99 c138 135 147
181 55 274 l-45 46 45 44 c93 91 80 155 -58 287 -116 111 -163 116 -251 24
l-40 -41 -52 50 c-29 28 -59 50 -66 50 -7 0 -22 2 -33 5 -11 3 -33 -1 -50 -9z
m197 -211 c73 -74 138 -135 145 -135 17 0 43 29 43 47 0 8 -29 45 -65 82 l-65
67 38 37 c21 20 47 37 58 37 12 0 53 -33 103 -84 75 -78 81 -87 70 -107 -6
-12 -67 -79 -135 -149 -68 -70 -124 -134 -124 -142 0 -18 20 -38 39 -38 9 0
45 29 82 66 l66 65 41 -45 c23 -25 42 -51 42 -57 0 -19 -162 -179 -181 -179
-10 0 -80 63 -155 140 -76 77 -145 140 -154 140 -22 0 -40 -20 -40 -43 0 -10
30 -50 67 -88 l67 -69 -39 -40 c-22 -22 -46 -40 -54 -40 -19 0 -181 160 -181
178 0 8 63 79 140 159 77 80 140 151 140 158 0 16 -27 45 -42 45 -5 0 -44 -33
-85 -72 l-75 -73 -39 42 c-21 23 -39 49 -39 58 0 26 149 175 175 175 16 0 63
-40 157 -135z"/>
<path d="M896 1021 c-31 -31 -37 -45 -32 -64 6 -27 69 -87 90 -87 15 0 96 84
96 100 0 20 -73 90 -94 90 -12 0 -39 -17 -60 -39z"/>
</g>
</svg>
