<?xml version="1.0" standalone="no"?>
<!DOCTYPE svg PUBLIC "-//W3C//DTD SVG 20010904//EN"
 "http://www.w3.org/TR/2001/REC-SVG-20010904/DTD/svg10.dtd">
<svg version="1.0" xmlns="http://www.w3.org/2000/svg"
 width="192.000000pt" height="192.000000pt" viewBox="0 0 192.000000 192.000000"
 preserveAspectRatio="xMidYMid meet">
<metadata>
Created by potrace 1.16, written by Peter Selinger 2001-2019
</metadata>
<g transform="translate(0.000000,192.000000) scale(0.100000,-0.100000)"
fill="#000000" stroke="none">
811 c445 -92 729 -532 635 -987 -62 -301 -295 -546 -601 -630 -91 -26 -329
-26 -420 0 -291 80 -516 305 -596 596 -26 91 -26 329 0 420 120 433 542 692
982 601z"/>
<path d="M893 1370 c-221 -31 -386 -257 -344 -471 24 -121 101 -232 200 -288
l41 -22 0 36 c0 20 13 91 29 158 17 77 26 138 24 165 -6 53 2 87 27 112 39 39
100 14 100 -40 0 -13 -9 -57 -20 -97 -23 -78 -18 -102 21 -123 32 -18 86 5
115 49 29 45 50 143 40 194 -20 109 -168 161 -273 98 -80 -49 -118 -163 -78
-238 15 -27 16 -38 6 -59 -11 -24 -13 -25 -34 -12 -73 48 -91 169 -39 263 88
160 324 194 452 66 52 -52 70 -96 70 -172 0 -135 -83 -248 -195 -264 -37 -6
-73 3 -126 32 -4 2 -10 -13 -14 -34 -3 -21 -17 -64 -30 -95 l-22 -58 34 -6
c19 -4 70 -4 113 -2 276 16 453 317 337 572 -35 76 -72 121 -139 166 -92 61
-190 84 -295 70z"/>
</g>
</svg>
