<?xml version="1.0" standalone="no"?>
<!DOCTYPE svg PUBLIC "-//W3C//DTD SVG 20010904//EN"
 "http://www.w3.org/TR/2001/REC-SVG-20010904/DTD/svg10.dtd">
<svg version="1.0" xmlns="http://www.w3.org/2000/svg"
 width="192.000000pt" height="192.000000pt" viewBox="0 0 192.000000 192.000000"
 preserveAspectRatio="xMidYMid meet">
<metadata>
Created by potrace 1.16, written by Peter Selinger 2001-2019
</metadata>
<g transform="translate(0.000000,192.000000) scale(0.100000,-0.100000)"
fill="#000000" stroke="none">
811 c445 -92 729 -532 635 -987 -62 -301 -295 -546 -601 -630 -91 -26 -329
-26 -420 0 -291 80 -516 305 -596 596 -26 91 -26 329 0 420 120 433 542 692
982 601z"/>
<path d="M870 1366 c-214 -46 -359 -253 -323 -463 21 -122 104 -242 201 -292
l42 -21 0 32 c0 18 13 87 29 153 20 87 27 136 23 177 -5 64 11 101 53 120 19
9 29 7 50 -6 31 -20 32 -44 4 -141 -21 -70 -21 -76 -5 -99 59 -92 173 9 183
162 4 58 2 71 -19 101 -12 19 -34 43 -48 53 -33 24 -117 34 -164 18 -48 -16
-105 -66 -122 -107 -19 -43 -18 -123 1 -150 19 -28 10 -73 -14 -73 -22 0 -56
36 -70 73 -20 51 -13 129 15 185 49 99 134 146 259 146 87 -1 131 -15 185 -61
104 -87 104 -277 1 -384 -70 -72 -154 -87 -220 -39 l-28 19 -13 -57 c-7 -31
-21 -75 -31 -96 -15 -31 -16 -42 -7 -48 7 -5 58 -7 114 -6 89 3 107 7 166 36
122 60 205 171 229 306 37 214 -115 424 -336 465 -70 13 -84 13 -155 -3z"/>
</g>
</svg>
