<?xml version="1.0" standalone="no"?>
<!DOCTYPE svg PUBLIC "-//W3C//DTD SVG 20010904//EN"
 "http://www.w3.org/TR/2001/REC-SVG-20010904/DTD/svg10.dtd">
<svg version="1.0" xmlns="http://www.w3.org/2000/svg"
 width="192.000000pt" height="192.000000pt" viewBox="0 0 192.000000 192.000000"
 preserveAspectRatio="xMidYMid meet">
<metadata>
Created by potrace 1.16, written by Peter Selinger 2001-2019
</metadata>
<g transform="translate(0.000000,192.000000) scale(0.100000,-0.100000)"
fill="#000000" stroke="none">
811 c445 -92 729 -532 635 -987 -62 -301 -295 -546 -601 -630 -91 -26 -329
-26 -420 0 -291 80 -516 305 -596 596 -26 91 -26 329 0 420 120 433 542 692
982 601z"/>
<path d="M725 1341 c-22 -10 -52 -31 -67 -47 -55 -59 -58 -79 -58 -379 0 -191
4 -283 12 -298 32 -60 87 -63 149 -8 l45 39 174 3 c170 4 176 5 222 32 31 18
57 44 75 75 27 46 28 52 31 217 5 216 -4 262 -63 321 -25 24 -59 47 -81 53
-22 6 -120 11 -219 11 -154 0 -186 -3 -220 -19z m304 -191 c103 -52 114 -202
20 -272 -112 -84 -275 14 -256 154 15 109 136 170 236 118z"/>
<path d="M959 1069 c-23 -44 26 -89 67 -61 18 12 24 42 14 63 -15 27 -66 26
-81 -2z"/>
</g>
</svg>
