<?xml version="1.0" standalone="no"?>
<!DOCTYPE svg PUBLIC "-//W3C//DTD SVG 20010904//EN"
 "http://www.w3.org/TR/2001/REC-SVG-20010904/DTD/svg10.dtd">
<svg version="1.0" xmlns="http://www.w3.org/2000/svg"
 width="192.000000pt" height="192.000000pt" viewBox="0 0 192.000000 192.000000"
 preserveAspectRatio="xMidYMid meet">
<metadata>
Created by potrace 1.16, written by Peter Selinger 2001-2019
</metadata>
<g transform="translate(0.000000,192.000000) scale(0.100000,-0.100000)"
fill="#000000" stroke="none">
811 c445 -92 729 -532 635 -987 -62 -301 -295 -546 -601 -630 -91 -26 -329
-26 -420 0 -291 80 -516 305 -596 596 -26 91 -26 329 0 420 120 433 542 692
982 601z"/>
<path d="M720 1348 c-26 -13 -57 -41 -75 -66 l-30 -44 0 -273 0 -273 30 -44
c18 -25 49 -53 75 -66 43 -22 53 -23 246 -20 l201 3 40 28 c22 15 49 45 61 66
21 37 22 50 22 306 0 256 -1 269 -22 306 -12 21 -39 51 -61 66 l-40 28 -201 3
c-193 3 -203 2 -246 -20z m110 -178 c24 -24 25 -48 4 -78 -30 -43 -114 -15
-114 38 0 28 35 60 65 60 14 0 34 -9 45 -20z m163 8 c28 -22 32 -63 8 -87 -41
-41 -111 -15 -111 41 0 44 66 73 103 46z m169 -5 c22 -20 23 -61 1 -85 -34
-38 -103 -11 -103 40 0 54 62 81 102 45z m-334 -163 c12 -12 22 -32 22 -45 0
-24 -41 -65 -67 -65 -19 0 -63 45 -63 65 0 22 45 65 68 65 10 0 28 -9 40 -20z
m167 -5 c30 -29 31 -46 8 -73 -28 -31 -56 -35 -86 -11 -32 25 -35 61 -7 89 27
27 56 25 85 -5z m163 9 c26 -18 30 -75 6 -94 -23 -20 -75 -16 -90 5 -31 42 -3
105 46 105 9 0 26 -7 38 -16z m-324 -176 c9 -12 16 -30 16 -40 0 -26 -36 -58
-65 -58 -30 0 -65 32 -65 60 0 53 84 81 114 38z m167 1 c36 -36 6 -99 -48 -99
-27 0 -63 33 -63 58 0 56 70 82 111 41z m161 4 c22 -20 23 -61 1 -85 -34 -38
-103 -11 -103 40 0 54 62 81 102 45z"/>
</g>
</svg>
