<?xml version="1.0" standalone="no"?>
<!DOCTYPE svg PUBLIC "-//W3C//DTD SVG 20010904//EN"
 "http://www.w3.org/TR/2001/REC-SVG-20010904/DTD/svg10.dtd">
<svg version="1.0" xmlns="http://www.w3.org/2000/svg"
 width="192.000000pt" height="192.000000pt" viewBox="0 0 192.000000 192.000000"
 preserveAspectRatio="xMidYMid meet">
<metadata>
Created by potrace 1.16, written by Peter Selinger 2001-2019
</metadata>
<g transform="translate(0.000000,192.000000) scale(0.100000,-0.100000)"
fill="#000000" stroke="none">
811 c445 -92 729 -532 635 -987 -62 -301 -295 -546 -601 -630 -91 -26 -329
-26 -420 0 -291 80 -516 305 -596 596 -26 91 -26 329 0 420 120 433 542 692
982 601z"/>
<path d="M645 1333 c-50 -13 -55 -28 -55 -160 0 -165 -2 -163 160 -163 162 0
160 -2 160 163 0 160 0 161 -143 164 -56 1 -111 -1 -122 -4z"/>
<path d="M1125 1330 c-103 -23 -156 -137 -109 -236 48 -101 210 -113 276 -21
30 42 36 123 13 172 -30 62 -111 101 -180 85z"/>
<path d="M696 920 c-34 -11 -73 -45 -92 -82 -23 -44 -18 -127 10 -169 35 -52
79 -69 173 -69 70 0 82 3 101 23 19 20 22 35 22 109 0 92 -15 129 -70 170 -30
21 -104 31 -144 18z"/>
<path d="M1026 909 c-26 -20 -26 -22 -26 -145 0 -166 -2 -164 160 -164 162 0
160 -2 160 164 0 123 0 125 -26 145 -23 18 -41 21 -134 21 -93 0 -111 -3 -134
-21z"/>
</g>
</svg>
