<?xml version="1.0" standalone="no"?>
<!DOCTYPE svg PUBLIC "-//W3C//DTD SVG 20010904//EN"
 "http://www.w3.org/TR/2001/REC-SVG-20010904/DTD/svg10.dtd">
<svg version="1.0" xmlns="http://www.w3.org/2000/svg"
 width="192.000000pt" height="192.000000pt" viewBox="0 0 192.000000 192.000000"
 preserveAspectRatio="xMidYMid meet">
<metadata>
Created by potrace 1.16, written by Peter Selinger 2001-2019
</metadata>
<g transform="translate(0.000000,192.000000) scale(0.100000,-0.100000)"
fill="#000000" stroke="none">
811 c445 -92 729 -532 635 -987 -62 -301 -295 -546 -601 -630 -91 -26 -329
-26 -420 0 -291 80 -516 305 -596 596 -26 91 -26 329 0 420 120 433 542 692
982 601z"/>
<path d="M690 1319 c-118 -47 -135 -215 -30 -285 64 -42 164 -31 211 22 47 54
56 139 21 196 -40 64 -132 95 -202 67z m119 -105 c24 -30 26 -43 10 -77 -11
-24 -47 -47 -74 -47 -8 0 -26 11 -41 23 -55 48 -25 127 47 127 29 0 42 -6 58
-26z"/>
<path d="M1022 1307 c-20 -21 -22 -34 -22 -140 0 -103 2 -119 19 -136 26 -26
72 -34 176 -30 81 4 88 6 112 33 24 28 25 34 21 143 -4 152 -5 153 -167 153
-110 0 -119 -2 -139 -23z m216 -139 l3 -78 -76 0 -75 0 0 80 0 81 73 -3 72 -3
3 -77z"/>
<path d="M643 923 c-44 -9 -53 -38 -53 -165 0 -159 -1 -158 160 -158 106 0
122 2 139 19 26 26 34 72 30 175 -5 121 -15 130 -152 132 -56 1 -112 0 -124
-3z m185 -160 l-3 -78 -75 0 -75 0 -3 78 -3 77 81 0 81 0 -3 -77z"/>
<path d="M1121 920 c-84 -20 -121 -78 -121 -193 0 -70 3 -80 26 -103 24 -25
30 -26 114 -22 105 4 132 19 169 91 19 38 22 56 16 93 -8 57 -61 120 -108 129
-18 4 -39 8 -47 10 -8 1 -30 -1 -49 -5z m94 -105 c26 -25 32 -63 15 -95 -12
-22 -60 -40 -106 -40 l-34 0 0 60 c0 47 4 64 20 80 28 28 75 26 105 -5z"/>
</g>
</svg>
