<?xml version="1.0" standalone="no"?>
<!DOCTYPE svg PUBLIC "-//W3C//DTD SVG 20010904//EN"
 "http://www.w3.org/TR/2001/REC-SVG-20010904/DTD/svg10.dtd">
<svg version="1.0" xmlns="http://www.w3.org/2000/svg"
 width="192.000000pt" height="192.000000pt" viewBox="0 0 192.000000 192.000000"
 preserveAspectRatio="xMidYMid meet">
<metadata>
Created by potrace 1.16, written by Peter Selinger 2001-2019
</metadata>
<g transform="translate(0.000000,192.000000) scale(0.100000,-0.100000)"
fill="#000000" stroke="none">
811 c445 -92 729 -532 635 -987 -62 -301 -295 -546 -601 -630 -91 -26 -329
-26 -420 0 -291 80 -516 305 -596 596 -26 91 -26 329 0 420 120 433 542 692
982 601z"/>
<path d="M719 1325 c-36 -19 -63 -78 -55 -119 4 -18 19 -45 35 -60 77 -73 191
-20 191 90 0 52 -53 104 -106 104 -22 -1 -51 -7 -65 -15z"/>
<path d="M1036 1160 c-52 -16 -106 -82 -106 -130 0 -11 33 -78 73 -148 41 -70
76 -138 80 -151 10 -39 -3 -79 -36 -111 l-31 -30 125 0 c98 0 131 4 158 18 51
25 76 65 76 120 0 41 -12 68 -101 222 -102 176 -123 201 -184 214 -14 2 -38 1
-54 -4z"/>
<path d="M716 1028 c-28 -25 -171 -271 -181 -310 -9 -37 18 -94 54 -112 44
-23 338 -23 382 0 36 18 63 75 54 112 -10 39 -153 285 -181 310 -17 15 -38 22
-64 22 -26 0 -47 -7 -64 -22z"/>
</g>
</svg>
