<?xml version="1.0" standalone="no"?>
<!DOCTYPE svg PUBLIC "-//W3C//DTD SVG 20010904//EN"
 "http://www.w3.org/TR/2001/REC-SVG-20010904/DTD/svg10.dtd">
<svg version="1.0" xmlns="http://www.w3.org/2000/svg"
 width="192.000000pt" height="192.000000pt" viewBox="0 0 192.000000 192.000000"
 preserveAspectRatio="xMidYMid meet">
<metadata>
Created by potrace 1.16, written by Peter Selinger 2001-2019
</metadata>
<g transform="translate(0.000000,192.000000) scale(0.100000,-0.100000)"
fill="#000000" stroke="none">
811 c445 -92 729 -532 635 -987 -62 -301 -295 -546 -601 -630 -91 -26 -329
-26 -420 0 -291 80 -516 305 -596 596 -26 91 -26 329 0 420 120 433 542 692
982 601z"/>
<path d="M667 1343 c-74 -57 -107 -122 -107 -212 0 -33 5 -72 11 -88 7 -15 15
-77 19 -136 8 -129 10 -132 136 -236 109 -90 151 -110 227 -111 76 0 112 16
215 99 139 110 135 104 143 229 4 62 13 123 23 144 19 44 21 131 4 179 -25 74
-107 159 -153 159 -29 0 -111 -73 -135 -121 -25 -48 -55 -69 -100 -69 -40 0
-66 21 -93 76 -22 42 -104 114 -132 114 -12 0 -38 -12 -58 -27z m87 -94 c30
-35 35 -92 11 -126 -16 -22 -105 -77 -113 -69 -11 12 -13 97 -2 130 12 37 55
96 70 96 5 0 20 -14 34 -31z m478 -14 c32 -46 45 -117 29 -158 l-11 -29 -38
22 c-60 36 -82 66 -82 112 0 46 33 101 58 96 9 -2 29 -21 44 -43z m-397 -321
c69 -32 92 -88 83 -199 -3 -29 -1 -30 37 -30 36 0 40 2 38 25 -1 14 -5 37 -8
51 -11 42 26 113 73 144 33 22 53 27 109 28 l68 2 0 -65 0 -64 -75 -64 c-108
-91 -153 -116 -210 -115 -26 0 -56 5 -66 11 -47 25 -200 156 -211 180 -16 36
-16 95 0 111 16 17 113 9 162 -15z"/>
<path d="M776 842 c-9 -26 2 -49 24 -55 28 -7 52 15 48 44 -4 32 -63 41 -72
11z"/>
<path d="M1060 840 c-15 -29 22 -65 51 -50 27 15 34 37 19 55 -18 21 -57 19
-70 -5z"/>
</g>
</svg>
