<?xml version="1.0" standalone="no"?>
<!DOCTYPE svg PUBLIC "-//W3C//DTD SVG 20010904//EN"
 "http://www.w3.org/TR/2001/REC-SVG-20010904/DTD/svg10.dtd">
<svg version="1.0" xmlns="http://www.w3.org/2000/svg"
 width="192.000000pt" height="192.000000pt" viewBox="0 0 192.000000 192.000000"
 preserveAspectRatio="xMidYMid meet">
<metadata>
Created by potrace 1.16, written by Peter Selinger 2001-2019
</metadata>
<g transform="translate(0.000000,192.000000) scale(0.100000,-0.100000)"
fill="#000000" stroke="none">
811 c445 -92 729 -532 635 -987 -62 -301 -295 -546 -601 -630 -91 -26 -329
-26 -420 0 -291 80 -516 305 -596 596 -26 91 -26 329 0 420 120 433 542 692
982 601z"/>
<path d="M605 1315 c-25 -24 -25 -25 -25 -228 0 -190 1 -205 20 -225 11 -12
31 -24 43 -27 12 -3 161 -5 330 -3 l309 3 24 28 c24 28 24 31 24 223 l0 196
-29 29 -29 29 -322 0 -321 0 -24 -25z m163 -142 c3 -28 -1 -33 -23 -39 -31 -8
-55 10 -55 41 0 30 9 36 45 33 26 -3 30 -7 33 -35z m447 17 c10 -32 -12 -62
-43 -58 -28 3 -40 32 -28 64 8 22 63 18 71 -6z m-120 -150 l0 -35 -52 -3 c-48
-3 -53 -5 -53 -27 0 -23 -23 -55 -40 -55 -27 0 -40 15 -40 46 0 27 -4 34 -19
34 -36 0 -51 12 -51 39 0 15 3 31 7 35 4 3 61 5 127 4 l121 -3 0 -35z"/>
<path d="M605 765 c-36 -35 -35 -112 1 -146 25 -24 29 -24 201 -24 l175 0 24
28 c38 45 25 143 -21 161 -9 3 -93 6 -186 6 -167 0 -170 0 -194 -25z"/>
<path d="M1095 765 c-33 -32 -35 -100 -4 -139 19 -24 26 -26 105 -26 78 0 87
2 111 26 22 22 25 32 20 77 -7 73 -27 87 -129 87 -70 0 -82 -3 -103 -25z"/>
</g>
</svg>
