<?xml version="1.0" standalone="no"?>
<!DOCTYPE svg PUBLIC "-//W3C//DTD SVG 20010904//EN"
 "http://www.w3.org/TR/2001/REC-SVG-20010904/DTD/svg10.dtd">
<svg version="1.0" xmlns="http://www.w3.org/2000/svg"
 width="192.000000pt" height="192.000000pt" viewBox="0 0 192.000000 192.000000"
 preserveAspectRatio="xMidYMid meet">
<metadata>
Created by potrace 1.16, written by Peter Selinger 2001-2019
</metadata>
<g transform="translate(0.000000,192.000000) scale(0.100000,-0.100000)"
fill="#000000" stroke="none">
811 c445 -92 729 -532 635 -987 -62 -301 -295 -546 -601 -630 -91 -26 -329
-26 -420 0 -291 80 -516 305 -596 596 -26 91 -26 329 0 420 120 433 542 692
982 601z"/>
<path d="M880 1369 c-214 -37 -366 -248 -331 -461 27 -162 135 -286 290 -332
96 -28 257 -12 301 30 13 12 11 18 -15 44 l-30 30 -50 -16 c-105 -32 -246 6
-319 86 -65 72 -81 114 -81 215 0 78 4 97 27 141 32 60 93 118 157 148 71 32
199 30 267 -6 65 -34 137 -114 158 -175 30 -88 18 -199 -31 -276 l-25 -40 32
-31 31 -31 25 30 c65 81 94 198 76 306 -20 116 -69 195 -165 266 -89 65 -204
91 -317 72z"/>
<path d="M876 1175 c-42 -15 -100 -65 -122 -106 -7 -15 -16 -46 -20 -70 l-6
-44 61 60 61 60 128 -128 c70 -70 133 -127 140 -127 21 0 62 100 62 150 -1
116 -107 221 -222 220 -24 -1 -60 -7 -82 -15z"/>
<path d="M801 896 l-42 -43 26 -31 c37 -44 107 -75 170 -75 29 0 58 4 65 8 8
5 -15 35 -76 96 -49 49 -91 89 -94 89 -3 0 -25 -20 -49 -44z"/>
</g>
</svg>
