<?xml version="1.0" standalone="no"?>
<!DOCTYPE svg PUBLIC "-//W3C//DTD SVG 20010904//EN"
 "http://www.w3.org/TR/2001/REC-SVG-20010904/DTD/svg10.dtd">
<svg version="1.0" xmlns="http://www.w3.org/2000/svg"
 width="192.000000pt" height="192.000000pt" viewBox="0 0 192.000000 192.000000"
 preserveAspectRatio="xMidYMid meet">
<metadata>
Created by potrace 1.16, written by Peter Selinger 2001-2019
</metadata>
<g transform="translate(0.000000,192.000000) scale(0.100000,-0.100000)"
fill="#000000" stroke="none">
811 c445 -92 729 -532 635 -987 -62 -301 -295 -546 -601 -630 -91 -26 -329
-26 -420 0 -291 80 -516 305 -596 596 -26 91 -26 329 0 420 120 433 542 692
982 601z"/>
<path d="M812 1350 c-18 -11 -39 -35 -47 -52 -8 -18 -26 -133 -40 -254 -24
-199 -25 -225 -12 -256 18 -44 62 -75 114 -84 40 -6 41 -6 46 -57 5 -60 31
-87 82 -87 51 0 77 27 82 87 5 49 6 51 42 57 54 9 100 42 118 83 14 35 13 53
-12 258 -16 121 -35 235 -43 252 -26 58 -64 73 -188 73 -91 0 -114 -3 -142
-20z"/>
</g>
</svg>
