<?xml version="1.0" standalone="no"?>
<!DOCTYPE svg PUBLIC "-//W3C//DTD SVG 20010904//EN"
 "http://www.w3.org/TR/2001/REC-SVG-20010904/DTD/svg10.dtd">
<svg version="1.0" xmlns="http://www.w3.org/2000/svg"
 width="192.000000pt" height="192.000000pt" viewBox="0 0 192.000000 192.000000"
 preserveAspectRatio="xMidYMid meet">
<metadata>
Created by potrace 1.16, written by Peter Selinger 2001-2019
</metadata>
<g transform="translate(0.000000,192.000000) scale(0.100000,-0.100000)"
fill="#000000" stroke="none">
811 c445 -92 729 -532 635 -987 -62 -301 -295 -546 -601 -630 -91 -26 -329
-26 -420 0 -291 80 -516 305 -596 596 -26 91 -26 329 0 420 120 433 542 692
982 601z"/>
<path d="M853 1366 c-67 -17 -156 -71 -200 -121 -20 -22 -50 -69 -67 -105 -29
-61 -31 -72 -31 -175 0 -104 2 -114 32 -176 18 -35 44 -75 58 -89 l25 -23 0
159 c0 183 11 238 63 306 21 27 56 55 97 76 60 31 71 34 135 30 85 -6 136 -30
191 -90 58 -63 78 -121 72 -210 -7 -110 -57 -186 -152 -235 -68 -35 -171 -38
-233 -7 l-43 21 0 -72 0 -72 43 -11 c76 -20 111 -22 172 -12 283 46 434 369
288 617 -38 66 -134 148 -200 173 -72 27 -181 34 -250 16z"/>
<path d="M875 1134 c-45 -23 -66 -45 -86 -89 -82 -179 136 -349 281 -219 131
118 56 324 -117 324 -26 0 -61 -7 -78 -16z m135 -104 c44 -44 34 -108 -21
-139 -51 -29 -119 14 -119 76 0 70 92 111 140 63z"/>
</g>
</svg>
