<?xml version="1.0" standalone="no"?>
<!DOCTYPE svg PUBLIC "-//W3C//DTD SVG 20010904//EN"
 "http://www.w3.org/TR/2001/REC-SVG-20010904/DTD/svg10.dtd">
<svg version="1.0" xmlns="http://www.w3.org/2000/svg"
 width="192.000000pt" height="192.000000pt" viewBox="0 0 192.000000 192.000000"
 preserveAspectRatio="xMidYMid meet">
<metadata>
Created by potrace 1.16, written by Peter Selinger 2001-2019
</metadata>
<g transform="translate(0.000000,192.000000) scale(0.100000,-0.100000)"
fill="#000000" stroke="none">
811 c445 -92 729 -532 635 -987 -62 -301 -295 -546 -601 -630 -91 -26 -329
-26 -420 0 -291 80 -516 305 -596 596 -26 91 -26 329 0 420 120 433 542 692
982 601z"/>
<path d="M850 1366 c-118 -34 -211 -113 -263 -224 -30 -63 -32 -74 -32 -177 0
-98 3 -116 26 -165 14 -30 39 -71 55 -89 l29 -35 5 180 c5 171 6 182 33 236
30 61 65 96 131 131 58 31 184 31 241 0 55 -29 118 -99 140 -156 22 -57 17
-175 -9 -224 -27 -54 -76 -103 -130 -131 -67 -34 -170 -37 -234 -5 l-42 20 0
-72 0 -72 43 -11 c76 -20 111 -22 172 -12 283 46 434 369 288 617 -38 66 -134
148 -200 173 -71 27 -191 35 -253 16z"/>
<path d="M880 1139 c-60 -24 -110 -101 -110 -170 0 -159 185 -247 300 -143
131 118 56 326 -117 323 -26 0 -59 -5 -73 -10z m130 -109 c44 -44 34 -108 -21
-139 -51 -29 -119 14 -119 76 0 70 92 111 140 63z"/>
</g>
</svg>
