<?xml version="1.0" standalone="no"?>
<!DOCTYPE svg PUBLIC "-//W3C//DTD SVG 20010904//EN"
 "http://www.w3.org/TR/2001/REC-SVG-20010904/DTD/svg10.dtd">
<svg version="1.0" xmlns="http://www.w3.org/2000/svg"
 width="192.000000pt" height="192.000000pt" viewBox="0 0 192.000000 192.000000"
 preserveAspectRatio="xMidYMid meet">
<metadata>
Created by potrace 1.16, written by Peter Selinger 2001-2019
</metadata>
<g transform="translate(0.000000,192.000000) scale(0.100000,-0.100000)"
fill="#000000" stroke="none">
811 c445 -92 729 -532 635 -987 -62 -301 -295 -546 -601 -630 -91 -26 -329
-26 -420 0 -291 80 -516 305 -596 596 -26 91 -26 329 0 420 120 433 542 692
982 601z"/>
<path d="M857 1370 c-112 -29 -218 -117 -270 -228 -30 -63 -32 -74 -32 -177 0
-98 3 -116 26 -165 14 -30 39 -71 55 -89 l29 -35 5 190 c5 187 5 190 35 243
36 65 83 105 153 131 108 41 206 18 293 -69 84 -84 107 -176 74 -289 -22 -73
-99 -154 -171 -181 -81 -31 -140 -27 -236 14 -16 6 -18 0 -18 -64 l0 -70 38
-10 c106 -29 190 -22 288 23 168 77 266 281 223 465 -28 123 -134 248 -246
291 -65 25 -185 35 -246 20z"/>
<path d="M869 1096 c-37 -25 -69 -86 -69 -129 1 -40 38 -106 72 -127 26 -17
45 -20 91 -17 51 3 62 8 95 40 36 36 37 40 37 106 0 60 -3 73 -25 96 -57 61
-139 73 -201 31z"/>
</g>
</svg>
