<?xml version="1.0" standalone="no"?>
<!DOCTYPE svg PUBLIC "-//W3C//DTD SVG 20010904//EN"
 "http://www.w3.org/TR/2001/REC-SVG-20010904/DTD/svg10.dtd">
<svg version="1.0" xmlns="http://www.w3.org/2000/svg"
 width="192.000000pt" height="192.000000pt" viewBox="0 0 192.000000 192.000000"
 preserveAspectRatio="xMidYMid meet">
<metadata>
Created by potrace 1.16, written by Peter Selinger 2001-2019
</metadata>
<g transform="translate(0.000000,192.000000) scale(0.100000,-0.100000)"
fill="#000000" stroke="none">
811 c445 -92 729 -532 635 -987 -62 -301 -295 -546 -601 -630 -91 -26 -329
-26 -420 0 -291 80 -516 305 -596 596 -26 91 -26 329 0 420 120 433 542 692
982 601z"/>
<path d="M835 1366 c-59 -19 -115 -50 -159 -88 l-40 -35 63 -112 c35 -61 68
-110 74 -108 11 3 207 335 207 349 0 12 -101 8 -145 -6z"/>
<path d="M968 1272 c-32 -55 -58 -107 -58 -116 0 -14 21 -16 199 -16 121 0
202 4 206 10 9 14 -47 92 -96 134 -46 39 -117 75 -163 83 -30 4 -33 1 -88 -95z"/>
<path d="M573 1133 c-31 -68 -42 -192 -24 -260 l12 -43 124 0 c68 0 126 4 130
9 8 14 -187 351 -203 351 -7 0 -25 -26 -39 -57z"/>
<path d="M1094 1095 c-8 -19 178 -339 198 -343 20 -4 54 76 67 154 8 54 -1
172 -15 195 -3 5 -59 9 -125 9 -97 0 -121 -3 -125 -15z"/>
<path d="M1022 748 c-77 -134 -97 -176 -88 -185 16 -17 125 1 192 31 64 30
137 94 131 116 -7 26 -117 210 -126 210 -5 0 -53 -78 -109 -172z"/>
<path d="M594 785 c-19 -49 133 -185 238 -213 44 -12 42 -14 122 127 38 66 45
85 35 92 -8 5 -99 9 -202 9 -156 0 -189 -2 -193 -15z"/>
</g>
</svg>
