<?xml version="1.0" standalone="no"?>
<!DOCTYPE svg PUBLIC "-//W3C//DTD SVG 20010904//EN"
 "http://www.w3.org/TR/2001/REC-SVG-20010904/DTD/svg10.dtd">
<svg version="1.0" xmlns="http://www.w3.org/2000/svg"
 width="192.000000pt" height="192.000000pt" viewBox="0 0 192.000000 192.000000"
 preserveAspectRatio="xMidYMid meet">
<metadata>
Created by potrace 1.16, written by Peter Selinger 2001-2019
</metadata>
<g transform="translate(0.000000,192.000000) scale(0.100000,-0.100000)"
fill="#000000" stroke="none">
811 c445 -92 729 -532 635 -987 -62 -301 -295 -546 -601 -630 -91 -26 -329
-26 -420 0 -291 80 -516 305 -596 596 -26 91 -26 329 0 420 120 433 542 692
982 601z"/>
<path d="M891 1355 c-18 -8 -44 -15 -57 -15 -47 0 -94 -29 -168 -105 -59 -59
-76 -83 -81 -113 -3 -20 -11 -50 -17 -67 -19 -52 -21 -123 -4 -165 9 -22 16
-53 16 -68 0 -36 25 -73 103 -154 51 -53 72 -68 103 -73 22 -4 66 -16 100 -28
58 -20 62 -20 112 -4 28 9 57 17 64 17 50 0 95 26 168 100 44 43 81 89 84 101
3 13 7 35 10 49 2 14 12 46 22 72 16 41 17 52 6 90 -7 24 -17 64 -22 90 -5 26
-14 57 -21 70 -22 43 -155 167 -185 173 -16 3 -56 14 -89 25 -71 24 -98 24
-144 5z m108 -80 c16 -8 48 -18 72 -21 37 -6 54 -18 107 -73 34 -36 65 -76 67
-90 3 -15 10 -44 16 -66 16 -55 14 -92 -4 -145 -9 -25 -18 -57 -22 -73 -3 -16
-19 -36 -39 -49 -18 -12 -42 -35 -52 -50 -22 -32 -33 -38 -94 -48 -25 -4 -59
-13 -76 -20 -26 -11 -36 -11 -64 4 -19 9 -52 19 -74 23 -33 5 -54 19 -108 73
-39 39 -68 76 -68 88 0 11 -8 47 -18 79 -18 58 -18 61 -1 104 10 24 18 58 18
75 1 21 10 40 27 55 15 13 48 45 74 72 37 37 55 47 81 47 19 1 48 7 64 15 40
18 60 18 94 0z"/>
<path d="M846 1108 c-13 -18 -16 -52 -16 -163 0 -159 7 -179 55 -173 28 3 30
6 33 51 l3 47 47 0 c114 0 180 111 119 201 -28 42 -71 58 -159 58 -58 1 -69
-2 -82 -21z m162 -80 c32 -27 -3 -78 -55 -78 -32 0 -33 1 -33 44 0 34 4 46 18
49 20 5 52 -2 70 -15z"/>
</g>
</svg>
