<?xml version="1.0" standalone="no"?>
<!DOCTYPE svg PUBLIC "-//W3C//DTD SVG 20010904//EN"
 "http://www.w3.org/TR/2001/REC-SVG-20010904/DTD/svg10.dtd">
<svg version="1.0" xmlns="http://www.w3.org/2000/svg"
 width="192.000000pt" height="192.000000pt" viewBox="0 0 192.000000 192.000000"
 preserveAspectRatio="xMidYMid meet">
<metadata>
Created by potrace 1.16, written by Peter Selinger 2001-2019
</metadata>
<g transform="translate(0.000000,192.000000) scale(0.100000,-0.100000)"
fill="#000000" stroke="none">
811 c445 -92 729 -532 635 -987 -62 -301 -295 -546 -601 -630 -91 -26 -329
-26 -420 0 -291 80 -516 305 -596 596 -26 91 -26 329 0 420 120 433 542 692
982 601z"/>
<path d="M700 1324 c-45 -20 -68 -41 -91 -86 -17 -33 -19 -61 -19 -273 0 -217
2 -239 20 -275 20 -39 73 -81 118 -95 22 -6 22 -6 22 114 l0 121 -25 0 c-41 0
-42 27 -1 69 32 32 36 43 36 87 0 27 -5 55 -11 61 -23 23 -2 43 45 43 52 0 64
-12 45 -46 -23 -43 0 -39 49 9 26 26 57 47 67 47 12 -1 74 -52 144 -120 107
-102 123 -121 111 -134 -7 -9 -21 -16 -31 -16 -18 0 -19 -9 -19 -121 0 -106 2
-120 16 -115 9 3 20 6 25 6 21 0 96 82 108 117 9 27 11 105 9 269 l-3 231 -29
41 c-52 75 -80 82 -332 82 -172 -1 -226 -4 -254 -16z m500 -94 c42 -42 14
-110 -46 -110 -60 0 -83 62 -39 105 29 30 58 32 85 5z"/>
<path d="M906 784 c-22 -22 -27 -49 -24 -129 l3 -70 68 -3 67 -3 0 88 c0 106
-13 133 -65 133 -18 0 -41 -7 -49 -16z"/>
</g>
</svg>
