<?xml version="1.0" standalone="no"?>
<!DOCTYPE svg PUBLIC "-//W3C//DTD SVG 20010904//EN"
 "http://www.w3.org/TR/2001/REC-SVG-20010904/DTD/svg10.dtd">
<svg version="1.0" xmlns="http://www.w3.org/2000/svg"
 width="192.000000pt" height="192.000000pt" viewBox="0 0 192.000000 192.000000"
 preserveAspectRatio="xMidYMid meet">
<metadata>
Created by potrace 1.16, written by Peter Selinger 2001-2019
</metadata>
<g transform="translate(0.000000,192.000000) scale(0.100000,-0.100000)"
fill="#000000" stroke="none">
811 c445 -92 729 -532 635 -987 -62 -301 -295 -546 -601 -630 -91 -26 -329
-26 -420 0 -291 80 -516 305 -596 596 -26 91 -26 329 0 420 120 433 542 692
982 601z"/>
<path d="M852 1363 c-121 -28 -235 -130 -284 -253 -31 -78 -30 -213 1 -292 76
-193 285 -304 480 -254 36 9 67 18 69 21 2 2 -6 16 -17 32 -18 25 -61 133 -61
155 0 4 16 26 36 48 20 22 40 55 44 74 7 31 5 35 -17 41 -13 3 -29 17 -35 30
-10 22 -8 28 15 49 l26 25 -34 34 c-35 35 -47 77 -22 77 6 0 27 -9 45 -20 19
-12 31 -16 27 -10 -4 6 -32 23 -63 38 -30 15 -64 39 -75 54 -19 26 -20 29 -5
65 9 21 19 47 23 58 6 18 7 19 16 3 7 -12 6 -24 -1 -37 -5 -11 -10 -35 -9 -53
0 -28 3 -24 18 27 10 33 21 67 25 76 6 13 -2 17 -40 23 -64 8 -88 7 -162 -11z"/>
<path d="M1291 1354 c14 -16 32 -64 25 -64 -2 0 -29 9 -62 20 -68 24 -62 15
20 -32 72 -40 89 -63 62 -83 -10 -8 -16 -19 -14 -26 7 -22 48 28 48 59 0 43
-29 119 -48 126 -9 3 -24 9 -32 12 -12 6 -12 4 1 -12z"/>
<path d="M1064 1333 c-3 -15 -10 -43 -16 -61 -10 -33 -4 -82 10 -82 4 0 18 27
31 60 29 71 37 74 16 4 -20 -67 -19 -83 8 -93 20 -8 23 -4 34 33 l12 41 -2
-60 c-2 -58 -1 -60 24 -63 41 -5 57 18 53 80 l-4 53 13 -39 c14 -44 25 -52 50
-34 16 12 14 17 -27 63 -42 48 -126 106 -173 120 -19 5 -23 1 -29 -22z"/>
<path d="M1274 1131 c-18 -11 -35 -24 -38 -30 -12 -18 14 -12 41 9 14 11 32
20 39 20 8 0 14 5 14 10 0 15 -22 12 -56 -9z"/>
<path d="M1332 1084 c-7 -17 -24 -36 -38 -42 -24 -11 -24 -12 -18 -119 3 -60
10 -120 16 -135 6 -15 8 -34 4 -43 -11 -31 4 -14 25 28 47 91 59 190 35 292
l-11 50 -13 -31z"/>
</g>
</svg>
