<?xml version="1.0" standalone="no"?>
<!DOCTYPE svg PUBLIC "-//W3C//DTD SVG 20010904//EN"
 "http://www.w3.org/TR/2001/REC-SVG-20010904/DTD/svg10.dtd">
<svg version="1.0" xmlns="http://www.w3.org/2000/svg"
 width="192.000000pt" height="192.000000pt" viewBox="0 0 192.000000 192.000000"
 preserveAspectRatio="xMidYMid meet">
<metadata>
Created by potrace 1.16, written by Peter Selinger 2001-2019
</metadata>
<g transform="translate(0.000000,192.000000) scale(0.100000,-0.100000)"
fill="#000000" stroke="none">
811 c445 -92 729 -532 635 -987 -62 -301 -295 -546 -601 -630 -91 -26 -329
-26 -420 0 -291 80 -516 305 -596 596 -26 91 -26 329 0 420 120 433 542 692
982 601z"/>
<path d="M780 1371 c-73 -15 -118 -50 -145 -114 -22 -54 -22 -530 0 -584 38
-91 89 -115 262 -121 247 -9 319 13 368 112 25 49 25 54 25 301 0 247 0 252
-25 301 -28 56 -76 93 -138 105 -51 10 -298 10 -347 0z m2 -368 c23 -21 23
-55 -1 -77 -26 -24 -62 -17 -80 15 -13 24 -13 29 2 53 20 30 52 34 79 9z m145
-9 c15 -24 15 -29 2 -53 -18 -32 -54 -39 -80 -15 -23 21 -24 51 -2 76 24 26
59 23 80 -8z m133 6 c11 -11 20 -27 20 -35 0 -20 -36 -55 -57 -55 -23 0 -53
30 -53 53 0 26 28 57 52 57 10 0 27 -9 38 -20z m134 7 c38 -28 13 -97 -35 -97
-43 0 -65 63 -33 94 19 19 44 20 68 3z"/>
</g>
</svg>
