<?xml version="1.0" standalone="no"?>
<!DOCTYPE svg PUBLIC "-//W3C//DTD SVG 20010904//EN"
 "http://www.w3.org/TR/2001/REC-SVG-20010904/DTD/svg10.dtd">
<svg version="1.0" xmlns="http://www.w3.org/2000/svg"
 width="192.000000pt" height="192.000000pt" viewBox="0 0 192.000000 192.000000"
 preserveAspectRatio="xMidYMid meet">
<metadata>
Created by potrace 1.16, written by Peter Selinger 2001-2019
</metadata>
<g transform="translate(0.000000,192.000000) scale(0.100000,-0.100000)"
fill="#000000" stroke="none">
811 c445 -92 729 -532 635 -987 -62 -301 -295 -546 -601 -630 -91 -26 -329
-26 -420 0 -291 80 -516 305 -596 596 -26 91 -26 329 0 420 120 433 542 692
982 601z"/>
<path d="M922 1334 c-79 -7 -147 -16 -150 -19 -4 -4 -14 -27 -23 -53 -15 -45
-19 -49 -117 -102 -99 -54 -125 -75 -79 -66 12 3 198 19 412 37 215 18 394 35
398 39 5 4 -40 24 -101 44 l-109 37 -23 49 c-18 38 -29 50 -44 49 -12 -1 -86
-7 -164 -15z"/>
<path d="M803 1074 c-4 -11 1 -22 12 -30 14 -10 15 -14 4 -14 -11 0 -14 -18
-14 -85 l0 -85 65 0 c48 0 73 -5 95 -20 30 -20 61 -25 89 -14 22 8 20 24 -3
24 -10 0 -37 8 -59 18 l-41 18 39 60 c22 32 40 65 40 72 0 8 -21 12 -70 12
l-70 0 0 -37 c0 -37 0 -37 16 -15 13 19 44 31 44 17 0 -3 -17 -31 -37 -62
l-38 -56 -3 69 c-2 50 -7 72 -19 82 -16 11 -15 12 1 12 12 0 16 6 14 23 -4 28
-55 38 -65 11z"/>
<path d="M585 945 l0 -125 40 0 40 0 -3 102 c-3 113 7 148 33 114 21 -27 19
-69 -5 -99 -17 -22 -18 -26 -4 -31 48 -18 94 22 94 84 0 64 -24 80 -117 80
l-78 0 0 -125z"/>
<path d="M1051 993 c0 -37 0 -38 16 -15 13 19 43 31 43 17 0 -2 -16 -29 -35
-59 -42 -66 -43 -76 -7 -76 15 0 42 -9 60 -20 33 -21 58 -25 86 -14 22 8 20
24 -3 24 -10 0 -37 8 -58 18 l-40 17 38 60 c21 33 39 66 39 73 0 8 -21 12 -70
12 l-70 0 1 -37z"/>
<path d="M1228 1019 c-20 -11 -24 -34 -7 -45 7 -4 19 3 29 16 10 13 22 20 29
16 23 -14 10 -34 -31 -48 -50 -16 -67 -49 -39 -77 14 -14 32 -18 82 -17 l64 1
-3 65 c-3 51 -8 69 -24 83 -22 19 -73 22 -100 6z m53 -122 c-16 -16 -26 20
-10 40 13 15 14 14 17 -7 2 -12 -1 -27 -7 -33z"/>
<path d="M709 833 c0 -4 0 -34 1 -65 l1 -58 -36 0 c-20 0 -45 5 -55 10 -26 14
-33 -2 -13 -30 13 -19 22 -22 61 -17 l44 5 -4 -49 -5 -49 41 0 41 0 0 63 c0
55 2 62 20 62 18 0 20 -7 20 -62 l0 -63 40 0 40 0 0 130 0 130 -41 0 -41 0 5
-55 c4 -54 4 -55 -23 -55 -26 0 -27 1 -23 53 l3 52 -37 3 c-21 2 -38 0 -39 -5z"/>
<path d="M1154 768 c-31 -22 -31 -23 -26 -92 5 -79 14 -96 48 -96 25 0 45 21
26 28 -7 2 -12 26 -12 63 0 49 3 59 18 59 16 1 16 2 1 13 -9 7 -18 20 -20 30
-4 16 -7 15 -35 -5z"/>
<path d="M938 678 c2 -40 8 -78 14 -85 5 -6 37 -11 78 -11 l70 1 0 61 c0 89
-7 106 -41 106 -28 0 -29 -1 -23 -44 8 -55 -1 -96 -21 -96 -12 0 -15 14 -15
64 0 66 -7 76 -49 76 -14 0 -16 -9 -13 -72z"/>
</g>
</svg>
