<?xml version="1.0" standalone="no"?>
<!DOCTYPE svg PUBLIC "-//W3C//DTD SVG 20010904//EN"
 "http://www.w3.org/TR/2001/REC-SVG-20010904/DTD/svg10.dtd">
<svg version="1.0" xmlns="http://www.w3.org/2000/svg"
 width="192.000000pt" height="192.000000pt" viewBox="0 0 192.000000 192.000000"
 preserveAspectRatio="xMidYMid meet">
<metadata>
Created by potrace 1.16, written by Peter Selinger 2001-2019
</metadata>
<g transform="translate(0.000000,192.000000) scale(0.100000,-0.100000)"
fill="#000000" stroke="none">
811 c445 -92 729 -532 635 -987 -62 -301 -295 -546 -601 -630 -91 -26 -329
-26 -420 0 -291 80 -516 305 -596 596 -26 91 -26 329 0 420 120 433 542 692
982 601z"/>
<path d="M781 1236 c-14 -17 -5 -43 17 -49 13 -4 13 -5 -3 -6 -19 -1 -20 -7
-18 -93 l2 -93 78 -5 c57 -4 88 -11 114 -27 47 -30 64 -29 96 4 l27 26 52 -28
c47 -26 55 -27 83 -15 17 7 31 18 31 24 0 18 61 33 92 22 31 -11 67 9 48 28
-5 5 -10 38 -10 73 0 51 -3 64 -19 73 -32 17 -96 12 -122 -9 -22 -18 -23 -21
-7 -37 15 -15 17 -15 34 5 22 25 47 28 42 5 -2 -9 -23 -24 -48 -33 -39 -14
-45 -21 -48 -47 -2 -19 3 -38 12 -47 34 -33 9 -36 -58 -6 l-47 20 22 37 c13
20 33 52 45 71 13 19 21 38 18 43 -3 4 -41 8 -85 8 l-79 0 0 -35 c0 -40 8 -44
33 -15 9 11 24 20 32 20 11 0 2 -20 -30 -67 -49 -74 -54 -89 -27 -96 14 -4 14
-5 1 -6 -17 -1 -109 37 -109 45 0 2 20 35 45 71 24 37 42 70 39 75 -3 4 -41 8
-85 8 l-79 0 0 -35 c0 -39 9 -44 28 -15 7 11 21 20 32 20 18 0 15 -8 -22 -65
-24 -35 -46 -65 -50 -65 -5 0 -8 36 -8 80 0 69 -2 80 -17 81 -14 0 -15 2 -3 6
23 9 30 25 19 45 -11 21 -52 24 -68 4z m547 -173 c-4 -32 -38 -46 -38 -16 0
20 18 43 33 43 4 0 7 -12 5 -27z"/>
<path d="M530 1228 c0 -1 -1 -67 -3 -146 l-2 -142 50 0 50 0 -3 121 c-4 129 5
163 34 125 21 -29 18 -82 -6 -106 -12 -12 -18 -25 -15 -30 12 -19 66 -10 90
15 32 31 35 101 6 136 -17 21 -29 24 -110 27 -50 2 -91 2 -91 0z"/>
<path d="M668 901 c4 -67 4 -68 -21 -73 -14 -3 -43 1 -63 8 -45 15 -49 13 -40
-21 9 -34 47 -48 93 -36 l36 10 -6 -54 -6 -55 48 0 48 0 -5 70 -5 70 27 0 28
0 -4 -70 -3 -70 50 0 50 0 0 145 0 146 -49 -3 -50 -3 3 -57 c2 -57 2 -58 -25
-58 -27 0 -27 0 -21 60 l5 60 -48 0 -47 0 5 -69z"/>
<path d="M1165 886 c-29 -23 -30 -26 -26 -97 1 -41 7 -82 12 -91 11 -21 59
-24 77 -6 16 16 15 28 -3 28 -12 0 -15 13 -15 60 0 47 3 60 15 60 8 0 15 7 15
15 0 8 -7 15 -15 15 -8 0 -15 9 -15 20 0 26 -8 25 -45 -4z"/>
<path d="M920 803 c0 -38 6 -79 13 -93 12 -23 18 -25 97 -27 l85 -2 -3 87 c-4
92 -9 102 -53 102 l-26 0 5 -70 c4 -59 2 -71 -12 -76 -25 -10 -31 2 -31 64 0
69 -7 82 -46 82 l-29 0 0 -67z"/>
</g>
</svg>
