<?xml version="1.0" standalone="no"?>
<!DOCTYPE svg PUBLIC "-//W3C//DTD SVG 20010904//EN"
 "http://www.w3.org/TR/2001/REC-SVG-20010904/DTD/svg10.dtd">
<svg version="1.0" xmlns="http://www.w3.org/2000/svg"
 width="192.000000pt" height="192.000000pt" viewBox="0 0 192.000000 192.000000"
 preserveAspectRatio="xMidYMid meet">
<metadata>
Created by potrace 1.16, written by Peter Selinger 2001-2019
</metadata>
<g transform="translate(0.000000,192.000000) scale(0.100000,-0.100000)"
fill="#000000" stroke="none">
811 c445 -92 729 -532 635 -987 -62 -301 -295 -546 -601 -630 -91 -26 -329
-26 -420 0 -291 80 -516 305 -596 596 -26 91 -26 329 0 420 120 433 542 692
982 601z"/>
<path d="M964 1341 c-5 -26 -12 -30 -53 -36 -40 -6 -79 -19 -155 -50 -17 -8
-19 -5 -13 29 6 38 6 38 -14 20 -15 -13 -19 -27 -16 -48 3 -24 -3 -35 -31 -60
-19 -17 -42 -34 -51 -38 -9 -4 -11 -7 -4 -7 8 -1 5 -16 -9 -47 -24 -56 -15
-70 42 -65 35 2 45 -2 75 -32 30 -30 35 -42 35 -81 0 -37 -5 -52 -26 -73 -21
-21 -32 -25 -65 -20 -43 6 -47 -1 -23 -38 15 -23 63 -37 49 -15 -4 6 12 10 42
10 37 -1 44 -3 31 -11 -10 -5 -18 -19 -18 -29 0 -17 7 -20 40 -20 41 0 47 8
30 41 -7 13 -7 19 0 19 5 0 10 -4 10 -10 0 -5 5 -10 11 -10 5 0 7 5 4 10 -4 6
18 10 59 10 38 0 68 -5 72 -12 4 -6 3 -8 -4 -4 -6 3 -14 1 -18 -5 -5 -9 1 -10
20 -5 22 5 29 1 46 -26 24 -40 27 -80 5 -72 -8 4 -15 2 -15 -4 0 -6 6 -13 13
-15 6 -3 -7 -6 -31 -6 -26 -1 -41 3 -37 9 3 6 15 10 26 10 24 0 37 29 18 41
-21 14 -44 5 -42 -15 3 -36 -21 -46 -109 -45 -46 1 -73 4 -60 6 25 5 30 33 6
33 -21 0 -66 -48 -59 -61 4 -5 17 -9 30 -9 18 0 24 -6 27 -27 l3 -28 91 1 c78
0 100 4 147 28 31 15 69 43 86 62 17 19 31 31 31 27 0 -4 20 13 45 37 33 33
44 51 43 70 -1 18 10 42 34 71 20 25 42 57 48 73 12 32 11 124 -1 132 -5 2 -6
11 -3 18 3 7 -2 20 -10 29 -8 8 -13 17 -10 20 7 7 -41 84 -74 120 l-26 27 24
0 c23 0 23 0 4 15 -10 8 -14 15 -7 15 7 0 17 10 24 21 9 17 8 20 -3 14 -26
-15 -57 -48 -53 -56 3 -4 -9 0 -27 9 -19 9 -68 18 -116 20 l-84 5 6 28 c3 16
3 29 1 29 -3 0 -8 -13 -11 -29z m187 -264 c89 -59 89 -185 0 -244 -91 -61
-221 11 -221 122 0 76 70 145 145 145 27 0 54 -8 76 -23z m-251 -188 c0 -11
-4 -17 -10 -14 -5 3 -10 15 -10 26 0 11 5 17 10 14 6 -3 10 -15 10 -26z m-70
-8 c0 -6 -4 -13 -10 -16 -5 -3 -10 1 -10 9 0 9 5 16 10 16 6 0 10 -4 10 -9z
m371 -77 c-5 -16 -10 -21 -10 -12 -1 18 10 51 15 45 2 -1 -1 -16 -5 -33z"/>
<path d="M1020 1062 c-103 -51 -79 -206 35 -228 71 -13 145 49 145 121 0 43
-35 94 -75 111 -45 18 -62 18 -105 -4z m87 -58 c8 -21 -13 -42 -28 -27 -13 13
-5 43 11 43 6 0 13 -7 17 -16z"/>
<path d="M578 1153 c7 -3 16 -2 19 1 4 3 -2 6 -13 5 -11 0 -14 -3 -6 -6z"/>
<path d="M635 1008 c-32 -17 -45 -39 -45 -78 0 -78 96 -115 146 -56 33 38 31
80 -5 117 -31 30 -62 36 -96 17z m55 -69 c0 -5 -7 -9 -15 -9 -15 0 -20 12 -9
23 8 8 24 -1 24 -14z"/>
<path d="M720 776 c0 -9 30 -14 35 -6 4 6 -3 10 -14 10 -12 0 -21 -2 -21 -4z"/>
<path d="M877 774 c-11 -12 13 -44 33 -44 23 0 24 4 10 31 -11 19 -31 25 -43
13z"/>
<path d="M791 704 c0 -11 3 -14 6 -6 3 7 2 16 -1 19 -3 4 -6 -2 -5 -13z"/>
</g>
</svg>
