<?xml version="1.0" standalone="no"?>
<!DOCTYPE svg PUBLIC "-//W3C//DTD SVG 20010904//EN"
 "http://www.w3.org/TR/2001/REC-SVG-20010904/DTD/svg10.dtd">
<svg version="1.0" xmlns="http://www.w3.org/2000/svg"
 width="192.000000pt" height="192.000000pt" viewBox="0 0 192.000000 192.000000"
 preserveAspectRatio="xMidYMid meet">
<metadata>
Created by potrace 1.16, written by Peter Selinger 2001-2019
</metadata>
<g transform="translate(0.000000,192.000000) scale(0.100000,-0.100000)"
fill="#000000" stroke="none">
811 c445 -92 729 -532 635 -987 -62 -301 -295 -546 -601 -630 -91 -26 -329
-26 -420 0 -291 80 -516 305 -596 596 -26 91 -26 329 0 420 120 433 542 692
982 601z"/>
<path d="M850 1365 c-115 -33 -215 -115 -264 -219 -30 -63 -49 -161 -40 -213
l6 -38 106 0 c91 0 113 -3 147 -22 65 -35 135 -122 135 -166 0 -23 -116 2
-335 70 -18 6 -18 5 2 -27 62 -98 175 -172 291 -190 123 -20 257 24 348 115
53 53 98 122 72 112 -105 -43 -330 -98 -344 -84 -12 11 37 96 74 128 72 64
156 83 292 67 l25 -3 -1 86 c-1 74 -5 95 -32 152 -67 143 -198 235 -348 243
-52 3 -98 -1 -134 -11z m244 -138 c40 -30 38 -168 -5 -281 -22 -60 -78 -140
-111 -157 -20 -11 -20 -9 -14 27 4 22 10 48 13 59 10 36 -14 2 -27 -37 -22
-70 -40 -38 -40 74 0 112 53 245 121 302 35 30 39 31 63 13z m-306 -56 c20
-10 57 -37 82 -58 l44 -40 -12 -52 c-7 -29 -12 -79 -12 -112 0 -36 -4 -59 -11
-59 -6 0 -37 27 -69 59 -113 116 -159 281 -78 281 10 0 35 -9 56 -19z"/>
<path d="M537 874 c-15 -15 -6 -54 15 -68 28 -20 31 -17 17 25 -14 40 -23 52
-32 43z"/>
<path d="M1350 844 c-7 -19 -9 -38 -6 -41 10 -11 36 19 36 43 0 38 -18 37 -30
-2z"/>
</g>
</svg>
