<?xml version="1.0" standalone="no"?>
<!DOCTYPE svg PUBLIC "-//W3C//DTD SVG 20010904//EN"
 "http://www.w3.org/TR/2001/REC-SVG-20010904/DTD/svg10.dtd">
<svg version="1.0" xmlns="http://www.w3.org/2000/svg"
 width="192.000000pt" height="192.000000pt" viewBox="0 0 192.000000 192.000000"
 preserveAspectRatio="xMidYMid meet">
<metadata>
Created by potrace 1.16, written by Peter Selinger 2001-2019
</metadata>
<g transform="translate(0.000000,192.000000) scale(0.100000,-0.100000)"
fill="#000000" stroke="none">
811 c445 -92 729 -532 635 -987 -62 -301 -295 -546 -601 -630 -91 -26 -329
-26 -420 0 -291 80 -516 305 -596 596 -26 91 -26 329 0 420 120 433 542 692
982 601z"/>
<path d="M943 1347 c-10 -21 -20 -27 -42 -27 -17 0 -61 -11 -98 -25 -37 -13
-71 -21 -76 -16 -4 4 -3 21 3 36 11 29 11 29 -9 10 -13 -11 -21 -31 -21 -50 0
-31 -44 -85 -80 -98 -9 -3 -10 -6 -2 -6 9 -1 6 -13 -8 -42 -31 -60 -25 -74 33
-74 40 -1 52 -6 80 -33 28 -28 32 -39 32 -83 0 -43 -4 -54 -28 -75 -29 -25
-62 -30 -87 -14 -11 7 -7 10 18 10 46 0 82 38 82 85 0 90 -116 118 -158 38
-17 -32 -15 -57 10 -88 11 -15 31 -46 42 -69 12 -22 29 -43 40 -44 11 -3 16 0
12 7 -5 7 6 11 32 11 37 0 38 -1 34 -30 -4 -29 -3 -30 32 -30 31 0 36 3 36 23
0 13 -5 28 -12 35 -9 9 5 12 62 12 58 0 83 -5 108 -20 42 -26 68 -83 53 -117
-10 -22 -15 -23 -125 -23 -109 0 -114 1 -109 20 8 30 -32 26 -53 -5 -20 -31
-11 -45 29 -46 18 0 26 -3 20 -6 -7 -2 -13 -13 -13 -23 0 -41 164 -34 256 11
24 11 59 38 78 60 20 21 36 36 36 33 0 -3 14 4 30 16 36 26 67 79 51 89 -6 4
5 26 31 56 49 59 68 102 68 150 0 27 -4 35 -17 35 -15 0 -16 2 -3 10 12 8 13
11 1 19 -8 5 -9 10 -2 12 7 3 6 13 -4 32 -7 15 -12 27 -9 27 9 0 -69 116 -89
132 l-22 18 25 0 c19 0 21 3 11 9 -12 8 -12 12 2 26 26 26 20 28 -13 5 -16
-12 -30 -25 -30 -30 0 -5 -12 -2 -28 5 -15 8 -64 17 -109 21 -73 6 -82 9 -85
28 -3 18 -4 18 -15 -7z m188 -249 c41 -23 79 -84 79 -128 0 -13 -9 -43 -21
-67 -37 -77 -134 -105 -205 -58 -92 60 -83 208 16 257 47 24 84 23 131 -4z
m-461 -143 c0 -8 -4 -15 -9 -15 -13 0 -22 16 -14 24 11 11 23 6 23 -9z m220
-57 c0 -17 -3 -18 -15 -8 -8 7 -15 21 -15 32 0 17 3 18 15 8 8 -7 15 -21 15
-32z m-70 3 c0 -12 -20 -25 -27 -18 -7 7 6 27 18 27 5 0 9 -4 9 -9z m368 -88
c-5 -21 -12 -40 -15 -43 -6 -6 7 61 14 73 10 17 11 4 1 -30z m-138 -178 c-7
-8 -24 -14 -39 -14 l-26 2 25 4 c14 3 29 9 35 14 15 15 19 10 5 -6z"/>
<path d="M999 1074 c-56 -36 -74 -106 -44 -164 32 -62 129 -80 184 -34 56 47
59 134 6 184 -32 30 -109 38 -146 14z m101 -63 c0 -22 -23 -34 -38 -19 -15 15
-3 38 19 38 12 0 19 -7 19 -19z"/>
<path d="M577 1344 c-13 -13 -7 -24 13 -24 11 0 20 -4 20 -10 0 -5 -9 -10 -20
-10 -16 0 -20 -7 -20 -30 0 -28 3 -30 35 -30 19 0 35 5 35 10 0 6 -11 10 -25
10 -31 0 -33 17 -2 22 17 2 22 10 22 33 0 25 -5 31 -25 33 -14 2 -29 0 -33 -4z"/>
<path d="M568 1173 c6 -2 18 -2 25 0 6 3 1 5 -13 5 -14 0 -19 -2 -12 -5z"/>
<path d="M825 790 c4 -6 11 -8 16 -5 14 9 11 15 -7 15 -8 0 -12 -5 -9 -10z"/>
<path d="M871 790 c-21 -13 -5 -40 24 -40 22 0 24 3 15 19 -14 26 -23 31 -39
21z"/>
<path d="M718 783 c7 -3 16 -2 19 1 4 3 -2 6 -13 5 -11 0 -14 -3 -6 -6z"/>
<path d="M950 780 c0 -5 7 -10 16 -10 8 0 12 5 9 10 -3 6 -10 10 -16 10 -5 0
-9 -4 -9 -10z"/>
<path d="M950 706 c0 -18 27 -39 40 -31 5 3 10 15 10 26 0 14 -7 19 -25 19
-15 0 -25 -6 -25 -14z"/>
<path d="M935 670 c-3 -5 -1 -10 4 -10 6 0 11 5 11 10 0 6 -2 10 -4 10 -3 0
-8 -4 -11 -10z"/>
<path d="M1005 670 c-3 -5 -1 -10 4 -10 6 0 11 5 11 10 0 6 -2 10 -4 10 -3 0
-8 -4 -11 -10z"/>
</g>
</svg>
