<?xml version="1.0" standalone="no"?>
<!DOCTYPE svg PUBLIC "-//W3C//DTD SVG 20010904//EN"
 "http://www.w3.org/TR/2001/REC-SVG-20010904/DTD/svg10.dtd">
<svg version="1.0" xmlns="http://www.w3.org/2000/svg"
 width="192.000000pt" height="192.000000pt" viewBox="0 0 192.000000 192.000000"
 preserveAspectRatio="xMidYMid meet">
<metadata>
Created by potrace 1.16, written by Peter Selinger 2001-2019
</metadata>
<g transform="translate(0.000000,192.000000) scale(0.100000,-0.100000)"
fill="#000000" stroke="none">
811 c445 -92 729 -532 635 -987 -62 -301 -295 -546 -601 -630 -91 -26 -329
-26 -420 0 -291 80 -516 305 -596 596 -26 91 -26 329 0 420 120 433 542 692
982 601z"/>
<path d="M829 1351 c-152 -49 -258 -179 -278 -342 -13 -104 -13 -338 0 -377
10 -31 51 -62 82 -62 8 0 31 12 52 26 l38 25 66 -28 c58 -25 78 -28 171 -28
98 0 109 2 171 32 288 141 311 540 41 712 -96 61 -232 77 -343 42z m-29 -261
c24 -24 26 -53 4 -74 -18 -19 -65 -21 -82 -4 -20 20 -14 65 10 82 30 21 44 20
68 -4z m378 4 c24 -17 30 -62 10 -82 -17 -17 -64 -15 -82 4 -22 21 -20 50 4
74 24 24 38 25 68 4z m-379 -203 c23 -44 71 -88 107 -97 41 -10 110 2 143 25
17 12 43 43 57 67 20 34 32 44 48 42 31 -4 31 -33 1 -84 -81 -138 -268 -159
-371 -42 -56 64 -68 128 -25 128 14 0 27 -13 40 -39z"/>
</g>
</svg>
