<?xml version="1.0" standalone="no"?>
<!DOCTYPE svg PUBLIC "-//W3C//DTD SVG 20010904//EN"
 "http://www.w3.org/TR/2001/REC-SVG-20010904/DTD/svg10.dtd">
<svg version="1.0" xmlns="http://www.w3.org/2000/svg"
 width="192.000000pt" height="192.000000pt" viewBox="0 0 192.000000 192.000000"
 preserveAspectRatio="xMidYMid meet">
<metadata>
Created by potrace 1.16, written by Peter Selinger 2001-2019
</metadata>
<g transform="translate(0.000000,192.000000) scale(0.100000,-0.100000)"
fill="#000000" stroke="none">
811 c445 -92 729 -532 635 -987 -62 -301 -295 -546 -601 -630 -91 -26 -329
-26 -420 0 -291 80 -516 305 -596 596 -26 91 -26 329 0 420 120 433 542 692
982 601z"/>
<path d="M855 1366 c-120 -29 -222 -115 -278 -234 -29 -61 -32 -75 -32 -167 0
-92 3 -106 32 -168 101 -213 348 -301 558 -197 161 78 256 261 227 430 -43
241 -273 393 -507 336z m185 -92 c101 -30 162 -83 206 -179 56 -122 28 -263
-71 -359 -93 -91 -246 -114 -363 -56 -118 59 -177 154 -177 285 0 94 24 158
83 218 92 95 204 126 322 91z"/>
<path d="M880 1231 c-80 -25 -141 -80 -178 -160 -46 -101 -19 -227 67 -304 74
-67 164 -89 253 -63 152 44 237 193 193 341 -39 136 -203 226 -335 186z m121
-191 c101 -60 100 -89 -4 -148 -82 -47 -89 -49 -111 -26 -12 12 -16 37 -16
103 0 127 19 137 131 71z"/>
</g>
</svg>
