<?xml version="1.0" standalone="no"?>
<!DOCTYPE svg PUBLIC "-//W3C//DTD SVG 20010904//EN"
 "http://www.w3.org/TR/2001/REC-SVG-20010904/DTD/svg10.dtd">
<svg version="1.0" xmlns="http://www.w3.org/2000/svg"
 width="192.000000pt" height="192.000000pt" viewBox="0 0 192.000000 192.000000"
 preserveAspectRatio="xMidYMid meet">
<metadata>
Created by potrace 1.16, written by Peter Selinger 2001-2019
</metadata>
<g transform="translate(0.000000,192.000000) scale(0.100000,-0.100000)"
fill="#000000" stroke="none">
811 c445 -92 729 -532 635 -987 -62 -301 -295 -546 -601 -630 -91 -26 -329
-26 -420 0 -291 80 -516 305 -596 596 -26 91 -26 329 0 420 120 433 542 692
982 601z"/>
<path d="M1023 1373 c-7 -2 -13 -15 -13 -28 0 -20 12 -30 67 -56 88 -42 164
-118 205 -205 17 -36 37 -68 44 -71 19 -7 44 15 44 39 0 39 -64 144 -124 203
-72 73 -187 133 -223 118z"/>
<path d="M765 1281 c-90 -43 -139 -91 -182 -179 -36 -71 -38 -82 -38 -166 0
-81 4 -98 31 -156 116 -246 440 -303 627 -111 47 48 93 127 103 180 5 25 1 36
-24 61 -51 51 -108 33 -141 -44 -41 -95 -114 -145 -209 -146 -127 0 -223 92
-223 216 0 100 49 168 153 213 72 30 90 89 43 136 -32 33 -66 32 -140 -4z"/>
<path d="M991 1246 c-17 -21 -4 -42 41 -62 52 -23 119 -90 142 -142 19 -42 36
-55 60 -46 26 10 26 34 0 85 -57 114 -203 213 -243 165z"/>
<path d="M976 1134 c-9 -8 -16 -18 -16 -20 0 -3 32 -36 70 -75 61 -61 73 -68
90 -59 11 6 20 15 20 21 0 33 -68 113 -117 138 -28 14 -29 14 -47 -5z"/>
</g>
</svg>
