<?xml version="1.0" standalone="no"?>
<!DOCTYPE svg PUBLIC "-//W3C//DTD SVG 20010904//EN"
 "http://www.w3.org/TR/2001/REC-SVG-20010904/DTD/svg10.dtd">
<svg version="1.0" xmlns="http://www.w3.org/2000/svg"
 width="192.000000pt" height="192.000000pt" viewBox="0 0 192.000000 192.000000"
 preserveAspectRatio="xMidYMid meet">
<metadata>
Created by potrace 1.16, written by Peter Selinger 2001-2019
</metadata>
<g transform="translate(0.000000,192.000000) scale(0.100000,-0.100000)"
fill="#000000" stroke="none">
811 c445 -92 729 -532 635 -987 -62 -301 -295 -546 -601 -630 -91 -26 -329
-26 -420 0 -291 80 -516 305 -596 596 -26 91 -26 329 0 420 120 433 542 692
982 601z"/>
<path d="M856 1355 c-14 -15 -16 -56 -16 -381 l0 -365 25 -24 c27 -28 42 -30
78 -14 44 20 47 42 47 375 l0 315 23 -3 c21 -3 22 -8 27 -125 4 -90 9 -126 20
-137 46 -45 121 -15 140 55 15 56 4 139 -23 181 -32 47 -79 75 -171 103 -126
38 -131 38 -150 20z"/>
<path d="M662 905 c-140 -51 -164 -72 -125 -110 22 -23 51 -33 129 -45 105
-17 172 7 132 47 -13 12 -22 13 -58 3 -43 -11 -90 -7 -90 9 0 4 35 21 78 37
72 27 77 31 77 59 0 42 -29 42 -143 0z"/>
<path d="M1065 913 c-31 -8 -45 -23 -45 -50 0 -35 26 -39 94 -15 67 24 150 30
144 10 -3 -7 -56 -30 -119 -53 -103 -37 -114 -44 -117 -68 -6 -50 21 -49 177
7 158 58 199 83 182 115 -19 35 -111 61 -209 60 -48 -1 -96 -4 -107 -6z"/>
</g>
</svg>
