<?xml version="1.0" standalone="no"?>
<!DOCTYPE svg PUBLIC "-//W3C//DTD SVG 20010904//EN"
 "http://www.w3.org/TR/2001/REC-SVG-20010904/DTD/svg10.dtd">
<svg version="1.0" xmlns="http://www.w3.org/2000/svg"
 width="192.000000pt" height="192.000000pt" viewBox="0 0 192.000000 192.000000"
 preserveAspectRatio="xMidYMid meet">
<metadata>
Created by potrace 1.16, written by Peter Selinger 2001-2019
</metadata>
<g transform="translate(0.000000,192.000000) scale(0.100000,-0.100000)"
fill="#000000" stroke="none">
811 c445 -92 729 -532 635 -987 -62 -301 -295 -546 -601 -630 -91 -26 -329
-26 -420 0 -291 80 -516 305 -596 596 -26 91 -26 329 0 420 120 433 542 692
982 601z"/>
<path d="M829 1357 c-153 -52 -250 -165 -279 -326 -14 -77 -6 -145 26 -227 15
-38 24 -81 24 -117 0 -68 20 -87 92 -87 26 0 83 -12 125 -26 202 -68 407 16
500 204 37 74 38 79 38 187 0 99 -3 116 -28 169 -54 117 -137 190 -258 227
-80 25 -159 24 -240 -4z m171 -216 c5 -11 10 -42 10 -70 l0 -51 54 0 c61 0 86
-16 86 -55 0 -39 -25 -55 -86 -55 l-54 0 0 -51 c0 -66 -13 -89 -50 -89 -44 0
-60 23 -60 86 l0 54 -52 0 c-58 0 -88 19 -88 56 0 38 26 54 86 54 l54 0 0 51
c0 69 12 89 55 89 24 0 38 -6 45 -19z"/>
</g>
</svg>
