<?xml version="1.0" standalone="no"?>
<!DOCTYPE svg PUBLIC "-//W3C//DTD SVG 20010904//EN"
 "http://www.w3.org/TR/2001/REC-SVG-20010904/DTD/svg10.dtd">
<svg version="1.0" xmlns="http://www.w3.org/2000/svg"
 width="192.000000pt" height="192.000000pt" viewBox="0 0 192.000000 192.000000"
 preserveAspectRatio="xMidYMid meet">
<metadata>
Created by potrace 1.16, written by Peter Selinger 2001-2019
</metadata>
<g transform="translate(0.000000,192.000000) scale(0.100000,-0.100000)"
fill="#000000" stroke="none">
811 c445 -92 729 -532 635 -987 -62 -301 -295 -546 -601 -630 -91 -26 -329
-26 -420 0 -291 80 -516 305 -596 596 -26 91 -26 329 0 420 120 433 542 692
982 601z"/>
<path d="M860 1369 c-68 -13 -146 -56 -200 -109 -155 -156 -157 -409 -3 -564
50 -50 133 -98 192 -111 57 -12 158 -7 211 10 47 16 49 16 70 -5 59 -59 156
-51 209 16 42 53 36 137 -13 183 l-23 22 -26 -44 c-28 -48 -103 -121 -143
-139 -33 -15 -44 0 -44 62 0 94 63 147 162 136 l57 -6 11 39 c40 151 3 295
-103 401 -96 96 -224 135 -357 109z m-132 -291 c7 -7 12 -35 12 -64 0 -54 -8
-64 -51 -64 -14 0 -19 -7 -19 -30 0 -23 -4 -30 -20 -30 -19 0 -20 7 -20 100
l0 100 43 0 c24 0 48 -5 55 -12z m82 -68 l0 -80 30 0 c23 0 30 -4 30 -20 0
-17 -7 -20 -50 -20 l-50 0 0 100 c0 93 1 100 20 100 18 0 20 -7 20 -80z m120
0 c0 -73 2 -80 20 -80 18 0 20 7 20 80 0 65 3 80 15 80 13 0 15 -15 13 -97
l-3 -98 -38 -3 c-59 -5 -67 7 -67 109 0 82 2 89 20 89 18 0 20 -7 20 -80z
m208 58 c2 -13 -3 -18 -17 -18 -20 0 -21 -6 -21 -80 0 -73 -2 -80 -20 -80 -18
0 -20 7 -20 80 0 64 -3 80 -15 80 -8 0 -15 9 -15 21 0 18 5 20 52 17 41 -2 54
-7 56 -20z m116 6 c12 -11 16 -35 16 -88 0 -85 -10 -99 -67 -94 l-38 3 -3 83
c-2 53 1 89 9 98 15 19 64 18 83 -2z"/>
<path d="M670 1021 c0 -25 4 -31 21 -31 16 0 20 5 17 27 -2 17 -10 29 -20 31
-14 3 -18 -3 -18 -27z"/>
<path d="M1190 990 c0 -53 2 -60 20 -60 18 0 20 7 20 60 0 53 -2 60 -20 60
-18 0 -20 -7 -20 -60z"/>
</g>
</svg>
