<?xml version="1.0" standalone="no"?>
<!DOCTYPE svg PUBLIC "-//W3C//DTD SVG 20010904//EN"
 "http://www.w3.org/TR/2001/REC-SVG-20010904/DTD/svg10.dtd">
<svg version="1.0" xmlns="http://www.w3.org/2000/svg"
 width="192.000000pt" height="192.000000pt" viewBox="0 0 192.000000 192.000000"
 preserveAspectRatio="xMidYMid meet">
<metadata>
Created by potrace 1.16, written by Peter Selinger 2001-2019
</metadata>
<g transform="translate(0.000000,192.000000) scale(0.100000,-0.100000)"
fill="#000000" stroke="none">
811 c445 -92 729 -532 635 -987 -62 -301 -295 -546 -601 -630 -91 -26 -329
-26 -420 0 -291 80 -516 305 -596 596 -26 91 -26 329 0 420 120 433 542 692
982 601z"/>
<path d="M653 1310 c-50 -20 -55 -45 -51 -237 3 -172 4 -180 31 -233 63 -123
166 -191 301 -198 76 -4 105 2 179 33 15 6 17 1 17 -45 0 -64 12 -88 55 -106
26 -10 41 -11 64 -3 59 21 61 34 61 399 0 338 -2 359 -39 387 -30 23 -89 16
-116 -13 -24 -26 -25 -32 -25 -173 0 -80 -5 -162 -10 -181 -11 -41 -61 -94
-103 -109 -78 -30 -174 3 -214 74 -21 36 -23 53 -23 188 0 162 -8 194 -55 215
-30 14 -42 14 -72 2z"/>
<path d="M893 1130 c-40 -24 -63 -67 -63 -120 0 -32 7 -48 33 -76 28 -31 41
-37 83 -41 61 -5 108 21 130 72 19 46 18 73 -4 114 -35 65 -118 89 -179 51z"/>
</g>
</svg>
