<?xml version="1.0" standalone="no"?>
<!DOCTYPE svg PUBLIC "-//W3C//DTD SVG 20010904//EN"
 "http://www.w3.org/TR/2001/REC-SVG-20010904/DTD/svg10.dtd">
<svg version="1.0" xmlns="http://www.w3.org/2000/svg"
 width="192.000000pt" height="192.000000pt" viewBox="0 0 192.000000 192.000000"
 preserveAspectRatio="xMidYMid meet">
<metadata>
Created by potrace 1.16, written by Peter Selinger 2001-2019
</metadata>
<g transform="translate(0.000000,192.000000) scale(0.100000,-0.100000)"
fill="#000000" stroke="none">
811 c445 -92 729 -532 635 -987 -62 -301 -295 -546 -601 -630 -91 -26 -329
-26 -420 0 -291 80 -516 305 -596 596 -26 91 -26 329 0 420 120 433 542 692
982 601z"/>
<path d="M705 1341 c-96 -44 -105 -75 -105 -378 0 -230 1 -250 21 -290 35 -72
132 -115 206 -92 21 6 128 66 238 133 169 103 203 127 222 161 38 67 29 161
-20 213 -24 26 -364 234 -421 257 -47 20 -92 19 -141 -4z m155 -68 c19 -11 60
-71 126 -187 54 -94 108 -181 121 -193 15 -16 34 -23 60 -23 l38 0 -30 -20
c-27 -18 -47 -20 -232 -20 l-202 0 -34 -60 c-18 -33 -37 -57 -40 -53 -20 19 3
73 103 248 61 106 110 198 110 205 0 8 -14 37 -30 67 -17 29 -27 53 -24 53 3
0 19 -8 34 -17z"/>
</g>
</svg>
