<?xml version="1.0" standalone="no"?>
<!DOCTYPE svg PUBLIC "-//W3C//DTD SVG 20010904//EN"
 "http://www.w3.org/TR/2001/REC-SVG-20010904/DTD/svg10.dtd">
<svg version="1.0" xmlns="http://www.w3.org/2000/svg"
 width="192.000000pt" height="192.000000pt" viewBox="0 0 192.000000 192.000000"
 preserveAspectRatio="xMidYMid meet">
<metadata>
Created by potrace 1.16, written by Peter Selinger 2001-2019
</metadata>
<g transform="translate(0.000000,192.000000) scale(0.100000,-0.100000)"
fill="#000000" stroke="none">
811 c445 -92 729 -532 635 -987 -62 -301 -295 -546 -601 -630 -91 -26 -329
-26 -420 0 -291 80 -516 305 -596 596 -26 91 -26 329 0 420 120 433 542 692
982 601z"/>
<path d="M780 1280 c-85 -49 -163 -98 -172 -110 -16 -19 -18 -45 -18 -206 0
-176 1 -184 23 -208 29 -32 317 -196 344 -196 24 0 332 173 351 197 8 12 12
70 12 208 0 138 -3 196 -12 207 -20 24 -329 198 -352 198 -12 0 -91 -41 -176
-90z m325 -57 c17 -11 9 -13 -64 -13 -105 0 -121 -11 -121 -82 l0 -48 -130 0
-130 0 0 29 c0 27 11 35 147 115 l148 85 65 -36 c36 -20 74 -42 85 -50z m143
-85 c8 -8 12 -62 12 -178 l0 -166 -40 -23 -40 -22 0 55 c0 82 -17 96 -120 96
l-80 0 0 125 0 125 128 0 c86 0 132 -4 140 -12z m-330 -180 l3 -58 -75 0 c-69
0 -76 -2 -95 -26 -15 -19 -21 -41 -21 -75 l0 -48 -35 20 -35 21 0 114 0 115
128 -3 127 -3 3 -57z m30 -196 c5 -32 -16 -54 -47 -50 -22 3 -26 9 -29 41 l-3
38 38 -3 c31 -2 39 -7 41 -26z m97 -12 c0 -33 -2 -35 -35 -35 -29 0 -36 4 -38
23 -6 40 5 54 40 50 30 -3 33 -6 33 -38z"/>
<path d="M1040 1075 c0 -33 2 -35 35 -35 33 0 35 2 35 35 0 33 -2 35 -35 35
-33 0 -35 -2 -35 -35z"/>
<path d="M1140 1075 c0 -33 2 -35 35 -35 33 0 35 2 35 35 0 33 -2 35 -35 35
-33 0 -35 -2 -35 -35z"/>
<path d="M1047 1014 c-4 -4 -7 -22 -7 -41 0 -31 2 -33 36 -33 35 0 35 1 32 38
-3 31 -7 37 -28 40 -14 2 -29 0 -33 -4z"/>
<path d="M1144 1006 c-3 -8 -4 -25 -2 -38 2 -18 10 -24 36 -26 33 -3 33 -3 30
35 -3 33 -7 38 -31 41 -17 2 -29 -2 -33 -12z"/>
<path d="M702 958 c3 -30 6 -33 38 -33 32 0 35 2 35 30 0 28 -3 30 -38 33 -38
3 -38 3 -35 -30z"/>
<path d="M802 958 c3 -30 6 -33 38 -33 32 0 35 3 38 33 3 31 3 32 -38 32 -41
0 -41 -1 -38 -32z"/>
</g>
</svg>
