<?xml version="1.0" standalone="no"?>
<!DOCTYPE svg PUBLIC "-//W3C//DTD SVG 20010904//EN"
 "http://www.w3.org/TR/2001/REC-SVG-20010904/DTD/svg10.dtd">
<svg version="1.0" xmlns="http://www.w3.org/2000/svg"
 width="192.000000pt" height="192.000000pt" viewBox="0 0 192.000000 192.000000"
 preserveAspectRatio="xMidYMid meet">
<metadata>
Created by potrace 1.16, written by Peter Selinger 2001-2019
</metadata>
<g transform="translate(0.000000,192.000000) scale(0.100000,-0.100000)"
fill="#000000" stroke="none">
811 c445 -92 729 -532 635 -987 -62 -301 -295 -546 -601 -630 -91 -26 -329
-26 -420 0 -291 80 -516 305 -596 596 -26 91 -26 329 0 420 120 433 542 692
982 601z"/>
<path d="M708 1350 c-51 -15 -94 -49 -118 -92 -22 -38 -25 -57 -28 -172 -5
-145 8 -226 44 -299 116 -228 416 -287 606 -117 110 98 138 178 138 389 0 121
-4 153 -19 187 -22 49 -70 88 -126 103 -47 13 -456 14 -497 1z m145 -277 c29
-26 64 -58 78 -70 l26 -24 79 71 c85 76 117 86 122 39 3 -22 -12 -39 -90 -107
-51 -45 -101 -82 -110 -82 -23 0 -208 159 -208 180 0 19 19 40 37 40 8 0 37
-21 66 -47z"/>
</g>
</svg>
