<?xml version="1.0" standalone="no"?>
<!DOCTYPE svg PUBLIC "-//W3C//DTD SVG 20010904//EN"
 "http://www.w3.org/TR/2001/REC-SVG-20010904/DTD/svg10.dtd">
<svg version="1.0" xmlns="http://www.w3.org/2000/svg"
 width="192.000000pt" height="192.000000pt" viewBox="0 0 192.000000 192.000000"
 preserveAspectRatio="xMidYMid meet">
<metadata>
Created by potrace 1.16, written by Peter Selinger 2001-2019
</metadata>
<g transform="translate(0.000000,192.000000) scale(0.100000,-0.100000)"
fill="#000000" stroke="none">
811 c445 -92 729 -532 635 -987 -62 -301 -295 -546 -601 -630 -91 -26 -329
-26 -420 0 -291 80 -516 305 -596 596 -26 91 -26 329 0 420 120 433 542 692
982 601z"/>
<path d="M768 1329 c-16 -9 -18 -33 -18 -274 l0 -265 100 0 100 0 0 259 c0
223 -2 262 -16 275 -18 19 -138 22 -166 5z m117 -59 c0 -23 -69 -20 -73 3 -3
16 2 18 35 15 26 -2 38 -8 38 -18z m-20 -215 c0 -135 -2 -150 -17 -153 -17 -3
-18 9 -18 153 0 144 1 156 18 153 15 -3 17 -18 17 -153z"/>
<path d="M1196 1274 c-14 -14 -16 -47 -14 -252 l3 -237 90 0 90 0 3 237 c3
278 6 268 -93 268 -45 0 -68 -5 -79 -16z m114 -49 c0 -10 -11 -15 -35 -15 -24
0 -35 5 -35 15 0 10 11 15 35 15 24 0 35 -5 35 -15z m-20 -200 c0 -122 -2
-145 -15 -145 -13 0 -15 23 -15 145 0 122 2 145 15 145 13 0 15 -23 15 -145z"/>
<path d="M552 1218 c-9 -9 -12 -70 -12 -230 l0 -218 85 0 85 0 -2 228 -3 227
-70 3 c-46 2 -74 -1 -83 -10z m108 -43 c0 -16 -55 -22 -64 -6 -8 13 5 21 36
21 18 0 28 -5 28 -15z m-22 -187 c-2 -80 -7 -133 -13 -133 -6 0 -11 53 -13
133 -2 114 0 132 13 132 13 0 15 -18 13 -132z"/>
<path d="M987 1224 c-4 -4 -7 -108 -7 -231 l0 -223 85 0 85 0 -2 228 -3 227
-75 3 c-42 1 -79 0 -83 -4z m111 -51 c2 -9 -7 -13 -27 -13 -30 0 -46 11 -34
24 11 11 56 2 61 -11z m-20 -185 c-2 -80 -7 -133 -13 -133 -6 0 -11 53 -13
133 -2 114 0 132 13 132 13 0 15 -18 13 -132z"/>
<path d="M750 677 c0 -36 5 -68 12 -75 7 -7 43 -12 90 -12 91 0 98 7 98 94 l0
56 -100 0 -100 0 0 -63z"/>
<path d="M1180 672 c0 -32 5 -63 12 -70 7 -7 41 -12 83 -12 42 0 76 5 83 12 7
7 12 38 12 70 l0 58 -95 0 -95 0 0 -58z"/>
<path d="M540 666 c0 -70 11 -78 97 -74 l68 3 3 63 3 62 -86 0 -85 0 0 -54z"/>
<path d="M980 667 c0 -29 5 -58 12 -65 12 -12 114 -17 142 -6 12 5 16 21 16
65 l0 59 -85 0 -85 0 0 -53z"/>
</g>
</svg>
