<?xml version="1.0" standalone="no"?>
<!DOCTYPE svg PUBLIC "-//W3C//DTD SVG 20010904//EN"
 "http://www.w3.org/TR/2001/REC-SVG-20010904/DTD/svg10.dtd">
<svg version="1.0" xmlns="http://www.w3.org/2000/svg"
 width="192.000000pt" height="192.000000pt" viewBox="0 0 192.000000 192.000000"
 preserveAspectRatio="xMidYMid meet">
<metadata>
Created by potrace 1.16, written by Peter Selinger 2001-2019
</metadata>
<g transform="translate(0.000000,192.000000) scale(0.100000,-0.100000)"
fill="#000000" stroke="none">
811 c445 -92 729 -532 635 -987 -62 -301 -295 -546 -601 -630 -91 -26 -329
-26 -420 0 -291 80 -516 305 -596 596 -26 91 -26 329 0 420 120 433 542 692
982 601z"/>
<path d="M863 1376 c-101 -33 -179 -100 -230 -198 -26 -51 -27 -62 -34 -258
-8 -211 -4 -316 14 -337 18 -24 49 -13 119 38 l69 52 59 -18 c43 -13 79 -16
133 -13 138 9 249 86 310 216 28 60 32 77 32 157 0 80 -4 97 -31 155 -38 80
-106 150 -182 186 -69 33 -191 42 -259 20z m161 -190 c60 -24 113 -50 117 -58
5 -7 9 -64 9 -127 0 -157 8 -151 -188 -151 -200 0 -192 -6 -192 150 0 153 0
153 122 160 l93 5 -47 18 c-27 10 -48 25 -48 33 0 21 17 18 134 -30z"/>
<path d="M870 1093 c-56 -20 -83 -89 -56 -141 32 -61 108 -72 157 -23 42 42
40 92 -5 137 -33 33 -60 40 -96 27z"/>
<path d="M1072 1071 c-21 -13 -10 -46 16 -49 27 -4 40 22 22 43 -14 17 -20 18
-38 6z"/>
<path d="M1064 965 c-9 -23 3 -45 26 -45 25 0 37 25 20 45 -16 19 -39 19 -46
0z"/>
</g>
</svg>
