<?xml version="1.0" standalone="no"?>
<!DOCTYPE svg PUBLIC "-//W3C//DTD SVG 20010904//EN"
 "http://www.w3.org/TR/2001/REC-SVG-20010904/DTD/svg10.dtd">
<svg version="1.0" xmlns="http://www.w3.org/2000/svg"
 width="192.000000pt" height="192.000000pt" viewBox="0 0 192.000000 192.000000"
 preserveAspectRatio="xMidYMid meet">
<metadata>
Created by potrace 1.16, written by Peter Selinger 2001-2019
</metadata>
<g transform="translate(0.000000,192.000000) scale(0.100000,-0.100000)"
fill="#000000" stroke="none">
811 c445 -92 729 -532 635 -987 -62 -301 -295 -546 -601 -630 -91 -26 -329
-26 -420 0 -291 80 -516 305 -596 596 -26 91 -26 329 0 420 120 433 542 692
982 601z"/>
<path d="M695 1325 c-94 -50 -114 -99 -115 -281 l0 -141 183 -64 182 -63 190
66 190 65 3 139 c2 128 1 143 -20 183 -13 25 -40 59 -61 75 l-39 31 -241 3
c-205 2 -247 0 -272 -13z m320 -120 c57 -28 73 -103 31 -152 -19 -21 -35 -28
-77 -33 l-54 -5 -5 -40 c-5 -42 -34 -61 -51 -33 -14 21 -11 252 3 266 17 17
114 15 153 -3z"/>
<path d="M917 1153 c-4 -3 -7 -24 -7 -45 0 -36 2 -38 31 -38 43 0 69 17 69 45
0 14 -8 29 -19 35 -22 11 -64 13 -74 3z"/>
<path d="M1140 809 c-91 -32 -177 -58 -192 -58 -15 -1 -98 24 -185 54 -87 30
-164 55 -172 55 -11 0 -13 -15 -9 -71 7 -86 39 -140 107 -176 42 -22 53 -23
266 -23 213 0 224 1 266 23 24 13 57 42 73 65 24 34 30 54 34 116 4 61 2 76
-9 75 -8 -1 -88 -28 -179 -60z"/>
</g>
</svg>
