<?xml version="1.0" standalone="no"?>
<!DOCTYPE svg PUBLIC "-//W3C//DTD SVG 20010904//EN"
 "http://www.w3.org/TR/2001/REC-SVG-20010904/DTD/svg10.dtd">
<svg version="1.0" xmlns="http://www.w3.org/2000/svg"
 width="192.000000pt" height="192.000000pt" viewBox="0 0 192.000000 192.000000"
 preserveAspectRatio="xMidYMid meet">
<metadata>
Created by potrace 1.16, written by Peter Selinger 2001-2019
</metadata>
<g transform="translate(0.000000,192.000000) scale(0.100000,-0.100000)"
fill="#000000" stroke="none">
811 c445 -92 729 -532 635 -987 -62 -301 -295 -546 -601 -630 -91 -26 -329
-26 -420 0 -291 80 -516 305 -596 596 -26 91 -26 329 0 420 120 433 542 692
982 601z"/>
<path d="M835 1367 c-118 -39 -207 -117 -258 -225 -30 -63 -32 -74 -32 -177 0
-103 2 -114 32 -177 57 -121 183 -217 305 -234 41 -6 48 -4 62 18 28 43 9 71
-61 91 -198 55 -295 256 -211 435 60 126 209 203 339 174 137 -31 223 -121
254 -265 8 -40 46 -55 81 -32 24 16 26 21 20 64 -16 118 -116 249 -233 304
-59 27 -80 32 -163 34 -59 2 -110 -2 -135 -10z"/>
<path d="M876 1204 c-33 -10 -64 -31 -97 -64 -87 -87 -100 -211 -34 -312 32
-48 97 -96 143 -104 29 -6 39 -3 54 16 24 29 12 48 -49 80 -64 33 -93 78 -93
144 0 94 62 156 156 156 66 0 111 -29 144 -93 31 -60 49 -71 78 -51 64 45 -36
195 -152 229 -61 18 -87 18 -150 -1z"/>
</g>
</svg>
