<?xml version="1.0" standalone="no"?>
<!DOCTYPE svg PUBLIC "-//W3C//DTD SVG 20010904//EN"
 "http://www.w3.org/TR/2001/REC-SVG-20010904/DTD/svg10.dtd">
<svg version="1.0" xmlns="http://www.w3.org/2000/svg"
 width="192.000000pt" height="192.000000pt" viewBox="0 0 192.000000 192.000000"
 preserveAspectRatio="xMidYMid meet">
<metadata>
Created by potrace 1.16, written by Peter Selinger 2001-2019
</metadata>
<g transform="translate(0.000000,192.000000) scale(0.100000,-0.100000)"
fill="#000000" stroke="none">
810 c245 -63 441 -223 549 -451 55 -116 75 -212 75 -354 0 -141 -20 -238 -75
-352 -86 -182 -215 -312 -396 -398 -116 -55 -212 -75 -354 -75 -142 0 -238 20
-354 75 -228 108 -388 304 -451 549 -28 110 -28 292 0 402 76 298 303 526 600
603 106 28 298 28 406 1z"/>
<path d="M827 1275 c-82 -22 -159 -67 -219 -127 -78 -77 -90 -130 -33 -144 22
-6 34 2 88 58 39 41 84 75 122 94 55 26 69 29 165 29 95 0 111 -3 167 -29 43
-20 81 -48 123 -92 33 -35 68 -64 78 -64 23 0 52 30 52 53 0 28 -116 142 -178
175 -111 59 -253 78 -365 47z"/>
<path d="M887 1110 c-117 -30 -226 -137 -187 -185 22 -26 66 -18 91 16 25 36
110 79 154 79 57 0 108 -22 155 -66 46 -43 72 -52 99 -35 45 28 -27 130 -119
170 -57 25 -141 34 -193 21z"/>
<path d="M890 902 c-127 -70 -77 -262 69 -262 83 0 141 58 141 140 0 106 -116
174 -210 122z"/>
</g>
</svg>
