<?xml version="1.0" standalone="no"?>
<!DOCTYPE svg PUBLIC "-//W3C//DTD SVG 20010904//EN"
 "http://www.w3.org/TR/2001/REC-SVG-20010904/DTD/svg10.dtd">
<svg version="1.0" xmlns="http://www.w3.org/2000/svg"
 width="192.000000pt" height="192.000000pt" viewBox="0 0 192.000000 192.000000"
 preserveAspectRatio="xMidYMid meet">
<metadata>
Created by potrace 1.16, written by Peter Selinger 2001-2019
</metadata>
<g transform="translate(0.000000,192.000000) scale(0.100000,-0.100000)"
fill="#000000" stroke="none">
811 c445 -92 729 -532 635 -987 -62 -301 -295 -546 -601 -630 -91 -26 -329
-26 -420 0 -291 80 -516 305 -596 596 -26 91 -26 329 0 420 120 433 542 692
982 601z"/>
<path d="M737 1332 c-12 -13 -17 -37 -17 -79 l0 -61 -66 -4 c-98 -6 -107 -20
-102 -161 3 -100 5 -110 27 -128 14 -11 39 -19 62 -19 l39 0 0 -53 c0 -109 13
-237 24 -237 6 0 30 30 54 65 l42 65 199 0 c234 0 231 -1 231 98 l0 62 45 0
c35 0 52 6 70 25 23 23 25 31 25 130 0 128 -10 145 -90 145 l-50 0 0 69 c0
103 4 101 -261 101 -196 0 -217 -2 -232 -18z m134 -222 c16 -9 19 -22 19 -83
0 -82 -9 -97 -57 -97 -41 0 -53 21 -53 92 0 83 36 117 91 88z m253 -12 c18
-26 22 -119 6 -149 -12 -22 -68 -27 -88 -7 -7 7 -12 41 -12 85 0 58 3 74 18
82 28 17 60 12 76 -11z"/>
</g>
</svg>
