<?xml version="1.0" standalone="no"?>
<!DOCTYPE svg PUBLIC "-//W3C//DTD SVG 20010904//EN"
 "http://www.w3.org/TR/2001/REC-SVG-20010904/DTD/svg10.dtd">
<svg version="1.0" xmlns="http://www.w3.org/2000/svg"
 width="192.000000pt" height="192.000000pt" viewBox="0 0 192.000000 192.000000"
 preserveAspectRatio="xMidYMid meet">
<metadata>
Created by potrace 1.16, written by Peter Selinger 2001-2019
</metadata>
<g transform="translate(0.000000,192.000000) scale(0.100000,-0.100000)"
fill="#000000" stroke="none">
811 c445 -92 729 -532 635 -987 -62 -301 -295 -546 -601 -630 -91 -26 -329
-26 -420 0 -291 80 -516 305 -596 596 -26 91 -26 329 0 420 120 433 542 692
982 601z"/>
<path d="M695 1321 c-96 -44 -115 -93 -115 -301 l0 -160 88 0 c109 0 153 19
206 86 123 154 142 164 321 164 l135 0 0 35 c0 74 -46 144 -115 176 -35 16
-67 19 -260 19 -193 0 -225 -3 -260 -19z m146 -110 c60 -60 23 -156 -60 -156
-88 0 -128 98 -63 156 43 39 84 38 123 0z"/>
<path d="M1044 1051 c-23 -10 -59 -40 -80 -67 -127 -155 -143 -164 -285 -164
l-102 0 5 -50 c6 -64 45 -123 101 -152 40 -22 52 -23 272 -23 220 0 232 1 272
23 24 12 55 41 70 64 27 41 28 45 31 215 l3 173 -123 0 c-98 0 -131 -4 -164
-19z"/>
</g>
</svg>
