<?xml version="1.0" standalone="no"?>
<!DOCTYPE svg PUBLIC "-//W3C//DTD SVG 20010904//EN"
 "http://www.w3.org/TR/2001/REC-SVG-20010904/DTD/svg10.dtd">
<svg version="1.0" xmlns="http://www.w3.org/2000/svg"
 width="192.000000pt" height="192.000000pt" viewBox="0 0 192.000000 192.000000"
 preserveAspectRatio="xMidYMid meet">
<metadata>
Created by potrace 1.16, written by Peter Selinger 2001-2019
</metadata>
<g transform="translate(0.000000,192.000000) scale(0.100000,-0.100000)"
fill="#000000" stroke="none">
811 c445 -92 729 -532 635 -987 -62 -301 -295 -546 -601 -630 -91 -26 -329
-26 -420 0 -291 80 -516 305 -596 596 -26 91 -26 329 0 420 120 433 542 692
982 601z"/>
<path d="M833 1365 c-144 -45 -257 -172 -286 -322 l-6 -33 89 0 89 0 22 50
c54 126 193 176 318 114 57 -29 105 -85 116 -135 l7 -29 90 0 91 0 -7 43 c-21
134 -133 259 -273 308 -66 22 -186 25 -250 4z"/>
<path d="M877 1109 c-99 -52 -114 -185 -28 -262 54 -49 106 -57 168 -25 53 26
82 60 92 109 29 135 -111 242 -232 178z m128 -94 c28 -27 30 -42 14 -78 -11
-25 -47 -47 -75 -47 -25 0 -64 47 -64 76 0 66 79 96 125 49z"/>
<path d="M932 988 c-17 -17 -15 -36 6 -47 25 -13 44 1 40 30 -3 27 -27 36 -46
17z"/>
<path d="M546 893 c3 -21 19 -66 34 -100 105 -230 385 -311 599 -173 94 61
181 198 181 285 0 25 -1 25 -85 25 l-84 0 -22 -50 c-83 -193 -338 -199 -426
-10 l-28 60 -88 0 -88 0 7 -37z"/>
</g>
</svg>
