<?xml version="1.0" standalone="no"?>
<!DOCTYPE svg PUBLIC "-//W3C//DTD SVG 20010904//EN"
 "http://www.w3.org/TR/2001/REC-SVG-20010904/DTD/svg10.dtd">
<svg version="1.0" xmlns="http://www.w3.org/2000/svg"
 width="192.000000pt" height="192.000000pt" viewBox="0 0 192.000000 192.000000"
 preserveAspectRatio="xMidYMid meet">
<metadata>
Created by potrace 1.16, written by Peter Selinger 2001-2019
</metadata>
<g transform="translate(0.000000,192.000000) scale(0.100000,-0.100000)"
fill="#000000" stroke="none">
811 c445 -92 729 -532 635 -987 -62 -301 -295 -546 -601 -630 -91 -26 -329
-26 -420 0 -291 80 -516 305 -596 596 -26 91 -26 329 0 420 120 433 542 692
982 601z"/>
<path d="M870 1367 c-152 -35 -289 -173 -315 -319 l-7 -38 129 0 128 0 19 34
c52 97 200 100 263 4 l26 -38 123 0 124 0 0 25 c0 38 -37 125 -75 177 -92 125
-264 189 -415 155z"/>
<path d="M895 1036 c-13 -13 -27 -36 -31 -50 -8 -32 12 -82 40 -101 58 -41
146 7 146 80 0 80 -100 126 -155 71z"/>
<path d="M1209 943 l-95 -4 -13 -34 c-23 -65 -113 -109 -185 -91 -36 9 -87 55
-102 93 l-14 33 -126 0 -127 0 7 -47 c21 -159 168 -304 340 -334 212 -36 425
113 465 327 11 58 8 65 -27 62 -15 -1 -70 -4 -123 -5z"/>
</g>
</svg>
