<?xml version="1.0" standalone="no"?>
<!DOCTYPE svg PUBLIC "-//W3C//DTD SVG 20010904//EN"
 "http://www.w3.org/TR/2001/REC-SVG-20010904/DTD/svg10.dtd">
<svg version="1.0" xmlns="http://www.w3.org/2000/svg"
 width="192.000000pt" height="192.000000pt" viewBox="0 0 192.000000 192.000000"
 preserveAspectRatio="xMidYMid meet">
<metadata>
Created by potrace 1.16, written by Peter Selinger 2001-2019
</metadata>
<g transform="translate(0.000000,192.000000) scale(0.100000,-0.100000)"
fill="#000000" stroke="none">
811 c445 -92 729 -532 635 -987 -62 -301 -295 -546 -601 -630 -91 -26 -329
-26 -420 0 -291 80 -516 305 -596 596 -26 91 -26 329 0 420 120 433 542 692
982 601z"/>
<path d="M870 1369 c-69 -14 -150 -58 -206 -113 -200 -201 -143 -532 115 -659
62 -30 72 -32 176 -32 104 0 114 2 176 32 80 40 159 120 197 200 24 52 27 69
27 168 0 105 -2 114 -33 178 -85 171 -266 262 -452 226z m65 -205 c52 -47 96
-93 100 -102 9 -24 -22 -42 -70 -42 -32 0 -47 -6 -66 -26 -72 -77 -89 -57 -89
105 0 115 7 151 28 151 2 0 46 -39 97 -86z m155 -203 c5 -11 10 -71 10 -135 0
-91 -3 -118 -16 -130 -8 -9 -18 -16 -21 -16 -11 0 -193 184 -193 196 0 21 27
35 72 38 33 2 50 10 75 34 36 37 58 40 73 13z"/>
</g>
</svg>
