<?xml version="1.0" standalone="no"?>
<!DOCTYPE svg PUBLIC "-//W3C//DTD SVG 20010904//EN"
 "http://www.w3.org/TR/2001/REC-SVG-20010904/DTD/svg10.dtd">
<svg version="1.0" xmlns="http://www.w3.org/2000/svg"
 width="192.000000pt" height="192.000000pt" viewBox="0 0 192.000000 192.000000"
 preserveAspectRatio="xMidYMid meet">
<metadata>
Created by potrace 1.16, written by Peter Selinger 2001-2019
</metadata>
<g transform="translate(0.000000,192.000000) scale(0.100000,-0.100000)"
fill="#000000" stroke="none">
811 c445 -92 729 -532 635 -987 -62 -301 -295 -546 -601 -630 -91 -26 -329
-26 -420 0 -291 80 -516 305 -596 596 -26 91 -26 329 0 420 120 433 542 692
982 601z"/>
<path d="M780 1294 c-208 -116 -200 -103 -200 -335 0 -153 2 -175 20 -203 14
-23 61 -56 162 -114 193 -110 193 -110 386 0 101 58 148 91 162 114 18 28 20
50 20 203 0 191 -5 212 -62 254 -18 13 -87 54 -153 91 -160 88 -161 88 -335
-10z m76 -381 c5 -2 29 13 53 34 30 25 47 34 56 27 7 -5 29 -22 48 -37 20 -16
41 -26 47 -22 6 4 10 56 10 135 l0 129 65 -37 65 -37 0 -142 0 -142 -116 -65
c-64 -36 -122 -66 -129 -66 -7 0 -65 30 -129 66 l-116 65 0 142 0 142 63 35
62 36 5 -130 c3 -77 9 -131 16 -133z"/>
</g>
</svg>
