<?xml version="1.0" standalone="no"?>
<!DOCTYPE svg PUBLIC "-//W3C//DTD SVG 20010904//EN"
 "http://www.w3.org/TR/2001/REC-SVG-20010904/DTD/svg10.dtd">
<svg version="1.0" xmlns="http://www.w3.org/2000/svg"
 width="192.000000pt" height="192.000000pt" viewBox="0 0 192.000000 192.000000"
 preserveAspectRatio="xMidYMid meet">
<metadata>
Created by potrace 1.16, written by Peter Selinger 2001-2019
</metadata>
<g transform="translate(0.000000,192.000000) scale(0.100000,-0.100000)"
fill="#000000" stroke="none">
811 c445 -92 729 -532 635 -987 -62 -301 -295 -546 -601 -630 -91 -26 -329
-26 -420 0 -291 80 -516 305 -596 596 -26 91 -26 329 0 420 120 433 542 692
982 601z"/>
<path d="M895 1366 c-17 -7 -36 -20 -44 -29 -8 -11 -28 -17 -53 -17 -67 0
-118 -52 -118 -121 0 -19 -10 -43 -25 -61 -23 -27 -25 -38 -25 -116 1 -124 35
-439 50 -457 10 -13 51 -15 260 -15 190 0 250 3 258 13 6 7 18 80 26 162 14
143 14 151 -3 169 -15 14 -23 16 -39 7 -21 -11 -24 -25 -40 -191 l-7 -75 -40
-3 -40 -3 3 143 c2 79 5 149 7 156 3 8 32 12 99 12 95 0 126 11 126 44 0 33
-22 36 -302 36 l-278 0 0 35 c0 28 5 37 31 50 29 16 30 18 24 64 -8 60 7 76
64 66 36 -6 41 -4 62 24 31 42 72 43 94 1 15 -29 18 -30 64 -24 42 5 51 4 59
-13 6 -10 8 -38 5 -61 -5 -37 -3 -42 20 -53 13 -6 30 -22 36 -35 14 -31 56
-33 71 -3 10 17 7 28 -14 60 -14 21 -26 48 -26 59 0 66 -59 130 -120 130 -23
0 -43 7 -51 17 -15 17 -70 43 -91 43 -7 -1 -27 -7 -43 -14z m-91 -458 c3 -18
7 -88 10 -155 l6 -123 -40 0 c-28 0 -40 4 -40 14 0 20 -19 214 -25 259 l-5 37
44 0 c43 0 45 -1 50 -32z"/>
<path d="M900 1213 c-54 -20 -97 -105 -70 -139 16 -18 50 -15 60 6 21 46 29
55 48 58 33 5 47 28 34 57 -11 25 -37 31 -72 18z"/>
</g>
</svg>
