<?xml version="1.0" standalone="no"?>
<!DOCTYPE svg PUBLIC "-//W3C//DTD SVG 20010904//EN"
 "http://www.w3.org/TR/2001/REC-SVG-20010904/DTD/svg10.dtd">
<svg version="1.0" xmlns="http://www.w3.org/2000/svg"
 width="192.000000pt" height="192.000000pt" viewBox="0 0 192.000000 192.000000"
 preserveAspectRatio="xMidYMid meet">
<metadata>
Created by potrace 1.16, written by Peter Selinger 2001-2019
</metadata>
<g transform="translate(0.000000,192.000000) scale(0.100000,-0.100000)"
fill="#000000" stroke="none">
811 c445 -92 729 -532 635 -987 -62 -301 -295 -546 -601 -630 -91 -26 -329
-26 -420 0 -291 80 -516 305 -596 596 -26 91 -26 329 0 420 120 433 542 692
982 601z"/>
<path d="M680 1348 c-49 -14 -97 -53 -120 -98 -18 -35 -20 -59 -20 -206 0
-161 1 -169 25 -210 15 -26 43 -54 69 -69 l43 -25 278 0 278 0 43 25 c26 15
54 43 69 69 24 41 25 49 25 210 0 147 -2 171 -20 206 -24 47 -71 84 -125 99
-50 14 -496 13 -545 -1z"/>
<path d="M882 698 c-7 -7 -12 -20 -12 -31 0 -27 61 -97 85 -97 24 0 85 70 85
97 0 32 -21 43 -85 43 -34 0 -66 -5 -73 -12z"/>
</g>
</svg>
