<?xml version="1.0" standalone="no"?>
<!DOCTYPE svg PUBLIC "-//W3C//DTD SVG 20010904//EN"
 "http://www.w3.org/TR/2001/REC-SVG-20010904/DTD/svg10.dtd">
<svg version="1.0" xmlns="http://www.w3.org/2000/svg"
 width="192.000000pt" height="192.000000pt" viewBox="0 0 192.000000 192.000000"
 preserveAspectRatio="xMidYMid meet">
<metadata>
Created by potrace 1.16, written by Peter Selinger 2001-2019
</metadata>
<g transform="translate(0.000000,192.000000) scale(0.100000,-0.100000)"
fill="#000000" stroke="none">
811 c445 -92 729 -532 635 -987 -62 -301 -295 -546 -601 -630 -91 -26 -329
-26 -420 0 -291 80 -516 305 -596 596 -26 91 -26 329 0 420 120 433 542 692
982 601z"/>
<path d="M707 1304 c-136 -42 -208 -222 -143 -359 32 -68 83 -127 198 -227
178 -156 236 -147 453 66 64 63 110 118 124 147 79 169 -17 361 -193 385 -50
7 -105 -8 -157 -43 l-37 -24 -37 25 c-68 47 -126 55 -208 30z m211 -218 l37
-35 37 36 c29 29 41 34 62 29 38 -9 35 -51 -6 -93 l-32 -33 33 -34 c24 -25 32
-41 29 -62 -5 -44 -44 -44 -87 0 l-34 35 -39 -34 c-40 -36 -66 -43 -86 -23
-20 20 -14 40 25 80 l37 38 -37 38 c-39 40 -45 60 -25 80 20 20 47 13 86 -22z
m-188 -51 c12 -14 15 -14 31 1 10 9 26 14 35 10 15 -6 15 -8 0 -31 -15 -23
-15 -27 0 -50 15 -23 15 -25 0 -31 -10 -4 -25 1 -36 11 -19 17 -21 17 -38 2
-10 -10 -24 -17 -30 -17 -17 0 -15 20 5 42 15 17 15 19 0 36 -10 10 -17 24
-17 30 0 17 35 15 50 -3z m410 0 c15 -14 18 -14 30 0 15 18 50 20 50 3 0 -6
-7 -20 -17 -30 -15 -17 -15 -19 0 -36 20 -22 22 -42 5 -42 -6 0 -20 7 -30 17
-17 15 -19 15 -36 0 -37 -34 -63 -13 -32 26 19 24 19 25 0 42 -20 18 -18 35 2
35 6 0 19 -7 28 -15z"/>
</g>
</svg>
