<?xml version="1.0" standalone="no"?>
<!DOCTYPE svg PUBLIC "-//W3C//DTD SVG 20010904//EN"
 "http://www.w3.org/TR/2001/REC-SVG-20010904/DTD/svg10.dtd">
<svg version="1.0" xmlns="http://www.w3.org/2000/svg"
 width="192.000000pt" height="192.000000pt" viewBox="0 0 192.000000 192.000000"
 preserveAspectRatio="xMidYMid meet">
<metadata>
Created by potrace 1.16, written by Peter Selinger 2001-2019
</metadata>
<g transform="translate(0.000000,192.000000) scale(0.100000,-0.100000)"
fill="#000000" stroke="none">
811 c445 -92 729 -532 635 -987 -62 -301 -295 -546 -601 -630 -91 -26 -329
-26 -420 0 -291 80 -516 305 -596 596 -26 91 -26 329 0 420 120 433 542 692
982 601z"/>
<path d="M885 1370 c-209 -30 -347 -256 -266 -435 46 -104 117 -150 231 -150
57 0 84 5 115 22 164 87 168 296 7 342 -68 20 -162 -34 -162 -93 0 -40 32 -70
75 -70 l37 0 -23 -19 c-31 -25 -86 -17 -116 18 -51 58 -13 160 77 209 44 24
61 28 105 24 165 -14 267 -232 180 -383 -55 -95 -150 -157 -264 -172 -59 -7
-91 -27 -91 -56 0 -36 19 -47 85 -47 246 1 436 183 436 420 1 236 -203 423
-426 390z"/>
</g>
</svg>
