<?xml version="1.0" standalone="no"?>
<!DOCTYPE svg PUBLIC "-//W3C//DTD SVG 20010904//EN"
 "http://www.w3.org/TR/2001/REC-SVG-20010904/DTD/svg10.dtd">
<svg version="1.0" xmlns="http://www.w3.org/2000/svg"
 width="192.000000pt" height="192.000000pt" viewBox="0 0 192.000000 192.000000"
 preserveAspectRatio="xMidYMid meet">
<metadata>
Created by potrace 1.16, written by Peter Selinger 2001-2019
</metadata>
<g transform="translate(0.000000,192.000000) scale(0.100000,-0.100000)"
fill="#000000" stroke="none">
811 c445 -92 729 -532 635 -987 -62 -301 -295 -546 -601 -630 -91 -26 -329
-26 -420 0 -291 80 -516 305 -596 596 -26 91 -26 329 0 420 120 433 542 692
982 601z"/>
<path d="M765 1278 l-180 -91 71 -35 71 -35 182 94 182 93 -63 33 c-35 17 -67
32 -73 32 -5 0 -91 -41 -190 -91z"/>
<path d="M976 1175 l-179 -93 79 -40 79 -40 185 93 185 92 -82 42 c-46 22 -84
41 -85 40 -2 0 -84 -43 -182 -94z"/>
<path d="M552 939 l3 -191 175 -94 c96 -51 178 -93 183 -94 4 0 7 88 7 195 l0
195 -70 35 c-38 19 -74 35 -80 35 -6 0 -10 -25 -10 -59 0 -45 -4 -60 -16 -65
-32 -12 -44 13 -44 90 l0 74 -70 35 c-38 19 -72 35 -75 35 -3 0 -4 -86 -3
-191z"/>
<path d="M1168 1039 l-178 -89 0 -196 c0 -153 3 -195 13 -191 6 2 89 45 182
95 l170 90 3 191 c1 105 -1 191 -5 190 -5 0 -88 -40 -185 -90z"/>
</g>
</svg>
