<?xml version="1.0" standalone="no"?>
<!DOCTYPE svg PUBLIC "-//W3C//DTD SVG 20010904//EN"
 "http://www.w3.org/TR/2001/REC-SVG-20010904/DTD/svg10.dtd">
<svg version="1.0" xmlns="http://www.w3.org/2000/svg"
 width="192.000000pt" height="192.000000pt" viewBox="0 0 192.000000 192.000000"
 preserveAspectRatio="xMidYMid meet">
<metadata>
Created by potrace 1.16, written by Peter Selinger 2001-2019
</metadata>
<g transform="translate(0.000000,192.000000) scale(0.100000,-0.100000)"
fill="#000000" stroke="none">
811 c445 -92 729 -532 635 -987 -62 -301 -295 -546 -601 -630 -91 -26 -329
-26 -420 0 -291 80 -516 305 -596 596 -26 91 -26 329 0 420 120 433 542 692
982 601z"/>
<path d="M591 1304 c-20 -26 -21 -38 -21 -339 0 -301 1 -313 21 -339 28 -36
80 -36 108 0 20 26 21 38 21 339 0 301 -1 313 -21 339 -15 19 -30 26 -54 26
-24 0 -39 -7 -54 -26z"/>
<path d="M830 1311 c-6 -13 -10 -140 -10 -346 0 -206 4 -333 10 -346 10 -18
23 -19 192 -19 176 0 182 1 225 25 78 46 83 67 83 340 0 273 -5 294 -83 340
-43 24 -49 25 -225 25 -169 0 -182 -1 -192 -19z m346 -145 c11 -15 14 -60 14
-201 0 -141 -3 -186 -14 -201 -12 -16 -29 -20 -110 -22 l-96 -4 0 227 0 227
96 -4 c81 -2 98 -6 110 -22z"/>
</g>
</svg>
