<?xml version="1.0" standalone="no"?>
<!DOCTYPE svg PUBLIC "-//W3C//DTD SVG 20010904//EN"
 "http://www.w3.org/TR/2001/REC-SVG-20010904/DTD/svg10.dtd">
<svg version="1.0" xmlns="http://www.w3.org/2000/svg"
 width="192.000000pt" height="192.000000pt" viewBox="0 0 192.000000 192.000000"
 preserveAspectRatio="xMidYMid meet">
<metadata>
Created by potrace 1.16, written by Peter Selinger 2001-2019
</metadata>
<g transform="translate(0.000000,192.000000) scale(0.100000,-0.100000)"
fill="#000000" stroke="none">
811 c445 -92 729 -532 635 -987 -62 -301 -295 -546 -601 -630 -91 -26 -329
-26 -420 0 -291 80 -516 305 -596 596 -26 91 -26 329 0 420 120 433 542 692
982 601z"/>
<path d="M556 1258 c-14 -19 -16 -60 -16 -286 0 -303 4 -321 72 -322 40 0 58
33 58 107 l0 63 70 0 c86 0 145 22 165 61 11 21 15 66 15 178 l0 151 -29 32
-29 33 -145 3 c-141 3 -145 3 -161 -20z m242 -197 c1 -52 -1 -97 -5 -101 -4
-4 -34 -11 -65 -15 l-58 -6 0 111 0 111 63 -3 62 -3 3 -94z"/>
<path d="M997 1262 c-15 -16 -17 -52 -17 -295 0 -264 1 -278 20 -297 23 -23
58 -26 85 -6 15 11 20 30 23 84 l4 70 83 4 c65 2 90 8 112 24 47 35 53 58 53
209 0 122 -3 144 -20 173 -11 18 -32 37 -46 42 -14 6 -83 10 -153 10 -111 0
-130 -2 -144 -18z m231 -114 c13 -13 17 -184 5 -191 -5 -3 -34 -8 -65 -11
l-58 -7 0 110 0 111 53 0 c29 0 58 -5 65 -12z"/>
</g>
</svg>
