<?xml version="1.0" standalone="no"?>
<!DOCTYPE svg PUBLIC "-//W3C//DTD SVG 20010904//EN"
 "http://www.w3.org/TR/2001/REC-SVG-20010904/DTD/svg10.dtd">
<svg version="1.0" xmlns="http://www.w3.org/2000/svg"
 width="192.000000pt" height="192.000000pt" viewBox="0 0 192.000000 192.000000"
 preserveAspectRatio="xMidYMid meet">
<metadata>
Created by potrace 1.16, written by Peter Selinger 2001-2019
</metadata>
<g transform="translate(0.000000,192.000000) scale(0.100000,-0.100000)"
fill="#000000" stroke="none">
811 c445 -92 729 -532 635 -987 -62 -301 -295 -546 -601 -630 -91 -26 -329
-26 -420 0 -291 80 -516 305 -596 596 -26 91 -26 329 0 420 120 433 542 692
982 601z"/>
<path d="M1162 1354 l-22 -15 0 -374 0 -374 22 -15 c34 -24 123 -21 148 4 19
19 20 33 20 385 0 352 -1 366 -20 385 -25 25 -114 28 -148 4z"/>
<path d="M882 1204 c-22 -15 -22 -16 -22 -314 0 -298 0 -299 22 -314 29 -21
117 -21 146 0 22 15 22 16 22 314 0 298 0 299 -22 314 -13 10 -43 16 -73 16
-30 0 -60 -6 -73 -16z"/>
<path d="M620 1089 c-13 -5 -28 -15 -32 -22 -4 -7 -8 -114 -8 -239 0 -215 1
-229 20 -248 25 -25 114 -28 148 -4 22 15 22 19 22 253 0 202 -2 240 -15 251
-20 17 -103 23 -135 9z"/>
</g>
</svg>
