<?xml version="1.0" standalone="no"?>
<!DOCTYPE svg PUBLIC "-//W3C//DTD SVG 20010904//EN"
 "http://www.w3.org/TR/2001/REC-SVG-20010904/DTD/svg10.dtd">
<svg version="1.0" xmlns="http://www.w3.org/2000/svg"
 width="192.000000pt" height="192.000000pt" viewBox="0 0 192.000000 192.000000"
 preserveAspectRatio="xMidYMid meet">
<metadata>
Created by potrace 1.16, written by Peter Selinger 2001-2019
</metadata>
<g transform="translate(0.000000,192.000000) scale(0.100000,-0.100000)"
fill="#000000" stroke="none">
811 c445 -92 729 -532 635 -987 -62 -301 -295 -546 -601 -630 -91 -26 -329
-26 -420 0 -291 80 -516 305 -596 596 -26 91 -26 329 0 420 120 433 542 692
982 601z"/>
<path d="M853 1365 c-80 -22 -131 -52 -188 -109 -161 -161 -162 -418 -1 -579
158 -158 408 -161 571 -6 80 76 117 158 123 270 5 106 -12 173 -67 255 -95
142 -280 214 -438 169z m165 -291 c101 -61 122 -87 102 -134 -13 -30 -190
-140 -227 -140 -12 0 -34 11 -49 23 -25 22 -28 31 -32 110 -5 105 2 151 30
177 35 33 74 25 176 -36z"/>
</g>
</svg>
