<?xml version="1.0" standalone="no"?>
<!DOCTYPE svg PUBLIC "-//W3C//DTD SVG 20010904//EN"
 "http://www.w3.org/TR/2001/REC-SVG-20010904/DTD/svg10.dtd">
<svg version="1.0" xmlns="http://www.w3.org/2000/svg"
 width="192.000000pt" height="192.000000pt" viewBox="0 0 192.000000 192.000000"
 preserveAspectRatio="xMidYMid meet">
<metadata>
Created by potrace 1.16, written by Peter Selinger 2001-2019
</metadata>
<g transform="translate(0.000000,192.000000) scale(0.100000,-0.100000)"
fill="#000000" stroke="none">
811 c445 -92 729 -532 635 -987 -62 -301 -295 -546 -601 -630 -91 -26 -329
-26 -420 0 -291 80 -516 305 -596 596 -26 91 -26 329 0 420 120 433 542 692
982 601z"/>
<path d="M567 1249 c-42 -24 -47 -57 -47 -294 l0 -227 29 -29 29 -29 277 0
277 0 29 29 c25 26 29 37 29 85 0 31 2 56 5 56 3 0 28 -11 55 -25 60 -30 93
-32 120 -5 18 18 20 33 20 153 0 127 -1 135 -23 155 -30 28 -47 28 -107 -3
-27 -14 -54 -25 -60 -25 -6 0 -10 24 -10 56 0 48 -4 59 -29 85 l-29 29 -274 0
c-167 0 -280 -5 -291 -11z m361 -176 c32 -20 62 -72 62 -108 0 -69 -66 -135
-135 -135 -44 0 -96 31 -117 71 -65 120 74 246 190 172z"/>
</g>
</svg>
