<?xml version="1.0" standalone="no"?>
<!DOCTYPE svg PUBLIC "-//W3C//DTD SVG 20010904//EN"
 "http://www.w3.org/TR/2001/REC-SVG-20010904/DTD/svg10.dtd">
<svg version="1.0" xmlns="http://www.w3.org/2000/svg"
 width="192.000000pt" height="192.000000pt" viewBox="0 0 192.000000 192.000000"
 preserveAspectRatio="xMidYMid meet">
<metadata>
Created by potrace 1.16, written by Peter Selinger 2001-2019
</metadata>
<g transform="translate(0.000000,192.000000) scale(0.100000,-0.100000)"
fill="#000000" stroke="none">
811 c445 -92 729 -532 635 -987 -62 -301 -295 -546 -601 -630 -91 -26 -329
-26 -420 0 -291 80 -516 305 -596 596 -26 91 -26 329 0 420 120 433 542 692
982 601z"/>
<path d="M695 1323 c-92 -48 -114 -99 -115 -260 l0 -123 69 0 70 0 23 70 c20
65 24 71 47 68 21 -2 30 -15 53 -68 30 -73 29 -74 58 60 34 157 39 170 59 170
10 0 23 -6 28 -12 6 -7 20 -77 33 -155 13 -79 24 -143 26 -143 2 0 11 37 21
81 9 45 25 91 35 103 l18 21 18 -21 c9 -11 26 -55 36 -97 l19 -77 69 0 68 0 0
120 c0 164 -24 219 -115 261 -35 16 -67 19 -265 18 -186 0 -230 -3 -255 -16z"/>
<path d="M935 933 c-24 -118 -31 -133 -55 -133 -20 0 -27 12 -79 135 -7 18
-10 16 -24 -17 l-16 -38 -90 0 -91 0 0 -68 c0 -86 28 -144 89 -187 l43 -30
243 0 243 0 43 30 c61 43 89 101 89 186 l0 68 -92 3 -91 3 -13 35 c-7 19 -13
33 -14 30 -1 -3 -14 -52 -28 -110 -24 -92 -30 -105 -49 -108 -29 -4 -35 12
-58 158 -10 63 -21 119 -25 123 -4 4 -15 -32 -25 -80z"/>
</g>
</svg>
