<?xml version="1.0" standalone="no"?>
<!DOCTYPE svg PUBLIC "-//W3C//DTD SVG 20010904//EN"
 "http://www.w3.org/TR/2001/REC-SVG-20010904/DTD/svg10.dtd">
<svg version="1.0" xmlns="http://www.w3.org/2000/svg"
 width="192.000000pt" height="192.000000pt" viewBox="0 0 192.000000 192.000000"
 preserveAspectRatio="xMidYMid meet">
<metadata>
Created by potrace 1.16, written by Peter Selinger 2001-2019
</metadata>
<g transform="translate(0.000000,192.000000) scale(0.100000,-0.100000)"
fill="#000000" stroke="none">
811 c445 -92 729 -532 635 -987 -62 -301 -295 -546 -601 -630 -91 -26 -329
-26 -420 0 -291 80 -516 305 -596 596 -26 91 -26 329 0 420 120 433 542 692
982 601z"/>
<path d="M821 1350 c-230 -85 -337 -341 -234 -561 120 -256 459 -314 661 -112
199 199 142 528 -114 654 -60 30 -78 34 -163 36 -77 3 -107 -1 -150 -17z m252
-86 c60 -20 141 -93 175 -158 23 -44 27 -63 27 -141 0 -75 -4 -98 -24 -139
-31 -63 -86 -118 -153 -153 -46 -24 -65 -28 -138 -28 -73 0 -93 4 -141 28 -65
32 -132 100 -160 161 -64 145 -7 321 130 403 91 55 178 63 284 27z"/>
<path d="M844 1211 c-94 -43 -157 -142 -157 -246 0 -182 171 -312 345 -261
109 31 198 146 198 255 0 102 -60 199 -152 245 -66 33 -170 36 -234 7z m155
-168 c73 -43 87 -60 78 -94 -8 -28 -122 -99 -159 -99 -40 0 -48 18 -48 109 0
65 4 89 17 103 23 26 40 23 112 -19z"/>
</g>
</svg>
