<?xml version="1.0" standalone="no"?>
<!DOCTYPE svg PUBLIC "-//W3C//DTD SVG 20010904//EN"
 "http://www.w3.org/TR/2001/REC-SVG-20010904/DTD/svg10.dtd">
<svg version="1.0" xmlns="http://www.w3.org/2000/svg"
 width="192.000000pt" height="192.000000pt" viewBox="0 0 192.000000 192.000000"
 preserveAspectRatio="xMidYMid meet">
<metadata>
Created by potrace 1.16, written by Peter Selinger 2001-2019
</metadata>
<g transform="translate(0.000000,192.000000) scale(0.100000,-0.100000)"
fill="#000000" stroke="none">
811 c445 -92 729 -532 635 -987 -62 -301 -295 -546 -601 -630 -91 -26 -329
-26 -420 0 -291 80 -516 305 -596 596 -26 91 -26 329 0 420 120 433 542 692
982 601z"/>
<path d="M877 1361 c-54 -10 -103 -23 -109 -29 -7 -7 -4 -44 12 -130 l22 -120
70 -47 c81 -54 79 -54 144 40 l36 53 -17 104 c-20 119 -30 148 -47 147 -7 -1
-57 -9 -111 -18z m77 -152 c5 -38 3 -57 -9 -75 -18 -29 -26 -30 -54 -6 -13 11
-23 34 -27 69 -6 51 -6 51 22 56 62 9 61 10 68 -44z"/>
<path d="M1178 1131 c-54 -10 -100 -20 -102 -22 -35 -41 -94 -133 -90 -142 3
-7 34 -32 69 -56 l65 -44 116 18 c64 11 122 24 130 30 12 9 12 23 -1 100 -9
50 -20 100 -25 113 -11 26 -26 27 -162 3z m75 -127 c6 -31 5 -32 -45 -42 -42
-8 -56 -7 -75 5 -44 29 -18 68 53 81 54 9 58 6 67 -44z"/>
<path d="M647 1041 c-54 -10 -103 -23 -108 -28 -16 -16 19 -223 39 -231 8 -3
67 3 131 14 l116 19 48 63 c26 35 47 69 47 77 0 20 -125 105 -152 104 -13 -1
-67 -9 -121 -18z m136 -85 c23 -17 22 -28 -5 -53 -29 -26 -118 -41 -118 -20 0
8 -3 28 -6 45 -6 28 -4 31 22 35 57 8 89 6 107 -7z"/>
<path d="M918 898 c-74 -91 -72 -82 -48 -214 11 -65 25 -121 31 -125 13 -8
220 28 232 40 7 7 6 35 -2 83 -30 172 -27 165 -92 208 -32 22 -65 43 -73 46
-8 3 -27 -12 -48 -38z m89 -96 c22 -18 43 -105 26 -115 -4 -3 -24 -7 -43 -9
-34 -3 -35 -2 -43 45 -7 37 -6 52 7 72 19 29 24 30 53 7z"/>
</g>
</svg>
