<?xml version="1.0" standalone="no"?>
<!DOCTYPE svg PUBLIC "-//W3C//DTD SVG 20010904//EN"
 "http://www.w3.org/TR/2001/REC-SVG-20010904/DTD/svg10.dtd">
<svg version="1.0" xmlns="http://www.w3.org/2000/svg"
 width="192.000000pt" height="192.000000pt" viewBox="0 0 192.000000 192.000000"
 preserveAspectRatio="xMidYMid meet">
<metadata>
Created by potrace 1.16, written by Peter Selinger 2001-2019
</metadata>
<g transform="translate(0.000000,192.000000) scale(0.100000,-0.100000)"
fill="#000000" stroke="none">
811 c445 -92 729 -532 635 -987 -62 -301 -295 -546 -601 -630 -91 -26 -329
-26 -420 0 -291 80 -516 305 -596 596 -26 91 -26 329 0 420 120 433 542 692
982 601z"/>
<path d="M881 1359 c-57 -10 -107 -23 -111 -29 -6 -10 22 -199 35 -237 6 -18
136 -102 149 -97 19 8 96 120 96 140 0 11 -7 64 -17 119 -15 93 -27 127 -42
124 -3 -1 -53 -9 -110 -20z m74 -136 c4 -21 8 -42 9 -48 5 -16 -27 -65 -41
-65 -19 0 -53 37 -53 59 0 10 -3 32 -6 49 -6 28 -4 31 22 35 62 9 63 9 69 -30z"/>
<path d="M1185 1130 c-55 -11 -101 -19 -102 -19 -8 -4 -93 -128 -93 -137 0 -7
29 -34 65 -60 l66 -46 115 18 c64 10 123 23 131 29 14 11 14 21 -1 106 -10 52
-19 102 -22 112 -7 21 -27 21 -159 -3z m65 -84 c0 -7 3 -27 6 -44 6 -29 5 -30
-45 -41 -44 -9 -56 -8 -76 5 -14 9 -25 20 -25 24 0 20 39 51 75 59 57 13 65
13 65 -3z"/>
<path d="M651 1039 c-57 -10 -108 -22 -113 -27 -10 -10 25 -209 40 -224 7 -7
46 -5 126 8 64 9 119 20 124 23 24 16 93 122 90 138 -4 22 -117 103 -143 102
-11 -1 -67 -9 -124 -20z m137 -85 l22 -15 -19 -28 c-16 -22 -31 -30 -68 -35
-54 -7 -58 -4 -67 46 -6 34 -5 37 21 41 59 9 89 6 111 -9z"/>
<path d="M913 888 c-63 -84 -62 -80 -39 -208 20 -111 22 -115 47 -118 36 -4
200 25 213 38 7 7 4 47 -9 128 l-20 117 -69 47 c-39 27 -73 48 -77 48 -3 0
-24 -24 -46 -52z m102 -93 c15 -14 26 -37 27 -55 0 -16 1 -36 2 -42 1 -16 -77
-30 -85 -16 -17 27 -19 89 -3 113 20 31 29 31 59 0z"/>
</g>
</svg>
