<?xml version="1.0" standalone="no"?>
<!DOCTYPE svg PUBLIC "-//W3C//DTD SVG 20010904//EN"
 "http://www.w3.org/TR/2001/REC-SVG-20010904/DTD/svg10.dtd">
<svg version="1.0" xmlns="http://www.w3.org/2000/svg"
 width="192.000000pt" height="192.000000pt" viewBox="0 0 192.000000 192.000000"
 preserveAspectRatio="xMidYMid meet">
<metadata>
Created by potrace 1.16, written by Peter Selinger 2001-2019
</metadata>
<g transform="translate(0.000000,192.000000) scale(0.100000,-0.100000)"
fill="#000000" stroke="none">
811 c445 -92 729 -532 635 -987 -62 -301 -295 -546 -601 -630 -91 -26 -329
-26 -420 0 -291 80 -516 305 -596 596 -26 91 -26 329 0 420 120 433 542 692
982 601z"/>
<path d="M869 1177 c-24 -13 -57 -43 -74 -66 -29 -42 -30 -45 -33 -187 -3
-120 -1 -149 12 -169 32 -49 96 -20 96 43 l0 31 49 -6 c27 -3 65 -3 85 1 46 9
104 59 127 111 73 161 -105 325 -262 242z m146 -112 c32 -31 32 -75 1 -111
-33 -39 -89 -39 -122 0 -49 56 -13 136 61 136 25 0 44 -8 60 -25z"/>
<path d="M610 1093 c-40 -12 -60 -29 -75 -60 -49 -102 81 -191 167 -114 27 24
33 36 33 70 0 32 -7 47 -30 70 -31 29 -68 43 -95 34z"/>
<path d="M1242 1089 c-36 -11 -72 -59 -72 -97 0 -90 116 -137 181 -73 53 53
34 137 -37 167 -18 8 -35 14 -36 13 -2 0 -18 -5 -36 -10z"/>
</g>
</svg>
