<?xml version="1.0" standalone="no"?>
<!DOCTYPE svg PUBLIC "-//W3C//DTD SVG 20010904//EN"
 "http://www.w3.org/TR/2001/REC-SVG-20010904/DTD/svg10.dtd">
<svg version="1.0" xmlns="http://www.w3.org/2000/svg"
 width="192.000000pt" height="192.000000pt" viewBox="0 0 192.000000 192.000000"
 preserveAspectRatio="xMidYMid meet">
<metadata>
Created by potrace 1.16, written by Peter Selinger 2001-2019
</metadata>
<g transform="translate(0.000000,192.000000) scale(0.100000,-0.100000)"
fill="#000000" stroke="none">
811 c445 -92 729 -532 635 -987 -62 -301 -295 -546 -601 -630 -91 -26 -329
-26 -420 0 -291 80 -516 305 -596 596 -26 91 -26 329 0 420 120 433 542 692
982 601z"/>
<path d="M823 1356 c-125 -41 -233 -151 -271 -276 -23 -77 -23 -119 -2 -140
33 -33 56 -13 64 56 9 81 48 154 111 213 66 59 134 85 225 85 101 0 164 -26
237 -99 51 -52 64 -72 82 -129 12 -38 21 -80 21 -95 0 -31 16 -51 42 -51 30 0
40 33 29 100 -22 135 -110 254 -230 312 -59 29 -77 32 -166 35 -65 2 -115 -2
-142 -11z"/>
<path d="M837 1165 c-52 -18 -83 -49 -103 -101 -16 -42 -13 -83 12 -147 8 -21
-47 -32 -77 -16 -17 9 -24 9 -27 1 -3 -9 -9 -9 -24 -1 -25 13 -48 5 -48 -18
-1 -10 -9 -36 -20 -58 -17 -37 -17 -42 -3 -57 17 -19 48 -24 57 -9 4 5 0 11
-6 14 -10 3 -8 9 5 23 16 18 17 17 17 -14 l0 -32 148 0 c186 0 187 0 180 98
-3 40 -1 72 3 72 5 0 9 -16 9 -37 0 -36 40 -103 61 -103 6 0 17 -7 25 -15 17
-16 100 -21 123 -6 21 13 4 31 -30 31 -19 0 -31 6 -35 18 -3 9 -10 25 -15 35
-13 23 4 22 51 -4 21 -12 36 -27 34 -34 -8 -19 46 -48 97 -52 62 -5 93 19 93
72 0 45 -30 75 -75 75 -22 0 -29 5 -29 20 0 11 -4 20 -9 20 -5 0 -47 38 -93
85 -121 121 -236 171 -321 140z"/>
<path d="M678 719 c-64 -36 60 -133 204 -160 115 -21 265 20 333 91 23 24 25
31 16 49 -16 28 -32 27 -87 -9 -135 -85 -266 -79 -419 19 -22 15 -35 17 -47
10z"/>
</g>
</svg>
