<?xml version="1.0" standalone="no"?>
<!DOCTYPE svg PUBLIC "-//W3C//DTD SVG 20010904//EN"
 "http://www.w3.org/TR/2001/REC-SVG-20010904/DTD/svg10.dtd">
<svg version="1.0" xmlns="http://www.w3.org/2000/svg"
 width="192.000000pt" height="192.000000pt" viewBox="0 0 192.000000 192.000000"
 preserveAspectRatio="xMidYMid meet">
<metadata>
Created by potrace 1.16, written by Peter Selinger 2001-2019
</metadata>
<g transform="translate(0.000000,192.000000) scale(0.100000,-0.100000)"
fill="#000000" stroke="none">
811 c445 -92 729 -532 635 -987 -62 -301 -295 -546 -601 -630 -91 -26 -329
-26 -420 0 -291 80 -516 305 -596 596 -26 91 -26 329 0 420 120 433 542 692
982 601z"/>
<path d="M904 1355 l-15 -36 -26 21 c-37 29 -53 26 -53 -10 0 -22 -4 -28 -15
-24 -17 7 -21 -22 -6 -45 7 -11 20 -9 70 9 50 19 75 22 146 18 l85 -4 0 28 c0
21 -5 28 -20 28 -15 0 -20 7 -20 25 0 33 -7 32 -46 -6 l-32 -31 -16 31 c-21
40 -34 39 -52 -4z"/>
<path d="M895 1263 c-11 -3 -31 -9 -44 -14 -23 -9 -23 -10 -6 -29 18 -20 17
-20 -12 -20 -39 0 -57 -21 -51 -60 6 -39 -11 -39 -19 0 -8 41 -20 46 -47 21
-37 -35 -64 -90 -48 -100 9 -6 5 -21 -17 -67 -17 -32 -31 -70 -33 -84 -3 -21
1 -25 25 -25 27 1 27 1 27 -70 0 -89 15 -147 38 -143 9 2 35 26 58 55 l42 52
7 -41 c4 -22 4 -69 0 -104 -7 -63 -6 -64 22 -76 47 -19 152 -14 207 10 46 21
49 21 62 5 12 -17 15 -15 50 17 37 36 84 120 84 154 0 12 5 16 14 13 26 -10
38 21 38 95 0 92 -30 178 -73 209 -16 11 -28 28 -27 37 2 13 -5 17 -31 19
l-33 1 32 -33 31 -32 -44 -1 c-36 -1 -49 4 -72 28 -15 15 -24 33 -21 38 3 5
-4 10 -17 10 -12 1 -37 4 -55 8 -20 4 -38 2 -47 -6 -21 -18 -11 -27 38 -35 43
-7 87 -29 87 -44 0 -8 -81 -5 -128 5 -12 2 -28 16 -34 29 -6 14 -18 25 -27 25
-12 1 -9 6 9 21 14 12 25 26 25 33 0 15 64 46 95 46 14 0 38 -9 54 -19 27 -18
31 -18 41 -4 11 14 14 14 37 -1 22 -14 27 -15 37 -2 10 11 8 18 -10 35 -33 31
-77 43 -87 25 -7 -12 -11 -12 -27 6 -14 16 -30 20 -74 19 -31 -1 -65 -4 -76
-6z m236 -263 c32 -18 24 -56 -18 -85 -53 -35 -76 -33 -97 11 -9 20 -16 38
-14 39 2 2 19 12 38 24 39 23 62 26 91 11z m89 -52 c0 -50 0 -51 -20 -33 -22
20 -27 64 -8 83 19 19 28 3 28 -50z m-32 -94 c2 -19 -4 -39 -17 -55 -20 -23
-20 -23 -21 -3 0 30 -10 35 -34 19 -27 -20 -31 -19 -44 10 -9 19 -9 25 1 25 6
0 23 9 37 20 14 11 36 19 50 18 20 -2 26 -9 28 -34z"/>
</g>
</svg>
