<?xml version="1.0" standalone="no"?>
<!DOCTYPE svg PUBLIC "-//W3C//DTD SVG 20010904//EN"
 "http://www.w3.org/TR/2001/REC-SVG-20010904/DTD/svg10.dtd">
<svg version="1.0" xmlns="http://www.w3.org/2000/svg"
 width="192.000000pt" height="192.000000pt" viewBox="0 0 192.000000 192.000000"
 preserveAspectRatio="xMidYMid meet">
<metadata>
Created by potrace 1.16, written by Peter Selinger 2001-2019
</metadata>
<g transform="translate(0.000000,192.000000) scale(0.100000,-0.100000)"
fill="#000000" stroke="none">
811 c445 -92 729 -532 635 -987 -62 -301 -295 -546 -601 -630 -91 -26 -329
-26 -420 0 -291 80 -516 305 -596 596 -26 91 -26 329 0 420 120 433 542 692
982 601z"/>
<path d="M605 1315 c-20 -19 -25 -34 -25 -74 0 -90 29 -121 115 -121 59 0 94
30 102 87 12 94 -19 133 -107 133 -51 0 -65 -4 -85 -25z"/>
<path d="M875 1315 c-21 -20 -25 -34 -25 -79 0 -30 3 -62 6 -71 18 -45 131
-61 178 -24 24 19 26 27 26 89 0 91 -18 110 -102 110 -49 0 -63 -4 -83 -25z"/>
<path d="M1140 1320 c-25 -25 -34 -61 -27 -113 8 -57 43 -87 102 -87 86 0 115
31 115 121 0 73 -29 99 -110 99 -46 0 -64 -4 -80 -20z"/>
<path d="M634 1071 c-36 -16 -54 -51 -54 -107 0 -37 6 -59 21 -78 18 -23 27
-26 84 -26 91 0 110 18 110 104 0 53 -4 69 -21 86 -23 23 -106 35 -140 21z"/>
<path d="M894 1066 c-38 -17 -44 -32 -44 -105 0 -80 23 -101 108 -101 85 0
102 17 102 104 0 83 -17 105 -85 111 -32 4 -61 0 -81 -9z"/>
<path d="M1131 1044 c-15 -19 -21 -41 -21 -79 0 -38 6 -60 21 -79 19 -24 27
-26 89 -26 62 0 70 2 89 26 15 19 21 41 21 79 0 38 -6 60 -21 79 -19 24 -27
26 -89 26 -62 0 -70 -2 -89 -26z"/>
<path d="M624 798 c-30 -14 -44 -50 -44 -109 0 -73 29 -99 110 -99 88 0 119
39 107 133 -8 58 -43 87 -105 86 -26 0 -57 -5 -68 -11z"/>
<path d="M893 800 c-31 -13 -43 -41 -43 -105 0 -46 4 -60 25 -80 20 -21 34
-25 83 -25 82 0 102 22 102 112 0 60 -3 69 -26 87 -28 22 -99 28 -141 11z"/>
<path d="M1143 786 c-25 -22 -28 -31 -28 -86 0 -55 3 -64 28 -86 41 -35 127
-34 162 1 21 20 25 34 25 85 0 51 -4 65 -25 85 -35 35 -121 36 -162 1z"/>
</g>
</svg>
