<?xml version="1.0" standalone="no"?>
<!DOCTYPE svg PUBLIC "-//W3C//DTD SVG 20010904//EN"
 "http://www.w3.org/TR/2001/REC-SVG-20010904/DTD/svg10.dtd">
<svg version="1.0" xmlns="http://www.w3.org/2000/svg"
 width="192.000000pt" height="192.000000pt" viewBox="0 0 192.000000 192.000000"
 preserveAspectRatio="xMidYMid meet">
<metadata>
Created by potrace 1.16, written by Peter Selinger 2001-2019
</metadata>
<g transform="translate(0.000000,192.000000) scale(0.100000,-0.100000)"
fill="#000000" stroke="none">
811 c445 -92 729 -532 635 -987 -62 -301 -295 -546 -601 -630 -91 -26 -329
-26 -420 0 -291 80 -516 305 -596 596 -26 91 -26 329 0 420 120 433 542 692
982 601z"/>
<path d="M824 1342 c-28 -11 -62 -27 -76 -36 -22 -15 -27 -15 -38 -1 -16 19
-50 19 -78 -1 -24 -16 -30 -61 -12 -94 8 -14 5 -28 -11 -54 -63 -108 -63 -273
1 -383 17 -29 17 -36 5 -59 -30 -58 28 -119 85 -90 26 12 33 11 91 -18 58 -29
71 -31 164 -31 93 0 106 2 165 32 47 23 69 29 81 22 29 -15 54 -10 77 14 24
25 27 48 12 77 -7 14 -5 27 9 52 60 103 66 249 13 361 -25 55 -27 65 -16 92
24 61 -30 115 -84 84 -25 -15 -31 -14 -87 15 -52 26 -73 31 -155 33 -74 3
-106 -1 -146 -15z m260 -156 c140 -82 169 -281 58 -400 -103 -110 -299 -98
-387 23 -106 145 -51 328 120 398 50 21 156 10 209 -21z"/>
<path d="M875 1151 c-74 -34 -125 -111 -125 -188 0 -60 42 -137 90 -169 58
-38 149 -45 207 -15 80 40 119 113 111 207 -12 138 -158 223 -283 165z"/>
</g>
</svg>
