<?xml version="1.0" standalone="no"?>
<!DOCTYPE svg PUBLIC "-//W3C//DTD SVG 20010904//EN"
 "http://www.w3.org/TR/2001/REC-SVG-20010904/DTD/svg10.dtd">
<svg version="1.0" xmlns="http://www.w3.org/2000/svg"
 width="192.000000pt" height="192.000000pt" viewBox="0 0 192.000000 192.000000"
 preserveAspectRatio="xMidYMid meet">
<metadata>
Created by potrace 1.16, written by Peter Selinger 2001-2019
</metadata>
<g transform="translate(0.000000,192.000000) scale(0.100000,-0.100000)"
fill="#000000" stroke="none">
811 c445 -92 729 -532 635 -987 -62 -301 -295 -546 -601 -630 -91 -26 -329
-26 -420 0 -291 80 -516 305 -596 596 -26 91 -26 329 0 420 120 433 542 692
982 601z"/>
<path d="M752 1347 c-32 -18 -50 -48 -58 -96 l-7 -41 263 0 263 0 -6 47 c-4
37 -12 54 -36 75 l-31 28 -183 0 c-127 -1 -189 -5 -205 -13z"/>
<path d="M594 1126 l-34 -34 0 -131 c0 -150 9 -179 64 -205 19 -9 52 -16 75
-16 l41 0 0 -73 c0 -43 5 -78 12 -85 17 -17 379 -17 396 0 7 7 12 41 12 84 l0
72 55 4 c60 5 102 28 122 69 19 36 17 252 -2 289 -30 58 -43 60 -391 60 l-316
0 -34 -34z m181 -86 c0 -11 -14 -16 -57 -18 -53 -3 -58 -1 -58 18 0 19 5 21
58 18 43 -2 57 -7 57 -18z m470 -150 c0 -13 -40 -15 -292 -18 -289 -2 -293 -2
-293 18 0 20 4 20 293 18 252 -3 292 -5 292 -18z m-210 -100 c0 -12 -17 -16
-82 -18 -78 -3 -83 -2 -83 18 0 20 5 21 83 18 65 -2 82 -6 82 -18z m-10 -83
c33 -25 8 -37 -76 -37 -71 0 -79 2 -79 19 0 11 6 22 13 24 26 11 124 6 142 -6z"/>
</g>
</svg>
