<?xml version="1.0" standalone="no"?>
<!DOCTYPE svg PUBLIC "-//W3C//DTD SVG 20010904//EN"
 "http://www.w3.org/TR/2001/REC-SVG-20010904/DTD/svg10.dtd">
<svg version="1.0" xmlns="http://www.w3.org/2000/svg"
 width="192.000000pt" height="192.000000pt" viewBox="0 0 192.000000 192.000000"
 preserveAspectRatio="xMidYMid meet">
<metadata>
Created by potrace 1.16, written by Peter Selinger 2001-2019
</metadata>
<g transform="translate(0.000000,192.000000) scale(0.100000,-0.100000)"
fill="#000000" stroke="none">
811 c445 -92 729 -532 635 -987 -62 -301 -295 -546 -601 -630 -91 -26 -329
-26 -420 0 -291 80 -516 305 -596 596 -26 91 -26 329 0 420 120 433 542 692
982 601z"/>
<path d="M898 1341 c-61 -20 -88 -54 -217 -270 -132 -222 -155 -275 -142 -334
17 -72 51 -116 114 -142 54 -22 550 -22 604 0 63 26 97 70 114 142 13 59 -10
112 -142 334 -102 172 -139 225 -168 245 -42 27 -119 39 -163 25z m83 -301
c22 -12 109 -157 109 -182 0 -10 -9 -27 -20 -38 -17 -17 -33 -20 -115 -20 -82
0 -98 3 -115 20 -29 29 -25 46 25 132 55 94 75 109 116 88z"/>
</g>
</svg>
