<?xml version="1.0" standalone="no"?>
<!DOCTYPE svg PUBLIC "-//W3C//DTD SVG 20010904//EN"
 "http://www.w3.org/TR/2001/REC-SVG-20010904/DTD/svg10.dtd">
<svg version="1.0" xmlns="http://www.w3.org/2000/svg"
 width="192.000000pt" height="192.000000pt" viewBox="0 0 192.000000 192.000000"
 preserveAspectRatio="xMidYMid meet">
<metadata>
Created by potrace 1.16, written by Peter Selinger 2001-2019
</metadata>
<g transform="translate(0.000000,192.000000) scale(0.100000,-0.100000)"
fill="#000000" stroke="none">
811 c445 -92 729 -532 635 -987 -62 -301 -295 -546 -601 -630 -91 -26 -329
-26 -420 0 -291 80 -516 305 -596 596 -26 91 -26 329 0 420 120 433 542 692
982 601z"/>
<path d="M835 1357 c-118 -39 -207 -117 -258 -225 -29 -61 -32 -75 -32 -167 0
-92 3 -106 32 -167 41 -88 113 -160 201 -201 63 -30 74 -32 177 -32 103 0 114
2 177 32 88 41 160 113 201 201 29 61 32 75 32 167 0 92 -3 106 -32 167 -41
88 -113 160 -201 201 -58 27 -79 32 -162 34 -59 2 -110 -2 -135 -10z m251 -88
c75 -28 155 -108 183 -184 45 -120 19 -255 -68 -344 -85 -87 -193 -123 -305
-101 -81 16 -130 42 -187 101 -120 123 -120 325 0 448 103 106 234 133 377 80z"/>
<path d="M734 1093 c-12 -47 28 -80 59 -48 9 8 29 15 46 15 29 0 31 -3 31 -35
l0 -35 -58 0 c-32 0 -63 -5 -70 -12 -16 -16 -16 -160 0 -176 19 -19 172 -16
189 4 24 29 -1 49 -70 52 l-61 3 0 34 0 35 64 0 c75 0 76 2 76 95 0 97 2 95
-106 95 -93 0 -94 0 -100 -27z"/>
<path d="M977 1113 c-9 -8 -9 -146 -1 -167 5 -12 21 -16 70 -16 l63 0 3 -67 3
-68 30 0 30 0 0 160 0 160 -32 3 -33 3 0 -65 0 -66 -35 0 -35 0 0 65 c0 65 0
65 -28 65 -16 0 -32 -3 -35 -7z"/>
</g>
</svg>
