<?xml version="1.0" standalone="no"?>
<!DOCTYPE svg PUBLIC "-//W3C//DTD SVG 20010904//EN"
 "http://www.w3.org/TR/2001/REC-SVG-20010904/DTD/svg10.dtd">
<svg version="1.0" xmlns="http://www.w3.org/2000/svg"
 width="192.000000pt" height="192.000000pt" viewBox="0 0 192.000000 192.000000"
 preserveAspectRatio="xMidYMid meet">
<metadata>
Created by potrace 1.16, written by Peter Selinger 2001-2019
</metadata>
<g transform="translate(0.000000,192.000000) scale(0.100000,-0.100000)"
fill="#000000" stroke="none">
810 c245 -63 441 -223 549 -451 55 -116 75 -212 75 -354 0 -141 -20 -238 -75
-352 -86 -182 -215 -312 -396 -398 -116 -55 -212 -75 -354 -75 -142 0 -238 20
-354 75 -228 108 -388 304 -451 549 -28 110 -28 292 0 402 76 298 303 526 600
603 106 28 298 28 406 1z"/>
<path d="M825 1353 c-118 -42 -200 -114 -252 -222 -25 -50 -28 -67 -28 -161 0
-97 2 -110 32 -173 126 -266 483 -316 688 -96 75 82 99 147 100 269 0 88 -3
101 -33 163 -43 86 -113 156 -198 198 -60 30 -78 34 -163 36 -73 3 -108 -1
-146 -14z m272 -114 c136 -65 203 -216 159 -362 -19 -64 -53 -109 -79 -105
-31 4 -32 31 -3 90 66 132 -5 290 -148 333 -62 19 -80 19 -145 -1 -145 -43
-212 -201 -144 -340 25 -51 26 -56 10 -72 -41 -40 -98 53 -105 168 -4 68 -1
84 23 139 75 165 263 231 432 150z m-7 -147 c0 -14 -64 -96 -135 -171 -9 -9
-23 -11 -39 -7 -20 5 -26 12 -25 34 0 21 17 41 81 95 82 68 118 83 118 49z"/>
</g>
</svg>
