<?xml version="1.0" standalone="no"?>
<!DOCTYPE svg PUBLIC "-//W3C//DTD SVG 20010904//EN"
 "http://www.w3.org/TR/2001/REC-SVG-20010904/DTD/svg10.dtd">
<svg version="1.0" xmlns="http://www.w3.org/2000/svg"
 width="192.000000pt" height="192.000000pt" viewBox="0 0 192.000000 192.000000"
 preserveAspectRatio="xMidYMid meet">
<metadata>
Created by potrace 1.16, written by Peter Selinger 2001-2019
</metadata>
<g transform="translate(0.000000,192.000000) scale(0.100000,-0.100000)"
fill="#000000" stroke="none">
811 c445 -92 729 -532 635 -987 -62 -301 -295 -546 -601 -630 -91 -26 -329
-26 -420 0 -291 80 -516 305 -596 596 -26 91 -26 329 0 420 120 433 542 692
982 601z"/>
<path d="M899 1369 c-32 -3 -87 -20 -123 -37 -252 -118 -313 -454 -118 -646
64 -63 96 -83 171 -106 155 -49 315 -7 425 110 264 282 33 722 -355 679z m135
-78 c4 -5 -42 -54 -101 -110 l-108 -100 -14 90 c-7 49 -11 92 -8 95 27 27 217
48 231 25z m240 -212 c19 -50 26 -183 11 -197 -4 -4 -54 42 -112 101 -57 60
-102 111 -99 115 5 5 114 24 172 31 5 0 18 -22 28 -50z m-251 -50 c37 -40 36
-82 -2 -120 -22 -21 -39 -29 -66 -29 -44 0 -95 45 -95 84 0 40 22 78 55 92 40
18 74 10 108 -27z m-187 -186 c-1 -1 -43 -9 -94 -16 l-92 -14 -17 45 c-18 49
-23 167 -8 192 7 11 32 -11 111 -95 57 -60 102 -111 100 -112z m267 -91 l14
-83 -36 -15 c-46 -19 -145 -28 -195 -17 l-39 8 119 110 c74 68 120 104 121 95
1 -8 9 -52 16 -98z"/>
</g>
</svg>
