<?xml version="1.0" standalone="no"?>
<!DOCTYPE svg PUBLIC "-//W3C//DTD SVG 20010904//EN"
 "http://www.w3.org/TR/2001/REC-SVG-20010904/DTD/svg10.dtd">
<svg version="1.0" xmlns="http://www.w3.org/2000/svg"
 width="192.000000pt" height="192.000000pt" viewBox="0 0 192.000000 192.000000"
 preserveAspectRatio="xMidYMid meet">
<metadata>
Created by potrace 1.16, written by Peter Selinger 2001-2019
</metadata>
<g transform="translate(0.000000,192.000000) scale(0.100000,-0.100000)"
fill="#000000" stroke="none">
811 c445 -92 729 -532 635 -987 -62 -301 -295 -546 -601 -630 -91 -26 -329
-26 -420 0 -291 80 -516 305 -596 596 -26 91 -26 329 0 420 120 433 542 692
982 601z"/>
<path d="M767 1373 c-4 -3 -7 -26 -7 -49 0 -37 -3 -43 -22 -46 -15 -2 -23 -10
-23 -23 0 -19 8 -20 108 -23 102 -3 109 -1 114 18 3 11 7 20 9 20 2 0 48 -29
104 -65 132 -86 133 -92 4 -179 -101 -70 -114 -75 -114 -51 0 12 -19 15 -115
15 -107 0 -115 -1 -115 -19 0 -13 8 -21 23 -23 22 -3 22 -4 25 -195 l2 -193
64 0 c48 0 70 5 87 19 23 18 24 27 27 144 l4 125 102 4 c94 3 108 6 152 33
216 134 151 444 -101 485 -68 11 -318 14 -328 3z"/>
<path d="M624 1265 c-7 -18 3 -35 21 -35 21 0 28 19 15 35 -16 19 -29 19 -36
0z"/>
<path d="M585 1171 c-9 -16 3 -31 26 -31 14 0 19 6 17 17 -4 20 -33 29 -43 14z"/>
<path d="M670 1160 c0 -20 5 -20 133 -18 109 3 132 6 132 18 0 12 -23 15 -132
18 -128 2 -133 2 -133 -18z"/>
<path d="M662 1077 c-15 -17 1 -42 23 -33 18 6 17 37 -1 43 -6 2 -16 -2 -22
-10z"/>
<path d="M752 1078 c-23 -29 2 -39 89 -36 76 3 84 5 84 23 0 18 -8 20 -81 23
-58 2 -84 -1 -92 -10z"/>
<path d="M627 984 c-16 -16 -6 -34 19 -34 19 0 25 5 22 17 -3 19 -29 29 -41
17z"/>
</g>
</svg>
