<?xml version="1.0" standalone="no"?>
<!DOCTYPE svg PUBLIC "-//W3C//DTD SVG 20010904//EN"
 "http://www.w3.org/TR/2001/REC-SVG-20010904/DTD/svg10.dtd">
<svg version="1.0" xmlns="http://www.w3.org/2000/svg"
 width="192.000000pt" height="192.000000pt" viewBox="0 0 192.000000 192.000000"
 preserveAspectRatio="xMidYMid meet">
<metadata>
Created by potrace 1.16, written by Peter Selinger 2001-2019
</metadata>
<g transform="translate(0.000000,192.000000) scale(0.100000,-0.100000)"
fill="#000000" stroke="none">
811 c445 -92 729 -532 635 -987 -62 -301 -295 -546 -601 -630 -91 -26 -329
-26 -420 0 -291 80 -516 305 -596 596 -26 91 -26 329 0 420 120 433 542 692
982 601z"/>
<path d="M829 1362 c-191 -64 -313 -262 -281 -458 29 -178 162 -313 339 -346
171 -32 354 65 435 230 31 63 33 72 33 177 0 108 -1 113 -38 187 -44 91 -102
147 -197 191 -83 40 -204 47 -291 19z m-35 -258 c13 -12 16 -40 16 -139 0
-113 -2 -125 -19 -135 -27 -14 -37 -13 -55 6 -24 23 -23 240 1 266 20 22 37
23 57 2z m130 0 c23 -23 23 -245 0 -268 -20 -20 -38 -20 -58 0 -24 23 -23 240
1 266 20 22 37 23 57 2z m128 -1 c15 -14 18 -32 18 -134 0 -94 -3 -121 -16
-133 -20 -20 -38 -20 -58 0 -23 23 -23 245 0 268 20 20 33 20 56 -1z m130 0
c15 -14 18 -32 18 -134 0 -94 -3 -121 -16 -133 -18 -19 -28 -20 -55 -6 -17 10
-19 22 -19 135 0 99 3 127 16 139 20 20 33 20 56 -1z"/>
</g>
</svg>
