<?xml version="1.0" standalone="no"?>
<!DOCTYPE svg PUBLIC "-//W3C//DTD SVG 20010904//EN"
 "http://www.w3.org/TR/2001/REC-SVG-20010904/DTD/svg10.dtd">
<svg version="1.0" xmlns="http://www.w3.org/2000/svg"
 width="192.000000pt" height="192.000000pt" viewBox="0 0 192.000000 192.000000"
 preserveAspectRatio="xMidYMid meet">
<metadata>
Created by potrace 1.16, written by Peter Selinger 2001-2019
</metadata>
<g transform="translate(0.000000,192.000000) scale(0.100000,-0.100000)"
fill="#000000" stroke="none">
811 c445 -92 729 -532 635 -987 -62 -301 -295 -546 -601 -630 -91 -26 -329
-26 -420 0 -291 80 -516 305 -596 596 -26 91 -26 329 0 420 120 433 542 692
982 601z"/>
<path d="M1122 1350 c-19 -12 -41 -38 -52 -63 -19 -42 -20 -42 -131 -78 l-113
-36 -34 24 c-94 63 -212 -3 -212 -118 0 -76 57 -129 138 -129 38 0 43 -4 114
-93 l75 -93 -4 -54 c-5 -67 20 -114 72 -136 128 -53 239 66 179 192 -15 32
-15 38 6 106 73 246 68 233 99 245 42 15 71 67 71 127 0 43 -4 53 -39 87 -34
35 -44 39 -87 39 -31 0 -61 -7 -82 -20z m-2 -234 c0 -5 -19 -71 -42 -148 -39
-131 -42 -138 -67 -138 -27 0 -29 2 -125 127 -43 55 -47 65 -39 90 9 25 21 32
124 64 89 28 117 34 131 25 10 -6 18 -15 18 -20z"/>
</g>
</svg>
