<?xml version="1.0" standalone="no"?>
<!DOCTYPE svg PUBLIC "-//W3C//DTD SVG 20010904//EN"
 "http://www.w3.org/TR/2001/REC-SVG-20010904/DTD/svg10.dtd">
<svg version="1.0" xmlns="http://www.w3.org/2000/svg"
 width="192.000000pt" height="192.000000pt" viewBox="0 0 192.000000 192.000000"
 preserveAspectRatio="xMidYMid meet">
<metadata>
Created by potrace 1.16, written by Peter Selinger 2001-2019
</metadata>
<g transform="translate(0.000000,192.000000) scale(0.100000,-0.100000)"
fill="#000000" stroke="none">
811 c445 -92 729 -532 635 -987 -62 -301 -295 -546 -601 -630 -91 -26 -329
-26 -420 0 -291 80 -516 305 -596 596 -26 91 -26 329 0 420 120 433 542 692
982 601z"/>
<path d="M623 1320 c-28 -11 -57 -55 -49 -75 4 -11 21 -15 64 -15 52 0 66 -5
121 -40 l62 -40 153 0 c143 0 154 -1 172 -21 17 -19 19 -43 24 -273 l5 -251
58 -3 c52 -3 60 0 87 27 l30 29 0 271 0 270 -24 28 -24 28 -177 3 -177 3 -50
35 c-49 33 -52 34 -152 33 -55 0 -111 -4 -123 -9z"/>
<path d="M568 1184 c-5 -4 -8 -125 -8 -269 l0 -262 26 -24 c25 -24 27 -24 271
-27 176 -2 249 0 259 9 11 9 14 54 14 231 l0 219 -25 24 c-23 24 -28 25 -177
25 l-153 0 -53 37 c-52 35 -136 56 -154 37z"/>
</g>
</svg>
