<?xml version="1.0" standalone="no"?>
<!DOCTYPE svg PUBLIC "-//W3C//DTD SVG 20010904//EN"
 "http://www.w3.org/TR/2001/REC-SVG-20010904/DTD/svg10.dtd">
<svg version="1.0" xmlns="http://www.w3.org/2000/svg"
 width="192.000000pt" height="192.000000pt" viewBox="0 0 192.000000 192.000000"
 preserveAspectRatio="xMidYMid meet">
<metadata>
Created by potrace 1.16, written by Peter Selinger 2001-2019
</metadata>
<g transform="translate(0.000000,192.000000) scale(0.100000,-0.100000)"
fill="#000000" stroke="none">
810 c149 -35 263 -99 377 -209 169 -163 247 -351 247 -596 0 -245 -78 -433
-247 -596 -165 -159 -340 -229 -578 -229 -238 0 -413 70 -578 229 -169 163
-247 351 -247 596 0 238 70 413 229 578 111 115 239 190 390 227 107 26 298
26 407 0z"/>
<path d="M707 1362 c-10 -10 -17 -29 -17 -41 0 -13 -13 -33 -30 -48 -62 -52
-65 -66 -65 -303 0 -118 3 -227 8 -242 10 -38 65 -98 104 -114 46 -20 450 -20
496 0 39 16 94 76 104 114 5 15 8 124 8 242 0 237 -3 251 -65 303 -16 14 -30
34 -30 44 0 63 -78 86 -108 33 l-17 -30 -147 0 c-122 0 -148 3 -148 14 0 42
-64 60 -93 28z m218 -342 l0 -85 -57 -3 c-57 -3 -58 -4 -58 -32 0 -30 0 -30
60 -30 l60 0 0 -30 0 -30 -90 0 -91 0 3 88 3 87 58 3 c56 3 57 4 57 32 0 27
-3 30 -30 30 -16 0 -30 -4 -30 -10 0 -5 -13 -10 -30 -10 -27 0 -30 3 -30 33 0
19 3 37 7 41 4 4 43 5 88 4 l80 -3 0 -85z m125 30 l0 -60 30 0 30 0 0 60 0 60
30 0 30 0 0 -150 0 -150 -30 0 c-30 0 -30 0 -30 60 l0 59 -57 3 -58 3 -3 88
-3 87 31 0 30 0 0 -60z"/>
</g>
</svg>
