<?xml version="1.0" standalone="no"?>
<!DOCTYPE svg PUBLIC "-//W3C//DTD SVG 20010904//EN"
 "http://www.w3.org/TR/2001/REC-SVG-20010904/DTD/svg10.dtd">
<svg version="1.0" xmlns="http://www.w3.org/2000/svg"
 width="192.000000pt" height="192.000000pt" viewBox="0 0 192.000000 192.000000"
 preserveAspectRatio="xMidYMid meet">
<metadata>
Created by potrace 1.16, written by Peter Selinger 2001-2019
</metadata>
<g transform="translate(0.000000,192.000000) scale(0.100000,-0.100000)"
fill="#000000" stroke="none">
811 c445 -92 729 -532 635 -987 -62 -301 -295 -546 -601 -630 -91 -26 -329
-26 -420 0 -291 80 -516 305 -596 596 -26 91 -26 329 0 420 120 433 542 692
982 601z"/>
<path d="M1263 1239 c-89 -75 -83 -51 -83 -330 l0 -249 55 0 c43 0 58 5 75 22
19 21 20 34 20 304 0 163 -4 285 -9 289 -5 3 -31 -13 -58 -36z"/>
<path d="M580 1213 c0 -32 6 -68 13 -81 6 -12 61 -63 121 -112 127 -106 144
-110 207 -53 l41 37 -28 8 c-16 4 -96 64 -179 132 -82 69 -156 126 -162 126
-9 0 -13 -18 -13 -57z"/>
<path d="M990 990 c-80 -70 -123 -100 -140 -100 -17 0 -59 29 -127 86 -62 52
-110 84 -120 82 -16 -3 -18 -20 -21 -168 -1 -91 0 -175 3 -188 11 -43 56 -52
273 -52 110 0 220 3 246 6 l46 7 -2 211 c-3 203 -4 211 -23 213 -13 1 -62 -34
-135 -97z"/>
</g>
</svg>
