<?xml version="1.0" standalone="no"?>
<!DOCTYPE svg PUBLIC "-//W3C//DTD SVG 20010904//EN"
 "http://www.w3.org/TR/2001/REC-SVG-20010904/DTD/svg10.dtd">
<svg version="1.0" xmlns="http://www.w3.org/2000/svg"
 width="192.000000pt" height="192.000000pt" viewBox="0 0 192.000000 192.000000"
 preserveAspectRatio="xMidYMid meet">
<metadata>
Created by potrace 1.16, written by Peter Selinger 2001-2019
</metadata>
<g transform="translate(0.000000,192.000000) scale(0.100000,-0.100000)"
fill="#000000" stroke="none">
811 c445 -92 729 -532 635 -987 -62 -301 -295 -546 -601 -630 -91 -26 -329
-26 -420 0 -291 80 -516 305 -596 596 -26 91 -26 329 0 420 120 433 542 692
982 601z"/>
<path d="M887 1366 c-76 -21 -127 -63 -165 -136 -30 -58 -33 -69 -30 -144 l3
-81 128 -72 129 -73 135 76 135 77 -4 76 c-6 95 -36 168 -90 217 -69 62 -155
84 -241 60z m132 -101 c16 -8 41 -29 55 -46 24 -28 27 -38 24 -98 l-3 -66
-134 -3 c-95 -2 -138 1 -148 10 -22 18 -13 116 15 155 41 58 130 80 191 48z"/>
<path d="M690 791 c0 -106 4 -149 15 -171 29 -57 42 -60 242 -60 266 0 266 0
271 223 3 104 1 147 -7 147 -7 0 -67 -32 -135 -70 l-124 -70 -115 65 c-63 35
-122 67 -131 71 -14 5 -16 -8 -16 -135z"/>
</g>
</svg>
