<?xml version="1.0" standalone="no"?>
<!DOCTYPE svg PUBLIC "-//W3C//DTD SVG 20010904//EN"
 "http://www.w3.org/TR/2001/REC-SVG-20010904/DTD/svg10.dtd">
<svg version="1.0" xmlns="http://www.w3.org/2000/svg"
 width="192.000000pt" height="192.000000pt" viewBox="0 0 192.000000 192.000000"
 preserveAspectRatio="xMidYMid meet">
<metadata>
Created by potrace 1.16, written by Peter Selinger 2001-2019
</metadata>
<g transform="translate(0.000000,192.000000) scale(0.100000,-0.100000)"
fill="#000000" stroke="none">
810 c149 -35 263 -99 377 -209 169 -163 247 -351 247 -596 0 -245 -78 -433
-247 -596 -165 -159 -340 -229 -578 -229 -238 0 -413 70 -578 229 -169 163
-247 351 -247 596 0 238 70 413 229 578 111 115 239 190 390 227 107 26 298
26 407 0z"/>
<path d="M707 1362 c-10 -10 -17 -29 -17 -41 0 -13 -13 -33 -30 -48 -62 -52
-65 -66 -65 -303 0 -118 3 -227 8 -242 10 -38 65 -98 104 -114 46 -20 450 -20
496 0 39 16 94 76 104 114 5 15 8 124 8 242 0 237 -3 251 -65 303 -16 14 -30
34 -30 44 0 63 -78 86 -108 33 l-17 -30 -147 0 c-122 0 -148 3 -148 14 0 42
-64 60 -93 28z m171 -404 l3 -148 -31 0 -30 0 0 120 c0 100 -2 120 -15 120
-10 0 -15 10 -15 31 0 29 1 30 43 27 l42 -3 3 -147z m237 2 l0 -145 -85 0 -85
0 -3 134 c-1 74 0 141 3 148 3 10 25 13 87 11 l83 -3 0 -145z"/>
<path d="M1000 960 l0 -90 30 0 30 0 0 90 0 90 -30 0 -30 0 0 -90z"/>
</g>
</svg>
