<?xml version="1.0" standalone="no"?>
<!DOCTYPE svg PUBLIC "-//W3C//DTD SVG 20010904//EN"
 "http://www.w3.org/TR/2001/REC-SVG-20010904/DTD/svg10.dtd">
<svg version="1.0" xmlns="http://www.w3.org/2000/svg"
 width="192.000000pt" height="192.000000pt" viewBox="0 0 192.000000 192.000000"
 preserveAspectRatio="xMidYMid meet">
<metadata>
Created by potrace 1.16, written by Peter Selinger 2001-2019
</metadata>
<g transform="translate(0.000000,192.000000) scale(0.100000,-0.100000)"
fill="#000000" stroke="none">
811 c445 -92 729 -532 635 -987 -62 -301 -295 -546 -601 -630 -91 -26 -329
-26 -420 0 -291 80 -516 305 -596 596 -26 91 -26 329 0 420 120 433 542 692
982 601z"/>
<path d="M911 1369 c-18 -4 -45 -19 -60 -33 l-26 -26 30 0 c24 0 55 -27 187
-157 135 -135 158 -162 158 -188 0 -26 -23 -53 -158 -188 -132 -132 -162 -157
-187 -157 l-30 0 26 -26 c14 -14 43 -29 63 -34 70 -16 100 2 244 144 164 160
193 196 199 245 8 56 -15 91 -151 229 -183 186 -216 208 -295 191z"/>
<path d="M682 1147 c-129 -132 -145 -162 -122 -222 13 -35 225 -253 259 -266
34 -14 67 11 209 154 98 99 122 129 122 152 0 23 -26 54 -139 167 -182 181
-166 180 -329 15z"/>
</g>
</svg>
