<?xml version="1.0" standalone="no"?>
<!DOCTYPE svg PUBLIC "-//W3C//DTD SVG 20010904//EN"
 "http://www.w3.org/TR/2001/REC-SVG-20010904/DTD/svg10.dtd">
<svg version="1.0" xmlns="http://www.w3.org/2000/svg"
 width="192.000000pt" height="192.000000pt" viewBox="0 0 192.000000 192.000000"
 preserveAspectRatio="xMidYMid meet">
<metadata>
Created by potrace 1.16, written by Peter Selinger 2001-2019
</metadata>
<g transform="translate(0.000000,192.000000) scale(0.100000,-0.100000)"
fill="#000000" stroke="none">
811 c445 -92 729 -532 635 -987 -62 -301 -295 -546 -601 -630 -91 -26 -329
-26 -420 0 -291 80 -516 305 -596 596 -26 91 -26 329 0 420 120 433 542 692
982 601z"/>
<path d="M899 1351 c-16 -16 -29 -37 -29 -46 0 -24 27 -72 45 -79 86 -33 154
66 90 129 -33 33 -70 32 -106 -4z"/>
<path d="M899 1151 c-16 -16 -29 -37 -29 -46 0 -24 27 -72 45 -79 86 -33 154
66 90 129 -33 33 -70 32 -106 -4z"/>
<path d="M750 993 c-31 -11 -81 -68 -90 -103 -5 -19 -16 -88 -26 -153 -16
-116 -16 -119 3 -145 48 -65 139 -46 203 41 l35 47 80 0 80 0 30 -46 c39 -59
70 -77 126 -78 65 -1 89 22 89 86 0 81 -31 254 -51 287 -41 67 -121 89 -192
51 -21 -12 -56 -20 -82 -20 -26 0 -63 9 -85 20 -38 19 -88 25 -120 13z"/>
</g>
</svg>
