<?xml version="1.0" standalone="no"?>
<!DOCTYPE svg PUBLIC "-//W3C//DTD SVG 20010904//EN"
 "http://www.w3.org/TR/2001/REC-SVG-20010904/DTD/svg10.dtd">
<svg version="1.0" xmlns="http://www.w3.org/2000/svg"
 width="192.000000pt" height="192.000000pt" viewBox="0 0 192.000000 192.000000"
 preserveAspectRatio="xMidYMid meet">
<metadata>
Created by potrace 1.16, written by Peter Selinger 2001-2019
</metadata>
<g transform="translate(0.000000,192.000000) scale(0.100000,-0.100000)"
fill="#000000" stroke="none">
811 c445 -92 729 -532 635 -987 -62 -301 -295 -546 -601 -630 -91 -26 -329
-26 -420 0 -291 80 -516 305 -596 596 -26 91 -26 329 0 420 120 433 542 692
982 601z"/>
<path d="M905 1355 c-14 -13 -25 -33 -25 -45 0 -28 43 -70 73 -70 29 0 67 39
67 69 0 28 -42 71 -70 71 -11 0 -32 -11 -45 -25z"/>
<path d="M920 1177 c-13 -7 -29 -25 -34 -40 -22 -61 67 -114 113 -68 53 53
-12 142 -79 108z"/>
<path d="M649 985 c-49 -26 -63 -61 -67 -167 -6 -139 3 -185 43 -225 l33 -33
297 0 297 0 33 33 c40 40 49 86 43 225 -4 107 -19 141 -69 168 -40 20 -571 20
-610 -1z m569 -81 c20 -14 22 -23 22 -124 0 -85 -3 -112 -16 -124 -23 -24
-515 -24 -538 0 -13 12 -16 39 -16 124 0 149 -18 140 285 140 202 0 244 -3
263 -16z"/>
<path d="M1115 834 c-22 -23 -17 -122 8 -138 32 -20 52 4 55 68 4 78 -24 109
-63 70z"/>
</g>
</svg>
