<?xml version="1.0" standalone="no"?>
<!DOCTYPE svg PUBLIC "-//W3C//DTD SVG 20010904//EN"
 "http://www.w3.org/TR/2001/REC-SVG-20010904/DTD/svg10.dtd">
<svg version="1.0" xmlns="http://www.w3.org/2000/svg"
 width="192.000000pt" height="192.000000pt" viewBox="0 0 192.000000 192.000000"
 preserveAspectRatio="xMidYMid meet">
<metadata>
Created by potrace 1.16, written by Peter Selinger 2001-2019
</metadata>
<g transform="translate(0.000000,192.000000) scale(0.100000,-0.100000)"
fill="#000000" stroke="none">
811 c445 -92 729 -532 635 -987 -62 -301 -295 -546 -601 -630 -91 -26 -329
-26 -420 0 -291 80 -516 305 -596 596 -26 91 -26 329 0 420 120 433 542 692
982 601z"/>
<path d="M1038 1345 c-42 -24 -48 -45 -48 -175 0 -121 0 -122 29 -151 29 -29
31 -29 141 -29 176 0 195 20 188 208 -3 95 -5 103 -31 129 -26 27 -32 28 -140
31 -85 1 -118 -2 -139 -13z"/>
<path d="M714 1335 c-29 -20 -154 -246 -154 -279 0 -14 9 -35 20 -46 18 -18
33 -20 164 -20 221 0 232 20 120 217 -78 139 -104 161 -150 128z"/>
<path d="M1095 932 c-136 -64 -150 -245 -27 -328 120 -81 282 9 282 158 0 132
-138 225 -255 170z"/>
<path d="M602 924 c-36 -25 -29 -67 20 -120 l41 -45 -41 -42 c-25 -25 -42 -52
-42 -66 0 -74 61 -83 127 -19 l43 42 43 -42 c47 -46 83 -54 110 -24 27 29 20
59 -24 107 l-41 45 41 46 c55 63 52 111 -6 129 -18 5 -33 -4 -73 -41 l-50 -47
-50 47 c-54 50 -65 54 -98 30z"/>
</g>
</svg>
