<?xml version="1.0" standalone="no"?>
<!DOCTYPE svg PUBLIC "-//W3C//DTD SVG 20010904//EN"
 "http://www.w3.org/TR/2001/REC-SVG-20010904/DTD/svg10.dtd">
<svg version="1.0" xmlns="http://www.w3.org/2000/svg"
 width="192.000000pt" height="192.000000pt" viewBox="0 0 192.000000 192.000000"
 preserveAspectRatio="xMidYMid meet">
<metadata>
Created by potrace 1.16, written by Peter Selinger 2001-2019
</metadata>
<g transform="translate(0.000000,192.000000) scale(0.100000,-0.100000)"
fill="#000000" stroke="none">
811 c445 -92 729 -532 635 -987 -62 -301 -295 -546 -601 -630 -91 -26 -329
-26 -420 0 -291 80 -516 305 -596 596 -26 91 -26 329 0 420 120 433 542 692
982 601z"/>
<path d="M813 1351 c-108 -40 -185 -112 -237 -221 -28 -59 -31 -74 -31 -165 0
-83 4 -108 23 -150 25 -54 97 -155 111 -155 5 0 11 82 13 183 4 174 5 184 31
233 99 191 369 190 463 -1 22 -47 26 -65 22 -124 -5 -91 -42 -153 -117 -198
-79 -48 -162 -53 -253 -18 -16 6 -18 -1 -18 -73 l0 -81 38 -10 c60 -17 157
-13 224 10 149 50 251 168 279 323 32 172 -65 352 -230 430 -58 27 -78 31
-166 33 -78 2 -111 -2 -152 -16z"/>
<path d="M893 1080 c-107 -55 -90 -206 28 -241 103 -31 204 87 153 180 -40 73
-110 97 -181 61z"/>
</g>
</svg>
