<?xml version="1.0" standalone="no"?>
<!DOCTYPE svg PUBLIC "-//W3C//DTD SVG 20010904//EN"
 "http://www.w3.org/TR/2001/REC-SVG-20010904/DTD/svg10.dtd">
<svg version="1.0" xmlns="http://www.w3.org/2000/svg"
 width="192.000000pt" height="192.000000pt" viewBox="0 0 192.000000 192.000000"
 preserveAspectRatio="xMidYMid meet">
<metadata>
Created by potrace 1.16, written by Peter Selinger 2001-2019
</metadata>
<g transform="translate(0.000000,192.000000) scale(0.100000,-0.100000)"
fill="#000000" stroke="none">
811 c445 -92 729 -532 635 -987 -62 -301 -295 -546 -601 -630 -91 -26 -329
-26 -420 0 -291 80 -516 305 -596 596 -26 91 -26 329 0 420 120 433 542 692
982 601z"/>
<path d="M869 1325 c-58 -32 -56 -121 3 -151 60 -31 123 8 123 77 0 67 -68
107 -126 74z"/>
<path d="M645 1245 c-27 -36 -51 -72 -53 -80 -10 -44 45 -133 99 -160 41 -22
134 -18 209 8 117 40 337 181 327 210 -6 17 -20 14 -142 -37 -171 -70 -274
-77 -322 -22 -12 15 -27 53 -34 86 -6 33 -17 60 -23 60 -6 -1 -33 -30 -61 -65z"/>
<path d="M1225 1070 c-234 -21 -410 -118 -480 -265 -24 -49 -29 -77 -33 -154
-3 -68 -1 -95 8 -101 7 -5 55 10 114 34 83 35 101 45 98 61 -1 11 -5 37 -9 58
-19 120 132 252 347 304 40 10 75 23 77 30 6 16 -15 44 -31 42 -6 -1 -47 -5
-91 -9z"/>
</g>
</svg>
