<?xml version="1.0" standalone="no"?>
<!DOCTYPE svg PUBLIC "-//W3C//DTD SVG 20010904//EN"
 "http://www.w3.org/TR/2001/REC-SVG-20010904/DTD/svg10.dtd">
<svg version="1.0" xmlns="http://www.w3.org/2000/svg"
 width="192.000000pt" height="192.000000pt" viewBox="0 0 192.000000 192.000000"
 preserveAspectRatio="xMidYMid meet">
<metadata>
Created by potrace 1.16, written by Peter Selinger 2001-2019
</metadata>
<g transform="translate(0.000000,192.000000) scale(0.100000,-0.100000)"
fill="#000000" stroke="none">
811 c445 -92 729 -532 635 -987 -62 -301 -295 -546 -601 -630 -91 -26 -329
-26 -420 0 -291 80 -516 305 -596 596 -26 91 -26 329 0 420 120 433 542 692
982 601z"/>
<path d="M695 1321 c-47 -22 -89 -64 -104 -104 -7 -17 -11 -119 -11 -253 0
-235 3 -256 49 -308 23 -26 79 -52 129 -60 l42 -6 0 70 c0 68 -1 72 -34 101
-41 35 -61 87 -52 134 8 42 42 85 66 85 15 0 19 -9 22 -46 2 -37 8 -48 29 -61
23 -14 31 -14 58 -3 28 11 31 17 31 57 0 51 20 65 50 38 55 -50 47 -149 -15
-204 -34 -29 -35 -33 -35 -102 l0 -72 133 5 c170 6 216 26 261 115 13 27 16
69 16 257 0 238 -4 262 -48 310 -56 60 -84 66 -327 66 -193 0 -225 -3 -260
-19z m93 -158 c-3 -46 -4 -48 -35 -51 -30 -3 -33 -6 -33 -38 0 -24 -5 -34 -15
-34 -12 0 -15 16 -15 85 l0 85 51 0 50 0 -3 -47z m72 -18 c0 -58 2 -65 20 -65
18 0 20 7 20 65 0 52 3 65 15 65 13 0 15 -14 13 -82 -3 -79 -4 -83 -27 -86
-12 -2 -34 -1 -47 2 -23 6 -24 10 -24 86 0 64 3 80 15 80 12 0 15 -14 15 -65z
m217 -12 c2 -83 -7 -96 -64 -91 l-38 3 -3 83 -3 83 53 -3 53 -3 2 -72z m143
57 c0 -18 -4 -20 -35 -14 l-35 6 0 -51 c0 -44 3 -51 20 -51 11 0 20 7 20 15 0
8 -4 15 -10 15 -5 0 -10 9 -10 21 0 15 5 20 23 17 18 -2 23 -10 25 -47 2 -28
-1 -47 -10 -52 -19 -13 -72 -11 -86 3 -13 13 -17 140 -5 151 3 4 28 7 55 7 42
0 48 -3 48 -20z m-2 -202 c-3 -7 -19 -14 -36 -16 -39 -4 -45 -32 -7 -32 16 0
25 -6 25 -15 0 -9 -9 -15 -25 -15 -22 0 -25 -4 -25 -35 0 -24 -5 -35 -15 -35
-12 0 -15 16 -15 80 l0 80 51 0 c36 0 49 -4 47 -12z m-67 -210 l12 -23 10 23
c6 12 16 22 24 22 17 0 16 -4 -2 -40 -14 -27 -14 -33 0 -60 18 -36 19 -40 2
-40 -8 0 -18 10 -24 22 l-10 23 -12 -23 c-6 -12 -18 -22 -27 -22 -12 0 -11 6
5 38 19 38 19 38 -1 70 -17 27 -18 32 -4 32 8 0 21 -10 27 -22z"/>
<path d="M720 1165 c0 -8 9 -15 20 -15 11 0 20 7 20 15 0 8 -9 15 -20 15 -11
0 -20 -7 -20 -15z"/>
<path d="M1010 1165 c0 -8 7 -15 15 -15 8 0 15 7 15 15 0 8 -7 15 -15 15 -8 0
-15 -7 -15 -15z"/>
<path d="M1010 1095 c0 -8 7 -15 15 -15 8 0 15 7 15 15 0 8 -7 15 -15 15 -8 0
-15 -7 -15 -15z"/>
</g>
</svg>
