<?xml version="1.0" standalone="no"?>
<!DOCTYPE svg PUBLIC "-//W3C//DTD SVG 20010904//EN"
 "http://www.w3.org/TR/2001/REC-SVG-20010904/DTD/svg10.dtd">
<svg version="1.0" xmlns="http://www.w3.org/2000/svg"
 width="192.000000pt" height="192.000000pt" viewBox="0 0 192.000000 192.000000"
 preserveAspectRatio="xMidYMid meet">
<metadata>
Created by potrace 1.16, written by Peter Selinger 2001-2019
</metadata>
<g transform="translate(0.000000,192.000000) scale(0.100000,-0.100000)"
fill="#000000" stroke="none">
811 c445 -92 729 -532 635 -987 -62 -301 -295 -546 -601 -630 -91 -26 -329
-26 -420 0 -291 80 -516 305 -596 596 -26 91 -26 329 0 420 120 433 542 692
982 601z"/>
<path d="M551 1166 c-8 -9 -11 -74 -9 -212 l3 -199 38 -3 37 -3 0 85 0 86 40
0 c52 0 60 17 60 130 0 124 -4 130 -89 130 -46 0 -72 -5 -80 -14z m89 -116 c0
-33 -4 -60 -10 -60 -6 0 -10 27 -10 60 0 33 4 60 10 60 6 0 10 -27 10 -60z"/>
<path d="M742 968 l3 -213 90 0 90 0 3 213 2 212 -35 0 -35 0 0 -180 0 -180
-25 0 -25 0 0 180 0 180 -35 0 -35 0 2 -212z"/>
<path d="M987 1173 c-4 -3 -7 -39 -7 -78 0 -52 -4 -76 -15 -85 -19 -16 -19
-57 0 -67 10 -6 15 -32 17 -98 l3 -90 68 -3 c42 -2 74 2 83 9 17 14 20 179 4
179 -5 0 -10 15 -10 34 0 19 5 38 10 41 11 7 14 123 4 149 -5 13 -22 16 -78
16 -40 0 -76 -3 -79 -7z m83 -108 c0 -25 -4 -45 -10 -45 -5 0 -10 20 -10 45 0
25 5 45 10 45 6 0 10 -20 10 -45z m0 -185 c0 -33 -4 -60 -10 -60 -6 0 -10 27
-10 60 0 33 4 60 10 60 6 0 10 -27 10 -60z"/>
<path d="M1176 1164 c-12 -31 -7 -389 6 -402 16 -16 160 -16 176 0 8 8 12 49
12 120 0 104 -1 108 -25 124 -16 10 -34 14 -50 10 -21 -5 -25 -12 -25 -41 0
-19 5 -35 10 -35 6 0 10 -27 10 -60 0 -53 -2 -60 -20 -60 -19 0 -20 7 -20 145
0 137 1 145 19 145 13 0 21 -8 23 -22 2 -19 9 -23 38 -23 34 0 35 1 38 43 5
64 -7 72 -103 72 -66 0 -84 -3 -89 -16z"/>
</g>
</svg>
