<?xml version="1.0" standalone="no"?>
<!DOCTYPE svg PUBLIC "-//W3C//DTD SVG 20010904//EN"
 "http://www.w3.org/TR/2001/REC-SVG-20010904/DTD/svg10.dtd">
<svg version="1.0" xmlns="http://www.w3.org/2000/svg"
 width="192.000000pt" height="192.000000pt" viewBox="0 0 192.000000 192.000000"
 preserveAspectRatio="xMidYMid meet">
<metadata>
Created by potrace 1.16, written by Peter Selinger 2001-2019
</metadata>
<g transform="translate(0.000000,192.000000) scale(0.100000,-0.100000)"
fill="#000000" stroke="none">
811 c445 -92 729 -532 635 -987 -62 -301 -295 -546 -601 -630 -91 -26 -329
-26 -420 0 -291 80 -516 305 -596 596 -26 91 -26 329 0 420 120 433 542 692
982 601z"/>
<path d="M660 1215 l0 -175 30 0 30 0 1 83 1 82 16 -82 15 -83 33 0 34 0 0
175 0 175 -30 0 -30 0 -1 -77 -1 -78 -16 78 -15 77 -34 0 -33 0 0 -175z"/>
<path d="M848 1299 c-2 -50 -2 -129 0 -174 5 -94 10 -99 89 -88 37 5 43 9 43
29 0 21 -5 24 -35 24 -35 0 -35 0 -35 44 0 41 2 45 28 48 21 2 27 8 27 28 0
20 -6 26 -27 28 -26 3 -28 7 -28 48 0 44 0 44 35 44 32 0 35 2 35 30 l0 30
-64 0 -64 0 -4 -91z"/>
<path d="M995 1323 c4 -38 13 -115 19 -173 l11 -105 29 -3 c37 -5 42 5 51 95
4 41 10 72 13 68 4 -3 12 -41 17 -83 10 -77 10 -77 42 -80 38 -4 37 -7 53 158
6 63 13 132 16 153 6 36 5 37 -24 37 -38 0 -42 -11 -43 -113 -1 -72 -2 -77
-10 -42 -5 22 -11 66 -14 98 -6 55 -8 57 -35 57 -26 0 -29 -4 -34 -42 -3 -24
-9 -70 -14 -103 l-9 -60 -2 65 c-1 36 -4 82 -7 103 -6 33 -10 37 -36 37 l-30
0 7 -67z"/>
<path d="M914 963 c-6 -30 -9 -33 -12 -15 -3 20 -8 22 -78 22 -72 0 -74 -1
-74 -25 0 -18 5 -25 20 -25 18 0 20 -7 20 -83 0 -51 -5 -88 -12 -95 -9 -9 -9
-15 -1 -23 9 -9 21 -4 50 20 40 33 50 30 34 -10 -8 -18 -10 -20 -10 -6 -1 17
-4 16 -30 -5 -23 -18 -30 -31 -30 -60 -1 -34 2 -38 24 -38 14 0 25 4 25 8 0 4
12 8 28 7 25 0 27 4 33 50 13 99 19 120 36 133 9 6 20 12 25 12 8 0 68 -185
68 -211 0 -27 29 -52 45 -39 8 6 11 18 9 25 -4 9 4 15 27 17 l33 3 3 113 c4
121 0 129 -44 94 -20 -15 -23 -28 -25 -112 l-3 -95 -24 75 c-16 50 -20 79 -14
90 5 8 39 34 74 58 35 23 63 49 63 57 -1 8 2 15 7 15 5 0 9 11 9 25 0 24 -2
25 -75 25 -73 0 -75 -1 -75 -25 0 -18 5 -25 20 -25 33 0 22 -18 -17 -29 -50
-14 -53 -14 -53 6 0 10 -8 37 -17 60 -23 55 -48 57 -59 6z m-20 -85 c-2 -24
-12 -51 -24 -62 l-20 -20 0 55 c0 60 4 69 31 69 15 0 17 -7 13 -42z"/>
<path d="M587 952 c-11 -12 -17 -36 -17 -63 0 -40 5 -50 50 -94 40 -39 50 -56
50 -82 0 -26 -4 -33 -20 -33 -16 0 -20 7 -20 35 0 32 -2 35 -30 35 -29 0 -30
-1 -30 -48 0 -62 20 -82 82 -82 62 0 78 20 78 96 0 58 -1 61 -50 109 -33 33
-50 57 -48 70 4 27 32 25 36 -2 3 -18 10 -23 33 -23 27 0 29 3 29 38 0 21 -5
43 -12 50 -20 20 -112 15 -131 -6z"/>
<path d="M1198 878 c-2 -51 -2 -129 1 -173 l6 -80 65 0 c63 0 65 1 65 25 0 21
-5 26 -32 28 -32 3 -33 5 -33 48 0 40 2 44 25 44 21 0 25 5 25 30 0 25 -4 30
-25 30 -23 0 -25 4 -25 45 0 45 0 45 35 45 31 0 35 3 35 25 0 24 -2 25 -69 25
l-68 0 -5 -92z"/>
</g>
</svg>
