<?xml version="1.0" standalone="no"?>
<!DOCTYPE svg PUBLIC "-//W3C//DTD SVG 20010904//EN"
 "http://www.w3.org/TR/2001/REC-SVG-20010904/DTD/svg10.dtd">
<svg version="1.0" xmlns="http://www.w3.org/2000/svg"
 width="192.000000pt" height="192.000000pt" viewBox="0 0 192.000000 192.000000"
 preserveAspectRatio="xMidYMid meet">
<metadata>
Created by potrace 1.16, written by Peter Selinger 2001-2019
</metadata>
<g transform="translate(0.000000,192.000000) scale(0.100000,-0.100000)"
fill="#000000" stroke="none">
811 c445 -92 729 -532 635 -987 -62 -301 -295 -546 -601 -630 -91 -26 -329
-26 -420 0 -291 80 -516 305 -596 596 -26 91 -26 329 0 420 120 433 542 692
982 601z"/>
<path d="M882 1370 c-61 -13 -137 -57 -182 -106 -47 -51 -92 -137 -88 -167 3
-22 6 -22 233 -27 229 -5 230 -5 233 -27 l3 -23 -249 0 c-314 0 -292 14 -292
-183 0 -95 4 -148 14 -170 16 -39 61 -82 99 -96 38 -15 566 -15 604 0 38 14
83 57 99 96 10 22 14 75 14 171 l0 138 -29 28 c-20 19 -30 41 -35 73 -8 62
-60 155 -113 204 -83 76 -205 111 -311 89z m-112 -417 c0 -4 -19 -27 -42 -50
-39 -40 -41 -44 -26 -60 16 -15 22 -11 87 52 77 74 112 83 41 10 -42 -43 -43
-46 -27 -62 16 -16 21 -14 85 50 l68 67 155 0 c199 0 199 0 199 -114 0 -50 -5
-87 -12 -94 -7 -7 -42 -12 -87 -12 l-75 0 32 33 c18 18 32 41 32 50 0 31 -35
18 -85 -33 l-49 -50 -221 0 c-159 0 -224 3 -233 12 -7 7 -12 44 -12 94 0 74 2
84 22 98 23 16 148 23 148 9z"/>
</g>
</svg>
