<?xml version="1.0" standalone="no"?>
<!DOCTYPE svg PUBLIC "-//W3C//DTD SVG 20010904//EN"
 "http://www.w3.org/TR/2001/REC-SVG-20010904/DTD/svg10.dtd">
<svg version="1.0" xmlns="http://www.w3.org/2000/svg"
 width="192.000000pt" height="192.000000pt" viewBox="0 0 192.000000 192.000000"
 preserveAspectRatio="xMidYMid meet">
<metadata>
Created by potrace 1.16, written by Peter Selinger 2001-2019
</metadata>
<g transform="translate(0.000000,192.000000) scale(0.100000,-0.100000)"
fill="#000000" stroke="none">
811 c445 -92 729 -532 635 -987 -62 -301 -295 -546 -601 -630 -91 -26 -329
-26 -420 0 -291 80 -516 305 -596 596 -26 91 -26 329 0 420 120 433 542 692
982 601z"/>
<path d="M580 1220 c-12 -12 -20 -33 -20 -54 0 -25 -5 -35 -20 -39 -11 -3 -20
-12 -20 -21 0 -9 9 -21 20 -28 18 -11 20 -24 20 -111 0 -90 -2 -100 -22 -118
l-23 -19 23 -19 c13 -12 22 -30 22 -48 0 -16 6 -38 14 -49 14 -18 30 -19 381
-19 351 0 367 1 381 19 8 11 14 33 14 49 0 18 9 36 23 48 l22 19 -22 19 c-21
18 -23 28 -23 118 0 87 2 100 20 111 11 7 20 19 20 28 0 9 -9 18 -20 21 -15 4
-20 14 -20 39 0 21 -8 42 -20 54 -19 19 -33 20 -375 20 -342 0 -356 -1 -375
-20z m185 -190 l0 -95 -32 -3 -33 -3 0 -65 c0 -62 -1 -64 -25 -64 l-25 0 0
159 c0 118 3 161 13 165 6 3 32 4 57 3 l45 -2 0 -95z m83 -37 c2 -108 5 -133
17 -133 12 0 15 25 17 133 l3 132 25 0 25 0 3 -149 c2 -101 -1 -153 -9 -162
-14 -17 -110 -19 -127 -2 -13 13 -18 299 -5 312 4 4 16 6 28 4 19 -3 20 -11
23 -135z m240 125 c14 -14 16 -104 2 -113 -5 -3 -10 -17 -10 -30 0 -13 5 -27
10 -30 14 -9 12 -119 -2 -133 -17 -17 -93 -15 -108 2 -17 21 -17 281 0 301 15
18 91 20 108 3z m156 6 c11 -4 16 -19 16 -45 0 -35 -3 -39 -25 -39 -16 0 -25
6 -25 15 0 8 -9 15 -20 15 -19 0 -20 -7 -20 -105 0 -98 1 -105 20 -105 17 0
20 7 20 45 0 25 -4 45 -10 45 -5 0 -10 12 -10 26 0 23 3 25 33 22 l32 -3 3
-89 c3 -101 0 -106 -65 -106 -75 0 -73 -6 -73 164 0 84 3 156 7 159 8 9 96 9
117 1z"/>
<path d="M700 1025 c0 -25 5 -45 10 -45 6 0 10 20 10 45 0 25 -4 45 -10 45 -5
0 -10 -20 -10 -45z"/>
<path d="M1030 1035 c0 -19 5 -35 10 -35 6 0 10 16 10 35 0 19 -4 35 -10 35
-5 0 -10 -16 -10 -35z"/>
<path d="M1030 906 c0 -25 5 -46 10 -46 6 0 10 18 10 39 0 22 -4 43 -10 46 -6
4 -10 -12 -10 -39z"/>
</g>
</svg>
