<?xml version="1.0" standalone="no"?>
<!DOCTYPE svg PUBLIC "-//W3C//DTD SVG 20010904//EN"
 "http://www.w3.org/TR/2001/REC-SVG-20010904/DTD/svg10.dtd">
<svg version="1.0" xmlns="http://www.w3.org/2000/svg"
 width="192.000000pt" height="192.000000pt" viewBox="0 0 192.000000 192.000000"
 preserveAspectRatio="xMidYMid meet">
<metadata>
Created by potrace 1.16, written by Peter Selinger 2001-2019
</metadata>
<g transform="translate(0.000000,192.000000) scale(0.100000,-0.100000)"
fill="#000000" stroke="none">
811 c445 -92 729 -532 635 -987 -62 -301 -295 -546 -601 -630 -91 -26 -329
-26 -420 0 -291 80 -516 305 -596 596 -26 91 -26 329 0 420 120 433 542 692
982 601z"/>
<path d="M603 1230 c-25 -10 -43 -39 -43 -70 0 -12 -10 -30 -22 -41 l-23 -19
23 -19 c20 -18 22 -28 22 -118 0 -89 -2 -100 -22 -117 l-22 -19 22 -18 c14
-10 22 -28 22 -46 0 -18 9 -38 23 -51 23 -22 28 -22 376 -22 l352 0 24 25 c15
14 25 36 25 53 0 17 6 32 15 36 8 3 15 14 15 25 0 10 -7 21 -15 25 -22 8 -22
211 0 220 19 7 20 42 1 49 -7 3 -16 23 -19 45 -11 69 -2 67 -386 69 -190 1
-356 -2 -368 -7z m697 -265 l0 -215 -340 0 -340 0 0 215 0 215 340 0 340 0 0
-215z"/>
<path d="M662 1118 c-8 -8 -12 -59 -12 -166 l0 -153 28 3 c26 3 27 6 30 65 3
62 3 62 35 65 l32 3 3 83 c2 53 -1 89 -9 98 -14 17 -90 19 -107 2z m55 -115
c-2 -16 -4 -5 -4 22 0 28 2 40 4 28 2 -13 2 -35 0 -50z"/>
<path d="M796 1115 c-3 -9 -6 -76 -6 -149 0 -163 3 -168 85 -164 l60 3 0 160
c0 148 -1 160 -19 163 -30 6 -36 -16 -36 -145 0 -102 -3 -123 -15 -123 -12 0
-15 24 -17 133 -3 126 -4 132 -24 135 -13 2 -24 -4 -28 -13z"/>
<path d="M993 1123 c-9 -3 -13 -26 -13 -64 0 -33 -4 -59 -10 -59 -13 0 -13
-43 -1 -56 6 -5 11 -38 13 -74 l3 -65 55 0 55 0 2 155 c1 108 -2 157 -10 162
-13 9 -75 9 -94 1z m57 -88 c0 -19 -4 -35 -10 -35 -5 0 -10 16 -10 35 0 19 5
35 10 35 6 0 10 -16 10 -35z m0 -135 c0 -22 -4 -40 -10 -40 -5 0 -10 18 -10
40 0 22 5 40 10 40 6 0 10 -18 10 -40z"/>
<path d="M1131 1116 c-8 -9 -11 -61 -9 -162 l3 -149 58 -3 c80 -4 87 4 87 97
0 85 -8 101 -52 101 -23 0 -28 -4 -28 -24 0 -14 5 -28 10 -31 17 -10 12 -85
-5 -85 -12 0 -15 18 -15 105 0 83 3 105 14 105 7 0 16 -9 19 -21 4 -15 12 -20
29 -17 18 2 24 10 26 36 2 18 -2 40 -9 48 -15 19 -112 19 -128 0z"/>
</g>
</svg>
