<?xml version="1.0" standalone="no"?>
<!DOCTYPE svg PUBLIC "-//W3C//DTD SVG 20010904//EN"
 "http://www.w3.org/TR/2001/REC-SVG-20010904/DTD/svg10.dtd">
<svg version="1.0" xmlns="http://www.w3.org/2000/svg"
 width="192.000000pt" height="192.000000pt" viewBox="0 0 192.000000 192.000000"
 preserveAspectRatio="xMidYMid meet">
<metadata>
Created by potrace 1.16, written by Peter Selinger 2001-2019
</metadata>
<g transform="translate(0.000000,192.000000) scale(0.100000,-0.100000)"
fill="#000000" stroke="none">
811 c445 -92 729 -532 635 -987 -62 -301 -295 -546 -601 -630 -91 -26 -329
-26 -420 0 -291 80 -516 305 -596 596 -26 91 -26 329 0 420 120 433 542 692
982 601z"/>
<path d="M835 1352 c-157 -54 -259 -172 -283 -327 -17 -109 15 -232 85 -320
38 -48 132 -110 199 -132 50 -16 56 -16 71 0 23 23 5 41 -60 62 -67 21 -137
72 -175 127 -48 71 -48 80 3 118 43 32 45 36 45 82 0 92 58 164 153 189 59 16
125 1 177 -40 19 -15 52 -30 73 -34 20 -3 50 -15 66 -26 32 -23 72 -96 65
-116 -3 -8 -30 -16 -63 -20 -31 -4 -62 -10 -67 -13 -22 -16 -37 -72 -38 -143
-1 -67 -5 -82 -33 -127 -42 -68 -29 -80 51 -47 108 44 169 100 220 201 110
221 -13 498 -253 568 -71 21 -173 20 -236 -2z"/>
<path d="M935 1056 c-20 -15 -17 -44 7 -59 12 -8 21 -7 32 2 36 30 -1 85 -39
57z"/>
</g>
</svg>
