<?xml version="1.0" standalone="no"?>
<!DOCTYPE svg PUBLIC "-//W3C//DTD SVG 20010904//EN"
 "http://www.w3.org/TR/2001/REC-SVG-20010904/DTD/svg10.dtd">
<svg version="1.0" xmlns="http://www.w3.org/2000/svg"
 width="192.000000pt" height="192.000000pt" viewBox="0 0 192.000000 192.000000"
 preserveAspectRatio="xMidYMid meet">
<metadata>
Created by potrace 1.16, written by Peter Selinger 2001-2019
</metadata>
<g transform="translate(0.000000,192.000000) scale(0.100000,-0.100000)"
fill="#000000" stroke="none">
811 c445 -92 729 -532 635 -987 -62 -301 -295 -546 -601 -630 -91 -26 -329
-26 -420 0 -291 80 -516 305 -596 596 -26 91 -26 329 0 420 120 433 542 692
982 601z"/>
<path d="M849 1147 c-40 -27 -59 -81 -43 -125 8 -22 5 -33 -14 -62 -68 -99 44
-232 158 -187 24 9 55 13 79 10 37 -5 41 -3 46 20 5 19 1 34 -13 52 -21 27
-20 56 4 76 21 17 17 57 -6 69 -22 12 -33 8 -68 -24 l-23 -21 -44 50 c-24 28
-43 55 -41 60 2 6 21 9 43 7 47 -3 68 16 59 52 -4 15 -17 28 -37 35 -46 16
-62 14 -100 -12z m85 -289 c-8 -12 -48 -10 -62 4 -13 13 -16 50 -5 62 9 8 74
-55 67 -66z"/>
<path d="M540 1141 c-15 -29 -13 -334 2 -349 15 -15 51 -15 66 0 7 7 12 27 12
45 0 31 2 33 36 33 50 0 108 58 119 118 9 57 -25 128 -75 154 -49 26 -146 25
-160 -1z m115 -73 c14 -6 28 -23 32 -37 8 -32 -16 -75 -45 -79 -21 -3 -22 0
-22 62 0 36 2 66 5 66 2 0 16 -5 30 -12z"/>
<path d="M1131 1142 c-16 -29 -15 -334 1 -350 18 -18 152 -15 188 3 57 30 76
104 40 162 -14 23 -17 39 -11 60 11 38 -3 84 -34 113 -22 21 -39 25 -100 28
-65 4 -74 2 -84 -16z m133 -85 c9 -15 7 -21 -8 -33 -33 -24 -46 -17 -46 22 0
31 3 35 21 32 12 -2 27 -11 33 -21z m17 -143 c19 -23 -1 -48 -40 -52 -30 -3
-31 -2 -31 32 0 33 2 36 29 36 16 0 34 -7 42 -16z"/>
</g>
</svg>
