<?xml version="1.0" standalone="no"?>
<!DOCTYPE svg PUBLIC "-//W3C//DTD SVG 20010904//EN"
 "http://www.w3.org/TR/2001/REC-SVG-20010904/DTD/svg10.dtd">
<svg version="1.0" xmlns="http://www.w3.org/2000/svg"
 width="192.000000pt" height="192.000000pt" viewBox="0 0 192.000000 192.000000"
 preserveAspectRatio="xMidYMid meet">
<metadata>
Created by potrace 1.16, written by Peter Selinger 2001-2019
</metadata>
<g transform="translate(0.000000,192.000000) scale(0.100000,-0.100000)"
fill="#000000" stroke="none">
811 c445 -92 729 -532 635 -987 -62 -301 -295 -546 -601 -630 -91 -26 -329
-26 -420 0 -291 80 -516 305 -596 596 -26 91 -26 329 0 420 120 433 542 692
982 601z"/>
<path d="M757 1370 c-46 -14 -98 -60 -118 -104 -15 -32 -19 -65 -18 -156 l0
-115 25 43 c14 23 29 42 33 42 4 0 20 -27 36 -60 16 -33 32 -57 36 -53 4 5 30
60 57 123 27 63 53 115 58 115 5 0 29 -46 53 -102 l45 -103 117 0 c108 0 119
-2 129 -20 8 -14 8 -26 0 -40 -10 -19 -21 -20 -156 -20 l-146 0 -15 40 c-9 22
-21 39 -27 37 -6 -2 -31 -52 -57 -112 -25 -60 -50 -110 -55 -112 -5 -2 -26 29
-45 69 l-36 72 -26 -45 c-55 -94 -27 -222 61 -284 l44 -30 181 -3 c116 -2 196
0 220 8 47 14 106 65 123 107 20 46 20 550 0 596 -17 43 -76 93 -123 106 -45
13 -355 13 -396 1z m237 -666 c21 -21 20 -40 -4 -64 -23 -23 -33 -24 -61 -10
-22 12 -26 59 -7 78 17 17 54 15 72 -4z"/>
</g>
</svg>
