<?xml version="1.0" standalone="no"?>
<!DOCTYPE svg PUBLIC "-//W3C//DTD SVG 20010904//EN"
 "http://www.w3.org/TR/2001/REC-SVG-20010904/DTD/svg10.dtd">
<svg version="1.0" xmlns="http://www.w3.org/2000/svg"
 width="192.000000pt" height="192.000000pt" viewBox="0 0 192.000000 192.000000"
 preserveAspectRatio="xMidYMid meet">
<metadata>
Created by potrace 1.16, written by Peter Selinger 2001-2019
</metadata>
<g transform="translate(0.000000,192.000000) scale(0.100000,-0.100000)"
fill="#000000" stroke="none">
811 c445 -92 729 -532 635 -987 -62 -301 -295 -546 -601 -630 -91 -26 -329
-26 -420 0 -291 80 -516 305 -596 596 -26 91 -26 329 0 420 120 433 542 692
982 601z"/>
<path d="M755 1344 c-11 -3 -30 -7 -42 -10 -34 -7 -94 -64 -114 -109 -16 -34
-19 -68 -19 -227 l0 -188 66 0 c60 0 70 -3 101 -30 37 -33 51 -31 87 9 18 20
28 21 258 21 l238 0 0 193 c0 184 -1 196 -23 238 -16 29 -40 54 -72 74 l-48
30 -206 2 c-113 1 -215 -1 -226 -3z m370 -169 l0 -30 -161 -3 c-173 -3 -193 3
-179 48 6 20 12 20 173 18 l167 -3 0 -30z m3 -107 c5 -40 -25 -48 -171 -48
-140 0 -164 5 -172 32 -14 43 7 49 179 46 l161 -3 3 -27z m-60 -106 c6 -42
-13 -52 -105 -52 -90 0 -123 10 -123 38 0 36 21 43 125 40 96 -3 100 -4 103
-26z"/>
<path d="M586 743 c16 -66 76 -135 132 -150 15 -5 126 -8 247 -8 206 0 223 1
260 21 49 27 70 49 90 97 29 71 41 67 -221 67 l-236 0 -35 -30 c-18 -16 -37
-30 -41 -30 -5 0 -21 14 -37 30 -26 28 -34 30 -97 30 l-68 0 6 -27z"/>
</g>
</svg>
