<?xml version="1.0" standalone="no"?>
<!DOCTYPE svg PUBLIC "-//W3C//DTD SVG 20010904//EN"
 "http://www.w3.org/TR/2001/REC-SVG-20010904/DTD/svg10.dtd">
<svg version="1.0" xmlns="http://www.w3.org/2000/svg"
 width="192.000000pt" height="192.000000pt" viewBox="0 0 192.000000 192.000000"
 preserveAspectRatio="xMidYMid meet">
<metadata>
Created by potrace 1.16, written by Peter Selinger 2001-2019
</metadata>
<g transform="translate(0.000000,192.000000) scale(0.100000,-0.100000)"
fill="#000000" stroke="none">
811 c445 -92 729 -532 635 -987 -62 -301 -295 -546 -601 -630 -91 -26 -329
-26 -420 0 -291 80 -516 305 -596 596 -26 91 -26 329 0 420 120 433 542 692
982 601z"/>
<path d="M857 1360 c-178 -45 -307 -211 -307 -394 0 -69 23 -161 48 -188 19
-22 55 -23 76 -2 20 19 20 18 -5 89 -88 250 174 485 415 372 l60 -28 78 78
c43 43 74 79 68 81 -6 2 -40 -6 -76 -19 -64 -23 -66 -23 -112 -5 -55 21 -190
29 -245 16z"/>
<path d="M1240 1160 c-25 -25 -25 -23 0 -88 38 -99 19 -215 -48 -300 -17 -21
-59 -54 -94 -72 -55 -30 -72 -34 -138 -35 -62 0 -86 5 -135 28 l-59 28 -75
-75 c-41 -41 -72 -78 -69 -82 4 -3 37 4 74 16 67 23 68 23 118 4 37 -14 77
-19 146 -19 86 0 101 3 162 32 89 42 160 110 200 191 27 54 33 79 36 152 8
169 -54 284 -118 220z"/>
<path d="M880 1133 c-46 -18 -50 -30 -50 -168 0 -125 1 -133 23 -153 36 -34
70 -27 173 35 100 59 114 74 114 121 0 35 -20 54 -123 115 -80 48 -112 60
-137 50z"/>
</g>
</svg>
