<?xml version="1.0" standalone="no"?>
<!DOCTYPE svg PUBLIC "-//W3C//DTD SVG 20010904//EN"
 "http://www.w3.org/TR/2001/REC-SVG-20010904/DTD/svg10.dtd">
<svg version="1.0" xmlns="http://www.w3.org/2000/svg"
 width="192.000000pt" height="192.000000pt" viewBox="0 0 192.000000 192.000000"
 preserveAspectRatio="xMidYMid meet">
<metadata>
Created by potrace 1.16, written by Peter Selinger 2001-2019
</metadata>
<g transform="translate(0.000000,192.000000) scale(0.100000,-0.100000)"
fill="#000000" stroke="none">
811 c445 -92 729 -532 635 -987 -62 -301 -295 -546 -601 -630 -91 -26 -329
-26 -420 0 -291 80 -516 305 -596 596 -26 91 -26 329 0 420 120 433 542 692
982 601z"/>
<path d="M970 1335 c-20 -10 -35 -11 -65 -3 -48 13 -109 -1 -150 -34 -30 -24
-64 -90 -65 -126 0 -12 -8 -25 -17 -29 -39 -13 -86 -58 -104 -97 -27 -59 -27
-302 0 -361 22 -50 69 -91 119 -105 48 -13 486 -13 534 0 50 14 97 55 119 105
27 59 27 302 0 361 -18 39 -65 84 -103 97 -12 4 -18 17 -18 39 0 53 -37 115
-84 143 -49 29 -124 33 -166 10z m130 -92 c17 -17 30 -40 32 -58 l3 -30 -87
-3 -88 -3 0 34 c0 22 8 41 23 54 44 41 77 42 117 6z m-224 -24 c-3 -17 -6 -40
-6 -50 0 -16 -8 -19 -45 -19 -42 0 -45 2 -45 25 0 34 42 75 76 75 24 0 26 -2
20 -31z m82 -181 c7 -7 12 -21 12 -33 0 -47 -62 -63 -81 -21 -22 47 33 90 69
54z m243 -9 c16 -30 -3 -69 -34 -69 -29 0 -47 17 -47 45 0 45 60 63 81 24z
m-466 -5 c13 -13 15 -40 13 -176 -3 -140 -5 -162 -20 -172 -13 -8 -23 -8 -35
0 -16 10 -18 32 -21 172 -2 136 0 163 13 176 9 9 20 16 25 16 5 0 16 -7 25
-16z"/>
</g>
</svg>
