<?xml version="1.0" standalone="no"?>
<!DOCTYPE svg PUBLIC "-//W3C//DTD SVG 20010904//EN"
 "http://www.w3.org/TR/2001/REC-SVG-20010904/DTD/svg10.dtd">
<svg version="1.0" xmlns="http://www.w3.org/2000/svg"
 width="192.000000pt" height="192.000000pt" viewBox="0 0 192.000000 192.000000"
 preserveAspectRatio="xMidYMid meet">
<metadata>
Created by potrace 1.16, written by Peter Selinger 2001-2019
</metadata>
<g transform="translate(0.000000,192.000000) scale(0.100000,-0.100000)"
fill="#000000" stroke="none">
811 c445 -92 729 -532 635 -987 -62 -301 -295 -546 -601 -630 -91 -26 -329
-26 -420 0 -291 80 -516 305 -596 596 -26 91 -26 329 0 420 120 433 542 692
982 601z"/>
<path d="M718 1330 c-45 -14 -87 -49 -111 -93 -21 -40 -22 -54 -22 -262 0
-121 3 -232 8 -247 9 -35 61 -94 101 -116 27 -15 63 -17 261 -17 198 0 234 2
261 17 40 22 92 81 101 116 5 15 8 126 8 247 0 210 -1 222 -23 262 -12 24 -41
55 -64 70 l-41 28 -226 2 c-124 1 -238 -2 -253 -7z m260 -271 c81 -54 96 -72
88 -103 -8 -32 -129 -116 -168 -116 -50 0 -59 21 -56 133 3 97 4 102 28 114
36 18 41 17 108 -28z"/>
</g>
</svg>
