<?xml version="1.0" standalone="no"?>
<!DOCTYPE svg PUBLIC "-//W3C//DTD SVG 20010904//EN"
 "http://www.w3.org/TR/2001/REC-SVG-20010904/DTD/svg10.dtd">
<svg version="1.0" xmlns="http://www.w3.org/2000/svg"
 width="192.000000pt" height="192.000000pt" viewBox="0 0 192.000000 192.000000"
 preserveAspectRatio="xMidYMid meet">
<metadata>
Created by potrace 1.16, written by Peter Selinger 2001-2019
</metadata>
<g transform="translate(0.000000,192.000000) scale(0.100000,-0.100000)"
fill="#000000" stroke="none">
811 c445 -92 729 -532 635 -987 -62 -301 -295 -546 -601 -630 -91 -26 -329
-26 -420 0 -291 80 -516 305 -596 596 -26 91 -26 329 0 420 120 433 542 692
982 601z"/>
<path d="M755 1376 c-16 -8 -69 -54 -117 -103 -120 -123 -126 -163 -41 -254
l45 -49 -45 -50 c-84 -93 -77 -139 36 -257 45 -47 94 -91 109 -99 58 -30 116
-13 177 50 l35 36 52 -50 c48 -45 57 -50 100 -50 46 0 49 2 145 97 56 55 103
110 109 127 15 46 -3 93 -55 146 l-45 46 45 44 c57 56 72 104 50 156 -8 20
-52 74 -97 120 -119 123 -165 130 -258 38 l-46 -44 -39 41 c-38 39 -89 69
-117 69 -7 -1 -26 -7 -43 -14z m196 -211 c74 -74 140 -135 146 -135 17 0 43
29 43 47 0 8 -29 45 -65 82 l-65 67 38 37 c21 20 47 37 58 37 12 0 53 -33 103
-84 73 -75 81 -87 71 -106 -6 -11 -67 -78 -135 -149 -69 -71 -125 -135 -125
-143 0 -18 20 -38 39 -38 9 0 45 29 82 66 l66 65 41 -45 c23 -25 42 -51 42
-57 0 -19 -162 -179 -181 -179 -10 0 -80 63 -155 140 -76 77 -145 140 -154
140 -22 0 -40 -20 -40 -43 0 -10 30 -50 67 -88 l67 -69 -39 -40 c-22 -22 -46
-40 -54 -40 -19 0 -181 160 -181 178 0 8 63 79 140 159 77 80 140 151 140 158
0 16 -27 45 -42 45 -5 0 -44 -33 -85 -72 l-75 -73 -39 42 c-21 23 -39 49 -39
58 0 25 149 175 175 175 15 0 64 -43 156 -135z"/>
<path d="M896 1021 c-31 -31 -37 -45 -32 -64 6 -27 69 -87 90 -87 15 0 96 84
96 100 0 20 -73 90 -94 90 -12 0 -39 -17 -60 -39z"/>
</g>
</svg>
