<?xml version="1.0" standalone="no"?>
<!DOCTYPE svg PUBLIC "-//W3C//DTD SVG 20010904//EN"
 "http://www.w3.org/TR/2001/REC-SVG-20010904/DTD/svg10.dtd">
<svg version="1.0" xmlns="http://www.w3.org/2000/svg"
 width="192.000000pt" height="192.000000pt" viewBox="0 0 192.000000 192.000000"
 preserveAspectRatio="xMidYMid meet">
<metadata>
Created by potrace 1.16, written by Peter Selinger 2001-2019
</metadata>
<g transform="translate(0.000000,192.000000) scale(0.100000,-0.100000)"
fill="#000000" stroke="none">
811 c445 -92 729 -532 635 -987 -62 -301 -295 -546 -601 -630 -91 -26 -329
-26 -420 0 -291 80 -516 305 -596 596 -26 91 -26 329 0 420 120 433 542 692
982 601z"/>
<path d="M589 1301 l-29 -29 0 -307 0 -307 29 -29 c55 -55 151 -33 171 40 13
47 13 545 0 592 -13 46 -47 69 -100 69 -33 0 -48 -6 -71 -29z"/>
<path d="M837 1300 l-27 -32 0 -303 0 -303 27 -32 26 -32 131 4 c112 3 138 7
179 27 75 37 142 104 179 179 30 60 33 75 33 157 0 82 -3 97 -33 157 -37 75
-104 142 -179 179 -41 20 -67 24 -179 27 l-131 4 -26 -32z"/>
</g>
</svg>
