<?xml version="1.0" standalone="no"?>
<!DOCTYPE svg PUBLIC "-//W3C//DTD SVG 20010904//EN"
 "http://www.w3.org/TR/2001/REC-SVG-20010904/DTD/svg10.dtd">
<svg version="1.0" xmlns="http://www.w3.org/2000/svg"
 width="192.000000pt" height="192.000000pt" viewBox="0 0 192.000000 192.000000"
 preserveAspectRatio="xMidYMid meet">
<metadata>
Created by potrace 1.16, written by Peter Selinger 2001-2019
</metadata>
<g transform="translate(0.000000,192.000000) scale(0.100000,-0.100000)"
fill="#000000" stroke="none">
811 c445 -92 729 -532 635 -987 -62 -301 -295 -546 -601 -630 -91 -26 -329
-26 -420 0 -291 80 -516 305 -596 596 -26 91 -26 329 0 420 120 433 542 692
982 601z"/>
<path d="M730 1178 c-9 -20 3 -55 81 -236 122 -283 112 -283 231 5 49 118 85
219 82 227 -9 23 -53 32 -68 15 -7 -8 -36 -72 -65 -144 -29 -71 -56 -133 -60
-137 -4 -5 -36 58 -72 140 -58 134 -67 147 -91 150 -21 3 -30 -2 -38 -20z"/>
<path d="M558 1089 c-16 -9 -18 -27 -18 -152 0 -147 5 -167 41 -167 28 0 49
28 49 64 0 29 4 34 31 40 17 3 44 19 60 35 23 24 29 38 29 73 0 52 -21 85 -66
104 -39 16 -101 18 -126 3z m105 -91 c6 -19 -3 -38 -19 -38 -8 0 -14 10 -14
25 0 26 25 35 33 13z"/>
<path d="M1136 1084 c-23 -23 -23 -275 0 -298 35 -36 74 -12 74 46 0 21 4 38
8 38 4 0 25 -22 45 -50 38 -51 69 -64 95 -38 19 19 14 37 -18 79 -30 37 -30
39 -15 68 45 88 -17 171 -128 171 -28 0 -52 -6 -61 -16z m112 -102 c3 -17 -2
-22 -17 -22 -16 0 -21 6 -21 26 0 33 33 30 38 -4z"/>
</g>
</svg>
