<?xml version="1.0" standalone="no"?>
<!DOCTYPE svg PUBLIC "-//W3C//DTD SVG 20010904//EN"
 "http://www.w3.org/TR/2001/REC-SVG-20010904/DTD/svg10.dtd">
<svg version="1.0" xmlns="http://www.w3.org/2000/svg"
 width="192.000000pt" height="192.000000pt" viewBox="0 0 192.000000 192.000000"
 preserveAspectRatio="xMidYMid meet">
<metadata>
Created by potrace 1.16, written by Peter Selinger 2001-2019
</metadata>
<g transform="translate(0.000000,192.000000) scale(0.100000,-0.100000)"
fill="#000000" stroke="none">
811 c445 -92 729 -532 635 -987 -62 -301 -295 -546 -601 -630 -91 -26 -329
-26 -420 0 -291 80 -516 305 -596 596 -26 91 -26 329 0 420 120 433 542 692
982 601z"/>
<path d="M823 1361 c-107 -39 -179 -107 -236 -221 -30 -61 -32 -71 -32 -175 0
-103 2 -114 32 -177 81 -171 263 -273 430 -240 298 60 439 395 273 651 -21 32
-43 62 -49 65 -6 4 -30 -13 -53 -38 -52 -53 -118 -76 -224 -76 l-72 0 -11 -44
c-6 -25 -11 -47 -11 -50 0 -3 21 4 46 16 55 24 113 20 153 -10 160 -118 61
-385 -142 -385 -76 0 -140 41 -177 112 -14 27 -7 36 40 48 31 8 37 6 63 -24
24 -28 36 -33 72 -33 35 0 49 6 74 30 55 56 50 144 -10 175 -50 26 -95 16
-135 -32 -21 -24 -21 -24 -57 -7 -21 10 -37 25 -37 33 1 34 58 240 75 269 35
59 93 87 207 101 l63 7 -40 12 c-61 18 -182 14 -242 -7z"/>
<path d="M1015 1300 c-76 -11 -91 -18 -124 -56 -48 -55 -44 -58 74 -51 121 7
176 29 208 85 l19 32 -64 -1 c-34 -1 -86 -5 -113 -9z"/>
</g>
</svg>
