<?xml version="1.0" standalone="no"?>
<!DOCTYPE svg PUBLIC "-//W3C//DTD SVG 20010904//EN"
 "http://www.w3.org/TR/2001/REC-SVG-20010904/DTD/svg10.dtd">
<svg version="1.0" xmlns="http://www.w3.org/2000/svg"
 width="192.000000pt" height="192.000000pt" viewBox="0 0 192.000000 192.000000"
 preserveAspectRatio="xMidYMid meet">
<metadata>
Created by potrace 1.16, written by Peter Selinger 2001-2019
</metadata>
<g transform="translate(0.000000,192.000000) scale(0.100000,-0.100000)"
fill="#000000" stroke="none">
811 c445 -92 729 -532 635 -987 -62 -301 -295 -546 -601 -630 -91 -26 -329
-26 -420 0 -291 80 -516 305 -596 596 -26 91 -26 329 0 420 120 433 542 692
982 601z"/>
<path d="M847 1369 c-204 -48 -342 -269 -298 -480 26 -123 129 -243 251 -291
68 -26 203 -29 267 -5 37 14 43 14 54 1 25 -31 71 -46 121 -42 118 12 171 155
88 238 -21 21 -21 23 -6 84 20 78 20 126 1 201 -55 212 -268 343 -478 294z
m169 -245 c93 -44 117 -181 46 -257 -56 -60 -130 -74 -201 -37 -116 59 -115
236 1 293 42 21 111 21 154 1z m265 -305 c19 -10 19 -11 -3 -51 -36 -63 -156
-163 -174 -145 -17 17 -15 103 4 136 32 59 120 89 173 60z"/>
</g>
</svg>
