<?xml version="1.0" standalone="no"?>
<!DOCTYPE svg PUBLIC "-//W3C//DTD SVG 20010904//EN"
 "http://www.w3.org/TR/2001/REC-SVG-20010904/DTD/svg10.dtd">
<svg version="1.0" xmlns="http://www.w3.org/2000/svg"
 width="192.000000pt" height="192.000000pt" viewBox="0 0 192.000000 192.000000"
 preserveAspectRatio="xMidYMid meet">
<metadata>
Created by potrace 1.16, written by Peter Selinger 2001-2019
</metadata>
<g transform="translate(0.000000,192.000000) scale(0.100000,-0.100000)"
fill="#000000" stroke="none">
811 c445 -92 729 -532 635 -987 -62 -301 -295 -546 -601 -630 -91 -26 -329
-26 -420 0 -291 80 -516 305 -596 596 -26 91 -26 329 0 420 120 433 542 692
982 601z"/>
<path d="M807 1346 c-85 -36 -135 -73 -183 -139 -57 -77 -78 -143 -78 -242 0
-180 99 -320 273 -386 82 -31 223 -24 303 15 87 42 152 105 195 194 36 73 38
80 38 177 0 97 -2 104 -38 177 -43 89 -107 152 -195 194 -48 24 -73 28 -157
31 -88 3 -107 1 -158 -21z m23 -301 c33 -30 43 -78 26 -119 -9 -21 -11 -38 -5
-41 40 -26 -96 -33 -144 -8 -65 33 -67 134 -4 174 38 24 98 20 127 -6z m190 6
c0 -13 -9 -20 -30 -24 -16 -4 -37 -18 -46 -33 -16 -24 -16 -29 -3 -53 8 -14
29 -30 47 -36 44 -13 45 -45 1 -45 -46 0 -99 56 -99 105 0 49 53 105 99 105
24 0 31 -4 31 -19z m103 -23 l24 -42 27 42 c19 30 33 42 50 42 25 0 25 0 -15
-67 -27 -46 -39 -80 -39 -105 0 -31 -4 -38 -20 -38 -16 0 -20 7 -20 38 0 21
-4 42 -8 48 -5 5 -24 35 -41 67 l-32 57 24 0 c19 0 31 -11 50 -42z"/>
<path d="M720 1010 c-11 -11 -20 -31 -20 -45 0 -14 9 -34 20 -45 24 -24 65
-28 57 -6 -4 10 2 16 16 18 31 4 35 50 8 77 -26 26 -55 27 -81 1z"/>
</g>
</svg>
