<?xml version="1.0" standalone="no"?>
<!DOCTYPE svg PUBLIC "-//W3C//DTD SVG 20010904//EN"
 "http://www.w3.org/TR/2001/REC-SVG-20010904/DTD/svg10.dtd">
<svg version="1.0" xmlns="http://www.w3.org/2000/svg"
 width="192.000000pt" height="192.000000pt" viewBox="0 0 192.000000 192.000000"
 preserveAspectRatio="xMidYMid meet">
<metadata>
Created by potrace 1.16, written by Peter Selinger 2001-2019
</metadata>
<g transform="translate(0.000000,192.000000) scale(0.100000,-0.100000)"
fill="#000000" stroke="none">
811 c445 -92 729 -532 635 -987 -62 -301 -295 -546 -601 -630 -91 -26 -329
-26 -420 0 -291 80 -516 305 -596 596 -26 91 -26 329 0 420 120 433 542 692
982 601z"/>
<path d="M845 1367 c-70 -24 -123 -56 -172 -105 -209 -209 -132 -567 146 -673
48 -18 81 -22 236 -24 99 -2 196 -5 215 -7 32 -3 35 0 38 24 4 33 -21 48 -129
77 -88 25 -140 58 -175 111 -35 52 -54 52 -54 0 0 -35 -3 -40 -22 -40 -38 0
-122 45 -152 81 -41 48 -58 95 -59 160 -1 182 184 300 343 219 75 -38 129
-119 130 -192 0 -38 0 -38 -39 -38 -64 0 -62 -29 3 -46 40 -10 91 -65 107
-116 8 -23 19 -43 24 -43 18 0 53 84 65 154 29 174 -65 353 -227 433 -56 27
-78 32 -152 35 -52 2 -102 -2 -126 -10z"/>
<path d="M1177 843 c-6 -10 9 -49 22 -57 16 -10 22 10 11 38 -9 25 -24 34 -33
19z"/>
<path d="M1083 763 c-8 -20 31 -55 52 -46 18 6 19 35 3 51 -17 17 -48 15 -55
-5z"/>
</g>
</svg>
