<?xml version="1.0" standalone="no"?>
<!DOCTYPE svg PUBLIC "-//W3C//DTD SVG 20010904//EN"
 "http://www.w3.org/TR/2001/REC-SVG-20010904/DTD/svg10.dtd">
<svg version="1.0" xmlns="http://www.w3.org/2000/svg"
 width="192.000000pt" height="192.000000pt" viewBox="0 0 192.000000 192.000000"
 preserveAspectRatio="xMidYMid meet">
<metadata>
Created by potrace 1.16, written by Peter Selinger 2001-2019
</metadata>
<g transform="translate(0.000000,192.000000) scale(0.100000,-0.100000)"
fill="#000000" stroke="none">
811 c445 -92 729 -532 635 -987 -62 -301 -295 -546 -601 -630 -91 -26 -329
-26 -420 0 -291 80 -516 305 -596 596 -26 91 -26 329 0 420 120 433 542 692
982 601z"/>
<path d="M826 1350 c-112 -40 -188 -108 -238 -217 -98 -209 10 -466 232 -549
61 -24 211 -24 264 -1 26 12 66 17 125 17 54 0 92 5 99 12 7 7 12 45 12 99 0
47 6 104 14 125 49 142 12 305 -95 415 -72 74 -160 112 -269 116 -67 3 -98 -1
-144 -17z m214 -219 c44 -23 89 -85 97 -134 17 -108 -74 -217 -182 -217 -112
0 -191 88 -183 202 5 66 40 121 99 150 45 24 125 23 169 -1z"/>
</g>
</svg>
