<?xml version="1.0" standalone="no"?>
<!DOCTYPE svg PUBLIC "-//W3C//DTD SVG 20010904//EN"
 "http://www.w3.org/TR/2001/REC-SVG-20010904/DTD/svg10.dtd">
<svg version="1.0" xmlns="http://www.w3.org/2000/svg"
 width="192.000000pt" height="192.000000pt" viewBox="0 0 192.000000 192.000000"
 preserveAspectRatio="xMidYMid meet">
<metadata>
Created by potrace 1.16, written by Peter Selinger 2001-2019
</metadata>
<g transform="translate(0.000000,192.000000) scale(0.100000,-0.100000)"
fill="#000000" stroke="none">
811 c445 -92 729 -532 635 -987 -62 -301 -295 -546 -601 -630 -91 -26 -329
-26 -420 0 -291 80 -516 305 -596 596 -26 91 -26 329 0 420 120 433 542 692
982 601z"/>
<path d="M698 1190 c-78 -23 -139 -92 -153 -173 -15 -79 37 -177 116 -217 29
-15 58 -20 121 -20 l84 0 49 -50 49 -50 73 0 c42 0 75 5 79 11 9 15 -162 187
-203 205 -18 8 -65 14 -106 14 -60 0 -79 4 -101 21 -33 26 -36 79 -6 109 19
19 33 20 255 20 228 0 235 -1 255 -22 27 -30 26 -73 -5 -103 -22 -23 -31 -25
-125 -25 -77 0 -100 -3 -100 -14 0 -7 27 -36 59 -65 56 -48 62 -51 116 -51
119 0 206 86 206 204 0 65 -11 95 -57 145 -57 63 -97 71 -358 70 -122 0 -233
-4 -248 -9z"/>
</g>
</svg>
