<?xml version="1.0" standalone="no"?>
<!DOCTYPE svg PUBLIC "-//W3C//DTD SVG 20010904//EN"
 "http://www.w3.org/TR/2001/REC-SVG-20010904/DTD/svg10.dtd">
<svg version="1.0" xmlns="http://www.w3.org/2000/svg"
 width="192.000000pt" height="192.000000pt" viewBox="0 0 192.000000 192.000000"
 preserveAspectRatio="xMidYMid meet">
<metadata>
Created by potrace 1.16, written by Peter Selinger 2001-2019
</metadata>
<g transform="translate(0.000000,192.000000) scale(0.100000,-0.100000)"
fill="#000000" stroke="none">
811 c445 -92 729 -532 635 -987 -62 -301 -295 -546 -601 -630 -91 -26 -329
-26 -420 0 -291 80 -516 305 -596 596 -26 91 -26 329 0 420 120 433 542 692
982 601z"/>
<path d="M922 1368 c-7 -7 -12 -44 -12 -97 l0 -85 -68 67 c-67 66 -96 79 -120
55 -27 -27 -11 -55 97 -162 84 -84 115 -108 136 -108 29 0 63 29 177 155 65
72 70 80 60 102 -19 42 -50 31 -124 -42 l-68 -67 0 77 c0 43 -5 87 -10 98 -12
21 -50 25 -68 7z"/>
<path d="M612 1198 c-24 -24 -11 -51 55 -119 l66 -69 -81 0 c-85 0 -112 -12
-112 -50 0 -29 31 -40 116 -40 l77 0 -66 -69 c-66 -68 -79 -95 -55 -119 27
-27 55 -11 161 96 141 141 141 134 -1 275 -106 105 -133 122 -160 95z"/>
<path d="M1132 1097 c-62 -63 -112 -122 -112 -132 0 -10 50 -69 112 -132 120
-121 148 -136 170 -88 11 24 7 30 -62 100 l-74 75 85 0 c71 0 89 3 102 18 22
24 21 35 -1 55 -14 13 -38 17 -103 17 l-83 0 74 75 c69 70 73 76 62 100 -22
48 -50 33 -170 -88z"/>
<path d="M940 892 c-8 -2 -63 -52 -122 -110 -107 -105 -123 -133 -96 -160 24
-24 53 -11 120 55 l68 67 0 -85 c0 -90 8 -109 47 -109 32 0 43 28 43 117 l0
77 68 -67 c40 -40 76 -67 89 -67 24 0 46 23 41 44 -5 22 -204 233 -225 238
-10 3 -25 3 -33 0z"/>
</g>
</svg>
