<?xml version="1.0" standalone="no"?>
<!DOCTYPE svg PUBLIC "-//W3C//DTD SVG 20010904//EN"
 "http://www.w3.org/TR/2001/REC-SVG-20010904/DTD/svg10.dtd">
<svg version="1.0" xmlns="http://www.w3.org/2000/svg"
 width="192.000000pt" height="192.000000pt" viewBox="0 0 192.000000 192.000000"
 preserveAspectRatio="xMidYMid meet">
<metadata>
Created by potrace 1.16, written by Peter Selinger 2001-2019
</metadata>
<g transform="translate(0.000000,192.000000) scale(0.100000,-0.100000)"
fill="#000000" stroke="none">
811 c445 -92 729 -532 635 -987 -62 -301 -295 -546 -601 -630 -91 -26 -329
-26 -420 0 -291 80 -516 305 -596 596 -26 91 -26 329 0 420 120 433 542 692
982 601z"/>
<path d="M539 1099 c-13 -26 -5 -106 17 -158 35 -84 118 -131 229 -131 69 0
143 23 159 49 5 7 21 1 47 -16 33 -22 55 -27 122 -31 124 -6 197 34 243 133
28 58 33 145 10 165 -27 21 -58 8 -71 -30 -8 -23 -21 -38 -38 -44 -30 -11 -47
-4 -122 50 -46 33 -53 35 -105 30 -68 -7 -82 -7 -150 0 -54 5 -58 4 -117 -40
-34 -26 -72 -46 -85 -46 -27 0 -58 28 -58 51 0 40 -62 53 -81 18z"/>
</g>
</svg>
