<?xml version="1.0" standalone="no"?>
<!DOCTYPE svg PUBLIC "-//W3C//DTD SVG 20010904//EN"
 "http://www.w3.org/TR/2001/REC-SVG-20010904/DTD/svg10.dtd">
<svg version="1.0" xmlns="http://www.w3.org/2000/svg"
 width="192.000000pt" height="192.000000pt" viewBox="0 0 192.000000 192.000000"
 preserveAspectRatio="xMidYMid meet">
<metadata>
Created by potrace 1.16, written by Peter Selinger 2001-2019
</metadata>
<g transform="translate(0.000000,192.000000) scale(0.100000,-0.100000)"
fill="#000000" stroke="none">
811 c445 -92 729 -532 635 -987 -62 -301 -295 -546 -601 -630 -91 -26 -329
-26 -420 0 -291 80 -516 305 -596 596 -26 91 -26 329 0 420 120 433 542 692
982 601z"/>
<path d="M876 1358 c-57 -15 -128 -90 -155 -161 -21 -59 -29 -171 -12 -181 5
-3 63 -11 131 -18 94 -9 147 -9 235 0 155 16 149 13 142 87 -20 210 -159 321
-341 273z m44 -127 c16 -31 12 -86 -9 -105 -47 -43 -95 45 -55 102 19 27 50
29 64 3z m141 3 c19 -23 16 -80 -6 -104 -10 -11 -22 -20 -27 -20 -18 0 -48 42
-48 68 0 57 51 92 81 56z"/>
<path d="M883 1184 c-7 -18 11 -39 26 -30 17 11 13 46 -4 46 -9 0 -18 -7 -22
-16z"/>
<path d="M995 1180 c-4 -6 6 -7 27 -3 44 8 48 13 10 13 -17 0 -34 -4 -37 -10z"/>
<path d="M647 918 c-36 -97 -50 -208 -27 -208 5 0 22 18 36 40 l27 40 17 -49
c9 -27 28 -65 42 -82 l25 -33 -30 -16 c-39 -19 -44 -36 -15 -43 40 -10 463 -6
478 4 13 8 11 13 -9 29 -13 11 -30 20 -39 20 -13 0 -12 4 5 23 33 35 63 90 63
115 0 30 8 28 46 -15 29 -34 33 -36 40 -19 8 21 -16 142 -41 200 -15 36 -18
38 -53 33 -20 -3 -97 -11 -169 -18 -127 -12 -133 -14 -133 -35 0 -31 -26 -54
-60 -54 -36 0 -60 24 -60 60 0 35 -2 36 -71 45 l-56 7 -16 -44z"/>
</g>
</svg>
