<?xml version="1.0" standalone="no"?>
<!DOCTYPE svg PUBLIC "-//W3C//DTD SVG 20010904//EN"
 "http://www.w3.org/TR/2001/REC-SVG-20010904/DTD/svg10.dtd">
<svg version="1.0" xmlns="http://www.w3.org/2000/svg"
 width="192.000000pt" height="192.000000pt" viewBox="0 0 192.000000 192.000000"
 preserveAspectRatio="xMidYMid meet">
<metadata>
Created by potrace 1.16, written by Peter Selinger 2001-2019
</metadata>
<g transform="translate(0.000000,192.000000) scale(0.100000,-0.100000)"
fill="#000000" stroke="none">
811 c445 -92 729 -532 635 -987 -62 -301 -295 -546 -601 -630 -91 -26 -329
-26 -420 0 -291 80 -516 305 -596 596 -26 91 -26 329 0 420 120 433 542 692
982 601z"/>
<path d="M695 1325 c-37 -17 -54 -31 -83 -69 -41 -54 -37 -58 160 -157 l182
-91 169 83 c93 46 175 91 183 101 14 14 14 19 1 45 -18 35 -52 65 -94 87 -44
22 -471 23 -518 1z"/>
<path d="M592 1081 c-10 -6 -13 -47 -10 -188 3 -171 4 -181 27 -215 13 -19 40
-46 59 -59 35 -23 42 -24 261 -27 244 -4 279 1 332 45 59 50 69 88 69 269 0
136 -3 164 -16 175 -13 11 -41 0 -187 -73 l-172 -86 -165 84 c-91 45 -169 83
-175 83 -5 1 -16 -3 -23 -8z"/>
</g>
</svg>
