<?xml version="1.0" standalone="no"?>
<!DOCTYPE svg PUBLIC "-//W3C//DTD SVG 20010904//EN"
 "http://www.w3.org/TR/2001/REC-SVG-20010904/DTD/svg10.dtd">
<svg version="1.0" xmlns="http://www.w3.org/2000/svg"
 width="192.000000pt" height="192.000000pt" viewBox="0 0 192.000000 192.000000"
 preserveAspectRatio="xMidYMid meet">
<metadata>
Created by potrace 1.16, written by Peter Selinger 2001-2019
</metadata>
<g transform="translate(0.000000,192.000000) scale(0.100000,-0.100000)"
fill="#000000" stroke="none">
810 c245 -63 441 -223 549 -451 55 -116 75 -212 75 -354 0 -141 -20 -238 -75
-352 -86 -182 -215 -312 -396 -398 -116 -55 -212 -75 -354 -75 -142 0 -238 20
-354 75 -228 108 -388 304 -451 549 -28 110 -28 292 0 402 76 298 303 526 600
603 106 28 298 28 406 1z"/>
<path d="M600 1160 l0 -160 160 0 160 0 0 160 0 160 -160 0 -160 0 0 -160z
m258 -3 l3 -98 -98 3 -98 3 -3 84 c-2 46 0 90 2 98 4 11 27 13 98 11 l93 -3 3
-98z"/>
<path d="M730 1160 c0 -27 3 -30 30 -30 27 0 30 3 30 30 0 27 -3 30 -30 30
-27 0 -30 -3 -30 -30z"/>
<path d="M990 1160 l0 -160 160 0 160 0 0 160 0 160 -160 0 -160 0 0 -160z
m255 0 l0 -95 -97 -3 -98 -3 0 94 c0 52 3 97 7 101 4 4 48 5 98 4 l90 -3 0
-95z"/>
<path d="M1120 1160 c0 -27 3 -30 30 -30 27 0 30 3 30 30 0 27 -3 30 -30 30
-27 0 -30 -3 -30 -30z"/>
<path d="M600 770 l0 -160 160 0 160 0 0 160 0 160 -160 0 -160 0 0 -160z
m258 3 l-3 -98 -95 0 -95 0 -3 84 c-2 46 -1 90 2 98 4 9 31 13 101 13 l96 0
-3 -97z"/>
<path d="M730 770 c0 -27 3 -30 30 -30 27 0 30 3 30 30 0 27 -3 30 -30 30 -27
0 -30 -3 -30 -30z"/>
<path d="M990 770 l0 -160 30 0 30 0 0 95 0 95 35 0 c32 0 35 -2 35 -30 l0
-30 95 0 95 0 0 95 0 95 -30 0 c-27 0 -30 -3 -30 -30 0 -28 -3 -30 -35 -30
-32 0 -35 2 -35 30 l0 30 -95 0 -95 0 0 -160z"/>
<path d="M1120 640 c0 -27 3 -30 30 -30 27 0 30 3 30 30 0 27 -3 30 -30 30
-27 0 -30 -3 -30 -30z"/>
<path d="M1250 640 c0 -27 3 -30 30 -30 27 0 30 3 30 30 0 27 -3 30 -30 30
-27 0 -30 -3 -30 -30z"/>
</g>
</svg>
