<?xml version="1.0" standalone="no"?>
<!DOCTYPE svg PUBLIC "-//W3C//DTD SVG 20010904//EN"
 "http://www.w3.org/TR/2001/REC-SVG-20010904/DTD/svg10.dtd">
<svg version="1.0" xmlns="http://www.w3.org/2000/svg"
 width="192.000000pt" height="192.000000pt" viewBox="0 0 192.000000 192.000000"
 preserveAspectRatio="xMidYMid meet">
<metadata>
Created by potrace 1.16, written by Peter Selinger 2001-2019
</metadata>
<g transform="translate(0.000000,192.000000) scale(0.100000,-0.100000)"
fill="#000000" stroke="none">
811 c445 -92 729 -532 635 -987 -62 -301 -295 -546 -601 -630 -91 -26 -329
-26 -420 0 -291 80 -516 305 -596 596 -26 91 -26 329 0 420 120 433 542 692
982 601z"/>
<path d="M870 1359 c-113 -22 -232 -115 -283 -219 -159 -329 160 -684 505
-563 l47 17 -37 16 c-49 22 -91 72 -98 119 -5 34 -8 37 -33 33 -85 -12 -190
64 -209 152 -15 71 2 129 51 181 124 129 337 42 337 -138 0 -45 1 -47 29 -47
41 0 93 -39 118 -89 l23 -44 17 39 c13 29 18 66 18 144 0 99 -2 110 -32 171
-85 172 -268 264 -453 228z"/>
<path d="M1083 870 c-87 -53 -82 -189 8 -236 23 -11 47 -15 83 -11 41 4 55 11
82 40 44 48 52 94 25 149 -11 24 -34 51 -50 61 -39 23 -108 22 -148 -3z"/>
</g>
</svg>
