<?xml version="1.0" standalone="no"?>
<!DOCTYPE svg PUBLIC "-//W3C//DTD SVG 20010904//EN"
 "http://www.w3.org/TR/2001/REC-SVG-20010904/DTD/svg10.dtd">
<svg version="1.0" xmlns="http://www.w3.org/2000/svg"
 width="192.000000pt" height="192.000000pt" viewBox="0 0 192.000000 192.000000"
 preserveAspectRatio="xMidYMid meet">
<metadata>
Created by potrace 1.16, written by Peter Selinger 2001-2019
</metadata>
<g transform="translate(0.000000,192.000000) scale(0.100000,-0.100000)"
fill="#000000" stroke="none">
811 c445 -92 729 -532 635 -987 -62 -301 -295 -546 -601 -630 -91 -26 -329
-26 -420 0 -291 80 -516 305 -596 596 -26 91 -26 329 0 420 120 433 542 692
982 601z"/>
<path d="M887 1370 c-170 -29 -307 -169 -338 -344 -37 -214 114 -426 332 -466
31 -6 130 -9 220 -8 l164 3 5 75 c4 60 10 83 32 115 46 67 61 122 61 220 0
105 -21 168 -83 251 -86 114 -251 178 -393 154z m171 -209 c51 -26 99 -84 113
-136 14 -51 5 -125 -20 -173 -11 -20 -22 -54 -26 -74 l-6 -38 -97 0 c-130 0
-167 12 -222 69 -70 72 -88 156 -49 241 31 70 73 107 149 131 38 12 114 3 158
-20z"/>
</g>
</svg>
