<?xml version="1.0" standalone="no"?>
<!DOCTYPE svg PUBLIC "-//W3C//DTD SVG 20010904//EN"
 "http://www.w3.org/TR/2001/REC-SVG-20010904/DTD/svg10.dtd">
<svg version="1.0" xmlns="http://www.w3.org/2000/svg"
 width="192.000000pt" height="192.000000pt" viewBox="0 0 192.000000 192.000000"
 preserveAspectRatio="xMidYMid meet">
<metadata>
Created by potrace 1.16, written by Peter Selinger 2001-2019
</metadata>
<g transform="translate(0.000000,192.000000) scale(0.100000,-0.100000)"
fill="#000000" stroke="none">
811 c445 -92 729 -532 635 -987 -62 -301 -295 -546 -601 -630 -91 -26 -329
-26 -420 0 -291 80 -516 305 -596 596 -26 91 -26 329 0 420 120 433 542 692
982 601z"/>
<path d="M823 1349 c-113 -36 -221 -140 -260 -251 -12 -36 -18 -80 -17 -138 0
-74 4 -95 31 -153 91 -193 298 -287 500 -227 60 18 62 36 6 92 l-47 48 -71 0
c-58 0 -82 5 -126 28 -155 78 -184 277 -57 399 101 97 277 85 367 -24 40 -48
65 -132 57 -186 -6 -38 -4 -43 41 -89 26 -26 55 -48 65 -48 36 0 63 129 48
223 -40 251 -292 404 -537 326z"/>
<path d="M1029 893 c-32 -31 -59 -64 -59 -73 0 -9 13 -29 29 -44 23 -22 35
-27 56 -22 32 8 109 84 117 114 8 28 -35 82 -64 82 -11 0 -46 -25 -79 -57z"/>
<path d="M1166 830 c-14 -22 -44 -52 -66 -66 -22 -15 -40 -32 -40 -38 0 -15
92 -106 107 -106 21 0 133 115 133 136 0 17 -88 114 -103 114 -2 0 -16 -18
-31 -40z"/>
<path d="M1247 668 c-38 -38 -67 -71 -65 -74 10 -9 171 -34 178 -27 10 12 -21
173 -34 172 -6 -1 -42 -33 -79 -71z"/>
</g>
</svg>
