<?xml version="1.0" standalone="no"?>
<!DOCTYPE svg PUBLIC "-//W3C//DTD SVG 20010904//EN"
 "http://www.w3.org/TR/2001/REC-SVG-20010904/DTD/svg10.dtd">
<svg version="1.0" xmlns="http://www.w3.org/2000/svg"
 width="192.000000pt" height="192.000000pt" viewBox="0 0 192.000000 192.000000"
 preserveAspectRatio="xMidYMid meet">
<metadata>
Created by potrace 1.16, written by Peter Selinger 2001-2019
</metadata>
<g transform="translate(0.000000,192.000000) scale(0.100000,-0.100000)"
fill="#000000" stroke="none">
811 c445 -92 729 -532 635 -987 -62 -301 -295 -546 -601 -630 -91 -26 -329
-26 -420 0 -291 80 -516 305 -596 596 -26 91 -26 329 0 420 120 433 542 692
982 601z"/>
<path d="M695 1321 c-50 -22 -91 -69 -105 -119 -14 -52 -13 -430 2 -473 17
-53 46 -87 91 -112 40 -21 53 -22 272 -22 219 0 232 1 272 22 89 48 103 94
103 347 0 217 -6 258 -47 307 -53 62 -83 69 -328 69 -192 0 -225 -3 -260 -19z
m162 -107 c11 -7 26 -29 33 -49 26 -80 -56 -154 -135 -121 -39 17 -57 45 -57
91 0 85 83 126 159 79z m228 -172 c21 -14 145 -180 155 -206 14 -38 13 -72 -6
-107 -26 -52 -61 -59 -281 -59 -174 0 -203 2 -233 19 -19 10 -39 30 -44 44
-10 28 -1 43 90 140 73 78 88 77 159 -14 57 -70 70 -77 88 -47 8 12 2 28 -26
66 -20 27 -37 53 -37 57 0 9 59 86 79 103 17 13 41 15 56 4z"/>
</g>
</svg>
