<?xml version="1.0" standalone="no"?>
<!DOCTYPE svg PUBLIC "-//W3C//DTD SVG 20010904//EN"
 "http://www.w3.org/TR/2001/REC-SVG-20010904/DTD/svg10.dtd">
<svg version="1.0" xmlns="http://www.w3.org/2000/svg"
 width="192.000000pt" height="192.000000pt" viewBox="0 0 192.000000 192.000000"
 preserveAspectRatio="xMidYMid meet">
<metadata>
Created by potrace 1.16, written by Peter Selinger 2001-2019
</metadata>
<g transform="translate(0.000000,192.000000) scale(0.100000,-0.100000)"
fill="#000000" stroke="none">
811 c445 -92 729 -532 635 -987 -62 -301 -295 -546 -601 -630 -91 -26 -329
-26 -420 0 -291 80 -516 305 -596 596 -26 91 -26 329 0 420 120 433 542 692
982 601z"/>
<path d="M785 1365 c-39 -18 -56 -33 -84 -72 -16 -24 -30 -33 -51 -33 -19 0
-36 -10 -54 -31 l-26 -31 0 -253 c0 -218 2 -254 16 -266 11 -9 20 -10 32 -2
15 9 18 41 22 259 5 227 7 249 23 252 16 3 17 -14 17 -248 0 -189 3 -259 14
-283 17 -42 66 -83 114 -97 48 -13 246 -13 295 1 42 11 103 60 112 90 4 10 15
19 26 19 33 0 76 27 88 57 8 19 11 106 9 278 l-3 250 -30 0 -30 0 -3 -246 c-2
-196 -5 -249 -16 -258 -12 -10 -15 26 -18 241 l-3 253 -27 47 c-44 74 -84 88
-254 88 -98 -1 -148 -5 -169 -15z m314 -119 c20 -18 21 -28 21 -279 0 -228 -2
-263 -17 -279 -14 -16 -33 -18 -146 -18 -107 0 -134 3 -149 17 -17 15 -18 37
-18 278 0 325 -11 306 176 302 94 -2 115 -5 133 -21z"/>
</g>
</svg>
