<?xml version="1.0" standalone="no"?>
<!DOCTYPE svg PUBLIC "-//W3C//DTD SVG 20010904//EN"
 "http://www.w3.org/TR/2001/REC-SVG-20010904/DTD/svg10.dtd">
<svg version="1.0" xmlns="http://www.w3.org/2000/svg"
 width="192.000000pt" height="192.000000pt" viewBox="0 0 192.000000 192.000000"
 preserveAspectRatio="xMidYMid meet">
<metadata>
Created by potrace 1.16, written by Peter Selinger 2001-2019
</metadata>
<g transform="translate(0.000000,192.000000) scale(0.100000,-0.100000)"
fill="#000000" stroke="none">
811 c445 -92 729 -532 635 -987 -62 -301 -295 -546 -601 -630 -91 -26 -329
-26 -420 0 -291 80 -516 305 -596 596 -26 91 -26 329 0 420 120 433 542 692
982 601z"/>
<path d="M549 1231 l-29 -29 0 -236 0 -236 29 -32 29 -33 277 0 277 0 29 33
c25 27 29 41 29 87 0 30 2 55 5 55 3 0 28 -11 55 -25 62 -32 104 -32 124 -3
13 18 16 51 16 155 0 120 -2 135 -20 153 -25 25 -50 25 -98 1 -20 -10 -47 -22
-59 -25 -22 -7 -23 -5 -23 49 0 49 -4 60 -29 86 l-29 29 -277 0 -277 0 -29
-29z m351 -166 l0 -65 30 0 c17 0 30 -5 30 -11 0 -17 -151 -189 -166 -189 -10
0 -14 16 -14 60 0 57 -1 60 -24 60 -14 0 -28 5 -31 10 -8 12 144 198 163 199
8 1 12 -18 12 -64z"/>
</g>
</svg>
