<?xml version="1.0" standalone="no"?>
<!DOCTYPE svg PUBLIC "-//W3C//DTD SVG 20010904//EN"
 "http://www.w3.org/TR/2001/REC-SVG-20010904/DTD/svg10.dtd">
<svg version="1.0" xmlns="http://www.w3.org/2000/svg"
 width="192.000000pt" height="192.000000pt" viewBox="0 0 192.000000 192.000000"
 preserveAspectRatio="xMidYMid meet">
<metadata>
Created by potrace 1.16, written by Peter Selinger 2001-2019
</metadata>
<g transform="translate(0.000000,192.000000) scale(0.100000,-0.100000)"
fill="#000000" stroke="none">
811 c445 -92 729 -532 635 -987 -62 -301 -295 -546 -601 -630 -91 -26 -329
-26 -420 0 -291 80 -516 305 -596 596 -26 91 -26 329 0 420 120 433 542 692
982 601z"/>
<path d="M695 1325 c-44 -24 -86 -65 -101 -102 -11 -24 -14 -88 -14 -255 0
-195 3 -228 19 -263 22 -50 69 -91 119 -105 48 -13 426 -13 475 1 51 14 102
61 122 112 13 36 16 80 13 274 -3 259 -2 252 -82 317 l-38 31 -241 3 c-205 2
-247 0 -272 -13z m396 -125 c37 -20 17 -70 -28 -70 -23 0 -23 0 -23 -145 0
-160 -9 -197 -55 -233 -51 -41 -140 -21 -170 38 -42 82 14 170 110 170 l35 0
0 119 c0 86 3 121 13 124 22 10 98 7 118 -3z"/>
</g>
</svg>
