<?xml version="1.0" standalone="no"?>
<!DOCTYPE svg PUBLIC "-//W3C//DTD SVG 20010904//EN"
 "http://www.w3.org/TR/2001/REC-SVG-20010904/DTD/svg10.dtd">
<svg version="1.0" xmlns="http://www.w3.org/2000/svg"
 width="192.000000pt" height="192.000000pt" viewBox="0 0 192.000000 192.000000"
 preserveAspectRatio="xMidYMid meet">
<metadata>
Created by potrace 1.16, written by Peter Selinger 2001-2019
</metadata>
<g transform="translate(0.000000,192.000000) scale(0.100000,-0.100000)"
fill="#000000" stroke="none">
810 c245 -63 441 -223 549 -451 55 -116 75 -212 75 -354 0 -141 -20 -238 -75
-352 -86 -182 -215 -312 -396 -398 -116 -55 -212 -75 -354 -75 -142 0 -238 20
-354 75 -228 108 -388 304 -451 549 -28 110 -28 292 0 402 76 298 303 526 600
603 106 28 298 28 406 1z"/>
<path d="M895 1306 c-87 -28 -166 -87 -210 -156 -28 -45 -80 -222 -72 -244 6
-14 22 -16 124 -14 l116 3 79 185 c43 102 77 196 75 210 -2 21 -8 25 -37 27
-19 1 -53 -4 -75 -11z"/>
<path d="M1102 1288 c-5 -7 -28 -58 -51 -113 l-42 -100 141 -138 c162 -159
174 -163 203 -82 26 74 19 183 -17 256 -32 64 -101 137 -161 168 -46 24 -59
26 -73 9z"/>
<path d="M956 998 c-8 -13 -22 -42 -31 -66 -26 -63 -13 -74 88 -70 63 2 82 7
91 20 9 15 1 28 -49 78 -33 33 -65 60 -72 60 -7 0 -19 -10 -27 -22z"/>
<path d="M582 808 c-6 -7 -18 -43 -28 -79 -17 -63 -17 -68 -1 -93 l17 -26 259
0 c278 0 301 3 379 55 22 15 43 33 46 41 4 9 -12 35 -40 65 l-47 49 -287 0
c-218 0 -290 -3 -298 -12z"/>
</g>
</svg>
