<?xml version="1.0" standalone="no"?>
<!DOCTYPE svg PUBLIC "-//W3C//DTD SVG 20010904//EN"
 "http://www.w3.org/TR/2001/REC-SVG-20010904/DTD/svg10.dtd">
<svg version="1.0" xmlns="http://www.w3.org/2000/svg"
 width="192.000000pt" height="192.000000pt" viewBox="0 0 192.000000 192.000000"
 preserveAspectRatio="xMidYMid meet">
<metadata>
Created by potrace 1.16, written by Peter Selinger 2001-2019
</metadata>
<g transform="translate(0.000000,192.000000) scale(0.100000,-0.100000)"
fill="#000000" stroke="none">
811 c445 -92 729 -532 635 -987 -62 -301 -295 -546 -601 -630 -91 -26 -329
-26 -420 0 -291 80 -516 305 -596 596 -26 91 -26 329 0 420 120 433 542 692
982 601z"/>
<path d="M835 1347 c-114 -38 -200 -113 -249 -217 -28 -59 -31 -74 -31 -165 0
-92 3 -106 32 -167 40 -85 106 -151 191 -191 62 -29 77 -32 203 -37 129 -5
137 -6 168 -33 18 -15 39 -27 48 -27 21 0 143 120 143 141 0 36 -120 117 -200
134 -19 5 -80 7 -135 7 -87 -2 -105 1 -140 21 -127 72 -122 249 9 308 85 38
177 11 222 -68 23 -39 26 -52 21 -108 -3 -42 -1 -68 7 -74 6 -5 48 -22 94 -37
73 -24 85 -25 98 -13 21 21 37 130 29 194 -15 125 -115 259 -233 312 -69 32
-211 41 -277 20z"/>
</g>
</svg>
