<?xml version="1.0" standalone="no"?>
<!DOCTYPE svg PUBLIC "-//W3C//DTD SVG 20010904//EN"
 "http://www.w3.org/TR/2001/REC-SVG-20010904/DTD/svg10.dtd">
<svg version="1.0" xmlns="http://www.w3.org/2000/svg"
 width="192.000000pt" height="192.000000pt" viewBox="0 0 192.000000 192.000000"
 preserveAspectRatio="xMidYMid meet">
<metadata>
Created by potrace 1.16, written by Peter Selinger 2001-2019
</metadata>
<g transform="translate(0.000000,192.000000) scale(0.100000,-0.100000)"
fill="#000000" stroke="none">
811 c445 -92 729 -532 635 -987 -62 -301 -295 -546 -601 -630 -91 -26 -329
-26 -420 0 -291 80 -516 305 -596 596 -26 91 -26 329 0 420 120 433 542 692
982 601z"/>
<path d="M670 1169 c-121 -49 -173 -199 -107 -312 40 -67 94 -100 172 -105 45
-3 71 1 96 13 19 10 93 75 165 146 136 133 156 145 204 119 28 -15 40 -61 25
-97 -19 -45 -70 -57 -114 -27 -22 16 -24 15 -68 -28 -39 -39 -44 -48 -34 -66
6 -11 31 -30 56 -42 64 -31 156 -25 213 13 54 35 94 105 100 171 3 41 -2 61
-25 106 -39 77 -93 113 -177 118 -92 6 -121 -12 -268 -160 -128 -129 -145
-140 -193 -122 -24 10 -46 60 -39 89 12 50 69 69 123 41 27 -14 29 -14 70 28
37 37 41 47 32 64 -26 49 -160 79 -231 51z"/>
</g>
</svg>
