<?xml version="1.0" standalone="no"?>
<!DOCTYPE svg PUBLIC "-//W3C//DTD SVG 20010904//EN"
 "http://www.w3.org/TR/2001/REC-SVG-20010904/DTD/svg10.dtd">
<svg version="1.0" xmlns="http://www.w3.org/2000/svg"
 width="192.000000pt" height="192.000000pt" viewBox="0 0 192.000000 192.000000"
 preserveAspectRatio="xMidYMid meet">
<metadata>
Created by potrace 1.16, written by Peter Selinger 2001-2019
</metadata>
<g transform="translate(0.000000,192.000000) scale(0.100000,-0.100000)"
fill="#000000" stroke="none">
811 c445 -92 729 -532 635 -987 -62 -301 -295 -546 -601 -630 -91 -26 -329
-26 -420 0 -291 80 -516 305 -596 596 -26 91 -26 329 0 420 120 433 542 692
982 601z"/>
<path d="M851 1365 c-207 -58 -338 -258 -304 -462 56 -324 445 -459 684 -237
91 86 130 175 130 300 0 175 -102 324 -263 386 -70 26 -178 32 -247 13z m241
-83 c70 -31 141 -102 174 -175 23 -51 28 -76 29 -142 0 -71 -4 -88 -33 -147
-38 -77 -92 -130 -171 -166 -82 -38 -192 -37 -278 2 -73 33 -144 103 -176 174
-34 72 -31 207 5 284 41 88 115 152 213 185 57 19 179 11 237 -15z"/>
<path d="M918 1239 c-16 -9 -198 -317 -198 -336 0 -6 8 -17 18 -26 15 -13 39
-17 110 -17 l92 0 0 -69 c0 -74 12 -95 51 -89 17 2 45 42 115 163 51 88 93
165 94 171 0 6 -8 18 -18 27 -14 13 -39 17 -110 17 l-91 0 -3 71 c-2 59 -7 74
-23 85 -14 9 -25 10 -37 3z"/>
</g>
</svg>
