<?xml version="1.0" standalone="no"?>
<!DOCTYPE svg PUBLIC "-//W3C//DTD SVG 20010904//EN"
 "http://www.w3.org/TR/2001/REC-SVG-20010904/DTD/svg10.dtd">
<svg version="1.0" xmlns="http://www.w3.org/2000/svg"
 width="192.000000pt" height="192.000000pt" viewBox="0 0 192.000000 192.000000"
 preserveAspectRatio="xMidYMid meet">
<metadata>
Created by potrace 1.16, written by Peter Selinger 2001-2019
</metadata>
<g transform="translate(0.000000,192.000000) scale(0.100000,-0.100000)"
fill="#000000" stroke="none">
811 c445 -92 729 -532 635 -987 -62 -301 -295 -546 -601 -630 -91 -26 -329
-26 -420 0 -291 80 -516 305 -596 596 -26 91 -26 329 0 420 120 433 542 692
982 601z"/>
<path d="M825 1357 c-60 -20 -102 -44 -145 -83 -161 -145 -172 -393 -25 -552
93 -101 224 -147 348 -122 34 6 74 18 90 26 54 28 55 95 2 130 -24 15 -29 15
-87 -1 -100 -28 -184 -3 -250 75 -133 155 -25 391 178 390 166 -1 274 -147
229 -308 -19 -67 -13 -90 30 -118 79 -51 148 91 123 250 -19 124 -101 234
-215 291 -48 24 -73 29 -148 32 -56 2 -105 -2 -130 -10z"/>
<path d="M1245 731 c-92 -38 -71 -171 27 -171 95 0 123 121 38 165 -32 17 -37
17 -65 6z"/>
</g>
</svg>
