<?xml version="1.0" standalone="no"?>
<!DOCTYPE svg PUBLIC "-//W3C//DTD SVG 20010904//EN"
 "http://www.w3.org/TR/2001/REC-SVG-20010904/DTD/svg10.dtd">
<svg version="1.0" xmlns="http://www.w3.org/2000/svg"
 width="192.000000pt" height="192.000000pt" viewBox="0 0 192.000000 192.000000"
 preserveAspectRatio="xMidYMid meet">
<metadata>
Created by potrace 1.16, written by Peter Selinger 2001-2019
</metadata>
<g transform="translate(0.000000,192.000000) scale(0.100000,-0.100000)"
fill="#000000" stroke="none">
811 c445 -92 729 -532 635 -987 -62 -301 -295 -546 -601 -630 -91 -26 -329
-26 -420 0 -291 80 -516 305 -596 596 -26 91 -26 329 0 420 120 433 542 692
982 601z"/>
<path d="M892 1349 c-115 -19 -228 -105 -284 -214 -37 -71 -48 -183 -29 -271
25 -110 126 -220 244 -267 76 -30 204 -29 275 2 l52 23 45 -41 c50 -46 71 -50
109 -20 35 27 33 60 -6 105 -31 35 -31 36 -14 62 57 88 71 134 71 237 0 88 -3
107 -27 157 -54 116 -169 204 -297 228 -60 11 -65 11 -139 -1z m156 -165 c73
-30 133 -107 145 -188 7 -44 -8 -125 -27 -152 -12 -16 -17 -14 -58 29 -53 55
-85 61 -117 21 -29 -37 -26 -56 15 -105 42 -50 35 -59 -47 -59 -186 0 -292
223 -179 378 56 78 179 113 268 76z"/>
</g>
</svg>
