<?xml version="1.0" standalone="no"?>
<!DOCTYPE svg PUBLIC "-//W3C//DTD SVG 20010904//EN"
 "http://www.w3.org/TR/2001/REC-SVG-20010904/DTD/svg10.dtd">
<svg version="1.0" xmlns="http://www.w3.org/2000/svg"
 width="192.000000pt" height="192.000000pt" viewBox="0 0 192.000000 192.000000"
 preserveAspectRatio="xMidYMid meet">
<metadata>
Created by potrace 1.16, written by Peter Selinger 2001-2019
</metadata>
<g transform="translate(0.000000,192.000000) scale(0.100000,-0.100000)"
fill="#000000" stroke="none">
811 c445 -92 729 -532 635 -987 -62 -301 -295 -546 -601 -630 -91 -26 -329
-26 -420 0 -291 80 -516 305 -596 596 -26 91 -26 329 0 420 120 433 542 692
982 601z"/>
<path d="M856 1369 c-65 -16 -153 -69 -202 -121 -152 -163 -147 -414 11 -573
123 -123 301 -154 460 -81 l51 23 30 -23 c84 -68 184 28 109 105 l-24 26 32
64 c27 56 32 77 35 160 3 80 0 106 -18 153 -44 119 -129 206 -240 249 -62 25
-184 33 -244 18z m212 -175 c63 -31 106 -81 128 -148 18 -53 15 -131 -7 -178
l-12 -27 -35 30 c-38 33 -71 34 -104 1 -31 -31 -32 -66 -4 -99 14 -17 26 -33
26 -36 0 -10 -64 -27 -104 -27 -99 0 -182 51 -228 139 -67 129 -7 299 126 357
54 23 155 18 214 -12z"/>
</g>
</svg>
