<?xml version="1.0" standalone="no"?>
<!DOCTYPE svg PUBLIC "-//W3C//DTD SVG 20010904//EN"
 "http://www.w3.org/TR/2001/REC-SVG-20010904/DTD/svg10.dtd">
<svg version="1.0" xmlns="http://www.w3.org/2000/svg"
 width="192.000000pt" height="192.000000pt" viewBox="0 0 192.000000 192.000000"
 preserveAspectRatio="xMidYMid meet">
<metadata>
Created by potrace 1.16, written by Peter Selinger 2001-2019
</metadata>
<g transform="translate(0.000000,192.000000) scale(0.100000,-0.100000)"
fill="#000000" stroke="none">
811 c445 -92 729 -532 635 -987 -62 -301 -295 -546 -601 -630 -91 -26 -329
-26 -420 0 -291 80 -516 305 -596 596 -26 91 -26 329 0 420 120 433 542 692
982 601z"/>
<path d="M702 1368 c-19 -19 -17 -461 2 -477 11 -9 209 -81 223 -81 2 0 3 112
3 249 l0 249 -97 33 c-54 17 -103 34 -108 36 -6 2 -16 -2 -23 -9z"/>
<path d="M1088 1342 l-108 -36 0 -249 c0 -235 1 -248 18 -243 10 4 63 21 117
39 l100 34 0 243 c0 154 -4 244 -10 246 -5 1 -58 -14 -117 -34z"/>
<path d="M568 1219 c-16 -9 -18 -31 -18 -238 l0 -228 204 -58 205 -57 203 59
203 58 3 219 c2 193 0 221 -14 237 -21 23 -47 24 -68 3 -13 -13 -16 -44 -16
-183 0 -123 -3 -171 -12 -179 -7 -5 -78 -31 -158 -57 l-145 -47 -155 54 -155
53 -3 175 c-2 150 -5 177 -19 188 -20 14 -32 15 -55 1z"/>
<path d="M1155 644 l-110 -31 55 -16 c172 -50 173 -50 168 29 l-3 50 -110 -32z"/>
<path d="M640 620 c0 -37 4 -52 16 -57 14 -5 163 30 192 46 12 7 -160 61 -193
61 -11 0 -15 -12 -15 -50z"/>
</g>
</svg>
