<?xml version="1.0" standalone="no"?>
<!DOCTYPE svg PUBLIC "-//W3C//DTD SVG 20010904//EN"
 "http://www.w3.org/TR/2001/REC-SVG-20010904/DTD/svg10.dtd">
<svg version="1.0" xmlns="http://www.w3.org/2000/svg"
 width="192.000000pt" height="192.000000pt" viewBox="0 0 192.000000 192.000000"
 preserveAspectRatio="xMidYMid meet">
<metadata>
Created by potrace 1.16, written by Peter Selinger 2001-2019
</metadata>
<g transform="translate(0.000000,192.000000) scale(0.100000,-0.100000)"
fill="#000000" stroke="none">
811 c445 -92 729 -532 635 -987 -62 -301 -295 -546 -601 -630 -91 -26 -329
-26 -420 0 -291 80 -516 305 -596 596 -26 91 -26 329 0 420 120 433 542 692
982 601z"/>
<path d="M789 1421 c-16 -16 -29 -39 -29 -51 0 -12 13 -35 29 -51 16 -16 39
-29 51 -29 12 0 35 13 51 29 16 16 29 39 29 51 0 28 -52 80 -80 80 -12 0 -35
-13 -51 -29z"/>
<path d="M1033 1440 c-40 -16 -56 -77 -30 -111 48 -63 137 -36 137 42 0 29 -6
42 -26 58 -29 23 -46 25 -81 11z"/>
<path d="M870 1247 c-235 -66 -309 -370 -130 -531 81 -73 111 -81 328 -84 105
-2 192 0 192 4 0 4 -14 30 -32 57 -28 44 -30 51 -18 71 42 66 54 103 54 176 1
128 -58 226 -169 281 -73 36 -156 46 -225 26z m177 -178 c34 -21 73 -90 73
-130 0 -28 -33 -103 -49 -113 -8 -5 -8 -13 -1 -27 10 -18 7 -19 -67 -19 -91 0
-135 18 -170 70 -33 47 -38 93 -18 145 35 94 143 128 232 74z"/>
</g>
</svg>
