<?xml version="1.0" standalone="no"?>
<!DOCTYPE svg PUBLIC "-//W3C//DTD SVG 20010904//EN"
 "http://www.w3.org/TR/2001/REC-SVG-20010904/DTD/svg10.dtd">
<svg version="1.0" xmlns="http://www.w3.org/2000/svg"
 width="192.000000pt" height="192.000000pt" viewBox="0 0 192.000000 192.000000"
 preserveAspectRatio="xMidYMid meet">
<metadata>
Created by potrace 1.16, written by Peter Selinger 2001-2019
</metadata>
<g transform="translate(0.000000,192.000000) scale(0.100000,-0.100000)"
fill="#000000" stroke="none">
811 c445 -92 729 -532 635 -987 -62 -301 -295 -546 -601 -630 -91 -26 -329
-26 -420 0 -291 80 -516 305 -596 596 -26 91 -26 329 0 420 120 433 542 692
982 601z"/>
<path d="M810 1348 c-76 -29 -98 -43 -88 -53 7 -8 139 44 157 61 26 24 8 22
-69 -8z"/>
<path d="M883 1331 c-50 -15 -130 -46 -177 -69 -76 -36 -86 -44 -86 -67 0 -15
-11 -46 -25 -69 -14 -24 -25 -54 -24 -67 0 -13 -6 -43 -15 -66 -17 -45 -14
-66 15 -98 16 -18 17 -27 8 -59 -14 -52 3 -95 43 -103 22 -4 28 -11 26 -27 -2
-13 3 -22 15 -24 10 -2 29 -14 42 -28 15 -15 36 -24 55 -24 25 0 30 -4 30 -25
0 -16 6 -25 16 -25 12 0 15 6 10 25 -8 30 10 34 19 5 3 -11 13 -27 21 -35 28
-28 58 -17 114 41 32 33 80 68 115 85 59 29 59 29 80 9 28 -26 77 -26 101 1
24 26 23 87 -4 309 -10 89 -15 158 -9 161 10 7 -15 73 -32 83 -13 8 -14 -1
-11 -66 1 -38 -2 -48 -14 -48 -17 0 -32 57 -22 88 7 20 -21 92 -35 92 -14 0
-14 -34 2 -144 16 -109 16 -111 -4 -133 -11 -13 -15 -23 -9 -23 6 0 14 5 18
12 5 8 10 6 15 -8 11 -27 11 -76 0 -69 -5 3 -12 1 -16 -5 -14 -22 -22 -7 -28
48 -4 31 -9 78 -13 105 -6 41 -5 47 10 41 17 -7 20 5 10 44 -9 31 -24 28 -25
-5 -1 -16 -5 -5 -9 22 -4 29 -3 53 3 56 10 7 -20 79 -34 79 -5 0 -9 -20 -9
-44 0 -39 -2 -44 -20 -39 -16 4 -20 0 -20 -21 0 -27 18 -34 36 -16 8 8 14 -15
22 -72 15 -105 15 -109 -2 -102 -8 3 -12 13 -9 25 3 11 0 19 -6 19 -8 0 -11
-14 -9 -37 3 -33 6 -38 26 -36 17 2 22 -2 22 -22 0 -21 -35 -55 -45 -43 -9 10
-21 164 -13 169 10 7 -21 79 -34 79 -4 0 -8 -4 -8 -10 0 -5 0 -12 0 -15 0 -14
-42 -44 -55 -39 -24 10 -17 -19 10 -39 25 -18 25 -18 25 8 0 14 4 25 9 25 10
0 17 -42 27 -150 l7 -74 -69 58 c-91 77 -96 94 -19 62 18 -8 36 -12 39 -8 4 3
3 -8 0 -25 -7 -34 10 -53 29 -34 9 9 9 14 1 19 -6 4 -15 21 -18 38 -4 18 -16
40 -28 50 -29 27 -51 73 -44 97 3 11 -2 34 -11 51 l-16 31 -11 -24 c-7 -17 -6
-38 5 -81 l15 -59 -37 -6 c-34 -6 -46 -1 -113 44 -41 28 -77 55 -80 59 -3 5 9
16 27 24 l32 15 0 -31 c0 -17 5 -31 10 -31 6 0 9 16 7 36 l-3 36 101 37 c91
32 170 46 170 30 0 -3 -16 -24 -35 -47 -52 -61 -43 -81 11 -22 46 51 61 83 50
110 -8 21 -37 18 -143 -14z m-219 -212 c25 -19 25 -22 10 -34 -11 -8 -15 -18
-10 -30 5 -14 -5 -30 -36 -62 -56 -58 -43 -65 17 -8 26 24 52 42 57 39 5 -4 6
10 2 31 l-7 38 32 -24 c17 -12 31 -24 31 -25 0 -7 -105 -101 -131 -118 -16
-10 -36 -15 -44 -12 -31 11 -11 102 29 135 20 17 21 42 1 35 -18 -7 -19 -3 -3
31 14 30 18 31 52 4z m565 -81 c1 -16 -4 -28 -10 -28 -6 0 -8 9 -4 20 3 11 2
20 -4 20 -5 0 -12 -8 -14 -17 -3 -11 -5 -7 -6 10 0 15 5 36 12 47 12 20 12 20
19 -2 3 -13 6 -35 7 -50z m-385 -68 c20 -22 36 -46 36 -53 0 -8 -38 -31 -84
-51 -47 -21 -103 -54 -126 -73 -23 -20 -47 -33 -55 -29 -22 8 -20 82 3 101 9
8 51 44 92 79 41 36 80 65 86 65 7 1 28 -17 48 -39z m379 8 c12 10 16 -6 27
-109 14 -131 12 -139 -37 -139 -29 0 -36 13 -18 36 22 28 19 87 -5 109 -19 17
-21 17 -40 0 -15 -13 -20 -31 -20 -65 l0 -46 -53 -22 c-35 -15 -75 -44 -117
-87 -35 -36 -70 -65 -77 -65 -11 0 -33 29 -33 43 0 3 20 15 45 27 24 12 59 35
76 51 28 26 31 33 25 71 -3 24 -6 53 -6 64 0 12 -10 30 -21 40 -19 17 -21 18
-30 1 -6 -9 -16 -17 -23 -17 -17 0 -27 -25 -20 -44 3 -9 -7 -24 -26 -37 -24
-19 -30 -29 -25 -47 3 -14 0 -34 -10 -48 -32 -50 -135 -16 -135 45 0 37 21 54
110 90 98 40 118 68 88 124 -6 13 10 3 39 -24 27 -26 59 -52 71 -58 19 -10 22
-20 22 -71 0 -33 4 -60 9 -60 10 0 21 49 21 96 0 19 5 34 12 34 19 0 48 32 48
53 0 17 2 18 16 6 20 -16 81 -22 90 -8 7 13 -25 51 -37 43 -5 -3 -6 2 -2 11 4
13 8 14 14 4 6 -10 11 -10 22 -1z m-123 -42 c0 -13 -20 -26 -41 -26 -14 0 -11
28 4 33 23 10 37 7 37 -7z m-131 -183 c-16 -18 -100 -66 -106 -59 -3 3 2 17
11 31 9 14 14 30 10 36 -7 13 24 49 43 49 9 0 12 8 8 28 -3 18 3 11 19 -23 18
-35 22 -53 15 -62z m215 71 c9 -22 -14 -50 -25 -32 -13 20 -10 48 5 48 8 0 17
-7 20 -16z m-508 -121 c-10 -10 -19 5 -10 18 6 11 8 11 12 0 2 -7 1 -15 -2
-18z"/>
<path d="M746 935 c-7 -19 13 -32 51 -33 62 -1 51 41 -11 45 -21 1 -36 -3 -40
-12z"/>
<path d="M710 899 c0 -6 -9 -8 -20 -4 -26 8 -27 -16 -2 -38 24 -22 32 -21 32
3 0 11 5 20 10 20 6 0 10 7 10 15 0 8 -7 15 -15 15 -8 0 -15 -5 -15 -11z"/>
<path d="M624 834 c-8 -31 10 -54 28 -36 10 10 10 15 -1 21 -8 5 -11 16 -8 25
4 9 2 16 -3 16 -5 0 -13 -12 -16 -26z"/>
<path d="M1077 833 c-10 -9 -9 -53 1 -53 5 0 17 6 27 14 17 12 18 15 3 30 -18
18 -22 19 -31 9z"/>
<path d="M790 797 c-61 -30 -81 -55 -52 -64 6 -3 12 2 12 10 0 8 22 24 49 36
46 19 68 37 59 46 -2 2 -33 -11 -68 -28z"/>
<path d="M1227 824 c-14 -14 -8 -64 8 -64 16 0 17 10 6 48 -3 13 -9 20 -14 16z"/>
<path d="M794 746 c-3 -8 -12 -12 -20 -9 -20 8 -17 -14 6 -39 19 -20 20 -20
25 -2 4 10 10 26 15 35 9 17 4 29 -12 29 -5 0 -11 -6 -14 -14z"/>
<path d="M910 769 c0 -24 4 -30 17 -27 22 4 30 38 11 49 -22 15 -28 10 -28
-22z"/>
<path d="M910 1261 c0 -32 14 -48 26 -30 3 6 1 14 -5 18 -6 4 -9 15 -5 24 3
10 1 17 -5 17 -6 0 -11 -13 -11 -29z"/>
<path d="M785 1228 c-8 -32 1 -66 15 -52 5 5 5 25 1 44 l-8 35 -8 -27z"/>
<path d="M1278 1173 c-2 -10 5 -74 14 -143 10 -69 20 -152 24 -185 9 -85 27
-46 22 51 -2 57 0 74 11 74 9 0 11 7 7 23 -3 12 -6 31 -7 42 0 11 -3 14 -6 8
-2 -7 -9 -13 -15 -13 -7 0 -9 17 -5 48 4 38 1 56 -14 80 -22 37 -26 39 -31 15z"/>
<path d="M824 1165 c-4 -10 -13 -13 -24 -10 -29 9 -32 -10 -5 -33 32 -28 35
-27 35 3 0 14 5 25 10 25 6 0 10 7 10 15 0 20 -19 19 -26 0z"/>
<path d="M1160 654 c0 -37 22 -45 28 -9 3 11 0 15 -8 10 -9 -5 -10 -1 -5 14 4
12 2 21 -4 21 -6 0 -11 -16 -11 -36z"/>
<path d="M1106 653 c-5 -12 -9 -14 -18 -5 -16 16 -28 15 -28 0 0 -17 45 -59
54 -51 3 3 6 14 6 24 0 9 5 19 12 21 6 2 8 10 4 16 -10 17 -23 15 -30 -5z"/>
<path d="M1008 616 c-3 -14 -2 -30 2 -37 10 -15 30 -3 30 17 0 9 -5 12 -12 8
-8 -5 -9 0 -6 14 4 12 3 22 -2 22 -4 0 -10 -11 -12 -24z"/>
</g>
</svg>
