<?xml version="1.0" standalone="no"?>
<!DOCTYPE svg PUBLIC "-//W3C//DTD SVG 20010904//EN"
 "http://www.w3.org/TR/2001/REC-SVG-20010904/DTD/svg10.dtd">
<svg version="1.0" xmlns="http://www.w3.org/2000/svg"
 width="192.000000pt" height="192.000000pt" viewBox="0 0 192.000000 192.000000"
 preserveAspectRatio="xMidYMid meet">
<metadata>
Created by potrace 1.16, written by Peter Selinger 2001-2019
</metadata>
<g transform="translate(0.000000,192.000000) scale(0.100000,-0.100000)"
fill="#000000" stroke="none">
811 c445 -92 729 -532 635 -987 -62 -301 -295 -546 -601 -630 -91 -26 -329
-26 -420 0 -291 80 -516 305 -596 596 -26 91 -26 329 0 420 120 433 542 692
982 601z"/>
<path d="M707 1326 c-76 -27 -117 -91 -117 -181 0 -50 3 -57 26 -67 23 -11 29
-10 45 11 12 14 19 39 19 65 1 88 23 96 280 96 242 0 262 -5 280 -68 5 -20 11
-50 12 -66 2 -16 11 -34 21 -40 64 -40 80 123 20 195 -53 62 -83 69 -328 68
-160 0 -230 -4 -258 -13z"/>
<path d="M560 965 c0 -30 5 -55 10 -55 6 0 10 7 10 15 0 19 9 19 32 -2 20 -18
37 -11 20 9 -7 9 -6 18 3 32 22 29 2 56 -40 56 l-35 0 0 -55z m58 17 c2 -7 -6
-12 -17 -12 -21 0 -27 11 -14 24 9 9 26 2 31 -12z"/>
<path d="M679 993 c-18 -48 -22 -83 -10 -83 6 0 11 5 11 10 0 14 33 13 48 -2
21 -21 23 -2 5 47 -21 58 -39 67 -54 28z m31 -23 c0 -5 -5 -10 -11 -10 -5 0
-7 5 -4 10 3 6 8 10 11 10 2 0 4 -4 4 -10z"/>
<path d="M760 966 l0 -56 34 0 c44 0 55 16 47 65 -6 38 -8 40 -44 43 l-37 3 0
-55z m55 24 c3 -5 -1 -10 -9 -10 -9 0 -16 5 -16 10 0 6 4 10 9 10 6 0 13 -4
16 -10z m3 -48 c2 -7 -3 -12 -12 -12 -9 0 -16 7 -16 16 0 17 22 14 28 -4z"/>
<path d="M864 1007 c-3 -8 -4 -32 -2 -53 3 -38 4 -39 43 -39 l40 0 0 50 0 50
-38 3 c-25 2 -39 -1 -43 -11z m61 -42 c0 -23 -4 -30 -20 -30 -21 0 -31 25 -21
51 11 28 41 12 41 -21z"/>
<path d="M970 964 l0 -55 38 3 c36 3 37 4 38 43 1 57 -4 65 -42 65 l-34 0 0
-56z m50 26 c0 -5 -7 -10 -15 -10 -8 0 -15 5 -15 10 0 6 7 10 15 10 8 0 15 -4
15 -10z m5 -40 c3 -6 -1 -13 -10 -16 -19 -8 -30 0 -20 15 8 14 22 14 30 1z"/>
<path d="M1076 970 c-18 -51 -16 -74 6 -52 15 15 48 16 48 2 0 -5 5 -10 10
-10 14 0 12 18 -6 67 -9 24 -22 43 -28 43 -7 0 -20 -23 -30 -50z m31 -2 c-3
-8 -6 -5 -6 6 -1 11 2 17 5 13 3 -3 4 -12 1 -19z"/>
<path d="M1164 1006 c-9 -23 0 -89 13 -93 6 -3 13 8 15 24 l4 28 14 -27 c23
-47 40 -35 40 27 0 59 -17 76 -22 23 l-3 -33 -18 33 c-19 34 -34 41 -43 18z"/>
<path d="M1270 965 c0 -30 5 -55 10 -55 6 0 10 7 10 15 0 19 9 19 32 -2 24
-21 36 -9 15 15 -10 10 -17 22 -17 27 0 5 7 17 17 27 21 24 9 36 -15 15 -23
-21 -32 -21 -32 -2 0 8 -4 15 -10 15 -5 0 -10 -25 -10 -55z"/>
<path d="M608 849 c-22 -13 -25 -104 -4 -152 16 -39 61 -82 99 -96 38 -15 476
-15 514 0 34 13 80 55 99 91 8 15 14 54 14 87 0 50 -3 62 -20 71 -36 19 -56
-2 -63 -67 -5 -46 -11 -63 -32 -80 -25 -22 -32 -23 -256 -23 l-230 0 -24 25
c-19 18 -25 35 -25 70 0 32 -6 51 -20 65 -23 23 -28 24 -52 9z"/>
</g>
</svg>
