<?xml version="1.0" standalone="no"?>
<!DOCTYPE svg PUBLIC "-//W3C//DTD SVG 20010904//EN"
 "http://www.w3.org/TR/2001/REC-SVG-20010904/DTD/svg10.dtd">
<svg version="1.0" xmlns="http://www.w3.org/2000/svg"
 width="192.000000pt" height="192.000000pt" viewBox="0 0 192.000000 192.000000"
 preserveAspectRatio="xMidYMid meet">
<metadata>
Created by potrace 1.16, written by Peter Selinger 2001-2019
</metadata>
<g transform="translate(0.000000,192.000000) scale(0.100000,-0.100000)"
fill="#000000" stroke="none">
811 c445 -92 729 -532 635 -987 -62 -301 -295 -546 -601 -630 -91 -26 -329
-26 -420 0 -291 80 -516 305 -596 596 -26 91 -26 329 0 420 120 433 542 692
982 601z"/>
<path d="M852 1354 c-95 -25 -192 -90 -192 -127 0 -50 42 -61 87 -23 77 64
192 91 290 67 100 -25 198 -118 225 -215 55 -201 -82 -393 -289 -404 -87 -5
-144 12 -212 63 -52 37 -70 42 -89 23 -23 -23 -13 -55 26 -86 156 -123 367
-121 520 5 207 170 182 512 -49 650 -99 59 -211 76 -317 47z"/>
<path d="M862 1231 c-63 -22 -92 -46 -92 -77 0 -41 33 -48 92 -18 42 22 62 25
109 22 106 -8 171 -76 177 -187 3 -59 0 -71 -26 -112 -55 -86 -171 -115 -263
-65 -54 28 -89 21 -89 -18 0 -52 119 -104 214 -92 63 7 148 48 181 88 54 64
70 107 70 193 0 71 -3 86 -31 135 -37 66 -97 114 -166 135 -67 19 -111 19
-176 -4z"/>
<path d="M556 1148 c-23 -33 -23 -349 0 -372 8 -9 21 -16 27 -16 6 0 80 41
164 91 157 94 172 110 136 141 -27 23 -289 178 -301 178 -6 0 -18 -10 -26 -22z"/>
<path d="M908 1119 c-21 -12 -24 -49 -6 -67 7 -7 28 -12 48 -12 25 0 43 -7 58
-23 48 -51 12 -127 -59 -127 -41 0 -59 -15 -59 -47 0 -46 69 -56 140 -20 83
41 113 141 67 221 -37 65 -138 105 -189 75z"/>
</g>
</svg>
