<?xml version="1.0" standalone="no"?>
<!DOCTYPE svg PUBLIC "-//W3C//DTD SVG 20010904//EN"
 "http://www.w3.org/TR/2001/REC-SVG-20010904/DTD/svg10.dtd">
<svg version="1.0" xmlns="http://www.w3.org/2000/svg"
 width="192.000000pt" height="192.000000pt" viewBox="0 0 192.000000 192.000000"
 preserveAspectRatio="xMidYMid meet">
<metadata>
Created by potrace 1.16, written by Peter Selinger 2001-2019
</metadata>
<g transform="translate(0.000000,192.000000) scale(0.100000,-0.100000)"
fill="#000000" stroke="none">
811 c445 -92 729 -532 635 -987 -62 -301 -295 -546 -601 -630 -91 -26 -329
-26 -420 0 -291 80 -516 305 -596 596 -26 91 -26 329 0 420 120 433 542 692
982 601z"/>
<path d="M1087 1363 c-4 -3 -7 -34 -7 -68 0 -36 -6 -69 -14 -80 -12 -17 -14
-16 -20 18 -12 65 -99 138 -129 108 -8 -8 -8 -14 1 -23 7 -7 12 -36 12 -65 l0
-52 -49 6 c-62 7 -91 0 -131 -33 -67 -57 -100 -164 -100 -323 0 -121 25 -213
69 -255 56 -54 171 -44 306 27 71 38 183 145 210 202 28 58 26 131 -4 174 -20
28 -22 36 -10 39 41 14 105 109 86 129 -3 3 -26 -4 -50 -16 -24 -11 -55 -21
-70 -21 -24 0 -26 2 -17 26 16 42 11 98 -13 144 -23 44 -58 76 -70 63z m-207
-226 c0 -19 -21 -37 -42 -37 -22 0 -23 8 -1 32 19 21 43 24 43 5z m120 -35 c0
-19 -18 -42 -32 -42 -12 0 -9 35 4 48 17 17 28 15 28 -6z m-210 -111 c0 -18
-18 -41 -32 -41 -12 0 -9 45 4 58 14 14 28 6 28 -17z m120 16 c0 -7 -6 -22
-14 -33 -19 -25 -37 -8 -25 24 9 24 39 31 39 9z m130 -41 c0 -7 -9 -21 -19
-30 -26 -24 -38 -3 -16 30 16 24 35 25 35 0z m118 -43 c-4 -34 -28 -43 -28
-10 0 25 7 37 22 37 5 0 8 -12 6 -27z m-358 -42 c0 -24 -27 -48 -40 -35 -6 6
-4 18 6 32 19 27 34 28 34 3z m130 -34 c0 -7 -6 -22 -14 -33 -20 -27 -43 -6
-27 25 13 23 41 29 41 8z m130 -40 c0 -17 -20 -37 -37 -37 -16 0 -17 22 -1 38
16 16 38 15 38 -1z m-270 -76 c0 -18 -18 -41 -32 -41 -12 0 -9 45 4 58 14 14
28 6 28 -17z m130 -34 c0 -17 -20 -37 -37 -37 -16 0 -17 22 -1 38 16 16 38 15
38 -1z"/>
</g>
</svg>
