<?xml version="1.0" standalone="no"?>
<!DOCTYPE svg PUBLIC "-//W3C//DTD SVG 20010904//EN"
 "http://www.w3.org/TR/2001/REC-SVG-20010904/DTD/svg10.dtd">
<svg version="1.0" xmlns="http://www.w3.org/2000/svg"
 width="192.000000pt" height="192.000000pt" viewBox="0 0 192.000000 192.000000"
 preserveAspectRatio="xMidYMid meet">
<metadata>
Created by potrace 1.16, written by Peter Selinger 2001-2019
</metadata>
<g transform="translate(0.000000,192.000000) scale(0.100000,-0.100000)"
fill="#000000" stroke="none">
811 c445 -92 729 -532 635 -987 -62 -301 -295 -546 -601 -630 -91 -26 -329
-26 -420 0 -291 80 -516 305 -596 596 -26 91 -26 329 0 420 120 433 542 692
982 601z"/>
<path d="M872 1275 c-81 -25 -153 -98 -177 -180 l-14 -46 47 7 c74 9 130 -10
183 -65 l46 -48 33 40 c55 65 145 93 214 67 22 -8 26 -16 26 -48 0 -88 -25
-130 -149 -249 l-116 -113 110 0 c61 0 128 5 150 11 78 22 145 115 145 202 0
60 -52 142 -111 172 -18 10 -30 27 -37 57 -39 151 -200 240 -350 193z"/>
<path d="M605 986 c-81 -84 -82 -200 -1 -280 53 -53 98 -66 232 -66 l109 0
-116 113 c-122 118 -149 162 -149 244 0 46 -24 43 -75 -11z"/>
<path d="M720 984 c0 -20 12 -58 26 -84 26 -49 176 -194 188 -183 10 10 7 135
-4 175 -22 77 -89 128 -170 128 -39 0 -40 -1 -40 -36z"/>
<path d="M1075 1006 c-40 -17 -82 -67 -95 -114 -13 -50 -13 -172 1 -172 6 0
43 29 83 66 81 72 126 143 126 198 0 36 0 36 -42 36 -24 -1 -57 -7 -73 -14z"/>
</g>
</svg>
