<?xml version="1.0" standalone="no"?>
<!DOCTYPE svg PUBLIC "-//W3C//DTD SVG 20010904//EN"
 "http://www.w3.org/TR/2001/REC-SVG-20010904/DTD/svg10.dtd">
<svg version="1.0" xmlns="http://www.w3.org/2000/svg"
 width="192.000000pt" height="192.000000pt" viewBox="0 0 192.000000 192.000000"
 preserveAspectRatio="xMidYMid meet">
<metadata>
Created by potrace 1.16, written by Peter Selinger 2001-2019
</metadata>
<g transform="translate(0.000000,192.000000) scale(0.100000,-0.100000)"
fill="#000000" stroke="none">
811 c445 -92 729 -532 635 -987 -62 -301 -295 -546 -601 -630 -91 -26 -329
-26 -420 0 -291 80 -516 305 -596 596 -26 91 -26 329 0 420 120 433 542 692
982 601z"/>
<path d="M892 1369 c-123 -17 -254 -117 -310 -236 -24 -52 -27 -69 -27 -168 0
-99 3 -116 27 -168 77 -163 255 -261 432 -236 128 17 257 115 314 236 24 52
27 69 27 168 0 98 -3 116 -27 167 -78 168 -253 263 -436 237z m143 -74 c157
-41 257 -169 257 -330 0 -161 -100 -289 -257 -330 -74 -19 -86 -19 -160 0
-113 29 -203 110 -241 217 -20 55 -20 171 0 226 38 105 128 187 236 216 71 19
94 19 165 1z"/>
<path d="M863 1242 c-141 -50 -224 -191 -195 -330 49 -231 320 -317 487 -155
115 111 115 305 0 416 -79 77 -194 104 -292 69z m203 -87 c140 -82 144 -288 6
-376 -93 -59 -195 -47 -272 30 -93 94 -93 218 0 311 25 25 61 51 80 57 53 18
134 8 186 -22z"/>
<path d="M874 1111 c-94 -57 -111 -170 -37 -252 66 -73 158 -76 230 -5 82 82
64 209 -38 261 -40 21 -117 19 -155 -4z m54 -143 c-3 -79 -6 -93 -20 -96 -16
-3 -18 6 -18 92 0 90 1 96 20 96 20 0 21 -5 18 -92z m88 67 c4 -15 0 -34 -9
-48 -13 -20 -13 -26 -1 -42 14 -19 19 -57 8 -68 -12 -12 -34 6 -34 28 0 12 -9
30 -20 40 -19 17 -19 18 0 43 11 13 20 32 20 42 0 37 27 41 36 5z"/>
</g>
</svg>
