<?xml version="1.0" standalone="no"?>
<!DOCTYPE svg PUBLIC "-//W3C//DTD SVG 20010904//EN"
 "http://www.w3.org/TR/2001/REC-SVG-20010904/DTD/svg10.dtd">
<svg version="1.0" xmlns="http://www.w3.org/2000/svg"
 width="192.000000pt" height="192.000000pt" viewBox="0 0 192.000000 192.000000"
 preserveAspectRatio="xMidYMid meet">
<metadata>
Created by potrace 1.16, written by Peter Selinger 2001-2019
</metadata>
<g transform="translate(0.000000,192.000000) scale(0.100000,-0.100000)"
fill="#000000" stroke="none">
811 c445 -92 729 -532 635 -987 -62 -301 -295 -546 -601 -630 -91 -26 -329
-26 -420 0 -291 80 -516 305 -596 596 -26 91 -26 329 0 420 120 433 542 692
982 601z"/>
<path d="M695 1321 c-47 -22 -89 -64 -104 -104 -15 -38 -15 -466 0 -504 15
-40 57 -82 104 -104 35 -16 67 -19 260 -19 239 0 272 7 322 61 48 52 53 84 53
314 0 230 -5 262 -53 314 -50 54 -83 61 -322 61 -193 0 -225 -3 -260 -19z
m195 -356 l0 -345 -67 0 c-102 1 -175 41 -202 113 -7 17 -11 112 -11 232 0
120 4 215 11 232 27 72 100 112 202 113 l67 0 0 -345z m119 51 c16 -19 4 -44
-22 -48 -15 -2 -21 -9 -19 -20 2 -12 -4 -18 -17 -18 -23 0 -36 16 -21 25 13 8
13 55 0 55 -5 0 -10 5 -10 10 0 15 76 12 89 -4z m51 -20 c0 -19 3 -41 6 -50 4
-11 0 -16 -12 -16 -16 0 -19 8 -19 50 0 33 4 50 13 50 7 0 12 -14 12 -34z
m115 -26 c0 -37 -1 -38 -35 -38 -40 0 -60 13 -60 37 0 27 20 40 59 39 35 0 36
-1 36 -38z m55 20 c0 -11 5 -20 10 -20 6 0 10 8 8 17 -2 10 4 19 15 21 20 4
22 -14 3 -47 -8 -14 -12 -31 -9 -38 3 -8 -3 -13 -17 -13 -15 0 -20 5 -17 14 3
7 -3 27 -13 44 -19 31 -17 42 7 42 7 0 13 -9 13 -20z"/>
<path d="M830 1025 c0 -9 5 -15 10 -13 12 4 11 16 -1 24 -5 3 -9 -2 -9 -11z"/>
<path d="M630 980 c0 -38 4 -50 15 -50 8 0 15 7 15 17 0 15 1 15 18 0 31 -28
59 -18 30 11 -8 8 -8 15 2 27 19 22 -4 45 -46 45 l-34 0 0 -50z m50 20 c0 -5
-4 -10 -10 -10 -5 0 -10 5 -10 10 0 6 5 10 10 10 6 0 10 -4 10 -10z"/>
<path d="M729 984 c-20 -24 1 -49 45 -51 35 -1 36 0 36 33 0 32 -2 34 -34 34
-18 0 -39 -7 -47 -16z m56 -13 c7 -12 -12 -24 -25 -16 -11 7 -4 25 10 25 5 0
11 -4 15 -9z"/>
<path d="M830 965 c0 -24 5 -35 15 -35 10 0 15 11 15 35 0 24 -5 35 -15 35
-10 0 -15 -11 -15 -35z"/>
<path d="M963 998 c2 -7 7 -13 12 -13 5 0 10 6 13 13 2 6 -4 12 -13 12 -9 0
-15 -6 -12 -12z"/>
<path d="M1110 970 c0 -15 5 -20 18 -18 9 2 17 10 17 18 0 8 -8 16 -17 18 -13
2 -18 -3 -18 -18z"/>
</g>
</svg>
