<?xml version="1.0" standalone="no"?>
<!DOCTYPE svg PUBLIC "-//W3C//DTD SVG 20010904//EN"
 "http://www.w3.org/TR/2001/REC-SVG-20010904/DTD/svg10.dtd">
<svg version="1.0" xmlns="http://www.w3.org/2000/svg"
 width="192.000000pt" height="192.000000pt" viewBox="0 0 192.000000 192.000000"
 preserveAspectRatio="xMidYMid meet">
<metadata>
Created by potrace 1.16, written by Peter Selinger 2001-2019
</metadata>
<g transform="translate(0.000000,192.000000) scale(0.100000,-0.100000)"
fill="#000000" stroke="none">
811 c445 -92 729 -532 635 -987 -62 -301 -295 -546 -601 -630 -91 -26 -329
-26 -420 0 -291 80 -516 305 -596 596 -26 91 -26 329 0 420 120 433 542 692
982 601z"/>
<path d="M772 1378 c-7 -7 -12 -27 -12 -45 0 -25 -4 -33 -18 -33 -21 0 -42
-18 -42 -36 0 -7 12 -26 26 -43 l26 -31 -7 -180 c-5 -129 -11 -180 -20 -180
-6 0 -22 -12 -36 -26 -22 -24 -24 -33 -22 -121 1 -65 5 -99 15 -108 23 -23 81
-33 118 -21 40 13 48 37 52 154 3 72 2 74 -29 103 -57 50 -44 88 62 183 l77
69 36 -37 37 -37 -25 -20 c-64 -53 -100 -91 -100 -108 0 -22 113 -163 138
-172 9 -4 27 -1 38 6 21 13 21 12 27 -48 3 -34 9 -70 12 -79 13 -34 67 -33 80
0 9 24 34 284 34 357 0 33 -5 70 -12 82 -18 32 -167 196 -191 210 -12 7 -29
12 -40 13 -16 0 -15 3 8 21 50 39 22 119 -42 119 -32 0 -72 -36 -72 -64 0 -30
20 -57 53 -71 31 -14 31 -14 -34 -15 -87 0 -104 16 -94 90 9 65 -13 98 -43 68z
m72 -257 c18 -7 16 -10 -13 -42 -20 -21 -31 -27 -27 -16 3 10 6 30 6 43 0 25
4 27 34 15z m258 -306 c3 -59 -4 -58 -38 7 -13 24 -12 28 4 37 28 17 30 14 34
-44z"/>
</g>
</svg>
