<?xml version="1.0" standalone="no"?>
<!DOCTYPE svg PUBLIC "-//W3C//DTD SVG 20010904//EN"
 "http://www.w3.org/TR/2001/REC-SVG-20010904/DTD/svg10.dtd">
<svg version="1.0" xmlns="http://www.w3.org/2000/svg"
 width="192.000000pt" height="192.000000pt" viewBox="0 0 192.000000 192.000000"
 preserveAspectRatio="xMidYMid meet">
<metadata>
Created by potrace 1.16, written by Peter Selinger 2001-2019
</metadata>
<g transform="translate(0.000000,192.000000) scale(0.100000,-0.100000)"
fill="#000000" stroke="none">
811 c445 -92 729 -532 635 -987 -62 -301 -295 -546 -601 -630 -91 -26 -329
-26 -420 0 -291 80 -516 305 -596 596 -26 91 -26 329 0 420 120 433 542 692
982 601z"/>
<path d="M663 1344 c-15 -24 -15 -29 -2 -53 11 -19 24 -27 51 -29 20 -2 44
-12 53 -23 18 -19 17 -19 -23 -19 -48 0 -70 -25 -49 -54 10 -14 27 -16 92 -14
78 3 80 4 83 29 2 21 -6 34 -42 64 -34 28 -46 44 -46 65 0 59 -84 84 -117 34z"/>
<path d="M1147 1352 c-9 -10 -17 -27 -17 -38 0 -11 -20 -40 -45 -64 -34 -34
-45 -51 -43 -70 3 -24 6 -25 84 -28 65 -2 84 0 94 13 22 26 0 49 -49 53 -22 2
-41 6 -41 11 0 17 27 31 62 31 29 0 41 6 55 26 15 24 15 29 2 53 -19 34 -77
41 -102 13z"/>
<path d="M893 1284 c-47 -48 -9 -124 64 -124 43 0 83 37 83 78 0 67 -95 98
-147 46z"/>
<path d="M843 1135 c-17 -7 -36 -22 -42 -34 -7 -11 -11 -82 -11 -170 0 -141 1
-151 23 -175 12 -13 32 -27 45 -31 21 -6 22 -4 22 57 0 85 16 108 75 108 59 0
75 -23 75 -108 0 -61 1 -63 23 -57 12 4 32 17 45 28 21 20 22 28 22 174 0 92
-4 163 -11 175 -6 11 -26 26 -44 34 -44 18 -180 18 -222 -1z"/>
<path d="M910 853 c-20 -25 -21 -37 -18 -145 3 -129 12 -151 64 -150 52 0 64
30 64 161 0 110 -2 119 -23 139 -31 30 -61 28 -87 -5z"/>
</g>
</svg>
