<?xml version="1.0" standalone="no"?>
<!DOCTYPE svg PUBLIC "-//W3C//DTD SVG 20010904//EN"
 "http://www.w3.org/TR/2001/REC-SVG-20010904/DTD/svg10.dtd">
<svg version="1.0" xmlns="http://www.w3.org/2000/svg"
 width="192.000000pt" height="192.000000pt" viewBox="0 0 192.000000 192.000000"
 preserveAspectRatio="xMidYMid meet">
<metadata>
Created by potrace 1.16, written by Peter Selinger 2001-2019
</metadata>
<g transform="translate(0.000000,192.000000) scale(0.100000,-0.100000)"
fill="#000000" stroke="none">
811 c445 -92 729 -532 635 -987 -62 -301 -295 -546 -601 -630 -91 -26 -329
-26 -420 0 -291 80 -516 305 -596 596 -26 91 -26 329 0 420 120 433 542 692
982 601z"/>
<path d="M567 1113 c-4 -3 -7 -34 -7 -69 0 -133 84 -219 227 -230 62 -5 74 -3
126 24 l59 30 42 -24 c54 -30 141 -41 200 -24 55 15 120 69 146 121 26 50 28
166 4 176 -24 9 -47 -9 -56 -42 -16 -61 -67 -61 -149 0 -49 36 -69 45 -103 45
-23 0 -52 -7 -64 -16 -20 -14 -24 -14 -44 0 -12 9 -41 16 -64 16 -34 0 -53 -8
-102 -45 -39 -30 -70 -45 -89 -45 -31 0 -63 26 -63 51 0 29 -44 52 -63 32z"/>
</g>
</svg>
