<?xml version="1.0" standalone="no"?>
<!DOCTYPE svg PUBLIC "-//W3C//DTD SVG 20010904//EN"
 "http://www.w3.org/TR/2001/REC-SVG-20010904/DTD/svg10.dtd">
<svg version="1.0" xmlns="http://www.w3.org/2000/svg"
 width="192.000000pt" height="192.000000pt" viewBox="0 0 192.000000 192.000000"
 preserveAspectRatio="xMidYMid meet">
<metadata>
Created by potrace 1.16, written by Peter Selinger 2001-2019
</metadata>
<g transform="translate(0.000000,192.000000) scale(0.100000,-0.100000)"
fill="#000000" stroke="none">
811 c445 -92 729 -532 635 -987 -62 -301 -295 -546 -601 -630 -91 -26 -329
-26 -420 0 -291 80 -516 305 -596 596 -26 91 -26 329 0 420 120 433 542 692
982 601z"/>
<path d="M920 1373 c-89 -29 -90 -34 -90 -413 0 -352 2 -365 60 -395 52 -27
109 -14 147 35 9 11 12 105 13 363 l0 349 -29 29 c-16 16 -36 29 -44 29 -9 0
-21 2 -29 4 -7 3 -20 2 -28 -1z"/>
<path d="M622 1334 c-26 -18 -52 -65 -52 -94 0 -36 28 -85 59 -103 21 -12 51
-17 105 -17 l76 0 0 115 0 115 -83 0 c-59 0 -89 -5 -105 -16z"/>
<path d="M1080 1235 l0 -115 89 0 c75 0 92 3 116 22 33 26 58 81 50 111 -22
79 -53 97 -170 97 l-85 0 0 -115z"/>
<path d="M633 1060 c-34 -21 -63 -66 -63 -100 0 -34 29 -79 63 -100 24 -15 50
-20 105 -20 l72 0 0 120 0 120 -72 0 c-55 0 -81 -5 -105 -20z"/>
<path d="M1080 959 l0 -121 89 4 c72 2 95 7 118 24 64 48 61 146 -6 191 -29
19 -47 23 -117 23 l-84 0 0 -121z"/>
<path d="M633 790 c-34 -21 -63 -66 -63 -100 0 -34 29 -79 63 -100 24 -15 50
-20 105 -20 l72 0 0 120 0 120 -72 0 c-55 0 -81 -5 -105 -20z"/>
<path d="M1080 691 l0 -121 84 0 c70 0 88 4 117 23 67 45 70 143 6 191 -23 17
-46 22 -118 24 l-89 4 0 -121z"/>
</g>
</svg>
