<?xml version="1.0" standalone="no"?>
<!DOCTYPE svg PUBLIC "-//W3C//DTD SVG 20010904//EN"
 "http://www.w3.org/TR/2001/REC-SVG-20010904/DTD/svg10.dtd">
<svg version="1.0" xmlns="http://www.w3.org/2000/svg"
 width="192.000000pt" height="192.000000pt" viewBox="0 0 192.000000 192.000000"
 preserveAspectRatio="xMidYMid meet">
<metadata>
Created by potrace 1.16, written by Peter Selinger 2001-2019
</metadata>
<g transform="translate(0.000000,192.000000) scale(0.100000,-0.100000)"
fill="#000000" stroke="none">
811 c445 -92 729 -532 635 -987 -62 -301 -295 -546 -601 -630 -91 -26 -329
-26 -420 0 -291 80 -516 305 -596 596 -26 91 -26 329 0 420 120 433 542 692
982 601z"/>
<path d="M470 965 l0 -145 25 0 c24 0 25 3 25 60 0 60 0 60 30 60 28 0 29 -1
32 -57 3 -54 5 -58 28 -58 23 0 25 4 28 58 2 32 -2 64 -7 71 -7 9 -7 16 0 23
5 5 9 37 7 69 l-3 59 -82 3 -83 3 0 -146z m110 65 c0 -27 -3 -30 -30 -30 -25
0 -30 4 -30 23 0 30 7 37 37 37 19 0 23 -5 23 -30z"/>
<path d="M700 965 l0 -145 25 0 c24 0 25 3 25 60 0 60 0 60 30 60 28 0 29 -1
32 -57 3 -54 5 -58 28 -58 l25 0 0 140 0 140 -82 3 -83 3 0 -146z m110 65 c0
-27 -3 -30 -30 -30 -25 0 -30 4 -30 23 0 13 3 27 7 30 3 4 17 7 30 7 19 0 23
-5 23 -30z"/>
<path d="M930 1085 c0 -20 5 -25 25 -25 l25 0 0 -107 c0 -115 6 -137 36 -131
17 3 19 15 22 120 l3 117 27 3 c19 2 27 9 27 23 0 18 -8 20 -82 23 -83 3 -83
3 -83 -23z"/>
<path d="M1160 965 l0 -145 25 0 25 0 0 145 0 145 -25 0 -25 0 0 -145z"/>
<path d="M1277 1103 c-10 -9 -8 -256 2 -271 5 -9 29 -12 82 -10 l74 3 3 143 3
142 -79 0 c-43 0 -82 -3 -85 -7z m111 -135 l3 -88 -31 0 -30 0 0 91 0 90 28
-3 c27 -3 27 -3 30 -90z"/>
</g>
</svg>
