<?xml version="1.0" standalone="no"?>
<!DOCTYPE svg PUBLIC "-//W3C//DTD SVG 20010904//EN"
 "http://www.w3.org/TR/2001/REC-SVG-20010904/DTD/svg10.dtd">
<svg version="1.0" xmlns="http://www.w3.org/2000/svg"
 width="192.000000pt" height="192.000000pt" viewBox="0 0 192.000000 192.000000"
 preserveAspectRatio="xMidYMid meet">
<metadata>
Created by potrace 1.16, written by Peter Selinger 2001-2019
</metadata>
<g transform="translate(0.000000,192.000000) scale(0.100000,-0.100000)"
fill="#000000" stroke="none">
811 c445 -92 729 -532 635 -987 -62 -301 -295 -546 -601 -630 -91 -26 -329
-26 -420 0 -291 80 -516 305 -596 596 -26 91 -26 329 0 420 120 433 542 692
982 601z"/>
<path d="M695 1325 c-47 -25 -83 -65 -101 -110 -13 -35 -15 -80 -12 -267 3
-224 3 -225 30 -265 15 -22 44 -51 65 -64 37 -24 43 -24 278 -24 235 0 241 0
278 24 21 13 50 42 65 64 l27 40 3 231 c3 224 2 232 -20 275 -13 25 -40 59
-61 75 l-39 31 -241 3 c-205 2 -247 0 -272 -13z m13 -271 c8 -14 10 -14 21 0
8 9 22 16 32 16 14 0 19 -7 19 -30 0 -23 -5 -30 -19 -30 -29 0 -40 -21 -43
-85 -3 -57 -4 -60 -30 -63 l-28 -3 0 99 c0 54 3 102 7 105 11 12 32 8 41 -9z
m223 -86 c20 -53 34 -100 31 -103 -3 -3 -15 -5 -27 -5 -17 0 -25 12 -44 71
-12 39 -24 69 -26 67 -2 -2 -14 -33 -27 -68 -18 -51 -28 -66 -46 -68 -33 -5
-32 3 37 181 9 23 16 28 38 25 24 -3 31 -13 64 -100z m113 80 c-28 -89 -42
-122 -48 -108 -3 8 -15 41 -25 73 l-20 57 50 0 c48 0 50 -1 43 -22z m180 -9
c15 -18 26 -43 26 -60 l0 -29 -70 0 c-73 0 -89 -12 -44 -32 20 -9 30 -9 45 0
22 14 63 -1 56 -21 -14 -44 -127 -46 -164 -3 l-22 26 23 57 c13 32 26 66 29
76 5 13 18 17 51 17 37 0 48 -5 70 -31z"/>
<path d="M1128 1019 c-30 -17 -20 -29 22 -29 41 0 49 7 28 28 -14 14 -27 15
-50 1z"/>
</g>
</svg>
