<?xml version="1.0" standalone="no"?>
<!DOCTYPE svg PUBLIC "-//W3C//DTD SVG 20010904//EN"
 "http://www.w3.org/TR/2001/REC-SVG-20010904/DTD/svg10.dtd">
<svg version="1.0" xmlns="http://www.w3.org/2000/svg"
 width="192.000000pt" height="192.000000pt" viewBox="0 0 192.000000 192.000000"
 preserveAspectRatio="xMidYMid meet">
<metadata>
Created by potrace 1.16, written by Peter Selinger 2001-2019
</metadata>
<g transform="translate(0.000000,192.000000) scale(0.100000,-0.100000)"
fill="#000000" stroke="none">
811 c445 -92 729 -532 635 -987 -62 -301 -295 -546 -601 -630 -91 -26 -329
-26 -420 0 -291 80 -516 305 -596 596 -26 91 -26 329 0 420 120 433 542 692
982 601z"/>
<path d="M1290 1316 c-54 -20 -160 -75 -208 -108 -49 -34 -94 -98 -117 -168
-9 -26 -24 -55 -34 -64 -17 -16 -19 -15 -31 15 -34 81 -146 195 -310 317 -31
23 -50 -9 -50 -81 1 -107 48 -176 163 -233 66 -33 64 -30 37 -52 -28 -22 -44
-119 -18 -109 9 3 36 8 60 12 54 8 67 -9 43 -55 -8 -16 -15 -38 -15 -50 0 -18
-4 -20 -34 -15 -19 4 -36 2 -40 -3 -11 -19 6 -43 35 -49 35 -7 45 -19 24 -27
-43 -16 16 -46 78 -38 37 4 47 18 25 40 -9 9 -8 13 5 17 9 4 24 -2 36 -14 46
-46 158 -50 208 -7 l26 23 -34 29 c-71 61 -99 93 -99 113 0 13 6 21 18 21 22
1 40 16 75 62 15 21 60 59 99 85 94 64 128 121 135 231 6 80 -5 123 -30 121
-7 0 -28 -6 -47 -13z"/>
</g>
</svg>
