<?xml version="1.0" standalone="no"?>
<!DOCTYPE svg PUBLIC "-//W3C//DTD SVG 20010904//EN"
 "http://www.w3.org/TR/2001/REC-SVG-20010904/DTD/svg10.dtd">
<svg version="1.0" xmlns="http://www.w3.org/2000/svg"
 width="192.000000pt" height="192.000000pt" viewBox="0 0 192.000000 192.000000"
 preserveAspectRatio="xMidYMid meet">
<metadata>
Created by potrace 1.16, written by Peter Selinger 2001-2019
</metadata>
<g transform="translate(0.000000,192.000000) scale(0.100000,-0.100000)"
fill="#000000" stroke="none">
811 c445 -92 729 -532 635 -987 -62 -301 -295 -546 -601 -630 -91 -26 -329
-26 -420 0 -291 80 -516 305 -596 596 -26 91 -26 329 0 420 120 433 542 692
982 601z"/>
<path d="M695 1321 c-48 -22 -79 -54 -100 -103 -12 -30 -15 -81 -15 -256 0
-210 1 -221 23 -263 13 -24 43 -57 66 -74 l43 -30 243 0 243 0 43 30 c23 17
53 50 66 74 22 42 23 53 23 263 0 233 -5 265 -53 317 -50 54 -83 61 -322 61
-193 0 -225 -3 -260 -19z m506 -64 c63 -42 69 -68 69 -289 0 -130 -4 -199 -11
-204 -16 -10 -69 45 -95 101 l-23 49 20 22 c17 19 20 30 14 64 -4 24 -15 46
-26 53 -10 6 -19 19 -19 29 0 27 -49 78 -75 78 -15 0 -26 8 -30 21 -7 20 -59
49 -90 49 -9 0 -26 -11 -38 -24 -12 -12 -40 -26 -62 -30 -21 -4 -51 -14 -65
-21 -26 -13 -94 -84 -117 -121 -10 -16 -12 -6 -12 56 -1 89 17 133 68 167 33
22 42 23 246 23 204 0 213 -1 246 -23z m-266 -377 l0 -225 -27 -3 -28 -3 0
231 0 231 28 -3 27 -3 0 -225z m-125 -6 l0 -225 -22 3 c-23 3 -23 4 -26 207
-2 179 0 206 14 222 10 11 21 19 26 19 4 0 8 -102 8 -226z m248 -59 c-3 -157
-3 -160 -25 -163 l-23 -3 0 203 1 203 24 -40 c24 -39 25 -45 23 -200z m-370
-67 l-3 -63 -17 26 c-32 45 -34 113 -7 171 l24 52 3 -62 c2 -34 2 -90 0 -124z
m492 -56 c0 -24 -5 -31 -25 -34 -25 -5 -25 -4 -25 59 l0 65 25 -30 c14 -17 25
-42 25 -60z"/>
</g>
</svg>
