<?xml version="1.0" standalone="no"?>
<!DOCTYPE svg PUBLIC "-//W3C//DTD SVG 20010904//EN"
 "http://www.w3.org/TR/2001/REC-SVG-20010904/DTD/svg10.dtd">
<svg version="1.0" xmlns="http://www.w3.org/2000/svg"
 width="192.000000pt" height="192.000000pt" viewBox="0 0 192.000000 192.000000"
 preserveAspectRatio="xMidYMid meet">
<metadata>
Created by potrace 1.16, written by Peter Selinger 2001-2019
</metadata>
<g transform="translate(0.000000,192.000000) scale(0.100000,-0.100000)"
fill="#000000" stroke="none">
811 c445 -92 729 -532 635 -987 -62 -301 -295 -546 -601 -630 -91 -26 -329
-26 -420 0 -291 80 -516 305 -596 596 -26 91 -26 329 0 420 120 433 542 692
982 601z"/>
<path d="M870 1367 c-114 -26 -218 -101 -273 -197 -55 -95 -70 -232 -37 -327
14 -38 45 -52 67 -30 13 13 14 23 3 67 -28 116 14 258 99 332 98 86 249 110
362 57 76 -36 129 -86 165 -156 26 -51 29 -68 29 -148 0 -83 -2 -95 -34 -153
-64 -118 -163 -177 -296 -177 -65 0 -90 5 -135 26 -30 14 -66 35 -80 47 l-25
20 63 59 c34 32 62 63 62 69 0 6 -6 18 -13 29 -22 30 -57 12 -136 -69 l-72
-75 16 -30 c21 -42 111 -107 181 -133 80 -29 198 -29 278 0 112 41 203 130
249 246 29 71 29 211 0 282 -76 193 -280 305 -473 261z"/>
<path d="M1090 1203 c-76 -28 -60 -143 20 -143 56 0 93 86 53 122 -22 19 -53
28 -73 21z"/>
<path d="M754 1186 c-3 -8 2 -26 11 -40 17 -25 40 -33 115 -38 26 -2 38 -10
49 -30 15 -27 15 -28 -42 -80 -31 -30 -57 -59 -57 -66 0 -6 18 -41 40 -77 22
-36 40 -68 40 -70 0 -3 -15 -5 -33 -5 -24 0 -42 -9 -65 -33 -18 -18 -29 -36
-26 -40 4 -4 56 -7 115 -7 99 0 109 2 119 21 10 17 4 33 -39 106 -28 46 -51
88 -51 92 0 3 25 31 55 61 30 30 55 58 55 63 0 15 -71 131 -88 145 -23 18
-191 17 -198 -2z"/>
<path d="M1022 988 c-19 -19 -14 -43 15 -92 43 -72 50 -71 152 22 64 57 65 82
4 82 -26 0 -45 -7 -63 -25 l-27 -26 -17 26 c-18 27 -45 32 -64 13z"/>
</g>
</svg>
