<?xml version="1.0" standalone="no"?>
<!DOCTYPE svg PUBLIC "-//W3C//DTD SVG 20010904//EN"
 "http://www.w3.org/TR/2001/REC-SVG-20010904/DTD/svg10.dtd">
<svg version="1.0" xmlns="http://www.w3.org/2000/svg"
 width="192.000000pt" height="192.000000pt" viewBox="0 0 192.000000 192.000000"
 preserveAspectRatio="xMidYMid meet">
<metadata>
Created by potrace 1.16, written by Peter Selinger 2001-2019
</metadata>
<g transform="translate(0.000000,192.000000) scale(0.100000,-0.100000)"
fill="#000000" stroke="none">
811 c445 -92 729 -532 635 -987 -62 -301 -295 -546 -601 -630 -91 -26 -329
-26 -420 0 -291 80 -516 305 -596 596 -26 91 -26 329 0 420 120 433 542 692
982 601z"/>
<path d="M672 1308 c-9 -9 -12 -79 -12 -255 0 -221 2 -243 18 -251 9 -5 76
-24 148 -43 l131 -33 128 28 c71 15 139 32 152 37 l23 9 0 244 c0 209 -2 247
-16 260 -20 20 -24 20 -168 -8 l-118 -23 -122 23 c-142 27 -148 28 -164 12z
m170 -149 c61 -17 78 -25 78 -40 0 -10 -4 -20 -8 -23 -10 -6 -173 33 -186 45
-13 12 1 39 21 39 9 0 52 -9 95 -21z m76 -137 c4 -27 -13 -28 -106 -6 -78 19
-101 36 -83 57 10 13 24 12 99 -7 74 -19 87 -26 90 -44z m-83 -53 c68 -17 85
-25 85 -40 0 -30 -16 -31 -102 -8 -93 25 -103 31 -95 53 8 20 11 20 112 -5z"/>
<path d="M557 1214 c-4 -4 -7 -117 -7 -250 0 -226 1 -244 18 -253 11 -6 101
-31 201 -56 l183 -46 186 37 c103 20 197 43 210 51 22 13 22 16 22 247 0 213
-2 234 -18 249 -23 21 -27 21 -46 1 -14 -13 -16 -48 -16 -228 l0 -213 -168
-33 -168 -33 -130 32 c-71 17 -146 36 -166 42 l-38 10 -2 222 -3 222 -25 3
c-14 2 -29 0 -33 -4z"/>
</g>
</svg>
