<?xml version="1.0" standalone="no"?>
<!DOCTYPE svg PUBLIC "-//W3C//DTD SVG 20010904//EN"
 "http://www.w3.org/TR/2001/REC-SVG-20010904/DTD/svg10.dtd">
<svg version="1.0" xmlns="http://www.w3.org/2000/svg"
 width="192.000000pt" height="192.000000pt" viewBox="0 0 192.000000 192.000000"
 preserveAspectRatio="xMidYMid meet">
<metadata>
Created by potrace 1.16, written by Peter Selinger 2001-2019
</metadata>
<g transform="translate(0.000000,192.000000) scale(0.100000,-0.100000)"
fill="#000000" stroke="none">
811 c445 -92 729 -532 635 -987 -62 -301 -295 -546 -601 -630 -91 -26 -329
-26 -420 0 -291 80 -516 305 -596 596 -26 91 -26 329 0 420 120 433 542 692
982 601z"/>
<path d="M695 1326 c-45 -19 -93 -72 -105 -114 -7 -24 -10 -121 -8 -268 l3
-231 27 -40 c16 -24 44 -49 70 -62 41 -19 60 -21 272 -21 203 0 231 2 264 19
47 24 77 56 97 103 22 54 22 452 0 506 -20 47 -50 79 -97 103 -33 17 -60 19
-265 19 -166 -1 -236 -4 -258 -14z m117 -118 c11 -9 17 -34 20 -81 4 -59 8
-71 34 -98 56 -56 149 -47 191 17 9 14 19 55 22 91 7 73 26 98 55 74 26 -22
22 -137 -7 -192 -59 -111 -213 -136 -311 -50 -52 46 -86 199 -52 234 21 20 27
21 48 5z"/>
</g>
</svg>
