<?xml version="1.0" standalone="no"?>
<!DOCTYPE svg PUBLIC "-//W3C//DTD SVG 20010904//EN"
 "http://www.w3.org/TR/2001/REC-SVG-20010904/DTD/svg10.dtd">
<svg version="1.0" xmlns="http://www.w3.org/2000/svg"
 width="192.000000pt" height="192.000000pt" viewBox="0 0 192.000000 192.000000"
 preserveAspectRatio="xMidYMid meet">
<metadata>
Created by potrace 1.16, written by Peter Selinger 2001-2019
</metadata>
<g transform="translate(0.000000,192.000000) scale(0.100000,-0.100000)"
fill="#000000" stroke="none">
811 c445 -92 729 -532 635 -987 -62 -301 -295 -546 -601 -630 -91 -26 -329
-26 -420 0 -291 80 -516 305 -596 596 -26 91 -26 329 0 420 120 433 542 692
982 601z"/>
<path d="M660 1360 c-24 -24 -25 -38 -5 -67 14 -20 24 -21 213 -25 171 -3 202
-5 226 -21 75 -50 68 -187 -12 -218 -15 -6 -74 -14 -132 -17 l-105 -7 -2 -60
-3 -60 145 -160 c79 -88 153 -163 163 -166 32 -12 67 12 70 48 3 29 -10 46
-115 160 l-117 128 56 7 c138 17 223 108 222 238 -1 78 -26 133 -81 179 -62
51 -113 61 -320 61 -170 0 -184 -1 -203 -20z"/>
<path d="M668 1189 c-17 -9 -18 -34 -18 -303 0 -271 1 -294 18 -309 24 -22 65
-21 85 1 15 16 17 49 17 260 l0 242 120 0 c115 0 122 1 145 25 14 13 25 29 25
35 0 6 -11 22 -25 35 -24 25 -27 25 -187 25 -92 0 -171 -5 -180 -11z"/>
</g>
</svg>
