<?xml version="1.0" standalone="no"?>
<!DOCTYPE svg PUBLIC "-//W3C//DTD SVG 20010904//EN"
 "http://www.w3.org/TR/2001/REC-SVG-20010904/DTD/svg10.dtd">
<svg version="1.0" xmlns="http://www.w3.org/2000/svg"
 width="192.000000pt" height="192.000000pt" viewBox="0 0 192.000000 192.000000"
 preserveAspectRatio="xMidYMid meet">
<metadata>
Created by potrace 1.16, written by Peter Selinger 2001-2019
</metadata>
<g transform="translate(0.000000,192.000000) scale(0.100000,-0.100000)"
fill="#000000" stroke="none">
811 c445 -92 729 -532 635 -987 -62 -301 -295 -546 -601 -630 -91 -26 -329
-26 -420 0 -291 80 -516 305 -596 596 -26 91 -26 329 0 420 120 433 542 692
982 601z"/>
<path d="M781 1351 c-6 -10 -35 -87 -66 -171 -46 -128 -55 -163 -55 -220 0
-156 128 -290 279 -290 l53 0 -7 -27 c-5 -16 -9 -39 -9 -53 -1 -24 1 -25 70
-28 49 -2 74 1 81 10 6 7 36 85 68 173 48 134 57 171 58 227 0 157 -127 286
-287 290 -25 0 -46 2 -46 3 0 1 6 21 14 43 19 53 8 62 -76 62 -55 0 -69 -3
-77 -19z m240 -266 c90 -47 90 -193 0 -240 -91 -47 -201 19 -201 120 0 101
110 167 201 120z"/>
</g>
</svg>
