<?xml version="1.0" standalone="no"?>
<!DOCTYPE svg PUBLIC "-//W3C//DTD SVG 20010904//EN"
 "http://www.w3.org/TR/2001/REC-SVG-20010904/DTD/svg10.dtd">
<svg version="1.0" xmlns="http://www.w3.org/2000/svg"
 width="192.000000pt" height="192.000000pt" viewBox="0 0 192.000000 192.000000"
 preserveAspectRatio="xMidYMid meet">
<metadata>
Created by potrace 1.16, written by Peter Selinger 2001-2019
</metadata>
<g transform="translate(0.000000,192.000000) scale(0.100000,-0.100000)"
fill="#000000" stroke="none">
811 c445 -92 729 -532 635 -987 -62 -301 -295 -546 -601 -630 -91 -26 -329
-26 -420 0 -291 80 -516 305 -596 596 -26 91 -26 329 0 420 120 433 542 692
982 601z"/>
<path d="M887 1316 c-19 -20 -36 -36 -38 -36 -3 0 -31 -25 -62 -56 -49 -47
-62 -54 -85 -50 -15 3 -34 2 -42 -3 -12 -9 -11 -14 8 -34 28 -30 75 -26 90 9
7 13 23 26 39 29 45 9 77 29 90 55 16 32 41 50 71 50 13 0 32 5 43 11 20 10
20 11 -4 29 -13 10 -36 22 -50 25 -23 6 -33 1 -60 -29z"/>
<path d="M1115 1328 c-22 -5 -61 -20 -88 -34 -26 -13 -57 -24 -70 -24 -13 0
-31 -6 -41 -13 -18 -13 -18 -16 -1 -66 14 -43 23 -55 57 -72 49 -25 64 -20 84
26 13 32 18 35 54 35 29 0 48 -7 74 -30 31 -27 34 -34 29 -70 -4 -30 -2 -40 8
-40 10 -1 9 -4 -3 -11 -12 -6 -19 -24 -20 -47 -1 -37 -1 -37 -5 -5 l-4 33 -30
-16 c-30 -15 -31 -15 -69 25 -25 25 -52 42 -74 46 -21 4 -33 12 -30 19 3 7
-11 19 -30 29 -27 12 -38 26 -47 57 -7 22 -15 40 -19 40 -3 0 -28 -29 -55 -65
-45 -59 -85 -84 -85 -54 0 8 -5 7 -15 -1 -12 -10 -21 -10 -40 -2 -21 10 -27 8
-40 -10 -11 -17 -12 -24 -2 -30 9 -5 7 -8 -4 -8 -19 0 -29 -20 -29 -56 0 -22
2 -24 23 -14 19 10 18 7 -6 -14 -19 -18 -29 -39 -34 -71 -4 -32 -13 -52 -30
-65 -14 -11 -22 -24 -18 -30 8 -13 52 -13 61 1 4 6 20 8 39 5 28 -6 35 -3 40
14 3 11 3 29 0 41 -7 23 12 79 27 79 5 0 17 -4 27 -9 13 -8 35 4 100 55 46 35
91 64 100 64 48 0 55 -78 15 -158 -53 -106 -162 -189 -236 -179 -21 3 -38 1
-38 -4 0 -15 62 -79 91 -95 48 -24 127 -18 184 15 62 36 131 108 156 166 17
38 24 44 59 50 22 4 42 11 46 16 3 5 -6 24 -20 42 -15 19 -26 37 -26 42 0 4
16 -13 35 -39 20 -25 43 -46 52 -46 23 0 83 68 83 95 0 41 -12 57 -62 80 -37
17 -44 24 -30 27 14 4 24 22 33 56 10 41 15 49 26 40 20 -16 46 8 33 32 -5 9
-7 20 -4 22 9 9 -126 128 -146 128 -10 0 -24 2 -32 4 -7 2 -31 -1 -53 -6z
m201 -137 c-13 -12 -20 -10 -53 16 -64 51 -78 70 -63 88 10 12 20 7 71 -37 51
-45 57 -54 45 -67z m-151 99 c3 -6 -4 -10 -17 -10 -13 0 -34 -3 -48 -5 -22 -5
-21 -3 5 9 36 18 52 19 60 6z m-123 -47 c19 -17 24 -43 8 -43 -5 0 -10 7 -10
16 0 9 -9 18 -20 21 -11 3 -20 9 -20 14 0 14 22 10 42 -8z m-294 -198 c-10
-10 -108 -42 -108 -35 0 10 93 50 103 43 5 -3 7 -6 5 -8z m586 -61 c10 -25 7
-54 -5 -54 -6 0 -9 7 -5 15 3 8 -1 21 -9 29 -19 18 -19 26 -1 26 8 0 17 -7 20
-16z m-649 -35 c11 -16 -16 -99 -31 -99 -17 0 -18 35 -3 79 11 32 23 39 34 20z"/>
<path d="M813 928 c-53 -57 -67 -108 -29 -108 34 0 106 84 106 125 0 27 -44
17 -77 -17z"/>
</g>
</svg>
