<?xml version="1.0" standalone="no"?>
<!DOCTYPE svg PUBLIC "-//W3C//DTD SVG 20010904//EN"
 "http://www.w3.org/TR/2001/REC-SVG-20010904/DTD/svg10.dtd">
<svg version="1.0" xmlns="http://www.w3.org/2000/svg"
 width="192.000000pt" height="192.000000pt" viewBox="0 0 192.000000 192.000000"
 preserveAspectRatio="xMidYMid meet">
<metadata>
Created by potrace 1.16, written by Peter Selinger 2001-2019
</metadata>
<g transform="translate(0.000000,192.000000) scale(0.100000,-0.100000)"
fill="#000000" stroke="none">
811 c445 -92 729 -532 635 -987 -62 -301 -295 -546 -601 -630 -91 -26 -329
-26 -420 0 -291 80 -516 305 -596 596 -26 91 -26 329 0 420 120 433 542 692
982 601z"/>
<path d="M641 1300 c-35 -35 -46 -90 -38 -181 9 -105 52 -139 177 -139 138 0
180 41 180 178 0 147 -26 172 -181 172 -106 0 -108 0 -138 -30z m157 -42 c7
-7 12 -25 12 -40 0 -24 4 -28 28 -28 37 0 54 -17 41 -42 -6 -11 -21 -18 -39
-18 -25 0 -29 -4 -32 -32 -2 -28 -7 -33 -28 -33 -21 0 -26 5 -28 33 -3 28 -7
32 -31 32 -16 0 -34 7 -41 15 -18 21 4 45 41 45 25 0 29 4 29 28 0 26 15 52
30 52 3 0 11 -5 18 -12z"/>
<path d="M1034 1296 c-34 -34 -34 -34 -34 -130 0 -114 12 -145 66 -171 29 -14
55 -16 127 -13 88 4 90 5 123 41 34 37 34 37 34 138 l0 101 -34 34 -34 34
-107 0 -107 0 -34 -34z m241 -131 c0 -18 -8 -20 -94 -23 -96 -3 -119 4 -108
33 6 13 22 15 104 13 90 -3 98 -5 98 -23z"/>
<path d="M673 935 c-44 -19 -64 -54 -70 -124 -8 -91 3 -146 38 -181 30 -30 32
-30 138 -30 155 0 181 25 181 172 0 98 -20 141 -75 164 -44 18 -170 18 -212
-1z m84 -107 l23 -21 23 21 c28 26 57 29 57 5 0 -9 -10 -27 -22 -40 l-21 -23
21 -23 c45 -48 12 -78 -40 -37 -25 19 -26 19 -43 0 -23 -25 -55 -26 -55 -2 0
11 9 27 20 37 19 18 19 18 -5 47 -42 49 -6 81 42 36z"/>
<path d="M1062 934 c-50 -26 -62 -59 -62 -170 0 -96 0 -96 34 -130 l34 -34
107 0 107 0 34 34 34 34 0 101 c0 101 0 101 -34 138 -33 37 -34 37 -127 40
-73 3 -101 0 -127 -13z m213 -119 c0 -19 -8 -20 -102 -23 -95 -2 -103 -1 -103
16 0 10 3 22 7 26 4 4 50 5 103 4 87 -3 95 -5 95 -23z m0 -80 c0 -19 -7 -20
-100 -20 -97 0 -100 1 -103 23 -3 23 -3 23 100 20 95 -3 103 -4 103 -23z"/>
</g>
</svg>
