<?xml version="1.0" standalone="no"?>
<!DOCTYPE svg PUBLIC "-//W3C//DTD SVG 20010904//EN"
 "http://www.w3.org/TR/2001/REC-SVG-20010904/DTD/svg10.dtd">
<svg version="1.0" xmlns="http://www.w3.org/2000/svg"
 width="192.000000pt" height="192.000000pt" viewBox="0 0 192.000000 192.000000"
 preserveAspectRatio="xMidYMid meet">
<metadata>
Created by potrace 1.16, written by Peter Selinger 2001-2019
</metadata>
<g transform="translate(0.000000,192.000000) scale(0.100000,-0.100000)"
fill="#000000" stroke="none">
811 c445 -92 729 -532 635 -987 -62 -301 -295 -546 -601 -630 -91 -26 -329
-26 -420 0 -291 80 -516 305 -596 596 -26 91 -26 329 0 420 120 433 542 692
982 601z"/>
<path d="M690 1359 c-48 -20 -88 -59 -105 -103 -14 -36 -16 -72 -13 -207 3
-158 4 -166 32 -224 36 -73 138 -175 227 -228 55 -32 72 -37 124 -37 52 0 69
5 124 37 89 53 191 155 227 228 28 58 29 66 32 227 4 198 -7 237 -79 285 l-42
28 -251 2 c-151 1 -261 -2 -276 -8z m518 -111 c8 -8 12 -61 12 -170 0 -180 -6
-202 -83 -285 -42 -46 -147 -123 -166 -123 -8 0 -11 95 -11 295 l0 295 118 0
c78 0 122 -4 130 -12z"/>
</g>
</svg>
