<?xml version="1.0" standalone="no"?>
<!DOCTYPE svg PUBLIC "-//W3C//DTD SVG 20010904//EN"
 "http://www.w3.org/TR/2001/REC-SVG-20010904/DTD/svg10.dtd">
<svg version="1.0" xmlns="http://www.w3.org/2000/svg"
 width="192.000000pt" height="192.000000pt" viewBox="0 0 192.000000 192.000000"
 preserveAspectRatio="xMidYMid meet">
<metadata>
Created by potrace 1.16, written by Peter Selinger 2001-2019
</metadata>
<g transform="translate(0.000000,192.000000) scale(0.100000,-0.100000)"
fill="#000000" stroke="none">
811 c445 -92 729 -532 635 -987 -62 -301 -295 -546 -601 -630 -91 -26 -329
-26 -420 0 -291 80 -516 305 -596 596 -26 91 -26 329 0 420 120 433 542 692
982 601z"/>
<path d="M733 1178 c-112 -112 -193 -200 -193 -211 0 -41 19 -57 65 -57 l45 0
0 -148 c0 -102 4 -152 12 -160 9 -9 88 -12 295 -12 269 0 283 1 293 19 5 11
10 83 10 160 l0 141 38 0 c50 0 80 29 66 63 -5 13 -95 107 -200 210 -138 135
-197 187 -214 187 -17 0 -76 -52 -217 -192z m217 -159 l0 -20 26 20 c35 27 81
28 89 1 3 -11 3 -24 0 -30 -9 -15 -45 -12 -51 5 -10 26 -34 16 -50 -20 -19
-47 -18 -154 2 -183 l15 -22 -63 0 c-48 1 -59 3 -45 11 15 9 17 26 17 124 0
98 -2 115 -17 124 -14 8 -8 10 30 11 41 0 47 -3 47 -21z"/>
</g>
</svg>
