<?xml version="1.0" standalone="no"?>
<!DOCTYPE svg PUBLIC "-//W3C//DTD SVG 20010904//EN"
 "http://www.w3.org/TR/2001/REC-SVG-20010904/DTD/svg10.dtd">
<svg version="1.0" xmlns="http://www.w3.org/2000/svg"
 width="192.000000pt" height="192.000000pt" viewBox="0 0 192.000000 192.000000"
 preserveAspectRatio="xMidYMid meet">
<metadata>
Created by potrace 1.16, written by Peter Selinger 2001-2019
</metadata>
<g transform="translate(0.000000,192.000000) scale(0.100000,-0.100000)"
fill="#000000" stroke="none">
811 c445 -92 729 -532 635 -987 -62 -301 -295 -546 -601 -630 -91 -26 -329
-26 -420 0 -291 80 -516 305 -596 596 -26 91 -26 329 0 420 120 433 542 692
982 601z"/>
<path d="M791 1366 c-9 -11 -5 -25 20 -68 57 -94 63 -98 144 -98 42 0 77 5 87
13 26 21 90 137 84 152 -8 21 -318 22 -335 1z"/>
<path d="M870 1140 c-11 -20 -110 -422 -110 -445 0 -12 151 -118 187 -132 13
-5 94 41 169 95 l42 30 -54 223 c-30 122 -59 228 -65 236 -8 9 -36 13 -85 13
-62 0 -75 -3 -84 -20z"/>
</g>
</svg>
