<?xml version="1.0" standalone="no"?>
<!DOCTYPE svg PUBLIC "-//W3C//DTD SVG 20010904//EN"
 "http://www.w3.org/TR/2001/REC-SVG-20010904/DTD/svg10.dtd">
<svg version="1.0" xmlns="http://www.w3.org/2000/svg"
 width="192.000000pt" height="192.000000pt" viewBox="0 0 192.000000 192.000000"
 preserveAspectRatio="xMidYMid meet">
<metadata>
Created by potrace 1.16, written by Peter Selinger 2001-2019
</metadata>
<g transform="translate(0.000000,192.000000) scale(0.100000,-0.100000)"
fill="#000000" stroke="none">
811 c445 -92 729 -532 635 -987 -62 -301 -295 -546 -601 -630 -91 -26 -329
-26 -420 0 -291 80 -516 305 -596 596 -26 91 -26 329 0 420 120 433 542 692
982 601z"/>
<path d="M695 1324 c-45 -23 -76 -55 -96 -99 -16 -35 -19 -68 -19 -260 0 -209
1 -223 23 -265 12 -24 39 -58 60 -74 l39 -31 234 -3 c264 -3 297 3 347 69 40
53 47 100 47 304 0 204 -7 251 -47 304 -49 64 -80 71 -333 71 -185 0 -230 -3
-255 -16z m495 -124 c11 -11 20 -29 20 -40 0 -11 -9 -29 -20 -40 -19 -19 -33
-20 -233 -20 -236 0 -257 5 -257 60 0 55 21 60 257 60 200 0 214 -1 233 -20z
m-88 -197 c22 -20 23 -51 1 -75 -14 -16 -34 -18 -198 -18 -197 0 -205 2 -205
55 0 53 8 55 204 55 153 0 182 -2 198 -17z m-232 -183 c31 -16 42 -45 29 -74
-13 -28 -35 -36 -104 -36 -63 0 -95 20 -95 60 0 40 32 60 98 60 29 0 62 -5 72
-10z"/>
</g>
</svg>
