<?xml version="1.0" standalone="no"?>
<!DOCTYPE svg PUBLIC "-//W3C//DTD SVG 20010904//EN"
 "http://www.w3.org/TR/2001/REC-SVG-20010904/DTD/svg10.dtd">
<svg version="1.0" xmlns="http://www.w3.org/2000/svg"
 width="192.000000pt" height="192.000000pt" viewBox="0 0 192.000000 192.000000"
 preserveAspectRatio="xMidYMid meet">
<metadata>
Created by potrace 1.16, written by Peter Selinger 2001-2019
</metadata>
<g transform="translate(0.000000,192.000000) scale(0.100000,-0.100000)"
fill="#000000" stroke="none">
810 c245 -63 441 -223 549 -451 55 -116 75 -212 75 -354 0 -141 -20 -238 -75
-352 -86 -182 -215 -312 -396 -398 -116 -55 -212 -75 -354 -75 -142 0 -238 20
-354 75 -228 108 -388 304 -451 549 -28 110 -28 292 0 402 76 298 303 526 600
603 106 28 298 28 406 1z"/>
<path d="M715 1331 c-66 -16 -126 -74 -144 -138 -14 -49 -14 -407 -1 -455 14
-48 53 -94 101 -118 35 -18 60 -20 270 -20 217 0 236 1 277 21 29 15 54 37 73
67 l29 46 0 228 c0 209 -2 232 -20 268 -24 47 -71 84 -125 99 -44 12 -411 13
-460 2z m489 -82 c52 -41 56 -61 56 -279 0 -225 -7 -256 -62 -290 -30 -18 -50
-20 -251 -20 -236 0 -255 4 -296 56 -34 44 -27 61 13 30 41 -31 70 -33 113 -6
42 25 52 63 28 103 -13 22 -15 32 -7 35 22 7 42 33 42 53 0 11 4 18 10 14 6
-4 6 -15 0 -31 -14 -37 -14 -37 30 -31 45 6 48 0 21 -34 -10 -13 -17 -35 -15
-49 1 -14 3 -29 3 -33 1 -11 119 2 144 15 13 7 25 5 42 -6 14 -9 34 -16 47
-16 l22 0 -22 16 c-12 8 -29 30 -38 47 l-16 32 35 -37 c56 -61 75 -48 24 15
-34 42 -46 68 -57 118 -16 82 -36 114 -112 184 -78 73 -119 93 -156 78 -101
-42 -143 -61 -156 -72 -14 -12 -16 -10 -16 14 0 35 25 78 59 98 22 14 61 17
257 17 220 0 233 -1 258 -21z m-338 -153 c3 -8 4 -22 2 -31 -2 -12 -7 -7 -15
14 -6 18 -7 31 -2 31 5 0 12 -6 15 -14z m183 -180 c0 -14 -2 -16 -6 -6 -12 31
-25 41 -39 29 -17 -14 -18 -5 -3 24 l12 21 18 -23 c11 -13 19 -33 18 -45z
m-282 -140 c-10 -25 -56 -20 -79 10 -14 16 -27 24 -39 21 -15 -4 -19 0 -19 19
0 17 6 24 20 24 11 0 23 6 26 13 3 10 19 1 51 -28 31 -29 44 -48 40 -59z m243
49 c0 -8 -7 -15 -16 -15 -14 0 -14 3 -4 15 7 8 14 15 16 15 2 0 4 -7 4 -15z"/>
<path d="M1027 1184 c-11 -12 3 -24 29 -24 23 0 24 -3 24 -60 0 -33 4 -60 10
-60 6 0 10 26 10 59 0 58 1 60 28 63 15 2 27 8 27 13 0 11 -117 20 -128 9z"/>
<path d="M1200 1170 c0 -14 -9 -38 -20 -55 l-20 -30 0 33 c0 22 -5 32 -15 32
-12 0 -15 -13 -15 -55 0 -69 17 -73 60 -14 39 55 46 78 26 97 -15 15 -16 14
-16 -8z"/>
</g>
</svg>
