<?xml version="1.0" standalone="no"?>
<!DOCTYPE svg PUBLIC "-//W3C//DTD SVG 20010904//EN"
 "http://www.w3.org/TR/2001/REC-SVG-20010904/DTD/svg10.dtd">
<svg version="1.0" xmlns="http://www.w3.org/2000/svg"
 width="192.000000pt" height="192.000000pt" viewBox="0 0 192.000000 192.000000"
 preserveAspectRatio="xMidYMid meet">
<metadata>
Created by potrace 1.16, written by Peter Selinger 2001-2019
</metadata>
<g transform="translate(0.000000,192.000000) scale(0.100000,-0.100000)"
fill="#000000" stroke="none">
811 c445 -92 729 -532 635 -987 -62 -301 -295 -546 -601 -630 -91 -26 -329
-26 -420 0 -291 80 -516 305 -596 596 -26 91 -26 329 0 420 120 433 542 692
982 601z"/>
<path d="M930 1233 c-74 -8 -203 -34 -264 -53 -45 -14 -72 -30 -90 -51 -23
-28 -26 -39 -25 -112 0 -50 9 -115 22 -167 l22 -85 42 1 c33 0 43 -4 51 -21 6
-12 27 -30 48 -40 73 -35 154 19 154 104 0 51 -54 101 -110 101 -35 0 -48 -6
-77 -35 -19 -19 -39 -35 -44 -35 -13 0 -29 69 -36 157 l-6 81 31 16 c106 55
512 99 582 63 35 -18 59 -87 59 -173 1 -67 0 -72 -22 -76 -13 -3 -39 4 -58 14
-18 10 -45 18 -59 18 -25 0 -68 -23 -82 -44 -4 -6 -40 -15 -79 -21 -80 -11
-104 -30 -79 -60 12 -14 26 -16 75 -12 60 6 61 5 74 -24 15 -35 57 -59 102
-59 36 0 99 55 99 88 0 21 18 32 55 32 34 0 50 49 49 145 -2 95 -29 177 -75
221 l-30 29 -147 1 c-81 1 -163 0 -182 -3z m260 -402 c0 -28 -28 -47 -48 -34
-24 15 -27 44 -7 59 22 17 55 1 55 -25z m-380 -12 c9 -15 8 -24 -1 -35 -27
-33 -78 0 -58 38 13 24 46 23 59 -3z"/>
</g>
</svg>
