<?xml version="1.0" standalone="no"?>
<!DOCTYPE svg PUBLIC "-//W3C//DTD SVG 20010904//EN"
 "http://www.w3.org/TR/2001/REC-SVG-20010904/DTD/svg10.dtd">
<svg version="1.0" xmlns="http://www.w3.org/2000/svg"
 width="192.000000pt" height="192.000000pt" viewBox="0 0 192.000000 192.000000"
 preserveAspectRatio="xMidYMid meet">
<metadata>
Created by potrace 1.16, written by Peter Selinger 2001-2019
</metadata>
<g transform="translate(0.000000,192.000000) scale(0.100000,-0.100000)"
fill="#000000" stroke="none">
811 c445 -92 729 -532 635 -987 -62 -301 -295 -546 -601 -630 -91 -26 -329
-26 -420 0 -291 80 -516 305 -596 596 -26 91 -26 329 0 420 120 433 542 692
982 601z"/>
<path d="M983 1367 c-22 -12 -233 -300 -233 -317 0 -6 65 -10 165 -10 103 0
165 -4 165 -10 0 -6 -80 -10 -219 -10 -206 0 -220 -1 -245 -21 -50 -39 -39
-68 97 -257 132 -186 158 -208 206 -181 14 8 79 89 144 179 l119 165 50 5 c56
6 88 34 88 77 0 27 -227 353 -264 378 -25 18 -44 18 -73 2z"/>
</g>
</svg>
