<?xml version="1.0" standalone="no"?>
<!DOCTYPE svg PUBLIC "-//W3C//DTD SVG 20010904//EN"
 "http://www.w3.org/TR/2001/REC-SVG-20010904/DTD/svg10.dtd">
<svg version="1.0" xmlns="http://www.w3.org/2000/svg"
 width="192.000000pt" height="192.000000pt" viewBox="0 0 192.000000 192.000000"
 preserveAspectRatio="xMidYMid meet">
<metadata>
Created by potrace 1.16, written by Peter Selinger 2001-2019
</metadata>
<g transform="translate(0.000000,192.000000) scale(0.100000,-0.100000)"
fill="#000000" stroke="none">
811 c445 -92 729 -532 635 -987 -62 -301 -295 -546 -601 -630 -91 -26 -329
-26 -420 0 -291 80 -516 305 -596 596 -26 91 -26 329 0 420 120 433 542 692
982 601z"/>
<path d="M1127 1379 c-10 -6 -73 -15 -141 -19 -141 -10 -205 -30 -280 -87
-209 -159 -211 -480 -5 -643 97 -76 232 -106 349 -76 123 32 214 107 272 224
31 63 33 73 33 172 0 98 -2 110 -32 171 -29 58 -93 133 -147 172 -17 12 -18
18 -8 47 17 47 0 63 -41 39z m-295 -309 c48 -37 41 -118 -13 -145 -51 -27 -99
-11 -124 41 -14 29 -14 37 -1 68 8 18 22 39 33 45 29 17 78 13 105 -9z m362
-6 c37 -38 36 -86 -4 -126 -27 -26 -36 -30 -68 -25 -76 12 -105 88 -56 146 35
41 89 43 128 5z"/>
</g>
</svg>
