<?xml version="1.0" standalone="no"?>
<!DOCTYPE svg PUBLIC "-//W3C//DTD SVG 20010904//EN"
 "http://www.w3.org/TR/2001/REC-SVG-20010904/DTD/svg10.dtd">
<svg version="1.0" xmlns="http://www.w3.org/2000/svg"
 width="192.000000pt" height="192.000000pt" viewBox="0 0 192.000000 192.000000"
 preserveAspectRatio="xMidYMid meet">
<metadata>
Created by potrace 1.16, written by Peter Selinger 2001-2019
</metadata>
<g transform="translate(0.000000,192.000000) scale(0.100000,-0.100000)"
fill="#000000" stroke="none">
811 c445 -92 729 -532 635 -987 -62 -301 -295 -546 -601 -630 -91 -26 -329
-26 -420 0 -291 80 -516 305 -596 596 -26 91 -26 329 0 420 120 433 542 692
982 601z"/>
<path d="M1057 1350 c-17 -13 -40 -20 -71 -20 -58 0 -76 -23 -76 -101 l0 -57
-37 -7 c-21 -3 -56 -14 -78 -24 -34 -14 -44 -15 -65 -4 -63 33 -154 3 -184
-61 -26 -55 -17 -107 28 -156 17 -18 25 -42 29 -81 10 -104 80 -194 192 -246
53 -25 71 -28 160 -28 91 0 106 3 166 31 115 55 189 155 189 257 0 33 5 49 15
53 25 10 55 69 55 110 0 99 -113 168 -199 120 -20 -11 -31 -10 -80 10 -31 13
-64 24 -73 24 -15 0 -18 9 -18 45 0 25 3 45 8 45 4 0 21 -9 37 -20 38 -25 56
-25 89 1 19 15 26 30 26 54 0 24 -7 39 -26 54 -33 26 -54 26 -87 1z m-191
-385 c19 -29 11 -60 -20 -81 -56 -36 -114 38 -69 88 24 26 69 23 89 -7z m270
0 c20 -31 15 -53 -18 -78 l-28 -21 -27 21 c-34 25 -39 47 -19 78 22 34 70 34
92 0z m-282 -210 c66 -34 136 -34 202 0 59 30 84 32 84 6 0 -43 -136 -98 -210
-85 -93 15 -160 51 -160 85 0 26 25 24 84 -6z"/>
</g>
</svg>
