<?xml version="1.0" standalone="no"?>
<!DOCTYPE svg PUBLIC "-//W3C//DTD SVG 20010904//EN"
 "http://www.w3.org/TR/2001/REC-SVG-20010904/DTD/svg10.dtd">
<svg version="1.0" xmlns="http://www.w3.org/2000/svg"
 width="192.000000pt" height="192.000000pt" viewBox="0 0 192.000000 192.000000"
 preserveAspectRatio="xMidYMid meet">
<metadata>
Created by potrace 1.16, written by Peter Selinger 2001-2019
</metadata>
<g transform="translate(0.000000,192.000000) scale(0.100000,-0.100000)"
fill="#000000" stroke="none">
811 c445 -92 729 -532 635 -987 -62 -301 -295 -546 -601 -630 -91 -26 -329
-26 -420 0 -291 80 -516 305 -596 596 -26 91 -26 329 0 420 120 433 542 692
982 601z"/>
<path d="M622 1354 c-19 -13 -22 -24 -22 -88 0 -78 15 -106 56 -106 30 0 44
20 44 62 l0 38 216 0 216 0 33 -33 c88 -88 29 -217 -98 -217 -27 0 -57 -5 -68
-10 -41 -23 -26 -56 135 -302 l18 -28 -221 0 -221 0 0 63 c0 67 -10 87 -46 87
-44 0 -54 -24 -54 -124 0 -78 3 -96 18 -110 17 -15 52 -16 338 -14 l319 3 9
26 c8 24 -1 42 -82 165 l-90 138 46 21 c96 45 150 138 138 239 -11 93 -71 164
-163 192 -70 21 -490 20 -521 -2z"/>
<path d="M627 1012 c-10 -10 -17 -28 -17 -40 0 -36 37 -52 122 -52 65 0 81 3
98 20 11 11 20 27 20 35 0 8 -9 24 -20 35 -28 28 -178 30 -203 2z"/>
</g>
</svg>
