<?xml version="1.0" standalone="no"?>
<!DOCTYPE svg PUBLIC "-//W3C//DTD SVG 20010904//EN"
 "http://www.w3.org/TR/2001/REC-SVG-20010904/DTD/svg10.dtd">
<svg version="1.0" xmlns="http://www.w3.org/2000/svg"
 width="192.000000pt" height="192.000000pt" viewBox="0 0 192.000000 192.000000"
 preserveAspectRatio="xMidYMid meet">
<metadata>
Created by potrace 1.16, written by Peter Selinger 2001-2019
</metadata>
<g transform="translate(0.000000,192.000000) scale(0.100000,-0.100000)"
fill="#000000" stroke="none">
811 c445 -92 729 -532 635 -987 -62 -301 -295 -546 -601 -630 -91 -26 -329
-26 -420 0 -291 80 -516 305 -596 596 -26 91 -26 329 0 420 120 433 542 692
982 601z"/>
<path d="M707 1325 c-50 -17 -85 -50 -108 -100 -16 -35 -19 -67 -19 -260 0
-245 7 -275 69 -328 49 -41 90 -47 307 -47 253 0 299 14 347 103 21 40 22 53
22 272 0 219 -1 232 -22 272 -25 45 -59 74 -112 91 -51 18 -435 15 -484 -3z
m412 -234 c65 -18 78 -107 20 -140 l-29 -16 36 -30 c25 -21 33 -35 29 -47 -10
-25 -18 -23 -92 22 -77 46 -143 63 -233 58 l-65 -3 -3 -42 c-6 -78 -62 -81
-62 -2 0 50 16 84 47 98 14 7 89 11 189 11 152 0 165 1 162 18 -3 15 -22 17
-196 20 -115 1 -193 6 -193 12 -5 30 -1 36 31 41 48 9 329 9 359 0z"/>
</g>
</svg>
