<?xml version="1.0" standalone="no"?>
<!DOCTYPE svg PUBLIC "-//W3C//DTD SVG 20010904//EN"
 "http://www.w3.org/TR/2001/REC-SVG-20010904/DTD/svg10.dtd">
<svg version="1.0" xmlns="http://www.w3.org/2000/svg"
 width="192.000000pt" height="192.000000pt" viewBox="0 0 192.000000 192.000000"
 preserveAspectRatio="xMidYMid meet">
<metadata>
Created by potrace 1.16, written by Peter Selinger 2001-2019
</metadata>
<g transform="translate(0.000000,192.000000) scale(0.100000,-0.100000)"
fill="#000000" stroke="none">
811 c445 -92 729 -532 635 -987 -62 -301 -295 -546 -601 -630 -91 -26 -329
-26 -420 0 -291 80 -516 305 -596 596 -26 91 -26 329 0 420 120 433 542 692
982 601z"/>
<path d="M922 1364 l-22 -15 0 -384 0 -384 22 -15 c30 -21 44 -20 68 4 19 19
20 33 20 395 0 362 -1 376 -20 395 -24 24 -38 25 -68 4z"/>
<path d="M737 1182 c-15 -16 -17 -47 -17 -219 0 -181 2 -201 18 -216 23 -21
56 -22 76 -1 24 23 24 415 0 438 -21 21 -57 20 -77 -2z"/>
<path d="M1096 1184 c-24 -23 -24 -415 0 -438 21 -21 57 -20 77 2 15 16 17 47
17 219 0 181 -2 201 -18 216 -23 21 -56 22 -76 1z"/>
<path d="M560 1050 c-16 -16 -20 -33 -20 -85 0 -70 20 -105 59 -105 38 0 51
27 51 105 0 65 -3 76 -22 89 -30 21 -44 20 -68 -4z"/>
<path d="M1282 1054 c-19 -13 -22 -24 -22 -89 0 -78 13 -105 51 -105 39 0 59
35 59 105 0 52 -4 69 -20 85 -24 24 -38 25 -68 4z"/>
</g>
</svg>
