<?xml version="1.0" standalone="no"?>
<!DOCTYPE svg PUBLIC "-//W3C//DTD SVG 20010904//EN"
 "http://www.w3.org/TR/2001/REC-SVG-20010904/DTD/svg10.dtd">
<svg version="1.0" xmlns="http://www.w3.org/2000/svg"
 width="192.000000pt" height="192.000000pt" viewBox="0 0 192.000000 192.000000"
 preserveAspectRatio="xMidYMid meet">
<metadata>
Created by potrace 1.16, written by Peter Selinger 2001-2019
</metadata>
<g transform="translate(0.000000,192.000000) scale(0.100000,-0.100000)"
fill="#000000" stroke="none">
811 c445 -92 729 -532 635 -987 -62 -301 -295 -546 -601 -630 -91 -26 -329
-26 -420 0 -291 80 -516 305 -596 596 -26 91 -26 329 0 420 120 433 542 692
982 601z"/>
<path d="M880 1363 c-68 -25 -154 -116 -174 -183 -22 -73 -20 -116 4 -140 44
-44 89 -17 101 60 30 193 289 218 350 33 21 -65 -10 -160 -65 -197 -24 -15
-24 -15 -73 67 -45 76 -51 82 -85 85 -33 3 -39 -1 -65 -40 -74 -109 -253 -418
-253 -437 0 -26 34 -61 58 -61 30 1 45 21 141 180 52 85 100 161 106 169 11
11 32 -19 116 -159 110 -184 131 -204 175 -176 43 29 40 50 -21 152 l-57 95
52 50 c70 67 95 124 95 219 0 120 -56 215 -159 267 -65 34 -178 41 -246 16z"/>
</g>
</svg>
