<?xml version="1.0" standalone="no"?>
<!DOCTYPE svg PUBLIC "-//W3C//DTD SVG 20010904//EN"
 "http://www.w3.org/TR/2001/REC-SVG-20010904/DTD/svg10.dtd">
<svg version="1.0" xmlns="http://www.w3.org/2000/svg"
 width="192.000000pt" height="192.000000pt" viewBox="0 0 192.000000 192.000000"
 preserveAspectRatio="xMidYMid meet">
<metadata>
Created by potrace 1.16, written by Peter Selinger 2001-2019
</metadata>
<g transform="translate(0.000000,192.000000) scale(0.100000,-0.100000)"
fill="#000000" stroke="none">
811 c445 -92 729 -532 635 -987 -62 -301 -295 -546 -601 -630 -91 -26 -329
-26 -420 0 -291 80 -516 305 -596 596 -26 91 -26 329 0 420 120 433 542 692
982 601z"/>
<path d="M716 1335 c-21 -7 -46 -21 -55 -29 -14 -15 -12 -16 24 -16 61 0 120
-34 142 -81 l19 -41 26 40 c92 138 298 88 298 -72 0 -98 -75 -212 -170 -257
-27 -13 -50 -29 -50 -34 0 -38 111 -172 184 -221 48 -32 50 -32 80 -17 44 22
66 43 87 85 17 33 19 61 19 273 0 175 -3 244 -14 268 -17 43 -76 93 -123 106
-58 16 -419 13 -467 -4z"/>
<path d="M590 970 c0 -202 3 -246 16 -273 47 -92 85 -107 274 -107 l152 0 -56
62 c-30 34 -72 92 -93 130 -53 95 -60 93 -83 -27 -19 -99 -54 -130 -94 -86
-17 19 -16 28 23 210 64 299 62 306 -91 326 l-48 6 0 -241z"/>
<path d="M943 1164 c-40 -43 -58 -76 -89 -166 -21 -62 -21 -68 -6 -70 61 -5
129 20 168 64 34 36 64 104 64 142 0 44 -22 66 -67 66 -28 0 -43 -8 -70 -36z"/>
</g>
</svg>
