<?xml version="1.0" standalone="no"?>
<!DOCTYPE svg PUBLIC "-//W3C//DTD SVG 20010904//EN"
 "http://www.w3.org/TR/2001/REC-SVG-20010904/DTD/svg10.dtd">
<svg version="1.0" xmlns="http://www.w3.org/2000/svg"
 width="192.000000pt" height="192.000000pt" viewBox="0 0 192.000000 192.000000"
 preserveAspectRatio="xMidYMid meet">
<metadata>
Created by potrace 1.16, written by Peter Selinger 2001-2019
</metadata>
<g transform="translate(0.000000,192.000000) scale(0.100000,-0.100000)"
fill="#000000" stroke="none">
811 c445 -92 729 -532 635 -987 -62 -301 -295 -546 -601 -630 -91 -26 -329
-26 -420 0 -291 80 -516 305 -596 596 -26 91 -26 329 0 420 120 433 542 692
982 601z"/>
<path d="M695 1321 c-75 -34 -120 -112 -113 -196 3 -35 6 -40 28 -40 23 0 26
5 31 53 13 107 62 142 194 142 138 0 188 -34 202 -140 6 -42 13 -56 27 -58 42
-9 49 78 12 151 l-23 47 54 0 c100 0 163 -52 163 -135 0 -49 11 -68 36 -63 16
3 20 14 22 61 4 71 -22 123 -81 164 l-40 28 -236 3 c-212 2 -240 0 -276 -17z"/>
<path d="M577 1053 c-4 -3 -7 -46 -7 -95 0 -87 0 -88 25 -88 21 0 25 5 25 29
0 42 18 48 22 9 2 -28 7 -33 28 -33 24 0 25 2 27 80 1 44 -3 85 -9 92 -11 13
-99 18 -111 6z m63 -53 c0 -5 -5 -10 -11 -10 -5 0 -7 5 -4 10 3 6 8 10 11 10
2 0 4 -4 4 -10z"/>
<path d="M720 965 l0 -95 61 0 c57 0 60 1 57 23 -2 17 -11 23 -35 25 -39 4
-45 22 -7 22 21 0 25 4 22 23 -2 14 -11 23 -25 25 -37 5 -26 22 13 22 31 0 35
3 32 23 -3 19 -10 22 -60 25 l-58 3 0 -96z"/>
<path d="M867 1053 c-4 -3 -7 -46 -7 -95 0 -87 0 -88 25 -88 24 0 25 2 25 70
0 40 4 70 10 70 6 0 10 -30 10 -70 0 -68 1 -70 25 -70 24 0 25 2 25 70 0 40 4
70 10 70 6 0 10 -30 10 -70 0 -68 1 -70 25 -70 l26 0 -3 93 -3 92 -86 2 c-47
2 -89 0 -92 -4z"/>
<path d="M1075 1047 c-3 -7 -5 -49 -3 -93 3 -77 4 -79 28 -79 25 0 25 1 25 90
0 86 -1 90 -23 93 -12 2 -24 -3 -27 -11z"/>
<path d="M1150 965 c0 -95 0 -95 25 -95 24 0 25 2 25 70 0 40 4 70 10 70 6 0
10 -30 10 -70 0 -68 1 -70 25 -70 l26 0 -3 93 -3 92 -57 3 -58 3 0 -96z"/>
<path d="M1290 966 l0 -96 25 0 26 0 -3 93 c-3 87 -4 92 -25 95 -22 3 -23 1
-23 -92z"/>
<path d="M592 838 c-19 -19 -14 -90 11 -138 13 -26 40 -57 65 -75 l44 -30 218
-3 c138 -2 233 1 259 8 50 13 109 63 127 107 20 47 18 129 -2 137 -26 10 -41
-11 -46 -65 -8 -84 -70 -128 -181 -129 l-39 0 22 35 c28 45 38 136 17 153 -26
22 -44 4 -50 -48 -13 -105 -58 -135 -202 -135 -80 0 -107 4 -128 18 -37 24
-58 59 -64 109 -8 61 -26 81 -51 56z"/>
</g>
</svg>
