<?xml version="1.0" standalone="no"?>
<!DOCTYPE svg PUBLIC "-//W3C//DTD SVG 20010904//EN"
 "http://www.w3.org/TR/2001/REC-SVG-20010904/DTD/svg10.dtd">
<svg version="1.0" xmlns="http://www.w3.org/2000/svg"
 width="192.000000pt" height="192.000000pt" viewBox="0 0 192.000000 192.000000"
 preserveAspectRatio="xMidYMid meet">
<metadata>
Created by potrace 1.16, written by Peter Selinger 2001-2019
</metadata>
<g transform="translate(0.000000,192.000000) scale(0.100000,-0.100000)"
fill="#000000" stroke="none">
810 c245 -63 441 -223 549 -451 55 -116 75 -212 75 -354 0 -141 -20 -238 -75
-352 -86 -182 -215 -312 -396 -398 -116 -55 -212 -75 -354 -75 -142 0 -238 20
-354 75 -228 108 -388 304 -451 549 -28 110 -28 292 0 402 76 298 303 526 600
603 106 28 298 28 406 1z"/>
<path d="M865 1341 c-140 -37 -252 -152 -285 -293 -15 -65 -12 -119 10 -190
24 -80 72 -148 139 -198 70 -53 137 -73 238 -72 70 0 92 4 147 30 87 41 149
100 189 181 30 61 32 72 32 171 0 94 -3 111 -27 161 -38 76 -109 146 -188 183
-52 24 -79 30 -145 32 -44 2 -93 0 -110 -5z m141 -110 c15 -21 14 -21 -52 -21
l-68 0 34 35 c30 30 35 33 52 20 11 -7 26 -23 34 -34z m31 -112 c107 -52 126
-205 34 -282 -71 -60 -169 -55 -235 11 -140 139 22 358 201 271z m-327 -156
l0 -67 -35 34 -35 34 32 33 c18 18 33 33 35 33 2 0 3 -30 3 -67z m535 37 l29
-30 -29 -30 c-16 -16 -32 -30 -37 -30 -4 0 -8 27 -8 60 0 33 4 60 8 60 5 0 21
-13 37 -30z m-250 -310 c-16 -16 -34 -30 -40 -30 -6 0 -24 14 -40 30 l-29 30
69 0 69 0 -29 -30z"/>
</g>
</svg>
