<?xml version="1.0" standalone="no"?>
<!DOCTYPE svg PUBLIC "-//W3C//DTD SVG 20010904//EN"
 "http://www.w3.org/TR/2001/REC-SVG-20010904/DTD/svg10.dtd">
<svg version="1.0" xmlns="http://www.w3.org/2000/svg"
 width="192.000000pt" height="192.000000pt" viewBox="0 0 192.000000 192.000000"
 preserveAspectRatio="xMidYMid meet">
<metadata>
Created by potrace 1.16, written by Peter Selinger 2001-2019
</metadata>
<g transform="translate(0.000000,192.000000) scale(0.100000,-0.100000)"
fill="#000000" stroke="none">
811 c445 -92 729 -532 635 -987 -62 -301 -295 -546 -601 -630 -91 -26 -329
-26 -420 0 -291 80 -516 305 -596 596 -26 91 -26 329 0 420 120 433 542 692
982 601z"/>
<path d="M1112 1328 c2 -14 15 -25 43 -35 54 -18 103 -67 131 -130 25 -56 34
-62 53 -39 19 22 -23 108 -76 157 -71 65 -158 93 -151 47z"/>
<path d="M1105 1240 c-8 -13 12 -40 30 -40 14 0 44 -31 59 -63 16 -31 40 -28
44 6 6 54 -109 137 -133 97z"/>
<path d="M898 1184 c-38 -12 -71 -38 -167 -130 -133 -128 -171 -187 -171 -263
1 -79 51 -159 125 -199 41 -22 150 -22 192 1 46 25 250 224 278 272 31 52 40
117 25 174 -16 61 -90 134 -152 149 -58 15 -71 14 -130 -4z m146 -146 c15 -25
-3 -52 -37 -56 -34 -4 -58 38 -37 63 17 20 59 16 74 -7z"/>
</g>
</svg>
