<?xml version="1.0" standalone="no"?>
<!DOCTYPE svg PUBLIC "-//W3C//DTD SVG 20010904//EN"
 "http://www.w3.org/TR/2001/REC-SVG-20010904/DTD/svg10.dtd">
<svg version="1.0" xmlns="http://www.w3.org/2000/svg"
 width="192.000000pt" height="192.000000pt" viewBox="0 0 192.000000 192.000000"
 preserveAspectRatio="xMidYMid meet">
<metadata>
Created by potrace 1.16, written by Peter Selinger 2001-2019
</metadata>
<g transform="translate(0.000000,192.000000) scale(0.100000,-0.100000)"
fill="#000000" stroke="none">
810 c245 -63 441 -223 549 -451 55 -116 75 -212 75 -354 0 -141 -20 -238 -75
-352 -86 -182 -215 -312 -396 -398 -116 -55 -212 -75 -354 -75 -142 0 -238 20
-354 75 -228 108 -388 304 -451 549 -28 110 -28 292 0 402 76 298 303 526 600
603 106 28 298 28 406 1z"/>
<path d="M839 1335 c-115 -37 -214 -139 -250 -256 -65 -215 63 -435 284 -486
170 -40 353 46 432 204 28 54 30 66 30 168 0 101 -2 115 -29 170 -37 75 -108
145 -183 181 -48 23 -74 28 -148 31 -60 2 -106 -2 -136 -12z m126 -123 c-32
-2 -60 -1 -63 3 -3 3 7 19 23 35 l29 30 34 -32 33 -33 -56 -3z m52 -83 c129
-48 151 -219 40 -300 -33 -24 -50 -29 -97 -29 -66 0 -110 24 -147 79 -34 50
-32 133 3 185 43 62 132 92 201 65z m-307 -160 c0 -61 0 -61 -22 -47 -42 28
-45 45 -13 78 16 16 30 30 32 30 2 0 3 -28 3 -61z m560 2 c0 -4 -13 -20 -30
-36 l-30 -29 0 58 0 57 30 -21 c17 -12 30 -25 30 -29z m-278 -283 l-32 -33
-32 33 -33 32 65 0 65 0 -33 -32z"/>
</g>
</svg>
