<?xml version="1.0" standalone="no"?>
<!DOCTYPE svg PUBLIC "-//W3C//DTD SVG 20010904//EN"
 "http://www.w3.org/TR/2001/REC-SVG-20010904/DTD/svg10.dtd">
<svg version="1.0" xmlns="http://www.w3.org/2000/svg"
 width="192.000000pt" height="192.000000pt" viewBox="0 0 192.000000 192.000000"
 preserveAspectRatio="xMidYMid meet">
<metadata>
Created by potrace 1.16, written by Peter Selinger 2001-2019
</metadata>
<g transform="translate(0.000000,192.000000) scale(0.100000,-0.100000)"
fill="#000000" stroke="none">
810 c245 -63 441 -223 549 -451 55 -116 75 -212 75 -354 0 -141 -20 -238 -75
-352 -86 -182 -215 -312 -396 -398 -116 -55 -212 -75 -354 -75 -142 0 -238 20
-354 75 -228 108 -388 304 -451 549 -28 110 -28 292 0 402 76 298 303 526 600
603 106 28 298 28 406 1z"/>
<path d="M845 1336 c-91 -29 -162 -84 -213 -164 -146 -229 -11 -535 258 -583
166 -29 329 51 410 203 30 55 35 74 38 154 3 68 0 105 -12 142 -37 110 -136
207 -250 245 -58 20 -173 21 -231 3z m145 -91 l34 -35 -69 0 -69 0 34 35 c19
19 34 35 35 35 1 0 16 -16 35 -35z m50 -128 c155 -82 95 -319 -80 -319 -55 0
-98 20 -134 62 -120 144 47 345 214 257z m-335 -205 c-7 -7 -55 38 -55 52 0 5
12 23 28 39 l27 28 3 -56 c2 -32 1 -60 -3 -63z m549 79 c19 -21 19 -22 -9 -51
-16 -17 -32 -30 -37 -30 -4 0 -8 27 -8 60 0 55 2 60 18 51 9 -5 26 -19 36 -30z
m-260 -302 c-27 -27 -34 -29 -52 -20 -12 6 -26 20 -32 31 -10 19 -7 20 52 20
l63 0 -31 -31z"/>
</g>
</svg>
