<?xml version="1.0" standalone="no"?>
<!DOCTYPE svg PUBLIC "-//W3C//DTD SVG 20010904//EN"
 "http://www.w3.org/TR/2001/REC-SVG-20010904/DTD/svg10.dtd">
<svg version="1.0" xmlns="http://www.w3.org/2000/svg"
 width="192.000000pt" height="192.000000pt" viewBox="0 0 192.000000 192.000000"
 preserveAspectRatio="xMidYMid meet">
<metadata>
Created by potrace 1.16, written by Peter Selinger 2001-2019
</metadata>
<g transform="translate(0.000000,192.000000) scale(0.100000,-0.100000)"
fill="#000000" stroke="none">
810 c245 -63 441 -223 549 -451 55 -116 75 -212 75 -354 0 -141 -20 -238 -75
-352 -86 -182 -215 -312 -396 -398 -116 -55 -212 -75 -354 -75 -142 0 -238 20
-354 75 -228 108 -388 304 -451 549 -28 110 -28 292 0 402 76 298 303 526 600
603 106 28 298 28 406 1z"/>
<path d="M819 1327 c-102 -43 -173 -110 -217 -206 -23 -48 -27 -70 -27 -151 0
-86 3 -101 32 -162 40 -85 106 -151 191 -191 60 -29 76 -32 157 -31 69 0 104
6 148 23 76 30 164 111 202 188 28 54 30 66 30 168 0 99 -3 116 -27 168 -34
71 -109 146 -185 183 -48 24 -72 29 -153 32 -82 2 -103 -1 -151 -21z m146
-115 c-32 -2 -60 -1 -63 3 -3 3 7 19 23 35 l29 30 34 -32 33 -33 -56 -3z m47
-82 c46 -13 105 -77 114 -124 21 -113 -57 -206 -172 -206 -59 0 -105 26 -142
80 -20 29 -23 45 -20 95 5 74 33 119 92 146 47 21 76 23 128 9z m-302 -160 c0
-56 -1 -59 -19 -49 -10 7 -24 21 -30 32 -11 16 -9 23 15 48 15 16 29 29 31 29
2 0 3 -27 3 -60z m533 -32 c-15 -15 -28 -28 -30 -28 -2 0 -3 26 -3 57 l0 57
30 -29 30 -29 -27 -28z m-251 -250 l-32 -33 -32 33 -33 32 65 0 65 0 -33 -32z"/>
</g>
</svg>
