<?xml version="1.0" standalone="no"?>
<!DOCTYPE svg PUBLIC "-//W3C//DTD SVG 20010904//EN"
 "http://www.w3.org/TR/2001/REC-SVG-20010904/DTD/svg10.dtd">
<svg version="1.0" xmlns="http://www.w3.org/2000/svg"
 width="192.000000pt" height="192.000000pt" viewBox="0 0 192.000000 192.000000"
 preserveAspectRatio="xMidYMid meet">
<metadata>
Created by potrace 1.16, written by Peter Selinger 2001-2019
</metadata>
<g transform="translate(0.000000,192.000000) scale(0.100000,-0.100000)"
fill="#000000" stroke="none">
810 c245 -63 441 -223 549 -451 55 -116 75 -212 75 -354 0 -141 -20 -238 -75
-352 -86 -182 -215 -312 -396 -398 -116 -55 -212 -75 -354 -75 -142 0 -238 20
-354 75 -228 108 -388 304 -451 549 -28 110 -28 292 0 402 76 298 303 526 600
603 106 28 298 28 406 1z"/>
<path d="M843 1336 c-108 -35 -205 -124 -245 -224 -17 -44 -22 -78 -23 -147 0
-81 3 -97 32 -157 114 -240 418 -302 611 -123 34 32 70 77 87 112 28 54 30 66
30 168 0 101 -2 115 -29 170 -37 75 -108 145 -183 181 -48 23 -74 28 -148 31
-57 2 -105 -2 -132 -11z m122 -124 c-32 -2 -60 -1 -63 3 -3 3 7 19 23 35 l29
30 34 -32 33 -33 -56 -3z m45 -82 c41 -11 94 -61 109 -103 26 -69 -1 -155 -61
-198 -49 -35 -142 -39 -188 -7 -56 38 -80 82 -80 147 0 71 33 124 93 152 48
21 76 23 127 9z m-300 -160 c0 -57 -1 -60 -20 -50 -11 6 -25 20 -31 31 -9 18
-6 26 17 50 15 16 29 29 31 29 2 0 3 -27 3 -60z m533 -32 c-15 -15 -28 -28
-30 -28 -2 0 -3 26 -3 57 l0 57 30 -29 30 -29 -27 -28z m-251 -250 l-32 -33
-32 33 -33 32 65 0 65 0 -33 -32z"/>
</g>
</svg>
