<?xml version="1.0" standalone="no"?>
<!DOCTYPE svg PUBLIC "-//W3C//DTD SVG 20010904//EN"
 "http://www.w3.org/TR/2001/REC-SVG-20010904/DTD/svg10.dtd">
<svg version="1.0" xmlns="http://www.w3.org/2000/svg"
 width="192.000000pt" height="192.000000pt" viewBox="0 0 192.000000 192.000000"
 preserveAspectRatio="xMidYMid meet">
<metadata>
Created by potrace 1.16, written by Peter Selinger 2001-2019
</metadata>
<g transform="translate(0.000000,192.000000) scale(0.100000,-0.100000)"
fill="#000000" stroke="none">
810 c245 -63 441 -223 549 -451 55 -116 75 -212 75 -354 0 -141 -20 -238 -75
-352 -86 -182 -215 -312 -396 -398 -116 -55 -212 -75 -354 -75 -142 0 -238 20
-354 75 -228 108 -388 304 -451 549 -28 110 -28 292 0 402 76 298 303 526 600
603 106 28 298 28 406 1z"/>
<path d="M833 1332 c-225 -80 -327 -339 -215 -546 150 -276 557 -263 690 22
24 50 27 69 27 162 0 95 -3 111 -28 162 -38 77 -107 145 -187 182 -84 39 -206
47 -287 18z m176 -104 c10 -17 6 -18 -56 -18 l-67 0 33 34 c33 34 34 34 56 18
13 -9 28 -25 34 -34z m28 -109 c55 -26 93 -88 93 -148 0 -156 -184 -234 -293
-124 -140 139 21 359 200 272z m-327 -156 l0 -67 -35 34 -35 34 32 33 c18 18
33 33 35 33 2 0 3 -30 3 -67z m535 37 l29 -30 -29 -30 c-16 -16 -32 -30 -37
-30 -4 0 -8 27 -8 60 0 33 4 60 8 60 5 0 21 -13 37 -30z m-250 -310 c-16 -16
-34 -30 -40 -30 -6 0 -24 14 -40 30 l-29 30 69 0 69 0 -29 -30z"/>
</g>
</svg>
