<?xml version="1.0" standalone="no"?>
<!DOCTYPE svg PUBLIC "-//W3C//DTD SVG 20010904//EN"
 "http://www.w3.org/TR/2001/REC-SVG-20010904/DTD/svg10.dtd">
<svg version="1.0" xmlns="http://www.w3.org/2000/svg"
 width="192.000000pt" height="192.000000pt" viewBox="0 0 192.000000 192.000000"
 preserveAspectRatio="xMidYMid meet">
<metadata>
Created by potrace 1.16, written by Peter Selinger 2001-2019
</metadata>
<g transform="translate(0.000000,192.000000) scale(0.100000,-0.100000)"
fill="#000000" stroke="none">
810 c245 -63 441 -223 549 -451 55 -116 75 -212 75 -354 0 -141 -20 -238 -75
-352 -86 -182 -215 -312 -396 -398 -116 -55 -212 -75 -354 -75 -142 0 -238 20
-354 75 -228 108 -388 304 -451 549 -28 110 -28 292 0 402 76 298 303 526 600
603 106 28 298 28 406 1z"/>
<path d="M845 1337 c-93 -31 -163 -85 -213 -165 -146 -229 -11 -535 258 -583
166 -29 328 51 411 203 33 61 34 67 34 173 0 101 -2 115 -28 168 -37 74 -107
144 -183 181 -50 25 -73 30 -149 33 -56 2 -105 -2 -130 -10z m120 -125 c-32
-2 -60 -1 -63 3 -3 3 7 19 23 35 l29 30 34 -32 33 -33 -56 -3z m90 -103 c137
-93 71 -311 -95 -311 -100 0 -172 73 -172 174 0 132 155 212 267 137z m-350
-197 c-7 -7 -55 38 -55 52 0 5 12 23 28 39 l27 28 3 -56 c2 -32 1 -60 -3 -63z
m549 79 c19 -21 19 -22 -9 -51 -16 -17 -32 -30 -37 -30 -4 0 -8 27 -8 60 0 55
2 60 18 51 9 -5 26 -19 36 -30z m-260 -302 c-31 -30 -32 -31 -57 -14 -50 32
-42 45 26 45 l62 0 -31 -31z"/>
</g>
</svg>
