<?xml version="1.0" standalone="no"?>
<!DOCTYPE svg PUBLIC "-//W3C//DTD SVG 20010904//EN"
 "http://www.w3.org/TR/2001/REC-SVG-20010904/DTD/svg10.dtd">
<svg version="1.0" xmlns="http://www.w3.org/2000/svg"
 width="192.000000pt" height="192.000000pt" viewBox="0 0 192.000000 192.000000"
 preserveAspectRatio="xMidYMid meet">
<metadata>
Created by potrace 1.16, written by Peter Selinger 2001-2019
</metadata>
<g transform="translate(0.000000,192.000000) scale(0.100000,-0.100000)"
fill="#000000" stroke="none">
810 c245 -63 441 -223 549 -451 55 -116 75 -212 75 -354 0 -141 -20 -238 -75
-352 -86 -182 -215 -312 -396 -398 -116 -55 -212 -75 -354 -75 -142 0 -238 20
-354 75 -228 108 -388 304 -451 549 -28 110 -28 292 0 402 76 298 303 526 600
603 106 28 298 28 406 1z"/>
<path d="M845 1337 c-133 -44 -227 -144 -261 -277 -67 -262 161 -513 427 -472
131 20 235 95 291 210 31 63 33 73 33 172 0 95 -3 111 -28 162 -39 79 -104
143 -185 181 -55 26 -81 32 -152 34 -51 2 -101 -2 -125 -10z m145 -92 l34 -35
-69 0 -69 0 34 35 c19 19 34 35 35 35 1 0 16 -16 35 -35z m47 -126 c108 -52
125 -205 31 -284 -69 -58 -163 -52 -229 14 -140 140 19 357 198 270z m-327
-156 l0 -67 -35 34 -35 34 32 33 c18 18 33 33 35 33 2 0 3 -30 3 -67z m544 28
c19 -21 19 -22 -9 -51 -16 -17 -32 -30 -37 -30 -4 0 -8 27 -8 60 0 55 2 60 18
51 9 -5 26 -19 36 -30z m-259 -301 c-16 -16 -34 -30 -40 -30 -6 0 -24 14 -40
30 l-29 30 69 0 69 0 -29 -30z"/>
</g>
</svg>
