<?xml version="1.0" standalone="no"?>
<!DOCTYPE svg PUBLIC "-//W3C//DTD SVG 20010904//EN"
 "http://www.w3.org/TR/2001/REC-SVG-20010904/DTD/svg10.dtd">
<svg version="1.0" xmlns="http://www.w3.org/2000/svg"
 width="192.000000pt" height="192.000000pt" viewBox="0 0 192.000000 192.000000"
 preserveAspectRatio="xMidYMid meet">
<metadata>
Created by potrace 1.16, written by Peter Selinger 2001-2019
</metadata>
<g transform="translate(0.000000,192.000000) scale(0.100000,-0.100000)"
fill="#000000" stroke="none">
811 c445 -92 729 -532 635 -987 -62 -301 -295 -546 -601 -630 -91 -26 -329
-26 -420 0 -291 80 -516 305 -596 596 -26 91 -26 329 0 420 120 433 542 692
982 601z"/>
<path d="M657 1363 c-4 -3 -7 -75 -7 -160 l0 -153 305 0 305 0 0 148 c0 102
-4 152 -12 160 -7 7 -31 12 -55 12 l-42 0 -3 -107 c-3 -97 -5 -108 -22 -111
-34 -7 -46 25 -46 125 0 86 -1 93 -20 93 -18 0 -20 -7 -20 -79 0 -81 -12 -107
-43 -96 -18 7 -27 48 -27 121 l0 54 -153 0 c-85 0 -157 -3 -160 -7z"/>
<path d="M650 922 c0 -51 4 -62 28 -85 24 -23 36 -26 107 -29 l80 -3 3 -95 c3
-100 13 -123 60 -141 29 -11 86 11 101 39 6 12 11 61 11 111 l0 91 81 0 c76 0
82 2 110 29 25 26 29 37 29 85 l0 56 -305 0 -305 0 0 -58z"/>
</g>
</svg>
