<?xml version="1.0" standalone="no"?>
<!DOCTYPE svg PUBLIC "-//W3C//DTD SVG 20010904//EN"
 "http://www.w3.org/TR/2001/REC-SVG-20010904/DTD/svg10.dtd">
<svg version="1.0" xmlns="http://www.w3.org/2000/svg"
 width="192.000000pt" height="192.000000pt" viewBox="0 0 192.000000 192.000000"
 preserveAspectRatio="xMidYMid meet">
<metadata>
Created by potrace 1.16, written by Peter Selinger 2001-2019
</metadata>
<g transform="translate(0.000000,192.000000) scale(0.100000,-0.100000)"
fill="#000000" stroke="none">
811 c445 -92 729 -532 635 -987 -62 -301 -295 -546 -601 -630 -91 -26 -329
-26 -420 0 -291 80 -516 305 -596 596 -26 91 -26 329 0 420 120 433 542 692
982 601z"/>
<path d="M755 1321 c-191 -110 -264 -345 -168 -540 49 -102 198 -222 240 -195
35 22 22 55 -32 87 -72 42 -102 73 -138 147 -28 56 -32 75 -32 145 0 60 6 91
22 126 27 60 85 124 151 166 56 36 67 64 33 83 -25 13 -18 14 -76 -19z"/>
<path d="M1078 1339 c-33 -19 -21 -47 35 -82 118 -76 171 -166 172 -292 0 -71
-4 -88 -32 -145 -36 -74 -66 -105 -138 -147 -54 -32 -67 -65 -32 -87 21 -14
87 19 150 74 96 86 150 238 128 363 -22 125 -99 236 -206 298 -57 33 -54 32
-77 18z"/>
<path d="M880 1221 c-80 -26 -146 -88 -175 -164 -21 -57 -17 -165 9 -214 24
-47 82 -102 130 -124 56 -25 166 -25 223 0 199 91 204 382 8 483 -43 23 -152
33 -195 19z m125 -190 c92 -58 88 -86 -20 -146 -72 -41 -78 -42 -105 -15 -16
16 -20 33 -20 88 0 120 39 139 145 73z"/>
</g>
</svg>
