<?xml version="1.0" standalone="no"?>
<!DOCTYPE svg PUBLIC "-//W3C//DTD SVG 20010904//EN"
 "http://www.w3.org/TR/2001/REC-SVG-20010904/DTD/svg10.dtd">
<svg version="1.0" xmlns="http://www.w3.org/2000/svg"
 width="192.000000pt" height="192.000000pt" viewBox="0 0 192.000000 192.000000"
 preserveAspectRatio="xMidYMid meet">
<metadata>
Created by potrace 1.16, written by Peter Selinger 2001-2019
</metadata>
<g transform="translate(0.000000,192.000000) scale(0.100000,-0.100000)"
fill="#000000" stroke="none">
811 c445 -92 729 -532 635 -987 -62 -301 -295 -546 -601 -630 -91 -26 -329
-26 -420 0 -291 80 -516 305 -596 596 -26 91 -26 329 0 420 120 433 542 692
982 601z"/>
<path d="M855 1351 c-184 -84 -305 -376 -234 -566 29 -77 102 -154 181 -191
55 -25 75 -29 153 -29 78 0 98 4 153 29 79 37 152 114 181 191 27 73 28 181 1
266 -32 104 -60 130 -102 92 -17 -15 -21 -15 -67 6 l-48 23 -39 -20 c-39 -20
-40 -20 -77 -1 -47 25 -47 31 2 23 30 -5 46 -1 77 19 l40 25 44 -23 c41 -21
47 -22 63 -8 25 24 21 39 -24 88 -82 89 -208 120 -304 76z"/>
</g>
</svg>
