<?xml version="1.0" standalone="no"?>
<!DOCTYPE svg PUBLIC "-//W3C//DTD SVG 20010904//EN"
 "http://www.w3.org/TR/2001/REC-SVG-20010904/DTD/svg10.dtd">
<svg version="1.0" xmlns="http://www.w3.org/2000/svg"
 width="192.000000pt" height="192.000000pt" viewBox="0 0 192.000000 192.000000"
 preserveAspectRatio="xMidYMid meet">
<metadata>
Created by potrace 1.16, written by Peter Selinger 2001-2019
</metadata>
<g transform="translate(0.000000,192.000000) scale(0.100000,-0.100000)"
fill="#000000" stroke="none">
811 c445 -92 729 -532 635 -987 -62 -301 -295 -546 -601 -630 -91 -26 -329
-26 -420 0 -291 80 -516 305 -596 596 -26 91 -26 329 0 420 120 433 542 692
982 601z"/>
<path d="M882 1369 c-79 -13 -160 -56 -218 -114 -203 -203 -147 -529 114 -657
118 -58 281 -49 394 23 139 89 216 256 188 411 -41 226 -254 376 -478 337z
m184 -138 c59 -27 112 -77 142 -135 21 -42 26 -65 26 -126 0 -65 -4 -82 -29
-129 -17 -30 -40 -61 -52 -69 -21 -13 -26 -11 -81 42 -32 31 -62 56 -65 56 -4
0 -7 -37 -7 -83 0 -87 -8 -107 -45 -107 -42 0 -50 15 -55 105 l-5 85 -63 -54
c-35 -32 -68 -53 -76 -50 -17 7 -61 69 -75 107 -18 47 -13 167 8 214 25 53 91
119 144 144 57 25 177 26 233 0z"/>
</g>
</svg>
