<?xml version="1.0" standalone="no"?>
<!DOCTYPE svg PUBLIC "-//W3C//DTD SVG 20010904//EN"
 "http://www.w3.org/TR/2001/REC-SVG-20010904/DTD/svg10.dtd">
<svg version="1.0" xmlns="http://www.w3.org/2000/svg"
 width="192.000000pt" height="192.000000pt" viewBox="0 0 192.000000 192.000000"
 preserveAspectRatio="xMidYMid meet">
<metadata>
Created by potrace 1.16, written by Peter Selinger 2001-2019
</metadata>
<g transform="translate(0.000000,192.000000) scale(0.100000,-0.100000)"
fill="#000000" stroke="none">
811 c445 -92 729 -532 635 -987 -62 -301 -295 -546 -601 -630 -91 -26 -329
-26 -420 0 -291 80 -516 305 -596 596 -26 91 -26 329 0 420 120 433 542 692
982 601z"/>
<path d="M1043 1206 c-60 -20 -115 -66 -148 -128 -70 -129 -13 -300 120 -359
65 -29 116 -33 179 -15 186 54 251 299 115 434 -69 70 -177 97 -266 68z"/>
<path d="M593 1081 c-43 -27 -63 -69 -63 -131 0 -45 4 -55 38 -91 31 -34 46
-42 85 -46 56 -7 98 9 132 49 49 58 42 148 -15 203 -40 39 -128 47 -177 16z"/>
</g>
</svg>
