<?xml version="1.0" standalone="no"?>
<!DOCTYPE svg PUBLIC "-//W3C//DTD SVG 20010904//EN"
 "http://www.w3.org/TR/2001/REC-SVG-20010904/DTD/svg10.dtd">
<svg version="1.0" xmlns="http://www.w3.org/2000/svg"
 width="192.000000pt" height="192.000000pt" viewBox="0 0 192.000000 192.000000"
 preserveAspectRatio="xMidYMid meet">
<metadata>
Created by potrace 1.16, written by Peter Selinger 2001-2019
</metadata>
<g transform="translate(0.000000,192.000000) scale(0.100000,-0.100000)"
fill="#000000" stroke="none">
811 c445 -92 729 -532 635 -987 -62 -301 -295 -546 -601 -630 -91 -26 -329
-26 -420 0 -291 80 -516 305 -596 596 -26 91 -26 329 0 420 120 433 542 692
982 601z"/>
<path d="M682 1374 c-18 -10 -45 -33 -60 -52 l-27 -35 -3 -311 c-2 -219 1
-318 9 -338 16 -40 72 -85 119 -98 57 -15 95 -2 221 75 59 36 111 65 117 65 6
0 43 -20 83 -45 104 -64 155 -59 174 17 6 23 1 34 -26 61 -19 18 -45 39 -58
48 l-24 15 44 30 c106 71 128 192 51 273 -15 16 -128 91 -252 167 -207 127
-229 138 -280 141 -38 3 -65 -2 -88 -13z m299 -265 c109 -67 200 -127 203
-134 8 -21 -19 -48 -76 -79 l-54 -29 -119 72 c-66 40 -135 74 -157 77 l-38 7
0 97 c0 53 3 100 7 103 15 16 46 1 234 -114z m-130 -295 c32 -20 59 -38 59
-39 0 -11 -128 -75 -144 -73 -18 3 -21 11 -24 62 -2 32 -1 65 2 72 9 23 45 16
107 -22z"/>
</g>
</svg>
