<?xml version="1.0" standalone="no"?>
<!DOCTYPE svg PUBLIC "-//W3C//DTD SVG 20010904//EN"
 "http://www.w3.org/TR/2001/REC-SVG-20010904/DTD/svg10.dtd">
<svg version="1.0" xmlns="http://www.w3.org/2000/svg"
 width="192.000000pt" height="192.000000pt" viewBox="0 0 192.000000 192.000000"
 preserveAspectRatio="xMidYMid meet">
<metadata>
Created by potrace 1.16, written by Peter Selinger 2001-2019
</metadata>
<g transform="translate(0.000000,192.000000) scale(0.100000,-0.100000)"
fill="#000000" stroke="none">
811 c445 -92 729 -532 635 -987 -62 -301 -295 -546 -601 -630 -91 -26 -329
-26 -420 0 -291 80 -516 305 -596 596 -26 91 -26 329 0 420 120 433 542 692
982 601z"/>
<path d="M1140 1275 c0 -96 2 -106 18 -103 15 3 17 16 17 103 0 87 -2 100 -17
103 -16 3 -18 -7 -18 -103z"/>
<path d="M1210 1310 l0 -70 43 0 c24 0 52 7 63 15 40 30 48 8 9 -30 -18 -19
-35 -25 -70 -25 -25 0 -45 -4 -45 -10 0 -20 96 -11 124 11 23 18 26 28 26 79
0 51 -3 61 -26 79 -19 15 -41 21 -75 21 l-49 0 0 -70z"/>
<path d="M833 1356 c-146 -47 -260 -182 -281 -334 -38 -273 182 -496 452 -460
195 26 346 201 346 401 0 66 -23 161 -41 173 -23 14 -32 -14 -20 -63 63 -247
-104 -470 -349 -467 -135 1 -250 76 -312 202 -28 57 -32 75 -32 151 -1 76 3
94 31 153 36 77 93 137 160 171 62 32 96 39 223 46 84 5 105 9 105 21 0 21
-221 25 -282 6z"/>
<path d="M853 1282 c-154 -50 -242 -182 -231 -346 8 -116 75 -217 183 -274 43
-23 62 -27 140 -27 73 0 98 4 136 23 150 73 229 242 186 393 -21 70 -41 99
-58 82 -10 -10 -9 -23 4 -64 35 -108 15 -214 -56 -295 -105 -119 -290 -128
-402 -18 -116 112 -119 292 -7 407 65 67 101 80 242 87 117 5 125 6 125 25 0
19 -7 20 -105 22 -77 2 -119 -3 -157 -15z"/>
<path d="M901 1219 c-94 -18 -175 -94 -201 -189 -48 -173 103 -349 279 -325
146 20 256 175 221 313 -21 83 -59 137 -82 114 -9 -9 -6 -23 11 -58 49 -97 36
-189 -35 -260 -82 -82 -204 -85 -287 -6 -93 88 -89 240 8 319 47 39 101 53
209 53 86 0 108 9 86 35 -14 17 -133 19 -209 4z"/>
<path d="M884 1106 c-146 -66 -97 -296 64 -296 78 0 144 55 157 130 8 49 -24
122 -67 153 -34 25 -113 32 -154 13z m48 -83 c17 -15 19 -15 36 0 23 21 36 21
52 2 10 -12 9 -20 -4 -40 -15 -23 -15 -28 -2 -46 8 -12 12 -28 9 -35 -7 -19
-37 -18 -53 1 -12 14 -15 14 -30 0 -27 -24 -60 -19 -60 9 0 13 7 29 15 36 14
12 13 16 -6 36 -18 19 -20 26 -9 39 16 19 29 19 52 -2z"/>
</g>
</svg>
