<?xml version="1.0" standalone="no"?>
<!DOCTYPE svg PUBLIC "-//W3C//DTD SVG 20010904//EN"
 "http://www.w3.org/TR/2001/REC-SVG-20010904/DTD/svg10.dtd">
<svg version="1.0" xmlns="http://www.w3.org/2000/svg"
 width="192.000000pt" height="192.000000pt" viewBox="0 0 192.000000 192.000000"
 preserveAspectRatio="xMidYMid meet">
<metadata>
Created by potrace 1.16, written by Peter Selinger 2001-2019
</metadata>
<g transform="translate(0.000000,192.000000) scale(0.100000,-0.100000)"
fill="#000000" stroke="none">
811 c445 -92 729 -532 635 -987 -62 -301 -295 -546 -601 -630 -91 -26 -329
-26 -420 0 -291 80 -516 305 -596 596 -26 91 -26 329 0 420 120 433 542 692
982 601z"/>
<path d="M935 1369 c-121 -25 -245 -112 -317 -223 -129 -199 -99 -501 57 -576
131 -63 221 39 257 290 11 79 23 96 46 68 5 -7 20 -60 32 -118 40 -187 78
-236 178 -226 68 6 160 48 171 78 12 32 -1 61 -31 72 -19 7 -37 4 -70 -13 -81
-39 -92 -31 -119 89 -14 66 -24 87 -57 123 -24 25 -24 27 -6 27 68 0 178 70
210 133 21 39 21 115 1 153 -52 100 -204 153 -352 123z m172 -124 c20 -8 42
-23 49 -33 16 -21 18 -66 4 -93 -15 -27 -78 -57 -140 -65 l-53 -7 7 57 c9 66
-2 86 -44 86 -34 0 -67 -37 -76 -85 -5 -30 -10 -34 -43 -37 -32 -3 -36 -6 -39
-33 -3 -24 3 -35 29 -57 l33 -28 -12 -96 c-14 -107 -42 -184 -67 -184 -97 0
-117 239 -33 403 25 50 93 124 132 144 83 43 188 55 253 28z"/>
<path d="M1286 914 c-22 -22 -20 -57 5 -80 19 -17 23 -17 47 -3 33 18 40 54
16 80 -21 23 -47 24 -68 3z"/>
</g>
</svg>
