<?xml version="1.0" standalone="no"?>
<!DOCTYPE svg PUBLIC "-//W3C//DTD SVG 20010904//EN"
 "http://www.w3.org/TR/2001/REC-SVG-20010904/DTD/svg10.dtd">
<svg version="1.0" xmlns="http://www.w3.org/2000/svg"
 width="192.000000pt" height="192.000000pt" viewBox="0 0 192.000000 192.000000"
 preserveAspectRatio="xMidYMid meet">
<metadata>
Created by potrace 1.16, written by Peter Selinger 2001-2019
</metadata>
<g transform="translate(0.000000,192.000000) scale(0.100000,-0.100000)"
fill="#000000" stroke="none">
811 c445 -92 729 -532 635 -987 -62 -301 -295 -546 -601 -630 -91 -26 -329
-26 -420 0 -291 80 -516 305 -596 596 -26 91 -26 329 0 420 120 433 542 692
982 601z"/>
<path d="M835 1357 c-117 -39 -207 -117 -256 -222 -110 -234 32 -512 289 -566
230 -47 452 105 493 339 30 167 -66 344 -229 424 -58 29 -77 33 -161 35 -60 2
-111 -2 -136 -10z m205 -324 c50 -15 90 -33 90 -40 0 -8 -9 -9 -27 -4 -36 10
-292 6 -317 -4 -14 -6 -17 -4 -14 5 3 11 140 66 171 69 4 1 48 -11 97 -26z
m-37 -137 c21 -30 81 -50 108 -35 17 9 19 5 19 -40 0 -47 -3 -52 -47 -90 -99
-85 -146 -88 -235 -19 -71 55 -78 65 -78 116 0 38 2 43 18 37 44 -19 116 9
135 53 22 52 29 50 80 -22z"/>
<path d="M869 818 c-5 -51 31 -88 83 -88 47 0 91 38 86 73 -3 20 -9 22 -85 25
-62 2 -83 0 -84 -10z"/>
</g>
</svg>
