<?xml version="1.0" standalone="no"?>
<!DOCTYPE svg PUBLIC "-//W3C//DTD SVG 20010904//EN"
 "http://www.w3.org/TR/2001/REC-SVG-20010904/DTD/svg10.dtd">
<svg version="1.0" xmlns="http://www.w3.org/2000/svg"
 width="192.000000pt" height="192.000000pt" viewBox="0 0 192.000000 192.000000"
 preserveAspectRatio="xMidYMid meet">
<metadata>
Created by potrace 1.16, written by Peter Selinger 2001-2019
</metadata>
<g transform="translate(0.000000,192.000000) scale(0.100000,-0.100000)"
fill="#000000" stroke="none">
811 c445 -92 729 -532 635 -987 -62 -301 -295 -546 -601 -630 -91 -26 -329
-26 -420 0 -291 80 -516 305 -596 596 -26 91 -26 329 0 420 120 433 542 692
982 601z"/>
<path d="M745 1375 c-5 -2 -22 -6 -37 -9 -37 -8 -98 -63 -114 -103 -11 -24
-14 -98 -14 -301 l0 -268 29 -45 c36 -58 87 -84 162 -84 47 1 66 7 127 43 l71
42 -140 137 -139 136 2 156 3 156 174 5 174 5 -109 62 c-98 55 -160 78 -189
68z m49 -715 c-6 -6 -31 -10 -55 -8 l-44 3 -3 44 c-5 65 14 70 68 16 32 -32
41 -48 34 -55z"/>
<path d="M1060 1236 c0 -5 86 -56 95 -56 3 0 5 12 3 28 -3 25 -7 27 -50 30
-27 2 -48 1 -48 -2z"/>
<path d="M1158 1048 l-3 -123 -134 -5 -134 -5 104 -96 104 -96 77 47 c98 59
116 76 139 125 40 87 10 175 -81 237 -30 21 -58 38 -62 38 -4 0 -9 -55 -10
-122z"/>
<path d="M804 1116 c-3 -7 -4 -31 -2 -52 l3 -39 115 0 115 0 0 50 0 50 -113 3
c-90 2 -113 0 -118 -12z"/>
</g>
</svg>
