<?xml version="1.0" standalone="no"?>
<!DOCTYPE svg PUBLIC "-//W3C//DTD SVG 20010904//EN"
 "http://www.w3.org/TR/2001/REC-SVG-20010904/DTD/svg10.dtd">
<svg version="1.0" xmlns="http://www.w3.org/2000/svg"
 width="192.000000pt" height="192.000000pt" viewBox="0 0 192.000000 192.000000"
 preserveAspectRatio="xMidYMid meet">
<metadata>
Created by potrace 1.16, written by Peter Selinger 2001-2019
</metadata>
<g transform="translate(0.000000,192.000000) scale(0.100000,-0.100000)"
fill="#000000" stroke="none">
811 c445 -92 729 -532 635 -987 -62 -301 -295 -546 -601 -630 -91 -26 -329
-26 -420 0 -291 80 -516 305 -596 596 -26 91 -26 329 0 420 120 433 542 692
982 601z"/>
<path d="M856 1369 c-154 -36 -286 -184 -304 -342 -27 -232 110 -423 335 -467
237 -47 473 155 473 404 0 266 -247 465 -504 405z m139 -118 l-6 -38 39 -7
c105 -16 193 -126 194 -240 1 -79 -14 -89 -35 -23 -25 79 -91 142 -170 161
-28 7 -28 6 -21 -30 4 -20 3 -35 -2 -33 -29 13 -174 116 -174 124 0 8 166 125
178 125 2 0 1 -17 -3 -39z m-271 -245 c15 -77 97 -161 169 -173 l36 -6 -9 32
c-5 20 -5 31 1 31 13 0 178 -113 179 -122 0 -8 -140 -105 -166 -115 -14 -5
-16 -1 -10 29 6 35 6 35 -31 41 -118 19 -218 160 -198 279 8 47 21 49 29 4z"/>
</g>
</svg>
