<?xml version="1.0" standalone="no"?>
<!DOCTYPE svg PUBLIC "-//W3C//DTD SVG 20010904//EN"
 "http://www.w3.org/TR/2001/REC-SVG-20010904/DTD/svg10.dtd">
<svg version="1.0" xmlns="http://www.w3.org/2000/svg"
 width="192.000000pt" height="192.000000pt" viewBox="0 0 192.000000 192.000000"
 preserveAspectRatio="xMidYMid meet">
<metadata>
Created by potrace 1.16, written by Peter Selinger 2001-2019
</metadata>
<g transform="translate(0.000000,192.000000) scale(0.100000,-0.100000)"
fill="#000000" stroke="none">
811 c445 -92 729 -532 635 -987 -62 -301 -295 -546 -601 -630 -91 -26 -329
-26 -420 0 -291 80 -516 305 -596 596 -26 91 -26 329 0 420 120 433 542 692
982 601z"/>
<path d="M832 1361 l-24 -6 21 -27 c12 -14 21 -31 21 -37 0 -6 10 -21 22 -33
l21 -21 -28 -23 c-21 -17 -30 -35 -36 -75 -7 -48 -14 -59 -59 -99 -28 -25 -50
-51 -50 -57 0 -20 65 -15 105 7 20 11 38 20 40 20 16 0 -5 -65 -68 -215 -56
-132 -77 -170 -92 -173 -48 -8 -50 -13 -16 -34 19 -12 52 -23 75 -24 l41 -3
69 125 c37 68 71 124 75 124 5 0 16 -19 26 -42 11 -26 46 -70 89 -111 62 -59
69 -69 54 -78 -33 -19 -19 -30 33 -27 47 3 53 6 73 40 l21 38 -67 65 c-50 49
-72 80 -88 122 -31 84 -36 113 -17 113 9 0 18 10 20 23 l4 22 2 -22 c0 -14 7
-23 17 -23 14 0 16 11 12 78 -6 101 -35 163 -95 205 -43 31 -43 31 -37 79 9
67 -3 78 -80 77 -33 -1 -72 -4 -84 -8z m154 -47 c-3 -13 -9 -35 -12 -48 -5
-21 1 -30 39 -56 56 -40 87 -96 96 -170 4 -33 4 -57 0 -55 -3 3 -9 25 -11 49
-7 59 -62 147 -116 186 -33 24 -42 35 -36 48 4 9 8 33 9 54 0 32 2 35 18 26
14 -7 17 -17 13 -34z m44 -294 c1 -133 54 -266 136 -338 59 -51 62 -59 38 -88
-15 -18 -15 -18 -10 12 4 27 -1 36 -56 84 -69 61 -100 119 -123 227 -15 72
-20 165 -8 176 13 13 23 -18 23 -73z m-176 5 c-30 -23 -39 -17 -13 8 13 12 26
18 28 14 1 -5 -5 -15 -15 -22z m86 -176 c0 -17 -143 -269 -153 -269 -14 0 -6
19 68 153 64 116 85 145 85 116z"/>
</g>
</svg>
