<?xml version="1.0" standalone="no"?>
<!DOCTYPE svg PUBLIC "-//W3C//DTD SVG 20010904//EN"
 "http://www.w3.org/TR/2001/REC-SVG-20010904/DTD/svg10.dtd">
<svg version="1.0" xmlns="http://www.w3.org/2000/svg"
 width="192.000000pt" height="192.000000pt" viewBox="0 0 192.000000 192.000000"
 preserveAspectRatio="xMidYMid meet">
<metadata>
Created by potrace 1.16, written by Peter Selinger 2001-2019
</metadata>
<g transform="translate(0.000000,192.000000) scale(0.100000,-0.100000)"
fill="#000000" stroke="none">
811 c445 -92 729 -532 635 -987 -62 -301 -295 -546 -601 -630 -91 -26 -329
-26 -420 0 -291 80 -516 305 -596 596 -26 91 -26 329 0 420 120 433 542 692
982 601z"/>
<path d="M629 1351 l-24 -19 -3 -362 -3 -361 30 -29 c40 -40 115 -43 158 -6
27 23 28 29 31 125 l4 101 43 0 c42 0 45 -2 145 -115 57 -64 111 -120 121
-125 10 -6 38 -10 62 -10 61 0 97 29 97 78 0 31 -11 50 -72 121 -45 53 -68 86
-60 89 7 2 32 18 55 36 54 41 88 108 94 189 8 92 -16 157 -81 222 -77 77 -113
85 -366 85 -190 0 -210 -2 -231 -19z m432 -194 c46 -35 47 -101 2 -137 -22
-17 -41 -20 -134 -20 l-109 0 0 85 0 85 113 0 c72 -1 118 -5 128 -13z"/>
</g>
</svg>
