<?xml version="1.0" standalone="no"?>
<!DOCTYPE svg PUBLIC "-//W3C//DTD SVG 20010904//EN"
 "http://www.w3.org/TR/2001/REC-SVG-20010904/DTD/svg10.dtd">
<svg version="1.0" xmlns="http://www.w3.org/2000/svg"
 width="192.000000pt" height="192.000000pt" viewBox="0 0 192.000000 192.000000"
 preserveAspectRatio="xMidYMid meet">
<metadata>
Created by potrace 1.16, written by Peter Selinger 2001-2019
</metadata>
<g transform="translate(0.000000,192.000000) scale(0.100000,-0.100000)"
fill="#000000" stroke="none">
811 c445 -92 729 -532 635 -987 -62 -301 -295 -546 -601 -630 -91 -26 -329
-26 -420 0 -291 80 -516 305 -596 596 -26 91 -26 329 0 420 120 433 542 692
982 601z"/>
<path d="M698 1360 c-17 -10 -18 -40 -18 -393 0 -285 3 -386 12 -395 15 -15
161 -16 189 -2 18 10 19 24 19 258 0 218 3 252 19 287 34 76 106 127 194 140
62 9 60 -6 -3 -28 -61 -22 -112 -64 -135 -113 -26 -56 -17 -64 72 -64 161 1
233 73 233 234 0 73 -1 76 -26 82 -42 11 -220 -3 -251 -20 -30 -15 -74 -59
-91 -91 -10 -17 -11 -12 -12 30 -1 75 -6 80 -102 83 -47 1 -91 -2 -100 -8z"/>
</g>
</svg>
