<?xml version="1.0" standalone="no"?>
<!DOCTYPE svg PUBLIC "-//W3C//DTD SVG 20010904//EN"
 "http://www.w3.org/TR/2001/REC-SVG-20010904/DTD/svg10.dtd">
<svg version="1.0" xmlns="http://www.w3.org/2000/svg"
 width="192.000000pt" height="192.000000pt" viewBox="0 0 192.000000 192.000000"
 preserveAspectRatio="xMidYMid meet">
<metadata>
Created by potrace 1.16, written by Peter Selinger 2001-2019
</metadata>
<g transform="translate(0.000000,192.000000) scale(0.100000,-0.100000)"
fill="#000000" stroke="none">
811 c445 -92 729 -532 635 -987 -62 -301 -295 -546 -601 -630 -91 -26 -329
-26 -420 0 -291 80 -516 305 -596 596 -26 91 -26 329 0 420 120 433 542 692
982 601z"/>
<path d="M695 1326 c-45 -19 -93 -72 -105 -114 -7 -24 -10 -121 -8 -268 l3
-231 27 -40 c16 -24 44 -49 70 -62 41 -19 60 -21 272 -21 203 0 231 2 264 19
47 24 77 56 97 103 22 54 22 452 0 506 -20 47 -50 79 -97 103 -33 17 -60 19
-265 19 -166 -1 -236 -4 -258 -14z m60 -361 c0 -77 -2 -90 -17 -93 -15 -3 -18
4 -18 32 0 47 -27 50 -32 4 -2 -25 -8 -33 -23 -33 -18 0 -20 8 -23 79 -4 106
-3 108 60 104 l53 -3 0 -90z m150 75 c0 -9 -13 -17 -34 -20 -44 -6 -51 -26
-11 -33 18 -4 30 -13 30 -22 0 -9 -12 -18 -30 -22 -40 -7 -33 -27 11 -33 21
-3 34 -11 34 -20 0 -11 -14 -16 -57 -18 l-58 -3 0 96 0 96 58 -3 c43 -2 57 -7
57 -18z m67 -52 c2 -46 7 -73 16 -76 9 -3 12 14 12 60 0 70 10 94 34 85 13 -5
16 -21 16 -77 0 -55 3 -70 15 -70 11 0 15 17 17 72 2 60 6 73 21 76 15 3 17
-6 17 -92 l0 -96 -92 3 -93 2 -3 79 c-3 88 0 106 22 106 12 0 16 -16 18 -72z
m288 52 c0 -16 -7 -20 -35 -20 -24 0 -35 -5 -35 -15 0 -8 8 -15 19 -15 26 0
44 -23 29 -38 -7 -7 -20 -12 -30 -12 -10 0 -18 -7 -18 -15 0 -10 11 -15 35
-15 28 0 35 -4 35 -20 0 -18 -7 -20 -55 -20 l-55 0 0 95 0 95 55 0 c48 0 55
-2 55 -20z"/>
<path d="M690 1006 c0 -9 7 -16 16 -16 17 0 14 22 -4 28 -7 2 -12 -3 -12 -12z"/>
</g>
</svg>
