<?xml version="1.0" standalone="no"?>
<!DOCTYPE svg PUBLIC "-//W3C//DTD SVG 20010904//EN"
 "http://www.w3.org/TR/2001/REC-SVG-20010904/DTD/svg10.dtd">
<svg version="1.0" xmlns="http://www.w3.org/2000/svg"
 width="192.000000pt" height="192.000000pt" viewBox="0 0 192.000000 192.000000"
 preserveAspectRatio="xMidYMid meet">
<metadata>
Created by potrace 1.16, written by Peter Selinger 2001-2019
</metadata>
<g transform="translate(0.000000,192.000000) scale(0.100000,-0.100000)"
fill="#000000" stroke="none">
811 c445 -92 729 -532 635 -987 -62 -301 -295 -546 -601 -630 -91 -26 -329
-26 -420 0 -291 80 -516 305 -596 596 -26 91 -26 329 0 420 120 433 542 692
982 601z"/>
<path d="M890 1374 c-57 -11 -119 -36 -136 -55 -23 -26 -23 -82 0 -108 25 -28
58 -33 106 -16 55 19 141 19 187 0 67 -28 127 5 127 70 0 43 -24 70 -82 90
-49 16 -160 27 -202 19z"/>
<path d="M623 1180 c-29 -12 -59 -72 -73 -147 -22 -126 22 -265 116 -359 236
-236 634 -107 694 225 21 117 -21 263 -82 283 -35 12 -77 -7 -97 -44 -14 -24
-14 -32 2 -75 62 -174 -50 -343 -228 -343 -100 0 -185 55 -226 145 -23 49 -25
142 -4 192 20 48 19 68 -7 97 -26 29 -63 39 -95 26z"/>
</g>
</svg>
