<?xml version="1.0" standalone="no"?>
<!DOCTYPE svg PUBLIC "-//W3C//DTD SVG 20010904//EN"
 "http://www.w3.org/TR/2001/REC-SVG-20010904/DTD/svg10.dtd">
<svg version="1.0" xmlns="http://www.w3.org/2000/svg"
 width="192.000000pt" height="192.000000pt" viewBox="0 0 192.000000 192.000000"
 preserveAspectRatio="xMidYMid meet">
<metadata>
Created by potrace 1.16, written by Peter Selinger 2001-2019
</metadata>
<g transform="translate(0.000000,192.000000) scale(0.100000,-0.100000)"
fill="#000000" stroke="none">
811 c445 -92 729 -532 635 -987 -62 -301 -295 -546 -601 -630 -91 -26 -329
-26 -420 0 -291 80 -516 305 -596 596 -26 91 -26 329 0 420 120 433 542 692
982 601z"/>
<path d="M1009 1321 c-91 -27 -175 -55 -187 -62 -44 -27 -52 -66 -52 -237 l0
-159 -40 -6 c-75 -10 -130 -73 -130 -152 0 -43 18 -81 55 -115 23 -22 36 -25
95 -25 59 0 72 3 95 25 48 45 50 53 55 314 l5 249 121 35 c67 20 129 32 138
29 13 -5 16 -24 16 -121 l0 -114 -38 -7 c-60 -10 -101 -40 -123 -91 -66 -149
114 -280 236 -173 19 17 39 47 45 67 5 20 10 137 10 260 0 240 -6 276 -52 306
-45 30 -79 27 -249 -23z"/>
</g>
</svg>
