<?xml version="1.0" standalone="no"?>
<!DOCTYPE svg PUBLIC "-//W3C//DTD SVG 20010904//EN"
 "http://www.w3.org/TR/2001/REC-SVG-20010904/DTD/svg10.dtd">
<svg version="1.0" xmlns="http://www.w3.org/2000/svg"
 width="192.000000pt" height="192.000000pt" viewBox="0 0 192.000000 192.000000"
 preserveAspectRatio="xMidYMid meet">
<metadata>
Created by potrace 1.16, written by Peter Selinger 2001-2019
</metadata>
<g transform="translate(0.000000,192.000000) scale(0.100000,-0.100000)"
fill="#000000" stroke="none">
811 c445 -92 729 -532 635 -987 -62 -301 -295 -546 -601 -630 -91 -26 -329
-26 -420 0 -291 80 -516 305 -596 596 -26 91 -26 329 0 420 120 433 542 692
982 601z"/>
<path d="M756 1235 c-21 -22 -20 -41 4 -65 25 -25 32 -25 61 -1 20 16 22 23
14 47 -12 34 -54 44 -79 19z"/>
<path d="M583 1082 c-36 -36 -43 -66 -43 -179 0 -90 10 -123 38 -123 35 0 42
21 42 132 0 93 2 109 18 117 11 6 24 6 33 0 24 -15 58 -10 69 10 17 32 -17 63
-76 68 -46 5 -53 2 -81 -25z"/>
<path d="M772 1098 c-8 -8 -12 -58 -12 -159 0 -140 1 -148 20 -154 43 -14 50
7 50 161 0 131 -2 144 -19 154 -24 13 -24 13 -39 -2z"/>
<path d="M924 1100 c-12 -4 -31 -21 -43 -36 -19 -24 -21 -39 -21 -151 0 -105
2 -125 16 -130 39 -15 49 9 52 121 2 98 4 107 26 121 28 19 54 11 61 -19 3
-11 6 -63 8 -115 2 -77 5 -96 20 -105 12 -8 22 -8 35 0 14 9 17 29 20 115 3
115 -5 147 -50 184 -31 26 -82 32 -124 15z"/>
<path d="M1171 1084 c-34 -28 -51 -76 -51 -142 0 -91 50 -152 126 -152 34 0
42 -3 38 -15 -9 -23 -43 -28 -70 -10 -37 24 -68 16 -72 -17 -3 -22 3 -32 30
-48 70 -42 154 -17 184 56 19 45 19 233 0 278 -32 76 -124 102 -185 50z m117
-135 c2 -51 0 -66 -14 -76 -45 -33 -74 -2 -74 77 0 49 4 61 22 74 19 13 25 14
43 2 16 -11 21 -26 23 -77z"/>
</g>
</svg>
