<?xml version="1.0" standalone="no"?>
<!DOCTYPE svg PUBLIC "-//W3C//DTD SVG 20010904//EN"
 "http://www.w3.org/TR/2001/REC-SVG-20010904/DTD/svg10.dtd">
<svg version="1.0" xmlns="http://www.w3.org/2000/svg"
 width="192.000000pt" height="192.000000pt" viewBox="0 0 192.000000 192.000000"
 preserveAspectRatio="xMidYMid meet">
<metadata>
Created by potrace 1.16, written by Peter Selinger 2001-2019
</metadata>
<g transform="translate(0.000000,192.000000) scale(0.100000,-0.100000)"
fill="#000000" stroke="none">
811 c445 -92 729 -532 635 -987 -62 -301 -295 -546 -601 -630 -91 -26 -329
-26 -420 0 -291 80 -516 305 -596 596 -26 91 -26 329 0 420 120 433 542 692
982 601z"/>
<path d="M780 1250 c-144 -69 -209 -105 -219 -122 -13 -22 -9 -43 37 -223 28
-109 57 -202 64 -207 7 -4 29 -7 48 -6 34 3 35 4 35 48 0 25 -4 90 -8 145 -11
138 5 112 32 -50 12 -71 23 -131 25 -132 2 -2 38 2 81 8 l77 12 -5 51 c-12
104 -17 261 -9 241 5 -11 19 -78 31 -150 12 -71 24 -131 26 -133 2 -2 37 0 77
4 l73 9 0 50 c-1 28 -5 106 -9 175 -5 69 -6 122 -2 119 3 -3 19 -79 35 -168
15 -88 30 -163 32 -165 11 -10 135 16 147 31 16 22 17 411 1 447 -7 13 -23 29
-38 35 -30 12 -306 81 -318 80 -4 0 -100 -45 -213 -99z"/>
<path d="M1145 705 c-49 -7 -98 -14 -107 -14 -26 -1 -41 -36 -24 -53 7 -8 81
-25 166 -38 149 -24 153 -24 166 -5 16 22 18 78 4 106 -13 23 -64 24 -205 4z"/>
</g>
</svg>
