<?xml version="1.0" standalone="no"?>
<!DOCTYPE svg PUBLIC "-//W3C//DTD SVG 20010904//EN"
 "http://www.w3.org/TR/2001/REC-SVG-20010904/DTD/svg10.dtd">
<svg version="1.0" xmlns="http://www.w3.org/2000/svg"
 width="192.000000pt" height="192.000000pt" viewBox="0 0 192.000000 192.000000"
 preserveAspectRatio="xMidYMid meet">
<metadata>
Created by potrace 1.16, written by Peter Selinger 2001-2019
</metadata>
<g transform="translate(0.000000,192.000000) scale(0.100000,-0.100000)"
fill="#000000" stroke="none">
811 c445 -92 729 -532 635 -987 -62 -301 -295 -546 -601 -630 -91 -26 -329
-26 -420 0 -291 80 -516 305 -596 596 -26 91 -26 329 0 420 120 433 542 692
982 601z"/>
<path d="M1057 1366 c-40 -11 -64 -29 -128 -92 -83 -83 -101 -121 -51 -110 15
3 61 9 103 12 72 6 77 6 92 -17 10 -13 17 -44 18 -69 0 -64 12 -123 25 -127
10 -3 98 103 146 176 21 31 23 117 5 171 -22 63 -102 85 -210 56z"/>
<path d="M950 1149 c-146 -27 -149 -28 -191 -82 -23 -28 -55 -71 -71 -95 -30
-44 -30 -44 -19 -116 11 -67 10 -78 -15 -164 -28 -99 -27 -125 7 -120 16 2 31
26 63 98 55 123 129 246 222 370 65 87 82 123 56 119 -4 -1 -27 -5 -52 -10z"/>
<path d="M987 1053 c-119 -148 -258 -393 -223 -393 15 0 203 74 213 83 6 7 31
46 55 88 l43 76 -5 96 c-3 53 -11 102 -17 108 -8 8 -26 -8 -66 -58z"/>
<path d="M816 656 c-61 -23 -96 -55 -96 -87 0 -25 6 -24 84 12 66 31 104 68
91 89 -8 13 -10 13 -79 -14z"/>
</g>
</svg>
