<?xml version="1.0" standalone="no"?>
<!DOCTYPE svg PUBLIC "-//W3C//DTD SVG 20010904//EN"
 "http://www.w3.org/TR/2001/REC-SVG-20010904/DTD/svg10.dtd">
<svg version="1.0" xmlns="http://www.w3.org/2000/svg"
 width="192.000000pt" height="192.000000pt" viewBox="0 0 192.000000 192.000000"
 preserveAspectRatio="xMidYMid meet">
<metadata>
Created by potrace 1.16, written by Peter Selinger 2001-2019
</metadata>
<g transform="translate(0.000000,192.000000) scale(0.100000,-0.100000)"
fill="#000000" stroke="none">
811 c445 -92 729 -532 635 -987 -62 -301 -295 -546 -601 -630 -91 -26 -329
-26 -420 0 -291 80 -516 305 -596 596 -26 91 -26 329 0 420 120 433 542 692
982 601z"/>
<path d="M688 1300 c-20 -11 -47 -34 -60 -52 -22 -32 -23 -40 -26 -271 -3
-231 -2 -239 20 -278 12 -22 38 -50 58 -62 33 -21 49 -22 257 -25 254 -4 285
3 339 74 l29 37 3 231 c3 226 3 232 -20 275 -17 31 -38 52 -68 68 -41 22 -52
23 -269 23 -204 -1 -230 -3 -263 -20z m373 -219 c22 -18 24 -26 24 -115 0
-127 -4 -131 -131 -131 -125 0 -134 9 -134 133 0 74 3 89 22 109 19 21 30 23
109 23 71 0 91 -4 110 -19z"/>
</g>
</svg>
