<?xml version="1.0" standalone="no"?>
<!DOCTYPE svg PUBLIC "-//W3C//DTD SVG 20010904//EN"
 "http://www.w3.org/TR/2001/REC-SVG-20010904/DTD/svg10.dtd">
<svg version="1.0" xmlns="http://www.w3.org/2000/svg"
 width="192.000000pt" height="192.000000pt" viewBox="0 0 192.000000 192.000000"
 preserveAspectRatio="xMidYMid meet">
<metadata>
Created by potrace 1.16, written by Peter Selinger 2001-2019
</metadata>
<g transform="translate(0.000000,192.000000) scale(0.100000,-0.100000)"
fill="#000000" stroke="none">
811 c445 -92 729 -532 635 -987 -62 -301 -295 -546 -601 -630 -91 -26 -329
-26 -420 0 -291 80 -516 305 -596 596 -26 91 -26 329 0 420 120 433 542 692
982 601z"/>
<path d="M610 1290 c-24 -24 -25 -49 -6 -76 13 -18 31 -19 242 -24 l228 -5
-250 -235 c-137 -129 -252 -239 -256 -245 -14 -18 -8 -52 10 -68 17 -15 58
-17 379 -17 336 0 361 1 376 18 35 38 22 61 -106 189 -129 129 -149 141 -187
103 -32 -32 -24 -57 42 -126 l61 -64 -186 0 c-103 0 -187 1 -187 3 0 2 91 89
202 193 111 104 225 212 255 239 58 55 66 82 33 115 -19 19 -33 20 -325 20
-292 0 -306 -1 -325 -20z"/>
</g>
</svg>
