<?xml version="1.0" standalone="no"?>
<!DOCTYPE svg PUBLIC "-//W3C//DTD SVG 20010904//EN"
 "http://www.w3.org/TR/2001/REC-SVG-20010904/DTD/svg10.dtd">
<svg version="1.0" xmlns="http://www.w3.org/2000/svg"
 width="192.000000pt" height="192.000000pt" viewBox="0 0 192.000000 192.000000"
 preserveAspectRatio="xMidYMid meet">
<metadata>
Created by potrace 1.16, written by Peter Selinger 2001-2019
</metadata>
<g transform="translate(0.000000,192.000000) scale(0.100000,-0.100000)"
fill="#000000" stroke="none">
811 c445 -92 729 -532 635 -987 -62 -301 -295 -546 -601 -630 -91 -26 -329
-26 -420 0 -291 80 -516 305 -596 596 -26 91 -26 329 0 420 120 433 542 692
982 601z"/>
<path d="M1057 1350 c-188 -21 -242 -31 -257 -45 -19 -17 -20 -31 -20 -212 l0
-193 -39 6 c-101 16 -200 -70 -201 -175 0 -78 67 -159 147 -176 78 -16 179 49
202 130 6 23 11 128 11 252 0 212 0 213 23 217 22 5 298 36 317 36 6 0 10 -51
10 -131 0 -128 0 -130 -21 -124 -63 20 -159 -27 -195 -96 -18 -36 -18 -122 0
-157 66 -127 243 -131 313 -7 22 39 23 47 23 352 l0 312 -26 20 c-15 12 -32
20 -38 20 -6 -1 -118 -14 -249 -29z m197 -553 c16 -22 17 -30 7 -56 -26 -61
-106 -62 -131 -2 -11 26 -10 35 4 56 33 50 83 51 120 2z m-490 -13 c38 -38 27
-96 -21 -115 -70 -26 -126 57 -76 114 20 21 76 22 97 1z"/>
<path d="M642 1118 c-7 -7 -12 -18 -12 -26 0 -10 -7 -12 -25 -8 -17 4 -31 0
-45 -14 -25 -25 -25 -42 -2 -68 20 -25 118 -46 129 -28 24 37 43 83 43 102 0
42 -60 70 -88 42z"/>
</g>
</svg>
