<?xml version="1.0" standalone="no"?>
<!DOCTYPE svg PUBLIC "-//W3C//DTD SVG 20010904//EN"
 "http://www.w3.org/TR/2001/REC-SVG-20010904/DTD/svg10.dtd">
<svg version="1.0" xmlns="http://www.w3.org/2000/svg"
 width="192.000000pt" height="192.000000pt" viewBox="0 0 192.000000 192.000000"
 preserveAspectRatio="xMidYMid meet">
<metadata>
Created by potrace 1.16, written by Peter Selinger 2001-2019
</metadata>
<g transform="translate(0.000000,192.000000) scale(0.100000,-0.100000)"
fill="#000000" stroke="none">
811 c445 -92 729 -532 635 -987 -62 -301 -295 -546 -601 -630 -91 -26 -329
-26 -420 0 -291 80 -516 305 -596 596 -26 91 -26 329 0 420 120 433 542 692
982 601z"/>
<path d="M432 1144 c-21 -15 -22 -21 -22 -179 0 -172 6 -195 49 -195 30 0 41
22 41 83 0 77 18 74 80 -13 48 -67 70 -81 95 -60 24 20 18 48 -20 98 -30 38
-33 47 -20 54 47 27 61 138 23 183 -38 43 -180 62 -226 29z m156 -103 c5 -30
-20 -51 -60 -51 -26 0 -28 3 -28 41 l0 40 43 -3 c36 -3 42 -6 45 -27z"/>
<path d="M1021 1146 c-8 -9 -11 -67 -9 -186 3 -152 5 -174 21 -184 29 -18 51
5 57 59 l5 49 38 -57 c39 -60 62 -70 91 -41 21 21 21 23 -14 78 l-30 47 20 29
c25 35 26 66 2 79 -25 13 -48 -3 -83 -57 l-29 -46 0 110 c0 113 -7 134 -41
134 -9 0 -22 -6 -28 -14z"/>
<path d="M793 1019 c-49 -14 -83 -62 -83 -116 0 -82 53 -133 137 -133 70 0
133 61 133 131 0 43 -32 91 -74 110 -45 20 -65 22 -113 8z m81 -85 c19 -18 21
-55 4 -72 -7 -7 -25 -12 -40 -12 -22 0 -31 6 -39 26 -19 53 37 96 75 58z"/>
<path d="M1271 1006 c-9 -11 -12 -42 -10 -102 4 -79 6 -87 32 -110 32 -27 73
-31 104 -9 19 13 22 13 27 0 8 -22 53 -19 66 4 5 11 10 62 10 114 0 102 -9
121 -52 115 -21 -3 -23 -9 -26 -73 -3 -76 -13 -95 -48 -95 -25 0 -32 20 -36
115 -3 46 -5 50 -29 53 -14 2 -31 -4 -38 -12z"/>
</g>
</svg>
