<?xml version="1.0" standalone="no"?>
<!DOCTYPE svg PUBLIC "-//W3C//DTD SVG 20010904//EN"
 "http://www.w3.org/TR/2001/REC-SVG-20010904/DTD/svg10.dtd">
<svg version="1.0" xmlns="http://www.w3.org/2000/svg"
 width="192.000000pt" height="192.000000pt" viewBox="0 0 192.000000 192.000000"
 preserveAspectRatio="xMidYMid meet">
<metadata>
Created by potrace 1.16, written by Peter Selinger 2001-2019
</metadata>
<g transform="translate(0.000000,192.000000) scale(0.100000,-0.100000)"
fill="#000000" stroke="none">
811 c445 -92 729 -532 635 -987 -62 -301 -295 -546 -601 -630 -91 -26 -329
-26 -420 0 -291 80 -516 305 -596 596 -26 91 -26 329 0 420 120 433 542 692
982 601z"/>
<path d="M850 1337 c0 -31 -5 -37 -62 -71 -53 -31 -68 -36 -103 -31 l-40 6
-35 -63 c-52 -93 -52 -96 -27 -121 18 -18 22 -34 23 -95 1 -65 -1 -75 -22 -91
-13 -11 -24 -24 -24 -31 0 -19 82 -151 97 -157 8 -3 24 -1 36 4 18 9 34 4 87
-26 57 -32 65 -41 68 -69 l3 -33 107 3 107 3 3 30 c3 25 14 36 64 65 34 19 66
33 72 31 52 -19 60 -14 104 63 23 42 42 79 42 83 0 3 -10 17 -22 30 -18 19
-22 36 -23 99 -1 55 2 77 12 81 8 3 18 14 24 24 8 16 1 35 -33 95 l-43 76 -38
-6 c-32 -5 -49 0 -102 29 -55 31 -64 40 -67 68 l-3 32 -102 3 -103 3 0 -34z
m88 -189 c3 -23 -3 -29 -42 -47 -49 -21 -82 -64 -92 -119 -9 -46 30 -118 76
-144 67 -37 158 -12 198 54 15 25 15 28 -1 46 -23 26 -21 41 10 74 34 35 59
35 95 1 32 -31 36 -56 10 -75 -9 -7 -26 -32 -37 -56 -26 -61 -94 -118 -155
-131 -178 -38 -327 144 -250 304 25 52 37 67 85 99 52 36 99 33 103 -6z"/>
</g>
</svg>
