<?xml version="1.0" standalone="no"?>
<!DOCTYPE svg PUBLIC "-//W3C//DTD SVG 20010904//EN"
 "http://www.w3.org/TR/2001/REC-SVG-20010904/DTD/svg10.dtd">
<svg version="1.0" xmlns="http://www.w3.org/2000/svg"
 width="192.000000pt" height="192.000000pt" viewBox="0 0 192.000000 192.000000"
 preserveAspectRatio="xMidYMid meet">
<metadata>
Created by potrace 1.16, written by Peter Selinger 2001-2019
</metadata>
<g transform="translate(0.000000,192.000000) scale(0.100000,-0.100000)"
fill="#000000" stroke="none">
811 c445 -92 729 -532 635 -987 -62 -301 -295 -546 -601 -630 -91 -26 -329
-26 -420 0 -291 80 -516 305 -596 596 -26 91 -26 329 0 420 120 433 542 692
982 601z"/>
<path d="M572 1338 c-8 -8 -12 -50 -12 -123 l0 -111 253 -259 254 -260 139 0
c180 0 181 4 51 133 l-93 93 34 37 c139 147 99 379 -81 474 -37 20 -56 23
-177 23 -177 0 -177 -1 -31 -149 119 -121 131 -145 90 -182 -21 -18 -21 -18
-196 159 -175 177 -201 195 -231 165z"/>
<path d="M583 893 c-10 -3 -13 -39 -13 -128 0 -116 1 -126 24 -152 l24 -28
134 0 c180 0 180 0 0 178 -76 75 -143 137 -148 136 -5 0 -15 -3 -21 -6z"/>
</g>
</svg>
