<?xml version="1.0" standalone="no"?>
<!DOCTYPE svg PUBLIC "-//W3C//DTD SVG 20010904//EN"
 "http://www.w3.org/TR/2001/REC-SVG-20010904/DTD/svg10.dtd">
<svg version="1.0" xmlns="http://www.w3.org/2000/svg"
 width="192.000000pt" height="192.000000pt" viewBox="0 0 192.000000 192.000000"
 preserveAspectRatio="xMidYMid meet">
<metadata>
Created by potrace 1.16, written by Peter Selinger 2001-2019
</metadata>
<g transform="translate(0.000000,192.000000) scale(0.100000,-0.100000)"
fill="#000000" stroke="none">
759 c272 -64 494 -285 566 -564 28 -110 28 -280 0 -390 -71 -278 -288 -495
-566 -566 -110 -28 -280 -28 -390 0 -277 71 -494 288 -566 566 -28 110 -28
280 0 390 108 421 524 667 956 564z"/>
<path d="M633 1294 c-60 -30 -65 -56 -61 -322 3 -265 8 -282 78 -329 32 -22
39 -23 310 -23 271 0 278 1 310 23 73 49 75 57 75 267 0 175 -1 191 -21 216
-47 64 -62 69 -229 74 l-154 5 -43 42 c-24 23 -56 47 -71 52 -43 16 -157 13
-194 -5z m547 -234 c13 -8 11 -16 -11 -59 l-26 -50 24 -6 c15 -3 23 -12 21
-21 -5 -22 -141 -193 -155 -194 -22 0 -23 19 -3 69 l20 51 -29 0 c-17 0 -31 6
-35 15 -5 14 61 160 86 193 12 14 86 16 108 2z"/>
</g>
</svg>
