<?xml version="1.0" standalone="no"?>
<!DOCTYPE svg PUBLIC "-//W3C//DTD SVG 20010904//EN"
 "http://www.w3.org/TR/2001/REC-SVG-20010904/DTD/svg10.dtd">
<svg version="1.0" xmlns="http://www.w3.org/2000/svg"
 width="192.000000pt" height="192.000000pt" viewBox="0 0 192.000000 192.000000"
 preserveAspectRatio="xMidYMid meet">
<metadata>
Created by potrace 1.16, written by Peter Selinger 2001-2019
</metadata>
<g transform="translate(0.000000,192.000000) scale(0.100000,-0.100000)"
fill="#000000" stroke="none">
759 c272 -64 494 -285 566 -564 28 -110 28 -280 0 -390 -71 -278 -288 -495
-566 -566 -110 -28 -280 -28 -390 0 -277 71 -494 288 -566 566 -28 110 -28
280 0 390 108 421 524 667 956 564z"/>
<path d="M656 1264 c-9 -9 -16 -32 -16 -55 l0 -39 308 2 c299 3 307 3 307 23
0 19 -8 20 -146 23 l-146 3 -28 29 c-29 30 -29 30 -146 30 -94 0 -121 -3 -133
-16z"/>
<path d="M585 1115 c-31 -30 -31 -42 -1 -264 20 -144 28 -177 45 -195 21 -20
31 -21 310 -24 335 -4 353 0 370 65 5 21 19 114 31 207 24 183 22 203 -27 225
-16 7 -136 11 -364 11 l-340 0 -24 -25z m322 -41 c27 -7 39 -40 23 -59 -16
-19 -249 -22 -268 -3 -17 17 -15 45 6 57 18 11 202 15 239 5z m308 -149 c33
-32 34 -87 2 -119 l-23 -23 23 -34 c30 -43 29 -49 -6 -49 -23 0 -35 9 -60 48
l-31 47 0 -47 c0 -47 -1 -48 -30 -48 l-30 0 0 118 c0 65 3 122 7 125 3 4 33 7
65 7 49 0 63 -4 83 -25z"/>
<path d="M1120 871 c0 -28 3 -31 31 -31 27 0 30 3 27 28 -2 21 -9 28 -30 30
-25 3 -28 0 -28 -27z"/>
</g>
</svg>
