<?xml version="1.0" standalone="no"?>
<!DOCTYPE svg PUBLIC "-//W3C//DTD SVG 20010904//EN"
 "http://www.w3.org/TR/2001/REC-SVG-20010904/DTD/svg10.dtd">
<svg version="1.0" xmlns="http://www.w3.org/2000/svg"
 width="192.000000pt" height="192.000000pt" viewBox="0 0 192.000000 192.000000"
 preserveAspectRatio="xMidYMid meet">
<metadata>
Created by potrace 1.16, written by Peter Selinger 2001-2019
</metadata>
<g transform="translate(0.000000,192.000000) scale(0.100000,-0.100000)"
fill="#000000" stroke="none">
811 c445 -92 729 -532 635 -987 -62 -301 -295 -546 -601 -630 -91 -26 -329
-26 -420 0 -291 80 -516 305 -596 596 -26 91 -26 329 0 420 120 433 542 692
982 601z"/>
<path d="M769 1333 c-29 -15 -77 -50 -104 -78 -50 -49 -105 -142 -105 -177 0
-27 36 -58 68 -58 33 0 51 17 80 75 25 50 68 91 130 124 43 24 47 29 50 68 2
33 -1 44 -20 57 -30 21 -35 21 -99 -11z"/>
<path d="M1032 1344 c-18 -12 -22 -24 -20 -52 3 -33 9 -39 63 -70 74 -41 111
-75 137 -127 29 -57 47 -75 78 -75 32 0 60 28 60 59 0 38 -59 138 -110 185
-49 46 -136 96 -167 96 -10 0 -29 -7 -41 -16z"/>
<path d="M902 1132 c-36 -11 -93 -62 -108 -98 -30 -72 -11 -148 49 -201 110
-97 281 -16 281 133 0 115 -110 198 -222 166z"/>
<path d="M590 870 c-30 -30 -25 -61 23 -131 46 -69 118 -130 184 -155 39 -15
44 -15 68 0 19 12 25 25 25 52 0 29 -5 38 -31 52 -67 37 -111 75 -139 120 -15
26 -35 55 -44 65 -21 23 -61 22 -86 -3z"/>
<path d="M1248 878 c-8 -7 -27 -34 -41 -59 -30 -54 -76 -96 -127 -117 -50 -20
-70 -41 -70 -73 0 -30 31 -59 63 -59 30 0 116 49 164 93 52 48 103 130 103
168 0 47 -56 76 -92 47z"/>
</g>
</svg>
