<?xml version="1.0" standalone="no"?>
<!DOCTYPE svg PUBLIC "-//W3C//DTD SVG 20010904//EN"
 "http://www.w3.org/TR/2001/REC-SVG-20010904/DTD/svg10.dtd">
<svg version="1.0" xmlns="http://www.w3.org/2000/svg"
 width="192.000000pt" height="192.000000pt" viewBox="0 0 192.000000 192.000000"
 preserveAspectRatio="xMidYMid meet">
<metadata>
Created by potrace 1.16, written by Peter Selinger 2001-2019
</metadata>
<g transform="translate(0.000000,192.000000) scale(0.100000,-0.100000)"
fill="#000000" stroke="none">
811 c445 -92 729 -532 635 -987 -62 -301 -295 -546 -601 -630 -91 -26 -329
-26 -420 0 -291 80 -516 305 -596 596 -26 91 -26 329 0 420 120 433 542 692
982 601z"/>
<path d="M677 1319 c-48 -25 -85 -82 -93 -142 l-7 -47 377 0 c207 0 376 3 376
6 0 4 -44 51 -97 105 l-97 99 -210 0 c-191 -1 -215 -3 -249 -21z"/>
<path d="M580 965 l0 -105 375 0 375 0 0 105 0 105 -375 0 -375 0 0 -105z"/>
<path d="M581 773 c2 -74 59 -151 127 -171 24 -7 114 -12 232 -12 l193 0 89
88 c49 48 94 95 99 105 9 16 -11 17 -366 17 l-375 0 1 -27z"/>
</g>
</svg>
