<?xml version="1.0" standalone="no"?>
<!DOCTYPE svg PUBLIC "-//W3C//DTD SVG 20010904//EN"
 "http://www.w3.org/TR/2001/REC-SVG-20010904/DTD/svg10.dtd">
<svg version="1.0" xmlns="http://www.w3.org/2000/svg"
 width="192.000000pt" height="192.000000pt" viewBox="0 0 192.000000 192.000000"
 preserveAspectRatio="xMidYMid meet">
<metadata>
Created by potrace 1.16, written by Peter Selinger 2001-2019
</metadata>
<g transform="translate(0.000000,192.000000) scale(0.100000,-0.100000)"
fill="#000000" stroke="none">
811 c445 -92 729 -532 635 -987 -62 -301 -295 -546 -601 -630 -91 -26 -329
-26 -420 0 -291 80 -516 305 -596 596 -26 91 -26 329 0 420 120 433 542 692
982 601z"/>
<path d="M934 1351 c-50 -13 -190 -91 -244 -139 -51 -44 -63 -75 -38 -100 18
-18 56 -14 67 7 13 23 117 91 193 126 71 32 99 27 213 -44 122 -75 119 -70
123 -225 3 -106 1 -137 -12 -161 -26 -47 -207 -155 -262 -155 -37 0 -177 76
-234 128 -52 46 -83 53 -100 22 -24 -45 40 -108 192 -190 52 -28 95 -43 130
-47 48 -4 61 -1 145 41 118 60 190 116 214 169 15 35 19 67 19 183 0 128 -2
145 -23 185 -27 50 -103 109 -212 163 -76 38 -123 48 -171 37z"/>
<path d="M986 1104 c-32 -31 -11 -104 30 -104 28 0 54 21 54 43 1 20 2 20 16
-5 15 -28 52 -45 79 -34 23 8 6 36 -22 36 -20 0 -24 4 -21 23 2 14 10 22 23
22 11 0 21 8 23 18 6 30 -52 22 -77 -10 -15 -21 -20 -24 -21 -11 0 34 -57 49
-84 22z m49 -44 c0 -13 -5 -25 -11 -27 -14 -5 -25 22 -17 42 8 23 28 12 28
-15z"/>
<path d="M890 1060 c0 -38 4 -50 15 -50 10 0 15 10 15 34 0 28 4 35 22 38 41
6 32 28 -11 28 l-41 0 0 -50z"/>
<path d="M560 976 c0 -2 9 -26 21 -52 16 -38 18 -54 10 -71 -9 -20 -8 -23 8
-23 14 0 26 17 45 65 14 36 26 70 26 75 0 19 -32 10 -37 -10 -3 -11 -9 -20
-13 -20 -5 0 -12 9 -15 20 -5 16 -45 30 -45 16z"/>
<path d="M680 961 c-29 -55 3 -93 76 -89 47 3 49 4 59 41 12 44 25 39 25 -10
0 -23 5 -33 15 -33 12 0 15 13 15 55 l0 55 -40 0 c-41 0 -42 -1 -52 -65 -3
-13 -10 -19 -23 -17 -37 5 -45 11 -45 32 0 15 7 20 25 20 16 0 25 6 25 15 0
24 -67 20 -80 -4z"/>
<path d="M880 975 c0 -2 9 -26 19 -53 13 -32 16 -53 10 -64 -12 -22 9 -35 25
-17 11 12 56 121 56 135 0 2 -9 4 -19 4 -12 0 -21 -10 -26 -27 l-7 -28 -10 28
c-6 17 -17 27 -29 27 -10 0 -19 -2 -19 -5z"/>
<path d="M1000 925 c0 -42 4 -55 15 -55 9 0 17 14 21 39 4 27 12 41 25 44 34
9 20 27 -21 27 l-40 0 0 -55z"/>
<path d="M1087 954 c-2 -15 -2 -38 2 -53 6 -22 14 -26 49 -29 l42 -3 0 55 c0
43 -3 56 -15 56 -11 0 -15 -11 -15 -41 0 -52 -24 -48 -28 4 -4 43 -27 50 -35
11z"/>
</g>
</svg>
