<?xml version="1.0" standalone="no"?>
<!DOCTYPE svg PUBLIC "-//W3C//DTD SVG 20010904//EN"
 "http://www.w3.org/TR/2001/REC-SVG-20010904/DTD/svg10.dtd">
<svg version="1.0" xmlns="http://www.w3.org/2000/svg"
 width="192.000000pt" height="192.000000pt" viewBox="0 0 192.000000 192.000000"
 preserveAspectRatio="xMidYMid meet">
<metadata>
Created by potrace 1.16, written by Peter Selinger 2001-2019
</metadata>
<g transform="translate(0.000000,192.000000) scale(0.100000,-0.100000)"
fill="#000000" stroke="none">
811 c445 -92 729 -532 635 -987 -62 -301 -295 -546 -601 -630 -91 -26 -329
-26 -420 0 -291 80 -516 305 -596 596 -26 91 -26 329 0 420 120 433 542 692
982 601z"/>
<path d="M725 1332 c-90 -43 -182 -155 -154 -188 20 -25 38 -15 70 35 16 27
44 59 61 69 l32 20 47 -23 c52 -27 51 -28 89 42 12 23 20 48 17 57 -11 27 -93
20 -162 -12z"/>
<path d="M1025 1319 c-32 -9 -386 -355 -411 -401 -18 -34 -18 -81 0 -116 8
-15 53 -65 100 -110 85 -81 86 -82 138 -82 l52 0 198 197 c210 209 225 231
207 296 -10 37 -186 217 -212 217 -8 0 -21 2 -29 4 -7 2 -26 0 -43 -5z"/>
<path d="M1302 867 c-6 -7 -14 -26 -18 -42 -9 -40 -39 -98 -58 -114 -11 -10
-27 -10 -61 -3 -54 11 -60 5 -71 -76 -8 -61 4 -71 60 -52 81 26 174 144 191
242 6 30 3 38 -13 47 -15 8 -23 7 -30 -2z"/>
</g>
</svg>
