<?xml version="1.0" standalone="no"?>
<!DOCTYPE svg PUBLIC "-//W3C//DTD SVG 20010904//EN"
 "http://www.w3.org/TR/2001/REC-SVG-20010904/DTD/svg10.dtd">
<svg version="1.0" xmlns="http://www.w3.org/2000/svg"
 width="192.000000pt" height="192.000000pt" viewBox="0 0 192.000000 192.000000"
 preserveAspectRatio="xMidYMid meet">
<metadata>
Created by potrace 1.16, written by Peter Selinger 2001-2019
</metadata>
<g transform="translate(0.000000,192.000000) scale(0.100000,-0.100000)"
fill="#000000" stroke="none">
811 c445 -92 729 -532 635 -987 -62 -301 -295 -546 -601 -630 -91 -26 -329
-26 -420 0 -291 80 -516 305 -596 596 -26 91 -26 329 0 420 120 433 542 692
982 601z"/>
<path d="M715 1335 c-59 -21 -110 -81 -124 -144 -13 -60 -15 -271 -3 -271 5 0
48 54 96 120 48 66 88 120 89 120 19 -2 132 -51 131 -57 -10 -56 -14 -136 -7
-128 5 6 45 70 88 143 69 117 80 132 99 126 11 -4 44 -15 71 -24 58 -20 57
-17 30 -151 -28 -134 -4 -176 62 -106 81 85 94 125 72 229 -14 65 -73 130
-134 147 -61 17 -420 14 -470 -4z"/>
<path d="M971 854 c-40 -68 -77 -126 -81 -129 -4 -2 -35 5 -69 16 -60 21 -61
21 -60 57 0 21 4 60 9 87 4 28 7 51 5 53 -3 3 -165 -217 -172 -234 -8 -21 81
-102 119 -109 18 -3 135 -5 260 -3 l226 3 38 31 c21 16 46 46 56 65 18 36 37
159 23 159 -4 0 -20 -11 -37 -25 -48 -41 -99 -51 -152 -31 -55 21 -78 55 -85
127 l-6 57 -74 -124z"/>
</g>
</svg>
