<?xml version="1.0" standalone="no"?>
<!DOCTYPE svg PUBLIC "-//W3C//DTD SVG 20010904//EN"
 "http://www.w3.org/TR/2001/REC-SVG-20010904/DTD/svg10.dtd">
<svg version="1.0" xmlns="http://www.w3.org/2000/svg"
 width="192.000000pt" height="192.000000pt" viewBox="0 0 192.000000 192.000000"
 preserveAspectRatio="xMidYMid meet">
<metadata>
Created by potrace 1.16, written by Peter Selinger 2001-2019
</metadata>
<g transform="translate(0.000000,192.000000) scale(0.100000,-0.100000)"
fill="#000000" stroke="none">
811 c445 -92 729 -532 635 -987 -62 -301 -295 -546 -601 -630 -91 -26 -329
-26 -420 0 -291 80 -516 305 -596 596 -26 91 -26 329 0 420 120 433 542 692
982 601z"/>
<path d="M1058 1389 c-25 -14 -22 -26 10 -34 68 -16 88 -60 40 -86 -19 -10
-19 -12 12 -41 29 -26 32 -34 27 -69 -3 -21 -1 -41 4 -44 12 -8 39 49 39 84 0
22 4 29 14 25 26 -10 26 -33 -3 -96 -33 -75 -54 -96 -76 -78 -8 7 -15 18 -15
26 0 36 -20 17 -39 -36 l-20 -61 24 -35 c13 -19 29 -51 35 -70 12 -34 11 -35
-59 -110 -70 -75 -91 -116 -91 -176 0 -16 -5 -28 -11 -28 -5 0 -7 -5 -4 -10 4
-7 11 -7 18 -2 7 5 34 12 60 15 63 9 144 48 200 97 194 171 180 476 -28 632
-31 23 -54 50 -61 70 -12 36 -44 47 -76 27z"/>
<path d="M833 1355 c-186 -58 -314 -260 -283 -448 12 -75 52 -162 94 -207 26
-27 35 -47 40 -88 11 -85 28 -109 39 -54 12 51 19 54 68 33 25 -11 65 -23 89
-27 38 -6 43 -5 34 7 -6 8 -14 27 -18 43 -6 22 -3 32 14 43 12 8 32 40 46 71
14 32 38 71 55 88 l29 30 -22 12 c-21 11 -29 8 -83 -40 -88 -78 -171 -160
-182 -182 -8 -15 -14 -16 -32 -7 -23 13 -28 31 -8 31 7 0 26 26 41 58 16 34
40 66 59 78 37 24 81 123 82 184 1 20 11 53 24 73 14 23 25 60 28 97 6 60 6
60 -21 60 -34 0 -48 -34 -44 -111 3 -62 -2 -75 -26 -66 -13 5 -15 23 -12 99 4
87 5 93 32 115 39 31 89 46 131 40 32 -6 35 -4 29 16 -3 12 -6 32 -6 45 0 21
-4 22 -77 21 -43 0 -97 -6 -120 -14z"/>
</g>
</svg>
