<?xml version="1.0" standalone="no"?>
<!DOCTYPE svg PUBLIC "-//W3C//DTD SVG 20010904//EN"
 "http://www.w3.org/TR/2001/REC-SVG-20010904/DTD/svg10.dtd">
<svg version="1.0" xmlns="http://www.w3.org/2000/svg"
 width="192.000000pt" height="192.000000pt" viewBox="0 0 192.000000 192.000000"
 preserveAspectRatio="xMidYMid meet">
<metadata>
Created by potrace 1.16, written by Peter Selinger 2001-2019
</metadata>
<g transform="translate(0.000000,192.000000) scale(0.100000,-0.100000)"
fill="#000000" stroke="none">
811 c445 -92 729 -532 635 -987 -62 -301 -295 -546 -601 -630 -91 -26 -329
-26 -420 0 -291 80 -516 305 -596 596 -26 91 -26 329 0 420 120 433 542 692
982 601z"/>
<path d="M1015 1228 c-36 -19 -55 -52 -55 -95 0 -36 15 -68 95 -205 53 -90
107 -173 121 -185 18 -17 38 -23 71 -23 38 0 50 5 79 34 56 56 51 81 -67 283
-55 95 -110 180 -122 188 -25 17 -93 19 -122 3z"/>
<path d="M794 1018 c-54 -50 -51 -93 16 -202 53 -88 85 -116 135 -116 61 0
115 55 115 117 0 37 -98 201 -130 219 -45 24 -96 18 -136 -18z"/>
<path d="M628 855 c-60 -32 -91 -71 -83 -105 13 -51 31 -60 120 -60 65 0 85 4
97 18 28 31 30 59 9 100 -36 71 -73 83 -143 47z"/>
</g>
</svg>
