<?xml version="1.0" standalone="no"?>
<!DOCTYPE svg PUBLIC "-//W3C//DTD SVG 20010904//EN"
 "http://www.w3.org/TR/2001/REC-SVG-20010904/DTD/svg10.dtd">
<svg version="1.0" xmlns="http://www.w3.org/2000/svg"
 width="192.000000pt" height="192.000000pt" viewBox="0 0 192.000000 192.000000"
 preserveAspectRatio="xMidYMid meet">
<metadata>
Created by potrace 1.16, written by Peter Selinger 2001-2019
</metadata>
<g transform="translate(0.000000,192.000000) scale(0.100000,-0.100000)"
fill="#000000" stroke="none">
811 c445 -92 729 -532 635 -987 -62 -301 -295 -546 -601 -630 -91 -26 -329
-26 -420 0 -291 80 -516 305 -596 596 -26 91 -26 329 0 420 120 433 542 692
982 601z"/>
<path d="M870 1359 c-117 -23 -220 -105 -273 -217 l-32 -67 -3 -224 c-4 -243
-1 -261 47 -281 53 -22 101 16 101 79 l0 30 58 -30 c102 -53 242 -55 340 -5
l47 24 40 -39 c54 -52 95 -60 129 -26 39 39 35 78 -15 132 l-41 44 27 68 c24
59 27 77 23 157 -3 80 -8 99 -38 154 -56 106 -150 176 -268 201 -60 12 -78 12
-142 0z m188 -185 c107 -63 138 -216 63 -319 -82 -114 -258 -119 -349 -10
-104 127 -46 303 118 356 40 13 121 0 168 -27z"/>
</g>
</svg>
