<?xml version="1.0" standalone="no"?>
<!DOCTYPE svg PUBLIC "-//W3C//DTD SVG 20010904//EN"
 "http://www.w3.org/TR/2001/REC-SVG-20010904/DTD/svg10.dtd">
<svg version="1.0" xmlns="http://www.w3.org/2000/svg"
 width="192.000000pt" height="192.000000pt" viewBox="0 0 192.000000 192.000000"
 preserveAspectRatio="xMidYMid meet">
<metadata>
Created by potrace 1.16, written by Peter Selinger 2001-2019
</metadata>
<g transform="translate(0.000000,192.000000) scale(0.100000,-0.100000)"
fill="#000000" stroke="none">
811 c445 -92 729 -532 635 -987 -62 -301 -295 -546 -601 -630 -91 -26 -329
-26 -420 0 -291 80 -516 305 -596 596 -26 91 -26 329 0 420 120 433 542 692
982 601z"/>
<path d="M860 1334 c-8 -4 -32 -23 -52 -42 -21 -20 -38 -31 -38 -24 0 25 -40
52 -77 52 -52 0 -64 -10 -70 -60 -5 -34 -2 -46 12 -56 16 -12 15 -15 -19 -35
-41 -24 -42 -31 -20 -99 34 -106 82 -169 193 -255 84 -65 114 -95 160 -165 32
-47 64 -85 72 -85 23 0 15 52 -21 140 -27 65 -45 92 -95 140 -38 36 -75 85
-94 122 -17 34 -40 67 -52 73 -16 9 -19 17 -14 38 10 41 41 78 82 97 38 18
106 17 241 -3 97 -15 239 21 281 72 21 25 3 39 -38 31 -59 -12 -116 -6 -224
26 -103 30 -200 44 -227 33z"/>
<path d="M898 1153 c-20 -23 -46 -107 -50 -158 -3 -34 0 -40 17 -43 16 -2 25
11 50 75 17 42 34 87 40 100 7 18 6 26 -5 33 -22 14 -35 12 -52 -7z"/>
<path d="M957 1098 c-54 -117 -73 -223 -39 -223 16 0 132 242 125 261 -3 8
-18 14 -33 14 -25 0 -32 -7 -53 -52z"/>
<path d="M1077 1135 c-51 -50 -131 -275 -114 -318 11 -29 35 -19 47 21 7 20
39 88 72 150 34 64 58 122 56 135 -4 27 -39 34 -61 12z"/>
<path d="M1178 1137 c-7 -8 -41 -72 -75 -143 -71 -146 -104 -254 -87 -282 6
-9 15 -17 20 -17 5 0 25 42 46 92 21 51 61 129 89 174 61 97 81 148 67 172
-11 20 -42 22 -60 4z"/>
</g>
</svg>
