<?xml version="1.0" standalone="no"?>
<!DOCTYPE svg PUBLIC "-//W3C//DTD SVG 20010904//EN"
 "http://www.w3.org/TR/2001/REC-SVG-20010904/DTD/svg10.dtd">
<svg version="1.0" xmlns="http://www.w3.org/2000/svg"
 width="192.000000pt" height="192.000000pt" viewBox="0 0 192.000000 192.000000"
 preserveAspectRatio="xMidYMid meet">
<metadata>
Created by potrace 1.16, written by Peter Selinger 2001-2019
</metadata>
<g transform="translate(0.000000,192.000000) scale(0.100000,-0.100000)"
fill="#000000" stroke="none">
811 c445 -92 729 -532 635 -987 -62 -301 -295 -546 -601 -630 -91 -26 -329
-26 -420 0 -291 80 -516 305 -596 596 -26 91 -26 329 0 420 120 433 542 692
982 601z"/>
<path d="M918 1370 c-48 -14 -272 -148 -303 -180 l-30 -31 -3 -186 c-4 -237
-10 -226 184 -338 188 -108 190 -108 379 1 194 112 187 99 183 336 l-3 187
-30 31 c-36 38 -278 176 -320 183 -16 3 -42 2 -57 -3z m126 -247 c45 -25 84
-51 88 -57 13 -19 9 -191 -4 -208 -18 -21 -153 -98 -173 -98 -20 0 -155 77
-172 98 -14 17 -18 189 -5 208 8 13 163 104 176 104 5 0 45 -21 90 -47z"/>
<path d="M909 1027 c-89 -60 -7 -183 88 -132 57 31 59 95 4 132 -42 29 -50 29
-92 0z"/>
</g>
</svg>
