<?xml version="1.0" standalone="no"?>
<!DOCTYPE svg PUBLIC "-//W3C//DTD SVG 20010904//EN"
 "http://www.w3.org/TR/2001/REC-SVG-20010904/DTD/svg10.dtd">
<svg version="1.0" xmlns="http://www.w3.org/2000/svg"
 width="192.000000pt" height="192.000000pt" viewBox="0 0 192.000000 192.000000"
 preserveAspectRatio="xMidYMid meet">
<metadata>
Created by potrace 1.16, written by Peter Selinger 2001-2019
</metadata>
<g transform="translate(0.000000,192.000000) scale(0.100000,-0.100000)"
fill="#000000" stroke="none">
811 c445 -92 729 -532 635 -987 -62 -301 -295 -546 -601 -630 -91 -26 -329
-26 -420 0 -291 80 -516 305 -596 596 -26 91 -26 329 0 420 120 433 542 692
982 601z"/>
<path d="M917 1332 c-18 -19 -22 -59 -9 -78 41 -63 139 -11 113 60 -16 39 -75
50 -104 18z"/>
<path d="M796 1169 c-24 -19 -26 -26 -26 -105 l0 -84 145 0 c138 0 145 -1 145
-20 0 -19 -7 -20 -145 -20 l-145 0 0 -25 c0 -13 10 -33 22 -45 20 -18 35 -20
169 -20 190 0 193 2 194 121 l0 84 -147 3 c-140 2 -148 4 -148 22 0 19 7 20
150 20 l150 0 -6 28 c-13 56 -32 62 -189 62 -129 0 -145 -2 -169 -21z"/>
<path d="M707 784 c-4 -4 -7 -16 -7 -26 0 -13 7 -18 25 -18 25 0 25 -1 25 -80
0 -79 0 -80 25 -80 25 0 25 1 25 80 0 79 0 80 26 80 21 0 25 4 22 23 -3 20 -9
22 -68 25 -36 2 -69 0 -73 -4z"/>
<path d="M890 770 c-18 -18 -20 -31 -18 -103 3 -80 4 -82 28 -82 20 0 26 6 28
28 2 19 9 27 23 27 14 0 19 -7 19 -30 0 -25 4 -30 25 -30 25 0 25 1 25 89 0
104 -10 121 -71 121 -26 0 -46 -7 -59 -20z m78 -52 c-5 -34 -38 -37 -38 -4 0
20 5 26 21 26 15 0 20 -5 17 -22z"/>
<path d="M1067 783 c-4 -3 -7 -51 -7 -105 0 -97 0 -98 24 -98 22 0 25 5 28 43
l3 42 23 -42 c17 -33 28 -43 48 -43 l25 0 -3 103 c-3 94 -4 102 -23 102 -17 0
-21 -8 -23 -45 l-3 -44 -30 47 c-27 44 -46 56 -62 40z"/>
</g>
</svg>
