<?xml version="1.0" standalone="no"?>
<!DOCTYPE svg PUBLIC "-//W3C//DTD SVG 20010904//EN"
 "http://www.w3.org/TR/2001/REC-SVG-20010904/DTD/svg10.dtd">
<svg version="1.0" xmlns="http://www.w3.org/2000/svg"
 width="192.000000pt" height="192.000000pt" viewBox="0 0 192.000000 192.000000"
 preserveAspectRatio="xMidYMid meet">
<metadata>
Created by potrace 1.16, written by Peter Selinger 2001-2019
</metadata>
<g transform="translate(0.000000,192.000000) scale(0.100000,-0.100000)"
fill="#000000" stroke="none">
811 c445 -92 729 -532 635 -987 -62 -301 -295 -546 -601 -630 -91 -26 -329
-26 -420 0 -291 80 -516 305 -596 596 -26 91 -26 329 0 420 120 433 542 692
982 601z"/>
<path d="M653 1331 c-63 -29 -83 -69 -83 -162 l0 -77 55 -41 c108 -81 198
-230 232 -383 15 -66 22 -80 40 -85 36 -8 48 2 62 48 38 130 169 298 294 378
94 60 89 53 85 152 -4 102 -19 131 -88 167 -34 17 -61 22 -120 22 -41 0 -81
-4 -89 -9 -11 -7 -14 -36 -12 -133 1 -75 -4 -158 -14 -213 -19 -113 -84 -325
-99 -325 -7 0 -16 40 -24 98 -14 120 -52 287 -93 412 -56 175 -68 187 -146
151z"/>
<path d="M1230 757 c-115 -39 -240 -128 -227 -161 6 -16 19 -18 125 -15 104 4
121 7 151 28 52 37 80 128 49 159 -16 16 -22 15 -98 -11z"/>
<path d="M577 743 c-17 -17 -6 -83 19 -112 32 -39 81 -53 164 -49 53 2 65 6
68 21 10 52 -214 177 -251 140z"/>
</g>
</svg>
