<?xml version="1.0" standalone="no"?>
<!DOCTYPE svg PUBLIC "-//W3C//DTD SVG 20010904//EN"
 "http://www.w3.org/TR/2001/REC-SVG-20010904/DTD/svg10.dtd">
<svg version="1.0" xmlns="http://www.w3.org/2000/svg"
 width="192.000000pt" height="192.000000pt" viewBox="0 0 192.000000 192.000000"
 preserveAspectRatio="xMidYMid meet">
<metadata>
Created by potrace 1.16, written by Peter Selinger 2001-2019
</metadata>
<g transform="translate(0.000000,192.000000) scale(0.100000,-0.100000)"
fill="#000000" stroke="none">
811 c445 -92 729 -532 635 -987 -62 -301 -295 -546 -601 -630 -91 -26 -329
-26 -420 0 -291 80 -516 305 -596 596 -26 91 -26 329 0 420 120 433 542 692
982 601z"/>
<path d="M608 1345 c-17 -10 -31 -29 -37 -53 -14 -48 -14 -505 -1 -554 17 -61
37 -68 180 -68 138 0 155 -6 168 -55 7 -24 14 -30 37 -30 23 0 30 6 37 30 13
50 30 55 170 55 124 0 130 1 153 25 l25 24 0 294 c0 369 9 353 -195 345 -97
-3 -107 -6 -147 -34 l-43 -30 -43 30 c-42 30 -48 31 -160 34 -90 2 -123 -1
-144 -13z m257 -180 l0 -30 -80 0 c-69 0 -80 2 -83 18 -7 36 17 48 92 45 l71
-3 0 -30z m335 20 c6 -8 10 -22 8 -32 -3 -16 -14 -18 -83 -18 -69 0 -80 2 -83
18 -8 39 5 47 76 47 49 0 73 -4 82 -15z m-346 -141 c22 -9 20 -51 -3 -64 -11
-5 -41 -10 -66 -10 -25 0 -55 5 -66 10 -21 12 -25 40 -7 58 12 12 114 17 142
6z m344 -6 c18 -18 14 -46 -7 -58 -11 -5 -41 -10 -66 -10 -25 0 -55 5 -66 10
-18 10 -26 50 -12 63 11 12 138 8 151 -5z m-334 -160 c21 -34 -4 -53 -73 -56
-65 -3 -91 7 -91 37 0 32 22 42 89 39 48 -2 67 -7 75 -20z m340 0 c21 -34 -4
-53 -76 -56 -71 -3 -103 13 -91 46 11 28 25 32 92 30 48 -2 67 -7 75 -20z"/>
</g>
</svg>
