<?xml version="1.0" standalone="no"?>
<!DOCTYPE svg PUBLIC "-//W3C//DTD SVG 20010904//EN"
 "http://www.w3.org/TR/2001/REC-SVG-20010904/DTD/svg10.dtd">
<svg version="1.0" xmlns="http://www.w3.org/2000/svg"
 width="192.000000pt" height="192.000000pt" viewBox="0 0 192.000000 192.000000"
 preserveAspectRatio="xMidYMid meet">
<metadata>
Created by potrace 1.16, written by Peter Selinger 2001-2019
</metadata>
<g transform="translate(0.000000,192.000000) scale(0.100000,-0.100000)"
fill="#000000" stroke="none">
811 c445 -92 729 -532 635 -987 -62 -301 -295 -546 -601 -630 -91 -26 -329
-26 -420 0 -291 80 -516 305 -596 596 -26 91 -26 329 0 420 120 433 542 692
982 601z"/>
<path d="M829 1361 c-264 -85 -369 -403 -210 -635 65 -93 213 -181 264 -155
63 33 94 96 81 167 -5 29 -27 58 -99 132 -51 52 -100 110 -110 129 -40 79 -27
202 29 275 31 42 110 84 177 95 l54 9 -65 0 c-37 1 -89 -7 -121 -17z"/>
<path d="M1003 1350 c-41 -25 -63 -68 -63 -122 0 -57 28 -100 117 -182 88 -82
114 -132 115 -221 1 -117 -64 -209 -172 -243 -19 -6 -48 -16 -65 -21 l-30 -9
36 -1 c155 -4 310 91 378 231 59 119 57 251 -3 373 -43 86 -102 144 -191 186
-71 34 -80 35 -122 9z"/>
</g>
</svg>
