<?xml version="1.0" standalone="no"?>
<!DOCTYPE svg PUBLIC "-//W3C//DTD SVG 20010904//EN"
 "http://www.w3.org/TR/2001/REC-SVG-20010904/DTD/svg10.dtd">
<svg version="1.0" xmlns="http://www.w3.org/2000/svg"
 width="192.000000pt" height="192.000000pt" viewBox="0 0 192.000000 192.000000"
 preserveAspectRatio="xMidYMid meet">
<metadata>
Created by potrace 1.16, written by Peter Selinger 2001-2019
</metadata>
<g transform="translate(0.000000,192.000000) scale(0.100000,-0.100000)"
fill="#000000" stroke="none">
811 c445 -92 729 -532 635 -987 -62 -301 -295 -546 -601 -630 -91 -26 -329
-26 -420 0 -291 80 -516 305 -596 596 -26 91 -26 329 0 420 120 433 542 692
982 601z"/>
<path d="M879 1328 c-92 -24 -177 -128 -187 -228 -3 -38 -9 -51 -24 -56 -32
-10 -88 -64 -111 -108 -28 -54 -29 -155 -3 -206 25 -49 64 -88 111 -113 38
-21 53 -22 290 -22 225 0 254 2 288 19 146 73 183 260 74 374 -18 19 -44 40
-58 47 -21 11 -28 24 -34 62 -25 169 -183 275 -346 231z m-49 -403 c16 -8 34
-24 40 -35 10 -18 21 -20 109 -20 84 0 100 -3 115 -19 14 -15 15 -24 6 -40
-12 -24 -26 -27 -33 -8 -3 9 -8 9 -21 -2 -15 -13 -19 -13 -27 0 -8 12 -10 12
-19 -1 -9 -13 -12 -13 -24 3 -12 15 -14 16 -20 2 -3 -9 -18 -15 -39 -15 -25 0
-38 -7 -55 -30 -59 -79 -186 -43 -198 57 -11 91 82 151 166 108z"/>
<path d="M755 856 c-20 -15 -17 -44 7 -59 12 -8 21 -7 32 2 36 30 -1 85 -39
57z"/>
</g>
</svg>
