<?xml version="1.0" standalone="no"?>
<!DOCTYPE svg PUBLIC "-//W3C//DTD SVG 20010904//EN"
 "http://www.w3.org/TR/2001/REC-SVG-20010904/DTD/svg10.dtd">
<svg version="1.0" xmlns="http://www.w3.org/2000/svg"
 width="192.000000pt" height="192.000000pt" viewBox="0 0 192.000000 192.000000"
 preserveAspectRatio="xMidYMid meet">
<metadata>
Created by potrace 1.16, written by Peter Selinger 2001-2019
</metadata>
<g transform="translate(0.000000,192.000000) scale(0.100000,-0.100000)"
fill="#000000" stroke="none">
811 c445 -92 729 -532 635 -987 -62 -301 -295 -546 -601 -630 -91 -26 -329
-26 -420 0 -291 80 -516 305 -596 596 -26 91 -26 329 0 420 120 433 542 692
982 601z"/>
<path d="M655 1348 c-26 -23 -28 -32 -35 -124 -4 -54 -15 -117 -23 -139 -20
-50 -20 -70 -1 -120 8 -22 21 -72 29 -111 16 -87 41 -138 97 -194 65 -66 135
-94 233 -94 65 0 91 5 135 25 108 50 182 154 196 274 4 33 13 69 20 80 23 37
26 88 8 135 -9 25 -20 90 -24 144 -7 92 -9 101 -35 124 -35 30 -79 25 -139
-15 -39 -25 -47 -27 -161 -27 -115 -1 -122 0 -160 27 -59 40 -104 45 -140 15z
m114 -80 l43 -31 142 -1 141 -1 44 32 c66 49 81 45 81 -21 l0 -54 -36 9 c-42
12 -86 4 -132 -22 -30 -17 -35 -18 -55 -4 -27 19 -57 19 -84 0 -20 -14 -25
-13 -55 4 -46 26 -90 34 -132 22 l-36 -9 0 54 c0 66 14 70 79 22z m208 -139
c7 -7 6 -22 -4 -52 -27 -78 12 -169 89 -208 32 -16 54 -20 99 -17 58 4 58 4
52 -21 -16 -69 -71 -138 -138 -174 -31 -17 -57 -22 -120 -22 -63 0 -89 5 -120
22 -67 36 -122 105 -138 173 -6 25 -6 25 67 25 64 0 77 3 109 28 64 49 89 123
64 194 -14 42 -8 63 18 63 6 0 16 -5 22 -11z"/>
<path d="M913 854 c-3 -8 -1 -20 6 -27 20 -20 13 -53 -15 -65 -27 -13 -58 -3
-67 20 -3 10 -8 10 -17 2 -17 -17 2 -48 39 -63 24 -11 35 -10 63 3 31 15 37
15 67 0 27 -13 37 -14 62 -4 32 13 54 44 44 60 -4 6 -18 1 -35 -12 -28 -20
-30 -20 -54 -4 -27 17 -34 44 -15 63 21 21 2 43 -36 43 -23 0 -38 -6 -42 -16z"/>
</g>
</svg>
