<?xml version="1.0" standalone="no"?>
<!DOCTYPE svg PUBLIC "-//W3C//DTD SVG 20010904//EN"
 "http://www.w3.org/TR/2001/REC-SVG-20010904/DTD/svg10.dtd">
<svg version="1.0" xmlns="http://www.w3.org/2000/svg"
 width="192.000000pt" height="192.000000pt" viewBox="0 0 192.000000 192.000000"
 preserveAspectRatio="xMidYMid meet">
<metadata>
Created by potrace 1.16, written by Peter Selinger 2001-2019
</metadata>
<g transform="translate(0.000000,192.000000) scale(0.100000,-0.100000)"
fill="#000000" stroke="none">
811 c445 -92 729 -532 635 -987 -62 -301 -295 -546 -601 -630 -91 -26 -329
-26 -420 0 -291 80 -516 305 -596 596 -26 91 -26 329 0 420 120 433 542 692
982 601z"/>
<path d="M656 1348 c-25 -21 -29 -33 -33 -99 -4 -48 -11 -80 -22 -92 -21 -25
-21 -125 0 -158 10 -14 18 -57 21 -106 4 -57 14 -99 31 -136 115 -252 476
-258 598 -11 26 53 33 81 37 147 3 51 11 91 21 106 21 33 21 133 0 157 -11 13
-18 43 -21 93 -3 66 -7 76 -33 98 -35 31 -78 27 -139 -14 -39 -25 -47 -27
-161 -27 -115 -1 -122 0 -160 27 -58 40 -104 45 -139 15z m115 -81 l44 -32
141 1 142 1 43 31 c67 50 79 45 79 -33 l0 -65 -265 0 -265 0 0 65 c0 57 2 65
19 65 10 0 38 -15 62 -33z m194 -167 c-10 -32 14 -99 52 -140 41 -46 96 -65
160 -56 l43 6 0 -38 c-1 -77 -64 -172 -145 -215 -31 -17 -57 -22 -120 -22 -63
0 -89 5 -120 22 -81 43 -144 138 -145 215 l0 37 49 -6 c63 -7 113 10 155 53
35 36 62 109 53 144 -3 13 0 20 10 20 10 0 12 -6 8 -20z"/>
<path d="M913 854 c-3 -8 -1 -20 6 -27 20 -20 13 -53 -15 -65 -27 -13 -58 -3
-67 20 -3 10 -8 10 -17 2 -17 -17 2 -48 39 -63 24 -11 35 -10 63 3 31 15 37
15 67 0 27 -13 37 -14 62 -4 32 13 54 44 44 60 -4 6 -18 1 -35 -12 -28 -20
-30 -20 -54 -4 -27 17 -34 44 -15 63 21 21 2 43 -36 43 -23 0 -38 -6 -42 -16z"/>
</g>
</svg>
