<?xml version="1.0" standalone="no"?>
<!DOCTYPE svg PUBLIC "-//W3C//DTD SVG 20010904//EN"
 "http://www.w3.org/TR/2001/REC-SVG-20010904/DTD/svg10.dtd">
<svg version="1.0" xmlns="http://www.w3.org/2000/svg"
 width="192.000000pt" height="192.000000pt" viewBox="0 0 192.000000 192.000000"
 preserveAspectRatio="xMidYMid meet">
<metadata>
Created by potrace 1.16, written by Peter Selinger 2001-2019
</metadata>
<g transform="translate(0.000000,192.000000) scale(0.100000,-0.100000)"
fill="#000000" stroke="none">
811 c445 -92 729 -532 635 -987 -62 -301 -295 -546 -601 -630 -91 -26 -329
-26 -420 0 -291 80 -516 305 -596 596 -26 91 -26 329 0 420 120 433 542 692
982 601z"/>
<path d="M820 1352 c-19 -9 -45 -32 -57 -51 -22 -32 -23 -44 -23 -192 l0 -158
28 -15 c15 -7 73 -28 130 -45 l103 -32 -3 -62 -3 -62 -42 -3 -42 -3 -3 58 -3
58 -80 0 -80 0 0 -102 c0 -99 1 -103 30 -133 40 -42 84 -53 202 -48 83 2 107
7 130 24 53 39 63 74 63 230 0 96 -4 145 -12 157 -7 9 -65 34 -128 55 l-115
39 -3 67 -3 67 43 -3 43 -3 3 -50 c2 -27 8 -55 14 -62 14 -17 119 -17 142 0
16 11 18 26 15 104 -6 148 -47 183 -214 183 -75 0 -109 -4 -135 -18z"/>
</g>
</svg>
