<?xml version="1.0" standalone="no"?>
<!DOCTYPE svg PUBLIC "-//W3C//DTD SVG 20010904//EN"
 "http://www.w3.org/TR/2001/REC-SVG-20010904/DTD/svg10.dtd">
<svg version="1.0" xmlns="http://www.w3.org/2000/svg"
 width="192.000000pt" height="192.000000pt" viewBox="0 0 192.000000 192.000000"
 preserveAspectRatio="xMidYMid meet">
<metadata>
Created by potrace 1.16, written by Peter Selinger 2001-2019
</metadata>
<g transform="translate(0.000000,192.000000) scale(0.100000,-0.100000)"
fill="#000000" stroke="none">
811 c445 -92 729 -532 635 -987 -62 -301 -295 -546 -601 -630 -91 -26 -329
-26 -420 0 -291 80 -516 305 -596 596 -26 91 -26 329 0 420 120 433 542 692
982 601z"/>
<path d="M671 1344 c-33 -42 -27 -69 31 -131 69 -72 99 -88 136 -71 35 17 55
59 43 90 -5 12 -36 49 -69 81 -71 67 -107 75 -141 31z"/>
<path d="M1032 1248 c-68 -68 -131 -137 -138 -155 -9 -22 -14 -73 -14 -158 l0
-125 -48 0 c-49 0 -82 -20 -82 -50 0 -22 182 -200 205 -200 25 0 205 177 205
202 0 31 -29 48 -81 48 l-49 0 0 112 0 112 115 116 c126 128 138 154 92 198
-47 44 -69 33 -205 -100z"/>
</g>
</svg>
