<?xml version="1.0" standalone="no"?>
<!DOCTYPE svg PUBLIC "-//W3C//DTD SVG 20010904//EN"
 "http://www.w3.org/TR/2001/REC-SVG-20010904/DTD/svg10.dtd">
<svg version="1.0" xmlns="http://www.w3.org/2000/svg"
 width="192.000000pt" height="192.000000pt" viewBox="0 0 192.000000 192.000000"
 preserveAspectRatio="xMidYMid meet">
<metadata>
Created by potrace 1.16, written by Peter Selinger 2001-2019
</metadata>
<g transform="translate(0.000000,192.000000) scale(0.100000,-0.100000)"
fill="#000000" stroke="none">
811 c445 -92 729 -532 635 -987 -62 -301 -295 -546 -601 -630 -91 -26 -329
-26 -420 0 -291 80 -516 305 -596 596 -26 91 -26 329 0 420 120 433 542 692
982 601z"/>
<path d="M874 1346 c-70 -17 -134 -57 -183 -112 -42 -48 -81 -135 -81 -183 0
-18 -10 -37 -29 -54 -37 -32 -45 -71 -39 -189 4 -84 6 -93 32 -114 19 -17 39
-24 70 -24 l43 0 5 198 c5 225 14 259 90 327 55 50 101 68 174 68 108 -1 216
-81 244 -181 5 -20 10 -121 10 -224 l0 -188 50 0 c41 0 56 5 75 25 24 23 25
30 25 145 0 120 0 122 -29 150 -18 18 -31 44 -35 71 -32 198 -232 333 -422
285z"/>
<path d="M732 998 c-14 -14 -17 -294 -3 -316 5 -8 17 -12 27 -10 18 3 19 15
19 168 0 139 -2 165 -15 168 -9 1 -21 -3 -28 -10z"/>
<path d="M1132 998 c-19 -19 -17 -302 3 -318 8 -7 22 -10 30 -6 23 8 18 329
-5 334 -9 1 -21 -3 -28 -10z"/>
</g>
</svg>
