<?xml version="1.0" standalone="no"?>
<!DOCTYPE svg PUBLIC "-//W3C//DTD SVG 20010904//EN"
 "http://www.w3.org/TR/2001/REC-SVG-20010904/DTD/svg10.dtd">
<svg version="1.0" xmlns="http://www.w3.org/2000/svg"
 width="192.000000pt" height="192.000000pt" viewBox="0 0 192.000000 192.000000"
 preserveAspectRatio="xMidYMid meet">
<metadata>
Created by potrace 1.16, written by Peter Selinger 2001-2019
</metadata>
<g transform="translate(0.000000,192.000000) scale(0.100000,-0.100000)"
fill="#000000" stroke="none">
811 c445 -92 729 -532 635 -987 -62 -301 -295 -546 -601 -630 -91 -26 -329
-26 -420 0 -291 80 -516 305 -596 596 -26 91 -26 329 0 420 120 433 542 692
982 601z"/>
<path d="M896 1355 c-60 -21 -89 -46 -116 -102 -25 -50 -25 -50 -82 -56 -93
-8 -148 -62 -148 -146 0 -77 50 -384 68 -414 9 -17 30 -39 45 -51 27 -20 40
-21 292 -21 251 0 265 1 291 21 58 43 65 62 95 265 16 107 27 208 24 226 -12
69 -85 123 -165 123 -38 0 -41 3 -56 40 -21 52 -83 105 -139 119 -54 14 -61
13 -109 -4z m154 -112 l35 -38 -119 -3 c-65 -1 -121 -1 -123 2 -9 9 20 48 50
67 51 32 112 21 157 -28z"/>
</g>
</svg>
