<?xml version="1.0" standalone="no"?>
<!DOCTYPE svg PUBLIC "-//W3C//DTD SVG 20010904//EN"
 "http://www.w3.org/TR/2001/REC-SVG-20010904/DTD/svg10.dtd">
<svg version="1.0" xmlns="http://www.w3.org/2000/svg"
 width="192.000000pt" height="192.000000pt" viewBox="0 0 192.000000 192.000000"
 preserveAspectRatio="xMidYMid meet">
<metadata>
Created by potrace 1.16, written by Peter Selinger 2001-2019
</metadata>
<g transform="translate(0.000000,192.000000) scale(0.100000,-0.100000)"
fill="#000000" stroke="none">
811 c445 -92 729 -532 635 -987 -62 -301 -295 -546 -601 -630 -91 -26 -329
-26 -420 0 -291 80 -516 305 -596 596 -26 91 -26 329 0 420 120 433 542 692
982 601z"/>
<path d="M735 1341 c-57 -15 -96 -42 -126 -89 l-29 -46 0 -233 c0 -177 3 -242
14 -266 17 -39 71 -92 109 -106 38 -15 466 -15 504 0 38 14 92 67 109 106 11
24 14 89 14 266 l0 233 -29 47 c-19 28 -46 55 -73 69 -40 21 -56 23 -253 25
-115 1 -223 -2 -240 -6z m282 -201 c53 -32 63 -103 22 -161 -17 -24 -18 -35
-9 -104 12 -98 8 -105 -75 -105 -83 0 -87 7 -75 105 9 69 8 80 -9 104 -25 37
-31 66 -20 107 12 41 58 74 104 74 17 0 44 -9 62 -20z"/>
</g>
</svg>
