<?xml version="1.0" standalone="no"?>
<!DOCTYPE svg PUBLIC "-//W3C//DTD SVG 20010904//EN"
 "http://www.w3.org/TR/2001/REC-SVG-20010904/DTD/svg10.dtd">
<svg version="1.0" xmlns="http://www.w3.org/2000/svg"
 width="192.000000pt" height="192.000000pt" viewBox="0 0 192.000000 192.000000"
 preserveAspectRatio="xMidYMid meet">
<metadata>
Created by potrace 1.16, written by Peter Selinger 2001-2019
</metadata>
<g transform="translate(0.000000,192.000000) scale(0.100000,-0.100000)"
fill="#000000" stroke="none">
811 c445 -92 729 -532 635 -987 -62 -301 -295 -546 -601 -630 -91 -26 -329
-26 -420 0 -291 80 -516 305 -596 596 -26 91 -26 329 0 420 120 433 542 692
982 601z"/>
<path d="M624 1373 c-12 -2 -32 -15 -45 -29 -20 -22 -24 -38 -28 -105 -2 -49
2 -91 9 -110 24 -57 37 -59 389 -59 l321 0 32 29 c33 29 33 30 33 125 0 91 -1
97 -28 123 l-27 28 -318 1 c-174 1 -327 0 -338 -3z"/>
<path d="M622 1018 c-17 -17 -15 -84 4 -102 12 -13 41 -16 150 -16 l134 0 0
-45 c0 -38 -3 -45 -20 -45 -19 0 -20 -7 -20 -89 0 -110 10 -138 54 -156 39
-16 60 -12 94 18 20 19 22 29 22 123 0 93 -2 102 -20 107 -18 5 -20 14 -20 81
0 64 -3 77 -19 86 -11 5 -78 10 -150 10 -120 0 -131 2 -141 20 -12 22 -49 27
-68 8z"/>
<path d="M1198 943 c-71 -74 -77 -126 -24 -179 27 -27 42 -34 74 -34 72 0 126
72 102 136 -12 32 -88 114 -105 114 -6 0 -27 -17 -47 -37z"/>
</g>
</svg>
