<?xml version="1.0" standalone="no"?>
<!DOCTYPE svg PUBLIC "-//W3C//DTD SVG 20010904//EN"
 "http://www.w3.org/TR/2001/REC-SVG-20010904/DTD/svg10.dtd">
<svg version="1.0" xmlns="http://www.w3.org/2000/svg"
 width="192.000000pt" height="192.000000pt" viewBox="0 0 192.000000 192.000000"
 preserveAspectRatio="xMidYMid meet">
<metadata>
Created by potrace 1.16, written by Peter Selinger 2001-2019
</metadata>
<g transform="translate(0.000000,192.000000) scale(0.100000,-0.100000)"
fill="#000000" stroke="none">
811 c445 -92 729 -532 635 -987 -62 -301 -295 -546 -601 -630 -91 -26 -329
-26 -420 0 -291 80 -516 305 -596 596 -26 91 -26 329 0 420 120 433 542 692
982 601z"/>
<path d="M695 1323 c-44 -23 -74 -53 -96 -95 -17 -33 -19 -61 -19 -260 0 -212
1 -226 23 -268 13 -26 40 -57 65 -75 l44 -30 243 0 243 0 44 30 c25 18 53 49
66 75 22 44 23 52 20 282 l-3 236 -31 39 c-17 21 -48 48 -70 60 -37 22 -49 23
-269 22 -190 0 -235 -3 -260 -16z m223 -195 c8 -8 12 -59 12 -165 0 -133 -2
-154 -16 -160 -31 -12 -49 11 -52 66 -3 51 -3 51 -38 51 -34 0 -34 0 -34 -47
0 -59 -10 -76 -41 -71 -24 3 -24 3 -27 157 -2 104 1 158 9 167 15 18 169 20
187 2z m260 0 c15 -15 16 -154 2 -163 -8 -5 -8 -11 0 -20 6 -8 10 -41 8 -77
-3 -58 -5 -63 -27 -66 -31 -5 -41 12 -41 71 0 47 0 47 -34 47 -35 0 -35 0 -38
-51 -3 -55 -21 -78 -52 -66 -14 6 -16 27 -16 160 0 106 4 157 12 165 7 7 43
12 93 12 50 0 86 -5 93 -12z"/>
<path d="M790 1030 c0 -39 1 -40 35 -40 34 0 35 1 35 40 0 39 -1 40 -35 40
-34 0 -35 -1 -35 -40z"/>
<path d="M1050 1030 c0 -39 1 -40 35 -40 34 0 35 1 35 40 0 39 -1 40 -35 40
-34 0 -35 -1 -35 -40z"/>
</g>
</svg>
