<?xml version="1.0" standalone="no"?>
<!DOCTYPE svg PUBLIC "-//W3C//DTD SVG 20010904//EN"
 "http://www.w3.org/TR/2001/REC-SVG-20010904/DTD/svg10.dtd">
<svg version="1.0" xmlns="http://www.w3.org/2000/svg"
 width="192.000000pt" height="192.000000pt" viewBox="0 0 192.000000 192.000000"
 preserveAspectRatio="xMidYMid meet">
<metadata>
Created by potrace 1.16, written by Peter Selinger 2001-2019
</metadata>
<g transform="translate(0.000000,192.000000) scale(0.100000,-0.100000)"
fill="#000000" stroke="none">
811 c445 -92 729 -532 635 -987 -62 -301 -295 -546 -601 -630 -91 -26 -329
-26 -420 0 -291 80 -516 305 -596 596 -26 91 -26 329 0 420 120 433 542 692
982 601z"/>
<path d="M795 1361 c-39 -17 -60 -51 -59 -96 l1 -43 -68 -4 c-89 -5 -109 -22
-109 -92 0 -31 6 -61 16 -74 14 -21 22 -22 150 -22 l134 0 0 94 0 94 -29 5
c-51 11 -63 64 -20 88 26 13 54 -3 75 -42 13 -27 16 -81 17 -368 l2 -336 50 0
50 0 2 336 c1 287 4 341 17 368 21 39 49 55 75 42 43 -24 31 -77 -20 -88 l-29
-5 0 -94 0 -94 134 0 c128 0 136 1 150 22 10 13 16 43 16 74 0 70 -20 87 -109
92 l-68 4 1 43 c1 33 -5 50 -23 69 -51 55 -116 41 -167 -35 l-31 -46 -18 33
c-35 65 -92 96 -140 75z"/>
<path d="M590 835 c0 -160 6 -183 60 -229 38 -32 96 -48 158 -44 l47 3 3 208
2 207 -135 0 -135 0 0 -145z"/>
<path d="M1052 773 l3 -208 47 -3 c62 -4 120 12 158 44 54 46 60 69 60 229 l0
145 -135 0 -135 0 2 -207z"/>
</g>
</svg>
