<?xml version="1.0" standalone="no"?>
<!DOCTYPE svg PUBLIC "-//W3C//DTD SVG 20010904//EN"
 "http://www.w3.org/TR/2001/REC-SVG-20010904/DTD/svg10.dtd">
<svg version="1.0" xmlns="http://www.w3.org/2000/svg"
 width="192.000000pt" height="192.000000pt" viewBox="0 0 192.000000 192.000000"
 preserveAspectRatio="xMidYMid meet">
<metadata>
Created by potrace 1.16, written by Peter Selinger 2001-2019
</metadata>
<g transform="translate(0.000000,192.000000) scale(0.100000,-0.100000)"
fill="#000000" stroke="none">
811 c445 -92 729 -532 635 -987 -62 -301 -295 -546 -601 -630 -91 -26 -329
-26 -420 0 -291 80 -516 305 -596 596 -26 91 -26 329 0 420 120 433 542 692
982 601z"/>
<path d="M910 1365 c-98 -31 -213 -139 -239 -225 -6 -20 -11 -70 -11 -110 0
-62 -3 -74 -22 -90 -45 -36 -14 -169 46 -198 16 -8 33 -30 43 -53 19 -49 89
-112 141 -127 86 -26 191 -8 258 43 18 14 42 47 55 74 12 27 35 59 51 71 56
41 79 158 39 194 -13 12 -20 36 -23 86 -6 81 -44 169 -87 200 -16 11 -51 25
-79 30 -57 13 -76 30 -89 80 -11 41 -22 44 -83 25z m120 -172 c0 -73 -219
-201 -306 -179 -44 11 -28 33 30 39 78 8 135 37 202 101 62 60 74 66 74 39z
m-144 -248 c15 -23 15 -27 0 -50 -28 -42 -86 -26 -86 25 0 51 58 68 86 25z
m222 13 c7 -7 12 -25 12 -40 0 -36 -36 -56 -69 -39 -23 13 -29 59 -9 79 15 15
51 15 66 0z m-243 -178 c3 -11 18 -29 32 -40 46 -36 116 -22 147 31 29 48 58
31 32 -19 -29 -56 -98 -83 -160 -62 -40 13 -86 62 -86 91 0 25 27 25 35 -1z"/>
</g>
</svg>
