<?xml version="1.0" standalone="no"?>
<!DOCTYPE svg PUBLIC "-//W3C//DTD SVG 20010904//EN"
 "http://www.w3.org/TR/2001/REC-SVG-20010904/DTD/svg10.dtd">
<svg version="1.0" xmlns="http://www.w3.org/2000/svg"
 width="192.000000pt" height="192.000000pt" viewBox="0 0 192.000000 192.000000"
 preserveAspectRatio="xMidYMid meet">
<metadata>
Created by potrace 1.16, written by Peter Selinger 2001-2019
</metadata>
<g transform="translate(0.000000,192.000000) scale(0.100000,-0.100000)"
fill="#000000" stroke="none">
811 c445 -92 729 -532 635 -987 -62 -301 -295 -546 -601 -630 -91 -26 -329
-26 -420 0 -291 80 -516 305 -596 596 -26 91 -26 329 0 420 120 433 542 692
982 601z"/>
<path d="M695 1323 c-46 -24 -76 -54 -96 -98 -16 -35 -19 -68 -19 -261 0 -212
1 -223 23 -265 13 -24 43 -57 66 -74 l43 -30 243 0 243 0 43 30 c23 17 53 50
66 74 22 42 23 53 23 263 0 175 -3 226 -15 256 -20 47 -50 79 -97 103 -33 17
-60 19 -265 19 -188 -1 -233 -4 -258 -17z m179 -174 c50 -40 21 -119 -44 -119
-64 0 -91 70 -45 115 30 30 54 31 89 4z m251 -4 c46 -45 19 -115 -45 -115 -65
0 -94 79 -44 119 35 27 59 26 89 -4z m-298 -221 c47 -69 69 -84 123 -84 46 0
56 4 84 34 17 18 38 43 46 56 12 17 21 21 37 16 32 -10 37 -41 16 -83 -43 -82
-143 -128 -229 -105 -54 15 -95 41 -123 81 -30 41 -35 75 -16 95 23 23 41 20
62 -10z"/>
</g>
</svg>
