<?xml version="1.0" standalone="no"?>
<!DOCTYPE svg PUBLIC "-//W3C//DTD SVG 20010904//EN"
 "http://www.w3.org/TR/2001/REC-SVG-20010904/DTD/svg10.dtd">
<svg version="1.0" xmlns="http://www.w3.org/2000/svg"
 width="192.000000pt" height="192.000000pt" viewBox="0 0 192.000000 192.000000"
 preserveAspectRatio="xMidYMid meet">
<metadata>
Created by potrace 1.16, written by Peter Selinger 2001-2019
</metadata>
<g transform="translate(0.000000,192.000000) scale(0.100000,-0.100000)"
fill="#000000" stroke="none">
811 c445 -92 729 -532 635 -987 -62 -301 -295 -546 -601 -630 -91 -26 -329
-26 -420 0 -291 80 -516 305 -596 596 -26 91 -26 329 0 420 120 433 542 692
982 601z"/>
<path d="M855 1377 c-96 -32 -141 -71 -131 -111 10 -39 47 -43 115 -12 111 49
216 32 298 -50 51 -51 64 -80 78 -167 4 -24 14 -43 30 -53 23 -15 27 -15 51 1
25 16 26 21 22 80 -10 120 -96 239 -212 291 -72 33 -187 42 -251 21z"/>
<path d="M915 1231 c-115 -28 -165 -102 -165 -245 0 -107 23 -137 81 -106 16
9 19 22 19 81 0 38 6 85 14 104 28 67 116 83 167 29 24 -25 24 -29 27 -237 3
-177 6 -215 19 -229 21 -24 48 -23 73 2 19 19 20 33 20 213 0 143 -4 207 -15
244 -29 99 -143 167 -240 144z"/>
<path d="M638 1193 c-34 -38 -48 -121 -48 -285 0 -145 2 -160 20 -178 11 -11
27 -20 35 -20 8 0 24 9 35 20 18 18 20 34 20 183 1 115 5 174 15 202 19 51 19
51 -5 75 -25 25 -52 26 -72 3z"/>
<path d="M920 1060 c-17 -17 -20 -33 -20 -108 0 -98 14 -132 55 -132 45 0 55
23 55 129 0 82 -3 101 -18 114 -25 22 -48 21 -72 -3z"/>
<path d="M1230 905 c-33 -40 -23 -156 15 -181 23 -15 27 -15 50 0 23 15 25 22
25 94 0 47 -5 83 -12 90 -17 17 -63 15 -78 -3z"/>
<path d="M766 778 c-18 -25 -21 -112 -7 -151 13 -33 46 -43 76 -23 23 15 25
23 25 91 0 54 -4 78 -16 89 -22 23 -60 20 -78 -6z"/>
<path d="M935 736 c-24 -17 -33 -128 -13 -166 16 -30 59 -38 82 -15 24 25 23
156 -2 178 -23 21 -42 21 -67 3z"/>
</g>
</svg>
