<?xml version="1.0" standalone="no"?>
<!DOCTYPE svg PUBLIC "-//W3C//DTD SVG 20010904//EN"
 "http://www.w3.org/TR/2001/REC-SVG-20010904/DTD/svg10.dtd">
<svg version="1.0" xmlns="http://www.w3.org/2000/svg"
 width="192.000000pt" height="192.000000pt" viewBox="0 0 192.000000 192.000000"
 preserveAspectRatio="xMidYMid meet">
<metadata>
Created by potrace 1.16, written by Peter Selinger 2001-2019
</metadata>
<g transform="translate(0.000000,192.000000) scale(0.100000,-0.100000)"
fill="#000000" stroke="none">
811 c445 -92 729 -532 635 -987 -62 -301 -295 -546 -601 -630 -91 -26 -329
-26 -420 0 -291 80 -516 305 -596 596 -26 91 -26 329 0 420 120 433 542 692
982 601z"/>
<path d="M996 1225 c-344 -70 -529 -253 -426 -420 58 -94 212 -134 400 -105
159 26 314 101 366 180 38 57 44 127 14 175 -36 58 -69 70 -190 70 -199 0
-330 -51 -330 -129 0 -35 20 -59 58 -71 13 -4 71 3 132 15 136 27 162 24 100
-12 -141 -83 -343 -101 -424 -37 -37 29 -33 61 14 113 53 57 137 100 290 150
105 34 125 44 125 61 0 26 -36 28 -129 10z"/>
</g>
</svg>
