<?xml version="1.0" standalone="no"?>
<!DOCTYPE svg PUBLIC "-//W3C//DTD SVG 20010904//EN"
 "http://www.w3.org/TR/2001/REC-SVG-20010904/DTD/svg10.dtd">
<svg version="1.0" xmlns="http://www.w3.org/2000/svg"
 width="192.000000pt" height="192.000000pt" viewBox="0 0 192.000000 192.000000"
 preserveAspectRatio="xMidYMid meet">
<metadata>
Created by potrace 1.16, written by Peter Selinger 2001-2019
</metadata>
<g transform="translate(0.000000,192.000000) scale(0.100000,-0.100000)"
fill="#000000" stroke="none">
811 c445 -92 729 -532 635 -987 -62 -301 -295 -546 -601 -630 -91 -26 -329
-26 -420 0 -291 80 -516 305 -596 596 -26 91 -26 329 0 420 120 433 542 692
982 601z"/>
<path d="M580 1330 c-16 -16 -20 -33 -20 -88 0 -91 12 -102 109 -102 107 0
111 4 111 105 0 101 -4 105 -109 105 -58 0 -75 -4 -91 -20z"/>
<path d="M857 1332 c-13 -14 -17 -37 -17 -89 0 -93 11 -103 113 -103 99 0 107
8 107 105 0 97 -8 105 -109 105 -63 0 -81 -4 -94 -18z"/>
<path d="M1153 1338 c-12 -6 -27 -24 -34 -40 -17 -41 7 -87 65 -128 l46 -31
46 32 c56 38 81 88 64 129 -15 35 -52 53 -85 40 -16 -6 -34 -6 -51 0 -14 6
-26 10 -27 9 -1 0 -12 -5 -24 -11z"/>
<path d="M580 1060 c-28 -28 -29 -149 -2 -173 23 -21 171 -24 190 -5 7 7 12
43 12 89 0 101 -8 109 -106 109 -61 0 -78 -4 -94 -20z"/>
<path d="M862 1064 c-19 -13 -22 -24 -22 -89 0 -97 8 -105 106 -105 109 0 114
4 114 100 0 98 -12 110 -110 110 -43 0 -73 -5 -88 -16z"/>
<path d="M1138 1069 c-15 -8 -18 -24 -18 -92 0 -51 5 -88 12 -95 7 -7 43 -12
93 -12 50 0 86 5 93 12 7 7 12 44 12 95 0 71 -3 84 -19 93 -25 13 -151 13
-173 -1z"/>
<path d="M580 780 c-16 -16 -20 -33 -20 -86 0 -113 -35 -104 388 -104 273 0
371 3 380 12 7 7 12 43 12 89 0 116 24 109 -392 109 -335 0 -349 -1 -368 -20z"/>
</g>
</svg>
