<?xml version="1.0" standalone="no"?>
<!DOCTYPE svg PUBLIC "-//W3C//DTD SVG 20010904//EN"
 "http://www.w3.org/TR/2001/REC-SVG-20010904/DTD/svg10.dtd">
<svg version="1.0" xmlns="http://www.w3.org/2000/svg"
 width="192.000000pt" height="192.000000pt" viewBox="0 0 192.000000 192.000000"
 preserveAspectRatio="xMidYMid meet">
<metadata>
Created by potrace 1.16, written by Peter Selinger 2001-2019
</metadata>
<g transform="translate(0.000000,192.000000) scale(0.100000,-0.100000)"
fill="#000000" stroke="none">
811 c445 -92 729 -532 635 -987 -62 -301 -295 -546 -601 -630 -91 -26 -329
-26 -420 0 -291 80 -516 305 -596 596 -26 91 -26 329 0 420 120 433 542 692
982 601z"/>
<path d="M715 1376 c-5 -3 -22 -7 -37 -10 -39 -9 -98 -64 -119 -111 -47 -102
5 -224 113 -269 64 -27 132 -16 196 31 106 79 94 260 -21 327 -39 23 -110 40
-132 32z m86 -145 c32 -33 36 -58 14 -100 -16 -32 -33 -41 -78 -41 -71 0 -105
93 -52 145 34 35 78 33 116 -4z"/>
<path d="M1020 1363 c-21 -8 -40 -34 -40 -56 0 -10 25 -44 55 -76 l54 -57 -54
-54 c-56 -55 -66 -82 -42 -112 29 -38 54 -32 117 28 l60 57 59 -56 c64 -61 75
-65 109 -41 37 26 29 63 -28 119 -27 27 -50 54 -50 60 0 6 23 33 50 60 69 68
68 125 -4 125 -23 0 -43 -12 -83 -52 l-52 -52 -60 57 c-60 58 -64 60 -91 50z"/>
<path d="M655 934 c-47 -26 -76 -56 -96 -99 -27 -58 -24 -113 9 -176 47 -91
157 -132 250 -94 84 36 126 106 120 200 -4 71 -30 117 -86 156 -45 31 -152 38
-197 13z m147 -124 c26 -27 30 -36 25 -68 -17 -104 -167 -95 -167 10 0 83 83
116 142 58z"/>
<path d="M1068 930 c-58 -31 -108 -112 -108 -174 0 -74 55 -155 125 -187 109
-50 237 11 271 129 18 61 13 99 -22 159 -50 86 -175 120 -266 73z m135 -102
c52 -27 63 -88 24 -133 -50 -59 -147 -20 -147 59 0 65 66 105 123 74z"/>
</g>
</svg>
