<?xml version="1.0" standalone="no"?>
<!DOCTYPE svg PUBLIC "-//W3C//DTD SVG 20010904//EN"
 "http://www.w3.org/TR/2001/REC-SVG-20010904/DTD/svg10.dtd">
<svg version="1.0" xmlns="http://www.w3.org/2000/svg"
 width="192.000000pt" height="192.000000pt" viewBox="0 0 192.000000 192.000000"
 preserveAspectRatio="xMidYMid meet">
<metadata>
Created by potrace 1.16, written by Peter Selinger 2001-2019
</metadata>
<g transform="translate(0.000000,192.000000) scale(0.100000,-0.100000)"
fill="#000000" stroke="none">
811 c445 -92 729 -532 635 -987 -62 -301 -295 -546 -601 -630 -91 -26 -329
-26 -420 0 -291 80 -516 305 -596 596 -26 91 -26 329 0 420 120 433 542 692
982 601z"/>
<path d="M599 1321 c-25 -26 -29 -37 -29 -88 0 -75 21 -101 54 -67 10 10 16
33 16 65 l0 49 49 0 c32 0 55 6 65 16 34 33 8 54 -67 54 -51 0 -62 -4 -88 -29z"/>
<path d="M1147 1343 c-14 -13 -7 -43 12 -53 11 -5 40 -10 65 -10 l46 0 0 -54
c0 -61 19 -88 48 -69 13 8 17 26 17 78 0 61 -2 69 -28 91 -23 20 -39 24 -91
24 -34 0 -66 -3 -69 -7z"/>
<path d="M850 1233 c-64 -23 -142 -105 -165 -172 -61 -186 72 -374 267 -374
296 0 390 399 125 535 -56 28 -165 34 -227 11z m30 -163 c15 -29 3 -59 -26
-66 -30 -8 -54 11 -54 40 0 46 59 64 80 26z m214 4 c20 -20 20 -38 0 -59 -21
-21 -53 -16 -70 10 -12 18 -11 24 2 43 18 26 46 28 68 6z m-222 -178 c15 -19
41 -37 57 -41 37 -8 88 17 103 50 13 29 38 33 38 7 0 -45 -66 -92 -127 -92
-15 0 -42 9 -60 20 -45 27 -75 90 -44 90 3 0 18 -15 33 -34z"/>
<path d="M577 773 c-4 -3 -7 -35 -7 -69 0 -82 24 -114 92 -121 58 -7 94 2 102
23 11 29 -13 44 -70 44 l-54 0 0 46 c0 25 -5 54 -10 65 -10 19 -40 26 -53 12z"/>
<path d="M1275 758 c-2 -13 -6 -41 -7 -63 l-3 -40 -54 -5 c-96 -9 -96 -70 0
-70 60 0 96 16 115 51 17 34 19 120 2 137 -20 20 -47 14 -53 -10z"/>
</g>
</svg>
