<?xml version="1.0" standalone="no"?>
<!DOCTYPE svg PUBLIC "-//W3C//DTD SVG 20010904//EN"
 "http://www.w3.org/TR/2001/REC-SVG-20010904/DTD/svg10.dtd">
<svg version="1.0" xmlns="http://www.w3.org/2000/svg"
 width="192.000000pt" height="192.000000pt" viewBox="0 0 192.000000 192.000000"
 preserveAspectRatio="xMidYMid meet">
<metadata>
Created by potrace 1.16, written by Peter Selinger 2001-2019
</metadata>
<g transform="translate(0.000000,192.000000) scale(0.100000,-0.100000)"
fill="#000000" stroke="none">
811 c445 -92 729 -532 635 -987 -62 -301 -295 -546 -601 -630 -91 -26 -329
-26 -420 0 -291 80 -516 305 -596 596 -26 91 -26 329 0 420 120 433 542 692
982 601z"/>
<path d="M823 1341 c-142 -53 -242 -174 -261 -318 -18 -130 19 -244 111 -341
30 -31 60 -70 68 -87 23 -48 49 -55 215 -55 137 0 154 2 177 20 14 11 29 29
32 40 4 11 31 43 61 72 205 193 152 531 -101 653 -80 38 -221 46 -302 16z m77
-211 l0 -110 -110 0 c-69 0 -110 4 -110 10 0 50 86 156 153 189 67 33 67 34
67 -89z m165 96 c68 -29 165 -143 165 -194 0 -9 -32 -12 -110 -12 l-110 0 0
110 c0 69 4 110 10 110 6 0 26 -6 45 -14z m-167 -338 c-8 -7 -34 -41 -57 -75
-50 -75 -57 -80 -83 -56 -23 21 -78 112 -78 131 0 9 30 12 117 12 95 0 114 -2
101 -12z m332 2 c0 -36 -93 -165 -111 -155 -4 3 -33 41 -63 85 l-55 80 115 0
c72 0 114 -4 114 -10z"/>
</g>
</svg>
