<?xml version="1.0" standalone="no"?>
<!DOCTYPE svg PUBLIC "-//W3C//DTD SVG 20010904//EN"
 "http://www.w3.org/TR/2001/REC-SVG-20010904/DTD/svg10.dtd">
<svg version="1.0" xmlns="http://www.w3.org/2000/svg"
 width="192.000000pt" height="192.000000pt" viewBox="0 0 192.000000 192.000000"
 preserveAspectRatio="xMidYMid meet">
<metadata>
Created by potrace 1.16, written by Peter Selinger 2001-2019
</metadata>
<g transform="translate(0.000000,192.000000) scale(0.100000,-0.100000)"
fill="#000000" stroke="none">
811 c445 -92 729 -532 635 -987 -62 -301 -295 -546 -601 -630 -91 -26 -329
-26 -420 0 -291 80 -516 305 -596 596 -26 91 -26 329 0 420 120 433 542 692
982 601z"/>
<path d="M1184 1402 c-19 -12 -34 -49 -34 -81 0 -29 -2 -31 -38 -31 -41 0 -82
-31 -82 -63 0 -30 37 -57 79 -57 38 0 38 0 44 -47 5 -49 25 -73 61 -73 36 0
50 17 55 67 6 45 8 48 36 51 57 5 74 12 81 35 18 52 -12 87 -73 87 l-43 0 0
43 c0 61 -45 97 -86 69z"/>
<path d="M688 1186 c-125 -46 -177 -152 -130 -259 27 -62 78 -93 178 -112 142
-27 178 -89 76 -132 -42 -18 -103 -3 -130 32 -17 22 -28 25 -81 25 -55 0 -61
-2 -61 -20 0 -37 39 -99 81 -130 88 -63 216 -62 301 3 60 46 80 89 75 160 -6
96 -59 146 -185 172 -101 21 -120 30 -134 60 -10 22 -8 29 12 50 44 47 141 41
175 -11 14 -23 22 -25 73 -22 l57 3 -2 34 c-2 42 -46 98 -102 130 -53 29 -149
38 -203 17z"/>
</g>
</svg>
