<?xml version="1.0" standalone="no"?>
<!DOCTYPE svg PUBLIC "-//W3C//DTD SVG 20010904//EN"
 "http://www.w3.org/TR/2001/REC-SVG-20010904/DTD/svg10.dtd">
<svg version="1.0" xmlns="http://www.w3.org/2000/svg"
 width="192.000000pt" height="192.000000pt" viewBox="0 0 192.000000 192.000000"
 preserveAspectRatio="xMidYMid meet">
<metadata>
Created by potrace 1.16, written by Peter Selinger 2001-2019
</metadata>
<g transform="translate(0.000000,192.000000) scale(0.100000,-0.100000)"
fill="#000000" stroke="none">
811 c445 -92 729 -532 635 -987 -62 -301 -295 -546 -601 -630 -91 -26 -329
-26 -420 0 -291 80 -516 305 -596 596 -26 91 -26 329 0 420 120 433 542 692
982 601z"/>
<path d="M850 1214 c-140 -58 -265 -115 -277 -127 -46 -41 -41 -73 33 -255 79
-192 103 -227 160 -226 34 0 280 96 515 200 58 26 89 63 89 106 0 41 -138 360
-166 386 -43 38 -79 30 -354 -84z m287 -6 c18 -24 43 -97 37 -111 -6 -16 -154
-78 -168 -70 -14 9 -55 105 -49 118 4 12 134 72 159 74 6 1 16 -5 21 -11z"/>
</g>
</svg>
