<?xml version="1.0" standalone="no"?>
<!DOCTYPE svg PUBLIC "-//W3C//DTD SVG 20010904//EN"
 "http://www.w3.org/TR/2001/REC-SVG-20010904/DTD/svg10.dtd">
<svg version="1.0" xmlns="http://www.w3.org/2000/svg"
 width="192.000000pt" height="192.000000pt" viewBox="0 0 192.000000 192.000000"
 preserveAspectRatio="xMidYMid meet">
<metadata>
Created by potrace 1.16, written by Peter Selinger 2001-2019
</metadata>
<g transform="translate(0.000000,192.000000) scale(0.100000,-0.100000)"
fill="#000000" stroke="none">
811 c445 -92 729 -532 635 -987 -62 -301 -295 -546 -601 -630 -91 -26 -329
-26 -420 0 -291 80 -516 305 -596 596 -26 91 -26 329 0 420 120 433 542 692
982 601z"/>
<path d="M875 1330 c-33 -21 -82 -44 -110 -51 -27 -7 -67 -16 -88 -21 -53 -13
-70 -44 -75 -142 -9 -192 33 -324 136 -424 56 -55 150 -113 203 -126 38 -9
156 53 227 119 106 98 142 197 142 391 0 116 -1 124 -25 152 -20 24 -36 32
-78 37 -58 7 -131 38 -191 78 -21 15 -48 27 -60 27 -12 0 -48 -18 -81 -40z
m232 -254 c69 -32 107 -65 98 -89 -11 -28 -30 -26 -101 9 -59 30 -80 35 -139
35 -81 0 -120 -10 -181 -46 -37 -22 -48 -24 -60 -14 -27 22 -12 52 45 86 69
41 118 53 206 49 50 -2 87 -10 132 -30z m-37 -118 c49 -25 63 -54 35 -74 -14
-11 -26 -9 -66 7 -63 24 -112 24 -168 -1 -41 -19 -45 -19 -63 -4 -23 22 -23
30 2 52 55 47 186 57 260 20z m-59 -117 c22 -18 23 -19 5 -45 -9 -15 -28 -32
-42 -38 -21 -10 -28 -8 -54 17 -17 16 -30 37 -30 46 0 39 81 53 121 20z"/>
</g>
</svg>
