<?xml version="1.0" standalone="no"?>
<!DOCTYPE svg PUBLIC "-//W3C//DTD SVG 20010904//EN"
 "http://www.w3.org/TR/2001/REC-SVG-20010904/DTD/svg10.dtd">
<svg version="1.0" xmlns="http://www.w3.org/2000/svg"
 width="192.000000pt" height="192.000000pt" viewBox="0 0 192.000000 192.000000"
 preserveAspectRatio="xMidYMid meet">
<metadata>
Created by potrace 1.16, written by Peter Selinger 2001-2019
</metadata>
<g transform="translate(0.000000,192.000000) scale(0.100000,-0.100000)"
fill="#000000" stroke="none">
811 c445 -92 729 -532 635 -987 -62 -301 -295 -546 -601 -630 -91 -26 -329
-26 -420 0 -291 80 -516 305 -596 596 -26 91 -26 329 0 420 120 433 542 692
982 601z"/>
<path d="M824 1316 c-121 -38 -212 -151 -230 -283 l-7 -53 182 0 181 0 0 175
0 175 -42 -1 c-24 0 -61 -6 -84 -13z"/>
<path d="M1059 1296 c-69 -47 -92 -158 -46 -227 33 -50 105 -83 162 -74 122
18 181 171 104 269 -48 61 -154 76 -220 32z"/>
<path d="M594 946 c-8 -21 13 -113 37 -163 25 -52 106 -128 163 -153 23 -11
68 -22 100 -26 l56 -7 -2 179 -3 179 -173 3 c-145 2 -173 0 -178 -12z"/>
<path d="M970 780 l0 -180 159 0 c132 0 162 3 175 16 23 23 23 305 0 328 -13
13 -43 16 -175 16 l-159 0 0 -180z"/>
</g>
</svg>
