<?xml version="1.0" standalone="no"?>
<!DOCTYPE svg PUBLIC "-//W3C//DTD SVG 20010904//EN"
 "http://www.w3.org/TR/2001/REC-SVG-20010904/DTD/svg10.dtd">
<svg version="1.0" xmlns="http://www.w3.org/2000/svg"
 width="192.000000pt" height="192.000000pt" viewBox="0 0 192.000000 192.000000"
 preserveAspectRatio="xMidYMid meet">
<metadata>
Created by potrace 1.16, written by Peter Selinger 2001-2019
</metadata>
<g transform="translate(0.000000,192.000000) scale(0.100000,-0.100000)"
fill="#000000" stroke="none">
811 c445 -92 729 -532 635 -987 -62 -301 -295 -546 -601 -630 -91 -26 -329
-26 -420 0 -291 80 -516 305 -596 596 -26 91 -26 329 0 420 120 433 542 692
982 601z"/>
<path d="M845 1356 c-19 -14 -19 -16 10 -87 31 -75 51 -93 80 -69 15 13 21
122 9 154 -8 20 -73 21 -99 2z"/>
<path d="M978 1364 c-13 -12 -9 -149 4 -162 19 -19 48 -14 57 11 5 12 18 45
29 73 12 29 17 56 12 63 -9 15 -91 27 -102 15z"/>
<path d="M748 1318 c-21 -12 -40 -28 -43 -35 -6 -18 92 -123 115 -123 37 0 41
23 14 93 -33 85 -40 91 -86 65z"/>
<path d="M1086 1262 c-31 -82 -32 -88 -5 -103 19 -10 28 -5 75 42 30 29 54 61
54 71 0 20 -54 58 -82 58 -11 0 -24 -22 -42 -68z"/>
<path d="M636 1219 c-40 -48 -35 -61 43 -99 59 -28 72 -31 85 -20 9 7 16 19
16 27 0 19 -89 123 -105 123 -7 0 -25 -14 -39 -31z"/>
<path d="M1181 1190 c-53 -61 -59 -84 -25 -97 17 -6 128 42 146 64 7 9 6 19
-5 37 -20 29 -46 56 -56 56 -4 0 -32 -27 -60 -60z"/>
<path d="M903 1129 c-74 -21 -132 -117 -118 -193 26 -137 183 -189 290 -95 90
79 64 229 -49 280 -45 20 -74 22 -123 8z"/>
<path d="M571 1108 c-31 -85 -24 -92 82 -101 58 -4 69 -2 77 13 17 32 12 39
-60 75 -82 41 -88 42 -99 13z"/>
<path d="M1247 1094 c-61 -31 -68 -38 -65 -62 3 -27 4 -27 68 -24 91 3 110 9
110 33 0 25 -27 89 -37 89 -4 -1 -39 -17 -76 -36z"/>
<path d="M557 984 c-12 -13 -8 -91 6 -103 10 -8 31 -6 80 8 36 11 71 22 77 26
14 9 13 40 -2 53 -16 12 -151 26 -161 16z"/>
<path d="M1275 983 c-77 -7 -87 -11 -83 -41 3 -24 11 -30 73 -50 38 -12 75
-20 81 -18 7 3 15 23 19 46 7 44 -6 71 -34 68 -9 -1 -34 -3 -56 -5z"/>
<path d="M1175 873 c-8 -8 -15 -20 -15 -28 0 -12 95 -90 124 -101 18 -7 46 34
49 72 2 26 -2 29 -71 50 -64 20 -74 21 -87 7z"/>
<path d="M633 863 c-28 -9 -54 -22 -57 -30 -8 -20 31 -93 50 -93 14 0 134 87
134 97 0 2 -5 13 -10 24 -13 23 -43 23 -117 2z"/>
<path d="M712 764 c-34 -25 -62 -51 -62 -58 0 -20 65 -77 81 -71 8 3 31 35 52
71 37 63 38 66 21 85 -9 10 -20 19 -24 19 -3 0 -34 -21 -68 -46z"/>
<path d="M1112 798 c-18 -18 -16 -26 26 -95 24 -40 44 -63 55 -63 19 0 77 51
77 68 0 12 -119 102 -135 102 -6 0 -16 -5 -23 -12z"/>
<path d="M1043 750 c-26 -11 -27 -16 -12 -96 16 -81 25 -89 77 -68 27 10 42
23 42 34 0 14 -75 141 -82 139 -2 0 -13 -4 -25 -9z"/>
<path d="M826 728 c-65 -104 -67 -110 -55 -124 18 -22 89 -40 98 -25 12 20 33
149 26 161 -11 18 -54 11 -69 -12z"/>
<path d="M926 713 c-2 -10 -10 -44 -16 -77 -14 -70 -7 -81 51 -80 57 2 63 11
49 80 -18 93 -19 94 -50 94 -19 0 -30 -6 -34 -17z"/>
</g>
</svg>
