<?xml version="1.0" standalone="no"?>
<!DOCTYPE svg PUBLIC "-//W3C//DTD SVG 20010904//EN"
 "http://www.w3.org/TR/2001/REC-SVG-20010904/DTD/svg10.dtd">
<svg version="1.0" xmlns="http://www.w3.org/2000/svg"
 width="192.000000pt" height="192.000000pt" viewBox="0 0 192.000000 192.000000"
 preserveAspectRatio="xMidYMid meet">
<metadata>
Created by potrace 1.16, written by Peter Selinger 2001-2019
</metadata>
<g transform="translate(0.000000,192.000000) scale(0.100000,-0.100000)"
fill="#000000" stroke="none">
811 c445 -92 729 -532 635 -987 -62 -301 -295 -546 -601 -630 -91 -26 -329
-26 -420 0 -291 80 -516 305 -596 596 -26 91 -26 329 0 420 120 433 542 692
982 601z"/>
<path d="M710 1337 c-46 -15 -106 -77 -120 -125 -9 -28 -20 -41 -41 -49 -42
-16 -41 -60 1 -76 25 -9 30 -17 30 -44 0 -26 -4 -33 -19 -33 -48 0 -56 -73 -8
-78 24 -3 27 -7 27 -42 0 -35 -3 -39 -27 -42 -47 -5 -40 -78 7 -78 11 0 21
-13 29 -40 15 -52 56 -99 106 -121 35 -16 68 -19 256 -19 207 0 218 1 260 23
24 13 58 43 74 66 l30 43 0 246 c0 241 -1 248 -23 285 -13 20 -45 50 -70 65
-47 27 -47 27 -262 29 -138 1 -227 -2 -250 -10z m445 -212 l0 -30 -205 0
c-190 0 -205 1 -208 18 -9 47 -5 48 210 45 l203 -3 0 -30z m-14 -125 c23 -13
25 -55 3 -64 -9 -3 -96 -6 -194 -6 -98 0 -185 3 -194 6 -19 7 -21 45 -4 62 15
15 360 17 389 2z m3 -156 c22 -9 20 -51 -3 -64 -29 -15 -374 -13 -389 2 -16
16 -15 55 1 61 18 8 372 8 391 1z"/>
</g>
</svg>
