<?xml version="1.0" standalone="no"?>
<!DOCTYPE svg PUBLIC "-//W3C//DTD SVG 20010904//EN"
 "http://www.w3.org/TR/2001/REC-SVG-20010904/DTD/svg10.dtd">
<svg version="1.0" xmlns="http://www.w3.org/2000/svg"
 width="192.000000pt" height="192.000000pt" viewBox="0 0 192.000000 192.000000"
 preserveAspectRatio="xMidYMid meet">
<metadata>
Created by potrace 1.16, written by Peter Selinger 2001-2019
</metadata>
<g transform="translate(0.000000,192.000000) scale(0.100000,-0.100000)"
fill="#000000" stroke="none">
811 c445 -92 729 -532 635 -987 -62 -301 -295 -546 -601 -630 -91 -26 -329
-26 -420 0 -291 80 -516 305 -596 596 -26 91 -26 329 0 420 120 433 542 692
982 601z"/>
<path d="M870 1369 c-155 -30 -290 -169 -320 -328 -15 -83 -13 -295 4 -336 16
-38 68 -75 104 -75 38 0 92 30 107 61 10 18 15 59 15 118 0 87 -1 92 -31 126
-22 25 -43 37 -71 41 -39 7 -40 7 -33 43 18 98 83 184 173 228 75 37 192 39
262 5 96 -47 160 -127 179 -225 l8 -45 -36 -6 c-78 -12 -111 -63 -111 -171 0
-81 19 -129 62 -155 40 -24 69 -25 114 -4 60 29 66 53 62 253 -3 167 -4 179
-30 234 -54 115 -172 209 -296 236 -60 13 -98 13 -162 0z"/>
<path d="M789 668 c-48 -38 -20 -81 66 -103 75 -19 116 -19 190 0 90 24 118
61 76 99 -19 17 -23 17 -90 0 -68 -18 -130 -15 -206 10 -11 4 -27 1 -36 -6z"/>
</g>
</svg>
