<?xml version="1.0" standalone="no"?>
<!DOCTYPE svg PUBLIC "-//W3C//DTD SVG 20010904//EN"
 "http://www.w3.org/TR/2001/REC-SVG-20010904/DTD/svg10.dtd">
<svg version="1.0" xmlns="http://www.w3.org/2000/svg"
 width="192.000000pt" height="192.000000pt" viewBox="0 0 192.000000 192.000000"
 preserveAspectRatio="xMidYMid meet">
<metadata>
Created by potrace 1.16, written by Peter Selinger 2001-2019
</metadata>
<g transform="translate(0.000000,192.000000) scale(0.100000,-0.100000)"
fill="#000000" stroke="none">
811 c445 -92 729 -532 635 -987 -62 -301 -295 -546 -601 -630 -91 -26 -329
-26 -420 0 -291 80 -516 305 -596 596 -26 91 -26 329 0 420 120 433 542 692
982 601z"/>
<path d="M755 1355 c-20 -19 -25 -34 -25 -74 0 -43 -6 -58 -36 -98 -21 -27
-43 -63 -51 -81 -52 -123 -29 -267 57 -366 25 -28 30 -42 30 -85 0 -42 5 -57
25 -76 24 -25 27 -25 200 -25 173 0 176 0 200 25 20 19 25 34 25 76 0 41 6 58
29 88 55 69 74 121 79 206 5 96 -18 168 -73 232 -31 37 -35 48 -35 98 0 46 -4
60 -25 80 -24 25 -27 25 -200 25 -173 0 -176 0 -200 -25z m310 -159 c164 -76
196 -305 60 -425 -53 -46 -100 -64 -170 -64 -147 -1 -259 111 -258 258 1 72
19 119 67 173 76 84 196 107 301 58z"/>
<path d="M735 1031 c-8 -13 27 -114 42 -118 6 -2 17 13 24 34 l12 38 12 -35
c15 -45 35 -45 50 0 l12 34 6 -31 c7 -34 33 -49 67 -38 11 3 20 14 20 22 0 14
4 13 23 -4 15 -15 34 -21 60 -20 l38 1 -3 49 c-3 48 -4 50 -37 52 -21 2 -40
-4 -51 -15 -18 -18 -19 -18 -36 1 -21 24 -42 24 -67 2 -18 -17 -19 -17 -16 6
6 37 -20 38 -27 2 -8 -39 -20 -40 -27 -1 -9 41 -33 38 -48 -7 l-13 -38 -9 38
c-9 36 -20 46 -32 28z m218 -48 c-7 -2 -19 -2 -25 0 -7 3 -2 5 12 5 14 0 19
-2 13 -5z m115 -16 c4 -20 -25 -34 -40 -19 -15 15 -1 44 19 40 10 -2 19 -11
21 -21z m-115 -24 c-7 -2 -19 -2 -25 0 -7 3 -2 5 12 5 14 0 19 -2 13 -5z"/>
<path d="M1115 1012 c-3 -3 -5 -27 -5 -54 0 -59 23 -63 28 -5 2 25 8 37 18 37
24 0 11 23 -14 25 -12 1 -24 -1 -27 -3z"/>
</g>
</svg>
