<?xml version="1.0" standalone="no"?>
<!DOCTYPE svg PUBLIC "-//W3C//DTD SVG 20010904//EN"
 "http://www.w3.org/TR/2001/REC-SVG-20010904/DTD/svg10.dtd">
<svg version="1.0" xmlns="http://www.w3.org/2000/svg"
 width="192.000000pt" height="192.000000pt" viewBox="0 0 192.000000 192.000000"
 preserveAspectRatio="xMidYMid meet">
<metadata>
Created by potrace 1.16, written by Peter Selinger 2001-2019
</metadata>
<g transform="translate(0.000000,192.000000) scale(0.100000,-0.100000)"
fill="#000000" stroke="none">
811 c445 -92 729 -532 635 -987 -62 -301 -295 -546 -601 -630 -91 -26 -329
-26 -420 0 -291 80 -516 305 -596 596 -26 91 -26 329 0 420 120 433 542 692
982 601z"/>
<path d="M795 1361 c-39 -16 -60 -51 -59 -97 l1 -44 -62 0 c-90 0 -115 -22
-115 -99 0 -87 8 -91 168 -91 l132 0 0 94 0 94 -29 5 c-51 11 -63 64 -20 88
25 13 54 -3 75 -42 13 -26 16 -83 17 -367 l2 -337 50 0 50 0 2 337 c1 284 4
341 17 367 21 39 50 55 75 42 43 -24 31 -77 -20 -88 l-29 -5 0 -94 0 -94 133
0 c160 0 167 4 167 93 0 75 -26 97 -115 97 l-62 0 1 44 c1 54 -30 92 -81 102
-42 8 -75 -13 -112 -71 l-27 -43 -19 35 c-37 68 -88 95 -140 74z"/>
<path d="M590 835 c0 -155 6 -179 52 -222 37 -34 92 -53 158 -53 l60 0 0 210
0 210 -135 0 -135 0 0 -145z"/>
<path d="M1050 770 l0 -210 60 0 c66 0 121 19 158 53 46 43 52 67 52 222 l0
145 -135 0 -135 0 0 -210z"/>
</g>
</svg>
