<?xml version="1.0" standalone="no"?>
<!DOCTYPE svg PUBLIC "-//W3C//DTD SVG 20010904//EN"
 "http://www.w3.org/TR/2001/REC-SVG-20010904/DTD/svg10.dtd">
<svg version="1.0" xmlns="http://www.w3.org/2000/svg"
 width="192.000000pt" height="192.000000pt" viewBox="0 0 192.000000 192.000000"
 preserveAspectRatio="xMidYMid meet">
<metadata>
Created by potrace 1.16, written by Peter Selinger 2001-2019
</metadata>
<g transform="translate(0.000000,192.000000) scale(0.100000,-0.100000)"
fill="#000000" stroke="none">
811 c445 -92 729 -532 635 -987 -62 -301 -295 -546 -601 -630 -91 -26 -329
-26 -420 0 -291 80 -516 305 -596 596 -26 91 -26 329 0 420 120 433 542 692
982 601z"/>
<path d="M864 1300 c-41 -27 -80 -83 -103 -151 -24 -67 -45 -219 -37 -263 6
-31 4 -33 -76 -81 -130 -77 -150 -102 -110 -138 27 -25 39 -22 127 31 l80 49
25 -46 c34 -62 80 -91 144 -91 42 0 64 8 137 50 47 27 109 55 137 61 45 11 54
10 91 -9 67 -35 101 -25 101 30 0 22 -9 32 -42 52 -24 13 -61 27 -83 30 -51 8
-143 -16 -215 -56 -121 -68 -127 -70 -150 -58 -20 10 -50 65 -50 89 0 5 31 32
68 59 85 64 173 155 201 210 62 121 -12 242 -153 250 -49 2 -67 -1 -92 -18z
m148 -107 c49 -44 -14 -144 -155 -248 l-39 -29 7 60 c14 122 55 222 100 242
22 10 60 -1 87 -25z"/>
</g>
</svg>
