<?xml version="1.0" standalone="no"?>
<!DOCTYPE svg PUBLIC "-//W3C//DTD SVG 20010904//EN"
 "http://www.w3.org/TR/2001/REC-SVG-20010904/DTD/svg10.dtd">
<svg version="1.0" xmlns="http://www.w3.org/2000/svg"
 width="192.000000pt" height="192.000000pt" viewBox="0 0 192.000000 192.000000"
 preserveAspectRatio="xMidYMid meet">
<metadata>
Created by potrace 1.16, written by Peter Selinger 2001-2019
</metadata>
<g transform="translate(0.000000,192.000000) scale(0.100000,-0.100000)"
fill="#000000" stroke="none">
811 c445 -92 729 -532 635 -987 -62 -301 -295 -546 -601 -630 -91 -26 -329
-26 -420 0 -291 80 -516 305 -596 596 -26 91 -26 329 0 420 120 433 542 692
982 601z"/>
<path d="M623 1276 l-28 -24 0 -247 0 -247 28 -24 28 -24 -50 0 c-58 0 -81
-23 -61 -60 10 -19 21 -20 221 -20 l210 0 11 -30 c16 -49 51 -60 183 -60 120
0 166 12 179 45 3 9 6 126 6 260 l0 244 -26 20 c-24 19 -40 21 -160 21 -126 0
-134 -1 -161 -24 -28 -24 -28 -25 -31 -165 l-4 -142 -141 3 -142 3 -3 195 c-2
174 -1 196 15 207 12 10 88 13 295 13 153 0 278 2 278 5 0 18 -26 55 -47 64
-16 7 -118 11 -298 11 l-274 0 -28 -24z"/>
</g>
</svg>
