<?xml version="1.0" standalone="no"?>
<!DOCTYPE svg PUBLIC "-//W3C//DTD SVG 20010904//EN"
 "http://www.w3.org/TR/2001/REC-SVG-20010904/DTD/svg10.dtd">
<svg version="1.0" xmlns="http://www.w3.org/2000/svg"
 width="192.000000pt" height="192.000000pt" viewBox="0 0 192.000000 192.000000"
 preserveAspectRatio="xMidYMid meet">
<metadata>
Created by potrace 1.16, written by Peter Selinger 2001-2019
</metadata>
<g transform="translate(0.000000,192.000000) scale(0.100000,-0.100000)"
fill="#000000" stroke="none">
811 c445 -92 729 -532 635 -987 -62 -301 -295 -546 -601 -630 -91 -26 -329
-26 -420 0 -291 80 -516 305 -596 596 -26 91 -26 329 0 420 120 433 542 692
982 601z"/>
<path d="M692 1350 c-18 -11 -37 -32 -42 -46 -15 -38 -13 -437 2 -452 9 -9 84
-12 275 -12 336 0 338 -1 331 -131 -3 -53 -4 -54 -33 -54 -28 0 -30 3 -33 40
-2 22 -8 45 -14 52 -15 18 -588 19 -606 1 -19 -19 -14 -89 8 -126 36 -58 57
-62 375 -62 312 0 335 3 370 56 19 27 20 48 20 350 0 348 -1 356 -55 387 -24
15 -64 17 -297 17 -250 0 -270 -1 -301 -20z m162 -154 c38 -16 52 -50 36 -90
-11 -30 -38 -46 -79 -46 -28 0 -31 -3 -31 -30 0 -23 -4 -30 -20 -30 -19 0 -20
7 -20 99 0 70 4 101 13 104 24 10 68 7 101 -7z m209 -17 c12 -15 17 -39 17
-80 0 -82 -20 -101 -98 -97 l-57 3 -3 88 c-4 111 3 121 73 113 33 -4 56 -14
68 -27z m171 25 c34 -13 16 -33 -31 -36 -41 -3 -48 -6 -51 -25 -3 -20 1 -23
26 -23 40 0 62 -9 62 -25 0 -16 -22 -25 -61 -25 -27 0 -29 -3 -29 -36 0 -28
-3 -35 -17 -32 -15 3 -18 17 -21 97 -2 69 1 97 10 103 15 9 89 11 112 2z"/>
<path d="M780 1130 c0 -26 3 -30 29 -30 33 0 54 20 45 44 -4 10 -18 16 -40 16
-31 0 -34 -3 -34 -30z"/>
<path d="M960 1100 l0 -61 38 3 37 3 0 55 0 55 -37 3 -38 3 0 -61z"/>
</g>
</svg>
