<?xml version="1.0" standalone="no"?>
<!DOCTYPE svg PUBLIC "-//W3C//DTD SVG 20010904//EN"
 "http://www.w3.org/TR/2001/REC-SVG-20010904/DTD/svg10.dtd">
<svg version="1.0" xmlns="http://www.w3.org/2000/svg"
 width="192.000000pt" height="192.000000pt" viewBox="0 0 192.000000 192.000000"
 preserveAspectRatio="xMidYMid meet">
<metadata>
Created by potrace 1.16, written by Peter Selinger 2001-2019
</metadata>
<g transform="translate(0.000000,192.000000) scale(0.100000,-0.100000)"
fill="#000000" stroke="none">
811 c445 -92 729 -532 635 -987 -62 -301 -295 -546 -601 -630 -91 -26 -329
-26 -420 0 -291 80 -516 305 -596 596 -26 91 -26 329 0 420 120 433 542 692
982 601z"/>
<path d="M763 1371 c-45 -11 -77 -34 -110 -78 l-28 -36 0 -293 0 -292 31 -39
c60 -74 74 -78 294 -78 224 0 251 7 305 84 l30 43 0 283 0 283 -30 43 c-53 74
-83 84 -285 86 -96 1 -190 -2 -207 -6z m119 -138 c22 -20 23 -70 1 -95 -35
-39 -113 -8 -113 45 0 58 69 89 112 50z m0 -220 c22 -20 23 -70 1 -95 -36 -40
-113 -8 -113 47 0 54 71 85 112 48z m0 -220 c22 -20 23 -70 1 -95 -9 -10 -30
-18 -49 -18 -57 0 -85 69 -44 110 24 24 67 26 92 3z m230 0 c22 -20 23 -70 1
-95 -9 -10 -30 -18 -49 -18 -57 0 -85 69 -44 110 24 24 67 26 92 3z"/>
</g>
</svg>
