<?xml version="1.0" standalone="no"?>
<!DOCTYPE svg PUBLIC "-//W3C//DTD SVG 20010904//EN"
 "http://www.w3.org/TR/2001/REC-SVG-20010904/DTD/svg10.dtd">
<svg version="1.0" xmlns="http://www.w3.org/2000/svg"
 width="192.000000pt" height="192.000000pt" viewBox="0 0 192.000000 192.000000"
 preserveAspectRatio="xMidYMid meet">
<metadata>
Created by potrace 1.16, written by Peter Selinger 2001-2019
</metadata>
<g transform="translate(0.000000,192.000000) scale(0.100000,-0.100000)"
fill="#000000" stroke="none">
811 c445 -92 729 -532 635 -987 -62 -301 -295 -546 -601 -630 -91 -26 -329
-26 -420 0 -291 80 -516 305 -596 596 -26 91 -26 329 0 420 120 433 542 692
982 601z"/>
<path d="M622 1297 c-18 -19 -22 -35 -22 -85 0 -47 4 -64 15 -68 27 -11 45 16
45 67 l0 49 49 0 c51 0 78 18 67 45 -4 11 -21 15 -69 15 -53 0 -67 -4 -85 -23z"/>
<path d="M1134 1305 c-11 -26 15 -44 69 -47 l52 -3 3 -53 c3 -56 20 -75 47
-52 19 16 20 92 0 129 -18 36 -32 41 -106 41 -44 0 -61 -4 -65 -15z"/>
<path d="M727 1124 c-4 -4 -7 -81 -7 -171 l0 -163 35 0 35 0 0 71 0 70 33 -3
32 -3 3 -67 3 -68 30 0 29 0 -2 168 -3 167 -90 3 c-50 1 -94 0 -98 -4z m131
-91 c3 -32 2 -33 -32 -33 -35 0 -36 1 -36 36 0 34 1 35 33 32 28 -3 32 -7 35
-35z"/>
<path d="M990 960 l0 -170 35 0 35 0 0 70 0 70 35 0 35 0 0 -70 0 -70 35 0 35
0 0 79 c0 45 -5 83 -10 86 -8 5 -8 11 0 20 6 8 10 42 8 82 l-3 68 -102 3 -103
3 0 -171z m140 75 c0 -33 -2 -35 -35 -35 -32 0 -35 3 -35 28 0 16 3 32 7 35 3
4 19 7 35 7 25 0 28 -3 28 -35z"/>
<path d="M607 783 c-9 -8 -9 -116 -1 -138 16 -40 137 -63 164 -30 23 27 4 44
-52 47 l-53 3 -3 50 c-2 27 -8 55 -14 62 -11 14 -31 17 -41 6z"/>
<path d="M1267 783 c-4 -3 -7 -27 -7 -53 0 -58 -12 -70 -72 -70 -53 0 -71 -18
-47 -46 20 -24 123 -15 151 14 26 25 38 123 18 147 -13 16 -32 19 -43 8z"/>
</g>
</svg>
