<?xml version="1.0" standalone="no"?>
<!DOCTYPE svg PUBLIC "-//W3C//DTD SVG 20010904//EN"
 "http://www.w3.org/TR/2001/REC-SVG-20010904/DTD/svg10.dtd">
<svg version="1.0" xmlns="http://www.w3.org/2000/svg"
 width="192.000000pt" height="192.000000pt" viewBox="0 0 192.000000 192.000000"
 preserveAspectRatio="xMidYMid meet">
<metadata>
Created by potrace 1.16, written by Peter Selinger 2001-2019
</metadata>
<g transform="translate(0.000000,192.000000) scale(0.100000,-0.100000)"
fill="#000000" stroke="none">
811 c445 -92 729 -532 635 -987 -62 -301 -295 -546 -601 -630 -91 -26 -329
-26 -420 0 -291 80 -516 305 -596 596 -26 91 -26 329 0 420 120 433 542 692
982 601z"/>
<path d="M778 1223 c-9 -10 -35 -64 -59 -120 l-43 -103 -58 0 c-49 0 -60 -3
-73 -24 -11 -17 -13 -30 -6 -48 12 -33 28 -38 116 -38 88 0 103 10 135 93 15
38 26 54 30 45 4 -7 36 -78 70 -158 35 -80 70 -153 79 -163 29 -34 62 -18 120
61 45 61 58 72 83 72 16 0 41 -9 55 -20 35 -27 75 -25 111 5 39 33 48 74 27
115 -27 53 -114 73 -146 34 -6 -8 -30 -14 -55 -14 -60 0 -86 -12 -115 -54 -13
-20 -27 -36 -30 -36 -3 0 -39 75 -79 168 -80 182 -92 202 -125 202 -12 0 -29
-8 -37 -17z"/>
</g>
</svg>
