<?xml version="1.0" standalone="no"?>
<!DOCTYPE svg PUBLIC "-//W3C//DTD SVG 20010904//EN"
 "http://www.w3.org/TR/2001/REC-SVG-20010904/DTD/svg10.dtd">
<svg version="1.0" xmlns="http://www.w3.org/2000/svg"
 width="192.000000pt" height="192.000000pt" viewBox="0 0 192.000000 192.000000"
 preserveAspectRatio="xMidYMid meet">
<metadata>
Created by potrace 1.16, written by Peter Selinger 2001-2019
</metadata>
<g transform="translate(0.000000,192.000000) scale(0.100000,-0.100000)"
fill="#000000" stroke="none">
811 c445 -92 729 -532 635 -987 -62 -301 -295 -546 -601 -630 -91 -26 -329
-26 -420 0 -291 80 -516 305 -596 596 -26 91 -26 329 0 420 120 433 542 692
982 601z"/>
<path d="M699 1351 l-29 -29 0 -146 c0 -130 2 -146 18 -155 39 -21 47 0 52
151 l5 143 120 3 120 3 80 -81 80 -80 -46 0 c-50 0 -69 13 -69 47 0 28 -24 40
-45 23 -25 -21 -18 -68 14 -101 26 -26 36 -29 90 -29 58 0 61 -1 61 -24 0 -25
-1 -25 -35 -10 -67 28 -151 11 -206 -42 -22 -21 -30 -23 -54 -14 -52 20 -125
-22 -140 -80 -4 -17 -22 -34 -53 -50 -67 -36 -94 -86 -90 -166 3 -49 10 -69
31 -98 53 -69 62 -71 347 -71 231 0 259 2 293 19 74 37 114 138 87 220 -6 20
-31 53 -58 77 l-47 41 -3 136 -4 137 -101 103 -102 102 -143 0 -144 0 -29 -29z"/>
</g>
</svg>
