<?xml version="1.0" standalone="no"?>
<!DOCTYPE svg PUBLIC "-//W3C//DTD SVG 20010904//EN"
 "http://www.w3.org/TR/2001/REC-SVG-20010904/DTD/svg10.dtd">
<svg version="1.0" xmlns="http://www.w3.org/2000/svg"
 width="192.000000pt" height="192.000000pt" viewBox="0 0 192.000000 192.000000"
 preserveAspectRatio="xMidYMid meet">
<metadata>
Created by potrace 1.16, written by Peter Selinger 2001-2019
</metadata>
<g transform="translate(0.000000,192.000000) scale(0.100000,-0.100000)"
fill="#000000" stroke="none">
811 c445 -92 729 -532 635 -987 -62 -301 -295 -546 -601 -630 -91 -26 -329
-26 -420 0 -291 80 -516 305 -596 596 -26 91 -26 329 0 420 120 433 542 692
982 601z"/>
<path d="M655 1301 c-46 -21 -79 -54 -94 -94 -6 -16 -11 -100 -11 -190 0 -182
5 -199 76 -253 34 -27 46 -29 136 -32 l99 -4 -3 -26 c-3 -24 -8 -27 -46 -30
-46 -3 -63 -22 -42 -47 11 -13 42 -15 194 -13 l181 3 0 25 c0 22 -5 25 -42 28
-40 3 -43 5 -43 33 l0 29 82 0 c101 0 157 23 196 83 26 38 27 48 30 186 4 160
-3 202 -45 252 -54 64 -78 69 -368 69 -232 0 -264 -2 -300 -19z m436 -193 c65
-30 122 -81 117 -105 -5 -27 -37 -27 -66 0 -98 92 -244 97 -355 12 -25 -19
-52 -35 -60 -35 -26 0 -27 29 -1 59 81 97 240 127 365 69z m-60 -141 c37 -25
50 -63 25 -73 -8 -3 -27 4 -42 15 -35 27 -93 28 -127 1 -31 -24 -53 -26 -61
-3 -7 18 26 60 59 73 41 17 111 11 146 -13z"/>
</g>
</svg>
