<?xml version="1.0" standalone="no"?>
<!DOCTYPE svg PUBLIC "-//W3C//DTD SVG 20010904//EN"
 "http://www.w3.org/TR/2001/REC-SVG-20010904/DTD/svg10.dtd">
<svg version="1.0" xmlns="http://www.w3.org/2000/svg"
 width="192.000000pt" height="192.000000pt" viewBox="0 0 192.000000 192.000000"
 preserveAspectRatio="xMidYMid meet">
<metadata>
Created by potrace 1.16, written by Peter Selinger 2001-2019
</metadata>
<g transform="translate(0.000000,192.000000) scale(0.100000,-0.100000)"
fill="#000000" stroke="none">
811 c445 -92 729 -532 635 -987 -62 -301 -295 -546 -601 -630 -91 -26 -329
-26 -420 0 -291 80 -516 305 -596 596 -26 91 -26 329 0 420 120 433 542 692
982 601z"/>
<path d="M837 1253 c-63 -21 -108 -63 -100 -92 8 -32 46 -37 84 -10 39 27 129
37 182 20 49 -17 102 -72 122 -128 25 -72 30 -78 61 -81 86 -8 128 -86 88
-163 -24 -47 -66 -59 -204 -59 -94 0 -120 3 -120 13 0 22 40 52 67 52 15 0 31
9 40 22 13 19 12 24 -6 42 -14 14 -34 21 -57 21 -31 0 -45 -8 -85 -49 -41 -40
-49 -54 -49 -85 0 -28 7 -45 30 -67 l30 -30 163 3 c159 3 165 4 205 31 85 56
111 170 59 259 -26 46 -80 88 -110 88 -9 0 -26 22 -40 53 -63 137 -222 208
-360 160z"/>
<path d="M665 1065 c-149 -80 -168 -277 -36 -370 38 -27 50 -30 119 -30 l77 0
0 35 0 35 -60 6 c-72 7 -107 27 -130 76 -23 47 -13 95 30 141 30 33 39 37 82
37 34 0 57 -7 80 -22 35 -26 53 -29 71 -11 46 46 -31 110 -138 116 -46 2 -74
-2 -95 -13z"/>
</g>
</svg>
