<?xml version="1.0" standalone="no"?>
<!DOCTYPE svg PUBLIC "-//W3C//DTD SVG 20010904//EN"
 "http://www.w3.org/TR/2001/REC-SVG-20010904/DTD/svg10.dtd">
<svg version="1.0" xmlns="http://www.w3.org/2000/svg"
 width="192.000000pt" height="192.000000pt" viewBox="0 0 192.000000 192.000000"
 preserveAspectRatio="xMidYMid meet">
<metadata>
Created by potrace 1.16, written by Peter Selinger 2001-2019
</metadata>
<g transform="translate(0.000000,192.000000) scale(0.100000,-0.100000)"
fill="#000000" stroke="none">
811 c445 -92 729 -532 635 -987 -62 -301 -295 -546 -601 -630 -91 -26 -329
-26 -420 0 -291 80 -516 305 -596 596 -26 91 -26 329 0 420 120 433 542 692
982 601z"/>
<path d="M850 1321 c-25 -10 -63 -27 -85 -39 -22 -12 -51 -22 -65 -22 -40 -1
-102 -34 -137 -73 -56 -64 -52 -170 11 -272 l25 -40 1 85 c0 47 5 92 10 100 7
11 10 8 10 -16 0 -63 103 -179 224 -253 124 -75 268 -113 352 -94 24 6 44 8
44 6 0 -9 -54 -48 -104 -76 l-51 -28 76 4 c147 7 225 74 223 191 0 36 -7 74
-17 93 -9 18 -17 54 -17 82 0 69 -31 161 -74 219 -43 59 -124 117 -191 137
-66 20 -179 18 -235 -4z"/>
<path d="M610 856 c0 -26 62 -124 102 -162 72 -67 145 -98 245 -102 47 -2 89
1 100 7 16 10 16 10 -5 11 -41 0 -173 50 -244 91 -38 22 -98 67 -133 101 -36
33 -65 57 -65 54z"/>
</g>
</svg>
