<?xml version="1.0" standalone="no"?>
<!DOCTYPE svg PUBLIC "-//W3C//DTD SVG 20010904//EN"
 "http://www.w3.org/TR/2001/REC-SVG-20010904/DTD/svg10.dtd">
<svg version="1.0" xmlns="http://www.w3.org/2000/svg"
 width="192.000000pt" height="192.000000pt" viewBox="0 0 192.000000 192.000000"
 preserveAspectRatio="xMidYMid meet">
<metadata>
Created by potrace 1.16, written by Peter Selinger 2001-2019
</metadata>
<g transform="translate(0.000000,192.000000) scale(0.100000,-0.100000)"
fill="#000000" stroke="none">
811 c445 -92 729 -532 635 -987 -62 -301 -295 -546 -601 -630 -91 -26 -329
-26 -420 0 -291 80 -516 305 -596 596 -26 91 -26 329 0 420 120 433 542 692
982 601z"/>
<path d="M829 1351 c-54 -17 -132 -64 -157 -93 -9 -11 45 -70 276 -301 l288
-288 20 23 c98 109 129 261 83 401 -68 209 -299 325 -510 258z"/>
<path d="M586 1138 c-8 -18 -16 -42 -20 -53 -5 -16 41 -67 242 -268 l247 -247
48 16 c26 9 50 20 53 26 6 10 -533 558 -549 558 -4 0 -14 -15 -21 -32z"/>
<path d="M550 933 c0 -53 39 -157 79 -209 20 -27 59 -65 86 -86 53 -40 166
-82 209 -76 24 3 9 20 -174 203 -191 190 -200 198 -200 168z"/>
</g>
</svg>
