<?xml version="1.0" standalone="no"?>
<!DOCTYPE svg PUBLIC "-//W3C//DTD SVG 20010904//EN"
 "http://www.w3.org/TR/2001/REC-SVG-20010904/DTD/svg10.dtd">
<svg version="1.0" xmlns="http://www.w3.org/2000/svg"
 width="192.000000pt" height="192.000000pt" viewBox="0 0 192.000000 192.000000"
 preserveAspectRatio="xMidYMid meet">
<metadata>
Created by potrace 1.16, written by Peter Selinger 2001-2019
</metadata>
<g transform="translate(0.000000,192.000000) scale(0.100000,-0.100000)"
fill="#000000" stroke="none">
811 c445 -92 729 -532 635 -987 -62 -301 -295 -546 -601 -630 -91 -26 -329
-26 -420 0 -291 80 -516 305 -596 596 -26 91 -26 329 0 420 120 433 542 692
982 601z"/>
<path d="M655 1336 c-37 -16 -92 -77 -102 -114 -5 -15 -8 -101 -8 -192 0 -182
6 -204 65 -253 41 -35 89 -47 183 -47 l77 0 0 -35 c0 -30 -5 -37 -41 -55 -27
-14 -39 -27 -37 -38 3 -15 21 -17 163 -17 142 0 160 2 163 17 2 11 -10 24 -37
38 -36 18 -41 25 -41 55 l0 35 78 0 c125 0 189 29 230 104 25 45 25 366 0 411
-22 40 -66 81 -101 94 -43 17 -554 14 -592 -3z m543 -398 c18 -18 14 -46 -7
-58 -12 -6 -106 -10 -236 -10 -130 0 -224 4 -236 10 -21 12 -25 40 -7 58 17
17 469 17 486 0z"/>
</g>
</svg>
