<?xml version="1.0" standalone="no"?>
<!DOCTYPE svg PUBLIC "-//W3C//DTD SVG 20010904//EN"
 "http://www.w3.org/TR/2001/REC-SVG-20010904/DTD/svg10.dtd">
<svg version="1.0" xmlns="http://www.w3.org/2000/svg"
 width="192.000000pt" height="192.000000pt" viewBox="0 0 192.000000 192.000000"
 preserveAspectRatio="xMidYMid meet">
<metadata>
Created by potrace 1.16, written by Peter Selinger 2001-2019
</metadata>
<g transform="translate(0.000000,192.000000) scale(0.100000,-0.100000)"
fill="#000000" stroke="none">
811 c445 -92 729 -532 635 -987 -62 -301 -295 -546 -601 -630 -91 -26 -329
-26 -420 0 -291 80 -516 305 -596 596 -26 91 -26 329 0 420 120 433 542 692
982 601z"/>
<path d="M876 1333 c-4 -10 0 -59 10 -111 9 -51 15 -94 13 -96 -2 -2 -37 -24
-77 -50 -40 -25 -76 -54 -79 -63 -10 -26 11 -47 61 -58 l48 -10 -93 -80 c-181
-156 -209 -185 -209 -216 0 -37 32 -69 69 -69 33 0 39 5 220 163 l124 109 19
-60 c31 -102 61 -95 114 29 44 100 34 95 166 80 121 -13 126 11 28 120 l-71
78 31 78 c34 89 36 105 14 124 -13 10 -29 6 -104 -31 l-89 -43 -47 39 c-26 21
-58 49 -73 61 -31 27 -66 29 -75 6z"/>
</g>
</svg>
