<?xml version="1.0" standalone="no"?>
<!DOCTYPE svg PUBLIC "-//W3C//DTD SVG 20010904//EN"
 "http://www.w3.org/TR/2001/REC-SVG-20010904/DTD/svg10.dtd">
<svg version="1.0" xmlns="http://www.w3.org/2000/svg"
 width="192.000000pt" height="192.000000pt" viewBox="0 0 192.000000 192.000000"
 preserveAspectRatio="xMidYMid meet">
<metadata>
Created by potrace 1.16, written by Peter Selinger 2001-2019
</metadata>
<g transform="translate(0.000000,192.000000) scale(0.100000,-0.100000)"
fill="#000000" stroke="none">
811 c445 -92 729 -532 635 -987 -62 -301 -295 -546 -601 -630 -91 -26 -329
-26 -420 0 -291 80 -516 305 -596 596 -26 91 -26 329 0 420 120 433 542 692
982 601z"/>
<path d="M1229 1383 c-6 -18 -16 -33 -23 -33 -7 0 -21 -7 -32 -15 -18 -13 -18
-14 13 -21 25 -5 33 -13 38 -36 8 -35 29 -32 33 5 2 19 10 27 33 32 37 8 37
22 -1 30 -19 4 -30 13 -30 23 0 9 -5 24 -10 32 -7 12 -12 8 -21 -17z"/>
<path d="M819 1330 c-118 -5 -128 -7 -161 -32 -20 -15 -45 -47 -57 -71 -19
-40 -21 -60 -21 -263 0 -244 7 -274 69 -327 51 -43 94 -49 325 -45 l213 3 48
30 c75 47 90 84 90 230 l0 120 -82 3 -83 3 0 99 0 100 -100 0 -100 0 0 74 c0
41 -3 76 -7 78 -5 2 -65 1 -134 -2z"/>
<path d="M1143 1260 c0 -41 2 -58 4 -37 2 20 2 54 0 75 -2 20 -4 3 -4 -38z"/>
<path d="M1325 1263 c-4 -11 -15 -23 -26 -26 -25 -7 -24 -27 1 -27 13 0 20 -7
20 -20 0 -18 -7 -20 -77 -22 l-78 -2 65 -3 c79 -5 107 1 115 26 3 10 16 22 28
25 l22 7 -21 11 c-12 5 -27 20 -32 32 l-11 21 -6 -22z"/>
</g>
</svg>
