<?xml version="1.0" standalone="no"?>
<!DOCTYPE svg PUBLIC "-//W3C//DTD SVG 20010904//EN"
 "http://www.w3.org/TR/2001/REC-SVG-20010904/DTD/svg10.dtd">
<svg version="1.0" xmlns="http://www.w3.org/2000/svg"
 width="192.000000pt" height="192.000000pt" viewBox="0 0 192.000000 192.000000"
 preserveAspectRatio="xMidYMid meet">
<metadata>
Created by potrace 1.16, written by Peter Selinger 2001-2019
</metadata>
<g transform="translate(0.000000,192.000000) scale(0.100000,-0.100000)"
fill="#000000" stroke="none">
811 c445 -92 729 -532 635 -987 -62 -301 -295 -546 -601 -630 -91 -26 -329
-26 -420 0 -291 80 -516 305 -596 596 -26 91 -26 329 0 420 120 433 542 692
982 601z"/>
<path d="M692 1323 c-44 -21 -100 -88 -107 -127 -4 -17 -5 -132 -3 -256 3
-217 4 -226 26 -258 13 -17 40 -44 59 -60 l36 -27 231 -3 c193 -3 237 0 273
13 51 20 98 71 112 122 14 49 14 427 1 475 -14 50 -55 97 -105 119 -35 16 -68
19 -265 19 -188 0 -230 -3 -258 -17z m300 -150 c15 -14 18 -32 18 -130 l0
-113 34 0 c46 0 66 -9 66 -28 0 -20 -139 -162 -158 -162 -15 0 -138 114 -153
142 -14 25 15 48 62 48 l39 0 0 120 c0 103 2 120 18 129 25 15 53 13 74 -6z"/>
</g>
</svg>
