<?xml version="1.0" standalone="no"?>
<!DOCTYPE svg PUBLIC "-//W3C//DTD SVG 20010904//EN"
 "http://www.w3.org/TR/2001/REC-SVG-20010904/DTD/svg10.dtd">
<svg version="1.0" xmlns="http://www.w3.org/2000/svg"
 width="192.000000pt" height="192.000000pt" viewBox="0 0 192.000000 192.000000"
 preserveAspectRatio="xMidYMid meet">
<metadata>
Created by potrace 1.16, written by Peter Selinger 2001-2019
</metadata>
<g transform="translate(0.000000,192.000000) scale(0.100000,-0.100000)"
fill="#000000" stroke="none">
811 c445 -92 729 -532 635 -987 -62 -301 -295 -546 -601 -630 -91 -26 -329
-26 -420 0 -291 80 -516 305 -596 596 -26 91 -26 329 0 420 120 433 542 692
982 601z"/>
<path d="M746 1365 c-56 -20 -104 -71 -121 -129 -21 -71 -21 -471 0 -543 18
-60 74 -116 132 -132 51 -15 351 -14 394 0 53 18 99 58 120 103 17 37 19 68
19 301 0 233 -2 264 -19 301 -21 45 -67 85 -120 103 -50 16 -356 14 -405 -4z
m222 -269 c34 -35 62 -67 62 -71 0 -3 -5 -15 -10 -26 -10 -17 -23 -19 -160
-19 -137 0 -150 2 -160 19 -13 25 -13 27 6 45 11 12 36 16 96 16 l81 0 -21 23
c-21 23 -29 57 -15 70 3 4 18 7 33 7 20 0 43 -17 88 -64z m240 -174 c6 -42
-14 -52 -100 -52 l-79 0 23 -30 c17 -24 20 -35 12 -48 -23 -37 -54 -27 -120
39 -107 106 -93 120 111 117 148 -3 150 -3 153 -26z"/>
</g>
</svg>
