<?xml version="1.0" standalone="no"?>
<!DOCTYPE svg PUBLIC "-//W3C//DTD SVG 20010904//EN"
 "http://www.w3.org/TR/2001/REC-SVG-20010904/DTD/svg10.dtd">
<svg version="1.0" xmlns="http://www.w3.org/2000/svg"
 width="192.000000pt" height="192.000000pt" viewBox="0 0 192.000000 192.000000"
 preserveAspectRatio="xMidYMid meet">
<metadata>
Created by potrace 1.16, written by Peter Selinger 2001-2019
</metadata>
<g transform="translate(0.000000,192.000000) scale(0.100000,-0.100000)"
fill="#000000" stroke="none">
811 c445 -92 729 -532 635 -987 -62 -301 -295 -546 -601 -630 -91 -26 -329
-26 -420 0 -291 80 -516 305 -596 596 -26 91 -26 329 0 420 120 433 542 692
982 601z"/>
<path d="M821 1326 c-47 -26 -50 -46 -51 -278 0 -201 -5 -246 -27 -225 -3 3
-7 71 -10 151 -5 130 -8 146 -24 151 -29 9 -56 -3 -63 -28 -10 -37 -7 -249 4
-289 20 -69 102 -101 159 -62 45 32 51 68 51 295 0 164 3 210 13 207 9 -4 13
-78 15 -318 1 -211 6 -318 13 -327 16 -18 43 -16 62 5 15 16 17 54 17 326 0
338 -4 362 -59 390 -36 19 -68 20 -100 2z"/>
<path d="M1042 1128 c-17 -17 -17 -309 0 -326 17 -17 42 -15 61 6 14 15 17 42
17 159 0 123 -2 142 -18 156 -22 20 -43 22 -60 5z"/>
<path d="M520 1060 c-22 -14 -27 -143 -6 -175 18 -27 45 -32 64 -13 16 16 16
170 0 186 -14 14 -37 15 -58 2z"/>
<path d="M1322 1058 c-7 -7 -12 -43 -12 -93 0 -83 9 -105 41 -105 36 0 49 28
49 101 0 39 -5 79 -10 90 -12 21 -50 25 -68 7z"/>
<path d="M1182 1028 c-7 -7 -12 -35 -12 -63 0 -28 5 -56 12 -63 18 -18 56 -14
68 7 14 27 13 104 -2 119 -15 15 -51 15 -66 0z"/>
</g>
</svg>
