<?xml version="1.0" standalone="no"?>
<!DOCTYPE svg PUBLIC "-//W3C//DTD SVG 20010904//EN"
 "http://www.w3.org/TR/2001/REC-SVG-20010904/DTD/svg10.dtd">
<svg version="1.0" xmlns="http://www.w3.org/2000/svg"
 width="192.000000pt" height="192.000000pt" viewBox="0 0 192.000000 192.000000"
 preserveAspectRatio="xMidYMid meet">
<metadata>
Created by potrace 1.16, written by Peter Selinger 2001-2019
</metadata>
<g transform="translate(0.000000,192.000000) scale(0.100000,-0.100000)"
fill="#000000" stroke="none">
811 c445 -92 729 -532 635 -987 -62 -301 -295 -546 -601 -630 -91 -26 -329
-26 -420 0 -291 80 -516 305 -596 596 -26 91 -26 329 0 420 120 433 542 692
982 601z"/>
<path d="M794 1373 c-29 -6 -52 -33 -60 -70 -4 -23 0 -36 19 -59 l25 -29 150
-5 c129 -4 153 -8 171 -24 42 -38 17 -146 -41 -177 -23 -13 -218 -27 -218 -16
0 4 11 35 24 70 33 88 27 97 -73 97 -51 0 -82 -4 -89 -12 -5 -7 -28 -71 -51
-142 -46 -149 -45 -156 30 -156 27 0 49 -3 49 -6 0 -4 -14 -60 -31 -125 -34
-125 -33 -152 3 -147 17 2 49 44 124 161 55 87 105 162 111 168 6 6 31 -45 72
-151 40 -103 70 -165 84 -175 55 -38 137 1 137 65 0 16 -18 73 -40 126 -22 53
-40 100 -40 105 0 5 20 27 45 50 64 59 98 133 99 218 1 131 -71 212 -205 231
-63 9 -254 11 -295 3z"/>
</g>
</svg>
