<?xml version="1.0" standalone="no"?>
<!DOCTYPE svg PUBLIC "-//W3C//DTD SVG 20010904//EN"
 "http://www.w3.org/TR/2001/REC-SVG-20010904/DTD/svg10.dtd">
<svg version="1.0" xmlns="http://www.w3.org/2000/svg"
 width="192.000000pt" height="192.000000pt" viewBox="0 0 192.000000 192.000000"
 preserveAspectRatio="xMidYMid meet">
<metadata>
Created by potrace 1.16, written by Peter Selinger 2001-2019
</metadata>
<g transform="translate(0.000000,192.000000) scale(0.100000,-0.100000)"
fill="#000000" stroke="none">
811 c445 -92 729 -532 635 -987 -62 -301 -295 -546 -601 -630 -91 -26 -329
-26 -420 0 -291 80 -516 305 -596 596 -26 91 -26 329 0 420 120 433 542 692
982 601z"/>
<path d="M695 1341 c-67 -16 -126 -73 -146 -140 -8 -28 -18 -41 -33 -43 -31
-4 -31 -39 -2 -104 37 -80 37 -207 1 -282 -36 -75 -34 -99 13 -111 20 -6 45
-11 54 -11 9 0 20 -5 23 -10 4 -6 24 -19 46 -31 38 -19 55 -20 278 -17 l238 3
41 28 c23 15 52 46 64 70 21 39 23 58 26 242 5 247 -3 290 -62 350 -29 28 -57
45 -88 53 -51 13 -402 15 -453 3z m105 -65 c0 -2 -9 -23 -20 -47 -11 -24 -20
-54 -20 -65 0 -21 -2 -21 -37 -8 -21 7 -55 13 -75 14 -26 0 -38 5 -38 14 0 20
49 76 74 86 21 9 116 13 116 6z m60 -326 c0 -293 0 -300 -20 -300 -18 0 -20 7
-20 55 0 60 -17 79 -49 57 -44 -31 -77 -43 -135 -49 -78 -7 -86 3 -52 61 27
46 63 80 115 108 17 9 31 22 31 27 0 6 -25 26 -55 46 -53 33 -115 111 -115
142 0 9 17 13 59 13 46 0 71 -7 117 -30 32 -17 63 -29 71 -26 8 4 13 23 13 54
0 43 25 142 36 142 2 0 4 -135 4 -300z m257 81 c81 -50 76 -85 -21 -140 -96
-55 -116 -42 -116 75 0 73 3 85 21 98 25 17 43 12 116 -33z m-360 -377 c-3 -3
-16 -4 -29 -2 l-23 5 25 10 c23 10 41 1 27 -13z"/>
</g>
</svg>
