<?xml version="1.0" standalone="no"?>
<!DOCTYPE svg PUBLIC "-//W3C//DTD SVG 20010904//EN"
 "http://www.w3.org/TR/2001/REC-SVG-20010904/DTD/svg10.dtd">
<svg version="1.0" xmlns="http://www.w3.org/2000/svg"
 width="192.000000pt" height="192.000000pt" viewBox="0 0 192.000000 192.000000"
 preserveAspectRatio="xMidYMid meet">
<metadata>
Created by potrace 1.16, written by Peter Selinger 2001-2019
</metadata>
<g transform="translate(0.000000,192.000000) scale(0.100000,-0.100000)"
fill="#000000" stroke="none">
811 c445 -92 729 -532 635 -987 -62 -301 -295 -546 -601 -630 -91 -26 -329
-26 -420 0 -291 80 -516 305 -596 596 -26 91 -26 329 0 420 120 433 542 692
982 601z"/>
<path d="M866 1345 c-38 -18 -95 -38 -125 -45 -132 -29 -141 -47 -141 -282 0
-160 2 -177 24 -223 28 -61 122 -151 210 -200 113 -63 200 -45 341 72 38 31
77 75 95 106 l30 52 0 197 0 198 -27 30 c-22 24 -46 35 -105 50 -42 10 -106
33 -142 50 -36 16 -71 30 -78 29 -7 0 -44 -16 -82 -34z m195 -205 c29 -16 26
-75 -5 -95 -14 -9 -30 -15 -38 -13 -12 3 -118 -58 -118 -67 0 -9 105 -60 118
-57 7 2 24 -4 38 -13 44 -29 24 -105 -28 -105 -23 0 -58 26 -58 44 -1 19 -109
77 -134 70 -32 -8 -68 25 -68 61 0 35 34 66 71 63 26 -2 130 59 131 76 0 17
33 46 52 46 11 0 28 -5 39 -10z"/>
</g>
</svg>
