<?xml version="1.0" standalone="no"?>
<!DOCTYPE svg PUBLIC "-//W3C//DTD SVG 20010904//EN"
 "http://www.w3.org/TR/2001/REC-SVG-20010904/DTD/svg10.dtd">
<svg version="1.0" xmlns="http://www.w3.org/2000/svg"
 width="192.000000pt" height="192.000000pt" viewBox="0 0 192.000000 192.000000"
 preserveAspectRatio="xMidYMid meet">
<metadata>
Created by potrace 1.16, written by Peter Selinger 2001-2019
</metadata>
<g transform="translate(0.000000,192.000000) scale(0.100000,-0.100000)"
fill="#000000" stroke="none">
811 c445 -92 729 -532 635 -987 -62 -301 -295 -546 -601 -630 -91 -26 -329
-26 -420 0 -291 80 -516 305 -596 596 -26 91 -26 329 0 420 120 433 542 692
982 601z"/>
<path d="M1207 1346 c-32 -22 -49 -26 -106 -26 -166 0 -231 -65 -239 -237 l-4
-93 -77 0 c-90 0 -142 -20 -188 -73 -112 -127 -32 -326 139 -344 70 -7 119 9
171 56 49 44 67 85 67 149 0 58 -14 74 -68 76 l-37 1 -3 -45 c-4 -73 -11 -90
-45 -110 -50 -31 -93 -26 -133 14 -37 37 -43 70 -20 115 25 47 49 51 287 51
212 0 221 -1 250 -22 47 -35 104 -31 140 10 64 71 20 172 -74 172 -34 0 -50
-6 -70 -25 -24 -25 -30 -26 -124 -23 l-98 3 0 82 c0 112 14 126 123 131 72 4
79 2 101 -22 19 -20 34 -26 69 -26 92 0 137 101 75 170 -40 44 -87 49 -136 16z"/>
</g>
</svg>
