<?xml version="1.0" standalone="no"?>
<!DOCTYPE svg PUBLIC "-//W3C//DTD SVG 20010904//EN"
 "http://www.w3.org/TR/2001/REC-SVG-20010904/DTD/svg10.dtd">
<svg version="1.0" xmlns="http://www.w3.org/2000/svg"
 width="192.000000pt" height="192.000000pt" viewBox="0 0 192.000000 192.000000"
 preserveAspectRatio="xMidYMid meet">
<metadata>
Created by potrace 1.16, written by Peter Selinger 2001-2019
</metadata>
<g transform="translate(0.000000,192.000000) scale(0.100000,-0.100000)"
fill="#000000" stroke="none">
811 c445 -92 729 -532 635 -987 -62 -301 -295 -546 -601 -630 -91 -26 -329
-26 -420 0 -291 80 -516 305 -596 596 -26 91 -26 329 0 420 120 433 542 692
982 601z"/>
<path d="M915 1355 c-78 -46 -98 -77 -106 -160 -14 -149 52 -265 152 -265 25
0 42 10 73 43 50 52 76 127 73 213 -4 89 -48 147 -84 111 -14 -14 -14 -19 6
-50 20 -32 20 -40 11 -108 -17 -121 -76 -183 -124 -130 -34 38 -52 105 -46
175 7 83 23 102 86 99 48 -2 63 12 49 45 -5 9 -9 24 -9 32 -2 23 -37 21 -81
-5z"/>
<path d="M826 925 c-11 -8 -42 -21 -71 -30 -28 -8 -60 -24 -70 -35 -17 -19
-17 -22 -3 -36 15 -15 23 -14 96 14 l81 29 26 -27 c47 -49 87 -48 143 4 l23
21 62 -24 c87 -32 112 -33 112 -1 0 21 -9 28 -55 46 -30 12 -72 30 -93 40
l-38 17 -37 -36 c-21 -20 -43 -37 -50 -37 -6 0 -26 16 -43 35 -35 38 -53 42
-83 20z"/>
<path d="M600 795 c-5 -14 -12 -53 -16 -88 -6 -55 -4 -65 11 -71 10 -3 23 -2
30 4 14 12 40 155 30 170 -12 19 -45 10 -55 -15z"/>
<path d="M1255 810 c-9 -15 15 -152 31 -169 24 -26 44 -5 43 46 -1 72 -20 127
-46 131 -12 2 -24 -2 -28 -8z"/>
<path d="M694 779 c-12 -20 -4 -153 10 -167 25 -25 45 -3 48 53 l3 53 77 -30
76 -30 9 -46 c15 -82 73 -81 73 2 l0 41 73 28 c41 15 78 27 83 27 5 0 8 -19 6
-43 -4 -46 13 -72 41 -61 19 7 27 35 27 105 0 63 -15 85 -52 76 -13 -2 -66
-22 -120 -42 l-96 -38 -104 42 c-106 42 -142 49 -154 30z"/>
</g>
</svg>
