<?xml version="1.0" standalone="no"?>
<!DOCTYPE svg PUBLIC "-//W3C//DTD SVG 20010904//EN"
 "http://www.w3.org/TR/2001/REC-SVG-20010904/DTD/svg10.dtd">
<svg version="1.0" xmlns="http://www.w3.org/2000/svg"
 width="192.000000pt" height="192.000000pt" viewBox="0 0 192.000000 192.000000"
 preserveAspectRatio="xMidYMid meet">
<metadata>
Created by potrace 1.16, written by Peter Selinger 2001-2019
</metadata>
<g transform="translate(0.000000,192.000000) scale(0.100000,-0.100000)"
fill="#000000" stroke="none">
811 c445 -92 729 -532 635 -987 -62 -301 -295 -546 -601 -630 -91 -26 -329
-26 -420 0 -291 80 -516 305 -596 596 -26 91 -26 329 0 420 120 433 542 692
982 601z"/>
<path d="M910 1361 c-73 -22 -131 -75 -145 -132 -6 -24 -12 -27 -66 -32 -68
-6 -101 -24 -129 -70 -26 -42 -25 -80 5 -288 26 -181 39 -216 88 -253 27 -20
40 -21 292 -21 251 0 265 1 291 21 58 43 65 62 95 265 16 107 27 208 24 226
-12 69 -85 123 -165 123 -37 0 -41 3 -55 38 -24 56 -73 101 -129 117 -54 16
-68 17 -106 6z m140 -118 l35 -38 -119 -3 c-65 -1 -121 0 -124 2 -10 11 31 58
61 72 53 24 106 12 147 -33z"/>
</g>
</svg>
