<?xml version="1.0" standalone="no"?>
<!DOCTYPE svg PUBLIC "-//W3C//DTD SVG 20010904//EN"
 "http://www.w3.org/TR/2001/REC-SVG-20010904/DTD/svg10.dtd">
<svg version="1.0" xmlns="http://www.w3.org/2000/svg"
 width="192.000000pt" height="192.000000pt" viewBox="0 0 192.000000 192.000000"
 preserveAspectRatio="xMidYMid meet">
<metadata>
Created by potrace 1.16, written by Peter Selinger 2001-2019
</metadata>
<g transform="translate(0.000000,192.000000) scale(0.100000,-0.100000)"
fill="#000000" stroke="none">
811 c445 -92 729 -532 635 -987 -62 -301 -295 -546 -601 -630 -91 -26 -329
-26 -420 0 -291 80 -516 305 -596 596 -26 91 -26 329 0 420 120 433 542 692
982 601z"/>
<path d="M654 1361 c-65 -40 -64 -32 -64 -398 l0 -333 34 -38 34 -37 209 -3
c195 -2 210 -1 241 18 31 19 62 71 62 104 0 8 -14 16 -33 20 -45 8 -74 41 -92
104 -10 33 -32 71 -60 102 -25 28 -45 57 -45 64 0 15 32 46 48 46 6 0 43 -27
82 -61 43 -38 76 -59 85 -55 13 4 15 36 15 191 0 209 -7 241 -62 275 -30 18
-50 20 -228 20 -174 0 -198 -2 -226 -19z"/>
<path d="M1176 954 c-5 -217 -4 -259 8 -266 7 -4 17 -20 21 -35 9 -36 21 -43
73 -43 l42 0 0 98 c0 88 -5 116 -54 286 -30 104 -61 195 -68 203 -13 12 -16
-20 -22 -243z"/>
</g>
</svg>
