<?xml version="1.0" standalone="no"?>
<!DOCTYPE svg PUBLIC "-//W3C//DTD SVG 20010904//EN"
 "http://www.w3.org/TR/2001/REC-SVG-20010904/DTD/svg10.dtd">
<svg version="1.0" xmlns="http://www.w3.org/2000/svg"
 width="192.000000pt" height="192.000000pt" viewBox="0 0 192.000000 192.000000"
 preserveAspectRatio="xMidYMid meet">
<metadata>
Created by potrace 1.16, written by Peter Selinger 2001-2019
</metadata>
<g transform="translate(0.000000,192.000000) scale(0.100000,-0.100000)"
fill="#000000" stroke="none">
811 c445 -92 729 -532 635 -987 -62 -301 -295 -546 -601 -630 -91 -26 -329
-26 -420 0 -291 80 -516 305 -596 596 -26 91 -26 329 0 420 120 433 542 692
982 601z"/>
<path d="M899 1354 c-59 -44 -110 -66 -186 -79 -116 -20 -113 -13 -113 -248 0
-183 2 -204 21 -244 26 -54 104 -124 208 -186 84 -51 114 -55 126 -16 9 27 -4
40 -83 87 -86 51 -155 112 -176 156 -13 27 -16 67 -16 195 l0 161 28 5 c115
25 168 45 220 86 22 17 24 16 80 -17 67 -41 148 -67 194 -62 29 3 33 7 36 35
3 30 1 33 -40 43 -84 23 -126 41 -174 75 -58 42 -79 43 -125 9z"/>
<path d="M906 1146 c-21 -14 -55 -27 -75 -31 -58 -11 -61 -17 -61 -129 0 -134
22 -170 144 -234 l39 -21 47 24 c60 31 107 70 125 106 19 36 21 222 3 236 -7
6 -35 16 -62 22 -27 7 -62 21 -77 32 -34 24 -35 24 -83 -5z"/>
<path d="M1236 1058 c-9 -16 -15 -55 -15 -122 -1 -65 -7 -108 -16 -127 -9 -16
-47 -53 -85 -84 -39 -31 -70 -62 -70 -69 0 -7 9 -21 21 -31 19 -18 21 -18 52
-2 57 31 127 98 157 151 28 48 30 57 30 168 0 106 -2 118 -19 128 -29 15 -39
13 -55 -12z"/>
</g>
</svg>
