<?xml version="1.0" standalone="no"?>
<!DOCTYPE svg PUBLIC "-//W3C//DTD SVG 20010904//EN"
 "http://www.w3.org/TR/2001/REC-SVG-20010904/DTD/svg10.dtd">
<svg version="1.0" xmlns="http://www.w3.org/2000/svg"
 width="192.000000pt" height="192.000000pt" viewBox="0 0 192.000000 192.000000"
 preserveAspectRatio="xMidYMid meet">
<metadata>
Created by potrace 1.16, written by Peter Selinger 2001-2019
</metadata>
<g transform="translate(0.000000,192.000000) scale(0.100000,-0.100000)"
fill="#000000" stroke="none">
811 c445 -92 729 -532 635 -987 -62 -301 -295 -546 -601 -630 -91 -26 -329
-26 -420 0 -291 80 -516 305 -596 596 -26 91 -26 329 0 420 120 433 542 692
982 601z"/>
<path d="M625 1295 c-23 -22 -25 -31 -25 -123 0 -83 3 -104 19 -123 l19 -24
298 -3 c205 -2 306 1 325 8 40 17 52 56 48 160 -6 138 16 130 -356 130 l-304
0 -24 -25z m605 -73 c27 -34 25 -77 -5 -107 -63 -64 -170 9 -133 90 25 55 101
64 138 17z m-462 -8 c24 -17 30 -62 10 -82 -38 -38 -108 9 -89 61 15 38 44 46
79 21z"/>
<path d="M625 885 c-23 -22 -25 -31 -25 -123 0 -83 3 -104 19 -123 l19 -24
298 -3 c205 -2 306 1 325 8 40 17 52 56 48 160 -6 138 16 130 -356 130 l-304
0 -24 -25z m596 -74 c75 -76 -20 -187 -104 -121 -33 26 -41 63 -22 101 29 54
83 63 126 20z m-447 -17 c19 -18 21 -65 4 -82 -20 -20 -65 -14 -82 10 -21 30
-20 44 4 68 24 24 53 26 74 4z"/>
</g>
</svg>
