<?xml version="1.0" standalone="no"?>
<!DOCTYPE svg PUBLIC "-//W3C//DTD SVG 20010904//EN"
 "http://www.w3.org/TR/2001/REC-SVG-20010904/DTD/svg10.dtd">
<svg version="1.0" xmlns="http://www.w3.org/2000/svg"
 width="192.000000pt" height="192.000000pt" viewBox="0 0 192.000000 192.000000"
 preserveAspectRatio="xMidYMid meet">
<metadata>
Created by potrace 1.16, written by Peter Selinger 2001-2019
</metadata>
<g transform="translate(0.000000,192.000000) scale(0.100000,-0.100000)"
fill="#000000" stroke="none">
811 c445 -92 729 -532 635 -987 -62 -301 -295 -546 -601 -630 -91 -26 -329
-26 -420 0 -291 80 -516 305 -596 596 -26 91 -26 329 0 420 120 433 542 692
982 601z"/>
<path d="M692 1303 c-14 -12 -29 -56 -49 -137 -23 -98 -33 -124 -56 -146 -34
-31 -46 -80 -47 -175 0 -107 4 -115 56 -115 l44 0 0 -40 c0 -46 27 -80 63 -80
35 0 57 30 57 78 l0 42 195 0 195 0 0 -40 c0 -47 27 -80 64 -80 32 0 56 35 56
82 l0 37 48 3 47 3 3 95 c4 124 -3 156 -39 190 -25 23 -36 47 -61 146 -16 66
-37 127 -45 137 -15 15 -41 17 -263 17 -222 0 -250 -2 -268 -17z m474 -74 c9
-15 44 -150 44 -171 0 -17 -19 -18 -255 -18 -176 0 -255 3 -255 11 0 14 40
171 46 181 8 13 412 10 420 -3z m-424 -286 c37 -33 10 -93 -42 -93 -33 0 -52
21 -52 55 0 51 55 74 94 38z m515 -9 c15 -24 15 -29 2 -53 -11 -20 -22 -26
-49 -26 -27 0 -38 6 -49 26 -13 24 -13 29 2 53 12 18 26 26 47 26 21 0 35 -8
47 -26z"/>
</g>
</svg>
