<?xml version="1.0" standalone="no"?>
<!DOCTYPE svg PUBLIC "-//W3C//DTD SVG 20010904//EN"
 "http://www.w3.org/TR/2001/REC-SVG-20010904/DTD/svg10.dtd">
<svg version="1.0" xmlns="http://www.w3.org/2000/svg"
 width="192.000000pt" height="192.000000pt" viewBox="0 0 192.000000 192.000000"
 preserveAspectRatio="xMidYMid meet">
<metadata>
Created by potrace 1.16, written by Peter Selinger 2001-2019
</metadata>
<g transform="translate(0.000000,192.000000) scale(0.100000,-0.100000)"
fill="#000000" stroke="none">
811 c445 -92 729 -532 635 -987 -62 -301 -295 -546 -601 -630 -91 -26 -329
-26 -420 0 -291 80 -516 305 -596 596 -26 91 -26 329 0 420 120 433 542 692
982 601z"/>
<path d="M692 1250 c-53 -13 -108 -55 -131 -102 -18 -39 -21 -62 -21 -185 0
-127 2 -144 23 -184 15 -28 40 -54 70 -73 97 -60 220 -25 273 77 11 21 22 27
47 27 27 0 36 -7 55 -40 32 -56 98 -93 167 -92 29 0 66 7 82 16 43 21 90 79
102 123 14 50 14 247 0 298 -17 61 -82 120 -147 134 -59 12 -468 14 -520 1z
m15 -201 c7 -7 23 -9 37 -5 23 6 26 11 26 51 0 48 8 55 32 28 46 -53 45 -109
-2 -153 -26 -24 -27 -28 -19 -90 9 -75 -5 -110 -46 -110 -45 0 -58 26 -50 103
6 66 5 71 -20 97 -16 17 -29 44 -32 67 -4 33 0 45 23 73 l29 34 6 -42 c3 -23
10 -47 16 -53z m464 81 c21 -12 25 -40 7 -58 -18 -18 -46 -14 -58 7 -13 25
-13 27 6 45 18 19 20 19 45 6z m-67 -76 c19 -18 19 -20 6 -45 -6 -10 -19 -19
-28 -19 -39 0 -57 50 -24 69 23 14 28 14 46 -5z m137 6 c21 -12 25 -40 7 -58
-18 -18 -46 -14 -58 7 -13 25 -13 27 6 45 18 19 20 19 45 6z m-66 -76 c19 -20
16 -43 -7 -58 -21 -13 -51 2 -56 26 -3 16 23 48 38 48 5 0 16 -7 25 -16z"/>
<path d="M715 830 c-8 -14 3 -30 21 -30 8 0 14 9 14 20 0 21 -24 28 -35 10z"/>
</g>
</svg>
