<?xml version="1.0" standalone="no"?>
<!DOCTYPE svg PUBLIC "-//W3C//DTD SVG 20010904//EN"
 "http://www.w3.org/TR/2001/REC-SVG-20010904/DTD/svg10.dtd">
<svg version="1.0" xmlns="http://www.w3.org/2000/svg"
 width="192.000000pt" height="192.000000pt" viewBox="0 0 192.000000 192.000000"
 preserveAspectRatio="xMidYMid meet">
<metadata>
Created by potrace 1.16, written by Peter Selinger 2001-2019
</metadata>
<g transform="translate(0.000000,192.000000) scale(0.100000,-0.100000)"
fill="#000000" stroke="none">
811 c445 -92 729 -532 635 -987 -62 -301 -295 -546 -601 -630 -91 -26 -329
-26 -420 0 -291 80 -516 305 -596 596 -26 91 -26 329 0 420 120 433 542 692
982 601z"/>
<path d="M695 1326 c-39 -18 -80 -62 -99 -108 -23 -54 -23 -452 -1 -506 21
-49 52 -81 100 -103 35 -16 67 -19 260 -19 239 0 272 7 322 61 48 52 53 84 53
316 0 191 -3 223 -19 258 -22 47 -64 89 -104 104 -43 17 -474 14 -512 -3z
m502 -66 c57 -34 68 -62 72 -187 l3 -113 -46 0 c-43 0 -45 1 -37 23 16 44 -16
87 -65 87 -41 0 -68 -35 -62 -80 4 -28 3 -30 -31 -30 -51 0 -81 32 -81 86 0
42 -1 43 -25 34 -52 -20 -96 25 -81 83 7 31 48 50 81 37 24 -9 25 -8 25 35 l0
45 108 0 c88 0 113 -3 139 -20z m-475 -329 c-3 -31 0 -42 19 -55 53 -37 114
-2 107 60 -4 33 -3 34 34 34 51 0 78 -27 78 -80 0 -39 1 -39 30 -34 44 9 80
-18 80 -60 0 -46 -29 -70 -75 -63 l-35 6 0 -46 0 -45 -113 3 c-176 6 -200 30
-206 206 l-3 113 44 0 44 0 -4 -39z"/>
</g>
</svg>
