<?xml version="1.0" standalone="no"?>
<!DOCTYPE svg PUBLIC "-//W3C//DTD SVG 20010904//EN"
 "http://www.w3.org/TR/2001/REC-SVG-20010904/DTD/svg10.dtd">
<svg version="1.0" xmlns="http://www.w3.org/2000/svg"
 width="192.000000pt" height="192.000000pt" viewBox="0 0 192.000000 192.000000"
 preserveAspectRatio="xMidYMid meet">
<metadata>
Created by potrace 1.16, written by Peter Selinger 2001-2019
</metadata>
<g transform="translate(0.000000,192.000000) scale(0.100000,-0.100000)"
fill="#000000" stroke="none">
811 c445 -92 729 -532 635 -987 -62 -301 -295 -546 -601 -630 -91 -26 -329
-26 -420 0 -291 80 -516 305 -596 596 -26 91 -26 329 0 420 120 433 542 692
982 601z"/>
<path d="M593 1345 c-37 -26 -56 -132 -33 -176 12 -21 50 -25 68 -7 7 7 12 36
12 65 l0 53 54 0 c61 0 82 16 72 55 -6 24 -10 25 -79 25 -49 0 -80 -5 -94 -15z"/>
<path d="M1147 1353 c-11 -11 -8 -48 5 -61 7 -7 36 -12 65 -12 l53 0 0 -53 c0
-58 12 -77 47 -77 40 0 55 62 33 142 -15 54 -41 68 -126 68 -39 0 -74 -3 -77
-7z"/>
<path d="M895 1229 c-115 -62 -176 -102 -168 -109 4 -5 57 -37 117 -73 l109
-64 119 70 c66 38 116 73 111 78 -23 22 -192 112 -218 116 -19 2 -45 -4 -70
-18z"/>
<path d="M697 1083 c-4 -3 -7 -58 -7 -120 0 -150 4 -157 128 -227 54 -31 104
-56 110 -56 9 0 12 37 12 134 l0 134 -97 57 c-54 32 -107 64 -119 72 -11 7
-24 10 -27 6z"/>
<path d="M1087 1019 l-117 -70 0 -135 c0 -97 3 -134 12 -134 6 0 56 25 110 56
124 70 128 77 128 228 0 63 -4 117 -8 120 -5 3 -61 -27 -125 -65z"/>
<path d="M560 761 c-23 -44 -4 -150 33 -176 14 -10 45 -15 94 -15 69 0 73 1
79 25 10 39 -11 55 -72 55 l-54 0 0 53 c0 29 -5 58 -12 65 -18 18 -56 14 -68
-7z"/>
<path d="M1282 768 c-7 -7 -12 -36 -12 -65 l0 -53 -54 0 c-59 0 -80 -14 -74
-52 3 -21 8 -23 77 -26 53 -2 80 1 97 12 37 25 58 132 34 177 -12 21 -50 25
-68 7z"/>
</g>
</svg>
