<?xml version="1.0" standalone="no"?>
<!DOCTYPE svg PUBLIC "-//W3C//DTD SVG 20010904//EN"
 "http://www.w3.org/TR/2001/REC-SVG-20010904/DTD/svg10.dtd">
<svg version="1.0" xmlns="http://www.w3.org/2000/svg"
 width="192.000000pt" height="192.000000pt" viewBox="0 0 192.000000 192.000000"
 preserveAspectRatio="xMidYMid meet">
<metadata>
Created by potrace 1.16, written by Peter Selinger 2001-2019
</metadata>
<g transform="translate(0.000000,192.000000) scale(0.100000,-0.100000)"
fill="#000000" stroke="none">
811 c445 -92 729 -532 635 -987 -62 -301 -295 -546 -601 -630 -91 -26 -329
-26 -420 0 -291 80 -516 305 -596 596 -26 91 -26 329 0 420 120 433 542 692
982 601z"/>
<path d="M622 1338 c-8 -8 -12 -55 -12 -155 0 -79 -4 -143 -9 -143 -5 0 -14
-13 -20 -28 -9 -22 -9 -35 0 -55 7 -15 16 -27 21 -27 4 0 8 -67 8 -150 0 -131
2 -150 17 -159 11 -6 24 -6 35 0 16 9 18 26 18 149 0 124 2 143 21 175 22 36
22 37 3 73 -15 30 -20 66 -24 182 -5 136 -6 145 -25 148 -11 1 -26 -3 -33 -10z"/>
<path d="M804 1316 l-34 -34 0 -208 c0 -304 -6 -298 307 -292 l193 3 32 33 33
32 3 203 c2 178 1 206 -15 237 -29 56 -45 60 -276 60 l-209 0 -34 -34z m440
-68 c8 -14 7 -21 -6 -34 -30 -30 -75 9 -48 42 16 18 39 15 54 -8z m-123 -71
c107 -72 62 -227 -66 -227 -127 0 -171 164 -62 230 42 26 86 25 128 -3z"/>
<path d="M1000 705 c-9 -11 -40 -15 -118 -17 l-107 -3 0 -30 0 -30 100 -3 c65
-2 105 -7 115 -16 30 -26 59 -28 96 -7 29 17 52 21 134 21 83 0 101 3 109 17
6 11 6 24 0 35 -8 16 -25 18 -118 18 -84 0 -111 3 -121 15 -16 19 -74 19 -90
0z"/>
</g>
</svg>
