<?xml version="1.0" standalone="no"?>
<!DOCTYPE svg PUBLIC "-//W3C//DTD SVG 20010904//EN"
 "http://www.w3.org/TR/2001/REC-SVG-20010904/DTD/svg10.dtd">
<svg version="1.0" xmlns="http://www.w3.org/2000/svg"
 width="192.000000pt" height="192.000000pt" viewBox="0 0 192.000000 192.000000"
 preserveAspectRatio="xMidYMid meet">
<metadata>
Created by potrace 1.16, written by Peter Selinger 2001-2019
</metadata>
<g transform="translate(0.000000,192.000000) scale(0.100000,-0.100000)"
fill="#000000" stroke="none">
811 c445 -92 729 -532 635 -987 -62 -301 -295 -546 -601 -630 -91 -26 -329
-26 -420 0 -291 80 -516 305 -596 596 -26 91 -26 329 0 420 120 433 542 692
982 601z"/>
<path d="M851 1365 c-162 -46 -272 -168 -303 -335 -23 -122 21 -259 115 -352
156 -156 408 -161 568 -12 91 86 130 177 130 305 0 169 -104 320 -261 380 -70
27 -181 33 -249 14z m212 -101 c61 -21 141 -94 174 -158 49 -97 41 -249 -14
-262 -39 -10 -48 9 -48 99 -1 122 -38 183 -139 228 -41 18 -60 20 -116 15 -53
-6 -69 -4 -79 8 -19 22 -9 59 19 73 35 18 147 16 203 -3z m107 -444 c11 -11
20 -27 20 -35 0 -20 -36 -55 -57 -55 -25 0 -53 30 -53 56 0 23 33 54 57 54 7
0 22 -9 33 -20z"/>
</g>
</svg>
