<?xml version="1.0" standalone="no"?>
<!DOCTYPE svg PUBLIC "-//W3C//DTD SVG 20010904//EN"
 "http://www.w3.org/TR/2001/REC-SVG-20010904/DTD/svg10.dtd">
<svg version="1.0" xmlns="http://www.w3.org/2000/svg"
 width="192.000000pt" height="192.000000pt" viewBox="0 0 192.000000 192.000000"
 preserveAspectRatio="xMidYMid meet">
<metadata>
Created by potrace 1.16, written by Peter Selinger 2001-2019
</metadata>
<g transform="translate(0.000000,192.000000) scale(0.100000,-0.100000)"
fill="#000000" stroke="none">
811 c445 -92 729 -532 635 -987 -62 -301 -295 -546 -601 -630 -91 -26 -329
-26 -420 0 -291 80 -516 305 -596 596 -26 91 -26 329 0 420 120 433 542 692
982 601z"/>
<path d="M890 1344 c-14 -3 -58 -16 -98 -30 -67 -22 -75 -23 -107 -10 -19 8
-35 20 -35 25 0 6 -4 11 -10 11 -16 0 -12 -68 6 -95 15 -22 14 -27 -9 -67 -14
-24 -30 -60 -37 -80 -9 -29 -17 -38 -34 -38 -60 0 -73 -82 -16 -103 24 -9 29
-18 35 -56 10 -68 48 -144 99 -199 131 -140 336 -159 491 -45 43 31 56 36 96
34 41 -2 109 19 109 34 0 2 -13 11 -30 20 -37 19 -49 60 -36 131 7 39 15 54
26 54 28 0 53 26 53 55 0 32 -29 58 -55 52 -13 -4 -19 6 -28 42 -26 108 -108
203 -209 242 -51 19 -165 31 -211 23z m213 -146 c29 -29 61 -58 72 -64 15 -9
17 -15 9 -24 -19 -19 -88 24 -126 79 -14 20 -15 20 -54 1 -77 -38 -232 -53
-270 -26 -26 20 -12 23 106 29 78 3 105 9 145 30 28 14 54 26 58 26 5 1 32
-23 60 -51z m-276 -154 c4 -11 -1 -22 -12 -31 -16 -11 -21 -11 -33 1 -8 8 -12
22 -9 30 8 21 46 21 54 0z m290 0 c3 -8 -2 -23 -11 -32 -15 -15 -17 -15 -32 0
-21 21 -11 48 16 48 11 0 23 -7 27 -16z m-149 -61 c2 -9 -8 -13 -32 -13 -34 0
-44 8 -29 24 11 11 56 2 61 -11z m168 -157 c-37 -76 -88 -106 -177 -106 -80 0
-134 28 -166 85 -41 73 -39 75 95 76 64 1 146 7 182 13 92 17 102 6 66 -68z"/>
</g>
</svg>
