<?xml version="1.0" standalone="no"?>
<!DOCTYPE svg PUBLIC "-//W3C//DTD SVG 20010904//EN"
 "http://www.w3.org/TR/2001/REC-SVG-20010904/DTD/svg10.dtd">
<svg version="1.0" xmlns="http://www.w3.org/2000/svg"
 width="192.000000pt" height="192.000000pt" viewBox="0 0 192.000000 192.000000"
 preserveAspectRatio="xMidYMid meet">
<metadata>
Created by potrace 1.16, written by Peter Selinger 2001-2019
</metadata>
<g transform="translate(0.000000,192.000000) scale(0.100000,-0.100000)"
fill="#000000" stroke="none">
811 c445 -92 729 -532 635 -987 -62 -301 -295 -546 -601 -630 -91 -26 -329
-26 -420 0 -291 80 -516 305 -596 596 -26 91 -26 329 0 420 120 433 542 692
982 601z"/>
<path d="M608 1323 c-20 -2 -41 -10 -47 -17 -17 -20 -2 -46 30 -53 l29 -5 0
-119 0 -119 27 -6 c45 -12 53 13 53 162 0 107 -3 136 -16 148 -8 9 -21 15 -27
14 -7 -1 -29 -3 -49 -5z"/>
<path d="M883 1320 c-29 -12 -55 -53 -51 -82 5 -35 54 -38 70 -4 13 29 52 36
62 10 9 -22 -9 -50 -75 -122 -60 -64 -75 -104 -43 -116 9 -3 56 -6 104 -6 80
0 90 2 100 21 18 32 -4 49 -63 49 l-50 0 47 50 c59 63 71 93 56 142 -17 58
-90 85 -157 58z"/>
<path d="M1160 1304 c-41 -35 -38 -68 8 -72 22 -2 34 2 38 12 8 21 50 20 58 0
9 -22 -11 -44 -41 -44 -50 0 -39 -61 13 -70 23 -4 29 -10 29 -30 0 -20 -6 -26
-28 -28 -18 -2 -29 2 -33 12 -7 19 -70 22 -77 4 -2 -7 -1 -23 4 -35 22 -59
151 -71 196 -19 27 31 30 81 8 113 -13 19 -13 24 0 50 18 34 18 45 3 78 -27
59 -124 74 -178 29z"/>
<path d="M562 918 c-18 -18 -16 -182 3 -198 24 -20 54 -3 61 36 20 110 -18
208 -64 162z"/>
<path d="M688 919 c-16 -9 -18 -27 -18 -153 0 -154 5 -171 52 -164 23 3 23 5
26 152 3 172 -6 197 -60 165z"/>
<path d="M806 908 c-24 -34 -22 -149 3 -179 16 -20 23 -22 38 -13 15 9 19 27
21 99 3 87 -5 115 -34 115 -7 0 -20 -10 -28 -22z"/>
<path d="M932 918 c-16 -16 -16 -180 0 -196 16 -16 33 -15 52 4 23 22 23 166
0 188 -19 19 -36 20 -52 4z"/>
<path d="M1056 914 c-12 -11 -16 -36 -16 -94 0 -58 4 -83 16 -94 19 -19 36
-20 52 -4 16 16 16 180 0 196 -16 16 -33 15 -52 -4z"/>
<path d="M1181 916 c-8 -9 -11 -61 -9 -162 l3 -149 24 -3 c43 -6 51 19 51 164
0 107 -3 136 -16 148 -19 20 -38 20 -53 2z"/>
<path d="M1301 921 c-9 -6 -16 -32 -19 -70 -6 -82 4 -128 29 -136 38 -12 49
11 49 104 0 102 -16 129 -59 102z"/>
</g>
</svg>
