<?xml version="1.0" standalone="no"?>
<!DOCTYPE svg PUBLIC "-//W3C//DTD SVG 20010904//EN"
 "http://www.w3.org/TR/2001/REC-SVG-20010904/DTD/svg10.dtd">
<svg version="1.0" xmlns="http://www.w3.org/2000/svg"
 width="192.000000pt" height="192.000000pt" viewBox="0 0 192.000000 192.000000"
 preserveAspectRatio="xMidYMid meet">
<metadata>
Created by potrace 1.16, written by Peter Selinger 2001-2019
</metadata>
<g transform="translate(0.000000,192.000000) scale(0.100000,-0.100000)"
fill="#000000" stroke="none">
811 c445 -92 729 -532 635 -987 -62 -301 -295 -546 -601 -630 -91 -26 -329
-26 -420 0 -291 80 -516 305 -596 596 -26 91 -26 329 0 420 120 433 542 692
982 601z"/>
<path d="M698 1359 c-15 -8 -18 -25 -18 -94 0 -79 -1 -85 -20 -85 -38 0 -89
-28 -104 -59 -12 -23 -16 -62 -16 -165 l0 -135 30 -35 c21 -24 43 -36 70 -41
l40 -7 0 -78 c0 -62 3 -79 16 -84 9 -3 128 -6 264 -6 287 0 270 -7 270 102 l0
63 47 15 c34 11 54 25 71 50 22 33 23 42 20 172 -3 136 -3 137 -33 168 -18 19
-43 33 -67 36 l-38 7 0 73 c0 118 9 114 -277 114 -143 0 -245 -5 -255 -11z
m442 -129 l0 -50 -190 0 -190 0 0 50 0 50 190 0 190 0 0 -50z m-472 -199 c4
-11 -2 -12 -24 -7 l-29 6 28 -21 c34 -26 36 -56 3 -65 -29 -7 -46 1 -46 22 0
17 12 18 28 2 9 -9 12 -9 12 0 0 6 -9 16 -20 22 -20 11 -27 40 -13 54 12 11
56 2 61 -13z m86 -3 c3 -13 7 -35 11 -50 4 -21 2 -28 -10 -28 -9 0 -15 9 -15
24 0 14 -4 28 -10 31 -6 4 -10 -7 -10 -24 0 -22 -5 -31 -16 -31 -13 0 -15 7
-9 43 9 53 12 57 35 57 12 0 21 -9 24 -22z m87 -18 l5 -35 8 38 c6 27 13 37
27 37 16 0 19 -8 19 -50 0 -54 -19 -71 -21 -17 l-1 32 -9 -32 c-12 -41 -38
-44 -40 -5 l-2 27 -4 -27 c-7 -47 -33 -35 -33 15 0 24 3 47 7 51 16 16 38 -1
44 -34z m157 21 c3 -10 -1 -12 -17 -8 -27 7 -27 -4 -1 -21 21 -13 27 -47 9
-57 -16 -11 -59 4 -59 20 0 18 27 20 33 3 2 -7 8 -10 12 -6 4 4 -5 18 -21 31
-34 30 -28 60 13 55 14 -2 29 -9 31 -17z m52 -26 c0 -57 18 -59 22 -3 2 23 9
43 16 46 20 6 12 -88 -9 -101 -32 -20 -49 -1 -49 53 0 27 5 50 10 50 6 0 10
-20 10 -45z m126 5 l12 -35 1 38 c1 56 21 44 21 -13 0 -42 -3 -50 -19 -50 -12
0 -22 11 -29 33 l-10 32 -1 -32 c-2 -54 -21 -37 -21 18 0 42 3 50 17 47 9 -2
22 -19 29 -38z m131 25 c3 -9 2 -19 -2 -23 -4 -4 -10 -1 -12 6 -9 25 -23 11
-23 -24 0 -22 4 -33 11 -29 6 4 8 13 5 21 -3 8 1 14 9 14 9 0 15 -10 15 -24 0
-29 -33 -44 -55 -26 -15 12 -21 81 -8 93 12 13 54 7 60 -8z m-167 -285 l0
-100 -190 0 -190 0 0 100 0 100 190 0 190 0 0 -100z"/>
<path d="M807 807 c-12 -33 8 -38 149 -35 131 3 139 4 139 23 0 19 -8 20 -141
23 -113 2 -143 0 -147 -11z"/>
<path d="M807 716 c-11 -29 17 -36 149 -36 111 0 133 2 138 16 3 9 4 20 0 25
-3 5 -67 9 -144 9 -108 0 -139 -3 -143 -14z"/>
</g>
</svg>
