<?xml version="1.0" standalone="no"?>
<!DOCTYPE svg PUBLIC "-//W3C//DTD SVG 20010904//EN"
 "http://www.w3.org/TR/2001/REC-SVG-20010904/DTD/svg10.dtd">
<svg version="1.0" xmlns="http://www.w3.org/2000/svg"
 width="192.000000pt" height="192.000000pt" viewBox="0 0 192.000000 192.000000"
 preserveAspectRatio="xMidYMid meet">
<metadata>
Created by potrace 1.16, written by Peter Selinger 2001-2019
</metadata>
<g transform="translate(0.000000,192.000000) scale(0.100000,-0.100000)"
fill="#000000" stroke="none">
811 c445 -92 729 -532 635 -987 -62 -301 -295 -546 -601 -630 -91 -26 -329
-26 -420 0 -291 80 -516 305 -596 596 -26 91 -26 329 0 420 120 433 542 692
982 601z"/>
<path d="M830 1299 c0 -12 9 -36 20 -54 l20 -32 -58 -6 c-104 -9 -192 -70
-239 -165 -23 -47 -28 -70 -28 -132 0 -122 56 -213 168 -272 38 -21 58 -23
222 -26 163 -3 186 -1 236 17 158 60 237 249 167 403 -47 102 -157 178 -259
178 -22 0 -39 3 -37 8 2 4 12 24 23 45 14 27 16 40 8 48 -19 19 -39 3 -69 -50
-38 -70 -62 -69 -104 4 -33 58 -70 76 -70 34z"/>
</g>
</svg>
