<?xml version="1.0" standalone="no"?>
<!DOCTYPE svg PUBLIC "-//W3C//DTD SVG 20010904//EN"
 "http://www.w3.org/TR/2001/REC-SVG-20010904/DTD/svg10.dtd">
<svg version="1.0" xmlns="http://www.w3.org/2000/svg"
 width="192.000000pt" height="192.000000pt" viewBox="0 0 192.000000 192.000000"
 preserveAspectRatio="xMidYMid meet">
<metadata>
Created by potrace 1.16, written by Peter Selinger 2001-2019
</metadata>
<g transform="translate(0.000000,192.000000) scale(0.100000,-0.100000)"
fill="#000000" stroke="none">
811 c445 -92 729 -532 635 -987 -62 -301 -295 -546 -601 -630 -91 -26 -329
-26 -420 0 -291 80 -516 305 -596 596 -26 91 -26 329 0 420 120 433 542 692
982 601z"/>
<path d="M853 1365 c-81 -22 -131 -52 -190 -111 -93 -93 -137 -226 -116 -351
24 -136 108 -248 230 -306 64 -30 75 -32 178 -32 104 0 114 2 176 32 81 40
160 121 197 200 37 82 43 223 13 304 -45 119 -131 208 -241 250 -70 26 -181
33 -247 14z m248 -78 c74 -36 136 -100 172 -177 58 -122 37 -271 -53 -373 -18
-21 -46 -47 -64 -59 -23 -16 -17 -7 22 35 44 47 52 62 52 94 0 58 -26 77 -64
48 -14 -11 -19 -26 -18 -53 1 -33 -3 -40 -43 -70 l-45 -33 0 96 0 95 -36 40
c-35 38 -36 43 -28 83 5 23 15 43 22 43 6 1 16 2 22 3 16 2 30 70 19 98 -5 13
-7 29 -4 33 11 18 -24 79 -54 94 -93 49 -192 -18 -176 -120 l6 -44 -33 0 c-38
-1 -61 -12 -113 -58 -30 -27 -35 -36 -25 -47 7 -9 30 -15 51 -15 34 0 46 7 89
53 55 57 70 55 70 -10 0 -31 -2 -33 -32 -33 -28 0 -46 -13 -120 -90 -85 -87
-88 -89 -100 -67 -8 13 -13 58 -13 112 0 76 4 99 26 145 66 140 186 213 340
207 58 -3 90 -10 130 -30z m-308 -517 c10 -33 17 -65 17 -71 0 -6 -23 8 -51
31 l-50 43 27 28 c15 16 31 29 34 29 4 0 14 -27 23 -60z"/>
</g>
</svg>
