<?xml version="1.0" standalone="no"?>
<!DOCTYPE svg PUBLIC "-//W3C//DTD SVG 20010904//EN"
 "http://www.w3.org/TR/2001/REC-SVG-20010904/DTD/svg10.dtd">
<svg version="1.0" xmlns="http://www.w3.org/2000/svg"
 width="192.000000pt" height="192.000000pt" viewBox="0 0 192.000000 192.000000"
 preserveAspectRatio="xMidYMid meet">
<metadata>
Created by potrace 1.16, written by Peter Selinger 2001-2019
</metadata>
<g transform="translate(0.000000,192.000000) scale(0.100000,-0.100000)"
fill="#000000" stroke="none">
811 c445 -92 729 -532 635 -987 -62 -301 -295 -546 -601 -630 -91 -26 -329
-26 -420 0 -291 80 -516 305 -596 596 -26 91 -26 329 0 420 120 433 542 692
982 601z"/>
<path d="M853 1365 c-81 -22 -131 -52 -190 -111 -161 -160 -161 -416 0 -576
156 -156 408 -161 568 -12 91 86 130 177 130 305 0 169 -104 320 -261 380 -70
26 -181 33 -247 14z m213 -183 c175 -90 174 -348 -3 -432 -138 -66 -302 9
-340 154 -7 28 -13 65 -13 83 0 32 -1 33 -45 33 -25 0 -45 5 -45 11 0 15 111
139 125 139 19 0 139 -130 129 -140 -5 -5 -27 -10 -49 -12 l-40 -3 3 -49 c5
-97 75 -168 167 -168 113 0 194 103 166 210 -22 79 -76 121 -171 131 -59 6
-75 26 -49 58 18 21 111 12 165 -15z"/>
</g>
</svg>
