<?xml version="1.0" standalone="no"?>
<!DOCTYPE svg PUBLIC "-//W3C//DTD SVG 20010904//EN"
 "http://www.w3.org/TR/2001/REC-SVG-20010904/DTD/svg10.dtd">
<svg version="1.0" xmlns="http://www.w3.org/2000/svg"
 width="192.000000pt" height="192.000000pt" viewBox="0 0 192.000000 192.000000"
 preserveAspectRatio="xMidYMid meet">
<metadata>
Created by potrace 1.16, written by Peter Selinger 2001-2019
</metadata>
<g transform="translate(0.000000,192.000000) scale(0.100000,-0.100000)"
fill="#000000" stroke="none">
811 c445 -92 729 -532 635 -987 -62 -301 -295 -546 -601 -630 -91 -26 -329
-26 -420 0 -291 80 -516 305 -596 596 -26 91 -26 329 0 420 120 433 542 692
982 601z"/>
<path d="M856 1369 c-63 -15 -153 -68 -202 -121 -190 -203 -129 -534 121 -652
249 -118 535 33 586 308 20 108 -19 244 -95 333 -95 110 -266 166 -410 132z
m199 -123 c40 -17 56 -43 44 -73 -10 -26 -40 -30 -103 -12 -79 22 -177 -25
-217 -103 -17 -33 -20 -55 -17 -103 4 -71 30 -117 86 -156 40 -27 145 -39 181
-20 46 25 95 -20 68 -63 -30 -45 -141 -59 -237 -30 -71 21 -159 107 -183 178
-67 196 72 396 276 396 37 0 83 -6 102 -14z"/>
</g>
</svg>
