<?xml version="1.0" standalone="no"?>
<!DOCTYPE svg PUBLIC "-//W3C//DTD SVG 20010904//EN"
 "http://www.w3.org/TR/2001/REC-SVG-20010904/DTD/svg10.dtd">
<svg version="1.0" xmlns="http://www.w3.org/2000/svg"
 width="192.000000pt" height="192.000000pt" viewBox="0 0 192.000000 192.000000"
 preserveAspectRatio="xMidYMid meet">
<metadata>
Created by potrace 1.16, written by Peter Selinger 2001-2019
</metadata>
<g transform="translate(0.000000,192.000000) scale(0.100000,-0.100000)"
fill="#000000" stroke="none">
811 c445 -92 729 -532 635 -987 -62 -301 -295 -546 -601 -630 -91 -26 -329
-26 -420 0 -291 80 -516 305 -596 596 -26 91 -26 329 0 420 120 433 542 692
982 601z"/>
<path d="M756 1368 c-51 -14 -123 -85 -131 -130 -3 -18 -5 -153 -3 -300 l3
-266 31 -38 c58 -72 84 -79 299 -79 178 0 193 1 232 23 24 12 55 41 70 64 l28
42 0 281 0 281 -28 42 c-15 23 -46 52 -70 64 -38 20 -57 23 -217 25 -102 1
-191 -3 -214 -9z m159 -325 c7 -17 18 -23 42 -23 25 0 32 5 35 23 5 35 40 32
109 -10 102 -63 102 -77 -4 -139 -67 -39 -100 -41 -105 -6 -5 32 -63 32 -77 0
-15 -35 -38 -33 -115 12 -95 55 -95 74 -2 129 74 45 102 48 117 14z"/>
</g>
</svg>
