<?xml version="1.0" standalone="no"?>
<!DOCTYPE svg PUBLIC "-//W3C//DTD SVG 20010904//EN"
 "http://www.w3.org/TR/2001/REC-SVG-20010904/DTD/svg10.dtd">
<svg version="1.0" xmlns="http://www.w3.org/2000/svg"
 width="192.000000pt" height="192.000000pt" viewBox="0 0 192.000000 192.000000"
 preserveAspectRatio="xMidYMid meet">
<metadata>
Created by potrace 1.16, written by Peter Selinger 2001-2019
</metadata>
<g transform="translate(0.000000,192.000000) scale(0.100000,-0.100000)"
fill="#000000" stroke="none">
811 c445 -92 729 -532 635 -987 -62 -301 -295 -546 -601 -630 -91 -26 -329
-26 -420 0 -291 80 -516 305 -596 596 -26 91 -26 329 0 420 120 433 542 692
982 601z"/>
<path d="M969 1317 c-30 -20 -40 -39 -81 -157 -26 -74 -47 -143 -48 -152 -1
-39 54 -62 82 -34 8 7 34 70 57 140 l43 126 124 0 c68 0 124 -4 124 -9 0 -4
-31 -98 -69 -207 l-69 -199 -173 0 -172 0 -42 124 c-49 147 -77 181 -149 181
-92 0 -103 -91 -12 -102 27 -3 31 -10 72 -126 24 -68 49 -131 55 -139 32 -37
64 -43 251 -43 259 0 232 -25 349 313 38 110 69 215 69 233 0 23 -7 38 -26 53
-25 19 -40 21 -189 21 -152 0 -164 -1 -196 -23z"/>
<path d="M939 931 c-20 -16 -22 -23 -14 -47 10 -27 14 -29 75 -32 71 -2 84 2
94 35 17 55 -100 89 -155 44z"/>
<path d="M732 678 c-15 -15 -15 -51 0 -66 7 -7 25 -12 40 -12 36 0 56 36 39
69 -13 23 -59 29 -79 9z"/>
<path d="M1092 678 c-32 -32 5 -92 49 -81 29 8 44 45 30 72 -13 23 -59 29 -79
9z"/>
</g>
</svg>
