<?xml version="1.0" standalone="no"?>
<!DOCTYPE svg PUBLIC "-//W3C//DTD SVG 20010904//EN"
 "http://www.w3.org/TR/2001/REC-SVG-20010904/DTD/svg10.dtd">
<svg version="1.0" xmlns="http://www.w3.org/2000/svg"
 width="192.000000pt" height="192.000000pt" viewBox="0 0 192.000000 192.000000"
 preserveAspectRatio="xMidYMid meet">
<metadata>
Created by potrace 1.16, written by Peter Selinger 2001-2019
</metadata>
<g transform="translate(0.000000,192.000000) scale(0.100000,-0.100000)"
fill="#000000" stroke="none">
811 c445 -92 729 -532 635 -987 -62 -301 -295 -546 -601 -630 -91 -26 -329
-26 -420 0 -291 80 -516 305 -596 596 -26 91 -26 329 0 420 120 433 542 692
982 601z"/>
<path d="M1135 1350 c-11 -4 -32 -21 -47 -36 -39 -43 -418 -518 -418 -525 0
-5 112 -97 137 -112 7 -4 76 74 183 208 138 173 175 213 186 204 11 -9 2 -25
-48 -86 -49 -60 -59 -79 -51 -92 6 -9 16 -16 24 -16 18 0 189 212 189 235 0
25 -24 31 -50 13 -37 -26 -43 -1 -10 43 49 65 35 140 -32 163 -35 13 -36 13
-63 1z"/>
<path d="M645 738 c-15 -48 -33 -154 -26 -161 6 -6 160 13 310 39 32 5 33 4
27 -20 -3 -13 -1 -28 4 -31 13 -8 282 25 294 36 6 6 6 13 -1 20 -7 7 -34 7
-89 0 -142 -18 -139 -18 -137 4 5 42 0 43 -124 24 -135 -21 -143 -22 -125 -11
8 6 -8 24 -53 60 -70 56 -74 58 -80 40z"/>
</g>
</svg>
