<?xml version="1.0" standalone="no"?>
<!DOCTYPE svg PUBLIC "-//W3C//DTD SVG 20010904//EN"
 "http://www.w3.org/TR/2001/REC-SVG-20010904/DTD/svg10.dtd">
<svg version="1.0" xmlns="http://www.w3.org/2000/svg"
 width="192.000000pt" height="192.000000pt" viewBox="0 0 192.000000 192.000000"
 preserveAspectRatio="xMidYMid meet">
<metadata>
Created by potrace 1.16, written by Peter Selinger 2001-2019
</metadata>
<g transform="translate(0.000000,192.000000) scale(0.100000,-0.100000)"
fill="#000000" stroke="none">
811 c445 -92 729 -532 635 -987 -62 -301 -295 -546 -601 -630 -91 -26 -329
-26 -420 0 -291 80 -516 305 -596 596 -26 91 -26 329 0 420 120 433 542 692
982 601z"/>
<path d="M682 1319 c-25 -13 -55 -39 -70 -62 -25 -37 -27 -51 -30 -154 l-4
-113 115 0 115 0 -39 39 c-46 45 -53 95 -19 126 48 44 106 14 161 -82 17 -29
32 -53 34 -53 2 0 17 24 34 53 39 69 71 98 110 99 42 1 71 -27 71 -70 0 -27
-9 -43 -39 -73 l-39 -39 124 0 124 0 0 98 c0 115 -20 166 -83 216 l-39 31
-241 3 c-231 2 -244 2 -285 -19z"/>
<path d="M795 1101 c-5 -10 56 -74 63 -66 6 6 -38 75 -48 75 -5 0 -11 -4 -15
-9z"/>
<path d="M1050 1078 c-11 -18 -20 -37 -20 -41 0 -13 59 37 59 50 2 27 -20 22
-39 -9z"/>
<path d="M582 817 c3 -92 6 -108 30 -144 16 -25 44 -49 72 -62 42 -21 55 -22
284 -19 l240 3 39 31 c61 49 83 102 83 206 l0 88 -167 0 -167 0 30 -31 c16
-17 53 -45 82 -61 34 -20 52 -36 52 -49 0 -47 -105 -4 -179 74 l-35 37 -51
-49 c-58 -55 -103 -81 -140 -81 -41 0 -33 36 15 60 44 22 110 77 110 91 0 5
-68 9 -151 9 l-151 0 4 -103z"/>
</g>
</svg>
