<?xml version="1.0" standalone="no"?>
<!DOCTYPE svg PUBLIC "-//W3C//DTD SVG 20010904//EN"
 "http://www.w3.org/TR/2001/REC-SVG-20010904/DTD/svg10.dtd">
<svg version="1.0" xmlns="http://www.w3.org/2000/svg"
 width="192.000000pt" height="192.000000pt" viewBox="0 0 192.000000 192.000000"
 preserveAspectRatio="xMidYMid meet">
<metadata>
Created by potrace 1.16, written by Peter Selinger 2001-2019
</metadata>
<g transform="translate(0.000000,192.000000) scale(0.100000,-0.100000)"
fill="#000000" stroke="none">
811 c445 -92 729 -532 635 -987 -62 -301 -295 -546 -601 -630 -91 -26 -329
-26 -420 0 -291 80 -516 305 -596 596 -26 91 -26 329 0 420 120 433 542 692
982 601z"/>
<path d="M853 1365 c-62 -27 -86 -97 -55 -157 l20 -38 -73 0 c-87 0 -133 -14
-141 -44 -2 -11 -4 -57 -2 -101 3 -79 3 -80 30 -83 15 -2 38 4 50 12 35 25 83
20 107 -10 28 -35 26 -69 -4 -99 -30 -31 -73 -32 -109 -4 -23 18 -32 20 -52
10 -23 -10 -24 -15 -24 -94 0 -126 -8 -121 215 -125 185 -3 186 -3 195 -27 12
-32 39 -45 92 -45 48 0 88 22 88 49 0 9 6 26 14 36 12 16 17 17 44 6 40 -17
62 -4 96 53 32 56 33 76 1 106 -14 13 -25 29 -25 35 0 6 11 22 25 35 33 31 32
55 -8 115 -34 52 -52 59 -105 41 -17 -6 -24 -3 -29 11 -38 109 -56 123 -159
123 -68 0 -72 3 -49 34 20 26 19 96 -1 125 -16 23 -71 51 -96 51 -7 -1 -27 -7
-45 -15z m286 -340 c15 -43 40 -57 92 -54 31 3 42 -1 55 -19 14 -21 14 -24
-11 -54 -31 -37 -29 -77 6 -114 18 -19 19 -25 7 -43 -10 -17 -23 -21 -60 -21
-53 0 -83 -21 -94 -65 -9 -34 -59 -36 -68 -2 -11 45 -43 67 -96 67 -67 0 -81
23 -45 76 31 46 31 52 0 99 -23 33 -24 40 -12 58 11 17 23 21 58 18 48 -2 79
20 94 67 4 16 14 22 34 22 22 0 29 -7 40 -35z"/>
<path d="M1042 915 c-26 -22 -32 -34 -32 -65 0 -58 35 -95 90 -95 113 0 122
163 9 181 -28 5 -41 1 -67 -21z"/>
</g>
</svg>
