<?xml version="1.0" standalone="no"?>
<!DOCTYPE svg PUBLIC "-//W3C//DTD SVG 20010904//EN"
 "http://www.w3.org/TR/2001/REC-SVG-20010904/DTD/svg10.dtd">
<svg version="1.0" xmlns="http://www.w3.org/2000/svg"
 width="192.000000pt" height="192.000000pt" viewBox="0 0 192.000000 192.000000"
 preserveAspectRatio="xMidYMid meet">
<metadata>
Created by potrace 1.16, written by Peter Selinger 2001-2019
</metadata>
<g transform="translate(0.000000,192.000000) scale(0.100000,-0.100000)"
fill="#000000" stroke="none">
811 c445 -92 729 -532 635 -987 -62 -301 -295 -546 -601 -630 -91 -26 -329
-26 -420 0 -291 80 -516 305 -596 596 -26 91 -26 329 0 420 120 433 542 692
982 601z"/>
<path d="M746 1365 c-56 -20 -104 -71 -121 -129 -21 -71 -21 -471 0 -543 18
-60 74 -116 132 -132 51 -15 351 -14 394 0 53 18 99 58 120 103 17 37 19 68
19 301 0 233 -2 264 -19 301 -21 45 -67 85 -120 103 -50 16 -356 14 -405 -4z
m258 -147 c24 -35 23 -278 -1 -306 -28 -31 -56 -35 -86 -11 -27 20 -27 21 -27
161 0 118 3 145 17 160 23 26 78 24 97 -4z m0 -430 c21 -29 20 -51 -2 -78 -35
-43 -112 -17 -112 38 0 58 82 87 114 40z"/>
</g>
</svg>
