<?xml version="1.0" standalone="no"?>
<!DOCTYPE svg PUBLIC "-//W3C//DTD SVG 20010904//EN"
 "http://www.w3.org/TR/2001/REC-SVG-20010904/DTD/svg10.dtd">
<svg version="1.0" xmlns="http://www.w3.org/2000/svg"
 width="192.000000pt" height="192.000000pt" viewBox="0 0 192.000000 192.000000"
 preserveAspectRatio="xMidYMid meet">
<metadata>
Created by potrace 1.16, written by Peter Selinger 2001-2019
</metadata>
<g transform="translate(0.000000,192.000000) scale(0.100000,-0.100000)"
fill="#000000" stroke="none">
811 c445 -92 729 -532 635 -987 -62 -301 -295 -546 -601 -630 -91 -26 -329
-26 -420 0 -291 80 -516 305 -596 596 -26 91 -26 329 0 420 120 433 542 692
982 601z"/>
<path d="M719 1370 c-55 -29 -96 -82 -108 -140 -14 -66 -14 -464 0 -530 13
-60 54 -112 110 -141 34 -17 60 -19 236 -19 168 0 203 3 233 18 59 29 53 52
-42 147 l-83 84 -51 -13 c-133 -36 -254 54 -254 189 0 109 73 186 184 193 95
6 165 -36 201 -120 19 -48 19 -83 -2 -148 l-17 -52 72 -70 c62 -61 73 -68 91
-58 20 10 21 19 21 263 0 253 0 253 -26 306 -17 34 -41 62 -67 79 -40 27 -41
27 -251 29 -192 2 -214 1 -247 -17z"/>
<path d="M926 1079 c-40 -11 -83 -55 -90 -92 -13 -63 55 -147 118 -147 61 0
126 65 126 125 0 79 -78 136 -154 114z"/>
</g>
</svg>
