<?xml version="1.0" standalone="no"?>
<!DOCTYPE svg PUBLIC "-//W3C//DTD SVG 20010904//EN"
 "http://www.w3.org/TR/2001/REC-SVG-20010904/DTD/svg10.dtd">
<svg version="1.0" xmlns="http://www.w3.org/2000/svg"
 width="192.000000pt" height="192.000000pt" viewBox="0 0 192.000000 192.000000"
 preserveAspectRatio="xMidYMid meet">
<metadata>
Created by potrace 1.16, written by Peter Selinger 2001-2019
</metadata>
<g transform="translate(0.000000,192.000000) scale(0.100000,-0.100000)"
fill="#000000" stroke="none">
811 c445 -92 729 -532 635 -987 -62 -301 -295 -546 -601 -630 -91 -26 -329
-26 -420 0 -291 80 -516 305 -596 596 -26 91 -26 329 0 420 120 433 542 692
982 601z"/>
<path d="M662 1370 c-18 -4 -45 -18 -59 -31 -49 -46 -54 -68 -56 -252 -2 -142
1 -182 16 -232 61 -200 258 -329 454 -297 335 56 468 456 230 694 -64 64 -160
111 -239 116 l-58 4 0 -176 0 -176 68 0 c154 0 242 -65 242 -180 0 -182 -236
-248 -328 -92 l-27 47 -5 290 -5 290 -100 2 c-55 1 -115 -2 -133 -7z"/>
</g>
</svg>
