<?xml version="1.0" standalone="no"?>
<!DOCTYPE svg PUBLIC "-//W3C//DTD SVG 20010904//EN"
 "http://www.w3.org/TR/2001/REC-SVG-20010904/DTD/svg10.dtd">
<svg version="1.0" xmlns="http://www.w3.org/2000/svg"
 width="192.000000pt" height="192.000000pt" viewBox="0 0 192.000000 192.000000"
 preserveAspectRatio="xMidYMid meet">
<metadata>
Created by potrace 1.16, written by Peter Selinger 2001-2019
</metadata>
<g transform="translate(0.000000,192.000000) scale(0.100000,-0.100000)"
fill="#000000" stroke="none">
811 c445 -92 729 -532 635 -987 -62 -301 -295 -546 -601 -630 -91 -26 -329
-26 -420 0 -291 80 -516 305 -596 596 -26 91 -26 329 0 420 120 433 542 692
982 601z"/>
<path d="M870 1342 c-35 -35 -40 -45 -40 -87 0 -42 5 -52 40 -87 39 -40 53
-78 27 -78 -7 0 -28 -13 -47 -30 -19 -16 -41 -29 -47 -30 -7 0 -23 21 -35 47
-29 59 -65 86 -116 86 -77 0 -130 -64 -119 -144 7 -50 38 -86 88 -101 34 -10
44 -8 94 17 33 17 59 25 64 19 4 -5 13 -28 20 -51 6 -23 24 -57 39 -75 15 -18
19 -27 9 -19 -14 11 -21 11 -29 3 -7 -7 -31 -12 -55 -12 -33 0 -50 -7 -77 -30
-58 -51 -60 -125 -5 -180 83 -82 218 -16 205 100 -13 109 -13 109 6 99 26 -14
100 -11 132 6 25 13 27 13 16 0 -7 -8 -10 -21 -7 -30 4 -8 1 -28 -4 -45 -16
-44 -3 -94 32 -129 100 -101 260 22 194 149 -19 36 -62 60 -110 60 -19 0 -44
5 -54 12 -19 11 -19 12 0 47 11 20 19 56 19 80 0 40 1 43 13 26 8 -10 19 -15
25 -11 6 4 25 -3 42 -16 63 -46 145 -21 183 55 45 91 -46 194 -147 166 -41
-11 -86 -61 -86 -94 0 -12 -7 -28 -15 -35 -8 -7 -15 -19 -15 -28 0 -8 -10 0
-23 19 -12 19 -39 45 -60 58 -45 29 -47 50 -7 73 64 37 75 130 21 190 -22 25
-37 32 -79 36 -50 4 -53 3 -92 -36z m120 -58 c10 -11 11 -23 4 -42 -17 -48
-84 -38 -84 12 0 43 53 63 80 30z m-312 -210 c27 -19 28 -45 2 -69 -17 -15
-24 -16 -45 -7 -30 14 -35 65 -7 81 23 14 24 14 50 -5z m612 -4 c27 -27 25
-46 -4 -65 -19 -13 -29 -14 -45 -5 -26 14 -29 65 -3 79 24 15 29 14 52 -9z
m-281 -86 c24 -30 26 -43 10 -77 -11 -25 -47 -47 -75 -47 -26 0 -64 47 -64 80
0 67 88 97 129 44z m-215 -270 c22 -22 20 -61 -4 -74 -51 -27 -95 36 -50 72
27 22 34 22 54 2z m388 -8 c14 -21 8 -55 -12 -66 -29 -16 -59 -3 -66 27 -12
46 52 77 78 39z"/>
</g>
</svg>
