<?xml version="1.0" standalone="no"?>
<!DOCTYPE svg PUBLIC "-//W3C//DTD SVG 20010904//EN"
 "http://www.w3.org/TR/2001/REC-SVG-20010904/DTD/svg10.dtd">
<svg version="1.0" xmlns="http://www.w3.org/2000/svg"
 width="192.000000pt" height="192.000000pt" viewBox="0 0 192.000000 192.000000"
 preserveAspectRatio="xMidYMid meet">
<metadata>
Created by potrace 1.16, written by Peter Selinger 2001-2019
</metadata>
<g transform="translate(0.000000,192.000000) scale(0.100000,-0.100000)"
fill="#000000" stroke="none">
811 c445 -92 729 -532 635 -987 -62 -301 -295 -546 -601 -630 -91 -26 -329
-26 -420 0 -291 80 -516 305 -596 596 -26 91 -26 329 0 420 120 433 542 692
982 601z"/>
<path d="M808 1351 c-60 -24 -138 -80 -172 -126 -55 -71 -80 -143 -84 -240 -4
-102 13 -164 70 -250 39 -58 130 -127 201 -151 73 -25 195 -24 269 3 66 24
145 78 153 104 17 53 -48 78 -98 39 -85 -67 -216 -84 -315 -41 -66 30 -144
113 -166 177 -21 61 -20 147 1 209 24 71 110 156 188 185 33 12 63 27 67 33
21 33 -6 77 -45 77 -12 -1 -43 -9 -69 -19z"/>
<path d="M996 1351 c-33 -36 -15 -65 56 -91 48 -17 76 -36 119 -79 73 -74 94
-133 85 -234 -12 -131 -12 -139 5 -150 9 -5 27 -7 42 -3 39 9 60 83 55 194 -3
73 -8 98 -35 155 -38 80 -110 154 -186 192 -77 37 -118 42 -141 16z"/>
<path d="M813 1104 c-72 -36 -88 -122 -37 -195 35 -51 149 -139 179 -139 31 0
138 80 174 130 16 23 33 54 36 71 21 96 -86 177 -175 132 -33 -17 -37 -17 -70
0 -42 21 -66 21 -107 1z"/>
</g>
</svg>
