<?xml version="1.0" standalone="no"?>
<!DOCTYPE svg PUBLIC "-//W3C//DTD SVG 20010904//EN"
 "http://www.w3.org/TR/2001/REC-SVG-20010904/DTD/svg10.dtd">
<svg version="1.0" xmlns="http://www.w3.org/2000/svg"
 width="192.000000pt" height="192.000000pt" viewBox="0 0 192.000000 192.000000"
 preserveAspectRatio="xMidYMid meet">
<metadata>
Created by potrace 1.16, written by Peter Selinger 2001-2019
</metadata>
<g transform="translate(0.000000,192.000000) scale(0.100000,-0.100000)"
fill="#000000" stroke="none">
811 c445 -92 729 -532 635 -987 -62 -301 -295 -546 -601 -630 -91 -26 -329
-26 -420 0 -291 80 -516 305 -596 596 -26 91 -26 329 0 420 120 433 542 692
982 601z"/>
<path d="M694 1301 c-51 -13 -98 -47 -122 -89 -43 -77 -70 -72 383 -72 453 0
426 -5 383 72 -14 24 -41 51 -68 66 l-45 27 -250 2 c-137 1 -264 -2 -281 -6z"/>
<path d="M542 902 c5 -156 13 -181 81 -236 l39 -31 293 0 293 0 39 31 c68 55
76 80 81 236 l5 138 -418 0 -418 0 5 -138z m278 58 l0 -30 -105 0 c-110 0
-126 7 -111 45 4 12 26 15 111 15 l105 0 0 -30z"/>
</g>
</svg>
