<?xml version="1.0" standalone="no"?>
<!DOCTYPE svg PUBLIC "-//W3C//DTD SVG 20010904//EN"
 "http://www.w3.org/TR/2001/REC-SVG-20010904/DTD/svg10.dtd">
<svg version="1.0" xmlns="http://www.w3.org/2000/svg"
 width="192.000000pt" height="192.000000pt" viewBox="0 0 192.000000 192.000000"
 preserveAspectRatio="xMidYMid meet">
<metadata>
Created by potrace 1.16, written by Peter Selinger 2001-2019
</metadata>
<g transform="translate(0.000000,192.000000) scale(0.100000,-0.100000)"
fill="#000000" stroke="none">
811 c445 -92 729 -532 635 -987 -62 -301 -295 -546 -601 -630 -91 -26 -329
-26 -420 0 -291 80 -516 305 -596 596 -26 91 -26 329 0 420 120 433 542 692
982 601z"/>
<path d="M862 1349 c-47 -24 -86 -68 -103 -117 -10 -30 -14 -32 -63 -32 -65 0
-113 -29 -140 -84 -18 -38 -18 -40 10 -244 30 -219 39 -243 97 -286 27 -20 40
-21 292 -21 252 0 265 1 292 21 52 39 64 74 93 281 17 122 25 206 20 223 -20
71 -74 110 -153 110 -44 0 -45 1 -71 54 -36 74 -88 109 -170 114 -48 2 -70 -2
-104 -19z m145 -68 c38 -18 63 -45 63 -70 0 -7 -42 -11 -120 -11 -67 0 -120 4
-120 9 0 20 53 71 83 80 45 13 47 13 94 -8z"/>
</g>
</svg>
