<?xml version="1.0" standalone="no"?>
<!DOCTYPE svg PUBLIC "-//W3C//DTD SVG 20010904//EN"
 "http://www.w3.org/TR/2001/REC-SVG-20010904/DTD/svg10.dtd">
<svg version="1.0" xmlns="http://www.w3.org/2000/svg"
 width="192.000000pt" height="192.000000pt" viewBox="0 0 192.000000 192.000000"
 preserveAspectRatio="xMidYMid meet">
<metadata>
Created by potrace 1.16, written by Peter Selinger 2001-2019
</metadata>
<g transform="translate(0.000000,192.000000) scale(0.100000,-0.100000)"
fill="#000000" stroke="none">
811 c445 -92 729 -532 635 -987 -62 -301 -295 -546 -601 -630 -91 -26 -329
-26 -420 0 -291 80 -516 305 -596 596 -26 91 -26 329 0 420 120 433 542 692
982 601z"/>
<path d="M856 1369 c-66 -16 -155 -70 -203 -123 -151 -168 -146 -412 12 -571
164 -164 424 -159 584 10 77 81 104 148 109 265 3 79 0 104 -18 152 -44 119
-129 206 -240 249 -62 25 -184 33 -244 18z m210 -167 c93 -48 143 -129 144
-232 0 -151 -107 -261 -256 -262 -148 -1 -258 110 -259 262 0 152 124 266 276
256 30 -2 73 -13 95 -24z"/>
<path d="M933 1069 c-31 -11 -43 -40 -43 -106 0 -74 18 -103 64 -103 41 0 66
26 66 68 0 36 -30 72 -60 72 -11 0 -20 4 -20 9 0 18 19 22 39 9 16 -10 23 -10
33 0 9 9 8 16 -6 31 -22 24 -45 30 -73 20z m42 -144 c0 -28 -29 -25 -33 3 -3
19 0 23 15 20 10 -2 18 -12 18 -23z"/>
<path d="M1073 1069 c-31 -12 -43 -40 -43 -106 0 -74 18 -103 64 -103 51 0 66
24 66 106 0 38 -4 74 -8 81 -12 19 -55 31 -79 22z m42 -105 c0 -46 -3 -59 -15
-59 -11 0 -16 13 -18 49 -4 56 3 79 21 73 8 -2 12 -24 12 -63z"/>
<path d="M766 1054 c-33 -32 -9 -69 25 -38 14 13 23 14 30 7 15 -15 3 -33 -22
-33 -12 0 -19 -7 -19 -20 0 -13 7 -20 19 -20 29 0 45 -24 26 -40 -13 -10 -19
-10 -35 5 -33 30 -57 -7 -24 -39 21 -21 77 -20 97 2 20 21 18 152 -2 176 -17
21 -75 21 -95 0z"/>
</g>
</svg>
