<?xml version="1.0" standalone="no"?>
<!DOCTYPE svg PUBLIC "-//W3C//DTD SVG 20010904//EN"
 "http://www.w3.org/TR/2001/REC-SVG-20010904/DTD/svg10.dtd">
<svg version="1.0" xmlns="http://www.w3.org/2000/svg"
 width="192.000000pt" height="192.000000pt" viewBox="0 0 192.000000 192.000000"
 preserveAspectRatio="xMidYMid meet">
<metadata>
Created by potrace 1.16, written by Peter Selinger 2001-2019
</metadata>
<g transform="translate(0.000000,192.000000) scale(0.100000,-0.100000)"
fill="#000000" stroke="none">
811 c445 -92 729 -532 635 -987 -62 -301 -295 -546 -601 -630 -91 -26 -329
-26 -420 0 -291 80 -516 305 -596 596 -26 91 -26 329 0 420 120 433 542 692
982 601z"/>
<path d="M685 1326 c-39 -17 -70 -52 -90 -98 -12 -30 -15 -82 -15 -265 0 -200
3 -233 19 -268 21 -46 54 -79 94 -94 41 -16 389 -15 405 1 18 18 14 56 -7 68
-11 6 -93 10 -193 10 -120 1 -178 4 -189 13 -35 27 -39 53 -39 272 0 219 4
245 39 272 23 17 469 17 492 0 34 -26 39 -55 39 -216 0 -132 3 -162 16 -175 8
-9 22 -16 29 -16 7 0 21 7 29 16 25 25 23 334 -3 389 -21 46 -54 79 -94 94
-43 17 -494 14 -532 -3z"/>
<path d="M898 1140 c-100 -30 -154 -148 -113 -247 20 -48 41 -71 87 -94 41
-21 118 -25 150 -8 18 9 31 0 113 -80 51 -50 96 -91 101 -91 21 0 54 33 54 53
0 14 -31 52 -85 107 l-86 86 12 52 c33 140 -97 263 -233 222z"/>
</g>
</svg>
