<?xml version="1.0" standalone="no"?>
<!DOCTYPE svg PUBLIC "-//W3C//DTD SVG 20010904//EN"
 "http://www.w3.org/TR/2001/REC-SVG-20010904/DTD/svg10.dtd">
<svg version="1.0" xmlns="http://www.w3.org/2000/svg"
 width="192.000000pt" height="192.000000pt" viewBox="0 0 192.000000 192.000000"
 preserveAspectRatio="xMidYMid meet">
<metadata>
Created by potrace 1.16, written by Peter Selinger 2001-2019
</metadata>
<g transform="translate(0.000000,192.000000) scale(0.100000,-0.100000)"
fill="#000000" stroke="none">
811 c445 -92 729 -532 635 -987 -62 -301 -295 -546 -601 -630 -91 -26 -329
-26 -420 0 -291 80 -516 305 -596 596 -26 91 -26 329 0 420 120 433 542 692
982 601z"/>
<path d="M871 1356 c-134 -48 -193 -217 -121 -343 16 -28 43 -61 60 -73 36
-26 110 -50 152 -50 19 0 40 -10 59 -29 40 -40 40 -89 0 -133 -37 -42 -96 -46
-134 -9 -30 27 -41 61 -21 61 22 0 16 24 -17 66 -53 67 -67 66 -133 -6 -36
-40 -39 -60 -10 -60 8 0 14 -9 14 -20 0 -34 29 -93 63 -129 46 -48 101 -71
172 -71 137 0 235 98 235 235 0 67 -20 118 -63 163 -43 45 -77 61 -150 73 -74
12 -100 27 -117 68 -41 99 85 177 162 101 29 -29 29 -32 12 -44 -16 -12 -15
-16 20 -59 51 -63 70 -67 113 -25 48 46 59 69 41 82 -7 6 -19 29 -26 51 -36
122 -187 196 -311 151z"/>
</g>
</svg>
