<?xml version="1.0" standalone="no"?>
<!DOCTYPE svg PUBLIC "-//W3C//DTD SVG 20010904//EN"
 "http://www.w3.org/TR/2001/REC-SVG-20010904/DTD/svg10.dtd">
<svg version="1.0" xmlns="http://www.w3.org/2000/svg"
 width="192.000000pt" height="192.000000pt" viewBox="0 0 192.000000 192.000000"
 preserveAspectRatio="xMidYMid meet">
<metadata>
Created by potrace 1.16, written by Peter Selinger 2001-2019
</metadata>
<g transform="translate(0.000000,192.000000) scale(0.100000,-0.100000)"
fill="#000000" stroke="none">
811 c445 -92 729 -532 635 -987 -62 -301 -295 -546 -601 -630 -91 -26 -329
-26 -420 0 -291 80 -516 305 -596 596 -26 91 -26 329 0 420 120 433 542 692
982 601z"/>
<path d="M822 1362 c-302 -108 -379 -492 -142 -706 62 -56 154 -96 238 -103
217 -18 407 132 445 350 29 173 -70 361 -232 439 -57 28 -79 32 -161 35 -74 3
-107 -1 -148 -15z m219 -222 c38 -67 73 -135 76 -150 4 -22 15 -32 52 -46 72
-27 121 -63 121 -89 0 -37 -80 -145 -133 -182 -161 -109 -378 -72 -491 84 -53
73 -55 92 -10 130 20 18 60 41 88 52 l51 19 11 -37 c6 -20 44 -94 85 -164 61
-107 74 -125 83 -110 5 10 10 39 10 64 0 37 -11 65 -63 157 -66 117 -80 168
-61 216 11 29 12 28 91 -110 45 -76 86 -150 91 -164 l10 -25 15 35 c23 53 11
97 -54 211 -33 57 -63 117 -67 132 -6 26 10 114 20 105 2 -3 36 -60 75 -128z"/>
</g>
</svg>
