<?xml version="1.0" standalone="no"?>
<!DOCTYPE svg PUBLIC "-//W3C//DTD SVG 20010904//EN"
 "http://www.w3.org/TR/2001/REC-SVG-20010904/DTD/svg10.dtd">
<svg version="1.0" xmlns="http://www.w3.org/2000/svg"
 width="192.000000pt" height="192.000000pt" viewBox="0 0 192.000000 192.000000"
 preserveAspectRatio="xMidYMid meet">
<metadata>
Created by potrace 1.16, written by Peter Selinger 2001-2019
</metadata>
<g transform="translate(0.000000,192.000000) scale(0.100000,-0.100000)"
fill="#000000" stroke="none">
811 c445 -92 729 -532 635 -987 -62 -301 -295 -546 -601 -630 -91 -26 -329
-26 -420 0 -291 80 -516 305 -596 596 -26 91 -26 329 0 420 120 433 542 692
982 601z"/>
<path d="M652 1284 c-47 -23 -92 -73 -92 -103 0 -8 108 -11 395 -11 287 0 395
3 395 11 0 30 -45 80 -92 103 -52 26 -53 26 -303 26 -250 0 -251 0 -303 -26z"/>
<path d="M540 943 c0 -159 9 -200 53 -250 53 -61 67 -63 362 -63 295 0 309 2
362 63 44 50 53 91 53 250 l0 137 -415 0 -415 0 0 -137z m481 -55 c6 -14 23
-32 39 -38 15 -6 38 -23 51 -36 32 -34 18 -71 -40 -103 -89 -49 -252 -23 -283
45 -14 31 -5 50 42 82 36 24 50 28 50 11 0 -6 17 -40 37 -77 32 -58 38 -63 46
-45 7 16 0 37 -27 90 -35 68 -42 93 -30 106 6 6 74 -100 87 -135 2 -7 8 0 12
16 6 23 1 41 -24 86 -18 33 -31 72 -31 91 l0 34 30 -50 c16 -27 34 -62 41 -77z"/>
</g>
</svg>
