<?xml version="1.0" standalone="no"?>
<!DOCTYPE svg PUBLIC "-//W3C//DTD SVG 20010904//EN"
 "http://www.w3.org/TR/2001/REC-SVG-20010904/DTD/svg10.dtd">
<svg version="1.0" xmlns="http://www.w3.org/2000/svg"
 width="192.000000pt" height="192.000000pt" viewBox="0 0 192.000000 192.000000"
 preserveAspectRatio="xMidYMid meet">
<metadata>
Created by potrace 1.16, written by Peter Selinger 2001-2019
</metadata>
<g transform="translate(0.000000,192.000000) scale(0.100000,-0.100000)"
fill="#000000" stroke="none">
811 c445 -92 729 -532 635 -987 -62 -301 -295 -546 -601 -630 -91 -26 -329
-26 -420 0 -291 80 -516 305 -596 596 -26 91 -26 329 0 420 120 433 542 692
982 601z"/>
<path d="M1245 1366 c-22 -7 -56 -21 -74 -31 -34 -17 -37 -17 -85 1 -74 28
-203 25 -279 -5 -80 -32 -168 -115 -209 -198 -43 -87 -50 -198 -19 -290 l21
-61 -26 -56 c-40 -87 -42 -119 -9 -151 22 -23 33 -27 65 -22 21 2 61 16 89 31
l52 26 62 -21 c141 -48 303 -6 405 105 106 117 134 248 86 402 -16 51 -16 52
12 105 62 123 19 201 -91 165z"/>
</g>
</svg>
