<?xml version="1.0" standalone="no"?>
<!DOCTYPE svg PUBLIC "-//W3C//DTD SVG 20010904//EN"
 "http://www.w3.org/TR/2001/REC-SVG-20010904/DTD/svg10.dtd">
<svg version="1.0" xmlns="http://www.w3.org/2000/svg"
 width="192.000000pt" height="192.000000pt" viewBox="0 0 192.000000 192.000000"
 preserveAspectRatio="xMidYMid meet">
<metadata>
Created by potrace 1.16, written by Peter Selinger 2001-2019
</metadata>
<g transform="translate(0.000000,192.000000) scale(0.100000,-0.100000)"
fill="#000000" stroke="none">
811 c445 -92 729 -532 635 -987 -62 -301 -295 -546 -601 -630 -91 -26 -329
-26 -420 0 -291 80 -516 305 -596 596 -26 91 -26 329 0 420 120 433 542 692
982 601z"/>
<path d="M850 1364 c-154 -41 -264 -160 -296 -319 -13 -60 -14 -88 -5 -137 24
-139 107 -250 230 -311 62 -30 72 -32 176 -32 98 0 116 3 165 26 159 76 247
226 238 405 -5 103 -43 186 -118 261 -106 105 -250 144 -390 107z m300 -366
c77 -53 99 -131 58 -207 -56 -105 -205 -110 -269 -9 -27 44 -23 131 9 175 45
63 141 82 202 41z"/>
<path d="M1021 956 c-32 -17 -50 -53 -51 -96 -1 -96 116 -143 182 -72 34 36
42 65 28 107 -22 66 -97 95 -159 61z"/>
</g>
</svg>
