<?xml version="1.0" standalone="no"?>
<!DOCTYPE svg PUBLIC "-//W3C//DTD SVG 20010904//EN"
 "http://www.w3.org/TR/2001/REC-SVG-20010904/DTD/svg10.dtd">
<svg version="1.0" xmlns="http://www.w3.org/2000/svg"
 width="192.000000pt" height="192.000000pt" viewBox="0 0 192.000000 192.000000"
 preserveAspectRatio="xMidYMid meet">
<metadata>
Created by potrace 1.16, written by Peter Selinger 2001-2019
</metadata>
<g transform="translate(0.000000,192.000000) scale(0.100000,-0.100000)"
fill="#000000" stroke="none">
811 c445 -92 729 -532 635 -987 -62 -301 -295 -546 -601 -630 -91 -26 -329
-26 -420 0 -291 80 -516 305 -596 596 -26 91 -26 329 0 420 120 433 542 692
982 601z"/>
<path d="M870 1369 c-160 -31 -293 -172 -319 -340 -28 -176 71 -359 236 -437
52 -24 69 -27 168 -27 100 0 115 3 166 28 161 79 247 224 237 401 -6 103 -38
176 -110 252 -100 106 -237 151 -378 123z m194 -119 c69 -26 130 -85 164 -158
69 -150 0 -336 -151 -403 -72 -32 -182 -32 -249 0 -249 120 -230 474 29 567
56 20 144 17 207 -6z"/>
<path d="M873 1174 c-23 -8 -60 -35 -82 -59 -57 -62 -74 -138 -50 -215 6 -19
14 -55 18 -80 5 -41 9 -45 36 -48 17 -1 55 -9 87 -18 73 -22 133 -12 195 29
69 47 95 103 91 193 -3 57 -9 79 -30 112 -55 82 -172 120 -265 86z m197 -108
c0 -7 -6 -19 -13 -25 -11 -8 -18 -7 -31 7 -9 10 -13 22 -9 25 12 13 53 7 53
-7z m-190 -51 c0 -43 1 -45 30 -45 29 0 30 2 30 45 0 41 2 45 25 45 l25 0 0
-105 0 -105 -25 0 c-22 0 -25 4 -25 40 0 38 -2 40 -30 40 -28 0 -30 -2 -30
-40 0 -36 -2 -40 -25 -40 l-25 0 0 105 0 105 25 0 c23 0 25 -4 25 -45z m188
-83 c3 -82 3 -82 -23 -82 -25 0 -25 1 -25 78 0 82 4 95 30 90 12 -3 16 -21 18
-86z"/>
</g>
</svg>
