<?xml version="1.0" standalone="no"?>
<!DOCTYPE svg PUBLIC "-//W3C//DTD SVG 20010904//EN"
 "http://www.w3.org/TR/2001/REC-SVG-20010904/DTD/svg10.dtd">
<svg version="1.0" xmlns="http://www.w3.org/2000/svg"
 width="192.000000pt" height="192.000000pt" viewBox="0 0 192.000000 192.000000"
 preserveAspectRatio="xMidYMid meet">
<metadata>
Created by potrace 1.16, written by Peter Selinger 2001-2019
</metadata>
<g transform="translate(0.000000,192.000000) scale(0.100000,-0.100000)"
fill="#000000" stroke="none">
811 c445 -92 729 -532 635 -987 -62 -301 -295 -546 -601 -630 -91 -26 -329
-26 -420 0 -291 80 -516 305 -596 596 -26 91 -26 329 0 420 120 433 542 692
982 601z"/>
<path d="M577 1102 c-70 -70 -117 -125 -117 -137 0 -12 47 -67 117 -137 120
-120 150 -137 181 -106 27 27 13 60 -48 116 -33 30 -60 59 -60 64 0 5 55 7
123 6 l122 -3 3 -85 c2 -46 8 -90 14 -97 14 -17 72 -17 86 0 6 7 12 51 14 97
l3 85 123 3 c67 1 122 -1 122 -5 0 -4 -28 -36 -62 -70 -57 -58 -61 -65 -52
-90 7 -20 17 -29 38 -31 25 -3 44 11 148 115 73 73 118 125 118 138 0 13 -45
65 -118 138 -92 91 -123 117 -144 117 -28 0 -48 -23 -48 -54 0 -9 27 -42 60
-73 33 -31 60 -60 60 -65 0 -5 -55 -7 -122 -6 l-123 3 -3 85 c-2 46 -8 90 -14
97 -6 7 -25 13 -43 13 -18 0 -37 -6 -43 -13 -6 -7 -12 -51 -14 -97 l-3 -85
-122 -3 c-68 -1 -123 -1 -123 1 0 2 27 31 60 64 61 61 74 95 48 121 -31 31
-61 14 -181 -106z"/>
</g>
</svg>
