<?xml version="1.0" standalone="no"?>
<!DOCTYPE svg PUBLIC "-//W3C//DTD SVG 20010904//EN"
 "http://www.w3.org/TR/2001/REC-SVG-20010904/DTD/svg10.dtd">
<svg version="1.0" xmlns="http://www.w3.org/2000/svg"
 width="192.000000pt" height="192.000000pt" viewBox="0 0 192.000000 192.000000"
 preserveAspectRatio="xMidYMid meet">
<metadata>
Created by potrace 1.16, written by Peter Selinger 2001-2019
</metadata>
<g transform="translate(0.000000,192.000000) scale(0.100000,-0.100000)"
fill="#000000" stroke="none">
811 c445 -92 729 -532 635 -987 -62 -301 -295 -546 -601 -630 -91 -26 -329
-26 -420 0 -291 80 -516 305 -596 596 -26 91 -26 329 0 420 120 433 542 692
982 601z"/>
<path d="M577 1102 c-70 -70 -117 -125 -117 -137 0 -12 47 -67 117 -137 120
-120 150 -137 181 -106 25 25 12 59 -45 119 l-56 59 116 0 117 0 0 -73 c0 -89
15 -117 65 -117 50 0 65 28 65 117 l0 73 122 0 123 0 -63 -58 c-44 -41 -62
-65 -62 -83 0 -32 17 -49 49 -49 33 0 261 223 261 255 0 13 -45 65 -118 138
-119 119 -149 136 -180 105 -26 -26 -12 -59 50 -124 l61 -64 -121 0 -122 0 0
78 c0 94 -15 122 -65 122 -50 0 -65 -28 -65 -122 l0 -78 -122 0 -122 0 62 63
c63 63 77 98 50 125 -31 31 -61 14 -181 -106z"/>
</g>
</svg>
