<?xml version="1.0" standalone="no"?>
<!DOCTYPE svg PUBLIC "-//W3C//DTD SVG 20010904//EN"
 "http://www.w3.org/TR/2001/REC-SVG-20010904/DTD/svg10.dtd">
<svg version="1.0" xmlns="http://www.w3.org/2000/svg"
 width="192.000000pt" height="192.000000pt" viewBox="0 0 192.000000 192.000000"
 preserveAspectRatio="xMidYMid meet">
<metadata>
Created by potrace 1.16, written by Peter Selinger 2001-2019
</metadata>
<g transform="translate(0.000000,192.000000) scale(0.100000,-0.100000)"
fill="#000000" stroke="none">
811 c445 -92 729 -532 635 -987 -62 -301 -295 -546 -601 -630 -91 -26 -329
-26 -420 0 -291 80 -516 305 -596 596 -26 91 -26 329 0 420 120 433 542 692
982 601z"/>
<path d="M945 1234 l-159 -94 -63 35 c-73 40 -93 43 -93 15 0 -13 21 -31 69
-60 38 -22 76 -40 83 -40 14 0 334 182 352 200 9 9 -10 41 -23 39 -3 0 -78
-43 -166 -95z"/>
<path d="M1025 1169 c-93 -55 -186 -110 -206 -121 l-37 -21 -91 53 c-66 38
-95 50 -103 42 -6 -6 -8 -17 -5 -25 6 -17 177 -117 200 -117 9 0 112 56 229
124 158 91 213 128 213 142 0 10 -7 20 -15 21 -8 1 -91 -43 -185 -98z"/>
<path d="M1030 1059 c-124 -72 -231 -133 -237 -136 -7 -3 -57 20 -111 51 -104
59 -132 67 -132 38 0 -13 33 -38 111 -82 61 -35 116 -63 123 -63 7 0 124 64
259 143 182 105 247 148 247 161 0 12 -7 19 -17 19 -10 0 -119 -59 -243 -131z"/>
<path d="M1050 960 c-140 -83 -260 -150 -267 -150 -7 0 -54 25 -106 55 -120
71 -132 71 -124 5 17 -142 134 -274 285 -320 192 -60 398 33 485 218 26 56 32
81 35 157 4 97 -13 178 -38 182 -8 1 -130 -65 -270 -147z"/>
</g>
</svg>
