<?xml version="1.0" standalone="no"?>
<!DOCTYPE svg PUBLIC "-//W3C//DTD SVG 20010904//EN"
 "http://www.w3.org/TR/2001/REC-SVG-20010904/DTD/svg10.dtd">
<svg version="1.0" xmlns="http://www.w3.org/2000/svg"
 width="192.000000pt" height="192.000000pt" viewBox="0 0 192.000000 192.000000"
 preserveAspectRatio="xMidYMid meet">
<metadata>
Created by potrace 1.16, written by Peter Selinger 2001-2019
</metadata>
<g transform="translate(0.000000,192.000000) scale(0.100000,-0.100000)"
fill="#000000" stroke="none">
811 c445 -92 729 -532 635 -987 -62 -301 -295 -546 -601 -630 -91 -26 -329
-26 -420 0 -291 80 -516 305 -596 596 -26 91 -26 329 0 420 120 433 542 692
982 601z"/>
<path d="M679 1296 c-62 -22 -119 -76 -119 -113 0 -10 86 -13 395 -13 447 0
431 -3 352 75 -25 25 -58 47 -82 54 -58 16 -499 14 -546 -3z"/>
<path d="M540 943 c0 -159 9 -200 53 -250 53 -61 67 -63 362 -63 241 0 269 2
303 19 87 45 105 90 110 279 l4 152 -416 0 -416 0 0 -137z m319 40 c95 -71 95
-204 -1 -263 -47 -29 -58 -26 -58 15 0 25 7 42 24 58 37 33 38 85 4 117 -68
63 -171 -40 -108 -108 12 -12 25 -22 30 -22 6 0 10 -18 10 -41 0 -40 -1 -41
-27 -34 -40 9 -92 63 -105 107 -20 67 17 148 84 182 41 21 110 16 147 -11z
m-49 -108 c15 -19 4 -52 -21 -60 -11 -4 -26 -1 -34 5 -15 13 -20 51 -8 63 12
12 50 7 63 -8z"/>
</g>
</svg>
