<?xml version="1.0" standalone="no"?>
<!DOCTYPE svg PUBLIC "-//W3C//DTD SVG 20010904//EN"
 "http://www.w3.org/TR/2001/REC-SVG-20010904/DTD/svg10.dtd">
<svg version="1.0" xmlns="http://www.w3.org/2000/svg"
 width="192.000000pt" height="192.000000pt" viewBox="0 0 192.000000 192.000000"
 preserveAspectRatio="xMidYMid meet">
<metadata>
Created by potrace 1.16, written by Peter Selinger 2001-2019
</metadata>
<g transform="translate(0.000000,192.000000) scale(0.100000,-0.100000)"
fill="#000000" stroke="none">
811 c445 -92 729 -532 635 -987 -62 -301 -295 -546 -601 -630 -91 -26 -329
-26 -420 0 -291 80 -516 305 -596 596 -26 91 -26 329 0 420 120 433 542 692
982 601z"/>
<path d="M829 1362 c-214 -71 -336 -305 -271 -519 28 -91 86 -171 163 -222 51
-34 140 -71 171 -71 4 0 8 47 8 105 l0 105 -33 13 c-36 15 -93 76 -108 114
-16 42 -11 131 10 171 71 139 265 152 356 23 27 -38 30 -51 30 -116 0 -65 -3
-78 -30 -117 -18 -25 -50 -53 -78 -68 l-47 -25 0 -104 0 -103 38 7 c66 12 159
65 212 121 133 141 154 352 51 511 -78 121 -186 183 -329 189 -66 3 -101 0
-143 -14z"/>
<path d="M879 1041 c-56 -56 -36 -146 38 -177 92 -39 179 67 126 156 -34 58
-116 68 -164 21z"/>
</g>
</svg>
