<?xml version="1.0" standalone="no"?>
<!DOCTYPE svg PUBLIC "-//W3C//DTD SVG 20010904//EN"
 "http://www.w3.org/TR/2001/REC-SVG-20010904/DTD/svg10.dtd">
<svg version="1.0" xmlns="http://www.w3.org/2000/svg"
 width="192.000000pt" height="192.000000pt" viewBox="0 0 192.000000 192.000000"
 preserveAspectRatio="xMidYMid meet">
<metadata>
Created by potrace 1.16, written by Peter Selinger 2001-2019
</metadata>
<g transform="translate(0.000000,192.000000) scale(0.100000,-0.100000)"
fill="#000000" stroke="none">
810 c245 -63 441 -223 549 -451 55 -116 75 -212 75 -354 0 -141 -20 -238 -75
-352 -86 -182 -215 -312 -396 -398 -116 -55 -212 -75 -354 -75 -142 0 -238 20
-354 75 -228 108 -388 304 -451 549 -28 110 -28 292 0 402 76 298 303 526 600
603 106 28 298 28 406 1z"/>
<path d="M557 1363 c-4 -3 -7 -48 -7 -100 l0 -93 40 0 39 0 3 58 3 57 58 3 57
3 0 39 0 40 -93 0 c-52 0 -97 -3 -100 -7z"/>
<path d="M1160 1330 l0 -40 60 0 60 0 0 -60 0 -60 40 0 40 0 0 100 0 100 -100
0 -100 0 0 -40z"/>
<path d="M700 1110 l0 -110 110 0 110 0 0 110 0 110 -110 0 -110 0 0 -110z
m160 52 c0 -4 -22 -30 -50 -57 l-50 -49 0 57 0 57 50 0 c28 0 50 -4 50 -8z"/>
<path d="M990 1110 l0 -110 110 0 110 0 0 110 0 110 -110 0 -110 0 0 -110z
m166 -46 c-4 -10 -22 -14 -58 -14 l-52 0 54 55 55 56 3 -42 c2 -23 1 -48 -2
-55z"/>
<path d="M700 820 l0 -110 110 0 110 0 0 110 0 110 -110 0 -110 0 0 -110z
m115 -10 l49 -50 -52 0 -52 0 0 50 c0 28 1 50 3 50 1 0 25 -22 52 -50z"/>
<path d="M997 923 c-4 -3 -7 -53 -7 -110 l0 -103 110 0 110 0 0 110 0 110
-103 0 c-57 0 -107 -3 -110 -7z m163 -108 l0 -55 -57 0 -57 0 54 55 c30 30 56
55 57 55 2 0 3 -25 3 -55z"/>
<path d="M550 660 l0 -100 100 0 100 0 0 40 0 40 -60 0 -60 0 0 60 0 60 -40 0
-40 0 0 -100z"/>
<path d="M1280 700 l0 -60 -60 0 -60 0 0 -40 0 -40 100 0 100 0 0 100 0 100
-40 0 -40 0 0 -60z"/>
</g>
</svg>
