<?xml version="1.0" standalone="no"?>
<!DOCTYPE svg PUBLIC "-//W3C//DTD SVG 20010904//EN"
 "http://www.w3.org/TR/2001/REC-SVG-20010904/DTD/svg10.dtd">
<svg version="1.0" xmlns="http://www.w3.org/2000/svg"
 width="192.000000pt" height="192.000000pt" viewBox="0 0 192.000000 192.000000"
 preserveAspectRatio="xMidYMid meet">
<metadata>
Created by potrace 1.16, written by Peter Selinger 2001-2019
</metadata>
<g transform="translate(0.000000,192.000000) scale(0.100000,-0.100000)"
fill="#000000" stroke="none">
810 c245 -63 441 -223 549 -451 55 -116 75 -212 75 -354 0 -141 -20 -238 -75
-352 -86 -182 -215 -312 -396 -398 -116 -55 -212 -75 -354 -75 -142 0 -238 20
-354 75 -228 108 -388 304 -451 549 -28 110 -28 292 0 402 76 298 303 526 600
603 106 28 298 28 406 1z"/>
<path d="M552 1268 l3 -103 37 -3 37 -3 3 63 3 63 63 3 63 3 -3 37 -3 37 -103
3 -103 3 3 -103z"/>
<path d="M1160 1330 l0 -40 60 0 60 0 0 -65 0 -65 40 0 40 0 0 105 0 105 -100
0 -100 0 0 -40z"/>
<path d="M700 1110 l0 -110 110 0 110 0 0 110 0 110 -110 0 -110 0 0 -110z
m150 47 c0 -2 -20 -23 -45 -47 l-45 -44 0 47 0 47 45 0 c25 0 45 -1 45 -3z"/>
<path d="M990 1110 l0 -110 110 0 110 0 0 110 0 110 -110 0 -110 0 0 -110z
m170 0 l0 -50 -52 0 -52 0 49 50 c27 28 51 50 52 50 2 0 3 -22 3 -50z"/>
<path d="M700 820 l0 -110 110 0 110 0 0 110 0 110 -110 0 -110 0 0 -110z
m115 -10 l49 -50 -52 0 -52 0 0 50 c0 28 1 50 3 50 1 0 25 -22 52 -50z"/>
<path d="M990 820 l0 -110 110 0 110 0 0 110 0 110 -110 0 -110 0 0 -110z
m166 -46 c-6 -14 -96 -21 -96 -7 0 4 21 29 48 56 l47 48 3 -42 c2 -23 1 -48
-2 -55z"/>
<path d="M550 660 l0 -100 105 0 105 0 0 40 0 40 -65 0 -65 0 0 60 0 60 -40 0
-40 0 0 -100z"/>
<path d="M1280 700 l0 -60 -60 0 -60 0 0 -40 0 -40 100 0 100 0 0 100 0 100
-40 0 -40 0 0 -60z"/>
</g>
</svg>
