<?xml version="1.0" standalone="no"?>
<!DOCTYPE svg PUBLIC "-//W3C//DTD SVG 20010904//EN"
 "http://www.w3.org/TR/2001/REC-SVG-20010904/DTD/svg10.dtd">
<svg version="1.0" xmlns="http://www.w3.org/2000/svg"
 width="192.000000pt" height="192.000000pt" viewBox="0 0 192.000000 192.000000"
 preserveAspectRatio="xMidYMid meet">
<metadata>
Created by potrace 1.16, written by Peter Selinger 2001-2019
</metadata>
<g transform="translate(0.000000,192.000000) scale(0.100000,-0.100000)"
fill="#000000" stroke="none">
811 c445 -92 729 -532 635 -987 -62 -301 -295 -546 -601 -630 -91 -26 -329
-26 -420 0 -291 80 -516 305 -596 596 -26 91 -26 329 0 420 120 433 542 692
982 601z"/>
<path d="M457 1184 c-4 -4 -7 -20 -7 -35 l0 -28 113 -3 112 -3 3 -27 3 -28
-115 0 -116 0 0 -35 0 -35 115 0 115 0 0 -30 0 -30 -115 0 -115 0 0 -35 0 -35
135 0 c179 0 175 -3 175 159 0 167 2 165 -167 169 -70 2 -132 0 -136 -4z"/>
<path d="M840 1183 c-34 -12 -40 -36 -40 -164 0 -121 1 -129 22 -143 19 -14
66 -16 308 -16 l287 0 21 23 c17 18 22 35 22 78 0 30 -4 59 -8 65 -16 24 -55
34 -137 34 l-86 0 3 28 3 27 113 3 112 3 0 29 c0 39 -13 41 -175 38 l-130 -3
-3 -97 -3 -97 113 -3 113 -3 3 -27 3 -28 -135 0 -136 0 0 44 c0 36 -5 48 -26
65 -23 18 -41 21 -115 21 -88 0 -89 0 -89 25 l0 25 116 0 115 0 -3 38 -3 37
-125 2 c-69 1 -132 -1 -140 -4z"/>
<path d="M454 796 c-3 -8 -4 -23 -2 -33 3 -16 16 -18 143 -18 l140 0 0 30 0
30 -138 3 c-113 2 -138 0 -143 -12z"/>
<path d="M794 785 c-4 -15 -2 -31 3 -36 5 -5 70 -8 149 -7 l139 3 0 30 0 30
-142 3 -142 3 -7 -26z"/>
<path d="M1166 792 c-4 -11 -4 -27 0 -36 6 -15 23 -16 148 -14 l141 3 0 30 0
30 -142 3 c-131 2 -142 1 -147 -16z"/>
</g>
</svg>
