<?xml version="1.0" standalone="no"?>
<!DOCTYPE svg PUBLIC "-//W3C//DTD SVG 20010904//EN"
 "http://www.w3.org/TR/2001/REC-SVG-20010904/DTD/svg10.dtd">
<svg version="1.0" xmlns="http://www.w3.org/2000/svg"
 width="192.000000pt" height="192.000000pt" viewBox="0 0 192.000000 192.000000"
 preserveAspectRatio="xMidYMid meet">
<metadata>
Created by potrace 1.16, written by Peter Selinger 2001-2019
</metadata>
<g transform="translate(0.000000,192.000000) scale(0.100000,-0.100000)"
fill="#000000" stroke="none">
811 c445 -92 729 -532 635 -987 -62 -301 -295 -546 -601 -630 -91 -26 -329
-26 -420 0 -291 80 -516 305 -596 596 -26 91 -26 329 0 420 120 433 542 692
982 601z"/>
<path d="M872 1369 c-114 -22 -201 -129 -202 -246 0 -90 25 -112 56 -46 23 46
70 94 120 119 32 16 65 20 191 22 l153 3 55 62 c31 34 54 68 53 77 -3 13 -31
15 -193 17 -105 0 -209 -3 -233 -8z"/>
<path d="M875 1157 c-156 -71 -165 -295 -16 -374 140 -74 301 24 301 184 0
113 -79 194 -193 200 -38 2 -74 -2 -92 -10z"/>
<path d="M1185 850 c-22 -48 -72 -95 -129 -121 -34 -15 -67 -19 -186 -19
l-145 0 -58 -65 c-88 -98 -89 -97 165 -93 191 3 218 5 258 24 51 23 103 71
126 115 35 69 37 190 3 197 -10 2 -22 -12 -34 -38z"/>
</g>
</svg>
