<?xml version="1.0" standalone="no"?>
<!DOCTYPE svg PUBLIC "-//W3C//DTD SVG 20010904//EN"
 "http://www.w3.org/TR/2001/REC-SVG-20010904/DTD/svg10.dtd">
<svg version="1.0" xmlns="http://www.w3.org/2000/svg"
 width="192.000000pt" height="192.000000pt" viewBox="0 0 192.000000 192.000000"
 preserveAspectRatio="xMidYMid meet">
<metadata>
Created by potrace 1.16, written by Peter Selinger 2001-2019
</metadata>
<g transform="translate(0.000000,192.000000) scale(0.100000,-0.100000)"
fill="#000000" stroke="none">
811 c445 -92 729 -532 635 -987 -62 -301 -295 -546 -601 -630 -91 -26 -329
-26 -420 0 -291 80 -516 305 -596 596 -26 91 -26 329 0 420 120 433 542 692
982 601z"/>
<path d="M707 1325 c-50 -17 -85 -50 -108 -100 -16 -35 -19 -67 -19 -260 0
-245 7 -275 69 -328 49 -41 90 -47 307 -47 253 0 299 14 347 103 21 40 22 53
22 272 0 219 -1 232 -22 272 -25 45 -59 74 -112 91 -51 18 -435 15 -484 -3z
m113 -135 c0 -16 -7 -20 -35 -20 -32 0 -35 -3 -35 -29 0 -31 -22 -57 -40 -46
-13 8 -13 71 0 96 8 15 22 19 60 19 43 0 50 -3 50 -20z m359 6 c18 -21 10
-101 -9 -101 -10 0 -17 13 -20 35 -4 30 -9 35 -35 38 -65 7 -57 42 9 42 26 0
48 -6 55 -14z m-134 -81 c24 -23 25 -30 25 -151 0 -117 -2 -130 -22 -151 -19
-20 -31 -23 -98 -23 -119 0 -120 1 -120 170 0 138 0 139 26 159 21 17 41 21
96 21 60 0 72 -3 93 -25z m-301 -291 c3 -9 6 -27 6 -40 0 -21 5 -24 36 -24 28
0 35 -3 32 -17 -4 -25 -79 -30 -102 -8 -16 16 -23 85 -9 98 11 12 31 7 37 -9z
m442 -9 c3 -14 12 -25 19 -25 21 0 45 -29 39 -45 -4 -8 -17 -15 -30 -15 -17 0
-24 -6 -24 -19 0 -24 -25 -45 -45 -37 -8 3 -15 17 -15 31 0 20 -5 25 -24 25
-13 0 -26 7 -30 15 -6 17 19 45 40 45 8 0 14 8 14 18 0 40 46 46 56 7z"/>
</g>
</svg>
