<?xml version="1.0" standalone="no"?>
<!DOCTYPE svg PUBLIC "-//W3C//DTD SVG 20010904//EN"
 "http://www.w3.org/TR/2001/REC-SVG-20010904/DTD/svg10.dtd">
<svg version="1.0" xmlns="http://www.w3.org/2000/svg"
 width="192.000000pt" height="192.000000pt" viewBox="0 0 192.000000 192.000000"
 preserveAspectRatio="xMidYMid meet">
<metadata>
Created by potrace 1.16, written by Peter Selinger 2001-2019
</metadata>
<g transform="translate(0.000000,192.000000) scale(0.100000,-0.100000)"
fill="#000000" stroke="none">
811 c445 -92 729 -532 635 -987 -62 -301 -295 -546 -601 -630 -91 -26 -329
-26 -420 0 -291 80 -516 305 -596 596 -26 91 -26 329 0 420 120 433 542 692
982 601z"/>
<path d="M915 1335 c-72 -25 -127 -109 -93 -143 21 -21 45 -13 66 22 29 49 70
58 225 54 127 -3 129 -3 153 -31 24 -28 24 -29 24 -272 0 -243 0 -244 -24
-272 -24 -28 -25 -28 -159 -31 -182 -5 -227 16 -227 103 0 22 1 22 34 -11 24
-24 43 -34 65 -34 108 0 150 128 61 188 -34 23 -46 24 -107 6 -43 -12 -36 21
21 105 31 45 56 92 56 104 -1 33 -37 107 -53 107 -7 0 -32 -35 -55 -77 -67
-128 -60 -127 -117 -18 -27 52 -56 95 -62 95 -17 0 -53 -73 -53 -106 0 -30 26
-77 77 -141 39 -49 36 -79 -6 -67 -56 17 -93 9 -124 -26 -27 -30 -29 -38 -24
-82 l6 -49 -29 6 c-25 6 -30 4 -30 -13 0 -30 45 -55 89 -49 74 10 117 27 142
55 l27 30 4 -49 c6 -56 42 -110 91 -136 40 -22 280 -31 345 -14 48 13 96 51
117 92 22 41 22 527 0 568 -20 39 -69 78 -113 91 -55 15 -279 12 -327 -5z
m-68 -391 c-9 -9 -28 6 -21 18 4 6 10 6 17 -1 6 -6 8 -13 4 -17z m-139 -93
c20 -12 11 -56 -12 -56 -27 0 -43 29 -27 49 15 18 21 19 39 7z m312 -24 c0
-17 -20 -37 -37 -37 -7 0 -17 9 -23 19 -14 28 13 55 41 41 10 -6 19 -16 19
-23z"/>
</g>
</svg>
