<?xml version="1.0" standalone="no"?>
<!DOCTYPE svg PUBLIC "-//W3C//DTD SVG 20010904//EN"
 "http://www.w3.org/TR/2001/REC-SVG-20010904/DTD/svg10.dtd">
<svg version="1.0" xmlns="http://www.w3.org/2000/svg"
 width="192.000000pt" height="192.000000pt" viewBox="0 0 192.000000 192.000000"
 preserveAspectRatio="xMidYMid meet">
<metadata>
Created by potrace 1.16, written by Peter Selinger 2001-2019
</metadata>
<g transform="translate(0.000000,192.000000) scale(0.100000,-0.100000)"
fill="#000000" stroke="none">
810 c245 -63 441 -223 549 -451 55 -116 75 -212 75 -354 0 -141 -20 -238 -75
-352 -86 -182 -215 -312 -396 -398 -116 -55 -212 -75 -354 -75 -142 0 -238 20
-354 75 -228 108 -388 304 -451 549 -28 110 -28 292 0 402 76 298 303 526 600
603 106 28 298 28 406 1z"/>
<path d="M748 1355 c-15 -9 -32 -24 -38 -35 -6 -12 -10 -146 -10 -360 l0 -342
29 -29 29 -29 167 0 c214 0 234 9 235 111 0 38 -5 61 -15 69 -23 19 -35 2 -35
-49 0 -29 -6 -53 -14 -60 -9 -8 -64 -11 -172 -9 l-159 3 0 340 0 340 27 3 c21
3 29 -3 40 -25 13 -27 16 -28 96 -31 l82 -3 18 31 c20 35 56 40 72 11 5 -11
10 -46 10 -79 0 -46 4 -61 16 -66 28 -11 34 4 34 84 0 69 -3 82 -24 107 l-24
28 -169 2 c-135 2 -173 0 -195 -12z"/>
<path d="M1046 1077 c-101 -57 -102 -197 -3 -271 21 -16 43 -21 86 -21 48 0
64 5 95 29 48 36 70 86 63 144 -13 116 -139 178 -241 119z"/>
</g>
</svg>
