<?xml version="1.0" standalone="no"?>
<!DOCTYPE svg PUBLIC "-//W3C//DTD SVG 20010904//EN"
 "http://www.w3.org/TR/2001/REC-SVG-20010904/DTD/svg10.dtd">
<svg version="1.0" xmlns="http://www.w3.org/2000/svg"
 width="192.000000pt" height="192.000000pt" viewBox="0 0 192.000000 192.000000"
 preserveAspectRatio="xMidYMid meet">
<metadata>
Created by potrace 1.16, written by Peter Selinger 2001-2019
</metadata>
<g transform="translate(0.000000,192.000000) scale(0.100000,-0.100000)"
fill="#000000" stroke="none">
811 c445 -92 729 -532 635 -987 -62 -301 -295 -546 -601 -630 -91 -26 -329
-26 -420 0 -291 80 -516 305 -596 596 -26 91 -26 329 0 420 120 433 542 692
982 601z"/>
<path d="M1170 1323 c-8 -3 -25 -15 -37 -26 -23 -20 -23 -22 -23 -332 l0 -312
25 -23 c33 -31 87 -31 121 1 l24 22 0 312 c0 310 0 312 -22 333 -25 23 -65 34
-88 25z"/>
<path d="M895 1105 c-25 -24 -25 -24 -25 -238 0 -213 0 -214 24 -236 35 -33
93 -31 123 4 22 25 23 32 23 236 0 210 0 210 -25 234 -16 17 -35 25 -60 25
-25 0 -44 -8 -60 -25z"/>
<path d="M659 951 l-29 -29 0 -130 c0 -114 2 -132 20 -155 39 -49 116 -42 145
14 21 40 21 239 0 280 -29 55 -92 64 -136 20z"/>
</g>
</svg>
