<?xml version="1.0" standalone="no"?>
<!DOCTYPE svg PUBLIC "-//W3C//DTD SVG 20010904//EN"
 "http://www.w3.org/TR/2001/REC-SVG-20010904/DTD/svg10.dtd">
<svg version="1.0" xmlns="http://www.w3.org/2000/svg"
 width="192.000000pt" height="192.000000pt" viewBox="0 0 192.000000 192.000000"
 preserveAspectRatio="xMidYMid meet">
<metadata>
Created by potrace 1.16, written by Peter Selinger 2001-2019
</metadata>
<g transform="translate(0.000000,192.000000) scale(0.100000,-0.100000)"
fill="#000000" stroke="none">
811 c445 -92 729 -532 635 -987 -62 -301 -295 -546 -601 -630 -91 -26 -329
-26 -420 0 -291 80 -516 305 -596 596 -26 91 -26 329 0 420 120 433 542 692
982 601z"/>
<path d="M874 1369 c-64 -8 -146 -52 -179 -95 -98 -128 -60 -330 68 -363 83
-20 158 25 173 105 14 76 -55 150 -128 138 -45 -7 -50 8 -18 49 46 58 184 74
272 32 30 -15 35 -21 27 -36 -14 -27 -11 -47 11 -69 29 -29 48 -25 87 17 67
71 64 111 -13 162 -79 52 -191 74 -300 60z"/>
<path d="M1075 1023 c-78 -20 -120 -123 -78 -193 22 -37 56 -55 104 -54 49 2
53 -23 9 -59 -44 -38 -94 -50 -171 -44 -54 5 -169 40 -169 52 0 2 6 15 14 30
23 43 1 85 -44 85 -21 0 -39 -12 -69 -46 -66 -75 -53 -111 62 -178 97 -56 264
-75 366 -41 62 20 134 83 154 132 71 180 -27 354 -178 316z"/>
</g>
</svg>
