<?xml version="1.0" standalone="no"?>
<!DOCTYPE svg PUBLIC "-//W3C//DTD SVG 20010904//EN"
 "http://www.w3.org/TR/2001/REC-SVG-20010904/DTD/svg10.dtd">
<svg version="1.0" xmlns="http://www.w3.org/2000/svg"
 width="192.000000pt" height="192.000000pt" viewBox="0 0 192.000000 192.000000"
 preserveAspectRatio="xMidYMid meet">
<metadata>
Created by potrace 1.16, written by Peter Selinger 2001-2019
</metadata>
<g transform="translate(0.000000,192.000000) scale(0.100000,-0.100000)"
fill="#000000" stroke="none">
811 c445 -92 729 -532 635 -987 -62 -301 -295 -546 -601 -630 -91 -26 -329
-26 -420 0 -291 80 -516 305 -596 596 -26 91 -26 329 0 420 120 433 542 692
982 601z"/>
<path d="M831 1359 c-128 -21 -211 -103 -211 -209 0 -63 13 -111 42 -152 28
-40 124 -99 213 -131 102 -36 125 -51 125 -82 0 -30 -31 -40 -97 -31 -61 8
-105 35 -122 74 l-15 32 -88 0 -88 0 0 -135 0 -136 102 3 101 3 11 33 11 33
25 -27 c38 -40 106 -67 175 -67 180 -1 301 108 280 252 -17 115 -97 189 -265
246 -88 30 -120 49 -120 73 0 41 53 53 135 31 46 -12 95 -54 95 -81 0 -16 10
-18 90 -18 l90 0 0 135 0 135 -99 0 -99 0 -11 -31 -11 -31 -34 30 c-55 48
-139 66 -235 51z"/>
</g>
</svg>
