<?xml version="1.0" standalone="no"?>
<!DOCTYPE svg PUBLIC "-//W3C//DTD SVG 20010904//EN"
 "http://www.w3.org/TR/2001/REC-SVG-20010904/DTD/svg10.dtd">
<svg version="1.0" xmlns="http://www.w3.org/2000/svg"
 width="192.000000pt" height="192.000000pt" viewBox="0 0 192.000000 192.000000"
 preserveAspectRatio="xMidYMid meet">
<metadata>
Created by potrace 1.16, written by Peter Selinger 2001-2019
</metadata>
<g transform="translate(0.000000,192.000000) scale(0.100000,-0.100000)"
fill="#000000" stroke="none">
811 c445 -92 729 -532 635 -987 -62 -301 -295 -546 -601 -630 -91 -26 -329
-26 -420 0 -291 80 -516 305 -596 596 -26 91 -26 329 0 420 120 433 542 692
982 601z"/>
<path d="M841 1350 c-29 -11 -59 -25 -67 -31 -12 -10 -20 -7 -43 15 -29 28
-39 25 -54 -17 -6 -16 -9 -16 -30 -2 -44 28 -81 -8 -52 -51 14 -22 13 -23 -20
-34 -19 -6 -35 -17 -35 -23 0 -6 15 -26 33 -45 l32 -33 0 -112 0 -112 360 0
360 0 3 88 c2 74 -1 96 -22 149 l-25 62 34 38 c39 43 41 50 19 72 -21 22 -28
20 -68 -15 l-35 -30 -54 36 c-30 20 -76 43 -102 51 -67 20 -169 17 -234 -6z
m-11 -230 c11 -11 20 -28 20 -37 0 -23 -30 -53 -53 -53 -26 0 -57 28 -57 52 0
22 34 58 55 58 8 0 24 -9 35 -20z m340 0 c24 -24 25 -38 4 -68 -18 -26 -50
-28 -76 -5 -25 22 -23 59 4 77 30 21 44 20 68 -4z"/>
<path d="M607 813 c-4 -3 -7 -51 -7 -105 0 -106 11 -130 62 -143 13 -3 160 -5
326 -3 l304 3 19 24 c16 19 19 40 19 127 l0 104 -40 0 c-34 0 -42 -4 -55 -30
-10 -20 -26 -33 -44 -36 -22 -5 -30 -13 -35 -35 -7 -34 -56 -64 -93 -54 -16 4
-32 -1 -50 -15 -33 -26 -63 -25 -97 1 -17 13 -33 18 -47 14 -33 -11 -77 13
-90 50 -9 24 -20 35 -40 39 -18 3 -34 16 -44 36 -12 24 -22 30 -49 30 -18 0
-36 -3 -39 -7z"/>
</g>
</svg>
