<?xml version="1.0" standalone="no"?>
<!DOCTYPE svg PUBLIC "-//W3C//DTD SVG 20010904//EN"
 "http://www.w3.org/TR/2001/REC-SVG-20010904/DTD/svg10.dtd">
<svg version="1.0" xmlns="http://www.w3.org/2000/svg"
 width="192.000000pt" height="192.000000pt" viewBox="0 0 192.000000 192.000000"
 preserveAspectRatio="xMidYMid meet">
<metadata>
Created by potrace 1.16, written by Peter Selinger 2001-2019
</metadata>
<g transform="translate(0.000000,192.000000) scale(0.100000,-0.100000)"
fill="#000000" stroke="none">
811 c445 -92 729 -532 635 -987 -62 -301 -295 -546 -601 -630 -91 -26 -329
-26 -420 0 -291 80 -516 305 -596 596 -26 91 -26 329 0 420 120 433 542 692
982 601z"/>
<path d="M858 1345 c-25 -14 -56 -38 -68 -56 -27 -37 -69 -154 -70 -190 0 -15
-16 -50 -35 -79 -31 -46 -65 -133 -65 -166 0 -6 -13 -17 -29 -24 -38 -15 -52
-53 -40 -113 11 -59 29 -94 69 -132 l31 -30 336 0 335 0 19 24 c37 45 11 112
-46 123 -17 3 -21 14 -28 73 -20 187 -30 244 -53 301 -13 33 -24 65 -24 70 0
6 -7 34 -15 62 -42 139 -190 203 -317 137z m78 -124 c-10 -16 -31 -14 -46 4
-10 12 -10 18 0 31 12 13 15 13 33 -4 11 -11 16 -25 13 -31z m93 36 c8 -11 6
-18 -8 -31 -31 -28 -58 3 -29 32 15 15 23 15 37 -1z m-129 -81 c0 -31 -26 -53
-48 -40 -23 15 -25 29 -7 48 25 25 55 21 55 -8z m168 12 c17 -17 15 -48 -4
-55 -21 -8 -59 30 -51 51 7 19 38 21 55 4z m-67 -44 c11 -14 10 -21 -4 -46
-16 -28 -16 -32 -2 -48 26 -28 17 -38 -35 -38 -58 0 -68 9 -40 36 18 16 18 20
5 38 -29 38 -12 74 36 74 15 0 33 -7 40 -16z m-370 -461 c-20 -14 -29 4 -30
58 -1 55 12 56 30 2 14 -44 14 -49 0 -60z m644 -27 c55 -23 45 -43 -26 -51
-33 -4 -63 -5 -65 -2 -5 5 44 67 53 67 2 0 19 -7 38 -14z"/>
</g>
</svg>
