<?xml version="1.0" standalone="no"?>
<!DOCTYPE svg PUBLIC "-//W3C//DTD SVG 20010904//EN"
 "http://www.w3.org/TR/2001/REC-SVG-20010904/DTD/svg10.dtd">
<svg version="1.0" xmlns="http://www.w3.org/2000/svg"
 width="192.000000pt" height="192.000000pt" viewBox="0 0 192.000000 192.000000"
 preserveAspectRatio="xMidYMid meet">
<metadata>
Created by potrace 1.16, written by Peter Selinger 2001-2019
</metadata>
<g transform="translate(0.000000,192.000000) scale(0.100000,-0.100000)"
fill="#000000" stroke="none">
811 c445 -92 729 -532 635 -987 -62 -301 -295 -546 -601 -630 -91 -26 -329
-26 -420 0 -291 80 -516 305 -596 596 -26 91 -26 329 0 420 120 433 542 692
982 601z"/>
<path d="M685 1186 c-84 -37 -145 -130 -145 -221 0 -94 61 -184 147 -220 49
-21 139 -19 188 4 43 19 109 85 120 120 6 20 13 22 63 19 l57 -3 3 -42 c8
-111 141 -109 158 2 5 39 10 45 30 45 58 0 85 87 41 128 -22 21 -33 22 -184
22 -156 0 -162 1 -168 21 -11 35 -77 101 -120 120 -47 22 -146 24 -190 5z
m163 -187 c26 -51 -13 -109 -74 -109 -81 0 -105 114 -30 145 39 16 85 0 104
-36z"/>
</g>
</svg>
