<?xml version="1.0" standalone="no"?>
<!DOCTYPE svg PUBLIC "-//W3C//DTD SVG 20010904//EN"
 "http://www.w3.org/TR/2001/REC-SVG-20010904/DTD/svg10.dtd">
<svg version="1.0" xmlns="http://www.w3.org/2000/svg"
 width="192.000000pt" height="192.000000pt" viewBox="0 0 192.000000 192.000000"
 preserveAspectRatio="xMidYMid meet">
<metadata>
Created by potrace 1.16, written by Peter Selinger 2001-2019
</metadata>
<g transform="translate(0.000000,192.000000) scale(0.100000,-0.100000)"
fill="#000000" stroke="none">
810 c245 -63 441 -223 549 -451 55 -116 75 -212 75 -354 0 -141 -20 -238 -75
-352 -86 -182 -215 -312 -396 -398 -116 -55 -212 -75 -354 -75 -142 0 -238 20
-354 75 -228 108 -388 304 -451 549 -28 110 -28 292 0 402 76 298 303 526 600
603 106 28 298 28 406 1z"/>
<path d="M860 1314 c-36 -19 -96 -41 -135 -50 -128 -30 -115 -3 -115 -238 0
-120 4 -216 11 -233 16 -44 66 -89 175 -159 128 -81 151 -90 195 -71 57 24
235 145 268 182 16 19 33 49 36 67 3 18 5 121 3 228 l-3 194 -90 23 c-49 13
-122 39 -161 58 -40 19 -82 34 -95 33 -13 0 -53 -16 -89 -34z"/>
</g>
</svg>
