<?xml version="1.0" standalone="no"?>
<!DOCTYPE svg PUBLIC "-//W3C//DTD SVG 20010904//EN"
 "http://www.w3.org/TR/2001/REC-SVG-20010904/DTD/svg10.dtd">
<svg version="1.0" xmlns="http://www.w3.org/2000/svg"
 width="192.000000pt" height="192.000000pt" viewBox="0 0 192.000000 192.000000"
 preserveAspectRatio="xMidYMid meet">
<metadata>
Created by potrace 1.16, written by Peter Selinger 2001-2019
</metadata>
<g transform="translate(0.000000,192.000000) scale(0.100000,-0.100000)"
fill="#000000" stroke="none">
810 c245 -63 441 -223 549 -451 55 -116 75 -212 75 -354 0 -141 -20 -238 -75
-352 -86 -182 -215 -312 -396 -398 -116 -55 -212 -75 -354 -75 -142 0 -238 20
-354 75 -228 108 -388 304 -451 549 -28 110 -28 292 0 402 76 298 303 526 600
603 106 28 298 28 406 1z"/>
<path d="M855 1309 c-44 -21 -114 -46 -155 -55 -41 -8 -79 -19 -83 -23 -4 -5
-7 -105 -5 -223 l3 -215 29 -37 c16 -21 82 -74 148 -117 158 -105 164 -105
314 -8 129 84 150 102 175 151 18 35 19 57 17 245 l-3 206 -90 22 c-50 13
-123 39 -163 59 -39 20 -79 36 -89 35 -10 0 -54 -18 -98 -40z"/>
</g>
</svg>
