<?xml version="1.0" standalone="no"?>
<!DOCTYPE svg PUBLIC "-//W3C//DTD SVG 20010904//EN"
 "http://www.w3.org/TR/2001/REC-SVG-20010904/DTD/svg10.dtd">
<svg version="1.0" xmlns="http://www.w3.org/2000/svg"
 width="192.000000pt" height="192.000000pt" viewBox="0 0 192.000000 192.000000"
 preserveAspectRatio="xMidYMid meet">
<metadata>
Created by potrace 1.16, written by Peter Selinger 2001-2019
</metadata>
<g transform="translate(0.000000,192.000000) scale(0.100000,-0.100000)"
fill="#000000" stroke="none">
811 c445 -92 729 -532 635 -987 -62 -301 -295 -546 -601 -630 -91 -26 -329
-26 -420 0 -291 80 -516 305 -596 596 -26 91 -26 329 0 420 120 433 542 692
982 601z"/>
<path d="M955 1369 c-42 -12 -85 -59 -96 -105 -4 -22 -9 -96 -9 -165 0 -107 3
-130 18 -147 9 -11 66 -36 130 -57 l112 -37 0 -64 0 -64 -40 0 -40 0 0 53 c0
29 -5 58 -12 65 -7 7 -39 12 -74 12 -89 0 -98 -11 -92 -114 5 -93 24 -138 71
-166 47 -29 247 -29 294 0 61 37 68 58 71 225 3 135 2 153 -15 172 -11 12 -64
36 -130 58 l-113 37 0 64 0 64 40 0 40 0 0 -55 c0 -65 12 -75 94 -75 80 0 89
13 84 119 -7 150 -54 192 -214 190 -49 0 -103 -5 -119 -10z"/>
<path d="M637 1352 c-23 -25 -21 -65 3 -87 25 -22 98 -30 130 -13 36 19 48 60
26 92 -15 23 -23 26 -80 26 -48 0 -67 -4 -79 -18z"/>
</g>
</svg>
