<?xml version="1.0" standalone="no"?>
<!DOCTYPE svg PUBLIC "-//W3C//DTD SVG 20010904//EN"
 "http://www.w3.org/TR/2001/REC-SVG-20010904/DTD/svg10.dtd">
<svg version="1.0" xmlns="http://www.w3.org/2000/svg"
 width="192.000000pt" height="192.000000pt" viewBox="0 0 192.000000 192.000000"
 preserveAspectRatio="xMidYMid meet">
<metadata>
Created by potrace 1.16, written by Peter Selinger 2001-2019
</metadata>
<g transform="translate(0.000000,192.000000) scale(0.100000,-0.100000)"
fill="#000000" stroke="none">
811 c445 -92 729 -532 635 -987 -62 -301 -295 -546 -601 -630 -91 -26 -329
-26 -420 0 -291 80 -516 305 -596 596 -26 91 -26 329 0 420 120 433 542 692
982 601z"/>
<path d="M695 1321 c-49 -22 -91 -69 -106 -119 -7 -24 -9 -116 -7 -259 l3
-221 30 -43 c56 -79 77 -84 340 -84 263 0 284 5 340 84 l30 43 3 221 c4 240
-1 275 -45 328 -53 62 -83 69 -328 69 -192 0 -225 -3 -260 -19z m525 -76 c41
-39 52 -82 48 -190 l-3 -90 -97 -3 -96 -3 -33 -57 c-17 -31 -42 -76 -56 -99
l-24 -42 30 -16 c17 -8 31 -19 31 -23 0 -9 -138 -47 -144 -41 -3 4 -36 135
-36 144 0 4 15 -3 34 -15 l35 -21 40 70 c61 105 61 101 2 101 -28 0 -51 2 -51
5 0 5 89 157 96 164 2 3 20 -3 39 -12 40 -19 40 -22 16 63 -11 41 -23 65 -32
65 -28 -1 -129 -28 -129 -36 0 -4 13 -15 29 -26 l29 -18 -60 -103 -61 -103
-91 3 -91 3 -3 85 c-2 47 0 99 3 117 7 37 48 91 79 104 12 4 121 7 243 6 l222
-2 31 -30z"/>
</g>
</svg>
