<?xml version="1.0" standalone="no"?>
<!DOCTYPE svg PUBLIC "-//W3C//DTD SVG 20010904//EN"
 "http://www.w3.org/TR/2001/REC-SVG-20010904/DTD/svg10.dtd">
<svg version="1.0" xmlns="http://www.w3.org/2000/svg"
 width="192.000000pt" height="192.000000pt" viewBox="0 0 192.000000 192.000000"
 preserveAspectRatio="xMidYMid meet">
<metadata>
Created by potrace 1.16, written by Peter Selinger 2001-2019
</metadata>
<g transform="translate(0.000000,192.000000) scale(0.100000,-0.100000)"
fill="#000000" stroke="none">
811 c445 -92 729 -532 635 -987 -62 -301 -295 -546 -601 -630 -91 -26 -329
-26 -420 0 -291 80 -516 305 -596 596 -26 91 -26 329 0 420 120 433 542 692
982 601z"/>
<path d="M1116 1364 c-3 -9 -6 -24 -6 -35 0 -18 -9 -19 -182 -19 -207 0 -245
-10 -289 -71 -23 -32 -24 -42 -27 -219 -3 -180 -3 -185 18 -202 28 -23 53 -23
73 0 13 14 16 49 19 185 2 136 6 170 18 177 8 6 126 10 267 10 138 0 258 3
267 6 31 12 15 49 -49 117 -64 66 -97 82 -109 51z"/>
<path d="M1207 1112 c-14 -16 -17 -44 -17 -178 0 -113 -4 -165 -12 -177 -12
-15 -43 -17 -277 -19 -324 -4 -317 0 -217 -113 78 -86 108 -96 114 -37 l3 32
183 0 c169 0 185 2 226 22 87 45 104 100 98 326 -3 119 -5 135 -22 148 -27 19
-60 18 -79 -4z"/>
<path d="M835 1078 c-32 -18 -35 -28 -35 -115 0 -86 8 -105 51 -118 31 -10 67
19 75 60 9 51 0 144 -17 159 -21 21 -52 26 -74 14z"/>
<path d="M1023 1080 c-29 -12 -35 -37 -31 -135 3 -77 4 -80 32 -94 26 -12 33
-12 55 0 25 14 26 20 29 110 3 100 -1 110 -43 122 -11 3 -30 2 -42 -3z"/>
</g>
</svg>
