<?xml version="1.0" standalone="no"?>
<!DOCTYPE svg PUBLIC "-//W3C//DTD SVG 20010904//EN"
 "http://www.w3.org/TR/2001/REC-SVG-20010904/DTD/svg10.dtd">
<svg version="1.0" xmlns="http://www.w3.org/2000/svg"
 width="192.000000pt" height="192.000000pt" viewBox="0 0 192.000000 192.000000"
 preserveAspectRatio="xMidYMid meet">
<metadata>
Created by potrace 1.16, written by Peter Selinger 2001-2019
</metadata>
<g transform="translate(0.000000,192.000000) scale(0.100000,-0.100000)"
fill="#000000" stroke="none">
811 c445 -92 729 -532 635 -987 -62 -301 -295 -546 -601 -630 -91 -26 -329
-26 -420 0 -291 80 -516 305 -596 596 -26 91 -26 329 0 420 120 433 542 692
982 601z"/>
<path d="M923 1390 c-32 -13 -43 -42 -43 -115 0 -57 3 -69 25 -90 20 -21 34
-25 85 -25 60 0 97 11 112 34 4 6 8 45 8 87 0 97 -13 112 -103 116 -34 2 -72
-1 -84 -7z"/>
<path d="M1150 1251 c-14 -27 -13 -94 2 -109 7 -7 36 -12 65 -12 59 0 73 14
73 74 0 48 -21 66 -80 66 -39 0 -52 -4 -60 -19z"/>
<path d="M649 1191 c-22 -17 -24 -27 -24 -104 0 -118 9 -127 127 -127 119 0
128 9 128 124 0 79 -2 86 -26 105 -37 29 -170 30 -205 2z"/>
<path d="M939 1061 c-55 -56 -33 -125 55 -172 52 -27 64 -56 19 -44 -16 4 -44
8 -63 8 -33 2 -35 0 -35 -32 0 -28 6 -37 35 -52 65 -35 145 -17 175 41 19 36
19 44 -1 85 -9 21 -33 42 -64 59 -27 15 -52 31 -55 36 -7 12 31 12 60 1 27
-11 53 -2 60 19 14 44 -35 80 -110 80 -38 0 -52 -5 -76 -29z"/>
<path d="M698 899 c-14 -8 -18 -24 -18 -72 0 -36 5 -68 12 -75 7 -7 38 -12 69
-12 69 0 89 20 89 87 0 59 -25 83 -87 83 -27 0 -56 -5 -65 -11z"/>
<path d="M853 715 c-20 -14 -23 -25 -23 -85 0 -84 16 -100 97 -100 73 0 93 21
93 98 0 80 -13 95 -86 99 -43 3 -65 0 -81 -12z"/>
</g>
</svg>
