<?xml version="1.0" standalone="no"?>
<!DOCTYPE svg PUBLIC "-//W3C//DTD SVG 20010904//EN"
 "http://www.w3.org/TR/2001/REC-SVG-20010904/DTD/svg10.dtd">
<svg version="1.0" xmlns="http://www.w3.org/2000/svg"
 width="192.000000pt" height="192.000000pt" viewBox="0 0 192.000000 192.000000"
 preserveAspectRatio="xMidYMid meet">
<metadata>
Created by potrace 1.16, written by Peter Selinger 2001-2019
</metadata>
<g transform="translate(0.000000,192.000000) scale(0.100000,-0.100000)"
fill="#000000" stroke="none">
811 c445 -92 729 -532 635 -987 -62 -301 -295 -546 -601 -630 -91 -26 -329
-26 -420 0 -291 80 -516 305 -596 596 -26 91 -26 329 0 420 120 433 542 692
982 601z"/>
<path d="M692 1319 c-24 -12 -54 -36 -66 -53 -42 -55 -48 -96 -44 -326 3 -241
7 -253 81 -314 l39 -31 253 0 253 0 39 31 c76 62 78 70 78 334 0 269 -5 289
-84 345 l-43 30 -231 3 c-221 2 -234 1 -275 -19z m511 -62 c59 -39 62 -51 62
-292 0 -245 -2 -255 -68 -295 -36 -22 -57 -26 -39 -8 21 21 13 36 -22 49 -34
12 -34 13 -13 24 24 11 56 84 56 128 1 26 -1 27 -48 27 -27 0 -61 -4 -74 -9
-22 -9 -24 -16 -26 -70 -1 -52 2 -61 16 -62 16 -1 16 -2 1 -6 -9 -2 -19 -12
-21 -21 -3 -9 -5 46 -6 123 -1 136 -10 183 -37 192 -19 6 -134 -77 -134 -98 0
-12 -5 -16 -14 -13 -15 6 -84 -84 -137 -178 -17 -29 -27 -42 -24 -28 4 14 25
54 47 90 l40 64 -27 56 c-15 30 -43 81 -62 113 -32 52 -34 62 -28 108 8 59 42
105 88 118 18 6 124 9 237 8 178 -2 210 -4 233 -20z m-318 -517 l4 -95 -9 90
c-5 50 -14 106 -19 125 -16 51 -12 61 6 15 8 -22 16 -82 18 -135z m132 -72
c-3 -7 -5 -2 -5 12 0 14 2 19 5 13 2 -7 2 -19 0 -25z"/>
<path d="M762 1064 c-53 -42 -55 -54 -20 -119 l31 -57 44 44 44 44 -16 44
c-15 43 -32 70 -44 70 -3 0 -21 -12 -39 -26z"/>
</g>
</svg>
