<?xml version="1.0" standalone="no"?>
<!DOCTYPE svg PUBLIC "-//W3C//DTD SVG 20010904//EN"
 "http://www.w3.org/TR/2001/REC-SVG-20010904/DTD/svg10.dtd">
<svg version="1.0" xmlns="http://www.w3.org/2000/svg"
 width="192.000000pt" height="192.000000pt" viewBox="0 0 192.000000 192.000000"
 preserveAspectRatio="xMidYMid meet">
<metadata>
Created by potrace 1.16, written by Peter Selinger 2001-2019
</metadata>
<g transform="translate(0.000000,192.000000) scale(0.100000,-0.100000)"
fill="#000000" stroke="none">
811 c445 -92 729 -532 635 -987 -62 -301 -295 -546 -601 -630 -91 -26 -329
-26 -420 0 -291 80 -516 305 -596 596 -26 91 -26 329 0 420 120 433 542 692
982 601z"/>
<path d="M865 1351 c-112 -51 -165 -189 -115 -298 15 -34 16 -43 5 -43 -23 0
-45 -30 -45 -60 0 -49 29 -60 157 -60 124 0 157 -9 179 -51 23 -46 18 -94 -15
-131 l-29 -33 -129 -3 c-141 -4 -163 -12 -163 -63 0 -52 32 -62 179 -57 122 3
131 5 177 34 95 58 135 168 100 275 -10 28 -16 52 -14 53 32 14 43 28 46 53 5
54 -15 63 -139 63 -120 0 -165 12 -193 51 -20 30 -21 98 0 127 27 38 55 46
189 52 l130 5 9 27 c7 18 6 35 -2 53 l-12 25 -137 0 c-112 0 -146 -4 -178 -19z"/>
<path d="M926 1181 c-22 -25 -15 -66 14 -81 12 -6 68 -9 137 -8 l118 3 0 50 0
50 -126 3 c-114 2 -127 1 -143 -17z"/>
<path d="M717 823 c-4 -3 -7 -23 -7 -44 0 -28 5 -41 19 -49 25 -13 201 -13
235 0 30 11 42 49 26 79 -10 20 -19 21 -139 21 -70 0 -131 -3 -134 -7z"/>
</g>
</svg>
