<?xml version="1.0" standalone="no"?>
<!DOCTYPE svg PUBLIC "-//W3C//DTD SVG 20010904//EN"
 "http://www.w3.org/TR/2001/REC-SVG-20010904/DTD/svg10.dtd">
<svg version="1.0" xmlns="http://www.w3.org/2000/svg"
 width="192.000000pt" height="192.000000pt" viewBox="0 0 192.000000 192.000000"
 preserveAspectRatio="xMidYMid meet">
<metadata>
Created by potrace 1.16, written by Peter Selinger 2001-2019
</metadata>
<g transform="translate(0.000000,192.000000) scale(0.100000,-0.100000)"
fill="#000000" stroke="none">
811 c445 -92 729 -532 635 -987 -62 -301 -295 -546 -601 -630 -91 -26 -329
-26 -420 0 -291 80 -516 305 -596 596 -26 91 -26 329 0 420 120 433 542 692
982 601z"/>
<path d="M1205 1345 l-25 -24 0 -361 0 -361 25 -24 c31 -32 69 -32 100 0 l25
24 0 361 0 361 -25 24 c-13 14 -36 25 -50 25 -14 0 -37 -11 -50 -25z"/>
<path d="M1004 1139 c-17 -19 -19 -41 -22 -253 -2 -127 0 -246 3 -264 13 -68
80 -95 123 -49 21 23 22 30 22 283 0 296 -2 304 -69 304 -26 0 -44 -7 -57 -21z"/>
<path d="M807 948 c-9 -7 -21 -26 -27 -41 -13 -38 -13 -265 1 -306 19 -54 79
-69 117 -28 21 22 22 33 22 183 0 155 -1 161 -23 182 -26 24 -65 28 -90 10z"/>
<path d="M613 745 c-36 -15 -43 -31 -43 -96 0 -40 5 -55 25 -74 52 -53 125
-13 125 69 0 87 -43 128 -107 101z"/>
</g>
</svg>
