<?xml version="1.0" standalone="no"?>
<!DOCTYPE svg PUBLIC "-//W3C//DTD SVG 20010904//EN"
 "http://www.w3.org/TR/2001/REC-SVG-20010904/DTD/svg10.dtd">
<svg version="1.0" xmlns="http://www.w3.org/2000/svg"
 width="192.000000pt" height="192.000000pt" viewBox="0 0 192.000000 192.000000"
 preserveAspectRatio="xMidYMid meet">
<metadata>
Created by potrace 1.16, written by Peter Selinger 2001-2019
</metadata>
<g transform="translate(0.000000,192.000000) scale(0.100000,-0.100000)"
fill="#000000" stroke="none">
810 c245 -63 441 -223 549 -451 55 -116 75 -212 75 -354 0 -141 -20 -238 -75
-352 -86 -182 -215 -312 -396 -398 -116 -55 -212 -75 -354 -75 -142 0 -238 20
-354 75 -228 108 -388 304 -451 549 -28 110 -28 292 0 402 76 298 303 526 600
603 106 28 298 28 406 1z"/>
<path d="M862 1347 c-6 -7 -14 -36 -18 -64 -4 -31 -14 -59 -25 -69 -20 -18
-34 -16 -116 17 -28 12 -34 11 -53 -6 -11 -10 -35 -48 -52 -83 l-32 -65 29
-24 c17 -14 40 -34 53 -44 36 -30 28 -59 -30 -110 l-52 -46 32 -65 c17 -35 41
-73 52 -83 20 -18 22 -18 73 3 29 12 59 22 68 22 26 0 46 -32 53 -84 3 -27 11
-55 17 -62 15 -19 172 -19 186 -1 6 6 13 37 16 67 10 84 30 93 130 54 l48 -19
20 25 c29 37 69 117 69 138 0 11 -17 31 -41 47 -74 52 -75 86 -3 135 27 19 44
39 44 51 0 39 -72 159 -96 159 -6 0 -33 -9 -59 -21 -63 -28 -91 -20 -104 29
-6 20 -11 48 -11 63 0 14 -5 30 -12 37 -17 17 -172 16 -186 -1z m159 -262 c92
-48 90 -193 -2 -241 -23 -11 -47 -15 -83 -11 -41 4 -55 10 -83 41 -29 31 -33
42 -33 90 0 44 5 60 27 86 14 18 36 36 47 40 34 14 95 11 127 -5z"/>
</g>
</svg>
