<?xml version="1.0" standalone="no"?>
<!DOCTYPE svg PUBLIC "-//W3C//DTD SVG 20010904//EN"
 "http://www.w3.org/TR/2001/REC-SVG-20010904/DTD/svg10.dtd">
<svg version="1.0" xmlns="http://www.w3.org/2000/svg"
 width="192.000000pt" height="192.000000pt" viewBox="0 0 192.000000 192.000000"
 preserveAspectRatio="xMidYMid meet">
<metadata>
Created by potrace 1.16, written by Peter Selinger 2001-2019
</metadata>
<g transform="translate(0.000000,192.000000) scale(0.100000,-0.100000)"
fill="#000000" stroke="none">
810 c245 -63 441 -223 549 -451 55 -116 75 -212 75 -354 0 -141 -20 -238 -75
-352 -86 -182 -215 -312 -396 -398 -116 -55 -212 -75 -354 -75 -142 0 -238 20
-354 75 -228 108 -388 304 -451 549 -28 110 -28 292 0 402 76 298 303 526 600
603 106 28 298 28 406 1z"/>
<path d="M862 1348 c-7 -7 -12 -23 -12 -37 0 -15 -5 -43 -11 -63 -13 -50 -43
-57 -109 -29 -27 11 -53 21 -59 21 -17 0 -81 -104 -87 -141 -5 -32 -2 -37 40
-67 39 -28 46 -39 46 -66 0 -27 -7 -38 -46 -66 -43 -31 -46 -35 -40 -68 5 -36
69 -142 85 -142 5 0 30 9 56 20 26 11 55 20 64 20 28 0 49 -31 56 -85 4 -27
12 -56 17 -63 7 -8 38 -12 89 -12 89 0 109 12 109 65 0 88 40 112 121 75 48
-23 49 -23 70 -4 29 26 79 114 79 139 0 12 -15 30 -36 45 -46 31 -67 63 -59
89 3 12 26 35 51 53 28 20 44 39 44 52 0 25 -50 114 -78 139 -19 18 -22 18
-71 -3 -84 -37 -121 -12 -121 80 0 29 -5 42 -19 50 -27 14 -164 13 -179 -2z
m172 -269 c74 -59 74 -169 0 -228 -20 -15 -41 -21 -80 -21 -45 0 -59 5 -88 30
-70 61 -70 148 -1 209 30 26 44 31 89 31 39 0 60 -6 80 -21z"/>
</g>
</svg>
