<?xml version="1.0" standalone="no"?>
<!DOCTYPE svg PUBLIC "-//W3C//DTD SVG 20010904//EN"
 "http://www.w3.org/TR/2001/REC-SVG-20010904/DTD/svg10.dtd">
<svg version="1.0" xmlns="http://www.w3.org/2000/svg"
 width="192.000000pt" height="192.000000pt" viewBox="0 0 192.000000 192.000000"
 preserveAspectRatio="xMidYMid meet">
<metadata>
Created by potrace 1.16, written by Peter Selinger 2001-2019
</metadata>
<g transform="translate(0.000000,192.000000) scale(0.100000,-0.100000)"
fill="#000000" stroke="none">
810 c245 -63 441 -223 549 -451 55 -116 75 -212 75 -354 0 -141 -20 -238 -75
-352 -86 -182 -215 -312 -396 -398 -116 -55 -212 -75 -354 -75 -142 0 -238 20
-354 75 -228 108 -388 304 -451 549 -28 110 -28 292 0 402 76 298 303 526 600
603 106 28 298 28 406 1z"/>
<path d="M862 1348 c-5 -7 -13 -35 -17 -63 -12 -85 -43 -102 -115 -65 -22 11
-46 20 -54 20 -16 0 -69 -71 -91 -122 -16 -40 -9 -56 44 -93 48 -33 55 -73 19
-104 -13 -10 -36 -30 -52 -44 l-30 -24 27 -54 c15 -30 37 -67 51 -84 l24 -30
54 23 c29 12 60 22 69 22 26 0 46 -32 54 -85 4 -27 12 -56 17 -63 7 -8 38 -12
89 -12 89 0 109 12 109 65 0 87 37 110 119 74 51 -21 52 -21 72 -3 29 26 79
114 79 140 0 14 -15 31 -41 49 -74 52 -75 85 -3 137 25 18 44 39 44 50 0 28
-44 109 -74 137 l-26 25 -45 -22 c-82 -40 -112 -25 -122 58 -3 30 -10 61 -16
68 -6 8 -38 12 -92 12 -54 0 -86 -4 -93 -12z m165 -268 c86 -52 82 -189 -6
-235 -17 -8 -50 -15 -75 -15 -36 0 -52 6 -80 31 -67 58 -67 149 -1 208 29 25
44 31 83 31 29 0 59 -8 79 -20z"/>
</g>
</svg>
