<?xml version="1.0" standalone="no"?>
<!DOCTYPE svg PUBLIC "-//W3C//DTD SVG 20010904//EN"
 "http://www.w3.org/TR/2001/REC-SVG-20010904/DTD/svg10.dtd">
<svg version="1.0" xmlns="http://www.w3.org/2000/svg"
 width="192.000000pt" height="192.000000pt" viewBox="0 0 192.000000 192.000000"
 preserveAspectRatio="xMidYMid meet">
<metadata>
Created by potrace 1.16, written by Peter Selinger 2001-2019
</metadata>
<g transform="translate(0.000000,192.000000) scale(0.100000,-0.100000)"
fill="#000000" stroke="none">
810 c245 -63 441 -223 549 -451 55 -116 75 -212 75 -354 0 -141 -20 -238 -75
-352 -86 -182 -215 -312 -396 -398 -116 -55 -212 -75 -354 -75 -142 0 -238 20
-354 75 -228 108 -388 304 -451 549 -28 110 -28 292 0 402 76 298 303 526 600
603 106 28 298 28 406 1z"/>
<path d="M862 1348 c-5 -7 -13 -35 -17 -63 -12 -85 -43 -102 -115 -65 -22 11
-46 20 -54 20 -16 0 -69 -71 -91 -122 -16 -40 -9 -56 44 -93 48 -33 55 -73 19
-104 -13 -10 -36 -30 -52 -44 l-30 -24 27 -54 c15 -30 37 -67 51 -84 l24 -30
54 23 c29 12 60 22 69 22 26 0 46 -32 54 -85 4 -27 12 -56 17 -63 13 -15 151
-17 179 -2 14 8 19 21 19 50 0 92 35 116 119 79 l52 -22 25 24 c30 28 74 110
74 137 0 11 -17 31 -41 47 -74 52 -75 85 -3 137 25 18 44 39 44 50 0 41 -75
158 -101 158 -5 0 -27 -9 -49 -20 -75 -38 -107 -21 -117 60 -3 30 -10 61 -16
68 -6 8 -38 12 -92 12 -54 0 -86 -4 -93 -12z m165 -268 c86 -52 82 -189 -6
-235 -17 -8 -50 -15 -75 -15 -36 0 -52 6 -80 31 -67 58 -67 149 -1 208 29 25
44 31 83 31 29 0 59 -8 79 -20z"/>
</g>
</svg>
