<?xml version="1.0" standalone="no"?>
<!DOCTYPE svg PUBLIC "-//W3C//DTD SVG 20010904//EN"
 "http://www.w3.org/TR/2001/REC-SVG-20010904/DTD/svg10.dtd">
<svg version="1.0" xmlns="http://www.w3.org/2000/svg"
 width="192.000000pt" height="192.000000pt" viewBox="0 0 192.000000 192.000000"
 preserveAspectRatio="xMidYMid meet">
<metadata>
Created by potrace 1.16, written by Peter Selinger 2001-2019
</metadata>
<g transform="translate(0.000000,192.000000) scale(0.100000,-0.100000)"
fill="#000000" stroke="none">
810 c245 -63 441 -223 549 -451 55 -116 75 -212 75 -354 0 -141 -20 -238 -75
-352 -86 -182 -215 -312 -396 -398 -116 -55 -212 -75 -354 -75 -142 0 -238 20
-354 75 -228 108 -388 304 -451 549 -28 110 -28 292 0 402 76 298 303 526 600
603 106 28 298 28 406 1z"/>
<path d="M862 1348 c-5 -7 -13 -35 -17 -63 -12 -85 -43 -102 -115 -65 -22 11
-46 20 -54 20 -19 0 -60 -53 -87 -115 l-22 -49 29 -24 c16 -13 39 -33 52 -43
12 -10 22 -30 22 -44 0 -14 -10 -34 -22 -44 -13 -10 -36 -30 -53 -44 l-29 -24
32 -65 c17 -35 41 -73 52 -83 20 -18 22 -18 73 3 29 12 59 22 68 22 26 0 46
-32 53 -84 9 -71 16 -76 110 -76 93 0 106 7 106 61 0 89 35 113 114 80 26 -12
52 -21 56 -21 26 0 100 118 100 158 0 11 -17 31 -41 47 -74 52 -75 85 -3 137
25 18 44 39 44 50 0 39 -74 158 -99 158 -5 0 -30 -9 -56 -21 -27 -12 -56 -18
-70 -15 -26 7 -45 50 -45 100 0 18 -5 37 -12 44 -17 17 -172 16 -186 0z m159
-263 c92 -48 90 -193 -2 -241 -23 -11 -47 -15 -83 -11 -41 4 -55 10 -83 41
-29 31 -33 42 -33 90 0 44 5 60 27 86 14 18 36 36 47 40 34 14 95 11 127 -5z"/>
</g>
</svg>
