<?xml version="1.0" standalone="no"?>
<!DOCTYPE svg PUBLIC "-//W3C//DTD SVG 20010904//EN"
 "http://www.w3.org/TR/2001/REC-SVG-20010904/DTD/svg10.dtd">
<svg version="1.0" xmlns="http://www.w3.org/2000/svg"
 width="192.000000pt" height="192.000000pt" viewBox="0 0 192.000000 192.000000"
 preserveAspectRatio="xMidYMid meet">
<metadata>
Created by potrace 1.16, written by Peter Selinger 2001-2019
</metadata>
<g transform="translate(0.000000,192.000000) scale(0.100000,-0.100000)"
fill="#000000" stroke="none">
810 c245 -63 441 -223 549 -451 55 -116 75 -212 75 -354 0 -141 -20 -238 -75
-352 -86 -182 -215 -312 -396 -398 -116 -55 -212 -75 -354 -75 -142 0 -238 20
-354 75 -228 108 -388 304 -451 549 -28 110 -28 292 0 402 76 298 303 526 600
603 106 28 298 28 406 1z"/>
<path d="M862 1348 c-5 -7 -13 -35 -17 -63 -7 -53 -28 -85 -54 -85 -9 0 -40
10 -69 22 l-54 23 -24 -30 c-35 -44 -74 -124 -67 -141 3 -8 25 -28 49 -45 35
-24 44 -36 44 -60 0 -18 -8 -36 -22 -48 -13 -10 -36 -30 -52 -44 l-30 -24 27
-54 c15 -30 37 -67 50 -83 l24 -30 53 22 c29 12 60 22 70 22 27 0 47 -31 55
-85 4 -27 12 -56 17 -63 7 -8 38 -12 89 -12 89 0 109 12 109 65 0 87 37 110
119 74 51 -21 52 -21 72 -3 30 26 79 115 79 141 0 14 -12 29 -36 43 -44 28
-68 63 -59 89 3 12 26 35 51 53 25 18 44 39 44 50 0 28 -44 109 -74 137 l-26
24 -50 -23 c-82 -39 -116 -15 -119 82 -1 26 -7 40 -20 48 -28 15 -166 13 -179
-2z m165 -268 c86 -52 82 -189 -6 -235 -17 -8 -50 -15 -75 -15 -36 0 -52 6
-80 31 -67 58 -67 149 -1 208 29 25 44 31 83 31 29 0 59 -8 79 -20z"/>
</g>
</svg>
