<?xml version="1.0" standalone="no"?>
<!DOCTYPE svg PUBLIC "-//W3C//DTD SVG 20010904//EN"
 "http://www.w3.org/TR/2001/REC-SVG-20010904/DTD/svg10.dtd">
<svg version="1.0" xmlns="http://www.w3.org/2000/svg"
 width="192.000000pt" height="192.000000pt" viewBox="0 0 192.000000 192.000000"
 preserveAspectRatio="xMidYMid meet">
<metadata>
Created by potrace 1.16, written by Peter Selinger 2001-2019
</metadata>
<g transform="translate(0.000000,192.000000) scale(0.100000,-0.100000)"
fill="#000000" stroke="none">
810 c245 -63 441 -223 549 -451 55 -116 75 -212 75 -354 0 -141 -20 -238 -75
-352 -86 -182 -215 -312 -396 -398 -116 -55 -212 -75 -354 -75 -142 0 -238 20
-354 75 -228 108 -388 304 -451 549 -28 110 -28 292 0 402 76 298 303 526 600
603 106 28 298 28 406 1z"/>
<path d="M868 1349 c-10 -6 -18 -22 -18 -37 0 -15 -5 -44 -11 -64 -13 -50 -43
-57 -109 -29 -27 11 -53 21 -59 21 -17 0 -81 -104 -87 -141 -5 -32 -2 -37 40
-67 39 -28 46 -39 46 -66 0 -27 -7 -38 -46 -66 -43 -30 -46 -35 -41 -67 7 -39
60 -128 82 -137 8 -3 36 4 61 14 82 36 108 22 119 -62 4 -29 12 -59 17 -66 7
-8 38 -12 89 -12 92 0 109 11 109 73 0 52 23 87 55 87 14 0 45 -10 70 -22 l45
-22 25 24 c27 25 75 115 75 139 0 9 -16 27 -36 41 -46 31 -67 63 -59 89 3 12
26 35 51 53 28 20 44 39 44 52 0 25 -50 114 -78 139 -20 18 -22 18 -67 -2 -88
-39 -112 -26 -124 64 -4 31 -14 61 -22 66 -19 12 -150 11 -171 -2z m159 -269
c86 -52 82 -189 -6 -235 -17 -8 -50 -15 -75 -15 -36 0 -52 6 -80 30 -70 61
-70 148 -1 209 29 25 44 31 83 31 29 0 59 -8 79 -20z"/>
</g>
</svg>
