<?xml version="1.0" standalone="no"?>
<!DOCTYPE svg PUBLIC "-//W3C//DTD SVG 20010904//EN"
 "http://www.w3.org/TR/2001/REC-SVG-20010904/DTD/svg10.dtd">
<svg version="1.0" xmlns="http://www.w3.org/2000/svg"
 width="192.000000pt" height="192.000000pt" viewBox="0 0 192.000000 192.000000"
 preserveAspectRatio="xMidYMid meet">
<metadata>
Created by potrace 1.16, written by Peter Selinger 2001-2019
</metadata>
<g transform="translate(0.000000,192.000000) scale(0.100000,-0.100000)"
fill="#000000" stroke="none">
811 c445 -92 729 -532 635 -987 -62 -301 -295 -546 -601 -630 -91 -26 -329
-26 -420 0 -291 80 -516 305 -596 596 -26 91 -26 329 0 420 120 433 542 692
982 601z"/>
<path d="M1094 1348 c-26 -12 -44 -48 -44 -89 0 -33 64 -110 113 -135 26 -14
31 -14 55 2 107 67 139 148 83 205 -33 33 -50 35 -89 15 -24 -12 -30 -12 -47
0 -22 16 -41 17 -71 2z"/>
<path d="M672 1174 c-93 -47 -109 -178 -30 -251 12 -12 90 -52 171 -89 188
-85 192 -98 28 -102 -91 -2 -117 0 -130 13 -52 46 -131 15 -131 -52 0 -44 47
-93 107 -111 60 -18 265 -16 311 3 107 45 145 161 86 263 -24 40 -37 49 -143
98 -64 30 -134 63 -156 74 l-40 19 111 0 c100 1 114 -1 139 -21 48 -38 106
-24 126 30 13 33 -12 81 -58 112 -35 24 -44 25 -197 28 -134 2 -167 -1 -194
-14z"/>
</g>
</svg>
