<?xml version="1.0" standalone="no"?>
<!DOCTYPE svg PUBLIC "-//W3C//DTD SVG 20010904//EN"
 "http://www.w3.org/TR/2001/REC-SVG-20010904/DTD/svg10.dtd">
<svg version="1.0" xmlns="http://www.w3.org/2000/svg"
 width="192.000000pt" height="192.000000pt" viewBox="0 0 192.000000 192.000000"
 preserveAspectRatio="xMidYMid meet">
<metadata>
Created by potrace 1.16, written by Peter Selinger 2001-2019
</metadata>
<g transform="translate(0.000000,192.000000) scale(0.100000,-0.100000)"
fill="#000000" stroke="none">
811 c445 -92 729 -532 635 -987 -62 -301 -295 -546 -601 -630 -91 -26 -329
-26 -420 0 -291 80 -516 305 -596 596 -26 91 -26 329 0 420 120 433 542 692
982 601z"/>
<path d="M867 1364 c-12 -7 -22 -16 -22 -21 0 -5 -14 -38 -32 -74 -35 -71 -49
-129 -31 -129 6 0 26 10 45 21 l35 22 42 -42 c23 -23 44 -40 47 -39 3 2 -4 -5
-14 -14 -11 -10 -26 -18 -33 -18 -8 0 -19 -11 -25 -24 -7 -14 -31 -38 -55 -56
l-43 -31 -38 20 c-21 11 -53 31 -72 45 -19 14 -41 26 -48 26 -7 0 -13 4 -13 9
0 12 -49 20 -56 9 -3 -5 1 -20 10 -33 9 -13 16 -31 16 -38 0 -8 9 -22 20 -32
11 -10 37 -44 57 -76 31 -49 45 -61 78 -70 36 -10 45 -8 85 14 41 23 48 24 71
11 23 -12 27 -20 28 -65 0 -29 -4 -58 -9 -64 -6 -7 -13 -40 -16 -73 -10 -92
-10 -92 171 -92 144 0 153 1 158 20 3 11 1 23 -4 26 -16 9 -40 64 -29 64 6 0
22 -25 37 -55 l27 -55 49 0 c51 0 51 0 15 52 -10 14 -18 31 -18 37 0 15 -49
65 -67 67 -9 2 -19 7 -22 12 -3 4 -15 12 -26 16 -15 6 2 14 69 31 49 13 92 27
97 32 5 5 -2 44 -16 88 -13 44 -22 90 -19 102 4 13 2 29 -4 36 -5 6 -31 86
-57 177 -25 91 -51 170 -56 175 -7 7 -14 4 -20 -8 -22 -38 -56 -65 -89 -71
l-35 -6 28 24 28 23 -58 16 c-75 21 -157 26 -186 11z m333 -65 c0 -20 -15 -26
-24 -10 -8 13 4 42 15 35 5 -3 9 -14 9 -25z m46 -140 c39 -121 38 -115 19 -99
-8 7 -15 18 -15 25 0 7 -9 15 -20 18 -22 6 -27 23 -7 30 6 2 2 2 -10 0 -12 -2
-40 4 -63 13 -32 13 -45 26 -63 63 -12 25 -23 48 -24 51 -2 3 31 5 73 4 l76
-1 34 -104z m14 -262 c0 -7 -14 -21 -31 -31 l-31 -18 16 31 c16 31 46 43 46
18z"/>
</g>
</svg>
