<?xml version="1.0" standalone="no"?>
<!DOCTYPE svg PUBLIC "-//W3C//DTD SVG 20010904//EN"
 "http://www.w3.org/TR/2001/REC-SVG-20010904/DTD/svg10.dtd">
<svg version="1.0" xmlns="http://www.w3.org/2000/svg"
 width="192.000000pt" height="192.000000pt" viewBox="0 0 192.000000 192.000000"
 preserveAspectRatio="xMidYMid meet">
<metadata>
Created by potrace 1.16, written by Peter Selinger 2001-2019
</metadata>
<g transform="translate(0.000000,192.000000) scale(0.100000,-0.100000)"
fill="#000000" stroke="none">
811 c445 -92 729 -532 635 -987 -62 -301 -295 -546 -601 -630 -91 -26 -329
-26 -420 0 -291 80 -516 305 -596 596 -26 91 -26 329 0 420 120 433 542 692
982 601z"/>
<path d="M967 1376 c-44 -16 -74 -40 -82 -67 -9 -27 -21 -23 -35 11 -7 17 -16
33 -21 36 -28 17 -93 -70 -104 -141 -15 -94 33 -174 165 -273 115 -86 147
-118 176 -175 29 -57 57 -61 86 -11 53 91 43 228 -22 297 l-37 41 33 33 c112
111 -10 302 -159 249z m23 -146 c0 -73 -3 -90 -15 -90 -12 0 -15 17 -15 90 0
73 3 90 15 90 12 0 15 -17 15 -90z m90 61 c0 -16 -7 -34 -15 -41 -12 -10 -12
-15 1 -35 17 -27 16 -66 -3 -72 -7 -3 -15 8 -19 24 -4 15 -14 36 -22 46 -14
15 -13 19 1 35 10 10 17 28 17 39 0 23 8 33 27 33 8 0 13 -11 13 -29z"/>
<path d="M749 968 c-14 -26 -5 -114 17 -166 17 -43 60 -90 125 -137 27 -20 53
-51 64 -75 37 -82 97 -24 98 95 0 58 -18 97 -65 141 -43 42 -207 164 -218 164
-5 0 -14 -10 -21 -22z"/>
</g>
</svg>
