<?xml version="1.0" standalone="no"?>
<!DOCTYPE svg PUBLIC "-//W3C//DTD SVG 20010904//EN"
 "http://www.w3.org/TR/2001/REC-SVG-20010904/DTD/svg10.dtd">
<svg version="1.0" xmlns="http://www.w3.org/2000/svg"
 width="192.000000pt" height="192.000000pt" viewBox="0 0 192.000000 192.000000"
 preserveAspectRatio="xMidYMid meet">
<metadata>
Created by potrace 1.16, written by Peter Selinger 2001-2019
</metadata>
<g transform="translate(0.000000,192.000000) scale(0.100000,-0.100000)"
fill="#000000" stroke="none">
811 c445 -92 729 -532 635 -987 -62 -301 -295 -546 -601 -630 -91 -26 -329
-26 -420 0 -291 80 -516 305 -596 596 -26 91 -26 329 0 420 120 433 542 692
982 601z"/>
<path d="M686 1317 c-22 -12 -53 -39 -70 -60 l-31 -39 -3 -236 c-3 -230 -2
-238 20 -282 13 -26 41 -57 66 -75 l44 -30 243 0 243 0 44 30 c25 18 53 49 66
75 22 44 23 52 20 282 l-3 236 -31 39 c-17 21 -48 48 -70 60 -37 22 -49 23
-269 23 -220 0 -232 -1 -269 -23z m512 -57 c67 -41 72 -61 72 -288 0 -222 -6
-251 -56 -291 l-28 -22 -38 41 c-21 22 -38 46 -38 54 0 8 -12 24 -26 35 -31
24 -54 64 -54 94 0 19 1 19 18 4 11 -10 35 -17 58 -17 l39 1 -28 15 c-16 9
-35 13 -43 10 -10 -4 -21 5 -32 24 -12 20 -26 30 -47 32 -24 2 -30 9 -36 35
-6 30 -4 32 25 35 39 4 45 27 15 67 -12 17 -20 33 -17 37 9 8 145 -21 208 -45
30 -11 56 -18 59 -16 18 18 -108 69 -201 81 -61 8 -81 29 -43 44 32 12 112 15
143 6 13 -5 22 -3 22 3 0 19 -53 25 -122 13 -91 -16 -91 -16 -72 13 13 20 14
25 3 25 -8 0 -19 -10 -24 -22 -9 -20 -17 -23 -75 -23 l-65 0 -3 -35 c-2 -19
-10 -39 -18 -43 -19 -11 -18 -51 2 -68 8 -7 24 -30 35 -52 23 -44 21 -50 -47
-123 -22 -23 -55 -72 -74 -108 -19 -36 -38 -66 -42 -66 -19 0 -28 80 -28 264
0 224 5 245 72 286 30 18 51 20 243 20 192 0 213 -2 243 -20z m-245 -500 c19
-16 44 -30 55 -30 36 0 111 -50 112 -73 0 -11 -379 -4 -403 7 -21 10 -8 30 35
52 15 8 28 21 28 29 0 10 10 15 29 15 16 0 34 7 41 15 20 25 66 18 103 -15z"/>
</g>
</svg>
