<?xml version="1.0" standalone="no"?>
<!DOCTYPE svg PUBLIC "-//W3C//DTD SVG 20010904//EN"
 "http://www.w3.org/TR/2001/REC-SVG-20010904/DTD/svg10.dtd">
<svg version="1.0" xmlns="http://www.w3.org/2000/svg"
 width="192.000000pt" height="192.000000pt" viewBox="0 0 192.000000 192.000000"
 preserveAspectRatio="xMidYMid meet">
<metadata>
Created by potrace 1.16, written by Peter Selinger 2001-2019
</metadata>
<g transform="translate(0.000000,192.000000) scale(0.100000,-0.100000)"
fill="#000000" stroke="none">
811 c445 -92 729 -532 635 -987 -62 -301 -295 -546 -601 -630 -91 -26 -329
-26 -420 0 -291 80 -516 305 -596 596 -26 91 -26 329 0 420 120 433 542 692
982 601z"/>
<path d="M958 1369 c-10 -5 -18 -16 -18 -24 0 -9 -14 -13 -51 -12 -46 2 -54
-1 -78 -30 -31 -38 -34 -39 -55 -17 -13 13 -16 13 -16 1 0 -8 7 -20 15 -27 8
-7 15 -18 15 -25 0 -8 5 -15 10 -17 16 -5 43 -90 31 -97 -5 -3 -8 -10 -8 -16
1 -5 -7 -14 -18 -19 -33 -15 -65 -62 -69 -102 -2 -22 -7 -47 -11 -56 -4 -10
-5 -24 -2 -32 3 -8 -3 -39 -14 -68 -11 -29 -23 -62 -27 -73 -5 -16 -7 -14 -12
14 -10 64 -71 68 -78 5 -9 -72 44 -164 112 -195 36 -16 68 -19 271 -19 203 0
235 3 271 19 65 30 114 109 114 185 0 62 -48 76 -80 24 -11 -18 -20 -28 -21
-23 -3 31 4 91 11 99 5 5 5 16 0 25 -11 22 -30 106 -30 133 0 23 -26 47 -52
48 -10 0 -18 7 -18 15 0 9 -9 15 -22 15 -34 0 -43 10 -60 60 -11 32 -20 44
-32 42 -9 -2 -16 2 -16 8 0 5 -7 10 -15 10 -8 0 -15 5 -15 11 0 5 -3 8 -7 6
-5 -3 -8 10 -8 27 0 27 3 32 18 28 19 -5 97 28 97 41 0 4 -13 1 -30 -8 -16 -8
-39 -15 -51 -15 -17 0 -19 3 -10 14 9 11 10 20 1 35 -12 24 -17 25 -42 10z
m129 -406 c18 -33 14 -51 -8 -37 -22 13 -143 4 -161 -13 -17 -15 -18 -14 -18
11 0 15 8 41 17 59 l18 32 3 -27 c3 -27 5 -28 62 -28 62 0 68 8 36 49 -9 12
-8 12 11 0 12 -7 30 -28 40 -46z m-17 -71 c0 -9 -10 -28 -21 -42 l-21 -25 6
28 c6 26 4 27 -30 27 -34 0 -36 -2 -31 -27 l5 -28 -24 28 c-34 40 -23 56 44
59 67 4 72 2 72 -20z m-60 -43 c0 -11 -4 -17 -10 -14 -5 3 -10 13 -10 21 0 8
5 14 10 14 6 0 10 -9 10 -21z m140 -139 c0 -63 -3 -80 -14 -80 -24 0 -35 78
-17 123 7 20 18 37 23 37 4 0 8 -36 8 -80z m-337 -3 c-4 -7 -8 -19 -9 -27 -1
-8 -2 -23 -3 -32 0 -11 -9 -18 -21 -18 -23 0 -26 28 -9 78 9 27 14 30 30 21
12 -6 17 -15 12 -22z"/>
<path d="M1129 1347 c-8 -7 -12 -11 -10 -10 2 1 12 -2 22 -8 15 -7 19 -6 19 5
0 21 -15 27 -31 13z"/>
<path d="M1000 1270 c8 -5 26 -10 40 -10 20 0 22 2 10 10 -8 5 -26 10 -40 10
-20 0 -22 -2 -10 -10z"/>
</g>
</svg>
