<?xml version="1.0" standalone="no"?>
<!DOCTYPE svg PUBLIC "-//W3C//DTD SVG 20010904//EN"
 "http://www.w3.org/TR/2001/REC-SVG-20010904/DTD/svg10.dtd">
<svg version="1.0" xmlns="http://www.w3.org/2000/svg"
 width="192.000000pt" height="192.000000pt" viewBox="0 0 192.000000 192.000000"
 preserveAspectRatio="xMidYMid meet">
<metadata>
Created by potrace 1.16, written by Peter Selinger 2001-2019
</metadata>
<g transform="translate(0.000000,192.000000) scale(0.100000,-0.100000)"
fill="#000000" stroke="none">
810 c245 -63 441 -223 549 -451 55 -116 75 -212 75 -354 0 -141 -20 -238 -75
-352 -86 -182 -215 -312 -396 -398 -116 -55 -212 -75 -354 -75 -142 0 -238 20
-354 75 -228 108 -388 304 -451 549 -28 110 -28 292 0 402 76 298 303 526 600
603 106 28 298 28 406 1z"/>
<path d="M593 1215 c-87 -38 -61 -165 34 -165 40 0 93 45 93 79 0 40 -20 72
-55 86 -40 18 -32 18 -72 0z"/>
<path d="M913 1215 c-60 -26 -71 -89 -24 -136 39 -38 88 -40 125 -3 46 46 31
114 -29 140 -40 16 -32 17 -72 -1z"/>
<path d="M1255 1222 c-64 -13 -88 -100 -40 -147 65 -66 180 9 145 95 -15 36
-64 61 -105 52z"/>
<path d="M570 962 c-32 -26 -32 -78 -1 -104 22 -17 47 -18 342 -18 l319 0 0
-43 c0 -77 71 -116 120 -67 19 19 20 31 18 133 l-3 112 -386 3 c-364 2 -388 1
-409 -16z"/>
</g>
</svg>
