<?xml version="1.0" standalone="no"?>
<!DOCTYPE svg PUBLIC "-//W3C//DTD SVG 20010904//EN"
 "http://www.w3.org/TR/2001/REC-SVG-20010904/DTD/svg10.dtd">
<svg version="1.0" xmlns="http://www.w3.org/2000/svg"
 width="192.000000pt" height="192.000000pt" viewBox="0 0 192.000000 192.000000"
 preserveAspectRatio="xMidYMid meet">
<metadata>
Created by potrace 1.16, written by Peter Selinger 2001-2019
</metadata>
<g transform="translate(0.000000,192.000000) scale(0.100000,-0.100000)"
fill="#000000" stroke="none">
811 c445 -92 729 -532 635 -987 -62 -301 -295 -546 -601 -630 -91 -26 -329
-26 -420 0 -291 80 -516 305 -596 596 -26 91 -26 329 0 420 120 433 542 692
982 601z"/>
<path d="M915 1346 c-80 -36 -110 -128 -68 -209 16 -32 82 -66 127 -67 29 0
106 37 106 52 0 4 6 8 13 8 22 0 80 -67 107 -123 18 -37 32 -53 48 -55 28 -4
52 14 52 38 0 56 -80 172 -145 211 -16 10 -41 40 -55 65 -14 26 -37 56 -51 67
-34 24 -96 31 -134 13z"/>
<path d="M704 1143 c-45 -49 -73 -108 -84 -179 -7 -40 -18 -66 -36 -85 -36
-37 -43 -109 -16 -159 24 -46 99 -85 145 -76 56 10 93 41 112 90 30 79 -4 160
-80 188 -19 6 -35 16 -35 21 0 32 28 92 61 132 43 52 47 66 23 89 -25 25 -54
19 -90 -21z"/>
<path d="M1180 911 c-76 -23 -115 -78 -108 -151 l5 -48 -45 -13 c-32 -9 -61
-10 -103 -3 -32 6 -67 6 -78 2 -22 -8 -28 -42 -13 -66 23 -35 173 -43 252 -13
37 14 66 18 108 14 48 -4 62 -1 92 19 47 32 72 82 66 132 -10 86 -100 150
-176 127z"/>
</g>
</svg>
