<?xml version="1.0" standalone="no"?>
<!DOCTYPE svg PUBLIC "-//W3C//DTD SVG 20010904//EN"
 "http://www.w3.org/TR/2001/REC-SVG-20010904/DTD/svg10.dtd">
<svg version="1.0" xmlns="http://www.w3.org/2000/svg"
 width="192.000000pt" height="192.000000pt" viewBox="0 0 192.000000 192.000000"
 preserveAspectRatio="xMidYMid meet">
<metadata>
Created by potrace 1.16, written by Peter Selinger 2001-2019
</metadata>
<g transform="translate(0.000000,192.000000) scale(0.100000,-0.100000)"
fill="#000000" stroke="none">
811 c445 -92 729 -532 635 -987 -62 -301 -295 -546 -601 -630 -91 -26 -329
-26 -420 0 -291 80 -516 305 -596 596 -26 91 -26 329 0 420 120 433 542 692
982 601z"/>
<path d="M1127 1356 c-21 -8 -48 -22 -59 -33 -26 -23 -57 -90 -58 -123 0 -21
-14 -33 -76 -68 l-75 -43 -52 25 c-60 31 -88 32 -142 7 -71 -33 -105 -86 -105
-164 1 -133 154 -210 268 -135 l38 26 70 -42 c63 -39 69 -46 76 -83 21 -124
124 -190 233 -149 141 54 148 255 11 317 -53 24 -86 24 -145 -2 l-48 -20 -76
46 c-42 25 -79 50 -81 54 -3 4 31 28 76 54 l81 45 28 -20 c34 -25 105 -34 152
-19 46 15 93 69 107 121 12 44 1 104 -27 146 -36 56 -129 84 -196 60z"/>
</g>
</svg>
