<?xml version="1.0" standalone="no"?>
<!DOCTYPE svg PUBLIC "-//W3C//DTD SVG 20010904//EN"
 "http://www.w3.org/TR/2001/REC-SVG-20010904/DTD/svg10.dtd">
<svg version="1.0" xmlns="http://www.w3.org/2000/svg"
 width="192.000000pt" height="192.000000pt" viewBox="0 0 192.000000 192.000000"
 preserveAspectRatio="xMidYMid meet">
<metadata>
Created by potrace 1.16, written by Peter Selinger 2001-2019
</metadata>
<g transform="translate(0.000000,192.000000) scale(0.100000,-0.100000)"
fill="#000000" stroke="none">
811 c445 -92 729 -532 635 -987 -62 -301 -295 -546 -601 -630 -91 -26 -329
-26 -420 0 -291 80 -516 305 -596 596 -26 91 -26 329 0 420 120 433 542 692
982 601z"/>
<path d="M895 1367 c-31 -8 -68 -38 -172 -140 -145 -142 -173 -185 -173 -263
1 -79 27 -118 171 -260 122 -119 139 -132 186 -143 44 -11 60 -10 105 3 47 14
67 30 185 148 72 73 139 149 148 168 24 47 23 125 -3 175 -11 22 -80 99 -154
171 -115 113 -139 132 -180 142 -54 14 -59 14 -113 -1z m113 -81 c15 -8 82
-70 149 -138 130 -132 146 -161 123 -223 -12 -34 -231 -259 -272 -281 -34 -18
-72 -18 -106 0 -15 8 -80 68 -145 133 -179 181 -179 197 5 380 147 146 180
163 246 129z"/>
<path d="M860 1190 c-14 -25 -3 -47 45 -89 41 -36 70 -40 85 -11 9 17 4 27
-36 70 -50 54 -77 62 -94 30z"/>
<path d="M778 1109 c-34 -20 -19 -50 69 -140 91 -93 122 -108 143 -68 10 18 1
31 -86 120 -54 54 -100 99 -103 99 -3 0 -14 -5 -23 -11z"/>
<path d="M669 999 c-13 -24 -12 -24 161 -201 109 -113 138 -128 160 -87 11 19
-2 35 -131 165 -79 79 -151 144 -161 144 -9 0 -22 -9 -29 -21z"/>
</g>
</svg>
