<?xml version="1.0" standalone="no"?>
<!DOCTYPE svg PUBLIC "-//W3C//DTD SVG 20010904//EN"
 "http://www.w3.org/TR/2001/REC-SVG-20010904/DTD/svg10.dtd">
<svg version="1.0" xmlns="http://www.w3.org/2000/svg"
 width="192.000000pt" height="192.000000pt" viewBox="0 0 192.000000 192.000000"
 preserveAspectRatio="xMidYMid meet">
<metadata>
Created by potrace 1.16, written by Peter Selinger 2001-2019
</metadata>
<g transform="translate(0.000000,192.000000) scale(0.100000,-0.100000)"
fill="#000000" stroke="none">
811 c445 -92 729 -532 635 -987 -62 -301 -295 -546 -601 -630 -91 -26 -329
-26 -420 0 -291 80 -516 305 -596 596 -26 91 -26 329 0 420 120 433 542 692
982 601z"/>
<path d="M717 1270 c-118 -121 -147 -174 -147 -270 0 -78 25 -138 78 -193 62
-65 104 -82 202 -82 74 0 91 3 130 27 57 34 137 115 145 148 9 37 -27 80 -66
80 -23 0 -45 -14 -90 -56 -52 -50 -65 -58 -107 -62 -88 -8 -152 50 -152 139 0
55 10 71 122 185 65 68 88 98 88 118 0 36 -33 66 -72 66 -28 0 -47 -14 -131
-100z"/>
<path d="M990 1201 c-56 -17 -108 -52 -158 -104 -56 -60 -64 -90 -34 -125 34
-41 70 -33 141 32 66 61 108 75 164 57 77 -26 116 -110 87 -187 -6 -14 -53
-71 -106 -125 -85 -88 -95 -102 -92 -130 2 -21 13 -39 30 -52 23 -17 31 -18
57 -7 42 17 202 186 229 241 32 66 38 134 17 204 -13 46 -28 69 -73 114 -78
77 -176 108 -262 82z"/>
</g>
</svg>
