<?xml version="1.0" standalone="no"?>
<!DOCTYPE svg PUBLIC "-//W3C//DTD SVG 20010904//EN"
 "http://www.w3.org/TR/2001/REC-SVG-20010904/DTD/svg10.dtd">
<svg version="1.0" xmlns="http://www.w3.org/2000/svg"
 width="192.000000pt" height="192.000000pt" viewBox="0 0 192.000000 192.000000"
 preserveAspectRatio="xMidYMid meet">
<metadata>
Created by potrace 1.16, written by Peter Selinger 2001-2019
</metadata>
<g transform="translate(0.000000,192.000000) scale(0.100000,-0.100000)"
fill="#000000" stroke="none">
811 c445 -92 729 -532 635 -987 -62 -301 -295 -546 -601 -630 -91 -26 -329
-26 -420 0 -291 80 -516 305 -596 596 -26 91 -26 329 0 420 120 433 542 692
982 601z"/>
<path d="M793 1355 c-89 -16 -176 -55 -214 -96 -33 -36 -39 -90 -14 -127 14
-19 14 -24 -1 -47 -12 -18 -14 -35 -10 -62 9 -48 9 -78 0 -126 -4 -27 -2 -44
10 -62 15 -23 15 -28 1 -47 -25 -37 -19 -91 14 -127 167 -179 781 -126 781 68
0 20 -7 46 -15 59 -14 19 -14 24 1 47 12 18 14 35 10 62 -4 21 -7 49 -7 63 0
14 3 42 7 63 4 27 2 44 -10 62 -15 23 -15 28 -1 47 8 13 15 39 15 59 0 128
-296 213 -567 164z m368 -88 c93 -30 133 -62 122 -95 -8 -23 -105 -64 -182
-78 -148 -26 -321 -10 -418 40 -55 27 -65 41 -51 68 15 29 70 53 193 82 43 10
291 -3 336 -17z m-426 -388 c59 -18 94 -22 220 -22 150 0 165 3 306 49 10 3
19 -1 23 -11 10 -26 -40 -63 -118 -88 -103 -32 -319 -32 -422 0 -78 25 -128
62 -118 88 4 10 13 14 23 11 9 -3 48 -15 86 -27z"/>
</g>
</svg>
