<?xml version="1.0" standalone="no"?>
<!DOCTYPE svg PUBLIC "-//W3C//DTD SVG 20010904//EN"
 "http://www.w3.org/TR/2001/REC-SVG-20010904/DTD/svg10.dtd">
<svg version="1.0" xmlns="http://www.w3.org/2000/svg"
 width="192.000000pt" height="192.000000pt" viewBox="0 0 192.000000 192.000000"
 preserveAspectRatio="xMidYMid meet">
<metadata>
Created by potrace 1.16, written by Peter Selinger 2001-2019
</metadata>
<g transform="translate(0.000000,192.000000) scale(0.100000,-0.100000)"
fill="#000000" stroke="none">
811 c445 -92 729 -532 635 -987 -62 -301 -295 -546 -601 -630 -91 -26 -329
-26 -420 0 -291 80 -516 305 -596 596 -26 91 -26 329 0 420 120 433 542 692
982 601z"/>
<path d="M755 1358 c-43 -23 -45 -34 -45 -229 0 -103 3 -195 6 -204 14 -35 58
-45 194 -45 l130 0 0 -80 0 -80 -85 0 c-69 0 -85 3 -85 15 0 52 -98 75 -138
32 -18 -19 -22 -35 -22 -91 0 -58 3 -70 25 -91 24 -25 25 -25 223 -25 262 0
242 -20 242 241 0 153 -3 199 -14 215 -13 17 -31 20 -163 24 l-148 5 0 80 0
80 83 3 c66 2 82 0 82 -11 0 -32 35 -59 77 -61 67 -1 83 21 83 115 0 72 -2 79
-26 98 -25 20 -39 21 -213 21 -115 0 -194 -5 -206 -12z"/>
</g>
</svg>
