<?xml version="1.0" standalone="no"?>
<!DOCTYPE svg PUBLIC "-//W3C//DTD SVG 20010904//EN"
 "http://www.w3.org/TR/2001/REC-SVG-20010904/DTD/svg10.dtd">
<svg version="1.0" xmlns="http://www.w3.org/2000/svg"
 width="192.000000pt" height="192.000000pt" viewBox="0 0 192.000000 192.000000"
 preserveAspectRatio="xMidYMid meet">
<metadata>
Created by potrace 1.16, written by Peter Selinger 2001-2019
</metadata>
<g transform="translate(0.000000,192.000000) scale(0.100000,-0.100000)"
fill="#000000" stroke="none">
811 c445 -92 729 -532 635 -987 -62 -301 -295 -546 -601 -630 -91 -26 -329
-26 -420 0 -291 80 -516 305 -596 596 -26 91 -26 329 0 420 120 433 542 692
982 601z"/>
<path d="M720 1340 c-8 -5 -24 -10 -35 -10 -31 0 -92 -69 -105 -119 -25 -95
31 -193 125 -217 130 -33 249 86 214 215 -14 53 -69 117 -108 124 -14 3 -37 8
-51 12 -14 3 -32 1 -40 -5z"/>
<path d="M1022 1333 c-29 -12 -42 -62 -42 -168 0 -165 19 -185 182 -185 96 0
149 15 167 48 6 12 11 74 11 142 0 115 -1 122 -25 145 -23 24 -29 25 -152 24
-70 0 -134 -3 -141 -6z"/>
<path d="M595 915 c-24 -23 -25 -29 -25 -154 l0 -129 32 -27 c31 -26 34 -27
154 -23 170 4 169 3 169 179 l0 131 -28 24 c-26 23 -35 24 -153 24 -119 0
-126 -1 -149 -25z"/>
<path d="M1006 909 c-25 -29 -26 -36 -26 -149 0 -109 2 -121 23 -144 12 -13
31 -27 42 -30 19 -5 20 -1 18 67 -1 66 -4 72 -24 77 -12 3 -25 12 -27 19 -4
11 3 13 32 8 30 -5 40 -1 64 23 16 15 47 34 69 40 35 11 42 18 48 46 3 21 12
34 21 34 11 0 13 -8 9 -33 -6 -30 -4 -33 32 -47 21 -8 41 -16 46 -18 4 -2 7
16 7 41 0 35 -6 50 -26 71 -26 25 -30 26 -154 26 l-128 0 -26 -31z"/>
<path d="M1243 758 c2 -7 7 -13 12 -13 5 0 10 6 13 13 2 6 -4 12 -13 12 -9 0
-15 -6 -12 -12z"/>
<path d="M1120 680 c0 -5 5 -10 10 -10 6 0 10 5 10 10 0 6 -4 10 -10 10 -5 0
-10 -4 -10 -10z"/>
</g>
</svg>
