<?xml version="1.0" standalone="no"?>
<!DOCTYPE svg PUBLIC "-//W3C//DTD SVG 20010904//EN"
 "http://www.w3.org/TR/2001/REC-SVG-20010904/DTD/svg10.dtd">
<svg version="1.0" xmlns="http://www.w3.org/2000/svg"
 width="192.000000pt" height="192.000000pt" viewBox="0 0 192.000000 192.000000"
 preserveAspectRatio="xMidYMid meet">
<metadata>
Created by potrace 1.16, written by Peter Selinger 2001-2019
</metadata>
<g transform="translate(0.000000,192.000000) scale(0.100000,-0.100000)"
fill="#000000" stroke="none">
811 c445 -92 729 -532 635 -987 -62 -301 -295 -546 -601 -630 -91 -26 -329
-26 -420 0 -291 80 -516 305 -596 596 -26 91 -26 329 0 420 120 433 542 692
982 601z"/>
<path d="M650 1298 c-6 -13 -37 -95 -69 -183 -77 -208 -75 -212 84 -181 39 8
71 13 73 11 1 -1 -2 -14 -8 -29 -15 -40 -12 -121 6 -164 67 -162 292 -185 391
-39 17 25 34 65 38 87 4 26 12 40 22 40 10 0 12 -6 8 -19 -8 -25 16 -48 66
-62 33 -10 42 -10 53 2 20 21 78 187 70 200 -9 15 -68 39 -95 39 -12 0 -27 -7
-33 -16 -11 -14 -29 -10 -167 39 -85 30 -166 61 -181 67 -15 7 -68 62 -118
121 -95 113 -122 129 -140 87z m350 -398 c28 -28 36 -69 19 -99 -46 -82 -159
-55 -159 38 0 31 6 44 26 60 34 27 88 27 114 1z"/>
</g>
</svg>
