<?xml version="1.0" standalone="no"?>
<!DOCTYPE svg PUBLIC "-//W3C//DTD SVG 20010904//EN"
 "http://www.w3.org/TR/2001/REC-SVG-20010904/DTD/svg10.dtd">
<svg version="1.0" xmlns="http://www.w3.org/2000/svg"
 width="192.000000pt" height="192.000000pt" viewBox="0 0 192.000000 192.000000"
 preserveAspectRatio="xMidYMid meet">
<metadata>
Created by potrace 1.16, written by Peter Selinger 2001-2019
</metadata>
<g transform="translate(0.000000,192.000000) scale(0.100000,-0.100000)"
fill="#000000" stroke="none">
811 c445 -92 729 -532 635 -987 -62 -301 -295 -546 -601 -630 -91 -26 -329
-26 -420 0 -291 80 -516 305 -596 596 -26 91 -26 329 0 420 120 433 542 692
982 601z"/>
<path d="M695 1321 c-49 -22 -79 -54 -100 -103 -12 -30 -15 -81 -15 -255 0
-243 7 -273 69 -326 53 -44 88 -49 328 -45 l221 3 43 30 c79 56 84 77 84 340
0 263 -5 284 -84 340 l-43 30 -231 3 c-210 2 -236 0 -272 -17z m477 -51 c24
-7 48 -24 65 -47 28 -36 28 -38 32 -211 4 -230 -2 -273 -42 -316 -23 -23 -45
-36 -75 -41 -24 -4 -45 -5 -48 -3 -2 3 6 24 18 49 15 31 22 66 24 119 2 57 9
89 29 133 14 31 25 65 23 74 -4 21 -59 35 -110 27 -28 -4 -47 0 -80 19 -24 14
-62 30 -85 36 -31 9 -47 21 -63 46 -12 20 -38 48 -57 62 l-36 27 -33 -38 c-18
-21 -36 -51 -39 -67 -4 -16 -10 -29 -15 -29 -5 0 -15 -3 -24 -6 -13 -5 -16 1
-16 25 0 65 40 124 96 141 41 12 392 12 436 0z m-364 -252 c28 -28 1 -75 -37
-63 -11 3 -23 15 -26 26 -12 38 35 65 63 37z m210 -110 c28 -28 1 -75 -38 -63
-14 4 -20 15 -20 35 0 37 33 53 58 28z"/>
</g>
</svg>
