<?xml version="1.0" standalone="no"?>
<!DOCTYPE svg PUBLIC "-//W3C//DTD SVG 20010904//EN"
 "http://www.w3.org/TR/2001/REC-SVG-20010904/DTD/svg10.dtd">
<svg version="1.0" xmlns="http://www.w3.org/2000/svg"
 width="192.000000pt" height="192.000000pt" viewBox="0 0 192.000000 192.000000"
 preserveAspectRatio="xMidYMid meet">
<metadata>
Created by potrace 1.16, written by Peter Selinger 2001-2019
</metadata>
<g transform="translate(0.000000,192.000000) scale(0.100000,-0.100000)"
fill="#000000" stroke="none">
811 c445 -92 729 -532 635 -987 -62 -301 -295 -546 -601 -630 -91 -26 -329
-26 -420 0 -291 80 -516 305 -596 596 -26 91 -26 329 0 420 120 433 542 692
982 601z"/>
<path d="M875 1341 c-48 -22 -79 -54 -100 -104 -13 -31 -20 -37 -46 -37 -45 0
-99 -29 -120 -64 -17 -28 -19 -53 -19 -251 0 -327 -14 -315 367 -315 240 0
260 1 291 20 67 41 72 60 72 296 0 203 -1 212 -23 245 -26 40 -79 69 -124 69
-27 0 -32 4 -38 31 -4 17 -24 48 -45 69 -60 60 -141 75 -215 41z m160 -82 c60
-53 51 -59 -85 -59 l-121 0 16 30 c20 38 59 59 112 60 33 0 50 -7 78 -31z
m-21 -240 c28 -13 38 -32 30 -54 -7 -17 -40 -20 -49 -5 -10 16 -75 12 -81 -5
-9 -22 12 -42 53 -50 42 -8 93 -54 93 -85 0 -35 -27 -76 -60 -90 -59 -25 -150
6 -150 51 0 24 20 29 53 12 43 -21 82 -14 82 16 0 20 -8 27 -49 41 -58 19 -86
50 -86 95 0 66 91 107 164 74z"/>
</g>
</svg>
