<?xml version="1.0" standalone="no"?>
<!DOCTYPE svg PUBLIC "-//W3C//DTD SVG 20010904//EN"
 "http://www.w3.org/TR/2001/REC-SVG-20010904/DTD/svg10.dtd">
<svg version="1.0" xmlns="http://www.w3.org/2000/svg"
 width="192.000000pt" height="192.000000pt" viewBox="0 0 192.000000 192.000000"
 preserveAspectRatio="xMidYMid meet">
<metadata>
Created by potrace 1.16, written by Peter Selinger 2001-2019
</metadata>
<g transform="translate(0.000000,192.000000) scale(0.100000,-0.100000)"
fill="#000000" stroke="none">
811 c445 -92 729 -532 635 -987 -62 -301 -295 -546 -601 -630 -91 -26 -329
-26 -420 0 -291 80 -516 305 -596 596 -26 91 -26 329 0 420 120 433 542 692
982 601z"/>
<path d="M833 1355 c-189 -59 -308 -248 -281 -448 31 -234 274 -394 503 -332
174 47 293 190 303 366 5 87 -15 171 -55 233 -27 41 -25 51 13 104 14 19 14
22 2 22 -9 0 -27 -9 -41 -20 -14 -11 -28 -20 -31 -20 -3 0 -28 16 -55 36 -73
52 -146 74 -238 73 -43 0 -97 -6 -120 -14z m267 -111 c29 -16 55 -34 57 -40 4
-12 -179 -154 -199 -154 -7 0 -50 25 -95 55 -131 88 -159 69 -77 -52 26 -37
69 -96 96 -130 43 -55 54 -63 83 -63 37 0 51 14 184 189 l71 93 22 -48 c31
-68 32 -189 1 -256 -28 -60 -94 -127 -158 -158 -69 -33 -189 -35 -256 -4 -185
86 -248 316 -130 476 66 90 153 130 271 125 61 -3 86 -9 130 -33z"/>
</g>
</svg>
