<?xml version="1.0" standalone="no"?>
<!DOCTYPE svg PUBLIC "-//W3C//DTD SVG 20010904//EN"
 "http://www.w3.org/TR/2001/REC-SVG-20010904/DTD/svg10.dtd">
<svg version="1.0" xmlns="http://www.w3.org/2000/svg"
 width="192.000000pt" height="192.000000pt" viewBox="0 0 192.000000 192.000000"
 preserveAspectRatio="xMidYMid meet">
<metadata>
Created by potrace 1.16, written by Peter Selinger 2001-2019
</metadata>
<g transform="translate(0.000000,192.000000) scale(0.100000,-0.100000)"
fill="#000000" stroke="none">
811 c445 -92 729 -532 635 -987 -62 -301 -295 -546 -601 -630 -91 -26 -329
-26 -420 0 -291 80 -516 305 -596 596 -26 91 -26 329 0 420 120 433 542 692
982 601z"/>
<path d="M482 1170 c-30 -13 -42 -49 -42 -130 0 -79 7 -87 93 -110 l47 -13 0
-49 c0 -48 -1 -49 -27 -46 -23 2 -29 8 -31 36 -3 30 -5 32 -44 32 l-41 0 5
-52 c7 -69 30 -88 110 -88 50 0 63 4 84 25 23 23 25 31 22 107 l-3 83 -67 24
-68 23 0 44 c0 42 1 44 30 44 24 0 30 -4 30 -22 0 -36 15 -50 46 -46 27 3 29
7 32 49 4 68 -19 92 -94 96 -32 1 -69 -2 -82 -7z"/>
<path d="M717 1174 c-4 -4 -7 -101 -7 -216 l0 -209 38 3 37 3 3 88 3 87 29 0
29 0 3 -87 3 -88 38 -3 37 -3 -2 213 -3 213 -35 0 -35 0 -3 -87 -3 -88 -29 0
-29 0 -3 88 -3 87 -30 3 c-17 2 -34 0 -38 -4z"/>
<path d="M1023 1170 c-38 -16 -43 -42 -43 -210 0 -158 1 -161 25 -185 20 -21
34 -25 85 -25 51 0 65 4 85 25 25 24 25 27 25 188 0 201 -4 209 -96 214 -32 1
-69 -1 -81 -7z m95 -68 c9 -7 12 -42 10 -143 l-3 -134 -35 0 -35 0 -3 129 c-3
132 3 156 37 156 9 0 22 -4 29 -8z"/>
<path d="M1258 1174 c-5 -4 -8 -101 -8 -216 l0 -209 38 3 37 3 3 66 3 67 50 4
c77 8 84 20 84 143 0 134 -4 139 -118 143 -45 2 -85 0 -89 -4z m130 -141 c-3
-66 -4 -68 -30 -71 l-28 -3 0 70 0 71 30 0 31 0 -3 -67z"/>
</g>
</svg>
