<?xml version="1.0" standalone="no"?>
<!DOCTYPE svg PUBLIC "-//W3C//DTD SVG 20010904//EN"
 "http://www.w3.org/TR/2001/REC-SVG-20010904/DTD/svg10.dtd">
<svg version="1.0" xmlns="http://www.w3.org/2000/svg"
 width="192.000000pt" height="192.000000pt" viewBox="0 0 192.000000 192.000000"
 preserveAspectRatio="xMidYMid meet">
<metadata>
Created by potrace 1.16, written by Peter Selinger 2001-2019
</metadata>
<g transform="translate(0.000000,192.000000) scale(0.100000,-0.100000)"
fill="#000000" stroke="none">
811 c445 -92 729 -532 635 -987 -62 -301 -295 -546 -601 -630 -91 -26 -329
-26 -420 0 -291 80 -516 305 -596 596 -26 91 -26 329 0 420 120 433 542 692
982 601z"/>
<path d="M717 1330 c-46 -14 -93 -56 -116 -103 -19 -40 -21 -60 -21 -264 0
-211 1 -222 23 -264 13 -24 43 -57 66 -74 l43 -30 225 -3 225 -3 54 26 c41 20
61 38 82 73 27 46 27 50 30 242 2 107 1 213 -3 236 -9 62 -52 121 -109 149
-49 24 -56 25 -260 24 -116 0 -224 -5 -239 -9z m137 -126 c3 -9 6 -31 6 -50 0
-66 33 -103 92 -104 59 0 89 33 97 105 5 48 10 60 25 63 10 2 22 -2 27 -10 15
-22 9 -91 -10 -134 -51 -111 -218 -114 -273 -4 -18 34 -25 130 -11 143 12 13
41 7 47 -9z"/>
</g>
</svg>
