<?xml version="1.0" standalone="no"?>
<!DOCTYPE svg PUBLIC "-//W3C//DTD SVG 20010904//EN"
 "http://www.w3.org/TR/2001/REC-SVG-20010904/DTD/svg10.dtd">
<svg version="1.0" xmlns="http://www.w3.org/2000/svg"
 width="192.000000pt" height="192.000000pt" viewBox="0 0 192.000000 192.000000"
 preserveAspectRatio="xMidYMid meet">
<metadata>
Created by potrace 1.16, written by Peter Selinger 2001-2019
</metadata>
<g transform="translate(0.000000,192.000000) scale(0.100000,-0.100000)"
fill="#000000" stroke="none">
811 c445 -92 729 -532 635 -987 -62 -301 -295 -546 -601 -630 -91 -26 -329
-26 -420 0 -291 80 -516 305 -596 596 -26 91 -26 329 0 420 120 433 542 692
982 601z"/>
<path d="M886 1364 c-90 -28 -154 -81 -197 -166 -23 -44 -41 -131 -33 -153 10
-24 40 -17 53 12 62 137 229 195 366 128 63 -31 93 -28 131 10 34 34 30 52
-21 101 -32 31 -62 49 -111 63 -77 24 -120 25 -188 5z"/>
<path d="M904 1181 c-193 -49 -228 -310 -55 -405 112 -60 243 -18 303 98 31
61 23 161 -19 218 -50 70 -151 109 -229 89z"/>
<path d="M1195 866 c-61 -129 -232 -185 -363 -120 -59 29 -85 27 -125 -10 -35
-32 -34 -47 4 -90 77 -89 235 -118 349 -65 114 53 178 141 188 255 4 60 3 64
-16 64 -14 0 -26 -11 -37 -34z"/>
</g>
</svg>
