<?xml version="1.0" standalone="no"?>
<!DOCTYPE svg PUBLIC "-//W3C//DTD SVG 20010904//EN"
 "http://www.w3.org/TR/2001/REC-SVG-20010904/DTD/svg10.dtd">
<svg version="1.0" xmlns="http://www.w3.org/2000/svg"
 width="192.000000pt" height="192.000000pt" viewBox="0 0 192.000000 192.000000"
 preserveAspectRatio="xMidYMid meet">
<metadata>
Created by potrace 1.16, written by Peter Selinger 2001-2019
</metadata>
<g transform="translate(0.000000,192.000000) scale(0.100000,-0.100000)"
fill="#000000" stroke="none">
811 c445 -92 729 -532 635 -987 -62 -301 -295 -546 -601 -630 -91 -26 -329
-26 -420 0 -291 80 -516 305 -596 596 -26 91 -26 329 0 420 120 433 542 692
982 601z"/>
<path d="M893 1368 c-241 -27 -406 -280 -335 -515 94 -309 488 -394 706 -153
79 87 118 223 96 333 -44 224 -235 362 -467 335z m152 -155 c31 -10 67 -34 96
-63 85 -85 101 -203 43 -310 -64 -117 -225 -172 -336 -114 -15 8 -47 14 -71
14 -49 0 -57 9 -57 65 0 18 -7 49 -15 68 -18 43 -19 125 -3 179 21 70 100 145
178 169 43 13 115 10 165 -8z"/>
<path d="M872 1129 c-78 -39 -119 -133 -92 -213 35 -106 150 -162 248 -121
122 52 156 193 69 292 -58 65 -144 82 -225 42z"/>
</g>
</svg>
