<?xml version="1.0" standalone="no"?>
<!DOCTYPE svg PUBLIC "-//W3C//DTD SVG 20010904//EN"
 "http://www.w3.org/TR/2001/REC-SVG-20010904/DTD/svg10.dtd">
<svg version="1.0" xmlns="http://www.w3.org/2000/svg"
 width="192.000000pt" height="192.000000pt" viewBox="0 0 192.000000 192.000000"
 preserveAspectRatio="xMidYMid meet">
<metadata>
Created by potrace 1.16, written by Peter Selinger 2001-2019
</metadata>
<g transform="translate(0.000000,192.000000) scale(0.100000,-0.100000)"
fill="#000000" stroke="none">
810 c245 -63 441 -223 549 -451 55 -116 75 -212 75 -354 0 -141 -20 -238 -75
-352 -86 -182 -215 -312 -396 -398 -116 -55 -212 -75 -354 -75 -142 0 -238 20
-354 75 -228 108 -388 304 -451 549 -28 110 -28 292 0 402 76 298 303 526 600
603 106 28 298 28 406 1z"/>
<path d="M762 1237 l-112 -112 0 -247 c0 -241 1 -248 22 -268 21 -19 34 -20
284 -20 l263 0 20 26 c20 26 21 38 21 356 l0 329 -25 24 c-24 25 -27 25 -192
25 l-168 0 -113 -113z m76 -304 l-3 -78 -35 0 -35 0 -3 64 c-4 83 0 91 43 91
l36 0 -3 -77z m152 37 c0 -39 -1 -40 -35 -40 -34 0 -35 1 -35 40 0 39 1 40 35
40 34 0 35 -1 35 -40z m150 -40 l0 -80 -35 0 -35 0 0 80 0 80 35 0 35 0 0 -80z
m-150 -155 l0 -75 -35 0 -35 0 0 75 0 75 35 0 35 0 0 -75z m-150 -35 l0 -40
-40 0 -40 0 0 40 0 40 40 0 40 0 0 -40z m300 0 c0 -39 -1 -40 -35 -40 -34 0
-35 1 -35 40 0 39 1 40 35 40 34 0 35 -1 35 -40z"/>
</g>
</svg>
