<?xml version="1.0" standalone="no"?>
<!DOCTYPE svg PUBLIC "-//W3C//DTD SVG 20010904//EN"
 "http://www.w3.org/TR/2001/REC-SVG-20010904/DTD/svg10.dtd">
<svg version="1.0" xmlns="http://www.w3.org/2000/svg"
 width="192.000000pt" height="192.000000pt" viewBox="0 0 192.000000 192.000000"
 preserveAspectRatio="xMidYMid meet">
<metadata>
Created by potrace 1.16, written by Peter Selinger 2001-2019
</metadata>
<g transform="translate(0.000000,192.000000) scale(0.100000,-0.100000)"
fill="#000000" stroke="none">
810 c245 -63 441 -223 549 -451 55 -116 75 -212 75 -354 0 -141 -20 -238 -75
-352 -86 -182 -215 -312 -396 -398 -116 -55 -212 -75 -354 -75 -142 0 -238 20
-354 75 -228 108 -388 304 -451 549 -28 110 -28 292 0 402 76 298 303 526 600
603 106 28 298 28 406 1z"/>
<path d="M768 1233 l-118 -118 0 -243 c0 -228 1 -243 20 -262 11 -11 30 -22
43 -25 12 -3 130 -5 261 -3 l238 3 24 28 24 28 0 324 0 324 -24 28 -24 28
-164 3 -163 3 -117 -118z m72 -308 l0 -75 -40 0 -40 0 0 75 0 75 40 0 40 0 0
-75z m150 40 c0 -33 -2 -35 -35 -35 -33 0 -35 2 -35 35 0 33 2 35 35 35 33 0
35 -2 35 -35z m150 -40 l0 -75 -35 0 -35 0 0 75 0 75 35 0 35 0 0 -75z m-150
-150 l0 -75 -35 0 -35 0 0 75 0 75 35 0 35 0 0 -75z m-150 -40 c0 -34 -1 -35
-40 -35 -39 0 -40 1 -40 35 0 34 1 35 40 35 39 0 40 -1 40 -35z m300 0 c0 -33
-2 -35 -35 -35 -33 0 -35 2 -35 35 0 33 2 35 35 35 33 0 35 -2 35 -35z"/>
</g>
</svg>
