<?xml version="1.0" standalone="no"?>
<!DOCTYPE svg PUBLIC "-//W3C//DTD SVG 20010904//EN"
 "http://www.w3.org/TR/2001/REC-SVG-20010904/DTD/svg10.dtd">
<svg version="1.0" xmlns="http://www.w3.org/2000/svg"
 width="192.000000pt" height="192.000000pt" viewBox="0 0 192.000000 192.000000"
 preserveAspectRatio="xMidYMid meet">
<metadata>
Created by potrace 1.16, written by Peter Selinger 2001-2019
</metadata>
<g transform="translate(0.000000,192.000000) scale(0.100000,-0.100000)"
fill="#000000" stroke="none">
810 c245 -63 441 -223 549 -451 55 -116 75 -212 75 -354 0 -141 -20 -238 -75
-352 -86 -182 -215 -312 -396 -398 -116 -55 -212 -75 -354 -75 -142 0 -238 20
-354 75 -228 108 -388 304 -451 549 -28 110 -28 292 0 402 76 298 303 526 600
603 106 28 298 28 406 1z"/>
<path d="M762 1237 l-112 -112 0 -246 c0 -244 0 -246 23 -267 23 -21 30 -22
281 -22 l257 0 25 25 25 25 -3 336 -3 336 -24 19 c-21 17 -41 19 -190 19
l-166 0 -113 -113z m78 -307 l0 -80 -40 0 -40 0 0 80 0 80 40 0 40 0 0 -80z
m150 40 l0 -40 -40 0 c-39 0 -40 1 -40 33 0 19 3 37 7 40 3 4 21 7 40 7 32 0
33 -1 33 -40z m155 -40 l0 -75 -37 -3 -38 -3 0 81 0 81 38 -3 37 -3 0 -75z
m-155 -156 l0 -75 -37 3 -38 3 -3 73 -3 72 41 0 40 0 0 -76z m-150 -34 l0 -40
-40 0 -40 0 0 40 0 40 40 0 40 0 0 -40z m305 0 c0 -33 -2 -35 -37 -38 l-38 -3
0 41 0 41 38 -3 c35 -3 37 -5 37 -38z"/>
</g>
</svg>
