<?xml version="1.0" standalone="no"?>
<!DOCTYPE svg PUBLIC "-//W3C//DTD SVG 20010904//EN"
 "http://www.w3.org/TR/2001/REC-SVG-20010904/DTD/svg10.dtd">
<svg version="1.0" xmlns="http://www.w3.org/2000/svg"
 width="192.000000pt" height="192.000000pt" viewBox="0 0 192.000000 192.000000"
 preserveAspectRatio="xMidYMid meet">
<metadata>
Created by potrace 1.16, written by Peter Selinger 2001-2019
</metadata>
<g transform="translate(0.000000,192.000000) scale(0.100000,-0.100000)"
fill="#000000" stroke="none">
810 c245 -63 441 -223 549 -451 55 -116 75 -212 75 -354 0 -141 -20 -238 -75
-352 -86 -182 -215 -312 -396 -398 -116 -55 -212 -75 -354 -75 -142 0 -238 20
-354 75 -228 108 -388 304 -451 549 -28 110 -28 292 0 402 76 298 303 526 600
603 106 28 298 28 406 1z"/>
<path d="M762 1227 l-112 -112 0 -243 c0 -229 1 -243 20 -262 19 -19 33 -20
284 -20 l265 0 20 26 c20 26 21 38 21 349 0 311 -1 323 -21 349 l-20 26 -172
0 -172 0 -113 -113z m78 -302 l0 -75 -40 0 -40 0 0 75 0 75 40 0 40 0 0 -75z
m150 40 c0 -34 -1 -35 -40 -35 -39 0 -40 1 -40 35 0 34 1 35 40 35 39 0 40 -1
40 -35z m160 -40 l0 -75 -40 0 -40 0 0 75 0 75 40 0 40 0 0 -75z m-160 -150
l0 -75 -40 0 -40 0 0 75 0 75 40 0 40 0 0 -75z m-150 -35 l0 -40 -40 0 c-39 0
-40 1 -40 33 0 19 3 37 7 40 3 4 21 7 40 7 32 0 33 -1 33 -40z m308 -2 l3 -38
-40 0 -41 0 0 41 0 40 38 -3 c35 -3 37 -5 40 -40z"/>
</g>
</svg>
