<?xml version="1.0" standalone="no"?>
<!DOCTYPE svg PUBLIC "-//W3C//DTD SVG 20010904//EN"
 "http://www.w3.org/TR/2001/REC-SVG-20010904/DTD/svg10.dtd">
<svg version="1.0" xmlns="http://www.w3.org/2000/svg"
 width="192.000000pt" height="192.000000pt" viewBox="0 0 192.000000 192.000000"
 preserveAspectRatio="xMidYMid meet">
<metadata>
Created by potrace 1.16, written by Peter Selinger 2001-2019
</metadata>
<g transform="translate(0.000000,192.000000) scale(0.100000,-0.100000)"
fill="#000000" stroke="none">
811 c445 -92 729 -532 635 -987 -62 -301 -295 -546 -601 -630 -91 -26 -329
-26 -420 0 -291 80 -516 305 -596 596 -26 91 -26 329 0 420 120 433 542 692
982 601z"/>
<path d="M914 1360 c-76 -38 -106 -138 -64 -208 23 -38 65 -66 135 -88 170
-56 264 -156 283 -300 l8 -59 26 45 c149 255 -10 595 -293 625 -43 5 -62 2
-95 -15z"/>
<path d="M639 1220 c-101 -134 -115 -301 -38 -452 54 -105 183 -200 293 -213
120 -15 216 61 216 170 0 86 -58 146 -177 185 -158 51 -246 147 -261 283 l-7
62 -26 -35z"/>
</g>
</svg>
