<?xml version="1.0" standalone="no"?>
<!DOCTYPE svg PUBLIC "-//W3C//DTD SVG 20010904//EN"
 "http://www.w3.org/TR/2001/REC-SVG-20010904/DTD/svg10.dtd">
<svg version="1.0" xmlns="http://www.w3.org/2000/svg"
 width="192.000000pt" height="192.000000pt" viewBox="0 0 192.000000 192.000000"
 preserveAspectRatio="xMidYMid meet">
<metadata>
Created by potrace 1.16, written by Peter Selinger 2001-2019
</metadata>
<g transform="translate(0.000000,192.000000) scale(0.100000,-0.100000)"
fill="#000000" stroke="none">
811 c445 -92 729 -532 635 -987 -62 -301 -295 -546 -601 -630 -91 -26 -329
-26 -420 0 -291 80 -516 305 -596 596 -26 91 -26 329 0 420 120 433 542 692
982 601z"/>
<path d="M873 1351 c-217 -80 -307 -337 -189 -534 l34 -55 -34 -33 c-19 -18
-34 -38 -34 -45 0 -19 59 -64 117 -91 154 -71 353 -14 448 130 35 53 65 146
65 202 0 51 -29 147 -59 197 l-29 46 25 24 c43 40 47 57 23 83 -12 13 -49 38
-83 56 -54 29 -74 33 -147 36 -66 3 -97 -1 -137 -16z m255 -64 c31 -15 48 -31
50 -45 5 -33 -22 -37 -78 -13 -169 73 -354 -45 -354 -224 1 -41 8 -77 24 -114
22 -51 23 -54 6 -67 -26 -18 -39 -9 -65 44 -83 169 14 387 196 438 66 19 162
11 221 -19z m70 -234 c35 -75 37 -183 5 -255 -31 -69 -94 -131 -164 -163 -53
-23 -71 -27 -138 -23 -96 4 -171 37 -171 74 0 34 21 39 69 15 125 -64 279 -12
337 113 31 66 32 149 3 216 -24 55 -20 80 11 80 16 0 28 -14 48 -57z"/>
</g>
</svg>
