<?xml version="1.0" standalone="no"?>
<!DOCTYPE svg PUBLIC "-//W3C//DTD SVG 20010904//EN"
 "http://www.w3.org/TR/2001/REC-SVG-20010904/DTD/svg10.dtd">
<svg version="1.0" xmlns="http://www.w3.org/2000/svg"
 width="192.000000pt" height="192.000000pt" viewBox="0 0 192.000000 192.000000"
 preserveAspectRatio="xMidYMid meet">
<metadata>
Created by potrace 1.16, written by Peter Selinger 2001-2019
</metadata>
<g transform="translate(0.000000,192.000000) scale(0.100000,-0.100000)"
fill="#000000" stroke="none">
811 c445 -92 729 -532 635 -987 -62 -301 -295 -546 -601 -630 -91 -26 -329
-26 -420 0 -291 80 -516 305 -596 596 -26 91 -26 329 0 420 120 433 542 692
982 601z"/>
<path d="M596 1329 c-14 -11 -26 -30 -26 -43 0 -12 38 -77 85 -144 l86 -123
-85 -122 -86 -122 0 -71 c0 -56 4 -77 19 -95 l19 -24 328 -3 c223 -2 336 1
355 8 35 15 49 48 49 119 0 56 -3 62 -82 177 -45 65 -85 121 -90 122 -5 2 7
25 25 50 81 111 147 214 147 228 0 8 -11 26 -25 39 l-24 25 -334 0 c-323 0
-335 -1 -361 -21z m657 -60 c7 -12 -5 -36 -53 -105 -92 -131 -77 -124 -249
-124 -80 0 -151 4 -157 8 -19 13 -144 199 -144 215 0 8 6 18 13 20 6 3 140 5
296 4 245 -2 285 -4 294 -18z m-78 -376 c35 -49 65 -95 65 -103 0 -37 -18 -40
-281 -40 -326 0 -322 -2 -231 130 76 109 55 100 229 100 l153 0 65 -87z m-87
-212 c8 -4 12 -19 10 -32 -4 -29 -45 -34 -61 -7 -19 30 19 60 51 39z m133 -7
c17 -21 0 -49 -32 -49 -27 0 -37 28 -19 50 16 19 34 19 51 -1z"/>
<path d="M780 873 l-49 -68 115 -3 c63 -1 164 -1 225 0 l109 3 -42 60 c-23 33
-47 63 -53 67 -5 4 -65 8 -133 8 l-122 0 -50 -67z"/>
</g>
</svg>
