<?xml version="1.0" standalone="no"?>
<!DOCTYPE svg PUBLIC "-//W3C//DTD SVG 20010904//EN"
 "http://www.w3.org/TR/2001/REC-SVG-20010904/DTD/svg10.dtd">
<svg version="1.0" xmlns="http://www.w3.org/2000/svg"
 width="192.000000pt" height="192.000000pt" viewBox="0 0 192.000000 192.000000"
 preserveAspectRatio="xMidYMid meet">
<metadata>
Created by potrace 1.16, written by Peter Selinger 2001-2019
</metadata>
<g transform="translate(0.000000,192.000000) scale(0.100000,-0.100000)"
fill="#000000" stroke="none">
811 c445 -92 729 -532 635 -987 -62 -301 -295 -546 -601 -630 -91 -26 -329
-26 -420 0 -291 80 -516 305 -596 596 -26 91 -26 329 0 420 120 433 542 692
982 601z"/>
<path d="M816 1237 c-115 -59 -207 -113 -218 -127 -22 -31 -48 -160 -48 -243
0 -87 25 -196 51 -223 42 -44 76 -49 364 -49 288 0 302 2 348 52 41 46 59 239
34 359 -25 121 -56 140 -233 150 -128 6 -145 2 -159 -43 -4 -16 0 -29 17 -46
21 -21 37 -24 133 -30 68 -5 112 -12 116 -19 21 -33 23 -231 3 -282 -3 -8 -27
-16 -54 -20 -63 -8 -396 -8 -449 0 -37 6 -40 9 -46 46 -9 53 -9 161 0 226 6
48 10 54 48 76 249 141 348 202 353 219 7 21 -21 57 -45 57 -9 0 -106 -47
-215 -103z"/>
<path d="M768 865 c-8 -18 -9 -32 -2 -43 17 -28 95 -61 160 -68 104 -11 224
37 224 91 0 42 -22 50 -99 35 -65 -12 -128 -10 -233 6 -34 6 -39 3 -50 -21z"/>
</g>
</svg>
