<?xml version="1.0" standalone="no"?>
<!DOCTYPE svg PUBLIC "-//W3C//DTD SVG 20010904//EN"
 "http://www.w3.org/TR/2001/REC-SVG-20010904/DTD/svg10.dtd">
<svg version="1.0" xmlns="http://www.w3.org/2000/svg"
 width="192.000000pt" height="192.000000pt" viewBox="0 0 192.000000 192.000000"
 preserveAspectRatio="xMidYMid meet">
<metadata>
Created by potrace 1.16, written by Peter Selinger 2001-2019
</metadata>
<g transform="translate(0.000000,192.000000) scale(0.100000,-0.100000)"
fill="#000000" stroke="none">
811 c445 -92 729 -532 635 -987 -62 -301 -295 -546 -601 -630 -91 -26 -329
-26 -420 0 -291 80 -516 305 -596 596 -26 91 -26 329 0 420 120 433 542 692
982 601z"/>
<path d="M745 1355 c-25 -24 -25 -25 -25 -219 0 -107 3 -202 6 -211 14 -34 58
-45 189 -45 l126 0 -3 -77 -3 -78 -77 -3 c-72 -3 -77 -2 -83 20 -13 40 -36 58
-75 58 -60 0 -80 -30 -80 -123 0 -124 14 -130 268 -125 220 4 206 -12 210 243
l3 195 -30 30 -29 30 -131 0 -131 0 0 80 0 80 80 0 c72 0 80 -2 80 -19 0 -25
46 -61 77 -61 14 0 37 13 54 29 26 27 29 36 29 96 0 60 -3 69 -29 96 l-29 29
-187 0 c-184 0 -186 0 -210 -25z"/>
</g>
</svg>
