<?xml version="1.0" standalone="no"?>
<!DOCTYPE svg PUBLIC "-//W3C//DTD SVG 20010904//EN"
 "http://www.w3.org/TR/2001/REC-SVG-20010904/DTD/svg10.dtd">
<svg version="1.0" xmlns="http://www.w3.org/2000/svg"
 width="192.000000pt" height="192.000000pt" viewBox="0 0 192.000000 192.000000"
 preserveAspectRatio="xMidYMid meet">
<metadata>
Created by potrace 1.16, written by Peter Selinger 2001-2019
</metadata>
<g transform="translate(0.000000,192.000000) scale(0.100000,-0.100000)"
fill="#000000" stroke="none">
811 c445 -92 729 -532 635 -987 -62 -301 -295 -546 -601 -630 -91 -26 -329
-26 -420 0 -291 80 -516 305 -596 596 -26 91 -26 329 0 420 120 433 542 692
982 601z"/>
<path d="M695 1321 c-47 -22 -89 -64 -104 -104 -15 -38 -15 -466 0 -504 15
-40 57 -82 104 -104 35 -16 67 -19 260 -19 245 0 275 7 328 69 40 49 47 90 47
306 0 216 -7 257 -47 306 -53 62 -83 69 -328 69 -193 0 -225 -3 -260 -19z
m289 -167 c19 -18 19 -20 6 -45 -10 -17 -22 -19 -140 -19 l-130 0 -6 27 c-11
44 14 53 142 53 89 0 116 -3 128 -16z m100 -176 c8 -13 8 -23 0 -35 -10 -16
-32 -18 -179 -21 -172 -3 -195 2 -195 37 0 38 19 42 194 39 148 -3 170 -5 180
-20z m100 -154 c9 -8 16 -21 16 -28 0 -33 -23 -36 -245 -36 -227 0 -245 3
-245 40 0 37 18 40 241 40 184 0 220 -2 233 -16z"/>
</g>
</svg>
