<?xml version="1.0" standalone="no"?>
<!DOCTYPE svg PUBLIC "-//W3C//DTD SVG 20010904//EN"
 "http://www.w3.org/TR/2001/REC-SVG-20010904/DTD/svg10.dtd">
<svg version="1.0" xmlns="http://www.w3.org/2000/svg"
 width="192.000000pt" height="192.000000pt" viewBox="0 0 192.000000 192.000000"
 preserveAspectRatio="xMidYMid meet">
<metadata>
Created by potrace 1.16, written by Peter Selinger 2001-2019
</metadata>
<g transform="translate(0.000000,192.000000) scale(0.100000,-0.100000)"
fill="#000000" stroke="none">
811 c445 -92 729 -532 635 -987 -62 -301 -295 -546 -601 -630 -91 -26 -329
-26 -420 0 -291 80 -516 305 -596 596 -26 91 -26 329 0 420 120 433 542 692
982 601z"/>
<path d="M720 1329 c-52 -16 -95 -53 -120 -103 -20 -43 -21 -56 -18 -274 3
-223 4 -229 27 -264 13 -19 40 -46 59 -59 35 -24 38 -24 287 -24 249 0 252 0
287 24 19 13 46 40 59 59 24 35 24 38 24 278 l0 242 -30 43 c-55 77 -79 84
-325 86 -124 1 -230 -2 -250 -8z m327 -73 c56 13 95 18 101 12 15 -15 -37
-208 -56 -208 -8 0 -39 23 -68 50 -29 28 -60 50 -69 50 -9 0 -40 -22 -69 -50
-29 -27 -60 -50 -68 -50 -19 0 -71 189 -57 206 7 9 34 6 102 -10 l92 -22 92
22z m-62 -231 c0 -27 -3 -30 -30 -30 -21 0 -31 5 -33 18 -6 33 6 49 35 45 24
-3 28 -8 28 -33z m-11 -131 c22 -8 20 -51 -2 -63 -25 -13 -52 5 -52 34 0 29
22 41 54 29z m0 -160 c21 -8 21 -48 0 -65 -20 -17 -48 -1 -52 31 -5 31 19 47
52 34z"/>
</g>
</svg>
