<?xml version="1.0" standalone="no"?>
<!DOCTYPE svg PUBLIC "-//W3C//DTD SVG 20010904//EN"
 "http://www.w3.org/TR/2001/REC-SVG-20010904/DTD/svg10.dtd">
<svg version="1.0" xmlns="http://www.w3.org/2000/svg"
 width="192.000000pt" height="192.000000pt" viewBox="0 0 192.000000 192.000000"
 preserveAspectRatio="xMidYMid meet">
<metadata>
Created by potrace 1.16, written by Peter Selinger 2001-2019
</metadata>
<g transform="translate(0.000000,192.000000) scale(0.100000,-0.100000)"
fill="#000000" stroke="none">
811 c445 -92 729 -532 635 -987 -62 -301 -295 -546 -601 -630 -91 -26 -329
-26 -420 0 -291 80 -516 305 -596 596 -26 91 -26 329 0 420 120 433 542 692
982 601z"/>
<path d="M850 1365 c-114 -32 -207 -112 -262 -223 -31 -63 -33 -72 -33 -177 0
-104 2 -114 32 -176 60 -121 182 -211 311 -229 255 -35 480 179 459 437 -6 74
-25 105 -52 83 -9 -7 -13 -21 -10 -31 4 -11 6 -50 6 -87 0 -101 -30 -171 -103
-246 l-60 -61 -34 39 c-43 50 -74 133 -74 199 l1 52 20 -37 c25 -48 53 -50 68
-7 6 18 11 42 11 55 0 16 13 32 43 53 91 62 165 175 182 278 6 37 4 45 -20 69
-32 32 -67 28 -170 -20 -74 -35 -131 -84 -170 -146 -19 -30 -31 -38 -63 -44
-22 -3 -50 -14 -62 -24 l-23 -18 26 -20 c13 -10 33 -25 43 -32 16 -11 9 -12
-48 -8 -36 3 -84 12 -105 21 -53 22 -113 65 -113 81 0 23 103 119 155 144 43
22 64 25 160 26 90 0 110 3 113 16 2 8 -4 20 -12 27 -24 20 -153 23 -216 6z
m378 -101 c38 -26 20 -94 -25 -94 -25 0 -53 30 -53 56 0 19 32 54 50 54 3 0
16 -7 28 -16z"/>
</g>
</svg>
