<?xml version="1.0" standalone="no"?>
<!DOCTYPE svg PUBLIC "-//W3C//DTD SVG 20010904//EN"
 "http://www.w3.org/TR/2001/REC-SVG-20010904/DTD/svg10.dtd">
<svg version="1.0" xmlns="http://www.w3.org/2000/svg"
 width="192.000000pt" height="192.000000pt" viewBox="0 0 192.000000 192.000000"
 preserveAspectRatio="xMidYMid meet">
<metadata>
Created by potrace 1.16, written by Peter Selinger 2001-2019
</metadata>
<g transform="translate(0.000000,192.000000) scale(0.100000,-0.100000)"
fill="#000000" stroke="none">
811 c445 -92 729 -532 635 -987 -62 -301 -295 -546 -601 -630 -91 -26 -329
-26 -420 0 -291 80 -516 305 -596 596 -26 91 -26 329 0 420 120 433 542 692
982 601z"/>
<path d="M756 1369 c-109 -18 -216 -136 -216 -238 0 -37 17 -51 62 -51 33 0
41 -5 62 -39 14 -21 38 -45 54 -52 25 -11 31 -20 36 -58 7 -53 44 -119 86
-154 16 -14 30 -33 30 -42 0 -25 29 -88 53 -113 36 -39 91 -62 150 -62 29 0
58 5 65 12 7 7 12 33 12 59 0 56 10 62 116 63 101 1 104 5 104 135 0 140 -16
196 -75 255 -25 25 -54 47 -64 51 -14 4 -20 19 -26 60 -8 68 -48 125 -107 154
-35 17 -67 21 -168 25 -69 2 -147 0 -174 -5z m205 -87 c70 -78 10 -182 -103
-182 l-48 0 0 111 0 111 61 -4 c54 -4 66 -9 90 -36z m-211 -62 l0 -90 -79 0
-80 0 9 32 c15 51 57 106 97 127 21 11 41 20 46 21 4 0 7 -40 7 -90z m428
-136 c43 -18 88 -58 108 -96 9 -18 14 -61 14 -129 l0 -102 -57 6 c-50 5 -62
11 -86 39 -53 63 -67 106 -67 206 0 92 0 92 25 92 14 0 42 -7 63 -16z m-428
-24 c0 -23 -10 -26 -28 -8 -18 18 -15 28 8 28 13 0 20 -7 20 -20z m298 -376
c51 -6 52 -7 52 -40 0 -30 -3 -34 -25 -34 -40 0 -89 24 -118 59 -36 43 -34 53
6 36 19 -8 57 -17 85 -21z"/>
<path d="M875 1256 c-20 -15 -17 -44 7 -59 12 -8 21 -7 32 2 36 30 -1 85 -39
57z"/>
</g>
</svg>
