<?xml version="1.0" standalone="no"?>
<!DOCTYPE svg PUBLIC "-//W3C//DTD SVG 20010904//EN"
 "http://www.w3.org/TR/2001/REC-SVG-20010904/DTD/svg10.dtd">
<svg version="1.0" xmlns="http://www.w3.org/2000/svg"
 width="192.000000pt" height="192.000000pt" viewBox="0 0 192.000000 192.000000"
 preserveAspectRatio="xMidYMid meet">
<metadata>
Created by potrace 1.16, written by Peter Selinger 2001-2019
</metadata>
<g transform="translate(0.000000,192.000000) scale(0.100000,-0.100000)"
fill="#000000" stroke="none">
811 c445 -92 729 -532 635 -987 -62 -301 -295 -546 -601 -630 -91 -26 -329
-26 -420 0 -291 80 -516 305 -596 596 -26 91 -26 329 0 420 120 433 542 692
982 601z"/>
<path d="M1085 1360 c-15 -17 -16 -24 -7 -45 13 -28 58 -43 75 -26 9 9 8 17
-1 32 -12 19 -11 20 10 17 39 -5 35 -43 -11 -93 -45 -49 -50 -69 -22 -85 20
-10 81 -14 81 -5 0 3 -9 14 -20 25 -25 25 -25 48 0 80 42 53 12 120 -53 120
-21 0 -41 -8 -52 -20z"/>
<path d="M751 1296 c-8 -9 -24 -12 -49 -9 -45 6 -74 -14 -74 -49 0 -18 -8 -29
-24 -37 -19 -8 -24 -18 -24 -45 0 -38 20 -56 62 -56 17 0 41 -23 91 -82 37
-45 67 -87 67 -94 0 -19 -33 -27 -42 -10 -16 29 -40 46 -64 46 -26 0 -64 -32
-64 -53 0 -22 31 -57 50 -57 16 0 19 -5 13 -30 -4 -22 0 -36 12 -50 40 -44
114 -9 101 47 -12 50 -11 57 5 61 12 2 22 -10 33 -40 53 -141 28 -243 -46
-188 -16 12 -32 19 -36 16 -3 -3 -16 3 -28 15 -24 22 -54 20 -54 -4 0 -8 -12
-19 -26 -25 -21 -10 -25 -18 -22 -44 4 -39 35 -52 40 -17 2 12 9 24 16 27 7 2
11 -2 10 -9 -2 -8 17 -24 42 -36 99 -50 161 -17 204 110 6 17 8 17 47 -5 23
-13 53 -38 67 -55 13 -18 29 -33 35 -33 6 0 21 -10 34 -21 18 -18 25 -20 38
-9 8 7 12 16 9 21 -3 5 4 9 14 9 27 0 44 24 40 56 -4 37 -25 42 -38 10 -5 -14
-14 -26 -20 -26 -6 0 -8 5 -5 10 10 17 -23 59 -59 77 -32 15 -33 16 -19 44 8
16 13 46 11 66 -3 35 -1 38 27 43 21 4 31 12 33 27 2 14 12 23 25 25 14 2 29
17 40 39 13 27 29 41 62 54 25 9 45 21 45 26 0 13 1 13 -88 -25 -127 -55 -209
-77 -241 -65 -14 6 -43 8 -64 5 -27 -5 -42 -2 -53 9 -14 13 -12 15 19 15 23 0
37 6 41 16 9 24 7 31 -11 38 -10 3 -25 11 -34 17 -17 13 -40 4 -104 -36 -25
-17 -28 -17 -16 -2 7 9 10 24 7 33 -5 13 -4 14 7 5 11 -8 23 -7 51 4 21 9 36
19 34 23 -53 102 -60 123 -44 141 21 24 20 47 -4 71 -23 23 -62 26 -79 6z m99
-306 c12 -8 11 -10 -7 -10 -13 0 -23 5 -23 10 0 13 11 13 30 0z m-140 -85 c0
-8 -7 -15 -15 -15 -8 0 -15 7 -15 15 0 8 7 15 15 15 8 0 15 -7 15 -15z m54
-100 c-1 -18 -34 -18 -34 0 0 10 7 15 18 13 9 -2 17 -8 16 -13z"/>
<path d="M1036 1267 c-22 -16 -18 -63 5 -61 12 1 15 -8 15 -40 -1 -39 1 -41
29 -43 27 -2 28 -2 8 7 -28 12 -29 26 -3 65 25 37 25 40 0 65 -24 24 -30 24
-54 7z"/>
<path d="M967 1153 c-12 -11 -8 -40 7 -52 11 -9 18 -8 30 4 15 15 16 15 16 -5
0 -12 5 -18 10 -15 17 11 11 54 -9 65 -23 12 -45 13 -54 3z"/>
<path d="M1195 1138 c-95 -33 -175 -72 -175 -84 0 -24 61 -54 110 -54 66 0
110 38 117 103 6 52 3 54 -52 35z"/>
</g>
</svg>
