<?xml version="1.0" standalone="no"?>
<!DOCTYPE svg PUBLIC "-//W3C//DTD SVG 20010904//EN"
 "http://www.w3.org/TR/2001/REC-SVG-20010904/DTD/svg10.dtd">
<svg version="1.0" xmlns="http://www.w3.org/2000/svg"
 width="192.000000pt" height="192.000000pt" viewBox="0 0 192.000000 192.000000"
 preserveAspectRatio="xMidYMid meet">
<metadata>
Created by potrace 1.16, written by Peter Selinger 2001-2019
</metadata>
<g transform="translate(0.000000,192.000000) scale(0.100000,-0.100000)"
fill="#000000" stroke="none">
811 c445 -92 729 -532 635 -987 -62 -301 -295 -546 -601 -630 -91 -26 -329
-26 -420 0 -291 80 -516 305 -596 596 -26 91 -26 329 0 420 120 433 542 692
982 601z"/>
<path d="M892 1348 c-52 -8 -125 -39 -136 -57 -13 -21 18 -22 64 -2 78 33 154
37 225 11 84 -30 105 -34 105 -21 0 6 -15 20 -32 31 -59 36 -145 51 -226 38z"/>
<path d="M875 1267 c-54 -22 -68 -34 -62 -51 6 -15 10 -15 46 4 53 26 129 26
181 0 48 -25 50 -25 50 -1 0 43 -148 76 -215 48z"/>
<path d="M894 1186 c-37 -16 -50 -34 -36 -48 6 -6 20 -4 40 6 39 20 75 20 111
1 29 -14 41 -11 41 11 0 16 -61 44 -97 44 -15 -1 -42 -7 -59 -14z"/>
<path d="M590 1073 c-52 -19 -68 -81 -27 -107 12 -8 41 -19 65 -26 25 -6 42
-17 42 -25 0 -17 -31 -20 -47 -4 -5 5 -30 9 -53 7 l-44 -3 25 -28 c57 -65 209
-38 209 37 0 34 -23 53 -86 72 -57 16 -72 34 -29 34 14 0 25 -4 25 -10 0 -5
18 -10 40 -10 48 0 53 18 14 49 -26 21 -96 28 -134 14z"/>
<path d="M766 1068 c4 -7 21 -32 37 -55 l30 -42 -37 -49 c-20 -27 -36 -52 -36
-56 0 -3 20 -6 45 -6 39 0 47 4 57 25 6 14 14 25 18 25 4 0 12 -11 18 -25 11
-24 15 -25 106 -25 l95 0 3 73 c3 66 5 72 26 75 21 3 22 0 22 -72 l0 -76 45 0
45 0 0 76 c0 72 1 75 23 72 20 -3 22 -9 25 -75 l3 -73 39 0 40 0 0 88 c0 80
-2 91 -23 110 -27 26 -73 29 -98 6 -16 -15 -20 -15 -41 0 -29 20 -67 20 -96 0
-20 -14 -22 -14 -22 1 0 13 -8 16 -37 13 l-38 -3 -5 -105 -5 -105 -32 51 c-18
28 -33 55 -33 60 0 5 14 27 30 48 17 22 30 43 30 48 0 4 -20 8 -43 8 -38 0
-45 -4 -56 -27 -12 -27 -13 -27 -27 -8 -8 10 -14 22 -14 27 0 4 -23 8 -51 8
-37 0 -48 -3 -43 -12z"/>
<path d="M856 781 c-10 -16 54 -51 92 -51 45 0 102 25 102 46 0 13 -5 15 -22
8 -29 -10 -116 -10 -144 0 -13 5 -24 3 -28 -3z"/>
<path d="M810 707 c0 -39 112 -73 186 -57 58 13 110 48 95 63 -8 8 -21 6 -46
-6 -56 -27 -105 -31 -155 -12 -76 28 -80 28 -80 12z"/>
<path d="M756 652 c-9 -15 9 -31 59 -54 75 -34 199 -33 278 4 54 25 68 40 49
52 -5 3 -37 -6 -72 -20 -80 -33 -179 -31 -251 4 -50 24 -56 26 -63 14z"/>
</g>
</svg>
