<?xml version="1.0" standalone="no"?>
<!DOCTYPE svg PUBLIC "-//W3C//DTD SVG 20010904//EN"
 "http://www.w3.org/TR/2001/REC-SVG-20010904/DTD/svg10.dtd">
<svg version="1.0" xmlns="http://www.w3.org/2000/svg"
 width="192.000000pt" height="192.000000pt" viewBox="0 0 192.000000 192.000000"
 preserveAspectRatio="xMidYMid meet">
<metadata>
Created by potrace 1.16, written by Peter Selinger 2001-2019
</metadata>
<g transform="translate(0.000000,192.000000) scale(0.100000,-0.100000)"
fill="#000000" stroke="none">
811 c445 -92 729 -532 635 -987 -62 -301 -295 -546 -601 -630 -91 -26 -329
-26 -420 0 -291 80 -516 305 -596 596 -26 91 -26 329 0 420 120 433 542 692
982 601z"/>
<path d="M894 1296 c-12 -31 0 -51 31 -51 27 0 30 3 30 30 0 25 -4 30 -28 33
-17 2 -29 -2 -33 -12z"/>
<path d="M556 1188 c-33 -46 -14 -91 44 -106 39 -9 55 -42 21 -42 -12 0 -21 6
-21 15 0 9 -9 15 -25 15 -19 0 -25 -5 -25 -23 0 -34 19 -47 70 -47 56 0 70 12
70 61 0 41 -13 56 -58 65 -35 7 -44 34 -12 34 12 0 20 -7 20 -16 0 -24 44 -13
48 12 5 33 -24 54 -73 54 -34 0 -47 -5 -59 -22z"/>
<path d="M727 1204 c-4 -4 -7 -52 -7 -106 0 -98 0 -98 25 -98 23 0 25 4 25 40
0 22 5 40 11 40 6 0 18 -18 26 -40 12 -31 21 -40 40 -40 27 0 29 14 7 65 -14
34 -14 41 0 83 25 73 -20 89 -50 17 -19 -45 -32 -44 -36 2 -3 36 -23 54 -41
37z"/>
<path d="M907 1204 c-4 -4 -7 -52 -7 -106 l0 -98 25 0 26 0 -3 102 c-2 83 -6
103 -18 106 -9 1 -19 0 -23 -4z"/>
<path d="M977 1203 c-4 -3 -7 -51 -7 -105 l0 -98 64 0 c67 0 80 7 70 34 -4 10
-18 16 -40 16 l-34 0 0 64 c0 35 -3 71 -6 80 -6 16 -35 22 -47 9z"/>
<path d="M1125 1188 c-3 -13 -5 -59 -3 -103 l3 -80 65 0 c58 0 65 2 65 20 0
16 -8 21 -37 23 l-37 3 -3 77 c-3 71 -5 77 -25 80 -16 2 -24 -3 -28 -20z"/>
<path d="M560 950 c-40 -40 -21 -90 43 -110 39 -12 51 -40 17 -40 -11 0 -20 7
-20 15 0 9 -10 15 -26 15 -22 0 -25 -4 -22 -32 2 -26 9 -33 33 -40 74 -20 111
9 103 78 -2 24 -10 32 -45 44 -44 15 -58 40 -23 40 11 0 20 -7 20 -15 0 -9 9
-15 25 -15 20 0 25 5 25 24 0 51 -90 76 -130 36z"/>
<path d="M723 963 c-9 -3 -13 -34 -13 -104 l0 -100 28 3 c23 3 27 8 30 41 3
29 7 37 23 37 16 0 19 -7 19 -40 0 -36 3 -40 25 -40 25 0 25 0 25 99 0 55 -4
102 -9 105 -22 14 -41 -7 -41 -45 0 -32 -3 -39 -20 -39 -16 0 -20 7 -20 33 0
18 -5 38 -12 45 -13 13 -16 13 -35 5z"/>
<path d="M944 962 c-11 -6 -64 -166 -64 -191 0 -17 50 -13 56 4 4 9 19 15 35
15 19 0 29 -5 29 -15 0 -9 9 -15 25 -15 32 0 32 13 0 114 -28 90 -47 111 -81
88z m36 -114 c0 -5 -4 -8 -10 -8 -5 0 -10 10 -10 23 0 18 2 19 10 7 5 -8 10
-18 10 -22z"/>
<path d="M1078 964 c-5 -4 -8 -52 -8 -106 0 -98 0 -98 25 -98 21 0 25 5 25 30
0 17 4 30 9 30 5 0 14 -13 21 -30 9 -21 19 -30 36 -30 26 0 30 11 14 41 -8 15
-7 23 5 35 18 19 20 84 3 107 -14 18 -117 35 -130 21z m82 -74 c0 -23 -4 -30
-20 -30 -16 0 -20 7 -20 30 0 23 4 30 20 30 16 0 20 -7 20 -30z"/>
<path d="M1243 963 c-9 -3 -13 -34 -13 -104 l0 -99 70 0 c63 0 70 2 70 20 0
17 -7 20 -40 20 -33 0 -40 3 -40 20 0 15 7 20 29 20 17 0 33 5 36 10 10 16
-15 40 -41 40 -15 0 -24 6 -24 15 0 10 10 15 34 15 39 0 53 14 36 35 -12 15
-89 20 -117 8z"/>
<path d="M1303 704 c-18 -8 -16 -49 3 -65 23 -19 49 1 49 37 0 29 -22 40 -52
28z"/>
</g>
</svg>
