<?xml version="1.0" standalone="no"?>
<!DOCTYPE svg PUBLIC "-//W3C//DTD SVG 20010904//EN"
 "http://www.w3.org/TR/2001/REC-SVG-20010904/DTD/svg10.dtd">
<svg version="1.0" xmlns="http://www.w3.org/2000/svg"
 width="192.000000pt" height="192.000000pt" viewBox="0 0 192.000000 192.000000"
 preserveAspectRatio="xMidYMid meet">
<metadata>
Created by potrace 1.16, written by Peter Selinger 2001-2019
</metadata>
<g transform="translate(0.000000,192.000000) scale(0.100000,-0.100000)"
fill="#000000" stroke="none">
811 c445 -92 729 -532 635 -987 -62 -301 -295 -546 -601 -630 -91 -26 -329
-26 -420 0 -291 80 -516 305 -596 596 -26 91 -26 329 0 420 120 433 542 692
982 601z"/>
<path d="M675 1120 c-44 -22 -75 -64 -75 -103 0 -13 14 -41 30 -62 17 -21 30
-43 30 -50 0 -24 -29 -37 -65 -31 -32 6 -35 5 -43 -26 -7 -26 -5 -35 7 -42 25
-15 106 -11 132 6 28 18 45 18 41 1 -2 -9 11 -13 41 -13 42 0 44 1 56 40 14
47 28 51 37 13 3 -16 7 -34 10 -40 2 -9 29 -13 87 -13 l83 0 43 148 c24 81 46
155 49 165 4 14 -3 17 -39 17 l-44 0 -18 -63 c-74 -253 -74 -253 -96 -148
l-11 53 47 66 c71 98 70 92 21 92 -38 0 -46 -4 -66 -35 -26 -42 -46 -47 -32
-9 16 40 13 44 -33 44 l-42 0 -23 -83 c-25 -90 -40 -121 -49 -99 -3 7 -16 26
-29 41 -41 49 -25 89 31 75 18 -5 24 0 33 25 9 27 8 32 -8 41 -28 15 -61 12
-105 -10z"/>
<path d="M1160 1104 c0 -14 -18 -85 -40 -159 -22 -74 -40 -137 -40 -140 0 -3
19 -5 42 -3 37 3 42 6 53 38 10 30 17 35 46 38 76 6 111 37 139 125 14 44 7
80 -20 107 -17 17 -34 20 -100 20 -79 0 -80 0 -80 -26z m120 -69 c0 -39 -27
-85 -50 -85 -24 0 -24 4 -4 63 11 34 21 47 35 47 14 0 19 -7 19 -25z"/>
</g>
</svg>
