<?xml version="1.0" standalone="no"?>
<!DOCTYPE svg PUBLIC "-//W3C//DTD SVG 20010904//EN"
 "http://www.w3.org/TR/2001/REC-SVG-20010904/DTD/svg10.dtd">
<svg version="1.0" xmlns="http://www.w3.org/2000/svg"
 width="192.000000pt" height="192.000000pt" viewBox="0 0 192.000000 192.000000"
 preserveAspectRatio="xMidYMid meet">
<metadata>
Created by potrace 1.16, written by Peter Selinger 2001-2019
</metadata>
<g transform="translate(0.000000,192.000000) scale(0.100000,-0.100000)"
fill="#000000" stroke="none">
811 c445 -92 729 -532 635 -987 -62 -301 -295 -546 -601 -630 -91 -26 -329
-26 -420 0 -291 80 -516 305 -596 596 -26 91 -26 329 0 420 120 433 542 692
982 601z"/>
<path d="M793 1276 c-135 -67 -215 -111 -223 -125 -9 -18 -4 -37 36 -124 25
-56 51 -108 56 -114 8 -9 54 -13 167 -14 l156 0 -112 -54 c-139 -66 -141 -71
-88 -190 41 -92 53 -108 88 -107 12 0 120 47 239 105 184 89 218 109 224 131
4 18 -7 53 -44 130 l-51 105 -163 3 -163 3 105 51 c58 28 111 58 119 67 22 28
16 59 -30 148 -39 75 -47 84 -74 86 -21 1 -96 -30 -242 -101z"/>
</g>
</svg>
