<?xml version="1.0" standalone="no"?>
<!DOCTYPE svg PUBLIC "-//W3C//DTD SVG 20010904//EN"
 "http://www.w3.org/TR/2001/REC-SVG-20010904/DTD/svg10.dtd">
<svg version="1.0" xmlns="http://www.w3.org/2000/svg"
 width="192.000000pt" height="192.000000pt" viewBox="0 0 192.000000 192.000000"
 preserveAspectRatio="xMidYMid meet">
<metadata>
Created by potrace 1.16, written by Peter Selinger 2001-2019
</metadata>
<g transform="translate(0.000000,192.000000) scale(0.100000,-0.100000)"
fill="#000000" stroke="none">
811 c445 -92 729 -532 635 -987 -62 -301 -295 -546 -601 -630 -91 -26 -329
-26 -420 0 -291 80 -516 305 -596 596 -26 91 -26 329 0 420 120 433 542 692
982 601z"/>
<path d="M849 1362 c-158 -42 -271 -167 -301 -332 -30 -171 66 -352 231 -433
62 -30 72 -32 176 -32 100 0 115 2 167 28 85 42 159 114 199 194 33 65 34 73
34 178 0 105 -2 114 -33 177 -57 116 -165 200 -290 227 -70 15 -104 13 -183
-7z m240 -117 c144 -73 207 -230 155 -387 -24 -74 -109 -158 -184 -183 -197
-65 -395 60 -416 263 -25 238 232 415 445 307z"/>
<path d="M849 1162 c-138 -72 -160 -258 -43 -361 79 -69 179 -77 267 -21 115
72 138 227 49 330 -71 83 -175 103 -273 52z m175 -93 c56 -44 70 -110 36 -166
-48 -79 -150 -82 -209 -7 -40 51 -20 148 37 178 40 22 104 20 136 -5z"/>
<path d="M916 1004 c-22 -21 -20 -57 4 -79 46 -41 116 29 75 75 -22 24 -58 26
-79 4z"/>
</g>
</svg>
