<?xml version="1.0" standalone="no"?>
<!DOCTYPE svg PUBLIC "-//W3C//DTD SVG 20010904//EN"
 "http://www.w3.org/TR/2001/REC-SVG-20010904/DTD/svg10.dtd">
<svg version="1.0" xmlns="http://www.w3.org/2000/svg"
 width="192.000000pt" height="192.000000pt" viewBox="0 0 192.000000 192.000000"
 preserveAspectRatio="xMidYMid meet">
<metadata>
Created by potrace 1.16, written by Peter Selinger 2001-2019
</metadata>
<g transform="translate(0.000000,192.000000) scale(0.100000,-0.100000)"
fill="#000000" stroke="none">
811 c445 -92 729 -532 635 -987 -62 -301 -295 -546 -601 -630 -91 -26 -329
-26 -420 0 -291 80 -516 305 -596 596 -26 91 -26 329 0 420 120 433 542 692
982 601z"/>
<path d="M1122 1101 c-8 -4 -12 -19 -10 -32 2 -18 9 -24 28 -24 19 0 26 6 28
24 3 20 -11 41 -28 41 -3 0 -11 -4 -18 -9z"/>
<path d="M585 1078 c-31 -17 -45 -39 -45 -74 0 -36 37 -74 74 -74 32 0 50 -15
42 -35 -5 -15 -15 -17 -61 -11 l-55 6 0 -29 c0 -27 3 -29 54 -35 88 -11 149
24 149 86 0 38 -42 78 -82 78 -35 0 -62 26 -37 36 9 4 37 4 61 1 44 -4 45 -4
45 23 0 16 -7 30 -16 34 -25 10 -107 6 -129 -6z"/>
<path d="M783 1080 c-22 -9 -23 -14 -23 -130 l0 -120 34 0 c35 0 50 17 40 45
-4 8 -2 15 4 15 6 0 13 -13 17 -30 6 -28 10 -30 51 -30 50 0 54 9 23 59 l-21
34 27 49 26 48 -40 0 c-31 0 -43 -6 -60 -27 l-20 -28 -1 63 c0 67 -6 72 -57
52z"/>
<path d="M1228 1083 c-16 -4 -18 -19 -18 -129 l0 -124 35 0 35 0 0 130 c0 140
1 137 -52 123z"/>
<path d="M1328 1083 c-16 -4 -18 -19 -18 -129 l0 -124 35 0 35 0 0 130 c0 140
1 137 -52 123z"/>
<path d="M995 995 c-22 -21 -25 -33 -25 -95 l0 -70 35 0 35 0 0 60 c0 49 3 61
20 70 12 6 20 21 20 35 0 21 -5 25 -30 25 -19 0 -40 -9 -55 -25z"/>
<path d="M1110 925 l0 -95 35 0 35 0 0 95 0 95 -35 0 -35 0 0 -95z"/>
</g>
</svg>
