<?xml version="1.0" standalone="no"?>
<!DOCTYPE svg PUBLIC "-//W3C//DTD SVG 20010904//EN"
 "http://www.w3.org/TR/2001/REC-SVG-20010904/DTD/svg10.dtd">
<svg version="1.0" xmlns="http://www.w3.org/2000/svg"
 width="192.000000pt" height="192.000000pt" viewBox="0 0 192.000000 192.000000"
 preserveAspectRatio="xMidYMid meet">
<metadata>
Created by potrace 1.16, written by Peter Selinger 2001-2019
</metadata>
<g transform="translate(0.000000,192.000000) scale(0.100000,-0.100000)"
fill="#000000" stroke="none">
811 c445 -92 729 -532 635 -987 -62 -301 -295 -546 -601 -630 -91 -26 -329
-26 -420 0 -291 80 -516 305 -596 596 -26 91 -26 329 0 420 120 433 542 692
982 601z"/>
<path d="M805 1327 c-51 -30 -95 -63 -102 -77 -8 -16 -13 -70 -13 -151 0 -104
3 -129 16 -140 9 -7 69 -43 133 -80 l116 -66 3 -122 c3 -118 3 -122 27 -133
21 -9 35 -4 112 39 115 65 123 80 123 228 0 81 -4 116 -15 132 -8 11 -69 51
-135 89 l-120 68 0 117 c0 110 -1 119 -22 133 -12 9 -25 16 -28 16 -3 0 -45
-24 -95 -53z"/>
<path d="M981 1352 c-17 -31 -3 -51 42 -63 123 -33 214 -117 248 -231 25 -82
21 -151 -13 -230 -24 -57 -17 -83 23 -83 19 0 29 11 47 46 73 147 40 337 -80
459 -52 53 -150 106 -215 116 -35 5 -43 3 -52 -14z"/>
<path d="M596 1168 c-40 -61 -50 -103 -51 -203 0 -92 3 -105 32 -167 61 -129
193 -231 300 -232 84 -1 80 64 -5 78 -96 15 -208 121 -238 225 -21 72 -14 170
16 235 17 36 21 53 13 65 -16 26 -50 25 -67 -1z"/>
</g>
</svg>
