<?xml version="1.0" standalone="no"?>
<!DOCTYPE svg PUBLIC "-//W3C//DTD SVG 20010904//EN"
 "http://www.w3.org/TR/2001/REC-SVG-20010904/DTD/svg10.dtd">
<svg version="1.0" xmlns="http://www.w3.org/2000/svg"
 width="192.000000pt" height="192.000000pt" viewBox="0 0 192.000000 192.000000"
 preserveAspectRatio="xMidYMid meet">
<metadata>
Created by potrace 1.16, written by Peter Selinger 2001-2019
</metadata>
<g transform="translate(0.000000,192.000000) scale(0.100000,-0.100000)"
fill="#000000" stroke="none">
811 c445 -92 729 -532 635 -987 -62 -301 -295 -546 -601 -630 -91 -26 -329
-26 -420 0 -291 80 -516 305 -596 596 -26 91 -26 329 0 420 120 433 542 692
982 601z"/>
<path d="M778 1356 c-100 -36 -173 -100 -203 -180 -26 -67 -10 -112 57 -168
73 -61 108 -98 108 -115 0 -26 -54 -69 -110 -88 -64 -21 -64 -21 -56 -34 16
-25 213 56 256 106 37 42 37 68 0 117 -17 22 -30 50 -30 62 0 27 40 62 128
110 117 65 136 96 87 148 -50 53 -153 72 -237 42z"/>
<path d="M1022 1190 c-18 -11 -41 -34 -51 -51 -21 -34 -101 -310 -101 -346 0
-37 18 -26 41 25 12 26 23 42 26 35 7 -19 71 -55 84 -48 7 5 1 17 -16 35 -30
31 -26 50 9 50 67 0 106 37 106 100 0 37 -22 39 -82 9 l-41 -21 28 49 c16 26
37 62 47 78 22 38 24 91 2 99 -20 8 -14 9 -52 -14z"/>
<path d="M1176 1021 c-42 -44 -46 -103 -12 -177 15 -32 32 -62 39 -66 16 -10
-34 -70 -111 -133 -88 -73 -78 -119 13 -59 59 39 102 82 150 149 92 129 117
219 39 144 -18 -18 -36 -30 -40 -27 -3 3 0 42 7 86 10 66 10 84 -1 96 -19 24
-53 19 -84 -13z"/>
</g>
</svg>
