<?xml version="1.0" standalone="no"?>
<!DOCTYPE svg PUBLIC "-//W3C//DTD SVG 20010904//EN"
 "http://www.w3.org/TR/2001/REC-SVG-20010904/DTD/svg10.dtd">
<svg version="1.0" xmlns="http://www.w3.org/2000/svg"
 width="192.000000pt" height="192.000000pt" viewBox="0 0 192.000000 192.000000"
 preserveAspectRatio="xMidYMid meet">
<metadata>
Created by potrace 1.16, written by Peter Selinger 2001-2019
</metadata>
<g transform="translate(0.000000,192.000000) scale(0.100000,-0.100000)"
fill="#000000" stroke="none">
811 c445 -92 729 -532 635 -987 -62 -301 -295 -546 -601 -630 -91 -26 -329
-26 -420 0 -291 80 -516 305 -596 596 -26 91 -26 329 0 420 120 433 542 692
982 601z"/>
<path d="M839 1193 c-10 -11 -15 -58 -17 -167 -4 -174 3 -206 46 -206 41 0 52
17 52 79 l0 56 45 -67 c34 -51 51 -68 76 -73 22 -5 36 -3 47 8 14 15 13 20
-10 54 -64 99 -61 86 -29 117 l29 28 52 -77 52 -78 -27 -58 c-24 -48 -26 -61
-15 -74 15 -18 54 -20 68 -2 6 7 45 86 86 175 63 135 74 167 65 183 -7 14 -19
19 -37 17 -22 -2 -33 -15 -60 -67 -18 -36 -34 -67 -37 -69 -2 -2 -23 25 -45
61 -44 69 -81 94 -122 82 -13 -4 -49 -35 -80 -68 l-58 -62 0 93 c0 51 -5 102
-10 113 -13 23 -53 25 -71 2z"/>
<path d="M615 1105 c-49 -18 -65 -38 -65 -86 0 -48 31 -74 105 -89 80 -17 78
-30 -4 -30 -60 0 -72 -3 -85 -22 -23 -32 -5 -54 49 -62 110 -17 195 24 195 94
0 51 -40 85 -110 95 -73 10 -72 25 3 25 70 0 91 12 85 52 -5 37 -98 50 -173
23z"/>
</g>
</svg>
