<?xml version="1.0" standalone="no"?>
<!DOCTYPE svg PUBLIC "-//W3C//DTD SVG 20010904//EN"
 "http://www.w3.org/TR/2001/REC-SVG-20010904/DTD/svg10.dtd">
<svg version="1.0" xmlns="http://www.w3.org/2000/svg"
 width="192.000000pt" height="192.000000pt" viewBox="0 0 192.000000 192.000000"
 preserveAspectRatio="xMidYMid meet">
<metadata>
Created by potrace 1.16, written by Peter Selinger 2001-2019
</metadata>
<g transform="translate(0.000000,192.000000) scale(0.100000,-0.100000)"
fill="#000000" stroke="none">
811 c445 -92 729 -532 635 -987 -62 -301 -295 -546 -601 -630 -91 -26 -329
-26 -420 0 -291 80 -516 305 -596 596 -26 91 -26 329 0 420 120 433 542 692
982 601z"/>
<path d="M707 1325 c-95 -33 -126 -96 -127 -252 l0 -113 83 0 84 0 49 132 c48
129 72 164 94 142 7 -7 34 -103 61 -215 27 -111 51 -204 52 -206 2 -1 21 28
42 65 22 37 44 70 50 74 5 4 61 8 123 8 l112 0 0 101 c0 56 -6 120 -12 143
-16 52 -72 108 -124 124 -60 17 -436 16 -487 -3z"/>
<path d="M830 1002 c-19 -53 -41 -97 -51 -102 -10 -6 -58 -10 -108 -10 l-91 0
0 -72 c1 -117 49 -193 138 -218 53 -14 425 -13 476 2 52 16 108 72 124 124 6
23 12 69 12 103 l0 61 -102 0 -103 0 -55 -98 c-47 -81 -60 -97 -80 -97 -24 0
-27 7 -71 185 -25 102 -48 192 -50 200 -3 8 -21 -27 -39 -78z"/>
</g>
</svg>
