<?xml version="1.0" standalone="no"?>
<!DOCTYPE svg PUBLIC "-//W3C//DTD SVG 20010904//EN"
 "http://www.w3.org/TR/2001/REC-SVG-20010904/DTD/svg10.dtd">
<svg version="1.0" xmlns="http://www.w3.org/2000/svg"
 width="192.000000pt" height="192.000000pt" viewBox="0 0 192.000000 192.000000"
 preserveAspectRatio="xMidYMid meet">
<metadata>
Created by potrace 1.16, written by Peter Selinger 2001-2019
</metadata>
<g transform="translate(0.000000,192.000000) scale(0.100000,-0.100000)"
fill="#000000" stroke="none">
811 c445 -92 729 -532 635 -987 -62 -301 -295 -546 -601 -630 -91 -26 -329
-26 -420 0 -291 80 -516 305 -596 596 -26 91 -26 329 0 420 120 433 542 692
982 601z"/>
<path d="M765 1379 c-19 -5 -68 -46 -122 -102 -125 -127 -132 -166 -46 -258
l45 -48 -46 -53 c-82 -94 -76 -135 37 -254 44 -47 93 -92 108 -100 60 -31 124
-10 181 58 l27 33 43 -41 c54 -52 77 -64 124 -64 35 0 47 9 141 103 l103 103
0 53 c0 49 -3 56 -49 104 l-49 52 48 52 c85 92 75 141 -53 269 -97 96 -123
109 -181 93 -17 -5 -51 -29 -76 -54 l-44 -44 -52 49 c-29 28 -59 50 -68 50 -8
0 -20 2 -28 4 -7 2 -27 0 -43 -5z m183 -209 c124 -130 150 -148 180 -118 21
21 14 36 -53 106 l-64 69 37 36 c21 20 47 37 58 37 22 0 184 -158 184 -180 0
-7 -61 -74 -135 -149 -74 -76 -135 -144 -135 -152 0 -19 20 -39 39 -39 9 0 45
29 82 66 l66 65 41 -45 c23 -25 42 -51 42 -57 0 -20 -162 -179 -183 -179 -12
0 -71 54 -154 140 -75 77 -143 140 -152 140 -22 0 -41 -19 -41 -42 0 -10 30
-49 67 -88 l66 -71 -38 -39 c-22 -22 -46 -40 -54 -40 -19 0 -181 159 -181 178
0 7 62 78 138 158 75 79 138 150 140 158 3 15 -23 46 -40 46 -5 0 -43 -32 -84
-72 l-74 -72 -40 39 c-22 22 -40 48 -40 58 0 11 35 55 77 98 56 58 83 79 102
79 20 0 54 -29 149 -130z"/>
<path d="M896 1021 c-31 -31 -37 -45 -32 -64 6 -26 68 -87 88 -87 14 0 98 84
98 99 0 21 -72 91 -94 91 -12 0 -39 -17 -60 -39z"/>
</g>
</svg>
