<?xml version="1.0" standalone="no"?>
<!DOCTYPE svg PUBLIC "-//W3C//DTD SVG 20010904//EN"
 "http://www.w3.org/TR/2001/REC-SVG-20010904/DTD/svg10.dtd">
<svg version="1.0" xmlns="http://www.w3.org/2000/svg"
 width="192.000000pt" height="192.000000pt" viewBox="0 0 192.000000 192.000000"
 preserveAspectRatio="xMidYMid meet">
<metadata>
Created by potrace 1.16, written by Peter Selinger 2001-2019
</metadata>
<g transform="translate(0.000000,192.000000) scale(0.100000,-0.100000)"
fill="#000000" stroke="none">
811 c445 -92 729 -532 635 -987 -62 -301 -295 -546 -601 -630 -91 -26 -329
-26 -420 0 -291 80 -516 305 -596 596 -26 91 -26 329 0 420 120 433 542 692
982 601z"/>
<path d="M763 1371 c-45 -11 -77 -34 -110 -78 l-28 -36 0 -293 0 -292 31 -39
c60 -74 74 -78 294 -78 224 0 251 7 305 84 l30 43 0 283 0 283 -30 43 c-53 74
-83 84 -285 86 -96 1 -190 -2 -207 -6z m125 -408 l-3 -218 -35 0 -35 0 -3 205
c-1 112 0 210 2 217 3 7 21 13 41 13 l35 0 -2 -217z m207 135 c0 -71 -2 -79
-29 -107 l-29 -30 32 -36 c30 -35 32 -40 29 -108 -2 -59 -6 -72 -20 -75 -30
-6 -68 42 -68 86 0 31 -7 45 -40 77 -22 21 -40 46 -40 55 0 9 18 34 40 55 32
32 40 46 40 76 0 46 33 91 64 87 19 -3 21 -9 21 -80z"/>
</g>
</svg>
