<?xml version="1.0" standalone="no"?>
<!DOCTYPE svg PUBLIC "-//W3C//DTD SVG 20010904//EN"
 "http://www.w3.org/TR/2001/REC-SVG-20010904/DTD/svg10.dtd">
<svg version="1.0" xmlns="http://www.w3.org/2000/svg"
 width="192.000000pt" height="192.000000pt" viewBox="0 0 192.000000 192.000000"
 preserveAspectRatio="xMidYMid meet">
<metadata>
Created by potrace 1.16, written by Peter Selinger 2001-2019
</metadata>
<g transform="translate(0.000000,192.000000) scale(0.100000,-0.100000)"
fill="#000000" stroke="none">
811 c445 -92 729 -532 635 -987 -62 -301 -295 -546 -601 -630 -91 -26 -329
-26 -420 0 -291 80 -516 305 -596 596 -26 91 -26 329 0 420 120 433 542 692
982 601z"/>
<path d="M660 1348 c-91 -48 -138 -161 -106 -257 10 -32 14 -65 10 -93 -14
-98 35 -228 114 -307 76 -76 143 -103 281 -113 64 -5 145 -12 181 -14 84 -7
140 20 187 89 41 61 50 121 29 186 -10 31 -13 65 -10 97 7 56 -14 150 -46 215
-32 62 -103 127 -178 162 -56 26 -85 33 -177 40 -60 4 -139 10 -175 13 -55 4
-72 2 -110 -18z m435 -238 l0 -35 -92 -3 c-94 -3 -119 -14 -107 -46 4 -12 19
-16 55 -16 94 0 149 -41 149 -112 0 -93 -38 -118 -179 -118 -99 0 -101 0 -107
25 -11 44 9 55 101 55 61 0 86 4 95 15 22 26 -5 42 -77 47 -59 4 -69 7 -94 36
-47 53 -37 140 19 175 22 13 48 16 132 14 l105 -2 0 -35z"/>
</g>
</svg>
