<?xml version="1.0" standalone="no"?>
<!DOCTYPE svg PUBLIC "-//W3C//DTD SVG 20010904//EN"
 "http://www.w3.org/TR/2001/REC-SVG-20010904/DTD/svg10.dtd">
<svg version="1.0" xmlns="http://www.w3.org/2000/svg"
 width="192.000000pt" height="192.000000pt" viewBox="0 0 192.000000 192.000000"
 preserveAspectRatio="xMidYMid meet">
<metadata>
Created by potrace 1.16, written by Peter Selinger 2001-2019
</metadata>
<g transform="translate(0.000000,192.000000) scale(0.100000,-0.100000)"
fill="#000000" stroke="none">
811 c445 -92 729 -532 635 -987 -62 -301 -295 -546 -601 -630 -91 -26 -329
-26 -420 0 -291 80 -516 305 -596 596 -26 91 -26 329 0 420 120 433 542 692
982 601z"/>
<path d="M660 1348 c-91 -48 -138 -161 -106 -257 10 -32 14 -65 10 -93 -14
-98 35 -228 114 -307 76 -76 143 -103 281 -113 64 -5 145 -12 181 -14 84 -7
140 20 187 89 41 61 50 121 29 186 -10 31 -13 65 -10 97 7 56 -14 150 -46 215
-32 62 -103 127 -178 162 -56 26 -85 33 -177 40 -60 4 -139 10 -175 13 -55 4
-72 2 -110 -18z m427 -114 c60 -29 117 -88 146 -153 29 -63 29 -169 0 -232
-91 -201 -354 -247 -498 -87 -57 62 -79 121 -79 203 0 224 227 366 431 269z"/>
<path d="M858 1133 c-56 -35 -66 -122 -19 -175 25 -29 35 -32 94 -36 72 -5 99
-21 77 -47 -9 -11 -34 -15 -95 -15 -92 0 -112 -11 -101 -55 6 -25 8 -25 107
-25 141 0 179 25 179 118 0 71 -55 112 -149 112 -36 0 -51 4 -55 16 -12 32 13
43 107 46 l92 3 0 35 0 35 -105 2 c-84 2 -110 -1 -132 -14z"/>
</g>
</svg>
