<?xml version="1.0" standalone="no"?>
<!DOCTYPE svg PUBLIC "-//W3C//DTD SVG 20010904//EN"
 "http://www.w3.org/TR/2001/REC-SVG-20010904/DTD/svg10.dtd">
<svg version="1.0" xmlns="http://www.w3.org/2000/svg"
 width="192.000000pt" height="192.000000pt" viewBox="0 0 192.000000 192.000000"
 preserveAspectRatio="xMidYMid meet">
<metadata>
Created by potrace 1.16, written by Peter Selinger 2001-2019
</metadata>
<g transform="translate(0.000000,192.000000) scale(0.100000,-0.100000)"
fill="#000000" stroke="none">
811 c445 -92 729 -532 635 -987 -62 -301 -295 -546 -601 -630 -91 -26 -329
-26 -420 0 -291 80 -516 305 -596 596 -26 91 -26 329 0 420 120 433 542 692
982 601z"/>
<path d="M691 1365 c-113 -35 -174 -157 -140 -280 6 -22 12 -78 13 -125 1 -73
5 -94 33 -152 40 -85 106 -151 191 -191 59 -28 78 -32 162 -34 52 -1 108 -6
123 -12 67 -26 154 -8 214 44 55 47 77 104 69 182 -3 32 -9 108 -14 168 -10
132 -38 200 -112 274 -81 81 -217 132 -310 116 -24 -4 -55 -1 -84 9 -56 19
-86 19 -145 1z m390 -215 c22 -12 25 -52 6 -68 -7 -6 -53 -12 -103 -14 -88 -3
-89 -3 -89 -28 0 -24 4 -25 65 -30 76 -6 104 -20 125 -60 30 -57 9 -127 -45
-155 -41 -21 -203 -21 -224 1 -20 20 -20 27 2 53 14 17 30 21 102 23 77 3 85
5 85 23 0 17 -8 21 -60 25 -91 8 -133 40 -141 107 -6 47 11 80 55 110 29 19
47 23 118 23 46 0 93 -5 104 -10z"/>
</g>
</svg>
