<?xml version="1.0" standalone="no"?>
<!DOCTYPE svg PUBLIC "-//W3C//DTD SVG 20010904//EN"
 "http://www.w3.org/TR/2001/REC-SVG-20010904/DTD/svg10.dtd">
<svg version="1.0" xmlns="http://www.w3.org/2000/svg"
 width="192.000000pt" height="192.000000pt" viewBox="0 0 192.000000 192.000000"
 preserveAspectRatio="xMidYMid meet">
<metadata>
Created by potrace 1.16, written by Peter Selinger 2001-2019
</metadata>
<g transform="translate(0.000000,192.000000) scale(0.100000,-0.100000)"
fill="#000000" stroke="none">
811 c445 -92 729 -532 635 -987 -62 -301 -295 -546 -601 -630 -91 -26 -329
-26 -420 0 -291 80 -516 305 -596 596 -26 91 -26 329 0 420 120 433 542 692
982 601z"/>
<path d="M851 1364 c-206 -55 -339 -257 -304 -461 58 -335 470 -464 702 -218
215 227 109 601 -194 679 -72 19 -133 19 -204 0z m129 -158 c0 -82 -15 -110
-44 -81 -11 12 -16 35 -16 79 0 70 3 76 37 76 22 0 23 -3 23 -74z m-126 -20
c36 -65 39 -96 7 -96 -15 0 -99 126 -90 134 4 3 43 25 46 26 1 0 17 -29 37
-64z m276 31 c0 -27 -67 -122 -85 -122 -32 0 -28 28 10 94 32 54 38 60 56 51
10 -6 19 -16 19 -23z m-373 -114 c63 -37 80 -64 47 -77 -9 -3 -43 9 -79 30
-61 33 -63 36 -53 60 6 13 13 24 16 24 3 0 34 -17 69 -37z m483 1 c0 -17 -119
-87 -136 -80 -8 3 -14 14 -14 25 0 27 118 95 137 79 7 -6 13 -16 13 -24z m-94
-129 c112 -18 124 -22 124 -45 0 -28 -10 -30 -80 -15 -94 20 -129 18 -175 -10
-50 -31 -70 -31 -120 0 -46 28 -83 30 -179 10 -71 -15 -85 -11 -86 22 0 11 99
37 175 46 77 10 259 5 341 -8z"/>
</g>
</svg>
