<?xml version="1.0" standalone="no"?>
<!DOCTYPE svg PUBLIC "-//W3C//DTD SVG 20010904//EN"
 "http://www.w3.org/TR/2001/REC-SVG-20010904/DTD/svg10.dtd">
<svg version="1.0" xmlns="http://www.w3.org/2000/svg"
 width="192.000000pt" height="192.000000pt" viewBox="0 0 192.000000 192.000000"
 preserveAspectRatio="xMidYMid meet">
<metadata>
Created by potrace 1.16, written by Peter Selinger 2001-2019
</metadata>
<g transform="translate(0.000000,192.000000) scale(0.100000,-0.100000)"
fill="#000000" stroke="none">
811 c445 -92 729 -532 635 -987 -62 -301 -295 -546 -601 -630 -91 -26 -329
-26 -420 0 -291 80 -516 305 -596 596 -26 91 -26 329 0 420 120 433 542 692
982 601z"/>
<path d="M822 1352 c-290 -104 -374 -461 -158 -677 201 -201 543 -143 669 114
30 62 32 73 32 172 0 101 -1 108 -37 181 -45 91 -103 148 -196 191 -58 27 -80
32 -162 34 -73 3 -107 -1 -148 -15z m229 -83 c44 -11 119 -67 138 -102 11 -21
12 -29 1 -42 -19 -23 -33 -19 -71 21 -90 96 -221 98 -318 7 -25 -24 -46 -43
-47 -43 -1 0 -9 3 -18 6 -27 10 -18 48 22 86 82 79 168 98 293 67z m167 -206
c22 -13 22 -16 7 -27 -25 -18 -32 -99 -11 -131 22 -33 9 -52 -40 -61 -39 -7
-71 -1 -98 19 -19 14 -19 16 -3 31 23 23 22 30 -13 69 -29 34 -38 57 -22 57 4
0 13 -5 20 -12 18 -18 28 0 13 24 -11 18 -11 23 5 32 47 28 98 28 142 -1z
m-418 -50 l0 -47 33 32 c18 18 40 32 48 32 8 0 25 -17 37 -37 l21 -38 16 38
c14 34 45 52 45 26 0 -18 -67 -156 -79 -164 -19 -11 -24 2 -13 35 9 25 8 36
-10 66 -18 31 -23 34 -36 21 -13 -13 -13 -18 2 -38 21 -31 20 -39 -4 -39 -12
0 -26 13 -37 33 l-18 32 -3 -37 c-4 -43 -27 -52 -41 -16 -6 18 -9 19 -14 5 -9
-23 -97 -24 -97 -2 0 11 11 15 36 15 21 0 33 4 29 10 -3 6 -16 10 -29 10 -42
0 -59 36 -30 64 18 18 79 21 90 5 9 -15 -13 -28 -36 -22 -10 3 -21 0 -24 -6
-5 -7 2 -11 15 -11 12 0 31 -7 41 -17 17 -15 18 -14 18 34 0 52 5 63 27 63 9
0 13 -14 13 -47z m466 -17 c9 -38 1 -81 -16 -81 -16 0 -27 63 -16 91 8 22 25
17 32 -10z m-218 -48 c16 -16 15 -38 -2 -38 -13 0 -26 20 -26 41 0 13 14 11
28 -3z m-250 -169 c79 -94 243 -91 331 6 27 30 35 34 51 25 32 -17 23 -45 -31
-94 -112 -101 -266 -101 -378 0 -53 48 -63 76 -34 93 21 11 30 6 61 -30z"/>
<path d="M1100 959 c0 -60 3 -80 13 -77 6 3 13 19 15 36 5 46 32 43 32 -4 0
-24 4 -34 13 -31 8 2 12 27 12 77 0 50 -4 75 -12 78 -9 2 -13 -7 -13 -27 0
-21 -5 -31 -15 -31 -10 0 -15 10 -15 30 0 20 -5 30 -15 30 -12 0 -15 -16 -15
-81z"/>
</g>
</svg>
