<?xml version="1.0" standalone="no"?>
<!DOCTYPE svg PUBLIC "-//W3C//DTD SVG 20010904//EN"
 "http://www.w3.org/TR/2001/REC-SVG-20010904/DTD/svg10.dtd">
<svg version="1.0" xmlns="http://www.w3.org/2000/svg"
 width="192.000000pt" height="192.000000pt" viewBox="0 0 192.000000 192.000000"
 preserveAspectRatio="xMidYMid meet">
<metadata>
Created by potrace 1.16, written by Peter Selinger 2001-2019
</metadata>
<g transform="translate(0.000000,192.000000) scale(0.100000,-0.100000)"
fill="#000000" stroke="none">
811 c445 -92 729 -532 635 -987 -62 -301 -295 -546 -601 -630 -91 -26 -329
-26 -420 0 -291 80 -516 305 -596 596 -26 91 -26 329 0 420 120 433 542 692
982 601z"/>
<path d="M805 1368 c-46 -26 -59 -83 -30 -125 19 -27 85 -47 126 -38 28 6 29
8 29 66 0 52 -4 63 -26 84 -29 27 -67 32 -99 13z"/>
<path d="M1015 1368 c-41 -23 -44 -38 -45 -184 0 -128 2 -144 21 -168 28 -36
89 -37 124 -1 24 23 25 29 25 165 l0 142 -29 29 c-31 30 -63 36 -96 17z"/>
<path d="M572 1140 c-12 -11 -25 -32 -28 -45 -8 -31 12 -82 37 -95 10 -6 81
-10 159 -10 136 0 142 1 165 25 17 16 25 35 25 60 0 25 -8 44 -25 60 -23 24
-29 25 -168 25 -130 0 -145 -2 -165 -20z"/>
<path d="M1215 1136 c-26 -26 -41 -82 -31 -120 7 -28 38 -37 97 -26 51 9 68
26 76 73 5 31 1 40 -25 67 -38 38 -83 40 -117 6z"/>
<path d="M590 937 c-28 -14 -50 -51 -50 -85 0 -29 51 -82 80 -82 72 0 125 95
90 161 -13 23 -80 26 -120 6z"/>
<path d="M814 940 c-47 -19 -54 -45 -54 -192 0 -130 1 -138 24 -164 33 -39 89
-39 122 0 23 26 24 34 24 166 0 130 -1 141 -22 164 -26 29 -63 39 -94 26z"/>
<path d="M1019 935 c-35 -19 -51 -65 -37 -105 17 -49 51 -60 188 -60 137 0
169 10 190 60 16 39 -1 85 -41 105 -39 21 -263 20 -300 0z"/>
<path d="M980 715 c-17 -20 -6 -102 18 -128 28 -31 59 -39 97 -23 62 26 74 89
26 137 -25 24 -38 29 -79 29 -32 0 -54 -5 -62 -15z"/>
</g>
</svg>
