<?xml version="1.0" standalone="no"?>
<!DOCTYPE svg PUBLIC "-//W3C//DTD SVG 20010904//EN"
 "http://www.w3.org/TR/2001/REC-SVG-20010904/DTD/svg10.dtd">
<svg version="1.0" xmlns="http://www.w3.org/2000/svg"
 width="192.000000pt" height="192.000000pt" viewBox="0 0 192.000000 192.000000"
 preserveAspectRatio="xMidYMid meet">
<metadata>
Created by potrace 1.16, written by Peter Selinger 2001-2019
</metadata>
<g transform="translate(0.000000,192.000000) scale(0.100000,-0.100000)"
fill="#000000" stroke="none">
811 c445 -92 729 -532 635 -987 -62 -301 -295 -546 -601 -630 -91 -26 -329
-26 -420 0 -291 80 -516 305 -596 596 -26 91 -26 329 0 420 120 433 542 692
982 601z"/>
<path d="M695 1323 c-44 -23 -74 -53 -96 -95 -17 -33 -19 -61 -19 -260 0 -212
1 -226 23 -268 13 -26 40 -57 65 -75 l44 -30 243 0 243 0 44 30 c25 18 52 49
66 75 21 42 22 56 22 268 0 199 -2 227 -19 260 -22 43 -53 73 -98 96 -47 23
-473 23 -518 -1z m90 -183 c17 0 41 7 53 16 21 14 22 14 22 -10 0 -14 -9 -31
-22 -40 -48 -34 -128 -9 -128 40 0 24 1 24 22 10 12 -9 36 -16 53 -16z m345 0
c17 0 42 7 55 16 24 16 25 15 25 -4 0 -32 -38 -62 -79 -62 -39 0 -81 32 -81
63 0 18 1 18 25 3 13 -9 38 -16 55 -16z m51 -215 c-63 -30 -117 -55 -120 -55
-4 0 -25 18 -46 40 -21 22 -48 40 -60 40 -12 0 -39 -18 -60 -40 -21 -22 -42
-40 -46 -40 -4 0 -58 25 -120 55 l-114 55 340 0 340 -1 -114 -54z m-197 -90
c9 -24 -4 -45 -29 -45 -25 0 -38 21 -29 45 4 8 16 15 29 15 13 0 25 -7 29 -15z
m0 -137 c16 -27 -14 -54 -43 -39 -24 13 -27 31 -9 49 16 16 38 12 52 -10z"/>
</g>
</svg>
