<?xml version="1.0" standalone="no"?>
<!DOCTYPE svg PUBLIC "-//W3C//DTD SVG 20010904//EN"
 "http://www.w3.org/TR/2001/REC-SVG-20010904/DTD/svg10.dtd">
<svg version="1.0" xmlns="http://www.w3.org/2000/svg"
 width="192.000000pt" height="192.000000pt" viewBox="0 0 192.000000 192.000000"
 preserveAspectRatio="xMidYMid meet">
<metadata>
Created by potrace 1.16, written by Peter Selinger 2001-2019
</metadata>
<g transform="translate(0.000000,192.000000) scale(0.100000,-0.100000)"
fill="#000000" stroke="none">
811 c445 -92 729 -532 635 -987 -62 -301 -295 -546 -601 -630 -91 -26 -329
-26 -420 0 -291 80 -516 305 -596 596 -26 91 -26 329 0 420 120 433 542 692
982 601z"/>
<path d="M882 1369 c-204 -34 -358 -231 -339 -434 12 -127 77 -236 181 -306
249 -167 588 -20 636 278 44 269 -203 508 -478 462z m-37 -229 c9 -17 27 -36
40 -42 31 -14 32 -25 2 -39 -13 -6 -32 -24 -42 -41 l-18 -31 -14 27 c-8 15
-28 36 -45 46 l-32 19 32 18 c17 10 37 30 43 46 6 15 13 27 15 27 2 0 11 -14
19 -30z m332 8 c72 -79 90 -218 41 -313 -31 -60 -77 -105 -138 -136 -35 -18
-62 -23 -121 -23 -65 -1 -83 3 -134 29 -68 35 -85 56 -66 79 10 12 31 16 76
16 76 0 169 42 215 98 42 51 70 131 70 202 0 53 5 66 31 69 3 1 15 -9 26 -21z"/>
</g>
</svg>
