<?xml version="1.0" standalone="no"?>
<!DOCTYPE svg PUBLIC "-//W3C//DTD SVG 20010904//EN"
 "http://www.w3.org/TR/2001/REC-SVG-20010904/DTD/svg10.dtd">
<svg version="1.0" xmlns="http://www.w3.org/2000/svg"
 width="192.000000pt" height="192.000000pt" viewBox="0 0 192.000000 192.000000"
 preserveAspectRatio="xMidYMid meet">
<metadata>
Created by potrace 1.16, written by Peter Selinger 2001-2019
</metadata>
<g transform="translate(0.000000,192.000000) scale(0.100000,-0.100000)"
fill="#000000" stroke="none">
811 c445 -92 729 -532 635 -987 -62 -301 -295 -546 -601 -630 -91 -26 -329
-26 -420 0 -291 80 -516 305 -596 596 -26 91 -26 329 0 420 120 433 542 692
982 601z"/>
<path d="M861 1365 c-228 -50 -370 -290 -303 -512 40 -132 150 -242 280 -279
73 -22 197 -15 275 15 165 64 278 264 247 439 -31 177 -161 308 -339 342 -66
12 -80 12 -160 -5z m-56 -174 c3 -11 20 -28 37 -39 l31 -20 -31 -16 c-17 -9
-33 -25 -37 -36 -8 -26 -22 -26 -30 0 -4 11 -20 27 -36 35 -16 9 -29 18 -29
20 0 2 13 11 29 20 16 8 32 24 36 35 8 25 22 26 30 1z m224 -17 c-8 -10 -15
-10 -29 -2 -17 11 -17 13 -2 24 22 16 48 -2 31 -22z m149 -27 c67 -71 86 -207
43 -303 -66 -150 -250 -214 -397 -139 -67 35 -84 56 -65 79 9 11 31 16 70 16
163 0 278 112 289 279 6 93 21 110 60 68z m-178 -67 l20 -20 -20 -20 -20 -20
-20 20 c-19 19 -19 21 -2 39 22 24 19 24 42 1z m-135 -80 c4 -6 1 -17 -5 -25
-9 -11 -15 -12 -25 -2 -9 8 -10 16 -3 25 13 15 25 15 33 2z m-114 -50 c6 0 -2
-13 -17 -28 l-28 -28 -22 23 -23 23 22 24 c21 24 22 24 40 5 10 -10 22 -19 28
-19z"/>
</g>
</svg>
