<?xml version="1.0" standalone="no"?>
<!DOCTYPE svg PUBLIC "-//W3C//DTD SVG 20010904//EN"
 "http://www.w3.org/TR/2001/REC-SVG-20010904/DTD/svg10.dtd">
<svg version="1.0" xmlns="http://www.w3.org/2000/svg"
 width="192.000000pt" height="192.000000pt" viewBox="0 0 192.000000 192.000000"
 preserveAspectRatio="xMidYMid meet">
<metadata>
Created by potrace 1.16, written by Peter Selinger 2001-2019
</metadata>
<g transform="translate(0.000000,192.000000) scale(0.100000,-0.100000)"
fill="#000000" stroke="none">
811 c445 -92 729 -532 635 -987 -62 -301 -295 -546 -601 -630 -91 -26 -329
-26 -420 0 -291 80 -516 305 -596 596 -26 91 -26 329 0 420 120 433 542 692
982 601z"/>
<path d="M645 1344 c-70 -36 -105 -91 -105 -164 0 -81 42 -107 79 -47 28 46
88 100 146 134 56 33 65 60 25 80 -34 17 -109 16 -145 -3z"/>
<path d="M1120 1348 c-40 -21 -32 -49 23 -79 54 -29 119 -88 148 -136 38 -62
79 -37 79 47 0 64 -20 104 -75 146 -43 33 -133 44 -175 22z"/>
<path d="M848 1271 c-108 -35 -179 -98 -227 -200 -22 -47 -26 -70 -26 -146 0
-77 4 -98 27 -147 130 -279 536 -279 666 0 23 49 27 70 27 147 0 82 -3 97 -33
157 -79 161 -269 244 -434 189z m229 -114 c16 -9 48 -36 71 -60 90 -99 91
-239 2 -341 -54 -61 -102 -81 -195 -81 -93 0 -141 20 -195 81 -89 102 -88 242
2 341 23 24 55 51 72 60 63 33 179 32 243 0z"/>
<path d="M1018 1013 l-68 -67 -44 43 c-31 30 -53 44 -72 44 -28 0 -54 -25 -54
-51 0 -21 130 -152 158 -159 20 -5 39 9 123 93 54 54 99 106 99 115 0 21 -32
49 -56 49 -10 0 -49 -30 -86 -67z"/>
</g>
</svg>
