<?xml version="1.0" standalone="no"?>
<!DOCTYPE svg PUBLIC "-//W3C//DTD SVG 20010904//EN"
 "http://www.w3.org/TR/2001/REC-SVG-20010904/DTD/svg10.dtd">
<svg version="1.0" xmlns="http://www.w3.org/2000/svg"
 width="192.000000pt" height="192.000000pt" viewBox="0 0 192.000000 192.000000"
 preserveAspectRatio="xMidYMid meet">
<metadata>
Created by potrace 1.16, written by Peter Selinger 2001-2019
</metadata>
<g transform="translate(0.000000,192.000000) scale(0.100000,-0.100000)"
fill="#000000" stroke="none">
811 c445 -92 729 -532 635 -987 -62 -301 -295 -546 -601 -630 -91 -26 -329
-26 -420 0 -291 80 -516 305 -596 596 -26 91 -26 329 0 420 120 433 542 692
982 601z"/>
<path d="M825 1322 c-102 -43 -161 -99 -206 -197 -36 -76 -46 -156 -29 -235
20 -96 27 -96 188 2 l137 84 3 174 c3 206 0 211 -93 172z"/>
<path d="M1003 1334 c-10 -4 -13 -53 -13 -194 l0 -189 -32 -24 c-18 -13 -88
-57 -155 -96 -67 -40 -124 -80 -128 -89 -10 -25 73 -96 143 -123 78 -31 194
-31 274 0 80 31 159 105 200 189 30 60 33 75 33 157 0 85 -2 96 -38 167 -24
50 -53 91 -83 116 -67 60 -166 101 -201 86z m125 -165 c4 -22 -45 -79 -69 -79
-35 0 -34 29 2 66 35 36 61 41 67 13z m79 -175 c8 -22 -14 -34 -63 -34 -42 0
-72 20 -59 40 3 5 31 10 61 10 41 0 56 -4 61 -16z m-110 -136 c36 -35 44 -68
15 -68 -26 0 -86 65 -79 84 9 24 28 19 64 -16z m-149 -30 c14 -14 16 -86 3
-107 -5 -8 -16 -11 -25 -8 -12 5 -16 20 -16 60 0 66 11 82 38 55z"/>
</g>
</svg>
