<?xml version="1.0" standalone="no"?>
<!DOCTYPE svg PUBLIC "-//W3C//DTD SVG 20010904//EN"
 "http://www.w3.org/TR/2001/REC-SVG-20010904/DTD/svg10.dtd">
<svg version="1.0" xmlns="http://www.w3.org/2000/svg"
 width="192.000000pt" height="192.000000pt" viewBox="0 0 192.000000 192.000000"
 preserveAspectRatio="xMidYMid meet">
<metadata>
Created by potrace 1.16, written by Peter Selinger 2001-2019
</metadata>
<g transform="translate(0.000000,192.000000) scale(0.100000,-0.100000)"
fill="#000000" stroke="none">
811 c445 -92 729 -532 635 -987 -62 -301 -295 -546 -601 -630 -91 -26 -329
-26 -420 0 -291 80 -516 305 -596 596 -26 91 -26 329 0 420 120 433 542 692
982 601z"/>
<path d="M684 1315 c-56 -28 -93 -76 -105 -138 -11 -55 -11 -369 0 -424 14
-75 70 -134 147 -157 19 -6 22 -2 27 43 8 67 47 175 84 235 29 46 30 52 18 76
-38 73 -26 157 31 220 40 44 89 64 156 62 54 -1 91 -18 130 -59 76 -80 75
-189 -4 -270 -41 -42 -84 -56 -161 -51 l-62 3 -27 -50 c-27 -48 -49 -113 -63
-183 l-7 -32 162 0 c206 0 252 17 301 112 17 33 19 61 19 263 0 245 -5 269
-62 322 -51 48 -83 53 -316 53 -212 0 -219 -1 -268 -25z"/>
<path d="M952 1126 c-33 -31 -37 -39 -37 -85 0 -43 5 -55 31 -82 80 -79 204
-27 204 86 0 66 -53 115 -125 115 -26 0 -45 -9 -73 -34z"/>
</g>
</svg>
