<?xml version="1.0" standalone="no"?>
<!DOCTYPE svg PUBLIC "-//W3C//DTD SVG 20010904//EN"
 "http://www.w3.org/TR/2001/REC-SVG-20010904/DTD/svg10.dtd">
<svg version="1.0" xmlns="http://www.w3.org/2000/svg"
 width="192.000000pt" height="192.000000pt" viewBox="0 0 192.000000 192.000000"
 preserveAspectRatio="xMidYMid meet">
<metadata>
Created by potrace 1.16, written by Peter Selinger 2001-2019
</metadata>
<g transform="translate(0.000000,192.000000) scale(0.100000,-0.100000)"
fill="#000000" stroke="none">
811 c445 -92 729 -532 635 -987 -62 -301 -295 -546 -601 -630 -91 -26 -329
-26 -420 0 -291 80 -516 305 -596 596 -26 91 -26 329 0 420 120 433 542 692
982 601z"/>
<path d="M1012 1348 c-47 -8 -88 -33 -126 -78 -22 -27 -28 -29 -53 -19 -15 6
-51 10 -80 10 -171 0 -271 -201 -167 -338 23 -30 23 -33 9 -73 -56 -159 46
-260 263 -260 169 0 357 64 449 152 79 77 79 203 -2 283 -41 41 -42 45 -37 93
13 144 -111 256 -256 230z m41 -239 c16 -26 0 -68 -29 -75 -29 -7 -64 18 -64
47 0 44 70 65 93 28z m-209 -45 c19 -18 21 -55 4 -72 -7 -7 -24 -12 -38 -12
-14 0 -31 5 -38 12 -28 28 -2 88 38 88 10 0 26 -7 34 -16z m176 -166 c0 -7 -7
-22 -15 -32 -13 -17 -15 -17 -21 -3 -3 10 -4 24 0 32 7 18 36 20 36 3z m-66
-24 c4 -9 4 -19 1 -22 -9 -9 -56 18 -50 28 10 16 42 12 49 -6z m116 -115 c-34
-29 -85 -49 -127 -49 -43 0 -32 18 15 24 26 3 65 17 87 30 55 33 67 31 25 -5z"/>
</g>
</svg>
