<?xml version="1.0" standalone="no"?>
<!DOCTYPE svg PUBLIC "-//W3C//DTD SVG 20010904//EN"
 "http://www.w3.org/TR/2001/REC-SVG-20010904/DTD/svg10.dtd">
<svg version="1.0" xmlns="http://www.w3.org/2000/svg"
 width="192.000000pt" height="192.000000pt" viewBox="0 0 192.000000 192.000000"
 preserveAspectRatio="xMidYMid meet">
<metadata>
Created by potrace 1.16, written by Peter Selinger 2001-2019
</metadata>
<g transform="translate(0.000000,192.000000) scale(0.100000,-0.100000)"
fill="#000000" stroke="none">
811 c445 -92 729 -532 635 -987 -62 -301 -295 -546 -601 -630 -91 -26 -329
-26 -420 0 -291 80 -516 305 -596 596 -26 91 -26 329 0 420 120 433 542 692
982 601z"/>
<path d="M860 1367 c-94 -27 -172 -96 -219 -196 -26 -55 -26 -60 -26 -267 l0
-211 30 -48 c20 -32 45 -56 74 -72 42 -22 55 -23 230 -23 174 0 190 2 231 22
24 13 58 40 74 61 l31 39 0 231 c0 222 -1 234 -23 278 -58 117 -164 189 -289
195 -38 2 -88 -2 -113 -9z m10 -232 c56 -29 78 -117 43 -175 -40 -69 -143 -80
-195 -21 -53 59 -49 130 8 180 40 36 95 41 144 16z m331 -23 c95 -106 -24
-263 -150 -198 -57 30 -83 116 -52 174 37 69 150 82 202 24z"/>
<path d="M771 1061 c-26 -26 -27 -45 -1 -71 25 -25 52 -26 73 -2 21 23 21 32
2 32 -8 0 -24 14 -34 31 l-19 31 -21 -21z"/>
<path d="M1077 1062 c-23 -25 -21 -55 3 -77 16 -15 26 -17 48 -9 34 12 39 36
10 49 -13 6 -24 20 -26 33 -4 27 -14 28 -35 4z"/>
</g>
</svg>
