<?xml version="1.0" standalone="no"?>
<!DOCTYPE svg PUBLIC "-//W3C//DTD SVG 20010904//EN"
 "http://www.w3.org/TR/2001/REC-SVG-20010904/DTD/svg10.dtd">
<svg version="1.0" xmlns="http://www.w3.org/2000/svg"
 width="192.000000pt" height="192.000000pt" viewBox="0 0 192.000000 192.000000"
 preserveAspectRatio="xMidYMid meet">
<metadata>
Created by potrace 1.16, written by Peter Selinger 2001-2019
</metadata>
<g transform="translate(0.000000,192.000000) scale(0.100000,-0.100000)"
fill="#000000" stroke="none">
811 c445 -92 729 -532 635 -987 -62 -301 -295 -546 -601 -630 -91 -26 -329
-26 -420 0 -291 80 -516 305 -596 596 -26 91 -26 329 0 420 120 433 542 692
982 601z"/>
<path d="M694 1351 c-37 -23 -54 -65 -54 -136 0 -45 -3 -53 -26 -66 -14 -7
-37 -26 -50 -42 -24 -28 -24 -31 -24 -242 0 -118 4 -225 10 -239 5 -14 24 -35
42 -46 32 -20 47 -20 376 -18 l344 3 29 33 29 32 0 231 0 231 -31 28 c-16 16
-39 32 -50 35 -16 5 -19 16 -19 65 0 76 -12 105 -52 130 -30 18 -51 20 -263
20 -208 0 -233 -2 -261 -19z m489 -64 c16 -11 17 -31 15 -176 l-3 -165 -110
-58 c-60 -32 -118 -58 -129 -58 -10 0 -70 27 -133 61 l-114 61 3 164 c2 133 6
167 18 174 24 15 433 13 453 -3z m-543 -252 c0 -35 -3 -43 -15 -39 -18 7 -20
55 -3 72 17 17 18 16 18 -33z m655 0 c0 -22 -5 -40 -12 -42 -9 -3 -13 9 -13
42 0 33 4 45 13 43 7 -3 12 -21 12 -43z"/>
<path d="M790 1210 c-21 -39 2 -50 102 -50 73 0 90 3 95 16 14 37 -10 49 -100
52 -79 3 -87 1 -97 -18z"/>
<path d="M790 1070 c-23 -44 -2 -50 172 -50 138 0 159 2 165 16 3 9 2 24 -4
33 -9 13 -35 16 -166 19 -149 2 -156 2 -167 -18z"/>
</g>
</svg>
