<?xml version="1.0" standalone="no"?>
<!DOCTYPE svg PUBLIC "-//W3C//DTD SVG 20010904//EN"
 "http://www.w3.org/TR/2001/REC-SVG-20010904/DTD/svg10.dtd">
<svg version="1.0" xmlns="http://www.w3.org/2000/svg"
 width="192.000000pt" height="192.000000pt" viewBox="0 0 192.000000 192.000000"
 preserveAspectRatio="xMidYMid meet">
<metadata>
Created by potrace 1.16, written by Peter Selinger 2001-2019
</metadata>
<g transform="translate(0.000000,192.000000) scale(0.100000,-0.100000)"
fill="#000000" stroke="none">
811 c445 -92 729 -532 635 -987 -62 -301 -295 -546 -601 -630 -91 -26 -329
-26 -420 0 -291 80 -516 305 -596 596 -26 91 -26 329 0 420 120 433 542 692
982 601z"/>
<path d="M767 1283 c-138 -72 -167 -91 -165 -107 2 -14 45 -40 158 -97 85 -43
163 -78 174 -78 10 -1 93 38 183 85 123 64 163 90 161 102 -2 11 -66 48 -168
99 -91 45 -167 82 -170 82 -3 0 -81 -39 -173 -86z m233 -72 l62 -30 -61 -30
-61 -31 -62 31 -62 31 54 29 c30 15 58 28 62 29 3 0 34 -13 68 -29z"/>
<path d="M1123 1061 c-84 -43 -159 -84 -168 -91 -12 -10 -15 -45 -15 -205 0
-169 2 -194 16 -199 10 -4 82 28 185 81 l169 88 -2 200 c-3 168 -5 200 -18
202 -8 2 -84 -33 -167 -76z m63 -156 c12 -49 -47 -135 -93 -135 -34 0 -40 40
-13 95 33 69 93 92 106 40z"/>
<path d="M681 876 c-24 -36 -40 -69 -36 -75 11 -19 166 -93 181 -87 22 8 17
38 -23 135 -47 115 -60 117 -122 27z"/>
</g>
</svg>
