<?xml version="1.0" standalone="no"?>
<!DOCTYPE svg PUBLIC "-//W3C//DTD SVG 20010904//EN"
 "http://www.w3.org/TR/2001/REC-SVG-20010904/DTD/svg10.dtd">
<svg version="1.0" xmlns="http://www.w3.org/2000/svg"
 width="192.000000pt" height="192.000000pt" viewBox="0 0 192.000000 192.000000"
 preserveAspectRatio="xMidYMid meet">
<metadata>
Created by potrace 1.16, written by Peter Selinger 2001-2019
</metadata>
<g transform="translate(0.000000,192.000000) scale(0.100000,-0.100000)"
fill="#000000" stroke="none">
811 c445 -92 729 -532 635 -987 -62 -301 -295 -546 -601 -630 -91 -26 -329
-26 -420 0 -291 80 -516 305 -596 596 -26 91 -26 329 0 420 120 433 542 692
982 601z"/>
<path d="M545 1308 c-26 -31 -27 -34 -23 -154 3 -118 4 -124 31 -151 27 -29
27 -31 27 -156 0 -108 3 -134 20 -167 44 -86 94 -100 360 -100 221 0 262 6
311 47 56 47 69 91 69 235 0 96 3 129 14 135 28 17 36 54 36 173 0 115 -1 122
-25 145 l-24 25 -385 0 -384 0 -27 -32z m519 -244 c11 -29 6 -54 -14 -66 -15
-10 -20 -24 -20 -61 0 -38 -5 -53 -25 -72 -57 -58 -125 -5 -125 96 0 15 -7 29
-15 33 -15 5 -22 66 -8 79 3 4 50 7 104 7 79 0 98 -3 103 -16z"/>
<path d="M942 998 c-26 -26 -7 -86 23 -75 12 5 15 17 13 44 -3 39 -16 51 -36
31z"/>
</g>
</svg>
