<?xml version="1.0" standalone="no"?>
<!DOCTYPE svg PUBLIC "-//W3C//DTD SVG 20010904//EN"
 "http://www.w3.org/TR/2001/REC-SVG-20010904/DTD/svg10.dtd">
<svg version="1.0" xmlns="http://www.w3.org/2000/svg"
 width="192.000000pt" height="192.000000pt" viewBox="0 0 192.000000 192.000000"
 preserveAspectRatio="xMidYMid meet">
<metadata>
Created by potrace 1.16, written by Peter Selinger 2001-2019
</metadata>
<g transform="translate(0.000000,192.000000) scale(0.100000,-0.100000)"
fill="#000000" stroke="none">
811 c445 -92 729 -532 635 -987 -62 -301 -295 -546 -601 -630 -91 -26 -329
-26 -420 0 -291 80 -516 305 -596 596 -26 91 -26 329 0 420 120 433 542 692
982 601z"/>
<path d="M925 1373 c-31 -8 -257 -142 -287 -171 -88 -83 -69 -247 37 -312 l36
-22 -33 -20 c-45 -27 -58 -46 -58 -83 0 -40 7 -46 161 -133 166 -94 172 -95
328 -6 160 92 170 100 197 158 28 61 30 107 5 161 -17 39 -81 105 -101 105
-23 0 -7 21 29 39 41 22 51 37 51 81 0 34 -10 42 -170 133 -114 64 -156 80
-195 70z m252 -379 l44 -26 -33 -17 c-18 -9 -80 -43 -137 -76 -99 -56 -104
-58 -117 -40 -30 41 -6 75 96 135 47 27 89 50 94 50 5 0 29 -12 53 -26z m79
-157 c-3 -18 -19 -45 -34 -59 -32 -30 -253 -158 -273 -158 -22 0 -254 136
-254 149 0 6 18 22 40 35 l40 24 70 -41 c98 -57 115 -56 255 24 63 36 122 68
130 71 24 9 33 -8 26 -45z"/>
</g>
</svg>
