<?xml version="1.0" standalone="no"?>
<!DOCTYPE svg PUBLIC "-//W3C//DTD SVG 20010904//EN"
 "http://www.w3.org/TR/2001/REC-SVG-20010904/DTD/svg10.dtd">
<svg version="1.0" xmlns="http://www.w3.org/2000/svg"
 width="192.000000pt" height="192.000000pt" viewBox="0 0 192.000000 192.000000"
 preserveAspectRatio="xMidYMid meet">
<metadata>
Created by potrace 1.16, written by Peter Selinger 2001-2019
</metadata>
<g transform="translate(0.000000,192.000000) scale(0.100000,-0.100000)"
fill="#000000" stroke="none">
810 c245 -63 441 -223 549 -451 55 -116 75 -212 75 -354 0 -141 -20 -238 -75
-352 -86 -182 -215 -312 -396 -398 -116 -55 -212 -75 -354 -75 -142 0 -238 20
-354 75 -228 108 -388 304 -451 549 -28 110 -28 292 0 402 76 298 303 526 600
603 106 28 298 28 406 1z"/>
<path d="M715 1331 c-67 -17 -117 -65 -135 -129 -5 -20 -10 -129 -10 -242 1
-259 12 -295 102 -341 33 -17 61 -19 279 -19 226 0 246 1 286 21 29 14 52 35
69 64 l25 43 -3 250 -3 249 -27 35 c-51 67 -75 73 -328 75 -124 1 -238 -2
-255 -6z m498 -92 c15 -11 32 -37 38 -59 22 -74 35 -71 -298 -68 l-298 3 -3
38 c-3 32 2 43 31 72 l35 35 235 0 c221 0 236 -1 260 -21z m-29 -232 c13 -10
17 -24 14 -62 l-3 -50 -104 -3 c-117 -3 -121 -1 -121 65 0 30 5 45 18 52 25
15 175 14 196 -2z m-254 -17 c0 -19 -7 -20 -104 -20 -100 0 -125 7 -111 30 3
6 52 10 111 10 97 0 104 -1 104 -20z m0 -80 c0 -20 -5 -21 -107 -18 -93 3
-108 5 -111 21 -3 15 7 17 107 17 105 0 111 -1 111 -20z m-5 -135 l0 -50 -105
0 -105 0 -3 39 c-6 66 -4 67 110 64 l103 -3 0 -50z m270 45 c4 -6 1 -17 -5
-25 -9 -11 -36 -15 -105 -15 -69 0 -96 4 -105 15 -23 27 0 35 105 35 61 0 106
-4 110 -10z m-6 -59 c8 -5 11 -16 8 -25 -5 -13 -24 -16 -111 -16 -79 0 -105 3
-109 14 -3 7 0 19 6 25 13 13 185 15 206 2z"/>
</g>
</svg>
