<?xml version="1.0" standalone="no"?>
<!DOCTYPE svg PUBLIC "-//W3C//DTD SVG 20010904//EN"
 "http://www.w3.org/TR/2001/REC-SVG-20010904/DTD/svg10.dtd">
<svg version="1.0" xmlns="http://www.w3.org/2000/svg"
 width="192.000000pt" height="192.000000pt" viewBox="0 0 192.000000 192.000000"
 preserveAspectRatio="xMidYMid meet">
<metadata>
Created by potrace 1.16, written by Peter Selinger 2001-2019
</metadata>
<g transform="translate(0.000000,192.000000) scale(0.100000,-0.100000)"
fill="#000000" stroke="none">
811 c445 -92 729 -532 635 -987 -62 -301 -295 -546 -601 -630 -91 -26 -329
-26 -420 0 -291 80 -516 305 -596 596 -26 91 -26 329 0 420 120 433 542 692
982 601z"/>
<path d="M1134 1336 c-13 -35 0 -51 47 -56 54 -7 77 -22 96 -68 16 -38 37 -50
59 -31 34 28 -14 122 -79 153 -44 20 -116 21 -123 2z"/>
<path d="M1114 1236 c-11 -29 1 -51 29 -54 18 -2 31 -11 37 -26 10 -28 38 -40
56 -25 17 14 18 43 4 70 -22 40 -114 66 -126 35z"/>
<path d="M852 1220 c-36 -15 -234 -154 -262 -185 -24 -26 -25 -30 -28 -206
l-3 -180 34 -34 c34 -34 38 -35 110 -35 59 0 76 3 81 16 3 9 6 60 6 114 0 91
2 100 22 114 27 19 113 21 148 3 24 -12 25 -17 30 -127 l5 -115 79 -3 c136 -5
156 25 156 231 0 74 -3 149 -6 167 -9 42 -48 80 -175 167 -107 73 -155 90
-197 73z"/>
</g>
</svg>
