<?xml version="1.0" standalone="no"?>
<!DOCTYPE svg PUBLIC "-//W3C//DTD SVG 20010904//EN"
 "http://www.w3.org/TR/2001/REC-SVG-20010904/DTD/svg10.dtd">
<svg version="1.0" xmlns="http://www.w3.org/2000/svg"
 width="192.000000pt" height="192.000000pt" viewBox="0 0 192.000000 192.000000"
 preserveAspectRatio="xMidYMid meet">
<metadata>
Created by potrace 1.16, written by Peter Selinger 2001-2019
</metadata>
<g transform="translate(0.000000,192.000000) scale(0.100000,-0.100000)"
fill="#000000" stroke="none">
811 c445 -92 729 -532 635 -987 -62 -301 -295 -546 -601 -630 -91 -26 -329
-26 -420 0 -291 80 -516 305 -596 596 -26 91 -26 329 0 420 120 433 542 692
982 601z"/>
<path d="M734 1255 c-106 -63 -194 -122 -198 -130 -8 -23 4 -45 28 -51 16 -4
72 25 209 107 l186 111 180 -112 c196 -121 226 -131 226 -73 0 31 -7 37 -185
148 -145 90 -192 115 -220 115 -27 0 -79 -26 -226 -115z"/>
<path d="M900 1160 c-44 -44 -10 -120 54 -120 41 0 69 29 69 70 0 63 -78 95
-123 50z"/>
<path d="M699 1031 c-35 -36 -37 -64 -4 -96 33 -34 77 -33 104 1 34 43 26 86
-20 109 -39 21 -46 19 -80 -14z"/>
<path d="M1140 1053 c-51 -19 -68 -85 -30 -123 44 -44 120 -10 120 54 0 46
-49 84 -90 69z"/>
<path d="M695 815 c-29 -28 -31 -51 -9 -83 44 -63 134 -37 134 39 0 28 -44 69
-75 69 -14 0 -37 -11 -50 -25z"/>
<path d="M1110 820 c-26 -26 -26 -81 0 -105 47 -42 120 -8 120 56 0 59 -78 91
-120 49z"/>
<path d="M905 675 c-14 -13 -25 -36 -25 -50 0 -28 40 -75 64 -75 54 0 95 55
77 103 -19 51 -77 62 -116 22z"/>
</g>
</svg>
