<?xml version="1.0" standalone="no"?>
<!DOCTYPE svg PUBLIC "-//W3C//DTD SVG 20010904//EN"
 "http://www.w3.org/TR/2001/REC-SVG-20010904/DTD/svg10.dtd">
<svg version="1.0" xmlns="http://www.w3.org/2000/svg"
 width="192.000000pt" height="192.000000pt" viewBox="0 0 192.000000 192.000000"
 preserveAspectRatio="xMidYMid meet">
<metadata>
Created by potrace 1.16, written by Peter Selinger 2001-2019
</metadata>
<g transform="translate(0.000000,192.000000) scale(0.100000,-0.100000)"
fill="#000000" stroke="none">
811 c445 -92 729 -532 635 -987 -62 -301 -295 -546 -601 -630 -91 -26 -329
-26 -420 0 -291 80 -516 305 -596 596 -26 91 -26 329 0 420 120 433 542 692
982 601z"/>
<path d="M715 1351 c-48 -22 -69 -44 -90 -94 -12 -29 -15 -84 -15 -289 0 -225
3 -258 19 -294 21 -47 57 -78 108 -95 71 -23 109 -9 324 117 111 66 217 133
234 150 60 59 66 163 14 235 -18 25 -394 256 -453 279 -41 15 -96 12 -141 -9z
m413 -222 c111 -65 142 -99 142 -159 0 -59 -30 -93 -142 -159 -109 -64 -128
-70 -148 -46 -20 25 -5 41 93 100 165 98 166 112 12 204 -59 34 -109 69 -112
77 -7 18 14 44 36 44 9 0 62 -27 119 -61z"/>
</g>
</svg>
