<?xml version="1.0" standalone="no"?>
<!DOCTYPE svg PUBLIC "-//W3C//DTD SVG 20010904//EN"
 "http://www.w3.org/TR/2001/REC-SVG-20010904/DTD/svg10.dtd">
<svg version="1.0" xmlns="http://www.w3.org/2000/svg"
 width="192.000000pt" height="192.000000pt" viewBox="0 0 192.000000 192.000000"
 preserveAspectRatio="xMidYMid meet">
<metadata>
Created by potrace 1.16, written by Peter Selinger 2001-2019
</metadata>
<g transform="translate(0.000000,192.000000) scale(0.100000,-0.100000)"
fill="#000000" stroke="none">
811 c445 -92 729 -532 635 -987 -62 -301 -295 -546 -601 -630 -91 -26 -329
-26 -420 0 -291 80 -516 305 -596 596 -26 91 -26 329 0 420 120 433 542 692
982 601z"/>
<path d="M892 1370 c-124 -18 -255 -119 -310 -237 -37 -82 -43 -223 -12 -305
11 -31 31 -72 44 -90 17 -25 20 -38 13 -50 -6 -8 -7 -23 -3 -33 6 -15 15 -17
67 -11 33 3 65 8 70 12 11 6 0 114 -13 131 -7 9 -16 10 -29 2 -16 -8 -22 -4
-38 22 -89 147 -23 357 137 436 51 25 67 28 162 28 58 0 111 4 118 8 16 11 16
52 -1 65 -11 9 -132 34 -147 31 -3 -1 -29 -5 -58 -9z"/>
<path d="M1203 1283 c-55 -5 -64 -18 -56 -80 8 -69 16 -82 43 -65 18 11 22 9
39 -20 46 -75 52 -194 13 -282 -30 -67 -93 -129 -164 -161 -57 -26 -68 -27
-159 -22 -104 5 -119 0 -119 -40 0 -41 43 -58 145 -58 109 0 172 19 252 79
106 78 162 190 163 322 0 93 -17 160 -58 224 -21 34 -26 50 -19 61 14 22 2 49
-20 47 -10 -1 -37 -3 -60 -5z"/>
<path d="M928 1169 c-15 -9 -18 -26 -18 -117 l0 -107 87 -87 c87 -87 115 -102
141 -76 25 25 11 54 -63 128 l-75 74 0 88 c0 76 -2 89 -19 98 -24 12 -31 12
-53 -1z"/>
</g>
</svg>
