<?xml version="1.0" standalone="no"?>
<!DOCTYPE svg PUBLIC "-//W3C//DTD SVG 20010904//EN"
 "http://www.w3.org/TR/2001/REC-SVG-20010904/DTD/svg10.dtd">
<svg version="1.0" xmlns="http://www.w3.org/2000/svg"
 width="192.000000pt" height="192.000000pt" viewBox="0 0 192.000000 192.000000"
 preserveAspectRatio="xMidYMid meet">
<metadata>
Created by potrace 1.16, written by Peter Selinger 2001-2019
</metadata>
<g transform="translate(0.000000,192.000000) scale(0.100000,-0.100000)"
fill="#000000" stroke="none">
811 c445 -92 729 -532 635 -987 -62 -301 -295 -546 -601 -630 -91 -26 -329
-26 -420 0 -291 80 -516 305 -596 596 -26 91 -26 329 0 420 120 433 542 692
982 601z"/>
<path d="M835 1362 c-157 -54 -259 -174 -284 -333 -12 -75 -3 -148 28 -227 13
-32 21 -75 21 -110 0 -32 5 -63 12 -70 7 -7 36 -12 65 -12 36 0 74 -9 116 -27
53 -24 76 -27 162 -28 92 0 105 2 168 32 126 60 212 173 238 314 36 198 -94
406 -290 463 -71 21 -173 20 -236 -2z m167 -262 c108 -43 138 -66 138 -107 0
-39 -14 -56 -113 -131 -102 -79 -130 -87 -171 -49 -22 19 -27 38 -41 137 -19
144 -19 136 10 165 33 34 58 32 177 -15z"/>
</g>
</svg>
