<?xml version="1.0" standalone="no"?>
<!DOCTYPE svg PUBLIC "-//W3C//DTD SVG 20010904//EN"
 "http://www.w3.org/TR/2001/REC-SVG-20010904/DTD/svg10.dtd">
<svg version="1.0" xmlns="http://www.w3.org/2000/svg"
 width="192.000000pt" height="192.000000pt" viewBox="0 0 192.000000 192.000000"
 preserveAspectRatio="xMidYMid meet">
<metadata>
Created by potrace 1.16, written by Peter Selinger 2001-2019
</metadata>
<g transform="translate(0.000000,192.000000) scale(0.100000,-0.100000)"
fill="#000000" stroke="none">
811 c445 -92 729 -532 635 -987 -62 -301 -295 -546 -601 -630 -91 -26 -329
-26 -420 0 -291 80 -516 305 -596 596 -26 91 -26 329 0 420 120 433 542 692
982 601z"/>
<path d="M856 1400 c-65 -17 -153 -70 -202 -122 -139 -149 -146 -370 -17 -533
22 -27 52 -56 66 -64 24 -13 29 -12 47 4 11 10 20 22 20 27 0 5 -20 30 -45 57
-66 71 -97 146 -97 235 0 129 63 231 180 288 59 29 76 33 147 33 65 0 90 -5
135 -26 73 -34 120 -76 153 -138 73 -133 50 -279 -60 -392 -53 -55 -57 -92
-10 -97 21 -3 37 7 76 47 198 203 136 531 -125 653 -52 24 -81 31 -147 34 -45
2 -99 -1 -121 -6z"/>
<path d="M880 1235 c-163 -51 -225 -262 -113 -386 39 -44 67 -49 84 -18 9 18
6 28 -21 66 -43 59 -50 116 -21 175 28 58 79 91 139 92 145 2 223 -153 133
-264 -33 -42 -38 -59 -19 -78 20 -20 42 -14 76 21 120 124 58 341 -112 392
-60 18 -87 18 -146 0z"/>
<path d="M907 1068 c-46 -36 -39 -107 15 -137 51 -29 128 27 114 83 -14 57
-85 87 -129 54z"/>
</g>
</svg>
