<?xml version="1.0" standalone="no"?>
<!DOCTYPE svg PUBLIC "-//W3C//DTD SVG 20010904//EN"
 "http://www.w3.org/TR/2001/REC-SVG-20010904/DTD/svg10.dtd">
<svg version="1.0" xmlns="http://www.w3.org/2000/svg"
 width="192.000000pt" height="192.000000pt" viewBox="0 0 192.000000 192.000000"
 preserveAspectRatio="xMidYMid meet">
<metadata>
Created by potrace 1.16, written by Peter Selinger 2001-2019
</metadata>
<g transform="translate(0.000000,192.000000) scale(0.100000,-0.100000)"
fill="#000000" stroke="none">
811 c445 -92 729 -532 635 -987 -62 -301 -295 -546 -601 -630 -91 -26 -329
-26 -420 0 -291 80 -516 305 -596 596 -26 91 -26 329 0 420 120 433 542 692
982 601z"/>
<path d="M771 1370 c-55 -12 -108 -53 -135 -106 -19 -36 -21 -56 -21 -269 l0
-230 338 -3 338 -2 -3 243 -3 244 -28 41 c-48 73 -86 85 -277 88 -91 2 -185
-1 -209 -6z m34 -250 l0 -95 -30 0 -30 0 -3 84 c-4 103 0 113 35 109 l28 -3 0
-95z m-7 -152 c30 -30 -11 -85 -44 -57 -25 21 -11 69 21 69 6 0 16 -5 23 -12z"/>
<path d="M625 693 c16 -69 76 -118 161 -134 34 -6 123 -9 209 -7 130 4 156 7
192 26 42 22 84 74 98 120 l6 22 -336 0 -337 0 7 -27z"/>
</g>
</svg>
