<?xml version="1.0" standalone="no"?>
<!DOCTYPE svg PUBLIC "-//W3C//DTD SVG 20010904//EN"
 "http://www.w3.org/TR/2001/REC-SVG-20010904/DTD/svg10.dtd">
<svg version="1.0" xmlns="http://www.w3.org/2000/svg"
 width="192.000000pt" height="192.000000pt" viewBox="0 0 192.000000 192.000000"
 preserveAspectRatio="xMidYMid meet">
<metadata>
Created by potrace 1.16, written by Peter Selinger 2001-2019
</metadata>
<g transform="translate(0.000000,192.000000) scale(0.100000,-0.100000)"
fill="#000000" stroke="none">
811 c445 -92 729 -532 635 -987 -62 -301 -295 -546 -601 -630 -91 -26 -329
-26 -420 0 -291 80 -516 305 -596 596 -26 91 -26 329 0 420 120 433 542 692
982 601z"/>
<path d="M862 1366 c-96 -31 -159 -119 -169 -235 -5 -56 -8 -61 -29 -61 -27 0
-64 -32 -64 -56 0 -29 20 -52 55 -64 19 -6 35 -15 35 -19 0 -17 -50 -61 -97
-84 -59 -30 -76 -48 -75 -82 0 -34 27 -63 72 -76 27 -8 41 -20 51 -43 18 -41
54 -57 102 -46 32 7 45 4 85 -18 39 -23 59 -27 122 -27 63 0 85 5 128 27 42
22 57 25 82 18 17 -5 39 -6 48 -3 27 10 62 45 62 64 0 11 11 19 36 24 47 8 84
45 84 83 0 34 -17 50 -82 81 -44 21 -88 62 -88 82 0 4 10 11 23 15 35 10 57
35 57 64 0 31 -27 60 -57 60 -18 0 -22 8 -28 58 -18 153 -105 241 -245 248
-38 2 -83 -2 -108 -10z"/>
</g>
</svg>
