<?xml version="1.0" standalone="no"?>
<!DOCTYPE svg PUBLIC "-//W3C//DTD SVG 20010904//EN"
 "http://www.w3.org/TR/2001/REC-SVG-20010904/DTD/svg10.dtd">
<svg version="1.0" xmlns="http://www.w3.org/2000/svg"
 width="192.000000pt" height="192.000000pt" viewBox="0 0 192.000000 192.000000"
 preserveAspectRatio="xMidYMid meet">
<metadata>
Created by potrace 1.16, written by Peter Selinger 2001-2019
</metadata>
<g transform="translate(0.000000,192.000000) scale(0.100000,-0.100000)"
fill="#000000" stroke="none">
811 c445 -92 729 -532 635 -987 -62 -301 -295 -546 -601 -630 -91 -26 -329
-26 -420 0 -291 80 -516 305 -596 596 -26 91 -26 329 0 420 120 433 542 692
982 601z"/>
<path d="M675 1305 c-22 -13 -51 -41 -65 -61 -25 -37 -25 -38 -25 -279 l0
-242 28 -40 c15 -22 45 -49 66 -61 37 -21 51 -22 270 -22 172 0 240 3 264 14
43 17 93 76 106 123 14 49 14 407 0 456 -13 47 -63 106 -106 123 -18 8 -61 14
-96 14 -97 0 -98 -3 -95 -191 l3 -154 40 -3 c47 -4 65 -17 65 -46 0 -28 -148
-176 -175 -176 -24 0 -185 149 -185 170 0 30 20 44 67 49 l48 6 3 154 c3 190
3 191 -102 191 -57 0 -79 -5 -111 -25z"/>
</g>
</svg>
