<?xml version="1.0" standalone="no"?>
<!DOCTYPE svg PUBLIC "-//W3C//DTD SVG 20010904//EN"
 "http://www.w3.org/TR/2001/REC-SVG-20010904/DTD/svg10.dtd">
<svg version="1.0" xmlns="http://www.w3.org/2000/svg"
 width="192.000000pt" height="192.000000pt" viewBox="0 0 192.000000 192.000000"
 preserveAspectRatio="xMidYMid meet">
<metadata>
Created by potrace 1.16, written by Peter Selinger 2001-2019
</metadata>
<g transform="translate(0.000000,192.000000) scale(0.100000,-0.100000)"
fill="#000000" stroke="none">
811 c445 -92 729 -532 635 -987 -62 -301 -295 -546 -601 -630 -91 -26 -329
-26 -420 0 -291 80 -516 305 -596 596 -26 91 -26 329 0 420 120 433 542 692
982 601z"/>
<path d="M862 1347 c-48 -18 -99 -63 -122 -107 -15 -30 -20 -59 -20 -121 l0
-82 -35 6 c-25 4 -41 1 -57 -13 -30 -24 -17 -48 40 -75 23 -11 42 -25 42 -33
0 -44 -87 -135 -140 -147 -66 -15 -52 -64 23 -83 31 -8 47 -19 55 -37 11 -23
17 -25 74 -25 52 0 70 -5 102 -26 90 -62 164 -62 257 -3 38 24 56 29 108 29
56 0 62 2 73 25 8 18 24 29 55 37 75 19 89 68 23 83 -53 12 -140 103 -140 147
0 8 19 22 42 33 58 28 70 51 39 76 -18 14 -32 18 -57 13 l-33 -6 0 80 c0 61
-5 90 -20 120 -25 49 -80 95 -130 111 -48 14 -136 13 -179 -2z"/>
</g>
</svg>
