<?xml version="1.0" standalone="no"?>
<!DOCTYPE svg PUBLIC "-//W3C//DTD SVG 20010904//EN"
 "http://www.w3.org/TR/2001/REC-SVG-20010904/DTD/svg10.dtd">
<svg version="1.0" xmlns="http://www.w3.org/2000/svg"
 width="192.000000pt" height="192.000000pt" viewBox="0 0 192.000000 192.000000"
 preserveAspectRatio="xMidYMid meet">
<metadata>
Created by potrace 1.16, written by Peter Selinger 2001-2019
</metadata>
<g transform="translate(0.000000,192.000000) scale(0.100000,-0.100000)"
fill="#000000" stroke="none">
811 c445 -92 729 -532 635 -987 -62 -301 -295 -546 -601 -630 -91 -26 -329
-26 -420 0 -291 80 -516 305 -596 596 -26 91 -26 329 0 420 120 433 542 692
982 601z"/>
<path d="M880 1367 c-124 -35 -220 -150 -220 -264 0 -32 -12 -43 -25 -23 -10
17 -61 11 -79 -9 -26 -28 -13 -55 50 -102 l54 -41 0 -130 0 -130 34 -34 c29
-29 41 -34 79 -34 30 0 53 7 70 21 l27 20 22 -20 c29 -27 96 -28 129 -2 24 19
25 19 48 0 30 -25 108 -25 137 -1 38 30 44 56 44 185 l0 125 54 41 c63 47 76
74 50 102 -18 20 -69 26 -79 9 -13 -20 -25 -9 -25 23 0 170 -200 312 -370 264z
m14 -153 c10 -10 16 -33 16 -64 0 -69 -37 -102 -74 -64 -35 35 -13 144 29 144
7 0 21 -7 29 -16z m177 6 c15 -9 19 -22 19 -71 0 -54 -2 -61 -25 -71 -21 -9
-28 -8 -45 7 -26 23 -28 100 -3 127 19 21 27 22 54 8z m9 -221 c24 -43 -53
-109 -126 -109 -72 0 -156 77 -125 114 11 13 35 16 127 16 104 0 114 -2 124
-21z"/>
</g>
</svg>
