<?xml version="1.0" standalone="no"?>
<!DOCTYPE svg PUBLIC "-//W3C//DTD SVG 20010904//EN"
 "http://www.w3.org/TR/2001/REC-SVG-20010904/DTD/svg10.dtd">
<svg version="1.0" xmlns="http://www.w3.org/2000/svg"
 width="192.000000pt" height="192.000000pt" viewBox="0 0 192.000000 192.000000"
 preserveAspectRatio="xMidYMid meet">
<metadata>
Created by potrace 1.16, written by Peter Selinger 2001-2019
</metadata>
<g transform="translate(0.000000,192.000000) scale(0.100000,-0.100000)"
fill="#000000" stroke="none">
811 c445 -92 729 -532 635 -987 -62 -301 -295 -546 -601 -630 -91 -26 -329
-26 -420 0 -291 80 -516 305 -596 596 -26 91 -26 329 0 420 120 433 542 692
982 601z"/>
<path d="M766 1352 c-4 -7 76 -154 103 -186 9 -11 36 -16 99 -18 l86 -3 41
-70 41 -70 117 -3 c64 -1 117 1 117 6 0 5 -44 85 -98 178 l-97 169 -202 3
c-111 1 -204 -1 -207 -6z"/>
<path d="M697 1313 c-18 -29 -157 -386 -157 -402 0 -11 40 -88 89 -173 l89
-153 194 -3 193 -2 130 169 c71 94 131 175 133 180 3 8 -65 11 -210 11 -117 0
-218 4 -224 8 -6 4 -55 84 -108 177 -101 175 -120 203 -129 188z"/>
</g>
</svg>
