<?xml version="1.0" standalone="no"?>
<!DOCTYPE svg PUBLIC "-//W3C//DTD SVG 20010904//EN"
 "http://www.w3.org/TR/2001/REC-SVG-20010904/DTD/svg10.dtd">
<svg version="1.0" xmlns="http://www.w3.org/2000/svg"
 width="192.000000pt" height="192.000000pt" viewBox="0 0 192.000000 192.000000"
 preserveAspectRatio="xMidYMid meet">
<metadata>
Created by potrace 1.16, written by Peter Selinger 2001-2019
</metadata>
<g transform="translate(0.000000,192.000000) scale(0.100000,-0.100000)"
fill="#000000" stroke="none">
811 c445 -92 729 -532 635 -987 -62 -301 -295 -546 -601 -630 -91 -26 -329
-26 -420 0 -291 80 -516 305 -596 596 -26 91 -26 329 0 420 120 433 542 692
982 601z"/>
<path d="M904 1366 c-40 -18 -63 -49 -163 -222 -90 -158 -100 -197 -59 -249
30 -39 77 -55 158 -55 38 0 70 -2 70 -5 0 -3 -16 -37 -36 -75 -43 -82 -41
-126 7 -171 42 -39 89 -46 136 -22 33 17 52 44 137 191 105 184 114 213 80
271 -24 41 -79 61 -164 61 -39 0 -70 2 -70 5 0 2 16 33 35 68 19 35 35 77 35
93 0 42 -35 93 -75 110 -42 17 -51 17 -91 0z"/>
</g>
</svg>
