<?xml version="1.0" standalone="no"?>
<!DOCTYPE svg PUBLIC "-//W3C//DTD SVG 20010904//EN"
 "http://www.w3.org/TR/2001/REC-SVG-20010904/DTD/svg10.dtd">
<svg version="1.0" xmlns="http://www.w3.org/2000/svg"
 width="192.000000pt" height="192.000000pt" viewBox="0 0 192.000000 192.000000"
 preserveAspectRatio="xMidYMid meet">
<metadata>
Created by potrace 1.16, written by Peter Selinger 2001-2019
</metadata>
<g transform="translate(0.000000,192.000000) scale(0.100000,-0.100000)"
fill="#000000" stroke="none">
811 c445 -92 729 -532 635 -987 -62 -301 -295 -546 -601 -630 -91 -26 -329
-26 -420 0 -291 80 -516 305 -596 596 -26 91 -26 329 0 420 120 433 542 692
982 601z"/>
<path d="M899 1369 c-64 -7 -154 -45 -209 -89 -104 -82 -163 -239 -141 -372
35 -214 215 -358 431 -346 170 10 312 121 365 287 26 79 18 207 -17 284 -75
161 -247 256 -429 236z m21 -196 c0 -50 -1 -52 -51 -88 -45 -32 -56 -36 -88
-30 -57 11 -69 22 -86 78 l-16 52 40 36 c22 20 55 43 72 52 31 15 34 14 80
-16 48 -31 49 -33 49 -84z m268 48 c35 -32 38 -54 18 -110 -9 -25 -22 -38 -47
-47 -52 -19 -65 -17 -124 22 -54 36 -55 38 -55 85 0 47 1 49 52 83 l51 35 36
-19 c20 -10 51 -32 69 -49z m-377 -298 l21 -63 -29 -40 c-27 -38 -30 -40 -85
-40 -57 0 -58 0 -78 41 -12 22 -23 61 -26 87 -5 46 -4 48 37 78 l42 31 48 -15
c47 -15 49 -17 70 -79z m451 55 c38 -30 40 -33 34 -72 -4 -22 -15 -59 -26 -83
l-19 -43 -59 0 c-58 0 -60 1 -87 41 l-28 40 19 61 c17 54 24 63 54 74 53 19
69 17 112 -18z m-209 -195 l30 -41 -19 -52 c-21 -57 -39 -70 -103 -70 -81 0
-96 8 -114 58 -22 62 -22 67 11 113 l27 39 70 -2 c69 -3 69 -3 98 -45z"/>
</g>
</svg>
