<?xml version="1.0" standalone="no"?>
<!DOCTYPE svg PUBLIC "-//W3C//DTD SVG 20010904//EN"
 "http://www.w3.org/TR/2001/REC-SVG-20010904/DTD/svg10.dtd">
<svg version="1.0" xmlns="http://www.w3.org/2000/svg"
 width="192.000000pt" height="192.000000pt" viewBox="0 0 192.000000 192.000000"
 preserveAspectRatio="xMidYMid meet">
<metadata>
Created by potrace 1.16, written by Peter Selinger 2001-2019
</metadata>
<g transform="translate(0.000000,192.000000) scale(0.100000,-0.100000)"
fill="#000000" stroke="none">
811 c445 -92 729 -532 635 -987 -62 -301 -295 -546 -601 -630 -91 -26 -329
-26 -420 0 -291 80 -516 305 -596 596 -26 91 -26 329 0 420 120 433 542 692
982 601z"/>
<path d="M1212 1337 l-33 -34 -202 -6 -201 -7 -36 35 c-20 19 -39 35 -43 35
-4 0 -7 -55 -6 -122 0 -86 3 -114 9 -94 36 119 204 122 249 4 15 -40 45 -36
68 9 26 52 63 76 118 76 54 0 92 -23 117 -74 l18 -34 0 40 c0 72 -13 205 -20
205 -3 0 -21 -15 -38 -33z"/>
<path d="M749 1181 c-57 -57 -32 -155 46 -181 76 -25 156 54 134 132 -22 80
-122 107 -180 49z m85 -46 c4 -16 13 -25 26 -25 24 0 26 -17 3 -42 -20 -22
-51 -23 -75 -1 -25 22 -23 59 4 77 30 21 35 20 42 -9z"/>
<path d="M1059 1181 c-56 -56 -36 -146 38 -177 72 -30 143 21 143 103 0 36 -6
50 -29 74 -24 24 -38 29 -76 29 -38 0 -52 -5 -76 -29z m81 -41 c0 -13 10 -24
25 -30 14 -5 25 -13 25 -16 0 -17 -35 -44 -56 -44 -48 0 -70 55 -37 92 21 24
43 23 43 -2z"/>
<path d="M945 1053 c-25 -46 -78 -83 -120 -83 -42 0 -96 37 -117 80 -14 27
-18 30 -18 14 0 -12 -29 -83 -65 -159 -36 -75 -65 -143 -65 -150 0 -8 9 -20
21 -28 20 -14 55 -11 102 8 15 6 17 0 17 -59 0 -59 3 -70 26 -93 l26 -26 146
5 c180 6 226 22 301 104 42 46 54 53 83 52 70 -2 74 25 23 138 -30 66 -35 87
-35 153 l0 76 -18 -35 c-21 -43 -75 -80 -117 -80 -43 0 -96 37 -118 83 -24 47
-47 47 -72 0z m46 -120 c37 -22 37 -38 -1 -58 -44 -23 -50 -19 -50 30 0 50 7
54 51 28z"/>
</g>
</svg>
