<?xml version="1.0" standalone="no"?>
<!DOCTYPE svg PUBLIC "-//W3C//DTD SVG 20010904//EN"
 "http://www.w3.org/TR/2001/REC-SVG-20010904/DTD/svg10.dtd">
<svg version="1.0" xmlns="http://www.w3.org/2000/svg"
 width="192.000000pt" height="192.000000pt" viewBox="0 0 192.000000 192.000000"
 preserveAspectRatio="xMidYMid meet">
<metadata>
Created by potrace 1.16, written by Peter Selinger 2001-2019
</metadata>
<g transform="translate(0.000000,192.000000) scale(0.100000,-0.100000)"
fill="#000000" stroke="none">
811 c445 -92 729 -532 635 -987 -62 -301 -295 -546 -601 -630 -91 -26 -329
-26 -420 0 -291 80 -516 305 -596 596 -26 91 -26 329 0 420 120 433 542 692
982 601z"/>
<path d="M870 1370 c-225 -47 -375 -285 -317 -503 32 -123 109 -214 227 -271
61 -29 72 -31 175 -31 104 0 114 2 176 32 121 59 208 177 230 311 31 185 -85
379 -263 442 -67 23 -168 32 -228 20z m186 -127 c74 -25 157 -113 180 -188 42
-148 -25 -294 -165 -359 -69 -31 -179 -28 -246 6 -108 57 -164 147 -165 264 0
59 5 81 31 132 66 133 221 194 365 145z"/>
<path d="M898 1176 c-195 -52 -224 -311 -45 -401 151 -75 316 26 317 193 0 65
-17 107 -61 151 -57 57 -133 78 -211 57z"/>
</g>
</svg>
