<?xml version="1.0" standalone="no"?>
<!DOCTYPE svg PUBLIC "-//W3C//DTD SVG 20010904//EN"
 "http://www.w3.org/TR/2001/REC-SVG-20010904/DTD/svg10.dtd">
<svg version="1.0" xmlns="http://www.w3.org/2000/svg"
 width="192.000000pt" height="192.000000pt" viewBox="0 0 192.000000 192.000000"
 preserveAspectRatio="xMidYMid meet">
<metadata>
Created by potrace 1.16, written by Peter Selinger 2001-2019
</metadata>
<g transform="translate(0.000000,192.000000) scale(0.100000,-0.100000)"
fill="#000000" stroke="none">
811 c445 -92 729 -532 635 -987 -62 -301 -295 -546 -601 -630 -91 -26 -329
-26 -420 0 -291 80 -516 305 -596 596 -26 91 -26 329 0 420 120 433 542 692
982 601z"/>
<path d="M724 1253 c-31 -6 -51 -32 -59 -75 -7 -34 -5 -37 28 -53 40 -19 57
-54 57 -116 l0 -39 210 0 210 0 0 58 c0 48 4 62 23 80 13 12 31 22 40 22 12 0
17 9 17 30 0 45 -20 78 -53 90 -28 9 -425 12 -473 3z"/>
<path d="M576 1069 c-26 -20 -26 -22 -26 -153 0 -143 4 -156 52 -156 26 0 28
-3 28 -39 0 -31 4 -41 20 -46 39 -13 60 3 60 46 l0 39 245 0 245 0 0 -33 c0
-36 15 -57 41 -57 27 0 49 28 49 61 0 24 4 29 24 29 48 0 56 21 56 150 0 113
-1 120 -26 149 -57 68 -144 20 -144 -80 l0 -49 -245 0 -245 0 0 55 c0 46 -4
60 -25 80 -30 31 -73 32 -109 4z"/>
</g>
</svg>
