<?xml version="1.0" standalone="no"?>
<!DOCTYPE svg PUBLIC "-//W3C//DTD SVG 20010904//EN"
 "http://www.w3.org/TR/2001/REC-SVG-20010904/DTD/svg10.dtd">
<svg version="1.0" xmlns="http://www.w3.org/2000/svg"
 width="192.000000pt" height="192.000000pt" viewBox="0 0 192.000000 192.000000"
 preserveAspectRatio="xMidYMid meet">
<metadata>
Created by potrace 1.16, written by Peter Selinger 2001-2019
</metadata>
<g transform="translate(0.000000,192.000000) scale(0.100000,-0.100000)"
fill="#000000" stroke="none">
811 c445 -92 729 -532 635 -987 -62 -301 -295 -546 -601 -630 -91 -26 -329
-26 -420 0 -291 80 -516 305 -596 596 -26 91 -26 329 0 420 120 433 542 692
982 601z"/>
<path d="M670 1323 c-27 -10 -59 -46 -70 -78 -19 -57 25 -129 85 -141 67 -12
135 43 135 111 0 74 -82 133 -150 108z"/>
<path d="M920 1323 c-27 -10 -59 -46 -70 -78 -19 -57 25 -129 85 -141 67 -12
135 43 135 111 0 74 -82 133 -150 108z"/>
<path d="M1170 1323 c-27 -10 -59 -46 -70 -78 -19 -57 25 -129 85 -141 67 -12
135 43 135 111 0 74 -82 133 -150 108z m95 -48 c52 -51 16 -145 -55 -145 -40
0 -90 47 -90 85 0 16 12 38 29 56 38 37 82 39 116 4z"/>
<path d="M670 1073 c-27 -10 -59 -46 -70 -78 -19 -57 25 -129 85 -141 67 -12
135 43 135 111 0 74 -82 133 -150 108z"/>
<path d="M920 1073 c-27 -10 -59 -46 -70 -78 -19 -57 25 -129 85 -141 67 -12
135 43 135 111 0 73 -83 133 -150 108z m95 -48 c52 -51 16 -145 -55 -145 -40
0 -90 47 -90 85 0 16 12 38 29 56 38 37 82 39 116 4z"/>
<path d="M1170 1073 c-27 -10 -59 -46 -70 -78 -19 -57 25 -129 85 -141 67 -12
135 43 135 111 0 74 -82 133 -150 108z"/>
<path d="M670 823 c-27 -10 -59 -46 -70 -78 -19 -57 25 -129 85 -141 67 -12
135 43 135 111 0 74 -82 133 -150 108z m95 -48 c52 -51 16 -145 -55 -145 -40
0 -90 47 -90 85 0 16 12 38 29 56 38 37 82 39 116 4z"/>
<path d="M920 823 c-27 -10 -59 -46 -70 -78 -12 -37 -1 -77 32 -112 63 -67
188 -12 188 82 0 73 -83 133 -150 108z"/>
<path d="M1170 823 c-27 -10 -59 -46 -70 -78 -12 -37 -1 -77 32 -112 63 -67
188 -12 188 82 0 74 -82 133 -150 108z"/>
</g>
</svg>
