<?xml version="1.0" standalone="no"?>
<!DOCTYPE svg PUBLIC "-//W3C//DTD SVG 20010904//EN"
 "http://www.w3.org/TR/2001/REC-SVG-20010904/DTD/svg10.dtd">
<svg version="1.0" xmlns="http://www.w3.org/2000/svg"
 width="192.000000pt" height="192.000000pt" viewBox="0 0 192.000000 192.000000"
 preserveAspectRatio="xMidYMid meet">
<metadata>
Created by potrace 1.16, written by Peter Selinger 2001-2019
</metadata>
<g transform="translate(0.000000,192.000000) scale(0.100000,-0.100000)"
fill="#000000" stroke="none">
811 c445 -92 729 -532 635 -987 -62 -301 -295 -546 -601 -630 -91 -26 -329
-26 -420 0 -291 80 -516 305 -596 596 -26 91 -26 329 0 420 120 433 542 692
982 601z"/>
<path d="M962 1378 c-15 -15 -15 -61 0 -76 28 -28 88 -2 88 38 0 40 -60 66
-88 38z"/>
<path d="M843 1325 c-65 -20 -124 -58 -176 -114 -50 -54 -78 -106 -70 -128 8
-21 58 -43 98 -43 36 0 95 24 95 38 0 5 15 25 34 45 29 32 40 37 78 37 25 0
71 -9 103 -20 32 -11 73 -20 91 -20 53 0 113 29 130 62 15 29 14 30 -20 63
-19 18 -56 43 -81 55 l-46 22 -28 -26 c-15 -14 -38 -26 -52 -26 -33 0 -69 26
-69 51 0 23 -25 24 -87 4z"/>
<path d="M1239 1125 c-64 -58 -163 -66 -271 -20 -60 25 -77 20 -132 -40 -28
-30 -64 -59 -79 -65 -43 -16 -99 -12 -140 9 l-38 19 -10 -26 c-18 -47 -9 -56
48 -53 70 3 149 -14 258 -56 90 -36 135 -65 135 -90 0 -17 4 -18 -90 22 -131
56 -209 76 -281 73 l-64 -3 1 -32 c3 -51 43 -123 103 -183 124 -124 291 -151
448 -75 61 30 135 101 163 155 23 45 17 54 -22 34 -38 -20 -124 -33 -156 -25
-23 6 -24 8 -8 24 10 9 29 17 44 17 43 0 94 18 145 50 l47 30 0 59 c0 62 -31
181 -53 199 -9 8 -22 1 -48 -23z"/>
</g>
</svg>
