<?xml version="1.0" standalone="no"?>
<!DOCTYPE svg PUBLIC "-//W3C//DTD SVG 20010904//EN"
 "http://www.w3.org/TR/2001/REC-SVG-20010904/DTD/svg10.dtd">
<svg version="1.0" xmlns="http://www.w3.org/2000/svg"
 width="192.000000pt" height="192.000000pt" viewBox="0 0 192.000000 192.000000"
 preserveAspectRatio="xMidYMid meet">
<metadata>
Created by potrace 1.16, written by Peter Selinger 2001-2019
</metadata>
<g transform="translate(0.000000,192.000000) scale(0.100000,-0.100000)"
fill="#000000" stroke="none">
810 c149 -35 263 -99 377 -209 169 -163 247 -351 247 -596 0 -245 -78 -433
-247 -596 -165 -159 -340 -229 -578 -229 -238 0 -413 70 -578 229 -169 163
-247 351 -247 596 0 238 70 413 229 578 111 115 239 190 390 227 107 26 298
26 407 0z"/>
<path d="M788 1343 c-9 -10 -23 -36 -32 -58 -23 -55 -43 -74 -103 -101 -29
-13 -60 -35 -69 -48 -15 -24 -15 -29 5 -88 26 -77 26 -89 0 -166 -19 -58 -20
-64 -5 -87 9 -13 37 -33 63 -45 62 -27 82 -46 105 -100 36 -83 63 -95 148 -65
54 19 101 19 147 0 48 -20 96 -19 115 3 9 9 23 35 32 57 23 55 43 74 103 101
29 13 60 35 69 48 15 24 15 29 -5 88 -26 77 -26 89 0 166 20 59 20 64 4 88 -9
14 -37 34 -63 45 -62 27 -81 45 -104 99 -36 83 -63 95 -148 65 -23 -8 -57 -15
-75 -15 -18 0 -49 7 -68 15 -49 20 -100 19 -119 -2z m90 -375 l3 -138 -26 0
-25 0 0 110 c0 91 -3 110 -15 110 -10 0 -15 10 -15 31 0 29 2 30 38 27 l37 -3
3 -137z m220 129 c7 -8 10 -61 9 -137 l-2 -125 -80 0 -80 0 -2 125 c-2 69 -1
131 2 138 6 17 139 17 153 -1z"/>
<path d="M1000 1025 c0 -20 5 -25 25 -25 20 0 25 5 25 25 0 20 -5 25 -25 25
-20 0 -25 -5 -25 -25z"/>
<path d="M1000 915 c0 -20 5 -25 25 -25 20 0 25 5 25 25 0 20 -5 25 -25 25
-20 0 -25 -5 -25 -25z"/>
</g>
</svg>
