<?xml version="1.0" standalone="no"?>
<!DOCTYPE svg PUBLIC "-//W3C//DTD SVG 20010904//EN"
 "http://www.w3.org/TR/2001/REC-SVG-20010904/DTD/svg10.dtd">
<svg version="1.0" xmlns="http://www.w3.org/2000/svg"
 width="192.000000pt" height="192.000000pt" viewBox="0 0 192.000000 192.000000"
 preserveAspectRatio="xMidYMid meet">
<metadata>
Created by potrace 1.16, written by Peter Selinger 2001-2019
</metadata>
<g transform="translate(0.000000,192.000000) scale(0.100000,-0.100000)"
fill="#000000" stroke="none">
810 c149 -35 263 -99 377 -209 169 -163 247 -351 247 -596 0 -245 -78 -433
-247 -596 -165 -159 -340 -229 -578 -229 -238 0 -413 70 -578 229 -169 163
-247 351 -247 596 0 238 70 413 229 578 111 115 239 190 390 227 107 26 298
26 407 0z"/>
<path d="M768 1343 c-9 -10 -23 -36 -32 -58 -23 -55 -43 -74 -103 -101 -29
-13 -60 -35 -69 -48 -15 -24 -15 -29 5 -88 26 -77 26 -89 0 -166 -19 -58 -20
-64 -5 -87 9 -13 37 -33 63 -45 62 -27 82 -46 105 -100 36 -83 63 -95 148 -65
54 19 101 19 147 0 48 -20 96 -19 115 3 9 9 23 35 32 57 23 55 43 74 103 101
29 13 60 35 69 48 15 24 15 29 -5 88 -26 77 -26 89 0 166 20 59 20 64 4 88 -9
14 -37 34 -63 45 -62 27 -81 45 -104 99 -36 83 -63 95 -148 65 -23 -8 -57 -15
-75 -15 -18 0 -49 7 -68 15 -49 20 -100 19 -119 -2z m151 -247 c8 -9 11 -55 9
-137 l-3 -124 -80 0 -80 0 -3 124 c-1 69 0 131 2 138 8 19 139 18 155 -1z
m131 -41 c0 -52 1 -55 25 -55 24 0 25 3 25 55 0 54 0 55 30 55 l30 0 0 -140 0
-140 -30 0 c-30 0 -30 1 -30 54 l0 55 -52 3 -53 3 -3 83 -3 82 31 0 c30 0 30
0 30 -55z"/>
<path d="M820 970 c0 -79 0 -80 25 -80 25 0 25 1 25 80 0 79 0 80 -25 80 -25
0 -25 -1 -25 -80z"/>
</g>
</svg>
