<?xml version="1.0" standalone="no"?>
<!DOCTYPE svg PUBLIC "-//W3C//DTD SVG 20010904//EN"
 "http://www.w3.org/TR/2001/REC-SVG-20010904/DTD/svg10.dtd">
<svg version="1.0" xmlns="http://www.w3.org/2000/svg"
 width="192.000000pt" height="192.000000pt" viewBox="0 0 192.000000 192.000000"
 preserveAspectRatio="xMidYMid meet">
<metadata>
Created by potrace 1.16, written by Peter Selinger 2001-2019
</metadata>
<g transform="translate(0.000000,192.000000) scale(0.100000,-0.100000)"
fill="#000000" stroke="none">
810 c149 -35 263 -99 377 -209 169 -163 247 -351 247 -596 0 -245 -78 -433
-247 -596 -165 -159 -340 -229 -578 -229 -238 0 -413 70 -578 229 -169 163
-247 351 -247 596 0 238 70 413 229 578 111 115 239 190 390 227 107 26 298
26 407 0z"/>
<path d="M768 1343 c-9 -10 -23 -36 -32 -58 -23 -55 -43 -74 -103 -101 -29
-13 -60 -35 -69 -48 -15 -24 -15 -29 5 -88 26 -77 26 -89 0 -166 -19 -58 -20
-64 -5 -87 9 -13 37 -33 63 -45 62 -27 82 -46 105 -100 36 -83 63 -95 148 -65
54 19 101 19 147 0 48 -20 96 -19 115 3 9 9 23 35 32 57 23 55 43 74 103 101
29 13 60 35 69 48 15 24 15 29 -5 88 -26 77 -26 89 0 166 20 59 20 64 4 88 -9
14 -37 34 -63 45 -62 27 -81 45 -104 99 -36 83 -63 95 -148 65 -23 -8 -57 -15
-75 -15 -18 0 -49 7 -68 15 -49 20 -100 19 -119 -2z m150 -245 c12 -12 17
-114 6 -142 -4 -12 -20 -16 -55 -16 -45 0 -49 -2 -49 -24 0 -23 4 -25 53 -28
48 -3 52 -5 55 -30 l3 -28 -86 0 -86 0 3 83 3 82 53 3 c48 3 52 5 52 28 0 19
-5 24 -25 24 -14 0 -25 -4 -25 -10 0 -5 -13 -10 -30 -10 -27 0 -30 3 -30 33 0
19 3 37 7 40 11 12 138 8 151 -5z m232 -18 c0 -30 -1 -30 -55 -30 -52 0 -55
-1 -55 -25 0 -23 4 -25 44 -25 58 0 68 -14 64 -97 l-3 -68 -80 0 -80 0 -3 38
c-3 35 -2 37 27 37 17 0 31 -4 31 -10 0 -5 11 -10 25 -10 20 0 25 5 25 25 0
24 -3 25 -55 25 l-55 0 0 85 0 85 85 0 85 0 0 -30z"/>
</g>
</svg>
