<?xml version="1.0" standalone="no"?>
<!DOCTYPE svg PUBLIC "-//W3C//DTD SVG 20010904//EN"
 "http://www.w3.org/TR/2001/REC-SVG-20010904/DTD/svg10.dtd">
<svg version="1.0" xmlns="http://www.w3.org/2000/svg"
 width="192.000000pt" height="192.000000pt" viewBox="0 0 192.000000 192.000000"
 preserveAspectRatio="xMidYMid meet">
<metadata>
Created by potrace 1.16, written by Peter Selinger 2001-2019
</metadata>
<g transform="translate(0.000000,192.000000) scale(0.100000,-0.100000)"
fill="#000000" stroke="none">
811 c445 -92 729 -532 635 -987 -62 -301 -295 -546 -601 -630 -91 -26 -329
-26 -420 0 -291 80 -516 305 -596 596 -26 91 -26 329 0 420 120 433 542 692
982 601z"/>
<path d="M882 1369 c-217 -37 -372 -255 -333 -468 17 -92 55 -162 122 -226 79
-75 150 -106 259 -112 70 -4 96 -1 149 17 114 38 195 110 249 220 24 50 27 66
27 165 0 98 -3 116 -27 167 -79 170 -264 268 -446 237z m334 -144 c4 -8 -4
-40 -16 -71 -21 -51 -22 -60 -10 -109 30 -125 -10 -233 -108 -292 -66 -39
-131 -49 -195 -29 -122 37 -195 140 -185 260 14 164 176 270 334 217 39 -13
45 -12 95 12 64 30 78 32 85 12z"/>
<path d="M875 1134 c-71 -37 -105 -91 -105 -169 0 -61 31 -119 82 -152 57 -38
148 -39 200 -4 121 83 115 256 -13 321 -46 24 -122 26 -164 4z"/>
</g>
</svg>
