<?xml version="1.0" standalone="no"?>
<!DOCTYPE svg PUBLIC "-//W3C//DTD SVG 20010904//EN"
 "http://www.w3.org/TR/2001/REC-SVG-20010904/DTD/svg10.dtd">
<svg version="1.0" xmlns="http://www.w3.org/2000/svg"
 width="192.000000pt" height="192.000000pt" viewBox="0 0 192.000000 192.000000"
 preserveAspectRatio="xMidYMid meet">
<metadata>
Created by potrace 1.16, written by Peter Selinger 2001-2019
</metadata>
<g transform="translate(0.000000,192.000000) scale(0.100000,-0.100000)"
fill="#000000" stroke="none">
811 c445 -92 729 -532 635 -987 -62 -301 -295 -546 -601 -630 -91 -26 -329
-26 -420 0 -291 80 -516 305 -596 596 -26 91 -26 329 0 420 120 433 542 692
982 601z"/>
<path d="M833 1356 c-105 -34 -195 -117 -247 -225 -28 -60 -31 -75 -31 -166 0
-92 3 -106 32 -167 124 -262 449 -324 649 -124 63 64 101 138 117 231 29 169
-69 354 -228 430 -51 24 -75 29 -155 32 -61 2 -110 -2 -137 -11z m255 -105
l43 -22 -22 -37 c-57 -94 -72 -115 -105 -152 -44 -49 -83 -59 -127 -31 -18 11
-42 34 -55 50 -45 62 -73 31 -47 -51 40 -123 140 -278 180 -278 45 0 167 222
210 382 21 79 29 78 72 -11 22 -46 27 -70 27 -136 1 -68 -3 -89 -27 -137 -34
-70 -110 -140 -174 -162 -60 -21 -156 -20 -217 0 -64 22 -147 100 -177 166
-32 72 -33 192 -2 259 31 68 90 128 158 161 54 26 68 29 140 25 57 -2 92 -10
123 -26z"/>
</g>
</svg>
