<?xml version="1.0" standalone="no"?>
<!DOCTYPE svg PUBLIC "-//W3C//DTD SVG 20010904//EN"
 "http://www.w3.org/TR/2001/REC-SVG-20010904/DTD/svg10.dtd">
<svg version="1.0" xmlns="http://www.w3.org/2000/svg"
 width="192.000000pt" height="192.000000pt" viewBox="0 0 192.000000 192.000000"
 preserveAspectRatio="xMidYMid meet">
<metadata>
Created by potrace 1.16, written by Peter Selinger 2001-2019
</metadata>
<g transform="translate(0.000000,192.000000) scale(0.100000,-0.100000)"
fill="#000000" stroke="none">
811 c445 -92 729 -532 635 -987 -62 -301 -295 -546 -601 -630 -91 -26 -329
-26 -420 0 -291 80 -516 305 -596 596 -26 91 -26 329 0 420 120 433 542 692
982 601z"/>
<path d="M835 1363 c-117 -42 -206 -120 -251 -218 -116 -253 33 -538 306 -587
172 -30 360 73 438 239 24 52 27 69 27 168 0 103 -2 114 -32 177 -41 87 -114
160 -199 200 -85 40 -211 49 -289 21z m-71 -222 c10 -9 32 -36 47 -60 21 -33
26 -48 19 -62 -13 -24 -13 -141 0 -175 10 -25 12 -26 27 -12 8 9 18 37 20 62
l6 47 21 -21 c28 -26 66 -26 100 1 l26 20 0 -43 c0 -24 6 -52 13 -62 12 -16
14 -16 26 -2 19 22 26 126 11 170 -11 33 -9 40 17 84 38 61 90 89 130 70 83
-39 82 -207 -2 -305 -48 -56 -106 -78 -182 -68 -73 9 -113 9 -184 0 -73 -9
-117 5 -168 56 -48 48 -71 111 -71 194 0 48 5 68 21 89 36 46 81 52 123 17z
m94 -187 c-2 -22 -7 -39 -13 -39 -12 0 -19 60 -10 83 10 28 27 -3 23 -44z
m214 31 c6 -31 -1 -75 -13 -75 -5 0 -9 23 -9 50 0 52 14 68 22 25z"/>
</g>
</svg>
