<?xml version="1.0" standalone="no"?>
<!DOCTYPE svg PUBLIC "-//W3C//DTD SVG 20010904//EN"
 "http://www.w3.org/TR/2001/REC-SVG-20010904/DTD/svg10.dtd">
<svg version="1.0" xmlns="http://www.w3.org/2000/svg"
 width="192.000000pt" height="192.000000pt" viewBox="0 0 192.000000 192.000000"
 preserveAspectRatio="xMidYMid meet">
<metadata>
Created by potrace 1.16, written by Peter Selinger 2001-2019
</metadata>
<g transform="translate(0.000000,192.000000) scale(0.100000,-0.100000)"
fill="#000000" stroke="none">
811 c445 -92 729 -532 635 -987 -62 -301 -295 -546 -601 -630 -91 -26 -329
-26 -420 0 -291 80 -516 305 -596 596 -26 91 -26 329 0 420 120 433 542 692
982 601z"/>
<path d="M444 1086 c-3 -7 -4 -42 -2 -77 l3 -64 53 -3 c50 -3 52 -4 52 -33 0
-24 -4 -29 -25 -29 -13 0 -28 7 -33 16 -5 9 -18 14 -28 12 -14 -2 -19 -12 -19
-38 l0 -35 75 0 75 0 3 77 3 77 -53 3 c-50 3 -53 5 -56 31 -3 24 0 27 24 27
15 0 32 -7 39 -17 20 -27 45 -9 45 32 l0 35 -75 0 c-54 0 -77 -4 -81 -14z"/>
<path d="M662 968 l3 -133 75 0 75 0 0 130 0 130 -78 3 -78 3 3 -133z m106 0
c-3 -82 -3 -83 -30 -86 l-28 -3 0 85 0 86 30 0 31 0 -3 -82z"/>
<path d="M874 1087 c-2 -7 -3 -67 -2 -133 l3 -119 25 0 c25 0 25 0 28 108 3
106 3 107 27 107 24 0 24 -1 27 -107 3 -108 3 -108 28 -108 25 0 25 0 28 110
4 160 7 155 -84 155 -52 0 -76 -4 -80 -13z"/>
<path d="M1094 1087 c-2 -7 -3 -67 -2 -133 l3 -119 75 0 75 0 3 133 3 132 -76
0 c-53 0 -77 -4 -81 -13z m106 -123 l0 -85 -27 3 c-28 3 -28 4 -31 86 l-3 82
31 0 30 0 0 -86z"/>
<path d="M1312 1023 l3 -78 53 -3 c51 -3 53 -4 50 -30 -2 -21 -9 -28 -30 -30
-20 -2 -28 1 -28 12 0 10 -9 16 -26 16 -23 0 -25 -3 -22 -37 l3 -38 75 0 75 0
0 75 0 75 -52 3 c-51 3 -53 4 -53 33 0 26 3 29 30 29 21 0 30 -5 30 -16 0 -10
7 -14 23 -12 18 2 22 9 22 38 l0 35 -78 3 -78 3 3 -78z"/>
</g>
</svg>
