<?xml version="1.0" standalone="no"?>
<!DOCTYPE svg PUBLIC "-//W3C//DTD SVG 20010904//EN"
 "http://www.w3.org/TR/2001/REC-SVG-20010904/DTD/svg10.dtd">
<svg version="1.0" xmlns="http://www.w3.org/2000/svg"
 width="192.000000pt" height="192.000000pt" viewBox="0 0 192.000000 192.000000"
 preserveAspectRatio="xMidYMid meet">
<metadata>
Created by potrace 1.16, written by Peter Selinger 2001-2019
</metadata>
<g transform="translate(0.000000,192.000000) scale(0.100000,-0.100000)"
fill="#000000" stroke="none">
811 c445 -92 729 -532 635 -987 -62 -301 -295 -546 -601 -630 -91 -26 -329
-26 -420 0 -291 80 -516 305 -596 596 -26 91 -26 329 0 420 120 433 542 692
982 601z"/>
<path d="M810 1350 c-124 -45 -226 -146 -224 -223 2 -56 86 -207 115 -207 27
0 24 11 -26 100 -25 44 -45 92 -45 107 0 31 15 61 25 51 3 -3 28 -62 54 -129
39 -100 53 -125 70 -127 11 -2 21 1 21 6 0 6 -25 74 -56 153 -53 137 -55 143
-37 160 40 39 45 32 92 -146 41 -152 48 -170 69 -173 12 -2 22 -2 22 0 0 2
-22 87 -49 189 l-49 186 34 11 c25 7 34 7 34 -1 0 -7 9 -95 20 -197 11 -102
20 -186 20 -187 0 -2 9 -3 20 -3 25 0 25 10 1 230 -10 91 -16 168 -14 173 2 4
27 7 54 7 l50 0 -5 -42 c-8 -55 -36 -336 -36 -354 0 -8 9 -14 19 -14 24 0 25
6 47 226 l17 172 31 -11 c17 -5 32 -11 33 -12 1 0 -19 -83 -46 -183 -26 -100
-45 -184 -43 -187 3 -3 13 -5 22 -5 13 0 26 35 60 168 24 92 46 171 50 175 4
5 20 -2 35 -16 l28 -24 -56 -144 c-32 -80 -57 -149 -57 -153 0 -4 10 -6 22 -4
19 2 31 25 72 131 40 103 52 125 62 116 25 -21 15 -70 -31 -151 -25 -44 -45
-84 -45 -90 0 -5 10 -8 22 -6 32 4 112 149 113 203 0 82 -108 186 -234 226
-84 26 -207 25 -281 -1z"/>
<path d="M621 883 c-24 -30 -20 -58 11 -85 18 -16 49 -18 320 -18 295 0 330 3
350 34 14 20 8 56 -12 76 -19 19 -33 20 -334 20 l-315 0 -20 -27z"/>
<path d="M680 690 c0 -73 3 -83 25 -105 l24 -25 228 0 c171 1 232 4 245 14 26
19 38 61 38 132 l0 64 -280 0 -280 0 0 -80z"/>
</g>
</svg>
