<?xml version="1.0" standalone="no"?>
<!DOCTYPE svg PUBLIC "-//W3C//DTD SVG 20010904//EN"
 "http://www.w3.org/TR/2001/REC-SVG-20010904/DTD/svg10.dtd">
<svg version="1.0" xmlns="http://www.w3.org/2000/svg"
 width="192.000000pt" height="192.000000pt" viewBox="0 0 192.000000 192.000000"
 preserveAspectRatio="xMidYMid meet">
<metadata>
Created by potrace 1.16, written by Peter Selinger 2001-2019
</metadata>
<g transform="translate(0.000000,192.000000) scale(0.100000,-0.100000)"
fill="#000000" stroke="none">
811 c445 -92 729 -532 635 -987 -62 -301 -295 -546 -601 -630 -91 -26 -329
-26 -420 0 -291 80 -516 305 -596 596 -26 91 -26 329 0 420 120 433 542 692
982 601z"/>
<path d="M1017 1366 c-67 -25 -116 -64 -147 -118 -39 -70 -47 -127 -28 -201
14 -53 14 -59 -1 -64 -61 -22 -120 -104 -121 -168 0 -30 0 -30 -50 -27 -46 4
-53 1 -85 -31 -29 -29 -35 -42 -35 -76 0 -23 7 -55 15 -70 15 -31 69 -61 107
-61 34 0 87 36 100 67 7 16 13 29 13 31 1 1 24 -7 50 -19 122 -54 265 34 267
165 l1 45 54 11 c146 31 241 189 199 334 -20 67 -77 136 -140 168 -51 26 -148
33 -199 14z m69 -102 c-3 -26 -6 -64 -6 -85 0 -27 -4 -39 -14 -39 -15 0 -26
21 -26 49 0 9 -9 35 -20 56 -19 38 -19 41 -3 52 9 7 30 13 46 13 30 0 30 0 23
-46z m99 32 c37 -16 44 -36 21 -55 -8 -6 -23 -34 -35 -61 -12 -28 -26 -50 -31
-50 -6 0 -10 20 -10 44 0 49 11 136 17 136 2 0 19 -7 38 -14z m-201 -93 c9
-26 16 -48 16 -50 0 -2 -23 -3 -51 -3 -43 0 -50 3 -45 16 3 9 6 19 6 23 0 12
40 61 50 61 4 0 15 -21 24 -47z m299 -8 c9 -20 17 -45 17 -57 0 -18 -4 -20
-41 -15 -22 3 -44 8 -47 12 -7 7 37 95 48 95 3 0 14 -16 23 -35z m-293 -105
c0 -19 -27 -75 -42 -88 -13 -10 -18 -7 -32 22 -9 19 -16 43 -16 55 0 18 6 21
45 21 25 0 45 -5 45 -10z m80 -22 c0 -13 -3 -53 -7 -91 -5 -63 -7 -67 -27 -61
-12 4 -31 13 -43 21 l-22 15 29 39 c16 22 32 53 35 70 8 34 35 40 35 7z m80
-5 c0 -10 11 -43 24 -75 l23 -56 -24 -11 c-40 -18 -63 -14 -63 13 0 70 14 146
26 146 8 0 14 -8 14 -17z m149 1 c6 -5 -43 -87 -55 -91 -12 -4 -44 65 -44 93
0 13 8 14 48 8 26 -3 49 -8 51 -10z"/>
</g>
</svg>
