<?xml version="1.0" standalone="no"?>
<!DOCTYPE svg PUBLIC "-//W3C//DTD SVG 20010904//EN"
 "http://www.w3.org/TR/2001/REC-SVG-20010904/DTD/svg10.dtd">
<svg version="1.0" xmlns="http://www.w3.org/2000/svg"
 width="192.000000pt" height="192.000000pt" viewBox="0 0 192.000000 192.000000"
 preserveAspectRatio="xMidYMid meet">
<metadata>
Created by potrace 1.16, written by Peter Selinger 2001-2019
</metadata>
<g transform="translate(0.000000,192.000000) scale(0.100000,-0.100000)"
fill="#000000" stroke="none">
811 c445 -92 729 -532 635 -987 -62 -301 -295 -546 -601 -630 -91 -26 -329
-26 -420 0 -291 80 -516 305 -596 596 -26 91 -26 329 0 420 120 433 542 692
982 601z"/>
<path d="M756 1368 c-51 -14 -123 -85 -131 -130 -3 -18 -5 -153 -3 -300 l3
-266 31 -38 c58 -72 84 -79 299 -79 178 0 193 1 232 23 24 12 55 41 70 64 l28
42 0 281 0 281 -28 42 c-15 23 -46 52 -70 64 -38 20 -57 23 -217 25 -102 1
-191 -3 -214 -9z m368 -160 c20 -28 20 -43 0 -62 -12 -12 -38 -16 -114 -16
-109 0 -130 -9 -130 -59 0 -42 17 -51 92 -51 130 0 168 -37 168 -160 0 -138
-30 -160 -219 -160 -128 0 -131 0 -147 25 -15 23 -15 27 0 50 16 24 21 25 121
25 117 0 135 9 135 64 0 47 -15 56 -93 56 -126 0 -167 38 -167 155 0 131 31
154 212 155 120 0 128 -1 142 -22z"/>
</g>
</svg>
