<?xml version="1.0" standalone="no"?>
<!DOCTYPE svg PUBLIC "-//W3C//DTD SVG 20010904//EN"
 "http://www.w3.org/TR/2001/REC-SVG-20010904/DTD/svg10.dtd">
<svg version="1.0" xmlns="http://www.w3.org/2000/svg"
 width="192.000000pt" height="192.000000pt" viewBox="0 0 192.000000 192.000000"
 preserveAspectRatio="xMidYMid meet">
<metadata>
Created by potrace 1.16, written by Peter Selinger 2001-2019
</metadata>
<g transform="translate(0.000000,192.000000) scale(0.100000,-0.100000)"
fill="#000000" stroke="none">
811 c445 -92 729 -532 635 -987 -62 -301 -295 -546 -601 -630 -91 -26 -329
-26 -420 0 -291 80 -516 305 -596 596 -26 91 -26 329 0 420 120 433 542 692
982 601z"/>
<path d="M870 1369 c-69 -14 -150 -58 -206 -113 -200 -201 -143 -532 115 -659
l65 -32 225 0 c201 0 225 2 235 17 9 14 4 24 -27 56 l-37 38 25 24 c14 13 40
54 58 89 30 62 32 72 32 176 0 105 -2 114 -33 178 -85 171 -266 262 -452 226z
m143 -99 c60 -47 53 -141 -13 -175 -90 -46 -185 55 -136 144 28 51 104 67 149
31z m-202 -169 c74 -75 -6 -209 -103 -172 -45 17 -68 50 -68 99 0 93 105 138
171 73z m430 0 c93 -94 -45 -238 -141 -146 -24 23 -30 37 -30 73 0 93 105 138
171 73z m-370 -237 c42 -21 64 -75 49 -119 -15 -44 -41 -66 -89 -72 -36 -5
-44 -2 -76 30 -42 42 -47 89 -14 131 36 46 80 56 130 30z m269 -1 c88 -51 50
-193 -51 -193 -28 0 -77 27 -89 49 -13 25 -13 87 0 111 13 24 57 49 88 50 13
0 37 -7 52 -17z"/>
</g>
</svg>
