<?xml version="1.0" standalone="no"?>
<!DOCTYPE svg PUBLIC "-//W3C//DTD SVG 20010904//EN"
 "http://www.w3.org/TR/2001/REC-SVG-20010904/DTD/svg10.dtd">
<svg version="1.0" xmlns="http://www.w3.org/2000/svg"
 width="192.000000pt" height="192.000000pt" viewBox="0 0 192.000000 192.000000"
 preserveAspectRatio="xMidYMid meet">
<metadata>
Created by potrace 1.16, written by Peter Selinger 2001-2019
</metadata>
<g transform="translate(0.000000,192.000000) scale(0.100000,-0.100000)"
fill="#000000" stroke="none">
811 c445 -92 729 -532 635 -987 -62 -301 -295 -546 -601 -630 -91 -26 -329
-26 -420 0 -291 80 -516 305 -596 596 -26 91 -26 329 0 420 120 433 542 692
982 601z"/>
<path d="M773 1240 c-87 -18 -176 -88 -208 -164 -39 -93 -24 -207 38 -287 68
-89 200 -130 304 -96 43 14 54 14 88 2 99 -35 214 -5 288 74 60 64 79 110 80
193 0 115 -64 213 -172 261 -52 23 -153 27 -199 8 -26 -11 -41 -10 -95 3 -35
9 -67 16 -73 15 -5 -1 -28 -5 -51 -9z m402 -69 c109 -50 166 -188 122 -294
-41 -97 -153 -160 -251 -141 l-34 6 34 44 c35 47 64 127 64 179 0 54 -28 129
-64 172 -20 22 -32 43 -29 47 14 13 119 5 158 -13z"/>
</g>
</svg>
