<?xml version="1.0" standalone="no"?>
<!DOCTYPE svg PUBLIC "-//W3C//DTD SVG 20010904//EN"
 "http://www.w3.org/TR/2001/REC-SVG-20010904/DTD/svg10.dtd">
<svg version="1.0" xmlns="http://www.w3.org/2000/svg"
 width="192.000000pt" height="192.000000pt" viewBox="0 0 192.000000 192.000000"
 preserveAspectRatio="xMidYMid meet">
<metadata>
Created by potrace 1.16, written by Peter Selinger 2001-2019
</metadata>
<g transform="translate(0.000000,192.000000) scale(0.100000,-0.100000)"
fill="#000000" stroke="none">
811 c445 -92 729 -532 635 -987 -62 -301 -295 -546 -601 -630 -91 -26 -329
-26 -420 0 -291 80 -516 305 -596 596 -26 91 -26 329 0 420 120 433 542 692
982 601z"/>
<path d="M870 1369 c-69 -14 -150 -58 -206 -113 -200 -201 -143 -532 115 -659
62 -30 72 -32 176 -32 97 0 116 3 165 26 82 38 163 118 202 197 31 63 33 72
33 177 0 105 -2 114 -33 178 -85 171 -266 262 -452 226z m225 -121 c68 -35
102 -72 86 -92 -22 -26 -119 -87 -179 -112 -31 -13 -52 -23 -45 -24 7 0 10 -7
6 -17 -3 -10 4 -6 16 10 12 15 28 27 34 27 7 0 42 18 79 39 47 27 65 34 61 22
-3 -9 4 -1 16 17 11 17 27 32 35 32 7 0 24 -21 37 -47 34 -69 34 -207 1 -276
-35 -69 -102 -132 -170 -157 -75 -29 -195 -25 -260 9 -55 28 -115 88 -143 143
-28 54 -37 169 -19 233 25 91 113 182 203 211 66 22 181 13 242 -18z"/>
<path d="M721 1088 c0 -7 4 -22 8 -33 6 -14 2 -29 -13 -48 -23 -31 -17 -40 34
-54 14 -3 30 -12 35 -20 16 -22 55 11 55 48 0 18 -5 28 -12 27 -8 -2 -12 6
-10 20 6 39 -23 72 -63 72 -22 0 -35 -5 -34 -12z"/>
<path d="M1132 1023 c-2 -31 -5 -33 -36 -33 -39 0 -66 -28 -66 -68 0 -21 4
-24 30 -20 17 3 30 1 30 -2 0 -4 10 -19 21 -34 l22 -27 18 28 c27 41 25 81 -6
95 -16 7 -21 14 -15 18 7 4 10 22 7 41 l-4 34 -1 -32z"/>
<path d="M918 1013 c7 -3 16 -2 19 1 4 3 -2 6 -13 5 -11 0 -14 -3 -6 -6z"/>
<path d="M942 930 c0 -14 2 -19 5 -12 2 6 2 18 0 25 -3 6 -5 1 -5 -13z"/>
<path d="M842 893 c-7 -3 -19 -18 -27 -34 l-15 -29 41 -6 c35 -6 40 -10 35
-27 -3 -12 2 -36 11 -54 l16 -34 28 27 c29 28 39 79 20 100 -5 5 -11 23 -14
39 l-4 30 -2 -32 c0 -18 -5 -33 -11 -33 -5 0 -7 7 -3 16 11 29 -37 53 -75 37z"/>
<path d="M950 871 c0 -11 28 -41 38 -41 4 0 13 4 21 9 12 8 12 12 2 25 -14 17
-61 22 -61 7z"/>
</g>
</svg>
