<?xml version="1.0" standalone="no"?>
<!DOCTYPE svg PUBLIC "-//W3C//DTD SVG 20010904//EN"
 "http://www.w3.org/TR/2001/REC-SVG-20010904/DTD/svg10.dtd">
<svg version="1.0" xmlns="http://www.w3.org/2000/svg"
 width="192.000000pt" height="192.000000pt" viewBox="0 0 192.000000 192.000000"
 preserveAspectRatio="xMidYMid meet">
<metadata>
Created by potrace 1.16, written by Peter Selinger 2001-2019
</metadata>
<g transform="translate(0.000000,192.000000) scale(0.100000,-0.100000)"
fill="#000000" stroke="none">
811 c445 -92 729 -532 635 -987 -62 -301 -295 -546 -601 -630 -91 -26 -329
-26 -420 0 -291 80 -516 305 -596 596 -26 91 -26 329 0 420 120 433 542 692
982 601z"/>
<path d="M595 1325 c-17 -17 -25 -35 -25 -60 0 -33 11 -48 112 -151 73 -75
119 -114 133 -114 24 0 105 78 105 101 0 8 -53 68 -118 132 -102 100 -123 117
-151 117 -21 0 -41 -9 -56 -25z"/>
<path d="M898 1023 c-299 -299 -328 -331 -328 -361 0 -44 38 -82 81 -82 28 0
50 18 165 132 l133 131 108 -100 c59 -56 121 -115 137 -132 55 -58 146 -27
146 50 0 28 -18 50 -135 168 l-134 136 134 136 c114 114 135 140 135 166 0 41
-42 83 -84 83 -27 0 -70 -39 -358 -327z"/>
</g>
</svg>
