<?xml version="1.0" standalone="no"?>
<!DOCTYPE svg PUBLIC "-//W3C//DTD SVG 20010904//EN"
 "http://www.w3.org/TR/2001/REC-SVG-20010904/DTD/svg10.dtd">
<svg version="1.0" xmlns="http://www.w3.org/2000/svg"
 width="192.000000pt" height="192.000000pt" viewBox="0 0 192.000000 192.000000"
 preserveAspectRatio="xMidYMid meet">
<metadata>
Created by potrace 1.16, written by Peter Selinger 2001-2019
</metadata>
<g transform="translate(0.000000,192.000000) scale(0.100000,-0.100000)"
fill="#000000" stroke="none">
811 c445 -92 729 -532 635 -987 -62 -301 -295 -546 -601 -630 -91 -26 -329
-26 -420 0 -291 80 -516 305 -596 596 -26 91 -26 329 0 420 120 433 542 692
982 601z"/>
<path d="M940 1371 c0 -5 -13 -12 -30 -16 -34 -7 -68 -46 -158 -178 -54 -79
-67 -92 -120 -117 -89 -42 -92 -49 -92 -221 0 -128 2 -149 19 -170 23 -29 189
-119 220 -119 53 0 78 26 110 115 17 47 33 95 36 107 4 13 17 36 31 51 l24 28
96 -57 c113 -66 156 -76 197 -44 20 16 27 30 27 56 0 19 -4 34 -10 34 -5 0 -7
7 -4 15 4 10 0 15 -15 15 -14 0 -19 5 -15 15 4 8 1 15 -6 15 -7 0 -10 8 -7 20
3 13 0 20 -10 20 -10 0 -13 6 -9 17 4 9 1 20 -5 24 -6 4 -8 12 -4 19 6 10 11
9 21 -4 11 -16 13 -16 23 1 9 17 10 17 25 -2 14 -19 15 -19 22 -1 7 17 8 17
19 2 11 -15 14 -14 30 10 13 20 16 42 13 92 -4 68 -12 79 -106 154 -15 12 -22
29 -22 53 0 47 -25 59 -104 50 -45 -4 -75 -2 -107 9 -50 18 -89 21 -89 7z m52
-73 c16 -13 22 -29 19 -55 -2 -22 -40 -14 -57 12 -27 42 0 72 38 43z m-12
-214 c0 -11 6 -15 20 -11 15 4 20 0 20 -15 0 -15 5 -18 20 -13 15 5 20 2 20
-10 0 -13 6 -16 21 -12 12 3 22 0 25 -8 3 -8 12 -11 21 -8 8 3 19 0 23 -7 7
-11 12 -11 23 -2 11 10 16 3 25 -39 7 -28 20 -67 29 -86 14 -30 14 -36 2 -44
-9 -5 -16 -3 -20 8 -4 12 -8 13 -13 5 -10 -17 -26 -15 -26 3 0 11 -7 14 -25 9
-20 -5 -25 -3 -25 14 0 15 -5 19 -20 15 -15 -4 -20 0 -20 16 0 14 -6 21 -19
21 -14 0 -18 5 -14 20 4 16 0 20 -20 20 -20 0 -24 4 -20 20 4 15 0 20 -16 20
-16 0 -21 6 -21 25 0 17 -4 23 -14 19 -18 -7 -29 11 -21 36 8 24 45 27 45 4z
m290 -264 c0 -5 -2 -10 -4 -10 -3 0 -8 5 -11 10 -3 6 -1 10 4 10 6 0 11 -4 11
-10z"/>
</g>
</svg>
