<?xml version="1.0" standalone="no"?>
<!DOCTYPE svg PUBLIC "-//W3C//DTD SVG 20010904//EN"
 "http://www.w3.org/TR/2001/REC-SVG-20010904/DTD/svg10.dtd">
<svg version="1.0" xmlns="http://www.w3.org/2000/svg"
 width="192.000000pt" height="192.000000pt" viewBox="0 0 192.000000 192.000000"
 preserveAspectRatio="xMidYMid meet">
<metadata>
Created by potrace 1.16, written by Peter Selinger 2001-2019
</metadata>
<g transform="translate(0.000000,192.000000) scale(0.100000,-0.100000)"
fill="#000000" stroke="none">
811 c445 -92 729 -532 635 -987 -62 -301 -295 -546 -601 -630 -91 -26 -329
-26 -420 0 -291 80 -516 305 -596 596 -26 91 -26 329 0 420 120 433 542 692
982 601z"/>
<path d="M856 1350 c-156 -40 -286 -185 -304 -340 -10 -96 0 -326 16 -342 18
-18 124 -17 145 1 14 11 17 35 17 146 0 115 -2 134 -18 148 -10 10 -28 17 -40
17 -31 0 -29 34 9 109 113 226 435 226 548 0 38 -77 41 -109 8 -109 -48 0 -57
-26 -57 -161 0 -156 4 -164 88 -164 95 0 94 -3 90 219 -3 186 -4 193 -31 248
-43 87 -107 152 -192 194 -63 31 -85 37 -157 40 -45 2 -100 -1 -122 -6z"/>
<path d="M806 707 c-12 -9 -17 -23 -14 -42 7 -65 135 -114 221 -86 78 26 125
105 78 131 -29 15 -263 13 -285 -3z"/>
</g>
</svg>
