<?xml version="1.0" standalone="no"?>
<!DOCTYPE svg PUBLIC "-//W3C//DTD SVG 20010904//EN"
 "http://www.w3.org/TR/2001/REC-SVG-20010904/DTD/svg10.dtd">
<svg version="1.0" xmlns="http://www.w3.org/2000/svg"
 width="192.000000pt" height="192.000000pt" viewBox="0 0 192.000000 192.000000"
 preserveAspectRatio="xMidYMid meet">
<metadata>
Created by potrace 1.16, written by Peter Selinger 2001-2019
</metadata>
<g transform="translate(0.000000,192.000000) scale(0.100000,-0.100000)"
fill="#000000" stroke="none">
811 c445 -92 729 -532 635 -987 -62 -301 -295 -546 -601 -630 -91 -26 -329
-26 -420 0 -291 80 -516 305 -596 596 -26 91 -26 329 0 420 120 433 542 692
982 601z"/>
<path d="M588 1309 c-17 -9 -18 -36 -18 -344 0 -320 1 -335 19 -345 27 -14 47
-13 65 6 14 13 16 58 16 339 0 281 -2 326 -16 339 -18 18 -41 20 -66 5z"/>
<path d="M754 1306 c-18 -14 -19 -31 -22 -323 -2 -191 1 -320 7 -336 13 -35
55 -46 81 -22 19 17 20 33 20 340 0 299 -1 323 -18 338 -23 21 -42 21 -68 3z"/>
<path d="M916 1298 c-14 -19 -16 -68 -16 -333 0 -337 3 -355 55 -355 52 0 55
18 55 355 0 337 -3 355 -55 355 -13 0 -31 -10 -39 -22z"/>
<path d="M1087 1302 c-15 -17 -17 -55 -17 -339 0 -305 1 -321 20 -338 26 -24
68 -13 81 22 6 16 9 145 7 336 -3 292 -4 309 -22 323 -27 19 -50 18 -69 -4z"/>
<path d="M1256 1304 c-14 -13 -16 -58 -16 -339 0 -281 2 -326 16 -339 18 -19
38 -20 65 -6 18 10 19 25 19 345 0 320 -1 335 -19 345 -27 14 -47 13 -65 -6z"/>
</g>
</svg>
