<?xml version="1.0" standalone="no"?>
<!DOCTYPE svg PUBLIC "-//W3C//DTD SVG 20010904//EN"
 "http://www.w3.org/TR/2001/REC-SVG-20010904/DTD/svg10.dtd">
<svg version="1.0" xmlns="http://www.w3.org/2000/svg"
 width="192.000000pt" height="192.000000pt" viewBox="0 0 192.000000 192.000000"
 preserveAspectRatio="xMidYMid meet">
<metadata>
Created by potrace 1.16, written by Peter Selinger 2001-2019
</metadata>
<g transform="translate(0.000000,192.000000) scale(0.100000,-0.100000)"
fill="#000000" stroke="none">
811 c445 -92 729 -532 635 -987 -62 -301 -295 -546 -601 -630 -91 -26 -329
-26 -420 0 -291 80 -516 305 -596 596 -26 91 -26 329 0 420 120 433 542 692
982 601z"/>
<path d="M709 1350 c-43 -13 -74 -38 -97 -79 -21 -37 -22 -50 -22 -306 0 -257
1 -269 22 -307 12 -21 38 -49 58 -61 33 -21 49 -22 260 -25 243 -4 278 1 331
45 56 47 59 67 59 347 0 264 -4 292 -43 335 -43 47 -92 61 -217 61 -125 0
-174 -14 -217 -61 -39 -43 -43 -71 -43 -335 0 -204 3 -262 15 -291 8 -19 15
-38 15 -41 0 -10 -112 9 -134 23 -42 28 -46 53 -46 311 0 263 4 288 52 311 12
7 37 15 55 18 35 7 49 30 32 51 -12 15 -40 17 -80 4z m302 -340 c27 -15 26
-75 -2 -90 -30 -17 -62 -8 -78 21 -13 24 -13 29 2 53 18 27 45 33 78 16z m161
-7 c22 -20 23 -51 1 -75 -33 -36 -93 -13 -93 37 0 49 55 72 92 38z"/>
<path d="M687 1002 c-22 -24 -21 -55 1 -75 37 -34 92 -11 92 38 0 50 -60 73
-93 37z"/>
</g>
</svg>
