<?xml version="1.0" standalone="no"?>
<!DOCTYPE svg PUBLIC "-//W3C//DTD SVG 20010904//EN"
 "http://www.w3.org/TR/2001/REC-SVG-20010904/DTD/svg10.dtd">
<svg version="1.0" xmlns="http://www.w3.org/2000/svg"
 width="192.000000pt" height="192.000000pt" viewBox="0 0 192.000000 192.000000"
 preserveAspectRatio="xMidYMid meet">
<metadata>
Created by potrace 1.16, written by Peter Selinger 2001-2019
</metadata>
<g transform="translate(0.000000,192.000000) scale(0.100000,-0.100000)"
fill="#000000" stroke="none">
811 c445 -92 729 -532 635 -987 -62 -301 -295 -546 -601 -630 -91 -26 -329
-26 -420 0 -291 80 -516 305 -596 596 -26 91 -26 329 0 420 120 433 542 692
982 601z"/>
<path d="M710 1341 c-46 -14 -87 -40 -114 -71 -29 -35 -56 -117 -55 -169 1
-60 33 -165 69 -226 72 -120 276 -295 345 -295 69 0 273 175 345 295 36 61 68
166 69 226 1 52 -26 134 -56 169 -41 50 -98 74 -173 75 -64 0 -91 -10 -172
-67 -14 -10 -21 -8 -40 9 -54 51 -150 74 -218 54z m226 -255 c17 -12 22 -12
39 0 26 19 68 18 94 -3 55 -45 27 -155 -57 -218 -24 -19 -50 -35 -57 -35 -7 0
-33 16 -57 35 -51 38 -88 104 -88 154 0 63 74 103 126 67z"/>
</g>
</svg>
