<?xml version="1.0" standalone="no"?>
<!DOCTYPE svg PUBLIC "-//W3C//DTD SVG 20010904//EN"
 "http://www.w3.org/TR/2001/REC-SVG-20010904/DTD/svg10.dtd">
<svg version="1.0" xmlns="http://www.w3.org/2000/svg"
 width="192.000000pt" height="192.000000pt" viewBox="0 0 192.000000 192.000000"
 preserveAspectRatio="xMidYMid meet">
<metadata>
Created by potrace 1.16, written by Peter Selinger 2001-2019
</metadata>
<g transform="translate(0.000000,192.000000) scale(0.100000,-0.100000)"
fill="#000000" stroke="none">
811 c445 -92 729 -532 635 -987 -62 -301 -295 -546 -601 -630 -91 -26 -329
-26 -420 0 -291 80 -516 305 -596 596 -26 91 -26 329 0 420 120 433 542 692
982 601z"/>
<path d="M580 1222 c-8 -2 -23 -11 -32 -20 -16 -13 -18 -38 -18 -231 0 -245 4
-261 65 -261 24 0 39 7 54 26 20 25 21 40 21 225 0 109 -4 209 -9 222 -10 26
-55 47 -81 39z"/>
<path d="M746 1199 c-17 -14 -26 -30 -26 -50 0 -65 80 -93 119 -43 27 35 26
59 -4 89 -30 30 -54 31 -89 4z"/>
<path d="M1267 1178 c-14 -13 -59 -80 -102 -150 l-77 -128 -44 61 c-58 78 -90
91 -136 51 -35 -30 -22 -68 62 -187 83 -117 105 -134 149 -112 29 15 260 381
261 415 0 28 -42 72 -69 72 -11 0 -31 -10 -44 -22z"/>
<path d="M740 1030 c-18 -18 -20 -33 -20 -150 0 -117 2 -132 20 -150 11 -11
33 -20 50 -20 17 0 39 9 50 20 18 18 20 33 20 144 0 110 -2 126 -21 150 -25
32 -70 35 -99 6z"/>
</g>
</svg>
