<?xml version="1.0" standalone="no"?>
<!DOCTYPE svg PUBLIC "-//W3C//DTD SVG 20010904//EN"
 "http://www.w3.org/TR/2001/REC-SVG-20010904/DTD/svg10.dtd">
<svg version="1.0" xmlns="http://www.w3.org/2000/svg"
 width="192.000000pt" height="192.000000pt" viewBox="0 0 192.000000 192.000000"
 preserveAspectRatio="xMidYMid meet">
<metadata>
Created by potrace 1.16, written by Peter Selinger 2001-2019
</metadata>
<g transform="translate(0.000000,192.000000) scale(0.100000,-0.100000)"
fill="#000000" stroke="none">
811 c445 -92 729 -532 635 -987 -62 -301 -295 -546 -601 -630 -91 -26 -329
-26 -420 0 -291 80 -516 305 -596 596 -26 91 -26 329 0 420 120 433 542 692
982 601z"/>
<path d="M707 1325 c-94 -33 -126 -97 -127 -248 l0 -107 373 2 372 3 0 110
c-1 94 -4 116 -23 152 -24 45 -58 74 -111 91 -51 18 -435 15 -484 -3z m137
-98 c24 -18 20 -155 -6 -171 -13 -8 -23 -8 -35 0 -27 16 -31 153 -7 171 10 7
21 13 24 13 3 0 14 -6 24 -13z m270 -9 c16 -23 21 -94 10 -136 -9 -31 -53 -41
-71 -17 -19 27 -17 139 3 159 21 22 40 20 58 -6z"/>
<path d="M587 843 c-4 -3 -7 -27 -7 -52 1 -89 58 -168 138 -191 52 -14 430
-13 473 2 85 28 131 94 133 188 l1 55 -366 3 c-201 1 -368 -1 -372 -5z"/>
</g>
</svg>
