<?xml version="1.0" standalone="no"?>
<!DOCTYPE svg PUBLIC "-//W3C//DTD SVG 20010904//EN"
 "http://www.w3.org/TR/2001/REC-SVG-20010904/DTD/svg10.dtd">
<svg version="1.0" xmlns="http://www.w3.org/2000/svg"
 width="192.000000pt" height="192.000000pt" viewBox="0 0 192.000000 192.000000"
 preserveAspectRatio="xMidYMid meet">
<metadata>
Created by potrace 1.16, written by Peter Selinger 2001-2019
</metadata>
<g transform="translate(0.000000,192.000000) scale(0.100000,-0.100000)"
fill="#000000" stroke="none">
810 c245 -63 441 -223 549 -451 55 -116 75 -212 75 -354 0 -141 -20 -238 -75
-352 -86 -182 -215 -312 -396 -398 -116 -55 -212 -75 -354 -75 -142 0 -238 20
-354 75 -228 108 -388 304 -451 549 -28 110 -28 292 0 402 76 298 303 526 600
603 106 28 298 28 406 1z"/>
<path d="M651 1258 c-86 -88 -133 -240 -112 -359 25 -147 145 -311 196 -269
24 20 18 36 -33 103 -115 150 -109 336 16 480 35 40 40 52 32 68 -17 31 -54
23 -99 -23z"/>
<path d="M1168 1289 c-24 -14 -23 -42 3 -65 64 -57 119 -183 119 -269 0 -63
-35 -163 -75 -215 -68 -88 -68 -89 -55 -105 36 -43 117 24 173 143 30 63 32
74 32 177 0 103 -2 114 -32 177 -31 66 -115 168 -137 168 -6 0 -19 -5 -28 -11z"/>
<path d="M1046 1124 c-20 -20 -20 -38 0 -55 53 -43 58 -126 13 -189 -35 -48
-31 -72 10 -78 26 -4 56 20 79 63 43 83 32 173 -27 236 -42 43 -52 46 -75 23z"/>
<path d="M777 1098 c-35 -45 -47 -81 -47 -137 0 -89 72 -187 119 -162 27 15
27 35 -3 74 -46 61 -46 122 0 177 35 41 29 74 -13 78 -25 3 -36 -3 -56 -30z"/>
</g>
</svg>
