<?xml version="1.0" standalone="no"?>
<!DOCTYPE svg PUBLIC "-//W3C//DTD SVG 20010904//EN"
 "http://www.w3.org/TR/2001/REC-SVG-20010904/DTD/svg10.dtd">
<svg version="1.0" xmlns="http://www.w3.org/2000/svg"
 width="192.000000pt" height="192.000000pt" viewBox="0 0 192.000000 192.000000"
 preserveAspectRatio="xMidYMid meet">
<metadata>
Created by potrace 1.16, written by Peter Selinger 2001-2019
</metadata>
<g transform="translate(0.000000,192.000000) scale(0.100000,-0.100000)"
fill="#000000" stroke="none">
811 c445 -92 729 -532 635 -987 -62 -301 -295 -546 -601 -630 -91 -26 -329
-26 -420 0 -291 80 -516 305 -596 596 -26 91 -26 329 0 420 120 433 542 692
982 601z"/>
<path d="M917 1362 c-15 -17 -17 -59 -17 -399 0 -355 1 -381 18 -396 24 -22
55 -21 75 1 15 17 17 59 17 399 0 355 -1 381 -18 396 -24 22 -55 21 -75 -1z"/>
<path d="M746 1208 c-13 -19 -16 -60 -16 -243 0 -183 3 -224 16 -243 18 -27
55 -29 77 -4 15 16 17 49 17 249 0 210 -2 231 -18 246 -26 23 -58 21 -76 -5z"/>
<path d="M1087 1212 c-15 -16 -17 -49 -17 -249 0 -210 2 -231 18 -246 26 -23
58 -21 76 5 13 19 16 60 16 243 0 183 -3 224 -16 243 -18 27 -55 29 -77 4z"/>
<path d="M592 1094 c-21 -14 -22 -23 -22 -128 0 -97 3 -115 18 -129 26 -23 58
-21 76 5 12 17 16 48 16 125 0 90 -3 106 -20 123 -24 24 -38 25 -68 4z"/>
<path d="M1250 1090 c-17 -17 -20 -33 -20 -123 0 -113 13 -147 54 -147 46 0
56 27 56 148 0 103 -2 112 -22 126 -30 21 -44 20 -68 -4z"/>
</g>
</svg>
