<?xml version="1.0" standalone="no"?>
<!DOCTYPE svg PUBLIC "-//W3C//DTD SVG 20010904//EN"
 "http://www.w3.org/TR/2001/REC-SVG-20010904/DTD/svg10.dtd">
<svg version="1.0" xmlns="http://www.w3.org/2000/svg"
 width="192.000000pt" height="192.000000pt" viewBox="0 0 192.000000 192.000000"
 preserveAspectRatio="xMidYMid meet">
<metadata>
Created by potrace 1.16, written by Peter Selinger 2001-2019
</metadata>
<g transform="translate(0.000000,192.000000) scale(0.100000,-0.100000)"
fill="#000000" stroke="none">
810 c245 -63 441 -223 549 -451 55 -116 75 -212 75 -354 0 -141 -20 -238 -75
-352 -86 -182 -215 -312 -396 -398 -116 -55 -212 -75 -354 -75 -142 0 -238 20
-354 75 -228 108 -388 304 -451 549 -28 110 -28 292 0 402 76 298 303 526 600
603 106 28 298 28 406 1z"/>
<path d="M692 1297 c-33 -15 -107 -118 -130 -180 -58 -154 -23 -330 90 -453
41 -45 65 -53 86 -32 20 20 14 46 -22 86 -19 21 -48 63 -63 93 -24 47 -28 65
-28 144 0 111 18 163 86 248 27 33 48 65 46 71 -7 22 -42 34 -65 23z"/>
<path d="M1168 1289 c-25 -14 -22 -42 7 -69 44 -42 84 -115 102 -185 28 -115
-3 -232 -87 -328 -46 -52 -48 -60 -19 -81 29 -20 58 -6 102 53 63 82 90 155
95 252 7 135 -32 238 -124 333 -37 38 -48 42 -76 25z"/>
<path d="M1048 1129 c-22 -12 -23 -42 -2 -60 52 -43 56 -133 9 -195 -32 -42
-26 -67 17 -72 19 -2 33 6 56 34 65 78 63 190 -6 265 -36 41 -46 45 -74 28z"/>
<path d="M777 1098 c-36 -46 -47 -81 -47 -141 0 -89 71 -183 119 -158 27 15
27 35 -3 74 -46 61 -46 122 0 177 35 41 29 74 -13 78 -25 3 -36 -3 -56 -30z"/>
</g>
</svg>
