<?xml version="1.0" standalone="no"?>
<!DOCTYPE svg PUBLIC "-//W3C//DTD SVG 20010904//EN"
 "http://www.w3.org/TR/2001/REC-SVG-20010904/DTD/svg10.dtd">
<svg version="1.0" xmlns="http://www.w3.org/2000/svg"
 width="192.000000pt" height="192.000000pt" viewBox="0 0 192.000000 192.000000"
 preserveAspectRatio="xMidYMid meet">
<metadata>
Created by potrace 1.16, written by Peter Selinger 2001-2019
</metadata>
<g transform="translate(0.000000,192.000000) scale(0.100000,-0.100000)"
fill="#000000" stroke="none">
811 c445 -92 729 -532 635 -987 -62 -301 -295 -546 -601 -630 -91 -26 -329
-26 -420 0 -291 80 -516 305 -596 596 -26 91 -26 329 0 420 120 433 542 692
982 601z"/>
<path d="M955 1348 c-31 -17 -115 -100 -131 -130 -21 -40 -17 -66 15 -99 52
-51 103 -36 189 54 44 48 52 61 52 94 -1 71 -66 114 -125 81z"/>
<path d="M699 1040 c-23 -14 -42 -65 -35 -95 3 -13 16 -34 28 -45 21 -19 34
-20 265 -20 l244 0 24 25 c34 33 34 87 0 120 l-24 25 -243 0 c-134 0 -250 -5
-259 -10z"/>
<path d="M887 771 c-66 -64 -72 -73 -72 -110 0 -50 26 -79 78 -88 35 -5 40 -2
112 67 68 67 75 77 75 112 0 52 -35 88 -86 88 -32 0 -46 -9 -107 -69z"/>
</g>
</svg>
