<?xml version="1.0" standalone="no"?>
<!DOCTYPE svg PUBLIC "-//W3C//DTD SVG 20010904//EN"
 "http://www.w3.org/TR/2001/REC-SVG-20010904/DTD/svg10.dtd">
<svg version="1.0" xmlns="http://www.w3.org/2000/svg"
 width="192.000000pt" height="192.000000pt" viewBox="0 0 192.000000 192.000000"
 preserveAspectRatio="xMidYMid meet">
<metadata>
Created by potrace 1.16, written by Peter Selinger 2001-2019
</metadata>
<g transform="translate(0.000000,192.000000) scale(0.100000,-0.100000)"
fill="#000000" stroke="none">
810 c245 -63 441 -223 549 -451 55 -116 75 -212 75 -354 0 -141 -20 -238 -75
-352 -86 -182 -215 -312 -396 -398 -116 -55 -212 -75 -354 -75 -142 0 -238 20
-354 75 -228 108 -388 304 -451 549 -28 110 -28 292 0 402 76 298 303 526 600
603 106 28 298 28 406 1z"/>
<path d="M684 1291 c-37 -22 -98 -110 -123 -177 -58 -151 -22 -328 91 -450 41
-45 65 -53 86 -32 20 20 14 46 -22 86 -19 21 -48 63 -63 93 -25 48 -28 65 -28
149 0 82 4 103 26 150 14 30 45 76 69 103 43 49 46 68 12 86 -14 7 -26 5 -48
-8z"/>
<path d="M1168 1289 c-25 -14 -22 -42 7 -69 44 -42 84 -115 102 -185 28 -113
-4 -234 -88 -329 -45 -51 -47 -59 -17 -80 30 -21 58 -4 112 69 83 111 110 272
66 399 -30 88 -121 207 -157 206 -4 0 -16 -5 -25 -11z"/>
<path d="M1048 1129 c-22 -12 -23 -42 -2 -60 52 -43 56 -133 9 -195 -32 -42
-26 -67 17 -72 19 -2 33 6 56 34 65 78 63 190 -6 265 -36 41 -46 45 -74 28z"/>
<path d="M777 1098 c-35 -46 -47 -81 -47 -139 0 -56 24 -111 64 -148 22 -21
29 -23 51 -13 27 13 33 43 12 61 -8 6 -22 29 -32 50 -22 49 -14 98 21 141 35
41 29 74 -13 78 -25 3 -36 -3 -56 -30z"/>
</g>
</svg>
