<?xml version="1.0" standalone="no"?>
<!DOCTYPE svg PUBLIC "-//W3C//DTD SVG 20010904//EN"
 "http://www.w3.org/TR/2001/REC-SVG-20010904/DTD/svg10.dtd">
<svg version="1.0" xmlns="http://www.w3.org/2000/svg"
 width="192.000000pt" height="192.000000pt" viewBox="0 0 192.000000 192.000000"
 preserveAspectRatio="xMidYMid meet">
<metadata>
Created by potrace 1.16, written by Peter Selinger 2001-2019
</metadata>
<g transform="translate(0.000000,192.000000) scale(0.100000,-0.100000)"
fill="#000000" stroke="none">
811 c445 -92 729 -532 635 -987 -62 -301 -295 -546 -601 -630 -91 -26 -329
-26 -420 0 -291 80 -516 305 -596 596 -26 91 -26 329 0 420 120 433 542 692
982 601z"/>
<path d="M952 1188 c-17 -17 -17 -429 0 -446 8 -8 58 -12 158 -12 164 0 200
10 233 68 23 40 24 105 2 138 -21 33 -73 64 -106 64 -21 0 -28 7 -38 40 -6 22
-26 57 -44 77 -55 62 -173 103 -205 71z"/>
<path d="M852 1138 c-17 -17 -17 -379 0 -396 18 -18 46 -14 58 7 6 12 10 92
10 191 0 99 -4 179 -10 191 -12 21 -40 25 -58 7z"/>
<path d="M651 1036 c-8 -9 -11 -58 -9 -151 3 -119 5 -139 21 -149 12 -8 22 -8
35 0 15 10 17 30 20 149 3 142 -3 165 -38 165 -10 0 -23 -6 -29 -14z"/>
<path d="M752 1038 c-17 -17 -17 -279 0 -296 18 -18 46 -14 58 7 5 11 10 78
10 148 0 131 -6 153 -40 153 -9 0 -21 -5 -28 -12z"/>
<path d="M552 968 c-19 -19 -16 -183 4 -202 8 -9 19 -16 24 -16 5 0 16 7 24
16 12 11 16 36 16 99 0 63 -4 88 -16 99 -19 19 -36 20 -52 4z"/>
</g>
</svg>
