<?xml version="1.0" standalone="no"?>
<!DOCTYPE svg PUBLIC "-//W3C//DTD SVG 20010904//EN"
 "http://www.w3.org/TR/2001/REC-SVG-20010904/DTD/svg10.dtd">
<svg version="1.0" xmlns="http://www.w3.org/2000/svg"
 width="192.000000pt" height="192.000000pt" viewBox="0 0 192.000000 192.000000"
 preserveAspectRatio="xMidYMid meet">
<metadata>
Created by potrace 1.16, written by Peter Selinger 2001-2019
</metadata>
<g transform="translate(0.000000,192.000000) scale(0.100000,-0.100000)"
fill="#000000" stroke="none">
811 c445 -92 729 -532 635 -987 -62 -301 -295 -546 -601 -630 -91 -26 -329
-26 -420 0 -291 80 -516 305 -596 596 -26 91 -26 329 0 420 120 433 542 692
982 601z"/>
<path d="M930 1365 c-103 -29 -178 -93 -230 -195 -35 -67 -39 -195 -10 -273
12 -31 33 -71 47 -88 l26 -30 -47 -48 c-65 -66 -62 -94 14 -136 51 -28 62 -30
160 -30 95 0 110 3 156 27 69 36 106 69 143 126 80 126 75 291 -14 408 l-24
31 40 39 c22 21 45 47 50 56 17 32 -6 63 -70 92 -76 34 -166 42 -241 21z m213
-79 c24 -12 37 -25 37 -38 0 -23 -12 -22 -90 7 -108 40 -241 -19 -291 -130
-26 -55 -25 -143 2 -200 11 -24 18 -49 14 -55 -14 -22 -37 -8 -58 38 -33 71
-30 180 5 248 30 58 83 108 142 136 53 24 183 21 239 -6z m10 -254 c10 -17 22
-54 26 -82 28 -179 -101 -330 -284 -330 -78 0 -157 30 -163 63 -4 22 24 22 69
0 49 -26 152 -23 204 4 113 60 160 182 116 303 -22 59 -21 85 2 77 7 -2 20
-18 30 -35z"/>
</g>
</svg>
