<?xml version="1.0" standalone="no"?>
<!DOCTYPE svg PUBLIC "-//W3C//DTD SVG 20010904//EN"
 "http://www.w3.org/TR/2001/REC-SVG-20010904/DTD/svg10.dtd">
<svg version="1.0" xmlns="http://www.w3.org/2000/svg"
 width="192.000000pt" height="192.000000pt" viewBox="0 0 192.000000 192.000000"
 preserveAspectRatio="xMidYMid meet">
<metadata>
Created by potrace 1.16, written by Peter Selinger 2001-2019
</metadata>
<g transform="translate(0.000000,192.000000) scale(0.100000,-0.100000)"
fill="#000000" stroke="none">
811 c445 -92 729 -532 635 -987 -62 -301 -295 -546 -601 -630 -91 -26 -329
-26 -420 0 -291 80 -516 305 -596 596 -26 91 -26 329 0 420 120 433 542 692
982 601z"/>
<path d="M1150 1349 c-107 -48 -142 -108 -84 -145 25 -17 28 -16 102 21 95 48
112 62 112 91 0 54 -52 67 -130 33z"/>
<path d="M1043 1165 c-15 -11 -26 -35 -35 -76 -12 -58 -13 -60 -38 -52 -45 14
-143 9 -181 -10 -97 -48 -153 -141 -154 -253 0 -61 4 -77 30 -119 81 -131 267
-125 372 13 39 51 46 75 79 267 32 191 33 204 4 227 -27 22 -49 23 -77 3z
m-128 -251 c8 -4 23 -20 31 -36 29 -55 -4 -141 -66 -173 -41 -21 -63 -19 -90
10 -19 20 -22 32 -18 73 5 56 30 94 73 116 33 17 46 19 70 10z"/>
</g>
</svg>
