<?xml version="1.0" standalone="no"?>
<!DOCTYPE svg PUBLIC "-//W3C//DTD SVG 20010904//EN"
 "http://www.w3.org/TR/2001/REC-SVG-20010904/DTD/svg10.dtd">
<svg version="1.0" xmlns="http://www.w3.org/2000/svg"
 width="192.000000pt" height="192.000000pt" viewBox="0 0 192.000000 192.000000"
 preserveAspectRatio="xMidYMid meet">
<metadata>
Created by potrace 1.16, written by Peter Selinger 2001-2019
</metadata>
<g transform="translate(0.000000,192.000000) scale(0.100000,-0.100000)"
fill="#000000" stroke="none">
810 c245 -63 441 -223 549 -451 55 -116 75 -212 75 -354 0 -141 -20 -238 -75
-352 -86 -182 -215 -312 -396 -398 -116 -55 -212 -75 -354 -75 -142 0 -238 20
-354 75 -228 108 -388 304 -451 549 -28 110 -28 292 0 402 76 298 303 526 600
603 106 28 298 28 406 1z"/>
<path d="M693 1299 c-31 -11 -108 -119 -133 -185 -57 -152 -24 -321 86 -443
46 -51 70 -61 92 -39 21 21 13 53 -22 87 -19 18 -47 61 -63 95 -24 53 -28 73
-28 151 0 106 24 168 95 248 24 27 40 53 37 62 -9 22 -40 34 -64 24z"/>
<path d="M1162 1288 c-19 -19 -14 -42 13 -68 74 -69 122 -201 111 -300 -8 -68
-52 -165 -100 -217 -41 -46 -43 -54 -17 -77 27 -24 52 -14 93 37 87 107 112
182 106 315 -3 85 -8 105 -36 163 -38 76 -110 159 -138 159 -11 0 -25 -5 -32
-12z"/>
<path d="M1048 1129 c-24 -13 -23 -42 2 -64 48 -44 50 -132 4 -192 -31 -41
-24 -66 18 -71 19 -2 33 6 56 34 65 78 63 190 -6 265 -36 41 -46 45 -74 28z"/>
<path d="M777 1098 c-35 -46 -47 -81 -47 -139 0 -56 24 -111 64 -148 22 -21
29 -23 51 -13 26 12 34 45 14 58 -6 3 -20 27 -31 51 -24 54 -18 99 18 143 35
41 29 74 -13 78 -25 3 -36 -3 -56 -30z"/>
</g>
</svg>
