<?xml version="1.0" standalone="no"?>
<!DOCTYPE svg PUBLIC "-//W3C//DTD SVG 20010904//EN"
 "http://www.w3.org/TR/2001/REC-SVG-20010904/DTD/svg10.dtd">
<svg version="1.0" xmlns="http://www.w3.org/2000/svg"
 width="192.000000pt" height="192.000000pt" viewBox="0 0 192.000000 192.000000"
 preserveAspectRatio="xMidYMid meet">
<metadata>
Created by potrace 1.16, written by Peter Selinger 2001-2019
</metadata>
<g transform="translate(0.000000,192.000000) scale(0.100000,-0.100000)"
fill="#000000" stroke="none">
811 c445 -92 729 -532 635 -987 -62 -301 -295 -546 -601 -630 -91 -26 -329
-26 -420 0 -291 80 -516 305 -596 596 -26 91 -26 329 0 420 120 433 542 692
982 601z"/>
<path d="M1041 1366 c-9 -10 -8 -64 3 -219 8 -113 17 -211 21 -216 8 -14 162
-15 170 -2 3 6 12 104 19 218 13 189 13 209 -2 221 -23 18 -196 17 -211 -2z"/>
<path d="M713 1275 c-36 -15 -73 -68 -73 -103 0 -87 107 -141 186 -93 81 49
65 165 -29 200 -36 14 -45 13 -84 -4z"/>
<path d="M675 1000 c-8 -13 -35 -422 -29 -432 9 -14 224 -10 229 5 7 16 -21
413 -30 427 -8 13 -162 13 -170 0z"/>
<path d="M1113 869 c-41 -12 -83 -62 -83 -100 0 -68 49 -119 115 -119 89 0
147 81 112 155 -26 55 -83 81 -144 64z"/>
</g>
</svg>
