<?xml version="1.0" standalone="no"?>
<!DOCTYPE svg PUBLIC "-//W3C//DTD SVG 20010904//EN"
 "http://www.w3.org/TR/2001/REC-SVG-20010904/DTD/svg10.dtd">
<svg version="1.0" xmlns="http://www.w3.org/2000/svg"
 width="192.000000pt" height="192.000000pt" viewBox="0 0 192.000000 192.000000"
 preserveAspectRatio="xMidYMid meet">
<metadata>
Created by potrace 1.16, written by Peter Selinger 2001-2019
</metadata>
<g transform="translate(0.000000,192.000000) scale(0.100000,-0.100000)"
fill="#000000" stroke="none">
811 c445 -92 729 -532 635 -987 -62 -301 -295 -546 -601 -630 -91 -26 -329
-26 -420 0 -291 80 -516 305 -596 596 -26 91 -26 329 0 420 120 433 542 692
982 601z"/>
<path d="M921 1373 c-26 -23 -321 -616 -321 -647 0 -13 9 -31 20 -41 19 -17
26 -18 102 -5 l81 13 30 -34 c75 -85 109 -119 122 -119 13 0 47 34 122 119
l30 34 81 -13 c76 -13 83 -12 102 5 11 10 20 28 20 41 0 31 -295 624 -321 647
-12 9 -27 17 -34 17 -7 0 -22 -8 -34 -17z m286 -609 c-2 -2 -32 2 -67 9 l-63
12 -44 115 c-25 63 -51 122 -59 130 -25 26 -46 -1 -95 -126 l-46 -119 -63 -12
c-35 -7 -65 -11 -67 -9 -2 2 54 119 124 260 l128 256 128 -256 c70 -141 126
-258 124 -260z"/>
</g>
</svg>
