<?xml version="1.0" standalone="no"?>
<!DOCTYPE svg PUBLIC "-//W3C//DTD SVG 20010904//EN"
 "http://www.w3.org/TR/2001/REC-SVG-20010904/DTD/svg10.dtd">
<svg version="1.0" xmlns="http://www.w3.org/2000/svg"
 width="192.000000pt" height="192.000000pt" viewBox="0 0 192.000000 192.000000"
 preserveAspectRatio="xMidYMid meet">
<metadata>
Created by potrace 1.16, written by Peter Selinger 2001-2019
</metadata>
<g transform="translate(0.000000,192.000000) scale(0.100000,-0.100000)"
fill="#000000" stroke="none">
811 c445 -92 729 -532 635 -987 -62 -301 -295 -546 -601 -630 -91 -26 -329
-26 -420 0 -291 80 -516 305 -596 596 -26 91 -26 329 0 420 120 433 542 692
982 601z"/>
<path d="M925 1373 c-30 -7 -73 -52 -80 -83 -13 -61 44 -130 107 -130 41 0 86
36 99 78 9 33 9 45 -5 74 -22 46 -74 72 -121 61z"/>
<path d="M688 1094 c-45 -24 -58 -62 -58 -168 0 -92 1 -97 29 -128 l29 -33
212 -3 c172 -3 212 -6 217 -18 3 -8 0 -21 -7 -29 -10 -12 -49 -15 -221 -15
-196 0 -210 -1 -229 -20 -30 -30 -27 -83 7 -110 26 -20 35 -21 286 -18 l259 3
29 33 c28 31 29 35 29 137 0 102 -1 106 -29 137 l-29 33 -212 3 c-172 3 -212
6 -217 18 -3 8 0 21 7 29 10 12 50 15 230 15 l219 0 20 26 c28 35 26 69 -4 99
l-24 25 -258 0 c-209 -1 -263 -4 -285 -16z"/>
</g>
</svg>
