<?xml version="1.0" standalone="no"?>
<!DOCTYPE svg PUBLIC "-//W3C//DTD SVG 20010904//EN"
 "http://www.w3.org/TR/2001/REC-SVG-20010904/DTD/svg10.dtd">
<svg version="1.0" xmlns="http://www.w3.org/2000/svg"
 width="192.000000pt" height="192.000000pt" viewBox="0 0 192.000000 192.000000"
 preserveAspectRatio="xMidYMid meet">
<metadata>
Created by potrace 1.16, written by Peter Selinger 2001-2019
</metadata>
<g transform="translate(0.000000,192.000000) scale(0.100000,-0.100000)"
fill="#000000" stroke="none">
811 c445 -92 729 -532 635 -987 -62 -301 -295 -546 -601 -630 -91 -26 -329
-26 -420 0 -291 80 -516 305 -596 596 -26 91 -26 329 0 420 120 433 542 692
982 601z"/>
<path d="M861 1365 c-207 -45 -349 -255 -314 -462 24 -135 105 -243 230 -305
64 -31 73 -33 178 -33 97 0 116 3 165 26 79 37 163 118 200 192 120 246 -27
537 -295 586 -72 13 -83 13 -164 -4z m203 -105 c153 -58 238 -226 192 -385
-26 -88 -90 -140 -110 -89 -3 8 5 36 19 62 32 64 39 112 25 172 -16 65 -58
122 -117 157 -40 24 -59 28 -118 28 -101 -1 -172 -43 -218 -130 -31 -58 -30
-165 2 -221 28 -50 25 -78 -10 -82 -21 -3 -30 5 -55 50 -26 48 -29 62 -29 143
0 75 4 98 24 135 42 81 118 145 201 171 49 14 138 9 194 -11z m21 -168 c0 -33
-132 -182 -161 -182 -26 0 -49 33 -37 54 15 26 175 157 186 153 7 -2 12 -13
12 -25z"/>
</g>
</svg>
