<?xml version="1.0" standalone="no"?>
<!DOCTYPE svg PUBLIC "-//W3C//DTD SVG 20010904//EN"
 "http://www.w3.org/TR/2001/REC-SVG-20010904/DTD/svg10.dtd">
<svg version="1.0" xmlns="http://www.w3.org/2000/svg"
 width="192.000000pt" height="192.000000pt" viewBox="0 0 192.000000 192.000000"
 preserveAspectRatio="xMidYMid meet">
<metadata>
Created by potrace 1.16, written by Peter Selinger 2001-2019
</metadata>
<g transform="translate(0.000000,192.000000) scale(0.100000,-0.100000)"
fill="#000000" stroke="none">
810 c245 -63 441 -223 549 -451 55 -116 75 -212 75 -354 0 -141 -20 -238 -75
-352 -86 -182 -215 -312 -396 -398 -116 -55 -212 -75 -354 -75 -142 0 -238 20
-354 75 -228 108 -388 304 -451 549 -28 110 -28 292 0 402 76 298 303 526 600
603 106 28 298 28 406 1z"/>
<path d="M925 1360 c-43 -10 -73 -31 -95 -65 -44 -72 -271 -511 -281 -545 -34
-113 60 -210 172 -180 29 8 64 32 114 80 110 104 130 104 241 -1 50 -47 84
-71 113 -79 108 -29 200 60 176 172 -7 30 -273 545 -298 576 -26 33 -96 53
-142 42z m90 -275 c54 -53 17 -137 -61 -137 -29 0 -44 6 -61 27 -48 55 -12
135 62 135 25 0 44 -8 60 -25z"/>
</g>
</svg>
