<?xml version="1.0" standalone="no"?>
<!DOCTYPE svg PUBLIC "-//W3C//DTD SVG 20010904//EN"
 "http://www.w3.org/TR/2001/REC-SVG-20010904/DTD/svg10.dtd">
<svg version="1.0" xmlns="http://www.w3.org/2000/svg"
 width="192.000000pt" height="192.000000pt" viewBox="0 0 192.000000 192.000000"
 preserveAspectRatio="xMidYMid meet">
<metadata>
Created by potrace 1.16, written by Peter Selinger 2001-2019
</metadata>
<g transform="translate(0.000000,192.000000) scale(0.100000,-0.100000)"
fill="#000000" stroke="none">
811 c445 -92 729 -532 635 -987 -62 -301 -295 -546 -601 -630 -91 -26 -329
-26 -420 0 -291 80 -516 305 -596 596 -26 91 -26 329 0 420 120 433 542 692
982 601z"/>
<path d="M720 1190 c-11 -11 -20 -29 -20 -40 0 -11 9 -29 20 -40 19 -19 33
-20 240 -20 207 0 221 1 240 20 11 11 20 29 20 40 0 11 -9 29 -20 40 -19 19
-33 20 -240 20 -207 0 -221 -1 -240 -20z"/>
<path d="M717 992 c-22 -24 -21 -55 2 -76 16 -14 41 -16 202 -14 l183 3 15 26
c13 24 13 29 -2 53 l-17 26 -184 0 c-164 0 -185 -2 -199 -18z"/>
<path d="M720 800 c-11 -11 -20 -29 -20 -40 0 -41 34 -60 108 -60 77 0 102 16
102 63 0 39 -34 57 -107 57 -50 0 -67 -4 -83 -20z"/>
</g>
</svg>
