<?xml version="1.0" standalone="no"?>
<!DOCTYPE svg PUBLIC "-//W3C//DTD SVG 20010904//EN"
 "http://www.w3.org/TR/2001/REC-SVG-20010904/DTD/svg10.dtd">
<svg version="1.0" xmlns="http://www.w3.org/2000/svg"
 width="192.000000pt" height="192.000000pt" viewBox="0 0 192.000000 192.000000"
 preserveAspectRatio="xMidYMid meet">
<metadata>
Created by potrace 1.16, written by Peter Selinger 2001-2019
</metadata>
<g transform="translate(0.000000,192.000000) scale(0.100000,-0.100000)"
fill="#000000" stroke="none">
811 c445 -92 729 -532 635 -987 -62 -301 -295 -546 -601 -630 -91 -26 -329
-26 -420 0 -291 80 -516 305 -596 596 -26 91 -26 329 0 420 120 433 542 692
982 601z"/>
<path d="M882 1355 c-18 -8 -94 -63 -169 -121 -149 -118 -172 -150 -173 -236
l0 -47 37 16 c27 11 58 14 111 11 63 -4 79 -10 125 -42 30 -20 56 -36 60 -36
10 0 431 192 441 201 14 12 -5 30 -146 140 -169 132 -209 148 -286 114z"/>
<path d="M1047 944 l-268 -124 -46 35 c-51 39 -88 43 -107 13 -15 -25 13 -49
89 -77 126 -47 167 -115 129 -215 -5 -14 13 -16 172 -16 200 0 236 9 287 69
42 50 48 91 45 271 -2 137 -5 165 -18 166 -8 1 -136 -54 -283 -122z"/>
<path d="M540 728 c1 -26 39 -97 57 -106 60 -31 118 -17 111 28 -2 20 -18 30
-83 57 -92 38 -85 36 -85 21z"/>
</g>
</svg>
