<?xml version="1.0" standalone="no"?>
<!DOCTYPE svg PUBLIC "-//W3C//DTD SVG 20010904//EN"
 "http://www.w3.org/TR/2001/REC-SVG-20010904/DTD/svg10.dtd">
<svg version="1.0" xmlns="http://www.w3.org/2000/svg"
 width="192.000000pt" height="192.000000pt" viewBox="0 0 192.000000 192.000000"
 preserveAspectRatio="xMidYMid meet">
<metadata>
Created by potrace 1.16, written by Peter Selinger 2001-2019
</metadata>
<g transform="translate(0.000000,192.000000) scale(0.100000,-0.100000)"
fill="#000000" stroke="none">
811 c445 -92 729 -532 635 -987 -62 -301 -295 -546 -601 -630 -91 -26 -329
-26 -420 0 -291 80 -516 305 -596 596 -26 91 -26 329 0 420 120 433 542 692
982 601z"/>
<path d="M853 1365 c-230 -62 -363 -294 -294 -514 37 -121 110 -204 227 -258
53 -25 70 -28 169 -28 104 0 114 2 176 32 254 126 312 460 113 659 -105 105
-253 146 -391 109z m247 -96 c33 -17 78 -52 101 -76 71 -77 118 -214 84 -243
-25 -21 -49 0 -57 49 -18 103 -109 206 -210 236 -29 8 -57 15 -64 15 -19 0
-35 26 -28 45 11 27 99 14 174 -26z m-75 -89 c50 -20 104 -71 130 -123 33 -68
31 -112 -5 -112 -20 0 -27 8 -42 49 -22 64 -71 113 -127 130 -53 15 -71 37
-51 61 13 16 44 14 95 -5z m3 -146 c39 -42 42 -87 5 -92 -16 -2 -26 5 -38 28
-9 17 -27 35 -41 40 -30 12 -40 35 -23 56 18 22 58 10 97 -32z"/>
</g>
</svg>
