<?xml version="1.0" standalone="no"?>
<!DOCTYPE svg PUBLIC "-//W3C//DTD SVG 20010904//EN"
 "http://www.w3.org/TR/2001/REC-SVG-20010904/DTD/svg10.dtd">
<svg version="1.0" xmlns="http://www.w3.org/2000/svg"
 width="192.000000pt" height="192.000000pt" viewBox="0 0 192.000000 192.000000"
 preserveAspectRatio="xMidYMid meet">
<metadata>
Created by potrace 1.16, written by Peter Selinger 2001-2019
</metadata>
<g transform="translate(0.000000,192.000000) scale(0.100000,-0.100000)"
fill="#000000" stroke="none">
811 c445 -92 729 -532 635 -987 -62 -301 -295 -546 -601 -630 -91 -26 -329
-26 -420 0 -291 80 -516 305 -596 596 -26 91 -26 329 0 420 120 433 542 692
982 601z"/>
<path d="M870 1369 c-114 -22 -239 -120 -286 -223 -98 -214 -16 -445 193 -548
64 -31 73 -33 178 -33 104 0 114 2 176 32 41 20 85 53 118 88 224 237 98 625
-223 684 -68 12 -92 12 -156 0z m195 -80 c75 -28 156 -104 195 -182 39 -80 48
-138 25 -157 -25 -21 -47 -1 -60 56 -6 27 -19 64 -29 82 -39 74 -131 140 -217
156 -42 8 -62 26 -53 50 9 23 71 21 139 -5z m-50 -106 c61 -20 126 -84 149
-145 24 -61 19 -93 -14 -93 -20 0 -27 8 -42 49 -22 64 -71 113 -127 130 -53
15 -71 37 -52 60 17 20 26 20 86 -1z m7 -143 c30 -30 39 -45 36 -67 -5 -42
-42 -44 -63 -3 -9 17 -27 35 -41 40 -46 18 -45 70 2 70 17 0 40 -13 66 -40z"/>
</g>
</svg>
