<?xml version="1.0" standalone="no"?>
<!DOCTYPE svg PUBLIC "-//W3C//DTD SVG 20010904//EN"
 "http://www.w3.org/TR/2001/REC-SVG-20010904/DTD/svg10.dtd">
<svg version="1.0" xmlns="http://www.w3.org/2000/svg"
 width="192.000000pt" height="192.000000pt" viewBox="0 0 192.000000 192.000000"
 preserveAspectRatio="xMidYMid meet">
<metadata>
Created by potrace 1.16, written by Peter Selinger 2001-2019
</metadata>
<g transform="translate(0.000000,192.000000) scale(0.100000,-0.100000)"
fill="#000000" stroke="none">
811 c445 -92 729 -532 635 -987 -62 -301 -295 -546 -601 -630 -91 -26 -329
-26 -420 0 -291 80 -516 305 -596 596 -26 91 -26 329 0 420 120 433 542 692
982 601z"/>
<path d="M872 1369 c-152 -29 -277 -149 -318 -303 -49 -185 46 -385 224 -469
63 -30 74 -32 177 -32 104 0 114 2 176 32 80 39 160 121 195 197 140 305 -125
640 -454 575z m103 -88 c0 -21 -8 -26 -62 -41 -127 -35 -200 -108 -233 -234
-14 -54 -18 -61 -40 -61 -31 0 -36 22 -20 92 31 139 192 277 315 270 35 -2 40
-5 40 -26z m-7 -90 c8 -4 12 -19 10 -32 -2 -17 -11 -25 -34 -30 -73 -14 -126
-66 -149 -144 -9 -28 -18 -41 -33 -43 -61 -9 -37 104 37 178 57 57 138 91 169
71z m11 -125 c16 -19 6 -38 -29 -58 -17 -9 -35 -29 -40 -43 -11 -29 -54 -35
-64 -9 -9 24 22 81 57 103 38 24 60 26 76 7z"/>
</g>
</svg>
