<?xml version="1.0" standalone="no"?>
<!DOCTYPE svg PUBLIC "-//W3C//DTD SVG 20010904//EN"
 "http://www.w3.org/TR/2001/REC-SVG-20010904/DTD/svg10.dtd">
<svg version="1.0" xmlns="http://www.w3.org/2000/svg"
 width="192.000000pt" height="192.000000pt" viewBox="0 0 192.000000 192.000000"
 preserveAspectRatio="xMidYMid meet">
<metadata>
Created by potrace 1.16, written by Peter Selinger 2001-2019
</metadata>
<g transform="translate(0.000000,192.000000) scale(0.100000,-0.100000)"
fill="#000000" stroke="none">
811 c445 -92 729 -532 635 -987 -62 -301 -295 -546 -601 -630 -91 -26 -329
-26 -420 0 -291 80 -516 305 -596 596 -26 91 -26 329 0 420 120 433 542 692
982 601z"/>
<path d="M705 1325 c-48 -17 -101 -74 -115 -124 -5 -20 -10 -64 -10 -98 l0
-63 77 0 76 0 187 120 187 120 83 0 c82 0 83 0 59 18 -47 37 -87 42 -298 42
-150 -1 -217 -5 -246 -15z"/>
<path d="M940 1090 l-185 -120 -87 0 -88 0 0 -45 0 -45 73 0 73 0 186 120 186
120 111 0 c121 0 127 3 113 55 l-8 30 -95 2 -94 3 -185 -120z"/>
<path d="M931 929 l-184 -119 -83 0 c-80 0 -84 -1 -84 -22 1 -62 7 -68 79 -68
l66 0 187 120 186 119 113 3 114 3 3 43 3 42 -108 -1 -108 0 -184 -120z"/>
<path d="M931 769 c-178 -115 -186 -119 -238 -119 -63 0 -62 -12 1 -41 36 -16
67 -19 252 -19 136 0 223 4 245 12 88 30 128 92 136 209 l6 79 -109 -1 -109 0
-184 -120z"/>
</g>
</svg>
