<?xml version="1.0" standalone="no"?>
<!DOCTYPE svg PUBLIC "-//W3C//DTD SVG 20010904//EN"
 "http://www.w3.org/TR/2001/REC-SVG-20010904/DTD/svg10.dtd">
<svg version="1.0" xmlns="http://www.w3.org/2000/svg"
 width="192.000000pt" height="192.000000pt" viewBox="0 0 192.000000 192.000000"
 preserveAspectRatio="xMidYMid meet">
<metadata>
Created by potrace 1.16, written by Peter Selinger 2001-2019
</metadata>
<g transform="translate(0.000000,192.000000) scale(0.100000,-0.100000)"
fill="#000000" stroke="none">
811 c445 -92 729 -532 635 -987 -62 -301 -295 -546 -601 -630 -91 -26 -329
-26 -420 0 -291 80 -516 305 -596 596 -26 91 -26 329 0 420 120 433 542 692
982 601z"/>
<path d="M695 1325 c-47 -25 -83 -65 -101 -110 -13 -35 -15 -80 -12 -267 l3
-226 30 -44 c18 -25 49 -52 75 -65 42 -22 56 -23 265 -23 209 0 223 1 265 23
26 13 57 40 75 65 l30 44 3 231 c3 225 2 233 -20 276 -13 25 -40 59 -61 75
l-39 31 -241 3 c-205 2 -247 0 -272 -13z m501 -61 c21 -10 40 -31 54 -58 18
-38 20 -61 20 -239 0 -204 -7 -245 -43 -276 -16 -12 -17 2 -17 192 0 167 -3
208 -15 220 -21 21 -221 127 -240 127 -19 0 -219 -106 -240 -127 -12 -12 -15
-53 -15 -220 0 -190 -1 -204 -17 -192 -36 31 -43 72 -43 276 0 177 2 201 20
239 34 69 53 74 293 74 171 0 215 -3 243 -16z m-341 -287 l60 -32 3 -147 3
-148 -71 0 -70 0 0 180 c0 99 3 180 8 180 4 0 34 -15 67 -33z m275 -147 l0
-180 -70 0 -71 0 3 148 3 147 60 32 c33 18 63 33 68 33 4 0 7 -81 7 -180z"/>
</g>
</svg>
