<?xml version="1.0" standalone="no"?>
<!DOCTYPE svg PUBLIC "-//W3C//DTD SVG 20010904//EN"
 "http://www.w3.org/TR/2001/REC-SVG-20010904/DTD/svg10.dtd">
<svg version="1.0" xmlns="http://www.w3.org/2000/svg"
 width="192.000000pt" height="192.000000pt" viewBox="0 0 192.000000 192.000000"
 preserveAspectRatio="xMidYMid meet">
<metadata>
Created by potrace 1.16, written by Peter Selinger 2001-2019
</metadata>
<g transform="translate(0.000000,192.000000) scale(0.100000,-0.100000)"
fill="#000000" stroke="none">
811 c445 -92 729 -532 635 -987 -62 -301 -295 -546 -601 -630 -91 -26 -329
-26 -420 0 -291 80 -516 305 -596 596 -26 91 -26 329 0 420 120 433 542 692
982 601z"/>
<path d="M692 1319 c-24 -12 -54 -36 -66 -53 -42 -55 -48 -96 -44 -326 3 -241
7 -253 81 -314 l39 -31 253 0 253 0 39 31 c76 62 78 70 78 334 0 269 -5 289
-84 345 l-43 30 -231 3 c-221 2 -234 1 -275 -19z m86 -288 c3 -22 1 -23 -27
-18 -47 10 -44 -6 5 -29 l44 -21 0 44 c0 39 2 43 25 43 16 0 25 -6 25 -15 0
-8 9 -15 20 -15 15 0 20 -7 20 -25 0 -18 -5 -25 -20 -25 -13 0 -20 -7 -20 -20
0 -33 36 -25 43 9 9 45 30 58 91 59 l56 0 0 -44 c0 -24 5 -44 10 -44 6 0 10
20 10 45 l0 44 58 0 c31 -1 63 -6 70 -11 7 -6 12 -34 12 -69 0 -56 -1 -59 -24
-59 -22 0 -25 5 -28 42 -4 60 -28 63 -28 3 l0 -46 -102 5 c-130 7 -117 7 -160
0 -29 -5 -39 -2 -49 14 -12 19 -12 19 -30 1 -30 -30 -123 -22 -117 10 2 11 14
16 35 16 48 0 50 12 4 31 -35 14 -41 21 -41 45 0 36 34 61 80 57 28 -2 36 -8
38 -27z m480 -124 c4 -20 -25 -34 -40 -19 -15 15 -1 44 19 40 10 -2 19 -11 21
-21z"/>
<path d="M957 963 c-14 -13 -6 -33 13 -33 13 0 20 7 20 20 0 19 -20 27 -33 13z"/>
</g>
</svg>
