<?xml version="1.0" standalone="no"?>
<!DOCTYPE svg PUBLIC "-//W3C//DTD SVG 20010904//EN"
 "http://www.w3.org/TR/2001/REC-SVG-20010904/DTD/svg10.dtd">
<svg version="1.0" xmlns="http://www.w3.org/2000/svg"
 width="192.000000pt" height="192.000000pt" viewBox="0 0 192.000000 192.000000"
 preserveAspectRatio="xMidYMid meet">
<metadata>
Created by potrace 1.16, written by Peter Selinger 2001-2019
</metadata>
<g transform="translate(0.000000,192.000000) scale(0.100000,-0.100000)"
fill="#000000" stroke="none">
811 c445 -92 729 -532 635 -987 -62 -301 -295 -546 -601 -630 -91 -26 -329
-26 -420 0 -291 80 -516 305 -596 596 -26 91 -26 329 0 420 120 433 542 692
982 601z"/>
<path d="M933 1352 c-7 -4 -28 -42 -46 -85 l-33 -76 -32 19 c-61 37 -88 18
-73 -51 7 -29 7 -46 0 -50 -6 -3 -49 -9 -97 -13 -136 -10 -145 -35 -45 -125
l67 -61 -28 -29 c-23 -24 -26 -32 -17 -50 9 -16 21 -21 51 -21 47 0 47 2 19
-115 -19 -82 -19 -88 -3 -106 9 -10 22 -19 28 -19 6 0 48 22 92 49 l81 49 17
-34 c28 -59 52 -56 92 12 10 17 16 14 91 -29 44 -26 84 -47 90 -47 5 0 18 9
27 19 16 18 16 24 -3 106 -12 48 -21 91 -21 96 0 5 15 9 34 9 19 0 41 3 50 6
24 9 19 45 -11 76 l-27 28 67 61 c100 90 91 115 -46 125 l-87 7 3 56 c2 47 -1
56 -17 59 -10 2 -36 -6 -57 -18 l-39 -21 -9 23 c-26 67 -63 143 -74 150 -15
10 -29 10 -44 0z m67 -226 c35 -81 41 -86 126 -86 29 0 58 -6 70 -15 18 -15
16 -18 -45 -75 l-64 -59 16 -76 c10 -42 15 -81 12 -86 -10 -15 -36 -10 -83 17
-43 26 -44 27 -38 67 4 23 19 54 36 74 34 38 38 78 15 123 -19 37 -43 50 -95
50 -92 0 -133 -102 -70 -173 23 -26 30 -44 30 -75 0 -38 -3 -43 -45 -67 -24
-15 -52 -25 -62 -23 -21 4 -21 19 -2 106 l13 64 -63 57 c-60 54 -63 58 -47 74
12 12 34 17 69 17 82 0 93 6 117 63 29 69 48 97 64 97 7 0 28 -33 46 -74z
m-40 -311 c0 -8 -4 -15 -10 -15 -5 0 -10 7 -10 15 0 8 5 15 10 15 6 0 10 -7
10 -15z"/>
</g>
</svg>
