<?xml version="1.0" standalone="no"?>
<!DOCTYPE svg PUBLIC "-//W3C//DTD SVG 20010904//EN"
 "http://www.w3.org/TR/2001/REC-SVG-20010904/DTD/svg10.dtd">
<svg version="1.0" xmlns="http://www.w3.org/2000/svg"
 width="192.000000pt" height="192.000000pt" viewBox="0 0 192.000000 192.000000"
 preserveAspectRatio="xMidYMid meet">
<metadata>
Created by potrace 1.16, written by Peter Selinger 2001-2019
</metadata>
<g transform="translate(0.000000,192.000000) scale(0.100000,-0.100000)"
fill="#000000" stroke="none">
811 c445 -92 729 -532 635 -987 -62 -301 -295 -546 -601 -630 -91 -26 -329
-26 -420 0 -291 80 -516 305 -596 596 -26 91 -26 329 0 420 120 433 542 692
982 601z"/>
<path d="M1033 1320 c-46 -19 -56 -78 -19 -114 18 -19 23 -34 22 -73 -1 -26 2
-60 7 -75 7 -26 5 -27 -50 -39 -63 -13 -207 -17 -321 -9 -71 5 -75 4 -98 -23
-30 -35 -31 -83 -5 -160 65 -188 254 -301 444 -267 81 15 126 40 175 95 55 63
76 128 78 242 0 56 6 98 13 107 7 8 30 17 52 21 52 9 57 21 21 58 -36 39 -59
104 -43 120 31 31 -3 87 -52 87 -15 0 -27 4 -27 8 0 20 -52 33 -86 22 -23 -8
-39 -8 -53 -1 -23 13 -28 13 -58 1z m167 -184 c20 -25 8 -61 -22 -64 -37 -4
-57 31 -32 59 20 23 37 24 54 5z"/>
</g>
</svg>
