<?xml version="1.0" standalone="no"?>
<!DOCTYPE svg PUBLIC "-//W3C//DTD SVG 20010904//EN"
 "http://www.w3.org/TR/2001/REC-SVG-20010904/DTD/svg10.dtd">
<svg version="1.0" xmlns="http://www.w3.org/2000/svg"
 width="192.000000pt" height="192.000000pt" viewBox="0 0 192.000000 192.000000"
 preserveAspectRatio="xMidYMid meet">
<metadata>
Created by potrace 1.16, written by Peter Selinger 2001-2019
</metadata>
<g transform="translate(0.000000,192.000000) scale(0.100000,-0.100000)"
fill="#000000" stroke="none">
811 c445 -92 729 -532 635 -987 -62 -301 -295 -546 -601 -630 -91 -26 -329
-26 -420 0 -291 80 -516 305 -596 596 -26 91 -26 329 0 420 120 433 542 692
982 601z"/>
<path d="M870 1369 c-117 -23 -229 -112 -283 -226 -30 -64 -32 -75 -32 -178 0
-104 2 -114 32 -176 40 -80 120 -159 200 -197 52 -24 69 -27 168 -27 100 0
115 2 167 28 138 68 225 195 235 344 9 131 -32 238 -126 326 -102 95 -227 132
-361 106z m127 -59 c26 0 31 -15 8 -24 -17 -6 -19 -24 -6 -44 7 -12 14 -11 39
2 17 9 38 16 47 16 15 0 15 -2 1 -22 -22 -32 -20 -39 10 -28 41 16 45 12 22
-26 -17 -29 -25 -34 -42 -29 -70 23 -136 28 -193 15 -76 -19 -71 -20 -95 19
-21 33 -21 34 -3 29 11 -3 28 -9 39 -13 17 -8 17 -6 2 24 -19 36 -9 40 39 15
27 -14 30 -14 42 2 11 15 10 21 -9 41 l-21 23 26 0 c17 0 31 8 38 22 l12 23
10 -23 c6 -14 19 -22 34 -22z m-331 -172 c5 -17 12 -18 45 -13 21 4 42 4 47 1
16 -10 -65 -86 -92 -86 -14 0 -37 -5 -51 -12 -14 -6 -28 -9 -31 -6 -3 3 6 33
20 67 14 33 26 68 26 77 0 13 3 14 15 4 8 -6 17 -21 21 -32z m645 -75 c15 -38
9 -49 -19 -34 -12 6 -33 11 -49 11 -20 0 -39 12 -65 40 -21 22 -38 42 -38 45
0 9 51 5 71 -5 10 -6 19 -7 19 -2 0 5 10 22 22 37 l21 28 13 -44 c6 -24 18
-58 25 -76z m-317 86 c35 -16 42 -39 11 -39 -24 0 -51 -32 -41 -49 3 -4 19 -6
36 -3 25 4 30 1 30 -17 0 -35 -29 -81 -57 -92 -34 -13 -69 10 -89 56 -20 49
-18 55 22 55 31 0 35 3 32 23 -2 16 -11 23 -31 25 -33 4 -31 22 4 39 30 16 51
16 83 2z m-133 -37 c-16 -30 -13 -64 10 -126 l21 -55 -26 -45 c-32 -55 -33
-77 -1 -124 30 -44 31 -57 5 -116 -14 -33 -23 -44 -34 -40 -13 5 -13 11 4 45
26 49 25 65 -5 114 -31 50 -31 67 0 113 29 42 31 66 10 115 -8 20 -15 48 -15
62 0 28 28 90 37 82 2 -3 0 -14 -6 -25z m210 -30 c9 -31 8 -45 -5 -76 -23 -55
-20 -91 11 -137 l27 -41 -27 -52 c-30 -57 -33 -89 -12 -126 18 -31 18 -40 2
-40 -16 0 -47 62 -47 93 0 12 11 40 25 62 31 51 31 67 0 113 -30 45 -31 55 -3
127 17 46 19 62 10 90 -5 19 -6 33 -1 30 4 -3 14 -23 20 -43z m39 -36 c0 -21
-5 -56 -12 -77 -10 -35 -9 -42 14 -76 37 -58 38 -67 12 -123 -28 -61 -29 -66
-9 -104 20 -39 7 -55 -16 -19 -24 36 -24 80 1 118 27 40 25 68 -6 121 l-27 45
18 60 c17 55 17 62 2 101 l-17 43 20 -25 c12 -15 20 -41 20 -64z m-291 53 c-7
-14 -9 -39 -4 -68 18 -121 18 -117 -11 -160 l-27 -42 28 -58 c29 -61 29 -88 1
-126 -22 -31 -28 -13 -10 32 16 40 15 42 -10 85 -32 55 -32 66 -1 112 28 41
30 65 14 128 -10 35 -9 50 4 81 9 20 19 37 22 37 3 0 1 -10 -6 -21z m-36 -29
c-13 -33 -14 -47 -5 -79 17 -56 15 -73 -14 -112 -21 -28 -25 -41 -20 -76 5
-36 2 -45 -16 -58 -25 -17 -58 -20 -58 -5 0 6 -7 10 -15 10 -8 0 -15 5 -15 10
0 6 5 10 11 10 5 0 8 4 5 9 -3 5 8 14 24 20 18 6 34 21 40 37 6 14 20 38 31
53 18 22 20 34 14 92 -5 52 -3 74 9 98 23 43 27 39 9 -9z m127 20 c12 -8 11
-10 -7 -10 -13 0 -23 5 -23 10 0 13 11 13 30 0z m120 0 c0 -5 -9 -10 -21 -10
-11 0 -17 5 -14 10 3 6 13 10 21 10 8 0 14 -4 14 -10z m112 -112 c-12 -49 -11
-52 18 -96 16 -25 30 -51 30 -59 0 -7 11 -15 25 -19 37 -9 52 -42 28 -60 -23
-17 -28 -17 -64 2 -23 11 -29 20 -24 32 17 40 15 59 -10 96 -25 37 -26 43 -19
120 6 66 9 77 17 58 7 -16 7 -38 -1 -74z m-474 26 c-2 -8 -22 -24 -45 -34 -42
-18 -43 -18 -43 -1 0 12 13 24 38 34 47 20 54 20 50 1z m635 -6 c16 -6 27 -18
27 -29 0 -18 -2 -19 -30 -4 -16 8 -36 15 -45 15 -8 0 -15 2 -15 4 0 2 -3 12
-7 21 -6 18 7 17 70 -7z m-653 -61 c0 -13 -40 -37 -60 -37 -20 0 -9 20 18 34
34 19 42 19 42 3z m652 -3 c19 -10 27 -19 21 -25 -13 -13 -63 9 -63 28 0 17 4
16 42 -3z m-302 -25 c0 -6 9 -22 20 -36 26 -34 25 -59 -5 -108 -28 -45 -31
-79 -10 -115 30 -52 22 -60 -55 -60 -38 0 -70 3 -70 6 0 3 10 28 22 56 l22 51
-27 49 c-33 59 -34 86 -4 132 19 31 27 35 65 36 24 0 42 -5 42 -11z m-360 -39
c0 -12 -35 -31 -44 -23 -8 9 14 33 30 33 8 0 14 -4 14 -10z m654 4 c9 -3 16
-12 16 -20 0 -11 -5 -11 -25 -2 -39 18 -31 37 9 22z m-644 -63 c0 -12 -28 -22
-34 -12 -3 5 -3 11 1 15 9 9 33 7 33 -3z m640 -6 c0 -9 -6 -12 -15 -9 -8 4
-15 10 -15 15 0 5 7 9 15 9 8 0 15 -7 15 -15z m-520 -134 c-19 -36 -31 -23
-12 13 9 19 18 28 20 21 2 -8 -2 -23 -8 -34z m389 -16 c0 -5 -6 -1 -14 9 -8
11 -15 27 -15 35 1 17 29 -26 29 -44z"/>
<path d="M930 1225 c-11 -13 -7 -15 26 -15 36 1 38 2 20 15 -25 19 -31 19 -46
0z"/>
<path d="M945 1020 c4 -6 11 -8 16 -5 14 9 11 15 -7 15 -8 0 -12 -5 -9 -10z"/>
<path d="M925 990 c3 -5 17 -10 31 -10 13 0 24 5 24 10 0 6 -14 10 -31 10 -17
0 -28 -4 -24 -10z"/>
</g>
</svg>
