<?xml version="1.0" standalone="no"?>
<!DOCTYPE svg PUBLIC "-//W3C//DTD SVG 20010904//EN"
 "http://www.w3.org/TR/2001/REC-SVG-20010904/DTD/svg10.dtd">
<svg version="1.0" xmlns="http://www.w3.org/2000/svg"
 width="192.000000pt" height="192.000000pt" viewBox="0 0 192.000000 192.000000"
 preserveAspectRatio="xMidYMid meet">
<metadata>
Created by potrace 1.16, written by Peter Selinger 2001-2019
</metadata>
<g transform="translate(0.000000,192.000000) scale(0.100000,-0.100000)"
fill="#000000" stroke="none">
811 c445 -92 729 -532 635 -987 -62 -301 -295 -546 -601 -630 -91 -26 -329
-26 -420 0 -291 80 -516 305 -596 596 -26 91 -26 329 0 420 120 433 542 692
982 601z"/>
<path d="M830 1362 c-137 -46 -238 -154 -276 -297 -18 -65 -17 -127 1 -198 21
-83 50 -133 109 -192 161 -161 415 -162 578 -1 201 198 146 537 -107 662 -64
32 -85 37 -162 40 -67 3 -101 0 -143 -14z m280 -114 c14 -26 13 -29 -5 -46
-11 -10 -40 -24 -64 -31 -65 -19 -118 -73 -144 -151 -21 -60 -25 -65 -54 -68
-90 -9 -53 152 58 252 83 75 180 95 209 44z m-10 -278 c23 -23 20 -57 -12
-129 -27 -64 -60 -104 -115 -139 -64 -41 -130 -56 -160 -36 -37 24 -25 84 17
84 8 0 39 11 67 25 58 26 107 90 119 152 6 30 35 63 56 63 5 0 17 -9 28 -20z"/>
</g>
</svg>
