<?xml version="1.0" standalone="no"?>
<!DOCTYPE svg PUBLIC "-//W3C//DTD SVG 20010904//EN"
 "http://www.w3.org/TR/2001/REC-SVG-20010904/DTD/svg10.dtd">
<svg version="1.0" xmlns="http://www.w3.org/2000/svg"
 width="192.000000pt" height="192.000000pt" viewBox="0 0 192.000000 192.000000"
 preserveAspectRatio="xMidYMid meet">
<metadata>
Created by potrace 1.16, written by Peter Selinger 2001-2019
</metadata>
<g transform="translate(0.000000,192.000000) scale(0.100000,-0.100000)"
fill="#000000" stroke="none">
811 c445 -92 729 -532 635 -987 -62 -301 -295 -546 -601 -630 -91 -26 -329
-26 -420 0 -291 80 -516 305 -596 596 -26 91 -26 329 0 420 120 433 542 692
982 601z"/>
<path d="M731 1336 c-38 -21 -50 -54 -51 -141 l0 -80 -60 -34 c-119 -69 -118
-161 5 -231 l55 -31 0 -86 c0 -84 0 -85 35 -120 32 -32 40 -35 78 -31 23 3 69
21 102 41 l60 35 73 -40 c88 -48 130 -48 175 2 25 28 27 37 27 114 l0 84 55
31 c65 37 90 71 89 123 -2 47 -28 78 -96 115 l-48 26 0 79 c0 44 -5 89 -11
101 -35 67 -100 74 -198 20 l-68 -37 -65 37 c-70 39 -116 46 -157 23z m317
-173 c4 -30 -125 -395 -145 -410 -20 -15 -43 -6 -43 17 0 23 129 390 143 408
15 19 42 10 45 -15z m-198 -104 c0 -13 -21 -29 -70 -54 -38 -19 -70 -37 -70
-39 0 -3 32 -19 70 -37 50 -23 70 -37 70 -51 0 -34 -30 -32 -112 8 -141 69
-142 95 -4 159 94 44 116 46 116 14z m380 -39 c45 -23 59 -54 36 -78 -24 -27
-172 -96 -190 -89 -37 14 -16 42 56 78 l73 36 -73 37 c-51 26 -72 42 -72 55 0
11 6 21 13 24 12 4 79 -23 157 -63z"/>
</g>
</svg>
