<?xml version="1.0" standalone="no"?>
<!DOCTYPE svg PUBLIC "-//W3C//DTD SVG 20010904//EN"
 "http://www.w3.org/TR/2001/REC-SVG-20010904/DTD/svg10.dtd">
<svg version="1.0" xmlns="http://www.w3.org/2000/svg"
 width="192.000000pt" height="192.000000pt" viewBox="0 0 192.000000 192.000000"
 preserveAspectRatio="xMidYMid meet">
<metadata>
Created by potrace 1.16, written by Peter Selinger 2001-2019
</metadata>
<g transform="translate(0.000000,192.000000) scale(0.100000,-0.100000)"
fill="#000000" stroke="none">
811 c445 -92 729 -532 635 -987 -62 -301 -295 -546 -601 -630 -91 -26 -329
-26 -420 0 -291 80 -516 305 -596 596 -26 91 -26 329 0 420 120 433 542 692
982 601z"/>
<path d="M695 1326 c-68 -31 -115 -110 -115 -196 l0 -50 90 0 91 0 -21 28
c-26 35 -31 85 -9 90 10 2 21 -10 31 -37 9 -21 25 -44 37 -50 21 -12 21 -11
21 109 l0 120 -47 0 c-27 -1 -61 -7 -78 -14z"/>
<path d="M880 1281 l0 -58 39 1 c66 1 113 -60 91 -118 l-10 -26 165 0 165 0 0
53 c-1 86 -53 170 -123 196 -16 6 -96 11 -178 11 l-149 0 0 -59z"/>
<path d="M892 1168 c-7 -7 -12 -30 -12 -51 0 -39 0 -39 32 -33 40 8 58 23 58
50 0 41 -50 62 -78 34z"/>
<path d="M582 871 c3 -147 3 -150 33 -193 37 -52 102 -88 162 -88 l43 0 0 154
0 154 -29 -11 c-60 -22 -131 44 -115 108 6 24 5 25 -46 25 l-52 0 4 -149z"/>
<path d="M732 1008 c-28 -28 -7 -78 33 -78 30 0 45 19 45 57 0 31 -2 33 -33
33 -18 0 -38 -5 -45 -12z"/>
<path d="M939 996 c13 -13 25 -43 28 -66 5 -37 4 -42 -12 -38 -11 2 -22 16
-27 34 -4 17 -17 39 -28 49 -20 18 -20 18 -20 -183 l0 -202 148 0 c133 0 152
2 192 23 26 13 57 40 75 65 30 43 30 46 33 193 l4 149 -208 0 -207 0 22 -24z"/>
</g>
</svg>
