<?xml version="1.0" standalone="no"?>
<!DOCTYPE svg PUBLIC "-//W3C//DTD SVG 20010904//EN"
 "http://www.w3.org/TR/2001/REC-SVG-20010904/DTD/svg10.dtd">
<svg version="1.0" xmlns="http://www.w3.org/2000/svg"
 width="192.000000pt" height="192.000000pt" viewBox="0 0 192.000000 192.000000"
 preserveAspectRatio="xMidYMid meet">
<metadata>
Created by potrace 1.16, written by Peter Selinger 2001-2019
</metadata>
<g transform="translate(0.000000,192.000000) scale(0.100000,-0.100000)"
fill="#000000" stroke="none">
811 c445 -92 729 -532 635 -987 -62 -301 -295 -546 -601 -630 -91 -26 -329
-26 -420 0 -291 80 -516 305 -596 596 -26 91 -26 329 0 420 120 433 542 692
982 601z"/>
<path d="M870 1370 c-151 -32 -291 -166 -324 -313 -6 -27 -3 -29 91 -73 84
-39 101 -43 126 -34 17 5 39 10 51 10 25 1 116 112 116 142 0 65 96 135 172
125 107 -14 168 -129 119 -224 -21 -41 -74 -83 -105 -83 -31 0 -172 -109 -189
-146 -21 -42 -71 -74 -117 -74 -42 0 -96 31 -111 64 -12 26 -90 62 -114 52
-18 -6 -11 -26 26 -82 40 -58 93 -102 169 -138 60 -29 73 -31 175 -31 104 0
114 2 176 32 198 98 285 312 209 516 -41 109 -133 199 -244 238 -66 23 -166
31 -226 19z"/>
<path d="M1015 1146 c-32 -32 -40 -69 -25 -107 17 -40 47 -59 93 -59 53 0 97
43 97 95 0 82 -108 128 -165 71z m86 -36 c11 -6 19 -21 19 -35 0 -20 -24 -45
-44 -45 -10 0 -36 32 -36 45 0 13 26 45 36 45 3 0 14 -5 25 -10z"/>
<path d="M816 904 c-20 -19 -21 -16 10 -49 23 -25 24 -29 10 -49 -10 -15 -23
-20 -44 -19 -60 5 -65 -47 -6 -61 55 -14 114 39 114 102 0 54 -56 105 -84 76z"/>
</g>
</svg>
