<?xml version="1.0" standalone="no"?>
<!DOCTYPE svg PUBLIC "-//W3C//DTD SVG 20010904//EN"
 "http://www.w3.org/TR/2001/REC-SVG-20010904/DTD/svg10.dtd">
<svg version="1.0" xmlns="http://www.w3.org/2000/svg"
 width="192.000000pt" height="192.000000pt" viewBox="0 0 192.000000 192.000000"
 preserveAspectRatio="xMidYMid meet">
<metadata>
Created by potrace 1.16, written by Peter Selinger 2001-2019
</metadata>
<g transform="translate(0.000000,192.000000) scale(0.100000,-0.100000)"
fill="#000000" stroke="none">
811 c445 -92 729 -532 635 -987 -62 -301 -295 -546 -601 -630 -91 -26 -329
-26 -420 0 -291 80 -516 305 -596 596 -26 91 -26 329 0 420 120 433 542 692
982 601z"/>
<path d="M891 1243 c-16 -16 -79 -86 -142 -158 -62 -71 -139 -158 -171 -192
-32 -34 -58 -66 -58 -71 0 -5 9 -20 19 -33 l19 -24 71 23 72 23 65 -48 c160
-117 157 -115 196 -110 25 3 64 26 123 71 119 91 112 88 186 66 73 -22 96 -19
105 15 5 21 -13 46 -116 162 -280 314 -268 303 -306 303 -23 0 -43 -9 -63 -27z
m102 -213 c20 -27 37 -52 37 -55 0 -3 -36 -5 -80 -5 -44 0 -80 3 -80 6 0 8 74
103 80 104 3 0 22 -22 43 -50z"/>
</g>
</svg>
