<?xml version="1.0" standalone="no"?>
<!DOCTYPE svg PUBLIC "-//W3C//DTD SVG 20010904//EN"
 "http://www.w3.org/TR/2001/REC-SVG-20010904/DTD/svg10.dtd">
<svg version="1.0" xmlns="http://www.w3.org/2000/svg"
 width="192.000000pt" height="192.000000pt" viewBox="0 0 192.000000 192.000000"
 preserveAspectRatio="xMidYMid meet">
<metadata>
Created by potrace 1.16, written by Peter Selinger 2001-2019
</metadata>
<g transform="translate(0.000000,192.000000) scale(0.100000,-0.100000)"
fill="#000000" stroke="none">
811 c445 -92 729 -532 635 -987 -62 -301 -295 -546 -601 -630 -91 -26 -329
-26 -420 0 -291 80 -516 305 -596 596 -26 91 -26 329 0 420 120 433 542 692
982 601z"/>
<path d="M1059 1312 c-66 -34 -115 -101 -125 -170 -9 -62 -93 -172 -130 -172
-27 0 -78 -23 -106 -47 -15 -14 -23 -13 -67 3 -59 21 -97 10 -107 -31 -9 -36
18 -71 68 -87 39 -13 43 -18 50 -58 25 -146 196 -208 310 -112 35 30 67 94 68
134 0 21 12 36 53 67 45 33 61 39 114 43 80 5 136 43 176 118 51 98 31 211
-52 281 -75 65 -166 76 -252 31z m161 -97 c65 -33 79 -122 30 -178 -35 -41
-79 -52 -123 -33 -52 22 -72 52 -72 106 0 91 86 146 165 105z m-326 -376 c51
-61 17 -139 -60 -139 -52 0 -84 31 -84 82 0 83 92 119 144 57z"/>
</g>
</svg>
