<?xml version="1.0" standalone="no"?>
<!DOCTYPE svg PUBLIC "-//W3C//DTD SVG 20010904//EN"
 "http://www.w3.org/TR/2001/REC-SVG-20010904/DTD/svg10.dtd">
<svg version="1.0" xmlns="http://www.w3.org/2000/svg"
 width="192.000000pt" height="192.000000pt" viewBox="0 0 192.000000 192.000000"
 preserveAspectRatio="xMidYMid meet">
<metadata>
Created by potrace 1.16, written by Peter Selinger 2001-2019
</metadata>
<g transform="translate(0.000000,192.000000) scale(0.100000,-0.100000)"
fill="#000000" stroke="none">
811 c445 -92 729 -532 635 -987 -62 -301 -295 -546 -601 -630 -91 -26 -329
-26 -420 0 -291 80 -516 305 -596 596 -26 91 -26 329 0 420 120 433 542 692
982 601z"/>
<path d="M1103 1328 c-5 -7 -19 -37 -31 -67 -31 -77 -11 -90 61 -39 25 19 65
-7 91 -57 25 -48 70 -60 100 -26 26 29 16 45 -54 82 -34 18 -79 52 -99 76 -41
45 -53 51 -68 31z"/>
<path d="M863 1214 c-24 -10 -13 -23 30 -36 l42 -12 -77 -7 c-88 -7 -138 -31
-153 -73 -12 -36 3 -60 43 -64 31 -3 37 1 86 63 22 27 28 29 72 26 122 -9 129
-8 132 21 3 22 -4 32 -35 52 -37 25 -115 41 -140 30z"/>
<path d="M1353 1080 c-19 -51 -100 -74 -172 -49 -44 15 -50 4 -18 -29 22 -22
37 -27 75 -27 94 0 179 64 152 115 -15 28 -24 25 -37 -10z"/>
<path d="M1000 1046 c0 -9 6 -25 12 -36 10 -16 9 -25 -4 -48 -22 -38 -10 -60
25 -45 20 9 29 8 47 -4 20 -14 23 -14 37 0 14 14 13 18 -17 45 -18 17 -35 44
-39 63 -5 27 -12 35 -34 37 -19 2 -27 -1 -27 -12z"/>
<path d="M598 973 c-59 -62 -72 -97 -73 -190 0 -91 13 -118 76 -161 29 -21 43
-23 103 -20 62 3 71 7 97 35 53 60 48 142 -10 176 -58 34 -123 8 -123 -47 0
-45 48 -62 84 -29 17 15 18 15 18 -8 0 -33 -10 -46 -44 -59 -61 -23 -122 16
-133 84 -8 52 13 117 58 171 32 38 37 50 29 66 -16 29 -42 23 -82 -18z"/>
<path d="M765 922 c-3 -3 -5 -14 -5 -24 0 -13 8 -18 29 -18 21 0 36 -8 51 -30
31 -43 57 -39 51 8 -1 6 9 16 23 21 28 11 37 23 28 37 -7 10 -168 15 -177 6z"/>
<path d="M994 847 c-31 -17 -34 -27 -34 -128 0 -80 3 -99 18 -112 29 -27 63
-20 137 26 114 70 117 108 12 170 -85 49 -109 57 -133 44z"/>
</g>
</svg>
