<?xml version="1.0" standalone="no"?>
<!DOCTYPE svg PUBLIC "-//W3C//DTD SVG 20010904//EN"
 "http://www.w3.org/TR/2001/REC-SVG-20010904/DTD/svg10.dtd">
<svg version="1.0" xmlns="http://www.w3.org/2000/svg"
 width="192.000000pt" height="192.000000pt" viewBox="0 0 192.000000 192.000000"
 preserveAspectRatio="xMidYMid meet">
<metadata>
Created by potrace 1.16, written by Peter Selinger 2001-2019
</metadata>
<g transform="translate(0.000000,192.000000) scale(0.100000,-0.100000)"
fill="#000000" stroke="none">
811 c445 -92 729 -532 635 -987 -62 -301 -295 -546 -601 -630 -91 -26 -329
-26 -420 0 -291 80 -516 305 -596 596 -26 91 -26 329 0 420 120 433 542 692
982 601z"/>
<path d="M886 1369 c-75 -12 -167 -62 -220 -119 -194 -207 -133 -535 122 -656
43 -21 77 -29 140 -32 l83 -5 115 114 c64 63 143 144 175 182 54 62 59 71 59
115 -1 194 -145 365 -340 402 -59 11 -64 11 -134 -1z m-28 -291 c7 -7 12 -21
12 -33 0 -12 -5 -26 -12 -33 -28 -28 -78 -7 -78 33 0 40 50 61 78 33z m260 0
c7 -7 12 -21 12 -33 0 -12 -5 -26 -12 -33 -28 -28 -78 -7 -78 33 0 40 50 61
78 33z m-233 -212 c40 -28 114 -24 153 9 17 14 37 25 46 25 26 0 18 -36 -14
-64 -74 -62 -182 -54 -249 18 -20 21 -22 28 -11 41 12 14 15 14 34 0 12 -8 30
-21 41 -29z"/>
</g>
</svg>
