<?xml version="1.0" standalone="no"?>
<!DOCTYPE svg PUBLIC "-//W3C//DTD SVG 20010904//EN"
 "http://www.w3.org/TR/2001/REC-SVG-20010904/DTD/svg10.dtd">
<svg version="1.0" xmlns="http://www.w3.org/2000/svg"
 width="192.000000pt" height="192.000000pt" viewBox="0 0 192.000000 192.000000"
 preserveAspectRatio="xMidYMid meet">
<metadata>
Created by potrace 1.16, written by Peter Selinger 2001-2019
</metadata>
<g transform="translate(0.000000,192.000000) scale(0.100000,-0.100000)"
fill="#000000" stroke="none">
811 c445 -92 729 -532 635 -987 -62 -301 -295 -546 -601 -630 -91 -26 -329
-26 -420 0 -291 80 -516 305 -596 596 -26 91 -26 329 0 420 120 433 542 692
982 601z"/>
<path d="M728 1330 c-47 -14 -88 -44 -116 -84 l-27 -39 -3 -221 c-4 -239 1
-275 45 -327 53 -62 83 -69 328 -69 209 0 223 1 265 22 24 13 58 40 74 61 l31
39 3 186 c2 102 1 196 -3 209 -6 27 -44 39 -73 24 -19 -10 -21 -22 -24 -197
l-3 -186 -28 -24 c-28 -24 -30 -24 -243 -24 -287 0 -264 -23 -264 264 l0 214
31 26 c30 26 32 26 204 26 187 0 205 5 205 54 0 50 -22 56 -206 55 -93 0 -181
-4 -196 -9z"/>
<path d="M1255 1330 c-11 -4 -105 -94 -208 -198 -165 -166 -188 -193 -182
-214 9 -28 32 -48 59 -48 12 0 91 71 213 192 206 206 221 228 171 262 -25 18
-25 18 -53 6z"/>
</g>
</svg>
