<?xml version="1.0" standalone="no"?>
<!DOCTYPE svg PUBLIC "-//W3C//DTD SVG 20010904//EN"
 "http://www.w3.org/TR/2001/REC-SVG-20010904/DTD/svg10.dtd">
<svg version="1.0" xmlns="http://www.w3.org/2000/svg"
 width="192.000000pt" height="192.000000pt" viewBox="0 0 192.000000 192.000000"
 preserveAspectRatio="xMidYMid meet">
<metadata>
Created by potrace 1.16, written by Peter Selinger 2001-2019
</metadata>
<g transform="translate(0.000000,192.000000) scale(0.100000,-0.100000)"
fill="#000000" stroke="none">
811 c445 -92 729 -532 635 -987 -62 -301 -295 -546 -601 -630 -91 -26 -329
-26 -420 0 -291 80 -516 305 -596 596 -26 91 -26 329 0 420 120 433 542 692
982 601z"/>
<path d="M1164 1354 c-94 -64 -164 -119 -164 -130 0 -6 7 -17 15 -24 13 -11 9
-21 -31 -79 -26 -36 -52 -71 -58 -78 -8 -9 -25 9 -70 73 -65 93 -88 114 -124
114 -29 0 -82 -51 -82 -78 0 -23 317 -511 363 -559 40 -42 95 -46 132 -8 48
47 30 89 -128 303 -28 38 -33 51 -19 43 12 -6 24 -16 28 -22 3 -6 42 44 85
111 53 82 84 120 93 117 31 -12 44 16 49 112 4 82 2 96 -14 112 -24 24 -29 24
-75 -7z"/>
<path d="M733 770 c-49 -69 -63 -97 -63 -125 0 -70 80 -110 138 -69 20 13 92
116 92 130 0 5 -99 154 -103 154 -1 0 -30 -41 -64 -90z"/>
</g>
</svg>
