<?xml version="1.0" standalone="no"?>
<!DOCTYPE svg PUBLIC "-//W3C//DTD SVG 20010904//EN"
 "http://www.w3.org/TR/2001/REC-SVG-20010904/DTD/svg10.dtd">
<svg version="1.0" xmlns="http://www.w3.org/2000/svg"
 width="192.000000pt" height="192.000000pt" viewBox="0 0 192.000000 192.000000"
 preserveAspectRatio="xMidYMid meet">
<metadata>
Created by potrace 1.16, written by Peter Selinger 2001-2019
</metadata>
<g transform="translate(0.000000,192.000000) scale(0.100000,-0.100000)"
fill="#000000" stroke="none">
811 c445 -92 729 -532 635 -987 -62 -301 -295 -546 -601 -630 -91 -26 -329
-26 -420 0 -291 80 -516 305 -596 596 -26 91 -26 329 0 420 120 433 542 692
982 601z"/>
<path d="M741 1354 l-31 -26 0 -199 c0 -199 0 -200 25 -224 23 -24 29 -25 165
-25 l140 0 0 -80 0 -80 -85 0 -85 0 0 40 c0 47 -18 60 -80 60 -75 0 -80 -7
-80 -121 0 -93 2 -102 25 -124 24 -25 25 -25 220 -25 264 0 245 -19 245 247
-1 140 -4 203 -13 214 -25 33 -55 39 -186 39 l-131 0 0 80 0 80 85 0 85 0 0
-38 c0 -21 5 -43 12 -50 16 -16 120 -16 136 0 16 16 16 197 -1 219 -26 34 -54
39 -236 39 -179 0 -180 0 -210 -26z"/>
</g>
</svg>
