<?xml version="1.0" standalone="no"?>
<!DOCTYPE svg PUBLIC "-//W3C//DTD SVG 20010904//EN"
 "http://www.w3.org/TR/2001/REC-SVG-20010904/DTD/svg10.dtd">
<svg version="1.0" xmlns="http://www.w3.org/2000/svg"
 width="192.000000pt" height="192.000000pt" viewBox="0 0 192.000000 192.000000"
 preserveAspectRatio="xMidYMid meet">
<metadata>
Created by potrace 1.16, written by Peter Selinger 2001-2019
</metadata>
<g transform="translate(0.000000,192.000000) scale(0.100000,-0.100000)"
fill="#000000" stroke="none">
811 c445 -92 729 -532 635 -987 -62 -301 -295 -546 -601 -630 -91 -26 -329
-26 -420 0 -291 80 -516 305 -596 596 -26 91 -26 329 0 420 120 433 542 692
982 601z"/>
<path d="M1014 1248 l-64 -61 -59 56 c-90 86 -99 84 -238 -57 -84 -85 -113
-120 -113 -139 0 -27 57 -106 109 -150 64 -54 75 -48 273 150 l178 178 92 -93
93 -92 -168 -168 -168 -167 -69 73 c-38 39 -72 72 -75 72 -20 0 -45 -24 -45
-42 0 -26 143 -174 176 -182 37 -10 61 10 253 206 152 154 174 181 174 209 0
27 -17 48 -120 150 -82 81 -127 119 -142 119 -14 0 -47 -23 -87 -62z"/>
<path d="M1099 1101 c-20 -16 -22 -23 -14 -47 18 -51 95 -42 95 11 0 22 -28
55 -47 55 -6 0 -21 -9 -34 -19z"/>
</g>
</svg>
