<?xml version="1.0" standalone="no"?>
<!DOCTYPE svg PUBLIC "-//W3C//DTD SVG 20010904//EN"
 "http://www.w3.org/TR/2001/REC-SVG-20010904/DTD/svg10.dtd">
<svg version="1.0" xmlns="http://www.w3.org/2000/svg"
 width="192.000000pt" height="192.000000pt" viewBox="0 0 192.000000 192.000000"
 preserveAspectRatio="xMidYMid meet">
<metadata>
Created by potrace 1.16, written by Peter Selinger 2001-2019
</metadata>
<g transform="translate(0.000000,192.000000) scale(0.100000,-0.100000)"
fill="#000000" stroke="none">
811 c445 -92 729 -532 635 -987 -62 -301 -295 -546 -601 -630 -91 -26 -329
-26 -420 0 -291 80 -516 305 -596 596 -26 91 -26 329 0 420 120 433 542 692
982 601z"/>
<path d="M855 1366 c-195 -48 -325 -225 -313 -426 13 -216 190 -382 408 -382
208 0 378 142 413 345 48 284 -225 533 -508 463z m195 -177 c97 -44 144 -117
145 -224 0 -59 -4 -77 -28 -118 -31 -52 -95 -100 -157 -117 -53 -15 -185 -12
-225 4 -59 25 -75 65 -75 186 0 80 5 115 19 145 22 48 97 118 143 132 54 18
129 14 178 -8z"/>
<path d="M875 1137 c-39 -18 -93 -79 -101 -115 -3 -15 -8 -33 -10 -41 -7 -23
17 -94 43 -130 36 -46 103 -75 164 -69 169 17 229 231 93 335 -29 22 -49 28
-98 30 -37 2 -73 -2 -91 -10z"/>
</g>
</svg>
