<?xml version="1.0" standalone="no"?>
<!DOCTYPE svg PUBLIC "-//W3C//DTD SVG 20010904//EN"
 "http://www.w3.org/TR/2001/REC-SVG-20010904/DTD/svg10.dtd">
<svg version="1.0" xmlns="http://www.w3.org/2000/svg"
 width="192.000000pt" height="192.000000pt" viewBox="0 0 192.000000 192.000000"
 preserveAspectRatio="xMidYMid meet">
<metadata>
Created by potrace 1.16, written by Peter Selinger 2001-2019
</metadata>
<g transform="translate(0.000000,192.000000) scale(0.100000,-0.100000)"
fill="#000000" stroke="none">
811 c445 -92 729 -532 635 -987 -62 -301 -295 -546 -601 -630 -91 -26 -329
-26 -420 0 -291 80 -516 305 -596 596 -26 91 -26 329 0 420 120 433 542 692
982 601z"/>
<path d="M936 1367 c-12 -9 -17 -23 -14 -42 3 -26 8 -31 43 -38 151 -31 220
-75 275 -178 32 -59 35 -71 35 -149 0 -99 -20 -152 -81 -219 -48 -54 -107 -88
-167 -96 -38 -6 -51 -13 -59 -31 -9 -19 -8 -28 8 -45 16 -17 26 -20 64 -14
101 15 207 87 269 183 115 182 62 444 -115 561 -88 58 -223 93 -258 68z"/>
<path d="M806 1338 c-25 -35 5 -75 49 -64 32 8 42 42 19 67 -23 25 -49 24 -68
-3z"/>
<path d="M651 1246 c-42 -43 -52 -59 -49 -81 2 -18 11 -31 26 -36 19 -7 32 0
82 50 33 32 60 65 60 74 0 66 -49 64 -119 -7z"/>
<path d="M862 1138 c-8 -8 -12 -45 -12 -100 l0 -88 -28 0 c-28 0 -52 -15 -52
-33 0 -20 164 -177 185 -177 33 0 177 152 173 182 -2 19 -10 24 -40 26 l-38 3
0 84 c0 118 3 115 -94 115 -50 0 -87 -5 -94 -12z"/>
<path d="M554 1076 c-34 -53 -27 -220 12 -283 17 -26 55 -30 74 -8 10 12 9 28
-4 82 -10 42 -15 99 -14 148 l3 80 -27 3 c-20 2 -31 -4 -44 -22z"/>
<path d="M654 750 c-46 -18 -39 -56 21 -109 102 -89 255 -120 255 -51 0 25
-28 44 -90 63 -35 11 -75 33 -109 62 -29 25 -53 45 -54 44 -1 0 -11 -4 -23 -9z"/>
</g>
</svg>
