<?xml version="1.0" standalone="no"?>
<!DOCTYPE svg PUBLIC "-//W3C//DTD SVG 20010904//EN"
 "http://www.w3.org/TR/2001/REC-SVG-20010904/DTD/svg10.dtd">
<svg version="1.0" xmlns="http://www.w3.org/2000/svg"
 width="192.000000pt" height="192.000000pt" viewBox="0 0 192.000000 192.000000"
 preserveAspectRatio="xMidYMid meet">
<metadata>
Created by potrace 1.16, written by Peter Selinger 2001-2019
</metadata>
<g transform="translate(0.000000,192.000000) scale(0.100000,-0.100000)"
fill="#000000" stroke="none">
811 c445 -92 729 -532 635 -987 -62 -301 -295 -546 -601 -630 -91 -26 -329
-26 -420 0 -291 80 -516 305 -596 596 -26 91 -26 329 0 420 120 433 542 692
982 601z"/>
<path d="M614 1350 c-67 -27 -87 -129 -35 -181 l29 -29 342 0 342 0 34 34 c38
38 44 77 19 126 -30 58 -43 60 -392 59 -175 0 -328 -4 -339 -9z m77 -60 c13
-7 19 -21 19 -45 0 -35 -20 -55 -54 -55 -41 0 -64 79 -28 99 22 13 39 13 63 1z"/>
<path d="M581 1039 c-43 -43 -44 -104 -2 -151 l29 -33 331 -3 c364 -3 375 -1
406 58 25 49 19 88 -19 126 l-34 34 -340 0 -340 0 -31 -31z m107 -35 c24 -17
30 -62 10 -82 -7 -7 -24 -12 -38 -12 -33 0 -50 17 -50 51 0 24 30 59 50 59 3
0 16 -7 28 -16z"/>
<path d="M584 756 c-38 -38 -45 -85 -20 -135 26 -49 42 -51 396 -51 l330 0 32
29 c29 26 33 35 33 81 0 46 -4 55 -33 81 l-32 29 -336 0 -336 0 -34 -34z m114
-38 c21 -21 14 -66 -13 -84 -23 -15 -27 -15 -50 0 -17 11 -25 26 -25 44 0 35
16 52 50 52 14 0 31 -5 38 -12z"/>
</g>
</svg>
