<?xml version="1.0" standalone="no"?>
<!DOCTYPE svg PUBLIC "-//W3C//DTD SVG 20010904//EN"
 "http://www.w3.org/TR/2001/REC-SVG-20010904/DTD/svg10.dtd">
<svg version="1.0" xmlns="http://www.w3.org/2000/svg"
 width="192.000000pt" height="192.000000pt" viewBox="0 0 192.000000 192.000000"
 preserveAspectRatio="xMidYMid meet">
<metadata>
Created by potrace 1.16, written by Peter Selinger 2001-2019
</metadata>
<g transform="translate(0.000000,192.000000) scale(0.100000,-0.100000)"
fill="#000000" stroke="none">
811 c445 -92 729 -532 635 -987 -62 -301 -295 -546 -601 -630 -91 -26 -329
-26 -420 0 -291 80 -516 305 -596 596 -26 91 -26 329 0 420 120 433 542 692
982 601z"/>
<path d="M585 1278 c-43 -25 -44 -32 -45 -315 l0 -271 31 -26 c38 -33 60 -33
98 0 l31 26 0 268 c0 148 -3 276 -6 285 -7 17 -54 45 -76 45 -7 0 -22 -6 -33
-12z"/>
<path d="M1016 1229 l-26 -20 0 -240 0 -240 25 -24 c26 -27 70 -32 96 -12 35
27 39 53 39 282 l0 226 -25 24 c-30 31 -73 32 -109 4z"/>
<path d="M810 1167 c-13 -7 -30 -24 -37 -37 -15 -30 -18 -286 -3 -325 13 -35
64 -56 103 -42 49 17 59 59 55 224 -3 127 -5 145 -23 162 -27 27 -65 34 -95
18z"/>
<path d="M1235 1075 c-23 -22 -25 -32 -25 -110 0 -78 2 -88 25 -110 32 -33 78
-33 110 0 23 22 25 32 25 113 0 80 -2 91 -23 110 -32 30 -81 29 -112 -3z"/>
</g>
</svg>
