<?xml version="1.0" standalone="no"?>
<!DOCTYPE svg PUBLIC "-//W3C//DTD SVG 20010904//EN"
 "http://www.w3.org/TR/2001/REC-SVG-20010904/DTD/svg10.dtd">
<svg version="1.0" xmlns="http://www.w3.org/2000/svg"
 width="192.000000pt" height="192.000000pt" viewBox="0 0 192.000000 192.000000"
 preserveAspectRatio="xMidYMid meet">
<metadata>
Created by potrace 1.16, written by Peter Selinger 2001-2019
</metadata>
<g transform="translate(0.000000,192.000000) scale(0.100000,-0.100000)"
fill="#000000" stroke="none">
811 c445 -92 729 -532 635 -987 -62 -301 -295 -546 -601 -630 -91 -26 -329
-26 -420 0 -291 80 -516 305 -596 596 -26 91 -26 329 0 420 120 433 542 692
982 601z"/>
<path d="M930 1168 c-39 -20 -54 -38 -107 -128 -85 -145 -89 -150 -123 -150
-50 0 -80 69 -45 104 9 9 33 20 54 26 77 21 64 100 -16 100 -105 0 -181 -106
-153 -211 24 -89 116 -145 201 -122 30 8 40 6 59 -9 36 -29 94 -40 142 -27 57
15 101 63 171 187 l58 103 37 -3 c27 -2 40 -10 51 -29 20 -37 -2 -81 -46 -90
-45 -9 -63 -26 -63 -60 0 -36 30 -53 83 -46 82 11 137 78 137 167 0 63 -22
106 -73 144 -23 17 -43 21 -101 21 -52 0 -79 5 -99 18 -46 30 -115 32 -167 5z
m116 -103 c7 -18 -91 -192 -116 -205 -25 -13 -43 -13 -63 3 -15 11 -12 20 37
106 30 52 60 98 68 102 21 14 68 10 74 -6z"/>
</g>
</svg>
