<?xml version="1.0" standalone="no"?>
<!DOCTYPE svg PUBLIC "-//W3C//DTD SVG 20010904//EN"
 "http://www.w3.org/TR/2001/REC-SVG-20010904/DTD/svg10.dtd">
<svg version="1.0" xmlns="http://www.w3.org/2000/svg"
 width="192.000000pt" height="192.000000pt" viewBox="0 0 192.000000 192.000000"
 preserveAspectRatio="xMidYMid meet">
<metadata>
Created by potrace 1.16, written by Peter Selinger 2001-2019
</metadata>
<g transform="translate(0.000000,192.000000) scale(0.100000,-0.100000)"
fill="#000000" stroke="none">
811 c445 -92 729 -532 635 -987 -62 -301 -295 -546 -601 -630 -91 -26 -329
-26 -420 0 -291 80 -516 305 -596 596 -26 91 -26 329 0 420 120 433 542 692
982 601z"/>
<path d="M824 1386 c-28 -20 -214 -345 -214 -374 0 -27 42 -72 67 -72 35 0 63
31 124 135 33 58 62 105 64 105 2 0 29 -46 61 -101 64 -113 87 -139 121 -139
30 0 73 42 73 71 0 27 -182 347 -212 372 -25 21 -57 22 -84 3z"/>
<path d="M1204 980 c-13 -5 -48 -54 -85 -119 -35 -61 -66 -111 -69 -111 -3 0
-28 39 -55 87 -70 121 -90 143 -129 143 -40 0 -69 -29 -69 -68 0 -17 38 -93
102 -200 108 -182 122 -196 180 -176 34 12 221 333 221 380 0 48 -51 82 -96
64z"/>
</g>
</svg>
