<?xml version="1.0" standalone="no"?>
<!DOCTYPE svg PUBLIC "-//W3C//DTD SVG 20010904//EN"
 "http://www.w3.org/TR/2001/REC-SVG-20010904/DTD/svg10.dtd">
<svg version="1.0" xmlns="http://www.w3.org/2000/svg"
 width="192.000000pt" height="192.000000pt" viewBox="0 0 192.000000 192.000000"
 preserveAspectRatio="xMidYMid meet">
<metadata>
Created by potrace 1.16, written by Peter Selinger 2001-2019
</metadata>
<g transform="translate(0.000000,192.000000) scale(0.100000,-0.100000)"
fill="#000000" stroke="none">
811 c445 -92 729 -532 635 -987 -62 -301 -295 -546 -601 -630 -91 -26 -329
-26 -420 0 -291 80 -516 305 -596 596 -26 91 -26 329 0 420 120 433 542 692
982 601z"/>
<path d="M1007 1359 c-11 -6 -54 -12 -96 -14 -95 -3 -162 -30 -190 -76 -11
-18 -27 -65 -36 -104 l-16 -72 -61 -6 c-43 -4 -67 -11 -82 -26 -28 -29 -13
-51 50 -73 55 -18 52 -8 39 -148 -7 -67 -5 -81 14 -118 47 -93 151 -136 331
-136 214 -1 254 33 335 284 45 140 57 258 31 308 -18 34 -82 83 -151 113 -25
11 -45 26 -45 34 0 29 -91 54 -123 34z m-112 -395 c33 -8 107 -32 165 -53 58
-22 116 -42 128 -46 20 -6 23 -12 17 -33 -11 -49 -57 -133 -80 -148 -41 -27
-138 -38 -233 -25 -107 13 -170 43 -196 93 -18 33 -19 41 -7 122 7 48 20 93
27 101 17 16 82 12 179 -11z"/>
<path d="M822 921 c-8 -5 -20 -37 -27 -72 -12 -55 -12 -66 1 -79 22 -22 41 4
55 73 10 48 10 61 -2 72 -9 9 -19 11 -27 6z"/>
<path d="M1002 878 c-16 -20 -40 -124 -32 -138 4 -7 16 -10 26 -8 25 4 61 123
43 144 -14 17 -23 18 -37 2z"/>
</g>
</svg>
