<?xml version="1.0" standalone="no"?>
<!DOCTYPE svg PUBLIC "-//W3C//DTD SVG 20010904//EN"
 "http://www.w3.org/TR/2001/REC-SVG-20010904/DTD/svg10.dtd">
<svg version="1.0" xmlns="http://www.w3.org/2000/svg"
 width="192.000000pt" height="192.000000pt" viewBox="0 0 192.000000 192.000000"
 preserveAspectRatio="xMidYMid meet">
<metadata>
Created by potrace 1.16, written by Peter Selinger 2001-2019
</metadata>
<g transform="translate(0.000000,192.000000) scale(0.100000,-0.100000)"
fill="#000000" stroke="none">
811 c445 -92 729 -532 635 -987 -62 -301 -295 -546 -601 -630 -91 -26 -329
-26 -420 0 -291 80 -516 305 -596 596 -26 91 -26 329 0 420 120 433 542 692
982 601z"/>
<path d="M870 1369 c-120 -23 -245 -123 -298 -236 -36 -80 -42 -212 -13 -295
39 -112 113 -192 227 -245 53 -25 69 -28 169 -28 97 0 116 3 165 26 115 55
196 146 231 261 71 232 -81 472 -325 517 -68 12 -92 12 -156 0z m109 -73 c8
-9 11 -50 9 -117 -3 -101 -4 -104 -27 -107 -13 -2 -28 2 -32 10 -14 21 -11
202 3 216 16 16 33 15 47 -2z m-160 -141 c63 -65 71 -77 61 -95 -18 -34 -41
-23 -117 52 -75 75 -81 86 -61 106 23 23 45 11 117 -63z m46 -185 l0 -25 -116
-3 c-97 -2 -118 0 -122 13 -4 8 -4 22 0 30 4 13 25 15 122 13 l116 -3 0 -25z"/>
</g>
</svg>
