<?xml version="1.0" standalone="no"?>
<!DOCTYPE svg PUBLIC "-//W3C//DTD SVG 20010904//EN"
 "http://www.w3.org/TR/2001/REC-SVG-20010904/DTD/svg10.dtd">
<svg version="1.0" xmlns="http://www.w3.org/2000/svg"
 width="192.000000pt" height="192.000000pt" viewBox="0 0 192.000000 192.000000"
 preserveAspectRatio="xMidYMid meet">
<metadata>
Created by potrace 1.16, written by Peter Selinger 2001-2019
</metadata>
<g transform="translate(0.000000,192.000000) scale(0.100000,-0.100000)"
fill="#000000" stroke="none">
811 c445 -92 729 -532 635 -987 -62 -301 -295 -546 -601 -630 -91 -26 -329
-26 -420 0 -291 80 -516 305 -596 596 -26 91 -26 329 0 420 120 433 542 692
982 601z"/>
<path d="M635 1328 c-43 -23 -45 -33 -45 -252 l0 -211 140 140 140 140 0 68
c0 62 -3 71 -29 98 -28 27 -34 29 -108 29 -43 0 -87 -6 -98 -12z"/>
<path d="M789 1013 c-174 -175 -209 -214 -214 -245 -19 -100 110 -202 198
-157 12 6 113 102 225 212 243 243 240 235 139 335 -55 55 -67 62 -102 62 -37
0 -47 -8 -246 -207z"/>
<path d="M974 738 c-74 -72 -134 -135 -134 -140 0 -5 100 -8 226 -6 l226 3 24
28 c21 25 24 38 24 113 0 77 -2 87 -25 109 -22 23 -32 25 -116 25 l-91 0 -134
-132z"/>
</g>
</svg>
