<?xml version="1.0" standalone="no"?>
<!DOCTYPE svg PUBLIC "-//W3C//DTD SVG 20010904//EN"
 "http://www.w3.org/TR/2001/REC-SVG-20010904/DTD/svg10.dtd">
<svg version="1.0" xmlns="http://www.w3.org/2000/svg"
 width="192.000000pt" height="192.000000pt" viewBox="0 0 192.000000 192.000000"
 preserveAspectRatio="xMidYMid meet">
<metadata>
Created by potrace 1.16, written by Peter Selinger 2001-2019
</metadata>
<g transform="translate(0.000000,192.000000) scale(0.100000,-0.100000)"
fill="#000000" stroke="none">
811 c445 -92 729 -532 635 -987 -62 -301 -295 -546 -601 -630 -91 -26 -329
-26 -420 0 -291 80 -516 305 -596 596 -26 91 -26 329 0 420 120 433 542 692
982 601z"/>
<path d="M635 1330 c-47 -18 -50 -32 -53 -247 -2 -111 0 -203 5 -203 5 0 71
62 147 139 l138 139 -4 67 c-4 59 -8 71 -32 91 -24 21 -37 24 -104 23 -42 0
-86 -4 -97 -9z"/>
<path d="M797 1023 c-109 -109 -205 -210 -213 -225 -31 -58 -5 -128 65 -175
48 -32 98 -30 147 6 21 16 121 112 222 213 220 222 217 216 119 315 -56 56
-68 63 -102 63 -37 0 -48 -9 -238 -197z m-49 -245 c7 -7 12 -25 12 -40 0 -36
-36 -56 -69 -39 -23 13 -29 59 -9 79 15 15 51 15 66 0z"/>
<path d="M972 737 c-72 -73 -132 -136 -132 -140 0 -5 102 -7 226 -5 l226 3 24
28 c21 25 24 38 24 113 0 77 -2 87 -25 109 -22 23 -32 25 -117 25 l-93 0 -133
-133z"/>
</g>
</svg>
