<?xml version="1.0" standalone="no"?>
<!DOCTYPE svg PUBLIC "-//W3C//DTD SVG 20010904//EN"
 "http://www.w3.org/TR/2001/REC-SVG-20010904/DTD/svg10.dtd">
<svg version="1.0" xmlns="http://www.w3.org/2000/svg"
 width="192.000000pt" height="192.000000pt" viewBox="0 0 192.000000 192.000000"
 preserveAspectRatio="xMidYMid meet">
<metadata>
Created by potrace 1.16, written by Peter Selinger 2001-2019
</metadata>
<g transform="translate(0.000000,192.000000) scale(0.100000,-0.100000)"
fill="#000000" stroke="none">
811 c445 -92 729 -532 635 -987 -62 -301 -295 -546 -601 -630 -91 -26 -329
-26 -420 0 -291 80 -516 305 -596 596 -26 91 -26 329 0 420 120 433 542 692
982 601z"/>
<path d="M742 1368 c-7 -7 -12 -25 -12 -40 0 -23 -4 -28 -23 -28 -13 0 -32 -9
-42 -20 -25 -28 -7 -68 35 -76 28 -6 30 -10 30 -50 0 -39 -2 -44 -23 -44 -13
0 -32 -9 -42 -20 -25 -28 -8 -66 34 -75 29 -6 31 -10 31 -51 0 -40 -2 -44 -24
-44 -26 0 -56 -23 -56 -44 0 -21 24 -44 50 -48 22 -3 25 -8 28 -50 3 -47 3
-48 -27 -48 -29 0 -51 -21 -51 -49 0 -18 31 -41 56 -41 21 0 24 -5 24 -35 0
-33 20 -55 49 -55 19 0 41 32 41 61 l0 29 130 0 130 0 0 -25 c0 -27 31 -65 53
-65 22 0 47 34 47 63 0 21 5 27 23 27 29 0 47 18 47 45 0 27 -18 45 -47 45
-21 0 -23 4 -23 50 0 46 2 50 23 50 29 0 47 18 47 45 0 27 -18 45 -47 45 -20
0 -23 5 -23 44 0 40 2 44 33 52 25 8 33 16 35 37 4 35 -13 57 -44 57 -22 0
-24 4 -24 43 0 40 2 44 33 52 28 9 32 14 32 45 0 31 -4 36 -32 45 -25 7 -33
15 -33 31 0 27 -25 54 -50 54 -21 0 -50 -36 -50 -62 0 -16 -12 -18 -130 -18
l-130 0 0 28 c0 33 -16 52 -45 52 -12 0 -26 -5 -33 -12z m338 -213 l0 -45
-130 0 -130 0 0 45 0 45 130 0 130 0 0 -45z m0 -190 l0 -45 -130 0 -130 0 0
45 0 45 130 0 130 0 0 -45z m0 -185 l0 -50 -130 0 -130 0 0 50 0 50 130 0 130
0 0 -50z"/>
</g>
</svg>
