<?xml version="1.0" standalone="no"?>
<!DOCTYPE svg PUBLIC "-//W3C//DTD SVG 20010904//EN"
 "http://www.w3.org/TR/2001/REC-SVG-20010904/DTD/svg10.dtd">
<svg version="1.0" xmlns="http://www.w3.org/2000/svg"
 width="192.000000pt" height="192.000000pt" viewBox="0 0 192.000000 192.000000"
 preserveAspectRatio="xMidYMid meet">
<metadata>
Created by potrace 1.16, written by Peter Selinger 2001-2019
</metadata>
<g transform="translate(0.000000,192.000000) scale(0.100000,-0.100000)"
fill="#000000" stroke="none">
811 c445 -92 729 -532 635 -987 -62 -301 -295 -546 -601 -630 -91 -26 -329
-26 -420 0 -291 80 -516 305 -596 596 -26 91 -26 329 0 420 120 433 542 692
982 601z"/>
<path d="M1096 1354 c-9 -8 -16 -20 -16 -25 0 -5 -48 -9 -107 -9 -142 0 -208
-19 -274 -77 -104 -94 -102 -248 4 -327 25 -19 42 -21 155 -21 75 0 129 4 132
10 3 6 -28 27 -68 48 -58 31 -77 46 -88 73 -17 42 -10 75 23 106 21 20 36 23
120 26 87 4 96 2 109 -17 9 -12 23 -21 33 -21 18 0 151 104 151 118 0 13 -22
35 -70 73 -69 55 -86 62 -104 43z"/>
<path d="M923 1043 c-25 -10 -12 -23 55 -57 85 -43 107 -66 107 -116 0 -47
-25 -76 -74 -90 -45 -12 -181 -13 -181 -1 0 12 -28 41 -39 41 -10 0 -133 -98
-143 -113 -13 -20 -10 -25 59 -82 71 -58 96 -67 112 -36 9 16 26 19 133 24
137 5 193 20 251 68 134 111 103 325 -53 358 -51 11 -204 14 -227 4z"/>
</g>
</svg>
