<?xml version="1.0" standalone="no"?>
<!DOCTYPE svg PUBLIC "-//W3C//DTD SVG 20010904//EN"
 "http://www.w3.org/TR/2001/REC-SVG-20010904/DTD/svg10.dtd">
<svg version="1.0" xmlns="http://www.w3.org/2000/svg"
 width="192.000000pt" height="192.000000pt" viewBox="0 0 192.000000 192.000000"
 preserveAspectRatio="xMidYMid meet">
<metadata>
Created by potrace 1.16, written by Peter Selinger 2001-2019
</metadata>
<g transform="translate(0.000000,192.000000) scale(0.100000,-0.100000)"
fill="#000000" stroke="none">
811 c445 -92 729 -532 635 -987 -62 -301 -295 -546 -601 -630 -91 -26 -329
-26 -420 0 -291 80 -516 305 -596 596 -26 91 -26 329 0 420 120 433 542 692
982 601z"/>
<path d="M602 1324 c-20 -14 -22 -24 -22 -104 0 -111 9 -120 115 -120 106 0
115 9 115 120 0 111 -9 120 -115 120 -48 0 -78 -5 -93 -16z m43 -39 c0 -28
-29 -25 -33 3 -3 19 0 23 15 20 10 -2 18 -12 18 -23z m130 0 c0 -11 -8 -21
-17 -23 -14 -3 -18 3 -18 23 0 20 4 26 18 23 9 -2 17 -12 17 -23z m-125 -125
c0 -13 -7 -20 -20 -20 -13 0 -20 7 -20 20 0 13 7 20 20 20 13 0 20 -7 20 -20z
m130 0 c0 -13 -7 -20 -20 -20 -13 0 -20 7 -20 20 0 13 7 20 20 20 13 0 20 -7
20 -20z"/>
<path d="M851 1314 c-17 -21 -21 -41 -21 -96 0 -60 3 -72 25 -93 21 -22 33
-25 100 -25 103 0 115 12 115 120 0 109 -11 120 -119 120 -74 0 -81 -2 -100
-26z m155 -56 c3 -5 0 -15 -6 -23 -10 -12 -10 -18 0 -30 19 -23 4 -33 -49 -33
l-49 0 0 48 0 48 49 0 c27 0 52 -4 55 -10z"/>
<path d="M1110 1320 c-17 -17 -20 -33 -20 -100 0 -108 12 -120 114 -120 59 0
78 4 100 21 24 19 26 26 26 100 0 108 -11 119 -120 119 -67 0 -83 -3 -100 -20z
m188 -33 c4 -20 -25 -34 -40 -19 -15 15 -1 44 19 40 10 -2 19 -11 21 -21z
m-68 -67 c0 -13 -7 -20 -20 -20 -13 0 -20 7 -20 20 0 13 7 20 20 20 13 0 20
-7 20 -20z m-62 -63 c3 -12 -3 -17 -22 -17 -25 0 -35 18 -19 34 12 12 38 2 41
-17z"/>
<path d="M598 1069 c-15 -8 -18 -25 -18 -104 0 -113 2 -115 119 -115 105 0
111 6 111 115 0 110 -5 115 -113 115 -45 0 -90 -5 -99 -11z m87 -59 c4 -6 13
-5 25 2 27 17 50 -4 34 -30 -8 -12 -8 -22 0 -34 15 -25 -7 -47 -32 -32 -12 8
-22 8 -34 0 -25 -15 -47 7 -31 33 8 13 8 22 1 29 -6 6 -8 18 -5 26 7 18 32 21
42 6z"/>
<path d="M846 1058 c-11 -15 -16 -45 -16 -93 0 -106 10 -115 119 -115 114 0
121 7 121 117 0 106 -7 113 -123 113 -77 0 -87 -2 -101 -22z m64 -28 c0 -13
-7 -20 -19 -20 -22 0 -35 15 -26 30 12 19 45 11 45 -10z m58 -68 c2 -14 -2
-22 -12 -22 -19 0 -29 17 -22 36 8 22 30 12 34 -14z m-58 -57 c0 -9 -7 -18
-16 -22 -18 -7 -39 11 -30 26 11 17 46 13 46 -4z m130 -5 c0 -13 -7 -20 -19
-20 -22 0 -35 15 -26 30 12 19 45 11 45 -10z"/>
<path d="M1107 1062 c-13 -14 -17 -38 -17 -99 0 -106 7 -113 123 -113 107 0
117 10 117 115 0 106 -10 115 -119 115 -72 0 -91 -3 -104 -18z m88 -52 c4 -7
13 -6 26 1 27 14 34 6 35 -47 2 -49 -6 -60 -34 -45 -13 7 -22 7 -30 -1 -17
-17 -44 9 -32 31 5 10 5 23 0 31 -5 9 -5 19 2 27 13 16 25 17 33 3z"/>
<path d="M602 814 c-20 -14 -22 -24 -22 -104 0 -111 9 -120 115 -120 106 0
115 9 115 120 0 111 -9 120 -115 120 -48 0 -78 -5 -93 -16z m176 -37 c4 -22
-27 -35 -38 -16 -10 15 7 42 24 36 6 -2 12 -11 14 -20z m-133 -132 c0 -28 -29
-25 -33 3 -3 19 0 23 15 20 10 -2 18 -12 18 -23z"/>
<path d="M855 805 c-22 -21 -25 -33 -25 -93 0 -55 4 -75 21 -96 19 -24 26 -26
100 -26 108 0 119 11 119 120 0 108 -12 120 -115 120 -67 0 -79 -3 -100 -25z
m151 -57 c3 -5 0 -15 -6 -23 -10 -12 -10 -18 0 -30 19 -23 4 -33 -49 -33 l-49
0 0 48 0 48 49 0 c27 0 52 -4 55 -10z"/>
<path d="M1110 810 c-17 -17 -20 -33 -20 -100 0 -67 3 -83 20 -100 17 -17 33
-20 100 -20 109 0 120 11 120 118 0 42 -4 82 -8 88 -15 23 -53 34 -121 34 -58
0 -75 -4 -91 -20z m58 -39 c-2 -9 -11 -17 -21 -19 -21 -4 -35 27 -17 38 19 12
42 0 38 -19z m60 1 c3 -17 -2 -22 -17 -22 -14 0 -21 6 -21 18 0 38 33 41 38 4z
m61 19 c17 -11 7 -41 -13 -41 -19 0 -29 17 -22 35 6 17 15 18 35 6z m-59 -81
c0 -13 -7 -20 -20 -20 -13 0 -20 7 -20 20 0 13 7 20 20 20 13 0 20 -7 20 -20z
m-62 -63 c4 -20 -25 -34 -40 -19 -15 15 -1 44 19 40 10 -2 19 -11 21 -21z m60
1 c-2 -13 -10 -23 -18 -23 -8 0 -16 10 -18 23 -3 17 2 22 18 22 16 0 21 -5 18
-22z m65 10 c6 -19 -3 -38 -18 -38 -18 0 -28 17 -21 35 7 18 33 20 39 3z"/>
</g>
</svg>
