<?xml version="1.0" standalone="no"?>
<!DOCTYPE svg PUBLIC "-//W3C//DTD SVG 20010904//EN"
 "http://www.w3.org/TR/2001/REC-SVG-20010904/DTD/svg10.dtd">
<svg version="1.0" xmlns="http://www.w3.org/2000/svg"
 width="192.000000pt" height="192.000000pt" viewBox="0 0 192.000000 192.000000"
 preserveAspectRatio="xMidYMid meet">
<metadata>
Created by potrace 1.16, written by Peter Selinger 2001-2019
</metadata>
<g transform="translate(0.000000,192.000000) scale(0.100000,-0.100000)"
fill="#000000" stroke="none">
811 c445 -92 729 -532 635 -987 -62 -301 -295 -546 -601 -630 -91 -26 -329
-26 -420 0 -291 80 -516 305 -596 596 -26 91 -26 329 0 420 120 433 542 692
982 601z"/>
<path d="M853 1365 c-80 -22 -131 -52 -188 -109 -200 -200 -142 -540 113 -659
204 -95 447 -10 544 192 40 83 50 205 24 293 -34 118 -134 226 -249 270 -69
26 -177 32 -244 13z m252 -94 c68 -34 121 -86 154 -154 l20 -41 -25 -47 c-26
-47 -84 -113 -113 -129 -14 -7 -16 1 -16 59 0 82 -27 130 -91 161 -116 57
-254 -24 -254 -149 l0 -41 -54 0 c-29 0 -68 -3 -86 -7 l-33 -6 6 67 c24 252
270 396 492 287z"/>
</g>
</svg>
