<?xml version="1.0" standalone="no"?>
<!DOCTYPE svg PUBLIC "-//W3C//DTD SVG 20010904//EN"
 "http://www.w3.org/TR/2001/REC-SVG-20010904/DTD/svg10.dtd">
<svg version="1.0" xmlns="http://www.w3.org/2000/svg"
 width="192.000000pt" height="192.000000pt" viewBox="0 0 192.000000 192.000000"
 preserveAspectRatio="xMidYMid meet">
<metadata>
Created by potrace 1.16, written by Peter Selinger 2001-2019
</metadata>
<g transform="translate(0.000000,192.000000) scale(0.100000,-0.100000)"
fill="#000000" stroke="none">
811 c445 -92 729 -532 635 -987 -62 -301 -295 -546 -601 -630 -91 -26 -329
-26 -420 0 -291 80 -516 305 -596 596 -26 91 -26 329 0 420 120 433 542 692
982 601z"/>
<path d="M746 1247 c-30 -22 -17 -67 27 -90 20 -10 37 -23 37 -28 0 -12 -31
-11 -50 1 -9 5 -19 5 -27 -2 -21 -17 -15 -28 23 -44 43 -18 89 -5 100 28 6 19
6 19 18 -3 25 -50 117 -45 137 8 5 14 9 52 7 82 -3 49 -6 56 -25 59 -21 3 -22
-1 -25 -65 -3 -65 -4 -68 -28 -68 -24 0 -25 3 -28 68 -3 64 -4 68 -25 65 -18
-3 -22 -10 -25 -49 l-3 -46 -39 20 c-39 19 -52 37 -27 37 7 0 18 -5 23 -10 8
-8 15 -6 25 6 11 14 11 18 -6 30 -24 18 -66 18 -89 1z"/>
<path d="M1030 1170 c0 -89 0 -90 25 -90 23 0 25 4 25 48 l1 47 27 -47 c22
-39 32 -48 55 -48 l28 0 -3 88 c-3 81 -5 87 -25 90 -20 3 -22 -2 -25 -45 l-3
-48 -28 48 c-21 36 -34 47 -52 47 -25 0 -25 -1 -25 -90z"/>
<path d="M540 889 l0 -170 43 3 42 3 5 93 5 92 56 -92 55 -93 81 -3 c80 -3 81
-2 102 27 27 37 26 41 -9 69 l-28 22 -22 -35 c-12 -19 -24 -35 -26 -35 -2 0
-4 57 -3 128 0 122 1 126 17 103 44 -65 47 -66 73 -48 30 22 68 22 99 0 22
-16 24 -16 38 5 12 18 24 22 73 22 l59 0 0 -131 0 -130 43 3 42 3 3 127 3 127
42 3 c41 3 42 4 45 41 l3 37 -170 0 -171 0 -26 -40 c-15 -22 -30 -40 -34 -40
-4 0 -19 18 -34 40 l-26 40 -85 0 -84 0 -3 -90 -3 -91 -55 90 -55 90 -47 1
-48 0 0 -171z"/>
<path d="M950 879 c0 -22 3 -39 8 -37 73 36 76 40 32 63 -40 21 -40 20 -40
-26z"/>
<path d="M1033 812 l-32 -28 25 -32 c22 -27 32 -32 70 -32 24 0 44 2 44 5 0 5
-71 116 -74 115 -1 -1 -15 -13 -33 -28z"/>
</g>
</svg>
