<?xml version="1.0" standalone="no"?>
<!DOCTYPE svg PUBLIC "-//W3C//DTD SVG 20010904//EN"
 "http://www.w3.org/TR/2001/REC-SVG-20010904/DTD/svg10.dtd">
<svg version="1.0" xmlns="http://www.w3.org/2000/svg"
 width="192.000000pt" height="192.000000pt" viewBox="0 0 192.000000 192.000000"
 preserveAspectRatio="xMidYMid meet">
<metadata>
Created by potrace 1.16, written by Peter Selinger 2001-2019
</metadata>
<g transform="translate(0.000000,192.000000) scale(0.100000,-0.100000)"
fill="#000000" stroke="none">
811 c445 -92 729 -532 635 -987 -62 -301 -295 -546 -601 -630 -91 -26 -329
-26 -420 0 -291 80 -516 305 -596 596 -26 91 -26 329 0 420 120 433 542 692
982 601z"/>
<path d="M835 1357 c-119 -40 -200 -108 -252 -215 -36 -73 -38 -80 -38 -177 0
-93 2 -105 33 -167 79 -160 233 -248 410 -235 136 10 266 95 330 216 109 204
27 448 -187 554 -57 28 -76 32 -160 34 -60 2 -111 -2 -136 -10z m257 -94 c67
-30 140 -102 169 -168 20 -44 38 -175 25 -175 -4 0 -19 14 -33 30 -38 46 -75
41 -115 -15 -35 -50 -42 -53 -57 -28 -7 13 -4 25 12 47 28 40 35 131 13 174
-62 120 -240 121 -304 1 -29 -54 -26 -125 7 -170 18 -24 20 -33 10 -51 l-12
-23 -21 30 c-34 47 -64 75 -82 75 -9 0 -32 -17 -51 -37 l-35 -38 4 71 c16 235
252 373 470 277z m-75 -145 c27 -26 38 -70 23 -98 l-11 -21 -26 21 c-33 25
-73 26 -105 0 -30 -23 -38 -18 -38 27 0 46 15 72 53 89 38 16 74 10 104 -18z"/>
</g>
</svg>
