<?xml version="1.0" standalone="no"?>
<!DOCTYPE svg PUBLIC "-//W3C//DTD SVG 20010904//EN"
 "http://www.w3.org/TR/2001/REC-SVG-20010904/DTD/svg10.dtd">
<svg version="1.0" xmlns="http://www.w3.org/2000/svg"
 width="192.000000pt" height="192.000000pt" viewBox="0 0 192.000000 192.000000"
 preserveAspectRatio="xMidYMid meet">
<metadata>
Created by potrace 1.16, written by Peter Selinger 2001-2019
</metadata>
<g transform="translate(0.000000,192.000000) scale(0.100000,-0.100000)"
fill="#000000" stroke="none">
811 c445 -92 729 -532 635 -987 -62 -301 -295 -546 -601 -630 -91 -26 -329
-26 -420 0 -291 80 -516 305 -596 596 -26 91 -26 329 0 420 120 433 542 692
982 601z"/>
<path d="M1062 1348 c-14 -18 -262 -500 -262 -511 0 -27 34 13 102 124 220
352 223 357 203 379 -21 23 -29 25 -43 8z"/>
<path d="M776 1243 c-15 -51 -77 -406 -72 -411 14 -13 27 22 70 195 52 206 55
233 27 233 -11 0 -22 -8 -25 -17z"/>
<path d="M1049 1108 c-256 -332 -244 -314 -230 -323 11 -6 381 399 381 418 0
17 -20 37 -37 37 -6 0 -58 -60 -114 -132z"/>
<path d="M1115 1024 c-126 -113 -232 -210 -234 -216 -9 -28 52 11 273 171 149
109 236 178 236 189 0 35 -13 62 -29 62 -9 -1 -119 -93 -246 -206z"/>
<path d="M871 1187 c-15 -19 -133 -368 -126 -375 3 -3 11 1 19 9 19 21 157
359 150 370 -8 13 -30 11 -43 -4z"/>
<path d="M607 1078 c-12 -18 -13 -51 -8 -157 4 -84 10 -136 17 -138 20 -7 34
300 14 312 -5 3 -15 -5 -23 -17z"/>
<path d="M671 1058 c-13 -46 -19 -232 -6 -238 10 -5 28 84 41 203 6 57 4 67
-9 67 -9 0 -20 -14 -26 -32z"/>
<path d="M1095 896 c-211 -122 -259 -156 -224 -156 24 0 453 182 472 200 14
13 17 25 12 54 -4 20 -12 36 -19 36 -6 0 -114 -60 -241 -134z"/>
<path d="M500 914 c-13 -34 19 -215 39 -222 12 -4 13 9 7 77 -14 171 -24 203
-46 145z"/>
<path d="M555 919 c-12 -18 6 -170 19 -166 12 4 21 117 11 154 -6 24 -20 30
-30 12z"/>
<path d="M1158 822 c-125 -43 -230 -81 -234 -85 -4 -4 -4 -10 0 -14 8 -9 475
72 487 84 5 5 10 27 12 49 2 33 -1 39 -18 41 -11 1 -122 -33 -247 -75z"/>
<path d="M1120 724 c-210 -26 -233 -31 -225 -44 4 -6 93 -10 221 -10 l214 0
12 24 c13 31 4 56 -19 55 -10 -1 -101 -12 -203 -25z"/>
</g>
</svg>
