<?xml version="1.0" standalone="no"?>
<!DOCTYPE svg PUBLIC "-//W3C//DTD SVG 20010904//EN"
 "http://www.w3.org/TR/2001/REC-SVG-20010904/DTD/svg10.dtd">
<svg version="1.0" xmlns="http://www.w3.org/2000/svg"
 width="192.000000pt" height="192.000000pt" viewBox="0 0 192.000000 192.000000"
 preserveAspectRatio="xMidYMid meet">
<metadata>
Created by potrace 1.16, written by Peter Selinger 2001-2019
</metadata>
<g transform="translate(0.000000,192.000000) scale(0.100000,-0.100000)"
fill="#000000" stroke="none">
811 c445 -92 729 -532 635 -987 -62 -301 -295 -546 -601 -630 -91 -26 -329
-26 -420 0 -291 80 -516 305 -596 596 -26 91 -26 329 0 420 120 433 542 692
982 601z"/>
<path d="M875 1345 c-22 -8 -86 -28 -142 -45 -138 -42 -136 -37 -131 -269 3
-155 6 -182 25 -224 28 -61 114 -145 200 -196 81 -47 118 -56 171 -42 57 16
179 99 234 159 69 78 78 114 78 323 0 154 -2 180 -18 199 -12 15 -62 35 -162
66 -153 46 -190 51 -255 29z m184 -126 c155 -46 141 -29 141 -177 0 -146 -8
-183 -50 -234 -39 -47 -160 -128 -192 -128 -23 0 -112 53 -165 97 -11 10 -33
36 -47 57 -25 38 -26 44 -26 191 l0 153 73 22 c39 11 90 27 112 35 22 7 42 14
44 14 2 1 51 -13 110 -30z"/>
<path d="M865 1126 l-70 -22 -3 -100 c-2 -91 0 -103 20 -135 30 -43 112 -99
147 -99 33 0 116 57 142 97 15 23 19 47 19 133 l0 106 -75 22 c-89 26 -91 26
-180 -2z"/>
</g>
</svg>
