<?xml version="1.0" standalone="no"?>
<!DOCTYPE svg PUBLIC "-//W3C//DTD SVG 20010904//EN"
 "http://www.w3.org/TR/2001/REC-SVG-20010904/DTD/svg10.dtd">
<svg version="1.0" xmlns="http://www.w3.org/2000/svg"
 width="192.000000pt" height="192.000000pt" viewBox="0 0 192.000000 192.000000"
 preserveAspectRatio="xMidYMid meet">
<metadata>
Created by potrace 1.16, written by Peter Selinger 2001-2019
</metadata>
<g transform="translate(0.000000,192.000000) scale(0.100000,-0.100000)"
fill="#000000" stroke="none">
811 c445 -92 729 -532 635 -987 -62 -301 -295 -546 -601 -630 -91 -26 -329
-26 -420 0 -291 80 -516 305 -596 596 -26 91 -26 329 0 420 120 433 542 692
982 601z"/>
<path d="M732 1327 c-16 -17 -22 -36 -22 -70 l0 -47 -44 0 c-59 0 -99 -33 -99
-80 0 -48 40 -80 99 -80 l45 0 -3 -87 -3 -88 -50 -3 c-54 -4 -72 -14 -86 -49
-10 -27 4 -70 29 -89 9 -8 38 -14 65 -14 l47 0 0 -48 c0 -58 28 -92 76 -92 48
0 74 32 74 90 l0 50 90 0 90 0 0 -35 c0 -42 22 -90 45 -99 64 -24 115 16 115
90 l0 44 48 0 c26 0 55 6 64 14 25 19 39 62 29 89 -14 35 -32 45 -86 49 l-50
3 -3 88 -3 87 45 0 c59 0 99 32 99 80 0 47 -40 80 -99 80 l-44 0 0 44 c0 74
-51 114 -115 90 -23 -9 -45 -57 -45 -99 l0 -35 -90 0 -90 0 0 50 c0 38 -5 54
-22 70 -30 27 -79 26 -106 -3z m308 -367 l0 -91 -87 3 -88 3 -3 88 -3 87 91 0
90 0 0 -90z"/>
</g>
</svg>
