<?xml version="1.0" standalone="no"?>
<!DOCTYPE svg PUBLIC "-//W3C//DTD SVG 20010904//EN"
 "http://www.w3.org/TR/2001/REC-SVG-20010904/DTD/svg10.dtd">
<svg version="1.0" xmlns="http://www.w3.org/2000/svg"
 width="192.000000pt" height="192.000000pt" viewBox="0 0 192.000000 192.000000"
 preserveAspectRatio="xMidYMid meet">
<metadata>
Created by potrace 1.16, written by Peter Selinger 2001-2019
</metadata>
<g transform="translate(0.000000,192.000000) scale(0.100000,-0.100000)"
fill="#000000" stroke="none">
811 c445 -92 729 -532 635 -987 -62 -301 -295 -546 -601 -630 -91 -26 -329
-26 -420 0 -291 80 -516 305 -596 596 -26 91 -26 329 0 420 120 433 542 692
982 601z"/>
<path d="M835 1357 c-155 -52 -259 -170 -287 -327 -27 -154 50 -319 190 -409
201 -127 480 -45 588 174 27 55 29 69 29 170 0 99 -3 116 -27 168 -37 79 -117
160 -196 199 -58 29 -77 33 -161 35 -60 2 -111 -2 -136 -10z m242 -136 c100
-50 153 -138 153 -250 0 -113 -62 -206 -168 -253 -50 -23 -86 -18 -103 13 -16
30 2 65 38 73 68 17 132 100 133 170 0 41 -36 112 -68 135 -71 50 -158 48
-222 -5 -35 -30 -50 -55 -61 -102 -11 -52 -3 -62 52 -62 34 0 49 -4 49 -13 0
-14 -112 -127 -125 -127 -22 0 -45 26 -65 72 -28 65 -24 161 8 224 28 55 104
121 161 139 63 20 164 14 218 -14z"/>
</g>
</svg>
