<?xml version="1.0" standalone="no"?>
<!DOCTYPE svg PUBLIC "-//W3C//DTD SVG 20010904//EN"
 "http://www.w3.org/TR/2001/REC-SVG-20010904/DTD/svg10.dtd">
<svg version="1.0" xmlns="http://www.w3.org/2000/svg"
 width="192.000000pt" height="192.000000pt" viewBox="0 0 192.000000 192.000000"
 preserveAspectRatio="xMidYMid meet">
<metadata>
Created by potrace 1.16, written by Peter Selinger 2001-2019
</metadata>
<g transform="translate(0.000000,192.000000) scale(0.100000,-0.100000)"
fill="#000000" stroke="none">
811 c445 -92 729 -532 635 -987 -62 -301 -295 -546 -601 -630 -91 -26 -329
-26 -420 0 -291 80 -516 305 -596 596 -26 91 -26 329 0 420 120 433 542 692
982 601z"/>
<path d="M830 1352 c-30 -10 -68 -26 -83 -36 -25 -17 -29 -17 -45 -3 -30 28
-65 30 -95 7 -32 -25 -37 -73 -11 -102 16 -17 15 -22 -12 -80 -26 -57 -29 -73
-29 -173 0 -101 2 -115 29 -170 80 -163 261 -257 437 -227 276 47 424 331 303
580 -24 49 -25 55 -10 71 21 24 20 74 -2 94 -23 21 -80 22 -101 3 -14 -13 -24
-11 -80 17 -55 27 -76 32 -155 34 -67 2 -105 -2 -146 -15z m160 -157 c39 -48
60 -81 56 -91 -6 -16 10 -54 28 -66 17 -12 61 -9 73 3 20 20 103 -9 114 -40
20 -52 -16 -172 -72 -235 -118 -134 -331 -137 -458 -6 -115 119 -105 327 23
436 38 33 123 72 157 73 9 1 44 -33 79 -74z m116 37 c40 -20 102 -81 124 -121
14 -27 1 -27 -53 0 -40 21 -167 134 -167 150 0 10 46 -4 96 -29z"/>
<path d="M772 1118 c-15 -15 -16 -60 0 -76 19 -19 63 -14 84 9 17 19 17 23 3
47 -16 30 -65 42 -87 20z"/>
<path d="M782 958 c-20 -20 -14 -78 13 -124 26 -45 106 -94 153 -94 85 0 171
64 190 143 21 80 -7 103 -72 60 -29 -19 -58 -28 -98 -31 -50 -4 -64 0 -112 27
-64 36 -59 34 -74 19z"/>
</g>
</svg>
