<?xml version="1.0" standalone="no"?>
<!DOCTYPE svg PUBLIC "-//W3C//DTD SVG 20010904//EN"
 "http://www.w3.org/TR/2001/REC-SVG-20010904/DTD/svg10.dtd">
<svg version="1.0" xmlns="http://www.w3.org/2000/svg"
 width="192.000000pt" height="192.000000pt" viewBox="0 0 192.000000 192.000000"
 preserveAspectRatio="xMidYMid meet">
<metadata>
Created by potrace 1.16, written by Peter Selinger 2001-2019
</metadata>
<g transform="translate(0.000000,192.000000) scale(0.100000,-0.100000)"
fill="#000000" stroke="none">
811 c445 -92 729 -532 635 -987 -62 -301 -295 -546 -601 -630 -91 -26 -329
-26 -420 0 -291 80 -516 305 -596 596 -26 91 -26 329 0 420 120 433 542 692
982 601z"/>
<path d="M1180 1225 c-13 -33 0 -157 17 -162 25 -9 37 43 27 114 -10 71 -28
91 -44 48z"/>
<path d="M754 1176 c-40 -18 -78 -66 -64 -80 7 -7 19 -5 39 7 38 22 64 21 134
-3 52 -18 60 -19 92 -6 43 18 86 63 78 82 -7 19 -22 18 -45 -3 -17 -15 -23
-15 -91 0 -85 20 -102 21 -143 3z"/>
<path d="M1290 1059 l-21 -40 22 -35 c12 -19 19 -37 17 -39 -2 -2 -32 -5 -66
-6 -67 -2 -84 6 -109 54 -16 31 -26 28 -47 -15 -6 -12 -22 -24 -34 -26 -18 -3
-26 3 -35 27 -14 39 -32 39 -52 1 -20 -39 -43 -38 -76 2 l-26 32 -28 -42 -27
-41 21 -27 c12 -15 21 -39 21 -55 0 -67 -165 -95 -226 -38 -24 22 -25 29 -22
94 2 57 0 70 -12 70 -25 0 -52 -70 -53 -134 -1 -108 55 -161 168 -161 100 1
187 57 202 132 3 16 13 32 22 35 9 2 24 9 34 14 11 6 24 6 37 -1 28 -15 86
-12 100 5 10 12 16 11 40 -7 24 -17 39 -20 94 -16 75 5 99 20 128 85 16 36 17
49 8 85 -13 48 -36 88 -50 88 -5 0 -19 -18 -30 -41z"/>
<path d="M1196 784 l-19 -26 32 -32 32 -31 19 23 c11 13 21 18 25 12 3 -5 15
-14 25 -20 15 -8 23 -4 40 21 l22 30 -23 25 c-27 28 -36 30 -61 7 -17 -15 -19
-15 -36 0 -25 23 -34 21 -56 -9z"/>
</g>
</svg>
