<?xml version="1.0" standalone="no"?>
<!DOCTYPE svg PUBLIC "-//W3C//DTD SVG 20010904//EN"
 "http://www.w3.org/TR/2001/REC-SVG-20010904/DTD/svg10.dtd">
<svg version="1.0" xmlns="http://www.w3.org/2000/svg"
 width="192.000000pt" height="192.000000pt" viewBox="0 0 192.000000 192.000000"
 preserveAspectRatio="xMidYMid meet">
<metadata>
Created by potrace 1.16, written by Peter Selinger 2001-2019
</metadata>
<g transform="translate(0.000000,192.000000) scale(0.100000,-0.100000)"
fill="#000000" stroke="none">
811 c445 -92 729 -532 635 -987 -62 -301 -295 -546 -601 -630 -91 -26 -329
-26 -420 0 -291 80 -516 305 -596 596 -26 91 -26 329 0 420 120 433 542 692
982 601z"/>
<path d="M1182 1368 c-65 -10 -138 -46 -187 -93 -21 -19 -48 -35 -60 -35 -42
0 -115 -32 -158 -70 -62 -55 -90 -124 -85 -209 5 -79 28 -132 81 -183 l39 -37
-34 -21 c-18 -11 -49 -23 -68 -26 -60 -10 -60 -10 -60 -67 0 -71 11 -80 79
-67 79 15 135 44 194 99 35 33 63 51 79 51 36 0 124 47 154 83 63 74 85 183
55 271 -8 22 -34 61 -58 87 l-44 48 23 12 c13 7 46 18 73 24 l50 11 3 61 c3
70 0 73 -76 61z m-289 -335 c-5 -149 -12 -203 -28 -203 -29 0 -85 94 -85 145
0 35 26 90 56 120 55 55 60 49 57 -62z m218 15 c33 -65 22 -137 -29 -191 -59
-62 -60 -60 -54 86 2 72 9 143 14 156 8 23 9 23 29 5 12 -11 30 -36 40 -56z"/>
</g>
</svg>
