<?xml version="1.0" standalone="no"?>
<!DOCTYPE svg PUBLIC "-//W3C//DTD SVG 20010904//EN"
 "http://www.w3.org/TR/2001/REC-SVG-20010904/DTD/svg10.dtd">
<svg version="1.0" xmlns="http://www.w3.org/2000/svg"
 width="192.000000pt" height="192.000000pt" viewBox="0 0 192.000000 192.000000"
 preserveAspectRatio="xMidYMid meet">
<metadata>
Created by potrace 1.16, written by Peter Selinger 2001-2019
</metadata>
<g transform="translate(0.000000,192.000000) scale(0.100000,-0.100000)"
fill="#000000" stroke="none">
811 c445 -92 729 -532 635 -987 -62 -301 -295 -546 -601 -630 -91 -26 -329
-26 -420 0 -291 80 -516 305 -596 596 -26 91 -26 329 0 420 120 433 542 692
982 601z"/>
<path d="M638 1198 c-83 -88 -102 -117 -91 -145 12 -32 196 -368 211 -385 12
-14 31 -18 86 -18 69 0 71 1 111 40 l41 41 25 -38 c24 -38 24 -38 100 -41 l75
-3 81 84 c44 46 84 94 87 105 8 23 -3 46 -125 269 -44 81 -88 154 -97 161 -9
6 -43 12 -77 12 -59 0 -62 -1 -105 -45 l-44 -45 -22 36 c-30 50 -39 54 -113
54 l-65 0 -78 -82z m217 -206 l68 -123 -34 -35 c-40 -42 -34 -48 -121 114
l-60 114 33 34 c18 19 36 31 40 27 4 -5 38 -63 74 -131z m279 2 l68 -126 -33
-34 c-17 -18 -36 -31 -40 -29 -4 3 -37 60 -73 127 l-66 122 32 33 c18 18 34
33 37 33 4 0 37 -57 75 -126z"/>
</g>
</svg>
