<?xml version="1.0" standalone="no"?>
<!DOCTYPE svg PUBLIC "-//W3C//DTD SVG 20010904//EN"
 "http://www.w3.org/TR/2001/REC-SVG-20010904/DTD/svg10.dtd">
<svg version="1.0" xmlns="http://www.w3.org/2000/svg"
 width="192.000000pt" height="192.000000pt" viewBox="0 0 192.000000 192.000000"
 preserveAspectRatio="xMidYMid meet">
<metadata>
Created by potrace 1.16, written by Peter Selinger 2001-2019
</metadata>
<g transform="translate(0.000000,192.000000) scale(0.100000,-0.100000)"
fill="#000000" stroke="none">
811 c445 -92 729 -532 635 -987 -62 -301 -295 -546 -601 -630 -91 -26 -329
-26 -420 0 -291 80 -516 305 -596 596 -26 91 -26 329 0 420 120 433 542 692
982 601z"/>
<path d="M990 1290 c-186 -92 -253 -139 -284 -202 -35 -70 -34 -128 2 -199 37
-74 92 -111 172 -117 78 -6 137 16 185 69 38 43 195 348 195 380 0 34 -27 87
-53 104 -55 35 -84 31 -217 -35z m-7 -210 c82 -65 34 -190 -74 -190 -43 0 -99
56 -99 99 0 38 23 86 47 100 31 18 98 13 126 -9z"/>
<path d="M692 710 c-50 -21 -47 -101 5 -121 17 -6 110 -9 240 -7 235 3 246 6
246 68 0 62 -10 65 -251 67 -119 1 -227 -2 -240 -7z"/>
</g>
</svg>
