<?xml version="1.0" standalone="no"?>
<!DOCTYPE svg PUBLIC "-//W3C//DTD SVG 20010904//EN"
 "http://www.w3.org/TR/2001/REC-SVG-20010904/DTD/svg10.dtd">
<svg version="1.0" xmlns="http://www.w3.org/2000/svg"
 width="192.000000pt" height="192.000000pt" viewBox="0 0 192.000000 192.000000"
 preserveAspectRatio="xMidYMid meet">
<metadata>
Created by potrace 1.16, written by Peter Selinger 2001-2019
</metadata>
<g transform="translate(0.000000,192.000000) scale(0.100000,-0.100000)"
fill="#000000" stroke="none">
811 c445 -92 729 -532 635 -987 -62 -301 -295 -546 -601 -630 -91 -26 -329
-26 -420 0 -291 80 -516 305 -596 596 -26 91 -26 329 0 420 120 433 542 692
982 601z"/>
<path d="M589 1291 c-36 -36 -37 -70 -5 -108 l24 -28 328 -3 c240 -2 336 0
357 9 37 16 61 67 48 103 -22 55 -27 56 -389 56 l-334 0 -29 -29z"/>
<path d="M583 1014 c-21 -21 -24 -32 -19 -62 11 -73 7 -72 390 -72 l343 0 20
23 c11 12 23 30 26 39 9 24 -11 76 -33 88 -11 6 -156 10 -360 10 l-341 0 -26
-26z"/>
<path d="M614 770 c-28 -11 -54 -48 -54 -78 0 -13 13 -37 29 -53 l29 -29 334
0 c290 0 337 2 356 16 32 22 43 57 31 94 -21 58 -35 60 -386 59 -175 0 -328
-4 -339 -9z"/>
</g>
</svg>
