<?xml version="1.0" standalone="no"?>
<!DOCTYPE svg PUBLIC "-//W3C//DTD SVG 20010904//EN"
 "http://www.w3.org/TR/2001/REC-SVG-20010904/DTD/svg10.dtd">
<svg version="1.0" xmlns="http://www.w3.org/2000/svg"
 width="192.000000pt" height="192.000000pt" viewBox="0 0 192.000000 192.000000"
 preserveAspectRatio="xMidYMid meet">
<metadata>
Created by potrace 1.16, written by Peter Selinger 2001-2019
</metadata>
<g transform="translate(0.000000,192.000000) scale(0.100000,-0.100000)"
fill="#000000" stroke="none">
811 c445 -92 729 -532 635 -987 -62 -301 -295 -546 -601 -630 -91 -26 -329
-26 -420 0 -291 80 -516 305 -596 596 -26 91 -26 329 0 420 120 433 542 692
982 601z"/>
<path d="M817 1354 c-12 -13 -8 -227 6 -253 6 -13 38 -44 70 -69 67 -53 70
-52 157 28 l51 47 -3 124 -3 124 -136 3 c-74 1 -138 -1 -142 -4z"/>
<path d="M651 1178 c-28 -14 -54 -37 -72 -67 l-29 -45 0 -181 0 -181 29 -46
c19 -30 44 -52 73 -67 42 -20 59 -21 303 -21 244 0 261 1 303 21 29 15 54 37
73 67 l29 46 0 181 0 181 -29 46 c-35 55 -101 91 -158 86 -37 -3 -38 -4 -41
-43 -1 -22 -5 -50 -7 -62 -7 -30 -136 -133 -167 -133 -30 0 -155 101 -168 136
-6 14 -10 43 -10 65 l0 39 -42 0 c-24 0 -63 -10 -87 -22z m54 -228 l0 -45 -40
0 c-38 0 -40 2 -43 33 -5 53 3 64 45 60 38 -3 38 -3 38 -48z m150 0 l0 -45
-39 -3 c-43 -4 -56 7 -56 49 0 35 19 50 60 47 34 -3 35 -4 35 -48z m290 0 l0
-45 -40 0 c-38 0 -40 2 -43 33 -5 53 3 64 45 60 38 -3 38 -3 38 -48z m140 0
l0 -45 -40 0 c-38 0 -40 2 -43 33 -5 53 3 64 45 60 38 -3 38 -3 38 -48z m-575
-135 l0 -45 -45 0 -45 0 0 45 0 45 45 0 45 0 0 -45z m145 0 l0 -40 -45 0 c-42
0 -45 2 -48 28 -6 49 3 58 50 55 43 -3 43 -3 43 -43z m151 21 c12 -48 2 -61
-49 -64 l-47 -3 0 39 c0 48 4 52 51 52 32 0 40 -4 45 -24z m144 -21 l0 -45
-45 0 -45 0 0 45 0 45 45 0 45 0 0 -45z m140 0 l0 -45 -45 0 -45 0 0 45 0 45
45 0 45 0 0 -45z m-142 -133 l3 -42 -193 2 -193 3 -3 34 c-2 20 2 37 10 42 7
5 94 8 193 6 l180 -2 3 -43z"/>
</g>
</svg>
