<?xml version="1.0" standalone="no"?>
<!DOCTYPE svg PUBLIC "-//W3C//DTD SVG 20010904//EN"
 "http://www.w3.org/TR/2001/REC-SVG-20010904/DTD/svg10.dtd">
<svg version="1.0" xmlns="http://www.w3.org/2000/svg"
 width="192.000000pt" height="192.000000pt" viewBox="0 0 192.000000 192.000000"
 preserveAspectRatio="xMidYMid meet">
<metadata>
Created by potrace 1.16, written by Peter Selinger 2001-2019
</metadata>
<g transform="translate(0.000000,192.000000) scale(0.100000,-0.100000)"
fill="#000000" stroke="none">
811 c445 -92 729 -532 635 -987 -62 -301 -295 -546 -601 -630 -91 -26 -329
-26 -420 0 -291 80 -516 305 -596 596 -26 91 -26 329 0 420 120 433 542 692
982 601z"/>
<path d="M783 1373 c-12 -2 -34 -18 -48 -34 -24 -29 -25 -36 -25 -164 0 -73 3
-141 6 -150 12 -29 214 -185 241 -185 23 0 127 76 211 154 l32 30 0 144 c0 83
-5 152 -11 164 -21 39 -68 48 -231 47 -84 -1 -163 -4 -175 -6z"/>
<path d="M646 934 c-20 -19 -21 -58 -2 -73 25 -21 69 -9 80 21 17 50 -42 89
-78 52z"/>
<path d="M1200 930 c-24 -24 -24 -29 -4 -58 28 -41 94 -22 94 27 0 16 -38 51
-55 51 -8 0 -24 -9 -35 -20z"/>
<path d="M642 788 c-28 -28 -3 -88 37 -88 10 0 26 9 36 20 27 30 10 74 -30 78
-17 2 -36 -3 -43 -10z"/>
<path d="M782 788 c-18 -18 -15 -53 6 -71 24 -22 45 -21 65 1 34 37 15 82 -33
82 -14 0 -31 -5 -38 -12z"/>
<path d="M922 788 c-20 -20 -14 -66 9 -79 44 -23 93 26 69 71 -12 23 -58 28
-78 8z"/>
<path d="M1062 788 c-18 -18 -15 -53 6 -71 24 -22 45 -21 65 1 34 37 15 82
-33 82 -14 0 -31 -5 -38 -12z"/>
<path d="M1196 778 c-9 -12 -16 -26 -16 -30 0 -14 39 -48 55 -48 19 0 55 35
55 54 0 44 -68 61 -94 24z"/>
<path d="M757 642 c-21 -23 -22 -46 -1 -66 13 -13 46 -16 203 -16 169 0 190 2
204 18 22 24 21 45 -1 65 -16 15 -45 17 -204 17 -166 0 -187 -2 -201 -18z"/>
</g>
</svg>
