<?xml version="1.0" standalone="no"?>
<!DOCTYPE svg PUBLIC "-//W3C//DTD SVG 20010904//EN"
 "http://www.w3.org/TR/2001/REC-SVG-20010904/DTD/svg10.dtd">
<svg version="1.0" xmlns="http://www.w3.org/2000/svg"
 width="192.000000pt" height="192.000000pt" viewBox="0 0 192.000000 192.000000"
 preserveAspectRatio="xMidYMid meet">
<metadata>
Created by potrace 1.16, written by Peter Selinger 2001-2019
</metadata>
<g transform="translate(0.000000,192.000000) scale(0.100000,-0.100000)"
fill="#000000" stroke="none">
811 c445 -92 729 -532 635 -987 -62 -301 -295 -546 -601 -630 -91 -26 -329
-26 -420 0 -291 80 -516 305 -596 596 -26 91 -26 329 0 420 120 433 542 692
982 601z"/>
<path d="M615 1296 c-16 -7 -39 -23 -50 -36 -19 -21 -20 -39 -23 -280 -2 -211
0 -265 12 -294 30 -73 129 -86 180 -25 l26 31 0 275 0 275 -29 29 c-16 16 -36
29 -44 29 -9 0 -21 2 -29 5 -7 2 -26 -2 -43 -9z"/>
<path d="M915 1296 c-16 -7 -39 -23 -50 -36 -19 -21 -20 -39 -23 -280 -2 -211
0 -265 12 -294 30 -73 129 -86 180 -25 l26 31 0 275 0 275 -29 29 c-16 16 -36
29 -44 29 -9 0 -21 2 -29 5 -7 2 -26 -2 -43 -9z"/>
<path d="M1215 1296 c-16 -7 -39 -23 -50 -36 -19 -21 -20 -38 -23 -286 -3
-294 0 -311 62 -341 46 -22 98 -11 130 28 l26 31 0 275 0 275 -29 29 c-16 16
-36 29 -44 29 -9 0 -21 2 -29 5 -7 2 -26 -2 -43 -9z"/>
</g>
</svg>
