<?xml version="1.0" standalone="no"?>
<!DOCTYPE svg PUBLIC "-//W3C//DTD SVG 20010904//EN"
 "http://www.w3.org/TR/2001/REC-SVG-20010904/DTD/svg10.dtd">
<svg version="1.0" xmlns="http://www.w3.org/2000/svg"
 width="192.000000pt" height="192.000000pt" viewBox="0 0 192.000000 192.000000"
 preserveAspectRatio="xMidYMid meet">
<metadata>
Created by potrace 1.16, written by Peter Selinger 2001-2019
</metadata>
<g transform="translate(0.000000,192.000000) scale(0.100000,-0.100000)"
fill="#000000" stroke="none">
811 c445 -92 729 -532 635 -987 -62 -301 -295 -546 -601 -630 -91 -26 -329
-26 -420 0 -291 80 -516 305 -596 596 -26 91 -26 329 0 420 120 433 542 692
982 601z"/>
<path d="M899 1370 c-91 -15 -181 -85 -230 -180 -33 -63 -33 -199 -1 -282 33
-82 110 -196 189 -279 92 -96 104 -96 196 0 79 83 156 197 189 279 17 44 22
78 22 147 1 79 -3 96 -26 140 -69 130 -200 197 -339 175z m110 -160 c19 -5 50
-24 68 -42 32 -31 61 -93 49 -106 -4 -3 -36 -8 -71 -10 l-65 -4 0 35 c0 20 -4
39 -10 42 -6 4 -10 -13 -10 -44 l0 -51 56 0 c63 0 94 -13 94 -38 0 -47 -134
-262 -163 -262 -12 1 -23 13 -71 84 -37 56 -34 66 19 66 41 0 45 -2 45 -25 0
-14 5 -25 11 -25 6 0 9 16 7 38 l-3 37 -65 3 c-35 2 -69 7 -76 13 -6 5 -19 34
-29 64 -30 98 2 176 90 216 46 21 75 23 124 9z"/>
</g>
</svg>
