<?xml version="1.0" standalone="no"?>
<!DOCTYPE svg PUBLIC "-//W3C//DTD SVG 20010904//EN"
 "http://www.w3.org/TR/2001/REC-SVG-20010904/DTD/svg10.dtd">
<svg version="1.0" xmlns="http://www.w3.org/2000/svg"
 width="192.000000pt" height="192.000000pt" viewBox="0 0 192.000000 192.000000"
 preserveAspectRatio="xMidYMid meet">
<metadata>
Created by potrace 1.16, written by Peter Selinger 2001-2019
</metadata>
<g transform="translate(0.000000,192.000000) scale(0.100000,-0.100000)"
fill="#000000" stroke="none">
811 c445 -92 729 -532 635 -987 -62 -301 -295 -546 -601 -630 -91 -26 -329
-26 -420 0 -291 80 -516 305 -596 596 -26 91 -26 329 0 420 120 433 542 692
982 601z"/>
<path d="M695 1326 c-38 -17 -90 -72 -104 -109 -7 -17 -11 -119 -11 -253 0
-249 3 -266 63 -323 31 -29 36 -31 41 -15 9 31 146 687 146 701 0 18 -95 17
-135 -1z"/>
<path d="M909 1283 c-6 -32 -42 -201 -78 -375 l-67 -318 205 0 c223 0 258 7
308 61 48 52 53 84 53 314 0 230 -5 262 -53 314 -44 48 -91 61 -229 61 l-127
0 -12 -57z m208 -124 c37 -14 73 -48 73 -70 0 -10 -14 -26 -31 -34 -27 -14
-33 -15 -47 -2 -27 22 -49 27 -67 13 -31 -22 -13 -48 60 -86 117 -61 152 -114
126 -193 -21 -64 -84 -107 -156 -107 -58 0 -105 20 -133 55 -30 38 -28 53 12
72 34 16 35 15 66 -10 36 -30 71 -34 94 -11 34 34 17 67 -54 105 -86 46 -125
90 -125 142 0 94 95 159 182 126z"/>
</g>
</svg>
