<?xml version="1.0" standalone="no"?>
<!DOCTYPE svg PUBLIC "-//W3C//DTD SVG 20010904//EN"
 "http://www.w3.org/TR/2001/REC-SVG-20010904/DTD/svg10.dtd">
<svg version="1.0" xmlns="http://www.w3.org/2000/svg"
 width="192.000000pt" height="192.000000pt" viewBox="0 0 192.000000 192.000000"
 preserveAspectRatio="xMidYMid meet">
<metadata>
Created by potrace 1.16, written by Peter Selinger 2001-2019
</metadata>
<g transform="translate(0.000000,192.000000) scale(0.100000,-0.100000)"
fill="#000000" stroke="none">
811 c445 -92 729 -532 635 -987 -62 -301 -295 -546 -601 -630 -91 -26 -329
-26 -420 0 -291 80 -516 305 -596 596 -26 91 -26 329 0 420 120 433 542 692
982 601z"/>
<path d="M695 1326 c-39 -18 -80 -62 -99 -108 -23 -54 -23 -452 -1 -506 21
-49 52 -81 100 -103 35 -16 67 -19 260 -19 239 0 272 7 322 61 48 52 53 84 53
316 0 191 -3 223 -19 258 -22 47 -64 89 -104 104 -43 17 -474 14 -512 -3z
m324 -63 c-8 -10 -52 -61 -99 -113 -47 -53 -97 -109 -111 -125 -14 -17 -34
-35 -45 -41 -22 -13 -31 -69 -13 -90 10 -12 2 -14 -50 -14 l-61 0 0 139 c0
146 7 180 43 220 34 36 52 40 206 40 135 1 143 0 130 -16z m197 -14 c46 -42
54 -76 54 -229 l0 -140 -221 0 -220 0 15 22 c22 31 20 45 -9 73 -13 14 -20 25
-15 25 5 0 17 -11 28 -25 l19 -24 49 77 c26 42 69 109 94 149 l46 72 67 -81
c37 -44 67 -75 67 -69 0 6 -25 47 -55 90 -30 43 -55 82 -55 86 0 4 25 5 55 3
40 -3 62 -11 81 -29z"/>
</g>
</svg>
