<?xml version="1.0" standalone="no"?>
<!DOCTYPE svg PUBLIC "-//W3C//DTD SVG 20010904//EN"
 "http://www.w3.org/TR/2001/REC-SVG-20010904/DTD/svg10.dtd">
<svg version="1.0" xmlns="http://www.w3.org/2000/svg"
 width="192.000000pt" height="192.000000pt" viewBox="0 0 192.000000 192.000000"
 preserveAspectRatio="xMidYMid meet">
<metadata>
Created by potrace 1.16, written by Peter Selinger 2001-2019
</metadata>
<g transform="translate(0.000000,192.000000) scale(0.100000,-0.100000)"
fill="#000000" stroke="none">
811 c445 -92 729 -532 635 -987 -62 -301 -295 -546 -601 -630 -91 -26 -329
-26 -420 0 -291 80 -516 305 -596 596 -26 91 -26 329 0 420 120 433 542 692
982 601z"/>
<path d="M852 1354 c-194 -52 -326 -257 -292 -452 6 -36 23 -88 37 -116 29
-59 99 -136 124 -136 16 0 123 117 136 147 3 7 -9 30 -27 50 -48 55 -70 109
-70 178 0 152 128 269 274 251 92 -12 98 -11 110 6 16 26 -17 54 -89 73 -72
18 -133 18 -203 -1z"/>
<path d="M1111 1206 c-33 -41 -61 -77 -61 -81 0 -4 14 -23 31 -43 99 -113 91
-281 -18 -371 -64 -53 -164 -75 -229 -51 -40 16 -66 4 -62 -28 4 -32 34 -49
119 -65 120 -22 258 23 349 113 121 122 152 309 76 464 -30 60 -99 136 -125
136 -11 0 -44 -31 -80 -74z"/>
</g>
</svg>
