<?xml version="1.0" standalone="no"?>
<!DOCTYPE svg PUBLIC "-//W3C//DTD SVG 20010904//EN"
 "http://www.w3.org/TR/2001/REC-SVG-20010904/DTD/svg10.dtd">
<svg version="1.0" xmlns="http://www.w3.org/2000/svg"
 width="192.000000pt" height="192.000000pt" viewBox="0 0 192.000000 192.000000"
 preserveAspectRatio="xMidYMid meet">
<metadata>
Created by potrace 1.16, written by Peter Selinger 2001-2019
</metadata>
<g transform="translate(0.000000,192.000000) scale(0.100000,-0.100000)"
fill="#000000" stroke="none">
811 c445 -92 729 -532 635 -987 -62 -301 -295 -546 -601 -630 -91 -26 -329
-26 -420 0 -291 80 -516 305 -596 596 -26 91 -26 329 0 420 120 433 542 692
982 601z"/>
<path d="M906 1350 c-60 -19 -63 -23 -250 -427 -125 -271 -128 -284 -79 -323
43 -34 71 -25 215 65 90 56 146 85 165 85 19 0 75 -29 166 -86 124 -78 140
-86 172 -80 41 8 65 38 65 81 0 27 -231 532 -287 625 -18 32 -85 71 -119 69
-10 0 -32 -5 -48 -9z"/>
</g>
</svg>
