<?xml version="1.0" standalone="no"?>
<!DOCTYPE svg PUBLIC "-//W3C//DTD SVG 20010904//EN"
 "http://www.w3.org/TR/2001/REC-SVG-20010904/DTD/svg10.dtd">
<svg version="1.0" xmlns="http://www.w3.org/2000/svg"
 width="192.000000pt" height="192.000000pt" viewBox="0 0 192.000000 192.000000"
 preserveAspectRatio="xMidYMid meet">
<metadata>
Created by potrace 1.16, written by Peter Selinger 2001-2019
</metadata>
<g transform="translate(0.000000,192.000000) scale(0.100000,-0.100000)"
fill="#000000" stroke="none">
811 c445 -92 729 -532 635 -987 -62 -301 -295 -546 -601 -630 -91 -26 -329
-26 -420 0 -291 80 -516 305 -596 596 -26 91 -26 329 0 420 120 433 542 692
982 601z"/>
<path d="M870 1359 c-118 -23 -229 -112 -283 -227 -30 -62 -32 -75 -32 -172 0
-92 3 -112 26 -160 40 -85 108 -154 197 -197 73 -36 80 -38 176 -38 131 1 193
24 280 105 102 96 150 225 128 350 -42 237 -256 385 -492 339z m295 -235 l0
-99 -102 -3 c-92 -2 -103 -1 -103 15 0 9 12 29 26 44 l26 28 -35 6 c-50 10
-93 -2 -132 -37 -73 -63 -134 -3 -64 63 52 49 88 63 159 64 44 0 77 -6 103
-19 l39 -19 31 32 c18 17 36 30 42 28 6 -2 10 -45 10 -103z m-212 -228 c3 -7
-8 -26 -24 -42 -26 -24 -27 -29 -13 -37 42 -24 128 -3 168 42 11 12 26 21 34
21 19 0 52 -29 52 -45 0 -18 -72 -83 -112 -100 -50 -20 -134 -19 -183 4 l-40
18 -32 -30 c-51 -48 -63 -34 -63 71 0 55 4 92 12 100 18 18 194 16 201 -2z"/>
</g>
</svg>
