<?xml version="1.0" standalone="no"?>
<!DOCTYPE svg PUBLIC "-//W3C//DTD SVG 20010904//EN"
 "http://www.w3.org/TR/2001/REC-SVG-20010904/DTD/svg10.dtd">
<svg version="1.0" xmlns="http://www.w3.org/2000/svg"
 width="192.000000pt" height="192.000000pt" viewBox="0 0 192.000000 192.000000"
 preserveAspectRatio="xMidYMid meet">
<metadata>
Created by potrace 1.16, written by Peter Selinger 2001-2019
</metadata>
<g transform="translate(0.000000,192.000000) scale(0.100000,-0.100000)"
fill="#000000" stroke="none">
811 c445 -92 729 -532 635 -987 -62 -301 -295 -546 -601 -630 -91 -26 -329
-26 -420 0 -291 80 -516 305 -596 596 -26 91 -26 329 0 420 120 433 542 692
982 601z"/>
<path d="M698 1350 c-27 -16 -23 -26 32 -84 l49 -52 -47 -47 -48 -47 -49 50
c-27 27 -55 50 -62 50 -20 0 -34 -48 -27 -89 17 -99 104 -171 206 -171 80 0
74 -18 -46 -135 -127 -126 -129 -135 -57 -206 72 -73 81 -70 212 58 l110 107
107 -107 c70 -70 115 -107 129 -107 26 0 123 105 123 134 0 11 -47 67 -115
136 l-115 116 43 41 c35 35 50 42 87 45 l45 3 47 90 c26 50 47 94 48 98 0 5
-22 32 -50 60 l-49 52 -98 -50 -98 -50 -3 -51 c-3 -44 -8 -56 -42 -89 l-40
-39 -24 23 c-18 17 -25 35 -28 82 -7 102 -75 172 -178 184 -25 3 -53 1 -62 -5z"/>
</g>
</svg>
