<?xml version="1.0" standalone="no"?>
<!DOCTYPE svg PUBLIC "-//W3C//DTD SVG 20010904//EN"
 "http://www.w3.org/TR/2001/REC-SVG-20010904/DTD/svg10.dtd">
<svg version="1.0" xmlns="http://www.w3.org/2000/svg"
 width="192.000000pt" height="192.000000pt" viewBox="0 0 192.000000 192.000000"
 preserveAspectRatio="xMidYMid meet">
<metadata>
Created by potrace 1.16, written by Peter Selinger 2001-2019
</metadata>
<g transform="translate(0.000000,192.000000) scale(0.100000,-0.100000)"
fill="#000000" stroke="none">
811 c445 -92 729 -532 635 -987 -62 -301 -295 -546 -601 -630 -91 -26 -329
-26 -420 0 -291 80 -516 305 -596 596 -26 91 -26 329 0 420 120 433 542 692
982 601z"/>
<path d="M638 1379 c-16 -9 -18 -27 -18 -149 0 -131 1 -140 19 -140 15 0 22
11 30 50 25 119 103 200 191 200 l31 0 -3 -344 -3 -344 -24 -26 c-16 -17 -35
-26 -55 -26 -40 0 -61 -14 -53 -34 6 -14 32 -16 202 -16 l196 0 -3 23 c-2 18
-11 23 -47 28 -83 11 -81 2 -81 395 l0 344 27 0 c45 0 112 -39 140 -81 14 -22
34 -67 43 -102 13 -48 21 -62 36 -62 18 0 19 10 22 132 2 109 0 134 -13 147
-14 14 -55 16 -318 16 -187 0 -309 -5 -319 -11z"/>
<path d="M620 915 l0 -85 79 0 c90 0 91 1 91 85 0 84 -1 85 -91 85 l-79 0 0
-85z"/>
<path d="M1124 987 c-3 -8 -4 -45 -2 -83 l3 -69 80 0 80 0 0 80 0 80 -78 3
c-59 2 -79 0 -83 -11z"/>
</g>
</svg>
