<?xml version="1.0" standalone="no"?>
<!DOCTYPE svg PUBLIC "-//W3C//DTD SVG 20010904//EN"
 "http://www.w3.org/TR/2001/REC-SVG-20010904/DTD/svg10.dtd">
<svg version="1.0" xmlns="http://www.w3.org/2000/svg"
 width="192.000000pt" height="192.000000pt" viewBox="0 0 192.000000 192.000000"
 preserveAspectRatio="xMidYMid meet">
<metadata>
Created by potrace 1.16, written by Peter Selinger 2001-2019
</metadata>
<g transform="translate(0.000000,192.000000) scale(0.100000,-0.100000)"
fill="#000000" stroke="none">
811 c445 -92 729 -532 635 -987 -62 -301 -295 -546 -601 -630 -91 -26 -329
-26 -420 0 -291 80 -516 305 -596 596 -26 91 -26 329 0 420 120 433 542 692
982 601z"/>
<path d="M648 1339 c-16 -9 -18 -27 -18 -143 0 -101 3 -136 14 -145 23 -19 43
-2 56 47 25 103 95 172 173 172 l27 0 0 -279 c0 -171 -4 -290 -11 -309 -10
-30 -40 -48 -89 -54 -14 -2 -25 -9 -25 -18 0 -13 28 -15 183 -18 171 -2 183
-1 180 15 -2 12 -16 20 -42 24 -76 12 -76 13 -76 345 l0 294 28 0 c66 -1 142
-72 162 -154 18 -72 36 -89 64 -61 13 13 16 39 16 133 0 177 30 162 -328 162
-183 0 -304 -5 -314 -11z"/>
<path d="M672 968 c-7 -7 -12 -37 -12 -68 0 -31 5 -61 12 -68 7 -7 35 -12 63
-12 28 0 56 5 63 12 7 7 12 38 12 70 0 46 -4 59 -19 68 -27 14 -104 13 -119
-2z"/>
<path d="M1116 958 c-18 -26 -21 -90 -6 -119 9 -15 22 -19 68 -19 32 0 63 5
70 12 7 7 12 36 12 64 0 67 -16 84 -80 84 -39 0 -52 -4 -64 -22z"/>
</g>
</svg>
