<?xml version="1.0" standalone="no"?>
<!DOCTYPE svg PUBLIC "-//W3C//DTD SVG 20010904//EN"
 "http://www.w3.org/TR/2001/REC-SVG-20010904/DTD/svg10.dtd">
<svg version="1.0" xmlns="http://www.w3.org/2000/svg"
 width="192.000000pt" height="192.000000pt" viewBox="0 0 192.000000 192.000000"
 preserveAspectRatio="xMidYMid meet">
<metadata>
Created by potrace 1.16, written by Peter Selinger 2001-2019
</metadata>
<g transform="translate(0.000000,192.000000) scale(0.100000,-0.100000)"
fill="#000000" stroke="none">
811 c445 -92 729 -532 635 -987 -62 -301 -295 -546 -601 -630 -91 -26 -329
-26 -420 0 -291 80 -516 305 -596 596 -26 91 -26 329 0 420 120 433 542 692
982 601z"/>
<path d="M663 1328 c-35 -4 -75 -13 -90 -20 l-28 -13 -3 -258 -2 -258 22 -8
c13 -5 39 -2 67 6 74 23 179 12 253 -26 33 -17 66 -31 73 -31 7 0 40 14 73 31
74 38 179 49 253 26 28 -8 54 -11 67 -6 l22 8 -2 258 -3 258 -28 13 c-75 36
-231 29 -326 -13 l-57 -26 -55 25 c-68 31 -154 44 -236 34z m315 -331 l2 -207
-25 0 -25 0 0 203 c0 112 3 207 7 211 4 4 14 5 23 4 13 -3 15 -33 18 -211z"/>
<path d="M620 712 c-32 -12 -46 -24 -48 -40 -5 -31 20 -37 68 -18 63 25 107
20 190 -21 56 -27 88 -36 125 -36 37 0 69 9 125 36 83 41 127 46 190 21 48
-19 73 -13 68 18 -2 17 -16 27 -53 41 -73 27 -157 19 -231 -23 -76 -42 -123
-42 -198 1 -73 40 -166 49 -236 21z"/>
</g>
</svg>
