<?xml version="1.0" standalone="no"?>
<!DOCTYPE svg PUBLIC "-//W3C//DTD SVG 20010904//EN"
 "http://www.w3.org/TR/2001/REC-SVG-20010904/DTD/svg10.dtd">
<svg version="1.0" xmlns="http://www.w3.org/2000/svg"
 width="192.000000pt" height="192.000000pt" viewBox="0 0 192.000000 192.000000"
 preserveAspectRatio="xMidYMid meet">
<metadata>
Created by potrace 1.16, written by Peter Selinger 2001-2019
</metadata>
<g transform="translate(0.000000,192.000000) scale(0.100000,-0.100000)"
fill="#000000" stroke="none">
811 c445 -92 729 -532 635 -987 -62 -301 -295 -546 -601 -630 -91 -26 -329
-26 -420 0 -291 80 -516 305 -596 596 -26 91 -26 329 0 420 120 433 542 692
982 601z"/>
<path d="M632 1368 c-15 -15 -16 -110 -1 -125 7 -7 0 -26 -25 -65 -103 -161
-85 -355 45 -493 199 -211 547 -159 675 99 24 49 37 93 41 133 5 56 4 61 -22
81 -26 21 -39 22 -187 22 -155 0 -159 -1 -183 -25 -30 -29 -31 -45 -5 -78 20
-25 25 -26 140 -29 l119 -3 -18 -41 c-10 -23 -34 -57 -54 -76 -130 -130 -357
-102 -447 55 -106 186 27 407 245 407 112 0 152 -24 270 -162 32 -38 105 -9
105 40 0 15 -13 47 -30 72 -26 39 -28 46 -15 60 22 24 19 103 -3 123 -26 24
-37 21 -80 -17 l-37 -34 -75 25 c-95 32 -216 30 -294 -5 l-49 -22 -38 35 c-42
37 -58 42 -77 23z"/>
</g>
</svg>
