<?xml version="1.0" standalone="no"?>
<!DOCTYPE svg PUBLIC "-//W3C//DTD SVG 20010904//EN"
 "http://www.w3.org/TR/2001/REC-SVG-20010904/DTD/svg10.dtd">
<svg version="1.0" xmlns="http://www.w3.org/2000/svg"
 width="192.000000pt" height="192.000000pt" viewBox="0 0 192.000000 192.000000"
 preserveAspectRatio="xMidYMid meet">
<metadata>
Created by potrace 1.16, written by Peter Selinger 2001-2019
</metadata>
<g transform="translate(0.000000,192.000000) scale(0.100000,-0.100000)"
fill="#000000" stroke="none">
811 c445 -92 729 -532 635 -987 -62 -301 -295 -546 -601 -630 -91 -26 -329
-26 -420 0 -291 80 -516 305 -596 596 -26 91 -26 329 0 420 120 433 542 692
982 601z"/>
<path d="M900 1340 c-14 -14 -20 -33 -20 -65 l0 -45 -125 0 c-112 0 -127 -2
-145 -20 -29 -29 -26 -74 6 -99 26 -20 38 -21 334 -21 279 0 310 2 328 18 35
29 38 67 8 96 -24 25 -29 26 -151 26 l-125 0 0 49 c0 40 -4 53 -22 65 -31 22
-64 20 -88 -4z"/>
<path d="M732 1047 c-12 -13 -22 -30 -22 -39 0 -27 80 -241 97 -260 23 -26 78
-23 97 4 9 12 16 30 16 39 0 32 -89 253 -106 266 -27 20 -58 16 -82 -10z"/>
<path d="M1077 1018 c-9 -7 -37 -78 -62 -157 -25 -79 -48 -147 -51 -152 -3 -5
-83 -9 -179 -9 -144 0 -176 -3 -189 -16 -25 -24 -24 -68 1 -96 15 -17 45 -18
358 -18 313 0 343 1 358 18 25 28 26 72 1 96 -12 12 -37 16 -110 16 -52 0 -94
3 -94 7 0 4 16 59 36 122 20 64 36 126 36 139 1 50 -64 80 -105 50z"/>
</g>
</svg>
