<?xml version="1.0" standalone="no"?>
<!DOCTYPE svg PUBLIC "-//W3C//DTD SVG 20010904//EN"
 "http://www.w3.org/TR/2001/REC-SVG-20010904/DTD/svg10.dtd">
<svg version="1.0" xmlns="http://www.w3.org/2000/svg"
 width="192.000000pt" height="192.000000pt" viewBox="0 0 192.000000 192.000000"
 preserveAspectRatio="xMidYMid meet">
<metadata>
Created by potrace 1.16, written by Peter Selinger 2001-2019
</metadata>
<g transform="translate(0.000000,192.000000) scale(0.100000,-0.100000)"
fill="#000000" stroke="none">
811 c445 -92 729 -532 635 -987 -62 -301 -295 -546 -601 -630 -91 -26 -329
-26 -420 0 -291 80 -516 305 -596 596 -26 91 -26 329 0 420 120 433 542 692
982 601z"/>
<path d="M631 1326 c-53 -30 -66 -97 -26 -144 59 -70 165 -32 165 58 0 42 -15
67 -50 85 -35 18 -57 19 -89 1z"/>
<path d="M913 1330 c-48 -19 -69 -91 -43 -140 15 -28 73 -52 105 -44 35 9 75
59 75 96 0 21 -10 40 -34 64 -35 35 -61 41 -103 24z"/>
<path d="M1178 1323 c-50 -32 -62 -92 -27 -137 30 -38 64 -49 105 -36 43 15
64 45 64 92 0 74 -81 120 -142 81z"/>
<path d="M613 1036 c-23 -20 -28 -32 -28 -71 0 -39 5 -51 28 -71 40 -34 90
-32 128 5 86 86 -36 216 -128 137z"/>
<path d="M891 1034 c-26 -21 -31 -33 -31 -69 0 -36 5 -48 31 -69 40 -34 87
-34 122 -2 33 31 43 68 27 106 -26 62 -97 78 -149 34z"/>
<path d="M1174 1045 c-28 -19 -48 -69 -40 -101 10 -40 53 -74 93 -74 49 0 93
45 93 95 0 73 -88 121 -146 80z"/>
<path d="M653 783 c-30 -6 -73 -59 -73 -89 0 -62 60 -114 116 -100 71 18 99
106 49 160 -13 14 -28 26 -34 26 -5 0 -15 2 -23 4 -7 2 -23 1 -35 -1z"/>
<path d="M1194 780 c-32 -13 -64 -59 -64 -92 0 -21 11 -41 35 -65 32 -32 40
-35 73 -30 48 8 82 46 82 93 0 48 -15 73 -55 90 -39 16 -42 16 -71 4z"/>
<path d="M885 755 c-27 -26 -34 -80 -15 -116 16 -28 67 -51 99 -44 74 16 103
114 48 161 -39 33 -99 33 -132 -1z"/>
</g>
</svg>
