<?xml version="1.0" standalone="no"?>
<!DOCTYPE svg PUBLIC "-//W3C//DTD SVG 20010904//EN"
 "http://www.w3.org/TR/2001/REC-SVG-20010904/DTD/svg10.dtd">
<svg version="1.0" xmlns="http://www.w3.org/2000/svg"
 width="192.000000pt" height="192.000000pt" viewBox="0 0 192.000000 192.000000"
 preserveAspectRatio="xMidYMid meet">
<metadata>
Created by potrace 1.16, written by Peter Selinger 2001-2019
</metadata>
<g transform="translate(0.000000,192.000000) scale(0.100000,-0.100000)"
fill="#000000" stroke="none">
811 c445 -92 729 -532 635 -987 -62 -301 -295 -546 -601 -630 -91 -26 -329
-26 -420 0 -291 80 -516 305 -596 596 -26 91 -26 329 0 420 120 433 542 692
982 601z"/>
<path d="M921 1343 c-56 -29 -75 -64 -77 -141 l-1 -67 -72 -3 c-81 -3 -98 -18
-87 -77 9 -46 26 -57 100 -62 l65 -6 3 -142 c3 -141 3 -144 33 -187 58 -82
180 -118 260 -78 28 14 30 19 30 75 l0 60 -39 6 c-25 4 -48 16 -63 33 -21 25
-23 37 -23 132 l0 104 66 0 c88 0 104 10 104 63 0 67 -16 81 -99 85 l-70 4 -3
107 -3 106 -45 3 c-28 1 -58 -4 -79 -15z"/>
</g>
</svg>
