<?xml version="1.0" standalone="no"?>
<!DOCTYPE svg PUBLIC "-//W3C//DTD SVG 20010904//EN"
 "http://www.w3.org/TR/2001/REC-SVG-20010904/DTD/svg10.dtd">
<svg version="1.0" xmlns="http://www.w3.org/2000/svg"
 width="192.000000pt" height="192.000000pt" viewBox="0 0 192.000000 192.000000"
 preserveAspectRatio="xMidYMid meet">
<metadata>
Created by potrace 1.16, written by Peter Selinger 2001-2019
</metadata>
<g transform="translate(0.000000,192.000000) scale(0.100000,-0.100000)"
fill="#000000" stroke="none">
811 c445 -92 729 -532 635 -987 -62 -301 -295 -546 -601 -630 -91 -26 -329
-26 -420 0 -291 80 -516 305 -596 596 -26 91 -26 329 0 420 120 433 542 692
982 601z"/>
<path d="M855 1360 c-36 -15 -74 -20 -137 -20 l-88 0 0 -65 c0 -72 16 -120 49
-149 27 -24 26 -30 -4 -60 -32 -32 -34 -99 -4 -159 33 -66 46 -76 84 -70 27 4
50 -3 117 -40 l84 -45 80 44 c62 35 87 44 118 42 37 -3 42 0 70 39 22 33 31
57 34 101 4 52 1 61 -23 90 l-27 32 31 35 c34 39 47 93 43 180 l-2 30 -84 -3
c-67 -3 -96 0 -141 17 -69 26 -135 26 -200 1z m-99 -84 c27 -23 28 -25 15 -64
-19 -55 -25 -64 -45 -56 -25 9 -46 57 -46 104 0 36 3 40 24 40 14 0 37 -11 52
-24z m484 -18 c0 -47 -31 -108 -53 -108 -13 0 -47 71 -47 97 0 18 50 53 76 53
22 0 24 -4 24 -42z m-341 -110 c16 -28 9 -58 -13 -58 -8 0 -16 10 -18 22 -4
29 -28 35 -35 9 -3 -14 -13 -21 -29 -21 -45 0 -24 66 26 82 24 8 54 -7 69 -34z
m231 2 c17 -32 12 -50 -14 -50 -15 0 -26 7 -29 20 -8 29 -37 26 -37 -5 0 -19
-5 -25 -21 -25 -31 0 -23 70 10 86 29 15 77 1 91 -26z m-100 -103 c0 -14 -54
-56 -73 -57 -23 0 -77 37 -77 53 0 9 23 13 75 13 41 0 75 -4 75 -9z m-3 -119
c36 1 44 -1 34 -11 -18 -18 -196 -16 -213 2 -11 11 -7 13 23 8 20 -3 47 0 60
7 16 8 28 9 37 3 6 -5 33 -9 59 -9z"/>
<path d="M707 802 c-20 -22 -56 -102 -57 -124 0 -35 122 -103 217 -121 30 -6
33 -4 43 31 14 52 12 63 -14 96 -21 25 -26 27 -45 16 -33 -17 -47 -8 -90 59
-36 56 -40 59 -54 43z"/>
<path d="M1155 768 c-43 -72 -59 -84 -91 -70 -22 11 -28 9 -50 -15 -19 -22
-23 -35 -19 -63 11 -68 14 -72 48 -65 111 22 217 80 217 117 0 28 -41 118 -61
135 -11 9 -20 2 -44 -39z"/>
</g>
</svg>
