<?xml version="1.0" standalone="no"?>
<!DOCTYPE svg PUBLIC "-//W3C//DTD SVG 20010904//EN"
 "http://www.w3.org/TR/2001/REC-SVG-20010904/DTD/svg10.dtd">
<svg version="1.0" xmlns="http://www.w3.org/2000/svg"
 width="192.000000pt" height="192.000000pt" viewBox="0 0 192.000000 192.000000"
 preserveAspectRatio="xMidYMid meet">
<metadata>
Created by potrace 1.16, written by Peter Selinger 2001-2019
</metadata>
<g transform="translate(0.000000,192.000000) scale(0.100000,-0.100000)"
fill="#000000" stroke="none">
811 c445 -92 729 -532 635 -987 -62 -301 -295 -546 -601 -630 -91 -26 -329
-26 -420 0 -291 80 -516 305 -596 596 -26 91 -26 329 0 420 120 433 542 692
982 601z"/>
<path d="M880 1369 c-144 -28 -259 -124 -313 -263 -13 -33 -21 -80 -23 -132
-1 -45 -7 -91 -13 -102 -14 -27 -14 -139 0 -148 6 -3 21 6 33 21 l23 28 21
-35 c79 -127 257 -207 407 -181 183 31 317 164 348 346 14 84 3 153 -28 173
-18 12 -28 13 -44 4 -12 -6 -21 -14 -22 -18 0 -4 -1 -47 -2 -97 -2 -75 -7 -98
-29 -140 -74 -141 -232 -207 -384 -159 -47 14 -72 31 -121 80 -35 34 -63 69
-63 78 0 21 18 21 272 -5 115 -12 211 -19 214 -16 3 3 12 70 19 149 8 78 15
144 15 146 0 1 44 24 97 50 97 47 124 74 87 89 -9 3 -34 2 -55 -4 -37 -10 -40
-8 -85 33 -56 53 -128 88 -208 103 -67 12 -83 12 -146 0z m164 -103 c56 -17
132 -65 120 -75 -5 -4 -70 -30 -144 -57 -73 -27 -190 -77 -258 -110 l-125 -62
6 48 c11 88 79 188 159 231 72 39 164 48 242 25z m36 -265 c0 -21 -3 -53 -6
-70 -7 -32 -8 -32 -53 -27 -25 3 -77 8 -116 12 l-70 6 115 59 c63 32 118 58
123 58 4 1 7 -16 7 -38z"/>
</g>
</svg>
