<?xml version="1.0" standalone="no"?>
<!DOCTYPE svg PUBLIC "-//W3C//DTD SVG 20010904//EN"
 "http://www.w3.org/TR/2001/REC-SVG-20010904/DTD/svg10.dtd">
<svg version="1.0" xmlns="http://www.w3.org/2000/svg"
 width="192.000000pt" height="192.000000pt" viewBox="0 0 192.000000 192.000000"
 preserveAspectRatio="xMidYMid meet">
<metadata>
Created by potrace 1.16, written by Peter Selinger 2001-2019
</metadata>
<g transform="translate(0.000000,192.000000) scale(0.100000,-0.100000)"
fill="#000000" stroke="none">
811 c445 -92 729 -532 635 -987 -62 -301 -295 -546 -601 -630 -91 -26 -329
-26 -420 0 -291 80 -516 305 -596 596 -26 91 -26 329 0 420 120 433 542 692
982 601z"/>
<path d="M720 1205 c-61 -19 -122 -74 -150 -132 -20 -41 -23 -65 -24 -160 -1
-125 9 -152 75 -186 50 -27 217 -20 282 12 26 13 47 26 47 30 0 4 -10 16 -21
27 -34 30 -69 114 -69 164 0 65 16 113 55 165 l35 45 -39 20 c-53 27 -135 33
-191 15z"/>
<path d="M1040 1208 c-19 -5 -46 -17 -59 -27 l-24 -18 26 -29 c46 -50 62 -93
62 -169 -1 -74 -22 -131 -64 -169 -12 -11 -21 -23 -21 -27 0 -4 20 -17 44 -29
91 -43 213 -22 285 51 59 59 75 109 76 234 0 125 -13 157 -72 181 -37 16 -198
17 -253 2z"/>
</g>
</svg>
