<?xml version="1.0" standalone="no"?>
<!DOCTYPE svg PUBLIC "-//W3C//DTD SVG 20010904//EN"
 "http://www.w3.org/TR/2001/REC-SVG-20010904/DTD/svg10.dtd">
<svg version="1.0" xmlns="http://www.w3.org/2000/svg"
 width="192.000000pt" height="192.000000pt" viewBox="0 0 192.000000 192.000000"
 preserveAspectRatio="xMidYMid meet">
<metadata>
Created by potrace 1.16, written by Peter Selinger 2001-2019
</metadata>
<g transform="translate(0.000000,192.000000) scale(0.100000,-0.100000)"
fill="#000000" stroke="none">
811 c445 -92 729 -532 635 -987 -62 -301 -295 -546 -601 -630 -91 -26 -329
-26 -420 0 -291 80 -516 305 -596 596 -26 91 -26 329 0 420 120 433 542 692
982 601z"/>
<path d="M735 1308 c-50 -18 -91 -55 -114 -102 -26 -57 -26 -71 -1 -96 18 -18
34 -20 143 -21 76 0 114 -3 101 -9 -46 -19 -72 -70 -143 -283 -41 -122 -69
-221 -65 -231 10 -26 38 -36 101 -36 72 0 136 28 156 67 8 15 49 133 91 261
l78 232 61 0 c115 0 182 35 218 115 24 51 24 78 1 98 -16 15 -52 17 -308 16
-174 0 -301 -5 -319 -11z"/>
</g>
</svg>
