<?xml version="1.0" standalone="no"?>
<!DOCTYPE svg PUBLIC "-//W3C//DTD SVG 20010904//EN"
 "http://www.w3.org/TR/2001/REC-SVG-20010904/DTD/svg10.dtd">
<svg version="1.0" xmlns="http://www.w3.org/2000/svg"
 width="192.000000pt" height="192.000000pt" viewBox="0 0 192.000000 192.000000"
 preserveAspectRatio="xMidYMid meet">
<metadata>
Created by potrace 1.16, written by Peter Selinger 2001-2019
</metadata>
<g transform="translate(0.000000,192.000000) scale(0.100000,-0.100000)"
fill="#000000" stroke="none">
811 c445 -92 729 -532 635 -987 -62 -301 -295 -546 -601 -630 -91 -26 -329
-26 -420 0 -291 80 -516 305 -596 596 -26 91 -26 329 0 420 120 433 542 692
982 601z"/>
<path d="M695 1323 c-46 -24 -76 -54 -96 -98 -16 -35 -19 -68 -19 -261 0 -212
1 -223 23 -265 13 -24 43 -57 66 -74 l43 -30 243 0 243 0 43 30 c23 17 53 50
66 74 22 42 23 53 23 263 0 175 -3 226 -15 256 -20 47 -50 79 -97 103 -33 17
-60 19 -265 19 -188 -1 -233 -4 -258 -17z m107 -140 c15 -13 18 -32 18 -109 0
-100 -10 -124 -54 -124 -39 0 -46 18 -46 127 0 87 3 104 18 112 25 15 43 13
64 -6z m369 7 c17 -10 19 -22 19 -113 0 -109 -7 -127 -46 -127 -43 0 -54 24
-54 122 0 116 23 149 81 118z m-231 -302 c15 -10 22 -10 32 0 6 6 26 12 43 12
40 0 69 -30 63 -65 -4 -20 -2 -24 11 -21 39 11 99 24 139 30 l42 6 0 -32 c0
-59 -19 -107 -54 -133 l-33 -25 -228 0 -228 0 -33 25 c-35 27 -54 74 -54 133
l0 33 48 -6 c48 -7 111 -21 139 -32 12 -5 14 -1 8 16 -10 33 19 71 55 71 17 0
39 -6 50 -12z"/>
<path d="M867 860 c-23 -34 0 -77 56 -107 33 -17 56 -11 97 24 52 44 33 113
-27 99 -33 -8 -39 -8 -79 0 -25 5 -35 2 -47 -16z"/>
</g>
</svg>
