<?xml version="1.0" standalone="no"?>
<!DOCTYPE svg PUBLIC "-//W3C//DTD SVG 20010904//EN"
 "http://www.w3.org/TR/2001/REC-SVG-20010904/DTD/svg10.dtd">
<svg version="1.0" xmlns="http://www.w3.org/2000/svg"
 width="192.000000pt" height="192.000000pt" viewBox="0 0 192.000000 192.000000"
 preserveAspectRatio="xMidYMid meet">
<metadata>
Created by potrace 1.16, written by Peter Selinger 2001-2019
</metadata>
<g transform="translate(0.000000,192.000000) scale(0.100000,-0.100000)"
fill="#000000" stroke="none">
811 c445 -92 729 -532 635 -987 -62 -301 -295 -546 -601 -630 -91 -26 -329
-26 -420 0 -291 80 -516 305 -596 596 -26 91 -26 329 0 420 120 433 542 692
982 601z"/>
<path d="M613 1290 c-78 -31 -57 -140 27 -140 46 0 70 25 70 72 0 52 -49 87
-97 68z"/>
<path d="M786 1235 c-14 -30 -39 -76 -57 -101 l-32 -47 23 -19 c31 -25 57 -23
76 7 18 27 52 50 61 41 3 -2 -9 -26 -26 -51 -32 -48 -38 -70 -21 -80 15 -9 12
-25 -4 -25 -16 0 -25 -19 -19 -37 3 -9 29 -13 79 -13 l75 0 -3 -62 c-3 -57 -5
-63 -23 -60 -28 5 -36 15 -44 54 -6 31 -9 33 -54 36 -43 3 -47 1 -53 -23 -11
-44 4 -92 38 -120 31 -26 36 -27 123 -23 71 3 102 10 148 31 l59 27 17 -21
c22 -27 58 -18 67 17 7 27 -19 105 -39 123 -20 16 -62 -10 -62 -38 0 -21 -28
-51 -47 -51 -4 0 -8 25 -8 55 l0 54 73 3 c64 3 72 5 72 23 0 18 -8 21 -70 25
l-70 5 -3 33 -3 32 71 0 c54 0 72 4 76 15 14 36 -14 45 -132 45 -63 0 -114 4
-114 8 0 4 6 14 13 21 10 10 8 15 -7 26 -17 13 -15 14 21 24 136 37 201 35
233 -6 18 -24 20 -41 20 -223 0 -191 -1 -197 -23 -218 -17 -16 -37 -22 -87
-24 -59 -3 -65 -5 -68 -25 -5 -32 37 -46 120 -40 72 5 119 26 150 68 27 36 41
154 35 295 -6 125 -19 175 -54 206 -53 48 -193 61 -328 33 -88 -19 -83 -19
-78 9 4 21 0 26 -33 35 -59 17 -63 15 -88 -44z m152 -237 c-3 -32 -5 -33 -52
-36 l-49 -3 29 35 c17 20 39 35 52 35 20 1 23 -3 20 -31z"/>
<path d="M570 1086 c-21 -26 -7 -59 38 -89 80 -54 77 -86 -18 -190 -40 -44
-51 -62 -48 -84 4 -35 49 -63 75 -47 26 15 90 141 108 210 20 77 9 111 -58
169 -54 47 -77 54 -97 31z"/>
</g>
</svg>
