<?xml version="1.0" standalone="no"?>
<!DOCTYPE svg PUBLIC "-//W3C//DTD SVG 20010904//EN"
 "http://www.w3.org/TR/2001/REC-SVG-20010904/DTD/svg10.dtd">
<svg version="1.0" xmlns="http://www.w3.org/2000/svg"
 width="192.000000pt" height="192.000000pt" viewBox="0 0 192.000000 192.000000"
 preserveAspectRatio="xMidYMid meet">
<metadata>
Created by potrace 1.16, written by Peter Selinger 2001-2019
</metadata>
<g transform="translate(0.000000,192.000000) scale(0.100000,-0.100000)"
fill="#000000" stroke="none">
811 c445 -92 729 -532 635 -987 -62 -301 -295 -546 -601 -630 -91 -26 -329
-26 -420 0 -291 80 -516 305 -596 596 -26 91 -26 329 0 420 120 433 542 692
982 601z"/>
<path d="M595 1325 c-14 -13 -25 -32 -25 -42 0 -11 38 -74 85 -141 l86 -122
-86 -124 -85 -124 0 -71 c0 -118 -23 -111 383 -111 406 0 382 -7 382 114 l0
71 -69 100 c-38 55 -77 109 -87 120 -17 19 -15 23 66 138 46 65 85 126 87 135
8 29 -10 62 -37 72 -15 6 -162 10 -351 10 l-325 0 -24 -25z m658 -56 c8 -13
-2 -34 -48 -100 -98 -141 -75 -129 -249 -129 -83 0 -156 4 -162 8 -21 14 -144
196 -144 213 0 10 6 20 13 22 6 3 140 5 296 4 249 -2 285 -4 294 -18z m-86
-364 c71 -95 80 -112 66 -133 -9 -15 -38 -17 -259 -20 -137 -1 -259 0 -270 3
-49 11 -39 40 58 173 l39 53 157 -3 157 -3 52 -70z m-72 -250 c0 -25 -4 -30
-24 -30 -32 0 -49 28 -31 50 7 9 23 15 34 13 16 -2 21 -10 21 -33z m126 19
c17 -21 0 -49 -32 -49 -24 0 -36 23 -25 51 7 19 40 18 57 -2z"/>
<path d="M777 868 l-45 -63 109 -3 c59 -1 160 -1 224 0 l116 3 -46 63 -45 62
-134 0 -134 0 -45 -62z"/>
</g>
</svg>
