<?xml version="1.0" standalone="no"?>
<!DOCTYPE svg PUBLIC "-//W3C//DTD SVG 20010904//EN"
 "http://www.w3.org/TR/2001/REC-SVG-20010904/DTD/svg10.dtd">
<svg version="1.0" xmlns="http://www.w3.org/2000/svg"
 width="192.000000pt" height="192.000000pt" viewBox="0 0 192.000000 192.000000"
 preserveAspectRatio="xMidYMid meet">
<metadata>
Created by potrace 1.16, written by Peter Selinger 2001-2019
</metadata>
<g transform="translate(0.000000,192.000000) scale(0.100000,-0.100000)"
fill="#000000" stroke="none">
811 c445 -92 729 -532 635 -987 -62 -301 -295 -546 -601 -630 -91 -26 -329
-26 -420 0 -291 80 -516 305 -596 596 -26 91 -26 329 0 420 120 433 542 692
982 601z"/>
<path d="M596 1344 c-31 -30 -9 -84 35 -84 18 0 19 -8 19 -129 0 -123 1 -131
22 -145 28 -20 43 -20 62 0 13 12 16 41 16 145 0 128 0 129 23 129 29 0 47 18
47 46 0 43 -24 54 -120 54 -67 0 -92 -4 -104 -16z"/>
<path d="M848 1349 c-16 -9 -18 -29 -18 -185 0 -174 0 -174 24 -185 17 -8 29
-8 45 0 18 10 21 21 21 76 0 63 1 65 25 65 24 0 25 -2 25 -65 0 -59 2 -66 24
-76 17 -8 29 -8 45 0 20 11 21 18 21 186 0 162 -1 175 -19 185 -25 13 -171 13
-193 -1z m122 -114 c0 -20 -5 -25 -25 -25 -20 0 -25 5 -25 25 0 20 5 25 25 25
20 0 25 -5 25 -25z"/>
<path d="M1102 1348 c-8 -8 -12 -64 -12 -185 0 -173 0 -173 24 -184 17 -8 29
-8 45 0 18 10 21 21 21 76 l0 65 58 0 c32 0 63 5 70 12 8 8 12 47 12 110 0 86
-2 98 -19 108 -28 14 -184 13 -199 -2z m128 -113 c0 -20 -5 -25 -25 -25 -20 0
-25 5 -25 25 0 20 5 25 25 25 20 0 25 -5 25 -25z"/>
<path d="M596 944 c-30 -30 -11 -84 29 -84 l25 0 0 -129 c0 -137 7 -161 50
-161 43 0 50 24 50 161 0 128 0 129 23 129 29 0 47 18 47 46 0 43 -24 54 -120
54 -67 0 -92 -4 -104 -16z"/>
<path d="M852 944 c-21 -15 -22 -21 -22 -183 0 -187 5 -204 58 -185 25 9 27
14 30 77 3 63 4 67 27 67 23 0 24 -4 27 -67 3 -63 5 -68 30 -77 53 -19 58 -3
58 190 l0 174 -26 10 c-41 16 -156 12 -182 -6z m118 -109 c0 -20 -5 -25 -25
-25 -20 0 -25 5 -25 25 0 20 5 25 25 25 20 0 25 -5 25 -25z"/>
<path d="M1108 949 c-16 -9 -18 -29 -18 -182 0 -182 4 -197 45 -197 35 0 45
20 45 87 l0 63 58 0 c32 0 63 5 70 12 8 8 12 47 12 110 0 97 -1 99 -26 108
-33 13 -164 12 -186 -1z m122 -114 c0 -20 -5 -25 -25 -25 -20 0 -25 5 -25 25
0 20 5 25 25 25 20 0 25 -5 25 -25z"/>
</g>
</svg>
