<?xml version="1.0" standalone="no"?>
<!DOCTYPE svg PUBLIC "-//W3C//DTD SVG 20010904//EN"
 "http://www.w3.org/TR/2001/REC-SVG-20010904/DTD/svg10.dtd">
<svg version="1.0" xmlns="http://www.w3.org/2000/svg"
 width="192.000000pt" height="192.000000pt" viewBox="0 0 192.000000 192.000000"
 preserveAspectRatio="xMidYMid meet">
<metadata>
Created by potrace 1.16, written by Peter Selinger 2001-2019
</metadata>
<g transform="translate(0.000000,192.000000) scale(0.100000,-0.100000)"
fill="#000000" stroke="none">
811 c445 -92 729 -532 635 -987 -62 -301 -295 -546 -601 -630 -91 -26 -329
-26 -420 0 -291 80 -516 305 -596 596 -26 91 -26 329 0 420 120 433 542 692
982 601z"/>
<path d="M828 1361 c-73 -24 -112 -49 -169 -108 -58 -61 -83 -103 -104 -178
-24 -81 -16 -189 19 -272 17 -41 26 -81 26 -116 0 -29 5 -58 12 -65 7 -7 37
-12 67 -12 34 0 77 -9 115 -24 162 -64 331 -31 451 89 189 189 154 500 -73
644 -97 61 -232 77 -344 42z m142 -216 c0 -43 0 -44 38 -47 34 -3 37 -6 37
-33 l0 -30 -107 -3 c-60 -1 -108 1 -108 6 0 18 121 163 130 157 6 -4 10 -26
10 -50z m2 -230 l3 -80 40 -5 c35 -4 40 -8 43 -34 4 -35 -10 -46 -64 -46 -54
0 -105 34 -116 78 -5 18 -8 61 -6 95 l3 61 40 12 c22 6 43 9 47 5 4 -3 8 -42
10 -86z"/>
</g>
</svg>
