<?xml version="1.0" standalone="no"?>
<!DOCTYPE svg PUBLIC "-//W3C//DTD SVG 20010904//EN"
 "http://www.w3.org/TR/2001/REC-SVG-20010904/DTD/svg10.dtd">
<svg version="1.0" xmlns="http://www.w3.org/2000/svg"
 width="192.000000pt" height="192.000000pt" viewBox="0 0 192.000000 192.000000"
 preserveAspectRatio="xMidYMid meet">
<metadata>
Created by potrace 1.16, written by Peter Selinger 2001-2019
</metadata>
<g transform="translate(0.000000,192.000000) scale(0.100000,-0.100000)"
fill="#000000" stroke="none">
811 c445 -92 729 -532 635 -987 -62 -301 -295 -546 -601 -630 -91 -26 -329
-26 -420 0 -291 80 -516 305 -596 596 -26 91 -26 329 0 420 120 433 542 692
982 601z"/>
<path d="M856 1369 c-63 -15 -153 -68 -202 -121 -107 -114 -140 -266 -91 -421
14 -45 28 -108 30 -140 2 -32 9 -63 15 -69 6 -6 37 -13 69 -15 32 -2 95 -16
140 -30 416 -131 733 360 437 677 -97 104 -257 152 -398 119z m104 -224 l0
-45 40 0 40 0 0 -40 0 -40 -99 0 c-55 0 -103 4 -106 10 -6 10 104 160 118 160
4 0 7 -20 7 -45z m0 -207 c0 -83 16 -113 58 -113 26 0 34 -5 38 -22 11 -42 -1
-53 -61 -53 -46 0 -60 4 -87 28 -30 27 -32 33 -36 115 l-4 86 33 9 c59 17 59
17 59 -50z"/>
</g>
</svg>
