<?xml version="1.0" standalone="no"?>
<!DOCTYPE svg PUBLIC "-//W3C//DTD SVG 20010904//EN"
 "http://www.w3.org/TR/2001/REC-SVG-20010904/DTD/svg10.dtd">
<svg version="1.0" xmlns="http://www.w3.org/2000/svg"
 width="192.000000pt" height="192.000000pt" viewBox="0 0 192.000000 192.000000"
 preserveAspectRatio="xMidYMid meet">
<metadata>
Created by potrace 1.16, written by Peter Selinger 2001-2019
</metadata>
<g transform="translate(0.000000,192.000000) scale(0.100000,-0.100000)"
fill="#000000" stroke="none">
811 c445 -92 729 -532 635 -987 -62 -301 -295 -546 -601 -630 -91 -26 -329
-26 -420 0 -291 80 -516 305 -596 596 -26 91 -26 329 0 420 120 433 542 692
982 601z"/>
<path d="M857 1390 c-58 -15 -135 -57 -184 -102 -53 -50 -66 -72 -58 -98 11
-33 45 -23 102 31 29 27 74 60 100 71 57 25 162 34 218 19 67 -18 147 -72 189
-128 40 -54 64 -65 86 -38 20 25 3 61 -59 125 -82 83 -164 121 -274 126 -45 2
-99 -1 -120 -6z"/>
<path d="M574 1133 c-3 -10 -10 -26 -15 -36 -5 -10 -8 -21 -5 -26 3 -4 -2 -38
-11 -75 -11 -52 -12 -74 -4 -92 12 -28 46 -32 79 -8 20 14 24 14 38 0 19 -20
44 -20 70 -2 17 13 21 12 37 -2 15 -13 23 -14 48 -5 32 12 32 13 20 -39 -7
-28 -5 -40 5 -49 23 -19 42 -2 49 45 7 43 8 44 39 39 41 -6 79 23 94 75 26 86
6 138 -50 130 -15 -3 -28 -1 -28 4 0 4 -13 8 -29 8 -28 0 -30 -3 -41 -57 -17
-88 -30 -123 -45 -123 -23 0 -24 12 -10 80 20 93 23 88 -47 88 -56 0 -65 -3
-90 -30 -15 -16 -30 -46 -33 -66 -4 -20 -8 -43 -11 -50 -4 -14 -32 -27 -41
-19 -11 12 19 137 36 148 11 7 12 12 4 15 -8 4 -10 16 -6 35 5 26 3 29 -21 29
-17 0 -29 -7 -32 -17z m192 -90 c-3 -10 -8 -36 -12 -58 -7 -45 -20 -65 -40
-65 -19 0 -18 73 1 110 17 34 60 44 51 13z m204 -25 c0 -54 -19 -92 -47 -96
-20 -3 -20 -2 -8 56 14 68 21 82 41 82 10 0 14 -12 14 -42z"/>
<path d="M1313 1093 c-7 -2 -13 -10 -13 -17 0 -25 -71 -156 -85 -156 -18 0
-18 8 0 90 8 36 14 68 15 72 0 4 -28 7 -62 7 -53 -1 -65 -4 -89 -28 -46 -46
-59 -128 -27 -168 14 -17 50 -16 73 1 16 12 21 11 34 -1 9 -10 23 -12 40 -8
32 8 47 8 89 -1 22 -4 40 -1 57 10 24 16 25 21 25 111 0 92 -1 95 -22 94 -13
0 -29 -3 -35 -6z m-157 -85 c-8 -60 -21 -88 -40 -88 -21 0 -27 28 -15 74 13
48 26 66 47 66 12 0 13 -9 8 -52z m159 -70 c-7 -21 -35 -32 -49 -18 -8 8 -6
14 7 21 9 6 15 14 12 20 -4 5 0 25 7 45 l13 36 7 -43 c4 -24 5 -51 3 -61z"/>
<path d="M570 830 c-15 -28 28 -110 94 -175 190 -190 499 -151 647 82 33 52
37 84 13 104 -21 17 -43 3 -71 -47 -31 -54 -98 -120 -148 -144 -177 -86 -366
-17 -467 169 -20 36 -52 41 -68 11z"/>
</g>
</svg>
