<?xml version="1.0" standalone="no"?>
<!DOCTYPE svg PUBLIC "-//W3C//DTD SVG 20010904//EN"
 "http://www.w3.org/TR/2001/REC-SVG-20010904/DTD/svg10.dtd">
<svg version="1.0" xmlns="http://www.w3.org/2000/svg"
 width="192.000000pt" height="192.000000pt" viewBox="0 0 192.000000 192.000000"
 preserveAspectRatio="xMidYMid meet">
<metadata>
Created by potrace 1.16, written by Peter Selinger 2001-2019
</metadata>
<g transform="translate(0.000000,192.000000) scale(0.100000,-0.100000)"
fill="#000000" stroke="none">
811 c445 -92 729 -532 635 -987 -62 -301 -295 -546 -601 -630 -91 -26 -329
-26 -420 0 -291 80 -516 305 -596 596 -26 91 -26 329 0 420 120 433 542 692
982 601z"/>
<path d="M559 1161 c-20 -16 -22 -23 -14 -47 8 -23 17 -30 43 -32 l32 -3 0
-149 c0 -142 1 -150 22 -164 29 -20 34 -20 58 4 18 18 20 33 20 165 l0 145 24
0 c14 0 32 10 40 22 20 29 20 34 -4 58 -29 29 -186 30 -221 1z"/>
<path d="M842 1164 c-21 -15 -22 -20 -22 -199 0 -183 0 -185 24 -200 47 -31
76 6 76 101 0 53 0 54 30 54 l30 0 0 -69 c0 -61 3 -72 22 -85 29 -20 34 -20
58 4 18 18 20 33 20 195 0 219 2 215 -128 215 -63 0 -94 -4 -110 -16z m138
-119 c0 -32 -2 -35 -30 -35 -28 0 -30 3 -30 35 0 32 2 35 30 35 28 0 30 -3 30
-35z"/>
<path d="M1138 1169 c-16 -9 -18 -30 -18 -205 0 -193 0 -195 23 -203 42 -17
61 8 67 85 l5 69 65 3 c35 2 70 8 77 14 9 7 13 43 13 119 0 97 -2 109 -19 119
-25 13 -191 13 -213 -1z m140 -121 c-3 -29 -6 -33 -33 -33 -27 0 -30 4 -33 33
-3 31 -2 32 33 32 35 0 36 -1 33 -32z"/>
</g>
</svg>
