<?xml version="1.0" standalone="no"?>
<!DOCTYPE svg PUBLIC "-//W3C//DTD SVG 20010904//EN"
 "http://www.w3.org/TR/2001/REC-SVG-20010904/DTD/svg10.dtd">
<svg version="1.0" xmlns="http://www.w3.org/2000/svg"
 width="192.000000pt" height="192.000000pt" viewBox="0 0 192.000000 192.000000"
 preserveAspectRatio="xMidYMid meet">
<metadata>
Created by potrace 1.16, written by Peter Selinger 2001-2019
</metadata>
<g transform="translate(0.000000,192.000000) scale(0.100000,-0.100000)"
fill="#000000" stroke="none">
811 c445 -92 729 -532 635 -987 -62 -301 -295 -546 -601 -630 -91 -26 -329
-26 -420 0 -291 80 -516 305 -596 596 -26 91 -26 329 0 420 120 433 542 692
982 601z"/>
<path d="M857 1369 c-95 -22 -211 -108 -261 -193 -116 -198 -47 -451 156 -570
194 -113 473 -27 573 177 152 312 -130 666 -468 586z m217 -226 c123 -87 122
-271 -2 -353 -136 -90 -317 -5 -330 154 -8 95 39 179 123 218 60 28 154 20
209 -19z"/>
<path d="M885 1048 c-31 -28 -44 -73 -33 -115 20 -75 122 -100 179 -44 24 24
29 38 29 76 0 38 -5 52 -29 76 -38 38 -106 41 -146 7z"/>
</g>
</svg>
