<?xml version="1.0" standalone="no"?>
<!DOCTYPE svg PUBLIC "-//W3C//DTD SVG 20010904//EN"
 "http://www.w3.org/TR/2001/REC-SVG-20010904/DTD/svg10.dtd">
<svg version="1.0" xmlns="http://www.w3.org/2000/svg"
 width="192.000000pt" height="192.000000pt" viewBox="0 0 192.000000 192.000000"
 preserveAspectRatio="xMidYMid meet">
<metadata>
Created by potrace 1.16, written by Peter Selinger 2001-2019
</metadata>
<g transform="translate(0.000000,192.000000) scale(0.100000,-0.100000)"
fill="#000000" stroke="none">
811 c445 -92 729 -532 635 -987 -62 -301 -295 -546 -601 -630 -91 -26 -329
-26 -420 0 -291 80 -516 305 -596 596 -26 91 -26 329 0 420 120 433 542 692
982 601z"/>
<path d="M730 1331 c-54 -17 -91 -43 -118 -83 l-27 -41 -3 -216 c-4 -239 1
-271 51 -328 52 -59 70 -63 322 -63 252 0 270 4 322 63 50 57 55 89 51 328
l-3 216 -28 41 c-15 23 -46 52 -70 64 -39 22 -55 23 -257 25 -118 1 -226 -2
-240 -6z m220 -134 c41 0 89 4 106 8 54 12 85 -45 47 -87 -17 -19 -58 -24 -68
-8 -3 6 -42 10 -85 10 -43 0 -82 -4 -85 -10 -10 -15 -46 -12 -67 7 -41 37 -9
100 46 88 17 -4 65 -8 106 -8z m160 -276 c0 -17 -169 -191 -187 -191 -5 0 -33
25 -63 55 -46 46 -53 58 -44 73 18 27 40 25 76 -7 l33 -29 72 69 c63 62 75 69
93 59 11 -6 20 -19 20 -29z"/>
</g>
</svg>
