<?xml version="1.0" standalone="no"?>
<!DOCTYPE svg PUBLIC "-//W3C//DTD SVG 20010904//EN"
 "http://www.w3.org/TR/2001/REC-SVG-20010904/DTD/svg10.dtd">
<svg version="1.0" xmlns="http://www.w3.org/2000/svg"
 width="192.000000pt" height="192.000000pt" viewBox="0 0 192.000000 192.000000"
 preserveAspectRatio="xMidYMid meet">
<metadata>
Created by potrace 1.16, written by Peter Selinger 2001-2019
</metadata>
<g transform="translate(0.000000,192.000000) scale(0.100000,-0.100000)"
fill="#000000" stroke="none">
811 c445 -92 729 -532 635 -987 -62 -301 -295 -546 -601 -630 -91 -26 -329
-26 -420 0 -291 80 -516 305 -596 596 -26 91 -26 329 0 420 120 433 542 692
982 601z"/>
<path d="M922 1372 c-7 -5 -24 -7 -38 -4 -13 2 -34 -2 -46 -10 -13 -8 -36 -18
-52 -22 -57 -14 -196 -151 -196 -192 0 -8 -8 -26 -17 -40 -24 -37 -24 -231 0
-268 9 -14 17 -35 17 -46 0 -12 10 -31 23 -44 12 -12 28 -34 36 -49 8 -15 18
-27 22 -27 4 0 26 -16 49 -35 23 -19 48 -35 56 -35 8 0 25 -7 38 -16 25 -16
88 -27 141 -25 17 0 43 1 59 1 16 0 43 7 60 14 17 8 46 19 64 26 18 7 37 21
43 31 5 11 16 19 23 19 14 0 56 41 56 56 0 5 9 15 19 21 11 7 25 29 32 50 6
21 19 48 27 61 21 32 21 222 0 254 -8 13 -18 35 -21 50 -12 47 -133 173 -177
185 -14 3 -35 13 -48 21 -12 8 -39 16 -60 18 -20 2 -50 6 -67 9 -16 3 -36 2
-43 -3z m-172 -357 c16 -20 49 -19 72 2 17 15 19 15 36 0 22 -21 52 -22 77 -3
16 11 23 11 47 -3 25 -14 31 -15 56 -1 24 14 30 14 55 0 25 -13 30 -13 55 0
22 13 31 14 52 4 14 -7 33 -15 44 -19 15 -4 16 -8 6 -20 -7 -8 -21 -15 -31
-15 -17 0 -19 -8 -19 -79 0 -64 -4 -84 -22 -111 -71 -105 -317 -122 -423 -29
-40 35 -55 79 -55 160 0 53 -2 57 -26 63 -29 8 -27 30 4 34 11 2 26 10 32 18
16 18 24 18 40 -1z"/>
<path d="M756 824 c-9 -22 17 -49 39 -40 10 3 15 15 13 28 -4 29 -42 37 -52
12z"/>
<path d="M1096 824 c-4 -10 -1 -24 7 -31 19 -19 49 -5 45 21 -4 27 -43 34 -52
10z"/>
</g>
</svg>
