<?xml version="1.0" standalone="no"?>
<!DOCTYPE svg PUBLIC "-//W3C//DTD SVG 20010904//EN"
 "http://www.w3.org/TR/2001/REC-SVG-20010904/DTD/svg10.dtd">
<svg version="1.0" xmlns="http://www.w3.org/2000/svg"
 width="192.000000pt" height="192.000000pt" viewBox="0 0 192.000000 192.000000"
 preserveAspectRatio="xMidYMid meet">
<metadata>
Created by potrace 1.16, written by Peter Selinger 2001-2019
</metadata>
<g transform="translate(0.000000,192.000000) scale(0.100000,-0.100000)"
fill="#000000" stroke="none">
811 c445 -92 729 -532 635 -987 -62 -301 -295 -546 -601 -630 -91 -26 -329
-26 -420 0 -291 80 -516 305 -596 596 -26 91 -26 329 0 420 120 433 542 692
982 601z"/>
<path d="M695 1323 c-44 -23 -74 -53 -96 -95 -17 -33 -19 -61 -19 -260 0 -212
1 -226 23 -268 13 -26 40 -57 65 -75 l44 -30 243 0 243 0 44 30 c25 18 53 49
66 75 22 44 23 52 20 282 l-3 236 -31 39 c-17 21 -48 48 -70 60 -37 22 -49 23
-269 22 -190 0 -235 -3 -260 -16z m457 -210 c10 -9 18 -23 18 -32 0 -18 -235
-255 -263 -265 -26 -9 -66 15 -115 68 -43 47 -51 73 -30 94 22 22 61 13 98
-23 l36 -35 104 105 c58 58 111 105 119 105 8 0 23 -7 33 -17z"/>
</g>
</svg>
