<?xml version="1.0" standalone="no"?>
<!DOCTYPE svg PUBLIC "-//W3C//DTD SVG 20010904//EN"
 "http://www.w3.org/TR/2001/REC-SVG-20010904/DTD/svg10.dtd">
<svg version="1.0" xmlns="http://www.w3.org/2000/svg"
 width="192.000000pt" height="192.000000pt" viewBox="0 0 192.000000 192.000000"
 preserveAspectRatio="xMidYMid meet">
<metadata>
Created by potrace 1.16, written by Peter Selinger 2001-2019
</metadata>
<g transform="translate(0.000000,192.000000) scale(0.100000,-0.100000)"
fill="#000000" stroke="none">
811 c445 -92 729 -532 635 -987 -62 -301 -295 -546 -601 -630 -91 -26 -329
-26 -420 0 -291 80 -516 305 -596 596 -26 91 -26 329 0 420 120 433 542 692
982 601z"/>
<path d="M845 1331 c-6 -36 -12 -43 -68 -74 -50 -27 -66 -32 -84 -24 -34 15
-48 4 -93 -73 -40 -68 -41 -72 -26 -96 9 -13 20 -24 24 -24 5 0 8 -34 7 -76 0
-68 -3 -79 -23 -92 -12 -8 -22 -21 -22 -29 0 -19 80 -154 95 -159 6 -3 24 0
38 5 24 9 36 5 90 -27 53 -33 62 -43 65 -71 l3 -32 107 3 107 3 5 33 c4 28 14
38 65 66 51 28 64 31 89 23 26 -9 32 -7 50 16 12 15 34 51 51 81 l29 55 -24
26 c-20 22 -24 36 -24 96 -1 47 3 74 12 81 35 30 34 47 -10 124 l-43 76 -41
-7 c-34 -5 -50 0 -100 28 -51 28 -60 37 -64 67 l-5 35 -102 3 -101 3 -7 -40z
m205 -155 c0 -11 -9 -54 -19 -94 l-19 -73 49 -24 c27 -14 49 -31 49 -38 0 -18
-247 -217 -270 -217 -29 0 -25 30 15 110 19 38 35 76 35 84 0 8 -19 25 -42 38
-25 13 -43 31 -43 40 0 10 48 60 108 112 107 95 137 109 137 62z"/>
</g>
</svg>
