<?xml version="1.0" standalone="no"?>
<!DOCTYPE svg PUBLIC "-//W3C//DTD SVG 20010904//EN"
 "http://www.w3.org/TR/2001/REC-SVG-20010904/DTD/svg10.dtd">
<svg version="1.0" xmlns="http://www.w3.org/2000/svg"
 width="192.000000pt" height="192.000000pt" viewBox="0 0 192.000000 192.000000"
 preserveAspectRatio="xMidYMid meet">
<metadata>
Created by potrace 1.16, written by Peter Selinger 2001-2019
</metadata>
<g transform="translate(0.000000,192.000000) scale(0.100000,-0.100000)"
fill="#000000" stroke="none">
811 c445 -92 729 -532 635 -987 -62 -301 -295 -546 -601 -630 -91 -26 -329
-26 -420 0 -291 80 -516 305 -596 596 -26 91 -26 329 0 420 120 433 542 692
982 601z"/>
<path d="M843 1365 c-238 -66 -368 -309 -288 -535 44 -127 204 -269 229 -204
4 10 -4 24 -20 37 -15 12 -44 38 -65 57 l-38 35 62 103 c34 56 64 102 67 102
3 0 19 -78 35 -172 28 -163 31 -175 61 -205 34 -35 80 -43 126 -22 28 12 35
23 219 343 154 269 162 292 125 364 -37 72 -138 95 -207 48 -31 -21 -45 -46
-99 -173 -35 -81 -66 -151 -70 -155 -3 -5 -23 49 -45 118 -40 131 -56 154
-105 154 -15 0 -36 -10 -47 -22 -12 -13 -54 -105 -94 -206 -77 -194 -85 -202
-96 -99 -18 172 97 331 270 373 55 14 79 15 125 7 59 -11 82 -5 82 23 0 21
-33 33 -107 39 -44 3 -86 0 -120 -10z"/>
<path d="M1287 924 c-4 -4 -7 -13 -7 -20 0 -39 -47 -130 -91 -179 -30 -32 -49
-62 -47 -72 17 -88 183 115 191 233 2 33 -1 39 -18 42 -12 2 -24 0 -28 -4z"/>
</g>
</svg>
