<?xml version="1.0" standalone="no"?>
<!DOCTYPE svg PUBLIC "-//W3C//DTD SVG 20010904//EN"
 "http://www.w3.org/TR/2001/REC-SVG-20010904/DTD/svg10.dtd">
<svg version="1.0" xmlns="http://www.w3.org/2000/svg"
 width="192.000000pt" height="192.000000pt" viewBox="0 0 192.000000 192.000000"
 preserveAspectRatio="xMidYMid meet">
<metadata>
Created by potrace 1.16, written by Peter Selinger 2001-2019
</metadata>
<g transform="translate(0.000000,192.000000) scale(0.100000,-0.100000)"
fill="#000000" stroke="none">
811 c445 -92 729 -532 635 -987 -62 -301 -295 -546 -601 -630 -91 -26 -329
-26 -420 0 -291 80 -516 305 -596 596 -26 91 -26 329 0 420 120 433 542 692
982 601z"/>
<path d="M772 1349 c-76 -29 -162 -113 -198 -191 -23 -52 -28 -77 -29 -143 0
-71 4 -88 32 -146 39 -79 102 -140 181 -177 77 -37 211 -38 286 -4 l50 23 76
-76 c67 -67 80 -75 113 -75 49 0 87 36 87 82 0 27 -12 45 -76 109 l-76 77 21
61 c28 82 28 181 -1 258 -29 80 -121 172 -201 201 -77 29 -191 29 -265 1z
m183 -140 c88 -24 145 -98 145 -188 0 -87 -37 -146 -115 -182 -201 -93 -380
164 -220 317 58 56 118 73 190 53z"/>
</g>
</svg>
