<?xml version="1.0" standalone="no"?>
<!DOCTYPE svg PUBLIC "-//W3C//DTD SVG 20010904//EN"
 "http://www.w3.org/TR/2001/REC-SVG-20010904/DTD/svg10.dtd">
<svg version="1.0" xmlns="http://www.w3.org/2000/svg"
 width="192.000000pt" height="192.000000pt" viewBox="0 0 192.000000 192.000000"
 preserveAspectRatio="xMidYMid meet">
<metadata>
Created by potrace 1.16, written by Peter Selinger 2001-2019
</metadata>
<g transform="translate(0.000000,192.000000) scale(0.100000,-0.100000)"
fill="#000000" stroke="none">
811 c445 -92 729 -532 635 -987 -62 -301 -295 -546 -601 -630 -91 -26 -329
-26 -420 0 -291 80 -516 305 -596 596 -26 91 -26 329 0 420 120 433 542 692
982 601z"/>
<path d="M695 1321 c-49 -22 -91 -69 -105 -119 -7 -24 -10 -118 -8 -259 l3
-221 30 -43 c56 -79 77 -84 340 -84 263 0 284 5 340 84 l30 43 3 221 c4 240
-1 276 -45 328 -53 62 -83 69 -328 69 -192 0 -225 -3 -260 -19z m175 -111 c0
-5 -4 -10 -10 -10 -5 0 -10 -13 -10 -30 0 -20 -5 -30 -15 -30 -10 0 -15 10
-15 30 0 17 -4 30 -10 30 -5 0 -10 5 -10 10 0 6 16 10 35 10 19 0 35 -4 35
-10z m76 -25 c17 -43 17 -45 0 -45 -8 0 -18 10 -22 23 l-7 22 -10 -22 c-6 -13
-16 -23 -24 -23 -16 0 -16 0 2 44 19 45 42 46 61 1z m94 26 c0 -5 -7 -11 -15
-15 -8 -3 -15 -17 -15 -32 0 -34 -24 -27 -28 9 -2 15 -8 27 -13 27 -5 0 -9 5
-9 10 0 6 18 10 40 10 22 0 40 -4 40 -9z m69 -27 c15 -41 6 -58 -15 -30 -14
20 -14 20 -28 0 -21 -28 -30 -11 -16 30 15 48 42 48 59 0z m139 -278 c-3 -158
-4 -165 -27 -190 -36 -39 -79 -46 -266 -46 -187 0 -230 7 -266 46 -23 25 -24
32 -27 190 l-3 164 296 0 296 0 -3 -164z"/>
<path d="M887 1013 c-4 -3 -7 -57 -7 -120 0 -89 3 -113 14 -113 19 0 34 20 38
54 l3 30 28 -42 c20 -31 34 -42 52 -42 31 0 31 1 -1 50 -26 39 -26 41 -9 60
18 20 19 20 49 -26 27 -42 29 -48 17 -77 -24 -61 -25 -67 -3 -67 11 0 24 6 29
13 10 12 103 214 103 224 0 2 -10 3 -22 1 -15 -2 -31 -19 -46 -46 l-24 -43
-29 46 c-36 56 -60 58 -111 8 l-38 -37 0 67 c0 58 -2 67 -18 67 -10 0 -22 -3
-25 -7z"/>
<path d="M730 940 c-31 -31 -25 -57 17 -79 12 -6 31 -11 42 -11 40 0 21 -19
-21 -22 -35 -2 -43 -7 -43 -23 0 -16 8 -21 43 -23 61 -4 94 19 90 61 -3 28 -8
34 -51 48 -53 18 -52 29 5 29 31 0 38 3 38 20 0 17 -7 20 -50 20 -37 0 -55 -5
-70 -20z"/>
</g>
</svg>
