<?xml version="1.0" standalone="no"?>
<!DOCTYPE svg PUBLIC "-//W3C//DTD SVG 20010904//EN"
 "http://www.w3.org/TR/2001/REC-SVG-20010904/DTD/svg10.dtd">
<svg version="1.0" xmlns="http://www.w3.org/2000/svg"
 width="192.000000pt" height="192.000000pt" viewBox="0 0 192.000000 192.000000"
 preserveAspectRatio="xMidYMid meet">
<metadata>
Created by potrace 1.16, written by Peter Selinger 2001-2019
</metadata>
<g transform="translate(0.000000,192.000000) scale(0.100000,-0.100000)"
fill="#000000" stroke="none">
811 c445 -92 729 -532 635 -987 -62 -301 -295 -546 -601 -630 -91 -26 -329
-26 -420 0 -291 80 -516 305 -596 596 -26 91 -26 329 0 420 120 433 542 692
982 601z"/>
<path d="M629 1291 c-40 -40 -41 -42 -37 -97 6 -72 44 -114 110 -121 89 -10
153 52 145 140 -6 71 -46 109 -121 115 -55 4 -57 3 -97 -37z"/>
<path d="M889 1034 c-243 -243 -259 -262 -259 -295 0 -66 62 -115 125 -98 20
6 109 87 278 257 243 244 247 249 247 289 0 57 -31 92 -88 100 l-44 6 -259
-259z"/>
<path d="M1123 840 c-111 -67 -64 -240 64 -240 82 0 133 51 133 133 0 99 -111
160 -197 107z"/>
</g>
</svg>
