<?xml version="1.0" standalone="no"?>
<!DOCTYPE svg PUBLIC "-//W3C//DTD SVG 20010904//EN"
 "http://www.w3.org/TR/2001/REC-SVG-20010904/DTD/svg10.dtd">
<svg version="1.0" xmlns="http://www.w3.org/2000/svg"
 width="192.000000pt" height="192.000000pt" viewBox="0 0 192.000000 192.000000"
 preserveAspectRatio="xMidYMid meet">
<metadata>
Created by potrace 1.16, written by Peter Selinger 2001-2019
</metadata>
<g transform="translate(0.000000,192.000000) scale(0.100000,-0.100000)"
fill="#000000" stroke="none">
811 c445 -92 729 -532 635 -987 -62 -301 -295 -546 -601 -630 -91 -26 -329
-26 -420 0 -291 80 -516 305 -596 596 -26 91 -26 329 0 420 120 433 542 692
982 601z"/>
<path d="M695 1326 c-39 -18 -80 -62 -99 -108 -23 -54 -23 -452 -1 -506 21
-49 52 -81 100 -103 35 -16 67 -19 260 -19 239 0 272 7 322 61 48 52 53 84 53
316 0 191 -3 223 -19 258 -22 47 -64 89 -104 104 -43 17 -474 14 -512 -3z
m474 -212 c38 -32 55 -90 48 -169 -10 -127 -47 -155 -207 -155 l-101 0 3 138
3 137 30 0 30 0 3 -112 3 -113 52 0 c29 0 57 4 63 8 24 16 37 59 37 124 0 84
-17 113 -70 121 -53 9 -155 8 -170 -1 -9 -5 -13 -52 -15 -152 l-3 -145 -30 0
-30 0 -5 145 -5 145 -47 3 c-46 3 -75 22 -63 42 4 6 84 10 225 10 l218 0 31
-26z"/>
</g>
</svg>
