<?xml version="1.0" standalone="no"?>
<!DOCTYPE svg PUBLIC "-//W3C//DTD SVG 20010904//EN"
 "http://www.w3.org/TR/2001/REC-SVG-20010904/DTD/svg10.dtd">
<svg version="1.0" xmlns="http://www.w3.org/2000/svg"
 width="192.000000pt" height="192.000000pt" viewBox="0 0 192.000000 192.000000"
 preserveAspectRatio="xMidYMid meet">
<metadata>
Created by potrace 1.16, written by Peter Selinger 2001-2019
</metadata>
<g transform="translate(0.000000,192.000000) scale(0.100000,-0.100000)"
fill="#000000" stroke="none">
811 c445 -92 729 -532 635 -987 -62 -301 -295 -546 -601 -630 -91 -26 -329
-26 -420 0 -291 80 -516 305 -596 596 -26 91 -26 329 0 420 120 433 542 692
982 601z"/>
<path d="M552 1228 c-18 -18 -14 -46 7 -58 11 -5 51 -10 90 -10 l71 0 0 -215
c0 -202 1 -216 20 -235 25 -25 62 -26 83 -2 15 16 17 48 17 235 l0 217 161 0
c91 0 169 -4 180 -10 37 -20 53 -69 54 -165 0 -114 -9 -156 -42 -189 -24 -24
-33 -26 -109 -26 l-84 0 0 155 c0 142 -2 157 -20 175 -24 24 -48 25 -78 4 -21
-15 -22 -20 -22 -198 0 -164 2 -185 18 -199 15 -14 42 -17 158 -17 154 0 199
9 243 46 49 41 66 102 66 239 0 103 -3 126 -22 160 -26 49 -48 70 -96 90 -30
12 -91 15 -360 15 -238 0 -326 -3 -335 -12z"/>
</g>
</svg>
