<?xml version="1.0" standalone="no"?>
<!DOCTYPE svg PUBLIC "-//W3C//DTD SVG 20010904//EN"
 "http://www.w3.org/TR/2001/REC-SVG-20010904/DTD/svg10.dtd">
<svg version="1.0" xmlns="http://www.w3.org/2000/svg"
 width="192.000000pt" height="192.000000pt" viewBox="0 0 192.000000 192.000000"
 preserveAspectRatio="xMidYMid meet">
<metadata>
Created by potrace 1.16, written by Peter Selinger 2001-2019
</metadata>
<g transform="translate(0.000000,192.000000) scale(0.100000,-0.100000)"
fill="#000000" stroke="none">
811 c445 -92 729 -532 635 -987 -62 -301 -295 -546 -601 -630 -91 -26 -329
-26 -420 0 -291 80 -516 305 -596 596 -26 91 -26 329 0 420 120 433 542 692
982 601z"/>
<path d="M721 1329 c-55 -13 -127 -82 -136 -131 -3 -18 -5 -135 -3 -260 l3
-226 31 -38 c60 -74 80 -79 334 -79 254 0 274 5 334 79 l31 38 0 253 0 253
-31 38 c-58 73 -82 79 -314 81 -113 1 -225 -3 -249 -8z m127 -247 l3 -42 100
0 99 0 0 39 c0 22 5 43 11 47 7 4 47 -29 95 -77 l84 -84 -84 -84 c-48 -47 -89
-81 -95 -77 -6 4 -11 25 -11 47 l0 39 -100 0 -100 0 0 -39 c0 -22 -5 -43 -11
-47 -6 -4 -47 30 -95 77 l-84 84 82 82 c46 46 87 82 93 80 5 -2 11 -22 13 -45z"/>
</g>
</svg>
