<?xml version="1.0" standalone="no"?>
<!DOCTYPE svg PUBLIC "-//W3C//DTD SVG 20010904//EN"
 "http://www.w3.org/TR/2001/REC-SVG-20010904/DTD/svg10.dtd">
<svg version="1.0" xmlns="http://www.w3.org/2000/svg"
 width="192.000000pt" height="192.000000pt" viewBox="0 0 192.000000 192.000000"
 preserveAspectRatio="xMidYMid meet">
<metadata>
Created by potrace 1.16, written by Peter Selinger 2001-2019
</metadata>
<g transform="translate(0.000000,192.000000) scale(0.100000,-0.100000)"
fill="#000000" stroke="none">
811 c445 -92 729 -532 635 -987 -62 -301 -295 -546 -601 -630 -91 -26 -329
-26 -420 0 -291 80 -516 305 -596 596 -26 91 -26 329 0 420 120 433 542 692
982 601z"/>
<path d="M782 1348 c-18 -18 -15 -46 8 -78 l20 -28 -74 -4 c-65 -3 -79 -7
-113 -34 -21 -16 -48 -50 -61 -75 -22 -42 -23 -52 -20 -236 l3 -191 30 -44
c18 -25 49 -52 75 -66 42 -21 54 -22 305 -22 251 0 263 1 305 23 26 13 57 40
75 65 l30 44 3 191 c3 184 2 194 -20 236 -13 25 -40 59 -61 75 -34 27 -48 31
-113 34 l-74 4 20 28 c23 32 26 60 8 78 -25 25 -56 13 -98 -38 -68 -82 -73
-82 -139 -11 -56 61 -85 73 -109 49z"/>
</g>
</svg>
