<?xml version="1.0" standalone="no"?>
<!DOCTYPE svg PUBLIC "-//W3C//DTD SVG 20010904//EN"
 "http://www.w3.org/TR/2001/REC-SVG-20010904/DTD/svg10.dtd">
<svg version="1.0" xmlns="http://www.w3.org/2000/svg"
 width="192.000000pt" height="192.000000pt" viewBox="0 0 192.000000 192.000000"
 preserveAspectRatio="xMidYMid meet">
<metadata>
Created by potrace 1.16, written by Peter Selinger 2001-2019
</metadata>
<g transform="translate(0.000000,192.000000) scale(0.100000,-0.100000)"
fill="#000000" stroke="none">
811 c445 -92 729 -532 635 -987 -62 -301 -295 -546 -601 -630 -91 -26 -329
-26 -420 0 -291 80 -516 305 -596 596 -26 91 -26 329 0 420 120 433 542 692
982 601z"/>
<path d="M472 1198 c-17 -17 -15 -54 4 -72 8 -9 31 -16 50 -16 l34 0 0 -182
c0 -101 4 -189 9 -196 5 -8 23 -12 47 -10 l39 3 3 193 2 192 31 0 c43 0 69 17
69 45 0 54 -2 55 -144 55 -89 0 -136 -4 -144 -12z"/>
<path d="M814 1197 c-2 -7 -3 -116 -2 -242 l3 -230 129 -3 c140 -3 156 2 156
49 0 39 -24 49 -114 49 l-76 0 0 44 0 44 60 4 c67 5 83 14 83 53 0 39 -16 48
-83 53 l-60 4 0 44 0 44 76 0 c41 0 84 5 95 10 22 12 26 59 7 78 -17 17 -267
17 -274 -1z"/>
<path d="M1154 1197 c-2 -7 -3 -116 -2 -242 l3 -230 134 -3 c90 -2 138 1 147
9 19 15 21 448 2 467 -17 17 -277 17 -284 -1z m196 -232 l0 -145 -50 0 -50 0
0 145 0 145 50 0 50 0 0 -145z"/>
</g>
</svg>
