<?xml version="1.0" standalone="no"?>
<!DOCTYPE svg PUBLIC "-//W3C//DTD SVG 20010904//EN"
 "http://www.w3.org/TR/2001/REC-SVG-20010904/DTD/svg10.dtd">
<svg version="1.0" xmlns="http://www.w3.org/2000/svg"
 width="192.000000pt" height="192.000000pt" viewBox="0 0 192.000000 192.000000"
 preserveAspectRatio="xMidYMid meet">
<metadata>
Created by potrace 1.16, written by Peter Selinger 2001-2019
</metadata>
<g transform="translate(0.000000,192.000000) scale(0.100000,-0.100000)"
fill="#000000" stroke="none">
811 c445 -92 729 -532 635 -987 -62 -301 -295 -546 -601 -630 -91 -26 -329
-26 -420 0 -291 80 -516 305 -596 596 -26 91 -26 329 0 420 120 433 542 692
982 601z"/>
<path d="M910 1369 c-68 -10 -115 -33 -169 -84 -64 -60 -93 -126 -93 -215 -1
-79 13 -113 112 -280 51 -87 70 -128 70 -154 0 -61 25 -76 125 -76 100 0 125
15 125 76 0 27 20 69 81 171 45 75 88 156 95 181 63 209 -123 414 -346 381z
m3 -603 c47 -8 71 -7 117 5 l59 15 -27 -45 c-14 -25 -29 -63 -32 -85 l-5 -41
-70 0 c-65 0 -70 2 -73 23 -3 21 0 22 56 22 60 0 75 9 64 38 -3 8 -27 12 -71
12 l-66 0 -24 42 c-21 37 -21 40 -5 33 11 -4 45 -13 77 -19z"/>
</g>
</svg>
