<?xml version="1.0" standalone="no"?>
<!DOCTYPE svg PUBLIC "-//W3C//DTD SVG 20010904//EN"
 "http://www.w3.org/TR/2001/REC-SVG-20010904/DTD/svg10.dtd">
<svg version="1.0" xmlns="http://www.w3.org/2000/svg"
 width="192.000000pt" height="192.000000pt" viewBox="0 0 192.000000 192.000000"
 preserveAspectRatio="xMidYMid meet">
<metadata>
Created by potrace 1.16, written by Peter Selinger 2001-2019
</metadata>
<g transform="translate(0.000000,192.000000) scale(0.100000,-0.100000)"
fill="#000000" stroke="none">
811 c445 -92 729 -532 635 -987 -62 -301 -295 -546 -601 -630 -91 -26 -329
-26 -420 0 -291 80 -516 305 -596 596 -26 91 -26 329 0 420 120 433 542 692
982 601z"/>
<path d="M908 1197 c-185 -73 -346 -141 -357 -151 -26 -24 -27 -70 -2 -95 10
-10 48 -24 87 -31 122 -23 114 -13 114 -143 0 -98 3 -116 18 -130 35 -32 72
-21 129 35 l53 52 22 -20 c139 -123 151 -129 198 -104 24 13 32 42 111 388
l62 273 -20 27 c-13 17 -31 28 -49 29 -18 2 -160 -49 -366 -130z"/>
</g>
</svg>
