<?xml version="1.0" standalone="no"?>
<!DOCTYPE svg PUBLIC "-//W3C//DTD SVG 20010904//EN"
 "http://www.w3.org/TR/2001/REC-SVG-20010904/DTD/svg10.dtd">
<svg version="1.0" xmlns="http://www.w3.org/2000/svg"
 width="192.000000pt" height="192.000000pt" viewBox="0 0 192.000000 192.000000"
 preserveAspectRatio="xMidYMid meet">
<metadata>
Created by potrace 1.16, written by Peter Selinger 2001-2019
</metadata>
<g transform="translate(0.000000,192.000000) scale(0.100000,-0.100000)"
fill="#000000" stroke="none">
811 c445 -92 729 -532 635 -987 -62 -301 -295 -546 -601 -630 -91 -26 -329
-26 -420 0 -291 80 -516 305 -596 596 -26 91 -26 329 0 420 120 433 542 692
982 601z"/>
<path d="M930 1184 c-211 -82 -352 -143 -362 -155 -10 -12 -18 -31 -18 -44 0
-44 29 -64 125 -83 l90 -18 5 -118 c5 -113 6 -120 31 -138 36 -27 67 -16 124
42 l48 49 74 -66 c56 -51 81 -66 104 -66 56 0 63 18 139 342 38 168 70 313 70
323 0 24 -44 68 -67 68 -10 -1 -173 -62 -363 -136z m273 -247 c-31 -136 -60
-247 -63 -247 -8 0 -255 218 -255 225 0 6 369 274 372 271 2 -1 -23 -114 -54
-249z"/>
</g>
</svg>
