<?xml version="1.0" standalone="no"?>
<!DOCTYPE svg PUBLIC "-//W3C//DTD SVG 20010904//EN"
 "http://www.w3.org/TR/2001/REC-SVG-20010904/DTD/svg10.dtd">
<svg version="1.0" xmlns="http://www.w3.org/2000/svg"
 width="192.000000pt" height="192.000000pt" viewBox="0 0 192.000000 192.000000"
 preserveAspectRatio="xMidYMid meet">
<metadata>
Created by potrace 1.16, written by Peter Selinger 2001-2019
</metadata>
<g transform="translate(0.000000,192.000000) scale(0.100000,-0.100000)"
fill="#000000" stroke="none">
811 c445 -92 729 -532 635 -987 -62 -301 -295 -546 -601 -630 -91 -26 -329
-26 -420 0 -291 80 -516 305 -596 596 -26 91 -26 329 0 420 120 433 542 692
982 601z"/>
<path d="M870 1366 c-256 -58 -396 -326 -296 -564 17 -40 26 -80 26 -115 0
-29 5 -58 12 -65 7 -7 37 -12 67 -12 35 0 77 -9 118 -25 249 -100 518 50 564
314 49 277 -216 529 -491 467z m222 -263 c10 -9 18 -21 18 -27 0 -23 -100
-291 -114 -304 -26 -27 -59 -6 -94 58 -28 52 -41 65 -88 88 -59 29 -79 62 -52
88 14 14 270 111 297 113 8 1 23 -6 33 -16z"/>
</g>
</svg>
