<?xml version="1.0" standalone="no"?>
<!DOCTYPE svg PUBLIC "-//W3C//DTD SVG 20010904//EN"
 "http://www.w3.org/TR/2001/REC-SVG-20010904/DTD/svg10.dtd">
<svg version="1.0" xmlns="http://www.w3.org/2000/svg"
 width="192.000000pt" height="192.000000pt" viewBox="0 0 192.000000 192.000000"
 preserveAspectRatio="xMidYMid meet">
<metadata>
Created by potrace 1.16, written by Peter Selinger 2001-2019
</metadata>
<g transform="translate(0.000000,192.000000) scale(0.100000,-0.100000)"
fill="#000000" stroke="none">
811 c445 -92 729 -532 635 -987 -62 -301 -295 -546 -601 -630 -91 -26 -329
-26 -420 0 -291 80 -516 305 -596 596 -26 91 -26 329 0 420 120 433 542 692
982 601z"/>
<path d="M695 1321 c-48 -22 -79 -54 -100 -103 -12 -30 -15 -81 -15 -255 0
-191 3 -223 19 -259 38 -83 41 -68 41 201 0 274 5 306 51 339 34 23 474 24
520 0 54 -27 59 -56 59 -339 0 -269 3 -284 41 -201 16 36 19 68 19 259 0 232
-5 264 -53 316 -50 54 -83 61 -322 61 -193 0 -225 -3 -260 -19z"/>
<path d="M738 1215 c-87 -49 -50 -185 49 -185 89 0 133 109 69 169 -30 28 -83
35 -118 16z m76 -67 c27 -39 -18 -80 -52 -46 -17 17 -15 45 6 57 24 15 29 14
46 -11z"/>
<path d="M900 1198 c16 -27 20 -51 20 -128 0 -52 4 -101 9 -108 4 -8 19 -12
32 -10 23 3 24 6 29 113 4 83 9 118 23 138 l17 27 -75 0 -75 0 20 -32z"/>
<path d="M1078 1215 c-87 -49 -50 -185 49 -185 64 1 110 54 99 114 -12 66 -91
103 -148 71z m76 -67 c27 -39 -18 -80 -52 -46 -17 17 -15 45 6 57 24 15 29 14
46 -11z"/>
<path d="M1201 1020 c-29 -25 -116 -27 -149 -4 -18 13 -22 13 -22 1 0 -8 -3
-29 -6 -46 -5 -25 -3 -31 10 -31 25 0 91 -36 132 -72 l36 -32 19 23 c15 18 19
40 19 102 0 43 -3 79 -7 79 -5 -1 -19 -10 -32 -20z"/>
<path d="M689 1012 c-6 -85 -2 -140 9 -159 l14 -23 40 34 c22 19 64 45 94 58
35 15 52 28 49 36 -3 8 -5 27 -5 44 0 30 -1 31 -20 13 -31 -28 -102 -31 -145
-7 -32 19 -35 20 -36 4z"/>
<path d="M843 886 c-29 -14 -53 -30 -53 -36 0 -16 11 -12 36 11 33 31 54 19
54 -31 0 -37 2 -40 19 -30 11 5 38 10 61 10 23 0 50 -5 61 -10 17 -10 19 -7
19 30 0 51 21 62 57 29 14 -13 24 -18 21 -10 -8 28 -80 56 -153 59 -58 2 -79
-1 -122 -22z"/>
<path d="M1137 812 c-14 -14 -21 -14 -37 -4 -20 12 -20 9 -20 -104 l0 -116 53
4 c28 3 64 10 80 16 27 11 27 12 27 114 0 79 -3 99 -12 90 -16 -16 -38 -15
-58 3 -14 13 -18 13 -33 -3z"/>
<path d="M680 718 l0 -105 39 -11 c21 -7 57 -12 80 -12 l41 0 0 111 c0 98 -2
110 -15 99 -12 -10 -20 -9 -40 4 -23 15 -28 15 -47 2 -20 -14 -24 -14 -40 1
-17 15 -18 12 -18 -89z"/>
<path d="M892 654 c-12 -8 -22 -26 -22 -40 0 -24 2 -24 85 -24 l85 0 0 28 c0
21 -7 32 -25 40 -36 17 -97 15 -123 -4z"/>
</g>
</svg>
