<?xml version="1.0" standalone="no"?>
<!DOCTYPE svg PUBLIC "-//W3C//DTD SVG 20010904//EN"
 "http://www.w3.org/TR/2001/REC-SVG-20010904/DTD/svg10.dtd">
<svg version="1.0" xmlns="http://www.w3.org/2000/svg"
 width="192.000000pt" height="192.000000pt" viewBox="0 0 192.000000 192.000000"
 preserveAspectRatio="xMidYMid meet">
<metadata>
Created by potrace 1.16, written by Peter Selinger 2001-2019
</metadata>
<g transform="translate(0.000000,192.000000) scale(0.100000,-0.100000)"
fill="#000000" stroke="none">
811 c445 -92 729 -532 635 -987 -62 -301 -295 -546 -601 -630 -91 -26 -329
-26 -420 0 -291 80 -516 305 -596 596 -26 91 -26 329 0 420 120 433 542 692
982 601z"/>
<path d="M695 1325 c-44 -24 -86 -65 -101 -102 -11 -24 -14 -88 -14 -255 0
-196 3 -228 19 -264 38 -83 41 -68 41 201 0 283 5 312 59 339 25 13 70 16 255
16 240 0 263 -4 293 -49 16 -23 19 -60 23 -296 l5 -270 22 35 c33 50 35 70 31
316 l-3 221 -27 36 c-16 19 -43 46 -60 59 -32 22 -40 23 -273 26 -203 2 -245
0 -270 -13z"/>
<path d="M734 1211 c-59 -36 -65 -112 -12 -156 51 -43 124 -31 153 25 24 46
19 78 -19 116 -39 39 -75 44 -122 15z m86 -87 c0 -28 -25 -42 -49 -27 -23 15
-26 45 -6 59 25 18 55 0 55 -32z"/>
<path d="M900 1198 c16 -27 20 -51 20 -128 0 -52 4 -101 9 -108 4 -8 19 -12
32 -10 23 3 24 6 29 113 4 85 9 116 24 138 l18 27 -76 0 -76 0 20 -32z"/>
<path d="M1074 1211 c-59 -36 -65 -112 -12 -156 51 -43 124 -31 153 25 24 46
19 78 -19 116 -39 39 -75 44 -122 15z m86 -87 c0 -28 -25 -42 -49 -27 -23 15
-26 45 -6 59 25 18 55 0 55 -32z"/>
<path d="M1201 1020 c-29 -25 -117 -28 -147 -5 -29 22 -34 18 -34 -28 0 -42 1
-43 48 -59 26 -10 67 -34 90 -54 41 -35 44 -36 62 -19 17 15 20 31 20 102 0
45 -3 83 -7 83 -5 -1 -19 -10 -32 -20z"/>
<path d="M680 952 c0 -54 5 -84 16 -100 l15 -22 41 34 c22 20 65 45 95 58 36
15 52 26 48 36 -3 7 -5 27 -5 43 l0 29 -32 -20 c-42 -25 -94 -25 -136 0 -18
11 -35 20 -37 20 -3 0 -5 -35 -5 -78z"/>
<path d="M913 908 c-46 -7 -110 -35 -119 -50 -13 -21 8 -20 31 2 34 32 55 21
55 -30 0 -38 1 -40 21 -29 19 10 92 9 129 -2 11 -3 16 6 18 39 3 47 18 54 47
22 21 -23 44 -27 24 -4 -33 40 -132 66 -206 52z"/>
<path d="M740 810 c-23 -17 -26 -17 -42 -3 -17 15 -18 11 -18 -90 l0 -106 38
-10 c20 -6 56 -11 80 -11 l42 0 0 111 c0 99 -2 110 -15 99 -13 -11 -19 -9 -38
8 -22 20 -22 21 -47 2z"/>
<path d="M1137 812 c-14 -14 -21 -14 -37 -4 -11 6 -22 12 -25 12 -3 0 -4 -51
-3 -112 l3 -113 60 1 c33 0 70 6 83 13 21 11 22 18 22 111 0 55 -2 100 -5 100
-3 0 -14 -5 -25 -12 -15 -10 -22 -9 -38 5 -17 16 -19 16 -35 -1z"/>
<path d="M892 654 c-12 -8 -22 -26 -22 -40 0 -24 2 -24 85 -24 l85 0 0 28 c0
21 -7 32 -25 40 -36 17 -97 15 -123 -4z"/>
</g>
</svg>
