<?xml version="1.0" standalone="no"?>
<!DOCTYPE svg PUBLIC "-//W3C//DTD SVG 20010904//EN"
 "http://www.w3.org/TR/2001/REC-SVG-20010904/DTD/svg10.dtd">
<svg version="1.0" xmlns="http://www.w3.org/2000/svg"
 width="192.000000pt" height="192.000000pt" viewBox="0 0 192.000000 192.000000"
 preserveAspectRatio="xMidYMid meet">
<metadata>
Created by potrace 1.16, written by Peter Selinger 2001-2019
</metadata>
<g transform="translate(0.000000,192.000000) scale(0.100000,-0.100000)"
fill="#000000" stroke="none">
811 c445 -92 729 -532 635 -987 -62 -301 -295 -546 -601 -630 -91 -26 -329
-26 -420 0 -291 80 -516 305 -596 596 -26 91 -26 329 0 420 120 433 542 692
982 601z"/>
<path d="M682 1319 c-26 -13 -55 -39 -70 -62 -27 -40 -27 -41 -30 -266 -2
-124 0 -241 3 -259 8 -42 59 -100 110 -123 35 -16 69 -19 260 -19 191 0 225 3
260 19 51 23 102 81 110 123 3 18 5 132 3 253 -3 200 -5 220 -21 223 -11 2
-71 -45 -167 -132 -83 -75 -158 -136 -168 -136 -23 0 -245 186 -256 215 -7 17
-6 29 4 39 25 31 58 18 151 -59 50 -41 95 -75 101 -75 18 0 258 225 258 243 0
31 -46 37 -278 37 -212 0 -230 -1 -270 -21z"/>
</g>
</svg>
