<?xml version="1.0" standalone="no"?>
<!DOCTYPE svg PUBLIC "-//W3C//DTD SVG 20010904//EN"
 "http://www.w3.org/TR/2001/REC-SVG-20010904/DTD/svg10.dtd">
<svg version="1.0" xmlns="http://www.w3.org/2000/svg"
 width="192.000000pt" height="192.000000pt" viewBox="0 0 192.000000 192.000000"
 preserveAspectRatio="xMidYMid meet">
<metadata>
Created by potrace 1.16, written by Peter Selinger 2001-2019
</metadata>
<g transform="translate(0.000000,192.000000) scale(0.100000,-0.100000)"
fill="#000000" stroke="none">
811 c445 -92 729 -532 635 -987 -62 -301 -295 -546 -601 -630 -91 -26 -329
-26 -420 0 -291 80 -516 305 -596 596 -26 91 -26 329 0 420 120 433 542 692
982 601z"/>
<path d="M580 1164 c0 -8 4 -23 10 -33 7 -13 3 -27 -16 -55 -14 -21 -23 -44
-20 -51 11 -31 141 -30 152 0 3 8 -4 30 -16 49 -16 27 -19 44 -14 71 5 28 3
35 -9 35 -9 0 -19 -5 -22 -10 -4 -7 -12 -7 -25 0 -27 14 -40 12 -40 -6z"/>
<path d="M756 1149 c-21 -24 -24 -34 -15 -45 6 -8 18 -14 25 -14 16 0 17 -9 5
-29 -5 -7 -14 -10 -20 -7 -24 15 -9 -15 15 -31 35 -22 111 -22 146 1 26 17 26
18 7 37 -16 16 -17 23 -8 40 12 23 -3 51 -15 30 -12 -19 -54 -12 -73 12 -30
38 -40 39 -67 6z m102 -117 c2 -7 -7 -12 -22 -12 -27 0 -35 15 -13 23 17 7 30
3 35 -11z"/>
<path d="M1096 1158 c-2 -7 -9 -32 -15 -54 -11 -40 -33 -60 -51 -49 -13 8 -80
-22 -80 -34 0 -7 23 -11 54 -11 51 0 57 3 82 35 30 39 48 37 42 -6 -3 -16 -1
-29 2 -29 13 0 20 133 9 147 -14 16 -39 17 -43 1z"/>
<path d="M1204 1162 c-32 -21 -47 -115 -22 -140 7 -7 41 -12 84 -12 92 0 108
12 98 79 -9 67 -26 81 -93 81 -31 0 -61 -4 -67 -8z m42 -47 c4 -8 13 -15 20
-15 8 0 17 7 20 15 8 20 24 19 24 0 0 -9 -11 -21 -25 -27 -21 -9 -28 -8 -45 7
-11 10 -20 22 -20 27 0 14 20 9 26 -7z"/>
<path d="M551 941 c-23 -15 -5 -41 29 -41 l30 0 0 -70 c0 -56 3 -72 16 -77 24
-9 34 15 34 84 0 60 1 62 28 65 19 2 27 9 27 23 0 18 -8 20 -75 23 -41 1 -81
-2 -89 -7z"/>
<path d="M754 937 c-3 -8 -4 -52 -2 -98 l3 -84 74 -3 c45 -2 78 1 85 8 18 18
-22 40 -71 40 -24 0 -43 5 -43 10 0 6 15 10 34 10 47 0 66 9 66 31 0 16 -8 19
-50 19 -38 0 -50 4 -50 15 0 11 13 15 54 15 58 0 76 11 56 35 -17 20 -148 21
-156 2z"/>
<path d="M957 943 c-4 -3 -7 -48 -7 -100 0 -86 1 -93 20 -93 18 0 20 7 20 58
l1 57 22 -27 c29 -35 42 -35 64 -1 l18 27 5 -54 c4 -47 8 -55 25 -55 18 0 20
8 23 83 4 119 -23 146 -72 71 l-27 -40 -30 40 c-27 39 -47 49 -62 34z"/>
<path d="M1187 943 c-4 -3 -7 -39 -7 -79 0 -66 2 -74 26 -93 38 -30 98 -28
129 4 22 21 25 33 25 93 0 50 -4 71 -14 75 -24 9 -36 -15 -36 -72 0 -69 -9
-84 -46 -79 -28 3 -29 5 -34 68 -6 79 -20 106 -43 83z"/>
</g>
</svg>
