<?xml version="1.0" standalone="no"?>
<!DOCTYPE svg PUBLIC "-//W3C//DTD SVG 20010904//EN"
 "http://www.w3.org/TR/2001/REC-SVG-20010904/DTD/svg10.dtd">
<svg version="1.0" xmlns="http://www.w3.org/2000/svg"
 width="192.000000pt" height="192.000000pt" viewBox="0 0 192.000000 192.000000"
 preserveAspectRatio="xMidYMid meet">
<metadata>
Created by potrace 1.16, written by Peter Selinger 2001-2019
</metadata>
<g transform="translate(0.000000,192.000000) scale(0.100000,-0.100000)"
fill="#000000" stroke="none">
811 c445 -92 729 -532 635 -987 -62 -301 -295 -546 -601 -630 -91 -26 -329
-26 -420 0 -291 80 -516 305 -596 596 -26 91 -26 329 0 420 120 433 542 692
982 601z"/>
<path d="M887 1288 c-82 -11 -175 -58 -239 -122 -50 -50 -108 -146 -108 -179
0 -22 34 -47 63 -47 23 0 31 9 56 59 82 161 267 229 428 157 72 -33 123 -82
161 -157 23 -43 34 -55 56 -57 30 -4 66 21 66 45 0 21 -44 103 -80 148 -92
116 -246 174 -403 153z"/>
<path d="M842 1123 c-85 -30 -204 -170 -187 -222 7 -22 51 -43 75 -36 10 3 24
20 31 37 33 80 105 128 194 128 89 0 161 -48 194 -128 16 -37 39 -47 74 -31
37 17 40 34 17 87 -29 65 -84 119 -155 153 -49 24 -72 29 -130 28 -38 0 -89
-7 -113 -16z"/>
<path d="M874 981 c-47 -21 -91 -73 -100 -117 -6 -34 6 -49 47 -59 22 -5 30
-2 45 20 37 53 54 65 88 65 27 0 40 -7 60 -32 15 -18 31 -39 37 -46 12 -15 54
-9 77 11 19 15 8 62 -24 105 -52 67 -150 89 -230 53z"/>
<path d="M943 842 c-5 -4 -22 -32 -36 -62 -14 -30 -36 -67 -48 -82 -39 -48
-23 -58 96 -58 126 0 132 6 82 77 -19 26 -40 64 -46 85 -12 37 -30 52 -48 40z"/>
</g>
</svg>
