<?xml version="1.0" standalone="no"?>
<!DOCTYPE svg PUBLIC "-//W3C//DTD SVG 20010904//EN"
 "http://www.w3.org/TR/2001/REC-SVG-20010904/DTD/svg10.dtd">
<svg version="1.0" xmlns="http://www.w3.org/2000/svg"
 width="192.000000pt" height="192.000000pt" viewBox="0 0 192.000000 192.000000"
 preserveAspectRatio="xMidYMid meet">
<metadata>
Created by potrace 1.16, written by Peter Selinger 2001-2019
</metadata>
<g transform="translate(0.000000,192.000000) scale(0.100000,-0.100000)"
fill="#000000" stroke="none">
811 c445 -92 729 -532 635 -987 -62 -301 -295 -546 -601 -630 -91 -26 -329
-26 -420 0 -291 80 -516 305 -596 596 -26 91 -26 329 0 420 120 433 542 692
982 601z"/>
<path d="M1026 1224 c-33 -32 -15 -154 23 -154 20 0 91 66 91 85 0 13 -17 33
-42 53 -48 37 -51 38 -72 16z"/>
<path d="M674 1172 c-49 -23 -111 -93 -124 -141 -18 -64 -12 -151 14 -206 28
-60 46 -77 111 -107 88 -39 227 -25 287 29 27 24 26 192 0 216 -28 26 -145 24
-172 -3 -11 -11 -20 -27 -20 -35 0 -27 38 -55 75 -55 31 0 35 -3 35 -25 0 -30
-30 -45 -88 -45 -78 0 -132 60 -132 147 0 101 64 150 177 138 71 -7 93 2 93
40 0 43 -34 60 -129 63 -68 2 -95 -1 -127 -16z"/>
<path d="M1204 1159 l-29 -30 -3 -203 c-3 -222 -2 -228 55 -228 42 -1 53 25
53 129 0 83 2 93 18 93 24 0 42 19 42 45 0 26 -18 45 -42 45 -14 0 -18 8 -18
40 0 37 2 40 39 50 45 12 60 43 34 72 -11 13 -31 18 -68 18 -44 0 -55 -4 -81
-31z"/>
<path d="M1040 1000 c-18 -18 -20 -33 -20 -143 0 -137 8 -159 55 -159 47 0 55
22 55 159 0 110 -2 125 -20 143 -11 11 -27 20 -35 20 -8 0 -24 -9 -35 -20z"/>
</g>
</svg>
