<?xml version="1.0" standalone="no"?>
<!DOCTYPE svg PUBLIC "-//W3C//DTD SVG 20010904//EN"
 "http://www.w3.org/TR/2001/REC-SVG-20010904/DTD/svg10.dtd">
<svg version="1.0" xmlns="http://www.w3.org/2000/svg"
 width="192.000000pt" height="192.000000pt" viewBox="0 0 192.000000 192.000000"
 preserveAspectRatio="xMidYMid meet">
<metadata>
Created by potrace 1.16, written by Peter Selinger 2001-2019
</metadata>
<g transform="translate(0.000000,192.000000) scale(0.100000,-0.100000)"
fill="#000000" stroke="none">
811 c445 -92 729 -532 635 -987 -62 -301 -295 -546 -601 -630 -91 -26 -329
-26 -420 0 -291 80 -516 305 -596 596 -26 91 -26 329 0 420 120 433 542 692
982 601z"/>
<path d="M845 1357 c-22 -8 -60 -24 -83 -36 -40 -20 -45 -21 -61 -7 -24 22
-84 20 -104 -2 -22 -24 -22 -70 -1 -94 16 -17 15 -22 -12 -80 -26 -57 -29 -73
-29 -173 0 -98 3 -116 26 -165 40 -85 108 -154 197 -197 73 -36 80 -38 177
-38 97 0 104 2 177 38 89 43 157 112 197 197 23 49 26 67 26 165 0 103 -2 115
-30 172 -30 59 -30 62 -13 83 24 29 23 61 -2 88 -24 26 -75 29 -100 7 -15 -14
-24 -12 -86 17 -58 27 -82 33 -154 35 -52 2 -101 -2 -125 -10z m-17 -203 c27
-18 30 -69 5 -96 -23 -26 -78 -24 -97 4 -22 32 -20 55 9 83 28 29 51 31 83 9z
m315 5 c28 -15 37 -28 37 -58 0 -34 -28 -61 -63 -61 -38 0 -67 25 -67 59 0 31
8 44 35 59 25 14 32 15 58 1z m-264 -249 l44 -41 -38 -39 c-22 -22 -47 -40
-57 -40 -29 0 -33 28 -9 54 l21 23 -20 18 c-23 21 -25 36 -8 53 17 17 18 16
67 -28z m206 -160 c0 -24 -2 -25 -78 -28 -62 -2 -78 0 -83 13 -15 37 2 46 83
43 76 -3 78 -4 78 -28z"/>
</g>
</svg>
