<?xml version="1.0" standalone="no"?>
<!DOCTYPE svg PUBLIC "-//W3C//DTD SVG 20010904//EN"
 "http://www.w3.org/TR/2001/REC-SVG-20010904/DTD/svg10.dtd">
<svg version="1.0" xmlns="http://www.w3.org/2000/svg"
 width="192.000000pt" height="192.000000pt" viewBox="0 0 192.000000 192.000000"
 preserveAspectRatio="xMidYMid meet">
<metadata>
Created by potrace 1.16, written by Peter Selinger 2001-2019
</metadata>
<g transform="translate(0.000000,192.000000) scale(0.100000,-0.100000)"
fill="#000000" stroke="none">
811 c445 -92 729 -532 635 -987 -62 -301 -295 -546 -601 -630 -91 -26 -329
-26 -420 0 -291 80 -516 305 -596 596 -26 91 -26 329 0 420 120 433 542 692
982 601z"/>
<path d="M579 1315 c-38 -21 -52 -68 -35 -108 8 -18 62 -79 120 -137 l106
-105 -116 -116 c-106 -107 -116 -119 -116 -153 0 -53 33 -86 86 -86 39 0 46 6
198 158 211 211 211 184 1 394 -168 168 -192 183 -244 153z"/>
<path d="M994 756 c-37 -31 -38 -84 -4 -121 23 -25 26 -25 180 -25 153 0 157
1 179 24 33 35 31 93 -4 123 -25 22 -34 23 -175 23 -142 0 -150 -1 -176 -24z"/>
</g>
</svg>
