<?xml version="1.0" standalone="no"?>
<!DOCTYPE svg PUBLIC "-//W3C//DTD SVG 20010904//EN"
 "http://www.w3.org/TR/2001/REC-SVG-20010904/DTD/svg10.dtd">
<svg version="1.0" xmlns="http://www.w3.org/2000/svg"
 width="192.000000pt" height="192.000000pt" viewBox="0 0 192.000000 192.000000"
 preserveAspectRatio="xMidYMid meet">
<metadata>
Created by potrace 1.16, written by Peter Selinger 2001-2019
</metadata>
<g transform="translate(0.000000,192.000000) scale(0.100000,-0.100000)"
fill="#000000" stroke="none">
811 c445 -92 729 -532 635 -987 -62 -301 -295 -546 -601 -630 -91 -26 -329
-26 -420 0 -291 80 -516 305 -596 596 -26 91 -26 329 0 420 120 433 542 692
982 601z"/>
<path d="M807 1306 c-61 -17 -121 -73 -144 -135 -9 -26 -31 -62 -49 -81 -126
-134 -56 -341 127 -374 20 -3 47 -18 60 -32 76 -82 207 -91 300 -21 56 43 58
43 107 57 89 23 152 109 152 205 0 51 -9 78 -49 145 -5 8 -14 34 -21 58 -13
52 -60 106 -113 134 -31 15 -55 19 -111 17 -48 -2 -83 3 -106 13 -54 24 -100
28 -153 14z m106 -97 c12 -6 33 -22 47 -35 l26 -24 39 20 c49 25 81 25 122 0
37 -22 48 -40 58 -95 3 -21 17 -52 30 -67 32 -38 40 -86 22 -131 -19 -45 -54
-68 -115 -75 -39 -4 -53 -12 -82 -44 -27 -30 -45 -41 -75 -45 -56 -7 -110 17
-136 62 -19 32 -25 35 -69 35 -64 0 -111 32 -129 88 -19 60 0 107 57 145 36
24 42 33 42 63 0 46 14 71 53 94 36 22 78 25 110 9z"/>
<path d="M810 1006 c0 -76 8 -82 77 -59 62 20 77 35 69 66 -4 19 -18 29 -53
41 -25 9 -57 16 -70 16 -22 0 -23 -4 -23 -64z"/>
<path d="M949 924 c-34 -41 43 -85 113 -65 42 13 57 34 41 60 -13 21 -137 25
-154 5z"/>
</g>
</svg>
