<?xml version="1.0" standalone="no"?>
<!DOCTYPE svg PUBLIC "-//W3C//DTD SVG 20010904//EN"
 "http://www.w3.org/TR/2001/REC-SVG-20010904/DTD/svg10.dtd">
<svg version="1.0" xmlns="http://www.w3.org/2000/svg"
 width="192.000000pt" height="192.000000pt" viewBox="0 0 192.000000 192.000000"
 preserveAspectRatio="xMidYMid meet">
<metadata>
Created by potrace 1.16, written by Peter Selinger 2001-2019
</metadata>
<g transform="translate(0.000000,192.000000) scale(0.100000,-0.100000)"
fill="#000000" stroke="none">
811 c445 -92 729 -532 635 -987 -62 -301 -295 -546 -601 -630 -91 -26 -329
-26 -420 0 -291 80 -516 305 -596 596 -26 91 -26 329 0 420 120 433 542 692
982 601z"/>
<path d="M540 1193 c0 -9 8 -25 18 -36 9 -10 53 -121 97 -245 l80 -227 64 0
64 0 20 59 20 59 -32 106 c-18 58 -46 150 -63 204 l-30 97 -119 0 c-105 0
-119 -2 -119 -17z"/>
<path d="M940 1207 c0 -1 -9 -32 -19 -69 l-19 -67 67 -193 67 -193 61 -3 60
-3 18 66 17 66 -62 199 -63 200 -64 0 c-34 0 -63 -1 -63 -3z"/>
<path d="M1206 1179 c-67 -79 14 -188 107 -144 62 29 75 98 28 146 -42 42 -99
41 -135 -2z"/>
</g>
</svg>
