<?xml version="1.0" standalone="no"?>
<!DOCTYPE svg PUBLIC "-//W3C//DTD SVG 20010904//EN"
 "http://www.w3.org/TR/2001/REC-SVG-20010904/DTD/svg10.dtd">
<svg version="1.0" xmlns="http://www.w3.org/2000/svg"
 width="192.000000pt" height="192.000000pt" viewBox="0 0 192.000000 192.000000"
 preserveAspectRatio="xMidYMid meet">
<metadata>
Created by potrace 1.16, written by Peter Selinger 2001-2019
</metadata>
<g transform="translate(0.000000,192.000000) scale(0.100000,-0.100000)"
fill="#000000" stroke="none">
811 c445 -92 729 -532 635 -987 -62 -301 -295 -546 -601 -630 -91 -26 -329
-26 -420 0 -291 80 -516 305 -596 596 -26 91 -26 329 0 420 120 433 542 692
982 601z"/>
<path d="M933 1345 c-14 -10 -32 -13 -47 -9 -18 4 -29 0 -43 -16 -10 -12 -30
-28 -45 -36 -18 -9 -28 -23 -28 -36 0 -12 -10 -32 -22 -45 -19 -20 -20 -26 -9
-47 7 -13 10 -33 7 -44 -6 -19 15 -52 34 -52 4 0 13 -13 19 -30 7 -22 16 -30
34 -30 13 0 36 -9 51 -21 22 -18 26 -28 26 -75 0 -57 -5 -62 -56 -48 -15 4
-20 12 -17 29 3 12 0 26 -6 29 -6 4 -11 16 -11 27 0 29 -82 63 -113 47 -12 -6
-28 -14 -36 -17 -7 -4 -20 -24 -29 -45 -12 -31 -13 -44 -2 -76 10 -31 20 -41
56 -55 35 -13 46 -14 63 -3 16 9 28 10 53 1 18 -6 48 -14 66 -18 32 -7 33 -9
30 -48 l-3 -42 -51 -5 c-59 -6 -84 -23 -84 -56 0 -48 20 -54 174 -54 157 0
179 7 179 55 0 37 -26 55 -78 55 -38 0 -65 13 -65 32 0 4 6 8 14 8 7 0 29 10
48 23 27 19 39 22 56 14 28 -13 102 10 109 32 3 9 10 26 15 38 17 36 -12 94
-57 116 -34 16 -41 17 -74 4 -39 -16 -74 -66 -69 -101 3 -26 -9 -46 -28 -46
-11 0 -14 18 -14 84 0 79 1 84 20 79 11 -3 30 4 46 16 15 12 38 21 51 21 18 0
27 8 34 30 6 16 19 32 30 35 20 7 22 14 19 52 -1 12 4 32 10 43 10 18 8 26 -9
44 -12 12 -21 33 -21 45 0 16 -9 26 -30 34 -16 6 -30 15 -30 18 0 20 -34 40
-59 34 -16 -3 -34 0 -46 9 -25 19 -35 20 -62 1z"/>
</g>
</svg>
