<?xml version="1.0" standalone="no"?>
<!DOCTYPE svg PUBLIC "-//W3C//DTD SVG 20010904//EN"
 "http://www.w3.org/TR/2001/REC-SVG-20010904/DTD/svg10.dtd">
<svg version="1.0" xmlns="http://www.w3.org/2000/svg"
 width="192.000000pt" height="192.000000pt" viewBox="0 0 192.000000 192.000000"
 preserveAspectRatio="xMidYMid meet">
<metadata>
Created by potrace 1.16, written by Peter Selinger 2001-2019
</metadata>
<g transform="translate(0.000000,192.000000) scale(0.100000,-0.100000)"
fill="#000000" stroke="none">
811 c445 -92 729 -532 635 -987 -62 -301 -295 -546 -601 -630 -91 -26 -329
-26 -420 0 -291 80 -516 305 -596 596 -26 91 -26 329 0 420 120 433 542 692
982 601z"/>
<path d="M872 1357 c-51 -16 -118 -81 -139 -135 -15 -40 -18 -78 -18 -267 0
-206 1 -223 21 -260 99 -183 339 -183 438 0 20 37 21 54 21 260 0 257 -7 289
-80 353 -66 58 -157 77 -243 49z m117 -296 c18 -34 26 -39 66 -45 53 -8 56
-21 15 -61 -28 -26 -30 -34 -24 -71 9 -60 1 -67 -50 -43 l-42 21 -42 -21 c-48
-25 -57 -17 -48 43 6 37 4 45 -24 71 -41 40 -38 53 15 61 40 6 48 11 66 45 10
22 26 39 34 39 8 0 24 -17 34 -39z"/>
<path d="M625 1200 c-11 -4 -31 -20 -45 -35 -20 -22 -25 -37 -25 -82 0 -50 3
-57 37 -89 36 -32 36 -34 17 -44 -30 -17 -59 -70 -59 -110 0 -61 53 -119 110
-120 l25 0 0 245 c0 239 -1 245 -20 244 -11 0 -29 -4 -40 -9z"/>
<path d="M1225 966 l0 -246 25 0 c57 1 110 59 110 120 0 40 -29 93 -59 110
-19 10 -19 12 17 44 34 32 37 39 37 90 0 49 -4 59 -30 86 -18 17 -46 33 -65
36 l-35 6 0 -246z"/>
</g>
</svg>
