<?xml version="1.0" standalone="no"?>
<!DOCTYPE svg PUBLIC "-//W3C//DTD SVG 20010904//EN"
 "http://www.w3.org/TR/2001/REC-SVG-20010904/DTD/svg10.dtd">
<svg version="1.0" xmlns="http://www.w3.org/2000/svg"
 width="192.000000pt" height="192.000000pt" viewBox="0 0 192.000000 192.000000"
 preserveAspectRatio="xMidYMid meet">
<metadata>
Created by potrace 1.16, written by Peter Selinger 2001-2019
</metadata>
<g transform="translate(0.000000,192.000000) scale(0.100000,-0.100000)"
fill="#000000" stroke="none">
811 c445 -92 729 -532 635 -987 -62 -301 -295 -546 -601 -630 -91 -26 -329
-26 -420 0 -291 80 -516 305 -596 596 -26 91 -26 329 0 420 120 433 542 692
982 601z"/>
<path d="M763 1356 c-92 -18 -198 -53 -213 -71 -17 -21 -4 -64 22 -74 15 -5
41 -1 78 12 184 64 421 64 613 -2 49 -17 57 -18 76 -5 27 20 28 69 2 84 -11 5
-62 22 -113 36 -116 32 -348 42 -465 20z"/>
<path d="M761 1229 c-115 -22 -181 -55 -181 -90 0 -20 47 -62 101 -90 l39 -19
6 27 c9 35 20 43 61 43 22 0 33 -5 37 -17 2 -10 23 -126 47 -258 23 -132 46
-246 52 -252 16 -22 57 -16 66 10 5 12 28 133 52 270 l43 247 29 0 c40 0 67
-17 67 -41 0 -18 4 -20 27 -15 14 4 46 21 70 37 34 24 43 36 43 59 0 37 -28
53 -142 80 -127 30 -150 28 -191 -21 l-35 -40 -33 40 c-29 36 -37 41 -73 40
-23 -1 -61 -5 -85 -10z"/>
</g>
</svg>
