<?xml version="1.0" standalone="no"?>
<!DOCTYPE svg PUBLIC "-//W3C//DTD SVG 20010904//EN"
 "http://www.w3.org/TR/2001/REC-SVG-20010904/DTD/svg10.dtd">
<svg version="1.0" xmlns="http://www.w3.org/2000/svg"
 width="192.000000pt" height="192.000000pt" viewBox="0 0 192.000000 192.000000"
 preserveAspectRatio="xMidYMid meet">
<metadata>
Created by potrace 1.16, written by Peter Selinger 2001-2019
</metadata>
<g transform="translate(0.000000,192.000000) scale(0.100000,-0.100000)"
fill="#000000" stroke="none">
811 c445 -92 729 -532 635 -987 -62 -301 -295 -546 -601 -630 -91 -26 -329
-26 -420 0 -291 80 -516 305 -596 596 -26 91 -26 329 0 420 120 433 542 692
982 601z"/>
<path d="M580 1154 c-15 -38 -12 -50 14 -81 22 -25 32 -28 103 -33 l80 -5 -24
-105 c-26 -114 -24 -139 9 -170 22 -20 72 -27 82 -12 3 5 24 94 46 198 23 104
44 199 47 212 l5 22 -176 0 -176 0 -10 -26z"/>
<path d="M990 1177 c0 -2 -25 -118 -55 -257 -31 -140 -54 -266 -53 -280 5 -46
98 -40 121 8 8 15 31 109 52 210 l38 182 91 0 c107 0 129 11 147 70 21 70 21
70 -171 70 -93 0 -170 -1 -170 -3z"/>
</g>
</svg>
