<?xml version="1.0" standalone="no"?>
<!DOCTYPE svg PUBLIC "-//W3C//DTD SVG 20010904//EN"
 "http://www.w3.org/TR/2001/REC-SVG-20010904/DTD/svg10.dtd">
<svg version="1.0" xmlns="http://www.w3.org/2000/svg"
 width="192.000000pt" height="192.000000pt" viewBox="0 0 192.000000 192.000000"
 preserveAspectRatio="xMidYMid meet">
<metadata>
Created by potrace 1.16, written by Peter Selinger 2001-2019
</metadata>
<g transform="translate(0.000000,192.000000) scale(0.100000,-0.100000)"
fill="#000000" stroke="none">
811 c445 -92 729 -532 635 -987 -62 -301 -295 -546 -601 -630 -91 -26 -329
-26 -420 0 -291 80 -516 305 -596 596 -26 91 -26 329 0 420 120 433 542 692
982 601z"/>
<path d="M935 1353 c-32 -8 -272 -181 -293 -211 -34 -47 -42 -101 -42 -293 0
-205 7 -242 51 -264 47 -25 72 -18 167 50 157 110 129 106 224 37 161 -115
188 -124 239 -73 l29 29 0 219 c-1 290 4 281 -197 422 -85 59 -147 95 -156 90
-1 -1 -11 -4 -22 -6z"/>
</g>
</svg>
