<?xml version="1.0" standalone="no"?>
<!DOCTYPE svg PUBLIC "-//W3C//DTD SVG 20010904//EN"
 "http://www.w3.org/TR/2001/REC-SVG-20010904/DTD/svg10.dtd">
<svg version="1.0" xmlns="http://www.w3.org/2000/svg"
 width="192.000000pt" height="192.000000pt" viewBox="0 0 192.000000 192.000000"
 preserveAspectRatio="xMidYMid meet">
<metadata>
Created by potrace 1.16, written by Peter Selinger 2001-2019
</metadata>
<g transform="translate(0.000000,192.000000) scale(0.100000,-0.100000)"
fill="#000000" stroke="none">
811 c445 -92 729 -532 635 -987 -62 -301 -295 -546 -601 -630 -91 -26 -329
-26 -420 0 -291 80 -516 305 -596 596 -26 91 -26 329 0 420 120 433 542 692
982 601z"/>
<path d="M740 1174 c-164 -143 -190 -170 -190 -195 0 -30 23 -49 59 -49 20 0
21 -5 21 -150 0 -186 2 -190 113 -190 75 0 97 9 97 42 0 25 -31 38 -89 38
l-51 0 0 160 c0 153 -1 161 -20 168 -18 7 -2 25 124 135 79 70 147 127 151
127 4 0 72 -57 151 -127 125 -110 142 -128 124 -135 -19 -7 -20 -16 -20 -168
l0 -160 -135 0 -135 0 0 45 c0 33 4 45 15 45 10 0 15 -10 15 -27 0 -39 13 -55
41 -51 20 2 24 9 27 45 4 52 -11 81 -50 97 -39 17 -71 10 -100 -21 -18 -20
-23 -38 -26 -97 -6 -120 -13 -116 198 -116 233 0 220 -12 220 192 0 143 1 148
21 148 55 0 77 47 42 88 -10 11 -96 88 -191 171 -121 105 -180 151 -197 151
-17 0 -81 -49 -215 -166z"/>
<path d="M874 1059 c-16 -5 -47 -23 -68 -42 -31 -26 -37 -37 -32 -55 9 -29 36
-28 81 2 67 46 133 46 199 1 46 -31 72 -32 82 -3 5 18 -1 29 -29 53 -58 50
-151 68 -233 44z"/>
<path d="M906 945 c-53 -19 -70 -37 -62 -69 7 -30 39 -35 70 -11 11 8 29 15
41 15 12 0 30 -7 41 -15 26 -19 60 -19 68 1 22 58 -78 108 -158 79z"/>
</g>
</svg>
