<?xml version="1.0" standalone="no"?>
<!DOCTYPE svg PUBLIC "-//W3C//DTD SVG 20010904//EN"
 "http://www.w3.org/TR/2001/REC-SVG-20010904/DTD/svg10.dtd">
<svg version="1.0" xmlns="http://www.w3.org/2000/svg"
 width="192.000000pt" height="192.000000pt" viewBox="0 0 192.000000 192.000000"
 preserveAspectRatio="xMidYMid meet">
<metadata>
Created by potrace 1.16, written by Peter Selinger 2001-2019
</metadata>
<g transform="translate(0.000000,192.000000) scale(0.100000,-0.100000)"
fill="#000000" stroke="none">
811 c445 -92 729 -532 635 -987 -62 -301 -295 -546 -601 -630 -91 -26 -329
-26 -420 0 -291 80 -516 305 -596 596 -26 91 -26 329 0 420 120 433 542 692
982 601z"/>
<path d="M1195 1343 c-26 -15 -67 -19 -285 -23 -284 -6 -300 -9 -347 -80 -23
-32 -23 -38 -23 -345 0 -363 0 -362 80 -275 l46 50 280 0 c316 0 329 3 371 76
21 36 23 51 23 224 1 147 4 189 15 204 37 49 3 145 -60 172 -45 18 -63 18
-100 -3z m97 -60 c24 -28 27 -47 13 -80 -27 -63 -116 -45 -123 25 -6 59 73 98
110 55z"/>
</g>
</svg>
