<?xml version="1.0" standalone="no"?>
<!DOCTYPE svg PUBLIC "-//W3C//DTD SVG 20010904//EN"
 "http://www.w3.org/TR/2001/REC-SVG-20010904/DTD/svg10.dtd">
<svg version="1.0" xmlns="http://www.w3.org/2000/svg"
 width="192.000000pt" height="192.000000pt" viewBox="0 0 192.000000 192.000000"
 preserveAspectRatio="xMidYMid meet">
<metadata>
Created by potrace 1.16, written by Peter Selinger 2001-2019
</metadata>
<g transform="translate(0.000000,192.000000) scale(0.100000,-0.100000)"
fill="#000000" stroke="none">
811 c445 -92 729 -532 635 -987 -62 -301 -295 -546 -601 -630 -91 -26 -329
-26 -420 0 -291 80 -516 305 -596 596 -26 91 -26 329 0 420 120 433 542 692
982 601z"/>
<path d="M832 1127 l-232 -232 0 -66 c0 -87 13 -99 106 -99 l69 0 232 233
c128 128 233 238 233 246 0 22 -131 151 -154 151 -14 0 -98 -77 -254 -233z"/>
<path d="M616 637 c-11 -8 -17 -23 -14 -38 l3 -24 347 -3 c344 -2 347 -2 358
19 9 16 8 24 -6 40 -16 18 -35 19 -344 19 -253 0 -330 -3 -344 -13z"/>
</g>
</svg>
