<?xml version="1.0" standalone="no"?>
<!DOCTYPE svg PUBLIC "-//W3C//DTD SVG 20010904//EN"
 "http://www.w3.org/TR/2001/REC-SVG-20010904/DTD/svg10.dtd">
<svg version="1.0" xmlns="http://www.w3.org/2000/svg"
 width="192.000000pt" height="192.000000pt" viewBox="0 0 192.000000 192.000000"
 preserveAspectRatio="xMidYMid meet">
<metadata>
Created by potrace 1.16, written by Peter Selinger 2001-2019
</metadata>
<g transform="translate(0.000000,192.000000) scale(0.100000,-0.100000)"
fill="#000000" stroke="none">
811 c445 -92 729 -532 635 -987 -62 -301 -295 -546 -601 -630 -91 -26 -329
-26 -420 0 -291 80 -516 305 -596 596 -26 91 -26 329 0 420 120 433 542 692
982 601z"/>
<path d="M681 1319 c-28 -15 -54 -38 -72 -68 l-29 -45 0 -241 0 -241 29 -46
c19 -30 44 -52 74 -67 44 -21 56 -22 285 -19 l240 3 39 31 c21 16 48 50 61 74
21 42 22 56 22 265 0 209 -1 223 -22 265 -13 24 -40 58 -61 74 l-39 31 -241 3
c-232 2 -244 2 -286 -19z m520 -195 c11 -13 10 -21 -5 -49 -33 -62 -56 -66
-291 -63 l-210 3 -3 42 c-2 32 2 47 17 62 20 20 32 21 250 21 196 0 230 -2
242 -16z m-230 -227 c36 -24 56 -64 46 -91 -5 -14 -27 -16 -147 -16 -127 0
-142 2 -160 20 -20 20 -28 88 -13 103 3 4 59 7 123 7 105 0 120 -2 151 -23z"/>
</g>
</svg>
