<?xml version="1.0" standalone="no"?>
<!DOCTYPE svg PUBLIC "-//W3C//DTD SVG 20010904//EN"
 "http://www.w3.org/TR/2001/REC-SVG-20010904/DTD/svg10.dtd">
<svg version="1.0" xmlns="http://www.w3.org/2000/svg"
 width="192.000000pt" height="192.000000pt" viewBox="0 0 192.000000 192.000000"
 preserveAspectRatio="xMidYMid meet">
<metadata>
Created by potrace 1.16, written by Peter Selinger 2001-2019
</metadata>
<g transform="translate(0.000000,192.000000) scale(0.100000,-0.100000)"
fill="#000000" stroke="none">
811 c445 -92 729 -532 635 -987 -62 -301 -295 -546 -601 -630 -91 -26 -329
-26 -420 0 -291 80 -516 305 -596 596 -26 91 -26 329 0 420 120 433 542 692
982 601z"/>
<path d="M1101 1308 c-27 -14 -52 -36 -62 -57 -13 -24 -30 -38 -56 -47 -65
-23 -95 -87 -69 -148 26 -61 42 -66 224 -66 l164 0 35 35 c33 33 35 39 30 81
-3 27 -13 54 -26 68 -12 13 -32 42 -44 66 -42 84 -117 110 -196 68z"/>
<path d="M540 1099 c0 -6 9 -13 20 -16 17 -5 20 -14 20 -59 0 -41 4 -54 15
-54 11 0 15 13 15 54 0 45 3 54 20 59 18 5 20 0 20 -54 0 -52 2 -59 20 -59 16
0 20 7 20 31 0 24 4 30 18 27 10 -2 18 -14 20 -31 2 -15 9 -27 18 -27 11 0 14
16 14 70 0 56 -3 70 -15 70 -9 0 -15 -9 -15 -25 0 -18 -5 -25 -20 -25 -15 0
-20 7 -20 25 0 24 -2 25 -75 25 -48 0 -75 -4 -75 -11z"/>
<path d="M780 1040 l0 -70 45 0 c33 0 45 4 45 15 0 10 -10 15 -31 15 -36 0
-36 23 0 28 27 4 22 26 -7 30 -33 5 -26 22 8 22 20 0 30 5 30 15 0 11 -12 15
-45 15 l-45 0 0 -70z"/>
<path d="M540 923 c0 -5 4 -24 9 -43 5 -19 12 -47 15 -62 4 -19 13 -28 26 -28
13 0 22 9 27 28 l7 27 6 -25 c3 -15 14 -26 27 -28 18 -3 23 5 36 60 l15 63 1
-62 1 -63 70 1 c62 1 70 3 70 20 0 10 7 19 15 19 9 0 15 -9 15 -21 0 -14 5
-19 18 -17 13 2 18 15 20 56 3 44 6 53 20 50 13 -2 18 -16 20 -56 2 -37 7 -52
18 -52 10 0 14 14 14 55 0 42 3 55 15 55 8 0 15 7 15 15 0 11 -12 15 -50 15
-32 0 -50 -4 -50 -12 0 -9 -3 -9 -12 0 -7 7 -29 12 -49 12 -42 0 -49 -10 -49
-74 0 -42 -1 -42 -30 -38 -33 5 -41 22 -10 22 13 0 20 7 20 20 0 13 -7 20 -20
20 -30 0 -24 18 7 22 14 2 28 9 31 16 3 9 -15 12 -66 12 l-70 0 -7 -37 -8 -38
-7 33 c-4 18 -10 36 -13 39 -13 13 -37 -8 -37 -32 0 -15 -4 -24 -10 -20 -5 3
-10 17 -10 31 0 17 -5 24 -20 24 -11 0 -20 -3 -20 -7z m340 -38 c0 -8 -7 -15
-15 -15 -8 0 -15 7 -15 15 0 8 7 15 15 15 8 0 15 -7 15 -15z"/>
<path d="M1030 860 c0 -63 2 -71 18 -68 9 2 18 13 20 26 5 32 42 30 42 -3 0
-16 6 -25 15 -25 12 0 15 14 15 70 0 56 -3 70 -15 70 -9 0 -15 -9 -15 -25 0
-33 -37 -35 -42 -3 -2 13 -11 24 -20 26 -16 3 -18 -5 -18 -68z"/>
<path d="M1150 860 l0 -70 70 1 c64 1 70 3 71 23 0 21 0 21 16 -1 8 -13 24
-23 34 -23 22 0 24 11 7 28 -10 10 -10 17 0 32 15 25 15 53 0 68 -8 8 -46 12
-105 12 l-93 0 0 -70z m100 0 c0 -38 -2 -40 -30 -40 -35 0 -41 17 -7 22 12 2
22 10 22 18 0 8 -10 16 -22 18 -34 5 -28 22 7 22 28 0 30 -2 30 -40z m70 25
c0 -8 -7 -15 -15 -15 -8 0 -15 7 -15 15 0 8 7 15 15 15 8 0 15 -7 15 -15z"/>
<path d="M562 738 c-13 -13 -16 -85 -6 -112 9 -22 89 -22 98 0 3 9 4 20 0 25
-7 12 -34 11 -34 -1 0 -5 -7 -10 -15 -10 -11 0 -15 11 -15 40 0 29 4 40 15 40
8 0 15 -4 15 -10 0 -13 27 -13 35 0 19 31 -65 56 -93 28z"/>
<path d="M670 680 c0 -56 3 -70 15 -70 9 0 15 9 15 25 0 18 5 25 20 25 15 0
20 -7 20 -25 0 -18 5 -25 20 -25 18 0 20 7 20 70 0 63 -2 70 -20 70 -16 0 -20
-7 -20 -31 0 -24 -4 -30 -17 -27 -11 2 -19 14 -21 31 -2 15 -9 27 -18 27 -11
0 -14 -16 -14 -70z"/>
<path d="M796 735 c-3 -9 -6 -41 -6 -71 0 -47 2 -54 20 -54 13 0 20 7 20 20 0
11 7 20 15 20 8 0 15 -9 15 -20 0 -13 7 -20 20 -20 19 0 21 5 18 68 l-3 67
-46 3 c-36 2 -48 -1 -53 -13z m64 -35 c0 -11 -7 -20 -15 -20 -8 0 -15 9 -15
20 0 11 7 20 15 20 8 0 15 -9 15 -20z"/>
<path d="M910 680 c0 -63 2 -70 20 -70 16 0 20 7 20 33 l0 32 21 -32 c12 -19
29 -33 40 -33 18 0 20 6 17 67 -2 54 -6 68 -20 71 -12 2 -17 -5 -20 -30 l-3
-33 -18 33 c-11 19 -25 32 -37 32 -18 0 -20 -7 -20 -70z"/>
<path d="M1040 680 c0 -54 3 -70 14 -70 9 0 16 12 18 33 l4 32 19 -32 c11 -18
28 -33 38 -33 15 0 17 10 17 70 0 54 -3 70 -14 70 -9 0 -16 -12 -18 -32 l-4
-33 -19 32 c-11 18 -28 33 -37 33 -16 0 -18 -10 -18 -70z"/>
<path d="M1170 680 l0 -70 45 0 c33 0 45 4 45 15 0 10 -10 15 -30 15 -16 0
-30 5 -30 10 0 6 11 10 25 10 31 0 34 27 3 32 -35 5 -34 28 1 28 21 0 31 5 31
15 0 11 -12 15 -45 15 l-45 0 0 -70z"/>
<path d="M1270 680 l0 -70 45 0 c33 0 45 4 45 15 0 10 -10 15 -30 15 -30 0
-30 1 -30 55 0 42 -3 55 -15 55 -12 0 -15 -14 -15 -70z"/>
</g>
</svg>
