<?xml version="1.0" standalone="no"?>
<!DOCTYPE svg PUBLIC "-//W3C//DTD SVG 20010904//EN"
 "http://www.w3.org/TR/2001/REC-SVG-20010904/DTD/svg10.dtd">
<svg version="1.0" xmlns="http://www.w3.org/2000/svg"
 width="192.000000pt" height="192.000000pt" viewBox="0 0 192.000000 192.000000"
 preserveAspectRatio="xMidYMid meet">
<metadata>
Created by potrace 1.16, written by Peter Selinger 2001-2019
</metadata>
<g transform="translate(0.000000,192.000000) scale(0.100000,-0.100000)"
fill="#000000" stroke="none">
811 c445 -92 729 -532 635 -987 -62 -301 -295 -546 -601 -630 -91 -26 -329
-26 -420 0 -291 80 -516 305 -596 596 -26 91 -26 329 0 420 120 433 542 692
982 601z"/>
<path d="M834 1349 c-102 -39 -176 -132 -194 -245 -14 -85 16 -124 47 -63 11
20 13 -17 13 -207 0 -209 2 -234 18 -254 25 -31 67 -29 101 4 34 32 45 32 83
1 44 -37 80 -33 132 15 46 43 69 48 100 25 11 -8 32 -15 47 -15 83 0 89 21 89
297 0 218 -1 230 -23 278 -30 64 -121 148 -183 169 -64 22 -167 20 -230 -5z
m166 -259 c39 -21 44 -114 9 -156 -17 -20 -63 -17 -83 5 -28 30 -31 90 -7 129
22 33 47 40 81 22z m210 -20 c39 -39 17 -140 -30 -140 -47 0 -68 97 -30 138
26 27 35 27 60 2z"/>
</g>
</svg>
