<?xml version="1.0" standalone="no"?>
<!DOCTYPE svg PUBLIC "-//W3C//DTD SVG 20010904//EN"
 "http://www.w3.org/TR/2001/REC-SVG-20010904/DTD/svg10.dtd">
<svg version="1.0" xmlns="http://www.w3.org/2000/svg"
 width="192.000000pt" height="192.000000pt" viewBox="0 0 192.000000 192.000000"
 preserveAspectRatio="xMidYMid meet">
<metadata>
Created by potrace 1.16, written by Peter Selinger 2001-2019
</metadata>
<g transform="translate(0.000000,192.000000) scale(0.100000,-0.100000)"
fill="#000000" stroke="none">
811 c445 -92 729 -532 635 -987 -62 -301 -295 -546 -601 -630 -91 -26 -329
-26 -420 0 -291 80 -516 305 -596 596 -26 91 -26 329 0 420 120 433 542 692
982 601z"/>
<path d="M640 1134 c-72 -31 -111 -88 -111 -162 -1 -79 31 -135 96 -170 43
-24 227 -24 272 0 28 16 34 16 60 3 15 -8 48 -15 73 -15 25 0 58 7 73 15 25
13 32 13 57 0 39 -20 115 -19 152 3 58 34 73 74 73 195 0 102 -1 110 -24 128
-30 24 -56 24 -81 -1 -17 -17 -20 -33 -20 -113 0 -110 -16 -140 -54 -101 -12
12 -16 37 -16 109 0 86 -2 95 -22 109 -30 21 -54 20 -78 -4 -17 -17 -20 -33
-20 -115 0 -80 -3 -96 -18 -104 -11 -6 -24 -6 -35 0 -14 8 -17 25 -17 104 0
82 -3 98 -20 115 -24 24 -48 25 -78 4 -20 -14 -22 -24 -22 -97 0 -118 -8 -127
-114 -127 -87 0 -116 13 -116 54 0 44 18 56 86 56 56 0 68 4 89 25 14 13 25
31 25 40 0 9 -11 27 -25 40 -21 21 -33 25 -87 25 -35 -1 -79 -8 -98 -16z"/>
</g>
</svg>
