<?xml version="1.0" standalone="no"?>
<!DOCTYPE svg PUBLIC "-//W3C//DTD SVG 20010904//EN"
 "http://www.w3.org/TR/2001/REC-SVG-20010904/DTD/svg10.dtd">
<svg version="1.0" xmlns="http://www.w3.org/2000/svg"
 width="192.000000pt" height="192.000000pt" viewBox="0 0 192.000000 192.000000"
 preserveAspectRatio="xMidYMid meet">
<metadata>
Created by potrace 1.16, written by Peter Selinger 2001-2019
</metadata>
<g transform="translate(0.000000,192.000000) scale(0.100000,-0.100000)"
fill="#000000" stroke="none">
811 c445 -92 729 -532 635 -987 -62 -301 -295 -546 -601 -630 -91 -26 -329
-26 -420 0 -291 80 -516 305 -596 596 -26 91 -26 329 0 420 120 433 542 692
982 601z"/>
<path d="M707 1325 c-50 -17 -85 -50 -108 -100 -16 -35 -19 -67 -19 -260 0
-192 3 -225 19 -260 22 -50 69 -91 119 -105 53 -14 425 -13 476 2 52 16 108
72 124 124 16 56 16 422 0 478 -16 52 -72 108 -124 124 -60 17 -436 16 -487
-3z m465 -55 c24 -7 48 -24 65 -47 27 -35 28 -42 31 -173 l4 -137 -78 -5 c-49
-3 -97 -12 -125 -25 l-46 -21 -31 24 c-34 27 -103 54 -137 54 -22 0 -35 17
-35 44 0 8 10 11 29 8 40 -6 75 30 67 66 -4 15 -11 45 -16 67 -4 22 -14 41
-21 44 -7 2 -25 17 -40 34 -21 23 -33 28 -52 23 -14 -3 -29 -15 -32 -26 -3
-11 -11 -20 -17 -20 -22 0 -48 -34 -48 -62 0 -16 -5 -38 -10 -48 -22 -40 31
-93 75 -76 11 4 15 -1 15 -19 0 -23 -4 -25 -49 -25 -27 0 -56 -3 -65 -6 -14
-5 -16 8 -16 105 0 148 22 198 96 221 41 12 392 12 436 0z"/>
<path d="M1056 1169 c-34 -27 -36 -77 -3 -107 49 -46 121 -14 121 53 0 67 -64
96 -118 54z"/>
</g>
</svg>
