<?xml version="1.0" standalone="no"?>
<!DOCTYPE svg PUBLIC "-//W3C//DTD SVG 20010904//EN"
 "http://www.w3.org/TR/2001/REC-SVG-20010904/DTD/svg10.dtd">
<svg version="1.0" xmlns="http://www.w3.org/2000/svg"
 width="192.000000pt" height="192.000000pt" viewBox="0 0 192.000000 192.000000"
 preserveAspectRatio="xMidYMid meet">
<metadata>
Created by potrace 1.16, written by Peter Selinger 2001-2019
</metadata>
<g transform="translate(0.000000,192.000000) scale(0.100000,-0.100000)"
fill="#000000" stroke="none">
811 c445 -92 729 -532 635 -987 -62 -301 -295 -546 -601 -630 -91 -26 -329
-26 -420 0 -291 80 -516 305 -596 596 -26 91 -26 329 0 420 120 433 542 692
982 601z"/>
<path d="M887 1370 c-218 -37 -374 -257 -336 -474 12 -74 41 -126 68 -126 11
0 43 20 73 46 l53 45 0 67 c0 49 6 76 20 100 25 41 281 236 301 228 25 -10 16
-27 -66 -123 -72 -86 -94 -123 -72 -123 4 0 52 38 107 85 55 47 105 83 110 82
26 -9 10 -42 -64 -130 -78 -91 -93 -117 -71 -117 6 0 53 36 104 80 93 80 126
96 126 63 0 -29 -191 -275 -230 -298 -26 -15 -51 -19 -97 -18 l-62 2 -45 -54
c-59 -68 -61 -100 -9 -121 147 -62 313 -30 434 83 248 232 119 648 -218 703
-64 11 -59 11 -126 0z"/>
</g>
</svg>
