<?xml version="1.0" standalone="no"?>
<!DOCTYPE svg PUBLIC "-//W3C//DTD SVG 20010904//EN"
 "http://www.w3.org/TR/2001/REC-SVG-20010904/DTD/svg10.dtd">
<svg version="1.0" xmlns="http://www.w3.org/2000/svg"
 width="192.000000pt" height="192.000000pt" viewBox="0 0 192.000000 192.000000"
 preserveAspectRatio="xMidYMid meet">
<metadata>
Created by potrace 1.16, written by Peter Selinger 2001-2019
</metadata>
<g transform="translate(0.000000,192.000000) scale(0.100000,-0.100000)"
fill="#000000" stroke="none">
810 c245 -63 441 -223 549 -451 55 -116 75 -212 75 -354 0 -141 -20 -238 -75
-352 -86 -182 -215 -312 -396 -398 -116 -55 -212 -75 -354 -75 -142 0 -238 20
-354 75 -228 108 -388 304 -451 549 -28 110 -28 292 0 402 76 298 303 526 600
603 106 28 298 28 406 1z"/>
<path d="M662 1288 c-8 -8 -12 -57 -12 -155 l0 -143 310 0 310 0 0 136 c0 74
-5 144 -10 155 -10 17 -23 19 -158 19 l-148 0 -34 -70 c-19 -38 -37 -70 -40
-70 -3 0 -21 32 -40 70 l-34 70 -66 0 c-38 0 -71 -5 -78 -12z"/>
<path d="M650 847 c0 -36 5 -68 12 -75 8 -8 48 -12 115 -12 l103 0 0 -89 c0
-74 3 -92 21 -115 27 -34 77 -36 107 -3 19 20 22 35 22 115 l0 92 110 0 c127
0 130 2 130 94 l0 56 -310 0 -310 0 0 -63z"/>
</g>
</svg>
