<?xml version="1.0" standalone="no"?>
<!DOCTYPE svg PUBLIC "-//W3C//DTD SVG 20010904//EN"
 "http://www.w3.org/TR/2001/REC-SVG-20010904/DTD/svg10.dtd">
<svg version="1.0" xmlns="http://www.w3.org/2000/svg"
 width="192.000000pt" height="192.000000pt" viewBox="0 0 192.000000 192.000000"
 preserveAspectRatio="xMidYMid meet">
<metadata>
Created by potrace 1.16, written by Peter Selinger 2001-2019
</metadata>
<g transform="translate(0.000000,192.000000) scale(0.100000,-0.100000)"
fill="#000000" stroke="none">
810 c245 -63 441 -223 549 -451 55 -116 75 -212 75 -354 0 -141 -20 -238 -75
-352 -86 -182 -215 -312 -396 -398 -116 -55 -212 -75 -354 -75 -142 0 -238 20
-354 75 -228 108 -388 304 -451 549 -28 110 -28 292 0 402 76 298 303 526 600
603 106 28 298 28 406 1z"/>
<path d="M663 1293 c-10 -3 -13 -44 -13 -154 l0 -149 310 0 310 0 0 136 c0 74
-5 144 -10 155 -10 17 -23 19 -158 19 l-148 0 -34 -70 c-19 -38 -37 -70 -40
-70 -3 0 -21 32 -40 70 l-34 70 -65 -1 c-36 0 -72 -3 -78 -6z"/>
<path d="M650 841 c0 -54 4 -70 16 -75 9 -3 60 -6 115 -6 l99 0 0 -93 c0 -85
2 -96 23 -115 32 -30 77 -29 107 3 21 22 24 38 28 115 l4 90 104 0 c120 0 124
3 124 94 l0 56 -310 0 -310 0 0 -69z"/>
</g>
</svg>
