<?xml version="1.0" standalone="no"?>
<!DOCTYPE svg PUBLIC "-//W3C//DTD SVG 20010904//EN"
 "http://www.w3.org/TR/2001/REC-SVG-20010904/DTD/svg10.dtd">
<svg version="1.0" xmlns="http://www.w3.org/2000/svg"
 width="192.000000pt" height="192.000000pt" viewBox="0 0 192.000000 192.000000"
 preserveAspectRatio="xMidYMid meet">
<metadata>
Created by potrace 1.16, written by Peter Selinger 2001-2019
</metadata>
<g transform="translate(0.000000,192.000000) scale(0.100000,-0.100000)"
fill="#000000" stroke="none">
810 c245 -63 441 -223 549 -451 55 -116 75 -212 75 -354 0 -141 -20 -238 -75
-352 -86 -182 -215 -312 -396 -398 -116 -55 -212 -75 -354 -75 -142 0 -238 20
-354 75 -228 108 -388 304 -451 549 -28 110 -28 292 0 402 76 298 303 526 600
603 106 28 298 28 406 1z"/>
<path d="M657 1293 c-4 -3 -7 -73 -7 -155 l0 -148 310 0 310 0 0 143 c0 98 -4
147 -12 155 -8 8 -58 12 -158 12 l-146 0 -34 -70 c-19 -38 -37 -70 -40 -70 -3
0 -21 32 -40 70 l-34 70 -71 0 c-40 0 -75 -3 -78 -7z"/>
<path d="M652 838 l3 -73 113 -3 112 -3 0 -93 c0 -84 2 -95 23 -114 25 -23 66
-28 97 -12 26 14 40 63 40 146 l0 74 103 0 c67 0 107 4 115 12 7 7 12 39 12
75 l0 63 -310 0 -311 0 3 -72z"/>
</g>
</svg>
