<?xml version="1.0" standalone="no"?>
<!DOCTYPE svg PUBLIC "-//W3C//DTD SVG 20010904//EN"
 "http://www.w3.org/TR/2001/REC-SVG-20010904/DTD/svg10.dtd">
<svg version="1.0" xmlns="http://www.w3.org/2000/svg"
 width="192.000000pt" height="192.000000pt" viewBox="0 0 192.000000 192.000000"
 preserveAspectRatio="xMidYMid meet">
<metadata>
Created by potrace 1.16, written by Peter Selinger 2001-2019
</metadata>
<g transform="translate(0.000000,192.000000) scale(0.100000,-0.100000)"
fill="#000000" stroke="none">
811 c445 -92 729 -532 635 -987 -62 -301 -295 -546 -601 -630 -91 -26 -329
-26 -420 0 -291 80 -516 305 -596 596 -26 91 -26 329 0 420 120 433 542 692
982 601z"/>
<path d="M894 1326 c-160 -37 -254 -136 -254 -268 0 -88 43 -121 200 -157 115
-26 140 -41 140 -81 0 -44 -32 -72 -78 -68 -35 3 -37 5 -40 43 -4 59 -19 65
-148 65 -77 0 -115 -4 -122 -12 -5 -7 -19 -47 -31 -88 -27 -97 -19 -111 82
-142 96 -30 318 -33 412 -5 129 39 209 121 236 243 10 45 9 57 -7 90 -27 54
-70 79 -182 104 -53 13 -109 29 -124 36 -55 28 -22 99 43 92 27 -2 34 -8 41
-33 12 -47 32 -55 139 -55 115 0 130 9 153 89 23 79 10 100 -79 130 -89 30
-286 38 -381 17z"/>
</g>
</svg>
