<?xml version="1.0" standalone="no"?>
<!DOCTYPE svg PUBLIC "-//W3C//DTD SVG 20010904//EN"
 "http://www.w3.org/TR/2001/REC-SVG-20010904/DTD/svg10.dtd">
<svg version="1.0" xmlns="http://www.w3.org/2000/svg"
 width="192.000000pt" height="192.000000pt" viewBox="0 0 192.000000 192.000000"
 preserveAspectRatio="xMidYMid meet">
<metadata>
Created by potrace 1.16, written by Peter Selinger 2001-2019
</metadata>
<g transform="translate(0.000000,192.000000) scale(0.100000,-0.100000)"
fill="#000000" stroke="none">
811 c445 -92 729 -532 635 -987 -62 -301 -295 -546 -601 -630 -91 -26 -329
-26 -420 0 -291 80 -516 305 -596 596 -26 91 -26 329 0 420 120 433 542 692
982 601z"/>
<path d="M916 1370 c-42 -13 -61 -34 -136 -155 -101 -161 -144 -257 -148 -330
-7 -118 64 -237 176 -292 50 -24 69 -28 147 -28 78 0 97 4 147 28 113 55 183
174 176 294 -3 50 -14 82 -56 165 -64 128 -163 282 -194 301 -32 20 -77 27
-112 17z m312 -503 c6 -51 -28 -128 -79 -179 -53 -53 -91 -63 -109 -27 -10 18
-5 27 44 73 41 40 56 62 62 92 10 60 22 76 52 72 21 -2 28 -9 30 -31z"/>
</g>
</svg>
