<?xml version="1.0" standalone="no"?>
<!DOCTYPE svg PUBLIC "-//W3C//DTD SVG 20010904//EN"
 "http://www.w3.org/TR/2001/REC-SVG-20010904/DTD/svg10.dtd">
<svg version="1.0" xmlns="http://www.w3.org/2000/svg"
 width="192.000000pt" height="192.000000pt" viewBox="0 0 192.000000 192.000000"
 preserveAspectRatio="xMidYMid meet">
<metadata>
Created by potrace 1.16, written by Peter Selinger 2001-2019
</metadata>
<g transform="translate(0.000000,192.000000) scale(0.100000,-0.100000)"
fill="#000000" stroke="none">
811 c445 -92 729 -532 635 -987 -62 -301 -295 -546 -601 -630 -91 -26 -329
-26 -420 0 -291 80 -516 305 -596 596 -26 91 -26 329 0 420 120 433 542 692
982 601z"/>
<path d="M615 1345 c-15 -15 -25 -36 -25 -54 0 -78 29 -91 210 -91 l140 0 0
-50 0 -50 -150 0 c-147 0 -152 -1 -175 -25 -47 -46 -37 -67 106 -246 72 -90
141 -169 152 -176 12 -7 57 -12 100 -13 74 0 80 2 108 29 29 29 29 31 29 145
0 109 1 116 20 116 19 0 20 -7 20 -156 l0 -156 29 -29 c38 -38 74 -38 112 0
l29 29 0 207 c0 267 -3 274 -132 275 l-78 0 0 55 0 55 74 0 c90 0 103 4 122
41 18 36 10 73 -23 99 -24 19 -42 20 -335 20 l-309 0 -24 -25z m325 -457 l-1
-53 -39 45 c-22 25 -40 48 -40 53 0 4 18 7 40 7 l40 0 0 -52z"/>
</g>
</svg>
