<?xml version="1.0" standalone="no"?>
<!DOCTYPE svg PUBLIC "-//W3C//DTD SVG 20010904//EN"
 "http://www.w3.org/TR/2001/REC-SVG-20010904/DTD/svg10.dtd">
<svg version="1.0" xmlns="http://www.w3.org/2000/svg"
 width="192.000000pt" height="192.000000pt" viewBox="0 0 192.000000 192.000000"
 preserveAspectRatio="xMidYMid meet">
<metadata>
Created by potrace 1.16, written by Peter Selinger 2001-2019
</metadata>
<g transform="translate(0.000000,192.000000) scale(0.100000,-0.100000)"
fill="#000000" stroke="none">
811 c445 -92 729 -532 635 -987 -62 -301 -295 -546 -601 -630 -91 -26 -329
-26 -420 0 -291 80 -516 305 -596 596 -26 91 -26 329 0 420 120 433 542 692
982 601z"/>
<path d="M851 1364 c-266 -71 -392 -375 -254 -611 63 -107 190 -189 315 -200
75 -7 116 2 170 37 75 50 117 150 98 235 -6 27 -6 62 -1 92 44 231 -243 374
-397 198 -72 -81 -7 -147 68 -70 78 81 200 58 229 -42 l9 -31 -41 19 c-122 55
-277 -13 -277 -122 0 -35 37 -88 80 -113 46 -27 150 -29 199 -3 19 9 35 16 37
14 10 -10 -39 -88 -65 -101 -39 -21 -115 -20 -177 1 -71 24 -164 120 -187 192
-49 155 18 318 161 388 77 38 191 39 267 3 100 -49 168 -145 181 -255 8 -66
36 -95 73 -75 29 15 35 51 22 118 -33 168 -165 301 -330 332 -71 13 -114 12
-180 -6z m170 -469 c34 -18 31 -28 -13 -51 -50 -26 -138 -6 -138 31 0 32 100
46 151 20z"/>
</g>
</svg>
