<?xml version="1.0" standalone="no"?>
<!DOCTYPE svg PUBLIC "-//W3C//DTD SVG 20010904//EN"
 "http://www.w3.org/TR/2001/REC-SVG-20010904/DTD/svg10.dtd">
<svg version="1.0" xmlns="http://www.w3.org/2000/svg"
 width="192.000000pt" height="192.000000pt" viewBox="0 0 192.000000 192.000000"
 preserveAspectRatio="xMidYMid meet">
<metadata>
Created by potrace 1.16, written by Peter Selinger 2001-2019
</metadata>
<g transform="translate(0.000000,192.000000) scale(0.100000,-0.100000)"
fill="#000000" stroke="none">
811 c445 -92 729 -532 635 -987 -62 -301 -295 -546 -601 -630 -91 -26 -329
-26 -420 0 -291 80 -516 305 -596 596 -26 91 -26 329 0 420 120 433 542 692
982 601z"/>
<path d="M870 1369 c-198 -39 -343 -232 -327 -437 16 -208 197 -381 402 -382
65 0 114 19 161 62 65 60 74 95 71 279 -2 151 -3 157 -30 197 -43 65 -97 96
-178 100 -55 3 -77 0 -113 -18 -80 -38 -128 -114 -94 -148 21 -21 50 -13 93
27 54 50 100 60 151 35 39 -20 68 -53 79 -91 l6 -23 -43 20 c-120 55 -273 -12
-273 -120 0 -78 76 -135 180 -134 38 0 72 6 93 18 19 9 36 15 39 13 11 -11
-32 -81 -61 -98 -70 -43 -211 -11 -289 64 -63 62 -91 126 -95 218 -4 67 0 85
23 138 17 37 46 78 74 104 190 178 499 63 528 -196 7 -63 17 -77 54 -77 43 0
53 28 39 107 -30 176 -162 310 -334 342 -68 12 -92 12 -156 0z m150 -474 c39
-20 38 -29 -4 -49 -61 -29 -146 -12 -146 29 0 35 97 47 150 20z"/>
</g>
</svg>
