<?xml version="1.0" standalone="no"?>
<!DOCTYPE svg PUBLIC "-//W3C//DTD SVG 20010904//EN"
 "http://www.w3.org/TR/2001/REC-SVG-20010904/DTD/svg10.dtd">
<svg version="1.0" xmlns="http://www.w3.org/2000/svg"
 width="192.000000pt" height="192.000000pt" viewBox="0 0 192.000000 192.000000"
 preserveAspectRatio="xMidYMid meet">
<metadata>
Created by potrace 1.16, written by Peter Selinger 2001-2019
</metadata>
<g transform="translate(0.000000,192.000000) scale(0.100000,-0.100000)"
fill="#000000" stroke="none">
811 c445 -92 729 -532 635 -987 -62 -301 -295 -546 -601 -630 -91 -26 -329
-26 -420 0 -291 80 -516 305 -596 596 -26 91 -26 329 0 420 120 433 542 692
982 601z"/>
<path d="M870 1366 c-81 -17 -149 -54 -206 -111 -203 -203 -142 -543 119 -666
123 -57 240 -49 321 23 66 58 76 94 73 274 -2 148 -2 151 -32 199 -79 128
-270 142 -365 27 -32 -39 -38 -70 -18 -90 20 -20 54 -13 81 18 73 81 173 76
227 -13 30 -49 26 -61 -12 -41 -18 9 -59 19 -93 21 -104 8 -191 -55 -189 -137
2 -51 24 -85 77 -112 53 -28 146 -30 195 -4 19 10 36 15 39 13 11 -12 -29 -79
-59 -97 -44 -28 -153 -24 -216 9 -103 53 -163 145 -170 262 -6 100 14 162 75
229 91 102 225 136 348 89 108 -41 205 -168 205 -270 0 -46 16 -69 50 -69 42
0 53 26 41 101 -30 182 -167 320 -347 349 -70 12 -74 12 -144 -4z m158 -472
c29 -19 28 -26 -7 -47 -55 -33 -155 -14 -149 27 6 42 101 54 156 20z"/>
</g>
</svg>
