<?xml version="1.0" standalone="no"?>
<!DOCTYPE svg PUBLIC "-//W3C//DTD SVG 20010904//EN"
 "http://www.w3.org/TR/2001/REC-SVG-20010904/DTD/svg10.dtd">
<svg version="1.0" xmlns="http://www.w3.org/2000/svg"
 width="192.000000pt" height="192.000000pt" viewBox="0 0 192.000000 192.000000"
 preserveAspectRatio="xMidYMid meet">
<metadata>
Created by potrace 1.16, written by Peter Selinger 2001-2019
</metadata>
<g transform="translate(0.000000,192.000000) scale(0.100000,-0.100000)"
fill="#000000" stroke="none">
811 c445 -92 729 -532 635 -987 -62 -301 -295 -546 -601 -630 -91 -26 -329
-26 -420 0 -291 80 -516 305 -596 596 -26 91 -26 329 0 420 120 433 542 692
982 601z"/>
<path d="M878 1370 c-123 -21 -241 -111 -299 -228 -28 -57 -34 -80 -37 -157
-3 -76 0 -100 19 -150 12 -33 24 -89 27 -125 5 -86 18 -100 93 -100 35 0 75
-8 105 -20 205 -88 451 5 547 208 29 61 32 75 32 168 0 95 -2 103 -37 176 -60
119 -157 196 -284 223 -75 16 -96 17 -166 5z m142 -205 c34 -17 60 -62 60
-101 0 -16 10 -34 25 -46 24 -19 25 -24 25 -128 0 -142 3 -140 -175 -140 -178
0 -175 -2 -175 140 0 102 1 110 23 127 15 11 26 34 30 58 9 57 62 105 117 105
23 0 54 -7 70 -15z"/>
<path d="M922 1125 c-31 -14 -42 -32 -42 -71 0 -23 2 -24 81 -24 l82 0 -7 32
c-12 61 -58 86 -114 63z"/>
</g>
</svg>
