<?xml version="1.0" standalone="no"?>
<!DOCTYPE svg PUBLIC "-//W3C//DTD SVG 20010904//EN"
 "http://www.w3.org/TR/2001/REC-SVG-20010904/DTD/svg10.dtd">
<svg version="1.0" xmlns="http://www.w3.org/2000/svg"
 width="192.000000pt" height="192.000000pt" viewBox="0 0 192.000000 192.000000"
 preserveAspectRatio="xMidYMid meet">
<metadata>
Created by potrace 1.16, written by Peter Selinger 2001-2019
</metadata>
<g transform="translate(0.000000,192.000000) scale(0.100000,-0.100000)"
fill="#000000" stroke="none">
811 c445 -92 729 -532 635 -987 -62 -301 -295 -546 -601 -630 -91 -26 -329
-26 -420 0 -291 80 -516 305 -596 596 -26 91 -26 329 0 420 120 433 542 692
982 601z"/>
<path d="M860 1389 c-121 -24 -239 -118 -298 -238 -36 -74 -37 -79 -37 -186 0
-107 1 -112 37 -186 109 -222 369 -309 590 -198 165 83 262 276 229 454 -45
247 -274 402 -521 354z m225 -130 c209 -99 250 -378 77 -530 -66 -57 -140 -82
-232 -77 -166 10 -287 130 -298 294 -10 153 71 275 218 328 63 23 170 16 235
-15z"/>
<path d="M854 1196 c-159 -70 -200 -278 -78 -400 50 -49 102 -70 174 -70 226
-1 333 276 164 424 -21 18 -52 39 -70 46 -42 18 -149 17 -190 0z m116 -81 c21
-25 7 -49 -40 -65 -39 -14 -46 -21 -60 -60 -14 -40 -19 -45 -45 -45 -28 0 -30
3 -33 40 -3 49 24 97 70 125 39 23 91 26 108 5z"/>
</g>
</svg>
