<?xml version="1.0" standalone="no"?>
<!DOCTYPE svg PUBLIC "-//W3C//DTD SVG 20010904//EN"
 "http://www.w3.org/TR/2001/REC-SVG-20010904/DTD/svg10.dtd">
<svg version="1.0" xmlns="http://www.w3.org/2000/svg"
 width="192.000000pt" height="192.000000pt" viewBox="0 0 192.000000 192.000000"
 preserveAspectRatio="xMidYMid meet">
<metadata>
Created by potrace 1.16, written by Peter Selinger 2001-2019
</metadata>
<g transform="translate(0.000000,192.000000) scale(0.100000,-0.100000)"
fill="#000000" stroke="none">
811 c445 -92 729 -532 635 -987 -62 -301 -295 -546 -601 -630 -91 -26 -329
-26 -420 0 -291 80 -516 305 -596 596 -26 91 -26 329 0 420 120 433 542 692
982 601z"/>
<path d="M673 1370 c-65 -21 -92 -95 -58 -159 18 -36 35 -43 117 -50 l66 -6
-58 -127 c-34 -74 -56 -135 -53 -146 8 -32 47 -43 124 -36 38 4 69 5 69 3 0
-2 -17 -60 -39 -129 -40 -130 -40 -160 -1 -160 27 0 360 374 360 404 0 37 -19
46 -97 46 -52 0 -73 4 -73 13 0 6 15 39 33 72 l32 60 77 5 c67 4 81 9 104 31
16 16 28 41 31 66 5 36 1 45 -28 77 l-34 37 -270 4 c-166 3 -282 1 -302 -5z"/>
</g>
</svg>
