<?xml version="1.0" standalone="no"?>
<!DOCTYPE svg PUBLIC "-//W3C//DTD SVG 20010904//EN"
 "http://www.w3.org/TR/2001/REC-SVG-20010904/DTD/svg10.dtd">
<svg version="1.0" xmlns="http://www.w3.org/2000/svg"
 width="192.000000pt" height="192.000000pt" viewBox="0 0 192.000000 192.000000"
 preserveAspectRatio="xMidYMid meet">
<metadata>
Created by potrace 1.16, written by Peter Selinger 2001-2019
</metadata>
<g transform="translate(0.000000,192.000000) scale(0.100000,-0.100000)"
fill="#000000" stroke="none">
811 c445 -92 729 -532 635 -987 -62 -301 -295 -546 -601 -630 -91 -26 -329
-26 -420 0 -291 80 -516 305 -596 596 -26 91 -26 329 0 420 120 433 542 692
982 601z"/>
<path d="M695 1321 c-67 -31 -115 -102 -115 -171 l0 -30 313 -2 312 -3 0 -150
0 -150 -312 -3 -313 -2 0 -30 c0 -69 48 -140 115 -171 35 -16 68 -19 261 -19
212 0 223 1 265 23 24 13 58 43 74 66 l30 43 0 243 0 243 -30 43 c-16 23 -50
53 -74 66 -42 22 -53 23 -265 23 -193 0 -226 -3 -261 -19z"/>
<path d="M794 1008 c14 -24 36 -63 49 -87 l25 -43 41 70 c64 110 67 102 -43
102 l-97 0 25 -42z"/>
<path d="M1017 1018 c-8 -18 -30 -57 -47 -85 l-30 -53 99 0 100 0 -45 78 c-25
42 -49 80 -53 85 -4 4 -15 -7 -24 -25z"/>
<path d="M580 965 l0 -46 63 3 62 3 0 40 0 40 -62 3 -63 3 0 -46z"/>
</g>
</svg>
