<?xml version="1.0" standalone="no"?>
<!DOCTYPE svg PUBLIC "-//W3C//DTD SVG 20010904//EN"
 "http://www.w3.org/TR/2001/REC-SVG-20010904/DTD/svg10.dtd">
<svg version="1.0" xmlns="http://www.w3.org/2000/svg"
 width="192.000000pt" height="192.000000pt" viewBox="0 0 192.000000 192.000000"
 preserveAspectRatio="xMidYMid meet">
<metadata>
Created by potrace 1.16, written by Peter Selinger 2001-2019
</metadata>
<g transform="translate(0.000000,192.000000) scale(0.100000,-0.100000)"
fill="#000000" stroke="none">
810 c245 -63 441 -223 549 -451 55 -116 75 -212 75 -354 0 -141 -20 -238 -75
-352 -86 -182 -215 -312 -396 -398 -116 -55 -212 -75 -354 -75 -142 0 -238 20
-354 75 -228 108 -388 304 -451 549 -28 110 -28 292 0 402 76 298 303 526 600
603 106 28 298 28 406 1z"/>
<path d="M915 1288 c-60 -55 -66 -65 -61 -91 6 -28 5 -29 -23 -24 -26 5 -39
-5 -150 -117 -109 -111 -121 -126 -121 -158 0 -47 59 -104 93 -91 12 4 39 8
61 7 30 0 44 -7 64 -29 22 -26 24 -35 18 -86 -5 -56 -5 -58 30 -88 63 -56 79
-49 224 95 101 100 127 130 122 146 -4 18 -2 20 16 16 17 -5 38 9 92 60 63 60
70 71 70 105 0 30 -7 46 -30 69 -29 28 -34 30 -85 23 -96 -12 -141 32 -129
125 6 44 4 51 -21 74 -20 19 -39 26 -66 26 -33 0 -47 -8 -104 -62z m-5 -143
c10 -12 10 -19 2 -27 -13 -13 -42 6 -42 28 0 19 24 18 40 -1z m60 -60 c10 -12
10 -19 2 -27 -13 -13 -42 6 -42 28 0 19 24 18 40 -1z m60 -60 c6 -8 9 -19 5
-25 -9 -14 -45 6 -45 25 0 19 24 19 40 0z m55 -55 c21 -23 12 -39 -13 -24 -19
12 -29 44 -14 44 5 0 17 -9 27 -20z m65 -55 c10 -12 10 -19 2 -27 -13 -13 -42
6 -42 28 0 19 24 18 40 -1z"/>
</g>
</svg>
