<?xml version="1.0" standalone="no"?>
<!DOCTYPE svg PUBLIC "-//W3C//DTD SVG 20010904//EN"
 "http://www.w3.org/TR/2001/REC-SVG-20010904/DTD/svg10.dtd">
<svg version="1.0" xmlns="http://www.w3.org/2000/svg"
 width="192.000000pt" height="192.000000pt" viewBox="0 0 192.000000 192.000000"
 preserveAspectRatio="xMidYMid meet">
<metadata>
Created by potrace 1.16, written by Peter Selinger 2001-2019
</metadata>
<g transform="translate(0.000000,192.000000) scale(0.100000,-0.100000)"
fill="#000000" stroke="none">
811 c445 -92 729 -532 635 -987 -62 -301 -295 -546 -601 -630 -91 -26 -329
-26 -420 0 -291 80 -516 305 -596 596 -26 91 -26 329 0 420 120 433 542 692
982 601z"/>
<path d="M597 1142 c-37 -37 -67 -72 -67 -78 0 -12 133 -144 145 -144 4 0 37
29 74 65 l67 64 62 -62 62 -63 -65 -64 c-36 -35 -65 -69 -65 -75 0 -13 132
-145 146 -145 5 0 40 31 78 69 79 79 79 75 -8 161 l-56 54 62 63 62 62 67 -64
c37 -36 71 -65 76 -65 12 0 143 133 143 146 0 13 -132 144 -146 144 -5 0 -39
-29 -74 -65 l-64 -65 -66 65 c-36 36 -70 65 -76 65 -5 0 -39 -29 -74 -65 l-64
-65 -66 65 c-36 36 -70 65 -76 65 -5 0 -40 -30 -77 -68z"/>
</g>
</svg>
