<?xml version="1.0" standalone="no"?>
<!DOCTYPE svg PUBLIC "-//W3C//DTD SVG 20010904//EN"
 "http://www.w3.org/TR/2001/REC-SVG-20010904/DTD/svg10.dtd">
<svg version="1.0" xmlns="http://www.w3.org/2000/svg"
 width="192.000000pt" height="192.000000pt" viewBox="0 0 192.000000 192.000000"
 preserveAspectRatio="xMidYMid meet">
<metadata>
Created by potrace 1.16, written by Peter Selinger 2001-2019
</metadata>
<g transform="translate(0.000000,192.000000) scale(0.100000,-0.100000)"
fill="#000000" stroke="none">
811 c445 -92 729 -532 635 -987 -62 -301 -295 -546 -601 -630 -91 -26 -329
-26 -420 0 -291 80 -516 305 -596 596 -26 91 -26 329 0 420 120 433 542 692
982 601z"/>
<path d="M822 1361 c-74 -27 -112 -53 -166 -111 -117 -125 -146 -313 -72 -464
140 -286 531 -315 707 -52 55 82 72 149 67 257 -4 76 -9 97 -41 162 -44 90
-103 147 -195 190 -88 41 -217 49 -300 18z m221 -127 c57 -19 131 -83 159
-138 29 -57 35 -159 14 -223 -37 -112 -145 -188 -265 -186 -138 1 -241 89
-272 232 -43 203 164 383 364 315z"/>
<path d="M865 1153 c-81 -42 -121 -115 -113 -207 15 -177 232 -248 352 -116
120 133 26 341 -155 340 -30 -1 -67 -8 -84 -17z"/>
</g>
</svg>
