<?xml version="1.0" standalone="no"?>
<!DOCTYPE svg PUBLIC "-//W3C//DTD SVG 20010904//EN"
 "http://www.w3.org/TR/2001/REC-SVG-20010904/DTD/svg10.dtd">
<svg version="1.0" xmlns="http://www.w3.org/2000/svg"
 width="192.000000pt" height="192.000000pt" viewBox="0 0 192.000000 192.000000"
 preserveAspectRatio="xMidYMid meet">
<metadata>
Created by potrace 1.16, written by Peter Selinger 2001-2019
</metadata>
<g transform="translate(0.000000,192.000000) scale(0.100000,-0.100000)"
fill="#000000" stroke="none">
811 c445 -92 729 -532 635 -987 -62 -301 -295 -546 -601 -630 -91 -26 -329
-26 -420 0 -291 80 -516 305 -596 596 -26 91 -26 329 0 420 120 433 542 692
982 601z"/>
<path d="M880 1342 c-28 -15 -63 -64 -178 -248 -78 -126 -147 -245 -153 -264
-23 -77 31 -168 112 -190 26 -7 140 -10 317 -8 307 3 317 5 364 70 17 25 23
46 23 88 0 53 -4 62 -145 290 -102 165 -155 241 -179 257 -42 29 -112 31 -161
5z m185 -344 c55 -89 101 -168 103 -175 3 -10 -39 -13 -212 -13 -119 0 -216 3
-216 7 0 6 77 133 177 291 18 28 36 52 40 52 5 0 53 -73 108 -162z"/>
</g>
</svg>
