<?xml version="1.0" standalone="no"?>
<!DOCTYPE svg PUBLIC "-//W3C//DTD SVG 20010904//EN"
 "http://www.w3.org/TR/2001/REC-SVG-20010904/DTD/svg10.dtd">
<svg version="1.0" xmlns="http://www.w3.org/2000/svg"
 width="192.000000pt" height="192.000000pt" viewBox="0 0 192.000000 192.000000"
 preserveAspectRatio="xMidYMid meet">
<metadata>
Created by potrace 1.16, written by Peter Selinger 2001-2019
</metadata>
<g transform="translate(0.000000,192.000000) scale(0.100000,-0.100000)"
fill="#000000" stroke="none">
810 c245 -63 441 -223 549 -451 55 -116 75 -212 75 -354 0 -141 -20 -238 -75
-352 -86 -182 -215 -312 -396 -398 -116 -55 -212 -75 -354 -75 -142 0 -238 20
-354 75 -228 108 -388 304 -451 549 -28 110 -28 292 0 402 76 298 303 526 600
603 106 28 298 28 406 1z"/>
<path d="M825 1352 c-116 -40 -199 -113 -252 -221 -25 -51 -28 -66 -28 -166 0
-102 2 -114 30 -170 82 -162 272 -259 447 -227 141 26 271 127 319 249 33 83
34 227 1 298 -36 79 -73 125 -135 172 -106 78 -266 105 -382 65z m44 -218 c12
-15 21 -32 21 -39 0 -7 -9 -24 -21 -39 -40 -51 -119 -25 -119 40 0 62 80 88
119 38z m271 6 c24 -24 26 -57 4 -88 -20 -29 -76 -30 -104 -2 -41 41 -10 110
50 110 17 0 39 -9 50 -20z m1 -286 c18 -21 -6 -59 -60 -99 -53 -37 -148 -47
-216 -21 -71 27 -132 113 -92 129 6 3 89 6 183 6 145 1 174 -1 185 -15z"/>
</g>
</svg>
