<?xml version="1.0" standalone="no"?>
<!DOCTYPE svg PUBLIC "-//W3C//DTD SVG 20010904//EN"
 "http://www.w3.org/TR/2001/REC-SVG-20010904/DTD/svg10.dtd">
<svg version="1.0" xmlns="http://www.w3.org/2000/svg"
 width="192.000000pt" height="192.000000pt" viewBox="0 0 192.000000 192.000000"
 preserveAspectRatio="xMidYMid meet">
<metadata>
Created by potrace 1.16, written by Peter Selinger 2001-2019
</metadata>
<g transform="translate(0.000000,192.000000) scale(0.100000,-0.100000)"
fill="#000000" stroke="none">
811 c445 -92 729 -532 635 -987 -62 -301 -295 -546 -601 -630 -91 -26 -329
-26 -420 0 -291 80 -516 305 -596 596 -26 91 -26 329 0 420 120 433 542 692
982 601z"/>
<path d="M714 1361 c-45 -21 -85 -67 -103 -120 -14 -44 -15 -501 0 -554 12
-44 59 -102 102 -124 38 -19 113 -22 153 -5 l32 13 -27 47 c-26 46 -26 51 -29
264 l-3 218 25 25 c54 54 131 19 142 -66 l7 -49 42 0 c30 0 47 -6 62 -22 55
-60 15 -148 -67 -148 l-40 0 0 -64 c0 -53 4 -70 23 -90 l22 -26 122 71 c67 38
135 85 152 104 61 69 63 160 8 242 -28 41 -57 61 -252 172 -197 112 -225 125
-275 128 -39 3 -67 -2 -96 -16z"/>
</g>
</svg>
