<?xml version="1.0" standalone="no"?>
<!DOCTYPE svg PUBLIC "-//W3C//DTD SVG 20010904//EN"
 "http://www.w3.org/TR/2001/REC-SVG-20010904/DTD/svg10.dtd">
<svg version="1.0" xmlns="http://www.w3.org/2000/svg"
 width="192.000000pt" height="192.000000pt" viewBox="0 0 192.000000 192.000000"
 preserveAspectRatio="xMidYMid meet">
<metadata>
Created by potrace 1.16, written by Peter Selinger 2001-2019
</metadata>
<g transform="translate(0.000000,192.000000) scale(0.100000,-0.100000)"
fill="#000000" stroke="none">
811 c445 -92 729 -532 635 -987 -62 -301 -295 -546 -601 -630 -91 -26 -329
-26 -420 0 -291 80 -516 305 -596 596 -26 91 -26 329 0 420 120 433 542 692
982 601z"/>
<path d="M1008 1373 c-51 -8 -53 -15 -58 -320 l-5 -284 -25 -19 c-50 -39 -129
-17 -148 40 -20 57 15 115 77 126 54 10 61 20 61 85 0 90 -25 104 -131 73
-101 -30 -189 -148 -189 -254 0 -135 125 -260 259 -260 114 0 191 45 245 140
29 52 30 59 34 206 l4 151 49 -18 c92 -35 126 -23 136 48 8 62 -9 89 -66 108
-56 18 -105 67 -116 113 -11 51 -57 74 -127 65z"/>
</g>
</svg>
