<?xml version="1.0" standalone="no"?>
<!DOCTYPE svg PUBLIC "-//W3C//DTD SVG 20010904//EN"
 "http://www.w3.org/TR/2001/REC-SVG-20010904/DTD/svg10.dtd">
<svg version="1.0" xmlns="http://www.w3.org/2000/svg"
 width="192.000000pt" height="192.000000pt" viewBox="0 0 192.000000 192.000000"
 preserveAspectRatio="xMidYMid meet">
<metadata>
Created by potrace 1.16, written by Peter Selinger 2001-2019
</metadata>
<g transform="translate(0.000000,192.000000) scale(0.100000,-0.100000)"
fill="#000000" stroke="none">
811 c445 -92 729 -532 635 -987 -62 -301 -295 -546 -601 -630 -91 -26 -329
-26 -420 0 -291 80 -516 305 -596 596 -26 91 -26 329 0 420 120 433 542 692
982 601z"/>
<path d="M806 1177 c-38 -27 2 -95 42 -71 24 16 28 55 6 71 -10 7 -21 13 -24
13 -3 0 -14 -6 -24 -13z"/>
<path d="M927 1177 c-16 -11 -17 -33 -15 -216 3 -181 5 -205 21 -215 12 -8 22
-8 35 0 15 10 17 34 20 215 2 183 1 205 -15 216 -9 7 -20 13 -23 13 -3 0 -14
-6 -23 -13z"/>
<path d="M563 1173 c-20 -7 -18 -295 1 -332 25 -48 81 -89 132 -97 52 -7 66 3
62 46 -3 20 -10 26 -41 31 -20 3 -49 16 -62 29 -22 21 -25 32 -25 91 l0 68 63
3 62 3 0 35 0 35 -61 3 -62 3 -6 38 c-7 44 -28 59 -63 44z"/>
<path d="M1134 1079 c-17 -5 -46 -24 -66 -43 -78 -76 -66 -209 26 -265 44 -27
98 -35 141 -21 42 14 105 65 105 86 0 19 -79 18 -104 -1 -44 -33 -136 2 -136
51 0 2 56 4 125 4 139 0 143 2 131 65 -9 45 -50 93 -101 116 -43 20 -73 22
-121 8z m104 -85 c38 -26 25 -34 -55 -34 l-78 1 28 24 c32 29 72 32 105 9z"/>
<path d="M795 1068 c-3 -8 -4 -81 -3 -162 3 -129 5 -150 21 -160 12 -8 22 -8
35 0 15 10 17 30 17 170 l0 159 -33 3 c-20 2 -34 -2 -37 -10z"/>
</g>
</svg>
