<?xml version="1.0" standalone="no"?>
<!DOCTYPE svg PUBLIC "-//W3C//DTD SVG 20010904//EN"
 "http://www.w3.org/TR/2001/REC-SVG-20010904/DTD/svg10.dtd">
<svg version="1.0" xmlns="http://www.w3.org/2000/svg"
 width="192.000000pt" height="192.000000pt" viewBox="0 0 192.000000 192.000000"
 preserveAspectRatio="xMidYMid meet">
<metadata>
Created by potrace 1.16, written by Peter Selinger 2001-2019
</metadata>
<g transform="translate(0.000000,192.000000) scale(0.100000,-0.100000)"
fill="#000000" stroke="none">
811 c445 -92 729 -532 635 -987 -62 -301 -295 -546 -601 -630 -91 -26 -329
-26 -420 0 -291 80 -516 305 -596 596 -26 91 -26 329 0 420 120 433 542 692
982 601z"/>
<path d="M590 1330 c-25 -25 -34 -61 -27 -112 7 -52 33 -78 85 -85 51 -7 87 2
112 27 31 31 29 138 -3 168 -32 30 -137 32 -167 2z"/>
<path d="M872 1330 c-46 -44 -35 -160 18 -187 32 -16 98 -16 130 0 33 16 55
81 46 130 -11 58 -39 77 -111 77 -47 0 -66 -5 -83 -20z"/>
<path d="M1152 1327 c-30 -32 -32 -137 -2 -167 25 -25 61 -34 112 -27 52 7 78
33 85 85 7 51 -2 87 -27 112 -31 31 -138 29 -168 -3z"/>
<path d="M596 1059 c-45 -40 -49 -136 -6 -179 16 -16 34 -20 83 -20 86 0 107
21 107 107 0 85 -18 105 -97 111 -52 4 -63 1 -87 -19z"/>
<path d="M893 1070 c-56 -23 -69 -136 -22 -186 19 -20 32 -24 84 -24 52 0 65
4 84 24 49 52 33 164 -25 186 -31 12 -91 12 -121 0z"/>
<path d="M1173 1070 c-32 -13 -43 -41 -43 -108 0 -81 22 -102 108 -102 48 0
66 4 82 20 42 42 39 139 -5 177 -28 24 -98 31 -142 13z"/>
<path d="M610 787 c-48 -24 -66 -108 -35 -166 18 -35 32 -41 104 -41 78 0 101
23 101 102 0 31 -3 64 -6 73 -15 39 -112 58 -164 32z"/>
<path d="M890 787 c-53 -27 -64 -143 -18 -187 31 -29 135 -29 166 0 29 28 38
85 21 134 -16 47 -46 66 -104 66 -22 0 -51 -6 -65 -13z"/>
<path d="M1175 789 c-36 -21 -45 -42 -45 -104 0 -84 21 -105 108 -105 68 0 96
17 108 65 10 41 -2 106 -25 128 -24 24 -115 34 -146 16z"/>
</g>
</svg>
