<?xml version="1.0" standalone="no"?>
<!DOCTYPE svg PUBLIC "-//W3C//DTD SVG 20010904//EN"
 "http://www.w3.org/TR/2001/REC-SVG-20010904/DTD/svg10.dtd">
<svg version="1.0" xmlns="http://www.w3.org/2000/svg"
 width="192.000000pt" height="192.000000pt" viewBox="0 0 192.000000 192.000000"
 preserveAspectRatio="xMidYMid meet">
<metadata>
Created by potrace 1.16, written by Peter Selinger 2001-2019
</metadata>
<g transform="translate(0.000000,192.000000) scale(0.100000,-0.100000)"
fill="#000000" stroke="none">
811 c445 -92 729 -532 635 -987 -62 -301 -295 -546 -601 -630 -91 -26 -329
-26 -420 0 -291 80 -516 305 -596 596 -26 91 -26 329 0 420 120 433 542 692
982 601z"/>
<path d="M843 1346 c-106 -34 -196 -113 -246 -216 -30 -60 -32 -72 -32 -165 0
-88 3 -107 27 -158 15 -32 43 -77 63 -101 30 -37 35 -50 35 -95 0 -95 30 -112
113 -66 39 22 58 26 153 28 95 2 117 6 167 29 73 35 155 116 193 193 27 55 29
69 29 170 0 101 -2 115 -29 170 -39 80 -111 149 -193 188 -56 26 -82 32 -153
34 -53 2 -101 -2 -127 -11z m244 -122 c65 -31 127 -100 149 -166 35 -105 -1
-249 -79 -314 -64 -54 -107 -69 -197 -69 -77 0 -90 3 -140 31 -64 36 -123 107
-140 171 -16 55 -8 168 14 211 77 149 244 206 393 136z"/>
<path d="M901 1180 c-92 -23 -171 -125 -171 -219 0 -51 29 -123 63 -159 79
-85 218 -91 307 -14 124 106 102 299 -42 373 -45 23 -110 31 -157 19z"/>
</g>
</svg>
