<?xml version="1.0" standalone="no"?>
<!DOCTYPE svg PUBLIC "-//W3C//DTD SVG 20010904//EN"
 "http://www.w3.org/TR/2001/REC-SVG-20010904/DTD/svg10.dtd">
<svg version="1.0" xmlns="http://www.w3.org/2000/svg"
 width="192.000000pt" height="192.000000pt" viewBox="0 0 192.000000 192.000000"
 preserveAspectRatio="xMidYMid meet">
<metadata>
Created by potrace 1.16, written by Peter Selinger 2001-2019
</metadata>
<g transform="translate(0.000000,192.000000) scale(0.100000,-0.100000)"
fill="#000000" stroke="none">
811 c445 -92 729 -532 635 -987 -62 -301 -295 -546 -601 -630 -91 -26 -329
-26 -420 0 -291 80 -516 305 -596 596 -26 91 -26 329 0 420 120 433 542 692
982 601z"/>
<path d="M664 1341 c-47 -22 -80 -59 -95 -110 -7 -22 -9 -109 -7 -226 3 -211
9 -233 70 -277 31 -21 46 -23 198 -28 154 -5 162 -6 127 -19 -35 -12 -38 -16
-32 -40 3 -14 17 -36 31 -48 23 -21 35 -23 127 -23 117 0 164 11 206 46 55 46
63 88 59 305 -3 215 -9 237 -70 281 -30 21 -47 24 -168 28 l-134 5 -13 45
c-20 71 -38 80 -157 80 -77 0 -111 -5 -142 -19z m211 -176 c0 -14 -8 -21 -27
-23 -26 -3 -26 -3 -30 -103 -3 -92 -5 -103 -27 -120 -13 -10 -34 -19 -48 -19
-31 0 -73 42 -73 73 0 33 35 67 70 67 l30 0 0 68 c0 38 3 72 7 76 4 4 28 6 53
4 37 -3 45 -6 45 -23z m295 -80 c8 -9 30 -15 56 -15 24 0 44 -4 44 -10 0 -5
-20 -10 -44 -10 -26 0 -48 -6 -56 -15 -7 -8 -20 -15 -30 -15 -10 0 -23 7 -30
15 -7 9 -29 15 -51 15 -22 0 -39 5 -39 10 0 6 17 10 39 10 22 0 44 6 51 15 7
8 20 15 30 15 10 0 23 -7 30 -15z m-90 -110 c9 -11 35 -15 101 -15 53 0 89 -4
89 -10 0 -6 -35 -10 -86 -10 -64 0 -89 -4 -101 -16 -19 -19 -31 -9 -39 34 -5
25 -3 32 9 32 8 0 20 -7 27 -15z m208 -137 c4 -34 -27 -54 -58 -38 -11 6 -20
15 -20 19 0 5 -30 9 -66 9 -36 0 -68 3 -72 6 -3 3 26 6 65 6 55 0 72 3 77 16
4 10 16 14 38 12 27 -2 34 -8 36 -30z"/>
</g>
</svg>
