<?xml version="1.0" standalone="no"?>
<!DOCTYPE svg PUBLIC "-//W3C//DTD SVG 20010904//EN"
 "http://www.w3.org/TR/2001/REC-SVG-20010904/DTD/svg10.dtd">
<svg version="1.0" xmlns="http://www.w3.org/2000/svg"
 width="192.000000pt" height="192.000000pt" viewBox="0 0 192.000000 192.000000"
 preserveAspectRatio="xMidYMid meet">
<metadata>
Created by potrace 1.16, written by Peter Selinger 2001-2019
</metadata>
<g transform="translate(0.000000,192.000000) scale(0.100000,-0.100000)"
fill="#000000" stroke="none">
811 c445 -92 729 -532 635 -987 -62 -301 -295 -546 -601 -630 -91 -26 -329
-26 -420 0 -291 80 -516 305 -596 596 -26 91 -26 329 0 420 120 433 542 692
982 601z"/>
<path d="M835 1367 c-248 -82 -364 -352 -251 -582 180 -364 703 -285 777 116
32 174 -67 363 -230 441 -58 28 -78 32 -161 35 -59 2 -110 -2 -135 -10z m160
-96 c3 -5 10 -83 16 -172 8 -123 8 -167 -1 -183 -12 -22 -200 -188 -220 -194
-15 -5 -50 27 -50 46 0 8 36 57 80 109 55 65 80 103 81 121 2 84 17 261 23
270 9 14 62 16 71 3z"/>
</g>
</svg>
