<?xml version="1.0" standalone="no"?>
<!DOCTYPE svg PUBLIC "-//W3C//DTD SVG 20010904//EN"
 "http://www.w3.org/TR/2001/REC-SVG-20010904/DTD/svg10.dtd">
<svg version="1.0" xmlns="http://www.w3.org/2000/svg"
 width="192.000000pt" height="192.000000pt" viewBox="0 0 192.000000 192.000000"
 preserveAspectRatio="xMidYMid meet">
<metadata>
Created by potrace 1.16, written by Peter Selinger 2001-2019
</metadata>
<g transform="translate(0.000000,192.000000) scale(0.100000,-0.100000)"
fill="#000000" stroke="none">
811 c445 -92 729 -532 635 -987 -62 -301 -295 -546 -601 -630 -91 -26 -329
-26 -420 0 -291 80 -516 305 -596 596 -26 91 -26 329 0 420 120 433 542 692
982 601z"/>
<path d="M736 1274 c-35 -34 -9 -74 48 -74 34 0 69 -34 106 -100 29 -51 31
-53 25 -20 -10 60 -67 162 -104 187 -40 27 -54 28 -75 7z"/>
<path d="M1114 1276 c-37 -16 -87 -92 -108 -165 -23 -77 -20 -83 10 -23 38 76
75 112 116 112 19 0 39 5 46 12 18 18 14 56 -7 68 -23 12 -19 12 -57 -4z"/>
<path d="M635 1164 c-46 -24 -63 -43 -81 -90 -32 -83 15 -172 129 -245 57 -37
59 -40 61 -85 2 -39 7 -51 35 -76 28 -25 40 -29 69 -24 44 7 79 39 94 88 l11
37 23 -49 c33 -71 85 -95 143 -66 33 17 51 54 51 103 0 32 -2 35 -22 28 -13
-4 -49 -9 -80 -12 -53 -5 -59 -3 -85 23 l-28 29 -27 -27 c-21 -22 -36 -28 -71
-28 -49 0 -107 17 -107 31 0 22 41 88 70 113 52 43 112 27 125 -35 l7 -31 18
39 c28 63 70 70 124 22 19 -17 43 -48 52 -70 10 -21 23 -39 29 -39 21 0 105
62 140 103 69 80 71 163 6 228 -44 44 -94 57 -153 40 -70 -21 -156 -115 -197
-217 -11 -27 -20 -42 -20 -33 -2 31 -61 135 -102 178 -71 73 -151 98 -214 65z"/>
</g>
</svg>
