<?xml version="1.0" standalone="no"?>
<!DOCTYPE svg PUBLIC "-//W3C//DTD SVG 20010904//EN"
 "http://www.w3.org/TR/2001/REC-SVG-20010904/DTD/svg10.dtd">
<svg version="1.0" xmlns="http://www.w3.org/2000/svg"
 width="192.000000pt" height="192.000000pt" viewBox="0 0 192.000000 192.000000"
 preserveAspectRatio="xMidYMid meet">
<metadata>
Created by potrace 1.16, written by Peter Selinger 2001-2019
</metadata>
<g transform="translate(0.000000,192.000000) scale(0.100000,-0.100000)"
fill="#000000" stroke="none">
811 c445 -92 729 -532 635 -987 -62 -301 -295 -546 -601 -630 -91 -26 -329
-26 -420 0 -291 80 -516 305 -596 596 -26 91 -26 329 0 420 120 433 542 692
982 601z"/>
<path d="M736 1274 c-35 -34 -9 -74 48 -74 34 0 69 -34 106 -100 29 -51 31
-53 25 -20 -10 60 -67 162 -104 187 -40 27 -54 28 -75 7z"/>
<path d="M1109 1275 c-35 -19 -83 -96 -103 -164 -23 -77 -20 -83 10 -23 36 73
77 112 118 112 37 0 56 15 56 45 0 43 -34 56 -81 30z"/>
<path d="M632 1163 c-40 -20 -80 -69 -88 -109 -15 -75 38 -160 139 -225 57
-37 59 -40 61 -85 2 -39 7 -51 35 -76 28 -25 40 -29 69 -24 44 7 79 39 94 88
l11 37 23 -49 c33 -71 85 -95 143 -66 33 17 51 54 51 103 0 32 -2 35 -22 28
-13 -4 -49 -9 -80 -12 -53 -5 -59 -3 -85 23 l-28 29 -27 -27 c-21 -22 -36 -28
-71 -28 -49 0 -107 17 -107 31 0 22 41 88 70 113 17 14 42 26 56 26 29 0 61
-30 70 -65 6 -26 7 -26 24 13 28 62 70 69 124 21 19 -17 43 -48 52 -70 10 -21
23 -39 29 -39 21 0 100 56 137 98 71 79 75 167 9 233 -67 67 -155 62 -238 -14
-57 -52 -81 -87 -109 -156 -13 -31 -24 -48 -24 -37 0 30 -60 134 -102 177 -70
72 -150 95 -216 62z"/>
</g>
</svg>
