<?xml version="1.0" standalone="no"?>
<!DOCTYPE svg PUBLIC "-//W3C//DTD SVG 20010904//EN"
 "http://www.w3.org/TR/2001/REC-SVG-20010904/DTD/svg10.dtd">
<svg version="1.0" xmlns="http://www.w3.org/2000/svg"
 width="192.000000pt" height="192.000000pt" viewBox="0 0 192.000000 192.000000"
 preserveAspectRatio="xMidYMid meet">
<metadata>
Created by potrace 1.16, written by Peter Selinger 2001-2019
</metadata>
<g transform="translate(0.000000,192.000000) scale(0.100000,-0.100000)"
fill="#000000" stroke="none">
811 c445 -92 729 -532 635 -987 -62 -301 -295 -546 -601 -630 -91 -26 -329
-26 -420 0 -291 80 -516 305 -596 596 -26 91 -26 329 0 420 120 433 542 692
982 601z"/>
<path d="M992 1358 c-5 -7 -12 -45 -14 -84 -3 -58 -9 -80 -33 -119 -55 -86
-123 -99 -154 -27 -28 62 -87 26 -148 -91 -24 -45 -28 -64 -28 -137 0 -71 4
-94 26 -140 34 -71 89 -126 158 -159 49 -23 69 -26 156 -26 81 0 109 4 147 22
66 30 133 96 165 162 25 51 28 66 28 166 0 106 -1 113 -36 185 -41 85 -124
182 -198 229 -54 35 -55 35 -69 19z m-62 -476 c0 -21 7 -48 16 -60 18 -26 64
-30 64 -6 0 30 33 9 57 -36 65 -121 -59 -241 -191 -186 -66 27 -98 105 -76
185 11 42 95 141 120 141 5 0 10 -17 10 -38z"/>
</g>
</svg>
