<?xml version="1.0" standalone="no"?>
<!DOCTYPE svg PUBLIC "-//W3C//DTD SVG 20010904//EN"
 "http://www.w3.org/TR/2001/REC-SVG-20010904/DTD/svg10.dtd">
<svg version="1.0" xmlns="http://www.w3.org/2000/svg"
 width="192.000000pt" height="192.000000pt" viewBox="0 0 192.000000 192.000000"
 preserveAspectRatio="xMidYMid meet">
<metadata>
Created by potrace 1.16, written by Peter Selinger 2001-2019
</metadata>
<g transform="translate(0.000000,192.000000) scale(0.100000,-0.100000)"
fill="#000000" stroke="none">
811 c445 -92 729 -532 635 -987 -62 -301 -295 -546 -601 -630 -91 -26 -329
-26 -420 0 -291 80 -516 305 -596 596 -26 91 -26 329 0 420 120 433 542 692
982 601z"/>
<path d="M848 1333 c-3 -34 -8 -40 -68 -74 -47 -27 -70 -34 -82 -28 -37 20
-53 9 -96 -66 -44 -76 -46 -93 -10 -123 9 -7 13 -34 12 -82 0 -65 -3 -73 -27
-93 l-27 -22 45 -77 c25 -42 50 -80 56 -83 5 -4 23 -2 38 5 26 10 35 7 92 -28
55 -33 64 -43 67 -71 l3 -32 107 3 107 3 3 32 c3 28 11 36 68 67 51 28 69 34
84 26 10 -5 25 -10 32 -10 13 0 98 137 98 159 0 7 -10 21 -22 30 -18 15 -21
28 -21 90 0 59 3 75 21 94 12 13 22 27 22 32 0 5 -19 42 -42 82 -42 74 -58 84
-96 64 -12 -6 -35 1 -82 28 -57 32 -66 41 -70 71 l-5 35 -102 3 -102 3 -3 -38z
m219 -173 c93 -53 113 -89 113 -199 0 -104 -22 -144 -104 -187 -31 -16 -56
-32 -56 -36 0 -5 -29 -8 -65 -8 -36 0 -65 3 -65 8 0 4 -25 20 -56 36 -35 19
-66 44 -81 68 -23 34 -26 47 -24 121 3 107 26 150 105 192 31 17 56 33 56 38
0 4 24 7 54 7 45 0 66 -7 123 -40z"/>
<path d="M925 1120 c-43 -9 -69 -25 -99 -60 -92 -110 17 -281 161 -254 47 9
110 66 124 114 34 112 -71 224 -186 200z m55 -115 c0 -29 -8 -32 -26 -7 -12
15 -13 11 -14 -30 0 -27 5 -48 10 -48 6 0 10 -4 10 -10 0 -5 -18 -10 -40 -10
-22 0 -40 5 -40 10 0 6 5 10 10 10 6 0 10 21 10 48 -1 41 -2 45 -14 30 -18
-25 -26 -22 -26 7 0 24 3 25 60 25 57 0 60 -1 60 -25z m55 16 c7 -12 -12 -24
-25 -16 -11 7 -4 25 10 25 5 0 11 -4 15 -9z m-5 -66 c0 -19 5 -35 10 -35 6 0
10 -4 10 -10 0 -5 -12 -10 -27 -10 -26 0 -28 3 -28 45 0 36 3 45 18 45 13 0
17 -8 17 -35z"/>
</g>
</svg>
