<?xml version="1.0" standalone="no"?>
<!DOCTYPE svg PUBLIC "-//W3C//DTD SVG 20010904//EN"
 "http://www.w3.org/TR/2001/REC-SVG-20010904/DTD/svg10.dtd">
<svg version="1.0" xmlns="http://www.w3.org/2000/svg"
 width="192.000000pt" height="192.000000pt" viewBox="0 0 192.000000 192.000000"
 preserveAspectRatio="xMidYMid meet">
<metadata>
Created by potrace 1.16, written by Peter Selinger 2001-2019
</metadata>
<g transform="translate(0.000000,192.000000) scale(0.100000,-0.100000)"
fill="#000000" stroke="none">
811 c445 -92 729 -532 635 -987 -62 -301 -295 -546 -601 -630 -91 -26 -329
-26 -420 0 -291 80 -516 305 -596 596 -26 91 -26 329 0 420 120 433 542 692
982 601z"/>
<path d="M683 1334 c-52 -26 -100 -87 -119 -150 -21 -73 -13 -107 36 -160 22
-24 40 -51 40 -59 0 -9 -16 -33 -36 -53 -46 -47 -57 -76 -49 -133 10 -70 56
-143 112 -176 l48 -28 241 0 241 0 48 30 c67 42 107 115 109 196 1 58 0 61
-41 100 -54 51 -55 76 -4 127 49 48 57 85 36 157 -18 63 -67 124 -119 149 -50
24 -495 23 -543 0z m305 -140 c41 -28 18 -104 -31 -104 -53 0 -77 75 -35 104
12 9 27 16 33 16 6 0 21 -7 33 -16z m11 -188 c7 -8 11 -30 9 -48 -2 -25 -9
-35 -30 -42 -43 -15 -78 6 -78 47 0 18 5 38 12 45 17 17 73 15 87 -2z m-5
-182 c25 -25 20 -71 -10 -91 -24 -15 -29 -15 -53 -2 -32 18 -40 68 -16 93 21
20 59 21 79 0z"/>
</g>
</svg>
