<?xml version="1.0" standalone="no"?>
<!DOCTYPE svg PUBLIC "-//W3C//DTD SVG 20010904//EN"
 "http://www.w3.org/TR/2001/REC-SVG-20010904/DTD/svg10.dtd">
<svg version="1.0" xmlns="http://www.w3.org/2000/svg"
 width="192.000000pt" height="192.000000pt" viewBox="0 0 192.000000 192.000000"
 preserveAspectRatio="xMidYMid meet">
<metadata>
Created by potrace 1.16, written by Peter Selinger 2001-2019
</metadata>
<g transform="translate(0.000000,192.000000) scale(0.100000,-0.100000)"
fill="#000000" stroke="none">
811 c445 -92 729 -532 635 -987 -62 -301 -295 -546 -601 -630 -91 -26 -329
-26 -420 0 -291 80 -516 305 -596 596 -26 91 -26 329 0 420 120 433 542 692
982 601z"/>
<path d="M889 1335 c-47 -38 -105 -60 -183 -71 -32 -4 -58 -15 -73 -30 -22
-22 -23 -31 -23 -151 0 -148 16 -229 62 -315 40 -75 109 -138 204 -184 l74
-37 47 18 c69 25 135 69 186 124 90 96 120 192 121 388 1 163 -5 174 -115 192
-76 12 -128 35 -177 76 -40 34 -71 32 -123 -10z m235 -171 c3 -9 6 -43 6 -76
0 -68 -19 -77 -33 -16 -10 42 -40 74 -79 83 l-28 7 0 -180 c0 -187 2 -196 44
-203 11 -2 20 -8 20 -14 1 -13 -184 -19 -197 -6 -6 6 2 13 24 18 l34 9 3 187
c2 128 -1 187 -8 187 -44 0 -100 -62 -100 -110 0 -13 -5 -20 -12 -17 -7 2 -13
9 -12 15 1 7 2 39 3 72 l1 60 164 0 c140 0 165 -2 170 -16z m-254 -225 l0 -40
-42 3 c-36 3 -44 7 -46 26 -6 41 5 52 48 52 l40 0 0 -41z m260 0 l0 -40 -42 3
c-36 3 -44 7 -46 26 -6 41 5 52 48 52 l40 0 0 -41z"/>
</g>
</svg>
