<?xml version="1.0" standalone="no"?>
<!DOCTYPE svg PUBLIC "-//W3C//DTD SVG 20010904//EN"
 "http://www.w3.org/TR/2001/REC-SVG-20010904/DTD/svg10.dtd">
<svg version="1.0" xmlns="http://www.w3.org/2000/svg"
 width="192.000000pt" height="192.000000pt" viewBox="0 0 192.000000 192.000000"
 preserveAspectRatio="xMidYMid meet">
<metadata>
Created by potrace 1.16, written by Peter Selinger 2001-2019
</metadata>
<g transform="translate(0.000000,192.000000) scale(0.100000,-0.100000)"
fill="#000000" stroke="none">
811 c445 -92 729 -532 635 -987 -62 -301 -295 -546 -601 -630 -91 -26 -329
-26 -420 0 -291 80 -516 305 -596 596 -26 91 -26 329 0 420 120 433 542 692
982 601z"/>
<path d="M610 1095 c0 -32 2 -35 30 -35 l30 0 0 -130 0 -130 35 0 35 0 0 129
0 130 33 3 c28 3 32 7 35 36 l3 32 -100 0 -101 0 0 -35z"/>
<path d="M850 965 l0 -165 35 0 35 0 0 130 0 130 30 0 29 0 3 -127 3 -128 33
-3 33 -3 -3 163 -3 163 -97 3 -98 3 0 -166z"/>
<path d="M1105 1117 c-3 -7 -4 -80 -3 -162 l3 -150 95 0 95 0 3 98 3 97 -51 0
-50 0 0 -35 c0 -24 5 -35 15 -35 10 0 15 -10 15 -30 0 -27 -3 -30 -30 -30
l-30 0 0 95 0 95 29 0 c16 0 31 -6 35 -15 3 -9 18 -15 36 -15 31 0 31 0 28 48
l-3 47 -93 3 c-70 2 -94 0 -97 -11z"/>
</g>
</svg>
