<?xml version="1.0" standalone="no"?>
<!DOCTYPE svg PUBLIC "-//W3C//DTD SVG 20010904//EN"
 "http://www.w3.org/TR/2001/REC-SVG-20010904/DTD/svg10.dtd">
<svg version="1.0" xmlns="http://www.w3.org/2000/svg"
 width="192.000000pt" height="192.000000pt" viewBox="0 0 192.000000 192.000000"
 preserveAspectRatio="xMidYMid meet">
<metadata>
Created by potrace 1.16, written by Peter Selinger 2001-2019
</metadata>
<g transform="translate(0.000000,192.000000) scale(0.100000,-0.100000)"
fill="#000000" stroke="none">
810 c149 -35 263 -99 377 -209 169 -163 247 -351 247 -596 0 -245 -78 -433
-247 -596 -165 -159 -340 -229 -578 -229 -238 0 -413 70 -578 229 -169 163
-247 351 -247 596 0 238 70 413 229 578 111 115 239 190 390 227 107 26 298
26 407 0z"/>
<path d="M755 1335 c-5 -2 -22 -6 -37 -9 -15 -4 -44 -20 -63 -38 -66 -57 -69
-71 -73 -297 -4 -222 3 -274 44 -329 51 -66 77 -72 329 -72 252 0 270 4 322
63 50 57 55 88 51 332 -3 210 -4 222 -26 258 -13 20 -45 50 -70 65 -47 27 -48
27 -257 29 -115 1 -214 0 -220 -2z m163 -167 c7 -7 12 -42 12 -88 0 -46 -5
-81 -12 -88 -7 -7 -36 -12 -65 -12 -52 0 -53 0 -53 -30 l0 -30 65 0 65 0 0
-35 0 -35 -100 0 -100 0 0 88 c0 55 4 92 12 100 7 7 36 12 65 12 52 0 53 0 53
30 0 27 -3 30 -30 30 -16 0 -30 -4 -30 -10 0 -5 -16 -10 -35 -10 -34 0 -35 1
-35 39 0 22 5 42 13 44 26 11 163 7 175 -5z m270 0 c7 -7 12 -42 12 -88 0 -46
-5 -81 -12 -88 -7 -7 -36 -12 -65 -12 -52 0 -53 0 -53 -30 l0 -30 65 0 65 0 0
-35 0 -35 -100 0 -100 0 0 88 c0 55 4 92 12 100 7 7 36 12 65 12 52 0 53 0 53
30 0 27 -3 30 -30 30 -16 0 -30 -4 -30 -10 0 -5 -16 -10 -35 -10 -34 0 -35 1
-35 39 0 22 5 42 13 44 26 11 163 7 175 -5z m-90 -436 c7 -45 -11 -52 -135
-52 -119 0 -153 9 -153 38 0 38 20 43 155 40 127 -3 130 -3 133 -26z"/>
</g>
</svg>
