<?xml version="1.0" standalone="no"?>
<!DOCTYPE svg PUBLIC "-//W3C//DTD SVG 20010904//EN"
 "http://www.w3.org/TR/2001/REC-SVG-20010904/DTD/svg10.dtd">
<svg version="1.0" xmlns="http://www.w3.org/2000/svg"
 width="192.000000pt" height="192.000000pt" viewBox="0 0 192.000000 192.000000"
 preserveAspectRatio="xMidYMid meet">
<metadata>
Created by potrace 1.16, written by Peter Selinger 2001-2019
</metadata>
<g transform="translate(0.000000,192.000000) scale(0.100000,-0.100000)"
fill="#000000" stroke="none">
811 c445 -92 729 -532 635 -987 -62 -301 -295 -546 -601 -630 -91 -26 -329
-26 -420 0 -291 80 -516 305 -596 596 -26 91 -26 329 0 420 120 433 542 692
982 601z"/>
<path d="M904 1369 c-157 -20 -292 -148 -326 -310 -14 -70 -6 -109 25 -109 32
0 47 18 47 57 0 90 78 208 166 253 74 37 184 40 257 7 104 -47 175 -143 184
-248 l6 -57 -39 -20 c-78 -39 -79 -39 -80 27 -1 95 -57 161 -157 185 -41 10
-128 -18 -159 -51 -53 -58 -73 -141 -49 -206 7 -18 5 -26 -10 -35 -26 -16 -24
-48 4 -66 12 -8 50 -20 85 -27 l62 -13 -42 -16 c-71 -26 -64 -78 13 -101 34
-11 37 -15 33 -38 -9 -43 15 -56 73 -42 27 7 58 19 71 27 28 18 29 59 2 76
-28 18 -25 28 8 28 37 0 72 26 72 54 0 28 -15 42 -53 51 -37 10 -25 19 43 34
76 16 152 53 179 87 20 26 23 37 19 99 -14 215 -218 381 -434 354z"/>
</g>
</svg>
