<?xml version="1.0" standalone="no"?>
<!DOCTYPE svg PUBLIC "-//W3C//DTD SVG 20010904//EN"
 "http://www.w3.org/TR/2001/REC-SVG-20010904/DTD/svg10.dtd">
<svg version="1.0" xmlns="http://www.w3.org/2000/svg"
 width="192.000000pt" height="192.000000pt" viewBox="0 0 192.000000 192.000000"
 preserveAspectRatio="xMidYMid meet">
<metadata>
Created by potrace 1.16, written by Peter Selinger 2001-2019
</metadata>
<g transform="translate(0.000000,192.000000) scale(0.100000,-0.100000)"
fill="#000000" stroke="none">
811 c445 -92 729 -532 635 -987 -62 -301 -295 -546 -601 -630 -91 -26 -329
-26 -420 0 -291 80 -516 305 -596 596 -26 91 -26 329 0 420 120 433 542 692
982 601z"/>
<path d="M1220 1253 c-15 -3 -91 -71 -195 -173 l-170 -169 -76 75 c-67 65 -81
74 -114 74 -53 0 -95 -44 -95 -101 0 -40 5 -46 118 -160 116 -117 148 -137
195 -125 12 3 120 104 240 224 206 207 217 220 217 256 0 50 -15 75 -55 92
-19 8 -36 13 -37 13 -2 -1 -14 -4 -28 -6z"/>
</g>
</svg>
