<?xml version="1.0" standalone="no"?>
<!DOCTYPE svg PUBLIC "-//W3C//DTD SVG 20010904//EN"
 "http://www.w3.org/TR/2001/REC-SVG-20010904/DTD/svg10.dtd">
<svg version="1.0" xmlns="http://www.w3.org/2000/svg"
 width="192.000000pt" height="192.000000pt" viewBox="0 0 192.000000 192.000000"
 preserveAspectRatio="xMidYMid meet">
<metadata>
Created by potrace 1.16, written by Peter Selinger 2001-2019
</metadata>
<g transform="translate(0.000000,192.000000) scale(0.100000,-0.100000)"
fill="#000000" stroke="none">
811 c445 -92 729 -532 635 -987 -62 -301 -295 -546 -601 -630 -91 -26 -329
-26 -420 0 -291 80 -516 305 -596 596 -26 91 -26 329 0 420 120 433 542 692
982 601z"/>
<path d="M432 1118 c3 -40 5 -43 36 -46 l32 -3 0 -150 0 -150 43 3 42 3 3 148
c2 137 4 147 21 147 40 0 51 11 51 51 l0 39 -116 0 -115 0 3 -42z"/>
<path d="M705 1135 c-24 -23 -25 -28 -25 -170 0 -142 1 -147 25 -170 21 -22
33 -25 90 -25 57 0 69 3 90 25 24 23 25 28 25 170 0 142 -1 147 -25 170 -21
22 -33 25 -90 25 -57 0 -69 -3 -90 -25z m120 -170 l0 -110 -27 -3 -28 -3 0
116 0 116 28 -3 27 -3 0 -110z"/>
<path d="M950 965 l0 -195 89 0 c73 0 93 3 112 19 23 19 24 23 24 176 0 153
-1 157 -24 176 -19 16 -39 19 -112 19 l-89 0 0 -195z m140 0 l0 -105 -25 0
-25 0 0 105 0 105 25 0 25 0 0 -105z"/>
<path d="M1197 1153 c-3 -4 16 -53 41 -108 38 -85 46 -113 51 -185 l6 -85 43
-3 42 -3 0 72 c0 64 5 83 50 186 28 63 50 119 50 124 0 5 -19 9 -43 9 l-43 0
-24 -57 c-12 -32 -26 -61 -30 -66 -3 -4 -18 21 -32 55 -25 61 -27 63 -66 66
-22 2 -42 -1 -45 -5z"/>
</g>
</svg>
