<?xml version="1.0" standalone="no"?>
<!DOCTYPE svg PUBLIC "-//W3C//DTD SVG 20010904//EN"
 "http://www.w3.org/TR/2001/REC-SVG-20010904/DTD/svg10.dtd">
<svg version="1.0" xmlns="http://www.w3.org/2000/svg"
 width="192.000000pt" height="192.000000pt" viewBox="0 0 192.000000 192.000000"
 preserveAspectRatio="xMidYMid meet">
<metadata>
Created by potrace 1.16, written by Peter Selinger 2001-2019
</metadata>
<g transform="translate(0.000000,192.000000) scale(0.100000,-0.100000)"
fill="#000000" stroke="none">
811 c445 -92 729 -532 635 -987 -62 -301 -295 -546 -601 -630 -91 -26 -329
-26 -420 0 -291 80 -516 305 -596 596 -26 91 -26 329 0 420 120 433 542 692
982 601z"/>
<path d="M720 1328 c-49 -14 -97 -53 -120 -98 -18 -36 -20 -59 -20 -264 0
-238 4 -262 48 -310 56 -60 84 -66 327 -66 243 0 271 6 327 66 44 48 48 72 48
310 0 205 -2 228 -20 264 -24 47 -71 84 -125 99 -50 14 -417 13 -465 -1z m158
-260 c3 -15 -4 -18 -37 -18 l-41 0 0 -98 c0 -98 -9 -126 -36 -115 -11 4 -14
30 -14 109 l0 104 -40 0 c-27 0 -40 4 -40 13 0 25 13 28 109 25 82 -3 96 -6
99 -20z m211 7 c55 -28 74 -139 34 -193 -25 -33 -77 -53 -122 -46 -75 12 -107
59 -99 146 7 70 47 108 114 108 25 0 58 -7 73 -15z m151 -109 c0 -128 -9 -158
-37 -121 -9 13 -13 50 -13 116 0 111 4 129 31 129 18 0 19 -9 19 -124z"/>
<path d="M970 1030 c-30 -30 -28 -103 5 -135 30 -31 56 -32 91 -2 21 18 27 32
27 65 0 59 -25 92 -68 92 -22 0 -43 -8 -55 -20z"/>
</g>
</svg>
