<?xml version="1.0" standalone="no"?>
<!DOCTYPE svg PUBLIC "-//W3C//DTD SVG 20010904//EN"
 "http://www.w3.org/TR/2001/REC-SVG-20010904/DTD/svg10.dtd">
<svg version="1.0" xmlns="http://www.w3.org/2000/svg"
 width="192.000000pt" height="192.000000pt" viewBox="0 0 192.000000 192.000000"
 preserveAspectRatio="xMidYMid meet">
<metadata>
Created by potrace 1.16, written by Peter Selinger 2001-2019
</metadata>
<g transform="translate(0.000000,192.000000) scale(0.100000,-0.100000)"
fill="#000000" stroke="none">
811 c445 -92 729 -532 635 -987 -62 -301 -295 -546 -601 -630 -91 -26 -329
-26 -420 0 -291 80 -516 305 -596 596 -26 91 -26 329 0 420 120 433 542 692
982 601z"/>
<path d="M872 1340 c-18 -11 -42 -36 -54 -56 -15 -25 -25 -33 -37 -29 -33 13
-126 35 -147 35 -11 0 -29 -8 -38 -19 -15 -17 -17 -47 -14 -308 l3 -290 28
-36 c53 -70 63 -72 337 -72 279 0 300 5 348 78 l27 40 3 282 c3 267 2 283 -17
306 l-19 24 -79 -17 c-43 -9 -85 -19 -94 -22 -10 -5 -20 4 -32 29 -34 72 -142
99 -215 55z m143 -75 c14 -13 25 -28 25 -34 0 -5 -20 -21 -45 -35 l-45 -27
-40 27 c-22 15 -40 30 -40 34 0 4 9 19 21 34 28 36 89 37 124 1z m-167 -185
c34 -15 47 -29 63 -65 55 -124 -71 -241 -190 -177 -104 56 -88 218 25 252 43
13 55 11 102 -10z m322 4 c74 -30 108 -116 73 -184 -45 -86 -150 -106 -218
-40 -88 85 -32 230 92 239 7 1 31 -6 53 -15z m-163 -286 c24 -22 31 -48 13
-48 -5 0 -10 -5 -10 -12 0 -22 -33 -48 -62 -48 -24 0 -32 6 -41 30 -6 17 -15
30 -19 30 -15 0 -8 30 12 50 27 27 77 26 107 -2z"/>
<path d="M786 1036 c4 -16 1 -32 -6 -41 -14 -17 -56 -20 -65 -5 -13 22 -25 8
-25 -29 0 -58 39 -101 92 -101 50 0 74 13 94 52 30 58 -3 127 -69 143 -26 7
-28 6 -21 -19z"/>
<path d="M1115 1023 c0 -34 -3 -38 -28 -41 -16 -2 -34 1 -41 7 -18 15 -26 4
-26 -36 0 -25 8 -43 29 -64 91 -90 230 36 144 130 -16 17 -39 33 -53 36 -23 6
-25 3 -25 -32z"/>
</g>
</svg>
