<?xml version="1.0" standalone="no"?>
<!DOCTYPE svg PUBLIC "-//W3C//DTD SVG 20010904//EN"
 "http://www.w3.org/TR/2001/REC-SVG-20010904/DTD/svg10.dtd">
<svg version="1.0" xmlns="http://www.w3.org/2000/svg"
 width="192.000000pt" height="192.000000pt" viewBox="0 0 192.000000 192.000000"
 preserveAspectRatio="xMidYMid meet">
<metadata>
Created by potrace 1.16, written by Peter Selinger 2001-2019
</metadata>
<g transform="translate(0.000000,192.000000) scale(0.100000,-0.100000)"
fill="#000000" stroke="none">
811 c445 -92 729 -532 635 -987 -62 -301 -295 -546 -601 -630 -91 -26 -329
-26 -420 0 -291 80 -516 305 -596 596 -26 91 -26 329 0 420 120 433 542 692
982 601z"/>
<path d="M893 1251 c-18 -11 -44 -38 -58 -59 l-26 -39 74 -74 c91 -91 137
-178 144 -271 4 -50 0 -71 -16 -101 l-20 -39 22 15 c66 43 112 184 104 317 -7
105 -28 167 -75 220 -46 52 -99 62 -149 31z"/>
<path d="M1210 1204 c-8 -3 -33 -12 -56 -20 l-40 -14 17 -68 c32 -121 17 -264
-37 -361 -13 -24 -22 -46 -19 -49 12 -13 125 58 179 112 80 80 127 169 133
250 4 68 -7 98 -48 129 -27 19 -100 31 -129 21z"/>
<path d="M583 1166 c-109 -49 -67 -256 81 -393 83 -79 143 -108 219 -108 54 0
61 3 89 34 28 32 30 38 26 100 -5 94 -43 168 -132 257 -103 102 -209 143 -283
110z"/>
</g>
</svg>
