<?xml version="1.0" standalone="no"?>
<!DOCTYPE svg PUBLIC "-//W3C//DTD SVG 20010904//EN"
 "http://www.w3.org/TR/2001/REC-SVG-20010904/DTD/svg10.dtd">
<svg version="1.0" xmlns="http://www.w3.org/2000/svg"
 width="192.000000pt" height="192.000000pt" viewBox="0 0 192.000000 192.000000"
 preserveAspectRatio="xMidYMid meet">
<metadata>
Created by potrace 1.16, written by Peter Selinger 2001-2019
</metadata>
<g transform="translate(0.000000,192.000000) scale(0.100000,-0.100000)"
fill="#000000" stroke="none">
811 c445 -92 729 -532 635 -987 -62 -301 -295 -546 -601 -630 -91 -26 -329
-26 -420 0 -291 80 -516 305 -596 596 -26 91 -26 329 0 420 120 433 542 692
982 601z"/>
<path d="M895 1334 c-25 -25 -45 -50 -45 -54 0 -4 28 -17 61 -29 71 -24 129
-64 129 -90 0 -10 -14 -39 -32 -65 -25 -39 -29 -50 -17 -57 31 -20 145 -1 155
26 9 24 -34 136 -76 202 -43 66 -92 113 -116 113 -8 0 -35 -21 -59 -46z"/>
<path d="M666 1254 c-11 -10 -16 -33 -16 -67 0 -79 6 -83 83 -47 48 23 77 30
109 28 l43 -3 14 -63 c13 -55 17 -61 34 -56 40 13 95 97 84 128 -3 8 -30 25
-59 39 -112 53 -260 74 -292 41z"/>
<path d="M1105 1260 c-3 -5 6 -32 19 -59 52 -102 51 -165 -3 -175 -17 -3 -45
-9 -61 -12 -26 -5 -30 -9 -24 -26 13 -41 97 -97 128 -85 20 8 63 104 81 179
20 83 19 152 -1 172 -17 18 -129 23 -139 6z"/>
<path d="M789 1145 c-98 -36 -211 -110 -233 -154 -12 -22 -12 -30 -1 -52 12
-22 75 -79 88 -79 2 0 14 28 27 63 26 73 64 127 89 127 9 0 39 -14 66 -31 59
-37 68 -29 61 54 -6 87 -24 99 -97 72z"/>
<path d="M1240 1008 c-26 -74 -64 -128 -89 -128 -10 0 -38 13 -62 30 -41 27
-45 28 -57 12 -15 -19 -9 -100 9 -135 9 -15 17 -18 47 -12 94 17 282 144 282
190 0 18 -82 105 -99 105 -5 0 -18 -28 -31 -62z"/>
<path d="M722 998 c-56 -91 -91 -288 -58 -321 19 -18 130 -25 140 -8 3 5 -8
38 -24 75 -29 64 -40 139 -21 151 5 3 33 10 62 15 29 6 54 11 55 13 11 11 -15
50 -51 76 -55 40 -78 39 -103 -1z"/>
<path d="M920 1000 c-11 -11 -20 -26 -20 -33 0 -24 31 -57 55 -57 50 0 73 60
37 93 -25 22 -48 21 -72 -3z"/>
<path d="M800 887 c-31 -11 -35 -16 -33 -46 4 -81 140 -291 189 -291 17 0 104
83 104 99 0 5 -26 18 -59 30 -74 27 -125 61 -129 87 -1 10 12 41 29 68 26 39
30 50 18 57 -20 12 -77 10 -119 -4z"/>
<path d="M973 881 c-28 -7 -82 -79 -83 -108 -1 -62 304 -148 353 -99 18 19 25
130 8 140 -5 3 -38 -7 -72 -23 -59 -28 -90 -35 -130 -32 -19 1 -39 42 -39 79
0 37 -11 49 -37 43z"/>
</g>
</svg>
