<?xml version="1.0" standalone="no"?>
<!DOCTYPE svg PUBLIC "-//W3C//DTD SVG 20010904//EN"
 "http://www.w3.org/TR/2001/REC-SVG-20010904/DTD/svg10.dtd">
<svg version="1.0" xmlns="http://www.w3.org/2000/svg"
 width="192.000000pt" height="192.000000pt" viewBox="0 0 192.000000 192.000000"
 preserveAspectRatio="xMidYMid meet">
<metadata>
Created by potrace 1.16, written by Peter Selinger 2001-2019
</metadata>
<g transform="translate(0.000000,192.000000) scale(0.100000,-0.100000)"
fill="#000000" stroke="none">
811 c445 -92 729 -532 635 -987 -62 -301 -295 -546 -601 -630 -91 -26 -329
-26 -420 0 -291 80 -516 305 -596 596 -26 91 -26 329 0 420 120 433 542 692
982 601z"/>
<path d="M634 1361 c-39 -17 -74 -69 -74 -112 0 -96 47 -129 180 -129 l90 0 0
-235 c0 -260 4 -281 60 -310 58 -30 144 -11 172 38 9 15 14 93 18 262 l5 240
95 5 c52 3 105 11 117 18 31 18 53 63 53 112 0 32 -7 48 -34 78 l-34 37 -314
2 c-172 1 -322 -2 -334 -6z"/>
</g>
</svg>
