<?xml version="1.0" standalone="no"?>
<!DOCTYPE svg PUBLIC "-//W3C//DTD SVG 20010904//EN"
 "http://www.w3.org/TR/2001/REC-SVG-20010904/DTD/svg10.dtd">
<svg version="1.0" xmlns="http://www.w3.org/2000/svg"
 width="192.000000pt" height="192.000000pt" viewBox="0 0 192.000000 192.000000"
 preserveAspectRatio="xMidYMid meet">
<metadata>
Created by potrace 1.16, written by Peter Selinger 2001-2019
</metadata>
<g transform="translate(0.000000,192.000000) scale(0.100000,-0.100000)"
fill="#000000" stroke="none">
811 c445 -92 729 -532 635 -987 -62 -301 -295 -546 -601 -630 -91 -26 -329
-26 -420 0 -291 80 -516 305 -596 596 -26 91 -26 329 0 420 120 433 542 692
982 601z"/>
<path d="M850 1364 c-154 -41 -264 -160 -296 -319 -13 -60 -14 -88 -5 -137 24
-139 107 -250 230 -311 62 -30 72 -32 176 -32 98 0 116 3 165 26 159 76 247
226 238 405 -5 103 -43 186 -118 261 -106 105 -250 144 -390 107z m182 -151
c39 -35 13 -103 -39 -103 -57 0 -82 61 -43 100 24 24 57 26 82 3z m-193 -78
c21 -20 17 -66 -9 -87 -29 -23 -55 -23 -80 2 -58 58 29 141 89 85z m357 -80
c22 -53 18 -141 -10 -201 -46 -99 -162 -164 -264 -149 -99 15 -189 85 -214
167 -10 33 -9 41 7 58 10 11 31 20 47 20 23 0 34 -9 58 -49 67 -108 203 -109
262 -1 16 29 18 47 13 98 -8 74 2 92 52 92 29 0 36 -5 49 -35z"/>
</g>
</svg>
