<?xml version="1.0" standalone="no"?>
<!DOCTYPE svg PUBLIC "-//W3C//DTD SVG 20010904//EN"
 "http://www.w3.org/TR/2001/REC-SVG-20010904/DTD/svg10.dtd">
<svg version="1.0" xmlns="http://www.w3.org/2000/svg"
 width="192.000000pt" height="192.000000pt" viewBox="0 0 192.000000 192.000000"
 preserveAspectRatio="xMidYMid meet">
<metadata>
Created by potrace 1.16, written by Peter Selinger 2001-2019
</metadata>
<g transform="translate(0.000000,192.000000) scale(0.100000,-0.100000)"
fill="#000000" stroke="none">
811 c445 -92 729 -532 635 -987 -62 -301 -295 -546 -601 -630 -91 -26 -329
-26 -420 0 -291 80 -516 305 -596 596 -26 91 -26 329 0 420 120 433 542 692
982 601z"/>
<path d="M833 1356 c-145 -47 -258 -178 -282 -324 -51 -320 281 -570 575 -433
263 123 315 479 97 671 -79 70 -143 94 -253 97 -60 2 -110 -2 -137 -11z m274
-87 c205 -98 252 -377 90 -540 -78 -79 -226 -127 -235 -77 -4 18 2 22 92 53
63 23 120 75 154 139 20 41 26 65 26 121 0 140 -83 244 -224 280 -30 7 -46 17
-48 29 -9 43 47 41 145 -5z m-47 -95 c34 -17 84 -71 106 -114 23 -47 23 -143
0 -190 -38 -74 -120 -134 -174 -128 -47 5 -34 36 28 66 60 29 95 72 106 129
14 77 -42 170 -119 196 -25 8 -43 21 -45 32 -7 35 38 40 98 9z m-31 -110 c57
-41 62 -132 9 -184 -58 -58 -103 -26 -49 35 39 45 39 69 0 105 -51 46 -17 83
40 44z"/>
</g>
</svg>
