<?xml version="1.0" standalone="no"?>
<!DOCTYPE svg PUBLIC "-//W3C//DTD SVG 20010904//EN"
 "http://www.w3.org/TR/2001/REC-SVG-20010904/DTD/svg10.dtd">
<svg version="1.0" xmlns="http://www.w3.org/2000/svg"
 width="192.000000pt" height="192.000000pt" viewBox="0 0 192.000000 192.000000"
 preserveAspectRatio="xMidYMid meet">
<metadata>
Created by potrace 1.16, written by Peter Selinger 2001-2019
</metadata>
<g transform="translate(0.000000,192.000000) scale(0.100000,-0.100000)"
fill="#000000" stroke="none">
811 c445 -92 729 -532 635 -987 -62 -301 -295 -546 -601 -630 -91 -26 -329
-26 -420 0 -291 80 -516 305 -596 596 -26 91 -26 329 0 420 120 433 542 692
982 601z"/>
<path d="M909 1313 c-33 -32 -59 -65 -59 -76 0 -11 23 -43 50 -70 l51 -51 77
77 77 77 -50 50 c-27 27 -58 50 -68 50 -10 0 -45 -25 -78 -57z"/>
<path d="M1041 1179 l-74 -70 86 -87 c47 -49 89 -100 92 -115 17 -67 -31 -127
-101 -127 -47 0 -66 13 -177 119 l-57 56 -78 -78 -77 -77 95 -90 c127 -119
178 -145 290 -145 71 0 94 4 141 26 68 32 120 83 156 152 24 45 28 64 28 137
0 70 -5 94 -25 135 -25 50 -193 235 -214 235 -6 -1 -44 -32 -85 -71z"/>
<path d="M601 1006 c-73 -74 -73 -80 -6 -146 l45 -44 77 77 78 77 -50 50 c-27
27 -56 50 -65 50 -9 0 -44 -29 -79 -64z"/>
</g>
</svg>
