<?xml version="1.0" standalone="no"?>
<!DOCTYPE svg PUBLIC "-//W3C//DTD SVG 20010904//EN"
 "http://www.w3.org/TR/2001/REC-SVG-20010904/DTD/svg10.dtd">
<svg version="1.0" xmlns="http://www.w3.org/2000/svg"
 width="192.000000pt" height="192.000000pt" viewBox="0 0 192.000000 192.000000"
 preserveAspectRatio="xMidYMid meet">
<metadata>
Created by potrace 1.16, written by Peter Selinger 2001-2019
</metadata>
<g transform="translate(0.000000,192.000000) scale(0.100000,-0.100000)"
fill="#000000" stroke="none">
811 c445 -92 729 -532 635 -987 -62 -301 -295 -546 -601 -630 -91 -26 -329
-26 -420 0 -291 80 -516 305 -596 596 -26 91 -26 329 0 420 120 433 542 692
982 601z"/>
<path d="M732 1368 c-18 -18 -15 -39 8 -63 l20 -22 -34 -58 c-35 -57 -55 -133
-41 -156 11 -17 98 -6 185 26 41 14 80 26 85 26 6 0 44 -12 85 -27 43 -15 99
-27 130 -28 l55 -1 -1 51 c-1 51 -22 103 -55 140 -19 20 -19 21 6 44 28 26 33
65 9 74 -22 8 -20 9 -57 -24 -35 -30 -35 -30 -73 -13 -49 20 -148 21 -196 0
-36 -15 -36 -15 -64 14 -30 32 -44 35 -62 17z m138 -129 c7 -11 9 -28 6 -36
-6 -14 -9 -14 -26 2 -23 21 -27 55 -5 55 8 0 19 -9 25 -21z m210 2 c0 -11 -10
-27 -22 -36 -22 -15 -23 -14 -26 5 -4 24 14 50 34 50 8 0 14 -9 14 -19z"/>
<path d="M892 1051 c-51 -51 -67 -97 -67 -186 1 -95 28 -168 82 -215 41 -37
53 -37 92 -5 71 61 106 197 77 299 -35 121 -120 170 -184 107z"/>
<path d="M695 1026 c-17 -7 -43 -28 -58 -45 -43 -52 -67 -168 -48 -238 20 -74
58 -66 121 27 50 73 110 197 110 225 0 12 -5 26 -12 33 -16 16 -75 15 -113 -2z"/>
<path d="M1103 1029 c-22 -23 -14 -55 38 -158 48 -95 113 -181 137 -181 40 0
58 76 42 173 -19 108 -71 166 -157 174 -31 3 -52 0 -60 -8z"/>
<path d="M723 629 c-34 -22 -51 -55 -36 -70 6 -6 54 -8 109 -7 99 3 99 3 102
29 7 62 -106 93 -175 48z"/>
<path d="M1034 625 c-16 -16 -24 -34 -22 -48 3 -21 7 -22 108 -22 105 0 105 0
105 25 0 63 -140 96 -191 45z"/>
</g>
</svg>
