<?xml version="1.0" standalone="no"?>
<!DOCTYPE svg PUBLIC "-//W3C//DTD SVG 20010904//EN"
 "http://www.w3.org/TR/2001/REC-SVG-20010904/DTD/svg10.dtd">
<svg version="1.0" xmlns="http://www.w3.org/2000/svg"
 width="192.000000pt" height="192.000000pt" viewBox="0 0 192.000000 192.000000"
 preserveAspectRatio="xMidYMid meet">
<metadata>
Created by potrace 1.16, written by Peter Selinger 2001-2019
</metadata>
<g transform="translate(0.000000,192.000000) scale(0.100000,-0.100000)"
fill="#000000" stroke="none">
811 c445 -92 729 -532 635 -987 -62 -301 -295 -546 -601 -630 -91 -26 -329
-26 -420 0 -291 80 -516 305 -596 596 -26 91 -26 329 0 420 120 433 542 692
982 601z"/>
<path d="M1028 1329 c-14 -8 -18 -24 -18 -72 0 -81 26 -110 64 -71 32 32 14
155 -22 154 -4 0 -15 -5 -24 -11z"/>
<path d="M654 1298 c-68 -60 -74 -84 -74 -334 0 -212 1 -223 23 -265 16 -29
40 -54 72 -74 l48 -30 232 0 232 0 48 30 c32 20 56 45 72 74 22 42 23 53 23
265 0 192 -3 226 -19 261 -25 55 -85 107 -119 103 -26 -3 -27 -6 -32 -79 -3
-43 -11 -83 -19 -93 -12 -14 -38 -16 -186 -16 -148 0 -174 2 -186 16 -8 10
-16 50 -19 93 -5 73 -6 76 -32 79 -18 2 -37 -7 -64 -30z m484 -324 c20 -14 22
-23 22 -109 0 -128 5 -125 -212 -125 -210 0 -208 -1 -208 125 0 126 -2 125
208 125 135 0 172 -3 190 -16z"/>
<path d="M802 941 c-8 -4 -12 -19 -10 -32 l3 -24 160 0 160 0 3 24 c2 13 -2
28 -10 32 -17 11 -289 11 -306 0z"/>
<path d="M797 844 c-13 -13 -7 -52 9 -58 24 -9 287 -7 302 3 8 4 12 19 10 32
-3 24 -3 24 -159 27 -85 1 -158 -1 -162 -4z"/>
</g>
</svg>
