<?xml version="1.0" standalone="no"?>
<!DOCTYPE svg PUBLIC "-//W3C//DTD SVG 20010904//EN"
 "http://www.w3.org/TR/2001/REC-SVG-20010904/DTD/svg10.dtd">
<svg version="1.0" xmlns="http://www.w3.org/2000/svg"
 width="192.000000pt" height="192.000000pt" viewBox="0 0 192.000000 192.000000"
 preserveAspectRatio="xMidYMid meet">
<metadata>
Created by potrace 1.16, written by Peter Selinger 2001-2019
</metadata>
<g transform="translate(0.000000,192.000000) scale(0.100000,-0.100000)"
fill="#000000" stroke="none">
811 c445 -92 729 -532 635 -987 -62 -301 -295 -546 -601 -630 -91 -26 -329
-26 -420 0 -291 80 -516 305 -596 596 -26 91 -26 329 0 420 120 433 542 692
982 601z"/>
<path d="M683 1353 c-57 -7 -73 -40 -73 -154 0 -97 0 -99 -23 -99 -37 0 -57
-30 -57 -83 0 -61 24 -87 80 -87 l40 0 0 -141 c0 -205 2 -208 183 -209 123 0
129 1 152 25 22 21 25 33 25 90 l0 65 75 0 c106 0 115 10 115 135 l0 95 61 0
c54 0 64 3 90 29 29 29 29 30 29 155 0 118 -1 127 -24 153 l-24 28 -309 1
c-169 0 -323 -1 -340 -3z m627 -178 l0 -115 -49 0 -48 0 -6 42 c-10 73 -24 78
-214 78 -161 0 -164 0 -188 -25 -14 -13 -25 -29 -25 -35 0 -6 -23 -10 -55 -10
l-55 0 0 74 c0 41 3 81 6 90 5 14 43 16 320 16 l314 0 0 -115z m-530 -306 c0
-54 3 -64 29 -90 26 -25 37 -29 85 -29 l56 0 0 -49 c0 -35 -4 -51 -16 -55 -20
-8 -128 -8 -176 0 l-38 7 0 138 0 139 30 0 30 0 0 -61z"/>
</g>
</svg>
