<?xml version="1.0" standalone="no"?>
<!DOCTYPE svg PUBLIC "-//W3C//DTD SVG 20010904//EN"
 "http://www.w3.org/TR/2001/REC-SVG-20010904/DTD/svg10.dtd">
<svg version="1.0" xmlns="http://www.w3.org/2000/svg"
 width="192.000000pt" height="192.000000pt" viewBox="0 0 192.000000 192.000000"
 preserveAspectRatio="xMidYMid meet">
<metadata>
Created by potrace 1.16, written by Peter Selinger 2001-2019
</metadata>
<g transform="translate(0.000000,192.000000) scale(0.100000,-0.100000)"
fill="#000000" stroke="none">
811 c445 -92 729 -532 635 -987 -62 -301 -295 -546 -601 -630 -91 -26 -329
-26 -420 0 -291 80 -516 305 -596 596 -26 91 -26 329 0 420 120 433 542 692
982 601z"/>
<path d="M846 1365 c-131 -50 -200 -186 -162 -317 28 -97 88 -146 119 -96 9
13 4 26 -18 58 -123 177 106 388 265 244 48 -44 64 -90 57 -164 -6 -67 1 -83
34 -78 36 5 51 43 46 118 -6 100 -56 178 -142 222 -51 27 -147 33 -199 13z"/>
<path d="M886 1255 c-45 -16 -63 -31 -82 -66 -18 -36 -18 -110 1 -135 14 -18
14 -17 15 14 0 77 46 132 110 132 63 0 110 -53 110 -125 0 -47 17 -45 30 5 30
113 -75 212 -184 175z"/>
<path d="M889 1141 c-23 -19 -24 -23 -22 -160 l3 -141 -38 0 c-21 0 -43 -5
-50 -12 -36 -36 15 -176 86 -240 l42 -38 111 0 c132 0 154 9 192 78 23 42 27
62 27 128 0 94 -14 126 -58 139 -17 5 -32 12 -32 16 0 17 -33 39 -58 39 -15 0
-36 7 -46 15 -11 8 -27 15 -36 15 -13 0 -16 12 -16 71 1 63 -2 73 -23 90 -29
24 -53 24 -82 0z"/>
</g>
</svg>
