<?xml version="1.0" standalone="no"?>
<!DOCTYPE svg PUBLIC "-//W3C//DTD SVG 20010904//EN"
 "http://www.w3.org/TR/2001/REC-SVG-20010904/DTD/svg10.dtd">
<svg version="1.0" xmlns="http://www.w3.org/2000/svg"
 width="192.000000pt" height="192.000000pt" viewBox="0 0 192.000000 192.000000"
 preserveAspectRatio="xMidYMid meet">
<metadata>
Created by potrace 1.16, written by Peter Selinger 2001-2019
</metadata>
<g transform="translate(0.000000,192.000000) scale(0.100000,-0.100000)"
fill="#000000" stroke="none">
810 c149 -35 263 -99 377 -209 169 -163 247 -351 247 -596 0 -245 -78 -433
-247 -596 -165 -159 -340 -229 -578 -229 -238 0 -413 70 -578 229 -169 163
-247 351 -247 596 0 238 70 413 229 578 111 115 239 190 390 227 107 26 298
26 407 0z"/>
<path d="M922 1318 c-17 -17 -17 -289 0 -306 7 -7 43 -12 90 -12 66 0 79 3 88
19 5 11 10 77 10 146 0 69 -5 135 -10 146 -9 16 -22 19 -88 19 -47 0 -83 -5
-90 -12z m118 -159 l0 -100 -32 3 -33 3 -3 98 -3 97 36 0 35 0 0 -101z"/>
<path d="M1182 1318 c-17 -17 -17 -289 0 -306 7 -7 43 -12 90 -12 92 0 98 6
98 104 0 82 -12 96 -86 96 -53 0 -54 0 -54 30 0 28 3 30 35 30 24 0 35 -5 35
-15 0 -10 11 -15 35 -15 32 0 35 2 35 31 0 60 -12 69 -98 69 -47 0 -83 -5 -90
-12z m118 -224 c0 -34 -1 -35 -32 -32 -29 3 -33 7 -36 36 -3 31 -2 32 32 32
35 0 36 -1 36 -36z"/>
<path d="M706 1164 c-13 -13 -16 -45 -16 -195 l0 -179 -64 32 -65 32 -42 -28
-42 -28 125 -124 125 -124 141 0 142 0 32 29 c33 29 33 30 36 136 2 58 1 117
-2 130 -9 35 -46 50 -168 71 l-108 18 0 101 c0 75 -4 106 -16 123 -18 26 -56
29 -78 6z"/>
</g>
</svg>
