<?xml version="1.0" standalone="no"?>
<!DOCTYPE svg PUBLIC "-//W3C//DTD SVG 20010904//EN"
 "http://www.w3.org/TR/2001/REC-SVG-20010904/DTD/svg10.dtd">
<svg version="1.0" xmlns="http://www.w3.org/2000/svg"
 width="192.000000pt" height="192.000000pt" viewBox="0 0 192.000000 192.000000"
 preserveAspectRatio="xMidYMid meet">
<metadata>
Created by potrace 1.16, written by Peter Selinger 2001-2019
</metadata>
<g transform="translate(0.000000,192.000000) scale(0.100000,-0.100000)"
fill="#000000" stroke="none">
811 c445 -92 729 -532 635 -987 -62 -301 -295 -546 -601 -630 -91 -26 -329
-26 -420 0 -291 80 -516 305 -596 596 -26 91 -26 329 0 420 120 433 542 692
982 601z"/>
<path d="M729 1344 c-24 -26 -24 -27 -21 -212 2 -186 2 -187 28 -209 33 -30
66 -29 101 1 l28 24 3 158 c2 87 1 173 -3 191 -13 71 -89 97 -136 47z"/>
<path d="M929 1211 c-22 -18 -24 -27 -27 -135 l-4 -116 30 -30 c37 -37 74 -39
107 -5 24 23 25 30 25 143 0 111 -1 120 -23 140 -29 27 -77 28 -108 3z"/>
<path d="M1155 1091 c-64 -27 -81 -110 -32 -158 61 -62 163 -18 161 68 -2 67
-71 115 -129 90z m60 -91 c0 -18 -6 -26 -23 -28 -24 -4 -38 18 -28 44 3 9 15
14 28 12 17 -2 23 -10 23 -28z"/>
<path d="M576 934 c-58 -57 57 -250 191 -321 32 -17 86 -36 121 -43 167 -30
346 69 432 239 34 69 36 106 6 106 -14 0 -29 -17 -49 -58 -84 -165 -268 -234
-423 -157 -73 36 -122 87 -165 172 -17 35 -37 66 -43 70 -19 13 -54 9 -70 -8z"/>
</g>
</svg>
