<?xml version="1.0" standalone="no"?>
<!DOCTYPE svg PUBLIC "-//W3C//DTD SVG 20010904//EN"
 "http://www.w3.org/TR/2001/REC-SVG-20010904/DTD/svg10.dtd">
<svg version="1.0" xmlns="http://www.w3.org/2000/svg"
 width="192.000000pt" height="192.000000pt" viewBox="0 0 192.000000 192.000000"
 preserveAspectRatio="xMidYMid meet">
<metadata>
Created by potrace 1.16, written by Peter Selinger 2001-2019
</metadata>
<g transform="translate(0.000000,192.000000) scale(0.100000,-0.100000)"
fill="#000000" stroke="none">
810 c149 -35 263 -99 377 -209 169 -163 247 -351 247 -596 0 -245 -78 -433
-247 -596 -165 -159 -340 -229 -578 -229 -238 0 -413 70 -578 229 -169 163
-247 351 -247 596 0 238 70 413 229 578 111 115 239 190 390 227 107 26 298
26 407 0z"/>
<path d="M962 1318 c-7 -7 -12 -27 -12 -45 0 -30 3 -33 30 -33 17 0 30 5 30
10 0 6 16 10 35 10 32 0 35 -2 35 -30 0 -27 -3 -30 -30 -30 -28 0 -30 -3 -30
-35 0 -32 2 -35 30 -35 28 0 30 -3 30 -35 0 -32 -2 -35 -30 -35 -18 0 -33 6
-36 15 -4 9 -19 15 -35 15 -26 0 -29 -3 -29 -33 0 -49 14 -57 102 -57 93 0
103 10 94 98 -6 70 -6 64 0 134 9 88 -1 98 -94 98 -47 0 -83 -5 -90 -12z"/>
<path d="M1210 1295 c0 -24 5 -35 15 -35 13 0 15 -21 15 -130 l0 -130 35 0 35
0 0 153 c0 106 -4 157 -12 165 -7 7 -29 12 -50 12 -37 0 -38 -1 -38 -35z"/>
<path d="M716 1164 c-13 -13 -16 -45 -16 -195 l0 -179 -64 32 -65 32 -42 -28
-42 -28 125 -124 125 -124 141 0 142 0 32 29 c33 29 33 30 36 136 2 58 1 117
-2 130 -9 35 -46 50 -168 71 l-108 18 0 101 c0 75 -4 106 -16 123 -18 26 -56
29 -78 6z"/>
</g>
</svg>
