<?xml version="1.0" standalone="no"?>
<!DOCTYPE svg PUBLIC "-//W3C//DTD SVG 20010904//EN"
 "http://www.w3.org/TR/2001/REC-SVG-20010904/DTD/svg10.dtd">
<svg version="1.0" xmlns="http://www.w3.org/2000/svg"
 width="192.000000pt" height="192.000000pt" viewBox="0 0 192.000000 192.000000"
 preserveAspectRatio="xMidYMid meet">
<metadata>
Created by potrace 1.16, written by Peter Selinger 2001-2019
</metadata>
<g transform="translate(0.000000,192.000000) scale(0.100000,-0.100000)"
fill="#000000" stroke="none">
811 c445 -92 729 -532 635 -987 -62 -301 -295 -546 -601 -630 -91 -26 -329
-26 -420 0 -291 80 -516 305 -596 596 -26 91 -26 329 0 420 120 433 542 692
982 601z"/>
<path d="M819 1351 c-23 -19 -24 -25 -24 -150 l0 -130 -36 -38 c-96 -101 -95
-135 12 -280 l40 -53 187 2 187 3 14 30 c10 20 16 76 19 162 5 154 -4 183 -59
183 -21 0 -37 8 -51 25 -12 15 -30 25 -45 25 -14 0 -38 11 -55 25 -16 14 -38
25 -48 25 -15 0 -18 11 -22 76 -3 65 -7 79 -27 95 -30 24 -62 24 -92 0z"/>
<path d="M782 658 c-16 -16 -16 -70 0 -86 9 -9 70 -12 214 -12 198 0 203 1
218 22 20 29 20 52 0 72 -13 14 -47 16 -218 16 -144 0 -205 -3 -214 -12z"/>
</g>
</svg>
