<?xml version="1.0" standalone="no"?>
<!DOCTYPE svg PUBLIC "-//W3C//DTD SVG 20010904//EN"
 "http://www.w3.org/TR/2001/REC-SVG-20010904/DTD/svg10.dtd">
<svg version="1.0" xmlns="http://www.w3.org/2000/svg"
 width="192.000000pt" height="192.000000pt" viewBox="0 0 192.000000 192.000000"
 preserveAspectRatio="xMidYMid meet">
<metadata>
Created by potrace 1.16, written by Peter Selinger 2001-2019
</metadata>
<g transform="translate(0.000000,192.000000) scale(0.100000,-0.100000)"
fill="#000000" stroke="none">
811 c445 -92 729 -532 635 -987 -62 -301 -295 -546 -601 -630 -91 -26 -329
-26 -420 0 -291 80 -516 305 -596 596 -26 91 -26 329 0 420 120 433 542 692
982 601z"/>
<path d="M897 1359 c-61 -10 -154 -54 -168 -81 -15 -27 3 -68 30 -68 10 0 43
12 72 28 43 22 66 27 124 27 58 0 81 -5 124 -27 61 -32 74 -34 95 -12 23 22
20 41 -10 69 -54 50 -173 78 -267 64z"/>
<path d="M873 1205 c-41 -18 -58 -48 -42 -76 10 -19 16 -20 52 -14 23 4 56 7
72 7 17 0 49 -3 72 -7 36 -6 42 -5 52 14 36 66 -108 119 -206 76z"/>
<path d="M922 1078 c-20 -20 -14 -66 9 -79 33 -17 69 3 69 39 0 15 -5 33 -12
40 -15 15 -51 15 -66 0z"/>
<path d="M737 1053 c-4 -3 -7 -113 -7 -244 l0 -239 25 -6 c14 -3 36 -3 50 0
25 6 25 8 26 114 l0 107 37 -105 c32 -90 41 -106 64 -114 52 -18 70 1 108 115
l35 104 3 -107 c3 -105 3 -108 27 -114 14 -3 36 -3 50 0 l25 6 -2 243 -3 242
-55 0 -55 0 -50 -147 c-27 -80 -52 -149 -55 -152 -3 -3 -25 54 -49 127 -57
173 -59 177 -120 177 -26 0 -51 -3 -54 -7z"/>
</g>
</svg>
