<?xml version="1.0" standalone="no"?>
<!DOCTYPE svg PUBLIC "-//W3C//DTD SVG 20010904//EN"
 "http://www.w3.org/TR/2001/REC-SVG-20010904/DTD/svg10.dtd">
<svg version="1.0" xmlns="http://www.w3.org/2000/svg"
 width="192.000000pt" height="192.000000pt" viewBox="0 0 192.000000 192.000000"
 preserveAspectRatio="xMidYMid meet">
<metadata>
Created by potrace 1.16, written by Peter Selinger 2001-2019
</metadata>
<g transform="translate(0.000000,192.000000) scale(0.100000,-0.100000)"
fill="#000000" stroke="none">
811 c445 -92 729 -532 635 -987 -62 -301 -295 -546 -601 -630 -91 -26 -329
-26 -420 0 -291 80 -516 305 -596 596 -26 91 -26 329 0 420 120 433 542 692
982 601z"/>
<path d="M755 1261 c-137 -35 -235 -158 -235 -294 0 -60 8 -97 21 -97 5 0 54
35 109 78 83 64 99 82 100 105 0 38 41 77 80 77 40 0 80 -39 80 -79 0 -23 13
-40 68 -89 95 -85 116 -84 208 10 l69 70 -72 -4 -71 -5 -17 43 c-23 60 -87
129 -148 158 -56 27 -144 40 -192 27z"/>
<path d="M1233 928 c-59 -61 -71 -78 -70 -105 1 -61 -58 -96 -113 -68 -27 14
-47 53 -42 81 1 6 -29 38 -66 72 -60 53 -75 61 -114 63 -42 2 -50 -2 -151 -82
-58 -46 -106 -87 -106 -91 -2 -17 78 -85 124 -108 49 -25 55 -25 300 -25 226
0 254 2 289 19 78 39 122 141 96 223 -15 46 -47 93 -63 93 -7 0 -44 -33 -84
-72z"/>
</g>
</svg>
