<?xml version="1.0" standalone="no"?>
<!DOCTYPE svg PUBLIC "-//W3C//DTD SVG 20010904//EN"
 "http://www.w3.org/TR/2001/REC-SVG-20010904/DTD/svg10.dtd">
<svg version="1.0" xmlns="http://www.w3.org/2000/svg"
 width="192.000000pt" height="192.000000pt" viewBox="0 0 192.000000 192.000000"
 preserveAspectRatio="xMidYMid meet">
<metadata>
Created by potrace 1.16, written by Peter Selinger 2001-2019
</metadata>
<g transform="translate(0.000000,192.000000) scale(0.100000,-0.100000)"
fill="#000000" stroke="none">
811 c445 -92 729 -532 635 -987 -62 -301 -295 -546 -601 -630 -91 -26 -329
-26 -420 0 -291 80 -516 305 -596 596 -26 91 -26 329 0 420 120 433 542 692
982 601z"/>
<path d="M614 1306 c-29 -29 -34 -41 -34 -82 0 -47 1 -48 105 -153 l104 -106
-104 -106 c-104 -105 -105 -107 -105 -154 0 -40 5 -52 34 -81 29 -29 41 -34
82 -34 47 0 48 1 153 105 l106 104 106 -104 c105 -104 107 -105 154 -105 40 0
52 5 81 34 29 29 34 41 34 81 0 47 -1 49 -105 154 l-104 106 104 106 c104 105
105 106 105 153 0 41 -5 53 -34 82 -29 29 -41 34 -81 34 -47 0 -49 -1 -154
-105 l-106 -104 -106 104 c-105 104 -106 105 -153 105 -41 0 -53 -5 -82 -34z
m403 -280 c42 -43 73 -83 73 -95 0 -11 -14 -36 -31 -56 -50 -56 -77 -50 -166
38 -45 46 -73 82 -73 95 0 12 14 37 31 57 50 57 78 50 166 -39z"/>
</g>
</svg>
