<?xml version="1.0" standalone="no"?>
<!DOCTYPE svg PUBLIC "-//W3C//DTD SVG 20010904//EN"
 "http://www.w3.org/TR/2001/REC-SVG-20010904/DTD/svg10.dtd">
<svg version="1.0" xmlns="http://www.w3.org/2000/svg"
 width="192.000000pt" height="192.000000pt" viewBox="0 0 192.000000 192.000000"
 preserveAspectRatio="xMidYMid meet">
<metadata>
Created by potrace 1.16, written by Peter Selinger 2001-2019
</metadata>
<g transform="translate(0.000000,192.000000) scale(0.100000,-0.100000)"
fill="#000000" stroke="none">
811 c445 -92 729 -532 635 -987 -62 -301 -295 -546 -601 -630 -91 -26 -329
-26 -420 0 -291 80 -516 305 -596 596 -26 91 -26 329 0 420 120 433 542 692
982 601z"/>
<path d="M913 1340 c-12 -5 -25 -15 -30 -23 -4 -8 -41 -45 -81 -82 -57 -51
-79 -65 -96 -61 -11 3 -27 1 -35 -3 -11 -7 -10 -13 3 -33 13 -20 22 -23 51
-20 26 3 35 9 35 23 0 21 21 34 70 43 26 4 41 15 55 39 25 43 44 56 81 57 44
0 58 19 31 40 -30 24 -58 30 -84 20z"/>
<path d="M1135 1329 c-11 -4 -31 -8 -45 -8 -14 -1 -41 -12 -61 -25 -20 -14
-51 -26 -69 -28 -46 -4 -56 -25 -41 -80 10 -37 20 -48 57 -67 49 -27 63 -22
84 29 11 27 17 30 54 30 30 -1 50 -8 75 -29 31 -27 33 -32 26 -72 -6 -37 -5
-41 10 -36 9 4 25 7 35 7 13 0 21 10 25 33 14 60 25 83 35 67 7 -11 12 -11 23
-2 26 22 6 65 -57 123 -63 58 -108 76 -151 58z m162 -93 c29 -26 35 -56 11
-56 -5 0 -34 21 -63 46 -47 40 -53 48 -42 65 13 20 10 22 94 -55z m-132 54 c3
-5 0 -10 -8 -10 -8 0 -30 -2 -48 -5 l-34 -5 30 14 c36 18 52 19 60 6z m-117
-42 c15 -15 16 -48 2 -48 -5 0 -10 6 -10 14 0 7 -10 21 -22 29 -22 15 -22 16
-2 16 11 1 25 -4 32 -11z"/>
<path d="M841 1148 c-49 -64 -54 -67 -94 -66 -23 0 -48 5 -56 11 -10 9 -17 7
-27 -8 -8 -11 -12 -25 -10 -32 3 -7 -1 -13 -8 -13 -7 0 -16 -14 -20 -31 -9
-47 -8 -51 16 -38 20 11 20 9 -5 -20 -15 -18 -29 -42 -31 -54 -3 -12 -7 -34
-10 -49 -4 -15 -15 -29 -26 -33 -26 -8 -14 -35 15 -35 13 0 27 5 31 11 4 6 20
8 40 4 30 -5 34 -3 40 19 3 13 3 33 0 44 -4 11 -1 32 5 46 11 22 17 25 43 21
27 -5 42 2 111 54 85 64 104 71 130 44 36 -36 -3 -146 -83 -235 -53 -58 -114
-91 -162 -86 -47 4 -51 -7 -15 -50 54 -64 151 -80 232 -40 60 30 135 107 164
168 13 28 28 50 34 50 5 0 27 5 48 11 l37 10 -25 33 c-17 23 -25 45 -25 74 0
47 0 46 -33 31 -22 -10 -29 -7 -65 29 -26 26 -54 43 -76 47 -24 5 -33 11 -29
21 3 8 -8 20 -31 31 -20 9 -36 21 -36 27 -1 6 -7 24 -14 41 l-12 29 -53 -66z
m-91 -97 c0 -4 -21 -17 -47 -27 -27 -11 -51 -20 -55 -22 -5 -2 -8 1 -8 6 0 5
21 19 48 30 53 24 62 26 62 13z m-67 -97 c13 -5 13 -12 2 -56 -16 -60 -19 -63
-35 -43 -10 12 -10 24 0 60 7 25 14 45 15 45 2 0 10 -3 18 -6z"/>
<path d="M1229 1033 c-19 -5 -29 -32 -29 -81 0 -34 44 -102 66 -102 19 0 64
41 80 73 11 21 12 28 3 20 -19 -19 -31 -16 -24 6 3 11 1 22 -5 26 -16 10 -12
28 5 21 30 -11 14 4 -25 24 -40 20 -43 21 -71 13z"/>
<path d="M818 933 c-48 -52 -65 -113 -32 -113 28 0 104 84 104 114 0 36 -38
35 -72 -1z"/>
</g>
</svg>
