<?xml version="1.0" standalone="no"?>
<!DOCTYPE svg PUBLIC "-//W3C//DTD SVG 20010904//EN"
 "http://www.w3.org/TR/2001/REC-SVG-20010904/DTD/svg10.dtd">
<svg version="1.0" xmlns="http://www.w3.org/2000/svg"
 width="192.000000pt" height="192.000000pt" viewBox="0 0 192.000000 192.000000"
 preserveAspectRatio="xMidYMid meet">
<metadata>
Created by potrace 1.16, written by Peter Selinger 2001-2019
</metadata>
<g transform="translate(0.000000,192.000000) scale(0.100000,-0.100000)"
fill="#000000" stroke="none">
811 c445 -92 729 -532 635 -987 -62 -301 -295 -546 -601 -630 -91 -26 -329
-26 -420 0 -291 80 -516 305 -596 596 -26 91 -26 329 0 420 120 433 542 692
982 601z"/>
<path d="M658 1313 c-9 -10 -38 -85 -67 -166 l-51 -148 0 -172 c0 -205 5 -221
68 -225 53 -4 72 10 72 54 l0 34 275 0 275 0 0 -34 c0 -44 19 -58 72 -54 63 4
68 20 68 225 l0 172 -51 148 c-29 81 -58 156 -67 166 -14 15 -41 17 -297 17
-256 0 -283 -2 -297 -17z m576 -140 c16 -49 31 -94 33 -100 4 -10 -62 -13
-312 -13 -250 0 -316 3 -312 13 2 6 17 51 33 100 l28 87 251 0 251 0 28 -87z
m-482 -230 c40 -36 8 -113 -47 -113 -54 0 -85 71 -48 112 20 22 70 23 95 1z
m500 0 c40 -36 8 -113 -47 -113 -54 0 -85 71 -48 112 20 22 70 23 95 1z"/>
</g>
</svg>
