<?xml version="1.0" standalone="no"?>
<!DOCTYPE svg PUBLIC "-//W3C//DTD SVG 20010904//EN"
 "http://www.w3.org/TR/2001/REC-SVG-20010904/DTD/svg10.dtd">
<svg version="1.0" xmlns="http://www.w3.org/2000/svg"
 width="192.000000pt" height="192.000000pt" viewBox="0 0 192.000000 192.000000"
 preserveAspectRatio="xMidYMid meet">
<metadata>
Created by potrace 1.16, written by Peter Selinger 2001-2019
</metadata>
<g transform="translate(0.000000,192.000000) scale(0.100000,-0.100000)"
fill="#000000" stroke="none">
811 c445 -92 729 -532 635 -987 -62 -301 -295 -546 -601 -630 -91 -26 -329
-26 -420 0 -291 80 -516 305 -596 596 -26 91 -26 329 0 420 120 433 542 692
982 601z"/>
<path d="M699 1286 c-59 -21 -96 -53 -123 -108 -28 -56 -32 -100 -15 -163 9
-31 39 -69 137 -167 77 -79 134 -128 146 -128 12 0 84 64 188 167 171 171 190
197 156 231 -32 32 -61 14 -203 -128 l-140 -140 -91 91 c-52 52 -94 103 -97
117 -7 38 11 89 41 113 24 19 35 20 94 15 53 -5 70 -3 82 10 35 34 12 76 -52
94 -48 13 -79 12 -123 -4z"/>
<path d="M1055 1271 c-22 -10 -78 -57 -124 -104 l-84 -86 -29 25 c-16 13 -40
24 -54 24 -31 0 -59 -41 -45 -67 16 -31 109 -113 127 -113 9 0 72 54 139 120
112 109 126 120 159 120 74 0 116 -42 116 -117 0 -33 -13 -49 -165 -203 -91
-92 -165 -174 -165 -183 0 -22 35 -57 57 -57 25 0 332 308 354 355 22 48 24
130 4 178 -18 44 -69 96 -112 113 -46 20 -131 17 -178 -5z"/>
</g>
</svg>
