<?xml version="1.0" standalone="no"?>
<!DOCTYPE svg PUBLIC "-//W3C//DTD SVG 20010904//EN"
 "http://www.w3.org/TR/2001/REC-SVG-20010904/DTD/svg10.dtd">
<svg version="1.0" xmlns="http://www.w3.org/2000/svg"
 width="192.000000pt" height="192.000000pt" viewBox="0 0 192.000000 192.000000"
 preserveAspectRatio="xMidYMid meet">
<metadata>
Created by potrace 1.16, written by Peter Selinger 2001-2019
</metadata>
<g transform="translate(0.000000,192.000000) scale(0.100000,-0.100000)"
fill="#000000" stroke="none">
811 c445 -92 729 -532 635 -987 -62 -301 -295 -546 -601 -630 -91 -26 -329
-26 -420 0 -291 80 -516 305 -596 596 -26 91 -26 329 0 420 120 433 542 692
982 601z"/>
<path d="M1035 1319 c-45 -13 -105 -67 -126 -113 -16 -35 -19 -67 -19 -212 0
-225 -11 -254 -94 -254 -57 0 -76 34 -76 138 0 75 3 89 22 109 30 32 30 92 0
132 -17 23 -22 44 -22 91 0 69 -21 100 -68 100 -45 0 -65 -31 -70 -107 -3 -41
-12 -79 -23 -97 -24 -39 -24 -62 0 -106 12 -25 20 -65 23 -136 7 -116 26 -164
84 -212 100 -83 256 -56 321 56 27 46 28 51 33 244 5 187 6 199 27 220 33 33
89 30 119 -6 21 -24 24 -37 24 -107 0 -66 -4 -86 -20 -106 -12 -15 -20 -41
-20 -63 0 -22 8 -48 20 -63 16 -20 20 -40 20 -96 0 -58 4 -75 20 -91 24 -24
57 -26 88 -4 19 13 22 24 22 86 0 60 4 74 25 100 17 20 25 42 25 68 0 26 -8
48 -25 68 -22 27 -25 39 -25 118 0 65 -5 100 -19 129 -46 99 -156 147 -266
114z"/>
</g>
</svg>
