<?xml version="1.0" standalone="no"?>
<!DOCTYPE svg PUBLIC "-//W3C//DTD SVG 20010904//EN"
 "http://www.w3.org/TR/2001/REC-SVG-20010904/DTD/svg10.dtd">
<svg version="1.0" xmlns="http://www.w3.org/2000/svg"
 width="192.000000pt" height="192.000000pt" viewBox="0 0 192.000000 192.000000"
 preserveAspectRatio="xMidYMid meet">
<metadata>
Created by potrace 1.16, written by Peter Selinger 2001-2019
</metadata>
<g transform="translate(0.000000,192.000000) scale(0.100000,-0.100000)"
fill="#000000" stroke="none">
811 c445 -92 729 -532 635 -987 -62 -301 -295 -546 -601 -630 -91 -26 -329
-26 -420 0 -291 80 -516 305 -596 596 -26 91 -26 329 0 420 120 433 542 692
982 601z"/>
<path d="M710 1351 c-29 -8 -52 -48 -43 -76 3 -11 23 -51 44 -88 l39 -69 -70
-84 c-75 -91 -86 -126 -52 -157 15 -14 42 -17 149 -17 116 0 132 2 148 20 43
48 6 110 -67 110 l-40 0 41 51 c23 29 41 58 41 66 0 8 -12 34 -26 59 l-26 44
135 0 134 0 -98 -281 c-55 -155 -99 -287 -99 -294 0 -7 8 -23 18 -35 22 -28
93 -33 117 -9 8 8 70 170 136 359 113 320 121 346 108 369 -8 14 -25 28 -39
32 -33 9 -517 9 -550 0z"/>
</g>
</svg>
