<?xml version="1.0" standalone="no"?>
<!DOCTYPE svg PUBLIC "-//W3C//DTD SVG 20010904//EN"
 "http://www.w3.org/TR/2001/REC-SVG-20010904/DTD/svg10.dtd">
<svg version="1.0" xmlns="http://www.w3.org/2000/svg"
 width="192.000000pt" height="192.000000pt" viewBox="0 0 192.000000 192.000000"
 preserveAspectRatio="xMidYMid meet">
<metadata>
Created by potrace 1.16, written by Peter Selinger 2001-2019
</metadata>
<g transform="translate(0.000000,192.000000) scale(0.100000,-0.100000)"
fill="#000000" stroke="none">
811 c445 -92 729 -532 635 -987 -62 -301 -295 -546 -601 -630 -91 -26 -329
-26 -420 0 -291 80 -516 305 -596 596 -26 91 -26 329 0 420 120 433 542 692
982 601z"/>
<path d="M957 1301 c-61 -61 -87 -96 -87 -112 0 -16 29 -54 88 -116 95 -101
126 -115 156 -71 23 32 20 43 -20 88 l-36 40 94 0 c79 0 98 3 111 18 19 21 21
45 7 73 -9 17 -22 19 -105 19 -52 0 -95 4 -95 8 0 5 10 17 21 28 33 30 42 63
24 90 -30 46 -63 33 -158 -65z"/>
<path d="M756 1148 c-22 -31 -20 -43 14 -81 17 -19 30 -37 30 -41 0 -3 -40 -6
-89 -6 -97 0 -121 -11 -121 -54 0 -44 28 -56 129 -56 l93 0 -36 -40 c-40 -45
-43 -56 -20 -88 30 -44 61 -30 156 71 59 62 88 100 88 116 0 16 -26 51 -87
112 -94 97 -127 111 -157 67z"/>
<path d="M957 861 c-62 -63 -87 -95 -87 -113 0 -18 25 -52 88 -117 95 -99 126
-113 156 -69 23 32 20 43 -20 88 l-36 40 94 0 c102 0 128 12 128 58 0 41 -25
52 -121 52 -49 0 -89 3 -89 6 0 4 14 22 30 41 34 38 36 50 14 81 -30 44 -63
30 -157 -67z"/>
</g>
</svg>
