<?xml version="1.0" standalone="no"?>
<!DOCTYPE svg PUBLIC "-//W3C//DTD SVG 20010904//EN"
 "http://www.w3.org/TR/2001/REC-SVG-20010904/DTD/svg10.dtd">
<svg version="1.0" xmlns="http://www.w3.org/2000/svg"
 width="192.000000pt" height="192.000000pt" viewBox="0 0 192.000000 192.000000"
 preserveAspectRatio="xMidYMid meet">
<metadata>
Created by potrace 1.16, written by Peter Selinger 2001-2019
</metadata>
<g transform="translate(0.000000,192.000000) scale(0.100000,-0.100000)"
fill="#000000" stroke="none">
811 c445 -92 729 -532 635 -987 -62 -301 -295 -546 -601 -630 -91 -26 -329
-26 -420 0 -291 80 -516 305 -596 596 -26 91 -26 329 0 420 120 433 542 692
982 601z"/>
<path d="M875 1303 c-127 -65 -158 -136 -119 -275 9 -32 15 -61 12 -63 -2 -2
-21 1 -42 7 -28 9 -45 9 -71 -1 -18 -6 -44 -9 -58 -6 -16 4 -30 1 -41 -10 -32
-33 -14 -54 71 -85 18 -7 43 -29 57 -51 34 -51 58 -62 206 -94 79 -17 167 -45
239 -76 126 -55 147 -58 156 -29 9 28 -4 41 -85 90 -80 47 -140 104 -140 133
0 27 92 130 205 228 69 60 95 88 95 105 0 34 -35 39 -157 25 -133 -15 -218
-42 -276 -86 -31 -24 -48 -31 -53 -23 -7 11 20 39 80 83 21 16 28 31 33 72 10
87 -22 103 -112 56z"/>
</g>
</svg>
