<?xml version="1.0" standalone="no"?>
<!DOCTYPE svg PUBLIC "-//W3C//DTD SVG 20010904//EN"
 "http://www.w3.org/TR/2001/REC-SVG-20010904/DTD/svg10.dtd">
<svg version="1.0" xmlns="http://www.w3.org/2000/svg"
 width="192.000000pt" height="192.000000pt" viewBox="0 0 192.000000 192.000000"
 preserveAspectRatio="xMidYMid meet">
<metadata>
Created by potrace 1.16, written by Peter Selinger 2001-2019
</metadata>
<g transform="translate(0.000000,192.000000) scale(0.100000,-0.100000)"
fill="#000000" stroke="none">
811 c445 -92 729 -532 635 -987 -62 -301 -295 -546 -601 -630 -91 -26 -329
-26 -420 0 -291 80 -516 305 -596 596 -26 91 -26 329 0 420 120 433 542 692
982 601z"/>
<path d="M649 1335 c-14 -8 -35 -27 -45 -42 -18 -26 -19 -50 -19 -328 0 -278
1 -302 19 -328 29 -43 66 -57 148 -57 56 0 81 5 106 20 58 36 62 58 62 365 0
307 -4 329 -62 365 -40 24 -167 28 -209 5z"/>
<path d="M1062 1333 c-61 -30 -67 -54 -67 -280 0 -188 1 -203 21 -230 35 -48
79 -65 159 -60 46 2 80 10 98 22 52 34 57 56 57 272 0 179 -2 201 -20 230 -10
18 -33 39 -49 48 -40 20 -156 20 -199 -2z"/>
</g>
</svg>
