<?xml version="1.0" standalone="no"?>
<!DOCTYPE svg PUBLIC "-//W3C//DTD SVG 20010904//EN"
 "http://www.w3.org/TR/2001/REC-SVG-20010904/DTD/svg10.dtd">
<svg version="1.0" xmlns="http://www.w3.org/2000/svg"
 width="192.000000pt" height="192.000000pt" viewBox="0 0 192.000000 192.000000"
 preserveAspectRatio="xMidYMid meet">
<metadata>
Created by potrace 1.16, written by Peter Selinger 2001-2019
</metadata>
<g transform="translate(0.000000,192.000000) scale(0.100000,-0.100000)"
fill="#000000" stroke="none">
811 c445 -92 729 -532 635 -987 -62 -301 -295 -546 -601 -630 -91 -26 -329
-26 -420 0 -291 80 -516 305 -596 596 -26 91 -26 329 0 420 120 433 542 692
982 601z"/>
<path d="M882 1251 c-28 -10 -62 -27 -73 -37 -25 -23 -81 -129 -72 -138 4 -3
43 -6 87 -6 l81 0 35 47 c57 76 136 103 307 103 70 0 84 3 92 19 6 10 7 21 4
25 -3 3 -97 6 -207 6 -168 -1 -210 -4 -254 -19z"/>
<path d="M1134 1166 c-52 -16 -82 -37 -105 -73 -34 -51 -30 -53 106 -53 l125
0 30 60 c16 33 30 64 30 70 0 14 -136 11 -186 -4z"/>
<path d="M780 1001 c-30 -3 -61 -10 -68 -14 -11 -7 -122 -218 -122 -232 0 -14
105 -3 141 15 38 20 96 95 143 187 29 57 27 57 -94 44z"/>
<path d="M1040 981 c-73 -15 -91 -35 -125 -141 -33 -104 -78 -130 -227 -130
-100 0 -118 -5 -118 -31 0 -18 10 -19 173 -19 94 0 189 5 210 11 73 20 147
110 147 179 0 66 34 100 102 100 17 0 31 8 38 20 10 19 8 20 -77 19 -48 -1
-104 -4 -123 -8z"/>
</g>
</svg>
