<?xml version="1.0" standalone="no"?>
<!DOCTYPE svg PUBLIC "-//W3C//DTD SVG 20010904//EN"
 "http://www.w3.org/TR/2001/REC-SVG-20010904/DTD/svg10.dtd">
<svg version="1.0" xmlns="http://www.w3.org/2000/svg"
 width="192.000000pt" height="192.000000pt" viewBox="0 0 192.000000 192.000000"
 preserveAspectRatio="xMidYMid meet">
<metadata>
Created by potrace 1.16, written by Peter Selinger 2001-2019
</metadata>
<g transform="translate(0.000000,192.000000) scale(0.100000,-0.100000)"
fill="#000000" stroke="none">
811 c445 -92 729 -532 635 -987 -62 -301 -295 -546 -601 -630 -91 -26 -329
-26 -420 0 -291 80 -516 305 -596 596 -26 91 -26 329 0 420 120 433 542 692
982 601z"/>
<path d="M1050 1062 c0 -26 -3 -28 -34 -24 -55 6 -82 -51 -54 -113 13 -29 8
-27 76 -30 l52 -2 0 98 c0 92 -1 99 -20 99 -15 0 -20 -7 -20 -28z m-2 -93 c2
-28 -1 -38 -15 -43 -32 -13 -57 46 -31 72 22 22 43 9 46 -29z"/>
<path d="M1432 993 c2 -79 6 -98 18 -98 12 0 16 19 18 98 3 92 2 97 -18 97
-20 0 -21 -5 -18 -97z"/>
<path d="M460 1060 c0 -11 -4 -20 -10 -20 -5 0 -10 -7 -10 -15 0 -8 5 -15 10
-15 6 0 10 -22 10 -48 0 -26 5 -53 12 -60 17 -17 48 -15 48 3 0 8 -4 15 -10
15 -5 0 -10 20 -10 45 0 25 5 45 10 45 6 0 10 7 10 15 0 8 -4 15 -10 15 -5 0
-10 9 -10 20 0 13 -7 20 -20 20 -13 0 -20 -7 -20 -20z"/>
<path d="M550 964 c0 -66 2 -75 18 -72 13 2 18 15 20 56 3 44 6 52 23 52 12 0
19 7 19 20 0 22 -20 26 -38 8 -9 -9 -12 -9 -12 0 0 7 -7 12 -15 12 -12 0 -15
-15 -15 -76z"/>
<path d="M663 1032 c-6 -4 -17 -20 -22 -35 -29 -77 49 -138 110 -88 22 18 22
20 6 26 -9 4 -24 2 -32 -5 -18 -15 -45 -6 -45 15 0 11 11 15 45 15 50 0 58 16
29 58 -15 22 -66 30 -91 14z m65 -39 c2 -8 -6 -13 -22 -13 -25 0 -33 10 -19
24 10 10 36 3 41 -11z"/>
<path d="M793 1025 c-2 -7 -3 -39 -1 -71 2 -47 7 -59 21 -62 14 -3 17 4 17 40
0 51 19 84 44 75 12 -5 16 -20 16 -62 0 -48 3 -56 18 -53 13 2 18 15 20 55 5
79 -7 93 -74 91 -33 -1 -58 -7 -61 -13z"/>
<path d="M1110 1030 c0 -5 11 -40 25 -77 23 -60 24 -69 10 -79 -23 -17 -18
-34 9 -34 26 0 26 1 61 100 13 36 26 73 30 83 7 16 4 18 -16 15 -14 -2 -25
-11 -28 -23 -2 -11 -8 -31 -13 -45 -10 -24 -11 -23 -24 23 -11 35 -19 47 -34
47 -11 0 -20 -4 -20 -10z"/>
<path d="M1277 1023 c-27 -31 -26 -84 3 -113 26 -26 70 -26 98 0 28 26 30 90
4 113 -25 22 -85 22 -105 0z m81 -48 c3 -19 -2 -33 -13 -41 -26 -19 -45 -6
-45 30 0 39 7 48 35 44 14 -2 21 -12 23 -33z"/>
</g>
</svg>
