<?xml version="1.0" standalone="no"?>
<!DOCTYPE svg PUBLIC "-//W3C//DTD SVG 20010904//EN"
 "http://www.w3.org/TR/2001/REC-SVG-20010904/DTD/svg10.dtd">
<svg version="1.0" xmlns="http://www.w3.org/2000/svg"
 width="192.000000pt" height="192.000000pt" viewBox="0 0 192.000000 192.000000"
 preserveAspectRatio="xMidYMid meet">
<metadata>
Created by potrace 1.16, written by Peter Selinger 2001-2019
</metadata>
<g transform="translate(0.000000,192.000000) scale(0.100000,-0.100000)"
fill="#000000" stroke="none">
811 c445 -92 729 -532 635 -987 -62 -301 -295 -546 -601 -630 -91 -26 -329
-26 -420 0 -291 80 -516 305 -596 596 -26 91 -26 329 0 420 120 433 542 692
982 601z"/>
<path d="M740 1283 c-25 -9 -70 -56 -70 -72 0 -10 19 -24 47 -35 137 -57 267
-179 330 -311 41 -86 45 -144 15 -185 -12 -16 -22 -32 -22 -36 0 -4 32 -4 72
-2 66 5 75 8 103 39 27 30 38 63 88 255 58 225 65 270 47 305 -25 45 -53 49
-332 48 -145 0 -270 -3 -278 -6z"/>
<path d="M598 1013 c-5 -7 -20 -51 -33 -98 -36 -129 -22 -149 125 -185 178
-42 310 -15 310 64 0 38 -41 104 -104 165 l-63 63 -112 2 c-77 1 -116 -3 -123
-11z"/>
</g>
</svg>
