<?xml version="1.0" standalone="no"?>
<!DOCTYPE svg PUBLIC "-//W3C//DTD SVG 20010904//EN"
 "http://www.w3.org/TR/2001/REC-SVG-20010904/DTD/svg10.dtd">
<svg version="1.0" xmlns="http://www.w3.org/2000/svg"
 width="192.000000pt" height="192.000000pt" viewBox="0 0 192.000000 192.000000"
 preserveAspectRatio="xMidYMid meet">
<metadata>
Created by potrace 1.16, written by Peter Selinger 2001-2019
</metadata>
<g transform="translate(0.000000,192.000000) scale(0.100000,-0.100000)"
fill="#000000" stroke="none">
811 c445 -92 729 -532 635 -987 -62 -301 -295 -546 -601 -630 -91 -26 -329
-26 -420 0 -291 80 -516 305 -596 596 -26 91 -26 329 0 420 120 433 542 692
982 601z"/>
<path d="M721 1344 c-53 -45 -51 -134 6 -171 30 -20 32 -69 3 -78 -30 -10 -71
-70 -77 -113 -11 -83 47 -165 127 -178 35 -6 40 -10 54 -51 14 -40 14 -48 1
-66 -57 -81 60 -173 130 -102 36 35 33 79 -7 118 -18 18 -41 52 -50 76 -17 43
-17 44 6 62 13 10 29 32 36 49 11 26 17 30 51 30 31 0 45 -6 67 -31 36 -40 93
-49 140 -20 59 38 70 111 23 163 -26 29 -35 33 -81 33 -46 0 -55 -4 -81 -32
-23 -27 -36 -33 -67 -33 -31 0 -41 5 -50 25 -10 22 -7 28 35 65 33 29 55 40
78 40 57 0 94 60 71 114 -17 42 -62 60 -106 44 -35 -12 -50 -35 -50 -75 0 -21
-12 -41 -44 -72 -39 -38 -48 -42 -75 -36 -42 9 -41 37 4 79 38 36 46 81 23
131 -26 57 -115 73 -167 29z"/>
</g>
</svg>
