<?xml version="1.0" standalone="no"?>
<!DOCTYPE svg PUBLIC "-//W3C//DTD SVG 20010904//EN"
 "http://www.w3.org/TR/2001/REC-SVG-20010904/DTD/svg10.dtd">
<svg version="1.0" xmlns="http://www.w3.org/2000/svg"
 width="192.000000pt" height="192.000000pt" viewBox="0 0 192.000000 192.000000"
 preserveAspectRatio="xMidYMid meet">
<metadata>
Created by potrace 1.16, written by Peter Selinger 2001-2019
</metadata>
<g transform="translate(0.000000,192.000000) scale(0.100000,-0.100000)"
fill="#000000" stroke="none">
811 c445 -92 729 -532 635 -987 -62 -301 -295 -546 -601 -630 -91 -26 -329
-26 -420 0 -291 80 -516 305 -596 596 -26 91 -26 329 0 420 120 433 542 692
982 601z"/>
<path d="M938 1149 c-37 -21 -10 -77 31 -64 27 8 32 29 15 54 -17 24 -22 25
-46 10z"/>
<path d="M540 1120 c0 -29 2 -30 45 -30 l45 0 0 -115 0 -115 30 0 30 0 0 115
0 115 46 0 c44 0 45 1 42 28 l-3 27 -117 3 -118 3 0 -31z"/>
<path d="M1125 1061 c-11 -5 -35 -6 -52 -3 l-33 5 0 -147 0 -146 30 0 c29 0
30 1 30 49 l0 49 30 -11 c41 -15 95 11 117 58 14 29 15 41 4 75 -17 56 -78 91
-126 71z m55 -76 c17 -20 5 -62 -21 -70 -24 -8 -59 19 -59 45 0 37 55 55 80
25z"/>
<path d="M767 1053 c-4 -3 -7 -48 -7 -100 l0 -93 35 0 35 0 0 55 c0 52 2 57
30 73 22 12 30 24 30 45 0 31 -15 34 -48 11 -20 -14 -22 -14 -22 0 0 16 -40
23 -53 9z"/>
<path d="M930 960 l0 -100 30 0 30 0 0 100 0 100 -30 0 -30 0 0 -100z"/>
<path d="M1302 921 c-18 -11 -12 -51 10 -64 21 -14 48 7 48 38 0 30 -31 44
-58 26z"/>
</g>
</svg>
