<?xml version="1.0" standalone="no"?>
<!DOCTYPE svg PUBLIC "-//W3C//DTD SVG 20010904//EN"
 "http://www.w3.org/TR/2001/REC-SVG-20010904/DTD/svg10.dtd">
<svg version="1.0" xmlns="http://www.w3.org/2000/svg"
 width="192.000000pt" height="192.000000pt" viewBox="0 0 192.000000 192.000000"
 preserveAspectRatio="xMidYMid meet">
<metadata>
Created by potrace 1.16, written by Peter Selinger 2001-2019
</metadata>
<g transform="translate(0.000000,192.000000) scale(0.100000,-0.100000)"
fill="#000000" stroke="none">
811 c445 -92 729 -532 635 -987 -62 -301 -295 -546 -601 -630 -91 -26 -329
-26 -420 0 -291 80 -516 305 -596 596 -26 91 -26 329 0 420 120 433 542 692
982 601z"/>
<path d="M890 1364 c-61 -12 -122 -38 -174 -74 -45 -32 -66 -40 -100 -40 -26
0 -48 -6 -56 -14 -8 -11 -11 -66 -8 -198 3 -173 4 -186 29 -239 149 -316 599
-316 748 0 25 53 26 66 29 239 3 132 0 187 -8 198 -8 8 -30 14 -56 14 -34 0
-55 8 -94 36 -28 20 -73 44 -100 55 -50 19 -164 31 -210 23z m-50 -186 c76
-52 97 -123 58 -197 -34 -65 -67 -86 -138 -86 -66 0 -99 18 -137 75 -44 63
-22 159 46 206 48 32 124 33 171 2z m401 -2 c93 -63 91 -190 -4 -260 -40 -29
-134 -29 -174 0 -44 31 -76 105 -68 153 19 111 154 170 246 107z m-311 -301
l24 -25 28 27 c24 23 31 25 46 15 32 -24 81 -42 112 -42 37 0 38 -9 5 -48 -90
-107 -290 -107 -380 0 -14 16 -25 33 -25 37 0 5 21 11 46 14 26 2 58 14 73 25
34 27 43 27 71 -3z"/>
<path d="M724 1116 c-33 -15 -44 -33 -44 -71 0 -37 10 -55 41 -70 40 -21 57
-19 90 14 35 35 37 71 7 105 -30 32 -56 38 -94 22z"/>
<path d="M1120 1117 c-59 -30 -64 -99 -8 -140 49 -37 118 3 118 68 0 33 -27
75 -49 75 -5 0 -15 2 -23 5 -7 3 -24 -1 -38 -8z"/>
</g>
</svg>
