<?xml version="1.0" standalone="no"?>
<!DOCTYPE svg PUBLIC "-//W3C//DTD SVG 20010904//EN"
 "http://www.w3.org/TR/2001/REC-SVG-20010904/DTD/svg10.dtd">
<svg version="1.0" xmlns="http://www.w3.org/2000/svg"
 width="192.000000pt" height="192.000000pt" viewBox="0 0 192.000000 192.000000"
 preserveAspectRatio="xMidYMid meet">
<metadata>
Created by potrace 1.16, written by Peter Selinger 2001-2019
</metadata>
<g transform="translate(0.000000,192.000000) scale(0.100000,-0.100000)"
fill="#000000" stroke="none">
811 c445 -92 729 -532 635 -987 -62 -301 -295 -546 -601 -630 -91 -26 -329
-26 -420 0 -291 80 -516 305 -596 596 -26 91 -26 329 0 420 120 433 542 692
982 601z"/>
<path d="M802 1348 c-7 -7 -12 -19 -12 -28 0 -35 21 -40 172 -40 135 0 148 2
158 19 13 25 13 27 -6 45 -13 13 -42 16 -158 16 -97 0 -146 -4 -154 -12z"/>
<path d="M572 1218 c-18 -18 -14 -46 7 -58 13 -6 152 -10 385 -10 362 0 365 0
380 22 11 15 12 26 5 40 -9 17 -30 18 -387 18 -281 0 -381 -3 -390 -12z"/>
<path d="M545 1040 c-8 -14 3 -30 21 -30 11 0 14 -15 14 -66 0 -57 2 -65 18
-62 14 3 18 16 20 66 2 46 7 62 17 62 8 0 15 9 15 20 0 17 -7 20 -49 20 -28 0
-53 -4 -56 -10z"/>
<path d="M670 966 c0 -79 2 -86 20 -86 16 0 20 7 20 30 0 38 18 40 22 3 2 -20
9 -28 23 -28 18 0 20 7 20 80 l0 80 -52 3 -53 3 0 -85z m60 34 c0 -5 -4 -10
-10 -10 -5 0 -10 5 -10 10 0 6 5 10 10 10 6 0 10 -4 10 -10z"/>
<path d="M800 965 c0 -78 2 -85 20 -85 18 0 20 7 20 85 0 78 -2 85 -20 85 -18
0 -20 -7 -20 -85z"/>
<path d="M863 1021 c4 -18 14 -57 23 -87 13 -46 19 -55 37 -52 16 2 25 16 38
59 32 111 32 109 4 109 -19 0 -26 -6 -31 -27 -10 -48 -11 -49 -21 -13 -7 26
-15 36 -33 38 -21 3 -22 1 -17 -27z"/>
<path d="M1004 1037 c-3 -8 -4 -45 -2 -83 3 -61 5 -69 23 -69 14 0 21 8 23 28
4 37 22 35 22 -3 0 -23 4 -30 20 -30 18 0 20 7 20 85 l0 85 -50 0 c-33 0 -52
-5 -56 -13z m66 -37 c0 -5 -4 -10 -10 -10 -5 0 -10 5 -10 10 0 6 5 10 10 10 6
0 10 -4 10 -10z"/>
<path d="M1134 1037 c-3 -8 -4 -45 -2 -83 l3 -69 50 0 50 0 0 80 0 80 -48 3
c-33 2 -49 -1 -53 -11z m66 -37 c0 -5 -4 -10 -10 -10 -5 0 -10 5 -10 10 0 6 5
10 10 10 6 0 10 -4 10 -10z m-5 -60 c3 -5 1 -10 -4 -10 -6 0 -11 5 -11 10 0 6
2 10 4 10 3 0 8 -4 11 -10z"/>
<path d="M1264 1037 c-3 -8 -4 -45 -2 -83 l3 -69 50 0 50 0 0 80 0 80 -48 3
c-33 2 -49 -1 -53 -11z m53 -89 c-2 -13 -4 -3 -4 22 0 25 2 35 4 23 2 -13 2
-33 0 -45z"/>
<path d="M570 765 c-16 -19 -4 -52 23 -59 12 -3 181 -6 375 -6 340 0 353 1
372 20 16 16 18 25 10 40 -10 19 -22 20 -389 20 -319 0 -380 -2 -391 -15z"/>
<path d="M794 624 c-4 -14 -2 -30 3 -35 5 -5 75 -8 163 -7 130 3 154 6 163 20
8 12 7 21 -2 32 -11 13 -39 16 -167 16 l-154 0 -6 -26z"/>
</g>
</svg>
