<?xml version="1.0" standalone="no"?>
<!DOCTYPE svg PUBLIC "-//W3C//DTD SVG 20010904//EN"
 "http://www.w3.org/TR/2001/REC-SVG-20010904/DTD/svg10.dtd">
<svg version="1.0" xmlns="http://www.w3.org/2000/svg"
 width="192.000000pt" height="192.000000pt" viewBox="0 0 192.000000 192.000000"
 preserveAspectRatio="xMidYMid meet">
<metadata>
Created by potrace 1.16, written by Peter Selinger 2001-2019
</metadata>
<g transform="translate(0.000000,192.000000) scale(0.100000,-0.100000)"
fill="#000000" stroke="none">
811 c445 -92 729 -532 635 -987 -62 -301 -295 -546 -601 -630 -91 -26 -329
-26 -420 0 -291 80 -516 305 -596 596 -26 91 -26 329 0 420 120 433 542 692
982 601z"/>
<path d="M643 1331 c-26 -19 -47 -46 -63 -82 -20 -47 -22 -65 -17 -142 4 -81
9 -98 52 -185 122 -246 395 -399 602 -337 82 25 150 114 124 163 -6 11 -55 50
-108 86 -121 82 -145 85 -203 25 -31 -32 -45 -40 -63 -35 -33 8 -106 74 -138
125 l-29 44 45 48 c62 66 60 84 -20 200 -36 52 -73 100 -82 107 -27 19 -57 14
-100 -17z"/>
</g>
</svg>
