<?xml version="1.0" standalone="no"?>
<!DOCTYPE svg PUBLIC "-//W3C//DTD SVG 20010904//EN"
 "http://www.w3.org/TR/2001/REC-SVG-20010904/DTD/svg10.dtd">
<svg version="1.0" xmlns="http://www.w3.org/2000/svg"
 width="192.000000pt" height="192.000000pt" viewBox="0 0 192.000000 192.000000"
 preserveAspectRatio="xMidYMid meet">
<metadata>
Created by potrace 1.16, written by Peter Selinger 2001-2019
</metadata>
<g transform="translate(0.000000,192.000000) scale(0.100000,-0.100000)"
fill="#000000" stroke="none">
811 c445 -92 729 -532 635 -987 -62 -301 -295 -546 -601 -630 -91 -26 -329
-26 -420 0 -291 80 -516 305 -596 596 -26 91 -26 329 0 420 120 433 542 692
982 601z"/>
<path d="M736 1344 l-26 -27 0 -296 c0 -267 2 -300 19 -336 39 -85 115 -128
226 -128 113 0 193 48 232 140 13 33 18 187 7 218 -8 20 -56 45 -88 45 -14 0
-37 -10 -52 -23 -23 -20 -28 -33 -33 -99 -7 -84 -20 -108 -62 -108 -53 0 -59
18 -59 166 l0 134 125 0 c120 0 127 1 150 25 19 18 25 35 25 69 0 37 -5 48
-31 70 -29 25 -36 26 -150 26 l-119 0 0 30 c0 42 -24 96 -48 109 -37 20 -87
13 -116 -15z"/>
</g>
</svg>
