<?xml version="1.0" standalone="no"?>
<!DOCTYPE svg PUBLIC "-//W3C//DTD SVG 20010904//EN"
 "http://www.w3.org/TR/2001/REC-SVG-20010904/DTD/svg10.dtd">
<svg version="1.0" xmlns="http://www.w3.org/2000/svg"
 width="192.000000pt" height="192.000000pt" viewBox="0 0 192.000000 192.000000"
 preserveAspectRatio="xMidYMid meet">
<metadata>
Created by potrace 1.16, written by Peter Selinger 2001-2019
</metadata>
<g transform="translate(0.000000,192.000000) scale(0.100000,-0.100000)"
fill="#000000" stroke="none">
811 c445 -92 729 -532 635 -987 -62 -301 -295 -546 -601 -630 -91 -26 -329
-26 -420 0 -291 80 -516 305 -596 596 -26 91 -26 329 0 420 120 433 542 692
982 601z"/>
<path d="M849 1362 c-116 -31 -211 -108 -264 -217 -99 -202 -12 -446 194 -548
62 -30 72 -32 176 -32 101 0 115 2 170 29 77 38 163 124 201 201 27 55 29 69
29 170 0 104 -2 114 -32 175 -59 120 -171 206 -298 229 -76 14 -97 13 -176 -7z
m35 -182 c20 -22 36 -49 36 -60 0 -11 -16 -37 -35 -59 -19 -21 -35 -47 -35
-57 0 -22 118 -144 138 -144 8 0 32 16 53 35 52 46 81 46 130 -4 22 -21 39
-47 39 -57 0 -9 -20 -37 -45 -60 -57 -56 -109 -71 -184 -54 -48 11 -64 22
-147 102 -102 98 -134 151 -134 218 0 80 69 180 125 180 14 0 37 -15 59 -40z"/>
</g>
</svg>
