<?xml version="1.0" standalone="no"?>
<!DOCTYPE svg PUBLIC "-//W3C//DTD SVG 20010904//EN"
 "http://www.w3.org/TR/2001/REC-SVG-20010904/DTD/svg10.dtd">
<svg version="1.0" xmlns="http://www.w3.org/2000/svg"
 width="192.000000pt" height="192.000000pt" viewBox="0 0 192.000000 192.000000"
 preserveAspectRatio="xMidYMid meet">
<metadata>
Created by potrace 1.16, written by Peter Selinger 2001-2019
</metadata>
<g transform="translate(0.000000,192.000000) scale(0.100000,-0.100000)"
fill="#000000" stroke="none">
811 c445 -92 729 -532 635 -987 -62 -301 -295 -546 -601 -630 -91 -26 -329
-26 -420 0 -291 80 -516 305 -596 596 -26 91 -26 329 0 420 120 433 542 692
982 601z"/>
<path d="M1096 1237 c-14 -14 -30 -51 -40 -93 l-17 -70 -88 -3 -89 -2 -22 73
c-33 108 -32 108 -170 108 -125 0 -140 -5 -140 -50 0 -47 127 -453 146 -467
11 -8 49 -13 105 -13 81 0 90 -2 113 -25 24 -24 29 -25 159 -25 114 0 138 3
155 18 22 18 172 478 172 526 0 38 -27 46 -150 46 -102 0 -113 -2 -134 -23z
m194 -69 c0 -7 -29 -103 -63 -213 l-63 -200 -76 -3 -77 -3 49 142 c27 77 57
174 66 215 l18 74 73 0 c52 0 73 -4 73 -12z m-518 -63 l17 -61 -38 -108 -38
-108 -23 79 c-12 43 -35 120 -51 171 l-27 93 71 -3 71 -3 18 -60z m238 -112
c1 -15 -65 -203 -71 -203 -6 0 -59 178 -59 198 0 13 130 18 130 5z"/>
</g>
</svg>
