<?xml version="1.0" standalone="no"?>
<!DOCTYPE svg PUBLIC "-//W3C//DTD SVG 20010904//EN"
 "http://www.w3.org/TR/2001/REC-SVG-20010904/DTD/svg10.dtd">
<svg version="1.0" xmlns="http://www.w3.org/2000/svg"
 width="192.000000pt" height="192.000000pt" viewBox="0 0 192.000000 192.000000"
 preserveAspectRatio="xMidYMid meet">
<metadata>
Created by potrace 1.16, written by Peter Selinger 2001-2019
</metadata>
<g transform="translate(0.000000,192.000000) scale(0.100000,-0.100000)"
fill="#000000" stroke="none">
811 c445 -92 729 -532 635 -987 -62 -301 -295 -546 -601 -630 -91 -26 -329
-26 -420 0 -291 80 -516 305 -596 596 -26 91 -26 329 0 420 120 433 542 692
982 601z"/>
<path d="M640 1345 c0 -14 -4 -25 -10 -25 -5 0 -10 -11 -10 -25 0 -14 4 -25 9
-25 5 0 11 -23 13 -52 7 -63 40 -98 94 -98 31 0 34 2 34 30 0 27 -3 30 -30 30
-29 0 -30 2 -30 44 0 41 2 45 28 48 19 2 28 9 30 26 3 19 -1 22 -27 22 -26 0
-31 4 -31 25 0 22 -4 25 -35 25 -31 0 -35 -3 -35 -25z"/>
<path d="M1175 1320 c-27 -10 -44 -32 -55 -67 -7 -25 -8 -22 -9 20 -1 47 -1
47 -36 47 l-35 0 0 -69 c0 -56 -3 -70 -17 -75 -27 -11 -43 21 -43 86 0 58 0
58 -30 58 l-30 0 0 -66 c0 -98 25 -133 96 -134 46 0 76 25 90 75 l8 30 4 -27
c9 -69 99 -102 156 -57 36 28 24 41 -36 37 -34 -2 -52 1 -55 10 -4 9 13 12 62
12 l68 0 -6 38 c-11 66 -74 106 -132 82z m61 -55 c18 -13 17 -14 -18 -15 -37
0 -51 13 -25 23 19 8 22 8 43 -8z"/>
<path d="M822 1313 c-25 -10 -42 -62 -42 -128 l0 -66 33 3 32 3 3 68 c3 66 4
68 32 74 23 4 30 11 30 29 0 21 -4 24 -37 23 -21 0 -44 -3 -51 -6z"/>
<path d="M653 1026 c-23 -20 -28 -32 -28 -68 0 -36 6 -52 33 -82 26 -30 30
-40 22 -56 -6 -11 -15 -20 -20 -20 -24 0 -42 -64 -38 -133 3 -61 7 -72 31 -93
40 -34 90 -32 128 5 27 28 29 34 29 109 0 76 -2 82 -30 109 -16 15 -30 34 -30
42 0 7 14 29 30 48 61 69 27 163 -59 163 -28 0 -48 -7 -68 -24z"/>
<path d="M870 952 c0 -107 6 -122 51 -122 20 0 36 10 55 35 51 68 134 69 189
3 38 -45 35 -100 -9 -144 -29 -29 -41 -34 -80 -34 -41 0 -51 5 -86 41 -42 43
-76 53 -105 29 -12 -10 -15 -36 -15 -112 l0 -100 133 4 c147 5 184 17 243 80
53 55 68 95 68 173 0 80 -20 129 -76 182 -52 50 -103 63 -244 63 l-124 0 0
-98z"/>
</g>
</svg>
