<?xml version="1.0" standalone="no"?>
<!DOCTYPE svg PUBLIC "-//W3C//DTD SVG 20010904//EN"
 "http://www.w3.org/TR/2001/REC-SVG-20010904/DTD/svg10.dtd">
<svg version="1.0" xmlns="http://www.w3.org/2000/svg"
 width="192.000000pt" height="192.000000pt" viewBox="0 0 192.000000 192.000000"
 preserveAspectRatio="xMidYMid meet">
<metadata>
Created by potrace 1.16, written by Peter Selinger 2001-2019
</metadata>
<g transform="translate(0.000000,192.000000) scale(0.100000,-0.100000)"
fill="#000000" stroke="none">
811 c445 -92 729 -532 635 -987 -62 -301 -295 -546 -601 -630 -91 -26 -329
-26 -420 0 -291 80 -516 305 -596 596 -26 91 -26 329 0 420 120 433 542 692
982 601z"/>
<path d="M873 1335 c-53 -33 -136 -55 -204 -55 -30 0 -42 -6 -56 -26 -15 -24
-16 -41 -5 -198 18 -264 52 -345 173 -410 30 -16 78 -44 107 -63 29 -18 58
-33 64 -33 12 0 112 57 205 116 98 63 127 145 143 397 13 213 14 210 -111 222
-65 6 -178 50 -193 74 -13 20 -71 9 -123 -24z m127 -166 c22 -11 59 -23 82
-26 70 -9 72 -13 64 -133 -8 -143 -27 -181 -120 -237 l-69 -42 -56 31 c-118
65 -134 97 -135 263 l-1 110 52 6 c29 4 67 16 85 27 42 26 49 26 98 1z"/>
</g>
</svg>
