<?xml version="1.0" standalone="no"?>
<!DOCTYPE svg PUBLIC "-//W3C//DTD SVG 20010904//EN"
 "http://www.w3.org/TR/2001/REC-SVG-20010904/DTD/svg10.dtd">
<svg version="1.0" xmlns="http://www.w3.org/2000/svg"
 width="192.000000pt" height="192.000000pt" viewBox="0 0 192.000000 192.000000"
 preserveAspectRatio="xMidYMid meet">
<metadata>
Created by potrace 1.16, written by Peter Selinger 2001-2019
</metadata>
<g transform="translate(0.000000,192.000000) scale(0.100000,-0.100000)"
fill="#000000" stroke="none">
811 c445 -92 729 -532 635 -987 -62 -301 -295 -546 -601 -630 -91 -26 -329
-26 -420 0 -291 80 -516 305 -596 596 -26 91 -26 329 0 420 120 433 542 692
982 601z"/>
<path d="M712 1329 c-47 -14 -109 -80 -122 -130 -7 -26 -10 -119 -8 -258 3
-217 3 -218 30 -258 15 -22 44 -51 65 -64 37 -24 43 -24 278 -24 235 0 241 0
278 24 21 13 50 42 65 64 l27 41 0 242 0 242 -30 43 c-55 78 -78 84 -330 86
-121 1 -235 -3 -253 -8z m498 -62 c63 -42 71 -68 68 -223 l-3 -138 -53 47
c-29 26 -59 47 -67 47 -17 0 -125 -141 -125 -163 0 -7 14 -26 30 -42 17 -16
30 -34 30 -39 0 -6 -29 -42 -64 -81 -72 -79 -62 -82 -101 28 -20 57 -57 84
-127 93 -27 4 -48 9 -48 13 0 3 59 78 130 166 71 88 130 165 130 172 0 11 -62
74 -120 122 l-25 20 156 1 c146 0 158 -2 189 -23z"/>
</g>
</svg>
