<?xml version="1.0" standalone="no"?>
<!DOCTYPE svg PUBLIC "-//W3C//DTD SVG 20010904//EN"
 "http://www.w3.org/TR/2001/REC-SVG-20010904/DTD/svg10.dtd">
<svg version="1.0" xmlns="http://www.w3.org/2000/svg"
 width="192.000000pt" height="192.000000pt" viewBox="0 0 192.000000 192.000000"
 preserveAspectRatio="xMidYMid meet">
<metadata>
Created by potrace 1.16, written by Peter Selinger 2001-2019
</metadata>
<g transform="translate(0.000000,192.000000) scale(0.100000,-0.100000)"
fill="#000000" stroke="none">
811 c445 -92 729 -532 635 -987 -62 -301 -295 -546 -601 -630 -91 -26 -329
-26 -420 0 -291 80 -516 305 -596 596 -26 91 -26 329 0 420 120 433 542 692
982 601z"/>
<path d="M738 1331 c-47 -10 -80 -32 -115 -78 l-28 -36 0 -253 0 -252 31 -39
c62 -76 71 -78 324 -78 258 0 279 5 335 84 l30 43 0 243 0 243 -30 43 c-38 53
-87 79 -156 82 l-54 2 -3 -157 c-2 -120 -6 -158 -15 -158 -7 0 -31 18 -52 40
-21 22 -45 40 -52 40 -7 0 -30 -19 -51 -42 -27 -28 -44 -39 -55 -35 -15 6 -17
27 -17 162 l0 155 -27 -1 c-16 -1 -44 -5 -65 -8z"/>
</g>
</svg>
