<?xml version="1.0" standalone="no"?>
<!DOCTYPE svg PUBLIC "-//W3C//DTD SVG 20010904//EN"
 "http://www.w3.org/TR/2001/REC-SVG-20010904/DTD/svg10.dtd">
<svg version="1.0" xmlns="http://www.w3.org/2000/svg"
 width="192.000000pt" height="192.000000pt" viewBox="0 0 192.000000 192.000000"
 preserveAspectRatio="xMidYMid meet">
<metadata>
Created by potrace 1.16, written by Peter Selinger 2001-2019
</metadata>
<g transform="translate(0.000000,192.000000) scale(0.100000,-0.100000)"
fill="#000000" stroke="none">
811 c445 -92 729 -532 635 -987 -62 -301 -295 -546 -601 -630 -91 -26 -329
-26 -420 0 -291 80 -516 305 -596 596 -26 91 -26 329 0 420 120 433 542 692
982 601z"/>
<path d="M880 1328 c-16 -29 -35 -78 -41 -109 -14 -74 -23 -87 -43 -70 -8 7
-20 10 -26 6 -15 -9 -12 -92 5 -158 20 -77 20 -77 -18 -77 -43 0 -77 -35 -77
-79 0 -27 14 -48 86 -124 192 -203 186 -201 285 -99 165 171 179 189 179 226
0 49 -28 76 -79 76 -36 0 -41 3 -50 33 -6 17 -21 48 -33 67 l-22 35 -6 -30
c-7 -41 -31 -38 -53 6 -29 61 -41 184 -25 256 17 69 10 93 -27 93 -19 0 -31
-12 -55 -52z"/>
</g>
</svg>
