<?xml version="1.0" standalone="no"?>
<!DOCTYPE svg PUBLIC "-//W3C//DTD SVG 20010904//EN"
 "http://www.w3.org/TR/2001/REC-SVG-20010904/DTD/svg10.dtd">
<svg version="1.0" xmlns="http://www.w3.org/2000/svg"
 width="192.000000pt" height="192.000000pt" viewBox="0 0 192.000000 192.000000"
 preserveAspectRatio="xMidYMid meet">
<metadata>
Created by potrace 1.16, written by Peter Selinger 2001-2019
</metadata>
<g transform="translate(0.000000,192.000000) scale(0.100000,-0.100000)"
fill="#000000" stroke="none">
811 c445 -92 729 -532 635 -987 -62 -301 -295 -546 -601 -630 -91 -26 -329
-26 -420 0 -291 80 -516 305 -596 596 -26 91 -26 329 0 420 120 433 542 692
982 601z"/>
<path d="M669 1281 c-19 -15 -24 -30 -27 -85 -4 -62 -6 -66 -29 -66 -30 0 -73
-42 -73 -72 0 -36 27 -67 65 -74 l35 -6 0 -135 c0 -179 12 -203 101 -203 29 0
47 7 64 25 l25 24 0 279 c0 267 -1 280 -21 306 -17 22 -28 26 -69 26 -32 0
-55 -6 -71 -19z"/>
<path d="M880 1280 c-19 -19 -20 -33 -20 -237 0 -189 3 -223 19 -258 80 -177
298 -209 427 -62 86 97 86 226 1 323 -43 48 -93 79 -148 89 -27 5 -41 2 -62
-15 -23 -19 -27 -29 -27 -75 0 -60 9 -70 113 -130 26 -15 47 -31 47 -35 0 -10
-163 -110 -179 -110 -8 0 -11 72 -11 243 0 242 0 244 -23 265 -31 30 -108 31
-137 2z"/>
</g>
</svg>
