<?xml version="1.0" standalone="no"?>
<!DOCTYPE svg PUBLIC "-//W3C//DTD SVG 20010904//EN"
 "http://www.w3.org/TR/2001/REC-SVG-20010904/DTD/svg10.dtd">
<svg version="1.0" xmlns="http://www.w3.org/2000/svg"
 width="192.000000pt" height="192.000000pt" viewBox="0 0 192.000000 192.000000"
 preserveAspectRatio="xMidYMid meet">
<metadata>
Created by potrace 1.16, written by Peter Selinger 2001-2019
</metadata>
<g transform="translate(0.000000,192.000000) scale(0.100000,-0.100000)"
fill="#000000" stroke="none">
811 c445 -92 729 -532 635 -987 -62 -301 -295 -546 -601 -630 -91 -26 -329
-26 -420 0 -291 80 -516 305 -596 596 -26 91 -26 329 0 420 120 433 542 692
982 601z"/>
<path d="M1294 1146 c-3 -8 -4 -25 -2 -38 2 -18 9 -23 32 -23 36 0 56 27 40
53 -14 22 -62 28 -70 8z"/>
<path d="M575 1138 c-32 -18 -35 -28 -35 -146 0 -130 13 -172 64 -203 43 -27
120 -23 124 6 4 27 -33 65 -64 65 -26 0 -44 30 -44 76 0 22 4 24 44 24 37 0
45 4 49 22 4 12 4 33 1 45 -5 20 -13 23 -50 23 l-43 0 -3 47 c-3 50 -12 59
-43 41z"/>
<path d="M1039 1136 c-23 -11 -24 -16 -27 -139 -3 -143 6 -174 61 -207 87 -54
197 11 197 115 0 84 -67 151 -142 142 l-38 -5 0 48 c0 54 -13 65 -51 46z m136
-196 c27 -30 10 -74 -30 -78 -47 -6 -73 48 -39 82 21 22 47 20 69 -4z"/>
<path d="M737 1044 c-4 -4 -7 -46 -7 -93 0 -98 17 -139 69 -166 62 -32 129
-14 169 45 20 30 22 44 20 124 l-3 91 -35 0 -35 0 -3 -80 c-3 -88 -12 -105
-53 -105 -38 0 -43 12 -49 105 l-5 80 -30 3 c-17 2 -34 0 -38 -4z"/>
<path d="M1290 910 l0 -141 38 3 37 3 0 135 0 135 -37 3 -38 3 0 -141z"/>
</g>
</svg>
