<?xml version="1.0" standalone="no"?>
<!DOCTYPE svg PUBLIC "-//W3C//DTD SVG 20010904//EN"
 "http://www.w3.org/TR/2001/REC-SVG-20010904/DTD/svg10.dtd">
<svg version="1.0" xmlns="http://www.w3.org/2000/svg"
 width="192.000000pt" height="192.000000pt" viewBox="0 0 192.000000 192.000000"
 preserveAspectRatio="xMidYMid meet">
<metadata>
Created by potrace 1.16, written by Peter Selinger 2001-2019
</metadata>
<g transform="translate(0.000000,192.000000) scale(0.100000,-0.100000)"
fill="#000000" stroke="none">
811 c445 -92 729 -532 635 -987 -62 -301 -295 -546 -601 -630 -91 -26 -329
-26 -420 0 -291 80 -516 305 -596 596 -26 91 -26 329 0 420 120 433 542 692
982 601z"/>
<path d="M865 1353 c-20 -98 -47 -140 -110 -174 l-46 -24 3 -70 3 -70 43 -3
42 -3 0 -128 c0 -189 27 -258 118 -302 65 -32 179 -33 240 -1 23 12 42 26 42
30 0 5 -9 36 -21 70 l-21 62 -49 -6 c-40 -5 -53 -3 -69 11 -18 16 -20 31 -20
141 l0 123 73 3 72 3 0 80 0 80 -72 3 -72 3 -3 97 -3 97 -72 3 c-72 3 -72 3
-78 -25z"/>
</g>
</svg>
