<?xml version="1.0" standalone="no"?>
<!DOCTYPE svg PUBLIC "-//W3C//DTD SVG 20010904//EN"
 "http://www.w3.org/TR/2001/REC-SVG-20010904/DTD/svg10.dtd">
<svg version="1.0" xmlns="http://www.w3.org/2000/svg"
 width="192.000000pt" height="192.000000pt" viewBox="0 0 192.000000 192.000000"
 preserveAspectRatio="xMidYMid meet">
<metadata>
Created by potrace 1.16, written by Peter Selinger 2001-2019
</metadata>
<g transform="translate(0.000000,192.000000) scale(0.100000,-0.100000)"
fill="#000000" stroke="none">
811 c445 -92 729 -532 635 -987 -62 -301 -295 -546 -601 -630 -91 -26 -329
-26 -420 0 -291 80 -516 305 -596 596 -26 91 -26 329 0 420 120 433 542 692
982 601z"/>
<path d="M886 1354 c-9 -8 -16 -19 -16 -23 0 -13 25 -38 64 -64 l38 -26 -150
-3 c-149 -3 -151 -3 -193 -33 -75 -53 -84 -82 -87 -295 l-3 -185 28 -55 c23
-44 39 -59 82 -82 l53 -28 253 0 253 0 53 28 c44 23 59 38 82 82 l28 55 -3
192 -3 191 -30 43 c-39 56 -103 89 -170 89 -47 0 -59 6 -146 65 -52 35 -99 65
-106 65 -6 0 -19 -7 -27 -16z m328 -265 c21 -16 26 -29 26 -64 0 -35 -5 -48
-26 -64 -45 -35 -62 -28 -66 25 -6 87 -68 84 -68 -2 l0 -44 -179 0 c-165 0
-180 2 -205 21 -21 16 -26 29 -26 64 0 35 5 48 26 64 25 20 39 21 259 21 220
0 234 -1 259 -21z m-410 -251 c40 -35 43 -78 11 -116 -54 -64 -150 -28 -148
55 2 72 84 108 137 61z m421 -13 c0 -19 -8 -20 -154 -23 -157 -3 -177 2 -164
35 4 11 37 13 162 11 148 -3 156 -4 156 -23z m0 -100 c0 -19 -8 -20 -154 -23
-157 -3 -177 2 -164 35 4 11 37 13 162 11 148 -3 156 -4 156 -23z"/>
</g>
</svg>
