<?xml version="1.0" standalone="no"?>
<!DOCTYPE svg PUBLIC "-//W3C//DTD SVG 20010904//EN"
 "http://www.w3.org/TR/2001/REC-SVG-20010904/DTD/svg10.dtd">
<svg version="1.0" xmlns="http://www.w3.org/2000/svg"
 width="192.000000pt" height="192.000000pt" viewBox="0 0 192.000000 192.000000"
 preserveAspectRatio="xMidYMid meet">
<metadata>
Created by potrace 1.16, written by Peter Selinger 2001-2019
</metadata>
<g transform="translate(0.000000,192.000000) scale(0.100000,-0.100000)"
fill="#000000" stroke="none">
811 c445 -92 729 -532 635 -987 -62 -301 -295 -546 -601 -630 -91 -26 -329
-26 -420 0 -291 80 -516 305 -596 596 -26 91 -26 329 0 420 120 433 542 692
982 601z"/>
<path d="M897 1359 c-30 -17 -20 -48 29 -82 l46 -32 -144 -5 c-126 -4 -148 -8
-183 -28 -49 -28 -85 -78 -96 -135 -12 -63 -11 -298 2 -359 16 -74 73 -131
147 -147 69 -14 445 -14 514 0 74 16 131 73 147 147 13 61 14 296 2 359 -18
94 -105 163 -204 163 -43 0 -59 6 -126 53 -102 72 -113 77 -134 66z m327 -280
c49 -58 19 -130 -59 -141 -18 -3 -21 4 -25 57 -4 48 -9 61 -24 63 -26 5 -36
-15 -36 -76 l0 -54 -177 4 c-190 3 -211 8 -232 55 -17 37 -13 59 15 92 l26 31
243 0 243 0 26 -31z m-416 -239 c48 -45 39 -114 -19 -143 -45 -22 -93 -8 -114
34 -21 40 -19 63 11 98 32 38 87 43 122 11z m410 11 c8 -5 12 -17 10 -27 -3
-18 -16 -19 -161 -22 -134 -2 -158 0 -163 13 -4 8 -1 22 6 30 10 12 41 15 154
15 77 0 147 -4 154 -9z m10 -125 c2 -10 -2 -22 -10 -27 -7 -5 -77 -9 -154 -9
-113 0 -144 3 -154 15 -7 8 -10 22 -6 30 5 13 29 15 163 13 145 -3 158 -4 161
-22z"/>
<path d="M737 1073 c-11 -10 -8 -103 3 -103 6 0 10 7 10 15 0 9 9 15 25 15 33
0 47 46 20 67 -20 14 -47 17 -58 6z m47 -28 c3 -9 -1 -18 -10 -22 -19 -7 -28
2 -21 22 8 19 23 19 31 0z"/>
<path d="M820 1025 c0 -30 5 -55 10 -55 6 0 10 7 10 15 0 8 5 15 10 15 6 0 13
-7 16 -15 9 -23 22 -18 21 8 0 12 3 29 7 38 9 22 -18 49 -50 49 -22 0 -24 -3
-24 -55z m50 15 c0 -11 -7 -20 -15 -20 -8 0 -15 9 -15 20 0 11 7 20 15 20 8 0
15 -9 15 -20z"/>
<path d="M923 1073 c-8 -3 -13 -24 -13 -54 l0 -50 38 3 c35 3 37 5 40 41 5 55
-21 78 -65 60z m45 -51 c3 -27 0 -32 -17 -32 -17 0 -21 6 -21 36 0 28 3 35 18
32 11 -2 18 -14 20 -36z"/>
</g>
</svg>
