<?xml version="1.0" standalone="no"?>
<!DOCTYPE svg PUBLIC "-//W3C//DTD SVG 20010904//EN"
 "http://www.w3.org/TR/2001/REC-SVG-20010904/DTD/svg10.dtd">
<svg version="1.0" xmlns="http://www.w3.org/2000/svg"
 width="192.000000pt" height="192.000000pt" viewBox="0 0 192.000000 192.000000"
 preserveAspectRatio="xMidYMid meet">
<metadata>
Created by potrace 1.16, written by Peter Selinger 2001-2019
</metadata>
<g transform="translate(0.000000,192.000000) scale(0.100000,-0.100000)"
fill="#000000" stroke="none">
811 c445 -92 729 -532 635 -987 -62 -301 -295 -546 -601 -630 -91 -26 -329
-26 -420 0 -291 80 -516 305 -596 596 -26 91 -26 329 0 420 120 433 542 692
982 601z"/>
<path d="M842 1358 c-9 -9 -12 -87 -12 -290 0 -301 2 -315 55 -356 21 -17 25
-28 25 -71 0 -38 5 -56 21 -72 18 -18 23 -19 42 -6 18 11 23 26 25 71 3 51 7
60 40 91 l37 33 3 295 c3 321 2 327 -53 313 l-25 -6 0 -274 c0 -256 -1 -275
-19 -297 -16 -20 -23 -22 -38 -13 -16 10 -18 35 -23 290 -3 153 -9 285 -13
292 -10 15 -49 16 -65 0z"/>
<path d="M591 1139 c-47 -77 -52 -232 -10 -328 23 -54 40 -66 70 -51 23 13 24
40 4 95 -8 22 -14 72 -14 110 0 39 6 88 14 110 19 52 19 81 -1 89 -30 11 -44
6 -63 -25z"/>
<path d="M1250 1156 c-13 -16 -12 -24 15 -116 18 -61 15 -112 -12 -196 -21
-66 -14 -86 29 -82 31 3 35 7 56 68 31 89 27 213 -8 286 -27 52 -56 67 -80 40z"/>
<path d="M732 1103 c-26 -10 -46 -68 -46 -138 -1 -73 15 -119 47 -139 26 -17
53 5 49 40 -4 42 -5 154 -1 188 4 30 -24 58 -49 49z"/>
<path d="M1140 1092 c-21 -17 -22 -22 -12 -52 15 -41 15 -125 1 -151 -20 -38
11 -77 51 -64 60 19 63 232 4 272 -19 12 -24 11 -44 -5z"/>
</g>
</svg>
