<?xml version="1.0" standalone="no"?>
<!DOCTYPE svg PUBLIC "-//W3C//DTD SVG 20010904//EN"
 "http://www.w3.org/TR/2001/REC-SVG-20010904/DTD/svg10.dtd">
<svg version="1.0" xmlns="http://www.w3.org/2000/svg"
 width="192.000000pt" height="192.000000pt" viewBox="0 0 192.000000 192.000000"
 preserveAspectRatio="xMidYMid meet">
<metadata>
Created by potrace 1.16, written by Peter Selinger 2001-2019
</metadata>
<g transform="translate(0.000000,192.000000) scale(0.100000,-0.100000)"
fill="#000000" stroke="none">
811 c445 -92 729 -532 635 -987 -62 -301 -295 -546 -601 -630 -91 -26 -329
-26 -420 0 -291 80 -516 305 -596 596 -26 91 -26 329 0 420 120 433 542 692
982 601z"/>
<path d="M890 1329 c-25 -5 -57 -14 -71 -20 -21 -8 -34 -7 -57 5 -52 27 -99
21 -138 -18 -28 -28 -34 -41 -34 -78 0 -24 7 -53 15 -65 13 -19 13 -26 -1 -65
-25 -66 -23 -190 5 -260 31 -80 106 -159 189 -200 60 -30 75 -33 152 -33 105
1 173 26 247 90 105 92 149 250 109 389 -15 51 -15 59 -1 79 8 12 15 41 15 65
0 37 -6 50 -34 78 -39 39 -86 45 -137 18 -27 -14 -35 -14 -77 0 -65 20 -129
26 -182 15z m-2 -265 c6 -40 -48 -56 -62 -18 -10 26 5 45 33 42 17 -2 27 -10
29 -24z m189 10 c7 -18 -6 -45 -24 -51 -6 -2 -18 3 -27 12 -12 12 -13 21 -6
36 13 23 48 25 57 3z m-22 -113 c46 -20 92 -70 101 -108 10 -40 -13 -99 -52
-131 -88 -72 -225 -69 -306 7 -52 48 -63 110 -29 165 48 76 192 110 286 67z"/>
<path d="M888 920 c-16 -12 -28 -30 -28 -40 0 -20 44 -60 66 -60 8 0 14 -9 14
-20 0 -26 -25 -26 -67 0 -30 18 -52 13 -39 -9 12 -19 77 -41 123 -41 48 0 113
29 113 50 0 14 -13 13 -46 -5 -39 -20 -54 -19 -54 5 0 11 6 20 14 20 21 0 66
40 66 59 0 29 -37 54 -87 58 -39 4 -53 1 -75 -17z"/>
</g>
</svg>
