<?xml version="1.0" standalone="no"?>
<!DOCTYPE svg PUBLIC "-//W3C//DTD SVG 20010904//EN"
 "http://www.w3.org/TR/2001/REC-SVG-20010904/DTD/svg10.dtd">
<svg version="1.0" xmlns="http://www.w3.org/2000/svg"
 width="192.000000pt" height="192.000000pt" viewBox="0 0 192.000000 192.000000"
 preserveAspectRatio="xMidYMid meet">
<metadata>
Created by potrace 1.16, written by Peter Selinger 2001-2019
</metadata>
<g transform="translate(0.000000,192.000000) scale(0.100000,-0.100000)"
fill="#000000" stroke="none">
811 c445 -92 729 -532 635 -987 -62 -301 -295 -546 -601 -630 -91 -26 -329
-26 -420 0 -291 80 -516 305 -596 596 -26 91 -26 329 0 420 120 433 542 692
982 601z"/>
<path d="M844 1369 c-5 -8 4 -22 26 -38 117 -90 163 -148 221 -280 21 -47 54
-107 73 -134 l35 -47 -42 6 c-68 10 -123 49 -181 127 -94 127 -177 186 -262
187 -44 0 -134 43 -134 63 -1 7 -10 1 -20 -12 -24 -28 -26 -78 -5 -108 13 -18
13 -31 5 -70 -34 -151 87 -319 274 -378 l70 -23 -49 -31 c-28 -18 -67 -37 -87
-43 -39 -11 -52 -38 -20 -38 39 0 140 33 198 64 l60 34 35 -19 c68 -36 91 -18
38 30 l-30 28 38 19 c30 15 57 18 123 17 88 -2 160 10 160 28 0 17 -37 83 -56
100 -11 9 -28 19 -39 23 -32 9 -55 58 -71 153 -8 49 -25 108 -36 133 -33 69
-132 163 -198 187 -81 30 -117 36 -126 22z m56 -584 c34 -18 56 -53 42 -67
-16 -16 -91 21 -107 53 -28 53 -16 56 65 14z"/>
</g>
</svg>
