<?xml version="1.0" standalone="no"?>
<!DOCTYPE svg PUBLIC "-//W3C//DTD SVG 20010904//EN"
 "http://www.w3.org/TR/2001/REC-SVG-20010904/DTD/svg10.dtd">
<svg version="1.0" xmlns="http://www.w3.org/2000/svg"
 width="192.000000pt" height="192.000000pt" viewBox="0 0 192.000000 192.000000"
 preserveAspectRatio="xMidYMid meet">
<metadata>
Created by potrace 1.16, written by Peter Selinger 2001-2019
</metadata>
<g transform="translate(0.000000,192.000000) scale(0.100000,-0.100000)"
fill="#000000" stroke="none">
811 c445 -92 729 -532 635 -987 -62 -301 -295 -546 -601 -630 -91 -26 -329
-26 -420 0 -291 80 -516 305 -596 596 -26 91 -26 329 0 420 120 433 542 692
982 601z"/>
<path d="M668 1311 c-30 -19 -52 -44 -67 -74 -21 -44 -22 -56 -19 -285 l3
-240 31 -39 c16 -21 50 -48 74 -61 42 -21 56 -22 265 -22 209 0 223 1 265 23
24 12 58 39 74 60 l31 39 3 240 c3 229 2 241 -19 285 -15 30 -37 55 -67 74
l-46 29 -241 0 -241 0 -46 -29z m378 -206 c-10 -8 -44 -17 -75 -20 -90 -10
-111 -16 -111 -31 0 -8 21 -19 53 -28 28 -8 95 -26 147 -41 52 -14 118 -39
145 -54 l50 -28 3 -81 c3 -81 2 -82 -32 -119 l-34 -38 -226 -3 c-124 -2 -226
1 -226 5 0 4 35 26 77 47 103 54 163 111 163 157 0 45 -31 75 -127 123 -43 21
-73 43 -73 52 0 23 56 41 152 49 48 4 95 13 105 20 10 8 20 11 23 8 3 -2 -3
-11 -14 -18z"/>
</g>
</svg>
