<?xml version="1.0" standalone="no"?>
<!DOCTYPE svg PUBLIC "-//W3C//DTD SVG 20010904//EN"
 "http://www.w3.org/TR/2001/REC-SVG-20010904/DTD/svg10.dtd">
<svg version="1.0" xmlns="http://www.w3.org/2000/svg"
 width="192.000000pt" height="192.000000pt" viewBox="0 0 192.000000 192.000000"
 preserveAspectRatio="xMidYMid meet">
<metadata>
Created by potrace 1.16, written by Peter Selinger 2001-2019
</metadata>
<g transform="translate(0.000000,192.000000) scale(0.100000,-0.100000)"
fill="#000000" stroke="none">
811 c445 -92 729 -532 635 -987 -62 -301 -295 -546 -601 -630 -91 -26 -329
-26 -420 0 -291 80 -516 305 -596 596 -26 91 -26 329 0 420 120 433 542 692
982 601z"/>
<path d="M1074 1365 c-8 -20 4 -35 29 -35 37 -1 103 -36 125 -67 12 -17 26
-49 31 -73 11 -48 24 -66 41 -55 22 13 6 102 -26 148 -47 68 -184 125 -200 82z"/>
<path d="M734 1339 c-30 -15 -44 -51 -44 -109 0 -42 -3 -50 -19 -50 -10 0 -30
-9 -45 -21 -50 -39 -24 -129 38 -129 23 0 24 -1 28 -123 3 -110 7 -129 31
-180 34 -67 101 -130 164 -151 27 -9 80 -16 124 -16 85 0 113 14 125 62 5 22
0 33 -24 58 -28 28 -36 30 -100 30 -55 0 -76 5 -103 23 -55 36 -69 76 -69 195
l0 102 100 0 c87 0 103 3 120 20 28 28 26 75 -5 105 -22 23 -32 25 -120 25
l-95 0 0 59 c0 41 -5 65 -17 79 -22 26 -61 35 -89 21z"/>
<path d="M1074 1265 c-8 -21 2 -32 36 -39 25 -4 35 -15 51 -51 21 -47 30 -53
47 -32 13 15 6 51 -16 85 -28 44 -106 68 -118 37z"/>
</g>
</svg>
