<?xml version="1.0" standalone="no"?>
<!DOCTYPE svg PUBLIC "-//W3C//DTD SVG 20010904//EN"
 "http://www.w3.org/TR/2001/REC-SVG-20010904/DTD/svg10.dtd">
<svg version="1.0" xmlns="http://www.w3.org/2000/svg"
 width="192.000000pt" height="192.000000pt" viewBox="0 0 192.000000 192.000000"
 preserveAspectRatio="xMidYMid meet">
<metadata>
Created by potrace 1.16, written by Peter Selinger 2001-2019
</metadata>
<g transform="translate(0.000000,192.000000) scale(0.100000,-0.100000)"
fill="#000000" stroke="none">
811 c445 -92 729 -532 635 -987 -62 -301 -295 -546 -601 -630 -91 -26 -329
-26 -420 0 -291 80 -516 305 -596 596 -26 91 -26 329 0 420 120 433 542 692
982 601z"/>
<path d="M580 1340 c-17 -17 -20 -33 -20 -114 0 -90 1 -96 26 -115 23 -18 41
-21 130 -21 l104 0 0 -240 c0 -295 -7 -280 135 -280 142 0 135 -15 135 280 l0
240 104 0 c89 0 107 3 130 21 25 19 26 25 26 115 0 145 32 134 -395 134 -342
0 -356 -1 -375 -20z"/>
</g>
</svg>
