<?xml version="1.0" standalone="no"?>
<!DOCTYPE svg PUBLIC "-//W3C//DTD SVG 20010904//EN"
 "http://www.w3.org/TR/2001/REC-SVG-20010904/DTD/svg10.dtd">
<svg version="1.0" xmlns="http://www.w3.org/2000/svg"
 width="192.000000pt" height="192.000000pt" viewBox="0 0 192.000000 192.000000"
 preserveAspectRatio="xMidYMid meet">
<metadata>
Created by potrace 1.16, written by Peter Selinger 2001-2019
</metadata>
<g transform="translate(0.000000,192.000000) scale(0.100000,-0.100000)"
fill="#000000" stroke="none">
811 c445 -92 729 -532 635 -987 -62 -301 -295 -546 -601 -630 -91 -26 -329
-26 -420 0 -291 80 -516 305 -596 596 -26 91 -26 329 0 420 120 433 542 692
982 601z"/>
<path d="M689 1341 c-16 -16 -29 -39 -29 -50 0 -21 5 -21 228 -23 l227 -2
-257 -6 c-254 -5 -257 -5 -282 -29 l-26 -24 0 -244 0 -244 25 -24 c15 -16 36
-25 55 -25 27 0 30 -3 30 -30 0 -19 9 -40 25 -55 l24 -25 246 0 246 0 24 25
c14 13 25 35 25 49 l0 26 -222 3 -223 2 253 3 253 2 24 25 25 24 0 244 c0 241
0 244 -23 265 -13 12 -37 25 -55 28 -26 5 -32 11 -32 31 0 14 -13 37 -29 54
l-29 29 -237 0 -237 0 -29 -29z m69 -34 c3 -12 -3 -17 -22 -17 -25 0 -35 18
-19 34 12 12 38 2 41 -17z m82 3 c0 -13 -7 -20 -20 -20 -13 0 -20 7 -20 20 0
13 7 20 20 20 13 0 20 -7 20 -20z m90 0 c0 -13 -7 -20 -20 -20 -13 0 -20 7
-20 20 0 13 7 20 20 20 13 0 20 -7 20 -20z m90 0 c0 -13 -7 -20 -20 -20 -13 0
-20 7 -20 20 0 13 7 20 20 20 13 0 20 -7 20 -20z m90 0 c0 -13 -7 -20 -20 -20
-13 0 -20 7 -20 20 0 13 7 20 20 20 13 0 20 -7 20 -20z m88 -3 c3 -12 -3 -17
-22 -17 -25 0 -35 18 -19 34 12 12 38 2 41 -17z m-94 -146 c3 -5 -1 -31 -9
-57 -8 -27 -15 -52 -15 -56 0 -4 30 -8 68 -10 59 -3 67 -5 67 -23 0 -16 -8
-21 -42 -23 -40 -3 -43 -5 -43 -33 0 -27 2 -29 40 -29 33 0 40 -3 40 -20 0
-17 -7 -20 -39 -20 l-40 0 -3 -47 c-3 -44 -5 -48 -28 -48 -25 0 -25 1 -30 109
l-5 109 -28 -86 c-16 -48 -26 -96 -22 -107 3 -10 1 -28 -4 -39 -27 -50 -101
-27 -102 32 0 49 -52 181 -72 185 -15 3 -17 -8 -17 -97 l0 -101 -30 0 -30 0 0
100 0 100 -35 0 c-28 0 -35 4 -35 20 0 19 7 20 103 20 l103 0 29 -90 c16 -49
32 -90 35 -90 4 0 26 60 50 133 23 72 46 142 51 155 9 22 33 30 43 13z m-344
-541 c0 -13 -7 -20 -19 -20 -22 0 -35 15 -26 30 12 19 45 11 45 -10z m80 0 c0
-13 -7 -20 -20 -20 -13 0 -20 7 -20 20 0 13 7 20 20 20 13 0 20 -7 20 -20z
m90 0 c0 -13 -7 -20 -20 -20 -13 0 -20 7 -20 20 0 13 7 20 20 20 13 0 20 -7
20 -20z m90 0 c0 -13 -7 -20 -20 -20 -13 0 -20 7 -20 20 0 13 7 20 20 20 13 0
20 -7 20 -20z m90 0 c0 -13 -7 -20 -20 -20 -13 0 -20 7 -20 20 0 13 7 20 20
20 13 0 20 -7 20 -20z m85 0 c0 -8 -10 -16 -22 -18 -18 -3 -23 2 -23 18 0 16
5 21 23 18 12 -2 22 -10 22 -18z"/>
</g>
</svg>
