<?xml version="1.0" standalone="no"?>
<!DOCTYPE svg PUBLIC "-//W3C//DTD SVG 20010904//EN"
 "http://www.w3.org/TR/2001/REC-SVG-20010904/DTD/svg10.dtd">
<svg version="1.0" xmlns="http://www.w3.org/2000/svg"
 width="192.000000pt" height="192.000000pt" viewBox="0 0 192.000000 192.000000"
 preserveAspectRatio="xMidYMid meet">
<metadata>
Created by potrace 1.16, written by Peter Selinger 2001-2019
</metadata>
<g transform="translate(0.000000,192.000000) scale(0.100000,-0.100000)"
fill="#000000" stroke="none">
811 c445 -92 729 -532 635 -987 -62 -301 -295 -546 -601 -630 -91 -26 -329
-26 -420 0 -291 80 -516 305 -596 596 -26 91 -26 329 0 420 120 433 542 692
982 601z"/>
<path d="M853 1365 c-124 -34 -213 -108 -270 -223 -36 -73 -38 -80 -38 -177 0
-97 2 -104 38 -177 155 -314 589 -314 744 0 36 73 38 80 38 177 0 97 -2 104
-38 177 -89 181 -286 273 -474 223z m242 -99 c97 -44 174 -146 191 -253 l7
-43 -35 0 c-34 0 -35 1 -52 61 -30 108 -137 189 -251 189 -114 0 -221 -81
-251 -189 -17 -60 -18 -61 -52 -61 l-35 0 7 43 c21 131 124 244 253 277 59 14
158 4 218 -24z m-44 -129 c49 -26 96 -85 105 -134 l7 -33 -208 0 -207 0 6 33
c17 86 108 157 201 157 35 0 66 -8 96 -23z"/>
</g>
</svg>
