<?xml version="1.0" standalone="no"?>
<!DOCTYPE svg PUBLIC "-//W3C//DTD SVG 20010904//EN"
 "http://www.w3.org/TR/2001/REC-SVG-20010904/DTD/svg10.dtd">
<svg version="1.0" xmlns="http://www.w3.org/2000/svg"
 width="192.000000pt" height="192.000000pt" viewBox="0 0 192.000000 192.000000"
 preserveAspectRatio="xMidYMid meet">
<metadata>
Created by potrace 1.16, written by Peter Selinger 2001-2019
</metadata>
<g transform="translate(0.000000,192.000000) scale(0.100000,-0.100000)"
fill="#000000" stroke="none">
811 c445 -92 729 -532 635 -987 -62 -301 -295 -546 -601 -630 -91 -26 -329
-26 -420 0 -291 80 -516 305 -596 596 -26 91 -26 329 0 420 120 433 542 692
982 601z"/>
<path d="M880 1371 c-94 -31 -177 -107 -204 -188 -26 -76 -21 -170 12 -236
l28 -56 -38 -118 c-44 -136 -47 -172 -17 -199 20 -18 40 -19 294 -19 357 0
349 -6 276 217 l-38 118 29 57 c27 54 29 65 26 143 -5 94 -18 128 -75 191 -52
58 -124 91 -203 95 -36 2 -76 0 -90 -5z m-57 -563 c61 -33 203 -33 265 0 32
17 44 19 47 10 23 -61 55 -164 55 -175 0 -10 -47 -13 -235 -13 -129 0 -235 3
-235 8 -1 10 54 192 58 192 1 0 22 -10 45 -22z"/>
</g>
</svg>
