<?xml version="1.0" standalone="no"?>
<!DOCTYPE svg PUBLIC "-//W3C//DTD SVG 20010904//EN"
 "http://www.w3.org/TR/2001/REC-SVG-20010904/DTD/svg10.dtd">
<svg version="1.0" xmlns="http://www.w3.org/2000/svg"
 width="192.000000pt" height="192.000000pt" viewBox="0 0 192.000000 192.000000"
 preserveAspectRatio="xMidYMid meet">
<metadata>
Created by potrace 1.16, written by Peter Selinger 2001-2019
</metadata>
<g transform="translate(0.000000,192.000000) scale(0.100000,-0.100000)"
fill="#000000" stroke="none">
811 c445 -92 729 -532 635 -987 -62 -301 -295 -546 -601 -630 -91 -26 -329
-26 -420 0 -291 80 -516 305 -596 596 -26 91 -26 329 0 420 120 433 542 692
982 601z"/>
<path d="M1009 1373 c-15 -2 -50 -18 -79 -36 -73 -44 -109 -109 -117 -209 -3
-40 -14 -89 -24 -109 -34 -68 -127 -129 -197 -129 -35 0 -35 -18 1 -94 42 -88
114 -163 194 -203 52 -25 68 -28 158 -28 93 0 105 2 166 32 81 40 150 111 190
196 55 119 61 230 18 360 -20 60 -20 66 -5 95 34 66 12 101 -55 84 -35 -9 -46
-7 -87 14 -48 24 -115 36 -163 27z m135 -99 c23 -9 20 -51 -4 -59 -27 -8 -40
1 -40 29 0 34 12 42 44 30z m-89 -354 c40 -37 50 -83 28 -127 -28 -58 -64 -78
-136 -78 -50 0 -71 6 -109 28 -26 15 -49 31 -52 36 -3 5 30 46 74 91 l80 83
46 -6 c28 -3 54 -13 69 -27z"/>
</g>
</svg>
