<?xml version="1.0" standalone="no"?>
<!DOCTYPE svg PUBLIC "-//W3C//DTD SVG 20010904//EN"
 "http://www.w3.org/TR/2001/REC-SVG-20010904/DTD/svg10.dtd">
<svg version="1.0" xmlns="http://www.w3.org/2000/svg"
 width="192.000000pt" height="192.000000pt" viewBox="0 0 192.000000 192.000000"
 preserveAspectRatio="xMidYMid meet">
<metadata>
Created by potrace 1.16, written by Peter Selinger 2001-2019
</metadata>
<g transform="translate(0.000000,192.000000) scale(0.100000,-0.100000)"
fill="#000000" stroke="none">
811 c445 -92 729 -532 635 -987 -62 -301 -295 -546 -601 -630 -91 -26 -329
-26 -420 0 -291 80 -516 305 -596 596 -26 91 -26 329 0 420 120 433 542 692
982 601z"/>
<path d="M597 1332 c-32 -36 -21 -62 103 -224 66 -87 123 -164 126 -171 2 -7
-47 -72 -111 -145 -119 -138 -132 -163 -97 -195 41 -37 63 -24 178 108 59 69
110 125 113 125 4 -1 42 -49 86 -107 111 -148 105 -143 175 -143 l60 0 -288
383 c-183 242 -296 383 -309 385 -10 2 -27 -6 -36 -16z"/>
<path d="M686 1338 c9 -15 552 -739 564 -752 27 -29 88 32 72 73 -4 10 -61 89
-127 175 -66 87 -120 161 -120 165 0 5 49 66 110 135 60 70 113 135 117 145
11 30 -14 66 -47 69 -17 1 -35 -1 -40 -5 -6 -5 -58 -61 -115 -127 l-104 -118
-21 24 c-11 13 -55 70 -98 126 l-77 102 -61 0 c-45 0 -58 -3 -53 -12z"/>
</g>
</svg>
