<?xml version="1.0" standalone="no"?>
<!DOCTYPE svg PUBLIC "-//W3C//DTD SVG 20010904//EN"
 "http://www.w3.org/TR/2001/REC-SVG-20010904/DTD/svg10.dtd">
<svg version="1.0" xmlns="http://www.w3.org/2000/svg"
 width="192.000000pt" height="192.000000pt" viewBox="0 0 192.000000 192.000000"
 preserveAspectRatio="xMidYMid meet">
<metadata>
Created by potrace 1.16, written by Peter Selinger 2001-2019
</metadata>
<g transform="translate(0.000000,192.000000) scale(0.100000,-0.100000)"
fill="#000000" stroke="none">
811 c445 -92 729 -532 635 -987 -62 -301 -295 -546 -601 -630 -91 -26 -329
-26 -420 0 -291 80 -516 305 -596 596 -26 91 -26 329 0 420 120 433 542 692
982 601z"/>
<path d="M960 1371 c-111 -34 -167 -110 -179 -246 -12 -131 -72 -202 -192
-227 -33 -7 -59 -17 -59 -24 0 -34 75 -156 125 -203 83 -79 149 -105 260 -106
81 0 97 3 158 32 125 60 214 181 237 327 12 79 7 133 -22 229 -20 65 -20 69
-3 106 29 64 20 76 -55 76 -46 1 -78 7 -110 23 -46 22 -112 27 -160 13z m168
-118 c4 -30 -31 -49 -52 -27 -19 19 -20 26 -4 42 19 19 53 10 56 -15z m-102
-337 c29 -29 34 -41 34 -79 0 -83 -56 -122 -162 -115 -92 6 -177 66 -131 92
10 5 45 38 77 73 55 59 62 63 103 63 38 0 50 -5 79 -34z"/>
</g>
</svg>
