<?xml version="1.0" standalone="no"?>
<!DOCTYPE svg PUBLIC "-//W3C//DTD SVG 20010904//EN"
 "http://www.w3.org/TR/2001/REC-SVG-20010904/DTD/svg10.dtd">
<svg version="1.0" xmlns="http://www.w3.org/2000/svg"
 width="192.000000pt" height="192.000000pt" viewBox="0 0 192.000000 192.000000"
 preserveAspectRatio="xMidYMid meet">
<metadata>
Created by potrace 1.16, written by Peter Selinger 2001-2019
</metadata>
<g transform="translate(0.000000,192.000000) scale(0.100000,-0.100000)"
fill="#000000" stroke="none">
811 c445 -92 729 -532 635 -987 -62 -301 -295 -546 -601 -630 -91 -26 -329
-26 -420 0 -291 80 -516 305 -596 596 -26 91 -26 329 0 420 120 433 542 692
982 601z"/>
<path d="M662 1345 c-16 -14 -42 -53 -56 -87 l-27 -63 3 -260 3 -260 90 -5 90
-5 3 -52 3 -53 47 0 c44 0 51 4 102 55 l54 55 70 0 69 0 103 103 c57 57 108
115 113 131 16 40 15 438 -1 454 -9 9 -95 12 -324 12 l-312 0 -30 -25z m303
-250 l0 -130 -30 -3 c-45 -6 -55 17 -55 131 0 117 9 139 53 135 l32 -3 0 -130z
m223 123 c17 -17 17 -229 0 -246 -7 -7 -21 -12 -33 -12 -12 0 -26 5 -33 12
-17 17 -17 229 0 246 15 15 51 15 66 0z"/>
</g>
</svg>
