<?xml version="1.0" standalone="no"?>
<!DOCTYPE svg PUBLIC "-//W3C//DTD SVG 20010904//EN"
 "http://www.w3.org/TR/2001/REC-SVG-20010904/DTD/svg10.dtd">
<svg version="1.0" xmlns="http://www.w3.org/2000/svg"
 width="192.000000pt" height="192.000000pt" viewBox="0 0 192.000000 192.000000"
 preserveAspectRatio="xMidYMid meet">
<metadata>
Created by potrace 1.16, written by Peter Selinger 2001-2019
</metadata>
<g transform="translate(0.000000,192.000000) scale(0.100000,-0.100000)"
fill="#000000" stroke="none">
811 c445 -92 729 -532 635 -987 -62 -301 -295 -546 -601 -630 -91 -26 -329
-26 -420 0 -291 80 -516 305 -596 596 -26 91 -26 329 0 420 120 433 542 692
982 601z"/>
<path d="M597 1332 c-34 -37 -22 -64 104 -227 66 -87 123 -163 125 -169 2 -6
-48 -69 -111 -141 -119 -135 -134 -165 -99 -199 8 -9 28 -16 44 -16 24 0 46
19 137 124 59 68 111 122 115 119 4 -2 49 -58 99 -124 l91 -119 64 0 65 0
-288 383 c-194 257 -295 383 -309 385 -11 2 -28 -6 -37 -16z"/>
<path d="M680 1345 c0 -3 129 -177 287 -385 230 -305 291 -380 309 -380 24 0
54 34 54 61 0 9 -59 94 -130 188 l-131 171 111 126 c61 70 116 137 122 150 16
34 -12 74 -53 74 -34 0 -38 -4 -163 -148 -49 -56 -92 -99 -95 -96 -3 3 -47 58
-96 122 l-90 117 -63 3 c-34 2 -62 0 -62 -3z"/>
</g>
</svg>
