<?xml version="1.0" standalone="no"?>
<!DOCTYPE svg PUBLIC "-//W3C//DTD SVG 20010904//EN"
 "http://www.w3.org/TR/2001/REC-SVG-20010904/DTD/svg10.dtd">
<svg version="1.0" xmlns="http://www.w3.org/2000/svg"
 width="192.000000pt" height="192.000000pt" viewBox="0 0 192.000000 192.000000"
 preserveAspectRatio="xMidYMid meet">
<metadata>
Created by potrace 1.16, written by Peter Selinger 2001-2019
</metadata>
<g transform="translate(0.000000,192.000000) scale(0.100000,-0.100000)"
fill="#000000" stroke="none">
811 c445 -92 729 -532 635 -987 -62 -301 -295 -546 -601 -630 -91 -26 -329
-26 -420 0 -291 80 -516 305 -596 596 -26 91 -26 329 0 420 120 433 542 692
982 601z"/>
<path d="M930 1359 c-96 -43 -138 -110 -149 -234 -12 -132 -73 -203 -192 -226
-32 -6 -59 -17 -59 -23 0 -6 15 -43 34 -81 42 -88 108 -155 194 -197 60 -30
75 -33 157 -33 81 0 97 3 158 32 201 95 292 330 216 557 -19 56 -19 61 -3 106
25 70 16 84 -50 76 -45 -5 -63 -2 -108 19 -66 31 -136 32 -198 4z m195 -109
c0 -20 -6 -26 -26 -28 -30 -4 -46 22 -28 45 20 23 54 12 54 -17z m-99 -334
c28 -28 34 -42 34 -75 0 -79 -50 -121 -145 -121 -61 0 -116 22 -150 60 -16 19
-17 24 -5 28 8 3 44 36 80 74 62 63 69 68 109 68 36 0 49 -6 77 -34z"/>
</g>
</svg>
