<?xml version="1.0" standalone="no"?>
<!DOCTYPE svg PUBLIC "-//W3C//DTD SVG 20010904//EN"
 "http://www.w3.org/TR/2001/REC-SVG-20010904/DTD/svg10.dtd">
<svg version="1.0" xmlns="http://www.w3.org/2000/svg"
 width="192.000000pt" height="192.000000pt" viewBox="0 0 192.000000 192.000000"
 preserveAspectRatio="xMidYMid meet">
<metadata>
Created by potrace 1.16, written by Peter Selinger 2001-2019
</metadata>
<g transform="translate(0.000000,192.000000) scale(0.100000,-0.100000)"
fill="#000000" stroke="none">
811 c445 -92 729 -532 635 -987 -62 -301 -295 -546 -601 -630 -91 -26 -329
-26 -420 0 -291 80 -516 305 -596 596 -26 91 -26 329 0 420 120 433 542 692
982 601z"/>
<path d="M597 1332 c-33 -36 -21 -62 108 -230 69 -89 125 -166 125 -171 0 -4
-52 -67 -115 -140 -75 -86 -115 -140 -115 -155 0 -29 29 -56 60 -56 25 0 43
18 164 158 44 51 82 92 85 92 3 0 41 -46 83 -103 114 -151 109 -147 178 -147
l59 0 -288 383 c-184 244 -295 383 -307 385 -11 2 -28 -6 -37 -16z"/>
<path d="M686 1338 c8 -14 551 -737 565 -752 4 -5 19 -6 33 -2 25 6 44 43 37
75 -1 7 -58 86 -127 175 -68 88 -124 163 -123 166 0 3 51 64 114 135 95 108
115 135 115 162 0 34 -21 53 -59 53 -12 0 -49 -33 -98 -87 -43 -48 -94 -105
-114 -126 l-35 -40 -83 109 c-46 60 -92 117 -103 127 -25 21 -134 25 -122 5z"/>
</g>
</svg>
