<?xml version="1.0" standalone="no"?>
<!DOCTYPE svg PUBLIC "-//W3C//DTD SVG 20010904//EN"
 "http://www.w3.org/TR/2001/REC-SVG-20010904/DTD/svg10.dtd">
<svg version="1.0" xmlns="http://www.w3.org/2000/svg"
 width="192.000000pt" height="192.000000pt" viewBox="0 0 192.000000 192.000000"
 preserveAspectRatio="xMidYMid meet">
<metadata>
Created by potrace 1.16, written by Peter Selinger 2001-2019
</metadata>
<g transform="translate(0.000000,192.000000) scale(0.100000,-0.100000)"
fill="#000000" stroke="none">
811 c445 -92 729 -532 635 -987 -62 -301 -295 -546 -601 -630 -91 -26 -329
-26 -420 0 -291 80 -516 305 -596 596 -26 91 -26 329 0 420 120 433 542 692
982 601z"/>
<path d="M570 1270 c-11 -11 -20 -33 -20 -50 0 -54 28 -70 125 -70 l85 0 0
-238 c0 -219 2 -240 18 -255 25 -23 78 -21 102 3 19 19 20 33 20 255 l0 235
75 0 c86 0 115 18 115 70 0 17 -9 39 -20 50 -19 19 -33 20 -250 20 -217 0
-231 -1 -250 -20z"/>
<path d="M996 1059 c-57 -45 -21 -119 59 -119 l45 0 0 -128 c0 -115 2 -130 20
-150 26 -27 80 -29 103 -4 13 14 17 45 19 147 l3 130 42 3 c76 6 106 78 51
125 -17 14 -42 17 -168 17 -134 0 -150 -2 -174 -21z"/>
</g>
</svg>
