<?xml version="1.0" standalone="no"?>
<!DOCTYPE svg PUBLIC "-//W3C//DTD SVG 20010904//EN"
 "http://www.w3.org/TR/2001/REC-SVG-20010904/DTD/svg10.dtd">
<svg version="1.0" xmlns="http://www.w3.org/2000/svg"
 width="192.000000pt" height="192.000000pt" viewBox="0 0 192.000000 192.000000"
 preserveAspectRatio="xMidYMid meet">
<metadata>
Created by potrace 1.16, written by Peter Selinger 2001-2019
</metadata>
<g transform="translate(0.000000,192.000000) scale(0.100000,-0.100000)"
fill="#000000" stroke="none">
811 c445 -92 729 -532 635 -987 -62 -301 -295 -546 -601 -630 -91 -26 -329
-26 -420 0 -291 80 -516 305 -596 596 -26 91 -26 329 0 420 120 433 542 692
982 601z"/>
<path d="M1025 1316 c-89 -28 -169 -88 -202 -151 -30 -56 -93 -307 -82 -326
22 -43 75 -50 114 -17 20 18 33 49 55 133 40 147 47 163 89 190 73 49 168 50
217 4 34 -32 31 -86 -11 -244 -40 -151 -43 -190 -16 -205 30 -15 76 -12 100 8
27 21 101 299 101 377 0 60 -29 127 -73 173 -61 63 -193 89 -292 58z"/>
<path d="M621 1213 c-33 -27 -104 -307 -98 -388 10 -146 110 -231 267 -229 94
1 170 29 234 85 61 54 71 76 117 247 46 169 42 192 -36 192 -49 0 -74 -37
-109 -165 -18 -66 -39 -131 -47 -143 -8 -13 -38 -34 -67 -49 -43 -21 -62 -25
-109 -21 -46 4 -61 10 -80 32 -32 37 -30 80 12 246 40 161 42 185 16 200 -30
15 -76 12 -100 -7z"/>
</g>
</svg>
