<?xml version="1.0" standalone="no"?>
<!DOCTYPE svg PUBLIC "-//W3C//DTD SVG 20010904//EN"
 "http://www.w3.org/TR/2001/REC-SVG-20010904/DTD/svg10.dtd">
<svg version="1.0" xmlns="http://www.w3.org/2000/svg"
 width="192.000000pt" height="192.000000pt" viewBox="0 0 192.000000 192.000000"
 preserveAspectRatio="xMidYMid meet">
<metadata>
Created by potrace 1.16, written by Peter Selinger 2001-2019
</metadata>
<g transform="translate(0.000000,192.000000) scale(0.100000,-0.100000)"
fill="#000000" stroke="none">
811 c445 -92 729 -532 635 -987 -62 -301 -295 -546 -601 -630 -91 -26 -329
-26 -420 0 -291 80 -516 305 -596 596 -26 91 -26 329 0 420 120 433 542 692
982 601z"/>
<path d="M682 1309 c-25 -13 -55 -39 -70 -62 l-27 -41 0 -241 0 -241 27 -41
c16 -25 44 -49 72 -62 42 -21 55 -22 284 -19 l240 3 39 31 c76 62 78 70 78
329 0 259 -2 267 -78 329 l-39 31 -241 3 c-231 2 -244 2 -285 -19z m38 -199
l5 -75 30 0 30 0 5 75 c4 61 8 75 23 78 15 3 17 -6 17 -81 0 -94 -13 -118 -67
-119 -72 -2 -93 27 -93 126 0 67 5 78 30 74 11 -2 16 -21 20 -78z m185 57 c4
-15 17 -27 38 -33 38 -11 53 -45 43 -96 -8 -43 -44 -63 -91 -50 -30 8 -30 10
-33 83 -2 40 0 84 3 96 7 30 33 30 40 0z m206 -48 c13 -13 19 -30 17 -47 -3
-23 -9 -28 -43 -33 -28 -4 -35 -8 -24 -13 9 -4 22 -6 29 -4 22 5 22 -20 0 -32
-15 -8 -27 -8 -48 2 -23 11 -27 20 -30 65 -3 44 0 53 20 67 30 22 54 20 79 -5z
m119 2 c0 -10 -9 -21 -20 -24 -17 -4 -20 -14 -20 -57 0 -44 -3 -51 -17 -48
-28 5 -31 100 -4 127 27 27 61 28 61 2z m-436 -177 c9 -3 16 -12 16 -19 0 -16
-22 -25 -61 -25 -45 0 -38 -28 8 -32 27 -2 39 -8 41 -20 3 -15 -4 -18 -37 -18
-34 0 -41 -3 -41 -19 0 -16 8 -20 43 -23 29 -2 42 -8 42 -18 0 -12 -14 -15
-65 -15 l-65 0 -3 83 c-2 53 1 89 9 98 12 14 84 19 113 8z m206 -29 c0 -16 6
-25 15 -25 8 0 15 -7 15 -15 0 -9 -7 -18 -15 -21 -9 -4 -15 -19 -15 -35 0 -17
6 -32 15 -35 8 -4 15 -12 15 -20 0 -21 -48 -17 -60 5 -11 22 -14 154 -3 164
15 16 33 6 33 -18z m-76 -41 c18 -18 22 -109 5 -119 -6 -4 -26 -7 -46 -8 -35
-1 -63 21 -63 49 0 21 30 44 56 44 14 0 22 4 19 10 -3 6 -19 10 -36 10 -28 0
-37 9 -22 23 12 13 72 7 87 -9z m206 1 c0 -8 -9 -15 -20 -15 -28 0 -25 -19 6
-30 21 -8 25 -15 22 -42 -3 -30 -6 -33 -42 -36 -24 -2 -42 2 -47 9 -12 20 0
30 27 23 29 -7 33 12 4 21 -29 9 -43 40 -30 65 13 25 80 29 80 5z"/>
<path d="M910 1060 c0 -29 4 -40 15 -40 11 0 15 11 15 40 0 29 -4 40 -15 40
-11 0 -15 -11 -15 -40z"/>
<path d="M1050 1085 c0 -8 9 -15 20 -15 11 0 20 7 20 15 0 8 -9 15 -20 15 -11
0 -20 -7 -20 -15z"/>
<path d="M860 795 c0 -8 9 -15 20 -15 11 0 20 7 20 15 0 8 -9 15 -20 15 -11 0
-20 -7 -20 -15z"/>
</g>
</svg>
