<?xml version="1.0" standalone="no"?>
<!DOCTYPE svg PUBLIC "-//W3C//DTD SVG 20010904//EN"
 "http://www.w3.org/TR/2001/REC-SVG-20010904/DTD/svg10.dtd">
<svg version="1.0" xmlns="http://www.w3.org/2000/svg"
 width="192.000000pt" height="192.000000pt" viewBox="0 0 192.000000 192.000000"
 preserveAspectRatio="xMidYMid meet">
<metadata>
Created by potrace 1.16, written by Peter Selinger 2001-2019
</metadata>
<g transform="translate(0.000000,192.000000) scale(0.100000,-0.100000)"
fill="#000000" stroke="none">
811 c445 -92 729 -532 635 -987 -62 -301 -295 -546 -601 -630 -91 -26 -329
-26 -420 0 -291 80 -516 305 -596 596 -26 91 -26 329 0 420 120 433 542 692
982 601z"/>
<path d="M720 1328 c-51 -14 -95 -52 -119 -101 -19 -40 -21 -60 -21 -260 0
-232 5 -264 53 -316 50 -54 83 -61 321 -61 204 0 223 1 264 21 29 15 54 37 73
67 l29 46 0 233 c0 174 -3 242 -14 266 -17 43 -76 93 -123 106 -48 14 -416 13
-463 -1z m-22 -303 c3 -79 9 -102 27 -109 35 -13 45 4 45 73 0 73 16 109 44
98 13 -5 16 -22 16 -92 0 -71 -3 -88 -20 -105 -38 -38 -102 -38 -140 0 -17 17
-20 34 -20 103 0 87 4 100 30 95 11 -2 16 -18 18 -63z m200 53 c7 -7 12 -20
12 -30 0 -12 7 -18 22 -18 39 0 58 -28 58 -86 0 -60 -21 -84 -73 -84 -60 0
-67 11 -67 113 0 85 8 117 30 117 3 0 11 -5 18 -12z m227 -64 c10 -11 15 -29
13 -53 -3 -34 -5 -36 -43 -42 l-40 -5 35 -5 c43 -5 47 -29 7 -43 -21 -8 -35
-7 -55 5 -24 13 -27 22 -30 74 -3 47 0 62 14 72 25 18 79 16 99 -3z m125 -3
c0 -10 -9 -21 -20 -24 -17 -4 -20 -14 -20 -60 0 -55 -9 -70 -37 -59 -20 7 -17
121 4 144 22 25 73 24 73 -1z"/>
<path d="M910 945 c0 -33 4 -45 13 -42 7 2 12 20 12 42 0 22 -5 40 -12 43 -9
2 -13 -10 -13 -43z"/>
<path d="M1065 980 c-3 -5 1 -10 10 -10 9 0 13 5 10 10 -3 6 -8 10 -10 10 -2
0 -7 -4 -10 -10z"/>
</g>
</svg>
