<?xml version="1.0" standalone="no"?>
<!DOCTYPE svg PUBLIC "-//W3C//DTD SVG 20010904//EN"
 "http://www.w3.org/TR/2001/REC-SVG-20010904/DTD/svg10.dtd">
<svg version="1.0" xmlns="http://www.w3.org/2000/svg"
 width="192.000000pt" height="192.000000pt" viewBox="0 0 192.000000 192.000000"
 preserveAspectRatio="xMidYMid meet">
<metadata>
Created by potrace 1.16, written by Peter Selinger 2001-2019
</metadata>
<g transform="translate(0.000000,192.000000) scale(0.100000,-0.100000)"
fill="#000000" stroke="none">
811 c445 -92 729 -532 635 -987 -62 -301 -295 -546 -601 -630 -91 -26 -329
-26 -420 0 -291 80 -516 305 -596 596 -26 91 -26 329 0 420 120 433 542 692
982 601z"/>
<path d="M740 1331 c-44 -9 -90 -33 -112 -58 -42 -46 -48 -83 -48 -308 0 -267
9 -297 105 -349 37 -20 54 -21 260 -21 121 0 232 3 247 8 40 11 98 66 119 112
16 35 19 68 19 248 0 226 -5 255 -58 310 -55 58 -69 61 -292 64 -113 1 -221
-2 -240 -6z m-42 -324 c2 -64 6 -78 22 -87 14 -8 26 -8 40 0 16 9 20 23 22 88
3 69 5 77 23 77 18 0 20 -8 23 -81 2 -69 0 -84 -18 -107 -18 -23 -29 -27 -70
-27 -71 0 -90 27 -90 131 0 75 7 92 35 85 6 -1 11 -37 13 -79z m200 50 c3 -22
9 -27 29 -27 43 0 63 -26 63 -81 0 -62 -17 -79 -81 -79 l-49 0 0 103 c0 57 3
107 7 111 13 12 28 -1 31 -27z m226 -43 c9 -8 16 -31 16 -50 0 -33 -1 -34 -40
-34 -22 0 -40 -4 -40 -10 0 -5 13 -10 28 -10 35 0 45 -9 31 -27 -16 -18 -74
-17 -93 3 -22 21 -21 102 1 126 20 22 76 24 97 2z m126 -3 c0 -10 -9 -21 -20
-24 -17 -4 -20 -14 -20 -56 0 -38 -4 -53 -16 -58 -25 -9 -35 17 -31 76 4 58
22 81 64 81 16 0 23 -6 23 -19z"/>
<path d="M904 976 c-10 -26 0 -71 16 -71 10 0 16 13 18 43 2 33 0 42 -13 42
-8 0 -18 -6 -21 -14z"/>
<path d="M1060 980 c0 -5 9 -10 21 -10 11 0 17 5 14 10 -3 6 -13 10 -21 10 -8
0 -14 -4 -14 -10z"/>
</g>
</svg>
