<?xml version="1.0" standalone="no"?>
<!DOCTYPE svg PUBLIC "-//W3C//DTD SVG 20010904//EN"
 "http://www.w3.org/TR/2001/REC-SVG-20010904/DTD/svg10.dtd">
<svg version="1.0" xmlns="http://www.w3.org/2000/svg"
 width="192.000000pt" height="192.000000pt" viewBox="0 0 192.000000 192.000000"
 preserveAspectRatio="xMidYMid meet">
<metadata>
Created by potrace 1.16, written by Peter Selinger 2001-2019
</metadata>
<g transform="translate(0.000000,192.000000) scale(0.100000,-0.100000)"
fill="#000000" stroke="none">
811 c445 -92 729 -532 635 -987 -62 -301 -295 -546 -601 -630 -91 -26 -329
-26 -420 0 -291 80 -516 305 -596 596 -26 91 -26 329 0 420 120 433 542 692
982 601z"/>
<path d="M720 1329 c-52 -16 -95 -53 -119 -102 -19 -40 -21 -60 -21 -260 0
-232 5 -264 53 -316 50 -54 83 -61 321 -61 204 0 223 1 264 21 29 15 54 37 73
67 l29 46 0 232 c0 247 -4 270 -48 317 -56 59 -68 62 -302 64 -126 1 -230 -2
-250 -8z m-20 -204 c5 -81 19 -105 54 -92 13 5 16 21 16 75 0 75 15 107 43 96
14 -5 17 -20 17 -91 0 -76 -2 -86 -25 -108 -34 -35 -96 -35 -130 0 -23 22 -25
32 -25 109 0 82 6 99 35 92 6 -1 12 -38 15 -81z m198 73 c7 -7 12 -20 12 -30
0 -11 7 -18 18 -18 10 0 28 -7 40 -16 18 -12 22 -25 22 -66 0 -65 -19 -88 -71
-88 -68 0 -69 2 -69 109 0 89 8 121 30 121 3 0 11 -5 18 -12z m224 -65 c11
-10 18 -30 18 -55 0 -38 0 -38 -42 -39 -34 -2 -37 -3 -13 -6 40 -6 51 -18 35
-38 -16 -20 -74 -19 -94 1 -22 21 -21 111 1 136 20 22 70 23 95 1z m128 -2 c0
-11 -9 -22 -20 -26 -15 -5 -20 -17 -22 -63 -3 -49 -6 -57 -23 -57 -18 0 -20 8
-23 62 -2 52 1 66 18 83 26 26 70 27 70 1z m-423 -273 c29 -29 53 -56 53 -61
0 -17 -94 -107 -112 -107 -29 0 -33 28 -8 55 l23 24 -64 3 c-56 3 -64 5 -64
23 0 17 8 20 58 23 59 3 68 10 42 32 -24 20 -18 60 9 60 6 0 34 -23 63 -52z"/>
<path d="M910 1065 c0 -33 4 -45 13 -42 7 2 12 20 12 42 0 22 -5 40 -12 43 -9
2 -13 -10 -13 -43z"/>
<path d="M1060 1090 c0 -5 7 -10 15 -10 8 0 15 5 15 10 0 6 -7 10 -15 10 -8 0
-15 -4 -15 -10z"/>
</g>
</svg>
