<?xml version="1.0" standalone="no"?>
<!DOCTYPE svg PUBLIC "-//W3C//DTD SVG 20010904//EN"
 "http://www.w3.org/TR/2001/REC-SVG-20010904/DTD/svg10.dtd">
<svg version="1.0" xmlns="http://www.w3.org/2000/svg"
 width="192.000000pt" height="192.000000pt" viewBox="0 0 192.000000 192.000000"
 preserveAspectRatio="xMidYMid meet">
<metadata>
Created by potrace 1.16, written by Peter Selinger 2001-2019
</metadata>
<g transform="translate(0.000000,192.000000) scale(0.100000,-0.100000)"
fill="#000000" stroke="none">
811 c445 -92 729 -532 635 -987 -62 -301 -295 -546 -601 -630 -91 -26 -329
-26 -420 0 -291 80 -516 305 -596 596 -26 91 -26 329 0 420 120 433 542 692
982 601z"/>
<path d="M850 1369 c-97 -19 -196 -89 -257 -180 -21 -32 -23 -42 -13 -54 10
-12 9 -28 -5 -80 -50 -182 40 -377 212 -462 52 -25 68 -28 163 -28 97 0 110 2
170 31 252 119 307 462 105 659 -101 99 -238 141 -375 114z m221 -108 c105
-50 180 -152 194 -265 9 -67 -14 -162 -53 -219 -106 -159 -338 -179 -436 -39
-37 53 -48 150 -22 200 23 45 36 48 20 4 -16 -46 -17 -57 -4 -104 13 -46 52
-93 94 -115 69 -36 186 -12 243 49 67 71 83 203 37 296 -32 65 -101 126 -166
148 -67 22 -178 16 -238 -13 l-45 -22 43 39 c60 54 110 70 207 66 57 -2 93 -9
126 -25z m-95 -134 c34 -18 81 -62 96 -92 9 -16 5 -15 -18 6 -64 59 -151 81
-231 58 -66 -18 -138 -89 -154 -152 -16 -59 -33 -62 -24 -4 15 90 81 172 161
197 40 13 134 5 170 -13z m27 -180 c19 -24 20 -31 8 -63 -10 -27 -10 -38 -1
-49 10 -12 5 -17 -23 -31 -97 -46 -186 74 -110 150 37 37 97 34 126 -7z"/>
</g>
</svg>
