<?xml version="1.0" standalone="no"?>
<!DOCTYPE svg PUBLIC "-//W3C//DTD SVG 20010904//EN"
 "http://www.w3.org/TR/2001/REC-SVG-20010904/DTD/svg10.dtd">
<svg version="1.0" xmlns="http://www.w3.org/2000/svg"
 width="192.000000pt" height="192.000000pt" viewBox="0 0 192.000000 192.000000"
 preserveAspectRatio="xMidYMid meet">
<metadata>
Created by potrace 1.16, written by Peter Selinger 2001-2019
</metadata>
<g transform="translate(0.000000,192.000000) scale(0.100000,-0.100000)"
fill="#000000" stroke="none">
811 c445 -92 729 -532 635 -987 -62 -301 -295 -546 -601 -630 -91 -26 -329
-26 -420 0 -291 80 -516 305 -596 596 -26 91 -26 329 0 420 120 433 542 692
982 601z"/>
<path d="M746 1368 c-59 -8 -131 -55 -131 -83 0 -13 13 -26 37 -37 44 -21 68
-53 68 -91 0 -37 -12 -59 -73 -132 -68 -81 -97 -146 -97 -215 1 -127 93 -231
217 -246 l48 -6 -31 20 c-77 49 -118 152 -95 235 17 60 59 108 145 166 139 94
182 179 141 278 -37 88 -119 128 -229 111z"/>
<path d="M1160 1194 c-6 -14 -10 -36 -10 -48 0 -29 -19 -46 -100 -87 l-65 -33
54 -8 c30 -5 92 -26 138 -48 119 -58 183 -53 183 11 0 60 -51 135 -109 159
-17 7 -32 24 -40 45 -15 41 -38 45 -51 9z"/>
<path d="M892 981 c-9 -5 3 -10 35 -13 70 -7 120 -34 189 -105 34 -35 68 -63
77 -63 8 0 34 7 57 15 23 8 53 15 67 15 27 0 43 28 23 40 -7 5 -34 11 -59 15
-25 4 -80 24 -121 45 -41 21 -93 43 -115 49 -48 13 -135 14 -153 2z"/>
<path d="M855 928 c-39 -9 -87 -45 -107 -82 -10 -18 -8 -17 17 2 67 53 161 48
221 -12 76 -76 61 -201 -30 -257 l-31 -19 133 0 c133 0 133 0 130 23 -2 16
-14 26 -44 35 -41 13 -41 13 -34 53 28 153 -107 290 -255 257z"/>
<path d="M812 823 c-82 -40 -82 -167 0 -209 96 -50 206 50 165 149 -17 40 -68
77 -107 77 -14 0 -40 -8 -58 -17z m108 -58 c15 -9 13 -98 -2 -93 -7 3 -14 19
-16 36 -4 43 -22 41 -22 -3 0 -24 -5 -35 -15 -35 -10 0 -15 11 -15 35 0 19 -4
35 -10 35 -5 0 -10 -16 -10 -35 0 -24 -5 -35 -15 -35 -20 0 -20 73 -1 93 15
14 84 16 106 2z"/>
</g>
</svg>
