<?xml version="1.0" standalone="no"?>
<!DOCTYPE svg PUBLIC "-//W3C//DTD SVG 20010904//EN"
 "http://www.w3.org/TR/2001/REC-SVG-20010904/DTD/svg10.dtd">
<svg version="1.0" xmlns="http://www.w3.org/2000/svg"
 width="192.000000pt" height="192.000000pt" viewBox="0 0 192.000000 192.000000"
 preserveAspectRatio="xMidYMid meet">
<metadata>
Created by potrace 1.16, written by Peter Selinger 2001-2019
</metadata>
<g transform="translate(0.000000,192.000000) scale(0.100000,-0.100000)"
fill="#000000" stroke="none">
811 c445 -92 729 -532 635 -987 -62 -301 -295 -546 -601 -630 -91 -26 -329
-26 -420 0 -291 80 -516 305 -596 596 -26 91 -26 329 0 420 120 433 542 692
982 601z"/>
<path d="M737 1369 c-71 -17 -134 -63 -125 -91 3 -7 22 -22 43 -33 86 -45 85
-106 -5 -216 -74 -91 -93 -129 -98 -202 -11 -138 88 -251 236 -270 24 -3 40
-1 36 4 -3 5 -10 9 -16 9 -22 0 -79 52 -97 88 -40 80 -34 164 15 230 14 17 58
54 97 81 117 80 167 146 167 221 0 36 -23 96 -48 123 -42 47 -136 73 -205 56z"/>
<path d="M1160 1201 c-5 -11 -10 -30 -10 -43 0 -37 -18 -54 -100 -98 -73 -38
-74 -39 -39 -40 44 0 133 -30 192 -64 47 -28 124 -35 145 -14 41 41 -20 166
-97 198 -17 7 -32 24 -40 45 -14 39 -35 45 -51 16z"/>
<path d="M885 981 c-16 -8 -11 -10 25 -10 65 -2 136 -39 206 -109 66 -66 82
-72 141 -47 19 8 46 15 60 15 27 0 43 28 22 41 -7 4 -32 11 -54 14 -22 3 -82
27 -133 52 -83 41 -103 47 -170 50 -43 1 -86 -1 -97 -6z"/>
<path d="M855 931 c-44 -11 -77 -35 -99 -72 l-19 -32 30 22 c112 84 265 9 265
-129 0 -60 -25 -106 -75 -139 -20 -13 -36 -26 -34 -27 1 -2 62 0 135 3 127 6
133 7 130 27 -2 14 -17 26 -44 36 l-40 15 8 40 c31 144 -117 291 -257 256z"/>
<path d="M808 824 c-35 -19 -58 -63 -58 -111 0 -124 167 -155 225 -43 20 39
19 69 -5 107 -35 58 -105 78 -162 47z"/>
</g>
</svg>
