<?xml version="1.0" standalone="no"?>
<!DOCTYPE svg PUBLIC "-//W3C//DTD SVG 20010904//EN"
 "http://www.w3.org/TR/2001/REC-SVG-20010904/DTD/svg10.dtd">
<svg version="1.0" xmlns="http://www.w3.org/2000/svg"
 width="192.000000pt" height="192.000000pt" viewBox="0 0 192.000000 192.000000"
 preserveAspectRatio="xMidYMid meet">
<metadata>
Created by potrace 1.16, written by Peter Selinger 2001-2019
</metadata>
<g transform="translate(0.000000,192.000000) scale(0.100000,-0.100000)"
fill="#000000" stroke="none">
811 c445 -92 729 -532 635 -987 -62 -301 -295 -546 -601 -630 -91 -26 -329
-26 -420 0 -291 80 -516 305 -596 596 -26 91 -26 329 0 420 120 433 542 692
982 601z"/>
<path d="M835 1352 c-116 -40 -199 -113 -252 -221 -25 -51 -28 -66 -28 -166 0
-104 2 -114 32 -176 29 -59 118 -159 140 -159 20 1 34 21 61 95 l29 80 -20 27
c-20 27 -39 105 -27 113 3 2 19 -3 34 -11 16 -7 31 -14 34 -14 15 0 -41 48
-100 86 -67 43 -88 67 -88 100 0 15 5 13 28 -9 15 -15 31 -27 33 -27 3 0 6 26
5 58 0 60 18 106 56 141 29 28 38 18 22 -26 -23 -67 -11 -155 28 -189 17 -16
18 -15 18 27 0 44 30 109 50 109 7 0 8 -6 2 -17 -45 -88 4 -177 57 -105 l20
27 1 -30 c0 -16 -11 -49 -25 -73 -23 -40 -24 -45 -9 -67 23 -36 42 -21 42 33
0 26 6 61 13 77 l13 30 5 -40 c5 -34 9 -40 31 -40 18 0 30 10 47 40 21 38 23
38 23 13 0 -15 -5 -39 -10 -54 -13 -34 -9 -38 24 -23 43 20 60 56 59 129 l-1
65 18 -35 c23 -42 25 -105 6 -142 -18 -34 -2 -37 31 -6 31 29 37 19 12 -21
-21 -35 -71 -61 -118 -61 -20 0 -32 -6 -35 -18 -4 -10 -15 -28 -25 -39 -20
-21 -20 -21 15 -61 19 -22 34 -47 34 -55 0 -23 -47 -56 -70 -50 -11 3 -36 2
-55 -1 -35 -7 -36 -8 -29 -44 4 -20 11 -43 17 -51 29 -35 185 28 263 106 155
155 159 402 9 562 -26 28 -66 61 -89 75 -95 56 -234 72 -331 38z"/>
</g>
</svg>
