<?xml version="1.0" standalone="no"?>
<!DOCTYPE svg PUBLIC "-//W3C//DTD SVG 20010904//EN"
 "http://www.w3.org/TR/2001/REC-SVG-20010904/DTD/svg10.dtd">
<svg version="1.0" xmlns="http://www.w3.org/2000/svg"
 width="192.000000pt" height="192.000000pt" viewBox="0 0 192.000000 192.000000"
 preserveAspectRatio="xMidYMid meet">
<metadata>
Created by potrace 1.16, written by Peter Selinger 2001-2019
</metadata>
<g transform="translate(0.000000,192.000000) scale(0.100000,-0.100000)"
fill="#000000" stroke="none">
811 c445 -92 729 -532 635 -987 -62 -301 -295 -546 -601 -630 -91 -26 -329
-26 -420 0 -291 80 -516 305 -596 596 -26 91 -26 329 0 420 120 433 542 692
982 601z"/>
<path d="M740 1368 c-55 -10 -125 -57 -125 -83 0 -13 13 -26 37 -37 44 -21 68
-53 68 -91 0 -37 -12 -59 -73 -132 -68 -81 -97 -146 -97 -215 1 -128 91 -230
217 -246 l48 -7 -35 24 c-74 52 -110 140 -91 225 15 65 55 112 145 173 111 75
156 138 156 219 0 29 -26 91 -48 115 -42 47 -125 70 -202 55z"/>
<path d="M1160 1194 c-6 -14 -10 -36 -10 -48 0 -29 -19 -46 -100 -87 l-65 -33
54 -8 c30 -5 91 -26 136 -48 119 -58 185 -54 185 11 0 60 -51 135 -109 159
-17 7 -32 24 -40 45 -15 41 -38 45 -51 9z"/>
<path d="M892 981 c-9 -5 3 -10 35 -13 70 -7 120 -34 189 -105 34 -35 68 -63
77 -63 8 0 34 7 57 15 23 8 53 15 67 15 27 0 43 28 23 40 -7 5 -34 11 -59 15
-25 4 -74 22 -108 40 -34 19 -85 41 -114 49 -57 17 -146 21 -167 7z"/>
<path d="M850 928 c-36 -10 -84 -48 -102 -82 -10 -18 -8 -17 17 2 67 53 161
48 221 -12 76 -76 61 -201 -30 -257 l-31 -19 133 0 c133 0 133 0 130 23 -2 16
-14 26 -44 35 -41 13 -41 13 -34 53 10 55 -5 127 -38 173 -46 66 -148 105
-222 84z"/>
<path d="M808 824 c-78 -42 -75 -169 4 -210 66 -34 147 2 169 76 29 97 -83
183 -173 134z m96 -70 c9 -8 16 -22 16 -30 0 -55 -66 -75 -96 -29 -15 23 -15
27 0 50 19 29 56 33 80 9z"/>
</g>
</svg>
