<?xml version="1.0" standalone="no"?>
<!DOCTYPE svg PUBLIC "-//W3C//DTD SVG 20010904//EN"
 "http://www.w3.org/TR/2001/REC-SVG-20010904/DTD/svg10.dtd">
<svg version="1.0" xmlns="http://www.w3.org/2000/svg"
 width="192.000000pt" height="192.000000pt" viewBox="0 0 192.000000 192.000000"
 preserveAspectRatio="xMidYMid meet">
<metadata>
Created by potrace 1.16, written by Peter Selinger 2001-2019
</metadata>
<g transform="translate(0.000000,192.000000) scale(0.100000,-0.100000)"
fill="#000000" stroke="none">
811 c445 -92 729 -532 635 -987 -62 -301 -295 -546 -601 -630 -91 -26 -329
-26 -420 0 -291 80 -516 305 -596 596 -26 91 -26 329 0 420 120 433 542 692
982 601z"/>
<path d="M724 1361 c-47 -22 -80 -59 -95 -110 -7 -23 -9 -134 -7 -307 l3 -271
27 -40 c46 -70 62 -73 346 -73 261 0 271 2 250 43 -8 15 -28 17 -207 17 -175
0 -200 2 -205 16 -4 9 0 24 9 34 11 12 15 39 15 94 l0 78 -60 72 c-33 40 -60
76 -60 81 0 15 172 195 186 195 32 0 13 -50 -41 -111 -30 -34 -55 -66 -55 -72
0 -6 27 -45 60 -88 l60 -77 0 -81 c0 -65 3 -81 15 -81 12 0 15 16 15 83 l0 82
60 75 c33 41 60 82 60 90 0 9 -25 40 -55 70 -41 41 -55 62 -55 83 0 18 5 27
13 25 16 -4 187 -181 187 -194 0 -5 -27 -43 -60 -84 l-60 -75 0 -77 0 -78 81
0 c76 0 82 2 110 29 l29 29 0 286 0 286 -29 32 -29 33 -234 3 c-210 2 -237 0
-274 -17z m300 -312 c30 -35 32 -49 11 -88 -15 -31 -33 -41 -70 -41 -37 0 -55
10 -71 42 -45 86 68 161 130 87z"/>
</g>
</svg>
