<?xml version="1.0" standalone="no"?>
<!DOCTYPE svg PUBLIC "-//W3C//DTD SVG 20010904//EN"
 "http://www.w3.org/TR/2001/REC-SVG-20010904/DTD/svg10.dtd">
<svg version="1.0" xmlns="http://www.w3.org/2000/svg"
 width="192.000000pt" height="192.000000pt" viewBox="0 0 192.000000 192.000000"
 preserveAspectRatio="xMidYMid meet">
<metadata>
Created by potrace 1.16, written by Peter Selinger 2001-2019
</metadata>
<g transform="translate(0.000000,192.000000) scale(0.100000,-0.100000)"
fill="#000000" stroke="none">
811 c445 -92 729 -532 635 -987 -62 -301 -295 -546 -601 -630 -91 -26 -329
-26 -420 0 -291 80 -516 305 -596 596 -26 91 -26 329 0 420 120 433 542 692
982 601z"/>
<path d="M695 1321 c-49 -22 -91 -69 -106 -119 -7 -24 -9 -116 -7 -259 l3
-221 30 -43 c38 -53 93 -82 167 -87 l58 -4 0 109 0 109 -70 84 c-38 47 -69 90
-69 95 -1 19 206 228 218 221 25 -16 8 -54 -54 -126 -36 -41 -65 -79 -65 -83
0 -5 30 -47 68 -95 l67 -86 5 -111 c3 -63 9 -110 15 -110 6 0 12 47 15 111 3
61 10 117 16 125 6 8 36 46 67 85 32 39 57 77 57 84 0 8 -29 44 -65 81 -45 47
-65 75 -65 92 0 14 4 28 8 31 13 8 226 -210 220 -226 -3 -7 -35 -50 -72 -95
l-66 -82 0 -107 0 -106 58 4 c74 5 129 34 167 87 l30 43 3 221 c4 240 -1 275
-45 328 -53 62 -83 69 -328 69 -192 0 -225 -3 -260 -19z m306 -251 c28 -16 52
-68 44 -99 -11 -46 -44 -71 -91 -71 -35 0 -47 5 -68 31 -35 41 -34 83 3 120
31 31 75 38 112 19z"/>
</g>
</svg>
