<?xml version="1.0" standalone="no"?>
<!DOCTYPE svg PUBLIC "-//W3C//DTD SVG 20010904//EN"
 "http://www.w3.org/TR/2001/REC-SVG-20010904/DTD/svg10.dtd">
<svg version="1.0" xmlns="http://www.w3.org/2000/svg"
 width="192.000000pt" height="192.000000pt" viewBox="0 0 192.000000 192.000000"
 preserveAspectRatio="xMidYMid meet">
<metadata>
Created by potrace 1.16, written by Peter Selinger 2001-2019
</metadata>
<g transform="translate(0.000000,192.000000) scale(0.100000,-0.100000)"
fill="#000000" stroke="none">
811 c445 -92 729 -532 635 -987 -62 -301 -295 -546 -601 -630 -91 -26 -329
-26 -420 0 -291 80 -516 305 -596 596 -26 91 -26 329 0 420 120 433 542 692
982 601z"/>
<path d="M753 1298 c-11 -13 -24 -33 -27 -45 -13 -42 -103 -168 -154 -216 -52
-48 -62 -73 -40 -95 15 -15 63 -16 90 -1 20 11 21 10 14 -27 -26 -143 -15
-217 39 -271 28 -28 40 -33 80 -33 26 0 63 7 82 16 53 26 122 112 184 229 l56
106 5 -64 c10 -124 56 -173 154 -165 63 5 119 43 140 94 17 41 18 55 1 78 -12
17 -16 15 -56 -18 -47 -40 -75 -45 -89 -18 -5 9 -12 76 -15 147 -5 140 -14
177 -47 195 -47 25 -64 8 -144 -146 -150 -287 -221 -368 -239 -275 -8 37 14
172 48 296 31 110 33 195 7 218 -26 24 -65 21 -89 -5z"/>
</g>
</svg>
