<?xml version="1.0" standalone="no"?>
<!DOCTYPE svg PUBLIC "-//W3C//DTD SVG 20010904//EN"
 "http://www.w3.org/TR/2001/REC-SVG-20010904/DTD/svg10.dtd">
<svg version="1.0" xmlns="http://www.w3.org/2000/svg"
 width="192.000000pt" height="192.000000pt" viewBox="0 0 192.000000 192.000000"
 preserveAspectRatio="xMidYMid meet">
<metadata>
Created by potrace 1.16, written by Peter Selinger 2001-2019
</metadata>
<g transform="translate(0.000000,192.000000) scale(0.100000,-0.100000)"
fill="#000000" stroke="none">
811 c445 -92 729 -532 635 -987 -62 -301 -295 -546 -601 -630 -91 -26 -329
-26 -420 0 -291 80 -516 305 -596 596 -26 91 -26 329 0 420 120 433 542 692
982 601z"/>
<path d="M666 1304 c-14 -13 -16 -50 -16 -254 0 -159 4 -241 11 -245 6 -4 75
-24 153 -45 l143 -37 142 32 c79 18 147 37 152 42 5 5 8 114 7 258 -3 217 -5
249 -19 258 -12 8 -54 4 -149 -13 l-131 -23 -123 21 c-147 26 -150 26 -170 6z
m222 -156 c8 -8 12 -45 12 -102 0 -97 13 -126 55 -126 49 0 60 21 65 132 l5
103 30 0 30 0 3 -113 3 -114 -39 -39 c-35 -35 -45 -39 -88 -39 -61 0 -110 28
-130 75 -18 43 -19 206 -2 223 7 7 19 12 28 12 9 0 21 -5 28 -12z"/>
<path d="M557 1212 c-15 -16 -17 -49 -17 -250 0 -190 3 -233 15 -245 8 -9 101
-36 207 -62 l192 -47 190 37 c105 21 199 41 209 46 15 9 17 31 17 252 0 244
-3 267 -36 267 -7 0 -20 -7 -28 -16 -14 -13 -16 -48 -16 -229 l0 -213 -47 -10
c-27 -6 -101 -21 -166 -33 l-117 -23 -138 33 c-75 19 -152 38 -169 43 l-33 9
0 219 c0 207 -1 220 -19 230 -25 13 -25 13 -44 -8z"/>
</g>
</svg>
