<?xml version="1.0" standalone="no"?>
<!DOCTYPE svg PUBLIC "-//W3C//DTD SVG 20010904//EN"
 "http://www.w3.org/TR/2001/REC-SVG-20010904/DTD/svg10.dtd">
<svg version="1.0" xmlns="http://www.w3.org/2000/svg"
 width="192.000000pt" height="192.000000pt" viewBox="0 0 192.000000 192.000000"
 preserveAspectRatio="xMidYMid meet">
<metadata>
Created by potrace 1.16, written by Peter Selinger 2001-2019
</metadata>
<g transform="translate(0.000000,192.000000) scale(0.100000,-0.100000)"
fill="#000000" stroke="none">
811 c445 -92 729 -532 635 -987 -62 -301 -295 -546 -601 -630 -91 -26 -329
-26 -420 0 -291 80 -516 305 -596 596 -26 91 -26 329 0 420 120 433 542 692
982 601z"/>
<path d="M575 1255 l-25 -24 0 -271 c0 -257 1 -271 20 -290 24 -24 77 -27 106
-6 16 12 19 29 22 120 l4 106 93 0 c138 0 139 2 143 175 4 150 -4 185 -44 204
-15 6 -81 11 -160 11 -130 0 -136 -1 -159 -25z m215 -175 l0 -50 -45 0 -45 0
0 50 0 50 45 0 45 0 0 -50z"/>
<path d="M1010 1273 c-25 -9 -40 -35 -40 -70 0 -46 30 -73 80 -73 l40 0 0
-223 c0 -251 2 -257 72 -257 66 0 68 9 68 258 l0 222 38 0 c21 0 48 7 60 16
19 13 23 23 20 62 -4 66 -21 72 -188 71 -74 0 -142 -3 -150 -6z"/>
</g>
</svg>
