<?xml version="1.0" standalone="no"?>
<!DOCTYPE svg PUBLIC "-//W3C//DTD SVG 20010904//EN"
 "http://www.w3.org/TR/2001/REC-SVG-20010904/DTD/svg10.dtd">
<svg version="1.0" xmlns="http://www.w3.org/2000/svg"
 width="192.000000pt" height="192.000000pt" viewBox="0 0 192.000000 192.000000"
 preserveAspectRatio="xMidYMid meet">
<metadata>
Created by potrace 1.16, written by Peter Selinger 2001-2019
</metadata>
<g transform="translate(0.000000,192.000000) scale(0.100000,-0.100000)"
fill="#000000" stroke="none">
811 c445 -92 729 -532 635 -987 -62 -301 -295 -546 -601 -630 -91 -26 -329
-26 -420 0 -291 80 -516 305 -596 596 -26 91 -26 329 0 420 120 433 542 692
982 601z"/>
<path d="M702 1330 c-38 -16 -75 -49 -99 -88 -22 -36 -23 -46 -23 -270 0 -259
3 -276 63 -329 56 -49 94 -55 336 -51 243 3 254 6 315 81 l31 39 3 244 c3 237
2 246 -19 284 -13 22 -40 52 -62 67 l-40 28 -241 2 c-138 1 -251 -2 -264 -7z
m499 -100 c38 -21 12 -79 -30 -65 -27 8 -32 29 -15 54 17 24 19 25 45 11z
m-168 -94 c140 -58 142 -274 3 -337 -147 -67 -292 53 -262 216 8 42 58 103
101 121 39 17 117 17 158 0z"/>
</g>
</svg>
