<?xml version="1.0" standalone="no"?>
<!DOCTYPE svg PUBLIC "-//W3C//DTD SVG 20010904//EN"
 "http://www.w3.org/TR/2001/REC-SVG-20010904/DTD/svg10.dtd">
<svg version="1.0" xmlns="http://www.w3.org/2000/svg"
 width="192.000000pt" height="192.000000pt" viewBox="0 0 192.000000 192.000000"
 preserveAspectRatio="xMidYMid meet">
<metadata>
Created by potrace 1.16, written by Peter Selinger 2001-2019
</metadata>
<g transform="translate(0.000000,192.000000) scale(0.100000,-0.100000)"
fill="#000000" stroke="none">
811 c445 -92 729 -532 635 -987 -62 -301 -295 -546 -601 -630 -91 -26 -329
-26 -420 0 -291 80 -516 305 -596 596 -26 91 -26 329 0 420 120 433 542 692
982 601z"/>
<path d="M719 1350 c-47 -25 -86 -71 -99 -118 -13 -49 -13 -486 1 -535 12 -43
59 -101 100 -123 15 -7 49 -14 74 -14 l46 0 -34 45 c-19 24 -40 65 -47 90 -11
41 -11 48 4 63 23 23 45 7 65 -48 12 -32 23 -46 39 -48 34 -5 42 32 42 202 0
151 5 176 36 176 7 0 20 -7 28 -16 13 -12 16 -41 18 -137 1 -115 2 -117 7 -42
7 87 13 105 40 105 32 0 41 -22 41 -102 0 -45 4 -78 10 -78 6 0 10 26 10 59 0
64 15 87 50 76 17 -6 20 -15 20 -71 0 -68 17 -89 22 -26 3 32 6 37 28 37 24 0
25 -2 24 -73 0 -78 -13 -106 -68 -146 -22 -17 -46 -21 -137 -24 -99 -4 -109
-6 -109 -23 0 -17 9 -19 107 -19 132 0 180 19 224 88 l29 46 0 271 0 271 -29
46 c-50 79 -82 88 -312 88 -171 -1 -198 -3 -230 -20z m259 -212 c20 -20 15
-66 -9 -78 -46 -25 -97 53 -51 79 23 14 45 14 60 -1z"/>
</g>
</svg>
