<?xml version="1.0" standalone="no"?>
<!DOCTYPE svg PUBLIC "-//W3C//DTD SVG 20010904//EN"
 "http://www.w3.org/TR/2001/REC-SVG-20010904/DTD/svg10.dtd">
<svg version="1.0" xmlns="http://www.w3.org/2000/svg"
 width="192.000000pt" height="192.000000pt" viewBox="0 0 192.000000 192.000000"
 preserveAspectRatio="xMidYMid meet">
<metadata>
Created by potrace 1.16, written by Peter Selinger 2001-2019
</metadata>
<g transform="translate(0.000000,192.000000) scale(0.100000,-0.100000)"
fill="#000000" stroke="none">
811 c445 -92 729 -532 635 -987 -62 -301 -295 -546 -601 -630 -91 -26 -329
-26 -420 0 -291 80 -516 305 -596 596 -26 91 -26 329 0 420 120 433 542 692
982 601z"/>
<path d="M613 1324 c-21 -22 -25 -32 -21 -68 13 -110 98 -225 207 -279 59 -29
74 -32 156 -32 82 0 97 3 156 32 109 54 194 169 207 279 4 36 0 46 -21 68
l-26 26 -316 0 -316 0 -26 -26z"/>
<path d="M883 876 c-95 -31 -160 -98 -185 -189 -14 -55 -2 -92 38 -107 39 -15
413 -13 444 3 55 28 48 111 -15 198 -60 83 -188 126 -282 95z"/>
</g>
</svg>
