<?xml version="1.0" standalone="no"?>
<!DOCTYPE svg PUBLIC "-//W3C//DTD SVG 20010904//EN"
 "http://www.w3.org/TR/2001/REC-SVG-20010904/DTD/svg10.dtd">
<svg version="1.0" xmlns="http://www.w3.org/2000/svg"
 width="192.000000pt" height="192.000000pt" viewBox="0 0 192.000000 192.000000"
 preserveAspectRatio="xMidYMid meet">
<metadata>
Created by potrace 1.16, written by Peter Selinger 2001-2019
</metadata>
<g transform="translate(0.000000,192.000000) scale(0.100000,-0.100000)"
fill="#000000" stroke="none">
811 c445 -92 729 -532 635 -987 -62 -301 -295 -546 -601 -630 -91 -26 -329
-26 -420 0 -291 80 -516 305 -596 596 -26 91 -26 329 0 420 120 433 542 692
982 601z"/>
<path d="M757 1239 c-131 -21 -227 -137 -227 -275 0 -134 90 -245 223 -274 49
-10 52 -10 125 32 41 24 80 42 85 40 6 -2 41 -21 77 -43 65 -38 69 -39 115
-29 142 32 225 133 225 275 0 144 -94 253 -240 279 -29 5 -47 -1 -110 -39
l-74 -44 -31 18 c-105 63 -118 68 -168 60z m333 -99 c0 -27 -2 -50 -6 -50 -9
0 -84 45 -84 50 0 5 70 47 83 49 4 1 7 -21 7 -49z m-180 -349 c0 -3 -18 -16
-40 -28 l-40 -21 0 49 0 50 40 -22 c22 -13 40 -25 40 -28z"/>
</g>
</svg>
