<?xml version="1.0" standalone="no"?>
<!DOCTYPE svg PUBLIC "-//W3C//DTD SVG 20010904//EN"
 "http://www.w3.org/TR/2001/REC-SVG-20010904/DTD/svg10.dtd">
<svg version="1.0" xmlns="http://www.w3.org/2000/svg"
 width="192.000000pt" height="192.000000pt" viewBox="0 0 192.000000 192.000000"
 preserveAspectRatio="xMidYMid meet">
<metadata>
Created by potrace 1.16, written by Peter Selinger 2001-2019
</metadata>
<g transform="translate(0.000000,192.000000) scale(0.100000,-0.100000)"
fill="#000000" stroke="none">
811 c445 -92 729 -532 635 -987 -62 -301 -295 -546 -601 -630 -91 -26 -329
-26 -420 0 -291 80 -516 305 -596 596 -26 91 -26 329 0 420 120 433 542 692
982 601z"/>
<path d="M848 1365 c-197 -54 -335 -266 -300 -462 13 -75 50 -163 68 -163 7 0
48 51 90 113 43 61 113 160 156 219 43 59 78 112 78 117 0 5 -16 21 -35 35
-68 52 -31 85 106 94 109 8 125 24 48 46 -62 19 -146 19 -211 1z"/>
<path d="M1000 1301 c-118 -14 -139 -32 -75 -70 19 -11 35 -28 35 -36 0 -9
-49 -85 -109 -168 -154 -216 -257 -370 -266 -396 -10 -32 8 -47 37 -34 49 22
681 578 713 627 22 33 10 52 -38 64 -57 15 -217 22 -297 13z"/>
<path d="M1170 1040 c-68 -61 -199 -177 -292 -257 -126 -109 -166 -149 -158
-158 6 -7 38 -25 73 -41 55 -26 73 -29 162 -29 91 0 106 3 165 31 95 46 153
101 197 192 35 69 38 84 41 171 4 104 -18 193 -49 199 -9 1 -71 -47 -139 -108z"/>
</g>
</svg>
