<?xml version="1.0" standalone="no"?>
<!DOCTYPE svg PUBLIC "-//W3C//DTD SVG 20010904//EN"
 "http://www.w3.org/TR/2001/REC-SVG-20010904/DTD/svg10.dtd">
<svg version="1.0" xmlns="http://www.w3.org/2000/svg"
 width="192.000000pt" height="192.000000pt" viewBox="0 0 192.000000 192.000000"
 preserveAspectRatio="xMidYMid meet">
<metadata>
Created by potrace 1.16, written by Peter Selinger 2001-2019
</metadata>
<g transform="translate(0.000000,192.000000) scale(0.100000,-0.100000)"
fill="#000000" stroke="none">
811 c445 -92 729 -532 635 -987 -62 -301 -295 -546 -601 -630 -91 -26 -329
-26 -420 0 -291 80 -516 305 -596 596 -26 91 -26 329 0 420 120 433 542 692
982 601z"/>
<path d="M636 1339 c-51 -12 -66 -25 -66 -58 0 -46 12 -50 144 -44 107 5 128
3 186 -17 124 -41 222 -125 278 -236 43 -87 55 -150 51 -276 -4 -122 2 -137
53 -125 33 9 47 47 54 147 21 275 -177 541 -448 605 -69 16 -191 18 -252 4z"/>
<path d="M636 1115 c-21 -8 -45 -20 -52 -26 -19 -15 -18 -63 1 -79 15 -13 29
-11 125 10 76 18 154 -5 217 -62 81 -76 104 -152 77 -265 -9 -39 -14 -79 -11
-87 8 -20 55 -32 76 -19 56 34 66 233 18 334 -33 68 -118 152 -184 181 -62 28
-209 35 -267 13z"/>
<path d="M674 900 c-33 -13 -82 -77 -90 -115 -10 -58 4 -105 45 -146 101 -101
271 -31 271 111 0 94 -65 160 -155 159 -27 0 -59 -4 -71 -9z"/>
</g>
</svg>
