<?xml version="1.0" standalone="no"?>
<!DOCTYPE svg PUBLIC "-//W3C//DTD SVG 20010904//EN"
 "http://www.w3.org/TR/2001/REC-SVG-20010904/DTD/svg10.dtd">
<svg version="1.0" xmlns="http://www.w3.org/2000/svg"
 width="192.000000pt" height="192.000000pt" viewBox="0 0 192.000000 192.000000"
 preserveAspectRatio="xMidYMid meet">
<metadata>
Created by potrace 1.16, written by Peter Selinger 2001-2019
</metadata>
<g transform="translate(0.000000,192.000000) scale(0.100000,-0.100000)"
fill="#000000" stroke="none">
811 c445 -92 729 -532 635 -987 -62 -301 -295 -546 -601 -630 -91 -26 -329
-26 -420 0 -291 80 -516 305 -596 596 -26 91 -26 329 0 420 120 433 542 692
982 601z"/>
<path d="M851 1365 c-207 -58 -338 -258 -304 -462 56 -324 445 -459 684 -237
91 86 130 175 130 300 0 175 -102 324 -263 386 -70 26 -178 32 -247 13z m180
-167 c51 -15 114 -70 140 -120 107 -209 -120 -436 -329 -329 -146 74 -177 275
-61 390 65 65 158 87 250 59z"/>
<path d="M894 1139 c-63 -18 -124 -104 -124 -177 0 -31 27 -92 53 -120 71 -77
210 -70 271 12 109 145 -25 336 -200 285z"/>
</g>
</svg>
