<?xml version="1.0" standalone="no"?>
<!DOCTYPE svg PUBLIC "-//W3C//DTD SVG 20010904//EN"
 "http://www.w3.org/TR/2001/REC-SVG-20010904/DTD/svg10.dtd">
<svg version="1.0" xmlns="http://www.w3.org/2000/svg"
 width="192.000000pt" height="192.000000pt" viewBox="0 0 192.000000 192.000000"
 preserveAspectRatio="xMidYMid meet">
<metadata>
Created by potrace 1.16, written by Peter Selinger 2001-2019
</metadata>
<g transform="translate(0.000000,192.000000) scale(0.100000,-0.100000)"
fill="#000000" stroke="none">
811 c445 -92 729 -532 635 -987 -62 -301 -295 -546 -601 -630 -91 -26 -329
-26 -420 0 -291 80 -516 305 -596 596 -26 91 -26 329 0 420 120 433 542 692
982 601z"/>
<path d="M601 1376 c-48 -26 -50 -43 -51 -327 0 -301 6 -337 67 -408 106 -124
299 -133 400 -18 35 40 63 119 63 179 l0 38 60 0 c47 0 64 -4 80 -20 41 -41
14 -94 -52 -105 -41 -6 -44 -10 -74 -71 -19 -41 -26 -64 -18 -64 33 0 166 31
192 44 95 49 120 172 51 250 l-29 34 20 43 c11 24 20 60 20 80 0 43 -36 115
-70 141 -35 25 -206 88 -242 88 -78 0 -88 -31 -88 -271 l0 -188 -26 -20 c-15
-12 -39 -21 -55 -21 -84 0 -89 19 -89 316 l0 246 -34 34 c-37 37 -81 44 -125
20z m572 -297 c25 -14 39 -56 27 -79 -16 -29 -46 -42 -85 -34 l-35 6 0 65 0
65 37 -7 c21 -4 46 -11 56 -16z"/>
</g>
</svg>
