<?xml version="1.0" standalone="no"?>
<!DOCTYPE svg PUBLIC "-//W3C//DTD SVG 20010904//EN"
 "http://www.w3.org/TR/2001/REC-SVG-20010904/DTD/svg10.dtd">
<svg version="1.0" xmlns="http://www.w3.org/2000/svg"
 width="192.000000pt" height="192.000000pt" viewBox="0 0 192.000000 192.000000"
 preserveAspectRatio="xMidYMid meet">
<metadata>
Created by potrace 1.16, written by Peter Selinger 2001-2019
</metadata>
<g transform="translate(0.000000,192.000000) scale(0.100000,-0.100000)"
fill="#000000" stroke="none">
811 c445 -92 729 -532 635 -987 -62 -301 -295 -546 -601 -630 -91 -26 -329
-26 -420 0 -291 80 -516 305 -596 596 -26 91 -26 329 0 420 120 433 542 692
982 601z"/>
<path d="M851 1364 c-79 -21 -147 -62 -199 -119 -187 -207 -125 -529 125 -648
64 -30 75 -32 178 -32 104 0 114 2 176 32 80 40 159 120 197 200 24 52 27 69
27 168 0 102 -2 115 -31 176 -85 180 -285 274 -473 223z m240 -93 c113 -54
184 -156 196 -285 5 -51 3 -67 -5 -62 -7 4 -12 17 -12 29 -1 24 -49 120 -50
99 0 -7 6 -25 14 -40 7 -15 17 -38 21 -52 7 -22 6 -23 -8 -12 -14 12 -17 9
-22 -22 -6 -27 -2 -41 14 -62 11 -14 19 -29 18 -33 -26 -58 -30 -61 -48 -45
-16 15 -19 13 -38 -25 -12 -22 -21 -46 -21 -53 0 -8 -13 -22 -30 -31 -16 -10
-30 -16 -30 -13 0 2 16 28 35 58 51 77 77 152 83 239 7 113 -20 175 -101 231
l-32 21 30 -33 c17 -18 24 -30 18 -26 -7 4 -13 3 -13 -3 0 -23 14 -42 46 -62
26 -16 34 -27 34 -50 l0 -30 -29 20 c-16 12 -31 21 -34 21 -3 0 -7 -16 -9 -35
-4 -31 0 -39 30 -62 29 -22 33 -30 28 -56 -10 -49 -22 -54 -55 -23 l-30 29
-23 -48 -23 -47 33 -29 33 -30 -31 -39 c-33 -41 -39 -42 -77 -8 l-21 20 -37
-41 c-21 -23 -46 -41 -57 -41 -16 0 -6 15 44 69 115 125 167 236 167 356 1 82
-22 142 -65 172 -37 25 -122 58 -131 49 -3 -3 1 -6 10 -6 9 0 21 -8 26 -19 6
-10 26 -22 45 -25 19 -4 45 -15 58 -26 26 -22 18 -24 -30 -11 -31 9 -33 8 -30
-12 2 -15 16 -26 48 -38 36 -13 46 -22 48 -43 4 -30 3 -31 -45 -11 -20 8 -37
14 -38 13 -2 -2 -6 -16 -9 -33 -6 -28 -4 -31 39 -48 47 -20 52 -30 33 -72
l-11 -25 -44 26 c-25 14 -46 24 -48 22 -1 -1 -10 -18 -20 -37 -17 -34 -17 -35
6 -52 69 -51 65 -42 34 -83 -15 -20 -30 -36 -34 -36 -4 0 -20 14 -36 30 -16
17 -33 30 -39 30 -5 0 -25 -14 -43 -31 l-32 -32 34 -41 c33 -41 34 -42 14 -54
-17 -11 -27 -9 -63 12 -72 42 -72 46 -10 96 31 24 76 71 101 105 117 154 135
297 48 374 -18 16 -31 32 -27 36 15 15 157 -2 203 -24z m-221 5 c0 -2 -13 -6
-29 -8 -17 -2 -28 -1 -25 4 5 8 54 12 54 4z m-5 -36 c40 0 54 -4 59 -16 5 -14
1 -16 -33 -10 -44 7 -71 0 -71 -19 0 -8 21 -14 56 -18 61 -6 80 -17 71 -41 -5
-12 -13 -13 -39 -5 -18 5 -45 9 -60 9 -23 0 -28 -5 -28 -23 0 -21 8 -25 55
-36 56 -13 65 -24 42 -55 -12 -17 -15 -16 -65 3 l-52 21 -16 -26 c-9 -13 -15
-26 -13 -28 2 -2 25 -15 52 -30 l47 -28 -21 -29 c-11 -16 -24 -29 -28 -29 -5
0 -25 14 -46 30 -21 17 -41 30 -45 30 -3 0 -17 -11 -29 -24 l-23 -24 37 -41
37 -41 -23 -20 c-13 -10 -29 -19 -35 -20 -13 0 -34 31 -53 77 -12 31 -12 33
30 70 56 50 114 141 129 201 9 39 8 56 -4 91 -12 37 -12 42 1 37 8 -3 39 -6
68 -6z m-95 -19 c0 -10 -24 -21 -43 -21 -7 0 -3 7 7 15 22 17 36 19 36 6z m10
-56 c0 -11 -11 -15 -39 -15 -22 0 -47 -3 -55 -6 -12 -5 -15 -2 -10 9 3 9 21
18 42 20 21 2 43 4 50 5 6 1 12 -5 12 -13z m-39 -55 c29 0 40 -22 19 -35 -19
-12 -110 15 -110 32 0 12 7 14 31 9 17 -3 44 -6 60 -6z m-53 -73 c43 -23 43
-23 23 -41 -20 -18 -22 -18 -54 4 -24 16 -33 29 -29 42 5 22 7 22 60 -5z m-48
-108 c0 -5 -4 -9 -10 -9 -5 0 -10 7 -10 16 0 8 5 12 10 9 6 -3 10 -10 10 -16z"/>
</g>
</svg>
