<?xml version="1.0" standalone="no"?>
<!DOCTYPE svg PUBLIC "-//W3C//DTD SVG 20010904//EN"
 "http://www.w3.org/TR/2001/REC-SVG-20010904/DTD/svg10.dtd">
<svg version="1.0" xmlns="http://www.w3.org/2000/svg"
 width="192.000000pt" height="192.000000pt" viewBox="0 0 192.000000 192.000000"
 preserveAspectRatio="xMidYMid meet">
<metadata>
Created by potrace 1.16, written by Peter Selinger 2001-2019
</metadata>
<g transform="translate(0.000000,192.000000) scale(0.100000,-0.100000)"
fill="#000000" stroke="none">
811 c445 -92 729 -532 635 -987 -62 -301 -295 -546 -601 -630 -91 -26 -329
-26 -420 0 -291 80 -516 305 -596 596 -26 91 -26 329 0 420 120 433 542 692
982 601z"/>
<path d="M695 1321 c-49 -22 -91 -69 -105 -119 -7 -23 -10 -117 -8 -258 l3
-221 28 -41 c15 -23 46 -52 70 -64 40 -22 52 -23 272 -23 220 0 232 1 272 23
24 12 55 41 70 64 l28 41 3 221 c4 239 -1 275 -45 327 -53 62 -83 69 -328 69
-192 0 -225 -3 -260 -19z m75 -157 c3 -32 11 -70 19 -83 20 -36 1 -71 -39 -71
-42 0 -60 38 -36 74 10 16 16 46 16 79 0 30 3 57 7 61 17 16 28 -5 33 -60z
m350 42 c14 -27 8 -56 -12 -56 -7 0 -28 -28 -47 -62 -40 -73 -54 -63 -17 11
14 28 26 60 26 71 0 21 20 60 31 60 3 0 11 -11 19 -24z m-297 -13 c-7 -2 -19
-2 -25 0 -7 3 -2 5 12 5 14 0 19 -2 13 -5z m0 -40 c-7 -2 -19 -2 -25 0 -7 3
-2 5 12 5 14 0 19 -2 13 -5z m337 -63 c22 -43 26 -65 10 -55 -10 6 -50 78 -50
90 0 18 23 -1 40 -35z m-337 23 c-7 -2 -19 -2 -25 0 -7 3 -2 5 12 5 14 0 19
-2 13 -5z m298 -213 c11 -6 19 -21 19 -35 0 -17 6 -25 22 -27 17 -2 25 -14 35
-53 7 -27 11 -56 8 -62 -3 -9 -34 -13 -105 -13 -71 0 -102 4 -105 13 -3 6 1
35 8 62 10 39 18 51 35 53 15 2 22 10 22 26 0 22 17 46 33 46 4 0 17 -5 28
-10z m-330 -20 c10 -6 19 -20 19 -31 0 -17 -4 -19 -35 -13 -28 5 -35 3 -35
-10 0 -12 9 -16 35 -16 35 0 35 0 35 -45 0 -39 -4 -47 -25 -57 -33 -15 -75 3
-75 32 0 18 4 20 35 14 28 -5 35 -3 35 9 0 10 -11 17 -32 19 -31 3 -33 6 -36
43 -5 55 31 80 79 55z"/>
<path d="M1083 874 c-8 -21 13 -42 28 -27 13 13 5 43 -11 43 -6 0 -13 -7 -17
-16z"/>
<path d="M1040 775 c0 -19 5 -35 10 -35 6 0 10 8 10 18 1 16 1 16 11 0 15 -26
32 -23 19 3 -9 15 -8 24 1 35 7 9 8 14 1 14 -6 0 -16 -8 -21 -17 -10 -17 -10
-17 -11 0 0 9 -4 17 -10 17 -5 0 -10 -16 -10 -35z"/>
<path d="M1109 794 c-16 -20 0 -49 27 -49 22 0 26 26 5 33 -10 3 -12 0 -7 -14
6 -15 4 -16 -5 -7 -17 17 -4 44 17 36 12 -4 15 -3 10 5 -10 17 -31 15 -47 -4z"/>
</g>
</svg>
