<?xml version="1.0" standalone="no"?>
<!DOCTYPE svg PUBLIC "-//W3C//DTD SVG 20010904//EN"
 "http://www.w3.org/TR/2001/REC-SVG-20010904/DTD/svg10.dtd">
<svg version="1.0" xmlns="http://www.w3.org/2000/svg"
 width="192.000000pt" height="192.000000pt" viewBox="0 0 192.000000 192.000000"
 preserveAspectRatio="xMidYMid meet">
<metadata>
Created by potrace 1.16, written by Peter Selinger 2001-2019
</metadata>
<g transform="translate(0.000000,192.000000) scale(0.100000,-0.100000)"
fill="#000000" stroke="none">
811 c445 -92 729 -532 635 -987 -62 -301 -295 -546 -601 -630 -91 -26 -329
-26 -420 0 -291 80 -516 305 -596 596 -26 91 -26 329 0 420 120 433 542 692
982 601z"/>
<path d="M583 1326 c-39 -18 -53 -43 -53 -94 0 -29 7 -46 26 -65 29 -30 102
-45 143 -31 24 9 26 15 29 71 3 56 0 65 -25 92 -33 37 -76 46 -120 27z"/>
<path d="M770 1197 c0 -81 -16 -97 -98 -97 -40 0 -79 6 -96 15 -15 8 -30 15
-32 15 -9 0 -3 -248 7 -290 13 -57 49 -105 99 -130 36 -18 59 -20 265 -20
l225 0 0 55 c0 73 21 95 90 95 28 0 67 -7 87 -15 19 -8 37 -15 39 -15 9 0 3
291 -7 317 -15 40 -57 82 -104 104 -35 16 -67 19 -257 19 l-218 0 0 -53z"/>
<path d="M1198 789 c-14 -8 -18 -23 -18 -69 0 -48 5 -64 25 -88 32 -38 72 -48
118 -28 42 17 57 41 57 94 0 29 -7 46 -25 64 -36 36 -118 50 -157 27z"/>
</g>
</svg>
