<?xml version="1.0" standalone="no"?>
<!DOCTYPE svg PUBLIC "-//W3C//DTD SVG 20010904//EN"
 "http://www.w3.org/TR/2001/REC-SVG-20010904/DTD/svg10.dtd">
<svg version="1.0" xmlns="http://www.w3.org/2000/svg"
 width="192.000000pt" height="192.000000pt" viewBox="0 0 192.000000 192.000000"
 preserveAspectRatio="xMidYMid meet">
<metadata>
Created by potrace 1.16, written by Peter Selinger 2001-2019
</metadata>
<g transform="translate(0.000000,192.000000) scale(0.100000,-0.100000)"
fill="#000000" stroke="none">
811 c445 -92 729 -532 635 -987 -62 -301 -295 -546 -601 -630 -91 -26 -329
-26 -420 0 -291 80 -516 305 -596 596 -26 91 -26 329 0 420 120 433 542 692
982 601z"/>
<path d="M606 1339 c-53 -42 -52 -54 7 -117 54 -57 55 -57 50 -108 -5 -50 -4
-54 36 -97 22 -24 41 -48 41 -53 0 -5 -39 -48 -87 -96 -112 -113 -113 -122
-18 -218 37 -38 79 -71 92 -75 34 -8 58 8 150 98 l83 81 95 -93 c115 -113 117
-113 223 -7 96 98 96 102 -17 219 l-89 92 40 44 c37 42 39 48 37 103 -2 59 -2
59 50 112 60 61 62 84 8 116 l-31 19 -57 -53 c-57 -53 -57 -53 -112 -48 -53 4
-56 3 -101 -38 l-47 -43 -27 25 c-54 50 -79 61 -131 55 -47 -6 -49 -4 -92 39
-61 63 -72 68 -103 43z"/>
</g>
</svg>
