<?xml version="1.0" standalone="no"?>
<!DOCTYPE svg PUBLIC "-//W3C//DTD SVG 20010904//EN"
 "http://www.w3.org/TR/2001/REC-SVG-20010904/DTD/svg10.dtd">
<svg version="1.0" xmlns="http://www.w3.org/2000/svg"
 width="192.000000pt" height="192.000000pt" viewBox="0 0 192.000000 192.000000"
 preserveAspectRatio="xMidYMid meet">
<metadata>
Created by potrace 1.16, written by Peter Selinger 2001-2019
</metadata>
<g transform="translate(0.000000,192.000000) scale(0.100000,-0.100000)"
fill="#000000" stroke="none">
811 c445 -92 729 -532 635 -987 -62 -301 -295 -546 -601 -630 -91 -26 -329
-26 -420 0 -291 80 -516 305 -596 596 -26 91 -26 329 0 420 120 433 542 692
982 601z"/>
<path d="M835 1357 c-66 -22 -106 -47 -163 -101 -144 -136 -169 -352 -61 -514
16 -24 29 -46 29 -49 0 -3 -12 -21 -26 -40 -16 -21 -24 -43 -22 -61 l3 -27
235 0 235 0 66 31 c163 78 260 257 230 430 -16 91 -58 169 -125 232 -83 78
-149 106 -266 109 -59 2 -110 -2 -135 -10z m252 -133 c96 -46 153 -136 160
-249 l4 -70 -24 26 c-60 66 -100 59 -161 -26 -22 -30 -40 -55 -41 -55 -1 0
-23 27 -48 60 -48 62 -81 79 -115 61 -11 -6 -48 -49 -83 -95 -56 -76 -64 -83
-75 -68 -29 37 -47 114 -42 176 17 210 234 333 425 240z"/>
</g>
</svg>
