<?xml version="1.0" standalone="no"?>
<!DOCTYPE svg PUBLIC "-//W3C//DTD SVG 20010904//EN"
 "http://www.w3.org/TR/2001/REC-SVG-20010904/DTD/svg10.dtd">
<svg version="1.0" xmlns="http://www.w3.org/2000/svg"
 width="192.000000pt" height="192.000000pt" viewBox="0 0 192.000000 192.000000"
 preserveAspectRatio="xMidYMid meet">
<metadata>
Created by potrace 1.16, written by Peter Selinger 2001-2019
</metadata>
<g transform="translate(0.000000,192.000000) scale(0.100000,-0.100000)"
fill="#000000" stroke="none">
810 c245 -63 441 -223 549 -451 55 -116 75 -212 75 -354 0 -141 -20 -238 -75
-352 -86 -182 -215 -312 -396 -398 -116 -55 -212 -75 -354 -75 -142 0 -238 20
-354 75 -228 108 -388 304 -451 549 -28 110 -28 292 0 402 76 298 303 526 600
603 106 28 298 28 406 1z"/>
<path d="M867 1320 c-43 -11 -89 -34 -129 -63 l-28 -21 -28 27 c-33 32 -67 35
-82 8 -5 -11 -10 -61 -10 -111 0 -83 2 -93 25 -115 22 -23 32 -25 115 -25 50
0 100 5 111 10 27 15 24 44 -12 84 -17 20 -27 41 -24 47 27 43 172 63 243 33
69 -28 130 -104 147 -182 8 -40 29 -62 60 -62 91 0 62 163 -47 273 -65 65
-139 98 -231 102 -39 3 -89 0 -110 -5z"/>
<path d="M617 972 c-61 -67 46 -261 180 -327 113 -56 274 -43 369 30 l35 27
35 -32 c33 -28 38 -30 57 -17 20 13 22 25 25 112 2 76 -1 103 -13 121 -15 24
-19 25 -133 22 -115 -3 -117 -3 -120 -27 -3 -16 7 -35 32 -60 l37 -37 -52 -28
c-137 -75 -308 -1 -349 151 -7 26 -20 56 -28 66 -20 22 -55 22 -75 -1z"/>
</g>
</svg>
