<?xml version="1.0" standalone="no"?>
<!DOCTYPE svg PUBLIC "-//W3C//DTD SVG 20010904//EN"
 "http://www.w3.org/TR/2001/REC-SVG-20010904/DTD/svg10.dtd">
<svg version="1.0" xmlns="http://www.w3.org/2000/svg"
 width="192.000000pt" height="192.000000pt" viewBox="0 0 192.000000 192.000000"
 preserveAspectRatio="xMidYMid meet">
<metadata>
Created by potrace 1.16, written by Peter Selinger 2001-2019
</metadata>
<g transform="translate(0.000000,192.000000) scale(0.100000,-0.100000)"
fill="#000000" stroke="none">
810 c245 -63 441 -223 549 -451 55 -116 75 -212 75 -354 0 -141 -20 -238 -75
-352 -86 -182 -215 -312 -396 -398 -116 -55 -212 -75 -354 -75 -142 0 -238 20
-354 75 -228 108 -388 304 -451 549 -28 110 -28 292 0 402 76 298 303 526 600
603 106 28 298 28 406 1z"/>
<path d="M849 1311 c-31 -10 -76 -32 -101 -49 l-45 -31 -28 29 c-61 64 -88 29
-83 -106 4 -122 9 -128 126 -132 142 -6 175 22 107 88 -28 28 -32 36 -22 48
41 50 177 68 253 33 61 -28 111 -85 131 -150 20 -67 38 -91 68 -91 38 0 59 33
52 85 -12 87 -76 183 -155 233 -95 61 -201 76 -303 43z"/>
<path d="M621 974 c-20 -15 -23 -23 -19 -65 7 -64 52 -151 106 -200 124 -115
301 -130 447 -38 l48 30 26 -25 c33 -31 66 -33 82 -5 15 30 8 201 -10 222 -11
14 -33 17 -120 17 -142 0 -164 -21 -95 -91 l36 -36 -34 -21 c-18 -11 -55 -26
-81 -33 -128 -32 -268 61 -292 194 -7 35 -35 67 -60 67 -6 0 -21 -7 -34 -16z"/>
</g>
</svg>
