<?xml version="1.0" standalone="no"?>
<!DOCTYPE svg PUBLIC "-//W3C//DTD SVG 20010904//EN"
 "http://www.w3.org/TR/2001/REC-SVG-20010904/DTD/svg10.dtd">
<svg version="1.0" xmlns="http://www.w3.org/2000/svg"
 width="192.000000pt" height="192.000000pt" viewBox="0 0 192.000000 192.000000"
 preserveAspectRatio="xMidYMid meet">
<metadata>
Created by potrace 1.16, written by Peter Selinger 2001-2019
</metadata>
<g transform="translate(0.000000,192.000000) scale(0.100000,-0.100000)"
fill="#000000" stroke="none">
810 c245 -63 441 -223 549 -451 55 -116 75 -212 75 -354 0 -141 -20 -238 -75
-352 -86 -182 -215 -312 -396 -398 -116 -55 -212 -75 -354 -75 -142 0 -238 20
-354 75 -228 108 -388 304 -451 549 -28 110 -28 292 0 402 76 298 303 526 600
603 106 28 298 28 406 1z"/>
<path d="M860 1314 c-30 -8 -77 -30 -105 -49 l-50 -34 -30 29 c-64 62 -88 30
-83 -105 4 -127 3 -126 147 -123 104 3 116 5 119 22 2 11 -10 33 -32 55 -35
36 -36 38 -18 54 53 48 173 62 248 28 61 -28 111 -85 131 -150 20 -67 38 -91
68 -91 38 0 59 33 52 85 -18 129 -126 244 -262 280 -72 18 -113 18 -185 -1z"/>
<path d="M621 974 c-21 -15 -23 -22 -18 -67 18 -151 160 -282 320 -294 82 -7
151 10 223 53 l57 35 27 -26 c14 -14 36 -25 48 -25 34 0 44 33 40 137 -4 121
-6 123 -143 123 -136 0 -157 -21 -89 -91 l36 -36 -34 -21 c-18 -11 -55 -26
-81 -33 -128 -32 -268 61 -292 194 -7 35 -35 67 -60 67 -6 0 -21 -7 -34 -16z"/>
</g>
</svg>
