<?xml version="1.0" standalone="no"?>
<!DOCTYPE svg PUBLIC "-//W3C//DTD SVG 20010904//EN"
 "http://www.w3.org/TR/2001/REC-SVG-20010904/DTD/svg10.dtd">
<svg version="1.0" xmlns="http://www.w3.org/2000/svg"
 width="192.000000pt" height="192.000000pt" viewBox="0 0 192.000000 192.000000"
 preserveAspectRatio="xMidYMid meet">
<metadata>
Created by potrace 1.16, written by Peter Selinger 2001-2019
</metadata>
<g transform="translate(0.000000,192.000000) scale(0.100000,-0.100000)"
fill="#000000" stroke="none">
810 c245 -63 441 -223 549 -451 55 -116 75 -212 75 -354 0 -141 -20 -238 -75
-352 -86 -182 -215 -312 -396 -398 -116 -55 -212 -75 -354 -75 -142 0 -238 20
-354 75 -228 108 -388 304 -451 549 -28 110 -28 292 0 402 76 298 303 526 600
603 106 28 298 28 406 1z"/>
<path d="M867 1320 c-43 -11 -89 -34 -129 -63 l-27 -20 -31 27 c-37 31 -65 33
-80 7 -5 -11 -10 -61 -10 -111 0 -83 2 -93 25 -115 22 -23 32 -25 115 -25 50
0 100 5 111 10 27 15 24 44 -12 84 -17 20 -27 41 -24 47 4 6 26 20 49 30 54
24 148 25 201 0 57 -25 120 -100 135 -159 14 -56 35 -82 66 -82 90 0 61 164
-48 273 -65 65 -139 98 -231 102 -39 3 -89 0 -110 -5z"/>
<path d="M617 972 c-39 -43 -3 -162 73 -245 121 -132 320 -156 469 -55 l44 29
26 -25 c29 -28 60 -33 79 -14 8 8 12 47 12 109 0 139 -2 141 -150 137 -112 -3
-115 -4 -118 -27 -3 -16 7 -35 32 -60 l37 -37 -53 -29 c-137 -75 -307 0 -348
152 -7 26 -20 56 -28 66 -20 22 -55 22 -75 -1z"/>
</g>
</svg>
