<?xml version="1.0" standalone="no"?>
<!DOCTYPE svg PUBLIC "-//W3C//DTD SVG 20010904//EN"
 "http://www.w3.org/TR/2001/REC-SVG-20010904/DTD/svg10.dtd">
<svg version="1.0" xmlns="http://www.w3.org/2000/svg"
 width="192.000000pt" height="192.000000pt" viewBox="0 0 192.000000 192.000000"
 preserveAspectRatio="xMidYMid meet">
<metadata>
Created by potrace 1.16, written by Peter Selinger 2001-2019
</metadata>
<g transform="translate(0.000000,192.000000) scale(0.100000,-0.100000)"
fill="#000000" stroke="none">
810 c245 -63 441 -223 549 -451 55 -116 75 -212 75 -354 0 -141 -20 -238 -75
-352 -86 -182 -215 -312 -396 -398 -116 -55 -212 -75 -354 -75 -142 0 -238 20
-354 75 -228 108 -388 304 -451 549 -28 110 -28 292 0 402 76 298 303 526 600
603 106 28 298 28 406 1z"/>
<path d="M885 1324 c-43 -11 -82 -28 -127 -56 l-48 -30 -31 26 c-36 31 -64 33
-79 7 -5 -11 -10 -61 -10 -111 0 -83 2 -93 25 -115 22 -23 32 -25 115 -25 50
0 100 5 111 10 27 15 24 44 -12 84 -17 20 -27 41 -24 47 4 6 26 20 49 30 76
35 194 20 256 -33 32 -27 68 -85 81 -128 15 -56 35 -80 65 -80 89 0 60 164
-48 273 -65 65 -138 98 -231 102 -39 2 -81 2 -92 -1z"/>
<path d="M622 974 c-46 -32 -13 -157 63 -242 122 -136 325 -162 473 -60 l44
30 27 -26 c32 -31 66 -34 81 -7 17 32 13 193 -6 219 -14 21 -23 22 -129 22
l-115 0 -6 -26 c-5 -21 1 -33 30 -63 l38 -38 -34 -21 c-44 -28 -119 -44 -167
-36 -98 16 -191 103 -206 194 -4 24 -15 46 -28 55 -27 19 -37 19 -65 -1z"/>
</g>
</svg>
