<?xml version="1.0" standalone="no"?>
<!DOCTYPE svg PUBLIC "-//W3C//DTD SVG 20010904//EN"
 "http://www.w3.org/TR/2001/REC-SVG-20010904/DTD/svg10.dtd">
<svg version="1.0" xmlns="http://www.w3.org/2000/svg"
 width="192.000000pt" height="192.000000pt" viewBox="0 0 192.000000 192.000000"
 preserveAspectRatio="xMidYMid meet">
<metadata>
Created by potrace 1.16, written by Peter Selinger 2001-2019
</metadata>
<g transform="translate(0.000000,192.000000) scale(0.100000,-0.100000)"
fill="#000000" stroke="none">
810 c245 -63 441 -223 549 -451 55 -116 75 -212 75 -354 0 -141 -20 -238 -75
-352 -86 -182 -215 -312 -396 -398 -116 -55 -212 -75 -354 -75 -142 0 -238 20
-354 75 -228 108 -388 304 -451 549 -28 110 -28 292 0 402 76 298 303 526 600
603 106 28 298 28 406 1z"/>
<path d="M877 1319 c-43 -10 -111 -43 -146 -71 -24 -19 -25 -19 -57 13 -18 18
-40 29 -50 27 -17 -3 -19 -15 -22 -117 -2 -75 1 -118 9 -127 9 -10 40 -14 125
-14 106 0 113 1 119 21 5 16 -2 31 -31 60 -43 44 -43 45 34 80 133 62 310 -26
337 -168 12 -68 62 -95 98 -55 23 25 21 66 -6 133 -31 75 -69 121 -132 163
-84 57 -186 77 -278 55z"/>
<path d="M621 974 c-21 -15 -23 -22 -18 -66 8 -63 59 -159 110 -204 84 -76
216 -111 325 -84 28 6 77 27 108 46 l57 35 28 -27 c17 -16 35 -24 50 -22 23 3
24 6 27 118 3 142 6 140 -133 140 -136 0 -154 -18 -90 -89 l36 -39 -33 -20
c-119 -74 -273 -37 -343 82 -14 24 -29 61 -32 81 -5 33 -33 65 -58 65 -6 0
-21 -7 -34 -16z"/>
</g>
</svg>
