<?xml version="1.0" standalone="no"?>
<!DOCTYPE svg PUBLIC "-//W3C//DTD SVG 20010904//EN"
 "http://www.w3.org/TR/2001/REC-SVG-20010904/DTD/svg10.dtd">
<svg version="1.0" xmlns="http://www.w3.org/2000/svg"
 width="192.000000pt" height="192.000000pt" viewBox="0 0 192.000000 192.000000"
 preserveAspectRatio="xMidYMid meet">
<metadata>
Created by potrace 1.16, written by Peter Selinger 2001-2019
</metadata>
<g transform="translate(0.000000,192.000000) scale(0.100000,-0.100000)"
fill="#000000" stroke="none">
810 c245 -63 441 -223 549 -451 55 -116 75 -212 75 -354 0 -141 -20 -238 -75
-352 -86 -182 -215 -312 -396 -398 -116 -55 -212 -75 -354 -75 -142 0 -238 20
-354 75 -228 108 -388 304 -451 549 -28 110 -28 292 0 402 76 298 303 526 600
603 106 28 298 28 406 1z"/>
<path d="M850 1312 c-30 -10 -74 -31 -97 -46 l-42 -28 -31 26 c-37 31 -65 33
-80 7 -5 -11 -10 -61 -10 -111 0 -83 2 -93 25 -115 22 -23 32 -25 115 -25 50
0 100 5 111 10 27 15 24 44 -12 84 -17 20 -27 41 -24 47 15 23 91 49 148 49
117 0 205 -66 238 -180 16 -56 35 -80 65 -80 64 0 70 84 13 191 -79 148 -263
223 -419 171z"/>
<path d="M622 974 c-46 -32 -13 -157 63 -242 65 -72 151 -115 245 -120 91 -5
137 6 214 53 l59 36 27 -26 c32 -31 65 -32 81 -4 15 30 8 201 -10 222 -11 14
-33 17 -120 17 -142 0 -164 -21 -95 -91 l36 -36 -34 -21 c-146 -90 -343 -6
-373 161 -7 35 -35 67 -60 67 -6 0 -21 -7 -33 -16z"/>
</g>
</svg>
