<?xml version="1.0" standalone="no"?>
<!DOCTYPE svg PUBLIC "-//W3C//DTD SVG 20010904//EN"
 "http://www.w3.org/TR/2001/REC-SVG-20010904/DTD/svg10.dtd">
<svg version="1.0" xmlns="http://www.w3.org/2000/svg"
 width="192.000000pt" height="192.000000pt" viewBox="0 0 192.000000 192.000000"
 preserveAspectRatio="xMidYMid meet">
<metadata>
Created by potrace 1.16, written by Peter Selinger 2001-2019
</metadata>
<g transform="translate(0.000000,192.000000) scale(0.100000,-0.100000)"
fill="#000000" stroke="none">
810 c245 -63 441 -223 549 -451 55 -116 75 -212 75 -354 0 -141 -20 -238 -75
-352 -86 -182 -215 -312 -396 -398 -116 -55 -212 -75 -354 -75 -142 0 -238 20
-354 75 -228 108 -388 304 -451 549 -28 110 -28 292 0 402 76 298 303 526 600
603 106 28 298 28 406 1z"/>
<path d="M861 1314 c-29 -8 -76 -30 -105 -49 l-51 -34 -31 30 c-19 18 -40 29
-50 27 -17 -3 -19 -15 -22 -119 -2 -91 0 -119 12 -128 9 -8 51 -11 127 -9 102
3 114 5 117 22 3 11 -11 34 -34 58 -43 43 -43 44 34 79 133 62 310 -27 337
-168 4 -21 14 -46 22 -55 35 -39 93 -8 93 48 -1 38 -39 131 -74 177 -57 75
-190 138 -286 136 -19 0 -59 -7 -89 -15z"/>
<path d="M621 974 c-21 -15 -23 -22 -18 -66 8 -63 59 -159 110 -204 84 -76
216 -111 325 -84 28 6 77 27 108 46 l57 35 28 -27 c17 -16 35 -24 50 -22 23 3
24 6 27 118 3 142 6 140 -133 140 -136 0 -154 -18 -90 -89 l36 -39 -33 -20
c-119 -74 -273 -37 -343 82 -14 24 -29 61 -32 81 -5 33 -33 65 -58 65 -6 0
-21 -7 -34 -16z"/>
</g>
</svg>
