<?xml version="1.0" standalone="no"?>
<!DOCTYPE svg PUBLIC "-//W3C//DTD SVG 20010904//EN"
 "http://www.w3.org/TR/2001/REC-SVG-20010904/DTD/svg10.dtd">
<svg version="1.0" xmlns="http://www.w3.org/2000/svg"
 width="192.000000pt" height="192.000000pt" viewBox="0 0 192.000000 192.000000"
 preserveAspectRatio="xMidYMid meet">
<metadata>
Created by potrace 1.16, written by Peter Selinger 2001-2019
</metadata>
<g transform="translate(0.000000,192.000000) scale(0.100000,-0.100000)"
fill="#000000" stroke="none">
811 c445 -92 729 -532 635 -987 -62 -301 -295 -546 -601 -630 -91 -26 -329
-26 -420 0 -291 80 -516 305 -596 596 -26 91 -26 329 0 420 120 433 542 692
982 601z"/>
<path d="M830 1348 c-144 -75 -197 -227 -142 -405 35 -110 119 -216 198 -249
112 -47 234 29 312 194 32 67 37 88 40 168 4 82 2 98 -20 146 -52 112 -132
168 -252 176 -65 4 -76 1 -136 -30z m159 -44 c40 -8 39 -16 -4 -37 -33 -16
-37 -16 -70 1 -40 20 -44 29 -12 35 37 7 53 7 86 1z m-118 -100 c28 -14 29
-17 16 -32 -29 -33 -69 -125 -82 -189 -8 -36 -16 -67 -18 -70 -3 -2 -13 17
-23 44 -23 58 -26 178 -5 215 24 46 65 57 112 32z m243 5 c59 -27 72 -165 24
-267 l-21 -47 -8 63 c-8 64 -41 149 -79 202 l-21 29 28 15 c34 19 45 19 77 5z
m-119 -145 c27 -53 30 -68 30 -156 0 -89 -2 -98 -25 -123 -35 -37 -77 -31
-108 15 -21 31 -23 43 -20 115 3 64 11 95 36 149 19 41 37 66 44 64 7 -3 27
-31 43 -64z"/>
<path d="M849 636 c-17 -18 -10 -55 14 -68 12 -6 54 -12 92 -12 39 0 80 6 93
12 23 13 31 55 12 67 -17 11 -200 11 -211 1z"/>
</g>
</svg>
