<?xml version="1.0" standalone="no"?>
<!DOCTYPE svg PUBLIC "-//W3C//DTD SVG 20010904//EN"
 "http://www.w3.org/TR/2001/REC-SVG-20010904/DTD/svg10.dtd">
<svg version="1.0" xmlns="http://www.w3.org/2000/svg"
 width="192.000000pt" height="192.000000pt" viewBox="0 0 192.000000 192.000000"
 preserveAspectRatio="xMidYMid meet">
<metadata>
Created by potrace 1.16, written by Peter Selinger 2001-2019
</metadata>
<g transform="translate(0.000000,192.000000) scale(0.100000,-0.100000)"
fill="#000000" stroke="none">
811 c445 -92 729 -532 635 -987 -62 -301 -295 -546 -601 -630 -91 -26 -329
-26 -420 0 -291 80 -516 305 -596 596 -26 91 -26 329 0 420 120 433 542 692
982 601z"/>
<path d="M872 1369 c-259 -51 -405 -336 -294 -574 40 -84 113 -157 200 -198
63 -30 74 -32 177 -32 99 0 116 3 168 27 74 35 166 123 200 191 150 308 -115
652 -451 586z m210 -107 c65 -28 133 -94 165 -161 24 -47 28 -68 27 -136 0
-66 -5 -90 -27 -137 -93 -191 -350 -243 -507 -101 -122 110 -145 282 -56 418
83 126 260 178 398 117z"/>
<path d="M862 1221 c-77 -27 -119 -66 -159 -150 -22 -46 -25 -63 -21 -121 11
-148 124 -253 272 -252 103 0 185 47 236 135 63 111 47 231 -44 322 -81 82
-176 103 -284 66z m138 -177 c104 -63 104 -92 -2 -154 -59 -35 -76 -41 -96
-34 -32 11 -45 57 -40 136 7 98 39 110 138 52z"/>
</g>
</svg>
