<?xml version="1.0" standalone="no"?>
<!DOCTYPE svg PUBLIC "-//W3C//DTD SVG 20010904//EN"
 "http://www.w3.org/TR/2001/REC-SVG-20010904/DTD/svg10.dtd">
<svg version="1.0" xmlns="http://www.w3.org/2000/svg"
 width="192.000000pt" height="192.000000pt" viewBox="0 0 192.000000 192.000000"
 preserveAspectRatio="xMidYMid meet">
<metadata>
Created by potrace 1.16, written by Peter Selinger 2001-2019
</metadata>
<g transform="translate(0.000000,192.000000) scale(0.100000,-0.100000)"
fill="#000000" stroke="none">
811 c445 -92 729 -532 635 -987 -62 -301 -295 -546 -601 -630 -91 -26 -329
-26 -420 0 -291 80 -516 305 -596 596 -26 91 -26 329 0 420 120 433 542 692
982 601z"/>
<path d="M775 1354 c-38 -8 -95 -27 -125 -42 l-55 -27 0 -230 0 -230 28 -57
c35 -71 70 -101 191 -161 125 -62 156 -62 279 -3 113 55 160 93 195 160 26 50
27 55 30 269 2 121 1 229 -2 240 -6 25 -81 58 -186 82 -82 19 -262 18 -355 -1z
m435 -318 c0 -107 -4 -205 -9 -218 -15 -41 -64 -80 -154 -124 l-87 -42 -80 35
c-94 43 -147 84 -166 129 -9 22 -14 75 -14 156 l0 123 50 33 c101 66 222 98
383 101 l77 1 0 -194z"/>
<path d="M917 1047 c-15 -11 -17 -29 -15 -142 3 -122 4 -130 23 -130 16 0 21
8 25 40 4 30 10 41 25 43 56 8 83 97 50 161 -21 42 -72 55 -108 28z m74 -59
c10 -38 -3 -92 -24 -96 -15 -3 -17 6 -17 63 0 57 2 66 17 63 9 -2 20 -15 24
-30z"/>
<path d="M1072 1044 c-33 -23 -28 -59 14 -98 41 -37 38 -56 -7 -56 -36 0 -38
-17 -3 -30 78 -30 118 77 43 115 -33 17 -34 38 -3 43 41 7 47 11 34 27 -16 19
-50 19 -78 -1z"/>
<path d="M750 972 c0 -93 12 -116 61 -116 66 0 69 4 69 104 0 83 -1 90 -20 90
-18 0 -20 -7 -20 -75 0 -59 -3 -77 -15 -82 -25 -9 -29 3 -33 83 -4 65 -7 74
-23 74 -17 0 -19 -8 -19 -78z"/>
</g>
</svg>
