<?xml version="1.0" standalone="no"?>
<!DOCTYPE svg PUBLIC "-//W3C//DTD SVG 20010904//EN"
 "http://www.w3.org/TR/2001/REC-SVG-20010904/DTD/svg10.dtd">
<svg version="1.0" xmlns="http://www.w3.org/2000/svg"
 width="192.000000pt" height="192.000000pt" viewBox="0 0 192.000000 192.000000"
 preserveAspectRatio="xMidYMid meet">
<metadata>
Created by potrace 1.16, written by Peter Selinger 2001-2019
</metadata>
<g transform="translate(0.000000,192.000000) scale(0.100000,-0.100000)"
fill="#000000" stroke="none">
811 c445 -92 729 -532 635 -987 -62 -301 -295 -546 -601 -630 -91 -26 -329
-26 -420 0 -291 80 -516 305 -596 596 -26 91 -26 329 0 420 120 433 542 692
982 601z"/>
<path d="M1255 1358 c-2 -13 -6 -131 -7 -263 -3 -229 -4 -243 -27 -293 -50
-110 -165 -179 -285 -170 -103 9 -182 60 -231 150 -29 52 -30 56 -33 221 -4
164 -3 170 19 193 31 33 82 32 114 -1 24 -23 25 -30 25 -152 0 -147 12 -183
71 -215 43 -23 76 -23 116 2 50 30 64 61 70 148 7 101 -1 149 -28 157 -39 13
-49 -11 -49 -109 0 -97 -14 -136 -48 -136 -43 1 -47 13 -52 164 -4 126 -8 148
-26 173 -74 99 -213 98 -272 -3 -21 -37 -22 -47 -20 -219 3 -172 4 -183 30
-237 34 -74 113 -152 186 -186 48 -22 71 -27 147 -27 82 0 96 3 157 33 83 40
158 119 189 200 22 53 24 75 27 310 4 270 2 282 -44 282 -16 0 -25 -7 -29 -22z"/>
<path d="M1142 1268 c-8 -8 -12 -59 -12 -164 0 -203 -9 -249 -59 -296 -62 -58
-149 -63 -211 -11 -55 46 -64 75 -68 226 -4 127 -6 138 -25 149 -17 9 -24 7
-40 -13 -18 -22 -19 -36 -15 -154 5 -154 21 -198 90 -262 120 -109 303 -73
375 75 26 53 27 64 31 234 4 153 2 181 -12 203 -18 27 -35 32 -54 13z"/>
</g>
</svg>
