<?xml version="1.0" standalone="no"?>
<!DOCTYPE svg PUBLIC "-//W3C//DTD SVG 20010904//EN"
 "http://www.w3.org/TR/2001/REC-SVG-20010904/DTD/svg10.dtd">
<svg version="1.0" xmlns="http://www.w3.org/2000/svg"
 width="192.000000pt" height="192.000000pt" viewBox="0 0 192.000000 192.000000"
 preserveAspectRatio="xMidYMid meet">
<metadata>
Created by potrace 1.16, written by Peter Selinger 2001-2019
</metadata>
<g transform="translate(0.000000,192.000000) scale(0.100000,-0.100000)"
fill="#000000" stroke="none">
811 c445 -92 729 -532 635 -987 -62 -301 -295 -546 -601 -630 -91 -26 -329
-26 -420 0 -291 80 -516 305 -596 596 -26 91 -26 329 0 420 120 433 542 692
982 601z"/>
<path d="M1156 1185 c-88 -31 -145 -119 -146 -223 0 -130 65 -209 193 -232
126 -24 221 36 157 100 -17 17 -28 19 -80 13 -95 -10 -140 28 -140 117 0 92
54 136 150 125 55 -6 59 -5 76 20 21 32 7 70 -32 85 -36 14 -132 12 -178 -5z"/>
<path d="M547 1172 c-14 -15 -17 -42 -17 -158 1 -183 20 -230 113 -269 47 -19
147 -19 195 1 93 38 122 105 122 279 0 98 -3 116 -21 139 -24 31 -68 35 -92 8
-14 -15 -17 -40 -17 -128 0 -163 -17 -203 -88 -204 -22 0 -41 8 -57 25 -24 23
-25 30 -25 145 0 149 -12 179 -71 180 -14 0 -33 -8 -42 -18z"/>
</g>
</svg>
