<?xml version="1.0" standalone="no"?>
<!DOCTYPE svg PUBLIC "-//W3C//DTD SVG 20010904//EN"
 "http://www.w3.org/TR/2001/REC-SVG-20010904/DTD/svg10.dtd">
<svg version="1.0" xmlns="http://www.w3.org/2000/svg"
 width="192.000000pt" height="192.000000pt" viewBox="0 0 192.000000 192.000000"
 preserveAspectRatio="xMidYMid meet">
<metadata>
Created by potrace 1.16, written by Peter Selinger 2001-2019
</metadata>
<g transform="translate(0.000000,192.000000) scale(0.100000,-0.100000)"
fill="#000000" stroke="none">
811 c445 -92 729 -532 635 -987 -62 -301 -295 -546 -601 -630 -91 -26 -329
-26 -420 0 -291 80 -516 305 -596 596 -26 91 -26 329 0 420 120 433 542 692
982 601z"/>
<path d="M685 1366 c-39 -18 -80 -62 -99 -108 -22 -53 -23 -543 -1 -572 14
-18 332 -136 368 -136 36 0 350 114 368 134 18 18 19 39 19 280 0 233 -2 265
-19 301 -22 47 -64 89 -104 104 -44 17 -494 14 -532 -3z m447 -276 c38 -11 64
-41 53 -60 -10 -16 -57 -12 -76 6 -19 17 -53 12 -47 -8 2 -6 25 -16 51 -23 86
-22 110 -68 63 -122 -22 -25 -30 -28 -89 -28 -56 0 -69 4 -91 24 -38 35 -33
51 13 51 22 0 43 -4 46 -10 8 -13 52 -13 60 -1 7 13 -7 20 -62 34 -30 8 -53
22 -67 40 -19 26 -19 30 -5 55 13 25 62 50 99 51 8 1 32 -4 52 -9z m-334 -83
c2 -57 7 -79 18 -84 31 -11 44 17 44 93 l0 74 45 0 45 0 0 -115 0 -115 -39 0
c-22 0 -43 5 -46 10 -4 7 -14 5 -28 -5 -32 -22 -74 -19 -102 10 -23 22 -25 31
-25 120 l0 96 43 -3 42 -3 3 -78z"/>
</g>
</svg>
