<?xml version="1.0" standalone="no"?>
<!DOCTYPE svg PUBLIC "-//W3C//DTD SVG 20010904//EN"
 "http://www.w3.org/TR/2001/REC-SVG-20010904/DTD/svg10.dtd">
<svg version="1.0" xmlns="http://www.w3.org/2000/svg"
 width="192.000000pt" height="192.000000pt" viewBox="0 0 192.000000 192.000000"
 preserveAspectRatio="xMidYMid meet">
<metadata>
Created by potrace 1.16, written by Peter Selinger 2001-2019
</metadata>
<g transform="translate(0.000000,192.000000) scale(0.100000,-0.100000)"
fill="#000000" stroke="none">
811 c445 -92 729 -532 635 -987 -62 -301 -295 -546 -601 -630 -91 -26 -329
-26 -420 0 -291 80 -516 305 -596 596 -26 91 -26 329 0 420 120 433 542 692
982 601z"/>
<path d="M694 1316 c-33 -15 -89 -77 -97 -107 -4 -15 0 -19 21 -19 14 0 72
-27 129 -60 56 -33 104 -60 106 -60 2 0 12 37 22 83 26 124 23 121 113 113 67
-5 91 -15 92 -37 0 -4 -14 -9 -30 -13 -27 -5 -30 -8 -24 -33 4 -16 7 -29 8
-29 1 -1 53 -31 116 -68 68 -39 126 -66 143 -66 l29 0 -4 93 c-3 82 -6 99 -31
135 -50 76 -73 82 -334 82 -168 -1 -236 -4 -259 -14z"/>
<path d="M947 1170 c-4 -14 -16 -63 -27 -109 -10 -46 -21 -85 -23 -88 -2 -2
-63 31 -135 72 -124 72 -160 85 -169 59 -2 -7 5 -10 19 -7 16 3 64 -20 148
-69 125 -73 143 -93 121 -127 -7 -11 -32 -1 -124 52 -105 61 -167 82 -167 57
0 -5 12 -10 27 -10 14 0 77 -29 140 -66 89 -52 113 -70 113 -87 0 -49 -13 -47
-125 19 -105 61 -144 73 -152 47 -3 -7 3 -9 16 -6 14 4 57 -16 131 -58 98 -56
110 -66 110 -90 0 -16 -4 -30 -9 -34 -5 -3 -52 20 -104 50 -53 31 -106 55
-122 55 -27 0 -27 0 -23 -60 3 -47 10 -67 34 -97 56 -70 71 -73 327 -73 208 0
231 2 267 20 21 11 41 24 44 28 3 5 -44 37 -104 72 -102 58 -111 65 -121 102
-5 22 -9 41 -7 43 2 1 57 -28 122 -66 112 -64 156 -81 156 -60 0 5 -11 11 -25
13 -13 3 -78 36 -143 73 -116 67 -120 70 -129 111 l-10 43 26 -14 c14 -7 73
-41 131 -74 97 -56 160 -76 160 -51 0 6 -13 10 -29 10 -27 0 -256 123 -287
154 -7 6 -15 28 -19 50 l-6 38 33 -20 c18 -11 85 -50 148 -87 109 -62 149 -75
157 -49 2 7 -5 10 -19 7 -16 -3 -71 24 -175 83 -149 86 -153 88 -161 128 -8
37 -10 39 -15 16z"/>
</g>
</svg>
