<?xml version="1.0" standalone="no"?>
<!DOCTYPE svg PUBLIC "-//W3C//DTD SVG 20010904//EN"
 "http://www.w3.org/TR/2001/REC-SVG-20010904/DTD/svg10.dtd">
<svg version="1.0" xmlns="http://www.w3.org/2000/svg"
 width="192.000000pt" height="192.000000pt" viewBox="0 0 192.000000 192.000000"
 preserveAspectRatio="xMidYMid meet">
<metadata>
Created by potrace 1.16, written by Peter Selinger 2001-2019
</metadata>
<g transform="translate(0.000000,192.000000) scale(0.100000,-0.100000)"
fill="#000000" stroke="none">
811 c445 -92 729 -532 635 -987 -62 -301 -295 -546 -601 -630 -91 -26 -329
-26 -420 0 -291 80 -516 305 -596 596 -26 91 -26 329 0 420 120 433 542 692
982 601z"/>
<path d="M720 1358 c-48 -14 -94 -50 -114 -91 -23 -49 -24 -552 -2 -596 37
-71 114 -109 197 -98 45 6 413 219 466 270 40 38 57 86 50 142 -9 84 -32 105
-256 239 -254 151 -266 156 -341 134z m291 -238 c22 -12 27 -68 7 -88 -17 -17
-63 -15 -78 3 -19 22 -46 18 -64 -10 l-16 -25 120 0 c113 0 120 1 120 20 0 11
4 20 9 20 10 0 111 -60 111 -66 0 -9 -105 -72 -112 -68 -4 3 -8 14 -8 25 0 17
-8 19 -85 19 l-86 0 16 -29 c17 -35 37 -50 43 -33 2 7 23 12 48 12 l45 0 -3
-42 c-3 -41 -5 -43 -38 -46 -21 -2 -38 2 -45 11 -5 7 -21 17 -35 20 -16 4 -36
24 -55 56 -29 49 -31 51 -76 51 -29 0 -51 -6 -59 -15 -18 -21 -64 -19 -85 5
-23 25 -13 67 21 82 21 10 32 8 61 -7 39 -21 38 -22 75 44 12 21 27 32 52 36
19 4 40 13 47 21 14 17 43 18 70 4z"/>
</g>
</svg>
