<?xml version="1.0" standalone="no"?>
<!DOCTYPE svg PUBLIC "-//W3C//DTD SVG 20010904//EN"
 "http://www.w3.org/TR/2001/REC-SVG-20010904/DTD/svg10.dtd">
<svg version="1.0" xmlns="http://www.w3.org/2000/svg"
 width="192.000000pt" height="192.000000pt" viewBox="0 0 192.000000 192.000000"
 preserveAspectRatio="xMidYMid meet">
<metadata>
Created by potrace 1.16, written by Peter Selinger 2001-2019
</metadata>
<g transform="translate(0.000000,192.000000) scale(0.100000,-0.100000)"
fill="#000000" stroke="none">
811 c445 -92 729 -532 635 -987 -62 -301 -295 -546 -601 -630 -91 -26 -329
-26 -420 0 -291 80 -516 305 -596 596 -26 91 -26 329 0 420 120 433 542 692
982 601z"/>
<path d="M889 1312 c-135 -45 -226 -151 -251 -293 l-10 -59 -44 0 c-29 0 -44
-4 -44 -13 0 -7 29 -41 64 -76 l64 -64 40 32 c56 43 105 102 95 112 -4 4 -26
9 -48 11 -39 3 -40 4 -37 38 13 133 145 250 282 250 103 0 215 -72 261 -167
33 -70 32 -170 -3 -239 -75 -145 -226 -197 -386 -133 -38 16 -65 4 -70 -30 -3
-17 7 -26 51 -46 272 -125 576 127 503 415 -41 161 -170 267 -336 276 -55 3
-90 -1 -131 -14z"/>
<path d="M957 1098 c-8 -13 -22 -51 -31 -85 l-17 -63 42 -70 c36 -61 45 -70
70 -70 21 0 32 7 40 24 10 21 7 33 -19 78 l-31 54 16 61 c14 51 15 64 4 77
-19 23 -58 20 -74 -6z"/>
</g>
</svg>
