<?xml version="1.0" standalone="no"?>
<!DOCTYPE svg PUBLIC "-//W3C//DTD SVG 20010904//EN"
 "http://www.w3.org/TR/2001/REC-SVG-20010904/DTD/svg10.dtd">
<svg version="1.0" xmlns="http://www.w3.org/2000/svg"
 width="192.000000pt" height="192.000000pt" viewBox="0 0 192.000000 192.000000"
 preserveAspectRatio="xMidYMid meet">
<metadata>
Created by potrace 1.16, written by Peter Selinger 2001-2019
</metadata>
<g transform="translate(0.000000,192.000000) scale(0.100000,-0.100000)"
fill="#000000" stroke="none">
811 c445 -92 729 -532 635 -987 -62 -301 -295 -546 -601 -630 -91 -26 -329
-26 -420 0 -291 80 -516 305 -596 596 -26 91 -26 329 0 420 120 433 542 692
982 601z"/>
<path d="M715 1321 c-47 -22 -89 -64 -104 -104 -7 -17 -11 -118 -11 -251 0
-210 1 -224 23 -266 13 -26 40 -57 65 -75 l44 -30 236 0 c271 0 291 5 347 84
27 39 30 51 33 134 3 78 8 101 35 155 34 72 31 114 -11 120 -19 3 -22 9 -22
48 0 83 -42 152 -115 185 -35 16 -67 19 -260 19 -193 0 -225 -3 -260 -19z
m520 -71 c37 -34 55 -72 55 -115 0 -19 -2 -35 -4 -35 -2 0 -26 11 -53 24 -29
15 -137 43 -273 72 -124 26 -229 51 -234 55 -23 21 52 28 261 26 221 -2 221
-2 248 -27z m-90 -140 c38 -6 79 -17 91 -25 12 -7 45 -15 74 -17 71 -4 82 -22
52 -80 -13 -24 -20 -35 -17 -25 3 11 8 30 11 43 l6 24 -98 1 c-72 1 -90 3 -66
9 19 4 39 13 45 19 8 8 -50 11 -216 11 -125 0 -227 -3 -227 -7 0 -4 15 -51 32
-106 25 -75 36 -97 48 -93 8 3 57 21 109 41 117 46 231 75 288 75 64 0 52 -15
-24 -30 -106 -20 -224 -65 -403 -151 -152 -74 -166 -79 -177 -63 -9 13 -13 69
-13 201 l0 183 208 0 c114 0 238 -5 277 -10z m145 -282 c0 -72 -20 -121 -63
-152 -27 -20 -42 -21 -245 -21 -119 0 -226 4 -237 8 -16 7 40 33 250 117 149
59 276 108 283 109 8 1 12 -18 12 -61z"/>
</g>
</svg>
