<?xml version="1.0" standalone="no"?>
<!DOCTYPE svg PUBLIC "-//W3C//DTD SVG 20010904//EN"
 "http://www.w3.org/TR/2001/REC-SVG-20010904/DTD/svg10.dtd">
<svg version="1.0" xmlns="http://www.w3.org/2000/svg"
 width="192.000000pt" height="192.000000pt" viewBox="0 0 192.000000 192.000000"
 preserveAspectRatio="xMidYMid meet">
<metadata>
Created by potrace 1.16, written by Peter Selinger 2001-2019
</metadata>
<g transform="translate(0.000000,192.000000) scale(0.100000,-0.100000)"
fill="#000000" stroke="none">
811 c445 -92 729 -532 635 -987 -62 -301 -295 -546 -601 -630 -91 -26 -329
-26 -420 0 -291 80 -516 305 -596 596 -26 91 -26 329 0 420 120 433 542 692
982 601z"/>
<path d="M695 1321 c-49 -22 -79 -54 -100 -103 -22 -54 -22 -452 0 -506 34
-79 102 -121 199 -122 51 0 57 2 51 18 -39 95 -175 465 -175 476 0 15 19 22
96 31 l50 7 45 -113 c50 -129 92 -182 152 -193 52 -10 103 14 124 58 l16 35
-52 118 c-28 65 -51 123 -51 130 0 14 113 39 118 27 26 -65 140 -279 150 -282
11 -3 13 25 10 144 -4 173 -16 208 -87 259 l-43 30 -231 3 c-209 2 -236 0
-272 -17z"/>
<path d="M1182 810 c-21 -47 -94 -85 -164 -85 -32 0 -58 0 -58 -1 0 -1 14 -32
30 -69 l30 -67 89 4 c80 3 94 6 132 33 46 33 77 82 86 139 5 34 4 36 -24 36
-16 0 -46 9 -68 20 -22 11 -39 20 -40 20 0 0 -6 -14 -13 -30z"/>
</g>
</svg>
