<?xml version="1.0" standalone="no"?>
<!DOCTYPE svg PUBLIC "-//W3C//DTD SVG 20010904//EN"
 "http://www.w3.org/TR/2001/REC-SVG-20010904/DTD/svg10.dtd">
<svg version="1.0" xmlns="http://www.w3.org/2000/svg"
 width="192.000000pt" height="192.000000pt" viewBox="0 0 192.000000 192.000000"
 preserveAspectRatio="xMidYMid meet">
<metadata>
Created by potrace 1.16, written by Peter Selinger 2001-2019
</metadata>
<g transform="translate(0.000000,192.000000) scale(0.100000,-0.100000)"
fill="#000000" stroke="none">
811 c445 -92 729 -532 635 -987 -62 -301 -295 -546 -601 -630 -91 -26 -329
-26 -420 0 -291 80 -516 305 -596 596 -26 91 -26 329 0 420 120 433 542 692
982 601z"/>
<path d="M725 1348 c-21 -13 -53 -43 -70 -66 l-30 -44 -3 -255 -3 -255 35 -33
c33 -31 34 -35 23 -64 -14 -39 -1 -66 34 -66 18 0 33 13 58 52 l34 53 153 0
153 0 28 -50 c30 -53 62 -72 88 -50 19 16 19 44 0 74 -14 21 -14 23 9 34 53
24 58 52 54 310 -3 224 -4 239 -26 279 -12 24 -41 55 -64 70 -41 28 -42 28
-237 31 -188 2 -198 1 -236 -20z m418 -91 c50 -32 67 -74 67 -159 0 -113 12
-108 -254 -108 -271 0 -260 -6 -255 124 4 78 6 87 34 116 42 43 71 49 235 47
122 -2 151 -5 173 -20z m-325 -394 c6 -9 12 -29 12 -43 0 -34 -18 -57 -52 -65
-33 -8 -78 31 -78 69 0 55 84 83 118 39z m378 -8 c33 -51 -18 -119 -74 -99
-37 13 -57 56 -41 86 16 31 28 38 66 38 24 0 37 -7 49 -25z"/>
</g>
</svg>
