<?xml version="1.0" standalone="no"?>
<!DOCTYPE svg PUBLIC "-//W3C//DTD SVG 20010904//EN"
 "http://www.w3.org/TR/2001/REC-SVG-20010904/DTD/svg10.dtd">
<svg version="1.0" xmlns="http://www.w3.org/2000/svg"
 width="192.000000pt" height="192.000000pt" viewBox="0 0 192.000000 192.000000"
 preserveAspectRatio="xMidYMid meet">
<metadata>
Created by potrace 1.16, written by Peter Selinger 2001-2019
</metadata>
<g transform="translate(0.000000,192.000000) scale(0.100000,-0.100000)"
fill="#000000" stroke="none">
811 c445 -92 729 -532 635 -987 -62 -301 -295 -546 -601 -630 -91 -26 -329
-26 -420 0 -291 80 -516 305 -596 596 -26 91 -26 329 0 420 120 433 542 692
982 601z"/>
<path d="M794 1356 c-191 -89 -275 -320 -186 -510 40 -85 106 -147 206 -195
46 -22 94 -53 109 -70 14 -17 29 -31 32 -31 3 0 18 14 32 31 15 17 59 46 102
65 91 42 149 88 189 151 123 194 53 451 -151 553 -68 34 -98 37 -118 14 -19
-23 -2 -43 58 -66 165 -61 247 -259 172 -419 -90 -191 -333 -243 -488 -103
-72 65 -104 136 -104 230 0 65 4 83 34 141 37 74 100 130 170 153 48 16 63 32
54 60 -9 27 -47 26 -111 -4z"/>
<path d="M834 1211 c-150 -91 -150 -313 0 -405 121 -75 287 -22 342 110 20 47
17 141 -5 189 -21 48 -72 99 -113 116 -27 11 -32 10 -44 -6 -17 -23 -17 -31
-1 -44 94 -76 113 -110 104 -186 -6 -56 -40 -103 -91 -126 -55 -25 -94 -24
-146 4 -50 26 -90 90 -90 141 1 51 35 112 79 142 42 27 51 50 29 72 -16 16
-28 15 -64 -7z"/>
</g>
</svg>
