<?xml version="1.0" standalone="no"?>
<!DOCTYPE svg PUBLIC "-//W3C//DTD SVG 20010904//EN"
 "http://www.w3.org/TR/2001/REC-SVG-20010904/DTD/svg10.dtd">
<svg version="1.0" xmlns="http://www.w3.org/2000/svg"
 width="192.000000pt" height="192.000000pt" viewBox="0 0 192.000000 192.000000"
 preserveAspectRatio="xMidYMid meet">
<metadata>
Created by potrace 1.16, written by Peter Selinger 2001-2019
</metadata>
<g transform="translate(0.000000,192.000000) scale(0.100000,-0.100000)"
fill="#000000" stroke="none">
811 c445 -92 729 -532 635 -987 -62 -301 -295 -546 -601 -630 -91 -26 -329
-26 -420 0 -291 80 -516 305 -596 596 -26 91 -26 329 0 420 120 433 542 692
982 601z"/>
<path d="M627 1362 c-10 -10 -17 -30 -17 -43 0 -23 63 -256 72 -264 2 -2 73
-5 158 -6 l155 -1 37 129 c21 70 38 136 38 146 0 24 -35 57 -62 57 -36 0 -57
-30 -84 -119 -47 -160 -52 -171 -84 -171 -33 0 -43 11 -59 70 -53 190 -69 220
-114 220 -13 0 -31 -8 -40 -18z"/>
<path d="M1065 1076 c-9 -13 -15 -36 -15 -52 1 -16 2 -52 3 -81 2 -41 -3 -56
-21 -75 -29 -32 -28 -46 4 -59 40 -15 69 10 88 73 51 180 51 176 31 198 -25
28 -71 26 -90 -4z"/>
<path d="M1215 986 c-19 -29 -41 -127 -32 -149 3 -9 18 -19 32 -23 36 -9 59
16 79 88 20 69 20 73 0 92 -23 24 -61 20 -79 -8z"/>
<path d="M650 980 c-17 -17 -20 -33 -20 -117 0 -117 22 -176 88 -235 60 -55
105 -71 192 -71 123 -1 225 60 266 159 19 44 18 49 -8 61 -17 7 -30 5 -56 -10
-45 -27 -98 -18 -134 23 -37 40 -61 41 -47 1 16 -46 8 -96 -16 -96 -15 0 -21
9 -27 44 -9 51 -32 81 -64 81 -35 0 -54 11 -54 30 0 25 19 30 121 30 82 0 90
2 104 24 19 29 11 72 -15 86 -10 6 -84 10 -164 10 -133 0 -148 -2 -166 -20z"/>
</g>
</svg>
