<?xml version="1.0" standalone="no"?>
<!DOCTYPE svg PUBLIC "-//W3C//DTD SVG 20010904//EN"
 "http://www.w3.org/TR/2001/REC-SVG-20010904/DTD/svg10.dtd">
<svg version="1.0" xmlns="http://www.w3.org/2000/svg"
 width="192.000000pt" height="192.000000pt" viewBox="0 0 192.000000 192.000000"
 preserveAspectRatio="xMidYMid meet">
<metadata>
Created by potrace 1.16, written by Peter Selinger 2001-2019
</metadata>
<g transform="translate(0.000000,192.000000) scale(0.100000,-0.100000)"
fill="#000000" stroke="none">
811 c445 -92 729 -532 635 -987 -62 -301 -295 -546 -601 -630 -91 -26 -329
-26 -420 0 -291 80 -516 305 -596 596 -26 91 -26 329 0 420 120 433 542 692
982 601z"/>
<path d="M1039 1348 c-20 -10 -67 -22 -105 -27 -60 -7 -71 -12 -95 -40 -16
-20 -29 -50 -33 -77 -3 -24 -9 -65 -12 -91 -4 -27 -15 -59 -25 -72 -24 -30
-24 -82 0 -112 10 -14 46 -96 80 -183 34 -88 67 -166 73 -173 6 -8 25 -13 42
-11 29 3 33 9 109 193 91 219 98 246 70 284 -14 18 -19 37 -16 57 3 17 -2 44
-10 60 -10 20 -13 50 -9 96 5 76 -3 119 -21 117 -6 -1 -28 -10 -48 -21z m30
-502 c9 -10 8 -16 -4 -26 -21 -17 -51 6 -34 26 6 8 15 14 19 14 4 0 13 -6 19
-14z m-80 -42 c-9 -11 -15 -12 -25 -3 -11 9 -12 15 -3 25 9 11 15 12 25 3 11
-9 12 -15 3 -25z m50 -28 c17 -20 -13 -43 -34 -26 -12 10 -13 16 -4 26 6 8 15
14 19 14 4 0 13 -6 19 -14z m-30 -92 c-14 -14 -17 -14 -29 0 -10 13 -10 19 0
32 12 14 15 14 29 0 14 -15 14 -17 0 -32z"/>
</g>
</svg>
