<?xml version="1.0" standalone="no"?>
<!DOCTYPE svg PUBLIC "-//W3C//DTD SVG 20010904//EN"
 "http://www.w3.org/TR/2001/REC-SVG-20010904/DTD/svg10.dtd">
<svg version="1.0" xmlns="http://www.w3.org/2000/svg"
 width="192.000000pt" height="192.000000pt" viewBox="0 0 192.000000 192.000000"
 preserveAspectRatio="xMidYMid meet">
<metadata>
Created by potrace 1.16, written by Peter Selinger 2001-2019
</metadata>
<g transform="translate(0.000000,192.000000) scale(0.100000,-0.100000)"
fill="#000000" stroke="none">
811 c445 -92 729 -532 635 -987 -62 -301 -295 -546 -601 -630 -91 -26 -329
-26 -420 0 -291 80 -516 305 -596 596 -26 91 -26 329 0 420 120 433 542 692
982 601z"/>
<path d="M848 1369 c-21 -5 -79 -28 -131 -52 -76 -36 -96 -50 -106 -74 -9 -22
-12 -83 -9 -215 3 -182 3 -183 33 -237 23 -42 52 -70 126 -127 125 -94 158
-114 192 -114 37 0 54 10 168 96 177 134 183 147 184 400 0 225 3 217 -112
270 -134 62 -240 78 -345 53z m89 -65 c8 -21 -19 -46 -40 -38 -17 6 -23 35
-10 47 12 13 44 7 50 -9z m-90 -40 c8 -21 -11 -37 -85 -69 -56 -25 -65 -26
-78 -13 -23 23 -8 43 54 71 67 30 100 33 109 11z m29 -182 c7 -4 26 -40 44
-79 18 -40 36 -71 39 -68 4 2 20 36 35 74 28 73 53 94 81 71 23 -19 19 -35
-38 -165 -47 -108 -55 -120 -80 -123 -26 -3 -30 3 -83 115 -31 65 -56 129 -56
142 -1 33 31 51 58 33z"/>
</g>
</svg>
