<?xml version="1.0" standalone="no"?>
<!DOCTYPE svg PUBLIC "-//W3C//DTD SVG 20010904//EN"
 "http://www.w3.org/TR/2001/REC-SVG-20010904/DTD/svg10.dtd">
<svg version="1.0" xmlns="http://www.w3.org/2000/svg"
 width="192.000000pt" height="192.000000pt" viewBox="0 0 192.000000 192.000000"
 preserveAspectRatio="xMidYMid meet">
<metadata>
Created by potrace 1.16, written by Peter Selinger 2001-2019
</metadata>
<g transform="translate(0.000000,192.000000) scale(0.100000,-0.100000)"
fill="#000000" stroke="none">
811 c445 -92 729 -532 635 -987 -62 -301 -295 -546 -601 -630 -91 -26 -329
-26 -420 0 -291 80 -516 305 -596 596 -26 91 -26 329 0 420 120 433 542 692
982 601z"/>
<path d="M825 1357 c-196 -65 -317 -258 -284 -455 21 -132 126 -265 246 -314
56 -22 69 -23 318 -23 l260 0 3 23 c3 17 -11 38 -48 78 l-51 54 25 42 c120
205 36 470 -182 574 -47 23 -73 28 -152 31 -60 2 -110 -2 -135 -10z m219 -127
c112 -42 180 -142 180 -265 0 -84 -23 -144 -79 -200 -58 -57 -116 -80 -205
-80 -112 0 -191 48 -244 145 -125 230 102 491 348 400z"/>
<path d="M912 1158 c-7 -7 -12 -36 -12 -65 0 -29 -2 -53 -6 -53 -3 0 -22 11
-42 25 -44 30 -54 31 -75 7 -31 -34 -22 -61 28 -82 25 -11 45 -23 45 -28 0 -5
-18 -14 -41 -21 -44 -13 -54 -28 -45 -65 9 -38 41 -42 85 -12 20 14 40 26 44
26 4 0 7 -24 7 -53 0 -57 12 -77 46 -77 35 0 47 24 41 80 -3 28 -4 50 -1 50 4
0 28 -12 55 -27 l49 -28 21 22 c33 33 20 65 -38 89 l-48 21 43 18 c48 20 63
40 51 72 -13 35 -45 38 -84 9 -18 -14 -36 -26 -39 -26 -3 0 -6 24 -6 53 0 29
-5 58 -12 65 -15 15 -51 15 -66 0z"/>
</g>
</svg>
