<?xml version="1.0" standalone="no"?>
<!DOCTYPE svg PUBLIC "-//W3C//DTD SVG 20010904//EN"
 "http://www.w3.org/TR/2001/REC-SVG-20010904/DTD/svg10.dtd">
<svg version="1.0" xmlns="http://www.w3.org/2000/svg"
 width="192.000000pt" height="192.000000pt" viewBox="0 0 192.000000 192.000000"
 preserveAspectRatio="xMidYMid meet">
<metadata>
Created by potrace 1.16, written by Peter Selinger 2001-2019
</metadata>
<g transform="translate(0.000000,192.000000) scale(0.100000,-0.100000)"
fill="#000000" stroke="none">
811 c445 -92 729 -532 635 -987 -62 -301 -295 -546 -601 -630 -91 -26 -329
-26 -420 0 -291 80 -516 305 -596 596 -26 91 -26 329 0 420 120 433 542 692
982 601z"/>
<path d="M865 1367 c-122 -32 -223 -114 -278 -227 -30 -61 -32 -71 -32 -175 0
-101 2 -115 29 -170 38 -78 128 -168 203 -203 52 -24 69 -27 168 -27 103 0
114 2 177 32 81 38 156 109 193 184 26 51 27 54 12 84 -15 27 -38 88 -54 138
-3 11 4 29 18 45 14 15 34 41 47 59 l22 32 -29 20 c-44 32 -85 37 -107 14 -11
-11 -24 -28 -30 -38 -10 -18 -12 -18 -55 -2 -64 24 -231 24 -296 -1 -26 -11
-56 -22 -67 -26 -15 -5 -16 -9 -6 -21 7 -9 10 -18 6 -22 -3 -3 -6 -1 -6 5 0
16 -33 15 -48 0 -19 -19 -15 -68 6 -68 22 1 52 24 52 41 0 12 2 12 9 0 7 -11
19 -9 64 13 60 28 83 31 107 16 11 -7 2 -10 -32 -10 -51 0 -68 -16 -68 -63 0
-19 -11 -31 -42 -50 -24 -14 -68 -51 -98 -81 -30 -31 -57 -56 -61 -56 -4 0
-14 19 -23 42 -22 53 -22 169 -1 227 71 202 332 285 504 161 46 -33 67 -35 85
-7 8 12 8 22 0 35 -14 22 -109 79 -154 93 -59 17 -162 19 -215 6z m308 -353
c-10 -7 -32 -14 -50 -14 l-32 0 47 44 47 45 3 -30 c2 -21 -3 -35 -15 -45z m56
-3 c20 -13 9 -24 -61 -58 -63 -31 -188 -52 -188 -31 0 5 5 6 12 2 7 -4 8 -3 4
4 -4 7 -14 12 -21 12 -20 0 -40 39 -27 52 13 13 52 1 49 -15 -3 -18 131 -10
171 11 17 9 32 20 32 24 0 10 12 10 29 -1z m31 -178 c0 -23 -56 -97 -95 -128
-95 -71 -235 -90 -335 -43 -30 14 -66 34 -79 45 l-23 19 44 40 c47 41 139 81
159 69 6 -5 -5 -14 -29 -25 -60 -27 -68 -61 -23 -109 23 -25 37 -31 70 -31 39
0 40 1 35 28 -6 33 23 54 135 97 54 20 78 35 90 56 15 26 17 27 33 12 10 -9
18 -22 18 -30z"/>
</g>
</svg>
