<?xml version="1.0" standalone="no"?>
<!DOCTYPE svg PUBLIC "-//W3C//DTD SVG 20010904//EN"
 "http://www.w3.org/TR/2001/REC-SVG-20010904/DTD/svg10.dtd">
<svg version="1.0" xmlns="http://www.w3.org/2000/svg"
 width="192.000000pt" height="192.000000pt" viewBox="0 0 192.000000 192.000000"
 preserveAspectRatio="xMidYMid meet">
<metadata>
Created by potrace 1.16, written by Peter Selinger 2001-2019
</metadata>
<g transform="translate(0.000000,192.000000) scale(0.100000,-0.100000)"
fill="#000000" stroke="none">
811 c445 -92 729 -532 635 -987 -62 -301 -295 -546 -601 -630 -91 -26 -329
-26 -420 0 -291 80 -516 305 -596 596 -26 91 -26 329 0 420 120 433 542 692
982 601z"/>
<path d="M587 1240 c-49 -39 -41 -131 12 -160 65 -34 151 14 151 85 0 79 -100
125 -163 75z"/>
<path d="M876 1234 c-45 -45 -37 -81 52 -237 43 -75 87 -146 97 -157 37 -41
108 -35 147 14 34 41 23 80 -63 230 -45 77 -91 149 -103 158 -33 28 -98 23
-130 -8z"/>
<path d="M1168 1230 c-27 -28 -30 -36 -25 -73 11 -82 102 -116 164 -63 23 20
28 32 28 71 0 39 -5 51 -28 71 -42 36 -99 33 -139 -6z"/>
<path d="M744 1040 c-32 -13 -64 -59 -64 -93 0 -36 171 -339 208 -368 36 -28
85 -25 123 9 52 47 45 76 -62 263 -51 89 -102 167 -114 174 -29 19 -67 26 -91
15z"/>
</g>
</svg>
