<?xml version="1.0" standalone="no"?>
<!DOCTYPE svg PUBLIC "-//W3C//DTD SVG 20010904//EN"
 "http://www.w3.org/TR/2001/REC-SVG-20010904/DTD/svg10.dtd">
<svg version="1.0" xmlns="http://www.w3.org/2000/svg"
 width="192.000000pt" height="192.000000pt" viewBox="0 0 192.000000 192.000000"
 preserveAspectRatio="xMidYMid meet">
<metadata>
Created by potrace 1.16, written by Peter Selinger 2001-2019
</metadata>
<g transform="translate(0.000000,192.000000) scale(0.100000,-0.100000)"
fill="#000000" stroke="none">
811 c445 -92 729 -532 635 -987 -62 -301 -295 -546 -601 -630 -91 -26 -329
-26 -420 0 -291 80 -516 305 -596 596 -26 91 -26 329 0 420 120 433 542 692
982 601z"/>
<path d="M655 1271 c-73 -34 -105 -86 -105 -170 0 -52 7 -65 194 -349 93 -141
121 -167 192 -178 49 -7 116 19 150 57 47 54 267 404 277 440 20 82 -39 186
-121 208 -21 6 -146 11 -292 11 -227 0 -259 -2 -295 -19z m573 -153 c3 -21
-26 -72 -122 -218 -106 -160 -129 -190 -150 -190 -20 0 -43 29 -146 187 -68
102 -125 195 -128 205 -2 10 1 25 8 33 11 13 51 15 274 13 l261 -3 3 -27z"/>
<path d="M857 1052 c-25 -27 -21 -45 24 -114 46 -73 62 -84 94 -70 29 13 95
121 95 155 0 37 -26 47 -118 47 -64 0 -82 -4 -95 -18z"/>
</g>
</svg>
