<?xml version="1.0" standalone="no"?>
<!DOCTYPE svg PUBLIC "-//W3C//DTD SVG 20010904//EN"
 "http://www.w3.org/TR/2001/REC-SVG-20010904/DTD/svg10.dtd">
<svg version="1.0" xmlns="http://www.w3.org/2000/svg"
 width="192.000000pt" height="192.000000pt" viewBox="0 0 192.000000 192.000000"
 preserveAspectRatio="xMidYMid meet">
<metadata>
Created by potrace 1.16, written by Peter Selinger 2001-2019
</metadata>
<g transform="translate(0.000000,192.000000) scale(0.100000,-0.100000)"
fill="#000000" stroke="none">
811 c445 -92 729 -532 635 -987 -62 -301 -295 -546 -601 -630 -91 -26 -329
-26 -420 0 -291 80 -516 305 -596 596 -26 91 -26 329 0 420 120 433 542 692
982 601z"/>
<path d="M598 1324 c-34 -18 -58 -62 -58 -106 0 -42 296 -564 341 -602 36 -30
93 -35 139 -11 40 21 350 562 350 612 0 74 -52 123 -129 123 -59 0 -89 -32
-180 -193 -44 -78 -87 -151 -94 -161 -13 -17 -22 -5 -106 142 -51 89 -106 172
-122 186 -35 30 -97 34 -141 10z"/>
</g>
</svg>
