<?xml version="1.0" standalone="no"?>
<!DOCTYPE svg PUBLIC "-//W3C//DTD SVG 20010904//EN"
 "http://www.w3.org/TR/2001/REC-SVG-20010904/DTD/svg10.dtd">
<svg version="1.0" xmlns="http://www.w3.org/2000/svg"
 width="192.000000pt" height="192.000000pt" viewBox="0 0 192.000000 192.000000"
 preserveAspectRatio="xMidYMid meet">
<metadata>
Created by potrace 1.16, written by Peter Selinger 2001-2019
</metadata>
<g transform="translate(0.000000,192.000000) scale(0.100000,-0.100000)"
fill="#000000" stroke="none">
811 c445 -92 729 -532 635 -987 -62 -301 -295 -546 -601 -630 -91 -26 -329
-26 -420 0 -291 80 -516 305 -596 596 -26 91 -26 329 0 420 120 433 542 692
982 601z"/>
<path d="M592 1250 c-18 -11 -37 -32 -42 -46 -6 -14 -10 -102 -10 -195 l0
-169 261 0 260 0 110 107 109 106 0 74 c0 142 -3 143 -372 143 -265 0 -285 -1
-316 -20z m349 -125 c81 -48 97 -68 77 -92 -12 -15 -157 -103 -170 -103 -3 0
-14 7 -22 16 -19 18 -23 173 -6 205 16 28 35 24 121 -26z"/>
<path d="M1223 901 c-32 -26 -69 -60 -83 -75 l-24 -27 49 -49 50 -49 78 74
c42 41 77 82 77 91 0 18 -62 84 -78 84 -6 0 -37 -22 -69 -49z"/>
<path d="M540 800 c0 -29 27 -78 49 -90 11 -5 45 -10 75 -10 l56 0 0 60 0 60
-90 0 c-84 0 -90 -1 -90 -20z"/>
<path d="M734 804 c3 -9 6 -35 6 -59 0 -43 1 -43 40 -50 22 -4 58 -4 80 0 l40
7 0 59 0 59 -86 0 c-74 0 -85 -2 -80 -16z"/>
<path d="M920 759 l0 -60 41 3 c41 3 42 4 59 61 l18 57 -59 0 -59 0 0 -61z"/>
<path d="M1090 754 c-14 -37 -12 -81 4 -87 15 -6 76 6 96 18 8 5 -1 21 -31 51
-24 24 -47 44 -51 44 -5 0 -13 -12 -18 -26z"/>
</g>
</svg>
