<?xml version="1.0" standalone="no"?>
<!DOCTYPE svg PUBLIC "-//W3C//DTD SVG 20010904//EN"
 "http://www.w3.org/TR/2001/REC-SVG-20010904/DTD/svg10.dtd">
<svg version="1.0" xmlns="http://www.w3.org/2000/svg"
 width="192.000000pt" height="192.000000pt" viewBox="0 0 192.000000 192.000000"
 preserveAspectRatio="xMidYMid meet">
<metadata>
Created by potrace 1.16, written by Peter Selinger 2001-2019
</metadata>
<g transform="translate(0.000000,192.000000) scale(0.100000,-0.100000)"
fill="#000000" stroke="none">
811 c445 -92 729 -532 635 -987 -62 -301 -295 -546 -601 -630 -91 -26 -329
-26 -420 0 -291 80 -516 305 -596 596 -26 91 -26 329 0 420 120 433 542 692
982 601z"/>
<path d="M552 1277 c-8 -9 30 -111 137 -377 l148 -365 113 0 112 0 148 365
c108 266 146 368 138 377 -7 9 -40 13 -99 13 -81 0 -90 -2 -102 -22 -8 -13
-54 -123 -103 -245 -48 -123 -91 -223 -95 -223 -4 0 -49 105 -100 233 -50 127
-96 238 -102 245 -13 17 -181 17 -195 -1z"/>
<path d="M841 1281 c-12 -8 -6 -30 34 -133 52 -131 68 -159 85 -142 5 5 32 65
60 133 38 95 47 127 39 138 -13 15 -195 19 -218 4z"/>
</g>
</svg>
