<?xml version="1.0" standalone="no"?>
<!DOCTYPE svg PUBLIC "-//W3C//DTD SVG 20010904//EN"
 "http://www.w3.org/TR/2001/REC-SVG-20010904/DTD/svg10.dtd">
<svg version="1.0" xmlns="http://www.w3.org/2000/svg"
 width="192.000000pt" height="192.000000pt" viewBox="0 0 192.000000 192.000000"
 preserveAspectRatio="xMidYMid meet">
<metadata>
Created by potrace 1.16, written by Peter Selinger 2001-2019
</metadata>
<g transform="translate(0.000000,192.000000) scale(0.100000,-0.100000)"
fill="#000000" stroke="none">
811 c445 -92 729 -532 635 -987 -62 -301 -295 -546 -601 -630 -91 -26 -329
-26 -420 0 -291 80 -516 305 -596 596 -26 91 -26 329 0 420 120 433 542 692
982 601z"/>
<path d="M800 1249 c-74 -22 -133 -87 -145 -160 -5 -29 -15 -43 -46 -63 -110
-73 -106 -244 9 -317 l47 -30 301 3 301 3 37 29 c46 34 73 77 81 127 14 80
-37 171 -115 205 -28 13 -43 27 -50 49 -22 67 -93 105 -156 85 -32 -11 -38
-10 -46 4 -15 26 -92 66 -139 71 -24 2 -60 0 -79 -6z m261 -209 c10 -6 19 -18
19 -28 0 -24 -210 -232 -235 -232 -12 0 -44 24 -75 55 -46 46 -53 58 -44 73
18 28 44 26 80 -9 l33 -32 96 91 c53 51 98 92 101 92 3 0 14 -5 25 -10z"/>
</g>
</svg>
