<?xml version="1.0" standalone="no"?>
<!DOCTYPE svg PUBLIC "-//W3C//DTD SVG 20010904//EN"
 "http://www.w3.org/TR/2001/REC-SVG-20010904/DTD/svg10.dtd">
<svg version="1.0" xmlns="http://www.w3.org/2000/svg"
 width="192.000000pt" height="192.000000pt" viewBox="0 0 192.000000 192.000000"
 preserveAspectRatio="xMidYMid meet">
<metadata>
Created by potrace 1.16, written by Peter Selinger 2001-2019
</metadata>
<g transform="translate(0.000000,192.000000) scale(0.100000,-0.100000)"
fill="#000000" stroke="none">
811 c445 -92 729 -532 635 -987 -62 -301 -295 -546 -601 -630 -91 -26 -329
-26 -420 0 -291 80 -516 305 -596 596 -26 91 -26 329 0 420 120 433 542 692
982 601z"/>
<path d="M706 1325 c-50 -18 -92 -59 -111 -110 -13 -34 -16 -80 -13 -270 3
-222 4 -231 26 -263 13 -17 40 -44 59 -60 l36 -27 247 0 246 0 42 28 c23 15
52 46 64 70 22 40 23 52 23 272 0 198 -2 234 -17 261 -24 44 -81 91 -125 103
-58 16 -429 13 -477 -4z m64 -130 c13 -15 10 -17 -24 -19 -34 -2 -31 -26 3
-26 31 0 31 -1 31 -51 0 -57 -23 -66 -28 -11 -5 46 -32 43 -32 -4 0 -24 -4
-34 -12 -32 -8 3 -14 29 -16 69 -2 51 0 66 14 76 24 17 49 16 64 -2z m133 -66
c25 -40 -16 -89 -63 -74 -58 18 -38 99 22 93 17 -2 35 -10 41 -19z m97 5 c0
-11 -6 -14 -20 -9 -29 9 -25 -4 5 -15 46 -17 19 -68 -30 -56 -33 9 -32 26 3
27 l27 1 -27 10 c-26 9 -37 36 -21 51 14 14 63 7 63 -9z m234 -237 c9 -14 -6
-34 -89 -117 -55 -55 -104 -100 -109 -100 -20 0 -96 84 -96 106 0 35 27 36 66
2 l36 -32 78 83 c78 82 94 91 114 58z"/>
<path d="M842 1103 c4 -21 33 -25 33 -3 0 8 -8 16 -18 18 -14 3 -18 -1 -15
-15z"/>
</g>
</svg>
