<?xml version="1.0" standalone="no"?>
<!DOCTYPE svg PUBLIC "-//W3C//DTD SVG 20010904//EN"
 "http://www.w3.org/TR/2001/REC-SVG-20010904/DTD/svg10.dtd">
<svg version="1.0" xmlns="http://www.w3.org/2000/svg"
 width="192.000000pt" height="192.000000pt" viewBox="0 0 192.000000 192.000000"
 preserveAspectRatio="xMidYMid meet">
<metadata>
Created by potrace 1.16, written by Peter Selinger 2001-2019
</metadata>
<g transform="translate(0.000000,192.000000) scale(0.100000,-0.100000)"
fill="#000000" stroke="none">
811 c445 -92 729 -532 635 -987 -62 -301 -295 -546 -601 -630 -91 -26 -329
-26 -420 0 -291 80 -516 305 -596 596 -26 91 -26 329 0 420 120 433 542 692
982 601z"/>
<path d="M775 1337 c-26 -14 -48 -37 -62 -67 -21 -40 -23 -59 -23 -186 0 -128
2 -145 23 -184 34 -64 88 -90 188 -90 69 0 88 -5 174 -42 107 -47 128 -45 133
10 3 24 9 32 30 37 50 10 93 44 112 88 16 35 20 66 20 182 0 126 -2 145 -22
185 -15 30 -37 53 -63 67 -38 22 -51 23 -255 23 -204 0 -217 -1 -255 -23z"/>
<path d="M606 1169 c-50 -39 -56 -64 -56 -239 0 -177 6 -202 60 -240 16 -12
46 -24 65 -27 33 -5 35 -8 35 -43 0 -24 5 -40 15 -44 8 -3 62 15 119 39 78 34
118 45 156 45 28 0 65 7 83 17 l32 16 -80 38 c-72 34 -89 38 -163 38 -97 1
-145 21 -189 78 -27 36 -28 39 -31 190 -2 84 -7 153 -11 153 -5 0 -20 -9 -35
-21z"/>
</g>
</svg>
