<?xml version="1.0" standalone="no"?>
<!DOCTYPE svg PUBLIC "-//W3C//DTD SVG 20010904//EN"
 "http://www.w3.org/TR/2001/REC-SVG-20010904/DTD/svg10.dtd">
<svg version="1.0" xmlns="http://www.w3.org/2000/svg"
 width="192.000000pt" height="192.000000pt" viewBox="0 0 192.000000 192.000000"
 preserveAspectRatio="xMidYMid meet">
<metadata>
Created by potrace 1.16, written by Peter Selinger 2001-2019
</metadata>
<g transform="translate(0.000000,192.000000) scale(0.100000,-0.100000)"
fill="#000000" stroke="none">
811 c445 -92 729 -532 635 -987 -62 -301 -295 -546 -601 -630 -91 -26 -329
-26 -420 0 -291 80 -516 305 -596 596 -26 91 -26 329 0 420 120 433 542 692
982 601z"/>
<path d="M695 1406 c-41 -18 -92 -77 -105 -123 -8 -25 -10 -141 -8 -344 l3
-306 28 -41 c15 -23 46 -52 70 -64 40 -22 52 -23 272 -23 220 0 232 1 272 23
24 12 55 41 70 64 l28 41 3 306 c2 209 -1 319 -8 347 -13 46 -69 107 -113 123
-43 17 -474 14 -512 -3z m510 -309 c23 -33 19 -90 -8 -115 -74 -69 -186 5
-147 97 25 62 117 72 155 18z m-316 -126 c10 -6 39 -47 65 -92 42 -72 50 -80
59 -63 22 41 51 64 82 64 20 0 39 -8 52 -22 31 -35 113 -180 113 -201 0 -11
-15 -34 -33 -52 -43 -43 -75 -48 -308 -43 -158 3 -189 6 -212 21 -31 20 -67
73 -67 99 0 17 131 251 157 281 17 19 64 23 92 8z"/>
</g>
</svg>
