<?xml version="1.0" standalone="no"?>
<!DOCTYPE svg PUBLIC "-//W3C//DTD SVG 20010904//EN"
 "http://www.w3.org/TR/2001/REC-SVG-20010904/DTD/svg10.dtd">
<svg version="1.0" xmlns="http://www.w3.org/2000/svg"
 width="192.000000pt" height="192.000000pt" viewBox="0 0 192.000000 192.000000"
 preserveAspectRatio="xMidYMid meet">
<metadata>
Created by potrace 1.16, written by Peter Selinger 2001-2019
</metadata>
<g transform="translate(0.000000,192.000000) scale(0.100000,-0.100000)"
fill="#000000" stroke="none">
811 c445 -92 729 -532 635 -987 -62 -301 -295 -546 -601 -630 -91 -26 -329
-26 -420 0 -291 80 -516 305 -596 596 -26 91 -26 329 0 420 120 433 542 692
982 601z"/>
<path d="M835 1357 c-155 -52 -261 -174 -287 -332 -20 -118 20 -247 106 -341
l42 -47 55 29 c72 39 135 102 150 153 17 55 -5 81 -68 81 -38 0 -43 3 -43 23
1 12 8 40 16 62 8 22 16 69 17 105 3 77 23 122 83 188 l42 47 42 -40 c59 -57
92 -130 90 -197 -2 -29 3 -66 10 -83 7 -16 14 -47 17 -68 l6 -39 -41 3 c-32 3
-46 -2 -62 -18 -26 -29 -25 -47 5 -98 26 -44 60 -74 138 -120 l48 -28 40 39
c200 195 139 537 -119 660 -47 23 -73 28 -152 31 -60 2 -110 -2 -135 -10z"/>
<path d="M927 1143 c-12 -11 -8 -40 7 -52 28 -23 68 17 45 45 -12 15 -41 19
-52 7z"/>
<path d="M814 616 c-12 -31 4 -44 74 -56 78 -14 185 -2 211 25 14 13 14 17 0
31 -13 13 -23 13 -63 3 -45 -11 -145 -8 -193 7 -16 4 -25 1 -29 -10z"/>
</g>
</svg>
