<?xml version="1.0" standalone="no"?>
<!DOCTYPE svg PUBLIC "-//W3C//DTD SVG 20010904//EN"
 "http://www.w3.org/TR/2001/REC-SVG-20010904/DTD/svg10.dtd">
<svg version="1.0" xmlns="http://www.w3.org/2000/svg"
 width="192.000000pt" height="192.000000pt" viewBox="0 0 192.000000 192.000000"
 preserveAspectRatio="xMidYMid meet">
<metadata>
Created by potrace 1.16, written by Peter Selinger 2001-2019
</metadata>
<g transform="translate(0.000000,192.000000) scale(0.100000,-0.100000)"
fill="#000000" stroke="none">
811 c445 -92 729 -532 635 -987 -62 -301 -295 -546 -601 -630 -91 -26 -329
-26 -420 0 -291 80 -516 305 -596 596 -26 91 -26 329 0 420 120 433 542 692
982 601z"/>
<path d="M773 1256 c-84 -56 -161 -111 -173 -121 -20 -18 -26 -49 -14 -78 9
-25 340 -239 369 -239 32 0 337 200 361 237 32 49 16 67 -169 190 -110 73
-181 115 -197 114 -14 0 -89 -44 -177 -103z"/>
<path d="M628 907 c-45 -34 -54 -53 -44 -91 7 -30 334 -248 371 -248 32 0 337
200 361 237 24 36 11 69 -41 105 l-44 31 -128 -86 c-70 -47 -137 -85 -148 -85
-11 0 -77 38 -147 85 -70 47 -130 85 -132 85 -2 0 -24 -15 -48 -33z"/>
</g>
</svg>
