<?xml version="1.0" standalone="no"?>
<!DOCTYPE svg PUBLIC "-//W3C//DTD SVG 20010904//EN"
 "http://www.w3.org/TR/2001/REC-SVG-20010904/DTD/svg10.dtd">
<svg version="1.0" xmlns="http://www.w3.org/2000/svg"
 width="192.000000pt" height="192.000000pt" viewBox="0 0 192.000000 192.000000"
 preserveAspectRatio="xMidYMid meet">
<metadata>
Created by potrace 1.16, written by Peter Selinger 2001-2019
</metadata>
<g transform="translate(0.000000,192.000000) scale(0.100000,-0.100000)"
fill="#000000" stroke="none">
811 c445 -92 729 -532 635 -987 -62 -301 -295 -546 -601 -630 -91 -26 -329
-26 -420 0 -291 80 -516 305 -596 596 -26 91 -26 329 0 420 120 433 542 692
982 601z"/>
<path d="M591 1326 c-49 -27 -50 -39 -51 -387 0 -240 3 -328 12 -337 7 -7 44
-12 97 -12 l84 0 205 210 c112 116 208 210 213 210 5 0 9 -78 9 -179 0 -177 0
-180 25 -209 32 -39 74 -48 117 -28 63 30 63 29 66 376 2 243 -1 321 -11 340
-12 23 -18 25 -98 28 l-86 3 -212 -217 -211 -216 0 168 c0 141 -3 175 -18 204
-27 55 -88 75 -141 46z"/>
</g>
</svg>
