<?xml version="1.0" standalone="no"?>
<!DOCTYPE svg PUBLIC "-//W3C//DTD SVG 20010904//EN"
 "http://www.w3.org/TR/2001/REC-SVG-20010904/DTD/svg10.dtd">
<svg version="1.0" xmlns="http://www.w3.org/2000/svg"
 width="192.000000pt" height="192.000000pt" viewBox="0 0 192.000000 192.000000"
 preserveAspectRatio="xMidYMid meet">
<metadata>
Created by potrace 1.16, written by Peter Selinger 2001-2019
</metadata>
<g transform="translate(0.000000,192.000000) scale(0.100000,-0.100000)"
fill="#000000" stroke="none">
811 c445 -92 729 -532 635 -987 -62 -301 -295 -546 -601 -630 -91 -26 -329
-26 -420 0 -291 80 -516 305 -596 596 -26 91 -26 329 0 420 120 433 542 692
982 601z"/>
<path d="M853 1365 c-122 -33 -214 -108 -269 -220 -30 -61 -37 -87 -41 -157
-5 -73 -2 -92 23 -163 15 -44 30 -109 33 -145 l6 -65 65 -6 c36 -3 101 -18
145 -33 70 -25 90 -28 162 -23 198 12 352 152 386 350 21 125 -23 258 -116
351 -108 108 -253 149 -394 111z m214 -150 c59 -30 117 -89 144 -150 25 -57
36 -150 19 -170 -22 -26 -40 1 -40 59 0 131 -115 245 -247 246 -54 0 -69 10
-59 37 9 23 116 10 183 -22z m-52 -84 c73 -33 133 -125 123 -191 -5 -41 -30
-29 -43 22 -21 84 -68 130 -147 143 -28 5 -38 12 -38 26 0 25 50 25 105 0z
m-222 -53 c70 -88 71 -89 35 -132 l-31 -38 49 -49 c26 -27 52 -49 57 -49 5 0
23 11 39 25 29 25 30 25 60 8 16 -10 46 -32 66 -49 34 -29 36 -33 24 -58 -24
-53 -109 -69 -198 -39 -71 24 -173 128 -202 206 -33 88 -28 149 16 200 24 27
48 20 85 -25z"/>
</g>
</svg>
