<?xml version="1.0" standalone="no"?>
<!DOCTYPE svg PUBLIC "-//W3C//DTD SVG 20010904//EN"
 "http://www.w3.org/TR/2001/REC-SVG-20010904/DTD/svg10.dtd">
<svg version="1.0" xmlns="http://www.w3.org/2000/svg"
 width="192.000000pt" height="192.000000pt" viewBox="0 0 192.000000 192.000000"
 preserveAspectRatio="xMidYMid meet">
<metadata>
Created by potrace 1.16, written by Peter Selinger 2001-2019
</metadata>
<g transform="translate(0.000000,192.000000) scale(0.100000,-0.100000)"
fill="#000000" stroke="none">
811 c445 -92 729 -532 635 -987 -62 -301 -295 -546 -601 -630 -91 -26 -329
-26 -420 0 -291 80 -516 305 -596 596 -26 91 -26 329 0 420 120 433 542 692
982 601z"/>
<path d="M552 1318 c-7 -7 -12 -17 -12 -23 0 -6 61 -145 136 -310 152 -338
173 -368 258 -380 61 -9 128 15 160 58 13 18 81 166 152 330 99 233 125 303
117 315 -8 14 -31 18 -119 20 -60 2 -119 0 -131 -3 -16 -4 -38 -39 -88 -143
l-66 -137 -60 135 c-33 74 -65 138 -72 142 -20 13 -261 10 -275 -4z m217 -322
c66 -151 121 -279 121 -285 0 -6 -6 -11 -13 -11 -11 0 -240 498 -255 553 -3
10 1 17 11 17 9 0 55 -93 136 -274z m63 12 c64 -145 120 -263 124 -263 4 0 59
118 123 262 64 145 122 263 129 263 6 0 12 -5 12 -11 0 -22 -243 -558 -255
-563 -6 -2 -17 -1 -22 2 -11 7 -253 545 -253 562 0 6 6 10 13 10 7 0 64 -114
129 -262z m37 72 c48 -109 87 -186 92 -179 3 6 42 92 85 190 44 98 85 179 92
179 6 0 12 -6 12 -12 1 -13 -192 -450 -196 -445 -7 8 -194 437 -194 446 0 6 6
11 13 11 6 0 50 -86 96 -190z m419 173 c-15 -55 -244 -553 -255 -553 -7 0 -13
4 -13 10 0 5 55 134 121 285 80 181 127 275 137 275 9 0 13 -7 10 -17z"/>
</g>
</svg>
