<?xml version="1.0" standalone="no"?>
<!DOCTYPE svg PUBLIC "-//W3C//DTD SVG 20010904//EN"
 "http://www.w3.org/TR/2001/REC-SVG-20010904/DTD/svg10.dtd">
<svg version="1.0" xmlns="http://www.w3.org/2000/svg"
 width="192.000000pt" height="192.000000pt" viewBox="0 0 192.000000 192.000000"
 preserveAspectRatio="xMidYMid meet">
<metadata>
Created by potrace 1.16, written by Peter Selinger 2001-2019
</metadata>
<g transform="translate(0.000000,192.000000) scale(0.100000,-0.100000)"
fill="#000000" stroke="none">
811 c445 -92 729 -532 635 -987 -62 -301 -295 -546 -601 -630 -91 -26 -329
-26 -420 0 -291 80 -516 305 -596 596 -26 91 -26 329 0 420 120 433 542 692
982 601z"/>
<path d="M701 1381 c-16 -11 -17 -64 -1 -105 14 -39 13 -42 -20 -56 -17 -7
-42 -26 -56 -43 -24 -29 -25 -31 -7 -48 11 -11 38 -19 73 -22 l55 -4 20 -59
c25 -73 53 -84 84 -33 l19 32 31 -49 30 -49 -41 -7 c-81 -14 -100 -63 -48
-122 l31 -35 42 19 c85 39 92 35 187 -110 47 -72 93 -133 102 -136 28 -8 58
14 58 42 0 15 -27 68 -65 125 -36 55 -65 103 -65 108 0 5 13 11 29 14 39 8 97
57 79 68 -9 6 -8 9 5 15 11 4 17 17 17 36 0 19 -4 27 -11 22 -7 -4 -10 -1 -7
7 3 8 11 13 17 11 23 -5 4 108 -25 145 -25 33 -99 93 -114 93 -5 0 -15 -31
-25 -69 l-17 -68 49 -46 c54 -52 69 -56 107 -26 32 25 35 10 2 -20 -24 -23
-67 -38 -147 -50 l-48 -8 -46 69 c-40 61 -43 68 -24 68 31 0 59 19 59 40 0 10
-20 36 -45 58 l-45 40 21 47 c39 89 -3 125 -83 70 -20 -14 -40 -25 -43 -25 -3
0 -28 16 -56 35 -56 38 -58 39 -78 26z m439 -181 c0 -5 -2 -10 -4 -10 -3 0 -8
5 -11 10 -3 6 -1 10 4 10 6 0 11 -4 11 -10z m35 -20 c3 -5 2 -10 -4 -10 -5 0
-13 5 -16 10 -3 6 -2 10 4 10 5 0 13 -4 16 -10z m55 -62 c0 -7 -9 -2 -20 12
-26 33 -26 50 0 22 11 -12 20 -27 20 -34z m-90 -28 c14 -11 19 -20 12 -20 -7
0 -22 9 -34 20 -28 26 -11 26 22 0z m110 0 c0 -5 -2 -10 -4 -10 -3 0 -8 5 -11
10 -3 6 -1 10 4 10 6 0 11 -4 11 -10z m-65 -40 c3 -5 2 -10 -4 -10 -5 0 -13 5
-16 10 -3 6 -2 10 4 10 5 0 13 -4 16 -10z m45 -80 c0 -5 -4 -10 -10 -10 -5 0
-10 5 -10 10 0 6 5 10 10 10 6 0 10 -4 10 -10z m-35 -10 c3 -5 -1 -10 -10 -10
-9 0 -13 5 -10 10 3 6 8 10 10 10 2 0 7 -4 10 -10z m-45 -10 c0 -5 -4 -10 -10
-10 -5 0 -10 5 -10 10 0 6 5 10 10 10 6 0 10 -4 10 -10z m-40 -10 c0 -5 -4
-10 -9 -10 -6 0 -13 5 -16 10 -3 6 1 10 9 10 9 0 16 -4 16 -10z m-175 -20 c-3
-5 -10 -10 -16 -10 -5 0 -9 5 -9 10 0 6 7 10 16 10 8 0 12 -4 9 -10z m-45 -4
c0 -3 -4 -8 -10 -11 -5 -3 -10 -1 -10 4 0 6 5 11 10 11 6 0 10 -2 10 -4z m-35
-16 c3 -5 -1 -10 -10 -10 -9 0 -13 5 -10 10 3 6 8 10 10 10 2 0 7 -4 10 -10z
m357 -12 c-7 -7 -12 -8 -12 -2 0 14 12 26 19 19 2 -3 -1 -11 -7 -17z m-40 -20
c-7 -7 -12 -8 -12 -2 0 14 12 26 19 19 2 -3 -1 -11 -7 -17z m-32 -2 c0 -11
-19 -15 -25 -6 -3 5 1 10 9 10 9 0 16 -2 16 -4z m-170 -26 c0 -5 -7 -10 -16
-10 -8 0 -12 5 -9 10 3 6 10 10 16 10 5 0 9 -4 9 -10z m-40 -10 c0 -5 -7 -10
-16 -10 -8 0 -12 5 -9 10 3 6 10 10 16 10 5 0 9 -4 9 -10z m-45 -20 c-3 -5
-11 -10 -16 -10 -6 0 -7 5 -4 10 3 6 11 10 16 10 6 0 7 -4 4 -10z"/>
<path d="M570 931 c0 -28 5 -53 10 -56 6 -3 10 3 10 15 0 11 7 23 15 26 9 4
15 19 15 35 0 24 -4 29 -25 29 -23 0 -25 -3 -25 -49z m32 7 c-9 -9 -12 -7 -12
12 0 19 3 21 12 12 9 -9 9 -15 0 -24z"/>
<path d="M640 924 c0 -55 12 -65 23 -19 4 18 5 18 6 -2 0 -12 5 -25 11 -28 6
-4 9 14 7 47 -2 46 -5 53 -24 56 -22 3 -23 0 -23 -54z m27 24 c-3 -8 -6 -5 -6
6 -1 11 2 17 5 13 3 -3 4 -12 1 -19z"/>
<path d="M710 931 c0 -54 12 -70 36 -50 10 8 14 26 12 53 -2 34 -7 42 -25 44
-21 3 -23 0 -23 -47z m30 -2 c0 -24 -4 -38 -10 -34 -17 10 -11 75 7 75 2 0 3
-18 3 -41z"/>
<path d="M773 845 c-34 -81 -37 -109 -15 -157 18 -40 110 -138 130 -138 5 0
17 28 26 63 9 34 18 71 22 83 4 17 -3 26 -38 47 -60 35 -90 70 -97 114 l-6 38
-22 -50z m27 -36 c0 -5 -4 -9 -10 -9 -5 0 -10 7 -10 16 0 8 5 12 10 9 6 -3 10
-10 10 -16z m44 -68 c-6 -6 -44 30 -44 42 0 5 11 -1 24 -14 14 -13 23 -26 20
-28z m-70 -26 c3 -8 1 -15 -4 -15 -6 0 -10 7 -10 15 0 8 2 15 4 15 2 0 6 -7
10 -15z m106 5 c0 -5 -4 -10 -9 -10 -6 0 -13 5 -16 10 -3 6 1 10 9 10 9 0 16
-4 16 -10z m35 -20 c3 -5 2 -10 -4 -10 -5 0 -13 5 -16 10 -3 6 -2 10 4 10 5 0
13 -4 16 -10z m-120 -20 c3 -5 2 -10 -4 -10 -5 0 -13 5 -16 10 -3 6 -2 10 4
10 5 0 13 -4 16 -10z m30 -30 c3 -5 2 -10 -4 -10 -5 0 -13 5 -16 10 -3 6 -2
10 4 10 5 0 13 -4 16 -10z m30 -30 c3 -5 2 -10 -4 -10 -5 0 -13 5 -16 10 -3 6
-2 10 4 10 5 0 13 -4 16 -10z m35 -31 c0 -6 -4 -7 -10 -4 -5 3 -10 11 -10 16
0 6 5 7 10 4 6 -3 10 -11 10 -16z"/>
</g>
</svg>
