<?xml version="1.0" standalone="no"?>
<!DOCTYPE svg PUBLIC "-//W3C//DTD SVG 20010904//EN"
 "http://www.w3.org/TR/2001/REC-SVG-20010904/DTD/svg10.dtd">
<svg version="1.0" xmlns="http://www.w3.org/2000/svg"
 width="192.000000pt" height="192.000000pt" viewBox="0 0 192.000000 192.000000"
 preserveAspectRatio="xMidYMid meet">
<metadata>
Created by potrace 1.16, written by Peter Selinger 2001-2019
</metadata>
<g transform="translate(0.000000,192.000000) scale(0.100000,-0.100000)"
fill="#000000" stroke="none">
811 c445 -92 729 -532 635 -987 -62 -301 -295 -546 -601 -630 -91 -26 -329
-26 -420 0 -291 80 -516 305 -596 596 -26 91 -26 329 0 420 120 433 542 692
982 601z"/>
<path d="M584 1305 c-25 -25 -26 -31 -21 -93 3 -37 12 -91 20 -119 l14 -53
-35 -40 c-30 -36 -33 -45 -27 -77 20 -108 100 -193 252 -269 89 -45 104 -49
168 -49 64 0 79 4 168 49 152 76 233 162 252 268 6 33 3 42 -27 78 l-35 40 14
53 c8 28 17 82 20 119 5 62 4 68 -21 93 -33 33 -68 31 -165 -8 -48 -20 -69
-23 -88 -16 -13 5 -66 9 -118 9 -52 0 -105 -4 -118 -9 -19 -7 -40 -4 -88 16
-97 39 -132 41 -165 8z m121 -65 l26 -10 -43 -50 c-40 -47 -43 -49 -50 -28 -3
13 -6 43 -7 67 -1 41 0 43 24 37 13 -3 36 -11 50 -16z m574 -22 c-1 -24 -4
-53 -7 -66 -7 -21 -10 -19 -50 28 -43 50 -43 50 -20 59 13 4 30 11 38 14 34
13 40 7 39 -35z m-426 -240 c6 -18 -11 -48 -28 -48 -17 0 -34 30 -28 48 3 6
15 12 28 12 13 0 25 -6 28 -12z m260 0 c6 -18 -11 -48 -28 -48 -17 0 -34 30
-28 48 3 6 15 12 28 12 13 0 25 -6 28 -12z m-377 -62 c16 -12 19 -27 19 -99 0
-90 -6 -97 -46 -50 -43 49 -57 115 -29 143 24 24 30 24 56 6z m489 0 c41 -30
6 -144 -55 -176 -13 -7 -15 4 -15 77 0 72 3 87 19 99 24 17 28 17 51 0z m-229
-34 c7 -4 28 -27 48 -50 73 -89 33 -162 -89 -162 -122 0 -162 73 -89 162 45
53 52 58 89 58 17 0 35 -4 41 -8z"/>
<path d="M925 820 c-4 -7 0 -19 9 -28 13 -13 20 -14 34 -6 9 6 17 17 17 25 0
17 -50 24 -60 9z"/>
</g>
</svg>
