<?xml version="1.0" standalone="no"?>
<!DOCTYPE svg PUBLIC "-//W3C//DTD SVG 20010904//EN"
 "http://www.w3.org/TR/2001/REC-SVG-20010904/DTD/svg10.dtd">
<svg version="1.0" xmlns="http://www.w3.org/2000/svg"
 width="192.000000pt" height="192.000000pt" viewBox="0 0 192.000000 192.000000"
 preserveAspectRatio="xMidYMid meet">
<metadata>
Created by potrace 1.16, written by Peter Selinger 2001-2019
</metadata>
<g transform="translate(0.000000,192.000000) scale(0.100000,-0.100000)"
fill="#000000" stroke="none">
811 c445 -92 729 -532 635 -987 -62 -301 -295 -546 -601 -630 -91 -26 -329
-26 -420 0 -291 80 -516 305 -596 596 -26 91 -26 329 0 420 120 433 542 692
982 601z"/>
<path d="M690 1375 c-12 -14 -10 -68 4 -120 4 -16 -5 -27 -42 -50 -79 -50 -67
-90 28 -98 58 -5 59 -5 85 -79 13 -38 21 -48 39 -48 14 0 28 10 36 25 7 14 17
25 20 25 7 0 60 -75 60 -85 0 -3 -11 -5 -24 -5 -38 0 -74 -17 -86 -40 -14 -27
0 -67 35 -100 22 -20 25 -21 47 -6 13 9 45 19 69 22 l46 6 78 -122 c43 -67 88
-128 100 -136 26 -17 51 -10 66 17 12 22 10 25 -71 151 -33 51 -60 96 -60 100
0 4 7 8 15 8 41 0 132 69 92 70 -7 0 -4 6 6 14 11 9 20 33 23 67 6 51 5 53
-10 33 -21 -29 -84 -53 -156 -61 l-57 -6 -42 61 c-22 34 -41 63 -41 66 0 4 11
6 24 6 24 0 56 23 56 39 0 11 -39 52 -73 76 l-28 21 20 44 c11 25 21 55 21 68
0 42 -48 42 -111 -1 l-34 -23 -40 32 c-51 40 -78 49 -95 29z m560 -381 c0 -8
-32 -33 -42 -34 -5 0 -8 5 -8 10 0 6 7 10 15 10 8 0 15 5 15 10 0 6 5 10 10
10 6 0 10 -3 10 -6z m-60 -34 c0 -5 -7 -10 -16 -10 -8 0 -12 5 -9 10 3 6 10
10 16 10 5 0 9 -4 9 -10z m-45 -10 c3 -5 -1 -10 -9 -10 -9 0 -16 5 -16 10 0 6
4 10 9 10 6 0 13 -4 16 -10z m-40 -10 c-3 -5 -10 -10 -16 -10 -5 0 -9 5 -9 10
0 6 7 10 16 10 8 0 12 -4 9 -10z m-180 -20 c-3 -5 -10 -10 -16 -10 -5 0 -9 5
-9 10 0 6 7 10 16 10 8 0 12 -4 9 -10z m-35 -4 c0 -2 -7 -6 -15 -10 -8 -3 -15
-1 -15 4 0 6 7 10 15 10 8 0 15 -2 15 -4z m-45 -16 c3 -5 -1 -10 -10 -10 -9 0
-13 5 -10 10 3 6 8 10 10 10 2 0 7 -4 10 -10z m357 -12 c-7 -7 -12 -8 -12 -2
0 14 12 26 19 19 2 -3 -1 -11 -7 -17z m-25 -14 c-3 -3 -12 -4 -19 -1 -8 3 -5
6 6 6 11 1 17 -2 13 -5z m-37 -8 c0 -2 -7 -6 -15 -10 -8 -3 -15 -1 -15 4 0 6
7 10 15 10 8 0 15 -2 15 -4z m-180 -26 c0 -5 -4 -10 -10 -10 -5 0 -10 5 -10
10 0 6 5 10 10 10 6 0 10 -4 10 -10z m-40 -10 c0 -5 -7 -10 -16 -10 -8 0 -12
5 -9 10 3 6 10 10 16 10 5 0 9 -4 9 -10z m-40 -14 c0 -3 -4 -8 -10 -11 -5 -3
-10 -1 -10 4 0 6 5 11 10 11 6 0 10 -2 10 -4z"/>
<path d="M1106 1232 c-2 -4 -12 -36 -21 -71 -16 -62 -16 -64 4 -78 12 -8 34
-28 51 -46 25 -27 32 -30 56 -22 15 6 36 22 47 37 17 23 18 30 7 57 -22 54
-129 146 -144 123z m47 -38 c9 -4 17 -10 17 -15 0 -14 -13 -10 -40 12 -14 11
-18 18 -10 15 8 -3 23 -9 33 -12z m86 -91 c8 -15 8 -23 1 -23 -5 0 -10 6 -10
13 0 8 -11 24 -25 37 -14 13 -25 28 -25 33 0 13 44 -32 59 -60z m-124 -3 c3
-5 2 -10 -4 -10 -5 0 -13 5 -16 10 -3 6 -2 10 4 10 5 0 13 -4 16 -10z m59 -59
c-6 -6 -44 30 -44 42 0 5 11 -1 24 -14 14 -13 23 -26 20 -28z"/>
<path d="M540 935 c0 -32 5 -47 15 -52 9 -3 19 -2 23 2 4 4 1 10 -5 12 -8 3
-13 22 -13 44 0 21 -4 39 -10 39 -5 0 -10 -20 -10 -45z"/>
<path d="M603 930 c0 -30 2 -43 4 -27 2 15 2 39 0 55 -2 15 -4 2 -4 -28z"/>
<path d="M628 973 c7 -2 12 -22 12 -44 0 -54 17 -49 22 6 3 42 2 45 -22 44
-14 0 -19 -3 -12 -6z"/>
<path d="M690 930 c0 -37 4 -50 14 -50 8 0 18 5 21 10 3 6 -1 10 -9 10 -21 0
-20 17 0 28 15 8 15 10 0 15 -21 8 -20 24 2 30 13 4 11 5 -5 6 -21 1 -23 -3
-23 -49z"/>
<path d="M762 843 c-25 -59 -29 -131 -7 -172 14 -28 110 -121 125 -121 6 0 50
142 50 162 0 3 -19 17 -42 31 -60 35 -90 70 -97 114 l-6 38 -23 -52z m28 -34
c0 -6 -4 -7 -10 -4 -5 3 -10 11 -10 16 0 6 5 7 10 4 6 -3 10 -11 10 -16z m20
-35 c0 -8 -4 -12 -10 -9 -5 3 -10 10 -10 16 0 5 5 9 10 9 6 0 10 -7 10 -16z
m30 -35 c0 -6 -4 -7 -10 -4 -5 3 -10 11 -10 16 0 6 5 7 10 4 6 -3 10 -11 10
-16z m-70 -30 c0 -5 -4 -9 -10 -9 -5 0 -10 7 -10 16 0 8 5 12 10 9 6 -3 10
-10 10 -16z m100 11 c0 -5 -4 -10 -10 -10 -5 0 -10 5 -10 10 0 6 5 10 10 10 6
0 10 -4 10 -10z m40 -20 c0 -5 -4 -10 -9 -10 -6 0 -13 5 -16 10 -3 6 1 10 9
10 9 0 16 -4 16 -10z m-120 -20 c0 -5 -4 -10 -10 -10 -5 0 -10 5 -10 10 0 6 5
10 10 10 6 0 10 -4 10 -10z m25 -30 c3 -5 2 -10 -4 -10 -5 0 -13 5 -16 10 -3
6 -2 10 4 10 5 0 13 -4 16 -10z m35 -30 c0 -5 -4 -10 -9 -10 -6 0 -13 5 -16
10 -3 6 1 10 9 10 9 0 16 -4 16 -10z m30 -31 c0 -6 -4 -7 -10 -4 -5 3 -10 11
-10 16 0 6 5 7 10 4 6 -3 10 -11 10 -16z"/>
</g>
</svg>
