<?xml version="1.0" standalone="no"?>
<!DOCTYPE svg PUBLIC "-//W3C//DTD SVG 20010904//EN"
 "http://www.w3.org/TR/2001/REC-SVG-20010904/DTD/svg10.dtd">
<svg version="1.0" xmlns="http://www.w3.org/2000/svg"
 width="192.000000pt" height="192.000000pt" viewBox="0 0 192.000000 192.000000"
 preserveAspectRatio="xMidYMid meet">
<metadata>
Created by potrace 1.16, written by Peter Selinger 2001-2019
</metadata>
<g transform="translate(0.000000,192.000000) scale(0.100000,-0.100000)"
fill="#000000" stroke="none">
811 c445 -92 729 -532 635 -987 -62 -301 -295 -546 -601 -630 -91 -26 -329
-26 -420 0 -291 80 -516 305 -596 596 -26 91 -26 329 0 420 120 433 542 692
982 601z"/>
<path d="M838 1327 c-100 -38 -175 -104 -225 -199 -25 -48 -28 -63 -28 -158 0
-93 3 -111 27 -162 97 -207 356 -280 552 -155 95 61 166 184 166 290 0 60 -12
77 -51 77 -35 0 -59 -33 -59 -80 0 -89 -88 -197 -184 -225 -63 -19 -99 -19
-162 0 -182 54 -244 285 -115 428 79 88 205 112 311 60 l55 -27 -40 -4 c-67
-6 -92 -43 -59 -90 14 -20 23 -22 125 -22 145 0 149 3 149 138 0 116 -13 145
-63 140 -25 -2 -35 -10 -46 -34 l-13 -31 -57 31 c-49 27 -67 31 -151 33 -62 2
-108 -1 -132 -10z"/>
</g>
</svg>
