<?xml version="1.0" standalone="no"?>
<!DOCTYPE svg PUBLIC "-//W3C//DTD SVG 20010904//EN"
 "http://www.w3.org/TR/2001/REC-SVG-20010904/DTD/svg10.dtd">
<svg version="1.0" xmlns="http://www.w3.org/2000/svg"
 width="192.000000pt" height="192.000000pt" viewBox="0 0 192.000000 192.000000"
 preserveAspectRatio="xMidYMid meet">
<metadata>
Created by potrace 1.16, written by Peter Selinger 2001-2019
</metadata>
<g transform="translate(0.000000,192.000000) scale(0.100000,-0.100000)"
fill="#000000" stroke="none">
811 c445 -92 729 -532 635 -987 -62 -301 -295 -546 -601 -630 -91 -26 -329
-26 -420 0 -291 80 -516 305 -596 596 -26 91 -26 329 0 420 120 433 542 692
982 601z"/>
<path d="M716 1325 c-49 -17 -93 -59 -117 -110 -16 -35 -19 -67 -19 -251 0
-207 0 -211 26 -263 17 -34 41 -62 67 -79 40 -27 41 -27 261 -30 141 -2 235 1
258 8 49 14 94 53 119 102 19 36 20 55 17 272 l-3 233 -27 40 c-17 26 -45 50
-79 67 -52 26 -56 26 -258 26 -149 -1 -217 -5 -245 -15z m274 -268 c36 -22 73
-46 83 -55 20 -18 22 -61 5 -84 -18 -22 -169 -108 -191 -108 -10 0 -29 11 -42
25 -23 22 -25 31 -25 120 0 103 9 131 43 144 29 11 52 4 127 -42z"/>
</g>
</svg>
