<?xml version="1.0" standalone="no"?>
<!DOCTYPE svg PUBLIC "-//W3C//DTD SVG 20010904//EN"
 "http://www.w3.org/TR/2001/REC-SVG-20010904/DTD/svg10.dtd">
<svg version="1.0" xmlns="http://www.w3.org/2000/svg"
 width="192.000000pt" height="192.000000pt" viewBox="0 0 192.000000 192.000000"
 preserveAspectRatio="xMidYMid meet">
<metadata>
Created by potrace 1.16, written by Peter Selinger 2001-2019
</metadata>
<g transform="translate(0.000000,192.000000) scale(0.100000,-0.100000)"
fill="#000000" stroke="none">
811 c445 -92 729 -532 635 -987 -62 -301 -295 -546 -601 -630 -91 -26 -329
-26 -420 0 -291 80 -516 305 -596 596 -26 91 -26 329 0 420 120 433 542 692
982 601z"/>
<path d="M667 1336 c-50 -18 -76 -42 -98 -91 -62 -135 59 -283 200 -245 82 22
131 86 131 170 0 79 -37 133 -112 165 -45 18 -71 18 -121 1z"/>
<path d="M1085 1332 c-124 -58 -147 -210 -45 -296 88 -73 220 -45 269 57 27
55 27 99 0 155 -41 83 -143 122 -224 84z m99 -37 c13 -34 -24 -66 -50 -44 -15
12 -19 41 -7 52 12 13 51 7 57 -8z m-114 -70 c20 -25 8 -50 -25 -50 -21 0 -31
5 -33 18 -4 21 14 47 33 47 7 0 18 -7 25 -15z m213 -7 c17 -26 1 -50 -30 -46
-34 4 -43 36 -17 55 21 15 34 13 47 -9z m-168 -137 c0 -34 -30 -51 -51 -29
-25 24 -10 60 24 56 21 -2 27 -8 27 -27z m132 13 c8 -22 -10 -49 -32 -49 -22
0 -40 27 -32 49 8 21 56 21 64 0z"/>
<path d="M902 1015 c-54 -54 -96 -70 -189 -70 l-83 0 0 -153 c0 -149 1 -154
25 -177 l24 -25 260 0 259 0 26 31 c14 17 26 42 26 55 l0 25 37 -30 c69 -57
73 -51 73 109 0 159 -3 163 -71 109 l-39 -31 0 44 0 44 -71 -4 c-86 -5 -145
15 -204 69 l-41 38 -32 -34z"/>
</g>
</svg>
