<?xml version="1.0" standalone="no"?>
<!DOCTYPE svg PUBLIC "-//W3C//DTD SVG 20010904//EN"
 "http://www.w3.org/TR/2001/REC-SVG-20010904/DTD/svg10.dtd">
<svg version="1.0" xmlns="http://www.w3.org/2000/svg"
 width="192.000000pt" height="192.000000pt" viewBox="0 0 192.000000 192.000000"
 preserveAspectRatio="xMidYMid meet">
<metadata>
Created by potrace 1.16, written by Peter Selinger 2001-2019
</metadata>
<g transform="translate(0.000000,192.000000) scale(0.100000,-0.100000)"
fill="#000000" stroke="none">
810 c245 -63 441 -223 549 -451 55 -116 75 -212 75 -354 0 -141 -20 -238 -75
-352 -86 -182 -215 -312 -396 -398 -116 -55 -212 -75 -354 -75 -142 0 -238 20
-354 75 -228 108 -388 304 -451 549 -28 110 -28 292 0 402 76 298 303 526 600
603 106 28 298 28 406 1z"/>
<path d="M833 1346 c-101 -33 -190 -113 -241 -216 -24 -50 -27 -66 -27 -165 0
-104 2 -114 32 -176 83 -168 277 -260 453 -215 160 41 272 161 302 324 31 168
-69 355 -230 430 -47 22 -73 27 -152 29 -59 2 -111 -3 -137 -11z m174 -280
c112 -72 127 -87 118 -115 -5 -17 -183 -139 -227 -156 -10 -4 -25 2 -37 14
-19 19 -21 33 -21 149 0 136 10 172 50 172 11 0 63 -29 117 -64z"/>
</g>
</svg>
