<?xml version="1.0" standalone="no"?>
<!DOCTYPE svg PUBLIC "-//W3C//DTD SVG 20010904//EN"
 "http://www.w3.org/TR/2001/REC-SVG-20010904/DTD/svg10.dtd">
<svg version="1.0" xmlns="http://www.w3.org/2000/svg"
 width="192.000000pt" height="192.000000pt" viewBox="0 0 192.000000 192.000000"
 preserveAspectRatio="xMidYMid meet">
<metadata>
Created by potrace 1.16, written by Peter Selinger 2001-2019
</metadata>
<g transform="translate(0.000000,192.000000) scale(0.100000,-0.100000)"
fill="#000000" stroke="none">
810 c245 -63 441 -223 549 -451 55 -116 75 -212 75 -354 0 -141 -20 -238 -75
-352 -86 -182 -215 -312 -396 -398 -116 -55 -212 -75 -354 -75 -142 0 -238 20
-354 75 -228 108 -388 304 -451 549 -28 110 -28 292 0 402 76 298 303 526 600
603 106 28 298 28 406 1z"/>
<path d="M835 1345 c-92 -34 -160 -86 -208 -158 -53 -81 -70 -144 -65 -247 5
-110 42 -193 118 -264 163 -152 405 -149 558 8 62 62 97 130 113 218 31 168
-68 351 -231 427 -68 31 -220 40 -285 16z m171 -276 c109 -71 128 -90 120
-117 -7 -20 -212 -162 -234 -162 -7 0 -21 9 -32 20 -18 18 -20 33 -20 151 0
72 5 139 10 150 18 33 59 23 156 -42z"/>
</g>
</svg>
