<?xml version="1.0" standalone="no"?>
<!DOCTYPE svg PUBLIC "-//W3C//DTD SVG 20010904//EN"
 "http://www.w3.org/TR/2001/REC-SVG-20010904/DTD/svg10.dtd">
<svg version="1.0" xmlns="http://www.w3.org/2000/svg"
 width="192.000000pt" height="192.000000pt" viewBox="0 0 192.000000 192.000000"
 preserveAspectRatio="xMidYMid meet">
<metadata>
Created by potrace 1.16, written by Peter Selinger 2001-2019
</metadata>
<g transform="translate(0.000000,192.000000) scale(0.100000,-0.100000)"
fill="#000000" stroke="none">
811 c445 -92 729 -532 635 -987 -62 -301 -295 -546 -601 -630 -91 -26 -329
-26 -420 0 -291 80 -516 305 -596 596 -26 91 -26 329 0 420 120 433 542 692
982 601z"/>
<path d="M708 1361 c-105 -34 -158 -162 -108 -261 11 -21 36 -51 57 -67 33
-25 45 -28 115 -29 67 0 82 -3 101 -22 l21 -22 -25 -26 c-24 -24 -29 -25 -67
-15 -48 13 -82 7 -137 -24 -100 -57 -115 -206 -29 -287 131 -122 353 5 306
175 -9 32 -7 38 17 61 l27 26 89 -91 c50 -50 102 -97 117 -105 50 -26 138 -11
138 24 0 10 -56 73 -125 142 l-126 124 126 126 c69 69 125 131 125 138 0 17
-43 32 -92 32 -39 0 -47 -6 -148 -105 l-106 -105 -21 22 c-19 20 -21 31 -16
85 7 78 -20 142 -78 180 -43 28 -114 39 -161 24z m82 -61 c8 -14 8 -26 0 -40
-19 -35 -80 -20 -80 20 0 40 61 55 80 20z m98 -42 c33 -33 -6 -91 -47 -69 -27
15 -32 35 -15 60 17 23 44 27 62 9z m-190 -30 c30 -30 0 -75 -42 -64 -29 7
-43 41 -26 61 15 18 52 19 68 3z m90 -41 c4 -20 -25 -34 -40 -19 -15 15 -1 44
19 40 10 -2 19 -11 21 -21z m76 -40 c38 -27 -2 -95 -41 -71 -22 14 -29 50 -13
70 15 17 31 18 54 1z m-114 -22 c7 -9 10 -25 6 -40 -6 -22 -11 -26 -39 -23
-25 2 -33 8 -35 26 -7 44 41 70 68 37z m66 -328 c36 -32 36 -83 -1 -114 -33
-29 -65 -29 -99 -2 -20 16 -26 29 -26 59 0 70 72 103 126 57z"/>
</g>
</svg>
