<?xml version="1.0" standalone="no"?>
<!DOCTYPE svg PUBLIC "-//W3C//DTD SVG 20010904//EN"
 "http://www.w3.org/TR/2001/REC-SVG-20010904/DTD/svg10.dtd">
<svg version="1.0" xmlns="http://www.w3.org/2000/svg"
 width="192.000000pt" height="192.000000pt" viewBox="0 0 192.000000 192.000000"
 preserveAspectRatio="xMidYMid meet">
<metadata>
Created by potrace 1.16, written by Peter Selinger 2001-2019
</metadata>
<g transform="translate(0.000000,192.000000) scale(0.100000,-0.100000)"
fill="#000000" stroke="none">
811 c445 -92 729 -532 635 -987 -62 -301 -295 -546 -601 -630 -91 -26 -329
-26 -420 0 -291 80 -516 305 -596 596 -26 91 -26 329 0 420 120 433 542 692
982 601z"/>
<path d="M710 1329 c-52 -16 -86 -44 -109 -92 -19 -40 -21 -61 -21 -270 0
-281 10 -315 105 -358 35 -16 68 -19 273 -19 173 0 241 3 265 14 37 15 94 76
102 109 3 12 5 133 3 268 l-3 246 -28 36 c-52 69 -65 72 -322 74 -134 1 -244
-2 -265 -8z m-2 -207 c3 -32 2 -33 -30 -30 -22 2 -34 9 -36 21 -5 25 17 49 42
45 16 -2 22 -11 24 -36z m567 3 c0 -27 -3 -30 -30 -30 -21 0 -31 5 -33 18 -6
33 6 49 35 45 24 -3 28 -8 28 -33z m-285 6 c5 -11 10 -66 10 -122 l0 -103 28
27 c15 15 35 27 44 27 23 0 41 -26 34 -48 -8 -25 -130 -142 -148 -142 -7 0
-44 31 -82 69 -52 52 -67 74 -64 92 5 36 43 37 79 3 l29 -28 0 115 c0 64 3
119 7 122 13 14 53 6 63 -12z m-280 -161 c0 -27 -3 -30 -30 -30 -18 0 -33 6
-36 15 -11 27 4 45 36 45 27 0 30 -3 30 -30z m565 0 c0 -21 -5 -26 -32 -28
-31 -3 -33 -1 -33 28 0 29 2 31 33 28 27 -2 32 -7 32 -28z m-567 -162 c-2 -27
-7 -33 -27 -33 -28 0 -47 25 -38 49 4 10 18 16 37 16 29 0 31 -2 28 -32z m570
6 c4 -27 -21 -47 -48 -39 -20 6 -28 44 -13 59 15 15 58 1 61 -20z"/>
</g>
</svg>
