<?xml version="1.0" standalone="no"?>
<!DOCTYPE svg PUBLIC "-//W3C//DTD SVG 20010904//EN"
 "http://www.w3.org/TR/2001/REC-SVG-20010904/DTD/svg10.dtd">
<svg version="1.0" xmlns="http://www.w3.org/2000/svg"
 width="192.000000pt" height="192.000000pt" viewBox="0 0 192.000000 192.000000"
 preserveAspectRatio="xMidYMid meet">
<metadata>
Created by potrace 1.16, written by Peter Selinger 2001-2019
</metadata>
<g transform="translate(0.000000,192.000000) scale(0.100000,-0.100000)"
fill="#000000" stroke="none">
810 c245 -63 441 -223 549 -451 55 -116 75 -212 75 -354 0 -141 -20 -238 -75
-352 -86 -182 -215 -312 -396 -398 -116 -55 -212 -75 -354 -75 -142 0 -238 20
-354 75 -228 108 -388 304 -451 549 -28 110 -28 292 0 402 76 298 303 526 600
603 106 28 298 28 406 1z"/>
<path d="M822 1341 c-111 -41 -204 -136 -244 -248 -31 -90 -23 -218 20 -305
56 -114 162 -193 296 -219 155 -32 340 62 419 213 103 197 14 451 -193 547
-76 35 -220 41 -298 12z m184 -272 c109 -71 128 -90 120 -117 -7 -20 -212
-162 -234 -162 -7 0 -21 9 -32 20 -18 18 -20 33 -20 154 0 194 16 204 166 105z"/>
</g>
</svg>
