<?xml version="1.0" standalone="no"?>
<!DOCTYPE svg PUBLIC "-//W3C//DTD SVG 20010904//EN"
 "http://www.w3.org/TR/2001/REC-SVG-20010904/DTD/svg10.dtd">
<svg version="1.0" xmlns="http://www.w3.org/2000/svg"
 width="192.000000pt" height="192.000000pt" viewBox="0 0 192.000000 192.000000"
 preserveAspectRatio="xMidYMid meet">
<metadata>
Created by potrace 1.16, written by Peter Selinger 2001-2019
</metadata>
<g transform="translate(0.000000,192.000000) scale(0.100000,-0.100000)"
fill="#000000" stroke="none">
811 c445 -92 729 -532 635 -987 -62 -301 -295 -546 -601 -630 -91 -26 -329
-26 -420 0 -291 80 -516 305 -596 596 -26 91 -26 329 0 420 120 433 542 692
982 601z"/>
<path d="M663 1370 c-71 -43 -89 -129 -40 -193 l26 -34 -25 -11 c-24 -12 -24
-12 -24 -171 0 -135 2 -161 17 -172 10 -9 50 -15 114 -17 l97 -4 -19 -41 c-10
-23 -19 -63 -19 -89 0 -48 16 -98 32 -98 5 0 24 33 42 73 l33 72 23 -50 c12
-27 26 -60 31 -72 16 -43 41 -21 54 48 4 24 0 53 -14 94 -12 33 -21 60 -21 61
0 1 43 4 96 6 107 3 124 14 124 74 l0 33 35 -15 c45 -18 81 -18 89 2 3 9 6 55
6 104 0 116 -13 126 -112 85 -15 -6 -18 -2 -18 22 0 31 -26 63 -51 63 -11 1
-11 3 1 13 98 76 42 237 -82 237 -115 0 -180 -140 -102 -221 l28 -29 -89 0
-88 0 21 23 c105 111 -35 286 -165 207z m477 -289 c0 -27 -19 -36 -37 -18 -18
18 -9 37 18 37 12 0 19 -7 19 -19z"/>
</g>
</svg>
