<?xml version="1.0" standalone="no"?>
<!DOCTYPE svg PUBLIC "-//W3C//DTD SVG 20010904//EN"
 "http://www.w3.org/TR/2001/REC-SVG-20010904/DTD/svg10.dtd">
<svg version="1.0" xmlns="http://www.w3.org/2000/svg"
 width="192.000000pt" height="192.000000pt" viewBox="0 0 192.000000 192.000000"
 preserveAspectRatio="xMidYMid meet">
<metadata>
Created by potrace 1.16, written by Peter Selinger 2001-2019
</metadata>
<g transform="translate(0.000000,192.000000) scale(0.100000,-0.100000)"
fill="#000000" stroke="none">
810 c245 -63 441 -223 549 -451 55 -116 75 -212 75 -354 0 -141 -20 -238 -75
-352 -86 -182 -215 -312 -396 -398 -116 -55 -212 -75 -354 -75 -142 0 -238 20
-354 75 -228 108 -388 304 -451 549 -28 110 -28 292 0 402 76 298 303 526 600
603 106 28 298 28 406 1z"/>
<path d="M845 1347 c-117 -39 -198 -110 -248 -215 -30 -62 -32 -75 -32 -172 0
-95 3 -111 28 -162 81 -165 254 -258 425 -228 172 30 302 160 332 332 30 171
-64 346 -228 424 -47 23 -74 28 -147 31 -56 2 -105 -2 -130 -10z m172 -284
c102 -67 119 -86 107 -116 -6 -17 -213 -157 -232 -157 -7 0 -21 9 -32 20 -18
18 -20 33 -20 151 0 72 5 139 10 150 19 34 59 23 167 -48z"/>
</g>
</svg>
