<?xml version="1.0" standalone="no"?>
<!DOCTYPE svg PUBLIC "-//W3C//DTD SVG 20010904//EN"
 "http://www.w3.org/TR/2001/REC-SVG-20010904/DTD/svg10.dtd">
<svg version="1.0" xmlns="http://www.w3.org/2000/svg"
 width="192.000000pt" height="192.000000pt" viewBox="0 0 192.000000 192.000000"
 preserveAspectRatio="xMidYMid meet">
<metadata>
Created by potrace 1.16, written by Peter Selinger 2001-2019
</metadata>
<g transform="translate(0.000000,192.000000) scale(0.100000,-0.100000)"
fill="#000000" stroke="none">
810 c245 -63 441 -223 549 -451 55 -116 75 -212 75 -354 0 -141 -20 -238 -75
-352 -86 -182 -215 -312 -396 -398 -116 -55 -212 -75 -354 -75 -142 0 -238 20
-354 75 -228 108 -388 304 -451 549 -28 110 -28 292 0 402 76 298 303 526 600
603 106 28 298 28 406 1z"/>
<path d="M823 1341 c-105 -39 -180 -107 -231 -211 -24 -50 -27 -66 -27 -165 0
-98 3 -116 27 -167 55 -117 169 -205 299 -229 265 -49 509 195 460 460 -24
130 -112 245 -229 299 -77 36 -221 42 -299 13z m181 -271 c109 -70 130 -91
122 -118 -7 -20 -184 -144 -223 -156 -15 -5 -28 -1 -42 13 -19 19 -21 33 -21
155 0 193 15 203 164 106z"/>
</g>
</svg>
