<?xml version="1.0" standalone="no"?>
<!DOCTYPE svg PUBLIC "-//W3C//DTD SVG 20010904//EN"
 "http://www.w3.org/TR/2001/REC-SVG-20010904/DTD/svg10.dtd">
<svg version="1.0" xmlns="http://www.w3.org/2000/svg"
 width="192.000000pt" height="192.000000pt" viewBox="0 0 192.000000 192.000000"
 preserveAspectRatio="xMidYMid meet">
<metadata>
Created by potrace 1.16, written by Peter Selinger 2001-2019
</metadata>
<g transform="translate(0.000000,192.000000) scale(0.100000,-0.100000)"
fill="#000000" stroke="none">
811 c445 -92 729 -532 635 -987 -62 -301 -295 -546 -601 -630 -91 -26 -329
-26 -420 0 -291 80 -516 305 -596 596 -26 91 -26 329 0 420 120 433 542 692
982 601z"/>
<path d="M1193 1350 c-29 -12 -63 -67 -63 -102 0 -30 41 -84 71 -93 23 -8 21
-29 -12 -125 -42 -121 -199 -305 -199 -232 0 9 7 69 16 132 8 63 12 135 9 160
-13 84 -64 154 -137 184 -46 20 -138 21 -181 3 -155 -66 -188 -280 -59 -387
46 -38 103 -41 126 -8 25 36 19 62 -24 100 -45 41 -57 76 -40 119 13 30 54 59
85 59 30 0 72 -29 85 -59 10 -25 8 -62 -9 -209 -27 -233 -27 -253 3 -285 13
-14 36 -29 50 -33 64 -16 233 114 322 248 90 135 136 300 115 415 -17 95 -84
143 -158 113z"/>
</g>
</svg>
