<?xml version="1.0" standalone="no"?>
<!DOCTYPE svg PUBLIC "-//W3C//DTD SVG 20010904//EN"
 "http://www.w3.org/TR/2001/REC-SVG-20010904/DTD/svg10.dtd">
<svg version="1.0" xmlns="http://www.w3.org/2000/svg"
 width="192.000000pt" height="192.000000pt" viewBox="0 0 192.000000 192.000000"
 preserveAspectRatio="xMidYMid meet">
<metadata>
Created by potrace 1.16, written by Peter Selinger 2001-2019
</metadata>
<g transform="translate(0.000000,192.000000) scale(0.100000,-0.100000)"
fill="#000000" stroke="none">
811 c445 -92 729 -532 635 -987 -62 -301 -295 -546 -601 -630 -91 -26 -329
-26 -420 0 -291 80 -516 305 -596 596 -26 91 -26 329 0 420 120 433 542 692
982 601z"/>
<path d="M695 1321 c-49 -22 -79 -54 -100 -103 -12 -30 -15 -81 -15 -255 0
-243 7 -273 69 -326 52 -44 88 -49 328 -45 l221 3 43 30 c79 56 84 77 84 340
0 263 -5 284 -84 340 l-43 30 -231 3 c-209 2 -236 0 -272 -17z m13 -233 c6 -7
16 -41 23 -76 14 -66 22 -64 34 8 12 76 36 100 65 65 13 -16 12 -23 -36 -192
-16 -56 -45 -77 -70 -52 -18 19 -69 220 -61 242 8 20 30 22 45 5z m220 0 c19
-19 16 -232 -3 -248 -12 -10 -18 -10 -30 0 -12 10 -15 37 -15 124 0 103 7 136
30 136 3 0 11 -5 18 -12z m96 6 c11 -4 16 -20 17 -53 l0 -46 24 53 c24 53 43
64 64 38 9 -11 9 -23 -3 -51 -13 -31 -14 -37 -1 -42 23 -8 21 -148 -1 -157
-26 -10 -44 13 -44 55 0 32 -3 39 -20 39 -17 0 -20 -7 -20 -44 0 -47 -20 -67
-46 -45 -18 15 -20 229 -2 247 14 14 12 14 32 6z m210 0 c24 -9 24 -249 0
-258 -35 -14 -44 12 -44 128 0 74 4 116 12 124 14 14 12 14 32 6z"/>
</g>
</svg>
