<?xml version="1.0" standalone="no"?>
<!DOCTYPE svg PUBLIC "-//W3C//DTD SVG 20010904//EN"
 "http://www.w3.org/TR/2001/REC-SVG-20010904/DTD/svg10.dtd">
<svg version="1.0" xmlns="http://www.w3.org/2000/svg"
 width="192.000000pt" height="192.000000pt" viewBox="0 0 192.000000 192.000000"
 preserveAspectRatio="xMidYMid meet">
<metadata>
Created by potrace 1.16, written by Peter Selinger 2001-2019
</metadata>
<g transform="translate(0.000000,192.000000) scale(0.100000,-0.100000)"
fill="#000000" stroke="none">
811 c445 -92 729 -532 635 -987 -62 -301 -295 -546 -601 -630 -91 -26 -329
-26 -420 0 -291 80 -516 305 -596 596 -26 91 -26 329 0 420 120 433 542 692
982 601z"/>
<path d="M630 1327 c-46 -16 -80 -68 -80 -121 0 -35 23 -81 150 -301 83 -143
163 -270 177 -282 53 -44 131 -36 179 18 12 13 85 136 163 273 114 202 141
257 141 288 0 81 -50 128 -134 128 -64 0 -90 -28 -181 -190 -42 -74 -80 -138
-84 -142 -4 -4 -44 57 -89 136 -86 150 -109 178 -155 195 -34 13 -43 13 -87
-2z"/>
</g>
</svg>
