<?xml version="1.0" standalone="no"?>
<!DOCTYPE svg PUBLIC "-//W3C//DTD SVG 20010904//EN"
 "http://www.w3.org/TR/2001/REC-SVG-20010904/DTD/svg10.dtd">
<svg version="1.0" xmlns="http://www.w3.org/2000/svg"
 width="192.000000pt" height="192.000000pt" viewBox="0 0 192.000000 192.000000"
 preserveAspectRatio="xMidYMid meet">
<metadata>
Created by potrace 1.16, written by Peter Selinger 2001-2019
</metadata>
<g transform="translate(0.000000,192.000000) scale(0.100000,-0.100000)"
fill="#000000" stroke="none">
811 c445 -92 729 -532 635 -987 -62 -301 -295 -546 -601 -630 -91 -26 -329
-26 -420 0 -291 80 -516 305 -596 596 -26 91 -26 329 0 420 120 433 542 692
982 601z"/>
<path d="M1199 1336 c-59 -16 -104 -48 -135 -98 -31 -49 -25 -74 22 -82 48
-10 62 -41 46 -103 -24 -87 -101 -193 -142 -193 -29 0 -43 39 -69 190 -37 221
-65 280 -134 280 -62 0 -257 -148 -257 -195 0 -32 28 -39 67 -18 30 16 33 16
51 0 26 -23 44 -73 87 -237 43 -162 84 -254 128 -281 42 -25 53 -24 118 8 111
55 302 278 376 439 52 114 32 253 -42 288 -39 19 -54 19 -116 2z"/>
</g>
</svg>
