<?xml version="1.0" standalone="no"?>
<!DOCTYPE svg PUBLIC "-//W3C//DTD SVG 20010904//EN"
 "http://www.w3.org/TR/2001/REC-SVG-20010904/DTD/svg10.dtd">
<svg version="1.0" xmlns="http://www.w3.org/2000/svg"
 width="192.000000pt" height="192.000000pt" viewBox="0 0 192.000000 192.000000"
 preserveAspectRatio="xMidYMid meet">
<metadata>
Created by potrace 1.16, written by Peter Selinger 2001-2019
</metadata>
<g transform="translate(0.000000,192.000000) scale(0.100000,-0.100000)"
fill="#000000" stroke="none">
811 c445 -92 729 -532 635 -987 -62 -301 -295 -546 -601 -630 -91 -26 -329
-26 -420 0 -291 80 -516 305 -596 596 -26 91 -26 329 0 420 120 433 542 692
982 601z"/>
<path d="M1072 1369 c-22 -8 -22 -11 -22 -206 l0 -198 -49 92 c-61 114 -143
234 -188 273 -45 40 -83 39 -153 -3 -41 -25 -56 -40 -58 -59 -3 -23 6 -33 60
-69 80 -53 226 -170 298 -237 53 -49 54 -51 22 -41 -75 25 -164 -8 -212 -79
-29 -41 -39 -136 -20 -182 25 -59 116 -120 180 -120 37 0 94 24 127 53 59 52
63 71 63 318 0 207 1 221 18 214 88 -37 124 -46 186 -48 l71 -2 0 105 0 104
-78 12 c-47 8 -106 26 -150 47 -54 25 -79 32 -95 26z"/>
</g>
</svg>
