<?xml version="1.0" standalone="no"?>
<!DOCTYPE svg PUBLIC "-//W3C//DTD SVG 20010904//EN"
 "http://www.w3.org/TR/2001/REC-SVG-20010904/DTD/svg10.dtd">
<svg version="1.0" xmlns="http://www.w3.org/2000/svg"
 width="192.000000pt" height="192.000000pt" viewBox="0 0 192.000000 192.000000"
 preserveAspectRatio="xMidYMid meet">
<metadata>
Created by potrace 1.16, written by Peter Selinger 2001-2019
</metadata>
<g transform="translate(0.000000,192.000000) scale(0.100000,-0.100000)"
fill="#000000" stroke="none">
811 c445 -92 729 -532 635 -987 -62 -301 -295 -546 -601 -630 -91 -26 -329
-26 -420 0 -291 80 -516 305 -596 596 -26 91 -26 329 0 420 120 433 542 692
982 601z"/>
<path d="M1035 1356 c-40 -17 -90 -75 -105 -122 -18 -54 -8 -168 21 -228 12
-28 41 -67 62 -88 l39 -38 -40 -68 c-61 -103 -62 -103 -110 -30 -67 103 -105
202 -133 346 -16 83 -39 112 -89 112 -30 0 -43 -6 -59 -26 -28 -35 -27 -76 5
-193 64 -234 178 -419 285 -459 59 -23 159 61 255 213 41 65 51 75 76 75 51 0
68 16 68 63 0 55 -13 67 -74 67 -97 0 -156 62 -156 161 0 64 19 91 48 72 13
-8 17 -26 17 -83 0 -66 2 -74 28 -96 71 -61 137 1 137 130 0 86 -38 159 -101
191 -35 18 -133 19 -174 1z"/>
</g>
</svg>
