<?xml version="1.0" standalone="no"?>
<!DOCTYPE svg PUBLIC "-//W3C//DTD SVG 20010904//EN"
 "http://www.w3.org/TR/2001/REC-SVG-20010904/DTD/svg10.dtd">
<svg version="1.0" xmlns="http://www.w3.org/2000/svg"
 width="192.000000pt" height="192.000000pt" viewBox="0 0 192.000000 192.000000"
 preserveAspectRatio="xMidYMid meet">
<metadata>
Created by potrace 1.16, written by Peter Selinger 2001-2019
</metadata>
<g transform="translate(0.000000,192.000000) scale(0.100000,-0.100000)"
fill="#000000" stroke="none">
811 c445 -92 729 -532 635 -987 -62 -301 -295 -546 -601 -630 -91 -26 -329
-26 -420 0 -291 80 -516 305 -596 596 -26 91 -26 329 0 420 120 433 542 692
982 601z"/>
<path d="M640 1331 c-5 -11 -10 -26 -10 -34 0 -7 45 -164 100 -348 117 -390
110 -379 221 -379 103 0 123 14 149 103 12 39 57 191 101 336 43 145 79 276
79 290 0 42 -17 51 -100 51 -61 0 -80 -4 -93 -18 -9 -10 -40 -106 -68 -212
-29 -107 -55 -199 -59 -203 -4 -4 -31 83 -61 195 -31 118 -61 210 -71 220 -14
14 -35 18 -98 18 -68 0 -81 -3 -90 -19z"/>
</g>
</svg>
