<?xml version="1.0" standalone="no"?>
<!DOCTYPE svg PUBLIC "-//W3C//DTD SVG 20010904//EN"
 "http://www.w3.org/TR/2001/REC-SVG-20010904/DTD/svg10.dtd">
<svg version="1.0" xmlns="http://www.w3.org/2000/svg"
 width="192.000000pt" height="192.000000pt" viewBox="0 0 192.000000 192.000000"
 preserveAspectRatio="xMidYMid meet">
<metadata>
Created by potrace 1.16, written by Peter Selinger 2001-2019
</metadata>
<g transform="translate(0.000000,192.000000) scale(0.100000,-0.100000)"
fill="#000000" stroke="none">
811 c445 -92 729 -532 635 -987 -62 -301 -295 -546 -601 -630 -91 -26 -329
-26 -420 0 -291 80 -516 305 -596 596 -26 91 -26 329 0 420 120 433 542 692
982 601z"/>
<path d="M632 1344 c-18 -10 -40 -30 -48 -45 -30 -59 -21 -85 136 -399 125
-249 155 -302 179 -315 37 -19 62 -19 106 -1 32 14 46 37 185 315 109 219 150
311 150 336 0 108 -122 162 -193 87 -14 -15 -63 -102 -109 -195 l-83 -167 -85
170 c-47 94 -96 182 -110 195 -34 32 -86 40 -128 19z"/>
</g>
</svg>
