<?xml version="1.0" standalone="no"?>
<!DOCTYPE svg PUBLIC "-//W3C//DTD SVG 20010904//EN"
 "http://www.w3.org/TR/2001/REC-SVG-20010904/DTD/svg10.dtd">
<svg version="1.0" xmlns="http://www.w3.org/2000/svg"
 width="192.000000pt" height="192.000000pt" viewBox="0 0 192.000000 192.000000"
 preserveAspectRatio="xMidYMid meet">
<metadata>
Created by potrace 1.16, written by Peter Selinger 2001-2019
</metadata>
<g transform="translate(0.000000,192.000000) scale(0.100000,-0.100000)"
fill="#000000" stroke="none">
811 c445 -92 729 -532 635 -987 -62 -301 -295 -546 -601 -630 -91 -26 -329
-26 -420 0 -291 80 -516 305 -596 596 -26 91 -26 329 0 420 120 433 542 692
982 601z"/>
<path d="M808 1355 c-176 -64 -291 -266 -260 -454 27 -160 159 -309 300 -337
l32 -6 0 76 c0 56 -3 76 -13 76 -8 0 -34 14 -59 30 -47 31 -93 90 -104 134 -5
23 -3 26 19 26 20 0 31 -10 49 -42 47 -85 161 -130 249 -99 29 10 36 9 53 -9
20 -19 20 -19 -17 -35 l-37 -15 0 -70 c0 -65 2 -70 22 -70 12 0 52 14 90 32
l68 31 23 -21 c26 -24 43 -28 79 -19 46 12 55 82 14 116 -21 18 -20 25 9 86
96 204 13 450 -187 550 -39 19 -81 35 -94 35 -23 0 -24 -3 -24 -70 l0 -70 38
-15 c123 -52 197 -222 147 -341 -13 -32 -16 -33 -35 -22 -12 8 -18 19 -14 28
4 8 9 39 12 68 6 69 -17 130 -67 175 -103 93 -263 68 -329 -51 -18 -32 -29
-42 -49 -42 -22 0 -24 3 -19 26 11 44 57 103 104 134 25 16 51 30 59 30 10 0
13 19 13 75 0 84 -2 86 -72 60z"/>
</g>
</svg>
