<?xml version="1.0" standalone="no"?>
<!DOCTYPE svg PUBLIC "-//W3C//DTD SVG 20010904//EN"
 "http://www.w3.org/TR/2001/REC-SVG-20010904/DTD/svg10.dtd">
<svg version="1.0" xmlns="http://www.w3.org/2000/svg"
 width="192.000000pt" height="192.000000pt" viewBox="0 0 192.000000 192.000000"
 preserveAspectRatio="xMidYMid meet">
<metadata>
Created by potrace 1.16, written by Peter Selinger 2001-2019
</metadata>
<g transform="translate(0.000000,192.000000) scale(0.100000,-0.100000)"
fill="#000000" stroke="none">
811 c445 -92 729 -532 635 -987 -62 -301 -295 -546 -601 -630 -91 -26 -329
-26 -420 0 -291 80 -516 305 -596 596 -26 91 -26 329 0 420 120 433 542 692
982 601z"/>
<path d="M709 1326 c-66 -23 -106 -63 -127 -125 -16 -46 -16 -426 0 -472 17
-50 45 -83 91 -110 40 -23 52 -24 258 -27 138 -2 232 1 258 8 50 13 109 63
127 107 20 46 20 470 0 516 -17 43 -76 93 -123 106 -56 16 -439 13 -484 -3z
m381 -186 c25 -25 25 -41 2 -70 -22 -28 -70 -30 -89 -4 -44 60 34 127 87 74z
m-273 -199 c57 -58 103 -81 162 -81 39 0 109 39 137 76 27 35 60 44 82 22 20
-20 13 -46 -24 -87 -97 -108 -265 -122 -380 -32 -67 53 -100 121 -72 149 21
21 35 14 95 -47z"/>
</g>
</svg>
