<?xml version="1.0" standalone="no"?>
<!DOCTYPE svg PUBLIC "-//W3C//DTD SVG 20010904//EN"
 "http://www.w3.org/TR/2001/REC-SVG-20010904/DTD/svg10.dtd">
<svg version="1.0" xmlns="http://www.w3.org/2000/svg"
 width="192.000000pt" height="192.000000pt" viewBox="0 0 192.000000 192.000000"
 preserveAspectRatio="xMidYMid meet">
<metadata>
Created by potrace 1.16, written by Peter Selinger 2001-2019
</metadata>
<g transform="translate(0.000000,192.000000) scale(0.100000,-0.100000)"
fill="#000000" stroke="none">
811 c445 -92 729 -532 635 -987 -62 -301 -295 -546 -601 -630 -91 -26 -329
-26 -420 0 -291 80 -516 305 -596 596 -26 91 -26 329 0 420 120 433 542 692
982 601z"/>
<path d="M835 1357 c-166 -55 -278 -192 -292 -355 -10 -127 30 -234 122 -321
243 -230 636 -106 696 220 24 131 -21 260 -127 359 -81 76 -147 102 -269 106
-57 3 -105 -1 -130 -9z m-26 -251 c43 -44 43 -44 26 -70 -23 -34 -23 -92 0
-135 l17 -33 -44 -45 -43 -44 -27 30 c-37 42 -62 129 -53 190 6 46 57 151 73
151 4 0 27 -20 51 -44z m391 -30 c29 -60 27 -155 -4 -221 -36 -79 -45 -82 -96
-30 l-44 45 17 29 c23 39 22 98 -3 138 l-19 32 47 40 c43 36 48 38 64 24 10
-9 27 -34 38 -57z m-198 -63 c43 -39 5 -117 -54 -111 -60 6 -84 71 -42 113 20
20 73 19 96 -2z"/>
</g>
</svg>
