<?xml version="1.0" standalone="no"?>
<!DOCTYPE svg PUBLIC "-//W3C//DTD SVG 20010904//EN"
 "http://www.w3.org/TR/2001/REC-SVG-20010904/DTD/svg10.dtd">
<svg version="1.0" xmlns="http://www.w3.org/2000/svg"
 width="192.000000pt" height="192.000000pt" viewBox="0 0 192.000000 192.000000"
 preserveAspectRatio="xMidYMid meet">
<metadata>
Created by potrace 1.16, written by Peter Selinger 2001-2019
</metadata>
<g transform="translate(0.000000,192.000000) scale(0.100000,-0.100000)"
fill="#000000" stroke="none">
811 c445 -92 729 -532 635 -987 -62 -301 -295 -546 -601 -630 -91 -26 -329
-26 -420 0 -291 80 -516 305 -596 596 -26 91 -26 329 0 420 120 433 542 692
982 601z"/>
<path d="M652 1150 c-13 -6 -36 -19 -50 -31 -100 -78 -96 -247 7 -316 70 -47
136 -51 211 -13 76 39 119 130 100 213 l-8 37 43 0 43 0 -8 -37 c-14 -60 13
-146 56 -184 75 -66 173 -72 255 -16 109 73 107 247 -4 324 l-40 28 -291 2
c-169 1 -301 -2 -314 -7z m107 -101 c59 -21 79 -111 33 -152 -44 -40 -121 -28
-147 24 -27 50 -11 98 39 123 38 19 35 19 75 5z m466 -4 c51 -25 67 -73 40
-124 -26 -52 -110 -65 -148 -23 -41 46 -27 124 27 148 40 17 42 17 81 -1z"/>
</g>
</svg>
