<?xml version="1.0" standalone="no"?>
<!DOCTYPE svg PUBLIC "-//W3C//DTD SVG 20010904//EN"
 "http://www.w3.org/TR/2001/REC-SVG-20010904/DTD/svg10.dtd">
<svg version="1.0" xmlns="http://www.w3.org/2000/svg"
 width="192.000000pt" height="192.000000pt" viewBox="0 0 192.000000 192.000000"
 preserveAspectRatio="xMidYMid meet">
<metadata>
Created by potrace 1.16, written by Peter Selinger 2001-2019
</metadata>
<g transform="translate(0.000000,192.000000) scale(0.100000,-0.100000)"
fill="#000000" stroke="none">
811 c445 -92 729 -532 635 -987 -62 -301 -295 -546 -601 -630 -91 -26 -329
-26 -420 0 -291 80 -516 305 -596 596 -26 91 -26 329 0 420 120 433 542 692
982 601z"/>
<path d="M870 1366 c-167 -36 -290 -166 -320 -338 -30 -171 72 -359 237 -436
52 -24 69 -27 168 -27 101 0 115 2 170 29 77 38 163 124 200 201 27 55 30 69
30 170 0 99 -3 116 -27 168 -57 121 -182 216 -313 237 -71 12 -75 12 -145 -4z
m196 -113 c69 -23 155 -111 178 -180 66 -198 -61 -396 -264 -411 -97 -7 -165
16 -233 78 -74 67 -102 131 -101 230 1 89 26 152 87 213 82 82 215 110 333 70z"/>
<path d="M822 1178 c-13 -13 -16 -86 -4 -105 4 -7 53 -31 107 -54 55 -23 104
-45 108 -49 5 -4 -38 -27 -95 -50 -57 -24 -109 -50 -115 -58 -20 -24 -17 -99
5 -111 22 -11 287 108 320 145 33 38 31 104 -5 143 -23 24 -277 151 -303 151
-3 0 -11 -5 -18 -12z"/>
</g>
</svg>
