<?xml version="1.0" standalone="no"?>
<!DOCTYPE svg PUBLIC "-//W3C//DTD SVG 20010904//EN"
 "http://www.w3.org/TR/2001/REC-SVG-20010904/DTD/svg10.dtd">
<svg version="1.0" xmlns="http://www.w3.org/2000/svg"
 width="192.000000pt" height="192.000000pt" viewBox="0 0 192.000000 192.000000"
 preserveAspectRatio="xMidYMid meet">
<metadata>
Created by potrace 1.16, written by Peter Selinger 2001-2019
</metadata>
<g transform="translate(0.000000,192.000000) scale(0.100000,-0.100000)"
fill="#000000" stroke="none">
811 c445 -92 729 -532 635 -987 -62 -301 -295 -546 -601 -630 -91 -26 -329
-26 -420 0 -291 80 -516 305 -596 596 -26 91 -26 329 0 420 120 433 542 692
982 601z"/>
<path d="M758 1316 c-51 -14 -111 -55 -129 -88 -26 -49 31 -95 78 -61 78 55
67 53 259 53 172 0 183 -1 215 -23 59 -39 69 -73 69 -230 0 -150 -8 -184 -54
-227 -27 -25 -30 -25 -219 -28 -206 -3 -190 -6 -269 51 -53 37 -108 -21 -69
-73 10 -14 40 -38 66 -55 l48 -30 211 0 c180 0 216 2 242 17 57 31 97 71 120
123 22 46 24 63 24 220 0 158 -2 174 -24 221 -29 62 -84 110 -150 129 -63 19
-349 20 -418 1z"/>
<path d="M998 1090 c-33 -39 -33 -39 -77 -29 -77 17 -90 -3 -45 -71 l26 -39
-21 -36 c-24 -41 -27 -73 -8 -81 7 -2 33 2 57 11 l44 15 42 -41 c37 -36 45
-40 59 -29 10 8 15 29 15 61 0 49 0 49 48 72 66 31 64 56 -5 81 -51 18 -53 20
-53 56 0 82 -30 92 -82 30z"/>
<path d="M582 1074 c-20 -14 -22 -23 -22 -113 0 -62 4 -101 12 -109 22 -22 67
-12 138 30 108 65 107 96 -8 163 -42 25 -81 45 -87 45 -6 0 -21 -7 -33 -16z"/>
</g>
</svg>
