<?xml version="1.0" standalone="no"?>
<!DOCTYPE svg PUBLIC "-//W3C//DTD SVG 20010904//EN"
 "http://www.w3.org/TR/2001/REC-SVG-20010904/DTD/svg10.dtd">
<svg version="1.0" xmlns="http://www.w3.org/2000/svg"
 width="192.000000pt" height="192.000000pt" viewBox="0 0 192.000000 192.000000"
 preserveAspectRatio="xMidYMid meet">
<metadata>
Created by potrace 1.16, written by Peter Selinger 2001-2019
</metadata>
<g transform="translate(0.000000,192.000000) scale(0.100000,-0.100000)"
fill="#000000" stroke="none">
811 c445 -92 729 -532 635 -987 -62 -301 -295 -546 -601 -630 -91 -26 -329
-26 -420 0 -291 80 -516 305 -596 596 -26 91 -26 329 0 420 120 433 542 692
982 601z"/>
<path d="M610 1323 c-44 -23 -73 -76 -67 -123 5 -35 290 -537 326 -573 42 -42
145 -35 181 13 30 40 307 525 313 548 23 96 -94 183 -182 134 -66 -36 -80 -89
-50 -189 11 -37 11 -47 -4 -78 -36 -75 -129 -96 -186 -41 -14 14 -57 79 -95
145 -38 66 -81 132 -96 146 -36 35 -93 42 -140 18z"/>
</g>
</svg>
