<?xml version="1.0" standalone="no"?>
<!DOCTYPE svg PUBLIC "-//W3C//DTD SVG 20010904//EN"
 "http://www.w3.org/TR/2001/REC-SVG-20010904/DTD/svg10.dtd">
<svg version="1.0" xmlns="http://www.w3.org/2000/svg"
 width="192.000000pt" height="192.000000pt" viewBox="0 0 192.000000 192.000000"
 preserveAspectRatio="xMidYMid meet">
<metadata>
Created by potrace 1.16, written by Peter Selinger 2001-2019
</metadata>
<g transform="translate(0.000000,192.000000) scale(0.100000,-0.100000)"
fill="#000000" stroke="none">
811 c445 -92 729 -532 635 -987 -62 -301 -295 -546 -601 -630 -91 -26 -329
-26 -420 0 -291 80 -516 305 -596 596 -26 91 -26 329 0 420 120 433 542 692
982 601z"/>
<path d="M725 1306 c-50 -23 -105 -76 -105 -100 0 -19 34 -46 57 -46 11 0 37
13 57 29 47 38 88 44 269 39 158 -3 174 -8 221 -72 19 -25 21 -41 21 -190 0
-162 0 -163 -28 -199 -40 -52 -74 -59 -274 -55 l-171 3 -40 33 c-49 38 -76 41
-98 7 -15 -23 -15 -27 3 -57 12 -21 40 -44 78 -63 l59 -30 185 0 c127 0 198 4
223 13 62 22 114 67 142 123 25 51 26 59 26 226 0 125 -4 183 -14 207 -21 51
-76 107 -131 132 -47 22 -62 24 -240 24 -178 0 -193 -2 -240 -24z"/>
<path d="M1021 1121 c-11 -11 -27 -31 -36 -44 -14 -22 -18 -23 -59 -14 -79 18
-97 -7 -49 -70 l27 -35 -22 -39 c-25 -42 -28 -75 -10 -81 7 -3 34 2 61 11 l47
15 31 -38 c22 -25 38 -36 53 -34 18 3 21 11 24 59 l3 55 49 21 c72 31 66 59
-17 84 -42 12 -43 13 -43 55 0 25 -6 49 -16 58 -19 20 -20 20 -43 -3z"/>
<path d="M577 1072 c-26 -28 -24 -192 1 -215 28 -25 49 -21 124 24 114 67 113
100 -1 168 -77 45 -100 50 -124 23z"/>
</g>
</svg>
