<?xml version="1.0" standalone="no"?>
<!DOCTYPE svg PUBLIC "-//W3C//DTD SVG 20010904//EN"
 "http://www.w3.org/TR/2001/REC-SVG-20010904/DTD/svg10.dtd">
<svg version="1.0" xmlns="http://www.w3.org/2000/svg"
 width="192.000000pt" height="192.000000pt" viewBox="0 0 192.000000 192.000000"
 preserveAspectRatio="xMidYMid meet">
<metadata>
Created by potrace 1.16, written by Peter Selinger 2001-2019
</metadata>
<g transform="translate(0.000000,192.000000) scale(0.100000,-0.100000)"
fill="#000000" stroke="none">
811 c445 -92 729 -532 635 -987 -62 -301 -295 -546 -601 -630 -91 -26 -329
-26 -420 0 -291 80 -516 305 -596 596 -26 91 -26 329 0 420 120 433 542 692
982 601z"/>
<path d="M702 1182 l-153 -147 1 -207 0 -208 24 -15 c21 -14 65 -15 321 -13
280 3 297 4 311 22 19 26 20 390 1 422 -7 11 -77 82 -157 157 -108 101 -151
137 -170 137 -18 -1 -65 -39 -178 -148z m266 -163 l72 -72 0 -87 c0 -62 -4
-91 -14 -99 -9 -8 -59 -11 -152 -9 l-139 3 -3 99 -3 100 68 68 c37 37 74 68
83 68 8 0 48 -32 88 -71z"/>
<path d="M1251 704 c-24 -31 -25 -37 -10 -67 16 -29 28 -37 60 -37 54 0 79 70
39 110 -28 28 -64 25 -89 -6z"/>
</g>
</svg>
