<?xml version="1.0" standalone="no"?>
<!DOCTYPE svg PUBLIC "-//W3C//DTD SVG 20010904//EN"
 "http://www.w3.org/TR/2001/REC-SVG-20010904/DTD/svg10.dtd">
<svg version="1.0" xmlns="http://www.w3.org/2000/svg"
 width="192.000000pt" height="192.000000pt" viewBox="0 0 192.000000 192.000000"
 preserveAspectRatio="xMidYMid meet">
<metadata>
Created by potrace 1.16, written by Peter Selinger 2001-2019
</metadata>
<g transform="translate(0.000000,192.000000) scale(0.100000,-0.100000)"
fill="#000000" stroke="none">
811 c445 -92 729 -532 635 -987 -62 -301 -295 -546 -601 -630 -91 -26 -329
-26 -420 0 -291 80 -516 305 -596 596 -26 91 -26 329 0 420 120 433 542 692
982 601z"/>
<path d="M720 1249 c-92 -41 -109 -74 -149 -285 -41 -210 -40 -217 8 -265 31
-31 46 -39 75 -39 54 0 83 19 164 109 l73 81 61 0 61 0 92 -96 92 -97 52 5
c61 6 96 34 112 87 8 30 4 68 -25 215 -41 207 -57 240 -139 281 -49 24 -57 25
-241 25 -170 0 -196 -3 -236 -21z m118 -137 c2 -13 10 -22 21 -22 10 0 24 -7
31 -15 15 -19 -3 -45 -31 -45 -11 0 -19 -9 -21 -22 -2 -15 -10 -23 -23 -23
-13 0 -21 8 -23 23 -2 13 -10 22 -21 22 -10 0 -24 7 -31 15 -16 19 3 45 31 45
12 0 19 7 19 18 0 39 43 43 48 4z m327 -52 c0 -23 -4 -25 -54 -28 -71 -4 -101
4 -101 27 0 28 10 32 85 29 67 -3 70 -4 70 -28z m136 -213 c14 -87 10 -103
-34 -125 -20 -9 -32 -10 -47 -2 -19 10 -112 105 -118 120 -2 4 19 13 47 20 29
7 65 25 88 45 21 18 41 30 45 27 3 -4 12 -42 19 -85z"/>
</g>
</svg>
