<?xml version="1.0" standalone="no"?>
<!DOCTYPE svg PUBLIC "-//W3C//DTD SVG 20010904//EN"
 "http://www.w3.org/TR/2001/REC-SVG-20010904/DTD/svg10.dtd">
<svg version="1.0" xmlns="http://www.w3.org/2000/svg"
 width="192.000000pt" height="192.000000pt" viewBox="0 0 192.000000 192.000000"
 preserveAspectRatio="xMidYMid meet">
<metadata>
Created by potrace 1.16, written by Peter Selinger 2001-2019
</metadata>
<g transform="translate(0.000000,192.000000) scale(0.100000,-0.100000)"
fill="#000000" stroke="none">
811 c445 -92 729 -532 635 -987 -62 -301 -295 -546 -601 -630 -91 -26 -329
-26 -420 0 -291 80 -516 305 -596 596 -26 91 -26 329 0 420 120 433 542 692
982 601z"/>
<path d="M681 1295 c-62 -19 -108 -68 -127 -133 -13 -42 -15 -90 -12 -220 3
-146 6 -172 25 -207 52 -98 76 -105 388 -105 268 0 300 4 348 48 45 40 81 159
57 187 -10 12 -39 15 -127 15 -113 0 -115 0 -144 29 -33 33 -36 58 -14 101 19
36 32 39 169 43 131 3 136 6 117 92 -17 76 -65 129 -134 150 -69 20 -480 20
-546 0z"/>
<path d="M1132 998 c-15 -15 -15 -51 0 -66 19 -19 45 -14 62 10 20 28 20 33 0
52 -18 19 -45 21 -62 4z"/>
</g>
</svg>
