<?xml version="1.0" standalone="no"?>
<!DOCTYPE svg PUBLIC "-//W3C//DTD SVG 20010904//EN"
 "http://www.w3.org/TR/2001/REC-SVG-20010904/DTD/svg10.dtd">
<svg version="1.0" xmlns="http://www.w3.org/2000/svg"
 width="192.000000pt" height="192.000000pt" viewBox="0 0 192.000000 192.000000"
 preserveAspectRatio="xMidYMid meet">
<metadata>
Created by potrace 1.16, written by Peter Selinger 2001-2019
</metadata>
<g transform="translate(0.000000,192.000000) scale(0.100000,-0.100000)"
fill="#000000" stroke="none">
811 c445 -92 729 -532 635 -987 -62 -301 -295 -546 -601 -630 -91 -26 -329
-26 -420 0 -291 80 -516 305 -596 596 -26 91 -26 329 0 420 120 433 542 692
982 601z"/>
<path d="M695 1321 c-49 -22 -79 -54 -100 -103 -12 -30 -15 -81 -15 -255 0
-243 7 -273 69 -326 53 -44 88 -49 328 -45 l221 3 43 30 c79 56 84 77 84 340
0 263 -5 284 -84 340 l-43 30 -231 3 c-210 2 -236 0 -272 -17z m123 -113 c7
-7 12 -36 12 -65 0 -65 20 -107 63 -133 38 -24 78 -25 116 -6 42 22 62 61 69
134 8 72 27 97 56 73 26 -22 22 -137 -7 -192 -63 -118 -216 -140 -312 -45 -44
45 -65 100 -65 175 0 57 38 89 68 59z"/>
</g>
</svg>
