<?xml version="1.0" standalone="no"?>
<!DOCTYPE svg PUBLIC "-//W3C//DTD SVG 20010904//EN"
 "http://www.w3.org/TR/2001/REC-SVG-20010904/DTD/svg10.dtd">
<svg version="1.0" xmlns="http://www.w3.org/2000/svg"
 width="192.000000pt" height="192.000000pt" viewBox="0 0 192.000000 192.000000"
 preserveAspectRatio="xMidYMid meet">
<metadata>
Created by potrace 1.16, written by Peter Selinger 2001-2019
</metadata>
<g transform="translate(0.000000,192.000000) scale(0.100000,-0.100000)"
fill="#000000" stroke="none">
811 c445 -92 729 -532 635 -987 -62 -301 -295 -546 -601 -630 -91 -26 -329
-26 -420 0 -291 80 -516 305 -596 596 -26 91 -26 329 0 420 120 433 542 692
982 601z"/>
<path d="M1163 1249 c-76 -37 -103 -136 -58 -206 40 -60 131 -81 193 -43 98
60 94 195 -8 248 -55 27 -74 28 -127 1z"/>
<path d="M701 1053 c-76 -38 -94 -143 -37 -217 l27 -36 -60 0 c-51 0 -62 -3
-75 -22 -21 -30 -20 -71 2 -91 15 -14 41 -17 135 -17 108 0 117 1 131 22 9 12
16 42 16 65 l0 43 84 0 83 0 27 -60 c16 -39 34 -64 48 -69 32 -12 82 10 86 36
4 30 -84 306 -107 335 -18 22 -26 23 -173 26 -128 2 -159 -1 -187 -15z"/>
</g>
</svg>
