<?xml version="1.0" standalone="no"?>
<!DOCTYPE svg PUBLIC "-//W3C//DTD SVG 20010904//EN"
 "http://www.w3.org/TR/2001/REC-SVG-20010904/DTD/svg10.dtd">
<svg version="1.0" xmlns="http://www.w3.org/2000/svg"
 width="192.000000pt" height="192.000000pt" viewBox="0 0 192.000000 192.000000"
 preserveAspectRatio="xMidYMid meet">
<metadata>
Created by potrace 1.16, written by Peter Selinger 2001-2019
</metadata>
<g transform="translate(0.000000,192.000000) scale(0.100000,-0.100000)"
fill="#000000" stroke="none">
811 c445 -92 729 -532 635 -987 -62 -301 -295 -546 -601 -630 -91 -26 -329
-26 -420 0 -291 80 -516 305 -596 596 -26 91 -26 329 0 420 120 433 542 692
982 601z"/>
<path d="M695 1321 c-49 -22 -79 -54 -100 -103 -12 -30 -15 -81 -15 -255 0
-243 7 -273 69 -326 53 -44 88 -49 328 -45 l221 3 43 30 c79 56 84 77 84 340
0 263 -5 284 -84 340 l-43 30 -231 3 c-210 2 -236 0 -272 -17z m180 -281 c-5
-8 -11 -8 -17 -2 -6 6 -7 16 -3 22 5 8 11 8 17 2 6 -6 7 -16 3 -22z m355 -28
c14 -11 23 -29 23 -47 0 -42 -34 -65 -94 -65 -56 0 -89 24 -89 64 0 57 109 89
160 48z m-525 -37 c17 -25 33 -45 37 -45 4 0 21 20 39 45 32 45 49 56 49 33
-1 -25 -71 -109 -88 -106 -15 3 -92 95 -92 111 0 21 29 1 55 -38z m165 -15 c0
-33 -4 -60 -10 -60 -6 0 -10 27 -10 60 0 33 4 60 10 60 6 0 10 -27 10 -60z
m72 15 c18 -25 35 -45 39 -45 5 0 22 20 39 45 28 41 50 57 50 37 0 -4 -16 -31
-35 -60 -34 -50 -49 -60 -70 -44 -15 10 -75 94 -75 104 0 20 23 4 52 -37z"/>
<path d="M1104 986 c-3 -8 -4 -23 -2 -33 3 -15 13 -18 63 -18 60 0 60 0 60 30
0 30 -1 30 -58 33 -43 2 -59 -1 -63 -12z"/>
</g>
</svg>
