<?xml version="1.0" standalone="no"?>
<!DOCTYPE svg PUBLIC "-//W3C//DTD SVG 20010904//EN"
 "http://www.w3.org/TR/2001/REC-SVG-20010904/DTD/svg10.dtd">
<svg version="1.0" xmlns="http://www.w3.org/2000/svg"
 width="192.000000pt" height="192.000000pt" viewBox="0 0 192.000000 192.000000"
 preserveAspectRatio="xMidYMid meet">
<metadata>
Created by potrace 1.16, written by Peter Selinger 2001-2019
</metadata>
<g transform="translate(0.000000,192.000000) scale(0.100000,-0.100000)"
fill="#000000" stroke="none">
811 c445 -92 729 -532 635 -987 -62 -301 -295 -546 -601 -630 -91 -26 -329
-26 -420 0 -291 80 -516 305 -596 596 -26 91 -26 329 0 420 120 433 542 692
982 601z"/>
<path d="M655 1201 c-50 -22 -91 -69 -105 -119 -13 -50 -13 -191 2 -233 17
-52 46 -88 88 -109 36 -19 60 -20 315 -20 291 0 297 1 348 49 50 46 57 70 57
196 0 137 -15 178 -82 222 l-42 28 -270 2 c-245 2 -275 1 -311 -16z m192 -78
c-19 -33 -22 -52 -22 -153 0 -90 4 -122 18 -149 9 -19 17 -36 17 -38 0 -1 -41
-3 -91 -3 -90 0 -91 0 -124 33 -38 38 -50 89 -43 192 7 113 59 155 190 155
l77 0 -22 -37z m400 11 c44 -33 53 -60 53 -167 0 -157 -27 -187 -173 -187
l-85 0 19 37 c29 56 27 247 -2 304 l-20 41 90 -3 c72 -3 95 -8 118 -25z"/>
</g>
</svg>
