<?xml version="1.0" standalone="no"?>
<!DOCTYPE svg PUBLIC "-//W3C//DTD SVG 20010904//EN"
 "http://www.w3.org/TR/2001/REC-SVG-20010904/DTD/svg10.dtd">
<svg version="1.0" xmlns="http://www.w3.org/2000/svg"
 width="192.000000pt" height="192.000000pt" viewBox="0 0 192.000000 192.000000"
 preserveAspectRatio="xMidYMid meet">
<metadata>
Created by potrace 1.16, written by Peter Selinger 2001-2019
</metadata>
<g transform="translate(0.000000,192.000000) scale(0.100000,-0.100000)"
fill="#000000" stroke="none">
811 c445 -92 729 -532 635 -987 -62 -301 -295 -546 -601 -630 -91 -26 -329
-26 -420 0 -291 80 -516 305 -596 596 -26 91 -26 329 0 420 120 433 542 692
982 601z"/>
<path d="M802 1218 c-16 -16 -15 -28 2 -28 23 0 37 -53 34 -130 -2 -58 -7 -75
-21 -84 -16 -9 -23 -6 -45 21 -15 18 -47 72 -73 120 l-45 88 -87 3 c-72 2 -88
0 -93 -13 -8 -21 74 -189 137 -280 62 -91 145 -170 204 -196 35 -16 62 -19
127 -17 l83 3 3 45 c3 43 16 70 33 70 5 0 39 -27 75 -60 l67 -61 106 3 c102 3
106 4 109 26 3 17 -15 42 -72 101 -53 54 -76 85 -76 102 0 16 27 61 70 117 70
94 91 135 73 153 -5 5 -54 8 -109 7 l-98 -3 -59 -105 c-63 -114 -82 -136 -104
-119 -9 8 -13 40 -13 111 0 139 1 138 -118 138 -63 0 -102 -4 -110 -12z"/>
</g>
</svg>
