<?xml version="1.0" standalone="no"?>
<!DOCTYPE svg PUBLIC "-//W3C//DTD SVG 20010904//EN"
 "http://www.w3.org/TR/2001/REC-SVG-20010904/DTD/svg10.dtd">
<svg version="1.0" xmlns="http://www.w3.org/2000/svg"
 width="192.000000pt" height="192.000000pt" viewBox="0 0 192.000000 192.000000"
 preserveAspectRatio="xMidYMid meet">
<metadata>
Created by potrace 1.16, written by Peter Selinger 2001-2019
</metadata>
<g transform="translate(0.000000,192.000000) scale(0.100000,-0.100000)"
fill="#000000" stroke="none">
811 c445 -92 729 -532 635 -987 -62 -301 -295 -546 -601 -630 -91 -26 -329
-26 -420 0 -291 80 -516 305 -596 596 -26 91 -26 329 0 420 120 433 542 692
982 601z"/>
<path d="M934 1382 c-46 -7 -61 -42 -136 -317 l-73 -270 -36 -5 c-49 -9 -56
-14 -89 -80 -36 -72 -37 -100 -6 -137 l24 -28 337 0 337 0 24 28 c31 37 30 65
-6 137 -33 66 -40 71 -89 80 l-36 5 -73 270 c-85 310 -96 330 -178 317z m85
-216 c7 -23 15 -49 17 -58 5 -16 -4 -18 -81 -18 -77 0 -86 2 -81 18 2 9 10 35
17 58 l11 41 53 0 53 0 11 -41z m99 -356 c6 -25 7 -48 3 -52 -11 -12 -108 -28
-166 -28 -58 0 -155 16 -166 28 -4 4 -3 27 3 52 l10 45 153 0 153 0 10 -45z"/>
</g>
</svg>
