<?xml version="1.0" standalone="no"?>
<!DOCTYPE svg PUBLIC "-//W3C//DTD SVG 20010904//EN"
 "http://www.w3.org/TR/2001/REC-SVG-20010904/DTD/svg10.dtd">
<svg version="1.0" xmlns="http://www.w3.org/2000/svg"
 width="192.000000pt" height="192.000000pt" viewBox="0 0 192.000000 192.000000"
 preserveAspectRatio="xMidYMid meet">
<metadata>
Created by potrace 1.16, written by Peter Selinger 2001-2019
</metadata>
<g transform="translate(0.000000,192.000000) scale(0.100000,-0.100000)"
fill="#000000" stroke="none">
811 c445 -92 729 -532 635 -987 -62 -301 -295 -546 -601 -630 -91 -26 -329
-26 -420 0 -291 80 -516 305 -596 596 -26 91 -26 329 0 420 120 433 542 692
982 601z"/>
<path d="M576 1239 c-16 -12 -26 -30 -26 -46 0 -50 122 -477 143 -500 25 -28
85 -31 116 -5 15 13 38 79 87 260 72 263 73 279 20 304 -34 15 -81 -5 -95 -40
-5 -15 -22 -89 -38 -164 -15 -75 -29 -136 -30 -134 -1 1 -16 69 -34 152 -25
123 -35 153 -55 172 -31 27 -54 28 -88 1z"/>
<path d="M1042 1250 c-12 -5 -27 -21 -32 -35 -6 -15 -10 -131 -10 -261 l0
-235 25 -24 c30 -31 68 -32 95 -3 19 20 20 34 20 225 l0 203 45 0 45 0 0 -205
c0 -192 1 -206 20 -225 25 -25 61 -26 91 -1 l24 19 0 256 c0 232 -2 257 -18
273 -15 15 -38 18 -150 20 -73 1 -142 -2 -155 -7z"/>
</g>
</svg>
