<?xml version="1.0" standalone="no"?>
<!DOCTYPE svg PUBLIC "-//W3C//DTD SVG 20010904//EN"
 "http://www.w3.org/TR/2001/REC-SVG-20010904/DTD/svg10.dtd">
<svg version="1.0" xmlns="http://www.w3.org/2000/svg"
 width="192.000000pt" height="192.000000pt" viewBox="0 0 192.000000 192.000000"
 preserveAspectRatio="xMidYMid meet">
<metadata>
Created by potrace 1.16, written by Peter Selinger 2001-2019
</metadata>
<g transform="translate(0.000000,192.000000) scale(0.100000,-0.100000)"
fill="#000000" stroke="none">
811 c445 -92 729 -532 635 -987 -62 -301 -295 -546 -601 -630 -91 -26 -329
-26 -420 0 -291 80 -516 305 -596 596 -26 91 -26 329 0 420 120 433 542 692
982 601z"/>
<path d="M1155 1286 c-69 -32 -95 -84 -95 -191 0 -68 2 -76 25 -91 23 -15 27
-15 50 0 23 15 25 23 25 91 0 81 13 105 55 105 42 0 55 -25 55 -101 0 -56 4
-73 20 -89 24 -24 29 -25 59 -4 21 15 23 22 19 105 -3 93 -15 121 -70 162 -33
25 -104 31 -143 13z"/>
<path d="M568 1279 c-10 -5 -18 -22 -18 -36 0 -32 157 -551 175 -579 19 -30
59 -38 94 -19 25 13 34 28 56 102 15 49 53 175 86 282 32 106 59 203 59 215 0
44 -53 63 -82 29 -8 -10 -46 -120 -83 -245 -38 -126 -70 -226 -72 -224 -2 2
-35 106 -73 232 -76 251 -89 274 -142 243z"/>
<path d="M1140 921 c-38 -20 -80 -88 -80 -131 0 -43 42 -111 80 -131 26 -14
56 -19 122 -19 79 0 88 2 99 21 8 16 8 28 0 45 -10 22 -16 24 -84 24 -86 0
-117 16 -117 60 0 44 31 60 117 60 63 0 74 3 84 21 8 16 8 28 0 45 -10 23 -16
24 -98 24 -67 0 -97 -5 -123 -19z"/>
</g>
</svg>
