<?xml version="1.0" standalone="no"?>
<!DOCTYPE svg PUBLIC "-//W3C//DTD SVG 20010904//EN"
 "http://www.w3.org/TR/2001/REC-SVG-20010904/DTD/svg10.dtd">
<svg version="1.0" xmlns="http://www.w3.org/2000/svg"
 width="192.000000pt" height="192.000000pt" viewBox="0 0 192.000000 192.000000"
 preserveAspectRatio="xMidYMid meet">
<metadata>
Created by potrace 1.16, written by Peter Selinger 2001-2019
</metadata>
<g transform="translate(0.000000,192.000000) scale(0.100000,-0.100000)"
fill="#000000" stroke="none">
811 c445 -92 729 -532 635 -987 -62 -301 -295 -546 -601 -630 -91 -26 -329
-26 -420 0 -291 80 -516 305 -596 596 -26 91 -26 329 0 420 120 433 542 692
982 601z"/>
<path d="M695 1321 c-47 -22 -89 -64 -104 -104 -15 -38 -15 -466 0 -504 15
-40 57 -82 104 -104 35 -16 67 -19 260 -19 239 0 272 7 322 61 48 52 53 84 53
314 0 230 -5 262 -53 314 -50 54 -83 61 -322 61 -193 0 -225 -3 -260 -19z
m302 -247 c101 -60 113 -71 113 -109 0 -38 -12 -49 -113 -109 -85 -51 -122
-57 -155 -26 -20 19 -22 30 -22 135 0 105 2 116 22 135 33 31 70 25 155 -26z"/>
</g>
</svg>
