<?xml version="1.0" standalone="no"?>
<!DOCTYPE svg PUBLIC "-//W3C//DTD SVG 20010904//EN"
 "http://www.w3.org/TR/2001/REC-SVG-20010904/DTD/svg10.dtd">
<svg version="1.0" xmlns="http://www.w3.org/2000/svg"
 width="192.000000pt" height="192.000000pt" viewBox="0 0 192.000000 192.000000"
 preserveAspectRatio="xMidYMid meet">
<metadata>
Created by potrace 1.16, written by Peter Selinger 2001-2019
</metadata>
<g transform="translate(0.000000,192.000000) scale(0.100000,-0.100000)"
fill="#000000" stroke="none">
811 c445 -92 729 -532 635 -987 -62 -301 -295 -546 -601 -630 -91 -26 -329
-26 -420 0 -291 80 -516 305 -596 596 -26 91 -26 329 0 420 120 433 542 692
982 601z"/>
<path d="M594 1281 c-30 -13 -54 -50 -54 -82 0 -15 48 -138 108 -275 90 -208
112 -250 137 -266 25 -15 52 -18 172 -18 142 0 143 0 172 28 35 32 241 488
241 533 0 15 -11 41 -24 56 -23 27 -29 28 -128 31 -141 5 -155 -5 -217 -150
-25 -60 -48 -108 -52 -108 -4 0 -26 47 -49 104 -57 142 -67 150 -188 153 -53
2 -107 -1 -118 -6z m716 -65 c9 -12 -8 -59 -90 -243 -55 -125 -108 -238 -116
-250 -14 -22 -20 -23 -155 -23 l-140 0 -40 85 c-21 47 -39 89 -39 93 0 4 46 6
103 4 89 -3 105 -1 118 15 9 10 44 84 79 166 34 81 70 152 79 157 27 16 187
12 201 -4z"/>
</g>
</svg>
