<?xml version="1.0" standalone="no"?>
<!DOCTYPE svg PUBLIC "-//W3C//DTD SVG 20010904//EN"
 "http://www.w3.org/TR/2001/REC-SVG-20010904/DTD/svg10.dtd">
<svg version="1.0" xmlns="http://www.w3.org/2000/svg"
 width="192.000000pt" height="192.000000pt" viewBox="0 0 192.000000 192.000000"
 preserveAspectRatio="xMidYMid meet">
<metadata>
Created by potrace 1.16, written by Peter Selinger 2001-2019
</metadata>
<g transform="translate(0.000000,192.000000) scale(0.100000,-0.100000)"
fill="#000000" stroke="none">
810 c245 -63 441 -223 549 -451 55 -116 75 -212 75 -354 0 -141 -20 -238 -75
-352 -86 -182 -215 -312 -396 -398 -116 -55 -212 -75 -354 -75 -142 0 -238 20
-354 75 -228 108 -388 304 -451 549 -28 110 -28 292 0 402 76 298 303 526 600
603 106 28 298 28 406 1z"/>
<path d="M875 1345 c-93 -50 -114 -101 -115 -271 0 -118 2 -135 23 -175 50
-95 166 -134 256 -87 25 13 59 40 75 61 l31 39 3 149 c3 137 2 153 -18 195
-31 64 -85 97 -164 102 -43 2 -70 -2 -91 -13z"/>
<path d="M655 1016 c-15 -11 -17 -22 -12 -68 11 -114 95 -218 208 -259 58 -21
59 -22 59 -61 0 -51 15 -78 43 -78 34 0 47 19 47 71 l0 47 52 17 c120 39 196
127 219 251 9 48 8 59 -7 75 -34 38 -64 18 -75 -51 -10 -67 -50 -134 -98 -165
-144 -96 -329 -17 -364 154 -16 76 -35 94 -72 67z"/>
</g>
</svg>
