<?xml version="1.0" standalone="no"?>
<!DOCTYPE svg PUBLIC "-//W3C//DTD SVG 20010904//EN"
 "http://www.w3.org/TR/2001/REC-SVG-20010904/DTD/svg10.dtd">
<svg version="1.0" xmlns="http://www.w3.org/2000/svg"
 width="192.000000pt" height="192.000000pt" viewBox="0 0 192.000000 192.000000"
 preserveAspectRatio="xMidYMid meet">
<metadata>
Created by potrace 1.16, written by Peter Selinger 2001-2019
</metadata>
<g transform="translate(0.000000,192.000000) scale(0.100000,-0.100000)"
fill="#000000" stroke="none">
810 c245 -63 441 -223 549 -451 55 -116 75 -212 75 -354 0 -141 -20 -238 -75
-352 -86 -182 -215 -312 -396 -398 -116 -55 -212 -75 -354 -75 -142 0 -238 20
-354 75 -228 108 -388 304 -451 549 -28 110 -28 292 0 402 76 298 303 526 600
603 106 28 298 28 406 1z"/>
<path d="M875 1345 c-96 -52 -118 -107 -114 -288 4 -132 5 -136 34 -178 40
-56 95 -84 165 -84 66 1 109 23 154 78 l31 39 3 149 c3 137 2 153 -18 195 -31
64 -85 97 -164 102 -42 2 -70 -2 -91 -13z"/>
<path d="M655 1016 c-15 -11 -17 -22 -12 -68 13 -132 106 -231 255 -274 6 -2
12 -19 12 -38 0 -54 16 -86 43 -86 35 0 47 19 47 72 0 44 2 48 28 54 124 30
227 144 246 270 7 53 -17 91 -52 80 -22 -7 -25 -16 -37 -88 -9 -58 -63 -128
-120 -158 -65 -33 -151 -34 -211 -2 -76 39 -134 128 -134 205 0 16 -8 30 -19
37 -25 13 -24 13 -46 -4z"/>
</g>
</svg>
