<?xml version="1.0" standalone="no"?>
<!DOCTYPE svg PUBLIC "-//W3C//DTD SVG 20010904//EN"
 "http://www.w3.org/TR/2001/REC-SVG-20010904/DTD/svg10.dtd">
<svg version="1.0" xmlns="http://www.w3.org/2000/svg"
 width="192.000000pt" height="192.000000pt" viewBox="0 0 192.000000 192.000000"
 preserveAspectRatio="xMidYMid meet">
<metadata>
Created by potrace 1.16, written by Peter Selinger 2001-2019
</metadata>
<g transform="translate(0.000000,192.000000) scale(0.100000,-0.100000)"
fill="#000000" stroke="none">
810 c245 -63 441 -223 549 -451 55 -116 75 -212 75 -354 0 -141 -20 -238 -75
-352 -86 -182 -215 -312 -396 -398 -116 -55 -212 -75 -354 -75 -142 0 -238 20
-354 75 -228 108 -388 304 -451 549 -28 110 -28 292 0 402 76 298 303 526 600
603 106 28 298 28 406 1z"/>
<path d="M875 1346 c-38 -17 -90 -72 -104 -109 -6 -16 -11 -88 -11 -160 0
-107 4 -140 19 -172 59 -128 225 -153 323 -49 42 45 48 75 48 225 0 144 -7
175 -49 223 -45 51 -158 72 -226 42z"/>
<path d="M652 1018 c-17 -17 -15 -86 4 -141 29 -86 133 -178 227 -201 24 -6
27 -11 27 -51 0 -60 30 -94 63 -72 17 11 23 26 25 64 l3 50 54 17 c80 25 147
83 184 158 39 80 50 148 26 171 -36 37 -69 11 -79 -61 -18 -135 -159 -226
-291 -187 -93 27 -154 97 -170 195 -4 25 -12 51 -17 58 -13 15 -40 16 -56 0z"/>
</g>
</svg>
