<?xml version="1.0" standalone="no"?>
<!DOCTYPE svg PUBLIC "-//W3C//DTD SVG 20010904//EN"
 "http://www.w3.org/TR/2001/REC-SVG-20010904/DTD/svg10.dtd">
<svg version="1.0" xmlns="http://www.w3.org/2000/svg"
 width="192.000000pt" height="192.000000pt" viewBox="0 0 192.000000 192.000000"
 preserveAspectRatio="xMidYMid meet">
<metadata>
Created by potrace 1.16, written by Peter Selinger 2001-2019
</metadata>
<g transform="translate(0.000000,192.000000) scale(0.100000,-0.100000)"
fill="#000000" stroke="none">
810 c245 -63 441 -223 549 -451 55 -116 75 -212 75 -354 0 -141 -20 -238 -75
-352 -86 -182 -215 -312 -396 -398 -116 -55 -212 -75 -354 -75 -142 0 -238 20
-354 75 -228 108 -388 304 -451 549 -28 110 -28 292 0 402 76 298 303 526 600
603 106 28 298 28 406 1z"/>
<path d="M875 1346 c-16 -7 -42 -26 -57 -42 -48 -51 -58 -91 -58 -231 0 -109
3 -133 21 -171 57 -116 207 -146 306 -59 55 48 63 78 63 234 0 161 -15 206
-82 251 -48 32 -145 41 -193 18z"/>
<path d="M650 1015 c-19 -23 -6 -113 24 -172 33 -66 104 -128 177 -154 58 -21
59 -22 59 -61 0 -51 15 -78 43 -78 34 0 47 19 47 71 l0 47 52 17 c121 39 202
135 223 263 5 34 3 47 -11 63 -34 38 -64 18 -75 -51 -10 -67 -50 -134 -98
-165 -144 -96 -329 -17 -364 154 -16 76 -47 103 -77 66z"/>
</g>
</svg>
