<?xml version="1.0" standalone="no"?>
<!DOCTYPE svg PUBLIC "-//W3C//DTD SVG 20010904//EN"
 "http://www.w3.org/TR/2001/REC-SVG-20010904/DTD/svg10.dtd">
<svg version="1.0" xmlns="http://www.w3.org/2000/svg"
 width="192.000000pt" height="192.000000pt" viewBox="0 0 192.000000 192.000000"
 preserveAspectRatio="xMidYMid meet">
<metadata>
Created by potrace 1.16, written by Peter Selinger 2001-2019
</metadata>
<g transform="translate(0.000000,192.000000) scale(0.100000,-0.100000)"
fill="#000000" stroke="none">
810 c245 -63 441 -223 549 -451 55 -116 75 -212 75 -354 0 -141 -20 -238 -75
-352 -86 -182 -215 -312 -396 -398 -116 -55 -212 -75 -354 -75 -142 0 -238 20
-354 75 -228 108 -388 304 -451 549 -28 110 -28 292 0 402 76 298 303 526 600
603 106 28 298 28 406 1z"/>
<path d="M875 1344 c-97 -53 -118 -106 -114 -287 4 -132 5 -136 34 -178 88
-124 267 -112 335 22 17 32 20 59 20 175 0 162 -15 207 -82 252 -51 33 -147
41 -193 16z"/>
<path d="M655 1016 c-15 -11 -17 -22 -12 -68 12 -125 108 -234 234 -267 l42
-12 3 -57 c3 -53 5 -57 29 -60 34 -4 47 14 51 72 3 48 4 49 43 61 86 25 159
84 197 159 29 57 40 136 22 164 -27 42 -74 15 -74 -42 0 -18 -12 -57 -27 -87
-50 -97 -154 -145 -263 -119 -95 23 -180 127 -180 221 0 18 -7 32 -19 39 -25
13 -24 13 -46 -4z"/>
</g>
</svg>
