<?xml version="1.0" standalone="no"?>
<!DOCTYPE svg PUBLIC "-//W3C//DTD SVG 20010904//EN"
 "http://www.w3.org/TR/2001/REC-SVG-20010904/DTD/svg10.dtd">
<svg version="1.0" xmlns="http://www.w3.org/2000/svg"
 width="192.000000pt" height="192.000000pt" viewBox="0 0 192.000000 192.000000"
 preserveAspectRatio="xMidYMid meet">
<metadata>
Created by potrace 1.16, written by Peter Selinger 2001-2019
</metadata>
<g transform="translate(0.000000,192.000000) scale(0.100000,-0.100000)"
fill="#000000" stroke="none">
810 c245 -63 441 -223 549 -451 55 -116 75 -212 75 -354 0 -141 -20 -238 -75
-352 -86 -182 -215 -312 -396 -398 -116 -55 -212 -75 -354 -75 -142 0 -238 20
-354 75 -228 108 -388 304 -451 549 -28 110 -28 292 0 402 76 298 303 526 600
603 106 28 298 28 406 1z"/>
<path d="M875 1346 c-16 -8 -42 -26 -57 -42 -48 -51 -58 -91 -58 -232 0 -113
3 -133 23 -172 58 -116 205 -144 304 -57 55 49 63 78 63 238 0 134 -1 145 -25
185 -48 82 -163 119 -250 80z"/>
<path d="M652 1018 c-17 -17 -15 -85 5 -142 32 -89 132 -177 226 -200 24 -6
27 -11 27 -47 0 -52 15 -79 43 -79 35 0 47 19 47 72 0 47 0 47 43 58 56 15
129 63 162 106 59 77 91 197 60 227 -33 34 -75 8 -75 -47 0 -49 -46 -131 -92
-165 -145 -107 -346 -21 -374 161 -4 23 -11 49 -17 56 -12 15 -39 16 -55 0z"/>
</g>
</svg>
