<?xml version="1.0" standalone="no"?>
<!DOCTYPE svg PUBLIC "-//W3C//DTD SVG 20010904//EN"
 "http://www.w3.org/TR/2001/REC-SVG-20010904/DTD/svg10.dtd">
<svg version="1.0" xmlns="http://www.w3.org/2000/svg"
 width="192.000000pt" height="192.000000pt" viewBox="0 0 192.000000 192.000000"
 preserveAspectRatio="xMidYMid meet">
<metadata>
Created by potrace 1.16, written by Peter Selinger 2001-2019
</metadata>
<g transform="translate(0.000000,192.000000) scale(0.100000,-0.100000)"
fill="#000000" stroke="none">
810 c245 -63 441 -223 549 -451 55 -116 75 -212 75 -354 0 -141 -20 -238 -75
-352 -86 -182 -215 -312 -396 -398 -116 -55 -212 -75 -354 -75 -142 0 -238 20
-354 75 -228 108 -388 304 -451 549 -28 110 -28 292 0 402 76 298 303 526 600
603 106 28 298 28 406 1z"/>
<path d="M869 1340 c-47 -25 -86 -71 -99 -118 -14 -50 -13 -251 2 -293 44
-131 205 -179 308 -92 59 49 70 86 70 239 0 161 -14 203 -81 250 -54 37 -146
44 -200 14z"/>
<path d="M655 1016 c-15 -11 -17 -22 -12 -68 12 -125 108 -234 234 -267 l42
-12 3 -57 c3 -51 5 -57 26 -60 37 -5 52 15 52 70 0 30 5 50 13 52 144 42 233
130 256 256 10 58 -3 100 -33 100 -22 0 -46 -35 -46 -67 0 -94 -92 -192 -197
-209 -132 -21 -273 96 -273 227 0 18 -7 32 -19 39 -25 13 -24 13 -46 -4z"/>
</g>
</svg>
