<?xml version="1.0" standalone="no"?>
<!DOCTYPE svg PUBLIC "-//W3C//DTD SVG 20010904//EN"
 "http://www.w3.org/TR/2001/REC-SVG-20010904/DTD/svg10.dtd">
<svg version="1.0" xmlns="http://www.w3.org/2000/svg"
 width="192.000000pt" height="192.000000pt" viewBox="0 0 192.000000 192.000000"
 preserveAspectRatio="xMidYMid meet">
<metadata>
Created by potrace 1.16, written by Peter Selinger 2001-2019
</metadata>
<g transform="translate(0.000000,192.000000) scale(0.100000,-0.100000)"
fill="#000000" stroke="none">
810 c245 -63 441 -223 549 -451 55 -116 75 -212 75 -354 0 -141 -20 -238 -75
-352 -86 -182 -215 -312 -396 -398 -116 -55 -212 -75 -354 -75 -142 0 -238 20
-354 75 -228 108 -388 304 -451 549 -28 110 -28 292 0 402 76 298 303 526 600
603 106 28 298 28 406 1z"/>
<path d="M875 1346 c-16 -8 -42 -26 -57 -42 -48 -51 -58 -91 -58 -231 0 -109
3 -133 21 -171 57 -116 207 -146 306 -59 55 49 63 77 63 238 0 134 -1 145 -25
185 -48 82 -163 119 -250 80z"/>
<path d="M652 1018 c-20 -20 -14 -99 14 -158 42 -90 126 -162 217 -184 24 -6
27 -11 27 -47 0 -52 15 -79 43 -79 35 0 47 19 47 72 0 47 0 47 43 58 119 32
211 138 232 268 10 65 -31 104 -69 66 -9 -8 -16 -30 -16 -48 0 -46 -45 -130
-87 -161 -146 -113 -352 -28 -379 157 -9 58 -43 85 -72 56z"/>
</g>
</svg>
