<?xml version="1.0" standalone="no"?>
<!DOCTYPE svg PUBLIC "-//W3C//DTD SVG 20010904//EN"
 "http://www.w3.org/TR/2001/REC-SVG-20010904/DTD/svg10.dtd">
<svg version="1.0" xmlns="http://www.w3.org/2000/svg"
 width="192.000000pt" height="192.000000pt" viewBox="0 0 192.000000 192.000000"
 preserveAspectRatio="xMidYMid meet">
<metadata>
Created by potrace 1.16, written by Peter Selinger 2001-2019
</metadata>
<g transform="translate(0.000000,192.000000) scale(0.100000,-0.100000)"
fill="#000000" stroke="none">
811 c445 -92 729 -532 635 -987 -62 -301 -295 -546 -601 -630 -91 -26 -329
-26 -420 0 -291 80 -516 305 -596 596 -26 91 -26 329 0 420 120 433 542 692
982 601z"/>
<path d="M595 1315 l-25 -24 0 -325 0 -324 31 -26 c29 -25 36 -26 146 -26 113
0 115 0 144 29 l29 29 0 322 0 321 -25 24 c-23 24 -30 25 -150 25 -120 0 -127
-1 -150 -25z m173 -104 c2 -35 10 -63 23 -79 24 -31 24 -43 -1 -74 -18 -23
-20 -44 -22 -209 -3 -176 -4 -184 -23 -184 -19 0 -20 8 -23 186 -2 171 -4 188
-22 204 -26 23 -25 57 0 80 15 14 20 31 20 70 0 56 5 67 30 63 11 -2 16 -18
18 -57z"/>
<path d="M1015 1315 l-25 -24 0 -321 0 -322 29 -29 c29 -29 31 -29 144 -29
110 0 117 1 146 26 l31 26 0 324 0 325 -25 24 c-23 24 -30 25 -150 25 -120 0
-127 -1 -150 -25z m173 -239 c2 -170 4 -191 22 -214 25 -31 25 -43 1 -74 -12
-15 -21 -44 -23 -74 -3 -41 -6 -49 -23 -49 -17 0 -20 8 -23 49 -2 30 -11 59
-23 74 -24 31 -24 43 1 75 18 23 20 40 20 209 0 102 3 188 7 192 4 4 14 5 23
4 13 -3 15 -31 18 -192z"/>
</g>
</svg>
