<?xml version="1.0" standalone="no"?>
<!DOCTYPE svg PUBLIC "-//W3C//DTD SVG 20010904//EN"
 "http://www.w3.org/TR/2001/REC-SVG-20010904/DTD/svg10.dtd">
<svg version="1.0" xmlns="http://www.w3.org/2000/svg"
 width="192.000000pt" height="192.000000pt" viewBox="0 0 192.000000 192.000000"
 preserveAspectRatio="xMidYMid meet">
<metadata>
Created by potrace 1.16, written by Peter Selinger 2001-2019
</metadata>
<g transform="translate(0.000000,192.000000) scale(0.100000,-0.100000)"
fill="#000000" stroke="none">
811 c445 -92 729 -532 635 -987 -62 -301 -295 -546 -601 -630 -91 -26 -329
-26 -420 0 -291 80 -516 305 -596 596 -26 91 -26 329 0 420 120 433 542 692
982 601z"/>
<path d="M1348 1143 c-24 -4 -28 -9 -28 -39 0 -27 -4 -34 -20 -34 -16 0 -20
-7 -20 -31 0 -22 5 -32 20 -36 18 -5 20 -14 20 -92 0 -47 4 -91 8 -98 23 -36
132 -40 132 -5 0 25 -12 39 -35 43 -17 4 -20 13 -23 76 l-3 72 28 3 c23 2 29
8 31 36 3 30 1 32 -27 32 -29 0 -31 2 -31 40 0 26 -4 39 -12 39 -7 -1 -25 -4
-40 -6z"/>
<path d="M811 1069 c-63 -13 -76 -38 -76 -140 0 -87 1 -92 28 -114 57 -50 162
-40 197 18 37 60 20 201 -27 225 -28 14 -84 20 -122 11z m77 -81 c18 -18 15
-103 -4 -122 -18 -19 -28 -20 -55 -6 -15 8 -19 21 -19 60 0 26 3 55 6 64 7 19
55 21 72 4z"/>
<path d="M1092 1070 c-18 -4 -44 -18 -58 -31 -22 -20 -24 -30 -24 -109 0 -80
2 -89 25 -113 29 -28 79 -41 128 -32 68 13 87 46 87 150 0 71 -2 79 -29 106
-16 16 -38 29 -49 29 -11 0 -26 2 -34 4 -7 2 -28 0 -46 -4z m76 -137 c3 -59 1
-64 -22 -74 -40 -19 -56 2 -56 71 0 31 3 60 7 64 4 4 21 6 38 4 30 -3 30 -4
33 -65z"/>
<path d="M450 1054 c0 -16 75 -250 83 -261 11 -15 93 -18 101 -4 5 7 43 125
82 254 4 14 -1 17 -36 17 -24 0 -42 -5 -45 -12 -2 -7 -15 -49 -28 -93 l-24
-80 -22 75 c-12 41 -25 83 -27 93 -4 12 -16 17 -45 17 -21 0 -39 -3 -39 -6z"/>
</g>
</svg>
