<?xml version="1.0" standalone="no"?>
<!DOCTYPE svg PUBLIC "-//W3C//DTD SVG 20010904//EN"
 "http://www.w3.org/TR/2001/REC-SVG-20010904/DTD/svg10.dtd">
<svg version="1.0" xmlns="http://www.w3.org/2000/svg"
 width="192.000000pt" height="192.000000pt" viewBox="0 0 192.000000 192.000000"
 preserveAspectRatio="xMidYMid meet">
<metadata>
Created by potrace 1.16, written by Peter Selinger 2001-2019
</metadata>
<g transform="translate(0.000000,192.000000) scale(0.100000,-0.100000)"
fill="#000000" stroke="none">
811 c445 -92 729 -532 635 -987 -62 -301 -295 -546 -601 -630 -91 -26 -329
-26 -420 0 -291 80 -516 305 -596 596 -26 91 -26 329 0 420 120 433 542 692
982 601z"/>
<path d="M695 1321 c-47 -22 -89 -64 -104 -104 -15 -38 -15 -466 0 -504 15
-40 57 -82 104 -104 35 -16 67 -19 263 -19 245 0 265 4 324 67 44 47 48 71 48
308 0 237 -4 261 -48 308 -59 63 -79 67 -324 67 -196 0 -228 -3 -263 -19z
m407 -68 c11 -10 18 -30 18 -53 0 -46 -10 -57 -24 -27 -7 13 -23 23 -39 25
-23 3 -30 -2 -41 -29 l-13 -31 -17 23 c-21 31 -20 51 5 83 24 31 81 36 111 9z
m-21 -80 c17 -195 25 -238 44 -241 11 -1 48 -10 83 -18 l62 -16 0 -77 c0 -139
-40 -171 -218 -171 l-108 0 -32 54 c-66 107 -48 175 26 103 21 -20 48 -38 62
-39 l25 -3 3 195 c1 107 4 201 7 208 5 13 45 17 46 5z"/>
</g>
</svg>
