<?xml version="1.0" standalone="no"?>
<!DOCTYPE svg PUBLIC "-//W3C//DTD SVG 20010904//EN"
 "http://www.w3.org/TR/2001/REC-SVG-20010904/DTD/svg10.dtd">
<svg version="1.0" xmlns="http://www.w3.org/2000/svg"
 width="192.000000pt" height="192.000000pt" viewBox="0 0 192.000000 192.000000"
 preserveAspectRatio="xMidYMid meet">
<metadata>
Created by potrace 1.16, written by Peter Selinger 2001-2019
</metadata>
<g transform="translate(0.000000,192.000000) scale(0.100000,-0.100000)"
fill="#000000" stroke="none">
811 c445 -92 729 -532 635 -987 -62 -301 -295 -546 -601 -630 -91 -26 -329
-26 -420 0 -291 80 -516 305 -596 596 -26 91 -26 329 0 420 120 433 542 692
982 601z"/>
<path d="M820 1361 c-93 -31 -187 -78 -204 -102 -13 -20 -16 -53 -16 -209 1
-260 9 -276 194 -416 104 -77 117 -84 159 -84 43 0 55 7 169 93 108 81 126 99
153 151 30 59 30 62 33 237 5 228 3 232 -111 284 -45 21 -102 44 -126 52 -62
18 -185 16 -251 -6z m-54 -325 c10 -36 21 -63 24 -61 4 2 15 31 25 65 14 45
23 60 37 60 24 0 23 -11 -9 -102 -25 -70 -30 -78 -54 -78 -23 0 -28 8 -57 90
l-31 90 23 0 c20 0 26 -9 42 -64z m244 44 c39 -39 20 -95 -35 -106 -28 -5 -35
-11 -35 -30 0 -17 -6 -24 -20 -24 -19 0 -20 7 -20 90 l0 90 45 0 c32 0 51 -6
65 -20z m115 -32 l35 -53 0 53 c0 45 3 52 20 52 19 0 20 -7 20 -90 0 -79 -2
-90 -17 -90 -10 0 -31 20 -48 48 l-30 47 -3 -47 c-3 -43 -5 -48 -28 -48 -24 0
-24 2 -24 83 0 46 3 87 7 90 16 16 35 4 68 -45z"/>
<path d="M940 1035 c0 -26 18 -33 37 -14 16 16 5 39 -18 39 -14 0 -19 -7 -19
-25z"/>
</g>
</svg>
