<?xml version="1.0" standalone="no"?>
<!DOCTYPE svg PUBLIC "-//W3C//DTD SVG 20010904//EN"
 "http://www.w3.org/TR/2001/REC-SVG-20010904/DTD/svg10.dtd">
<svg version="1.0" xmlns="http://www.w3.org/2000/svg"
 width="192.000000pt" height="192.000000pt" viewBox="0 0 192.000000 192.000000"
 preserveAspectRatio="xMidYMid meet">
<metadata>
Created by potrace 1.16, written by Peter Selinger 2001-2019
</metadata>
<g transform="translate(0.000000,192.000000) scale(0.100000,-0.100000)"
fill="#000000" stroke="none">
811 c445 -92 729 -532 635 -987 -62 -301 -295 -546 -601 -630 -91 -26 -329
-26 -420 0 -291 80 -516 305 -596 596 -26 91 -26 329 0 420 120 433 542 692
982 601z"/>
<path d="M795 1340 c-197 -54 -187 -39 -183 -289 l3 -196 35 -65 c40 -74 148
-187 206 -216 52 -25 146 -25 198 0 58 29 166 142 206 216 l35 65 3 196 c4
251 14 235 -188 290 -80 21 -152 39 -160 38 -8 0 -78 -18 -155 -39z m-59 -172
c4 -6 10 -25 14 -42 l6 -31 22 43 22 42 99 0 c108 0 131 -10 131 -55 0 -37
-31 -66 -78 -72 -24 -3 -42 -11 -42 -18 0 -19 -26 -36 -44 -29 -18 7 -21 46
-6 75 8 15 22 19 60 19 38 0 50 4 50 15 0 12 -14 15 -64 15 l-65 0 -35 -59
c-20 -32 -43 -62 -51 -65 -23 -8 -45 4 -50 28 -14 59 -23 121 -18 133 6 16 39
17 49 1z m390 -24 l28 -35 10 33 c12 35 49 51 59 25 9 -25 -26 -149 -46 -161
-16 -9 -24 -5 -52 29 l-34 39 -6 -26 c-10 -40 -32 -55 -51 -36 -14 13 -13 22
1 83 8 37 18 71 21 76 12 20 44 7 70 -27z m-322 -194 c0 -14 -4 -37 -9 -52 -7
-27 -6 -28 33 -28 36 0 42 4 76 55 27 42 42 55 61 55 30 0 41 -20 50 -92 6
-50 5 -59 -10 -64 -10 -4 -26 -2 -36 4 -23 15 -52 15 -65 2 -6 -6 -44 -10 -90
-8 -73 3 -79 5 -82 26 -2 12 4 47 13 78 14 47 19 55 38 52 16 -2 22 -9 21 -28z
m376 10 c0 -12 -9 -22 -23 -25 -17 -5 -26 -19 -37 -58 -12 -41 -20 -53 -38
-55 -19 -3 -22 1 -22 27 0 16 4 41 10 55 8 21 6 26 -10 31 -11 4 -20 15 -20
26 0 17 7 19 70 19 63 0 70 -2 70 -20z"/>
<path d="M946 901 c-4 -7 -5 -15 -2 -18 9 -9 19 4 14 18 -4 11 -6 11 -12 0z"/>
</g>
</svg>
