<?xml version="1.0" standalone="no"?>
<!DOCTYPE svg PUBLIC "-//W3C//DTD SVG 20010904//EN"
 "http://www.w3.org/TR/2001/REC-SVG-20010904/DTD/svg10.dtd">
<svg version="1.0" xmlns="http://www.w3.org/2000/svg"
 width="192.000000pt" height="192.000000pt" viewBox="0 0 192.000000 192.000000"
 preserveAspectRatio="xMidYMid meet">
<metadata>
Created by potrace 1.16, written by Peter Selinger 2001-2019
</metadata>
<g transform="translate(0.000000,192.000000) scale(0.100000,-0.100000)"
fill="#000000" stroke="none">
811 c445 -92 729 -532 635 -987 -62 -301 -295 -546 -601 -630 -91 -26 -329
-26 -420 0 -291 80 -516 305 -596 596 -26 91 -26 329 0 420 120 433 542 692
982 601z"/>
<path d="M815 1334 c-176 -54 -192 -62 -205 -94 -8 -20 -11 -84 -8 -212 3
-167 5 -187 26 -226 34 -65 85 -115 179 -179 81 -55 88 -58 147 -58 53 0 70 5
120 35 78 46 170 132 204 189 27 45 27 49 30 247 3 182 2 202 -15 222 -19 23
-294 113 -342 111 -14 0 -75 -16 -136 -35z m160 -315 l45 -42 49 27 c51 27 71
23 52 -12 -12 -22 -117 -122 -128 -122 -5 0 -27 18 -48 40 -45 46 -52 47 -97
20 -34 -20 -68 -26 -68 -12 0 13 125 142 138 142 7 0 33 -19 57 -41z"/>
</g>
</svg>
