<?xml version="1.0" standalone="no"?>
<!DOCTYPE svg PUBLIC "-//W3C//DTD SVG 20010904//EN"
 "http://www.w3.org/TR/2001/REC-SVG-20010904/DTD/svg10.dtd">
<svg version="1.0" xmlns="http://www.w3.org/2000/svg"
 width="192.000000pt" height="192.000000pt" viewBox="0 0 192.000000 192.000000"
 preserveAspectRatio="xMidYMid meet">
<metadata>
Created by potrace 1.16, written by Peter Selinger 2001-2019
</metadata>
<g transform="translate(0.000000,192.000000) scale(0.100000,-0.100000)"
fill="#000000" stroke="none">
811 c445 -92 729 -532 635 -987 -62 -301 -295 -546 -601 -630 -91 -26 -329
-26 -420 0 -291 80 -516 305 -596 596 -26 91 -26 329 0 420 120 433 542 692
982 601z"/>
<path d="M592 1334 c-12 -8 -22 -23 -22 -32 1 -37 79 -295 91 -303 27 -17 69
-10 79 14 12 28 80 278 80 294 0 7 -11 20 -24 28 -39 26 -62 6 -76 -62 -25
-126 -25 -126 -43 -33 -11 52 -24 90 -34 98 -21 15 -24 15 -51 -4z"/>
<path d="M880 1330 c-18 -18 -20 -33 -20 -161 0 -149 7 -179 43 -179 35 0 47
19 47 77 l0 53 53 0 c29 0 58 5 65 12 8 8 12 46 12 105 0 110 -3 113 -109 113
-58 0 -75 -4 -91 -20z m110 -95 c0 -18 -5 -25 -20 -25 -20 0 -28 28 -13 43 15
16 33 6 33 -18z"/>
<path d="M1148 1339 c-16 -9 -18 -28 -18 -167 0 -163 4 -182 41 -182 41 0 49
26 49 151 0 112 1 119 20 119 19 0 20 -7 20 -123 0 -130 5 -147 47 -147 36 0
43 30 43 184 0 138 -1 146 -22 160 -26 18 -152 22 -180 5z"/>
<path d="M572 948 c-8 -8 -12 -61 -12 -174 0 -157 1 -163 22 -178 19 -13 25
-14 43 -2 16 11 21 26 23 75 3 57 5 61 27 61 22 0 24 -4 27 -61 2 -49 7 -64
23 -75 18 -12 24 -11 43 2 21 15 22 21 22 178 0 170 -4 186 -45 186 -34 0 -45
-20 -45 -82 0 -55 -1 -58 -25 -58 -24 0 -25 3 -25 58 0 32 -5 63 -12 70 -15
15 -51 15 -66 0z"/>
<path d="M852 948 c-8 -8 -12 -61 -12 -174 0 -195 0 -194 115 -194 115 0 115
-1 115 194 0 170 -4 186 -45 186 -40 0 -45 -18 -45 -152 l0 -128 -25 0 -25 0
0 128 c0 86 -4 132 -12 140 -15 15 -51 15 -66 0z"/>
<path d="M1132 948 c-8 -8 -12 -61 -12 -174 0 -195 0 -194 115 -194 115 0 114
-1 114 192 0 101 -4 167 -11 175 -14 17 -189 18 -206 1z m128 -103 c0 -20 -5
-25 -25 -25 -20 0 -25 5 -25 25 0 20 5 25 25 25 20 0 25 -5 25 -25z m0 -140
c0 -20 -5 -25 -25 -25 -20 0 -25 5 -25 25 0 20 5 25 25 25 20 0 25 -5 25 -25z"/>
</g>
</svg>
