<?xml version="1.0" standalone="no"?>
<!DOCTYPE svg PUBLIC "-//W3C//DTD SVG 20010904//EN"
 "http://www.w3.org/TR/2001/REC-SVG-20010904/DTD/svg10.dtd">
<svg version="1.0" xmlns="http://www.w3.org/2000/svg"
 width="192.000000pt" height="192.000000pt" viewBox="0 0 192.000000 192.000000"
 preserveAspectRatio="xMidYMid meet">
<metadata>
Created by potrace 1.16, written by Peter Selinger 2001-2019
</metadata>
<g transform="translate(0.000000,192.000000) scale(0.100000,-0.100000)"
fill="#000000" stroke="none">
811 c445 -92 729 -532 635 -987 -62 -301 -295 -546 -601 -630 -91 -26 -329
-26 -420 0 -291 80 -516 305 -596 596 -26 91 -26 329 0 420 120 433 542 692
982 601z"/>
<path d="M715 1338 c-50 -18 -92 -55 -114 -101 -20 -42 -21 -57 -19 -278 l3
-234 128 -3 c70 -1 127 1 127 5 0 7 -9 47 -35 161 -5 19 -12 22 -50 22 -50 0
-52 2 -61 59 l-7 42 99 -3 98 -3 32 -140 c18 -77 33 -142 34 -145 1 -3 15 51
31 120 20 86 35 130 48 141 19 15 176 37 187 26 3 -2 -5 -43 -17 -90 -22 -87
-31 -99 -72 -89 -15 4 -18 11 -13 38 7 33 -7 54 -20 33 -9 -15 -33 -127 -34
-157 0 -23 0 -23 133 -20 l132 3 0 247 0 246 -30 43 c-55 78 -78 84 -330 86
-137 1 -231 -2 -250 -9z"/>
<path d="M610 682 c0 -14 64 -70 93 -81 16 -6 60 -11 98 -11 l71 0 -7 33 c-15
72 -5 67 -136 67 -65 0 -119 -4 -119 -8z"/>
<path d="M1045 678 c-2 -7 -6 -30 -10 -50 l-6 -38 76 0 c42 0 90 6 108 14 33
14 87 62 87 77 0 15 -250 11 -255 -3z"/>
</g>
</svg>
