<?xml version="1.0" standalone="no"?>
<!DOCTYPE svg PUBLIC "-//W3C//DTD SVG 20010904//EN"
 "http://www.w3.org/TR/2001/REC-SVG-20010904/DTD/svg10.dtd">
<svg version="1.0" xmlns="http://www.w3.org/2000/svg"
 width="192.000000pt" height="192.000000pt" viewBox="0 0 192.000000 192.000000"
 preserveAspectRatio="xMidYMid meet">
<metadata>
Created by potrace 1.16, written by Peter Selinger 2001-2019
</metadata>
<g transform="translate(0.000000,192.000000) scale(0.100000,-0.100000)"
fill="#000000" stroke="none">
811 c445 -92 729 -532 635 -987 -62 -301 -295 -546 -601 -630 -91 -26 -329
-26 -420 0 -291 80 -516 305 -596 596 -26 91 -26 329 0 420 120 433 542 692
982 601z"/>
<path d="M930 1370 c-38 -11 -291 -157 -320 -186 -25 -24 -25 -28 -28 -204 -3
-148 0 -185 13 -213 13 -27 45 -51 174 -125 86 -51 168 -92 182 -92 32 0 306
153 342 191 l27 29 0 194 c0 170 -2 196 -17 215 -20 23 -285 180 -323 191 -14
4 -36 4 -50 0z m-85 -455 c52 -30 99 -55 105 -55 6 0 54 25 107 55 53 31 106
55 117 53 20 -3 21 -9 21 -93 l0 -90 -115 -67 c-63 -37 -120 -67 -126 -68 -15
0 -236 128 -246 142 -11 19 -10 136 2 159 6 10 18 19 26 19 9 0 58 -25 109
-55z"/>
</g>
</svg>
