<?xml version="1.0" standalone="no"?>
<!DOCTYPE svg PUBLIC "-//W3C//DTD SVG 20010904//EN"
 "http://www.w3.org/TR/2001/REC-SVG-20010904/DTD/svg10.dtd">
<svg version="1.0" xmlns="http://www.w3.org/2000/svg"
 width="192.000000pt" height="192.000000pt" viewBox="0 0 192.000000 192.000000"
 preserveAspectRatio="xMidYMid meet">
<metadata>
Created by potrace 1.16, written by Peter Selinger 2001-2019
</metadata>
<g transform="translate(0.000000,192.000000) scale(0.100000,-0.100000)"
fill="#000000" stroke="none">
811 c445 -92 729 -532 635 -987 -62 -301 -295 -546 -601 -630 -91 -26 -329
-26 -420 0 -291 80 -516 305 -596 596 -26 91 -26 329 0 420 120 433 542 692
982 601z"/>
<path d="M833 1356 c-104 -34 -204 -123 -251 -224 -24 -51 -27 -69 -27 -167 0
-104 2 -114 32 -176 153 -310 594 -305 741 8 24 52 27 69 27 168 0 99 -3 116
-27 168 -37 79 -117 160 -196 199 -58 29 -77 33 -161 35 -61 2 -111 -2 -138
-11z m77 -116 c0 -30 -5 -42 -17 -46 -10 -3 -30 -11 -45 -19 -24 -12 -28 -11
-54 16 -27 28 -27 29 -8 44 20 15 90 43 112 44 8 1 12 -13 12 -39z m188 9 c23
-12 42 -24 42 -28 0 -4 -12 -19 -27 -33 l-28 -25 -42 19 c-40 18 -43 21 -43
59 0 40 1 41 28 34 15 -3 46 -15 70 -26z m-369 -123 c23 -24 23 -25 6 -70 -17
-44 -20 -46 -57 -46 -36 0 -39 2 -33 23 10 36 48 117 55 117 4 0 17 -11 29
-24z m508 -18 c11 -24 23 -55 27 -70 6 -27 5 -28 -33 -28 -38 0 -41 3 -59 43
l-19 42 25 28 c14 15 29 27 33 27 4 0 16 -19 26 -42z m-209 -18 c73 -45 94
-147 44 -218 -29 -40 -98 -67 -148 -57 -75 14 -131 103 -114 180 21 95 136
145 218 95z m-296 -217 c17 -47 17 -48 -4 -70 -12 -13 -25 -23 -29 -23 -9 0
-45 75 -54 113 -7 26 -6 27 31 27 38 0 40 -2 56 -47z m533 20 c-9 -38 -45
-113 -54 -113 -4 0 -18 11 -30 24 -23 24 -23 25 -6 70 17 44 19 46 57 46 39 0
40 -1 33 -27z m-401 -153 c42 -19 46 -24 46 -55 0 -19 -4 -35 -8 -35 -17 0
-98 31 -116 45 -19 15 -19 15 4 40 13 14 24 25 25 25 2 0 23 -9 49 -20z m256
-5 c23 -25 23 -25 4 -40 -18 -14 -99 -45 -116 -45 -4 0 -8 17 -8 38 0 35 3 39
43 54 23 8 45 16 48 17 3 0 16 -10 29 -24z"/>
</g>
</svg>
