<?xml version="1.0" standalone="no"?>
<!DOCTYPE svg PUBLIC "-//W3C//DTD SVG 20010904//EN"
 "http://www.w3.org/TR/2001/REC-SVG-20010904/DTD/svg10.dtd">
<svg version="1.0" xmlns="http://www.w3.org/2000/svg"
 width="192.000000pt" height="192.000000pt" viewBox="0 0 192.000000 192.000000"
 preserveAspectRatio="xMidYMid meet">
<metadata>
Created by potrace 1.16, written by Peter Selinger 2001-2019
</metadata>
<g transform="translate(0.000000,192.000000) scale(0.100000,-0.100000)"
fill="#000000" stroke="none">
811 c445 -92 729 -532 635 -987 -62 -301 -295 -546 -601 -630 -91 -26 -329
-26 -420 0 -291 80 -516 305 -596 596 -26 91 -26 329 0 420 120 433 542 692
982 601z"/>
<path d="M495 1098 c-2 -7 12 -71 33 -143 l38 -130 39 0 39 0 38 130 c21 72
36 136 33 143 -2 6 -15 12 -28 12 -32 0 -40 -12 -62 -95 l-19 -70 -18 65 c-10
36 -22 72 -27 80 -10 19 -60 26 -66 8z"/>
<path d="M740 1095 c-8 -10 -11 -47 -8 -119 3 -92 6 -108 24 -127 27 -26 102
-36 143 -19 42 17 52 51 49 170 l-3 105 -30 0 -30 0 -5 -105 -5 -105 -32 -3
-33 -3 0 98 c0 101 -7 123 -41 123 -9 0 -22 -7 -29 -15z"/>
<path d="M974 1097 c-2 -7 -3 -71 -2 -143 l3 -129 64 -3 c116 -5 141 20 141
143 0 84 -12 118 -47 134 -35 16 -152 14 -159 -2z m131 -132 l0 -70 -32 -3
-33 -3 0 76 0 76 33 -3 32 -3 0 -70z"/>
<path d="M1207 1104 c-4 -4 -7 -58 -7 -120 0 -146 9 -159 103 -159 50 0 70 4
86 19 20 18 21 28 19 140 l-3 121 -30 0 -30 0 -3 -108 -3 -108 -32 3 -32 3 -5
105 c-5 103 -5 105 -30 108 -14 2 -29 0 -33 -4z"/>
</g>
</svg>
