<?xml version="1.0" standalone="no"?>
<!DOCTYPE svg PUBLIC "-//W3C//DTD SVG 20010904//EN"
 "http://www.w3.org/TR/2001/REC-SVG-20010904/DTD/svg10.dtd">
<svg version="1.0" xmlns="http://www.w3.org/2000/svg"
 width="192.000000pt" height="192.000000pt" viewBox="0 0 192.000000 192.000000"
 preserveAspectRatio="xMidYMid meet">
<metadata>
Created by potrace 1.16, written by Peter Selinger 2001-2019
</metadata>
<g transform="translate(0.000000,192.000000) scale(0.100000,-0.100000)"
fill="#000000" stroke="none">
811 c445 -92 729 -532 635 -987 -62 -301 -295 -546 -601 -630 -91 -26 -329
-26 -420 0 -291 80 -516 305 -596 596 -26 91 -26 329 0 420 120 433 542 692
982 601z"/>
<path d="M695 1321 c-47 -22 -89 -64 -104 -104 -15 -38 -15 -466 0 -504 15
-40 57 -82 104 -104 33 -16 66 -19 195 -19 l154 0 -67 68 c-67 68 -80 95 -51
106 11 4 46 -22 112 -84 89 -83 118 -101 136 -83 4 4 -55 69 -130 144 -96 96
-135 142 -132 155 9 47 40 26 189 -122 141 -141 150 -148 166 -131 17 16 13
21 -60 95 -42 42 -77 85 -77 95 0 40 31 28 107 -42 72 -65 79 -69 87 -51 8 18
-7 37 -107 139 -65 65 -117 122 -117 127 0 13 21 34 33 34 5 0 52 -41 103 -92
l94 -92 0 165 c0 151 -2 168 -22 209 -14 26 -41 57 -66 75 l-44 30 -231 3
c-210 2 -236 0 -272 -17z"/>
</g>
</svg>
