<?xml version="1.0" standalone="no"?>
<!DOCTYPE svg PUBLIC "-//W3C//DTD SVG 20010904//EN"
 "http://www.w3.org/TR/2001/REC-SVG-20010904/DTD/svg10.dtd">
<svg version="1.0" xmlns="http://www.w3.org/2000/svg"
 width="192.000000pt" height="192.000000pt" viewBox="0 0 192.000000 192.000000"
 preserveAspectRatio="xMidYMid meet">
<metadata>
Created by potrace 1.16, written by Peter Selinger 2001-2019
</metadata>
<g transform="translate(0.000000,192.000000) scale(0.100000,-0.100000)"
fill="#000000" stroke="none">
811 c445 -92 729 -532 635 -987 -62 -301 -295 -546 -601 -630 -91 -26 -329
-26 -420 0 -291 80 -516 305 -596 596 -26 91 -26 329 0 420 120 433 542 692
982 601z"/>
<path d="M605 1315 c-20 -19 -25 -34 -25 -74 0 -90 30 -121 114 -121 78 0 118
57 102 146 -11 56 -36 74 -106 74 -51 0 -65 -4 -85 -25z"/>
<path d="M875 1315 c-21 -20 -25 -34 -25 -85 0 -46 4 -64 20 -80 25 -25 61
-34 111 -27 64 8 79 29 79 107 0 88 -20 110 -104 110 -47 0 -61 -4 -81 -25z"/>
<path d="M1141 1321 c-24 -24 -36 -79 -27 -126 9 -47 47 -75 102 -75 84 0 114
31 114 121 0 73 -29 99 -110 99 -46 0 -64 -4 -79 -19z"/>
<path d="M634 1071 c-36 -16 -54 -51 -54 -109 0 -43 5 -58 25 -77 20 -21 34
-25 85 -25 66 0 94 17 106 65 10 40 -2 106 -23 127 -22 21 -107 33 -139 19z"/>
<path d="M894 1066 c-38 -17 -44 -31 -44 -105 0 -79 23 -101 106 -101 84 0
104 20 104 101 0 73 -10 93 -51 108 -42 14 -77 13 -115 -3z"/>
<path d="M1131 1044 c-15 -19 -21 -41 -21 -79 0 -38 6 -60 21 -79 18 -23 27
-26 85 -26 56 0 68 4 89 25 33 33 36 119 4 159 -19 24 -27 26 -89 26 -62 0
-70 -2 -89 -26z"/>
<path d="M624 798 c-30 -14 -44 -50 -44 -109 0 -73 29 -99 110 -99 88 0 119
39 107 133 -8 58 -43 87 -105 86 -26 0 -57 -5 -68 -11z"/>
<path d="M893 800 c-31 -13 -43 -41 -43 -105 0 -46 4 -60 25 -80 20 -21 34
-25 83 -25 82 0 102 22 102 112 0 60 -3 69 -26 87 -28 22 -99 28 -141 11z"/>
<path d="M1143 786 c-25 -22 -28 -31 -28 -86 0 -55 3 -64 28 -86 41 -35 127
-34 162 1 21 20 25 34 25 85 0 51 -4 65 -25 85 -35 35 -121 36 -162 1z"/>
</g>
</svg>
