<?xml version="1.0" standalone="no"?>
<!DOCTYPE svg PUBLIC "-//W3C//DTD SVG 20010904//EN"
 "http://www.w3.org/TR/2001/REC-SVG-20010904/DTD/svg10.dtd">
<svg version="1.0" xmlns="http://www.w3.org/2000/svg"
 width="192.000000pt" height="192.000000pt" viewBox="0 0 192.000000 192.000000"
 preserveAspectRatio="xMidYMid meet">
<metadata>
Created by potrace 1.16, written by Peter Selinger 2001-2019
</metadata>
<g transform="translate(0.000000,192.000000) scale(0.100000,-0.100000)"
fill="#000000" stroke="none">
811 c445 -92 729 -532 635 -987 -62 -301 -295 -546 -601 -630 -91 -26 -329
-26 -420 0 -291 80 -516 305 -596 596 -26 91 -26 329 0 420 120 433 542 692
982 601z"/>
<path d="M711 1335 c-24 -7 -59 -28 -78 -47 -53 -51 -63 -102 -63 -323 0 -228
10 -274 69 -328 57 -51 109 -59 346 -55 185 3 203 5 242 26 24 12 55 41 70 64
l28 42 0 251 0 251 -28 42 c-15 23 -46 52 -70 64 -39 22 -55 23 -257 25 -162
2 -226 -1 -259 -12z m567 -372 l3 -113 -118 0 c-128 0 -153 7 -187 53 -39 52
-17 132 45 165 16 8 62 11 139 10 l115 -3 3 -112z"/>
<path d="M1099 989 c-18 -34 3 -69 41 -69 22 0 33 6 41 24 16 35 -3 66 -41 66
-20 0 -33 -7 -41 -21z"/>
</g>
</svg>
