<?xml version="1.0" standalone="no"?>
<!DOCTYPE svg PUBLIC "-//W3C//DTD SVG 20010904//EN"
 "http://www.w3.org/TR/2001/REC-SVG-20010904/DTD/svg10.dtd">
<svg version="1.0" xmlns="http://www.w3.org/2000/svg"
 width="192.000000pt" height="192.000000pt" viewBox="0 0 192.000000 192.000000"
 preserveAspectRatio="xMidYMid meet">
<metadata>
Created by potrace 1.16, written by Peter Selinger 2001-2019
</metadata>
<g transform="translate(0.000000,192.000000) scale(0.100000,-0.100000)"
fill="#000000" stroke="none">
811 c445 -92 729 -532 635 -987 -62 -301 -295 -546 -601 -630 -91 -26 -329
-26 -420 0 -291 80 -516 305 -596 596 -26 91 -26 329 0 420 120 433 542 692
982 601z"/>
<path d="M829 1352 c-158 -53 -268 -196 -276 -361 -3 -46 1 -96 10 -127 l13
-52 -28 -16 c-15 -10 -31 -28 -34 -42 -13 -51 54 -84 100 -49 19 14 19 15 -5
59 -13 25 -21 47 -19 50 7 6 661 387 675 392 6 3 22 -14 34 -37 23 -41 24 -42
5 -56 -10 -8 -164 -98 -341 -201 -178 -103 -323 -193 -323 -199 0 -21 111
-102 169 -124 237 -89 489 53 541 305 12 59 7 146 -12 195 -8 22 -5 29 21 51
36 29 41 68 13 93 -23 21 -37 21 -71 1 -26 -15 -27 -14 -71 27 -24 23 -73 56
-109 72 -85 40 -205 47 -292 19z"/>
</g>
</svg>
