<?xml version="1.0" standalone="no"?>
<!DOCTYPE svg PUBLIC "-//W3C//DTD SVG 20010904//EN"
 "http://www.w3.org/TR/2001/REC-SVG-20010904/DTD/svg10.dtd">
<svg version="1.0" xmlns="http://www.w3.org/2000/svg"
 width="192.000000pt" height="192.000000pt" viewBox="0 0 192.000000 192.000000"
 preserveAspectRatio="xMidYMid meet">
<metadata>
Created by potrace 1.16, written by Peter Selinger 2001-2019
</metadata>
<g transform="translate(0.000000,192.000000) scale(0.100000,-0.100000)"
fill="#000000" stroke="none">
811 c445 -92 729 -532 635 -987 -62 -301 -295 -546 -601 -630 -91 -26 -329
-26 -420 0 -291 80 -516 305 -596 596 -26 91 -26 329 0 420 120 433 542 692
982 601z"/>
<path d="M919 1370 c-20 -4 -85 -35 -145 -70 -188 -109 -193 -118 -194 -338 0
-213 8 -228 201 -340 113 -67 172 -83 230 -63 19 6 86 42 149 80 95 56 120 76
145 116 27 44 29 55 33 169 5 155 -8 225 -53 275 -40 44 -241 161 -293 170
-20 4 -53 4 -73 1z m-90 -267 c18 -16 21 -30 23 -123 l3 -105 28 -3 27 -3 0
110 c0 106 1 111 24 126 19 13 29 14 45 5 19 -10 21 -20 21 -125 l0 -115 30 0
30 0 0 105 c0 92 3 108 20 125 11 11 25 20 30 20 6 0 19 -9 30 -20 17 -17 20
-33 20 -120 0 -180 -24 -205 -201 -205 -183 0 -199 16 -199 204 0 104 2 121
18 130 23 14 27 14 51 -6z"/>
</g>
</svg>
