<?xml version="1.0" standalone="no"?>
<!DOCTYPE svg PUBLIC "-//W3C//DTD SVG 20010904//EN"
 "http://www.w3.org/TR/2001/REC-SVG-20010904/DTD/svg10.dtd">
<svg version="1.0" xmlns="http://www.w3.org/2000/svg"
 width="192.000000pt" height="192.000000pt" viewBox="0 0 192.000000 192.000000"
 preserveAspectRatio="xMidYMid meet">
<metadata>
Created by potrace 1.16, written by Peter Selinger 2001-2019
</metadata>
<g transform="translate(0.000000,192.000000) scale(0.100000,-0.100000)"
fill="#000000" stroke="none">
811 c445 -92 729 -532 635 -987 -62 -301 -295 -546 -601 -630 -91 -26 -329
-26 -420 0 -291 80 -516 305 -596 596 -26 91 -26 329 0 420 120 433 542 692
982 601z"/>
<path d="M1170 1343 c-54 -21 -82 -89 -60 -143 16 -39 51 -60 98 -60 95 0 134
126 59 189 -18 14 -76 23 -97 14z"/>
<path d="M847 1083 c-27 -7 -278 -389 -270 -411 11 -32 66 -82 108 -98 35 -13
81 -15 281 -12 l241 3 41 27 c51 34 89 98 97 163 6 50 6 51 -72 165 -63 94
-83 116 -105 118 -38 4 -60 -10 -85 -55 l-22 -39 41 -62 c36 -54 39 -65 27
-77 -8 -8 -18 -11 -24 -7 -5 4 -50 67 -100 141 -53 78 -100 137 -113 142 -13
5 -24 8 -25 8 -1 -1 -10 -3 -20 -6z"/>
</g>
</svg>
