<?xml version="1.0" standalone="no"?>
<!DOCTYPE svg PUBLIC "-//W3C//DTD SVG 20010904//EN"
 "http://www.w3.org/TR/2001/REC-SVG-20010904/DTD/svg10.dtd">
<svg version="1.0" xmlns="http://www.w3.org/2000/svg"
 width="192.000000pt" height="192.000000pt" viewBox="0 0 192.000000 192.000000"
 preserveAspectRatio="xMidYMid meet">
<metadata>
Created by potrace 1.16, written by Peter Selinger 2001-2019
</metadata>
<g transform="translate(0.000000,192.000000) scale(0.100000,-0.100000)"
fill="#000000" stroke="none">
811 c445 -92 729 -532 635 -987 -62 -301 -295 -546 -601 -630 -91 -26 -329
-26 -420 0 -291 80 -516 305 -596 596 -26 91 -26 329 0 420 120 433 542 692
982 601z"/>
<path d="M875 1367 c-90 -30 -153 -84 -196 -167 -21 -39 -24 -62 -27 -182 -4
-156 7 -208 59 -271 34 -41 103 -81 162 -91 36 -7 37 -8 37 -49 0 -47 13 -67
45 -67 32 0 45 20 45 67 0 38 3 43 28 49 155 33 221 118 230 295 8 173 -23
278 -105 349 -74 66 -194 94 -278 67z"/>
</g>
</svg>
