<?xml version="1.0" standalone="no"?>
<!DOCTYPE svg PUBLIC "-//W3C//DTD SVG 20010904//EN"
 "http://www.w3.org/TR/2001/REC-SVG-20010904/DTD/svg10.dtd">
<svg version="1.0" xmlns="http://www.w3.org/2000/svg"
 width="192.000000pt" height="192.000000pt" viewBox="0 0 192.000000 192.000000"
 preserveAspectRatio="xMidYMid meet">
<metadata>
Created by potrace 1.16, written by Peter Selinger 2001-2019
</metadata>
<g transform="translate(0.000000,192.000000) scale(0.100000,-0.100000)"
fill="#000000" stroke="none">
811 c445 -92 729 -532 635 -987 -62 -301 -295 -546 -601 -630 -91 -26 -329
-26 -420 0 -291 80 -516 305 -596 596 -26 91 -26 329 0 420 120 433 542 692
982 601z"/>
<path d="M695 1321 c-50 -22 -91 -69 -105 -119 -5 -20 -10 -102 -10 -181 l0
-144 79 76 c43 42 83 77 88 77 5 0 20 -11 33 -25 l23 -25 68 65 c37 36 75 65
85 65 10 0 49 -30 86 -67 l68 -67 28 27 c15 15 32 27 37 27 5 0 42 -33 82 -72
l73 -72 0 139 c0 156 -9 200 -47 246 -53 62 -83 69 -328 69 -192 0 -225 -3
-260 -19z"/>
<path d="M871 956 l-64 -65 -29 24 c-36 31 -42 28 -132 -64 l-69 -70 12 -43
c18 -60 46 -95 94 -121 40 -21 53 -22 272 -22 219 0 232 1 272 22 49 26 76 61
94 121 l13 43 -82 82 -81 81 -31 -29 -30 -29 -69 67 c-38 37 -77 67 -88 67
-10 0 -47 -29 -82 -64z"/>
</g>
</svg>
