<?xml version="1.0" standalone="no"?>
<!DOCTYPE svg PUBLIC "-//W3C//DTD SVG 20010904//EN"
 "http://www.w3.org/TR/2001/REC-SVG-20010904/DTD/svg10.dtd">
<svg version="1.0" xmlns="http://www.w3.org/2000/svg"
 width="192.000000pt" height="192.000000pt" viewBox="0 0 192.000000 192.000000"
 preserveAspectRatio="xMidYMid meet">
<metadata>
Created by potrace 1.16, written by Peter Selinger 2001-2019
</metadata>
<g transform="translate(0.000000,192.000000) scale(0.100000,-0.100000)"
fill="#000000" stroke="none">
811 c445 -92 729 -532 635 -987 -62 -301 -295 -546 -601 -630 -91 -26 -329
-26 -420 0 -291 80 -516 305 -596 596 -26 91 -26 329 0 420 120 433 542 692
982 601z"/>
<path d="M742 1369 c-46 -13 -109 -79 -122 -128 -6 -24 -9 -116 -8 -228 l3
-188 141 138 c190 185 171 185 376 -3 l153 -139 3 192 c3 209 -3 247 -45 298
-51 60 -86 69 -288 68 -99 0 -195 -5 -213 -10z"/>
<path d="M826 970 l-81 -80 108 0 c97 0 126 7 97 25 -26 16 -4 25 62 25 l72 0
-54 55 c-80 81 -99 78 -204 -25z"/>
<path d="M666 801 c-58 -59 -59 -60 -53 -106 5 -51 27 -86 71 -119 26 -20 41
-21 264 -21 209 0 241 2 270 18 40 22 68 66 78 121 6 40 6 41 -62 103 l-69 62
-220 1 -221 0 -58 -59z"/>
</g>
</svg>
