<?xml version="1.0" standalone="no"?>
<!DOCTYPE svg PUBLIC "-//W3C//DTD SVG 20010904//EN"
 "http://www.w3.org/TR/2001/REC-SVG-20010904/DTD/svg10.dtd">
<svg version="1.0" xmlns="http://www.w3.org/2000/svg"
 width="192.000000pt" height="192.000000pt" viewBox="0 0 192.000000 192.000000"
 preserveAspectRatio="xMidYMid meet">
<metadata>
Created by potrace 1.16, written by Peter Selinger 2001-2019
</metadata>
<g transform="translate(0.000000,192.000000) scale(0.100000,-0.100000)"
fill="#000000" stroke="none">
811 c445 -92 729 -532 635 -987 -62 -301 -295 -546 -601 -630 -91 -26 -329
-26 -420 0 -291 80 -516 305 -596 596 -26 91 -26 329 0 420 120 433 542 692
982 601z"/>
<path d="M692 1319 c-24 -12 -54 -36 -66 -53 -42 -55 -48 -96 -44 -321 3 -240
10 -266 87 -320 l43 -30 243 0 243 0 43 30 c79 56 84 77 84 340 0 263 -5 284
-84 340 l-43 30 -231 3 c-221 2 -234 1 -275 -19z m121 -99 c33 -26 43 -70 23
-108 -17 -33 -34 -42 -79 -42 -61 0 -98 72 -66 131 21 40 83 50 122 19z m422
-184 c29 -29 39 -88 33 -206 -5 -101 -20 -132 -79 -162 -29 -15 -63 -18 -234
-18 -171 0 -205 3 -234 18 -47 23 -70 58 -77 115 -6 42 -5 47 13 47 12 0 50
32 94 80 43 46 83 80 94 80 10 0 42 -25 70 -55 28 -30 59 -55 70 -55 11 0 53
37 103 90 50 54 91 90 103 90 11 0 31 -11 44 -24z"/>
</g>
</svg>
