<?xml version="1.0" standalone="no"?>
<!DOCTYPE svg PUBLIC "-//W3C//DTD SVG 20010904//EN"
 "http://www.w3.org/TR/2001/REC-SVG-20010904/DTD/svg10.dtd">
<svg version="1.0" xmlns="http://www.w3.org/2000/svg"
 width="192.000000pt" height="192.000000pt" viewBox="0 0 192.000000 192.000000"
 preserveAspectRatio="xMidYMid meet">
<metadata>
Created by potrace 1.16, written by Peter Selinger 2001-2019
</metadata>
<g transform="translate(0.000000,192.000000) scale(0.100000,-0.100000)"
fill="#000000" stroke="none">
811 c445 -92 729 -532 635 -987 -62 -301 -295 -546 -601 -630 -91 -26 -329
-26 -420 0 -291 80 -516 305 -596 596 -26 91 -26 329 0 420 120 433 542 692
982 601z"/>
<path d="M552 1288 c-7 -7 -12 -20 -12 -30 0 -14 81 -385 125 -575 10 -44 31
-53 119 -53 54 0 89 5 101 14 12 9 28 50 45 122 l27 109 26 -110 c17 -68 33
-115 44 -122 23 -18 173 -17 197 0 23 17 157 600 146 632 -6 18 -18 20 -93 23
-106 3 -105 5 -137 -168 l-24 -125 -33 135 c-19 74 -39 140 -45 147 -7 8 -37
13 -85 13 l-74 0 -13 -32 c-8 -18 -24 -78 -36 -133 -13 -55 -26 -103 -29 -108
-4 -4 -18 50 -31 119 -13 70 -30 133 -38 140 -17 18 -163 19 -180 2z"/>
</g>
</svg>
