<?xml version="1.0" standalone="no"?>
<!DOCTYPE svg PUBLIC "-//W3C//DTD SVG 20010904//EN"
 "http://www.w3.org/TR/2001/REC-SVG-20010904/DTD/svg10.dtd">
<svg version="1.0" xmlns="http://www.w3.org/2000/svg"
 width="192.000000pt" height="192.000000pt" viewBox="0 0 192.000000 192.000000"
 preserveAspectRatio="xMidYMid meet">
<metadata>
Created by potrace 1.16, written by Peter Selinger 2001-2019
</metadata>
<g transform="translate(0.000000,192.000000) scale(0.100000,-0.100000)"
fill="#000000" stroke="none">
811 c445 -92 729 -532 635 -987 -62 -301 -295 -546 -601 -630 -91 -26 -329
-26 -420 0 -291 80 -516 305 -596 596 -26 91 -26 329 0 420 120 433 542 692
982 601z"/>
<path d="M695 1323 c-46 -24 -76 -54 -96 -98 -16 -35 -19 -68 -19 -261 0 -212
1 -223 23 -265 13 -24 43 -57 66 -74 l43 -30 243 0 243 0 43 30 c23 17 53 50
66 74 22 42 23 53 23 263 0 175 -3 226 -15 256 -20 47 -50 79 -97 103 -33 17
-60 19 -265 19 -188 -1 -233 -4 -258 -17z m494 -61 c67 -34 76 -57 79 -215 l3
-142 -26 26 c-22 22 -25 29 -15 53 51 136 -81 266 -212 208 -25 -11 -55 -34
-68 -52 -27 -38 -37 -106 -21 -150 15 -43 5 -55 -26 -30 -51 40 -84 29 -179
-62 l-85 -82 3 186 c3 170 5 189 24 215 42 57 69 63 289 63 171 0 205 -3 234
-18z m-38 -151 c19 -19 29 -40 29 -59 0 -41 -8 -44 -45 -17 -42 32 -85 32
-115 0 -30 -32 -45 -19 -36 29 14 76 110 103 167 47z"/>
</g>
</svg>
