<?xml version="1.0" standalone="no"?>
<!DOCTYPE svg PUBLIC "-//W3C//DTD SVG 20010904//EN"
 "http://www.w3.org/TR/2001/REC-SVG-20010904/DTD/svg10.dtd">
<svg version="1.0" xmlns="http://www.w3.org/2000/svg"
 width="192.000000pt" height="192.000000pt" viewBox="0 0 192.000000 192.000000"
 preserveAspectRatio="xMidYMid meet">
<metadata>
Created by potrace 1.16, written by Peter Selinger 2001-2019
</metadata>
<g transform="translate(0.000000,192.000000) scale(0.100000,-0.100000)"
fill="#000000" stroke="none">
811 c445 -92 729 -532 635 -987 -62 -301 -295 -546 -601 -630 -91 -26 -329
-26 -420 0 -291 80 -516 305 -596 596 -26 91 -26 329 0 420 120 433 542 692
982 601z"/>
<path d="M780 1364 c-46 -20 -77 -50 -101 -96 -17 -34 -19 -61 -19 -303 0
-295 3 -312 70 -368 48 -41 91 -49 247 -45 139 3 142 4 184 33 81 57 84 72 84
380 0 308 -3 323 -84 380 -42 30 -44 30 -194 32 -120 2 -159 0 -187 -13z m300
-97 c13 -7 35 -28 47 -46 22 -33 23 -41 23 -256 0 -215 -1 -223 -23 -256 -12
-18 -34 -39 -47 -46 -37 -19 -223 -17 -260 2 -56 29 -60 51 -60 300 0 247 5
271 58 299 35 19 226 22 262 3z"/>
<path d="M864 776 c-3 -8 -4 -23 -2 -33 3 -16 14 -18 87 -18 67 0 86 3 94 17
8 12 7 21 -2 32 -18 22 -169 23 -177 2z"/>
<path d="M551 1196 c-8 -9 -11 -80 -9 -236 3 -200 5 -224 21 -234 12 -8 22 -8
35 0 15 10 17 34 20 234 2 230 -1 250 -38 250 -10 0 -23 -6 -29 -14z"/>
<path d="M1302 1198 c-17 -17 -17 -449 0 -466 18 -18 46 -14 58 7 13 26 13
426 0 452 -12 21 -40 25 -58 7z"/>
</g>
</svg>
