<?xml version="1.0" standalone="no"?>
<!DOCTYPE svg PUBLIC "-//W3C//DTD SVG 20010904//EN"
 "http://www.w3.org/TR/2001/REC-SVG-20010904/DTD/svg10.dtd">
<svg version="1.0" xmlns="http://www.w3.org/2000/svg"
 width="192.000000pt" height="192.000000pt" viewBox="0 0 192.000000 192.000000"
 preserveAspectRatio="xMidYMid meet">
<metadata>
Created by potrace 1.16, written by Peter Selinger 2001-2019
</metadata>
<g transform="translate(0.000000,192.000000) scale(0.100000,-0.100000)"
fill="#000000" stroke="none">
811 c445 -92 729 -532 635 -987 -62 -301 -295 -546 -601 -630 -91 -26 -329
-26 -420 0 -291 80 -516 305 -596 596 -26 91 -26 329 0 420 120 433 542 692
982 601z"/>
<path d="M556 1268 c-13 -18 -16 -53 -16 -171 0 -144 1 -149 25 -172 23 -23
31 -25 130 -25 l105 0 0 -120 c0 -132 4 -140 69 -140 59 0 61 13 61 325 0 312
-2 325 -61 325 -65 0 -69 -8 -69 -140 l0 -120 -65 0 -65 0 0 120 c0 108 -2
120 -19 130 -34 18 -78 12 -95 -12z"/>
<path d="M1007 1278 c-16 -12 -17 -40 -15 -318 l3 -305 28 -9 c17 -6 37 -6 55
0 l27 9 3 123 3 122 64 0 65 0 0 -114 c0 -129 8 -146 65 -146 61 0 65 13 65
189 0 176 -4 190 -62 200 l-36 6 49 105 c42 92 47 107 35 125 -14 21 -80 32
-104 17 -6 -5 -34 -62 -60 -128 -32 -78 -54 -120 -65 -122 -15 -3 -17 9 -17
117 0 109 -2 121 -19 131 -26 14 -63 13 -84 -2z"/>
</g>
</svg>
