<?xml version="1.0" standalone="no"?>
<!DOCTYPE svg PUBLIC "-//W3C//DTD SVG 20010904//EN"
 "http://www.w3.org/TR/2001/REC-SVG-20010904/DTD/svg10.dtd">
<svg version="1.0" xmlns="http://www.w3.org/2000/svg"
 width="192.000000pt" height="192.000000pt" viewBox="0 0 192.000000 192.000000"
 preserveAspectRatio="xMidYMid meet">
<metadata>
Created by potrace 1.16, written by Peter Selinger 2001-2019
</metadata>
<g transform="translate(0.000000,192.000000) scale(0.100000,-0.100000)"
fill="#000000" stroke="none">
811 c445 -92 729 -532 635 -987 -62 -301 -295 -546 -601 -630 -91 -26 -329
-26 -420 0 -291 80 -516 305 -596 596 -26 91 -26 329 0 420 120 433 542 692
982 601z"/>
<path d="M670 1318 c-62 -32 -83 -72 -88 -172 -3 -70 0 -87 20 -125 34 -65 66
-85 146 -89 79 -4 124 15 160 68 19 29 22 46 22 133 0 83 -3 105 -20 133 -44
69 -156 94 -240 52z"/>
<path d="M1084 1321 c-108 -49 -114 -208 -12 -271 46 -28 150 -28 196 0 46 29
72 76 72 134 0 92 -69 156 -170 156 -25 0 -63 -9 -86 -19z"/>
<path d="M1072 940 c-54 -33 -72 -74 -72 -164 0 -95 20 -134 84 -165 82 -40
193 -15 236 53 28 47 29 177 0 224 -31 51 -75 72 -150 72 -47 0 -74 -5 -98
-20z"/>
<path d="M633 836 c-33 -30 -37 -39 -41 -93 -4 -53 -1 -62 24 -92 36 -43 80
-61 149 -61 80 0 131 28 157 87 27 61 18 105 -32 155 l-38 38 -91 0 c-90 0
-92 -1 -128 -34z"/>
</g>
</svg>
