<?xml version="1.0" standalone="no"?>
<!DOCTYPE svg PUBLIC "-//W3C//DTD SVG 20010904//EN"
 "http://www.w3.org/TR/2001/REC-SVG-20010904/DTD/svg10.dtd">
<svg version="1.0" xmlns="http://www.w3.org/2000/svg"
 width="192.000000pt" height="192.000000pt" viewBox="0 0 192.000000 192.000000"
 preserveAspectRatio="xMidYMid meet">
<metadata>
Created by potrace 1.16, written by Peter Selinger 2001-2019
</metadata>
<g transform="translate(0.000000,192.000000) scale(0.100000,-0.100000)"
fill="#000000" stroke="none">
811 c445 -92 729 -532 635 -987 -62 -301 -295 -546 -601 -630 -91 -26 -329
-26 -420 0 -291 80 -516 305 -596 596 -26 91 -26 329 0 420 120 433 542 692
982 601z"/>
<path d="M579 1251 c-16 -17 -29 -40 -29 -54 0 -38 184 -497 210 -524 14 -14
34 -23 54 -23 55 0 73 22 107 130 17 55 32 100 34 100 2 0 17 -45 34 -100 34
-107 52 -130 106 -130 16 0 40 8 52 18 25 19 213 487 213 529 0 30 -50 83 -79
83 -35 0 -70 -22 -85 -54 -8 -17 -31 -73 -52 -125 -23 -59 -40 -88 -44 -80 -4
8 -20 57 -35 109 -20 71 -34 102 -56 123 -66 62 -124 19 -164 -123 -15 -52
-31 -101 -35 -109 -4 -8 -21 21 -44 80 -56 139 -65 155 -92 168 -40 18 -63 13
-95 -18z"/>
</g>
</svg>
