<?xml version="1.0" standalone="no"?>
<!DOCTYPE svg PUBLIC "-//W3C//DTD SVG 20010904//EN"
 "http://www.w3.org/TR/2001/REC-SVG-20010904/DTD/svg10.dtd">
<svg version="1.0" xmlns="http://www.w3.org/2000/svg"
 width="192.000000pt" height="192.000000pt" viewBox="0 0 192.000000 192.000000"
 preserveAspectRatio="xMidYMid meet">
<metadata>
Created by potrace 1.16, written by Peter Selinger 2001-2019
</metadata>
<g transform="translate(0.000000,192.000000) scale(0.100000,-0.100000)"
fill="#000000" stroke="none">
811 c445 -92 729 -532 635 -987 -62 -301 -295 -546 -601 -630 -91 -26 -329
-26 -420 0 -291 80 -516 305 -596 596 -26 91 -26 329 0 420 120 433 542 692
982 601z"/>
<path d="M1225 1175 c-35 -34 -35 -96 0 -130 55 -56 145 -16 145 63 0 81 -91
122 -145 67z"/>
<path d="M579 1161 c-20 -20 -29 -39 -29 -62 0 -39 125 -379 151 -413 23 -29
66 -41 101 -27 17 6 54 51 105 125 43 64 80 116 83 116 3 0 28 -32 55 -72 76
-108 97 -128 138 -128 66 0 117 74 87 129 -25 48 -223 312 -240 321 -31 17
-85 12 -108 -10 -12 -11 -44 -54 -72 -95 -28 -41 -52 -75 -54 -75 -2 0 -18 39
-36 87 -39 104 -65 133 -115 133 -27 0 -44 -8 -66 -29z"/>
</g>
</svg>
