<?xml version="1.0" standalone="no"?>
<!DOCTYPE svg PUBLIC "-//W3C//DTD SVG 20010904//EN"
 "http://www.w3.org/TR/2001/REC-SVG-20010904/DTD/svg10.dtd">
<svg version="1.0" xmlns="http://www.w3.org/2000/svg"
 width="192.000000pt" height="192.000000pt" viewBox="0 0 192.000000 192.000000"
 preserveAspectRatio="xMidYMid meet">
<metadata>
Created by potrace 1.16, written by Peter Selinger 2001-2019
</metadata>
<g transform="translate(0.000000,192.000000) scale(0.100000,-0.100000)"
fill="#000000" stroke="none">
811 c445 -92 729 -532 635 -987 -62 -301 -295 -546 -601 -630 -91 -26 -329
-26 -420 0 -291 80 -516 305 -596 596 -26 91 -26 329 0 420 120 433 542 692
982 601z"/>
<path d="M998 1357 c-70 -20 -109 -51 -281 -226 -187 -188 -186 -188 -102
-271 l55 -54 -49 -51 c-83 -86 -87 -110 -24 -165 46 -41 71 -35 138 31 28 27
55 49 59 49 5 0 31 -22 57 -50 80 -83 82 -82 285 122 195 198 217 233 218 338
0 188 -178 327 -356 277z m186 -114 c67 -48 98 -132 76 -212 -9 -33 -31 -64
-95 -130 l-84 -86 -138 137 -138 138 81 81 c49 49 95 86 120 95 56 21 129 11
178 -23z"/>
</g>
</svg>
