<?xml version="1.0" standalone="no"?>
<!DOCTYPE svg PUBLIC "-//W3C//DTD SVG 20010904//EN"
 "http://www.w3.org/TR/2001/REC-SVG-20010904/DTD/svg10.dtd">
<svg version="1.0" xmlns="http://www.w3.org/2000/svg"
 width="192.000000pt" height="192.000000pt" viewBox="0 0 192.000000 192.000000"
 preserveAspectRatio="xMidYMid meet">
<metadata>
Created by potrace 1.16, written by Peter Selinger 2001-2019
</metadata>
<g transform="translate(0.000000,192.000000) scale(0.100000,-0.100000)"
fill="#000000" stroke="none">
811 c445 -92 729 -532 635 -987 -62 -301 -295 -546 -601 -630 -91 -26 -329
-26 -420 0 -291 80 -516 305 -596 596 -26 91 -26 329 0 420 120 433 542 692
982 601z"/>
<path d="M936 1335 c-21 -7 -50 -25 -65 -38 -24 -23 -31 -25 -103 -20 -70 5
-81 3 -122 -21 -61 -36 -102 -115 -92 -183 3 -26 17 -64 31 -85 20 -30 23 -42
15 -63 -17 -44 -12 -122 10 -165 36 -70 126 -118 199 -106 32 5 42 2 61 -19
54 -57 165 -73 240 -35 44 22 85 71 95 113 5 18 20 34 44 46 119 62 146 202
58 306 -14 17 -29 49 -33 70 -17 94 -62 156 -139 191 -58 27 -138 31 -199 9z
m154 -110 c89 -46 105 -168 30 -240 -33 -32 -38 -56 -14 -79 26 -26 56 -18
101 26 l43 42 0 -40 c0 -48 -37 -90 -89 -100 -20 -4 -36 -15 -41 -28 -4 -12
-14 -36 -20 -54 -25 -66 -117 -80 -160 -24 -18 22 -21 35 -16 72 12 93 12 93
-16 109 -25 14 -28 14 -49 -4 -27 -25 -49 -75 -49 -115 0 -26 -4 -30 -26 -30
-34 0 -94 59 -94 93 0 44 10 57 36 51 30 -8 74 19 74 46 0 21 -35 50 -62 50
-9 0 -29 11 -45 24 -39 34 -39 98 0 132 32 27 83 32 113 9 29 -22 62 -18 87
11 52 62 133 82 197 49z"/>
</g>
</svg>
