<?xml version="1.0" standalone="no"?>
<!DOCTYPE svg PUBLIC "-//W3C//DTD SVG 20010904//EN"
 "http://www.w3.org/TR/2001/REC-SVG-20010904/DTD/svg10.dtd">
<svg version="1.0" xmlns="http://www.w3.org/2000/svg"
 width="192.000000pt" height="192.000000pt" viewBox="0 0 192.000000 192.000000"
 preserveAspectRatio="xMidYMid meet">
<metadata>
Created by potrace 1.16, written by Peter Selinger 2001-2019
</metadata>
<g transform="translate(0.000000,192.000000) scale(0.100000,-0.100000)"
fill="#000000" stroke="none">
811 c445 -92 729 -532 635 -987 -62 -301 -295 -546 -601 -630 -91 -26 -329
-26 -420 0 -291 80 -516 305 -596 596 -26 91 -26 329 0 420 120 433 542 692
982 601z"/>
<path d="M1074 1321 c-85 -52 -58 -188 41 -207 43 -8 101 20 120 57 55 104
-60 211 -161 150z"/>
<path d="M795 1155 c-48 -17 -54 -24 -159 -210 -109 -192 -113 -203 -91 -260
29 -77 57 -89 214 -94 l135 -3 -32 36 c-53 61 -47 93 50 264 l82 145 -26 46
c-41 72 -104 100 -173 76z"/>
<path d="M1068 1027 c-13 -12 -59 -83 -101 -158 -89 -156 -95 -188 -48 -241
l29 -33 170 -3 c140 -3 176 0 201 13 34 17 61 61 61 97 0 32 -154 302 -186
327 -36 29 -94 28 -126 -2z"/>
</g>
</svg>
