<?xml version="1.0" standalone="no"?>
<!DOCTYPE svg PUBLIC "-//W3C//DTD SVG 20010904//EN"
 "http://www.w3.org/TR/2001/REC-SVG-20010904/DTD/svg10.dtd">
<svg version="1.0" xmlns="http://www.w3.org/2000/svg"
 width="192.000000pt" height="192.000000pt" viewBox="0 0 192.000000 192.000000"
 preserveAspectRatio="xMidYMid meet">
<metadata>
Created by potrace 1.16, written by Peter Selinger 2001-2019
</metadata>
<g transform="translate(0.000000,192.000000) scale(0.100000,-0.100000)"
fill="#000000" stroke="none">
811 c445 -92 729 -532 635 -987 -62 -301 -295 -546 -601 -630 -91 -26 -329
-26 -420 0 -291 80 -516 305 -596 596 -26 91 -26 329 0 420 120 433 542 692
982 601z"/>
<path d="M695 1321 c-49 -22 -91 -69 -106 -119 -7 -24 -9 -116 -7 -258 l3
-221 28 -42 c20 -29 44 -50 80 -67 50 -23 61 -24 262 -24 201 0 212 1 262 24
36 17 60 38 80 67 l28 42 3 221 c4 239 -1 274 -45 327 -53 62 -83 69 -328 69
-192 0 -225 -3 -260 -19z m376 -126 c17 -30 34 -55 37 -55 3 0 16 12 28 27 28
36 41 25 84 -68 45 -99 49 -140 17 -173 -14 -14 -35 -26 -47 -26 -12 0 -20 -7
-20 -18 0 -12 16 -23 50 -35 46 -16 50 -20 50 -50 0 -42 -28 -95 -63 -121 -26
-19 -45 -21 -215 -24 -238 -5 -266 0 -311 46 l-36 37 70 6 c39 4 88 13 110 22
66 25 195 89 195 96 0 13 -24 31 -41 31 -10 0 -30 11 -45 23 -23 21 -27 31
-26 74 1 76 86 263 119 263 7 0 27 -25 44 -55z"/>
</g>
</svg>
