<?xml version="1.0" standalone="no"?>
<!DOCTYPE svg PUBLIC "-//W3C//DTD SVG 20010904//EN"
 "http://www.w3.org/TR/2001/REC-SVG-20010904/DTD/svg10.dtd">
<svg version="1.0" xmlns="http://www.w3.org/2000/svg"
 width="192.000000pt" height="192.000000pt" viewBox="0 0 192.000000 192.000000"
 preserveAspectRatio="xMidYMid meet">
<metadata>
Created by potrace 1.16, written by Peter Selinger 2001-2019
</metadata>
<g transform="translate(0.000000,192.000000) scale(0.100000,-0.100000)"
fill="#000000" stroke="none">
811 c445 -92 729 -532 635 -987 -62 -301 -295 -546 -601 -630 -91 -26 -329
-26 -420 0 -291 80 -516 305 -596 596 -26 91 -26 329 0 420 120 433 542 692
982 601z"/>
<path d="M622 1330 c-60 -37 -63 -59 -60 -379 4 -384 -10 -364 271 -369 244
-5 237 -8 237 124 l0 96 -54 52 c-87 83 -86 143 4 227 l50 46 0 96 c0 74 -4
99 -16 111 -13 13 -46 16 -207 16 -175 0 -195 -2 -225 -20z m86 -487 c3 -32 2
-33 -32 -33 -35 0 -36 1 -36 36 0 34 1 35 33 32 28 -3 32 -7 35 -35z m142 2
c0 -33 -2 -35 -35 -35 -33 0 -35 2 -35 35 0 33 2 35 35 35 33 0 35 -2 35 -35z
m-100 -15 c0 -11 -4 -20 -10 -20 -5 0 -10 9 -10 20 0 11 5 20 10 20 6 0 10 -9
10 -20z m-90 -60 c0 -5 -4 -10 -10 -10 -5 0 -10 5 -10 10 0 6 5 10 10 10 6 0
10 -4 10 -10z m90 -10 c0 -24 -6 -25 -26 -6 -19 20 -18 26 6 26 13 0 20 -7 20
-20z m57 5 c8 -9 13 -19 10 -22 -6 -5 -37 21 -37 31 0 10 11 6 27 -9z m43 5
c0 -5 -4 -10 -10 -10 -5 0 -10 5 -10 10 0 6 5 10 10 10 6 0 10 -4 10 -10z
m-142 -72 c-3 -29 -7 -33 -35 -36 -32 -3 -33 -2 -33 32 0 35 1 36 36 36 34 0
35 -1 32 -32z m92 12 c0 -11 5 -20 10 -20 6 0 10 -8 10 -17 -1 -17 -1 -17 -14
0 -17 21 -56 23 -56 1 0 -8 -4 -12 -10 -9 -5 3 -10 15 -10 26 0 14 7 19 25 19
14 0 25 5 25 10 0 6 5 10 10 10 6 0 10 -9 10 -20z m50 0 c0 -11 -4 -20 -10
-20 -5 0 -10 9 -10 20 0 11 5 20 10 20 6 0 10 -9 10 -20z"/>
<path d="M660 845 c0 -8 5 -15 10 -15 6 0 10 7 10 15 0 8 -4 15 -10 15 -5 0
-10 -7 -10 -15z"/>
<path d="M806 853 c-11 -11 -6 -23 9 -23 8 0 15 4 15 9 0 13 -16 22 -24 14z"/>
<path d="M660 700 c0 -5 5 -10 10 -10 6 0 10 5 10 10 0 6 -4 10 -10 10 -5 0
-10 -4 -10 -10z"/>
<path d="M1117 1293 c-4 -3 -7 -42 -7 -85 0 -93 -7 -109 -68 -164 -39 -35 -46
-46 -46 -79 0 -33 7 -44 46 -79 61 -55 68 -71 68 -166 l0 -82 86 3 c82 4 87 5
115 37 l29 32 0 254 0 254 -26 31 c-14 17 -42 35 -62 41 -42 11 -125 13 -135
3z"/>
</g>
</svg>
