<?xml version="1.0" standalone="no"?>
<!DOCTYPE svg PUBLIC "-//W3C//DTD SVG 20010904//EN"
 "http://www.w3.org/TR/2001/REC-SVG-20010904/DTD/svg10.dtd">
<svg version="1.0" xmlns="http://www.w3.org/2000/svg"
 width="192.000000pt" height="192.000000pt" viewBox="0 0 192.000000 192.000000"
 preserveAspectRatio="xMidYMid meet">
<metadata>
Created by potrace 1.16, written by Peter Selinger 2001-2019
</metadata>
<g transform="translate(0.000000,192.000000) scale(0.100000,-0.100000)"
fill="#000000" stroke="none">
811 c445 -92 729 -532 635 -987 -62 -301 -295 -546 -601 -630 -91 -26 -329
-26 -420 0 -291 80 -516 305 -596 596 -26 91 -26 329 0 420 120 433 542 692
982 601z"/>
<path d="M906 1355 c-20 -15 -22 -57 -8 -195 6 -56 11 -66 33 -79 24 -13 29
-13 52 2 21 14 25 25 31 94 4 43 9 95 12 115 4 28 1 41 -15 57 -25 25 -77 27
-105 6z"/>
<path d="M634 1198 c-41 -20 -57 -84 -26 -110 28 -25 198 -100 218 -96 27 5
52 53 38 75 -13 20 -184 142 -199 142 -5 0 -20 -5 -31 -11z"/>
<path d="M1142 1143 c-52 -36 -96 -72 -99 -80 -9 -22 14 -62 39 -68 25 -6 216
76 230 98 25 39 -15 118 -59 117 -10 -1 -60 -31 -111 -67z"/>
<path d="M700 887 c-96 -48 -105 -55 -108 -83 -3 -34 35 -84 65 -84 17 0 151
87 194 126 11 10 19 25 19 36 0 21 -34 58 -52 58 -7 0 -60 -24 -118 -53z"/>
<path d="M1067 927 c-10 -6 -19 -25 -20 -42 -2 -26 7 -36 93 -97 52 -37 102
-68 113 -68 28 0 67 45 67 78 0 38 -16 51 -126 101 -101 46 -103 46 -127 28z"/>
<path d="M911 832 c-9 -18 -27 -203 -22 -232 7 -42 86 -55 122 -19 16 16 19
29 15 57 -3 20 -8 71 -12 112 -3 41 -11 81 -16 88 -16 19 -76 15 -87 -6z"/>
</g>
</svg>
