<?xml version="1.0" standalone="no"?>
<!DOCTYPE svg PUBLIC "-//W3C//DTD SVG 20010904//EN"
 "http://www.w3.org/TR/2001/REC-SVG-20010904/DTD/svg10.dtd">
<svg version="1.0" xmlns="http://www.w3.org/2000/svg"
 width="192.000000pt" height="192.000000pt" viewBox="0 0 192.000000 192.000000"
 preserveAspectRatio="xMidYMid meet">
<metadata>
Created by potrace 1.16, written by Peter Selinger 2001-2019
</metadata>
<g transform="translate(0.000000,192.000000) scale(0.100000,-0.100000)"
fill="#000000" stroke="none">
811 c445 -92 729 -532 635 -987 -62 -301 -295 -546 -601 -630 -91 -26 -329
-26 -420 0 -291 80 -516 305 -596 596 -26 91 -26 329 0 420 120 433 542 692
982 601z"/>
<path d="M597 1352 c-15 -17 -17 -58 -17 -385 0 -354 1 -368 20 -387 19 -19
33 -20 353 -20 285 0 336 2 355 16 22 15 22 16 22 312 0 163 -4 302 -8 309
-21 34 -135 40 -161 9 -7 -8 -12 -106 -13 -267 l-3 -254 -47 -3 -48 -3 0 145
c0 176 -5 186 -95 186 -90 0 -95 -10 -95 -184 l0 -144 -39 -4 c-22 -2 -45 -2
-50 0 -8 3 -11 110 -11 336 0 245 -3 335 -12 344 -7 7 -39 12 -73 12 -47 0
-66 -4 -78 -18z"/>
</g>
</svg>
