<?xml version="1.0" standalone="no"?>
<!DOCTYPE svg PUBLIC "-//W3C//DTD SVG 20010904//EN"
 "http://www.w3.org/TR/2001/REC-SVG-20010904/DTD/svg10.dtd">
<svg version="1.0" xmlns="http://www.w3.org/2000/svg"
 width="192.000000pt" height="192.000000pt" viewBox="0 0 192.000000 192.000000"
 preserveAspectRatio="xMidYMid meet">
<metadata>
Created by potrace 1.16, written by Peter Selinger 2001-2019
</metadata>
<g transform="translate(0.000000,192.000000) scale(0.100000,-0.100000)"
fill="#000000" stroke="none">
811 c445 -92 729 -532 635 -987 -62 -301 -295 -546 -601 -630 -91 -26 -329
-26 -420 0 -291 80 -516 305 -596 596 -26 91 -26 329 0 420 120 433 542 692
982 601z"/>
<path d="M914 1336 c-46 -32 -277 -378 -339 -508 -39 -80 -42 -105 -20 -147
41 -81 116 -49 278 117 54 56 96 93 92 84 -22 -51 -45 -138 -45 -167 0 -49 33
-85 78 -85 32 0 44 8 101 67 35 37 66 62 68 56 34 -102 192 -163 233 -90 13
24 13 30 0 54 -9 16 -31 32 -57 40 -38 13 -44 20 -54 56 -21 80 -32 99 -64
114 -28 13 -35 13 -69 -1 -38 -16 -38 -16 -32 7 36 124 37 135 22 171 -16 39
-48 53 -93 41 -15 -3 -70 -48 -122 -98 l-94 -92 53 80 c30 44 78 112 107 152
58 78 65 111 33 143 -24 24 -48 25 -76 6z"/>
</g>
</svg>
