<?xml version="1.0" standalone="no"?>
<!DOCTYPE svg PUBLIC "-//W3C//DTD SVG 20010904//EN"
 "http://www.w3.org/TR/2001/REC-SVG-20010904/DTD/svg10.dtd">
<svg version="1.0" xmlns="http://www.w3.org/2000/svg"
 width="192.000000pt" height="192.000000pt" viewBox="0 0 192.000000 192.000000"
 preserveAspectRatio="xMidYMid meet">
<metadata>
Created by potrace 1.16, written by Peter Selinger 2001-2019
</metadata>
<g transform="translate(0.000000,192.000000) scale(0.100000,-0.100000)"
fill="#000000" stroke="none">
811 c445 -92 729 -532 635 -987 -62 -301 -295 -546 -601 -630 -91 -26 -329
-26 -420 0 -291 80 -516 305 -596 596 -26 91 -26 329 0 420 120 433 542 692
982 601z"/>
<path d="M850 1364 c-242 -65 -368 -322 -274 -560 15 -38 24 -81 24 -115 0
-30 5 -60 12 -67 7 -7 37 -12 67 -12 34 0 77 -9 115 -24 254 -101 523 49 569
317 49 288 -228 537 -513 461z m180 -178 c6 -8 33 -16 58 -18 39 -3 47 -6 47
-23 0 -19 -8 -20 -169 -23 -170 -3 -201 3 -189 34 3 9 20 14 48 14 26 0 47 6
55 15 17 21 133 21 150 1z m80 -261 c0 -206 6 -198 -163 -193 -78 2 -119 7
-130 17 -15 11 -17 37 -17 171 0 86 3 160 7 163 3 4 73 7 155 7 l148 0 0 -165z"/>
</g>
</svg>
