<?xml version="1.0" standalone="no"?>
<!DOCTYPE svg PUBLIC "-//W3C//DTD SVG 20010904//EN"
 "http://www.w3.org/TR/2001/REC-SVG-20010904/DTD/svg10.dtd">
<svg version="1.0" xmlns="http://www.w3.org/2000/svg"
 width="192.000000pt" height="192.000000pt" viewBox="0 0 192.000000 192.000000"
 preserveAspectRatio="xMidYMid meet">
<metadata>
Created by potrace 1.16, written by Peter Selinger 2001-2019
</metadata>
<g transform="translate(0.000000,192.000000) scale(0.100000,-0.100000)"
fill="#000000" stroke="none">
811 c445 -92 729 -532 635 -987 -62 -301 -295 -546 -601 -630 -91 -26 -329
-26 -420 0 -291 80 -516 305 -596 596 -26 91 -26 329 0 420 120 433 542 692
982 601z"/>
<path d="M650 1318 c-67 -44 -70 -62 -70 -353 0 -291 4 -309 69 -352 32 -22
43 -23 215 -23 l181 0 143 143 143 144 -3 191 -3 192 -38 37 -37 38 -283 3
c-281 3 -283 3 -317 -20z m440 -112 c6 -8 10 -25 8 -38 -3 -23 -3 -23 -187
-26 -184 -2 -211 2 -211 34 0 7 7 20 16 28 22 23 355 24 374 2z m-200 -160 c6
-8 10 -25 8 -38 -3 -22 -8 -23 -86 -26 -84 -3 -112 6 -112 34 0 7 7 20 16 28
21 22 156 23 174 2z m350 -138 c0 -17 -211 -228 -227 -228 -10 0 -13 30 -13
120 l0 120 120 0 c88 0 120 -3 120 -12z"/>
</g>
</svg>
