<?xml version="1.0" standalone="no"?>
<!DOCTYPE svg PUBLIC "-//W3C//DTD SVG 20010904//EN"
 "http://www.w3.org/TR/2001/REC-SVG-20010904/DTD/svg10.dtd">
<svg version="1.0" xmlns="http://www.w3.org/2000/svg"
 width="192.000000pt" height="192.000000pt" viewBox="0 0 192.000000 192.000000"
 preserveAspectRatio="xMidYMid meet">
<metadata>
Created by potrace 1.16, written by Peter Selinger 2001-2019
</metadata>
<g transform="translate(0.000000,192.000000) scale(0.100000,-0.100000)"
fill="#000000" stroke="none">
811 c445 -92 729 -532 635 -987 -62 -301 -295 -546 -601 -630 -91 -26 -329
-26 -420 0 -291 80 -516 305 -596 596 -26 91 -26 329 0 420 120 433 542 692
982 601z"/>
<path d="M870 1366 c-74 -16 -160 -61 -160 -84 0 -22 540 -562 562 -562 11 0
29 24 50 67 31 64 33 73 33 178 0 99 -3 116 -27 168 -57 121 -182 216 -313
237 -72 12 -75 12 -145 -4z"/>
<path d="M631 1212 c-55 -65 -75 -134 -76 -247 0 -92 3 -105 32 -167 41 -88
113 -160 201 -201 62 -30 75 -32 172 -32 97 0 110 2 170 31 36 17 76 42 88 54
l24 23 -30 29 -29 30 -58 -33 c-78 -44 -182 -52 -266 -20 -75 29 -141 88 -176
159 -24 49 -28 69 -28 143 0 77 3 92 32 148 35 67 33 89 -7 111 -15 8 -24 4
-49 -28z"/>
<path d="M741 1137 c-47 -58 -57 -192 -20 -272 48 -102 137 -159 249 -159 50
0 78 6 115 24 27 14 51 31 53 39 5 14 -356 381 -375 381 -6 0 -16 -6 -22 -13z
m109 -106 c0 -23 -14 -41 -31 -41 -22 0 -27 35 -6 43 20 9 37 8 37 -2z m90
-90 c0 -23 -14 -41 -31 -41 -22 0 -27 35 -6 43 20 9 37 8 37 -2z m-110 -31 c0
-25 -27 -37 -43 -21 -9 10 -8 16 7 27 27 19 36 18 36 -6z m200 -59 c0 -23 -14
-41 -31 -41 -22 0 -27 35 -6 43 20 9 37 8 37 -2z m-110 -19 c0 -5 -6 -17 -14
-28 -11 -15 -17 -16 -27 -7 -16 16 -4 43 21 43 11 0 20 -4 20 -8z"/>
</g>
</svg>
