<?xml version="1.0" standalone="no"?>
<!DOCTYPE svg PUBLIC "-//W3C//DTD SVG 20010904//EN"
 "http://www.w3.org/TR/2001/REC-SVG-20010904/DTD/svg10.dtd">
<svg version="1.0" xmlns="http://www.w3.org/2000/svg"
 width="192.000000pt" height="192.000000pt" viewBox="0 0 192.000000 192.000000"
 preserveAspectRatio="xMidYMid meet">
<metadata>
Created by potrace 1.16, written by Peter Selinger 2001-2019
</metadata>
<g transform="translate(0.000000,192.000000) scale(0.100000,-0.100000)"
fill="#000000" stroke="none">
811 c445 -92 729 -532 635 -987 -62 -301 -295 -546 -601 -630 -91 -26 -329
-26 -420 0 -291 80 -516 305 -596 596 -26 91 -26 329 0 420 120 433 542 692
982 601z"/>
<path d="M942 1233 c-37 -18 -108 -94 -158 -168 l-34 -50 0 73 c0 85 -10 109
-53 127 -65 27 -124 -12 -148 -98 -19 -65 -15 -261 5 -332 33 -112 100 -169
174 -147 53 16 72 40 135 166 l54 110 7 -59 c11 -95 54 -145 126 -145 45 0 84
42 146 158 31 59 83 148 115 198 33 50 59 100 59 112 0 30 -43 56 -77 47 -38
-9 -114 -67 -161 -122 l-39 -47 0 55 c0 114 -64 165 -151 122z"/>
</g>
</svg>
