<?xml version="1.0" standalone="no"?>
<!DOCTYPE svg PUBLIC "-//W3C//DTD SVG 20010904//EN"
 "http://www.w3.org/TR/2001/REC-SVG-20010904/DTD/svg10.dtd">
<svg version="1.0" xmlns="http://www.w3.org/2000/svg"
 width="192.000000pt" height="192.000000pt" viewBox="0 0 192.000000 192.000000"
 preserveAspectRatio="xMidYMid meet">
<metadata>
Created by potrace 1.16, written by Peter Selinger 2001-2019
</metadata>
<g transform="translate(0.000000,192.000000) scale(0.100000,-0.100000)"
fill="#000000" stroke="none">
811 c445 -92 729 -532 635 -987 -62 -301 -295 -546 -601 -630 -91 -26 -329
-26 -420 0 -291 80 -516 305 -596 596 -26 91 -26 329 0 420 120 433 542 692
982 601z"/>
<path d="M907 1329 c-23 -14 -55 -78 -67 -136 -5 -26 -21 -138 -35 -247 -14
-110 -28 -202 -30 -205 -11 -10 -16 11 -39 150 -27 157 -32 175 -54 202 -15
17 -58 23 -78 9 -19 -13 -84 -105 -84 -118 0 -27 40 -56 69 -51 l28 6 17 -97
c23 -134 35 -167 71 -209 26 -31 39 -37 70 -37 72 0 104 69 130 279 32 258 38
295 45 295 8 0 13 -30 50 -296 31 -217 60 -278 135 -278 67 0 104 61 130 214
25 146 25 144 38 131 17 -17 45 -13 67 9 29 29 26 41 -27 104 -42 52 -49 57
-82 54 -51 -4 -65 -38 -91 -208 -12 -79 -25 -151 -29 -159 -10 -16 -20 40 -51
269 -26 191 -45 262 -80 301 -29 30 -69 38 -103 18z"/>
</g>
</svg>
