<?xml version="1.0" standalone="no"?>
<!DOCTYPE svg PUBLIC "-//W3C//DTD SVG 20010904//EN"
 "http://www.w3.org/TR/2001/REC-SVG-20010904/DTD/svg10.dtd">
<svg version="1.0" xmlns="http://www.w3.org/2000/svg"
 width="192.000000pt" height="192.000000pt" viewBox="0 0 192.000000 192.000000"
 preserveAspectRatio="xMidYMid meet">
<metadata>
Created by potrace 1.16, written by Peter Selinger 2001-2019
</metadata>
<g transform="translate(0.000000,192.000000) scale(0.100000,-0.100000)"
fill="#000000" stroke="none">
811 c445 -92 729 -532 635 -987 -62 -301 -295 -546 -601 -630 -91 -26 -329
-26 -420 0 -291 80 -516 305 -596 596 -26 91 -26 329 0 420 120 433 542 692
982 601z"/>
<path d="M706 1336 c-21 -8 -51 -27 -67 -42 -47 -45 -59 -82 -59 -187 l0 -95
79 34 c128 55 170 46 238 -53 63 -92 116 -106 181 -45 l41 37 -19 40 c-27 54
-46 64 -138 72 -101 8 -123 19 -236 121 -64 57 -46 62 228 62 214 0 233 -2
264 -20 51 -32 62 -70 62 -225 l0 -136 -43 26 c-63 36 -95 33 -150 -15 -78
-69 -130 -53 -207 61 -22 32 -49 63 -60 69 -33 18 -90 11 -163 -21 -77 -33
-99 -49 -81 -56 6 -2 39 -24 73 -49 l61 -46 94 7 95 7 45 -48 c25 -27 68 -73
96 -103 l50 -54 52 9 c29 4 81 8 116 8 l63 1 10 35 c6 21 9 125 7 262 l-3 226
-30 43 c-55 78 -78 84 -335 86 -173 2 -234 -1 -264 -11z"/>
<path d="M574 915 c-11 -28 4 -191 19 -222 21 -39 65 -79 109 -97 30 -13 80
-16 250 -16 230 0 267 7 313 59 16 19 17 24 5 32 -14 9 -34 8 -145 -7 -58 -8
-88 11 -153 97 -63 83 -93 97 -172 81 -68 -14 -92 -8 -153 42 -59 47 -66 50
-73 31z"/>
</g>
</svg>
