<?xml version="1.0" standalone="no"?>
<!DOCTYPE svg PUBLIC "-//W3C//DTD SVG 20010904//EN"
 "http://www.w3.org/TR/2001/REC-SVG-20010904/DTD/svg10.dtd">
<svg version="1.0" xmlns="http://www.w3.org/2000/svg"
 width="192.000000pt" height="192.000000pt" viewBox="0 0 192.000000 192.000000"
 preserveAspectRatio="xMidYMid meet">
<metadata>
Created by potrace 1.16, written by Peter Selinger 2001-2019
</metadata>
<g transform="translate(0.000000,192.000000) scale(0.100000,-0.100000)"
fill="#000000" stroke="none">
811 c445 -92 729 -532 635 -987 -62 -301 -295 -546 -601 -630 -91 -26 -329
-26 -420 0 -291 80 -516 305 -596 596 -26 91 -26 329 0 420 120 433 542 692
982 601z"/>
<path d="M861 1365 c-240 -53 -380 -313 -292 -545 l20 -53 -20 -28 c-46 -66
-25 -145 48 -175 40 -17 73 -12 115 17 l28 20 57 -21 c76 -28 188 -29 273 0
56 19 64 20 79 6 50 -45 131 -40 171 11 29 37 27 104 -4 139 l-23 28 18 42
c11 23 22 68 27 100 29 223 -114 423 -333 463 -72 13 -83 13 -164 -4z m-46
-197 c73 -33 24 -149 -53 -122 -49 17 -56 99 -10 122 30 14 33 14 63 0z m349
-9 c48 -37 21 -119 -40 -119 -61 0 -92 83 -45 122 30 23 52 23 85 -3z m-364
-258 c53 -105 185 -132 270 -55 21 19 43 48 50 64 14 34 49 41 71 14 11 -13 9
-23 -11 -61 -85 -160 -292 -187 -412 -55 -48 53 -61 79 -54 108 5 19 13 24 36
24 24 0 33 -7 50 -39z"/>
</g>
</svg>
