<?xml version="1.0" standalone="no"?>
<!DOCTYPE svg PUBLIC "-//W3C//DTD SVG 20010904//EN"
 "http://www.w3.org/TR/2001/REC-SVG-20010904/DTD/svg10.dtd">
<svg version="1.0" xmlns="http://www.w3.org/2000/svg"
 width="192.000000pt" height="192.000000pt" viewBox="0 0 192.000000 192.000000"
 preserveAspectRatio="xMidYMid meet">
<metadata>
Created by potrace 1.16, written by Peter Selinger 2001-2019
</metadata>
<g transform="translate(0.000000,192.000000) scale(0.100000,-0.100000)"
fill="#000000" stroke="none">
811 c445 -92 729 -532 635 -987 -62 -301 -295 -546 -601 -630 -91 -26 -329
-26 -420 0 -291 80 -516 305 -596 596 -26 91 -26 329 0 420 120 433 542 692
982 601z"/>
<path d="M908 1284 c-140 -233 -304 -521 -301 -526 2 -5 31 -8 64 -8 l60 0
205 156 c112 86 204 159 203 163 0 3 -37 60 -82 126 -95 138 -113 149 -149 89z"/>
<path d="M555 1154 c-10 -11 -14 -26 -10 -47 2 -18 10 -93 16 -167 6 -74 14
-139 19 -143 4 -5 34 35 65 90 32 54 66 113 77 131 11 18 17 39 15 47 -7 16
-136 105 -154 105 -6 0 -19 -7 -28 -16z"/>
<path d="M1060 965 c-140 -108 -257 -200 -258 -206 -3 -6 94 -8 265 -7 l268 3
16 180 c14 154 14 183 2 203 -7 12 -19 22 -26 22 -7 0 -127 -88 -267 -195z"/>
<path d="M587 702 c-21 -23 -21 -41 -1 -70 l15 -22 349 0 c304 0 351 2 364 16
19 18 21 65 4 82 -9 9 -103 12 -363 12 -328 0 -353 -1 -368 -18z"/>
</g>
</svg>
