<?xml version="1.0" standalone="no"?>
<!DOCTYPE svg PUBLIC "-//W3C//DTD SVG 20010904//EN"
 "http://www.w3.org/TR/2001/REC-SVG-20010904/DTD/svg10.dtd">
<svg version="1.0" xmlns="http://www.w3.org/2000/svg"
 width="192.000000pt" height="192.000000pt" viewBox="0 0 192.000000 192.000000"
 preserveAspectRatio="xMidYMid meet">
<metadata>
Created by potrace 1.16, written by Peter Selinger 2001-2019
</metadata>
<g transform="translate(0.000000,192.000000) scale(0.100000,-0.100000)"
fill="#000000" stroke="none">
811 c445 -92 729 -532 635 -987 -62 -301 -295 -546 -601 -630 -91 -26 -329
-26 -420 0 -291 80 -516 305 -596 596 -26 91 -26 329 0 420 120 433 542 692
982 601z"/>
<path d="M785 1336 c-18 -13 -17 -18 16 -122 34 -106 35 -109 66 -112 37 -4
45 7 63 90 7 32 16 55 21 53 4 -3 13 -29 19 -57 19 -79 26 -90 63 -86 30 3 32
6 66 110 32 97 34 110 20 123 -25 26 -47 7 -64 -53 -28 -100 -29 -100 -49 -23
-12 46 -25 75 -37 82 -33 17 -54 -5 -68 -68 -20 -91 -26 -92 -47 -13 -20 77
-39 98 -69 76z"/>
<path d="M1171 1324 c-53 -44 -60 -123 -16 -190 20 -31 86 -49 128 -35 36 13
67 39 67 56 0 21 -32 27 -51 9 -24 -22 -80 -20 -96 2 -27 36 -16 43 70 46 77
3 82 4 85 26 13 92 -112 149 -187 86z m110 -34 c10 -6 19 -17 19 -25 0 -11
-13 -15 -55 -15 -59 0 -64 4 -38 32 18 20 45 23 74 8z"/>
<path d="M1157 1054 c-4 -4 -7 -16 -7 -26 0 -14 6 -19 23 -16 14 2 22 10 22
23 0 20 -25 32 -38 19z"/>
<path d="M1262 1048 c-7 -7 -12 -20 -12 -29 0 -9 -7 -19 -15 -23 -8 -3 -15
-12 -15 -21 0 -8 7 -15 15 -15 12 0 15 -15 15 -74 0 -83 9 -97 62 -99 39 -2
54 31 19 40 -19 5 -21 13 -21 69 0 57 2 64 20 64 11 0 20 6 20 14 0 8 -9 18
-20 21 -11 3 -20 14 -20 24 0 16 -18 41 -30 41 -3 0 -11 -5 -18 -12z"/>
<path d="M613 1000 c-43 -26 -63 -68 -63 -132 1 -70 28 -127 90 -188 69 -68
131 -102 180 -102 71 1 191 98 241 194 44 83 23 187 -44 228 -53 33 -111 23
-189 -32 -14 -10 -21 -8 -40 9 -49 46 -122 56 -175 23z"/>
<path d="M1161 991 c-14 -9 -27 -137 -17 -175 5 -19 13 -26 31 -26 25 0 25 0
25 99 0 100 -8 121 -39 102z"/>
</g>
</svg>
