<?xml version="1.0" standalone="no"?>
<!DOCTYPE svg PUBLIC "-//W3C//DTD SVG 20010904//EN"
 "http://www.w3.org/TR/2001/REC-SVG-20010904/DTD/svg10.dtd">
<svg version="1.0" xmlns="http://www.w3.org/2000/svg"
 width="192.000000pt" height="192.000000pt" viewBox="0 0 192.000000 192.000000"
 preserveAspectRatio="xMidYMid meet">
<metadata>
Created by potrace 1.16, written by Peter Selinger 2001-2019
</metadata>
<g transform="translate(0.000000,192.000000) scale(0.100000,-0.100000)"
fill="#000000" stroke="none">
811 c445 -92 729 -532 635 -987 -62 -301 -295 -546 -601 -630 -91 -26 -329
-26 -420 0 -291 80 -516 305 -596 596 -26 91 -26 329 0 420 120 433 542 692
982 601z"/>
<path d="M835 1357 c-64 -22 -105 -46 -157 -94 -55 -52 -63 -87 -24 -105 22
-10 30 -6 73 32 73 65 140 92 228 92 121 0 223 -61 276 -164 33 -65 40 -96 22
-102 -29 -12 -43 -6 -49 22 -15 68 -37 122 -49 122 -12 0 -13 -16 -8 -81 l6
-80 -39 3 c-39 3 -39 3 -45 54 -9 71 -28 124 -45 124 -12 0 -13 -14 -8 -80 5
-52 3 -80 -3 -80 -6 0 -29 7 -52 15 -37 13 -43 13 -48 0 -8 -22 11 -40 57 -55
45 -15 44 -12 30 -62 -13 -47 -20 -51 -60 -37 -26 9 -34 9 -41 -2 -14 -23 -11
-29 21 -40 17 -6 30 -15 30 -20 0 -5 -18 -27 -40 -49 -41 -41 -50 -60 -27 -60
16 0 84 48 111 79 16 17 26 20 55 15 20 -4 38 -8 40 -11 3 -2 -15 -23 -38 -47
-24 -24 -40 -49 -37 -55 10 -16 42 2 101 59 54 52 127 81 106 42 -20 -37 -111
-110 -158 -126 -60 -20 -156 -20 -216 0 -26 9 -68 35 -94 58 -57 50 -78 60
-104 46 -54 -29 11 -117 129 -172 247 -118 536 33 584 304 30 170 -75 360
-239 436 -48 21 -75 27 -153 29 -59 2 -110 -2 -135 -10z m435 -419 c0 -47 -11
-66 -42 -72 -17 -3 -32 -5 -34 -3 -7 7 16 81 28 88 25 16 48 10 48 -13z m-126
-15 c-17 -68 -21 -73 -65 -73 -35 0 -40 3 -34 18 4 9 11 32 17 50 8 29 12 32
49 32 38 0 39 -1 33 -27z"/>
<path d="M697 1113 c-4 -3 -7 -17 -7 -30 0 -28 -26 -31 -35 -3 -3 11 -13 20
-21 20 -17 0 -17 -5 -3 -31 6 -12 8 -27 5 -35 -5 -13 -9 -13 -35 1 -38 19 -51
2 -16 -21 37 -24 32 -44 -10 -44 -19 0 -35 -4 -35 -10 0 -5 15 -10 33 -10 47
0 52 -10 20 -36 -31 -25 -26 -42 7 -24 12 6 28 9 36 6 13 -5 13 -9 0 -28 -20
-27 -20 -38 -3 -38 8 0 19 12 26 27 13 29 27 22 33 -16 5 -37 28 -39 28 -2 0
41 14 46 38 14 24 -33 41 -24 22 12 -17 32 -10 39 24 24 34 -16 48 -1 19 18
-33 22 -29 43 7 43 17 0 30 5 30 10 0 6 -11 10 -25 10 -26 0 -48 31 -28 37 22
8 48 32 41 39 -5 4 -20 2 -34 -5 -34 -15 -51 -1 -33 27 18 29 0 42 -18 15 -22
-33 -43 -29 -43 7 0 29 -9 38 -23 23z"/>
</g>
</svg>
