<?xml version="1.0" standalone="no"?>
<!DOCTYPE svg PUBLIC "-//W3C//DTD SVG 20010904//EN"
 "http://www.w3.org/TR/2001/REC-SVG-20010904/DTD/svg10.dtd">
<svg version="1.0" xmlns="http://www.w3.org/2000/svg"
 width="192.000000pt" height="192.000000pt" viewBox="0 0 192.000000 192.000000"
 preserveAspectRatio="xMidYMid meet">
<metadata>
Created by potrace 1.16, written by Peter Selinger 2001-2019
</metadata>
<g transform="translate(0.000000,192.000000) scale(0.100000,-0.100000)"
fill="#000000" stroke="none">
811 c445 -92 729 -532 635 -987 -62 -301 -295 -546 -601 -630 -91 -26 -329
-26 -420 0 -291 80 -516 305 -596 596 -26 91 -26 329 0 420 120 433 542 692
982 601z"/>
<path d="M735 1337 c-100 -48 -152 -139 -142 -253 4 -53 1 -75 -16 -112 -30
-69 -28 -162 5 -232 32 -70 78 -116 148 -149 54 -26 58 -26 284 -26 176 0 230
3 234 13 2 7 -12 19 -32 27 -20 9 -36 17 -36 19 0 2 20 16 44 30 148 87 177
301 59 437 -17 18 -33 51 -37 72 -15 79 -128 159 -204 144 -17 -3 -39 4 -66
22 -58 38 -170 42 -241 8z m185 -287 c0 -5 -4 -10 -10 -10 -5 0 -10 5 -10 10
0 6 5 10 10 10 6 0 10 -4 10 -10z m100 0 c0 -5 -4 -10 -10 -10 -5 0 -10 5 -10
10 0 6 5 10 10 10 6 0 10 -4 10 -10z m-8 -50 c25 -26 29 -36 24 -63 -8 -40
-39 -67 -79 -67 -70 0 -103 85 -52 135 33 34 70 32 107 -5z m-256 -35 c8 -31
22 -33 26 -3 5 34 24 32 35 -4 l11 -33 7 33 c4 17 13 32 21 32 11 0 10 -9 -1
-47 -8 -27 -15 -49 -15 -50 0 -2 -5 -3 -10 -3 -6 0 -15 12 -21 28 l-11 27 -10
-27 c-5 -16 -15 -28 -23 -28 -7 0 -15 12 -19 28 -3 15 -8 37 -12 50 -4 13 -2
22 5 22 6 0 13 -11 17 -25z m322 -7 l8 -33 12 33 c6 17 15 32 21 32 5 0 13
-15 17 -32 l7 -33 10 33 c6 17 16 32 24 32 8 0 12 -3 10 -7 -3 -5 -10 -27 -16
-50 -13 -49 -35 -56 -46 -15 l-8 27 -10 -27 c-16 -41 -33 -34 -46 16 -13 54
-13 56 -1 56 5 0 13 -15 18 -32z"/>
<path d="M918 965 c-10 -22 -9 -29 10 -47 18 -19 25 -20 47 -10 16 8 25 20 25
35 0 50 -62 66 -82 22z"/>
</g>
</svg>
