<?xml version="1.0" standalone="no"?>
<!DOCTYPE svg PUBLIC "-//W3C//DTD SVG 20010904//EN"
 "http://www.w3.org/TR/2001/REC-SVG-20010904/DTD/svg10.dtd">
<svg version="1.0" xmlns="http://www.w3.org/2000/svg"
 width="192.000000pt" height="192.000000pt" viewBox="0 0 192.000000 192.000000"
 preserveAspectRatio="xMidYMid meet">
<metadata>
Created by potrace 1.16, written by Peter Selinger 2001-2019
</metadata>
<g transform="translate(0.000000,192.000000) scale(0.100000,-0.100000)"
fill="#000000" stroke="none">
811 c445 -92 729 -532 635 -987 -62 -301 -295 -546 -601 -630 -91 -26 -329
-26 -420 0 -291 80 -516 305 -596 596 -26 91 -26 329 0 420 120 433 542 692
982 601z"/>
<path d="M695 1321 c-88 -40 -115 -99 -115 -244 l0 -104 54 -6 c157 -16 296
-159 321 -331 l8 -48 111 4 c132 5 180 24 223 90 27 40 28 45 31 210 2 92 2
168 0 168 -2 0 -21 -9 -43 -20 -22 -11 -55 -20 -75 -20 -44 0 -118 36 -143 71
-45 62 -38 163 15 218 l30 31 -188 0 c-162 0 -195 -3 -229 -19z m63 -129 c4
-28 -24 -40 -45 -19 -14 13 -14 19 -3 32 18 22 44 15 48 -13z m90 0 c4 -28
-24 -40 -45 -19 -14 13 -14 19 -3 32 18 22 44 15 48 -13z m90 0 c4 -28 -24
-40 -45 -19 -14 13 -14 19 -3 32 18 22 44 15 48 -13z"/>
<path d="M1171 1256 c-7 -9 -11 -38 -9 -73 3 -51 6 -58 25 -61 12 -2 43 9 68
24 61 35 58 59 -10 96 -59 32 -59 32 -74 14z"/>
<path d="M580 871 c0 -27 3 -31 28 -31 15 0 52 -12 81 -26 65 -33 116 -98 132
-172 11 -49 15 -53 38 -50 24 3 26 6 23 43 -11 123 -130 244 -257 262 l-45 6
0 -32z"/>
<path d="M580 761 c0 -4 5 -22 11 -40 8 -23 17 -31 35 -31 24 0 60 -42 50 -58
-6 -11 36 -32 64 -32 16 0 17 4 10 30 -16 55 -50 98 -94 119 -44 22 -76 27
-76 12z"/>
</g>
</svg>
