<?xml version="1.0" standalone="no"?>
<!DOCTYPE svg PUBLIC "-//W3C//DTD SVG 20010904//EN"
 "http://www.w3.org/TR/2001/REC-SVG-20010904/DTD/svg10.dtd">
<svg version="1.0" xmlns="http://www.w3.org/2000/svg"
 width="192.000000pt" height="192.000000pt" viewBox="0 0 192.000000 192.000000"
 preserveAspectRatio="xMidYMid meet">
<metadata>
Created by potrace 1.16, written by Peter Selinger 2001-2019
</metadata>
<g transform="translate(0.000000,192.000000) scale(0.100000,-0.100000)"
fill="#000000" stroke="none">
811 c445 -92 729 -532 635 -987 -62 -301 -295 -546 -601 -630 -91 -26 -329
-26 -420 0 -291 80 -516 305 -596 596 -26 91 -26 329 0 420 120 433 542 692
982 601z"/>
<path d="M552 1198 c-8 -8 -12 -46 -12 -110 0 -93 2 -101 25 -124 23 -23 32
-25 78 -20 65 7 62 7 119 0 43 -5 50 -3 78 24 29 30 30 33 30 125 0 100 -9
122 -47 115 -16 -3 -18 -16 -21 -95 -3 -98 -17 -128 -47 -103 -11 9 -15 34
-15 94 0 92 -7 109 -41 104 -23 -3 -24 -7 -27 -95 -3 -98 -17 -128 -47 -103
-10 8 -15 38 -17 103 -3 83 -5 92 -23 95 -11 1 -26 -3 -33 -10z"/>
<path d="M926 1194 c-3 -9 -6 -62 -6 -119 0 -57 3 -110 6 -119 9 -23 162 -23
170 -1 10 25 -16 45 -57 45 -35 0 -39 3 -39 25 0 22 4 25 39 25 27 0 41 5 45
16 10 25 -12 44 -50 44 -27 0 -34 4 -34 20 0 17 7 20 39 20 41 0 67 20 57 45
-8 22 -161 22 -170 -1z"/>
<path d="M1157 1203 c-9 -8 -9 -226 -1 -247 5 -13 22 -16 86 -16 70 0 82 3
103 25 28 27 33 71 11 100 -10 14 -11 25 -4 38 13 26 0 74 -25 92 -22 15 -157
22 -170 8z m123 -73 c0 -16 -7 -20 -30 -20 -23 0 -30 4 -30 20 0 16 7 20 30
20 23 0 30 -4 30 -20z m15 -110 c0 -10 -12 -16 -37 -18 -33 -3 -38 0 -38 18 0
18 5 21 38 18 25 -2 37 -8 37 -18z"/>
<path d="M549 898 c-5 -45 5 -164 15 -170 13 -9 68 -10 90 -2 9 3 16 17 16 30
0 19 -5 24 -25 24 -14 0 -25 -4 -25 -10 0 -5 -4 -10 -10 -10 -5 0 -10 25 -10
55 0 30 5 55 10 55 6 0 10 -4 10 -10 0 -5 11 -10 25 -10 20 0 25 5 25 24 0 28
-16 36 -76 36 -28 0 -45 -5 -45 -12z"/>
<path d="M693 898 c-10 -18 -4 -150 9 -165 13 -16 100 -17 116 -1 7 7 12 41
12 85 0 61 -3 74 -19 83 -27 14 -108 13 -118 -2z m87 -83 c0 -48 -2 -55 -20
-55 -18 0 -20 7 -20 55 0 48 2 55 20 55 18 0 20 -7 20 -55z"/>
<path d="M848 898 c-2 -7 -2 -50 0 -95 4 -80 5 -83 28 -83 16 0 24 6 24 18 0
12 8 17 30 17 22 0 30 -5 30 -17 0 -12 8 -18 25 -18 25 0 25 0 25 96 l0 95
-27 -3 c-21 -2 -29 -10 -37 -35 -5 -18 -12 -33 -16 -33 -4 0 -11 15 -16 33 -7
24 -16 33 -36 35 -14 2 -27 -3 -30 -10z"/>
<path d="M1028 884 c-2 -9 -2 -50 0 -91 4 -74 4 -74 30 -71 27 3 27 4 30 91
l3 87 -30 0 c-19 0 -31 -6 -33 -16z"/>
<path d="M1100 827 c0 -95 10 -109 75 -105 43 3 50 6 53 26 3 18 -1 22 -22 22
-14 0 -26 -4 -26 -10 0 -5 -4 -10 -10 -10 -6 0 -10 27 -10 60 0 33 4 60 10 60
6 0 10 -7 10 -15 0 -9 10 -15 26 -15 22 0 25 4 22 28 -3 26 -6 27 -65 30 l-63
3 0 -74z"/>
<path d="M1246 892 c-3 -5 -3 -25 1 -45 5 -30 11 -38 39 -47 23 -8 34 -18 34
-31 0 -10 -4 -19 -10 -19 -5 0 -10 5 -10 10 0 6 -12 10 -26 10 -21 0 -25 -4
-22 -22 3 -21 9 -23 58 -23 l55 0 3 43 c3 40 1 43 -32 57 -33 14 -50 45 -26
45 6 0 10 -4 10 -10 0 -5 12 -10 26 -10 21 0 25 4 22 23 -3 19 -10 22 -60 25
-31 2 -59 -1 -62 -6z"/>
</g>
</svg>
