<?xml version="1.0" standalone="no"?>
<!DOCTYPE svg PUBLIC "-//W3C//DTD SVG 20010904//EN"
 "http://www.w3.org/TR/2001/REC-SVG-20010904/DTD/svg10.dtd">
<svg version="1.0" xmlns="http://www.w3.org/2000/svg"
 width="192.000000pt" height="192.000000pt" viewBox="0 0 192.000000 192.000000"
 preserveAspectRatio="xMidYMid meet">
<metadata>
Created by potrace 1.16, written by Peter Selinger 2001-2019
</metadata>
<g transform="translate(0.000000,192.000000) scale(0.100000,-0.100000)"
fill="#000000" stroke="none">
811 c445 -92 729 -532 635 -987 -62 -301 -295 -546 -601 -630 -91 -26 -329
-26 -420 0 -291 80 -516 305 -596 596 -26 91 -26 329 0 420 120 433 542 692
982 601z"/>
<path d="M853 1365 c-80 -22 -131 -52 -190 -111 -200 -200 -141 -536 116 -658
61 -29 74 -31 176 -31 104 0 114 2 176 32 80 40 159 120 197 200 24 52 27 69
27 168 0 102 -2 115 -31 176 -85 179 -285 274 -471 224z m332 -201 c71 -77 93
-218 48 -315 -66 -145 -245 -215 -388 -150 -100 45 -133 104 -76 139 27 16 28
19 16 42 -55 102 4 237 117 269 52 15 97 8 146 -20 42 -24 42 -24 42 9 0 56
54 71 95 26z"/>
<path d="M1082 1043 c-23 -108 -97 -176 -216 -198 l-61 -11 48 -28 c177 -104
369 91 260 264 l-19 30 -12 -57z"/>
</g>
</svg>
