<?xml version="1.0" standalone="no"?>
<!DOCTYPE svg PUBLIC "-//W3C//DTD SVG 20010904//EN"
 "http://www.w3.org/TR/2001/REC-SVG-20010904/DTD/svg10.dtd">
<svg version="1.0" xmlns="http://www.w3.org/2000/svg"
 width="192.000000pt" height="192.000000pt" viewBox="0 0 192.000000 192.000000"
 preserveAspectRatio="xMidYMid meet">
<metadata>
Created by potrace 1.16, written by Peter Selinger 2001-2019
</metadata>
<g transform="translate(0.000000,192.000000) scale(0.100000,-0.100000)"
fill="#000000" stroke="none">
811 c445 -92 729 -532 635 -987 -62 -301 -295 -546 -601 -630 -91 -26 -329
-26 -420 0 -291 80 -516 305 -596 596 -26 91 -26 329 0 420 120 433 542 692
982 601z"/>
<path d="M557 1284 c-4 -4 -7 -145 -7 -314 0 -312 2 -330 38 -330 7 0 95 34
194 76 l180 76 173 -76 c96 -42 180 -76 187 -76 36 0 38 19 38 331 0 209 -3
310 -11 314 -18 12 -97 -25 -124 -56 -25 -30 -25 -33 -25 -205 0 -96 -2 -174
-5 -174 -3 0 -28 11 -55 25 -47 24 -50 27 -43 53 32 114 -36 217 -142 217
-106 0 -167 -94 -142 -216 7 -36 7 -36 -43 -57 -27 -11 -51 -18 -53 -14 -2 4
-5 81 -6 172 -1 143 -4 168 -20 190 -30 41 -116 82 -134 64z m413 -305 c0 -52
-24 -48 -28 4 -2 28 1 37 12 37 12 0 16 -11 16 -41z"/>
</g>
</svg>
