<?xml version="1.0" standalone="no"?>
<!DOCTYPE svg PUBLIC "-//W3C//DTD SVG 20010904//EN"
 "http://www.w3.org/TR/2001/REC-SVG-20010904/DTD/svg10.dtd">
<svg version="1.0" xmlns="http://www.w3.org/2000/svg"
 width="192.000000pt" height="192.000000pt" viewBox="0 0 192.000000 192.000000"
 preserveAspectRatio="xMidYMid meet">
<metadata>
Created by potrace 1.16, written by Peter Selinger 2001-2019
</metadata>
<g transform="translate(0.000000,192.000000) scale(0.100000,-0.100000)"
fill="#000000" stroke="none">
811 c445 -92 729 -532 635 -987 -62 -301 -295 -546 -601 -630 -91 -26 -329
-26 -420 0 -291 80 -516 305 -596 596 -26 91 -26 329 0 420 120 433 542 692
982 601z"/>
<path d="M1103 1213 l-33 -4 0 -115 0 -114 80 0 c67 0 83 3 100 20 21 21 27
69 10 86 -8 8 -8 19 0 38 14 38 13 44 -15 71 -24 25 -53 29 -142 18z m82 -68
c0 -5 -10 -11 -22 -13 -16 -2 -23 2 -23 13 0 11 7 15 23 13 12 -2 22 -7 22
-13z m5 -95 c0 -5 -11 -10 -25 -10 -14 0 -25 5 -25 10 0 6 11 10 25 10 14 0
25 -4 25 -10z"/>
<path d="M943 1203 l-43 -4 0 -110 0 -109 80 0 80 0 0 30 c0 29 -2 30 -44 30
-58 0 -69 18 -14 22 40 3 43 5 43 33 0 28 -3 30 -45 36 -33 4 -37 6 -15 8 60
3 75 11 75 42 0 32 -3 32 -117 22z"/>
<path d="M830 1178 c-5 -13 -13 -36 -18 -53 l-9 -30 -9 45 c-9 41 -12 45 -39
45 -26 0 -31 -5 -39 -37 -10 -40 -26 -51 -26 -19 0 37 -12 51 -41 51 -16 0
-29 -3 -29 -6 0 -4 9 -46 21 -95 l21 -89 33 0 c29 0 34 4 40 30 9 43 22 45 29
4 7 -33 9 -35 43 -32 l36 3 23 85 c30 110 30 120 -1 120 -17 0 -28 -8 -35 -22z"/>
<path d="M540 926 c0 -32 3 -35 33 -38 l32 -3 3 -87 3 -88 34 0 35 0 0 85 0
85 29 0 c23 0 30 5 34 28 9 45 -6 52 -109 52 l-94 0 0 -34z"/>
<path d="M779 922 c-26 -23 -33 -38 -37 -80 -4 -49 -2 -54 31 -87 30 -30 42
-35 81 -35 36 0 52 6 78 29 30 27 33 35 33 86 0 51 -3 59 -33 86 -45 40 -108
41 -153 1z m109 -54 c30 -30 3 -83 -39 -76 -45 6 -42 88 4 88 13 0 28 -5 35
-12z"/>
<path d="M1028 934 c-36 -19 -48 -43 -48 -94 0 -73 53 -119 123 -106 37 7 60
27 76 66 9 23 10 23 10 -12 1 -43 6 -48 44 -41 23 5 27 10 27 41 l0 37 26 -38
c20 -31 31 -38 52 -35 27 3 27 3 30 96 l3 92 -30 0 c-28 0 -30 -3 -33 -42 l-3
-43 -24 43 c-21 36 -29 42 -58 42 -32 0 -33 -1 -33 -42 l-1 -43 -14 32 c-24
55 -92 77 -147 47z m90 -89 c4 -35 -21 -59 -48 -45 -43 23 -29 84 18 78 22 -2
28 -9 30 -33z"/>
</g>
</svg>
