<?xml version="1.0" standalone="no"?>
<!DOCTYPE svg PUBLIC "-//W3C//DTD SVG 20010904//EN"
 "http://www.w3.org/TR/2001/REC-SVG-20010904/DTD/svg10.dtd">
<svg version="1.0" xmlns="http://www.w3.org/2000/svg"
 width="192.000000pt" height="192.000000pt" viewBox="0 0 192.000000 192.000000"
 preserveAspectRatio="xMidYMid meet">
<metadata>
Created by potrace 1.16, written by Peter Selinger 2001-2019
</metadata>
<g transform="translate(0.000000,192.000000) scale(0.100000,-0.100000)"
fill="#000000" stroke="none">
811 c445 -92 729 -532 635 -987 -62 -301 -295 -546 -601 -630 -91 -26 -329
-26 -420 0 -291 80 -516 305 -596 596 -26 91 -26 329 0 420 120 433 542 692
982 601z"/>
<path d="M850 1366 c-78 -21 -123 -48 -185 -111 -85 -84 -124 -176 -125 -290
0 -247 233 -448 473 -406 180 30 315 163 348 343 37 202 -99 409 -306 464 -61
17 -145 17 -205 0z m-74 -527 c54 -27 81 -33 148 -37 138 -7 245 36 337 135
l42 45 -5 -53 c-9 -115 -89 -226 -198 -278 -47 -22 -68 -26 -150 -26 -115 1
-167 22 -246 100 -55 54 -86 121 -99 210 l-7 50 56 -57 c34 -34 81 -69 122
-89z"/>
</g>
</svg>
