<?xml version="1.0" standalone="no"?>
<!DOCTYPE svg PUBLIC "-//W3C//DTD SVG 20010904//EN"
 "http://www.w3.org/TR/2001/REC-SVG-20010904/DTD/svg10.dtd">
<svg version="1.0" xmlns="http://www.w3.org/2000/svg"
 width="192.000000pt" height="192.000000pt" viewBox="0 0 192.000000 192.000000"
 preserveAspectRatio="xMidYMid meet">
<metadata>
Created by potrace 1.16, written by Peter Selinger 2001-2019
</metadata>
<g transform="translate(0.000000,192.000000) scale(0.100000,-0.100000)"
fill="#000000" stroke="none">
811 c445 -92 729 -532 635 -987 -62 -301 -295 -546 -601 -630 -91 -26 -329
-26 -420 0 -291 80 -516 305 -596 596 -26 91 -26 329 0 420 120 433 542 692
982 601z"/>
<path d="M820 1355 c-76 -22 -129 -55 -188 -120 -69 -76 -95 -145 -96 -255 0
-62 5 -96 19 -125 10 -22 21 -73 25 -113 4 -39 10 -75 14 -79 4 -5 38 -11 74
-14 37 -4 92 -16 122 -28 39 -14 79 -20 138 -21 55 0 93 -5 113 -16 47 -24
118 -28 169 -10 25 9 61 16 81 16 44 0 59 15 59 60 0 19 7 53 15 75 25 70 14
145 -31 212 -10 16 -26 65 -35 109 -20 99 -53 157 -125 223 -93 85 -234 119
-354 86z m221 -92 c87 -39 159 -124 174 -205 l7 -36 -41 9 c-26 6 -58 5 -88
-1 -151 -34 -225 -183 -167 -333 5 -14 0 -17 -27 -17 -19 1 -52 8 -74 16 -22
9 -67 19 -100 22 l-60 7 -6 55 c-4 30 -14 71 -22 90 -51 120 -12 267 95 353
83 67 211 83 309 40z"/>
</g>
</svg>
