<?xml version="1.0" standalone="no"?>
<!DOCTYPE svg PUBLIC "-//W3C//DTD SVG 20010904//EN"
 "http://www.w3.org/TR/2001/REC-SVG-20010904/DTD/svg10.dtd">
<svg version="1.0" xmlns="http://www.w3.org/2000/svg"
 width="192.000000pt" height="192.000000pt" viewBox="0 0 192.000000 192.000000"
 preserveAspectRatio="xMidYMid meet">
<metadata>
Created by potrace 1.16, written by Peter Selinger 2001-2019
</metadata>
<g transform="translate(0.000000,192.000000) scale(0.100000,-0.100000)"
fill="#000000" stroke="none">
811 c445 -92 729 -532 635 -987 -62 -301 -295 -546 -601 -630 -91 -26 -329
-26 -420 0 -291 80 -516 305 -596 596 -26 91 -26 329 0 420 120 433 542 692
982 601z"/>
<path d="M1074 1286 c-14 -37 0 -51 57 -57 73 -8 115 -34 140 -86 16 -33 19
-53 14 -83 -12 -74 44 -100 71 -33 36 85 -16 207 -108 254 -47 24 -166 27
-174 5z"/>
<path d="M838 1196 c-94 -34 -222 -145 -266 -233 -61 -119 -24 -225 100 -289
160 -83 425 -47 540 73 83 86 74 183 -22 223 -29 12 -31 16 -25 49 5 29 1 43
-16 65 -21 27 -25 28 -83 23 -34 -3 -70 -9 -81 -12 -17 -5 -20 -1 -21 31 0 27
-8 43 -28 61 -31 26 -46 28 -98 9z"/>
<path d="M1112 1189 c-37 -14 -26 -53 15 -57 38 -4 63 -33 63 -74 0 -23 4 -28
25 -28 19 0 28 8 36 27 27 73 -66 161 -139 132z"/>
</g>
</svg>
