<?xml version="1.0" standalone="no"?>
<!DOCTYPE svg PUBLIC "-//W3C//DTD SVG 20010904//EN"
 "http://www.w3.org/TR/2001/REC-SVG-20010904/DTD/svg10.dtd">
<svg version="1.0" xmlns="http://www.w3.org/2000/svg"
 width="192.000000pt" height="192.000000pt" viewBox="0 0 192.000000 192.000000"
 preserveAspectRatio="xMidYMid meet">
<metadata>
Created by potrace 1.16, written by Peter Selinger 2001-2019
</metadata>
<g transform="translate(0.000000,192.000000) scale(0.100000,-0.100000)"
fill="#000000" stroke="none">
811 c445 -92 729 -532 635 -987 -62 -301 -295 -546 -601 -630 -91 -26 -329
-26 -420 0 -291 80 -516 305 -596 596 -26 91 -26 329 0 420 120 433 542 692
982 601z"/>
<path d="M772 1233 c-84 -48 -157 -94 -162 -103 -5 -9 -10 -118 -11 -242 -2
-233 1 -258 37 -258 8 0 87 37 177 82 89 45 189 89 221 98 l60 17 -58 26 c-77
35 -108 34 -200 -8 -43 -19 -79 -35 -82 -35 -2 0 -4 53 -4 118 l0 118 93 56
c140 85 176 101 245 107 l62 6 -93 53 c-52 28 -102 52 -113 52 -10 0 -88 -39
-172 -87z"/>
<path d="M1018 1169 c-27 -12 -48 -24 -48 -28 0 -3 37 -26 82 -51 45 -25 87
-51 95 -58 9 -10 13 -46 13 -130 l0 -117 -52 4 c-54 3 -128 -13 -128 -29 0 -6
64 -42 141 -81 159 -79 184 -82 194 -25 4 19 5 124 3 234 -3 183 -5 202 -23
222 -66 72 -190 99 -277 59z"/>
</g>
</svg>
