<?xml version="1.0" standalone="no"?>
<!DOCTYPE svg PUBLIC "-//W3C//DTD SVG 20010904//EN"
 "http://www.w3.org/TR/2001/REC-SVG-20010904/DTD/svg10.dtd">
<svg version="1.0" xmlns="http://www.w3.org/2000/svg"
 width="192.000000pt" height="192.000000pt" viewBox="0 0 192.000000 192.000000"
 preserveAspectRatio="xMidYMid meet">
<metadata>
Created by potrace 1.16, written by Peter Selinger 2001-2019
</metadata>
<g transform="translate(0.000000,192.000000) scale(0.100000,-0.100000)"
fill="#000000" stroke="none">
811 c445 -92 729 -532 635 -987 -62 -301 -295 -546 -601 -630 -91 -26 -329
-26 -420 0 -291 80 -516 305 -596 596 -26 91 -26 329 0 420 120 433 542 692
982 601z"/>
<path d="M769 1357 c-83 -31 -167 -105 -195 -173 -18 -44 -18 -104 1 -131 49
-69 197 -35 289 68 70 77 89 174 42 218 -30 28 -89 36 -137 18z m9 -83 c5 -54
-72 -123 -123 -110 -75 19 8 151 90 144 25 -3 30 -8 33 -34z"/>
<path d="M977 1345 c29 -20 47 -78 38 -123 -17 -93 -109 -203 -216 -258 -43
-22 -68 -28 -121 -29 -61 0 -69 3 -99 30 -31 30 -31 30 -24 5 3 -14 18 -48 31
-76 30 -63 67 -84 148 -84 181 0 399 205 399 376 0 68 -19 96 -93 142 -55 33
-105 47 -63 17z"/>
<path d="M1177 1107 c-17 -166 -221 -349 -391 -351 -62 -1 -64 -2 -38 -15 15
-8 70 -17 122 -20 l95 -6 120 -73 c99 -59 128 -72 163 -72 54 0 100 39 109 92
5 34 -2 51 -73 169 -78 131 -78 132 -80 208 -1 42 -6 87 -11 100 -9 22 -11 17
-16 -32z"/>
</g>
</svg>
