<?xml version="1.0" standalone="no"?>
<!DOCTYPE svg PUBLIC "-//W3C//DTD SVG 20010904//EN"
 "http://www.w3.org/TR/2001/REC-SVG-20010904/DTD/svg10.dtd">
<svg version="1.0" xmlns="http://www.w3.org/2000/svg"
 width="192.000000pt" height="192.000000pt" viewBox="0 0 192.000000 192.000000"
 preserveAspectRatio="xMidYMid meet">
<metadata>
Created by potrace 1.16, written by Peter Selinger 2001-2019
</metadata>
<g transform="translate(0.000000,192.000000) scale(0.100000,-0.100000)"
fill="#000000" stroke="none">
811 c445 -92 729 -532 635 -987 -62 -301 -295 -546 -601 -630 -91 -26 -329
-26 -420 0 -291 80 -516 305 -596 596 -26 91 -26 329 0 420 120 433 542 692
982 601z"/>
<path d="M430 1165 c0 -32 81 -390 90 -399 17 -17 12 21 -30 217 -22 103 -40
190 -40 192 0 3 -4 5 -10 5 -5 0 -10 -7 -10 -15z"/>
<path d="M498 1173 c-5 -9 77 -401 86 -410 19 -19 14 27 -24 204 -39 186 -51
227 -62 206z"/>
<path d="M560 1168 c0 -7 20 -101 43 -208 l43 -195 89 0 90 0 16 117 c9 64 19
122 21 129 2 7 12 -43 22 -111 9 -68 20 -128 22 -132 3 -4 43 -8 89 -8 80 0
85 1 90 23 3 12 21 96 40 187 19 91 37 175 40 188 5 21 3 22 -69 22 l-74 0
-12 -102 c-13 -105 -28 -172 -29 -133 -1 11 -8 68 -17 128 l-17 107 -83 0
c-95 0 -87 10 -104 -125 -6 -49 -14 -97 -17 -105 -4 -8 -13 39 -22 105 l-16
120 -73 3 c-54 2 -72 0 -72 -10z"/>
<path d="M1175 998 c-21 -101 -38 -190 -39 -198 -1 -9 18 -22 49 -33 64 -22
166 -17 223 12 63 32 72 63 72 245 l0 156 -80 0 -80 0 0 -132 c0 -146 -4 -174
-27 -182 -36 -14 -43 11 -43 165 0 138 -1 149 -18 149 -16 0 -24 -26 -57 -182z"/>
</g>
</svg>
