<?xml version="1.0" standalone="no"?>
<!DOCTYPE svg PUBLIC "-//W3C//DTD SVG 20010904//EN"
 "http://www.w3.org/TR/2001/REC-SVG-20010904/DTD/svg10.dtd">
<svg version="1.0" xmlns="http://www.w3.org/2000/svg"
 width="192.000000pt" height="192.000000pt" viewBox="0 0 192.000000 192.000000"
 preserveAspectRatio="xMidYMid meet">
<metadata>
Created by potrace 1.16, written by Peter Selinger 2001-2019
</metadata>
<g transform="translate(0.000000,192.000000) scale(0.100000,-0.100000)"
fill="#000000" stroke="none">
811 c445 -92 729 -532 635 -987 -62 -301 -295 -546 -601 -630 -91 -26 -329
-26 -420 0 -291 80 -516 305 -596 596 -26 91 -26 329 0 420 120 433 542 692
982 601z"/>
<path d="M797 1320 c-14 -11 -29 -29 -32 -40 -5 -15 -15 -20 -45 -20 -30 0
-43 -6 -59 -26 -35 -45 -45 -101 -46 -264 0 -229 24 -300 103 -300 31 -1 40
-6 57 -33 11 -17 33 -38 49 -45 25 -12 35 -11 89 8 80 28 229 108 324 172 179
120 218 188 152 262 -95 109 -439 306 -534 306 -18 0 -44 -9 -58 -20z m60
-101 c114 -45 262 -124 327 -175 49 -39 56 -49 56 -79 0 -30 -7 -40 -57 -79
-88 -69 -401 -222 -418 -204 -16 15 -27 200 -21 348 6 170 12 220 27 220 5 0
43 -14 86 -31z"/>
<path d="M815 1123 c-24 -61 -15 -320 11 -330 31 -12 314 142 314 171 0 19
-90 77 -192 126 -110 51 -124 55 -133 33z"/>
</g>
</svg>
