<?xml version="1.0" standalone="no"?>
<!DOCTYPE svg PUBLIC "-//W3C//DTD SVG 20010904//EN"
 "http://www.w3.org/TR/2001/REC-SVG-20010904/DTD/svg10.dtd">
<svg version="1.0" xmlns="http://www.w3.org/2000/svg"
 width="192.000000pt" height="192.000000pt" viewBox="0 0 192.000000 192.000000"
 preserveAspectRatio="xMidYMid meet">
<metadata>
Created by potrace 1.16, written by Peter Selinger 2001-2019
</metadata>
<g transform="translate(0.000000,192.000000) scale(0.100000,-0.100000)"
fill="#000000" stroke="none">
811 c445 -92 729 -532 635 -987 -62 -301 -295 -546 -601 -630 -91 -26 -329
-26 -420 0 -291 80 -516 305 -596 596 -26 91 -26 329 0 420 120 433 542 692
982 601z"/>
<path d="M623 1336 l-28 -24 0 -274 c0 -292 4 -321 52 -386 57 -76 190 -99
267 -47 37 25 38 25 64 6 37 -25 65 -33 124 -33 93 1 172 62 198 153 6 19 10
157 10 307 l0 273 -25 24 c-31 32 -66 32 -102 1 l-28 -24 -5 -281 c-3 -187 -9
-284 -16 -291 -6 -6 -27 -10 -45 -8 -56 5 -59 21 -59 316 l0 263 -25 24 c-31
32 -66 32 -102 1 l-28 -24 -5 -282 c-5 -307 -5 -303 -65 -298 -51 5 -55 25
-55 316 l0 263 -25 24 c-31 32 -66 32 -102 1z"/>
</g>
</svg>
