<?xml version="1.0" standalone="no"?>
<!DOCTYPE svg PUBLIC "-//W3C//DTD SVG 20010904//EN"
 "http://www.w3.org/TR/2001/REC-SVG-20010904/DTD/svg10.dtd">
<svg version="1.0" xmlns="http://www.w3.org/2000/svg"
 width="192.000000pt" height="192.000000pt" viewBox="0 0 192.000000 192.000000"
 preserveAspectRatio="xMidYMid meet">
<metadata>
Created by potrace 1.16, written by Peter Selinger 2001-2019
</metadata>
<g transform="translate(0.000000,192.000000) scale(0.100000,-0.100000)"
fill="#000000" stroke="none">
811 c445 -92 729 -532 635 -987 -62 -301 -295 -546 -601 -630 -91 -26 -329
-26 -420 0 -291 80 -516 305 -596 596 -26 91 -26 329 0 420 120 433 542 692
982 601z"/>
<path d="M886 1370 c-122 -21 -250 -121 -304 -237 -38 -83 -43 -214 -12 -298
13 -33 25 -89 27 -125 6 -85 18 -97 101 -103 37 -2 94 -14 127 -27 50 -18 75
-21 151 -18 78 3 101 9 156 36 158 78 252 251 228 422 -32 228 -250 389 -474
350z m164 -227 c39 -35 51 -99 26 -137 -15 -24 -15 -27 10 -63 43 -64 18 -142
-55 -173 -15 -6 -66 -10 -117 -8 l-89 3 -3 190 c-1 104 0 195 2 202 4 9 32 13
101 13 89 0 96 -2 125 -27z"/>
<path d="M900 1055 l0 -55 36 0 c51 0 74 15 74 50 0 40 -24 60 -71 60 l-39 0
0 -55z"/>
<path d="M900 885 l0 -55 48 0 c72 0 101 38 66 88 -12 18 -25 22 -65 22 l-49
0 0 -55z"/>
</g>
</svg>
