<?xml version="1.0" standalone="no"?>
<!DOCTYPE svg PUBLIC "-//W3C//DTD SVG 20010904//EN"
 "http://www.w3.org/TR/2001/REC-SVG-20010904/DTD/svg10.dtd">
<svg version="1.0" xmlns="http://www.w3.org/2000/svg"
 width="192.000000pt" height="192.000000pt" viewBox="0 0 192.000000 192.000000"
 preserveAspectRatio="xMidYMid meet">
<metadata>
Created by potrace 1.16, written by Peter Selinger 2001-2019
</metadata>
<g transform="translate(0.000000,192.000000) scale(0.100000,-0.100000)"
fill="#000000" stroke="none">
811 c445 -92 729 -532 635 -987 -62 -301 -295 -546 -601 -630 -91 -26 -329
-26 -420 0 -291 80 -516 305 -596 596 -26 91 -26 329 0 420 120 433 542 692
982 601z"/>
<path d="M887 1369 c-120 -20 -246 -113 -299 -221 -55 -113 -59 -226 -12 -344
15 -38 24 -81 24 -115 0 -30 5 -60 12 -67 7 -7 37 -12 67 -12 34 0 77 -9 115
-24 118 -47 231 -43 344 12 152 74 249 260 222 425 -36 226 -251 383 -473 346z
m-3 -248 c25 -33 46 -65 46 -72 0 -7 -12 -25 -26 -41 -26 -26 -26 -28 -11 -52
9 -14 32 -37 52 -51 l35 -27 31 26 c30 26 32 26 58 10 99 -63 111 -89 58 -128
-37 -27 -127 -28 -176 -2 -99 52 -191 184 -191 274 0 61 35 120 72 122 4 0 27
-27 52 -59z"/>
</g>
</svg>
