<?xml version="1.0" standalone="no"?>
<!DOCTYPE svg PUBLIC "-//W3C//DTD SVG 20010904//EN"
 "http://www.w3.org/TR/2001/REC-SVG-20010904/DTD/svg10.dtd">
<svg version="1.0" xmlns="http://www.w3.org/2000/svg"
 width="192.000000pt" height="192.000000pt" viewBox="0 0 192.000000 192.000000"
 preserveAspectRatio="xMidYMid meet">
<metadata>
Created by potrace 1.16, written by Peter Selinger 2001-2019
</metadata>
<g transform="translate(0.000000,192.000000) scale(0.100000,-0.100000)"
fill="#000000" stroke="none">
811 c445 -92 729 -532 635 -987 -62 -301 -295 -546 -601 -630 -91 -26 -329
-26 -420 0 -291 80 -516 305 -596 596 -26 91 -26 329 0 420 120 433 542 692
982 601z"/>
<path d="M887 1369 c-120 -20 -246 -113 -299 -221 -55 -113 -59 -226 -12 -344
15 -38 24 -81 24 -115 0 -30 5 -60 12 -67 7 -7 37 -12 67 -12 34 0 77 -9 115
-24 118 -47 231 -43 344 12 152 74 249 260 222 425 -36 226 -251 383 -473 346z
m11 -279 c39 -37 0 -68 -48 -38 -13 9 -27 9 -47 2 -27 -9 -28 -12 -31 -87 -3
-74 -2 -77 23 -89 18 -8 34 -9 53 -2 32 11 43 44 15 44 -30 0 -55 23 -47 43 4
13 18 17 53 17 55 0 71 -12 71 -57 0 -66 -47 -113 -115 -113 -40 0 -91 27
-104 56 -6 14 -11 61 -11 105 0 76 2 82 29 110 25 25 37 29 83 29 40 0 60 -5
76 -20z m250 4 c34 -23 45 -60 29 -92 -11 -24 -11 -30 6 -54 25 -34 16 -91
-16 -113 -27 -17 -125 -30 -161 -21 l-26 6 0 139 c0 76 3 141 7 144 14 14 138
7 161 -9z"/>
<path d="M1040 1019 c0 -31 1 -31 37 -26 66 11 67 57 2 57 -37 0 -39 -2 -39
-31z"/>
<path d="M1040 905 c0 -30 3 -35 23 -35 37 0 65 11 71 27 10 25 -14 43 -55 43
-38 0 -39 -1 -39 -35z"/>
</g>
</svg>
