<?xml version="1.0" standalone="no"?>
<!DOCTYPE svg PUBLIC "-//W3C//DTD SVG 20010904//EN"
 "http://www.w3.org/TR/2001/REC-SVG-20010904/DTD/svg10.dtd">
<svg version="1.0" xmlns="http://www.w3.org/2000/svg"
 width="192.000000pt" height="192.000000pt" viewBox="0 0 192.000000 192.000000"
 preserveAspectRatio="xMidYMid meet">
<metadata>
Created by potrace 1.16, written by Peter Selinger 2001-2019
</metadata>
<g transform="translate(0.000000,192.000000) scale(0.100000,-0.100000)"
fill="#000000" stroke="none">
811 c445 -92 729 -532 635 -987 -62 -301 -295 -546 -601 -630 -91 -26 -329
-26 -420 0 -291 80 -516 305 -596 596 -26 91 -26 329 0 420 120 433 542 692
982 601z"/>
<path d="M828 1345 c-8 -17 -19 -25 -36 -25 -48 0 -113 -40 -143 -88 l-29 -46
0 -183 c0 -210 5 -230 71 -286 l43 -37 -33 -46 c-37 -53 -35 -74 7 -74 21 0
32 7 40 25 l12 25 193 0 194 0 11 -26 c10 -20 18 -25 39 -22 39 4 40 29 4 78
l-31 42 41 30 c68 49 79 86 79 281 0 179 -7 216 -53 266 -27 29 -93 60 -127
61 -16 0 -29 8 -35 23 -9 21 -17 22 -123 25 -111 3 -112 3 -124 -23z m340
-157 c17 -17 15 -129 -3 -154 -27 -39 -63 -46 -230 -42 l-157 3 -24 28 c-20
23 -24 39 -24 91 0 35 5 67 12 74 17 17 409 17 426 0z m-363 -308 c0 -32 -3
-35 -32 -38 -38 -4 -56 20 -42 56 7 19 15 23 41 20 30 -3 33 -6 33 -38z m365
25 c17 -20 5 -61 -20 -68 -11 -3 -30 3 -42 13 -20 15 -21 21 -10 44 13 30 52
36 72 11z m-50 -245 c0 -6 -64 -10 -171 -10 -111 0 -168 3 -164 10 4 6 72 10
171 10 103 0 164 -4 164 -10z"/>
</g>
</svg>
