<?xml version="1.0" standalone="no"?>
<!DOCTYPE svg PUBLIC "-//W3C//DTD SVG 20010904//EN"
 "http://www.w3.org/TR/2001/REC-SVG-20010904/DTD/svg10.dtd">
<svg version="1.0" xmlns="http://www.w3.org/2000/svg"
 width="192.000000pt" height="192.000000pt" viewBox="0 0 192.000000 192.000000"
 preserveAspectRatio="xMidYMid meet">
<metadata>
Created by potrace 1.16, written by Peter Selinger 2001-2019
</metadata>
<g transform="translate(0.000000,192.000000) scale(0.100000,-0.100000)"
fill="#000000" stroke="none">
811 c445 -92 729 -532 635 -987 -62 -301 -295 -546 -601 -630 -91 -26 -329
-26 -420 0 -291 80 -516 305 -596 596 -26 91 -26 329 0 420 120 433 542 692
982 601z"/>
<path d="M713 1299 c-46 -14 -100 -71 -114 -121 -7 -24 -24 -55 -37 -70 -29
-31 -20 -52 26 -63 15 -3 43 -21 64 -40 35 -32 36 -36 36 -102 0 -84 18 -129
79 -194 97 -104 251 -118 372 -35 l38 27 81 -37 c45 -20 88 -34 97 -31 12 5
15 30 15 150 0 79 -3 146 -6 150 -3 3 -31 -21 -61 -53 -56 -60 -170 -129 -192
-115 -24 14 -8 35 43 58 113 52 190 157 202 275 7 66 -11 161 -31 168 -14 6
-315 -80 -355 -101 -50 -26 -98 -91 -110 -150 -4 -21 -12 -30 -25 -30 -45 0
-3 121 63 183 33 31 34 35 21 59 -32 59 -133 95 -206 72z m27 -149 c0 -13 -7
-20 -20 -20 -19 0 -27 20 -13 33 13 14 33 6 33 -13z"/>
</g>
</svg>
