<?xml version="1.0" standalone="no"?>
<!DOCTYPE svg PUBLIC "-//W3C//DTD SVG 20010904//EN"
 "http://www.w3.org/TR/2001/REC-SVG-20010904/DTD/svg10.dtd">
<svg version="1.0" xmlns="http://www.w3.org/2000/svg"
 width="192.000000pt" height="192.000000pt" viewBox="0 0 192.000000 192.000000"
 preserveAspectRatio="xMidYMid meet">
<metadata>
Created by potrace 1.16, written by Peter Selinger 2001-2019
</metadata>
<g transform="translate(0.000000,192.000000) scale(0.100000,-0.100000)"
fill="#000000" stroke="none">
811 c445 -92 729 -532 635 -987 -62 -301 -295 -546 -601 -630 -91 -26 -329
-26 -420 0 -291 80 -516 305 -596 596 -26 91 -26 329 0 420 120 433 542 692
982 601z"/>
<path d="M800 1219 c0 -39 26 -142 37 -146 20 -8 43 16 44 46 0 24 2 23 13 -9
9 -23 19 -35 32 -35 15 0 22 14 36 70 13 48 15 72 7 80 -14 13 -39 -20 -40
-54 -1 -21 -3 -19 -13 14 -16 49 -37 51 -53 5 -11 -35 -18 -31 -25 15 -3 21
-38 34 -38 14z"/>
<path d="M994 1216 c-3 -7 -4 -42 -2 -77 2 -51 6 -64 21 -67 13 -3 17 3 17 27
0 24 4 31 20 31 16 0 20 -7 20 -31 0 -24 4 -30 18 -27 14 3 17 15 17 78 0 63
-3 75 -17 78 -14 3 -18 -3 -18 -27 0 -24 -4 -31 -20 -31 -16 0 -20 7 -20 30 0
31 -26 43 -36 16z"/>
<path d="M1140 1220 c-11 -7 -15 -27 -15 -70 0 -67 9 -80 61 -80 43 0 54 16
54 80 0 31 -5 61 -12 68 -14 14 -67 16 -88 2z m60 -71 c0 -33 -3 -40 -17 -37
-13 2 -19 14 -21 41 -3 32 0 37 17 37 18 0 21 -6 21 -41z"/>
<path d="M1272 1221 c-8 -5 -12 -22 -10 -42 2 -28 8 -35 36 -43 32 -9 40 -20
23 -31 -5 -3 -12 -1 -16 5 -9 15 -45 12 -45 -3 0 -36 65 -51 94 -21 30 30 17
68 -27 79 -25 7 -39 35 -17 35 6 0 10 -4 10 -10 0 -5 9 -10 20 -10 24 0 28 35
4 44 -22 8 -57 7 -72 -3z"/>
<path d="M544 1104 c-9 -37 2 -160 21 -221 34 -112 147 -222 264 -257 65 -19
201 -22 219 -4 16 16 16 170 0 186 -8 8 -49 12 -120 12 l-107 0 -16 -30 c-15
-29 -16 -30 -40 -14 -13 8 -35 30 -49 48 l-25 33 30 22 c29 21 29 23 29 120 0
55 -3 106 -6 115 -5 13 -24 16 -100 16 -93 0 -94 0 -100 -26z"/>
<path d="M806 1014 c-10 -27 -6 -110 6 -122 20 -20 86 -15 98 7 5 11 10 24 10
30 0 17 -31 13 -45 -6 -18 -24 -35 -7 -35 38 0 32 3 39 20 39 11 0 20 -7 20
-15 0 -8 9 -15 20 -15 23 0 27 29 8 48 -18 18 -95 15 -102 -4z"/>
<path d="M947 970 c-10 -33 -17 -67 -17 -75 0 -19 29 -20 36 0 4 8 14 15 24
15 10 0 20 -7 24 -15 7 -20 36 -19 36 0 0 8 -7 42 -17 75 -15 54 -19 60 -43
60 -24 0 -28 -6 -43 -60z m53 -20 c0 -5 -4 -10 -10 -10 -5 0 -10 5 -10 10 0 6
5 10 10 10 6 0 10 -4 10 -10z"/>
<path d="M1070 955 l0 -75 46 0 c38 0 45 3 42 18 -2 9 -13 18 -26 20 -20 3
-22 9 -22 58 0 47 -2 54 -20 54 -18 0 -20 -7 -20 -75z"/>
<path d="M1180 955 l0 -75 46 0 c38 0 45 3 42 18 -2 9 -13 18 -26 20 -20 3
-22 9 -22 58 0 47 -2 54 -20 54 -18 0 -20 -7 -20 -75z"/>
</g>
</svg>
