<?xml version="1.0" standalone="no"?>
<!DOCTYPE svg PUBLIC "-//W3C//DTD SVG 20010904//EN"
 "http://www.w3.org/TR/2001/REC-SVG-20010904/DTD/svg10.dtd">
<svg version="1.0" xmlns="http://www.w3.org/2000/svg"
 width="192.000000pt" height="192.000000pt" viewBox="0 0 192.000000 192.000000"
 preserveAspectRatio="xMidYMid meet">
<metadata>
Created by potrace 1.16, written by Peter Selinger 2001-2019
</metadata>
<g transform="translate(0.000000,192.000000) scale(0.100000,-0.100000)"
fill="#000000" stroke="none">
811 c445 -92 729 -532 635 -987 -62 -301 -295 -546 -601 -630 -91 -26 -329
-26 -420 0 -291 80 -516 305 -596 596 -26 91 -26 329 0 420 120 433 542 692
982 601z"/>
<path d="M997 1322 c-13 -15 -17 -39 -17 -115 0 -131 6 -137 135 -137 129 0
135 6 135 133 0 133 -4 137 -134 137 -87 0 -105 -3 -119 -18z"/>
<path d="M642 1320 c-37 -15 -43 -52 -40 -242 4 -218 -1 -210 133 -216 52 -2
110 -1 129 2 65 12 66 16 66 229 0 106 -4 197 -8 203 -17 26 -55 34 -154 33
-57 0 -113 -4 -126 -9z"/>
<path d="M1000 980 c-18 -18 -20 -33 -20 -185 0 -213 -6 -205 158 -205 170 0
162 -11 162 204 0 218 9 206 -158 206 -109 0 -124 -2 -142 -20z"/>
<path d="M745 815 c-22 -21 -25 -33 -25 -93 0 -92 19 -112 108 -112 87 0 102
16 102 113 0 39 -4 77 -8 83 -14 22 -51 34 -102 34 -41 0 -56 -5 -75 -25z"/>
</g>
</svg>
