<?xml version="1.0" standalone="no"?>
<!DOCTYPE svg PUBLIC "-//W3C//DTD SVG 20010904//EN"
 "http://www.w3.org/TR/2001/REC-SVG-20010904/DTD/svg10.dtd">
<svg version="1.0" xmlns="http://www.w3.org/2000/svg"
 width="192.000000pt" height="192.000000pt" viewBox="0 0 192.000000 192.000000"
 preserveAspectRatio="xMidYMid meet">
<metadata>
Created by potrace 1.16, written by Peter Selinger 2001-2019
</metadata>
<g transform="translate(0.000000,192.000000) scale(0.100000,-0.100000)"
fill="#000000" stroke="none">
811 c445 -92 729 -532 635 -987 -62 -301 -295 -546 -601 -630 -91 -26 -329
-26 -420 0 -291 80 -516 305 -596 596 -26 91 -26 329 0 420 120 433 542 692
982 601z"/>
<path d="M620 1168 c-49 -53 -73 -129 -68 -218 5 -77 19 -117 65 -177 31 -42
78 -46 95 -9 9 21 6 32 -21 72 -61 93 -63 160 -5 256 39 64 40 71 18 92 -24
24 -50 19 -84 -16z"/>
<path d="M1206 1184 c-22 -22 -20 -42 10 -82 67 -88 64 -185 -9 -284 -17 -23
-19 -32 -9 -53 18 -39 63 -34 97 11 87 114 86 280 -1 383 -38 44 -63 51 -88
25z"/>
<path d="M743 1108 c-11 -13 -28 -37 -37 -55 -46 -91 15 -257 88 -239 37 9 44
47 16 87 -29 40 -30 97 -1 137 25 36 26 55 5 76 -22 22 -47 20 -71 -6z"/>
<path d="M1096 1114 c-21 -21 -20 -43 4 -79 26 -39 26 -102 0 -135 -50 -63 13
-127 67 -67 53 57 68 142 38 215 -31 73 -76 100 -109 66z"/>
<path d="M902 1048 c-8 -8 -12 -50 -12 -124 l0 -112 -35 -21 c-73 -43 -97
-136 -52 -201 67 -99 226 -91 277 15 11 23 20 51 20 64 0 37 -37 98 -75 121
-32 20 -35 25 -35 71 0 43 3 49 20 49 28 0 46 40 31 69 -7 11 -20 21 -30 21
-12 0 -23 11 -30 30 -8 24 -16 30 -38 30 -16 0 -34 -5 -41 -12z m76 -344 c51
-36 -1 -107 -61 -85 -14 6 -31 19 -37 31 -9 17 -7 24 14 45 29 29 52 31 84 9z"/>
</g>
</svg>
