<?xml version="1.0" standalone="no"?>
<!DOCTYPE svg PUBLIC "-//W3C//DTD SVG 20010904//EN"
 "http://www.w3.org/TR/2001/REC-SVG-20010904/DTD/svg10.dtd">
<svg version="1.0" xmlns="http://www.w3.org/2000/svg"
 width="192.000000pt" height="192.000000pt" viewBox="0 0 192.000000 192.000000"
 preserveAspectRatio="xMidYMid meet">
<metadata>
Created by potrace 1.16, written by Peter Selinger 2001-2019
</metadata>
<g transform="translate(0.000000,192.000000) scale(0.100000,-0.100000)"
fill="#000000" stroke="none">
811 c445 -92 729 -532 635 -987 -62 -301 -295 -546 -601 -630 -91 -26 -329
-26 -420 0 -291 80 -516 305 -596 596 -26 91 -26 329 0 420 120 433 542 692
982 601z"/>
<path d="M833 1355 c-181 -56 -311 -251 -288 -434 14 -108 79 -235 118 -229
34 5 44 34 24 65 -51 78 -62 116 -62 208 0 73 5 99 23 136 37 75 87 125 159
161 58 28 77 33 143 33 187 -1 333 -145 332 -329 0 -79 -19 -141 -59 -199 -21
-30 -24 -42 -16 -55 33 -54 97 9 135 131 80 265 -114 529 -390 526 -42 0 -96
-6 -119 -14z"/>
<path d="M835 1216 c-139 -64 -204 -242 -137 -373 26 -50 46 -66 72 -58 25 8
26 35 0 85 -46 91 -14 210 71 263 89 55 182 45 255 -28 68 -69 80 -160 31
-248 -25 -44 -15 -72 24 -72 19 0 30 12 52 55 25 49 28 64 25 130 -4 88 -25
137 -81 193 -79 79 -209 101 -312 53z"/>
<path d="M880 1091 c-22 -11 -44 -36 -59 -65 -20 -39 -22 -53 -15 -88 17 -79
82 -79 76 0 -4 50 11 80 45 93 52 20 109 -35 93 -90 -10 -35 5 -61 34 -61 47
0 61 106 21 166 -40 61 -128 81 -195 45z"/>
<path d="M829 773 c-68 -66 -89 -93 -89 -113 0 -59 91 -103 215 -104 67 0 90
4 138 26 100 47 97 86 -15 194 -116 113 -131 113 -249 -3z"/>
</g>
</svg>
