<?xml version="1.0" standalone="no"?>
<!DOCTYPE svg PUBLIC "-//W3C//DTD SVG 20010904//EN"
 "http://www.w3.org/TR/2001/REC-SVG-20010904/DTD/svg10.dtd">
<svg version="1.0" xmlns="http://www.w3.org/2000/svg"
 width="192.000000pt" height="192.000000pt" viewBox="0 0 192.000000 192.000000"
 preserveAspectRatio="xMidYMid meet">
<metadata>
Created by potrace 1.16, written by Peter Selinger 2001-2019
</metadata>
<g transform="translate(0.000000,192.000000) scale(0.100000,-0.100000)"
fill="#000000" stroke="none">
811 c445 -92 729 -532 635 -987 -62 -301 -295 -546 -601 -630 -91 -26 -329
-26 -420 0 -291 80 -516 305 -596 596 -26 91 -26 329 0 420 120 433 542 692
982 601z"/>
<path d="M714 1325 c-70 -31 -121 -116 -112 -191 2 -23 8 -29 28 -29 22 0 26
5 30 46 7 58 32 97 75 115 49 20 434 20 473 0 41 -21 63 -50 76 -103 10 -41
16 -48 37 -48 22 0 24 3 22 49 -2 64 -42 123 -103 154 -42 21 -55 22 -270 21
-165 0 -233 -4 -256 -14z"/>
<path d="M1153 1148 c-13 -6 -28 -24 -35 -39 -7 -16 -21 -29 -30 -29 -33 0
-29 -21 10 -60 58 -59 86 -52 126 29 20 43 21 41 -11 42 -27 1 -27 1 5 10 21
6 32 16 32 28 0 31 -52 41 -97 19z"/>
<path d="M720 1101 c-42 -13 -93 -42 -138 -79 l-44 -35 31 -30 30 -31 38 30
c79 64 162 89 250 78 50 -6 53 -8 38 -24 -10 -11 -37 -19 -74 -23 -64 -5 -143
-36 -178 -69 -29 -27 -29 -30 7 -57 30 -22 31 -22 58 -3 15 10 42 24 61 30 29
10 32 10 27 -4 -3 -9 -6 -21 -6 -27 0 -7 -14 -20 -30 -29 -17 -9 -30 -23 -30
-31 0 -20 56 -57 87 -57 94 1 316 82 328 121 3 10 3 35 -1 55 -5 28 -14 39
-39 50 -18 7 -48 31 -66 52 -29 34 -47 43 -124 66 -89 26 -174 32 -225 17z
m338 -168 c-3 -16 -24 -33 -134 -101 -24 -15 -46 -21 -61 -17 -36 9 -27 23 25
39 61 18 124 49 142 71 12 15 8 16 -41 11 -39 -4 -46 -3 -24 3 17 5 45 9 63
10 27 1 33 -3 30 -16z"/>
<path d="M1295 1053 c-33 -14 -62 -29 -64 -35 -2 -5 -13 -21 -26 -36 -19 -22
-21 -31 -13 -54 12 -34 22 -30 97 38 51 46 88 99 73 107 -4 2 -34 -7 -67 -20z"/>
<path d="M1295 918 c-2 -7 -5 -49 -7 -93 -5 -87 -19 -120 -66 -152 -23 -16
-53 -18 -223 -21 -118 -2 -212 1 -236 7 -61 17 -94 58 -102 128 -6 54 -8 58
-31 58 -23 0 -25 -4 -28 -52 -5 -90 53 -170 140 -193 25 -7 119 -10 252 -8
208 3 212 3 256 30 63 36 92 91 98 184 6 91 -2 124 -29 124 -11 0 -21 -6 -24
-12z"/>
</g>
</svg>
