<?xml version="1.0" standalone="no"?>
<!DOCTYPE svg PUBLIC "-//W3C//DTD SVG 20010904//EN"
 "http://www.w3.org/TR/2001/REC-SVG-20010904/DTD/svg10.dtd">
<svg version="1.0" xmlns="http://www.w3.org/2000/svg"
 width="192.000000pt" height="192.000000pt" viewBox="0 0 192.000000 192.000000"
 preserveAspectRatio="xMidYMid meet">
<metadata>
Created by potrace 1.16, written by Peter Selinger 2001-2019
</metadata>
<g transform="translate(0.000000,192.000000) scale(0.100000,-0.100000)"
fill="#000000" stroke="none">
811 c445 -92 729 -532 635 -987 -62 -301 -295 -546 -601 -630 -91 -26 -329
-26 -420 0 -291 80 -516 305 -596 596 -26 91 -26 329 0 420 120 433 542 692
982 601z"/>
<path d="M864 1330 c-52 -43 -57 -44 -151 -40 -49 1 -68 -2 -91 -19 -45 -32
-56 -69 -49 -169 8 -109 29 -187 74 -279 65 -133 216 -263 305 -263 84 0 222
105 291 221 47 80 85 199 95 304 11 100 2 142 -39 178 -29 26 -37 29 -98 27
-93 -4 -91 -4 -150 40 -43 32 -61 40 -96 40 -35 0 -51 -7 -91 -40z m218 -219
c65 -33 90 -62 86 -97 -4 -37 -40 -44 -71 -16 -81 73 -204 73 -284 0 -32 -30
-73 -18 -73 22 0 33 35 65 110 100 62 28 166 24 232 -9z m-54 -121 c45 -21 66
-54 50 -82 -11 -22 -46 -23 -72 -3 -26 20 -76 19 -104 -1 -12 -8 -32 -14 -45
-12 -18 2 -22 9 -22 37 0 30 5 37 44 58 53 28 92 29 149 3z m-48 -128 c45 -36
1 -99 -50 -72 -25 14 -27 65 -2 79 23 14 27 14 52 -7z"/>
</g>
</svg>
