<?xml version="1.0" standalone="no"?>
<!DOCTYPE svg PUBLIC "-//W3C//DTD SVG 20010904//EN"
 "http://www.w3.org/TR/2001/REC-SVG-20010904/DTD/svg10.dtd">
<svg version="1.0" xmlns="http://www.w3.org/2000/svg"
 width="192.000000pt" height="192.000000pt" viewBox="0 0 192.000000 192.000000"
 preserveAspectRatio="xMidYMid meet">
<metadata>
Created by potrace 1.16, written by Peter Selinger 2001-2019
</metadata>
<g transform="translate(0.000000,192.000000) scale(0.100000,-0.100000)"
fill="#000000" stroke="none">
811 c445 -92 729 -532 635 -987 -62 -301 -295 -546 -601 -630 -91 -26 -329
-26 -420 0 -291 80 -516 305 -596 596 -26 91 -26 329 0 420 120 433 542 692
982 601z"/>
<path d="M559 1260 c-38 -22 -30 -52 75 -316 84 -210 109 -262 129 -274 42
-24 73 7 116 120 21 52 41 104 45 115 6 16 18 -6 56 -100 36 -90 54 -124 73
-135 50 -28 69 0 169 253 72 183 93 227 108 227 21 0 50 36 50 62 0 39 -36 58
-110 58 -57 0 -74 -4 -90 -20 -23 -23 -25 -39 -9 -74 10 -21 5 -42 -35 -143
-26 -65 -51 -122 -56 -126 -7 -7 -100 211 -100 235 0 4 6 8 13 8 22 0 47 34
47 63 0 40 -33 57 -110 57 -104 0 -123 -28 -86 -125 l23 -59 -35 -86 c-18 -47
-37 -89 -42 -93 -7 -8 -100 209 -100 233 0 6 6 10 13 10 22 0 47 34 47 63 0
40 -33 57 -110 57 -36 0 -72 -5 -81 -10z"/>
</g>
</svg>
