<?xml version="1.0" standalone="no"?>
<!DOCTYPE svg PUBLIC "-//W3C//DTD SVG 20010904//EN"
 "http://www.w3.org/TR/2001/REC-SVG-20010904/DTD/svg10.dtd">
<svg version="1.0" xmlns="http://www.w3.org/2000/svg"
 width="192.000000pt" height="192.000000pt" viewBox="0 0 192.000000 192.000000"
 preserveAspectRatio="xMidYMid meet">
<metadata>
Created by potrace 1.16, written by Peter Selinger 2001-2019
</metadata>
<g transform="translate(0.000000,192.000000) scale(0.100000,-0.100000)"
fill="#000000" stroke="none">
811 c445 -92 729 -532 635 -987 -62 -301 -295 -546 -601 -630 -91 -26 -329
-26 -420 0 -291 80 -516 305 -596 596 -26 91 -26 329 0 420 120 433 542 692
982 601z"/>
<path d="M540 1258 c-54 -29 -51 -43 70 -347 121 -305 128 -316 188 -295 27
10 30 15 117 229 l16 40 50 -125 c28 -69 58 -131 67 -138 23 -17 66 -15 84 6
9 9 58 125 109 256 87 222 96 240 125 252 49 21 60 76 23 110 -30 27 -158 27
-188 0 -23 -21 -27 -56 -11 -86 8 -15 -2 -50 -46 -160 -31 -78 -58 -140 -59
-138 -2 2 -26 62 -54 133 -34 87 -47 131 -39 134 22 8 58 50 58 69 0 11 -8 30
-19 43 -15 19 -30 24 -82 27 -76 4 -115 -8 -131 -43 -9 -21 -7 -36 15 -91 l26
-66 -40 -102 c-23 -55 -42 -102 -44 -104 -1 -2 -26 57 -55 130 -36 94 -48 134
-39 137 7 2 24 15 37 28 26 26 24 64 -4 93 -19 20 -141 25 -174 8z"/>
</g>
</svg>
