<?xml version="1.0" standalone="no"?>
<!DOCTYPE svg PUBLIC "-//W3C//DTD SVG 20010904//EN"
 "http://www.w3.org/TR/2001/REC-SVG-20010904/DTD/svg10.dtd">
<svg version="1.0" xmlns="http://www.w3.org/2000/svg"
 width="192.000000pt" height="192.000000pt" viewBox="0 0 192.000000 192.000000"
 preserveAspectRatio="xMidYMid meet">
<metadata>
Created by potrace 1.16, written by Peter Selinger 2001-2019
</metadata>
<g transform="translate(0.000000,192.000000) scale(0.100000,-0.100000)"
fill="#000000" stroke="none">
811 c445 -92 729 -532 635 -987 -62 -301 -295 -546 -601 -630 -91 -26 -329
-26 -420 0 -291 80 -516 305 -596 596 -26 91 -26 329 0 420 120 433 542 692
982 601z"/>
<path d="M637 1333 c16 -33 18 -76 21 -350 2 -297 2 -315 -18 -352 -11 -22
-20 -43 -20 -46 0 -3 106 -5 235 -5 l234 0 15 53 c8 28 18 64 22 80 l6 27
-151 0 -151 0 -2 313 -3 312 -103 3 -103 3 18 -38z"/>
<path d="M883 1314 c-17 -4 -23 -13 -23 -32 l0 -27 90 0 c80 1 92 3 105 22 14
19 13 21 -10 27 -37 9 -137 15 -162 10z"/>
<path d="M1043 1197 l-108 -110 58 33 c32 18 60 30 63 28 7 -8 -52 -89 -125
-173 l-71 -80 0 -62 c0 -35 3 -63 6 -63 8 0 254 134 251 137 -2 1 -25 -4 -52
-12 -26 -8 -50 -13 -53 -10 -19 19 50 74 211 166 89 51 107 66 107 85 0 14 5
33 12 43 8 13 9 26 2 40 -8 19 -14 17 -84 -42 -41 -34 -113 -93 -160 -131
l-85 -69 76 79 c42 43 83 92 90 109 8 16 33 44 57 62 l43 32 -26 17 c-14 9
-43 20 -65 24 l-38 7 -109 -110z"/>
<path d="M609 1093 c-6 -16 -16 -55 -21 -88 -12 -66 1 -157 27 -191 13 -17 14
1 15 144 0 89 -2 162 -5 162 -3 0 -10 -12 -16 -27z"/>
<path d="M1217 1015 c-89 -56 -93 -61 -27 -35 30 12 67 27 83 32 16 6 27 17
27 29 0 26 -5 24 -83 -26z"/>
<path d="M1266 957 c-10 -7 -22 -35 -27 -63 -5 -27 -22 -70 -39 -96 -29 -48
-54 -118 -45 -127 3 -2 21 11 41 30 48 47 96 148 102 215 5 56 -1 63 -32 41z"/>
</g>
</svg>
