<?xml version="1.0" standalone="no"?>
<!DOCTYPE svg PUBLIC "-//W3C//DTD SVG 20010904//EN"
 "http://www.w3.org/TR/2001/REC-SVG-20010904/DTD/svg10.dtd">
<svg version="1.0" xmlns="http://www.w3.org/2000/svg"
 width="192.000000pt" height="192.000000pt" viewBox="0 0 192.000000 192.000000"
 preserveAspectRatio="xMidYMid meet">
<metadata>
Created by potrace 1.16, written by Peter Selinger 2001-2019
</metadata>
<g transform="translate(0.000000,192.000000) scale(0.100000,-0.100000)"
fill="#000000" stroke="none">
811 c445 -92 729 -532 635 -987 -62 -301 -295 -546 -601 -630 -91 -26 -329
-26 -420 0 -291 80 -516 305 -596 596 -26 91 -26 329 0 420 120 433 542 692
982 601z"/>
<path d="M810 1323 c-74 -30 -140 -60 -146 -66 -6 -7 -37 -74 -69 -150 l-58
-137 49 -122 c27 -67 58 -135 69 -151 15 -22 51 -42 149 -83 71 -30 138 -54
150 -54 24 0 275 98 293 114 16 15 123 266 123 289 0 26 -100 269 -119 289
-15 16 -281 129 -298 127 -4 0 -69 -25 -143 -56z m268 -88 l108 -45 44 -107
c24 -59 43 -114 43 -123 -2 -22 -82 -203 -96 -216 -7 -6 -60 -30 -118 -53
l-106 -42 -113 48 -113 48 -44 105 c-23 58 -43 111 -43 118 0 18 79 205 93
219 13 13 204 92 225 92 7 1 61 -19 120 -44z"/>
<path d="M780 1130 c-18 -18 -20 -33 -20 -158 0 -154 9 -182 58 -182 20 0 43
15 82 55 l54 54 57 -54 c62 -59 94 -69 122 -37 14 16 17 43 17 164 0 128 -2
147 -18 161 -24 22 -38 21 -62 -3 -17 -17 -20 -33 -20 -101 l0 -81 -40 36
c-22 20 -46 36 -53 36 -7 0 -32 -16 -55 -36 l-42 -36 0 85 c0 69 -3 87 -18
100 -24 22 -38 21 -62 -3z"/>
</g>
</svg>
