<?xml version="1.0" standalone="no"?>
<!DOCTYPE svg PUBLIC "-//W3C//DTD SVG 20010904//EN"
 "http://www.w3.org/TR/2001/REC-SVG-20010904/DTD/svg10.dtd">
<svg version="1.0" xmlns="http://www.w3.org/2000/svg"
 width="192.000000pt" height="192.000000pt" viewBox="0 0 192.000000 192.000000"
 preserveAspectRatio="xMidYMid meet">
<metadata>
Created by potrace 1.16, written by Peter Selinger 2001-2019
</metadata>
<g transform="translate(0.000000,192.000000) scale(0.100000,-0.100000)"
fill="#000000" stroke="none">
811 c445 -92 729 -532 635 -987 -62 -301 -295 -546 -601 -630 -91 -26 -329
-26 -420 0 -291 80 -516 305 -596 596 -26 91 -26 329 0 420 120 433 542 692
982 601z"/>
<path d="M880 1348 c-41 -16 -107 -43 -147 -59 l-72 -30 -61 -145 -62 -145 58
-140 c35 -86 66 -146 78 -155 34 -21 263 -114 283 -114 10 1 80 26 157 58
l138 57 59 138 c32 77 59 145 59 152 0 20 -109 279 -123 291 -10 9 -230 102
-277 117 -9 2 -49 -9 -90 -25z m-46 -224 c3 -9 6 -61 6 -117 l0 -101 48 47
c26 26 56 47 67 47 11 0 41 -21 67 -47 l48 -47 0 98 c0 53 5 106 10 117 13 23
55 25 64 3 3 -9 6 -79 6 -157 0 -117 -3 -144 -17 -159 -9 -10 -23 -18 -30 -18
-8 0 -43 28 -79 61 l-63 61 -48 -40 c-26 -22 -57 -49 -67 -61 -25 -27 -51 -27
-70 1 -13 18 -16 51 -16 156 0 73 5 142 10 153 13 23 55 25 64 3z"/>
</g>
</svg>
