<?xml version="1.0" standalone="no"?>
<!DOCTYPE svg PUBLIC "-//W3C//DTD SVG 20010904//EN"
 "http://www.w3.org/TR/2001/REC-SVG-20010904/DTD/svg10.dtd">
<svg version="1.0" xmlns="http://www.w3.org/2000/svg"
 width="192.000000pt" height="192.000000pt" viewBox="0 0 192.000000 192.000000"
 preserveAspectRatio="xMidYMid meet">
<metadata>
Created by potrace 1.16, written by Peter Selinger 2001-2019
</metadata>
<g transform="translate(0.000000,192.000000) scale(0.100000,-0.100000)"
fill="#000000" stroke="none">
811 c445 -92 729 -532 635 -987 -62 -301 -295 -546 -601 -630 -91 -26 -329
-26 -420 0 -291 80 -516 305 -596 596 -26 91 -26 329 0 420 120 433 542 692
982 601z"/>
<path d="M580 1322 c-16 -17 -30 -41 -30 -54 0 -31 47 -297 65 -373 34 -134
123 -268 200 -301 37 -15 88 -17 119 -5 10 4 40 3 66 -3 122 -25 227 101 319
384 37 115 41 143 20 147 -10 3 -22 -14 -38 -54 -44 -107 -132 -269 -171 -313
-39 -44 -39 -43 14 42 52 85 128 246 142 301 6 25 4 28 -12 25 -12 -2 -37 -38
-69 -97 -53 -100 -166 -255 -202 -278 -21 -14 -22 -13 -33 27 -22 83 -31 217
-24 367 5 131 4 156 -9 177 -34 51 -129 37 -143 -21 -4 -14 -4 -98 -1 -187 6
-161 28 -290 61 -371 20 -47 20 -48 -3 -35 -28 15 -79 123 -96 205 -8 38 -20
141 -27 229 -13 177 -23 200 -85 212 -27 5 -37 1 -63 -24z"/>
</g>
</svg>
