<?xml version="1.0" standalone="no"?>
<!DOCTYPE svg PUBLIC "-//W3C//DTD SVG 20010904//EN"
 "http://www.w3.org/TR/2001/REC-SVG-20010904/DTD/svg10.dtd">
<svg version="1.0" xmlns="http://www.w3.org/2000/svg"
 width="192.000000pt" height="192.000000pt" viewBox="0 0 192.000000 192.000000"
 preserveAspectRatio="xMidYMid meet">
<metadata>
Created by potrace 1.16, written by Peter Selinger 2001-2019
</metadata>
<g transform="translate(0.000000,192.000000) scale(0.100000,-0.100000)"
fill="#000000" stroke="none">
811 c445 -92 729 -532 635 -987 -62 -301 -295 -546 -601 -630 -91 -26 -329
-26 -420 0 -291 80 -516 305 -596 596 -26 91 -26 329 0 420 120 433 542 692
982 601z"/>
<path d="M941 1345 l-25 -14 27 -6 c40 -10 22 -25 -31 -25 -41 -1 -45 -2 -29
-14 23 -18 22 -34 -5 -57 l-23 -18 32 -1 c33 0 52 -15 31 -23 -7 -3 -4 -6 8
-6 27 -1 123 -74 147 -111 38 -60 -7 -130 -106 -167 -31 -11 -53 -15 -51 -9 2
6 -9 19 -26 28 -41 23 -43 77 -4 107 34 27 54 26 89 -1 23 -18 26 -26 22 -60
-6 -44 7 -49 42 -17 23 21 41 59 41 84 0 31 -60 83 -108 94 -163 39 -273 -155
-150 -265 12 -12 28 -23 35 -25 8 -3 7 -11 -3 -29 -9 -14 -13 -17 -10 -8 8 26
-9 31 -43 13 -29 -15 -61 -51 -61 -68 0 -15 74 3 88 21 10 13 12 10 12 -21 0
-110 110 -198 210 -168 108 32 160 143 111 240 -28 53 -46 67 -68 50 -10 -8
-2 5 18 27 45 51 63 102 56 161 -5 50 -20 70 -95 125 -29 21 -50 43 -47 49 4
5 30 9 60 9 60 0 84 16 33 23 -25 3 -21 4 16 5 42 2 47 4 36 17 -7 8 -25 15
-40 15 -15 0 -33 7 -40 15 -11 13 -103 47 -119 44 -3 -1 -17 -7 -30 -14z m46
-11 c-3 -3 -12 -4 -19 -1 -8 3 -5 6 6 6 11 1 17 -2 13 -5z m93 -38 c0 -3 -4
-8 -10 -11 -5 -3 -10 -1 -10 4 0 6 5 11 10 11 6 0 10 -2 10 -4z m-180 -420 c0
-2 -8 -10 -17 -17 -16 -13 -17 -12 -4 4 13 16 21 21 21 13z m144 -39 c-2 -7 7
-24 21 -37 34 -32 34 -82 0 -115 -50 -51 -135 -17 -135 54 0 49 31 78 117 110
1 1 0 -5 -3 -12z"/>
<path d="M739 1312 c-103 -66 -172 -170 -192 -289 -24 -147 45 -309 170 -394
38 -27 48 -30 69 -20 36 16 31 53 -11 85 -58 44 -86 78 -114 136 -35 75 -37
191 -3 265 28 61 91 127 143 151 43 19 60 54 39 79 -19 23 -51 18 -101 -13z"/>
<path d="M1197 1242 c-23 -25 -22 -27 18 -83 88 -119 87 -265 -2 -401 -17 -27
-17 -28 4 -50 30 -29 61 -15 96 44 87 149 69 359 -40 476 -35 37 -53 40 -76
14z"/>
</g>
</svg>
