<?xml version="1.0" standalone="no"?>
<!DOCTYPE svg PUBLIC "-//W3C//DTD SVG 20010904//EN"
 "http://www.w3.org/TR/2001/REC-SVG-20010904/DTD/svg10.dtd">
<svg version="1.0" xmlns="http://www.w3.org/2000/svg"
 width="192.000000pt" height="192.000000pt" viewBox="0 0 192.000000 192.000000"
 preserveAspectRatio="xMidYMid meet">
<metadata>
Created by potrace 1.16, written by Peter Selinger 2001-2019
</metadata>
<g transform="translate(0.000000,192.000000) scale(0.100000,-0.100000)"
fill="#000000" stroke="none">
811 c445 -92 729 -532 635 -987 -62 -301 -295 -546 -601 -630 -91 -26 -329
-26 -420 0 -291 80 -516 305 -596 596 -26 91 -26 329 0 420 120 433 542 692
982 601z"/>
<path d="M516 1308 c-19 -29 -30 -91 -22 -122 4 -17 21 -30 61 -47 34 -14 55
-29 55 -38 0 -9 -7 -63 -15 -121 -18 -138 -9 -185 49 -245 68 -71 162 -82 254
-30 l43 25 41 -28 c120 -79 309 14 352 172 18 64 40 251 32 271 -7 20 -78 20
-116 0 -17 -9 -30 -19 -30 -23 0 -4 -7 -52 -15 -107 -8 -55 -15 -106 -15 -113
0 -27 -48 -62 -84 -62 -57 0 -70 30 -57 125 6 42 11 78 11 80 0 17 -38 35 -74
35 -61 0 -75 -15 -86 -90 -6 -36 -13 -75 -15 -88 -14 -62 -99 -86 -131 -37
-15 24 -15 35 0 154 22 175 21 197 -7 216 -22 14 -202 95 -212 95 -3 0 -11
-10 -19 -22z"/>
</g>
</svg>
