<?xml version="1.0" standalone="no"?>
<!DOCTYPE svg PUBLIC "-//W3C//DTD SVG 20010904//EN"
 "http://www.w3.org/TR/2001/REC-SVG-20010904/DTD/svg10.dtd">
<svg version="1.0" xmlns="http://www.w3.org/2000/svg"
 width="192.000000pt" height="192.000000pt" viewBox="0 0 192.000000 192.000000"
 preserveAspectRatio="xMidYMid meet">
<metadata>
Created by potrace 1.16, written by Peter Selinger 2001-2019
</metadata>
<g transform="translate(0.000000,192.000000) scale(0.100000,-0.100000)"
fill="#000000" stroke="none">
811 c445 -92 729 -532 635 -987 -62 -301 -295 -546 -601 -630 -91 -26 -329
-26 -420 0 -291 80 -516 305 -596 596 -26 91 -26 329 0 420 120 433 542 692
982 601z"/>
<path d="M907 1268 c-12 -13 -49 -70 -81 -128 -81 -144 -76 -140 -158 -140
-38 0 -78 -4 -88 -10 -67 -36 -21 -199 86 -307 74 -74 107 -59 190 88 71 125
84 142 106 134 10 -4 45 -57 80 -118 71 -127 88 -147 123 -147 64 0 181 161
193 265 4 38 1 50 -18 70 -21 22 -32 25 -101 25 l-78 0 -77 135 c-42 75 -85
140 -95 145 -29 16 -58 11 -82 -12z"/>
</g>
</svg>
