<?xml version="1.0" standalone="no"?>
<!DOCTYPE svg PUBLIC "-//W3C//DTD SVG 20010904//EN"
 "http://www.w3.org/TR/2001/REC-SVG-20010904/DTD/svg10.dtd">
<svg version="1.0" xmlns="http://www.w3.org/2000/svg"
 width="192.000000pt" height="192.000000pt" viewBox="0 0 192.000000 192.000000"
 preserveAspectRatio="xMidYMid meet">
<metadata>
Created by potrace 1.16, written by Peter Selinger 2001-2019
</metadata>
<g transform="translate(0.000000,192.000000) scale(0.100000,-0.100000)"
fill="#000000" stroke="none">
811 c445 -92 729 -532 635 -987 -62 -301 -295 -546 -601 -630 -91 -26 -329
-26 -420 0 -291 80 -516 305 -596 596 -26 91 -26 329 0 420 120 433 542 692
982 601z"/>
<path d="M755 1358 c-8 -23 -35 -172 -35 -197 0 -20 4 -23 28 -18 47 10 122
46 122 59 -1 20 -83 161 -97 166 -7 2 -15 -2 -18 -10z"/>
<path d="M1078 1288 c-25 -45 -44 -87 -42 -93 4 -10 110 -55 131 -55 22 0 23
18 8 102 -23 123 -24 128 -38 128 -7 0 -34 -37 -59 -82z"/>
<path d="M1135 1091 c-71 -25 -135 -49 -141 -53 -6 -4 -17 -25 -24 -48 -15
-45 -22 -43 -39 12 -7 20 -20 39 -29 43 -75 29 -248 85 -263 85 -26 0 -24 -10
11 -79 28 -56 28 -59 10 -64 -29 -8 -25 -20 23 -64 24 -22 41 -46 39 -56 -2
-10 12 -27 37 -44 34 -24 45 -41 77 -126 31 -79 44 -101 69 -117 40 -24 55
-25 94 -3 24 14 37 37 68 116 33 86 43 103 81 130 30 21 41 36 37 48 -4 11 7
28 35 51 43 38 49 52 24 66 -14 8 -12 16 15 69 44 87 33 90 -124 34z m-34
-165 c-9 -16 -24 -25 -47 -28 -37 -4 -40 -1 -21 25 11 16 67 38 76 31 2 -2 -1
-15 -8 -28z m-257 14 c14 -5 29 -18 35 -28 9 -17 7 -18 -26 -13 -38 6 -82 51
-50 51 9 0 27 -4 41 -10z m124 -326 c-9 -9 -21 -13 -27 -10 -20 13 -11 26 16
26 25 0 26 -1 11 -16z"/>
</g>
</svg>
