<?xml version="1.0" standalone="no"?>
<!DOCTYPE svg PUBLIC "-//W3C//DTD SVG 20010904//EN"
 "http://www.w3.org/TR/2001/REC-SVG-20010904/DTD/svg10.dtd">
<svg version="1.0" xmlns="http://www.w3.org/2000/svg"
 width="192.000000pt" height="192.000000pt" viewBox="0 0 192.000000 192.000000"
 preserveAspectRatio="xMidYMid meet">
<metadata>
Created by potrace 1.16, written by Peter Selinger 2001-2019
</metadata>
<g transform="translate(0.000000,192.000000) scale(0.100000,-0.100000)"
fill="#000000" stroke="none">
811 c445 -92 729 -532 635 -987 -62 -301 -295 -546 -601 -630 -91 -26 -329
-26 -420 0 -291 80 -516 305 -596 596 -26 91 -26 329 0 420 120 433 542 692
982 601z"/>
<path d="M923 1358 c-6 -7 -34 -60 -63 -118 -29 -58 -53 -106 -54 -107 -2 -2
-54 -10 -117 -19 -119 -17 -159 -32 -159 -62 0 -10 42 -59 93 -110 l93 -93
-22 -124 c-18 -109 -19 -127 -7 -145 8 -11 21 -20 30 -20 9 0 66 26 127 59
l111 58 110 -58 c61 -32 118 -59 127 -59 9 0 23 9 31 20 12 18 11 36 -7 145
l-22 124 93 93 c51 51 93 100 93 110 0 30 -40 45 -160 62 -63 9 -116 20 -118
24 -2 4 -29 57 -60 117 -48 93 -61 110 -83 113 -14 2 -30 -3 -36 -10z m127
-272 c5 -8 -9 -33 -41 -75 l-49 -63 0 158 1 159 39 -84 c22 -47 44 -89 50 -95z
m-163 -63 c21 -27 44 -55 51 -64 9 -13 -24 -6 -139 27 -84 24 -154 45 -156 48
-2 2 36 9 84 16 48 6 93 13 98 15 20 7 24 4 62 -42z m319 -68 c-44 -41 -84
-75 -90 -74 -6 0 -42 13 -81 29 -54 23 -66 31 -50 36 113 35 273 82 285 83 8
0 -21 -33 -64 -74z m-266 -31 c0 -5 -166 -242 -182 -259 -6 -6 -7 0 -2 19 4
15 12 65 18 109 l12 80 69 28 c75 29 85 32 85 23z m124 -142 c47 -67 86 -125
86 -127 0 -3 -42 17 -94 43 l-94 47 -1 90 c-1 52 3 85 8 80 5 -6 48 -65 95
-133z"/>
</g>
</svg>
