<?xml version="1.0" standalone="no"?>
<!DOCTYPE svg PUBLIC "-//W3C//DTD SVG 20010904//EN"
 "http://www.w3.org/TR/2001/REC-SVG-20010904/DTD/svg10.dtd">
<svg version="1.0" xmlns="http://www.w3.org/2000/svg"
 width="192.000000pt" height="192.000000pt" viewBox="0 0 192.000000 192.000000"
 preserveAspectRatio="xMidYMid meet">
<metadata>
Created by potrace 1.16, written by Peter Selinger 2001-2019
</metadata>
<g transform="translate(0.000000,192.000000) scale(0.100000,-0.100000)"
fill="#000000" stroke="none">
811 c445 -92 729 -532 635 -987 -62 -301 -295 -546 -601 -630 -91 -26 -329
-26 -420 0 -291 80 -516 305 -596 596 -26 91 -26 329 0 420 120 433 542 692
982 601z"/>
<path d="M810 1128 c-7 -179 -22 -265 -47 -275 -24 -9 -28 5 -33 120 -5 110
-5 112 -29 112 -20 0 -30 -15 -74 -113 -63 -142 -76 -138 -58 19 7 61 10 113
7 116 -10 10 -54 -7 -61 -24 -4 -10 -9 -68 -12 -129 -7 -132 1 -154 52 -154
33 0 37 3 74 78 39 76 40 77 41 39 0 -56 24 -105 54 -113 60 -15 114 68 143
215 19 94 14 111 -27 111 -16 0 -30 -1 -30 -2z"/>
<path d="M1157 1123 c-3 -5 -10 -35 -17 -68 -11 -55 -32 -95 -51 -95 -4 0 -12
13 -17 30 -29 82 -155 54 -191 -43 -40 -104 35 -180 128 -132 17 8 38 34 51
60 12 25 30 50 41 55 17 10 18 7 13 -34 -12 -87 50 -126 112 -72 l28 23 19
-23 c27 -35 72 -32 108 8 20 21 27 34 20 41 -7 7 -16 3 -29 -13 -26 -32 -52
-21 -52 22 0 18 3 50 6 71 6 34 9 37 40 37 18 0 36 5 40 11 8 14 -14 29 -43
29 -19 0 -22 4 -17 29 11 52 -50 53 -61 0 -4 -19 -13 -29 -25 -29 -10 0 -21
-7 -24 -16 -9 -23 -8 -24 15 -24 19 0 20 -4 14 -42 -13 -76 -63 -133 -86 -97
-11 18 -1 99 22 174 27 88 26 105 -10 105 -17 0 -32 -3 -34 -7z m-157 -143 c0
-11 5 -29 12 -39 9 -16 8 -27 -6 -60 -25 -55 -53 -62 -69 -18 -8 21 9 105 25
124 16 20 38 16 38 -7z"/>
</g>
</svg>
