<?xml version="1.0" standalone="no"?>
<!DOCTYPE svg PUBLIC "-//W3C//DTD SVG 20010904//EN"
 "http://www.w3.org/TR/2001/REC-SVG-20010904/DTD/svg10.dtd">
<svg version="1.0" xmlns="http://www.w3.org/2000/svg"
 width="192.000000pt" height="192.000000pt" viewBox="0 0 192.000000 192.000000"
 preserveAspectRatio="xMidYMid meet">
<metadata>
Created by potrace 1.16, written by Peter Selinger 2001-2019
</metadata>
<g transform="translate(0.000000,192.000000) scale(0.100000,-0.100000)"
fill="#000000" stroke="none">
811 c445 -92 729 -532 635 -987 -62 -301 -295 -546 -601 -630 -91 -26 -329
-26 -420 0 -291 80 -516 305 -596 596 -26 91 -26 329 0 420 120 433 542 692
982 601z"/>
<path d="M598 1214 c-32 -17 -58 -62 -58 -99 0 -14 35 -111 78 -216 88 -218
106 -242 188 -242 56 0 90 24 126 88 l26 48 25 -50 c38 -74 91 -101 158 -83
19 6 47 22 60 37 14 16 58 108 97 206 85 210 89 242 38 293 -29 29 -41 34 -79
34 -59 0 -96 -31 -121 -99 -10 -28 -21 -53 -26 -56 -4 -2 -20 25 -35 61 -31
73 -59 94 -124 94 -52 0 -91 -33 -115 -99 -10 -28 -21 -53 -26 -56 -4 -2 -20
25 -35 61 -19 45 -36 69 -56 79 -36 19 -86 18 -121 -1z"/>
</g>
</svg>
