<?xml version="1.0" standalone="no"?>
<!DOCTYPE svg PUBLIC "-//W3C//DTD SVG 20010904//EN"
 "http://www.w3.org/TR/2001/REC-SVG-20010904/DTD/svg10.dtd">
<svg version="1.0" xmlns="http://www.w3.org/2000/svg"
 width="192.000000pt" height="192.000000pt" viewBox="0 0 192.000000 192.000000"
 preserveAspectRatio="xMidYMid meet">
<metadata>
Created by potrace 1.16, written by Peter Selinger 2001-2019
</metadata>
<g transform="translate(0.000000,192.000000) scale(0.100000,-0.100000)"
fill="#000000" stroke="none">
811 c445 -92 729 -532 635 -987 -62 -301 -295 -546 -601 -630 -91 -26 -329
-26 -420 0 -291 80 -516 305 -596 596 -26 91 -26 329 0 420 120 433 542 692
982 601z"/>
<path d="M870 1369 c-69 -14 -150 -58 -206 -113 -200 -201 -143 -532 115 -659
62 -30 72 -32 176 -32 97 0 116 3 165 26 81 38 163 118 202 197 31 63 33 72
33 177 0 105 -2 114 -33 178 -85 171 -266 262 -452 226z m-46 -251 c3 -7 13
-51 23 -98 l18 -85 26 95 25 95 36 3 c40 3 34 16 79 -148 7 -25 14 -38 16 -30
2 8 12 51 21 95 l17 80 59 3 c52 3 58 1 54 -15 -3 -10 -27 -91 -53 -180 l-48
-163 -47 0 -47 0 -23 85 c-13 47 -25 83 -28 81 -2 -3 -14 -40 -27 -83 l-22
-78 -46 -3 -46 -3 -20 68 c-11 37 -34 113 -51 168 -16 55 -30 106 -30 113 0 8
18 12 55 12 36 0 57 -4 59 -12z"/>
</g>
</svg>
