<?xml version="1.0" standalone="no"?>
<!DOCTYPE svg PUBLIC "-//W3C//DTD SVG 20010904//EN"
 "http://www.w3.org/TR/2001/REC-SVG-20010904/DTD/svg10.dtd">
<svg version="1.0" xmlns="http://www.w3.org/2000/svg"
 width="192.000000pt" height="192.000000pt" viewBox="0 0 192.000000 192.000000"
 preserveAspectRatio="xMidYMid meet">
<metadata>
Created by potrace 1.16, written by Peter Selinger 2001-2019
</metadata>
<g transform="translate(0.000000,192.000000) scale(0.100000,-0.100000)"
fill="#000000" stroke="none">
811 c445 -92 729 -532 635 -987 -62 -301 -295 -546 -601 -630 -91 -26 -329
-26 -420 0 -291 80 -516 305 -596 596 -26 91 -26 329 0 420 120 433 542 692
982 601z"/>
<path d="M845 1357 c-116 -39 -202 -112 -254 -218 -99 -201 -10 -444 197 -542
62 -30 75 -32 172 -32 97 0 110 2 172 32 93 44 151 100 196 191 35 73 37 81
37 176 0 93 -3 107 -32 168 -41 88 -113 160 -201 201 -57 27 -80 32 -157 34
-55 2 -105 -2 -130 -10z m256 -83 c33 -15 59 -29 59 -31 0 -3 -9 -16 -20 -30
-27 -35 -25 -53 12 -126 20 -39 31 -77 31 -102 0 -37 -41 -190 -49 -183 -2 2
-24 68 -49 147 -26 79 -49 150 -52 157 -3 8 1 14 10 14 25 0 42 27 27 45 -10
12 -36 15 -115 15 -79 0 -105 -3 -115 -15 -15 -18 2 -45 30 -45 12 0 24 -20
41 -69 l23 -70 -29 -90 c-16 -50 -31 -91 -35 -91 -3 0 -27 66 -54 148 -27 81
-51 153 -53 160 -3 7 3 12 15 12 20 0 36 25 26 41 -3 5 -30 9 -60 9 -60 0 -65
6 -31 37 110 101 256 126 388 67z m-396 -397 c36 -98 65 -183 65 -188 0 -19
-60 32 -90 77 -17 24 -38 63 -46 86 -21 59 -20 227 2 206 1 -2 33 -84 69 -181z
m593 71 c-2 -60 -9 -96 -26 -129 -25 -51 -87 -127 -96 -118 -3 3 19 75 49 160
30 85 55 163 55 174 0 14 3 16 11 8 7 -7 10 -42 7 -95z m-278 -197 c36 -102
38 -112 22 -119 -22 -9 -148 -9 -157 0 -4 4 13 63 36 132 27 76 47 119 51 111
5 -7 26 -63 48 -124z"/>
</g>
</svg>
