<?xml version="1.0" standalone="no"?>
<!DOCTYPE svg PUBLIC "-//W3C//DTD SVG 20010904//EN"
 "http://www.w3.org/TR/2001/REC-SVG-20010904/DTD/svg10.dtd">
<svg version="1.0" xmlns="http://www.w3.org/2000/svg"
 width="192.000000pt" height="192.000000pt" viewBox="0 0 192.000000 192.000000"
 preserveAspectRatio="xMidYMid meet">
<metadata>
Created by potrace 1.16, written by Peter Selinger 2001-2019
</metadata>
<g transform="translate(0.000000,192.000000) scale(0.100000,-0.100000)"
fill="#000000" stroke="none">
811 c445 -92 729 -532 635 -987 -62 -301 -295 -546 -601 -630 -91 -26 -329
-26 -420 0 -291 80 -516 305 -596 596 -26 91 -26 329 0 420 120 433 542 692
982 601z"/>
<path d="M864 1356 c-58 -18 -125 -67 -157 -113 -59 -86 -69 -150 -27 -173 34
-18 53 -4 85 62 41 85 92 121 179 126 99 6 173 -42 216 -144 21 -49 44 -60 76
-39 64 42 -21 202 -140 262 -61 31 -169 40 -232 19z"/>
<path d="M658 978 c-4 -10 70 -313 96 -396 6 -19 15 -22 61 -22 42 0 56 4 63
18 5 9 24 77 42 149 18 73 35 132 36 130 2 -2 21 -68 42 -147 l39 -145 56 -3
c51 -3 58 -1 67 20 19 47 101 382 96 395 -7 17 -82 18 -92 1 -4 -7 -22 -71
-39 -143 l-31 -130 -22 85 c-13 47 -30 110 -40 140 l-17 55 -60 0 -60 0 -34
-132 c-18 -73 -36 -133 -40 -133 -3 0 -20 60 -36 133 l-31 132 -46 3 c-31 2
-47 -1 -50 -10z"/>
</g>
</svg>
