<?xml version="1.0" standalone="no"?>
<!DOCTYPE svg PUBLIC "-//W3C//DTD SVG 20010904//EN"
 "http://www.w3.org/TR/2001/REC-SVG-20010904/DTD/svg10.dtd">
<svg version="1.0" xmlns="http://www.w3.org/2000/svg"
 width="192.000000pt" height="192.000000pt" viewBox="0 0 192.000000 192.000000"
 preserveAspectRatio="xMidYMid meet">
<metadata>
Created by potrace 1.16, written by Peter Selinger 2001-2019
</metadata>
<g transform="translate(0.000000,192.000000) scale(0.100000,-0.100000)"
fill="#000000" stroke="none">
810 c245 -63 441 -223 549 -451 55 -116 75 -212 75 -354 0 -141 -20 -238 -75
-352 -86 -182 -215 -312 -396 -398 -116 -55 -212 -75 -354 -75 -142 0 -238 20
-354 75 -228 108 -388 304 -451 549 -28 110 -28 292 0 402 76 298 303 526 600
603 106 28 298 28 406 1z"/>
<path d="M647 1222 c-10 -10 -17 -29 -17 -41 0 -46 114 -455 132 -473 23 -23
60 -23 81 0 10 10 35 61 58 113 22 52 44 98 48 102 4 4 28 -38 54 -94 52 -117
68 -139 100 -139 49 0 57 19 118 251 32 123 59 232 59 242 0 24 -36 57 -63 57
-39 0 -56 -31 -89 -156 -17 -66 -33 -122 -37 -126 -4 -5 -24 33 -46 83 -45
105 -69 128 -114 110 -22 -10 -36 -30 -66 -99 -20 -48 -40 -90 -44 -95 -4 -4
-22 51 -41 123 -24 97 -38 135 -54 145 -28 20 -60 19 -79 -3z"/>
</g>
</svg>
