<?xml version="1.0" standalone="no"?>
<!DOCTYPE svg PUBLIC "-//W3C//DTD SVG 20010904//EN"
 "http://www.w3.org/TR/2001/REC-SVG-20010904/DTD/svg10.dtd">
<svg version="1.0" xmlns="http://www.w3.org/2000/svg"
 width="192.000000pt" height="192.000000pt" viewBox="0 0 192.000000 192.000000"
 preserveAspectRatio="xMidYMid meet">
<metadata>
Created by potrace 1.16, written by Peter Selinger 2001-2019
</metadata>
<g transform="translate(0.000000,192.000000) scale(0.100000,-0.100000)"
fill="#000000" stroke="none">
811 c445 -92 729 -532 635 -987 -62 -301 -295 -546 -601 -630 -91 -26 -329
-26 -420 0 -291 80 -516 305 -596 596 -26 91 -26 329 0 420 120 433 542 692
982 601z"/>
<path d="M856 1369 c-201 -47 -342 -263 -306 -468 31 -179 162 -310 342 -341
170 -30 353 68 430 229 40 83 50 205 24 293 -60 206 -281 336 -490 287z m-14
-206 c25 -30 29 -52 14 -88 -36 -85 -135 -28 -106 61 6 18 16 35 23 38 26 10
55 5 69 -11z m295 9 c25 -16 34 -61 19 -97 -36 -85 -135 -28 -106 61 6 18 16
35 23 38 19 7 51 6 64 -2z m-129 -199 c33 -20 52 -72 52 -138 0 -63 -17 -103
-56 -134 -34 -27 -64 -27 -98 0 -88 69 -79 238 15 286 26 13 50 10 87 -14z"/>
</g>
</svg>
