<?xml version="1.0" standalone="no"?>
<!DOCTYPE svg PUBLIC "-//W3C//DTD SVG 20010904//EN"
 "http://www.w3.org/TR/2001/REC-SVG-20010904/DTD/svg10.dtd">
<svg version="1.0" xmlns="http://www.w3.org/2000/svg"
 width="192.000000pt" height="192.000000pt" viewBox="0 0 192.000000 192.000000"
 preserveAspectRatio="xMidYMid meet">
<metadata>
Created by potrace 1.16, written by Peter Selinger 2001-2019
</metadata>
<g transform="translate(0.000000,192.000000) scale(0.100000,-0.100000)"
fill="#000000" stroke="none">
811 c445 -92 729 -532 635 -987 -62 -301 -295 -546 -601 -630 -91 -26 -329
-26 -420 0 -291 80 -516 305 -596 596 -26 91 -26 329 0 420 120 433 542 692
982 601z"/>
<path d="M803 1251 c-84 -21 -182 -67 -235 -111 -46 -38 -52 -84 -15 -118 33
-31 63 -27 121 13 86 59 156 79 276 80 124 0 191 -18 281 -77 33 -21 71 -38
85 -38 30 0 74 41 74 69 0 36 -58 88 -143 129 -141 70 -299 88 -444 53z"/>
<path d="M819 1037 c-93 -32 -139 -69 -139 -112 0 -24 7 -39 26 -54 35 -28 56
-26 111 6 37 21 62 28 127 31 75 4 85 2 140 -27 83 -44 122 -40 146 19 10 25
10 34 -4 55 -23 35 -68 61 -145 85 -85 27 -178 26 -262 -3z"/>
<path d="M889 821 c-58 -58 -26 -147 57 -158 36 -4 45 -1 72 23 68 63 31 164
-60 164 -30 0 -46 -7 -69 -29z"/>
</g>
</svg>
