<?xml version="1.0" standalone="no"?>
<!DOCTYPE svg PUBLIC "-//W3C//DTD SVG 20010904//EN"
 "http://www.w3.org/TR/2001/REC-SVG-20010904/DTD/svg10.dtd">
<svg version="1.0" xmlns="http://www.w3.org/2000/svg"
 width="192.000000pt" height="192.000000pt" viewBox="0 0 192.000000 192.000000"
 preserveAspectRatio="xMidYMid meet">
<metadata>
Created by potrace 1.16, written by Peter Selinger 2001-2019
</metadata>
<g transform="translate(0.000000,192.000000) scale(0.100000,-0.100000)"
fill="#000000" stroke="none">
811 c445 -92 729 -532 635 -987 -62 -301 -295 -546 -601 -630 -91 -26 -329
-26 -420 0 -291 80 -516 305 -596 596 -26 91 -26 329 0 420 120 433 542 692
982 601z"/>
<path d="M732 1330 c-18 -11 -41 -34 -52 -52 -19 -31 -20 -51 -20 -341 l0
-308 25 -24 c17 -18 35 -25 61 -25 31 0 45 9 100 63 35 34 74 65 86 68 42 10
82 -10 139 -71 50 -54 60 -60 96 -60 30 0 46 6 64 26 l24 26 0 306 c0 289 -1
309 -20 340 -40 67 -60 72 -276 72 -176 0 -197 -2 -227 -20z m259 -184 c18
-42 22 -45 68 -51 63 -9 70 -26 24 -64 -37 -30 -37 -30 -26 -78 6 -26 9 -51 7
-55 -9 -14 -38 -8 -64 12 -32 25 -48 25 -85 0 -16 -11 -38 -20 -48 -20 -16 0
-17 6 -11 59 6 57 6 59 -25 82 -48 35 -41 57 20 65 49 7 52 9 71 50 10 24 26
44 34 44 8 0 24 -20 35 -44z"/>
</g>
</svg>
