<?xml version="1.0" standalone="no"?>
<!DOCTYPE svg PUBLIC "-//W3C//DTD SVG 20010904//EN"
 "http://www.w3.org/TR/2001/REC-SVG-20010904/DTD/svg10.dtd">
<svg version="1.0" xmlns="http://www.w3.org/2000/svg"
 width="192.000000pt" height="192.000000pt" viewBox="0 0 192.000000 192.000000"
 preserveAspectRatio="xMidYMid meet">
<metadata>
Created by potrace 1.16, written by Peter Selinger 2001-2019
</metadata>
<g transform="translate(0.000000,192.000000) scale(0.100000,-0.100000)"
fill="#000000" stroke="none">
811 c445 -92 729 -532 635 -987 -62 -301 -295 -546 -601 -630 -91 -26 -329
-26 -420 0 -291 80 -516 305 -596 596 -26 91 -26 329 0 420 120 433 542 692
982 601z"/>
<path d="M408 1084 c-3 -3 19 -59 50 -125 46 -98 59 -119 77 -119 14 0 26 10
34 27 l13 28 14 -28 c28 -53 49 -36 109 89 30 65 55 121 55 125 0 5 -13 9 -28
9 -26 0 -32 -7 -63 -75 -19 -41 -36 -74 -39 -75 -3 0 -22 34 -43 75 -31 64
-41 75 -62 75 -31 0 -31 -6 0 -76 17 -38 22 -61 16 -67 -7 -7 -22 17 -45 66
-29 65 -39 77 -59 77 -13 0 -26 -3 -29 -6z"/>
<path d="M790 1079 c0 -6 18 -41 40 -79 31 -53 40 -79 40 -115 0 -45 1 -46 28
-43 25 3 27 7 32 53 4 33 18 72 43 113 20 35 37 67 37 73 0 5 -13 9 -29 9 -23
0 -32 -8 -52 -45 -13 -25 -26 -45 -29 -45 -3 0 -16 20 -30 45 -20 37 -30 45
-52 45 -16 0 -28 -5 -28 -11z"/>
<path d="M1030 1065 c0 -24 3 -25 60 -25 33 0 60 -3 60 -7 0 -5 -29 -46 -65
-92 -36 -46 -65 -88 -65 -93 0 -5 51 -7 113 -6 108 3 112 4 115 26 3 21 0 22
-57 22 -34 0 -61 3 -61 8 0 4 29 45 64 92 36 46 62 88 60 92 -3 5 -54 8 -115
8 l-109 0 0 -25z"/>
<path d="M1280 1065 l0 -25 110 0 110 0 0 25 0 25 -110 0 -110 0 0 -25z"/>
<path d="M1280 965 l0 -25 110 0 110 0 0 25 0 25 -110 0 -110 0 0 -25z"/>
<path d="M1280 865 l0 -25 110 0 110 0 0 25 0 25 -110 0 -110 0 0 -25z"/>
</g>
</svg>
