<?xml version="1.0" standalone="no"?>
<!DOCTYPE svg PUBLIC "-//W3C//DTD SVG 20010904//EN"
 "http://www.w3.org/TR/2001/REC-SVG-20010904/DTD/svg10.dtd">
<svg version="1.0" xmlns="http://www.w3.org/2000/svg"
 width="192.000000pt" height="192.000000pt" viewBox="0 0 192.000000 192.000000"
 preserveAspectRatio="xMidYMid meet">
<metadata>
Created by potrace 1.16, written by Peter Selinger 2001-2019
</metadata>
<g transform="translate(0.000000,192.000000) scale(0.100000,-0.100000)"
fill="#000000" stroke="none">
811 c445 -92 729 -532 635 -987 -62 -301 -295 -546 -601 -630 -91 -26 -329
-26 -420 0 -291 80 -516 305 -596 596 -26 91 -26 329 0 420 120 433 542 692
982 601z"/>
<path d="M584 1370 c-26 -10 -44 -57 -33 -85 10 -26 219 -233 239 -236 52 -10
98 38 81 83 -12 30 -234 248 -252 247 -8 0 -24 -4 -35 -9z"/>
<path d="M1083 1188 c-167 -166 -193 -196 -193 -223 0 -27 26 -57 193 -223
106 -106 198 -192 204 -192 49 0 89 53 72 95 -4 11 -75 87 -158 170 l-151 150
154 155 c85 85 156 162 157 170 9 46 -27 90 -74 90 -6 0 -98 -86 -204 -192z"/>
<path d="M680 778 c-56 -62 -106 -123 -111 -135 -19 -49 28 -100 80 -86 12 3
68 58 126 122 80 88 105 122 105 143 0 36 -32 68 -69 68 -24 0 -46 -19 -131
-112z"/>
</g>
</svg>
