<?xml version="1.0" standalone="no"?>
<!DOCTYPE svg PUBLIC "-//W3C//DTD SVG 20010904//EN"
 "http://www.w3.org/TR/2001/REC-SVG-20010904/DTD/svg10.dtd">
<svg version="1.0" xmlns="http://www.w3.org/2000/svg"
 width="192.000000pt" height="192.000000pt" viewBox="0 0 192.000000 192.000000"
 preserveAspectRatio="xMidYMid meet">
<metadata>
Created by potrace 1.16, written by Peter Selinger 2001-2019
</metadata>
<g transform="translate(0.000000,192.000000) scale(0.100000,-0.100000)"
fill="#000000" stroke="none">
811 c445 -92 729 -532 635 -987 -62 -301 -295 -546 -601 -630 -91 -26 -329
-26 -420 0 -291 80 -516 305 -596 596 -26 91 -26 329 0 420 120 433 542 692
982 601z"/>
<path d="M913 1352 c-10 -9 -56 -83 -103 -164 l-85 -147 -95 -3 -95 -3 -3 -30
c-4 -47 94 -395 118 -420 19 -19 35 -20 279 -23 268 -3 327 3 347 35 6 10 35
107 64 215 44 164 51 200 40 212 -10 13 -34 16 -109 16 l-96 0 -58 100 c-51
90 -60 100 -86 100 -29 0 -61 -27 -61 -51 1 -8 19 -43 40 -79 l40 -65 -50 -3
c-28 -2 -72 -2 -99 0 l-49 3 74 125 c41 69 74 135 74 147 0 22 -33 53 -57 53
-7 0 -21 -8 -30 -18z m-101 -487 c6 -14 14 -25 18 -25 4 0 12 11 18 25 6 14
18 25 27 25 20 0 19 -5 -6 -50 l-22 -39 22 -36 c26 -44 26 -45 2 -45 -12 0
-21 9 -25 25 -4 14 -10 25 -15 25 -5 0 -12 -11 -15 -25 -4 -16 -13 -25 -26
-25 -19 0 -19 1 2 44 l21 44 -21 37 c-26 43 -26 45 -7 45 9 0 21 -11 27 -25z
m203 -60 l0 -80 -47 -3 -48 -3 0 86 0 86 48 -3 47 -3 0 -80z m130 62 c4 -13 5
-50 3 -82 -2 -48 -7 -60 -20 -63 -15 -3 -18 4 -18 32 0 25 -4 36 -15 36 -10 0
-15 -11 -15 -35 0 -28 -4 -35 -20 -35 -18 0 -20 7 -20 78 0 43 3 82 7 85 3 4
26 7 49 7 37 0 44 -3 49 -23z"/>
<path d="M950 805 c0 -42 3 -55 15 -55 12 0 15 13 15 55 0 42 -3 55 -15 55
-12 0 -15 -13 -15 -55z"/>
<path d="M1080 840 c0 -11 7 -20 15 -20 8 0 15 9 15 20 0 11 -7 20 -15 20 -8
0 -15 -9 -15 -20z"/>
</g>
</svg>
