<?xml version="1.0" standalone="no"?>
<!DOCTYPE svg PUBLIC "-//W3C//DTD SVG 20010904//EN"
 "http://www.w3.org/TR/2001/REC-SVG-20010904/DTD/svg10.dtd">
<svg version="1.0" xmlns="http://www.w3.org/2000/svg"
 width="192.000000pt" height="192.000000pt" viewBox="0 0 192.000000 192.000000"
 preserveAspectRatio="xMidYMid meet">
<metadata>
Created by potrace 1.16, written by Peter Selinger 2001-2019
</metadata>
<g transform="translate(0.000000,192.000000) scale(0.100000,-0.100000)"
fill="#000000" stroke="none">
811 c445 -92 729 -532 635 -987 -62 -301 -295 -546 -601 -630 -91 -26 -329
-26 -420 0 -291 80 -516 305 -596 596 -26 91 -26 329 0 420 120 433 542 692
982 601z"/>
<path d="M791 1323 c-72 -38 -76 -49 -79 -289 -2 -125 -7 -214 -13 -214 -5 0
-9 83 -9 205 0 162 -3 205 -13 205 -34 0 -37 -22 -37 -257 0 -200 -2 -233 -15
-233 -13 0 -15 29 -15 200 0 157 -3 200 -13 200 -33 0 -37 -23 -37 -232 0
-234 6 -264 62 -298 31 -19 50 -20 333 -20 421 0 395 -24 395 372 0 289 -3
308 -63 352 -26 20 -44 21 -245 24 -192 2 -221 0 -251 -15z m99 -205 l17 -22
12 22 c6 12 21 22 31 22 19 0 19 -2 -4 -39 -24 -38 -24 -38 -5 -67 10 -16 19
-35 19 -41 0 -23 -27 -13 -39 14 l-13 28 -20 -28 c-17 -23 -56 -40 -46 -19 2
4 12 23 22 44 19 36 19 36 -3 72 -20 31 -21 36 -6 36 9 0 25 -10 35 -22z m210
3 c5 -11 10 -38 10 -60 0 -54 -26 -81 -80 -81 l-40 0 0 80 0 80 50 0 c38 0 52
-4 60 -19z m135 -59 c22 -69 19 -100 -8 -73 -14 14 -64 14 -72 1 -10 -16 -25
-11 -25 8 0 10 9 46 21 81 17 51 25 62 41 59 15 -2 26 -21 43 -76z m-120 -162
c0 -12 -22 -15 -129 -18 -125 -3 -156 3 -141 27 4 8 49 11 138 9 109 -3 132
-6 132 -18z m63 -82 c3 -17 -10 -18 -162 -18 -99 0 -167 4 -171 10 -16 26 12
30 168 28 145 -3 162 -5 165 -20z m-108 -88 c0 -20 -5 -21 -112 -18 -98 3
-113 5 -116 21 -3 15 7 17 112 17 110 0 116 -1 116 -20z"/>
<path d="M1020 1061 c0 -43 3 -51 19 -51 27 0 43 24 39 62 -2 28 -7 34 -30 36
-27 3 -28 2 -28 -47z"/>
<path d="M1182 1070 c-6 -15 -6 -29 -1 -34 15 -16 27 6 19 34 l-7 25 -11 -25z"/>
</g>
</svg>
