<?xml version="1.0" standalone="no"?>
<!DOCTYPE svg PUBLIC "-//W3C//DTD SVG 20010904//EN"
 "http://www.w3.org/TR/2001/REC-SVG-20010904/DTD/svg10.dtd">
<svg version="1.0" xmlns="http://www.w3.org/2000/svg"
 width="192.000000pt" height="192.000000pt" viewBox="0 0 192.000000 192.000000"
 preserveAspectRatio="xMidYMid meet">
<metadata>
Created by potrace 1.16, written by Peter Selinger 2001-2019
</metadata>
<g transform="translate(0.000000,192.000000) scale(0.100000,-0.100000)"
fill="#000000" stroke="none">
811 c445 -92 729 -532 635 -987 -62 -301 -295 -546 -601 -630 -91 -26 -329
-26 -420 0 -291 80 -516 305 -596 596 -26 91 -26 329 0 420 120 433 542 692
982 601z"/>
<path d="M659 1331 l-24 -20 24 -45 c32 -62 145 -168 320 -300 79 -60 178
-143 220 -185 42 -42 69 -67 61 -56 -48 65 -108 129 -174 185 l-75 63 96 91
c109 102 183 197 183 232 0 27 -34 54 -70 54 -14 0 -68 -20 -120 -45 -63 -30
-108 -45 -135 -45 -27 0 -72 15 -135 45 -105 50 -136 54 -171 26z"/>
<path d="M641 1176 c18 -27 79 -91 134 -142 l99 -94 -92 -86 c-151 -141 -214
-246 -163 -274 37 -19 85 -10 184 36 117 55 133 55 258 -6 89 -43 147 -51 173
-24 23 23 20 37 -21 91 -55 71 -159 164 -320 286 -78 59 -174 142 -214 185
-61 64 -67 69 -38 28z"/>
</g>
</svg>
