<?xml version="1.0" standalone="no"?>
<!DOCTYPE svg PUBLIC "-//W3C//DTD SVG 20010904//EN"
 "http://www.w3.org/TR/2001/REC-SVG-20010904/DTD/svg10.dtd">
<svg version="1.0" xmlns="http://www.w3.org/2000/svg"
 width="192.000000pt" height="192.000000pt" viewBox="0 0 192.000000 192.000000"
 preserveAspectRatio="xMidYMid meet">
<metadata>
Created by potrace 1.16, written by Peter Selinger 2001-2019
</metadata>
<g transform="translate(0.000000,192.000000) scale(0.100000,-0.100000)"
fill="#000000" stroke="none">
811 c445 -92 729 -532 635 -987 -62 -301 -295 -546 -601 -630 -91 -26 -329
-26 -420 0 -291 80 -516 305 -596 596 -26 91 -26 329 0 420 120 433 542 692
982 601z"/>
<path d="M776 1326 c-95 -35 -175 -71 -182 -81 -20 -27 -19 -236 2 -325 29
-129 121 -245 242 -306 112 -57 228 -32 342 73 115 106 150 203 150 414 0 117
-2 138 -17 151 -16 15 -343 139 -360 137 -5 0 -84 -28 -177 -63z m332 -238 c7
-7 12 -18 12 -26 0 -22 -181 -202 -202 -202 -10 0 -41 21 -68 46 -53 49 -67
95 -34 108 25 10 32 8 69 -26 l36 -31 72 71 c72 72 92 83 115 60z"/>
</g>
</svg>
