<?xml version="1.0" standalone="no"?>
<!DOCTYPE svg PUBLIC "-//W3C//DTD SVG 20010904//EN"
 "http://www.w3.org/TR/2001/REC-SVG-20010904/DTD/svg10.dtd">
<svg version="1.0" xmlns="http://www.w3.org/2000/svg"
 width="192.000000pt" height="192.000000pt" viewBox="0 0 192.000000 192.000000"
 preserveAspectRatio="xMidYMid meet">
<metadata>
Created by potrace 1.16, written by Peter Selinger 2001-2019
</metadata>
<g transform="translate(0.000000,192.000000) scale(0.100000,-0.100000)"
fill="#000000" stroke="none">
811 c445 -92 729 -532 635 -987 -62 -301 -295 -546 -601 -630 -91 -26 -329
-26 -420 0 -291 80 -516 305 -596 596 -26 91 -26 329 0 420 120 433 542 692
982 601z"/>
<path d="M700 1324 c-46 -20 -77 -50 -101 -97 -19 -35 -20 -56 -17 -276 3
-232 4 -238 27 -273 13 -19 40 -46 59 -59 35 -24 38 -24 287 -24 249 0 252 0
287 24 19 13 46 40 59 59 23 35 24 41 27 273 3 220 2 241 -17 276 -24 48 -56
78 -103 98 -54 22 -456 21 -508 -1z m-3 -281 l15 -38 19 38 c20 37 43 48 52
24 2 -7 -6 -33 -18 -57 l-23 -45 24 -48 c14 -26 22 -52 19 -57 -13 -20 -36 -9
-52 25 l-17 36 -18 -36 c-18 -34 -41 -45 -53 -25 -3 5 5 31 19 57 l24 48 -24
48 c-14 26 -22 52 -19 57 13 21 37 8 52 -27z m248 12 c0 -16 -8 -21 -42 -23
-34 -3 -43 -7 -43 -22 0 -14 8 -20 33 -22 24 -2 32 -8 32 -23 0 -15 -8 -21
-32 -23 -27 -3 -33 -7 -33 -28 0 -22 4 -24 45 -24 38 0 45 -3 45 -20 0 -18 -7
-20 -65 -20 l-65 0 0 108 c0 60 3 112 7 116 4 4 32 6 63 4 47 -3 55 -6 55 -23z
m165 10 c8 -9 10 -29 6 -52 -7 -45 -7 -47 -1 -98 6 -46 -6 -71 -29 -62 -11 4
-16 19 -16 47 0 36 -2 40 -25 40 -23 0 -25 -4 -25 -45 0 -38 -3 -45 -20 -45
-19 0 -20 7 -20 108 0 60 3 112 7 115 13 14 110 7 123 -8z m158 3 c13 -13 17
-173 6 -202 -5 -12 -21 -16 -70 -16 l-64 0 0 108 c0 60 3 112 7 115 11 12 108
8 121 -5z"/>
<path d="M1020 1010 c0 -15 7 -20 25 -20 18 0 25 5 25 20 0 15 -7 20 -25 20
-18 0 -25 -5 -25 -20z"/>
<path d="M1180 960 c0 -68 1 -70 25 -70 24 0 25 2 25 70 0 68 -1 70 -25 70
-24 0 -25 -2 -25 -70z"/>
</g>
</svg>
