<?xml version="1.0" standalone="no"?>
<!DOCTYPE svg PUBLIC "-//W3C//DTD SVG 20010904//EN"
 "http://www.w3.org/TR/2001/REC-SVG-20010904/DTD/svg10.dtd">
<svg version="1.0" xmlns="http://www.w3.org/2000/svg"
 width="192.000000pt" height="192.000000pt" viewBox="0 0 192.000000 192.000000"
 preserveAspectRatio="xMidYMid meet">
<metadata>
Created by potrace 1.16, written by Peter Selinger 2001-2019
</metadata>
<g transform="translate(0.000000,192.000000) scale(0.100000,-0.100000)"
fill="#000000" stroke="none">
811 c445 -92 729 -532 635 -987 -62 -301 -295 -546 -601 -630 -91 -26 -329
-26 -420 0 -291 80 -516 305 -596 596 -26 91 -26 329 0 420 120 433 542 692
982 601z"/>
<path d="M654 1245 c-4 -9 31 -66 90 -145 58 -79 94 -136 89 -143 -4 -7 -51
-72 -105 -146 -54 -74 -97 -139 -95 -145 2 -6 34 -12 74 -14 64 -3 74 0 101
23 17 14 53 55 79 91 26 35 50 64 54 64 3 0 41 -48 84 -106 55 -75 88 -110
111 -120 43 -18 138 -18 153 0 12 14 -19 61 -172 261 -45 59 -73 103 -68 110
85 108 181 250 179 263 -3 13 -16 18 -65 20 -81 4 -109 -11 -169 -93 -26 -36
-50 -65 -53 -65 -3 1 -26 30 -51 65 -25 36 -59 71 -77 80 -42 20 -152 20 -159
0z"/>
</g>
</svg>
