<?xml version="1.0" standalone="no"?>
<!DOCTYPE svg PUBLIC "-//W3C//DTD SVG 20010904//EN"
 "http://www.w3.org/TR/2001/REC-SVG-20010904/DTD/svg10.dtd">
<svg version="1.0" xmlns="http://www.w3.org/2000/svg"
 width="192.000000pt" height="192.000000pt" viewBox="0 0 192.000000 192.000000"
 preserveAspectRatio="xMidYMid meet">
<metadata>
Created by potrace 1.16, written by Peter Selinger 2001-2019
</metadata>
<g transform="translate(0.000000,192.000000) scale(0.100000,-0.100000)"
fill="#000000" stroke="none">
811 c445 -92 729 -532 635 -987 -62 -301 -295 -546 -601 -630 -91 -26 -329
-26 -420 0 -291 80 -516 305 -596 596 -26 91 -26 329 0 420 120 433 542 692
982 601z"/>
<path d="M774 1304 c-77 -41 -83 -48 -86 -122 l-3 -66 -55 -32 c-62 -37 -74
-63 -64 -150 6 -50 7 -52 65 -85 l59 -33 0 -67 c0 -65 0 -67 38 -92 20 -14 53
-33 73 -41 33 -14 37 -13 89 15 29 16 59 29 65 29 6 0 36 -13 65 -29 52 -28
56 -29 89 -15 20 8 53 27 74 41 37 25 37 27 37 93 l0 67 49 26 c27 15 53 33
58 39 16 20 24 82 17 127 -6 38 -12 45 -63 74 l-56 33 -3 64 c-4 75 -11 86
-89 125 l-56 29 -62 -33 -62 -33 -55 31 c-30 17 -59 31 -65 31 -5 0 -32 -12
-59 -26z m220 -257 c113 -69 113 -83 1 -151 -120 -73 -135 -65 -135 74 0 138
18 148 134 77z"/>
</g>
</svg>
