<?xml version="1.0" standalone="no"?>
<!DOCTYPE svg PUBLIC "-//W3C//DTD SVG 20010904//EN"
 "http://www.w3.org/TR/2001/REC-SVG-20010904/DTD/svg10.dtd">
<svg version="1.0" xmlns="http://www.w3.org/2000/svg"
 width="192.000000pt" height="192.000000pt" viewBox="0 0 192.000000 192.000000"
 preserveAspectRatio="xMidYMid meet">
<metadata>
Created by potrace 1.16, written by Peter Selinger 2001-2019
</metadata>
<g transform="translate(0.000000,192.000000) scale(0.100000,-0.100000)"
fill="#000000" stroke="none">
811 c445 -92 729 -532 635 -987 -62 -301 -295 -546 -601 -630 -91 -26 -329
-26 -420 0 -291 80 -516 305 -596 596 -26 91 -26 329 0 420 120 433 542 692
982 601z"/>
<path d="M579 1281 c-23 -18 -24 -26 -27 -161 -4 -163 2 -182 68 -201 l40 -12
0 -101 c0 -106 13 -146 47 -146 19 0 142 44 183 65 16 8 36 25 44 37 9 12 16
17 16 11 0 -19 84 -72 148 -94 105 -37 191 -51 220 -36 25 11 28 18 35 102 4
50 6 121 5 159 -3 58 -7 71 -28 88 -13 11 -36 22 -52 25 l-28 6 0 101 c0 109
-13 146 -50 146 -37 0 -188 -61 -210 -85 l-23 -24 -31 26 c-43 36 -123 70
-220 93 -100 25 -108 25 -137 1z m156 -102 c60 -14 155 -57 155 -69 0 -9 -86
-43 -138 -55 -18 -4 -46 -18 -62 -32 -26 -21 -31 -23 -36 -9 -11 28 6 185 19
181 7 -2 35 -9 62 -16z m425 -74 c0 -34 -4 -55 -11 -55 -19 0 -129 52 -129 61
0 9 97 48 123 48 14 1 17 -8 17 -54z m-200 -54 c0 -12 76 -61 119 -76 l36 -12
-66 -30 c-37 -17 -71 -38 -76 -48 -9 -15 -13 -14 -39 10 -16 15 -53 39 -83 53
l-55 25 52 20 c29 11 63 30 75 43 23 25 37 30 37 15z m290 -220 l0 -99 -57 15
c-78 20 -174 64 -170 77 2 6 41 23 88 39 46 15 93 36 104 47 11 11 23 20 27
20 5 0 8 -45 8 -99z m-413 23 c45 -22 52 -29 41 -39 -12 -12 -101 -45 -120
-45 -4 0 -8 25 -8 55 0 65 6 67 87 29z"/>
</g>
</svg>
