<?xml version="1.0" standalone="no"?>
<!DOCTYPE svg PUBLIC "-//W3C//DTD SVG 20010904//EN"
 "http://www.w3.org/TR/2001/REC-SVG-20010904/DTD/svg10.dtd">
<svg version="1.0" xmlns="http://www.w3.org/2000/svg"
 width="192.000000pt" height="192.000000pt" viewBox="0 0 192.000000 192.000000"
 preserveAspectRatio="xMidYMid meet">
<metadata>
Created by potrace 1.16, written by Peter Selinger 2001-2019
</metadata>
<g transform="translate(0.000000,192.000000) scale(0.100000,-0.100000)"
fill="#000000" stroke="none">
811 c445 -92 729 -532 635 -987 -62 -301 -295 -546 -601 -630 -91 -26 -329
-26 -420 0 -291 80 -516 305 -596 596 -26 91 -26 329 0 420 120 433 542 692
982 601z"/>
<path d="M878 1370 c-231 -41 -384 -281 -323 -505 33 -125 111 -216 232 -273
52 -24 69 -27 168 -27 104 0 114 2 176 32 161 79 259 262 230 429 -15 81 -34
127 -81 190 -88 117 -255 181 -402 154z m207 -109 c65 -29 138 -101 167 -165
34 -77 32 -192 -5 -268 -73 -148 -247 -218 -407 -164 -73 25 -167 119 -193
191 -76 219 89 443 318 432 44 -2 89 -12 120 -26z"/>
<path d="M862 1221 c-98 -34 -170 -126 -179 -231 -15 -159 107 -290 269 -290
114 0 197 50 245 148 72 147 -2 325 -158 375 -65 22 -111 21 -177 -2z m137
-177 c33 -20 65 -42 72 -50 24 -29 1 -62 -71 -105 -108 -64 -140 -44 -140 84
0 113 37 132 139 71z"/>
</g>
</svg>
