<?xml version="1.0" standalone="no"?>
<!DOCTYPE svg PUBLIC "-//W3C//DTD SVG 20010904//EN"
 "http://www.w3.org/TR/2001/REC-SVG-20010904/DTD/svg10.dtd">
<svg version="1.0" xmlns="http://www.w3.org/2000/svg"
 width="192.000000pt" height="192.000000pt" viewBox="0 0 192.000000 192.000000"
 preserveAspectRatio="xMidYMid meet">
<metadata>
Created by potrace 1.16, written by Peter Selinger 2001-2019
</metadata>
<g transform="translate(0.000000,192.000000) scale(0.100000,-0.100000)"
fill="#000000" stroke="none">
759 c272 -64 494 -285 566 -564 28 -110 28 -280 0 -390 -71 -278 -288 -495
-566 -566 -110 -28 -280 -28 -390 0 -277 71 -494 288 -566 566 -28 110 -28
280 0 390 108 421 524 667 956 564z"/>
<path d="M624 1291 c-52 -32 -56 -54 -52 -323 l3 -245 28 -36 c50 -66 70 -72
267 -72 l175 0 8 51 c8 50 8 51 -33 91 -36 36 -40 46 -40 90 0 48 16 84 48
111 26 20 31 14 34 -45 l3 -58 45 0 45 0 3 58 c3 66 17 73 55 27 50 -59 47
-130 -9 -186 -32 -31 -35 -39 -32 -82 l3 -47 41 1 c49 1 85 25 114 76 20 36
21 50 18 217 -3 199 -7 210 -78 259 -30 20 -44 22 -177 22 l-144 0 -47 44
c-65 60 -80 66 -169 66 -59 0 -86 -5 -109 -19z"/>
</g>
</svg>
