<?xml version="1.0" standalone="no"?>
<!DOCTYPE svg PUBLIC "-//W3C//DTD SVG 20010904//EN"
 "http://www.w3.org/TR/2001/REC-SVG-20010904/DTD/svg10.dtd">
<svg version="1.0" xmlns="http://www.w3.org/2000/svg"
 width="192.000000pt" height="192.000000pt" viewBox="0 0 192.000000 192.000000"
 preserveAspectRatio="xMidYMid meet">
<metadata>
Created by potrace 1.16, written by Peter Selinger 2001-2019
</metadata>
<g transform="translate(0.000000,192.000000) scale(0.100000,-0.100000)"
fill="#000000" stroke="none">
811 c445 -92 729 -532 635 -987 -62 -301 -295 -546 -601 -630 -91 -26 -329
-26 -420 0 -291 80 -516 305 -596 596 -26 91 -26 329 0 420 120 433 542 692
982 601z"/>
<path d="M1080 1340 c-41 -10 -110 -26 -153 -35 -48 -11 -89 -26 -105 -40 -25
-21 -27 -31 -32 -116 l-5 -92 -44 -13 c-24 -7 -54 -23 -67 -35 -24 -22 -24
-25 -24 -214 0 -173 2 -194 18 -208 25 -23 33 -22 225 22 215 48 220 52 221
177 l1 88 49 12 c89 23 91 27 94 240 4 254 2 257 -178 214z m98 -217 l-3 -148
-183 -41 c-179 -41 -211 -52 -198 -72 11 -19 136 -83 154 -80 10 2 19 16 22
33 4 24 11 31 33 33 27 3 27 3 27 -57 0 -33 -4 -62 -8 -65 -8 -5 -274 -66
-287 -66 -3 0 -5 68 -5 150 0 83 3 150 7 150 31 0 369 84 375 93 4 7 2 17 -5
23 -25 23 -142 82 -154 77 -7 -3 -13 -17 -13 -33 0 -28 -15 -40 -51 -40 -17 0
-19 8 -19 60 0 49 4 62 18 67 28 11 245 61 270 62 l23 1 -3 -147z"/>
</g>
</svg>
