<?xml version="1.0" standalone="no"?>
<!DOCTYPE svg PUBLIC "-//W3C//DTD SVG 20010904//EN"
 "http://www.w3.org/TR/2001/REC-SVG-20010904/DTD/svg10.dtd">
<svg version="1.0" xmlns="http://www.w3.org/2000/svg"
 width="192.000000pt" height="192.000000pt" viewBox="0 0 192.000000 192.000000"
 preserveAspectRatio="xMidYMid meet">
<metadata>
Created by potrace 1.16, written by Peter Selinger 2001-2019
</metadata>
<g transform="translate(0.000000,192.000000) scale(0.100000,-0.100000)"
fill="#000000" stroke="none">
811 c445 -92 729 -532 635 -987 -62 -301 -295 -546 -601 -630 -91 -26 -329
-26 -420 0 -291 80 -516 305 -596 596 -26 91 -26 329 0 420 120 433 542 692
982 601z"/>
<path d="M683 1323 c-25 -10 -11 -45 77 -194 l91 -152 -101 -168 c-55 -92
-100 -174 -100 -182 0 -8 7 -18 16 -21 25 -10 124 -7 144 4 10 5 42 49 71 97
29 49 58 96 64 105 10 15 19 4 65 -75 76 -129 86 -137 159 -137 69 0 91 6 91
27 0 8 -45 90 -100 182 l-101 168 91 152 c49 84 90 160 90 170 0 25 -19 31
-91 31 -72 0 -81 -8 -149 -128 l-46 -82 -53 95 c-29 52 -61 100 -71 105 -19
10 -125 13 -147 3z"/>
</g>
</svg>
