<?xml version="1.0" standalone="no"?>
<!DOCTYPE svg PUBLIC "-//W3C//DTD SVG 20010904//EN"
 "http://www.w3.org/TR/2001/REC-SVG-20010904/DTD/svg10.dtd">
<svg version="1.0" xmlns="http://www.w3.org/2000/svg"
 width="192.000000pt" height="192.000000pt" viewBox="0 0 192.000000 192.000000"
 preserveAspectRatio="xMidYMid meet">
<metadata>
Created by potrace 1.16, written by Peter Selinger 2001-2019
</metadata>
<g transform="translate(0.000000,192.000000) scale(0.100000,-0.100000)"
fill="#000000" stroke="none">
811 c445 -92 729 -532 635 -987 -62 -301 -295 -546 -601 -630 -91 -26 -329
-26 -420 0 -291 80 -516 305 -596 596 -26 91 -26 329 0 420 120 433 542 692
982 601z"/>
<path d="M844 1360 c-147 -29 -266 -154 -293 -305 -28 -157 60 -324 207 -393
50 -24 70 -27 157 -27 89 0 106 3 155 27 l55 27 62 -61 c54 -53 68 -62 99 -62
28 0 42 7 60 28 41 47 33 79 -40 155 l-65 66 21 60 c29 86 22 201 -17 281 -53
108 -150 181 -270 203 -65 12 -73 12 -131 1z m167 -190 c123 -63 133 -261 16
-338 -57 -38 -155 -42 -212 -10 -115 67 -135 219 -40 313 66 66 150 79 236 35z"/>
</g>
</svg>
