<?xml version="1.0" standalone="no"?>
<!DOCTYPE svg PUBLIC "-//W3C//DTD SVG 20010904//EN"
 "http://www.w3.org/TR/2001/REC-SVG-20010904/DTD/svg10.dtd">
<svg version="1.0" xmlns="http://www.w3.org/2000/svg"
 width="192.000000pt" height="192.000000pt" viewBox="0 0 192.000000 192.000000"
 preserveAspectRatio="xMidYMid meet">
<metadata>
Created by potrace 1.16, written by Peter Selinger 2001-2019
</metadata>
<g transform="translate(0.000000,192.000000) scale(0.100000,-0.100000)"
fill="#000000" stroke="none">
811 c445 -92 729 -532 635 -987 -62 -301 -295 -546 -601 -630 -91 -26 -329
-26 -420 0 -291 80 -516 305 -596 596 -26 91 -26 329 0 420 120 433 542 692
982 601z"/>
<path d="M691 1334 c-90 -45 -138 -133 -128 -232 8 -73 48 -138 111 -177 l49
-30 211 -5 c116 -3 218 -9 227 -13 19 -9 39 -49 39 -77 0 -10 -11 -32 -24 -47
l-24 -28 -276 -3 -275 -3 -21 -26 c-27 -34 -25 -69 5 -98 l24 -25 273 0 c150
0 289 5 309 10 48 13 118 75 140 124 23 51 25 143 3 194 -20 49 -70 100 -119
123 -35 16 -66 19 -233 19 -213 0 -242 6 -260 58 -13 38 8 89 43 102 15 6 138
10 286 10 246 0 260 1 279 20 28 28 26 81 -3 108 -23 22 -30 22 -303 22 l-280
0 -53 -26z"/>
</g>
</svg>
