<?xml version="1.0" standalone="no"?>
<!DOCTYPE svg PUBLIC "-//W3C//DTD SVG 20010904//EN"
 "http://www.w3.org/TR/2001/REC-SVG-20010904/DTD/svg10.dtd">
<svg version="1.0" xmlns="http://www.w3.org/2000/svg"
 width="192.000000pt" height="192.000000pt" viewBox="0 0 192.000000 192.000000"
 preserveAspectRatio="xMidYMid meet">
<metadata>
Created by potrace 1.16, written by Peter Selinger 2001-2019
</metadata>
<g transform="translate(0.000000,192.000000) scale(0.100000,-0.100000)"
fill="#000000" stroke="none">
811 c445 -92 729 -532 635 -987 -62 -301 -295 -546 -601 -630 -91 -26 -329
-26 -420 0 -291 80 -516 305 -596 596 -26 91 -26 329 0 420 120 433 542 692
982 601z"/>
<path d="M925 1261 c-52 -15 -80 -28 -113 -56 -30 -25 -32 -26 -63 -9 -70 36
-146 12 -182 -57 -21 -39 -17 -103 7 -127 13 -14 12 -20 -11 -59 -57 -98 -22
-217 79 -267 52 -26 53 -26 302 -26 142 0 267 5 288 10 148 41 185 236 64 337
-21 17 -39 44 -47 72 -16 54 -86 133 -142 160 -48 23 -138 34 -182 22z m-192
-120 c4 -4 2 -26 -5 -49 -10 -34 -18 -42 -51 -52 -47 -14 -67 -1 -67 42 0 44
42 82 83 74 17 -4 35 -10 40 -15z"/>
</g>
</svg>
