<?xml version="1.0" standalone="no"?>
<!DOCTYPE svg PUBLIC "-//W3C//DTD SVG 20010904//EN"
 "http://www.w3.org/TR/2001/REC-SVG-20010904/DTD/svg10.dtd">
<svg version="1.0" xmlns="http://www.w3.org/2000/svg"
 width="192.000000pt" height="192.000000pt" viewBox="0 0 192.000000 192.000000"
 preserveAspectRatio="xMidYMid meet">
<metadata>
Created by potrace 1.16, written by Peter Selinger 2001-2019
</metadata>
<g transform="translate(0.000000,192.000000) scale(0.100000,-0.100000)"
fill="#000000" stroke="none">
811 c445 -92 729 -532 635 -987 -62 -301 -295 -546 -601 -630 -91 -26 -329
-26 -420 0 -291 80 -516 305 -596 596 -26 91 -26 329 0 420 120 433 542 692
982 601z"/>
<path d="M870 1369 c-160 -31 -292 -171 -319 -337 -29 -178 70 -362 236 -440
52 -24 69 -27 168 -27 98 0 116 3 165 26 107 51 182 136 220 250 18 52 21 80
18 149 -6 107 -37 179 -110 256 -100 106 -237 151 -378 123z m224 -131 c42
-23 110 -96 132 -143 33 -69 31 -81 -11 -88 -129 -21 -281 -174 -302 -303 -7
-41 -19 -42 -88 -10 -57 26 -127 97 -150 152 -25 60 -21 68 41 87 70 22 154
77 194 127 35 44 77 131 86 176 6 31 7 32 42 22 21 -6 46 -15 56 -20z m-204
12 c0 -20 -29 -80 -55 -114 -44 -57 -175 -130 -175 -97 0 26 47 108 83 144 52
52 147 95 147 67z m335 -413 c-29 -62 -87 -120 -149 -148 -63 -28 -67 -26 -49
29 22 63 111 153 173 174 25 8 46 11 48 7 2 -4 -8 -32 -23 -62z"/>
</g>
</svg>
