<?xml version="1.0" standalone="no"?>
<!DOCTYPE svg PUBLIC "-//W3C//DTD SVG 20010904//EN"
 "http://www.w3.org/TR/2001/REC-SVG-20010904/DTD/svg10.dtd">
<svg version="1.0" xmlns="http://www.w3.org/2000/svg"
 width="192.000000pt" height="192.000000pt" viewBox="0 0 192.000000 192.000000"
 preserveAspectRatio="xMidYMid meet">
<metadata>
Created by potrace 1.16, written by Peter Selinger 2001-2019
</metadata>
<g transform="translate(0.000000,192.000000) scale(0.100000,-0.100000)"
fill="#000000" stroke="none">
810 c245 -63 441 -223 549 -451 55 -116 75 -212 75 -354 0 -141 -20 -238 -75
-352 -86 -182 -215 -312 -396 -398 -116 -55 -212 -75 -354 -75 -142 0 -238 20
-354 75 -228 108 -388 304 -451 549 -28 110 -28 292 0 402 76 298 303 526 600
603 106 28 298 28 406 1z"/>
<path d="M749 1337 c-58 -22 -96 -54 -118 -100 -19 -39 -21 -61 -21 -213 0
-189 10 -227 69 -277 51 -43 89 -49 298 -45 l191 3 43 30 c75 53 84 84 84 280
0 94 -3 182 -8 197 -9 35 -61 94 -101 116 -42 23 -381 29 -437 9z m369 -118
c41 -14 62 -49 62 -101 -1 -87 -27 -98 -232 -98 -180 0 -195 4 -218 60 -19 45
1 105 43 130 28 17 51 20 173 20 78 0 155 -5 172 -11z m-327 -279 c37 -20 15
-80 -30 -80 -14 0 -41 29 -41 45 0 16 27 45 41 45 6 0 19 -5 30 -10z m379 -4
c28 -35 -11 -93 -47 -70 -36 22 -23 84 17 84 10 0 23 -7 30 -14z"/>
<path d="M751 642 c-6 -11 -6 -24 0 -35 9 -15 31 -17 215 -17 180 0 205 2 211
16 3 9 2 24 -4 33 -9 14 -39 16 -211 19 -185 2 -202 1 -211 -16z"/>
</g>
</svg>
