<?xml version="1.0" standalone="no"?>
<!DOCTYPE svg PUBLIC "-//W3C//DTD SVG 20010904//EN"
 "http://www.w3.org/TR/2001/REC-SVG-20010904/DTD/svg10.dtd">
<svg version="1.0" xmlns="http://www.w3.org/2000/svg"
 width="192.000000pt" height="192.000000pt" viewBox="0 0 192.000000 192.000000"
 preserveAspectRatio="xMidYMid meet">
<metadata>
Created by potrace 1.16, written by Peter Selinger 2001-2019
</metadata>
<g transform="translate(0.000000,192.000000) scale(0.100000,-0.100000)"
fill="#000000" stroke="none">
811 c445 -92 729 -532 635 -987 -62 -301 -295 -546 -601 -630 -91 -26 -329
-26 -420 0 -291 80 -516 305 -596 596 -26 91 -26 329 0 420 120 433 542 692
982 601z"/>
<path d="M695 1321 c-49 -22 -91 -69 -105 -119 -6 -20 -10 -81 -8 -135 l3 -98
83 71 c121 102 135 100 297 -39 32 -28 64 -51 70 -51 7 0 74 52 149 116 153
129 154 130 99 203 -49 64 -81 71 -328 71 -192 0 -225 -3 -260 -19z"/>
<path d="M1212 935 c-129 -108 -140 -115 -179 -115 -34 0 -54 13 -151 97 -40
35 -80 63 -88 63 -9 0 -60 -37 -114 -82 -90 -76 -99 -86 -99 -118 -1 -43 28
-107 60 -137 52 -48 84 -53 316 -53 245 0 277 8 326 71 39 53 48 101 45 242
l-3 128 -113 -96z"/>
</g>
</svg>
