<?xml version="1.0" standalone="no"?>
<!DOCTYPE svg PUBLIC "-//W3C//DTD SVG 20010904//EN"
 "http://www.w3.org/TR/2001/REC-SVG-20010904/DTD/svg10.dtd">
<svg version="1.0" xmlns="http://www.w3.org/2000/svg"
 width="192.000000pt" height="192.000000pt" viewBox="0 0 192.000000 192.000000"
 preserveAspectRatio="xMidYMid meet">
<metadata>
Created by potrace 1.16, written by Peter Selinger 2001-2019
</metadata>
<g transform="translate(0.000000,192.000000) scale(0.100000,-0.100000)"
fill="#000000" stroke="none">
811 c445 -92 729 -532 635 -987 -62 -301 -295 -546 -601 -630 -91 -26 -329
-26 -420 0 -291 80 -516 305 -596 596 -26 91 -26 329 0 420 120 433 542 692
982 601z"/>
<path d="M655 1285 c-50 -25 -93 -82 -106 -139 -7 -32 -10 -112 -7 -211 4
-185 17 -224 90 -272 l42 -28 281 0 281 0 42 28 c23 15 52 46 64 70 22 39 23
54 23 232 0 215 -7 241 -79 299 l-38 31 -281 3 c-237 2 -287 0 -312 -13z m588
-105 c31 -25 41 -62 27 -105 -9 -27 -36 -49 -150 -125 -85 -56 -150 -92 -165
-92 -15 0 -80 36 -165 92 -114 76 -141 98 -150 125 -14 43 -4 80 27 105 24 19
42 20 288 20 246 0 264 -1 288 -20z"/>
</g>
</svg>
