<?xml version="1.0" standalone="no"?>
<!DOCTYPE svg PUBLIC "-//W3C//DTD SVG 20010904//EN"
 "http://www.w3.org/TR/2001/REC-SVG-20010904/DTD/svg10.dtd">
<svg version="1.0" xmlns="http://www.w3.org/2000/svg"
 width="192.000000pt" height="192.000000pt" viewBox="0 0 192.000000 192.000000"
 preserveAspectRatio="xMidYMid meet">
<metadata>
Created by potrace 1.16, written by Peter Selinger 2001-2019
</metadata>
<g transform="translate(0.000000,192.000000) scale(0.100000,-0.100000)"
fill="#000000" stroke="none">
811 c445 -92 729 -532 635 -987 -62 -301 -295 -546 -601 -630 -91 -26 -329
-26 -420 0 -291 80 -516 305 -596 596 -26 91 -26 329 0 420 120 433 542 692
982 601z"/>
<path d="M729 1335 c-15 -8 -32 -28 -37 -45 -11 -29 -13 -30 -76 -30 -91 0
-100 -11 -94 -114 7 -124 58 -201 150 -226 19 -6 58 -34 88 -63 33 -31 72 -58
98 -66 40 -13 42 -16 42 -53 l0 -38 -48 0 c-60 0 -92 -21 -92 -60 0 -52 25
-60 201 -60 l158 0 20 26 c27 34 26 40 -4 69 -19 20 -34 25 -75 25 l-50 0 0
38 c0 37 2 40 43 53 25 8 64 35 97 66 30 29 69 57 88 63 92 25 143 102 150
226 6 103 -3 114 -94 114 -63 0 -65 1 -76 30 -12 36 -53 60 -101 60 -53 0 -57
-10 -57 -157 0 -73 -3 -133 -6 -133 -4 0 -27 16 -51 36 l-44 36 -44 -36 c-24
-20 -46 -36 -49 -36 -3 0 -6 60 -6 133 0 90 -4 137 -12 145 -16 16 -87 14
-119 -3z m-47 -240 c2 -52 -1 -95 -5 -95 -43 0 -77 59 -77 135 l0 55 39 0 40
0 3 -95z m626 24 c-3 -63 -7 -74 -31 -95 -16 -13 -32 -24 -38 -24 -5 0 -9 42
-9 95 l0 95 41 0 41 0 -4 -71z"/>
</g>
</svg>
