<?xml version="1.0" standalone="no"?>
<!DOCTYPE svg PUBLIC "-//W3C//DTD SVG 20010904//EN"
 "http://www.w3.org/TR/2001/REC-SVG-20010904/DTD/svg10.dtd">
<svg version="1.0" xmlns="http://www.w3.org/2000/svg"
 width="192.000000pt" height="192.000000pt" viewBox="0 0 192.000000 192.000000"
 preserveAspectRatio="xMidYMid meet">
<metadata>
Created by potrace 1.16, written by Peter Selinger 2001-2019
</metadata>
<g transform="translate(0.000000,192.000000) scale(0.100000,-0.100000)"
fill="#000000" stroke="none">
811 c445 -92 729 -532 635 -987 -62 -301 -295 -546 -601 -630 -91 -26 -329
-26 -420 0 -291 80 -516 305 -596 596 -26 91 -26 329 0 420 120 433 542 692
982 601z"/>
<path d="M756 1178 c-13 -29 -54 -133 -92 -230 -51 -132 -73 -178 -86 -178
-45 0 -65 -39 -36 -68 15 -15 241 -17 269 -2 24 14 25 46 0 62 -18 11 -18 14
-3 57 8 25 18 50 22 54 4 5 31 -32 60 -82 29 -50 58 -91 65 -91 7 0 36 41 65
91 29 50 56 87 60 82 4 -4 14 -29 22 -54 15 -43 15 -46 -3 -57 -25 -16 -24
-48 0 -62 28 -15 254 -13 269 2 29 29 9 68 -36 68 -13 0 -40 58 -107 228 -61
153 -95 228 -106 230 -12 2 -34 -28 -75 -100 -31 -57 -65 -115 -74 -130 l-16
-26 -73 129 c-41 72 -80 129 -88 129 -8 0 -24 -24 -37 -52z"/>
</g>
</svg>
