<?xml version="1.0" standalone="no"?>
<!DOCTYPE svg PUBLIC "-//W3C//DTD SVG 20010904//EN"
 "http://www.w3.org/TR/2001/REC-SVG-20010904/DTD/svg10.dtd">
<svg version="1.0" xmlns="http://www.w3.org/2000/svg"
 width="192.000000pt" height="192.000000pt" viewBox="0 0 192.000000 192.000000"
 preserveAspectRatio="xMidYMid meet">
<metadata>
Created by potrace 1.16, written by Peter Selinger 2001-2019
</metadata>
<g transform="translate(0.000000,192.000000) scale(0.100000,-0.100000)"
fill="#000000" stroke="none">
811 c445 -92 729 -532 635 -987 -62 -301 -295 -546 -601 -630 -91 -26 -329
-26 -420 0 -291 80 -516 305 -596 596 -26 91 -26 329 0 420 120 433 542 692
982 601z"/>
<path d="M678 1307 c-87 -53 -98 -91 -98 -344 0 -217 6 -250 53 -302 50 -54
83 -61 322 -61 239 0 272 7 322 61 47 52 53 85 53 302 0 253 -11 291 -98 344
-36 22 -46 23 -277 23 -231 0 -241 -1 -277 -23z m252 -492 l0 -155 -97 0
c-161 0 -193 35 -193 209 l0 101 145 0 145 0 0 -155z m340 54 c0 -174 -32
-209 -192 -209 l-98 0 0 155 0 155 145 0 145 0 0 -101z"/>
</g>
</svg>
