<?xml version="1.0" standalone="no"?>
<!DOCTYPE svg PUBLIC "-//W3C//DTD SVG 20010904//EN"
 "http://www.w3.org/TR/2001/REC-SVG-20010904/DTD/svg10.dtd">
<svg version="1.0" xmlns="http://www.w3.org/2000/svg"
 width="192.000000pt" height="192.000000pt" viewBox="0 0 192.000000 192.000000"
 preserveAspectRatio="xMidYMid meet">
<metadata>
Created by potrace 1.16, written by Peter Selinger 2001-2019
</metadata>
<g transform="translate(0.000000,192.000000) scale(0.100000,-0.100000)"
fill="#000000" stroke="none">
811 c445 -92 729 -532 635 -987 -62 -301 -295 -546 -601 -630 -91 -26 -329
-26 -420 0 -291 80 -516 305 -596 596 -26 91 -26 329 0 420 120 433 542 692
982 601z"/>
<path d="M777 1344 c-31 -7 -70 -20 -86 -29 -60 -30 -61 -37 -61 -298 0 -156
4 -246 11 -260 6 -12 27 -38 46 -58 37 -39 36 -57 -1 -89 -26 -21 -19 -40 13
-40 17 0 33 5 36 10 8 14 432 14 440 0 7 -11 75 -14 75 -4 0 3 -13 23 -30 44
-26 32 -28 39 -15 50 8 7 28 33 45 58 l30 45 0 247 c0 243 0 247 -22 267 -59
53 -144 73 -306 72 -64 0 -143 -7 -175 -15z m216 -81 c4 -3 -3 -17 -15 -30
l-22 -23 -22 21 c-13 12 -21 26 -18 30 6 11 68 12 77 2z m-84 -57 c30 -31 32
-37 29 -97 l-3 -64 -110 0 -110 0 -3 73 c-2 46 2 79 9 88 15 18 63 32 115 33
33 1 46 -5 73 -33z m254 15 c27 -10 27 -12 27 -96 l0 -86 -107 3 -108 3 -3 64
c-3 61 -1 66 30 98 31 33 36 35 83 30 28 -3 62 -10 78 -16z m-336 -347 c8 -22
-17 -45 -46 -42 -32 4 -42 45 -16 65 20 14 52 2 62 -23z m328 6 c3 -5 1 -19
-5 -30 -16 -31 -64 -24 -68 9 -7 45 49 61 73 21z m-30 -240 c4 -7 -55 -10
-170 -10 -115 0 -174 3 -170 10 4 6 72 10 170 10 98 0 166 -4 170 -10z"/>
</g>
</svg>
