<?xml version="1.0" standalone="no"?>
<!DOCTYPE svg PUBLIC "-//W3C//DTD SVG 20010904//EN"
 "http://www.w3.org/TR/2001/REC-SVG-20010904/DTD/svg10.dtd">
<svg version="1.0" xmlns="http://www.w3.org/2000/svg"
 width="192.000000pt" height="192.000000pt" viewBox="0 0 192.000000 192.000000"
 preserveAspectRatio="xMidYMid meet">
<metadata>
Created by potrace 1.16, written by Peter Selinger 2001-2019
</metadata>
<g transform="translate(0.000000,192.000000) scale(0.100000,-0.100000)"
fill="#000000" stroke="none">
811 c445 -92 729 -532 635 -987 -62 -301 -295 -546 -601 -630 -91 -26 -329
-26 -420 0 -291 80 -516 305 -596 596 -26 91 -26 329 0 420 120 433 542 692
982 601z"/>
<path d="M864 1356 c-158 -51 -246 -215 -200 -370 30 -99 103 -170 210 -203
l56 -17 0 -82 c0 -77 2 -84 26 -103 64 -50 90 -22 205 219 93 193 94 196 94
270 -1 122 -60 217 -169 270 -59 28 -163 36 -222 16z m186 -181 c80 -76 53
-205 -50 -236 -139 -42 -245 112 -153 222 35 41 57 49 121 46 41 -3 59 -10 82
-32z"/>
<path d="M907 1112 c-38 -42 -8 -102 50 -102 55 0 85 67 45 103 -25 22 -75 21
-95 -1z"/>
</g>
</svg>
