<?xml version="1.0" standalone="no"?>
<!DOCTYPE svg PUBLIC "-//W3C//DTD SVG 20010904//EN"
 "http://www.w3.org/TR/2001/REC-SVG-20010904/DTD/svg10.dtd">
<svg version="1.0" xmlns="http://www.w3.org/2000/svg"
 width="192.000000pt" height="192.000000pt" viewBox="0 0 192.000000 192.000000"
 preserveAspectRatio="xMidYMid meet">
<metadata>
Created by potrace 1.16, written by Peter Selinger 2001-2019
</metadata>
<g transform="translate(0.000000,192.000000) scale(0.100000,-0.100000)"
fill="#000000" stroke="none">
811 c445 -92 729 -532 635 -987 -62 -301 -295 -546 -601 -630 -91 -26 -329
-26 -420 0 -291 80 -516 305 -596 596 -26 91 -26 329 0 420 120 433 542 692
982 601z"/>
<path d="M741 1339 c-92 -16 -106 -26 -109 -87 -3 -44 -6 -52 -23 -52 -17 0
-19 -7 -19 -71 0 -62 2 -71 20 -76 19 -5 20 -14 20 -179 0 -161 2 -176 20
-194 12 -12 20 -33 20 -54 0 -44 19 -58 72 -54 l43 3 5 45 5 45 163 3 162 2 0
-44 c0 -47 9 -56 60 -56 49 0 60 9 60 51 0 26 7 46 20 59 18 18 20 33 20 194
0 165 1 174 20 179 18 5 20 14 20 76 0 64 -2 71 -19 71 -17 0 -20 8 -23 52 -4
62 -15 71 -118 87 -77 13 -342 12 -419 0z m437 -85 c22 -6 22 -9 22 -165 l0
-159 -136 0 -136 0 31 35 c35 41 37 48 15 69 -24 25 -36 20 -99 -44 -58 -59
-60 -60 -115 -60 l-55 0 109 109 c86 86 107 113 104 132 -6 47 -42 36 -126
-40 l-77 -70 -3 91 c-1 50 -1 93 2 95 20 20 402 26 464 7z m-384 -410 c9 -8
16 -22 16 -29 0 -7 -7 -21 -16 -29 -30 -30 -74 -13 -74 29 0 42 44 59 74 29z
m374 4 c16 -16 15 -53 -3 -68 -19 -16 -45 -10 -61 15 -26 39 31 86 64 53z"/>
</g>
</svg>
