<?xml version="1.0" standalone="no"?>
<!DOCTYPE svg PUBLIC "-//W3C//DTD SVG 20010904//EN"
 "http://www.w3.org/TR/2001/REC-SVG-20010904/DTD/svg10.dtd">
<svg version="1.0" xmlns="http://www.w3.org/2000/svg"
 width="192.000000pt" height="192.000000pt" viewBox="0 0 192.000000 192.000000"
 preserveAspectRatio="xMidYMid meet">
<metadata>
Created by potrace 1.16, written by Peter Selinger 2001-2019
</metadata>
<g transform="translate(0.000000,192.000000) scale(0.100000,-0.100000)"
fill="#000000" stroke="none">
811 c445 -92 729 -532 635 -987 -62 -301 -295 -546 -601 -630 -91 -26 -329
-26 -420 0 -291 80 -516 305 -596 596 -26 91 -26 329 0 420 120 433 542 692
982 601z"/>
<path d="M822 1352 c-155 -55 -262 -190 -278 -351 -28 -260 225 -483 488 -431
170 33 304 172 326 335 23 182 -66 349 -227 427 -57 28 -79 32 -161 35 -74 3
-107 -1 -148 -15z m316 -94 c26 -26 -1 -68 -43 -68 -23 0 -23 -1 -27 -134 -3
-133 -3 -135 -32 -165 -94 -98 -243 9 -181 129 19 37 68 63 106 58 l29 -5 0
87 c0 53 5 91 12 98 7 7 37 12 68 12 31 0 61 -5 68 -12z m-210 -25 c3 -17 -6
-24 -49 -38 -251 -84 -207 -446 56 -463 78 -5 126 10 177 56 84 76 107 187 60
284 -25 50 -23 68 8 68 12 0 26 -16 42 -47 34 -71 33 -188 -4 -259 -53 -101
-147 -158 -263 -158 -124 -1 -237 75 -279 186 -23 60 -19 176 9 233 28 57 97
121 158 144 62 24 81 23 85 -6z"/>
</g>
</svg>
