<?xml version="1.0" standalone="no"?>
<!DOCTYPE svg PUBLIC "-//W3C//DTD SVG 20010904//EN"
 "http://www.w3.org/TR/2001/REC-SVG-20010904/DTD/svg10.dtd">
<svg version="1.0" xmlns="http://www.w3.org/2000/svg"
 width="192.000000pt" height="192.000000pt" viewBox="0 0 192.000000 192.000000"
 preserveAspectRatio="xMidYMid meet">
<metadata>
Created by potrace 1.16, written by Peter Selinger 2001-2019
</metadata>
<g transform="translate(0.000000,192.000000) scale(0.100000,-0.100000)"
fill="#000000" stroke="none">
811 c445 -92 729 -532 635 -987 -62 -301 -295 -546 -601 -630 -91 -26 -329
-26 -420 0 -291 80 -516 305 -596 596 -26 91 -26 329 0 420 120 433 542 692
982 601z"/>
<path d="M836 1235 c-56 -20 -107 -64 -143 -126 -17 -30 -56 -88 -86 -129 -62
-85 -72 -103 -81 -145 -5 -28 -4 -27 15 9 63 118 262 248 489 321 68 22 105
28 187 29 127 1 110 16 -31 27 -56 4 -119 12 -141 18 -56 15 -162 13 -209 -4z"/>
<path d="M1165 1149 c-188 -28 -425 -147 -540 -270 -63 -67 -82 -110 -66 -145
17 -39 67 -54 178 -54 206 0 413 89 556 239 94 98 118 180 64 216 -30 19 -117
26 -192 14z m39 -195 c23 -9 20 -46 -6 -79 -68 -87 -300 -171 -369 -135 -26
14 -24 33 8 71 75 89 290 173 367 143z"/>
</g>
</svg>
