<?xml version="1.0" standalone="no"?>
<!DOCTYPE svg PUBLIC "-//W3C//DTD SVG 20010904//EN"
 "http://www.w3.org/TR/2001/REC-SVG-20010904/DTD/svg10.dtd">
<svg version="1.0" xmlns="http://www.w3.org/2000/svg"
 width="192.000000pt" height="192.000000pt" viewBox="0 0 192.000000 192.000000"
 preserveAspectRatio="xMidYMid meet">
<metadata>
Created by potrace 1.16, written by Peter Selinger 2001-2019
</metadata>
<g transform="translate(0.000000,192.000000) scale(0.100000,-0.100000)"
fill="#000000" stroke="none">
811 c445 -92 729 -532 635 -987 -62 -301 -295 -546 -601 -630 -91 -26 -329
-26 -420 0 -291 80 -516 305 -596 596 -26 91 -26 329 0 420 120 433 542 692
982 601z"/>
<path d="M734 1331 c-50 -13 -101 -49 -126 -89 -22 -35 -23 -47 -26 -262 -3
-218 -2 -226 20 -269 13 -25 40 -59 61 -75 l39 -31 253 0 253 0 39 31 c56 44
84 106 81 174 l-3 55 -92 5 c-98 6 -125 19 -144 69 -13 32 6 87 34 104 12 6
63 14 112 17 l90 5 -1 71 c0 87 -24 132 -92 172 -47 27 -48 27 -257 29 -115 1
-224 -2 -241 -6z"/>
<path d="M1156 994 c-21 -21 -20 -37 3 -58 25 -23 59 -13 67 20 12 46 -37 72
-70 38z"/>
</g>
</svg>
