<?xml version="1.0" standalone="no"?>
<!DOCTYPE svg PUBLIC "-//W3C//DTD SVG 20010904//EN"
 "http://www.w3.org/TR/2001/REC-SVG-20010904/DTD/svg10.dtd">
<svg version="1.0" xmlns="http://www.w3.org/2000/svg"
 width="192.000000pt" height="192.000000pt" viewBox="0 0 192.000000 192.000000"
 preserveAspectRatio="xMidYMid meet">
<metadata>
Created by potrace 1.16, written by Peter Selinger 2001-2019
</metadata>
<g transform="translate(0.000000,192.000000) scale(0.100000,-0.100000)"
fill="#000000" stroke="none">
811 c445 -92 729 -532 635 -987 -62 -301 -295 -546 -601 -630 -91 -26 -329
-26 -420 0 -291 80 -516 305 -596 596 -26 91 -26 329 0 420 120 433 542 692
982 601z"/>
<path d="M694 1351 c-51 -23 -81 -54 -105 -106 -27 -58 -24 -110 11 -183 37
-78 38 -113 4 -186 -48 -104 -42 -173 19 -243 59 -67 148 -90 224 -58 47 20
66 37 114 102 49 65 64 74 155 84 119 13 191 64 215 151 36 134 -69 258 -218
258 -67 0 -107 24 -157 95 -51 71 -94 97 -171 102 -35 3 -63 -2 -91 -16z m161
-291 c16 -16 34 -30 40 -30 6 0 24 14 40 30 32 33 69 39 79 13 5 -11 -7 -31
-38 -62 -43 -44 -45 -49 -48 -111 -3 -63 -4 -65 -30 -68 -28 -3 -28 -3 -28 60
0 62 -1 65 -45 108 -42 41 -54 68 -38 83 14 15 41 6 68 -23z"/>
</g>
</svg>
