<?xml version="1.0" standalone="no"?>
<!DOCTYPE svg PUBLIC "-//W3C//DTD SVG 20010904//EN"
 "http://www.w3.org/TR/2001/REC-SVG-20010904/DTD/svg10.dtd">
<svg version="1.0" xmlns="http://www.w3.org/2000/svg"
 width="192.000000pt" height="192.000000pt" viewBox="0 0 192.000000 192.000000"
 preserveAspectRatio="xMidYMid meet">
<metadata>
Created by potrace 1.16, written by Peter Selinger 2001-2019
</metadata>
<g transform="translate(0.000000,192.000000) scale(0.100000,-0.100000)"
fill="#000000" stroke="none">
811 c445 -92 729 -532 635 -987 -62 -301 -295 -546 -601 -630 -91 -26 -329
-26 -420 0 -291 80 -516 305 -596 596 -26 91 -26 329 0 420 120 433 542 692
982 601z"/>
<path d="M932 1358 c-6 -6 -12 -17 -12 -23 0 -6 -26 -16 -58 -23 -177 -37
-306 -176 -307 -332 0 -73 -7 -69 92 -54 33 5 50 1 76 -15 42 -26 52 -26 84
-1 28 22 64 26 94 10 17 -10 19 -23 19 -154 0 -130 2 -146 21 -170 44 -56 139
-20 139 54 0 59 -61 64 -68 6 -2 -14 -8 -26 -13 -26 -5 0 -9 60 -9 140 0 127
2 140 19 150 30 15 63 12 91 -10 31 -25 49 -25 80 0 28 22 72 25 119 9 49 -17
65 2 58 68 -16 154 -148 292 -309 324 -39 8 -57 17 -64 32 -11 26 -34 33 -52
15z m136 -229 c11 -30 23 -72 26 -94 l7 -40 -56 0 -55 0 0 125 1 125 28 -31
c16 -18 38 -56 49 -85z m-284 46 c-13 -31 -29 -84 -36 -118 l-12 -63 -58 0
c-66 1 -69 6 -39 71 25 55 67 103 120 137 25 15 46 28 47 28 2 0 -8 -25 -22
-55z"/>
</g>
</svg>
