<?xml version="1.0" standalone="no"?>
<!DOCTYPE svg PUBLIC "-//W3C//DTD SVG 20010904//EN"
 "http://www.w3.org/TR/2001/REC-SVG-20010904/DTD/svg10.dtd">
<svg version="1.0" xmlns="http://www.w3.org/2000/svg"
 width="192.000000pt" height="192.000000pt" viewBox="0 0 192.000000 192.000000"
 preserveAspectRatio="xMidYMid meet">
<metadata>
Created by potrace 1.16, written by Peter Selinger 2001-2019
</metadata>
<g transform="translate(0.000000,192.000000) scale(0.100000,-0.100000)"
fill="#000000" stroke="none">
811 c445 -92 729 -532 635 -987 -62 -301 -295 -546 -601 -630 -91 -26 -329
-26 -420 0 -291 80 -516 305 -596 596 -26 91 -26 329 0 420 120 433 542 692
982 601z"/>
<path d="M907 1320 c-14 -16 -27 -33 -29 -37 -1 -4 -20 -21 -40 -36 -21 -15
-38 -34 -38 -41 0 -7 18 -25 40 -40 32 -21 40 -32 40 -56 0 -30 1 -30 53 -30
29 0 62 -6 72 -14 17 -12 34 -12 73 0 10 3 9 11 -4 36 -9 18 -23 37 -31 41
-20 12 -6 27 28 27 22 0 29 5 29 20 0 11 7 20 15 20 8 0 15 -9 15 -20 0 -15 7
-20 29 -20 35 0 48 -15 25 -28 -9 -5 -23 -24 -30 -41 -14 -34 -16 -31 35 -47
10 -3 11 -8 4 -15 -8 -8 -21 -8 -45 0 -40 13 -103 -3 -91 -22 4 -7 10 -37 13
-67 l5 -55 85 -3 c179 -7 193 11 188 249 -3 151 -4 159 -27 183 l-24 26 -183
0 -182 0 -25 -30z"/>
<path d="M1090 1132 c0 -5 6 -17 14 -27 13 -18 14 -18 25 3 16 29 14 32 -14
32 -14 0 -25 -4 -25 -8z"/>
<path d="M613 1025 c-46 -20 -55 -61 -51 -242 3 -144 4 -153 27 -177 l24 -26
183 0 182 0 25 30 c14 16 27 33 29 37 1 4 20 21 41 36 20 15 37 34 37 41 0 7
-18 25 -40 40 l-40 26 0 86 c0 100 -15 137 -61 153 -47 16 -316 14 -356 -4z
m224 -205 c13 -41 23 -81 23 -87 0 -21 -27 -15 -33 7 -3 14 -14 20 -32 20 -18
0 -29 -6 -32 -20 -6 -22 -33 -28 -33 -7 0 10 30 113 45 155 3 8 13 12 22 10
12 -2 24 -27 40 -78z"/>
<path d="M787 829 c-10 -37 -8 -49 8 -49 16 0 18 23 6 54 -7 18 -8 18 -14 -5z"/>
</g>
</svg>
