<?xml version="1.0" standalone="no"?>
<!DOCTYPE svg PUBLIC "-//W3C//DTD SVG 20010904//EN"
 "http://www.w3.org/TR/2001/REC-SVG-20010904/DTD/svg10.dtd">
<svg version="1.0" xmlns="http://www.w3.org/2000/svg"
 width="192.000000pt" height="192.000000pt" viewBox="0 0 192.000000 192.000000"
 preserveAspectRatio="xMidYMid meet">
<metadata>
Created by potrace 1.16, written by Peter Selinger 2001-2019
</metadata>
<g transform="translate(0.000000,192.000000) scale(0.100000,-0.100000)"
fill="#000000" stroke="none">
811 c445 -92 729 -532 635 -987 -62 -301 -295 -546 -601 -630 -91 -26 -329
-26 -420 0 -291 80 -516 305 -596 596 -26 91 -26 329 0 420 120 433 542 692
982 601z"/>
<path d="M675 1288 c-43 -16 -77 -44 -102 -86 -22 -35 -23 -48 -23 -230 0
-139 4 -202 14 -225 16 -39 76 -94 114 -104 35 -10 519 -10 554 0 38 10 98 65
114 104 10 23 14 86 14 223 0 184 -6 230 -31 230 -6 0 -89 -61 -185 -135 -95
-74 -181 -135 -190 -135 -9 0 -75 43 -146 96 -102 77 -128 101 -126 118 6 42
42 29 159 -57 l114 -85 65 51 c217 172 250 199 250 211 0 28 -76 36 -321 35
-146 0 -256 -5 -274 -11z"/>
</g>
</svg>
