<?xml version="1.0" standalone="no"?>
<!DOCTYPE svg PUBLIC "-//W3C//DTD SVG 20010904//EN"
 "http://www.w3.org/TR/2001/REC-SVG-20010904/DTD/svg10.dtd">
<svg version="1.0" xmlns="http://www.w3.org/2000/svg"
 width="192.000000pt" height="192.000000pt" viewBox="0 0 192.000000 192.000000"
 preserveAspectRatio="xMidYMid meet">
<metadata>
Created by potrace 1.16, written by Peter Selinger 2001-2019
</metadata>
<g transform="translate(0.000000,192.000000) scale(0.100000,-0.100000)"
fill="#000000" stroke="none">
811 c445 -92 729 -532 635 -987 -62 -301 -295 -546 -601 -630 -91 -26 -329
-26 -420 0 -291 80 -516 305 -596 596 -26 91 -26 329 0 420 120 433 542 692
982 601z"/>
<path d="M658 1335 c-32 -18 -52 -72 -39 -107 5 -13 60 -73 123 -132 l113
-108 5 -175 5 -175 34 -30 c28 -25 39 -29 70 -24 21 3 45 16 59 31 21 25 22
34 22 193 l0 167 122 122 c110 110 122 126 122 157 0 40 -31 81 -69 90 -41 10
-77 -12 -172 -106 l-92 -91 -58 51 c-32 27 -74 67 -93 87 -60 63 -102 77 -152
50z"/>
</g>
</svg>
