<?xml version="1.0" standalone="no"?>
<!DOCTYPE svg PUBLIC "-//W3C//DTD SVG 20010904//EN"
 "http://www.w3.org/TR/2001/REC-SVG-20010904/DTD/svg10.dtd">
<svg version="1.0" xmlns="http://www.w3.org/2000/svg"
 width="192.000000pt" height="192.000000pt" viewBox="0 0 192.000000 192.000000"
 preserveAspectRatio="xMidYMid meet">
<metadata>
Created by potrace 1.16, written by Peter Selinger 2001-2019
</metadata>
<g transform="translate(0.000000,192.000000) scale(0.100000,-0.100000)"
fill="#000000" stroke="none">
811 c445 -92 729 -532 635 -987 -62 -301 -295 -546 -601 -630 -91 -26 -329
-26 -420 0 -291 80 -516 305 -596 596 -26 91 -26 329 0 420 120 433 542 692
982 601z"/>
<path d="M564 1326 c-14 -37 0 -51 54 -54 61 -4 52 18 87 -220 14 -95 30 -183
36 -195 21 -47 42 -52 249 -55 203 -4 253 3 284 37 20 21 83 328 73 354 -6 15
-33 17 -301 17 l-294 0 -6 45 c-10 63 -41 85 -118 85 -42 0 -60 -4 -64 -14z"/>
<path d="M785 748 c-15 -14 -28 -38 -32 -60 -5 -32 -1 -41 25 -68 40 -40 88
-41 126 -4 37 37 35 86 -3 125 -36 36 -79 38 -116 7z"/>
<path d="M1099 741 c-60 -60 -22 -150 64 -151 83 0 120 100 56 154 -41 35 -83
34 -120 -3z"/>
</g>
</svg>
