<?xml version="1.0" standalone="no"?>
<!DOCTYPE svg PUBLIC "-//W3C//DTD SVG 20010904//EN"
 "http://www.w3.org/TR/2001/REC-SVG-20010904/DTD/svg10.dtd">
<svg version="1.0" xmlns="http://www.w3.org/2000/svg"
 width="192.000000pt" height="192.000000pt" viewBox="0 0 192.000000 192.000000"
 preserveAspectRatio="xMidYMid meet">
<metadata>
Created by potrace 1.16, written by Peter Selinger 2001-2019
</metadata>
<g transform="translate(0.000000,192.000000) scale(0.100000,-0.100000)"
fill="#000000" stroke="none">
811 c445 -92 729 -532 635 -987 -62 -301 -295 -546 -601 -630 -91 -26 -329
-26 -420 0 -291 80 -516 305 -596 596 -26 91 -26 329 0 420 120 433 542 692
982 601z"/>
<path d="M807 1346 c-82 -34 -134 -73 -179 -133 -131 -173 -111 -394 48 -543
87 -81 149 -104 280 -105 96 0 103 2 176 38 88 43 152 107 195 195 26 52 28
67 28 167 0 99 -3 116 -27 168 -37 80 -117 160 -197 199 -58 29 -76 33 -165
36 -89 2 -108 0 -159 -22z m195 -201 c29 28 71 67 94 88 l40 38 47 -42 c26
-22 47 -44 47 -48 0 -5 -47 -55 -105 -111 l-105 -104 0 -173 0 -173 -70 0 -70
0 0 179 0 179 -104 97 c-70 64 -103 101 -99 111 3 8 26 31 51 50 l46 35 88
-88 88 -87 52 49z"/>
</g>
</svg>
