<?xml version="1.0" standalone="no"?>
<!DOCTYPE svg PUBLIC "-//W3C//DTD SVG 20010904//EN"
 "http://www.w3.org/TR/2001/REC-SVG-20010904/DTD/svg10.dtd">
<svg version="1.0" xmlns="http://www.w3.org/2000/svg"
 width="192.000000pt" height="192.000000pt" viewBox="0 0 192.000000 192.000000"
 preserveAspectRatio="xMidYMid meet">
<metadata>
Created by potrace 1.16, written by Peter Selinger 2001-2019
</metadata>
<g transform="translate(0.000000,192.000000) scale(0.100000,-0.100000)"
fill="#000000" stroke="none">
811 c445 -92 729 -532 635 -987 -62 -301 -295 -546 -601 -630 -91 -26 -329
-26 -420 0 -291 80 -516 305 -596 596 -26 91 -26 329 0 420 120 433 542 692
982 601z"/>
<path d="M889 1353 c-14 -9 -30 -23 -36 -32 -6 -9 -76 -171 -158 -360 -129
-300 -146 -346 -136 -367 6 -14 21 -28 33 -33 26 -10 43 -4 215 68 68 28 133
51 146 51 13 0 94 -29 180 -65 145 -61 159 -65 185 -53 51 24 44 49 -113 414
-161 376 -172 394 -248 394 -23 0 -54 -8 -68 -17z"/>
</g>
</svg>
