<?xml version="1.0" standalone="no"?>
<!DOCTYPE svg PUBLIC "-//W3C//DTD SVG 20010904//EN"
 "http://www.w3.org/TR/2001/REC-SVG-20010904/DTD/svg10.dtd">
<svg version="1.0" xmlns="http://www.w3.org/2000/svg"
 width="192.000000pt" height="192.000000pt" viewBox="0 0 192.000000 192.000000"
 preserveAspectRatio="xMidYMid meet">
<metadata>
Created by potrace 1.16, written by Peter Selinger 2001-2019
</metadata>
<g transform="translate(0.000000,192.000000) scale(0.100000,-0.100000)"
fill="#000000" stroke="none">
811 c445 -92 729 -532 635 -987 -62 -301 -295 -546 -601 -630 -91 -26 -329
-26 -420 0 -291 80 -516 305 -596 596 -26 91 -26 329 0 420 120 433 542 692
982 601z"/>
<path d="M739 1348 c-8 -15 -11 -83 -8 -227 l4 -205 -67 -39 -68 -39 0 -123
c0 -101 3 -127 16 -140 10 -9 25 -15 34 -12 9 2 175 98 368 212 255 150 352
212 352 225 0 12 -31 36 -97 74 l-96 57 -109 -65 -108 -65 0 128 0 129 -99 56
c-54 31 -102 56 -105 56 -3 0 -11 -10 -17 -22z"/>
</g>
</svg>
