<?xml version="1.0" standalone="no"?>
<!DOCTYPE svg PUBLIC "-//W3C//DTD SVG 20010904//EN"
 "http://www.w3.org/TR/2001/REC-SVG-20010904/DTD/svg10.dtd">
<svg version="1.0" xmlns="http://www.w3.org/2000/svg"
 width="192.000000pt" height="192.000000pt" viewBox="0 0 192.000000 192.000000"
 preserveAspectRatio="xMidYMid meet">
<metadata>
Created by potrace 1.16, written by Peter Selinger 2001-2019
</metadata>
<g transform="translate(0.000000,192.000000) scale(0.100000,-0.100000)"
fill="#000000" stroke="none">
811 c445 -92 729 -532 635 -987 -62 -301 -295 -546 -601 -630 -91 -26 -329
-26 -420 0 -291 80 -516 305 -596 596 -26 91 -26 329 0 420 120 433 542 692
982 601z"/>
<path d="M817 1362 c-21 -23 -22 -82 -2 -108 22 -29 18 -34 -23 -34 -52 0
-132 -42 -161 -85 -26 -39 -51 -122 -51 -170 0 -52 28 -164 55 -223 35 -77 95
-153 138 -176 32 -18 41 -19 106 -6 57 11 83 11 145 0 69 -12 78 -11 113 7 51
27 132 146 162 241 30 93 33 198 8 264 -32 83 -124 148 -209 148 -25 0 -27 2
-18 26 14 36 12 60 -6 79 -20 19 -49 12 -86 -22 -25 -24 -26 -24 -33 -4 -3 11
-19 34 -35 50 -33 36 -78 41 -103 13z"/>
</g>
</svg>
