<?xml version="1.0" standalone="no"?>
<!DOCTYPE svg PUBLIC "-//W3C//DTD SVG 20010904//EN"
 "http://www.w3.org/TR/2001/REC-SVG-20010904/DTD/svg10.dtd">
<svg version="1.0" xmlns="http://www.w3.org/2000/svg"
 width="192.000000pt" height="192.000000pt" viewBox="0 0 192.000000 192.000000"
 preserveAspectRatio="xMidYMid meet">
<metadata>
Created by potrace 1.16, written by Peter Selinger 2001-2019
</metadata>
<g transform="translate(0.000000,192.000000) scale(0.100000,-0.100000)"
fill="#000000" stroke="none">
811 c445 -92 729 -532 635 -987 -62 -301 -295 -546 -601 -630 -91 -26 -329
-26 -420 0 -291 80 -516 305 -596 596 -26 91 -26 329 0 420 120 433 542 692
982 601z"/>
<path d="M1014 1358 c-9 -13 23 -38 49 -38 36 0 76 -39 90 -88 10 -35 19 -47
33 -47 16 0 19 7 17 39 -5 77 -77 146 -151 146 -17 0 -34 -5 -38 -12z"/>
<path d="M1026 1278 c-23 -13 -20 -27 9 -38 14 -5 30 -21 35 -36 7 -16 16 -24
28 -22 25 5 26 40 3 70 -24 30 -51 39 -75 26z"/>
<path d="M764 1251 c-40 -18 -78 -57 -89 -90 -3 -10 -17 -24 -30 -31 -30 -16
-32 -31 -5 -48 17 -10 20 -23 20 -86 0 -79 12 -125 43 -169 24 -35 96 -89 108
-81 5 3 9 64 9 136 0 113 3 138 21 175 25 51 72 90 129 107 l41 12 -22 28
c-48 61 -148 82 -225 47z m34 -129 c4 -28 -24 -40 -45 -19 -21 21 -9 49 19 45
15 -2 24 -11 26 -26z"/>
<path d="M961 1103 c-41 -21 -60 -39 -78 -73 -23 -43 -23 -50 -21 -254 l3
-211 106 0 c100 0 108 2 155 30 30 19 60 49 79 79 26 43 30 60 33 135 3 77 7
89 30 114 l27 28 -32 27 c-17 15 -38 42 -47 60 -24 46 -83 82 -147 89 -46 4
-62 1 -108 -24z m178 -117 c17 -20 3 -46 -24 -46 -29 0 -38 13 -30 40 7 23 37
26 54 6z"/>
</g>
</svg>
