<?xml version="1.0" standalone="no"?>
<!DOCTYPE svg PUBLIC "-//W3C//DTD SVG 20010904//EN"
 "http://www.w3.org/TR/2001/REC-SVG-20010904/DTD/svg10.dtd">
<svg version="1.0" xmlns="http://www.w3.org/2000/svg"
 width="192.000000pt" height="192.000000pt" viewBox="0 0 192.000000 192.000000"
 preserveAspectRatio="xMidYMid meet">
<metadata>
Created by potrace 1.16, written by Peter Selinger 2001-2019
</metadata>
<g transform="translate(0.000000,192.000000) scale(0.100000,-0.100000)"
fill="#000000" stroke="none">
811 c445 -92 729 -532 635 -987 -62 -301 -295 -546 -601 -630 -91 -26 -329
-26 -420 0 -291 80 -516 305 -596 596 -26 91 -26 329 0 420 120 433 542 692
982 601z"/>
<path d="M622 1389 c-77 -38 -147 -148 -114 -181 30 -30 320 -198 342 -198 34
0 50 17 50 52 0 30 -129 287 -163 326 -26 28 -60 28 -115 1z"/>
<path d="M1014 1282 c-18 -11 -30 -42 -49 -120 -9 -39 -14 -83 -11 -97 8 -33
49 -59 80 -51 36 9 181 128 184 152 9 59 -152 151 -204 116z"/>
<path d="M1180 999 c-85 -17 -117 -29 -135 -49 -16 -18 -16 -22 -2 -43 18 -28
189 -147 211 -147 8 0 26 10 40 23 21 18 26 34 32 97 5 67 4 78 -16 103 -23
29 -47 32 -130 16z"/>
<path d="M700 960 c-76 -7 -88 -13 -101 -47 -8 -21 -3 -40 28 -105 37 -80 62
-108 95 -108 39 0 188 162 188 204 0 12 -10 32 -23 44 -25 24 -57 26 -187 12z"/>
<path d="M941 862 c-35 -35 -81 -225 -62 -260 20 -37 43 -43 126 -31 81 12
115 37 115 83 -1 11 -24 66 -53 120 -61 117 -83 132 -126 88z"/>
</g>
</svg>
