<?xml version="1.0" standalone="no"?>
<!DOCTYPE svg PUBLIC "-//W3C//DTD SVG 20010904//EN"
 "http://www.w3.org/TR/2001/REC-SVG-20010904/DTD/svg10.dtd">
<svg version="1.0" xmlns="http://www.w3.org/2000/svg"
 width="192.000000pt" height="192.000000pt" viewBox="0 0 192.000000 192.000000"
 preserveAspectRatio="xMidYMid meet">
<metadata>
Created by potrace 1.16, written by Peter Selinger 2001-2019
</metadata>
<g transform="translate(0.000000,192.000000) scale(0.100000,-0.100000)"
fill="#000000" stroke="none">
811 c445 -92 729 -532 635 -987 -62 -301 -295 -546 -601 -630 -91 -26 -329
-26 -420 0 -291 80 -516 305 -596 596 -26 91 -26 329 0 420 120 433 542 692
982 601z"/>
<path d="M1067 1288 c-14 -18 -46 -71 -72 -117 -53 -92 -55 -91 -75 7 -10 50
-20 68 -46 92 -44 38 -95 48 -130 25 -25 -16 -26 -21 -20 -70 8 -72 41 -177
81 -256 l33 -67 -41 -88 c-50 -107 -63 -210 -32 -245 29 -31 87 -44 121 -28
34 17 44 36 84 163 38 125 101 250 190 380 42 61 70 112 70 127 0 47 -68 109
-119 109 -11 0 -31 -15 -44 -32z"/>
</g>
</svg>
