<?xml version="1.0" standalone="no"?>
<!DOCTYPE svg PUBLIC "-//W3C//DTD SVG 20010904//EN"
 "http://www.w3.org/TR/2001/REC-SVG-20010904/DTD/svg10.dtd">
<svg version="1.0" xmlns="http://www.w3.org/2000/svg"
 width="192.000000pt" height="192.000000pt" viewBox="0 0 192.000000 192.000000"
 preserveAspectRatio="xMidYMid meet">
<metadata>
Created by potrace 1.16, written by Peter Selinger 2001-2019
</metadata>
<g transform="translate(0.000000,192.000000) scale(0.100000,-0.100000)"
fill="#000000" stroke="none">
811 c445 -92 729 -532 635 -987 -62 -301 -295 -546 -601 -630 -91 -26 -329
-26 -420 0 -291 80 -516 305 -596 596 -26 91 -26 329 0 420 120 433 542 692
982 601z"/>
<path d="M1198 1243 l-88 -88 -43 43 c-44 43 -80 54 -91 26 -11 -28 -7 -34 51
-95 79 -83 85 -81 205 40 55 56 98 107 98 118 0 21 -18 43 -35 43 -5 0 -49
-39 -97 -87z"/>
<path d="M560 1052 c0 -6 10 -32 21 -59 12 -26 25 -79 28 -118 5 -63 8 -70 29
-73 21 -3 22 0 22 52 0 33 9 77 21 108 42 106 41 98 15 98 -19 0 -27 -8 -36
-37 -18 -57 -26 -59 -42 -11 -11 31 -21 44 -36 46 -12 2 -22 -1 -22 -6z"/>
<path d="M742 933 l3 -128 68 -3 c62 -3 67 -1 67 18 0 17 -6 20 -45 20 -45 0
-45 0 -45 35 0 33 2 35 35 35 28 0 35 4 35 20 0 16 -7 20 -35 20 -33 0 -35 2
-35 34 0 34 1 35 42 38 31 2 44 8 46 21 3 15 -5 17 -68 17 l-71 0 3 -127z"/>
<path d="M912 1048 c-6 -6 -12 -35 -12 -64 l0 -52 43 -14 c37 -13 42 -18 42
-44 0 -22 -5 -29 -20 -29 -13 0 -21 8 -23 23 -2 14 -10 22 -23 22 -15 0 -19
-7 -19 -33 0 -44 15 -57 65 -57 23 0 46 5 53 12 7 7 12 37 12 68 l0 56 -42 14
c-35 12 -43 20 -43 40 0 18 6 26 23 28 17 3 22 -2 22 -17 0 -15 6 -21 21 -21
17 0 20 5 17 38 -3 37 -3 37 -53 40 -30 2 -55 -2 -63 -10z"/>
<path d="M560 675 c0 -85 3 -105 15 -105 10 0 15 16 17 63 l3 62 15 -58 c8
-32 19 -59 24 -60 5 -1 15 20 22 46 17 68 24 69 24 4 0 -44 3 -57 15 -57 12 0
15 18 15 105 0 104 0 105 -24 105 -21 0 -25 -7 -35 -60 -7 -33 -14 -60 -16
-60 -2 0 -9 27 -16 60 -10 53 -14 60 -35 60 -24 0 -24 -1 -24 -105z"/>
<path d="M744 767 c-2 -7 -4 -51 -2 -98 3 -82 4 -84 31 -93 52 -19 62 -1 62
105 l0 94 -43 3 c-29 2 -44 -1 -48 -11z m66 -87 c0 -63 -2 -70 -20 -70 -18 0
-20 7 -20 70 0 63 2 70 20 70 18 0 20 -7 20 -70z"/>
<path d="M870 675 l0 -105 39 0 c60 0 70 16 67 107 -2 43 -4 84 -5 91 -1 8
-18 12 -51 12 l-50 0 0 -105z m70 50 c0 -16 -6 -25 -15 -25 -9 0 -15 9 -15 25
0 16 6 25 15 25 9 0 15 -9 15 -25z m0 -90 c0 -16 -6 -25 -15 -25 -9 0 -15 9
-15 25 0 16 6 25 15 25 9 0 15 -9 15 -25z"/>
<path d="M1002 678 c2 -84 6 -103 18 -103 12 0 16 19 18 103 3 97 2 102 -18
102 -20 0 -21 -5 -18 -102z"/>
<path d="M1070 674 l0 -105 47 3 c36 2 49 7 51 21 3 14 -4 17 -32 17 l-36 0 0
85 c0 69 -3 85 -15 85 -12 0 -15 -18 -15 -106z"/>
<path d="M1190 675 l0 -105 50 0 c43 0 50 3 50 20 0 16 -7 20 -35 20 -31 0
-35 3 -35 25 0 21 5 25 30 25 23 0 30 4 30 20 0 16 -7 20 -30 20 -25 0 -30 4
-30 25 0 22 4 25 35 25 24 0 35 5 35 15 0 11 -12 15 -50 15 l-50 0 0 -105z"/>
</g>
</svg>
