<?xml version="1.0" standalone="no"?>
<!DOCTYPE svg PUBLIC "-//W3C//DTD SVG 20010904//EN"
 "http://www.w3.org/TR/2001/REC-SVG-20010904/DTD/svg10.dtd">
<svg version="1.0" xmlns="http://www.w3.org/2000/svg"
 width="192.000000pt" height="192.000000pt" viewBox="0 0 192.000000 192.000000"
 preserveAspectRatio="xMidYMid meet">
<metadata>
Created by potrace 1.16, written by Peter Selinger 2001-2019
</metadata>
<g transform="translate(0.000000,192.000000) scale(0.100000,-0.100000)"
fill="#000000" stroke="none">
811 c445 -92 729 -532 635 -987 -62 -301 -295 -546 -601 -630 -91 -26 -329
-26 -420 0 -291 80 -516 305 -596 596 -26 91 -26 329 0 420 120 433 542 692
982 601z"/>
<path d="M888 1366 c-87 -24 -157 -97 -177 -186 -14 -60 -14 -246 0 -310 14
-66 62 -128 124 -162 40 -22 63 -28 118 -28 78 0 118 14 171 60 73 64 81 93
81 285 0 156 -2 173 -22 211 -57 106 -182 162 -295 130z m132 -181 c77 -82
-43 -202 -125 -125 -34 32 -35 91 0 125 34 35 93 34 125 0z"/>
<path d="M706 624 c-9 -8 -16 -21 -16 -28 0 -33 23 -36 271 -36 216 0 248 2
253 16 9 24 8 31 -10 48 -23 24 -475 24 -498 0z"/>
</g>
</svg>
