<?xml version="1.0" standalone="no"?>
<!DOCTYPE svg PUBLIC "-//W3C//DTD SVG 20010904//EN"
 "http://www.w3.org/TR/2001/REC-SVG-20010904/DTD/svg10.dtd">
<svg version="1.0" xmlns="http://www.w3.org/2000/svg"
 width="192.000000pt" height="192.000000pt" viewBox="0 0 192.000000 192.000000"
 preserveAspectRatio="xMidYMid meet">
<metadata>
Created by potrace 1.16, written by Peter Selinger 2001-2019
</metadata>
<g transform="translate(0.000000,192.000000) scale(0.100000,-0.100000)"
fill="#000000" stroke="none">
811 c445 -92 729 -532 635 -987 -62 -301 -295 -546 -601 -630 -91 -26 -329
-26 -420 0 -291 80 -516 305 -596 596 -26 91 -26 329 0 420 120 433 542 692
982 601z"/>
<path d="M897 1346 c-36 -13 -61 -34 -224 -188 -107 -100 -108 -103 -108 -293
0 -176 6 -199 65 -248 48 -41 90 -47 325 -47 235 0 277 6 325 47 59 49 65 72
65 248 0 153 -1 162 -25 201 -25 42 -243 249 -285 271 -37 20 -97 24 -138 9z
m143 -275 c64 -34 100 -111 86 -186 -8 -43 -59 -103 -103 -121 -125 -53 -265
58 -239 189 9 46 49 101 87 120 46 22 126 22 169 -2z"/>
<path d="M889 992 c-34 -30 -42 -79 -20 -121 12 -22 60 -51 86 -51 32 0 77 32
91 66 18 44 10 77 -28 109 -41 34 -88 33 -129 -3z"/>
</g>
</svg>
