<?xml version="1.0" standalone="no"?>
<!DOCTYPE svg PUBLIC "-//W3C//DTD SVG 20010904//EN"
 "http://www.w3.org/TR/2001/REC-SVG-20010904/DTD/svg10.dtd">
<svg version="1.0" xmlns="http://www.w3.org/2000/svg"
 width="192.000000pt" height="192.000000pt" viewBox="0 0 192.000000 192.000000"
 preserveAspectRatio="xMidYMid meet">
<metadata>
Created by potrace 1.16, written by Peter Selinger 2001-2019
</metadata>
<g transform="translate(0.000000,192.000000) scale(0.100000,-0.100000)"
fill="#000000" stroke="none">
811 c445 -92 729 -532 635 -987 -62 -301 -295 -546 -601 -630 -91 -26 -329
-26 -420 0 -291 80 -516 305 -596 596 -26 91 -26 329 0 420 120 433 542 692
982 601z"/>
<path d="M928 1348 c-28 -42 -29 -63 -7 -91 24 -32 40 -34 62 -9 23 25 21 64
-4 96 -25 32 -33 32 -51 4z"/>
<path d="M796 1294 c-19 -48 7 -104 48 -104 18 0 40 45 30 63 -14 25 -48 57
-60 57 -6 0 -15 -7 -18 -16z"/>
<path d="M1056 1285 c-29 -27 -33 -52 -13 -79 17 -23 52 -14 68 16 13 25 3 88
-15 88 -7 0 -25 -11 -40 -25z"/>
<path d="M1192 1253 c-34 -17 -47 -42 -37 -73 9 -27 31 -25 60 5 24 23 34 69
17 79 -4 2 -22 -2 -40 -11z"/>
<path d="M670 1232 c0 -37 19 -61 50 -64 21 -3 25 2 28 29 2 23 -3 35 -20 47
-36 25 -58 21 -58 -12z"/>
<path d="M939 1183 c-26 -30 -30 -54 -14 -79 18 -28 28 -30 49 -8 21 21 20 57
-2 84 -17 21 -18 21 -33 3z"/>
<path d="M777 1163 c-4 -3 -7 -24 -7 -45 0 -50 29 -80 73 -76 30 3 32 5 32 42
0 30 -6 43 -25 57 -30 21 -64 32 -73 22z"/>
<path d="M1072 1153 c-40 -19 -55 -53 -42 -88 7 -18 17 -25 37 -25 37 0 49 9
63 44 12 33 4 86 -13 86 -7 0 -27 -8 -45 -17z"/>
<path d="M594 1136 c-8 -21 23 -75 51 -88 18 -8 32 -8 55 2 27 11 30 17 25 39
-11 44 -34 61 -82 61 -28 0 -46 -5 -49 -14z"/>
<path d="M1207 1138 c-9 -7 -20 -28 -23 -45 -6 -29 -3 -34 22 -44 41 -15 74
-1 97 44 17 33 18 40 6 48 -21 13 -83 11 -102 -3z"/>
<path d="M931 1029 c-26 -42 -26 -41 -2 -70 16 -20 23 -22 38 -13 25 15 27 64
4 93 l-19 25 -21 -35z"/>
<path d="M565 1004 c-20 -15 -20 -15 4 -35 26 -21 71 -25 89 -7 16 16 15 23
-4 42 -20 20 -63 20 -89 0z"/>
<path d="M1252 1008 c-17 -17 -15 -45 4 -52 30 -12 61 -6 80 15 18 20 18 21
-1 35 -23 17 -67 18 -83 2z"/>
<path d="M710 995 c0 -3 38 -63 85 -133 l85 -127 0 -67 c0 -80 19 -108 73
-108 58 0 77 30 77 120 0 61 1 63 85 185 47 68 85 126 85 129 0 3 -35 6 -78 6
l-77 0 -40 -67 c-22 -36 -45 -68 -50 -70 -6 -1 -28 29 -50 67 l-40 70 -77 0
c-43 0 -78 -2 -78 -5z"/>
<path d="M610 900 c-36 -34 -34 -41 15 -64 42 -20 67 -14 95 21 l20 26 -22 24
c-30 32 -69 30 -108 -7z"/>
<path d="M1189 911 c-21 -16 -22 -22 -11 -45 20 -44 52 -52 108 -26 l49 21
-37 35 c-42 38 -75 43 -109 15z"/>
<path d="M726 815 c-19 -19 -21 -65 -3 -65 25 0 58 32 55 53 -4 27 -30 33 -52
12z"/>
<path d="M1130 800 c0 -23 6 -33 25 -42 18 -8 29 -8 36 -1 17 17 -11 67 -39
71 -19 3 -22 -1 -22 -28z"/>
</g>
</svg>
