<?xml version="1.0" standalone="no"?>
<!DOCTYPE svg PUBLIC "-//W3C//DTD SVG 20010904//EN"
 "http://www.w3.org/TR/2001/REC-SVG-20010904/DTD/svg10.dtd">
<svg version="1.0" xmlns="http://www.w3.org/2000/svg"
 width="192.000000pt" height="192.000000pt" viewBox="0 0 192.000000 192.000000"
 preserveAspectRatio="xMidYMid meet">
<metadata>
Created by potrace 1.16, written by Peter Selinger 2001-2019
</metadata>
<g transform="translate(0.000000,192.000000) scale(0.100000,-0.100000)"
fill="#000000" stroke="none">
811 c445 -92 729 -532 635 -987 -62 -301 -295 -546 -601 -630 -91 -26 -329
-26 -420 0 -291 80 -516 305 -596 596 -26 91 -26 329 0 420 120 433 542 692
982 601z"/>
<path d="M675 1315 c-22 -13 -51 -41 -65 -61 -25 -37 -25 -42 -28 -263 -4
-244 1 -279 45 -332 53 -62 83 -69 328 -69 245 0 275 7 328 69 44 53 49 88 45
332 l-3 226 -28 40 c-15 22 -45 49 -66 61 -37 21 -51 22 -277 22 -235 0 -240
-1 -279 -25z m15 -290 c0 -31 3 -35 25 -35 22 0 25 4 25 36 0 31 3 35 23 32
17 -2 23 -11 25 -35 4 -37 -12 -73 -33 -73 -9 0 -15 -13 -17 -37 -2 -30 -7
-38 -23 -38 -16 0 -21 8 -23 35 -2 20 -12 40 -23 48 -14 10 -19 25 -19 58 0
37 3 44 20 44 16 0 20 -7 20 -35z m234 19 c11 -11 16 -35 16 -79 0 -55 -3 -66
-22 -79 -29 -21 -77 -20 -100 1 -24 22 -26 134 -2 157 20 21 88 21 108 0z m96
-14 c7 -16 18 -35 26 -41 12 -9 14 -4 14 30 0 34 3 41 20 41 19 0 20 -7 20
-95 0 -87 -2 -95 -19 -95 -13 0 -28 15 -43 41 l-23 42 -5 -39 c-4 -31 -9 -39
-25 -39 -18 0 -20 8 -23 93 -3 91 -3 92 21 92 18 0 28 -8 37 -30z m228 18 c7
-7 12 -41 12 -85 0 -80 -10 -93 -69 -93 -48 0 -71 30 -71 93 0 72 19 97 74 97
23 0 47 -5 54 -12z"/>
<path d="M850 970 c0 -43 3 -50 20 -50 17 0 20 7 20 50 0 43 -3 50 -20 50 -17
0 -20 -7 -20 -50z"/>
<path d="M1170 971 c0 -48 2 -51 26 -51 24 0 25 2 22 48 -3 40 -6 47 -25 50
-21 3 -23 0 -23 -47z"/>
</g>
</svg>
