<?xml version="1.0" standalone="no"?>
<!DOCTYPE svg PUBLIC "-//W3C//DTD SVG 20010904//EN"
 "http://www.w3.org/TR/2001/REC-SVG-20010904/DTD/svg10.dtd">
<svg version="1.0" xmlns="http://www.w3.org/2000/svg"
 width="192.000000pt" height="192.000000pt" viewBox="0 0 192.000000 192.000000"
 preserveAspectRatio="xMidYMid meet">
<metadata>
Created by potrace 1.16, written by Peter Selinger 2001-2019
</metadata>
<g transform="translate(0.000000,192.000000) scale(0.100000,-0.100000)"
fill="#000000" stroke="none">
811 c445 -92 729 -532 635 -987 -62 -301 -295 -546 -601 -630 -91 -26 -329
-26 -420 0 -291 80 -516 305 -596 596 -26 91 -26 329 0 420 120 433 542 692
982 601z"/>
<path d="M695 1321 c-47 -22 -89 -64 -104 -104 -15 -38 -15 -466 0 -504 15
-40 57 -82 104 -104 35 -16 67 -19 260 -19 239 0 272 7 322 61 48 52 53 84 53
317 0 206 -1 220 -22 262 -14 26 -41 57 -66 75 l-44 30 -231 3 c-209 2 -236 0
-272 -17z m570 -361 l0 -85 -133 -3 -133 -3 -31 31 c-26 27 -30 36 -25 68 4
22 17 46 33 60 24 21 33 22 157 20 l132 -3 0 -85z"/>
<path d="M1016 994 c-9 -8 -16 -24 -16 -34 0 -20 25 -50 41 -50 27 0 49 22 49
50 0 44 -44 64 -74 34z"/>
</g>
</svg>
