<?xml version="1.0" standalone="no"?>
<!DOCTYPE svg PUBLIC "-//W3C//DTD SVG 20010904//EN"
 "http://www.w3.org/TR/2001/REC-SVG-20010904/DTD/svg10.dtd">
<svg version="1.0" xmlns="http://www.w3.org/2000/svg"
 width="192.000000pt" height="192.000000pt" viewBox="0 0 192.000000 192.000000"
 preserveAspectRatio="xMidYMid meet">
<metadata>
Created by potrace 1.16, written by Peter Selinger 2001-2019
</metadata>
<g transform="translate(0.000000,192.000000) scale(0.100000,-0.100000)"
fill="#000000" stroke="none">
811 c445 -92 729 -532 635 -987 -62 -301 -295 -546 -601 -630 -91 -26 -329
-26 -420 0 -291 80 -516 305 -596 596 -26 91 -26 329 0 420 120 433 542 692
982 601z"/>
<path d="M1060 1405 c-20 -24 -2 -50 56 -78 31 -16 83 -54 116 -85 48 -46 62
-54 76 -46 9 6 18 22 20 36 6 46 -172 188 -236 188 -11 0 -25 -7 -32 -15z"/>
<path d="M860 1315 c-243 -68 -347 -360 -204 -572 67 -98 151 -145 274 -151
118 -6 183 19 266 102 80 80 107 147 108 266 1 75 -3 93 -30 150 -32 68 -103
150 -129 150 -13 0 -15 -25 -15 -164 0 -212 -18 -264 -105 -306 -50 -24 -93
-25 -142 -5 -50 21 -72 42 -94 90 -37 81 -13 178 57 231 35 27 44 29 121 28
l83 -2 0 83 c0 59 -4 86 -14 94 -23 20 -116 22 -176 6z"/>
</g>
</svg>
