<?xml version="1.0" standalone="no"?>
<!DOCTYPE svg PUBLIC "-//W3C//DTD SVG 20010904//EN"
 "http://www.w3.org/TR/2001/REC-SVG-20010904/DTD/svg10.dtd">
<svg version="1.0" xmlns="http://www.w3.org/2000/svg"
 width="192.000000pt" height="192.000000pt" viewBox="0 0 192.000000 192.000000"
 preserveAspectRatio="xMidYMid meet">
<metadata>
Created by potrace 1.16, written by Peter Selinger 2001-2019
</metadata>
<g transform="translate(0.000000,192.000000) scale(0.100000,-0.100000)"
fill="#000000" stroke="none">
811 c445 -92 729 -532 635 -987 -62 -301 -295 -546 -601 -630 -91 -26 -329
-26 -420 0 -291 80 -516 305 -596 596 -26 91 -26 329 0 420 120 433 542 692
982 601z"/>
<path d="M702 1368 c-7 -7 -12 -39 -12 -73 0 -113 74 -220 177 -257 33 -12 33
-13 33 -75 0 -54 -3 -63 -18 -63 -27 0 -106 -54 -135 -92 -73 -95 -78 -258 -8
-258 31 0 51 33 51 86 0 93 77 174 165 174 17 0 51 -10 75 -22 58 -30 90 -84
90 -154 0 -36 5 -56 18 -67 44 -40 82 -9 82 67 0 128 -79 233 -202 270 -14 4
-18 17 -18 61 l0 55 53 24 c103 45 167 141 167 251 0 68 -11 85 -51 85 -36 0
-42 -11 -50 -89 -12 -114 -96 -182 -198 -160 -76 17 -121 72 -130 160 -4 35
-10 70 -14 77 -10 15 -59 16 -75 0z"/>
<path d="M889 711 c-38 -39 -39 -87 -3 -130 21 -26 33 -31 69 -31 36 0 48 5
69 31 36 43 35 91 -3 130 -22 21 -39 29 -66 29 -27 0 -44 -8 -66 -29z"/>
</g>
</svg>
