<?xml version="1.0" standalone="no"?>
<!DOCTYPE svg PUBLIC "-//W3C//DTD SVG 20010904//EN"
 "http://www.w3.org/TR/2001/REC-SVG-20010904/DTD/svg10.dtd">
<svg version="1.0" xmlns="http://www.w3.org/2000/svg"
 width="192.000000pt" height="192.000000pt" viewBox="0 0 192.000000 192.000000"
 preserveAspectRatio="xMidYMid meet">
<metadata>
Created by potrace 1.16, written by Peter Selinger 2001-2019
</metadata>
<g transform="translate(0.000000,192.000000) scale(0.100000,-0.100000)"
fill="#000000" stroke="none">
811 c445 -92 729 -532 635 -987 -62 -301 -295 -546 -601 -630 -91 -26 -329
-26 -420 0 -291 80 -516 305 -596 596 -26 91 -26 329 0 420 120 433 542 692
982 601z"/>
<path d="M875 1420 c-27 -10 -72 -22 -98 -25 -45 -6 -56 -14 -146 -104 -96
-96 -98 -99 -104 -154 -4 -30 -16 -76 -27 -102 -25 -58 -25 -81 -1 -136 11
-24 23 -66 26 -94 10 -68 26 -96 74 -129 21 -15 52 -46 67 -67 32 -47 61 -64
124 -73 25 -4 73 -16 107 -29 62 -21 63 -21 110 -3 26 10 78 24 115 31 66 12
67 13 161 108 90 91 95 98 102 149 4 29 16 75 26 101 24 60 24 94 1 149 -11
24 -22 67 -26 97 -7 52 -11 58 -105 152 -94 94 -100 98 -152 105 -30 4 -73 15
-97 26 -54 22 -93 22 -157 -2z m132 -272 c18 -18 33 -42 33 -54 0 -22 -60 -84
-82 -84 -16 0 -88 71 -88 87 0 22 61 83 83 83 12 0 36 -14 54 -32z m-130 -130
c18 -18 33 -42 33 -54 0 -24 -61 -84 -86 -84 -21 0 -84 63 -84 84 0 24 60 86
83 86 12 0 36 -14 54 -32z m260 0 c18 -18 33 -41 33 -52 0 -24 -57 -86 -80
-86 -9 0 -33 18 -54 39 -44 45 -43 65 5 106 40 33 56 32 96 -7z m-130 -130
c18 -18 33 -41 33 -52 0 -26 -58 -86 -83 -86 -24 0 -87 62 -87 85 0 23 63 85
86 85 10 0 33 -14 51 -32z"/>
</g>
</svg>
