<?xml version="1.0" standalone="no"?>
<!DOCTYPE svg PUBLIC "-//W3C//DTD SVG 20010904//EN"
 "http://www.w3.org/TR/2001/REC-SVG-20010904/DTD/svg10.dtd">
<svg version="1.0" xmlns="http://www.w3.org/2000/svg"
 width="192.000000pt" height="192.000000pt" viewBox="0 0 192.000000 192.000000"
 preserveAspectRatio="xMidYMid meet">
<metadata>
Created by potrace 1.16, written by Peter Selinger 2001-2019
</metadata>
<g transform="translate(0.000000,192.000000) scale(0.100000,-0.100000)"
fill="#000000" stroke="none">
811 c445 -92 729 -532 635 -987 -62 -301 -295 -546 -601 -630 -91 -26 -329
-26 -420 0 -291 80 -516 305 -596 596 -26 91 -26 329 0 420 120 433 542 692
982 601z"/>
<path d="M1203 1386 c-17 -14 -34 -37 -37 -50 l-6 -24 -62 25 c-147 60 -299
33 -417 -73 -92 -83 -137 -194 -129 -321 15 -230 232 -402 456 -363 254 44
404 311 307 545 -16 36 -15 37 11 57 23 18 24 22 10 30 -15 8 -15 11 -1 31 24
34 18 121 -10 155 -1 2 -17 -11 -34 -29 -36 -35 -40 -34 -50 12 l-6 32 -32
-27z m-139 -243 c156 -110 99 -348 -91 -379 -55 -8 -131 17 -171 59 -137 141
-33 368 162 353 44 -3 70 -12 100 -33z"/>
<path d="M891 1082 c-79 -42 -92 -140 -27 -199 83 -76 206 -19 206 95 0 47
-29 88 -76 108 -44 18 -63 18 -103 -4z"/>
</g>
</svg>
