<?xml version="1.0" standalone="no"?>
<!DOCTYPE svg PUBLIC "-//W3C//DTD SVG 20010904//EN"
 "http://www.w3.org/TR/2001/REC-SVG-20010904/DTD/svg10.dtd">
<svg version="1.0" xmlns="http://www.w3.org/2000/svg"
 width="192.000000pt" height="192.000000pt" viewBox="0 0 192.000000 192.000000"
 preserveAspectRatio="xMidYMid meet">
<metadata>
Created by potrace 1.16, written by Peter Selinger 2001-2019
</metadata>
<g transform="translate(0.000000,192.000000) scale(0.100000,-0.100000)"
fill="#000000" stroke="none">
811 c445 -92 729 -532 635 -987 -62 -301 -295 -546 -601 -630 -91 -26 -329
-26 -420 0 -291 80 -516 305 -596 596 -26 91 -26 329 0 420 120 433 542 692
982 601z"/>
<path d="M1048 1341 c-70 -44 -106 -139 -78 -206 6 -15 1 -27 -18 -47 l-25
-28 -103 100 c-56 54 -114 102 -129 106 -14 4 -45 3 -68 -2 -71 -15 -63 -34
78 -174 l125 -125 -127 -127 c-109 -109 -126 -131 -117 -146 13 -21 68 -31
109 -20 18 5 68 46 127 105 l98 98 22 -22 c19 -19 22 -34 22 -102 1 -73 3 -82
31 -117 63 -77 159 -97 241 -49 61 36 89 86 89 161 0 49 -5 68 -27 101 -39 59
-102 87 -178 80 -53 -4 -61 -3 -81 19 l-23 25 25 24 c22 22 27 23 66 13 104
-29 223 66 223 177 0 40 -22 100 -48 128 -56 62 -160 75 -234 28z m155 -102
c39 -47 5 -129 -54 -129 -41 0 -58 9 -75 41 -18 37 -10 73 24 100 32 25 78 20
105 -12z m21 -391 c16 -26 -4 -53 -40 -53 -25 0 -30 4 -32 29 -6 46 47 63 72
24z m-130 -1 c38 -27 -2 -95 -41 -71 -25 16 -29 55 -7 71 10 7 21 13 24 13 3
0 14 -6 24 -13z m66 -92 c15 -18 5 -35 -21 -35 -12 0 -19 7 -19 18 0 33 20 42
40 17z m108 3 c34 -34 -6 -90 -48 -68 -25 13 -26 55 -2 69 23 14 36 13 50 -1z
m-180 -46 c5 -32 -16 -54 -47 -50 -18 2 -27 10 -29 26 -6 40 5 54 40 50 26 -2
34 -8 36 -26z m102 -42 c25 -46 -23 -88 -61 -54 -23 21 -24 37 -3 58 21 22 51
20 64 -4z"/>
</g>
</svg>
