<?xml version="1.0" standalone="no"?>
<!DOCTYPE svg PUBLIC "-//W3C//DTD SVG 20010904//EN"
 "http://www.w3.org/TR/2001/REC-SVG-20010904/DTD/svg10.dtd">
<svg version="1.0" xmlns="http://www.w3.org/2000/svg"
 width="192.000000pt" height="192.000000pt" viewBox="0 0 192.000000 192.000000"
 preserveAspectRatio="xMidYMid meet">
<metadata>
Created by potrace 1.16, written by Peter Selinger 2001-2019
</metadata>
<g transform="translate(0.000000,192.000000) scale(0.100000,-0.100000)"
fill="#000000" stroke="none">
811 c445 -92 729 -532 635 -987 -62 -301 -295 -546 -601 -630 -91 -26 -329
-26 -420 0 -291 80 -516 305 -596 596 -26 91 -26 329 0 420 120 433 542 692
982 601z"/>
<path d="M875 1355 c-22 -8 -58 -17 -79 -21 -33 -4 -54 -20 -122 -88 -46 -46
-85 -94 -88 -107 -3 -13 -7 -35 -10 -49 -2 -14 -12 -46 -22 -72 -16 -41 -17
-52 -6 -90 7 -24 17 -64 22 -90 5 -26 14 -57 21 -70 23 -42 156 -167 185 -173
16 -4 49 -13 74 -22 71 -24 116 -26 167 -9 27 8 66 18 87 21 29 5 54 20 94 58
100 94 112 108 122 150 5 23 17 62 25 87 19 57 19 101 0 147 -8 19 -15 50 -15
67 0 40 -23 76 -102 158 -50 51 -75 69 -109 78 -24 6 -57 16 -74 22 -47 17
-126 19 -170 3z m120 -74 c3 -5 31 -15 63 -21 51 -11 64 -19 125 -82 53 -55
67 -76 67 -100 0 -17 8 -52 17 -78 16 -45 16 -50 0 -86 -9 -22 -19 -57 -23
-79 -10 -55 -119 -164 -173 -172 -20 -2 -57 -12 -83 -21 -43 -14 -50 -14 -85
1 -21 9 -58 21 -83 26 -29 6 -50 18 -60 33 -8 13 -34 41 -57 63 -31 29 -44 51
-48 80 -4 22 -13 58 -22 81 -13 37 -13 44 6 92 12 29 21 64 21 77 0 18 19 44
63 86 72 70 85 79 124 79 15 1 42 7 58 15 35 16 81 19 90 6z"/>
<path d="M912 1144 c-44 -31 -17 -124 37 -124 10 0 30 9 45 21 69 55 -9 154
-82 103z"/>
<path d="M782 1014 c-16 -11 -22 -25 -22 -54 0 -29 6 -43 22 -54 30 -21 50
-20 82 5 69 55 -9 154 -82 103z"/>
<path d="M1030 1008 c-25 -28 -26 -62 0 -88 41 -41 120 -12 120 45 0 58 -79
87 -120 43z"/>
<path d="M900 878 c-24 -26 -26 -56 -4 -86 33 -47 124 -16 124 43 0 58 -79 87
-120 43z"/>
</g>
</svg>
