<?xml version="1.0" standalone="no"?>
<!DOCTYPE svg PUBLIC "-//W3C//DTD SVG 20010904//EN"
 "http://www.w3.org/TR/2001/REC-SVG-20010904/DTD/svg10.dtd">
<svg version="1.0" xmlns="http://www.w3.org/2000/svg"
 width="192.000000pt" height="192.000000pt" viewBox="0 0 192.000000 192.000000"
 preserveAspectRatio="xMidYMid meet">
<metadata>
Created by potrace 1.16, written by Peter Selinger 2001-2019
</metadata>
<g transform="translate(0.000000,192.000000) scale(0.100000,-0.100000)"
fill="#000000" stroke="none">
811 c445 -92 729 -532 635 -987 -62 -301 -295 -546 -601 -630 -91 -26 -329
-26 -420 0 -291 80 -516 305 -596 596 -26 91 -26 329 0 420 120 433 542 692
982 601z"/>
<path d="M703 1354 c-25 -25 -25 -26 -21 -162 4 -149 17 -194 72 -259 95 -113
307 -113 402 0 55 65 68 110 72 259 l4 137 -27 27 c-23 23 -32 26 -73 21 -67
-7 -72 -19 -72 -165 0 -71 -5 -133 -11 -145 -19 -37 -52 -57 -96 -57 -33 0
-48 6 -72 31 l-31 31 0 131 c0 73 -4 137 -8 143 -27 40 -102 45 -139 8z"/>
<path d="M707 832 c-51 -56 27 -197 138 -248 131 -62 304 5 360 138 34 83 11
128 -67 128 -47 0 -70 -15 -82 -57 -11 -35 -63 -73 -101 -73 -38 0 -90 38
-101 73 -12 42 -35 57 -84 57 -33 0 -52 -6 -63 -18z"/>
</g>
</svg>
