<?xml version="1.0" standalone="no"?>
<!DOCTYPE svg PUBLIC "-//W3C//DTD SVG 20010904//EN"
 "http://www.w3.org/TR/2001/REC-SVG-20010904/DTD/svg10.dtd">
<svg version="1.0" xmlns="http://www.w3.org/2000/svg"
 width="192.000000pt" height="192.000000pt" viewBox="0 0 192.000000 192.000000"
 preserveAspectRatio="xMidYMid meet">
<metadata>
Created by potrace 1.16, written by Peter Selinger 2001-2019
</metadata>
<g transform="translate(0.000000,192.000000) scale(0.100000,-0.100000)"
fill="#000000" stroke="none">
811 c445 -92 729 -532 635 -987 -62 -301 -295 -546 -601 -630 -91 -26 -329
-26 -420 0 -291 80 -516 305 -596 596 -26 91 -26 329 0 420 120 433 542 692
982 601z"/>
<path d="M675 1341 c-49 -22 -79 -54 -100 -103 -12 -30 -15 -83 -15 -275 0
-265 6 -293 69 -346 53 -44 87 -49 347 -45 l241 3 40 28 c22 15 50 46 64 70
24 41 24 46 24 292 0 246 0 251 -24 292 -14 24 -42 55 -64 70 l-40 28 -251 3
c-228 2 -255 1 -291 -17z m539 -82 c45 -35 56 -70 56 -169 0 -107 -15 -151
-62 -180 -31 -19 -46 -20 -266 -18 l-234 3 -34 37 -34 38 0 110 c0 80 4 119
15 140 29 55 48 59 301 60 220 0 233 -1 258 -21z m-469 -464 c29 -28 31 -51 9
-83 -10 -15 -25 -22 -46 -22 -91 0 -91 124 0 129 7 1 24 -10 37 -24z m500 0
c29 -28 31 -51 9 -83 -10 -15 -25 -22 -46 -22 -91 0 -91 124 0 129 7 1 24 -10
37 -24z m-172 -56 c6 -9 7 -24 4 -33 -5 -13 -24 -16 -120 -16 -74 0 -117 4
-125 12 -16 16 -15 23 4 43 23 23 222 18 237 -6z"/>
<path d="M864 1177 c-3 -8 -4 -51 -2 -97 4 -112 13 -117 109 -58 99 60 100 73
10 127 -72 42 -108 51 -117 28z"/>
</g>
</svg>
