<?xml version="1.0" standalone="no"?>
<!DOCTYPE svg PUBLIC "-//W3C//DTD SVG 20010904//EN"
 "http://www.w3.org/TR/2001/REC-SVG-20010904/DTD/svg10.dtd">
<svg version="1.0" xmlns="http://www.w3.org/2000/svg"
 width="192.000000pt" height="192.000000pt" viewBox="0 0 192.000000 192.000000"
 preserveAspectRatio="xMidYMid meet">
<metadata>
Created by potrace 1.16, written by Peter Selinger 2001-2019
</metadata>
<g transform="translate(0.000000,192.000000) scale(0.100000,-0.100000)"
fill="#000000" stroke="none">
811 c445 -92 729 -532 635 -987 -62 -301 -295 -546 -601 -630 -91 -26 -329
-26 -420 0 -291 80 -516 305 -596 596 -26 91 -26 329 0 420 120 433 542 692
982 601z"/>
<path d="M776 1310 c-111 -11 -132 -16 -169 -42 -58 -41 -67 -81 -67 -298 0
-107 4 -211 10 -229 15 -53 64 -98 124 -113 71 -18 491 -18 562 0 60 15 109
60 124 113 6 18 10 122 10 229 0 183 -1 199 -22 240 -29 55 -59 77 -125 89
-75 15 -344 21 -447 11z m220 -278 c93 -64 93 -76 5 -135 -39 -26 -80 -47 -90
-47 -35 0 -51 38 -51 117 0 60 4 77 20 93 11 11 26 20 33 20 7 0 45 -21 83
-48z"/>
</g>
</svg>
