<?xml version="1.0" standalone="no"?>
<!DOCTYPE svg PUBLIC "-//W3C//DTD SVG 20010904//EN"
 "http://www.w3.org/TR/2001/REC-SVG-20010904/DTD/svg10.dtd">
<svg version="1.0" xmlns="http://www.w3.org/2000/svg"
 width="192.000000pt" height="192.000000pt" viewBox="0 0 192.000000 192.000000"
 preserveAspectRatio="xMidYMid meet">
<metadata>
Created by potrace 1.16, written by Peter Selinger 2001-2019
</metadata>
<g transform="translate(0.000000,192.000000) scale(0.100000,-0.100000)"
fill="#000000" stroke="none">
811 c445 -92 729 -532 635 -987 -62 -301 -295 -546 -601 -630 -91 -26 -329
-26 -420 0 -291 80 -516 305 -596 596 -26 91 -26 329 0 420 120 433 542 692
982 601z"/>
<path d="M835 1363 c-147 -53 -243 -155 -281 -298 -49 -181 47 -385 220 -470
293 -143 631 106 585 430 -19 138 -108 257 -235 317 -85 40 -211 49 -289 21z
m280 -89 c42 -20 115 -85 115 -102 0 -13 -28 -42 -41 -42 -5 0 -27 17 -50 37
-22 20 -48 37 -57 38 -9 1 -32 5 -49 9 -30 7 -33 11 -33 46 0 22 5 40 13 43
15 5 53 -6 102 -29z m-125 -124 l0 -70 -29 0 c-71 0 -121 -51 -121 -124 0 -30
7 -45 34 -72 29 -29 41 -34 81 -34 40 0 52 5 81 34 l34 34 0 136 c0 86 4 136
10 136 6 0 30 -20 54 -43 152 -153 56 -417 -159 -435 -105 -9 -198 43 -247
137 -49 94 -33 217 40 295 39 41 118 76 175 76 l47 0 0 -70z"/>
</g>
</svg>
