<?xml version="1.0" standalone="no"?>
<!DOCTYPE svg PUBLIC "-//W3C//DTD SVG 20010904//EN"
 "http://www.w3.org/TR/2001/REC-SVG-20010904/DTD/svg10.dtd">
<svg version="1.0" xmlns="http://www.w3.org/2000/svg"
 width="192.000000pt" height="192.000000pt" viewBox="0 0 192.000000 192.000000"
 preserveAspectRatio="xMidYMid meet">
<metadata>
Created by potrace 1.16, written by Peter Selinger 2001-2019
</metadata>
<g transform="translate(0.000000,192.000000) scale(0.100000,-0.100000)"
fill="#000000" stroke="none">
811 c445 -92 729 -532 635 -987 -62 -301 -295 -546 -601 -630 -91 -26 -329
-26 -420 0 -291 80 -516 305 -596 596 -26 91 -26 329 0 420 120 433 542 692
982 601z"/>
<path d="M891 1314 c-69 -25 -87 -39 -209 -158 -118 -116 -142 -148 -142 -191
0 -43 24 -75 142 -192 150 -148 188 -168 323 -168 89 0 106 3 157 28 71 35
140 104 176 176 24 50 27 67 27 156 0 89 -3 106 -27 156 -36 72 -105 141 -175
176 -71 34 -202 43 -272 17z m231 -303 c30 -17 42 -39 33 -62 -3 -8 -47 -37
-97 -66 -125 -70 -128 -68 -128 82 0 160 -7 159 192 46z"/>
</g>
</svg>
