<?xml version="1.0" standalone="no"?>
<!DOCTYPE svg PUBLIC "-//W3C//DTD SVG 20010904//EN"
 "http://www.w3.org/TR/2001/REC-SVG-20010904/DTD/svg10.dtd">
<svg version="1.0" xmlns="http://www.w3.org/2000/svg"
 width="192.000000pt" height="192.000000pt" viewBox="0 0 192.000000 192.000000"
 preserveAspectRatio="xMidYMid meet">
<metadata>
Created by potrace 1.16, written by Peter Selinger 2001-2019
</metadata>
<g transform="translate(0.000000,192.000000) scale(0.100000,-0.100000)"
fill="#000000" stroke="none">
811 c445 -92 729 -532 635 -987 -62 -301 -295 -546 -601 -630 -91 -26 -329
-26 -420 0 -291 80 -516 305 -596 596 -26 91 -26 329 0 420 120 433 542 692
982 601z"/>
<path d="M648 1285 c-119 -70 -118 -67 -118 -267 l0 -170 33 -32 c17 -18 105
-74 194 -124 123 -70 170 -92 198 -92 29 0 75 21 199 92 88 50 176 107 194
125 l33 32 -3 175 c-4 203 1 193 -118 262 -96 57 -119 56 -219 -1 -43 -25 -82
-45 -86 -45 -4 0 -43 20 -86 45 -100 58 -123 58 -221 0z m583 -91 c33 -19 59
-42 59 -49 0 -17 -117 -87 -139 -83 -12 3 -17 18 -19 72 -5 111 5 117 99 60z"/>
</g>
</svg>
