<?xml version="1.0" standalone="no"?>
<!DOCTYPE svg PUBLIC "-//W3C//DTD SVG 20010904//EN"
 "http://www.w3.org/TR/2001/REC-SVG-20010904/DTD/svg10.dtd">
<svg version="1.0" xmlns="http://www.w3.org/2000/svg"
 width="192.000000pt" height="192.000000pt" viewBox="0 0 192.000000 192.000000"
 preserveAspectRatio="xMidYMid meet">
<metadata>
Created by potrace 1.16, written by Peter Selinger 2001-2019
</metadata>
<g transform="translate(0.000000,192.000000) scale(0.100000,-0.100000)"
fill="#000000" stroke="none">
811 c445 -92 729 -532 635 -987 -62 -301 -295 -546 -601 -630 -91 -26 -329
-26 -420 0 -291 80 -516 305 -596 596 -26 91 -26 329 0 420 120 433 542 692
982 601z"/>
<path d="M625 1321 c-70 -32 -75 -51 -75 -281 0 -223 5 -245 63 -280 27 -17
51 -20 150 -20 l117 0 0 -30 c0 -29 0 -29 -66 -32 -54 -2 -69 -7 -80 -23 -12
-18 -11 -24 2 -43 15 -21 20 -22 210 -22 116 0 203 4 215 10 25 14 25 56 0 70
-11 5 -45 10 -75 10 -56 0 -56 0 -56 30 l0 30 116 0 c99 0 121 3 149 20 58 36
65 65 65 283 0 185 -1 196 -23 228 -44 66 -58 69 -382 69 -260 0 -294 -2 -330
-19z m360 -206 c51 -30 95 -61 98 -68 9 -24 -14 -46 -97 -96 -131 -80 -146
-71 -146 88 0 77 4 103 16 115 8 9 20 16 25 16 6 0 52 -25 104 -55z"/>
</g>
</svg>
