<?xml version="1.0" standalone="no"?>
<!DOCTYPE svg PUBLIC "-//W3C//DTD SVG 20010904//EN"
 "http://www.w3.org/TR/2001/REC-SVG-20010904/DTD/svg10.dtd">
<svg version="1.0" xmlns="http://www.w3.org/2000/svg"
 width="192.000000pt" height="192.000000pt" viewBox="0 0 192.000000 192.000000"
 preserveAspectRatio="xMidYMid meet">
<metadata>
Created by potrace 1.16, written by Peter Selinger 2001-2019
</metadata>
<g transform="translate(0.000000,192.000000) scale(0.100000,-0.100000)"
fill="#000000" stroke="none">
811 c445 -92 729 -532 635 -987 -62 -301 -295 -546 -601 -630 -91 -26 -329
-26 -420 0 -291 80 -516 305 -596 596 -26 91 -26 329 0 420 120 433 542 692
982 601z"/>
<path d="M925 1371 c-11 -5 -38 -27 -60 -50 -38 -40 -40 -41 -107 -41 -60 0
-72 -3 -93 -25 -22 -21 -25 -33 -25 -92 0 -67 0 -68 -47 -115 -65 -66 -65
-100 0 -166 47 -47 47 -48 47 -115 0 -59 3 -71 25 -92 21 -22 33 -25 92 -25
67 0 68 0 115 -47 66 -65 100 -65 166 0 47 47 48 47 115 47 59 0 71 3 92 25
22 21 25 33 25 92 0 67 0 68 47 115 38 39 47 54 47 83 0 29 -9 44 -47 83 -47
47 -47 48 -47 115 0 59 -3 71 -25 92 -21 22 -33 25 -92 25 -66 0 -68 1 -113
44 -47 47 -82 61 -115 47z m53 -332 c85 -49 100 -64 86 -87 -15 -23 -154 -103
-173 -100 -13 3 -17 21 -19 102 -1 55 0 106 2 113 8 21 29 16 104 -28z"/>
</g>
</svg>
