<?xml version="1.0" standalone="no"?>
<!DOCTYPE svg PUBLIC "-//W3C//DTD SVG 20010904//EN"
 "http://www.w3.org/TR/2001/REC-SVG-20010904/DTD/svg10.dtd">
<svg version="1.0" xmlns="http://www.w3.org/2000/svg"
 width="192.000000pt" height="192.000000pt" viewBox="0 0 192.000000 192.000000"
 preserveAspectRatio="xMidYMid meet">
<metadata>
Created by potrace 1.16, written by Peter Selinger 2001-2019
</metadata>
<g transform="translate(0.000000,192.000000) scale(0.100000,-0.100000)"
fill="#000000" stroke="none">
811 c445 -92 729 -532 635 -987 -62 -301 -295 -546 -601 -630 -91 -26 -329
-26 -420 0 -291 80 -516 305 -596 596 -26 91 -26 329 0 420 120 433 542 692
982 601z"/>
<path d="M941 1363 c-29 -56 -70 -68 -114 -33 -34 27 -37 26 -37 -13 0 -51
-28 -71 -86 -62 -41 6 -46 5 -40 -10 19 -50 18 -64 -8 -89 -16 -17 -36 -26
-56 -26 l-30 0 26 -40 c23 -34 25 -44 16 -65 -6 -13 -25 -31 -42 -40 -16 -8
-30 -18 -30 -20 0 -2 14 -12 30 -20 17 -9 36 -27 42 -40 9 -21 7 -31 -16 -65
l-26 -40 30 0 c20 0 40 -9 56 -26 26 -25 27 -39 8 -89 -6 -14 0 -15 43 -9 45
6 52 4 67 -17 9 -13 16 -36 16 -51 0 -33 4 -34 37 -8 45 35 72 27 116 -34 14
-19 15 -19 26 1 29 56 70 68 114 33 33 -26 37 -25 37 8 0 15 7 38 16 51 15 21
22 23 67 17 43 -6 49 -5 43 9 -19 50 -18 64 8 89 16 17 36 26 56 26 l30 0 -26
40 c-23 34 -25 44 -16 65 6 13 25 31 42 40 16 8 30 18 30 20 0 2 -14 12 -30
20 -17 9 -36 27 -42 40 -9 21 -7 31 16 65 l26 40 -30 0 c-20 0 -40 9 -56 26
-26 25 -27 39 -8 89 6 15 1 16 -40 10 -58 -9 -86 11 -86 62 0 39 -3 40 -37 13
-45 -35 -72 -27 -116 34 -14 19 -15 19 -26 -1z m98 -223 c114 -57 145 -204 64
-300 -115 -137 -343 -54 -343 125 0 140 156 238 279 175z"/>
<path d="M883 1080 c-115 -70 -63 -250 72 -250 76 0 135 59 135 135 0 106
-116 171 -207 115z"/>
</g>
</svg>
