<?xml version="1.0" standalone="no"?>
<!DOCTYPE svg PUBLIC "-//W3C//DTD SVG 20010904//EN"
 "http://www.w3.org/TR/2001/REC-SVG-20010904/DTD/svg10.dtd">
<svg version="1.0" xmlns="http://www.w3.org/2000/svg"
 width="192.000000pt" height="192.000000pt" viewBox="0 0 192.000000 192.000000"
 preserveAspectRatio="xMidYMid meet">
<metadata>
Created by potrace 1.16, written by Peter Selinger 2001-2019
</metadata>
<g transform="translate(0.000000,192.000000) scale(0.100000,-0.100000)"
fill="#000000" stroke="none">
811 c445 -92 729 -532 635 -987 -62 -301 -295 -546 -601 -630 -91 -26 -329
-26 -420 0 -291 80 -516 305 -596 596 -26 91 -26 329 0 420 120 433 542 692
982 601z"/>
<path d="M562 1201 c-11 -6 -13 -32 -10 -108 3 -92 5 -103 32 -137 38 -51 105
-80 163 -72 51 7 54 -3 13 -37 -35 -30 -38 -54 -9 -91 27 -34 57 -33 97 4 55
50 62 80 62 269 0 184 1 181 -58 181 -44 0 -50 -11 -53 -98 -4 -69 -8 -86 -24
-98 -28 -21 -63 -17 -90 11 -22 21 -25 33 -25 93 0 39 -5 73 -12 80 -14 14
-67 16 -86 3z"/>
<path d="M1050 1193 c-19 -10 -45 -33 -57 -52 -22 -32 -23 -43 -23 -221 0
-207 -2 -200 65 -200 42 0 55 21 55 83 0 36 4 46 20 50 15 4 31 -9 70 -58 53
-67 65 -75 111 -75 21 0 32 7 40 24 14 31 4 73 -19 80 -9 3 -23 15 -30 26 -11
18 -9 24 19 47 40 34 59 79 59 139 0 62 -25 110 -72 142 -53 35 -184 43 -238
15z m175 -123 c18 -15 20 -61 3 -78 -7 -7 -39 -12 -75 -12 l-63 0 0 49 c0 30
5 52 13 55 20 9 105 0 122 -14z"/>
</g>
</svg>
