<?xml version="1.0" standalone="no"?>
<!DOCTYPE svg PUBLIC "-//W3C//DTD SVG 20010904//EN"
 "http://www.w3.org/TR/2001/REC-SVG-20010904/DTD/svg10.dtd">
<svg version="1.0" xmlns="http://www.w3.org/2000/svg"
 width="192.000000pt" height="192.000000pt" viewBox="0 0 192.000000 192.000000"
 preserveAspectRatio="xMidYMid meet">
<metadata>
Created by potrace 1.16, written by Peter Selinger 2001-2019
</metadata>
<g transform="translate(0.000000,192.000000) scale(0.100000,-0.100000)"
fill="#000000" stroke="none">
811 c445 -92 729 -532 635 -987 -62 -301 -295 -546 -601 -630 -91 -26 -329
-26 -420 0 -291 80 -516 305 -596 596 -26 91 -26 329 0 420 120 433 542 692
982 601z"/>
<path d="M1148 1353 c-8 -10 -37 -57 -64 -106 l-48 -87 -30 29 c-73 68 -110
61 -162 -34 l-33 -59 59 -62 c33 -34 60 -67 60 -73 0 -28 -26 -17 -82 33 l-62
55 -36 -62 c-20 -34 -51 -90 -70 -124 l-34 -63 38 -39 c21 -22 35 -44 32 -50
-11 -17 -23 -13 -60 20 l-35 30 -20 -40 c-29 -55 -27 -87 8 -121 52 -52 68
-50 199 25 64 37 119 69 121 72 3 2 -14 23 -37 46 -23 24 -42 48 -42 54 0 30
26 21 73 -25 l52 -50 125 73 c123 73 160 103 160 131 0 8 -18 34 -40 58 l-40
43 69 31 c70 31 86 50 75 84 -12 38 -42 39 -152 4 -22 -7 -21 -3 17 73 42 83
50 118 29 139 -17 17 -53 15 -70 -5z"/>
</g>
</svg>
