<?xml version="1.0" standalone="no"?>
<!DOCTYPE svg PUBLIC "-//W3C//DTD SVG 20010904//EN"
 "http://www.w3.org/TR/2001/REC-SVG-20010904/DTD/svg10.dtd">
<svg version="1.0" xmlns="http://www.w3.org/2000/svg"
 width="192.000000pt" height="192.000000pt" viewBox="0 0 192.000000 192.000000"
 preserveAspectRatio="xMidYMid meet">
<metadata>
Created by potrace 1.16, written by Peter Selinger 2001-2019
</metadata>
<g transform="translate(0.000000,192.000000) scale(0.100000,-0.100000)"
fill="#000000" stroke="none">
811 c445 -92 729 -532 635 -987 -62 -301 -295 -546 -601 -630 -91 -26 -329
-26 -420 0 -291 80 -516 305 -596 596 -26 91 -26 329 0 420 120 433 542 692
982 601z"/>
<path d="M835 1356 c-67 -21 -125 -55 -176 -103 -53 -50 -63 -85 -29 -103 17
-9 28 -4 73 39 99 93 211 126 328 97 70 -18 159 -71 185 -111 22 -34 67 -32
72 4 4 28 -60 98 -123 135 -89 53 -237 71 -330 42z"/>
<path d="M887 1240 c-79 -20 -171 -86 -165 -118 5 -23 35 -39 52 -27 81 60
100 69 155 73 62 5 118 -15 174 -60 22 -18 31 -20 45 -12 29 19 26 49 -10 79
-67 57 -172 84 -251 65z"/>
<path d="M593 1109 c-24 -9 -30 -23 -43 -103 -19 -119 28 -254 120 -340 55
-51 131 -93 188 -102 56 -9 72 17 72 113 0 144 -42 255 -128 335 -74 70 -167
113 -209 97z"/>
<path d="M1248 1106 c-102 -37 -191 -117 -236 -214 -24 -50 -27 -72 -30 -180
-4 -143 1 -157 59 -149 106 14 230 111 285 222 27 55 29 69 29 167 0 93 -3
110 -21 135 -25 34 -38 36 -86 19z"/>
</g>
</svg>
