<?xml version="1.0" standalone="no"?>
<!DOCTYPE svg PUBLIC "-//W3C//DTD SVG 20010904//EN"
 "http://www.w3.org/TR/2001/REC-SVG-20010904/DTD/svg10.dtd">
<svg version="1.0" xmlns="http://www.w3.org/2000/svg"
 width="192.000000pt" height="192.000000pt" viewBox="0 0 192.000000 192.000000"
 preserveAspectRatio="xMidYMid meet">
<metadata>
Created by potrace 1.16, written by Peter Selinger 2001-2019
</metadata>
<g transform="translate(0.000000,192.000000) scale(0.100000,-0.100000)"
fill="#000000" stroke="none">
811 c445 -92 729 -532 635 -987 -62 -301 -295 -546 -601 -630 -91 -26 -329
-26 -420 0 -291 80 -516 305 -596 596 -26 91 -26 329 0 420 120 433 542 692
982 601z"/>
<path d="M597 1240 c-40 -12 -57 -29 -57 -55 0 -33 23 -49 49 -33 11 7 22 10
25 7 3 -2 -6 -47 -19 -98 -35 -139 -16 -172 91 -157 50 6 52 -8 3 -18 -37 -7
-95 -62 -105 -100 -9 -37 12 -82 46 -96 61 -25 135 20 158 99 7 22 15 41 18
41 3 0 71 -13 152 -29 81 -16 172 -32 203 -36 71 -9 161 9 196 40 24 20 26 25
15 49 -13 30 -22 31 -77 11 -22 -8 -75 -14 -118 -15 -87 0 -282 29 -270 41 12
11 45 13 65 5 42 -19 52 -5 70 104 21 126 18 142 -25 138 -30 -3 -31 -5 -45
-78 -12 -68 -26 -95 -42 -85 -4 2 -2 33 3 68 13 83 7 99 -35 95 -27 -2 -33 -8
-35 -28 -2 -14 -8 -55 -14 -92 -12 -77 -6 -106 24 -118 19 -7 16 -9 -15 -9
-20 -1 -39 2 -41 7 -3 4 7 75 21 158 14 83 23 158 19 167 -8 20 -66 24 -71 5
-2 -7 -11 -58 -19 -113 -18 -107 -29 -125 -79 -125 -33 0 -33 -3 -8 85 11 38
20 84 20 101 0 50 -48 80 -103 64z m109 -448 c-4 -11 -13 -23 -21 -26 -22 -8
-19 31 2 43 22 12 27 8 19 -17z"/>
<path d="M1175 1141 c-11 -5 -36 -6 -55 -4 l-35 5 -19 -111 c-19 -118 -16
-141 24 -141 26 0 37 19 45 80 9 67 21 100 36 100 8 0 9 -11 5 -32 -3 -18 -9
-56 -12 -84 -6 -51 -6 -53 20 -60 39 -9 53 9 60 78 4 34 12 71 18 81 17 32 27
5 17 -45 -6 -26 -9 -62 -7 -80 2 -27 8 -34 30 -36 35 -4 42 11 58 127 13 94
13 94 -10 113 -17 14 -31 17 -49 12 -30 -9 -58 -9 -86 -1 -11 4 -29 2 -40 -2z"/>
</g>
</svg>
