<?xml version="1.0" standalone="no"?>
<!DOCTYPE svg PUBLIC "-//W3C//DTD SVG 20010904//EN"
 "http://www.w3.org/TR/2001/REC-SVG-20010904/DTD/svg10.dtd">
<svg version="1.0" xmlns="http://www.w3.org/2000/svg"
 width="192.000000pt" height="192.000000pt" viewBox="0 0 192.000000 192.000000"
 preserveAspectRatio="xMidYMid meet">
<metadata>
Created by potrace 1.16, written by Peter Selinger 2001-2019
</metadata>
<g transform="translate(0.000000,192.000000) scale(0.100000,-0.100000)"
fill="#000000" stroke="none">
811 c445 -92 729 -532 635 -987 -62 -301 -295 -546 -601 -630 -91 -26 -329
-26 -420 0 -291 80 -516 305 -596 596 -26 91 -26 329 0 420 120 433 542 692
982 601z"/>
<path d="M650 1342 c-50 -51 -90 -216 -90 -377 0 -161 40 -326 90 -377 35 -35
83 -37 188 -8 100 28 189 70 287 135 84 56 208 177 220 215 15 46 -5 89 -72
161 -110 116 -275 214 -435 259 -105 29 -153 27 -188 -8z m287 -242 c64 -29
153 -108 153 -135 0 -44 -130 -139 -227 -164 -54 -15 -77 -3 -94 46 -17 49
-17 187 0 235 22 66 55 70 168 18z"/>
<path d="M826 1028 c-9 -36 -7 -118 4 -139 6 -10 20 -19 31 -19 28 0 89 33
117 63 20 21 22 28 11 45 -20 31 -90 72 -125 72 -24 0 -33 -5 -38 -22z"/>
</g>
</svg>
