<?xml version="1.0" standalone="no"?>
<!DOCTYPE svg PUBLIC "-//W3C//DTD SVG 20010904//EN"
 "http://www.w3.org/TR/2001/REC-SVG-20010904/DTD/svg10.dtd">
<svg version="1.0" xmlns="http://www.w3.org/2000/svg"
 width="192.000000pt" height="192.000000pt" viewBox="0 0 192.000000 192.000000"
 preserveAspectRatio="xMidYMid meet">
<metadata>
Created by potrace 1.16, written by Peter Selinger 2001-2019
</metadata>
<g transform="translate(0.000000,192.000000) scale(0.100000,-0.100000)"
fill="#000000" stroke="none">
811 c445 -92 729 -532 635 -987 -62 -301 -295 -546 -601 -630 -91 -26 -329
-26 -420 0 -291 80 -516 305 -596 596 -26 91 -26 329 0 420 120 433 542 692
982 601z"/>
<path d="M662 1354 c-29 -20 -56 -73 -78 -155 -26 -92 -26 -376 0 -468 22 -82
49 -135 78 -155 47 -34 174 -12 314 53 115 54 189 104 272 185 137 132 137
170 0 302 -83 81 -157 131 -272 185 -140 65 -267 87 -314 53z m257 -244 c62
-29 139 -87 156 -119 12 -25 12 -31 -5 -58 -43 -71 -209 -154 -266 -132 -45
16 -63 201 -29 287 16 40 19 42 59 42 22 0 61 -9 85 -20z"/>
</g>
</svg>
