<?xml version="1.0" standalone="no"?>
<!DOCTYPE svg PUBLIC "-//W3C//DTD SVG 20010904//EN"
 "http://www.w3.org/TR/2001/REC-SVG-20010904/DTD/svg10.dtd">
<svg version="1.0" xmlns="http://www.w3.org/2000/svg"
 width="192.000000pt" height="192.000000pt" viewBox="0 0 192.000000 192.000000"
 preserveAspectRatio="xMidYMid meet">
<metadata>
Created by potrace 1.16, written by Peter Selinger 2001-2019
</metadata>
<g transform="translate(0.000000,192.000000) scale(0.100000,-0.100000)"
fill="#000000" stroke="none">
811 c445 -92 729 -532 635 -987 -62 -301 -295 -546 -601 -630 -91 -26 -329
-26 -420 0 -291 80 -516 305 -596 596 -26 91 -26 329 0 420 120 433 542 692
982 601z"/>
<path d="M857 1370 c-107 -27 -221 -120 -270 -220 -54 -111 -58 -228 -11 -346
15 -37 24 -81 24 -115 0 -76 7 -83 92 -90 40 -3 100 -16 133 -29 50 -18 75
-21 147 -18 75 4 96 9 161 41 310 153 304 602 -8 749 -53 24 -82 31 -148 34
-45 2 -99 -1 -120 -6z m-17 -285 c11 -13 3 -28 -49 -96 -33 -44 -61 -82 -61
-84 0 -3 25 -5 55 -5 42 0 57 -4 62 -16 10 -25 -16 -34 -105 -34 -109 0 -112
8 -33 111 33 44 61 82 61 84 0 3 -25 5 -55 5 -42 0 -57 4 -62 16 -9 25 16 34
98 34 56 0 80 -4 89 -15z m251 -98 c3 -51 7 -98 10 -105 5 -18 -24 -37 -45
-29 -13 5 -16 24 -16 121 0 82 3 116 13 119 24 9 32 -15 38 -106z m-95 18 c22
-22 25 -32 22 -87 l-3 -62 -52 -3 c-44 -2 -57 1 -82 23 -25 21 -31 33 -31 65
0 81 90 120 146 64z m247 5 c52 -41 40 -124 -21 -149 -57 -24 -108 8 -119 72
-5 31 -1 40 25 67 36 36 77 39 115 10z"/>
<path d="M907 974 c-13 -13 -7 -51 9 -65 23 -19 49 1 49 37 0 24 -5 30 -25 32
-14 2 -29 0 -33 -4z"/>
<path d="M1160 965 c-26 -32 13 -81 48 -59 34 22 22 74 -18 74 -10 0 -23 -7
-30 -15z"/>
</g>
</svg>
