<?xml version="1.0" standalone="no"?>
<!DOCTYPE svg PUBLIC "-//W3C//DTD SVG 20010904//EN"
 "http://www.w3.org/TR/2001/REC-SVG-20010904/DTD/svg10.dtd">
<svg version="1.0" xmlns="http://www.w3.org/2000/svg"
 width="192.000000pt" height="192.000000pt" viewBox="0 0 192.000000 192.000000"
 preserveAspectRatio="xMidYMid meet">
<metadata>
Created by potrace 1.16, written by Peter Selinger 2001-2019
</metadata>
<g transform="translate(0.000000,192.000000) scale(0.100000,-0.100000)"
fill="#000000" stroke="none">
811 c445 -92 729 -532 635 -987 -62 -301 -295 -546 -601 -630 -91 -26 -329
-26 -420 0 -291 80 -516 305 -596 596 -26 91 -26 329 0 420 120 433 542 692
982 601z"/>
<path d="M683 1319 c-41 -20 -85 -72 -98 -118 -6 -19 -4 -23 7 -19 67 26 189
59 268 72 101 16 206 23 215 14 3 -3 -19 -52 -49 -109 -30 -57 -66 -134 -80
-172 l-26 -67 73 7 c39 5 132 8 205 7 l133 0 -3 141 c-3 137 -4 143 -32 183
-52 76 -78 82 -342 82 -211 0 -232 -2 -271 -21z"/>
<path d="M685 1088 c-44 -5 -86 -10 -92 -13 -10 -3 -13 -48 -13 -175 0 -151 2
-175 20 -210 24 -47 71 -84 125 -99 52 -14 408 -14 460 0 92 25 145 97 145
199 l0 60 -34 0 c-118 0 -331 -50 -468 -111 -125 -55 -122 -55 -119 11 3 75
27 204 50 278 10 34 16 63 12 65 -3 2 -42 -1 -86 -5z"/>
</g>
</svg>
