<?xml version="1.0" standalone="no"?>
<!DOCTYPE svg PUBLIC "-//W3C//DTD SVG 20010904//EN"
 "http://www.w3.org/TR/2001/REC-SVG-20010904/DTD/svg10.dtd">
<svg version="1.0" xmlns="http://www.w3.org/2000/svg"
 width="192.000000pt" height="192.000000pt" viewBox="0 0 192.000000 192.000000"
 preserveAspectRatio="xMidYMid meet">
<metadata>
Created by potrace 1.16, written by Peter Selinger 2001-2019
</metadata>
<g transform="translate(0.000000,192.000000) scale(0.100000,-0.100000)"
fill="#000000" stroke="none">
811 c445 -92 729 -532 635 -987 -62 -301 -295 -546 -601 -630 -91 -26 -329
-26 -420 0 -291 80 -516 305 -596 596 -26 91 -26 329 0 420 120 433 542 692
982 601z"/>
<path d="M540 1109 l0 -40 26 20 c25 20 90 38 100 29 2 -3 -25 -55 -61 -116
-60 -101 -66 -116 -63 -159 l3 -48 105 0 105 0 3 58 3 57 40 0 c41 0 43 -2 63
-67 6 -19 4 -23 -14 -23 -13 0 -20 -5 -17 -12 5 -18 219 -18 224 -1 2 6 -6 13
-19 15 -21 3 -23 9 -26 66 l-3 62 33 0 c49 0 59 -11 67 -75 5 -39 14 -63 27
-72 25 -19 99 -13 99 7 0 10 -8 14 -22 12 -19 -3 -23 2 -23 22 0 13 -3 31 -6
40 -5 13 2 16 39 16 39 0 46 -3 51 -24 3 -13 9 -31 12 -40 4 -12 0 -16 -16
-16 -13 0 -20 -5 -18 -12 5 -16 107 -23 120 -10 14 14 -113 347 -131 347 -9 0
-28 -36 -50 -97 -30 -84 -37 -95 -52 -87 -17 8 -16 11 7 34 49 49 17 127 -61
145 -22 5 -75 10 -117 10 -63 0 -78 -3 -78 -15 0 -8 9 -15 20 -15 19 0 20 -7
20 -105 0 -58 -2 -105 -4 -105 -2 0 -20 47 -40 104 -41 114 -59 147 -74 131
-5 -5 -26 -57 -47 -115 -44 -120 -68 -172 -87 -187 -18 -14 -78 -25 -78 -13 0
5 38 74 85 154 47 79 85 149 85 155 0 7 -38 11 -115 11 l-115 0 0 -41z m528
-5 c16 -11 22 -25 22 -54 0 -44 -20 -70 -56 -70 -23 0 -24 3 -24 63 0 82 11
94 58 61z m-259 -106 c25 -66 24 -68 -8 -68 -34 0 -37 9 -20 59 13 37 17 38
28 9z m435 -60 c-6 -9 -48 -11 -56 -2 -3 3 1 24 10 46 l16 41 17 -39 c10 -21
15 -42 13 -46z"/>
</g>
</svg>
