<?xml version="1.0" standalone="no"?>
<!DOCTYPE svg PUBLIC "-//W3C//DTD SVG 20010904//EN"
 "http://www.w3.org/TR/2001/REC-SVG-20010904/DTD/svg10.dtd">
<svg version="1.0" xmlns="http://www.w3.org/2000/svg"
 width="192.000000pt" height="192.000000pt" viewBox="0 0 192.000000 192.000000"
 preserveAspectRatio="xMidYMid meet">
<metadata>
Created by potrace 1.16, written by Peter Selinger 2001-2019
</metadata>
<g transform="translate(0.000000,192.000000) scale(0.100000,-0.100000)"
fill="#000000" stroke="none">
811 c445 -92 729 -532 635 -987 -62 -301 -295 -546 -601 -630 -91 -26 -329
-26 -420 0 -291 80 -516 305 -596 596 -26 91 -26 329 0 420 120 433 542 692
982 601z"/>
<path d="M826 1243 c-4 -5 -102 -29 -148 -37 -28 -5 -38 -12 -38 -26 0 -24 59
-83 76 -76 8 3 45 8 82 12 l67 6 -42 -32 c-24 -17 -43 -36 -43 -41 0 -5 -6 -9
-13 -9 -26 0 -172 -137 -195 -183 -12 -24 -22 -49 -22 -55 0 -23 89 -101 129
-113 46 -14 153 -2 263 28 46 13 63 14 83 5 14 -7 49 -12 78 -12 41 0 64 7
107 33 30 18 56 40 58 49 3 14 -5 14 -69 -3 -95 -25 -112 -24 -74 3 51 37 95
88 95 110 0 30 -37 86 -62 94 -63 19 -193 -20 -218 -66 -6 -12 -10 -47 -8 -78
l3 -56 -60 -13 c-89 -18 -205 -17 -205 2 0 8 4 15 8 15 5 0 14 11 20 25 6 14
17 25 24 25 6 0 33 18 58 39 26 22 95 72 153 111 58 38 109 79 112 90 7 24
-19 71 -63 113 -24 23 -44 31 -91 36 -34 4 -63 6 -65 4z m291 -351 c-21 -23
-97 -66 -97 -55 0 12 50 59 70 66 34 12 44 8 27 -11z"/>
<path d="M1222 1185 c-129 -20 -133 -25 -81 -88 28 -33 59 -49 59 -29 0 4 27
21 59 37 50 25 91 65 91 89 0 8 -30 6 -128 -9z"/>
</g>
</svg>
