<?xml version="1.0" standalone="no"?>
<!DOCTYPE svg PUBLIC "-//W3C//DTD SVG 20010904//EN"
 "http://www.w3.org/TR/2001/REC-SVG-20010904/DTD/svg10.dtd">
<svg version="1.0" xmlns="http://www.w3.org/2000/svg"
 width="192.000000pt" height="192.000000pt" viewBox="0 0 192.000000 192.000000"
 preserveAspectRatio="xMidYMid meet">
<metadata>
Created by potrace 1.16, written by Peter Selinger 2001-2019
</metadata>
<g transform="translate(0.000000,192.000000) scale(0.100000,-0.100000)"
fill="#000000" stroke="none">
811 c445 -92 729 -532 635 -987 -62 -301 -295 -546 -601 -630 -91 -26 -329
-26 -420 0 -291 80 -516 305 -596 596 -26 91 -26 329 0 420 120 433 542 692
982 601z"/>
<path d="M783 1187 c-10 -13 -27 -58 -37 -100 l-19 -77 -78 0 c-69 0 -80 -3
-93 -22 -13 -19 -14 -25 -2 -43 11 -16 26 -21 80 -23 l66 -3 -6 -27 c-4 -15
-11 -37 -15 -50 -15 -40 -10 -88 10 -106 18 -16 41 -17 228 -14 199 3 210 4
263 29 78 37 114 71 149 141 54 108 54 192 -2 255 -52 59 -71 63 -311 63 -213
0 -215 0 -233 -23z m392 -77 c22 -5 48 -19 58 -31 25 -31 22 -96 -8 -155 -28
-56 -70 -88 -135 -103 -49 -11 -300 -15 -300 -4 0 5 58 221 76 286 5 15 20 17
137 17 73 0 150 -5 172 -10z"/>
<path d="M911 978 c-12 -46 -21 -89 -21 -95 0 -9 23 -13 83 -13 109 1 157 21
180 79 22 53 21 67 -3 91 -17 17 -33 20 -118 20 l-99 0 -22 -82z"/>
</g>
</svg>
