<?xml version="1.0" standalone="no"?>
<!DOCTYPE svg PUBLIC "-//W3C//DTD SVG 20010904//EN"
 "http://www.w3.org/TR/2001/REC-SVG-20010904/DTD/svg10.dtd">
<svg version="1.0" xmlns="http://www.w3.org/2000/svg"
 width="192.000000pt" height="192.000000pt" viewBox="0 0 192.000000 192.000000"
 preserveAspectRatio="xMidYMid meet">
<metadata>
Created by potrace 1.16, written by Peter Selinger 2001-2019
</metadata>
<g transform="translate(0.000000,192.000000) scale(0.100000,-0.100000)"
fill="#000000" stroke="none">
811 c445 -92 729 -532 635 -987 -62 -301 -295 -546 -601 -630 -91 -26 -329
-26 -420 0 -291 80 -516 305 -596 596 -26 91 -26 329 0 420 120 433 542 692
982 601z"/>
<path d="M784 1341 c-216 -102 -304 -346 -200 -556 81 -163 257 -256 433 -227
74 12 113 34 113 62 0 32 -31 41 -86 24 -73 -23 -160 -13 -239 25 -108 54
-174 151 -183 270 -11 162 88 306 239 348 46 13 61 21 65 39 3 13 3 28 -1 33
-12 20 -80 11 -141 -18z"/>
<path d="M825 1236 c-194 -93 -230 -353 -68 -496 47 -41 70 -49 91 -28 21 21
13 44 -29 78 -47 37 -89 117 -89 169 0 93 71 191 160 221 40 13 45 18 45 45 0
26 -4 30 -30 33 -16 1 -52 -8 -80 -22z"/>
<path d="M818 1093 c-14 -16 -31 -39 -38 -52 -17 -33 -15 -122 3 -157 24 -45
62 -77 85 -70 33 11 35 36 5 79 -36 52 -36 104 1 147 30 37 31 43 10 64 -22
23 -37 20 -66 -11z"/>
<path d="M962 1068 c2 -16 12 -25 29 -28 l27 -5 -36 -87 c-43 -106 -38 -121
42 -116 47 3 51 5 51 28 0 19 -6 26 -27 30 l-27 5 34 82 c19 45 32 89 29 98
-5 11 -21 15 -66 15 -56 0 -59 -1 -56 -22z"/>
<path d="M1107 1083 c-13 -12 -8 -228 5 -241 17 -17 93 -15 108 3 17 20 -3 45
-36 45 -34 0 -35 47 -1 52 14 2 22 10 22 23 0 13 -8 21 -22 23 -17 3 -23 10
-23 28 0 20 5 24 29 24 28 0 47 22 35 41 -6 10 -107 12 -117 2z"/>
<path d="M1252 963 l3 -128 34 -3 c51 -5 81 5 81 28 0 15 -9 22 -30 27 -23 4
-30 11 -30 29 0 17 6 24 19 24 20 0 35 25 25 41 -3 5 -14 9 -25 9 -13 0 -19 7
-19 24 0 19 6 25 28 28 19 2 27 9 27 23 0 17 -8 20 -58 23 l-58 3 3 -128z"/>
</g>
</svg>
