<?xml version="1.0" standalone="no"?>
<!DOCTYPE svg PUBLIC "-//W3C//DTD SVG 20010904//EN"
 "http://www.w3.org/TR/2001/REC-SVG-20010904/DTD/svg10.dtd">
<svg version="1.0" xmlns="http://www.w3.org/2000/svg"
 width="192.000000pt" height="192.000000pt" viewBox="0 0 192.000000 192.000000"
 preserveAspectRatio="xMidYMid meet">
<metadata>
Created by potrace 1.16, written by Peter Selinger 2001-2019
</metadata>
<g transform="translate(0.000000,192.000000) scale(0.100000,-0.100000)"
fill="#000000" stroke="none">
811 c445 -92 729 -532 635 -987 -62 -301 -295 -546 -601 -630 -91 -26 -329
-26 -420 0 -291 80 -516 305 -596 596 -26 91 -26 329 0 420 120 433 542 692
982 601z"/>
<path d="M625 1358 c-59 -32 -74 -114 -31 -165 l24 -28 202 -5 202 -5 -221
-194 c-243 -213 -256 -230 -232 -304 13 -39 59 -84 94 -92 12 -3 158 -5 324
-3 l303 3 27 28 c40 39 40 105 0 144 l-27 28 -202 5 -202 5 204 178 c113 98
215 192 228 209 16 22 22 45 22 81 0 44 -4 53 -39 88 l-39 39 -308 0 c-205 -1
-316 -4 -329 -12z"/>
</g>
</svg>
