<?xml version="1.0" standalone="no"?>
<!DOCTYPE svg PUBLIC "-//W3C//DTD SVG 20010904//EN"
 "http://www.w3.org/TR/2001/REC-SVG-20010904/DTD/svg10.dtd">
<svg version="1.0" xmlns="http://www.w3.org/2000/svg"
 width="192.000000pt" height="192.000000pt" viewBox="0 0 192.000000 192.000000"
 preserveAspectRatio="xMidYMid meet">
<metadata>
Created by potrace 1.16, written by Peter Selinger 2001-2019
</metadata>
<g transform="translate(0.000000,192.000000) scale(0.100000,-0.100000)"
fill="#000000" stroke="none">
811 c445 -92 729 -532 635 -987 -62 -301 -295 -546 -601 -630 -91 -26 -329
-26 -420 0 -291 80 -516 305 -596 596 -26 91 -26 329 0 420 120 433 542 692
982 601z"/>
<path d="M925 1368 c-31 -18 -44 -40 -45 -75 l0 -33 -69 0 c-63 0 -71 -2 -90
-26 -27 -34 -27 -64 0 -98 20 -25 24 -26 125 -26 57 0 104 -3 104 -8 0 -4 -54
-76 -120 -160 -116 -146 -120 -153 -120 -200 0 -26 5 -53 12 -60 7 -7 42 -12
85 -12 l73 0 0 -32 c1 -48 40 -88 85 -88 29 0 75 55 75 89 l0 31 65 0 c77 0
105 20 105 73 0 63 -15 71 -144 77 l-115 5 124 159 c119 152 125 161 125 206
0 25 -5 51 -12 58 -7 7 -40 12 -80 12 l-68 0 0 31 c0 20 -10 40 -29 60 -31 31
-54 35 -86 17z"/>
</g>
</svg>
