<?xml version="1.0" standalone="no"?>
<!DOCTYPE svg PUBLIC "-//W3C//DTD SVG 20010904//EN"
 "http://www.w3.org/TR/2001/REC-SVG-20010904/DTD/svg10.dtd">
<svg version="1.0" xmlns="http://www.w3.org/2000/svg"
 width="192.000000pt" height="192.000000pt" viewBox="0 0 192.000000 192.000000"
 preserveAspectRatio="xMidYMid meet">
<metadata>
Created by potrace 1.16, written by Peter Selinger 2001-2019
</metadata>
<g transform="translate(0.000000,192.000000) scale(0.100000,-0.100000)"
fill="#000000" stroke="none">
811 c445 -92 729 -532 635 -987 -62 -301 -295 -546 -601 -630 -91 -26 -329
-26 -420 0 -291 80 -516 305 -596 596 -26 91 -26 329 0 420 120 433 542 692
982 601z"/>
<path d="M613 1325 c-54 -38 -44 -127 17 -157 29 -15 63 -18 205 -18 l170 0
-207 -207 c-114 -115 -211 -219 -216 -233 -5 -14 -5 -39 0 -57 17 -63 18 -63
376 -63 l323 0 24 26 c27 29 33 80 14 116 -21 39 -67 48 -246 48 l-167 0 212
213 c206 207 212 214 212 254 0 30 -7 47 -26 67 l-27 26 -321 0 c-268 0 -325
-2 -343 -15z"/>
</g>
</svg>
