<?xml version="1.0" standalone="no"?>
<!DOCTYPE svg PUBLIC "-//W3C//DTD SVG 20010904//EN"
 "http://www.w3.org/TR/2001/REC-SVG-20010904/DTD/svg10.dtd">
<svg version="1.0" xmlns="http://www.w3.org/2000/svg"
 width="192.000000pt" height="192.000000pt" viewBox="0 0 192.000000 192.000000"
 preserveAspectRatio="xMidYMid meet">
<metadata>
Created by potrace 1.16, written by Peter Selinger 2001-2019
</metadata>
<g transform="translate(0.000000,192.000000) scale(0.100000,-0.100000)"
fill="#000000" stroke="none">
811 c445 -92 729 -532 635 -987 -62 -301 -295 -546 -601 -630 -91 -26 -329
-26 -420 0 -291 80 -516 305 -596 596 -26 91 -26 329 0 420 120 433 542 692
982 601z"/>
<path d="M600 1310 c-11 -11 -20 -31 -20 -45 0 -14 9 -34 20 -45 19 -19 34
-20 263 -20 l242 -1 -82 -79 -82 -80 -161 0 c-147 0 -162 -2 -180 -20 -26 -26
-25 -51 1 -84 19 -25 25 -26 112 -26 l92 -1 -112 -108 c-121 -116 -134 -140
-93 -181 19 -19 33 -20 353 -20 373 0 377 1 377 65 0 62 -13 65 -283 65 l-239
0 93 90 94 89 148 1 c133 0 149 2 167 20 11 11 20 31 20 45 0 47 -31 65 -115
65 -41 0 -75 2 -75 5 0 2 43 45 95 96 82 80 95 96 95 125 0 63 -5 64 -377 64
-320 0 -334 -1 -353 -20z"/>
</g>
</svg>
