<?xml version="1.0" standalone="no"?>
<!DOCTYPE svg PUBLIC "-//W3C//DTD SVG 20010904//EN"
 "http://www.w3.org/TR/2001/REC-SVG-20010904/DTD/svg10.dtd">
<svg version="1.0" xmlns="http://www.w3.org/2000/svg"
 width="192.000000pt" height="192.000000pt" viewBox="0 0 192.000000 192.000000"
 preserveAspectRatio="xMidYMid meet">
<metadata>
Created by potrace 1.16, written by Peter Selinger 2001-2019
</metadata>
<g transform="translate(0.000000,192.000000) scale(0.100000,-0.100000)"
fill="#000000" stroke="none">
811 c445 -92 729 -532 635 -987 -62 -301 -295 -546 -601 -630 -91 -26 -329
-26 -420 0 -291 80 -516 305 -596 596 -26 91 -26 329 0 420 120 433 542 692
982 601z"/>
<path d="M755 1336 c-5 -3 -22 -7 -37 -10 -37 -8 -98 -63 -114 -103 -22 -51
-20 -473 2 -516 23 -45 44 -66 86 -88 33 -17 61 -19 263 -19 202 0 230 2 263
19 42 22 63 43 86 88 13 27 16 69 16 257 0 238 -4 262 -48 309 -55 59 -69 62
-297 64 -115 1 -214 1 -220 -1z m166 -269 c26 -71 49 -130 52 -133 2 -3 17 31
32 75 28 80 46 101 70 81 7 -6 34 -72 60 -148 27 -79 56 -143 66 -151 37 -27
23 -41 -41 -41 -61 0 -75 11 -49 37 7 7 9 19 6 27 -10 25 -103 22 -116 -3 -8
-14 -7 -22 4 -31 8 -7 12 -16 9 -21 -7 -11 -111 -12 -118 -1 -3 5 6 19 19 30
30 26 30 30 8 93 l-18 49 -53 0 c-56 0 -76 -17 -52 -45 20 -24 2 -35 -56 -35
-47 0 -54 2 -54 20 0 11 6 20 14 20 16 0 13 -5 72 160 24 69 47 131 49 138 3
7 15 12 27 10 19 -2 30 -24 69 -131z"/>
<path d="M841 1047 c-6 -15 -14 -39 -17 -52 -6 -23 -3 -25 30 -25 20 0 36 1
36 3 0 1 -9 25 -19 52 l-19 50 -11 -28z"/>
<path d="M1038 920 l-16 -50 35 0 c32 0 35 2 29 25 -8 32 -25 75 -29 75 -2 0
-10 -22 -19 -50z"/>
</g>
</svg>
