<?xml version="1.0" standalone="no"?>
<!DOCTYPE svg PUBLIC "-//W3C//DTD SVG 20010904//EN"
 "http://www.w3.org/TR/2001/REC-SVG-20010904/DTD/svg10.dtd">
<svg version="1.0" xmlns="http://www.w3.org/2000/svg"
 width="192.000000pt" height="192.000000pt" viewBox="0 0 192.000000 192.000000"
 preserveAspectRatio="xMidYMid meet">
<metadata>
Created by potrace 1.16, written by Peter Selinger 2001-2019
</metadata>
<g transform="translate(0.000000,192.000000) scale(0.100000,-0.100000)"
fill="#000000" stroke="none">
811 c445 -92 729 -532 635 -987 -62 -301 -295 -546 -601 -630 -91 -26 -329
-26 -420 0 -291 80 -516 305 -596 596 -26 91 -26 329 0 420 120 433 542 692
982 601z"/>
<path d="M885 1347 c-42 -19 -291 -253 -304 -285 -18 -44 -18 -77 -1 -75 8 1
124 23 257 48 134 26 253 45 265 43 48 -6 33 -40 -77 -172 -58 -71 -105 -130
-103 -132 4 -3 375 71 411 82 14 4 17 17 17 72 0 119 -9 134 -138 259 -65 62
-134 125 -155 140 -45 32 -125 41 -172 20z"/>
<path d="M965 985 c-5 -2 -99 -20 -209 -41 l-198 -37 4 -106 c4 -124 22 -165
92 -206 43 -25 44 -25 301 -25 257 0 258 0 301 25 23 14 52 40 63 59 23 36 40
126 24 126 -5 0 -127 -24 -270 -54 -265 -54 -293 -56 -293 -18 0 10 47 75 105
144 58 69 105 129 105 132 0 6 -8 7 -25 1z"/>
</g>
</svg>
