<?xml version="1.0" standalone="no"?>
<!DOCTYPE svg PUBLIC "-//W3C//DTD SVG 20010904//EN"
 "http://www.w3.org/TR/2001/REC-SVG-20010904/DTD/svg10.dtd">
<svg version="1.0" xmlns="http://www.w3.org/2000/svg"
 width="192.000000pt" height="192.000000pt" viewBox="0 0 192.000000 192.000000"
 preserveAspectRatio="xMidYMid meet">
<metadata>
Created by potrace 1.16, written by Peter Selinger 2001-2019
</metadata>
<g transform="translate(0.000000,192.000000) scale(0.100000,-0.100000)"
fill="#000000" stroke="none">
811 c445 -92 729 -532 635 -987 -62 -301 -295 -546 -601 -630 -91 -26 -329
-26 -420 0 -291 80 -516 305 -596 596 -26 91 -26 329 0 420 120 433 542 692
982 601z"/>
<path d="M695 1321 c-50 -22 -91 -69 -105 -119 -14 -53 -13 -425 2 -476 16
-52 72 -108 124 -124 49 -14 160 -16 169 -3 3 6 8 46 12 89 l6 80 -40 36 c-51
46 -68 101 -60 195 9 111 69 211 134 224 81 16 159 -87 170 -225 8 -93 -9
-149 -60 -194 l-40 -36 6 -80 c4 -43 9 -83 12 -89 9 -13 120 -11 169 3 52 16
108 72 124 124 15 51 16 423 2 476 -14 50 -55 97 -105 119 -35 16 -68 19 -260
19 -192 0 -225 -3 -260 -19z"/>
</g>
</svg>
