<?xml version="1.0" standalone="no"?>
<!DOCTYPE svg PUBLIC "-//W3C//DTD SVG 20010904//EN"
 "http://www.w3.org/TR/2001/REC-SVG-20010904/DTD/svg10.dtd">
<svg version="1.0" xmlns="http://www.w3.org/2000/svg"
 width="192.000000pt" height="192.000000pt" viewBox="0 0 192.000000 192.000000"
 preserveAspectRatio="xMidYMid meet">
<metadata>
Created by potrace 1.16, written by Peter Selinger 2001-2019
</metadata>
<g transform="translate(0.000000,192.000000) scale(0.100000,-0.100000)"
fill="#000000" stroke="none">
811 c445 -92 729 -532 635 -987 -62 -301 -295 -546 -601 -630 -91 -26 -329
-26 -420 0 -291 80 -516 305 -596 596 -26 91 -26 329 0 420 120 433 542 692
982 601z"/>
<path d="M689 1320 c-47 -25 -86 -71 -99 -118 -22 -81 -5 -131 40 -117 14 5
20 15 21 38 1 54 22 100 58 124 33 22 42 23 246 23 204 0 213 -1 246 -23 36
-24 57 -70 58 -124 1 -23 7 -33 21 -38 68 -22 65 120 -3 193 -12 13 -39 33
-59 43 -33 17 -60 19 -265 19 -205 -1 -232 -3 -264 -20z"/>
<path d="M1075 1211 c-16 -14 -75 -22 -75 -10 0 8 -4 8 -14 0 -8 -7 -29 -9
-54 -5 -36 6 -44 3 -78 -29 -36 -33 -39 -39 -39 -91 0 -31 -3 -56 -7 -56 -18
0 6 -29 28 -34 13 -4 24 -12 24 -20 0 -7 9 -21 20 -31 11 -10 17 -21 15 -26
-3 -4 3 -12 12 -18 16 -9 15 -13 -14 -43 -25 -25 -33 -29 -33 -15 0 9 -4 17
-10 17 -5 0 -10 6 -10 14 0 8 -6 16 -12 18 -7 3 -13 11 -14 19 0 8 -2 29 -2
47 -2 24 -7 32 -21 32 -12 0 -18 -7 -17 -17 1 -12 -6 -18 -19 -18 -17 0 -19 6
-17 35 3 28 1 33 -9 23 -18 -18 -29 -16 -29 5 -1 12 -10 6 -36 -23 -58 -66
-58 -102 1 -136 29 -17 33 -24 24 -35 -16 -19 7 -64 32 -64 10 0 19 -10 23
-24 7 -30 43 -44 59 -24 18 22 77 63 124 87 49 25 57 26 50 7 -3 -7 -1 -18 4
-23 17 -17 -23 -51 -100 -84 -80 -33 -118 -33 -173 -1 -29 17 -55 73 -60 127
-2 24 -8 31 -30 33 -22 3 -29 -2 -34 -23 -17 -69 22 -159 89 -203 l41 -27 240
0 c236 0 242 0 279 24 68 42 110 136 93 206 -5 21 -12 26 -34 23 -21 -2 -28
-9 -30 -31 -4 -33 -22 -26 -22 8 0 13 -8 29 -17 34 -10 6 -15 11 -11 11 12 0
-46 57 -65 63 -10 4 -15 12 -11 18 3 6 1 15 -7 19 -10 7 -10 11 1 25 12 15 11
16 -16 10 -16 -4 -36 -9 -45 -11 -14 -4 -13 5 7 61 33 91 31 126 -5 93 -11
-11 -12 -10 -7 0 8 14 26 72 22 72 -1 0 -6 -4 -11 -9z m77 -463 c-19 -19 -14
-38 11 -38 16 0 18 -3 8 -9 -7 -5 -10 -14 -7 -20 11 -16 -16 -13 -42 5 -29 20
-25 54 8 71 28 14 40 9 22 -9z"/>
</g>
</svg>
