<?xml version="1.0" standalone="no"?>
<!DOCTYPE svg PUBLIC "-//W3C//DTD SVG 20010904//EN"
 "http://www.w3.org/TR/2001/REC-SVG-20010904/DTD/svg10.dtd">
<svg version="1.0" xmlns="http://www.w3.org/2000/svg"
 width="192.000000pt" height="192.000000pt" viewBox="0 0 192.000000 192.000000"
 preserveAspectRatio="xMidYMid meet">
<metadata>
Created by potrace 1.16, written by Peter Selinger 2001-2019
</metadata>
<g transform="translate(0.000000,192.000000) scale(0.100000,-0.100000)"
fill="#000000" stroke="none">
811 c445 -92 729 -532 635 -987 -62 -301 -295 -546 -601 -630 -91 -26 -329
-26 -420 0 -291 80 -516 305 -596 596 -26 91 -26 329 0 420 120 433 542 692
982 601z"/>
<path d="M849 1366 c-52 -15 -143 -62 -160 -83 -10 -11 36 -13 267 -13 l278 0
-42 31 c-90 66 -241 95 -343 65z"/>
<path d="M605 1186 c-9 -14 -25 -46 -35 -73 -92 -242 59 -506 317 -552 173
-32 363 70 441 236 24 52 27 69 27 168 0 103 -2 114 -32 178 l-32 67 -335 0
-336 0 -15 -24z m548 -70 c57 -24 82 -61 82 -121 0 -46 -4 -58 -29 -84 -56
-59 -141 -59 -190 -1 -71 85 -18 207 97 219 4 1 22 -5 40 -13z m-319 -77 c18
-21 26 -42 26 -69 0 -27 -8 -48 -26 -69 -22 -26 -33 -31 -71 -31 -36 0 -50 6
-74 29 -66 66 -20 171 74 171 38 0 49 -5 71 -31z m76 -254 c0 -24 -5 -35 -14
-35 -24 0 -29 19 -12 45 22 33 26 31 26 -10z m72 18 c9 -10 21 -28 27 -41 10
-18 9 -23 -4 -28 -23 -9 -55 25 -55 58 0 32 10 36 32 11z"/>
<path d="M1080 1026 c-27 -33 18 -72 48 -42 13 13 14 20 6 34 -15 23 -38 26
-54 8z"/>
<path d="M755 950 c-9 -15 4 -30 26 -30 12 0 19 7 19 20 0 21 -33 29 -45 10z"/>
</g>
</svg>
