<?xml version="1.0" standalone="no"?>
<!DOCTYPE svg PUBLIC "-//W3C//DTD SVG 20010904//EN"
 "http://www.w3.org/TR/2001/REC-SVG-20010904/DTD/svg10.dtd">
<svg version="1.0" xmlns="http://www.w3.org/2000/svg"
 width="192.000000pt" height="192.000000pt" viewBox="0 0 192.000000 192.000000"
 preserveAspectRatio="xMidYMid meet">
<metadata>
Created by potrace 1.16, written by Peter Selinger 2001-2019
</metadata>
<g transform="translate(0.000000,192.000000) scale(0.100000,-0.100000)"
fill="#000000" stroke="none">
811 c445 -92 729 -532 635 -987 -62 -301 -295 -546 -601 -630 -91 -26 -329
-26 -420 0 -291 80 -516 305 -596 596 -26 91 -26 329 0 420 120 433 542 692
982 601z"/>
<path d="M580 1288 l-25 -14 -3 -264 c-2 -250 -1 -267 18 -298 11 -18 34 -41
52 -52 31 -18 51 -20 284 -20 297 0 284 -5 284 109 l0 72 66 -55 c36 -31 71
-56 79 -56 30 0 35 40 35 254 0 182 -2 217 -16 230 -8 9 -19 16 -24 16 -5 0
-38 -25 -73 -54 l-64 -55 -6 50 c-7 58 -35 102 -80 126 -27 15 -69 18 -267 21
-180 2 -241 0 -260 -10z m281 -78 c21 -12 25 -50 7 -68 -15 -15 -201 -16 -229
-2 -23 13 -25 43 -3 64 12 12 37 16 110 16 53 0 104 -5 115 -10z m130 0 c37
-20 18 -80 -26 -80 -42 0 -59 44 -29 74 18 19 28 20 55 6z"/>
</g>
</svg>
