<?xml version="1.0" standalone="no"?>
<!DOCTYPE svg PUBLIC "-//W3C//DTD SVG 20010904//EN"
 "http://www.w3.org/TR/2001/REC-SVG-20010904/DTD/svg10.dtd">
<svg version="1.0" xmlns="http://www.w3.org/2000/svg"
 width="192.000000pt" height="192.000000pt" viewBox="0 0 192.000000 192.000000"
 preserveAspectRatio="xMidYMid meet">
<metadata>
Created by potrace 1.16, written by Peter Selinger 2001-2019
</metadata>
<g transform="translate(0.000000,192.000000) scale(0.100000,-0.100000)"
fill="#000000" stroke="none">
811 c445 -92 729 -532 635 -987 -62 -301 -295 -546 -601 -630 -91 -26 -329
-26 -420 0 -291 80 -516 305 -596 596 -26 91 -26 329 0 420 120 433 542 692
982 601z"/>
<path d="M795 1327 c-3 -6 -4 -174 -3 -372 l3 -360 195 0 c224 0 251 7 305 84
l30 43 3 221 c4 240 -1 275 -45 328 -51 60 -86 69 -296 69 -141 0 -189 -3
-192 -13z m453 -236 c2 -13 -2 -28 -10 -32 -7 -5 -88 -9 -180 -9 -138 0 -169
3 -182 16 -19 19 -20 26 -4 42 9 9 61 12 193 10 l180 -3 3 -24z m-3 -121 l0
-25 -186 -3 c-166 -2 -187 -1 -193 14 -15 40 8 45 198 42 l181 -3 0 -25z m3
-119 c2 -13 -2 -28 -10 -32 -7 -5 -88 -9 -180 -9 -138 0 -169 3 -182 16 -19
19 -20 26 -4 42 9 9 61 12 193 10 l180 -3 3 -24z"/>
<path d="M674 1311 c-40 -24 -71 -65 -85 -110 -7 -23 -9 -118 -7 -256 3 -210
4 -222 26 -257 28 -45 69 -76 111 -84 l31 -7 0 367 0 366 -22 0 c-13 0 -37 -9
-54 -19z"/>
</g>
</svg>
