<?xml version="1.0" standalone="no"?>
<!DOCTYPE svg PUBLIC "-//W3C//DTD SVG 20010904//EN"
 "http://www.w3.org/TR/2001/REC-SVG-20010904/DTD/svg10.dtd">
<svg version="1.0" xmlns="http://www.w3.org/2000/svg"
 width="192.000000pt" height="192.000000pt" viewBox="0 0 192.000000 192.000000"
 preserveAspectRatio="xMidYMid meet">
<metadata>
Created by potrace 1.16, written by Peter Selinger 2001-2019
</metadata>
<g transform="translate(0.000000,192.000000) scale(0.100000,-0.100000)"
fill="#000000" stroke="none">
811 c445 -92 729 -532 635 -987 -62 -301 -295 -546 -601 -630 -91 -26 -329
-26 -420 0 -291 80 -516 305 -596 596 -26 91 -26 329 0 420 120 433 542 692
982 601z"/>
<path d="M871 1366 c-45 -25 -50 -49 -51 -235 l0 -174 -23 34 c-33 49 -70 64
-118 50 -42 -13 -69 -50 -69 -96 0 -15 22 -70 50 -123 103 -201 183 -266 326
-265 135 1 248 78 294 200 27 73 29 276 2 309 -26 33 -60 47 -97 40 -27 -5
-38 -2 -59 19 -18 18 -36 25 -65 25 l-39 0 -3 86 c-4 82 -5 87 -37 115 -35 32
-72 37 -111 15z"/>
</g>
</svg>
