<?xml version="1.0" standalone="no"?>
<!DOCTYPE svg PUBLIC "-//W3C//DTD SVG 20010904//EN"
 "http://www.w3.org/TR/2001/REC-SVG-20010904/DTD/svg10.dtd">
<svg version="1.0" xmlns="http://www.w3.org/2000/svg"
 width="192.000000pt" height="192.000000pt" viewBox="0 0 192.000000 192.000000"
 preserveAspectRatio="xMidYMid meet">
<metadata>
Created by potrace 1.16, written by Peter Selinger 2001-2019
</metadata>
<g transform="translate(0.000000,192.000000) scale(0.100000,-0.100000)"
fill="#000000" stroke="none">
811 c445 -92 729 -532 635 -987 -62 -301 -295 -546 -601 -630 -91 -26 -329
-26 -420 0 -291 80 -516 305 -596 596 -26 91 -26 329 0 420 120 433 542 692
982 601z"/>
<path d="M840 1367 c-203 -59 -332 -253 -300 -450 20 -123 106 -247 207 -297
26 -13 63 -34 83 -48 31 -21 44 -23 118 -20 74 3 86 6 103 27 25 31 24 75 -3
101 -19 17 -35 20 -113 20 -54 0 -96 -5 -102 -11 -15 -15 -90 28 -129 73 -138
164 -87 407 105 497 45 21 70 26 131 25 115 0 195 -44 259 -141 30 -45 31 -51
31 -154 0 -89 3 -111 18 -130 24 -29 75 -30 104 -1 19 19 21 33 22 129 1 117
-9 149 -48 159 -13 3 -39 28 -59 57 -44 63 -118 122 -189 149 -67 25 -178 32
-238 15z"/>
<path d="M774 1122 c-21 -13 -34 -52 -28 -77 7 -30 54 -58 81 -48 53 18 72 83
35 116 -19 17 -68 22 -88 9z"/>
<path d="M1006 1108 c-35 -49 -4 -111 54 -111 58 0 89 62 54 111 -11 16 -25
22 -54 22 -29 0 -43 -6 -54 -22z"/>
<path d="M786 905 c-22 -22 -20 -28 11 -66 33 -39 79 -59 136 -59 85 0 179 73
151 117 -10 16 -30 18 -147 21 -113 2 -138 0 -151 -13z"/>
</g>
</svg>
