<?xml version="1.0" standalone="no"?>
<!DOCTYPE svg PUBLIC "-//W3C//DTD SVG 20010904//EN"
 "http://www.w3.org/TR/2001/REC-SVG-20010904/DTD/svg10.dtd">
<svg version="1.0" xmlns="http://www.w3.org/2000/svg"
 width="192.000000pt" height="192.000000pt" viewBox="0 0 192.000000 192.000000"
 preserveAspectRatio="xMidYMid meet">
<metadata>
Created by potrace 1.16, written by Peter Selinger 2001-2019
</metadata>
<g transform="translate(0.000000,192.000000) scale(0.100000,-0.100000)"
fill="#000000" stroke="none">
811 c445 -92 729 -532 635 -987 -62 -301 -295 -546 -601 -630 -91 -26 -329
-26 -420 0 -291 80 -516 305 -596 596 -26 91 -26 329 0 420 120 433 542 692
982 601z"/>
<path d="M695 1321 c-50 -22 -91 -69 -105 -119 -14 -52 -13 -430 2 -473 17
-53 46 -87 91 -112 40 -21 53 -22 272 -22 219 0 232 1 272 22 89 48 103 94
103 347 0 217 -6 258 -47 307 -53 62 -83 69 -328 69 -192 0 -225 -3 -260 -19z
m420 -151 c24 -26 19 -37 -94 -194 -50 -69 -91 -128 -91 -131 0 -3 37 -5 82
-5 109 0 147 -31 98 -80 -18 -18 -33 -20 -144 -20 -219 0 -223 10 -86 203
l101 142 -86 5 c-71 4 -89 9 -101 24 -18 25 -18 35 3 58 14 16 33 18 158 18
129 0 144 -2 160 -20z"/>
</g>
</svg>
